# https://github.com/mikedh/trimesh
v -0.93172836 -0.17564625 -0.11467426
v -0.95313603 -0.14833532 -0.06603956
v -0.95318604 -0.14825533 -0.06603956
v -0.95313603 -0.14833532 -0.06994956
v -0.97308648 0.03125985 -0.05160278
v -0.97850949 0.01581129 -0.05425867
v -0.96876603 0.03922466 -0.05431957
v -0.96876603 0.03922466 -0.05822956
v -0.96963102 0.03852522 -0.11337188
v -0.96875602 0.03923466 -0.06213957
v -0.96875602 0.03923466 -0.05822956
v -0.95739335 -0.14076962 -0.05058976
v -0.95315111 -0.14831319 -0.06169614
v -0.95318604 -0.14825533 -0.06994956
v -0.94922602 -0.15509532 -0.10119956
v -0.94774568 -0.15766329 -0.08674115
v -0.95318604 -0.14825533 -0.07775957
v -0.95313603 -0.14833532 -0.09728956
v -0.96729320 0.08942833 -0.05013530
v -0.95318604 -0.14825533 -0.06213957
v -0.95318604 -0.14825533 -0.08556956
v -0.95318604 -0.14825533 -0.08166956
v -0.95318604 -0.14825533 -0.09728956
v -0.95318604 -0.14825533 -0.10119956
v -0.95785677 -0.14014947 -0.08928178
v -0.95318604 -0.14825533 -0.09338957
v -0.94690371 -0.15917137 -0.07383383
v -0.95313603 -0.14833532 -0.08166956
v -0.95310688 -0.14838675 -0.09272486
v -0.88110042 -0.25440955 -0.00643051
v -0.95313603 -0.14833532 -0.10119956
v -0.95313603 -0.14833532 -0.08556956
v -0.94922602 -0.15509532 -0.08556956
v -0.94922602 -0.15509532 -0.06994956
v -0.95318604 -0.14825533 -0.07384957
v -0.95710248 -0.12404667 -0.11306205
v -0.94773430 -0.12935655 -0.01146027
v -0.93360603 0.02751466 -0.00352957
v -0.92970377 0.02758594 0.00046927
v -0.95574588 0.13676704 -0.11270981
v -0.95313603 0.14869465 -0.07384957
v -0.95318604 0.14860468 -0.07384957
v -0.95318604 0.14860468 -0.06994956
v -0.95318604 0.14860468 -0.06603956
v -0.95318604 0.14860468 -0.07775957
v -0.95313603 0.14869465 -0.07775957
v -0.95313603 0.14869465 -0.08166956
v -0.95764601 0.14079466 -0.06872706
v -0.95313603 0.14869465 -0.06994956
v -0.95317334 0.14862756 -0.08209261
v -0.94881076 0.15616666 -0.07565186
v -0.95316255 0.14864722 -0.06492529
v -0.92974716 0.02749282 0.00044339
v -0.88950300 -0.25625291 -0.10784567
v -0.93748862 0.02699759 -0.00743741
v -0.93361729 0.02748054 -0.00353398
v -0.92543250 0.02988276 0.00442828
v -0.96775365 0.04396925 -0.05326791
v -0.93362129 0.02777467 -0.00359826
v -0.84765601 -0.29278532 -0.06213957
v -0.84766603 -0.29278532 -0.06213957
v -0.84766603 -0.29278532 -0.05822956
v -0.92137343 0.21377513 -0.06854130
v -0.84766603 -0.29278532 -0.05431957
v -0.84765601 -0.29278532 -0.05822956
v -0.84765601 -0.29278532 -0.07384957
v -0.84765601 -0.29278532 -0.06994956
v -0.84766603 -0.29278532 -0.06994956
v -0.91045278 -0.00134519 0.02432622
v -0.84765601 -0.29278532 -0.05431957
v -0.91774964 0.17656557 -0.00385477
v -0.84833932 -0.29237220 -0.07998630
v -0.85006857 -0.29251993 -0.10216459
v -0.84763533 -0.28886777 -0.05037649
v -0.85195762 -0.27717993 -0.04463166
v -0.84765601 -0.29278532 -0.07971457
v -0.85225874 -0.28832912 -0.05428603
v -0.84766603 -0.29278532 -0.06603956
v -0.84765601 -0.29278532 -0.06603956
v -0.84766603 -0.28888533 -0.05042957
v -0.85157603 -0.28888533 -0.05418957
v -0.80769140 -0.28117165 -0.01536735
v -0.83442456 0.21835506 0.02176574
v -0.84150243 0.24847364 -0.01525968
v -0.83985603 0.25017467 -0.01533957
v -0.83984482 0.25007606 -0.01525956
v -0.86369133 0.25654942 -0.03729090
v -0.83551073 0.25403342 -0.01505837
v -0.82828629 0.26246348 -0.01611721
v -0.83594602 0.25407466 -0.01541957
v -0.79688603 -0.28888533 -0.01325957
v -0.79351377 -0.31616604 -0.03129984
v -0.79297602 -0.28497532 -0.00745957
v -0.79296100 -0.28497043 -0.00744920
v -0.83086336 -0.31093413 -0.05542356
v -0.76563603 -0.30450532 0.00918043
v -0.78907603 -0.28888533 -0.00753957
v -0.78894603 -0.28888533 -0.00744957
v -0.78516603 -0.29256532 -0.00744957
v -0.80074155 -0.25175267 0.02312317
v -0.81650609 0.24633092 0.01595017
v -0.81641603 0.24637467 0.01598043
v -0.81252605 0.25017467 0.01598043
v -0.82086104 0.30439064 -0.03088452
v -0.78907603 0.21892466 0.03546044
v -0.78888601 0.21892466 0.03551043
v -0.78516603 0.22282466 0.03543043
v -0.82446271 0.22195438 0.01677482
v -0.83974606 0.25017467 -0.01525957
v -0.82032603 0.24257468 0.01598043
v -0.81641603 0.24626467 0.01607043
v -0.82170969 0.23374192 0.02174647
v -0.80860603 0.25017467 0.01885043
v -0.81251603 0.25017467 0.01599043
v -0.83594602 0.25386468 -0.01525957
v -0.81252313 0.25020519 0.01595453
v -0.78907603 -0.28876534 -0.00744957
v -0.75967675 0.38540301 -0.05446150
v -0.88317800 0.26826990 -0.04965758
v -0.80873108 0.29964280 -0.01843602
v -0.73641664 -0.25054729 0.03153423
v -0.80469602 0.30485466 -0.01939957
v -0.80839604 0.30095467 -0.01916957
v -0.80305606 0.30095467 -0.01525957
v -0.80457199 0.30487934 -0.01932615
v -0.79688603 -0.28497532 -0.01031957
v -0.77296811 -0.20990632 0.03379521
v -0.76949853 -0.20710358 0.03548859
v -0.78907603 -0.28497532 -0.00459957
v -0.78457326 -0.29063874 -0.00555554
v -0.73640454 -0.33305144 -0.00152504
v -0.78502256 -0.29286847 -0.00757666
v -0.76369488 -0.18250754 0.04420016
v -0.77393031 -0.20273238 0.03550361
v -0.75777715 -0.30829901 0.01208161
v -0.77344602 -0.20294534 0.03558044
v -0.77344602 -0.20318533 0.03551043
v -0.82477081 -0.22231096 0.01634685
v -0.72919917 -0.02133082 0.09512665
v -0.80316848 0.20714028 0.03478928
v -0.78919804 0.21718933 0.03591326
v -0.78472143 0.22286151 0.03553969
v -0.78516603 0.22673465 0.03436044
v -0.78516603 0.22254466 0.03551043
v -0.78357273 0.27049685 0.01070645
v -0.80860603 0.30095467 -0.01931957
v -0.78977454 0.26260644 0.02317880
v -0.78764760 0.33283404 -0.02793930
v -0.76547641 0.31663260 0.00045079
v -0.77379870 0.32420680 -0.01132696
v -0.77099603 0.31657466 -0.00353957
v -0.76956922 0.31249073 0.00056190
v -0.76954603 0.31279469 0.00036043
v -0.76563603 0.33220467 -0.01135957
v -0.76172602 0.33599466 -0.01134957
v -0.76172602 -0.30450532 0.01204043
v -0.75782603 -0.30826533 0.01207043
v -0.76168603 -0.30450532 0.01207043
v -0.75781536 -0.30840173 0.01198657
v -0.76755351 -0.19624470 0.03901944
v -0.76954603 -0.20685534 0.03555044
v -0.76172602 -0.30446532 0.01207043
v -0.76172602 -0.30060533 0.01498043
v -0.76967603 -0.20685534 0.03551043
v -0.58501273 -0.38919467 0.03250922
v -0.72266603 -0.18341532 0.06292043
v -0.72266603 -0.18732534 0.06185043
v -0.72361261 -0.18264887 0.06288291
v -0.71849126 -0.18766373 0.06287195
v -0.75704086 -0.23066436 0.04075419
v -0.73460835 -0.17619160 0.06171702
v -0.66884047 0.16420691 0.07434795
v -0.68958843 0.18584582 0.06284653
v -0.73895061 0.31081009 0.02405327
v -0.76954603 0.31267467 0.00045043
v -0.77096605 0.33220467 -0.01525957
v -0.76954603 0.32838467 -0.01134957
v -0.75851172 0.30795008 0.01206226
v -0.76562846 0.33220211 -0.01134948
v -0.76959693 0.32823741 -0.01127242
v -0.76566988 0.31657135 0.00036063
v -0.76172602 0.31657466 0.00323043
v -0.76563603 0.31657466 0.00038043
v -0.71150535 0.20915115 0.05056029
v -0.72336602 -0.32692146 0.02314641
v -0.75677216 -0.38604927 -0.04650097
v -0.71890604 -0.18732534 0.06286043
v -0.67564374 -0.44018924 -0.07557365
v -0.75791162 -0.21452735 0.03655827
v -0.72148281 -0.18284273 0.06339182
v -0.68717712 -0.21907961 0.06265796
v -0.71876603 -0.18732534 0.06289044
v -0.71485603 -0.19513533 0.06179043
v -0.68771964 -0.17553990 0.07445289
v -0.71489602 -0.19122534 0.06286043
v -0.71485603 -0.19126534 0.06286043
v -0.69532603 -0.16778535 0.07455043
v -0.69533098 -0.16767615 0.07457086
v -0.71485603 -0.19122534 0.06286043
v -0.71094602 -0.19506533 0.06286043
v -0.75096357 0.20443532 0.05015911
v -0.70704603 0.21141466 0.05114043
v -0.73476350 0.34538099 0.00085066
v -0.68751603 0.18783467 0.06286043
v -0.68754035 0.18781513 0.06285876
v -0.70339155 0.21487565 0.05116371
v -0.69141603 -0.17149533 0.07457044
v -0.69922602 -0.17169534 0.07242043
v -0.69155097 -0.17147343 0.07454354
v -0.69119877 -0.17165983 0.07458509
v -0.69289577 0.18669251 0.06172257
v -0.68360603 0.19548465 0.06180043
v -0.68685132 0.20824704 0.05741561
v -0.69922602 0.21892466 0.05116043
v -0.69916344 0.21914966 0.05111209
v -0.69932604 0.21892466 0.05114043
v -0.70313603 0.21521465 0.05114043
v -0.70311725 0.21525013 0.05113655
v -0.68751603 0.18767466 0.06290044
v -0.62500012 0.20281482 0.07582890
v -0.68353951 0.19161925 0.06287905
v -0.68360603 0.19157466 0.06287043
v -0.65902275 -0.39785361 -0.00455498
v -0.64844602 -0.39435533 0.00441043
v -0.65626603 -0.39435533 0.00010043
v -0.65578604 -0.39435533 0.00036043
v -0.60074568 -0.24438895 0.07784957
v -0.68366605 0.19157466 0.06286043
v -0.63536781 -0.39151138 0.01414207
v -0.64871603 -0.39435533 0.00426043
v -0.64829195 -0.39504582 0.00386666
v -0.69433838 -0.34427828 0.02390298
v -0.63348258 -0.09933110 0.10843761
v -0.51929206 0.43631116 0.02637806
v -0.47668758 0.25339097 0.10190067
v -0.64418066 0.45642126 -0.04767999
v -0.51444292 -0.44033331 0.02353732
v -0.59003359 -0.40980130 0.02300148
v -0.54660642 0.41394883 0.02950132
v -0.54237670 0.49693227 -0.05352572
v -0.51563603 -0.50372535 -0.03868957
v -0.53530139 0.47673559 -0.03090245
v -0.53516603 0.47282466 -0.02702957
v -0.51954603 -0.49982533 -0.03636956
v -0.51563603 -0.49982533 -0.03486957
v -0.51563603 -0.50763535 -0.04249957
v -0.46485603 0.52751464 -0.09338957
v -0.51558983 -0.50379044 -0.03873817
v -0.53483075 0.47711840 -0.03111237
v -0.53500897 0.47273532 -0.02688640
v -0.53517967 0.47275487 -0.02696496
v -0.54749250 0.47807458 -0.03689333
v -0.55484939 0.46110231 -0.02313105
v -0.53516603 0.47673467 -0.03083956
v -0.51544124 -0.49980178 -0.03477162
v -0.51566601 -0.50372535 -0.03869957
v -0.48438877 -0.47237360 -0.00738030
v -0.48438603 -0.47638533 -0.01128957
v -0.48453602 -0.47638533 -0.01134957
v -0.48438603 -0.47247532 -0.00747957
v -0.48558471 -0.48009139 -0.01537132
v -0.58559513 -0.49368954 -0.07680644
v -0.48424432 -0.47643799 -0.01129551
v -0.49610603 0.52360463 -0.07775957
v -0.48438603 0.48845467 -0.01142957
v -0.48437768 0.48839107 -0.01137013
v -0.49610603 0.52360463 -0.08947957
v -0.49610603 0.52360463 -0.06994956
v -0.49610603 0.52360463 -0.06603956
v -0.49609604 0.52360463 -0.08556956
v -0.49610603 0.52360463 -0.08166956
v -0.49609604 0.52360463 -0.08166956
v -0.52699888 0.50833553 -0.11338166
v -0.54100484 0.50619406 -0.05084372
v -0.48438761 0.49244133 -0.01531761
v -0.49610174 0.52360463 -0.09339208
v -0.49609604 0.52360463 -0.06994956
v -0.48424828 -0.47249782 -0.00745575
v -0.46270865 -0.45619106 0.01665682
v -0.48438603 0.49235466 -0.01524957
v -0.48417604 0.48845467 -0.01134957
v -0.49609604 0.52360463 -0.09338957
v -0.49609604 0.52360463 -0.08947957
v -0.49610603 0.52360463 -0.08556956
v -0.48829603 0.49083468 -0.01525957
v -0.49610603 0.52360463 -0.07384957
v -0.49609604 0.52360463 -0.07384957
v -0.46486604 0.52751464 -0.05822956
v -0.49609604 0.52360463 -0.07775957
v -0.49254924 0.51660651 -0.05400337
v -0.46485603 0.52751464 -0.08947957
v -0.46486604 0.52751464 -0.08947957
v -0.46486604 0.52751464 -0.08556956
v -0.49226907 0.52441484 -0.05014960
v -0.47676998 0.45172828 0.01607454
v -0.43714532 0.54716587 -0.04948137
v -0.45239630 0.53990489 -0.11301346
v -0.46485603 0.52751464 -0.08166956
v -0.46485603 0.52751464 -0.07775957
v -0.46486604 0.52751464 -0.07775957
v -0.42260835 0.47726238 0.02325337
v -0.46486604 0.52751464 -0.09338957
v -0.46485603 0.52751464 -0.08556956
v -0.46485603 0.52751464 -0.09728956
v -0.46486604 0.52751464 -0.07384957
v -0.46486604 0.52751464 -0.06994956
v -0.46859199 0.52742153 -0.11315268
v -0.46486604 0.52751464 -0.06603956
v -0.46486604 0.52751464 -0.08166956
v -0.46486604 0.52751464 -0.06213957
v -0.46485603 0.52751464 -0.06994956
v -0.46485603 0.52751464 -0.07384957
v -0.46485603 0.52751464 -0.06603956
v -0.46485603 0.52751464 -0.06213957
v -0.38706604 -0.24982534 0.10192043
v -0.38672602 -0.24200533 0.10387043
v -0.38672602 -0.24995534 0.10192043
v -0.47755277 -0.26536000 0.08942472
v -0.39007941 -0.24733408 0.10223787
v -0.38850680 -0.25335035 0.10091085
v -0.42779696 0.54238820 -0.05436816
v -0.47717968 -0.53175980 -0.08211535
v -0.38282603 -0.25149533 0.10192043
v -0.36713511 -0.31525290 0.08815367
v -0.38672602 -0.24982534 0.10195043
v -0.29816109 -0.58327800 -0.04919751
v -0.23149271 0.52316678 0.02285940
v -0.32440990 -0.50763035 0.01601422
v -0.32283509 -0.50509620 0.01896616
v -0.38071305 -0.20345969 0.11387937
v -0.66430628 -0.00518381 0.10995176
v -0.05080494 0.61109704 -0.05025107
v -0.31842050 -0.52916241 -0.00464874
v -0.32422602 -0.50770533 0.01598043
v -0.32422602 -0.51153535 0.01205043
v -0.32422602 -0.51151538 0.01207043
v -0.32413602 -0.51153535 0.01207043
v -0.31641603 -0.51324534 0.01207043
v -0.32446250 -0.51144451 0.01209141
v -0.35790011 -0.48133966 0.03439758
v -0.22739738 -0.24248911 0.11479773
v -0.28010470 0.55105269 -0.02936155
v -0.26949570 0.55492389 -0.03090697
v -0.26957813 0.55915022 -0.03528033
v -0.26954603 0.55871463 -0.03478956
v -0.26929247 0.55877048 -0.03479318
v -0.26950076 0.55103266 -0.02692379
v -0.26966000 0.55480868 -0.03083127
v -0.25703549 0.54801011 -0.02100364
v -0.23975785 0.58719456 -0.11225544
v -0.33984581 0.50342578 0.01655224
v -0.21705687 -0.52458656 0.02276728
v -0.03381845 -0.27225965 0.11355152
v -0.42656502 -0.54436791 -0.05590801
v -0.11329604 0.54313463 0.01202043
v -0.11329604 0.53934467 0.01598043
v -0.11329604 0.53923464 0.01610043
v -0.11719604 0.54280466 0.01207043
v -0.11329604 0.54308462 0.01207043
v -0.10938604 0.53923464 0.01639043
v -0.10938604 0.54313463 0.01231043
v -0.09760728 0.53329670 0.02330585
v -0.11540060 0.53925097 0.01592569
v -0.08107750 0.58473593 -0.02862776
v 0.03945236 -0.38868541 0.08137738
v 0.01440545 -0.28466707 0.10969862
v 0.12360331 -0.60424477 -0.02831398
v -0.00020089 -0.28511164 0.10985748
v -0.00004309 -0.28529209 0.10980740
v -0.00009467 -0.28568327 0.10970009
v 0.00852941 -0.28505021 0.10971287
v 0.00794639 -0.28503275 0.10972620
v 0.02214289 0.51758760 0.03863327
v 0.21424878 0.57834482 -0.01864205
v -0.02066095 -0.60966057 -0.06178415
v 0.27468976 -0.25643921 0.11340095
v 0.14032638 -0.54007721 0.02212577
v 0.21691406 0.52543849 0.02281169
v 0.39492214 0.24413608 0.11443960
v 0.28588656 0.28109044 0.10499877
v 0.26985934 0.51263100 0.02336521
v 0.32064205 -0.33549947 0.08548423
v 0.28904396 0.52346462 0.00817043
v 0.28904396 0.51202464 0.01989043
v 0.28904396 0.51579463 0.01602043
v 0.28513396 0.51670462 0.01598043
v 0.34040064 -0.39077005 0.06308403
v 0.33591396 -0.37154531 0.07067043
v 0.49607396 0.52360463 -0.06603956
v 0.49606398 0.52360463 -0.06603956
v 0.49606398 0.52360463 -0.06213957
v 0.28904396 0.51583463 0.01598043
v 0.28881201 0.51962441 0.01215393
v 0.28923395 0.51579463 0.01598043
v 0.28908285 0.51966679 0.01205023
v 0.28904396 0.51965463 0.01207043
v 0.33982396 -0.37067533 0.07067043
v 0.34373397 -0.36981532 0.07067043
v 0.33875397 -0.37091532 0.07067043
v 0.46630794 0.52693540 -0.06810969
v 0.31602088 0.52916104 -0.00374709
v 0.46482396 0.52751464 -0.06213957
v 0.42216343 -0.54270959 -0.06377311
v 0.39147568 -0.55414736 -0.06554293
v 0.55284357 -0.48494756 -0.01105264
v 0.42169994 -0.54279107 -0.06994032
v 0.42187271 0.54313368 -0.10906205
v 0.35002297 0.49496123 0.02345295
v 0.42175397 0.54313463 -0.10119956
v 0.42185396 0.54311466 -0.10509957
v 0.43742546 0.54159623 -0.11290695
v 0.42173398 -0.54278535 -0.06994956
v 0.42173398 -0.54278535 -0.07384957
v 0.42185396 -0.54276538 -0.07384957
v 0.42173398 -0.54278535 -0.07775957
v 0.42185396 -0.54276538 -0.07775957
v 0.42185396 -0.54276538 -0.08166956
v 0.42185396 -0.54276538 -0.06994956
v 0.46269834 -0.53477746 -0.11232315
v 0.46180516 0.53152007 -0.06176186
v 0.46549556 0.52725232 -0.07243897
v 0.42175397 0.54313463 -0.10509957
v 0.42175397 0.54313463 -0.10900957
v 0.41794395 0.54398465 -0.10900957
v 0.49607396 0.52360463 -0.06213957
v 0.49606398 0.52360463 -0.05822956
v 0.39203030 0.55394047 -0.11282349
v 0.47952640 0.50620294 -0.02687035
v 0.42185396 0.54311466 -0.10900957
v 0.46486676 0.52678603 -0.05084042
v 0.59737456 0.48719227 -0.05401028
v 0.46482396 0.52751464 -0.05431957
v 0.49604118 0.51580316 -0.04259195
v 0.49596879 0.51594013 -0.04269132
v 0.49607396 0.51578462 -0.04259956
v 0.49596426 0.51191306 -0.03877771
v 0.55130315 0.11637834 0.10607364
v 0.43362504 0.54742539 -0.04889351
v 0.50752175 0.51579744 -0.04701358
v 0.51065087 0.51772857 -0.05036798
v 0.49607396 0.52360463 -0.05822956
v 0.49607396 0.52360463 -0.07775957
v 0.47263396 0.52444464 -0.05822956
v 0.46483397 0.52751464 -0.05822956
v 0.46482396 0.52751464 -0.05822956
v 0.46483397 0.52751464 -0.06213957
v 0.49606398 0.52360463 -0.05431957
v 0.49657664 0.52322996 -0.05037329
v 0.49607396 0.52360463 -0.07384957
v 0.49606398 0.52360463 -0.06994956
v 0.49607396 0.52360463 -0.06994956
v 0.49582398 0.51188463 -0.03869957
v 0.49607390 0.51116019 -0.03808679
v 0.48249036 0.52466708 -0.10120276
v 0.56765342 0.46847793 -0.01976361
v 0.49568278 0.51190555 -0.03866616
v 0.49998397 0.51579463 -0.04410957
v 0.53830492 0.50398898 -0.05910566
v 0.23097199 -0.30752456 0.10633790
v 0.60154396 0.09001466 0.10192043
v 0.60544395 0.08625466 0.10192043
v 0.59763396 0.09001466 0.10264043
v 0.60156280 0.09003571 0.10192043
v 0.60690057 0.47172853 -0.08938764
v 0.66388893 -0.44363570 -0.10683088
v 0.57505077 -0.44468242 0.00420654
v 0.67432123 -0.20059761 0.06276959
v 0.59763396 0.09384467 0.10192043
v 0.59761828 0.09401435 0.10188949
v 0.61558765 0.05337081 0.10605467
v 0.51470768 0.44803041 0.02177739
v 0.72379839 0.32714394 0.02284253
v 0.58250159 0.48246983 -0.11282684
v 0.59370399 0.47673467 -0.08166956
v 0.60154396 0.47364467 -0.08947957
v 0.59373397 0.47672468 -0.08556956
v 0.59373397 0.47672468 -0.08947957
v 0.59370399 0.47673467 -0.08947957
v 0.59937060 -0.22216032 0.08521150
v 0.66016752 0.15970939 0.07791177
v 0.74221522 0.35106605 -0.01977634
v 0.59370399 0.47673467 -0.08556956
v 0.67964548 -0.19511399 0.06286037
v 0.67966396 -0.19122534 0.06392044
v 0.68357396 -0.19128534 0.06286043
v 0.66293472 -0.16284928 0.07634993
v 0.62666351 0.19945639 0.07610193
v 0.66404396 0.16813467 0.07455043
v 0.65597767 0.17602757 0.07454321
v 0.65623397 0.17566466 0.07457044
v 0.66013396 0.17204466 0.07452044
v 0.84465593 -0.31673601 -0.05359021
v 0.66418391 0.17859653 0.07163577
v 0.67966396 -0.19513533 0.06284043
v 0.67576396 -0.19889534 0.06286043
v 0.68357396 -0.19122534 0.06287043
v 0.68363398 -0.19122534 0.06286043
v 0.68748397 -0.19903535 0.05968043
v 0.63730007 -0.03338076 0.10721107
v 0.68845421 -0.18633024 0.06291015
v 0.68748397 -0.18748534 0.06286043
v 0.66879469 0.01060958 0.11555365
v 0.70242232 -0.19406985 0.05703831
v 0.69184083 0.12538575 0.07871193
v 0.68725121 0.23068567 0.05112906
v 0.68748397 0.22673465 0.05215043
v 0.65996337 0.17196091 0.07458856
v 0.66416740 0.16801560 0.07454714
v 0.66013396 0.17186466 0.07457044
v 0.66404396 0.16423465 0.07563043
v 0.66396397 0.16813467 0.07457044
v 0.67399710 0.19819462 0.06360985
v 0.68748397 0.23042466 0.05114043
v 0.72458649 -0.20938876 0.05523495
v 0.70701396 -0.19888534 0.06286043
v 0.69909024 -0.34241760 0.02443814
v 0.70519209 -0.20072031 0.06283161
v 0.70701396 -0.19903535 0.06281043
v 0.70614100 -0.18701753 0.06635423
v 0.72870928 -0.27603909 0.02744996
v 0.71086395 -0.19513533 0.06286043
v 0.71151477 -0.19473654 0.06277693
v 0.74902481 -0.16490082 0.06085176
v 0.80076396 -0.31232533 -0.03373957
v 0.80076396 -0.30852532 -0.03088957
v 0.69919395 0.22282466 0.05009043
v 0.69529396 0.22282466 0.05113043
v 0.70975435 0.25123993 0.03943071
v 0.69138396 0.22661465 0.05114043
v 0.69528246 0.22281875 0.05114089
v 0.69138396 0.22673465 0.05110043
v 0.89178437 0.12902766 0.02899866
v 0.69126397 0.22673465 0.05114043
v 0.71821606 0.32529309 0.01647081
v 0.74815416 0.35820949 -0.01813260
v 0.76744401 0.27825281 0.01649521
v 0.70234138 0.42509612 -0.09019101
v 0.73824149 -0.11304507 0.07454580
v 0.84762394 -0.29278532 -0.08166956
v 0.84373397 -0.27325532 -0.03581957
v 0.79294395 -0.31232533 -0.02801956
v 0.80529124 -0.30389947 -0.03072866
v 0.84816611 -0.29185393 -0.05317225
v 0.74607396 -0.14044534 0.06668044
v 0.74808395 -0.13653535 0.06676043
v 0.74607396 -0.14001533 0.06676043
v 0.80466396 -0.30472532 -0.03088957
v 0.80087399 -0.30841532 -0.03088957
v 0.74607396 -0.13653535 0.06743043
v 0.74607396 -0.13263533 0.06818043
v 0.73423547 0.03012722 0.08391418
v 0.84763485 -0.29278511 -0.10901998
v 0.84762394 -0.29278532 -0.10900957
v 0.84763396 -0.29278532 -0.10900957
v 0.70507866 0.21692888 0.05012622
v 0.74213398 0.32438466 0.00036043
v 0.73826396 0.32816467 0.00036043
v 0.73695701 0.32931975 0.00042312
v 0.73826396 0.32829466 0.00027043
v 0.76928586 0.25019151 0.02378111
v 0.76560396 0.25407466 0.02370043
v 0.76951396 0.25017467 0.02373043
v 0.76560718 0.25373077 0.02379063
v 0.74219275 0.32438028 0.00032463
v 0.76123607 0.32066458 0.00051643
v 0.75803423 0.32617956 -0.00129916
v 0.74207258 0.32437760 0.00041206
v 0.76562387 0.31658411 0.00036090
v 0.70333010 0.41276515 -0.05373292
v 0.76951396 0.31267467 0.00045043
v 0.69558734 -0.42615509 -0.07396063
v 0.75779396 0.37908468 -0.08361956
v 0.75273180 0.19861694 0.04240529
v 0.76399893 0.37340030 -0.05223991
v 0.79682684 -0.31233835 -0.03093009
v 0.78156346 0.31634176 -0.01111644
v 0.74515712 -0.29958630 0.01651892
v 0.79685396 -0.31232533 -0.03087957
v 0.80082029 -0.30841735 -0.03084689
v 0.83829814 -0.30434883 -0.11311292
v 0.76560396 0.33219865 -0.01135353
v 0.77586281 0.20094377 0.03557366
v 0.81235850 0.31264517 -0.03088391
v 0.76148343 0.21500601 0.03555257
v 0.78933978 0.31893027 -0.01876691
v 0.77736628 0.24227913 0.02379148
v 0.77341396 0.20329466 0.03558044
v 0.76951396 0.20720465 0.03555044
v 0.76560396 0.32048467 -0.00254957
v 0.76951396 0.32319468 -0.00744957
v 0.78123397 0.25017467 0.02059044
v 0.77732396 0.24235468 0.02378043
v 0.76169395 0.21494468 0.03551043
v 0.76560396 0.21110468 0.03552044
v 0.76562625 0.21111982 0.03551111
v 0.76050276 0.21632002 0.03544673
v 0.77197713 0.24752896 0.02379436
v 0.76169395 0.25798467 0.02367043
v 0.77341396 0.24612466 0.02379043
v 0.76952726 0.20762649 0.03543239
v 0.76560396 0.21501467 0.03445044
v 0.77353466 0.20341219 0.03551238
v 0.76965398 0.20720465 0.03551043
v 0.78017354 0.26420906 0.01698212
v 0.76169395 0.32040468 0.00036043
v 0.77341396 0.24626467 0.02376043
v 0.73952746 0.30735016 0.01505752
v 0.76139468 0.23397040 0.03035913
v 0.77217746 0.26275796 0.01955099
v 0.76131159 0.25834411 0.02367180
v 0.77341396 0.32829466 -0.01413957
v 0.76979810 0.32805249 -0.01131013
v 0.77341396 0.32438466 -0.01120957
v 0.76960397 0.32829466 -0.01134957
v 0.76560396 0.33219469 -0.01134957
v 0.76573229 0.31640720 0.00040877
v 0.77644861 0.30752507 -0.00074905
v 0.81248397 0.31267467 -0.03098957
v 0.76951396 0.32838467 -0.01134957
v 0.77731740 0.32049623 -0.01113290
v 0.77759880 0.31520164 -0.00736495
v 0.77732396 0.32048467 -0.01112957
v 0.81638396 -0.24602532 0.01598043
v 0.81696343 -0.24553566 0.01594122
v 0.81638396 -0.24591532 0.01607043
v 0.77353573 0.32447466 -0.01135383
v 0.76538146 0.37286070 -0.05822245
v 0.81248379 -0.24983551 0.01598040
v 0.81638396 0.30876467 -0.03090957
v 0.81248397 0.31253466 -0.03088957
v 0.81677407 0.30869129 -0.03113701
v 0.82579011 0.31545311 -0.04282308
v 0.81637055 0.29315576 -0.01916248
v 0.75779396 0.37908468 -0.07775957
v 0.84323329 -0.29705140 -0.10901545
v 0.80491352 -0.30451360 -0.03091849
v 0.81242371 -0.32703152 -0.05345820
v 0.83270729 -0.27245140 -0.02714629
v 0.84763396 -0.29278532 -0.07775957
v 0.84763396 -0.29278532 -0.08166956
v 0.85172242 -0.26931536 -0.03871403
v 0.85154396 -0.26947534 -0.03869957
v 0.84763396 -0.29278532 -0.05822956
v 0.84373397 -0.29669532 -0.10921957
v 0.80857396 -0.24982534 0.01885043
v 0.84762394 -0.29278532 -0.05431957
v 0.84763396 -0.29278532 -0.10119956
v 0.85489917 -0.29326433 -0.11343083
v 0.84367394 -0.29664034 -0.08020144
v 0.82029992 -0.24215397 0.01603605
v 0.84762394 -0.29278532 -0.10509957
v 0.84762394 -0.29278532 -0.09338957
v 0.84762394 -0.29278532 -0.08947957
v 0.84763396 -0.29278532 -0.09338957
v 0.80643117 -0.30093738 -0.01795131
v 0.81248397 -0.24982534 0.01599043
v 0.84763396 -0.29278532 -0.08947957
v 0.84763396 -0.29278532 -0.07384957
v 0.84763396 -0.29278532 -0.08556956
v 0.84762394 -0.29278532 -0.07775957
v 0.84763396 -0.29278532 -0.06603956
v 0.84763396 -0.29278532 -0.06994956
v 0.79217738 0.20067637 0.03130188
v 0.87539256 0.25063241 -0.02628711
v 0.81631589 0.30877098 -0.03086516
v 0.81638396 0.31392467 -0.03478956
v 0.82029396 0.32048467 -0.04257956
v 0.80695385 0.31876662 -0.03152808
v 0.76287013 0.39005977 -0.06536918
v 0.82906413 -0.22365870 0.02312639
v 0.84763396 -0.29278532 -0.06213957
v 0.84762394 -0.29278532 -0.06213957
v 0.84762394 -0.29278532 -0.05822956
v 0.78977549 -0.14256337 0.05201112
v 0.84762394 -0.29278532 -0.06994956
v 0.84762394 -0.29278532 -0.07384957
v 0.84762394 -0.29278532 -0.06603956
v 0.84763396 -0.29278532 -0.09728956
v 0.84762394 -0.29278532 -0.10119956
v 0.84762394 -0.29278532 -0.09728956
v 0.84762394 -0.29278532 -0.08556956
v 0.89203900 -0.25641376 -0.09741994
v 0.85544395 -0.26567534 -0.03869957
v 0.84763396 -0.29278532 -0.10509957
v 0.84260881 -0.29758334 -0.05328892
v 0.84764427 -0.27327073 -0.03870203
v 0.83851629 -0.21099639 0.01635654
v 0.85185140 -0.26909935 -0.03863950
v 0.84765399 -0.27325532 -0.03869957
v 0.82419395 0.31671467 -0.04259956
v 0.82419395 0.31657466 -0.04249957
v 0.82006127 0.32076076 -0.04261240
v 0.82032394 0.32048467 -0.04259956
v 0.84763396 -0.27325532 -0.03867956
v 0.92683727 0.20827368 -0.06235368
v 0.83677751 0.31423891 -0.05003177
v 0.95753849 -0.14130113 -0.09087160
v 0.96873397 -0.03892534 -0.07384957
v 0.88672537 -0.11480162 0.01642429
v 0.96873099 0.03922055 -0.06589926
v 0.96873397 0.03921466 -0.06994956
v 0.78605789 0.36082011 -0.10564519
v 0.94927394 -0.04669534 -0.03478956
v 0.96873397 -0.03888534 -0.07775957
v 0.96873397 -0.03888534 -0.08166956
v 0.96872395 0.03923466 -0.06603956
v 0.96429229 -0.06252930 -0.05365425
v 0.94915789 -0.04718281 -0.03477299
v 0.96873397 -0.03892534 -0.07775957
v 0.95309037 -0.04652813 -0.03869798
v 0.96873397 -0.03892534 -0.08947957
v 0.96873397 -0.03892534 -0.08556956
v 0.96873397 -0.03892534 -0.08166956
v 0.96873397 -0.03888534 -0.09338957
v 0.96873397 -0.03888534 -0.08947957
v 0.95695281 -0.04680483 -0.04272959
v 0.95309484 -0.04651713 -0.03870110
v 0.96873397 0.03921466 -0.07775957
v 0.96873397 0.03921466 -0.08166956
v 0.94911206 -0.04659712 -0.03462392
v 0.97656995 0.00735930 -0.10096633
v 0.92624015 0.08777411 0.00541843
v 0.96581900 0.05486294 -0.05425109
v 0.96873397 -0.03891534 -0.06994956
v 0.97062331 -0.10981856 -0.02558085
v 0.96876687 -0.03784461 -0.05324232
v 0.96873397 0.03921466 -0.07384957
v 0.96872395 0.03923466 -0.07775957
v 0.96872395 0.03923466 -0.08166956
v 0.96873397 0.03921466 -0.08556956
v 0.96872395 0.03923466 -0.08556956
v 0.96873397 0.03921466 -0.08947957
v 0.96872395 0.03923466 -0.08947957
v 0.96569729 0.07139575 -0.09568124
v 0.96873397 -0.03888534 -0.08556956
v 0.96873397 -0.03888534 -0.07384957
v 0.96873397 0.03921466 -0.09728956
v 0.96873397 0.03921466 -0.09338957
v 0.96872395 0.03923466 -0.06994956
v 0.96872395 0.03923466 -0.09338957
v 0.96872395 0.03923466 -0.07384957
f 2 3 4
f 5 9 10
f 5 8 7
f 58 7 11
f 9 6 19
f 5 6 9
f 15 1 16
f 7 58 5
f 20 13 12
f 25 21 22
f 22 17 25
f 25 36 23
f 16 27 28
f 20 3 2
f 26 29 25
f 29 26 18
f 15 29 18
f 26 23 18
f 36 24 23
f 15 18 31
f 15 16 29
f 31 24 15
f 24 1 15
f 36 1 24
f 23 24 31
f 18 23 31
f 32 33 28
f 25 23 26
f 25 20 12
f 13 20 2
f 25 3 20
f 34 27 13
f 1 36 37
f 27 35 17
f 4 14 34
f 14 27 34
f 32 21 33
f 21 25 33
f 17 35 25
f 33 25 16
f 16 25 29
f 22 32 28
f 32 22 21
f 30 12 13
f 27 35 34
f 35 27 34
f 25 35 14
f 3 14 4
f 33 16 28
f 28 27 17
f 22 28 17
f 25 14 3
f 34 13 2
f 34 2 4
f 27 14 35
f 13 27 30
f 12 6 25
f 30 6 12
f 25 6 36
f 6 5 37
f 37 36 6
f 37 5 58
f 10 9 58
f 38 56 53
f 8 11 7
f 5 10 8
f 11 10 58
f 11 8 10
f 41 42 43
f 9 19 40
f 9 40 63
f 58 9 63
f 44 48 52
f 45 46 47
f 49 41 43
f 48 45 50
f 51 47 46
f 45 47 50
f 42 46 45
f 42 48 43
f 41 46 42
f 41 49 51
f 40 50 63
f 48 42 45
f 48 40 19
f 43 48 44
f 51 50 47
f 52 49 44
f 40 48 50
f 51 63 50
f 46 41 51
f 49 43 44
f 51 49 52
f 52 48 71
f 48 19 71
f 51 52 71
f 27 16 1
f 30 27 1
f 53 69 57
f 55 6 69
f 55 69 56
f 69 53 56
f 59 55 56
f 57 69 71
f 59 56 38
f 39 38 53
f 59 38 39
f 55 19 6
f 39 53 57
f 30 1 54
f 19 55 59
f 39 57 59
f 19 59 71
f 59 57 71
f 37 58 63
f 60 61 62
f 51 71 63
f 71 119 63
f 37 54 1
f 62 64 65
f 95 66 67
f 66 68 67
f 30 69 6
f 119 71 83
f 76 72 66
f 95 76 66
f 73 72 76
f 95 73 76
f 78 77 61
f 67 78 79
f 95 67 79
f 70 80 74
f 95 70 74
f 72 54 37
f 72 77 68
f 72 68 66
f 77 81 64
f 64 81 80
f 78 61 79
f 95 65 70
f 65 64 70
f 60 62 65
f 95 60 65
f 81 77 75
f 77 37 75
f 62 77 64
f 68 77 78
f 67 68 78
f 80 81 74
f 81 75 74
f 95 79 60
f 79 61 60
f 61 77 62
f 77 72 37
f 72 73 54
f 54 73 30
f 70 64 80
f 75 37 138
f 37 133 138
f 63 108 37
f 108 63 87
f 84 85 86
f 87 84 108
f 87 90 85
f 63 119 118
f 30 73 95
f 186 30 95
f 95 74 75
f 75 82 95
f 97 98 99
f 75 138 82
f 92 82 91
f 83 71 140
f 101 102 103
f 105 106 107
f 84 86 108
f 87 85 84
f 85 109 86
f 101 110 111
f 110 112 111
f 119 110 101
f 112 83 147
f 89 90 87
f 119 83 112
f 119 112 110
f 86 88 108
f 103 102 114
f 102 111 114
f 102 101 111
f 86 109 88
f 88 89 145
f 109 115 88
f 88 90 89
f 85 90 109
f 115 109 90
f 88 115 90
f 89 87 118
f 108 88 145
f 89 118 145
f 101 103 116
f 147 119 116
f 119 101 116
f 97 117 98
f 118 87 63
f 119 104 118
f 148 118 104
f 119 120 104
f 122 123 125
f 119 147 120
f 98 129 130
f 98 117 129
f 95 188 186
f 91 82 126
f 99 98 130
f 95 92 131
f 93 94 117
f 97 93 117
f 95 82 92
f 93 126 94
f 82 138 121
f 132 97 99
f 126 82 94
f 91 126 93
f 129 82 121
f 94 82 129
f 132 99 130
f 97 92 94
f 92 91 94
f 91 93 94
f 93 97 94
f 92 97 132
f 130 129 121
f 131 92 132
f 117 94 129
f 186 100 30
f 136 134 160
f 100 170 30
f 134 137 127
f 133 37 331
f 127 138 134
f 139 69 30
f 69 139 71
f 37 108 331
f 106 141 142
f 105 141 106
f 83 140 105
f 140 141 105
f 142 141 201
f 116 103 114
f 116 114 113
f 83 105 144
f 114 112 113
f 112 147 113
f 114 111 112
f 106 142 144
f 107 106 144
f 147 83 143
f 83 144 143
f 143 107 142
f 105 107 144
f 142 201 143
f 144 107 143
f 147 143 201
f 107 144 142
f 116 113 147
f 125 124 148
f 146 120 123
f 146 120 124
f 123 146 124
f 123 120 146
f 124 120 147
f 125 123 124
f 146 104 120
f 104 146 125
f 146 122 125
f 146 123 122
f 147 148 124
f 104 125 148
f 148 150 180
f 150 181 149
f 151 152 153
f 118 154 155
f 188 95 131
f 156 157 158
f 186 96 100
f 135 159 185
f 121 131 130
f 131 132 130
f 100 162 163
f 96 186 156
f 100 96 162
f 185 163 135
f 156 159 157
f 163 185 100
f 186 159 156
f 158 135 163
f 162 158 163
f 156 158 162
f 96 156 162
f 186 185 159
f 135 157 159
f 189 127 128
f 135 158 157
f 137 128 127
f 164 161 128
f 164 128 137
f 100 185 170
f 161 136 160
f 164 136 161
f 164 137 136
f 189 160 133
f 134 136 137
f 138 127 189
f 189 128 161
f 139 30 170
f 160 134 133
f 134 138 133
f 167 168 170
f 161 160 189
f 190 168 166
f 170 169 167
f 140 71 139
f 201 141 140
f 174 147 201
f 108 145 239
f 152 175 153
f 176 180 177
f 145 118 239
f 152 147 178
f 152 178 175
f 147 174 178
f 181 178 174
f 148 147 150
f 151 181 150
f 178 181 175
f 151 153 181
f 150 147 151
f 147 152 151
f 182 181 174
f 180 203 179
f 148 180 176
f 176 177 154
f 150 149 180
f 148 176 118
f 154 179 155
f 180 179 177
f 176 154 118
f 154 177 179
f 180 149 203
f 181 153 183
f 155 179 203
f 155 203 118
f 183 181 182
f 153 175 183
f 175 181 183
f 149 181 183
f 174 203 182
f 149 183 182
f 203 149 182
f 169 187 167
f 170 185 232
f 131 121 165
f 121 138 189
f 139 170 171
f 171 168 190
f 170 168 171
f 169 192 187
f 167 187 168
f 195 193 196
f 139 171 190
f 168 187 166
f 187 192 166
f 199 200 190
f 200 191 190
f 140 139 201
f 198 197 207
f 197 209 207
f 186 232 185
f 196 193 200
f 190 191 194
f 121 189 133
f 191 193 170
f 190 208 198
f 139 190 198
f 166 192 190
f 192 195 199
f 195 192 169
f 193 191 200
f 170 193 169
f 169 193 195
f 209 197 208
f 196 200 199
f 192 199 190
f 209 208 194
f 195 196 199
f 210 198 207
f 194 208 190
f 208 197 198
f 209 210 207
f 209 194 210
f 233 198 210
f 139 198 233
f 201 139 235
f 202 211 184
f 172 211 173
f 331 108 211
f 331 211 172
f 214 216 215
f 213 173 211
f 217 206 218
f 206 217 214
f 217 216 214
f 108 184 211
f 215 213 214
f 204 219 205
f 217 218 216
f 202 218 206
f 211 202 206
f 213 206 214
f 173 219 172
f 219 173 205
f 213 211 206
f 202 184 218
f 173 213 205
f 184 108 218
f 218 108 215
f 239 213 215
f 216 218 215
f 239 215 108
f 174 201 235
f 203 174 236
f 118 203 236
f 131 165 188
f 232 186 188
f 232 188 223
f 226 225 223
f 170 232 227
f 170 227 191
f 331 121 133
f 210 194 233
f 191 233 194
f 172 219 221
f 221 222 228
f 228 212 221
f 212 228 205
f 204 205 228
f 172 221 220
f 205 213 212
f 213 239 220
f 172 220 331
f 221 219 222
f 212 213 220
f 221 212 220
f 174 235 236
f 219 204 222
f 204 228 222
f 232 225 229
f 225 224 229
f 225 230 224
f 230 231 224
f 238 223 188
f 224 231 229
f 223 231 230
f 226 223 230
f 223 238 231
f 225 232 223
f 231 238 229
f 225 226 230
f 191 227 233
f 139 233 235
f 238 188 262
f 238 232 229
f 232 238 227
f 118 236 239
f 188 165 354
f 331 165 121
f 274 236 234
f 239 236 253
f 236 274 273
f 253 236 240
f 244 245 255
f 241 255 245
f 238 262 237
f 246 262 322
f 331 220 239
f 235 234 236
f 251 250 253
f 253 295 239
f 236 273 240
f 250 243 254
f 243 242 254
f 240 252 253
f 295 253 250
f 249 242 252
f 251 243 250
f 249 252 240
f 251 253 242
f 252 242 253
f 242 249 254
f 251 242 243
f 249 250 254
f 256 241 245
f 246 322 248
f 262 244 237
f 244 262 256
f 241 248 255
f 246 256 262
f 237 244 255
f 256 246 248
f 241 256 248
f 248 322 255
f 245 244 256
f 258 259 260
f 322 237 255
f 238 237 227
f 295 250 249
f 295 249 240
f 261 259 263
f 276 273 267
f 268 274 269
f 270 271 272
f 271 274 264
f 240 351 295
f 263 258 278
f 188 322 262
f 261 165 257
f 322 340 237
f 259 261 257
f 261 263 354
f 354 165 261
f 259 258 263
f 259 257 260
f 278 257 279
f 257 165 279
f 263 278 279
f 260 257 278
f 279 354 263
f 258 260 278
f 233 227 318
f 235 233 341
f 280 265 281
f 282 267 283
f 265 266 281
f 284 273 271
f 273 274 271
f 275 265 280
f 274 285 275
f 274 234 285
f 285 234 266
f 285 266 265
f 275 285 265
f 281 266 301
f 280 281 275
f 266 234 301
f 294 275 301
f 267 284 283
f 275 281 301
f 307 273 276
f 267 273 284
f 286 268 287
f 276 282 297
f 286 274 268
f 307 240 273
f 307 276 297
f 321 290 288
f 270 272 297
f 282 276 267
f 272 289 297
f 271 264 272
f 270 284 271
f 283 284 270
f 289 286 287
f 283 270 297
f 287 268 277
f 272 264 289
f 264 274 286
f 282 283 297
f 269 274 294
f 289 264 286
f 240 307 290
f 277 269 294
f 277 268 269
f 297 277 294
f 289 287 297
f 287 277 297
f 291 292 247
f 291 293 292
f 240 290 351
f 291 247 321
f 351 290 321
f 274 275 294
f 297 294 296
f 322 188 354
f 326 340 322
f 227 324 318
f 298 299 300
f 234 327 301
f 294 301 296
f 290 292 293
f 290 307 302
f 298 303 321
f 247 302 304
f 298 321 299
f 290 305 306
f 239 295 351
f 297 321 304
f 290 302 292
f 292 302 247
f 291 321 303
f 247 304 321
f 290 306 308
f 290 293 309
f 290 310 288
f 290 309 300
f 290 300 305
f 290 308 310
f 312 321 311
f 297 304 307
f 303 309 293
f 307 304 302
f 313 311 321
f 303 298 309
f 298 300 309
f 312 311 306
f 291 303 293
f 312 306 305
f 312 299 321
f 299 312 305
f 299 305 300
f 314 310 313
f 308 313 310
f 311 313 308
f 311 308 306
f 314 313 321
f 321 288 314
f 288 310 314
f 279 367 354
f 315 316 317
f 330 233 318
f 318 320 319
f 321 297 296
f 350 321 296
f 165 367 279
f 323 315 317
f 227 237 340
f 227 340 324
f 319 325 316
f 330 319 316
f 315 325 319
f 319 320 315
f 315 320 317
f 330 318 319
f 323 324 330
f 325 315 317
f 320 318 324
f 316 325 317
f 165 331 459
f 323 320 324
f 317 320 323
f 316 323 330
f 316 315 323
f 233 330 341
f 296 301 327
f 330 324 341
f 350 296 332
f 339 328 340
f 335 336 334
f 328 335 334
f 329 334 337
f 335 333 338
f 337 335 338
f 336 337 334
f 329 338 352
f 334 329 328
f 329 337 338
f 340 326 333
f 339 335 336
f 339 333 335
f 337 336 335
f 340 333 339
f 339 335 328
f 339 336 335
f 340 328 329
f 340 329 352
f 327 234 235
f 332 296 327
f 338 333 352
f 341 324 340
f 235 341 376
f 332 321 350
f 352 333 326
f 326 322 375
f 345 346 343
f 342 347 349
f 347 342 348
f 347 343 349
f 321 342 351
f 345 348 344
f 345 343 348
f 349 351 342
f 348 342 344
f 343 347 348
f 346 345 344
f 349 343 346
f 332 351 349
f 321 344 342
f 321 332 344
f 344 349 346
f 322 354 375
f 331 239 380
f 332 349 344
f 165 459 367
f 352 377 340
f 375 354 367
f 235 376 379
f 459 331 380
f 373 327 235
f 327 364 332
f 352 326 377
f 341 340 353
f 341 353 376
f 380 239 351
f 355 358 359
f 358 355 364
f 373 362 327
f 359 363 356
f 358 363 359
f 361 356 360
f 361 355 357
f 361 364 355
f 357 362 360
f 363 327 362
f 364 327 358
f 327 363 358
f 356 355 359
f 364 361 362
f 357 363 362
f 361 360 362
f 356 361 357
f 356 357 360
f 356 363 357
f 340 365 353
f 364 362 373
f 326 375 377
f 364 373 332
f 340 377 365
f 353 370 368
f 370 369 368
f 351 332 374
f 371 366 372
f 353 366 376
f 353 372 366
f 368 369 372
f 370 365 371
f 376 366 365
f 370 371 369
f 370 353 365
f 371 372 369
f 371 365 366
f 368 372 353
f 373 235 379
f 380 351 374
f 374 332 373
f 377 375 367
f 466 367 459
f 373 378 374
f 376 365 377
f 373 379 381
f 378 373 381
f 374 378 401
f 381 385 386
f 367 466 404
f 389 390 391
f 386 385 392
f 385 394 392
f 393 386 392
f 383 395 401
f 395 393 396
f 395 394 408
f 395 383 393
f 408 384 381
f 385 381 384
f 394 385 384
f 394 384 408
f 396 393 392
f 394 395 396
f 378 381 386
f 393 378 386
f 394 396 392
f 383 401 378
f 393 383 378
f 401 395 408
f 377 367 405
f 397 398 399
f 376 377 382
f 382 377 387
f 388 387 399
f 387 388 382
f 399 387 397
f 387 398 397
f 382 388 398
f 382 405 376
f 401 408 471
f 387 377 405
f 398 405 382
f 398 387 405
f 381 379 408
f 420 427 409
f 410 411 409
f 374 401 438
f 427 374 438
f 413 412 414
f 405 367 404
f 415 404 413
f 416 414 419
f 417 404 415
f 414 418 419
f 379 376 502
f 406 418 412
f 418 403 419
f 410 409 422
f 423 424 407
f 424 411 407
f 413 416 415
f 401 471 438
f 427 420 374
f 425 391 426
f 422 424 423
f 430 374 420
f 404 417 419
f 403 406 404
f 466 403 404
f 417 416 419
f 416 417 415
f 414 412 418
f 404 406 413
f 404 419 405
f 413 414 416
f 413 406 412
f 406 403 418
f 419 403 466
f 376 405 479
f 459 380 499
f 429 423 407
f 408 379 471
f 374 455 380
f 420 409 411
f 427 411 424
f 422 409 427
f 410 422 429
f 410 429 407
f 411 427 438
f 411 410 407
f 422 423 429
f 424 422 427
f 402 420 400
f 420 421 400
f 411 454 420
f 479 502 376
f 421 420 400
f 420 454 400
f 454 442 458
f 443 430 444
f 445 402 446
f 471 431 428
f 374 430 455
f 446 444 445
f 449 450 451
f 443 444 446
f 443 400 455
f 452 456 453
f 449 454 450
f 390 438 391
f 425 426 441
f 400 454 455
f 433 436 452
f 436 456 452
f 436 433 456
f 454 411 438
f 438 471 428
f 432 445 444
f 445 420 402
f 432 420 445
f 432 444 430
f 430 420 432
f 441 447 448
f 446 402 443
f 402 400 443
f 456 428 453
f 442 454 449
f 434 428 456
f 391 438 426
f 441 426 447
f 451 450 390
f 436 452 453
f 454 438 450
f 434 457 448
f 452 436 435
f 450 438 390
f 426 438 447
f 455 430 443
f 451 390 389
f 389 391 425
f 447 438 448
f 448 438 434
f 428 431 453
f 433 452 435
f 438 428 434
f 434 435 457
f 435 436 457
f 433 434 456
f 434 433 435
f 499 380 437
f 440 441 448
f 440 425 441
f 436 453 439
f 439 431 440
f 457 436 439
f 448 457 440
f 458 442 449
f 451 389 440
f 449 451 458
f 389 425 440
f 458 440 431
f 458 455 454
f 440 458 451
f 453 431 439
f 457 439 440
f 465 405 419
f 465 419 466
f 470 460 461
f 462 470 437
f 465 466 571
f 405 516 479
f 470 499 437
f 461 463 504
f 458 473 455
f 474 455 473
f 475 476 477
f 537 473 431
f 473 458 431
f 460 470 462
f 468 469 463
f 504 463 469
f 462 468 460
f 468 463 460
f 460 463 461
f 469 462 437
f 461 504 470
f 468 462 469
f 499 470 504
f 474 473 482
f 471 379 472
f 483 484 485
f 534 380 455
f 476 482 477
f 473 537 464
f 473 464 475
f 537 455 464
f 455 474 464
f 476 464 474
f 477 478 475
f 478 473 475
f 476 474 482
f 473 478 482
f 475 464 476
f 482 478 477
f 437 380 487
f 469 437 504
f 437 480 504
f 487 480 437
f 488 493 508
f 487 489 480
f 490 480 489
f 493 491 489
f 380 534 487
f 431 471 537
f 489 487 493
f 571 492 405
f 467 495 494
f 496 484 486
f 459 467 520
f 467 486 495
f 496 497 485
f 479 516 514
f 483 486 484
f 485 498 494
f 495 486 483
f 496 485 484
f 500 496 486
f 494 495 483
f 486 467 459
f 498 520 467
f 494 498 467
f 494 483 485
f 501 496 500
f 497 496 501
f 486 459 499
f 512 505 506
f 509 507 491
f 511 507 509
f 490 507 480
f 504 510 508
f 510 507 511
f 480 507 510
f 511 488 508
f 510 504 480
f 493 488 491
f 512 493 487
f 490 491 507
f 489 491 490
f 508 510 511
f 509 491 488
f 504 508 512
f 511 509 488
f 512 508 493
f 505 513 506
f 487 505 512
f 471 472 537
f 569 455 537
f 465 571 405
f 517 515 519
f 499 503 486
f 503 497 501
f 520 466 459
f 500 503 501
f 515 518 521
f 518 522 521
f 515 521 519
f 517 514 518
f 503 520 498
f 498 497 503
f 497 498 485
f 521 522 519
f 517 518 515
f 518 514 522
f 500 486 503
f 479 517 519
f 517 479 514
f 479 519 502
f 503 499 687
f 524 575 525
f 504 551 499
f 528 526 527
f 528 555 526
f 529 527 530
f 531 527 529
f 555 504 512
f 379 502 532
f 533 506 513
f 533 529 506
f 529 512 506
f 513 531 533
f 505 531 513
f 527 531 528
f 529 533 531
f 472 379 532
f 530 512 529
f 528 531 505
f 555 530 526
f 555 512 530
f 530 527 526
f 505 487 528
f 487 534 528
f 455 569 574
f 492 516 405
f 688 540 638
f 577 466 520
f 519 522 514
f 544 545 546
f 687 520 503
f 516 523 514
f 519 514 523
f 547 548 579
f 519 523 502
f 502 523 538
f 523 544 538
f 550 674 538
f 546 545 549
f 550 544 549
f 544 550 538
f 545 550 549
f 552 553 554
f 551 504 555
f 555 528 551
f 556 567 557
f 560 561 562
f 534 455 481
f 574 559 481
f 559 557 558
f 607 534 567
f 481 558 534
f 564 556 559
f 574 564 559
f 607 564 574
f 557 559 556
f 557 567 534
f 558 557 534
f 558 481 559
f 556 564 567
f 481 455 574
f 535 537 472
f 568 570 617
f 537 535 669
f 571 466 577
f 687 577 520
f 525 579 548
f 544 523 674
f 545 544 674
f 502 538 674
f 550 545 674
f 687 499 551
f 502 674 725
f 573 551 528
f 573 582 663
f 663 551 573
f 587 573 588
f 612 589 590
f 591 586 592
f 594 593 595
f 593 594 584
f 608 586 664
f 561 563 598
f 599 586 608
f 664 591 604
f 609 598 610
f 593 584 596
f 573 528 596
f 584 573 596
f 600 602 603
f 601 593 596
f 601 595 593
f 588 594 595
f 588 573 594
f 663 582 602
f 594 573 584
f 587 602 582
f 600 588 595
f 573 587 582
f 603 587 588
f 600 603 588
f 602 587 603
f 601 600 595
f 602 600 663
f 608 663 600
f 608 596 528
f 598 609 604
f 599 608 597
f 597 562 606
f 610 536 609
f 599 592 586
f 599 606 592
f 597 560 562
f 592 606 591
f 528 534 608
f 608 534 610
f 600 601 608
f 596 608 601
f 606 599 597
f 597 608 560
f 608 563 560
f 604 561 598
f 561 604 562
f 585 611 626
f 560 563 561
f 534 536 610
f 598 563 610
f 606 562 604
f 591 606 604
f 616 472 570
f 608 610 563
f 612 613 614
f 609 536 604
f 570 568 616
f 612 590 613
f 581 566 615
f 568 605 616
f 534 607 536
f 618 668 583
f 472 532 617
f 570 472 617
f 589 617 590
f 581 615 619
f 581 472 566
f 622 621 576
f 589 605 568
f 622 590 620
f 615 566 612
f 565 605 589
f 472 565 566
f 565 589 612
f 611 585 535
f 535 472 581
f 623 624 625
f 617 621 620
f 611 535 581
f 611 614 626
f 617 589 568
f 621 617 576
f 615 612 619
f 566 565 612
f 590 617 620
f 614 613 626
f 613 590 622
f 626 622 620
f 626 613 622
f 620 621 622
f 585 626 620
f 576 585 620
f 622 576 620
f 567 564 607
f 612 614 619
f 614 611 619
f 611 581 619
f 605 565 616
f 565 472 616
f 702 572 537
f 628 624 623
f 575 578 525
f 575 541 578
f 541 575 637
f 618 629 665
f 629 630 665
f 629 618 630
f 702 537 669
f 627 634 572
f 572 569 537
f 634 569 572
f 627 572 702
f 627 569 634
f 569 627 574
f 577 687 542
f 571 577 637
f 547 579 542
f 639 682 640
f 575 524 637
f 643 543 682
f 492 655 516
f 636 524 548
f 524 525 548
f 541 577 579
f 541 637 577
f 643 646 543
f 578 541 579
f 637 524 636
f 579 577 542
f 554 553 651
f 553 635 651
f 652 649 653
f 654 652 653
f 542 637 636
f 516 645 670
f 525 578 579
f 547 636 548
f 542 636 547
f 516 655 645
f 624 655 650
f 655 670 650
f 655 628 645
f 656 623 625
f 628 623 656
f 645 628 656
f 625 624 650
f 654 653 657
f 523 670 674
f 645 656 670
f 516 670 523
f 580 635 644
f 640 682 659
f 640 660 639
f 661 682 662
f 637 580 571
f 663 722 551
f 608 664 663
f 586 591 664
f 664 722 663
f 627 536 607
f 627 607 574
f 532 576 617
f 664 604 536
f 618 583 630
f 630 583 665
f 664 536 627
f 585 583 535
f 532 633 585
f 585 633 665
f 583 585 665
f 668 618 666
f 576 532 585
f 583 668 535
f 669 535 668
f 682 671 643
f 672 685 673
f 671 672 673
f 648 552 554
f 675 649 685
f 646 685 543
f 660 649 676
f 639 660 676
f 677 672 661
f 672 677 685
f 648 647 678
f 679 635 680
f 647 679 680
f 682 661 671
f 659 539 640
f 681 649 539
f 659 681 539
f 571 580 492
f 657 681 659
f 678 652 654
f 687 683 688
f 680 635 649
f 540 543 638
f 648 554 684
f 639 676 658
f 687 638 542
f 637 542 685
f 542 638 685
f 686 641 682
f 655 624 628
f 670 656 625
f 670 625 650
f 674 670 725
f 659 682 657
f 539 660 640
f 649 660 539
f 641 686 689
f 675 685 677
f 662 675 677
f 554 651 684
f 682 658 662
f 580 644 648
f 685 649 580
f 682 641 683
f 543 685 638
f 696 632 695
f 649 635 580
f 633 532 695
f 629 665 631
f 665 633 631
f 631 695 632
f 690 691 632
f 633 695 631
f 632 668 666
f 631 632 666
f 696 702 669
f 669 692 696
f 667 668 691
f 629 631 666
f 665 629 666
f 618 665 666
f 668 632 691
f 668 667 692
f 669 668 692
f 692 667 693
f 693 691 690
f 691 693 667
f 692 693 690
f 696 690 632
f 692 690 696
f 651 679 684
f 635 679 651
f 553 644 635
f 553 552 644
f 694 540 688
f 676 675 658
f 675 676 649
f 678 654 648
f 686 543 540
f 673 646 643
f 685 646 673
f 647 680 678
f 682 639 658
f 492 580 648
f 648 654 682
f 686 540 694
f 661 672 671
f 680 652 678
f 649 652 680
f 642 688 641
f 644 552 648
f 658 675 662
f 684 679 647
f 653 681 657
f 649 681 653
f 684 647 648
f 637 685 580
f 492 648 682
f 682 654 657
f 662 677 661
f 671 673 643
f 682 543 686
f 638 687 688
f 655 492 670
f 682 683 687
f 694 689 686
f 694 688 642
f 642 641 689
f 689 694 642
f 688 683 641
f 502 725 532
f 627 702 695
f 702 696 695
f 627 695 664
f 492 682 725
f 670 492 725
f 687 722 699
f 722 687 551
f 721 700 701
f 695 722 664
f 725 682 697
f 682 687 697
f 687 699 697
f 699 707 697
f 720 717 703
f 704 721 705
f 704 709 698
f 708 710 716
f 711 707 712
f 707 709 713
f 707 699 708
f 707 711 714
f 703 710 708
f 709 705 713
f 715 714 711
f 721 718 719
f 716 710 717
f 707 716 726
f 698 707 724
f 717 710 703
f 720 703 708
f 720 722 726
f 716 707 708
f 709 707 698
f 713 712 707
f 716 717 726
f 726 717 720
f 720 699 722
f 720 708 699
f 697 707 714
f 709 704 705
f 728 729 719
f 730 731 732
f 731 733 732
f 721 730 732
f 700 721 722
f 722 723 700
f 695 734 722
f 701 700 706
f 734 723 722
f 697 714 721
f 705 721 735
f 715 735 721
f 726 724 707
f 704 698 736
f 704 736 721
f 715 711 712
f 735 715 712
f 713 705 735
f 735 712 713
f 715 721 714
f 721 724 726
f 721 736 724
f 736 698 724
f 697 721 725
f 721 732 738
f 701 739 727
f 726 722 721
f 740 734 737
f 721 738 737
f 721 737 734
f 721 727 718
f 739 723 741
f 700 723 706
f 739 706 723
f 701 706 739
f 728 741 723
f 737 738 740
f 718 728 719
f 730 729 731
f 532 725 695
f 738 732 733
f 738 733 740
f 740 733 734
f 730 719 729
f 731 734 733
f 731 729 734
f 739 741 727
f 728 723 734
f 728 734 729
f 721 719 730
f 718 727 741
f 718 741 728
f 721 701 727
f 721 734 725
f 734 695 725
f 355 356 357
f 388 399 398
f 544 546 549

