# https://github.com/mikedh/trimesh
v -0.98310751 -0.50914454 -0.98346388
v -0.98374307 -0.28266215 -0.27445644
v -0.98248106 -0.51000077 -0.55371159
v -0.98390007 -0.40418249 0.71083188
v -0.98360717 -0.28253290 0.18761222
v -0.82421887 -0.28227064 -0.10591496
v -0.79798567 -0.51072806 -0.47862664
v -0.98403913 -0.40206879 0.51230860
v -0.82405084 -0.28206787 -0.39718929
v -0.54469407 0.04650492 0.22937970
v -0.98348320 -0.28279683 -0.70805305
v -0.57414216 0.03869391 0.14121246
v -0.55463004 0.08985111 -0.15233999
v -0.55467188 0.08996815 -0.15206689
v -0.82401460 -0.28197682 -0.01740332
v -0.57425338 0.03910160 0.14042662
v -0.58868104 0.01461931 -0.11537774
v -0.57420003 0.03907111 0.14061999
v -0.57421005 0.04279111 0.13671000
v -0.48438978 0.09437971 0.31484467
v -0.55078006 0.11709111 -0.13671000
v -0.55193007 0.11719110 -0.13281000
v -0.55078006 0.11719110 -0.13660000
v -0.54823613 0.12119711 -0.14082597
v -0.55078006 0.11333111 -0.14061999
v -0.55074006 0.11719110 -0.13671000
v -0.53918004 0.09376110 0.19921000
v -0.53913003 0.09766110 0.19531000
v -0.48459306 -0.28229737 0.26388460
v -0.55070007 0.12110111 -0.13281000
v -0.55071527 0.12371028 -0.13004135
v -0.98350149 -0.51045984 0.01718631
v -0.98370588 -0.51049352 0.32830229
v -0.98400027 -0.41788828 -0.60521048
v -0.82277608 -0.28226951 0.60149938
v -0.98376435 -0.51036513 0.98308885
v -0.98309469 -0.50959086 -0.28358549
v -0.98370808 -0.28264239 0.82753885
v -0.98246902 -0.28227249 0.98357987
v -0.98389220 -0.35045508 0.78935814
v -0.87444645 -0.28237888 -0.36919594
v -0.98342085 -0.28350672 -0.98347974
v -0.98332900 -0.28259289 0.08344626
v -0.98396087 -0.44783592 -0.78596389
v -0.82379949 -0.28207707 -0.44012624
v -0.81980205 -0.25580737 0.59624988
v -0.82399631 -0.28166944 0.11879406
v -0.82178861 -0.25601211 0.07975968
v -0.86415440 -0.51072890 0.19406386
v -0.82184142 -0.28244603 -0.59936196
v -0.57419431 0.04472247 0.13475758
v -0.82159430 -0.25655410 -0.04005088
v -0.56405729 0.13435830 0.00572916
v -0.82396507 -0.28200391 0.04345297
v -0.54302007 0.07032110 0.21093000
v -0.54700613 0.04687173 0.22222282
v -0.54438484 0.01471964 0.25328961
v -0.56925273 0.01462940 0.17781565
v -0.53499055 -0.25681183 -0.75840181
v -0.54294699 0.07426692 0.20703338
v -0.54296005 0.07422111 0.20705000
v -0.82127005 -0.25607401 -0.42696807
v -0.98351759 -0.28271821 -0.98078287
v -0.58244491 0.01737517 0.13437676
v -0.52956283 -0.28220615 -0.74595726
v -0.82133842 -0.25570568 -0.59859347
v -0.54292005 0.07813111 0.20311999
v -0.54298985 0.07418307 0.20702817
v -0.85858929 -0.51073819 -0.98347825
v -0.73502529 -0.51072890 -0.57587266
v -0.53655100 -0.50730997 -0.98376948
v -0.77979499 -0.28289163 -0.98334605
v -0.55586004 0.08594110 -0.15233999
v -0.56121063 0.07611607 -0.14492950
v -0.53584671 0.08262742 0.22169065
v -0.65782374 -0.51056826 0.98312998
v -0.49848631 0.01794559 0.33299121
v -0.72728473 -0.25500679 -0.10826751
v -0.98357552 -0.51054323 0.52413964
v -0.54229188 0.05967525 0.22420806
v -0.68287212 -0.51072890 0.30956897
v -0.58816606 0.01606956 0.11678049
v -0.60718709 -0.50946623 -0.98280913
v -0.38456166 -0.51072890 -0.51611280
v -0.54296148 0.07035837 0.21106572
v -0.54306006 0.06641110 0.21483999
v -0.62180853 -0.51072890 -0.15138029
v -0.61926657 -0.51073939 -0.92311341
v -0.57416004 0.04297110 0.13671000
v -0.55117154 0.09706167 -0.15623012
v -0.53906006 0.10157110 0.19148999
v -0.53905779 0.09774752 0.19546774
v -0.53790003 0.10157110 0.19531000
v -0.56789720 0.05967572 0.14001507
v -0.55322689 0.13537434 0.10904445
v -0.55468005 0.08592110 -0.15625000
v -0.55468011 0.08591432 -0.15627310
v -0.55675966 0.01488613 -0.22324757
v -0.59990466 0.01472675 -0.00230414
v -0.49586964 0.01530227 -0.33789992
v -0.55128992 0.14070210 -0.10451564
v -0.53906739 0.10171499 0.19130024
v -0.55600351 0.01469731 0.22209281
v -0.54296517 0.07878187 0.20228390
v -0.55468005 0.08594110 -0.15623000
v -0.55079716 0.11319849 -0.14073133
v -0.56442523 0.09671121 -0.11304024
v -0.52327418 0.12802278 0.21781704
v -0.55078006 0.12084110 -0.13281000
v -0.50810528 0.23899879 0.00126174
v -0.17846243 -0.51073056 -0.89955312
v -0.58850414 -0.51072890 0.08283449
v -0.53821492 -0.51050061 0.98339057
v -0.55931967 -0.51072890 0.53227645
v -0.35546005 0.02718111 0.47656000
v -0.40044934 0.13318057 -0.39813477
v -0.35546446 0.02729784 0.47650784
v -0.17724879 0.01358372 0.08687962
v -0.56629950 -0.28330001 -0.98357248
v -0.53880394 0.10624995 0.18749970
v -0.52181643 0.13195240 -0.21684006
v -0.42859849 0.33528626 0.01786287
v -0.46701598 0.24294867 0.19325249
v -0.45753878 0.01474809 0.38331953
v -0.42581880 0.32761419 0.09011510
v -0.46660519 0.13337813 -0.31742457
v -0.40748635 -0.28232393 -0.18616167
v -0.29348132 -0.51072890 0.40327865
v -0.60208577 -0.28224659 0.82361341
v -0.42589444 0.01527657 0.42204604
v -0.42236182 0.23753154 -0.28433737
v -0.42448753 0.23525396 0.28399926
v -0.34754178 0.02362271 0.48444787
v -0.49420798 0.24472004 -0.09877969
v -0.50053203 -0.51072246 -0.98041004
v -0.46950302 0.24018748 -0.19238925
v -0.42243725 0.23863691 0.28216881
v -0.35653776 0.24200723 0.35895640
v -0.59755576 -0.25534680 0.82080340
v -0.51408654 0.14082646 -0.22261752
v -0.39924061 0.13637362 0.39735144
v -0.34598795 0.01467738 0.48755366
v -0.46372825 0.14254695 0.31391633
v -0.42536315 0.32948095 -0.08686706
v -0.42968005 0.08985347 0.38274765
v -0.49810001 0.23914550 0.09987138
v -0.44042224 -0.25698143 0.21648926
v -0.59950686 -0.28220412 -0.82281256
v -0.34765005 0.02359110 0.48436999
v -0.40456992 -0.51072890 0.21173030
v -0.35545897 0.01954165 0.47954127
v -0.34772006 0.02344110 0.48436999
v -0.23273426 0.01483191 -0.55139452
v -0.35644403 0.23925696 -0.36210784
v -0.31277952 0.13553831 -0.46838683
v -0.42003098 0.01558124 -0.42798489
v -0.33037025 0.14142784 0.45207515
v -0.31434438 0.11843415 0.47589168
v -0.46991652 -0.25515887 0.16564478
v -0.29815418 -0.50956517 -0.98366117
v -0.32904968 -0.25531828 0.01748633
v -0.34732032 0.01957078 0.48622450
v -0.40288013 0.33045125 0.16024026
v -0.14082401 0.03902513 0.57415152
v -0.41950837 -0.51057243 -0.98310894
v -0.39311236 -0.25521988 -0.17028676
v -0.28030944 0.23914811 -0.42391601
v -0.09241236 -0.28231421 -0.82404613
v -0.11083365 -0.51072890 -0.72915685
v -0.31147799 0.32998130 0.30232596
v -0.32735619 -0.27979231 -0.10949723
v -0.33765978 0.40845719 -0.04644326
v -0.39350119 0.34222937 -0.14901409
v -0.32795134 -0.28195783 0.10715287
v -0.33204114 -0.25516033 -0.09560801
v -0.46042758 -0.51072890 0.78369647
v -0.35893732 0.33274171 -0.23885977
v -0.33060047 -0.25535122 0.10786455
v -0.21785080 0.13029350 0.52215910
v -0.19531006 0.02735111 -0.56130999
v -0.19531006 0.01954111 -0.56377000
v -0.21607739 0.13553853 -0.51996452
v -0.09194059 -0.28329471 -0.98327386
v -0.22759503 0.05970632 -0.54138494
v -0.12418478 0.01609038 -0.58619142
v -0.32354298 0.40890154 0.10337381
v -0.42016315 -0.28290871 -0.98391294
v -0.34664190 -0.28225926 -0.56745458
v -0.19141006 0.02735111 -0.56250000
v -0.19531006 0.02344110 -0.56253999
v -0.19140007 0.02735111 -0.56250000
v -0.10660283 -0.25528735 -0.32934323
v -0.10629676 -0.28260919 0.32773021
v -0.59668601 -0.25718316 -0.82123321
v -0.19547348 0.02344105 -0.56249958
v -0.16029820 0.08198717 0.55469388
v -0.13225178 0.01565735 0.58393180
v -0.03495008 0.01455164 -0.59602857
v -0.20325455 0.07788771 0.54295433
v -0.28213617 0.24013819 0.42159873
v -0.26008558 0.41044119 0.21351358
v -0.31069139 0.40642706 -0.14316870
v -0.32693246 0.01618760 -0.50289673
v -0.14970101 -0.51072890 0.81416905
v -0.15234005 0.08594110 0.55585998
v -0.15173170 0.09035708 0.55465138
v -0.19993697 0.22392856 0.47676095
v -0.13281006 0.26954111 0.46217000
v -0.16015007 0.08594110 0.55348998
v -0.16185115 0.09118696 0.55132300
v -0.11197522 -0.25672278 0.33586615
v -0.29922029 0.33458582 -0.30838171
v -0.11187764 0.13128118 -0.55379921
v -0.16070920 0.32719243 -0.40634051
v -0.35961509 0.33317053 0.23708630
v -0.15625006 0.08204110 0.55590999
v -0.15625006 0.08592110 0.55467999
v -0.16015007 0.08217111 0.55467999
v -0.22353140 0.12922153 -0.51981026
v -0.19439837 0.08667330 0.54285198
v -0.10058747 0.23818907 0.49863479
v -0.31576836 0.31107739 -0.31919399
v -0.14062005 0.26954111 0.45980000
v -0.23675092 0.33541477 -0.35671163
v -0.24000739 0.33317399 0.35731953
v -0.58704901 -0.28318319 0.98385376
v -0.18750006 0.03111110 -0.56250000
v -0.19140007 0.02736110 -0.56250000
v -0.17877759 0.28861114 0.43206942
v -0.22774784 0.01492330 0.55516940
v -0.19163300 -0.51072890 -0.03063773
v -0.15234005 0.08985111 0.55462998
v -0.13671006 0.26954111 0.46098000
v -0.13688006 0.26954111 0.46092999
v -0.15625006 0.08594110 0.55467999
v -0.15623006 0.08594110 0.55467999
v -0.13812831 0.22808692 -0.49752927
v -0.16398583 0.41014451 -0.29433972
v -0.13682874 0.26955125 0.46093452
v -0.23686326 0.41098198 -0.23760538
v -0.17576396 0.01430477 0.17508607
v -0.17472684 -0.01338587 -0.17396481
v -0.28009522 -0.51003742 0.98291010
v -0.26931208 -0.28224266 0.49016836
v -0.14938609 0.07608716 0.55985290
v -0.17473994 -0.03534248 -0.17446452
v -0.00479654 0.01475131 0.60010195
v -0.17542745 -0.28206426 -0.17498013
v -0.10424880 -0.28220218 -0.32568917
v 0.04844219 -0.51072890 -0.84247458
v 0.09722344 -0.51072890 -0.15083450
v -0.08477458 0.32922092 -0.42600587
v -0.17492157 0.01375156 -0.17561644
v -0.12095038 0.31641826 0.42575216
v -0.12089006 0.31641111 0.42578000
v -0.17113735 0.33228749 0.39685470
v -0.16971160 0.41194126 0.28822345
v -0.19081412 0.46693319 -0.13003819
v -0.12205284 0.46457356 -0.19927959
v -0.19307446 0.47267666 0.10632864
v -0.22890413 0.46635860 -0.04800555
v -0.37212628 -0.51072890 -0.26936552
v -0.11718006 0.32032111 0.42357001
v -0.11675072 0.30881363 0.43353263
v -0.05963996 0.46376926 -0.22753136
v -0.10268725 0.31105772 0.43586990
v 0.00334388 0.13299994 0.56486982
v -0.17545395 -0.28216872 0.17482255
v -0.07591579 -0.51072890 0.31210855
v -0.00678010 0.01342041 0.17653923
v -0.10072526 0.13219631 0.55614871
v -0.11715518 0.30854353 0.43361887
v -0.08861391 0.30335057 0.44663745
v -0.11718006 0.30860111 0.43357000
v -0.11796379 0.36176494 -0.37857571
v -0.04019235 0.25428158 -0.49481866
v -0.11983407 0.50079745 0.01550360
v 0.11448068 0.01431731 -0.33817118
v 0.00263500 0.23727848 0.50928020
v -0.01533380 -0.51034594 0.98323125
v -0.07522015 -0.51064634 -0.98359507
v -0.00265640 0.13380522 -0.56455493
v -0.02281966 0.40626732 -0.34154263
v -0.05524777 0.40881988 0.33321711
v -0.05585772 0.33478922 0.42611963
v 0.03444300 0.41600767 0.32421094
v -0.05480277 0.49865839 -0.11042411
v -0.04078049 0.50132728 0.10345893
v -0.12267318 -0.28194645 -0.17600206
v -0.08591750 -0.25551912 -0.82068580
v -0.09940033 0.46644959 0.20712945
v 0.08444861 -0.28274456 -0.98385054
v 0.03895457 0.49900940 -0.11916437
v 0.01424551 0.38975593 0.36117455
v 0.10732131 -0.25581110 -0.32932156
v -0.01841856 -0.09480166 0.17546999
v 0.09392170 0.24311176 0.49653175
v 0.00843170 0.32425144 0.43835706
v -0.00768862 0.46463549 -0.23338725
v 0.01835330 0.46719494 0.22854212
v 0.02808099 0.49927741 0.11958267
v 0.00103814 0.51089334 0.00115036
v -0.00107448 0.01826904 -0.59925568
v 0.17553258 -0.28197312 0.17409213
v 0.16795994 0.06251110 0.55852002
v 0.01693277 -0.11346333 0.17546999
v 0.17508501 -0.03681869 -0.17475288
v 0.17499153 -0.13141848 0.17514421
v -0.09675445 -0.51072890 -0.49054465
v 0.13976897 0.01479452 0.58169478
v 0.10535152 -0.51072890 -0.66500425
v 0.08545870 0.41436523 -0.32025784
v 0.04769965 -0.51072890 0.49555463
v 0.01707681 0.24355216 -0.50352579
v 0.17377457 -0.51072890 0.19006099
v 0.06866452 0.37867871 0.36974305
v 0.06249994 0.31251109 0.44172999
v 0.07275278 0.30807865 0.44431156
v 0.06579995 0.31251109 0.44139999
v 0.06711347 0.47089881 -0.20857820
v 0.00914933 0.01474266 -0.59841341
v 0.09426761 0.12873387 -0.55779368
v 0.17520151 -0.16917504 -0.17485759
v 0.06639994 0.31251109 0.44134000
v 0.07405794 -0.51072890 0.12658671
v -0.03284045 -0.28282416 0.98391265
v 0.17436279 -0.21131301 0.17524900
v 0.11484120 0.49056816 0.10038400
v 0.10636022 -0.28208080 -0.32742012
v 0.17540929 -0.28287134 0.98372626
v 0.07030994 0.31251109 0.44095999
v 0.16375667 -0.28211534 0.82416070
v 0.08074681 0.30088848 -0.45010269
v 0.13466057 0.13560830 -0.54525870
v 0.02247765 0.32996130 -0.43470919
v 0.16425560 0.07813811 0.55470538
v 0.17565082 0.01368660 0.17415535
v 0.22228380 0.07078759 0.53953725
v 0.29524484 -0.25617942 -0.82165718
v 0.08022430 -0.51034480 -0.98356360
v 0.16755341 0.06261463 0.55860937
v 0.12889984 0.06317563 0.57015938
v 0.14115873 0.11002542 -0.55164546
v 0.11380930 0.07007101 0.57254279
v 0.09255110 0.13701364 0.55414641
v 0.10885616 0.01549956 0.58915579
v 0.16026634 0.08205444 0.55468261
v 0.19482191 0.13300988 0.52899647
v 0.06686340 -0.51072890 -0.01972630
v 0.08179048 0.33462608 0.42148817
v 0.17218146 0.07050009 0.55471390
v 0.10100705 0.23709334 -0.49997446
v 0.12018569 0.49776888 0.03955876
v -0.16667908 -0.02020839 -0.17552732
v 0.09345883 -0.51072890 0.56826884
v 0.18064691 -0.51072890 -0.38115892
v 0.13594943 0.33106321 -0.40993434
v 0.16277638 0.01301563 -0.17688097
v 0.12526409 0.46404207 0.20028912
v 0.11571258 0.40631276 0.32224765
v 0.11445532 0.49782711 -0.05546521
v 0.08187167 -0.28151074 0.17575358
v 0.17577973 -0.28190127 -0.06285614
v 0.19445521 -0.51072890 0.81447041
v 0.10604553 -0.25486737 0.32926655
v 0.14525431 0.38921282 -0.33255810
v 0.19502552 0.23642926 0.47087166
v 0.10982313 -0.25550485 -0.33265397
v 0.17186993 0.05860110 0.55856001
v 0.17180447 0.05860085 0.55858475
v 0.20451252 0.17359416 -0.50307107
v 0.22913709 0.01500009 0.55366105
v 0.15567252 0.36952883 0.35261291
v 0.19016139 0.46479806 0.13552023
v 0.19602710 0.41973749 0.25029153
v 0.20843694 -0.51030737 -0.98339969
v 0.23235601 0.40706417 -0.24928828
v 0.22964624 0.01697517 -0.55320007
v 0.16795994 0.06227110 0.55858999
v 0.17504936 -0.28225479 -0.17527424
v 0.13091931 0.01548747 -0.58428210
v 0.32784894 -0.28216740 0.10716485
v 0.17577994 0.05860110 0.55738002
v 0.17902321 0.06229944 0.55522639
v 0.23520516 0.13541821 0.51076192
v 0.13798565 0.01333393 0.17559563
v 0.17293860 0.04530036 0.56243807
v 0.19449030 0.12423617 -0.53245848
v 0.10739835 -0.28248650 0.32804254
v 0.23024917 -0.25664154 0.82177091
v 0.26169178 0.34000528 0.33252341
v 0.15791404 0.33161053 0.40190229
v 0.93892562 -0.51070648 -0.49796399
v 0.21282318 -0.51072890 0.60059148
v 0.82101691 -0.25564361 -0.59509462
v 0.16829176 0.01432111 0.22185774
v 0.16868125 0.41881981 -0.27311572
v 0.14807343 0.46149433 -0.19193931
v 0.22747494 -0.28513888 0.98364002
v 0.26677758 -0.25515887 0.60081977
v 0.32064566 0.01523531 -0.50480902
v 0.23008142 0.12996794 -0.51599473
v 0.28688172 -0.28238231 0.98041618
v 0.20545076 -0.28201473 -0.82409686
v 0.34698561 -0.25514036 -0.12414835
v 0.39284319 -0.27105334 -0.17015696
v 0.16720945 0.31364545 -0.41449872
v 0.24568501 -0.25542781 0.46879125
v 0.76142168 -0.28249019 0.97542369
v 0.20327820 0.40064341 0.28363109
v 0.75917423 -0.25515684 -0.12575623
v 0.21625949 0.42611140 -0.21529336
v 0.22964253 0.42678612 -0.19697703
v 0.31227437 -0.27960455 -0.53225023
v 0.32128334 -0.51072890 0.17413196
v 0.31215709 0.40599069 -0.13937294
v 0.21200307 0.46098900 -0.11762238
v 0.32814002 -0.28199881 -0.10695605
v 0.42449090 0.01830210 0.42294329
v 0.19360454 0.23662813 -0.47152689
v 0.34100392 -0.51060164 -0.98353159
v 0.23667781 0.32604778 -0.36720228
v 0.32984796 -0.26831618 -0.10890176
v 0.23440468 0.33104593 0.36315733
v 0.40354198 0.01502635 0.44033268
v 0.81998664 -0.28220564 -0.59834403
v 0.28100881 0.23801994 0.42364189
v 0.20733459 0.37891153 -0.31440052
v 0.90564305 -0.28237888 -0.80397993
v 0.87208033 -0.35367465 -0.98390001
v 0.23039491 0.42967790 -0.18753733
v 0.17508255 0.01342029 -0.17478575
v -0.02250310 -0.25589296 0.82123208
v 0.32973850 -0.28341842 -0.98374361
v 0.32921487 -0.25516638 0.10662904
v 0.31660169 0.13227420 0.46762708
v 0.29485252 -0.51072890 -0.10076129
v 0.44469574 -0.28185591 -0.22472556
v 0.30713618 -0.25549915 -0.52999568
v 0.33677185 0.01499004 -0.49577469
v 0.31266353 -0.28513888 0.98364002
v 0.32508722 0.01546960 0.50376260
v 0.31786507 0.13354905 -0.46631515
v 0.33983541 0.36329123 -0.19531201
v 0.59444714 -0.25565034 -0.82054853
v 0.27946028 0.23956339 -0.42371306
v 0.25579053 0.01432136 -0.25266653
v 0.34280345 0.24415636 0.36866972
v 0.30211326 0.33510193 -0.30426291
v 0.25526309 0.33858690 0.33748379
v 0.84294975 -0.51033580 0.98253733
v 0.24117912 0.40621424 0.24166562
v 0.29119295 0.40914974 0.16981968
v 0.29149592 0.39816019 -0.19621143
v 0.32125872 0.36895737 0.21584807
v 0.23102111 0.46514851 -0.03536832
v 0.48346052 -0.25511941 -0.10738859
v 0.54291993 0.07813111 -0.20311999
v 0.54296994 0.07422111 -0.20703000
v 0.54295993 0.07424111 -0.20703000
v 0.37921569 -0.28237888 -0.23757118
v 0.37592572 -0.25523606 0.15329623
v 0.45182639 -0.51072890 0.02843003
v 0.29810473 -0.51071924 0.85059661
v 0.55658752 -0.25496680 0.33289167
v 0.41613528 0.04411465 0.42029479
v 0.35452622 0.24414743 -0.35874435
v 0.30988932 0.33003116 0.30330127
v 0.55866510 0.05918633 0.17096788
v 0.32700956 0.36661497 -0.21100581
v 0.25855967 0.41577736 -0.19528899
v 0.32664946 0.40925202 0.08953512
v 0.39854982 0.33212939 0.16604419
v 0.17569709 0.01238415 0.02169194
v 0.35035431 0.37940651 0.12920436
v 0.30259073 -0.51072890 -0.58346653
v 0.29173195 -0.50984466 0.98310655
v 0.49655777 0.01581596 -0.33507806
v 0.39871541 0.13374172 0.39947394
v 0.59279269 -0.28231654 0.82366276
v 0.98295021 -0.51035762 -0.30568400
v 0.34361908 0.35891971 -0.19950914
v 0.33775994 0.36329111 -0.19921000
v 0.34789667 0.37901869 -0.13922904
v 0.98384631 -0.36543018 0.98107523
v 0.82436180 -0.28216231 -0.55162621
v 0.84405911 -0.51072890 0.83536857
v 0.64688063 -0.51072890 0.19062795
v 0.52175438 0.12828925 0.22035550
v 0.34312993 0.35938111 -0.19921000
v 0.33983994 0.36329111 -0.19532999
v 0.36351493 0.33052117 0.23444815
v 0.22416721 0.46523750 0.06048401
v 0.57304204 -0.25726187 -0.79518664
v 0.41918790 -0.25556996 -0.64203101
v 0.45936307 -0.51072890 -0.30781990
v 0.25384241 -0.51072890 0.35979328
v 0.62259763 -0.51072890 -0.24240905
v 0.59040737 0.01582357 0.09991248
v 0.41963843 0.24173941 0.28311679
v 0.42400420 0.01526565 -0.42403248
v 0.55340952 0.01541374 -0.23032606
v 0.72049701 -0.51025391 -0.98394209
v 0.36293381 -0.25515252 0.58610946
v 0.47152355 0.13039216 0.31180257
v 0.49740493 0.03294232 0.32795385
v 0.40316132 0.32598692 -0.16804016
v 0.98274505 -0.28390533 -0.88785177
v 0.77250290 -0.51039571 0.98365015
v 0.38630068 0.33396900 -0.18580429
v 0.42196766 0.33162045 -0.09381834
v 0.36210120 0.23876218 0.35658944
v 0.38321483 -0.28219599 0.16225158
v 0.46627122 -0.51047760 0.98297364
v 0.45327404 0.01503274 0.38899747
v 0.39182729 -0.28238311 0.98041743
v 0.56378269 -0.51072890 0.47489333
v 0.59514022 -0.28218153 -0.82350832
v 0.48611322 -0.28214988 0.26496160
v 0.49328357 -0.26970503 0.27218440
v 0.20269653 0.01420917 0.20432179
v 0.42275596 0.23676300 -0.28486428
v 0.35975784 0.33106679 -0.24065465
v 0.67882776 -0.28513888 0.98364002
v 0.42725423 -0.28260639 0.98393941
v 0.47320125 0.23285136 0.19584987
v 0.98342180 -0.28283942 -0.30941746
v 0.33763224 0.40477043 -0.06551376
v 0.42461324 0.33173344 0.07965994
v 0.98040819 -0.51072228 -0.70072752
v 0.42167497 -0.51072890 0.38940760
v 0.52284813 -0.51072890 0.71845269
v 0.37758559 -0.28233778 -0.47493440
v 0.43791309 -0.28237888 0.42916438
v 0.58805430 0.01494919 -0.11660476
v 0.49203646 0.24774753 0.09681135
v 0.46729004 -0.28237888 -0.60941041
v 0.47506747 -0.51072890 -0.45828149
v 0.51925570 -0.25548294 0.74206942
v 0.47353280 -0.25522313 0.25031385
v 0.59526205 -0.25603908 0.82149696
v 0.39834601 0.13029182 -0.40177786
v 0.73343182 -0.26054382 -0.51092136
v 0.55564719 0.01541883 0.22454359
v 0.17718746 0.01371342 -0.13643324
v 0.34261581 0.40554878 -0.00229364
v 0.75163919 -0.51072890 -0.02097290
v 0.98334318 -0.28281218 -0.65479654
v 0.49817950 0.23861049 -0.09952979
v 0.98363996 -0.28513888 -0.55944407
v 0.55435115 0.13916804 0.07902505
v 0.98389983 -0.50786668 -0.11211803
v 0.56623793 0.01435672 0.17586644
v 0.46822914 0.13282032 -0.31548133
v 0.55077714 0.11308777 0.14090532
v 0.55236840 -0.28261304 -0.98345679
v 0.55677080 -0.51054609 -0.98380488
v 0.55466199 0.08979964 0.15227897
v 0.49850795 0.01507180 0.33185807
v 0.55467993 0.08594110 0.15623000
v 0.55467999 0.08591183 0.15627494
v 0.55467993 0.08592110 0.15625000
v 0.59985024 0.01514706 0.00104012
v 0.55462992 0.08985111 0.15233999
v 0.83651239 -0.51072890 -0.00804279
v 0.47141075 0.23079100 -0.20271248
v 0.45815688 0.16112880 0.30359015
v 0.43326136 0.33035719 -0.02503825
v 0.98365551 -0.28466868 -0.49608999
v 0.46972492 0.28686219 0.00804172
v 0.98299557 -0.28292069 0.98324627
v 0.54130447 -0.28206500 0.32023805
v 0.62884551 -0.28225377 -0.40835285
v 0.48551610 -0.28006461 -0.70591080
v 0.55917960 0.01497078 -0.21370390
v 0.55345619 0.13411444 0.10956583
v 0.65622401 -0.28253502 0.43622249
v 0.55077994 0.10547111 -0.14879000
v 0.57132417 -0.25535315 0.27971327
v 0.59733158 -0.28237984 -0.81666559
v 0.51773095 0.13493328 -0.22260100
v 0.98362505 -0.50809419 -0.38242608
v 0.82147002 -0.25603729 -0.28426868
v 0.53445184 0.13631023 0.16856585
v 0.67699176 -0.28237247 -0.54315889
v 0.50849211 0.23848329 -0.00033752
v 0.55508041 0.10119066 0.13905007
v 0.55079478 0.10948482 -0.14457740
v 0.55083996 0.10938111 -0.14453000
v 0.36453518 0.01432111 0.02461864
v 0.55585992 0.08594110 0.15233999
v 0.82085341 -0.25624043 0.59640914
v 0.45332935 -0.25552437 -0.23069431
v 0.49639264 0.24200058 0.09922264
v 0.59564435 0.01468878 0.03159868
v 0.60449809 -0.25548235 -0.38102639
v 0.54671967 0.11466078 0.15266933
v 0.59728020 -0.28217280 0.81722075
v 0.57420993 0.03907111 0.14059000
v 0.57422411 0.03904092 0.14057720
v 0.71980989 -0.25555757 -0.49625537
v 0.63499385 -0.28173408 -0.41518599
v 0.60496730 -0.28251600 0.98312140
v 0.54295993 0.07800111 -0.20311999
v 0.67732406 -0.51072890 0.36616176
v 0.54295993 0.07422111 -0.20705000
v 0.53398842 0.08831033 -0.22158737
v 0.52665967 0.12902057 -0.20603755
v 0.54177994 0.07422111 -0.21093000
v 0.54295778 0.07000077 -0.21145017
v 0.55097991 0.09766110 0.15625000
v 0.58549839 0.01478477 0.12525719
v 0.55822885 0.14431161 -0.02284497
v 0.56557000 0.13060783 -0.00292752
v 0.55814868 0.11821846 0.11098117
v 0.48518291 0.22194722 -0.17779945
v 0.55277848 0.13526480 -0.11085636
v 0.69508725 -0.51072890 -0.77339035
v 0.88554043 -0.51072890 0.03501359
v 0.87652236 -0.51072890 0.74261004
v 0.98345160 -0.28452235 0.32962576
v 0.50185728 0.01432111 -0.07900570
v 0.98281413 -0.51055139 0.02463623
v 0.82048756 -0.25654742 0.23559336
v 0.82150316 -0.25615293 0.27874577
v 0.56280714 0.02005984 0.19902855
v 0.54711550 0.06615248 -0.20177872
v 0.55077994 0.11329110 -0.14067000
v 0.66434807 -0.51072890 -0.11393473
v 0.71845609 -0.28237888 -0.53983581
v 0.55077493 0.11331448 -0.14066380
v 0.54299754 0.07837557 -0.20259339
v 0.54301995 0.07032110 -0.21093000
v 0.54026097 0.10159699 -0.18751824
v 0.55079263 0.11328702 -0.14061221
v 0.55544478 0.12718070 0.11066877
v 0.55077928 0.11715019 0.13664734
v 0.55148566 0.11362710 0.13800845
v 0.55076975 0.11723243 0.13658528
v 0.55077994 0.11333111 0.14061999
v 0.98040521 -0.51072592 -0.10174391
v 0.56537318 -0.28379148 0.98367077
v 0.79001033 -0.28400594 0.98278463
v 0.84975380 -0.51072890 -0.63973576
v 0.98353040 -0.51027161 -0.47606018
v 0.78577513 -0.51072878 -0.36365712
v 0.70202947 -0.28183186 -0.48089826
v 0.82119870 -0.25611520 -0.38702866
v 0.82149708 -0.25574824 0.04197277
v 0.69549608 -0.51072890 -0.56580567
v 0.74222589 -0.28192580 0.52117491
v 0.57301992 0.03907111 0.14453000
v 0.82300597 -0.28230232 0.59759963
v 0.57415992 0.04297110 0.13671000
v 0.57419991 0.03907111 0.14061999
v 0.57407492 0.04467475 0.13519619
v 0.57420993 0.04279111 0.13671000
v 0.49684778 0.01432111 0.00715079
v 0.57598054 0.05879637 0.11413033
v 0.52479416 -0.51072890 0.61314607
v 0.61196417 -0.51051801 0.98363554
v 0.71173459 -0.51019490 0.98281705
v 0.71275520 -0.51050866 -0.98343706
v 0.82109857 -0.25532240 -0.24741009
v 0.68653190 -0.25621438 0.46346748
v 0.71379590 -0.28237888 -0.76034659
v 0.73551726 -0.28238755 0.98042256
v 0.79029757 -0.28374958 -0.98332304
v 0.78581071 -0.28234321 0.68251663
v 0.76432371 -0.28167847 -0.54312652
v 0.80246562 -0.51072896 0.61302459
v 0.75590855 -0.25501868 -0.43289864
v 0.98309571 -0.51060289 -0.20366870
v 0.98052716 -0.51073837 0.32746902
v 0.82119679 -0.25611690 0.43484673
v 0.80956608 -0.51072890 -0.21988219
v 0.98440111 -0.29120022 0.45409918
v 0.98231804 -0.50964558 0.98381966
v 0.98303318 -0.51034951 0.58182687
v 0.79706180 -0.51072890 -0.84652847
v 0.81639993 -0.25515887 0.34033000
v 0.78595042 -0.51072890 0.41735315
v 0.98303258 -0.28337437 -0.98321939
v 0.98344201 -0.51060301 0.67603755
v 0.98328227 -0.51055795 0.87880141
v 0.84024310 -0.28260189 -0.98277020
v 0.86233681 -0.28371435 0.98330528
v 0.86391866 -0.51072878 0.63615024
v 0.89774609 -0.51072878 -0.34965056
v 0.98041767 -0.28238332 -0.22776970
v 0.82388043 -0.28210387 -0.36615786
v 0.98059469 -0.28267643 -0.35347062
v 0.84482902 -0.43206689 0.98390001
v 0.98363996 -0.28513888 -0.41149545
v 0.98040396 -0.51072592 0.22252758
v 0.98230410 -0.50968850 0.34011656
v 0.98288882 -0.28271189 0.06322099
v 0.98042005 -0.28238541 -0.60308915
v 0.98327160 -0.51066828 0.50724614
v 0.98372304 -0.50107598 -0.69844139
v 0.86785352 -0.51040423 -0.98366606
v 0.98192096 -0.28257850 -0.43006828
v 0.82346755 -0.28223723 -0.03055047
v 0.98389995 -0.34516874 0.11419230
v 0.98302847 -0.51041305 -0.77022171
v 0.98316467 -0.28259292 -0.33557358
v 0.98332608 -0.51026273 0.77356303
v 0.98382461 -0.50266773 0.11890982
v 0.98346716 -0.28407195 0.51719654
v 0.98218536 -0.50984079 -0.98152328
v 0.82134032 -0.25556481 -0.05451216
v 0.98040348 -0.51072723 0.06362244
v 0.93569982 -0.51072836 0.51866162
v 0.88899189 -0.28237888 0.26365110
v 0.98034382 -0.51069611 -0.41371539
v 0.98299289 -0.51015073 -0.65320474
v 0.98339599 -0.28376436 0.61662537
v 0.83985281 -0.51072884 0.31671154
v 0.98400432 -0.28223363 0.41854078
v 0.98383421 -0.28324866 0.66772330
v 0.98364788 -0.50978285 0.07285696
v 0.98372173 -0.28299385 0.83301121
v 0.98305285 -0.43539223 0.98380518
v 0.98345745 -0.28284201 0.21417935
v 0.98375034 -0.29217517 0.25498465
v 0.98338628 -0.51025885 0.50776958
v 0.98327905 -0.51008481 -0.91923940
v 0.98329943 -0.36748633 -0.98357093
v 0.93041569 -0.28237888 0.65252990
v 0.89370668 -0.28234458 0.85092652
v 0.98042285 -0.28238770 -0.52829474
v 0.98391986 -0.36878195 -0.73184484
v 0.98376727 -0.50796360 0.23316434
v 0.98375392 -0.28526285 0.46695024
v 0.98389995 -0.42276829 -0.08268028
v 0.98302382 -0.51036096 0.13945073
v 0.98376942 -0.50388640 0.98024899
v 0.98310179 -0.28263399 -0.04183677
v 0.98363328 -0.28440046 -0.16481026
v 0.98045993 -0.34715390 0.98385000
v 0.98367333 -0.28305846 -0.80098093
v 0.98389995 -0.28904888 -0.02709812
v 0.98310113 -0.28354976 0.04236986
v 0.98107052 -0.28225031 0.46846199
v 0.98389065 -0.34304103 0.58382690
v 0.98415703 -0.29977229 -0.33235058
v 0.82374203 -0.28185010 0.26470757
v 0.98417872 -0.28256187 0.77278495
v 0.98377627 -0.28706136 -0.74500555
v 0.98184222 -0.28271756 -0.13444915
f 13 14 90
f 18 19 16
f 21 106 22
f 23 21 22
f 24 25 26
f 104 27 28
f 24 30 31
f 36 4 79
f 38 36 39
f 1 3 34
f 3 37 34
f 37 7 32
f 33 2 32
f 33 32 49
f 33 49 79
f 33 79 8
f 8 79 38
f 1 42 69
f 5 43 33
f 11 50 63
f 2 11 34
f 11 2 50
f 43 5 15
f 8 38 5
f 38 79 4
f 38 4 40
f 1 69 3
f 34 11 63
f 1 34 44
f 37 3 7
f 1 63 42
f 38 40 36
f 1 44 63
f 42 63 72
f 63 44 34
f 2 9 41
f 43 6 2
f 32 2 37
f 43 2 33
f 5 33 8
f 5 38 35
f 34 37 2
f 45 2 41
f 38 39 129
f 72 69 42
f 9 45 41
f 47 5 35
f 2 6 9
f 36 40 4
f 50 2 45
f 6 43 52
f 112 81 79
f 48 5 47
f 15 5 54
f 54 5 48
f 52 43 15
f 104 56 68
f 56 55 68
f 69 88 3
f 45 62 66
f 46 48 35
f 32 87 49
f 36 76 39
f 52 62 6
f 114 36 79
f 62 45 9
f 62 52 78
f 52 48 78
f 9 6 62
f 54 52 15
f 48 52 54
f 50 45 66
f 79 49 112
f 111 70 3
f 70 7 3
f 60 67 68
f 69 72 83
f 63 50 65
f 3 88 111
f 47 35 48
f 87 32 7
f 76 36 114
f 226 39 76
f 129 39 226
f 63 65 148
f 83 72 119
f 72 63 148
f 70 111 7
f 66 62 78
f 38 129 35
f 29 147 35
f 35 147 46
f 49 87 112
f 69 83 88
f 127 50 66
f 119 72 148
f 56 57 10
f 87 7 84
f 48 46 147
f 78 48 161
f 97 98 74
f 91 92 93
f 12 64 58
f 60 75 67
f 89 51 19
f 135 165 88
f 83 119 71
f 83 135 88
f 226 76 113
f 166 66 78
f 114 79 150
f 79 81 150
f 148 65 59
f 102 91 93
f 161 48 159
f 58 64 82
f 97 96 105
f 56 86 55
f 97 90 98
f 96 73 105
f 51 82 19
f 17 74 98
f 68 67 104
f 97 105 13
f 90 97 13
f 91 28 92
f 91 102 28
f 25 21 26
f 21 25 106
f 64 12 16
f 118 82 99
f 82 16 19
f 82 64 16
f 95 82 51
f 12 58 94
f 22 109 23
f 16 12 18
f 21 23 26
f 120 93 108
f 121 106 24
f 106 25 24
f 106 107 22
f 105 14 13
f 102 93 120
f 101 24 31
f 57 77 10
f 24 101 121
f 31 107 101
f 85 55 86
f 30 24 26
f 68 61 60
f 135 83 71
f 94 18 12
f 148 59 194
f 127 66 166
f 84 262 87
f 76 176 113
f 111 88 165
f 18 94 89
f 89 19 18
f 35 129 29
f 76 114 176
f 56 58 103
f 80 86 56
f 28 102 104
f 56 103 57
f 82 118 58
f 60 85 75
f 75 27 104
f 73 96 74
f 56 94 58
f 10 75 80
f 89 94 51
f 68 55 61
f 95 94 56
f 23 30 26
f 23 109 30
f 60 61 85
f 99 82 53
f 117 151 115
f 108 92 27
f 104 67 75
f 75 108 27
f 95 104 120
f 97 74 96
f 106 74 107
f 31 22 107
f 95 53 82
f 112 150 81
f 48 147 159
f 29 129 268
f 85 86 80
f 55 85 61
f 80 56 10
f 75 85 80
f 95 56 104
f 166 78 161
f 10 77 108
f 17 101 107
f 31 30 109
f 101 99 53
f 99 101 17
f 14 74 106
f 74 17 107
f 94 95 51
f 108 93 92
f 14 73 74
f 73 14 105
f 106 121 90
f 120 108 95
f 31 109 22
f 27 92 28
f 90 14 106
f 90 121 98
f 50 127 188
f 108 75 10
f 120 104 102
f 119 187 71
f 187 119 148
f 124 77 57
f 98 121 100
f 165 135 71
f 20 108 77
f 121 101 136
f 65 50 188
f 20 130 145
f 20 77 124
f 268 129 244
f 226 113 243
f 126 121 140
f 126 100 121
f 108 20 143
f 115 149 117
f 176 114 128
f 244 129 139
f 71 187 165
f 108 123 95
f 87 262 112
f 101 53 110
f 103 124 57
f 124 130 20
f 156 100 126
f 115 142 152
f 100 156 153
f 133 162 142
f 130 117 158
f 143 132 108
f 186 122 125
f 59 65 188
f 53 95 146
f 123 146 95
f 98 100 153
f 141 20 145
f 178 161 159
f 20 141 143
f 103 58 124
f 136 101 134
f 130 124 118
f 130 141 145
f 165 187 160
f 194 59 290
f 111 165 160
f 110 134 101
f 130 151 117
f 152 162 133
f 130 157 141
f 140 121 136
f 126 116 156
f 110 53 146
f 134 110 122
f 146 122 110
f 125 146 123
f 146 125 122
f 133 158 117
f 162 152 142
f 178 159 147
f 138 132 143
f 163 123 132
f 262 231 112
f 157 130 158
f 131 126 140
f 127 166 171
f 29 174 147
f 132 123 108
f 130 142 151
f 116 126 131
f 136 144 173
f 140 136 131
f 156 203 153
f 149 133 117
f 115 152 149
f 151 142 115
f 58 118 124
f 138 143 141
f 138 137 132
f 29 268 174
f 144 136 134
f 131 136 177
f 166 175 171
f 127 171 248
f 166 161 175
f 231 150 112
f 148 194 168
f 84 7 111
f 142 158 133
f 152 133 149
f 122 172 144
f 171 175 161
f 132 137 163
f 171 161 174
f 134 122 144
f 161 178 174
f 174 178 147
f 153 17 98
f 125 123 163
f 142 130 118
f 154 116 131
f 172 122 186
f 215 163 137
f 163 186 125
f 144 172 173
f 189 190 195
f 191 190 189
f 114 150 128
f 171 174 248
f 195 153 184
f 249 188 127
f 148 168 187
f 173 177 136
f 156 155 203
f 244 139 211
f 141 200 138
f 156 116 155
f 201 186 215
f 174 268 248
f 59 188 192
f 243 113 204
f 163 215 186
f 141 157 200
f 226 326 129
f 160 187 183
f 131 177 154
f 154 167 116
f 179 158 230
f 142 230 158
f 185 190 191
f 181 190 185
f 215 137 138
f 177 222 154
f 195 190 181
f 154 222 167
f 203 219 153
f 172 202 173
f 59 192 290
f 153 195 181
f 183 187 168
f 177 212 222
f 84 309 262
f 249 127 248
f 158 200 157
f 203 155 219
f 216 217 218
f 116 167 155
f 142 118 241
f 215 138 170
f 118 99 253
f 202 177 173
f 224 222 212
f 167 222 224
f 167 219 155
f 227 228 184
f 191 228 227
f 189 228 191
f 217 216 205
f 153 181 185
f 195 184 180
f 210 232 206
f 233 234 208
f 128 269 176
f 206 245 271
f 185 227 184
f 256 225 200
f 99 17 153
f 240 212 177
f 153 219 184
f 260 186 201
f 211 139 365
f 221 229 207
f 200 225 170
f 200 170 138
f 186 261 172
f 142 270 230
f 201 215 170
f 230 199 179
f 139 129 433
f 199 220 179
f 189 195 180
f 235 217 236
f 228 180 184
f 180 228 189
f 229 223 273
f 223 229 221
f 239 234 233
f 164 245 230
f 236 217 205
f 169 84 111
f 213 184 219
f 235 218 217
f 218 235 209
f 160 183 281
f 185 191 227
f 168 194 290
f 269 128 150
f 249 192 188
f 200 207 229
f 196 210 230
f 179 207 158
f 365 139 433
f 200 158 207
f 225 257 201
f 219 167 182
f 240 177 202
f 253 153 198
f 242 253 354
f 246 242 354
f 182 213 219
f 260 261 186
f 214 167 224
f 206 271 210
f 167 237 182
f 99 153 253
f 209 235 232
f 235 236 232
f 240 238 212
f 238 240 258
f 258 240 202
f 172 261 258
f 202 172 258
f 236 205 206
f 142 241 270
f 225 201 170
f 230 197 164
f 205 216 245
f 218 209 196
f 230 220 199
f 206 205 245
f 210 220 230
f 185 184 213
f 216 218 196
f 239 233 208
f 234 239 223
f 234 223 208
f 223 221 208
f 238 224 212
f 261 260 277
f 209 232 210
f 309 84 169
f 221 273 208
f 270 247 230
f 237 167 214
f 230 245 196
f 211 193 244
f 268 244 193
f 362 268 193
f 231 269 150
f 153 185 198
f 129 332 433
f 224 238 214
f 160 281 111
f 243 280 226
f 273 239 208
f 210 196 209
f 225 256 257
f 182 237 213
f 229 256 200
f 232 236 206
f 245 216 196
f 179 220 271
f 164 197 245
f 272 229 273
f 238 275 214
f 258 259 238
f 257 260 201
f 260 257 291
f 263 285 256
f 118 242 246
f 262 309 231
f 226 280 326
f 179 271 221
f 268 362 241
f 129 326 332
f 197 230 247
f 271 245 197
f 271 220 210
f 239 273 223
f 246 289 248
f 256 272 254
f 274 264 255
f 274 272 264
f 272 274 254
f 256 229 272
f 273 266 272
f 256 254 263
f 214 275 252
f 263 255 264
f 263 254 255
f 254 274 255
f 285 263 264
f 256 284 257
f 266 264 272
f 251 349 231
f 248 289 249
f 250 309 169
f 169 111 281
f 252 276 214
f 267 271 247
f 197 247 271
f 276 237 214
f 198 185 213
f 204 113 176
f 207 179 221
f 296 241 362
f 242 118 253
f 284 256 285
f 238 283 275
f 273 285 266
f 259 265 238
f 277 287 258
f 287 277 302
f 257 284 291
f 277 258 261
f 260 291 277
f 259 258 287
f 176 269 204
f 354 289 246
f 243 204 280
f 192 249 368
f 273 221 285
f 282 237 276
f 264 266 285
f 213 237 282
f 198 213 303
f 265 283 238
f 221 271 279
f 276 252 335
f 285 221 298
f 283 252 275
f 335 252 283
f 287 299 265
f 265 259 287
f 277 291 288
f 293 287 302
f 302 277 288
f 309 356 231
f 250 169 281
f 204 269 313
f 249 289 380
f 193 211 365
f 292 183 168
f 290 192 368
f 253 198 278
f 268 246 248
f 246 241 118
f 321 198 303
f 282 303 213
f 270 310 247
f 221 279 298
f 283 265 312
f 294 284 285
f 284 294 286
f 291 284 300
f 284 286 300
f 301 288 291
f 291 300 301
f 268 241 246
f 356 309 311
f 269 231 349
f 341 305 351
f 193 365 389
f 303 282 322
f 311 309 250
f 287 293 320
f 368 249 295
f 314 282 276
f 271 267 279
f 315 313 269
f 265 299 312
f 320 299 287
f 285 316 294
f 250 281 340
f 281 183 340
f 279 267 345
f 321 303 322
f 204 313 355
f 321 278 198
f 267 247 345
f 282 314 322
f 247 346 345
f 310 346 247
f 345 297 279
f 352 314 276
f 352 276 333
f 335 333 276
f 317 318 319
f 318 317 279
f 350 285 298
f 298 279 317
f 316 285 350
f 283 312 335
f 294 360 286
f 299 320 312
f 319 318 324
f 321 322 381
f 362 193 389
f 249 329 295
f 340 183 292
f 433 332 390
f 322 314 352
f 331 318 350
f 331 319 324
f 404 168 290
f 318 279 297
f 317 331 350
f 319 331 317
f 298 317 350
f 324 318 331
f 294 316 360
f 357 335 312
f 300 286 359
f 359 286 360
f 301 359 328
f 359 301 300
f 342 341 336
f 325 315 269
f 311 476 356
f 251 231 356
f 311 250 340
f 348 297 345
f 204 394 280
f 333 335 357
f 345 346 344
f 313 497 355
f 352 334 322
f 278 358 253
f 396 310 270
f 350 318 297
f 392 316 350
f 312 320 398
f 332 326 330
f 339 404 290
f 329 249 380
f 376 311 340
f 497 313 315
f 168 404 292
f 204 355 394
f 280 394 364
f 312 366 357
f 344 310 342
f 340 292 376
f 297 348 367
f 295 329 368
f 345 344 348
f 334 343 322
f 408 365 433
f 447 278 321
f 352 420 371
f 343 381 322
f 344 342 348
f 344 346 310
f 352 333 420
f 420 333 357
f 297 392 350
f 316 392 373
f 312 398 397
f 373 360 316
f 361 398 320
f 320 293 361
f 353 302 301
f 361 302 353
f 328 359 374
f 347 342 336
f 305 379 369
f 342 347 348
f 301 302 288
f 325 269 349
f 370 383 384
f 383 370 369
f 349 315 325
f 304 327 362
f 383 370 387
f 383 369 370
f 368 339 290
f 280 477 326
f 415 497 315
f 362 389 304
f 351 384 338
f 342 310 341
f 379 341 370
f 369 379 370
f 380 323 363
f 389 365 408
f 338 347 336
f 370 341 387
f 400 433 390
f 305 341 379
f 338 348 347
f 341 310 387
f 336 351 338
f 289 323 380
f 305 370 384
f 370 305 369
f 304 363 323
f 353 301 328
f 362 306 296
f 307 304 323
f 327 474 308
f 362 327 306
f 307 289 354
f 302 361 293
f 307 323 289
f 351 305 384
f 296 306 270
f 327 304 474
f 392 297 367
f 327 270 306
f 341 351 336
f 307 474 304
f 354 253 307
f 241 296 270
f 270 327 308
f 334 352 388
f 253 358 307
f 270 308 386
f 307 432 545
f 474 337 308
f 307 545 474
f 337 386 308
f 383 387 384
f 432 307 358
f 381 343 378
f 343 334 388
f 388 352 371
f 410 360 373
f 392 424 373
f 366 312 397
f 397 428 366
f 375 359 360
f 375 360 410
f 361 417 398
f 361 353 456
f 349 251 315
f 355 497 394
f 364 394 464
f 464 280 364
f 414 368 329
f 384 387 338
f 310 372 387
f 343 388 378
f 372 338 387
f 402 388 371
f 367 348 385
f 357 407 420
f 521 310 396
f 427 392 367
f 420 407 422
f 278 447 358
f 407 357 422
f 422 357 366
f 398 412 397
f 428 397 377
f 386 396 270
f 412 398 417
f 456 417 361
f 359 375 374
f 456 353 493
f 493 353 374
f 376 292 421
f 477 280 464
f 311 421 476
f 330 403 332
f 315 251 437
f 414 329 380
f 401 321 378
f 380 363 418
f 304 389 382
f 421 311 376
f 304 382 363
f 441 403 399
f 330 399 403
f 381 378 321
f 399 330 477
f 421 292 434
f 326 477 330
f 388 402 378
f 442 372 310
f 521 442 310
f 408 433 400
f 402 371 420
f 420 422 446
f 424 410 373
f 410 424 450
f 424 391 450
f 417 471 431
f 412 417 431
f 413 431 471
f 374 353 328
f 397 412 471
f 471 412 413
f 412 431 413
f 453 375 452
f 375 410 452
f 493 374 472
f 453 374 375
f 396 386 337
f 339 368 439
f 531 394 497
f 356 437 251
f 385 348 338
f 292 404 434
f 368 414 439
f 442 338 372
f 338 442 436
f 436 385 338
f 402 420 443
f 385 436 367
f 392 427 424
f 427 391 424
f 422 366 428
f 449 428 377
f 410 450 452
f 377 397 471
f 416 471 417
f 454 471 416
f 374 453 472
f 414 380 533
f 404 339 518
f 458 459 608
f 459 458 460
f 418 363 382
f 533 380 461
f 389 408 504
f 378 402 443
f 337 521 396
f 321 401 440
f 401 378 443
f 401 443 440
f 367 436 427
f 420 446 443
f 427 448 391
f 446 422 449
f 422 428 449
f 452 391 468
f 523 449 377
f 444 470 484
f 452 450 391
f 523 377 454
f 454 377 471
f 470 454 484
f 453 452 455
f 528 417 456
f 546 456 493
f 538 437 356
f 380 418 461
f 437 463 315
f 423 435 405
f 418 435 423
f 399 477 441
f 408 400 504
f 382 435 418
f 382 389 513
f 442 425 436
f 440 447 321
f 446 542 443
f 504 400 390
f 446 449 467
f 391 448 468
f 482 470 483
f 358 447 432
f 490 482 483
f 483 470 444
f 523 454 470
f 491 483 444
f 483 491 490
f 491 444 490
f 444 482 490
f 484 454 416
f 472 453 475
f 416 417 528
f 456 546 528
f 574 414 537
f 537 414 533
f 315 463 415
f 339 439 495
f 435 382 462
f 405 406 423
f 514 477 464
f 332 516 480
f 461 418 406
f 516 332 403
f 439 574 495
f 439 414 574
f 516 403 441
f 598 389 504
f 332 480 390
f 468 512 500
f 440 443 542
f 425 442 521
f 479 436 425
f 542 446 467
f 436 479 427
f 447 440 501
f 534 389 598
f 453 455 492
f 448 512 468
f 523 470 510
f 492 455 468
f 455 452 468
f 468 500 492
f 470 482 510
f 510 482 484
f 482 444 484
f 493 472 546
f 445 339 495
f 521 337 474
f 513 462 382
f 405 457 406
f 660 394 531
f 519 513 389
f 515 425 521
f 525 441 514
f 434 404 518
f 477 514 441
f 660 464 394
f 501 440 542
f 516 441 525
f 425 466 479
f 593 406 457
f 447 501 545
f 522 542 467
f 512 427 479
f 512 448 427
f 522 467 449
f 449 523 522
f 545 432 447
f 522 523 510
f 507 510 511
f 416 528 511
f 511 510 484
f 484 416 511
f 546 472 529
f 472 475 529
f 473 475 453
f 492 473 453
f 356 476 538
f 406 593 438
f 423 406 418
f 476 421 538
f 533 461 573
f 389 534 519
f 405 435 457
f 434 518 556
f 538 421 557
f 461 406 438
f 577 534 598
f 425 419 466
f 480 516 525
f 504 539 598
f 480 541 390
f 479 466 515
f 542 522 554
f 479 505 512
f 473 492 500
f 473 500 526
f 511 546 568
f 511 528 546
f 546 529 568
f 473 529 475
f 473 536 529
f 532 464 660
f 437 496 463
f 533 573 602
f 435 462 457
f 462 513 519
f 531 497 415
f 504 390 539
f 445 518 339
f 505 479 515
f 560 561 562
f 540 462 519
f 515 466 419
f 561 564 489
f 561 560 564
f 521 559 515
f 425 515 419
f 501 542 554
f 478 501 554
f 505 567 512
f 566 554 522
f 512 567 500
f 526 500 567
f 522 510 566
f 566 510 507
f 566 507 549
f 511 549 507
f 536 568 529
f 521 474 545
f 421 434 557
f 496 538 463
f 537 533 602
f 437 538 496
f 457 462 540
f 480 525 642
f 520 519 534
f 540 519 520
f 461 438 573
f 390 541 539
f 564 560 558
f 559 506 515
f 478 545 501
f 515 506 505
f 521 544 559
f 506 489 505
f 581 554 566
f 553 544 521
f 505 526 567
f 505 489 526
f 581 566 616
f 566 549 616
f 578 588 589
f 562 469 591
f 594 473 526
f 568 570 586
f 511 586 549
f 511 568 586
f 570 568 536
f 570 536 586
f 594 536 473
f 494 445 495
f 489 584 526
f 545 478 502
f 534 577 572
f 660 531 517
f 554 581 502
f 489 469 561
f 514 661 525
f 555 639 584
f 434 556 557
f 572 520 534
f 554 502 478
f 495 574 494
f 545 575 535
f 460 458 604
f 459 606 460
f 469 562 561
f 502 581 607
f 575 607 610
f 606 609 460
f 489 564 611
f 559 544 506
f 581 549 608
f 634 631 588
f 611 558 597
f 581 616 549
f 590 553 521
f 526 584 594
f 658 590 545
f 521 545 590
f 594 586 536
f 498 463 538
f 537 602 580
f 650 538 618
f 465 520 572
f 464 532 514
f 525 661 642
f 580 494 574
f 596 573 593
f 520 579 540
f 579 520 465
f 593 573 438
f 580 574 537
f 607 608 609
f 560 562 591
f 502 607 575
f 589 628 635
f 588 628 589
f 627 459 632
f 469 587 591
f 587 558 591
f 506 544 626
f 506 626 489
f 502 575 545
f 627 575 610
f 633 606 459
f 627 633 459
f 610 607 609
f 633 610 606
f 459 604 632
f 459 460 604
f 607 581 608
f 627 610 633
f 610 609 606
f 608 459 609
f 458 634 632
f 627 632 634
f 604 458 632
f 609 459 460
f 458 608 634
f 575 627 634
f 575 634 535
f 535 578 589
f 558 560 591
f 626 469 489
f 578 634 588
f 608 617 634
f 578 535 634
f 628 631 635
f 631 634 617
f 628 588 631
f 535 589 635
f 535 635 617
f 631 617 635
f 617 613 535
f 576 636 615
f 555 587 638
f 587 615 636
f 558 587 597
f 564 558 611
f 597 587 555
f 637 640 638
f 640 637 639
f 640 639 555
f 587 636 638
f 638 640 555
f 637 638 636
f 639 637 636
f 584 639 636
f 489 611 597
f 617 608 549
f 584 636 576
f 597 555 584
f 489 597 584
f 617 549 613
f 586 613 549
f 613 586 594
f 551 613 594
f 553 590 658
f 576 551 594
f 584 576 594
f 544 553 626
f 463 498 629
f 463 565 488
f 415 463 605
f 415 605 531
f 605 463 488
f 514 532 671
f 538 557 618
f 480 642 603
f 595 563 499
f 539 541 598
f 535 563 658
f 626 553 612
f 573 596 602
f 541 480 598
f 612 595 499
f 563 659 499
f 600 652 612
f 600 655 652
f 469 612 652
f 612 499 600
f 599 655 600
f 659 656 499
f 654 599 657
f 654 655 599
f 499 656 657
f 656 654 657
f 599 600 657
f 600 499 657
f 655 654 469
f 652 655 469
f 469 654 656
f 612 469 626
f 658 622 535
f 622 545 535
f 535 613 563
f 563 595 658
f 595 553 658
f 563 614 551
f 595 612 553
f 656 659 469
f 469 659 587
f 658 545 622
f 563 613 614
f 614 613 551
f 576 563 551
f 615 587 659
f 563 576 615
f 659 563 615
f 646 538 650
f 556 518 668
f 593 457 664
f 565 463 547
f 572 577 465
f 517 531 605
f 517 605 660
f 494 580 518
f 646 498 538
f 494 518 445
f 602 585 580
f 663 557 556
f 577 665 465
f 682 660 605
f 651 598 669
f 532 660 671
f 671 661 514
f 629 547 463
f 601 602 596
f 577 598 651
f 480 603 409
f 603 642 524
f 669 598 480
f 565 619 488
f 712 605 488
f 661 662 642
f 557 663 618
f 663 556 503
f 601 647 602
f 672 593 664
f 647 585 602
f 711 411 457
f 666 518 580
f 457 411 664
f 580 585 666
f 649 579 465
f 672 596 593
f 676 629 498
f 577 651 665
f 556 668 503
f 601 596 672
f 465 665 675
f 603 667 409
f 660 713 671
f 643 524 509
f 669 480 409
f 671 662 661
f 524 642 509
f 630 585 647
f 711 457 540
f 603 524 667
f 711 540 649
f 543 647 601
f 715 650 393
f 540 579 649
f 712 488 619
f 660 682 713
f 662 509 642
f 663 680 618
f 543 601 672
f 667 643 409
f 630 543 670
f 543 630 647
f 686 668 518
f 688 620 671
f 666 585 429
f 667 524 643
f 592 665 651
f 618 644 650
f 646 650 715
f 503 680 663
f 395 426 543
f 630 670 426
f 643 509 687
f 653 651 669
f 585 630 426
f 686 518 666
f 426 670 543
f 395 543 672
f 662 671 620
f 685 509 662
f 701 680 503
f 430 701 503
f 662 487 685
f 648 672 583
f 668 430 503
f 644 393 650
f 624 649 465
f 509 451 693
f 686 430 668
f 583 672 664
f 629 676 673
f 676 498 646
f 547 629 673
f 743 703 747
f 747 703 624
f 712 736 605
f 718 605 736
f 625 465 681
f 624 465 625
f 681 465 675
f 718 682 605
f 713 682 699
f 669 730 653
f 487 662 620
f 687 730 643
f 409 643 669
f 486 395 648
f 669 643 730
f 426 395 486
f 395 672 648
f 691 486 648
f 691 648 583
f 691 583 664
f 691 664 711
f 664 411 711
f 691 711 703
f 703 711 649
f 738 691 703
f 703 649 624
f 747 624 625
f 747 625 675
f 625 681 675
f 653 747 675
f 592 653 675
f 592 675 665
f 651 653 592
f 451 678 693
f 693 678 687
f 685 451 509
f 509 693 687
f 701 728 710
f 686 683 430
f 582 715 645
f 715 582 481
f 673 481 746
f 641 673 552
f 673 746 552
f 743 738 703
f 552 623 641
f 623 552 735
f 623 735 721
f 700 732 645
f 623 721 712
f 721 708 736
f 695 736 733
f 695 733 674
f 674 733 696
f 726 679 713
f 701 710 727
f 685 707 748
f 737 685 748
f 678 451 685
f 678 737 723
f 552 746 735
f 645 716 700
f 727 710 728
f 699 696 677
f 705 727 700
f 677 734 699
f 720 748 684
f 678 685 737
f 716 530 705
f 727 705 701
f 623 565 641
f 727 728 700
f 645 715 393
f 716 645 393
f 689 715 481
f 716 705 700
f 716 393 644
f 736 708 733
f 735 739 721
f 736 712 721
f 565 623 619
f 733 677 696
f 677 733 708
f 734 679 726
f 679 671 713
f 620 684 707
f 748 707 684
f 679 720 684
f 707 487 620
f 715 689 646
f 618 705 530
f 705 680 701
f 680 705 618
f 530 644 618
f 716 644 530
f 673 676 481
f 645 746 582
f 689 481 646
f 676 646 481
f 641 547 673
f 619 623 712
f 690 691 750
f 739 708 721
f 718 695 674
f 682 718 674
f 696 699 682
f 726 713 699
f 684 688 679
f 726 699 734
f 685 487 707
f 723 737 485
f 739 735 746
f 430 728 701
f 741 732 700
f 645 732 746
f 746 481 582
f 692 486 691
f 690 692 691
f 565 547 641
f 750 691 738
f 741 700 508
f 739 704 708
f 677 708 725
f 695 718 736
f 653 714 747
f 696 682 674
f 679 734 745
f 679 688 671
f 684 620 688
f 740 687 723
f 723 687 678
f 741 508 686
f 702 486 692
f 426 429 585
f 666 429 686
f 700 728 508
f 686 429 741
f 486 731 426
f 429 426 741
f 702 731 486
f 690 527 692
f 731 698 426
f 704 724 708
f 743 747 697
f 747 714 724
f 744 714 653
f 679 745 720
f 730 729 653
f 737 748 722
f 571 730 687
f 737 722 485
f 740 723 485
f 740 485 571
f 430 683 728
f 698 548 426
f 749 732 741
f 426 548 741
f 732 749 548
f 732 694 746
f 708 724 725
f 704 739 742
f 621 677 725
f 714 621 724
f 748 729 730
f 717 729 720
f 729 748 720
f 748 730 722
f 571 687 740
f 683 686 508
f 749 741 548
f 728 683 508
f 732 548 550
f 732 550 569
f 550 548 698
f 550 698 731
f 731 569 550
f 694 732 569
f 702 569 731
f 569 702 694
f 694 702 692
f 694 692 706
f 706 746 694
f 527 706 692
f 746 527 739
f 746 706 527
f 739 690 750
f 527 690 739
f 739 738 742
f 738 739 750
f 704 742 743
f 742 738 743
f 747 724 697
f 704 743 697
f 704 697 724
f 719 621 714
f 725 724 621
f 719 714 744
f 677 621 719
f 719 744 677
f 677 744 734
f 709 745 734
f 734 744 709
f 709 744 653
f 653 717 709
f 745 709 717
f 717 653 729
f 720 745 717
f 730 571 722
f 485 722 571

