# https://github.com/mikedh/trimesh
v -0.08983534 -0.07146977 -0.01081540
v -0.08971635 -0.06579070 -0.01271092
v -0.08970719 -0.06768852 -0.01271092
v -0.08981704 -0.07336759 -0.01081540
v -0.08982618 -0.06768852 -0.00892146
v -0.08983534 -0.06579070 -0.00892146
v -0.08983534 -0.05441818 -0.01081540
v -0.08969804 -0.06389289 -0.01271092
v -0.08885594 -0.06579070 -0.01441263
v -0.08883763 -0.06768852 -0.01447566
v -0.08982618 -0.05062255 -0.01081540
v -0.08981704 -0.04872473 -0.01081540
v -0.08967058 -0.06957196 -0.01271092
v -0.08975296 -0.07716322 -0.01081540
v -0.08978957 -0.07526541 -0.01081540
v -0.08978957 -0.05631600 -0.00702595
v -0.08982618 -0.05252036 -0.00702595
v -0.08977126 -0.07146977 -0.00892146
v -0.08954244 -0.07336759 -0.00702595
v -0.08983534 -0.04872473 -0.00702595
v -0.08983534 -0.03167314 -0.00892146
v -0.08965227 -0.06199507 -0.01271092
v -0.08979872 -0.04684129 -0.01081540
v -0.08977126 -0.04494347 -0.01081540
v -0.08975296 -0.02219843 -0.00892146
v -0.08777585 -0.06768852 -0.01542263
v -0.08954244 -0.05819944 -0.01271092
v -0.08878271 -0.06199507 -0.01434015
v -0.08777585 -0.06957196 -0.01541948
v -0.08777585 -0.07146977 -0.01541160
v -0.08777585 -0.07336759 -0.01540214
v -0.08880102 -0.06957196 -0.01447251
v -0.08982618 -0.02787750 -0.00892146
v -0.08978957 -0.02409625 -0.00892146
v -0.08953328 -0.07526541 -0.01271092
v -0.08942345 -0.07716322 -0.01271092
v -0.08970719 -0.07786771 -0.01081540
v -0.08956989 -0.07786771 -0.00892146
v -0.08959736 -0.07716322 -0.00892146
v -0.08972550 -0.07336759 -0.00892146
v -0.08978042 -0.00892809 -0.00323649
v -0.08980788 -0.00703027 -0.00323649
v -0.08980788 0.01758383 -0.00134097
v -0.08982618 -0.00326340 -0.00323649
v -0.08983534 0.02516072 -0.00134097
v -0.08949667 -0.07526541 -0.00702595
v -0.08964312 0.00810913 -0.00134097
v -0.08975296 0.01378820 -0.00134097
v -0.08983534 0.01190476 -0.00513201
v -0.08970719 -0.02030061 -0.00892146
v -0.08977126 -0.00136558 -0.00702595
v -0.08972550 0.04412451 -0.00323649
v -0.08872779 -0.06009725 -0.01428973
v -0.08745549 -0.06009725 -0.01523670
v -0.08651271 -0.06009725 -0.01567788
v -0.08683307 -0.06768852 -0.01573461
v -0.08683307 -0.07336759 -0.01573461
v -0.08941429 -0.05441818 -0.01271092
v -0.08965227 -0.01840280 -0.00892146
v -0.08948752 -0.01272372 -0.00892146
v -0.08942345 -0.01082591 -0.00892146
v -0.08934107 -0.05252036 -0.01271092
v -0.08925868 -0.05062255 -0.01271092
v -0.08870949 -0.07336759 -0.01445517
v -0.08875525 -0.07146977 -0.01446463
v -0.08669577 -0.07526541 -0.01570310
v -0.08763856 -0.07526541 -0.01532966
v -0.08866372 -0.07526541 -0.01438269
v -0.08982618 0.05927829 -0.00134097
v -0.08980788 0.06117610 -0.00134097
v -0.08979872 0.04032887 -0.00323649
v -0.08856304 -0.07716322 -0.01414792
v -0.08923122 -0.07786771 -0.01276449
v -0.08946921 -0.07786771 -0.00772869
v -0.08943260 -0.07716322 -0.00702595
v -0.08977126 0.01772760 -0.00119916
v -0.08978957 0.01962542 -0.00119916
v -0.08980788 0.02340668 -0.00119916
v -0.08982618 0.02137946 -0.00134097
v -0.08982618 0.03477920 -0.00119916
v -0.08983534 0.04804954 -0.00119916
v -0.08875525 -0.07786771 -0.00503116
v -0.08954244 0.00431349 -0.00134097
v -0.08957905 0.00825290 -0.00119916
v -0.08970719 0.01393197 -0.00119916
v -0.08974381 0.01582979 -0.00119916
v -0.08983534 0.05359921 -0.00134097
v -0.08962482 0.04790576 -0.00323649
v -0.08861796 -0.05631600 -0.01414319
v -0.08916715 -0.04872473 -0.01271092
v -0.08855388 -0.05441818 -0.01407071
v -0.08848066 -0.05252036 -0.01399351
v -0.08839828 -0.05062255 -0.01391472
v -0.08831590 -0.04872473 -0.01383437
v -0.08815114 -0.04544668 -0.01369571
v -0.08806876 -0.04418147 -0.01363741
v -0.08621065 -0.05722177 -0.01555656
v -0.08525871 -0.06009725 -0.01589690
v -0.08665916 -0.03925002 -0.01384382
v -0.08646694 -0.03736658 -0.01376346
v -0.08631133 -0.03588571 -0.01370201
v -0.08525871 -0.06768852 -0.01592842
v -0.08525871 -0.07336759 -0.01592842
v -0.08525871 -0.07526541 -0.01588587
v -0.08938683 -0.03167314 -0.01081540
v -0.08951498 0.05170139 -0.00323649
v -0.08948752 0.03085417 -0.00513201
v -0.08942345 0.03275199 -0.00513201
v -0.08935022 -0.00892809 -0.00892146
v -0.08926784 -0.00703027 -0.00892146
v -0.08918546 -0.00514684 -0.00892146
v -0.08643948 -0.07661688 -0.01563062
v -0.08710767 -0.07722073 -0.01515949
v -0.08982618 0.05942206 -0.00119916
v -0.08980788 0.06131988 -0.00119916
v -0.08975296 0.06307392 -0.00134097
v -0.08846235 -0.07786771 -0.01401557
v -0.08940514 -0.07786771 -0.00702595
v -0.08983534 0.05372861 -0.00119916
v -0.08821521 -0.07786771 -0.00401802
v -0.08943260 0.00053224 -0.00134097
v -0.08935937 0.00070477 -0.00119916
v -0.08905731 -0.04684129 -0.01271092
v -0.08902070 -0.02409625 -0.01081540
v -0.08913054 -0.02599406 -0.01081540
v -0.08859050 0.01000694 -0.00846610
v -0.08848981 0.03463543 -0.00646186
v -0.08828844 -0.02599406 -0.01191837
v -0.08845320 0.01378820 -0.00830381
v -0.08819691 -0.02409625 -0.01184116
v -0.08813283 -0.02283103 -0.01178916
v -0.08804130 -0.02156582 -0.01172929
v -0.08525871 -0.05819944 -0.01574721
v -0.08611912 -0.03462050 -0.01364844
v -0.08146926 -0.05819944 -0.01616319
v -0.07957454 -0.05819944 -0.01635384
v -0.08336398 -0.06009725 -0.01607810
v -0.08715344 -0.02409625 -0.01233119
v -0.08678730 -0.01840280 -0.01200030
v -0.08659509 -0.01651936 -0.01191994
v -0.08673238 0.00431349 -0.01007327
v -0.08679646 0.06901178 -0.00448914
v -0.08626557 -0.01338509 -0.01178601
v -0.08146926 -0.06009725 -0.01625142
v -0.07957454 -0.06009725 -0.01640742
v -0.07578509 -0.06009725 -0.01668788
v -0.07578509 -0.06199507 -0.01667213
v -0.07388121 -0.06389289 -0.01671309
v -0.08336398 -0.07526541 -0.01593157
v -0.07957454 -0.07716322 -0.01588430
v -0.08146926 -0.07716322 -0.01583072
v -0.08525871 -0.07699069 -0.01569837
v -0.08945090 0.05359921 -0.00323649
v -0.08938683 0.05548265 -0.00323649
v -0.08931360 0.05738047 -0.00323649
v -0.08927699 0.03653324 -0.00513201
v -0.08918546 0.03843106 -0.00513201
v -0.08913969 0.06117610 -0.00323649
v -0.08913969 0.01758383 -0.00702595
v -0.08525871 -0.07786771 -0.01553135
v -0.08532278 -0.07786771 -0.01552347
v -0.08645779 -0.07786771 -0.01519101
v -0.08717174 -0.07786771 -0.01490109
v -0.08975296 0.06321769 -0.00119916
v -0.08956074 0.06901178 -0.00119916
v -0.08954244 0.06901178 -0.00134097
v -0.08723581 -0.07786771 -0.00331370
v -0.08868203 -0.01247931 -0.00119916
v -0.08876441 -0.01117097 -0.00119916
v -0.08892002 -0.00868368 -0.00119916
v -0.08902985 -0.00681461 -0.00119916
v -0.08913054 -0.00493117 -0.00119916
v -0.08921292 -0.00306211 -0.00119916
v -0.08936853 -0.00136558 -0.00134097
v -0.08908477 0.04032887 -0.00513201
v -0.08861796 0.03085417 -0.00662258
v -0.08855388 0.03275199 -0.00654380
v -0.08859050 0.05359921 -0.00468137
v -0.08852642 0.05548265 -0.00459628
v -0.08841659 0.03653324 -0.00637835
v -0.08825182 0.04032887 -0.00621448
v -0.08816029 -0.00136558 -0.00991413
v -0.08810538 -0.00034478 -0.00987474
v -0.08800469 0.00092043 -0.00981329
v -0.08329991 -0.03180253 -0.01372407
v -0.07957454 -0.03925002 -0.01476558
v -0.07917179 -0.04872473 -0.01561328
v -0.07957454 -0.05252036 -0.01589060
v -0.07957454 -0.05631600 -0.01621203
v -0.08405963 0.03528241 -0.00794771
v -0.08417863 0.01268114 -0.00985268
v -0.08389487 -0.00892809 -0.01171826
v -0.08295209 -0.00892809 -0.01182225
v -0.08621065 0.00908679 -0.00987001
v -0.08525871 0.04412451 -0.00701019
v -0.08448069 0.03401720 -0.00800128
v -0.07767981 -0.05631600 -0.01642002
v -0.07578509 -0.05631600 -0.01661067
v -0.07767981 -0.05819944 -0.01652874
v -0.08801384 0.04457021 -0.00603013
v -0.08811453 0.04330500 -0.00609001
v -0.08813283 0.06425286 -0.00420709
v -0.08773924 0.06901178 -0.00390772
v -0.08525871 0.06901178 -0.00482948
v -0.08622896 0.05275095 -0.00608843
v -0.08629303 0.03030783 -0.00800758
v -0.07578509 -0.05819944 -0.01669103
v -0.07388121 -0.06009725 -0.01676351
v -0.07388121 -0.06199507 -0.01675564
v 0.00190777 -0.06389289 -0.01726457
v -0.02272365 -0.07336759 -0.01660280
v -0.02461837 -0.07336759 -0.01658862
v -0.04546034 -0.07526541 -0.01630972
v -0.05872341 -0.07526541 -0.01619785
v -0.06251286 -0.07526541 -0.01616476
v -0.07767981 -0.07716322 -0.01591108
v -0.07957454 -0.07786771 -0.01578188
v -0.08049902 -0.07786771 -0.01575509
v -0.08146926 -0.07786771 -0.01572515
v -0.08254935 -0.07786771 -0.01568104
v -0.08353790 -0.07733575 -0.01571885
v -0.08324499 -0.07786771 -0.01564795
v -0.08448984 -0.07786771 -0.01558335
v -0.08923122 0.05927829 -0.00323649
v -0.08898409 0.06307392 -0.00323649
v -0.08829759 0.06117610 -0.00434890
v -0.08837998 0.05927829 -0.00442926
v -0.08879187 0.06901178 -0.00274804
v -0.08867288 0.06901178 -0.00296075
v 0.00367435 0.06901178 -0.00119916
v -0.08571637 -0.07786771 -0.00251957
v -0.08856304 -0.01407520 -0.00119916
v -0.08149672 -0.02779124 -0.01358226
v -0.07957454 -0.02977532 -0.01396199
v -0.07767981 -0.04872473 -0.01577715
v -0.08465460 0.05513760 -0.00613255
v -0.08425185 0.05640280 -0.00607583
v -0.08336398 0.04222669 -0.00741671
v -0.08336398 0.03843106 -0.00774917
v -0.08340060 0.03661951 -0.00790201
v -0.08336398 0.03085417 -0.00839835
v -0.07864091 -0.02501640 -0.01365947
v -0.08336398 0.02327728 -0.00904436
v -0.07957454 -0.02219843 -0.01331912
v -0.08608250 0.03155866 -0.00795401
v -0.08525871 0.04600794 -0.00684632
v -0.08525871 0.04790576 -0.00668088
v -0.07699331 -0.04554733 -0.01558177
v -0.07578509 -0.05441818 -0.01645468
v -0.07388121 -0.05441818 -0.01652086
v -0.07388121 -0.05631600 -0.01667370
v -0.07388121 -0.05819944 -0.01675721
v -0.08819691 0.06307392 -0.00426382
v -0.08786739 0.06901178 -0.00378324
v -0.08336398 0.06901178 -0.00488778
v -0.08146926 0.04980358 -0.00683529
v -0.08146926 0.04790576 -0.00701807
v -0.08094752 0.03782721 -0.00800758
v -0.08591775 0.05401615 -0.00603171
v 0.00367435 -0.06199507 -0.01729609
v 0.00367435 -0.06374911 -0.01727875
v 0.00367435 -0.06389289 -0.01727718
v -0.01893420 -0.07336759 -0.01662801
v -0.04168005 -0.07526541 -0.01633809
v -0.06630231 -0.07716322 -0.01599932
v -0.07578509 -0.07716322 -0.01592684
v -0.07767981 -0.07786771 -0.01580709
v 0.00367435 0.06901178 -0.00599389
v 0.00367435 -0.06623640 -0.00119916
v -0.08479189 -0.07786771 -0.00228164
v -0.08799554 -0.01927982 -0.00119916
v -0.08820606 -0.01754015 -0.00119916
v -0.08839828 -0.01581486 -0.00119916
v -0.07767981 -0.04114784 -0.01513428
v -0.08336398 0.04790576 -0.00691408
v -0.08336398 0.04600794 -0.00708267
v -0.08336398 0.04412451 -0.00724969
v -0.08221068 0.03730962 -0.00795874
v -0.08279648 0.03604441 -0.00801231
v -0.08146926 0.02327728 -0.00924132
v -0.07767981 -0.02030061 -0.01335694
v -0.07767981 -0.02977532 -0.01416525
v -0.07645327 -0.04428211 -0.01552820
v -0.07578509 -0.05062255 -0.01613167
v -0.07519013 -0.04360638 -0.01558650
v -0.07388121 -0.04872473 -0.01604816
v -0.03030254 0.05230525 -0.00794771
v -0.02272365 0.05927829 -0.00741041
v 0.00367435 -0.06009725 -0.01715270
v -0.08146926 0.06901178 -0.00492717
v -0.02082892 0.06307392 -0.00701807
v -0.02272365 0.06117610 -0.00723078
v -0.02461837 0.05927829 -0.00739780
v -0.02840782 0.05548265 -0.00768772
v -0.03219727 0.05219023 -0.00792565
v -0.03219727 0.05124132 -0.00802019
v -0.03376248 0.05099691 -0.00800285
v -0.07957454 0.03812913 -0.00803752
v -0.07578509 0.01190476 -0.01071614
v -0.07578509 0.01000694 -0.01089261
v -0.07578509 0.00621131 -0.01124241
v -0.07578509 0.00431349 -0.01141573
v -0.07883312 0.01877715 -0.00988892
v 0.00367435 -0.07526541 -0.01662170
v -0.00188168 -0.07336759 -0.01671467
v -0.00756585 -0.07336759 -0.01669576
v -0.00946057 -0.07336759 -0.01668631
v -0.01135530 -0.07336759 -0.01667528
v -0.03978532 -0.07526541 -0.01635069
v -0.06251286 -0.07716322 -0.01602768
v -0.07578509 -0.07786771 -0.01581812
v -0.01514475 0.06901178 -0.00599389
v 0.00367435 0.06835042 -0.00623969
v -0.04546034 -0.06623640 -0.00119916
v -0.06819704 -0.07786771 -0.00122753
v -0.06630231 -0.07786771 -0.00122910
v -0.06251286 -0.07786771 -0.00123383
v -0.05493397 -0.07786771 -0.00124643
v -0.04924979 -0.07786771 -0.00126061
v -0.04356562 -0.07786771 -0.00127637
v -0.04168005 -0.07786771 -0.00128425
v -0.03978532 -0.07786771 -0.00129370
v -0.03409199 -0.07786771 -0.00132679
v -0.03219727 -0.07786771 -0.00133782
v -0.02907601 -0.07786771 -0.00135673
v -0.02651310 -0.07786771 -0.00137249
v -0.00567113 -0.07786771 -0.00150169
v 0.00143180 -0.07786771 -0.00154581
v 0.00367435 -0.07786771 -0.00155999
v -0.08337314 -0.07786771 -0.00191924
v -0.08729073 -0.02429753 -0.00119916
v -0.08146926 -0.07786771 -0.00146387
v -0.08146926 0.02705854 -0.00891674
v -0.07767981 -0.00703027 -0.01221932
v -0.07767981 -0.01840280 -0.01319465
v -0.07684687 -0.02300356 -0.01367050
v -0.07578509 -0.03925002 -0.01516107
v -0.07578509 -0.04114784 -0.01532336
v -0.07388121 -0.03925002 -0.01525561
v -0.07388121 -0.04242743 -0.01552505
v -0.07578509 -0.02787750 -0.01418574
v -0.07499790 -0.02109137 -0.01367207
v -0.02082892 0.06117610 -0.00723866
v -0.01703947 0.06117610 -0.00723236
v -0.01325002 0.06117610 -0.00722448
v -0.00946057 0.06117610 -0.00721503
v -0.00756585 0.06117610 -0.00720872
v 0.00367435 0.06117610 -0.00716303
v -0.01703947 0.06827854 -0.00625230
v -0.01893420 0.06823540 -0.00622866
v -0.01893420 0.06685518 -0.00651701
v -0.02685177 0.06901178 -0.00588832
v -0.01893420 0.06497174 -0.00678487
v -0.01893420 0.06307392 -0.00702910
v -0.07388121 -0.00703027 -0.01249191
v -0.07443040 0.00142364 -0.01175922
v -0.07388121 0.00431349 -0.01151027
v -0.07388121 0.00621131 -0.01133222
v -0.07388121 -0.02787750 -0.01428028
v -0.07388121 0.00810913 -0.01114629
v -0.07767981 0.03085417 -0.00880486
v -0.07578509 0.01568601 -0.01034901
v -0.07578509 0.01378820 -0.01053494
v -0.07539150 0.00015842 -0.01181280
v -0.07578509 0.00243005 -0.01158433
v -0.07767981 0.01190476 -0.01059166
v -0.07767981 0.01000694 -0.01075553
v 0.00367435 -0.07716322 -0.01638693
v 0.00001305 -0.07716322 -0.01636802
v -0.03789060 -0.07716322 -0.01616319
v -0.04168005 -0.07716322 -0.01614270
v -0.05493397 -0.07716322 -0.01607022
v -0.06061814 -0.07716322 -0.01603871
v -0.03599587 -0.07526541 -0.01637433
v -0.07388121 -0.07786771 -0.01582915
v -0.01659096 0.06901178 -0.00598916
v -0.01514475 0.06829291 -0.00625860
v 0.00367435 0.06829291 -0.00625860
v -0.04924979 -0.06620765 -0.00119916
v -0.07767981 -0.07786771 -0.00122753
v 0.00367435 -0.07786771 -0.01620888
v -0.08715344 -0.02524644 -0.00119916
v -0.07957454 -0.07786771 -0.00124171
v -0.07666380 -0.00048856 -0.01175607
v -0.07578509 -0.01272372 -0.01288582
v -0.07578509 -0.00703027 -0.01239737
v -0.01325002 0.06307392 -0.00702910
v -0.00946057 0.06307392 -0.00702752
v -0.00567113 0.06307392 -0.00702122
v 0.00367435 0.06307392 -0.00700231
v -0.01703947 0.06685518 -0.00655010
v -0.01703947 0.06901178 -0.00598759
v -0.01703947 0.06497174 -0.00679275
v 0.00261257 -0.07786771 -0.01620415
v 0.00190777 -0.07786771 -0.01620100
v -0.06061814 -0.07786771 -0.01590320
v -0.06251286 -0.07786771 -0.01589375
v 0.00367435 0.06697019 -0.00653434
v -0.01514475 0.06685518 -0.00655640
v -0.05290194 -0.06616451 -0.00119916
v -0.05858612 -0.06604949 -0.00119916
v -0.06061814 -0.06600636 -0.00119916
v -0.06252202 -0.06554629 -0.00119916
v -0.06357464 -0.06497119 -0.00119916
v -0.08525871 -0.03190317 -0.00119916
v -0.08574383 -0.03026415 -0.00119916
v -0.08616488 -0.02878328 -0.00119916
v 0.00367435 0.06497174 -0.00679275
v 0.00367435 0.06685518 -0.00655640
f 1 2 3
f 1 3 4
f 1 4 5
f 1 5 6
f 1 6 20
f 1 20 45
f 1 45 81
f 1 81 119
f 1 119 87
f 1 87 49
f 1 49 21
f 1 21 7
f 1 7 2
f 2 8 9
f 2 9 10
f 2 10 3
f 2 7 11
f 2 11 12
f 2 12 8
f 3 10 13
f 3 13 14
f 3 14 15
f 3 15 4
f 4 15 5
f 5 16 17
f 5 17 6
f 5 15 18
f 5 18 19
f 5 19 16
f 6 17 20
f 7 21 33
f 7 33 11
f 8 22 9
f 8 12 23
f 8 23 24
f 8 24 25
f 8 25 50
f 8 50 22
f 9 26 10
f 9 22 27
f 9 27 28
f 9 28 26
f 10 26 29
f 10 29 30
f 10 30 31
f 10 31 32
f 10 32 13
f 11 33 12
f 12 33 34
f 12 34 23
f 13 32 35
f 13 35 14
f 14 35 36
f 14 36 37
f 14 37 38
f 14 38 39
f 14 39 40
f 14 40 18
f 14 18 15
f 16 19 41
f 16 41 42
f 16 42 17
f 17 42 43
f 17 43 44
f 17 44 45
f 17 45 20
f 18 40 46
f 18 46 19
f 19 46 47
f 19 47 48
f 19 48 41
f 21 49 33
f 22 50 59
f 22 59 27
f 23 34 24
f 24 34 25
f 25 34 51
f 25 51 52
f 25 52 50
f 26 28 53
f 26 53 54
f 26 54 55
f 26 55 56
f 26 56 57
f 26 57 29
f 27 58 28
f 27 59 60
f 27 60 61
f 27 61 58
f 28 58 62
f 28 62 63
f 28 63 53
f 29 57 30
f 30 57 31
f 31 64 65
f 31 65 32
f 31 57 66
f 31 66 67
f 31 67 68
f 31 68 64
f 32 65 35
f 33 49 69
f 33 69 70
f 33 70 71
f 33 71 34
f 34 71 51
f 35 68 36
f 35 65 64
f 35 64 68
f 36 68 72
f 36 72 73
f 36 73 37
f 37 73 117
f 37 117 163
f 37 163 162
f 37 162 161
f 37 161 160
f 37 160 223
f 37 223 222
f 37 222 220
f 37 220 219
f 37 219 218
f 37 218 217
f 37 217 267
f 37 267 311
f 37 311 375
f 37 375 397
f 37 397 396
f 37 396 395
f 37 395 394
f 37 394 381
f 37 381 329
f 37 329 328
f 37 328 327
f 37 327 326
f 37 326 325
f 37 325 324
f 37 324 323
f 37 323 322
f 37 322 321
f 37 321 320
f 37 320 319
f 37 319 318
f 37 318 317
f 37 317 316
f 37 316 315
f 37 315 380
f 37 380 383
f 37 383 332
f 37 332 330
f 37 330 270
f 37 270 231
f 37 231 167
f 37 167 120
f 37 120 82
f 37 82 118
f 37 118 74
f 37 74 38
f 38 74 39
f 39 74 75
f 39 75 46
f 39 46 40
f 41 48 43
f 41 43 42
f 43 48 86
f 43 86 76
f 43 76 77
f 43 77 78
f 43 78 79
f 43 79 44
f 44 79 45
f 45 79 78
f 45 78 80
f 45 80 81
f 46 75 82
f 46 82 47
f 47 83 84
f 47 84 85
f 47 85 48
f 47 82 83
f 48 85 86
f 49 87 69
f 50 52 88
f 50 88 106
f 50 106 59
f 51 71 52
f 52 71 70
f 52 70 88
f 53 89 54
f 53 63 90
f 53 90 89
f 54 89 91
f 54 91 92
f 54 92 93
f 54 93 94
f 54 94 95
f 54 95 96
f 54 96 55
f 55 97 98
f 55 98 56
f 55 96 99
f 55 99 100
f 55 100 101
f 55 101 97
f 56 98 102
f 56 102 103
f 56 103 57
f 57 103 104
f 57 104 66
f 58 105 62
f 58 61 105
f 59 106 107
f 59 107 60
f 60 107 108
f 60 108 61
f 61 108 109
f 61 109 105
f 62 105 109
f 62 109 110
f 62 110 63
f 63 110 111
f 63 111 90
f 66 112 67
f 66 104 112
f 67 112 113
f 67 113 72
f 67 72 68
f 69 87 114
f 69 114 115
f 69 115 70
f 70 115 164
f 70 164 116
f 70 116 106
f 70 106 88
f 72 113 117
f 72 117 73
f 74 118 75
f 75 118 82
f 76 86 85
f 76 85 84
f 76 84 122
f 76 122 173
f 76 173 172
f 76 172 171
f 76 171 170
f 76 170 169
f 76 169 168
f 76 168 232
f 76 232 273
f 76 273 272
f 76 272 271
f 76 271 331
f 76 331 382
f 76 382 407
f 76 407 406
f 76 406 405
f 76 405 404
f 76 404 403
f 76 403 402
f 76 402 401
f 76 401 400
f 76 400 379
f 76 379 314
f 76 314 269
f 76 269 230
f 76 230 165
f 76 165 164
f 76 164 115
f 76 115 114
f 76 114 119
f 76 119 81
f 76 81 80
f 76 80 78
f 76 78 77
f 82 120 121
f 82 121 83
f 83 121 84
f 84 121 122
f 87 119 114
f 89 90 123
f 89 123 124
f 89 124 91
f 90 125 124
f 90 124 123
f 90 111 125
f 91 124 126
f 91 126 127
f 91 127 92
f 92 128 93
f 92 127 129
f 92 129 128
f 93 128 94
f 94 128 130
f 94 130 131
f 94 131 95
f 95 131 96
f 96 131 132
f 96 132 99
f 97 133 98
f 97 101 134
f 97 134 133
f 98 133 135
f 98 135 136
f 98 136 137
f 98 137 102
f 99 132 138
f 99 138 139
f 99 139 140
f 99 140 100
f 100 140 101
f 101 140 141
f 101 141 142
f 101 142 143
f 101 143 134
f 102 137 144
f 102 144 103
f 103 144 145
f 103 145 146
f 103 146 147
f 103 147 104
f 104 147 148
f 104 148 149
f 104 149 150
f 104 150 151
f 104 151 152
f 104 152 112
f 106 116 153
f 106 153 108
f 106 108 107
f 108 153 154
f 108 154 155
f 108 155 156
f 108 156 109
f 109 156 110
f 110 156 111
f 111 156 157
f 111 157 158
f 111 158 159
f 111 159 125
f 112 152 160
f 112 160 161
f 112 161 162
f 112 162 113
f 113 162 163
f 113 163 117
f 116 154 153
f 116 164 165
f 116 165 166
f 116 166 154
f 120 167 168
f 120 168 169
f 120 169 170
f 120 170 171
f 120 171 172
f 120 172 173
f 120 173 122
f 120 122 174
f 120 174 121
f 121 174 122
f 124 125 159
f 124 159 175
f 124 175 176
f 124 176 126
f 126 176 177
f 126 177 127
f 127 177 178
f 127 178 179
f 127 179 227
f 127 227 180
f 127 180 129
f 128 129 180
f 128 180 181
f 128 181 182
f 128 182 130
f 130 182 131
f 131 182 183
f 131 183 132
f 132 183 184
f 132 184 142
f 132 142 138
f 133 185 186
f 133 186 187
f 133 187 188
f 133 188 189
f 133 189 197
f 133 197 135
f 133 134 190
f 133 190 191
f 133 191 192
f 133 192 193
f 133 193 185
f 134 143 194
f 134 194 195
f 134 195 196
f 134 196 190
f 135 197 198
f 135 198 136
f 136 198 199
f 136 199 137
f 137 199 144
f 138 142 141
f 138 141 139
f 139 141 140
f 142 200 201
f 142 201 202
f 142 202 203
f 142 203 254
f 142 254 229
f 142 229 228
f 142 228 166
f 142 166 165
f 142 165 230
f 142 230 268
f 142 268 312
f 142 312 376
f 142 376 392
f 142 392 352
f 142 352 290
f 142 290 255
f 142 255 204
f 142 204 205
f 142 205 206
f 142 206 194
f 142 194 143
f 142 184 200
f 144 199 207
f 144 207 145
f 145 207 146
f 146 207 208
f 146 208 209
f 146 209 147
f 147 209 148
f 148 209 210
f 148 210 211
f 148 211 212
f 148 212 213
f 148 213 214
f 148 214 215
f 148 215 216
f 148 216 150
f 148 150 149
f 150 216 217
f 150 217 151
f 151 217 218
f 151 218 219
f 151 219 220
f 151 220 221
f 151 221 152
f 152 221 220
f 152 220 222
f 152 222 223
f 152 223 160
f 154 166 155
f 155 166 224
f 155 224 156
f 156 224 158
f 156 158 157
f 158 225 226
f 158 226 227
f 158 227 179
f 158 179 178
f 158 178 175
f 158 175 159
f 158 224 166
f 158 166 228
f 158 228 229
f 158 229 225
f 167 231 232
f 167 232 168
f 175 178 176
f 176 178 177
f 180 227 226
f 180 226 181
f 181 226 201
f 181 201 182
f 182 201 183
f 183 201 200
f 183 200 184
f 185 233 186
f 185 193 233
f 186 233 234
f 186 234 235
f 186 235 187
f 187 235 188
f 188 235 197
f 188 197 189
f 190 196 236
f 190 236 237
f 190 237 238
f 190 238 239
f 190 239 240
f 190 240 241
f 190 241 242
f 190 242 243
f 190 243 191
f 191 243 192
f 192 243 193
f 193 243 244
f 193 244 234
f 193 234 233
f 194 206 205
f 194 205 245
f 194 245 195
f 195 245 205
f 195 205 246
f 195 246 196
f 196 246 247
f 196 247 236
f 197 235 248
f 197 248 249
f 197 249 198
f 198 249 250
f 198 250 251
f 198 251 252
f 198 252 207
f 198 207 199
f 201 226 253
f 201 253 202
f 202 253 229
f 202 229 254
f 202 254 203
f 204 255 256
f 204 256 257
f 204 257 258
f 204 258 237
f 204 237 236
f 204 236 247
f 204 247 259
f 204 259 205
f 205 259 247
f 205 247 246
f 207 252 208
f 208 252 260
f 208 260 209
f 209 260 261
f 209 261 262
f 209 262 210
f 210 262 211
f 211 263 309
f 211 309 264
f 211 264 212
f 211 262 263
f 212 264 213
f 213 264 265
f 213 265 266
f 213 266 216
f 213 216 214
f 214 216 215
f 216 266 267
f 216 267 217
f 225 253 226
f 225 229 253
f 230 269 329
f 230 329 381
f 230 381 368
f 230 368 304
f 230 304 262
f 230 262 261
f 230 261 260
f 230 260 289
f 230 289 348
f 230 348 390
f 230 390 408
f 230 408 409
f 230 409 398
f 230 398 378
f 230 378 313
f 230 313 268
f 231 270 271
f 231 271 272
f 231 272 273
f 231 273 232
f 234 244 274
f 234 274 235
f 235 274 248
f 237 258 275
f 237 275 276
f 237 276 277
f 237 277 238
f 238 277 278
f 238 278 239
f 239 278 279
f 239 279 240
f 240 279 280
f 240 280 281
f 240 281 241
f 241 281 242
f 242 281 282
f 242 282 248
f 242 248 274
f 242 274 244
f 242 244 243
f 248 282 281
f 248 281 283
f 248 283 249
f 249 283 284
f 249 284 285
f 249 285 250
f 250 285 286
f 250 286 287
f 250 287 288
f 250 288 289
f 250 289 251
f 251 289 260
f 251 260 252
f 255 290 291
f 255 291 292
f 255 292 293
f 255 293 294
f 255 294 295
f 255 295 296
f 255 296 297
f 255 297 256
f 256 297 298
f 256 298 257
f 257 298 258
f 258 298 299
f 258 299 300
f 258 300 301
f 258 301 302
f 258 302 303
f 258 303 275
f 262 304 305
f 262 305 306
f 262 306 307
f 262 307 308
f 262 308 263
f 263 308 374
f 263 374 309
f 264 309 310
f 264 310 265
f 265 310 267
f 265 267 266
f 267 310 373
f 267 373 311
f 268 313 312
f 269 314 380
f 269 380 315
f 269 315 316
f 269 316 317
f 269 317 318
f 269 318 319
f 269 319 320
f 269 320 321
f 269 321 322
f 269 322 323
f 269 323 324
f 269 324 325
f 269 325 326
f 269 326 327
f 269 327 328
f 269 328 329
f 270 330 271
f 271 330 332
f 271 332 331
f 275 303 278
f 275 278 276
f 276 278 277
f 278 303 279
f 279 303 333
f 279 333 280
f 280 333 334
f 280 334 335
f 280 335 281
f 281 335 336
f 281 336 283
f 283 337 338
f 283 338 284
f 283 336 337
f 284 338 285
f 285 339 340
f 285 340 286
f 285 338 337
f 285 337 341
f 285 341 342
f 285 342 339
f 286 340 287
f 287 296 293
f 287 293 288
f 287 340 296
f 288 293 292
f 288 292 343
f 288 343 344
f 288 344 345
f 288 345 346
f 288 346 289
f 289 346 347
f 289 347 348
f 290 349 350
f 290 350 351
f 290 351 291
f 290 352 349
f 291 353 354
f 291 354 292
f 291 351 353
f 292 354 343
f 293 296 294
f 294 296 295
f 296 355 356
f 296 356 357
f 296 357 358
f 296 358 297
f 296 340 339
f 296 339 359
f 296 359 355
f 297 358 360
f 297 360 361
f 297 361 298
f 298 361 362
f 298 362 363
f 298 363 299
f 299 363 358
f 299 358 356
f 299 356 300
f 300 356 301
f 301 356 302
f 302 356 364
f 302 364 365
f 302 365 303
f 303 365 366
f 303 366 367
f 303 367 334
f 303 334 333
f 304 368 369
f 304 369 370
f 304 370 371
f 304 371 372
f 304 372 373
f 304 373 310
f 304 310 374
f 304 374 308
f 304 308 307
f 304 307 306
f 304 306 305
f 309 374 310
f 311 373 375
f 312 313 377
f 312 377 376
f 313 378 377
f 314 379 380
f 331 332 382
f 332 383 382
f 334 367 384
f 334 384 336
f 334 336 335
f 336 341 337
f 336 384 341
f 339 342 356
f 339 356 359
f 341 384 385
f 341 385 342
f 342 385 386
f 342 386 364
f 342 364 356
f 343 354 387
f 343 387 388
f 343 388 389
f 343 389 344
f 344 389 390
f 344 390 345
f 345 390 346
f 346 390 347
f 347 390 348
f 349 377 391
f 349 391 350
f 349 352 392
f 349 392 377
f 350 391 351
f 351 391 353
f 353 393 354
f 353 391 393
f 354 393 408
f 354 408 387
f 355 359 356
f 356 358 357
f 358 363 362
f 358 362 360
f 360 362 361
f 364 386 365
f 365 386 384
f 365 384 366
f 366 384 367
f 368 381 394
f 368 394 395
f 368 395 396
f 368 396 397
f 368 397 369
f 369 397 370
f 370 397 371
f 371 397 372
f 372 397 373
f 373 397 375
f 376 377 392
f 377 378 398
f 377 398 399
f 377 399 391
f 379 400 380
f 380 400 401
f 380 401 402
f 380 402 403
f 380 403 404
f 380 404 405
f 380 405 406
f 380 406 407
f 380 407 382
f 380 382 383
f 384 386 385
f 387 408 388
f 388 408 389
f 389 408 390
f 391 399 393
f 393 399 409
f 393 409 408
f 398 409 399

