# https://github.com/mikedh/trimesh
v -0.08983323 0.04047305 -0.00119916
v -0.08982901 0.03667516 -0.00119916
v -0.08983323 0.04790512 0.00055508
v -0.08983323 0.05563187 -0.00119916
v -0.08982690 0.03478713 -0.00119916
v -0.08983112 0.04601709 0.00055508
v -0.08980157 0.06686183 0.00245049
v -0.08983323 0.06307486 0.00055508
v -0.08982901 0.06901179 0.00055508
v -0.08983112 0.05753081 -0.00119916
v -0.08981845 0.02910121 -0.00119916
v -0.08982478 0.04411815 0.00055508
v -0.08981212 0.02531423 -0.00119916
v -0.08980790 0.02341529 -0.00119916
v -0.08979101 0.06496289 0.00245049
v -0.08923575 0.06496289 0.00434504
v -0.08920830 0.06686183 0.00434504
v -0.08976990 0.06876078 0.00245049
v -0.08975934 0.06901179 0.00245049
v -0.08956299 0.06901179 -0.00119916
v -0.08975723 0.06321673 -0.00119916
v -0.08981423 0.06131779 -0.00119916
v -0.08982690 0.05941884 -0.00119916
v -0.08981212 0.04221920 0.00055508
v -0.08980157 0.02151634 -0.00119916
v -0.08979101 0.01962831 -0.00119916
v -0.08976145 0.06307486 0.00245049
v -0.08978890 0.04033117 0.00055508
v -0.08841448 0.06496289 0.00557507
v -0.08969178 0.05927697 0.00245049
v -0.08955032 0.05170301 0.00245049
v -0.08951232 0.04980407 0.00245049
v -0.08946588 0.04790512 0.00245049
v -0.08941309 0.04601709 0.00245049
v -0.08935187 0.04411815 0.00245049
v -0.08927586 0.04221920 0.00245049
v -0.08918508 0.04033117 0.00245049
v -0.08837014 0.06686183 0.00554408
v -0.08900352 0.06901179 0.00434504
v -0.06826692 0.06901179 -0.00119916
v -0.08977201 0.01772937 -0.00119916
v -0.08975723 0.03843223 0.00055508
v -0.08972345 0.03654420 0.00055508
v -0.08974456 0.01583042 -0.00119916
v -0.08834059 0.06307486 0.00549760
v -0.08715618 0.06496289 0.00629209
v -0.08715618 0.06686183 0.00629123
v -0.08911330 0.01568855 0.00055508
v -0.08849470 0.04411815 0.00376402
v -0.08843348 0.04221920 0.00369344
v -0.08836592 0.04033117 0.00362113
v -0.08965378 0.03274631 0.00055508
v -0.08961789 0.03085828 0.00055508
v -0.08957777 0.02895933 0.00055508
v -0.08953132 0.02706039 0.00055508
v -0.08948066 0.02517236 0.00055508
v -0.08942576 0.02327341 0.00055508
v -0.08936454 0.02137447 0.00055508
v -0.08929486 0.01948644 0.00055508
v -0.08921253 0.01758749 0.00055508
v -0.08715618 0.06901179 0.00615093
v -0.08807879 0.06901179 0.00549588
v -0.08820969 0.06901179 0.00539603
v -0.08890851 0.06901179 0.00447501
v -0.06826692 -0.04248027 -0.00119916
v -0.06826692 0.06901179 0.00399729
v -0.08970867 0.01394239 -0.00119916
v -0.08825825 0.06117591 0.00542013
v -0.08828569 0.03843223 0.00354624
v -0.08526029 0.06117591 0.00660971
v -0.08526029 0.06307486 0.00673883
v -0.08526029 0.06496289 0.00682232
v -0.08526029 0.06686183 0.00684901
v -0.08816746 0.05927697 0.00534353
v -0.08811468 0.05822927 0.00530049
v -0.08715618 0.06307486 0.00614834
v -0.08618923 0.04699931 0.00528930
v -0.08526029 0.06901179 0.00683696
v -0.08690495 0.06901179 0.00624733
v -0.08913230 -0.00492701 -0.00119916
v -0.08903307 -0.00681504 -0.00119916
v -0.08892540 -0.00869215 -0.00119916
v -0.08862772 0.00243959 0.00013416
v -0.08857071 0.00054065 0.00005411
v -0.08850949 -0.00135830 -0.00002336
v -0.08843981 0.01948644 0.00179803
v -0.08837014 0.01758749 0.00172744
v -0.08829414 0.01568855 0.00165858
v -0.08821180 0.01380052 0.00158800
v -0.08966644 0.01205436 -0.00119916
v -0.08957777 0.00826738 -0.00119916
v -0.08952921 0.00637935 -0.00119916
v -0.08947643 0.00449132 -0.00119916
v -0.08941943 0.00261420 -0.00119916
v -0.08935820 0.00072617 -0.00119916
v -0.08929275 -0.00116186 -0.00119916
v -0.08921675 -0.00304989 -0.00119916
v -0.06826692 -0.04115974 -0.00108812
v -0.06901853 -0.03255992 -0.00039779
v -0.07010159 -0.03357488 -0.00053379
v -0.07010159 -0.03926079 -0.00101410
v -0.07010159 -0.04144349 -0.00119916
v -0.07003403 0.06901179 0.00701341
v -0.06826692 0.06900087 0.00701772
v -0.08819491 0.03654420 0.00346878
v -0.08814635 0.01243633 0.00153549
v -0.08526029 0.05927697 0.00645392
v -0.08460791 0.04455469 0.00533578
v -0.08336440 0.06117591 0.00681802
v -0.08622723 0.02411375 0.00340594
v -0.08336440 0.06307486 0.00692475
v -0.08336440 0.06496289 0.00696005
v -0.08336440 0.06686183 0.00695058
v -0.08715618 0.05927697 0.00584019
v -0.08813158 0.03532189 0.00341971
v -0.08806824 0.01118128 0.00148213
v -0.08630957 0.04826527 0.00533922
v -0.08336440 0.06901179 0.00688688
v -0.07730937 0.06631616 0.00721139
v -0.06826692 0.06496289 0.00759443
v -0.08876495 -0.01118043 -0.00119916
v -0.08843981 -0.00324633 -0.00009910
v -0.08868050 -0.01247913 -0.00119916
v -0.08836592 -0.00514528 -0.00017227
v -0.08828569 -0.00704422 -0.00024285
v -0.08820336 -0.00893225 -0.00031171
v -0.08814213 -0.01030735 -0.00036164
v -0.06826692 -0.03353122 -0.00044685
v -0.07957472 0.02137447 0.00365126
v -0.07903847 0.01829687 0.00341713
v -0.07578716 0.01380052 0.00318558
v -0.08147062 0.04411815 0.00547522
v -0.08336440 0.05359105 0.00618536
v -0.08284714 0.04292858 0.00531340
v -0.07199537 -0.02788896 -0.00014472
v -0.07389127 -0.03926079 -0.00119830
v -0.08336440 0.01568855 0.00298761
v -0.07389127 -0.03357488 -0.00071713
v -0.07578716 -0.03357488 -0.00080924
v -0.07578716 -0.03818036 -0.00119916
v -0.07010159 0.06901179 0.00701341
v -0.06826692 0.06802957 0.00724410
v -0.08807246 -0.01157331 -0.00040984
v -0.08411178 0.04328872 0.00528241
v -0.08586199 0.02284779 0.00335171
v -0.08459736 0.02192014 0.00343176
v -0.08336440 0.05927697 0.00666050
v -0.08147062 0.06117591 0.00689721
v -0.07535647 0.06186346 0.00720881
v -0.07661899 0.06223452 0.00718298
v -0.08797957 -0.01271923 -0.00046149
v -0.08668115 0.00622656 0.00170506
v -0.08686483 -0.01461817 -0.00012320
v -0.08668537 -0.01651712 -0.00020326
v -0.08621035 0.00146829 0.00150451
v -0.08147062 0.06307486 0.00700739
v -0.07721014 0.06350048 0.00720881
v -0.07846844 0.06496289 0.00718040
v -0.07752260 0.06496289 0.00722172
v -0.08147062 0.06901179 0.00691615
v -0.06826692 0.06686183 0.00743089
v -0.07389127 0.06786587 0.00719934
v -0.07578716 0.06496289 0.00729402
v -0.07199537 0.06496289 0.00744724
v -0.07010159 0.06496289 0.00752299
v -0.06826692 0.06307486 0.00757635
v -0.08856227 -0.01407250 -0.00119916
v -0.06826692 -0.03181781 -0.00030397
v -0.07957472 0.01568855 0.00317095
v -0.08343406 0.04226286 0.00522904
v -0.08336440 0.03843223 0.00490884
v -0.07578716 0.05359105 0.00650212
v -0.07768094 0.05927697 0.00689721
v -0.07969507 0.04206641 0.00537882
v -0.08336440 0.04790512 0.00570763
v -0.08343406 0.04399810 0.00537537
v -0.08147062 -0.03357488 -0.00108554
v -0.08336440 -0.03357488 -0.00117764
v -0.08336440 -0.03382589 -0.00119916
v -0.08392598 0.02065418 0.00337840
v -0.08374020 -0.00196945 0.00147524
v -0.07566048 0.06901179 0.00700395
v -0.07010159 0.06799683 0.00723205
v -0.08840181 -0.01580774 -0.00119916
v -0.08821391 -0.01754298 -0.00119916
v -0.08799434 -0.01928914 -0.00119916
v -0.08452558 -0.00070349 0.00152861
v -0.08444957 -0.02333803 -0.00037541
v -0.08526029 0.00622656 0.00202441
v -0.08484437 -0.02220304 -0.00032721
v -0.07957472 0.06117591 0.00697640
v -0.06826692 0.06300937 0.00757205
v -0.06826692 0.06112134 0.00744208
v -0.06826692 0.06117591 0.00744638
v -0.07010159 0.06307486 0.00749975
v -0.07199537 0.06307486 0.00741797
v -0.08729341 -0.02429842 -0.00119916
v -0.08715618 -0.02525881 -0.00119916
v -0.08781277 -0.01461817 -0.00054756
v -0.08648903 -0.01840515 -0.00028331
v -0.08632858 -0.01990029 -0.00034614
v -0.08614701 -0.02116626 -0.00039951
v -0.07199537 0.06794227 0.00721742
v -0.06826692 0.04221920 0.00586687
v -0.07010159 0.05865490 0.00716060
v -0.08526029 -0.03190512 -0.00119916
v -0.08526029 -0.03167593 -0.00117937
v -0.08579232 -0.02220304 -0.00044341
v -0.06832393 0.05912418 0.00727337
v -0.06826692 0.05917874 0.00728025
v -0.08616601 -0.02879478 -0.00119916
v -0.08574376 -0.03026809 -0.00119916
f 1 2 3
f 1 3 8
f 1 8 4
f 1 4 10
f 1 10 23
f 1 23 22
f 1 22 21
f 1 21 20
f 1 20 40
f 1 40 65
f 1 65 102
f 1 102 140
f 1 140 179
f 1 179 206
f 1 206 212
f 1 212 211
f 1 211 198
f 1 198 197
f 1 197 186
f 1 186 185
f 1 185 184
f 1 184 167
f 1 167 123
f 1 123 121
f 1 121 82
f 1 82 81
f 1 81 80
f 1 80 97
f 1 97 96
f 1 96 95
f 1 95 94
f 1 94 93
f 1 93 92
f 1 92 91
f 1 91 90
f 1 90 67
f 1 67 44
f 1 44 41
f 1 41 26
f 1 26 25
f 1 25 14
f 1 14 13
f 1 13 11
f 1 11 5
f 1 5 2
f 2 5 6
f 2 6 3
f 3 6 7
f 3 7 8
f 4 8 9
f 4 9 10
f 5 11 6
f 6 12 7
f 6 11 13
f 6 13 14
f 6 14 25
f 6 25 12
f 7 15 16
f 7 16 17
f 7 17 18
f 7 18 9
f 7 9 8
f 7 12 15
f 9 18 19
f 9 19 39
f 9 39 64
f 9 64 63
f 9 63 62
f 9 62 61
f 9 61 79
f 9 79 78
f 9 78 118
f 9 118 160
f 9 160 182
f 9 182 141
f 9 141 103
f 9 103 66
f 9 66 40
f 9 40 20
f 9 20 21
f 9 21 22
f 9 22 23
f 9 23 10
f 12 24 15
f 12 25 26
f 12 26 24
f 15 27 16
f 15 24 28
f 15 28 27
f 16 29 17
f 16 27 30
f 16 30 31
f 16 31 32
f 16 32 33
f 16 33 34
f 16 34 35
f 16 35 36
f 16 36 37
f 16 37 29
f 17 29 38
f 17 38 39
f 17 39 19
f 17 19 18
f 24 26 41
f 24 41 28
f 27 28 42
f 27 42 43
f 27 43 52
f 27 52 30
f 28 41 44
f 28 44 42
f 29 45 46
f 29 46 47
f 29 47 38
f 29 37 48
f 29 48 49
f 29 49 50
f 29 50 51
f 29 51 45
f 30 52 31
f 31 52 53
f 31 53 32
f 32 53 54
f 32 54 55
f 32 55 33
f 33 55 56
f 33 56 34
f 34 56 57
f 34 57 58
f 34 58 35
f 35 58 59
f 35 59 36
f 36 59 60
f 36 60 37
f 37 60 48
f 38 47 61
f 38 61 62
f 38 62 63
f 38 63 64
f 38 64 39
f 40 66 104
f 40 104 142
f 40 142 161
f 40 161 120
f 40 120 166
f 40 166 192
f 40 192 194
f 40 194 193
f 40 193 210
f 40 210 204
f 40 204 168
f 40 168 128
f 40 128 98
f 40 98 65
f 42 44 43
f 43 44 52
f 44 67 53
f 44 53 52
f 45 68 46
f 45 51 69
f 45 69 68
f 46 70 71
f 46 71 72
f 46 72 73
f 46 73 47
f 46 68 74
f 46 74 75
f 46 75 76
f 46 76 77
f 46 77 70
f 47 73 78
f 47 78 79
f 47 79 61
f 48 60 80
f 48 80 81
f 48 81 82
f 48 82 50
f 48 50 49
f 50 82 83
f 50 83 84
f 50 84 85
f 50 85 86
f 50 86 51
f 51 86 87
f 51 87 88
f 51 88 89
f 51 89 69
f 53 67 54
f 54 67 90
f 54 90 91
f 54 91 55
f 55 91 92
f 55 92 56
f 56 92 93
f 56 93 57
f 57 93 94
f 57 94 58
f 58 94 95
f 58 95 96
f 58 96 59
f 59 96 97
f 59 97 60
f 60 97 80
f 65 98 99
f 65 99 100
f 65 100 101
f 65 101 102
f 66 103 104
f 68 69 74
f 69 105 74
f 69 89 106
f 69 106 105
f 70 107 108
f 70 108 109
f 70 109 71
f 70 77 110
f 70 110 107
f 71 109 111
f 71 111 72
f 72 112 73
f 72 111 112
f 73 112 113
f 73 113 78
f 74 105 75
f 75 114 76
f 75 105 115
f 75 115 116
f 75 116 114
f 76 114 117
f 76 117 77
f 77 117 110
f 78 113 119
f 78 119 120
f 78 120 118
f 82 121 85
f 82 85 84
f 82 84 83
f 85 122 88
f 85 88 87
f 85 87 86
f 85 121 123
f 85 123 122
f 88 122 124
f 88 124 125
f 88 125 126
f 88 126 127
f 88 127 89
f 89 127 106
f 98 128 99
f 99 129 130
f 99 130 100
f 99 128 131
f 99 131 132
f 99 132 133
f 99 133 134
f 99 134 129
f 100 135 101
f 100 130 129
f 100 129 135
f 101 136 102
f 101 135 137
f 101 137 138
f 101 138 139
f 101 139 136
f 102 136 140
f 103 141 104
f 104 141 142
f 105 106 115
f 106 127 143
f 106 143 116
f 106 116 115
f 107 110 108
f 108 144 109
f 108 110 145
f 108 145 146
f 108 146 144
f 109 147 148
f 109 148 149
f 109 149 150
f 109 150 111
f 109 144 147
f 110 116 151
f 110 151 152
f 110 152 153
f 110 153 154
f 110 154 155
f 110 155 145
f 110 117 114
f 110 114 116
f 111 150 156
f 111 156 157
f 111 157 158
f 111 158 112
f 112 158 113
f 113 158 159
f 113 159 119
f 116 143 151
f 118 120 161
f 118 161 162
f 118 162 160
f 119 159 163
f 119 163 164
f 119 164 165
f 119 165 120
f 120 165 166
f 122 123 124
f 123 167 126
f 123 126 125
f 123 125 124
f 126 167 127
f 127 167 143
f 128 168 131
f 129 169 135
f 129 134 170
f 129 170 171
f 129 171 137
f 129 137 169
f 131 168 172
f 131 172 173
f 131 173 174
f 131 174 147
f 131 147 132
f 132 147 133
f 133 147 144
f 133 144 175
f 133 175 134
f 134 175 176
f 134 176 170
f 135 169 137
f 136 139 177
f 136 177 178
f 136 178 179
f 136 179 140
f 137 180 181
f 137 181 178
f 137 178 177
f 137 177 139
f 137 139 138
f 137 171 170
f 137 170 144
f 137 144 180
f 141 182 142
f 142 183 161
f 142 182 183
f 143 167 184
f 143 184 185
f 143 185 186
f 143 186 151
f 144 170 176
f 144 176 175
f 144 146 187
f 144 187 188
f 144 188 180
f 145 155 146
f 146 155 189
f 146 189 190
f 146 190 187
f 147 174 173
f 147 173 191
f 147 191 148
f 148 191 149
f 149 192 150
f 149 191 193
f 149 193 194
f 149 194 192
f 150 192 166
f 150 166 195
f 150 195 196
f 150 196 156
f 151 186 197
f 151 197 198
f 151 198 199
f 151 199 154
f 151 154 153
f 151 153 152
f 154 199 198
f 154 198 200
f 154 200 155
f 155 200 201
f 155 201 202
f 155 202 189
f 156 196 157
f 157 196 195
f 157 195 159
f 157 159 158
f 159 195 166
f 159 166 163
f 160 162 203
f 160 203 182
f 161 183 203
f 161 203 162
f 163 166 164
f 164 166 165
f 168 204 205
f 168 205 172
f 172 205 173
f 173 205 193
f 173 193 191
f 178 188 179
f 178 181 188
f 179 188 206
f 180 188 181
f 182 203 183
f 187 190 188
f 188 190 207
f 188 207 206
f 189 202 208
f 189 208 190
f 190 208 207
f 193 205 209
f 193 209 210
f 198 211 202
f 198 202 201
f 198 201 200
f 202 211 212
f 202 212 206
f 202 206 207
f 202 207 208
f 204 210 209
f 204 209 205

