# https://github.com/mikedh/trimesh
v 0.05378627 -0.07786933 -0.01641419
v 0.05307555 -0.07906079 -0.01610445
v 0.05118606 -0.07786933 -0.01641191
v 0.08150457 -0.07786933 -0.01641419
v 0.05876135 -0.08036334 -0.01567173
v 0.05496503 -0.08036013 -0.01567173
v 0.05118606 -0.07906079 -0.01610217
v 0.04927923 -0.07786933 -0.01640963
v 0.08150457 -0.07906079 -0.01610445
v 0.08339406 -0.07786933 -0.01624793
v 0.05687186 -0.08131007 -0.01535517
v 0.08150457 -0.08036334 -0.01567173
v 0.04810047 -0.07786933 -0.01640735
v 0.05307555 -0.08035368 -0.01566946
v 0.05118606 -0.08034241 -0.01566718
v 0.04927923 -0.07906079 -0.01609534
v 0.03981445 -0.07786933 -0.01638230
v 0.04241466 -0.07786933 -0.01639141
v 0.08273533 -0.08024419 -0.01563074
v 0.08405277 -0.07786933 -0.01606573
v 0.08337672 -0.07909782 -0.01586759
v 0.06444715 -0.08285092 -0.01473114
v 0.06255766 -0.08285092 -0.01472887
v 0.06065084 -0.08285092 -0.01472431
v 0.05876135 -0.08285092 -0.01471976
v 0.05496503 -0.08130685 -0.01535061
v 0.08150457 -0.08131007 -0.01535517
v 0.05118606 -0.08129075 -0.01534378
v 0.04550025 -0.07906079 -0.01608168
v 0.03790762 -0.07786933 -0.01637547
v 0.08400077 -0.07975473 -0.01544854
v 0.08337672 -0.08090916 -0.01518891
v 0.08150457 -0.08285092 -0.01465599
v 0.08481550 -0.07786933 -0.01581977
v 0.08462483 -0.07849243 -0.01571045
v 0.06633664 -0.08285092 -0.01473114
v 0.06444715 -0.08432415 -0.01398186
v 0.06255766 -0.08431770 -0.01397958
v 0.05496503 -0.08285092 -0.01470609
v 0.07961507 -0.08285092 -0.01468104
v 0.07581875 -0.08285092 -0.01469926
v 0.07392927 -0.08285092 -0.01470609
v 0.06824346 -0.08285092 -0.01472659
v 0.03981445 -0.08027479 -0.01564440
v 0.03412864 -0.08118771 -0.01530506
v -0.05114108 -0.07971448 -0.01545765
v -0.04545528 -0.07975151 -0.01546904
v -0.02650838 -0.07987227 -0.01550776
v -0.01891575 -0.07991896 -0.01552370
v -0.00565465 -0.08000108 -0.01555103
v 0.03222182 -0.07906079 -0.01602702
v -0.02839786 -0.07891266 -0.01581749
v -0.06251269 -0.07868885 -0.01573778
v -0.06440218 -0.07867598 -0.01573323
v -0.07766327 -0.07858259 -0.01570134
v -0.05786697 -0.07786933 -0.01591542
v 0.08542222 -0.08105729 -0.01423921
v 0.08486751 -0.08236467 -0.01392037
v 0.08344606 -0.08293947 -0.01420733
v 0.08150457 -0.08419051 -0.01390670
v 0.07961507 -0.08424525 -0.01392948
v 0.08283934 -0.08402950 -0.01381105
v 0.08571692 -0.07786933 -0.01522307
v 0.08641030 -0.08049215 -0.01383838
v 0.08613295 -0.08175607 -0.01357419
v 0.06633664 -0.08432737 -0.01397958
v 0.06824346 -0.08432737 -0.01397731
v 0.07013295 -0.08527087 -0.01338744
v 0.06824346 -0.08527409 -0.01338289
v 0.06633664 -0.08527409 -0.01337833
v 0.06444715 -0.08527087 -0.01337378
v 0.06255766 -0.08526443 -0.01336922
v 0.06065084 -0.08430965 -0.01397503
v 0.03222182 -0.08117643 -0.01530051
v 0.05876135 -0.08430161 -0.01397047
v 0.05307555 -0.08427745 -0.01395453
v 0.04738974 -0.08285092 -0.01466737
v -0.05114108 -0.08095586 -0.01497939
v -0.02460155 -0.08095586 -0.01511376
v -0.01322994 -0.08095586 -0.01517069
v 0.07770825 -0.08426296 -0.01394086
v 0.07581875 -0.08427906 -0.01394997
v 0.07392927 -0.08429516 -0.01395681
v 0.07202244 -0.08431126 -0.01396364
v 0.07013295 -0.08432254 -0.01397047
v -0.05871638 -0.07966296 -0.01544171
v -0.02650838 -0.07892393 -0.01582205
v -0.00754414 -0.07904147 -0.01586532
v 0.00190331 -0.07906079 -0.01589948
v 0.02653601 -0.08114262 -0.01528684
v 0.02464652 -0.08113135 -0.01528229
v -0.03219418 -0.07888851 -0.01580838
v -0.07577378 -0.07954220 -0.01540299
v -0.07766327 -0.07952932 -0.01539844
v -0.07957010 -0.07949390 -0.01539388
v -0.07957010 -0.07854556 -0.01568312
v -0.07957010 -0.07786933 -0.01578333
v -0.07766327 -0.07786933 -0.01580610
v -0.07388430 -0.07786933 -0.01582888
v -0.06630901 -0.07786933 -0.01587215
v -0.06251269 -0.07786933 -0.01589265
v -0.05975646 -0.07786933 -0.01590631
v 0.08410478 -0.08362859 -0.01355142
v 0.08150457 -0.08513884 -0.01329634
v 0.07961507 -0.08519359 -0.01334645
v 0.07770825 -0.08521130 -0.01336467
v 0.08344606 -0.08469607 -0.01311415
v 0.08339406 -0.08620150 -0.01211206
v 0.08150457 -0.08749923 -0.01168162
v 0.08150457 -0.08655089 -0.01234892
v 0.08616762 -0.07786933 -0.01485185
v 0.08651431 -0.07906079 -0.01404791
v 0.08703435 -0.07906079 -0.01271104
v 0.08670499 -0.08105729 -0.01284996
v 0.08653164 -0.08252890 -0.01231020
v 0.08623695 -0.08379282 -0.01174767
v 0.08445148 -0.08582635 -0.01186382
v 0.07202244 -0.08525961 -0.01338516
v 0.07392927 -0.08659436 -0.01243319
v 0.07202244 -0.08659436 -0.01243774
v 0.07013295 -0.08659436 -0.01244002
v 0.07770825 -0.08659436 -0.01241497
v 0.06444715 -0.08659275 -0.01242635
v 0.06255766 -0.08659114 -0.01241952
v 0.06065084 -0.08658470 -0.01241497
v 0.05496503 -0.08656538 -0.01240130
v 0.04359343 -0.08518393 -0.01331912
v 0.05307555 -0.08655894 -0.01239675
v 0.04359343 -0.08652674 -0.01237170
v 0.02464652 -0.08646233 -0.01232159
v 0.01327492 -0.08642208 -0.01229198
v 0.00758911 -0.08640276 -0.01227604
v -0.01134045 -0.08633675 -0.01222366
v -0.02460155 -0.08629006 -0.01218722
v -0.03219418 -0.08626268 -0.01216672
v -0.05114108 -0.08619184 -0.01211206
v 0.02275704 -0.08509215 -0.01326446
v 0.01327492 -0.08504868 -0.01323941
v 0.04359343 -0.08423559 -0.01392720
v 0.03412864 -0.08285092 -0.01459905
v -0.06819849 -0.08095586 -0.01489057
v -0.06062320 -0.07965007 -0.01543716
v -0.00945096 -0.08095586 -0.01518891
v 0.07581875 -0.08522740 -0.01337378
v 0.07392927 -0.08524350 -0.01338061
v 0.00190331 -0.08099449 -0.01522763
v -0.00754414 -0.08095586 -0.01519802
v -0.07766327 -0.08095586 -0.01484046
v -0.08145959 -0.08095586 -0.01481996
v -0.08334908 -0.08095586 -0.01480402
v -0.08145959 -0.07938763 -0.01538933
v -0.08145959 -0.07843929 -0.01563985
v -0.08048884 -0.07786933 -0.01575600
v 0.07961507 -0.08659275 -0.01239902
v 0.08290868 -0.08797903 -0.01041764
v 0.08150457 -0.08827689 -0.01073420
v 0.07961507 -0.08938463 -0.00971846
v 0.07770825 -0.08944259 -0.00981866
v 0.07961507 -0.08753948 -0.01172262
v 0.08656632 -0.07786933 -0.01425515
v 0.08673966 -0.07786933 -0.01375867
v 0.08710370 -0.07786933 -0.01271104
v 0.08717303 -0.08095586 -0.01081391
v 0.08668766 -0.08303769 -0.01099611
v 0.08637563 -0.08401340 -0.01048368
v 0.08590759 -0.08522579 -0.00891907
v 0.08486751 -0.08670868 -0.00878697
v 0.08438213 -0.08761677 -0.00806730
v 0.08417411 -0.08738652 -0.00933129
v 0.08467682 -0.08611456 -0.01081391
v 0.07770825 -0.08754270 -0.01172262
v 0.07202244 -0.08754270 -0.01172262
v 0.06633664 -0.08754109 -0.01172262
v 0.06444715 -0.08753948 -0.01172262
v 0.06255766 -0.08753787 -0.01172034
v 0.06065084 -0.08753304 -0.01171579
v 0.05496503 -0.08751372 -0.01170212
v -0.06062320 -0.08615481 -0.01208474
v -0.07957010 -0.08608075 -0.01203008
v 0.03601813 -0.08744931 -0.01164974
v 0.01518174 -0.08737686 -0.01159053
v 0.00001382 -0.08732373 -0.01154725
v -0.02650838 -0.08723035 -0.01146982
v -0.03028735 -0.08721746 -0.01145843
v -0.04545528 -0.08716111 -0.01141289
v 0.00190331 -0.08499555 -0.01320752
v 0.01518174 -0.08411000 -0.01384521
v 0.02464652 -0.08415187 -0.01387254
v -0.08334908 -0.08606465 -0.01201869
v 0.02275704 -0.08285092 -0.01453984
v 0.01327492 -0.08285092 -0.01448973
v 0.00381013 -0.08285092 -0.01443963
v -0.00754414 -0.08285092 -0.01437814
v -0.01322994 -0.08285092 -0.01434625
v -0.08145959 -0.08265932 -0.01403652
v -0.08334908 -0.08264805 -0.01402968
v 0.00001382 -0.08285092 -0.01441913
v -0.08353976 -0.07897062 -0.01541210
v -0.08525590 -0.08095586 -0.01459677
v -0.08525590 -0.07906079 -0.01524813
v -0.08145959 -0.07786933 -0.01572412
v -0.08301971 -0.07827829 -0.01558975
v -0.08324507 -0.07786933 -0.01564668
v -0.08255167 -0.07786933 -0.01568084
v 0.08348073 -0.08815775 -0.00878697
v 0.08230197 -0.08938141 -0.00747516
v 0.08067249 -0.09148418 -0.00443475
v 0.08103653 -0.08976784 -0.00844080
v 0.07961507 -0.08998036 -0.00877103
v 0.07678950 -0.09327942 -0.00419562
v 0.07581875 -0.09118954 -0.00766646
v 0.07392927 -0.09129419 -0.00783500
v 0.07770825 -0.08849426 -0.01077520
v 0.07202244 -0.09133605 -0.00790104
v 0.07202244 -0.09038933 -0.00888035
v 0.07581875 -0.08944259 -0.00982550
v 0.08734638 -0.07786933 -0.01081391
v 0.08720770 -0.08095586 -0.00891907
v 0.08705169 -0.08285092 -0.00702422
v 0.08698235 -0.08285092 -0.00891907
v 0.08736372 -0.07786933 -0.01011246
v 0.08651431 -0.08427906 -0.00891907
v 0.08613295 -0.08551561 -0.00702422
v 0.08535288 -0.08663944 -0.00702422
v 0.08452081 -0.08776167 -0.00702422
v 0.07581875 -0.08849587 -0.01077520
v 0.07013295 -0.08849587 -0.01077520
v 0.06444715 -0.08849426 -0.01077520
v 0.06255766 -0.08849426 -0.01077292
v 0.06065084 -0.08849426 -0.01076836
v 0.05876135 -0.08849265 -0.01076381
v 0.05687186 -0.08848782 -0.01075925
v 0.04927923 -0.08846850 -0.01073876
v 0.04359343 -0.08845400 -0.01072281
v 0.03033233 -0.08841859 -0.01068638
v 0.02086755 -0.08839283 -0.01065905
v 0.01518174 -0.08837672 -0.01064310
v 0.00190331 -0.08833969 -0.01060439
v -0.00376516 -0.08832198 -0.01058844
v -0.01322994 -0.08829300 -0.01056111
v -0.03028735 -0.08823826 -0.01051101
v -0.04925159 -0.08714662 -0.01140150
v -0.05682689 -0.08711764 -0.01137872
v -0.06440218 -0.08708704 -0.01135595
v -0.06630901 -0.08708060 -0.01134912
v -0.08145959 -0.08701943 -0.01130129
v -0.03787998 -0.08821411 -0.01048824
v -0.04545528 -0.08818995 -0.01046546
v -0.05682689 -0.08815292 -0.01043130
v -0.08145959 -0.08807403 -0.01035387
v -0.00376516 -0.08731085 -0.01153587
v -0.01891575 -0.08489573 -0.01315059
v -0.03219418 -0.08483132 -0.01311415
v 0.00949594 -0.08408263 -0.01382927
v -0.08334908 -0.08701137 -0.01129446
v -0.08478786 -0.08593906 -0.01193215
v -0.08334908 -0.08474599 -0.01286135
v -0.07957010 -0.08474599 -0.01288412
v -0.04165896 -0.08478624 -0.01308682
v -0.03219418 -0.08388460 -0.01370856
v -0.04734477 -0.08381053 -0.01366529
v -0.02839786 -0.08285092 -0.01425743
v -0.07766327 -0.08363020 -0.01357192
v -0.08334908 -0.08359478 -0.01355370
v -0.06630901 -0.08275109 -0.01408207
v -0.05682689 -0.08375579 -0.01363568
v -0.08525590 -0.08243069 -0.01391809
v -0.08525590 -0.07794339 -0.01551687
v -0.08428515 -0.07810601 -0.01555103
v -0.08634799 -0.08211350 -0.01376095
v -0.08672935 -0.08095586 -0.01402968
v -0.08645200 -0.07786933 -0.01518891
v -0.08532525 -0.07786933 -0.01552370
v -0.08449317 -0.07786933 -0.01558291
v 0.08075916 -0.09153409 -0.00323681
v 0.07961507 -0.09224414 -0.00323681
v 0.07786426 -0.09303630 -0.00323681
v 0.07959774 -0.09180942 -0.00509066
v 0.08469416 -0.08793717 -0.00512938
v 0.07691085 -0.09331807 -0.00323681
v 0.07581875 -0.09353060 -0.00134196
v 0.07392927 -0.09372219 -0.00134196
v 0.07202244 -0.09391218 -0.00134196
v 0.07013295 -0.09409251 -0.00134196
v 0.06824346 -0.09422293 -0.00134196
v 0.07013295 -0.09370288 -0.00323681
v 0.06824346 -0.09375600 -0.00323681
v 0.07581875 -0.09328748 -0.00420928
v 0.07392927 -0.08944259 -0.00982777
v 0.03412864 -0.09123623 -0.00779400
v 0.02275704 -0.09025891 -0.00877787
v 0.05307555 -0.09033941 -0.00886213
v 0.05496503 -0.09034424 -0.00886669
v 0.05876135 -0.09035390 -0.00887580
v 0.06065084 -0.09035873 -0.00887807
v 0.06255766 -0.09036518 -0.00887807
v 0.06633664 -0.09037483 -0.00888035
v 0.07392927 -0.09329230 -0.00421611
v 0.03601813 -0.09280123 -0.00516581
v 0.01896072 -0.09280284 -0.00516809
v 0.01707123 -0.09280284 -0.00516809
v -0.07577378 -0.09329230 -0.00421156
v -0.04165896 -0.09173536 -0.00661883
v 0.05876135 -0.08944098 -0.00982322
v 0.06065084 -0.08944259 -0.00982550
v 0.06444715 -0.08944259 -0.00982777
v 0.08738105 -0.07786933 -0.00891907
v 0.08713836 -0.08095586 -0.00702422
v 0.08665298 -0.08285092 -0.00534573
v 0.08651431 -0.08440143 -0.00558714
v 0.08661832 -0.08456888 -0.00702422
v 0.08561290 -0.08663944 -0.00512938
v 0.05496503 -0.08943133 -0.00981411
v 0.05307555 -0.08942650 -0.00980955
v 0.04738974 -0.08941200 -0.00979361
v 0.03412864 -0.08937659 -0.00975717
v 0.00381013 -0.08929286 -0.00967291
v 0.00001382 -0.08928159 -0.00966152
v -0.00376516 -0.08927032 -0.00965013
v -0.01513677 -0.08923489 -0.00961597
v -0.06062320 -0.08908838 -0.00947249
v -0.07766327 -0.08903364 -0.00941783
v -0.07766327 -0.08997875 -0.00847041
v -0.07957010 -0.08997232 -0.00846358
v -0.08145959 -0.08996587 -0.00845674
v -0.08334908 -0.08806115 -0.01034703
v -0.04356579 -0.08914312 -0.00952715
v -0.08487453 -0.08789692 -0.01018306
v -0.08605330 -0.08560577 -0.01169757
v -0.08535991 -0.08488284 -0.01244002
v -0.08525590 -0.08337902 -0.01343071
v -0.04545528 -0.08285092 -0.01415722
v -0.08525590 -0.07786933 -0.01553053
v -0.08662535 -0.08434347 -0.01216217
v -0.08711072 -0.08280101 -0.01269965
v -0.08768277 -0.08095586 -0.01330318
v -0.08802947 -0.07989159 -0.01360380
v -0.08730141 -0.07918154 -0.01437358
v -0.08716273 -0.07786933 -0.01489967
v 0.08166058 -0.09081761 -0.00134196
v 0.08070716 -0.09147935 -0.00134196
v 0.08287401 -0.08986927 -0.00134196
v 0.07795094 -0.09299444 -0.00134196
v 0.07961507 -0.09214915 -0.00134196
v 0.07699752 -0.09335349 -0.00134196
v 0.08467682 -0.08796132 -0.00323681
v 0.07581875 -0.09353060 0.00055289
v 0.07392927 -0.09371897 0.00055289
v 0.07202244 -0.09390092 0.00055289
v 0.07013295 -0.09407963 0.00055289
v 0.06824346 -0.09424065 0.00055289
v 0.06633664 -0.09431310 0.00055289
v 0.06633664 -0.09426640 -0.00134196
v 0.06633664 -0.09376567 -0.00323681
v 0.03033233 -0.09122657 -0.00778262
v 0.00381013 -0.09020739 -0.00872548
v 0.02464652 -0.09329391 -0.00422295
v 0.00758911 -0.09329391 -0.00422295
v -0.05493739 -0.09329391 -0.00421384
v -0.06819849 -0.09329230 -0.00421384
v 0.06255766 -0.09376567 -0.00323681
v 0.04927923 -0.09376084 -0.00323681
v 0.04550025 -0.09375923 -0.00323681
v 0.04359343 -0.09375762 -0.00323681
v 0.03790762 -0.09375278 -0.00323681
v 0.02844284 -0.09374312 -0.00323681
v 0.01138543 -0.09372541 -0.00323681
v -0.01322994 -0.09369966 -0.00323681
v -0.02082257 -0.09369160 -0.00323681
v -0.04356579 -0.09366745 -0.00323681
v -0.05871638 -0.09365136 -0.00323681
v -0.06440218 -0.09364492 -0.00323681
v -0.06630901 -0.09364169 -0.00323681
v -0.06819849 -0.09363203 -0.00323681
v -0.07690055 -0.09328586 -0.00420245
v -0.07957010 -0.09091904 -0.00736812
v -0.07766327 -0.09092548 -0.00738178
v -0.07388430 -0.09093675 -0.00740683
v -0.07199481 -0.09094319 -0.00741822
v -0.06819849 -0.09095608 -0.00744100
v -0.06440218 -0.09096734 -0.00746377
v -0.05871638 -0.09168544 -0.00654823
v -0.05493739 -0.09169832 -0.00656645
v -0.04925159 -0.09171442 -0.00659150
v -0.04734477 -0.09172086 -0.00659834
v -0.04356579 -0.09173052 -0.00661200
v -0.03976947 -0.09103819 -0.00757081
v -0.03219418 -0.09105912 -0.00759359
v 0.08732904 -0.07786933 -0.00821761
v 0.08719037 -0.07906079 -0.00702422
v 0.08720770 -0.07786933 -0.00702422
v 0.08665298 -0.08095586 -0.00529107
v 0.08616762 -0.07906079 -0.00427761
v 0.08550890 -0.08474599 -0.00323681
v 0.08528354 -0.08663944 -0.00323681
v 0.08452081 -0.08782125 -0.00193638
v 0.00001382 -0.09019772 -0.00871410
v 0.01707123 -0.08932989 -0.00970935
v -0.01513677 -0.09015748 -0.00866855
v -0.02839786 -0.09012205 -0.00862755
v -0.04356579 -0.09007858 -0.00857973
v -0.06630901 -0.09001417 -0.00850685
v -0.07199481 -0.08999647 -0.00848863
v -0.04545528 -0.09102209 -0.00755259
v -0.04925159 -0.09101082 -0.00753893
v -0.08145959 -0.09091421 -0.00732257
v -0.08334908 -0.08989342 -0.00840892
v -0.08334908 -0.08900949 -0.00935634
v -0.05303057 -0.09099954 -0.00752298
v -0.05493739 -0.09099471 -0.00751387
v -0.05682689 -0.09098989 -0.00750477
v -0.05871638 -0.09098345 -0.00749566
v -0.06251269 -0.09097217 -0.00747516
v -0.08613997 -0.08754592 -0.00980955
v -0.08459718 -0.08970987 -0.00823355
v -0.08683337 -0.08628361 -0.01043358
v -0.08808147 -0.08568144 -0.00984144
v -0.08789079 -0.08348851 -0.01151082
v -0.08828948 -0.08222621 -0.01197314
v -0.08858417 -0.08095586 -0.01235575
v -0.08835883 -0.07862929 -0.01387254
v -0.08846283 -0.07786933 -0.01401602
v 0.08062049 -0.09141172 -0.00018729
v 0.08277001 -0.08975978 0.00000402
v 0.07791627 -0.09291071 0.00055289
v 0.07696285 -0.09335349 0.00055289
v 0.07973641 -0.09186577 0.00048684
v 0.07687618 -0.09332612 0.00172578
v 0.07013295 -0.09398786 0.00245001
v 0.06824346 -0.09418589 0.00245001
v 0.06633664 -0.09428573 0.00245001
v 0.06444715 -0.09429217 0.00245001
v 0.06255766 -0.09429377 0.00245001
v 0.04170394 -0.09431470 0.00055289
v 0.06444715 -0.09426640 -0.00134196
v -0.06251269 -0.09431632 0.00055289
v 0.05876135 -0.09426480 -0.00134196
v 0.04550025 -0.09425996 -0.00134196
v 0.04359343 -0.09425835 -0.00134196
v 0.03790762 -0.09425352 -0.00134196
v 0.02844284 -0.09424387 -0.00134196
v -0.01322994 -0.09420039 -0.00134196
v -0.03787998 -0.09417463 -0.00134196
v -0.06251269 -0.09414887 -0.00134196
v -0.06440218 -0.09412310 -0.00134196
v -0.07008798 -0.09393473 -0.00134196
v -0.07577378 -0.09345492 -0.00323681
v -0.07759394 -0.09334866 -0.00321175
v -0.07816598 -0.09323273 -0.00382895
v -0.08260368 -0.09146486 -0.00624988
v -0.08145959 -0.09154859 -0.00637515
v -0.06630901 -0.09407158 -0.00134196
v -0.06819849 -0.09401362 -0.00134196
v -0.06062320 -0.09097862 -0.00748427
v -0.04356579 -0.09102692 -0.00755942
v -0.04165896 -0.09103175 -0.00756626
v 0.08699968 -0.07786933 -0.00635693
v 0.08663566 -0.07906079 -0.00522275
v 0.08407011 -0.08663944 -0.00082270
v 0.08464215 -0.08663944 -0.00177012
v 0.08646231 -0.07786933 -0.00490391
v 0.08611561 -0.07786933 -0.00430949
v 0.08304736 -0.08853451 0.00034108
v -0.08655602 -0.08795810 -0.00854556
v -0.08478786 -0.08993206 -0.00702422
v -0.08820281 -0.08589236 -0.00857973
v -0.08844550 -0.08492954 -0.00909443
v -0.08924290 -0.08095586 -0.01081391
v -0.08887887 -0.07918154 -0.01286818
v -0.08922556 -0.07786933 -0.01276570
v 0.08044715 -0.09122657 0.00107442
v 0.08221529 -0.08853451 0.00128851
v 0.08091519 -0.08996426 0.00173716
v 0.07616545 -0.09302503 0.00298977
v 0.07490001 -0.09327942 0.00340654
v 0.07564542 -0.09337925 0.00239307
v 0.07392927 -0.09356601 0.00245001
v 0.07202244 -0.09377855 0.00245001
v 0.07918171 -0.09173375 0.00189659
v 0.06824346 -0.09370610 0.00404195
v 0.07392927 -0.09334544 0.00354091
v 0.07202244 -0.09347103 0.00378232
v 0.07013295 -0.09359178 0.00395085
v 0.06633664 -0.09376567 0.00409206
v 0.06444715 -0.09377211 0.00411483
v 0.04170394 -0.09382847 0.00434486
v 0.03981445 -0.09383651 0.00434486
v 0.03790762 -0.09383812 0.00434486
v 0.02275704 -0.09383973 0.00434486
v -0.01891575 -0.09429539 0.00245001
v -0.06251269 -0.09429539 0.00245001
v -0.06440218 -0.09429055 0.00245001
v -0.06440218 -0.09428733 0.00055289
v -0.07199481 -0.09383812 -0.00134196
v -0.06630901 -0.09421166 0.00055289
v -0.07388430 -0.09373185 -0.00134196
v -0.07766327 -0.09348068 -0.00134196
v -0.07872069 -0.09329713 -0.00256496
v -0.07577378 -0.09361753 -0.00134196
v -0.07944876 -0.09305723 -0.00321175
v -0.08277703 -0.09157757 -0.00512938
v -0.08373045 -0.09102370 -0.00512938
v 0.08663566 -0.07786933 -0.00525463
v 0.08311669 -0.08663944 0.00040713
v 0.08301269 -0.08474599 0.00025909
v 0.08231929 -0.08663944 0.00135455
v 0.08573424 -0.07786933 -0.00395421
v 0.08205927 -0.08474599 0.00120652
v -0.08574128 -0.08904813 -0.00702422
v -0.08596662 -0.08922202 -0.00512938
v -0.08666002 -0.08810140 -0.00702422
v -0.08761343 -0.08694214 -0.00702422
v -0.08503056 -0.09007697 -0.00512938
v -0.08827216 -0.08599702 -0.00702422
v -0.08872286 -0.08474599 -0.00702422
v -0.08905221 -0.08285092 -0.00891907
v -0.08962427 -0.07906079 -0.01081391
v -0.08971094 -0.07786933 -0.01081391
v 0.08136589 -0.08663944 0.00222226
v 0.08126187 -0.08853451 0.00202412
v 0.07989243 -0.08853451 0.00297155
v 0.07867900 -0.08951183 0.00340654
v 0.07831496 -0.09077414 0.00316058
v 0.07704952 -0.09176112 0.00358191
v 0.07564542 -0.09236650 0.00387342
v 0.07354790 -0.09171603 0.00552686
v 0.07202244 -0.09288495 0.00472975
v 0.07013295 -0.09295097 0.00489828
v 0.06633664 -0.09300249 0.00503948
v 0.04678302 -0.09328104 0.00529911
v 0.04550025 -0.09329391 0.00531505
v 0.04359343 -0.09331323 0.00533555
v 0.04170394 -0.09332772 0.00535377
v 0.06824346 -0.09297673 0.00498938
v 0.03981445 -0.09333738 0.00536288
v 0.03790762 -0.09333900 0.00536743
v -0.06440218 -0.09383973 0.00434486
v -0.06630901 -0.09382847 0.00434486
v -0.06630901 -0.09425030 0.00245001
v -0.06819849 -0.09411344 0.00055289
v -0.07008798 -0.09401040 0.00055289
v -0.07199481 -0.09389770 0.00055289
v -0.07766327 -0.09353864 0.00055289
v -0.07889404 -0.09333738 -0.00134196
v -0.07983012 -0.09309587 -0.00134196
v -0.07577378 -0.09366101 0.00055289
v -0.07388430 -0.09378177 0.00055289
v -0.08145959 -0.09233913 -0.00323681
v -0.08282904 -0.09163231 -0.00323681
v -0.08378245 -0.09102853 -0.00323681
v 0.08511019 -0.07786933 -0.00363308
v 0.07963241 -0.08478785 0.00287362
v 0.08259666 -0.08173996 -0.00029433
v 0.08112320 -0.08474599 0.00196947
v 0.08441680 -0.07991735 -0.00222561
v -0.08506522 -0.09008180 -0.00323681
v -0.08600130 -0.08917371 -0.00323681
v -0.08825482 -0.08592135 -0.00512938
v -0.08868819 -0.08474599 -0.00512938
v -0.08912156 -0.08285092 -0.00702422
v -0.08938157 -0.08095586 -0.00891907
v -0.08929491 -0.08095586 -0.00702422
v -0.08952025 -0.07906079 -0.00891907
v -0.08957226 -0.07786933 -0.00891907
v 0.08013512 -0.08663944 0.00316969
v 0.07893901 -0.08853451 0.00355230
v 0.07479601 -0.09110420 0.00525584
v 0.07769091 -0.09025730 0.00375727
v 0.07406795 -0.09045534 0.00559974
v 0.07202244 -0.09043119 0.00604839
v 0.07202244 -0.09193661 0.00566806
v 0.07013295 -0.09200263 0.00569767
v 0.06824346 -0.09202839 0.00571589
v 0.06633664 -0.09205576 0.00573183
v 0.04170394 -0.09232625 0.00597096
v 0.03981445 -0.09232625 0.00599374
v 0.03601813 -0.09232625 0.00602107
v 0.03412864 -0.09232625 0.00603017
v 0.03222182 -0.09232625 0.00603473
v -0.07008798 -0.09333900 0.00536743
v -0.07199481 -0.09333578 0.00536743
v -0.06819849 -0.09377533 0.00434486
v -0.07310424 -0.09331323 0.00534238
v -0.07199481 -0.09360788 0.00434486
v -0.06819849 -0.09414887 0.00245001
v -0.07885937 -0.09334866 0.00169162
v -0.07898072 -0.09337603 0.00055289
v -0.07008798 -0.09401202 0.00245001
v -0.07388430 -0.09372703 0.00245001
v -0.07577378 -0.09357729 0.00245001
v -0.07993413 -0.09307011 0.00055289
v -0.08145959 -0.09234718 -0.00134196
v -0.08270770 -0.09157757 -0.00134196
v -0.08366110 -0.09089006 -0.00134196
v 0.08434746 -0.07786933 -0.00333246
v 0.07684151 -0.08376384 0.00342704
v 0.07810695 -0.08418568 0.00316285
v 0.07900836 -0.08544798 0.00353180
v -0.08477053 -0.08994172 -0.00134196
v -0.08816814 -0.08579254 -0.00403619
v -0.08452785 -0.08972114 0.00055289
v -0.08437183 -0.08956496 0.00159824
v -0.08896554 -0.08285092 -0.00512938
v -0.08834149 -0.08474599 -0.00378340
v -0.08936424 -0.07906079 -0.00702422
v -0.08946825 -0.07786933 -0.00772796
v 0.07919904 -0.08663944 0.00364568
v 0.07770825 -0.08853451 0.00418088
v 0.07496936 -0.08984190 0.00533100
v 0.07392927 -0.08853451 0.00570450
v 0.07202244 -0.08853451 0.00605523
v 0.06824346 -0.08853451 0.00627842
v 0.06633664 -0.08853451 0.00638546
v 0.07013295 -0.09043119 0.00613722
v 0.06824346 -0.09043119 0.00621009
v 0.06255766 -0.09043119 0.00642190
v 0.06065084 -0.09043119 0.00647883
v 0.05876135 -0.09043119 0.00651527
v 0.05687186 -0.09043119 0.00654488
v 0.05307555 -0.09043119 0.00660182
v 0.05118606 -0.09043119 0.00662231
v 0.03601813 -0.09043119 0.00672480
v 0.04170394 -0.09043119 0.00668836
v 0.03790762 -0.09043119 0.00671341
v 0.03412864 -0.09043119 0.00673391
v 0.03222182 -0.09043119 0.00673847
v -0.07199481 -0.09232625 0.00603473
v -0.07379762 -0.09239548 0.00579104
v -0.07540976 -0.09181103 0.00562706
v -0.07435234 -0.09307494 0.00495294
v -0.07683120 -0.09330841 0.00344981
v -0.07379762 -0.09344848 0.00433119
v -0.07754193 -0.09340983 0.00237258
v -0.07809664 -0.09295097 0.00295333
v -0.08109556 -0.09184806 0.00199224
v -0.08236100 -0.09134088 0.00134772
v -0.08163293 -0.09203644 0.00065082
v -0.07577378 -0.09337442 0.00365706
v -0.08255167 -0.09148257 0.00008373
v -0.08324507 -0.09078862 0.00065082
v 0.08339406 -0.07786933 -0.00307738
v 0.07581875 -0.08366079 0.00353180
v 0.07356524 -0.08553815 0.00541754
v 0.07483068 -0.08579254 0.00528317
v 0.07756957 -0.08478785 0.00372539
v 0.07770825 -0.08663944 0.00425831
v -0.08253435 -0.08792912 0.00349309
v -0.08447584 -0.08853451 0.00170072
v -0.08615731 -0.08663944 -0.00053802
v -0.08028082 -0.09117183 0.00325623
v -0.08225698 -0.08919304 0.00331089
v -0.08894821 -0.08095586 -0.00512938
v -0.08939891 -0.07786933 -0.00702422
v -0.08844550 -0.08285092 -0.00364903
v -0.08780412 -0.08474599 -0.00283597
v 0.07597477 -0.08853451 0.00497343
v 0.07502136 -0.08853451 0.00535149
v 0.07496936 -0.08705323 0.00533100
v 0.07408529 -0.08650903 0.00553369
v 0.07202244 -0.08663944 0.00587303
v 0.06444715 -0.08853451 0.00647200
v 0.06255766 -0.08853451 0.00654260
v 0.06065084 -0.08853451 0.00659726
v 0.05876135 -0.08853451 0.00663142
v 0.05687186 -0.08853451 0.00665875
v 0.05496503 -0.08853451 0.00668381
v 0.05307555 -0.08853451 0.00670430
v 0.05118606 -0.08853451 0.00672252
v 0.03222182 -0.08853451 0.00682956
v 0.04550025 -0.08853451 0.00675668
v 0.03981445 -0.08853451 0.00678857
v 0.02844284 -0.08853451 0.00684323
v 0.02653601 -0.08853451 0.00684778
v 0.02464652 -0.08853451 0.00685006
v 0.02086755 -0.08853451 0.00685234
v -0.07008798 -0.09043119 0.00673847
v -0.07199481 -0.09043119 0.00673619
v -0.07388430 -0.09043119 0.00659271
v -0.07592980 -0.09058736 0.00590947
v -0.07667520 -0.09132317 0.00526267
v -0.07901538 -0.09168705 0.00362746
v -0.07754193 -0.09232142 0.00392808
v 0.08235396 -0.07786933 -0.00291341
v 0.07392927 -0.08356096 0.00363429
v 0.07789893 -0.07786933 -0.00225750
v 0.07202244 -0.08544637 0.00549042
v 0.07569741 -0.08650903 0.00501898
v -0.08253435 -0.08705162 0.00349309
v -0.08156360 -0.08855061 0.00386887
v -0.07885937 -0.08800319 0.00539704
v -0.07984746 -0.08663944 0.00503037
v -0.08617465 -0.08474599 -0.00042642
v -0.08686804 -0.08474599 -0.00137384
v -0.08445850 -0.08663944 0.00165973
v -0.08099155 -0.08990791 0.00364340
v -0.07722991 -0.09005926 0.00554508
v -0.07849535 -0.08926710 0.00523079
v -0.07951809 -0.08859569 0.00491194
v -0.08889620 -0.07906079 -0.00512938
v -0.08875752 -0.07786933 -0.00502917
v -0.08780412 -0.08285092 -0.00270160
v -0.08839350 -0.08095586 -0.00374923
v 0.06824346 -0.08663944 0.00602562
v 0.06633664 -0.08663944 0.00609394
v 0.06444715 -0.08663944 0.00614405
v 0.06255766 -0.08663944 0.00617821
v 0.05876135 -0.08663944 0.00623287
v 0.05687186 -0.08663944 0.00625792
v 0.05496503 -0.08663944 0.00628070
v 0.05118606 -0.08663944 0.00632397
v 0.03601813 -0.08663944 0.00649250
v 0.03412864 -0.08663944 0.00651300
v 0.03222182 -0.08663944 0.00653349
v 0.03033233 -0.08663944 0.00654944
v 0.02844284 -0.08663944 0.00656082
v 0.02653601 -0.08663944 0.00657221
v 0.02275704 -0.08663944 0.00658815
v -0.00185834 -0.08663944 0.00667697
v -0.00376516 -0.08663944 0.00668381
v -0.00565465 -0.08663944 0.00668608
v -0.06819849 -0.08853451 0.00685234
v -0.07199481 -0.08853451 0.00677035
v -0.07008798 -0.08853451 0.00683867
v -0.07388430 -0.08853451 0.00660637
v -0.07577378 -0.08853451 0.00626703
v -0.07778462 -0.08859569 0.00565212
v 0.07581875 -0.07786933 -0.00209352
v 0.07392927 -0.08071112 0.00080341
v 0.07013295 -0.08350622 0.00368895
v 0.06824346 -0.08444168 0.00466370
v 0.07202244 -0.08449964 0.00460904
v 0.06824346 -0.08539002 0.00553141
v 0.05876135 -0.08430322 0.00479807
v 0.05687186 -0.08427906 0.00482540
v 0.05496503 -0.08425491 0.00485273
v 0.05307555 -0.08423398 0.00488006
v -0.08163293 -0.08650742 0.00400324
v -0.08237834 -0.08578932 0.00337693
v -0.08324507 -0.08650742 0.00275519
v -0.07889404 -0.08663944 0.00539704
v -0.07875537 -0.08563314 0.00532644
v -0.08605330 -0.08285092 -0.00054029
v -0.08685071 -0.08285092 -0.00148772
v -0.08773478 -0.08095586 -0.00280181
v -0.08435450 -0.08547857 0.00154358
v -0.08830682 -0.07906079 -0.00388816
v -0.08822015 -0.07786933 -0.00401797
v 0.06444715 -0.08533367 0.00557013
v 0.06065084 -0.08527731 0.00560657
v 0.05876135 -0.08525155 0.00562251
v 0.05687186 -0.08522579 0.00563617
v 0.05496503 -0.08520325 0.00564984
v 0.04927923 -0.08513563 0.00568172
v 0.04738974 -0.08511469 0.00569083
v 0.04550025 -0.08510182 0.00570222
v 0.04359343 -0.08509215 0.00571361
v 0.03981445 -0.08507283 0.00573411
v 0.03412864 -0.08505029 0.00576599
v 0.03222182 -0.08504546 0.00577510
v 0.03033233 -0.08504385 0.00578421
v 0.02844284 -0.08504224 0.00579104
v -0.00376516 -0.08504224 0.00590492
v -0.00565465 -0.08504224 0.00590719
v -0.06819849 -0.08663944 0.00668608
v -0.07199481 -0.08663944 0.00652211
v -0.07008798 -0.08663944 0.00664281
v -0.07388430 -0.08663944 0.00635130
v -0.07577378 -0.08663944 0.00609850
v -0.07766327 -0.08663944 0.00571589
v 0.07392927 -0.07786933 -0.00202064
v 0.07202244 -0.08068375 0.00083074
v 0.06444715 -0.08247577 0.00282807
v 0.05687186 -0.08331463 0.00387798
v 0.05118606 -0.08421144 0.00490511
v 0.05496503 -0.08329047 0.00390531
v -0.08477053 -0.08130363 0.00000402
v -0.08657335 -0.07947780 -0.00194321
v -0.08509989 -0.08285092 0.00031603
v -0.08421582 -0.08421466 0.00141832
v -0.08102622 -0.08474599 0.00376866
v -0.08197963 -0.08474599 0.00323801
v -0.07944876 -0.08489895 0.00459765
v -0.07766327 -0.08539324 0.00545626
v -0.07766327 -0.08444490 0.00484134
v -0.08678136 -0.08095586 -0.00167219
v -0.08723206 -0.07786933 -0.00331424
v 0.04927923 -0.08418729 0.00492561
v 0.04738974 -0.08416797 0.00494155
v 0.04550025 -0.08415347 0.00495066
v 0.03601813 -0.08505673 0.00575460
v 0.03790762 -0.08411645 0.00497571
v 0.04359343 -0.08414382 0.00495749
v 0.03601813 -0.08410839 0.00498027
v 0.03412864 -0.08410195 0.00498482
v 0.03222182 -0.08409873 0.00498710
v 0.03033233 -0.08409551 0.00498710
v -0.06630901 -0.08504224 0.00590719
v 0.02844284 -0.08409551 0.00498938
v 0.02464652 -0.08409551 0.00499393
v 0.02086755 -0.08409551 0.00499621
v -0.06819849 -0.08504224 0.00590492
v -0.07008798 -0.08504224 0.00587759
v -0.07388430 -0.08505351 0.00575232
v -0.07577378 -0.08512275 0.00564073
v -0.07199481 -0.08504224 0.00582065
v 0.07202244 -0.07786933 -0.00198876
v 0.05118606 -0.08325827 0.00395769
v 0.05307555 -0.08327115 0.00393264
v -0.08282904 -0.08285092 0.00183510
v -0.08423316 -0.08003971 -0.00041503
v -0.08594930 -0.07821388 -0.00235771
v -0.08059285 -0.08375901 0.00342476
v -0.08241300 -0.08189775 0.00150486
v -0.07957010 -0.08353198 0.00360013
v -0.07766327 -0.08323734 0.00389392
v -0.07957010 -0.08258526 0.00288728
v -0.07577378 -0.08417602 0.00498482
v -0.08570661 -0.07786933 -0.00252168
v 0.04927923 -0.08325022 0.00397818
v 0.04738974 -0.08324539 0.00399413
v 0.04550025 -0.08323895 0.00400324
v 0.04170394 -0.08322768 0.00401690
v 0.03601813 -0.08321158 0.00403284
v 0.03412864 -0.08320675 0.00403740
v 0.01138543 -0.08220367 0.00308314
v 0.00949594 -0.08220045 0.00308770
v -0.07199481 -0.08409551 0.00499621
v 0.00381013 -0.08220045 0.00309453
v -0.01513677 -0.08125372 0.00215394
v -0.01702626 -0.08125211 0.00215394
v 0.00758911 -0.08314717 0.00404879
v -0.07388430 -0.08410517 0.00499621
v 0.07013295 -0.07786933 -0.00197054
v -0.07766327 -0.08228900 0.00305809
v -0.07957010 -0.08044546 0.00112453
v -0.08145959 -0.07861640 -0.00081131
v -0.07957010 -0.08139219 0.00193986
v -0.07577378 -0.08314717 0.00403740
v -0.07766327 -0.08125855 0.00211067
v -0.08145959 -0.07956313 -0.00003014
v -0.08478786 -0.07786933 -0.00228255
v 0.06815679 -0.07786933 -0.00195460
v 0.01138543 -0.08131973 0.00213572
v 0.02086755 -0.08222138 0.00305354
v 0.06052949 -0.07786933 -0.00190677
v 0.05687186 -0.07786933 -0.00188400
v 0.01518174 -0.08221011 0.00307176
v -0.01513677 -0.08030699 0.00119057
v -0.04165896 -0.07841031 -0.00070427
v -0.01891575 -0.08030538 0.00119513
v -0.07388430 -0.08314717 0.00404879
v -0.02460155 -0.08030538 0.00120196
v -0.05303057 -0.07841031 -0.00069061
v -0.06819849 -0.07786933 -0.00122809
v -0.07577378 -0.08220045 0.00310136
v -0.07957010 -0.07843446 -0.00069288
v -0.07957010 -0.07938280 0.00017710
v -0.08145959 -0.07786933 -0.00146494
v -0.08336641 -0.07786933 -0.00191816
v -0.07766327 -0.08031182 0.00120424
v -0.07957010 -0.07786933 -0.00124175
v -0.02650838 -0.07844252 -0.00074982
v -0.00565465 -0.08032470 0.00116097
v -0.02333611 -0.07786933 -0.00139206
v -0.03976947 -0.07841353 -0.00070883
v -0.04165896 -0.07786933 -0.00128502
v -0.04545528 -0.07786933 -0.00127136
v -0.05114108 -0.07786933 -0.00125542
v -0.05303057 -0.07786933 -0.00125086
v -0.05493739 -0.07786933 -0.00124631
v -0.05871638 -0.07786933 -0.00123947
v -0.07766327 -0.07786933 -0.00122809
v -0.07577378 -0.08125211 0.00215394
v -0.06440218 -0.07786933 -0.00123264
v -0.07766327 -0.07935704 0.00025682
v -0.03859071 -0.07786933 -0.00130097
v -0.03976947 -0.07786933 -0.00129413
v -0.03028735 -0.07843285 -0.00073843
v -0.03597316 -0.07842158 -0.00072021
f 1 2 3
f 1 3 8
f 1 8 13
f 1 13 18
f 1 18 17
f 1 17 30
f 1 30 56
f 1 56 102
f 1 102 101
f 1 101 100
f 1 100 99
f 1 99 98
f 1 98 97
f 1 97 153
f 1 153 201
f 1 201 204
f 1 204 203
f 1 203 274
f 1 274 333
f 1 333 273
f 1 273 272
f 1 272 339
f 1 339 422
f 1 422 470
f 1 470 518
f 1 518 564
f 1 564 606
f 1 606 653
f 1 653 700
f 1 700 747
f 1 747 786
f 1 786 818
f 1 818 841
f 1 841 859
f 1 859 858
f 1 858 861
f 1 861 872
f 1 872 854
f 1 854 874
f 1 874 871
f 1 871 870
f 1 870 869
f 1 869 868
f 1 868 867
f 1 867 866
f 1 866 877
f 1 877 876
f 1 876 864
f 1 864 846
f 1 846 845
f 1 845 842
f 1 842 833
f 1 833 806
f 1 806 770
f 1 770 727
f 1 727 685
f 1 685 683
f 1 683 641
f 1 641 595
f 1 595 551
f 1 551 507
f 1 507 462
f 1 462 461
f 1 461 503
f 1 503 457
f 1 457 391
f 1 391 389
f 1 389 307
f 1 307 221
f 1 221 217
f 1 217 162
f 1 162 161
f 1 161 160
f 1 160 111
f 1 111 63
f 1 63 34
f 1 34 20
f 1 20 10
f 1 10 4
f 1 4 9
f 1 9 2
f 2 5 6
f 2 6 7
f 2 7 8
f 2 8 3
f 2 9 12
f 2 12 5
f 4 10 9
f 5 11 6
f 5 12 27
f 5 27 11
f 6 11 7
f 7 13 8
f 7 11 14
f 7 14 15
f 7 15 16
f 7 16 30
f 7 30 17
f 7 17 18
f 7 18 13
f 9 10 19
f 9 19 12
f 10 20 21
f 10 21 19
f 11 22 23
f 11 23 24
f 11 24 25
f 11 25 26
f 11 26 14
f 11 27 36
f 11 36 22
f 12 19 27
f 14 26 15
f 15 26 28
f 15 28 29
f 15 29 16
f 16 29 30
f 19 21 31
f 19 31 32
f 19 32 33
f 19 33 27
f 20 34 35
f 20 35 21
f 21 35 31
f 22 36 37
f 22 37 23
f 23 37 24
f 24 37 25
f 25 37 38
f 25 38 39
f 25 39 28
f 25 28 26
f 27 33 40
f 27 40 41
f 27 41 42
f 27 42 43
f 27 43 36
f 28 44 29
f 28 39 45
f 28 45 46
f 28 46 47
f 28 47 48
f 28 48 49
f 28 49 50
f 28 50 44
f 29 51 30
f 29 44 50
f 29 50 51
f 30 51 52
f 30 52 53
f 30 53 54
f 30 54 55
f 30 55 56
f 31 35 57
f 31 57 58
f 31 58 32
f 32 58 59
f 32 59 33
f 33 60 61
f 33 61 40
f 33 59 62
f 33 62 60
f 34 63 64
f 34 64 65
f 34 65 35
f 35 65 57
f 36 66 37
f 36 43 67
f 36 67 66
f 37 66 68
f 37 68 69
f 37 69 70
f 37 70 38
f 38 70 71
f 38 71 72
f 38 72 73
f 38 73 39
f 39 74 45
f 39 73 75
f 39 75 76
f 39 76 77
f 39 77 78
f 39 78 79
f 39 79 80
f 39 80 74
f 40 61 81
f 40 81 82
f 40 82 83
f 40 83 84
f 40 84 85
f 40 85 67
f 40 67 41
f 41 67 42
f 42 67 43
f 45 74 46
f 46 86 87
f 46 87 88
f 46 88 89
f 46 89 51
f 46 51 47
f 46 74 90
f 46 90 91
f 46 91 86
f 47 51 48
f 48 51 49
f 49 51 50
f 51 89 87
f 51 87 52
f 52 87 86
f 52 86 92
f 52 92 53
f 53 92 86
f 53 86 93
f 53 93 94
f 53 94 54
f 54 94 55
f 55 94 95
f 55 95 96
f 55 96 97
f 55 97 98
f 55 98 99
f 55 99 100
f 55 100 101
f 55 101 102
f 55 102 56
f 57 65 58
f 58 103 59
f 58 65 103
f 59 103 62
f 60 104 105
f 60 105 61
f 60 62 104
f 61 105 106
f 61 106 81
f 62 103 107
f 62 107 108
f 62 108 109
f 62 109 110
f 62 110 104
f 63 111 64
f 64 111 112
f 64 112 113
f 64 113 114
f 64 114 115
f 64 115 65
f 65 115 116
f 65 116 117
f 65 117 103
f 66 67 68
f 67 85 118
f 67 118 68
f 68 119 120
f 68 120 121
f 68 121 69
f 68 118 122
f 68 122 119
f 69 121 70
f 70 123 71
f 70 121 123
f 71 123 124
f 71 124 125
f 71 125 126
f 71 126 128
f 71 128 72
f 72 127 75
f 72 75 73
f 72 128 129
f 72 129 130
f 72 130 131
f 72 131 132
f 72 132 133
f 72 133 134
f 72 134 135
f 72 135 136
f 72 136 127
f 74 80 90
f 75 127 137
f 75 137 76
f 76 137 138
f 76 138 139
f 76 139 140
f 76 140 77
f 77 140 78
f 78 141 94
f 78 94 79
f 78 140 190
f 78 190 141
f 79 94 93
f 79 93 80
f 80 93 142
f 80 142 86
f 80 86 143
f 80 143 90
f 81 106 144
f 81 144 82
f 82 144 145
f 82 145 83
f 83 145 84
f 84 145 118
f 84 118 85
f 86 91 146
f 86 146 147
f 86 147 143
f 86 142 93
f 87 89 88
f 90 143 91
f 91 143 147
f 91 147 146
f 94 141 148
f 94 148 149
f 94 149 150
f 94 150 95
f 95 150 151
f 95 151 96
f 96 151 152
f 96 152 153
f 96 153 97
f 103 117 108
f 103 108 107
f 104 110 105
f 105 110 154
f 105 154 106
f 106 154 144
f 108 155 109
f 108 117 155
f 109 156 157
f 109 157 158
f 109 158 159
f 109 159 154
f 109 154 110
f 109 155 156
f 111 160 112
f 112 160 113
f 113 160 161
f 113 161 162
f 113 162 163
f 113 163 114
f 114 163 115
f 115 163 164
f 115 164 116
f 116 164 165
f 116 165 166
f 116 166 167
f 116 167 168
f 116 168 169
f 116 169 170
f 116 170 117
f 117 170 169
f 117 169 155
f 118 145 122
f 119 122 159
f 119 159 120
f 120 159 171
f 120 171 121
f 121 171 172
f 121 172 173
f 121 173 174
f 121 174 175
f 121 175 123
f 122 154 159
f 122 145 154
f 123 175 124
f 124 175 176
f 124 176 125
f 125 176 177
f 125 177 126
f 126 177 128
f 127 136 178
f 127 178 179
f 127 179 137
f 128 177 129
f 129 177 130
f 130 177 131
f 131 177 180
f 131 180 132
f 132 180 133
f 133 180 134
f 134 180 135
f 135 180 181
f 135 181 182
f 135 182 183
f 135 183 184
f 135 184 136
f 136 184 185
f 136 185 178
f 137 179 138
f 138 186 187
f 138 187 188
f 138 188 139
f 138 179 189
f 138 189 186
f 139 188 140
f 140 188 187
f 140 187 190
f 141 190 191
f 141 191 192
f 141 192 148
f 144 154 145
f 148 192 197
f 148 197 149
f 149 193 194
f 149 194 195
f 149 195 196
f 149 196 150
f 149 197 193
f 150 198 151
f 150 196 199
f 150 199 200
f 150 200 198
f 151 198 152
f 152 201 153
f 152 198 202
f 152 202 203
f 152 203 204
f 152 204 201
f 155 169 205
f 155 205 206
f 155 206 207
f 155 207 208
f 155 208 156
f 156 208 209
f 156 209 157
f 157 209 210
f 157 210 211
f 157 211 212
f 157 212 158
f 158 213 159
f 158 212 214
f 158 214 215
f 158 215 216
f 158 216 213
f 159 213 171
f 162 217 163
f 163 218 219
f 163 219 220
f 163 220 164
f 163 217 221
f 163 221 218
f 164 220 222
f 164 222 165
f 165 222 223
f 165 223 166
f 166 224 167
f 166 223 224
f 167 224 168
f 168 224 225
f 168 225 207
f 168 207 205
f 168 205 169
f 171 213 226
f 171 226 227
f 171 227 172
f 172 227 228
f 172 228 173
f 173 228 174
f 174 228 229
f 174 229 175
f 175 229 230
f 175 230 231
f 175 231 176
f 176 231 232
f 176 232 233
f 176 233 234
f 176 234 235
f 176 235 236
f 176 236 237
f 176 237 238
f 176 238 177
f 177 238 239
f 177 239 240
f 177 240 241
f 177 241 180
f 178 185 179
f 179 185 242
f 179 242 243
f 179 243 244
f 179 244 245
f 179 245 246
f 179 246 189
f 180 241 247
f 180 247 248
f 180 248 249
f 180 249 181
f 181 249 182
f 182 249 250
f 182 250 251
f 182 251 184
f 182 184 183
f 184 251 250
f 184 250 185
f 185 250 242
f 186 189 252
f 186 252 187
f 187 252 253
f 187 253 254
f 187 254 192
f 187 192 191
f 187 191 190
f 189 246 255
f 189 255 256
f 189 256 257
f 189 257 258
f 189 258 259
f 189 259 253
f 189 253 252
f 192 254 260
f 192 260 261
f 192 261 197
f 193 261 194
f 193 197 261
f 194 261 262
f 194 262 195
f 195 263 264
f 195 264 196
f 195 262 265
f 195 265 266
f 195 266 263
f 196 264 267
f 196 267 199
f 198 200 268
f 198 268 269
f 198 269 202
f 199 267 270
f 199 270 271
f 199 271 200
f 200 271 272
f 200 272 273
f 200 273 268
f 202 269 274
f 202 274 203
f 205 207 206
f 207 275 276
f 207 276 277
f 207 277 278
f 207 278 208
f 207 225 279
f 207 279 275
f 208 278 210
f 208 210 209
f 210 280 281
f 210 281 282
f 210 282 283
f 210 283 284
f 210 284 285
f 210 285 286
f 210 286 287
f 210 287 288
f 210 288 214
f 210 214 212
f 210 212 211
f 210 278 277
f 210 277 280
f 213 216 215
f 213 215 289
f 213 289 226
f 214 290 291
f 214 291 292
f 214 292 293
f 214 293 294
f 214 294 295
f 214 295 296
f 214 296 297
f 214 297 215
f 214 288 298
f 214 298 299
f 214 299 300
f 214 300 301
f 214 301 302
f 214 302 303
f 214 303 290
f 215 297 304
f 215 304 305
f 215 305 306
f 215 306 227
f 215 227 226
f 215 226 289
f 218 221 307
f 218 307 219
f 219 307 308
f 219 308 309
f 219 309 310
f 219 310 311
f 219 311 220
f 220 311 222
f 222 311 223
f 223 312 224
f 223 311 312
f 224 312 279
f 224 279 225
f 227 306 228
f 228 306 305
f 228 305 229
f 229 305 304
f 229 304 230
f 230 304 231
f 231 304 313
f 231 313 314
f 231 314 232
f 232 314 233
f 233 314 315
f 233 315 234
f 234 315 316
f 234 316 235
f 235 316 317
f 235 317 236
f 236 317 237
f 237 317 238
f 238 317 239
f 239 317 240
f 240 317 318
f 240 318 319
f 240 319 320
f 240 320 241
f 241 320 247
f 242 250 243
f 243 250 245
f 243 245 244
f 245 250 246
f 246 250 255
f 247 320 248
f 248 320 249
f 249 320 250
f 250 321 322
f 250 322 323
f 250 323 324
f 250 324 325
f 250 325 326
f 250 326 255
f 250 320 327
f 250 327 321
f 253 259 260
f 253 260 254
f 255 326 328
f 255 328 256
f 256 328 329
f 256 329 330
f 256 330 331
f 256 331 257
f 257 331 264
f 257 264 263
f 257 263 266
f 257 266 261
f 257 261 258
f 258 261 259
f 259 261 260
f 261 266 265
f 261 265 332
f 261 332 262
f 262 332 265
f 264 331 267
f 267 331 270
f 268 273 333
f 268 333 274
f 268 274 269
f 270 329 334
f 270 334 335
f 270 335 336
f 270 336 337
f 270 337 271
f 270 331 329
f 271 338 339
f 271 339 272
f 271 337 338
f 275 340 341
f 275 341 276
f 275 279 342
f 275 342 340
f 276 343 277
f 276 341 344
f 276 344 343
f 277 343 345
f 277 345 280
f 279 312 346
f 279 346 342
f 280 345 281
f 281 345 347
f 281 347 282
f 282 347 348
f 282 348 283
f 283 348 284
f 284 348 349
f 284 349 350
f 284 350 351
f 284 351 285
f 285 351 352
f 285 352 353
f 285 353 287
f 285 287 286
f 287 353 354
f 287 354 288
f 288 354 298
f 290 355 397
f 290 397 356
f 290 356 291
f 290 303 355
f 291 356 316
f 291 316 292
f 292 315 314
f 292 314 313
f 292 313 293
f 292 316 315
f 293 313 304
f 293 304 294
f 294 304 295
f 295 304 296
f 296 304 297
f 298 354 357
f 298 357 300
f 298 300 299
f 300 357 358
f 300 358 301
f 301 358 359
f 301 359 360
f 301 360 302
f 302 360 361
f 302 361 362
f 302 362 363
f 302 363 364
f 302 364 365
f 302 365 366
f 302 366 367
f 302 367 368
f 302 368 369
f 302 369 370
f 302 370 371
f 302 371 372
f 302 372 373
f 302 373 374
f 302 374 375
f 302 375 376
f 302 376 377
f 302 377 378
f 302 378 379
f 302 379 380
f 302 380 381
f 302 381 382
f 302 382 383
f 302 383 384
f 302 384 385
f 302 385 386
f 302 386 303
f 303 386 387
f 303 387 388
f 303 388 355
f 307 389 308
f 308 390 309
f 308 389 390
f 309 390 391
f 309 391 392
f 309 392 393
f 309 393 394
f 309 394 395
f 309 395 310
f 310 395 312
f 310 312 311
f 312 395 396
f 312 396 346
f 316 356 397
f 316 397 398
f 316 398 317
f 317 397 399
f 317 399 400
f 317 400 318
f 317 398 397
f 318 400 319
f 319 400 401
f 319 401 402
f 319 402 320
f 320 402 403
f 320 403 323
f 320 323 327
f 321 323 322
f 321 327 323
f 323 403 404
f 323 404 405
f 323 405 324
f 324 405 325
f 325 379 378
f 325 378 377
f 325 377 376
f 325 376 406
f 325 406 407
f 325 407 408
f 325 408 326
f 325 405 409
f 325 409 410
f 325 410 411
f 325 411 412
f 325 412 413
f 325 413 381
f 325 381 380
f 325 380 379
f 326 408 328
f 328 414 329
f 328 408 407
f 328 407 415
f 328 415 414
f 329 414 416
f 329 416 417
f 329 417 334
f 329 331 330
f 334 417 418
f 334 418 419
f 334 419 335
f 335 419 336
f 336 419 337
f 337 419 420
f 337 420 421
f 337 421 338
f 338 421 339
f 339 421 422
f 340 423 341
f 340 342 424
f 340 424 423
f 341 423 344
f 342 346 424
f 343 425 426
f 343 426 345
f 343 344 425
f 344 423 427
f 344 427 425
f 345 426 347
f 346 396 424
f 347 426 428
f 347 428 429
f 347 429 430
f 347 430 348
f 348 430 349
f 349 430 350
f 350 430 351
f 351 430 431
f 351 431 352
f 352 431 432
f 352 432 433
f 352 433 434
f 352 434 353
f 353 435 361
f 353 361 354
f 353 434 436
f 353 436 435
f 354 361 358
f 354 358 357
f 355 388 399
f 355 399 397
f 358 361 359
f 359 361 360
f 361 435 437
f 361 437 362
f 362 437 438
f 362 438 363
f 363 438 439
f 363 439 364
f 364 439 440
f 364 440 365
f 365 440 441
f 365 441 366
f 366 441 367
f 367 441 442
f 367 442 443
f 367 443 444
f 367 444 368
f 368 444 369
f 369 444 370
f 370 444 371
f 371 444 372
f 372 444 373
f 373 444 374
f 374 444 445
f 374 445 375
f 375 446 447
f 375 447 448
f 375 448 449
f 375 449 450
f 375 450 451
f 375 451 406
f 375 406 376
f 375 445 452
f 375 452 453
f 375 453 446
f 381 413 382
f 382 413 454
f 382 454 383
f 383 454 411
f 383 411 410
f 383 410 405
f 383 405 384
f 384 405 385
f 385 405 404
f 385 404 455
f 385 455 386
f 386 455 387
f 387 455 456
f 387 456 400
f 387 400 388
f 388 400 399
f 389 391 390
f 391 457 392
f 392 457 458
f 392 458 393
f 393 459 460
f 393 460 394
f 393 458 461
f 393 461 462
f 393 462 459
f 394 460 395
f 395 460 396
f 396 460 463
f 396 463 424
f 400 456 401
f 401 456 402
f 402 456 455
f 402 455 404
f 402 404 403
f 405 410 409
f 406 451 450
f 406 450 407
f 407 450 415
f 411 454 413
f 411 413 412
f 414 464 417
f 414 417 416
f 414 415 464
f 415 450 465
f 415 465 464
f 417 466 467
f 417 467 468
f 417 468 420
f 417 420 419
f 417 419 418
f 417 464 466
f 420 468 469
f 420 469 421
f 421 469 422
f 422 469 470
f 423 471 427
f 423 424 471
f 424 463 472
f 424 472 473
f 424 473 471
f 425 427 428
f 425 428 426
f 427 471 428
f 428 474 475
f 428 475 476
f 428 476 477
f 428 477 478
f 428 478 429
f 428 471 479
f 428 479 474
f 429 478 475
f 429 475 430
f 430 480 431
f 430 475 481
f 430 481 482
f 430 482 483
f 430 483 480
f 431 480 484
f 431 484 485
f 431 485 486
f 431 486 487
f 431 487 432
f 432 487 433
f 433 487 488
f 433 488 489
f 433 489 490
f 433 490 434
f 434 490 436
f 435 436 437
f 436 490 491
f 436 491 492
f 436 492 493
f 436 493 445
f 436 445 444
f 436 444 443
f 436 443 442
f 436 442 441
f 436 441 440
f 436 440 439
f 436 439 438
f 436 438 437
f 445 493 452
f 446 494 447
f 446 453 495
f 446 495 494
f 447 494 496
f 447 496 448
f 448 497 498
f 448 498 449
f 448 496 499
f 448 499 497
f 449 498 500
f 449 500 450
f 450 501 502
f 450 502 465
f 450 500 501
f 452 493 453
f 453 493 495
f 457 503 458
f 458 503 461
f 459 504 463
f 459 463 460
f 459 462 504
f 462 505 506
f 462 506 504
f 462 507 508
f 462 508 505
f 463 504 506
f 463 506 472
f 464 465 509
f 464 509 510
f 464 510 511
f 464 511 512
f 464 512 466
f 465 513 510
f 465 510 509
f 465 502 513
f 466 512 514
f 466 514 515
f 466 515 467
f 467 515 516
f 467 516 468
f 468 516 517
f 468 517 470
f 468 470 469
f 470 517 518
f 471 473 479
f 472 506 519
f 472 519 520
f 472 520 473
f 473 520 521
f 473 521 522
f 473 522 523
f 473 523 524
f 473 524 479
f 474 479 524
f 474 524 525
f 474 525 475
f 475 525 526
f 475 526 527
f 475 527 481
f 475 478 477
f 475 477 476
f 480 483 528
f 480 528 484
f 481 527 482
f 482 527 483
f 483 527 528
f 484 529 530
f 484 530 531
f 484 531 532
f 484 532 533
f 484 533 485
f 484 528 534
f 484 534 529
f 485 533 535
f 485 535 486
f 486 535 487
f 487 535 536
f 487 536 488
f 488 536 489
f 489 536 580
f 489 580 537
f 489 537 491
f 489 491 490
f 491 537 492
f 492 537 538
f 492 538 539
f 492 539 493
f 493 539 495
f 494 495 540
f 494 540 541
f 494 541 496
f 495 539 540
f 496 541 542
f 496 542 499
f 497 499 543
f 497 543 544
f 497 544 498
f 498 544 545
f 498 545 500
f 499 546 543
f 499 542 547
f 499 547 546
f 500 545 548
f 500 548 501
f 501 548 549
f 501 549 502
f 502 549 550
f 502 550 513
f 505 508 506
f 506 508 519
f 507 551 552
f 507 552 553
f 507 553 554
f 507 554 555
f 507 555 508
f 508 554 519
f 508 555 554
f 510 513 556
f 510 556 557
f 510 557 512
f 510 512 511
f 512 557 514
f 513 550 556
f 514 557 558
f 514 558 559
f 514 559 515
f 515 559 560
f 515 560 516
f 516 560 561
f 516 561 517
f 517 561 562
f 517 562 518
f 518 562 563
f 518 563 564
f 519 554 565
f 519 565 520
f 520 565 521
f 521 565 566
f 521 566 522
f 522 566 567
f 522 567 568
f 522 568 523
f 523 568 524
f 524 567 526
f 524 526 525
f 524 568 567
f 526 569 570
f 526 570 571
f 526 571 527
f 526 567 569
f 527 571 528
f 528 571 534
f 529 534 572
f 529 572 530
f 530 572 531
f 531 572 573
f 531 573 574
f 531 574 532
f 532 574 575
f 532 575 533
f 533 575 576
f 533 576 535
f 534 571 572
f 535 576 577
f 535 577 578
f 535 578 536
f 536 578 579
f 536 579 627
f 536 627 580
f 537 580 581
f 537 581 538
f 538 582 539
f 538 581 583
f 538 583 582
f 539 582 584
f 539 584 585
f 539 585 540
f 540 585 541
f 541 585 542
f 542 585 547
f 543 586 587
f 543 587 544
f 543 546 585
f 543 585 588
f 543 588 589
f 543 589 590
f 543 590 586
f 544 587 545
f 545 591 548
f 545 587 591
f 546 547 585
f 548 591 592
f 548 592 549
f 549 593 550
f 549 592 593
f 550 593 594
f 550 594 556
f 551 595 596
f 551 596 597
f 551 597 552
f 552 597 598
f 552 598 554
f 552 554 553
f 554 598 565
f 556 594 599
f 556 599 557
f 557 600 558
f 557 599 601
f 557 601 602
f 557 602 600
f 558 600 559
f 559 603 560
f 559 600 604
f 559 604 603
f 560 603 562
f 560 562 561
f 562 605 564
f 562 564 563
f 562 603 605
f 564 605 606
f 565 607 608
f 565 608 566
f 565 598 607
f 566 608 567
f 567 609 569
f 567 608 609
f 569 610 570
f 569 609 610
f 570 610 611
f 570 611 612
f 570 612 613
f 570 613 614
f 570 614 571
f 571 614 615
f 571 615 616
f 571 616 617
f 571 617 572
f 572 617 618
f 572 618 619
f 572 619 573
f 573 619 620
f 573 620 574
f 574 620 575
f 575 620 576
f 576 620 621
f 576 621 577
f 577 622 625
f 577 625 578
f 577 621 623
f 577 623 624
f 577 624 622
f 578 625 626
f 578 626 579
f 579 626 676
f 579 676 627
f 580 627 581
f 581 627 583
f 582 583 584
f 583 627 628
f 583 628 629
f 583 629 630
f 583 630 631
f 583 631 632
f 583 632 584
f 584 632 590
f 584 590 589
f 584 589 588
f 584 588 585
f 586 590 633
f 586 633 631
f 586 631 634
f 586 634 635
f 586 635 636
f 586 636 637
f 586 637 591
f 586 591 587
f 590 638 631
f 590 631 633
f 590 632 638
f 591 637 592
f 592 637 593
f 593 639 594
f 593 637 639
f 594 601 599
f 594 639 640
f 594 640 601
f 595 641 596
f 596 642 643
f 596 643 644
f 596 644 645
f 596 645 598
f 596 598 597
f 596 641 642
f 598 645 644
f 598 644 646
f 598 646 607
f 600 602 604
f 601 640 602
f 602 647 648
f 602 648 649
f 602 649 604
f 602 640 636
f 602 636 635
f 602 635 650
f 602 650 651
f 602 651 647
f 603 652 653
f 603 653 605
f 603 604 654
f 603 654 652
f 604 649 655
f 604 655 654
f 605 653 606
f 607 646 656
f 607 656 608
f 608 656 609
f 609 656 657
f 609 657 610
f 610 657 658
f 610 658 659
f 610 659 611
f 611 660 612
f 611 659 660
f 612 660 613
f 613 661 614
f 613 660 661
f 614 661 615
f 615 661 662
f 615 662 616
f 616 662 617
f 617 662 663
f 617 663 618
f 618 663 664
f 618 664 619
f 619 664 620
f 620 664 665
f 620 665 666
f 620 666 667
f 620 667 621
f 621 667 668
f 621 668 623
f 622 669 625
f 622 624 668
f 622 668 670
f 622 670 671
f 622 671 669
f 623 668 624
f 625 669 672
f 625 672 673
f 625 673 626
f 626 673 674
f 626 674 675
f 626 675 721
f 626 721 676
f 627 676 677
f 627 677 678
f 627 678 628
f 628 678 629
f 629 679 680
f 629 680 681
f 629 681 682
f 629 682 631
f 629 631 630
f 629 678 679
f 631 682 681
f 631 681 634
f 631 638 632
f 634 681 635
f 635 681 650
f 636 640 639
f 636 639 637
f 641 683 642
f 642 684 643
f 642 683 685
f 642 685 684
f 643 684 686
f 643 686 660
f 643 660 644
f 644 658 687
f 644 687 646
f 644 660 659
f 644 659 658
f 646 687 658
f 646 658 657
f 646 657 656
f 647 688 648
f 647 651 689
f 647 689 690
f 647 690 691
f 647 691 688
f 648 692 693
f 648 693 649
f 648 688 694
f 648 694 692
f 649 693 655
f 650 695 651
f 650 681 680
f 650 680 695
f 651 695 680
f 651 680 696
f 651 696 697
f 651 697 698
f 651 698 689
f 652 699 653
f 652 654 699
f 653 699 700
f 654 655 693
f 654 693 701
f 654 701 702
f 654 702 699
f 660 686 703
f 660 703 661
f 661 703 662
f 662 703 704
f 662 704 663
f 663 704 705
f 663 705 706
f 663 706 664
f 664 706 665
f 665 706 707
f 665 707 708
f 665 708 666
f 666 708 709
f 666 709 710
f 666 710 711
f 666 711 712
f 666 712 667
f 667 712 713
f 667 713 668
f 668 713 714
f 668 714 715
f 668 715 670
f 669 671 716
f 669 716 717
f 669 717 672
f 670 715 716
f 670 716 671
f 672 717 718
f 672 718 719
f 672 719 673
f 673 719 720
f 673 720 674
f 674 720 675
f 675 720 764
f 675 764 721
f 676 721 677
f 677 722 678
f 677 721 723
f 677 723 722
f 678 722 724
f 678 724 725
f 678 725 726
f 678 726 679
f 679 726 690
f 679 690 696
f 679 696 680
f 684 727 728
f 684 728 729
f 684 729 730
f 684 730 731
f 684 731 686
f 684 685 727
f 686 732 706
f 686 706 705
f 686 705 704
f 686 704 703
f 686 731 730
f 686 730 733
f 686 733 734
f 686 734 735
f 686 735 736
f 686 736 732
f 688 691 737
f 688 737 738
f 688 738 739
f 688 739 694
f 689 698 690
f 690 740 691
f 690 698 697
f 690 697 696
f 690 726 725
f 690 725 740
f 691 738 737
f 691 740 741
f 691 741 738
f 692 742 743
f 692 743 744
f 692 744 701
f 692 701 693
f 692 694 742
f 694 739 745
f 694 745 742
f 699 702 700
f 700 702 746
f 700 746 747
f 701 744 702
f 702 744 746
f 706 732 748
f 706 748 749
f 706 749 750
f 706 750 707
f 707 750 708
f 708 751 752
f 708 752 709
f 708 750 751
f 709 752 710
f 710 752 711
f 711 752 753
f 711 753 712
f 712 753 713
f 713 753 754
f 713 754 755
f 713 755 714
f 714 755 756
f 714 756 757
f 714 757 758
f 714 758 715
f 715 758 759
f 715 759 716
f 716 759 760
f 716 760 717
f 717 760 761
f 717 761 718
f 718 761 719
f 719 762 763
f 719 763 720
f 719 761 762
f 720 763 797
f 720 797 764
f 721 764 723
f 722 765 724
f 722 723 766
f 722 766 765
f 723 764 766
f 724 767 768
f 724 768 725
f 724 765 767
f 725 768 769
f 725 769 740
f 727 770 728
f 728 770 771
f 728 771 772
f 728 772 729
f 729 772 773
f 729 773 733
f 729 733 730
f 732 736 774
f 732 774 748
f 733 773 734
f 734 773 775
f 734 775 735
f 735 775 736
f 736 775 774
f 738 776 777
f 738 777 778
f 738 778 779
f 738 779 739
f 738 741 780
f 738 780 781
f 738 781 776
f 739 779 745
f 740 769 741
f 741 782 780
f 741 769 768
f 741 768 783
f 741 783 784
f 741 784 782
f 742 778 785
f 742 785 744
f 742 744 743
f 742 745 779
f 742 779 778
f 744 747 746
f 744 785 747
f 747 785 777
f 747 777 786
f 748 774 749
f 749 774 787
f 749 787 750
f 750 787 751
f 751 787 752
f 752 787 788
f 752 788 753
f 753 788 754
f 754 788 755
f 755 788 789
f 755 789 756
f 756 789 757
f 757 790 758
f 757 789 790
f 758 791 759
f 758 790 789
f 758 789 792
f 758 792 791
f 759 791 793
f 759 793 760
f 760 793 794
f 760 794 761
f 761 794 762
f 762 794 795
f 762 795 796
f 762 796 798
f 762 798 763
f 763 798 799
f 763 799 800
f 763 800 827
f 763 827 797
f 764 797 801
f 764 801 802
f 764 802 766
f 765 766 803
f 765 803 804
f 765 804 767
f 766 802 805
f 766 805 803
f 767 804 768
f 768 804 783
f 770 806 807
f 770 807 808
f 770 808 775
f 770 775 773
f 770 773 772
f 770 772 771
f 774 775 808
f 774 808 787
f 776 781 780
f 776 780 809
f 776 809 810
f 776 810 777
f 777 811 786
f 777 785 778
f 777 810 811
f 780 812 813
f 780 813 810
f 780 810 809
f 780 782 812
f 782 784 814
f 782 814 812
f 783 804 784
f 784 815 816
f 784 816 814
f 784 804 817
f 784 817 815
f 786 811 818
f 787 808 807
f 787 807 788
f 788 807 819
f 788 819 789
f 789 819 820
f 789 820 792
f 791 792 821
f 791 821 793
f 792 820 821
f 793 821 822
f 793 822 794
f 794 822 823
f 794 823 824
f 794 824 825
f 794 825 826
f 794 826 795
f 795 826 796
f 796 826 798
f 797 827 801
f 798 826 828
f 798 828 799
f 799 828 829
f 799 829 830
f 799 830 831
f 799 831 800
f 800 831 851
f 800 851 827
f 801 827 832
f 801 832 802
f 802 832 805
f 803 805 817
f 803 817 804
f 805 832 817
f 806 833 820
f 806 820 819
f 806 819 807
f 810 818 811
f 810 813 814
f 810 814 816
f 810 816 818
f 812 814 813
f 815 834 835
f 815 835 836
f 815 836 837
f 815 837 816
f 815 817 834
f 816 837 818
f 817 838 839
f 817 839 834
f 817 832 838
f 818 840 841
f 818 837 840
f 820 833 821
f 821 833 842
f 821 842 822
f 822 843 844
f 822 844 823
f 822 842 845
f 822 845 846
f 822 846 843
f 823 844 847
f 823 847 824
f 824 847 825
f 825 847 848
f 825 848 826
f 826 848 849
f 826 849 850
f 826 850 852
f 826 852 828
f 827 851 832
f 828 852 829
f 829 852 853
f 829 853 830
f 830 853 854
f 830 854 831
f 831 854 872
f 831 872 851
f 832 851 855
f 832 855 838
f 834 839 856
f 834 856 857
f 834 857 835
f 835 857 858
f 835 858 836
f 836 858 859
f 836 859 841
f 836 841 840
f 836 840 837
f 838 855 860
f 838 860 861
f 838 861 856
f 838 856 839
f 843 846 862
f 843 862 863
f 843 863 844
f 844 863 847
f 846 864 862
f 847 863 865
f 847 865 848
f 848 865 849
f 849 865 866
f 849 866 867
f 849 867 868
f 849 868 869
f 849 869 870
f 849 870 871
f 849 871 874
f 849 874 853
f 849 853 852
f 849 852 850
f 851 872 873
f 851 873 855
f 853 874 854
f 855 873 872
f 855 872 875
f 855 875 861
f 855 861 860
f 856 861 858
f 856 858 857
f 861 875 872
f 862 864 876
f 862 876 877
f 862 877 878
f 862 878 863
f 863 878 879
f 863 879 865
f 865 879 877
f 865 877 866
f 877 879 878

