# https://github.com/mikedh/trimesh
v -0.06157359 -0.02393360 -0.04522445
v -0.05964090 -0.02391921 -0.04522445
v -0.05964090 -0.02393360 -0.04329118
v -0.06157359 -0.02393360 -0.04329118
v -0.06350244 -0.02392881 -0.04522445
v -0.06157359 -0.02390002 -0.04715269
v -0.05883944 -0.02390002 -0.04522445
v -0.05883944 -0.02391442 -0.04442102
v -0.05964090 -0.02388084 -0.04715269
v -0.05883944 -0.02392881 -0.04248775
v -0.05964090 -0.02391921 -0.04136294
v -0.06350244 -0.02391442 -0.04329118
v -0.06543513 -0.02391921 -0.04522445
v -0.06543513 -0.02388084 -0.04715269
v -0.06736783 -0.02380889 -0.04908596
v -0.06350244 -0.02382807 -0.04908596
v -0.06543513 -0.02366977 -0.05339438
v -0.06157359 -0.02382807 -0.04908596
v -0.05883944 -0.02386165 -0.04715269
v -0.05964090 -0.02380889 -0.04908596
v -0.05883944 -0.02379449 -0.04908596
v -0.05883944 -0.02382328 -0.04828252
v -0.05883944 -0.02391921 -0.04136294
v -0.05883944 -0.02387125 -0.04081560
v -0.05883944 -0.02379929 -0.04008247
v -0.05964090 -0.02379449 -0.04010758
v -0.06157359 -0.02388084 -0.04136294
v -0.06543513 -0.02387125 -0.04329118
v -0.06736783 -0.02388084 -0.04522445
v -0.06736783 -0.02386645 -0.04715269
v -0.07215354 -0.02368896 -0.05196326
v -0.07509092 -0.02351627 -0.05680898
v -0.06736783 -0.02374653 -0.05101421
v -0.06543513 -0.02375612 -0.05101421
v -0.07122937 -0.02332919 -0.06260375
v -0.06929668 -0.02332440 -0.06260375
v -0.06736783 -0.02339155 -0.06067049
v -0.06350244 -0.02360262 -0.05488074
v -0.06157359 -0.02369856 -0.05219927
v -0.05962555 -0.02365538 -0.05280185
v -0.07701978 -0.02289747 -0.07418326
v -0.05883944 -0.02368896 -0.05179253
v -0.05883944 -0.02272478 -0.03918865
v -0.07122937 -0.02205322 -0.03852079
v -0.09167219 -0.02201964 -0.03852079
v -0.09246597 -0.02200525 -0.03852079
v -0.06505166 -0.02370815 -0.04034860
v -0.06633629 -0.02368416 -0.04042895
v -0.06350244 -0.02383287 -0.04136294
v -0.06736783 -0.02381848 -0.04329118
v -0.07241430 -0.02369856 -0.04408960
v -0.06929668 -0.02382328 -0.04522445
v -0.06929668 -0.02382328 -0.04715269
v -0.08088133 -0.02323325 -0.06453200
v -0.07235294 -0.02369376 -0.05067275
v -0.08860442 -0.02297902 -0.07032175
v -0.08860442 -0.02293105 -0.07225502
v -0.08474288 -0.02308455 -0.06839351
v -0.06736783 -0.02366977 -0.05331404
v -0.07509092 -0.02311333 -0.06839351
v -0.07701978 -0.02296943 -0.07225502
v -0.07509092 -0.02296463 -0.07225502
v -0.07315823 -0.02303179 -0.07032175
v -0.06350244 -0.02352107 -0.05680898
v -0.07315823 -0.02295024 -0.07225502
v -0.06929668 -0.02291666 -0.07225502
v -0.05883944 -0.02347790 -0.05680898
v -0.05883944 -0.02339635 -0.05874225
v -0.07894864 -0.02289747 -0.07418326
v -0.07701978 -0.02279194 -0.07611653
v -0.07509092 -0.02278235 -0.07611653
v -0.07509092 -0.02288308 -0.07418326
v -0.05883944 -0.02079163 -0.03860113
v -0.06817311 -0.02183736 -0.03852079
v -0.06929668 -0.02197167 -0.03852079
v -0.09392316 -0.02187573 -0.03852079
v -0.09246597 -0.02271999 -0.04136294
v -0.09053711 -0.02286389 -0.04136294
v -0.06736783 -0.02366977 -0.04071517
v -0.06559236 -0.02375612 -0.04118719
v -0.08474288 -0.02310374 -0.04136294
v -0.08281018 -0.02317569 -0.04136294
v -0.07894864 -0.02331480 -0.04136294
v -0.07007129 -0.02368416 -0.04243252
v -0.07122937 -0.02371774 -0.04373307
v -0.07122937 -0.02366498 -0.04276393
v -0.08281018 -0.02326683 -0.04329118
v -0.08474288 -0.02319008 -0.04329118
v -0.07251017 -0.02370335 -0.04522445
v -0.07122937 -0.02375132 -0.04522445
v -0.07122937 -0.02375132 -0.04715269
v -0.07244881 -0.02369856 -0.04908596
v -0.08088133 -0.02316610 -0.06646024
v -0.08474288 -0.02295024 -0.07225502
v -0.07306237 -0.02366498 -0.05119498
v -0.09053711 -0.02291186 -0.07032175
v -0.09053711 -0.02289747 -0.07225502
v -0.09053711 -0.02284950 -0.07418326
v -0.08860442 -0.02286389 -0.07418326
v -0.07509092 -0.02331960 -0.06260375
v -0.06543513 -0.02304618 -0.06839351
v -0.06157359 -0.02325724 -0.06260375
v -0.06350244 -0.02285910 -0.07225502
v -0.05883944 -0.02290227 -0.07032175
v -0.05964090 -0.02299341 -0.06839351
v -0.07315823 -0.02286389 -0.07418326
v -0.05883944 -0.02334838 -0.05986705
v -0.08667173 -0.02287349 -0.07418326
v -0.08088133 -0.02278714 -0.07611653
v -0.07894864 -0.02279194 -0.07611653
v -0.07509092 -0.02263844 -0.07804979
v -0.07315823 -0.02262885 -0.07804979
v -0.07894864 -0.02264803 -0.07804979
v -0.07315823 -0.02276316 -0.07611653
v -0.07122937 -0.02261445 -0.07804979
v -0.06543513 -0.02243217 -0.07997804
v -0.05883944 -0.01205167 -0.03852079
v -0.06553100 -0.02069569 -0.03852079
v -0.06642066 -0.02121376 -0.03852079
v -0.06696134 -0.02145840 -0.03852079
v -0.09429129 -0.02181337 -0.03852079
v -0.09396151 -0.02218753 -0.04136294
v -0.09246597 -0.02276796 -0.04329118
v -0.09053711 -0.02294544 -0.04329118
v -0.07509092 -0.02344912 -0.04136294
v -0.08474288 -0.02319008 -0.04522445
v -0.07341516 -0.02366018 -0.04908596
v -0.07894864 -0.02341554 -0.05680898
v -0.08474288 -0.02316610 -0.06260375
v -0.09053711 -0.02293105 -0.05680898
v -0.09246597 -0.02273438 -0.04715269
v -0.09246597 -0.02268161 -0.05294747
v -0.09246597 -0.02266242 -0.05488074
v -0.09246597 -0.02258088 -0.06260375
v -0.09246597 -0.02246095 -0.07225502
v -0.09246597 -0.02242258 -0.07418326
v -0.09246597 -0.02235062 -0.07611653
v -0.09343616 -0.02176061 -0.08488903
v -0.09329043 -0.02172223 -0.08617453
v -0.09053711 -0.02273917 -0.07611653
v -0.08474288 -0.02277275 -0.07611653
v -0.05964090 -0.02281593 -0.07225502
v -0.07122937 -0.02284470 -0.07418326
v -0.05883944 -0.02280633 -0.07225502
v -0.08088133 -0.02264324 -0.07804979
v -0.06543513 -0.02228826 -0.08191130
v -0.06350244 -0.02227867 -0.08191130
v -0.08281018 -0.02248494 -0.07997804
v -0.09053711 -0.02184215 -0.08770105
v -0.09053711 -0.02176061 -0.08867020
v -0.08474288 -0.02216355 -0.08383954
v -0.08281018 -0.02199565 -0.08577281
v -0.07701978 -0.02248014 -0.07997804
v -0.07122937 -0.02230266 -0.08191130
v -0.05964090 -0.02194768 -0.08577281
v -0.07122937 -0.02273917 -0.07611653
v -0.05883944 -0.02269600 -0.07418326
v -0.06736783 -0.02280154 -0.07418326
v -0.05964090 -0.02224509 -0.08191130
v -0.05883944 -0.02223550 -0.08191130
v -0.06157359 -0.02226428 -0.08191130
v -0.05883944 0.02464944 -0.03852079
v -0.09470927 -0.02161670 -0.03852079
v -0.09395383 -0.02219233 -0.04329118
v -0.09625466 -0.02084919 -0.03852079
v -0.09053711 -0.02294544 -0.04522445
v -0.09360488 -0.02190931 -0.07225502
v -0.09393083 -0.02217794 -0.04522445
v -0.09386564 -0.02212997 -0.05101421
v -0.09377744 -0.02205801 -0.05874225
v -0.09375443 -0.02203883 -0.06067049
v -0.09368157 -0.02197647 -0.06646024
v -0.09377744 -0.02096432 -0.08562719
v -0.09752395 -0.02005770 -0.03852079
v -0.09365089 -0.02034072 -0.08770105
v -0.09285328 -0.02130490 -0.08770105
v -0.09151113 -0.02176061 -0.08867020
v -0.09188693 -0.02179898 -0.08770105
v -0.09257718 -0.02185175 -0.08562719
v -0.09053711 -0.02259047 -0.07804979
v -0.08474288 -0.02262405 -0.07804979
v -0.08474288 -0.02247535 -0.07997804
v -0.06157359 -0.02211558 -0.08383954
v -0.05964090 -0.02210598 -0.08383954
v -0.05883944 -0.02210119 -0.08383954
v -0.09053711 -0.02199565 -0.08577281
v -0.09053711 -0.02079163 -0.08924766
v -0.08474288 -0.02078683 -0.08924264
v -0.08281018 -0.02078204 -0.08924264
v -0.08919497 -0.02175581 -0.08867020
v -0.08791034 -0.02175581 -0.08866016
v -0.08667173 -0.02175581 -0.08864509
v -0.08474288 -0.02183736 -0.08765586
v -0.05883944 -0.02186614 -0.08651599
v -0.05883944 -0.02194289 -0.08577281
v -0.08474288 -0.02175101 -0.08862501
v -0.08281018 -0.02174622 -0.08859487
v -0.05883944 -0.02228347 -0.08110787
v -0.05883944 -0.02246575 -0.07804979
v -0.05883944 -0.02262885 -0.07531309
v -0.05883944 0.02483173 -0.04329118
v -0.06101372 0.02460148 -0.03852079
v -0.09365856 -0.02195248 -0.06839351
v -0.09370842 -0.02199565 -0.06453200
v -0.09437949 -0.01885848 -0.08577281
v -0.09761215 -0.01984184 -0.03852079
v -0.09389632 -0.01885848 -0.08770105
v -0.09345533 -0.01989941 -0.08869530
v -0.09227807 -0.02064293 -0.08891625
v -0.09053711 -0.01885848 -0.08981509
v -0.06157359 -0.01885848 -0.08981509
v -0.07894864 -0.02076765 -0.08924264
v -0.07509092 -0.02074846 -0.08924264
v -0.07122937 -0.02072447 -0.08924264
v -0.06929668 -0.02071008 -0.08924264
v -0.06350244 -0.02066691 -0.08924264
v -0.06157359 -0.02064772 -0.08924264
v -0.05964090 -0.02062854 -0.08923763
v -0.05883944 -0.02062374 -0.08923260
v -0.05883944 -0.02180858 -0.08703320
v -0.08088133 -0.02174142 -0.08855470
v -0.06543513 0.02464465 -0.04908596
v -0.06736783 0.02450554 -0.04329118
v -0.06462601 0.02459188 -0.04226681
v -0.05883944 0.02486051 -0.04602788
v -0.06543513 0.02468782 -0.05294747
v -0.07509092 0.02409300 -0.03852079
v -0.09475912 -0.01693012 -0.08383954
v -0.09494702 -0.01499697 -0.08383954
v -0.09453288 -0.01693012 -0.08577281
v -0.09787291 -0.01885848 -0.03852079
v -0.09460190 -0.01499697 -0.08577281
v -0.09392699 -0.01693012 -0.08770105
v -0.09346683 -0.01885848 -0.08870535
v -0.09246597 -0.01885848 -0.08928282
v -0.09053711 0.00623893 -0.08981509
v -0.05883944 -0.01693012 -0.08981509
v -0.05883944 -0.01885848 -0.08981007
v -0.05883944 -0.02158792 -0.08800234
v -0.07701978 -0.02172223 -0.08845428
v -0.07894864 -0.02173182 -0.08850449
v -0.07315823 -0.02170304 -0.08833878
v -0.05883944 -0.02168386 -0.08760063
v -0.08088133 0.02418414 -0.06067049
v -0.07701978 0.02413617 -0.04329118
v -0.07509092 0.02427529 -0.04908596
v -0.05883944 0.02487970 -0.04795613
v -0.06901291 0.02461107 -0.05874225
v -0.08088133 0.02428488 -0.07032175
v -0.06736783 0.02463505 -0.05488074
v -0.07509092 0.02440480 -0.06067049
v -0.08088133 0.02422732 -0.06453200
v -0.07701978 0.02401146 -0.03852079
v -0.07894864 0.02405943 -0.04329118
v -0.09510042 -0.01499697 -0.08191130
v -0.09521929 -0.01306861 -0.08191130
v -0.09501605 -0.01306861 -0.08383954
v -0.09801095 -0.01693012 -0.03852079
v -0.09461724 -0.01306861 -0.08577281
v -0.09463258 -0.01113546 -0.08577281
v -0.09464408 -0.00920231 -0.08577281
v -0.09465175 -0.00727395 -0.08577281
v -0.09394234 -0.01306861 -0.08770105
v -0.09346683 -0.01693012 -0.08870535
v -0.09246597 -0.01499697 -0.08928282
v -0.09246597 -0.01113546 -0.08927780
v -0.09233942 0.00623893 -0.08924264
v -0.09231642 0.00817208 -0.08921754
v -0.09053711 0.00817208 -0.08975986
v -0.08860442 0.00623893 -0.08980505
v -0.08474288 0.00431057 -0.08981007
v -0.07122937 -0.00147929 -0.08981509
v -0.05883944 -0.00727395 -0.08981509
v -0.05964090 -0.02159751 -0.08801239
v -0.06157359 -0.02161670 -0.08804753
v -0.08474288 0.02407861 -0.06453200
v -0.08281018 0.02404503 -0.05488074
v -0.07894864 0.02408341 -0.04522445
v -0.05883944 0.02488929 -0.04908596
v -0.05883944 0.02490368 -0.05101421
v -0.05883944 0.02491807 -0.05294747
v -0.05883944 0.02493726 -0.05568417
v -0.07134058 0.02455830 -0.06260375
v -0.08474288 0.02417935 -0.07418326
v -0.08860442 0.02403544 -0.07418326
v -0.08474288 0.02412179 -0.06839351
v -0.07894864 0.02391552 -0.03852079
v -0.07894864 0.02400186 -0.04136294
v -0.08088133 0.02390592 -0.04136294
v -0.08088133 0.02402585 -0.04715269
v -0.08088133 0.02399707 -0.04522445
v -0.08088133 0.02396349 -0.04329118
v -0.09522312 -0.01113546 -0.08191130
v -0.09513493 0.01396194 -0.08383954
v -0.09510425 0.00623893 -0.08383954
v -0.09504289 -0.00727395 -0.08383954
v -0.09799178 -0.01499697 -0.03852079
v -0.09524997 0.01589509 -0.08191130
v -0.09513876 0.01589509 -0.08383954
v -0.09465942 -0.00534080 -0.08577281
v -0.09466326 -0.00341245 -0.08577281
v -0.09394234 -0.01113546 -0.08770105
v -0.09346300 -0.01306861 -0.08870535
v -0.09345916 -0.01113546 -0.08870033
v -0.09345149 -0.00920231 -0.08869028
v -0.09343999 -0.00774885 -0.08868024
v -0.09342848 -0.00645848 -0.08866518
v -0.09330577 0.00623893 -0.08848943
v -0.09328276 0.00817208 -0.08846432
v -0.09324058 0.01010043 -0.08843921
v -0.09316389 0.01203358 -0.08841410
v -0.09227424 0.01010043 -0.08914222
v -0.08860442 0.00817208 -0.08974981
v -0.09053711 0.01010043 -0.08962930
v -0.08860442 0.01010043 -0.08963934
v -0.08667173 0.01010043 -0.08963432
v -0.08281018 0.00431057 -0.08980003
v -0.08667173 0.00623893 -0.08978999
v -0.06929668 -0.00147929 -0.08980505
v -0.06157359 -0.00534080 -0.08981509
v -0.05883944 -0.00614668 -0.08981007
v -0.08667173 0.02406902 -0.07032175
v -0.08281018 0.02401625 -0.05294747
v -0.08860442 0.02401146 -0.07225502
v -0.05883944 0.02499482 -0.06453200
v -0.05964090 0.02501880 -0.07225502
v -0.06157359 0.02496604 -0.07418326
v -0.06736783 0.02476937 -0.07418326
v -0.06736783 0.02479335 -0.07804979
v -0.07894864 0.02440001 -0.07804979
v -0.08667173 0.02413617 -0.07804979
v -0.08860442 0.02406902 -0.07804979
v -0.08860442 0.02405463 -0.07611653
v -0.09053711 0.02387234 -0.07418326
v -0.09053711 0.02385316 -0.07225502
v -0.08088133 0.02381478 -0.03852079
v -0.08281018 0.02369006 -0.03852079
v -0.08178632 0.02375722 -0.03852079
v -0.08860442 0.02390592 -0.06646024
v -0.08474288 0.02389633 -0.05294747
v -0.08281018 0.02391072 -0.04715269
v -0.08281018 0.02382438 -0.04329118
v -0.08281018 0.02377161 -0.04136294
v -0.08860442 0.02397788 -0.07032175
v -0.08860442 0.02394430 -0.06839351
v -0.09796877 -0.01306861 -0.03852079
v -0.09511959 0.01782825 -0.08383954
v -0.09460574 0.01782825 -0.08577281
v -0.09461724 0.01589509 -0.08577281
v -0.09463258 0.01203358 -0.08577281
v -0.09464025 0.01010043 -0.08577281
v -0.09465942 0.00237742 -0.08577281
v -0.09466326 0.00044906 -0.08577281
v -0.09393850 -0.00920231 -0.08770105
v -0.09383113 -0.00717322 -0.08789187
v -0.09391933 -0.00341245 -0.08765586
v -0.09391165 -0.00147929 -0.08763075
v -0.09390398 0.00044906 -0.08760564
v -0.09385413 0.00817208 -0.08750019
v -0.09382729 0.01203358 -0.08744496
v -0.09381579 0.01396194 -0.08739475
v -0.09380429 0.01589509 -0.08730435
v -0.09377361 0.01975660 -0.08712861
v -0.09300666 0.01396194 -0.08835887
v -0.09219754 0.01203358 -0.08903174
v -0.08474288 0.01010043 -0.08962428
v -0.06929668 0.01203358 -0.08941338
v -0.08667173 0.00817208 -0.08973475
v -0.09204032 0.01396194 -0.08890119
v -0.09053711 0.01203358 -0.08944852
v -0.08970882 0.02103737 -0.08871037
v -0.08860442 0.01975660 -0.08893131
v -0.08860442 0.01782825 -0.08908698
v -0.08860442 0.01589509 -0.08922758
v -0.08667173 0.01589509 -0.08922256
v -0.06929668 0.01782825 -0.08903676
v -0.06157359 0.01589509 -0.08915226
v -0.05964090 0.01589509 -0.08914222
v -0.07315823 0.00044906 -0.08980003
v -0.05964090 -0.00534080 -0.08980505
v -0.08088133 0.00431057 -0.08978497
v -0.08474288 0.00623893 -0.08977492
v -0.05883944 -0.00534080 -0.08979500
v -0.05883944 0.02501880 -0.06839351
v -0.05964090 0.02504279 -0.07611653
v -0.06157359 0.02499002 -0.07804979
v -0.06929668 0.02473579 -0.07997804
v -0.07894864 0.02440480 -0.07997804
v -0.08088133 0.02433765 -0.07997804
v -0.08860442 0.02406902 -0.08383954
v -0.09053711 0.02388674 -0.07804979
v -0.09053711 0.02388194 -0.07611653
v -0.09353202 0.02272589 -0.04136294
v -0.09351285 0.02271629 -0.03942968
v -0.09053711 0.02381958 -0.07032175
v -0.08371901 0.02362291 -0.03852079
v -0.09053711 0.02374763 -0.06646024
v -0.09053711 0.02370445 -0.06453200
v -0.09053711 0.02309525 -0.03852079
v -0.08667173 0.02383397 -0.05680898
v -0.08758056 0.02333030 -0.03852079
v -0.08564786 0.02347900 -0.03852079
v -0.09053711 0.02378600 -0.06839351
v -0.09743575 0.00044906 -0.03852079
v -0.09519628 0.01782825 -0.08191130
v -0.09468243 0.01975660 -0.08383954
v -0.09437949 0.01975660 -0.08577281
v -0.09365089 0.02105177 -0.08697294
v -0.09246597 0.01975660 -0.08791698
v -0.09272290 0.01589509 -0.08827351
v -0.06543513 0.01396194 -0.08928784
v -0.06736783 0.01203358 -0.08939329
v -0.08281018 0.00817208 -0.08969458
v -0.06350244 0.01396194 -0.08927278
v -0.05964090 0.01396194 -0.08924264
v -0.09175655 0.01589509 -0.08876561
v -0.08997725 0.01975660 -0.08879071
v -0.09155331 0.01698879 -0.08868527
v -0.09094360 0.01975660 -0.08849445
v -0.09042591 0.02168496 -0.08833376
v -0.08915662 0.02232295 -0.08860994
v -0.08855074 0.02168496 -0.08875054
v -0.08786816 0.02270190 -0.08869530
v -0.08667173 0.02168975 -0.08880578
v -0.08667173 0.01975660 -0.08894638
v -0.07894864 0.01975660 -0.08892629
v -0.05883944 0.01895552 -0.08892629
v -0.05883944 0.01782825 -0.08900664
v -0.05883944 0.01589509 -0.08913720
v -0.06736783 -0.00147929 -0.08978999
v -0.06157359 -0.00341245 -0.08977994
v -0.05964090 -0.00341245 -0.08975986
v -0.05883944 -0.00421353 -0.08976990
v -0.07509092 0.00237742 -0.08977492
v -0.08088133 0.00623893 -0.08972973
v -0.05883944 0.02502840 -0.07032175
v -0.05883944 0.02504759 -0.07418326
v -0.05964090 0.02505238 -0.07804979
v -0.06543513 0.02486530 -0.07997804
v -0.07387532 0.02457749 -0.08191130
v -0.07894864 0.02440480 -0.08191130
v -0.08088133 0.02433765 -0.08191130
v -0.09053711 0.02386275 -0.08383954
v -0.09053711 0.02387234 -0.08191130
v -0.08474288 0.02420333 -0.08383954
v -0.08860442 0.02405463 -0.08577281
v -0.09220138 0.02320078 -0.07418326
v -0.09352052 0.02272109 -0.04329118
v -0.09438716 0.02168975 -0.04136294
v -0.09348600 0.02269710 -0.03852079
v -0.09308720 0.02276906 -0.03852079
v -0.09246597 0.02290337 -0.03942968
v -0.09253883 0.02286499 -0.03852079
v -0.09735139 0.00237742 -0.03852079
v -0.09522696 0.01782825 -0.07997804
v -0.09473228 0.01975660 -0.08191130
v -0.09733221 0.00264604 -0.03852079
v -0.09726703 0.00342794 -0.03852079
v -0.09385030 0.02128681 -0.08383954
v -0.09380045 0.02124364 -0.08577281
v -0.09186009 0.02297532 -0.08704324
v -0.09248898 0.02168975 -0.08734955
v -0.09302200 0.02220782 -0.08577281
v -0.06350244 0.01203358 -0.08934810
v -0.07894864 0.00817208 -0.08964939
v -0.05883944 0.01508921 -0.08917737
v -0.05883944 0.01396194 -0.08923260
v -0.05883944 0.01316086 -0.08925771
v -0.05964090 0.01203358 -0.08930290
v -0.09053711 0.02323915 -0.08740479
v -0.08667173 0.02272589 -0.08870535
v -0.08855074 0.02323915 -0.08786174
v -0.08667173 0.02344063 -0.08770105
v -0.08281018 0.02271150 -0.08870033
v -0.07894864 0.02168975 -0.08878569
v -0.05964090 0.01975660 -0.08887105
v -0.07701978 0.02168975 -0.08878067
v -0.05883944 0.01975660 -0.08886604
v -0.06350244 -0.00147929 -0.08974981
v -0.05883944 -0.00147929 -0.08969458
v -0.05883944 -0.00341245 -0.08974981
v -0.06736783 0.00044906 -0.08973977
v -0.05883944 0.02505718 -0.07611653
v -0.05883944 0.02506198 -0.07804979
v -0.05883944 0.02505718 -0.07885323
v -0.05964090 0.02502840 -0.07997804
v -0.06157359 0.02498523 -0.07997804
v -0.06350244 0.02492766 -0.07997804
v -0.07266355 0.02460148 -0.08308130
v -0.08281018 0.02427049 -0.08383954
v -0.09208633 0.02317200 -0.08383954
v -0.09215536 0.02319598 -0.07804979
v -0.09217837 0.02320078 -0.07611653
v -0.09053711 0.02383877 -0.08577281
v -0.08474288 0.02416975 -0.08577281
v -0.09350134 0.02270670 -0.04522445
v -0.09434114 0.02168975 -0.04522445
v -0.09436798 0.02168975 -0.04329118
v -0.09518094 0.01975660 -0.04908596
v -0.09521929 0.01975660 -0.04522445
v -0.09524230 0.01975660 -0.04136294
v -0.09423377 0.02168975 -0.03942968
v -0.09376210 0.02230376 -0.03852079
v -0.09525380 0.01782825 -0.07804979
v -0.09478980 0.01975660 -0.07804979
v -0.09389632 0.02133958 -0.07997804
v -0.09387331 0.02131559 -0.08191130
v -0.09430663 0.02168975 -0.04715269
v -0.09403053 0.02148828 -0.06839351
v -0.09595555 0.01396194 -0.03852079
v -0.09528065 0.01787622 -0.07418326
v -0.09529215 0.01764596 -0.07605627
v -0.09305268 0.02225099 -0.08383954
v -0.09205566 0.02315281 -0.08577281
v -0.06736783 0.01010043 -0.08945355
v -0.06929668 0.00817208 -0.08953389
v -0.05883944 0.01203358 -0.08929286
v -0.05883944 0.00817208 -0.08940835
v -0.05883944 0.02456310 -0.08653607
v -0.08474288 0.02272109 -0.08870033
v -0.07894864 0.02270190 -0.08869028
v -0.07377562 0.02266353 -0.08867522
v -0.07509092 0.02267312 -0.08868024
v -0.05883944 0.02051451 -0.08879071
v -0.06543513 0.00237742 -0.08965942
v -0.05883944 0.02504279 -0.07997804
v -0.06157359 0.02489888 -0.08191130
v -0.06350244 0.02486051 -0.08191130
v -0.07122937 0.02462066 -0.08332234
v -0.08281018 0.02421772 -0.08577281
v -0.09307569 0.02227977 -0.08191130
v -0.09312170 0.02233254 -0.07804979
v -0.09314471 0.02235652 -0.07611653
v -0.09343999 0.02266353 -0.05043674
v -0.09347834 0.02269231 -0.04715269
v -0.09492402 0.01975660 -0.06839351
v -0.09495086 0.01975660 -0.06646024
v -0.09515793 0.01975660 -0.05101421
v -0.09569480 0.01589509 -0.03852079
v -0.09538802 0.01782825 -0.03852079
v -0.09504289 0.01975660 -0.03942968
v -0.09493936 0.01975660 -0.03852079
v -0.09408038 0.02177130 -0.03852079
v -0.09393850 0.02139235 -0.07611653
v -0.09426829 0.02168975 -0.04908596
v -0.09407271 0.02153625 -0.06453200
v -0.05883944 0.02359892 -0.08754037
v -0.05964090 0.02455830 -0.08648586
v -0.05883944 0.02464944 -0.08557195
v -0.07249099 0.02261556 -0.08866518
v -0.05883944 0.02103737 -0.08873547
v -0.05883944 0.02494206 -0.08191130
v -0.05883944 0.02479335 -0.08383954
v -0.06350244 0.02471660 -0.08383954
v -0.06724128 0.02464465 -0.08396508
v -0.06929668 0.02463985 -0.08356839
v -0.07701978 0.02433765 -0.08577281
v -0.08088133 0.02426089 -0.08577281
v -0.05883944 0.02200635 -0.08850449
v -0.07509092 0.02437122 -0.08577281
v -0.06157359 0.02463026 -0.08535101
v -0.05964090 0.02464465 -0.08552174
v -0.05883944 0.02473099 -0.08459276
v -0.05883944 0.02160341 -0.08860492
f 1 2 3
f 1 3 4
f 1 4 5
f 1 5 6
f 1 6 2
f 2 7 8
f 2 8 10
f 2 10 3
f 2 6 9
f 2 9 19
f 2 19 7
f 3 10 4
f 4 10 11
f 4 11 12
f 4 12 13
f 4 13 5
f 5 13 6
f 6 13 14
f 6 14 15
f 6 15 16
f 6 16 17
f 6 17 18
f 6 18 20
f 6 20 9
f 7 19 22
f 7 22 21
f 7 21 42
f 7 42 67
f 7 67 68
f 7 68 107
f 7 107 104
f 7 104 144
f 7 144 157
f 7 157 200
f 7 200 199
f 7 199 198
f 7 198 160
f 7 160 185
f 7 185 195
f 7 195 194
f 7 194 220
f 7 220 243
f 7 243 239
f 7 239 219
f 7 219 238
f 7 238 237
f 7 237 273
f 7 273 321
f 7 321 383
f 7 383 433
f 7 433 481
f 7 481 480
f 7 480 518
f 7 518 517
f 7 517 468
f 7 468 467
f 7 467 466
f 7 466 429
f 7 429 428
f 7 428 427
f 7 427 478
f 7 478 524
f 7 524 551
f 7 551 564
f 7 564 559
f 7 559 547
f 7 547 519
f 7 519 549
f 7 549 563
f 7 563 553
f 7 553 552
f 7 552 526
f 7 526 485
f 7 485 484
f 7 484 483
f 7 483 437
f 7 437 436
f 7 436 384
f 7 384 325
f 7 325 282
f 7 282 281
f 7 281 280
f 7 280 279
f 7 279 247
f 7 247 225
f 7 225 201
f 7 201 162
f 7 162 117
f 7 117 73
f 7 73 43
f 7 43 25
f 7 25 24
f 7 24 23
f 7 23 10
f 7 10 8
f 9 20 21
f 9 21 22
f 9 22 19
f 10 23 11
f 11 23 24
f 11 24 25
f 11 25 26
f 11 26 27
f 11 27 12
f 12 27 28
f 12 28 29
f 12 29 13
f 13 29 30
f 13 30 14
f 14 30 31
f 14 31 15
f 15 31 32
f 15 32 33
f 15 33 34
f 15 34 16
f 16 34 17
f 17 34 35
f 17 35 18
f 18 36 37
f 18 37 38
f 18 38 39
f 18 39 40
f 18 40 20
f 18 35 41
f 18 41 36
f 20 42 21
f 20 40 42
f 25 43 44
f 25 44 45
f 25 45 46
f 25 46 26
f 26 46 47
f 26 47 27
f 27 47 48
f 27 48 49
f 27 49 28
f 28 49 50
f 28 50 29
f 29 50 51
f 29 51 52
f 29 52 53
f 29 53 30
f 30 53 31
f 31 54 32
f 31 53 55
f 31 55 56
f 31 56 57
f 31 57 58
f 31 58 54
f 32 54 33
f 33 54 34
f 34 54 59
f 34 59 35
f 35 59 60
f 35 60 61
f 35 61 41
f 36 41 62
f 36 62 63
f 36 63 37
f 37 64 38
f 37 63 65
f 37 65 66
f 37 66 64
f 38 64 39
f 39 64 40
f 40 67 42
f 40 64 68
f 40 68 67
f 41 61 69
f 41 69 110
f 41 110 70
f 41 70 71
f 41 71 72
f 41 72 65
f 41 65 62
f 43 73 74
f 43 74 75
f 43 75 44
f 44 75 74
f 44 74 120
f 44 120 119
f 44 119 118
f 44 118 117
f 44 117 162
f 44 162 202
f 44 202 227
f 44 227 253
f 44 253 287
f 44 287 336
f 44 336 338
f 44 338 337
f 44 337 396
f 44 396 402
f 44 402 401
f 44 401 399
f 44 399 453
f 44 453 451
f 44 451 450
f 44 450 503
f 44 503 543
f 44 543 542
f 44 542 540
f 44 540 539
f 44 539 510
f 44 510 458
f 44 458 457
f 44 457 454
f 44 454 404
f 44 404 346
f 44 346 297
f 44 297 258
f 44 258 231
f 44 231 206
f 44 206 174
f 44 174 165
f 44 165 163
f 44 163 121
f 44 121 76
f 44 76 46
f 44 46 45
f 46 48 47
f 46 76 77
f 46 77 78
f 46 78 48
f 48 79 80
f 48 80 49
f 48 78 81
f 48 81 82
f 48 82 83
f 48 83 79
f 49 84 50
f 49 80 84
f 50 85 51
f 50 84 86
f 50 86 85
f 51 85 86
f 51 86 83
f 51 83 82
f 51 82 81
f 51 81 87
f 51 87 88
f 51 88 89
f 51 89 90
f 51 90 52
f 52 90 91
f 52 91 53
f 53 91 92
f 53 92 55
f 54 93 59
f 54 58 94
f 54 94 93
f 55 92 95
f 55 95 96
f 55 96 97
f 55 97 56
f 56 97 57
f 57 97 98
f 57 98 99
f 57 99 94
f 57 94 58
f 59 93 100
f 59 100 69
f 59 69 60
f 60 69 61
f 62 65 63
f 64 66 101
f 64 101 102
f 64 102 68
f 65 72 66
f 66 103 104
f 66 104 105
f 66 105 101
f 66 72 106
f 66 106 103
f 68 102 105
f 68 105 107
f 69 94 108
f 69 108 109
f 69 109 110
f 69 100 94
f 70 111 112
f 70 112 71
f 70 110 113
f 70 113 111
f 71 114 106
f 71 106 72
f 71 112 115
f 71 115 161
f 71 161 116
f 71 116 114
f 73 117 118
f 73 118 119
f 73 119 120
f 73 120 74
f 76 121 77
f 77 121 122
f 77 122 123
f 77 123 124
f 77 124 78
f 78 124 88
f 78 88 81
f 79 83 125
f 79 125 84
f 79 84 80
f 81 88 87
f 83 86 125
f 84 125 86
f 88 124 166
f 88 166 126
f 88 126 89
f 89 126 127
f 89 127 91
f 89 91 90
f 91 127 92
f 92 127 96
f 92 96 128
f 92 128 95
f 93 94 100
f 94 99 108
f 95 128 96
f 96 127 129
f 96 129 130
f 96 130 123
f 96 123 97
f 97 123 131
f 97 131 132
f 97 132 133
f 97 133 134
f 97 134 135
f 97 135 136
f 97 136 98
f 98 136 137
f 98 137 138
f 98 138 139
f 98 139 140
f 98 140 99
f 99 140 141
f 99 141 108
f 101 105 102
f 103 142 104
f 103 106 143
f 103 143 158
f 103 158 142
f 104 142 144
f 104 107 105
f 106 114 143
f 108 141 109
f 109 141 145
f 109 145 113
f 109 113 110
f 111 113 146
f 111 146 147
f 111 147 112
f 112 147 161
f 112 161 115
f 113 145 148
f 113 148 149
f 113 149 150
f 113 150 151
f 113 151 152
f 113 152 153
f 113 153 154
f 113 154 155
f 113 155 146
f 114 156 157
f 114 157 144
f 114 144 158
f 114 158 143
f 114 116 159
f 114 159 160
f 114 160 156
f 116 161 159
f 121 163 122
f 122 164 123
f 122 163 165
f 122 165 164
f 123 130 166
f 123 166 124
f 123 164 131
f 126 166 130
f 126 130 127
f 127 130 129
f 131 164 132
f 132 164 133
f 133 164 134
f 134 164 135
f 135 167 138
f 135 138 136
f 135 164 168
f 135 168 169
f 135 169 170
f 135 170 171
f 135 171 172
f 135 172 167
f 136 138 137
f 138 173 139
f 138 167 174
f 138 174 173
f 139 175 176
f 139 176 177
f 139 177 178
f 139 178 179
f 139 179 140
f 139 173 175
f 140 179 178
f 140 178 177
f 140 177 180
f 140 180 181
f 140 181 141
f 141 181 145
f 142 158 144
f 145 182 148
f 145 181 182
f 146 183 184
f 146 184 147
f 146 155 183
f 147 184 185
f 147 185 161
f 148 182 186
f 148 186 149
f 149 186 177
f 149 177 150
f 150 177 187
f 150 187 188
f 150 188 189
f 150 189 190
f 150 190 191
f 150 191 192
f 150 192 193
f 150 193 152
f 150 152 151
f 152 193 155
f 152 155 154
f 152 154 153
f 155 194 195
f 155 195 185
f 155 185 184
f 155 184 183
f 155 193 192
f 155 192 196
f 155 196 197
f 155 197 194
f 156 160 198
f 156 198 199
f 156 199 200
f 156 200 157
f 159 161 185
f 159 185 160
f 162 201 202
f 164 165 168
f 165 174 170
f 165 170 169
f 165 169 168
f 167 172 203
f 167 203 174
f 170 174 171
f 171 174 204
f 171 204 172
f 172 204 174
f 172 174 203
f 173 205 175
f 173 174 206
f 173 206 205
f 175 205 207
f 175 207 208
f 175 208 176
f 176 208 177
f 177 208 209
f 177 209 187
f 177 186 180
f 180 186 181
f 181 186 182
f 187 189 188
f 187 209 210
f 187 210 211
f 187 211 189
f 189 211 212
f 189 212 190
f 190 212 213
f 190 213 214
f 190 214 215
f 190 215 216
f 190 216 217
f 190 217 191
f 191 217 218
f 191 218 219
f 191 219 192
f 192 219 196
f 194 197 220
f 196 219 197
f 197 221 220
f 197 219 221
f 201 222 223
f 201 223 224
f 201 224 202
f 201 225 226
f 201 226 222
f 202 224 227
f 205 228 229
f 205 229 230
f 205 230 207
f 205 206 231
f 205 231 228
f 207 230 232
f 207 232 233
f 207 233 208
f 208 234 235
f 208 235 209
f 208 233 234
f 209 235 210
f 210 236 272
f 210 272 320
f 210 320 273
f 210 273 237
f 210 237 211
f 210 235 265
f 210 265 236
f 211 237 238
f 211 238 213
f 211 213 212
f 213 238 214
f 214 238 215
f 215 238 216
f 216 238 217
f 217 238 218
f 218 238 219
f 219 239 240
f 219 240 241
f 219 241 221
f 220 221 241
f 220 241 240
f 220 240 242
f 220 242 243
f 222 226 252
f 222 252 244
f 222 244 223
f 223 245 224
f 223 244 246
f 223 246 245
f 224 245 227
f 225 247 226
f 226 248 249
f 226 249 250
f 226 250 251
f 226 251 252
f 226 247 248
f 227 245 254
f 227 254 253
f 228 255 229
f 228 231 255
f 229 255 256
f 229 256 257
f 229 257 230
f 230 257 232
f 231 258 255
f 232 257 259
f 232 259 233
f 233 259 260
f 233 260 261
f 233 261 262
f 233 262 263
f 233 263 234
f 234 264 265
f 234 265 235
f 234 263 302
f 234 302 264
f 236 265 266
f 236 266 267
f 236 267 268
f 236 268 269
f 236 269 313
f 236 313 270
f 236 270 317
f 236 317 271
f 236 271 272
f 239 243 274
f 239 274 242
f 239 242 240
f 242 274 275
f 242 275 243
f 243 275 274
f 244 252 286
f 244 286 276
f 244 276 277
f 244 277 245
f 244 245 246
f 245 278 254
f 245 277 278
f 247 279 248
f 248 279 280
f 248 280 281
f 248 281 282
f 248 282 283
f 248 283 249
f 249 284 251
f 249 251 250
f 249 283 284
f 251 284 285
f 251 285 286
f 251 286 252
f 253 254 288
f 253 288 289
f 253 289 287
f 254 278 277
f 254 277 290
f 254 290 291
f 254 291 292
f 254 292 289
f 254 289 288
f 255 258 256
f 256 293 299
f 256 299 294
f 256 294 295
f 256 295 296
f 256 296 257
f 256 258 293
f 257 296 261
f 257 261 260
f 257 260 259
f 258 297 298
f 258 298 299
f 258 299 293
f 261 296 295
f 261 295 262
f 262 295 294
f 262 294 300
f 262 300 263
f 263 300 301
f 263 301 353
f 263 353 302
f 264 303 265
f 264 302 303
f 265 303 266
f 266 303 304
f 266 304 267
f 267 304 305
f 267 305 306
f 267 306 307
f 267 307 308
f 267 308 309
f 267 309 268
f 268 309 310
f 268 310 311
f 268 311 312
f 268 312 269
f 269 312 314
f 269 314 315
f 269 315 316
f 269 316 313
f 270 313 368
f 270 368 318
f 270 318 317
f 271 317 319
f 271 319 272
f 272 319 380
f 272 380 320
f 273 320 321
f 276 286 322
f 276 322 277
f 277 323 290
f 277 322 285
f 277 285 324
f 277 324 323
f 282 325 326
f 282 326 327
f 282 327 328
f 282 328 283
f 283 328 284
f 284 328 329
f 284 329 330
f 284 330 331
f 284 331 332
f 284 332 333
f 284 333 285
f 285 333 334
f 285 334 335
f 285 335 324
f 285 322 286
f 287 289 336
f 289 337 338
f 289 338 336
f 289 292 337
f 290 323 291
f 291 323 324
f 291 324 344
f 291 344 292
f 292 339 340
f 292 340 341
f 292 341 342
f 292 342 343
f 292 343 337
f 292 344 345
f 292 345 339
f 294 299 301
f 294 301 300
f 297 346 298
f 298 347 299
f 298 346 347
f 299 347 348
f 299 348 349
f 299 349 350
f 299 350 351
f 299 351 352
f 299 352 353
f 299 353 301
f 302 353 354
f 302 354 303
f 303 354 304
f 304 354 305
f 305 354 355
f 305 355 356
f 305 356 357
f 305 357 358
f 305 358 306
f 306 358 359
f 306 359 360
f 306 360 307
f 307 360 308
f 308 360 309
f 309 360 361
f 309 361 310
f 310 361 362
f 310 362 363
f 310 363 311
f 311 363 364
f 311 364 312
f 312 364 365
f 312 365 314
f 313 316 366
f 313 366 411
f 313 411 367
f 313 367 368
f 314 365 369
f 314 369 370
f 314 370 371
f 314 371 372
f 314 372 373
f 314 373 374
f 314 374 315
f 315 374 375
f 315 375 316
f 316 375 376
f 316 376 377
f 316 377 378
f 316 378 366
f 317 379 380
f 317 380 319
f 317 318 382
f 317 382 381
f 317 381 379
f 318 368 382
f 320 380 321
f 321 380 383
f 324 335 395
f 324 395 344
f 325 384 385
f 325 385 326
f 326 385 327
f 327 385 386
f 327 386 329
f 327 329 328
f 329 386 387
f 329 387 330
f 330 387 331
f 331 387 388
f 331 388 389
f 331 389 332
f 332 389 442
f 332 442 445
f 332 445 390
f 332 390 391
f 332 391 392
f 332 392 334
f 332 334 333
f 334 392 393
f 334 393 394
f 334 394 335
f 335 394 395
f 337 343 396
f 339 397 398
f 339 398 399
f 339 399 400
f 339 400 342
f 339 342 340
f 339 345 403
f 339 403 397
f 340 342 341
f 342 399 401
f 342 401 402
f 342 402 343
f 342 400 399
f 343 402 396
f 344 395 403
f 344 403 345
f 346 404 405
f 346 405 347
f 347 405 406
f 347 406 407
f 347 407 348
f 348 407 363
f 348 363 362
f 348 362 361
f 348 361 360
f 348 360 359
f 348 359 358
f 348 358 357
f 348 357 356
f 348 356 354
f 348 354 349
f 349 354 350
f 350 354 351
f 351 354 352
f 352 354 353
f 354 356 355
f 363 407 408
f 363 408 409
f 363 409 364
f 364 409 410
f 364 410 369
f 364 369 365
f 366 378 411
f 367 412 413
f 367 413 368
f 367 411 414
f 367 414 415
f 367 415 412
f 368 413 382
f 369 410 409
f 369 409 416
f 369 416 417
f 369 417 370
f 370 417 371
f 371 417 416
f 371 416 418
f 371 418 419
f 371 419 420
f 371 420 421
f 371 421 422
f 371 422 372
f 372 422 423
f 372 423 424
f 372 424 373
f 373 424 425
f 373 425 374
f 374 425 375
f 375 425 426
f 375 426 376
f 376 426 427
f 376 427 428
f 376 428 377
f 377 428 378
f 378 428 429
f 378 429 411
f 379 381 380
f 380 381 430
f 380 430 431
f 380 431 432
f 380 432 433
f 380 433 383
f 381 382 434
f 381 434 431
f 381 431 430
f 382 413 465
f 382 465 435
f 382 435 434
f 384 436 385
f 385 436 437
f 385 437 483
f 385 483 438
f 385 438 386
f 386 438 488
f 386 488 439
f 386 439 387
f 387 439 440
f 387 440 441
f 387 441 388
f 388 441 442
f 388 442 389
f 390 443 444
f 390 444 391
f 390 445 446
f 390 446 443
f 391 444 447
f 391 447 393
f 391 393 392
f 393 448 449
f 393 449 394
f 393 447 448
f 394 449 450
f 394 450 451
f 394 451 452
f 394 452 403
f 394 403 395
f 397 452 398
f 397 403 452
f 398 452 399
f 399 452 453
f 404 454 405
f 405 455 456
f 405 456 406
f 405 454 457
f 405 457 458
f 405 458 455
f 406 456 459
f 406 459 460
f 406 460 407
f 407 460 408
f 408 461 462
f 408 462 409
f 408 460 463
f 408 463 461
f 409 462 420
f 409 420 419
f 409 419 418
f 409 418 416
f 411 429 414
f 412 415 464
f 412 464 413
f 413 464 469
f 413 469 465
f 414 429 415
f 415 429 466
f 415 466 467
f 415 467 468
f 415 468 469
f 415 469 464
f 420 462 461
f 420 461 421
f 421 461 470
f 421 470 423
f 421 423 422
f 423 471 424
f 423 470 472
f 423 472 473
f 423 473 471
f 424 471 474
f 424 474 475
f 424 475 426
f 424 426 425
f 426 476 427
f 426 475 477
f 426 477 476
f 427 476 478
f 431 434 432
f 432 479 480
f 432 480 481
f 432 481 433
f 432 434 479
f 434 435 465
f 434 465 482
f 434 482 479
f 438 484 485
f 438 485 486
f 438 486 487
f 438 487 488
f 438 483 484
f 439 488 440
f 440 489 490
f 440 490 441
f 440 488 489
f 441 490 445
f 441 445 442
f 443 491 492
f 443 492 493
f 443 493 447
f 443 447 444
f 443 446 494
f 443 494 491
f 445 490 446
f 446 473 472
f 446 472 470
f 446 470 494
f 446 490 489
f 446 489 495
f 446 495 473
f 447 493 448
f 448 496 497
f 448 497 498
f 448 498 449
f 448 493 492
f 448 492 491
f 448 491 496
f 449 498 499
f 449 499 500
f 449 500 501
f 449 501 502
f 449 502 503
f 449 503 450
f 451 453 452
f 455 504 505
f 455 505 456
f 455 458 504
f 456 506 507
f 456 507 459
f 456 505 497
f 456 497 508
f 456 508 509
f 456 509 506
f 458 510 501
f 458 501 511
f 458 511 512
f 458 512 504
f 459 507 531
f 459 531 513
f 459 513 463
f 459 463 460
f 461 463 514
f 461 514 494
f 461 494 470
f 463 513 514
f 465 515 516
f 465 516 482
f 465 469 515
f 468 517 469
f 469 517 518
f 469 518 515
f 471 473 519
f 471 519 520
f 471 520 521
f 471 521 474
f 473 495 519
f 474 521 477
f 474 477 475
f 476 477 522
f 476 522 478
f 477 521 523
f 477 523 522
f 478 522 524
f 479 482 480
f 480 482 525
f 480 525 518
f 482 516 525
f 485 526 486
f 486 526 527
f 486 527 528
f 486 528 487
f 487 528 489
f 487 489 488
f 489 528 529
f 489 529 530
f 489 530 495
f 491 494 514
f 491 514 531
f 491 531 532
f 491 532 533
f 491 533 534
f 491 534 535
f 491 535 496
f 495 530 519
f 496 535 508
f 496 508 497
f 497 505 536
f 497 536 537
f 497 537 498
f 498 537 538
f 498 538 499
f 499 538 504
f 499 504 500
f 500 504 511
f 500 511 501
f 501 510 539
f 501 539 540
f 501 540 541
f 501 541 502
f 502 541 542
f 502 542 543
f 502 543 503
f 504 512 511
f 504 538 537
f 504 537 536
f 504 536 505
f 506 509 507
f 507 509 544
f 507 544 532
f 507 532 531
f 508 535 534
f 508 534 545
f 508 545 546
f 508 546 509
f 509 533 532
f 509 532 544
f 509 546 534
f 509 534 533
f 513 531 514
f 515 518 525
f 515 525 516
f 519 547 523
f 519 523 521
f 519 521 520
f 519 530 548
f 519 548 562
f 519 562 549
f 522 550 551
f 522 551 524
f 522 523 547
f 522 547 550
f 526 552 527
f 527 552 553
f 527 553 554
f 527 554 555
f 527 555 556
f 527 556 529
f 527 529 528
f 529 556 557
f 529 557 558
f 529 558 530
f 530 558 548
f 534 546 545
f 540 542 541
f 547 559 550
f 548 558 557
f 548 557 560
f 548 560 561
f 548 561 562
f 549 562 563
f 550 559 564
f 550 564 551
f 553 563 562
f 553 562 561
f 553 561 554
f 554 561 555
f 555 561 560
f 555 560 556
f 556 560 557

