# https://github.com/mikedh/trimesh
v -0.10608312 -0.01692891 -0.00046596
v -0.10605575 -0.01852332 -0.00046596
v -0.10608312 -0.01692891 0.00112654
v -0.10606773 -0.01499829 -0.00046596
v -0.10605403 -0.01692891 0.00498786
v -0.10607457 -0.01692891 0.00305773
v -0.10604378 -0.01886216 -0.00046596
v -0.10604891 -0.01499829 0.00112654
v -0.10599930 -0.01306766 -0.00046596
v -0.10602324 -0.01692891 0.00691905
v -0.10602324 -0.01886216 0.00112654
v -0.10574783 -0.02045394 -0.00046596
v -0.10601641 -0.01499829 0.00305773
v -0.10595996 -0.01306766 0.00112654
v -0.10598048 -0.01272882 -0.00046596
v -0.10597021 -0.01499829 0.00498786
v -0.10599245 -0.01886216 0.00305773
v -0.10596166 -0.01886216 0.00498786
v -0.10592574 -0.01886216 0.00691905
v -0.10575297 -0.01886216 0.00885024
v -0.10576494 -0.01692891 0.00885024
v -0.10556650 -0.01306766 0.00885024
v -0.10592060 -0.01499829 0.00691905
v -0.10568282 -0.02079279 -0.00046596
v -0.10591035 -0.01306766 0.00305773
v -0.10585047 -0.01113703 0.00112654
v -0.10587099 -0.01079819 -0.00046596
v -0.10565203 -0.02079279 0.00112654
v -0.10560414 -0.02079279 0.00305773
v -0.10554769 -0.02079279 0.00498786
v -0.10548781 -0.02079279 0.00691905
v -0.10541255 -0.02079279 0.00885024
v -0.10523635 -0.02079279 0.01027970
v -0.10539715 -0.01886216 0.01027970
v -0.10533899 -0.01692891 0.01027970
v -0.10526372 -0.01512174 0.01027970
v -0.10518332 -0.01306766 0.01025551
v -0.10513371 -0.01113703 0.01012929
v -0.10507555 -0.00920904 0.00997256
v -0.10546216 -0.01113703 0.00885024
v -0.10505159 -0.00198298 0.00802244
v -0.10569994 -0.01113703 0.00691905
v -0.10586074 -0.01306766 0.00498786
v -0.10518845 -0.02193015 -0.00046596
v -0.10518160 -0.02193015 0.00112654
v -0.10516278 -0.02192227 0.00305773
v -0.10513713 -0.02190126 0.00498786
v -0.10573928 -0.00920904 0.00112654
v -0.10564006 -0.00920904 0.00498786
v -0.10541768 -0.00534516 0.00498786
v -0.10530478 -0.00341453 0.00498786
v -0.10562124 -0.00727841 0.00112654
v -0.10574954 -0.00887019 -0.00046596
v -0.10510805 -0.02187236 0.00691905
v -0.10507726 -0.02183821 0.00885024
v -0.10504818 -0.02179881 0.01027970
v -0.10519187 -0.01344853 0.01027970
v -0.10517477 -0.01306766 0.01027970
v -0.10507897 -0.01113703 0.01027970
v -0.10506015 -0.01077980 0.01027970
v -0.10496778 -0.00920904 0.01027970
v -0.10491475 -0.00831596 0.01027970
v -0.10452301 -0.00209593 0.01027970
v -0.10503449 -0.00802702 0.00986001
v -0.10534583 -0.00920904 0.00885024
v -0.10510120 -0.00341453 0.00823386
v -0.10487711 -0.00341453 0.00919945
v -0.10484461 -0.00139723 0.00873980
v -0.10468552 0.00044672 0.00885024
v -0.10500712 -0.00069590 0.00771214
v -0.10558703 -0.00920904 0.00691905
v -0.10499172 -0.02202734 -0.00046596
v -0.10405429 -0.02247650 0.00112654
v -0.10405429 -0.02246862 0.00305773
v -0.10405429 -0.02245024 0.00498786
v -0.10405429 -0.02242134 0.00691905
v -0.10405429 -0.02237932 0.00885024
v -0.10547071 -0.00727841 0.00691905
v -0.10505331 -0.00014692 0.00642468
v -0.10518160 -0.00148391 0.00498786
v -0.10533385 -0.00341453 0.00305773
v -0.10548610 -0.00534516 0.00112654
v -0.10561098 -0.00693694 -0.00046596
v -0.10448879 -0.02211139 0.01027970
v -0.10438616 -0.00000508 0.01027970
v -0.10519701 -0.00734145 0.00896700
v -0.10499001 -0.00673994 0.00968961
v -0.10516621 -0.00534516 0.00851891
v -0.10494383 -0.00534516 0.00948345
v -0.10435194 0.00044672 0.01027970
v -0.10373440 0.00214619 0.01027970
v -0.10389349 0.00237734 0.00885024
v -0.10495751 0.00047561 0.00700846
v -0.10509950 -0.00139723 0.00700846
v -0.10523293 -0.00341453 0.00691905
v -0.10535267 -0.00534516 0.00691905
v -0.10405429 -0.02247125 -0.00046596
v -0.10212296 -0.02285212 0.00112654
v -0.10212296 -0.02287051 0.01027970
v -0.10262590 -0.02274968 0.01027970
v -0.10418430 -0.02227162 0.01027970
v -0.10506870 0.00003958 0.00498786
v -0.10497975 0.00100358 0.00498786
v -0.10519187 -0.00148391 0.00305773
v -0.10546386 -0.00500631 -0.00046596
v -0.10358899 0.00249817 0.01027970
v -0.10334266 0.00286854 0.01027970
v -0.10309119 0.00334397 0.00983372
v -0.10410390 0.00237734 0.00691905
v -0.10212296 -0.02284687 -0.00046596
v -0.10019164 -0.02285212 -0.00046596
v -0.10019164 -0.02287839 0.01027970
v -0.10506870 0.00003958 -0.00046596
v -0.10498146 0.00100358 0.00112654
v -0.10499686 0.00083547 -0.00046596
v -0.10420654 0.00237734 0.00498786
v -0.10427497 0.00237734 0.00305773
v -0.10433826 0.00237734 0.00112654
v -0.10438102 0.00237734 -0.00046596
v -0.10519187 -0.00148391 -0.00046596
v -0.10531504 -0.00307569 -0.00046596
v -0.10245655 0.00335185 0.01027970
v -0.10212296 0.00395599 -0.00046596
v -0.10235048 0.00390608 -0.00046596
v -0.10313225 0.00337286 0.00885024
v -0.10320923 0.00342802 0.00691905
v -0.10328107 0.00348318 0.00498786
v -0.10334950 0.00353834 0.00305773
v -0.10341279 0.00359350 0.00112654
v -0.08860713 -0.02285212 -0.00046596
v -0.08911006 -0.02287839 0.01027970
v -0.10498146 0.00100358 -0.00046596
v -0.10345385 0.00363816 -0.00046596
v -0.10202546 0.00336761 0.01027970
v -0.10019164 0.00343328 0.01027970
v -0.09818505 0.00348318 0.01027970
v -0.10019164 0.00391134 -0.00046596
v -0.08860713 -0.02287576 0.01027865
v -0.08860713 0.00102459 -0.00046596
v -0.08860713 0.00154731 0.01027970
v -0.09826203 0.00376161 -0.00046596
v -0.09246977 0.00292895 0.01027970
v -0.08882096 0.00109551 -0.00046596
v -0.08860713 0.00103247 -0.00046491
v -0.08860713 0.00157883 0.01027970
v -0.09653086 0.00351208 -0.00046596
v -0.09016040 0.00234845 0.01027970
v -0.09556605 0.00329669 -0.00046596
v -0.09440110 0.00292632 -0.00046596
v -0.09463204 0.00299987 -0.00046596
f 1 2 3
f 1 3 4
f 1 4 9
f 1 9 15
f 1 15 27
f 1 27 53
f 1 53 83
f 1 83 105
f 1 105 121
f 1 121 120
f 1 120 113
f 1 113 115
f 1 115 132
f 1 132 119
f 1 119 133
f 1 133 124
f 1 124 123
f 1 123 137
f 1 137 141
f 1 141 146
f 1 146 148
f 1 148 150
f 1 150 149
f 1 149 143
f 1 143 139
f 1 139 130
f 1 130 111
f 1 111 110
f 1 110 97
f 1 97 72
f 1 72 44
f 1 44 24
f 1 24 12
f 1 12 7
f 1 7 2
f 2 5 6
f 2 6 3
f 2 7 5
f 3 6 4
f 4 6 5
f 4 5 8
f 4 8 9
f 5 10 8
f 5 7 11
f 5 11 17
f 5 17 10
f 7 12 11
f 8 13 9
f 8 10 13
f 9 14 15
f 9 13 16
f 9 16 14
f 10 17 18
f 10 18 19
f 10 19 20
f 10 20 21
f 10 21 22
f 10 22 23
f 10 23 16
f 10 16 13
f 11 12 17
f 12 24 18
f 12 18 17
f 14 25 26
f 14 26 27
f 14 27 15
f 14 16 23
f 14 23 25
f 18 24 19
f 19 24 28
f 19 28 29
f 19 29 30
f 19 30 31
f 19 31 32
f 19 32 20
f 20 32 33
f 20 33 34
f 20 34 21
f 21 34 35
f 21 35 36
f 21 36 37
f 21 37 38
f 21 38 39
f 21 39 22
f 22 39 40
f 22 40 23
f 23 40 41
f 23 41 42
f 23 42 43
f 23 43 26
f 23 26 25
f 24 44 45
f 24 45 46
f 24 46 47
f 24 47 28
f 26 48 27
f 26 43 49
f 26 49 50
f 26 50 48
f 27 48 51
f 27 51 52
f 27 52 53
f 28 47 54
f 28 54 55
f 28 55 29
f 29 55 30
f 30 55 56
f 30 56 31
f 31 56 32
f 32 56 33
f 33 56 84
f 33 84 101
f 33 101 100
f 33 100 99
f 33 99 112
f 33 112 131
f 33 131 140
f 33 140 145
f 33 145 147
f 33 147 142
f 33 142 136
f 33 136 135
f 33 135 134
f 33 134 122
f 33 122 107
f 33 107 106
f 33 106 91
f 33 91 90
f 33 90 85
f 33 85 63
f 33 63 62
f 33 62 61
f 33 61 60
f 33 60 59
f 33 59 58
f 33 58 57
f 33 57 36
f 33 36 35
f 33 35 34
f 36 57 37
f 37 57 58
f 37 58 38
f 38 58 59
f 38 59 60
f 38 60 39
f 39 60 61
f 39 61 62
f 39 62 63
f 39 63 64
f 39 64 40
f 40 64 65
f 40 65 41
f 41 66 67
f 41 67 68
f 41 68 69
f 41 69 70
f 41 70 71
f 41 71 42
f 41 65 66
f 42 71 51
f 42 51 50
f 42 50 49
f 42 49 43
f 44 72 45
f 45 72 73
f 45 73 74
f 45 74 46
f 46 74 75
f 46 75 76
f 46 76 47
f 47 76 77
f 47 77 54
f 48 50 51
f 51 71 78
f 51 78 79
f 51 79 80
f 51 80 52
f 52 80 53
f 53 80 81
f 53 81 82
f 53 82 83
f 54 77 55
f 55 77 84
f 55 84 56
f 63 85 64
f 64 86 65
f 64 85 87
f 64 87 86
f 65 86 88
f 65 88 66
f 66 88 89
f 66 89 67
f 67 85 68
f 67 89 85
f 68 85 69
f 69 90 91
f 69 91 92
f 69 92 93
f 69 93 70
f 69 85 90
f 70 79 94
f 70 94 95
f 70 95 96
f 70 96 78
f 70 78 71
f 70 93 79
f 72 97 73
f 73 97 110
f 73 110 98
f 73 98 99
f 73 99 74
f 74 99 100
f 74 100 75
f 75 100 76
f 76 100 77
f 77 101 84
f 77 100 101
f 78 96 79
f 79 102 80
f 79 96 95
f 79 95 94
f 79 93 103
f 79 103 102
f 80 102 104
f 80 104 81
f 81 104 82
f 82 104 83
f 83 104 105
f 85 89 87
f 86 87 88
f 87 89 88
f 91 106 92
f 92 106 107
f 92 107 108
f 92 108 109
f 92 109 103
f 92 103 93
f 98 111 112
f 98 112 99
f 98 110 111
f 102 113 120
f 102 120 104
f 102 103 114
f 102 114 115
f 102 115 113
f 103 109 116
f 103 116 117
f 103 117 118
f 103 118 119
f 103 119 114
f 104 120 121
f 104 121 105
f 107 122 108
f 108 122 123
f 108 123 124
f 108 124 125
f 108 125 109
f 109 125 126
f 109 126 127
f 109 127 128
f 109 128 129
f 109 129 116
f 111 130 131
f 111 131 112
f 114 132 115
f 114 119 132
f 116 129 133
f 116 133 117
f 117 133 118
f 118 133 119
f 122 134 123
f 123 134 135
f 123 135 136
f 123 136 137
f 124 133 129
f 124 129 128
f 124 128 127
f 124 127 126
f 124 126 125
f 130 138 131
f 130 139 144
f 130 144 145
f 130 145 140
f 130 140 138
f 131 138 140
f 136 141 137
f 136 142 141
f 139 143 144
f 141 142 146
f 142 147 148
f 142 148 146
f 143 149 144
f 144 149 147
f 144 147 145
f 147 149 150
f 147 150 148

