o convex_0
v -0.057108 -0.012337 -0.096901
v 0.066308 0.010925 0.095282
v 0.066308 -0.014363 0.095282
v -0.064178 -0.002228 0.097318
v 0.063272 0.013959 -0.097919
v -0.066215 0.013959 -0.094864
v 0.062260 -0.023468 -0.093865
v -0.063179 -0.018408 0.069981
v -0.064178 0.013959 0.096300
v -0.065190 -0.023468 -0.091829
v 0.064284 -0.017396 0.095282
v 0.064284 0.013959 0.096281
v 0.005598 -0.023468 -0.050353
v -0.063179 -0.015374 0.098336
v 0.064284 -0.022453 -0.094864
v 0.043036 -0.005258 0.098336
v -0.066215 -0.018408 -0.079688
v 0.065296 0.007888 -0.044283
v 0.050118 -0.018408 -0.096901
v -0.065190 0.013959 -0.096901
v -0.024730 -0.022453 -0.023055
v -0.064178 -0.016385 0.096300
v -0.065190 0.013959 0.056841
v -0.065190 -0.022453 -0.094864
v -0.018659 -0.010314 -0.097919
v -0.063179 0.011933 0.097318
v 0.064284 0.013959 -0.096901
v 0.062260 -0.014363 0.097318
v 0.061249 -0.023468 -0.085759
v -0.048002 -0.017396 0.093265
v 0.066308 0.013959 0.077070
v -0.066215 0.013959 -0.037194
v 0.005598 0.000806 0.098336
v -0.013600 0.013959 -0.097919
v -0.053061 -0.021441 -0.008878
v 0.065296 -0.010314 -0.039231
v -0.065190 -0.007281 0.041665
v 0.062260 0.001817 -0.097919
v -0.056097 -0.021441 -0.095883
v 0.018752 -0.023468 -0.055425
v 0.063272 -0.022453 -0.095883
v -0.066215 -0.021441 -0.091829
v -0.013600 -0.022453 -0.022037
v -0.062168 -0.004251 0.098336
v -0.032825 -0.007277 -0.097919
v 0.066308 -0.001213 0.070001
v 0.064284 0.003843 0.097318
v 0.065296 -0.018408 0.050771
v -0.063179 -0.023468 -0.086777
v -0.050026 -0.018408 0.071000
v 0.062260 -0.020430 0.007259
v 0.030894 -0.009303 -0.097919
v -0.016636 -0.023468 -0.055425
v 0.066308 -0.015370 0.090229
v 0.030894 -0.010314 0.098336
v -0.064178 -0.023468 -0.093865
v -0.032825 -0.022453 -0.026091
v -0.065190 -0.018408 -0.095883
v -0.066215 0.002828 -0.043265
v 0.063272 -0.016385 -0.096901
v 0.065296 0.000806 -0.047318
v -0.063179 -0.021441 -0.019002
v -0.034848 -0.017396 -0.096901
v 0.009646 -0.016385 0.097318
f 28 14 64 
f 5 6 9 
f 5 9 12 
f 10 7 13 
f 6 5 20 
f 10 8 22 
f 14 4 22 
f 4 9 23 
f 9 6 23 
f 22 4 23 
f 9 4 26 
f 12 9 26 
f 4 14 26 
f 5 12 27 
f 11 3 28 
f 7 11 29 
f 13 7 29 
f 22 8 30 
f 11 22 30 
f 2 3 31 
f 12 2 31 
f 27 12 31 
f 18 27 31 
f 6 17 32 
f 23 6 32 
f 14 16 33 
f 12 26 33 
f 20 5 34 
f 5 25 34 
f 17 22 37 
f 22 23 37 
f 25 5 38 
f 11 13 40 
f 13 29 40 
f 15 7 41 
f 39 19 41 
f 24 39 41 
f 17 6 42 
f 10 22 42 
f 22 17 42 
f 24 10 42 
f 13 11 43 
f 8 21 43 
f 21 13 43 
f 26 14 44 
f 14 33 44 
f 33 26 44 
f 1 20 45 
f 20 34 45 
f 34 25 45 
f 31 3 46 
f 18 31 46 
f 3 2 47 
f 2 12 47 
f 28 3 47 
f 16 28 47 
f 12 33 47 
f 33 16 47 
f 11 7 48 
f 7 15 48 
f 10 13 49 
f 30 8 50 
f 11 30 50 
f 8 43 50 
f 43 11 50 
f 29 11 51 
f 11 40 51 
f 40 29 51 
f 19 25 52 
f 25 38 52 
f 13 21 53 
f 49 13 53 
f 3 11 54 
f 15 36 54 
f 46 3 54 
f 36 46 54 
f 11 48 54 
f 48 15 54 
f 16 14 55 
f 14 28 55 
f 28 16 55 
f 7 10 56 
f 10 24 56 
f 41 7 56 
f 24 41 56 
f 21 8 57 
f 8 35 57 
f 35 49 57 
f 53 21 57 
f 49 53 57 
f 20 1 58 
f 6 20 58 
f 39 24 58 
f 1 39 58 
f 42 6 58 
f 24 42 58 
f 32 17 59 
f 23 32 59 
f 17 37 59 
f 37 23 59 
f 5 27 60 
f 27 15 60 
f 38 5 60 
f 15 41 60 
f 41 19 60 
f 19 52 60 
f 52 38 60 
f 15 27 61 
f 27 18 61 
f 36 15 61 
f 18 46 61 
f 46 36 61 
f 8 10 62 
f 35 8 62 
f 10 49 62 
f 49 35 62 
f 25 19 63 
f 19 39 63 
f 39 1 63 
f 1 45 63 
f 45 25 63 
f 22 11 64 
f 14 22 64 
f 11 28 64 
o convex_1
v 0.000539 0.023067 0.062927
v 0.066308 0.021042 0.094285
v 0.066308 0.013963 0.094285
v 0.063272 0.015987 -0.097897
v -0.064178 0.013963 0.096302
v -0.065190 0.013963 -0.096900
v -0.063166 0.023067 0.096302
v -0.054073 0.016998 -0.094861
v 0.012681 0.015987 0.123627
v 0.064284 0.013963 -0.096900
v 0.061249 0.018010 -0.083736
v 0.062261 0.023067 0.095283
v -0.032825 0.019020 0.123627
v -0.011576 0.021042 -0.004842
v 0.033930 0.014976 0.122608
v 0.041012 0.021042 -0.005839
v -0.063166 0.022054 0.049742
v -0.066215 0.015987 -0.094861
v 0.044048 0.019020 0.116514
v -0.029789 0.015987 0.123627
v -0.043955 0.021042 0.115516
v 0.054166 0.023067 0.099317
v 0.063272 0.016998 -0.096900
v 0.008634 0.019020 0.122608
v -0.065190 0.020032 0.057853
v 0.062261 0.023067 0.088192
v -0.062155 0.023067 0.079105
v 0.046071 0.018010 -0.084755
v -0.066215 0.013963 -0.035159
v 0.018752 0.022054 0.022461
v -0.065190 0.016998 -0.087770
v -0.005506 0.020032 -0.032145
v -0.054073 0.023067 0.100336
v -0.065190 0.015987 -0.096900
v -0.042943 0.018010 0.117533
v 0.064284 0.022054 0.066939
v -0.015624 0.020032 0.120591
v 0.002563 0.014976 0.121588
v 0.034941 0.023067 0.069975
v 0.025835 0.021042 -0.007878
v -0.000459 0.022054 0.024478
v 0.061249 0.020032 -0.020001
v -0.024730 0.021042 0.000211
v -0.012588 0.013963 -0.097919
v 0.057202 0.016998 -0.097897
v -0.064178 0.022054 0.058872
v 0.028870 0.018010 0.122608
v 0.050119 0.022054 0.105389
v 0.064284 0.015987 -0.096900
v -0.064178 0.022054 0.095283
v 0.066308 0.021042 0.085156
v -0.065190 0.013963 0.056855
v 0.064284 0.013963 0.096302
v 0.043036 0.015987 0.117533
v 0.066308 0.013963 0.078086
v 0.040001 0.022054 0.030528
v -0.066215 0.016998 -0.068556
v -0.014612 0.022054 0.108446
v -0.038896 0.016998 0.120569
v -0.046990 0.016998 -0.095880
v 0.063272 0.018010 -0.072611
v 0.063272 0.013963 -0.097897
v 0.065283 0.022054 0.095283
v -0.011576 0.015987 -0.097919
f 126 108 128 
f 67 69 70 
f 67 70 74 
f 65 71 76 
f 73 77 84 
f 79 73 84 
f 76 71 86 
f 65 76 90 
f 71 65 91 
f 70 69 93 
f 82 70 93 
f 81 72 95 
f 72 78 96 
f 71 85 97 
f 86 71 97 
f 70 82 98 
f 95 72 98 
f 82 95 98 
f 71 69 99 
f 85 71 99 
f 77 85 99 
f 85 77 101 
f 77 88 101 
f 69 79 102 
f 84 69 102 
f 79 84 102 
f 65 90 103 
f 94 65 103 
f 80 75 104 
f 75 92 104 
f 78 94 104 
f 94 80 104 
f 96 78 104 
f 92 96 104 
f 91 65 105 
f 78 91 105 
f 94 78 105 
f 65 94 105 
f 75 80 106 
f 80 90 106 
f 90 100 106 
f 78 72 107 
f 72 81 107 
f 91 78 107 
f 81 91 107 
f 74 70 108 
f 70 98 108 
f 87 68 109 
f 75 87 109 
f 92 75 109 
f 71 91 110 
f 91 81 110 
f 81 95 110 
f 77 73 111 
f 73 79 111 
f 79 83 111 
f 88 77 111 
f 88 111 112 
f 83 76 112 
f 76 86 112 
f 86 101 112 
f 101 88 112 
f 111 83 112 
f 74 68 113 
f 68 87 113 
f 69 71 114 
f 89 69 114 
f 71 110 114 
f 110 89 114 
f 66 67 115 
f 69 89 116 
f 93 69 116 
f 89 93 116 
f 69 67 117 
f 79 69 117 
f 67 66 118 
f 66 83 118 
f 83 79 118 
f 117 67 118 
f 79 117 118 
f 67 74 119 
f 74 113 119 
f 115 67 119 
f 113 115 119 
f 90 80 120 
f 80 94 120 
f 103 90 120 
f 94 103 120 
f 82 93 121 
f 93 89 121 
f 95 82 121 
f 89 110 121 
f 110 95 121 
f 97 85 122 
f 86 97 122 
f 85 101 122 
f 101 86 122 
f 69 84 123 
f 84 77 123 
f 99 69 123 
f 77 99 123 
f 72 96 124 
f 96 92 124 
f 98 72 124 
f 109 98 124 
f 92 109 124 
f 87 75 125 
f 75 106 125 
f 106 100 125 
f 113 87 125 
f 100 115 125 
f 115 113 125 
f 68 74 126 
f 74 108 126 
f 83 66 127 
f 76 83 127 
f 90 76 127 
f 100 90 127 
f 66 115 127 
f 115 100 127 
f 108 98 128 
f 98 109 128 
f 109 68 128 
f 68 126 128 
