# https://github.com/mikedh/trimesh
v -0.40385538 -0.17076179 0.37124145
v -0.39765456 -0.04341665 -0.83271313
v -0.38401332 -0.13825932 -0.81440353
v -0.40682620 -0.21826237 -0.68391907
v -0.35369956 -0.12525052 0.63088608
v -0.41625094 -0.02756355 -0.80340356
v -0.42550319 -0.18432571 -0.55349028
v -0.42964327 -0.06182027 0.66487718
v -0.39494878 -0.04707939 -0.83645201
v -0.42691091 -0.19722025 0.60077268
v -0.42295790 0.04268171 0.39707062
v -0.42868215 -0.17840940 0.43693212
v -0.42369685 0.08431908 -0.69042969
v -0.43011245 0.04203435 0.53967959
v -0.37453416 -0.10162448 0.15410337
v -0.41021368 -0.16357335 -0.70206434
v -0.34620157 -0.17844267 0.49127513
v -0.38770595 -0.07427793 -0.84426558
v -0.39485875 -0.05098938 -0.83655202
v -0.39485875 -0.04707939 -0.83657199
v -0.38867816 -0.08016235 -0.64113611
v -0.31083438 -0.13981307 -0.53656733
v -0.38736266 -0.09251933 -0.36404112
v -0.39485875 -0.04208938 -0.83645201
v -0.39213878 -0.04707939 -0.84035200
v -0.39485875 -0.04316938 -0.83648199
v -0.39487877 -0.04316938 -0.83645201
v -0.39273611 -0.03532894 -0.83931595
v -0.42457634 -0.05707727 -0.76896042
v -0.38603637 -0.06289875 0.54894549
v -0.42473403 -0.01709068 0.42265111
v -0.37606296 0.09532612 -0.30940714
v -0.43084034 -0.03914432 -0.49908632
v -0.39871085 0.04077805 0.15311119
v -0.28669235 0.13436615 0.15446693
v -0.36679971 0.13383436 -0.57329595
v -0.27315214 -0.11580401 -0.46571550
v -0.29035914 -0.17024195 -0.48097697
v -0.37919748 -0.09691902 -0.60574520
v -0.38949707 -0.08697128 0.51727670
v -0.35160974 -0.02599803 0.44936457
v -0.37064925 -0.10001981 0.56443977
v -0.37459177 -0.03698511 0.79391527
v -0.36656019 -0.03628324 -0.62879825
v -0.36891654 -0.04846962 -0.68432766
v -0.32479396 0.01976891 -0.69994313
v -0.29719877 0.03892061 -0.75442201
v -0.29329878 0.03885062 -0.75446200
v -0.30014810 0.04345363 -0.75136191
v -0.29329878 -0.16824938 -0.48488200
v -0.28938875 -0.16824938 -0.48488200
v -0.42183048 0.06616718 -0.54253471
v -0.32954705 0.08887260 0.33784905
v -0.32009551 -0.17018189 -0.48180318
v -0.42262360 -0.15078574 -0.43341309
v -0.26919749 -0.19635837 -0.70758724
v -0.31759068 -0.17041434 -0.61651194
v -0.30776843 -0.15864676 0.39801174
v -0.29719877 -0.16816939 -0.48494202
v -0.29329878 0.00369062 -0.77782202
v -0.29329878 0.01540062 -0.77004200
v -0.32233694 -0.11477728 -0.69161373
v -0.29719877 -0.16824938 -0.48488200
v -0.05501877 -0.17598937 0.73378801
v -0.05891877 -0.17598937 0.73377800
v -0.37817547 -0.16211608 0.80903733
v -0.27766877 -0.15248939 -0.71535200
v -0.28157878 -0.15242939 -0.71145201
v -0.27766877 -0.15254939 -0.71530199
v -0.28548878 -0.16816939 -0.48494202
v -0.28157878 -0.16816939 -0.48494202
v -0.28157878 -0.16824938 -0.48488200
v -0.27584007 -0.18555771 0.63186938
v -0.30110875 -0.16824938 -0.48488200
v -0.33721581 -0.01721351 -0.64609909
v -0.32771608 -0.05710070 -0.55654258
v -0.28390408 0.03383310 -0.69706994
v -0.34579641 0.01251138 0.59874368
v -0.31673878 0.01541062 -0.77004200
v -0.31673878 0.01932062 -0.76744199
v -0.31676686 0.01540632 -0.77004200
v -0.26204878 0.00369062 -0.77782202
v -0.25813875 0.00364062 -0.77785200
v -0.25813875 0.00369062 -0.77782202
v -0.31206867 0.00166862 -0.93197274
v -0.30891877 0.01540062 -0.77004200
v -0.42048636 0.05376948 -0.62611163
v -0.29719877 0.03885062 -0.75446200
v -0.29580379 -0.01078211 -0.78737032
v -0.31282878 0.01540062 -0.77004200
v -0.32203051 0.03574180 -0.75694382
v -0.30501878 0.01541062 -0.77004200
v -0.30110875 0.01541062 -0.77004200
v -0.31729710 0.10033929 0.08960640
v -0.30891877 0.03892061 -0.75442201
v -0.30891877 0.01541062 -0.77004200
v -0.30501878 0.03885062 -0.75446200
v -0.30110875 0.03885062 -0.75446200
v -0.30501878 0.03892061 -0.75442201
v -0.30110875 0.03892061 -0.75442201
v -0.26204878 -0.16824938 -0.48488200
v -0.25813875 -0.16824938 -0.48488200
v -0.28157878 0.14034063 0.16744798
v -0.28148296 0.14044620 0.16672727
v -0.28047100 0.14148259 0.15271488
v -0.25813875 0.01541062 -0.77004200
v -0.25423878 0.01540062 -0.77004200
v -0.25423878 0.01541062 -0.77004200
v -0.30501878 -0.16816939 -0.48494202
v -0.22028683 -0.17082082 -0.34105140
v -0.02766877 -0.17598937 0.73391801
v -0.02376877 -0.17679939 0.72603798
v -0.02376877 -0.17599937 0.73385799
v -0.29329878 -0.16816939 -0.48494202
v -0.00382757 -0.14794366 -0.83321929
v -0.30110875 -0.16816939 -0.48494202
v -0.32547185 -0.16619013 -0.48529550
v -0.28938875 -0.16816939 -0.48494202
v -0.28548878 -0.16824938 -0.48488200
v -0.27376878 -0.16824938 -0.48488200
v -0.26985875 -0.16824938 -0.48488200
v -0.27749878 -0.14863940 -0.71926200
v -0.28548878 0.00369062 -0.77782202
v -0.28157878 0.00364062 -0.77785200
v -0.28157878 0.00369062 -0.77782202
v -0.28789011 -0.10583701 0.75983554
v -0.22690955 -0.03533286 -0.79925841
v -0.28225815 -0.12812790 -0.72890425
v -0.30501878 0.01540062 -0.77004200
v -0.30110875 0.01540062 -0.77004200
v -0.24641877 -0.16816939 -0.48494202
v -0.28938875 0.01540062 -0.77004200
v -0.29329878 0.01541062 -0.77004200
v -0.31282878 0.01541062 -0.77004200
v -0.28548878 0.00952062 -0.77395201
v -0.28938875 0.01541062 -0.77004200
v -0.28938875 0.00364062 -0.77785200
v -0.26985875 0.00369062 -0.77782202
v -0.26985875 0.00364062 -0.77785200
v -0.26594877 0.00364062 -0.77785200
v -0.29204631 0.02480486 -0.76379752
v -0.28938875 0.00369062 -0.77782202
v -0.29719877 0.01540062 -0.77004200
v -0.29719877 0.01541062 -0.77004200
v -0.26594877 -0.16816939 -0.48494202
v -0.28548878 0.01541062 -0.77004200
v -0.28548878 0.00364062 -0.77785200
v -0.31282878 0.03892061 -0.75442201
v -0.30891877 0.03885062 -0.75446200
v -0.27175820 -0.06535416 -0.76653588
v -0.25032878 -0.16816939 -0.48494202
v -0.24641877 -0.16824938 -0.48488200
v -0.26985875 0.01540062 -0.77004200
v -0.26985875 0.00952062 -0.77395201
v -0.26594877 0.01540062 -0.77004200
v -0.28560656 0.03885062 -0.75446200
v -0.26594877 0.00369062 -0.77782202
v -0.31846058 0.04010265 -0.75313801
v -0.30110875 0.09355061 -0.62551200
v -0.30110875 0.09354062 -0.62484199
v -0.28580007 0.07488190 -0.70496976
v -0.30110875 0.09354062 -0.62560201
v -0.28967616 0.05922928 -0.51960677
v -0.27376878 0.01541062 -0.77004200
v -0.26985875 0.01541062 -0.77004200
v -0.27766877 0.01541062 -0.77004200
v -0.27376878 0.01540062 -0.77004200
v -0.26204878 0.00364062 -0.77785200
v -0.25032878 0.01541062 -0.77004200
v -0.26594859 0.02322060 -0.76485199
v -0.27181375 0.05454061 -0.73488200
v -0.30000949 -0.11036348 -0.88884246
v -0.30072042 0.08836207 -0.62850022
v -0.28548878 0.09355061 -0.62551200
v -0.30085760 0.09073546 -0.64175886
v -0.29719877 0.09354062 -0.62560201
v -0.28938875 0.09354062 -0.62560201
v -0.29329878 0.09355061 -0.62551200
v -0.29329878 0.09354062 -0.62560201
v -0.29719877 0.09355061 -0.62551200
v -0.25032878 -0.16824938 -0.48488200
v -0.28548878 0.09354062 -0.62560201
v -0.28938875 0.09355061 -0.62551200
v -0.28548878 -0.14973938 -0.71145201
v -0.26204878 0.01541062 -0.77004200
v -0.27181375 -0.00810188 -0.47318700
v -0.24449565 0.14588732 -0.36057636
v -0.25813875 -0.16816939 -0.48494202
v -0.26034328 -0.16427024 -0.48487189
v -0.25423878 -0.16816939 -0.48494202
v -0.25423878 -0.16824938 -0.48488200
v -0.27376878 -0.16816939 -0.48494202
v -0.26985875 -0.16816939 -0.48494202
v -0.26594877 -0.16824938 -0.48488200
v -0.27766877 -0.16824938 -0.48488200
v -0.27766877 -0.16816939 -0.48494202
v -0.27052218 -0.18357909 -0.53462923
v -0.26204878 -0.16816939 -0.48494202
v -0.27762833 -0.15257154 -0.71533805
v -0.24251877 -0.16824938 -0.48488200
v -0.25423640 -0.17024116 -0.48097849
v -0.24251877 0.00364062 -0.77785200
v -0.22671382 0.00673354 -0.77585965
v -0.31812543 -0.01501855 -0.79015881
v -0.28157654 -0.15254389 -0.71132958
v -0.26970461 -0.00233076 -0.50372493
v -0.27376878 0.00364062 -0.77785200
v -0.27376878 0.00369062 -0.77782202
v -0.26204878 0.01540062 -0.77004200
v -0.26594877 0.01541062 -0.77004200
v -0.25423878 0.00364062 -0.77785200
v -0.27766877 0.00369062 -0.77782202
v -0.27766877 0.01540062 -0.77004200
v -0.23860876 -0.16824938 -0.48488200
v -0.28157878 0.01540062 -0.77004200
v -0.28548878 0.01540062 -0.77004200
v -0.27766877 0.00364062 -0.77785200
v -0.25423878 0.00369062 -0.77782202
v -0.25423878 0.00952062 -0.77395201
v -0.25813875 0.01540062 -0.77004200
v -0.28157878 0.01541062 -0.77004200
v -0.22486177 0.03692891 -0.75812823
v -0.41358164 -0.05175614 -0.44778001
v -0.22518335 0.01480255 -0.76982194
v -0.24641877 0.01540062 -0.77004200
v -0.24641877 0.00369062 -0.77782202
v -0.27679452 0.09145294 -0.63800657
v -0.28157878 0.09354062 -0.62560201
v -0.26204878 0.08963062 -0.64892203
v -0.25877124 0.08949957 -0.65008861
v -0.25813875 0.08962062 -0.64895201
v -0.25813875 0.08963062 -0.64892203
v -0.25423878 0.08962062 -0.64895201
v -0.29040390 0.09321984 -0.62020218
v -0.24641877 0.01541062 -0.77004200
v -0.22516015 0.08997791 -0.64735609
v -0.28157878 0.09355061 -0.62551200
v -0.27766877 0.09355061 -0.62551200
v -0.27376878 0.09355061 -0.62551200
v -0.25423878 0.08963062 -0.64892203
v -0.24641877 0.00364062 -0.77785200
v -0.22833273 0.09383629 -0.60478950
v -0.27766877 0.09354062 -0.62560201
v -0.27376878 0.09354062 -0.62560201
v -0.26985875 0.09354062 -0.62560201
v -0.26985875 0.09355061 -0.62551200
v -0.26594877 0.09354062 -0.62560201
v -0.26594877 0.09355061 -0.62551200
v -0.26594728 0.09347315 -0.62165612
v -0.24251877 0.01540062 -0.77004200
v -0.26204878 0.09354062 -0.62560201
v -0.27767876 0.14432061 0.12057799
v -0.27772877 0.14432061 0.12447799
v -0.27777877 0.14432061 0.12838797
v -0.27841708 0.14362469 0.13160664
v -0.27766877 0.14444061 0.12838797
v -0.27435878 0.14822061 0.12447799
v -0.27766877 0.14433061 0.12057799
v -0.27766877 0.14439061 0.12447799
v -0.28154880 0.14041062 0.17135799
v -0.27819878 0.14432061 0.17135799
v -0.28157878 0.14037061 0.17135799
v -0.28157878 0.14040060 0.17525800
v -0.28156877 0.14041062 0.17525800
v -0.28182408 0.14017546 0.18672822
v -0.24251877 -0.16816939 -0.48494202
v -0.22414681 -0.16422033 -0.48508573
v -0.25032878 0.00369062 -0.77782202
v -0.25032878 0.00364062 -0.77785200
v -0.25032878 0.01540062 -0.77004200
v -0.23907170 0.09013625 -0.64684004
v -0.25032878 0.08962062 -0.64895201
v -0.22481680 -0.02315697 -0.46267414
v -0.40617868 0.07605300 0.66479820
v -0.15176335 0.07752086 0.59565872
v -0.29354975 0.12645485 -0.83616781
v -0.22459629 0.09185067 -0.61550593
v -0.10359881 0.13744549 -0.76714969
v -0.23779123 0.19061200 0.08749504
v -0.18372144 0.21298054 -0.15123403
v -0.20342995 0.21233957 0.17982180
v -0.04428656 -0.17803489 0.71389490
v -0.22379768 -0.16601337 -0.62140799
v -0.07063877 -0.17598937 0.73371798
v -0.07063877 -0.17596939 0.73385799
v -0.07454877 -0.17598937 0.73369801
v -0.21657006 -0.16309571 -0.79385763
v -0.06673877 -0.17598937 0.73373801
v -0.06673877 -0.17596939 0.73385799
v -0.19242081 -0.07306252 -0.91737062
v -0.03938877 -0.17598937 0.73386800
v -0.03548877 -0.17598937 0.73388797
v -0.08713350 -0.17445619 0.74860179
v -0.02857527 -0.08151143 0.90938342
v -0.00372487 -0.09827424 -0.93190569
v -0.05110877 -0.17597938 0.73385799
v -0.04291296 -0.14929147 -0.82658428
v -0.04198877 -0.17598937 0.73385799
v -0.04329877 -0.17598937 0.73385799
v -0.06282877 -0.17598937 0.73375797
v -0.03548877 -0.17598937 0.73385799
v -0.03938877 -0.17598937 0.73385799
v -0.05501877 -0.17597938 0.73385799
v -0.05891877 -0.17597938 0.73385799
v -0.04719877 -0.14863940 -0.82856202
v -0.13012034 -0.12572485 -0.89142305
v -0.04613406 -0.14747025 -0.83254194
v -0.06282877 -0.17597938 0.73385799
v -0.04329877 -0.14863940 -0.82862198
v -0.02376877 -0.17598937 0.73393798
v -0.05110877 -0.14859939 -0.82863200
v -0.01985877 -0.17599937 0.73385799
v -0.01985877 -0.17719939 0.72213799
v -0.01594877 -0.17599937 0.73385799
v -0.04329877 -0.14863940 -0.82863200
v -0.04719877 -0.14861938 -0.82863200
v -0.05160169 0.14219032 -0.63654506
v -0.04329877 0.13651063 -0.69973201
v -0.03938877 0.13651063 -0.69973201
v -0.04329877 0.13650063 -0.69975203
v -0.03548877 0.13651063 -0.69973201
v -0.03548877 0.13650063 -0.69979203
v -0.03938877 0.13650063 -0.69977200
v -0.01594877 0.13652062 -0.69973201
v -0.03157877 0.13650063 -0.69981200
v -0.03157877 0.13651063 -0.69973201
v -0.02766877 0.13651063 -0.69973201
v -0.05992531 0.13451535 -0.72359443
v -0.04245877 -0.14863940 -0.82863200
v -0.05213842 -0.17523172 0.74115163
v -0.04719877 -0.17598937 0.73382801
v -0.04329877 -0.17598937 0.73384798
v 0.01564144 -0.18157697 0.67952329
v -0.04719877 -0.17597938 0.73385799
v -0.05110877 -0.17598937 0.73380798
v 0.02310123 -0.17598937 0.73385799
v 0.01919123 -0.17598937 0.73385799
v -0.01985877 0.13652062 -0.69973201
v -0.00423877 -0.17598937 0.73402798
v -0.00813877 -0.17598937 0.73401797
v -0.00423877 -0.17599937 0.73385799
v -0.01204877 -0.17598937 0.73399800
v -0.00813877 -0.17599937 0.73385799
v -0.03157877 -0.17678937 0.72603798
v -0.02766877 0.13650063 -0.69983202
v -0.02376877 0.13650063 -0.69985199
v -0.04646877 0.13650063 -0.69973201
v -0.02376877 0.13651063 -0.69973201
v -0.01985877 0.13650063 -0.69987202
v -0.01083465 0.13652229 -0.69869357
v 0.07950969 -0.13684925 -0.86395127
v -0.22249612 -0.17063655 -0.48442292
v 0.01529123 -0.17599937 0.73385799
v 0.01138123 -0.17599937 0.73385799
v -0.01985877 -0.17598937 0.73395801
v 0.00357123 -0.17599937 0.73385799
v -0.00033877 -0.17599937 0.73385799
v -0.01463437 -0.17122538 0.78034204
v -0.00813877 -0.17680939 0.72603798
v -0.03157877 -0.17598937 0.73385799
v -0.03157877 -0.17598937 0.73390800
v -0.01594877 -0.17598937 0.73397797
v -0.02766877 -0.17598937 0.73385799
v -0.01204877 -0.17599937 0.73385799
v 0.03283736 -0.14681116 -0.83456993
v 0.02325774 -0.17431530 0.75016910
v 0.02310123 -0.17598937 0.73390800
v 0.15328059 0.16179723 -0.53905141
v -0.01073864 0.00925782 0.83235204
v 0.03384238 0.07026133 0.62023813
v -0.01171550 0.10511431 -0.92259556
v -0.01351376 0.13650236 -0.69987690
v -0.00554766 0.13654806 -0.69895935
v 0.01529123 0.13582063 -0.70754200
v 0.01529123 -0.17598937 0.73393798
v 0.01919123 -0.17598937 0.73391801
v 0.02701123 -0.17598937 0.73388797
v 0.00747123 -0.17599937 0.73385799
v 0.01529123 0.13650063 -0.69985199
v 0.01529123 0.13651063 -0.69973201
v 0.01919123 0.13651063 -0.69973201
v 0.01919123 0.13650063 -0.69983202
v -0.00101982 0.13474742 -0.71983820
v 0.28482124 -0.16824938 -0.48488200
v 0.28872123 -0.16824938 -0.48488200
v 0.27773431 -0.17023933 -0.48098210
v 0.01138123 0.13652062 -0.69973201
v 0.05287504 0.14197682 -0.63951033
v -0.00033877 -0.17598937 0.73401797
v 0.26018035 -0.18429269 0.43608156
v 0.03872123 -0.15108939 -0.82082200
v 0.03872123 -0.14861938 -0.82863200
v 0.03872123 -0.14863940 -0.82856202
v 0.00747123 -0.17598937 0.73397797
v 0.01138123 -0.17598937 0.73395801
v 0.02701123 -0.17598937 0.73385799
v 0.00357123 -0.17598937 0.73399800
v 0.03398123 -0.14863940 -0.82863200
v 0.03482123 -0.14863940 -0.82863200
v 0.03482123 -0.14863940 -0.82862198
v -0.01064304 -0.13617553 0.98971421
v 0.02310123 0.13650063 -0.69981200
v 0.01138123 0.13650063 -0.69987202
v 0.02310123 0.13651063 -0.69973201
v -0.00272904 0.13649900 -0.69992274
v 0.02701123 0.13651063 -0.69973201
v 0.02107885 0.13529108 -0.71350110
v 0.00357123 0.13650063 -0.69990200
v 0.00747123 0.13650063 -0.69988203
v 0.00591516 0.13652006 -0.69973636
v 0.02701123 0.13650063 -0.69979203
v 0.03534024 -0.17678665 0.72606504
v -0.27221283 -0.18131204 0.39142150
v 0.03872123 -0.17598937 0.73382801
v 0.03872123 -0.17597938 0.73385799
v 0.03482123 -0.17598937 0.73384798
v 0.03482123 -0.17598937 0.73385799
v 0.03872123 -0.17517939 0.74166799
v 0.03351123 -0.17598937 0.73385799
v 0.03091123 -0.17598937 0.73385799
v 0.05044123 -0.17597938 0.73385799
v 0.05435123 -0.17597938 0.73385799
v 0.05867123 -0.17600740 0.73356342
v 0.05607833 -0.17598338 0.73378128
v 0.03091123 -0.17598937 0.73386800
v 0.05044123 -0.17598937 0.73377800
v 0.04263123 -0.17597938 0.73385799
v 0.04263123 -0.17598937 0.73380798
v 0.04654123 -0.17597938 0.73385799
v 0.04654123 -0.17598937 0.73378801
v 0.08653579 0.13431112 -0.76415330
v 0.03091123 0.13582063 -0.70754200
v 0.03799123 0.13650063 -0.69973201
v 0.03482123 0.13650063 -0.69975203
v 0.03091123 0.13650063 -0.69977200
v 0.03482123 0.13651063 -0.69973201
v 0.03091123 0.13651063 -0.69973201
v 0.22181556 0.19825944 0.20551635
v 0.26292700 -0.17273359 -0.51835787
v 0.24966122 -0.16824938 -0.48488200
v 0.25357124 -0.16824938 -0.48488200
v 0.06353591 -0.17207392 0.77176857
v -0.06564409 -0.15993424 -0.79258329
v 0.26138121 -0.16824938 -0.48488200
v 0.26138121 -0.16816939 -0.48494202
v 0.26529124 -0.16824938 -0.48488200
v 0.25747123 -0.16816939 -0.48494202
v 0.20844665 -0.17893222 -0.51073110
v 0.26138121 -0.16426937 -0.48487201
v 0.28091121 -0.16816939 -0.48494202
v 0.28482124 -0.16816939 -0.48494202
v 0.24362865 -0.16598785 -0.48126107
v 0.28872123 -0.16816939 -0.48494202
v 0.29263121 -0.16824938 -0.48488200
v 0.25357124 -0.16816939 -0.48494202
v 0.25747123 -0.16824938 -0.48488200
v 0.28091121 -0.16824938 -0.48488200
v 0.30326569 -0.17095120 -0.47622246
v 0.31041774 -0.16572788 -0.48539728
v 0.07929128 -0.09306512 0.88555437
v -0.00821585 -0.07137627 0.98622304
v 0.24902043 -0.18262874 0.65019768
v 0.26919121 -0.16824938 -0.48488200
v 0.12060961 0.01304884 -0.97937411
v -0.01098829 0.03489246 -0.99681520
v 0.27103987 0.08015835 -0.87815171
v 0.32732967 0.05572017 0.71681541
v 0.24576123 -0.16816939 -0.48494202
v 0.27310121 -0.16816939 -0.48494202
v 0.28109476 -0.16427076 -0.48487204
v 0.24966122 -0.16816939 -0.48494202
v 0.21344660 -0.12676705 -0.47308654
v 0.18212987 -0.10137351 -0.90528172
v 0.27310121 -0.16824938 -0.48488200
v 0.29263121 -0.16816939 -0.48494202
v 0.29654124 -0.16824938 -0.48488200
v 0.24185123 -0.16816939 -0.48494202
v 0.24576123 -0.16824938 -0.48488200
v 0.23013122 0.01540062 -0.77004200
v 0.24185123 0.02322061 -0.76485199
v 0.24966122 0.02128062 -0.76613200
v 0.25656843 0.09022892 0.48769733
v 0.27701122 -0.16824938 -0.48488200
v 0.24185123 0.09355061 -0.62551200
v 0.24576123 0.09355061 -0.62551200
v 0.39419121 0.08964062 0.51900798
v 0.39426121 0.08963062 0.51510799
v 0.26529124 -0.16816939 -0.48494202
v 0.26919121 -0.16816939 -0.48494202
v 0.29888752 -0.10666792 -0.52519947
v 0.22622123 0.01541062 -0.77004200
v 0.24185123 0.01540062 -0.77004200
v 0.24185123 0.01541062 -0.77004200
v 0.23794124 0.01541062 -0.77004200
v 0.23967937 0.04118820 -0.92521667
v 0.23404123 0.02128062 -0.76613200
v 0.25357124 0.01541062 -0.77004200
v 0.25357124 0.01540062 -0.77004200
v 0.25747123 0.01540062 -0.77004200
v 0.23794124 0.01540062 -0.77004200
v 0.21603626 0.01160636 -0.77255857
v 0.26138121 0.00369062 -0.77782202
v 0.26919371 0.00760062 -0.77523202
v 0.21777971 0.04322644 -0.75164479
v 0.26919121 0.00369062 -0.77782202
v 0.27310121 0.00364062 -0.77785200
v 0.27310121 0.00369062 -0.77782202
v 0.23013122 0.01541062 -0.77004200
v 0.23581105 0.03070497 -0.75987577
v 0.23404123 0.01540062 -0.77004200
v 0.26138121 0.05447062 -0.90654200
v 0.23404123 0.01541062 -0.77004200
v 0.24576123 0.01541062 -0.77004200
v 0.24576123 0.01540062 -0.77004200
v 0.25989339 0.06300245 -0.89883500
v 0.26138121 0.05838061 -0.90285200
v 0.26144943 0.05836571 -0.90285128
v 0.21664259 0.02434573 -0.76326656
v 0.21584316 0.05399563 -0.73385483
v 0.39732495 0.08577175 0.59355497
v 0.21581629 0.08798698 -0.67126000
v 0.26138121 0.01540062 -0.77004200
v 0.26529124 0.03892061 -0.75442201
v 0.25027403 0.08966036 -0.64880669
v 0.21621913 0.09022537 -0.60706812
v 0.25344452 0.08962744 -0.64893150
v 0.26136121 0.05838061 -0.90285200
v 0.24966122 0.09355061 -0.62551200
v 0.28061607 0.09185179 -0.59839529
v 0.25747123 0.01541062 -0.77004200
v 0.25747123 0.02322061 -0.76485199
v 0.27106538 0.09017931 -0.64669800
v 0.24576123 0.09354062 -0.62560201
v 0.27701122 -0.16816939 -0.48494202
v 0.26730272 -0.21027471 -0.61220628
v 0.26529124 0.00369062 -0.77782202
v 0.34126031 -0.06870978 0.45081794
v 0.26541108 -0.17614207 -0.74629831
v 0.26919121 0.00364062 -0.77785200
v 0.29723328 -0.11931669 0.76520449
v 0.26529124 0.00364062 -0.77785200
v 0.32089153 0.04058807 -0.89396679
v 0.31049722 0.02667808 -0.49339482
v 0.34002408 -0.16994746 0.59099072
v 0.24740224 0.00492183 -0.77703309
v 0.25747123 0.00369062 -0.77782202
v 0.26138121 0.06229062 -0.89910203
v 0.24966122 0.01541062 -0.77004200
v 0.27701122 0.00364062 -0.77785200
v 0.27701122 0.00369062 -0.77782202
v 0.26138121 0.01541062 -0.77004200
v 0.24966122 0.03892061 -0.75442201
v 0.25357124 0.03885062 -0.75446200
v 0.25357124 0.03892061 -0.75442201
v 0.26529124 0.03885062 -0.75446200
v 0.26138121 0.03892061 -0.75442201
v 0.26138121 0.03885062 -0.75446200
v 0.25747123 0.03885062 -0.75446200
v 0.26529124 0.01540062 -0.77004200
v 0.26919121 0.01540062 -0.77004200
v 0.26529124 0.01541062 -0.77004200
v 0.26919121 0.01541062 -0.77004200
v 0.26138121 0.00364062 -0.77785200
v 0.21688820 -0.02719301 -0.79504615
v 0.24966122 0.01540062 -0.77004200
v 0.27701122 0.01540062 -0.77004200
v 0.27310121 0.01540062 -0.77004200
v 0.40603769 -0.04623162 -0.44999751
v 0.21524921 0.05338718 -0.50965124
v 0.30734596 -0.06813753 -0.91586792
v 0.26919121 0.03885062 -0.75446200
v 0.27310121 0.01541062 -0.77004200
v 0.26154041 0.06231008 -0.89902383
v 0.27701122 0.01541062 -0.77004200
v 0.26919800 0.03892041 -0.75442082
v 0.25747123 0.03892061 -0.75442201
v 0.28092012 0.03752740 -0.66956109
v 0.27825999 0.04679716 -0.74474633
v 0.28091121 0.01541062 -0.77004200
v 0.28482124 0.01541062 -0.77004200
v 0.28324252 0.08310132 -0.68898606
v 0.28704247 0.09185949 -0.63534486
v 0.29263121 0.00364062 -0.77785200
v 0.29654124 0.00364062 -0.77785200
v 0.29263121 0.00369062 -0.77782202
v 0.19214658 0.21331853 -0.03697827
v 0.25955454 -0.15047221 -0.79888725
v 0.32388121 -0.12500937 -0.53567201
v 0.31997123 -0.12507939 -0.53567201
v 0.29092452 -0.16312763 0.86506879
v 0.35122123 -0.19551937 0.62066799
v 0.31606373 -0.12524910 -0.53569210
v 0.31660351 -0.07433891 -0.51522470
v 0.34435183 -0.05755647 -0.67635590
v 0.28872123 0.00364062 -0.77785200
v 0.28482124 0.00364062 -0.77785200
v 0.29263121 0.01540062 -0.77004200
v 0.28872123 0.01541062 -0.77004200
v 0.28091121 0.00364062 -0.77785200
v 0.26445895 -0.06022354 -0.77546632
v 0.29654124 0.00369062 -0.77782202
v 0.28482124 0.00369062 -0.77782202
v 0.27558866 0.02167635 -0.76587301
v 0.35784900 -0.20735823 0.60127860
v 0.28872123 0.01540062 -0.77004200
v 0.28872123 0.00369062 -0.77782202
v 0.28091121 0.01540062 -0.77004200
v 0.28482124 0.01540062 -0.77004200
v 0.30435124 0.00760062 -0.77523202
v 0.30435121 0.00364062 -0.77785200
v 0.30687067 0.01839523 -0.76863748
v 0.30044121 0.00369062 -0.77782202
v 0.30044121 0.01540062 -0.77004200
v 0.30435121 0.00369062 -0.77782202
v 0.30826122 0.00364062 -0.77785200
v 0.32253239 -0.04199825 -0.60652328
v 0.28091121 0.00369062 -0.77782202
v 0.30044121 0.00364062 -0.77785200
v 0.42041123 -0.21443710 -0.68089515
v 0.28106090 0.12725565 -0.84079516
v 0.31606421 -0.12519953 -0.53567910
v 0.34565565 0.13928017 -0.60066158
v 0.30971357 -0.17344287 -0.64083964
v 0.27465135 -0.04544222 -0.46756920
v 0.31997123 -0.12520938 -0.53574198
v 0.31607124 -0.12520938 -0.53567201
v 0.35513121 -0.19553939 0.62057799
v 0.35513121 -0.19551937 0.62059802
v 0.35107964 -0.19555271 0.62062228
v 0.36255071 -0.19226855 0.62443084
v 0.30642232 -0.10820703 -0.70454687
v 0.39630085 -0.15905648 -0.80139822
v 0.39912108 -0.16609962 0.46812025
v 0.34628794 -0.09561261 -0.60448664
v 0.35660121 -0.19551937 0.62057799
v 0.29429406 0.02493511 -0.68437433
v 0.34077582 0.02547696 -0.88572288
v 0.32987258 0.04096187 -0.63701200
v 0.38638121 -0.12529939 -0.14895201
v 0.38638121 -0.12539940 -0.14504202
v 0.38936365 -0.13007469 -0.15502965
v 0.35163191 0.06199055 -0.83830661
v 0.35509124 0.04666062 -0.84817201
v 0.35245121 0.04275061 -0.85598201
v 0.35513121 0.04275061 -0.85205203
v 0.35513121 0.04660062 -0.84817201
v 0.35523894 0.04247648 -0.85221142
v 0.32266498 0.09310956 0.35151532
v 0.36235183 0.12006599 -0.45122004
v 0.35626999 -0.13953760 -0.54349977
v 0.42089406 -0.17992061 0.70424265
v 0.37019476 -0.11977570 0.33097744
v 0.34220693 0.01596211 0.48154551
v 0.38637123 -0.12520938 -0.15285201
v 0.38635311 -0.12520631 -0.15285322
v 0.37073925 -0.03527199 0.79170024
v 0.33419991 -0.06637701 -0.74529815
v 0.36821938 -0.04837062 -0.59660453
v 0.36684927 -0.08894634 0.10999820
v 0.27735233 -0.04246888 -0.79798746
v 0.35511121 0.04275061 -0.85207200
v 0.35513121 0.05045061 -0.84426200
v 0.34587732 0.04253367 -0.75518024
v 0.41348401 -0.02959663 -0.73641759
v 0.36719102 -0.05385261 0.54068869
v 0.35523719 0.04649005 -0.84811455
v 0.40735596 -0.22398503 0.55564570
v 0.27661008 0.02535959 -0.56138819
v 0.36459756 0.08813530 -0.21167366
v 0.29420078 0.11473110 -0.07539585
v 0.40671396 0.08622214 -0.67745030
v 0.40735650 -0.10782798 0.69060683
v 0.38761321 0.09146835 0.51605594
v 0.39029124 0.10908061 -0.62551200
v 0.39029124 0.10915062 -0.62160200
v 0.40591523 -0.17678581 0.33586422
v 0.41877660 -0.18369761 -0.54407775
v 0.38638121 -0.12520938 -0.15285201
v 0.38386032 -0.12108233 -0.14010762
v 0.41292733 -0.14520931 -0.37010375
v 0.40534475 -0.15959282 -0.09096202
v 0.38924780 0.04237610 0.13961089
v 0.41265157 -0.18273136 0.58979392
v 0.40970197 -0.16356508 -0.70287293
v 0.38625801 -0.07653933 -0.31597108
v 0.38632122 -0.12520938 -0.14895201
v 0.37038690 -0.09624851 0.51419258
v 0.37306440 -0.09691551 0.55288130
v 0.40604234 -0.16117910 -0.47442850
v 0.38899237 -0.10838591 -0.60254258
v 0.38062724 -0.11351370 -0.26043773
v 0.42054042 -0.16356206 0.62443924
v 0.40176967 -0.15309256 0.38364714
v 0.40964466 -0.01537865 -0.80375612
v 0.41908807 -0.03688345 0.64885384
v 0.33543593 -0.03302821 0.63422900
v 0.37791899 -0.04555589 -0.63296694
v 0.40276533 -0.17063704 0.17157637
v 0.40472054 -0.16690259 0.10240199
v 0.41035277 -0.06201914 -0.79714888
v 0.39771342 0.03075068 0.27693453
v 0.40392783 0.02634886 0.70406276
v 0.41329736 0.06271442 -0.73525113
v 0.41198167 0.05733560 -0.62032241
v 0.41053772 0.06161671 -0.52013552
v 0.42319238 0.00740278 -0.51306957
v 0.39800769 0.08814547 0.51577455
v 0.38638121 0.11190061 -0.62160200
v 0.38722616 0.11050684 -0.63772064
v 0.39029124 0.10890061 -0.62942201
v 0.39017123 0.10916062 -0.62551200
v 0.40673277 0.08614371 -0.58135128
v 0.39422372 0.08964083 0.51502931
v 0.39029124 0.10916062 -0.62106198
v 0.39423123 0.08963062 0.51900798
v 0.39419121 0.08963062 0.52033800
v 0.41024473 0.07530322 0.49439415
v 0.38247123 0.11441062 -0.62551200
v 0.39209202 0.10795559 -0.61702091
v 0.39027122 0.10916062 -0.62160200
v 0.41982856 -0.18719730 0.44571370
v 0.42300397 -0.12028524 -0.74605143
v 0.42079604 -0.04587042 -0.49692327
v 0.39409342 -0.05577198 0.48767138
v 0.41954955 -0.04369170 0.41109172
v 0.42363530 0.04349585 0.54365957
v 0.42237067 0.06378869 -0.66111636
f 16 4 7
f 4 16 29
f 14 8 274
f 13 87 52
f 29 56 4
f 55 223 117
f 17 12 10
f 19 18 2
f 19 9 20
f 23 55 1
f 11 1 58
f 5 10 8
f 10 73 8
f 2 28 24
f 19 20 25
f 18 19 25
f 20 9 25
f 9 20 26
f 2 24 27
f 1 11 34
f 40 42 30
f 9 19 2
f 27 20 9
f 28 2 6
f 28 26 24
f 3 6 2
f 20 27 26
f 3 2 18
f 27 9 2
f 18 25 28
f 85 18 28
f 24 26 27
f 9 26 28
f 25 9 28
f 44 45 21
f 39 33 21
f 21 33 44
f 76 21 33
f 39 76 33
f 66 274 8
f 43 274 66
f 6 85 28
f 223 32 52
f 32 223 55
f 55 23 32
f 85 6 13
f 32 23 34
f 29 13 158
f 163 52 33
f 4 197 7
f 17 10 5
f 8 73 66
f 58 1 413
f 41 12 17
f 33 22 7
f 1 15 23
f 31 12 41
f 3 18 85
f 15 34 23
f 34 15 1
f 33 21 76
f 76 44 33
f 13 6 91
f 29 77 13
f 47 48 49
f 8 14 78
f 276 85 13
f 13 91 158
f 33 206 163
f 206 33 52
f 94 34 11
f 55 110 1
f 13 161 158
f 87 13 77
f 34 94 32
f 53 11 274
f 78 14 31
f 276 13 36
f 52 36 13
f 36 52 32
f 32 94 187
f 10 12 73
f 56 16 7
f 7 22 56
f 4 56 197
f 54 55 117
f 110 55 54
f 56 29 150
f 16 56 29
f 89 60 61
f 62 57 39
f 33 7 197
f 38 63 50
f 413 1 110
f 17 40 41
f 40 17 42
f 282 64 65
f 3 85 172
f 62 39 45
f 45 39 21
f 67 68 69
f 128 68 67
f 39 57 76
f 206 33 197
f 223 37 117
f 70 37 71
f 72 70 71
f 66 126 43
f 150 62 46
f 45 46 62
f 38 74 63
f 30 41 40
f 5 8 78
f 62 75 76
f 150 29 158
f 63 59 50
f 44 46 45
f 22 33 206
f 30 42 78
f 91 6 204
f 81 79 80
f 91 81 80
f 204 81 91
f 44 76 46
f 163 223 52
f 82 83 84
f 41 30 78
f 13 158 161
f 88 48 47
f 78 31 41
f 79 81 90
f 81 204 90
f 92 93 91
f 206 52 87
f 53 94 11
f 158 95 49
f 96 92 91
f 97 98 99
f 141 88 98
f 100 88 47
f 101 102 201
f 275 53 274
f 106 107 108
f 36 32 187
f 111 112 113
f 38 54 74
f 38 50 51
f 58 73 12
f 50 114 51
f 116 109 37
f 74 109 116
f 114 59 37
f 50 59 114
f 70 118 37
f 119 118 70
f 38 51 119
f 59 116 37
f 63 116 59
f 51 118 119
f 118 114 37
f 51 114 118
f 74 116 63
f 54 109 74
f 109 117 37
f 109 54 117
f 267 37 273
f 38 120 121
f 57 62 76
f 150 29 128
f 123 124 125
f 129 130 92
f 37 223 273
f 204 6 127
f 61 132 133
f 6 3 127
f 86 204 89
f 90 86 134
f 129 86 89
f 96 134 86
f 150 46 62
f 38 119 72
f 80 134 96
f 92 96 129
f 61 60 135
f 132 61 135
f 90 204 86
f 79 90 134
f 133 136 141
f 92 130 93
f 138 139 140
f 150 158 161
f 99 100 49
f 98 97 141
f 60 137 142
f 60 142 135
f 93 143 144
f 143 61 144
f 46 75 62
f 98 88 100
f 156 49 48
f 76 75 46
f 156 48 141
f 136 146 141
f 147 137 89
f 158 91 148
f 129 89 130
f 147 123 142
f 137 147 142
f 133 144 61
f 80 79 134
f 80 96 91
f 129 96 86
f 150 77 29
f 142 123 135
f 97 95 149
f 89 137 60
f 136 133 132
f 93 130 143
f 141 97 149
f 93 144 91
f 143 130 89
f 143 89 61
f 91 133 141
f 144 133 91
f 48 88 141
f 149 95 148
f 148 95 158
f 151 131 152
f 189 131 151
f 153 154 155
f 141 149 91
f 99 98 100
f 149 148 91
f 95 99 49
f 95 97 99
f 100 47 49
f 82 154 157
f 159 234 160
f 205 56 199
f 106 108 170
f 164 165 170
f 164 166 167
f 140 127 168
f 108 169 170
f 234 163 160
f 175 176 162
f 206 87 77
f 173 163 161
f 177 178 179
f 179 180 176
f 175 177 179
f 182 174 183
f 174 234 183
f 185 106 170
f 182 177 175
f 183 177 182
f 234 159 180
f 159 162 176
f 159 176 180
f 178 234 180
f 179 178 180
f 175 179 176
f 234 178 183
f 178 177 183
f 35 94 53
f 188 189 190
f 191 188 190
f 121 192 193
f 192 37 193
f 29 184 128
f 145 193 189
f 193 145 194
f 195 38 72
f 193 194 121
f 128 184 68
f 192 196 37
f 120 196 192
f 195 120 38
f 195 196 120
f 194 145 101
f 196 71 37
f 196 195 71
f 184 205 68
f 56 205 184
f 194 101 201
f 197 56 22
f 29 56 184
f 193 37 189
f 198 145 189
f 101 145 198
f 191 181 201
f 102 101 198
f 120 192 121
f 119 70 72
f 152 200 201
f 195 72 71
f 121 201 38
f 121 194 201
f 102 188 191
f 38 201 110
f 202 127 203
f 201 102 191
f 54 38 110
f 188 198 189
f 188 102 198
f 66 73 401
f 56 128 122
f 69 205 199
f 67 69 199
f 69 68 205
f 67 199 122
f 199 56 122
f 128 67 122
f 135 123 125
f 189 37 267
f 138 140 157
f 56 150 128
f 207 139 208
f 155 209 210
f 83 211 84
f 206 197 22
f 165 164 153
f 89 124 147
f 212 213 135
f 214 267 352
f 213 167 166
f 212 208 154
f 139 127 140
f 207 89 139
f 49 156 222
f 204 127 89
f 215 146 216
f 125 217 212
f 211 218 84
f 208 139 138
f 135 125 212
f 147 124 123
f 83 82 168
f 216 136 132
f 216 132 135
f 215 216 135
f 219 220 209
f 171 49 222
f 212 207 208
f 213 221 215
f 215 221 146
f 216 146 136
f 165 153 155
f 157 168 82
f 211 83 127
f 221 213 166
f 213 212 154
f 135 213 215
f 223 163 186
f 186 273 223
f 163 273 186
f 124 217 125
f 107 106 220
f 89 207 217
f 167 213 154
f 167 154 153
f 89 127 139
f 165 210 170
f 164 167 153
f 124 89 217
f 208 138 154
f 217 207 212
f 154 209 155
f 210 209 185
f 107 220 219
f 140 168 157
f 154 138 157
f 166 164 170
f 154 82 209
f 225 226 203
f 141 170 222
f 221 166 170
f 146 221 170
f 141 146 170
f 168 127 83
f 220 106 185
f 210 185 170
f 218 219 84
f 209 82 219
f 227 228 175
f 219 82 84
f 165 155 210
f 220 185 209
f 229 227 161
f 156 141 222
f 161 49 171
f 150 161 77
f 158 49 161
f 171 222 161
f 229 230 231
f 232 231 233
f 174 228 237
f 249 238 239
f 232 233 240
f 241 202 226
f 232 227 229
f 228 182 175
f 229 231 232
f 77 161 163
f 230 229 161
f 243 238 237
f 234 242 163
f 243 228 227
f 239 244 245
f 174 182 228
f 246 247 248
f 230 233 231
f 206 77 163
f 238 234 237
f 247 246 245
f 232 240 227
f 249 246 248
f 163 242 273
f 244 243 227
f 224 250 203
f 245 244 227
f 236 230 161
f 161 227 175
f 238 243 244
f 243 237 228
f 239 246 249
f 227 247 245
f 227 251 247
f 271 251 227
f 246 239 245
f 242 251 271
f 234 174 237
f 238 249 234
f 238 244 239
f 251 248 247
f 251 242 248
f 242 249 248
f 94 280 187
f 279 94 252
f 253 94 254
f 35 255 94
f 105 279 257
f 257 256 255
f 255 35 105
f 254 94 255
f 256 254 255
f 104 35 103
f 252 94 253
f 258 253 259
f 252 258 257
f 279 252 257
f 258 252 253
f 259 254 256
f 254 259 253
f 256 257 259
f 257 258 259
f 104 260 261
f 105 257 255
f 35 262 103
f 261 263 265
f 263 261 264
f 35 104 105
f 265 35 53
f 281 105 261
f 104 103 260
f 103 262 260
f 281 261 265
f 35 263 262
f 260 264 261
f 260 262 264
f 262 263 264
f 263 35 265
f 105 104 261
f 265 53 281
f 201 214 352
f 105 281 279
f 152 131 200
f 190 151 181
f 189 151 190
f 181 152 201
f 266 267 214
f 267 266 189
f 181 151 152
f 131 266 200
f 189 266 131
f 352 110 201
f 200 214 201
f 191 190 181
f 200 266 214
f 401 126 66
f 241 268 269
f 172 290 287
f 3 287 127
f 85 290 172
f 226 219 268
f 218 269 268
f 294 43 126
f 270 108 107
f 218 211 269
f 226 202 203
f 169 108 270
f 219 226 225
f 169 235 170
f 225 235 169
f 222 235 250
f 235 225 250
f 211 127 269
f 219 218 268
f 225 169 270
f 241 226 268
f 127 241 269
f 271 272 236
f 283 352 267
f 270 107 219
f 127 202 241
f 170 235 222
f 225 203 250
f 222 250 224
f 219 225 270
f 276 465 85
f 272 230 236
f 240 233 272
f 222 236 161
f 233 230 272
f 240 272 271
f 234 249 242
f 242 236 277
f 276 36 187
f 242 271 236
f 271 227 240
f 281 53 275
f 280 94 279
f 287 283 224
f 126 401 294
f 127 224 203
f 127 287 224
f 283 267 222
f 283 222 224
f 236 222 267
f 273 277 267
f 277 273 242
f 277 236 267
f 187 278 276
f 280 279 281
f 43 461 274
f 371 465 276
f 278 187 280
f 284 285 286
f 284 288 289
f 287 290 306
f 295 306 290
f 284 289 285
f 461 43 294
f 85 465 290
f 443 283 287
f 291 292 330
f 285 293 286
f 274 461 369
f 282 284 286
f 298 330 299
f 282 300 288
f 288 284 282
f 301 291 302
f 282 286 73
f 285 289 293
f 303 330 304
f 293 73 286
f 306 443 287
f 330 289 308
f 290 465 295
f 309 297 305
f 330 308 304
f 310 358 111
f 311 306 307
f 274 369 275
f 298 282 302
f 312 313 314
f 312 112 313
f 315 309 316
f 318 319 320
f 278 317 328
f 321 322 323
f 325 326 327
f 317 278 280
f 311 307 316
f 315 316 307
f 329 115 297
f 309 305 316
f 115 329 307
f 329 297 309
f 331 282 332
f 298 291 330
f 296 330 303
f 289 288 308
f 288 300 308
f 113 312 310
f 304 308 300
f 303 304 65
f 331 332 299
f 334 331 299
f 296 64 335
f 296 335 334
f 330 296 334
f 298 299 332
f 335 64 282
f 303 65 64
f 335 282 331
f 336 337 333
f 334 335 331
f 330 293 289
f 330 334 299
f 65 304 300
f 65 300 282
f 73 333 282
f 296 303 64
f 73 293 401
f 298 332 282
f 291 301 292
f 291 298 302
f 293 330 358
f 401 293 358
f 306 311 443
f 297 443 311
f 297 311 305
f 311 316 305
f 329 309 315
f 315 307 329
f 324 338 350
f 339 340 341
f 306 295 115
f 342 343 340
f 307 306 115
f 301 302 344
f 443 297 115
f 328 345 346
f 278 371 276
f 317 318 347
f 317 319 318
f 328 317 347
f 338 348 317
f 325 322 326
f 320 328 347
f 318 320 347
f 322 328 323
f 328 325 345
f 319 323 320
f 328 431 278
f 319 321 323
f 317 321 319
f 323 328 320
f 275 370 281
f 383 349 372
f 452 413 110
f 353 354 333
f 340 343 341
f 312 355 310
f 113 112 312
f 356 357 333
f 358 310 355
f 343 359 341
f 111 113 310
f 301 344 360
f 340 358 342
f 330 292 361
f 360 292 301
f 302 282 344
f 359 314 362
f 314 313 362
f 313 359 362
f 333 313 282
f 342 358 362
f 361 292 360
f 344 112 111
f 363 344 111
f 314 364 362
f 362 355 314
f 364 342 362
f 339 358 340
f 111 330 361
f 363 361 360
f 363 111 361
f 358 330 111
f 343 342 364
f 112 282 313
f 363 360 344
f 314 359 364
f 112 344 282
f 359 343 364
f 355 362 358
f 355 312 314
f 333 359 313
f 383 372 373
f 275 369 370
f 322 321 326
f 326 317 327
f 328 322 325
f 321 317 326
f 372 349 324
f 345 327 348
f 349 338 324
f 345 325 327
f 348 327 317
f 338 317 350
f 346 345 348
f 371 278 620
f 346 349 383
f 328 346 383
f 620 278 431
f 372 324 350
f 431 328 383
f 372 350 373
f 349 346 338
f 346 348 338
f 405 383 373
f 366 375 376
f 336 377 367
f 354 378 333
f 379 380 381
f 382 379 381
f 375 366 358
f 384 385 386
f 387 388 380
f 443 352 283
f 351 391 392
f 391 393 392
f 333 337 353
f 394 354 395
f 354 394 378
f 341 359 333
f 376 337 367
f 339 357 389
f 357 339 341
f 358 339 389
f 336 396 377
f 376 375 337
f 358 397 394
f 395 353 375
f 353 395 354
f 367 337 336
f 358 366 442
f 358 394 395
f 397 378 394
f 378 397 356
f 375 353 337
f 401 358 442
f 389 356 397
f 357 356 389
f 357 341 333
f 377 366 367
f 378 356 333
f 397 358 389
f 395 375 358
f 367 366 376
f 115 398 391
f 448 115 391
f 115 448 443
f 365 399 398
f 392 399 351
f 400 398 399
f 398 115 365
f 448 391 351
f 391 400 393
f 391 398 400
f 374 382 402
f 374 403 379
f 402 382 404
f 382 381 404
f 388 350 317
f 388 406 404
f 381 388 404
f 281 370 438
f 407 383 374
f 383 409 374
f 409 403 374
f 383 408 409
f 403 387 380
f 387 410 388
f 409 408 410
f 380 388 381
f 373 350 388
f 405 373 410
f 403 409 387
f 409 410 387
f 379 403 380
f 405 410 408
f 388 410 373
f 383 405 408
f 406 402 404
f 402 406 411
f 374 379 382
f 407 374 404
f 374 402 404
f 280 368 317
f 396 336 412
f 388 317 368
f 351 365 115
f 393 399 392
f 400 399 393
f 414 415 416
f 366 417 418
f 417 366 419
f 396 412 420
f 442 421 422
f 419 420 412
f 417 419 416
f 377 396 425
f 424 426 423
f 415 414 427
f 414 428 427
f 429 430 421
f 430 426 421
f 412 428 414
f 442 366 418
f 421 426 422
f 426 424 422
f 442 418 427
f 396 420 425
f 426 333 423
f 416 419 412
f 415 417 416
f 333 426 430
f 462 423 333
f 420 419 425
f 377 425 366
f 417 414 418
f 414 415 418
f 415 414 417
f 442 427 429
f 442 422 424
f 414 416 412
f 442 429 421
f 419 366 425
f 412 430 428
f 418 415 427
f 333 430 412
f 336 333 412
f 427 428 429
f 428 430 429
f 399 365 351
f 295 351 115
f 351 295 473
f 401 460 294
f 465 473 295
f 407 432 431
f 407 404 432
f 404 402 432
f 433 432 434
f 432 435 434
f 402 411 432
f 436 437 388
f 431 432 433
f 432 411 435
f 280 281 586
f 433 436 388
f 436 433 434
f 383 407 431
f 411 406 437
f 435 411 437
f 406 388 437
f 434 435 436
f 435 437 436
f 433 388 431
f 440 441 452
f 110 352 452
f 333 73 413
f 423 442 424
f 442 423 462
f 444 445 446
f 447 445 444
f 449 445 447
f 464 473 465
f 368 431 388
f 450 451 384
f 450 470 451
f 413 462 333
f 442 462 401
f 587 448 351
f 461 294 460
f 280 586 368
f 586 281 438
f 385 453 454
f 352 443 448
f 441 455 456
f 386 457 384
f 459 689 458
f 590 460 401
f 473 587 351
f 370 520 482
f 370 369 520
f 371 620 466
f 467 369 461
f 466 464 465
f 465 371 466
f 620 431 368
f 352 448 452
f 441 456 452
f 390 413 452
f 471 455 441
f 455 471 472
f 462 413 390
f 456 444 452
f 386 463 474
f 454 475 476
f 461 460 656
f 461 656 467
f 477 468 478
f 472 468 477
f 495 464 466
f 480 481 509
f 477 448 472
f 648 438 370
f 386 474 483
f 477 478 452
f 484 485 525
f 713 486 487
f 448 477 452
f 488 489 463
f 449 489 488
f 455 447 456
f 447 455 472
f 386 446 463
f 564 587 660
f 501 479 491
f 587 564 448
f 448 501 519
f 473 464 570
f 492 493 494
f 448 519 472
f 464 495 542
f 518 496 509
f 569 472 521
f 497 498 499
f 494 500 492
f 564 501 448
f 500 494 480
f 496 500 480
f 496 494 500
f 569 568 472
f 447 472 449
f 570 464 542
f 505 506 507
f 491 479 508
f 494 493 480
f 509 496 480
f 491 518 501
f 479 545 510
f 479 501 545
f 491 508 518
f 545 492 500
f 518 508 496
f 508 512 496
f 510 508 479
f 501 518 519
f 500 512 510
f 510 545 500
f 493 513 480
f 501 564 545
f 514 492 545
f 512 508 510
f 500 494 512
f 512 494 496
f 516 573 517
f 472 519 521
f 519 518 504
f 569 521 525
f 521 519 504
f 522 499 503
f 523 575 578
f 525 521 484
f 511 527 517
f 527 511 495
f 497 530 531
f 484 533 485
f 484 521 533
f 648 370 482
f 368 586 670
f 525 485 528
f 440 471 441
f 483 534 457
f 534 469 470
f 483 469 534
f 446 488 463
f 444 446 386
f 478 468 440
f 468 471 440
f 471 468 472
f 452 444 386
f 456 447 444
f 474 463 489
f 449 472 470
f 469 489 470
f 469 474 489
f 489 449 470
f 474 469 483
f 478 440 452
f 445 488 446
f 488 445 449
f 503 536 505
f 401 462 590
f 539 660 506
f 538 535 600
f 460 590 540
f 587 473 570
f 502 536 503
f 545 546 503
f 493 514 513
f 480 513 481
f 516 547 573
f 548 497 481
f 507 549 550
f 530 551 531
f 552 553 554
f 555 556 557
f 509 558 553
f 541 660 539
f 522 503 559
f 545 660 546
f 561 560 562
f 578 504 552
f 502 563 541
f 498 497 531
f 481 498 531
f 481 497 498
f 497 548 498
f 548 565 498
f 548 513 565
f 509 481 531
f 551 559 561
f 565 514 545
f 503 566 567
f 513 548 481
f 567 562 560
f 624 668 439
f 568 569 543
f 551 522 559
f 514 493 492
f 559 503 560
f 559 560 561
f 541 539 536
f 498 565 545
f 530 497 499
f 660 545 564
f 546 563 502
f 536 539 505
f 499 498 503
f 660 563 546
f 530 499 522
f 563 660 541
f 551 530 522
f 502 541 536
f 505 507 503
f 502 503 546
f 555 603 571
f 565 513 514
f 545 503 498
f 539 506 505
f 562 567 572
f 506 660 549
f 547 515 573
f 506 549 507
f 574 572 566
f 566 572 567
f 503 507 550
f 562 572 603
f 560 503 567
f 518 553 552
f 572 574 603
f 551 561 603
f 531 551 603
f 561 562 603
f 509 531 603
f 509 557 558
f 554 558 576
f 556 523 578
f 558 557 576
f 521 504 581
f 552 554 578
f 495 515 527
f 523 555 571
f 495 466 515
f 511 542 495
f 547 527 515
f 527 547 516
f 517 527 516
f 579 580 603
f 542 511 517
f 555 523 556
f 542 517 466
f 466 517 573
f 603 575 571
f 555 557 603
f 523 571 575
f 557 509 603
f 504 518 552
f 554 576 578
f 509 553 518
f 553 558 554
f 576 557 556
f 576 556 578
f 504 578 581
f 600 577 578
f 533 524 528
f 668 624 529
f 573 515 466
f 529 524 582
f 526 532 524
f 668 529 577
f 532 582 524
f 533 521 524
f 524 521 581
f 524 581 526
f 526 581 532
f 529 528 524
f 578 577 581
f 577 529 581
f 520 369 467
f 528 529 525
f 529 569 525
f 485 533 528
f 583 584 585
f 586 438 670
f 475 470 459
f 588 589 490
f 476 459 458
f 458 385 454
f 454 476 458
f 386 385 458
f 457 450 384
f 451 453 385
f 470 453 451
f 452 386 458
f 475 459 476
f 534 450 457
f 450 534 470
f 384 451 385
f 453 475 454
f 470 475 453
f 386 483 457
f 535 439 490
f 470 472 459
f 390 452 681
f 684 600 535
f 689 680 458
f 680 452 458
f 472 568 689
f 660 595 596
f 597 611 598
f 609 663 611
f 599 660 596
f 585 584 601
f 595 602 596
f 540 656 460
f 580 605 598
f 595 660 583
f 503 602 609
f 602 606 609
f 607 608 579
f 585 601 609
f 605 580 608
f 605 597 598
f 609 601 612
f 598 611 603
f 613 611 597
f 605 609 597
f 614 615 663
f 609 614 663
f 585 609 606
f 596 602 617
f 608 609 605
f 607 579 574
f 550 617 503
f 602 503 617
f 608 503 609
f 584 660 618
f 602 595 606
f 596 617 599
f 549 660 599
f 584 618 601
f 550 549 599
f 610 660 615
f 618 610 612
f 595 583 606
f 611 578 575
f 580 598 603
f 660 584 583
f 550 599 617
f 606 583 585
f 607 503 608
f 574 579 603
f 612 610 614
f 660 610 618
f 503 607 566
f 574 566 607
f 608 580 579
f 601 618 612
f 612 614 609
f 610 615 614
f 613 609 611
f 597 609 613
f 577 600 657
f 611 575 603
f 705 543 569
f 581 582 532
f 669 368 670
f 682 670 648
f 368 622 620
f 368 649 622
f 438 648 670
f 538 619 535
f 684 535 677
f 592 490 621
f 689 459 472
f 650 592 625
f 589 621 490
f 589 626 621
f 591 627 628
f 627 591 629
f 462 651 590
f 593 623 634
f 535 490 592
f 535 592 650
f 650 625 588
f 625 589 588
f 625 626 589
f 600 684 657
f 544 537 687
f 570 632 587
f 657 623 631
f 634 623 594
f 593 631 623
f 625 592 621
f 592 626 621
f 626 625 621
f 616 631 593
f 621 626 592
f 588 490 650
f 688 544 687
f 544 688 696
f 723 490 668
f 668 490 439
f 616 636 631
f 615 660 663
f 593 634 658
f 630 462 629
f 657 636 638
f 593 638 616
f 688 665 696
f 702 467 656
f 637 570 542
f 600 578 700
f 616 638 636
f 697 594 638
f 658 697 638
f 658 638 593
f 639 640 641
f 644 643 645
f 646 643 666
f 578 581 671
f 529 624 706
f 627 635 628
f 604 635 627
f 466 620 542
f 542 620 642
f 578 703 581
f 648 482 520
f 649 368 669
f 677 439 535
f 692 635 604
f 591 630 629
f 535 650 677
f 390 676 693
f 630 591 628
f 667 462 390
f 604 627 629
f 635 630 628
f 604 629 462
f 692 630 635
f 692 462 630
f 604 462 667
f 600 700 538
f 684 634 594
f 690 634 684
f 677 624 439
f 650 490 723
f 590 656 540
f 623 657 594
f 652 659 682
f 537 653 665
f 724 537 665
f 661 643 646
f 642 694 662
f 611 663 578
f 594 657 638
f 542 642 637
f 645 661 644
f 663 660 694
f 568 543 705
f 694 647 666
f 666 643 662
f 643 642 662
f 645 661 646
f 645 646 666
f 637 644 647
f 644 661 647
f 637 642 644
f 647 661 645
f 642 643 644
f 645 643 661
f 694 637 647
f 647 645 666
f 666 662 694
f 700 578 671
f 578 663 703
f 642 620 703
f 581 703 671
f 569 529 712
f 529 706 712
f 674 675 719
f 390 721 667
f 619 677 535
f 655 678 641
f 678 655 654
f 640 679 681
f 390 699 698
f 390 698 676
f 633 544 683
f 692 604 667
f 651 462 672
f 660 587 632
f 634 690 677
f 723 624 677
f 650 723 677
f 681 452 680
f 655 691 679
f 655 641 691
f 654 686 639
f 639 686 640
f 641 640 681
f 640 686 679
f 681 691 641
f 678 639 641
f 639 678 654
f 699 659 652
f 390 693 721
f 692 683 544
f 688 683 692
f 544 696 692
f 660 632 694
f 690 684 697
f 685 691 680
f 678 655 679
f 686 678 679
f 678 654 655
f 678 686 654
f 691 659 679
f 681 679 659
f 633 725 537
f 687 688 633
f 687 633 688
f 672 462 692
f 695 692 696
f 634 690 658
f 594 664 697
f 697 684 594
f 697 658 690
f 691 685 659
f 725 687 537
f 687 724 688
f 590 651 656
f 702 656 651
f 697 594 664
f 594 697 664
f 664 594 697
f 723 706 658
f 653 537 725
f 725 724 687
f 537 724 725
f 688 724 665
f 665 688 695
f 657 664 577
f 723 668 706
f 685 705 669
f 685 669 659
f 701 652 682
f 694 570 637
f 659 669 682
f 726 653 725
f 653 726 696
f 642 703 694
f 663 694 703
f 701 682 648
f 704 577 727
f 668 577 704
f 710 709 711
f 712 705 569
f 669 705 649
f 669 670 682
f 648 717 701
f 717 713 707
f 487 715 707
f 648 520 673
f 707 716 520
f 713 487 707
f 486 716 715
f 673 486 713
f 717 673 713
f 648 673 717
f 717 707 520
f 487 486 715
f 486 673 716
f 715 716 707
f 716 673 520
f 467 702 520
f 671 703 620
f 620 622 671
f 671 622 709
f 671 709 710
f 720 708 714
f 709 718 711
f 675 714 719
f 711 708 720
f 709 622 718
f 718 622 708
f 708 622 719
f 719 622 712
f 708 719 714
f 710 711 674
f 708 711 674
f 711 718 674
f 718 708 674
f 675 720 714
f 674 711 675
f 711 720 675
f 710 674 719
f 671 710 719
f 712 622 649
f 619 684 677
f 667 721 683
f 538 700 619
f 619 700 684
f 390 681 699
f 681 659 699
f 699 652 698
f 698 693 676
f 698 652 693
f 633 721 725
f 633 683 721
f 667 683 692
f 684 722 657
f 684 700 722
f 634 677 690
f 680 691 681
f 683 688 692
f 694 632 570
f 689 568 680
f 725 721 693
f 702 651 672
f 722 700 664
f 664 657 722
f 688 665 695
f 705 685 680
f 568 705 680
f 706 723 658
f 652 701 693
f 725 693 701
f 664 700 671
f 727 577 664
f 706 624 723
f 664 671 727
f 706 668 704
f 725 701 717
f 726 725 717
f 726 717 520
f 696 726 695
f 712 727 671
f 712 704 727
f 704 712 706
f 719 712 671
f 649 705 712
f 31 14 11
f 11 14 274
f 58 12 11
f 11 12 31
f 42 17 5
f 42 5 78
f 172 287 3
f 173 175 162
f 173 161 175
f 173 162 160
f 173 160 163
f 160 162 159
f 73 58 413
f 529 582 581
f 633 537 544
f 657 631 636
f 665 653 696
f 672 692 695
f 672 695 702
f 695 726 702
f 726 520 702

