# https://github.com/mikedh/trimesh
v -0.39476979 0.30619115 0.34753540
v -0.45727384 0.06039982 0.17667627
v -0.51551783 0.47033629 0.38919428
v -0.49905980 0.47244525 0.41098407
v -0.53371614 0.17867301 0.54129237
v -0.46663687 0.17649059 0.13733703
v -0.51890606 0.55192226 0.33185443
v -0.36487013 0.31371114 0.75436580
v -0.53850728 0.58633333 0.30884871
v -0.42356732 0.35991889 0.03810363
v -0.39076632 0.36365986 -0.01746281
v -0.38678592 0.37438706 -0.02519614
v -0.40849006 0.36642700 0.01479768
v -0.41017634 0.38318986 0.01781719
v -0.19712631 0.35583985 -0.38842282
v -0.46868211 0.62351424 0.58684903
v -0.28920633 0.02380987 -0.18132281
v -0.31456038 -0.36276522 0.13152915
v -0.36732632 -0.04258012 0.27186719
v -0.41036832 0.37550020 0.01793417
v -0.39578560 0.36479688 -0.00666502
v -0.38907406 0.31530005 -0.04665181
v -0.39467633 0.36730987 -0.00951281
v -0.35883802 0.16039026 -0.08531279
v -0.37517378 0.42537332 -0.04238072
v -0.41029632 0.37541986 0.01781719
v -0.41029632 0.37537989 0.01781719
v -0.41029632 0.37927988 0.01790719
v -0.41023633 0.37927988 0.01781719
v -0.27357632 0.36738986 -0.20092282
v -0.27357623 0.36754981 -0.20093255
v -0.39694622 0.42428297 -0.00235972
v -0.26246962 0.33566403 0.40028870
v -0.29701632 0.42224988 -0.15782280
v -0.29701632 0.41833985 -0.15780281
v -0.29692632 0.42224988 -0.15795282
v -0.39077359 0.36755991 -0.01735263
v -0.39076632 0.36755988 -0.01736281
v -0.44261929 0.63535488 0.09163716
v -0.39463538 0.75051677 0.17816371
v -0.40950882 0.73489869 0.18829878
v -0.39840043 0.75015181 0.18886127
v -0.38756490 0.76928091 0.19893350
v -0.39865279 0.75033098 0.19004817
v -0.39209226 0.74849629 0.16575879
v -0.39145780 -0.12628487 0.25850976
v -0.37092632 -0.05040012 0.26781717
v -0.36733633 -0.05040012 0.27172720
v -0.36739632 -0.04649013 0.27172720
v -0.37118202 -0.02453323 0.26773506
v -0.36732632 -0.04649013 0.27179718
v -0.36732742 -0.05058278 0.27172613
v -0.32256114 -0.04959683 0.32096121
v -0.27751634 -0.87462014 0.42015719
v -0.27748632 -0.87462014 0.42019719
v -0.27748632 -0.87457013 0.42015719
v -0.27748632 -0.87474012 0.42015719
v -0.31756720 0.06721407 0.40343380
v -0.35975227 -0.13076393 -0.07620542
v -0.38758808 0.11284450 0.35202441
v -0.25814718 -0.05771935 -0.22568095
v -0.30669633 0.43396986 -0.15795282
v -0.30101633 0.44958985 -0.16576283
v -0.30092633 0.43787989 -0.16580281
v -0.30094633 0.43787989 -0.16576283
v -0.30096632 0.44177988 -0.16576283
v -0.30092633 0.44177988 -0.16583280
v -0.39466634 0.36755988 -0.00951281
v -0.30088019 0.27684408 -0.15022284
v -0.28484580 0.42293340 -0.17475788
v -0.39464992 0.75035518 0.17792441
v -0.29036734 0.55297357 -0.18255197
v -0.39467135 0.75036830 0.17798164
v -0.39857966 0.75008297 0.18930234
v -0.28566867 0.34873164 -0.17060949
v -0.45063025 0.72501141 0.54740185
v -0.40058982 -0.17203823 0.24841045
v -0.35650939 -0.58616894 0.18747701
v -0.28832012 -0.13963820 -0.16594483
v -0.28139868 -0.13996866 -0.17747147
v -0.28139633 -0.13978012 -0.17748281
v -0.41215989 -0.16198127 0.24016009
v -0.34177271 -0.10994607 -0.11223021
v -0.28138795 -0.14006466 -0.17747790
v -0.38196117 0.28471512 -0.03624736
v -0.23401797 0.04557355 -0.31841105
v -0.26185632 -0.07774013 -0.21660282
v -0.26185632 -0.08165012 -0.21657281
v -0.26023632 -0.08165012 -0.22045282
v -0.28529632 0.03552987 -0.18838280
v -0.31096423 0.30175179 -0.13778107
v -0.29701632 0.42615986 -0.15785281
v -0.29981586 0.41801918 -0.15400746
v -0.27354422 0.36288744 -0.20087565
v -0.27357632 0.36365986 -0.20080280
v -0.29398519 0.42747679 -0.17520703
v -0.29728842 0.71361411 0.64782512
v -0.28785303 0.73833096 0.64834535
v -0.27038416 -0.60299391 0.37715852
v -0.28924152 -0.63293207 0.10071444
v -0.31812862 -0.40076724 0.17895193
v -0.26982862 -0.11108632 -0.19769655
v -0.28798354 -0.04953584 -0.16770802
v -0.28917632 -0.05430013 -0.16576283
v -0.28141934 -0.13532814 -0.17761089
v -0.27912632 -0.13633013 -0.18139280
v -0.29438338 0.02392435 -0.17210215
v -0.28942648 -0.13719524 -0.16432782
v -0.28904954 -0.17632316 -0.16343614
v -0.29916215 -0.05798088 -0.15386698
v -0.28146634 -0.13633013 -0.17748281
v -0.28920633 -0.04889012 -0.16576283
v -0.28919253 0.03163459 -0.18138593
v -0.28910616 0.25175747 -0.17766456
v -0.29545563 0.05163677 -0.17073113
v -0.27983689 0.10288626 -0.17748500
v -0.28487632 -0.87462014 0.41234717
v -0.31087947 0.26703167 -0.13850097
v -0.28142634 0.21521987 -0.17748281
v -0.28140634 0.21912988 -0.17748281
v -0.30092633 0.27771986 -0.15016282
v -0.30092633 0.28162989 -0.15021281
v -0.30097634 0.28162989 -0.15014280
v -0.27357632 0.36755988 -0.20092282
v -0.27823633 0.36755988 -0.18920282
v -0.30092633 0.43396986 -0.16577281
v -0.28139761 0.37154368 -0.18138722
v -0.29696634 0.43005988 -0.15795282
v -0.29694632 0.42615986 -0.15795282
v -0.28509784 0.23899940 -0.16998002
v -0.30092633 0.44568986 -0.16586281
v -0.30099633 0.44568986 -0.16576283
v -0.27759182 0.36101437 -0.19062120
v -0.32919702 0.46795958 -0.11447972
v -0.29664832 0.41774029 -0.15829259
v -0.28139633 0.21521987 -0.17755280
v -0.38997239 0.82763815 0.50374818
v -0.28139633 0.36365986 -0.18114281
v -0.28139633 0.36755988 -0.18126281
v -0.16000243 0.87923825 0.33396387
v -0.14758916 0.78164345 0.49716043
v -0.26185632 -0.87462014 0.43577719
v -0.28141782 -0.87462246 0.41626751
v -0.28139633 -0.87462014 0.41628721
v -0.28139633 -0.87457013 0.41625717
v -0.28516728 -0.87649417 0.40318537
v -0.26667994 -0.84141338 0.40595549
v -0.25900489 -0.87567252 0.43873677
v -0.27357632 -0.87458014 0.42406717
v -0.27646634 -0.87852013 0.42015719
v -0.27360633 -0.87462014 0.42406717
v -0.36982310 -0.55601454 0.16688237
v -0.27357632 -0.87852013 0.42298716
v -0.26808831 -0.04742187 -0.20214379
v -0.28920633 -0.05430013 -0.16572282
v -0.28920633 -0.05821012 -0.16569281
v -0.28699633 0.02771988 -0.18530281
v -0.28918633 0.03162988 -0.18139280
v -0.28913778 -0.06249476 -0.16574280
v -0.28920633 -0.06212012 -0.16566281
v -0.28914633 -0.05821012 -0.16576283
v -0.28923431 0.00168398 -0.16583470
v -0.26186460 -0.08194408 -0.21656159
v -0.27529013 0.01625061 -0.20620923
v -0.28920633 0.02771988 -0.18134281
v -0.28920633 -0.05040012 -0.16575281
v -0.28919634 -0.05040012 -0.16576283
v -0.28917632 0.02771988 -0.18139280
v -0.26189634 -0.07383013 -0.21655281
v -0.27574190 0.21089208 -0.18897192
v -0.28139633 0.21912988 -0.17751281
v -0.24048091 0.15003681 -0.31253603
v -0.30101633 0.28552988 -0.15014280
v -0.30095717 0.27775300 -0.15011279
v -0.28144634 0.21130988 -0.17748281
v -0.28529558 0.20944744 -0.16979843
v -0.28143960 0.20614856 -0.17755744
v -0.28139633 0.20740987 -0.17764281
v -0.28139633 0.22177987 -0.17748281
v -0.28139633 0.21130988 -0.17760281
v -0.28527740 0.27731824 -0.16991939
v -0.30385634 0.44177988 -0.16186281
v -0.28133634 0.36755988 -0.18139280
v -0.28138632 0.37146986 -0.18139280
v -0.27362633 0.37146986 -0.20092282
v -0.30092636 0.43396983 -0.16576830
v -0.31828541 0.45472646 -0.14129218
v -0.26754484 0.20090377 -0.20668420
v -0.28139633 0.75818986 0.61157721
v -0.28335634 0.75427985 0.61547720
v -0.28089708 0.75378031 0.61603147
v -0.28920633 0.75829989 0.61156720
v -0.28529632 0.75824988 0.61156720
v -0.28529632 0.75818986 0.61162722
v -0.28136545 0.75820208 0.61150867
v -0.26576632 -0.87464017 0.43187717
v -0.26967633 -0.87462014 0.42798719
v -0.26967633 -0.87468016 0.42797720
v -0.26576632 -0.87460011 0.43187717
v -0.26576632 -0.87852013 0.43065718
v -0.26850632 -0.87852013 0.42797720
v -0.26967633 -0.87459016 0.42797720
v -0.26577634 -0.87462014 0.43187717
v -0.25977540 -0.93127197 0.40973961
v -0.26576632 -0.87462014 0.43188718
v -0.27057615 -0.88433689 0.42303079
v -0.27357632 -0.87462014 0.42409718
v -0.26968634 -0.87462014 0.42797720
v -0.27357632 -0.87471014 0.42406717
v -0.20716825 -0.84732634 -0.16970815
v -0.20717695 -0.84727043 -0.16966236
v -0.29078203 -0.60879493 0.02827010
v -0.21882755 -0.87104434 0.46904314
v -0.26188633 -0.07774013 -0.21655281
v -0.25396925 -0.17254832 -0.23022585
v -0.24186035 0.11605858 -0.28450155
v -0.23842631 0.14964987 -0.31811282
v -0.24188650 0.07779884 -0.28335601
v -0.24229035 0.10795326 -0.28290883
v -0.24459633 0.11365987 -0.27514282
v -0.24232633 0.11403988 -0.28295279
v -0.24232633 0.11365987 -0.28294283
v -0.24232633 0.11365987 -0.28295279
v -0.07045632 0.23865987 0.49823716
v -0.23842631 0.14490987 -0.31821284
v -0.23756593 0.13968317 -0.32086730
v -0.26995340 0.36311826 -0.20999265
v -0.19545633 0.35193986 -0.39221284
v -0.19938631 0.35193986 -0.38451281
v -0.00860159 0.45286638 -0.58562779
v -0.23455100 0.73865271 -0.16188145
v -0.23236632 0.74255985 -0.16186281
v -0.23451632 0.74255985 -0.15802281
v -0.23451632 0.74262989 -0.15795282
v -0.23449974 0.74647522 -0.15413369
v -0.07417493 0.89777225 -0.24289066
v -0.22839913 0.77516401 -0.13588601
v -0.23451632 0.73872983 -0.16186281
v -0.23455633 0.74255985 -0.15795282
v -0.23455633 0.74646986 -0.15405281
v -0.23455633 0.75427985 -0.14623281
v -0.24301404 0.94819319 0.18454784
v -0.06655332 0.77601641 0.44186285
v -0.06654632 0.78162986 0.43548718
v -0.16838031 0.87937367 0.34200841
v -0.16810633 0.88298988 0.33422720
v -0.21409756 -0.85506004 -0.16595414
v -0.18874459 -0.79264545 -0.15491317
v -0.26456547 -0.67338318 -0.05237345
v -0.20719229 -0.84297574 -0.16564471
v -0.35906142 -0.47286505 -0.02342229
v -0.10554999 -0.52696550 -0.22820212
v -0.10561184 -0.52696013 -0.22826752
v -0.24570435 -0.54303080 0.44020325
v -0.24232633 0.10974988 -0.28282282
v -0.23514193 0.14883471 -0.32685640
v -0.23845498 0.14356615 -0.31816584
v -0.23842631 0.14880988 -0.31811282
v -0.23842631 0.14880988 -0.31813282
v -0.24903513 0.18691996 -0.28872934
v -0.19768193 0.26577750 -0.40067008
v -0.06986841 0.78744686 0.43189058
v -0.07879695 0.19300221 0.49298805
v -0.06654632 0.23474987 0.49828717
v -0.19539633 0.35193986 -0.39233282
v -0.19513632 0.35583985 -0.39233282
v -0.19675103 0.37937775 -0.38525513
v -0.19935213 0.35193983 -0.38456994
v -0.19550484 0.34945530 -0.39243567
v -0.46179101 0.62603325 0.13269731
v -0.23451632 0.74653983 -0.15405281
v -0.23455633 0.75037986 -0.15014280
v -0.18165432 0.14473613 0.48698089
v -0.23451626 0.75039738 -0.15018545
v -0.25236738 0.78203613 0.58880091
v -0.08532523 0.93710274 -0.18510173
v -0.14701004 0.79422295 0.48283654
v -0.16419442 0.87926221 0.33812502
v -0.29823878 0.83053797 0.06177944
v -0.37872130 -0.87428796 0.12714373
v -0.16029634 0.87927985 0.33427718
v -0.16420633 0.87927985 0.33811718
v -0.18152826 0.90052205 0.31491774
v -0.06985351 -0.63632411 0.51387614
v -0.19043525 -0.80973268 -0.15049621
v -0.20733634 -0.84337014 -0.16576283
v -0.08593193 -0.74713564 -0.38494426
v -0.26441804 -0.50104028 0.45733595
v -0.25054550 -0.45904723 -0.17636371
v -0.10560633 -0.52696013 -0.22827281
v -0.10951632 -0.52320015 -0.22826283
v -0.12565419 -0.25447568 0.41794726
v -0.10560633 0.18391988 0.48656717
v -0.10144724 0.17995392 0.48655739
v -0.10170632 0.18024987 0.48656717
v -0.16967238 -0.97424734 -0.32444280
v -0.27646080 0.01535077 0.40853024
v -0.10560633 0.19177988 0.48818719
v -0.20163631 0.34802988 -0.38061282
v -0.10963821 0.41079992 0.55250144
v -0.17972116 0.36598945 -0.42007032
v -0.19751158 0.50628376 0.66024953
v -0.29081607 0.71082759 -0.09484396
v -0.11388160 0.55219942 -0.52530634
v -0.18694279 0.75236833 -0.23628023
v -0.20397049 0.76850963 0.56397164
v -0.10204841 0.94209796 0.23415482
v -0.15477160 0.78128630 0.50470287
v -0.16421632 0.87927985 0.33812717
v 0.09155777 -0.48926458 -0.43156648
v -0.10170632 -0.52696013 -0.23098281
v -0.10953522 -0.52321559 -0.22824159
v -0.10951632 -0.52305013 -0.22837283
v -0.10951632 -0.51915014 -0.23118281
v -0.12497503 -0.45099959 -0.33616063
v -0.15504329 -0.52940339 -0.19274832
v -0.18037631 -0.31751028 -0.35528764
v -0.21033773 -0.24280408 0.38533252
v -0.14870632 0.78162986 0.49828717
v -0.13303724 0.45473498 -0.48890221
v -0.20896490 0.44121635 0.65621507
v -0.09534796 -0.06518246 -0.41932204
v -0.15248632 0.78162986 0.50204718
v -0.14857633 0.78150988 0.49828717
v -0.15248632 0.78149986 0.50219721
v -0.07046533 0.89100087 -0.25561264
v -0.06654632 0.89490986 -0.25577283
v -0.13400634 0.80896986 -0.26342282
v -0.13685633 0.80485988 -0.26342282
v -0.13671634 0.80505985 -0.26342282
v -0.07045632 0.88771987 -0.25951281
v -0.07031326 0.88719434 -0.26031303
v -0.09563661 -0.56703955 -0.20840214
v -0.10182370 -0.44882032 -0.36107224
v -0.10560633 -0.44883010 -0.35719281
v -0.10860952 -0.50351393 -0.25713652
v -0.09779632 0.18396987 0.48809719
v -0.10560633 0.18396987 0.48657718
v -0.10665136 0.24760713 0.49349734
v -0.09739799 0.17606376 0.48653764
v -0.10736515 0.41864687 0.56196243
v -0.09779632 0.17656988 0.48656717
v -0.06652632 0.23474987 0.49828717
v -0.06654632 0.23476988 0.49828717
v -0.10150632 0.18005988 0.48656717
v 0.11775790 -0.93705493 -0.45962775
v -0.07257477 0.24092631 0.49823549
v -0.13145490 0.57642001 -0.47697896
v -0.13754326 0.78072876 -0.28739497
v -0.15248632 0.77771986 0.50631720
v -0.13681632 0.80115986 -0.26733282
v -0.13952632 0.79724985 -0.26733282
v -0.13685633 0.79732984 -0.27123281
v -0.12391349 0.82466888 -0.26216891
v -0.13685633 0.80108988 -0.26733282
v -0.13685633 0.80115986 -0.26726282
v -0.13715576 0.80679840 -0.26089913
v -0.15592602 0.79560238 -0.24420591
v -0.07045632 0.89099985 -0.25562283
v -0.07045632 0.78162986 0.43907717
v -0.06796510 0.76942778 0.45073748
v -0.06687632 0.78162986 0.43578717
v -0.07112632 0.78162986 0.43969718
v -0.03543159 -0.78580308 0.52387053
v -0.10170632 -0.44897011 -0.36108282
v -0.09979858 -0.44869494 -0.36318737
v -0.11297230 -0.71547383 -0.33624631
v -0.10560633 -0.44885010 -0.35717282
v -0.10560633 -0.45274013 -0.35362282
v -0.20056009 -0.27273482 -0.34363639
v -0.10562127 -0.44882601 -0.35718149
v -0.10456246 -0.42742491 -0.36989939
v -0.07344042 -0.47487500 -0.36174423
v -0.10577756 0.18400595 0.48655394
v -0.07017632 0.23865987 0.49828717
v -0.06654632 0.23865987 0.49896717
v -0.06288632 0.23083988 0.49828717
v -0.00014632 0.73474985 -0.48983282
v 0.00133511 0.73606020 -0.48999721
v -0.00014632 0.73083985 -0.49388281
v 0.00375368 0.73470986 -0.49389282
v -0.04587542 0.31628111 -0.54310763
v -0.12983245 0.75789642 0.50543010
v -0.09474557 0.82779634 -0.30023712
v -0.06612194 0.89553964 -0.25554013
v -0.07425632 0.88708985 -0.25561282
v 0.11165033 0.10966376 -0.63275701
v -0.15819450 -0.63234645 -0.13401240
v 0.07523511 -0.28175184 0.50199753
v -0.01967632 0.71130985 -0.49401283
v -0.23846120 0.86754900 0.46933901
v 0.07855249 0.95913672 -0.30565029
v -0.06667632 0.89490986 -0.25561282
v -0.00105047 0.76482004 0.39600140
v 0.12472351 -0.62030679 -0.44755191
v 0.11840633 -0.34505999 -0.40690106
v -0.00085595 0.68980271 -0.53548956
v -0.01633072 0.24184372 0.50723690
v -0.00027632 0.72693986 -0.49780282
v -0.00404632 0.72693986 -0.49390283
v -0.01549632 0.71912986 -0.48998281
v -0.01576632 0.71530986 -0.49389282
v -0.01169632 0.72302985 -0.48998281
v -0.00795632 0.72683984 -0.48998281
v -0.00795632 0.72693986 -0.48987281
v -0.05780190 0.70628381 0.50613445
v -0.00744586 0.75876242 -0.45477787
v 0.09773491 0.68065792 0.39813474
v 0.03742000 0.75314420 -0.53795564
v -0.15782367 0.84014678 0.41672006
v -0.11129134 -0.57913041 -0.19917037
v 0.14058925 -0.15310429 0.47648382
v 0.08180734 0.35236740 -0.57358712
v -0.01564574 0.71904582 -0.48990285
v -0.00591374 0.71735030 -0.50192207
v -0.00404632 0.73083985 -0.48985279
v -0.01185632 0.71918988 -0.49389282
v -0.01185632 0.72286987 -0.48998281
v -0.01192632 0.71912986 -0.49389282
v -0.01185632 0.71912986 -0.49396282
v -0.00785632 0.72693986 -0.48998281
v -0.00795632 0.72306985 -0.49389282
v -0.01185632 0.72302985 -0.48980284
v -0.00795632 0.72302985 -0.49393281
v -0.00406632 0.72693986 -0.49389282
v -0.00504523 0.72210014 -0.49791044
v -0.01576632 0.71521986 -0.49399281
v -0.03773897 0.70967644 -0.47432572
v -0.00014632 0.72706985 -0.49780282
v -0.00014632 0.72693986 -0.49793282
v -0.01721013 0.71524936 -0.49233431
v -0.00404632 0.72302985 -0.49796280
v -0.00392632 0.73083985 -0.48998281
v -0.00404632 0.72694987 -0.49389282
v -0.00799632 0.72302985 -0.49389282
v -0.00404632 0.73071986 -0.48998281
v -0.00014632 0.73082983 -0.49389282
v -0.00013632 0.73083985 -0.49389282
v 0.00375368 0.73094988 -0.49780282
v 0.00758368 0.73474985 -0.49780282
v 0.13342093 -0.61499655 -0.43265900
v 0.12023737 -0.89661962 0.49565959
v 0.00378484 0.73475361 -0.49388030
v 0.00375368 0.73083985 -0.49790284
v 0.00365368 0.73083985 -0.49780282
v 0.04016382 0.76095694 -0.50551182
v 0.05616077 -0.81855214 0.51608002
v 0.13628505 -0.61145341 0.48106569
v 0.03227302 -0.46707851 -0.44063285
v 0.11554509 -0.58436745 0.47472152
v 0.24545693 0.17047089 0.44477388
v 0.11703367 0.74923986 -0.57983279
v 0.11301789 0.74643642 -0.57975340
v 0.12069152 -0.48517254 0.46915099
v 0.27328366 0.53418988 0.31859717
v 0.07059596 0.69589049 -0.59944677
v 0.11313368 0.73865986 -0.58745277
v 0.14183776 0.71921885 0.33773118
v 0.11902653 0.80062157 -0.52889711
v 0.26093256 -0.68336117 0.40335545
v 0.09726110 0.41373992 -0.56775665
v 0.08808308 0.12573147 -0.49446550
v 0.13052619 0.53105015 -0.68169373
v 0.07016181 0.37997249 0.54688960
v 0.11312628 0.74249953 -0.58369207
v 0.11313368 0.74645984 -0.57983279
v 0.11314367 0.74646986 -0.57983279
v 0.11313368 0.74255985 -0.58364278
v 0.11322941 0.74264044 -0.58362806
v 0.08454984 -0.81177461 0.48166880
v 0.28132689 -0.70702106 0.40332550
v 0.22640368 -0.87462014 0.39281717
v 0.22250368 -0.87462014 0.39631721
v 0.26921067 -0.34287086 -0.39783230
v 0.13476008 -0.22612679 -0.43936852
v 0.15391079 0.09990416 -0.49595469
v 0.14668073 0.31984684 -0.67173719
v 0.21078436 0.69570696 0.27956906
v 0.12892327 0.55480838 -0.68561357
v 0.22415923 0.66498381 0.29624012
v 0.21078859 0.69169885 0.28342995
v 0.21078368 0.69177985 0.28334719
v 0.17983407 -0.80243307 0.40586284
v 0.22641367 -0.87087011 0.38890719
v 0.27328366 -0.68712014 0.39229718
v 0.27719367 -0.68712014 0.38894719
v 0.27719367 -0.69102013 0.38892716
v 0.20497303 -0.52392489 -0.44666091
v 0.21004006 0.69187260 0.28437814
v 0.20803168 0.69624943 0.28283563
v 0.21085799 0.69586265 0.27931717
v 0.21082368 0.69568986 0.27953717
v 0.19655366 0.87789559 -0.50009763
v 0.16057153 0.93091542 -0.23556575
v 0.22641367 -0.87462014 0.39281717
v 0.22641367 -0.87462014 0.39280719
v 0.28482181 -0.86100006 0.32319504
v 0.26330727 -0.35432154 0.33865222
v 0.24281721 -0.43223956 0.35398746
v 0.26429081 -0.43456739 0.33815843
v 0.23031367 -0.87462014 0.38929719
v 0.25681040 0.47868660 -0.71972847
v 0.30450565 0.55961853 0.25558394
v 0.22964428 -0.88349718 0.39903709
v 0.26253724 0.49263754 -0.71667749
v 0.21854009 0.67657840 0.28713211
v 0.31496826 0.84562761 -0.51377612
v 0.25375366 -0.43801010 0.34594718
v 0.25375366 -0.43712011 0.34592718
v 0.25375366 -0.43321013 0.34584719
v 0.24828368 -0.43321013 0.34984717
v 0.29312283 0.20008329 0.39755562
v 0.23525691 0.14130679 0.45971665
v 0.19250247 0.32774514 -0.44984388
v 0.24460585 0.17855462 -0.75878364
v 0.19558153 0.37837753 0.50208193
v 0.26156366 0.49255988 -0.71654278
v 0.24185677 0.56813473 0.33587989
v 0.25375366 0.48474988 -0.71656281
v 0.30464366 0.56287986 0.25219718
v 0.27719367 0.52394986 0.32250717
v 0.27723366 0.52771986 0.31859717
v 0.27719367 0.52771986 0.31867719
v 0.31604567 0.41481623 0.37211764
v 0.22493997 0.71773154 0.24705268
v 0.30453366 0.55505985 0.25995719
v 0.27719367 0.53163987 0.31469718
v 0.27719367 0.52779984 0.31859717
v 0.27720487 0.53160518 0.31473663
v 0.20445812 0.72957677 -0.64409930
v 0.28023455 0.51646191 0.32479763
v 0.28785193 -0.66634613 0.37642118
v 0.27719367 -0.69118011 0.38890719
v 0.27719367 -0.68422014 0.38890719
v 0.27722368 -0.68712014 0.38890719
v 0.27721366 -0.69102013 0.38890719
v 0.28110367 -0.69102013 0.38510719
v 0.25373366 -0.43712011 0.34594718
v 0.25362366 -0.43321013 0.34594718
v 0.34574977 -0.29546091 -0.36740473
v 0.26311809 0.52501458 -0.71294850
v 0.25764367 0.48865986 -0.71655279
v 0.25766367 0.48865986 -0.71655279
v 0.25766367 0.48867986 -0.71655279
v 0.24435662 0.48410380 -0.71442223
v 0.26156366 0.49250990 -0.71655279
v 0.25375366 0.48865986 -0.71581280
v 0.27718142 0.53553373 0.31076697
v 0.28921530 0.56493270 0.27743450
v 0.30458367 0.55896986 0.25609717
v 0.31727219 0.68663079 -0.67482740
v 0.28480169 0.54992813 0.28240067
v 0.30433509 0.85244387 -0.40638080
v 0.36566368 -0.87852013 0.25219718
v 0.30592754 -0.86212540 0.30443904
v 0.28723568 -0.70852673 0.37894729
v 0.31236508 -0.69641244 0.35286015
v 0.46382263 -0.74137950 -0.25291753
v 0.33260641 -0.51048869 0.32583994
v 0.41030926 -0.34254664 0.23346204
v 0.34273529 -0.15079994 0.28929648
v 0.35531366 -0.15977013 0.27954721
v 0.35531366 -0.15587012 0.27957717
v 0.35537368 -0.15587012 0.27953717
v 0.35533366 -0.15977013 0.27953717
v 0.23921454 -0.20085575 -0.38701013
v 0.30752805 0.09118284 -0.42673475
v 0.37970445 -0.11514758 0.27088869
v 0.35616955 0.26620972 -0.40654686
v 0.40543547 0.43215570 -0.70394397
v 0.35582542 0.27776092 -0.38608751
v 0.31880727 0.56528336 0.22489440
v 0.30449551 0.55497617 0.26015678
v 0.39697367 0.19568987 0.24047719
v 0.37952602 0.56348926 0.12081198
v 0.24376445 0.79909289 0.13048117
v 0.30050972 0.74723452 -0.67178762
v 0.33869681 -0.84911168 0.26493013
v 0.36313564 -0.87069511 0.24836819
v 0.36313367 -0.87461013 0.25219718
v 0.36319366 -0.87071013 0.24828719
v 0.36313367 -0.87462014 0.25219718
v 0.37083367 -0.87852013 0.24437720
v 0.37485367 -0.84056014 -0.35717282
v 0.39881313 -0.70814008 0.22400622
v 0.26974440 -0.51845491 -0.40354642
v 0.36056367 -0.87071013 0.25219718
v 0.37485367 -0.15196012 0.27470717
v 0.37875366 -0.15162012 0.27172720
v 0.35581645 -0.32365954 0.27562192
v 0.36676794 -0.15041117 0.27100697
v 0.29309946 0.06204536 -0.41591761
v 0.35542366 -0.15196012 0.27953717
v 0.35179207 -0.14126331 0.28238517
v 0.35972321 -0.19899552 -0.27411401
v 0.32591367 -0.02198518 0.31324217
v 0.36326367 -0.86680013 0.24437720
v 0.27873015 0.38675240 0.42379743
v 0.37899366 0.57849985 0.10765719
v 0.37885368 0.57458985 0.11156719
v 0.34064746 0.60704839 0.14723308
v 0.41043818 0.50302094 0.12563084
v 0.37485367 0.57849985 0.11485719
v 0.40260631 0.39312071 0.21062802
v 0.35461012 0.58818829 0.12330070
v 0.36983946 -0.83825207 -0.36180907
v 0.41299698 -0.91480589 0.16825645
v 0.37822244 -0.94085038 -0.36264965
v 0.38266367 -0.83946013 -0.34944281
v 0.37875366 -0.83946013 -0.35326281
v 0.37279311 -0.89785767 0.26033226
v 0.37484819 -0.83940572 -0.35708207
v 0.37485367 -0.83946013 -0.35708281
v 0.43070731 -0.84102112 0.03879347
v 0.42250651 -0.91808105 -0.33727795
v 0.41105723 -0.50298071 -0.28623381
v 0.35531366 -0.16077012 0.27953717
v 0.41391367 -0.22602013 -0.26733282
v 0.41401562 -0.22618578 -0.26741743
v 0.38266367 -0.15587012 0.26868719
v 0.36112177 -0.16606601 0.28495771
v 0.37875366 -0.15587012 0.27173719
v 0.37875366 -0.15196012 0.27172720
v 0.39430368 0.20349987 0.24437720
v 0.34830600 0.10114334 0.30613968
v 0.44187623 0.24162170 -0.26833019
v 0.39020291 0.18897429 0.25092152
v 0.37872410 0.57068300 0.11545051
v 0.38565993 0.58291054 0.09215976
v 0.37875366 0.57068986 0.11539719
v 0.41586632 -0.74072373 0.14669885
v 0.37865108 -0.83951581 -0.35336384
v 0.36043093 -0.86304766 0.22715391
v 0.37877366 -0.15587012 0.27172720
v 0.45515314 -0.46602905 -0.19848995
v 0.41530395 -0.33601877 -0.11375023
v 0.42251408 -0.24090654 -0.27664837
v 0.37876368 -0.15196012 0.27172720
v 0.40610367 -0.22618012 -0.27509281
v 0.41781366 -0.22593012 -0.26342282
v 0.40778092 -0.49611464 0.25060743
v 0.41898599 -0.22157595 -0.25708047
v 0.49008885 -0.22452907 -0.16725175
v 0.41000819 -0.22622107 -0.27135634
v 0.39433366 0.19958988 0.24437720
v 0.39438367 0.19958988 0.24430719
v 0.39438048 0.19562896 0.24437712
v 0.39438367 0.19568987 0.24437720
v 0.47252962 0.55377352 -0.55012977
v 0.40234256 0.54319829 0.08416360
v 0.43708777 0.27535343 0.16911422
v 0.40445367 0.54724985 0.07640719
v 0.40089110 0.55160683 0.07812631
v 0.40219367 0.54725987 0.08031722
v 0.40220368 0.54724985 0.08031719
v 0.40217766 0.53942382 0.08811653
v 0.42345703 0.53014719 0.07801793
v 0.40219072 0.54334307 0.08424221
v 0.37875366 0.57476985 0.11156719
v 0.37875366 0.57458985 0.11173719
v 0.40219367 0.54333985 0.08421719
v 0.42571560 0.52046853 0.08375557
v 0.42563367 0.52380985 0.08056718
v 0.36385772 0.71956575 -0.00394254
v 0.37901339 0.57053924 0.11509784
v 0.40729678 0.54446697 0.07423156
v 0.43244740 0.40776798 -0.36522055
v 0.43379790 0.68512923 -0.59841818
v 0.41634366 -0.71446013 0.17406718
v 0.41787368 -0.71055013 0.17406718
v 0.41781393 -0.71062559 0.17413110
v 0.41789368 -0.70665014 0.17797719
v 0.40598139 -0.73549730 -0.31956977
v 0.41781718 -0.71448940 0.17018631
v 0.41781366 -0.71446013 0.17022718
v 0.46473172 -0.47169250 -0.22124486
v 0.44000080 -0.33603904 -0.08035950
v 0.49836919 0.19220981 -0.73913723
v 0.41000366 -0.22612013 -0.27123281
v 0.41007367 -0.22618012 -0.27123281
v 0.51531565 0.20334886 -0.00265381
v 0.44764966 0.27780652 0.14955430
v 0.45297366 0.25037989 0.12328719
v 0.45085368 0.25427988 0.12719719
v 0.45297366 0.25427988 0.12330719
v 0.44516367 0.26599988 0.15452719
v 0.44515800 0.26583654 0.15453619
v 0.42578366 0.52771986 0.07640719
v 0.44914728 0.26522797 0.14695537
v 0.42701522 0.19319478 0.19330817
v 0.45297366 0.25818986 0.12332718
v 0.45547751 0.26390386 0.11870652
v 0.46418598 0.45816475 -0.62531906
v 0.42563367 0.52771986 0.07667718
v 0.42563367 0.52405983 0.08031719
v 0.44916993 0.60704309 -0.08413258
v 0.41847816 0.55513966 0.06088810
v 0.42577368 0.52380985 0.08031719
v 0.42949057 0.52845550 0.06924347
v 0.44743288 0.48976931 0.06011529
v 0.39404652 0.73128980 -0.29661971
v 0.40177527 0.73774463 -0.57682168
v 0.43721908 0.65692610 -0.44242901
v 0.48249379 -0.94951648 -0.15451871
v 0.47759098 -0.67068040 -0.18453260
v 0.46689415 -0.56846011 -0.17639041
v 0.46671841 -0.71137536 0.08182238
v 0.44192445 -0.68151081 0.11584850
v 0.41608852 -0.49160770 0.25809193
v 0.48636529 -0.41507074 0.17108846
v 0.40060672 -0.25784764 -0.26516423
v 0.45301366 0.26208985 0.12328719
v 0.44407612 -0.00091381 0.18343329
v 0.45300367 0.25818986 0.12328719
v 0.45298368 0.25427988 0.12328719
v 0.44511366 0.26990986 0.15453719
v 0.44516367 0.26990986 0.15445720
v 0.44507366 0.27380988 0.15453719
v 0.42878684 0.17423448 -0.47695521
v 0.45493484 0.24079002 0.11958506
v 0.44324583 0.26650944 0.14133188
v 0.45044589 0.43133402 -0.36822608
v 0.51252109 0.45804125 -0.22903682
v 0.49294534 -0.38343009 0.13126731
v 0.48616979 -0.16651987 -0.12539189
v 0.51810050 -0.04797098 -0.06791416
v 0.51161397 0.09821132 -0.03626760
v 0.49138492 0.42477301 0.06216418
v 0.50233746 0.44460467 -0.27360994
v 0.39080802 0.68347871 -0.06112581
v 0.53613913 0.30570957 -0.12469728
v 0.51624143 0.38393921 0.01182257
f 4 76 5
f 9 3 16
f 5 1 4
f 5 60 1
f 8 3 5
f 5 3 60
f 8 5 76
f 7 6 270
f 4 7 76
f 7 270 76
f 60 58 1
f 9 2 60
f 9 22 2
f 3 9 60
f 7 4 1
f 16 3 8
f 9 39 22
f 107 17 164
f 19 50 53
f 22 82 2
f 1 6 7
f 13 20 10
f 20 27 26
f 85 10 6
f 26 28 20
f 26 29 28
f 85 11 21
f 29 14 28
f 20 28 10
f 28 14 10
f 270 6 10
f 14 29 13
f 34 35 36
f 37 38 12
f 8 76 98
f 43 42 44
f 9 16 137
f 6 77 18
f 48 47 49
f 48 49 51
f 46 47 52
f 50 46 6
f 6 18 85
f 77 6 46
f 54 55 56
f 55 54 57
f 51 49 19
f 21 37 23
f 64 65 66
f 67 64 66
f 38 37 68
f 23 38 68
f 23 37 38
f 11 38 37
f 85 21 10
f 25 270 32
f 21 23 68
f 21 11 37
f 21 68 32
f 68 37 32
f 85 25 12
f 11 85 12
f 38 11 12
f 12 25 32
f 37 12 32
f 10 21 13
f 13 21 32
f 27 20 13
f 29 27 13
f 27 29 26
f 10 14 32
f 14 13 32
f 10 32 270
f 71 45 39
f 74 71 41
f 39 9 41
f 39 41 71
f 40 71 73
f 74 44 42
f 73 74 42
f 279 45 40
f 45 71 40
f 41 9 44
f 41 44 74
f 40 73 42
f 40 42 43
f 39 45 279
f 71 74 73
f 40 43 279
f 44 9 137
f 43 44 137
f 279 43 137
f 101 83 251
f 101 82 83
f 53 46 52
f 47 48 52
f 2 82 318
f 49 50 19
f 47 46 50
f 59 24 18
f 47 50 49
f 51 52 48
f 52 51 53
f 51 19 53
f 85 18 24
f 53 50 6
f 107 115 113
f 87 88 89
f 22 83 82
f 88 163 89
f 53 6 1
f 94 30 95
f 85 134 25
f 96 63 72
f 134 270 25
f 72 22 39
f 16 8 97
f 242 279 137
f 270 242 76
f 93 92 134
f 101 251 78
f 152 289 59
f 152 59 18
f 108 105 102
f 102 105 106
f 105 111 81
f 162 110 112
f 53 1 297
f 22 115 83
f 119 120 176
f 24 91 85
f 121 122 123
f 31 124 30
f 22 187 114
f 85 75 134
f 125 70 127
f 96 186 126
f 187 62 114
f 134 92 128
f 92 129 128
f 131 67 132
f 67 66 132
f 64 126 65
f 174 121 123
f 35 135 36
f 187 22 72
f 72 39 303
f 303 39 279
f 97 137 16
f 138 139 75
f 146 143 117
f 143 144 145
f 204 146 280
f 147 117 145
f 117 143 145
f 280 254 213
f 249 280 78
f 280 146 99
f 280 100 254
f 99 78 280
f 78 411 249
f 99 288 78
f 100 212 152
f 254 100 152
f 147 56 149
f 146 117 147
f 55 150 151
f 78 288 101
f 57 150 55
f 254 152 18
f 254 18 77
f 82 101 288
f 280 213 204
f 206 153 150
f 111 105 108
f 80 111 108
f 81 111 80
f 46 292 77
f 79 109 84
f 109 102 106
f 108 109 79
f 83 370 251
f 155 156 104
f 84 109 106
f 59 109 108
f 113 157 158
f 113 164 157
f 289 109 59
f 79 80 108
f 24 162 116
f 79 84 80
f 59 159 110
f 108 102 59
f 159 160 110
f 156 161 104
f 156 155 110
f 59 102 154
f 154 159 59
f 103 162 112
f 110 162 24
f 165 113 158
f 166 155 167
f 155 104 167
f 168 165 158
f 103 112 167
f 110 160 156
f 17 165 168
f 104 103 167
f 215 163 154
f 154 103 104
f 59 110 24
f 161 154 104
f 166 112 110
f 155 166 110
f 160 159 161
f 156 160 161
f 112 166 167
f 159 154 161
f 164 17 168
f 318 60 2
f 103 154 162
f 370 83 107
f 17 107 165
f 107 113 165
f 107 83 115
f 168 158 157
f 90 113 158
f 113 90 164
f 206 150 146
f 168 157 164
f 171 136 170
f 114 115 22
f 123 122 173
f 176 175 119
f 1 33 297
f 120 179 130
f 116 176 24
f 116 170 177
f 120 171 179
f 176 120 130
f 180 136 119
f 175 180 119
f 136 120 119
f 136 171 120
f 178 180 175
f 177 178 175
f 69 121 174
f 177 175 176
f 116 177 176
f 118 69 174
f 130 181 24
f 24 176 130
f 122 69 181
f 24 69 118
f 24 118 91
f 118 174 91
f 121 69 122
f 24 181 69
f 122 181 173
f 93 34 92
f 91 173 181
f 123 173 91
f 174 123 91
f 139 127 75
f 65 64 182
f 64 62 182
f 64 65 62
f 183 125 184
f 92 34 129
f 34 36 129
f 124 185 125
f 91 181 75
f 91 75 85
f 96 114 186
f 139 138 183
f 75 127 70
f 127 139 184
f 139 183 184
f 36 70 129
f 133 124 125
f 135 35 93
f 125 185 70
f 64 67 96
f 126 62 65
f 186 62 126
f 187 132 182
f 138 75 133
f 134 128 70
f 94 227 31
f 72 114 96
f 135 75 70
f 96 126 64
f 134 75 93
f 133 94 95
f 63 132 187
f 75 135 93
f 65 182 66
f 93 35 34
f 186 114 62
f 63 131 132
f 131 63 96
f 129 70 128
f 134 70 320
f 36 135 70
f 62 187 182
f 187 72 63
f 132 66 182
f 96 67 131
f 270 134 320
f 302 97 8
f 189 190 191
f 189 195 190
f 275 137 192
f 195 193 189
f 193 194 189
f 194 195 189
f 275 192 193
f 275 193 195
f 195 194 190
f 192 137 97
f 194 97 190
f 193 192 194
f 190 97 191
f 192 97 194
f 185 227 70
f 76 242 98
f 242 137 391
f 196 197 198
f 200 201 206
f 202 203 199
f 203 202 197
f 147 202 199
f 144 143 57
f 199 142 147
f 204 206 146
f 150 57 146
f 205 142 199
f 205 196 142
f 201 198 206
f 207 208 149
f 207 198 208
f 151 153 209
f 150 153 151
f 54 144 57
f 54 145 144
f 143 146 57
f 209 198 207
f 209 206 198
f 209 153 206
f 151 207 149
f 207 151 209
f 203 200 196
f 201 203 196
f 201 200 203
f 198 201 196
f 200 206 148
f 196 200 148
f 147 142 148
f 145 54 56
f 206 204 148
f 55 151 56
f 148 142 196
f 147 145 56
f 56 151 149
f 203 205 199
f 196 205 203
f 197 196 203
f 149 208 202
f 147 149 202
f 208 197 202
f 198 197 208
f 280 285 100
f 78 251 411
f 163 214 154
f 81 80 84
f 254 77 292
f 89 215 61
f 109 289 102
f 105 81 106
f 81 84 106
f 169 61 154
f 46 53 292
f 289 215 102
f 61 87 89
f 102 215 154
f 297 292 53
f 113 115 90
f 214 169 154
f 163 215 89
f 214 87 169
f 87 61 169
f 88 87 214
f 163 88 214
f 107 164 370
f 90 115 86
f 58 60 318
f 154 116 162
f 115 114 86
f 86 164 90
f 164 86 370
f 154 61 116
f 113 90 158
f 179 170 130
f 178 177 170
f 170 116 188
f 179 171 170
f 136 180 170
f 180 178 170
f 221 222 223
f 130 170 188
f 257 225 226
f 181 130 188
f 124 31 185
f 75 188 227
f 188 320 227
f 181 188 75
f 30 94 31
f 228 268 229
f 133 125 183
f 31 227 185
f 138 133 183
f 125 127 184
f 75 227 133
f 30 124 95
f 124 133 95
f 227 94 133
f 227 320 70
f 321 8 98
f 231 232 305
f 232 233 234
f 238 231 239
f 233 238 239
f 195 191 275
f 195 189 191
f 303 279 237
f 270 276 242
f 191 97 275
f 391 137 406
f 242 391 307
f 148 204 213
f 147 148 213
f 147 99 146
f 219 216 223
f 152 212 289
f 318 82 288
f 215 289 317
f 317 61 215
f 61 317 116
f 222 255 223
f 116 317 218
f 255 222 220
f 226 225 256
f 218 220 188
f 216 221 223
f 258 225 257
f 221 216 220
f 219 255 220
f 188 116 218
f 255 219 223
f 317 320 218
f 218 216 219
f 222 221 220
f 218 219 220
f 172 260 217
f 220 216 188
f 218 320 216
f 172 217 258
f 86 172 226
f 86 226 256
f 217 256 259
f 172 257 226
f 217 260 256
f 172 258 257
f 217 259 258
f 260 172 86
f 216 320 188
f 260 86 114
f 259 256 225
f 258 259 225
f 260 261 256
f 86 256 261
f 1 58 273
f 260 72 261
f 72 260 114
f 33 1 273
f 15 229 267
f 210 250 248
f 339 264 224
f 301 265 266
f 267 301 266
f 241 303 237
f 235 271 274
f 234 239 240
f 235 234 240
f 232 238 233
f 232 234 235
f 272 303 241
f 240 239 303
f 305 232 235
f 233 239 234
f 303 239 231
f 303 231 305
f 271 235 240
f 238 232 231
f 272 240 303
f 271 240 272
f 274 271 272
f 305 235 237
f 406 275 97
f 302 406 97
f 237 274 241
f 274 272 241
f 235 274 237
f 137 275 406
f 140 246 283
f 410 245 278
f 140 278 281
f 278 282 281
f 286 211 247
f 285 280 296
f 211 286 250
f 286 247 250
f 247 248 250
f 210 247 211
f 210 296 247
f 248 296 210
f 247 280 248
f 280 247 296
f 210 211 250
f 249 248 280
f 147 213 99
f 388 333 212
f 290 291 253
f 293 294 295
f 370 86 261
f 321 273 8
f 273 302 8
f 228 269 268
f 299 267 229
f 268 261 299
f 228 266 265
f 464 297 33
f 266 228 267
f 299 229 268
f 15 265 229
f 265 228 229
f 228 265 15
f 261 72 299
f 265 269 228
f 267 228 15
f 267 299 72
f 265 301 269
f 261 268 269
f 72 303 304
f 305 304 303
f 237 279 276
f 306 98 242
f 282 278 309
f 248 249 287
f 285 212 100
f 212 285 367
f 388 212 367
f 254 284 213
f 253 312 316
f 99 364 288
f 289 212 316
f 333 316 212
f 312 313 314
f 316 312 314
f 313 312 291
f 302 273 341
f 300 33 273
f 277 141 319
f 301 267 304
f 269 301 261
f 304 267 72
f 273 321 300
f 320 348 270
f 323 324 383
f 323 325 324
f 98 408 321
f 358 349 304
f 305 237 358
f 358 304 305
f 328 329 330
f 237 276 358
f 324 141 383
f 308 306 277
f 325 323 319
f 141 324 319
f 306 242 410
f 282 246 140
f 309 246 282
f 245 309 278
f 278 140 410
f 281 282 140
f 246 245 283
f 410 242 283
f 245 246 309
f 245 410 283
f 283 307 140
f 283 242 307
f 279 242 276
f 287 296 248
f 336 313 290
f 99 213 364
f 251 370 315
f 290 253 252
f 316 314 336
f 372 334 371
f 254 292 389
f 318 412 58
f 320 317 322
f 370 261 382
f 295 337 338
f 374 294 293
f 264 343 344
f 277 319 323
f 345 294 342
f 294 340 342
f 261 301 304
f 261 304 382
f 408 300 321
f 348 276 270
f 277 306 410
f 277 383 141
f 306 308 350
f 350 323 383
f 323 350 325
f 304 349 384
f 330 329 351
f 349 352 353
f 349 358 352
f 353 352 355
f 323 308 277
f 306 383 98
f 308 325 350
f 356 357 329
f 354 328 357
f 384 349 354
f 355 356 351
f 356 329 330
f 351 356 330
f 349 353 354
f 356 352 357
f 352 356 355
f 354 353 351
f 353 355 351
f 352 358 357
f 351 328 354
f 328 351 329
f 330 329 357
f 358 354 357
f 330 357 328
f 325 308 323
f 325 319 324
f 350 383 306
f 358 276 354
f 140 307 410
f 326 359 327
f 360 361 362
f 363 244 262
f 360 244 363
f 296 367 285
f 284 364 213
f 365 366 373
f 313 291 290
f 366 334 372
f 311 252 333
f 311 290 252
f 368 373 369
f 316 252 253
f 365 334 366
f 411 251 373
f 336 289 316
f 336 290 311
f 333 336 311
f 316 333 252
f 334 335 371
f 314 313 336
f 312 253 291
f 315 373 251
f 371 315 372
f 368 369 371
f 335 334 365
f 368 335 365
f 449 372 370
f 315 369 373
f 373 368 365
f 315 370 372
f 317 289 310
f 371 369 315
f 368 371 335
f 372 373 366
f 322 317 474
f 294 273 340
f 295 294 345
f 273 58 412
f 337 295 345
f 263 339 298
f 374 273 294
f 298 338 263
f 338 337 263
f 292 297 464
f 374 293 338
f 224 264 344
f 273 412 340
f 375 344 376
f 377 264 263
f 263 264 339
f 293 295 338
f 273 374 298
f 374 338 298
f 337 345 342
f 339 273 298
f 273 339 341
f 300 464 33
f 380 381 443
f 383 408 98
f 304 384 409
f 383 410 408
f 383 277 410
f 384 354 276
f 391 363 262
f 394 262 244
f 332 384 386
f 332 326 327
f 326 332 331
f 346 296 287
f 249 411 395
f 284 254 450
f 336 333 310
f 449 370 396
f 449 373 372
f 317 310 474
f 396 370 382
f 340 337 342
f 337 340 263
f 340 412 263
f 339 398 341
f 347 375 376
f 320 322 462
f 347 339 224
f 375 224 344
f 398 347 376
f 347 224 375
f 344 343 376
f 343 398 376
f 377 343 264
f 339 347 398
f 362 244 262
f 362 361 243
f 361 363 391
f 360 363 361
f 244 362 243
f 394 244 243
f 262 394 391
f 393 359 326
f 331 386 359
f 386 326 359
f 331 332 386
f 326 386 236
f 386 384 236
f 385 393 236
f 384 276 236
f 236 276 392
f 359 393 327
f 393 326 236
f 327 385 332
f 296 346 367
f 287 249 395
f 388 367 441
f 441 310 388
f 388 310 333
f 289 336 310
f 377 263 398
f 412 513 263
f 263 513 398
f 462 230 320
f 343 377 398
f 394 361 406
f 244 394 243
f 406 302 341
f 348 397 428
f 428 397 390
f 426 399 400
f 401 414 402
f 403 404 405
f 406 361 391
f 394 243 361
f 394 244 243
f 327 393 385
f 392 332 385
f 409 384 392
f 385 236 392
f 384 332 392
f 367 346 441
f 389 450 254
f 462 322 475
f 304 413 382
f 401 417 418
f 417 401 419
f 348 320 397
f 405 421 416
f 404 422 421
f 423 403 405
f 424 400 425
f 400 424 426
f 401 418 423
f 397 415 427
f 390 397 427
f 429 399 430
f 405 416 407
f 428 390 431
f 390 427 431
f 415 432 426
f 415 426 420
f 427 415 420
f 419 402 427
f 427 420 419
f 420 426 424
f 379 433 380
f 399 429 434
f 428 414 423
f 417 420 435
f 403 422 404
f 420 424 435
f 348 428 407
f 426 432 399
f 432 430 399
f 430 432 415
f 401 402 419
f 418 417 403
f 423 405 407
f 425 400 434
f 402 431 427
f 414 428 431
f 402 414 431
f 405 404 421
f 418 403 423
f 403 435 422
f 419 420 417
f 428 423 407
f 417 435 403
f 414 401 423
f 421 436 416
f 422 424 425
f 435 424 422
f 422 425 421
f 407 416 378
f 434 429 437
f 400 399 434
f 421 434 436
f 425 434 421
f 416 436 433
f 436 437 433
f 436 434 437
f 437 380 433
f 378 433 379
f 438 439 381
f 416 433 378
f 348 407 276
f 410 307 408
f 364 284 470
f 288 364 454
f 411 373 449
f 412 318 288
f 382 476 396
f 398 513 341
f 320 230 456
f 408 464 300
f 378 379 407
f 380 437 438
f 409 463 304
f 320 456 397
f 440 397 446
f 276 407 446
f 443 440 446
f 439 444 440
f 379 380 443
f 381 439 443
f 444 397 440
f 445 444 439
f 430 415 397
f 439 440 443
f 430 397 444
f 379 443 446
f 429 430 445
f 430 444 445
f 407 379 446
f 380 438 381
f 437 429 438
f 445 439 438
f 429 445 438
f 394 307 391
f 364 442 447
f 411 488 395
f 411 449 488
f 464 451 292
f 304 463 413
f 397 456 446
f 364 470 442
f 364 447 471
f 364 471 448
f 364 448 454
f 288 454 412
f 322 474 475
f 461 230 462
f 476 382 413
f 479 230 461
f 456 230 479
f 530 452 469
f 394 406 458
f 456 457 465
f 456 459 446
f 276 446 392
f 446 459 392
f 409 392 493
f 395 346 287
f 341 513 516
f 476 387 461
f 479 461 477
f 406 341 516
f 453 465 466
f 452 467 469
f 453 467 452
f 459 453 452
f 465 457 469
f 459 456 453
f 457 456 530
f 453 466 467
f 468 469 467
f 456 465 453
f 457 530 469
f 465 469 468
f 465 468 466
f 466 468 467
f 452 530 459
f 307 394 576
f 307 576 408
f 576 394 458
f 459 507 392
f 483 472 473
f 284 450 483
f 483 470 284
f 396 476 566
f 387 476 413
f 387 413 515
f 461 387 477
f 514 461 462
f 515 413 463
f 598 464 408
f 456 479 530
f 491 506 525
f 504 483 473
f 472 483 484
f 485 486 487
f 310 441 586
f 389 498 450
f 389 292 451
f 387 515 477
f 476 461 514
f 577 463 409
f 458 406 480
f 481 491 492
f 478 482 492
f 493 577 409
f 392 507 494
f 496 472 484
f 496 495 472
f 470 483 442
f 484 483 497
f 488 449 540
f 501 496 484
f 540 396 566
f 592 462 475
f 495 496 501
f 479 477 545
f 541 479 545
f 463 577 515
f 525 490 491
f 516 524 406
f 406 524 480
f 482 489 481
f 490 478 491
f 482 481 492
f 506 491 481
f 478 492 491
f 506 458 480
f 489 458 506
f 482 478 490
f 489 506 481
f 489 482 490
f 458 525 576
f 525 458 490
f 489 490 458
f 507 459 530
f 494 553 493
f 392 494 493
f 504 495 501
f 472 495 473
f 497 442 504
f 495 504 473
f 497 501 484
f 483 504 442
f 497 504 501
f 500 508 509
f 540 449 396
f 450 498 499
f 448 590 454
f 310 586 474
f 513 412 454
f 498 389 451
f 476 567 566
f 451 464 598
f 477 515 502
f 477 502 545
f 520 549 503
f 531 521 522
f 521 523 522
f 525 506 480
f 529 522 527
f 522 528 527
f 528 522 523
f 529 455 527
f 479 551 530
f 533 485 487
f 447 442 555
f 534 532 535
f 557 497 483
f 533 487 536
f 487 486 535
f 536 487 535
f 441 346 586
f 556 485 533
f 556 460 485
f 532 534 460
f 485 460 534
f 460 450 532
f 537 556 533
f 556 483 460
f 450 460 483
f 486 485 534
f 509 538 539
f 510 509 539
f 607 555 442
f 498 500 510
f 510 499 498
f 509 510 500
f 511 508 499
f 538 508 511
f 511 510 539
f 510 511 499
f 500 559 508
f 539 538 511
f 499 559 450
f 559 499 508
f 508 538 509
f 498 559 500
f 454 590 625
f 454 625 513
f 514 462 592
f 476 569 567
f 542 543 544
f 518 523 521
f 519 545 502
f 519 543 542
f 543 519 502
f 543 502 505
f 541 547 517
f 546 505 517
f 545 519 542
f 545 542 547
f 544 546 517
f 544 543 546
f 543 505 546
f 547 544 517
f 505 502 570
f 517 505 541
f 542 544 547
f 505 570 541
f 541 545 547
f 518 552 455
f 528 529 527
f 408 518 598
f 523 518 455
f 576 552 518
f 548 529 527
f 455 529 528
f 455 548 527
f 455 528 523
f 548 455 552
f 573 503 549
f 526 573 550
f 408 576 518
f 552 531 529
f 530 551 507
f 553 494 701
f 730 576 494
f 494 576 664
f 447 555 471
f 536 537 533
f 483 556 557
f 535 537 536
f 556 537 532
f 486 534 535
f 535 532 537
f 471 709 448
f 559 532 450
f 558 395 488
f 448 709 590
f 562 563 564
f 565 562 564
f 451 596 498
f 625 512 513
f 598 596 451
f 513 512 524
f 476 514 569
f 572 520 550
f 514 592 626
f 516 513 524
f 520 503 550
f 521 531 518
f 552 529 548
f 503 526 550
f 520 572 549
f 524 573 549
f 572 573 524
f 526 503 573
f 531 552 598
f 522 529 531
f 598 518 531
f 573 572 550
f 479 541 551
f 549 572 480
f 549 480 524
f 480 664 525
f 664 480 601
f 664 701 494
f 577 493 553
f 579 580 581
f 580 582 581
f 554 579 581
f 579 583 581
f 579 554 583
f 346 395 615
f 558 615 395
f 557 556 532
f 557 532 559
f 555 582 587
f 568 588 589
f 564 563 593
f 563 594 593
f 566 595 540
f 592 475 725
f 595 566 567
f 502 515 570
f 514 667 569
f 607 597 581
f 678 515 577
f 604 598 552
f 604 552 576
f 570 551 541
f 524 601 572
f 599 600 629
f 480 572 601
f 604 576 605
f 702 507 551
f 346 608 586
f 607 578 597
f 494 507 730
f 664 696 701
f 578 587 579
f 673 609 608
f 497 607 442
f 497 557 585
f 610 673 606
f 587 578 555
f 633 607 497
f 581 583 607
f 607 583 611
f 607 611 555
f 554 611 583
f 587 582 580
f 582 554 581
f 597 579 581
f 579 597 578
f 606 608 584
f 554 582 611
f 611 582 555
f 579 587 580
f 578 607 707
f 578 707 555
f 585 633 497
f 557 559 641
f 616 586 705
f 474 586 616
f 591 617 565
f 560 617 591
f 564 593 591
f 475 474 711
f 561 562 617
f 617 562 565
f 625 590 621
f 713 591 596
f 591 593 594
f 561 563 562
f 591 565 564
f 621 590 710
f 498 561 560
f 560 591 713
f 560 561 617
f 621 710 620
f 561 594 563
f 621 588 568
f 594 561 596
f 561 498 596
f 621 568 625
f 591 594 596
f 588 622 623
f 719 567 569
f 625 524 512
f 667 514 626
f 602 575 601
f 524 602 601
f 507 703 730
f 584 608 632
f 608 346 615
f 610 613 632
f 612 610 606
f 608 606 586
f 612 584 613
f 610 632 609
f 613 584 632
f 612 613 610
f 606 584 612
f 673 610 609
f 608 609 632
f 586 606 673
f 673 608 615
f 673 705 586
f 555 707 471
f 708 585 557
f 708 557 641
f 558 488 676
f 498 641 559
f 588 621 634
f 540 676 488
f 474 616 711
f 622 588 634
f 634 620 638
f 588 623 589
f 621 620 634
f 540 595 637
f 622 634 638
f 623 622 638
f 620 568 589
f 618 595 642
f 475 711 725
f 620 710 568
f 595 643 642
f 620 589 638
f 589 623 638
f 624 524 627
f 647 627 574
f 690 574 627
f 627 645 624
f 596 598 604
f 646 574 690
f 627 647 645
f 648 647 574
f 627 625 690
f 624 690 524
f 648 574 646
f 645 646 624
f 647 648 645
f 648 646 645
f 524 625 627
f 646 690 624
f 570 515 678
f 605 653 658
f 605 732 604
f 700 656 650
f 653 652 654
f 652 655 654
f 658 656 605
f 600 659 660
f 654 661 658
f 602 524 728
f 649 678 577
f 654 658 653
f 630 600 660
f 630 660 628
f 603 599 629
f 599 603 659
f 665 600 630
f 659 600 599
f 668 649 577
f 663 657 662
f 601 575 628
f 601 603 629
f 630 628 665
f 602 664 629
f 602 629 575
f 603 601 628
f 650 661 655
f 653 605 730
f 600 665 629
f 628 575 665
f 629 665 575
f 660 603 628
f 660 659 603
f 629 664 601
f 576 730 605
f 701 668 553
f 668 577 553
f 631 585 669
f 633 614 607
f 558 707 607
f 614 633 631
f 585 631 633
f 614 631 708
f 708 670 672
f 674 631 669
f 675 674 669
f 675 671 670
f 674 675 670
f 674 670 708
f 585 708 672
f 585 671 669
f 670 671 672
f 671 585 672
f 675 669 671
f 674 708 631
f 471 707 709
f 676 706 558
f 644 619 637
f 616 635 636
f 498 560 641
f 676 540 677
f 636 711 616
f 637 640 642
f 595 639 637
f 540 637 643
f 637 639 644
f 679 595 618
f 680 679 618
f 680 644 679
f 644 639 679
f 619 680 618
f 619 644 680
f 618 642 640
f 619 618 640
f 637 619 640
f 639 595 679
f 643 637 642
f 726 595 567
f 643 595 726
f 625 568 710
f 641 560 713
f 727 592 725
f 592 727 626
f 571 731 567
f 604 713 596
f 625 710 690
f 571 567 719
f 683 720 684
f 685 683 684
f 651 728 524
f 699 657 688
f 690 651 524
f 689 687 690
f 721 691 684
f 719 569 703
f 652 653 666
f 651 690 687
f 722 571 649
f 551 570 693
f 657 694 688
f 695 694 663
f 694 657 663
f 698 695 663
f 695 698 688
f 698 663 662
f 694 695 688
f 697 699 728
f 657 602 662
f 602 728 662
f 688 698 699
f 728 699 662
f 699 698 662
f 605 700 732
f 666 653 730
f 730 700 666
f 700 650 666
f 697 657 699
f 664 602 697
f 658 661 650
f 661 654 655
f 602 657 697
f 658 650 656
f 656 700 605
f 666 655 652
f 650 655 666
f 697 696 664
f 551 693 702
f 723 701 696
f 507 702 703
f 704 607 614
f 673 615 705
f 708 705 614
f 705 635 616
f 641 635 708
f 707 706 709
f 676 709 706
f 709 710 590
f 540 643 677
f 677 643 710
f 724 641 713
f 685 714 715
f 681 567 731
f 716 717 718
f 717 682 718
f 717 689 682
f 721 692 712
f 714 692 715
f 714 691 712
f 691 721 712
f 604 721 713
f 710 681 690
f 651 687 716
f 712 692 714
f 720 732 713
f 686 717 716
f 687 686 716
f 732 720 692
f 685 684 715
f 684 691 715
f 691 685 715
f 692 720 715
f 721 732 692
f 681 682 689
f 683 685 715
f 720 683 715
f 686 687 689
f 681 689 690
f 651 716 718
f 686 689 717
f 651 718 682
f 721 684 720
f 651 682 728
f 713 721 720
f 714 685 691
f 682 681 728
f 722 731 571
f 604 732 721
f 571 719 649
f 667 703 569
f 701 722 649
f 667 729 703
f 697 728 696
f 722 701 723
f 730 703 729
f 702 693 703
f 649 668 701
f 704 615 558
f 704 705 615
f 558 607 704
f 704 614 705
f 558 706 707
f 705 708 635
f 635 641 724
f 724 636 635
f 677 710 676
f 710 709 676
f 725 636 724
f 711 636 725
f 710 643 726
f 713 725 724
f 726 567 681
f 726 681 710
f 693 678 719
f 713 732 727
f 719 678 649
f 678 693 570
f 729 667 626
f 703 693 719
f 731 722 723
f 730 732 700
f 713 727 725
f 626 727 729
f 729 727 732
f 728 681 731
f 730 729 732
f 731 723 696
f 728 731 696
f 326 331 359
f 244 362 262
f 360 362 244
f 525 664 576

