o convex_0
v 0.009520 0.030005 -0.031951
v -0.006324 -0.029809 0.024255
v -0.002005 -0.029809 0.024255
v -0.027225 0.025678 0.058126
v -0.029391 -0.024756 -0.055721
v 0.028981 -0.028357 0.053792
v 0.027536 -0.026922 -0.056443
v 0.028981 0.026398 0.055959
v -0.028665 0.029279 -0.056454
v -0.027225 -0.028362 0.056681
v 0.028256 0.027838 -0.055010
v -0.027945 -0.027642 -0.055010
v -0.028665 0.022791 0.054514
v 0.027536 -0.029083 0.055948
v -0.022180 0.027118 0.055959
v 0.028981 -0.006746 -0.046364
v 0.026816 0.029279 -0.056443
v -0.018575 -0.017548 -0.057177
v -0.025785 -0.029809 0.055959
v 0.005200 0.019191 0.058126
v -0.029391 0.001890 0.005508
v 0.026816 0.027118 0.055948
v -0.029391 0.027838 -0.052843
v 0.027536 0.027838 -0.057177
v -0.022180 0.030005 -0.051409
v 0.023210 -0.029809 0.050903
v -0.027945 -0.027642 0.045147
v 0.026096 -0.027642 -0.044197
v -0.004164 -0.019715 0.057404
v 0.028256 0.025678 0.057404
v 0.026816 -0.026202 -0.057177
v -0.027945 0.021351 -0.057177
v 0.023936 0.030005 -0.055010
v 0.028256 -0.026202 -0.055721
v 0.002315 0.029279 -0.003126
v 0.028981 0.025678 -0.008171
v -0.025785 -0.028362 -0.036274
v 0.023936 -0.026202 0.056670
v -0.027945 0.026392 0.056681
v -0.002725 -0.029083 -0.011049
v -0.028665 -0.026202 -0.056454
v 0.010960 0.027838 0.042991
v -0.028665 -0.013228 0.033612
v -0.029391 0.026398 -0.018972
v 0.028981 -0.026202 0.001908
v -0.026505 0.014144 0.058126
v 0.028256 -0.029083 0.035779
v -0.029391 -0.026202 -0.053565
v -0.028665 0.007663 0.051625
v 0.015285 -0.029083 0.003353
v 0.028981 0.007663 -0.046364
v -0.027225 0.027118 0.043713
v -0.004884 0.030005 -0.033373
v -0.015695 -0.029809 0.027856
v -0.027225 -0.029083 0.022077
v -0.009210 -0.028362 -0.035552
v -0.018575 -0.019715 0.057404
v 0.028256 -0.017554 0.056670
v 0.025376 0.027838 0.033612
v 0.027536 0.014864 0.057404
v 0.010240 -0.011787 0.057404
v -0.002725 0.011983 0.058126
v -0.026505 -0.029083 0.004064
v -0.014255 0.030005 -0.055732
f 25 33 64 
f 8 6 16 
f 8 11 17 
f 2 3 19 
f 14 10 19 
f 15 4 22 
f 8 17 22 
f 9 5 23 
f 5 21 23 
f 9 17 24 
f 17 11 24 
f 19 3 26 
f 14 19 26 
f 12 7 28 
f 4 20 30 
f 22 4 30 
f 8 22 30 
f 7 12 31 
f 24 7 31 
f 18 24 31 
f 9 24 32 
f 24 18 32 
f 22 17 33 
f 25 1 33 
f 7 24 34 
f 24 11 34 
f 11 8 36 
f 8 16 36 
f 10 14 38 
f 29 10 38 
f 10 4 39 
f 13 10 39 
f 4 15 39 
f 9 23 39 
f 3 2 40 
f 2 37 40 
f 5 9 41 
f 31 12 41 
f 18 31 41 
f 9 32 41 
f 32 18 41 
f 15 22 42 
f 1 35 42 
f 35 15 42 
f 21 13 44 
f 23 21 44 
f 13 39 44 
f 39 23 44 
f 16 6 45 
f 6 34 45 
f 34 16 45 
f 4 10 46 
f 20 4 46 
f 6 14 47 
f 14 26 47 
f 28 7 47 
f 26 28 47 
f 34 6 47 
f 7 34 47 
f 21 5 48 
f 5 41 48 
f 41 12 48 
f 43 21 48 
f 27 43 48 
f 10 13 49 
f 13 21 49 
f 27 10 49 
f 21 43 49 
f 43 27 49 
f 26 3 50 
f 28 26 50 
f 3 40 50 
f 40 28 50 
f 16 34 51 
f 34 11 51 
f 11 36 51 
f 36 16 51 
f 15 25 52 
f 25 9 52 
f 39 15 52 
f 9 39 52 
f 1 25 53 
f 25 15 53 
f 35 1 53 
f 15 35 53 
f 2 19 54 
f 37 2 54 
f 19 10 55 
f 10 27 55 
f 48 12 55 
f 27 48 55 
f 12 28 56 
f 37 12 56 
f 28 40 56 
f 40 37 56 
f 10 29 57 
f 46 10 57 
f 6 8 58 
f 14 6 58 
f 8 30 58 
f 38 14 58 
f 33 1 59 
f 22 33 59 
f 1 42 59 
f 42 22 59 
f 30 20 60 
f 58 30 60 
f 38 58 60 
f 29 38 61 
f 60 20 61 
f 38 60 61 
f 20 46 62 
f 57 29 62 
f 46 57 62 
f 61 20 62 
f 29 61 62 
f 12 37 63 
f 54 19 63 
f 37 54 63 
f 19 55 63 
f 55 12 63 
f 17 9 64 
f 9 25 64 
f 33 17 64 
