# https://github.com/mikedh/trimesh
v -0.03025959 -0.00069558 -0.00136863
v -0.03025959 -0.03105009 -0.00146144
v -0.02567788 -0.03105009 -0.00169796
v -0.02979410 0.02958768 -0.00137313
v -0.03025959 -0.00068965 -0.00138061
v -0.03025959 -0.03105009 -0.00770963
v -0.02567788 -0.03105009 -0.00872605
v -0.02567429 -0.00068965 -0.00222488
v -0.02567429 0.02958768 -0.00174436
v -0.02979410 0.02958768 -0.00814225
v -0.03025959 -0.00068965 -0.00866992
v -0.03025959 -0.03049797 -0.00795139
v -0.02980263 -0.03045641 -0.00819239
v -0.02922582 -0.03069388 -0.00836080
v -0.02864272 -0.03102040 -0.00849178
v -0.02866966 -0.03105009 -0.00846334
v -0.02638756 -0.03053359 -0.00893038
v -0.02567788 -0.03053359 -0.00892963
v -0.02567429 -0.00068965 -0.00703302
v -0.02574297 -0.03105009 -0.00872605
v -0.02567429 0.02958768 -0.00885928
v -0.02896951 0.02958768 -0.00836230
v -0.02979410 0.02860218 -0.00850675
v -0.02979410 0.02853094 -0.00853145
v -0.02979410 0.02804413 -0.00867740
v -0.02979410 0.02795508 -0.00869611
v -0.02979410 0.02717143 -0.00885479
v -0.02979410 0.02629873 -0.00890643
v -0.03025959 -0.00080244 -0.00866992
v -0.03025959 -0.03014177 -0.00805617
v -0.02945699 -0.03011208 -0.00846409
v -0.02896412 -0.03045641 -0.00855241
v -0.02850941 -0.03105009 -0.00851423
v -0.02861714 -0.03105009 -0.00848055
v -0.02813504 -0.03053359 -0.00880539
v -0.02726153 -0.03053359 -0.00892739
v -0.02726153 -0.02966089 -0.00901496
v -0.02567788 -0.02966089 -0.00901496
v -0.02567429 0.02804413 -0.00899625
v -0.02660841 -0.03105009 -0.00872306
v -0.02567429 0.02908306 -0.00895808
v -0.02618107 0.02958768 -0.00881287
v -0.02817634 0.02958768 -0.00855316
v -0.02900991 0.02804413 -0.00879042
v -0.02900991 0.02717143 -0.00897005
v -0.02900991 0.02629873 -0.00901421
v -0.02900991 -0.00068965 -0.00901496
v -0.02979410 0.02620375 -0.00890643
v -0.02988433 -0.00080244 -0.00884506
v -0.03025959 -0.00168108 -0.00866917
v -0.03025959 -0.02968464 -0.00818042
v -0.02998263 -0.02966089 -0.00832113
v -0.02954542 -0.02966089 -0.00849927
v -0.02900991 -0.02966089 -0.00870958
v -0.02813504 -0.03105009 -0.00860779
v -0.02813504 -0.02966089 -0.00894760
v -0.02726153 -0.03105009 -0.00871632
v -0.02813504 -0.02878225 -0.00899700
v -0.02813504 -0.02790956 -0.00901496
v -0.02567788 -0.02790956 -0.00901496
v -0.02726153 0.02629873 -0.00901421
v -0.02567429 0.02892277 -0.00898352
v -0.02705549 0.02958768 -0.00870584
v -0.02796896 0.02958768 -0.00858235
v -0.02900991 -0.02528552 -0.00901496
v -0.02988433 -0.02528552 -0.00881961
v -0.02988433 -0.00168108 -0.00884431
v -0.03025959 -0.00287436 -0.00866767
v -0.03025959 -0.02934624 -0.00824329
v -0.03015051 -0.02878225 -0.00838999
v -0.02971330 -0.02878225 -0.00856513
v -0.02993685 -0.02787394 -0.00860330
v -0.02900991 -0.02878225 -0.00882485
v -0.02900991 -0.02790956 -0.00890793
v -0.02900991 -0.02703686 -0.00897005
v -0.02900991 -0.02616416 -0.00900673
v -0.02988433 -0.02616416 -0.00879715
v -0.03025959 -0.02528552 -0.00863399
v -0.03025959 -0.00342648 -0.00866692
v -0.03025959 -0.02878225 -0.00833835
v -0.03025959 -0.02814703 -0.00843714
v -0.02988433 -0.02703686 -0.00872680
v -0.03025959 -0.02703686 -0.00854717
v -0.03025959 -0.02616416 -0.00860929
v -0.03025959 -0.02557642 -0.00862651
v -0.03025959 -0.02761865 -0.00849627
f 1 2 3
f 1 3 4
f 1 4 5
f 1 5 11
f 1 11 29
f 1 29 50
f 1 50 68
f 1 68 79
f 1 79 78
f 1 78 85
f 1 85 84
f 1 84 83
f 1 83 86
f 1 86 81
f 1 81 80
f 1 80 69
f 1 69 51
f 1 51 30
f 1 30 12
f 1 12 6
f 1 6 2
f 2 6 16
f 2 16 34
f 2 34 33
f 2 33 55
f 2 55 57
f 2 57 40
f 2 40 20
f 2 20 7
f 2 7 3
f 3 7 19
f 3 19 8
f 3 8 9
f 3 9 4
f 4 9 21
f 4 21 42
f 4 42 63
f 4 63 64
f 4 64 43
f 4 43 22
f 4 22 10
f 4 10 11
f 4 11 5
f 6 12 13
f 6 13 14
f 6 14 15
f 6 15 16
f 7 17 18
f 7 18 19
f 7 20 17
f 8 19 39
f 8 39 62
f 8 62 41
f 8 41 21
f 8 21 9
f 10 22 23
f 10 23 11
f 11 23 24
f 11 24 25
f 11 25 26
f 11 26 27
f 11 27 28
f 11 28 48
f 11 48 29
f 12 30 13
f 13 30 31
f 13 31 14
f 14 31 32
f 14 32 15
f 15 33 34
f 15 34 16
f 15 32 35
f 15 35 33
f 17 36 37
f 17 37 38
f 17 38 18
f 17 20 36
f 18 38 19
f 19 38 39
f 20 40 36
f 21 41 42
f 22 43 23
f 23 43 24
f 24 43 25
f 25 43 44
f 25 44 26
f 26 45 27
f 26 44 45
f 27 45 28
f 28 45 46
f 28 46 47
f 28 47 65
f 28 65 48
f 29 49 67
f 29 67 50
f 29 48 49
f 30 51 31
f 31 51 52
f 31 52 53
f 31 53 54
f 31 54 32
f 32 54 35
f 33 35 55
f 35 54 56
f 35 56 36
f 35 36 55
f 36 40 57
f 36 57 55
f 36 56 37
f 37 56 58
f 37 58 59
f 37 59 65
f 37 65 47
f 37 47 60
f 37 60 38
f 38 60 39
f 39 61 46
f 39 46 62
f 39 60 61
f 41 62 45
f 41 45 42
f 42 45 44
f 42 44 63
f 43 64 44
f 44 64 63
f 45 62 46
f 46 61 47
f 47 61 60
f 48 65 66
f 48 66 67
f 48 67 49
f 50 67 66
f 50 66 68
f 51 69 52
f 52 69 70
f 52 70 53
f 53 70 71
f 53 71 54
f 54 71 72
f 54 72 73
f 54 73 56
f 56 73 74
f 56 74 75
f 56 75 58
f 58 75 76
f 58 76 59
f 59 76 65
f 65 76 66
f 66 76 77
f 66 77 78
f 66 78 79
f 66 79 68
f 69 80 70
f 70 80 81
f 70 81 71
f 71 81 72
f 72 82 73
f 72 81 82
f 73 82 74
f 74 82 77
f 74 77 75
f 75 77 76
f 77 82 83
f 77 83 84
f 77 84 85
f 77 85 78
f 81 86 82
f 82 86 83

