# https://github.com/mikedh/trimesh
v -0.37571046 0.05628123 -0.49415115
v -0.30897960 0.01745665 -0.44953158
v -0.18993963 0.17717442 -0.48773217
v -0.08939046 -0.96244234 0.49359134
v -0.30470851 -0.00537525 -0.56891698
v -0.35236639 0.07264098 -0.31464854
v -0.30446795 -0.98371148 -0.52102417
v -0.31812450 0.11749402 -0.45672131
v -0.19371539 0.45205912 -0.32296771
v -0.27550966 0.02709089 -0.52580762
v -0.29765394 0.06354157 -0.58401299
v -0.31746256 0.20957129 -0.47936338
v -0.33712274 0.15559316 -0.55781776
v -0.30140072 -0.91917205 -0.52652496
v -0.01052681 -0.97160649 -0.69210052
v -0.24147612 0.08115974 -0.53807968
v -0.25422406 0.07903709 -0.48375612
v -0.25107294 0.39548162 -0.52307153
v -0.16361769 -0.29984507 -0.53553116
v -0.14373256 -0.86635488 -0.67252314
v 0.04843646 -0.32068795 -0.11669850
v -0.27937007 0.15712087 -0.58947164
v -0.21664792 -0.96437401 -0.45144692
v -0.18258755 0.41922331 -0.28413492
v -0.15042454 0.23785847 -0.56004089
v -0.16972584 0.48565939 -0.41452631
v -0.13801010 -0.88185966 -0.52548742
v -0.20677336 0.54709011 -0.47121513
v -0.21748181 0.65068150 -0.42575157
v -0.08856785 -0.97053176 -0.69685447
v -0.17284802 -0.89296448 -0.64168251
v -0.16230333 -0.74442220 -0.57414186
v -0.12447665 -0.45356175 -0.58900130
v -0.11646560 -0.48159131 -0.42684674
v -0.18069442 -0.34050223 -0.41453692
v -0.16062096 -0.43880853 -0.40248331
v -0.13122915 -0.34196964 -0.41209736
v -0.04099738 -0.20456606 -0.33988538
v -0.17195383 -0.08851285 -0.48180920
v -0.14018805 0.11844032 -0.37111273
v -0.11888649 0.16641563 -0.35296854
v -0.14557560 0.26686195 -0.35637793
v -0.16486727 0.29299220 -0.47358194
v -0.11784105 0.15045260 -0.38581765
v -0.12650847 0.39730462 -0.45135885
v -0.18848321 0.49185714 -0.27955043
v -0.13703513 0.55521184 -0.23139501
v -0.17788064 0.60289747 -0.51262492
v -0.19367133 0.57468706 -0.29326448
v -0.10438009 0.67283523 -0.24669354
v -0.11944071 -0.78988189 -0.68228519
v -0.18139756 -0.43082434 -0.50073159
v -0.17555298 -0.83949298 -0.59114945
v -0.07155481 -0.65904158 -0.64538497
v -0.17189668 -0.76742035 -0.63759917
v -0.14500460 -0.52618480 -0.57799661
v -0.13475223 -0.50601584 -0.59205800
v -0.10868726 -0.66509289 -0.62449276
v -0.13474958 -0.50213248 -0.59156805
v -0.14346348 -0.73532027 -0.64516491
v -0.14340252 -0.58369857 -0.51484007
v -0.10947305 -0.73822796 -0.68777400
v -0.14016503 -0.49815544 -0.58575755
v -0.13475223 -0.50213587 -0.59156799
v -0.13865224 -0.50211585 -0.58766800
v -0.13865550 -0.50217658 -0.58766788
v -0.13866223 -0.49820584 -0.58766800
v -0.13855731 -0.49788722 -0.58768219
v -0.13475223 -0.50211585 -0.59156799
v -0.10218801 -0.54089594 -0.63002545
v -0.13418223 -0.49820584 -0.59156799
v -0.11999355 -0.47528490 -0.59736001
v -0.18459818 -0.30583110 -0.46936795
v -0.13984993 -0.29241624 -0.34928098
v -0.14347084 -0.20364848 -0.34248707
v -0.12467607 0.07067267 -0.38011152
v -0.15846215 0.34644449 -0.37743846
v -0.06074290 0.27277479 -0.19103085
v -0.06694836 0.19925731 -0.51008815
v -0.15240663 0.31644064 -0.61687732
v 0.00020051 0.36292791 -0.49428880
v -0.10454588 0.47003761 -0.15484628
v -0.09994087 0.44776571 -0.17615758
v -0.14335825 0.42620516 -0.20365453
v -0.15243876 0.51518458 -0.38193145
v -0.14375435 0.49640501 -0.19558005
v -0.07937516 0.63591421 -0.19125681
v -0.08781996 0.54237145 -0.16420902
v -0.04832723 0.58332634 -0.13476461
v -0.10973522 -0.86108196 -0.53041142
v -0.09245654 -0.73393553 -0.50872988
v -0.04623330 -0.74466026 -0.54561800
v -0.07978907 -0.77958995 -0.69128752
v -0.11067097 -0.75374687 -0.49414846
v -0.13655908 -0.59539187 -0.59145856
v -0.07618827 -0.66834664 -0.45857435
v -0.07933353 -0.52011067 -0.45015869
v -0.12066829 -0.37446576 -0.37568310
v -0.09254655 -0.39049956 -0.59047091
v -0.06090086 0.00448843 -0.54834080
v -0.13305368 0.20566480 0.29492882
v -0.11865575 0.25523001 -0.42830780
v -0.09480875 0.32139331 -0.46151412
v -0.05657902 0.18210569 0.43027422
v -0.01650960 0.25377947 0.29672933
v -0.11024641 0.22292215 0.51075667
v -0.10011757 0.23780349 -0.26137647
v -0.11330493 0.30026427 0.47700322
v -0.03709419 0.35958785 0.47228974
v -0.06490242 0.40473151 -0.13284579
v -0.02008353 0.49550769 -0.48773158
v -0.08504789 0.52074993 -0.13066702
v -0.09909388 0.66054243 -0.17571153
v -0.14132294 0.73368919 -0.45775455
v -0.09917424 0.91680229 -0.13604338
v -0.04684276 -0.89944720 0.57202065
v -0.08787223 -0.64664584 -0.63850802
v -0.08787223 -0.64273584 -0.63844800
v -0.00592224 -0.95426339 0.72326756
v -0.08397223 -0.64273584 -0.64034802
v -0.10977501 -0.84386778 -0.73091638
v -0.04497074 -0.86364961 0.65740120
v -0.08107641 -0.97748685 -0.57234126
v -0.10812375 -0.79205799 -0.60146856
v -0.07432878 -0.74244297 -0.52446920
v -0.05892113 -0.81459552 0.63693899
v -0.08788224 -0.64273584 -0.63844800
v -0.09178224 -0.64273584 -0.63599801
v -0.08797223 -0.64664584 -0.63844800
v -0.08787223 -0.65054584 -0.63845801
v -0.02877138 -0.94470322 0.44024450
v 0.07331529 -0.58526295 0.41131347
v -0.00939370 -0.62606525 0.41193581
v -0.05298943 -0.29021999 -0.56218034
v -0.04060804 -0.09324584 -0.31528571
v -0.04428240 0.15313259 0.27955097
v -0.10293901 0.04715312 -0.28255084
v -0.05508145 -0.85343236 -0.71132499
v 0.04999072 -0.95187449 0.68822235
v 0.06608263 0.23856358 -0.50895607
v -0.08850050 0.09147765 -0.32242593
v -0.08057473 0.29944262 0.37008154
v -0.11964494 0.24510504 0.27897313
v -0.05990039 0.35250291 0.53928465
v -0.08532184 0.25414699 0.60513073
v -0.10986744 0.34817088 -0.19267294
v 0.08276389 0.38194552 0.19309805
v -0.05841037 0.13428074 0.23605958
v -0.08750675 0.31519985 0.59659576
v -0.07643224 0.34163418 0.49826199
v -0.07615224 0.34186417 0.49826199
v -0.07615746 0.34163401 0.50607270
v -0.08006224 0.33848417 0.50217199
v -0.08006224 0.33844417 0.50607198
v -0.07622224 0.34163418 0.50217199
v -0.07615224 0.34168416 0.50217199
v -0.10032703 0.39130491 -0.13530979
v -0.07709046 0.34136185 0.49090764
v -0.07616224 0.34163418 0.50607198
v -0.08548000 0.46915436 -0.12219755
v -0.18827246 0.41704008 -0.61405271
v -0.05421643 0.48094594 -0.54609525
v -0.07179089 0.39835939 -0.49454314
v -0.09026374 0.60999852 -0.13044934
v -0.09354778 0.71121609 -0.26366666
v -0.05689039 0.69772726 -0.47524276
v -0.04973483 0.64292824 -0.47666582
v 0.02828421 0.58569634 -0.47864857
v -0.06164415 0.60120595 -0.15988421
v -0.03676350 0.65268880 -0.17782919
v -0.09407511 0.70503408 -0.24007265
v -0.11106712 0.78861374 -0.09175388
v -0.07950141 0.86473340 -0.02361080
v -0.00057234 -0.84604770 0.70105678
v -0.01825208 -0.85567039 -0.56757861
v -0.07541159 -0.56882870 -0.65009576
v -0.05995841 -0.71457064 -0.66445321
v 0.00290472 -0.73867524 -0.57437748
v -0.01617308 -0.65695471 -0.50854474
v 0.04924472 -0.86674976 0.66695184
v -0.01136866 -0.50108868 -0.46494710
v -0.01349203 -0.57189661 0.40618968
v -0.04672844 -0.48871347 0.48620513
v -0.02136347 -0.49958068 0.50565147
v -0.01365022 -0.56451076 0.40445030
v -0.00993224 -0.48257583 0.52170199
v -0.00770150 -0.72699445 0.65399688
v 0.02411884 -0.47680256 -0.55214781
v -0.03779914 -0.55584079 0.44033423
v -0.01365224 -0.48266584 0.51779199
v -0.01066224 -0.56461585 0.40061200
v -0.01154648 -0.49724424 0.38217250
v -0.03011489 -0.42278546 -0.41078374
v -0.04225281 -0.34141746 0.45671436
v -0.00239825 -0.36732918 -0.47598311
v 0.00411414 -0.97427207 -0.62531805
v -0.04492775 0.14709905 0.56016231
v -0.00563264 0.31698129 0.27982962
v -0.05539545 -0.65486133 0.54337579
v 0.03185284 0.33904871 -0.11636032
v -0.00840833 0.51766986 -0.10470542
v -0.11274389 0.68355292 -0.50001055
v -0.02465396 0.61350077 -0.14678001
v -0.05578053 0.70556134 -0.17417921
v 0.00855865 0.64837039 -0.12074071
v -0.09617986 0.75935352 -0.33650669
v -0.06869856 0.77008522 -0.23441267
v -0.01144899 0.97311437 -0.07115933
v -0.01661224 -0.56461585 0.40842202
v 0.00097154 -0.84312987 -0.69229335
v -0.00285661 -0.81879580 -0.66830504
v -0.03065508 -0.80268389 -0.52906162
v -0.01889924 -0.68757200 -0.65736336
v 0.02669159 -0.80006069 -0.54183567
v -0.03843361 -0.45867726 -0.61949289
v 0.26011747 -0.66372299 -0.21969956
v 0.29163003 0.08834542 -0.32708892
v -0.01365224 -0.56851584 0.40556201
v -0.01365224 -0.56461585 0.40452203
v -0.01365224 -0.56461585 0.40451199
v -0.01671224 -0.48648584 0.51389199
v -0.01365919 -0.48256689 0.51780701
v -0.01753838 -0.48257163 0.51386243
v -0.01751224 -0.48257583 0.51389199
v -0.00312625 -0.56055337 0.39084244
v -0.03887312 -0.40177974 -0.56219590
v 0.00408718 -0.28740045 -0.39779994
v -0.00646303 -0.35551953 -0.42912427
v -0.01585369 -0.28027749 0.36800697
v 0.07622918 -0.12161876 -0.38714918
v -0.00867575 -0.01069970 0.49969813
v -0.04973871 0.17674534 0.61763197
v -0.08165155 0.17432041 -0.47220486
v -0.05887197 0.16865726 -0.24467799
v -0.01905596 0.18525495 -0.21332547
v 0.02784177 0.06991049 -0.20225503
v -0.00936657 0.29495227 -0.53958827
v 0.00333252 0.25886890 -0.16167492
v -0.03959270 0.45336509 0.61889362
v 0.02285868 -0.96165103 0.51360703
v -0.00392869 0.51754427 0.72435015
v 0.11342662 0.50003058 -0.04294666
v 0.02036252 0.57496160 -0.11001242
v -0.04482386 0.78676587 -0.31931189
v 0.02880420 0.67350918 -0.44435665
v -0.07214668 0.86161029 -0.22516175
v -0.00122888 0.98903102 -0.14459394
v 0.01342262 -0.87710845 -0.65078861
v 0.01372708 -0.79865152 -0.63312346
v -0.01126172 -0.86775243 0.56721801
v 0.01536236 -0.81401271 -0.62430161
v 0.03920510 -0.61807483 -0.55498850
v 0.05884405 -0.75942647 -0.67288464
v 0.02162562 -0.52971524 0.54922640
v 0.02813534 -0.47590297 -0.51491779
v 0.01546445 -0.62421125 -0.62362444
v -0.01578903 -0.10917850 0.39863560
v 0.16577210 -0.43688712 -0.23350519
v 0.03564971 -0.25543910 -0.42551348
v -0.02069231 -0.44340909 0.50297797
v -0.00550322 -0.43197155 -0.50554061
v 0.03158924 -0.42527628 0.55411607
v -0.00634723 -0.23443352 0.52353591
v 0.14993314 -0.26909739 0.49669418
v 0.02366954 -0.27226219 -0.10676294
v 0.03243591 -0.97223115 0.04966649
v 0.05949299 -0.06065008 0.54770982
v 0.06181865 -0.22283226 -0.49062309
v 0.00210869 -0.05662197 0.45855275
v 0.01161662 0.11162654 0.42504117
v -0.01267886 0.05539795 0.49687016
v 0.00664011 0.03295024 0.54955441
v 0.02969310 -0.90908396 0.60705429
v -0.02452558 -0.00854463 -0.27686298
v -0.02155728 0.00041040 0.60103214
v 0.08535294 0.06052479 -0.18912350
v 0.03576983 0.27089232 0.24478278
v 0.03363049 0.42491880 -0.06248916
v -0.11172780 0.23054789 0.21318431
v 0.02397561 0.37658310 0.59651715
v 0.04246228 0.34144729 0.46185282
v 0.05536832 0.40677118 0.24756488
v 0.01682021 0.36589050 0.47626385
v 0.05679281 0.34640208 0.50996917
v 0.01221290 0.46702844 -0.07231980
v 0.07348429 0.38685340 0.66309577
v 0.01799280 0.61327320 0.56854045
v 0.13637778 0.44521344 0.70066583
v -0.01710472 0.74643368 -0.00927999
v 0.01442829 0.79177481 -0.31405938
v 0.01259908 0.93799740 -0.22085711
v 0.04136251 0.86300540 -0.24106286
v 0.02047193 0.61502117 0.64131814
v 0.25246343 0.22574364 -0.39515349
v 0.35348812 -0.85294116 0.44754958
v 0.10913660 -0.93800360 -0.11969330
v 0.28884149 -0.59685898 0.23904933
v 0.05007103 -0.91324925 0.00629529
v 0.12782624 -0.93631393 -0.21937035
v 0.06267791 -0.61880827 0.58081561
v 0.23408619 -0.52066743 -0.21457659
v 0.04940372 -0.41807848 -0.13038479
v 0.10415321 -0.43048257 0.52066183
v 0.24389118 -0.42460868 -0.11489350
v 0.08402184 -0.23791692 0.55582857
v 0.01956521 -0.20646076 -0.14758728
v 0.09254180 -0.07511186 -0.36400771
v 0.07287105 -0.24873409 -0.26196846
v 0.02898267 -0.03748633 -0.24436575
v 0.02582712 -0.07414544 -0.56089550
v 0.21002510 0.01308002 0.62638140
v 0.09492273 -0.01554641 0.58954269
v 0.00974031 0.23766337 0.38306540
v 0.03016148 0.14994340 -0.19214703
v 0.05882574 0.29080164 -0.54504597
v 0.04232951 0.09661569 0.35810664
v 0.05817926 0.21277587 0.36127096
v 0.07928406 0.41288361 -0.05509328
v 0.11914777 -0.73257583 -0.20094799
v 0.12107552 -0.74292308 -0.20159654
v 0.05113379 0.42824510 0.50594717
v -0.04302774 0.42329133 -0.50176758
v 0.00969353 0.51097280 0.54326057
v 0.06059267 0.54915142 -0.05725932
v 0.11436240 0.47427338 -0.45634627
v 0.00500921 0.86941612 0.01737821
v 0.05133608 0.59663004 -0.46030733
v 0.11648691 0.36501241 -0.09599581
v 0.07052835 0.64578366 -0.36977458
v 0.04004722 0.77928931 -0.34065428
v -0.01556595 0.62161726 -0.10563225
v 0.12464485 -0.92149776 0.07831855
v 0.12377717 0.75894779 -0.26960757
v 0.24023777 -0.51773584 -0.20769799
v 0.08326544 0.92672420 -0.18860216
v 0.25219700 -0.57524061 -0.19664018
v 0.07181811 -0.68051320 0.51218474
v 0.10924113 -0.84483981 -0.08734611
v 0.09945638 -0.73588628 -0.18006133
v 0.19922368 -0.50807846 -0.06931733
v 0.10163130 -0.80636132 -0.02425481
v 0.09098684 -0.44307899 -0.17044830
v 0.12385800 -0.36728850 0.41669971
v 0.01878434 -0.03567671 0.37606636
v 0.04331017 -0.08038720 -0.27801517
v 0.10823102 -0.17379838 -0.05485181
v 0.13025467 -0.10118486 0.31974661
v 0.14668591 0.08806151 0.30337882
v 0.19157398 0.21866019 -0.15021287
v 0.09491245 0.36529124 -0.51849365
v 0.10469928 0.35168168 -0.08025129
v 0.12156305 0.29304379 0.46110097
v 0.12389195 0.26572263 -0.13357177
v 0.12371822 0.23876561 0.39017355
v 0.13278258 0.30639261 -0.39911684
v 0.11172695 0.42119798 0.48931685
v 0.06793832 0.44700772 -0.05929384
v 0.09688854 0.47889799 0.21440607
v 0.10186686 0.57188326 0.72713542
v 0.07400625 0.42138931 0.44025433
v 0.12495980 0.57209057 -0.42827412
v 0.08267262 0.56386995 -0.44930083
v 0.05306928 0.57460189 -0.42713019
v 0.07994871 0.57470655 0.53471142
v 0.17381434 0.55952847 -0.31738004
v 0.06505433 0.61460227 -0.09911468
v 0.11517991 -0.72866994 -0.19705494
v 0.12357499 -0.62022537 -0.23416752
v 0.12117559 -0.80858535 -0.16422358
v 0.11523776 -0.72887588 -0.19703799
v 0.09141543 -0.90510142 -0.13777712
v 0.11913099 -0.73238313 -0.20080328
v 0.12095133 -0.73160237 -0.20501658
v 0.11153777 -0.72867584 -0.19313799
v 0.09564999 -0.72560751 -0.11690255
v 0.10591899 -0.63057852 -0.19297342
v 0.24983881 -0.75519943 -0.20262618
v 0.07135697 -0.45631620 -0.07462802
v 0.13336404 -0.64376140 -0.06607720
v 0.09651493 -0.54520237 0.50666028
v 0.30758852 -0.74714077 0.33090055
v 0.08354324 -0.36896732 -0.03387496
v 0.17127657 -0.31837353 -0.02951244
v 0.14446074 -0.29859298 -0.06120476
v 0.08161773 -0.27788469 0.33811775
v 0.22196922 0.04317878 0.32469445
v 0.13804145 0.12378256 -0.16825868
v 0.15699176 0.12556379 0.61753315
v 0.07896618 0.06533159 -0.56304485
v 0.04354817 0.07763694 0.36967534
v 0.14142612 0.26614434 0.65420610
v 0.09677736 0.16770327 0.35877267
v 0.14262275 0.21775986 0.30653840
v 0.12492948 0.33742732 0.42028937
v 0.14155133 0.36478510 0.26191890
v 0.15108158 0.46399555 0.34087884
v 0.13561524 0.43962029 0.39695531
v 0.15388103 -0.97555357 0.07661150
v 0.24023522 -0.52169794 -0.20875935
v 0.24023777 -0.52170587 -0.20875798
v 0.23633777 -0.52184582 -0.21266799
v 0.11679192 0.41013828 0.27740490
v 0.10438065 0.48566195 0.45688212
v 0.15174340 0.46955985 0.27360815
v 0.09947775 0.56111729 -0.02275513
v 0.11266328 0.62108392 -0.39343899
v 0.10335603 0.61467093 0.57121384
v 0.07136100 0.67222768 -0.09983938
v 0.12501627 0.65998268 -0.05449697
v 0.12673222 0.78097624 -0.28414473
v 0.16219153 0.77214378 -0.22987385
v 0.06403175 0.79867953 -0.32759359
v 0.11926374 0.80002087 -0.25991163
v 0.10070254 0.90774304 -0.08112554
v 0.08473880 0.72605616 -0.13467047
v 0.08401015 0.79838723 -0.03382365
v 0.11556157 0.76626736 -0.19004039
v 0.24417287 -0.52164328 -0.20483989
v 0.13115871 -0.69422120 -0.22632398
v 0.12357786 -0.76033157 -0.08094541
v 0.14127894 -0.77306229 -0.24098060
v 0.11764237 -0.42017487 -0.20965123
v 0.20955840 -0.76962066 -0.10182752
v 0.15597263 -0.64293629 -0.04750193
v 0.24023777 -0.52164584 -0.20873798
v 0.11488055 -0.53711724 -0.07668691
v 0.20014702 -0.12658936 -0.07442982
v 0.20359722 -0.23435335 -0.07115540
v 0.29131478 -0.01974092 0.52948380
v 0.21683517 -0.93991351 -0.25490016
v 0.17602855 0.02550201 -0.46953544
v 0.27455047 0.07686512 -0.40058574
v 0.13738613 0.16881375 0.33499736
v 0.16244408 0.24028593 0.38061166
v 0.20727831 -0.84257805 -0.22256100
v 0.12547639 0.42623204 -0.05576283
v 0.17958298 0.41566327 0.40355995
v 0.26922783 -0.98223579 -0.16523659
v 0.16825314 -0.58301437 -0.25432903
v 0.12253886 0.47907791 0.27509627
v 0.12541595 0.27976984 -0.54608190
v 0.15162092 0.54344159 0.04537686
v 0.14781436 0.49072516 0.51587850
v 0.13521203 0.62812221 -0.32830542
v 0.13147146 0.53040910 -0.03337990
v 0.14595208 0.57265222 0.64908808
v 0.21255589 0.56582743 -0.28899306
v 0.16235323 0.72114646 -0.14389864
v 0.08664964 0.70098007 -0.10790215
v 0.14883287 0.78027177 -0.17352009
v 0.15645054 -0.97144693 -0.15690379
v 0.14878446 -0.76859772 -0.11937442
v 0.20604572 -0.40195096 -0.12780222
v 0.18876714 -0.31163856 -0.22627777
v 0.16196242 -0.66046476 -0.24382812
v 0.12378393 -0.42909166 -0.02861519
v 0.14691913 -0.29871699 0.41077593
v 0.21037704 -0.39784673 -0.14415656
v 0.23633777 -0.52164584 -0.21260799
v 0.26146224 -0.03515351 -0.37719402
v 0.23569956 -0.49665803 -0.20791329
v 0.17613757 -0.24046712 0.31920108
v 0.25515643 -0.42211649 0.24741973
v 0.18682776 -0.11873133 -0.34394160
v 0.14495030 0.06655174 -0.16533414
v 0.21839036 0.10343619 -0.19383368
v 0.22920926 0.25069711 -0.44489473
v 0.19820987 0.36680090 -0.14286952
v 0.18614978 0.29953724 -0.14603263
v 0.18873119 0.31170362 0.18724653
v 0.15219127 0.27676520 -0.08868956
v 0.16027917 0.47391331 -0.41304860
v 0.17642151 0.36069098 0.49096641
v 0.20952053 -0.98017031 -0.03796702
v 0.13090713 0.47912812 -0.42008454
v 0.19706364 0.40635115 0.00321297
v 0.16894883 0.44508508 0.10587105
v 0.16076761 0.42521638 0.54004103
v 0.13535103 0.46608552 0.06128209
v 0.18220699 0.52198452 0.63860130
v 0.06485955 0.63554126 -0.11941002
v 0.18014725 0.46686569 0.14030801
v 0.14979996 0.48258075 0.22046056
v 0.15463622 0.51954550 0.55400014
v 0.16526560 0.50437856 -0.37451670
v 0.14763696 0.65113854 -0.38409451
v 0.14737633 0.68714643 -0.31025675
v 0.16378985 -0.82931006 -0.05436910
v 0.15467229 -0.83707988 -0.19020927
v 0.30123132 -0.45365652 0.42067105
v 0.24414776 -0.52164584 -0.20487799
v 0.24127777 -0.52554584 -0.20875798
v 0.22519241 -0.73258328 -0.05123636
v 0.23596092 -0.49156073 -0.11563789
v 0.24609397 -0.50192642 0.38538867
v 0.22021291 -0.45500287 0.28462845
v 0.21426241 -0.39975867 -0.07476609
v 0.16208467 -0.29385391 -0.26103103
v 0.22030939 -0.31358227 -0.06386051
v 0.26478076 -0.13603415 0.35049742
v 0.24356467 -0.18269353 -0.12885492
v 0.22372581 -0.28051886 0.52397543
v 0.24356139 -0.81823117 -0.07413053
v 0.18302062 -0.80231065 -0.06493223
v 0.22701679 0.05529762 -0.17947465
v 0.19536608 0.15379725 0.35333672
v 0.20786533 0.34151903 0.25011486
v 0.26806420 0.15531883 -0.37911779
v 0.24492688 0.25644186 -0.23857035
v 0.19938806 0.38936028 -0.41141888
v 0.16861124 0.35433650 0.11075123
v 0.18909839 0.35587624 -0.46227169
v 0.14176978 0.37823567 0.16390459
v 0.21358645 0.40334663 0.48684442
v 0.21553354 0.39818817 0.31613147
v 0.16721451 0.38571706 0.50730985
v 0.21663810 0.42960882 -0.13080686
v 0.17201298 0.40074107 0.60972750
v 0.22605734 0.42812106 -0.30846575
v 0.23794596 0.32131013 -0.32072666
v 0.24641643 0.48399317 -0.27986807
v 0.17087452 0.55726945 -0.42130804
v 0.18270202 0.36107948 0.37990451
v 0.20899335 0.41721052 0.01459130
v 0.27273518 0.68062174 -0.06346454
v 0.20227557 0.72346824 -0.22739308
v 0.18722270 0.70201522 -0.08557761
v 0.24355063 -0.79822427 -0.03185116
v 0.20846218 -0.85106134 -0.22894405
v 0.23576185 -0.75777590 -0.23737291
v 0.24594598 -0.83939230 -0.04927712
v 0.24744411 -0.91016418 -0.06982955
v 0.17216454 -0.71682298 -0.22484531
v 0.25928277 -0.71172512 -0.08346110
v 0.26067334 -0.62805021 -0.14500566
v 0.22506346 -0.64366454 -0.09444685
v 0.21831666 -0.53859794 -0.23363398
v 0.27045840 -0.56792098 -0.17536147
v 0.33647212 -0.54565871 0.39117733
v 0.24592347 -0.55332476 0.32008180
v 0.23900104 -0.25062248 -0.22075148
v 0.27491623 -0.11513469 -0.27367646
v 0.27516717 -0.21396059 0.52800405
v 0.27808103 -0.00506920 -0.22968344
v 0.21605752 0.01876776 0.59745002
v 0.21122850 -0.96601248 -0.22973856
v 0.26802284 0.16076647 -0.24394847
v 0.18651544 0.15812279 -0.18544202
v 0.23634729 0.21494012 -0.20414793
v 0.23189430 0.24271132 -0.36469099
v 0.18377496 0.25233069 0.35688359
v 0.21387696 0.28567851 -0.19504519
v 0.25544512 0.39406964 0.04746271
v 0.24292871 0.43202528 -0.24077117
v 0.26190308 0.51367319 0.11274915
v 0.19223559 0.43903175 0.32496077
v 0.21623643 0.47422305 -0.11538095
v 0.30165946 0.39656618 0.12747037
v 0.27727863 0.55055118 -0.22283606
v 0.27835864 0.47733241 0.13031939
v 0.24875039 0.61734021 -0.25627410
v 0.21011038 0.60172254 0.02748705
v 0.27785820 0.41500139 0.50889814
v 0.36627972 -0.89506936 0.37294328
v 0.26856032 -0.92767757 -0.09993842
v 0.27215782 -0.70794022 -0.13765821
v 0.28631791 -0.93650377 -0.15471546
v 0.32516697 -0.86508852 -0.15048283
v 0.26746929 -0.80648470 -0.12422578
v 0.28354353 -0.74735981 -0.15525827
v 0.31623355 -0.64722270 0.41821736
v 0.32622370 -0.30128521 0.44383517
v 0.28177121 -0.28051293 0.28229722
v 0.26806259 -0.05093672 0.52048284
v 0.31058571 -0.06377258 0.45626080
v 0.32219934 0.00791311 0.39349571
v 0.27114519 0.06663050 -0.26456025
v 0.24764724 0.14961034 -0.24651414
v 0.35566175 0.07047177 0.58910143
v 0.26330316 0.25124902 -0.30716896
v 0.31803179 0.32563320 0.64583993
v 0.27797455 0.17571940 -0.31231740
v 0.26485324 0.03160948 0.54907370
v 0.26586497 0.29478040 -0.37144205
v 0.34377229 0.26144168 0.35879406
v 0.26445714 0.24702278 0.39673021
v 0.25922179 0.34596151 -0.24083222
v 0.27675039 0.33063027 0.43675712
v 0.27459198 0.39671195 0.61233437
v 0.27608281 0.42193782 -0.18022037
v 0.27719516 0.46248406 -0.04308502
v 0.27459902 0.51718712 -0.17081413
v 0.27060491 0.58196855 -0.17795683
v 0.26735234 -0.81159341 -0.17210640
v 0.35716656 -0.97081780 0.30138835
v 0.33772391 -0.83832687 0.41788441
v 0.36422774 -0.47867584 0.29514202
v 0.36195531 -0.47049016 0.28135246
v 0.38882682 -0.95694661 0.47295648
v 0.27678347 0.04913328 0.39853895
v 0.33238783 0.11422043 0.62840021
v 0.31227902 0.18188301 0.61346120
v 0.32177120 0.30992153 0.38167784
v 0.30017063 0.54386514 0.00269040
v 0.31696177 0.63164890 -0.13928786
v 0.37801969 -0.82134503 0.45861930
v 0.36523774 -0.48264584 0.29123202
v 0.36523184 -0.48261896 0.29123178
v 0.36523774 -0.48257583 0.28732201
v 0.31934080 -0.58535457 0.21186131
v 0.35555580 -0.38537043 0.37010300
v 0.43939164 0.22711483 0.39331579
v 0.31427595 -0.14403979 0.39205772
v 0.45747116 0.29234180 0.29710540
v 0.32308474 0.10856526 0.49765739
v 0.31479564 0.23914535 0.47871214
v 0.33358189 0.31492400 0.30346256
v 0.36413282 0.36056018 0.32820404
v 0.37974486 -0.93919110 0.21729091
v 0.37018877 -0.83178818 0.39990968
v 0.37891695 -0.87754285 0.45327467
v 0.35564223 -0.68895000 0.26339898
v 0.37903497 -0.49169421 0.32572958
v 0.36623403 -0.48650941 0.29298127
v 0.36523774 -0.48260584 0.28732201
v 0.36523774 -0.48257583 0.28637201
v 0.34139448 -0.42872941 0.27038026
v 0.41442990 -0.68937600 0.40748006
v 0.35944077 0.37099046 0.53601199
v 0.38733763 0.29252097 0.50484824
v 0.42841825 -0.81888855 0.44944298
v 0.46053475 -0.96666682 0.24546227
v 0.43581507 -0.76238555 0.35109693
v 0.38828382 -0.56438315 0.28040302
v 0.43139994 0.20971465 0.32931462
v 0.34432834 0.34493896 0.39490849
v 0.35968503 0.25546858 0.54101330
v 0.39113587 0.35335842 0.46728945
v 0.42671168 -0.89399648 0.32836983
v 0.42356777 -0.84818000 0.43896225
v 0.46596158 -0.96137071 0.43280631
v 0.38207310 -0.87953013 0.33166349
v 0.45251933 -0.86836421 0.42001858
v 0.48071450 0.30467576 0.35338342
f 12 1 8
f 2 1 5
f 8 2 6
f 8 1 2
f 13 11 5
f 1 13 5
f 1 12 13
f 10 2 5
f 2 10 8
f 2 8 6
f 13 22 11
f 8 10 16
f 12 8 17
f 23 14 7
f 10 5 11
f 10 11 16
f 12 18 13
f 13 161 22
f 161 13 18
f 31 7 14
f 16 11 22
f 22 3 16
f 17 3 12
f 3 22 25
f 3 43 12
f 161 18 28
f 23 7 123
f 27 14 23
f 17 16 3
f 22 161 80
f 43 18 12
f 26 18 45
f 28 18 26
f 31 14 53
f 7 31 30
f 123 7 30
f 27 53 14
f 31 53 121
f 35 52 36
f 36 52 35
f 35 19 73
f 35 73 19
f 75 39 73
f 74 75 73
f 75 76 39
f 3 25 43
f 43 45 18
f 24 46 9
f 48 161 28
f 85 26 49
f 26 85 49
f 46 9 49
f 49 85 46
f 85 9 46
f 48 28 29
f 26 85 28
f 46 49 9
f 28 85 49
f 48 114 202
f 206 29 49
f 206 49 165
f 23 123 27
f 31 121 30
f 90 53 27
f 55 32 60
f 55 53 32
f 62 55 60
f 32 94 91
f 64 56 66
f 57 64 59
f 65 66 67
f 56 63 66
f 64 69 59
f 69 64 65
f 71 68 72
f 66 65 64
f 70 57 59
f 70 95 56
f 57 56 64
f 68 65 67
f 56 57 70
f 52 56 95
f 67 63 68
f 67 66 63
f 59 69 71
f 69 68 71
f 69 65 68
f 72 59 71
f 52 63 56
f 63 52 33
f 72 68 33
f 68 63 33
f 52 61 34
f 34 36 98
f 73 19 52
f 73 52 37
f 34 37 52
f 74 35 98
f 37 74 73
f 98 35 74
f 19 73 39
f 41 44 42
f 41 42 44
f 45 43 25
f 42 77 24
f 24 77 42
f 9 77 24
f 46 24 83
f 77 9 45
f 110 84 24
f 84 157 82
f 26 45 85
f 46 83 86
f 84 86 83
f 46 86 47
f 46 47 49
f 49 29 28
f 206 114 29
f 138 30 121
f 93 138 20
f 124 32 94
f 53 90 32
f 93 20 51
f 51 53 55
f 90 94 32
f 51 121 53
f 62 51 55
f 32 124 60
f 125 32 91
f 177 60 124
f 125 94 32
f 61 96 91
f 96 61 91
f 124 61 95
f 60 95 70
f 60 62 95
f 176 60 70
f 70 59 72
f 61 97 34
f 33 52 99
f 99 52 19
f 74 98 38
f 98 74 37
f 19 39 134
f 74 38 75
f 100 134 39
f 39 76 100
f 76 141 40
f 44 40 41
f 41 40 44
f 44 76 40
f 233 76 44
f 40 41 44
f 102 233 44
f 102 79 233
f 102 44 77
f 42 77 44
f 44 41 42
f 143 279 101
f 41 84 107
f 102 77 103
f 41 107 84
f 25 163 45
f 78 24 77
f 84 107 146
f 107 84 146
f 45 103 77
f 163 45 77
f 163 77 103
f 146 157 84
f 103 45 163
f 85 45 9
f 82 86 84
f 162 80 161
f 24 84 83
f 83 84 110
f 82 84 83
f 84 82 83
f 162 161 48
f 47 86 82
f 48 202 162
f 113 88 164
f 87 113 50
f 87 50 113
f 49 50 165
f 165 50 171
f 87 50 49
f 117 118 54
f 51 20 121
f 90 27 175
f 20 138 121
f 120 176 54
f 93 51 62
f 60 93 62
f 60 177 93
f 127 128 176
f 128 127 118
f 58 177 124
f 61 124 92
f 125 91 94
f 58 124 95
f 60 176 62
f 176 128 95
f 129 58 118
f 128 58 95
f 54 118 120
f 117 129 127
f 129 118 127
f 118 117 127
f 58 130 54
f 120 127 176
f 120 118 127
f 92 179 61
f 129 130 58
f 130 117 54
f 130 129 117
f 58 128 118
f 179 97 61
f 62 176 95
f 36 34 181
f 33 215 72
f 215 70 72
f 33 99 215
f 135 76 75
f 116 4 122
f 233 100 76
f 40 141 41
f 279 148 101
f 137 107 234
f 148 136 101
f 79 102 103
f 137 234 107
f 106 108 101
f 233 79 102
f 146 234 107
f 146 107 234
f 197 145 106
f 102 79 103
f 77 42 107
f 233 102 81
f 136 104 101
f 142 143 101
f 108 106 145
f 81 102 103
f 158 150 151
f 163 25 162
f 152 153 154
f 155 153 152
f 156 153 155
f 142 108 109
f 155 150 156
f 151 155 156
f 151 150 155
f 156 159 152
f 159 155 152
f 155 159 156
f 153 108 154
f 154 144 152
f 108 144 154
f 152 144 109
f 158 151 109
f 149 144 145
f 150 158 108
f 80 162 25
f 84 110 146
f 146 78 110
f 146 110 157
f 109 156 152
f 154 159 152
f 154 152 159
f 151 156 109
f 82 157 160
f 110 84 83
f 112 82 160
f 82 112 88
f 88 82 112
f 112 82 88
f 89 112 164
f 164 88 89
f 89 88 112
f 112 89 164
f 169 88 113
f 162 202 167
f 169 113 87
f 48 29 114
f 87 171 113
f 164 87 113
f 164 169 87
f 114 166 202
f 113 171 87
f 204 165 171
f 204 171 87
f 171 204 87
f 165 171 244
f 171 165 244
f 165 207 244
f 207 165 204
f 206 165 244
f 172 246 207
f 172 173 115
f 115 246 172
f 208 115 173
f 138 15 30
f 123 175 27
f 212 90 175
f 126 116 122
f 94 90 212
f 211 138 93
f 92 124 94
f 54 177 58
f 54 176 177
f 96 97 179
f 222 186 260
f 177 176 256
f 97 96 179
f 186 190 254
f 70 215 176
f 192 225 185
f 190 184 254
f 97 181 34
f 36 181 193
f 98 36 193
f 215 99 226
f 193 228 98
f 99 19 226
f 19 134 226
f 98 227 38
f 75 38 135
f 135 274 76
f 389 100 233
f 76 274 141
f 137 274 234
f 274 137 234
f 234 41 141
f 141 274 234
f 107 41 234
f 81 103 77
f 78 107 234
f 235 234 78
f 146 110 24
f 279 147 148
f 198 143 105
f 140 233 81
f 119 122 4
f 153 150 108
f 78 146 24
f 156 150 153
f 108 158 109
f 280 144 149
f 322 163 162
f 160 157 110
f 111 322 162
f 112 160 201
f 160 110 201
f 111 162 167
f 112 201 89
f 47 88 169
f 82 88 47
f 87 169 170
f 167 166 168
f 170 169 203
f 89 169 164
f 89 164 169
f 164 89 331
f 171 50 204
f 50 87 170
f 169 164 203
f 164 331 203
f 202 166 167
f 204 50 170
f 166 114 245
f 207 204 172
f 204 170 172
f 289 173 172
f 246 115 247
f 173 326 208
f 247 291 246
f 247 115 208
f 240 4 131
f 119 4 240
f 126 122 174
f 175 123 196
f 30 196 123
f 240 4 116
f 210 15 138
f 250 116 126
f 210 138 211
f 175 251 214
f 212 175 214
f 94 212 178
f 178 212 214
f 93 177 213
f 211 93 213
f 92 94 178
f 256 176 215
f 214 96 179
f 179 92 178
f 199 187 183
f 213 177 256
f 218 219 220
f 182 218 220
f 191 182 220
f 186 254 260
f 254 183 187
f 218 182 189
f 223 184 221
f 181 97 179
f 223 224 222
f 221 184 190
f 223 222 260
f 219 191 185
f 191 220 185
f 220 219 185
f 260 184 223
f 184 183 254
f 222 224 190
f 224 221 190
f 224 223 221
f 193 181 255
f 184 260 183
f 194 183 260
f 255 261 193
f 261 195 193
f 228 193 195
f 98 228 227
f 228 195 259
f 228 259 227
f 100 310 134
f 309 274 135
f 232 197 272
f 314 234 235
f 314 235 234
f 197 232 145
f 106 104 197
f 235 238 78
f 101 104 106
f 197 104 313
f 78 234 235
f 235 78 238
f 78 314 238
f 313 136 105
f 279 143 198
f 105 143 142
f 136 313 104
f 105 142 109
f 282 279 198
f 101 108 142
f 81 77 163
f 163 237 322
f 144 280 109
f 163 322 315
f 315 322 237
f 200 110 78
f 81 163 322
f 110 328 318
f 203 89 201
f 201 110 285
f 201 285 243
f 287 323 239
f 293 239 241
f 111 167 168
f 287 239 293
f 166 167 168
f 89 203 331
f 166 245 168
f 168 245 166
f 166 245 167
f 170 205 172
f 245 114 330
f 172 205 289
f 206 244 330
f 207 246 290
f 326 173 289
f 4 240 131
f 196 30 15
f 248 196 15
f 240 116 250
f 211 248 210
f 250 273 240
f 15 210 248
f 174 122 180
f 196 248 175
f 253 251 211
f 251 175 248
f 119 180 122
f 251 248 211
f 249 253 211
f 249 178 214
f 96 214 179
f 249 211 178
f 126 174 187
f 199 133 126
f 180 187 174
f 192 185 209
f 219 209 185
f 213 252 178
f 178 211 213
f 256 252 213
f 178 252 179
f 133 189 182
f 225 191 219
f 185 225 219
f 218 189 209
f 219 218 209
f 189 192 209
f 179 252 181
f 182 191 225
f 256 215 188
f 215 226 188
f 133 182 225
f 240 139 119
f 262 260 254
f 188 226 261
f 192 183 229
f 193 261 228
f 193 228 261
f 261 226 134
f 259 195 261
f 228 261 259
f 228 259 261
f 134 310 261
f 257 229 194
f 257 269 344
f 345 309 135
f 231 344 269
f 344 231 390
f 309 236 274
f 314 234 274
f 274 236 314
f 197 271 272
f 390 231 271
f 314 78 235
f 232 391 145
f 136 148 277
f 105 136 277
f 313 105 109
f 234 235 78
f 148 147 277
f 78 238 200
f 105 277 198
f 313 109 283
f 145 144 108
f 283 109 280
f 145 280 149
f 110 318 285
f 237 163 315
f 200 328 110
f 239 323 280
f 139 273 180
f 45 163 77
f 239 280 286
f 110 201 285
f 201 110 285
f 241 239 286
f 285 201 324
f 168 327 111
f 111 327 363
f 324 201 243
f 243 203 201
f 359 293 241
f 331 203 243
f 481 243 203
f 331 243 481
f 203 205 170
f 205 203 331
f 331 408 205
f 289 205 408
f 114 206 330
f 244 207 290
f 244 290 330
f 246 292 290
f 292 246 291
f 139 240 273
f 180 119 139
f 253 249 214
f 251 253 214
f 273 337 180
f 250 126 133
f 250 337 273
f 214 253 252
f 253 214 252
f 126 187 199
f 252 253 256
f 337 250 132
f 256 253 252
f 132 250 133
f 254 187 300
f 192 132 225
f 252 188 255
f 199 183 189
f 133 225 132
f 186 222 190
f 192 189 183
f 256 188 252
f 252 255 181
f 302 265 422
f 265 302 21
f 261 310 268
f 259 268 230
f 259 261 268
f 38 227 230
f 227 259 230
f 306 265 346
f 230 135 38
f 276 306 346
f 269 263 267
f 306 276 309
f 309 345 306
f 309 276 236
f 269 267 231
f 312 271 231
f 231 267 312
f 232 272 388
f 238 314 387
f 313 317 392
f 313 283 281
f 402 282 198
f 283 280 284
f 281 283 284
f 319 320 372
f 284 280 321
f 357 285 318
f 285 278 357
f 475 111 363
f 322 111 475
f 278 285 357
f 201 285 242
f 243 285 324
f 243 201 242
f 364 323 287
f 362 168 327
f 168 167 245
f 243 366 324
f 169 49 47
f 49 169 87
f 481 243 324
f 243 324 366
f 364 287 407
f 327 168 245
f 327 245 363
f 408 449 416
f 416 289 408
f 133 199 189
f 330 412 290
f 330 290 412
f 289 416 326
f 412 330 290
f 292 291 335
f 414 208 326
f 291 247 335
f 266 332 298
f 187 180 300
f 180 337 300
f 380 300 337
f 380 254 300
f 21 302 378
f 378 376 302
f 378 302 265
f 254 303 262
f 378 302 376
f 265 302 378
f 132 192 385
f 306 308 265
f 310 100 389
f 268 310 230
f 345 135 307
f 230 307 135
f 347 344 390
f 344 347 257
f 270 390 271
f 270 392 390
f 312 272 271
f 314 236 276
f 197 270 271
f 197 313 270
f 314 276 387
f 390 317 316
f 314 238 387
f 317 313 354
f 354 313 281
f 266 398 332
f 277 147 402
f 277 402 198
f 352 281 284
f 280 391 286
f 280 145 391
f 200 353 328
f 282 147 279
f 357 278 318
f 280 323 321
f 81 322 475
f 278 357 318
f 403 321 323
f 241 286 288
f 285 357 242
f 440 358 282
f 363 325 362
f 363 362 325
f 364 403 323
f 327 168 362
f 362 327 361
f 361 327 406
f 527 366 324
f 527 324 366
f 408 331 481
f 407 287 293
f 406 245 487
f 406 487 245
f 329 363 245
f 245 487 329
f 330 487 245
f 416 449 415
f 292 333 290
f 413 412 290
f 292 335 417
f 326 416 414
f 208 414 247
f 414 335 247
f 430 296 299
f 266 298 296
f 398 266 474
f 370 367 319
f 367 372 319
f 371 369 338
f 299 369 371
f 367 374 419
f 371 338 369
f 367 370 374
f 372 370 319
f 374 370 339
f 341 338 375
f 320 373 421
f 375 338 341
f 369 376 339
f 367 419 372
f 320 319 373
f 375 339 376
f 419 339 376
f 370 372 339
f 419 374 339
f 375 376 339
f 298 338 296
f 376 533 452
f 375 379 378
f 375 376 378
f 424 375 379
f 376 375 378
f 368 376 342
f 375 378 379
f 229 385 192
f 254 380 303
f 337 132 380
f 302 368 342
f 132 343 380
f 302 422 258
f 343 132 385
f 380 343 303
f 183 194 229
f 194 260 262
f 305 262 303
f 308 422 265
f 384 21 456
f 303 264 305
f 263 257 194
f 263 305 267
f 308 345 307
f 431 230 310
f 431 307 230
f 429 312 267
f 389 431 310
f 275 311 232
f 348 390 316
f 386 390 392
f 390 392 317
f 232 388 545
f 316 317 348
f 317 392 433
f 392 390 433
f 392 317 433
f 551 317 354
f 313 392 270
f 441 315 350
f 107 42 41
f 350 315 441
f 77 107 78
f 354 281 352
f 140 81 355
f 360 356 321
f 394 356 360
f 318 436 357
f 355 81 475
f 436 318 357
f 357 318 436
f 242 357 436
f 440 282 402
f 399 401 400
f 402 397 396
f 402 360 397
f 147 282 358
f 321 356 360
f 356 321 403
f 242 405 324
f 288 359 241
f 475 362 325
f 475 363 361
f 362 475 361
f 362 472 325
f 362 363 327
f 361 472 362
f 362 361 363
f 327 363 406
f 363 329 406
f 324 405 366
f 293 359 407
f 527 481 366
f 481 366 409
f 366 481 527
f 409 366 405
f 481 449 408
f 449 481 448
f 415 449 448
f 487 330 333
f 415 448 417
f 410 412 413
f 333 330 412
f 410 333 412
f 290 333 413
f 292 417 333
f 415 414 416
f 415 417 414
f 335 414 417
f 451 266 296
f 474 266 451
f 430 299 296
f 338 298 488
f 338 341 488
f 488 369 338
f 421 299 371
f 299 421 369
f 488 341 338
f 339 320 421
f 421 371 369
f 420 375 369
f 421 369 339
f 369 421 419
f 488 420 369
f 320 339 372
f 372 419 373
f 533 375 452
f 533 369 375
f 302 258 368
f 319 372 373
f 419 421 373
f 369 419 376
f 452 375 420
f 368 455 376
f 375 424 379
f 368 376 455
f 425 399 334
f 399 461 334
f 533 376 368
f 439 368 258
f 426 456 378
f 378 456 21
f 456 382 383
f 305 263 262
f 257 385 229
f 194 262 263
f 308 498 422
f 456 383 382
f 263 269 257
f 343 385 457
f 303 343 264
f 385 347 462
f 347 385 257
f 343 457 264
f 457 385 462
f 308 307 498
f 488 298 332
f 264 543 305
f 267 305 543
f 498 307 464
f 346 427 465
f 346 465 276
f 421 299 529
f 276 465 387
f 390 348 433
f 348 393 433
f 393 317 551
f 387 353 548
f 238 387 353
f 393 348 317
f 548 353 387
f 140 389 233
f 314 235 234
f 434 354 352
f 436 351 471
f 394 473 352
f 318 328 436
f 394 360 395
f 516 352 284
f 242 436 328
f 284 321 356
f 391 518 286
f 402 147 483
f 440 402 483
f 440 404 402
f 440 402 404
f 404 402 396
f 402 395 360
f 443 397 360
f 443 360 356
f 356 403 443
f 518 288 286
f 147 358 483
f 358 440 483
f 436 242 445
f 242 436 445
f 405 242 445
f 403 364 443
f 443 364 484
f 472 361 522
f 480 518 484
f 406 522 361
f 405 445 409
f 364 407 484
f 407 359 446
f 481 203 243
f 409 445 562
f 486 406 329
f 444 486 487
f 329 487 486
f 448 481 527
f 481 409 527
f 417 448 450
f 417 413 333
f 417 411 413
f 299 430 529
f 421 529 299
f 489 369 533
f 488 504 420
f 537 401 399
f 423 426 452
f 455 368 439
f 423 536 426
f 494 456 426
f 426 536 494
f 258 422 458
f 456 340 383
f 401 301 459
f 378 302 342
f 498 454 422
f 384 456 428
f 384 428 346
f 346 428 427
f 431 464 307
f 462 347 500
f 390 386 347
f 583 312 429
f 272 312 583
f 275 232 545
f 272 583 388
f 140 432 389
f 389 432 431
f 275 545 311
f 387 466 548
f 386 392 506
f 353 387 349
f 387 548 349
f 506 433 551
f 469 353 548
f 355 550 140
f 548 353 349
f 433 393 551
f 391 232 311
f 351 469 471
f 471 469 436
f 353 469 468
f 351 436 469
f 328 353 468
f 513 395 470
f 470 395 513
f 516 394 352
f 394 523 473
f 514 473 523
f 356 516 284
f 436 469 517
f 524 479 511
f 476 511 479
f 477 479 511
f 479 477 511
f 477 511 513
f 475 325 512
f 472 475 512
f 511 477 513
f 482 477 513
f 394 516 356
f 478 516 356
f 325 472 512
f 442 476 479
f 556 404 396
f 513 402 483
f 483 404 440
f 437 396 397
f 397 443 437
f 443 484 437
f 356 516 478
f 519 475 472
f 475 519 485
f 445 476 442
f 555 482 483
f 483 482 513
f 483 404 555
f 483 402 404
f 404 483 440
f 518 480 288
f 359 288 480
f 243 242 324
f 482 442 479
f 479 477 482
f 480 446 359
f 522 406 486
f 445 442 562
f 481 324 366
f 484 407 446
f 480 484 446
f 485 522 486
f 485 486 365
f 486 444 365
f 365 444 447
f 447 444 487
f 487 333 526
f 526 333 417
f 526 411 448
f 526 417 333
f 526 333 411
f 410 411 333
f 448 411 450
f 413 411 410
f 450 411 417
f 489 296 338
f 546 438 451
f 474 332 398
f 529 430 299
f 489 533 377
f 488 332 532
f 400 491 492
f 530 529 455
f 493 504 503
f 504 493 420
f 452 493 423
f 455 529 530
f 452 420 493
f 491 400 425
f 530 336 455
f 455 533 368
f 216 439 537
f 439 216 455
f 536 340 456
f 439 258 537
f 536 456 494
f 342 426 378
f 456 497 494
f 494 453 456
f 537 492 538
f 454 458 422
f 383 497 456
f 428 456 453
f 21 384 265
f 384 346 265
f 574 267 543
f 429 267 574
f 459 301 461
f 347 386 500
f 465 427 505
f 466 465 505
f 387 465 466
f 392 433 506
f 387 238 314
f 506 551 586
f 548 578 469
f 238 353 200
f 469 578 509
f 552 469 509
f 469 552 468
f 468 552 587
f 434 514 551
f 470 511 513
f 434 473 514
f 581 518 391
f 468 469 436
f 513 511 470
f 507 395 513
f 507 523 394
f 510 512 472
f 510 467 512
f 469 468 517
f 328 468 517
f 517 468 436
f 553 513 477
f 523 507 515
f 523 437 514
f 472 512 510
f 557 328 517
f 477 479 553
f 518 514 437
f 518 437 484
f 485 520 475
f 520 485 365
f 482 555 442
f 519 472 522
f 557 242 328
f 476 445 557
f 556 555 404
f 522 485 519
f 409 562 525
f 527 409 525
f 532 332 474
f 474 565 532
f 504 488 531
f 296 489 451
f 377 435 489
f 488 532 531
f 537 301 401
f 435 377 594
f 503 504 531
f 497 499 453
f 400 399 425
f 400 459 399
f 401 459 400
f 530 216 336
f 418 491 425
f 566 533 455
f 492 491 418
f 566 377 533
f 530 455 216
f 423 566 535
f 536 493 534
f 536 423 535
f 536 534 493
f 400 492 399
f 301 537 461
f 376 452 426
f 461 399 459
f 537 399 492
f 340 536 566
f 537 538 216
f 538 492 418
f 376 426 342
f 258 304 461
f 258 458 304
f 461 537 258
f 496 540 495
f 497 453 494
f 340 304 499
f 383 340 499
f 304 458 499
f 383 499 497
f 454 541 458
f 457 463 496
f 428 453 499
f 499 458 428
f 502 543 264
f 541 454 498
f 427 428 501
f 458 501 428
f 541 501 458
f 498 542 541
f 542 464 431
f 460 542 431
f 427 501 544
f 576 500 386
f 548 466 547
f 386 506 600
f 548 547 549
f 547 548 549
f 548 547 578
f 509 550 520
f 467 294 512
f 294 510 512
f 550 509 578
f 509 520 552
f 552 587 509
f 552 520 587
f 550 355 520
f 552 509 587
f 552 468 587
f 584 467 510
f 552 587 468
f 587 590 468
f 553 511 476
f 517 468 590
f 524 511 553
f 553 507 513
f 394 395 507
f 475 520 355
f 591 553 476
f 402 513 395
f 396 437 556
f 563 514 518
f 519 520 365
f 519 365 554
f 521 522 519
f 519 522 521
f 555 556 560
f 521 554 365
f 521 447 561
f 521 365 447
f 487 561 447
f 562 442 555
f 561 487 526
f 526 448 527
f 451 438 474
f 338 369 489
f 474 438 567
f 567 546 435
f 474 567 565
f 438 546 567
f 435 546 489
f 565 532 567
f 565 567 532
f 451 489 546
f 531 528 503
f 532 567 594
f 532 565 531
f 594 567 435
f 565 568 531
f 567 532 503
f 532 594 503
f 594 569 503
f 569 503 528
f 569 528 568
f 493 566 423
f 568 528 531
f 528 534 493
f 377 216 594
f 493 534 528
f 535 377 566
f 503 566 493
f 503 569 566
f 455 336 566
f 493 566 534
f 535 216 377
f 570 216 538
f 566 493 534
f 334 418 425
f 336 216 535
f 566 570 538
f 536 535 566
f 535 566 336
f 304 538 461
f 566 304 340
f 297 540 496
f 304 566 538
f 418 461 538
f 461 418 334
f 495 457 496
f 462 573 463
f 490 502 495
f 495 502 457
f 345 308 306
f 541 542 501
f 498 464 542
f 501 542 544
f 544 542 460
f 460 577 544
f 460 431 432
f 460 432 577
f 544 505 427
f 545 579 311
f 602 579 545
f 550 508 432
f 505 547 466
f 547 505 577
f 550 432 140
f 578 577 508
f 432 508 577
f 602 545 388
f 508 550 578
f 294 582 217
f 547 582 580
f 582 580 217
f 217 580 294
f 294 580 582
f 580 547 549
f 509 549 547
f 509 547 580
f 549 509 580
f 294 467 584
f 294 580 584
f 294 584 580
f 294 584 510
f 588 586 551
f 587 520 580
f 580 520 587
f 519 587 520
f 551 514 588
f 588 514 563
f 519 554 590
f 519 590 587
f 563 518 589
f 590 554 592
f 517 590 592
f 591 476 557
f 515 560 556
f 557 517 592
f 592 554 593
f 557 592 591
f 561 521 559
f 561 559 521
f 521 561 554
f 561 593 554
f 559 593 561
f 525 562 604
f 526 605 561
f 605 526 525
f 526 527 525
f 565 567 568
f 568 594 569
f 567 503 568
f 568 569 594
f 569 568 503
f 594 216 569
f 216 570 569
f 540 381 571
f 457 502 264
f 539 495 540
f 610 297 496
f 540 571 539
f 502 490 572
f 463 573 627
f 573 500 613
f 543 575 574
f 500 575 613
f 575 429 574
f 386 600 576
f 505 544 577
f 217 547 577
f 217 577 578
f 547 217 578
f 547 217 582
f 391 311 601
f 547 582 217
f 506 586 615
f 600 506 615
f 580 582 547
f 558 507 553
f 586 616 615
f 434 352 473
f 581 391 601
f 586 588 616
f 603 437 523
f 603 523 585
f 523 515 617
f 437 603 636
f 556 437 618
f 507 558 515
f 515 618 617
f 618 515 556
f 437 636 618
f 563 636 588
f 581 589 518
f 560 515 558
f 589 629 563
f 553 591 604
f 604 558 553
f 553 479 524
f 604 555 558
f 558 555 560
f 562 555 604
f 592 605 591
f 592 559 605
f 593 559 592
f 559 561 605
f 604 605 525
f 596 295 606
f 621 295 596
f 571 381 596
f 608 607 597
f 496 463 610
f 609 598 608
f 597 608 627
f 610 463 627
f 611 572 490
f 462 463 457
f 613 627 573
f 611 613 572
f 500 573 462
f 543 572 613
f 572 543 502
f 613 575 543
f 500 576 575
f 575 576 429
f 576 600 615
f 576 615 429
f 429 615 583
f 579 601 311
f 615 602 583
f 602 388 583
f 601 579 581
f 637 615 616
f 615 637 602
f 602 581 579
f 602 637 581
f 585 588 603
f 603 588 636
f 585 616 588
f 591 605 604
f 564 620 621
f 642 564 596
f 621 596 564
f 295 621 606
f 596 381 642
f 622 297 610
f 642 381 622
f 622 610 634
f 624 625 607
f 490 495 539
f 624 608 623
f 626 609 625
f 598 609 626
f 597 627 623
f 539 611 490
f 608 597 623
f 634 598 626
f 610 627 634
f 607 608 597
f 609 608 607
f 625 609 607
f 598 634 627
f 634 624 623
f 624 626 625
f 626 624 634
f 608 598 627
f 611 539 623
f 624 607 608
f 627 611 623
f 611 627 613
f 637 585 612
f 637 616 585
f 637 629 581
f 589 581 629
f 585 523 617
f 638 636 563
f 629 638 563
f 619 595 564
f 564 642 619
f 564 621 620
f 571 596 606
f 622 381 297
f 606 631 628
f 571 606 628
f 571 628 539
f 628 634 623
f 623 539 628
f 635 617 614
f 585 617 635
f 630 637 612
f 629 637 630
f 617 618 614
f 636 644 618
f 630 638 629
f 619 642 639
f 621 564 599
f 599 564 595
f 632 595 619
f 632 619 639
f 621 599 640
f 606 621 631
f 631 621 643
f 621 640 643
f 634 633 622
f 540 297 381
f 633 634 628
f 644 636 638
f 585 635 612
f 644 638 630
f 641 595 632
f 599 595 641
f 632 639 643
f 641 632 643
f 599 641 640
f 640 641 643
f 639 642 633
f 639 633 643
f 642 622 633
f 631 643 628
f 643 633 628
f 614 618 644
f 630 612 644
f 644 635 614
f 635 644 612
f 8 16 17
f 22 80 25
f 95 61 52
f 34 98 37
f 188 261 255
f 551 354 434
f 445 242 557
f 569 570 566

