# https://github.com/mikedh/trimesh
v -0.80967736 -0.51422518 -0.83700067
v -0.81022489 -0.98268735 -0.83713681
v -0.81062376 -0.98341686 0.12350319
v -0.71574581 -0.72272640 0.82929385
v -0.81089002 0.56987000 0.43666184
v -0.81089002 -0.63848984 0.45198643
v -0.69524831 -0.98388582 0.04897855
v -0.81072044 -0.98421615 -0.74858320
v -0.57028747 0.47964150 0.41772074
v -0.81066614 -0.98366952 0.78307015
v -0.80965447 0.36094964 -0.83691740
v -0.80991989 0.78591061 -0.40161580
v -0.81049734 -0.98087204 0.78384262
v -0.81089002 0.53628385 0.19280693
v -0.81062335 -0.98350579 -0.33958319
v -0.81089002 0.41163796 0.40094993
v -0.81053847 -0.98328912 -0.02405942
v -0.81089002 0.35447440 0.19235876
v -0.81089002 -0.04911604 -0.43509445
v -0.52838916 -0.89054906 0.82987905
v -0.61331624 0.48014486 -0.06888603
v -0.53807998 0.78575855 0.58902997
v -0.71801680 -0.36795282 0.78482854
v -0.80915821 -0.69648141 -0.83683556
v -0.73025769 -0.19241758 -0.83752000
v -0.52034056 0.22369638 0.82990724
v -0.81089002 -0.33036175 -0.30608621
v -0.45290732 -0.24605763 0.83036000
v -0.66675216 -0.98388702 0.60719448
v -0.59963626 -0.98076850 -0.83749747
v -0.81089002 0.32720956 -0.21811771
v -0.71510327 0.22390956 0.82942027
v -0.71744376 -0.25691611 0.78518128
v -0.60892415 -0.98346484 0.78401232
v -0.64258873 -0.37470415 0.83035564
v -0.46175128 -0.98388642 -0.18647608
v -0.61308056 0.48014656 -0.63958913
v -0.81024796 -0.68974096 0.78270733
v -0.61335737 0.47988379 -0.18869562
v -0.61354876 0.66142809 -0.14326479
v -0.71757364 -0.71684378 0.78524309
v -0.61461252 0.78418857 -0.24779876
v -0.64550251 -0.89085889 0.82899749
v -0.81089002 0.53309649 0.29484469
v -0.81028742 -0.98371178 0.40221033
v -0.80967265 0.11575937 0.78284490
v -0.81089002 -0.35067409 -0.77598298
v -0.71508098 -0.51868892 0.82944238
v -0.81088465 -0.84247184 0.17008041
v -0.61302483 0.48032621 -0.63941944
v -0.54615277 -0.98388642 -0.17978913
v -0.71967256 -0.98240852 -0.83736217
v -0.69891119 0.26188639 0.78492808
v -0.71578062 -0.89271164 0.78518063
v -0.61327589 0.48019397 0.16587852
v -0.44817716 0.47964358 -0.29634947
v -0.81089002 -0.27012360 0.52676219
v -0.72498488 -0.98387629 -0.39064789
v -0.81089002 -0.63262749 -0.58976918
v -0.80980003 -0.20160532 -0.83691895
v -0.81041837 -0.13460109 0.78205204
v -0.52984571 0.20407969 -0.83752000
v -0.53539163 -0.98388642 0.19033432
v -0.73827499 -0.98381478 0.78223383
v -0.81089002 0.45327711 -0.05352641
v -0.81089002 -0.68111199 -0.41042560
v -0.81089002 -0.36071444 -0.72271436
v -0.69789547 0.70470273 0.83738613
v -0.81089002 -0.61753607 0.03953804
v -0.81089002 0.05438890 -0.28385085
v -0.71748912 0.18550524 0.78517252
v -0.54072464 -0.30999708 0.83036000
v -0.71796292 0.22595589 0.78589118
v -0.81019980 0.06185466 -0.83679962
v -0.55297559 0.78497356 0.58846498
v -0.29256660 -0.98388642 0.24081001
v -0.74297088 0.29777205 -0.83750755
v -0.81089002 0.25262105 0.03781032
v -0.80929482 0.78625107 0.78357214
v -0.71477908 -0.05502963 0.83004606
v -0.57329726 -0.56333470 0.83036000
v -0.61339390 0.48014852 0.05546271
v -0.81089002 0.26666158 0.17021465
v -0.81089002 -0.56319869 -0.67893595
v -0.64956534 -0.98348457 -0.83367002
v -0.65086067 -0.98388755 0.48451975
v -0.81089002 -0.72783327 -0.71155155
v -0.80880839 0.78601241 -0.69089174
v -0.57038957 0.78572828 0.78184211
v -0.61282682 0.48000062 0.58626568
v -0.81089002 0.41350019 -0.40783152
v -0.67664653 -0.98042005 0.78424352
v -0.81025094 0.78437734 -0.18450977
v -0.63819122 -0.60113782 -0.83752048
v -0.36642200 -0.16960894 -0.83752000
v -0.81089002 0.52652210 -0.19118798
v -0.69805926 0.26372364 0.83651710
v -0.61534637 0.78484321 -0.42040539
v -0.65762371 0.54779273 -0.83754617
v -0.80967575 0.62537259 0.78252155
v -0.81085950 0.71279711 -0.18111320
v -0.80917126 0.78553391 -0.83652639
v -0.81020468 0.78559643 0.32329029
v -0.81089002 0.68265623 0.08097013
v -0.61407167 0.78075922 0.12728496
v -0.81089002 0.47923607 -0.31274426
v -0.61317611 0.55471128 0.58629346
v -0.69880927 0.70611316 0.78444254
v -0.69920999 0.57471734 0.78470999
v -0.71580923 -0.89082497 0.82947493
v -0.81011051 0.78482771 0.10186487
v -0.61365676 0.66804039 -0.38926244
v -0.81089002 0.40309030 0.59341538
v -0.12588242 0.16072468 -0.83752000
v -0.71467930 -0.84065974 0.82904762
v -0.81050992 0.78546101 -0.57532483
v -0.06489772 0.92911446 -0.26686251
v -0.81088680 -0.19367805 -0.68414366
v -0.47187692 -0.46264851 0.83036000
v -0.81088972 0.21889518 0.62539309
v -0.49463776 0.48051298 -0.63923246
v -0.63110566 -0.98388642 -0.36296737
v -0.81058621 -0.27084017 0.78323460
v -0.81076217 -0.98369014 -0.53206486
v -0.37377700 0.36428869 0.83752942
v -0.06544535 0.98339355 -0.26640868
v -0.81083888 0.68031281 -0.66958082
v -0.61317837 0.48004580 -0.42242864
v -0.80947971 0.63485521 -0.83625019
v -0.81089002 0.59344089 -0.09210960
v -0.67005968 -0.98388213 -0.16390590
v -0.38079995 0.48003975 -0.63930380
v -0.81089002 0.33945554 0.39705959
v -0.58819497 0.47984469 0.11431343
v -0.81089002 -0.76846439 0.62060404
v -0.61663300 0.78695011 0.58818930
v -0.61636424 0.78663033 -0.48792157
v -0.42838156 -0.04324055 -0.83752000
v -0.61356997 0.78126359 0.48436999
v -0.06461364 -0.98283374 -0.83630151
v -0.38971522 -0.98388642 0.05789154
v -0.81089002 -0.67981875 0.08685583
v -0.41066670 -0.98378736 -0.83526886
v -0.54358268 0.44376349 0.83755386
v -0.81114841 0.50988394 -0.56391257
v -0.67853075 0.70407695 0.83704674
v -0.54039967 -0.98305392 -0.83495498
v -0.36504781 -0.25663397 -0.83752000
v -0.50587279 0.47964358 0.29041621
v -0.81088877 -0.85729653 0.47184294
v -0.60933101 0.47965640 -0.00270728
v -0.81089002 0.12923756 0.53655636
v -0.81089002 0.08883402 -0.09592157
v -0.80965328 0.78612447 0.01390930
v -0.61412412 0.78618544 -0.63984305
v -0.81089002 -0.35274130 0.35492998
v -0.36152419 -0.98219520 -0.83693928
v -0.65478623 0.06860507 -0.83753914
v -0.50739354 -0.89132196 0.82967168
v -0.39732498 -0.79121822 -0.83752000
v -0.81089002 0.19736689 -0.16399193
v -0.81089902 -0.41251719 -0.61214221
v -0.81089002 0.17872757 0.24055064
v -0.81024200 0.41748095 -0.83613080
v -0.44120222 0.65917361 -0.83750415
v -0.61548454 0.78471792 0.00730998
v -0.81089002 0.64465773 0.55928731
v -0.81091034 0.67865837 0.66248316
v -0.81089002 0.61175638 0.16730146
v -0.62173891 0.78677624 -0.32429981
v -0.61538744 0.78567773 -0.58244598
v -0.61538678 0.78572655 -0.12313215
v -0.61496001 0.78516358 0.28710499
v -0.61571860 0.78555495 0.14177211
v -0.61665177 0.78639925 0.50530016
v -0.68982661 0.78538203 -0.83642828
v -0.61522865 0.78588206 -0.34415865
v -0.62108999 0.78651357 -0.07030501
v -0.61540693 0.78545433 0.37853158
v -0.61384338 0.78546834 0.58667457
v -0.61431175 0.78631479 0.58780783
v -0.81089002 -0.22532067 -0.42237920
v -0.27150071 0.47964606 -0.51440161
v -0.81089002 -0.75476253 -0.11887558
v -0.81089002 -0.07248001 0.30849212
v -0.45702499 -0.98382789 0.78195125
v -0.81089002 -0.53205222 0.28779089
v -0.36105990 0.01779687 -0.83752000
v -0.56217813 0.47966635 -0.45975429
v -0.61011821 0.47974348 -0.18629363
v -0.16872708 -0.17467907 -0.83752000
v -0.50683248 0.78321362 0.58757997
v -0.81089002 0.05291341 0.26338714
v -0.41848814 0.47964358 -0.00318328
v -0.81089002 0.15956521 -0.53299379
v -0.06683927 0.78658533 -0.72512192
v -0.44862640 0.78536648 -0.64189929
v -0.47725704 -0.98040551 -0.83751714
v -0.30674344 0.63851315 -0.83752000
v -0.19372641 0.78493339 0.58818328
v -0.49454546 -0.98040688 0.78425521
v -0.39228496 0.72468412 -0.64048457
v -0.06586625 0.78725296 -0.72424120
v -0.46366349 0.78573644 -0.83615470
v -0.47541910 -0.51313156 -0.83752000
v -0.81089002 0.12765393 -0.28553998
v -0.36101875 -0.98388642 -0.40295085
v -0.81089002 -0.45271325 0.41418776
v -0.81089002 -0.62554759 0.30088785
v -0.30011672 -0.27476272 0.83036000
v -0.81089002 -0.42579544 -0.20434618
v -0.17130896 0.26153070 0.78503001
v -0.20604886 -0.98388642 -0.05659850
v -0.64843100 -0.98383832 0.78114343
v -0.39446563 -0.98388642 -0.71101636
v -0.81089002 -0.50274241 -0.32217494
v -0.36971223 0.14627662 -0.83752000
v -0.16158415 -0.89003956 0.82983983
v -0.24288730 0.38005528 -0.83752000
v -0.21951038 0.47957474 0.37689447
v -0.81089002 -0.47981951 -0.44803250
v -0.33224598 -0.98388594 0.67827672
v -0.81089002 -0.08850500 0.03514968
v -0.52496958 -0.40537930 -0.83752000
v -0.40423217 0.48030499 0.58663124
v -0.43483531 -0.98279113 0.78401041
v -0.51258421 0.48017639 0.58674860
v -0.25439063 -0.98305392 -0.83495498
v -0.81089002 -0.60340226 -0.17349871
v -0.81089002 -0.43770361 0.07925327
v -0.81089002 -0.04103298 -0.27203339
v -0.33983999 0.47964358 0.58592999
v -0.19574282 -0.17826401 0.83036000
v -0.31054375 0.70389354 0.83656996
v -0.44797903 0.78620631 0.78247952
v -0.34301373 0.48438358 0.58693999
v -0.29247436 0.56690389 -0.83752000
v -0.34189886 -0.98388642 -0.08477436
v -0.35937124 0.48026609 0.58658999
v -0.40815842 0.36994424 -0.83752000
v -0.81089002 -0.13935283 0.34928834
v -0.13241929 0.48060232 -0.63930833
v -0.05264616 0.47942284 -0.46560547
v -0.24288879 0.57273972 -0.83752000
v -0.81089002 -0.09815264 -0.30094069
v -0.81089002 -0.42516777 0.27863717
v -0.31689125 0.47995484 0.58625996
v -0.37279812 0.47985107 0.58614999
v -0.32762873 0.48026609 0.58658999
v -0.33835858 0.78530478 -0.83642340
v -0.34764999 -0.98385060 0.78141767
v -0.29799050 -0.98040724 -0.83751595
v -0.02489875 0.78542358 -0.83620000
v -0.28760558 -0.98010379 0.78430694
v -0.22823107 0.16853869 -0.83752000
v -0.04174187 0.74597359 -0.59571499
v -0.01345062 -0.98388642 -0.36633754
v -0.28279728 0.47964358 -0.38325441
v -0.06599014 0.98313653 -0.63481194
v -0.30565631 0.48049912 0.58685088
v -0.05126334 0.47927645 -0.36308688
v -0.81089002 -0.43738854 -0.04242298
v -0.46720883 0.78512388 0.58772117
v -0.22138704 0.70405149 0.83717322
v -0.06439416 0.74862570 -0.59654546
v -0.43816969 -0.33989689 -0.83752000
v -0.04955878 0.47989056 0.58636355
v -0.26108310 -0.89309156 0.78556305
v -0.05474051 -0.98388642 -0.13490175
v -0.81089002 -0.26572442 0.27680320
v -0.05026663 -0.34811291 0.83036000
v -0.04115666 0.74877387 -0.59188193
v -0.06564431 0.98186398 -0.72323579
v -0.14962327 0.78510046 -0.64224875
v -0.26316065 0.47964358 0.23482452
v -0.81089002 -0.33353859 0.22112750
v -0.81089002 -0.27544704 -0.02404677
v -0.03125000 0.74610358 -0.59375000
v -0.12942965 0.26350227 0.83739591
v -0.21721110 0.47964358 -0.34889749
v -0.18095687 -0.06733929 -0.83752000
v -0.23648138 0.47988531 0.58634263
v -0.28222880 0.00187529 -0.83752000
v -0.24730922 0.47964358 -0.38320413
v -0.22488293 -0.69463784 0.83036000
v -0.06753640 0.74592561 -0.64029694
v -0.22264905 -0.98381883 0.78167468
v -0.02734000 0.74610358 -0.59375000
v -0.02343000 0.74610358 -0.59375000
v -0.02343000 0.74610358 -0.59377998
v -0.10009235 -0.98388642 -0.06554672
v -0.19652875 0.78651357 -0.64453000
v -0.13263969 0.70346272 0.83711386
v -0.81089002 -0.20290196 0.15913793
v -0.19368607 -0.98041129 -0.83751327
v -0.11807550 -0.98388642 -0.68485898
v -0.27504957 0.22311462 0.83023930
v -0.02483280 -0.83879149 0.83036005
v -0.81089002 -0.26502746 0.08399433
v -0.17490390 -0.98041087 0.78425175
v -0.81089002 -0.18025424 -0.14955924
v -0.28951380 0.78495425 -0.83617926
v -0.10172250 -0.97164786 -0.83752000
v -0.07578174 -0.98388642 0.18362574
v -0.01936252 0.26152670 0.78487515
v -0.23035750 0.78575343 -0.64192915
v -0.20293796 0.70652157 0.78524846
v -0.20748679 0.22582275 0.78488648
v -0.12012306 -0.98367095 -0.83457279
v -0.05597950 0.47963744 -0.35749900
v -0.04529915 -0.98358512 -0.83744973
v -0.09211970 0.09517926 0.83040184
v -0.10116348 0.22288379 0.83003592
v -0.02466467 0.30330792 -0.83752000
v -0.24709614 0.78444165 0.78285605
v -0.06681411 0.78605157 -0.64071411
v -0.15068778 -0.98388642 -0.32583854
v -0.07826372 -0.98388642 0.29629552
v -0.08383862 -0.98388642 -0.41343015
v -0.00942923 -0.89349055 0.78442836
v 0.04446312 0.36535689 0.83751267
v -0.09954344 0.24403858 0.78471559
v -0.04882500 0.48438358 -0.64020002
v -0.17049527 0.47964358 -0.12903330
v -0.06578539 0.92881560 -0.59162092
v -0.08772891 -0.98385543 0.78112257
v -0.06426000 0.92969358 -0.47070000
v -0.03400899 -0.98041338 0.78424954
v -0.16913563 0.78575104 0.78244656
v -0.17812674 0.47964358 0.04043096
v -0.11284124 0.26371700 0.83626688
v 0.00846685 -0.98358637 -0.83736920
v -0.05059754 0.38637531 -0.46493363
v -0.05060362 0.38623524 -0.36493292
v -0.01171000 0.74610358 -0.59377998
v -0.01562000 0.74610358 -0.59377998
v 0.06774679 0.74757838 -0.64014983
v -0.00781000 0.74610358 -0.59375000
v -0.00390000 0.74610358 -0.59375000
v -0.00390000 0.74610358 -0.59377998
v -0.00781000 0.74610358 -0.59377998
v -0.01953000 0.74610358 -0.59377998
v -0.01953000 0.74610358 -0.59375000
v -0.01562000 0.74610358 -0.59375000
v -0.02734000 0.74610358 -0.59377998
v 0.00390000 0.74610358 -0.59375000
v 0.00329641 0.48047358 -0.63931000
v -0.08013445 0.71183461 0.58693999
v -0.00976250 0.74584359 -0.59764999
v 0.05504451 0.48233461 -0.83752000
v -0.01171000 0.74610358 -0.59375000
v 0.00000000 0.74610358 -0.59377998
v 0.00000000 0.74610358 -0.59375000
v 0.02888777 0.74692011 -0.59238440
v 0.00906246 0.47964358 -0.32912841
v 0.08953810 0.48004773 -0.63796359
v 0.08601562 -0.98388642 0.31731585
v -0.00829937 0.75001359 -0.59123999
v 0.12156472 0.70383435 0.83708864
v 0.00390000 0.74610358 -0.59377998
v 0.03863357 0.74542272 -0.63496548
v 0.16718726 0.78589290 0.78173310
v 0.06731621 0.93078625 -0.59101534
v 0.06392552 0.92948508 -0.34428856
v 0.06356875 0.98294610 -0.59020585
v 0.05060354 0.38627216 -0.46508214
v 0.00799632 -0.12924786 -0.83752000
v 0.16909739 -0.52021265 0.83036000
v -0.05987733 -0.40606532 -0.83752000
v 0.19885446 -0.98388642 -0.27089638
v 0.00258208 0.78554517 0.58886486
v 0.05043812 0.38639700 -0.36427951
v 0.05197206 0.47912258 -0.36400232
v -0.06661508 0.68961287 -0.83754003
v 0.18067503 -0.26895121 0.83036000
v 0.09051125 0.48047358 -0.63931000
v 0.02021338 -0.72514665 0.83040684
v 0.06668348 0.93348598 -0.26401106
v 0.06590352 0.74726528 -0.59302509
v -0.00251708 -0.65294713 -0.83752000
v 0.06534872 0.95712614 -0.72336423
v 0.06532142 0.98289680 -0.72335100
v 0.06562746 0.98277783 -0.26710516
v -0.04966116 0.08411871 -0.83752000
v 0.80987877 -0.26539531 0.78305048
v 0.23626190 -0.01860463 0.83036000
v 0.15310347 0.47964358 0.08770792
v 0.20051594 0.22644539 0.78440940
v -0.00064440 0.47964650 -0.26029092
v 0.41297060 -0.12290220 0.83036000
v 0.03451508 0.78627741 0.58781856
v 0.06598000 0.88770485 -0.59375000
v 0.06538602 0.78692389 -0.72420537
v 0.06497523 0.98216534 -0.49373773
v 0.04489810 -0.89110023 0.82868183
v 0.05101097 0.47943029 -0.46518269
v 0.81078607 -0.98315912 -0.75432414
v 0.80955249 0.04224546 -0.83588499
v 0.81087524 -0.12390305 0.64294636
v 0.42115685 -0.98388642 0.23227797
v 0.81089002 -0.27852258 -0.33006591
v 0.24053054 -0.14101478 -0.83752000
v 0.71708649 0.22512271 0.78498292
v 0.03700038 -0.98376477 0.78282464
v 0.81089002 -0.27753654 -0.06547624
v 0.16325602 -0.98388642 0.31316328
v 0.18775162 -0.95718092 -0.83752155
v 0.19519499 -0.98361290 0.78411865
v 0.81096947 -0.19945058 -0.69296920
v 0.13085499 0.48047358 -0.63931000
v 0.10389125 0.78341931 -0.83656579
v 0.06736340 0.78526574 -0.64055276
v 0.32140335 -0.98388642 -0.10569107
v 0.22008747 0.78556728 -0.83634895
v 0.81083995 -0.33744001 -0.77334696
v 0.56131941 -0.66011423 0.83036000
v 0.80897427 -0.37449878 -0.83693516
v 0.30447629 -0.98388642 0.66767442
v 0.30102092 -0.98388642 0.29125655
v 0.26407886 0.26344746 0.83613992
v 0.19452949 0.78578603 -0.64233655
v 0.35134611 -0.98408991 -0.71294099
v 0.28619987 0.78581911 -0.83628213
v 0.81080866 -0.38007212 0.71756154
v 0.14909065 -0.98388642 -0.39068645
v 0.81089002 -0.68169606 -0.12674169
v 0.81089002 -0.45478162 0.62762797
v 0.50953901 -0.98388577 0.62402791
v 0.81089002 -0.43435651 -0.28040409
v 0.60151482 -0.35878363 0.83027840
v 0.81089002 -0.60320121 0.01994225
v 0.28002056 0.03161243 0.83036000
v 0.61391532 0.78635532 0.58778018
v 0.27499160 -0.98319870 -0.83724129
v 0.13612948 -0.89309037 0.78521663
v 0.81007016 -0.14912702 0.78280979
v 0.34704214 -0.98361111 -0.83618486
v 0.22961940 0.22305039 0.82977527
v 0.81089002 -0.46377787 0.50176138
v 0.81089002 -0.59943914 -0.18584388
v 0.47963428 -0.53390652 0.83036000
v 0.81089002 -0.63197482 0.53900677
v 0.27724624 0.18890947 -0.83752000
v 0.81089002 -0.19205025 0.41816318
v 0.56461197 -0.16575515 0.83036000
v 0.42675966 0.48004761 0.58592778
v 0.31125587 0.53165698 0.83773762
v 0.42640227 -0.01499258 0.83036000
v 0.73425436 -0.59957075 -0.83752000
v 0.50006372 -0.97209620 -0.83751702
v 0.33366311 -0.98388642 0.36681956
v 0.15205707 0.48004797 0.58652991
v 0.10711065 -0.98388642 0.03212811
v 0.80852330 -0.30082956 0.78359210
v 0.47383395 0.47964039 0.20919856
v 0.80990434 -0.67398322 0.78287178
v 0.81089002 -0.15525515 0.00780999
v 0.36068681 0.78511065 -0.64122766
v 0.81089002 -0.54335672 0.41437992
v 0.81089002 -0.58770514 -0.29153982
v 0.46064317 -0.98388642 0.00890921
v 0.76498044 -0.98317927 -0.83621961
v 0.81089002 -0.34597623 0.35230827
v 0.19617701 0.55227840 -0.83752662
v 0.56564754 -0.26952964 0.83036000
v 0.19727361 -0.98388642 -0.07768107
v 0.81088889 -0.98039258 0.34264451
v 0.80924577 -0.69896257 -0.83643138
v 0.80452561 -0.13853818 -0.83741236
v 0.36204058 -0.98388642 0.05722421
v 0.30404133 -0.03431014 -0.83752000
v 0.81089002 -0.10837966 0.18962654
v 0.81089002 -0.77196586 0.52872759
v 0.81089002 -0.60904181 0.21577749
v 0.40108892 -0.98388642 0.17529431
v 0.81089002 -0.39560333 0.23322619
v 0.24584657 -0.98388642 0.05326385
v 0.16211575 0.70413280 0.83616519
v 0.30592856 0.69293541 -0.64058810
v 0.49294561 -0.98388642 -0.47532335
v 0.41538921 -0.89008629 0.82982254
v 0.45747355 0.54870456 -0.83761621
v 0.38984913 0.47964358 0.49024466
v 0.80972177 -0.54744476 -0.83567351
v 0.22927426 0.78587878 0.58931625
v 0.28185895 -0.15157950 0.83036000
v 0.81089002 -0.02232636 0.36494789
v 0.55286920 -0.84956861 -0.83754706
v 0.81086624 -0.78237349 0.72660649
v 0.46235973 -0.98388642 -0.18819027
v 0.22127748 0.26181108 0.78488612
v 0.81089002 -0.19251058 -0.48068309
v 0.71772379 -0.36460596 0.78497982
v 0.81089002 -0.10130110 -0.04570942
v 0.42187124 -0.89111137 0.82870495
v 0.81065249 -0.03953141 -0.83300501
v 0.81087291 -0.85751826 -0.23530492
v 0.26711419 0.22591305 0.78458059
v 0.37774110 0.07645500 -0.83752000
v 0.39331555 -0.89311582 0.78519028
v 0.30017862 0.47964358 -0.14615317
v 0.66636640 -0.49890637 -0.83750272
v 0.38041013 -0.98388642 -0.52738261
v 0.80858999 0.06251359 -0.83710998
v 0.61720788 0.78651011 0.09986966
v 0.63839042 -0.18248574 -0.83752000
v 0.61443442 0.78518838 -0.60323292
v 0.44391051 -0.03817417 -0.83752000
v 0.19799824 -0.98388642 0.16298282
v 0.39598575 0.48040041 -0.63952398
v 0.40076548 -0.49768496 -0.83752000
v 0.15355450 -0.36390722 -0.83752000
v 0.81089002 0.33710185 0.22034058
v 0.36081931 -0.26970652 0.83036000
v 0.61369956 0.65728813 0.06355307
v 0.37153804 0.78594911 0.58801425
v 0.57353938 -0.98388642 -0.12916601
v 0.18233578 0.70640576 0.78485280
v 0.61426497 0.78321362 0.18261249
v 0.70161349 -0.98388565 -0.05862065
v 0.81097651 0.15673430 0.66487050
v 0.53866822 0.78522331 0.58910745
v 0.10230206 0.47972834 0.58641928
v 0.30907759 0.47965971 -0.53420365
v 0.81089002 -0.69822633 -0.39327449
v 0.45679358 0.78521276 -0.83575916
v 0.34126461 0.78523332 0.78217638
v 0.61448216 0.78382295 0.23682690
v 0.81089002 -0.46575108 -0.40868324
v 0.42193970 0.78523225 -0.64132458
v 0.81053394 -0.68075937 -0.83458352
v 0.81088614 -0.98039883 -0.01601997
v 0.58496457 -0.98389816 -0.75574547
v 0.80871886 -0.98374039 0.60156000
v 0.51391143 -0.98388642 0.23368274
v 0.61706316 0.78650528 -0.41933885
v 0.81018275 -0.57377398 0.78324473
v 0.61341709 0.71896696 0.58604085
v 0.81089002 -0.71185941 0.07366642
v 0.61720508 0.78650856 0.46728265
v 0.57714248 -0.89111137 0.82870495
v 0.81057501 -0.98365718 0.61894846
v 0.81089002 -0.23804867 0.05658304
v 0.81075001 -0.40562204 0.78125000
v 0.46874499 -0.89085889 0.82899749
v 0.81089002 -0.54576761 0.30511484
v 0.71536678 -0.31447965 0.82973433
v 0.58811283 -0.98388642 0.53097665
v 0.54495907 -0.98341841 0.78398055
v 0.71781003 -0.11655816 0.78480780
v 0.44070309 0.78449827 -0.83650291
v 0.69759303 0.44906715 0.83740896
v 0.52729654 0.40508616 -0.83752000
v 0.81089002 0.01147218 0.51219016
v 0.71755052 -0.25970349 0.78503346
v 0.61426497 0.78321362 -0.32665375
v 0.61275232 0.78516483 -0.63980061
v 0.02624127 0.47964358 0.15693174
v 0.61394888 0.78247434 0.32330135
v 0.80953604 -0.88533288 0.78319019
v 0.68078893 -0.98388642 0.53693998
v 0.55173165 0.22378358 0.82955247
v 0.71423382 -0.43353719 0.82966548
v 0.80977124 -0.98351455 0.27089235
v 0.81089002 -0.78904641 -0.83203000
v 0.81089002 -0.56732589 -0.48685354
v 0.59210056 -0.98388642 -0.39645603
v 0.81070113 -0.98358220 0.14024949
v 0.61326504 0.48003557 -0.08759216
v 0.61422563 0.78331763 -0.16326177
v 0.80832142 -0.98372787 0.49544567
v 0.71546811 -0.78948790 0.82907635
v 0.39200813 0.70438570 0.83756864
v 0.80973017 -0.98365414 0.12084381
v 0.81007206 -0.98330116 -0.20051718
v 0.71503305 -0.12386066 0.82926863
v 0.71542585 -0.55363888 0.82962227
v 0.81089002 0.51387513 0.55184102
v 0.81089002 -0.04118482 -0.54040372
v 0.64280665 -0.72686887 0.83036548
v 0.54912788 0.05167386 0.83036000
v 0.61328441 0.48013854 -0.31130329
v 0.80880463 0.30069399 -0.83745408
v 0.58775276 -0.98357147 -0.83740991
v 0.81089002 0.69734669 0.16089904
v 0.61456907 0.78406674 0.05047421
v 0.81089002 -0.60686666 -0.66864872
v 0.81089002 -0.90027988 0.47113368
v 0.81090909 -0.98072684 -0.13103187
v 0.70954168 -0.98389620 0.25790083
v 0.69778329 0.26074743 0.78500080
v 0.80881095 -0.98381668 -0.64969927
v 0.66151595 -0.98389584 -0.48656142
v 0.71559703 0.22383893 0.82943636
v 0.48883390 0.06887501 -0.83752000
v 0.61314505 0.48016867 -0.63967264
v 0.61331260 0.47960323 -0.41028887
v 0.81089002 0.18627506 0.46768451
v 0.61719978 0.78650540 -0.52889413
v 0.80871350 0.78604275 -0.57067150
v 0.81089002 0.04376349 0.42169529
v 0.61720908 0.78651088 0.01919693
v 0.81089002 0.13524890 -0.63221639
v 0.81089002 -0.22291641 0.60745120
v 0.81089002 -0.19641110 0.25919777
v 0.81089002 -0.47023872 0.00237917
v 0.71520472 0.03762517 0.82947338
v 0.69804072 0.26364756 0.83709496
v 0.61722124 0.78652483 0.30498716
v 0.81085265 -0.98045069 0.44227996
v 0.61720991 0.78651136 -0.11411107
v 0.61722720 0.78651327 -0.23472500
v 0.81022668 -0.98181152 -0.83696622
v 0.61439532 0.78357923 0.38848457
v 0.81089002 0.57140982 0.11388375
v 0.61356997 0.68811858 0.40026420
v 0.70093673 0.78651357 -0.64945698
v 0.80719167 0.78591168 0.35224018
v 0.38796988 -0.98388642 -0.29139394
v 0.71588755 -0.89084905 0.82938510
v 0.28931290 -0.25524759 -0.83752000
v 0.52524287 -0.00378843 0.83035880
v 0.81089002 -0.20425126 -0.23877777
v 0.81089002 0.24418733 -0.32622364
v 0.64162707 0.78572124 -0.83653772
v 0.61401594 0.78297740 0.45817450
v 0.81089002 0.36824217 0.51147807
v 0.46258503 0.12657566 -0.83752000
v 0.81024694 0.19225937 -0.83646047
v 0.47604465 -0.98388642 0.35585281
v 0.81068224 -0.98340631 -0.39477029
v 0.81088138 -0.98040521 -0.57671291
v 0.81013936 -0.81842750 -0.83641523
v 0.73445755 0.07477435 -0.83752090
v 0.81089002 0.00869963 -0.21576978
v 0.81089002 0.18871760 -0.11644848
v 0.81089002 0.54697001 -0.15199685
v 0.80998677 0.10033061 -0.83541375
v 0.81089002 0.78126359 -0.74999440
v 0.66749841 -0.98389918 -0.68718523
v 0.81089002 0.30606061 -0.11384240
v 0.69750631 0.59490961 0.83708102
v 0.49282953 -0.88728410 0.83017790
v 0.81019562 -0.98321927 -0.68376178
v 0.81092775 0.70129842 -0.23703420
v 0.80843455 -0.98339450 -0.06844819
v 0.81088114 -0.98040551 -0.45879206
v 0.80913842 -0.61802608 -0.83663064
v 0.71755505 -0.52223665 0.78484660
v 0.81067002 -0.98364705 0.51633060
v 0.61331999 0.58775276 0.58626074
v 0.80875874 0.49244234 -0.83696246
v 0.81007516 -0.98317873 0.78357184
v 0.81037265 -0.98249531 0.78346336
v 0.47413996 -0.20337889 -0.83752000
v 0.81088841 -0.86431146 0.27465868
v 0.81089002 0.42550039 0.59092927
v 0.80898952 -0.98376358 0.41406000
v 0.51225573 -0.65777194 -0.83752000
v 0.22610560 -0.30332708 -0.83752000
v 0.71497023 -0.98388064 -0.24509795
v 0.80943376 0.61207169 -0.83637249
v 0.42178270 0.47964555 0.12196860
v 0.36397788 -0.00865323 0.83036000
v 0.81089002 0.46019855 -0.02021511
v 0.81089002 -0.41400835 -0.57074469
v 0.80957240 -0.13032207 -0.83593953
v 0.81072307 0.41541311 -0.79101348
v 0.81089002 0.58375674 -0.75037783
v 0.80994457 -0.49762368 0.78253073
v 0.80995250 0.20683885 0.78296357
v 0.80475032 -0.87885797 -0.83749902
v 0.81113917 0.63304973 0.64743030
v 0.81089002 0.63673621 0.37359220
v 0.69786906 0.70469999 0.83667839
v 0.61354011 0.59723467 0.17688297
v 0.81024766 0.78488564 0.51945591
v 0.81089002 0.78126359 -0.48241499
v 0.61412978 0.78355062 -0.04279780
v 0.80881178 -0.98360330 -0.52393830
v 0.80998194 0.06778749 0.78251976
v 0.81089002 0.13568661 0.17723872
v 0.80945587 0.78548580 -0.00934777
v 0.80858999 0.44873732 -0.83710998
v 0.73626208 0.78651357 -0.20392179
v 0.81089002 0.00315309 -0.30993211
v 0.81080765 0.59607875 -0.47033325
v 0.61330241 0.48003682 -0.25924581
v 0.81050658 0.78361279 -0.12843990
v 0.09182234 -0.98388642 -0.06500471
v 0.81006086 0.36529559 0.78183407
v 0.80940092 0.49604249 -0.83582562
v 0.65936732 0.78509235 -0.83679968
v 0.53033537 0.47979537 0.58649904
v 0.61335152 0.47996712 0.27238485
v 0.61333930 0.47996464 -0.02133139
v 0.81089002 -0.35118443 -0.15654260
v 0.71681899 -0.89274037 0.78473145
v 0.28885043 -0.12299761 -0.83752000
v 0.45425275 -0.41489118 -0.83752000
v 0.80905002 -0.25005153 -0.83701515
v 0.03463234 0.47964358 -0.01172785
v 0.28425485 -0.41731852 0.83036000
v 0.80926502 -0.07078141 -0.83652002
v 0.46243382 0.47964358 -0.50972426
v 0.13720606 -0.13921845 0.83036000
v 0.81089002 0.12757042 -0.46273059
v 0.81089002 0.04186829 -0.01456326
v 0.23672713 0.47964358 -0.01857270
v 0.46308124 0.47966474 -0.36679143
v 0.81089002 0.19322358 -0.19782862
v 0.61329937 0.48016614 0.58651835
v 0.53962529 0.22607145 0.78471702
v 0.61340088 0.48013303 0.42533100
v 0.80952966 0.39707398 -0.83658546
v 0.51523727 0.27923736 -0.83752000
v 0.81089002 0.46888834 0.40963611
v 0.61332572 0.48019138 0.07742196
v 0.69922036 0.34551668 0.78500408
v 0.80955249 0.41675609 -0.83588499
v 0.75327641 0.38425264 -0.83754486
v 0.61721015 0.78651148 0.16725823
v 0.61356997 0.54603302 -0.54320085
v 0.69845366 0.70607477 0.78441197
v 0.61377198 0.66919386 -0.56828922
v 0.80892748 0.57227480 -0.83681500
v 0.61309159 0.63477796 -0.63838184
v 0.61356050 0.48003367 -0.41016132
v 0.61442834 0.78383553 -0.47148010
v 0.80900794 0.66687852 -0.83655280
v 0.80979764 0.63350111 0.78250366
v 0.80835271 0.52572519 0.78350800
v 0.80932873 0.78562057 -0.44025692
v 0.80962533 0.78442293 0.42168716
v 0.80939931 0.78505874 -0.51975352
v 0.80938166 0.78568298 0.24004474
v 0.81009930 0.78571939 -0.83589149
v 0.81031871 0.78244871 -0.58138782
v 0.74863529 0.78654790 -0.40343904
v 0.80535942 0.78614855 0.47921512
v 0.75137115 0.78623277 0.78166759
v 0.80974001 0.78368855 -0.26970983
v 0.80863166 0.78610933 -0.67321223
v 0.80930126 0.78515106 -0.34386751
v 0.80878872 0.78584743 -0.16723861
v 0.80867493 0.78572375 0.16469330
v 0.80940074 0.78445566 0.71012563
v 0.80663496 0.78631353 0.58983874
v 0.80925137 0.78531456 0.64673692
v 0.80992317 0.78539801 0.78383511
v 0.80846125 0.78713620 -0.31528708
v 0.80979800 0.78505594 0.32692468
f 38 13 41
f 10 13 38
f 46 61 71
f 61 33 71
f 123 38 23
f 158 74 11
f 154 172 93
f 12 101 93
f 3 45 150
f 1 47 60
f 17 3 49
f 41 23 38
f 8 24 2
f 13 54 41
f 10 64 13
f 10 86 29
f 46 71 73
f 3 7 45
f 168 79 103
f 176 102 88
f 79 100 108
f 2 52 8
f 3 17 131
f 15 58 17
f 15 124 58
f 150 49 3
f 10 150 45
f 13 92 54
f 64 92 13
f 41 48 23
f 17 49 15
f 25 60 74
f 23 33 123
f 224 60 25
f 60 67 162
f 67 47 1
f 123 33 61
f 33 32 71
f 60 47 67
f 60 224 1
f 170 93 172
f 33 80 32
f 152 61 46
f 120 46 100
f 100 46 53
f 53 46 73
f 145 129 164
f 98 137 12
f 8 52 85
f 127 88 102
f 79 168 100
f 1 162 67
f 100 53 109
f 32 73 71
f 1 87 59
f 38 135 10
f 110 54 43
f 10 45 86
f 74 158 25
f 33 23 48
f 48 41 4
f 52 2 24
f 43 115 110
f 113 100 168
f 48 80 33
f 87 24 8
f 54 110 115
f 115 4 41
f 124 8 85
f 162 118 60
f 87 1 24
f 64 214 92
f 164 129 99
f 79 108 89
f 127 102 129
f 48 35 80
f 41 54 115
f 66 8 124
f 58 122 17
f 115 43 20
f 17 122 131
f 184 124 15
f 51 3 131
f 15 49 184
f 11 77 158
f 1 84 162
f 10 29 64
f 53 68 109
f 113 120 100
f 52 24 30
f 52 30 85
f 68 53 97
f 164 99 11
f 3 51 7
f 94 24 1
f 61 57 123
f 45 7 63
f 51 36 7
f 1 205 94
f 48 81 35
f 266 224 25
f 135 49 150
f 198 30 24
f 115 20 4
f 54 92 34
f 108 109 68
f 108 68 146
f 18 16 44
f 133 120 16
f 11 74 195
f 45 63 86
f 64 29 214
f 59 84 1
f 1 224 205
f 48 159 81
f 49 142 184
f 150 10 135
f 113 16 120
f 35 72 80
f 124 85 147
f 43 54 20
f 68 97 144
f 152 46 120
f 214 34 92
f 5 44 16
f 163 133 16
f 130 18 101
f 91 206 31
f 78 83 18
f 116 91 106
f 106 31 96
f 39 128 112
f 96 31 78
f 18 44 14
f 18 65 78
f 106 96 116
f 39 21 190
f 151 21 82
f 164 206 91
f 145 91 116
f 164 91 145
f 164 11 195
f 106 91 31
f 18 163 16
f 65 96 78
f 101 18 169
f 130 65 18
f 113 168 5
f 18 14 169
f 82 55 134
f 113 5 16
f 55 105 90
f 99 129 102
f 90 179 107
f 40 21 39
f 21 40 82
f 127 129 145
f 101 116 96
f 130 96 65
f 130 101 96
f 44 5 103
f 88 145 116
f 101 12 116
f 39 112 40
f 111 154 101
f 14 44 103
f 168 167 5
f 179 139 107
f 100 109 108
f 127 145 88
f 176 99 102
f 151 82 134
f 55 82 40
f 104 101 169
f 104 169 111
f 103 169 14
f 18 83 163
f 167 103 5
f 50 155 128
f 137 171 12
f 112 177 40
f 101 154 93
f 111 101 104
f 103 111 169
f 168 103 167
f 155 88 116
f 155 116 12
f 112 128 98
f 155 50 121
f 12 93 98
f 112 98 177
f 98 93 170
f 170 177 98
f 55 40 172
f 178 172 154
f 178 154 111
f 111 166 178
f 78 31 161
f 179 103 79
f 128 155 171
f 98 128 137
f 171 155 12
f 105 55 166
f 166 55 172
f 103 173 174
f 105 173 90
f 111 103 174
f 173 103 179
f 175 179 79
f 136 79 89
f 88 155 176
f 128 171 137
f 40 177 42
f 111 174 166
f 136 175 79
f 180 107 139
f 166 172 178
f 42 172 40
f 42 170 172
f 42 177 170
f 85 30 147
f 105 166 174
f 105 174 173
f 22 181 136
f 179 90 173
f 179 175 139
f 139 136 180
f 139 175 136
f 180 136 181
f 74 60 118
f 124 143 58
f 124 184 66
f 229 66 184
f 53 212 97
f 159 48 4
f 32 80 26
f 62 158 77
f 120 133 163
f 62 77 11
f 62 11 99
f 50 128 121
f 37 121 50
f 37 50 121
f 161 31 206
f 75 107 180
f 21 151 190
f 149 134 55
f 90 9 55
f 163 83 78
f 212 53 73
f 149 55 9
f 118 19 74
f 193 120 163
f 165 99 176
f 121 128 132
f 136 89 22
f 180 181 75
f 54 34 201
f 30 198 147
f 162 182 118
f 28 80 72
f 7 238 63
f 122 51 131
f 206 164 195
f 49 135 6
f 57 61 241
f 59 87 8
f 4 20 159
f 186 34 214
f 95 158 138
f 39 189 128
f 128 189 132
f 90 107 227
f 165 240 99
f 204 155 197
f 155 204 176
f 6 38 123
f 75 181 22
f 192 107 75
f 22 89 263
f 143 147 198
f 147 143 124
f 148 266 25
f 149 194 134
f 81 119 72
f 35 81 72
f 49 209 142
f 238 7 36
f 123 57 208
f 6 209 49
f 80 28 297
f 26 80 297
f 34 186 201
f 25 158 95
f 152 120 193
f 190 56 39
f 74 19 195
f 144 125 68
f 227 107 263
f 155 121 197
f 151 134 194
f 176 204 165
f 121 202 197
f 75 22 192
f 22 263 192
f 148 25 95
f 183 39 56
f 66 59 8
f 157 94 160
f 142 69 184
f 162 84 221
f 72 119 28
f 241 270 57
f 119 81 218
f 81 159 218
f 221 84 59
f 6 135 38
f 19 70 206
f 62 99 217
f 189 39 132
f 19 206 195
f 94 198 24
f 73 32 26
f 97 125 144
f 146 68 125
f 89 108 235
f 122 58 215
f 201 226 54
f 160 94 205
f 122 215 51
f 208 6 123
f 51 215 36
f 69 229 184
f 63 29 86
f 215 58 143
f 268 20 54
f 57 156 208
f 268 54 226
f 201 186 226
f 159 20 268
f 61 185 241
f 90 227 220
f 158 62 217
f 78 161 153
f 193 61 152
f 161 206 153
f 56 190 151
f 28 119 218
f 240 217 99
f 107 192 263
f 121 132 202
f 223 78 153
f 221 59 66
f 229 216 66
f 63 238 141
f 221 27 162
f 63 141 76
f 76 29 63
f 221 66 216
f 198 94 157
f 118 182 19
f 210 297 28
f 57 270 156
f 186 214 222
f 6 208 209
f 215 143 157
f 9 90 275
f 226 186 222
f 138 158 188
f 132 39 183
f 188 158 217
f 193 163 223
f 308 73 26
f 163 78 223
f 263 225 227
f 279 146 125
f 165 204 250
f 200 263 89
f 157 143 198
f 207 296 36
f 230 229 69
f 215 207 36
f 209 230 142
f 218 285 28
f 205 224 266
f 182 162 27
f 208 187 209
f 251 226 222
f 223 153 206
f 194 310 151
f 212 73 308
f 183 56 151
f 220 225 248
f 220 227 225
f 275 90 220
f 307 108 234
f 234 146 279
f 108 146 234
f 235 108 315
f 200 89 235
f 215 296 207
f 262 229 230
f 142 230 69
f 210 28 285
f 214 29 304
f 226 254 268
f 226 251 254
f 19 231 70
f 236 225 263
f 236 248 225
f 232 248 239
f 210 233 297
f 219 240 165
f 248 236 239
f 315 108 307
f 197 202 306
f 250 204 197
f 27 19 182
f 200 235 315
f 252 228 157
f 157 228 215
f 185 61 193
f 301 19 27
f 209 187 230
f 221 216 211
f 311 160 205
f 125 97 279
f 260 236 263
f 132 242 202
f 249 232 239
f 247 232 249
f 260 249 236
f 260 247 249
f 236 249 239
f 138 188 95
f 165 250 199
f 197 302 250
f 309 215 228
f 157 160 252
f 324 310 194
f 229 211 216
f 238 36 213
f 211 229 262
f 9 275 149
f 208 230 187
f 213 76 141
f 266 311 205
f 29 76 304
f 240 255 217
f 303 252 160
f 27 221 211
f 149 324 194
f 245 19 301
f 308 26 297
f 232 247 220
f 220 260 282
f 248 232 220
f 242 132 183
f 260 220 247
f 237 219 165
f 295 228 252
f 238 213 141
f 76 213 304
f 246 230 208
f 208 156 246
f 215 309 296
f 252 303 295
f 36 296 317
f 268 254 320
f 251 287 254
f 97 212 279
f 165 199 244
f 240 219 255
f 275 330 149
f 244 219 237
f 165 244 237
f 244 199 250
f 306 202 242
f 264 234 279
f 307 234 264
f 302 197 306
f 185 294 241
f 156 230 246
f 36 317 213
f 188 191 95
f 263 200 267
f 159 268 218
f 254 300 320
f 233 312 297
f 160 311 303
f 287 300 254
f 193 223 294
f 185 193 294
f 244 250 302
f 156 270 276
f 309 228 295
f 256 278 272
f 156 276 230
f 210 285 233
f 277 262 230
f 369 266 148
f 218 268 320
f 230 276 270
f 380 407 266
f 288 289 358
f 289 288 290
f 324 149 330
f 282 260 263
f 274 292 306
f 282 263 267
f 262 27 211
f 369 148 95
f 304 318 214
f 285 218 298
f 285 271 233
f 407 311 266
f 251 222 287
f 244 374 219
f 330 275 220
f 244 302 374
f 242 286 274
f 306 242 274
f 296 309 140
f 319 317 296
f 301 27 262
f 299 277 230
f 369 95 191
f 380 266 369
f 222 326 287
f 313 308 297
f 297 312 313
f 270 299 230
f 212 331 279
f 219 374 314
f 307 264 293
f 302 306 196
f 196 306 292
f 307 329 315
f 140 309 295
f 140 295 303
f 270 241 299
f 277 301 262
f 269 291 213
f 291 304 213
f 222 214 318
f 294 299 241
f 213 317 319
f 320 300 328
f 300 287 326
f 326 328 300
f 308 313 322
f 330 220 702
f 212 308 322
f 315 329 200
f 286 316 274
f 292 274 203
f 348 267 200
f 269 213 257
f 371 200 329
f 377 271 285
f 223 277 299
f 322 313 388
f 331 212 322
f 294 223 299
f 271 312 233
f 558 702 220
f 220 282 267
f 321 279 331
f 321 264 279
f 286 242 323
f 264 321 293
f 307 293 359
f 253 374 302
f 253 302 196
f 348 200 371
f 196 292 203
f 316 286 265
f 265 286 256
f 274 316 203
f 395 218 320
f 384 255 114
f 242 347 323
f 388 305 322
f 114 255 219
f 298 377 285
f 384 367 255
f 319 257 213
f 298 218 395
f 347 242 243
f 140 303 311
f 242 183 243
f 305 331 322
f 277 223 301
f 255 281 217
f 19 245 231
f 183 258 243
f 301 231 245
f 384 114 219
f 255 367 281
f 384 219 314
f 256 272 265
f 217 283 188
f 191 281 369
f 151 310 261
f 206 231 301
f 301 223 206
f 334 243 261
f 280 261 243
f 280 151 261
f 258 151 284
f 151 258 183
f 330 702 324
f 350 314 374
f 284 151 280
f 280 243 284
f 206 70 231
f 389 261 310
f 291 269 304
f 324 702 310
f 310 702 389
f 243 258 284
f 333 243 334
f 191 188 283
f 191 283 281
f 281 283 217
f 327 259 325
f 265 272 325
f 329 307 362
f 358 325 272
f 327 325 363
f 325 316 265
f 273 203 259
f 126 327 117
f 203 273 382
f 126 259 327
f 382 273 259
f 296 332 319
f 222 318 326
f 296 311 332
f 296 140 311
f 332 311 407
f 402 367 384
f 328 326 404
f 349 335 336
f 512 281 367
f 347 243 356
f 338 339 358
f 340 339 338
f 338 341 340
f 349 342 290
f 343 344 358
f 336 344 343
f 261 372 334
f 355 261 389
f 558 220 267
f 411 374 253
f 335 349 341
f 288 278 345
f 278 288 272
f 289 343 358
f 342 343 289
f 344 351 358
f 335 351 344
f 342 289 290
f 340 341 349
f 290 288 345
f 348 371 267
f 278 256 345
f 335 344 336
f 349 336 342
f 349 345 256
f 339 340 352
f 339 353 358
f 352 353 339
f 286 349 256
f 336 343 342
f 351 338 358
f 338 351 341
f 349 290 345
f 352 340 349
f 272 288 358
f 351 335 341
f 411 253 196
f 371 329 391
f 316 259 203
f 259 316 325
f 382 259 365
f 363 117 327
f 365 259 126
f 369 281 512
f 380 369 450
f 333 334 372
f 257 319 332
f 312 706 313
f 321 331 420
f 305 420 331
f 355 389 373
f 366 333 372
f 269 370 304
f 304 690 453
f 366 243 333
f 396 243 366
f 358 346 354
f 706 312 271
f 360 352 349
f 361 354 346
f 353 352 360
f 346 353 360
f 346 358 353
f 360 361 346
f 349 361 360
f 325 358 354
f 361 349 286
f 393 196 203
f 391 329 362
f 364 378 117
f 117 378 126
f 363 364 117
f 257 425 269
f 450 369 512
f 435 395 320
f 357 326 318
f 357 318 304
f 377 368 271
f 377 298 395
f 304 370 690
f 267 371 391
f 293 321 359
f 356 243 396
f 261 373 372
f 261 355 373
f 383 126 378
f 391 523 267
f 337 286 323
f 350 374 464
f 411 464 374
f 379 354 361
f 411 196 393
f 396 372 373
f 375 271 368
f 332 407 434
f 314 402 384
f 328 404 320
f 388 313 438
f 314 350 443
f 376 347 356
f 375 706 271
f 558 267 387
f 523 391 452
f 323 347 376
f 323 376 337
f 307 359 518
f 379 337 412
f 379 361 337
f 286 337 361
f 203 381 393
f 354 379 392
f 412 381 379
f 412 393 381
f 354 392 363
f 379 381 392
f 325 354 363
f 381 203 382
f 392 381 363
f 363 394 364
f 363 381 382
f 394 365 126
f 394 126 383
f 364 394 383
f 378 364 383
f 363 365 394
f 382 365 363
f 396 366 372
f 269 425 370
f 406 357 304
f 404 326 406
f 404 408 320
f 305 491 420
f 438 313 386
f 337 376 479
f 393 412 414
f 362 307 518
f 485 391 362
f 326 357 406
f 434 422 332
f 320 408 435
f 422 257 332
f 376 356 410
f 396 373 510
f 447 321 420
f 388 491 305
f 410 356 396
f 510 410 396
f 410 510 479
f 359 321 447
f 376 410 479
f 411 414 464
f 389 702 501
f 501 702 387
f 407 380 450
f 422 425 257
f 402 314 471
f 471 314 443
f 337 479 412
f 518 359 478
f 478 359 447
f 393 414 411
f 395 481 377
f 404 406 408
f 435 481 395
f 422 434 437
f 452 391 446
f 391 485 446
f 408 406 451
f 438 386 432
f 464 443 350
f 386 313 486
f 455 523 452
f 414 423 464
f 421 412 479
f 362 518 527
f 414 412 421
f 373 389 524
f 491 438 498
f 388 438 491
f 368 481 643
f 510 373 524
f 368 377 481
f 482 464 423
f 421 479 458
f 485 362 527
f 435 408 500
f 503 370 425
f 435 500 481
f 423 421 458
f 423 414 421
f 434 407 450
f 451 418 408
f 432 664 438
f 447 420 573
f 443 464 482
f 448 438 664
f 483 452 446
f 485 516 446
f 499 443 628
f 455 452 483
f 516 527 522
f 485 527 516
f 503 425 584
f 450 512 488
f 524 389 705
f 500 495 481
f 422 584 425
f 562 438 448
f 447 573 478
f 482 423 551
f 423 458 551
f 458 526 551
f 526 458 530
f 498 438 562
f 573 420 608
f 481 495 545
f 418 428 408
f 481 545 643
f 437 434 450
f 500 408 549
f 716 628 443
f 510 458 479
f 651 446 516
f 443 482 716
f 530 458 510
f 694 483 446
f 498 562 713
f 491 498 713
f 510 524 705
f 522 538 516
f 724 527 518
f 549 408 428
f 545 495 500
f 538 651 516
f 584 437 450
f 511 488 512
f 716 482 553
f 503 584 533
f 584 422 437
f 584 450 488
f 491 608 420
f 651 694 446
f 518 478 724
f 724 478 573
f 526 530 625
f 643 545 541
f 541 545 500
f 510 596 530
f 596 510 705
f 482 551 526
f 530 557 693
f 693 625 530
f 541 580 643
f 549 428 542
f 727 530 596
f 522 527 741
f 741 527 724
f 594 713 562
f 500 620 541
f 716 553 583
f 583 553 721
f 505 586 519
f 553 482 721
f 557 530 727
f 694 651 712
f 433 538 522
f 482 526 625
f 612 556 570
f 540 609 614
f 724 573 675
f 540 614 626
f 609 528 559
f 540 626 433
f 602 679 586
f 433 522 741
f 609 559 614
f 609 722 528
f 602 611 679
f 611 612 570
f 599 507 729
f 602 505 683
f 500 549 698
f 612 536 556
f 505 519 722
f 536 599 729
f 570 679 611
f 536 729 556
f 505 602 586
f 519 528 722
f 533 584 462
f 620 500 698
f 580 541 620
f 608 491 591
f 746 722 609
f 721 482 625
f 557 507 617
f 433 626 538
f 618 609 540
f 505 722 683
f 533 462 640
f 403 713 594
f 573 608 552
f 662 625 693
f 693 557 617
f 507 599 617
f 599 536 617
f 727 507 557
f 745 611 602
f 515 528 519
f 616 626 614
f 616 614 559
f 740 618 540
f 540 433 740
f 580 620 572
f 620 698 572
f 572 698 649
f 542 653 549
f 572 649 577
f 462 584 488
f 580 572 577
f 416 580 577
f 589 532 646
f 577 493 563
f 649 493 577
f 563 493 547
f 430 563 547
f 493 555 547
f 465 430 547
f 445 547 576
f 555 550 547
f 532 574 646
f 550 576 547
f 403 607 576
f 403 576 550
f 607 594 562
f 556 729 725
f 607 403 594
f 608 591 719
f 552 608 719
f 542 428 548
f 573 552 642
f 719 724 552
f 552 724 642
f 675 573 642
f 559 528 515
f 724 675 642
f 586 515 519
f 617 536 600
f 375 368 703
f 693 617 737
f 670 649 537
f 750 741 724
f 549 653 698
f 613 462 488
f 613 397 462
f 592 632 680
f 647 631 680
f 646 575 589
f 656 568 574
f 564 590 568
f 568 590 574
f 672 613 488
f 467 564 656
f 564 467 658
f 564 568 656
f 658 467 610
f 658 610 571
f 650 571 610
f 650 542 534
f 592 462 644
f 644 397 633
f 647 680 632
f 592 680 593
f 644 462 397
f 632 592 644
f 593 680 631
f 661 631 575
f 520 575 646
f 397 613 633
f 462 592 640
f 400 475 574
f 575 631 497
f 632 644 633
f 632 633 647
f 475 520 574
f 631 647 633
f 589 575 497
f 532 589 656
f 593 640 592
f 534 571 650
f 590 658 571
f 590 564 658
f 610 588 650
f 542 650 588
f 532 656 574
f 567 593 631
f 589 497 656
f 574 590 630
f 575 520 661
f 534 542 561
f 560 456 649
f 416 441 643
f 633 613 672
f 488 659 502
f 698 653 654
f 640 593 567
f 567 631 661
f 574 535 400
f 653 542 473
f 588 473 542
f 416 643 580
f 520 646 574
f 661 520 517
f 534 561 571
f 561 590 571
f 561 542 548
f 489 653 473
f 631 633 587
f 548 428 418
f 654 653 489
f 588 610 467
f 590 418 630
f 656 474 467
f 489 560 654
f 561 548 590
f 588 467 473
f 698 654 560
f 489 456 560
f 548 418 590
f 560 649 698
f 467 442 473
f 633 468 565
f 672 488 502
f 449 633 672
f 449 468 633
f 468 449 648
f 587 633 565
f 565 531 587
f 631 587 525
f 497 631 525
f 656 539 474
f 531 565 468
f 451 630 418
f 640 567 533
f 456 489 537
f 484 648 449
f 490 661 517
f 567 480 533
f 525 587 566
f 442 467 459
f 475 461 520
f 656 497 426
f 525 460 497
f 661 490 567
f 473 442 489
f 533 480 503
f 656 426 539
f 517 461 470
f 630 535 574
f 587 531 648
f 440 497 460
f 456 537 649
f 502 449 672
f 587 484 415
f 648 484 587
f 648 531 468
f 577 563 441
f 400 451 475
f 480 567 503
f 490 619 567
f 451 419 475
f 606 431 440
f 460 525 566
f 511 659 488
f 426 497 440
f 517 520 461
f 659 511 502
f 539 431 474
f 619 490 413
f 440 539 426
f 489 442 537
f 440 431 539
f 535 630 400
f 467 474 459
f 566 587 415
f 517 470 413
f 577 441 416
f 459 474 546
f 502 417 484
f 470 475 509
f 649 454 493
f 475 470 461
f 474 476 546
f 400 630 451
f 537 439 427
f 537 427 670
f 619 503 567
f 484 449 502
f 441 563 430
f 484 417 415
f 670 544 649
f 700 502 511
f 431 606 474
f 460 566 529
f 470 509 477
f 413 490 517
f 368 643 703
f 459 537 442
f 430 514 441
f 606 440 697
f 502 700 506
f 509 475 406
f 537 459 439
f 643 441 703
f 649 544 454
f 562 581 607
f 440 460 429
f 666 566 415
f 475 419 406
f 544 670 424
f 419 451 406
f 463 439 459
f 417 502 506
f 476 463 546
f 417 701 415
f 511 512 700
f 503 619 370
f 413 477 466
f 440 429 697
f 413 470 477
f 700 512 660
f 441 514 703
f 546 463 459
f 427 424 670
f 460 529 429
f 607 581 576
f 477 453 466
f 406 304 509
f 666 529 566
f 474 606 476
f 427 439 424
f 471 699 402
f 476 606 543
f 424 454 544
f 463 424 439
f 409 666 415
f 621 700 660
f 413 466 619
f 466 370 619
f 509 304 453
f 477 509 453
f 514 375 703
f 454 424 385
f 424 463 604
f 555 454 385
f 415 701 409
f 424 399 385
f 700 655 506
f 666 492 529
f 429 401 697
f 623 405 697
f 697 405 606
f 466 690 370
f 444 604 463
f 429 529 401
f 424 604 399
f 605 463 472
f 690 466 453
f 666 409 492
f 454 555 493
f 529 492 401
f 667 409 701
f 463 476 472
f 701 417 506
f 660 512 402
f 476 543 472
f 621 660 402
f 700 621 402
f 402 512 367
f 606 405 543
f 390 514 430
f 444 463 605
f 402 655 700
f 547 445 465
f 401 623 697
f 405 623 543
f 486 706 514
f 667 701 469
f 390 430 465
f 385 550 555
f 399 604 444
f 375 514 706
f 385 436 550
f 409 667 496
f 492 409 579
f 508 655 699
f 402 699 655
f 514 390 486
f 399 444 554
f 523 709 387
f 486 313 706
f 457 494 472
f 558 387 702
f 623 635 494
f 445 576 390
f 457 472 543
f 543 623 457
f 472 635 708
f 267 523 387
f 494 635 472
f 457 623 494
f 386 486 390
f 445 390 465
f 472 444 605
f 399 436 385
f 409 398 638
f 704 469 634
f 469 701 506
f 409 496 398
f 409 638 579
f 704 496 667
f 667 469 704
f 387 709 501
f 508 699 471
f 623 401 492
f 501 523 663
f 554 444 487
f 448 390 576
f 390 448 664
f 499 508 443
f 508 506 655
f 623 686 635
f 501 709 523
f 622 448 576
f 562 448 622
f 504 398 704
f 398 496 704
f 634 469 508
f 579 623 492
f 455 663 523
f 504 704 634
f 386 390 432
f 444 472 487
f 432 390 664
f 508 471 443
f 508 469 506
f 638 629 579
f 579 686 623
f 472 708 487
f 622 576 581
f 487 601 554
f 581 562 622
f 681 550 436
f 436 399 521
f 634 638 504
f 635 624 711
f 705 501 663
f 389 501 705
f 628 508 499
f 398 504 638
f 601 598 554
f 708 682 487
f 694 455 483
f 681 403 550
f 681 436 521
f 399 554 521
f 638 634 629
f 634 508 595
f 629 603 579
f 628 716 583
f 595 508 628
f 635 711 708
f 595 583 634
f 686 579 707
f 707 635 686
f 583 595 628
f 708 641 682
f 554 598 521
f 579 603 707
f 705 663 710
f 711 636 708
f 682 513 487
f 487 598 601
f 455 694 695
f 487 513 598
f 671 403 681
f 597 705 710
f 569 688 710
f 629 668 603
f 521 671 681
f 583 629 634
f 707 624 635
f 569 710 663
f 710 688 582
f 591 491 713
f 696 663 718
f 718 663 455
f 708 636 641
f 569 663 696
f 718 455 695
f 629 583 668
f 596 705 597
f 603 668 707
f 597 710 728
f 728 710 582
f 714 695 694
f 591 713 403
f 707 669 624
f 714 694 712
f 403 671 691
f 403 719 591
f 668 583 715
f 669 687 624
f 707 668 669
f 636 711 641
f 641 665 682
f 717 598 513
f 732 724 719
f 671 521 691
f 682 665 513
f 598 717 627
f 598 627 657
f 521 598 691
f 583 721 715
f 668 715 720
f 624 641 711
f 598 657 691
f 691 719 403
f 513 615 717
f 720 721 684
f 715 721 720
f 684 692 720
f 624 687 641
f 641 637 665
f 652 684 721
f 732 719 691
f 732 691 673
f 597 723 596
f 641 687 645
f 641 645 637
f 695 515 718
f 627 717 657
f 692 684 652
f 582 688 679
f 718 515 696
f 665 615 513
f 691 657 578
f 673 691 677
f 691 578 677
f 662 668 726
f 720 692 668
f 692 726 668
f 726 692 652
f 688 569 679
f 515 695 676
f 615 674 717
f 714 712 651
f 657 717 578
f 726 652 721
f 723 727 596
f 597 728 723
f 695 714 676
f 538 714 651
f 721 625 662
f 687 669 639
f 725 723 728
f 679 696 515
f 569 696 679
f 615 665 689
f 578 717 677
f 673 731 732
f 668 662 669
f 725 727 723
f 721 662 726
f 725 582 570
f 669 737 639
f 725 728 582
f 665 637 645
f 689 665 645
f 745 685 611
f 676 714 559
f 717 674 677
f 731 724 732
f 669 662 730
f 730 662 693
f 729 507 725
f 570 582 679
f 674 615 585
f 586 679 515
f 674 585 752
f 626 616 714
f 626 714 538
f 669 730 737
f 507 727 725
f 570 556 725
f 733 687 678
f 738 687 639
f 733 645 687
f 676 559 515
f 736 609 618
f 714 616 559
f 674 734 677
f 724 731 750
f 612 611 685
f 738 678 687
f 612 600 536
f 612 739 600
f 751 739 612
f 685 751 612
f 615 689 683
f 585 615 683
f 734 674 752
f 740 433 741
f 748 740 741
f 693 737 730
f 743 617 600
f 735 600 739
f 689 645 745
f 683 745 602
f 585 736 752
f 746 609 736
f 677 740 748
f 749 748 741
f 585 746 736
f 731 673 747
f 739 751 744
f 743 639 737
f 733 678 735
f 737 617 743
f 600 735 738
f 678 738 735
f 743 738 639
f 600 738 743
f 744 733 739
f 739 733 735
f 645 733 744
f 742 745 645
f 744 742 645
f 746 683 722
f 751 742 744
f 742 751 685
f 742 685 745
f 689 745 683
f 746 585 683
f 618 752 736
f 734 618 740
f 734 752 618
f 677 734 740
f 747 673 749
f 749 673 677
f 677 748 749
f 747 750 731
f 747 749 741
f 747 741 750

