# https://github.com/mikedh/trimesh
v -0.42366061 -0.25521275 -0.67077917
v -0.41789597 -0.07763761 0.69889116
v -0.42096114 -0.20911679 -0.42467341
v -0.39624074 -0.13605443 0.49083537
v -0.39613959 -0.13604891 0.49082491
v -0.40942487 -0.21127190 -0.54638708
v -0.39770457 -0.21342246 0.35726953
v -0.40432614 -0.14062518 0.49580511
v -0.41226521 -0.20623055 0.64093608
v -0.39850664 -0.22684191 0.72968805
v -0.41919598 0.02436371 0.44970322
v -0.38438278 -0.08935991 0.59192824
v -0.41268846 -0.13736311 -0.75045723
v -0.42029971 -0.03134840 -0.47654983
v -0.41493934 -0.19591670 -0.46624550
v -0.40765274 -0.04714808 0.47316453
v -0.40157962 -0.11806241 0.44050157
v -0.40442839 -0.04918838 -0.68839586
v -0.41191655 -0.00862112 -0.57424647
v -0.31678829 -0.27111369 0.56277698
v -0.40398958 0.07078109 -0.33338508
v -0.39128512 0.01362506 -0.28436899
v -0.36491957 -0.09308891 0.46350491
v -0.36490959 -0.09308891 0.46347490
v -0.36491087 -0.09299768 0.46347007
v -0.42653963 -0.02480704 -0.43664038
v -0.40398958 0.05534109 -0.31795508
v -0.40394959 0.05925109 -0.32166508
v -0.40418959 0.06316109 -0.32557508
v -0.40788957 0.05534109 -0.31832510
v -0.40394959 0.06706109 -0.32948509
v -0.40407959 0.05925109 -0.32166508
v -0.40398958 0.05925163 -0.32164568
v -0.40398958 0.06316109 -0.32548508
v -0.40398958 0.06324109 -0.32557508
v -0.40385959 0.06316109 -0.32557508
v -0.29425639 -0.01682010 0.66283041
v -0.41781461 0.08306034 -0.55291367
v -0.40401959 0.06706109 -0.32948509
v -0.32194957 0.15691109 0.00254492
v -0.34929958 -0.26104891 0.60021496
v -0.34533077 -0.26105654 0.60030895
v -0.35249957 -0.26104891 0.60019493
v -0.40182143 -0.22726405 -0.70818013
v -0.40120873 -0.12963271 -0.60222518
v -0.34929958 -0.26105890 0.60019493
v -0.34538957 -0.26106888 0.60019493
v -0.34520286 -0.26118833 0.59989232
v -0.35319957 -0.18683891 -0.73970509
v -0.35157192 -0.18689620 -0.73966599
v -0.39315706 -0.16401669 -0.18806538
v -0.30241957 0.18816109 0.00798492
v -0.31054729 -0.20411983 -0.72900945
v -0.38203147 -0.12363395 0.50439596
v -0.39453316 -0.16005577 0.57364881
v -0.40688011 -0.23007855 0.48531237
v -0.39317670 -0.10973357 -0.51698548
v -0.37539914 -0.06728334 -0.55350703
v -0.41626847 -0.05307404 -0.16364142
v -0.39622959 -0.12823892 0.49082491
v -0.39622959 -0.13214891 0.49082491
v -0.39614958 -0.13214891 0.49082491
v -0.40027869 -0.12613000 0.48716626
v -0.36882958 -0.09698891 0.45989490
v -0.36815959 -0.09308891 0.46738493
v -0.40390342 -0.11477164 0.65868109
v -0.35710958 -0.18691891 -0.73963505
v -0.39923874 -0.15809795 -0.81381518
v -0.29292443 -0.24963996 -0.51827693
v -0.41059661 -0.04268678 -0.74877083
v -0.38446045 -0.08464611 -0.66218227
v -0.34067661 -0.04359579 -0.54365140
v -0.36779958 -0.09698891 0.46738493
v -0.36491957 -0.09716891 0.46347490
v -0.36491957 -0.09698891 0.46347490
v -0.36491957 -0.09698891 0.46348491
v -0.38057062 -0.05934605 0.49959996
v -0.40308312 -0.02121510 0.58774209
v -0.36101958 -0.18690892 -0.73963505
v -0.41560218 -0.04660849 0.71962601
v -0.40768009 0.05556913 0.63829118
v -0.40133086 -0.24926984 0.63270140
v -0.34900740 -0.17635605 -0.68273056
v -0.40398958 0.06708094 -0.32948503
v -0.40695623 0.07069379 -0.34242094
v -0.30913311 0.17861885 0.02758157
v -0.35287929 -0.25922281 0.60598099
v -0.36491957 -0.18689892 -0.73963505
v -0.36101958 -0.18683891 -0.73968506
v -0.35293153 -0.18345954 -0.74177831
v -0.35710958 -0.18683891 -0.73969507
v -0.34636244 -0.17995718 0.47852793
v -0.26744252 -0.20248564 0.58432531
v -0.28609148 -0.24006693 -0.69204777
v -0.40624961 -0.18913454 -0.68435150
v -0.34609526 -0.08611870 0.46607101
v -0.34947038 -0.18212265 -0.53494269
v -0.36491957 -0.01495891 0.77445495
v -0.36491713 -0.01888148 0.77597368
v -0.36490959 -0.01886891 0.77597493
v -0.36104959 -0.01886891 0.77988493
v -0.36101958 -0.01876891 0.77988493
v -0.41299042 0.01624178 -0.62113893
v -0.42183918 0.02155572 -0.73706686
v -0.36098984 -0.01893338 0.77996469
v -0.40194151 0.05436827 -0.02628601
v -0.35710958 -0.01495891 0.78219491
v -0.35000280 0.00610937 0.77897894
v -0.41183090 0.02086161 0.50513184
v -0.27301380 -0.20410305 0.55369896
v -0.26335958 -0.20245890 0.58467495
v -0.25944957 -0.20246892 0.58457494
v -0.29976460 -0.18494862 0.68042046
v -0.20891172 -0.21728534 -0.72766572
v -0.20964581 -0.21719874 -0.74865288
v -0.27700227 -0.15076832 -0.91332889
v -0.33719403 -0.05104902 0.82287049
v -0.32726735 0.03254658 -0.88500786
v -0.29417843 -0.06290469 0.63982147
v -0.29666820 -0.22133951 0.45786506
v -0.34973940 0.10461446 0.02582112
v -0.32205561 0.15687326 0.02070502
v -0.32194957 0.15683109 -0.00526508
v -0.24773958 -0.20246892 0.58457494
v -0.25163957 -0.20245890 0.58467495
v -0.25163957 -0.20246892 0.58457494
v -0.33093405 0.14690909 -0.45310390
v -0.32192957 0.15691109 -0.00135508
v -0.30471659 0.18464276 0.00919849
v -0.30242959 0.18816109 0.00644492
v -0.32194957 0.15690109 0.00254492
v -0.32194957 0.15691109 0.00378492
v -0.32056734 0.15909146 0.01117415
v -0.32194957 0.15696108 0.01035492
v -0.32194957 0.15693109 0.00644492
v -0.32804513 0.14691330 -0.00684035
v -0.31412303 0.17081752 -0.03602566
v -0.24773958 -0.20245890 0.58467495
v -0.32198960 0.15691109 0.01035492
v -0.32200959 0.15691109 0.01425492
v -0.35270795 0.09852976 0.32587045
v -0.26985058 0.16043696 -0.45286930
v -0.32196957 0.15691109 0.00644492
v -0.32194957 0.15686110 -0.00135508
v -0.26737946 -0.19476625 -0.46971485
v -0.27661374 -0.24058706 -0.58407062
v -0.02264515 -0.20967253 -0.43585688
v -0.23991960 -0.20246892 0.58457494
v -0.23991960 -0.20245890 0.58467495
v -0.24382959 -0.20245890 0.58467495
v -0.25944957 -0.20245890 0.58467495
v -0.27500945 -0.08710442 -0.46006328
v -0.25554958 -0.20245890 0.58467495
v -0.25554958 -0.20246892 0.58457494
v -0.24382959 -0.20246892 0.58457494
v -0.27278537 -0.19602625 0.66584826
v -0.27586582 -0.10853048 -0.75096232
v -0.30133125 -0.05200354 0.42424530
v -0.27748278 0.01339953 -0.67984152
v -0.21648958 -0.20246892 0.58457494
v -0.22038960 -0.20246892 0.58457494
v -0.27877766 0.03653236 -0.54761732
v -0.30121469 0.18980446 -0.01660213
v -0.30244958 0.18816109 0.00254492
v -0.30242333 0.18819061 0.00209481
v -0.30246484 0.18816918 -0.00146713
v -0.19304959 -0.21417890 -0.68888503
v -0.19304959 -0.21417890 -0.68885505
v -0.19694960 -0.21417890 -0.68894506
v -0.19755942 -0.21417373 -0.68890917
v -0.28675997 0.20752069 0.00052736
v -0.30241957 0.18817109 0.00644492
v -0.22819960 -0.20245890 0.58467495
v -0.22038960 -0.20245890 0.58467495
v -0.22429959 -0.20245890 0.58467495
v -0.21648958 -0.20245890 0.58467495
v -0.33514941 -0.20647720 0.84726876
v -0.19304959 -0.20245890 0.58467495
v -0.18913960 -0.20246892 0.58457494
v -0.18913960 -0.20245890 0.58467495
v -0.24353819 -0.20191465 0.59322840
v -0.23601960 -0.20246892 0.58457494
v -0.22429959 -0.20246892 0.58457494
v -0.23210959 -0.20246892 0.58457494
v -0.23601960 -0.20245890 0.58467495
v -0.16960959 -0.20246892 0.58457494
v -0.17351960 -0.20245890 0.58467495
v -0.17351960 -0.20246892 0.58457494
v -0.24977136 -0.21433797 -0.74769998
v -0.27994210 0.00653158 0.48022506
v -0.19088960 -0.21417890 -0.68885505
v -0.28826091 0.20413768 -0.28358197
v -0.19304959 -0.20246892 0.58457494
v -0.19694960 -0.20245890 0.58467495
v -0.19694960 -0.20246892 0.58457494
v -0.21257959 -0.20245890 0.58467495
v -0.20866960 -0.20245890 0.58467495
v -0.17668302 -0.21552289 -0.70533162
v -0.23210959 -0.20245890 0.58467495
v -0.22819960 -0.20246892 0.58457494
v -0.20085959 -0.20245890 0.58467495
v -0.20085959 -0.20246892 0.58457494
v -0.20866960 -0.20246892 0.58457494
v -0.20476960 -0.20246892 0.58457494
v -0.13054959 -0.20246892 0.58457494
v -0.13444960 -0.20246892 0.58457494
v -0.20055342 -0.20603113 0.52869081
v -0.06644863 0.12455209 -0.93082625
v -0.21257959 -0.20246892 0.58457494
v -0.36836755 0.13433436 -0.77052242
v -0.19736840 -0.17998333 -0.87969995
v -0.22365806 0.17825770 -0.49115777
v -0.19983797 0.25809494 -0.23338200
v -0.16960959 -0.20245890 0.58467495
v -0.17741960 -0.20245890 0.58467495
v -0.14673527 -0.20579755 0.53231126
v -0.19136757 -0.21340248 -0.67890525
v -0.18523958 -0.20246892 0.58457494
v -0.18523958 -0.20245890 0.58467495
v -0.14616960 -0.20246892 0.58457494
v -0.15007959 -0.20245890 0.58467495
v -0.15007959 -0.20246892 0.58457494
v -0.20860277 -0.20211549 0.59009171
v -0.20476960 -0.20245890 0.58467495
v -0.17741960 -0.20246892 0.58457494
v -0.18132959 -0.20245890 0.58467495
v -0.16179959 -0.20245890 0.58467495
v -0.16569960 -0.20245890 0.58467495
v -0.15788960 -0.20221891 0.58847493
v -0.15607367 -0.19945681 0.63166809
v -0.18132959 -0.20246892 0.58457494
v -0.15398958 -0.20245890 0.58467495
v -0.15788960 -0.20245890 0.58467495
v -0.15398958 -0.20246892 0.58457494
v -0.14491874 -0.18091932 0.96320552
v -0.16179959 -0.20246892 0.58457494
v -0.16569960 -0.20246892 0.58457494
v -0.15788960 -0.20246892 0.58457494
v -0.13835959 -0.20245890 0.58467495
v -0.14226960 -0.20196891 0.59238493
v -0.14226960 -0.20245890 0.58467495
v -0.13835959 -0.20246892 0.58457494
v -0.14226960 -0.20246892 0.58457494
v -0.14616960 -0.20245890 0.58467495
v -0.21747585 -0.02217003 0.90741193
v -0.12273959 -0.20245890 0.58467495
v -0.13054959 -0.20245890 0.58467495
v -0.08157231 -0.19931410 0.63391769
v -0.12663960 -0.20246892 0.58457494
v -0.12663960 -0.20245890 0.58467495
v -0.13444960 -0.20245890 0.58467495
v -0.12273959 -0.20246892 0.58457494
v -0.11882959 -0.20246892 0.58457494
v -0.11882959 -0.20245890 0.58467495
v -0.11101959 -0.20246892 0.58457494
v -0.11491959 -0.20246892 0.58457494
v -0.11491959 -0.20245890 0.58467495
v -0.10710959 -0.20245890 0.58467495
v -0.11101959 -0.20245890 0.58467495
v -0.10710959 -0.20246892 0.58457494
v -0.13217472 -0.14818826 -0.94150150
v -0.12757845 -0.19939230 0.63272899
v -0.18223955 -0.04686780 -0.94329154
v -0.26654920 0.23565936 0.14621195
v -0.10097594 -0.20525695 0.54084164
v -0.00325570 0.27682501 0.08952677
v -0.10319960 -0.20246892 0.58457494
v -0.09929959 -0.20246892 0.58457494
v -0.10319960 -0.20245890 0.58467495
v -0.09929959 -0.20245890 0.58467495
v -0.09538959 -0.20245890 0.58467495
v -0.06703380 -0.21963932 -0.76340944
v -0.09538959 -0.20246892 0.58457494
v -0.08757959 -0.20245890 0.58467495
v -0.09148959 -0.20245890 0.58467495
v -0.07976959 -0.20246892 0.58457494
v -0.08366959 -0.20245890 0.58467495
v -0.08366959 -0.20246892 0.58457494
v -0.09148959 -0.20246892 0.58457494
v -0.08757959 -0.20246892 0.58457494
v -0.06804959 -0.20245890 0.58467495
v -0.06413959 -0.20246892 0.58457494
v -0.06413959 -0.20245890 0.58467495
v -0.07976959 -0.20245890 0.58467495
v -0.27549094 -0.21508341 0.41235131
v -0.05717306 -0.00319694 -0.98971272
v -0.07585959 -0.20246892 0.58457494
v -0.07585959 -0.20245890 0.58467495
v -0.04460959 -0.20245890 0.58467495
v -0.04460959 -0.20246892 0.58457494
v -0.04069959 -0.20246892 0.58457494
v -0.07194960 -0.20246892 0.58457494
v -0.06023959 -0.20246892 0.58457494
v -0.06253314 -0.20307465 0.57495290
v -0.04851959 -0.20246892 0.58457494
v 0.23306449 -0.21077079 0.87317824
v -0.05241959 -0.20245890 0.58467495
v -0.05632959 -0.20245890 0.58467495
v -0.05241959 -0.20246892 0.58457494
v -0.07194960 -0.20245890 0.58467495
v -0.06804959 -0.20246892 0.58457494
v -0.06023959 -0.20245890 0.58467495
v -0.02507959 -0.20245890 0.58467495
v -0.02116959 -0.20245890 0.58467495
v -0.03679959 -0.20246892 0.58457494
v -0.03679959 -0.20245890 0.58467495
v -0.04069959 -0.20245890 0.58467495
v -0.05632959 -0.20246892 0.58457494
v -0.01335959 -0.20246892 0.58457494
v -0.00944959 -0.20246892 0.58457494
v -0.01335959 -0.20245890 0.58467495
v -0.04851959 -0.20245890 0.58467495
v -0.22083515 0.05797616 0.70699298
v -0.03288959 -0.20245890 0.58467495
v -0.03288959 -0.20246892 0.58457494
v 0.00350029 -0.18298891 -0.90253842
v -0.00163959 -0.20246892 0.58457494
v 0.00226041 -0.20246892 0.58457494
v -0.00163959 -0.20245890 0.58467495
v -0.02507959 -0.20246892 0.58457494
v -0.02898959 -0.20246892 0.58457494
v -0.02898959 -0.20245890 0.58467495
v -0.02116959 -0.20246892 0.58457494
v -0.00554959 -0.20246892 0.58457494
v 0.05694041 -0.20245890 0.58467495
v 0.05304041 -0.20245890 0.58467495
v 0.05694041 -0.20246892 0.58457494
v 0.00226041 -0.20245890 0.58467495
v 0.03351041 -0.20246892 0.58457494
v 0.02960041 -0.20246892 0.58457494
v -0.02859638 -0.20025343 0.61921376
v -0.01726959 -0.20246892 0.58457494
v -0.01726959 -0.20245890 0.58467495
v -0.04610651 0.15902647 -0.93427342
v -0.03310355 -0.20617214 0.52646708
v 0.01788041 -0.20245890 0.58467495
v -0.00554959 -0.20245890 0.58467495
v -0.00944959 -0.20245890 0.58467495
v 0.02179041 -0.20246892 0.58457494
v 0.02179041 -0.20245890 0.58467495
v 0.01397041 -0.20246892 0.58457494
v 0.01007041 -0.20246892 0.58457494
v 0.03140148 -0.20307365 0.57496816
v 0.02960041 -0.20245890 0.58467495
v 0.03351041 -0.20245890 0.58467495
v 0.01788041 -0.20246892 0.58457494
v 0.01003957 -0.19921584 0.63547015
v 0.01397041 -0.20245890 0.58467495
v -0.07040378 0.14969701 -0.65463006
v 0.02569041 -0.20245890 0.58467495
v 0.00616041 -0.20246892 0.58457494
v 0.01007041 -0.20245890 0.58467495
v 0.00616041 -0.20245890 0.58467495
v 0.04913041 -0.20245890 0.58467495
v 0.02569041 -0.20246892 0.58457494
v 0.03741041 -0.20246892 0.58457494
v 0.04132041 -0.20246892 0.58457494
v 0.04522041 -0.20246892 0.58457494
v 0.04132041 -0.20245890 0.58467495
v 0.04913041 -0.20246892 0.58457494
v 0.04522041 -0.20245890 0.58467495
v 0.06085041 -0.20246892 0.58457494
v 0.03741041 -0.20245890 0.58467495
v 0.06085041 -0.20245890 0.58467495
v 0.06476041 -0.20245890 0.58467495
v 0.05304041 -0.20246892 0.58457494
v 0.07257040 -0.20246892 0.58457494
v 0.06866041 -0.20246892 0.58457494
v 0.06476041 -0.20246892 0.58457494
v 0.06866041 -0.20245890 0.58467495
v 0.07257040 -0.20245890 0.58467495
v 0.08038041 -0.20246892 0.58457494
v 0.08429041 -0.20246892 0.58457494
v 0.00566869 -0.03610981 0.97253394
v 0.09210041 -0.20245890 0.58467495
v 0.09601041 -0.20245890 0.58467495
v -0.13872567 0.07090303 0.53706038
v 0.07647041 -0.20246892 0.58457494
v 0.07647041 -0.20245890 0.58467495
v 0.08038041 -0.20245890 0.58467495
v 0.08819040 -0.20245890 0.58467495
v 0.08819040 -0.20246892 0.58457494
v 0.09601041 -0.20246892 0.58457494
v 0.06765893 -0.19964567 0.62873620
v 0.09991041 -0.20246892 0.58457494
v 0.08614920 -0.20497856 0.54517722
v 0.08429041 -0.20245890 0.58467495
v 0.09210041 -0.20246892 0.58457494
v 0.13556862 -0.20298718 0.57631844
v 0.12726042 -0.20246892 0.58457494
v 0.12335041 -0.20246892 0.58457494
v 0.11944040 -0.20245890 0.58467495
v 0.10772041 -0.20246892 0.58457494
v 0.10382040 -0.20245890 0.58467495
v 0.10382040 -0.20246892 0.58457494
v 0.11090024 -0.18909417 0.97721219
v 0.14098424 -0.20635302 -0.58759236
v 0.12726042 -0.20245890 0.58467495
v 0.14773040 -0.20636891 -0.59120506
v 0.11554041 -0.20245890 0.58467495
v 0.11944040 -0.20246892 0.58457494
v 0.12434232 0.14864373 -0.63935900
v 0.09991041 -0.20245890 0.58467495
v 0.13326097 -0.20083480 0.61011100
v 0.11163041 -0.20246892 0.58457494
v 0.11554041 -0.20246892 0.58457494
v 0.10772041 -0.20245890 0.58467495
v 0.11163041 -0.20245890 0.58467495
v 0.17643085 -0.21858549 0.32791823
v 0.12335041 -0.20245890 0.58467495
v 0.13897040 -0.20245890 0.58467495
v 0.14288040 -0.20245890 0.58467495
v 0.18987095 -0.19129945 -0.84517938
v 0.15460040 -0.20636891 -0.59130508
v 0.15851042 -0.20634891 -0.59120506
v 0.15069041 -0.20635891 -0.59120506
v 0.13116041 -0.20246892 0.58457494
v 0.16241041 -0.20245890 0.58467495
v 0.15851042 -0.20245890 0.58467495
v 0.13897040 -0.20246892 0.58457494
v 0.13507040 -0.20245890 0.58467495
v 0.19175276 -0.20309764 0.57459241
v 0.15069041 -0.20636891 -0.59124506
v 0.15460040 -0.20635891 -0.59120506
v 0.14679042 -0.20245890 0.58467495
v 0.15069041 -0.20245890 0.58467495
v 0.13507040 -0.20246892 0.58457494
v 0.13116041 -0.20245890 0.58467495
v 0.17328952 -0.20723122 -0.60234219
v 0.17022040 -0.20246892 0.58457494
v 0.17022040 -0.20245890 0.58467495
v 0.16632040 -0.20245890 0.58467495
v 0.27179042 -0.20246892 0.58457494
v 0.27177742 -0.20248398 0.58441502
v 0.19375017 -0.21418336 -0.68882442
v 0.19392687 -0.21419320 -0.68901157
v 0.14679042 -0.20246892 0.58457494
v 0.14288040 -0.20246892 0.58457494
v 0.15069041 -0.20246892 0.58457494
v 0.15460040 -0.20246892 0.58457494
v 0.15460040 -0.20245890 0.58467495
v 0.16241041 -0.20246892 0.58457494
v 0.16632040 -0.20246892 0.58457494
v 0.15851042 -0.20246892 0.58457494
v 0.18194041 -0.20246892 0.58457494
v 0.17804042 -0.20246892 0.58457494
v 0.16178031 -0.10622385 0.96258605
v 0.18194041 -0.21417890 -0.68865508
v 0.21521512 -0.21809280 -0.74188799
v 0.09685694 -0.21566017 -0.71852010
v 0.41632742 -0.21246436 -0.56295699
v 0.18976042 -0.21417890 -0.68877506
v 0.17413040 -0.20245890 0.58467495
v 0.17413040 -0.20246892 0.58457494
v 0.19804616 -0.21126901 -0.65280032
v 0.18585040 -0.21417890 -0.68871504
v 0.16000396 -0.20635785 -0.59127784
v 0.18585040 -0.21418890 -0.68885505
v 0.18128043 -0.21418263 -0.68872607
v 0.21319041 -0.20246892 0.58457494
v 0.20929042 -0.20246892 0.58457494
v 0.11342458 0.07090554 0.55937147
v 0.15415442 -0.13234918 -0.94398624
v 0.18976042 -0.21418890 -0.68885505
v 0.18585040 -0.20246892 0.58457494
v 0.17804042 -0.20245890 0.58467495
v 0.18194041 -0.20245890 0.58467495
v 0.28313148 -0.22581969 -0.66343051
v 0.20538040 -0.20246892 0.58457494
v 0.20538040 -0.20245890 0.58467495
v 0.20147040 -0.20245890 0.58467495
v 0.18976042 -0.20246892 0.58457494
v 0.18585040 -0.20245890 0.58467495
v 0.17618863 -0.20028241 0.61874968
v 0.18976042 -0.20245890 0.58467495
v 0.19366041 -0.20245890 0.58467495
v 0.26007041 -0.20245890 0.58467495
v 0.25616041 -0.20245890 0.58467495
v 0.26007041 -0.20246892 0.58457494
v 0.22882040 -0.20245890 0.58467495
v 0.23272040 -0.20245890 0.58467495
v 0.20147040 -0.20246892 0.58457494
v 0.21710040 -0.20246892 0.58457494
v 0.22101042 -0.20246892 0.58457494
v 0.21710040 -0.20245890 0.58467495
v 0.21319041 -0.20245890 0.58467495
v 0.23143277 -0.20298469 0.57636011
v 0.19366041 -0.21417890 -0.68885505
v 0.21234995 0.07650325 0.50809205
v 0.16588384 -0.20130843 -0.45189548
v 0.19757040 -0.20246892 0.58457494
v 0.19366041 -0.20246892 0.58457494
v 0.20929042 -0.20245890 0.58467495
v 0.17957345 -0.20342609 -0.55565667
v 0.19757040 -0.20245890 0.58467495
v 0.23272040 -0.20246892 0.58457494
v 0.22101042 -0.20245890 0.58467495
v 0.27276620 -0.21324907 0.40691200
v 0.22882040 -0.20246892 0.58457494
v 0.22491041 -0.20245890 0.58467495
v 0.22491041 -0.20246892 0.58457494
v 0.23799551 -0.08601475 -0.93527025
v 0.24835040 -0.20245890 0.58467495
v 0.24444041 -0.20245890 0.58467495
v 0.24835040 -0.20246892 0.58457494
v 0.22264121 -0.19954234 0.63038522
v 0.24054042 -0.20245890 0.58467495
v 0.26397040 -0.20246892 0.58457494
v 0.24444041 -0.20246892 0.58457494
v 0.25448161 0.15283336 -0.49438140
v 0.29496270 0.17785017 -0.30347613
v 0.23663040 -0.20246892 0.58457494
v 0.27084523 0.23961474 -0.21958865
v 0.27184090 -0.20246539 0.58459109
v 0.27569041 -0.20201892 0.58457494
v 0.26788041 -0.20245890 0.58467495
v 0.26788041 -0.20246892 0.58457494
v 0.26397040 -0.20245890 0.58467495
v 0.25616041 -0.20246892 0.58457494
v 0.25226042 -0.20246892 0.58457494
v 0.24054042 -0.20246892 0.58457494
v 0.23663040 -0.20245890 0.58467495
v 0.25226042 -0.20245890 0.58467495
v 0.27754718 -0.19885227 0.63245523
v 0.38907054 -0.12684596 0.52142781
v 0.34601042 -0.22978891 -0.70448506
v 0.34210041 -0.22979891 -0.70448506
v 0.21546437 0.14315571 -0.86991149
v 0.34509721 -0.19217426 0.84430599
v 0.24920027 0.25456989 -0.01116896
v 0.28499195 -0.24460907 -0.54165965
v 0.27739805 -0.20384742 0.55636525
v 0.40050101 -0.20989925 0.12145778
v 0.42524785 -0.20032158 -0.67537200
v 0.27975318 -0.15661179 -0.46550673
v 0.31233984 -0.06481555 0.40938050
v 0.34066042 -0.22979891 -0.70448506
v 0.29413575 -0.01147642 0.64508480
v 0.28288147 0.00013089 -0.61722118
v 0.39187878 0.14346819 -0.57368535
v 0.31798449 0.17188747 0.07765336
v 0.30691043 0.18816109 0.01425492
v 0.30693042 0.18816109 0.01035492
v 0.30333260 0.19248755 0.01713723
v 0.30665031 0.18862627 -0.03604930
v 0.30688214 0.18815199 0.01896274
v 0.34601042 -0.22979891 -0.70446503
v 0.34210041 -0.22979891 -0.70447505
v 0.30334160 -0.23611590 0.45388550
v 0.37335041 -0.20246892 0.57675493
v 0.37335303 -0.20247239 0.57675314
v 0.36944041 -0.20246892 0.57675493
v 0.37335041 -0.20119891 0.58066493
v 0.38182330 -0.14079335 0.60095912
v 0.33180389 0.01731491 -0.89670497
v 0.35382041 -0.22977892 -0.70448506
v 0.34991041 -0.22977892 -0.70448506
v 0.35382041 -0.22979891 -0.70444506
v 0.29676425 -0.00244549 0.48296574
v 0.35115477 -0.19425744 0.62059355
v 0.36944041 -0.04620891 0.51424491
v 0.36554042 -0.04619891 0.51425493
v 0.36944041 -0.04619891 0.51425493
v 0.26349211 0.06401424 0.68659091
v 0.37335041 0.02800109 -0.70448506
v 0.32139686 -0.16927537 -0.74944264
v 0.31960887 0.16783600 -0.00239945
v 0.30694041 0.18814109 0.01035492
v 0.28024849 0.21957894 0.17378402
v 0.30694041 0.18816109 0.00798492
v 0.30940846 0.18438040 0.01337553
v 0.30694041 0.18810108 0.01425492
v 0.30694041 0.18807109 0.01816492
v 0.32649040 0.15691109 0.00644492
v 0.32647040 0.15691109 0.00378492
v 0.32647040 0.15693109 0.00644492
v 0.32645041 0.15691109 -0.00135508
v 0.32643041 0.15691109 -0.00526508
v 0.32647040 0.15702109 0.01816492
v 0.31925070 0.16854294 0.01784709
v 0.32650870 0.15696187 0.01830521
v 0.32647040 0.15699109 0.01425492
v 0.30109853 -0.20103474 0.67516148
v 0.34991041 -0.22979891 -0.70445508
v 0.34414929 -0.19245119 -0.73667818
v 0.34210041 -0.18682891 -0.73963505
v 0.25818670 -0.21521527 -0.78972042
v 0.34601042 -0.18683891 -0.73962504
v 0.28810918 -0.15741956 -0.74420077
v 0.36944041 -0.20245890 0.57679492
v 0.37335041 -0.20245890 0.57678497
v 0.41037452 -0.22413830 0.57722342
v 0.28281710 -0.00227160 -0.72762209
v 0.36658502 -0.18245387 -0.57327253
v 0.33868414 -0.23682560 -0.69633830
v 0.35704234 0.01979350 -0.71167511
v 0.28488114 0.01502495 -0.50709009
v 0.35279211 0.10184833 -0.01137362
v 0.35772040 -0.23651890 -0.69666505
v 0.40857232 -0.21924914 0.37901187
v 0.33167368 0.14997576 0.01991670
v 0.37337452 -0.04625603 0.51421267
v 0.31874749 0.02714677 0.54914725
v 0.30515373 0.01218406 0.81845999
v 0.34600940 0.11784100 0.01819203
v 0.36409831 0.09754984 0.05201614
v 0.34601042 -0.18681891 -0.73963505
v 0.34991041 -0.18680891 -0.73963505
v 0.34599042 0.11766514 0.01195723
v 0.34594041 0.11784109 0.01425492
v 0.42692548 -0.26828539 -0.57699209
v 0.32641041 0.15691109 -0.00916508
v 0.35772040 -0.22976892 -0.70448506
v 0.33331722 0.14574927 -0.00695460
v 0.38030627 0.08569056 -0.03190908
v 0.34601042 0.11784109 0.01816492
v 0.37870139 0.12871723 -0.76431948
v 0.41909620 -0.27258196 0.55611545
v 0.32647040 0.15683109 -0.00526508
v 0.32647040 0.15686110 -0.00135508
v 0.40847042 0.05925109 -0.32166508
v 0.40838042 0.06316109 -0.32557508
v 0.40851042 0.06316109 -0.32548508
v 0.32647040 0.15696108 0.01035492
v 0.32647040 0.15690109 0.00254492
v 0.32647040 0.15691109 0.00254492
v 0.32651043 0.15691109 0.01035492
v 0.32653043 0.15691109 0.01425492
v 0.36805627 0.09798752 0.52894813
v 0.23527688 0.20316519 -0.41493428
v 0.36554042 -0.20245890 0.57679492
v 0.35382041 -0.18683891 -0.73961508
v 0.35772040 -0.22979891 -0.70443505
v 0.34991041 -0.18683891 -0.73962504
v 0.32878000 -0.22167894 -0.71507442
v 0.35409653 -0.18681416 -0.73962682
v 0.35769325 -0.20446189 0.49259344
v 0.34147975 -0.07354217 -0.52352399
v 0.42973953 -0.17480494 -0.46851528
v 0.37763357 -0.04810246 0.78779668
v 0.37335041 -0.04619891 0.51425493
v 0.37335041 -0.04440891 0.51816493
v 0.37335041 -0.04620891 0.51424491
v 0.37529233 0.02267841 0.52485031
v 0.41087914 -0.09850979 0.42587900
v 0.37335041 0.02490109 -0.70838505
v 0.35478044 -0.03325902 0.54991305
v 0.36924186 0.02470861 0.53759426
v 0.36554042 0.02748109 -0.70448506
v 0.36944041 0.02800109 -0.70439506
v 0.36944041 0.02792109 -0.70448506
v 0.37346637 0.02799427 -0.70449483
v 0.36504456 0.02410166 0.53373539
v 0.36944041 0.02410109 0.53379494
v 0.36554042 0.02409109 0.53368497
v 0.36944041 0.02409109 0.53374493
v 0.37270042 0.02409109 0.53379494
v 0.37303126 0.03836186 -0.69138700
v 0.37333575 0.02800778 -0.70446587
v 0.35547975 0.03596740 -0.69258368
v 0.42973289 0.06496409 -0.59747827
v 0.32762337 0.14335437 -0.45381957
v 0.40860042 0.05925109 -0.32166508
v 0.40851042 0.07078109 -0.33338508
v 0.40851042 0.06708094 -0.32948503
v 0.40854043 0.06706109 -0.32948509
v 0.40847042 0.06706109 -0.32948509
v 0.40553042 0.05534109 -0.32166508
v 0.35266608 0.09760477 0.33847687
v 0.39911300 0.11714364 0.27154288
v 0.42464042 -0.21417890 -0.69666505
v 0.39830908 -0.10681538 -0.52404296
v 0.41409692 -0.18969139 0.70425636
v 0.41503394 -0.24156731 -0.68702829
v 0.42250043 -0.21417890 -0.70448506
v 0.42144313 -0.07848383 -0.42696211
v 0.38000011 -0.09714045 -0.56518346
v 0.41765317 -0.21433544 0.43493873
v 0.40641305 -0.16024026 0.55891329
v 0.40357760 -0.13047290 -0.80813110
v 0.40991753 -0.10518114 -0.65486240
v 0.41426590 -0.17400002 0.64487559
v 0.41276121 -0.12092556 -0.48772082
v 0.40867561 -0.05776708 0.64596248
v 0.36226302 -0.06051026 0.47349060
v 0.39204139 -0.09105162 0.55743778
v 0.41311571 -0.01988394 0.58417708
v 0.36414260 -0.07557040 -0.67582613
v 0.39653024 -0.16891429 -0.18031576
v 0.40931475 -0.14099267 0.48223987
v 0.42013067 0.03142686 0.44230700
v 0.40851632 0.03797191 -0.31543952
v 0.41241041 0.05534109 -0.31832510
v 0.45051387 0.07890138 0.19781676
v 0.41488373 0.02461475 0.56287277
v 0.37496328 0.01883852 0.75496167
v 0.41871616 -0.02073256 -0.63077289
v 0.40849096 0.05922149 -0.32158098
v 0.40851042 0.06324109 -0.32557508
v 0.40871042 0.06316109 -0.32557508
v 0.40399614 0.07184861 -0.33444235
v 0.49783126 0.13186274 0.18976009
v 0.41900486 -0.20930715 -0.42785937
v 0.41298822 0.06833084 -0.33483475
v 0.41893449 -0.17886849 -0.74260610
v 0.42357042 -0.21417890 -0.70057505
v 0.40390095 -0.20901586 0.49209788
v 0.39449435 -0.12326158 -0.60584265
v 0.42096797 -0.01577059 0.10338113
v 0.41919747 -0.11860771 -0.72893715
v 0.42007071 -0.00928419 0.67905205
v 0.42027423 0.00025051 -0.57538825
v 0.41846809 -0.03737606 -0.70703417
v 0.42297003 -0.06181425 -0.52624005
v 0.42247656 -0.00247795 0.50128537
v 0.41992861 0.05335703 -0.57841921
v 0.41974646 -0.04188289 -0.46641919
v 0.40433955 0.10114280 -0.37935907
v 0.41558221 -0.04774067 -0.20190151
v 0.40835869 0.03177455 0.41284966
v 0.42448229 0.04465018 0.58268881
v 0.42912844 0.01755045 -0.72360474
f 56 82 9
f 1 15 6
f 9 82 2
f 45 57 14
f 18 70 13
f 26 59 38
f 23 24 25
f 27 85 28
f 33 27 28
f 85 22 30
f 85 21 31
f 32 33 34
f 27 30 22
f 85 30 32
f 35 36 31
f 30 27 33
f 32 30 33
f 95 1 6
f 87 41 42
f 1 69 15
f 1 44 94
f 51 3 7
f 56 8 17
f 2 82 113
f 41 46 47
f 46 48 47
f 1 13 44
f 26 3 51
f 8 56 17
f 56 17 120
f 1 95 13
f 57 6 15
f 17 63 60
f 92 8 17
f 8 54 55
f 5 54 62
f 4 61 54
f 8 63 17
f 63 8 54
f 61 60 54
f 60 63 54
f 17 62 54
f 9 2 66
f 57 15 14
f 54 77 17
f 8 77 54
f 53 67 50
f 45 18 71
f 71 18 45
f 71 45 19
f 71 19 58
f 58 19 45
f 58 45 14
f 58 14 57
f 51 59 26
f 92 74 73
f 8 12 77
f 74 75 76
f 75 74 64
f 96 73 65
f 10 177 80
f 57 14 103
f 17 16 158
f 158 16 109
f 78 66 2
f 66 78 119
f 103 70 18
f 14 19 103
f 2 109 78
f 109 16 78
f 19 14 162
f 85 38 22
f 38 59 22
f 82 20 43
f 109 2 37
f 104 210 68
f 103 19 162
f 35 84 39
f 27 22 85
f 35 34 36
f 35 29 34
f 39 85 29
f 32 29 85
f 32 34 29
f 35 39 29
f 85 36 28
f 36 34 28
f 34 33 28
f 84 35 31
f 85 39 21
f 190 81 11
f 21 84 31
f 84 21 39
f 31 36 85
f 104 38 210
f 38 85 127
f 43 46 41
f 20 46 43
f 87 43 41
f 48 46 20
f 82 56 20
f 48 42 47
f 42 41 47
f 87 82 43
f 88 89 79
f 89 88 90
f 20 56 120
f 53 50 90
f 87 42 113
f 79 91 67
f 91 79 89
f 44 88 79
f 53 44 67
f 147 7 3
f 54 8 92
f 55 54 92
f 89 90 91
f 49 91 90
f 91 49 67
f 49 50 67
f 88 13 90
f 50 49 90
f 79 67 44
f 13 88 44
f 73 76 65
f 17 56 120
f 104 68 157
f 97 45 83
f 83 45 71
f 97 83 72
f 97 57 45
f 97 58 57
f 75 77 25
f 75 64 77
f 64 92 77
f 74 76 73
f 76 23 65
f 17 92 96
f 17 158 16
f 3 26 152
f 11 7 158
f 77 96 25
f 96 65 25
f 17 77 92
f 76 75 24
f 23 76 24
f 64 74 92
f 75 25 24
f 96 92 17
f 92 73 96
f 55 92 12
f 12 8 55
f 9 66 119
f 13 157 18
f 72 71 58
f 56 9 120
f 65 23 25
f 177 117 80
f 98 99 100
f 100 101 102
f 83 71 72
f 12 92 77
f 37 80 81
f 108 100 102
f 80 117 99
f 80 99 98
f 99 105 101
f 107 108 102
f 99 117 105
f 98 100 108
f 105 107 102
f 100 99 101
f 80 98 81
f 81 98 108
f 117 108 107
f 102 101 105
f 107 105 117
f 109 37 190
f 48 20 42
f 210 118 68
f 162 104 159
f 38 104 162
f 159 103 162
f 95 6 146
f 81 141 11
f 127 85 22
f 22 106 142
f 210 38 127
f 113 42 20
f 87 113 82
f 94 44 53
f 13 157 90
f 156 93 111
f 157 53 90
f 7 285 158
f 15 69 152
f 13 95 157
f 13 70 157
f 15 152 14
f 7 59 51
f 120 17 158
f 37 2 113
f 10 80 113
f 37 113 80
f 92 96 77
f 68 118 116
f 57 103 152
f 18 159 103
f 14 152 162
f 106 22 59
f 11 106 59
f 141 106 11
f 11 158 190
f 108 117 245
f 70 103 159
f 152 26 162
f 158 109 190
f 158 78 16
f 245 81 108
f 38 162 26
f 106 141 121
f 190 37 81
f 124 125 126
f 128 40 133
f 106 121 142
f 131 136 132
f 132 135 133
f 141 81 377
f 142 127 22
f 124 138 125
f 139 140 134
f 134 140 133
f 135 134 133
f 121 137 142
f 137 128 133
f 132 136 143
f 137 123 128
f 123 144 128
f 40 132 133
f 40 131 132
f 144 40 128
f 144 131 40
f 132 143 135
f 122 136 121
f 144 123 136
f 136 139 143
f 121 136 137
f 86 122 121
f 122 140 136
f 143 139 135
f 123 137 136
f 136 131 144
f 133 122 86
f 140 122 133
f 135 139 134
f 140 139 136
f 86 121 141
f 86 141 264
f 1 146 69
f 94 146 1
f 57 152 6
f 148 149 150
f 113 20 120
f 120 9 113
f 110 124 126
f 111 151 156
f 9 119 113
f 93 156 110
f 181 153 125
f 53 157 94
f 154 110 126
f 17 120 158
f 148 150 155
f 113 156 10
f 3 152 145
f 37 113 119
f 104 157 159
f 111 93 112
f 151 153 181
f 263 116 118
f 59 7 11
f 207 160 161
f 119 158 37
f 119 78 158
f 158 190 37
f 153 126 125
f 81 245 313
f 313 377 81
f 118 210 208
f 127 142 192
f 137 192 142
f 164 165 166
f 137 133 163
f 163 129 166
f 130 129 52
f 163 133 129
f 166 129 164
f 171 52 86
f 164 129 130
f 129 86 52
f 129 133 86
f 167 168 169
f 168 170 169
f 137 163 192
f 163 166 171
f 166 165 171
f 171 192 163
f 165 172 171
f 192 171 264
f 165 164 172
f 164 130 172
f 130 52 172
f 172 52 171
f 171 86 264
f 69 146 152
f 174 175 161
f 176 223 174
f 157 95 146
f 189 68 115
f 153 151 154
f 152 146 6
f 178 179 180
f 285 110 190
f 150 181 138
f 112 154 151
f 93 110 112
f 153 154 126
f 110 154 112
f 111 112 151
f 156 151 181
f 181 125 138
f 110 182 148
f 70 159 157
f 211 115 116
f 68 116 115
f 68 189 157
f 146 94 157
f 189 145 157
f 176 174 160
f 113 37 156
f 159 18 157
f 158 285 190
f 156 190 110
f 183 207 161
f 182 149 148
f 182 184 185
f 182 185 149
f 186 187 188
f 174 223 175
f 145 152 159
f 156 37 190
f 159 152 162
f 159 152 103
f 159 157 145
f 159 162 152
f 191 272 217
f 114 189 115
f 334 208 210
f 192 212 127
f 193 194 195
f 161 160 174
f 223 196 197
f 173 181 199
f 199 185 184
f 285 207 110
f 173 223 181
f 110 184 182
f 185 199 181
f 155 110 148
f 138 155 150
f 200 183 173
f 200 199 184
f 175 173 183
f 138 124 155
f 149 185 181
f 155 124 110
f 150 149 181
f 161 175 183
f 195 201 202
f 200 173 199
f 10 156 177
f 173 175 223
f 193 195 207
f 183 200 207
f 200 184 207
f 110 207 184
f 176 196 223
f 197 196 203
f 204 197 203
f 145 189 217
f 205 206 216
f 170 168 217
f 178 180 230
f 170 189 114
f 263 118 286
f 118 208 286
f 209 196 176
f 210 127 212
f 207 179 193
f 192 212 142
f 212 192 142
f 212 192 213
f 187 214 230
f 187 215 188
f 168 167 191
f 213 192 264
f 170 114 169
f 189 170 217
f 198 169 114
f 167 198 191
f 179 207 216
f 198 272 191
f 167 169 198
f 168 191 217
f 198 114 115
f 180 218 219
f 220 221 222
f 223 224 201
f 193 179 178
f 160 207 209
f 216 188 225
f 201 224 202
f 207 202 204
f 197 224 223
f 226 230 219
f 204 224 197
f 209 176 160
f 204 203 207
f 180 219 230
f 178 194 193
f 194 178 230
f 209 207 203
f 195 202 207
f 209 203 196
f 179 218 180
f 230 181 223
f 204 202 224
f 223 194 230
f 227 230 228
f 181 230 156
f 194 223 201
f 194 201 195
f 116 261 211
f 117 177 235
f 117 235 245
f 230 227 229
f 186 188 216
f 225 231 216
f 264 141 377
f 264 266 213
f 232 233 234
f 216 236 237
f 225 215 226
f 237 228 214
f 225 226 231
f 236 227 228
f 207 285 216
f 226 219 231
f 218 216 231
f 186 214 187
f 218 231 219
f 225 188 215
f 227 233 229
f 218 179 216
f 215 230 226
f 238 234 233
f 239 240 241
f 215 187 230
f 216 234 238
f 233 232 229
f 233 227 238
f 238 236 216
f 242 241 243
f 228 230 214
f 238 227 236
f 236 228 237
f 216 237 186
f 237 214 186
f 244 241 240
f 221 244 240
f 116 263 261
f 239 242 206
f 232 222 221
f 210 212 334
f 3 145 147
f 145 217 272
f 262 156 230
f 115 272 198
f 240 239 262
f 220 243 244
f 242 239 241
f 249 247 205
f 247 249 250
f 222 229 221
f 229 222 230
f 239 251 262
f 216 206 242
f 220 244 221
f 239 206 251
f 229 232 221
f 222 240 230
f 221 240 222
f 220 222 216
f 234 216 222
f 206 205 251
f 249 216 252
f 250 252 246
f 246 253 254
f 247 251 205
f 262 251 247
f 255 256 265
f 216 243 220
f 241 244 243
f 240 262 230
f 242 243 216
f 232 234 222
f 257 262 254
f 247 250 262
f 216 249 205
f 249 252 250
f 258 259 260
f 250 246 262
f 211 272 115
f 246 254 262
f 262 259 258
f 246 252 253
f 264 377 266
f 334 212 349
f 267 268 269
f 270 271 262
f 256 254 253
f 349 212 213
f 268 270 269
f 268 265 273
f 270 262 269
f 253 252 265
f 260 265 267
f 274 262 275
f 272 211 261
f 273 270 268
f 258 267 269
f 276 277 278
f 252 216 265
f 255 260 259
f 256 257 254
f 265 260 255
f 275 271 279
f 268 267 265
f 259 257 255
f 273 265 279
f 280 275 279
f 262 258 269
f 271 275 262
f 156 248 296
f 257 259 262
f 270 273 271
f 280 278 274
f 273 279 271
f 253 265 256
f 256 255 257
f 262 248 156
f 258 260 267
f 281 282 283
f 277 284 248
f 235 396 245
f 245 396 374
f 313 245 374
f 377 313 564
f 262 274 277
f 287 288 284
f 289 290 291
f 294 292 287
f 283 282 293
f 290 295 294
f 278 280 294
f 294 287 276
f 297 298 299
f 276 284 277
f 280 279 294
f 278 294 276
f 300 248 288
f 281 283 248
f 262 277 248
f 265 216 335
f 285 409 216
f 280 274 275
f 277 274 278
f 294 293 282
f 292 301 300
f 301 292 294
f 292 300 288
f 292 288 287
f 288 248 284
f 279 265 294
f 248 300 281
f 287 284 276
f 294 282 301
f 281 300 301
f 282 281 301
f 283 302 248
f 272 261 316
f 331 303 304
f 305 306 307
f 289 307 331
f 463 316 261
f 308 302 293
f 309 335 310
f 289 312 290
f 331 312 289
f 314 306 315
f 289 291 307
f 293 294 308
f 295 290 312
f 290 335 291
f 317 318 319
f 320 321 335
f 312 297 295
f 314 322 331
f 248 302 331
f 294 299 308
f 305 315 306
f 299 295 297
f 323 320 335
f 291 305 307
f 302 283 293
f 294 295 299
f 315 321 314
f 324 310 335
f 298 331 302
f 297 312 331
f 306 331 307
f 308 299 298
f 294 265 335
f 296 248 331
f 290 294 335
f 335 216 409
f 308 298 302
f 305 335 315
f 331 298 297
f 335 321 315
f 305 291 335
f 306 314 331
f 322 314 321
f 156 296 177
f 235 177 396
f 261 263 463
f 325 326 327
f 328 319 318
f 343 329 330
f 323 332 304
f 335 309 332
f 309 333 332
f 311 331 333
f 335 318 317
f 331 347 296
f 147 145 272
f 317 337 324
f 338 324 337
f 339 340 336
f 341 342 343
f 285 7 409
f 319 328 331
f 311 310 338
f 320 322 321
f 337 319 331
f 320 323 303
f 344 345 347
f 309 311 333
f 319 337 317
f 320 303 322
f 304 303 323
f 337 331 338
f 303 331 322
f 311 309 310
f 333 304 332
f 311 338 331
f 335 332 323
f 338 310 324
f 317 324 335
f 331 304 333
f 343 339 346
f 263 286 502
f 564 313 374
f 343 346 341
f 346 348 341
f 350 344 347
f 213 402 349
f 347 345 384
f 340 347 336
f 348 336 347
f 335 351 318
f 352 353 342
f 354 326 384
f 348 352 341
f 350 340 355
f 331 353 352
f 331 352 347
f 409 7 147
f 339 355 340
f 350 355 330
f 353 331 328
f 346 336 348
f 351 353 328
f 356 345 329
f 342 335 343
f 343 355 339
f 339 336 346
f 330 355 343
f 340 350 347
f 342 341 352
f 335 342 351
f 357 356 343
f 351 328 318
f 350 330 344
f 352 348 347
f 351 342 353
f 296 396 177
f 358 357 343
f 357 358 359
f 360 354 361
f 362 325 327
f 334 349 528
f 513 213 266
f 357 359 363
f 384 345 363
f 343 360 358
f 147 533 409
f 364 365 384
f 354 384 361
f 330 329 344
f 366 327 326
f 335 409 343
f 363 345 356
f 360 361 358
f 343 366 360
f 343 409 386
f 367 368 386
f 362 369 364
f 386 327 366
f 384 326 325
f 362 327 386
f 357 363 356
f 361 359 358
f 366 343 386
f 384 296 347
f 366 354 360
f 325 364 384
f 366 326 354
f 384 359 361
f 325 362 364
f 344 329 345
f 329 343 356
f 359 384 363
f 296 384 583
f 384 370 371
f 463 263 502
f 396 447 374
f 372 386 373
f 377 462 489
f 375 376 384
f 377 564 462
f 528 208 334
f 378 379 371
f 378 372 379
f 379 384 371
f 380 379 372
f 381 375 384
f 382 373 386
f 376 375 383
f 397 147 272
f 385 376 383
f 272 413 450
f 381 387 382
f 387 381 384
f 386 372 378
f 365 364 369
f 371 370 367
f 369 362 386
f 373 387 380
f 368 367 370
f 373 380 372
f 388 381 382
f 368 369 386
f 368 370 365
f 380 387 384
f 389 390 391
f 388 382 386
f 386 378 367
f 368 365 369
f 388 386 383
f 373 382 387
f 384 379 380
f 378 371 367
f 370 384 365
f 393 394 395
f 375 381 388
f 583 384 404
f 272 316 463
f 392 400 401
f 384 403 394
f 528 349 402
f 386 405 393
f 406 401 400
f 397 272 450
f 407 384 394
f 384 407 408
f 147 397 490
f 703 147 490
f 533 147 703
f 385 395 403
f 391 392 401
f 395 385 386
f 388 383 375
f 400 392 404
f 389 391 401
f 384 408 404
f 409 600 498
f 393 405 407
f 386 406 405
f 389 401 406
f 408 400 404
f 406 400 408
f 392 410 404
f 403 384 376
f 393 407 394
f 383 386 385
f 408 407 405
f 394 403 395
f 392 391 410
f 406 386 389
f 393 395 386
f 385 403 376
f 406 408 405
f 410 398 404
f 404 411 412
f 410 390 398
f 272 463 413
f 429 457 414
f 414 457 415
f 502 286 555
f 450 429 399
f 286 208 555
f 418 474 419
f 420 411 421
f 266 377 489
f 266 489 569
f 213 630 402
f 429 423 399
f 429 414 423
f 416 424 397
f 404 425 426
f 423 424 416
f 423 414 424
f 427 428 417
f 414 415 424
f 404 398 428
f 420 421 427
f 430 431 432
f 399 416 397
f 450 399 397
f 390 389 417
f 421 404 428
f 416 399 423
f 437 412 438
f 391 390 410
f 420 438 411
f 412 425 404
f 426 425 439
f 389 440 439
f 389 427 417
f 427 421 428
f 440 426 439
f 412 411 438
f 437 425 412
f 438 420 389
f 389 420 427
f 417 398 390
f 439 437 389
f 441 426 440
f 428 398 417
f 411 404 421
f 437 438 389
f 426 441 404
f 441 419 404
f 442 443 418
f 437 439 425
f 440 444 441
f 445 446 422
f 422 430 443
f 442 419 444
f 443 442 422
f 442 389 422
f 453 431 454
f 415 457 494
f 448 456 455
f 448 458 456
f 448 459 458
f 455 450 459
f 459 448 455
f 422 460 461
f 424 415 494
f 630 213 513
f 474 431 453
f 432 418 443
f 458 464 456
f 464 452 456
f 449 450 413
f 397 424 494
f 456 452 455
f 457 429 494
f 404 419 474
f 445 422 465
f 429 450 455
f 452 435 455
f 446 445 466
f 449 464 458
f 465 467 445
f 459 449 458
f 450 449 459
f 397 494 490
f 422 454 430
f 444 440 389
f 446 466 453
f 454 422 446
f 386 409 422
f 430 432 443
f 466 474 453
f 469 470 471
f 474 418 432
f 474 466 467
f 465 472 473
f 389 386 422
f 419 441 444
f 467 465 473
f 474 475 476
f 467 466 445
f 442 444 389
f 467 473 474
f 430 454 431
f 431 474 432
f 442 418 419
f 473 475 474
f 446 453 454
f 465 422 472
f 583 404 474
f 477 478 479
f 435 436 455
f 480 481 506
f 469 471 482
f 483 484 485
f 422 469 482
f 436 449 455
f 485 486 483
f 506 486 485
f 452 488 435
f 555 208 528
f 422 491 492
f 461 493 470
f 470 493 506
f 429 455 494
f 474 495 506
f 483 422 484
f 452 464 488
f 494 587 490
f 488 449 436
f 472 422 492
f 435 488 436
f 455 449 587
f 496 481 480
f 476 475 492
f 491 495 476
f 471 495 482
f 497 485 484
f 491 476 492
f 486 493 460
f 464 449 488
f 422 461 469
f 482 491 422
f 461 470 469
f 487 496 499
f 422 483 460
f 506 485 497
f 491 482 495
f 506 495 471
f 583 474 506
f 480 500 499
f 493 486 506
f 461 460 493
f 473 472 475
f 483 486 460
f 495 474 476
f 470 506 471
f 492 475 472
f 484 501 497
f 496 480 499
f 503 504 505
f 500 506 497
f 506 507 504
f 479 508 477
f 505 504 509
f 528 402 510
f 510 630 528
f 496 512 481
f 514 515 524
f 516 517 433
f 449 413 587
f 494 455 587
f 587 535 490
f 535 703 490
f 516 524 518
f 487 505 509
f 517 516 518
f 487 499 501
f 519 520 487
f 521 509 507
f 506 481 522
f 505 487 520
f 522 481 512
f 487 422 409
f 512 496 487
f 504 503 506
f 501 500 497
f 532 409 498
f 484 487 501
f 487 484 422
f 521 507 522
f 523 503 520
f 507 506 522
f 518 477 508
f 521 522 512
f 504 507 509
f 505 520 503
f 506 500 480
f 501 499 500
f 521 512 487
f 509 521 487
f 524 583 506
f 503 523 506
f 517 532 434
f 479 519 532
f 463 502 413
f 517 434 433
f 374 447 604
f 489 462 564
f 526 527 635
f 519 479 478
f 540 528 630
f 402 630 510
f 513 266 530
f 530 266 569
f 434 532 515
f 478 477 524
f 516 433 514
f 519 478 523
f 519 523 520
f 532 508 479
f 515 532 538
f 524 515 538
f 514 433 434
f 487 409 532
f 524 477 518
f 519 487 532
f 517 518 508
f 523 478 524
f 506 523 524
f 532 517 508
f 524 516 514
f 515 514 434
f 529 396 296
f 583 524 538
f 532 498 538
f 587 593 535
f 593 539 535
f 396 529 640
f 396 640 447
f 498 559 538
f 539 593 597
f 535 539 597
f 374 604 564
f 511 510 630
f 542 543 544
f 547 527 526
f 547 548 527
f 502 587 413
f 498 600 536
f 589 539 593
f 559 498 536
f 597 539 535
f 550 552 551
f 551 554 553
f 635 556 557
f 556 558 557
f 604 447 640
f 595 537 548
f 635 595 468
f 561 562 563
f 562 647 563
f 593 539 597
f 565 652 659
f 569 489 669
f 630 510 662
f 543 542 568
f 546 541 571
f 570 571 545
f 546 542 544
f 572 573 571
f 574 575 576
f 573 546 571
f 568 542 572
f 577 578 567
f 570 568 571
f 570 543 568
f 568 572 571
f 579 580 581
f 542 546 573
f 572 542 573
f 545 571 541
f 511 630 662
f 630 513 662
f 662 513 511
f 545 513 544
f 513 530 544
f 530 541 544
f 544 570 545
f 543 570 544
f 541 546 544
f 530 569 541
f 635 468 589
f 611 531 468
f 589 585 635
f 526 635 557
f 527 537 635
f 537 527 548
f 595 548 547
f 595 635 537
f 549 583 592
f 674 468 595
f 535 531 639
f 547 584 595
f 585 589 586
f 703 535 676
f 683 531 535
f 529 296 583
f 549 559 536
f 588 585 586
f 566 586 589
f 551 552 637
f 590 591 553
f 593 587 680
f 583 538 682
f 535 597 676
f 502 555 680
f 531 683 451
f 539 589 713
f 536 691 559
f 684 538 559
f 596 660 593
f 591 550 551
f 557 558 584
f 607 566 608
f 559 691 603
f 603 691 538
f 564 629 489
f 609 601 610
f 545 612 614
f 636 705 585
f 662 510 692
f 601 598 614
f 609 598 601
f 605 616 610
f 616 609 610
f 598 615 614
f 528 540 617
f 662 540 630
f 619 620 614
f 621 622 701
f 623 622 621
f 576 567 624
f 578 577 620
f 625 626 575
f 619 578 620
f 620 577 625
f 545 614 615
f 612 578 619
f 574 576 624
f 627 574 624
f 614 612 619
f 620 625 614
f 627 628 614
f 624 567 582
f 614 625 575
f 626 577 567
f 625 577 626
f 581 580 541
f 605 610 601
f 628 581 614
f 606 605 601
f 574 627 614
f 575 574 614
f 614 541 601
f 601 541 669
f 612 545 567
f 511 513 545
f 578 612 567
f 511 545 615
f 575 626 567
f 575 567 576
f 567 545 580
f 614 581 541
f 628 627 582
f 627 624 582
f 628 582 579
f 581 628 579
f 580 545 541
f 579 582 580
f 582 567 580
f 669 541 569
f 560 637 631
f 584 526 557
f 526 584 547
f 595 633 599
f 634 632 585
f 613 556 635
f 618 583 549
f 633 556 613
f 556 633 558
f 590 553 554
f 674 595 599
f 534 468 531
f 634 585 588
f 674 613 635
f 613 674 599
f 637 552 631
f 705 636 566
f 633 595 558
f 584 558 595
f 636 632 608
f 586 607 588
f 600 409 533
f 590 631 552
f 707 549 592
f 551 637 554
f 590 550 591
f 552 550 590
f 560 631 554
f 631 590 554
f 591 551 553
f 529 583 673
f 634 607 608
f 634 588 607
f 607 586 566
f 566 636 608
f 632 634 608
f 636 585 632
f 589 468 534
f 536 678 549
f 554 637 525
f 587 502 680
f 705 566 589
f 688 708 594
f 638 594 672
f 559 549 707
f 559 707 645
f 710 589 593
f 535 639 717
f 602 641 642
f 641 647 642
f 688 594 638
f 535 717 597
f 602 643 641
f 643 563 641
f 525 685 686
f 643 602 561
f 565 646 652
f 563 647 641
f 685 561 602
f 685 562 561
f 685 647 562
f 643 561 563
f 685 602 686
f 686 602 642
f 686 642 647
f 554 685 637
f 647 685 554
f 686 647 554
f 596 722 646
f 593 680 722
f 650 565 659
f 677 688 638
f 535 539 714
f 715 603 644
f 596 646 659
f 651 596 659
f 593 722 596
f 649 596 651
f 646 565 659
f 565 651 659
f 660 650 659
f 646 722 652
f 536 559 715
f 559 603 715
f 654 653 648
f 654 655 653
f 655 654 656
f 695 644 657
f 656 657 644
f 653 644 603
f 654 657 656
f 648 653 603
f 695 715 644
f 655 644 653
f 603 695 648
f 603 538 695
f 655 656 644
f 657 654 648
f 695 657 648
f 564 640 696
f 604 640 564
f 652 658 659
f 650 651 565
f 649 660 596
f 660 659 658
f 651 650 649
f 649 650 660
f 660 658 661
f 661 593 660
f 597 593 661
f 593 597 716
f 510 511 692
f 664 665 666
f 665 664 667
f 668 698 621
f 489 629 669
f 564 696 629
f 555 528 617
f 615 692 511
f 622 667 701
f 609 616 605
f 615 598 606
f 606 598 605
f 598 609 605
f 601 669 606
f 662 718 540
f 534 531 451
f 468 674 611
f 635 585 705
f 674 635 705
f 678 618 549
f 592 583 682
f 673 583 618
f 710 589 534
f 531 611 639
f 536 600 691
f 685 690 637
f 594 708 451
f 451 677 594
f 594 677 672
f 536 645 678
f 525 637 690
f 525 679 554
f 529 673 711
f 710 705 589
f 708 688 681
f 683 677 708
f 690 685 525
f 554 679 686
f 525 686 679
f 529 711 640
f 589 710 713
f 710 593 713
f 681 688 697
f 697 688 677
f 681 697 708
f 714 708 677
f 645 536 715
f 560 554 637
f 684 682 538
f 677 712 697
f 672 677 638
f 597 717 716
f 683 535 714
f 698 693 663
f 559 645 715
f 713 593 716
f 696 640 711
f 713 697 539
f 658 652 661
f 698 623 621
f 692 698 668
f 715 687 559
f 687 684 559
f 661 652 722
f 712 539 697
f 539 712 714
f 623 698 663
f 667 622 699
f 719 692 615
f 720 606 669
f 691 721 538
f 711 538 721
f 629 696 721
f 665 667 699
f 701 667 664
f 668 621 701
f 704 700 663
f 615 606 720
f 669 629 720
f 691 629 721
f 706 675 671
f 675 534 671
f 671 534 674
f 674 675 706
f 705 675 674
f 611 674 534
f 674 706 671
f 451 611 534
f 611 451 683
f 618 707 592
f 618 592 682
f 675 705 534
f 673 618 682
f 594 534 708
f 683 639 611
f 533 703 689
f 707 618 678
f 600 533 691
f 534 705 710
f 594 708 534
f 639 677 451
f 703 676 689
f 690 707 678
f 707 690 678
f 679 682 554
f 673 682 711
f 451 708 639
f 708 677 639
f 533 689 709
f 707 678 645
f 679 525 690
f 690 525 679
f 554 682 679
f 682 684 711
f 677 683 714
f 714 683 708
f 717 639 683
f 689 676 719
f 555 617 722
f 712 677 708
f 697 712 708
f 700 623 663
f 533 709 691
f 525 645 686
f 686 645 525
f 683 714 717
f 689 719 709
f 680 555 722
f 714 712 717
f 717 712 716
f 676 597 661
f 687 695 711
f 711 684 687
f 697 713 716
f 712 697 716
f 676 661 718
f 668 701 692
f 676 692 719
f 709 719 615
f 709 720 691
f 687 715 695
f 695 538 711
f 721 696 711
f 665 699 666
f 704 676 718
f 698 692 693
f 699 700 666
f 704 692 676
f 699 623 700
f 699 622 623
f 704 701 664
f 666 700 704
f 693 692 704
f 663 693 704
f 615 720 709
f 720 629 691
f 617 540 722
f 661 722 540
f 540 718 661
f 662 692 718
f 701 718 692
f 718 701 704
f 704 664 666
f 694 670 702
f 694 702 670
f 60 61 62
f 5 4 54
f 61 5 62
f 61 4 5
f 60 62 17
f 58 97 72
f 633 613 599

