# https://github.com/mikedh/trimesh
v -0.35220093 -0.28648114 -0.64786005
v -0.37707660 -0.28740355 -0.64490592
v -0.36880276 -0.22437970 -0.66792703
v -0.37346378 -0.21363512 0.54161096
v -0.37399700 -0.26235557 0.66109222
v -0.36392093 -0.28647116 -0.64788002
v -0.37870452 -0.26879987 0.71924329
v -0.35611093 -0.22788116 0.75834000
v -0.35220093 -0.22788116 0.75834000
v -0.36392093 -0.25918114 0.73100996
v -0.36461264 -0.25915554 0.73103559
v -0.38365582 -0.22341387 0.75045103
v -0.35611093 -0.28648114 -0.64786005
v -0.36002094 -0.28648114 -0.64786005
v -0.26185876 -0.28897160 0.60328376
v -0.37203121 -0.13037981 -0.74197072
v -0.34830093 -0.28648114 -0.64786005
v -0.34439093 -0.28648114 -0.64786005
v -0.35174647 -0.22981705 0.75704873
v -0.35220093 -0.22786117 0.75835997
v -0.34830093 -0.22788116 0.75834000
v -0.34830093 -0.22786117 0.75835997
v -0.36002094 -0.25913113 0.73105997
v -0.35611093 -0.25918114 0.73100996
v -0.35611093 -0.25913113 0.73105997
v -0.32418069 -0.27119792 -0.67754501
v -0.34439093 -0.28647116 -0.64788002
v -0.34830093 -0.28647116 -0.64788002
v -0.35758218 -0.23972018 -0.43515769
v -0.37024447 -0.10173757 -0.67745817
v -0.36002094 -0.25918114 0.73100996
v -0.35220093 -0.28647116 -0.64788002
v -0.36783430 -0.14343290 0.75549662
v -0.36391044 -0.00931483 0.79956913
v -0.36726800 0.06751375 -0.52265054
v -0.32095093 -0.02475116 -0.60491002
v -0.31705093 -0.02476116 -0.60495001
v -0.31705093 -0.02475116 -0.60491002
v -0.35778984 -0.02732520 -0.56950378
v -0.38253585 0.12914041 0.15134278
v -0.31314093 -0.07158116 0.53569996
v -0.31314093 -0.07163116 0.53565997
v -0.30924094 -0.07163116 0.53565997
v -0.36002094 -0.28647116 -0.64788002
v -0.35239184 -0.22085273 0.43735048
v -0.35611093 -0.28647116 -0.64788002
v -0.34049094 -0.28648114 -0.64786005
v -0.34049094 -0.28647116 -0.64788002
v -0.36392093 -0.25913113 0.73105997
v -0.34830093 -0.25913113 0.73105997
v -0.25764468 -0.26845270 -0.68068123
v -0.35584268 -0.24231145 0.57497120
v -0.34439093 -0.25913113 0.73105997
v -0.34049094 -0.25918114 0.73100996
v -0.34049094 -0.25913113 0.73105997
v -0.34830093 -0.25918114 0.73100996
v -0.34439093 -0.25918114 0.73100996
v -0.32095093 -0.25913113 0.73105997
v -0.32095093 -0.25918114 0.73100996
v -0.31705093 -0.25918114 0.73100996
v -0.35220093 -0.25913113 0.73105997
v -0.35611093 -0.22786117 0.75835997
v -0.35220093 -0.25918114 0.73100996
v -0.34439093 -0.22786117 0.75835997
v -0.34819797 -0.24299124 0.85026175
v -0.31705093 -0.08336616 0.52789497
v -0.33571935 -0.26849523 0.72037512
v -0.36002094 -0.22786117 0.75835997
v -0.37947574 -0.25777787 -0.54403758
v -0.34032789 -0.28792661 -0.64399201
v -0.37111947 -0.11356880 -0.48663333
v -0.35617140 -0.25040972 -0.00714049
v -0.32486093 -0.25913113 0.73105997
v -0.32486093 -0.25918114 0.73100996
v -0.37873727 -0.18402587 0.77980161
v -0.31306005 -0.24425276 0.74713618
v -0.34439093 -0.22788116 0.75834000
v -0.34049094 -0.22788116 0.75834000
v -0.34049094 -0.22786117 0.75835997
v -0.31314093 -0.22788116 0.75834000
v -0.30924094 -0.22788116 0.75834000
v -0.31314093 -0.22786117 0.75835997
v -0.38095546 -0.22078648 -0.73170102
v -0.26362664 -0.29982689 -0.60788870
v -0.33847952 -0.05465304 0.55034792
v -0.37277442 -0.09600877 0.06895598
v -0.31314093 -0.25918114 0.73100996
v -0.31705093 -0.25913113 0.73105997
v -0.32877094 -0.25918114 0.73100996
v -0.25796160 -0.28571045 -0.52276421
v -0.31938821 -0.16748722 -0.59922570
v -0.35974094 -0.05601115 0.35210997
v -0.31704843 -0.21592678 0.76643813
v -0.33658093 -0.22786117 0.75835997
v -0.38290107 -0.12778497 0.47779769
v -0.31314093 -0.25913113 0.73105997
v -0.21790347 -0.25256109 0.46492258
v -0.30836192 -0.18225300 -0.71555096
v -0.33658093 -0.25918114 0.73100996
v -0.35747093 -0.11287542 0.51609159
v -0.35262173 -0.03169332 0.34251615
v -0.38671613 -0.02992436 -0.61473465
v -0.35613093 -0.04429116 0.35210997
v -0.35611093 -0.04429116 0.35600996
v -0.35612324 -0.04420746 0.34817439
v -0.35611093 -0.04417116 0.34819996
v -0.36520696 -0.07148347 0.34246975
v -0.35611093 -0.04428115 0.35600996
v -0.35366899 -0.03520053 0.37662452
v -0.33314821 -0.07488387 0.53282237
v -0.35611093 -0.04422115 0.35210997
v -0.35494095 -0.04038116 0.34819996
v -0.37897027 -0.02841900 0.64689565
v -0.31705093 -0.08723115 -0.69866002
v -0.31903359 -0.09575887 -0.70346057
v -0.31314093 -0.08726116 -0.69868004
v -0.34027797 -0.02694167 -0.62158179
v -0.28580093 -0.02475116 -0.60491002
v -0.28580093 -0.02476116 -0.60495001
v -0.28189093 -0.02476116 -0.60495001
v -0.35621989 0.05600296 -0.16001597
v -0.29792541 -0.08105316 0.52885926
v -0.34002507 -0.07806137 -0.69395810
v -0.33267093 -0.28648114 -0.64786005
v -0.33658093 -0.28648114 -0.64786005
v -0.30924094 -0.08726116 -0.69868004
v -0.31314093 -0.08723115 -0.69866002
v -0.31314093 -0.02476116 -0.60495001
v -0.30142093 -0.07163116 0.53565997
v -0.28775093 -0.06772115 -0.49945003
v -0.32486093 -0.02476116 -0.60495001
v -0.32095093 -0.02476116 -0.60495001
v -0.32486093 -0.02475116 -0.60491002
v -0.34956285 -0.24635826 0.74545693
v -0.31314093 -0.02475116 -0.60491002
v -0.31823489 0.08886623 0.25466084
v -0.37350050 -0.20049638 -0.48261896
v -0.33658093 -0.22788116 0.75834000
v -0.33267093 -0.22788116 0.75834000
v -0.29296422 -0.24668992 0.74510944
v -0.33267093 -0.25918114 0.73100996
v -0.32095093 -0.08335115 0.52789998
v -0.32486093 -0.08335115 0.52789998
v -0.33658093 -0.25913113 0.73105997
v -0.31615844 -0.22627144 -0.50126791
v -0.25208712 -0.22901487 -0.50328749
v -0.31705093 -0.22786117 0.75835997
v -0.32095093 -0.22786117 0.75835997
v -0.32095093 -0.22788116 0.75834000
v -0.31705093 -0.22788116 0.75834000
v -0.33267093 -0.25913113 0.73105997
v -0.32877094 -0.25913113 0.73105997
v -0.30924094 -0.25918114 0.73100996
v -0.30924094 -0.25913113 0.73105997
v -0.30142093 -0.22786117 0.75835997
v -0.29752094 -0.22786117 0.75835997
v -0.32877094 -0.22786117 0.75835997
v -0.32486093 -0.22786117 0.75835997
v -0.23699038 -0.25733104 -0.73500633
v -0.29361093 -0.22406116 -0.49945003
v -0.29752094 -0.22406116 -0.49945003
v -0.30142093 -0.22398116 -0.49939004
v -0.30533093 -0.22398116 -0.49939004
v -0.30059966 -0.25915447 0.73103642
v -0.32877094 -0.22788116 0.75834000
v -0.32486093 -0.22788116 0.75834000
v -0.28189093 -0.22786117 0.75835997
v -0.30142093 -0.25918114 0.73100996
v -0.30924094 -0.22786117 0.75835997
v -0.33267093 -0.22786117 0.75835997
v -0.30924094 -0.08723115 -0.69866002
v -0.30533093 -0.08723115 -0.69866002
v -0.30533093 -0.08726116 -0.69868004
v -0.25390151 -0.21127488 -0.46810377
v -0.33110422 -0.23681611 -0.51262498
v -0.30369335 -0.09607672 0.53514701
v -0.30533093 -0.22788116 0.75834000
v -0.26210639 -0.14082797 0.76198357
v -0.29361093 -0.08726116 -0.69868004
v -0.28970093 -0.08726116 -0.69868004
v -0.33768278 -0.13958283 0.62416887
v -0.29284066 -0.10405197 0.51742041
v -0.29752094 -0.08723115 -0.69866002
v -0.29361093 -0.08723115 -0.69866002
v -0.24814017 0.22764264 -0.51506162
v -0.27593878 -0.07506935 -0.49274611
v -0.36314687 0.01389488 0.41268644
v -0.31124908 -0.04399596 0.69110310
v -0.30142093 -0.08726116 -0.69868004
v -0.30142093 -0.08723115 -0.69866002
v -0.29752094 -0.08726116 -0.69868004
v -0.32877094 -0.02475116 -0.60491002
v -0.25844094 -0.29429114 -0.60101002
v -0.25845093 -0.29430115 -0.60491002
v -0.25845093 -0.29429114 -0.60491002
v -0.30215657 -0.02665116 -0.62054002
v -0.31705093 -0.07158116 0.53569996
v -0.30924094 -0.07158116 0.53569996
v -0.32037154 -0.07138254 0.55102295
v -0.30924094 -0.02476116 -0.60495001
v -0.30924094 -0.02475116 -0.60491002
v -0.30533093 -0.02476116 -0.60495001
v -0.26627094 -0.06773115 -0.49944004
v -0.26236093 -0.06773115 -0.49944004
v -0.26236093 -0.05992116 0.51966995
v -0.26627094 -0.06380116 0.51616997
v -0.30533093 -0.07163116 0.53565997
v -0.29002929 -0.22142288 -0.49755782
v -0.30533093 -0.02475116 -0.60491002
v -0.30142093 -0.02475116 -0.60491002
v -0.30142093 -0.02476116 -0.60495001
v -0.29752094 -0.02476116 -0.60495001
v -0.29361093 -0.02475116 -0.60491002
v -0.28970093 -0.02475116 -0.60491002
v -0.29752094 -0.02475116 -0.60491002
v -0.26880640 -0.24443009 0.74626893
v -0.30853966 0.12242804 -0.80068445
v -0.29617465 -0.07116716 0.55176431
v -0.28189093 -0.06772115 -0.49945003
v -0.27799094 -0.06773115 -0.49944004
v -0.31705093 0.09554884 0.23100996
v -0.31314093 0.09239884 0.23100996
v -0.31984851 0.09741493 0.16363890
v -0.31314093 0.09243884 0.23100996
v -0.31313094 0.09241885 0.23100996
v -0.31314093 0.09248884 0.23491995
v -0.31314093 0.09256884 0.23882996
v -0.31269380 -0.08001439 -0.69486260
v -0.28772965 -0.02330628 -0.59291404
v -0.25845093 -0.06773115 -0.49944004
v -0.26236093 -0.06772115 -0.49945003
v -0.25845093 -0.06772115 -0.49945003
v -0.27799094 -0.06772115 -0.49945003
v -0.30411983 0.11687540 0.23525254
v -0.25325629 -0.04478092 -0.52302355
v -0.23762488 -0.02650202 -0.66152394
v -0.25836200 -0.07195564 -0.49583754
v -0.31311095 0.09241885 0.23491995
v -0.25135043 -0.27958700 -0.57980114
v -0.30533093 -0.25918114 0.73100996
v -0.29752094 -0.22788116 0.75834000
v -0.30533093 -0.25913113 0.73105997
v -0.28778443 -0.22751203 -0.50263125
v -0.24176471 -0.16795446 -0.74229985
v -0.29361093 -0.22788116 0.75834000
v -0.28970093 -0.22788116 0.75834000
v -0.28580093 -0.22788116 0.75834000
v -0.30142093 -0.22788116 0.75834000
v -0.30533093 -0.22786117 0.75835997
v -0.28970093 -0.22786117 0.75835997
v -0.28580093 -0.22786117 0.75835997
v -0.25845093 -0.29429114 -0.60882002
v -0.28189093 -0.22788116 0.75834000
v -0.27799094 -0.22788116 0.75834000
v -0.29361093 -0.22786117 0.75835997
v -0.27799094 -0.22786117 0.75835997
v -0.21650088 -0.14510536 0.63617980
v -0.30646405 -0.13019121 0.90939617
v -0.25979200 -0.06077899 0.53033948
v -0.34875023 -0.07023594 -0.49672437
v -0.27408093 -0.06772115 -0.49945003
v -0.25989994 -0.03785133 0.55690837
v -0.28970093 -0.02476116 -0.60495001
v -0.24293803 -0.08695979 0.76359975
v -0.20432465 -0.12941858 0.94200629
v -0.29361093 -0.02476116 -0.60495001
v -0.27017093 -0.06773115 -0.49944004
v -0.27408093 -0.06773115 -0.49944004
v -0.34661323 -0.06708291 0.72733563
v -0.25845093 -0.07163116 -0.49611002
v -0.36848313 -0.06018128 0.55598265
v -0.31087437 -0.16038865 0.64500970
v -0.21984822 -0.05590313 0.52295107
v -0.25205541 -0.07202820 -0.49439877
v -0.25843933 -0.29429424 -0.60883385
v -0.26953581 -0.27361789 0.71286243
v -0.27017093 -0.22614115 0.75835997
v -0.27408093 -0.23179115 0.75567997
v -0.27408093 -0.22788116 0.75834000
v -0.27017093 -0.22788116 0.75698996
v -0.27408132 -0.22780082 0.75840253
v -0.27026051 -0.19913739 0.77413940
v -0.26898119 -0.23206311 0.75327814
v -0.28306973 -0.18047795 -0.90235627
v -0.23777765 -0.10777039 -0.45489645
v -0.31830820 -0.11224765 -0.58368063
v -0.25235841 -0.02135433 -0.58983392
v -0.26236093 -0.06382115 0.51615000
v -0.26626769 0.19403520 -0.30839905
v -0.27017093 -0.06772115 -0.49945003
v -0.26236093 -0.06380116 0.51616997
v -0.25845093 -0.06382115 0.51615000
v -0.26628244 -0.06381581 0.51616448
v -0.26627094 -0.06772115 -0.49945003
v -0.21461789 -0.24911806 -0.43802571
v -0.05523640 0.05557824 0.78326291
v -0.23825271 -0.02156581 -0.53608727
v -0.24646527 0.20100513 -0.86878639
v -0.24510591 0.23350818 -0.20359446
v -0.25064093 0.22522885 -0.17827004
v -0.25528595 0.21848217 -0.17047235
v -0.24653563 0.23107661 -0.18147941
v -0.25064093 0.22534885 -0.18304004
v -0.25066093 0.22522885 -0.17913005
v -0.25064093 0.22524884 -0.17913005
v -0.25072634 0.22524831 -0.18354639
v -0.21533826 -0.25398111 0.79573524
v -0.22178048 -0.16765045 -0.60244560
v -0.16377768 -0.19986297 -0.93211639
v -0.30398327 -0.02701571 -0.92327273
v -0.22252665 -0.00619076 0.64301789
v -0.28816628 0.07339536 0.63080537
v -0.26997635 0.12130440 -0.88111579
v -0.20409121 0.28894138 -0.24246873
v -0.22003821 0.20141041 0.17307219
v -0.09720988 -0.25009716 -0.76473653
v -0.07626954 0.14999852 -0.93650991
v -0.12272196 -0.22340645 -0.87802744
v -0.26086465 -0.13049918 0.47914937
v -0.07486095 -0.23570114 -0.81976002
v -0.07095095 -0.23675115 -0.81585002
v -0.07877094 -0.23570114 -0.81976002
v -0.09049095 -0.23355116 -0.82757002
v -0.05934595 -0.22524178 -0.85872585
v -0.07095095 -0.23570114 -0.81976002
v -0.06705094 -0.23570114 -0.81976002
v 0.05403905 -0.23570114 -0.81978005
v -0.07095095 -0.23570114 -0.81978005
v -0.06705094 -0.23570114 -0.81978005
v -0.06796353 -0.11943714 0.97339344
v -0.06314095 -0.23570114 -0.81976002
v 0.00024373 -0.21729918 -0.89106727
v -0.09439095 -0.23570114 -0.81972003
v -0.09830094 -0.23569116 -0.81976002
v -0.07486095 -0.23570114 -0.81978005
v -0.07877094 -0.23570114 -0.81978005
v -0.07486095 -0.23463117 -0.82366002
v -0.11144786 -0.20381689 -0.91713381
v -0.09049036 -0.23569538 -0.81975573
v -0.09049095 -0.23570114 -0.81975001
v -0.09439095 -0.23569116 -0.81976002
v -0.08267094 -0.23570114 -0.81976002
v -0.08658095 -0.23570114 -0.81976002
v -0.08658095 -0.23675115 -0.81585002
v -0.07095095 0.21746884 0.15679996
v -0.08254375 0.25848445 0.07367165
v -0.06314095 -0.23570114 -0.81978005
v -0.08267094 -0.23570114 -0.81978005
v -0.08658095 -0.23570114 -0.81978005
v -0.07404094 0.21741883 0.15679996
v -0.07486095 0.22116885 0.14897996
v -0.06705094 0.22132884 0.14895996
v -0.07095095 0.22132884 0.14881995
v -0.22326832 -0.20275830 0.90187252
v -0.05924095 -0.23570114 -0.81978005
v -0.05924095 -0.23570114 -0.81976002
v -0.03580095 -0.23570114 -0.81984001
v -0.06705094 -0.23880117 -0.80804002
v -0.05142095 -0.23570114 -0.81978005
v -0.05533094 -0.23570114 -0.81978005
v -0.05533094 -0.23570114 -0.81976002
v -0.05142095 -0.23570114 -0.81976002
v -0.05526312 0.21435423 0.16403617
v -0.07095095 0.21741883 0.15690996
v -0.05533094 -0.23675115 -0.81585002
v -0.06705085 0.22131747 0.14897107
v -0.06259426 0.22533348 0.14080903
v -0.29734170 0.10315792 0.34055275
v -0.03970095 -0.23572116 -0.81976002
v -0.03970095 -0.23570114 -0.81984001
v -0.03580095 -0.23572116 -0.81976002
v -0.04752094 -0.23570114 -0.81978005
v -0.03970095 -0.23777115 -0.81195003
v -0.04752094 -0.23570114 -0.81976002
v 0.00355082 -0.23571573 -0.81981355
v -0.00882231 -0.24010389 -0.80305421
v -0.04361095 -0.23570114 -0.81983000
v -0.00455095 -0.23572116 -0.81976002
v -0.00845095 -0.23572116 -0.81976002
v -0.00845095 -0.23570114 -0.81984001
v -0.04361095 -0.23572116 -0.81976002
v -0.02017095 -0.23570114 -0.81984001
v -0.02408095 -0.23570114 -0.81984001
v -0.02799095 -0.23572116 -0.81976002
v -0.02799095 -0.23570114 -0.81984001
v -0.03189095 -0.23570114 -0.81984001
v -0.03189095 -0.23572116 -0.81976002
v -0.02408095 -0.23572116 -0.81976002
v -0.03518887 -0.02661974 0.96605301
v -0.00179200 -0.23478229 -0.82332742
v -0.06372528 -0.25219092 -0.75521147
v -0.01627095 -0.23572116 -0.81976002
v -0.02017095 -0.23572116 -0.81976002
v -0.01627095 -0.23570114 -0.81984001
v -0.00064095 -0.23572116 -0.81976002
v -0.01236095 -0.23572116 -0.81976002
v -0.01236095 -0.23570114 -0.81984001
v -0.00064095 -0.23570114 -0.81985003
v 0.00325905 -0.23570114 -0.81991005
v -0.00455095 -0.23570114 -0.81984001
v -0.00460383 -0.17992492 -0.94724345
v 0.02940788 -0.15417057 -0.96381706
v 0.10138311 0.29193828 -0.07747716
v 0.26496905 -0.23184116 -0.73773003
v 0.03059905 -0.23570114 -0.81984001
v 0.03002451 -0.24862698 -0.77041054
v 0.02668905 -0.23570114 -0.81984001
v 0.03059905 -0.23572116 -0.81976002
v 0.03450905 -0.23570114 -0.81984001
v 0.03450905 -0.23572116 -0.81976002
v 0.12849984 -0.21804370 -0.89459264
v 0.03840905 -0.23572116 -0.81976002
v 0.06184905 -0.23570114 -0.81978005
v 0.24040170 -0.16326290 -0.43920887
v 0.03840905 -0.23570114 -0.81984001
v 0.04231905 -0.23572116 -0.81976002
v 0.22584438 0.20808451 -0.88537264
v 0.03450905 0.29796886 -0.10882004
v 0.05793905 -0.23570114 -0.81978005
v 0.05793905 -0.23570114 -0.81976002
v 0.05403905 -0.23570114 -0.81976002
v 0.06184905 -0.23570114 -0.81976002
v 0.06575905 -0.23570114 -0.81978005
v 0.06575905 -0.23570114 -0.81976002
v 0.06575905 0.29724884 -0.10882004
v -0.20582043 0.28867465 -0.07227245
v 0.06761039 -0.11268192 0.97063857
v 0.12825905 0.01041884 0.86772996
v 0.13215905 0.01040884 0.86772996
v 0.00217375 -0.21923146 0.96141398
v 0.05012905 -0.23572116 -0.81976002
v 0.04212464 -0.23403683 -0.82610768
v 0.07356905 -0.23570114 -0.81978005
v 0.08922764 -0.22532305 -0.85759550
v 0.06965905 -0.23570114 -0.81976002
v 0.06965905 -0.23570114 -0.81978005
v 0.07356905 -0.23570114 -0.81976002
v 0.07746906 -0.23570114 -0.81978005
v 0.07551552 -0.24855445 -0.77117431
v 0.37142920 -0.14778626 0.50201994
v 0.05667794 0.29745731 -0.10880019
v 0.08137905 -0.23570114 -0.81976002
v 0.07746906 -0.23570114 -0.81976002
v 0.08137905 -0.23570114 -0.81978005
v 0.26989087 -0.29695970 0.62841976
v 0.22347264 -0.24987377 -0.73609728
v 0.25715905 -0.23184116 -0.73773003
v 0.06938093 0.11699606 0.36081886
v 0.22022770 -0.25528309 0.46292582
v 0.08528905 -0.23570114 -0.81978005
v 0.08528905 -0.23570114 -0.81976002
v 0.08918905 -0.23570114 -0.81978005
v 0.11532418 0.00481844 0.88226432
v 0.17498147 0.02196233 0.83880049
v 0.13606904 0.00881884 0.87163997
v 0.12482618 0.03233758 0.82294393
v 0.27590951 0.14686005 -0.87645864
v 0.27278906 0.19398884 -0.30413002
v 0.26887906 0.20023884 -0.30804005
v 0.27278906 0.19397885 -0.30352005
v 0.27278906 0.19397885 -0.30413002
v 0.27743998 0.18655100 -0.30030841
v 0.09754010 0.29961380 -0.22061436
v 0.09647901 0.29654518 -0.10884303
v 0.09853217 0.29632288 -0.10742620
v 0.09700905 0.29652885 -0.10882004
v 0.10505376 0.29598498 -0.10878971
v 0.22827952 -0.20226559 -0.74392730
v 0.13215905 0.01038884 0.86778998
v 0.12825905 0.01038884 0.86780995
v 0.13272521 -0.02311851 0.93561715
v 0.25437528 -0.22917455 -0.49935722
v 0.21138836 -0.18154541 -0.94413346
v 0.12434906 0.01042884 0.86772996
v 0.13606904 0.01039884 0.86772996
v 0.13606904 0.01038884 0.86776996
v 0.13996907 0.01038884 0.86787999
v 0.31145018 -0.11700209 -0.71241266
v 0.24781878 -0.08240933 -0.70757753
v 0.30263123 -0.26948088 0.71952254
v 0.22835051 0.26260647 -0.44201276
v 0.21709843 0.28356534 -0.18093118
v 0.37152860 -0.12203087 0.10112356
v 0.21756057 -0.21138407 0.90506750
v 0.24202280 -0.23179115 -0.73773003
v 0.16614988 -0.02643227 -0.95532465
v 0.27598378 -0.19344164 0.77673787
v 0.22295621 -0.24895285 -0.43896320
v 0.26423630 -0.13540202 0.93002766
v 0.25325906 -0.23179115 -0.73773003
v 0.25715905 -0.23179115 -0.73773003
v 0.31167048 0.01706957 0.82151276
v 0.24934904 -0.23179115 -0.73773003
v 0.27115527 -0.09676854 0.52097458
v 0.28840905 -0.08335115 0.52789998
v 0.21136409 0.28624108 -0.10812030
v 0.26433030 -0.24742107 -0.73474002
v 0.23222651 0.25303829 0.06945135
v 0.32255042 -0.24114561 0.91009295
v 0.31653538 0.10516539 0.25519496
v 0.22448787 -0.00272897 0.57631898
v 0.26934820 0.04968787 -0.90561646
v 0.38498631 0.16231078 0.19258316
v 0.31041107 0.12798338 -0.28072712
v 0.28790203 -0.11377771 -0.92266566
v 0.26106906 -0.23179115 -0.73773003
v 0.26106906 -0.23184116 -0.73773003
v 0.12664658 -0.25167909 -0.75561482
v -0.00224671 0.26784772 -0.50471628
v 0.31965905 -0.16929115 0.46927997
v 0.32356906 -0.16921116 0.46929997
v 0.23350482 -0.17516755 -0.60677356
v 0.24094392 -0.01894430 -0.59543425
v 0.27281907 0.19397885 -0.30804005
v 0.30515045 -0.25029773 -0.73616058
v 0.27282295 0.19404782 -0.31353319
v 0.26616487 0.12953511 -0.78339541
v 0.27284905 0.19397885 -0.31195003
v 0.27278906 0.19403884 -0.30804005
v 0.37434906 -0.09490115 0.09819996
v 0.37432563 -0.09502004 0.10189796
v 0.31704023 0.11656359 -0.12146859
v 0.30793905 -0.25918114 0.73100996
v 0.30403906 -0.25918114 0.73100996
v 0.29231906 -0.22788116 0.75834000
v 0.29509056 -0.18395127 0.86469829
v 0.29621905 -0.25913113 0.73105997
v 0.30012906 -0.25918114 0.73100996
v 0.30012906 -0.25913113 0.73105997
v 0.29608494 -0.25915951 0.73103172
v 0.29621905 -0.22788116 0.75834000
v 0.29231906 -0.22786117 0.75835997
v 0.29621905 -0.22786117 0.75835997
v 0.30403906 -0.25913113 0.73105997
v 0.30793905 -0.25913113 0.73105997
v 0.30544958 -0.22779433 -0.84877914
v 0.30403906 -0.22788116 0.75834000
v 0.30403906 -0.22786117 0.75835997
v 0.30012906 -0.22786117 0.75835997
v 0.31184906 -0.22788116 0.75834000
v 0.30793905 -0.22786117 0.75835997
v 0.30793905 -0.22788116 0.75834000
v 0.22604500 -0.15384038 0.62928778
v 0.31184906 -0.22786117 0.75835997
v 0.31575906 -0.22786117 0.75835997
v 0.31184906 -0.25913113 0.73105997
v 0.31575906 -0.25913113 0.73105997
v 0.31575906 -0.25918114 0.73100996
v 0.31184906 -0.25918114 0.73100996
v 0.28840905 -0.22786117 0.75835997
v 0.31639236 -0.16784066 0.63179350
v 0.31350526 -0.24548887 0.74625164
v 0.30012906 -0.22788116 0.75834000
v 0.22382800 -0.24880192 0.80476815
v 0.29231906 -0.08338116 0.52788997
v 0.29231906 -0.08335115 0.52789998
v 0.31184906 -0.08338116 0.52788997
v 0.25082168 -0.08123658 0.75985020
v 0.30012906 -0.02475116 -0.60491002
v 0.30403906 -0.02476116 -0.60496002
v 0.30403906 -0.02475116 -0.60491002
v 0.25813231 0.21719179 -0.30026111
v 0.31575906 -0.22788116 0.75834000
v 0.31965905 -0.22788116 0.75834000
v 0.31591752 -0.20520352 0.53966635
v 0.41395202 0.11851810 0.15926713
v 0.30403906 -0.08338116 0.52788997
v 0.33137906 -0.16924116 0.46929997
v 0.33528906 -0.16926114 0.46929997
v 0.34700406 -0.23570114 0.75300997
v 0.33918905 -0.22788116 0.75834000
v 0.33528906 -0.22788116 0.75834000
v 0.32746905 -0.25918114 0.73100996
v 0.34619704 -0.25556448 0.73490030
v 0.32356906 -0.22788116 0.75834000
v 0.36213565 -0.25132164 0.12885672
v 0.31811810 -0.24590281 -0.63040566
v 0.38742888 -0.26229778 0.73057413
v 0.26125714 -0.27635291 -0.67065710
v 0.31965905 -0.25913113 0.73105997
v 0.32356906 -0.25918114 0.73100996
v 0.32356906 -0.25913113 0.73105997
v 0.34527352 -0.21615525 0.76632756
v 0.38013917 -0.27221873 -0.64840049
v 0.31965905 -0.25918114 0.73100996
v 0.37007156 -0.18484895 -0.73547620
v 0.29358402 -0.07754785 -0.69312739
v 0.31484020 -0.10304505 0.51791757
v 0.30793905 -0.08335115 0.52789998
v 0.30793905 -0.08338116 0.52788997
v 0.30525634 -0.18111084 0.46697974
v 0.36761644 -0.25332913 0.46446297
v 0.29621905 -0.08338116 0.52788997
v 0.32853049 -0.16071285 -0.61064786
v 0.31775659 -0.15276861 -0.58769017
v 0.30012906 -0.08335115 0.52789998
v 0.30012906 -0.08338116 0.52788997
v 0.26754186 -0.04043714 0.54975653
v 0.30403906 -0.08335115 0.52789998
v 0.29621905 -0.08335115 0.52789998
v 0.37321508 -0.08463804 -0.69490391
v 0.29436487 -0.08724833 -0.69867116
v 0.29622406 -0.02570116 -0.61273003
v 0.31788588 -0.07264683 0.55246228
v 0.33137906 -0.22786117 0.75835997
v 0.31188288 -0.12226819 -0.70281166
v 0.25523669 -0.07172357 -0.49101985
v 0.35740823 -0.05369755 -0.51240420
v 0.38822800 -0.05179957 0.55093122
v 0.31280574 -0.21457383 0.76730943
v 0.30793905 -0.02476116 -0.60496002
v 0.31575906 -0.02475116 -0.60491002
v 0.31965905 -0.02476116 -0.60496002
v 0.30793905 -0.02475116 -0.60491002
v 0.34009400 0.11212932 -0.56175220
v 0.25854737 -0.02014662 -0.57602245
v 0.31966686 -0.02475204 -0.60491091
v 0.31881702 0.09701037 0.21320732
v 0.37434906 -0.09507115 0.08824996
v 0.38871068 -0.30364722 -0.59299839
v 0.35899854 -0.25283977 0.15531372
v 0.32390553 0.10943456 -0.78555626
v 0.29117405 0.16494317 -0.31194693
v 0.33528906 -0.22786117 0.75835997
v 0.36501640 -0.23696491 -0.51324683
v 0.37376428 -0.20179836 0.46510524
v 0.33528906 -0.16929115 0.46928996
v 0.33137906 -0.16929115 0.46928996
v 0.32356906 -0.16929115 0.46927997
v 0.32746905 -0.16929115 0.46927997
v 0.32746905 -0.16923116 0.46929997
v 0.32746905 -0.22788116 0.75834000
v 0.33137906 -0.22788116 0.75834000
v 0.34309906 -0.22786117 0.75835997
v 0.34700906 -0.22788116 0.75834000
v 0.34700906 -0.22786117 0.75835997
v 0.37769288 -0.24779718 0.79654682
v 0.31965905 -0.22786117 0.75835997
v 0.32356906 -0.22786117 0.75835997
v 0.33918905 -0.16928115 0.46929997
v 0.32746905 -0.22786117 0.75835997
v 0.34309906 -0.22788116 0.75834000
v 0.33918905 -0.22786117 0.75835997
v 0.26974878 -0.21866187 0.73754150
v 0.39141738 -0.20147017 0.76049465
v 0.35481906 -0.22786117 0.75835997
v 0.38387248 -0.21735114 -0.55920416
v 0.25539523 -0.12626764 0.48148239
v 0.36040774 -0.11119377 -0.65568858
v 0.33161420 -0.07823906 0.53002989
v 0.36261907 -0.25132114 0.15288995
v 0.36262906 -0.25124115 0.14897996
v 0.36262906 -0.25131115 0.15288995
v 0.36253905 -0.25132114 0.14897996
v 0.31534439 -0.10422361 0.65478265
v 0.37613013 -0.04846284 0.64753008
v 0.36494040 -0.24614131 0.15138160
v 0.31575906 -0.02476116 -0.60496002
v 0.31608593 -0.03886646 -0.57289398
v 0.38469219 -0.07868802 0.72886455
v 0.36167911 -0.25262493 0.16924937
v 0.29608098 0.07748719 0.61095351
v 0.36126336 -0.04954802 0.31805348
v 0.35396701 -0.03135276 -0.64507055
v 0.31184906 -0.02476116 -0.60496002
v 0.30935520 -0.02333169 -0.59319323
v 0.32746905 -0.02475116 -0.60491002
v 0.37552986 0.01403852 -0.51550961
v 0.36971167 -0.10025696 -0.48385563
v 0.36237699 -0.25132114 0.14090225
v 0.36262906 -0.25116116 0.14507996
v 0.39368570 -0.25662217 0.55203736
v 0.35771763 -0.24887961 -0.43244225
v 0.37434906 -0.09497115 0.09429996
v 0.37434906 -0.09503115 0.09038996
v 0.37515905 -0.08726116 0.09038996
v 0.36073941 -0.25122339 0.00600143
v 0.36262906 -0.25132114 0.15320995
v 0.36827251 -0.23997217 0.15636334
v 0.20274732 -0.25374228 0.30906713
v 0.34954438 -0.26734284 0.72220021
v 0.35871905 -0.22788116 0.75834000
v 0.35481906 -0.22788116 0.75834000
v 0.35910669 -0.21478395 -0.55604583
v 0.39288136 -0.22754024 -0.50922805
v 0.35900232 -0.18786079 -0.15629256
v 0.35932580 -0.20184289 0.15068917
v 0.32967910 -0.15055931 0.47294289
v 0.35090905 -0.22788116 0.75834000
v 0.35090905 -0.22786117 0.75835997
v 0.35034597 -0.14195156 -0.59120095
v 0.36374700 -0.24184602 0.39929622
v 0.37570927 -0.24928457 0.57030797
v 0.34692284 -0.14312460 0.62134677
v 0.36687580 -0.13472772 0.72793502
v 0.38049275 -0.18279418 -0.45544440
v 0.37433907 -0.09507115 0.09429996
v 0.37421051 -0.03810509 0.06132544
v 0.37006339 -0.10059365 0.55953002
v 0.38939112 -0.12087409 0.79065114
v 0.37432906 -0.09507115 0.09819996
v 0.37433907 -0.09507115 0.09038996
v 0.37514216 -0.08683869 0.09719826
v 0.37292916 -0.12791744 0.22524713
v 0.36689582 0.01112407 0.15610735
v 0.38234752 -0.03275163 -0.57355386
v 0.37227640 0.04267880 -0.26999220
v 0.35445324 -0.15357125 -0.36988163
v 0.38931119 -0.11467867 0.48112178
v 0.37047487 0.01609858 0.47736457
v 0.39563063 -0.06929494 -0.45979157
v 0.38301039 -0.08425535 -0.74112082
v 0.31184906 -0.02475116 -0.60491002
v 0.30012906 -0.02476116 -0.60496002
v 0.36705324 0.04086495 -0.03614124
v 0.38226101 -0.21447091 -0.66988879
v 0.37451658 -0.24381135 0.68623728
v 0.39357358 -0.00649348 -0.65835458
v 0.39723498 -0.01639192 0.70168120
f 8 19 9
f 7 10 11
f 13 70 14
f 5 7 12
f 83 2 69
f 137 69 29
f 17 18 70
f 20 21 22
f 3 16 83
f 23 24 25
f 75 33 12
f 27 18 28
f 4 100 271
f 95 4 271
f 33 75 34
f 10 67 31
f 95 271 100
f 18 17 28
f 32 28 17
f 33 34 113
f 271 95 100
f 32 17 1
f 36 37 38
f 41 42 43
f 23 31 24
f 44 14 6
f 70 2 14
f 32 46 26
f 46 44 26
f 70 18 47
f 69 2 70
f 17 70 1
f 44 46 13
f 1 13 46
f 14 2 6
f 26 28 32
f 44 6 26
f 27 47 18
f 48 47 27
f 26 48 27
f 2 83 26
f 2 26 6
f 26 27 28
f 70 13 1
f 11 49 134
f 83 69 3
f 44 13 14
f 32 1 46
f 5 4 15
f 53 54 55
f 56 67 57
f 52 4 5
f 58 59 60
f 25 61 134
f 49 31 23
f 20 9 21
f 75 62 20
f 63 67 56
f 63 24 67
f 23 25 134
f 75 22 64
f 49 23 134
f 56 50 61
f 50 56 57
f 49 10 31
f 56 61 63
f 54 53 57
f 61 25 63
f 67 54 57
f 7 5 67
f 50 57 53
f 50 53 134
f 10 49 11
f 68 19 8
f 53 55 134
f 31 67 24
f 12 11 134
f 12 7 11
f 7 67 10
f 24 63 25
f 61 50 134
f 319 15 4
f 73 74 59
f 62 8 9
f 68 8 62
f 9 19 21
f 75 12 68
f 12 134 19
f 12 19 68
f 68 62 75
f 77 78 64
f 79 75 64
f 62 9 20
f 22 75 20
f 22 77 64
f 77 21 19
f 78 79 64
f 77 19 78
f 21 77 22
f 80 81 82
f 52 4 181
f 272 181 5
f 272 5 181
f 60 87 88
f 89 67 74
f 181 4 52
f 5 12 33
f 3 51 16
f 4 95 319
f 75 94 93
f 91 286 30
f 286 91 71
f 71 137 29
f 96 88 87
f 272 33 181
f 54 67 99
f 66 100 182
f 66 182 122
f 16 30 102
f 29 35 71
f 103 107 104
f 105 103 106
f 92 107 95
f 92 95 108
f 104 92 108
f 271 187 95
f 113 187 271
f 286 102 39
f 71 102 286
f 71 286 39
f 35 102 71
f 111 108 109
f 104 108 111
f 95 109 108
f 101 107 105
f 101 105 112
f 112 106 109
f 106 111 109
f 105 107 103
f 107 92 104
f 103 104 111
f 106 103 111
f 112 109 101
f 105 106 112
f 110 122 42
f 33 113 269
f 15 52 5
f 114 115 116
f 118 119 120
f 119 196 120
f 66 122 110
f 116 126 127
f 109 187 101
f 109 95 187
f 113 34 312
f 131 117 132
f 133 132 36
f 71 39 260
f 223 121 187
f 121 101 187
f 47 125 70
f 3 69 51
f 138 76 139
f 124 70 125
f 26 124 125
f 141 67 89
f 70 124 84
f 84 124 26
f 125 48 26
f 47 48 125
f 78 19 138
f 88 96 140
f 100 142 143
f 84 69 70
f 144 55 99
f 5 15 67
f 51 84 26
f 69 137 145
f 174 69 90
f 175 69 145
f 82 93 147
f 52 15 4
f 148 149 150
f 151 152 134
f 152 151 89
f 58 88 140
f 55 144 134
f 67 153 87
f 99 55 54
f 5 33 15
f 141 144 99
f 153 96 87
f 141 151 144
f 67 87 60
f 152 73 134
f 74 73 152
f 99 67 141
f 96 153 154
f 134 76 19
f 74 152 89
f 141 89 151
f 144 151 134
f 73 58 140
f 58 60 88
f 134 73 140
f 59 67 60
f 93 155 156
f 73 59 58
f 157 158 93
f 94 75 79
f 74 67 59
f 148 147 93
f 19 76 138
f 160 243 161
f 51 26 83
f 29 69 174
f 162 163 208
f 45 97 95
f 137 174 208
f 158 149 148
f 94 138 139
f 139 76 165
f 93 158 148
f 149 158 166
f 76 81 80
f 147 80 82
f 157 165 166
f 149 76 150
f 140 76 134
f 79 138 94
f 148 150 147
f 157 166 158
f 81 169 82
f 165 170 139
f 150 76 80
f 94 139 170
f 79 78 138
f 170 165 157
f 166 76 149
f 94 170 93
f 157 93 170
f 165 76 166
f 147 150 80
f 82 169 93
f 65 34 307
f 83 16 244
f 51 83 244
f 69 175 239
f 95 97 319
f 181 52 272
f 93 282 75
f 16 159 244
f 228 171 172
f 171 173 172
f 272 52 181
f 307 34 264
f 258 34 65
f 123 114 127
f 114 116 127
f 179 115 180
f 286 71 91
f 95 107 45
f 33 272 181
f 34 75 264
f 269 178 33
f 115 30 16
f 30 115 123
f 91 30 286
f 183 179 184
f 228 183 184
f 100 143 110
f 42 122 43
f 66 142 100
f 271 100 110
f 143 142 110
f 178 269 264
f 173 115 189
f 123 115 114
f 228 123 127
f 115 126 116
f 228 190 183
f 190 191 183
f 126 171 127
f 171 228 127
f 30 123 102
f 228 102 123
f 131 133 192
f 102 236 117
f 193 194 195
f 84 194 193
f 102 117 192
f 142 66 110
f 110 197 85
f 197 110 42
f 197 41 85
f 176 181 199
f 41 43 198
f 271 110 85
f 197 42 41
f 41 198 85
f 16 102 217
f 200 201 135
f 117 131 192
f 102 192 39
f 133 131 132
f 201 200 202
f 200 117 202
f 36 132 37
f 132 117 37
f 203 204 237
f 37 117 128
f 38 37 128
f 39 36 38
f 205 293 206
f 271 85 262
f 198 43 207
f 229 209 210
f 201 202 209
f 192 133 39
f 39 133 36
f 39 38 135
f 38 128 135
f 128 200 135
f 128 117 200
f 211 196 212
f 210 211 212
f 213 214 229
f 186 219 220
f 187 136 223
f 221 40 223
f 222 223 136
f 221 222 224
f 223 222 221
f 226 221 224
f 226 234 221
f 227 234 226
f 187 368 136
f 262 129 122
f 209 211 210
f 230 231 232
f 220 219 233
f 35 121 185
f 243 145 163
f 223 234 121
f 234 40 221
f 223 40 234
f 238 136 227
f 226 238 227
f 225 238 226
f 193 195 239
f 154 153 240
f 90 69 84
f 155 241 156
f 154 240 242
f 96 154 140
f 51 69 239
f 243 163 162
f 137 208 163
f 241 76 245
f 153 67 240
f 140 164 276
f 168 276 164
f 242 164 140
f 177 169 81
f 76 216 246
f 154 242 140
f 240 276 168
f 276 67 15
f 81 76 177
f 242 240 168
f 67 276 240
f 246 216 247
f 245 76 246
f 242 168 164
f 140 276 216
f 241 155 248
f 249 93 169
f 241 248 76
f 249 155 93
f 250 246 247
f 93 250 282
f 250 247 251
f 146 175 243
f 161 243 162
f 145 137 163
f 243 175 145
f 160 161 208
f 146 243 160
f 194 252 195
f 161 162 208
f 160 208 146
f 29 285 295
f 253 254 167
f 177 76 248
f 247 216 253
f 255 245 246
f 249 248 155
f 169 177 249
f 76 140 216
f 253 251 247
f 255 246 250
f 167 282 251
f 156 241 245
f 250 251 282
f 249 177 248
f 156 255 93
f 251 253 167
f 250 93 255
f 156 245 255
f 216 254 253
f 167 254 256
f 167 256 282
f 51 275 84
f 272 181 176
f 189 115 191
f 29 174 285
f 319 100 4
f 100 319 182
f 75 282 264
f 259 122 182
f 176 188 272
f 207 122 129
f 272 188 181
f 184 179 180
f 184 180 228
f 91 98 286
f 190 189 191
f 286 308 91
f 263 196 119
f 214 263 119
f 260 130 186
f 235 130 260
f 43 122 207
f 85 207 129
f 126 115 173
f 171 126 173
f 191 115 179
f 172 190 228
f 189 190 172
f 189 172 173
f 183 191 179
f 130 219 186
f 235 219 130
f 286 98 91
f 212 266 215
f 212 196 266
f 260 39 235
f 71 260 186
f 267 186 268
f 198 207 85
f 85 129 262
f 176 199 218
f 176 218 188
f 262 122 259
f 368 187 113
f 196 202 117
f 287 120 236
f 135 201 229
f 210 212 215
f 201 209 229
f 233 268 220
f 204 230 270
f 224 225 226
f 199 188 218
f 188 199 181
f 239 84 193
f 117 236 196
f 229 210 215
f 217 102 35
f 118 120 287
f 120 196 236
f 39 135 229
f 214 119 118
f 213 263 214
f 229 214 118
f 266 196 263
f 213 266 263
f 266 213 215
f 209 202 211
f 202 196 211
f 215 213 229
f 113 271 311
f 311 269 113
f 136 234 227
f 238 222 136
f 368 113 312
f 225 222 238
f 234 136 368
f 297 274 232
f 239 90 84
f 194 275 252
f 275 194 84
f 195 252 275
f 195 275 239
f 51 239 275
f 239 175 146
f 146 90 239
f 45 86 72
f 282 281 277
f 279 280 277
f 281 279 277
f 256 279 281
f 51 244 16
f 90 146 174
f 276 15 216
f 33 178 15
f 283 277 280
f 15 178 216
f 254 216 278
f 256 254 279
f 282 256 281
f 283 278 216
f 283 216 178
f 254 278 279
f 281 283 280
f 281 278 283
f 279 281 280
f 281 279 278
f 277 283 282
f 309 159 284
f 208 174 146
f 4 15 319
f 97 45 72
f 282 283 178
f 65 354 265
f 16 284 159
f 204 270 237
f 286 91 308
f 137 71 174
f 282 178 264
f 265 258 65
f 244 115 16
f 174 71 285
f 203 267 290
f 237 186 267
f 274 237 270
f 259 182 319
f 291 205 206
f 288 291 206
f 297 232 231
f 259 319 293
f 288 319 292
f 292 273 259
f 236 102 228
f 244 236 180
f 180 115 244
f 228 180 236
f 217 310 16
f 270 232 274
f 230 232 270
f 310 217 313
f 230 204 231
f 204 294 231
f 204 203 294
f 235 231 294
f 220 268 186
f 203 237 267
f 285 186 274
f 274 186 237
f 186 285 71
f 261 233 235
f 319 273 292
f 291 288 292
f 319 288 293
f 259 293 205
f 293 288 206
f 291 292 259
f 205 291 259
f 118 287 229
f 290 235 294
f 290 261 235
f 267 268 261
f 268 233 261
f 231 235 297
f 274 297 285
f 267 261 290
f 203 290 294
f 219 235 233
f 259 273 262
f 311 264 269
f 39 229 287
f 39 297 235
f 297 39 287
f 311 271 262
f 34 296 312
f 313 217 298
f 289 121 314
f 300 301 426
f 121 426 301
f 303 304 305
f 303 306 304
f 301 304 306
f 121 301 299
f 299 301 306
f 305 304 300
f 304 301 300
f 302 306 303
f 86 45 107
f 121 107 101
f 16 310 284
f 273 311 262
f 297 287 236
f 307 264 97
f 389 34 258
f 217 313 298
f 86 107 121
f 35 185 217
f 314 299 426
f 302 299 306
f 300 426 302
f 302 303 305
f 300 302 305
f 314 121 299
f 299 302 426
f 426 234 315
f 35 29 72
f 307 354 65
f 296 34 389
f 317 313 217
f 234 368 315
f 72 86 35
f 97 264 257
f 273 97 257
f 284 310 309
f 354 330 265
f 258 265 389
f 509 217 185
f 346 426 315
f 285 308 295
f 309 316 159
f 320 321 322
f 308 159 295
f 35 86 121
f 309 318 316
f 309 310 402
f 317 310 313
f 325 326 321
f 314 426 509
f 244 159 308
f 391 295 159
f 328 324 329
f 325 328 329
f 307 97 449
f 321 326 331
f 335 336 337
f 335 322 336
f 318 338 323
f 334 316 318
f 339 333 340
f 333 341 340
f 341 339 340
f 334 341 333
f 318 341 334
f 316 334 333
f 339 341 318
f 322 321 316
f 333 339 316
f 342 338 337
f 343 342 344
f 344 342 316
f 323 338 342
f 318 309 338
f 401 338 309
f 330 389 265
f 264 311 257
f 339 343 344
f 322 342 336
f 498 426 346
f 314 185 289
f 509 426 463
f 347 329 324
f 347 326 329
f 320 325 321
f 316 339 344
f 339 340 344
f 340 339 344
f 308 236 244
f 331 326 347
f 343 348 342
f 348 323 342
f 349 323 348
f 343 349 348
f 343 323 349
f 347 321 331
f 339 323 343
f 29 295 72
f 366 350 345
f 351 350 366
f 353 366 352
f 348 342 337
f 336 348 337
f 336 342 348
f 318 323 339
f 325 329 326
f 320 328 325
f 335 337 328
f 320 335 328
f 328 337 324
f 335 320 322
f 331 355 356
f 316 358 391
f 331 347 355
f 347 324 355
f 342 322 316
f 347 331 358
f 316 321 358
f 321 347 358
f 360 324 359
f 361 360 359
f 354 430 330
f 401 309 402
f 361 359 362
f 368 312 448
f 364 363 366
f 356 361 365
f 351 346 315
f 345 352 366
f 353 351 366
f 346 351 353
f 352 366 367
f 315 363 350
f 352 364 366
f 364 352 345
f 351 315 350
f 364 350 363
f 364 345 350
f 498 346 367
f 363 315 368
f 297 308 285
f 426 121 234
f 346 353 367
f 352 367 353
f 498 367 363
f 367 366 363
f 185 121 289
f 316 391 159
f 369 370 371
f 363 368 498
f 372 373 391
f 373 372 374
f 356 360 361
f 97 273 319
f 311 273 257
f 371 376 373
f 356 355 360
f 355 324 360
f 370 377 324
f 362 372 374
f 365 372 391
f 365 374 372
f 365 362 374
f 358 331 391
f 331 365 391
f 356 365 331
f 378 379 380
f 359 324 372
f 362 359 372
f 377 381 374
f 374 372 377
f 372 324 377
f 381 370 369
f 370 381 377
f 370 357 371
f 357 370 324
f 332 382 383
f 385 386 324
f 384 386 385
f 384 387 386
f 384 385 388
f 373 369 371
f 376 387 384
f 365 361 362
f 386 357 324
f 369 373 381
f 373 374 381
f 357 386 387
f 337 338 324
f 324 338 332
f 371 357 387
f 376 371 387
f 385 383 388
f 383 385 324
f 373 376 391
f 317 486 310
f 368 448 498
f 392 393 382
f 509 185 314
f 488 391 508
f 394 382 332
f 392 382 394
f 307 449 430
f 376 395 375
f 307 430 354
f 376 396 379
f 382 393 383
f 384 388 376
f 394 397 396
f 397 394 332
f 392 394 396
f 376 393 392
f 399 398 390
f 395 399 375
f 398 399 395
f 378 398 395
f 398 378 400
f 400 380 390
f 400 378 380
f 398 400 390
f 376 392 396
f 399 390 375
f 395 376 378
f 338 401 332
f 380 397 390
f 390 332 375
f 324 332 383
f 376 388 393
f 376 379 378
f 397 332 390
f 388 383 393
f 330 430 389
f 396 397 379
f 380 379 397
f 236 308 297
f 508 391 439
f 376 375 406
f 407 375 432
f 406 375 407
f 407 405 408
f 405 407 432
f 406 407 408
f 405 409 410
f 432 409 405
f 408 405 410
f 486 402 310
f 406 408 410
f 432 375 332
f 432 332 411
f 332 401 411
f 427 389 430
f 410 412 439
f 376 406 391
f 312 296 448
f 412 415 416
f 418 426 403
f 418 463 426
f 406 439 391
f 406 410 439
f 426 498 403
f 419 420 421
f 422 423 424
f 403 425 441
f 456 428 429
f 419 327 432
f 415 432 416
f 415 409 432
f 412 409 415
f 412 410 409
f 420 439 421
f 416 432 439
f 431 327 421
f 327 431 432
f 419 421 327
f 435 436 433
f 436 434 433
f 413 432 423
f 422 413 423
f 419 432 413
f 420 419 413
f 420 413 422
f 431 439 432
f 432 411 434
f 421 439 431
f 439 412 416
f 402 411 401
f 435 424 436
f 437 433 438
f 433 434 438
f 435 433 437
f 317 502 486
f 72 449 97
f 317 217 517
f 621 680 72
f 425 403 464
f 463 418 441
f 463 441 425
f 441 418 403
f 423 432 434
f 436 423 434
f 436 424 423
f 442 443 444
f 446 497 447
f 442 450 451
f 437 438 443
f 451 452 439
f 444 438 434
f 438 444 443
f 442 444 450
f 444 434 450
f 411 452 434
f 411 439 452
f 451 450 452
f 450 434 452
f 473 411 402
f 439 420 422
f 458 459 460
f 461 458 460
f 463 425 464
f 466 464 465
f 418 403 466
f 403 425 466
f 425 418 466
f 425 403 418
f 464 403 465
f 428 469 429
f 469 470 429
f 469 428 470
f 453 389 471
f 402 486 473
f 427 471 389
f 474 470 428
f 474 453 470
f 456 453 474
f 456 389 453
f 475 476 477
f 476 455 477
f 469 429 455
f 467 465 496
f 467 466 465
f 464 466 467
f 463 464 467
f 429 476 475
f 429 469 476
f 455 476 469
f 389 456 296
f 475 454 429
f 474 428 456
f 468 490 491
f 454 456 429
f 430 554 637
f 489 471 427
f 490 468 493
f 490 493 446
f 485 493 468
f 485 446 493
f 475 477 454
f 455 429 471
f 457 502 317
f 457 317 517
f 449 72 592
f 446 515 497
f 485 468 446
f 446 468 488
f 543 449 648
f 449 543 554
f 637 499 430
f 490 446 447
f 506 507 404
f 488 468 512
f 446 508 515
f 488 512 414
f 536 508 473
f 688 510 511
f 411 473 508
f 468 479 512
f 462 514 461
f 592 72 680
f 489 430 484
f 477 492 454
f 429 470 471
f 508 439 411
f 623 481 516
f 471 477 455
f 477 471 492
f 427 430 489
f 470 453 471
f 439 424 435
f 451 439 442
f 439 443 442
f 439 422 424
f 443 439 437
f 437 439 435
f 488 508 446
f 512 479 414
f 488 72 295
f 648 501 543
f 479 513 414
f 513 607 414
f 554 543 558
f 430 449 554
f 488 295 391
f 662 500 448
f 296 456 662
f 454 662 456
f 543 501 558
f 517 217 509
f 662 448 296
f 662 454 492
f 518 519 514
f 516 519 518
f 462 460 562
f 562 481 482
f 463 481 509
f 482 481 463
f 463 496 482
f 467 496 463
f 462 518 514
f 482 496 498
f 491 447 507
f 507 497 404
f 480 523 524
f 527 552 530
f 506 491 507
f 447 497 507
f 491 490 447
f 468 506 404
f 468 404 515
f 404 497 515
f 491 506 468
f 527 528 529
f 531 532 525
f 532 533 487
f 531 533 532
f 534 535 552
f 484 430 499
f 479 468 579
f 537 538 539
f 540 541 542
f 544 545 610
f 552 546 547
f 499 526 489
f 546 548 547
f 549 546 535
f 532 487 550
f 534 529 524
f 548 546 549
f 541 544 610
f 553 552 537
f 552 542 537
f 558 644 487
f 543 551 655
f 536 473 505
f 607 472 414
f 473 486 505
f 551 543 655
f 471 489 492
f 559 560 561
f 505 486 502
f 517 457 417
f 417 457 517
f 481 622 509
f 519 516 459
f 615 622 481
f 462 623 518
f 516 481 562
f 623 516 518
f 516 562 459
f 514 458 461
f 514 519 458
f 458 519 459
f 462 562 482
f 462 461 460
f 460 459 562
f 623 462 482
f 496 465 403
f 498 496 403
f 545 563 564
f 534 523 535
f 414 472 696
f 449 592 626
f 568 569 688
f 553 533 531
f 570 571 572
f 550 525 532
f 644 480 530
f 445 480 644
f 534 524 523
f 533 539 487
f 553 539 533
f 552 527 529
f 648 445 693
f 527 530 528
f 552 575 564
f 480 528 530
f 550 552 525
f 534 552 529
f 523 480 549
f 524 529 528
f 580 581 582
f 536 515 508
f 586 468 515
f 472 620 696
f 579 472 625
f 625 472 696
f 673 488 414
f 445 648 672
f 523 549 535
f 644 530 552
f 480 524 528
f 535 546 552
f 542 538 537
f 549 480 548
f 539 610 487
f 537 539 553
f 544 563 545
f 552 531 525
f 644 552 550
f 644 550 487
f 542 541 538
f 582 574 552
f 552 540 542
f 579 468 586
f 580 585 581
f 449 626 591
f 540 544 541
f 538 541 610
f 552 563 540
f 531 552 553
f 539 538 610
f 563 544 540
f 499 489 484
f 648 440 494
f 479 579 586
f 589 590 557
f 590 588 557
f 479 586 478
f 585 548 480
f 596 597 567
f 597 588 567
f 557 588 650
f 495 555 556
f 599 589 598
f 599 567 590
f 567 588 590
f 558 487 700
f 600 597 596
f 587 479 602
f 479 478 602
f 600 596 598
f 555 588 593
f 599 590 589
f 558 700 554
f 598 494 495
f 601 587 602
f 602 478 601
f 556 593 600
f 598 556 600
f 495 494 555
f 494 588 555
f 495 556 598
f 556 555 593
f 600 593 597
f 593 588 597
f 596 567 599
f 598 596 599
f 589 557 650
f 598 589 650
f 560 603 611
f 561 560 611
f 513 479 664
f 513 664 603
f 612 613 617
f 561 611 614
f 501 598 609
f 559 714 560
f 714 603 560
f 584 620 579
f 616 706 607
f 483 686 619
f 517 509 622
f 607 513 616
f 618 522 498
f 500 618 498
f 504 615 481
f 504 481 623
f 504 623 482
f 522 504 482
f 522 482 498
f 572 624 605
f 620 472 579
f 582 581 573
f 627 628 626
f 494 440 588
f 629 630 631
f 511 629 631
f 571 624 572
f 605 624 583
f 580 552 547
f 552 632 575
f 693 445 717
f 573 681 574
f 563 552 564
f 572 605 633
f 585 547 548
f 580 582 552
f 634 635 636
f 585 681 581
f 580 547 585
f 638 575 639
f 564 638 545
f 575 632 639
f 440 648 693
f 641 632 633
f 628 627 569
f 568 628 569
f 582 573 574
f 480 445 681
f 681 585 480
f 552 574 578
f 581 681 573
f 639 610 638
f 633 552 570
f 641 583 639
f 642 643 571
f 638 564 575
f 570 642 571
f 605 583 641
f 571 643 624
f 638 610 545
f 632 552 633
f 515 536 586
f 577 594 595
f 633 570 572
f 632 641 639
f 624 643 583
f 641 633 605
f 634 636 583
f 610 639 583
f 569 640 688
f 717 445 644
f 642 634 643
f 643 634 583
f 635 642 570
f 635 634 642
f 610 583 700
f 645 583 646
f 637 554 700
f 631 568 688
f 630 568 631
f 627 626 640
f 569 627 640
f 511 631 688
f 640 709 688
f 640 626 709
f 551 565 694
f 700 487 610
f 644 558 695
f 489 526 499
f 577 606 594
f 577 595 606
f 591 629 510
f 712 536 505
f 659 606 595
f 649 594 691
f 551 604 565
f 651 652 653
f 652 651 654
f 595 691 659
f 472 607 669
f 650 588 440
f 655 604 551
f 565 604 694
f 694 655 656
f 691 594 659
f 594 606 659
f 613 664 617
f 658 664 613
f 612 658 613
f 655 694 604
f 502 622 505
f 622 502 457
f 498 448 500
f 710 500 662
f 622 457 517
f 664 658 665
f 504 522 615
f 552 578 570
f 670 679 671
f 579 586 584
f 584 579 625
f 674 675 676
f 621 576 670
f 654 670 671
f 576 679 670
f 621 670 654
f 621 677 576
f 678 657 661
f 657 652 671
f 652 654 671
f 678 651 653
f 678 621 651
f 576 677 679
f 654 651 621
f 621 678 661
f 679 657 671
f 657 678 653
f 652 657 653
f 661 657 679
f 672 578 445
f 570 682 683
f 584 625 684
f 673 708 686
f 677 673 686
f 687 677 686
f 677 687 679
f 679 687 661
f 661 687 692
f 680 621 661
f 592 680 692
f 661 692 680
f 635 570 689
f 578 681 445
f 578 574 681
f 689 690 636
f 645 682 578
f 646 682 645
f 690 683 646
f 690 689 683
f 579 584 716
f 586 579 716
f 584 594 716
f 594 584 691
f 684 647 584
f 684 595 594
f 625 647 691
f 685 625 696
f 625 691 684
f 686 708 707
f 592 692 626
f 591 628 630
f 510 629 511
f 440 693 694
f 440 694 672
f 646 583 690
f 636 635 689
f 689 570 683
f 690 583 636
f 682 570 578
f 646 683 682
f 644 645 717
f 586 536 712
f 647 684 594
f 691 716 594
f 647 594 691
f 595 684 691
f 673 414 711
f 648 709 440
f 677 72 673
f 621 72 677
f 704 687 686
f 704 692 687
f 440 672 648
f 568 630 628
f 591 630 629
f 591 510 688
f 628 591 626
f 648 449 591
f 551 694 717
f 551 717 694
f 644 695 645
f 478 586 601
f 691 594 649
f 669 691 595
f 595 691 696
f 696 669 595
f 673 711 708
f 483 704 686
f 626 692 709
f 688 648 591
f 688 709 648
f 694 695 551
f 694 655 695
f 551 695 655
f 558 660 695
f 700 489 499
f 472 669 696
f 521 703 704
f 483 701 521
f 701 483 697
f 675 619 676
f 675 702 619
f 676 698 703
f 698 676 619
f 520 697 703
f 520 674 697
f 674 697 675
f 697 702 675
f 520 703 521
f 483 521 704
f 619 702 483
f 674 520 701
f 697 674 701
f 692 704 663
f 697 676 703
f 676 697 674
f 699 694 440
f 694 699 440
f 656 655 694
f 489 700 492
f 649 664 601
f 664 649 601
f 673 72 488
f 698 619 686
f 520 521 701
f 702 697 483
f 664 587 601
f 669 607 608
f 663 704 705
f 648 494 501
f 494 598 501
f 656 719 660
f 622 712 505
f 587 664 479
f 707 715 686
f 686 715 698
f 703 698 705
f 704 703 705
f 705 698 715
f 658 713 665
f 616 714 559
f 706 667 664
f 603 665 611
f 561 614 666
f 664 667 617
f 663 705 710
f 501 656 558
f 656 660 558
f 622 615 712
f 617 666 612
f 665 713 614
f 559 666 616
f 664 665 603
f 706 666 617
f 706 617 667
f 561 666 559
f 665 614 611
f 603 714 513
f 666 713 612
f 616 513 714
f 658 612 713
f 666 614 713
f 706 616 666
f 706 608 607
f 668 707 708
f 618 705 715
f 710 705 618
f 710 618 500
f 718 712 615
f 668 615 707
f 707 615 522
f 707 522 715
f 522 618 715
f 618 566 503
f 618 503 566
f 620 584 647
f 647 625 685
f 620 647 685
f 696 620 685
f 693 717 672
f 578 672 717
f 584 586 716
f 684 625 647
f 625 684 685
f 647 685 684
f 584 716 691
f 647 625 685
f 414 696 711
f 694 693 672
f 645 578 717
f 583 645 700
f 499 637 700
f 586 649 601
f 696 691 669
f 709 692 663
f 649 586 712
f 695 660 645
f 660 700 645
f 601 649 712
f 669 711 696
f 440 709 609
f 709 663 609
f 601 712 718
f 706 601 718
f 669 706 711
f 669 608 706
f 650 440 609
f 656 501 609
f 719 700 660
f 700 719 492
f 601 706 664
f 706 718 668
f 711 668 708
f 706 668 711
f 609 663 710
f 609 598 650
f 609 719 656
f 615 668 718
f 710 719 609
f 719 710 662
f 662 492 719
f 224 222 225

