# https://github.com/mikedh/trimesh
v -0.38858056 0.65702623 0.06015534
v -0.35266861 0.10177955 -0.02868018
v -0.34424710 0.12586315 -0.08909925
v -0.35102737 0.39550373 -0.07474613
v -0.30721584 -0.07135287 0.09446779
v -0.36415729 0.04936990 -0.06497233
v -0.33765614 0.38038909 -0.08569762
v -0.35273698 0.32365164 -0.01347287
v -0.37582129 0.62232363 0.03158005
v -0.32852677 0.63376075 0.27136749
v -0.25125229 -0.41145390 -0.10991491
v -0.27729246 0.20681983 0.04473013
v -0.26485494 0.30738467 -0.00646276
v -0.27843836 0.33110806 0.10103285
v -0.33741859 0.39369747 -0.06823936
v -0.33351862 0.39196748 -0.06834936
v -0.32960862 0.39011750 -0.06823936
v -0.33761975 0.39189094 -0.06412325
v -0.33362862 0.39196748 -0.06823936
v -0.33741859 0.39187747 -0.06433936
v -0.33351862 0.39191750 -0.06823936
v -0.28887537 0.21861511 -0.01465199
v -0.23126653 0.09329095 -0.28874505
v -0.30707499 0.36499703 -0.03388451
v -0.28463760 -0.05322989 0.00554600
v -0.34085789 0.67346752 0.26563513
v -0.29911444 0.60060561 0.11586211
v -0.27342230 0.07694106 -0.12661031
v -0.26984388 -0.22923401 -0.21690434
v -0.25893205 0.05694598 -0.03121878
v -0.25258958 -0.46470183 -0.16239551
v -0.25097311 0.33373010 0.05967007
v -0.26681134 0.24541405 0.05009682
v -0.26552084 0.30957133 -0.04659998
v -0.21242851 0.33994451 -0.06430568
v -0.30592421 0.45142049 0.02615506
v -0.24372002 0.61071694 0.26759031
v -0.26926452 -0.21722488 -0.09239369
v -0.23127732 -0.40322769 -0.23494531
v -0.23746932 -0.28725767 -0.03228401
v -0.19215320 -0.93234050 -0.34928501
v -0.20069861 -0.53380251 0.00604064
v -0.19679861 -0.53390253 0.00987064
v -0.21592838 -0.14844470 0.12095456
v -0.20603675 -0.53241414 0.00051707
v -0.27062020 -0.14543138 0.12233078
v -0.19679861 -0.52990252 0.01010064
v -0.28396964 -0.00957498 0.10480671
v -0.22751185 -0.02699461 0.14346780
v -0.27512386 0.20876980 -0.09129864
v -0.10221256 0.38384172 -0.23356885
v -0.24366862 0.33337748 -0.04098936
v -0.24376862 0.33337748 -0.04089936
v -0.24366862 0.33342749 -0.04089936
v -0.30330420 0.61244255 -0.05859496
v -0.24757861 0.33102748 -0.04089936
v -0.23976861 0.33333749 -0.04479936
v -0.23957866 0.33342090 -0.04483314
v -0.24380712 0.32924891 -0.04819382
v -0.19777431 0.29587960 -0.22036183
v -0.24757861 0.33337748 -0.03722936
v -0.12227933 0.37451309 -0.27169028
v -0.19373615 0.18874741 -0.28242275
v -0.26028699 0.61079252 0.25155082
v -0.24374723 0.61072606 0.26777762
v -0.23980860 0.61071748 0.27159062
v -0.23976861 0.61115748 0.27550063
v -0.23976861 0.61071748 0.27163064
v -0.20459861 -0.63536251 -0.08386936
v -0.20397861 -0.64318252 -0.08386936
v -0.20473954 -0.63976628 -0.09029818
v -0.12711446 -0.93532258 0.07000368
v -0.20460860 -0.61193252 -0.06042936
v -0.20460860 -0.60802251 -0.05660936
v -0.20460860 -0.61189395 -0.06044732
v -0.20460860 -0.61583251 -0.06433936
v -0.20366861 -0.61583251 -0.05261936
v -0.17541516 -0.29595587 -0.29386249
v -0.20460860 -0.60021251 -0.04884936
v -0.20459861 -0.60021251 -0.04870936
v -0.20460860 -0.60006249 -0.04870936
v -0.19051862 -0.53771251 0.01378064
v -0.19288862 -0.53380251 0.01377064
v -0.19279183 -0.51443273 -0.10462552
v -0.23093206 -0.24414772 -0.17904660
v -0.16897064 -0.18700290 -0.28974274
v -0.18116862 -0.17443252 -0.28079936
v -0.19339068 -0.10646301 -0.01940000
v -0.23822393 0.03903689 -0.18311630
v -0.22797054 -0.07111041 0.06487813
v -0.25441337 -0.09431440 0.20032188
v -0.20522861 -0.61193252 -0.06823936
v -0.20460860 -0.61974251 -0.06829936
v -0.20460860 -0.61968249 -0.06823936
v -0.22762243 -0.08145414 0.14201598
v -0.20069861 0.07945748 0.04503064
v -0.19691861 0.07165748 0.04503064
v -0.16938110 -0.13470399 -0.27207327
v -0.20690665 0.08985468 0.05043167
v -0.17335860 -0.17052251 -0.28228936
v -0.25887582 0.13786341 -0.20508870
v -0.22587450 0.17728518 0.09587780
v -0.27218518 0.26741520 -0.15558049
v -0.19398382 0.30350137 0.04175308
v -0.24364862 0.61071748 0.26769063
v -0.23976861 0.33337748 -0.04473936
v -0.23171043 0.61094201 0.28139707
v -0.24989760 0.34919024 0.00802199
v -0.28035468 0.56406879 -0.03896466
v -0.23976861 0.61071748 0.27159062
v -0.23585860 0.61070746 0.27550063
v -0.20460860 -0.63910252 -0.08776936
v -0.20460860 -0.60411251 -0.05272936
v -0.20459861 -0.60802251 -0.05651936
v -0.20459861 -0.60411251 -0.05261936
v -0.20491861 -0.61193252 -0.06433936
v -0.20460860 -0.61580253 -0.06433936
v -0.20553862 -0.59630251 -0.05651936
v -0.20522861 -0.60411251 -0.06042936
v -0.20459861 -0.63146251 -0.07995936
v -0.20521861 -0.62755251 -0.08386936
v -0.20460860 -0.63146251 -0.08007936
v -0.20583861 -0.62755251 -0.09167936
v -0.20552862 -0.61974251 -0.07995936
v -0.16595665 -0.87697172 0.01748125
v -0.20938051 -0.55253989 -0.01215388
v -0.20396861 -0.60802251 -0.04870936
v -0.20459861 -0.63927251 -0.08776936
v -0.20460860 -0.62365252 -0.07222936
v -0.20459861 -0.62365252 -0.07214936
v -0.20460860 -0.62357253 -0.07214936
v -0.20460860 -0.59630251 -0.04497936
v -0.19500633 -0.83860755 -0.22488867
v -0.20439310 -0.63406408 -0.07998783
v -0.20836174 -0.58012068 -0.07641179
v -0.20460860 -0.63522249 -0.08386936
v -0.20460860 -0.61974251 -0.06823936
v -0.20460860 -0.60793251 -0.05651936
v -0.20460860 -0.63536251 -0.08400936
v -0.19078299 -0.76459450 -0.16115664
v -0.18977484 -0.67319548 -0.06636915
v -0.20460860 -0.61583251 -0.06436937
v -0.19165143 -0.71912801 -0.23640788
v -0.19679861 -0.53380251 0.00992064
v -0.19684862 -0.53380251 0.00987064
v -0.20370734 -0.60829324 -0.04556080
v -0.19288516 -0.53370571 0.01379509
v -0.20459861 -0.62755251 -0.07604936
v -0.20460860 -0.60400254 -0.05261936
v -0.20460866 -0.62748814 -0.07608555
v -0.15128218 -0.47952864 -0.25232470
v -0.21312563 -0.45785758 -0.00537383
v -0.24389391 -0.20865062 -0.22048327
v -0.17340861 -0.16271251 -0.27917936
v -0.17726861 -0.16661252 -0.27922937
v -0.17726861 -0.16648252 -0.27917936
v -0.17478503 -0.27000305 -0.28210765
v -0.13819861 -0.94787252 -0.30261937
v -0.13429861 -0.94789255 -0.30261937
v -0.22796081 -0.13027126 -0.10365327
v -0.19324394 -0.24583395 -0.25122419
v -0.17726861 -0.16271251 -0.27768937
v 0.00702803 -0.70019382 -0.35329038
v -0.22215541 -0.15503675 -0.24866749
v -0.18118776 -0.17028297 -0.27915865
v -0.18116862 -0.16661252 -0.27761936
v -0.17739861 -0.16661252 -0.27917936
v -0.17335860 -0.16271251 -0.27919936
v -0.17331980 -0.16264009 -0.27918565
v -0.20933780 -0.07377625 -0.11029635
v -0.17767191 -0.02541926 0.01310552
v -0.19984654 -0.13218328 0.14195307
v -0.18337379 -0.07632457 0.17830439
v -0.18145913 -0.01012450 -0.17720069
v -0.18210925 -0.07164700 0.14390637
v -0.19941860 0.06774748 0.03331064
v -0.20068862 0.07165748 0.03722064
v -0.18116862 -0.17052251 -0.27925938
v -0.19690861 0.06774748 0.04112064
v -0.18893920 0.20546009 -0.16383524
v -0.20255861 0.07555748 0.03722064
v -0.19514276 0.08768053 -0.00704500
v -0.18505573 0.09476335 0.07364459
v -0.20069741 0.07168798 0.03722331
v -0.20069861 0.07555748 0.04112064
v -0.20069861 0.07557748 0.04112064
v -0.20069861 0.07555748 0.04111064
v -0.19880134 0.22416852 -0.11868042
v -0.20214494 0.14353426 -0.08370284
v -0.22591119 0.26715395 -0.22685674
v -0.22752237 0.34351781 0.10467735
v -0.17970532 0.29813671 -0.07696377
v -0.20879950 0.38741890 -0.16396281
v -0.17807160 0.27779451 0.08647886
v -0.21093445 0.42909423 -0.15662466
v -0.24487355 0.63112885 0.03599695
v -0.17003131 0.67002034 0.09974679
v -0.15155196 0.62179893 0.36898789
v -0.15914114 0.67198676 0.23477787
v -0.24164887 0.67044598 0.34524119
v -0.20218377 -0.94742614 -0.29811284
v -0.16235173 -0.82451415 -0.19742745
v -0.20610900 -0.95987850 0.04026509
v -0.12396695 -0.69193238 -0.28047550
v -0.16368786 -0.55846584 0.01721069
v -0.13965517 -0.81704539 -0.35351864
v -0.17092572 -0.68515229 -0.27967045
v -0.20719612 -0.61232442 -0.12449007
v -0.17393923 -0.60640317 -0.18737964
v -0.12649126 -0.94782275 -0.30306256
v -0.14521097 -0.09611802 0.03856809
v -0.14808704 -0.05337703 -0.21742225
v -0.13819861 -0.94640249 -0.31042936
v -0.18841387 -0.05549690 0.06653208
v -0.20148605 0.04709378 0.09620271
v -0.18743508 0.08551563 -0.14218746
v -0.18714066 0.04552079 0.02504936
v -0.18391186 0.14070775 -0.18408501
v -0.07287341 0.05226986 -0.23767322
v -0.17806906 0.12629627 -0.08312175
v -0.17002903 -0.00291269 -0.22802147
v -0.08295637 -0.67660677 -0.04818788
v -0.13950364 0.21071507 0.12914549
v -0.14862321 0.31559369 0.11829414
v -0.22653644 0.27690262 -0.06533033
v -0.13038862 -0.94790250 -0.30261937
v -0.13038862 -0.94786251 -0.30279937
v -0.13819861 -0.94786251 -0.30265936
v -0.14938535 0.39946479 0.12638955
v -0.13429861 -0.94565254 -0.31433937
v -0.17500584 0.60733736 0.15447621
v -0.18946940 0.50440800 0.08783635
v -0.22122307 -0.97482139 -0.05413977
v -0.20552044 0.59117526 0.12002132
v -0.13429861 -0.94786251 -0.30272937
v -0.11277419 -0.94979227 -0.29472417
v -0.11487007 -0.25562629 -0.26699260
v -0.13562122 -0.26018900 0.02392997
v -0.02882861 -0.65880251 -0.38241938
v -0.08237369 -0.22593440 0.06076757
v -0.14959586 0.04292677 -0.18597031
v -0.12294967 0.08109985 -0.21511985
v -0.13103379 0.12328032 -0.20373902
v -0.10662051 0.10828140 -0.31990361
v -0.14271887 0.29720411 -0.11535536
v -0.12977749 0.23715656 -0.16003598
v -0.14105600 0.34284532 0.19503357
v -0.08710992 -0.02359983 -0.26417226
v -0.14737709 0.30647752 0.00308787
v -0.08566226 0.31437394 -0.10860889
v -0.10220457 0.32433507 0.15831010
v -0.12874128 0.39605823 0.08561382
v -0.17074382 0.43424124 0.16244227
v -0.12082439 0.40658268 0.21867786
v -0.18628736 0.55011779 -0.10537059
v -0.14705254 0.58618832 0.02821277
v -0.14140123 0.59864843 0.25119460
v -0.03721749 -0.93937582 -0.32757112
v -0.10721615 0.77400970 0.01800594
v -0.12310570 0.80268514 0.12910898
v -0.10304127 -0.92181021 -0.38541830
v -0.10373234 -0.52613062 -0.19589719
v -0.07312699 -0.83693188 -0.19193377
v -0.10001800 -0.42376989 0.04082955
v -0.02882861 -0.66667253 -0.37683937
v -0.08839977 -0.77626848 -0.14187312
v -0.09366420 -0.67748660 -0.29490185
v -0.05153902 -0.63545662 -0.10449794
v -0.05172148 -0.65604991 -0.37544271
v -0.02070593 -0.57027227 -0.02553682
v -0.09468116 -0.51213294 -0.12832525
v -0.07037678 -0.32048187 -0.26946330
v -0.06380083 -0.49656913 -0.10242689
v -0.05087961 -0.49606258 -0.03063251
v -0.07736158 0.00242389 -0.23063211
v -0.14041820 0.03395862 0.09104985
v -0.11135334 0.00843923 0.11828897
v -0.04207378 0.06556585 0.13609527
v -0.13433231 0.13607134 0.14906356
v -0.13035999 0.30268723 0.07730648
v -0.07736809 0.16544285 -0.20091903
v -0.07120283 0.38127887 -0.00615693
v -0.06909672 0.31720182 0.15083270
v -0.08079565 0.21954641 -0.17397088
v -0.07094517 0.44377834 -0.14146028
v -0.10609651 0.55665648 -0.02831171
v -0.05805376 -0.88237810 0.01222871
v -0.07418811 -0.71644390 -0.28814423
v -0.02491861 -0.66661251 -0.37686938
v 0.01413307 -0.65970242 -0.38138491
v 0.02436139 -0.65490252 -0.38464937
v -0.02296241 -0.67574543 -0.37039649
v -0.01816517 -0.65577555 -0.38448286
v -0.08727004 -0.57157922 -0.19053580
v -0.06530051 -0.53518754 0.02429687
v -0.05243032 -0.74774450 -0.18633798
v -0.04455990 -0.28939083 -0.19186807
v -0.17427611 -0.15961511 -0.26615086
v -0.05616011 -0.10220669 0.08337204
v -0.10290253 -0.03372746 0.08905858
v -0.03457889 0.13641824 -0.21956730
v -0.06181119 0.19519599 -0.32069531
v -0.04437016 0.30676100 -0.12329587
v 0.00372462 0.37952489 -0.27860317
v -0.08314363 0.34715375 -0.05823483
v -0.04611573 0.30598316 0.26620719
v -0.08253767 0.40935075 0.26527241
v -0.02624192 0.39197502 0.26672986
v -0.03008885 0.36868927 -0.20276751
v -0.07013235 0.54032731 0.26462626
v -0.14753981 0.64453328 0.01378922
v -0.04959254 0.71971232 0.29205409
v -0.05876511 0.88125587 0.00946906
v 0.02279313 0.82786667 0.26259351
v -0.02790730 -0.96719372 0.06279125
v 0.09810320 -0.97523141 -0.12921643
v 0.05385372 -0.98607701 -0.11670104
v -0.04059117 -0.98087925 -0.10648797
v -0.00538861 -0.67753249 -0.36901936
v -0.01319861 -0.67206252 -0.37292936
v -0.03974058 -0.77257723 -0.29766858
v -0.05658039 -0.70619875 -0.24716322
v -0.02491861 -0.66666251 -0.37683937
v -0.02101861 -0.66661251 -0.37683937
v -0.01383376 -0.88418448 -0.20047753
v -0.01319861 -0.66654253 -0.37683937
v -0.00929861 -0.66650254 -0.37683937
v -0.00929861 -0.66661251 -0.37674937
v -0.01319861 -0.66661251 -0.37677938
v 0.01804139 -0.65502250 -0.38464937
v -0.02882861 -0.66661251 -0.37686938
v 0.11047797 -0.67725307 -0.36656469
v 0.03473502 -0.71399260 -0.34401253
v 0.04298730 -0.71729869 -0.34166002
v 0.00995161 -0.41980401 0.15019572
v -0.01389104 -0.09268352 0.07698376
v 0.00111964 -0.46478587 0.06608415
v -0.03588418 -0.30552828 -0.06998455
v 0.03757139 -0.15463252 -0.28698936
v 0.03778376 -0.15470965 -0.28695405
v -0.04187509 -0.30160806 0.00858581
v -0.04728782 -0.14488372 -0.30146462
v 0.03798762 -0.15464842 -0.26975724
v -0.04182307 -0.25045064 0.07619870
v -0.04036126 -0.05469201 -0.22189349
v -0.04572309 0.03895608 -0.29716516
v -0.03232358 0.08404272 -0.24465011
v -0.08418594 0.15682523 0.15140338
v -0.03989118 0.22857861 -0.32727784
v -0.06208820 0.20581500 0.12918480
v -0.01710861 -0.66658252 -0.37683937
v -0.01710861 -0.66661251 -0.37680936
v -0.01175952 0.25381431 0.13059732
v -0.01979861 -0.66661251 -0.37683937
v -0.04279891 0.26123720 -0.17463981
v 0.00239437 0.73175359 0.29110521
v 0.02592596 0.94237387 0.14278096
v -0.05020596 0.94997585 0.09297349
v -0.00538861 -0.66661251 -0.37671936
v -0.02101861 -0.66663253 -0.37683937
v -0.00538859 -0.66645527 -0.37684208
v -0.02866668 -0.62083220 -0.11783976
v 0.00138908 -0.61230552 -0.40012842
v -0.02465939 -0.51199943 -0.17137764
v 0.00583378 -0.64432484 -0.39234492
v 0.02194139 -0.65490252 -0.38467938
v -0.01873938 -0.51199913 -0.10340930
v 0.02982990 -0.71739537 -0.34171021
v 0.01429906 -0.47839260 -0.10319459
v -0.04232044 -0.14763892 -0.26726857
v -0.03459816 -0.17638071 -0.29334834
v -0.01038829 -0.27344510 0.04237569
v 0.01957357 -0.23093602 0.04444464
v 0.03570146 -0.72893780 -0.33388808
v 0.04147139 -0.71740252 -0.34160936
v 0.00295675 0.00147213 -0.23796551
v -0.00160005 -0.03710799 0.12344441
v 0.01422448 0.11087134 -0.33796629
v -0.06207725 -0.42580223 -0.19837284
v 0.01768155 -0.03296260 -0.26779819
v 0.00948143 0.05860291 -0.21774608
v 0.00905015 0.16406177 -0.19888960
v 0.01597119 0.14778154 0.17987013
v 0.01123670 0.32348460 -0.11410578
v -0.03802792 0.27651176 0.21423598
v 0.01442982 0.28693077 0.20608093
v 0.02050227 0.37485158 -0.01380316
v 0.03715716 0.35822275 -0.20050482
v -0.02693299 0.43859884 -0.12734914
v -0.00099238 0.53968680 -0.13505459
v -0.01495286 0.42971072 0.32718861
v 0.02194139 -0.65495253 -0.38464937
v -0.05201252 0.59430259 0.32776478
v 0.00241139 0.72790748 0.29203063
v -0.00148861 0.73543745 0.29112062
v -0.01705978 0.60342389 0.38102019
v 0.00602361 0.72755313 0.29118893
v 0.01022139 0.73571748 0.28831062
v -0.02627237 0.65210760 0.40898907
v 0.00632139 0.72790748 0.29112062
v 0.01263455 0.94970280 -0.15307064
v -0.01130206 0.98409796 -0.04532152
v 0.09537245 -0.67031348 -0.20489715
v 0.01761416 -0.65493095 -0.38472456
v 0.03468096 -0.94790155 -0.10998830
v 0.03713139 -0.71740252 -0.34167936
v 0.03366139 -0.71740252 -0.34172937
v 0.08808497 -0.92746341 -0.17852890
v 0.03757139 -0.71740252 -0.34166938
v -0.01591752 -0.66613913 -0.17577988
v 0.04538139 -0.53771251 0.09200064
v 0.04929138 -0.53780252 0.09191064
v 0.04929138 -0.53771251 0.09196064
v 0.01076879 -0.72728205 -0.17661819
v 0.03366139 -0.72130251 -0.33908936
v 0.01344143 -0.60064399 0.05283016
v 0.01832999 -0.37575665 -0.14046822
v 0.05329892 -0.53777593 0.09187369
v 0.03878733 -0.54320347 0.08889053
v 0.10619100 -0.31603718 -0.25272393
v 0.02976139 -0.14708254 -0.28698936
v 0.03757139 -0.71739250 -0.34167936
v 0.05250522 -0.28258854 -0.24366753
v 0.06084883 -0.10834441 0.06115346
v 0.02026217 0.09097645 0.12553987
v 0.01180631 0.01455664 0.11507803
v 0.00745230 0.22409016 -0.18265106
v 0.04832555 0.10795394 -0.28759417
v 0.04869457 0.30254745 0.17379452
v 0.00508877 0.22796507 0.16351308
v 0.05323325 0.31221250 -0.14568965
v 0.03749558 0.40133214 0.26422042
v 0.00621577 0.35459593 -0.05327370
v -0.00955495 0.50962299 0.30032417
v -0.00407678 0.55409455 -0.05592171
v 0.00422604 0.57654083 -0.14737000
v 0.00635835 0.72778815 0.29113281
v -0.05444796 0.65692216 0.32631207
v 0.00226139 0.73180747 0.29112062
v -0.06424500 0.62214166 -0.04313904
v -0.02913835 0.86303991 -0.01355119
v -0.02831637 0.87576246 0.23022461
v 0.05258739 0.83479172 -0.00512340
v 0.08835139 -0.94396251 -0.16199937
v 0.08831576 -0.94437462 -0.16157916
v 0.02976139 -0.71742254 -0.34167936
v 0.03366139 -0.71747249 -0.34167936
v 0.05375066 -0.53723300 0.09216909
v 0.02393564 -0.49993873 -0.17485484
v 0.09226139 -0.94005251 -0.16664936
v 0.05765509 -0.51734871 -0.21023369
v 0.04444277 -0.57146615 -0.31679630
v 0.06166943 -0.95021611 -0.15060461
v 0.05319139 -0.53773254 0.09191064
v 0.05319139 -0.53771251 0.09192064
v 0.05324025 -0.54224408 0.08924289
v 0.06890622 -0.49060637 -0.12841749
v 0.20252384 -0.51751888 0.10720962
v -0.07694383 -0.37371859 -0.22515300
v 0.09711401 0.19950712 -0.32023218
v 0.10172135 -0.27776730 -0.24081926
v 0.04698076 -0.37492001 0.16691068
v 0.03380139 -0.15099251 -0.28698936
v 0.03367564 -0.15085424 -0.28698590
v 0.09226139 -0.94786251 -0.15884937
v 0.03366139 -0.15099251 -0.28702936
v 0.03826162 -0.15539943 -0.28701270
v 0.05329427 -0.01927275 -0.21794008
v 0.05041634 -0.15663247 -0.28429726
v 0.08834139 -0.94005251 -0.16589937
v 0.06148643 0.03193332 -0.27975994
v 0.08835139 -0.93615252 -0.16979936
v 0.08444138 -0.93539250 -0.16979936
v 0.08835139 -0.93614250 -0.16979936
v 0.13834433 -0.41845307 0.15477951
v 0.05452351 0.08364905 -0.21169114
v 0.06596271 0.12424050 -0.22604503
v 0.09752268 0.33402911 -0.03874436
v 0.06946801 0.42838013 -0.21405412
v 0.08317933 0.30883929 -0.26974469
v 0.05669811 0.25145477 -0.18912689
v 0.12443560 0.31539392 -0.26436126
v 0.08835139 -0.92833251 -0.17759936
v 0.08835144 -0.93223250 -0.17370938
v 0.07930834 0.37785301 0.04555868
v 0.08480898 0.43444198 -0.17254688
v 0.08435988 0.49745509 0.26533195
v 0.10549158 0.34147909 0.20234516
v 0.17448144 0.63905746 0.39603448
v 0.08837873 -0.93614584 -0.16980159
v 0.03481232 0.53107780 0.26587194
v 0.03691329 0.58639193 0.32250515
v 0.05789304 -0.89273232 -0.08405381
v 0.10007138 0.67321748 0.26770064
v 0.10013570 0.67323947 0.26766512
v 0.09616139 0.66930747 0.27272063
v 0.08841139 -0.93224251 -0.17370936
v 0.10141251 0.65742022 0.27696675
v 0.18487759 0.64140707 0.10578675
v 0.06788380 0.66779393 0.29235056
v 0.17023030 0.58406478 -0.11148838
v 0.09226993 0.67713600 0.27036789
v 0.15112688 0.65536106 0.22695240
v 0.04695409 0.97945684 -0.00921143
v 0.14693460 0.73977238 0.09594048
v 0.14692256 0.74342364 0.10371451
v 0.08835139 -0.94005251 -0.16589937
v 0.12153221 -0.70009041 -0.34925210
v 0.10628962 -0.92740268 -0.18200316
v 0.00295121 -0.65362871 -0.10960681
v 0.09654642 -0.62079322 -0.06661453
v 0.08861504 -0.93218881 -0.17379175
v 0.11333159 -0.79556662 -0.28857875
v 0.08484163 -0.62875718 -0.38888797
v 0.07219559 -0.48868379 -0.18410438
v 0.06965752 -0.48836720 -0.10655960
v 0.10239477 -0.56312752 -0.15127793
v 0.12954311 -0.59834307 -0.14691792
v 0.11234029 -0.57341909 0.05992226
v 0.08899089 -0.92831838 -0.17777897
v 0.10103231 -0.39929217 -0.20270409
v 0.06254742 -0.20347217 -0.29378358
v 0.15776438 -0.29263338 -0.15920110
v 0.11554259 -0.03190362 -0.19147891
v 0.11463080 -0.02410361 -0.25792027
v 0.08957830 0.00193415 -0.23325361
v 0.05173768 -0.01952752 0.10428323
v 0.07970393 0.10491402 0.13676786
v 0.09230547 0.05771106 0.09881915
v 0.15040103 0.09941934 -0.32192042
v 0.05451768 0.31326494 0.12154177
v 0.08854144 0.21498409 0.10750858
v 0.09819483 0.31946561 -0.12734519
v 0.11113054 0.21816403 -0.19471274
v 0.16415451 0.40094355 0.08429474
v 0.10883468 0.30256853 0.04943666
v 0.06600638 0.33229196 0.15160024
v 0.11323790 0.31307954 0.12230314
v 0.04973858 0.30800590 0.24925856
v 0.11251965 0.39216900 0.10765734
v 0.26157403 0.62722081 0.25456223
v 0.04878133 0.44983628 -0.18672326
v 0.08770955 0.67782849 0.27296287
v 0.08830924 0.45356840 -0.00219349
v 0.11316907 0.41461334 0.19969833
v 0.07031366 0.61742848 -0.03923176
v 0.14954503 0.62512630 0.01120096
v 0.09622252 0.67729127 0.26766828
v 0.09616139 0.67712748 0.26781064
v 0.16250539 0.56936514 0.07808317
v 0.15480028 0.71970779 0.09807653
v 0.14692938 0.73957670 0.09547382
v 0.09635139 0.67712748 0.26769063
v 0.08135499 0.89746255 0.05728723
v 0.07308716 0.88759249 0.17702475
v 0.05237400 0.91178650 -0.03574481
v 0.24357414 0.56011724 0.15103246
v 0.34206066 0.65847307 0.29785344
v 0.14703546 0.73986775 0.09670076
v 0.18696707 0.53941101 -0.04396280
v 0.13169685 0.78767282 0.11370333
v 0.09382479 -0.60698575 -0.28497815
v 0.16768609 -0.92700893 -0.15919133
v 0.13670996 -0.58396953 0.00135106
v 0.13249157 -0.48089314 -0.00864286
v 0.13486160 -0.53119177 -0.02841325
v 0.10268310 -0.62748319 -0.16877086
v 0.08959579 -0.64816177 -0.12832353
v 0.18675387 -0.46248159 -0.01502533
v 0.10373043 -0.44524923 0.04646867
v 0.10364964 -0.37946332 -0.12446248
v 0.14575651 -0.44751623 -0.03827084
v 0.15743983 -0.95552540 -0.15678650
v 0.11372980 -0.40945128 -0.16658270
v 0.10652499 -0.03276977 0.07082466
v 0.10813377 -0.17713363 0.00801094
v 0.11959787 -0.08573776 0.01425749
v 0.14393419 0.01695898 -0.12865756
v 0.12481846 0.02049978 0.05505984
v 0.08840009 0.04063047 -0.20785774
v 0.16155858 0.01277362 0.04231749
v 0.14029910 -0.00516199 0.10190224
v 0.11641644 0.14613095 -0.21996963
v 0.13952702 0.39971715 0.16537474
v 0.13020547 0.37811700 0.10655750
v 0.09270211 0.55197638 -0.02460181
v 0.15900266 0.58058280 0.17386639
v 0.11895694 0.57067406 0.26253152
v 0.15006866 0.58678043 0.38439935
v 0.10007138 0.67323750 0.26769063
v 0.16652028 -0.35017991 0.20746878
v 0.07898639 0.64199519 0.34349239
v 0.16895282 -0.88420224 -0.23227251
v 0.14312978 0.75144255 0.09908947
v 0.13980360 0.74091405 0.06131075
v 0.14690752 0.74323374 0.10322482
v 0.13523142 0.72677511 0.21425675
v 0.14506875 -0.80269378 -0.28335527
v 0.17192170 -0.35019642 -0.11293638
v 0.15742825 -0.45691931 0.12261209
v 0.15872347 -0.85886586 -0.12527287
v 0.15334927 -0.81085646 -0.27658045
v 0.12426194 -0.49670008 -0.05092110
v 0.13458522 -0.72930014 -0.23214826
v 0.12502579 -0.43952709 -0.00867154
v 0.10201885 -0.44891432 -0.02092796
v 0.14577094 -0.45468640 0.07398205
v 0.19064020 -0.48046878 0.18528597
v 0.15050431 -0.25244838 0.05719791
v 0.15970899 -0.38513914 -0.16170666
v 0.15031619 -0.23958766 0.15432942
v 0.07298729 -0.05897970 -0.24245383
v 0.17332526 0.01596360 0.01544173
v 0.17577159 -0.19216721 0.02937260
v 0.27012092 -0.04437414 -0.02191850
v 0.16165048 -0.02430383 0.03571978
v 0.24817812 -0.00791985 -0.08044852
v 0.17261338 -0.12008667 -0.09048333
v 0.14933208 -0.13912795 -0.04694474
v 0.11464626 -0.15876032 0.03588530
v 0.15525872 -0.06593168 -0.06347039
v 0.19506896 -0.06066019 0.03494359
v 0.23288138 -0.01968252 -0.06042936
v 0.16457778 -0.00923262 -0.03476543
v 0.16893519 0.03663246 -0.21915372
v 0.13991316 0.11475886 -0.14970608
v 0.16923198 0.14726059 -0.26634854
v 0.13753133 0.09499605 -0.18221335
v 0.16718213 0.18372670 0.07008781
v 0.14898489 0.05354046 0.07338244
v 0.13958643 0.23315008 -0.17661542
v 0.17780459 0.13127179 -0.20497520
v 0.14870852 0.25881261 0.07646985
v 0.09886359 0.34582654 0.01629886
v 0.14258389 0.38389584 -0.04639381
v 0.13963817 0.37282202 -0.12314110
v 0.20319919 0.32500622 -0.04539302
v 0.15643647 0.33861399 0.09339578
v 0.17233200 0.48417258 0.12425289
v 0.17205395 0.53704393 -0.09780699
v 0.15740548 0.72571653 0.12532870
v 0.19739455 0.58000880 0.35155514
v 0.18470003 -0.27389544 -0.09266345
v 0.20234923 -0.22066115 -0.11222219
v 0.19173792 -0.21479496 -0.06427260
v 0.17421390 -0.48152614 0.04757421
v 0.22507139 -0.01476252 -0.05651936
v 0.14232244 -0.18253355 0.09538853
v 0.18489254 -0.55252302 0.01839379
v 0.13322699 -0.14939600 -0.24547990
v 0.17424889 -0.05529275 0.01540033
v 0.23522089 -0.02413535 -0.05539305
v 0.23300140 -0.02208252 -0.05651936
v 0.16476668 -0.16126816 0.01398581
v 0.20460959 -0.22948948 0.08546445
v 0.18561053 -0.07318859 -0.00464531
v 0.19588254 -0.00213533 0.06795959
v 0.18953241 0.00247725 0.03794788
v 0.19802564 0.03886249 0.02785078
v 0.19935413 0.07954848 0.06072283
v 0.21389410 0.08535831 -0.19580002
v 0.18428130 0.11146719 -0.10012456
v 0.19628669 0.05828088 -0.14310279
v 0.18079048 0.11067641 0.07059985
v 0.18501118 0.10481959 0.02585069
v 0.18033437 0.07419788 -0.01832021
v 0.11572082 0.15668136 0.12482081
v 0.17467767 0.16562517 -0.14833009
v 0.17846112 0.21952474 -0.18655100
v 0.21406709 0.16638365 -0.23681417
v 0.18228441 0.33638749 0.07317407
v 0.14260605 0.30086112 -0.14022940
v 0.18277626 0.31217644 -0.02445621
v 0.18863595 0.38128191 -0.08181541
v 0.16504492 0.31658989 0.02977846
v 0.32342979 0.60047245 -0.03727601
v 0.19949082 0.56723529 0.12701610
v 0.22852449 0.57365882 -0.08849256
v 0.25046042 -0.06269531 0.00646024
v 0.30167237 0.55832756 -0.02954768
v 0.22610345 -0.37691760 0.07027622
v 0.20809242 -0.43152931 0.14239635
v 0.22897139 -0.02039252 -0.05261936
v 0.22897139 -0.01819252 -0.05651936
v 0.23288138 -0.02208252 -0.05641936
v 0.21330743 -0.22489972 0.02654771
v 0.23048143 -0.31720304 0.00617938
v 0.21203229 -0.35884887 0.15973726
v 0.20316382 -0.43491301 0.10870367
v 0.20848300 -0.28946623 -0.01756225
v 0.22897139 -0.01818252 -0.05654936
v 0.22896139 -0.01818252 -0.05651936
v 0.21274835 -0.00441588 -0.04049908
v 0.20095706 -0.25657934 0.06486582
v 0.19866879 -0.33152202 0.12785557
v 0.23288138 -0.02202252 -0.05651936
v 0.23533997 -0.01582754 0.06971212
v 0.18685651 -0.02035939 -0.04061669
v 0.22225937 -0.07580288 0.01357164
v 0.21570988 0.05524174 -0.01776018
v 0.20857064 0.01250299 -0.08543030
v 0.22286937 0.12394238 -0.03073767
v 0.27821210 0.18227187 -0.20084141
v 0.19591694 0.31323737 -0.21198887
v 0.19286546 0.29473582 -0.11665967
v 0.18043065 0.29060453 -0.23384807
v 0.28266862 0.63687962 0.35483730
v 0.28263238 0.02831062 -0.05528314
v 0.26097062 0.07606394 -0.04461046
v 0.25395626 0.24180710 -0.16764970
v 0.25683486 0.02627872 0.02933661
v 0.24107175 0.21911016 0.01606307
v 0.27202165 -0.05399907 0.03395537
v 0.26804137 0.23181748 -0.12292936
v 0.26595852 0.23520982 -0.12165343
v 0.26804137 0.23181748 -0.11901936
v 0.26804137 0.23180749 -0.11901936
v 0.26804137 0.23180749 -0.11843936
v 0.24210793 0.29678878 -0.05995380
v 0.22806379 0.28989139 -0.01654375
v 0.32222289 0.62141436 0.03410495
v 0.28219083 0.59702200 0.35355106
v 0.24709705 0.61693656 0.07601207
v 0.37159732 0.60387176 0.07481526
v 0.27054876 0.19896102 -0.08007656
v 0.19911599 0.22170010 -0.20014246
v 0.20421851 0.14852053 -0.09882966
v 0.27551883 0.19356714 -0.16847537
v 0.26971442 0.22855850 -0.11966501
v 0.26804137 0.23180749 -0.12292936
v 0.26804137 0.23180749 -0.12327936
v 0.26458105 0.23406741 -0.06836496
v 0.29499862 0.58490890 0.24177387
v 0.38280481 0.64135939 0.04715378
v 0.35810190 0.63386589 0.28781387
v 0.39295986 0.67408556 0.17116302
f 6 2 3
f 9 1 55
f 10 26 1
f 9 10 1
f 6 25 5
f 6 5 48
f 6 48 2
f 3 2 22
f 22 2 12
f 22 8 7
f 15 16 7
f 16 17 7
f 9 55 109
f 8 4 7
f 18 19 15
f 18 20 19
f 20 24 21
f 16 19 21
f 4 24 18
f 24 17 21
f 17 16 21
f 7 4 15
f 4 18 15
f 19 16 15
f 20 21 19
f 7 17 24
f 20 18 24
f 24 4 8
f 55 1 196
f 27 10 9
f 91 5 46
f 48 5 91
f 6 28 25
f 28 6 3
f 28 3 50
f 30 2 48
f 22 50 3
f 22 7 13
f 8 33 24
f 13 24 33
f 7 24 13
f 27 9 109
f 196 1 26
f 10 27 234
f 200 26 10
f 42 126 43
f 25 46 5
f 95 46 25
f 25 28 30
f 48 91 49
f 30 28 182
f 2 30 99
f 183 2 99
f 102 12 2
f 183 102 2
f 50 22 225
f 12 8 22
f 8 12 33
f 52 53 54
f 13 33 108
f 32 14 36
f 32 33 14
f 34 52 57
f 108 34 13
f 53 56 61
f 52 56 53
f 65 66 67
f 66 68 67
f 26 200 438
f 69 70 134
f 31 29 39
f 73 74 75
f 31 39 11
f 76 141 77
f 79 80 81
f 126 82 83
f 29 31 38
f 11 39 153
f 31 11 38
f 153 38 11
f 38 153 160
f 170 29 38
f 91 46 44
f 95 44 46
f 44 95 172
f 92 93 94
f 25 49 95
f 173 49 91
f 25 30 49
f 30 48 49
f 182 99 30
f 183 97 217
f 28 50 189
f 50 103 189
f 61 34 108
f 189 103 188
f 12 102 33
f 225 103 50
f 225 22 13
f 34 56 52
f 33 32 104
f 225 13 34
f 54 61 108
f 61 56 34
f 104 108 33
f 102 191 14
f 65 37 105
f 102 194 191
f 59 58 35
f 57 52 106
f 225 188 103
f 58 59 57
f 102 14 33
f 54 53 61
f 59 34 57
f 35 34 59
f 108 58 54
f 68 107 67
f 67 107 10
f 106 58 57
f 110 105 37
f 191 32 36
f 36 14 191
f 255 109 55
f 105 66 65
f 110 66 105
f 10 65 67
f 110 68 66
f 37 65 64
f 107 68 111
f 68 110 111
f 257 110 37
f 257 107 111
f 234 27 109
f 199 196 26
f 234 64 10
f 234 37 64
f 257 111 110
f 257 37 234
f 65 10 64
f 10 107 198
f 200 10 198
f 112 70 69
f 113 114 115
f 116 117 75
f 41 201 233
f 118 135 119
f 120 121 122
f 124 92 135
f 135 116 119
f 114 127 115
f 41 233 203
f 208 71 112
f 70 141 134
f 128 70 112
f 129 130 131
f 41 203 133
f 133 203 202
f 121 136 122
f 130 134 141
f 141 76 137
f 138 113 119
f 123 139 136
f 120 122 134
f 117 76 73
f 69 136 139
f 122 69 134
f 69 122 136
f 71 208 141
f 93 137 94
f 141 128 71
f 80 132 81
f 116 75 119
f 132 80 146
f 70 128 141
f 116 142 117
f 123 208 139
f 131 130 93
f 92 124 93
f 146 126 132
f 118 119 113
f 144 145 43
f 71 128 112
f 83 82 147
f 121 150 124
f 118 79 81
f 148 134 130
f 121 120 150
f 117 73 75
f 130 141 137
f 139 128 69
f 128 112 69
f 112 128 139
f 118 149 79
f 142 76 117
f 73 76 77
f 124 135 121
f 121 123 136
f 80 115 127
f 129 148 130
f 148 129 150
f 137 142 94
f 75 74 119
f 145 45 42
f 94 142 92
f 80 127 146
f 208 112 139
f 138 77 146
f 114 77 138
f 144 83 147
f 83 144 43
f 124 131 93
f 113 138 114
f 121 135 123
f 118 113 149
f 79 149 115
f 114 138 74
f 208 123 135
f 150 120 148
f 120 134 148
f 80 79 115
f 137 76 142
f 93 130 137
f 118 132 135
f 114 138 127
f 138 146 127
f 131 124 129
f 118 81 132
f 126 135 132
f 146 77 141
f 116 135 92
f 115 149 113
f 142 116 92
f 74 77 114
f 74 73 77
f 150 129 124
f 146 141 126
f 138 119 74
f 209 135 126
f 145 42 43
f 126 83 43
f 205 82 126
f 144 47 145
f 47 45 145
f 152 84 126
f 45 126 42
f 152 47 147
f 126 45 152
f 154 155 156
f 152 40 84
f 78 39 29
f 236 158 159
f 84 40 85
f 39 157 153
f 84 85 161
f 156 162 154
f 29 164 78
f 160 85 40
f 165 166 167
f 155 154 168
f 157 298 153
f 88 160 40
f 169 162 98
f 169 154 162
f 29 170 164
f 153 298 160
f 160 298 85
f 91 44 172
f 44 172 90
f 90 172 44
f 173 172 95
f 91 172 173
f 147 82 205
f 88 170 160
f 170 38 160
f 214 172 175
f 172 173 175
f 173 95 175
f 95 49 175
f 175 49 173
f 174 89 216
f 176 217 177
f 184 176 177
f 100 178 155
f 176 184 182
f 182 184 181
f 177 179 184
f 97 96 185
f 96 186 185
f 184 177 187
f 184 97 177
f 97 179 217
f 96 99 186
f 217 176 182
f 182 181 99
f 177 217 179
f 181 187 186
f 181 184 187
f 186 187 185
f 177 97 185
f 187 177 185
f 179 97 184
f 181 186 99
f 183 96 97
f 96 183 99
f 216 101 218
f 101 216 189
f 182 28 189
f 101 180 218
f 180 101 188
f 225 34 35
f 106 52 54
f 58 106 54
f 108 35 58
f 225 190 188
f 190 225 60
f 60 225 192
f 32 194 104
f 225 35 192
f 32 191 194
f 436 55 196
f 234 109 256
f 26 438 199
f 257 198 107
f 203 72 125
f 133 143 41
f 202 203 125
f 133 202 143
f 143 202 140
f 143 209 204
f 140 266 141
f 207 143 204
f 208 140 141
f 140 208 209
f 140 209 143
f 209 208 135
f 84 209 126
f 152 45 47
f 264 40 152
f 141 205 126
f 294 209 84
f 100 168 86
f 147 47 144
f 152 147 205
f 151 39 78
f 39 151 157
f 166 98 162
f 156 166 162
f 40 264 238
f 100 156 168
f 156 155 168
f 156 100 155
f 238 88 40
f 165 164 166
f 155 178 167
f 155 167 156
f 167 166 156
f 178 100 86
f 98 166 164
f 164 86 78
f 154 169 168
f 178 165 167
f 87 165 178
f 86 168 98
f 168 169 98
f 172 175 173
f 87 86 164
f 165 87 164
f 86 87 178
f 85 298 161
f 212 98 164
f 212 164 170
f 213 201 41
f 171 88 211
f 214 175 172
f 174 212 88
f 182 174 88
f 171 182 88
f 174 221 212
f 174 216 241
f 174 182 216
f 89 174 216
f 171 217 182
f 171 215 217
f 217 215 183
f 216 23 241
f 182 220 216
f 183 215 276
f 101 189 188
f 216 218 23
f 216 220 189
f 189 220 182
f 63 218 180
f 102 183 223
f 180 190 246
f 190 60 246
f 246 60 245
f 226 227 210
f 192 195 193
f 192 35 249
f 35 108 249
f 249 108 104
f 213 228 158
f 210 230 258
f 109 255 256
f 255 55 436
f 234 253 231
f 257 393 198
f 257 234 231
f 158 228 235
f 158 235 159
f 201 318 233
f 41 230 213
f 143 206 41
f 226 236 159
f 210 227 226
f 227 230 226
f 230 210 226
f 235 213 227
f 201 213 158
f 159 227 226
f 235 227 159
f 236 201 158
f 213 230 227
f 228 213 235
f 41 206 261
f 202 125 287
f 143 207 206
f 267 206 207
f 222 205 141
f 141 266 222
f 294 84 271
f 152 205 295
f 264 152 295
f 84 161 271
f 157 151 459
f 342 86 98
f 237 161 298
f 98 212 342
f 211 88 240
f 171 211 215
f 174 241 221
f 300 276 215
f 241 23 242
f 183 276 279
f 23 218 243
f 242 23 243
f 243 63 281
f 183 279 223
f 243 218 63
f 188 190 180
f 223 194 102
f 246 245 62
f 194 223 280
f 249 195 192
f 60 192 245
f 194 280 104
f 280 249 104
f 51 62 245
f 250 193 195
f 305 195 249
f 224 247 253
f 224 253 229
f 230 41 258
f 195 305 250
f 245 192 193
f 252 229 232
f 232 229 253
f 234 232 253
f 286 252 232
f 257 231 253
f 232 234 256
f 197 196 199
f 311 196 197
f 236 210 258
f 201 236 318
f 203 233 318
f 202 287 263
f 258 41 261
f 226 210 236
f 125 72 287
f 267 207 204
f 269 265 292
f 209 294 204
f 204 294 322
f 205 222 295
f 262 151 379
f 271 161 237
f 151 262 459
f 272 151 78
f 272 379 151
f 88 238 240
f 86 342 78
f 298 371 370
f 370 237 298
f 240 299 211
f 212 221 275
f 248 212 275
f 215 211 300
f 275 221 219
f 221 241 242
f 221 242 219
f 300 277 276
f 276 277 278
f 63 180 246
f 279 276 278
f 243 244 242
f 63 284 281
f 223 279 348
f 223 348 350
f 63 246 284
f 246 62 284
f 280 223 350
f 193 250 245
f 252 249 280
f 224 229 251
f 251 247 224
f 51 245 250
f 305 249 252
f 252 280 251
f 247 307 254
f 252 251 229
f 253 247 254
f 252 286 282
f 253 254 257
f 257 254 307
f 307 310 257
f 256 286 232
f 286 256 255
f 196 311 440
f 318 315 203
f 203 315 72
f 261 206 267
f 258 261 267
f 202 263 266
f 293 289 239
f 140 202 266
f 222 266 296
f 267 204 322
f 262 379 273
f 459 262 273
f 238 264 341
f 271 237 297
f 78 522 272
f 157 371 298
f 522 78 342
f 211 299 300
f 212 248 345
f 244 219 242
f 219 244 347
f 243 281 244
f 301 244 281
f 302 284 349
f 306 247 251
f 251 283 385
f 307 247 306
f 355 284 62
f 250 305 303
f 348 430 350
f 283 251 280
f 307 306 308
f 305 252 282
f 433 305 282
f 390 255 436
f 390 435 255
f 435 286 255
f 310 393 257
f 440 436 196
f 260 197 199
f 200 198 399
f 438 200 399
f 318 236 258
f 258 267 288
f 319 163 320
f 318 287 315
f 318 258 263
f 318 263 287
f 72 315 287
f 258 288 322
f 263 258 322
f 323 289 324
f 326 327 328
f 329 326 328
f 263 296 266
f 263 322 296
f 267 322 288
f 239 289 331
f 296 322 294
f 268 222 296
f 296 294 268
f 222 268 295
f 268 274 295
f 294 274 268
f 294 271 274
f 295 274 264
f 271 341 274
f 274 341 264
f 271 297 338
f 271 338 341
f 297 237 370
f 240 238 341
f 612 342 212
f 299 240 336
f 299 336 300
f 275 376 345
f 345 248 275
f 277 426 278
f 244 301 347
f 353 350 430
f 292 351 320
f 351 352 320
f 280 350 353
f 349 284 355
f 354 293 351
f 305 285 303
f 355 62 51
f 251 385 306
f 280 353 283
f 250 303 51
f 355 51 303
f 386 385 283
f 389 303 285
f 285 305 389
f 310 307 391
f 312 199 438
f 434 393 310
f 197 259 311
f 260 259 197
f 328 327 359
f 327 361 359
f 293 324 289
f 324 354 360
f 293 239 365
f 352 351 329
f 351 326 329
f 328 320 329
f 332 290 291
f 292 360 354
f 265 289 323
f 289 265 331
f 351 293 326
f 331 265 239
f 265 269 239
f 359 320 328
f 321 269 163
f 292 354 351
f 293 361 327
f 269 363 239
f 359 319 320
f 326 293 327
f 323 292 265
f 239 363 365
f 293 354 324
f 323 360 292
f 360 323 324
f 329 320 352
f 292 163 269
f 163 292 320
f 364 269 321
f 269 364 363
f 364 321 410
f 366 365 291
f 364 410 362
f 362 367 364
f 459 273 369
f 369 273 270
f 270 273 367
f 457 367 273
f 420 379 272
f 338 372 341
f 157 459 461
f 420 272 522
f 240 341 372
f 336 240 372
f 344 373 336
f 373 344 336
f 373 336 372
f 212 345 612
f 380 345 376
f 277 300 377
f 336 377 300
f 376 275 346
f 275 219 346
f 219 347 346
f 277 377 426
f 376 346 381
f 346 347 381
f 348 279 278
f 284 302 281
f 301 378 347
f 278 425 348
f 348 425 383
f 382 301 302
f 281 302 301
f 349 382 302
f 427 349 355
f 382 349 427
f 319 359 361
f 385 539 306
f 309 355 303
f 305 433 389
f 386 283 429
f 531 429 283
f 308 306 539
f 304 355 309
f 427 355 304
f 303 389 384
f 308 391 307
f 286 387 282
f 291 290 392
f 435 387 286
f 434 310 391
f 404 366 330
f 259 440 311
f 259 313 440
f 312 442 199
f 356 397 398
f 399 198 393
f 399 393 396
f 314 312 395
f 397 400 398
f 400 437 398
f 397 312 438
f 441 313 401
f 358 442 357
f 330 290 404
f 333 406 407
f 374 409 375
f 410 321 414
f 361 163 319
f 414 321 325
f 163 368 321
f 411 412 413
f 365 366 404
f 290 163 365
f 321 368 374
f 361 293 365
f 366 392 330
f 392 366 291
f 409 415 406
f 163 361 365
f 365 332 291
f 362 410 510
f 270 362 510
f 163 290 332
f 290 330 392
f 364 367 449
f 290 365 404
f 270 367 362
f 510 416 270
f 452 363 364
f 449 451 364
f 270 416 337
f 449 367 457
f 419 456 418
f 270 337 369
f 273 379 457
f 337 416 335
f 420 521 379
f 337 417 606
f 417 337 338
f 342 612 421
f 337 335 338
f 338 297 417
f 422 406 333
f 372 335 373
f 459 574 461
f 372 338 335
f 297 370 423
f 371 157 461
f 370 343 423
f 336 373 424
f 343 370 371
f 345 380 612
f 527 377 336
f 377 527 426
f 381 378 428
f 378 381 347
f 425 278 426
f 348 383 430
f 430 385 386
f 385 430 386
f 385 386 539
f 353 531 283
f 414 325 493
f 309 303 384
f 388 309 384
f 433 384 389
f 433 282 387
f 433 542 384
f 432 308 539
f 432 391 308
f 391 432 434
f 432 491 434
f 393 434 492
f 434 491 492
f 390 586 435
f 356 398 314
f 438 500 437
f 397 400 356
f 356 400 397
f 438 437 397
f 439 394 356
f 394 397 356
f 441 440 313
f 358 260 199
f 312 394 439
f 356 395 439
f 395 356 314
f 492 396 393
f 312 397 394
f 398 437 500
f 440 441 546
f 398 500 314
f 437 400 397
f 395 312 439
f 314 442 312
f 443 441 401
f 409 374 415
f 358 504 402
f 357 504 358
f 453 317 325
f 493 325 405
f 325 317 405
f 593 325 321
f 374 368 415
f 368 446 415
f 375 334 374
f 422 409 406
f 365 363 514
f 325 593 408
f 447 446 407
f 453 325 408
f 334 333 332
f 508 321 374
f 375 422 334
f 409 422 375
f 333 368 163
f 446 368 407
f 407 406 447
f 406 415 447
f 422 333 334
f 447 415 446
f 332 374 334
f 407 368 333
f 163 332 333
f 410 414 403
f 332 365 514
f 418 412 419
f 510 410 568
f 363 452 514
f 418 454 412
f 448 335 411
f 455 418 448
f 418 456 448
f 419 416 519
f 419 412 411
f 419 519 456
f 413 455 448
f 448 411 413
f 451 449 515
f 413 454 455
f 413 412 454
f 454 418 455
f 419 335 416
f 364 451 452
f 335 419 411
f 521 457 379
f 516 459 369
f 459 516 574
f 423 571 417
f 423 417 297
f 373 335 462
f 340 467 339
f 466 464 463
f 466 421 464
f 466 463 339
f 467 466 339
f 339 463 340
f 340 463 464
f 522 342 467
f 340 464 612
f 467 340 469
f 342 421 466
f 469 522 467
f 445 453 470
f 421 612 464
f 467 342 466
f 612 469 340
f 527 336 424
f 612 380 468
f 380 376 468
f 472 473 474
f 473 472 453
f 376 471 468
f 468 471 526
f 381 428 476
f 471 381 476
f 476 428 477
f 425 426 529
f 378 301 382
f 428 378 382
f 428 382 477
f 460 427 481
f 427 460 382
f 353 430 532
f 481 304 431
f 386 429 539
f 481 427 304
f 384 542 479
f 304 388 431
f 431 388 384
f 531 537 429
f 388 304 309
f 478 433 387
f 542 433 478
f 408 483 484
f 544 387 435
f 491 432 487
f 544 435 586
f 490 512 509
f 436 440 501
f 492 491 588
f 546 501 440
f 496 495 494
f 520 483 408
f 396 492 589
f 438 399 592
f 555 442 314
f 402 313 358
f 357 442 555
f 443 401 556
f 313 402 401
f 504 556 401
f 504 401 402
f 505 506 559
f 444 507 450
f 317 316 405
f 474 484 497
f 490 497 512
f 520 497 483
f 483 497 484
f 474 497 490
f 490 472 474
f 507 444 470
f 444 445 470
f 316 453 445
f 472 470 453
f 450 472 490
f 507 472 450
f 470 472 507
f 493 405 563
f 473 453 408
f 445 465 316
f 317 453 316
f 520 509 512
f 484 474 473
f 484 497 512
f 512 497 484
f 497 520 512
f 484 473 408
f 410 403 567
f 403 414 493
f 508 374 332
f 410 567 568
f 508 514 452
f 511 510 568
f 508 452 562
f 416 510 511
f 564 416 511
f 456 519 448
f 562 452 451
f 449 457 517
f 335 448 519
f 515 449 517
f 516 369 606
f 606 369 337
f 462 335 519
f 462 519 475
f 571 606 417
f 376 381 471
f 461 571 423
f 371 461 343
f 461 423 343
f 469 612 650
f 373 576 424
f 522 469 650
f 525 612 468
f 476 580 526
f 527 424 575
f 525 468 526
f 526 580 524
f 526 471 476
f 529 528 425
f 477 382 460
f 477 460 583
f 383 425 667
f 383 667 430
f 430 667 532
f 531 353 532
f 481 480 534
f 480 431 533
f 539 429 488
f 429 537 488
f 431 479 533
f 384 479 431
f 478 387 634
f 634 387 485
f 573 465 450
f 387 544 485
f 488 432 539
f 432 488 545
f 479 542 486
f 491 487 588
f 443 546 441
f 495 597 548
f 399 396 589
f 405 316 563
f 438 592 500
f 502 549 548
f 498 495 496
f 500 543 597
f 597 314 500
f 543 498 496
f 595 552 551
f 199 442 358
f 443 556 554
f 358 313 260
f 555 504 357
f 554 504 555
f 556 504 554
f 509 520 408
f 445 444 465
f 444 450 465
f 509 573 490
f 316 465 573
f 509 408 593
f 563 601 493
f 490 573 450
f 321 508 513
f 403 493 601
f 508 332 514
f 403 508 567
f 403 604 508
f 567 508 562
f 567 562 518
f 568 567 518
f 518 517 568
f 562 451 518
f 518 451 515
f 518 515 517
f 416 564 519
f 511 568 564
f 517 457 566
f 457 521 610
f 574 516 603
f 603 516 606
f 606 565 605
f 475 519 600
f 570 606 605
f 606 571 605
f 461 574 523
f 609 462 475
f 373 462 609
f 522 650 420
f 576 373 609
f 648 620 614
f 620 576 619
f 620 424 576
f 424 620 577
f 612 525 524
f 424 577 575
f 525 526 524
f 524 580 625
f 527 579 529
f 527 575 579
f 426 527 529
f 667 425 528
f 476 477 530
f 583 460 534
f 460 481 534
f 532 536 531
f 536 532 633
f 480 533 482
f 480 481 431
f 485 536 634
f 536 485 537
f 537 531 536
f 486 478 479
f 488 538 584
f 488 537 538
f 478 533 479
f 542 478 486
f 538 537 540
f 537 485 540
f 540 485 544
f 432 545 487
f 487 545 588
f 543 502 548
f 640 586 390
f 502 543 496
f 597 543 548
f 588 589 492
f 547 501 546
f 549 494 553
f 502 496 549
f 496 494 590
f 494 549 590
f 549 496 590
f 548 553 590
f 548 549 553
f 495 548 590
f 498 500 592
f 494 495 590
f 553 494 590
f 498 592 503
f 592 399 489
f 498 503 495
f 503 597 495
f 543 500 498
f 313 259 260
f 314 597 555
f 561 554 555
f 597 561 555
f 316 573 563
f 573 509 593
f 598 602 513
f 602 321 513
f 321 602 593
f 602 598 508
f 564 568 517
f 513 508 598
f 604 403 601
f 602 508 604
f 517 566 564
f 606 570 565
f 519 564 600
f 564 566 600
f 600 565 607
f 566 457 610
f 600 566 565
f 603 606 572
f 571 607 605
f 607 565 570
f 605 572 606
f 570 605 607
f 607 571 523
f 571 461 523
f 521 420 610
f 576 609 645
f 619 576 645
f 620 619 614
f 612 524 650
f 577 620 621
f 616 575 577
f 524 578 621
f 577 621 624
f 578 624 621
f 577 624 616
f 579 575 581
f 630 579 659
f 579 581 659
f 476 530 580
f 530 628 580
f 578 626 624
f 578 628 626
f 628 583 627
f 528 529 667
f 667 529 630
f 628 668 626
f 530 583 628
f 583 530 477
f 629 532 667
f 534 480 482
f 631 669 534
f 482 631 534
f 536 633 638
f 672 482 533
f 672 631 482
f 478 673 635
f 673 478 634
f 533 636 672
f 536 673 634
f 538 540 584
f 635 533 478
f 533 635 636
f 535 536 638
f 640 390 436
f 540 585 584
f 545 488 584
f 550 540 544
f 588 545 587
f 545 584 587
f 544 586 550
f 436 501 640
f 503 592 541
f 546 443 547
f 489 399 589
f 596 595 594
f 559 552 505
f 505 596 506
f 641 551 559
f 547 443 595
f 551 547 595
f 551 552 559
f 552 595 596
f 505 552 596
f 596 594 506
f 506 641 559
f 506 594 561
f 594 595 561
f 595 443 554
f 641 506 561
f 597 641 561
f 561 595 554
f 563 573 593
f 563 593 602
f 601 563 602
f 602 604 601
f 574 603 572
f 566 569 565
f 569 566 610
f 646 605 565
f 572 605 646
f 572 599 574
f 574 599 523
f 610 420 644
f 475 600 645
f 600 607 645
f 607 523 643
f 607 643 645
f 643 523 599
f 583 534 627
f 609 475 645
f 420 650 644
f 694 611 648
f 614 694 648
f 648 611 655
f 620 648 654
f 654 648 655
f 650 524 644
f 644 524 618
f 620 654 618
f 618 621 620
f 524 621 618
f 616 624 651
f 622 616 651
f 581 575 616
f 582 581 657
f 524 625 578
f 581 616 613
f 613 658 624
f 581 582 659
f 613 616 581
f 659 582 657
f 625 628 578
f 625 580 628
f 624 626 613
f 613 666 659
f 613 626 666
f 529 579 630
f 665 630 660
f 630 665 664
f 666 626 668
f 628 632 668
f 628 627 632
f 727 666 668
f 667 630 664
f 629 664 665
f 534 669 627
f 664 629 667
f 629 633 532
f 631 706 669
f 638 633 671
f 675 673 536
f 536 535 675
f 633 675 671
f 705 672 636
f 635 673 637
f 671 675 535
f 671 535 638
f 636 635 674
f 585 540 550
f 585 550 639
f 584 585 639
f 639 587 584
f 642 589 587
f 639 550 677
f 589 588 587
f 677 587 639
f 501 547 499
f 640 560 586
f 677 642 587
f 489 707 592
f 499 547 551
f 499 551 641
f 503 499 597
f 499 641 597
f 499 503 541
f 646 565 569
f 646 458 689
f 646 649 458
f 599 572 646
f 649 646 681
f 689 458 682
f 569 687 646
f 615 623 617
f 649 681 458
f 682 688 608
f 683 684 685
f 682 608 591
f 681 646 687
f 591 695 682
f 591 608 688
f 644 687 569
f 691 692 647
f 611 695 591
f 569 610 644
f 646 690 599
f 691 696 684
f 611 591 688
f 690 643 599
f 643 690 645
f 617 691 701
f 611 688 655
f 695 611 694
f 653 696 623
f 701 691 647
f 623 696 691
f 694 614 645
f 686 644 618
f 618 654 686
f 645 614 619
f 686 654 655
f 656 698 699
f 656 699 622
f 622 699 713
f 698 656 622
f 624 658 651
f 699 698 622
f 651 658 622
f 616 697 657
f 622 697 616
f 679 622 658
f 692 683 693
f 683 692 684
f 696 653 685
f 685 653 652
f 581 616 657
f 623 652 653
f 692 691 684
f 659 693 613
f 659 700 693
f 659 657 697
f 662 663 701
f 692 693 647
f 659 666 660
f 695 689 682
f 630 659 660
f 683 685 652
f 683 652 693
f 670 661 632
f 662 701 700
f 666 665 660
f 663 662 632
f 663 632 661
f 668 632 662
f 727 662 700
f 661 617 663
f 666 702 665
f 632 627 670
f 662 727 668
f 727 702 666
f 669 726 627
f 670 627 726
f 615 679 652
f 672 706 631
f 633 629 712
f 720 633 712
f 706 672 704
f 720 675 633
f 669 706 704
f 672 705 704
f 704 705 669
f 705 636 674
f 637 705 674
f 675 720 673
f 674 635 637
f 678 640 501
f 586 560 550
f 501 499 676
f 623 615 652
f 723 499 541
f 677 557 642
f 541 592 707
f 682 458 681
f 690 646 689
f 688 682 681
f 681 687 655
f 699 622 679
f 688 681 655
f 695 694 689
f 690 689 694
f 694 645 690
f 644 686 687
f 655 687 686
f 697 622 713
f 617 623 691
f 701 647 693
f 693 652 679
f 696 685 684
f 613 693 658
f 658 693 679
f 701 663 617
f 659 697 711
f 693 700 701
f 727 700 709
f 700 659 711
f 727 725 702
f 665 702 629
f 629 702 712
f 670 726 703
f 726 669 710
f 669 705 710
f 714 715 716
f 714 716 717
f 710 705 719
f 716 715 718
f 705 637 719
f 637 673 719
f 719 673 720
f 640 678 560
f 680 560 678
f 489 642 722
f 678 501 676
f 557 677 550
f 676 499 723
f 560 557 550
f 642 489 589
f 642 557 722
f 722 707 489
f 679 713 699
f 679 615 713
f 708 615 617
f 615 708 713
f 713 708 711
f 711 697 713
f 700 711 708
f 708 709 700
f 661 703 617
f 617 703 708
f 708 728 709
f 717 716 718
f 703 661 670
f 708 703 728
f 709 728 727
f 732 729 718
f 703 710 728
f 725 727 728
f 731 710 715
f 731 715 714
f 725 728 732
f 703 726 710
f 702 725 712
f 710 729 728
f 730 714 717
f 729 710 731
f 731 714 730
f 715 719 732
f 715 710 719
f 728 729 732
f 729 730 717
f 729 717 718
f 729 731 730
f 732 718 715
f 720 725 732
f 720 712 725
f 720 732 719
f 557 560 680
f 676 680 678
f 721 676 723
f 733 722 557
f 721 723 541
f 733 557 680
f 680 724 733
f 722 733 735
f 680 734 724
f 721 541 734
f 707 722 558
f 733 724 735
f 676 734 680
f 558 541 707
f 558 722 735
f 734 676 721
f 724 736 735
f 736 541 558
f 736 734 541
f 724 734 736
f 558 735 736
f 212 170 88

