# https://github.com/mikedh/trimesh
v -0.81894469 -0.41839194 0.06963208
v -0.87355947 -0.39165920 0.02562485
v -0.87346953 -0.39172477 0.02568919
v -0.87346947 -0.37215921 0.04515485
v -0.87346947 -0.37603921 0.04130485
v -0.88358355 -0.38119546 0.02240272
v -0.86915022 -0.43000561 -0.00755966
v -0.87351948 -0.37993920 0.03734485
v -0.87352949 -0.38384920 0.03343485
v -0.87346947 -0.38000920 0.03734485
v -0.82614946 -0.39539093 0.08365813
v -0.88598281 -0.11485928 -0.36775959
v -0.93601227 -0.36788744 -0.13562581
v -0.87049949 -0.37212920 0.04906485
v -0.87052947 -0.37993920 0.04124485
v -0.87345213 -0.38313678 0.03426126
v -0.87056947 -0.39165920 0.02953485
v -0.87346947 -0.39556921 0.02186485
v -0.87346947 -0.38785920 0.02953485
v -0.88717955 -0.36944273 0.02955499
v -0.87346947 -0.37993920 0.03741485
v -0.87346947 -0.37608922 0.04124485
v -0.82267946 -0.40341920 0.08031485
v -0.82267946 -0.40728921 0.07645485
v -0.81972945 -0.40728921 0.08031485
v -0.87736946 -0.38384920 0.02842485
v -0.87346947 -0.36823919 0.04906485
v -0.87348950 -0.37212920 0.04515485
v -0.87347060 -0.37213048 0.04519110
v -0.87350947 -0.37603921 0.04124485
v -0.87361801 -0.36656430 0.05057265
v -0.87346947 -0.38393921 0.03343485
v -0.87354946 -0.38774920 0.02953485
v -0.87346947 -0.38774920 0.02963485
v -0.87947947 -0.37212920 0.03734485
v -0.82273948 -0.41118920 0.07249485
v -0.82270610 -0.40731937 0.07639806
v -0.90985024 0.02176856 0.06751381
v -0.78314871 -0.44305322 0.09579925
v -0.83853132 -0.29144904 0.14737335
v -0.64127034 -0.45916986 0.10393577
v -0.68966252 -0.40709543 0.38903093
v -0.71198303 -0.05989175 -0.25392309
v -0.88145715 -0.03210654 -0.11886066
v -0.69775105 -0.41538343 0.38503027
v -0.72488630 -0.13282616 -0.41549134
v -0.70977384 -0.20427489 0.02262005
v -0.69768220 -0.41509840 0.38500172
v -0.69895345 -0.41578546 0.38467589
v -0.69172502 -0.31001002 -0.10729649
v -0.73178673 -0.31814939 -0.33478174
v -0.68979442 -0.40730587 0.38899389
v -0.71843570 -0.51095933 0.38164136
v -0.72360080 -0.41289532 0.36057776
v -0.60409731 -0.44212520 0.12211125
v -0.68988127 -0.40730315 0.38892969
v -0.68986946 -0.40337920 0.38795486
v -0.68314594 -0.18333875 -0.42432299
v -0.71588731 -0.24585882 -0.18839233
v -0.61941534 -0.27840668 -0.44701427
v -0.61955947 -0.27837920 -0.44690517
v -0.56045389 -0.36517447 0.41669396
v -0.68134123 -0.40616760 0.39480847
v -0.66859609 -0.38128424 0.39373428
v -0.60652161 -0.26282015 -0.24852642
v -0.67018348 -0.22192238 -0.41229013
v -0.67424947 -0.20400921 -0.41967514
v -0.67033947 -0.20407921 -0.42358515
v -0.53357518 -0.12639557 -0.56588054
v -0.66642946 -0.20415920 -0.42748517
v -0.67495918 -0.20419051 -0.41884792
v -0.66642809 -0.20414202 -0.42750224
v -0.66642946 -0.20806921 -0.42486516
v -0.62346685 -0.28241181 -0.44311702
v -0.60001945 -0.44243920 0.12328485
v -0.59989947 -0.43853921 0.12328485
v -0.66682476 -0.47555336 0.21625252
v -0.60002947 -0.43462920 0.12320485
v -0.58533442 -0.28758848 -0.47704050
v -0.62346947 -0.28228921 -0.44314516
v -0.62351155 -0.28225371 -0.44311282
v -0.64026737 -0.28237119 0.36552492
v -0.63515830 -0.27832711 -0.43530920
v -0.67372447 -0.27530992 0.07951695
v -0.64384180 -0.22575402 -0.44010884
v -0.56518948 -0.24934888 0.03920662
v -0.55679673 -0.27074847 -0.16225223
v -0.60002947 -0.44243920 0.12327485
v -0.62709260 -0.52639771 0.47528443
v -0.60002881 -0.44269037 0.12328319
v -0.53769857 -0.46240517 0.63157362
v -0.59593558 -0.41875035 0.12425452
v -0.60002947 -0.43853921 0.12324485
v -0.59473211 -0.43468994 0.12472563
v -0.53769076 -0.46602517 0.62733805
v -0.57264555 -0.34965059 0.38566160
v -0.55675685 -0.27693856 -0.18965067
v -0.47911730 -0.27306262 0.24201542
v -0.66642946 -0.20996921 -0.42358515
v -0.67031550 -0.20415561 -0.42356142
v -0.72295642 -0.13770452 0.16513035
v -0.59579515 -0.33057231 0.49452406
v -0.60102588 -0.41276908 0.11260251
v -0.54135317 -0.46984878 0.62328494
v -0.56878853 -0.38039798 0.40456650
v -0.56879950 -0.37993920 0.40453485
v -0.56877947 -0.37603921 0.40454486
v -0.56878948 -0.37603921 0.40453485
v -0.56877947 -0.37363920 0.40453485
v -0.55422372 -0.43201470 0.14400457
v -0.61943656 -0.27464643 -0.44785133
v -0.54530412 -0.27057537 -0.18530256
v -0.54778945 -0.27056921 -0.18921515
v -0.44111231 -0.10660491 -0.47455147
v -0.51036537 -0.20029230 -0.39245734
v -0.54127949 -0.46978921 0.62328488
v -0.53752947 -0.46589920 0.62718487
v -0.55314314 -0.48990193 0.42527345
v -0.54209566 -0.46956939 0.62344229
v -0.53749871 -0.46587268 0.62718022
v -0.54533947 -0.27056921 -0.18535516
v -0.47470090 -0.35977584 0.12519410
v -0.54969490 -0.26467139 -0.19246525
v -0.54533947 -0.26459920 -0.18921515
v -0.54527944 -0.26665920 -0.18530513
v -0.54533947 -0.26665920 -0.18535516
v -0.54530948 -0.27056921 -0.18530513
v -0.50236946 -0.22750920 -0.20874515
v -0.54353005 -0.22565857 -0.20353834
v -0.49990031 -0.16817373 -0.39884552
v -0.42070192 -0.38198730 0.65639663
v -0.50231659 -0.23156013 -0.20487796
v -0.50627947 -0.22759920 -0.20615515
v -0.51380754 -0.23752104 -0.35061541
v -0.50242949 -0.23149921 -0.20483515
v -0.50236946 -0.23149921 -0.20487516
v -0.49600586 -0.24314797 -0.19548573
v -0.50627947 -0.23314920 -0.20092516
v -0.50236946 -0.22759920 -0.20866515
v -0.49846947 -0.22759920 -0.21117514
v -0.50224948 -0.22759920 -0.20874515
v -0.45550266 -0.26274845 -0.35302752
v -0.49455658 -0.16899720 -0.40406862
v -0.49468085 -0.15754382 -0.40783882
v -0.49456948 -0.16899921 -0.40405515
v -0.49846947 -0.16879921 -0.40014514
v -0.49839947 -0.16899921 -0.40014514
v -0.53427625 -0.13099962 -0.40469906
v -0.47635812 -0.34018716 -0.43188882
v -0.43228003 -0.10341385 -0.46747383
v -0.45158947 -0.26274920 -0.35713515
v -0.45549947 -0.26272920 -0.35327515
v -0.45939946 -0.26267922 -0.34936514
v -0.42474341 -0.27472791 -0.62283778
v -0.45163184 -0.26274851 -0.35715550
v -0.45148388 -0.26275107 -0.35715708
v -0.49448538 -0.16904017 -0.40414208
v -0.48052701 -0.21291339 -0.23747268
v -0.45074677 -0.45699361 0.56439412
v -0.35484844 -0.32124674 -0.43042412
v -0.43368825 -0.26287159 -0.35956600
v -0.43596947 -0.09868921 -0.47034514
v -0.40162843 -0.31012619 -0.05690651
v -0.40080947 -0.27837920 -0.61108512
v -0.39692947 -0.27837920 -0.61499512
v -0.40078947 -0.27837920 -0.61108512
v -0.39387238 -0.27835050 -0.61888570
v -0.29353076 -0.23687845 -0.23234501
v -0.38328239 -0.20270796 -0.44008717
v -0.43596947 -0.10649921 -0.47046515
v -0.43596947 -0.10700921 -0.47046515
v -0.43113211 -0.07990393 -0.46638629
v -0.43603948 -0.10259920 -0.47046515
v -0.43607342 -0.09651711 -0.47040454
v -0.40471947 -0.27802920 -0.61499512
v -0.30383947 -0.28485683 0.00444640
v -0.40514851 -0.27837387 -0.60667974
v -0.40471947 -0.27837920 -0.60717511
v -0.48873636 -0.26713276 -0.18923251
v -0.44003391 -0.23820111 -0.24540611
v -0.35595247 -0.27786747 -0.62420094
v -0.38613465 -0.27910995 -0.60950983
v -0.43596947 -0.10259920 -0.47039515
v -0.43596947 -0.10649921 -0.47045514
v -0.36425313 -0.40075600 0.07523744
v -0.40080947 -0.27837920 -0.61106515
v -0.39689946 -0.27854919 -0.61108512
v -0.35793835 -0.27475479 -0.30012700
v -0.39459071 -0.51662284 0.76050937
v -0.59494644 -0.39099512 0.26078168
v -0.21186382 -0.46616533 0.68851715
v -0.23697750 -0.37577155 -0.57571042
v -0.27674353 -0.35881013 -0.63150525
v -0.30311674 -0.34211227 0.15102226
v -0.24422742 -0.38159373 -0.50827610
v -0.34966958 0.09252880 -0.52168405
v -0.34518594 -0.27553144 -0.60711890
v -0.11006947 -0.20024921 -0.48217514
v -0.10783947 -0.20024921 -0.48217514
v -0.24070217 -0.37603554 -0.56773800
v -0.24072947 -0.37603921 -0.56811512
v -0.24455947 -0.37637922 -0.57202512
v -0.24064948 -0.37602919 -0.57202512
v -0.24064948 -0.37603921 -0.57263511
v -0.25737110 -0.25943550 0.04217181
v -0.24065948 -0.37603921 -0.57202512
v -0.23674947 -0.27455920 0.04906485
v -0.23311622 -0.28634390 0.05345483
v -0.24064885 -0.27447683 0.04514559
v -0.14209141 -0.18194032 -0.70790821
v -0.23679948 -0.27446920 0.04906485
v -0.23674947 -0.27458921 0.05296485
v -0.24063948 -0.27446920 0.04515485
v -0.24455947 -0.27056921 0.04329485
v -0.24064948 -0.27444920 0.04515485
v -0.27619570 -0.38968071 -0.12626065
v -0.22668736 -0.35709447 -0.01273887
v -0.07180345 -0.37159169 -0.12100526
v -0.10109103 -0.49006513 0.88817888
v -0.19267191 -0.37658912 0.82030123
v -0.11441012 -0.17812653 -0.49667066
v -0.09975563 -0.20022403 -0.48216712
v -0.15729563 -0.50135493 0.80405879
v -0.19621786 0.06217971 -0.61152130
v -0.08439947 -0.48550922 0.88890487
v -0.08049947 -0.49321920 0.88743484
v -0.08049947 -0.48540920 0.88890487
v -0.07921948 -0.48540920 0.88890487
v -0.08830947 -0.48540920 0.88893485
v -0.08439947 -0.48540920 0.88892490
v 0.06399066 -0.25524387 -0.24532834
v -0.10002947 -0.20024921 -0.48215514
v -0.10392948 -0.20024921 -0.48216516
v -0.10783947 -0.20023921 -0.48217514
v -0.10392948 -0.20021921 -0.48217514
v -0.11857282 -0.21977487 -0.47146273
v -0.16697538 0.25489777 -0.80044502
v -0.07233180 -0.47076708 0.89160293
v -0.03965984 -0.50665689 0.88265133
v -0.08049947 -0.48542920 0.88890487
v -0.14414392 -0.29238954 -0.23693182
v -0.06634505 -0.35535553 -0.27784932
v -0.03353635 -0.08833101 -0.53947008
v -0.07010899 0.23383020 -0.62962931
v -0.02971947 -0.35311919 -0.57983512
v -0.03361947 -0.35395920 -0.58374512
v -0.03381884 -0.35400686 -0.58392817
v -0.02968725 -0.35652077 -0.58373123
v -0.09100853 -0.38159025 -0.66920447
v -0.03362399 -0.35650066 -0.58764458
v -0.03361947 -0.35649920 -0.58764511
v -0.04208435 -0.35696831 -0.59389299
v 0.04082721 -0.39654005 0.31554663
v -0.02971947 -0.35649920 -0.58377510
v -0.02971947 -0.35638919 -0.58374512
v 0.00934195 -0.30966690 -0.50570256
v 0.00948053 -0.30962920 -0.50171512
v 0.01324053 -0.30741921 -0.50171512
v 0.00934053 -0.30975920 -0.50561512
v 0.00928053 -0.30962920 -0.50561512
v 0.00934053 -0.30971920 -0.50171512
v 0.00922935 -0.30959797 -0.50166345
v 0.00978154 -0.28149524 -0.47469595
v -0.15617728 -0.33089718 -0.42920136
v -0.02666913 -0.36107603 -0.51642656
v 0.00726053 -0.30571920 -0.50171512
v 0.21579197 -0.20898452 -0.73280185
v 0.07741620 -0.33945662 -0.29168680
v 0.08559503 -0.23396692 0.39821917
v 0.24757698 -0.42361203 0.86776990
v 0.04662753 0.28294688 -0.77853912
v 0.25934052 -0.51480919 -0.63452512
v 0.06003920 -0.43311051 0.52290648
v 0.09592523 -0.32762131 -0.51059020
v 0.09806425 -0.33868918 0.20486994
v 0.09213638 -0.28051925 0.50644666
v 0.13870914 -0.33293426 0.75345618
v 0.22028053 0.08972079 -0.65014511
v 0.06995025 0.33900246 -0.63167292
v 0.00684477 -0.40302700 0.46299529
v 0.17108119 -0.34753051 0.35644400
v 0.09645975 -0.29915360 0.87835383
v 0.09641754 -0.00452786 -0.51571941
v 0.09522339 -0.06696074 -0.77601290
v 0.23981053 -0.52056921 -0.63468510
v 0.25153053 -0.51709920 -0.63452512
v 0.23981053 -0.52054918 -0.63452512
v 0.19837877 -0.24580628 -0.43987793
v 0.22550052 -0.20806921 -0.45092514
v 0.22023053 0.08880079 -0.65014511
v 0.23517719 -0.45632151 -0.71762347
v 0.21576408 -0.52138954 -0.60830212
v 0.23185053 -0.20806921 -0.44702515
v 0.23188370 -0.20465440 -0.44693342
v 0.19573787 0.14177001 -0.62167817
v 0.17154340 0.33283368 -0.76182401
v 0.23604058 0.37699676 -0.76101685
v 0.23635437 0.37835267 -0.80303258
v 0.21570304 0.39728263 -0.86411297
v 0.21416862 0.33386219 -0.65163612
v 0.23981053 -0.52006918 -0.63061512
v 0.20675941 -0.42044330 0.71413034
v 0.25150639 -0.51666737 -0.63088542
v 0.11313278 -0.47721639 -0.55801249
v 0.23198053 -0.21196921 -0.44702515
v 0.30027124 -0.25690621 -0.29531232
v 0.25153053 -0.51662922 -0.63061512
v 0.23924488 -0.52078617 -0.63522971
v 0.22809052 -0.28228921 0.76942486
v 0.22037053 -0.28228921 0.76390487
v 0.22039053 -0.27837920 0.76781487
v 0.21927211 -0.28216961 0.76343250
v 0.31390387 -0.49352136 -0.59157735
v 0.22023229 -0.29100290 0.75542581
v 0.14993289 -0.19059776 -0.50119257
v 0.25633499 -0.33713630 -0.43589401
v 0.22028053 -0.28221920 0.76390487
v 0.22028053 -0.27828920 0.76781487
v 0.21637052 -0.27837920 0.76623487
v 0.22028053 -0.27837920 0.76772487
v 0.38708866 -0.47325793 -0.69264704
v 0.23198736 -0.21212517 -0.44702262
v 0.23199053 -0.20806921 -0.44693515
v 0.22059403 0.09149473 -0.65001184
v 0.22028053 0.08489079 -0.65016514
v 0.22027649 0.08480465 -0.65015912
v 0.22026138 0.07650111 -0.64954495
v 0.21603002 0.08822050 -0.64586467
v 0.22033904 0.08492321 -0.65013784
v 0.22028053 0.08880079 -0.65018511
v 0.13610324 0.01488652 -0.62853253
v 0.22880295 0.06333776 -0.64426887
v 0.23980053 0.38958079 -0.75171512
v 0.23980053 0.38958079 -0.74780512
v 0.23981053 0.38959080 -0.75171512
v 0.23983052 0.38958079 -0.77514511
v 0.23981053 0.38950080 -0.77514511
v 0.23982053 0.38958079 -0.77124512
v 0.23981053 0.38952079 -0.77124512
v 0.25127351 0.42819718 -0.79245150
v 0.23982143 0.38947570 -0.79191977
v 0.23981053 0.38944080 -0.79077512
v 0.23984052 0.38958079 -0.78686512
v 0.23981053 0.38946080 -0.78686512
v 0.23984052 0.38958079 -0.78296512
v 0.23983052 0.38958079 -0.77905512
v 0.50555956 -0.40480044 -0.25055474
v 0.21690537 -0.28891054 -0.20079704
v 0.16987936 -0.22926284 0.80239719
v 0.25872028 -0.25690198 -0.37417638
v 0.22581053 -0.28618920 0.76390487
v 0.26916054 -0.26274920 -0.35717514
v 0.30036861 -0.24593553 -0.06962751
v 0.23737203 -0.27848831 0.78134823
v 0.26283908 -0.36242050 0.75019544
v 0.26610905 -0.24170861 0.38298661
v 0.21313824 -0.20332165 -0.34543967
v 0.26718053 -0.27056921 -0.36108515
v 0.25543052 -0.25103921 0.38887486
v 0.25543052 -0.24712920 0.38887486
v 0.25541052 -0.24712920 0.38890484
v 0.23696972 -0.19143222 -0.44349572
v 0.26310647 0.21059449 -0.61347914
v 0.23981053 0.38958079 -0.75471514
v 0.23982053 0.38958079 -0.76733512
v 0.24289136 0.40024808 -0.70917189
v 0.23979053 0.38958079 -0.74389511
v 0.23979053 0.38958079 -0.73999512
v 0.23981053 0.38962078 -0.74389511
v 0.23981053 0.38961080 -0.74780512
v 0.23981053 0.38953081 -0.76733512
v 0.23981053 0.38958079 -0.75561512
v 0.23981053 0.38947079 -0.78296512
v 0.23981053 0.38949078 -0.77905512
v 0.23982053 0.38958079 -0.76342511
v 0.23981053 0.38955081 -0.76342511
v 0.23981053 0.38958079 -0.75952512
v 0.23981053 0.38956079 -0.75952512
v 0.23430760 0.37376240 -0.71629924
v 0.23979053 0.38958079 -0.73608512
v 0.26715052 -0.26274920 -0.36110514
v 0.26715052 -0.26665920 -0.36114514
v 0.26515052 -0.26274920 -0.36499515
v 0.19102748 -0.35449305 -0.22144940
v 0.26718053 -0.26665920 -0.36108515
v 0.25398308 -0.31859624 0.38134742
v 0.36425099 -0.28244495 0.42515144
v 0.26715052 -0.26271921 -0.36108515
v 0.25544420 -0.23930076 0.38886744
v 0.26716053 -0.26274920 -0.36108515
v 0.25541052 -0.24321921 0.38890484
v 0.25543052 -0.25493920 0.38887486
v 0.22745544 -0.22478071 0.40365481
v 0.25541052 -0.23931921 0.38890484
v 0.25543052 -0.24321921 0.38887486
v 0.25537267 -0.23926394 0.38899949
v 0.27310175 -0.23685047 0.37772140
v 0.23981053 0.38964078 -0.73999512
v 0.43149841 -0.42408773 0.52184266
v 0.27026731 -0.30507746 0.58909124
v 0.13877691 -0.31538448 -0.50099862
v 0.29116285 -0.28047058 0.48178503
v 0.24397172 0.40367270 -0.75258583
v 0.27236035 0.50432295 -0.72422063
v 0.36434799 -0.31625482 0.00337423
v 0.37827671 -0.33302727 0.28464925
v 0.32826513 -0.30400518 0.11194698
v 0.32953754 -0.25966939 -0.39114505
v 0.49715158 0.08264321 -0.76346296
v 0.29605344 0.10790654 -0.44657937
v 0.46975517 -0.36359262 -0.14089459
v 0.27140561 -0.39991155 0.50171626
v 0.38020390 -0.26281959 0.06478111
v 0.37653053 -0.25884920 0.07064485
v 0.38125053 -0.25493920 0.07249485
v 0.46246082 0.05773042 -0.82202411
v 0.48561794 -0.35004586 0.13245100
v 0.40023941 -0.22353777 -0.61140841
v 0.46243054 0.04974079 -0.82202512
v 0.46246052 0.05364079 -0.82199514
v 0.46246052 0.04974079 -0.82196510
v 0.46244052 0.05364079 -0.82202512
v 0.50602371 0.09851865 -0.35021216
v 0.42743722 0.32872039 -0.86669660
v 0.38043052 -0.26274920 0.06477485
v 0.38043052 -0.25888920 0.06859485
v 0.38053054 -0.25884920 0.06859485
v 0.38043052 -0.25884920 0.06864485
v 0.38059053 -0.26274920 0.06468485
v 0.38280946 -0.26658842 0.06040402
v 0.35863960 -0.25306946 0.08688226
v 0.50983208 -0.20481358 -0.75930029
v 0.45200825 0.09674968 -0.83886993
v 0.50866419 0.09031550 -0.72652346
v 0.46246052 0.05755079 -0.82201511
v 0.39412108 0.28785545 -0.57462949
v 0.45292887 0.04632642 -0.83787811
v 0.40778053 0.33882079 -0.64233512
v 0.40772721 0.33879638 -0.64234996
v 0.41168052 0.33654079 -0.63452512
v 0.41167054 0.33880079 -0.63842511
v 0.41168052 0.33880079 -0.63842511
v 0.41559052 0.33880079 -0.63453513
v 0.41168052 0.33880079 -0.63841510
v 0.54215395 0.27430791 -0.44297817
v 0.32818818 -0.13647854 -0.91367620
v 0.49762052 -0.33696920 -0.71951514
v 0.46145901 -0.43805233 0.70443684
v 0.47173721 -0.26184583 0.11980980
v 0.45081061 -0.22998485 0.48795655
v 0.50153053 -0.34478921 -0.72042513
v 0.50153053 -0.34087920 -0.72044510
v 0.50160050 -0.34087920 -0.72046512
v 0.46241054 0.04583079 -0.82202512
v 0.49969187 0.02774943 -0.76282722
v 0.51214832 0.18837360 -0.72246039
v 0.47809052 0.10442079 -0.79589510
v 0.47421053 0.10833079 -0.80249512
v 0.47422051 0.11224079 -0.80249512
v 0.42580879 0.34828201 -0.64145625
v 0.47416052 0.09661079 -0.80249512
v 0.47418052 0.10052079 -0.80249512
v 0.47418052 0.10052079 -0.80248511
v 0.54944372 -0.40796760 -0.70240849
v 0.43187335 -0.33509517 -0.06131779
v 0.44941151 -0.29585263 -0.70745963
v 0.50285012 -0.33138040 -0.72080272
v 0.46706054 0.05364079 -0.81421512
v 0.47422719 0.11639859 -0.80251735
v 0.47418052 0.10442079 -0.80250514
v 0.46820220 0.11185535 -0.81268305
v 0.47418052 0.10833079 -0.80253512
v 0.60310131 -0.34853283 -0.69311577
v 0.47418052 0.11224079 -0.80256510
v 0.47414052 0.09271079 -0.80249512
v 0.47418052 0.09661079 -0.80245513
v 0.51368254 0.31519496 -0.48889297
v 0.53668052 0.29974079 -0.45878515
v 0.53668052 0.29964080 -0.45874515
v 0.53672051 0.29974079 -0.45874515
v 0.49533841 0.40301493 -0.69470251
v 0.50153053 -0.33696923 -0.72045344
v 0.50155050 -0.33694556 -0.72053677
v 0.48984447 -0.31559384 0.32664356
v 0.50153053 -0.33696920 -0.72046512
v 0.54520535 -0.11796392 0.25677165
v 0.58387053 0.01849079 -0.68921512
v 0.53691179 -0.07773647 -0.73052526
v 0.44664359 -0.14288855 -0.27348498
v 0.47418052 0.11614079 -0.80259514
v 0.47418052 0.10171080 -0.80249512
v 0.47419053 0.10442079 -0.80249512
v 0.50982344 -0.33548290 0.32779413
v 0.53356951 -0.31847277 0.11948362
v 0.46132106 -0.31832287 -0.15683813
v 0.57788116 0.00319301 -0.69633573
v 0.58746052 0.01473079 -0.68921512
v 0.54059052 0.30364078 -0.45664516
v 0.64606035 0.15068886 -0.32270527
v 0.64216053 0.15911080 -0.32592514
v 0.64215052 0.16302079 -0.32594514
v 0.64215052 0.15911080 -0.32594514
v 0.54059070 0.29973391 -0.45483342
v 0.60886049 -0.40493369 0.38485178
v 0.62654054 -0.45024920 -0.34155515
v 0.62653053 -0.45019922 -0.34155515
v 0.62655056 -0.45024920 -0.33764514
v 0.50218737 -0.34725505 -0.72057116
v 0.60702318 -0.35266227 -0.69311970
v 0.60697055 -0.35259920 -0.69311512
v 0.60697538 -0.35259548 -0.69311124
v 0.65394807 -0.16140527 0.32277039
v 0.57576662 -0.02705226 -0.09086276
v 0.57183135 -0.10260389 0.29896432
v 0.58746052 0.00286079 -0.69304514
v 0.57428509 -0.17605838 0.39526820
v 0.54059052 0.29972079 -0.45483515
v 0.62397057 -0.44037712 -0.37875855
v 0.64215052 0.13958079 -0.32594514
v 0.64215052 0.14349079 -0.32594514
v 0.53285050 0.29974079 -0.46264514
v 0.60056776 -0.49635738 -0.25156206
v 0.61850053 -0.35259920 -0.68921512
v 0.61477274 -0.34868917 -0.68921417
v 0.61481053 -0.34868920 -0.68919510
v 0.61104053 -0.34478921 -0.68921512
v 0.58555037 -0.26769853 -0.13026316
v 0.61871052 -0.34478921 -0.68661511
v 0.61871052 -0.35259920 -0.68913513
v 0.59918052 -0.34478921 -0.69323510
v 0.61871052 -0.35649920 -0.69040513
v 0.61871052 -0.35281920 -0.68921512
v 0.62223053 -0.35649920 -0.68921512
v 0.61033231 -0.34462619 -0.68938059
v 0.56793052 -0.10741921 0.30296484
v 0.65387052 -0.16118921 0.32320485
v 0.64996052 -0.16500920 0.33031484
v 0.64996052 -0.16509920 0.33022484
v 0.57077432 -0.10838373 0.31772628
v 0.64996052 -0.17290920 0.32250485
v 0.66292793 -0.17210907 0.27389863
v 0.63231772 0.00790312 -0.67603177
v 0.64995050 -0.16899921 0.32640484
v 0.57672083 -0.09721151 0.29667279
v 0.57184047 -0.10259919 0.29905096
v 0.57183570 -0.10539322 0.31006509
v 0.56793052 -0.10649921 0.29936484
v 0.56788582 -0.10650598 0.29921967
v 0.64992052 -0.16118921 0.33421484
v 0.65903723 -0.11858501 0.35017934
v 0.62506127 -0.35864213 -0.68893915
v 0.58746052 0.01458079 -0.68925512
v 0.63897783 -0.06081342 0.30443430
v 0.59137052 0.01458079 -0.68793511
v 0.58365130 0.08899971 -0.66804397
v 0.58760053 0.01458079 -0.68921512
v 0.59137052 0.01067079 -0.68919510
v 0.59136611 0.01064625 -0.68920904
v 0.54597545 0.11322352 -0.43395683
v 0.64345562 0.10980738 -0.34498700
v 0.64215052 0.13567080 -0.32594514
v 0.64216053 0.13177079 -0.32592514
v 0.64216053 0.13567080 -0.32592514
v 0.64606094 0.12490387 -0.32270479
v 0.64216053 0.17083079 -0.32592514
v 0.64215052 0.12786080 -0.32594514
v 0.64216053 0.12396079 -0.32592514
v 0.64216053 0.12786080 -0.32592514
v 0.64216053 0.13958079 -0.32592514
v 0.49779490 0.47954735 -0.51013434
v 0.59137052 0.47247079 -0.56421512
v 0.60213828 0.42366025 -0.57230985
v 0.59130055 0.46380079 -0.56421512
v 0.59137052 0.46380079 -0.56425512
v 0.59133053 0.46771079 -0.56421512
v 0.59137052 0.46771079 -0.56423515
v 0.59137052 0.45989078 -0.56428510
v 0.59136051 0.47161078 -0.56421512
v 0.59137052 0.47161078 -0.56421512
v 0.58092022 0.47040951 -0.55682778
v 0.61030948 0.11895668 -0.14326645
v 0.62652737 -0.45024073 -0.34554064
v 0.62653053 -0.45024920 -0.34546515
v 0.62747055 -0.45415920 -0.34546515
v 0.60309052 -0.34868920 -0.69317514
v 0.55880761 -0.49170563 0.33397159
v 0.61491436 -0.33674642 -0.68532062
v 0.74492532 -0.45837417 0.12490279
v 0.64993054 -0.16509920 0.33031484
v 0.64996052 -0.16895920 0.32640484
v 0.58387315 -0.24100940 -0.66474283
v 0.59314817 -0.13647209 0.14646462
v 0.73669767 0.04893269 -0.15008217
v 0.64215052 0.15130079 -0.32594514
v 0.64215052 0.15521079 -0.32594514
v 0.63259399 0.18875119 -0.36350709
v 0.65352970 0.18685856 -0.32046464
v 0.64215052 0.13177079 -0.32594514
v 0.64216053 0.16692080 -0.32592514
v 0.64215052 0.17083079 -0.32595515
v 0.64216053 0.15130079 -0.32592514
v 0.71744204 0.17070802 -0.49272817
v 0.60424429 0.46562839 -0.57341820
v 0.69294339 -0.39945170 0.20531166
v 0.69686067 -0.40325516 0.20134795
v 0.64996207 -0.16922379 0.32613561
v 0.70104414 -0.39365470 0.18696763
v 0.55100143 -0.06839267 0.00517680
v 0.65690053 -0.15337920 0.32249483
v 0.68785566 -0.35818616 0.17669441
v 0.69685602 -0.40336481 0.20144302
v 0.74106246 -0.04782629 -0.49887851
v 0.62809467 0.03850340 -0.33186314
v 0.64216053 0.15521079 -0.32592514
v 0.79449052 0.32708079 -0.14624515
v 0.64215052 0.14739080 -0.32594514
v 0.64216053 0.14349079 -0.32592514
v 0.64216053 0.14739080 -0.32592514
v 0.65778035 0.11612939 -0.15405557
v 0.65346003 0.12041990 -0.15406696
v 0.65778053 0.11614079 -0.15405513
v 0.64216053 0.16302079 -0.32592514
v 0.66168052 0.11229079 -0.15405513
v 0.66086656 0.08284640 -0.14524025
v 0.66849542 0.10817207 -0.15475649
v 0.77930516 0.15438667 -0.26439002
v 0.64215600 0.18417011 -0.32593822
v 0.64215052 0.16692080 -0.32594514
v 0.59909344 0.29657552 -0.39512396
v 0.66168052 0.11614079 -0.15513515
v 0.87434363 0.31236923 -0.11699433
v 0.66657645 -0.39271516 0.23936953
v 0.70074052 -0.40728921 0.19762485
v 0.70076519 -0.40732676 0.19761015
v 0.68170506 -0.37515837 -0.60984415
v 0.69688052 -0.40337920 0.20140484
v 0.70070225 -0.40711313 0.19756038
v 0.76246625 -0.23676588 0.11810733
v 0.66206819 0.11205320 -0.15409209
v 0.66168052 0.11224079 -0.15403515
v 0.66559052 0.10833079 -0.15401515
v 0.71635979 0.27237424 -0.32592508
v 0.68033385 0.29346922 -0.34550208
v 0.71637052 0.27630079 -0.32621515
v 0.71637142 0.27241433 -0.32592499
v 0.80329394 0.18330407 -0.10469661
v 0.62434626 0.50282753 -0.59280723
v 0.72579300 -0.27580702 -0.27786532
v 0.80416518 -0.26489705 0.08485285
v 0.61279720 -0.43982184 -0.01530966
v 0.75553054 -0.23931921 0.12328485
v 0.75550056 -0.24321921 0.12328485
v 0.75543052 -0.26665920 0.12323485
v 0.75539052 -0.26274920 0.12328485
v 0.75537056 -0.26665920 0.12328485
v 0.75534052 -0.27056921 0.12328485
v 0.75548053 -0.24712920 0.12328485
v 0.75546050 -0.25103921 0.12328485
v 0.75543052 -0.25103921 0.12329485
v 0.75030053 -0.23931921 0.12718485
v 0.77106053 -0.24321921 0.11166485
v 0.77120054 -0.24321921 0.11156485
v 0.77122051 -0.23931921 0.11156485
v 0.75548786 -0.23539639 0.12332542
v 0.69157761 0.16272537 -0.17732356
v 0.74787831 0.27787870 -0.30511281
v 0.79253054 0.31146079 -0.15014514
v 0.72422445 0.26854348 -0.32202765
v 0.79518050 0.31927079 -0.15796515
v 0.79449481 0.32314226 -0.15014467
v 0.79648054 0.33099079 -0.15405513
v 0.79450053 0.32317078 -0.15014514
v 0.70754778 0.47976014 -0.42412573
v 0.82677513 0.42303553 -0.27073646
v 0.64115345 -0.41204524 -0.32716513
v 0.74764735 -0.26555759 0.12919728
v 0.75543052 -0.25493920 0.12328485
v 0.80236721 -0.38882419 -0.12042596
v 0.72481042 -0.23677415 0.14497797
v 0.75555050 -0.23540920 0.12328485
v 0.77106053 -0.24712920 0.11164485
v 0.76156843 -0.21426384 0.11887994
v 0.75543052 -0.23931921 0.12335486
v 0.75394356 -0.26795143 0.12431118
v 0.75543123 -0.26201102 0.12324691
v 0.75543052 -0.27056921 0.12321485
v 0.75543052 -0.27446920 0.12319485
v 0.74299759 -0.29824576 0.13749166
v 0.72418052 0.26849079 -0.32203516
v 0.72418034 0.26825118 -0.32202378
v 0.95351130 0.43863222 -0.29052970
v 0.85550332 -0.33766574 -0.42576557
v 0.75543052 -0.24321921 0.12333484
v 0.76545864 -0.25285578 0.11580277
v 0.75543052 -0.24712920 0.12331485
v 0.77118331 -0.24839315 0.11155163
v 0.70559937 0.13228121 0.05424222
v 0.79059136 -0.01274867 -0.13843180
v 0.78313446 -0.01634022 -0.11945029
v 0.72809052 0.26067078 -0.31965515
v 0.78971428 0.25587350 -0.18735588
v 0.70692092 -0.10787686 0.17437567
v 0.79059052 -0.01274921 -0.13843516
v 0.79047054 -0.00493921 -0.13842516
v 0.79052055 -0.00884921 -0.13842516
v 0.79059052 -0.00884921 -0.13851514
v 0.79031324 0.32767251 -0.12001083
v 0.79449052 0.31917080 -0.15405513
v 0.79449052 0.31927079 -0.15395515
v 0.79451054 0.31927079 -0.15405513
v 0.87653053 0.28802079 -0.11112515
v 0.93449092 -0.30260482 -0.24791035
v 0.87307811 0.27581319 -0.10956635
v 0.87262052 0.28802079 -0.11110515
v 0.86879677 0.28799987 -0.11108532
v 0.87262052 0.28785080 -0.11108515
v 0.86858028 0.28801811 -0.11108475
v 0.86366004 0.37068084 -0.39455158
v 0.90174466 -0.33950564 -0.07760056
v 0.98697495 -0.23532400 -0.26661536
v 0.95066053 -0.18071921 -0.17358515
v 0.95218050 -0.18071921 -0.17749515
v 0.95465052 -0.18071921 -0.18379515
v 0.95074052 -0.18071921 -0.17380515
v 0.95060897 -0.17722362 -0.17371330
v 0.89119250 0.04390479 -0.35535413
v 0.82907033 0.01688037 -0.09073030
v 0.97473234 0.06434427 -0.24318866
v 0.94637513 -0.15513591 -0.16438536
v 0.92761469 0.28733048 -0.11306658
f 4 5 29
f 8 9 10
f 11 16 17
f 6 18 2
f 19 3 17
f 8 21 22
f 23 24 25
f 9 20 26
f 27 28 29
f 30 5 4
f 5 30 22
f 31 28 27
f 30 4 28
f 9 8 20
f 32 33 34
f 33 9 34
f 9 33 32
f 33 26 6
f 2 33 6
f 26 33 34
f 6 26 20
f 13 7 6
f 6 7 18
f 30 5 35
f 5 28 35
f 28 5 30
f 34 33 19
f 8 30 35
f 10 16 15
f 28 20 35
f 13 20 40
f 20 8 35
f 28 31 20
f 6 20 13
f 20 31 40
f 36 37 11
f 27 29 14
f 31 27 14
f 32 17 16
f 15 16 11
f 3 18 17
f 18 7 17
f 5 15 29
f 15 5 22
f 17 7 11
f 16 9 32
f 29 15 11
f 1 39 37
f 21 10 15
f 21 8 10
f 29 28 4
f 17 32 34
f 2 3 19
f 19 17 34
f 14 29 11
f 12 44 43
f 3 2 18
f 2 19 33
f 9 16 10
f 34 9 26
f 24 37 25
f 7 13 39
f 39 25 37
f 1 7 39
f 36 7 1
f 36 11 7
f 40 25 39
f 37 24 23
f 11 37 23
f 23 25 11
f 30 8 22
f 15 22 21
f 37 36 1
f 25 40 11
f 31 11 40
f 31 14 11
f 40 39 77
f 13 12 51
f 13 38 44
f 38 13 40
f 44 38 47
f 44 12 13
f 59 44 47
f 101 47 38
f 43 44 59
f 13 51 50
f 101 40 77
f 101 38 40
f 49 53 45
f 46 51 12
f 45 48 49
f 45 89 52
f 54 53 49
f 53 89 45
f 52 48 45
f 57 42 64
f 52 56 48
f 48 56 49
f 49 56 54
f 56 52 42
f 42 57 56
f 64 54 57
f 54 56 57
f 50 39 13
f 65 50 51
f 12 43 46
f 77 53 54
f 53 77 89
f 42 52 63
f 64 42 63
f 190 77 54
f 77 39 41
f 64 82 54
f 39 50 84
f 41 39 84
f 77 190 101
f 100 66 67
f 68 100 67
f 84 50 87
f 66 71 67
f 70 68 72
f 73 72 85
f 72 73 70
f 85 58 46
f 46 58 51
f 75 76 94
f 52 89 63
f 80 81 61
f 87 50 65
f 66 85 51
f 190 98 86
f 58 71 66
f 86 101 190
f 51 58 66
f 101 86 47
f 68 67 58
f 55 88 90
f 88 75 90
f 75 94 90
f 93 55 78
f 78 55 92
f 75 93 76
f 90 41 55
f 76 78 92
f 93 78 76
f 75 88 93
f 93 88 55
f 74 80 60
f 92 55 103
f 55 41 103
f 92 103 110
f 89 64 63
f 103 41 84
f 76 92 94
f 51 149 65
f 82 190 54
f 64 89 82
f 80 74 81
f 82 89 62
f 60 80 61
f 79 74 60
f 99 66 100
f 67 71 58
f 70 73 100
f 58 72 68
f 85 72 58
f 69 46 148
f 46 43 148
f 69 85 46
f 110 41 90
f 94 92 110
f 89 91 102
f 90 94 110
f 118 190 82
f 104 119 95
f 105 118 96
f 118 105 62
f 106 107 105
f 107 106 108
f 105 107 62
f 96 62 109
f 107 108 109
f 62 107 109
f 96 118 82
f 108 106 96
f 82 62 96
f 106 105 96
f 109 108 96
f 60 61 111
f 102 62 89
f 163 84 87
f 111 79 60
f 113 112 97
f 81 111 61
f 79 111 85
f 74 83 81
f 83 111 81
f 51 85 83
f 85 111 83
f 85 66 99
f 85 99 73
f 68 70 100
f 99 100 73
f 116 119 104
f 189 91 89
f 117 116 104
f 95 119 91
f 41 110 77
f 104 95 117
f 119 116 120
f 91 119 120
f 116 117 120
f 117 95 120
f 91 189 102
f 74 51 83
f 112 113 121
f 62 102 118
f 185 103 84
f 43 59 115
f 59 134 115
f 97 123 113
f 125 124 87
f 121 123 126
f 123 87 65
f 97 87 123
f 121 126 127
f 87 97 112
f 179 124 123
f 127 126 125
f 126 123 124
f 121 113 123
f 126 124 125
f 87 124 179
f 87 112 125
f 112 127 125
f 112 121 127
f 95 91 120
f 85 69 79
f 148 43 115
f 118 102 159
f 79 51 74
f 123 65 179
f 59 47 180
f 47 86 180
f 163 87 179
f 129 133 158
f 180 59 129
f 133 139 128
f 136 135 132
f 129 137 138
f 132 135 138
f 140 141 137
f 139 136 141
f 59 137 129
f 141 132 137
f 141 136 132
f 133 135 139
f 135 133 129
f 135 136 139
f 158 133 128
f 139 141 128
f 140 158 128
f 141 140 128
f 135 129 138
f 132 138 137
f 156 188 142
f 130 148 115
f 180 129 158
f 145 146 147
f 146 148 130
f 146 145 143
f 143 145 157
f 142 151 156
f 77 110 185
f 131 102 189
f 152 153 149
f 163 149 216
f 149 51 79
f 122 98 190
f 69 149 79
f 157 145 147
f 176 86 98
f 148 146 143
f 158 140 137
f 137 59 180
f 158 137 180
f 146 130 147
f 115 169 157
f 115 157 147
f 134 59 180
f 130 115 147
f 144 157 169
f 157 144 143
f 144 148 143
f 148 144 169
f 169 69 148
f 103 185 110
f 159 102 131
f 149 160 216
f 160 149 69
f 84 163 185
f 188 153 142
f 155 152 149
f 161 188 156
f 151 142 152
f 152 142 153
f 153 188 65
f 153 65 149
f 151 155 156
f 155 151 152
f 155 161 156
f 161 155 149
f 188 179 65
f 86 176 168
f 164 165 166
f 165 164 167
f 134 169 115
f 174 172 114
f 170 114 171
f 69 169 114
f 171 114 169
f 172 174 150
f 174 173 162
f 118 159 280
f 118 280 190
f 177 154 175
f 149 163 160
f 154 177 160
f 160 69 154
f 149 188 161
f 86 168 180
f 170 173 114
f 196 69 172
f 173 174 114
f 183 173 170
f 114 172 69
f 183 184 150
f 183 170 184
f 171 169 150
f 162 183 150
f 173 183 162
f 184 171 150
f 184 170 171
f 174 162 150
f 196 172 150
f 178 186 177
f 187 166 165
f 164 175 167
f 163 216 185
f 178 164 186
f 175 164 178
f 177 186 187
f 186 164 166
f 177 187 182
f 187 165 167
f 182 187 167
f 160 182 181
f 167 175 154
f 187 186 166
f 178 177 175
f 160 177 182
f 181 182 167
f 154 181 167
f 134 180 168
f 179 188 163
f 98 122 194
f 197 154 69
f 89 77 273
f 122 190 194
f 160 181 197
f 160 163 188
f 181 154 197
f 188 149 160
f 169 134 168
f 176 98 194
f 169 196 150
f 159 131 191
f 190 280 194
f 77 185 273
f 189 89 273
f 189 191 131
f 196 197 69
f 197 193 160
f 198 236 199
f 280 159 191
f 195 200 192
f 195 160 193
f 193 204 202
f 203 204 192
f 176 194 217
f 201 206 203
f 201 202 206
f 220 189 223
f 193 265 192
f 191 189 220
f 201 200 202
f 265 193 249
f 201 203 200
f 195 193 202
f 202 200 195
f 200 203 192
f 217 194 280
f 192 265 195
f 192 204 193
f 206 204 203
f 204 206 202
f 207 211 212
f 211 205 212
f 213 211 207
f 209 213 207
f 217 168 176
f 213 215 211
f 214 205 215
f 209 215 213
f 214 208 205
f 209 214 215
f 214 209 208
f 211 215 205
f 208 209 207
f 207 212 208
f 212 205 208
f 224 193 197
f 197 196 224
f 224 196 169
f 224 210 193
f 195 216 160
f 264 168 217
f 168 264 169
f 169 243 224
f 242 264 217
f 217 218 242
f 273 223 189
f 210 249 193
f 225 226 227
f 226 239 228
f 220 223 219
f 230 238 229
f 231 241 218
f 284 249 210
f 232 233 236
f 234 233 235
f 233 234 199
f 198 199 234
f 221 198 234
f 263 222 236
f 221 264 236
f 221 236 198
f 222 232 236
f 263 221 222
f 221 234 235
f 221 235 222
f 235 232 222
f 233 232 235
f 233 199 236
f 210 237 284
f 237 210 224
f 244 237 224
f 238 220 219
f 219 239 226
f 223 239 219
f 228 238 227
f 229 225 230
f 240 225 227
f 230 240 227
f 230 225 240
f 225 219 226
f 219 225 229
f 240 228 227
f 226 240 227
f 226 228 240
f 238 219 229
f 228 239 238
f 270 220 238
f 238 230 227
f 195 265 216
f 185 216 253
f 217 280 275
f 236 264 263
f 169 264 221
f 238 239 270
f 185 253 273
f 247 250 246
f 250 251 246
f 250 254 251
f 250 248 254
f 250 252 248
f 252 250 247
f 254 255 251
f 217 275 218
f 218 268 231
f 252 265 249
f 247 265 252
f 256 257 258
f 259 257 256
f 259 260 261
f 260 262 261
f 242 218 241
f 221 263 243
f 243 169 221
f 243 244 224
f 302 223 273
f 239 223 270
f 255 245 246
f 265 245 248
f 245 255 248
f 251 255 246
f 263 256 258
f 264 242 268
f 191 220 355
f 241 268 242
f 259 261 257
f 218 242 268
f 266 260 256
f 349 277 220
f 304 248 252
f 280 191 355
f 265 248 304
f 252 249 304
f 277 355 220
f 266 256 263
f 262 260 266
f 274 216 265
f 256 260 259
f 262 263 258
f 261 262 257
f 247 245 265
f 262 266 263
f 262 258 257
f 245 247 246
f 243 331 244
f 271 244 279
f 248 255 254
f 264 268 401
f 242 268 241
f 264 401 263
f 241 268 242
f 401 243 263
f 282 349 220
f 271 284 237
f 244 331 279
f 304 249 291
f 271 237 244
f 270 223 302
f 249 284 291
f 242 218 384
f 269 280 276
f 220 270 282
f 268 241 231
f 328 278 324
f 243 283 331
f 271 279 296
f 284 267 291
f 384 268 242
f 275 280 269
f 243 401 283
f 284 271 296
f 285 286 287
f 231 268 384
f 412 253 281
f 231 288 268
f 288 231 357
f 231 384 348
f 267 284 296
f 326 328 327
f 290 278 328
f 253 412 273
f 280 355 400
f 288 316 268
f 401 268 316
f 216 274 411
f 417 216 411
f 400 276 280
f 275 269 276
f 289 293 294
f 296 279 331
f 292 291 308
f 287 286 303
f 305 289 322
f 216 417 253
f 287 303 307
f 308 285 287
f 275 276 386
f 309 310 311
f 274 265 304
f 317 319 320
f 312 319 317
f 283 401 315
f 293 305 323
f 289 294 315
f 357 231 348
f 296 446 267
f 326 290 328
f 329 325 326
f 325 330 290
f 326 325 290
f 331 332 328
f 328 332 327
f 330 278 290
f 328 295 331
f 328 324 295
f 299 446 296
f 331 295 300
f 333 297 334
f 335 333 334
f 336 337 338
f 337 339 338
f 336 338 340
f 341 342 343
f 342 344 343
f 340 345 346
f 285 308 286
f 308 287 301
f 285 307 301
f 287 285 301
f 287 307 285
f 307 292 301
f 292 308 301
f 292 307 313
f 313 272 291
f 303 286 272
f 268 384 316
f 307 272 313
f 274 347 411
f 406 218 275
f 407 218 406
f 314 312 310
f 286 291 272
f 386 276 402
f 318 319 349
f 277 312 314
f 319 277 349
f 351 317 309
f 317 310 309
f 317 351 310
f 314 310 351
f 270 349 282
f 351 309 354
f 321 291 267
f 274 304 347
f 277 319 312
f 312 317 310
f 355 277 314
f 355 314 351
f 355 351 354
f 354 349 355
f 289 316 322
f 304 291 292
f 288 357 350
f 320 318 311
f 318 320 319
f 310 320 311
f 320 310 317
f 318 349 354
f 309 318 354
f 311 318 309
f 323 322 362
f 323 305 322
f 316 358 306
f 384 268 316
f 359 360 361
f 289 315 316
f 289 305 293
f 322 316 362
f 359 356 360
f 331 283 410
f 278 330 324
f 330 329 324
f 329 330 325
f 329 332 324
f 326 327 329
f 327 332 329
f 295 324 332
f 295 332 331
f 296 331 300
f 364 333 335
f 297 333 364
f 367 368 369
f 297 368 367
f 335 334 370
f 296 300 299
f 298 344 342
f 297 299 379
f 298 299 297
f 365 339 371
f 403 372 364
f 345 373 346
f 373 374 346
f 365 375 340
f 375 365 371
f 371 376 375
f 297 376 371
f 346 336 340
f 336 346 374
f 336 374 337
f 338 365 340
f 365 338 339
f 375 376 377
f 376 378 377
f 377 372 340
f 372 377 378
f 375 377 340
f 367 334 297
f 370 367 369
f 367 370 334
f 366 380 379
f 299 300 379
f 304 292 313
f 286 308 291
f 307 303 272
f 381 382 383
f 495 384 218
f 253 417 281
f 386 406 275
f 306 385 352
f 382 381 385
f 350 382 358
f 316 350 358
f 383 350 357
f 348 405 353
f 386 402 387
f 270 355 349
f 358 382 385
f 350 383 382
f 288 350 316
f 381 383 388
f 383 357 388
f 348 384 306
f 402 276 400
f 358 385 306
f 385 390 352
f 390 388 352
f 352 357 306
f 388 357 352
f 385 381 390
f 381 388 390
f 306 357 348
f 393 361 391
f 361 360 391
f 386 356 392
f 359 392 356
f 392 359 393
f 386 392 393
f 386 397 356
f 396 391 394
f 391 395 394
f 360 395 391
f 396 393 391
f 394 389 396
f 393 359 361
f 395 356 389
f 395 360 356
f 395 389 394
f 397 393 396
f 356 397 396
f 396 389 356
f 397 386 393
f 368 380 398
f 379 300 366
f 299 340 404
f 340 299 298
f 300 404 366
f 304 313 347
f 412 302 273
f 399 400 355
f 408 410 283
f 316 384 495
f 495 218 465
f 306 384 316
f 465 405 348
f 386 402 387
f 408 362 316
f 300 295 363
f 340 372 403
f 378 376 297
f 368 297 379
f 380 366 398
f 403 370 369
f 340 298 341
f 379 380 368
f 366 403 398
f 398 403 369
f 368 398 369
f 403 335 370
f 297 372 378
f 403 364 335
f 297 364 372
f 404 340 403
f 366 404 403
f 291 321 313
f 323 362 294
f 302 448 270
f 406 386 387
f 407 405 417
f 321 267 418
f 465 348 353
f 405 407 353
f 387 402 386
f 295 331 410
f 323 294 293
f 362 408 283
f 363 295 410
f 362 315 294
f 424 446 299
f 340 343 345
f 342 341 298
f 373 345 344
f 373 344 298
f 345 343 344
f 343 340 341
f 399 355 448
f 347 313 321
f 353 405 465
f 417 218 407
f 400 399 450
f 316 489 408
f 362 283 315
f 315 401 316
f 405 353 407
f 413 407 414
f 415 431 449
f 414 407 431
f 450 402 400
f 267 446 418
f 419 420 421
f 419 422 420
f 481 404 300
f 302 412 399
f 465 218 405
f 405 218 417
f 407 430 405
f 425 413 426
f 417 406 407
f 316 495 489
f 427 415 449
f 425 426 427
f 427 426 428
f 450 387 402
f 426 414 428
f 414 426 413
f 414 431 428
f 413 429 430
f 430 407 413
f 431 407 449
f 429 425 427
f 429 413 425
f 430 429 427
f 415 427 428
f 431 415 428
f 427 449 430
f 430 449 405
f 420 422 435
f 436 363 410
f 416 437 433
f 423 436 410
f 438 441 442
f 441 438 439
f 443 442 444
f 440 363 436
f 424 404 481
f 302 399 448
f 355 270 448
f 465 405 417
f 417 407 406
f 493 281 417
f 399 412 493
f 467 447 466
f 281 493 412
f 406 387 484
f 417 405 449
f 406 449 407
f 410 408 489
f 489 423 410
f 419 437 422
f 451 452 453
f 508 451 453
f 457 458 459
f 439 363 440
f 440 441 439
f 441 444 442
f 440 444 441
f 443 440 436
f 443 444 440
f 339 337 297
f 374 373 297
f 461 462 463
f 433 462 461
f 438 442 460
f 442 443 460
f 460 481 439
f 460 439 438
f 436 460 443
f 481 460 436
f 337 374 297
f 424 299 404
f 297 373 298
f 371 339 297
f 417 494 406
f 449 406 484
f 466 418 432
f 484 387 450
f 468 420 435
f 434 469 424
f 468 455 421
f 433 437 446
f 468 409 455
f 455 454 421
f 455 437 454
f 454 419 421
f 437 432 446
f 432 437 455
f 422 416 435
f 420 468 421
f 416 468 435
f 416 433 409
f 437 416 422
f 470 471 472
f 419 454 437
f 468 416 409
f 471 433 424
f 472 471 474
f 475 461 476
f 433 461 475
f 409 475 476
f 446 424 433
f 300 363 481
f 363 439 481
f 456 424 481
f 478 479 480
f 436 570 481
f 451 508 447
f 464 347 321
f 522 347 464
f 418 466 321
f 464 466 508
f 321 466 464
f 508 466 447
f 467 482 447
f 452 482 485
f 482 453 485
f 453 452 485
f 417 494 465
f 494 417 449
f 406 494 484
f 417 406 494
f 494 406 484
f 516 484 450
f 432 418 446
f 409 433 475
f 455 434 432
f 458 474 459
f 472 474 458
f 490 471 469
f 476 461 463
f 469 471 424
f 462 433 471
f 462 471 491
f 463 462 491
f 471 470 491
f 409 462 457
f 476 462 409
f 492 472 458
f 492 470 472
f 491 492 457
f 470 492 491
f 463 491 457
f 492 458 457
f 474 471 490
f 474 490 459
f 457 459 434
f 409 457 434
f 459 490 469
f 459 469 434
f 424 456 434
f 399 586 504
f 482 483 485
f 483 482 485
f 482 483 453
f 586 493 417
f 493 586 399
f 483 508 453
f 494 449 484
f 449 494 484
f 494 449 484
f 450 399 504
f 494 608 465
f 450 504 516
f 495 513 489
f 555 497 487
f 409 434 455
f 478 498 477
f 570 436 423
f 500 501 502
f 423 559 477
f 570 423 477
f 498 503 629
f 503 445 629
f 505 506 507
f 464 508 483
f 417 650 586
f 464 467 432
f 464 432 488
f 511 510 473
f 488 591 464
f 486 516 539
f 445 503 517
f 489 513 423
f 479 445 517
f 519 520 560
f 478 480 498
f 521 445 479
f 521 477 445
f 480 503 498
f 477 521 478
f 478 521 479
f 480 479 517
f 503 480 517
f 650 417 411
f 523 524 525
f 524 523 509
f 526 534 587
f 452 447 482
f 524 509 511
f 528 529 525
f 531 532 533
f 451 447 452
f 675 648 347
f 347 527 411
f 527 347 648
f 650 411 527
f 526 524 525
f 467 464 483
f 482 467 483
f 432 467 466
f 534 524 511
f 608 495 465
f 535 539 514
f 513 495 608
f 494 592 608
f 635 591 488
f 536 537 538
f 606 543 540
f 543 516 540
f 486 539 535
f 506 675 507
f 535 514 547
f 514 545 544
f 514 548 545
f 548 514 486
f 548 486 535
f 547 548 535
f 544 545 553
f 547 514 545
f 548 547 545
f 528 551 529
f 552 496 487
f 592 486 553
f 514 544 486
f 554 497 555
f 497 552 487
f 432 434 488
f 423 613 559
f 554 556 497
f 556 552 497
f 552 556 557
f 515 488 496
f 556 558 557
f 558 554 557
f 558 556 554
f 557 554 542
f 542 554 555
f 515 558 557
f 555 496 488
f 488 434 555
f 561 562 563
f 562 564 563
f 531 523 532
f 563 519 561
f 566 567 568
f 567 564 568
f 519 569 520
f 563 499 569
f 519 563 569
f 574 573 575
f 576 574 575
f 577 580 573
f 574 577 573
f 575 573 580
f 571 578 580
f 579 578 571
f 570 647 481
f 579 576 578
f 576 575 578
f 578 575 580
f 647 580 570
f 533 532 529
f 582 583 584
f 585 530 473
f 510 585 473
f 510 509 585
f 524 534 525
f 591 587 534
f 534 526 525
f 585 464 530
f 585 509 464
f 464 531 551
f 473 530 534
f 511 509 510
f 582 675 506
f 582 506 583
f 534 530 591
f 539 553 546
f 538 589 590
f 531 533 551
f 518 464 675
f 464 509 531
f 582 518 675
f 528 635 551
f 530 464 591
f 532 523 529
f 529 523 525
f 509 523 531
f 524 528 525
f 533 529 551
f 524 526 587
f 511 473 534
f 528 524 587
f 528 587 635
f 536 550 537
f 635 488 612
f 558 496 552
f 546 514 539
f 545 514 546
f 558 515 496
f 557 558 552
f 557 542 515
f 488 515 542
f 592 553 541
f 553 545 546
f 539 516 553
f 553 486 544
f 549 550 516
f 549 589 537
f 550 549 537
f 516 543 589
f 543 590 589
f 487 496 555
f 513 608 697
f 596 594 595
f 559 613 596
f 434 602 555
f 560 561 519
f 561 560 598
f 599 597 565
f 600 599 565
f 513 581 423
f 626 423 581
f 456 602 434
f 596 595 502
f 647 456 481
f 629 445 596
f 647 570 572
f 577 603 572
f 580 577 572
f 518 582 584
f 584 583 505
f 464 518 522
f 583 506 505
f 522 584 507
f 522 518 584
f 522 507 675
f 584 505 507
f 675 347 522
f 464 551 635
f 632 504 586
f 610 604 605
f 587 591 635
f 650 527 678
f 540 541 606
f 592 516 486
f 516 592 484
f 484 592 494
f 538 512 536
f 512 538 590
f 549 516 589
f 632 611 604
f 536 609 550
f 606 590 543
f 516 541 540
f 589 538 537
f 504 541 516
f 606 512 590
f 541 512 606
f 609 541 550
f 536 512 609
f 542 612 488
f 542 555 602
f 513 593 624
f 513 624 581
f 560 613 567
f 568 598 566
f 707 615 670
f 616 617 618
f 617 499 618
f 567 613 564
f 613 626 564
f 613 423 626
f 568 564 562
f 598 568 562
f 601 595 594
f 614 601 499
f 601 614 595
f 598 562 561
f 560 566 598
f 620 621 665
f 618 499 601
f 594 618 601
f 619 621 623
f 618 594 616
f 520 616 560
f 520 569 617
f 569 499 617
f 581 665 626
f 620 624 619
f 581 624 620
f 621 620 619
f 560 596 613
f 597 627 565
f 499 564 626
f 596 673 629
f 499 626 597
f 596 560 616
f 520 617 616
f 560 567 566
f 594 596 616
f 563 564 499
f 599 600 628
f 501 596 502
f 622 628 501
f 596 501 628
f 627 596 565
f 500 499 597
f 595 614 502
f 600 565 596
f 599 622 597
f 599 628 622
f 500 597 622
f 501 500 622
f 614 499 500
f 502 614 500
f 596 628 600
f 627 597 596
f 456 647 602
f 477 498 629
f 559 445 477
f 570 477 629
f 621 630 665
f 603 576 579
f 647 603 571
f 603 579 571
f 580 647 571
f 574 603 577
f 603 574 576
f 633 637 636
f 633 634 637
f 541 504 702
f 702 592 541
f 609 512 541
f 697 608 592
f 553 550 541
f 550 553 516
f 612 542 602
f 513 727 593
f 621 640 623
f 640 621 619
f 624 625 641
f 630 619 623
f 621 619 630
f 619 624 640
f 630 623 639
f 623 640 639
f 665 630 625
f 624 641 640
f 640 641 639
f 630 639 625
f 641 625 639
f 625 624 665
f 624 593 665
f 581 620 665
f 445 559 596
f 596 643 673
f 570 629 673
f 647 572 603
f 580 572 570
f 602 647 673
f 644 642 645
f 642 644 643
f 610 632 604
f 634 633 611
f 611 633 636
f 634 607 637
f 634 588 607
f 634 611 632
f 610 607 588
f 637 607 605
f 634 632 588
f 636 605 611
f 611 605 604
f 636 637 605
f 605 607 610
f 632 610 504
f 504 610 702
f 610 588 679
f 651 652 638
f 653 685 654
f 655 653 654
f 610 679 702
f 657 658 638
f 658 657 659
f 661 662 663
f 586 650 588
f 666 644 645
f 643 597 642
f 643 596 597
f 673 647 570
f 667 701 707
f 669 670 671
f 670 672 671
f 679 688 676
f 588 632 586
f 648 675 692
f 464 635 692
f 680 638 664
f 638 696 681
f 680 683 651
f 684 655 654
f 688 684 676
f 685 653 694
f 679 660 682
f 653 686 694
f 688 687 656
f 665 593 626
f 727 513 697
f 689 668 645
f 690 689 642
f 689 690 668
f 689 645 642
f 679 676 677
f 677 676 694
f 687 688 649
f 588 688 679
f 682 661 663
f 686 649 694
f 660 693 683
f 648 678 527
f 676 685 694
f 682 664 638
f 638 680 651
f 684 688 656
f 660 680 664
f 660 683 680
f 687 686 656
f 684 685 676
f 656 686 655
f 686 653 655
f 684 656 655
f 696 694 649
f 659 657 695
f 686 687 649
f 654 685 684
f 638 694 696
f 679 677 659
f 677 658 659
f 694 658 677
f 693 651 683
f 693 652 651
f 657 652 695
f 638 652 657
f 638 681 661
f 661 681 662
f 681 696 662
f 695 652 693
f 638 661 682
f 679 695 693
f 682 660 664
f 679 659 695
f 658 694 638
f 660 679 693
f 702 679 682
f 668 700 666
f 666 597 626
f 690 642 597
f 668 666 645
f 666 643 644
f 673 666 674
f 666 673 643
f 588 649 688
f 675 464 692
f 588 650 678
f 692 712 648
f 612 692 635
f 649 662 696
f 663 649 682
f 663 662 649
f 682 649 702
f 698 705 699
f 699 704 727
f 705 704 699
f 705 706 704
f 706 727 704
f 706 698 727
f 698 706 703
f 703 706 705
f 698 703 705
f 698 699 727
f 727 626 593
f 593 699 727
f 727 699 593
f 666 700 597
f 597 700 690
f 602 673 718
f 668 690 700
f 672 615 671
f 701 646 707
f 674 669 671
f 708 701 667
f 707 671 615
f 667 709 708
f 670 710 672
f 710 670 669
f 707 646 631
f 672 670 615
f 671 707 674
f 649 588 678
f 699 727 678
f 649 678 702
f 702 697 592
f 678 727 697
f 678 697 702
f 670 667 707
f 674 707 631
f 701 669 626
f 710 708 709
f 672 709 670
f 667 670 709
f 708 669 701
f 710 669 708
f 672 710 709
f 674 718 673
f 674 626 669
f 648 712 678
f 612 602 718
f 727 646 626
f 646 701 626
f 666 626 674
f 713 717 646
f 714 715 716
f 631 646 717
f 714 717 715
f 714 631 717
f 717 713 715
f 718 674 691
f 712 692 726
f 722 723 729
f 719 678 712
f 726 692 612
f 718 726 612
f 711 631 714
f 699 678 719
f 729 723 720
f 719 727 699
f 727 728 730
f 730 646 727
f 713 646 730
f 711 730 631
f 714 716 711
f 719 721 729
f 721 725 729
f 712 720 719
f 721 724 725
f 721 723 722
f 721 719 723
f 725 722 729
f 724 722 725
f 723 719 720
f 729 720 728
f 720 726 728
f 719 729 728
f 719 728 727
f 718 691 726
f 730 711 713
f 716 713 711
f 715 713 716
f 730 691 631
f 674 631 691
f 726 720 712
f 691 728 726
f 730 728 691
f 462 463 457
f 476 463 462
f 724 721 722

