# https://github.com/mikedh/trimesh
v 0.03000928 -0.02002068 0.09253550
v 0.03057465 0.01979672 0.09253550
v 0.03158637 -0.02002458 0.09253550
v 0.03081766 -0.02002458 0.09433389
v 0.03109043 -0.02002458 0.09767377
v 0.03144255 -0.02002458 0.10042845
v 0.03168060 -0.02002458 0.10225539
v 0.03191865 -0.02002458 0.10402525
v 0.03222117 0.01979672 0.10604250
v 0.05064538 0.01979672 0.09253550
v 0.04687127 -0.02002458 0.09253550
v 0.03200296 -0.02002458 0.10450577
v 0.03256833 -0.02002458 0.10685130
v 0.03311883 0.01979672 0.10901603
v 0.05260931 0.01979672 0.09477160
v 0.05089335 0.01965247 0.09253550
v 0.05212825 -0.02002458 0.10165117
v 0.06015753 -0.01202055 0.09253550
v 0.06035591 -0.01214921 0.09283999
v 0.06121388 -0.01267554 0.09477636
v 0.05949793 -0.01448843 0.09647008
v 0.06543930 -0.01464828 0.10447247
v 0.07389509 -0.01467557 0.11560064
v 0.07646903 -0.01455471 0.11869311
v 0.07976703 -0.01477693 0.12370293
v 0.08067461 -0.01492898 0.12559648
v 0.08067461 -0.01493678 0.12563454
v 0.03369908 -0.02002458 0.11059082
v 0.03501828 0.01979672 0.11443977
v 0.05278785 0.01979672 0.09497618
v 0.05172653 0.01934837 0.09296845
v 0.05217784 0.01870509 0.09253550
v 0.06517149 0.01892341 0.10760301
v 0.06248349 0.01900918 0.10467229
v 0.05515349 -0.02002458 0.10698927
v 0.06150649 -0.01077297 0.09253550
v 0.06222064 -0.01144355 0.09380104
v 0.06113949 -0.01399719 0.09749774
v 0.06287033 -0.01205564 0.09566604
v 0.06471027 -0.01422332 0.10260746
v 0.08067461 -0.01351376 0.12255158
v 0.06544426 -0.01190359 0.09883939
v 0.08067461 -0.01365021 0.12281325
v 0.08067461 -0.01494068 0.12566785
v 0.06584597 -0.02002458 0.12616264
v 0.06327700 -0.02002458 0.12135740
v 0.03397681 -0.02002458 0.11131398
v 0.03474551 -0.02002458 0.11319326
v 0.03605976 0.01979672 0.11679957
v 0.05516340 0.01979672 0.09777844
v 0.06599475 0.01940685 0.10946801
v 0.06785949 0.01883764 0.11053848
v 0.05359623 0.01863101 0.09402940
v 0.05481129 0.01676353 0.09264968
v 0.05451372 0.01691168 0.09253550
v 0.06684281 0.01835810 0.10865921
v 0.06825624 0.01633858 0.10727949
v 0.06264715 -0.00928757 0.09253550
v 0.06283561 -0.00957607 0.09296369
v 0.08067461 -0.01342798 0.12243264
v 0.08067461 -0.01060533 0.11973028
v 0.08067461 -0.01102639 0.12011089
v 0.08067461 -0.01319406 0.12217573
v 0.08067461 -0.01519020 0.12840350
v 0.06598980 -0.02002458 0.12701426
v 0.03537040 -0.02002458 0.11457298
v 0.03617382 0.01979672 0.11704696
v 0.05975582 0.01979672 0.10324499
v 0.06867284 0.01932498 0.11240349
v 0.07053757 0.01875187 0.11349299
v 0.08067461 0.01722748 0.12276092
v 0.05814897 0.01411632 0.09253550
v 0.06400603 0.01489996 0.10033330
v 0.05975582 0.01346134 0.09339188
v 0.07157905 0.01674014 0.11164702
v 0.07094424 0.01625280 0.11020545
v 0.06595508 0.01392528 0.10110880
v 0.06302407 -0.00860140 0.09253550
v 0.06533515 -0.00902246 0.09620365
v 0.08067461 -0.01046887 0.11964940
v 0.06356960 -0.00748637 0.09253550
v 0.06468547 -0.00510816 0.09253550
v 0.06554841 -0.00394635 0.09304933
v 0.08067461 -0.01519409 0.13120577
v 0.06622289 -0.02002458 0.12844632
v 0.03589114 -0.02002458 0.11566249
v 0.03655074 -0.02002458 0.11702793
v 0.03739384 -0.02002458 0.11853611
v 0.04189202 0.01979672 0.12460689
v 0.06212146 0.01979672 0.10607580
v 0.06434823 0.01979672 0.10876388
v 0.07133604 0.01924311 0.11535800
v 0.07320573 0.01866610 0.11646177
v 0.08067461 0.01723917 0.12277995
v 0.08067461 0.01612415 0.12143352
v 0.06276122 0.01087650 0.09309215
v 0.07363720 0.01615534 0.11313141
v 0.05848125 0.01385900 0.09253550
v 0.06179413 0.01287653 0.09484296
v 0.06095103 0.01194474 0.09253550
v 0.06141226 0.01157437 0.09253550
v 0.08067461 -0.00757604 0.11819356
v 0.06498800 -0.00442199 0.09253550
v 0.06530540 -0.00331476 0.09253550
v 0.06567239 -0.00197361 0.09283999
v 0.08067461 -0.01519409 0.13124383
v 0.06607906 -0.02002458 0.12970710
v 0.03763685 -0.02002458 0.11880730
v 0.03875272 -0.02002458 0.12003953
v 0.04091006 -0.02002458 0.12239458
v 0.04275992 -0.02002458 0.12440231
v 0.04451059 0.01979672 0.12739963
v 0.06654029 0.01979672 0.11155186
v 0.06684281 0.01971485 0.11154235
v 0.07398436 0.01915733 0.11832677
v 0.07585406 0.01858423 0.11945434
v 0.07852718 0.01855304 0.12284180
v 0.08067461 0.01835420 0.12564406
v 0.07661781 0.01907546 0.12132410
v 0.08067461 0.01470112 0.12021556
v 0.06534011 0.01066597 0.09619890
v 0.06312822 0.00922345 0.09255929
v 0.06310838 0.00922345 0.09253550
v 0.08067461 -0.00477287 0.11773682
v 0.06547898 -0.00197361 0.09253550
v 0.08067461 0.00867763 0.11769876
v 0.08067461 0.00642419 0.11746564
v 0.08067461 0.00632282 0.11746564
v 0.08067461 0.00362492 0.11749894
v 0.08067461 0.00082176 0.11756079
v 0.08067461 -0.00197361 0.11762740
v 0.08067461 -0.01492898 0.13388909
v 0.06584597 -0.02002458 0.13101546
v 0.04540329 -0.02002458 0.12715699
v 0.04548760 -0.02002458 0.12723787
v 0.04845332 -0.02002458 0.12989740
v 0.05144881 -0.02002458 0.13252840
v 0.05255971 0.01979672 0.13417930
v 0.06864804 0.01979672 0.11443977
v 0.07912727 0.01898969 0.12564406
v 0.08067461 0.01856863 0.12844632
v 0.07712863 0.01915733 0.12284180
v 0.07058221 0.01979672 0.11727533
v 0.08067461 0.01466603 0.12019178
v 0.06786445 0.00970299 0.09936274
v 0.06554841 0.00922345 0.09589441
v 0.06392668 0.00649046 0.09253550
v 0.08067461 0.01265041 0.11903091
v 0.08067461 0.01202662 0.11872642
v 0.07104839 0.01088040 0.10444392
v 0.06313814 0.00912988 0.09253550
v 0.06556329 0.00082176 0.09303030
v 0.06523597 0.00082176 0.09253550
v 0.08067461 0.00922345 0.11781295
v 0.08067461 -0.01490949 0.13398424
v 0.06525580 -0.02002458 0.13251412
v 0.06527068 -0.02002458 0.13248558
v 0.06569223 -0.02002458 0.13144365
v 0.05170670 -0.02002458 0.13271870
v 0.05270850 0.01979672 0.13427446
v 0.07772376 0.01927040 0.12564406
v 0.07557137 0.01979672 0.12795152
v 0.07564577 0.01979672 0.12844632
v 0.07786758 0.01932888 0.12844632
v 0.08067461 0.01877526 0.13124383
v 0.07231304 0.01978503 0.12004429
v 0.07511015 0.01953161 0.12284180
v 0.07511015 0.01976553 0.12564406
v 0.07224361 0.01979672 0.12004429
v 0.06875714 0.00895444 0.10035709
v 0.07356282 0.01001879 0.10765534
v 0.06494336 0.00642419 0.09397231
v 0.06411514 0.00571852 0.09253550
v 0.08067461 0.01083361 0.11829823
v 0.06469539 0.00330913 0.09253550
v 0.06540458 0.00260736 0.09330624
v 0.06765120 0.00362492 0.09691254
v 0.07379095 0.00815131 0.10733182
v 0.08067461 -0.01480033 0.13414600
v 0.06391676 -0.02002458 0.13368926
v 0.05282256 -0.02002458 0.13333244
v 0.05557008 0.01979672 0.13593964
v 0.05488568 0.01979672 0.13555427
v 0.07498121 0.01979672 0.12577727
v 0.07575487 0.01979672 0.13059202
v 0.08067461 0.01880255 0.13404609
v 0.07231304 0.01979672 0.12018226
v 0.07408851 0.01979672 0.12386945
v 0.07492665 0.01979672 0.12564406
v 0.06943163 0.00642419 0.10044273
v 0.08067461 -0.01311609 0.13663901
v 0.06292984 -0.02002458 0.13410318
v 0.05405250 -0.02002458 0.13383675
v 0.05830767 0.01482588 0.13642016
v 0.05830767 0.01762905 0.13649628
v 0.08067461 0.00362492 0.14113500
v 0.08067461 0.00642419 0.14112072
v 0.08067461 0.00922345 0.14079720
v 0.08067461 0.01186287 0.14022628
v 0.05849613 0.01979672 0.13618228
v 0.05550560 -0.02002458 0.13427446
v 0.05859532 -0.00477287 0.13581594
v 0.06110974 -0.01317847 0.13616800
v 0.06110974 -0.00757604 0.13635831
v 0.06110974 -0.00477287 0.13644870
v 0.07575487 0.01979672 0.13124383
v 0.08067461 0.01736393 0.13690544
v 0.07511015 0.01979672 0.13193845
v 0.07231304 0.01979672 0.13385578
v 0.06998708 0.01979672 0.13455516
v 0.06672379 0.01979672 0.13542105
v 0.08067461 -0.01300693 0.13674368
v 0.06110974 -0.02002458 0.13468361
v 0.08067461 0.00218240 0.14109694
v 0.08067461 0.01479469 0.13891317
v 0.06110974 0.01979672 0.13622509
v 0.05705790 -0.02002458 0.13449331
v 0.08067461 -0.00735381 0.14020725
v 0.08067461 -0.00477287 0.14058787
v 0.06390684 -0.01317847 0.13663425
v 0.05917061 -0.01317847 0.13562563
v 0.05897719 -0.01037530 0.13569224
v 0.08067461 -0.00436741 0.14063544
v 0.08067461 -0.00092486 0.14092090
v 0.08067461 0.01605397 0.13812816
v 0.06402091 0.01979672 0.13602052
v 0.06390684 0.01979672 0.13603479
v 0.08067461 -0.01262875 0.13707672
v 0.05985996 -0.02002458 0.13466458
v 0.08067461 -0.01065211 0.13873238
v 0.08067461 -0.01044548 0.13887987
v 0.08067461 -0.01038310 0.13892269
v 0.08067461 -0.00757994 0.14013113
v 0.05830767 -0.02002458 0.13463128
f 1 2 10
f 1 10 16
f 1 16 32
f 1 32 55
f 1 55 72
f 1 72 98
f 1 98 100
f 1 100 101
f 1 101 123
f 1 123 151
f 1 151 147
f 1 147 173
f 1 173 175
f 1 175 153
f 1 153 125
f 1 125 104
f 1 104 103
f 1 103 82
f 1 82 81
f 1 81 78
f 1 78 58
f 1 58 36
f 1 36 18
f 1 18 11
f 1 11 3
f 1 3 4
f 1 4 5
f 1 5 6
f 1 6 7
f 1 7 8
f 1 8 9
f 1 9 2
f 2 9 14
f 2 14 29
f 2 29 49
f 2 49 67
f 2 67 89
f 2 89 112
f 2 112 138
f 2 138 160
f 2 160 183
f 2 183 182
f 2 182 200
f 2 200 216
f 2 216 227
f 2 227 226
f 2 226 211
f 2 211 210
f 2 210 209
f 2 209 208
f 2 208 206
f 2 206 185
f 2 185 163
f 2 163 162
f 2 162 184
f 2 184 189
f 2 189 188
f 2 188 187
f 2 187 169
f 2 169 143
f 2 143 139
f 2 139 113
f 2 113 91
f 2 91 90
f 2 90 68
f 2 68 50
f 2 50 30
f 2 30 15
f 2 15 10
f 3 11 17
f 3 17 35
f 3 35 46
f 3 46 45
f 3 45 65
f 3 65 85
f 3 85 107
f 3 107 133
f 3 133 158
f 3 158 157
f 3 157 156
f 3 156 180
f 3 180 192
f 3 192 213
f 3 213 229
f 3 229 234
f 3 234 217
f 3 217 201
f 3 201 193
f 3 193 181
f 3 181 159
f 3 159 137
f 3 137 136
f 3 136 135
f 3 135 134
f 3 134 111
f 3 111 110
f 3 110 109
f 3 109 108
f 3 108 88
f 3 88 87
f 3 87 86
f 3 86 66
f 3 66 48
f 3 48 47
f 3 47 28
f 3 28 13
f 3 13 12
f 3 12 8
f 3 8 7
f 3 7 6
f 3 6 5
f 3 5 4
f 8 12 9
f 9 12 13
f 9 13 14
f 10 15 16
f 11 18 19
f 11 19 20
f 11 20 21
f 11 21 22
f 11 22 23
f 11 23 24
f 11 24 25
f 11 25 26
f 11 26 27
f 11 27 17
f 13 28 14
f 14 28 29
f 15 30 16
f 16 31 32
f 16 30 33
f 16 33 34
f 16 34 31
f 17 27 35
f 18 36 37
f 18 37 19
f 19 37 20
f 20 38 21
f 20 37 39
f 20 39 24
f 20 24 40
f 20 40 38
f 21 38 22
f 22 38 40
f 22 40 24
f 22 24 23
f 24 41 25
f 24 39 42
f 24 42 41
f 25 41 43
f 25 43 26
f 26 43 41
f 26 41 60
f 26 60 63
f 26 63 62
f 26 62 61
f 26 61 80
f 26 80 102
f 26 102 124
f 26 124 131
f 26 131 130
f 26 130 129
f 26 129 128
f 26 128 127
f 26 127 126
f 26 126 154
f 26 154 174
f 26 174 149
f 26 149 148
f 26 148 144
f 26 144 120
f 26 120 95
f 26 95 71
f 26 71 94
f 26 94 118
f 26 118 141
f 26 141 165
f 26 165 186
f 26 186 207
f 26 207 225
f 26 225 215
f 26 215 199
f 26 199 198
f 26 198 197
f 26 197 196
f 26 196 214
f 26 214 224
f 26 224 223
f 26 223 219
f 26 219 218
f 26 218 233
f 26 233 232
f 26 232 231
f 26 231 230
f 26 230 228
f 26 228 212
f 26 212 191
f 26 191 179
f 26 179 155
f 26 155 132
f 26 132 106
f 26 106 84
f 26 84 64
f 26 64 44
f 26 44 27
f 27 44 45
f 27 45 46
f 27 46 35
f 28 47 29
f 29 47 48
f 29 48 49
f 30 50 51
f 30 51 52
f 30 52 33
f 31 53 54
f 31 54 32
f 31 34 53
f 32 54 55
f 33 52 56
f 33 56 34
f 34 56 57
f 34 57 54
f 34 54 53
f 36 58 37
f 37 58 59
f 37 59 42
f 37 42 39
f 41 42 60
f 42 59 61
f 42 61 62
f 42 62 63
f 42 63 60
f 44 64 45
f 45 64 65
f 48 66 49
f 49 66 67
f 50 68 51
f 51 68 69
f 51 69 52
f 52 69 70
f 52 70 71
f 52 71 56
f 54 72 55
f 54 57 73
f 54 73 74
f 54 74 72
f 56 71 75
f 56 75 76
f 56 76 57
f 57 77 73
f 57 76 77
f 58 78 59
f 59 78 79
f 59 79 61
f 61 79 81
f 61 81 82
f 61 82 83
f 61 83 80
f 64 84 85
f 64 85 65
f 66 86 67
f 67 86 87
f 67 87 88
f 67 88 89
f 68 90 69
f 69 90 91
f 69 91 92
f 69 92 70
f 70 92 93
f 70 93 94
f 70 94 71
f 71 95 96
f 71 96 77
f 71 77 97
f 71 97 75
f 72 74 98
f 73 77 99
f 73 99 74
f 74 99 100
f 74 100 98
f 75 97 76
f 76 97 77
f 77 96 101
f 77 101 100
f 77 100 99
f 78 81 79
f 80 83 102
f 82 103 83
f 83 103 104
f 83 104 105
f 83 105 102
f 84 106 85
f 85 106 107
f 88 108 89
f 89 108 109
f 89 109 110
f 89 110 111
f 89 111 112
f 91 113 114
f 91 114 92
f 92 115 93
f 92 114 115
f 93 115 116
f 93 116 94
f 94 117 118
f 94 116 119
f 94 119 117
f 95 120 121
f 95 121 96
f 96 121 122
f 96 122 123
f 96 123 101
f 102 105 124
f 104 125 105
f 105 125 126
f 105 126 127
f 105 127 128
f 105 128 129
f 105 129 130
f 105 130 131
f 105 131 124
f 106 132 133
f 106 133 107
f 111 134 112
f 112 134 135
f 112 135 136
f 112 136 137
f 112 137 138
f 113 139 119
f 113 119 114
f 114 119 115
f 115 119 116
f 117 119 118
f 118 140 141
f 118 119 140
f 119 142 140
f 119 139 143
f 119 143 142
f 120 144 121
f 121 145 146
f 121 146 147
f 121 147 122
f 121 144 148
f 121 148 149
f 121 149 150
f 121 150 145
f 122 147 151
f 122 151 123
f 125 152 126
f 125 153 152
f 126 152 154
f 132 155 156
f 132 156 157
f 132 157 158
f 132 158 133
f 137 159 138
f 138 159 160
f 140 142 161
f 140 161 162
f 140 162 163
f 140 163 164
f 140 164 165
f 140 165 141
f 142 143 166
f 142 166 167
f 142 167 168
f 142 168 161
f 143 169 166
f 145 170 147
f 145 147 146
f 145 150 149
f 145 149 171
f 145 171 170
f 147 172 173
f 147 170 172
f 149 174 171
f 152 153 154
f 153 175 176
f 153 176 177
f 153 177 154
f 154 178 174
f 154 177 178
f 155 179 180
f 155 180 156
f 159 181 182
f 159 182 183
f 159 183 160
f 161 168 162
f 162 168 184
f 163 185 165
f 163 165 164
f 165 185 186
f 166 169 187
f 166 187 167
f 167 187 188
f 167 188 168
f 168 188 189
f 168 189 184
f 170 171 172
f 171 174 178
f 171 178 190
f 171 190 172
f 172 190 176
f 172 176 173
f 173 176 175
f 176 190 178
f 176 178 177
f 179 191 180
f 180 191 192
f 181 193 182
f 182 194 195
f 182 195 196
f 182 196 197
f 182 197 198
f 182 198 199
f 182 199 200
f 182 193 201
f 182 201 202
f 182 202 203
f 182 203 204
f 182 204 205
f 182 205 194
f 185 206 186
f 186 206 208
f 186 208 209
f 186 209 210
f 186 210 211
f 186 211 207
f 191 212 213
f 191 213 192
f 194 205 214
f 194 214 195
f 195 214 196
f 199 215 200
f 200 215 216
f 201 217 218
f 201 218 219
f 201 219 220
f 201 220 203
f 201 203 221
f 201 221 222
f 201 222 202
f 202 222 203
f 203 220 219
f 203 219 223
f 203 223 224
f 203 224 214
f 203 214 204
f 203 222 221
f 204 214 205
f 207 211 226
f 207 226 227
f 207 227 225
f 212 228 213
f 213 228 230
f 213 230 231
f 213 231 232
f 213 232 233
f 213 233 229
f 215 225 216
f 216 225 227
f 217 234 218
f 218 234 233
f 229 233 234

