# https://github.com/mikedh/trimesh
v -0.02697936 -0.03299955 0.09143591
v -0.02697936 -0.05091370 0.09143591
v -0.02697936 -0.03696970 0.10913543
v -0.02151177 -0.03419808 0.09143591
v -0.02697936 -0.05107673 0.09293297
v -0.02669582 -0.05104148 0.09143591
v -0.02697936 -0.05261015 0.10913543
v -0.00920140 -0.04098171 0.10913543
v -0.00284302 -0.04233226 0.10877330
v -0.01028358 -0.03698732 0.09143591
v -0.02697936 -0.05111639 0.09332283
v -0.02589718 -0.05136975 0.09143591
v -0.02697936 -0.05205935 0.10326851
v -0.02568926 -0.05309485 0.10913543
v -0.00640145 -0.04161623 0.10913543
v -0.00284302 -0.04243802 0.10913543
v -0.00284302 -0.03947693 0.09143591
v -0.02353435 -0.05217392 0.09143591
v -0.02226787 -0.05406205 0.10604083
v -0.02263648 -0.05420526 0.10884260
v -0.02269319 -0.05421187 0.10913543
v -0.02407308 -0.05370073 0.10913543
v -0.00284302 -0.05550074 0.10913543
v -0.00284302 -0.05430440 0.09143591
v -0.01912767 -0.05359938 0.09143591
v -0.01887721 -0.05384394 0.09289658
v -0.01961914 -0.05409290 0.09764071
v -0.02028073 -0.05417001 0.10050659
v -0.02010824 -0.05450490 0.10324079
v -0.02187328 -0.05391664 0.10324079
v -0.02010824 -0.05478029 0.10604083
v -0.02010824 -0.05502925 0.10884260
v -0.02010824 -0.05505349 0.10913543
v -0.00301314 -0.05550294 0.10913543
v -0.00390865 -0.05437711 0.09143591
v -0.00284302 -0.05437931 0.09203890
v -0.00284302 -0.05431762 0.09153642
v -0.01809274 -0.05388139 0.09143591
v -0.01748550 -0.05406426 0.09199384
v -0.01730829 -0.05433745 0.09484067
v -0.01730829 -0.05457099 0.09764071
v -0.01730829 -0.05480232 0.10043902
v -0.01730829 -0.05502925 0.10324079
v -0.01730829 -0.05524517 0.10604083
v -0.01730829 -0.05544125 0.10884260
v -0.01730829 -0.05546108 0.10913543
v -0.00890841 -0.05440355 0.09143591
v -0.00671098 -0.05440355 0.09143591
v -0.01726812 -0.05403562 0.09143591
v -0.01512266 -0.05427136 0.09143591
v -0.01450833 -0.05439474 0.09203890
v -0.01448706 -0.05431542 0.09143591
f 1 2 5
f 1 5 11
f 1 11 13
f 1 13 7
f 1 7 3
f 1 3 4
f 1 4 10
f 1 10 17
f 1 17 24
f 1 24 35
f 1 35 48
f 1 48 47
f 1 47 52
f 1 52 50
f 1 50 49
f 1 49 38
f 1 38 25
f 1 25 18
f 1 18 12
f 1 12 6
f 1 6 2
f 2 6 5
f 3 7 14
f 3 14 22
f 3 22 21
f 3 21 33
f 3 33 46
f 3 46 34
f 3 34 23
f 3 23 16
f 3 16 15
f 3 15 8
f 3 8 9
f 3 9 4
f 4 9 10
f 5 6 11
f 6 12 11
f 7 13 12
f 7 12 14
f 8 15 9
f 9 16 23
f 9 23 36
f 9 36 37
f 9 37 24
f 9 24 17
f 9 17 10
f 9 15 16
f 11 12 13
f 12 18 19
f 12 19 20
f 12 20 21
f 12 21 22
f 12 22 14
f 18 25 26
f 18 26 27
f 18 27 28
f 18 28 29
f 18 29 30
f 18 30 19
f 19 30 29
f 19 29 31
f 19 31 20
f 20 31 32
f 20 32 21
f 21 32 33
f 23 34 35
f 23 35 36
f 24 37 35
f 25 38 26
f 26 38 31
f 26 31 29
f 26 29 27
f 27 29 28
f 31 38 39
f 31 39 32
f 32 39 40
f 32 40 41
f 32 41 33
f 33 41 42
f 33 42 43
f 33 43 44
f 33 44 45
f 33 45 46
f 34 47 48
f 34 48 35
f 34 46 47
f 35 37 36
f 38 49 39
f 39 49 50
f 39 50 51
f 39 51 40
f 40 51 41
f 41 51 42
f 42 51 43
f 43 51 44
f 44 51 45
f 45 51 46
f 46 51 47
f 47 51 52
f 50 52 51

