o convex_0
v -0.024174 -0.031524 -0.044817
v -0.041035 -0.002350 -0.045467
v -0.038441 -0.003645 -0.048709
v -0.007312 -0.000401 -0.045467
v -0.007312 -0.028288 -0.054544
v -0.033248 -0.000401 -0.054544
v -0.007312 -0.036070 -0.044817
v -0.028062 -0.019206 -0.053894
v -0.007312 -0.000401 -0.050652
v -0.037790 -0.016619 -0.044817
v -0.041035 -0.000401 -0.044817
v -0.015743 -0.026989 -0.054544
v -0.031304 -0.012077 -0.054544
v -0.011854 -0.036070 -0.045467
v -0.030010 -0.000401 -0.054544
v -0.028712 -0.028288 -0.045467
v -0.018337 -0.027635 -0.053247
v -0.033248 -0.000401 -0.044817
v -0.037790 -0.016619 -0.045467
v -0.007312 -0.026339 -0.054544
v -0.034549 -0.006239 -0.053247
v -0.009260 -0.030232 -0.053247
v -0.007312 -0.028933 -0.044817
v -0.033248 -0.023742 -0.045467
v -0.018988 -0.034122 -0.045467
v -0.040385 -0.008833 -0.045467
v -0.023530 -0.023742 -0.053894
f 17 16 27 
f 3 2 6 
f 5 4 7 
f 4 5 9 
f 6 4 9 
f 1 7 10 
f 6 2 11 
f 4 6 11 
f 10 7 11 
f 6 5 12 
f 6 12 13 
f 7 1 14 
f 5 6 15 
f 6 9 15 
f 4 11 18 
f 11 7 18 
f 13 8 19 
f 9 5 20 
f 5 15 20 
f 15 9 20 
f 3 6 21 
f 6 13 21 
f 13 19 21 
f 5 7 22 
f 12 5 22 
f 7 14 22 
f 17 12 22 
f 7 4 23 
f 4 18 23 
f 18 7 23 
f 1 10 24 
f 16 1 24 
f 8 16 24 
f 10 19 24 
f 19 8 24 
f 14 1 25 
f 1 16 25 
f 16 17 25 
f 22 14 25 
f 17 22 25 
f 2 3 26 
f 11 2 26 
f 10 11 26 
f 19 10 26 
f 3 21 26 
f 21 19 26 
f 8 13 27 
f 13 12 27 
f 16 8 27 
f 12 17 27 
o convex_1
v 0.008259 -0.034123 -0.045467
v 0.026411 -0.023101 -0.039628
v 0.026411 -0.023750 -0.039628
v -0.007312 -0.032826 -0.039628
v -0.007312 -0.023101 -0.053246
v 0.012141 -0.023750 -0.053895
v -0.007312 -0.039960 -0.040926
v -0.007312 -0.029586 -0.053895
v -0.007312 -0.023101 -0.046762
v 0.014088 -0.035420 -0.039628
v 0.017330 -0.023101 -0.039628
v 0.001769 -0.030235 -0.052597
v 0.019274 -0.030235 -0.042224
v 0.001122 -0.039960 -0.039628
v 0.001122 -0.039311 -0.041576
v 0.019925 -0.023101 -0.047411
v 0.003713 -0.026992 -0.054544
v 0.010840 -0.027641 -0.051302
v 0.013438 -0.035420 -0.040926
v -0.007312 -0.026344 -0.054544
v 0.012141 -0.023101 -0.053895
v -0.004717 -0.031530 -0.051948
f 39 42 49 
f 30 29 31 
f 31 32 34 
f 34 32 35 
f 32 31 36 
f 29 32 36 
f 30 31 37 
f 31 29 38 
f 29 36 38 
f 36 31 38 
f 30 37 40 
f 31 34 41 
f 37 31 41 
f 39 28 42 
f 41 34 42 
f 29 30 43 
f 32 29 43 
f 40 33 43 
f 30 40 43 
f 39 35 44 
f 39 44 45 
f 28 39 45 
f 33 40 45 
f 44 33 45 
f 40 37 46 
f 37 41 46 
f 42 28 46 
f 41 42 46 
f 28 45 46 
f 45 40 46 
f 35 32 47 
f 44 35 47 
f 44 47 48 
f 32 43 48 
f 43 33 48 
f 33 44 48 
f 47 32 48 
f 34 35 49 
f 35 39 49 
f 42 34 49 
o convex_2
v -0.022882 0.023587 -0.052598
v -0.040387 -0.000401 -0.046114
v -0.040387 -0.000401 -0.044817
v -0.009906 -0.000401 -0.050652
v -0.009906 0.033970 -0.044817
v -0.009906 -0.000401 -0.045467
v -0.033250 -0.000401 -0.054544
v -0.009906 0.026834 -0.053894
v -0.033250 0.020997 -0.045467
v -0.030010 0.013871 -0.053894
v -0.022882 0.030078 -0.044817
v -0.039089 0.008679 -0.046114
v -0.015095 0.022295 -0.054544
v -0.016392 0.031370 -0.047412
v -0.030010 -0.000401 -0.054544
v -0.009906 0.022295 -0.053894
v -0.022882 0.020351 -0.054544
v -0.037143 0.015166 -0.044817
v -0.033900 0.006735 -0.053247
v -0.009906 0.025535 -0.044817
v -0.013149 0.027480 -0.053247
v -0.033250 -0.000401 -0.044817
v -0.024177 0.028779 -0.046114
v -0.037143 0.015166 -0.045467
f 68 61 73 
f 52 51 53 
f 52 53 55 
f 53 54 55 
f 53 51 56 
f 54 53 57 
f 58 50 59 
f 52 54 60 
f 51 52 61 
f 60 54 63 
f 53 56 64 
f 56 62 64 
f 64 62 65 
f 57 53 65 
f 62 57 65 
f 53 64 65 
f 56 59 66 
f 59 50 66 
f 62 56 66 
f 57 62 66 
f 52 60 67 
f 60 58 67 
f 61 52 67 
f 56 51 68 
f 59 56 68 
f 51 61 68 
f 54 52 69 
f 55 54 69 
f 54 57 70 
f 50 63 70 
f 63 54 70 
f 66 50 70 
f 57 66 70 
f 52 55 71 
f 69 52 71 
f 55 69 71 
f 50 58 72 
f 58 60 72 
f 63 50 72 
f 60 63 72 
f 58 59 73 
f 67 58 73 
f 61 67 73 
f 59 68 73 
o convex_3
v -0.030013 -0.032822 -0.037684
v -0.044926 -0.008184 -0.036387
v -0.044276 -0.009486 -0.038981
v -0.034551 -0.000401 -0.044817
v -0.039736 -0.000401 -0.035737
v -0.033904 -0.023747 -0.044817
v -0.028716 -0.025690 -0.035737
v -0.041034 -0.000401 -0.044817
v -0.028716 -0.017262 -0.044817
v -0.040385 -0.021151 -0.035737
v -0.028716 -0.028286 -0.044817
v -0.044926 -0.000401 -0.035737
v -0.039736 -0.014669 -0.044167
v -0.039088 -0.021801 -0.040277
v -0.028716 -0.033476 -0.035737
v -0.034551 -0.000401 -0.043519
v -0.044276 -0.003645 -0.040925
v -0.031958 -0.029584 -0.041573
v -0.035200 -0.028286 -0.036387
v -0.041034 -0.008184 -0.044817
v -0.042979 -0.012079 -0.040925
f 93 86 94 
f 78 77 81 
f 77 79 81 
f 79 77 82 
f 75 76 83 
f 80 78 83 
f 79 82 84 
f 82 80 84 
f 78 81 85 
f 75 83 85 
f 83 78 85 
f 86 79 87 
f 80 83 88 
f 74 84 88 
f 84 80 88 
f 77 78 89 
f 78 80 89 
f 82 77 89 
f 80 82 89 
f 76 75 90 
f 75 85 90 
f 85 81 90 
f 84 74 91 
f 79 84 91 
f 87 79 91 
f 87 91 92 
f 83 87 92 
f 74 88 92 
f 88 83 92 
f 91 74 92 
f 81 79 93 
f 79 86 93 
f 90 81 93 
f 90 93 94 
f 83 76 94 
f 87 83 94 
f 86 87 94 
f 76 90 94 
o convex_4
v -0.007312 -0.038663 -0.042870
v -0.028713 -0.033474 -0.038981
v -0.028713 -0.033474 -0.035737
v -0.028064 -0.018560 -0.044817
v -0.007312 -0.034771 -0.035737
v -0.028713 -0.025695 -0.035737
v -0.007312 -0.029585 -0.044817
v -0.028713 -0.028939 -0.044817
v -0.012501 -0.040610 -0.035737
v -0.016393 -0.035419 -0.044817
v -0.018333 -0.038013 -0.040925
v -0.007312 -0.040610 -0.035737
v -0.028064 -0.018560 -0.044167
v -0.022875 -0.037364 -0.036387
v -0.007312 -0.036718 -0.044817
v -0.025470 -0.034771 -0.040925
v -0.007312 -0.030230 -0.042870
v -0.009258 -0.040610 -0.038981
f 106 103 112 
f 97 99 100 
f 96 97 100 
f 99 95 101 
f 96 100 102 
f 100 98 102 
f 98 101 102 
f 99 97 103 
f 102 101 104 
f 104 95 105 
f 95 99 106 
f 99 103 106 
f 100 99 107 
f 98 100 107 
f 101 98 107 
f 97 96 108 
f 103 97 108 
f 105 103 108 
f 101 95 109 
f 95 104 109 
f 104 101 109 
f 96 102 110 
f 102 104 110 
f 104 105 110 
f 108 96 110 
f 105 108 110 
f 99 101 111 
f 107 99 111 
f 101 107 111 
f 103 105 112 
f 105 95 112 
f 95 106 112 
o convex_5
v -0.035201 -0.028289 -0.035729
v -0.023528 -0.045148 0.049211
v -0.023528 -0.049039 0.049211
v -0.050114 -0.028289 0.047922
v -0.024176 -0.028936 -0.035089
v -0.040385 -0.027639 0.040130
v -0.036497 -0.042553 0.040130
v -0.024176 -0.036719 -0.035729
v -0.023528 -0.038664 0.029111
v -0.044925 -0.035424 0.044678
v -0.025472 -0.047742 0.033003
v -0.044925 -0.027639 0.049211
v -0.026120 -0.027639 -0.035729
v -0.048168 -0.027639 0.031706
v -0.034553 -0.044498 0.048570
v -0.023528 -0.036719 -0.035729
v -0.032606 -0.031533 -0.033143
v -0.036497 -0.027639 0.023922
v -0.023528 -0.043203 0.046624
v -0.033905 -0.042553 0.029111
v -0.040385 -0.037367 0.029760
v -0.045573 -0.030883 0.027165
v -0.035201 -0.027639 -0.035729
v -0.023528 -0.049689 0.044030
v -0.026771 -0.035424 -0.035729
v -0.023528 -0.029586 -0.035729
v -0.043628 -0.036072 0.049211
v -0.028715 -0.046443 0.034300
v -0.027419 -0.048392 0.044030
v -0.048168 -0.028289 0.031706
v -0.023528 -0.041256 0.040787
v -0.039089 -0.041256 0.045327
v -0.042330 -0.027639 0.045327
v -0.037791 -0.039959 0.031057
v -0.044277 -0.033478 0.031057
v -0.049464 -0.027639 0.049211
v -0.028715 -0.034125 -0.035729
v -0.024176 -0.047742 0.029760
f 128 136 150 
f 114 115 121 
f 115 114 124 
f 124 118 125 
f 120 113 125 
f 124 125 126 
f 121 115 128 
f 120 125 128 
f 118 121 130 
f 121 117 130 
f 125 118 130 
f 117 125 130 
f 114 121 131 
f 124 114 131 
f 113 129 133 
f 125 113 135 
f 113 126 135 
f 126 125 135 
f 128 115 136 
f 113 120 137 
f 117 121 138 
f 125 117 138 
f 121 128 138 
f 128 125 138 
f 116 122 139 
f 115 124 139 
f 127 115 139 
f 120 123 140 
f 119 132 140 
f 137 120 140 
f 132 137 140 
f 127 119 141 
f 115 127 141 
f 123 136 141 
f 136 115 141 
f 140 123 141 
f 119 140 141 
f 122 116 142 
f 116 126 142 
f 126 113 142 
f 113 134 142 
f 121 118 143 
f 131 121 143 
f 119 127 144 
f 122 133 144 
f 139 122 144 
f 127 139 144 
f 118 124 145 
f 124 131 145 
f 143 118 145 
f 131 143 145 
f 132 119 146 
f 133 129 146 
f 119 144 146 
f 144 133 146 
f 113 133 147 
f 133 122 147 
f 134 113 147 
f 122 142 147 
f 142 134 147 
f 126 116 148 
f 124 126 148 
f 116 139 148 
f 139 124 148 
f 129 113 149 
f 113 137 149 
f 137 132 149 
f 132 146 149 
f 146 129 149 
f 123 120 150 
f 120 128 150 
f 136 123 150 
o convex_6
v -0.023524 -0.039314 0.031057
v -0.008610 -0.052932 0.043381
v -0.007312 -0.052932 0.043381
v -0.008610 -0.041260 -0.035729
v -0.007312 -0.041907 0.023273
v -0.023524 -0.036721 -0.035729
v -0.022226 -0.030236 -0.034432
v -0.023524 -0.049688 0.042084
v -0.007312 -0.034775 -0.035729
v -0.007312 -0.047741 0.048570
v -0.023524 -0.045146 0.049211
v -0.016391 -0.039965 -0.035089
v -0.017040 -0.050334 0.032354
v -0.017040 -0.051632 0.048570
v -0.023524 -0.030236 -0.035729
v -0.007312 -0.041260 -0.035729
v -0.007312 -0.046444 0.045976
v -0.022875 -0.038016 0.023273
v -0.007312 -0.052283 0.049211
v -0.022875 -0.047741 0.026516
v -0.022875 -0.043202 0.045976
v -0.007312 -0.043204 0.032354
v -0.022226 -0.038016 -0.034432
v -0.023524 -0.049039 0.049211
v -0.008610 -0.051634 0.033003
v -0.015096 -0.052281 0.044678
v -0.022875 -0.039965 0.034300
v -0.007312 -0.034775 -0.034432
v -0.015096 -0.050334 0.029760
v -0.013150 -0.040612 -0.035729
f 179 163 180 
f 151 156 158 
f 155 153 159 
f 154 156 159 
f 153 155 160 
f 151 158 161 
f 156 151 165 
f 159 156 165 
f 157 159 165 
f 159 153 166 
f 154 159 166 
f 160 155 167 
f 155 157 168 
f 165 151 168 
f 157 165 168 
f 152 153 169 
f 153 160 169 
f 160 161 169 
f 158 156 170 
f 163 158 170 
f 162 163 170 
f 151 161 171 
f 161 160 171 
f 160 167 171 
f 167 155 172 
f 155 168 172 
f 156 162 173 
f 170 156 173 
f 162 170 173 
f 161 158 174 
f 158 164 174 
f 169 161 174 
f 164 169 174 
f 153 152 175 
f 166 153 175 
f 154 166 175 
f 158 163 176 
f 164 158 176 
f 152 169 176 
f 169 164 176 
f 175 152 176 
f 168 151 177 
f 151 171 177 
f 171 167 177 
f 167 172 177 
f 172 168 177 
f 157 155 178 
f 155 159 178 
f 159 157 178 
f 154 175 179 
f 176 163 179 
f 175 176 179 
f 156 154 180 
f 162 156 180 
f 163 162 180 
f 154 179 180 
o convex_7
v -0.054653 -0.016616 0.049214
v -0.027417 -0.026989 -0.033131
v -0.027417 -0.027639 -0.033131
v -0.042979 -0.015966 -0.033785
v -0.050114 -0.027639 0.042720
v -0.045574 -0.015966 0.035597
v -0.042332 -0.027639 0.044672
v -0.035849 -0.027639 -0.035729
v -0.035849 -0.015966 -0.035729
v -0.037145 -0.026989 0.024570
v -0.054003 -0.015966 0.035597
v -0.041685 -0.019209 -0.035084
v -0.050114 -0.015966 0.049214
v -0.049464 -0.027639 0.049214
v -0.054003 -0.020506 0.045326
v -0.048814 -0.026989 0.031056
v -0.043628 -0.015966 0.024570
v -0.051407 -0.018561 0.022626
v -0.027417 -0.026989 -0.035729
v -0.038445 -0.024396 -0.035737
v -0.044927 -0.026989 0.049214
v -0.041038 -0.026989 0.040784
v -0.050761 -0.023099 0.030410
v -0.048814 -0.015966 0.047270
v -0.035849 -0.015966 -0.034430
v -0.052707 -0.015966 0.049868
v -0.042332 -0.017264 -0.035737
f 200 192 207 
f 185 183 187 
f 183 185 188 
f 184 186 189 
f 183 182 190 
f 187 183 190 
f 186 184 191 
f 186 191 193 
f 185 187 194 
f 181 191 195 
f 194 181 195 
f 185 194 195 
f 188 185 196 
f 189 186 197 
f 190 182 197 
f 186 190 197 
f 191 184 198 
f 195 191 198 
f 182 183 199 
f 183 188 199 
f 189 182 199 
f 188 196 200 
f 196 192 200 
f 199 188 200 
f 194 187 201 
f 190 186 202 
f 187 190 202 
f 185 195 203 
f 196 185 203 
f 192 196 203 
f 198 192 203 
f 195 198 203 
f 186 193 204 
f 201 187 204 
f 193 201 204 
f 202 186 204 
f 187 202 204 
f 182 189 205 
f 197 182 205 
f 189 197 205 
f 191 181 206 
f 193 191 206 
f 181 194 206 
f 201 193 206 
f 194 201 206 
f 184 189 207 
f 198 184 207 
f 192 198 207 
f 189 199 207 
f 199 200 207 
o convex_8
v -0.055950 -0.006887 0.049868
v -0.036495 -0.015317 -0.033140
v -0.036495 -0.015966 -0.033140
v -0.045576 -0.000401 -0.035084
v -0.047520 -0.000401 0.031056
v -0.055300 -0.015966 0.044027
v -0.048168 -0.015966 0.044672
v -0.042982 -0.015966 -0.035084
v -0.039740 -0.000401 -0.035729
v -0.057246 -0.000401 0.044027
v -0.052058 -0.000401 0.048560
v -0.054004 -0.006887 0.021981
v -0.044280 -0.015317 0.027168
v -0.044928 -0.008830 -0.035737
v -0.052058 -0.015966 0.049868
v -0.054652 -0.013370 0.033653
v -0.036495 -0.015966 -0.035729
v -0.046872 -0.000401 0.027168
v -0.057246 -0.006887 0.045971
v -0.039740 -0.000401 -0.033140
v -0.049466 -0.000401 0.040784
v -0.057246 -0.000401 0.049214
v -0.055950 -0.014020 0.048560
v -0.054652 -0.002348 0.024570
v -0.045576 -0.004292 -0.035084
v -0.043630 -0.014020 -0.035729
v -0.045576 -0.015966 0.034298
v -0.049466 -0.015317 0.047915
v -0.053356 -0.015966 0.029757
v -0.054004 -0.000401 0.049868
f 218 229 237 
f 213 210 214 
f 210 213 215 
f 211 212 216 
f 212 211 217 
f 212 217 218 
f 210 209 220 
f 211 216 221 
f 213 214 222 
f 219 221 223 
f 209 210 224 
f 210 215 224 
f 216 209 224 
f 221 216 224 
f 216 212 225 
f 220 209 225 
f 212 220 225 
f 223 213 226 
f 219 223 226 
f 209 216 227 
f 225 209 227 
f 216 225 227 
f 218 214 228 
f 212 218 228 
f 218 217 229 
f 217 226 229 
f 229 226 230 
f 222 208 230 
f 213 222 230 
f 226 213 230 
f 208 229 230 
f 217 211 231 
f 226 217 231 
f 219 226 231 
f 211 221 232 
f 221 219 232 
f 231 211 232 
f 219 231 232 
f 223 221 233 
f 224 215 233 
f 221 224 233 
f 214 210 234 
f 210 220 234 
f 220 212 234 
f 228 214 234 
f 212 228 234 
f 214 218 235 
f 222 214 235 
f 218 222 235 
f 215 213 236 
f 213 223 236 
f 233 215 236 
f 223 233 236 
f 208 222 237 
f 222 218 237 
f 229 208 237 
o convex_9
v 0.019926 -0.020502 -0.050004
v 0.029005 -0.000401 -0.045467
v 0.029005 -0.006238 -0.045467
v -0.007312 -0.000401 -0.045467
v 0.022517 -0.000401 -0.053894
v -0.007312 -0.023100 -0.052598
v -0.006014 -0.023100 -0.046114
v -0.007312 -0.000401 -0.050652
v 0.021220 -0.023100 -0.045467
v 0.012788 -0.023100 -0.053894
v 0.021220 -0.013368 -0.053247
v 0.018625 -0.000401 -0.053894
v 0.027057 -0.014019 -0.046114
v 0.003719 -0.022449 -0.053894
v -0.007312 -0.010133 -0.045467
v 0.024466 -0.006238 -0.051949
v -0.007312 -0.022449 -0.046114
v 0.009556 -0.023100 -0.045467
v -0.007312 -0.021802 -0.052598
f 249 251 256 
f 240 239 241 
f 241 239 242 
f 241 242 245 
f 243 241 245 
f 240 241 246 
f 244 243 246 
f 238 246 247 
f 246 243 247 
f 238 247 248 
f 247 242 248 
f 245 242 249 
f 242 247 249 
f 246 238 250 
f 240 246 250 
f 238 248 250 
f 247 243 251 
f 249 247 251 
f 241 243 252 
f 246 241 252 
f 239 240 253 
f 242 239 253 
f 248 242 253 
f 240 250 253 
f 250 248 253 
f 243 244 254 
f 252 243 254 
f 252 254 255 
f 244 246 255 
f 246 252 255 
f 254 244 255 
f 243 245 256 
f 245 249 256 
f 251 243 256 
o convex_10
v 0.032895 -0.008184 -0.040278
v 0.011495 -0.023100 -0.045465
v 0.011495 -0.023100 -0.044816
v 0.022520 -0.000401 -0.045465
v 0.025110 -0.019205 -0.045465
v 0.017333 -0.023100 -0.039629
v 0.026409 -0.000401 -0.039629
v 0.027059 -0.023100 -0.039629
v 0.029653 -0.000401 -0.045465
v 0.033545 -0.000401 -0.039629
v 0.021875 -0.023100 -0.045465
v 0.030948 -0.012070 -0.042223
v 0.029004 -0.008835 -0.045465
f 268 261 269 
f 258 259 260 
f 258 260 261 
f 259 258 262 
f 260 259 263 
f 259 262 263 
f 262 258 264 
f 263 262 264 
f 261 260 265 
f 260 263 265 
f 265 263 266 
f 264 257 266 
f 263 264 266 
f 257 265 266 
f 258 261 267 
f 261 264 267 
f 264 258 267 
f 257 264 268 
f 264 261 268 
f 265 257 269 
f 261 265 269 
f 257 268 269 
o convex_11
v 0.007604 -0.039964 0.023911
v -0.005364 -0.052929 0.042071
v -0.007312 -0.052282 0.037542
v 0.007604 -0.038665 -0.038971
v -0.007312 -0.033478 -0.038323
v -0.007312 -0.046446 0.045969
v 0.007604 -0.051632 0.048562
v -0.007312 -0.040612 -0.039628
v 0.007604 -0.030882 -0.039628
v 0.003711 -0.050985 0.032347
v 0.007604 -0.044499 0.045969
v -0.007312 -0.042552 0.027809
v -0.001473 -0.041259 -0.035730
v -0.007312 -0.052282 0.049211
v 0.005658 -0.030882 -0.038971
v 0.006306 -0.046446 0.049211
v 0.007604 -0.049040 0.025207
v 0.003711 -0.040612 -0.035082
v 0.006954 -0.041259 0.032347
v -0.002771 -0.050985 0.027809
v 0.001117 -0.052929 0.045969
v -0.007312 -0.048388 0.049211
v -0.007312 -0.033478 -0.039628
v 0.007604 -0.049040 0.049868
v 0.002413 -0.039964 -0.039628
v -0.007312 -0.041259 -0.036378
v 0.007604 -0.051632 0.044016
v -0.007312 -0.044499 0.038181
f 288 281 297 
f 274 272 275 
f 273 270 276 
f 272 274 277 
f 270 273 278 
f 276 270 280 
f 274 275 281 
f 272 271 283 
f 275 272 283 
f 270 278 284 
f 274 281 284 
f 280 275 285 
f 273 276 286 
f 279 282 287 
f 273 286 287 
f 286 279 287 
f 280 270 288 
f 270 284 288 
f 284 281 288 
f 271 272 289 
f 282 279 289 
f 283 271 290 
f 276 283 290 
f 271 289 290 
f 289 279 290 
f 275 283 291 
f 285 275 291 
f 277 274 292 
f 278 277 292 
f 274 284 292 
f 284 278 292 
f 276 280 293 
f 283 276 293 
f 280 285 293 
f 291 283 293 
f 285 291 293 
f 277 278 294 
f 278 273 294 
f 282 277 294 
f 273 287 294 
f 287 282 294 
f 272 277 295 
f 277 282 295 
f 289 272 295 
f 282 289 295 
f 286 276 296 
f 279 286 296 
f 276 290 296 
f 290 279 296 
f 275 280 297 
f 281 275 297 
f 280 288 297 
o convex_12
v 0.021223 -0.033478 0.029754
v 0.007605 -0.051635 0.045321
v 0.008253 -0.051635 0.045321
v 0.007605 -0.038013 -0.039628
v 0.021223 -0.043202 0.026504
v 0.020573 -0.019857 -0.038971
v 0.007605 -0.040608 0.029754
v 0.021223 -0.030887 -0.038323
v 0.007605 -0.030234 -0.038971
v 0.021223 -0.039310 0.048562
v 0.012144 -0.037366 -0.037027
v 0.007605 -0.045146 0.047905
v 0.021223 -0.045796 0.048562
v 0.016682 -0.046443 0.029754
v 0.021223 -0.019857 -0.039628
v 0.007605 -0.049037 0.049868
v 0.008901 -0.038660 -0.037675
v 0.020573 -0.033478 0.029754
v 0.016033 -0.035425 -0.035730
v 0.008253 -0.049687 0.030402
v 0.016682 -0.048390 0.043367
v 0.019925 -0.031534 -0.039628
v 0.020573 -0.036716 0.042071
v 0.007605 -0.044499 0.046609
v 0.013441 -0.049687 0.048562
v 0.020573 -0.044499 0.049868
v 0.011497 -0.047740 0.024559
v 0.020573 -0.046443 0.044016
f 322 318 325 
f 301 299 304 
f 298 302 305 
f 301 304 306 
f 304 303 306 
f 302 298 307 
f 304 299 309 
f 302 307 310 
f 303 298 312 
f 298 305 312 
f 301 306 312 
f 306 303 312 
f 299 300 313 
f 309 299 313 
f 307 309 313 
f 308 311 314 
f 298 303 315 
f 303 304 315 
f 305 302 316 
f 302 311 316 
f 311 308 316 
f 300 299 317 
f 299 301 317 
f 301 314 317 
f 300 317 318 
f 312 305 319 
f 301 312 319 
f 314 301 319 
f 308 314 319 
f 305 316 319 
f 316 308 319 
f 307 298 320 
f 298 315 320 
f 320 315 321 
f 304 309 321 
f 309 307 321 
f 315 304 321 
f 307 320 321 
f 313 300 322 
f 300 318 322 
f 310 307 323 
f 307 313 323 
f 313 322 323 
f 322 310 323 
f 314 311 324 
f 317 314 324 
f 311 318 324 
f 318 317 324 
f 302 310 325 
f 311 302 325 
f 318 311 325 
f 310 322 325 
o convex_13
v 0.041326 -0.021156 0.034949
v 0.021225 -0.045798 0.045321
v 0.021225 -0.045147 0.040774
v 0.022520 -0.016614 -0.038971
v 0.036784 -0.016614 0.045321
v 0.024467 -0.027641 -0.038323
v 0.021225 -0.036065 0.041431
v 0.031601 -0.016614 -0.035730
v 0.034840 -0.034768 0.046609
v 0.043921 -0.016614 0.048562
v 0.021225 -0.029589 -0.039628
v 0.021225 -0.039956 0.049211
v 0.027060 -0.039956 0.031699
v 0.032896 -0.016614 0.028457
v 0.036784 -0.028935 0.031699
v 0.021225 -0.018563 -0.039628
v 0.029655 -0.020508 -0.037675
v 0.038731 -0.028935 0.049211
v 0.040028 -0.016614 0.049868
v 0.025764 -0.043198 0.048562
v 0.021874 -0.030886 -0.035730
v 0.033545 -0.034123 0.034940
v 0.021225 -0.032823 0.028457
v 0.030303 -0.016614 -0.039628
v 0.043921 -0.017266 0.044024
v 0.021874 -0.042550 0.025207
v 0.040028 -0.025696 0.040126
v 0.027708 -0.023750 -0.037675
v 0.029006 -0.036717 0.049868
v 0.030303 -0.038013 0.036893
v 0.031601 -0.017266 -0.035730
v 0.028357 -0.041256 0.045321
v 0.021225 -0.045147 0.049211
v 0.042623 -0.021802 0.046617
v 0.038084 -0.016614 0.048562
v 0.021225 -0.038662 0.047914
v 0.034840 -0.016614 0.038181
v 0.041975 -0.019860 0.049868
v 0.039379 -0.028289 0.045969
v 0.038084 -0.024399 0.023911
v 0.023818 -0.044498 0.044673
f 338 357 366 
f 328 327 332 
f 329 330 333 
f 333 330 335 
f 328 332 336 
f 332 327 337 
f 330 329 339 
f 336 332 341 
f 335 330 344 
f 334 343 345 
f 328 336 346 
f 336 331 346 
f 340 334 347 
f 339 329 348 
f 332 339 348 
f 329 341 348 
f 341 332 348 
f 329 333 349 
f 331 336 349 
f 341 329 349 
f 336 341 349 
f 333 335 350 
f 328 346 351 
f 346 338 351 
f 342 340 353 
f 347 331 353 
f 340 347 353 
f 331 349 353 
f 349 342 353 
f 344 337 354 
f 345 343 354 
f 346 331 355 
f 338 346 355 
f 347 334 355 
f 331 347 355 
f 349 333 356 
f 342 349 356 
f 350 326 356 
f 333 350 356 
f 334 345 357 
f 338 355 357 
f 355 334 357 
f 337 327 358 
f 327 345 358 
f 354 337 358 
f 345 354 358 
f 335 343 359 
f 326 350 359 
f 350 335 359 
f 352 326 359 
f 344 330 360 
f 337 344 360 
f 330 332 361 
f 332 337 361 
f 360 330 361 
f 337 360 361 
f 332 330 362 
f 330 339 362 
f 339 332 362 
f 343 335 363 
f 335 344 363 
f 344 354 363 
f 354 343 363 
f 334 340 364 
f 343 334 364 
f 340 352 364 
f 359 343 364 
f 352 359 364 
f 340 342 365 
f 352 340 365 
f 326 352 365 
f 342 356 365 
f 356 326 365 
f 327 328 366 
f 345 327 366 
f 328 351 366 
f 351 338 366 
f 357 345 366 
o convex_14
v -0.037791 0.020994 -0.040277
v -0.044923 -0.000401 -0.038981
v -0.044923 -0.000401 -0.035737
v -0.033903 -0.000401 -0.044167
v -0.029362 0.022295 -0.035737
v -0.030012 0.024891 -0.044817
v -0.041032 0.004787 -0.044817
v -0.030661 0.030079 -0.035737
v -0.039087 -0.000401 -0.035737
v -0.043627 0.011273 -0.035737
v -0.029362 0.013869 -0.044817
v -0.041032 0.012571 -0.042221
v -0.041032 -0.000401 -0.044817
v -0.029362 0.029429 -0.040277
v -0.036497 0.017106 -0.044817
v -0.038440 0.021644 -0.035737
v -0.044276 0.004787 -0.040277
v -0.041681 0.015161 -0.038981
v -0.034552 0.025538 -0.039629
f 382 374 385 
f 369 368 370 
f 369 371 374 
f 369 370 375 
f 370 371 375 
f 371 369 375 
f 368 369 376 
f 369 374 376 
f 371 370 377 
f 373 372 377 
f 370 368 379 
f 377 370 379 
f 373 377 379 
f 374 371 380 
f 371 377 380 
f 377 372 380 
f 367 372 381 
f 372 373 381 
f 378 367 381 
f 373 378 381 
f 376 374 382 
f 368 376 383 
f 378 373 383 
f 379 368 383 
f 373 379 383 
f 367 378 384 
f 382 367 384 
f 376 382 384 
f 383 376 384 
f 378 383 384 
f 372 367 385 
f 380 372 385 
f 374 380 385 
f 367 382 385 
o convex_15
v -0.018337 0.033320 -0.044167
v -0.029362 0.015163 -0.044817
v -0.028712 0.015163 -0.044817
v -0.029362 0.022949 -0.035737
v -0.009906 0.032024 -0.035737
v -0.028061 0.032024 -0.035737
v -0.009906 0.026837 -0.044817
v -0.009906 0.038510 -0.038332
v -0.029362 0.025541 -0.044817
v -0.009906 0.034618 -0.044817
v -0.015743 0.037861 -0.035737
v -0.026117 0.032024 -0.040925
v -0.018988 0.035914 -0.040277
v -0.028712 0.015163 -0.044167
v -0.029362 0.030724 -0.038332
v -0.010556 0.026192 -0.044167
v -0.009906 0.038510 -0.035737
f 393 396 402 
f 389 390 391 
f 388 387 392 
f 390 392 393 
f 387 389 394 
f 392 387 394 
f 392 394 395 
f 393 392 395 
f 394 386 395 
f 391 390 396 
f 386 394 397 
f 393 395 398 
f 395 386 398 
f 391 396 398 
f 396 393 398 
f 386 397 398 
f 397 391 398 
f 387 388 399 
f 389 387 399 
f 390 389 399 
f 389 391 400 
f 394 389 400 
f 397 394 400 
f 391 397 400 
f 388 392 401 
f 392 390 401 
f 399 388 401 
f 390 399 401 
f 390 393 402 
f 396 390 402 
o convex_16
v -0.055949 0.006082 0.049868
v -0.037144 0.011921 -0.033140
v -0.037144 0.011270 -0.033140
v -0.045576 -0.000401 -0.035084
v -0.047521 -0.000401 0.031056
v -0.043630 0.011921 -0.034430
v -0.048816 0.011921 0.045971
v -0.057248 -0.000401 0.044027
v -0.055302 0.011921 0.041429
v -0.039740 -0.000401 -0.035729
v -0.052059 -0.000401 0.048560
v -0.044929 0.011270 0.028466
v -0.055302 0.004787 0.031056
v -0.044280 0.009325 -0.035737
v -0.051409 0.011921 0.049868
v -0.039090 0.000896 -0.035084
v -0.055949 0.011921 0.048560
v -0.037144 0.011921 -0.035729
v -0.046873 -0.000401 0.027168
v -0.055949 -0.000401 0.049868
v -0.049463 -0.000401 0.040784
v -0.045576 0.003491 -0.033785
v -0.057248 0.004787 0.045971
v -0.054652 0.000248 0.024570
v -0.052706 0.011270 0.021981
v -0.046226 0.011921 0.035597
f 423 407 428 
f 404 408 409 
f 406 407 410 
f 409 408 411 
f 407 406 412 
f 410 407 413 
f 405 404 414 
f 412 406 416 
f 409 411 417 
f 413 409 417 
f 403 417 419 
f 417 411 419 
f 404 405 420 
f 408 404 420 
f 416 408 420 
f 412 416 420 
f 405 418 420 
f 418 412 420 
f 407 412 421 
f 405 414 421 
f 414 407 421 
f 418 405 421 
f 412 418 421 
f 410 413 422 
f 417 403 422 
f 413 417 422 
f 409 413 423 
f 413 407 423 
f 415 416 424 
f 416 406 424 
f 415 410 425 
f 411 415 425 
f 403 419 425 
f 419 411 425 
f 422 403 425 
f 410 422 425 
f 406 410 426 
f 410 415 426 
f 424 406 426 
f 415 424 426 
f 411 408 427 
f 415 411 427 
f 416 415 427 
f 408 416 427 
f 404 409 428 
f 414 404 428 
f 407 414 428 
f 409 423 428 
o convex_17
v -0.055303 0.013867 0.048560
v -0.030013 0.022945 -0.033140
v -0.030013 0.022297 -0.033140
v -0.042981 0.011921 -0.035737
v -0.044927 0.011921 0.029757
v -0.051408 0.022945 0.044672
v -0.042981 0.022945 0.044027
v -0.037794 0.022945 -0.035084
v -0.036497 0.011921 -0.035729
v -0.051408 0.011921 0.049868
v -0.039740 0.022297 0.031056
v -0.042335 0.015163 -0.035084
v -0.055303 0.011921 0.042720
v -0.046222 0.022945 0.049868
v -0.052059 0.015813 0.027168
v -0.048816 0.011921 0.046625
v -0.049465 0.022945 0.031056
v -0.030013 0.022945 -0.035729
v -0.050762 0.022945 0.049868
v -0.039091 0.020999 -0.035737
v -0.043629 0.012569 -0.033131
v -0.036497 0.011921 -0.034430
v -0.054003 0.017757 0.046625
v -0.050762 0.019053 0.027168
v -0.054651 0.011921 0.049868
v -0.052706 0.012569 0.024570
f 443 449 454 
f 430 434 435 
f 434 430 436 
f 433 432 437 
f 432 433 438 
f 431 430 439 
f 433 431 439 
f 430 435 439 
f 432 438 441 
f 435 434 442 
f 438 433 444 
f 433 439 444 
f 439 435 444 
f 435 442 444 
f 442 438 444 
f 434 436 445 
f 430 431 446 
f 436 430 446 
f 431 437 446 
f 437 432 446 
f 442 434 447 
f 438 442 447 
f 432 440 448 
f 445 436 448 
f 440 445 448 
f 436 446 448 
f 446 432 448 
f 440 432 449 
f 443 440 449 
f 431 433 450 
f 437 431 450 
f 433 437 450 
f 441 429 451 
f 443 441 451 
f 429 447 451 
f 447 434 451 
f 440 443 452 
f 434 445 452 
f 445 440 452 
f 443 451 452 
f 451 434 452 
f 429 441 453 
f 441 438 453 
f 447 429 453 
f 438 447 453 
f 432 441 454 
f 441 443 454 
f 449 432 454 
o convex_18
v -0.037146 0.024243 -0.033129
v -0.024176 0.045643 0.050508
v -0.024176 0.041751 0.050508
v -0.050763 0.024243 0.049208
v -0.025472 0.025542 -0.035079
v -0.041682 0.022945 0.040775
v -0.039090 0.038508 0.047258
v -0.024824 0.034619 -0.033779
v -0.024176 0.035912 0.033642
v -0.027419 0.045643 0.045966
v -0.037146 0.022945 -0.035729
v -0.044925 0.029431 0.029759
v -0.028715 0.022945 -0.035079
v -0.045573 0.022945 0.049858
v -0.030011 0.030731 -0.035729
v -0.024176 0.026837 -0.035729
v -0.049464 0.022945 0.033642
v -0.030660 0.041102 0.025867
v -0.039090 0.022945 0.029759
v -0.024176 0.044343 0.028459
v -0.024176 0.039157 0.046616
v -0.040386 0.033323 0.024567
v -0.045573 0.031378 0.049858
v -0.024176 0.033972 -0.035729
v -0.045573 0.032025 0.046616
v -0.047520 0.025542 0.028459
v -0.032604 0.043047 0.049208
v -0.035849 0.037859 0.027809
v -0.033903 0.027486 -0.035079
v -0.024176 0.034619 0.025217
v -0.050112 0.022945 0.049858
v -0.026120 0.043047 0.023267
v -0.035201 0.039806 0.050508
v -0.032604 0.043047 0.046616
v -0.027419 0.032676 -0.035729
v -0.050112 0.025542 0.045966
v -0.047520 0.023597 0.021976
v -0.024824 0.046292 0.042725
v -0.038439 0.035266 0.025217
v -0.043626 0.022945 0.046616
v -0.041682 0.031378 0.021326
f 476 483 495 
f 456 457 463 
f 460 465 467 
f 465 460 468 
f 456 463 470 
f 459 467 470 
f 467 465 470 
f 465 469 470 
f 465 468 471 
f 463 460 473 
f 460 467 473 
f 467 459 473 
f 456 470 474 
f 463 457 475 
f 460 463 475 
f 457 468 475 
f 470 469 478 
f 462 474 478 
f 474 470 478 
f 461 476 479 
f 477 461 479 
f 458 477 479 
f 466 455 480 
f 479 466 480 
f 456 464 481 
f 461 477 481 
f 465 455 483 
f 469 465 483 
f 470 463 484 
f 459 470 484 
f 463 473 484 
f 473 459 484 
f 458 471 485 
f 471 468 485 
f 477 458 485 
f 472 464 486 
f 462 472 486 
f 474 462 486 
f 457 456 487 
f 468 457 487 
f 456 481 487 
f 481 477 487 
f 485 468 487 
f 477 485 487 
f 464 472 488 
f 481 464 488 
f 461 481 488 
f 482 461 488 
f 472 482 488 
f 472 462 489 
f 462 478 489 
f 478 469 489 
f 482 472 489 
f 469 482 489 
f 471 458 490 
f 458 479 490 
f 479 480 490 
f 490 480 491 
f 455 465 491 
f 465 471 491 
f 480 455 491 
f 471 490 491 
f 464 456 492 
f 456 474 492 
f 486 464 492 
f 474 486 492 
f 476 461 493 
f 461 482 493 
f 482 469 493 
f 469 483 493 
f 483 476 493 
f 468 460 494 
f 460 475 494 
f 475 468 494 
f 455 466 495 
f 466 479 495 
f 479 476 495 
f 483 455 495 
o convex_19
v -0.009906 0.047586 0.051165
v -0.024174 0.027485 -0.035737
v -0.022875 0.027485 -0.035737
v -0.009906 0.039160 -0.033143
v -0.024174 0.046938 0.045312
v -0.009906 0.041102 0.039485
v -0.024174 0.039157 0.045976
v -0.024174 0.034621 -0.035737
v -0.009906 0.032026 -0.035737
v -0.010556 0.049535 0.043381
v -0.023524 0.035918 0.031702
v -0.013798 0.038510 -0.035082
v -0.009906 0.039160 0.027168
v -0.015096 0.046938 0.026513
v -0.024174 0.046289 0.050510
v -0.018336 0.037217 -0.035737
v -0.009906 0.044346 0.049863
v -0.024174 0.041750 0.050510
v -0.014446 0.049535 0.049217
v -0.009906 0.047586 0.027168
v -0.022227 0.045643 0.030409
v -0.022875 0.027485 -0.035082
v -0.023524 0.034621 0.022625
v -0.017688 0.048885 0.046622
v -0.024174 0.043049 0.018083
v -0.009906 0.038510 -0.035737
v -0.009906 0.049535 0.049863
f 515 505 522 
f 499 496 501 
f 500 497 502 
f 498 497 503 
f 497 500 503 
f 499 501 504 
f 498 503 504 
f 501 502 506 
f 504 501 508 
f 501 506 508 
f 500 502 510 
f 504 503 511 
f 501 496 512 
f 502 501 512 
f 496 510 513 
f 510 502 513 
f 512 496 513 
f 502 512 513 
f 496 499 515 
f 499 507 515 
f 509 505 515 
f 507 509 515 
f 509 507 516 
f 507 511 516 
f 497 498 517 
f 498 504 517 
f 504 508 517 
f 517 508 518 
f 502 497 518 
f 506 502 518 
f 508 506 518 
f 497 517 518 
f 505 509 519 
f 500 510 519 
f 514 505 519 
f 510 514 519 
f 516 500 519 
f 509 516 519 
f 503 500 520 
f 511 503 520 
f 500 516 520 
f 516 511 520 
f 499 504 521 
f 507 499 521 
f 504 511 521 
f 511 507 521 
f 510 496 522 
f 505 514 522 
f 514 510 522 
f 496 515 522 
o convex_20
v 0.022519 0.016465 -0.048709
v -0.003420 0.033970 -0.045467
v -0.003420 0.033970 -0.046114
v -0.009906 -0.000401 -0.045467
v -0.009906 0.026834 -0.053894
v 0.022519 -0.000401 -0.053894
v 0.029005 -0.000401 -0.045467
v -0.009906 -0.000401 -0.050652
v 0.012140 0.021643 -0.053894
v 0.016680 0.026185 -0.045467
v -0.009906 0.033321 -0.045467
v 0.001768 0.028133 -0.052598
v 0.027706 0.009978 -0.046114
v 0.020572 0.010624 -0.053894
v -0.009906 0.022295 -0.053894
v 0.007611 0.031370 -0.046114
v 0.018626 -0.000401 -0.053894
v 0.024465 0.004141 -0.051949
v 0.021220 0.021643 -0.046114
v 0.016680 0.018403 -0.053247
v -0.002772 0.027480 -0.053894
v 0.011488 0.026185 -0.050004
v 0.024465 0.017104 -0.045467
v -0.009906 0.028133 -0.053247
f 543 527 546 
f 524 526 529 
f 526 528 529 
f 526 527 530 
f 528 526 530 
f 528 527 531 
f 524 529 532 
f 524 525 533 
f 526 524 533 
f 527 526 533 
f 528 531 536 
f 523 535 536 
f 527 528 537 
f 530 527 537 
f 525 524 538 
f 524 532 538 
f 534 525 538 
f 528 530 539 
f 537 528 539 
f 530 537 539 
f 529 528 540 
f 535 529 540 
f 528 536 540 
f 536 535 540 
f 523 536 542 
f 536 531 542 
f 541 523 542 
f 531 527 543 
f 525 534 543 
f 534 531 543 
f 531 534 544 
f 538 532 544 
f 534 538 544 
f 532 541 544 
f 542 531 544 
f 541 542 544 
f 532 529 545 
f 535 523 545 
f 529 535 545 
f 523 541 545 
f 541 532 545 
f 533 525 546 
f 527 533 546 
f 525 543 546 
o convex_21
v 0.032248 -0.014020 -0.038331
v 0.036139 -0.000401 -0.026009
v 0.030300 -0.000401 -0.026009
v 0.027060 -0.016614 -0.026009
v 0.027060 -0.000401 -0.039628
v 0.023168 -0.016614 -0.039628
v 0.032896 -0.016614 -0.026009
v 0.033543 -0.000401 -0.039628
v 0.030950 -0.016614 -0.039628
v 0.034193 -0.008186 -0.035736
v 0.023168 -0.015965 -0.038331
v 0.034193 -0.013371 -0.026660
v 0.026411 -0.015965 -0.026660
v 0.034193 -0.004293 -0.038331
f 548 556 560 
f 548 549 550 
f 549 548 551 
f 548 550 553 
f 550 552 553 
f 551 548 554 
f 552 551 554 
f 552 554 555 
f 547 553 555 
f 553 552 555 
f 549 551 557 
f 551 552 557 
f 553 547 558 
f 548 553 558 
f 547 556 558 
f 556 548 558 
f 550 549 559 
f 552 550 559 
f 549 557 559 
f 557 552 559 
f 554 548 560 
f 555 554 560 
f 547 555 560 
f 556 547 560 
o convex_22
v 0.032897 -0.016614 0.027816
v 0.045867 -0.000401 0.049214
v 0.045217 -0.000401 0.049868
v 0.030303 -0.000401 -0.026009
v 0.033545 -0.015965 -0.024710
v 0.044569 -0.015965 0.048568
v 0.045867 -0.000401 0.027170
v 0.038731 -0.000401 0.042730
v 0.027060 -0.016614 -0.026009
v 0.036139 -0.000401 -0.026009
v 0.038081 -0.016614 0.047922
v 0.034843 -0.000401 0.021325
v 0.042623 -0.016614 0.033000
v 0.027060 -0.015965 -0.020818
v 0.034843 -0.010777 -0.026009
v 0.041975 -0.000401 0.049868
v 0.030303 -0.000401 -0.020818
v 0.043273 -0.016614 0.049868
v 0.045867 -0.009479 0.048568
v 0.032897 -0.016614 -0.026009
v 0.045867 -0.001050 0.027170
v 0.036785 -0.015965 0.044676
v 0.036139 -0.000401 0.031054
v 0.034195 -0.014020 -0.025356
v 0.032897 -0.015965 0.027816
v 0.035491 -0.007537 -0.026009
v 0.045217 -0.013371 0.045968
v 0.040677 -0.000401 0.048568
v 0.040029 -0.016614 0.049868
f 578 576 589 
f 563 562 564 
f 564 562 567 
f 563 564 568 
f 564 567 570 
f 569 564 570 
f 561 569 571 
f 568 564 572 
f 571 569 573 
f 569 561 574 
f 564 569 574 
f 569 570 575 
f 563 568 576 
f 572 564 577 
f 564 574 577 
f 574 572 577 
f 573 566 578 
f 571 573 578 
f 563 576 578 
f 562 563 579 
f 567 562 579 
f 563 578 579 
f 578 566 579 
f 565 573 580 
f 573 569 580 
f 569 575 580 
f 570 567 581 
f 567 579 581 
f 561 571 582 
f 568 572 583 
f 573 565 584 
f 565 580 584 
f 580 575 584 
f 581 573 584 
f 575 581 584 
f 574 561 585 
f 572 574 585 
f 561 582 585 
f 582 568 585 
f 568 583 585 
f 583 572 585 
f 575 570 586 
f 570 581 586 
f 581 575 586 
f 566 573 587 
f 579 566 587 
f 573 581 587 
f 581 579 587 
f 576 568 588 
f 571 576 588 
f 568 582 588 
f 582 571 588 
f 576 571 589 
f 571 578 589 
o convex_23
v 0.012792 0.019703 -0.045464
v -0.002772 0.038510 -0.038331
v -0.002772 0.038510 -0.038981
v -0.009906 0.025540 -0.045464
v 0.005658 0.032672 -0.045464
v 0.012792 0.026190 -0.038331
v -0.009906 0.031374 -0.038331
v 0.012792 0.033970 -0.039629
v -0.009906 0.033970 -0.045464
v 0.012792 0.029430 -0.045464
v -0.009906 0.037860 -0.038331
v 0.012143 0.019703 -0.044816
v 0.008900 0.035914 -0.038331
v 0.002414 0.036562 -0.041575
v -0.009906 0.025540 -0.044816
v -0.009906 0.037212 -0.041575
v -0.002772 0.035914 -0.043518
f 598 605 606 
f 590 593 594 
f 595 591 596 
f 595 590 597 
f 594 593 598 
f 593 596 598 
f 590 594 599 
f 597 590 599 
f 594 597 599 
f 591 592 600 
f 596 591 600 
f 598 596 600 
f 593 590 601 
f 590 595 601 
f 595 596 601 
f 592 591 602 
f 591 595 602 
f 595 597 602 
f 602 597 603 
f 597 594 603 
f 592 602 603 
f 596 593 604 
f 593 601 604 
f 601 596 604 
f 600 592 605 
f 598 600 605 
f 594 598 606 
f 603 594 606 
f 592 603 606 
f 605 592 606 
o convex_24
v 0.026408 0.022293 -0.039629
v 0.012792 0.019048 -0.045464
v 0.022520 -0.000401 -0.045464
v 0.012792 0.025535 -0.038331
v 0.031599 -0.000401 -0.038331
v 0.028354 0.009327 -0.045464
v 0.013442 0.028780 -0.045464
v 0.015388 0.032668 -0.038331
v 0.027059 -0.000401 -0.038331
v 0.031599 0.013222 -0.038331
v 0.030301 -0.000401 -0.044816
v 0.021872 0.021643 -0.045464
v 0.019280 0.028780 -0.040926
v 0.012792 0.033322 -0.039629
v 0.031599 0.010627 -0.040926
v 0.029004 0.017104 -0.040926
v 0.022520 -0.000401 -0.044816
v 0.025112 0.024237 -0.038331
f 607 619 624 
f 609 608 612 
f 612 608 613 
f 610 611 614 
f 611 610 615 
f 609 611 615 
f 614 611 616 
f 611 609 617 
f 609 612 617 
f 612 613 618 
f 607 618 619 
f 618 613 619 
f 608 610 620 
f 613 608 620 
f 610 614 620 
f 619 613 620 
f 614 619 620 
f 616 611 621 
f 611 617 621 
f 617 612 621 
f 607 616 622 
f 618 607 622 
f 612 618 622 
f 616 621 622 
f 621 612 622 
f 608 609 623 
f 610 608 623 
f 609 615 623 
f 615 610 623 
f 616 607 624 
f 614 616 624 
f 619 614 624 
o convex_25
v -0.009906 0.044994 0.050508
v 0.001118 0.030728 -0.038331
v 0.003064 0.030728 -0.038331
v -0.003421 0.039160 -0.035730
v 0.003064 0.048884 0.050508
v -0.009906 0.031377 -0.038331
v 0.003064 0.039808 0.036246
v -0.009906 0.048237 0.031708
v 0.003064 0.037862 -0.038331
v -0.009906 0.038513 -0.038331
v -0.009906 0.039808 0.031708
v -0.003421 0.050183 0.047266
v 0.003064 0.042402 0.047266
v 0.003064 0.046940 0.026513
v -0.009906 0.049534 0.050508
v 0.002416 0.037862 0.022623
v -0.009906 0.043049 0.047266
v -0.002126 0.048237 0.031060
v 0.003064 0.044344 0.050508
v 0.002416 0.049534 0.047266
v -0.000828 0.039160 -0.034433
v -0.009906 0.031377 -0.037674
v -0.008607 0.047588 0.025865
v 0.001766 0.030728 -0.037026
f 640 646 648 
f 627 626 630 
f 627 629 631 
f 630 625 632 
f 629 627 633 
f 627 630 633 
f 633 630 634 
f 630 632 634 
f 628 633 634 
f 625 630 635 
f 631 629 637 
f 629 633 638 
f 625 629 639 
f 632 625 639 
f 629 636 639 
f 636 632 639 
f 627 631 640 
f 631 635 640 
f 625 635 641 
f 635 631 641 
f 631 637 641 
f 629 625 643 
f 637 629 643 
f 625 641 643 
f 641 637 643 
f 636 629 644 
f 629 638 644 
f 642 636 644 
f 638 642 644 
f 633 628 645 
f 638 633 645 
f 628 642 645 
f 642 638 645 
f 630 626 646 
f 635 630 646 
f 640 635 646 
f 628 634 647 
f 634 632 647 
f 632 636 647 
f 642 628 647 
f 636 642 647 
f 626 627 648 
f 627 640 648 
f 646 626 648 
o convex_26
v 0.008901 0.047586 0.050516
v 0.014737 0.024245 -0.038331
v 0.016035 0.024245 -0.038331
v 0.003713 0.037857 -0.037027
v 0.003064 0.039158 0.033653
v 0.016035 0.044993 0.049864
v 0.016035 0.032676 -0.037679
v 0.016035 0.036564 0.042732
v 0.003064 0.030731 -0.038331
v 0.003064 0.048884 0.049864
v 0.010197 0.044993 0.025217
v 0.003064 0.043695 0.049864
v 0.015386 0.033974 0.031052
v 0.003064 0.046937 0.027817
v 0.016035 0.043046 0.027817
v 0.010197 0.035918 -0.037027
v 0.016035 0.040453 0.050516
v 0.008253 0.048235 0.046620
v 0.003064 0.037211 -0.038331
v 0.003713 0.030083 -0.037679
v 0.003064 0.041751 0.045324
v 0.005659 0.046288 0.025217
v 0.015386 0.038509 0.048568
v 0.014737 0.024245 -0.037679
v 0.015386 0.045642 0.045976
v 0.005659 0.037857 -0.034435
v 0.014737 0.033325 -0.038331
v 0.003064 0.037857 0.023921
v 0.003713 0.048884 0.044028
f 666 670 677 
f 654 651 655 
f 651 654 656 
f 651 650 657 
f 657 653 658 
f 649 658 660 
f 658 653 660 
f 651 656 661 
f 657 658 662 
f 654 655 663 
f 659 663 664 
f 654 649 665 
f 656 654 665 
f 649 660 665 
f 658 649 666 
f 651 657 667 
f 662 652 667 
f 657 662 667 
f 652 664 667 
f 657 650 668 
f 660 653 669 
f 653 661 669 
f 661 656 669 
f 652 662 670 
f 666 659 670 
f 656 665 671 
f 665 660 671 
f 660 669 671 
f 669 656 671 
f 650 651 672 
f 651 661 672 
f 661 653 672 
f 668 650 672 
f 649 654 673 
f 654 663 673 
f 663 659 673 
f 666 649 673 
f 659 666 673 
f 659 664 674 
f 664 652 674 
f 652 670 674 
f 670 659 674 
f 655 651 675 
f 663 655 675 
f 664 663 675 
f 651 667 675 
f 667 664 675 
f 653 657 676 
f 657 668 676 
f 672 653 676 
f 668 672 676 
f 662 658 677 
f 658 666 677 
f 670 662 677 
o convex_27
v 0.030950 0.013866 0.010956
v 0.027708 -0.000401 -0.038331
v 0.023817 0.013217 -0.038331
v 0.031599 0.013866 -0.038331
v 0.031599 -0.000401 -0.016278
v 0.031599 -0.000401 -0.038331
v 0.031599 0.013866 0.010956
v 0.030301 -0.000401 -0.019520
v 0.023817 0.013866 -0.038331
v 0.030950 0.013217 0.010956
v 0.023817 0.013217 -0.037680
f 687 678 688 
f 679 680 681 
f 682 679 683 
f 679 681 683 
f 681 682 683 
f 681 678 684 
f 682 681 684 
f 679 682 685 
f 681 680 686 
f 678 681 686 
f 684 678 687 
f 682 684 687 
f 685 682 687 
f 685 687 688 
f 680 679 688 
f 679 685 688 
f 678 686 688 
f 686 680 688 
o convex_28
v 0.025763 0.038508 0.050507
v 0.023817 0.013866 -0.038331
v 0.030949 0.013866 -0.038331
v 0.016685 0.032024 -0.038331
v 0.016037 0.035915 0.042080
v 0.031599 0.016462 0.026504
v 0.031599 0.032024 0.031705
v 0.016685 0.044995 0.045976
v 0.016037 0.023599 -0.037027
v 0.031599 0.026189 0.049212
v 0.026410 0.023595 -0.036383
v 0.030949 0.013866 0.014189
v 0.026410 0.036561 0.028452
v 0.016037 0.044343 0.050507
v 0.031599 0.015813 -0.034435
v 0.031599 0.033968 0.049864
v 0.016037 0.033319 0.029104
v 0.016037 0.038508 0.049212
v 0.021223 0.029431 -0.035087
v 0.030949 0.022300 0.042724
v 0.016037 0.032673 -0.035731
v 0.021223 0.041104 0.034296
v 0.027059 0.038508 0.046620
v 0.030949 0.017760 0.031044
v 0.023168 0.014515 -0.037679
v 0.016685 0.032673 -0.035731
v 0.031599 0.026838 0.007710
v 0.030950 0.028785 0.050516
v 0.016685 0.042399 0.025860
v 0.031599 0.013866 0.014189
v 0.029652 0.018409 -0.037679
v 0.029652 0.033968 0.030400
v 0.025114 0.024894 -0.037679
v 0.022521 0.041747 0.049864
v 0.030949 0.015167 0.021321
v 0.016037 0.023599 -0.038331
v 0.016037 0.043048 0.030400
v 0.031599 0.033968 0.043376
v 0.023817 0.037213 0.020668
f 714 710 727 
f 691 690 692 
f 694 695 698 
f 690 691 700 
f 697 693 702 
f 695 694 703 
f 698 695 704 
f 693 697 705 
f 702 693 706 
f 694 698 708 
f 698 706 708 
f 697 702 709 
f 701 710 711 
f 706 693 712 
f 694 708 712 
f 708 706 712 
f 690 700 713 
f 705 697 713 
f 700 705 713 
f 707 692 714 
f 692 709 714 
f 695 703 715 
f 689 702 716 
f 704 689 716 
f 698 704 716 
f 706 698 716 
f 702 706 716 
f 696 710 717 
f 714 709 717 
f 710 714 717 
f 700 691 718 
f 703 694 718 
f 691 703 718 
f 703 691 719 
f 699 715 719 
f 715 703 719 
f 707 701 720 
f 701 711 720 
f 691 692 721 
f 692 707 721 
f 695 715 721 
f 715 699 721 
f 719 691 721 
f 699 719 721 
f 720 695 721 
f 707 720 721 
f 702 689 722 
f 696 702 722 
f 689 704 722 
f 710 696 722 
f 704 711 722 
f 711 710 722 
f 693 705 723 
f 705 700 723 
f 712 693 723 
f 694 712 723 
f 700 718 723 
f 718 694 723 
f 692 690 724 
f 709 692 724 
f 697 709 724 
f 690 713 724 
f 713 697 724 
f 702 696 725 
f 709 702 725 
f 696 717 725 
f 717 709 725 
f 704 695 726 
f 711 704 726 
f 695 720 726 
f 720 711 726 
f 701 707 727 
f 710 701 727 
f 707 714 727 
o convex_29
v 0.032249 0.014512 -0.035086
v 0.031599 -0.000401 -0.042220
v 0.031599 0.002196 -0.042220
v 0.036787 0.002844 -0.034439
v 0.031599 -0.000401 -0.020821
v 0.036787 0.014512 -0.024715
v 0.031599 0.017757 -0.020821
v 0.036138 -0.000401 -0.020821
v 0.036787 0.016460 -0.031843
v 0.036787 -0.000401 -0.030551
v 0.031599 0.009972 -0.040274
v 0.036787 0.011918 -0.034439
v 0.036138 0.006735 -0.020821
v 0.033545 -0.000401 -0.040274
v 0.031599 0.015811 -0.032493
f 738 734 742 
f 730 729 732 
f 730 732 734 
f 732 729 735 
f 734 732 735 
f 733 731 736 
f 734 733 736 
f 731 733 737 
f 735 729 737 
f 733 735 737 
f 730 734 738 
f 728 736 738 
f 738 736 739 
f 736 731 739 
f 730 738 739 
f 733 734 740 
f 735 733 740 
f 734 735 740 
f 729 730 741 
f 737 729 741 
f 731 737 741 
f 730 739 741 
f 739 731 741 
f 736 728 742 
f 734 736 742 
f 728 738 742 
o convex_30
v 0.038085 0.004787 -0.034439
v 0.037438 0.009326 -0.023418
v 0.046515 0.014511 -0.024065
v 0.036787 0.016459 -0.031845
v 0.046515 0.003493 -0.032494
v 0.036787 0.000247 -0.026659
v 0.046515 0.017755 -0.031197
v 0.046515 0.003493 -0.025362
v 0.036787 0.016459 -0.026659
v 0.036787 0.000247 -0.032494
v 0.045865 0.012567 -0.033142
v 0.045865 0.018406 -0.026011
v 0.036787 0.013866 -0.033791
v 0.045217 0.001545 -0.028605
v 0.036787 0.002844 -0.024065
v 0.046515 0.006735 -0.024065
v 0.036787 0.013217 -0.024065
f 751 757 759 
f 745 747 749 
f 747 745 750 
f 746 748 751 
f 743 747 752 
f 748 746 752 
f 747 743 753 
f 749 747 753 
f 745 749 754 
f 749 746 754 
f 746 751 754 
f 746 749 755 
f 743 752 755 
f 752 746 755 
f 753 743 755 
f 749 753 755 
f 747 750 756 
f 750 748 756 
f 752 747 756 
f 748 752 756 
f 748 750 757 
f 751 748 757 
f 745 744 758 
f 750 745 758 
f 744 757 758 
f 757 750 758 
f 744 745 759 
f 745 754 759 
f 754 751 759 
f 757 744 759 
o convex_31
v 0.032897 0.031374 0.050516
v 0.031601 -0.000401 -0.020821
v 0.031601 0.017751 -0.020821
v 0.040679 0.001546 0.006426
v 0.040030 -0.000401 0.047269
v 0.040679 0.021646 0.045970
v 0.031601 0.022940 0.045963
v 0.036139 0.007386 -0.020821
v 0.034842 -0.000401 0.021970
v 0.032249 0.031374 0.031704
v 0.040679 0.016460 0.022619
v 0.036786 -0.000401 -0.020172
v 0.040679 0.013219 0.050516
v 0.032249 0.018401 -0.020172
v 0.031601 0.032021 0.050516
v 0.031601 -0.000401 -0.011087
v 0.040679 -0.000401 0.047269
v 0.035490 0.027479 0.032996
v 0.036139 -0.000401 0.031704
v 0.034842 0.030727 0.045963
v 0.040679 -0.000401 0.006426
v 0.031601 0.027479 0.050516
v 0.038732 0.024241 0.049860
v 0.031601 0.033322 0.043373
v 0.034194 0.024891 0.014205
v 0.034842 0.011925 -0.020821
v 0.040679 0.007382 0.010965
v 0.031601 0.027479 0.014205
f 783 769 787 
f 762 761 766 
f 761 762 767 
f 761 764 768 
f 765 763 770 
f 764 761 771 
f 761 767 771 
f 767 763 771 
f 763 765 772 
f 762 766 774 
f 772 760 774 
f 766 761 775 
f 761 768 775 
f 768 766 775 
f 764 771 776 
f 772 764 776 
f 763 772 776 
f 765 770 777 
f 764 766 778 
f 768 764 778 
f 766 768 778 
f 765 777 779 
f 777 769 779 
f 771 763 780 
f 763 776 780 
f 776 771 780 
f 766 764 781 
f 764 772 781 
f 774 766 781 
f 772 774 781 
f 760 772 782 
f 772 765 782 
f 779 760 782 
f 765 779 782 
f 762 774 783 
f 774 760 783 
f 760 779 783 
f 779 769 783 
f 773 769 784 
f 770 773 784 
f 769 777 784 
f 777 770 784 
f 767 762 785 
f 770 767 785 
f 762 773 785 
f 773 770 785 
f 763 767 786 
f 770 763 786 
f 767 770 786 
f 773 762 787 
f 769 773 787 
f 762 783 787 
o convex_32
v 0.041976 0.018405 0.049219
v 0.040679 -0.000401 0.010956
v 0.040679 0.001545 0.010956
v 0.046515 0.004139 0.020687
v 0.041976 -0.000401 0.049865
v 0.046515 0.017755 0.027170
v 0.045866 -0.000401 0.049219
v 0.040679 0.016459 0.022631
v 0.040679 0.020351 0.048568
v 0.040679 -0.000401 0.048568
v 0.046515 -0.000401 0.024575
v 0.045217 0.008679 0.049219
v 0.046515 0.013865 0.022631
v 0.046515 0.017755 0.031054
v 0.040679 0.014511 0.050516
v 0.041328 0.014511 0.020037
v 0.041328 0.001545 0.010956
v 0.046515 0.000249 0.031704
f 801 794 805 
f 792 789 794 
f 790 789 795 
f 793 795 796 
f 795 789 796 
f 796 789 797 
f 789 792 797 
f 789 791 798 
f 791 793 798 
f 794 789 798 
f 793 791 800 
f 793 796 801 
f 796 788 801 
f 798 793 801 
f 788 799 801 
f 799 794 801 
f 792 794 802 
f 788 796 802 
f 796 797 802 
f 797 792 802 
f 799 788 802 
f 794 799 802 
f 790 795 803 
f 795 793 803 
f 793 800 803 
f 803 800 804 
f 789 790 804 
f 791 789 804 
f 800 791 804 
f 790 803 804 
f 794 798 805 
f 798 801 805 
o convex_33
v 0.047812 0.002193 -0.030548
v 0.068565 0.022945 -0.022119
v 0.068565 0.022945 -0.025363
v 0.046515 0.018405 -0.026009
v 0.068565 0.012569 -0.019527
v 0.067913 0.011275 -0.029900
v 0.046515 0.015163 -0.032492
v 0.046515 0.006733 -0.024065
v 0.068565 0.006733 -0.023416
v 0.067913 0.019699 -0.018876
v 0.046515 0.005437 -0.033143
v 0.068565 0.007383 -0.028603
v 0.065321 0.018405 -0.029900
v 0.046515 0.002843 -0.026009
v 0.048464 0.019053 -0.029900
v 0.046515 0.014513 -0.024065
v 0.056247 0.013863 -0.031846
v 0.066616 0.020999 -0.028603
v 0.062077 0.006733 -0.030548
v 0.068565 0.017755 -0.029251
v 0.067913 0.014513 -0.018876
v 0.067913 0.008679 -0.021471
v 0.067268 0.006085 -0.027305
v 0.048464 0.002193 -0.027954
f 828 814 829 
f 808 807 810 
f 809 812 813 
f 808 810 814 
f 807 809 815 
f 810 807 815 
f 813 812 816 
f 808 814 817 
f 816 806 819 
f 813 816 819 
f 807 808 820 
f 809 807 820 
f 812 809 820 
f 809 813 821 
f 815 809 821 
f 813 815 821 
f 811 816 822 
f 816 812 822 
f 818 811 822 
f 812 818 822 
f 818 812 823 
f 820 808 823 
f 812 820 823 
f 806 816 824 
f 816 811 824 
f 811 817 824 
f 817 806 824 
f 808 817 825 
f 817 811 825 
f 811 818 825 
f 823 808 825 
f 818 823 825 
f 813 810 826 
f 810 815 826 
f 815 813 826 
f 810 813 827 
f 814 810 827 
f 813 819 827 
f 819 814 827 
f 817 814 828 
f 806 817 828 
f 814 819 829 
f 819 806 829 
f 806 828 829 
o convex_34
v 0.078292 0.019700 -0.013038
v 0.068566 0.006732 -0.027306
v 0.068566 0.008030 -0.028601
v 0.071161 0.020349 0.009659
v 0.078939 0.007381 0.009659
v 0.068566 0.022944 -0.025359
v 0.077643 0.009977 -0.021467
v 0.076995 0.023594 0.009659
v 0.073105 0.009329 0.009659
v 0.080237 0.015809 -0.000720
v 0.073754 0.022297 -0.023413
v 0.072457 0.015809 -0.027953
v 0.078939 0.008030 -0.008501
v 0.068566 0.006732 -0.023413
v 0.073105 0.023594 0.009659
v 0.075698 0.023594 -0.014333
v 0.079588 0.019053 0.009659
v 0.071161 0.015163 0.009659
v 0.068566 0.019053 -0.017578
v 0.080237 0.010626 -0.005908
v 0.077643 0.016459 -0.020819
v 0.075049 0.008030 -0.024712
v 0.080237 0.009329 0.009659
v 0.075049 0.007381 0.009659
v 0.078939 0.020998 -0.002666
v 0.069215 0.020998 -0.027953
v 0.076346 0.007381 -0.018222
v 0.079588 0.013869 -0.012390
v 0.075698 0.014518 -0.025359
v 0.069864 0.023594 -0.022118
v 0.068566 0.022944 -0.020819
v 0.073754 0.010626 -0.027306
v 0.071808 0.011923 0.009659
f 847 843 862 
f 832 831 835 
f 833 834 837 
f 834 833 838 
f 831 834 843 
f 835 831 843 
f 833 837 844 
f 844 837 845 
f 830 840 845 
f 837 834 846 
f 838 833 847 
f 843 847 848 
f 835 843 848 
f 847 833 848 
f 842 836 849 
f 840 830 850 
f 831 832 851 
f 834 842 852 
f 846 834 852 
f 839 846 852 
f 849 839 852 
f 842 849 852 
f 834 838 853 
f 843 834 853 
f 838 843 853 
f 839 830 854 
f 845 837 854 
f 830 845 854 
f 837 846 854 
f 846 839 854 
f 832 835 855 
f 835 840 855 
f 841 832 855 
f 840 841 855 
f 834 831 856 
f 842 834 856 
f 836 842 856 
f 831 851 856 
f 851 836 856 
f 830 839 857 
f 849 836 857 
f 839 849 857 
f 850 830 857 
f 836 850 857 
f 841 840 858 
f 840 850 858 
f 850 836 858 
f 840 835 859 
f 844 845 859 
f 845 840 859 
f 833 844 860 
f 848 833 860 
f 835 848 860 
f 859 835 860 
f 844 859 860 
f 832 841 861 
f 851 832 861 
f 836 851 861 
f 841 858 861 
f 858 836 861 
f 843 838 862 
f 838 847 862 
o convex_35
v 0.065968 0.021646 0.032357
v 0.046515 -0.000401 0.025224
v 0.046515 -0.000401 0.030412
v 0.068565 0.004140 0.028464
v 0.046515 0.014514 0.023279
v 0.068565 0.018402 0.025224
v 0.046515 0.015160 0.033004
v 0.068565 0.007382 0.033653
v 0.047165 0.004140 0.021333
v 0.046515 0.017755 0.027172
v 0.068565 0.022297 0.027818
v 0.068565 0.008679 0.025224
v 0.046515 0.004140 0.033004
v 0.068565 0.015160 0.034303
v 0.066616 0.004140 0.032357
v 0.046515 0.009330 0.021333
v 0.047812 0.018402 0.030412
v 0.047165 0.002196 0.021983
v 0.062724 0.011919 0.034303
v 0.068565 0.020999 0.033004
v 0.049110 -0.000401 0.029762
v 0.050409 0.013863 0.033653
v 0.053653 0.002196 0.032357
f 877 870 885 
f 864 865 867 
f 867 865 869 
f 866 868 870 
f 867 869 872 
f 868 867 873 
f 870 868 873 
f 867 872 873 
f 868 866 874 
f 871 868 874 
f 869 865 875 
f 870 873 876 
f 866 870 877 
f 864 867 878 
f 867 868 878 
f 868 871 878 
f 869 863 879 
f 872 869 879 
f 863 873 879 
f 873 872 879 
f 866 864 880 
f 874 866 880 
f 871 874 880 
f 864 878 880 
f 878 871 880 
f 875 870 881 
f 870 876 881 
f 863 869 882 
f 873 863 882 
f 876 873 882 
f 865 864 883 
f 864 866 883 
f 877 865 883 
f 866 877 883 
f 869 875 884 
f 875 881 884 
f 881 876 884 
f 882 869 884 
f 876 882 884 
f 875 865 885 
f 870 875 885 
f 865 877 885 
o convex_36
v 0.076995 0.021648 0.024574
v 0.068566 0.004138 0.029113
v 0.068566 0.004788 0.027815
v 0.079588 0.008031 0.009662
v 0.071161 0.020349 0.009662
v 0.068566 0.022293 0.031706
v 0.076995 0.007382 0.030408
v 0.076995 0.023594 0.009662
v 0.072457 0.009975 0.009662
v 0.073105 0.017107 0.033652
v 0.080237 0.013866 0.012905
v 0.068566 0.007382 0.033652
v 0.077643 0.015809 0.029113
v 0.073754 0.022945 0.029762
v 0.073105 0.023594 0.009662
v 0.068566 0.018404 0.024574
v 0.076995 0.006734 0.010959
v 0.078292 0.006734 0.022627
v 0.078939 0.020998 0.009662
v 0.078939 0.008678 0.024574
v 0.073754 0.006085 0.032354
v 0.071161 0.015163 0.009662
v 0.078939 0.015163 0.024574
v 0.075049 0.007382 0.009662
v 0.068566 0.015163 0.034301
v 0.075049 0.005437 0.029113
v 0.075698 0.018404 0.031706
v 0.075049 0.023594 0.023925
v 0.073754 0.013221 0.033652
v 0.068566 0.022293 0.027815
f 901 891 915 
f 888 887 891 
f 889 890 893 
f 887 888 894 
f 890 889 894 
f 891 887 897 
f 891 895 899 
f 893 890 900 
f 888 891 901 
f 902 889 903 
f 893 886 904 
f 889 893 904 
f 896 889 904 
f 889 896 905 
f 898 892 905 
f 892 903 905 
f 903 889 905 
f 897 887 906 
f 894 888 907 
f 890 894 907 
f 888 901 907 
f 901 890 907 
f 886 898 908 
f 904 886 908 
f 896 904 908 
f 905 896 908 
f 898 905 908 
f 887 894 909 
f 894 889 909 
f 902 887 909 
f 889 902 909 
f 895 891 910 
f 891 897 910 
f 887 902 911 
f 903 892 911 
f 902 903 911 
f 892 906 911 
f 906 887 911 
f 898 886 912 
f 892 898 912 
f 886 899 912 
f 899 895 912 
f 886 893 913 
f 899 886 913 
f 891 899 913 
f 900 891 913 
f 893 900 913 
f 906 892 914 
f 897 906 914 
f 895 910 914 
f 910 897 914 
f 892 912 914 
f 912 895 914 
f 900 890 915 
f 891 900 915 
f 890 901 915 
