# https://github.com/mikedh/trimesh
v 0.06630800 0.01092253 0.09528152
v 0.06429732 0.01393179 0.09626126
v 0.06427138 0.01393179 0.09628048
v 0.06427138 0.00384234 0.09731784
v 0.06630800 -0.01435967 0.09528152
v 0.06630800 0.01393179 0.07722361
v -0.06415243 0.01393179 0.09629968
v -0.06316655 0.01193294 0.09731784
v 0.00558559 0.00080379 0.09833601
v 0.04302307 -0.00525500 0.09833601
v 0.06224773 -0.01435967 0.09731784
v 0.06427138 -0.01739456 0.09528152
v 0.06630800 -0.01536642 0.09020994
v 0.06630800 0.01393179 0.07705071
v -0.06416541 0.01393179 0.09629968
v -0.06416541 -0.00223110 0.09731784
v -0.06316655 -0.01537374 0.09833601
v -0.06216770 -0.00425192 0.09833601
v 0.03088119 -0.01031071 0.09833601
v 0.00964586 -0.01638415 0.09731784
v -0.06416541 -0.01638415 0.09629968
v -0.04798919 -0.01739456 0.09326442
v -0.05002581 -0.01840497 0.07099939
v -0.01358718 -0.02245027 -0.02201811
v 0.00558559 -0.02346800 -0.05033446
v 0.01873930 -0.02346800 -0.05540605
v 0.06224773 -0.02042945 0.00725877
v 0.06124888 -0.02346800 -0.08575871
v 0.06224773 -0.02346800 -0.09384637
v 0.06528321 -0.01840497 0.05077067
v 0.06427138 -0.02245027 -0.09484531
v 0.06528321 -0.01031071 -0.03923076
v 0.06630800 -0.00121337 0.07000043
v 0.06528321 0.00788764 -0.04426393
v 0.06428435 0.01393179 -0.09678557
v -0.06519021 0.01393179 0.05659147
v -0.06316655 -0.01840497 0.06996202
v -0.06517723 -0.00727948 0.04166487
v -0.06621500 -0.01840497 -0.07966898
v -0.06621500 -0.02143986 -0.09181005
v -0.06517723 -0.02346800 -0.09181005
v -0.02471724 -0.02245027 -0.02303627
v -0.01663562 -0.02346800 -0.05540605
v -0.06416541 -0.02346800 -0.09384637
v 0.06325955 -0.02245027 -0.09588268
v 0.06325955 -0.01638415 -0.09690084
v 0.06427138 0.01393179 -0.09690084
v 0.06528321 0.00080379 -0.04729920
v -0.06621500 0.01393179 -0.03719445
v -0.06621500 0.00282461 -0.04326498
v -0.06316655 -0.02143986 -0.01898284
v -0.05304832 -0.02143986 -0.00885888
v -0.03282481 -0.02245027 -0.02609075
v -0.06621500 0.01393179 -0.09484531
v -0.06517723 -0.01840497 -0.09588268
v -0.06517723 -0.02245027 -0.09484531
v -0.06316655 -0.02346800 -0.08677689
v -0.05609676 -0.02143986 -0.09588268
v 0.05010584 -0.01840497 -0.09690084
v 0.03088119 -0.00930030 -0.09791900
v 0.06224773 0.00181420 -0.09791900
v 0.06325955 0.01393179 -0.09791900
v -0.06517723 0.01393179 -0.09690084
v -0.05709561 -0.01233519 -0.09690084
v -0.03483548 -0.01739456 -0.09690084
v -0.01864630 -0.01031071 -0.09791900
v -0.01361312 0.01393179 -0.09791900
v -0.03282481 -0.00727582 -0.09791900
f 1 2 3
f 1 3 4
f 1 4 5
f 1 5 13
f 1 13 33
f 1 33 14
f 1 14 6
f 1 6 2
f 2 6 14
f 2 14 35
f 2 35 47
f 2 47 62
f 2 62 67
f 2 67 63
f 2 63 54
f 2 54 49
f 2 49 36
f 2 36 15
f 2 15 7
f 2 7 3
f 3 7 8
f 3 8 9
f 3 9 4
f 4 9 10
f 4 10 11
f 4 11 5
f 5 12 13
f 5 11 12
f 7 15 8
f 8 16 17
f 8 17 18
f 8 18 9
f 8 15 16
f 9 18 17
f 9 17 19
f 9 19 10
f 10 19 11
f 11 19 17
f 11 17 20
f 11 20 12
f 12 20 21
f 12 21 22
f 12 22 23
f 12 23 24
f 12 24 25
f 12 25 26
f 12 26 27
f 12 27 28
f 12 28 29
f 12 29 30
f 12 30 13
f 13 30 31
f 13 31 32
f 13 32 33
f 14 33 34
f 14 34 35
f 15 36 16
f 16 36 21
f 16 21 17
f 17 21 20
f 21 37 22
f 21 36 38
f 21 38 39
f 21 39 40
f 21 40 41
f 21 41 37
f 22 37 23
f 23 37 24
f 24 37 42
f 24 42 25
f 25 43 57
f 25 57 41
f 25 41 44
f 25 44 29
f 25 29 28
f 25 28 26
f 25 42 43
f 26 28 27
f 29 44 45
f 29 45 31
f 29 31 30
f 31 45 46
f 31 46 47
f 31 47 35
f 31 35 48
f 31 48 32
f 32 48 33
f 33 48 34
f 34 48 35
f 36 49 50
f 36 50 38
f 37 51 52
f 37 52 53
f 37 53 42
f 37 41 51
f 38 50 39
f 39 50 49
f 39 49 54
f 39 54 40
f 40 54 55
f 40 55 56
f 40 56 41
f 41 56 44
f 41 57 51
f 42 53 43
f 43 53 57
f 44 56 45
f 45 58 59
f 45 59 46
f 45 56 58
f 46 59 60
f 46 60 61
f 46 61 62
f 46 62 47
f 51 57 52
f 52 57 53
f 54 63 55
f 55 63 64
f 55 64 58
f 55 58 56
f 58 64 65
f 58 65 59
f 59 65 66
f 59 66 60
f 60 66 68
f 60 68 67
f 60 67 62
f 60 62 61
f 63 67 68
f 63 68 64
f 64 68 65
f 65 68 66

