# https://github.com/mikedh/trimesh
v -0.02650947 -0.02580318 -0.03533893
v -0.02650947 -0.02582818 -0.03533893
v -0.03314340 -0.01507542 -0.03533893
v -0.03724337 0.00254678 -0.03533052
v -0.04548031 0.00254956 0.02649121
v -0.04567452 0.00254956 0.02786279
v -0.04581324 0.00254956 0.02875473
v -0.04589031 0.00254956 0.02924277
v -0.03612128 -0.02582818 0.01997835
v -0.03832540 -0.02582818 -0.03533893
v -0.03335611 -0.01478653 -0.03533893
v -0.03998388 0.00254956 -0.03533052
v -0.03782600 0.00254956 -0.03442175
v -0.04437671 0.00254956 0.01775691
v -0.04483603 0.00254956 0.02140882
v -0.04604444 0.00254956 0.03012630
v -0.03703992 -0.02582818 0.02511123
v -0.03838705 -0.02575040 -0.03533893
v -0.03833773 -0.02582818 -0.03528845
v -0.04408077 -0.01478653 -0.03533893
v -0.04591497 0.00254956 -0.03533052
v -0.04611843 0.00254956 0.03053862
v -0.04625406 0.00254956 0.03126227
v -0.03713856 -0.02582818 0.02563293
v -0.03862750 -0.02544207 -0.03533893
v -0.03847645 -0.02582818 -0.03460687
v -0.03896351 -0.02534763 -0.03405992
v -0.03935810 -0.02471152 -0.03456480
v -0.04612459 -0.00300044 -0.03533052
v -0.04612151 -0.00206433 -0.03533052
v -0.04610918 -0.00068933 -0.03533052
v -0.04609685 -0.00030877 -0.03533052
v -0.04606294 0.00068567 -0.03533052
v -0.04597662 0.00196900 -0.03533052
v -0.04597045 0.00203567 -0.03533052
v -0.04256409 -0.01866153 -0.03533893
v -0.04423182 -0.01443375 -0.03533052
v -0.04470039 -0.01302820 -0.03533052
v -0.04504565 -0.01168376 -0.03533052
v -0.04538783 -0.01031154 -0.03533052
v -0.04567760 -0.00893654 -0.03533052
v -0.04586256 -0.00756154 -0.03533052
v -0.04600436 -0.00616432 -0.03533052
v -0.04608143 -0.00481432 -0.03533052
v -0.04609685 -0.00450321 -0.03533052
v -0.04612459 -0.00343932 -0.03533052
v -0.04626639 0.00156067 -0.03472467
v -0.04621707 0.00247734 -0.03453955
v -0.04621090 0.00254956 -0.03452273
v -0.04636196 0.00254956 0.03181763
v -0.03731736 -0.02582818 0.02652487
v -0.04721894 0.00254956 0.03611747
v -0.04766902 0.00254956 0.03837257
v -0.03927486 -0.02457819 -0.03533893
v -0.03879088 -0.02582818 -0.03297445
v -0.03912998 -0.02580874 -0.03124105
v -0.03943825 -0.02483096 -0.03364761
v -0.04092410 -0.02228097 -0.03399261
v -0.04202462 -0.02044486 -0.03399261
v -0.04082546 -0.02211708 -0.03501918
v -0.04339642 -0.02582818 -0.00801688
v -0.04499941 -0.02582818 0.00081841
v -0.04627872 -0.02582818 0.00796236
v -0.04132793 -0.02405874 -0.02573793
v -0.04071448 -0.02330596 -0.03171226
v -0.04632188 -0.00206433 -0.03485931
v -0.04631880 -0.00068933 -0.03485089
v -0.04629414 0.00068567 -0.03480040
v -0.04242845 -0.01898097 -0.03533893
v -0.04226507 -0.01951708 -0.03508650
v -0.04293093 -0.01855875 -0.03399261
v -0.04439212 -0.01478653 -0.03399261
v -0.04452776 -0.01443375 -0.03399261
v -0.04481445 -0.01351153 -0.03399261
v -0.04491309 -0.01253098 -0.03490980
v -0.04561595 -0.01031154 -0.03399261
v -0.04591189 -0.00893654 -0.03399261
v -0.04613076 -0.00751987 -0.03392529
v -0.04619549 -0.00645043 -0.03433761
v -0.04625098 -0.00553654 -0.03468260
v -0.04628797 -0.00481432 -0.03477516
v -0.04632188 -0.00343932 -0.03485931
v -0.04644827 0.00068567 -0.03399261
v -0.04635579 0.00203567 -0.03405151
v -0.04634038 0.00254956 -0.03389163
v -0.04622324 0.00254956 -0.03448065
v -0.03742217 -0.02582818 0.02704658
v -0.04773375 0.00254956 0.03868391
v -0.04052952 -0.02249485 -0.03533893
v -0.03910840 -0.02582818 -0.03127471
v -0.04053260 -0.02582818 -0.02357539
v -0.04364611 -0.02223930 -0.01887165
v -0.04239454 -0.01975875 -0.03399261
v -0.04119846 -0.02134763 -0.03533893
v -0.04349814 -0.02062541 -0.02507318
v -0.04745323 -0.02582818 0.01456779
v -0.04630955 -0.02484763 0.00484056
v -0.04650376 -0.00206433 -0.03399261
v -0.04649451 -0.00068933 -0.03399261
v -0.04203695 -0.01979764 -0.03533893
v -0.04348273 -0.01921153 -0.02909534
v -0.04342108 -0.01904764 -0.02986948
v -0.04486377 -0.01509764 -0.03050898
v -0.04478671 -0.01478653 -0.03165336
v -0.04473122 -0.01442264 -0.03274725
v -0.04494392 -0.01396153 -0.03236860
v -0.04486994 -0.01373375 -0.03328579
v -0.04509189 -0.01318931 -0.03274725
v -0.04527377 -0.01168376 -0.03399261
v -0.04548956 -0.01168376 -0.03262104
v -0.04899765 -0.01099487 -0.01129855
v -0.04627256 -0.00972820 -0.03071934
v -0.04620166 -0.00936432 -0.03163653
v -0.04718503 -0.00893654 -0.02573793
v -0.04627872 -0.00844765 -0.03214141
v -0.04621090 -0.00794765 -0.03305859
v -0.04633421 -0.00751987 -0.03261262
v -0.04643286 -0.00481432 -0.03399261
v -0.04649143 -0.00618654 -0.03262104
v -0.04899765 -0.00550321 -0.01680167
v -0.04664557 -0.00481432 -0.03262104
v -0.04650376 -0.00343932 -0.03399261
v -0.04762894 0.00011345 -0.02646158
v -0.04659007 0.00206067 -0.03262104
v -0.04655308 0.00254956 -0.03262104
v -0.04777691 0.00254956 0.03888586
v -0.04799270 0.00254956 0.03987036
v -0.04807593 0.00254956 0.04024060
v -0.03874772 -0.02582818 0.03260018
v -0.04488227 -0.02064208 -0.01686899
v -0.04487610 -0.02200041 -0.01269537
v -0.04911788 -0.02582818 0.02414356
v -0.05039411 -0.02478652 0.02841815
v -0.04908705 -0.02354207 0.01686496
v -0.05040027 -0.02342819 0.02424453
v -0.04770601 -0.02582818 0.01601509
v -0.04713263 -0.00343932 -0.02986106
v -0.05006118 -0.00206433 -0.01061697
v -0.05089659 -0.00068933 -0.00511385
v -0.04670413 -0.00068933 -0.03262104
v -0.04480520 -0.02046986 -0.01778617
v -0.04500866 -0.01957541 -0.01887165
v -0.04485144 -0.01919208 -0.02080700
v -0.04622015 -0.01917542 -0.01251025
v -0.05039411 -0.01930041 0.01328036
v -0.05175974 -0.01928097 0.02158553
v -0.04765052 -0.01519486 -0.01285525
v -0.04900382 -0.01514486 -0.00448276
v -0.05169808 -0.01493931 0.01236318
v -0.05175974 -0.01478653 0.01249781
v -0.05174740 -0.01374764 0.01067185
v -0.05179056 -0.01254487 0.00902260
v -0.05313462 -0.01242542 0.01747081
v -0.04761352 -0.00957543 -0.02224589
v -0.04902540 -0.00841987 -0.01424365
v -0.04761969 -0.00822265 -0.02365112
v -0.04923193 -0.00618654 -0.01474011
v -0.05450333 -0.00691710 0.02025603
v -0.04763202 -0.00422543 -0.02648682
v -0.05036945 -0.00026433 -0.00854699
v -0.05167034 0.00068567 0.00019573
v -0.04898532 0.00254956 -0.01674277
v -0.04761352 0.00254956 -0.02570427
v -0.04842119 0.00254956 0.04161217
v -0.04032298 -0.02582818 0.03917195
v -0.05032321 -0.02326985 0.02332734
v -0.04901615 -0.02203097 0.01194245
v -0.04893908 -0.02186152 0.01102526
v -0.04884043 -0.02582818 0.02253637
v -0.04992554 -0.02582818 0.02893985
v -0.05009817 -0.02560596 0.02923436
v -0.05046193 -0.02491707 0.02923436
v -0.05091200 -0.02405874 0.02923436
v -0.05161485 -0.02305874 0.03061435
v -0.05037253 -0.00277544 -0.00855541
v -0.05110313 -0.00206433 -0.00374228
v -0.05451257 -0.00250044 0.01881714
v -0.05450949 0.00032734 0.01884238
v -0.05451257 -0.00303932 0.01881714
v -0.04711105 -0.01993375 -0.00512227
v -0.05057599 -0.01972541 0.01548498
v -0.05116170 -0.01993375 0.01960811
v -0.05125418 -0.02130874 0.02373124
v -0.05171658 -0.02055041 0.02460635
v -0.05179056 -0.02072819 0.02552354
v -0.05192928 -0.01969486 0.02373124
v -0.05315311 -0.01932819 0.03108556
v -0.05308529 -0.01913375 0.03016838
v -0.05430295 -0.01574209 0.03060593
v -0.05406867 -0.01580875 0.02923436
v -0.05176899 -0.01519209 0.01327195
v -0.05448791 -0.01478653 0.02994118
v -0.05451257 -0.01380598 0.02845181
v -0.05380048 -0.01168376 0.02098810
v -0.05306371 -0.01204487 0.01655363
v -0.05500272 -0.01305876 0.03061435
v -0.05453724 -0.01256709 0.02691194
v -0.05446633 -0.01220320 0.02599476
v -0.05176282 -0.00833654 0.00372143
v -0.05454956 -0.00855321 0.02236808
v -0.05454648 -0.00745043 0.02113114
v -0.05470987 -0.00756154 0.02236808
v -0.05490407 -0.00756154 0.02373966
v -0.05509520 -0.00756154 0.02511964
v -0.05585971 -0.00672543 0.03000009
v -0.05504896 -0.00618654 0.02373966
v -0.05485783 -0.00618654 0.02236808
v -0.05466054 -0.00618654 0.02098810
v -0.05043727 -0.00481432 -0.00761298
v -0.05502430 -0.00343932 0.02236808
v -0.05308837 0.00068567 0.00951906
v -0.05232695 0.00068567 0.00451240
v -0.05175357 0.00147734 0.00102877
v -0.05286950 0.00206067 0.00861870
v -0.05304830 0.00206067 0.00979674
v -0.05269687 0.00254956 0.00772676
v -0.04879728 0.00254956 0.04290801
v -0.04093027 -0.02582818 0.04124193
v -0.05133433 -0.02268374 0.02785437
v -0.05038178 -0.02201708 0.02023920
v -0.05057907 -0.02135319 0.01970908
v -0.05020606 -0.02582818 0.03061435
v -0.05021223 -0.02581707 0.03061435
v -0.05057291 -0.02513096 0.03061435
v -0.05113087 -0.02405874 0.03061435
v -0.05181214 -0.02216430 0.02946997
v -0.05174432 -0.02199208 0.02855278
v -0.05169192 -0.02185874 0.02785437
v -0.05155320 -0.02264485 0.02909973
v -0.05169500 -0.02324485 0.03169982
v -0.05313770 -0.02202819 0.03806123
v -0.05523084 0.00068567 0.02373966
v -0.05459272 0.00074678 0.01949872
v -0.05522467 -0.00343932 0.02373966
v -0.05543121 0.00068567 0.02511964
v -0.05158094 -0.02159763 0.02649121
v -0.05200327 -0.02003097 0.02508598
v -0.05225297 -0.01993375 0.02649121
v -0.05450641 -0.02064763 0.04358959
v -0.05453415 -0.01523931 0.03106032
v -0.05489174 -0.01443375 0.03198592
v -0.05466671 -0.01449486 0.03060593
v -0.05520926 -0.01305876 0.03198592
v -0.05462355 -0.01171987 0.02646597
v -0.05483934 -0.01168376 0.02786279
v -0.05465746 -0.00904209 0.02363868
v -0.05489174 -0.00893654 0.02511964
v -0.05508595 -0.00893654 0.02649121
v -0.05527400 -0.00893654 0.02786279
v -0.05546821 -0.00756154 0.02786279
v -0.05592444 -0.00725321 0.03091727
v -0.05727158 -0.00707543 0.04072023
v -0.05721609 -0.00618654 0.03976938
v -0.05596452 -0.00623654 0.03052179
v -0.05513836 -0.00481432 0.02373966
v -0.05569941 -0.00481432 0.02786279
v -0.05532640 -0.00481432 0.02511964
v -0.05494415 -0.00481432 0.02236808
v -0.05449099 0.00124400 0.01896019
v -0.05373882 0.00254956 0.01460145
v -0.05515994 0.00206067 0.02373966
v -0.05519693 0.00254956 0.02422770
v -0.04901923 0.00254956 0.04358959
v -0.04115839 -0.02582818 0.04193192
v -0.05041260 -0.02582818 0.03198592
v -0.05067463 -0.02532541 0.03198592
v -0.05140831 -0.02393096 0.03208689
v -0.05318394 -0.02077819 0.03500675
v -0.05175357 -0.02338652 0.03260860
v -0.05319010 -0.02213930 0.03886061
v -0.05455881 -0.02076152 0.04435532
v -0.05556993 0.00206067 0.02649121
v -0.05536648 0.00206067 0.02511964
v -0.05541580 -0.00343932 0.02511964
v -0.05588437 -0.00300599 0.02844339
v -0.05562851 0.00068567 0.02649121
v -0.05579497 -0.01625597 0.04298374
v -0.05587820 -0.01514764 0.04086328
v -0.05563775 -0.01568653 0.04033316
v -0.05459889 -0.01543653 0.03198592
v -0.05491641 -0.01478653 0.03286945
v -0.05508904 -0.01443375 0.03336590
v -0.05540347 -0.01305876 0.03336590
v -0.05543738 -0.01168376 0.03198592
v -0.05524317 -0.01168376 0.03061435
v -0.05504588 -0.01168376 0.02924277
v -0.05506746 -0.01031154 0.02786279
v -0.05562542 -0.01168376 0.03336590
v -0.05581038 -0.00901154 0.03190177
v -0.05720992 -0.00799210 0.04119144
v -0.05751203 -0.00756154 0.04299216
v -0.05768774 -0.00756154 0.04436373
v -0.05782338 -0.00618654 0.04436373
v -0.05724075 -0.00536988 0.03959268
v -0.05625737 -0.00481432 0.03198592
v -0.05540347 0.00254956 0.02559927
v -0.04927818 0.00254956 0.04437214
v -0.05039719 0.00254956 0.04772114
v -0.04168552 -0.02582818 0.04339606
v -0.05060990 -0.02582818 0.03339115
v -0.05098290 -0.02582818 0.03610905
v -0.05145763 -0.02417263 0.03335749
v -0.05164259 -0.02453374 0.03610905
v -0.05341206 -0.02278374 0.04298374
v -0.05337198 -0.02250041 0.04161217
v -0.05422897 -0.02145041 0.04435532
v -0.05456806 -0.02078374 0.04547445
v -0.05647008 -0.01443375 0.04573531
v -0.05634986 -0.01478653 0.04533140
v -0.05605700 -0.01563097 0.04435532
v -0.05560693 0.00254956 0.02697926
v -0.05587512 0.00149956 0.02851071
v -0.05577956 0.00199956 0.02798059
v -0.05585662 0.00241622 0.02867058
v -0.05585046 0.00254956 0.02868741
v -0.05651015 -0.00343932 0.03336590
v -0.05668895 -0.00343932 0.03473748
v -0.05673827 -0.00206433 0.03473748
v -0.05655639 -0.00206433 0.03336590
v -0.05658105 -0.00068933 0.03336590
v -0.05638993 -0.00068933 0.03198592
v -0.05579805 0.00068567 0.02771133
v -0.05599534 -0.01556709 0.04298374
v -0.05611557 -0.01478653 0.04241997
v -0.05624813 -0.01443375 0.04299216
v -0.05598918 -0.01478653 0.04124193
v -0.05602617 -0.01317542 0.03875964
v -0.05582580 -0.01488931 0.03994609
v -0.05527092 -0.01443375 0.03473748
v -0.05558843 -0.01305876 0.03473748
v -0.05584737 -0.01221431 0.03562101
v -0.05579497 -0.01172820 0.03468699
v -0.05694481 -0.00893654 0.04024060
v -0.05727158 -0.00840598 0.04210863
v -0.05741030 -0.00907265 0.04422910
v -0.05757676 -0.00893654 0.04573531
v -0.05780796 -0.00756154 0.04573531
v -0.05733014 -0.00870598 0.04299216
v -0.05793744 -0.00618654 0.04573531
v -0.05787886 -0.00481432 0.04436373
v -0.05740105 -0.00343932 0.04024060
v -0.05054208 0.00254956 0.04800723
v -0.04296792 -0.02582818 0.04625701
v -0.04275213 -0.02582818 0.04579420
v -0.05135590 -0.02582818 0.03886061
v -0.05118636 -0.02543096 0.03610905
v -0.05147921 -0.02558374 0.03886061
v -0.05169500 -0.02582818 0.04142705
v -0.05315003 -0.02343096 0.04344655
v -0.05359702 -0.02268374 0.04435532
v -0.05315927 -0.02343652 0.04544080
v -0.05347062 -0.02281152 0.04583628
v -0.05426904 -0.02126708 0.04585311
v -0.05449099 -0.02060597 0.04639164
v -0.05645775 -0.01443375 0.04711529
v -0.05683383 -0.01305876 0.04711529
v -0.05675677 -0.01305876 0.04573531
v -0.05638068 -0.01443375 0.04436373
v -0.05600460 0.00068567 0.02924277
v -0.05637143 0.00068567 0.03198592
v -0.05730857 0.00068567 0.03907939
v -0.05635294 0.00254956 0.03247396
v -0.05617106 0.00254956 0.03110239
v -0.05745346 -0.00206433 0.04024060
v -0.05766616 -0.00068933 0.04161217
v -0.05723150 -0.00068933 0.03828842
v -0.05676293 -0.00068933 0.03473748
v -0.05617106 -0.01478653 0.04298374
v -0.05651323 -0.01305876 0.04299216
v -0.05692323 -0.01168376 0.04436373
v -0.05729623 -0.00988376 0.04459093
v -0.05590287 -0.01253098 0.03653820
v -0.05595527 -0.01280876 0.03748904
v -0.05724691 -0.00961987 0.04368215
v -0.05575798 -0.01301709 0.03609222
v -0.05734556 -0.01011987 0.04573531
v -0.05708970 -0.01168376 0.04711529
v -0.05722533 -0.01085043 0.04711529
v -0.05752436 -0.00893654 0.04711529
v -0.05770315 -0.00756154 0.04711529
v -0.05783262 -0.00618654 0.04711529
v -0.05792511 -0.00481432 0.04711529
v -0.05798059 -0.00343932 0.04711529
v -0.05798368 -0.00481432 0.04573531
v -0.05792203 -0.00343932 0.04436373
v -0.05780796 -0.00206433 0.04299216
v -0.05081335 0.00254956 0.04847003
v -0.04418866 -0.02582818 0.04857101
v -0.05180290 -0.02582818 0.04233582
v -0.05185838 -0.02582818 0.04282387
v -0.05202793 -0.02553652 0.04305106
v -0.05189537 -0.02582818 0.04329508
v -0.05190462 -0.02582818 0.04392618
v -0.05190462 -0.02582818 0.04403556
v -0.05174124 -0.02582818 0.04573531
v -0.05311303 -0.02335596 0.04635798
v -0.05186763 -0.02497263 0.04820077
v -0.05214507 -0.02417541 0.04858784
v -0.05321785 -0.02220319 0.04811663
v -0.05438310 -0.02037541 0.04710688
v -0.05456498 -0.01939764 0.04802407
v -0.05476535 -0.01860875 0.04848686
v -0.05664271 -0.01305876 0.04848686
v -0.05720992 -0.01080876 0.04573531
v -0.05703421 -0.01168376 0.04573531
v -0.05717909 0.00254956 0.03875122
v -0.05667354 0.00206067 0.03473748
v -0.05764150 0.00068567 0.04161217
v -0.05784495 -0.00068933 0.04299216
v -0.05688932 -0.01168376 0.04848686
v -0.05727774 -0.00994209 0.04794833
v -0.05770315 -0.00481432 0.04848686
v -0.05783262 -0.00343932 0.04848686
v -0.05792511 -0.00206433 0.04848686
v -0.05799909 -0.00206433 0.04711529
v -0.05799909 -0.00343932 0.04573531
v -0.05794668 -0.00206433 0.04436373
v -0.05118636 0.00254956 0.04900857
v -0.04468806 -0.02582818 0.04936197
v -0.05159636 -0.02582818 0.04710688
v -0.05197861 -0.02515318 0.04710688
v -0.05132816 -0.02582818 0.04856259
v -0.05172583 -0.02471152 0.04911796
v -0.05347062 -0.02139208 0.04853735
v -0.05441701 -0.01910041 0.04894125
v -0.05464205 -0.01818375 0.04934515
v -0.05600460 -0.01396987 0.04927783
v -0.05614332 -0.01305876 0.04938722
v -0.05721917 -0.00805321 0.04908429
v -0.05775556 0.00206067 0.04299216
v -0.05779255 0.00254956 0.04347179
v -0.05782030 0.00068567 0.04299216
v -0.05794360 -0.00068933 0.04436373
v -0.05790353 0.00206067 0.04436373
v -0.05709586 -0.01036432 0.04843638
v -0.05716368 -0.00893654 0.04887393
v -0.05738872 -0.00758098 0.04857101
v -0.05727466 -0.00713654 0.04922734
v -0.05740105 -0.00481432 0.04942929
v -0.05747504 -0.00343932 0.04951344
v -0.05754902 -0.00206433 0.04955551
v -0.05753360 -0.00068933 0.04949661
v -0.05786962 -0.00068933 0.04848686
v -0.05789736 0.00254956 0.04485177
v -0.05799909 -0.00206433 0.04573531
v -0.05148538 0.00254956 0.04939564
v -0.05243176 0.00254956 0.04985002
v -0.04548648 -0.02582818 0.04970697
v -0.05077944 -0.02582818 0.04952185
v -0.05306988 -0.02190597 0.04903381
v -0.05194470 -0.02379485 0.04938722
v -0.05353536 -0.01993375 0.04954710
v -0.05389604 -0.01860875 0.04968173
v -0.05481160 -0.01718375 0.04950502
v -0.05591211 -0.00711432 0.05057367
v -0.05627278 -0.01168376 0.04951344
v -0.05788812 0.00254956 0.04436373
v -0.05638068 -0.01031154 0.04963966
v -0.05647624 -0.00893654 0.04975746
v -0.05656564 -0.00758376 0.04987527
v -0.05593678 0.00068567 0.05058209
v -0.05593061 0.00254956 0.05058209
v -0.05647624 0.00254956 0.04986685
v -0.05740105 0.00026623 0.04934515
v -0.05732398 0.00254956 0.04804089
v -0.05756751 0.00254956 0.04711529
v -0.05775556 0.00254956 0.04622334
v -0.05784804 0.00254956 0.04573531
v -0.05432453 0.00254956 0.05048953
v -0.04693534 -0.02405874 0.05002673
v -0.04693534 -0.02543096 0.05003514
v -0.04693534 -0.02582818 0.05002673
v -0.04968509 -0.02582818 0.04995941
v -0.05086884 -0.02543096 0.04958076
v -0.05243176 -0.01993375 0.05014453
v -0.05380972 -0.01718375 0.05010246
v -0.05450641 -0.01102265 0.05055684
v -0.05317469 -0.01388653 0.05057367
v -0.05380664 -0.01031154 0.05060733
v -0.05380664 -0.00893654 0.05062416
v -0.05518151 -0.00618654 0.05060733
v -0.05566550 0.00254956 0.05059050
v -0.05710203 0.00254956 0.04873089
v -0.05452799 0.00254956 0.05054843
v -0.05310379 -0.00532265 0.05055684
v -0.05307296 -0.00618654 0.05057367
v -0.04830713 -0.02268374 0.05017819
v -0.04968509 -0.02130874 0.05028758
v -0.04830713 -0.02405874 0.05014453
v -0.04830713 -0.02582818 0.05005197
v -0.04968509 -0.02543096 0.05003514
v -0.05105689 -0.02268374 0.05010246
v -0.05243176 -0.01855875 0.05032965
v -0.05298048 -0.01388653 0.05057367
v -0.05243176 -0.01718375 0.05043062
v -0.05105689 -0.01993375 0.05037172
v -0.05380664 -0.00618654 0.05060733
v -0.05521542 0.00254956 0.05059050
v -0.05293732 -0.01305876 0.05058209
v -0.05304830 -0.00756154 0.05058209
v -0.05468829 0.00254956 0.05056526
v -0.05498114 0.00254956 0.05058209
v -0.05105689 -0.01855875 0.05041379
v -0.04968509 -0.02268374 0.05023709
v -0.04968509 -0.02405874 0.05015295
v -0.05105689 -0.02130874 0.05025392
f 1 2 10
f 1 10 18
f 1 18 25
f 1 25 54
f 1 54 89
f 1 89 94
f 1 94 100
f 1 100 69
f 1 69 36
f 1 36 20
f 1 20 11
f 1 11 3
f 1 3 4
f 1 4 5
f 1 5 6
f 1 6 7
f 1 7 8
f 1 8 9
f 1 9 2
f 2 9 17
f 2 17 24
f 2 24 51
f 2 51 87
f 2 87 129
f 2 129 165
f 2 165 218
f 2 218 264
f 2 264 299
f 2 299 344
f 2 344 343
f 2 343 388
f 2 388 419
f 2 419 448
f 2 448 472
f 2 472 490
f 2 490 473
f 2 473 449
f 2 449 422
f 2 422 420
f 2 420 395
f 2 395 394
f 2 394 393
f 2 393 392
f 2 392 390
f 2 390 389
f 2 389 348
f 2 348 345
f 2 345 301
f 2 301 300
f 2 300 265
f 2 265 222
f 2 222 170
f 2 170 132
f 2 132 169
f 2 169 136
f 2 136 96
f 2 96 63
f 2 63 62
f 2 62 61
f 2 61 91
f 2 91 90
f 2 90 55
f 2 55 26
f 2 26 19
f 2 19 10
f 3 11 4
f 4 11 12
f 4 12 13
f 4 13 14
f 4 14 15
f 4 15 5
f 5 15 14
f 5 14 13
f 5 13 12
f 5 12 21
f 5 21 49
f 5 49 86
f 5 86 85
f 5 85 125
f 5 125 163
f 5 163 162
f 5 162 216
f 5 216 260
f 5 260 262
f 5 262 296
f 5 296 311
f 5 311 315
f 5 315 363
f 5 363 362
f 5 362 406
f 5 406 431
f 5 431 457
f 5 457 444
f 5 444 468
f 5 468 467
f 5 467 466
f 5 466 465
f 5 465 483
f 5 483 463
f 5 463 462
f 5 462 482
f 5 482 498
f 5 498 502
f 5 502 501
f 5 501 484
f 5 484 469
f 5 469 447
f 5 447 446
f 5 446 418
f 5 418 387
f 5 387 342
f 5 342 298
f 5 298 297
f 5 297 263
f 5 263 217
f 5 217 164
f 5 164 128
f 5 128 127
f 5 127 126
f 5 126 88
f 5 88 53
f 5 53 52
f 5 52 50
f 5 50 23
f 5 23 22
f 5 22 16
f 5 16 8
f 5 8 7
f 5 7 6
f 8 16 9
f 9 16 17
f 10 19 18
f 11 20 21
f 11 21 12
f 16 22 17
f 17 22 23
f 17 23 24
f 18 19 25
f 19 26 27
f 19 27 28
f 19 28 25
f 20 29 30
f 20 30 31
f 20 31 32
f 20 32 33
f 20 33 34
f 20 34 35
f 20 35 21
f 20 36 37
f 20 37 38
f 20 38 39
f 20 39 40
f 20 40 41
f 20 41 42
f 20 42 43
f 20 43 44
f 20 44 45
f 20 45 46
f 20 46 29
f 21 35 47
f 21 47 48
f 21 48 49
f 23 50 24
f 24 50 52
f 24 52 53
f 24 53 51
f 25 28 54
f 26 55 27
f 27 55 56
f 27 56 57
f 27 57 28
f 28 58 59
f 28 59 60
f 28 60 54
f 28 57 61
f 28 61 62
f 28 62 63
f 28 63 64
f 28 64 65
f 28 65 58
f 29 66 30
f 29 46 82
f 29 82 66
f 30 66 67
f 30 67 31
f 31 67 32
f 32 67 68
f 32 68 33
f 33 68 34
f 34 68 47
f 34 47 35
f 36 69 70
f 36 70 71
f 36 71 37
f 37 71 72
f 37 72 73
f 37 73 38
f 38 73 74
f 38 74 75
f 38 75 39
f 39 75 40
f 40 75 76
f 40 76 77
f 40 77 41
f 41 77 78
f 41 78 42
f 42 78 79
f 42 79 80
f 42 80 43
f 43 80 81
f 43 81 44
f 44 81 45
f 45 81 82
f 45 82 46
f 47 68 83
f 47 83 84
f 47 84 85
f 47 85 86
f 47 86 48
f 48 86 49
f 51 53 87
f 53 88 87
f 54 60 89
f 55 90 56
f 56 90 91
f 56 91 57
f 57 91 61
f 58 92 59
f 58 65 63
f 58 63 92
f 59 93 70
f 59 70 94
f 59 94 60
f 59 92 95
f 59 95 93
f 60 94 89
f 63 96 97
f 63 97 92
f 63 65 64
f 66 82 122
f 66 122 98
f 66 98 67
f 67 98 99
f 67 99 68
f 68 99 83
f 69 100 70
f 70 100 94
f 70 93 71
f 71 93 101
f 71 101 102
f 71 102 103
f 71 103 72
f 72 103 73
f 73 103 104
f 73 104 105
f 73 105 106
f 73 106 107
f 73 107 74
f 74 107 108
f 74 108 109
f 74 109 75
f 75 109 76
f 76 109 110
f 76 110 111
f 76 111 112
f 76 112 77
f 77 112 113
f 77 113 114
f 77 114 115
f 77 115 116
f 77 116 78
f 78 116 117
f 78 117 79
f 79 117 80
f 80 118 81
f 80 117 119
f 80 119 120
f 80 120 121
f 80 121 118
f 81 118 122
f 81 122 82
f 83 99 123
f 83 123 124
f 83 124 84
f 84 124 125
f 84 125 85
f 87 88 126
f 87 126 127
f 87 127 128
f 87 128 129
f 92 97 95
f 93 95 130
f 93 130 101
f 95 97 96
f 95 96 131
f 95 131 132
f 95 132 133
f 95 133 134
f 95 134 135
f 95 135 130
f 96 136 131
f 98 137 138
f 98 138 139
f 98 139 140
f 98 140 99
f 98 122 137
f 99 140 123
f 101 130 141
f 101 141 142
f 101 142 143
f 101 143 102
f 102 143 144
f 102 144 103
f 103 144 145
f 103 145 146
f 103 146 147
f 103 147 104
f 104 147 148
f 104 148 106
f 104 106 105
f 106 148 107
f 107 148 149
f 107 149 150
f 107 150 151
f 107 151 108
f 108 110 109
f 108 151 110
f 110 151 152
f 110 152 111
f 111 152 153
f 111 153 112
f 112 153 154
f 112 154 113
f 113 154 114
f 114 154 155
f 114 155 156
f 114 156 115
f 115 156 116
f 116 156 117
f 117 157 120
f 117 120 119
f 117 156 158
f 117 158 157
f 118 121 159
f 118 159 122
f 120 159 121
f 120 157 158
f 120 158 159
f 122 159 137
f 123 140 160
f 123 160 161
f 123 161 124
f 124 161 162
f 124 162 163
f 124 163 125
f 128 164 165
f 128 165 129
f 130 142 141
f 130 135 166
f 130 166 167
f 130 167 168
f 130 168 142
f 131 136 169
f 131 169 132
f 132 170 171
f 132 171 133
f 133 171 172
f 133 172 173
f 133 173 135
f 133 135 134
f 135 173 174
f 135 174 166
f 137 159 175
f 137 175 138
f 138 175 176
f 138 176 139
f 139 177 178
f 139 178 160
f 139 160 140
f 139 176 179
f 139 179 177
f 142 168 180
f 142 180 144
f 142 144 143
f 144 180 145
f 145 181 146
f 145 180 181
f 146 181 182
f 146 182 183
f 146 183 184
f 146 184 185
f 146 185 186
f 146 186 187
f 146 187 188
f 146 188 189
f 146 189 190
f 146 190 191
f 146 191 148
f 146 148 147
f 148 191 149
f 149 191 192
f 149 192 150
f 150 192 151
f 151 192 193
f 151 193 152
f 152 193 153
f 153 194 195
f 153 195 154
f 153 193 196
f 153 196 197
f 153 197 198
f 153 198 194
f 154 195 194
f 154 194 199
f 154 199 155
f 155 199 158
f 155 158 156
f 158 199 200
f 158 200 201
f 158 201 202
f 158 202 203
f 158 203 204
f 158 204 205
f 158 205 206
f 158 206 207
f 158 207 208
f 158 208 159
f 159 208 209
f 159 209 210
f 159 210 179
f 159 179 175
f 160 178 211
f 160 211 212
f 160 212 161
f 161 213 162
f 161 212 213
f 162 213 214
f 162 214 215
f 162 215 216
f 164 217 165
f 165 217 218
f 166 174 219
f 166 219 167
f 167 219 220
f 167 220 168
f 168 220 221
f 168 221 180
f 170 222 223
f 170 223 171
f 171 223 172
f 172 223 224
f 172 224 173
f 173 224 225
f 173 225 174
f 174 226 227
f 174 227 228
f 174 228 229
f 174 229 219
f 174 225 230
f 174 230 231
f 174 231 226
f 175 179 176
f 177 179 232
f 177 232 178
f 178 232 233
f 178 233 211
f 179 210 234
f 179 234 235
f 179 235 232
f 180 221 181
f 181 221 182
f 182 221 183
f 183 221 228
f 183 228 236
f 183 236 184
f 184 236 185
f 185 236 228
f 185 228 237
f 185 237 186
f 186 237 238
f 186 238 187
f 187 189 188
f 187 238 239
f 187 239 189
f 189 239 240
f 189 240 190
f 190 240 191
f 191 240 192
f 192 240 241
f 192 241 242
f 192 242 193
f 193 242 241
f 193 241 243
f 193 243 196
f 194 200 199
f 194 198 244
f 194 244 200
f 196 243 197
f 197 243 198
f 198 245 244
f 198 243 245
f 200 244 246
f 200 246 201
f 201 246 247
f 201 247 202
f 202 247 248
f 202 248 203
f 203 248 204
f 204 248 249
f 204 249 250
f 204 250 251
f 204 251 205
f 205 251 252
f 205 252 253
f 205 253 254
f 205 254 206
f 206 255 207
f 206 254 256
f 206 256 257
f 206 257 255
f 207 258 208
f 207 255 258
f 208 258 210
f 208 210 209
f 210 258 234
f 211 233 259
f 211 259 213
f 211 213 212
f 213 259 214
f 214 259 215
f 215 260 216
f 215 259 261
f 215 261 262
f 215 262 260
f 217 263 218
f 218 263 264
f 219 229 228
f 219 228 220
f 220 228 221
f 222 265 223
f 223 265 224
f 224 265 266
f 224 266 225
f 225 266 267
f 225 267 230
f 226 231 239
f 226 239 268
f 226 268 227
f 227 238 237
f 227 237 228
f 227 268 238
f 230 267 269
f 230 269 231
f 231 269 270
f 231 270 271
f 231 271 239
f 232 259 233
f 232 235 272
f 232 272 273
f 232 273 259
f 234 258 255
f 234 255 274
f 234 274 275
f 234 275 276
f 234 276 235
f 235 276 272
f 238 268 239
f 239 271 277
f 239 277 278
f 239 278 279
f 239 279 280
f 239 280 240
f 240 280 281
f 240 281 282
f 240 282 241
f 241 282 243
f 243 282 283
f 243 283 284
f 243 284 285
f 243 285 286
f 243 286 245
f 244 245 246
f 245 286 246
f 246 286 247
f 247 286 287
f 247 287 248
f 248 287 284
f 248 284 249
f 249 284 288
f 249 288 289
f 249 289 250
f 250 289 290
f 250 290 251
f 251 290 291
f 251 291 252
f 252 291 292
f 252 292 293
f 252 293 253
f 253 294 295
f 253 295 254
f 253 293 294
f 254 295 256
f 255 257 274
f 256 274 257
f 256 295 274
f 259 273 261
f 261 273 296
f 261 296 262
f 263 297 264
f 264 297 298
f 264 298 299
f 265 300 266
f 266 300 267
f 267 300 301
f 267 301 302
f 267 302 269
f 269 302 303
f 269 303 304
f 269 304 270
f 270 304 305
f 270 305 306
f 270 306 271
f 271 306 307
f 271 307 308
f 271 308 309
f 271 309 310
f 271 310 277
f 272 311 296
f 272 296 273
f 272 276 312
f 272 312 313
f 272 313 314
f 272 314 315
f 272 315 311
f 274 295 275
f 275 295 294
f 275 294 316
f 275 316 317
f 275 317 318
f 275 318 319
f 275 319 320
f 275 320 321
f 275 321 276
f 276 321 322
f 276 322 312
f 277 323 278
f 277 310 323
f 278 323 324
f 278 324 325
f 278 325 326
f 278 326 327
f 278 327 328
f 278 328 329
f 278 329 282
f 278 282 281
f 278 281 280
f 278 280 279
f 282 329 330
f 282 330 283
f 283 330 331
f 283 331 284
f 284 331 288
f 284 287 285
f 285 287 286
f 288 331 332
f 288 332 333
f 288 333 290
f 288 290 289
f 290 333 334
f 290 334 291
f 291 334 292
f 292 335 336
f 292 336 337
f 292 337 293
f 292 334 331
f 292 331 338
f 292 338 335
f 293 337 339
f 293 339 340
f 293 340 294
f 294 317 316
f 294 340 341
f 294 341 317
f 298 342 343
f 298 343 344
f 298 344 299
f 301 345 346
f 301 346 302
f 302 346 345
f 302 345 303
f 303 345 347
f 303 347 348
f 303 348 304
f 304 348 349
f 304 349 306
f 304 306 305
f 306 349 350
f 306 350 307
f 307 350 351
f 307 351 352
f 307 352 353
f 307 353 354
f 307 354 355
f 307 355 308
f 308 355 356
f 308 356 357
f 308 357 358
f 308 358 323
f 308 323 309
f 309 323 310
f 312 314 313
f 312 322 359
f 312 359 360
f 312 360 314
f 314 360 361
f 314 361 362
f 314 362 363
f 314 363 315
f 317 341 364
f 317 364 318
f 318 364 365
f 318 365 366
f 318 366 367
f 318 367 320
f 318 320 319
f 320 367 360
f 320 360 359
f 320 359 322
f 320 322 321
f 323 368 324
f 323 358 368
f 324 368 325
f 325 369 326
f 325 368 358
f 325 358 370
f 325 370 371
f 325 371 369
f 326 369 327
f 327 372 373
f 327 373 328
f 327 369 371
f 327 371 374
f 327 374 372
f 328 373 372
f 328 372 375
f 328 375 330
f 328 330 329
f 330 375 372
f 330 372 331
f 331 372 338
f 331 334 332
f 332 334 333
f 335 374 371
f 335 371 336
f 335 338 372
f 335 372 374
f 336 376 356
f 336 356 377
f 336 377 337
f 336 371 376
f 337 377 378
f 337 378 379
f 337 379 380
f 337 380 381
f 337 381 339
f 339 381 382
f 339 382 383
f 339 383 384
f 339 384 340
f 340 384 385
f 340 385 386
f 340 386 341
f 341 386 364
f 342 387 388
f 342 388 343
f 345 348 347
f 348 389 349
f 349 389 390
f 349 390 391
f 349 391 392
f 349 392 350
f 350 392 393
f 350 393 394
f 350 394 351
f 351 394 395
f 351 395 396
f 351 396 352
f 352 396 353
f 353 396 354
f 354 396 397
f 354 397 398
f 354 398 399
f 354 399 400
f 354 400 401
f 354 401 402
f 354 402 355
f 355 402 403
f 355 403 356
f 356 376 404
f 356 404 405
f 356 405 357
f 356 403 377
f 357 405 358
f 358 405 404
f 358 404 370
f 360 367 361
f 361 406 407
f 361 407 362
f 361 367 366
f 361 366 408
f 361 408 406
f 362 407 406
f 364 386 409
f 364 409 365
f 365 409 432
f 365 432 408
f 365 408 366
f 370 404 376
f 370 376 371
f 377 403 410
f 377 410 411
f 377 411 378
f 378 411 379
f 379 411 380
f 380 411 412
f 380 412 413
f 380 413 381
f 381 413 382
f 382 413 414
f 382 414 383
f 383 414 415
f 383 415 384
f 384 415 416
f 384 416 417
f 384 417 385
f 385 417 409
f 385 409 386
f 387 418 419
f 387 419 388
f 390 392 391
f 395 420 396
f 396 420 421
f 396 421 422
f 396 422 397
f 397 422 423
f 397 423 398
f 398 424 399
f 398 423 424
f 399 424 401
f 399 401 400
f 401 424 425
f 401 425 402
f 402 425 426
f 402 426 403
f 403 427 428
f 403 428 429
f 403 429 410
f 403 426 427
f 406 408 430
f 406 430 431
f 408 432 430
f 409 417 433
f 409 433 434
f 409 434 432
f 410 435 411
f 410 429 436
f 410 436 435
f 411 435 436
f 411 436 429
f 411 429 437
f 411 437 412
f 412 437 429
f 412 429 438
f 412 438 413
f 413 438 439
f 413 439 440
f 413 440 414
f 414 441 442
f 414 442 443
f 414 443 415
f 414 440 441
f 415 443 444
f 415 444 445
f 415 445 416
f 416 445 417
f 417 445 433
f 418 446 419
f 419 446 447
f 419 447 448
f 420 422 421
f 422 449 423
f 423 450 425
f 423 425 424
f 423 449 451
f 423 451 426
f 423 426 450
f 425 450 426
f 426 451 452
f 426 452 453
f 426 453 454
f 426 454 427
f 427 454 428
f 428 454 455
f 428 455 456
f 428 456 438
f 428 438 429
f 430 432 431
f 431 432 457
f 432 434 457
f 433 445 434
f 434 445 444
f 434 444 457
f 438 456 458
f 438 458 459
f 438 459 460
f 438 460 439
f 439 460 455
f 439 455 440
f 440 455 441
f 441 455 461
f 441 461 462
f 441 462 442
f 442 462 463
f 442 463 464
f 442 464 443
f 443 464 465
f 443 465 466
f 443 466 467
f 443 467 468
f 443 468 444
f 447 469 448
f 448 469 470
f 448 470 471
f 448 471 472
f 449 473 474
f 449 474 452
f 449 452 451
f 452 474 475
f 452 475 476
f 452 476 453
f 453 476 454
f 454 476 455
f 455 476 477
f 455 477 478
f 455 478 479
f 455 479 480
f 455 480 481
f 455 481 461
f 455 460 459
f 455 459 458
f 455 458 456
f 461 481 462
f 462 481 482
f 463 483 464
f 464 483 465
f 469 484 470
f 470 484 485
f 470 485 486
f 470 486 487
f 470 487 471
f 471 487 472
f 472 487 488
f 472 488 489
f 472 489 490
f 473 490 491
f 473 491 492
f 473 492 474
f 474 492 475
f 475 492 493
f 475 493 476
f 476 493 477
f 477 493 478
f 478 494 480
f 478 480 479
f 478 493 495
f 478 495 496
f 478 496 494
f 480 497 498
f 480 498 482
f 480 482 481
f 480 494 499
f 480 499 500
f 480 500 497
f 484 501 486
f 484 486 485
f 486 501 502
f 486 502 497
f 486 497 500
f 486 500 487
f 487 500 499
f 487 499 503
f 487 503 488
f 488 503 496
f 488 496 504
f 488 504 489
f 489 504 490
f 490 504 505
f 490 505 491
f 491 505 506
f 491 506 493
f 491 493 492
f 493 506 496
f 493 496 495
f 494 496 503
f 494 503 499
f 496 506 505
f 496 505 504
f 497 502 498

