# https://github.com/mikedh/trimesh
mtllib visual_geometry.mtl
usemtl material_0
v 0.05995764 -0.02838954 -0.03077317
v 0.13541364 0.02415646 0.13232883
v -0.13517836 0.02735946 -0.12187717
v -0.08660236 -0.02200054 -0.13304617
v 0.13163764 -0.02455254 -0.11979217
v 0.12248564 0.02360546 0.13402883
v -0.13300236 -0.02717354 0.12686883
v -0.00845836 0.02290746 0.13514783
v 0.13317364 0.02641146 -0.04571917
v -0.13532936 -0.00064454 0.08601583
v -0.13328136 0.02655746 -0.05446117
v -0.08278536 -0.02945354 0.01444683
v -0.08137736 0.02924046 -0.11849017
v 0.13622264 -0.00519254 -0.03722717
v -0.10409736 0.02732246 0.02526483
v 0.09193464 -0.02841154 -0.02324017
v -0.13219336 0.02349346 0.12340783
v -0.13347336 0.02818846 -0.11545517
v -0.13272836 -0.02443854 -0.10099017
v 0.12941564 -0.02379654 -0.13355817
v -0.07500036 -0.02689254 0.13388683
v 0.13408764 0.02744646 -0.13176317
v -0.13573636 -0.00027754 0.05398183
v -0.09964036 -0.02341154 -0.12312817
v 0.04391164 -0.02236154 -0.13414717
v -0.07000836 0.02948746 -0.10579017
v -0.13292036 0.00097846 0.13464083
v -0.13292036 0.00097846 0.13464083
v -0.13087236 0.02754846 -0.13343217
v -0.06785536 0.02935946 -0.11540217
v 0.11633664 -0.02139554 -0.13525317
v 0.13668864 -0.01424654 0.13176283
v 0.13668864 -0.01424654 0.13176283
v 0.12952064 -0.00044154 -0.13510917
v 0.13617664 0.01066846 0.12729583
v 0.13425664 -0.02122254 -0.12143617
v -0.07412736 -0.02808754 -0.04917917
v 0.04926464 0.02485646 0.13192483
v -0.06017536 -0.02750454 -0.06320917
v 0.13252864 -0.02268854 -0.13487717
v 0.13521664 -0.02399254 0.04679083
v -0.11969536 -0.02882454 0.06059783
v -0.13277436 0.02484746 0.03777283
v 0.13397764 0.00701946 -0.13555617
v 0.02920964 0.02315446 0.13495583
v -0.07683836 0.02939646 -0.10599117
v -0.03421436 0.02864546 -0.13298117
v 0.13493764 0.02295846 0.13385583
v 0.08124164 0.02772246 0.01294283
v -0.10813436 -0.02910354 0.03167383
v -0.09168636 0.02626746 0.08910183
v 0.13250564 -0.02637054 0.13191883
v 0.13455364 0.02264846 0.12108983
v -0.01350136 0.02472446 0.13283483
v -0.13535736 -0.01758654 -0.13201117
v -0.13535736 -0.01758654 -0.13201117
v -0.13599736 -0.00810154 -0.02693517
v -0.13394936 0.02900846 -0.13143917
v -0.13132536 -0.01283354 0.13503183
v -0.13388536 0.02870046 -0.12641117
v 0.05094664 0.02295546 0.13477983
v -0.13510136 -0.00478854 -0.13309717
v -0.13510136 -0.00478854 -0.13309717
v -0.09446136 0.02922846 -0.11959117
v -0.10617336 -0.02548154 0.13482583
v -0.00383736 0.02336546 0.13482783
v 0.13446664 0.02409346 0.08510583
v -0.00902136 0.02951946 -0.05784317
v 0.07225864 0.02492046 0.13243783
v -0.12300536 -0.02261954 -0.13070917
v 0.11953164 0.02334146 0.13436683
v 0.10839564 0.02482746 0.13241783
v 0.05009164 0.02457946 0.13296483
v -0.07963636 0.02433346 0.13373883
v 0.13469964 0.02617146 -0.13395517
v 0.09617164 0.02358746 0.13436283
v -0.13102836 -0.02730454 0.04450183
v -0.13294836 -0.01142554 0.13414183
v -0.13294836 -0.01142554 0.13414183
v 0.04996364 -0.02626854 -0.09061217
v -0.12168436 -0.02480854 -0.10825817
v 0.13457164 -0.00582654 -0.13520317
v 0.13457164 -0.00582654 -0.13520317
v 0.05339664 0.01325646 -0.13468217
v 0.11182864 -0.02640354 -0.08116317
v -0.13386736 0.02828846 -0.11934617
v -0.13373936 0.02769346 -0.10077117
v -0.00593136 -0.02086454 -0.13414617
v -0.13437936 -0.02349654 -0.09335417
v -0.13437936 -0.02349654 -0.09335417
v 0.13384464 0.02355846 0.13426183
v 0.06649364 0.02322346 0.13447683
v -0.05990636 0.02469146 0.13265783
v -0.13395436 -0.02049954 0.13378683
v -0.13587436 -0.01766054 -0.13136217
v -0.13453036 -0.01831154 0.07922983
v -0.13254636 0.02601446 -0.03082717
v -0.11014636 -0.02136154 -0.13284517
v -0.13427436 -0.02333454 -0.12218017
v -0.13427436 -0.02333454 -0.12218017
v -0.13286636 0.02512746 0.00001383
v 0.08934164 0.02774546 -0.13414017
v -0.09660136 -0.02619954 -0.08874717
v -0.13589736 0.00361846 0.02185783
v -0.13583336 0.01488946 -0.08437717
v 0.13290264 0.02682146 -0.06332817
v -0.10159336 0.02922846 -0.11189917
v 0.09501464 0.02325046 0.13440383
v 0.13373464 -0.01189754 -0.13553517
v -0.10308836 -0.02471054 -0.11046617
v -0.10686436 -0.02189754 -0.13242217
v 0.09959964 0.02836346 -0.06604517
v -0.10027236 -0.02005454 -0.13332817
v -0.12971236 -0.02461254 -0.10955417
v 0.13518364 -0.00452554 -0.11624717
v -0.07320036 0.02937046 -0.05266917
v 0.13652764 -0.01464454 0.07301583
v 0.13524764 0.02009046 0.03919083
v 0.13343264 0.02635046 -0.06602317
v -0.12346336 0.02904546 -0.13149517
v 0.13612064 0.00278046 -0.06058517
v 0.04575264 0.02836546 -0.13338217
v 0.09100064 0.02496546 0.13229283
v 0.13362464 0.02526646 0.02785783
v 0.13580064 0.00521946 -0.08450417
v -0.13280736 0.02494146 0.01858283
v 0.13458464 0.01076746 -0.13530517
v -0.11375836 0.00132446 0.13582283
v -0.06390236 0.02944246 -0.10491317
v 0.10518564 0.02324746 0.13434883
v -0.13590236 -0.01352854 -0.13267917
v -0.11427036 0.02770446 -0.02745617
v -0.08271836 0.02724946 -0.13360617
v -0.08271836 0.02724946 -0.13360617
v -0.05583836 0.02750246 -0.13381217
v -0.05583836 0.02750246 -0.13381217
v -0.08335836 0.02447046 -0.13345017
v 0.13686564 -0.00503454 0.10604083
v 0.13372964 0.02583946 -0.01307817
v -0.09430236 0.02789046 -0.13329717
v -0.09430236 0.02789046 -0.13329717
v -0.11260636 0.02616346 0.05686083
v -0.03459036 0.02914346 -0.13200817
v -0.13353436 -0.02361254 0.12688683
v -0.05155036 0.02847146 -0.13446317
v 0.13392164 0.02735246 -0.12548017
v -0.00299736 0.02687146 0.08325383
v 0.08301864 -0.02270054 -0.13563017
v -0.11154136 0.02282946 0.13586383
v -0.04075736 0.02466146 0.13317083
v 0.07533864 0.02316146 0.13453483
v -0.13240536 0.02393546 0.07967483
v -0.03070936 0.02466846 0.13307483
v 0.00404264 -0.02837454 0.09667183
v 0.08858664 0.02805646 -0.13357217
v 0.12532264 -0.02465954 -0.11975517
v -0.08370136 -0.02588254 0.13449183
v 0.06385964 0.02846846 -0.13469417
v -0.10324436 -0.02179254 -0.13257817
v 0.13009964 0.02719046 -0.13460917
v 0.13009964 0.02719046 -0.13460917
v -0.11034836 -0.02685254 -0.07076117
v 0.13547564 0.01645346 0.10932483
v 0.03262764 0.02341446 0.13465083
v -0.10695636 0.02304846 0.13553883
v 0.04715564 0.02751246 -0.13424217
v 0.04715564 0.02751246 -0.13424217
v -0.07143636 0.02921746 -0.11600517
v 0.06488364 -0.02867254 -0.02406317
v 0.08197164 0.02772446 -0.13528917
v 0.13310764 -0.02647254 0.03533283
v 0.05381164 0.01314646 -0.13469017
v 0.07742764 0.02711846 -0.13479717
v 0.13381164 0.01478346 -0.13562117
v -0.10589136 -0.02321654 -0.12775017
v -0.10781136 -0.02288254 -0.12796517
v 0.13666864 0.00736646 0.01499283
v 0.12169264 0.02782046 -0.12278617
v -0.13257936 0.02436146 0.06384283
v 0.13417264 0.02534146 -0.13538617
v 0.13417264 0.02534146 -0.13538617
v -0.10173136 0.00533946 -0.13384317
v 0.13359664 0.02722846 -0.13469017
v 0.13359664 0.02722846 -0.13469017
v -0.08848336 0.02883646 -0.13278017
v 0.13372464 0.02592446 -0.02036417
v 0.13641264 -0.01721754 0.13221883
v -0.13219536 -0.02720354 0.06752883
v -0.13219536 -0.02720354 0.06752883
v -0.07446736 0.02927446 -0.11053317
v -0.04620236 0.02913546 -0.13195717
v 0.13338164 -0.01830354 -0.13471917
v -0.11628236 -0.02565454 -0.09657917
v 0.05350964 0.02329746 0.13451583
v 0.05222964 0.02802246 -0.13507217
v -0.09260236 0.02927146 -0.11295217
v 0.03328564 -0.02504754 -0.10990717
v 0.13427764 0.00678446 0.13358283
v -0.13177036 -0.02812754 0.12128383
v -0.13177036 -0.02812754 0.12128383
v 0.05114164 0.02855846 -0.13486217
v -0.09957836 -0.02377754 -0.11968217
v 0.00077364 0.02472446 0.13279683
v 0.13446964 0.02312246 0.08273483
v 0.13325364 0.02700946 -0.08285217
v -0.12626636 0.02293046 0.13577583
v -0.08622536 -0.02961154 0.04774483
v -0.04737736 0.02878646 -0.13311717
v -0.01192136 0.02321146 0.13508183
v -0.10952136 -0.02343754 -0.12237217
v 0.05956664 -0.02298854 -0.13506317
v -0.13179336 0.02290346 0.13582183
v -0.11278536 -0.02932254 0.08139783
v -0.08654536 0.02782346 -0.13337517
v -0.08654536 0.02782346 -0.13337517
v -0.13499336 0.02370346 -0.09600817
v 0.13438264 0.02415046 -0.08411017
v -0.03073736 -0.02758754 -0.06394417
v -0.06606536 0.02933846 -0.12071317
v -0.13614536 -0.00790354 -0.11442717
v 0.13387064 -0.00318854 -0.13563917
v 0.08283964 -0.02321554 -0.13516017
v 0.13333564 0.02662146 -0.05813017
v 0.00098364 -0.00030554 -0.13456717
v -0.09463236 0.02933746 -0.11767617
v 0.13346364 -0.02347454 -0.13410817
v 0.13346364 -0.02347454 -0.13410817
v -0.13450436 0.02246346 -0.00876517
v 0.13423164 -0.02247354 -0.08136717
v 0.13423164 -0.02247354 -0.08136717
v 0.13429564 0.02449446 0.07884583
v 0.05960764 -0.02882654 0.07476883
v -0.13232836 0.02341646 0.11281183
v 0.13640764 -0.01253454 0.13210883
v 0.06895164 0.02716146 0.06265583
v 0.12469564 0.02422046 0.11211183
v 0.13593664 0.02301346 0.13242483
v 0.13593664 0.02301346 0.13242483
v -0.12473536 -0.02473254 -0.10547317
v -0.13254336 -0.02760554 0.13430783
v -0.13254336 -0.02760554 0.13430783
v -0.13241536 0.02340446 0.10493983
v -0.05433536 0.02289846 0.13520183
v -0.13491136 0.00802746 -0.13300617
v -0.13491136 0.00802746 -0.13300617
v -0.12505536 -0.02240454 -0.13159417
v -0.11455936 -0.02581854 -0.09169717
v -0.11583936 -0.02141554 -0.13272817
v 0.13388864 0.02579146 -0.00347117
v 0.04944964 0.02817046 -0.13501517
v 0.07242564 0.02302246 0.13456083
v -0.13397436 0.00081346 0.13451783
v -0.13327036 0.02704046 -0.06773417
v 0.02602564 0.02842646 0.02175183
v 0.11844164 0.02739346 -0.04615917
v -0.13384636 0.00845646 0.13489083
v -0.13384636 0.00845646 0.13489083
v -0.01583036 0.02908846 -0.00344017
v 0.11786564 -0.02682954 0.13123083
v -0.10101436 -0.02270054 -0.13081517
v -0.13371836 0.00617246 -0.13299217
v -0.01506236 0.02230946 0.13519283
v 0.13111364 -0.02495754 -0.09917317
v -0.13231036 0.02388946 0.13354783
v -0.10018236 0.02905946 -0.08450517
v 0.05124164 -0.02268654 -0.13541517
v 0.13514564 0.02063646 0.12211583
v 0.13514564 0.02396246 0.12354183
v -0.04891836 -0.02066254 -0.13385317
v 0.11560264 -0.02358754 -0.13309417
v 0.06913864 0.02707446 -0.13475317
v 0.06913864 0.02707446 -0.13475317
v -0.12676536 -0.02504954 -0.10098017
v 0.10920264 0.02498846 0.12601083
v -0.13514936 0.02411146 -0.12004617
v 0.03329864 -0.02848654 -0.03393117
v -0.12132536 -0.02581954 -0.08648017
v 0.13512264 -0.02699054 0.13210883
v 0.13512264 -0.02699054 0.13210883
v 0.00149064 0.02286346 0.13510383
v -0.06794936 0.02911146 -0.11749417
v -0.01482936 0.02922046 -0.12991217
v -0.11968436 -0.00505254 -0.13367217
v -0.13536436 0.01903646 -0.13224217
v 0.01740364 -0.02793354 -0.05275617
v -0.13395636 -0.02018554 0.11606383
v 0.11845964 -0.02685954 -0.04645317
v 0.13420364 0.02465446 0.07071083
v -0.13376436 0.01953046 0.10644583
v 0.13573964 -0.00633754 -0.08336817
v 0.13445964 0.01896446 0.13392383
v 0.08082764 0.02304846 0.13450383
v -0.05865136 -0.02613354 -0.08893417
v 0.04566864 -0.02319554 -0.13308817
v -0.12265136 0.02238946 0.13602983
v -0.10953136 -0.01990254 -0.13317317
v -0.07740336 0.02925846 -0.12557117
v -0.13417136 0.02163146 0.02013583
v -0.13346736 0.01893446 0.12515283
v 0.13396564 0.02251146 -0.13566017
v 0.13409364 -0.00789254 0.13306483
v -0.05393836 0.02138446 0.13537883
v -0.05310636 0.02906746 -0.13388317
v -0.13496236 0.02217446 -0.13267817
v -0.13496236 0.02217446 -0.13267817
v 0.12526164 -0.02800554 0.07881083
v 0.13646164 0.00435246 0.13214183
v 0.13646164 0.00435246 0.13214183
v -0.13221036 0.02428946 0.06798383
v -0.07320236 0.02935546 -0.12096117
v -0.06923436 0.02732746 -0.13356117
v -0.06923436 0.02732746 -0.13356117
v -0.13140136 -0.01848254 -0.13288017
v 0.13336664 0.02645546 -0.05039417
v -0.13261736 0.02469846 0.05000683
v 0.11711064 0.02353446 0.13435083
v -0.12468136 0.02843546 -0.11325817
v 0.13688664 -0.00154554 0.00598883
v -0.13178536 -0.02523554 -0.07565317
v -0.06688936 -0.02243554 -0.13388817
v -0.09690536 -0.02311354 -0.12661717
v 0.13381464 -0.02296654 -0.11177117
v 0.13381464 -0.02296654 -0.11177117
v -0.13543336 0.00149946 -0.13246217
v -0.12995236 -0.02741654 0.13390783
v -0.01718436 -0.02720654 0.13182183
v -0.09513636 -0.02244654 -0.13178117
v 0.11267164 0.02683846 0.01421283
v 0.10876764 0.02831946 -0.08105917
v -0.10486436 -0.02263954 -0.12914617
v -0.11337636 -0.02695154 0.13421283
v -0.11446436 0.02254146 0.13589483
v 0.13391964 0.02553046 0.01703083
v 0.06778464 -0.02171554 -0.13504817
v -0.09663136 0.02239646 0.13568083
v -0.10507936 -0.02312454 -0.12605917
v 0.13351264 -0.02423354 -0.07665917
v -0.13176736 0.00212746 -0.13335617
v -0.02949536 0.02605646 0.10643283
v -0.10021536 -0.02290454 -0.12762917
v 0.09184864 0.02629146 -0.13477517
v 0.09184864 0.02629146 -0.13477517
v -0.13413536 -0.01200754 0.13407683
v -0.09874336 -0.02162454 -0.13293317
v 0.09197664 0.02340246 0.13446883
v -0.12027036 -0.02801354 0.00330683
v 0.03966564 0.02849546 -0.13316517
v -0.13185436 -0.02558454 -0.04974817
v 0.00184164 -0.02234154 -0.13366917
v -0.08001436 0.02936046 -0.12111117
v 0.13297764 -0.01206254 -0.13476817
v 0.13560164 -0.02498554 0.09960983
v -0.08782236 0.02933246 -0.12347117
v 0.11928164 0.02786246 -0.09859417
v 0.10168164 0.02621746 0.06762083
v 0.07153764 -0.02795954 -0.04973317
v 0.12068964 0.02480346 0.13215683
v -0.10198936 -0.02252854 -0.13142717
v -0.09277336 -0.02348654 -0.12251417
v 0.05148264 0.02322946 0.13475783
v 0.03580264 -0.02048954 -0.13457617
v 0.13410664 0.02494946 0.04896383
v 0.13481064 0.02313646 -0.01686717
v 0.13481064 0.02289846 0.00625983
v 0.04181864 -0.02934154 0.02777583
v -0.13578136 -0.01042954 -0.13277917
v -0.13053336 -0.02290254 -0.12940417
v -0.13373336 0.02869946 -0.13276717
v -0.13373336 0.02869946 -0.13276717
v -0.10019736 -0.02926254 0.08992883
v -0.08445336 -0.02197554 -0.13408617
v 0.00796264 -0.02913754 0.06453383
v -0.13552536 -0.02009254 -0.11790017
v 0.13122664 0.02369946 0.13404683
v 0.13321064 -0.02713254 0.07969683
v 0.08937064 0.01886246 -0.13495117
v -0.08146836 -0.01820154 0.13474983
v 0.05881964 -0.02264854 -0.13545017
v -0.05049236 -0.02248254 -0.13389117
v 0.12717164 0.02355846 0.13422483
v 0.13523564 -0.01554054 0.13223383
v 0.10839664 0.02828046 -0.11625117
v -0.07438736 0.02935146 -0.11419917
v 0.11972464 0.00691446 -0.13543917
v -0.13454736 0.01600946 0.07861183
v 0.10142064 -0.02335754 -0.13367617
v -0.13377936 -0.02496954 -0.00312917
v 0.07870064 -0.02260054 -0.13563917
v -0.11592336 -0.02351654 -0.12343517
v 0.13444464 -0.01134154 -0.13545817
v 0.04145264 0.02304946 0.13484083
v -0.13540236 0.02664046 -0.13191317
v 0.03630964 0.02247146 0.13491283
v -0.13597836 0.00503446 -0.02672817
v -0.09527436 -0.02130454 -0.13314217
v -0.13521036 -0.02225754 -0.12555317
v 0.05550964 -0.02648454 0.13279383
v 0.13288564 0.02705146 -0.11037717
v -0.13380236 0.02104946 0.05159183
v -0.11897736 0.02291246 0.13575283
v -0.13529736 0.00716146 0.07523483
v 0.13612664 -0.02445654 0.13215783
v 0.13612664 -0.02445654 0.13215783
v -0.04601736 -0.02156154 -0.13361917
v 0.08902264 -0.02100954 -0.13496217
v 0.07526264 -0.02506854 0.13316883
v -0.11539336 0.02803046 -0.13323617
v -0.12256136 0.02218146 0.13604283
v 0.13305464 0.01293546 -0.13491617
v 0.04787064 0.02906146 -0.10180017
v 0.00467064 -0.02890154 -0.02009117
v -0.10803336 -0.02255754 -0.13152917
v -0.12179336 -0.02398454 -0.11928917
v -0.13474436 0.00715046 0.10570383
v 0.13463164 0.02357946 0.10772483
v -0.02325636 0.02289846 0.13524683
v 0.10992764 0.02510846 0.10428783
v 0.13424764 0.02401146 0.11813183
v -0.10485636 0.02491446 0.11665583
v -0.12712836 -0.01795654 0.13520183
v -0.13301636 -0.01808854 0.13402383
v -0.13301636 -0.01808854 0.13402383
v 0.13437564 0.02409746 0.09523583
v 0.13251964 -0.02503054 -0.07551617
v 0.13520764 -0.01388354 -0.09869217
v 0.13456764 0.01712946 -0.13530217
v 0.13456764 0.01712946 -0.13530217
v 0.08750464 -0.02249454 -0.13456317
v 0.07579264 -0.02305754 -0.13532617
v -0.09393536 0.02930146 -0.12493217
v -0.04139136 0.02771346 0.05599183
v -0.13630336 -0.00170854 -0.05782517
v -0.06615936 0.02911446 -0.13395317
v -0.13297536 0.02339146 0.04385783
v -0.08695936 0.02253446 0.13558783
v -0.13408636 -0.00975154 -0.13264317
v -0.03443836 -0.02930054 -0.00807917
v -0.06784636 0.02207046 0.13546283
v 0.13272964 0.02477346 -0.13495417
v 0.13407364 0.02481846 0.13181683
v -0.13255036 -0.02780554 0.13260183
v -0.13255036 -0.02780554 0.13260183
v -0.07616636 -0.02204554 -0.13401417
v -0.08730236 0.02939546 -0.10551117
v 0.13298564 -0.02436454 -0.09962217
v 0.13567364 -0.02622254 0.12462083
v -0.08384636 0.02823546 -0.13412817
v -0.07072636 0.02924246 -0.12414417
v -0.04704636 0.02429846 0.13376783
v -0.13485436 -0.01985654 -0.03656117
v -0.13287036 0.02304746 0.05830283
v 0.13260164 0.02744246 -0.12282317
v 0.13462664 0.02418146 0.12142783
v 0.13411464 -0.02060454 -0.13398617
v 0.13411464 -0.02060454 -0.13398617
v -0.13391736 -0.01486254 0.13407783
v -0.03036536 -0.02947754 0.00244883
v -0.06306936 0.02294446 0.13542983
v -0.11087736 -0.02265854 -0.13117617
v 0.13558664 0.01524746 -0.04645217
v 0.13366664 -0.02536654 0.13253083
v -0.13218936 0.02254646 0.12381183
v -0.13342836 0.02212446 0.13014883
v 0.13658764 -0.00537954 0.13196783
v 0.13658764 -0.00537954 0.13196783
v -0.13406836 -0.00487554 0.13433483
v -0.12357236 0.02412146 0.12445683
v -0.08741236 -0.02265554 -0.13139317
v -0.13323636 -0.02606154 0.05894183
v -0.01067636 -0.02401654 -0.12017517
v -0.03678836 0.02961746 -0.06862417
v -0.13304436 0.02086946 0.12437983
v -0.05432436 -0.02742754 0.13226183
v -0.06546036 -0.02925554 0.08207783
v -0.10411636 -0.02854254 0.11276383
v -0.10206836 0.02848846 -0.03382617
v -0.04871536 0.02739546 -0.13346217
v -0.04871536 0.02739546 -0.13346217
v -0.09127536 0.02911946 -0.11631017
v -0.10618736 -0.02286454 -0.13017417
v -0.13633136 -0.00585854 -0.08189017
v 0.13368464 0.02661546 -0.12244917
v 0.13637264 0.01178346 0.03999683
v -0.13421936 -0.02372654 -0.04521117
v -0.09882736 0.02923846 -0.11956317
v -0.05872236 0.02441746 0.13359683
v 0.04687764 -0.02285254 -0.13419117
v 0.04886164 -0.02260054 -0.13520017
v 0.04630164 0.02872246 -0.13190717
v 0.08367764 0.02551046 -0.13483717
v 0.08367764 0.02551046 -0.13483717
v 0.09622164 -0.02846354 0.09798983
v 0.05961364 0.02318746 0.13467483
v -0.09238636 -0.02722854 -0.06779217
v -0.13360236 0.02094946 0.07188883
v 0.13378964 0.02574746 0.00637583
v -0.01104236 -0.02567154 -0.09783217
v 0.13415064 0.02552946 -0.01720117
v -0.08735336 0.02867246 -0.01408817
v 0.02490264 0.02292846 0.13498583
v 0.13632664 -0.02520554 0.13182583
v 0.13453464 0.00258446 -0.13508217
v 0.13453464 0.00258446 -0.13508217
v -0.10860136 -0.02333254 -0.12386817
v 0.02509464 0.02657446 -0.13406117
v -0.13477736 -0.02217854 -0.08742717
v -0.11112036 0.02878746 -0.13263917
v -0.11112036 0.02878746 -0.13263917
v -0.13339236 0.02246346 0.12631083
v 0.13207964 -0.02408854 -0.13418017
v 0.11767964 -0.02818754 0.03328683
v 0.04100764 -0.00012254 -0.13476917
v 0.08036764 0.02831146 -0.13487917
v 0.08036764 0.02841946 -0.03393617
v -0.11688036 0.02453046 0.10644383
v -0.13454436 -0.02334654 -0.10852117
v -0.13454436 -0.02334654 -0.10852117
v 0.05617564 0.02874846 -0.03033217
v -0.03163236 0.02327346 0.13498383
v -0.01652836 0.02297846 0.13499783
v -0.13576036 0.01371946 -0.11721717
v -0.09512036 -0.02280354 -0.12942917
v 0.13361564 0.02600246 -0.02704817
v -0.13294436 -0.02705554 0.11010183
v -0.05166436 0.02411146 0.13409483
v -0.11784036 0.02826546 -0.08210517
v 0.11153564 -0.02501954 -0.11377217
v 0.05858464 0.02726746 -0.13451317
v -0.01335136 0.02736246 -0.13372017
v -0.01335136 0.02736246 -0.13372017
v 0.08501664 -0.02284554 -0.13476817
v 0.00834464 0.02446146 0.13325783
v -0.08522336 -0.02106254 -0.13327817
v -0.10480736 -0.02810254 -0.03739117
v -0.13283936 0.02349846 0.12683083
v -0.01354336 0.02952946 -0.04868917
v -0.07120736 0.02940446 -0.11215217
v 0.13267364 -0.02415454 -0.12913017
v -0.02918236 -0.02675154 0.13349783
v 0.13401764 0.02490446 0.02864483
v -0.09273436 -0.02243454 -0.13223117
v -0.13196636 0.02380646 0.12360683
v 0.04896164 -0.02313654 -0.13501317
v -0.05119836 -0.02210454 -0.13430617
v -0.13241436 0.02346246 0.09946283
v 0.05305764 -0.02175954 -0.13453717
v -0.13363036 0.01788146 0.13512683
v -0.13363036 0.01788146 0.13512683
v 0.13399464 0.02425846 0.08826283
v 0.13661864 -0.02027754 0.13192683
v 0.13661864 -0.02027754 0.13192683
v 0.11633064 -0.02616654 0.13240283
v -0.07240536 -0.02458354 -0.10996917
v -0.13269336 0.02438946 0.06014083
v -0.13595736 -0.01303054 -0.09227817
v -0.13640536 0.00495146 -0.07783317
v -0.13115736 0.02184946 0.13619183
v 0.13297064 -0.02399154 -0.11732617
v 0.07991464 -0.02184854 -0.13500117
v -0.06088536 0.02882946 -0.00550717
v -0.13352536 -0.02675054 0.13419883
v 0.04151464 0.02711746 -0.13413117
v 0.04151464 0.02711746 -0.13413117
v -0.13278036 0.02459946 0.03208683
v 0.09422764 -0.02499254 0.13312683
v -0.13252436 -0.02357954 -0.12248717
v 0.01429164 0.02297546 0.13502483
v 0.13294764 -0.00327254 -0.13480117
v -0.10161236 -0.02750154 0.13277083
v 0.13646764 -0.02004154 0.12164583
v 0.11826864 0.02826946 -0.13260417
v 0.08556464 0.02743446 -0.13469317
v 0.02009264 -0.02650254 -0.08499717
v 0.13350064 0.02611446 -0.03482817
v 0.05292464 0.02717546 -0.13440517
v 0.05292464 0.02717546 -0.13440517
v -0.13376336 0.02031146 0.08941883
v -0.09568336 0.02948046 -0.12006117
v -0.06157136 -0.02209754 -0.13431417
v 0.13439664 -0.01635454 -0.13435817
v 0.13439664 -0.01635454 -0.13435817
v -0.13555536 -0.00877254 0.05398983
v -0.03708236 -0.02967454 0.03393383
v 0.13462964 0.02644046 -0.12463817
v 0.13597364 0.01525346 -0.00532817
v -0.12277836 -0.02130254 -0.13259917
v -0.13455436 -0.01161854 0.11757883
v 0.08893364 0.02312846 0.13443483
v -0.06236236 0.02933546 -0.11372417
v 0.10870964 0.02691246 -0.13467417
v 0.10870964 0.02691246 -0.13467417
v -0.13237836 0.02357946 0.09355683
v 0.12976564 -0.02053054 -0.13517917
v 0.04726964 -0.02201854 -0.13448617
v 0.03946164 -0.02900754 -0.00870517
v -0.07849036 0.02902446 -0.12384717
v 0.07421364 0.02801346 -0.13523517
v -0.13410636 -0.01572754 -0.13259717
v -0.08952136 -0.02111954 -0.13327217
v 0.05665464 0.02822646 -0.13519117
v 0.13467064 0.02338646 -0.04079617
v -0.13521736 -0.01689154 -0.00474617
v 0.13620664 0.01456446 0.13238583
v 0.13620664 0.01456446 0.13238583
v 0.09953464 0.02331046 0.13443583
v 0.10875064 -0.02788954 -0.02065217
v 0.13441464 0.02451546 0.12491983
v 0.13441464 -0.01535654 -0.13494317
v 0.13575864 -0.02664754 0.13176083
v -0.08964936 0.02938446 -0.11834217
v -0.13536836 0.01253346 -0.13283517
v -0.13536836 0.01253346 -0.13283517
v 0.08747964 0.02576246 0.10821283
v -0.13268036 0.02190546 0.11403583
v 0.12690364 0.02291046 0.13429583
v 0.13413564 -0.02729354 0.12366183
v 0.13413564 -0.02729354 0.12366183
v 0.04306364 0.02615046 0.10643583
v 0.13291964 -0.02603554 -0.00097017
v 0.13624764 0.00624346 -0.02891017
v -0.13364036 0.02726846 -0.08621917
v 0.09475264 -0.02625554 -0.09151817
v -0.11484736 0.02674146 0.01638183
v -0.13449536 0.02267146 -0.04208217
v -0.12924736 -0.02839954 0.10070183
v -0.01647936 -0.00123554 0.13486983
v -0.13302336 0.02542446 -0.01369517
v 0.13308864 -0.02703654 0.13107183
v -0.04508736 0.02940846 -0.10399517
v -0.04047936 0.02269246 0.13529583
v 0.06441664 -0.02709254 0.13112883
v -0.00700736 0.02881746 -0.13290517
v -0.13020736 0.02753846 -0.09029817
v -0.04956736 0.02880646 -0.13411117
v -0.08223036 -0.02242254 -0.13368017
v -0.07755836 -0.02885654 -0.02251217
v -0.13323836 -0.02078254 -0.13255017
v 0.04960964 -0.01922354 -0.13468017
v 0.13351364 -0.01551554 -0.13551117
v 0.02880964 0.02881546 -0.13258817
v 0.02106564 -0.02571454 0.13368983
v -0.09163836 0.02455046 0.13326583
v -0.06930236 0.02943746 -0.11780117
v -0.13547836 -0.01498454 -0.13309517
v -0.13547836 -0.01498454 -0.13309517
v 0.07371464 -0.02518354 -0.10905917
v -0.13530936 0.01611646 -0.03287917
v 0.11045064 0.02319346 0.13436283
v 0.13470664 0.02362146 0.11724883
v -0.10382136 -0.02111854 -0.13319017
v -0.13326136 0.02578646 -0.02806817
v 0.13413064 0.02396446 0.10466383
v 0.13617864 -0.02516954 0.12771083
v -0.13441336 -0.02283554 -0.13188917
v -0.13441336 -0.02283554 -0.13188917
v -0.13505336 0.01831746 -0.13286817
v -0.13505336 0.01831746 -0.13286817
v -0.07930936 0.02953846 -0.12007617
v -0.13172536 0.02139346 -0.13348217
v -0.06618936 0.02857146 -0.13429317
v 0.13637064 0.00745746 0.10875083
v 0.13404364 0.01901046 -0.13583317
v -0.05462836 0.02565046 -0.13355817
v -0.05200436 0.02332046 0.13533083
v -0.10506036 -0.02261254 -0.13174617
v 0.13161164 0.02807346 -0.13331617
v -0.13507636 0.02479546 -0.13273217
v 0.07401164 -0.00354354 0.13406783
v -0.08515636 -0.02268354 -0.13334117
v -0.07990836 -0.02107254 -0.13361617
v 0.00348364 0.02909546 -0.00206317
v -0.12223536 -0.02864654 0.11598583
v 0.02272464 0.02777246 -0.13381417
v 0.02272464 0.02777246 -0.13381417
v -0.02380336 0.02442946 0.13345883
v -0.13324336 0.02618046 -0.04044317
v -0.00082736 0.02957546 -0.06963617
v -0.04927536 -0.02554454 0.13429583
v -0.12460336 0.02297546 0.13598583
v -0.07673136 0.02770146 0.04167283
v 0.13453264 0.02243846 0.11104383
v -0.11186736 0.02441246 0.13359983
v -0.02732336 0.02276746 0.13525283
v 0.13399764 -0.02479254 -0.01973517
v 0.13399764 -0.02479254 -0.01973517
v 0.06916564 -0.02255754 -0.13555817
v -0.13525036 0.02737146 -0.13235617
v -0.13262636 0.02319546 0.11640783
v 0.09233364 -0.02898154 0.02413283
v -0.13499436 0.02759646 -0.12653117
v -0.13365036 0.02207346 0.13536483
v -0.13429036 0.02599346 -0.11269117
v 0.08657364 -0.02331354 -0.13380217
v -0.08904236 -0.02224954 -0.13235117
v 0.06302164 -0.02724554 -0.06855717
v -0.10862636 0.02264546 0.13582383
v -0.06465836 0.02924046 -0.11141617
v -0.08740136 0.02924746 -0.13180217
v -0.08010536 0.00015446 0.13535383
v -0.13373736 0.02803346 -0.13309517
v -0.13373736 0.02803346 -0.13309517
v -0.08189736 -0.01866354 -0.13370717
v -0.09629736 0.02905846 -0.11616017
v -0.13232936 -0.02232554 -0.13162217
v -0.13552936 -0.02209454 -0.13124117
v -0.12304936 -0.02631754 -0.06865717
v 0.08405464 -0.02185854 -0.13492717
v 0.13455064 0.02461446 -0.12245017
v 0.13653464 0.00799446 0.07931483
v -0.12362536 0.02387846 0.13454483
v -0.06329636 -0.02134854 -0.13388717
v 0.10841564 0.02786346 -0.13414517
v -0.02848036 0.02944646 -0.11666717
v -0.06905636 0.02305046 0.13521483
v -0.13523236 0.01147446 0.04774883
v -0.13523236 -0.02130554 -0.13208117
v -0.13523236 -0.02130554 -0.13208117
v -0.04083236 0.02739546 -0.13348217
v -0.04083236 0.02739546 -0.13348217
v -0.04716836 0.00181346 -0.13407017
v -0.05043236 0.02257746 0.13534983
v 0.13503964 0.01782246 -0.09327017
v 0.12063964 -0.00557054 0.13379583
v 0.08211164 -0.00346654 -0.13523317
v -0.13333536 0.02718246 -0.07851017
v -0.13397536 0.02781846 -0.11362017
v -0.04283936 0.02874946 -0.13281017
v -0.02440736 0.02905246 -0.13258417
v 0.12964064 -0.02293754 -0.13472417
v 0.03005664 0.02929146 -0.04998417
v -0.12917536 -0.02670754 -0.01121317
v 0.03728864 0.02751946 0.06087183
v 0.11204064 -0.02288054 -0.13464217
v 0.13501664 -0.02296754 -0.00074617
v 0.08394464 0.02832946 -0.13054417
v 0.06167264 0.02816346 -0.13528617
v 0.06628064 0.02800046 -0.13512417
v 0.13444064 -0.02641954 0.07516983
v 0.13444064 -0.02641954 0.07516983
v -0.04753436 -0.02268354 -0.13222917
v 0.13537764 -0.01647254 -0.05020817
v -0.13105436 0.00481046 0.13585383
v 0.06952164 0.02334746 0.13453783
v -0.13361436 -0.02167154 0.13417883
v 0.00468964 0.02323746 0.13486783
v -0.09611036 -0.02357454 -0.12361717
v 0.03762664 0.02476946 0.13261283
v 0.00953064 -0.02311954 -0.13266317
v -0.13389336 -0.02419954 -0.07876117
v -0.13389336 -0.02419954 -0.07876117
v 0.10668264 -0.02882954 0.07033783
v 0.07986664 0.02845346 -0.04729817
v 0.13695464 -0.00373654 0.05660183
v -0.09491736 0.02371246 0.13464083
v 0.13650664 -0.01235954 0.00832183
v -0.09741336 -0.02251854 -0.13194417
v -0.07772436 0.02908846 -0.13369917
v -0.12028436 0.02431346 0.13367883
v -0.13462036 0.02368846 -0.06892017
v -0.13263636 0.02411346 0.06689683
v 0.02275564 0.02471446 0.13273783
v -0.08207636 -0.02743854 0.13288183
v 0.13366764 0.02633846 -0.11131517
v 0.13238764 -0.02540454 -0.03898217
v -0.10351636 -0.02294554 -0.12773817
v -0.13167636 0.02418946 0.13399783
v -0.08182036 0.02927246 -0.11309417
v 0.13251564 -0.01622554 -0.13495417
v -0.07516436 0.02251246 0.13550383
v -0.13073936 -0.02603854 0.13463883
v -0.07435536 0.02929846 -0.11851217
v -0.10251536 -0.02267854 -0.13011617
v 0.13473264 -0.02305454 -0.03440517
v -0.04862736 -0.02216554 -0.13349117
v -0.02763536 -0.02879754 -0.02941717
v 0.09166064 -0.02333654 -0.13347817
v 0.12442864 -0.02740354 0.01334583
v -0.08459536 0.02891346 -0.13386017
v -0.13291536 -0.02563554 -0.01677017
v -0.13291536 -0.02563554 -0.01677017
vt 0.75465400 0.38492000
vt 0.42403500 0.49960000
vt 0.02854100 0.08741100
vt 0.91398100 0.16087600
vt 0.89114100 0.49576500
vt 0.42632000 0.47962400
vt 0.41248100 0.01045400
vt 0.42647900 0.27872400
vt 0.14949600 0.49887800
vt 0.34906500 0.05049900
vt 0.13239200 0.08926900
vt 0.68646100 0.16517800
vt 0.03481100 0.17022400
vt 0.16341300 0.54795800
vt 0.25538200 0.13310500
vt 0.74280000 0.43400100
vt 0.40622900 0.08873300
vt 0.03850000 0.09010200
vt 0.86466100 0.08943500
vt 0.91234000 0.49237600
vt 0.50267700 0.17607400
vt 0.01706300 0.50074600
vt 0.29983200 0.05031300
vt 0.89846300 0.14060800
vt 0.91454000 0.36138500
vt 0.05449400 0.18746200
vt 0.42529600 0.05385400
vt 0.45902200 0.08686900
vt 0.98934900 0.09189900
vt 0.03980000 0.19093300
vt 0.91696600 0.47227300
vt 0.42315100 0.55775300
vt 0.48474200 0.50197500
vt 0.94927700 0.49249300
vt 0.41577100 0.51983600
vt 0.03449200 0.57502400
vt 0.78413200 0.17903600
vt 0.42139900 0.36744800
vt 0.80554300 0.20060800
vt 0.91512300 0.49717200
vt 0.29291400 0.57486600
vt 0.61589200 0.10805800
vt 0.27435200 0.08882200
vt 0.96077100 0.49976900
vt 0.42642400 0.33658000
vt 0.05408300 0.17697100
vt 0.01315700 0.24282700
vt 0.42717200 0.49848100
vt 0.23896000 0.41820400
vt 0.66023300 0.12607500
vt 0.35365100 0.15144000
vt 0.50368200 0.49500500
vt 0.40624500 0.50118200
vt 0.42188600 0.27101200
vt 0.01438500 0.01822000
vt 0.91979400 0.08561200
vt 0.17568600 0.03631900
vt 0.01385200 0.09005100
vt 0.48033300 0.08957600
vt 0.02158700 0.09008900
vt 0.42687500 0.36997600
vt 0.01220300 0.03792800
vt 0.93955700 0.08581500
vt 0.03283700 0.15019700
vt 0.50000300 0.12815700
vt 0.42569300 0.28582800
vt 0.35068100 0.49949400
vt 0.12899700 0.28043800
vt 0.42248300 0.40275500
vt 0.91052500 0.10473800
vt 0.42686300 0.47511200
vt 0.42299500 0.45817100
vt 0.42306700 0.36870200
vt 0.42251500 0.16944400
vt 0.01377400 0.50286500
vt 0.42632800 0.43939000
vt 0.64075500 0.09067700
vt 0.42504900 0.03485500
vt 0.47819500 0.08670300
vt 0.84672100 0.37007800
vt 0.87570400 0.10655300
vt 0.01289200 0.55178500
vt 0.94094000 0.50100700
vt 0.96997700 0.37530400
vt 0.83170700 0.46511400
vt 0.03249200 0.08968300
vt 0.06109200 0.08941200
vt 0.91636700 0.28457600
vt 0.85295100 0.08626600
vt 0.07421900 0.01041300
vt 0.42663100 0.49684800
vt 0.42648300 0.39385600
vt 0.42099600 0.19976500
vt 0.42283700 0.02102100
vt 0.01567200 0.01822700
vt 0.33904600 0.02313000
vt 0.16878100 0.09000600
vt 0.91434500 0.12456200
vt 0.89735700 0.08733600
vt 0.03001700 0.00925300
vt 0.21627400 0.08884800
vt 0.01290300 0.43251300
vt 0.84521800 0.14482200
vt 0.25035800 0.05551000
vt 0.08672500 0.06991700
vt 0.12240000 0.49864300
vt 0.04454200 0.13906900
vt 0.42680200 0.43761600
vt 0.93165100 0.49920300
vt 0.87887400 0.13512800
vt 0.91332100 0.12962200
vt 0.11780400 0.44746600
vt 0.91657900 0.13979800
vt 0.87779800 0.09425000
vt 0.04199200 0.54919600
vt 0.13603800 0.18171100
vt 0.33296800 0.55971200
vt 0.28014000 0.50698400
vt 0.11828300 0.49982700
vt 0.01396300 0.10607800
vt 0.12732000 0.53632400
vt 0.01338800 0.36557900
vt 0.42249100 0.43152800
vt 0.26258900 0.49876200
vt 0.09048900 0.53323800
vt 0.24486400 0.08886300
vt 0.96656000 0.50079400
vt 0.45879900 0.11678600
vt 0.05594700 0.19682900
vt 0.42684300 0.45320500
vt 0.01356200 0.02452000
vt 0.17421300 0.11813400
vt 0.00824200 0.16843600
vt 0.98972200 0.16602600
vt 0.00864600 0.20973400
vt 0.99040400 0.20739300
vt 0.98543800 0.16506700
vt 0.38342500 0.54408400
vt 0.19970700 0.49920700
vt 0.01077300 0.15070200
vt 0.99057300 0.14816200
vt 0.30388700 0.11968200
vt 0.01481400 0.24222900
vt 0.41236500 0.01600900
vt 0.01068100 0.21622900
vt 0.02666500 0.50058500
vt 0.34580900 0.28782500
vt 0.91544100 0.42094800
vt 0.42584700 0.12052000
vt 0.42207200 0.22914900
vt 0.42674000 0.40743400
vt 0.33877600 0.08874800
vt 0.42202000 0.24458600
vt 0.55930100 0.29785600
vt 0.01389000 0.43134600
vt 0.89113500 0.48604400
vt 0.50084600 0.16270300
vt 0.01192800 0.39342300
vt 0.91350800 0.13526400
vt 0.01222700 0.49473500
vt 0.99180900 0.49330200
vt 0.81773800 0.12353500
vt 0.38813500 0.51078000
vt 0.42592900 0.34184800
vt 0.42542800 0.12753500
vt 0.01130400 0.36761200
vt 0.99177200 0.36548500
vt 0.03880000 0.18542100
vt 0.74429300 0.39243000
vt 0.01112200 0.42129600
vt 0.65245000 0.49686100
vt 0.96981500 0.37594500
vt 0.00991100 0.41438300
vt 0.97276400 0.49956000
vt 0.90571000 0.13103600
vt 0.90608400 0.12808200
vt 0.24331500 0.52734900
vt 0.03088000 0.48209400
vt 0.31441600 0.08878700
vt 0.01144600 0.50405700
vt 0.98893800 0.49977800
vt 0.95584600 0.13702300
vt 0.01248400 0.50050500
vt 0.99200300 0.49874000
vt 0.01244200 0.15958800
vt 0.18850400 0.49931700
vt 0.48929100 0.50110700
vt 0.32129800 0.00837100
vt 0.60537700 0.08857400
vt 0.04714700 0.18068300
vt 0.01462800 0.22435500
vt 0.92181900 0.49891100
vt 0.85759500 0.11470000
vt 0.42623000 0.37392100
vt 0.01062100 0.37558000
vt 0.04310400 0.15289900
vt 0.87669400 0.34462200
vt 0.45226200 0.49773500
vt 0.52272500 0.08886300
vt 0.40389300 0.00799700
vt 0.01162200 0.37394400
vt 0.89309900 0.14063800
vt 0.42202200 0.29294200
vt 0.34705700 0.50108800
vt 0.09240600 0.49934300
vt 0.42543400 0.09809800
vt 0.63533400 0.15959700
vt 0.01252200 0.22258600
vt 0.42599400 0.27340200
vt 0.89745600 0.12540500
vt 0.91442600 0.38527800
vt 0.42524300 0.08969200
vt 0.58386200 0.11849600
vt 0.01032900 0.16235100
vt 0.99055500 0.16011500
vt 0.06855000 0.08314800
vt 0.09054200 0.50406600
vt 0.80644600 0.24588000
vt 0.03170000 0.19374900
vt 0.04133700 0.03383200
vt 0.94502600 0.49975500
vt 0.91455800 0.42073300
vt 0.13041300 0.49915900
vt 0.94808800 0.29498100
vt 0.03577600 0.14991200
vt 0.01508300 0.57899800
vt 0.91330100 0.49878900
vt 0.20281900 0.08388300
vt 0.83200400 0.50170700
vt 0.09606600 0.57584900
vt 0.34103400 0.49912400
vt 0.59247100 0.38342300
vt 0.38987200 0.08853600
vt 0.48210500 0.50129500
vt 0.31517900 0.39870700
vt 0.39216100 0.48396400
vt 0.42410500 0.50147800
vt 0.42658400 0.50095300
vt 0.87146300 0.10181500
vt 0.42479700 0.01009400
vt 0.50295900 0.08750200
vt 0.37773900 0.08834800
vt 0.42605100 0.20825900
vt 0.01182000 0.05755800
vt 0.95926500 0.08597200
vt 0.91195400 0.10159400
vt 0.85004700 0.11728100
vt 0.91418100 0.11580900
vt 0.21445700 0.49925200
vt 0.01137900 0.37141700
vt 0.42693300 0.40296000
vt 0.42365900 0.05361900
vt 0.11195100 0.08957200
vt 0.25172800 0.33323000
vt 0.14861800 0.47619000
vt 0.44744600 0.08567800
vt 0.42413800 0.06532400
vt 0.21245300 0.26922000
vt 0.50510300 0.47247000
vt 0.91042100 0.13868600
vt 0.95643200 0.08783700
vt 0.42731500 0.26857300
vt 0.85937500 0.49487600
vt 0.42169300 0.08933100
vt 0.08669800 0.14073600
vt 0.91527300 0.37267500
vt 0.40783400 0.50448100
vt 0.41015700 0.49968200
vt 0.91609600 0.21841600
vt 0.91186100 0.47114400
vt 0.00939200 0.40159900
vt 0.99144200 0.39937300
vt 0.86454000 0.09864600
vt 0.41311800 0.45958500
vt 0.03158700 0.08277400
vt 0.75974800 0.34397800
vt 0.84210200 0.10682400
vt 0.42404700 0.57786900
vt 0.50404500 0.49911100
vt 0.42662700 0.29400500
vt 0.03657600 0.19079400
vt 0.01822500 0.27254200
vt 0.93941600 0.10967100
vt 0.01297900 0.07441300
vt 0.78884600 0.31973000
vt 0.39566400 0.02105600
vt 0.77829700 0.47504700
vt 0.32850500 0.49900700
vt 0.38011300 0.08203100
vt 0.09256200 0.55096800
vt 0.43359800 0.49789700
vt 0.42691800 0.41586500
vt 0.84500600 0.20322000
vt 0.91230300 0.36409100
vt 0.42643000 0.10357800
vt 0.91665500 0.12551800
vt 0.02395800 0.17648200
vt 0.24728500 0.08331900
vt 0.40901700 0.08127400
vt 0.98458000 0.49951700
vt 0.47488800 0.49747100
vt 0.42844900 0.20886200
vt 0.01180200 0.21382900
vt 0.98105700 0.08555800
vt 0.01205200 0.07921600
vt 0.58568100 0.48428100
vt 0.42332100 0.52941100
vt 0.45608600 0.50168300
vt 0.32079000 0.08925800
vt 0.03113500 0.18281100
vt 0.00804600 0.18916100
vt 0.98996900 0.18677700
vt 0.91852900 0.09184100
vt 0.14231100 0.49918600
vt 0.29315200 0.08903900
vt 0.42658400 0.47142800
vt 0.04202600 0.10360900
vt 0.22971100 0.54126100
vt 0.82558300 0.09055400
vt 0.91394800 0.19090700
vt 0.90386900 0.14490400
vt 0.87879900 0.50016400
vt 0.04938300 0.57754000
vt 0.01317200 0.04758200
vt 0.50318600 0.09156000
vt 0.50544800 0.26492700
vt 0.91198300 0.14773900
vt 0.24133500 0.46647300
vt 0.09483800 0.46174600
vt 0.90788900 0.13269500
vt 0.50241200 0.11706800
vt 0.42624200 0.11605300
vt 0.24593300 0.49904100
vt 0.91699000 0.39780600
vt 0.42655000 0.14333200
vt 0.90310100 0.13230300
vt 0.82472700 0.49886400
vt 0.95025400 0.09097500
vt 0.38105800 0.24679100
vt 0.90548600 0.13983100
vt 0.01054700 0.43638800
vt 0.99041500 0.43448300
vt 0.42321700 0.03399800
vt 0.91414800 0.14218600
vt 0.42651900 0.43296800
vt 0.70395400 0.10762900
vt 0.01382000 0.35625200
vt 0.78571800 0.09016800
vt 0.91404700 0.29655400
vt 0.03078800 0.17237600
vt 0.93143500 0.49770000
vt 0.37403200 0.57506000
vt 0.02696200 0.16043800
vt 0.06799300 0.47822800
vt 0.32331300 0.44900000
vt 0.78367200 0.40288900
vt 0.42280000 0.47695500
vt 0.91141400 0.13721600
vt 0.89733600 0.15109800
vt 0.42646100 0.37079400
vt 0.91742500 0.34886700
vt 0.29504600 0.49910200
vt 0.19394900 0.50382400
vt 0.22947600 0.50362300
vt 0.66484300 0.35650700
vt 0.01333700 0.02927300
vt 0.90852700 0.09310900
vt 0.01171800 0.09025500
vt 0.99132600 0.08746900
vt 0.57063800 0.13774500
vt 0.91455400 0.16424300
vt 0.60866300 0.30416300
vt 0.03643000 0.01494600
vt 0.42636800 0.49287500
vt 0.58425200 0.49656100
vt 0.97902400 0.43067400
vt 0.48905400 0.16621000
vt 0.91521400 0.38414000
vt 0.91375400 0.21599000
vt 0.42663400 0.48672700
vt 0.48671400 0.49938300
vt 0.04080300 0.46161800
vt 0.04151900 0.18086900
vt 0.96057200 0.47744300
vt 0.33733200 0.07603900
vt 0.91287400 0.44937300
vt 0.21272600 0.01080400
vt 0.91555900 0.41446000
vt 0.89913200 0.11557100
vt 0.93248200 0.50021100
vt 0.42665800 0.35539300
vt 0.01353800 0.08603500
vt 0.42750500 0.34748900
vt 0.17564800 0.05653400
vt 0.91478600 0.14751200
vt 0.02478100 0.01128600
vt 0.50313400 0.37661200
vt 0.05003100 0.49956100
vt 0.29566700 0.08308700
vt 0.42558700 0.10918100
vt 0.33232500 0.06228700
vt 0.50040300 0.50060100
vt 0.42415400 0.57334000
vt 0.91458400 0.22288800
vt 0.91734600 0.43034700
vt 0.50094800 0.40697300
vt 0.99042000 0.11568800
vt 0.42675500 0.10370400
vt 0.96988400 0.49798500
vt 0.06222600 0.36843400
vt 0.73873500 0.29987100
vt 0.91161300 0.12779300
vt 0.89276900 0.10651100
vt 0.37918300 0.06291100
vt 0.38559900 0.49963900
vt 0.42639200 0.25599300
vt 0.37980800 0.46127300
vt 0.40173200 0.49852500
vt 0.39580200 0.13090100
vt 0.48827500 0.09598700
vt 0.48848700 0.08667100
vt 0.42468300 0.02467100
vt 0.36627900 0.49918700
vt 0.82295900 0.49691600
vt 0.06923200 0.56302900
vt 0.97636700 0.50095600
vt 0.01202700 0.51655800
vt 0.91488800 0.42799500
vt 0.91471200 0.41002300
vt 0.02459800 0.15110300
vt 0.30339500 0.22914800
vt 0.12806500 0.04521900
vt 0.01123900 0.19388400
vt 0.28373900 0.08676100
vt 0.42639000 0.15817000
vt 0.93193100 0.08754200
vt 0.72062200 0.23966800
vt 0.42724900 0.18751000
vt 0.98806100 0.49734400
vt 0.42281200 0.49733000
vt 0.42137300 0.00931200
vt 0.50531800 0.08758200
vt 0.91455400 0.17678100
vt 0.05465100 0.16088500
vt 0.86006700 0.49789500
vt 0.41244700 0.57635200
vt 0.01003700 0.16679700
vt 0.02627700 0.18668100
vt 0.42303200 0.21948200
vt 0.16125900 0.01783200
vt 0.30593300 0.08660700
vt 0.03081400 0.49883600
vt 0.40685900 0.49889400
vt 0.01519700 0.57446800
vt 0.91804100 0.50012100
vt 0.42338600 0.02962900
vt 0.70441100 0.24583300
vt 0.42599900 0.19486200
vt 0.91108000 0.12341700
vt 0.14870200 0.51674300
vt 0.50184100 0.49675700
vt 0.40679600 0.08723300
vt 0.41690300 0.08609900
vt 0.47108700 0.50173000
vt 0.42324600 0.54424200
vt 0.42344300 0.04490400
vt 0.40759000 0.10221600
vt 0.91088200 0.15963500
vt 0.30807500 0.01054500
vt 0.89301700 0.27719800
vt 0.11206700 0.23791900
vt 0.40775300 0.08432600
vt 0.50517300 0.20785500
vt 0.58239600 0.19118800
vt 0.53556700 0.13149400
vt 0.16458100 0.13702200
vt 0.00961800 0.22095200
vt 0.99028100 0.21834900
vt 0.03796300 0.15500700
vt 0.90947000 0.13061700
vt 0.09124000 0.03810900
vt 0.03142100 0.50102700
vt 0.28160800 0.51986200
vt 0.14809400 0.01153200
vt 0.03278600 0.14349000
vt 0.42250500 0.20157100
vt 0.91407300 0.36600000
vt 0.91513300 0.36911500
vt 0.01586200 0.36643200
vt 0.00799700 0.42417500
vt 0.98919500 0.42183100
vt 0.55645500 0.43947400
vt 0.42658500 0.38328700
vt 0.81294800 0.15112500
vt 0.32687300 0.08358700
vt 0.22956900 0.49897900
vt 0.85851900 0.27643500
vt 0.19338200 0.50009600
vt 0.19511200 0.15939300
vt 0.42671900 0.32997000
vt 0.42345900 0.57442600
vt 0.95394200 0.50095700
vt 0.01281600 0.53887200
vt 0.89975400 0.12684000
vt 0.98991400 0.33156800
vt 0.08325600 0.01275500
vt 0.01235300 0.12497200
vt 0.99198400 0.12224400
vt 0.41082200 0.08642400
vt 0.91312300 0.49645300
vt 0.65570600 0.47300600
vt 0.94923300 0.35640300
vt 0.01207400 0.41880800
vt 0.16689600 0.41748800
vt 0.38005300 0.11237000
vt 0.87633800 0.08646100
vt 0.05094700 0.01010600
vt 0.17211900 0.38026500
vt 0.42562300 0.24313600
vt 0.42620400 0.26633200
vt 0.03631300 0.06692100
vt 0.90825700 0.14771700
vt 0.17823400 0.49929000
vt 0.38668300 0.01022800
vt 0.42351800 0.21238900
vt 0.09008900 0.11353400
vt 0.88198300 0.46484500
vt 0.00917500 0.38528800
vt 0.01101900 0.27486400
vt 0.99050100 0.27263800
vt 0.91468000 0.42408900
vt 0.42293700 0.30456500
vt 0.91584500 0.16288500
vt 0.76635300 0.13177500
vt 0.41148700 0.08809000
vt 0.14299300 0.27336100
vt 0.04471900 0.18572100
vt 0.90553300 0.49731900
vt 0.50287100 0.24648000
vt 0.26380700 0.49958000
vt 0.91260100 0.15146800
vt 0.40653200 0.08934700
vt 0.91459000 0.36919800
vt 0.91445500 0.21490600
vt 0.36928800 0.08838800
vt 0.91697900 0.37528700
vt 0.42460400 0.07971600
vt 0.43281100 0.08616700
vt 0.35553400 0.49864600
vt 0.49402200 0.50149400
vt 0.42356900 0.56693500
vt 0.50304200 0.47010100
vt 0.87735900 0.18224200
vt 0.30872800 0.08868800
vt 0.07551800 0.02674700
vt 0.09711900 0.05484700
vt 0.42689100 0.09039500
vt 0.88734500 0.49801700
vt 0.91700700 0.41633200
vt 0.20866000 0.19997700
vt 0.42352400 0.01153800
vt 0.01121600 0.35905900
vt 0.99106600 0.35680200
vt 0.26561700 0.08841200
vt 0.50090900 0.43612400
vt 0.89780400 0.09006000
vt 0.42655900 0.31367000
vt 0.94490100 0.49781600
vt 0.50473800 0.13516700
vt 0.40772400 0.56681200
vt 0.01572000 0.47673300
vt 0.01160100 0.42679500
vt 0.83843700 0.32413900
vt 0.16627500 0.49925700
vt 0.00876700 0.37654200
vt 0.99135000 0.37437700
vt 0.35386900 0.08299400
vt 0.03202600 0.14832600
vt 0.91466800 0.19904200
vt 0.92466400 0.50119700
vt 0.01450300 0.56792800
vt 0.30004500 0.03726500
vt 0.65609900 0.23522700
vt 0.02797300 0.50217200
vt 0.21188000 0.51576700
vt 0.91424100 0.10512300
vt 0.39779900 0.03429800
vt 0.42687400 0.42830800
vt 0.04246300 0.19933600
vt 0.01151400 0.46216100
vt 0.99134000 0.46044200
vt 0.36017300 0.08853400
vt 0.91836000 0.49293400
vt 0.91568100 0.36648100
vt 0.72092300 0.35322100
vt 0.02659900 0.17477500
vt 0.01118500 0.40937200
vt 0.92273200 0.08759400
vt 0.91531600 0.15632900
vt 0.01099300 0.38237200
vt 0.15717300 0.50398600
vt 0.21001400 0.02335300
vt 0.44041900 0.50143900
vt 0.42362100 0.51408000
vt 0.42669700 0.44454600
vt 0.73869300 0.45982100
vt 0.41223500 0.49833300
vt 0.92628300 0.50050200
vt 0.42339200 0.57679500
vt 0.03484100 0.15754600
vt 0.01236600 0.06447600
vt 0.96619000 0.08517300
vt 0.38544500 0.42658200
vt 0.39179000 0.08606900
vt 0.42762400 0.48631200
vt 0.41097300 0.57923400
vt 0.51669100 0.49750100
vt 0.38208000 0.35830900
vt 0.70826000 0.49685900
vt 0.17588600 0.53018300
vt 0.08349600 0.08928200
vt 0.84770000 0.43896200
vt 0.24160100 0.11662600
vt 0.15154300 0.08333500
vt 0.55434100 0.09297900
vt 0.46349700 0.26619300
vt 0.19516500 0.08885900
vt 0.50535700 0.49592700
vt 0.05762500 0.22571300
vt 0.42653400 0.22954300
vt 0.50579200 0.39031400
vt 0.01368100 0.28458400
vt 0.07727900 0.09464500
vt 0.01138000 0.21921000
vt 0.91376100 0.16757300
vt 0.74319600 0.17353000
vt 0.91494500 0.08904000
vt 0.92044900 0.36993700
vt 0.92613900 0.49884700
vt 0.01465400 0.33957800
vt 0.50139100 0.32368700
vt 0.42156500 0.15102100
vt 0.03606500 0.18869600
vt 0.92391300 0.08535000
vt 0.01269600 0.02227400
vt 0.87467300 0.40677900
vt 0.16589400 0.07345900
vt 0.42695900 0.46126100
vt 0.40036100 0.49950100
vt 0.91488800 0.13434700
vt 0.17302200 0.08882700
vt 0.38084400 0.49873200
vt 0.41716600 0.57451800
vt 0.01505400 0.00938700
vt 0.91205700 0.08706500
vt 0.97509600 0.08554800
vt 0.01192400 0.07329900
vt 0.03241000 0.17342500
vt 0.97988500 0.09068700
vt 0.01024300 0.19384800
vt 0.38738400 0.52477500
vt 0.97921300 0.49979000
vt 0.98754300 0.20927400
vt 0.42565600 0.21182500
vt 0.91183100 0.13242500
vt 0.01465900 0.49700100
vt 0.01224000 0.08329800
vt 0.46779700 0.40520700
vt 0.91340600 0.16313500
vt 0.91607200 0.17104300
vt 0.21483100 0.29889300
vt 0.53078900 0.10360400
vt 0.01208200 0.33026300
vt 0.99174700 0.32791000
vt 0.42280400 0.25518500
vt 0.15397200 0.08909400
vt 0.11099500 0.29319500
vt 0.50062100 0.21561100
vt 0.42550500 0.10066100
vt 0.28093800 0.17499600
vt 0.39075400 0.50135300
vt 0.42169300 0.12007100
vt 0.42654400 0.24974700
vt 0.19076700 0.57803400
vt 0.73712000 0.49923100
vt 0.91549800 0.39992000
vt 0.01286200 0.08715800
vt 0.39541700 0.08801600
vt 0.66999600 0.43414300
vt 0.02153500 0.08773300
vt 0.42528900 0.08629000
vt 0.04281800 0.08626500
vt 0.91300200 0.42654500
vt 0.91277100 0.15712100
vt 0.81267000 0.38995900
vt 0.42615100 0.12497000
vt 0.04596200 0.19576900
vt 0.01413100 0.16124200
vt 0.46084100 0.16848500
vt 0.01066000 0.08896900
vt 0.99015300 0.08747800
vt 0.91963100 0.16790300
vt 0.03808700 0.14729600
vt 0.91210200 0.09035900
vt 0.01605400 0.01144300
vt 0.81467500 0.10397500
vt 0.91656000 0.42269600
vt 0.03151700 0.50455000
vt 0.34214300 0.52466800
vt 0.42313500 0.10222700
vt 0.91594200 0.19642300
vt 0.01318300 0.46170200
vt 0.03838000 0.25140300
vt 0.42562300 0.18567300
vt 0.28997300 0.06820700
vt 0.01458600 0.01245100
vt 0.91424300 0.08588000
vt 0.01107200 0.23268300
vt 0.99035300 0.23046700
vt 0.95099400 0.22104200
vt 0.42663500 0.21426500
vt 0.07662800 0.51411000
vt 0.47126200 0.47681000
vt 0.94473800 0.41970400
vt 0.09537700 0.08953600
vt 0.04132500 0.08913200
vt 0.01326300 0.22953400
vt 0.01405900 0.25787300
vt 0.91458700 0.49272000
vt 0.14158900 0.34038300
vt 0.72638900 0.09396500
vt 0.31198400 0.35004700
vt 0.91448100 0.46568400
vt 0.21988900 0.57447000
vt 0.01859900 0.42421700
vt 0.01097000 0.39004800
vt 0.01093600 0.39717000
vt 0.59120600 0.49875400
vt 0.33654100 0.57822400
vt 0.91161600 0.22056200
vt 0.14376300 0.56565600
vt 0.45311600 0.09026100
vt 0.42638500 0.39851500
vt 0.42358400 0.01922900
vt 0.42598500 0.29892300
vt 0.89914000 0.14602400
vt 0.42226200 0.34956400
vt 0.91210200 0.30839300
vt 0.83042300 0.08701500
vt 0.09662300 0.00964900
vt 0.59886600 0.45578500
vt 0.14635700 0.41689700
vt 0.30751700 0.54331600
vt 0.42398500 0.14597200
vt 0.23356800 0.55780800
vt 0.91213400 0.14424000
vt 0.01150000 0.17617900
vt 0.42169100 0.10725000
vt 0.11022200 0.08402800
vt 0.31911800 0.08853500
vt 0.42224600 0.32671200
vt 0.50446100 0.16520200
vt 0.04860600 0.50122800
vt 0.76673100 0.49655400
vt 0.90569500 0.13476500
vt 0.42218000 0.09032900
vt 0.04309100 0.16944000
vt 0.92497700 0.49711700
vt 0.42649600 0.17627400
vt 0.50073600 0.09035800
vt 0.03488900 0.18099500
vt 0.90939200 0.13633500
vt 0.16820100 0.57541700
vt 0.91369000 0.21882900
vt 0.75334700 0.25031900
vt 0.91268000 0.43438900
vt 0.68630300 0.48358800
vt 0.01115900 0.16566200
vt 0.19180900 0.00880300
vt 0.73498900 0.08806600
f 633/633 317/317 87/87
f 621/621 633/633 87/87
f 725/725 633/633 621/621
f 621/621 87/87 216/216
f 216/216 725/725 621/621
f 725/725 526/526 633/633
f 759/759 725/725 216/216
f 216/216 105/105 647/647
f 105/105 556/556 647/647
f 305/305 284/284 667/667
f 305/305 657/657 284/284
f 656/656 304/304 659/659
f 611/611 284/284 657/657
f 261/261 656/656 659/659
f 612/612 656/656 261/261
f 659/659 338/338 261/261
f 245/245 612/612 261/261
f 611/611 244/244 324/324
f 261/261 63/63 245/245
f 62/62 324/324 244/244
f 338/338 659/659 283/283
f 324/324 62/62 366/366
f 313/313 436/436 338/338
f 261/261 338/338 436/436
f 63/63 261/261 436/436
f 366/366 220/220 324/324
f 283/283 313/313 338/338
f 113/113 296/296 283/283
f 687/687 368/368 700/700
f 58/58 368/368 687/687
f 700/700 667/667 687/687
f 687/687 690/690 58/58
f 392/392 690/690 687/687
f 60/60 58/58 690/690
f 392/392 687/687 284/284
f 687/687 667/667 284/284
f 690/690 392/392 3/3
f 3/3 392/392 284/284
f 58/58 507/507 368/368
f 508/508 29/29 369/369
f 369/369 29/29 701/701
f 700/700 305/305 667/667
f 701/701 29/29 659/659
f 120/120 58/58 60/60
f 659/659 304/304 701/701
f 60/60 86/86 120/120
f 690/690 3/3 60/60
f 275/275 3/3 284/284
f 3/3 275/275 86/86
f 60/60 3/3 86/86
f 507/507 58/58 120/120
f 407/407 29/29 508/508
f 407/407 659/659 29/29
f 18/18 86/86 726/726
f 726/726 86/86 692/692
f 692/692 86/86 275/275
f 692/692 275/275 216/216
f 18/18 120/120 86/86
f 18/18 317/317 120/120
f 87/87 18/18 726/726
f 87/87 317/317 18/18
f 726/726 692/692 87/87
f 284/284 611/611 521/521
f 521/521 611/611 324/324
f 275/275 284/284 521/521
f 220/220 521/521 324/324
f 283/283 659/659 182/182
f 521/521 216/216 275/275
f 87/87 692/692 216/216
f 105/105 216/216 521/521
f 220/220 556/556 521/521
f 105/105 521/521 556/556
f 407/407 508/508 141/141
f 407/407 141/141 182/182
f 182/182 659/659 407/407
f 137/137 182/182 141/141
f 107/107 485/485 120/120
f 430/430 120/120 485/485
f 578/578 430/430 485/485
f 430/430 578/578 64/64
f 64/64 578/578 485/485
f 317/317 107/107 120/120
f 698/698 185/185 507/507
f 120/120 698/698 507/507
f 430/430 698/698 120/120
f 185/185 140/140 507/507
f 185/185 214/214 140/140
f 698/698 778/778 185/185
f 778/778 214/214 185/185
f 447/447 214/214 778/778
f 133/133 214/214 447/447
f 215/215 134/134 137/137
f 353/353 757/757 698/698
f 757/757 778/778 698/698
f 215/215 137/137 141/141
f 353/353 430/430 64/64
f 64/64 610/610 353/353
f 596/596 297/297 353/353
f 353/353 698/698 430/430
f 350/350 596/596 353/353
f 317/317 633/633 526/526
f 265/265 107/107 317/317
f 265/265 317/317 526/526
f 703/703 485/485 107/107
f 703/703 107/107 196/196
f 703/703 64/64 485/485
f 225/225 64/64 703/703
f 64/64 225/225 610/610
f 479/479 610/610 225/225
f 479/479 703/703 196/196
f 703/703 479/479 225/225
f 107/107 444/444 196/196
f 767/767 610/610 479/479
f 196/196 767/767 479/479
f 350/350 353/353 610/610
f 610/610 13/13 350/350
f 767/767 13/13 610/610
f 350/350 13/13 658/658
f 771/771 658/658 13/13
f 767/767 196/196 444/444
f 771/771 13/13 767/767
f 46/46 190/190 767/767
f 46/46 767/767 444/444
f 265/265 444/444 107/107
f 46/46 444/444 129/129
f 135/135 311/311 660/660
f 303/303 660/660 433/433
f 303/303 634/634 145/145
f 145/145 660/660 303/303
f 135/135 660/660 145/145
f 145/145 477/477 135/135
f 136/136 478/478 663/663
f 145/145 634/634 477/477
f 191/191 634/634 303/303
f 634/634 208/208 477/477
f 191/191 208/208 634/634
f 208/208 191/191 727/727
f 713/713 191/191 303/303
f 477/477 208/208 718/718
f 718/718 208/208 727/727
f 143/143 727/727 191/191
f 143/143 191/191 713/713
f 718/718 727/727 47/47
f 718/718 47/47 529/529
f 47/47 727/727 143/143
f 728/728 47/47 143/143
f 728/728 529/529 47/47
f 713/713 728/728 143/143
f 728/728 713/713 282/282
f 660/660 447/447 778/778
f 757/757 660/660 778/778
f 447/447 660/660 133/133
f 311/311 133/133 660/660
f 134/134 312/312 137/137
f 182/182 137/137 312/312
f 433/433 660/660 757/757
f 297/297 757/757 353/353
f 297/297 433/433 757/757
f 448/448 433/433 297/297
f 182/182 312/312 720/720
f 303/303 433/433 448/448
f 663/663 720/720 312/312
f 663/663 312/312 136/136
f 182/182 113/113 283/283
f 702/702 113/113 182/182
f 599/599 395/395 113/113
f 541/541 395/395 599/599
f 113/113 702/702 599/599
f 599/599 694/694 541/541
f 468/468 541/541 694/694
f 533/533 599/599 702/702
f 599/599 533/533 4/4
f 4/4 694/694 599/599
f 4/4 468/468 694/694
f 468/468 4/4 669/669
f 711/711 702/702 182/182
f 182/182 720/720 711/711
f 533/533 702/702 670/670
f 371/371 4/4 533/533
f 669/669 371/371 635/635
f 669/669 4/4 371/371
f 635/635 371/371 443/443
f 371/371 533/533 670/670
f 670/670 443/443 371/371
f 669/669 635/635 468/468
f 320/320 635/635 443/443
f 553/553 635/635 320/320
f 670/670 702/702 711/711
f 443/443 670/670 711/711
f 720/720 663/663 478/478
f 579/579 443/443 711/711
f 443/443 579/579 320/320
f 269/269 711/711 720/720
f 711/711 269/269 579/579
f 320/320 579/579 544/544
f 269/269 544/544 579/579
f 320/320 544/544 379/379
f 320/320 379/379 740/740
f 774/774 544/544 269/269
f 774/774 379/379 544/544
f 774/774 740/740 379/379
f 404/404 774/774 269/269
f 740/740 774/774 404/404
f 404/404 748/748 740/740
f 470/470 320/320 740/740
f 470/470 740/740 748/748
f 448/448 297/297 596/596
f 448/448 596/596 350/350
f 310/310 448/448 350/350
f 771/771 310/310 350/350
f 771/771 350/350 658/658
f 383/383 771/771 767/767
f 771/771 383/383 168/168
f 767/767 190/190 383/383
f 537/537 168/168 383/383
f 643/643 310/310 771/771
f 643/643 448/448 310/310
f 168/168 643/643 771/771
f 281/281 219/219 643/643
f 30/30 281/281 643/643
f 643/643 219/219 448/448
f 643/643 168/168 30/30
f 537/537 30/30 168/168
f 219/219 30/30 589/589
f 30/30 219/219 281/281
f 697/697 30/30 537/537
f 219/219 303/303 448/448
f 219/219 713/713 303/303
f 713/713 219/219 589/589
f 383/383 190/190 537/537
f 26/26 537/537 190/190
f 26/26 190/190 46/46
f 697/697 589/589 30/30
f 697/697 537/537 26/26
f 129/129 26/26 46/46
f 26/26 129/129 697/697
f 697/697 129/129 589/589
f 629/629 589/589 129/129
f 713/713 589/589 629/629
f 719/719 720/720 478/478
f 719/719 530/530 720/720
f 320/320 470/470 553/553
f 293/293 553/553 470/470
f 526/526 725/725 253/253
f 253/253 725/725 759/759
f 647/647 759/759 216/216
f 11/11 253/253 759/759
f 11/11 526/526 253/253
f 132/132 526/526 11/11
f 624/624 759/759 647/647
f 759/759 624/624 11/11
f 11/11 624/624 676/676
f 624/624 651/651 676/676
f 651/651 97/97 676/676
f 11/11 676/676 132/132
f 97/97 651/651 627/627
f 132/132 676/676 97/97
f 132/132 97/97 627/627
f 623/623 15/15 132/132
f 526/526 476/476 265/265
f 476/476 526/526 132/132
f 116/116 444/444 265/265
f 116/116 471/471 444/444
f 116/116 265/265 476/476
f 471/471 129/129 444/444
f 471/471 629/629 129/129
f 471/471 713/713 629/629
f 68/68 713/713 471/471
f 15/15 476/476 132/132
f 499/499 116/116 476/476
f 499/499 476/476 15/15
f 499/499 560/560 116/116
f 680/680 499/499 15/15
f 560/560 499/499 680/680
f 471/471 116/116 560/560
f 536/536 68/68 471/471
f 258/258 471/471 560/560
f 536/536 471/471 258/258
f 68/68 536/536 258/258
f 258/258 560/560 431/431
f 131/131 366/366 62/62
f 131/131 62/62 645/645
f 63/63 436/436 644/644
f 131/131 95/95 366/366
f 131/131 645/645 95/95
f 55/55 95/95 645/645
f 598/598 644/644 436/436
f 644/644 598/598 56/56
f 95/95 55/55 716/716
f 95/95 716/716 705/705
f 373/373 95/95 705/705
f 436/436 313/313 598/598
f 637/637 56/56 598/598
f 637/637 598/598 313/313
f 655/655 717/717 637/637
f 654/654 705/705 716/716
f 637/637 717/717 56/56
f 704/704 655/655 637/637
f 367/367 655/655 704/704
f 100/100 396/396 705/705
f 100/100 705/705 654/654
f 566/566 655/655 367/367
f 99/99 655/655 566/566
f 637/637 246/246 704/704
f 586/586 637/637 313/313
f 586/586 246/246 637/637
f 367/367 704/704 246/246
f 220/220 366/366 95/95
f 555/555 95/95 373/373
f 396/396 373/373 705/705
f 555/555 220/220 95/95
f 367/367 246/246 70/70
f 566/566 367/367 413/413
f 373/373 396/396 517/517
f 517/517 396/396 100/100
f 413/413 367/367 70/70
f 283/283 296/296 313/313
f 313/313 296/296 586/586
f 248/248 246/246 586/586
f 586/586 296/296 248/248
f 248/248 459/459 246/246
f 70/70 246/246 459/459
f 389/389 413/413 70/70
f 389/389 70/70 459/459
f 296/296 98/98 248/248
f 459/459 248/248 98/98
f 111/111 98/98 296/296
f 459/459 98/98 412/412
f 111/111 412/412 98/98
f 176/176 459/459 412/412
f 296/296 650/650 111/111
f 296/296 113/113 650/650
f 665/665 111/111 650/650
f 650/650 159/159 665/665
f 412/412 111/111 480/480
f 480/480 111/111 665/665
f 650/650 113/113 159/159
f 344/344 159/159 113/113
f 99/99 566/566 114/114
f 506/506 373/373 517/517
f 516/516 99/99 19/19
f 19/19 99/99 114/114
f 555/555 373/373 506/506
f 114/114 566/566 413/413
f 481/481 556/556 220/220
f 481/481 220/220 555/555
f 273/273 19/19 114/114
f 273/273 114/114 239/239
f 239/239 114/114 81/81
f 90/90 506/506 517/517
f 89/89 516/516 19/19
f 749/749 89/89 19/19
f 319/319 19/19 273/273
f 413/413 389/389 110/110
f 480/480 176/176 412/412
f 459/459 176/176 504/504
f 176/176 175/175 336/336
f 336/336 504/504 176/176
f 504/504 389/389 459/459
f 210/210 389/389 504/504
f 330/330 480/480 665/665
f 330/330 665/665 765/765
f 765/765 665/665 772/772
f 480/480 175/175 176/176
f 480/480 330/330 175/175
f 330/330 336/336 175/175
f 358/358 159/159 344/344
f 358/358 344/344 756/756
f 772/772 665/665 159/159
f 772/772 159/159 358/358
f 358/358 260/260 772/772
f 340/340 765/765 772/772
f 772/772 260/260 340/340
f 336/336 330/330 765/765
f 336/336 765/765 24/24
f 340/340 24/24 765/765
f 24/24 340/340 321/321
f 202/202 336/336 24/24
f 210/210 202/202 389/389
f 202/202 210/210 504/504
f 110/110 389/389 202/202
f 202/202 504/504 336/336
f 114/114 413/413 81/81
f 273/273 239/239 81/81
f 193/193 81/81 110/110
f 273/273 81/81 193/193
f 110/110 81/81 413/413
f 103/103 193/193 110/110
f 750/750 506/506 90/90
f 319/319 749/749 19/19
f 319/319 273/273 277/277
f 706/706 319/319 277/277
f 277/277 273/273 193/193
f 484/484 506/506 750/750
f 779/779 484/484 750/750
f 780/780 749/749 319/319
f 319/319 348/348 780/780
f 348/348 319/319 706/706
f 162/162 706/706 277/277
f 247/247 277/277 193/193
f 247/247 193/193 103/103
f 247/247 103/103 162/162
f 277/277 247/247 162/162
f 162/162 103/103 494/494
f 260/260 358/358 756/756
f 395/395 344/344 113/113
f 260/260 756/756 321/321
f 340/340 260/260 321/321
f 321/321 756/756 522/522
f 395/395 756/756 344/344
f 327/327 756/756 395/395
f 522/522 756/756 327/327
f 327/327 395/395 541/541
f 522/522 327/327 541/541
f 541/541 468/468 522/522
f 24/24 321/321 746/746
f 24/24 746/746 359/359
f 746/746 321/321 359/359
f 359/359 321/321 522/522
f 202/202 24/24 359/359
f 359/359 522/522 468/468
f 359/359 468/468 635/635
f 359/359 635/635 553/553
f 553/553 202/202 359/359
f 553/553 110/110 202/202
f 103/103 110/110 553/553
f 103/103 553/553 293/293
f 432/432 556/556 481/481
f 432/432 481/481 555/555
f 555/555 57/57 432/432
f 394/394 647/647 556/556
f 394/394 556/556 432/432
f 432/432 57/57 394/394
f 57/57 555/555 450/450
f 624/624 228/228 651/651
f 647/647 228/228 624/624
f 627/627 651/651 228/228
f 602/602 57/57 450/450
f 602/602 450/450 484/484
f 484/484 387/387 602/602
f 387/387 484/484 779/779
f 623/623 627/627 101/101
f 627/627 228/228 101/101
f 132/132 627/627 623/623
f 394/394 104/104 647/647
f 126/126 101/101 228/228
f 623/623 101/101 126/126
f 715/715 228/228 647/647
f 715/715 647/647 104/104
f 715/715 298/298 228/228
f 298/298 126/126 228/228
f 104/104 394/394 57/57
f 104/104 57/57 582/582
f 582/582 57/57 602/602
f 43/43 126/126 564/564
f 564/564 126/126 298/298
f 399/399 298/298 715/715
f 315/315 126/126 43/43
f 623/623 126/126 315/315
f 399/399 564/564 298/298
f 434/434 43/43 564/564
f 434/434 564/564 399/399
f 715/715 104/104 23/23
f 23/23 104/104 582/582
f 96/96 582/582 602/602
f 77/77 780/780 731/731
f 469/469 387/387 779/779
f 387/387 469/469 602/602
f 77/77 731/731 346/346
f 602/602 469/469 96/96
f 469/469 779/779 188/188
f 780/780 77/77 189/189
f 77/77 346/346 42/42
f 555/555 506/506 484/484
f 450/450 555/555 484/484
f 706/706 162/162 534/534
f 162/162 494/494 534/534
f 37/37 534/534 494/494
f 780/780 348/348 731/731
f 731/731 348/348 706/706
f 706/706 346/346 731/731
f 706/706 534/534 346/346
f 39/39 103/103 293/293
f 37/37 494/494 103/103
f 37/37 103/103 39/39
f 39/39 293/293 218/218
f 37/37 39/39 636/636
f 218/218 636/636 39/39
f 636/636 534/534 37/37
f 12/12 534/534 636/636
f 346/346 534/534 50/50
f 12/12 50/50 534/534
f 42/42 346/346 50/50
f 50/50 12/12 207/207
f 636/636 218/218 775/775
f 12/12 636/636 457/457
f 457/457 636/636 437/437
f 636/636 775/775 437/437
f 437/437 775/775 457/457
f 583/583 12/12 457/457
f 365/365 457/457 411/411
f 529/529 728/728 632/632
f 282/282 632/632 728/728
f 410/410 640/640 282/282
f 673/673 529/529 632/632
f 640/640 673/673 632/632
f 640/640 632/632 282/282
f 530/530 674/674 505/505
f 505/505 224/224 530/530
f 269/269 349/349 404/404
f 224/224 269/269 720/720
f 88/88 269/269 224/224
f 88/88 349/349 269/269
f 404/404 349/349 748/748
f 224/224 720/720 530/530
f 470/470 497/497 293/293
f 218/218 293/293 497/497
f 361/361 88/88 224/224
f 197/197 497/497 470/470
f 748/748 197/197 470/470
f 563/563 505/505 674/674
f 505/505 512/512 224/224
f 512/512 505/505 563/563
f 512/512 361/361 224/224
f 349/349 88/88 361/361
f 361/361 512/512 638/638
f 594/594 25/25 361/361
f 349/349 361/361 25/25
f 25/25 748/748 349/349
f 748/748 25/25 294/294
f 294/294 197/197 748/748
f 724/724 334/334 512/512
f 512/512 334/334 638/638
f 361/361 638/638 594/594
f 594/594 638/638 546/546
f 543/543 594/594 488/488
f 594/594 546/546 488/488
f 488/488 546/546 266/266
f 266/266 543/543 488/488
f 487/487 25/25 594/594
f 25/25 487/487 294/294
f 294/294 487/487 543/543
f 543/543 487/487 594/594
f 543/543 266/266 211/211
f 546/546 378/378 266/266
f 294/294 543/543 211/211
f 211/211 266/266 378/378
f 546/546 638/638 334/334
f 378/378 546/546 334/334
f 686/686 378/378 334/334
f 686/686 211/211 378/378
f 211/211 686/686 429/429
f 388/388 686/686 334/334
f 388/388 429/429 686/686
f 410/410 282/282 713/713
f 713/713 677/677 410/410
f 573/573 497/497 197/197
f 218/218 497/497 573/573
f 68/68 677/677 713/713
f 122/122 489/489 201/201
f 201/201 250/250 122/122
f 195/195 250/250 201/201
f 158/158 600/600 201/201
f 600/600 195/195 201/201
f 600/600 528/528 195/195
f 528/528 575/575 195/195
f 410/410 158/158 201/201
f 736/736 600/600 158/158
f 736/736 528/528 600/600
f 347/347 673/673 640/640
f 347/347 562/562 673/673
f 347/347 166/166 562/562
f 489/489 347/347 640/640
f 122/122 166/166 347/347
f 489/489 122/122 347/347
f 250/250 166/166 122/122
f 410/410 489/489 640/640
f 575/575 166/166 250/250
f 575/575 250/250 195/195
f 563/563 167/167 512/512
f 512/512 167/167 576/576
f 576/576 84/84 512/512
f 172/172 84/84 576/576
f 272/272 172/172 576/576
f 172/172 272/272 512/512
f 172/172 512/512 84/84
f 410/410 201/201 489/489
f 158/158 737/737 736/736
f 737/737 528/528 736/736
f 271/271 528/528 737/737
f 597/597 737/737 158/158
f 158/158 513/513 597/597
f 271/271 737/737 597/597
f 597/597 173/173 271/271
f 735/735 513/513 158/158
f 735/735 158/158 410/410
f 513/513 170/170 597/597
f 170/170 173/173 597/597
f 490/490 173/173 170/170
f 572/572 490/490 170/170
f 155/155 572/572 513/513
f 572/572 170/170 513/513
f 102/102 341/341 572/572
f 102/102 572/572 155/155
f 572/572 341/341 490/490
f 513/513 735/735 155/155
f 712/712 341/341 102/102
f 410/410 382/382 735/735
f 528/528 271/271 575/575
f 512/512 272/272 724/724
f 272/272 491/491 724/724
f 173/173 490/490 271/271
f 382/382 410/410 112/112
f 573/573 197/197 80/80
f 646/646 80/80 197/197
f 294/294 211/211 197/197
f 646/646 197/197 211/211
f 724/724 559/559 334/334
f 646/646 211/211 429/429
f 695/695 573/573 80/80
f 695/695 285/285 573/573
f 695/695 80/80 646/646
f 695/695 646/646 622/622
f 677/677 68/68 730/730
f 730/730 410/410 677/677
f 671/671 68/68 258/258
f 671/671 730/730 68/68
f 254/254 518/518 730/730
f 254/254 730/730 671/671
f 112/112 410/410 730/730
f 382/382 112/112 329/329
f 730/730 518/518 112/112
f 518/518 752/752 112/112
f 514/514 752/752 518/518
f 112/112 752/752 514/514
f 255/255 112/112 514/514
f 285/285 695/695 276/276
f 356/356 276/276 695/695
f 356/356 695/695 622/622
f 16/16 356/356 85/85
f 276/276 356/356 1/1
f 155/155 712/712 102/102
f 590/590 341/341 712/712
f 491/491 376/376 724/724
f 342/342 376/376 491/491
f 342/342 724/724 376/376
f 384/384 724/724 342/342
f 384/384 342/342 591/591
f 571/571 155/155 735/735
f 571/571 735/735 382/382
f 571/571 712/712 155/155
f 409/409 34/34 384/384
f 44/44 174/174 127/127
f 44/44 409/409 174/174
f 502/502 44/44 127/127
f 31/31 724/724 384/384
f 384/384 593/593 31/31
f 409/409 568/568 34/34
f 221/221 409/409 44/44
f 221/221 568/568 409/409
f 502/502 221/221 44/44
f 83/83 221/221 502/502
f 390/390 221/221 83/83
f 34/34 593/593 384/384
f 768/768 593/593 34/34
f 768/768 639/639 192/192
f 192/192 593/593 768/768
f 40/40 593/593 192/192
f 34/34 351/351 768/768
f 568/568 221/221 351/351
f 109/109 221/221 390/390
f 109/109 351/351 221/221
f 351/351 34/34 568/568
f 390/390 83/83 580/580
f 639/639 109/109 390/390
f 639/639 768/768 109/109
f 351/351 109/109 768/768
f 639/639 390/390 608/608
f 608/608 390/390 580/580
f 115/115 581/581 82/82
f 178/178 571/571 382/382
f 354/354 178/178 382/382
f 590/590 712/712 160/160
f 666/666 712/712 571/571
f 666/666 160/160 712/712
f 161/161 439/439 591/591
f 384/384 591/591 439/439
f 161/161 181/181 439/439
f 300/300 439/439 181/181
f 439/439 409/409 384/384
f 666/666 183/183 160/160
f 184/184 181/181 161/161
f 75/75 180/180 183/183
f 22/22 183/183 666/666
f 22/22 75/75 183/183
f 178/178 666/666 571/571
f 146/146 22/22 666/666
f 75/75 22/22 584/584
f 146/146 584/584 22/22
f 666/666 452/452 146/146
f 427/427 180/180 75/75
f 426/426 300/300 181/181
f 662/662 439/439 300/300
f 426/426 662/662 300/300
f 584/584 427/427 75/75
f 174/174 409/409 662/662
f 426/426 174/174 662/662
f 409/409 439/439 662/662
f 127/127 174/174 426/426
f 127/127 426/426 502/502
f 452/452 666/666 178/178
f 398/398 452/452 178/178
f 146/146 452/452 482/482
f 398/398 482/482 452/452
f 763/763 482/482 398/398
f 146/146 482/482 584/584
f 708/708 584/584 482/482
f 763/763 708/708 482/482
f 708/708 427/427 584/584
f 354/354 398/398 178/178
f 708/708 763/763 217/217
f 722/722 427/427 708/708
f 722/722 708/708 217/217
f 115/115 503/503 427/427
f 82/82 503/503 115/115
f 581/581 115/115 425/425
f 722/722 125/125 427/427
f 427/427 125/125 115/115
f 388/388 334/334 559/559
f 222/222 429/429 388/388
f 405/405 559/559 724/724
f 222/222 388/388 148/148
f 559/559 148/148 388/388
f 148/148 559/559 707/707
f 707/707 531/531 148/148
f 222/222 148/148 531/531
f 559/559 405/405 707/707
f 405/405 531/531 707/707
f 428/428 531/531 405/405
f 531/531 428/428 693/693
f 222/222 531/531 693/693
f 646/646 222/222 693/693
f 646/646 429/429 222/222
f 733/733 428/428 405/405
f 428/428 776/776 693/693
f 776/776 428/428 733/733
f 646/646 693/693 776/776
f 733/733 386/386 776/776
f 646/646 776/776 386/386
f 733/733 405/405 31/31
f 405/405 724/724 31/31
f 270/270 386/386 733/733
f 646/646 386/386 270/270
f 270/270 527/527 646/646
f 527/527 270/270 156/156
f 733/733 20/20 270/270
f 729/729 733/733 31/31
f 31/31 593/593 729/729
f 729/729 20/20 733/733
f 40/40 729/729 593/593
f 20/20 729/729 510/510
f 510/510 729/729 40/40
f 156/156 270/270 20/20
f 156/156 20/20 510/510
f 538/538 156/156 510/510
f 156/156 538/538 5/5
f 622/622 646/646 527/527
f 622/622 527/527 85/85
f 454/454 581/581 36/36
f 558/558 5/5 538/538
f 322/322 558/558 538/538
f 425/425 36/36 581/581
f 85/85 527/527 156/156
f 263/263 85/85 156/156
f 263/263 156/156 5/5
f 36/36 425/425 230/230
f 263/263 5/5 445/445
f 445/445 5/5 558/558
f 36/36 230/230 323/323
f 322/322 445/445 558/558
f 445/445 322/322 229/229
f 192/192 455/455 40/40
f 40/40 455/455 227/227
f 608/608 192/192 639/639
f 192/192 608/608 580/580
f 580/580 455/455 192/192
f 227/227 510/510 40/40
f 538/538 510/510 227/227
f 226/226 454/454 36/36
f 323/323 226/226 36/36
f 322/322 538/538 227/227
f 382/382 329/329 354/354
f 354/354 329/329 205/205
f 205/205 398/398 354/354
f 205/205 329/329 255/255
f 205/205 763/763 398/398
f 205/205 217/217 763/763
f 115/115 125/125 290/290
f 425/425 115/115 290/290
f 121/121 290/290 125/125
f 255/255 329/329 112/112
f 119/119 217/217 205/205
f 106/106 205/205 255/255
f 106/106 119/119 205/205
f 9/9 223/223 255/255
f 223/223 106/106 255/255
f 223/223 119/119 106/106
f 223/223 217/217 119/119
f 314/314 217/217 223/223
f 601/601 460/460 217/217
f 722/722 217/217 460/460
f 722/722 460/460 125/125
f 125/125 460/460 121/121
f 356/356 622/622 85/85
f 287/287 85/85 263/263
f 424/424 263/263 445/445
f 337/337 445/445 229/229
f 337/337 424/424 445/445
f 287/287 263/263 424/424
f 741/741 425/425 290/290
f 425/425 741/741 230/230
f 16/16 85/85 287/287
f 16/16 287/287 606/606
f 14/14 290/290 121/121
f 14/14 741/741 290/290
f 685/685 424/424 337/337
f 685/685 337/337 229/229
f 620/620 121/121 460/460
f 121/121 620/620 14/14
f 230/230 741/741 773/773
f 287/287 424/424 764/764
f 764/764 424/424 685/685
f 773/773 684/684 230/230
f 775/775 218/218 285/285
f 285/285 218/218 573/573
f 411/411 775/775 285/285
f 276/276 411/411 285/285
f 411/411 457/457 775/775
f 365/365 411/411 595/595
f 411/411 276/276 595/595
f 169/169 276/276 1/1
f 1/1 356/356 169/169
f 595/595 276/276 169/169
f 169/169 356/356 16/16
f 680/680 431/431 560/560
f 671/671 258/258 254/254
f 254/254 258/258 431/431
f 254/254 431/431 732/732
f 451/451 315/315 434/434
f 451/451 434/434 399/399
f 315/315 43/43 434/434
f 315/315 309/309 142/142
f 451/451 554/554 315/315
f 451/451 179/179 554/554
f 554/554 309/309 315/315
f 554/554 179/179 309/309
f 760/760 179/179 451/451
f 760/760 495/495 152/152
f 760/760 309/309 179/179
f 495/495 451/451 399/399
f 495/495 760/760 451/451
f 760/760 152/152 309/309
f 399/399 715/715 385/385
f 495/495 399/399 385/385
f 401/401 715/715 23/23
f 385/385 715/715 401/401
f 142/142 623/623 315/315
f 15/15 623/623 142/142
f 577/577 495/495 385/385
f 495/495 577/577 152/152
f 577/577 592/592 152/152
f 515/515 309/309 152/152
f 142/142 309/309 515/515
f 289/289 577/577 385/385
f 401/401 289/289 385/385
f 414/414 289/289 401/401
f 545/545 592/592 577/577
f 152/152 592/592 515/515
f 51/51 15/15 142/142
f 51/51 142/142 515/515
f 23/23 582/582 10/10
f 401/401 23/23 10/10
f 414/414 401/401 10/10
f 414/414 10/10 587/587
f 10/10 582/582 587/587
f 582/582 96/96 587/587
f 96/96 469/469 524/524
f 524/524 469/469 188/188
f 200/200 524/524 188/188
f 199/199 189/189 625/625
f 625/625 189/189 77/77
f 625/625 77/77 42/42
f 213/213 625/625 42/42
f 625/625 213/213 672/672
f 370/370 672/672 213/213
f 672/672 370/370 475/475
f 535/535 463/463 691/691
f 535/535 691/691 264/264
f 766/766 264/264 691/691
f 463/463 547/547 691/691
f 212/212 766/766 691/691
f 212/212 691/691 557/557
f 557/557 691/691 548/548
f 577/577 289/289 614/614
f 242/242 545/545 614/614
f 614/614 545/545 577/577
f 592/592 545/545 242/242
f 233/233 242/242 614/614
f 614/614 688/688 233/233
f 242/242 233/233 515/515
f 515/515 592/592 242/242
f 289/289 472/472 614/614
f 299/299 289/289 414/414
f 472/472 289/289 299/299
f 542/542 688/688 17/17
f 542/542 233/233 688/688
f 17/17 688/688 614/614
f 462/462 17/17 614/614
f 614/614 472/472 462/462
f 233/233 467/467 515/515
f 509/509 462/462 472/472
f 17/17 535/535 542/542
f 535/535 17/17 509/509
f 472/472 299/299 509/509
f 462/462 509/509 17/17
f 515/515 419/419 51/51
f 51/51 419/419 642/642
f 339/339 51/51 642/642
f 535/535 766/766 542/542
f 509/509 463/463 535/535
f 264/264 766/766 535/535
f 542/542 467/467 233/233
f 419/419 515/515 467/467
f 542/542 766/766 467/467
f 758/758 419/419 467/467
f 758/758 467/467 766/766
f 206/206 766/766 212/212
f 408/408 206/206 557/557
f 710/710 766/766 206/206
f 206/206 679/679 710/710
f 679/679 206/206 408/408
f 758/758 766/766 710/710
f 758/758 710/710 400/400
f 710/710 679/679 295/295
f 408/408 295/295 679/679
f 710/710 295/295 400/400
f 400/400 682/682 758/758
f 295/295 408/408 400/400
f 682/682 419/419 758/758
f 332/332 682/682 400/400
f 408/408 332/332 400/400
f 149/149 682/682 332/332
f 682/682 149/149 696/696
f 419/419 682/682 642/642
f 696/696 149/149 332/332
f 696/696 332/332 128/128
f 682/682 165/165 642/642
f 754/754 642/642 165/165
f 165/165 682/682 696/696
f 335/335 165/165 696/696
f 128/128 335/335 696/696
f 165/165 335/335 754/754
f 74/74 642/642 754/754
f 435/435 74/74 754/754
f 335/335 435/435 754/754
f 128/128 699/699 335/335
f 435/435 335/335 699/699
f 74/74 435/435 769/769
f 435/435 699/699 769/769
f 252/252 414/414 587/587
f 509/509 299/299 463/463
f 463/463 299/299 257/257
f 299/299 414/414 257/257
f 252/252 257/257 414/414
f 252/252 466/466 27/27
f 252/252 587/587 466/466
f 587/587 96/96 286/286
f 286/286 96/96 144/144
f 144/144 587/587 286/286
f 524/524 144/144 96/96
f 672/672 199/199 625/625
f 144/144 524/524 7/7
f 7/7 524/524 200/200
f 466/466 587/587 343/343
f 343/343 587/587 94/94
f 78/78 343/343 456/456
f 27/27 466/466 78/78
f 28/28 79/79 59/59
f 466/466 343/343 78/78
f 742/742 59/59 420/420
f 456/456 343/343 94/94
f 422/422 78/78 456/456
f 59/59 79/79 421/421
f 94/94 744/744 456/456
f 422/422 456/456 744/744
f 144/144 94/94 587/587
f 420/420 59/59 770/770
f 441/441 7/7 200/200
f 442/442 199/199 672/672
f 94/94 144/144 561/561
f 144/144 7/7 561/561
f 441/441 561/561 7/7
f 240/240 561/561 441/441
f 325/325 241/241 442/442
f 569/569 442/442 672/672
f 94/94 561/561 744/744
f 770/770 421/421 241/241
f 770/770 59/59 421/421
f 422/422 744/744 240/240
f 744/744 561/561 240/240
f 65/65 420/420 770/770
f 241/241 325/325 770/770
f 325/325 331/331 770/770
f 331/331 65/65 770/770
f 325/325 442/442 569/569
f 331/331 325/325 569/569
f 569/569 672/672 475/475
f 257/257 547/547 463/463
f 742/742 128/128 557/557
f 548/548 256/256 557/557
f 557/557 256/256 28/28
f 742/742 557/557 28/28
f 206/206 212/212 557/557
f 128/128 408/408 557/557
f 27/27 257/257 252/252
f 742/742 28/28 59/59
f 128/128 332/332 408/408
f 420/420 128/128 742/742
f 65/65 128/128 420/420
f 699/699 128/128 65/65
f 699/699 65/65 157/157
f 65/65 331/331 21/21
f 331/331 569/569 21/21
f 21/21 157/157 65/65
f 51/51 680/680 15/15
f 431/431 680/680 51/51
f 213/213 42/42 50/50
f 213/213 50/50 207/207
f 213/213 207/207 370/370
f 370/370 207/207 474/474
f 207/207 12/12 583/583
f 474/474 207/207 583/583
f 475/475 370/370 474/474
f 372/372 474/474 583/583
f 154/154 474/474 372/372
f 339/339 431/431 51/51
f 93/93 339/339 642/642
f 74/74 93/93 642/642
f 769/769 714/714 74/74
f 769/769 626/626 438/438
f 438/438 714/714 769/769
f 458/458 486/486 74/74
f 486/486 93/93 74/74
f 626/626 769/769 699/699
f 150/150 339/339 93/93
f 473/473 475/475 474/474
f 569/569 475/475 762/762
f 762/762 475/475 473/473
f 473/473 474/474 154/154
f 154/154 326/326 473/473
f 157/157 377/377 699/699
f 678/678 377/377 157/157
f 377/377 678/678 699/699
f 626/626 699/699 678/678
f 569/569 762/762 21/21
f 21/21 678/678 157/157
f 21/21 762/762 473/473
f 473/473 539/539 21/21
f 678/678 21/21 539/539
f 539/539 473/473 326/326
f 732/732 431/431 147/147
f 147/147 431/431 339/339
f 732/732 147/147 339/339
f 618/618 732/732 339/339
f 74/74 714/714 458/458
f 438/438 458/458 714/714
f 438/438 626/626 458/458
f 525/525 486/486 243/243
f 243/243 486/486 458/458
f 458/458 302/302 243/243
f 243/243 302/302 664/664
f 243/243 664/664 525/525
f 525/525 93/93 486/486
f 525/525 664/664 721/721
f 449/449 93/93 525/525
f 525/525 721/721 449/449
f 630/630 449/449 721/721
f 150/150 93/93 449/449
f 302/302 721/721 664/664
f 630/630 721/721 302/302
f 626/626 302/302 458/458
f 54/54 339/339 153/153
f 675/675 54/54 153/153
f 520/520 675/675 416/416
f 416/416 262/262 520/520
f 520/520 54/54 675/675
f 630/630 150/150 449/449
f 630/630 302/302 626/626
f 153/153 339/339 150/150
f 153/153 150/150 519/519
f 519/519 150/150 630/630
f 683/683 519/519 630/630
f 630/630 626/626 683/683
f 683/683 153/153 519/519
f 675/675 153/153 683/683
f 416/416 675/675 683/683
f 626/626 416/416 683/683
f 262/262 416/416 626/626
f 54/54 203/203 339/339
f 209/209 54/54 520/520
f 209/209 520/520 262/262
f 54/54 209/209 8/8
f 262/262 8/8 209/209
f 262/262 626/626 8/8
f 339/339 203/203 618/618
f 8/8 66/66 54/54
f 8/8 280/280 66/66
f 8/8 626/626 280/280
f 203/203 54/54 66/66
f 203/203 745/745 532/532
f 203/203 66/66 280/280
f 745/745 203/203 280/280
f 532/532 745/745 567/567
f 761/761 203/203 532/532
f 567/567 280/280 626/626
f 745/745 280/280 567/567
f 203/203 761/761 618/618
f 532/532 567/567 761/761
f 567/567 500/500 761/761
f 567/567 626/626 500/500
f 500/500 45/45 761/761
f 747/747 618/618 761/761
f 164/164 747/747 761/761
f 391/391 747/747 164/164
f 164/164 393/393 391/391
f 747/747 391/391 73/73
f 626/626 45/45 500/500
f 393/393 45/45 626/626
f 761/761 45/45 164/164
f 393/393 164/164 45/45
f 626/626 678/678 641/641
f 641/641 678/678 539/539
f 326/326 397/397 539/539
f 539/539 397/397 641/641
f 326/326 154/154 631/631
f 326/326 631/631 397/397
f 254/254 49/49 518/518
f 514/514 518/518 49/49
f 254/254 732/732 49/49
f 328/328 255/255 514/514
f 514/514 49/49 328/328
f 235/235 49/49 732/732
f 618/618 235/235 732/732
f 355/355 49/49 235/235
f 355/355 328/328 49/49
f 496/496 328/328 333/333
f 328/328 124/124 333/333
f 328/328 362/362 124/124
f 288/288 328/328 355/355
f 288/288 362/362 328/328
f 255/255 574/574 9/9
f 314/314 223/223 9/9
f 9/9 601/601 314/314
f 601/601 217/217 314/314
f 601/601 9/9 574/574
f 574/574 255/255 523/523
f 601/601 574/574 523/523
f 363/363 601/601 523/523
f 363/363 460/460 601/601
f 363/363 523/523 186/186
f 585/585 460/460 363/363
f 186/186 523/523 255/255
f 139/139 498/498 186/186
f 139/139 363/363 498/498
f 249/249 255/255 328/328
f 139/139 186/186 255/255
f 249/249 139/139 255/255
f 249/249 363/363 139/139
f 498/498 363/363 186/186
f 328/328 496/496 249/249
f 364/364 363/363 249/249
f 249/249 496/496 364/364
f 460/460 585/585 620/620
f 764/764 619/619 287/287
f 287/287 777/777 606/606
f 777/777 287/287 619/619
f 755/755 741/741 14/14
f 755/755 773/773 741/741
f 619/619 764/764 685/685
f 734/734 684/684 773/773
f 734/734 773/773 755/755
f 620/620 585/585 177/177
f 318/318 14/14 620/620
f 318/318 755/755 14/14
f 318/318 620/620 177/177
f 364/364 585/585 363/363
f 511/511 606/606 777/777
f 41/41 734/734 755/755
f 41/41 684/684 734/734
f 333/333 364/364 496/496
f 118/118 483/483 364/364
f 483/483 585/585 364/364
f 118/118 364/364 333/333
f 483/483 177/177 585/585
f 540/540 333/333 124/124
f 540/540 118/118 333/333
f 362/362 118/118 540/540
f 362/362 540/540 124/124
f 753/753 177/177 483/483
f 755/755 318/318 753/753
f 177/177 753/753 318/318
f 777/777 619/619 171/171
f 171/171 619/619 685/685
f 753/753 117/117 755/755
f 753/753 483/483 709/709
f 235/235 618/618 613/613
f 613/613 355/355 235/235
f 613/613 618/618 123/123
f 274/274 613/613 123/123
f 123/123 69/69 588/588
f 588/588 345/345 123/123
f 72/72 274/274 123/123
f 76/76 123/123 108/108
f 108/108 123/123 345/345
f 123/123 76/76 605/605
f 605/605 76/76 108/108
f 355/355 613/613 417/417
f 355/355 549/549 288/288
f 288/288 118/118 362/362
f 204/204 288/288 231/231
f 118/118 288/288 204/204
f 231/231 288/288 549/549
f 67/67 204/204 231/231
f 231/231 549/549 67/67
f 709/709 483/483 118/118
f 163/163 709/709 118/118
f 417/417 549/549 355/355
f 423/423 549/549 417/417
f 204/204 163/163 118/118
f 423/423 67/67 549/549
f 423/423 204/204 67/67
f 423/423 163/163 204/204
f 753/753 709/709 138/138
f 661/661 709/709 163/163
f 138/138 709/709 661/661
f 274/274 417/417 613/613
f 605/605 72/72 123/123
f 72/72 605/605 130/130
f 130/130 605/605 108/108
f 357/357 274/274 72/72
f 236/236 417/417 274/274
f 236/236 274/274 418/418
f 357/357 418/418 274/274
f 423/423 417/417 236/236
f 423/423 236/236 652/652
f 415/415 423/423 652/652
f 415/415 681/681 423/423
f 681/681 163/163 423/423
f 418/418 652/652 236/236
f 418/418 415/415 652/652
f 649/649 681/681 415/415
f 649/649 415/415 418/418
f 607/607 453/453 418/418
f 53/53 681/681 649/649
f 267/267 681/681 53/53
f 453/453 649/649 418/418
f 649/649 453/453 53/53
f 268/268 453/453 607/607
f 53/53 453/453 268/268
f 268/268 267/267 53/53
f 681/681 267/267 163/163
f 35/35 163/163 267/267
f 661/661 163/163 35/35
f 130/130 648/648 72/72
f 357/357 72/72 316/316
f 648/648 130/130 723/723
f 648/648 316/316 72/72
f 316/316 71/71 357/357
f 357/357 71/71 6/6
f 615/615 6/6 71/71
f 316/316 648/648 723/723
f 71/71 316/316 723/723
f 71/71 723/723 615/615
f 380/380 357/357 6/6
f 380/380 6/6 615/615
f 374/374 380/380 615/615
f 2/2 268/268 607/607
f 418/418 357/357 440/440
f 440/440 607/607 418/418
f 237/237 268/268 2/2
f 440/440 2/2 607/607
f 91/91 615/615 723/723
f 604/604 35/35 267/267
f 267/267 268/268 237/237
f 604/604 267/267 237/237
f 374/374 357/357 380/380
f 374/374 440/440 357/357
f 91/91 440/440 374/374
f 91/91 374/374 615/615
f 440/440 91/91 2/2
f 2/2 91/91 48/48
f 238/238 2/2 48/48
f 48/48 91/91 291/291
f 603/603 238/238 291/291
f 238/238 48/48 291/291
f 91/91 198/198 291/291
f 603/603 291/291 198/198
f 583/583 457/457 365/365
f 583/583 365/365 372/372
f 365/365 595/595 689/689
f 595/595 169/169 16/16
f 689/689 595/595 16/16
f 689/689 16/16 606/606
f 154/154 372/372 232/232
f 372/372 365/365 232/232
f 154/154 232/232 631/631
f 751/751 365/365 689/689
f 492/492 365/365 751/751
f 751/751 689/689 511/511
f 232/232 365/365 492/492
f 631/631 232/232 492/492
f 511/511 306/306 751/751
f 511/511 689/689 606/606
f 738/738 171/171 685/685
f 739/739 684/684 41/41
f 375/375 511/511 777/777
f 375/375 777/777 171/171
f 375/375 171/171 738/738
f 755/755 117/117 41/41
f 306/306 511/511 375/375
f 352/352 739/739 41/41
f 626/626 641/641 668/668
f 747/747 38/38 618/618
f 38/38 747/747 73/73
f 61/61 73/73 391/391
f 73/73 69/69 38/38
f 69/69 618/618 38/38
f 61/61 360/360 73/73
f 360/360 194/194 73/73
f 61/61 194/194 360/360
f 73/73 194/194 493/493
f 194/194 61/61 493/493
f 393/393 61/61 391/391
f 61/61 393/393 668/668
f 73/73 493/493 69/69
f 92/92 69/69 493/493
f 69/69 92/92 743/743
f 251/251 92/92 493/493
f 92/92 251/251 743/743
f 251/251 493/493 61/61
f 251/251 61/61 668/668
f 626/626 668/668 393/393
f 69/69 123/123 618/618
f 251/251 69/69 743/743
f 151/151 69/69 251/251
f 292/292 69/69 151/151
f 668/668 151/151 251/251
f 668/668 292/292 151/151
f 69/69 292/292 588/588
f 292/292 668/668 588/588
f 588/588 668/668 108/108
f 588/588 108/108 345/345
f 406/406 565/565 668/668
f 406/406 668/668 641/641
f 641/641 397/397 406/406
f 375/375 617/617 306/306
f 617/617 751/751 306/306
f 751/751 617/617 492/492
f 108/108 668/668 130/130
f 130/130 668/668 723/723
f 565/565 723/723 668/668
f 406/406 397/397 565/565
f 631/631 492/492 259/259
f 397/397 631/631 259/259
f 259/259 552/552 397/397
f 565/565 397/397 552/552
f 570/570 117/117 753/753
f 352/352 117/117 570/570
f 570/570 753/753 138/138
f 661/661 35/35 138/138
f 465/465 138/138 35/35
f 35/35 307/307 465/465
f 465/465 570/570 138/138
f 32/32 570/570 465/465
f 301/301 723/723 461/461
f 301/301 461/461 381/381
f 234/234 187/187 33/33
f 187/187 234/234 381/381
f 187/187 550/550 33/33
f 570/570 32/32 653/653
f 551/551 653/653 32/32
f 375/375 738/738 617/617
f 446/446 616/616 739/739
f 446/446 739/739 352/352
f 653/653 446/446 352/352
f 570/570 653/653 352/352
f 461/461 723/723 565/565
f 552/552 461/461 565/565
f 259/259 492/492 617/617
f 609/609 616/616 446/446
f 616/616 609/609 278/278
f 550/550 381/381 461/461
f 187/187 381/381 550/550
f 461/461 552/552 52/52
f 552/552 259/259 628/628
f 52/52 552/552 628/628
f 628/628 259/259 617/617
f 52/52 628/628 279/279
f 461/461 52/52 279/279
f 653/653 501/501 446/446
f 501/501 609/609 446/446
f 551/551 501/501 653/653
f 550/550 461/461 402/402
f 461/461 279/279 402/402
f 501/501 551/551 403/403
f 403/403 609/609 501/501
f 279/279 628/628 617/617
f 278/278 609/609 403/403
f 198/198 91/91 723/723
f 307/307 35/35 604/604
f 308/308 603/603 198/198
f 723/723 301/301 198/198
f 308/308 198/198 301/301
f 301/301 464/464 308/308
f 381/381 234/234 464/464
f 234/234 33/33 464/464
f 301/301 381/381 464/464
f 352/352 41/41 117/117