# https://github.com/mikedh/trimesh
v -0.68870133 -0.49966544 -0.63634032
v -0.16837315 -0.48868480 -0.77321678
v -0.17228314 -0.48868480 -0.77321678
v -0.08847982 -0.50159568 0.93412143
v -0.01603316 -0.48869476 0.77374321
v -0.01994316 -0.48869476 0.77374321
v -0.00431316 -0.49650478 0.77364320
v 0.00866749 -0.49787402 0.80122554
v -0.00822316 -0.49650478 0.77364320
v -0.21134315 -0.48869476 -0.77331680
v -0.21134315 -0.48868480 -0.77321678
v -0.20744315 -0.48869476 -0.77331680
v -0.25431314 -0.48869476 -0.77144676
v -0.25466529 -0.48870444 -0.77142519
v -0.09025316 -0.48869476 -0.77331680
v -0.09025316 -0.48868480 -0.77321678
v -0.08634315 -0.48869476 -0.77331680
v -0.17619315 -0.48869476 -0.77331680
v -0.14884315 -0.48869476 0.77374321
v -0.15275314 -0.48869476 0.77374321
v -0.09452698 -0.49746671 -0.79256684
v -0.08244315 -0.49650478 -0.77321678
v -0.86606961 -0.49509597 0.35464418
v -0.19572315 -0.48868480 -0.77321678
v -0.19962315 -0.48868480 -0.77321678
v -0.16056316 -0.48868480 -0.77321678
v -0.19181316 -0.49650478 -0.77311677
v -0.18791316 -0.49650478 -0.77311677
v -0.17619315 -0.48868480 -0.77321678
v -0.18009315 -0.49650478 0.77354318
v -0.18400314 -0.49650478 0.77354318
v -0.03166316 -0.49650478 -0.77311677
v -0.02775316 -0.49650478 -0.77321678
v -0.02775316 -0.49650478 -0.77311677
v -0.14017507 -0.49270400 -0.85454947
v -0.23907778 -0.49650478 -0.77318192
v -0.20353314 -0.48868480 -0.77321678
v -0.20744315 -0.48868480 -0.77321678
v -0.21134315 -0.49650478 -0.77321678
v -0.21134315 -0.49650478 -0.77311677
v -0.21525314 -0.49650478 -0.77311677
v -0.20353314 -0.48869476 -0.77331680
v -0.21525314 -0.48868480 0.77364320
v -0.21916316 -0.48868480 0.77364320
v -0.21525314 -0.48869476 0.77374321
v -0.08634315 -0.48868480 -0.77321678
v -0.08244315 -0.48869476 -0.77331680
v -0.11369315 -0.48868480 -0.77321678
v -0.11759315 -0.48868480 -0.77321678
v -0.05119315 -0.48868480 -0.77321678
v -0.05509316 -0.49650478 0.77354318
v -0.05509316 -0.49650478 0.77364320
v -0.05900315 -0.49650478 0.77364320
v -0.03947316 -0.49650478 -0.77321678
v -0.03947316 -0.49670476 -0.77712679
v -0.03556315 -0.49650478 -0.77321678
v -0.01603316 -0.48868480 0.77364320
v -0.01212316 -0.48868480 0.77364320
v -0.08600704 -0.49546388 -0.75209427
v -0.13712315 -0.49650478 -0.77311677
v -0.13322315 -0.49650478 -0.77311677
v -0.12931316 -0.49650478 -0.77321678
v -0.12931316 -0.49650478 -0.77311677
v -0.06681315 -0.48868480 -0.77321678
v -0.07072315 -0.48868480 -0.77321678
v -0.03947316 -0.49650478 -0.77311677
v -0.07586002 -0.48902783 -0.78016496
v -0.21916316 -0.48869476 -0.77331680
v -0.21916316 -0.48868480 -0.77321678
v -0.21525314 -0.48869476 -0.77331680
v -0.19572315 -0.49650478 -0.77321678
v -0.21525314 -0.48868480 -0.77321678
v -0.23478314 -0.48869476 0.77374321
v -0.20817962 -0.48964760 0.79309303
v -0.31471157 -0.49999651 0.93244392
v -0.01603316 -0.48868480 -0.77321678
v -0.01994316 -0.48868480 -0.77321678
v 0.02777558 -0.48591477 -0.71720916
v -0.17228314 -0.48869476 -0.77331680
v -0.18009315 -0.48868480 -0.77321678
v -0.18791316 -0.48868480 -0.77321678
v -0.18791316 -0.48869476 -0.77331680
v -0.19181316 -0.48868480 -0.77321678
v -0.26105902 -0.49010831 -0.80191666
v -0.14103314 -0.48868480 0.77364320
v -0.14494315 -0.48868480 0.77364320
v -0.14103314 -0.48869476 0.77374321
v -0.22697315 -0.48869476 -0.77331680
v -0.22697315 -0.48868480 -0.77321678
v -0.22306316 -0.48869476 -0.77331680
v -0.31561327 -0.50323808 0.92716700
v -0.21134315 -0.49650478 0.77354318
v -0.21525314 -0.49650478 0.77354318
v -0.26745343 -0.48272511 -0.65828454
v -0.16447315 -0.48868480 -0.77321678
v -0.19962315 -0.48868480 0.77364320
v -0.19962315 -0.48869476 0.77374321
v -0.19572315 -0.48869476 0.77374321
v -0.20353314 -0.49650478 -0.77321678
v -0.10197315 -0.48868480 -0.77321678
v -0.10587316 -0.48868480 -0.77321678
v -0.14103314 -0.49650478 0.77364320
v -0.13712315 -0.49650478 0.77354318
v -0.13712315 -0.49650478 0.77364320
v -0.18400314 -0.48869476 -0.77331680
v -0.18009315 -0.48869476 -0.77331680
v -0.20744315 -0.48869476 0.77374321
v -0.21134315 -0.48869476 0.77374321
v -0.07072315 -0.48869476 -0.77331680
v -0.07462316 -0.48868480 -0.77321678
v -0.26492870 -0.48852947 0.76725459
v -0.24650314 -0.48869476 -0.77331680
v -0.24650314 -0.48868480 -0.77321678
v -0.24259315 -0.48869476 -0.77331680
v -0.28793451 -0.48910019 -0.56066620
v -0.18791316 -0.49650478 -0.77321678
v -0.19181316 -0.49650478 -0.77321678
v -0.13322315 -0.49650478 0.77354318
v -0.19181316 -0.48869476 -0.77331680
v -0.23478314 -0.48869476 -0.77331680
v -0.23087315 -0.48869476 -0.77331680
v -0.07072315 -0.49650478 -0.77311677
v -0.07462316 -0.49650478 -0.77311677
v -0.07072315 -0.49650478 -0.77321678
v -0.12541316 -0.48869476 -0.77331680
v -0.12931316 -0.48869476 -0.77331680
v -0.12931316 -0.48868480 -0.77321678
v -0.23478314 -0.49650478 -0.77311677
v -0.23087315 -0.49650478 -0.77311677
v -0.18400314 -0.49650478 -0.77311677
v -0.17513905 -0.49037725 -0.80746758
v -0.20353314 -0.48869476 0.77374321
v -0.20353314 -0.49650478 -0.77311677
v -0.19962315 -0.49650478 -0.77321678
v -0.15314646 -0.49129179 0.82633442
v -0.14884315 -0.49650478 0.77354318
v -0.22697315 -0.49650478 0.77364320
v -0.23087315 -0.49650478 0.77364320
v -0.45499465 -0.49953189 0.70407343
v -0.21525314 -0.49650478 -0.77321678
v -0.20744315 -0.49650478 -0.77311677
v -0.17616473 -0.49792182 -0.80173439
v -0.22697315 -0.49650478 -0.77311677
v -0.22306316 -0.49650478 -0.77311677
v -0.23478314 -0.49650478 -0.77321678
v -0.22697315 -0.48868480 0.77364320
v -0.22697315 -0.48869476 0.77374321
v -0.22306316 -0.48869476 0.77374321
v -0.25429398 -0.49634957 -0.76749992
v -0.23087315 -0.48868480 -0.77321678
v -0.28166315 -0.48867476 -0.55446678
v -0.28220314 -0.48869476 -0.55446678
v -0.25043064 -0.48869523 -0.77331752
v -0.25041315 -0.48868480 -0.77321678
v -0.19572315 -0.49650478 0.77364320
v -0.16056316 -0.48869476 -0.77331680
v -0.13712315 -0.48868480 0.77364320
v -0.19572315 -0.48869476 -0.77331680
v -0.21916316 -0.49650478 -0.77311677
v -0.23869315 -0.48868480 -0.77321678
v -0.24259315 -0.48868480 -0.77321678
v -0.23965755 -0.48868972 0.77369207
v -0.24813667 -0.49625912 0.76896042
v -0.23087315 -0.49650478 -0.77321678
v -0.22306316 -0.49650478 0.77364320
v -0.23399182 -0.48591334 -0.71704882
v -0.11569776 -0.49274254 0.69741589
v -0.23087315 -0.48869476 0.77374321
v -0.25145715 -0.49687311 0.78287363
v -0.22306316 -0.48868480 -0.77321678
v -0.25016579 -0.48842415 -0.76775318
v -0.23869315 -0.49650478 -0.77311677
v -0.23478314 -0.48868480 -0.77321678
v -0.23869315 -0.48869476 -0.77331680
v -0.16923743 -0.49306160 -0.70340413
v -0.19181316 -0.48868480 0.77364320
v -0.19181316 -0.48869476 0.77374321
v -0.18791316 -0.48869476 0.77374321
v -0.21916316 -0.49650478 -0.77321678
v -0.22306316 -0.49650478 -0.77321678
v -0.27384314 -0.48845476 -0.55446678
v -0.27775314 -0.48856476 -0.55446678
v -0.30346641 -0.48465720 -0.44203585
v -0.18009315 -0.49650478 0.77364320
v -0.22697315 -0.49650478 -0.77321678
v -0.21134315 -0.48868480 0.77364320
v -0.22306316 -0.48868480 0.77364320
v -0.21916316 -0.48869476 0.77374321
v -0.24000393 -0.48695180 0.73856354
v -0.23478314 -0.48868480 0.77364320
v -0.22306316 -0.49650478 0.77354318
v -0.22697315 -0.49650478 0.77354318
v -0.23087315 -0.48868480 0.77364320
v -0.21916316 -0.49650478 0.77364320
v -0.21916316 -0.49650478 0.77354318
v -0.19962315 -0.48869476 -0.77331680
v -0.23869315 -0.48868480 0.77364320
v -0.20353314 -0.48868480 0.77364320
v -0.16056316 -0.48868480 0.77364320
v -0.16447315 -0.48868480 0.77364320
v -0.16056316 -0.48869476 0.77374321
v -0.20744315 -0.49650478 -0.77321678
v -0.22450954 -0.49714330 -0.78601670
v -0.19572315 -0.48868480 0.77364320
v -0.20744315 -0.48868480 0.77364320
v -0.24678503 -0.49601105 -0.76318002
v -0.14494315 -0.48869476 -0.77331680
v -0.14103314 -0.48869476 -0.77331680
v -0.16447315 -0.49650478 0.77354318
v -0.16837315 -0.49650478 0.77364320
v -0.16837315 -0.49650478 0.77354318
v -0.12541316 -0.49650478 -0.77321678
v -0.13322315 -0.48868480 -0.77321678
v -0.19572315 -0.49650478 -0.77311677
v -0.16447315 -0.48869476 -0.77331680
v -0.17228314 -0.48868480 0.77364320
v -0.16837315 -0.48868480 0.77364320
v -0.17619315 -0.49650478 0.77354318
v -0.17619315 -0.49650478 0.77364320
v -0.19572315 -0.49650478 0.77354318
v -0.19962315 -0.49650478 0.77354318
v -0.21525314 -0.49650478 0.77364320
v -0.20353314 -0.49650478 0.77354318
v -0.20744315 -0.49650478 0.77364320
v -0.20353314 -0.49650478 0.77364320
v -0.21134315 -0.49650478 0.77364320
v -0.15666316 -0.49650478 0.77364320
v -0.15666316 -0.49650478 0.77354318
v -0.15275314 -0.49650478 0.77354318
v -0.31287608 -0.50037932 -0.93776244
v -0.20744315 -0.49650478 0.77354318
v -0.18791316 -0.49650478 0.77364320
v -0.19181316 -0.49650478 0.77364320
v -0.21070810 -0.50014311 0.84715259
v -0.19181316 -0.49650478 0.77354318
v -0.18791316 -0.49650478 0.77354318
v -0.16447315 -0.49650478 -0.77311677
v -0.18400314 -0.48868480 -0.77321678
v -0.15838417 -0.49650508 -0.77326560
v -0.15666316 -0.48869476 -0.77331680
v -0.06291316 -0.49670476 -0.77712679
v -0.15666316 -0.48868480 0.77364320
v -0.15275314 -0.48868480 0.77364320
v -0.19962315 -0.49650478 0.77364320
v -0.19962315 -0.49650478 -0.77311677
v -0.16837315 -0.48869476 -0.77331680
v -0.18400314 -0.49650478 -0.77321678
v -0.18009315 -0.49650478 -0.77311677
v -0.16056316 -0.49650478 -0.77311677
v -0.15666316 -0.49650478 -0.77311677
v -0.17228314 -0.49650478 -0.77321678
v -0.16837315 -0.49650478 -0.77321678
v -0.16447315 -0.49650478 -0.77321678
v -0.16837315 -0.49650478 -0.77311677
v -0.22992785 -0.49316794 -0.70549881
v -0.16431101 -0.48546436 -0.70801276
v -0.14494315 -0.49650478 -0.77311677
v -0.14494315 -0.49650478 -0.77321678
v -0.14103314 -0.49650478 -0.77321678
v -0.17619315 -0.49650478 -0.77311677
v -0.17619315 -0.49650478 -0.77321678
v -0.17228314 -0.49650478 -0.77311677
v -0.13322315 -0.48868480 0.77364320
v -0.08244315 -0.48868480 -0.77321678
v -0.10076583 -0.48622942 -0.72359991
v -0.15666316 -0.48869476 0.77374321
v -0.18009315 -0.48868480 0.77364320
v -0.18400314 -0.48868480 0.77364320
v -0.18009315 -0.48869476 0.77374321
v -0.16447315 -0.48869476 0.77374321
v -0.18009315 -0.49650478 -0.77321678
v -0.14103314 -0.49650478 -0.77311677
v -0.13712315 -0.49650478 -0.77321678
v -0.18791316 -0.48868480 0.77364320
v -0.15649460 -0.49714765 0.78654754
v -0.16056316 -0.49650478 0.77364320
v -0.17228314 -0.49650478 0.77354318
v -0.18572108 -0.49410734 0.72509199
v -0.17619315 -0.48868480 0.77364320
v -0.18400314 -0.48869476 0.77374321
v -0.16447315 -0.49650478 0.77364320
v -0.18400314 -0.49650478 0.77364320
v -0.16056316 -0.49650478 0.77354318
v -0.15275314 -0.49650478 -0.77321678
v -0.15275314 -0.49650478 -0.77311677
v -0.01603316 -0.49650478 -0.77321678
v -0.01994316 -0.49650478 -0.77311677
v -0.01994316 -0.49650478 -0.77321678
v -0.13161245 -0.49777204 -0.79870802
v -0.14884315 -0.48869476 -0.77331680
v -0.15275314 -0.48868480 -0.77321678
v -0.14884315 -0.48868480 -0.77321678
v -0.12541316 -0.49650478 0.77364320
v -0.12931316 -0.49650478 0.77364320
v -0.16056316 -0.49650478 -0.77321678
v -0.14884315 -0.49650478 -0.77321678
v -0.10587316 -0.49650478 -0.77321678
v -0.10197315 -0.49650478 -0.77321678
v -0.14884315 -0.49650478 0.77364320
v -0.14494315 -0.49650478 0.77354318
v -0.13712315 -0.48869476 -0.77331680
v -0.13712315 -0.48868480 -0.77321678
v -0.13322315 -0.48869476 -0.77331680
v -0.09806315 -0.48869476 -0.77331680
v -0.09583251 -0.48869741 -0.77334350
v -0.16837315 -0.48869476 0.77374321
v -0.09416316 -0.49650478 -0.77311677
v -0.09025316 -0.49650478 -0.77321678
v -0.09025316 -0.49650478 -0.77311677
v -0.11369315 -0.49650478 -0.77311677
v -0.11369315 -0.49650478 -0.77321678
v -0.10978316 -0.49650478 -0.77321678
v -0.13322315 -0.49650478 -0.77321678
v -0.15666316 -0.48868480 -0.77321678
v -0.15275314 -0.48869476 -0.77331680
v -0.14494315 -0.48868480 -0.77321678
v -0.12541316 -0.48868480 0.77364320
v -0.12931316 -0.48868480 0.77364320
v -0.12541316 -0.48869476 0.77374321
v -0.13322315 -0.49650478 0.77364320
v -0.10978316 -0.49650478 -0.77311677
v -0.10587316 -0.49650478 -0.77311677
v -0.12150316 -0.49650478 0.77354318
v -0.12150316 -0.49650478 0.77364320
v -0.14494315 -0.48869476 0.77374321
v -0.09419316 0.04645523 -0.30446675
v -0.09429315 0.04645523 -0.30056676
v -0.09416316 0.04650523 -0.30056676
v -0.17228314 -0.48869476 0.77374321
v -0.17619315 -0.48869476 0.77374321
v -0.11759315 -0.49650478 -0.77321678
v -0.12150316 -0.49650478 -0.77321678
v -0.14494315 -0.49650478 0.77364320
v -0.14929000 -0.48560178 0.71132380
v -0.17228314 -0.49650478 0.77364320
v -0.15275314 -0.49650478 0.77364320
v -0.13712315 -0.48869476 0.77374321
v -0.14884315 -0.48868480 0.77364320
v -0.12541316 -0.49650478 -0.77311677
v -0.18250991 -0.49806640 0.93416202
v -0.10978316 -0.48869476 -0.77331680
v -0.10978316 -0.48868480 -0.77321678
v -0.12541316 -0.49650478 0.77354318
v -0.14884315 -0.49650478 -0.77311677
v -0.04728316 -0.48868480 -0.77321678
v -0.03947316 -0.48887479 -0.77712679
v -0.04728316 -0.48869476 -0.77331680
v -0.14103314 -0.48868480 -0.77321678
v -0.10197315 -0.49650478 -0.77311677
v 0.00803256 -0.50032812 -0.85050476
v -0.10978316 -0.49650478 0.77364320
v -0.10978316 -0.49650478 0.77354318
v -0.10587316 -0.49650478 0.77354318
v -0.10587316 -0.48869476 -0.77331680
v -0.11759315 -0.48869476 -0.77331680
v -0.11369315 -0.48869476 -0.77331680
v -0.09806315 -0.49650478 -0.77311677
v -0.09416316 -0.48868480 -0.77321678
v -0.13322315 -0.48869476 0.77374321
v -0.12931316 -0.48869476 0.77374321
v -0.12150316 -0.48868480 -0.77321678
v -0.12150316 -0.48869476 -0.77331680
v -0.09659355 -0.49650493 -0.77326953
v 0.06598684 -0.48869476 -0.77331680
v 0.06598684 -0.48868480 -0.77321678
v 0.06989684 -0.48869476 -0.77331680
v -0.12541316 -0.48868480 -0.77321678
v -0.12150316 -0.49650478 -0.77311677
v -0.11759315 -0.49650478 -0.77311677
v -0.14103314 -0.49650478 0.77354318
v -0.01603316 -0.49650478 -0.77311677
v -0.01212316 -0.49650478 -0.77321678
v -0.08466088 -0.49650514 0.77363008
v -0.09025316 -0.49650478 0.77364320
v -0.10197315 -0.48869476 -0.77331680
v -0.12171850 -0.49268830 -0.69587052
v -0.09806315 -0.48868480 -0.77321678
v -0.19751874 -0.48828280 -0.60583889
v -0.05509316 -0.48868480 0.77364320
v -0.05900315 -0.48868480 0.77364320
v -0.05509316 -0.48869476 0.77374321
v -0.10197315 -0.49650478 0.77354318
v -0.10197315 -0.49650478 0.77364320
v -0.10587316 -0.49650478 0.77364320
v -0.16806339 -0.48702723 0.74008542
v -0.11759315 -0.48868480 0.77364320
v -0.11759315 -0.49650478 0.77354318
v -0.11369315 -0.48868480 0.77364320
v -0.10978316 -0.48868480 0.77364320
v -0.08244315 -0.49650478 0.77364320
v -0.07853316 -0.49650478 0.77354318
v -0.07853316 -0.49650478 0.77364320
v -0.07853316 -0.48869476 0.77374321
v -0.08244315 -0.48869476 0.77374321
v -0.11759315 -0.49650478 0.77364320
v -0.09806315 -0.49650478 0.77354318
v -0.10197315 -0.48869476 0.77374321
v -0.12150316 -0.48868480 0.77364320
v -0.12150316 -0.48869476 0.77374321
v -0.11759315 -0.48869476 0.77374321
v -0.11369315 -0.49650478 0.77354318
v -0.11369315 -0.49650478 0.77364320
v -0.12931316 -0.49650478 0.77354318
v -0.10167332 -0.49060103 0.81238061
v -0.10379987 -0.48631331 0.72565502
v -0.08634315 -0.49650478 -0.77321678
v -0.09806315 -0.49650478 -0.77321678
v -0.08634315 -0.49650478 -0.77311677
v -0.11016214 -0.48960680 -0.79182804
v -0.06681315 -0.49650478 -0.77311677
v -0.00431316 -0.48868480 -0.77321678
v -0.05119315 -0.48869476 -0.77331680
v -0.05509316 -0.48868480 -0.77321678
v -0.06291316 -0.49650478 -0.77311677
v -0.07853316 -0.49650478 -0.77311677
v -0.07853316 -0.49650478 -0.77321678
v -0.07462316 -0.49650478 -0.77321678
v -0.09806315 -0.49650478 0.77364320
v -0.00041316 -0.49650478 -0.77311677
v -0.00041316 -0.49650478 -0.77321678
v 0.00348684 -0.49650478 -0.77321678
v -0.08244315 -0.49650478 -0.77311677
v -0.07462316 -0.48869476 -0.77331680
v -0.06291316 -0.48868480 -0.77321678
v -0.07462316 -0.49708477 -0.78493679
v -0.09416316 -0.49650478 0.77354318
v -0.09025316 -0.49650478 0.77354318
v -0.03556315 -0.48869476 -0.77331680
v -0.03947316 -0.48868480 -0.77321678
v -0.03556315 -0.48868480 -0.77321678
v -0.09806315 0.04509523 -0.30446675
v 0.03864684 -0.49650478 -0.77311677
v -0.07853316 -0.48868480 -0.77321678
v -0.11369315 -0.48869476 0.77374321
v -0.06681315 -0.48869476 -0.77331680
v -0.08032892 -0.49527287 0.74865311
v -0.03651572 -0.49805686 -0.80451900
v -0.10978316 -0.48869476 0.77374321
v -0.10587316 -0.48869476 0.77374321
v -0.05119315 -0.48926476 -0.78493679
v -0.05509316 -0.48869476 -0.77331680
v -0.06681315 -0.49650478 -0.77321678
v -0.05119315 -0.49650478 -0.77311677
v -0.04728316 -0.49650478 -0.77311677
v -0.04417903 -0.48758510 -0.75094795
v -0.05509316 -0.49689475 -0.78103679
v -0.05509316 -0.49650478 -0.77311677
v -0.10197315 -0.48868480 0.77364320
v -0.10587316 -0.48868480 0.77364320
v -0.09806315 -0.48868480 0.77364320
v -0.06291316 -0.48868480 0.77364320
v -0.05900315 -0.48869476 0.77374321
v -0.06681315 -0.48869476 0.77374321
v -0.07072315 -0.48869476 0.77374321
v -0.08244315 -0.48868480 0.77364320
v -0.09416316 -0.48868480 0.77364320
v -0.09416316 -0.48869476 0.77374321
v -0.09025316 -0.48869476 0.77374321
v -0.08634315 -0.48868480 0.77364320
v -0.09025316 -0.48868480 0.77364320
v -0.08634315 -0.48869476 0.77374321
v -0.08634315 -0.49650478 0.77354318
v -0.09806315 -0.48869476 0.77374321
v -0.01994316 -0.48869476 -0.77331680
v -0.02384315 -0.48868480 -0.77321678
v -0.07072315 -0.49650478 0.77354318
v -0.09416316 -0.49650478 0.77364320
v -0.07853316 -0.48869476 -0.77331680
v -0.06291316 -0.49650478 -0.77321678
v -0.04728316 -0.49650478 -0.77321678
v 0.03864684 -0.48869476 -0.77331680
v 0.03864684 -0.48868480 -0.77321678
v 0.04254684 -0.48869476 -0.77331680
v -0.02775316 -0.48869476 -0.77331680
v -0.03166316 -0.48868480 -0.77321678
v -0.02775316 -0.48868480 -0.77321678
v -0.09416316 0.04296523 -0.29665676
v -0.05900315 -0.48869476 -0.77331680
v -0.05900315 -0.48868480 -0.77321678
v -0.05119315 -0.49650478 -0.77321678
v -0.03556315 -0.49650478 -0.77311677
v -0.03166316 -0.49650478 -0.77321678
v -0.07458330 -0.49783209 0.80038160
v -0.07072315 -0.48868480 0.77364320
v -0.06681315 -0.48868480 0.77364320
v -0.09416328 0.04646517 -0.30446824
v -0.09415560 0.04650658 -0.30054751
v -0.09416316 0.04563523 -0.30837676
v -0.09410316 0.04645523 -0.30446675
v 0.12458684 -0.48869476 -0.77331680
v 0.12067685 -0.48869476 -0.77331680
v 0.12067685 -0.48868480 -0.77321678
v -0.07462316 -0.48868480 0.77364320
v -0.07853316 -0.48868480 0.77364320
v -0.05900315 -0.49650478 -0.77311677
v -0.06291316 -0.48869476 -0.77331680
v -0.06681315 -0.49650478 0.77364320
v -0.07072315 -0.49650478 0.77364320
v 0.00739684 -0.49650478 -0.77311677
v 0.00348684 -0.49650478 -0.77311677
v 0.00739684 -0.49650478 -0.77321678
v -0.05900315 -0.49650478 -0.77321678
v -0.06291316 -0.48869476 0.77374321
v -0.07462316 -0.49650478 0.77354318
v 0.02083629 -0.48868722 0.77366704
v 0.02301684 -0.48868480 0.77364320
v -0.03268635 -0.49481344 -0.73890263
v 0.04645685 -0.48869476 -0.77331680
v 0.05036684 -0.48869476 -0.77331680
v -0.03166316 -0.48869476 -0.77331680
v -0.05509316 -0.49650478 -0.77321678
v -0.06681315 -0.49650478 0.77354318
v -0.07462316 -0.49650478 0.77364320
v -0.04337315 -0.48869476 -0.77331680
v -0.08244315 -0.49650478 0.77354318
v -0.05801965 -0.49045098 0.80936497
v -0.06291316 -0.49650478 0.77354318
v -0.07462316 -0.48869476 0.77374321
v -0.04728316 -0.49650478 0.77354318
v -0.04337315 -0.49650478 0.77354318
v -0.06291316 -0.49650478 0.77364320
v -0.05119315 -0.49650478 0.77354318
v -0.01212316 -0.48868480 -0.77321678
v -0.05900315 -0.49650478 0.77354318
v -0.05119315 -0.48868480 0.77364320
v -0.05119315 -0.48869476 0.77374321
v -0.04337315 -0.48868480 0.77364320
v -0.04337315 -0.48869476 0.77374321
v -0.03947316 -0.48869476 0.77374321
v -0.03556315 -0.49650478 0.77364320
v -0.03947316 -0.49650478 0.77364320
v 0.05817684 -0.49650478 0.77364320
v 0.05817684 -0.49650478 0.77354318
v 0.06208684 -0.49650478 0.77354318
v -0.03947316 -0.48869476 -0.77331680
v 0.00348684 -0.48869476 -0.77331680
v 0.00739684 -0.48869476 -0.77331680
v -0.04337315 -0.48868480 -0.77321678
v -0.04337315 -0.49650478 -0.77321678
v -0.02384315 -0.49650478 -0.77321678
v -0.02384315 -0.49650478 -0.77311677
v -0.02384315 -0.48869476 -0.77331680
v -0.04816861 -0.50234586 -0.93603057
v -0.03166316 -0.48869476 0.77374321
v -0.03556315 -0.48869476 0.77374321
v -0.04337315 -0.49650478 -0.77311677
v 0.02301684 -0.48869476 -0.77331680
v 0.01911684 -0.48868480 -0.77321678
v 0.02301684 -0.48868480 -0.77321678
v -0.01603316 -0.48869476 -0.77331680
v 0.01520684 -0.49650478 -0.77311677
v 0.01911684 -0.49650478 -0.77321678
v 0.01911684 -0.49650478 -0.77311677
v -0.00041316 -0.48869476 -0.77331680
v -0.01212316 -0.48869476 -0.77331680
v 0.00739684 -0.49650478 0.77354318
v 0.00348684 -0.49650478 0.77364320
v 0.00348684 -0.49650478 0.77354318
v -0.02384315 -0.48868480 0.77364320
v -0.01994316 -0.48868480 0.77364320
v -0.06050232 -0.48705232 0.74056047
v 0.00348684 -0.48868480 -0.77321678
v -0.00041316 -0.48868480 -0.77321678
v 0.01129684 -0.48868480 -0.77321678
v -0.00041316 -0.48869476 0.77374321
v -0.00431316 -0.48869476 0.77374321
v -0.01212316 -0.49650478 -0.77311677
v -0.03947316 -0.48868480 0.77364320
v -0.03556315 -0.48868480 0.77364320
v -0.00822316 -0.48869476 -0.77331680
v -0.00822316 -0.48868480 -0.77321678
v -0.04728316 -0.49650478 0.77364320
v -0.03947316 -0.49650478 0.77354318
v -0.04337315 -0.49650478 0.77364320
v -0.04728316 -0.48868480 0.77364320
v -0.03556315 -0.49650478 0.77354318
v -0.03166316 -0.49650478 0.77354318
v -0.03166316 -0.49650478 0.77364320
v -0.05119315 -0.49650478 0.77364320
v -0.03166316 -0.48868480 0.77364320
v -0.04267154 -0.49739942 0.79163748
v 0.01129684 -0.49650478 -0.77311677
v -0.04728316 -0.48869476 0.77374321
v -0.01994316 -0.49650478 0.77364320
v -0.01603316 -0.49650478 0.77364320
v -0.02775316 -0.48868480 0.77364320
v -0.02775316 -0.48869476 0.77374321
v -0.02384315 -0.48869476 0.77374321
v -0.00822316 -0.49650478 0.77354318
v -0.01212316 -0.49650478 0.77364320
v -0.01212316 -0.49650478 0.77354318
v -0.00822316 -0.49650478 -0.77321678
v -0.00822316 -0.48868480 0.77364320
v -0.02384315 -0.49650478 0.77364320
v -0.01994316 -0.49650478 0.77354318
v -0.09751815 0.02636140 -0.30796990
v 0.02301684 -0.49650478 0.77354318
v 0.02692685 -0.49650478 0.77354318
v 0.01520684 -0.49650478 -0.77321678
v 0.00061516 -0.49051443 0.81062603
v 0.01520684 -0.48869476 -0.77331680
v 0.01520684 -0.48868480 -0.77321678
v 0.02301684 -0.49650478 -0.77311677
v 0.02301684 -0.49650478 -0.77321678
v -0.02384315 -0.49650478 0.77354318
v -0.00822316 -0.49650478 -0.77311677
v -0.00431316 -0.49650478 -0.77321678
v 0.02692685 -0.48868480 0.77364320
v 0.02692685 -0.48869476 0.77374321
v 0.01129684 -0.48869476 -0.77331680
v -0.00822316 -0.48869476 0.77374321
v 0.01129684 -0.49650478 -0.77321678
v 0.00739684 -0.49650478 0.77364320
v -0.00041316 -0.49650478 0.77364320
v -0.00431316 -0.49650478 -0.77311677
v -0.00431316 -0.48868480 0.77364320
v 0.17536683 -0.49650478 -0.77311677
v 0.17536683 -0.49650478 -0.77321678
v 0.17926686 -0.49650478 -0.77321678
v 0.02301684 -0.48869476 0.77374321
v -0.00041316 -0.48868480 0.77364320
v 0.03864684 -0.49650478 0.77364320
v 0.03473684 -0.49650478 0.77364320
v -0.00431316 -0.48869476 -0.77331680
v -0.01603316 -0.49650478 0.77354318
v -0.01212316 -0.48869476 0.77374321
v -0.00431316 -0.49650478 0.77354318
v 0.00739684 -0.48868480 0.77364320
v 0.00739684 -0.48869476 0.77374321
v 0.01129684 -0.48869476 0.77374321
v -0.02775316 -0.49650478 0.77354318
v -0.02775316 -0.49650478 0.77364320
v 0.04801259 -0.49460623 0.73518014
v -0.00530549 -0.49538118 0.75086457
v 0.00348684 -0.48868480 0.77364320
v -0.00041316 -0.49650478 0.77354318
v 0.03473684 -0.49650478 -0.77321678
v 0.05977867 -0.49726233 -0.78839564
v 0.03864684 -0.49650478 -0.77321678
v 0.00348684 -0.48869476 0.77374321
v 0.10618005 -0.50059319 0.93681830
v 0.02692685 -0.48868480 -0.77321678
v 0.03083684 -0.49650478 -0.77321678
v 0.02692685 -0.49650478 -0.77321678
v 0.02692685 -0.49650478 -0.77311677
v 0.03083684 -0.48869476 0.77374321
v 0.01911684 -0.48869476 -0.77331680
v -0.01326078 -0.49120852 -0.82431936
v 0.02517922 -0.49650484 0.77364850
v 0.02692685 -0.49650478 0.77364320
v 0.08942685 -0.49650478 0.77364320
v 0.06208684 -0.48869476 -0.77331680
v 0.05817684 -0.48869476 -0.77331680
v 0.05817684 -0.48868480 -0.77321678
v 0.07770685 -0.48869476 -0.77331680
v 0.07770685 -0.48868480 -0.77321678
v 0.08161684 -0.48869476 -0.77331680
v 0.02692685 -0.48869476 -0.77331680
v 0.03874855 -0.49011561 0.80256748
v 0.00739684 -0.48868480 -0.77321678
v 0.01129684 -0.49650478 0.77364320
v 0.01520684 -0.49650478 0.77354318
v 0.01520684 -0.49650478 0.77364320
v 0.01911684 -0.48869476 0.77374321
v 0.10716259 -0.48707554 -0.74069285
v 0.03083684 -0.48869476 -0.77331680
v 0.04254684 -0.48868480 -0.77321678
v 0.04645685 -0.49650478 -0.77321678
v 0.04645685 -0.49650478 -0.77311677
v 0.04254684 -0.49650478 -0.77311677
v 0.03083684 -0.49650478 -0.77311677
v 0.03473684 -0.49650478 -0.77311677
v 0.01911684 -0.49650478 0.77354318
v 0.03083684 -0.48868480 -0.77321678
v 0.03073489 -0.49277711 -0.69769847
v 0.03473684 -0.48868480 -0.77321678
v 0.04254684 -0.49650478 -0.77321678
v 0.04645685 -0.48868480 -0.77321678
v 0.05036684 -0.48868480 -0.77321678
v 0.03473684 -0.48869476 -0.77331680
v 0.07326999 -0.49797311 0.80324399
v 0.05036684 -0.49650478 -0.77311677
v 0.06989684 -0.49650478 -0.77311677
v 0.07379685 -0.49650478 -0.77321678
v 0.07379685 -0.49650478 -0.77311677
v 0.01129684 -0.49650478 0.77354318
v 0.05036684 -0.49650478 -0.77321678
v 0.01520684 -0.48868480 0.77364320
v 0.01129684 -0.48868480 0.77364320
v 0.01520684 -0.48869476 0.77374321
v 0.01911684 -0.49650478 0.77364320
v 0.03083684 -0.49650478 0.77364320
v 0.03083684 -0.48868480 0.77364320
v 0.06208684 -0.49650478 0.77364320
v 0.03473684 -0.48868480 0.77364320
v 0.03864684 -0.48868480 0.77364320
v 0.03083684 -0.49650478 0.77354318
v 0.03473684 -0.49650478 0.77354318
v 0.04254684 -0.49650478 0.77354318
v 0.05426685 -0.49650478 0.77354318
v 0.04645685 -0.48868480 0.77364320
v 0.05426685 -0.48868480 -0.77321678
v 0.03864684 -0.48869476 0.77374321
v 0.03473684 -0.48869476 0.77374321
v 0.06989684 -0.48868480 -0.77321678
v 0.05426685 -0.48869476 -0.77331680
v 0.05036684 -0.48869476 0.77374321
v 0.04645685 -0.48869476 0.77374321
v 0.07770685 -0.49650478 -0.77311677
v 0.08161684 -0.49650478 -0.77321678
v 0.08161684 -0.49650478 -0.77311677
v 0.06989684 -0.48869476 0.77374321
v 0.06598684 -0.48869476 0.77374321
v 0.09333684 -0.48869476 -0.77331680
v 0.08942685 -0.48869476 -0.77331680
v 0.08942685 -0.48868480 -0.77321678
v 0.05426685 -0.49650478 -0.77311677
v 0.05426685 -0.49650478 -0.77321678
v 0.05817684 -0.49650478 -0.77321678
v 0.06989684 -0.49650478 0.77354318
v -0.17881536 -0.46814904 0.32939783
v 0.22375661 -0.49695176 0.78810918
v 0.17926686 -0.49650478 0.77354318
v 0.17926686 -0.49650478 0.77364320
v 0.17536683 -0.49650478 0.77364320
v 0.06989684 -0.49650478 -0.77321678
v 0.10504685 -0.49650478 -0.77311677
v 0.10504685 -0.49650478 -0.77321678
v 0.10895685 -0.49650478 -0.77321678
v 0.08551684 -0.49650478 -0.77311677
v 0.08551684 -0.49650478 -0.77321678
v 0.08942685 -0.49650478 -0.77321678
v 0.04254684 -0.48868480 0.77364320
v 0.04254684 -0.48869476 0.77374321
v 0.05036684 -0.48868480 0.77364320
v -0.10695696 -0.50036293 0.85166055
v 0.07522770 -0.48760203 0.75169671
v 0.05817684 -0.49650478 -0.77311677
v 0.06208684 -0.49650478 -0.77321678
v 0.06208684 -0.49650478 -0.77311677
v 0.08551684 -0.48869476 0.77374321
v 0.08161684 -0.48869476 0.77374321
v 0.06208684 -0.48868480 -0.77321678
v 0.07379685 -0.48869476 -0.77331680
v 0.06208684 -0.48869476 0.77374321
v 0.05817684 -0.48869476 0.77374321
v 0.08161684 -0.48868480 -0.77321678
v 0.06598684 -0.49650478 -0.77321678
v 0.07379685 -0.48868480 -0.77321678
v 0.10504685 -0.48869476 -0.77331680
v 0.06989684 -0.49650478 0.77364320
v 0.07379685 -0.49650478 0.77354318
v 0.07379685 -0.49650478 0.77364320
v 0.02032749 -0.48674428 0.73437482
v 0.08161684 -0.48868480 0.77364320
v 0.08551684 -0.48868480 0.77364320
v 0.07770685 -0.49650478 0.77354318
v 0.08161684 -0.49650478 0.77354318
v 0.04254684 -0.49650478 0.77364320
v 0.04645685 -0.49650478 0.77354318
v 0.04645685 -0.49650478 0.77364320
v 0.03578534 -0.49650449 0.77346402
v 0.05426685 -0.49650478 0.77364320
v 0.05036684 -0.49650478 0.77364320
v 0.07770685 -0.49650478 -0.77321678
v 0.05817684 -0.48868480 0.77364320
v 0.05426685 -0.48869476 0.77374321
v 0.05036684 -0.49650478 0.77354318
v 0.05426685 -0.48868480 0.77364320
v 0.06598684 -0.48868480 0.77364320
v 0.06598684 -0.49650478 0.77364320
v 0.06598684 -0.49650478 0.77354318
v 0.06208684 -0.48868480 0.77364320
v 0.09333684 -0.48869476 0.77374321
v 0.08942685 -0.48869476 0.77374321
v 0.10523587 -0.49081632 0.81676471
v 0.07770685 -0.49650478 0.77364320
v 0.08161684 -0.49650478 0.77364320
v 0.10111269 -0.49746084 -0.79243344
v 0.11676684 -0.49650478 0.77364320
v 0.08551684 -0.48868480 -0.77321678
v 0.10114684 -0.48868480 -0.77321678
v 0.10504685 -0.48868480 -0.77321678
v 0.07770685 -0.48868480 0.77364320
v 0.10504685 -0.49650478 0.77354318
v 0.10895685 -0.49650478 0.77354318
v 0.08551684 -0.48869476 -0.77331680
v 0.10095436 -0.48548660 0.70896614
v 0.10114684 -0.49650478 -0.77311677
v 0.10114684 -0.49650478 -0.77321678
v 0.08551684 -0.49650478 0.77364320
v 0.06598684 -0.49650478 -0.77311677
v 0.16754685 -0.48868480 0.77364320
v 0.05298649 -0.48905250 -0.78065139
v 0.08942685 -0.49650478 -0.77311677
v 0.10895685 -0.49650478 -0.77311677
v 0.11286684 -0.49650478 -0.77321678
v 0.11286684 -0.49650478 -0.77311677
v 0.11286684 -0.48869476 -0.77331680
v 0.11286684 -0.48868480 -0.77321678
v 0.11676684 -0.48869476 -0.77331680
v 0.09333684 -0.48868480 -0.77321678
v 0.10576609 -0.49480262 -0.73868376
v 0.09333684 -0.49650478 -0.77321678
v 0.06989684 -0.48868480 0.77364320
v 0.07379685 -0.48869476 0.77374321
v 0.09845243 -0.49100640 -0.82021207
v 0.08551684 -0.49650478 0.77354318
v 0.07379685 -0.48868480 0.77364320
v 0.11676684 -0.49650478 -0.77321678
v 0.09333684 -0.49650478 -0.77311677
v 0.09723684 -0.49650478 -0.77321678
v 0.11676684 -0.48868480 -0.77321678
v 0.10504685 -0.48869476 0.77374321
v 0.10114684 -0.48869476 0.77374321
v 0.09333684 -0.48868480 0.77364320
v 0.09723684 -0.48868480 0.77364320
v 0.18338583 -0.49060330 0.81245065
v 0.10895685 -0.48869476 -0.77331680
v 0.11286684 -0.49650478 0.77354318
v 0.07770685 -0.48869476 0.77374321
v 0.08942685 -0.49650478 0.77354318
v 0.09333684 -0.49650478 0.77354318
v 0.09333684 -0.49650478 0.77364320
v 0.11653394 -0.49358734 0.71466428
v 0.09723684 -0.48869476 0.77374321
v 0.08942685 -0.48868480 0.77364320
v 0.11676684 -0.49650478 0.77354318
v 0.10504685 -0.49650478 0.77364320
v 0.10895685 -0.49650478 0.77364320
v 0.11286684 -0.49650478 0.77364320
v 0.09723684 -0.49650478 0.77354318
v 0.12067685 -0.49650478 0.77354318
v 0.10114684 -0.49650478 0.77354318
v 0.09723684 -0.49650478 0.77364320
v 0.17086545 -0.49479139 -0.73848897
v 0.12285885 -0.49650508 -0.77326560
v 0.13239685 -0.49650478 -0.77321678
v 0.12848686 -0.49650478 -0.77321678
v 0.12067685 -0.49650478 -0.77321678
v 0.14801686 -0.49650478 0.77364320
v 0.09723684 -0.48868480 -0.77321678
v 0.10114684 -0.48869476 -0.77331680
v 0.15583684 -0.49650478 -0.77321678
v 0.14801686 -0.48868480 -0.77321678
v 0.15192685 -0.48868480 -0.77321678
v 0.09723684 -0.48869476 -0.77331680
v 0.06240778 -0.49641484 0.93007237
v 0.12458684 -0.48868480 -0.77321678
v 0.18317685 -0.49650478 -0.77311677
v 0.18708684 -0.49650478 -0.77311677
v 0.12848686 -0.48869476 -0.77331680
v 0.12848686 -0.48868480 -0.77321678
v 0.10895685 -0.48868480 -0.77321678
v 0.13239685 -0.49650478 -0.77311677
v 0.13629685 -0.49650478 -0.77311677
v 0.14020684 -0.49650478 0.77364320
v 0.14411683 -0.49650478 0.77354318
v 0.14411683 -0.49650478 0.77364320
v 0.11676684 -0.49650478 -0.77311677
v 0.12067685 -0.49650478 -0.77311677
v 0.12067685 -0.49650478 0.77364320
v 0.09723684 -0.49650478 -0.77311677
v 0.10895685 -0.48869476 0.77374321
v 0.10114684 -0.49650478 0.77364320
v 0.12848686 -0.49650478 -0.77311677
v 0.13239685 -0.48869476 -0.77331680
v 0.13239685 -0.48868480 -0.77321678
v 0.13629685 -0.48868480 -0.77321678
v 0.12458684 -0.49650478 -0.77311677
v 0.15192685 -0.49650478 -0.77321678
v 0.14020684 -0.48868480 -0.77321678
v 0.14411683 -0.48868480 -0.77321678
v 0.10114684 -0.48868480 0.77364320
v 0.12067685 -0.48868480 0.77364320
v 0.12067685 -0.48869476 0.77374321
v 0.12458684 -0.48869476 0.77374321
v 0.13239685 -0.49650478 0.77364320
v 0.10504685 -0.48868480 0.77364320
v 0.10895685 -0.48868480 0.77364320
v 0.13629685 -0.48869476 -0.77331680
v 0.11286684 -0.48868480 0.77364320
v 0.11286684 -0.48869476 0.77374321
v 0.12458684 -0.48868480 0.77364320
v 0.11676684 -0.48869476 0.77374321
v 0.11676684 -0.48868480 0.77364320
v 0.15192685 -0.49650478 0.77364320
v 0.12458684 -0.49650478 0.77354318
v 0.12458684 -0.49650478 0.77364320
v 0.13239685 -0.48869476 0.77374321
v 0.12848686 -0.48869476 0.77374321
v 0.14801686 -0.48869476 0.77374321
v 0.13239685 -0.49650478 0.77354318
v 0.12848686 -0.49650478 0.77364320
v 0.15192685 -0.48869476 -0.77331680
v 0.15583684 -0.48869476 -0.77331680
v 0.07779367 -0.44443348 -0.15167513
v 0.16171052 -0.49790591 -0.80144387
v 0.15583684 -0.49650478 -0.77311677
v 0.15973686 -0.49650478 -0.77311677
v 0.17926686 -0.49650478 -0.77311677
v 0.14020684 -0.49650478 -0.77321678
v 0.14411683 -0.49650478 -0.77311677
v 0.14411683 -0.49650478 -0.77321678
v 0.14801686 -0.49650478 -0.77321678
v 0.17145684 -0.49650478 -0.77311677
v 0.17145684 -0.49650478 -0.77321678
v 0.15583684 -0.48868480 0.77364320
v 0.15192685 -0.48868480 0.77364320
v 0.15583684 -0.48869476 0.77374321
v 0.13629685 -0.49650478 0.77354318
v 0.13629685 -0.49650478 0.77364320
v 0.16754685 -0.48869476 -0.77331680
v 0.16754685 -0.48868480 -0.77321678
v 0.17145684 -0.48869476 -0.77331680
v 0.13629685 -0.48868480 0.77364320
v 0.13239685 -0.48868480 0.77364320
v 0.13629685 -0.48869476 0.77374321
v 0.15192685 -0.49650478 -0.77311677
v 0.14510021 -0.48925558 -0.78481275
v 0.14020684 -0.48869476 -0.77331680
v 0.14020684 -0.48868480 0.77364320
v 0.14020684 -0.49650478 -0.77311677
v 0.17342845 -0.48741943 -0.74755907
v 0.15192685 -0.49650478 0.77354318
v 0.15583684 -0.49650478 0.77354318
v 0.13629685 -0.49650478 -0.77321678
v 0.36286685 0.17914523 -0.26931676
v 0.36278686 0.17926523 -0.26931676
v 0.30426443 0.39800015 -0.12869985
v 0.14411683 -0.48869476 -0.77331680
v 0.14801686 -0.48869476 -0.77331680
v 0.18708684 -0.48869476 0.77374321
v 0.18317685 -0.48869476 0.77374321
v 0.14130004 -0.49803954 0.80458170
v 0.14801686 -0.49650478 -0.77311677
v 0.14801686 -0.48868480 0.77364320
v 0.12848686 -0.49650478 0.77354318
v 0.20614223 -0.49472851 -0.73718989
v 0.15583684 -0.48868480 -0.77321678
v 0.17926686 -0.48868480 0.77364320
v 0.18317685 -0.48868480 0.77364320
v 0.17052814 -0.49597645 0.76291460
v 0.14411683 -0.48869476 0.77374321
v 0.17145684 -0.48868480 -0.77321678
v 0.16364685 -0.49650478 -0.77321678
v 0.16754685 -0.49650478 -0.77321678
v 0.16364685 -0.48869476 -0.77331680
v 0.15973686 -0.48868480 -0.77321678
v 0.16364685 -0.48868480 -0.77321678
v 0.17926686 -0.48869476 0.77374321
v 0.25338241 -0.49646938 0.77091718
v 0.14801686 -0.49650478 0.77354318
v 0.14411683 -0.48868480 0.77364320
v 0.15192685 -0.48869476 0.77374321
v 0.16364685 -0.48869476 0.77374321
v 0.14020684 -0.48869476 0.77374321
v 0.12848686 -0.48868480 0.77364320
v 0.15973686 -0.48869476 -0.77331680
v 0.15583684 -0.49650478 0.77364320
v 0.14020684 -0.49650478 0.77354318
v 0.16754685 -0.48869476 0.77374321
v 0.17145684 -0.48869476 0.77374321
v 0.18708684 -0.48869476 -0.77331680
v 0.18317685 -0.48869476 -0.77331680
v 0.18317685 -0.48868480 -0.77321678
v 0.17536683 -0.48869476 -0.77331680
v 0.17926686 -0.48869476 -0.77331680
v 0.17536683 -0.48868480 -0.77321678
v 0.15973686 -0.49650478 -0.77321678
v 0.16754685 -0.49650478 -0.77311677
v 0.18708684 -0.48868480 -0.77321678
v 0.16754685 -0.49650478 0.77364320
v 0.16364685 -0.49650478 0.77364320
v 0.17145684 -0.48868480 0.77364320
v 0.17536683 -0.48869476 0.77374321
v 0.19489685 -0.49650478 -0.77321678
v 0.19098686 -0.49650478 -0.77311677
v 0.19098686 -0.49650478 -0.77321678
v 0.20661683 -0.48869476 -0.77331680
v 0.21051686 -0.48869476 -0.77331680
v 0.19879685 -0.48868480 -0.77321678
v 0.16364685 -0.49650478 0.77354318
v 0.15973686 -0.49650478 0.77354318
v 0.17926686 -0.48868480 -0.77321678
v 0.21442685 -0.48868480 -0.77321678
v 0.20270684 -0.48869476 -0.77331680
v 0.20270684 -0.48868480 -0.77321678
v 0.29213506 0.33308297 -0.13748954
v 0.23004685 -0.23869477 0.00043323
v 0.20661683 -0.48868480 -0.77321678
v 0.18708684 -0.49650478 -0.77321678
v 0.18317685 -0.49650478 -0.77321678
v 0.15973686 -0.48868480 0.77364320
v 0.15973686 -0.48869476 0.77374321
v 0.16364685 -0.49650478 -0.77311677
v 0.29064596 0.37241963 -0.17239837
v 0.21051686 -0.49650478 -0.77311677
v 0.21442685 -0.49650478 -0.77311677
v 0.28081685 0.28864521 0.01192323
v 0.28072253 0.28865537 0.01849584
v 0.28083685 0.28853521 0.01583323
v 0.19489685 -0.49650478 -0.77311677
v 0.16754685 -0.49650478 0.77354318
v 0.17145684 -0.49650478 0.77354318
v 0.19879685 -0.49650478 -0.77321678
v 0.15691921 -0.48738772 0.74734348
v 0.16558813 -0.48868445 0.77363777
v 0.17145684 -0.49650478 0.77364320
v 0.17536683 -0.49650478 0.77354318
v 0.18317685 -0.49650478 0.77364320
v 0.18708684 -0.49650478 0.77354318
v 0.18708684 -0.49650478 0.77364320
v 0.18317685 -0.49650478 0.77354318
v 0.19098686 -0.48869476 -0.77331680
v 0.20735428 -0.50035888 -0.85111111
v 0.19879685 -0.49650478 -0.77311677
v 0.20661683 -0.49650478 -0.77321678
v 0.21051686 -0.49650478 -0.77321678
v 0.17536683 -0.48868480 0.77364320
v 0.19489685 -0.48869476 -0.77331680
v 0.19879685 -0.48869476 -0.77331680
v 0.19489685 -0.48868480 0.77364320
v 0.22801794 -0.23766704 0.00054950
v 0.15973686 -0.49650478 0.77364320
v 0.19489685 -0.48868480 -0.77321678
v 0.18708684 -0.48868480 0.77364320
v 0.19879685 -0.49650478 0.77354318
v 0.19879685 -0.48868480 0.77364320
v 0.19879685 -0.48869476 0.77374321
v 0.20270684 -0.48868480 0.77364320
v 0.20270684 -0.48869476 0.77374321
v 0.24589568 -0.48779392 -0.75189954
v 0.19098686 -0.48868480 -0.77321678
v 0.21051686 -0.48868480 -0.77321678
v 0.21442685 -0.48869476 -0.77331680
v 0.20661683 -0.49650478 -0.77311677
v 0.21833684 -0.49650478 -0.77321678
v 0.21833684 -0.49650478 -0.77311677
v 0.24248214 -0.26976258 -0.01683852
v 0.21051686 -0.48869476 0.77374321
v 0.19098686 -0.48869476 0.77374321
v 0.19489685 -0.48869476 0.77374321
v 0.23004685 -0.48887479 -0.77712679
v 0.23004685 -0.48869476 -0.77331680
v 0.22223686 -0.48868480 -0.77321678
v 0.21833684 -0.48868480 -0.77321678
v 0.21442685 -0.49650478 -0.77321678
v 0.20270684 -0.49650478 -0.77311677
v 0.20270684 -0.49650478 -0.77321678
v 0.24567685 -0.49650478 -0.77321678
v 0.22223686 -0.48869476 -0.77331680
v 0.21442685 -0.48907477 -0.78103679
v 0.21833684 -0.48869476 -0.77331680
v 0.17813967 -0.49166864 -0.83359700
v 0.21051686 -0.49650478 0.77354318
v 0.20661683 -0.49650478 0.77364320
v 0.20661683 -0.49650478 0.77354318
v 0.35540679 -0.50018102 -0.89570922
v 0.19879685 -0.49650478 0.77364320
v 0.20270684 -0.49650478 0.77364320
v 0.21267922 -0.49650484 0.77364850
v 0.21442685 -0.49650478 0.77364320
v 0.21442685 -0.49650478 0.77354318
v 0.19489685 -0.49650478 0.77364320
v 0.23395684 -0.49650478 -0.77311677
v 0.23395684 -0.49650478 -0.77321678
v 0.23786683 -0.49650478 -0.77321678
v 0.24176686 -0.49689475 -0.78103679
v 0.24176686 -0.49650478 -0.77311677
v 0.23786683 -0.49650478 -0.77311677
v 0.23395684 -0.24255477 0.00021323
v 0.23004685 -0.23874478 0.00021323
v 0.24176686 -0.49650478 -0.77321678
v 0.21442685 -0.48868480 0.77364320
v 0.21051686 -0.48868480 0.77364320
v 0.21442685 -0.48869476 0.77374321
v 0.22963735 -0.49326527 0.70797920
v 0.20661683 -0.48869476 0.77374321
v 0.19098686 -0.49650478 0.77354318
v 0.19098686 -0.49650478 0.77364320
v 0.19098686 -0.48868480 0.77364320
v 0.20661683 -0.48868480 0.77364320
v 0.20529608 -0.48800337 0.75973189
v 0.21833684 -0.49650478 0.77354318
v 0.21833684 -0.49650478 0.77364320
v 0.19489685 -0.49650478 0.77354318
v 0.23786683 -0.49650478 0.77364320
v 0.21833684 -0.48869476 0.77374321
v 0.20270684 -0.49650478 0.77354318
v 0.23004685 -0.49650478 -0.77311677
v 0.22044799 -0.48867077 0.77348316
v 0.24176686 -0.49650478 0.77354318
v 0.22223686 -0.49650478 0.77364320
v 0.23004685 -0.48868480 0.77364320
v 0.22614685 -0.48868480 0.77364320
v 0.23004685 -0.48869476 0.77374321
v 0.23004685 -0.49650478 0.77364320
v 0.23004685 -0.49650478 0.77354318
v 0.23395684 -0.49650478 0.77354318
v 0.23786683 -0.48869476 0.77374321
v 0.23395684 -0.48869476 0.77374321
v 0.30971622 -0.49838129 -0.93547988
v 0.22223686 -0.49650478 -0.77311677
v 0.22614685 -0.49650478 -0.77311677
v 0.23397657 -0.24257860 0.00022096
v 0.21185201 -0.48980227 -0.79575658
v 0.23004685 -0.49650478 -0.77321678
v 0.22614685 -0.49650478 -0.77321678
v 0.22223686 -0.49650478 -0.77321678
v 0.22614685 -0.48869476 -0.77331680
v 0.22614685 -0.48868480 -0.77321678
v 0.23399031 -0.24263126 0.00010886
v 0.23395684 -0.49650478 0.77364320
v 0.22223686 -0.48869476 0.77374321
v 0.22614685 -0.49650478 0.77354318
v 0.22223686 -0.49650478 0.77354318
v 0.24565504 -0.48792839 0.75822586
v 0.22614685 -0.49650478 0.77364320
v 0.23786683 -0.48868480 0.77364320
v 0.22223686 -0.48868480 0.77364320
v 0.22614685 -0.48869476 0.77374321
v 0.23786683 -0.49650478 0.77354318
v 0.23395684 -0.48868480 0.77364320
v 0.20316033 -0.49766091 0.79697996
v 0.24176686 -0.48869476 0.77374321
v 0.25151899 -0.48861974 0.77177668
v 0.26903713 -0.49140045 0.82835358
v 0.33532688 0.13284250 -0.31626073
v 0.24710897 -0.49598944 -0.76287353
v 0.34333685 0.13234523 -0.30837676
v 0.28083685 0.28861520 0.01192323
v 0.28081757 0.28833768 0.02037707
v 0.30429685 0.39801523 -0.12087677
v 0.40231338 -0.50268674 0.86889887
v 0.32397166 0.15039995 -0.31958988
v 0.33930910 0.13263582 -0.31231821
v 0.33951598 0.13231163 -0.31232217
v 0.36532685 0.17536522 -0.26931676
v 0.39020684 0.13086523 -0.26149675
v 0.28670967 0.29979759 0.01216693
v 0.30426684 0.39922521 -0.13649677
v 0.28083685 0.28864521 0.01095323
v 0.30426684 0.39800522 -0.12868679
v 0.31485540 0.45065045 -0.09896547
v 0.30428684 0.39801523 -0.12478677
v 0.25189325 -0.46728241 0.01122377
v 0.33949685 0.13239522 -0.31228676
v 0.35894716 0.17924358 -0.27327740
v 0.36284307 0.17928889 -0.26923656
v 0.30427384 0.39801285 -0.12870178
v 0.35897684 0.17926523 -0.27321675
v 0.30426684 0.39793524 -0.12478677
v 0.34920925 0.13216491 -0.30247104
v 0.35896030 0.17930263 -0.27321398
v 0.34340397 0.13236763 -0.30828184
v 0.35513505 0.17923762 -0.27718651
v 0.34684253 0.17638069 -0.28752047
v 0.39401686 0.13239522 -0.25759676
v 0.39400685 0.13629523 -0.25368676
v 0.39411685 0.13239522 -0.25752676
v 0.39488634 0.13795261 -0.25179312
v 0.39411685 0.13618523 -0.25368676
v 0.38548720 0.11723349 -0.28004870
v 0.39355269 0.14713848 -0.24818711
v 0.36436266 0.21202955 -0.24161208
v 0.39963779 0.13557701 -0.25949416
v 0.36009580 0.08492797 -0.33083087
v 0.39417765 0.13235731 -0.25756899
v 0.55671030 -0.46805429 -0.11035158
v 0.41379669 -0.47927567 0.51610702
v 0.35768881 -0.48358253 0.62277889
v 0.85174531 -0.49612394 0.47365889
f 2 3 256
f 1147 23 1
f 5 6 600
f 7 8 9
f 23 1147 139
f 10 11 12
f 15 16 17
f 19 20 135
f 24 25 166
f 27 28 175
f 30 31 278
f 32 33 34
f 91 23 139
f 37 38 166
f 39 40 41
f 12 38 42
f 43 44 45
f 17 46 47
f 48 49 265
f 51 52 53
f 54 55 56
f 754 57 58
f 721 23 111
f 61 62 63
f 265 64 65
f 56 66 54
f 67 17 47
f 68 69 70
f 11 72 166
f 23 91 111
f 1 23 897
f 76 77 445
f 18 29 79
f 18 80 29
f 81 82 83
f 85 86 87
f 88 89 90
f 92 93 278
f 95 256 26
f 96 97 98
f 1 94 230
f 203 142 99
f 100 101 265
f 23 721 897
f 102 103 104
f 131 105 106
f 107 108 74
f 109 110 65
f 112 113 114
f 142 116 117
f 167 118 103
f 162 111 74
f 84 120 121
f 122 123 124
f 125 126 127
f 206 128 129
f 28 130 175
f 97 132 74
f 1 183 1147
f 133 99 134
f 115 183 1
f 84 121 88
f 137 169 138
f 39 41 140
f 255 141 133
f 143 144 255
f 203 145 36
f 146 147 148
f 149 1 230
f 89 150 166
f 115 151 152
f 115 152 183
f 156 95 26
f 334 85 157
f 131 158 119
f 160 161 171
f 128 164 129
f 165 234 137
f 169 91 139
f 111 91 75
f 168 73 74
f 131 18 79
f 230 94 84
f 88 150 89
f 171 13 14
f 120 160 173
f 161 113 171
f 114 161 174
f 84 94 14
f 176 177 178
f 116 27 117
f 154 171 113
f 84 174 120
f 128 206 172
f 153 14 13
f 171 154 13
f 154 153 13
f 203 36 149
f 84 14 153
f 94 166 14
f 166 171 14
f 203 179 180
f 115 1 378
f 115 378 181
f 181 378 183
f 152 181 183
f 181 152 182
f 145 128 172
f 151 115 182
f 182 115 181
f 180 185 203
f 143 180 144
f 43 186 189
f 10 72 11
f 3 29 256
f 187 148 188
f 186 108 107
f 84 68 131
f 111 189 721
f 139 163 169
f 189 111 162
f 190 73 168
f 191 137 192
f 111 75 340
f 146 193 147
f 69 68 170
f 187 146 148
f 75 91 340
f 153 154 112
f 159 41 255
f 194 165 195
f 79 29 3
f 70 72 10
f 174 161 160
f 40 141 255
f 99 142 134
f 179 144 180
f 90 89 170
f 196 37 25
f 190 189 197
f 128 145 164
f 131 12 42
f 120 173 121
f 197 162 73
f 96 198 97
f 199 200 201
f 40 39 202
f 36 172 206
f 131 70 10
f 145 172 36
f 143 129 185
f 158 25 24
f 160 171 166
f 169 163 138
f 176 204 177
f 166 170 89
f 189 205 198
f 1 149 255
f 84 88 90
f 38 11 166
f 35 207 208
f 121 173 150
f 204 385 96
f 42 38 37
f 145 203 164
f 192 137 138
f 129 164 185
f 149 230 203
f 150 173 166
f 278 191 192
f 149 36 206
f 84 112 114
f 174 160 120
f 206 143 255
f 180 143 185
f 112 154 113
f 164 203 185
f 173 160 166
f 121 150 88
f 114 113 161
f 84 153 112
f 84 114 174
f 149 206 255
f 144 159 255
f 129 143 206
f 68 90 170
f 68 84 90
f 144 179 159
f 72 69 166
f 209 210 211
f 378 1 255
f 213 265 127
f 94 1 897
f 215 95 156
f 70 69 72
f 216 217 334
f 184 218 219
f 220 221 278
f 190 197 73
f 189 190 193
f 189 187 44
f 192 138 163
f 147 168 74
f 189 162 197
f 194 93 222
f 223 278 221
f 224 223 225
f 224 234 226
f 227 228 229
f 165 191 195
f 165 194 234
f 202 39 203
f 91 169 234
f 137 191 165
f 69 170 166
f 189 193 146
f 44 187 188
f 205 107 132
f 385 204 176
f 205 186 107
f 193 168 147
f 278 192 163
f 193 190 168
f 278 223 231
f 234 224 225
f 73 162 74
f 98 97 74
f 202 203 99
f 232 234 233
f 148 147 74
f 189 146 187
f 43 45 108
f 169 137 234
f 195 278 93
f 188 148 74
f 177 98 74
f 189 186 205
f 233 235 236
f 238 81 256
f 12 11 38
f 140 203 39
f 25 37 166
f 131 42 196
f 240 156 26
f 437 241 122
f 241 124 122
f 133 141 99
f 334 242 243
f 179 203 140
f 105 238 106
f 40 202 141
f 220 155 244
f 131 10 12
f 158 24 119
f 194 195 93
f 196 25 158
f 198 132 97
f 141 202 99
f 71 214 245
f 82 131 119
f 131 79 246
f 214 117 27
f 246 2 215
f 159 179 140
f 142 71 134
f 41 40 255
f 131 68 70
f 71 245 134
f 63 62 212
f 131 82 105
f 106 80 18
f 117 214 71
f 28 247 130
f 130 248 175
f 71 142 117
f 119 24 83
f 82 119 83
f 230 142 203
f 175 214 27
f 133 134 245
f 24 166 83
f 27 116 28
f 230 84 131
f 131 196 158
f 159 140 41
f 245 214 175
f 255 133 245
f 42 37 196
f 249 250 175
f 251 142 252
f 255 245 175
f 253 254 252
f 257 258 259
f 260 261 251
f 262 260 251
f 178 74 135
f 262 252 254
f 199 201 266
f 184 30 218
f 226 92 231
f 189 198 96
f 163 139 278
f 92 226 222
f 267 268 269
f 200 217 270
f 248 130 271
f 272 273 60
f 108 45 74
f 385 176 274
f 220 244 221
f 186 43 108
f 132 107 74
f 44 188 45
f 234 225 244
f 204 98 177
f 227 275 276
f 198 205 132
f 234 194 222
f 4 91 234
f 219 218 277
f 92 222 93
f 195 191 278
f 226 231 224
f 233 234 155
f 204 96 98
f 235 220 278
f 155 235 233
f 189 44 43
f 225 223 221
f 385 189 96
f 334 199 242
f 231 92 278
f 232 236 31
f 225 221 244
f 224 231 223
f 226 234 222
f 74 111 340
f 131 215 156
f 278 236 235
f 334 267 279
f 155 220 235
f 236 232 233
f 385 274 268
f 268 274 280
f 274 176 178
f 45 188 74
f 276 275 281
f 274 178 280
f 30 184 282
f 232 31 282
f 155 234 244
f 234 232 282
f 178 177 74
f 281 275 210
f 228 276 283
f 250 284 285
f 286 287 288
f 290 291 292
f 258 289 259
f 293 736 294
f 254 237 175
f 247 142 271
f 295 237 253
f 218 30 278
f 273 259 289
f 285 284 296
f 297 21 298
f 239 249 295
f 299 136 300
f 201 270 135
f 250 249 239
f 301 302 303
f 142 295 253
f 29 80 256
f 105 81 238
f 217 216 306
f 254 253 237
f 35 230 131
f 307 308 309
f 81 83 256
f 242 199 266
f 310 311 312
f 303 213 126
f 248 261 260
f 20 266 135
f 284 289 296
f 131 106 18
f 131 246 215
f 61 313 62
f 240 314 315
f 316 256 265
f 270 306 135
f 317 318 319
f 142 239 295
f 217 306 270
f 28 116 247
f 106 238 80
f 296 289 258
f 215 2 95
f 262 251 252
f 376 378 175
f 95 2 256
f 273 289 313
f 237 295 249
f 118 320 104
f 314 240 26
f 315 291 290
f 268 267 385
f 247 116 142
f 262 175 260
f 261 142 251
f 234 184 275
f 80 238 256
f 248 271 261
f 248 260 175
f 175 262 254
f 82 81 105
f 130 247 271
f 175 237 249
f 79 3 246
f 271 142 261
f 83 166 256
f 142 253 252
f 246 3 2
f 321 297 322
f 240 131 156
f 378 255 175
f 291 314 256
f 166 94 256
f 183 378 1147
f 293 323 324
f 721 189 334
f 87 325 135
f 326 327 328
f 306 329 135
f 279 267 330
f 289 331 332
f 278 139 167
f 30 282 31
f 216 329 306
f 278 277 218
f 267 269 330
f 279 330 329
f 236 278 31
f 334 200 199
f 385 267 334
f 228 227 276
f 268 280 269
f 209 211 278
f 216 279 329
f 74 340 135
f 280 178 135
f 275 333 102
f 335 277 211
f 200 270 201
f 275 219 335
f 330 269 135
f 184 234 282
f 334 279 216
f 219 277 335
f 299 300 333
f 275 335 210
f 209 281 210
f 283 278 228
f 269 280 135
f 219 275 184
f 283 209 278
f 281 283 276
f 136 336 229
f 281 209 283
f 329 330 135
f 85 87 337
f 243 242 20
f 334 217 200
f 334 338 86
f 335 211 210
f 211 277 278
f 266 201 135
f 234 275 736
f 334 86 85
f 234 736 4
f 243 20 19
f 63 212 339
f 4 340 91
f 315 314 291
f 341 48 342
f 290 207 35
f 126 213 127
f 35 315 290
f 343 293 294
f 285 344 175
f 376 272 60
f 35 208 301
f 86 325 87
f 35 301 303
f 648 345 346
f 345 347 346
f 344 285 296
f 376 61 63
f 208 348 301
f 344 258 257
f 272 376 257
f 351 352 353
f 322 297 298
f 409 341 354
f 272 257 259
f 303 302 213
f 409 355 356
f 136 278 300
f 357 307 376
f 348 316 265
f 16 358 265
f 213 302 265
f 301 348 302
f 263 359 360
f 355 361 49
f 35 240 315
f 263 157 359
f 131 240 35
f 409 125 362
f 284 239 289
f 357 363 307
f 364 365 366
f 292 291 256
f 367 125 127
f 349 322 298
f 368 369 376
f 63 339 376
f 344 296 258
f 290 292 207
f 275 227 336
f 256 316 292
f 300 278 370
f 314 26 256
f 344 257 175
f 272 259 273
f 61 60 313
f 313 289 62
f 250 239 284
f 257 376 175
f 302 348 265
f 136 299 336
f 208 316 348
f 371 286 372
f 543 230 35
f 207 292 316
f 142 289 239
f 373 736 374
f 212 62 289
f 142 230 289
f 250 285 175
f 375 101 100
f 207 316 208
f 409 303 126
f 60 273 313
f 321 310 312
f 35 303 409
f 125 409 126
f 60 61 376
f 297 312 21
f 334 263 318
f 355 49 356
f 358 377 265
f 379 380 381
f 354 342 101
f 305 409 304
f 382 383 384
f 360 359 404
f 118 104 103
f 334 189 385
f 338 19 325
f 227 229 336
f 320 275 104
f 136 229 278
f 387 324 323
f 229 228 278
f 338 243 19
f 86 338 325
f 334 243 338
f 736 293 324
f 405 388 389
f 157 337 359
f 242 266 20
f 333 300 370
f 405 386 388
f 333 275 299
f 334 157 263
f 390 391 392
f 157 85 337
f 333 370 102
f 337 87 135
f 275 102 104
f 103 370 167
f 393 394 516
f 387 395 324
f 299 275 336
f 325 19 135
f 359 337 135
f 318 360 319
f 383 382 396
f 370 278 167
f 102 370 103
f 398 399 400
f 395 401 402
f 320 403 294
f 318 263 360
f 343 294 403
f 320 118 403
f 118 167 403
f 403 167 343
f 125 367 362
f 319 360 404
f 359 135 404
f 386 398 400
f 294 736 320
f 275 320 736
f 383 736 384
f 311 289 312
f 406 309 308
f 409 354 375
f 367 127 265
f 265 377 100
f 357 407 363
f 409 375 304
f 339 368 376
f 406 408 309
f 167 382 353
f 59 122 410
f 339 212 332
f 412 413 50
f 362 361 355
f 349 357 376
f 410 414 59
f 415 416 417
f 351 353 384
f 375 100 304
f 309 408 59
f 418 736 383
f 419 420 421
f 354 101 375
f 305 304 377
f 349 407 357
f 369 310 376
f 423 110 109
f 21 406 308
f 424 64 445
f 407 298 21
f 322 349 376
f 426 436 427
f 331 369 368
f 428 429 430
f 326 431 327
f 431 596 327
f 123 417 124
f 423 433 110
f 317 319 399
f 434 400 404
f 321 376 310
f 21 416 22
f 110 433 265
f 402 736 395
f 362 367 361
f 369 331 311
f 15 17 67
f 305 358 15
f 409 356 341
f 64 435 65
f 356 49 48
f 436 396 382
f 339 332 368
f 353 352 167
f 331 368 332
f 356 48 341
f 256 94 265
f 101 342 265
f 341 342 354
f 361 367 265
f 22 406 21
f 293 343 323
f 46 16 265
f 389 438 439
f 342 48 265
f 409 305 67
f 409 362 355
f 49 361 265
f 321 312 297
f 426 418 396
f 376 307 59
f 212 289 332
f 376 321 322
f 289 21 312
f 407 349 298
f 331 289 311
f 440 441 412
f 369 311 310
f 363 407 21
f 376 675 378
f 304 100 377
f 363 21 308
f 358 305 377
f 442 122 124
f 507 443 444
f 447 443 507
f 433 264 265
f 1147 167 139
f 448 449 397
f 383 396 418
f 405 398 386
f 408 422 59
f 416 422 22
f 395 387 401
f 736 402 351
f 167 387 323
f 449 389 439
f 167 323 343
f 405 317 398
f 561 448 450
f 388 434 438
f 398 317 399
f 380 451 452
f 453 454 516
f 455 394 393
f 456 457 458
f 459 460 461
f 462 374 427
f 382 384 353
f 405 389 449
f 459 461 394
f 387 167 401
f 334 317 405
f 317 334 318
f 399 319 404
f 736 351 384
f 389 388 438
f 463 397 404
f 402 352 351
f 402 401 352
f 386 400 434
f 388 386 434
f 449 439 397
f 167 352 401
f 405 449 448
f 456 450 457
f 450 463 457
f 439 438 404
f 457 463 404
f 382 167 436
f 464 465 77
f 458 457 516
f 448 397 463
f 450 448 463
f 561 450 456
f 467 736 418
f 405 448 561
f 395 736 324
f 426 467 418
f 396 436 426
f 438 434 404
f 400 399 404
f 455 459 394
f 397 439 404
f 648 346 428
f 135 340 404
f 561 456 460
f 124 425 122
f 425 437 122
f 47 264 468
f 67 468 423
f 442 241 469
f 444 443 470
f 471 472 473
f 416 415 422
f 64 265 445
f 307 309 59
f 408 22 422
f 109 65 435
f 468 264 433
f 474 475 476
f 123 122 59
f 487 477 596
f 122 442 410
f 77 465 445
f 415 417 123
f 478 424 479
f 443 480 470
f 481 482 32
f 425 21 437
f 561 484 485
f 326 486 431
f 327 487 328
f 442 469 410
f 307 363 308
f 265 264 46
f 55 482 56
f 469 414 410
f 596 431 488
f 15 358 16
f 488 486 489
f 490 491 492
f 347 50 345
f 493 561 494
f 414 495 507
f 67 47 468
f 496 64 424
f 230 21 289
f 417 21 124
f 380 452 381
f 648 35 409
f 65 110 265
f 543 35 648
f 67 423 109
f 265 94 897
f 59 415 123
f 497 581 498
f 412 50 347
f 462 427 436
f 417 416 21
f 468 433 423
f 499 500 501
f 17 16 46
f 414 502 495
f 451 485 503
f 422 415 59
f 67 305 15
f 392 391 504
f 67 109 435
f 21 230 437
f 67 478 441
f 440 412 347
f 47 46 264
f 409 67 648
f 408 406 22
f 425 124 21
f 124 241 442
f 446 241 437
f 479 424 445
f 66 481 507
f 64 496 435
f 435 496 67
f 794 508 509
f 648 428 510
f 481 32 507
f 430 429 445
f 447 495 511
f 460 458 461
f 334 405 721
f 484 493 454
f 466 513 504
f 467 427 374
f 561 459 455
f 460 459 561
f 347 514 346
f 494 455 393
f 436 391 515
f 167 1147 436
f 373 515 390
f 460 456 458
f 392 504 513
f 497 512 517
f 483 498 581
f 436 515 462
f 561 493 484
f 390 483 373
f 736 467 374
f 462 373 374
f 390 515 391
f 483 390 392
f 485 453 503
f 467 426 427
f 498 512 497
f 517 512 436
f 483 392 513
f 461 458 516
f 493 494 518
f 519 436 520
f 373 462 515
f 561 455 494
f 457 404 516
f 52 581 53
f 466 436 512
f 494 393 518
f 493 518 454
f 581 497 521
f 51 436 522
f 436 466 504
f 503 453 516
f 504 391 436
f 466 498 513
f 483 736 373
f 497 517 521
f 523 76 445
f 451 503 452
f 485 484 453
f 521 517 524
f 51 524 436
f 498 466 512
f 518 393 516
f 525 379 526
f 527 528 529
f 484 454 453
f 394 461 516
f 454 518 516
f 452 503 516
f 498 483 513
f 581 521 53
f 404 340 516
f 641 4 736
f 848 340 4
f 441 479 413
f 530 581 531
f 241 446 502
f 510 475 474
f 532 533 534
f 346 535 428
f 496 424 478
f 648 536 537
f 514 345 538
f 539 470 55
f 346 514 535
f 540 541 34
f 542 476 465
f 480 446 470
f 446 437 444
f 470 446 444
f 538 345 445
f 436 524 517
f 561 380 379
f 544 545 516
f 444 539 546
f 547 548 549
f 444 470 539
f 477 327 596
f 327 477 487
f 486 328 489
f 486 326 328
f 502 446 511
f 507 675 376
f 475 430 445
f 445 50 413
f 464 77 550
f 431 486 488
f 489 328 487
f 489 487 596
f 488 489 596
f 441 413 412
f 551 552 553
f 447 511 480
f 521 524 53
f 539 55 54
f 414 469 502
f 429 538 445
f 648 440 345
f 440 347 345
f 550 76 555
f 514 538 535
f 648 474 542
f 556 557 558
f 535 429 428
f 495 447 507
f 447 480 443
f 510 428 430
f 350 230 543
f 511 446 480
f 478 479 441
f 535 538 429
f 66 546 54
f 59 414 507
f 541 288 287
f 507 287 371
f 540 34 33
f 546 539 54
f 648 67 440
f 495 502 511
f 507 444 546
f 67 496 478
f 475 510 430
f 542 465 464
f 345 50 445
f 440 67 441
f 413 479 445
f 230 350 437
f 469 241 502
f 78 265 897
f 481 56 482
f 376 59 507
f 66 56 481
f 561 559 560
f 436 634 520
f 55 437 482
f 470 444 55
f 444 437 55
f 347 345 514
f 437 540 33
f 546 66 507
f 648 542 464
f 78 445 265
f 562 563 78
f 675 1147 378
f 565 566 600
f 527 568 561
f 51 53 524
f 569 545 544
f 568 529 545
f 570 523 571
f 405 561 721
f 572 519 520
f 573 574 520
f 561 525 575
f 634 573 520
f 485 451 561
f 530 576 577
f 573 634 576
f 561 451 380
f 581 530 578
f 52 522 579
f 561 569 580
f 34 541 507
f 531 576 530
f 579 522 519
f 52 51 522
f 581 579 572
f 581 572 574
f 572 520 574
f 379 381 526
f 583 526 516
f 525 526 583
f 575 583 528
f 522 436 519
f 579 519 572
f 561 379 525
f 568 527 529
f 575 525 583
f 531 573 576
f 579 581 52
f 561 575 527
f 527 575 528
f 573 531 574
f 381 452 516
f 528 583 516
f 8 584 585
f 561 568 569
f 569 568 545
f 531 581 574
f 586 587 588
f 589 590 591
f 530 577 578
f 580 569 544
f 567 372 592
f 545 529 516
f 526 381 516
f 529 528 516
f 57 560 5
f 736 483 581
f 754 58 593
f 586 580 587
f 584 8 594
f 372 437 592
f 465 476 445
f 649 597 598
f 288 437 286
f 601 564 602
f 603 553 604
f 550 77 76
f 371 372 567
f 605 634 595
f 606 592 607
f 553 603 675
f 32 482 33
f 608 506 609
f 581 594 8
f 507 371 567
f 420 350 421
f 610 564 601
f 593 58 611
f 612 350 599
f 613 8 557
f 648 510 474
f 8 614 557
f 606 607 615
f 675 551 553
f 606 567 592
f 499 612 582
f 616 566 565
f 482 437 33
f 560 6 5
f 617 618 619
f 606 615 507
f 286 437 372
f 563 554 411
f 445 411 571
f 621 616 565
f 286 371 287
f 622 8 623
f 648 624 554
f 585 625 591
f 474 476 542
f 592 437 607
f 615 419 507
f 553 552 604
f 540 437 288
f 541 540 288
f 611 626 600
f 541 287 507
f 648 464 550
f 32 34 507
f 9 589 627
f 476 475 445
f 506 505 620
f 624 571 411
f 648 550 555
f 555 76 523
f 648 555 570
f 555 523 570
f 571 523 445
f 437 420 607
f 411 445 78
f 567 606 507
f 554 624 411
f 570 571 624
f 648 570 624
f 419 615 420
f 420 615 607
f 628 629 630
f 578 631 632
f 675 582 551
f 594 595 584
f 561 586 559
f 580 544 587
f 585 591 590
f 754 721 561
f 9 627 7
f 634 556 558
f 634 436 1147
f 8 585 590
f 589 9 590
f 625 634 591
f 577 576 634
f 634 605 631
f 561 580 586
f 578 577 631
f 560 559 6
f 626 5 600
f 581 578 632
f 595 634 625
f 559 588 6
f 577 634 631
f 605 594 632
f 754 561 560
f 605 632 631
f 559 586 588
f 58 626 611
f 589 634 627
f 588 587 600
f 594 605 595
f 616 593 566
f 754 560 57
f 584 595 625
f 584 625 585
f 634 589 591
f 556 613 557
f 57 5 626
f 6 588 600
f 58 57 626
f 628 635 629
f 634 636 627
f 754 593 616
f 9 8 590
f 593 611 566
f 8 7 614
f 7 636 614
f 7 627 636
f 594 581 632
f 587 544 600
f 544 516 600
f 516 340 600
f 566 611 600
f 637 638 639
f 629 640 600
f 8 736 581
f 536 562 537
f 642 549 78
f 648 537 610
f 350 643 644
f 603 645 675
f 648 610 601
f 552 350 604
f 563 411 78
f 646 609 600
f 601 602 647
f 507 419 675
f 419 421 500
f 652 653 654
f 655 656 657
f 658 549 642
f 599 350 552
f 610 660 564
f 604 350 644
f 350 420 437
f 536 563 562
f 640 565 600
f 500 499 675
f 647 548 547
f 551 582 599
f 648 554 536
f 554 563 536
f 603 604 644
f 500 421 501
f 661 662 663
f 547 549 658
f 620 664 600
f 603 644 645
f 421 350 501
f 630 629 600
f 660 562 78
f 537 660 610
f 537 562 660
f 614 558 557
f 643 645 644
f 666 648 658
f 499 501 612
f 648 601 647
f 78 667 472
f 668 669 670
f 666 658 642
f 671 672 675
f 673 662 634
f 674 666 642
f 648 647 547
f 419 500 675
f 648 547 658
f 499 582 675
f 602 564 78
f 501 350 612
f 582 612 599
f 78 564 660
f 548 602 78
f 647 602 548
f 551 599 552
f 549 548 78
f 645 643 671
f 645 671 675
f 471 676 472
f 432 677 670
f 678 78 679
f 680 676 471
f 432 670 675
f 683 684 685
f 897 721 1170
f 634 686 556
f 669 687 682
f 614 636 558
f 616 621 754
f 505 688 664
f 688 689 690
f 634 1147 633
f 754 621 635
f 506 620 609
f 8 661 663
f 661 686 662
f 635 640 629
f 686 634 662
f 634 597 673
f 689 630 690
f 558 636 634
f 635 621 640
f 621 565 640
f 754 635 628
f 613 686 661
f 690 630 600
f 663 662 673
f 754 688 505
f 613 556 686
f 754 628 689
f 689 628 630
f 663 673 691
f 754 689 688
f 649 8 691
f 8 663 691
f 8 650 692
f 505 664 620
f 688 690 664
f 693 608 646
f 608 609 646
f 532 534 694
f 597 634 598
f 649 598 650
f 597 691 673
f 597 649 691
f 754 695 696
f 8 692 623
f 754 506 608
f 505 506 754
f 697 598 634
f 661 8 613
f 8 649 650
f 650 697 692
f 650 598 697
f 664 690 600
f 609 620 600
f 762 622 623
f 762 623 698
f 622 762 699
f 736 8 681
f 700 633 533
f 659 600 340
f 1135 641 736
f 848 4 641
f 648 666 794
f 78 654 702
f 668 638 687
f 703 704 659
f 705 365 78
f 706 679 702
f 637 350 638
f 707 708 659
f 666 674 680
f 709 710 711
f 432 672 639
f 712 713 659
f 639 638 677
f 672 432 675
f 714 715 716
f 608 693 754
f 717 718 719
f 471 473 794
f 674 642 78
f 653 702 654
f 723 724 725
f 683 726 684
f 727 728 729
f 672 637 639
f 730 731 732
f 733 734 708
f 671 637 672
f 807 364 366
f 717 682 718
f 737 701 735
f 692 697 698
f 675 669 682
f 473 472 667
f 432 639 677
f 472 676 78
f 794 666 680
f 680 674 676
f 701 708 707
f 509 679 706
f 682 687 718
f 668 670 677
f 738 739 740
f 741 742 776
f 743 652 654
f 508 667 678
f 706 702 653
f 637 643 350
f 509 678 679
f 652 794 653
f 739 738 719
f 638 668 677
f 508 678 509
f 794 706 653
f 687 638 718
f 807 543 648
f 671 643 637
f 702 679 78
f 675 670 669
f 717 738 675
f 676 674 78
f 807 744 655
f 745 746 659
f 509 706 794
f 678 667 78
f 794 473 508
f 473 667 508
f 669 668 687
f 794 680 471
f 656 665 747
f 748 638 726
f 717 719 738
f 696 695 703
f 682 717 675
f 738 740 675
f 731 711 710
f 638 739 719
f 719 718 638
f 705 665 749
f 754 693 695
f 751 752 753
f 737 755 756
f 757 633 758
f 759 760 761
f 1171 721 754
f 697 634 762
f 695 693 704
f 700 763 764
f 709 765 710
f 693 646 704
f 766 746 745
f 762 634 633
f 698 697 762
f 735 707 767
f 737 733 701
f 692 698 623
f 769 767 746
f 695 704 703
f 622 699 759
f 759 681 622
f 8 622 681
f 737 735 769
f 701 733 708
f 762 633 699
f 733 696 734
f 699 633 760
f 696 703 734
f 759 699 760
f 737 754 733
f 754 696 733
f 681 759 761
f 763 533 532
f 767 707 659
f 681 761 764
f 761 768 764
f 769 735 767
f 700 764 768
f 735 701 707
f 760 633 768
f 720 771 772
f 646 600 659
f 633 700 768
f 761 760 768
f 773 766 745
f 763 700 533
f 766 769 746
f 737 769 766
f 734 703 659
f 681 532 694
f 704 646 659
f 737 766 773
f 708 734 659
f 751 681 771
f 656 749 665
f 763 681 764
f 746 767 659
f 681 763 532
f 736 681 1135
f 774 775 776
f 681 694 771
f 681 777 778
f 731 730 711
f 744 705 749
f 665 716 781
f 750 782 783
f 737 784 755
f 366 705 744
f 785 825 786
f 657 656 747
f 744 749 655
f 731 779 732
f 726 638 684
f 781 747 665
f 807 787 715
f 789 790 728
f 794 652 807
f 683 792 726
f 713 745 659
f 657 747 787
f 787 781 715
f 765 779 710
f 710 779 731
f 807 655 657
f 730 795 803
f 796 729 797
f 803 796 798
f 799 800 801
f 730 732 795
f 684 638 765
f 743 654 78
f 802 714 716
f 740 748 792
f 795 732 804
f 715 781 716
f 740 792 803
f 364 743 365
f 805 712 806
f 807 366 744
f 709 685 765
f 737 770 805
f 366 365 705
f 807 648 794
f 783 782 665
f 652 743 364
f 803 709 711
f 808 778 758
f 787 747 781
f 737 809 784
f 665 705 78
f 365 743 78
f 779 810 797
f 655 749 656
f 740 739 748
f 807 657 787
f 638 779 765
f 803 685 709
f 804 732 779
f 795 811 803
f 534 533 633
f 683 685 803
f 534 633 772
f 795 804 811
f 792 683 803
f 711 730 803
f 675 740 803
f 807 652 364
f 792 748 726
f 806 712 659
f 748 739 638
f 789 727 803
f 777 758 778
f 685 684 765
f 491 813 492
f 770 773 713
f 813 800 665
f 814 815 776
f 788 816 817
f 720 751 771
f 788 754 737
f 807 750 819
f 694 772 771
f 788 1171 754
f 820 786 825
f 694 534 772
f 784 809 821
f 681 753 777
f 737 773 770
f 755 742 741
f 753 757 777
f 773 745 713
f 791 808 822
f 633 720 772
f 791 681 778
f 777 757 758
f 756 755 741
f 651 823 824
f 770 713 712
f 805 770 712
f 821 659 776
f 753 681 751
f 753 752 757
f 720 633 752
f 751 720 752
f 809 806 821
f 821 806 659
f 809 805 806
f 823 822 825
f 758 633 808
f 651 822 823
f 776 659 340
f 737 805 809
f 752 633 757
f 826 774 776
f 822 808 825
f 808 791 778
f 791 822 651
f 827 756 775
f 681 651 824
f 755 784 742
f 784 821 742
f 808 633 825
f 756 741 775
f 788 756 827
f 737 756 788
f 816 827 774
f 827 775 774
f 935 829 830
f 681 791 651
f 828 831 820
f 824 823 832
f 788 827 816
f 780 828 833
f 742 821 776
f 775 741 776
f 834 835 832
f 750 783 819
f 823 825 832
f 898 838 839
f 837 840 779
f 796 797 798
f 782 842 665
f 810 798 797
f 807 843 750
f 845 924 846
f 847 842 843
f 665 492 813
f 807 799 801
f 790 779 728
f 849 490 492
f 810 779 840
f 850 851 836
f 811 804 812
f 852 849 853
f 854 783 665
f 855 856 803
f 857 858 859
f 807 819 799
f 812 779 790
f 860 840 861
f 843 842 782
f 801 800 813
f 803 727 796
f 802 716 665
f 543 807 1103
f 810 860 798
f 863 812 790
f 728 779 729
f 920 490 852
f 834 832 825
f 796 727 729
f 807 847 843
f 350 543 779
f 714 802 847
f 817 826 815
f 866 855 803
f 811 863 803
f 840 860 810
f 804 779 812
f 819 854 799
f 798 860 803
f 854 665 800
f 811 812 863
f 799 854 800
f 867 853 868
f 842 802 665
f 819 783 854
f 789 863 790
f 843 782 750
f 789 728 727
f 797 729 779
f 715 714 807
f 869 868 665
f 779 638 350
f 920 807 801
f 847 802 842
f 870 837 839
f 920 491 490
f 860 861 803
f 861 870 803
f 807 714 847
f 863 789 803
f 861 840 837
f 861 837 870
f 920 801 491
f 801 813 491
f 1147 675 803
f 665 78 897
f 844 871 898
f 872 924 873
f 830 786 820
f 816 774 826
f 865 681 835
f 874 815 814
f 875 876 877
f 788 879 880
f 879 814 864
f 881 868 869
f 865 834 785
f 633 1147 825
f 882 880 883
f 829 786 830
f 817 816 826
f 825 828 820
f 884 875 877
f 824 832 835
f 885 883 776
f 815 826 776
f 829 785 786
f 874 817 815
f 865 785 829
f 788 817 874
f 780 833 862
f 886 882 885
f 681 824 835
f 834 865 835
f 834 825 785
f 864 814 776
f 880 879 864
f 883 864 776
f 828 825 833
f 828 780 831
f 879 874 814
f 880 864 883
f 788 874 879
f 788 880 882
f 681 865 935
f 935 830 831
f 830 820 831
f 829 935 865
f 882 883 885
f 788 882 886
f 935 841 887
f 876 885 776
f 862 833 888
f 862 888 889
f 935 862 889
f 886 885 876
f 875 886 876
f 788 886 875
f 888 833 825
f 920 852 867
f 935 780 862
f 780 935 831
f 890 891 776
f 877 876 776
f 870 866 803
f 893 878 894
f 681 935 1135
f 920 895 896
f 935 857 859
f 899 900 836
f 901 850 836
f 903 904 905
f 867 868 881
f 906 907 618
f 908 909 910
f 878 911 912
f 913 914 915
f 916 917 918
f 919 844 899
f 920 881 921
f 1007 916 922
f 838 855 866
f 902 923 856
f 887 925 926
f 841 925 887
f 855 927 856
f 928 929 1150
f 872 869 924
f 931 873 932
f 933 934 818
f 920 932 895
f 868 853 665
f 924 869 665
f 904 898 905
f 853 849 665
f 852 853 867
f 931 872 873
f 870 839 866
f 898 543 1016
f 1055 807 920
f 921 869 872
f 920 931 932
f 855 838 927
f 927 838 898
f 936 905 871
f 896 895 846
f 1007 937 909
f 878 935 894
f 893 938 825
f 779 898 837
f 803 856 923
f 838 866 839
f 839 837 898
f 881 869 921
f 490 849 852
f 919 899 836
f 803 923 903
f 803 903 836
f 940 896 846
f 904 902 898
f 1007 941 942
f 905 898 871
f 936 871 919
f 543 898 779
f 776 848 641
f 895 845 846
f 898 902 927
f 903 936 836
f 932 873 845
f 936 903 905
f 845 873 924
f 936 919 836
f 892 944 818
f 924 665 897
f 902 856 927
f 920 921 931
f 849 492 665
f 932 845 895
f 923 904 903
f 906 618 617
f 920 867 881
f 907 898 618
f 919 871 844
f 923 902 904
f 921 872 931
f 915 914 945
f 946 898 947
f 1170 721 1171
f 948 949 950
f 1055 913 915
f 891 877 776
f 875 884 1007
f 888 825 938
f 1171 788 1007
f 953 825 925
f 788 875 1007
f 954 922 944
f 937 892 955
f 955 892 818
f 922 957 944
f 916 918 957
f 1007 884 958
f 889 938 894
f 917 958 890
f 948 913 1055
f 958 891 890
f 935 889 894
f 889 888 938
f 922 916 957
f 953 859 858
f 944 957 818
f 893 825 911
f 893 894 938
f 825 953 858
f 884 877 891
f 958 884 891
f 898 907 947
f 912 935 878
f 1055 959 948
f 1007 958 917
f 887 926 960
f 878 893 911
f 1007 917 916
f 917 890 918
f 935 912 857
f 912 911 961
f 957 918 776
f 912 961 857
f 825 961 911
f 1007 954 937
f 857 961 858
f 909 937 955
f 961 825 858
f 954 1007 922
f 910 955 818
f 953 841 859
f 918 890 776
f 841 953 925
f 937 954 892
f 954 944 892
f 909 955 910
f 825 926 925
f 935 887 960
f 841 935 859
f 908 1007 909
f 957 776 818
f 793 962 963
f 340 848 776
f 964 1055 965
f 1055 967 968
f 967 945 969
f 836 906 617
f 898 946 970
f 934 951 818
f 972 966 924
f 973 1125 974
f 907 971 947
f 844 898 970
f 975 963 976
f 977 978 979
f 920 896 1055
f 913 950 914
f 1107 980 981
f 943 983 984
f 968 969 985
f 940 846 924
f 987 982 988
f 836 971 906
f 980 991 981
f 992 850 993
f 994 908 995
f 901 993 850
f 724 1125 725
f 945 914 924
f 967 969 968
f 851 850 992
f 985 924 966
f 998 999 939
f 1000 1001 1002
f 914 950 924
f 959 940 949
f 949 940 924
f 807 1055 1103
f 915 945 967
f 959 949 948
f 618 898 619
f 946 996 900
f 945 924 969
f 803 836 1147
f 1055 915 967
f 1004 943 1005
f 1003 977 1006
f 896 940 959
f 1055 896 959
f 1055 968 965
f 898 992 993
f 996 947 971
f 1009 1005 1010
f 901 617 619
f 1011 1012 1013
f 996 946 947
f 950 949 924
f 948 950 913
f 617 901 836
f 956 995 818
f 994 995 956
f 996 971 836
f 901 619 993
f 968 985 965
f 724 1014 1011
f 899 970 900
f 946 900 970
f 1125 724 1011
f 1055 964 1015
f 900 996 836
f 1003 1017 939
f 985 969 924
f 899 844 970
f 907 906 971
f 964 965 966
f 943 723 1010
f 993 619 898
f 1018 1016 1019
f 941 1020 951
f 972 964 966
f 1055 1021 1022
f 965 985 966
f 1007 1020 941
f 960 984 1025
f 1008 956 962
f 983 1025 984
f 1007 994 1008
f 1125 1009 725
f 926 943 984
f 908 910 995
f 982 1026 924
f 935 960 1025
f 1147 1078 825
f 973 1005 1009
f 1007 793 975
f 974 1004 973
f 1008 793 1007
f 1008 994 956
f 960 926 984
f 926 825 943
f 983 974 1025
f 1125 973 1009
f 1007 908 994
f 951 976 818
f 975 793 963
f 995 910 818
f 941 951 934
f 983 943 1004
f 974 983 1004
f 962 956 818
f 973 1004 1005
f 793 1008 962
f 723 943 1014
f 1020 976 951
f 979 992 1016
f 1007 975 1020
f 1009 1010 725
f 1014 943 1012
f 976 963 818
f 942 934 933
f 1027 942 933
f 1005 943 1010
f 723 725 1010
f 1020 975 976
f 724 723 1014
f 1016 977 979
f 942 941 934
f 1084 1007 942
f 1125 1011 1013
f 1011 1014 1012
f 1084 942 1027
f 935 974 1125
f 974 935 1025
f 963 962 818
f 1029 1023 1030
f 818 776 641
f 1031 1029 1032
f 1034 972 924
f 981 1035 1036
f 1037 998 939
f 992 898 1016
f 999 1038 1039
f 1022 1026 982
f 1015 972 1034
f 1107 987 980
f 987 988 980
f 1036 1035 986
f 1026 1034 924
f 1042 933 818
f 1044 1045 1033
f 1046 1047 1033
f 1038 999 1048
f 1049 1017 1050
f 1055 1015 1021
f 1021 1026 1022
f 1107 1046 1044
f 1046 1052 1044
f 1053 1036 1054
f 1056 1057 1058
f 939 1017 1049
f 977 1003 978
f 924 986 1035
f 1125 1060 1061
f 1006 1016 1050
f 939 1049 1037
f 1021 1034 1026
f 977 1016 1006
f 1053 1107 981
f 1049 1018 1037
f 999 1039 939
f 1107 1022 987
f 988 982 924
f 1022 982 987
f 1103 1055 1107
f 851 979 978
f 978 1003 939
f 1015 1034 1021
f 1047 1054 986
f 851 978 939
f 980 988 991
f 1064 1056 1078
f 1103 1016 543
f 964 972 1015
f 1003 1006 1017
f 988 924 991
f 1049 1050 1018
f 998 1037 1019
f 1053 981 1036
f 836 851 939
f 998 1048 999
f 998 1019 1048
f 1019 1016 1048
f 851 992 979
f 1107 1055 1022
f 1017 1006 1050
f 1054 1036 986
f 981 991 1035
f 1037 1018 1019
f 1050 1016 1018
f 1066 1067 1068
f 1059 1051 1130
f 1051 1069 1130
f 1069 1059 1130
f 1035 991 924
f 1016 1038 1048
f 1147 836 939
f 1070 1130 1071
f 1072 1113 1073
f 1074 1069 1051
f 1074 1071 1068
f 1075 1076 1077
f 1041 1079 818
f 1013 1080 1081
f 1084 1082 1023
f 825 1078 943
f 1065 1125 1081
f 1027 933 1042
f 1125 1013 1081
f 1084 1023 1029
f 1171 1007 1084
f 1082 1027 1042
f 1082 1042 1043
f 1084 1083 1076
f 1065 1028 1060
f 1084 1029 1031
f 1062 1056 1064
f 1063 1085 1086
f 1023 1082 1043
f 1012 943 1080
f 1087 1081 1080
f 1013 1012 1080
f 1084 1027 1082
f 1087 1065 1081
f 1023 1043 1030
f 1089 1077 818
f 943 1087 1080
f 1056 1058 1078
f 1031 1032 1079
f 1061 1090 1058
f 1087 943 1028
f 943 1078 1028
f 1043 1042 818
f 1066 1130 1091
f 1065 1087 1028
f 1079 1032 818
f 1090 1028 1078
f 1029 1030 1032
f 1084 1031 1083
f 1083 1031 1079
f 1060 1090 1061
f 1032 1030 818
f 1060 1028 1090
f 1092 1171 1084
f 1092 1075 1089
f 1058 1090 1078
f 1062 1064 1063
f 1075 1077 1089
f 1083 1079 1041
f 1060 1125 1065
f 1030 1043 818
f 1061 1058 1057
f 1125 1061 1057
f 1056 1062 1057
f 1076 1083 1041
f 1063 1064 1085
f 1125 1086 1094
f 1125 1135 935
f 1076 1041 1077
f 1125 1063 1086
f 1084 1076 1075
f 1085 1064 1078
f 1075 1092 1084
f 1062 1125 1057
f 1125 1062 1063
f 1077 1041 818
f 1095 1096 1097
f 1098 1099 1100
f 1101 1102 1128
f 722 1135 1125
f 1103 1044 1033
f 1073 1024 990
f 1073 1113 1040
f 1104 1105 1130
f 1106 1113 1072
f 1091 1108 1067
f 1105 1109 1108
f 939 1039 1130
f 1038 1016 1110
f 1052 1046 1111
f 1067 1069 1068
f 1039 1038 1110
f 1105 1091 1130
f 1053 1054 1052
f 1039 1110 1104
f 1066 1068 1071
f 1069 1074 1068
f 1047 986 1033
f 1130 1066 1071
f 1108 1016 1067
f 1054 1047 1052
f 1059 1069 1016
f 1103 1107 1044
f 1016 1109 1110
f 1045 1112 1033
f 1044 1111 1045
f 1052 1047 1046
f 1016 1069 1067
f 1109 1105 1104
f 1070 1051 1130
f 1039 1104 1130
f 1052 1111 1044
f 924 897 1033
f 1070 1074 1051
f 1107 1053 1046
f 1053 1052 1046
f 986 924 1033
f 1130 1051 1059
f 1111 1112 1045
f 1066 1091 1067
f 1112 1046 1033
f 1111 1046 1112
f 1108 1109 1016
f 1109 1104 1110
f 1105 1108 1091
f 1074 1070 1071
f 939 1130 1147
f 1024 1106 990
f 1040 1113 1106
f 1072 1073 990
f 1106 1072 990
f 722 1098 1114
f 1147 1173 1078
f 1118 1096 1095
f 1092 1089 1115
f 1116 1094 1117
f 722 1093 952
f 1086 1085 1117
f 1172 1171 1092
f 1119 1116 1099
f 1086 1117 1094
f 1119 1099 1098
f 1118 1120 1127
f 1121 1092 1115
f 1121 1115 1122
f 1114 1100 1123
f 1093 1078 952
f 1117 1078 1116
f 1085 1078 1117
f 1096 1121 1122
f 1095 1097 1102
f 1124 1095 1102
f 1116 1119 1094
f 1118 1095 1124
f 722 1114 1088
f 1098 1100 1114
f 1121 1096 1118
f 1092 1121 1118
f 1096 1122 1097
f 1078 1100 1099
f 1078 1099 1116
f 1125 1119 722
f 1172 1092 1118
f 1122 818 1128
f 1114 1123 1088
f 1118 1124 1120
f 1093 1088 1123
f 1127 1120 1126
f 1124 1102 1101
f 1093 1123 1078
f 1093 722 1088
f 1123 1100 1078
f 1120 1101 1126
f 1120 1124 1101
f 1102 1097 1128
f 1115 1089 818
f 1098 722 1119
f 1097 1122 1128
f 1122 1115 818
f 1119 1125 1094
f 818 641 1135
f 1127 1126 1128
f 1126 1101 1128
f 1128 818 1135
f 1106 1024 1040
f 1073 1040 1024
f 1103 1059 1016
f 1132 1000 1002
f 989 1134 1145
f 1103 1033 1059
f 1130 1059 1147
f 1078 1173 952
f 1172 1118 1127
f 1137 1129 1138
f 1139 1150 1166
f 1000 1143 1141
f 1143 1000 1132
f 1141 1001 1000
f 1002 1001 1133
f 1141 1002 1133
f 1146 1151 1145
f 722 952 1173
f 1127 1128 1172
f 1135 722 1173
f 1129 1137 1136
f 1148 1138 1131
f 1141 1143 1132
f 1133 1001 1141
f 1141 1132 1002
f 1166 1150 1155
f 1146 1144 1151
f 1149 928 1139
f 1149 1152 928
f 1134 1146 1145
f 930 1153 989
f 989 1142 930
f 1142 989 997
f 1151 930 1142
f 930 1151 1144
f 930 1144 1153
f 1153 1144 1146
f 1141 989 1145
f 989 1141 997
f 1153 1146 1134
f 989 1153 1134
f 997 1145 1142
f 1145 1151 1142
f 1145 997 1141
f 1137 1148 1156
f 1136 1168 1129
f 1131 1138 1168
f 1149 1157 1155
f 1154 1136 1156
f 1164 1158 1149
f 1159 1160 1165
f 1161 1160 1159
f 1156 1131 1154
f 1170 1147 1059
f 1167 1162 1163
f 1156 1148 1131
f 1148 1137 1138
f 1131 1168 1154
f 1129 1168 1138
f 1164 1136 1154
f 1156 1136 1137
f 1154 1168 1164
f 1162 1165 1160
f 1168 1136 1158
f 1168 1158 1164
f 1149 1155 1152
f 1164 1139 1166
f 928 1150 1139
f 1136 1165 1166
f 1158 1136 1166
f 1157 1166 1155
f 1158 1157 1149
f 1164 1140 1165
f 1158 1166 1157
f 1152 929 928
f 1164 1149 1139
f 1152 1155 929
f 1155 1150 929
f 1159 1165 1140
f 1128 1135 1173
f 1159 1140 1169
f 1140 1167 1169
f 1163 1162 1160
f 1164 1165 1136
f 1167 1164 1166
f 1163 1161 1169
f 1163 1160 1161
f 1164 1167 1140
f 1169 1161 1159
f 1167 1163 1169
f 1167 1165 1162
f 1165 1167 1166
f 897 1059 1033
f 1172 1128 1173
f 1059 897 1170
f 1170 1171 1173
f 1171 1172 1173
f 1147 1170 1173
f 152 151 182

