# https://github.com/mikedh/trimesh
v 0.04113300 0.00120278 0.04217388
v 0.04113300 -0.00228060 0.04217388
v 0.04025682 0.00556893 -0.05126593
v 0.03850446 0.01516810 0.04129384
v 0.02802242 0.00818544 0.07710558
v 0.02802242 -0.00401434 0.07797142
v 0.03850446 -0.01450423 0.04393395
v 0.03938064 -0.01013013 -0.05477187
v 0.03763631 0.00906026 -0.06174118
v 0.03675209 0.01779256 -0.05126593
v 0.03501580 0.02215872 0.04217388
v 0.02278140 0.01866738 0.07710558
v -0.02700023 0.00556893 0.07801400
v 0.02191325 -0.01800352 0.07797142
v 0.01141514 0.02653282 0.07797142
v 0.03151107 -0.02674377 0.04217388
v 0.03588394 -0.01887038 -0.05823524
v 0.02715427 -0.01537905 -0.06699300
v 0.02365758 0.01779256 -0.06699300
v 0.02016089 0.03090692 -0.06435289
v 0.03151107 0.02566595 -0.05738359
v 0.02540191 0.03264066 0.04305391
v -0.02525591 -0.01101290 0.07797142
v -0.01738634 -0.02149485 0.07797142
v -0.01388965 0.02478318 0.07797142
v -0.03573794 0.01954221 0.04393395
v -0.04011082 0.00644375 0.04305391
v -0.04011082 -0.00577193 0.04217388
v 0.00443784 -0.02761859 0.07710558
v 0.01929275 -0.03635089 0.04217388
v 0.01578802 0.03788163 0.04390556
v 0.00181733 0.04051405 0.04478559
v 0.02365758 -0.03372643 -0.05126593
v 0.01929275 -0.02761064 -0.06611296
v 0.01491987 -0.03809259 -0.05738359
v -0.02438776 -0.01013013 -0.06699300
v -0.00166329 0.03264861 -0.06611296
v 0.00181733 0.04051405 -0.05738359
v 0.02191325 0.03439030 -0.05648936
v -0.03660609 -0.01713665 0.04393395
v -0.03136507 -0.02586895 0.04305391
v -0.01126914 -0.03896740 0.04390556
v -0.02175118 -0.03459330 0.04041381
v -0.01040100 0.03963923 0.04305391
v -0.02262736 0.03439030 0.04129384
v -0.03049693 0.02740764 0.04305391
v -0.03398558 0.02390836 -0.05038589
v -0.03922660 0.01342641 -0.05563772
v -0.04098700 0.00556893 -0.05651775
v -0.04098700 -0.00664675 -0.04687995
v 0.00880267 -0.03984223 0.04305391
v 0.01317555 0.03875645 -0.05126593
v -0.01738634 -0.03285957 -0.06435289
v 0.00093311 -0.04071705 -0.05823524
v -0.03398558 -0.01362941 -0.06436709
v -0.03136507 0.01167677 -0.06611296
v -0.02438776 0.03090692 -0.06172699
v -0.01651016 0.03788959 -0.04950586
v -0.03835042 -0.01537905 -0.05738359
v -0.03136507 -0.02761859 -0.04950586
v -0.01302151 -0.03896740 -0.05738359
v -0.00253143 -0.04071705 0.03517618
v -0.02525591 -0.03285957 -0.05738359
v -0.02874456 0.03002415 -0.04862583
f 1 2 3
f 1 3 4
f 1 4 5
f 1 5 6
f 1 6 2
f 2 6 7
f 2 7 8
f 2 8 3
f 3 8 9
f 3 9 10
f 3 10 4
f 4 11 5
f 4 10 11
f 5 12 6
f 5 11 12
f 6 13 14
f 6 14 7
f 6 12 15
f 6 15 13
f 7 14 16
f 7 16 17
f 7 17 8
f 8 17 9
f 9 17 18
f 9 18 19
f 9 19 20
f 9 20 21
f 9 21 10
f 10 21 11
f 11 21 22
f 11 22 12
f 12 22 15
f 13 23 24
f 13 24 14
f 13 15 25
f 13 25 26
f 13 26 27
f 13 27 28
f 13 28 23
f 14 24 29
f 14 29 30
f 14 30 16
f 15 22 31
f 15 31 32
f 15 32 25
f 16 30 33
f 16 33 17
f 17 34 18
f 17 33 35
f 17 35 34
f 18 36 19
f 18 34 36
f 19 36 37
f 19 37 20
f 20 37 38
f 20 38 39
f 20 39 21
f 21 39 22
f 22 39 31
f 23 28 40
f 23 40 41
f 23 41 24
f 24 42 29
f 24 41 43
f 24 43 42
f 25 32 44
f 25 44 45
f 25 45 46
f 25 46 26
f 26 46 47
f 26 47 48
f 26 48 27
f 27 48 49
f 27 49 50
f 27 50 28
f 28 50 40
f 29 42 51
f 29 51 30
f 30 51 35
f 30 35 33
f 31 39 52
f 31 52 32
f 32 52 38
f 32 38 44
f 34 53 36
f 34 35 54
f 34 54 53
f 35 51 54
f 36 53 55
f 36 55 56
f 36 56 37
f 37 56 57
f 37 57 38
f 38 58 44
f 38 52 39
f 38 57 58
f 40 50 59
f 40 59 60
f 40 60 41
f 41 60 43
f 42 43 61
f 42 61 62
f 42 62 51
f 43 60 63
f 43 63 61
f 44 58 45
f 45 58 64
f 45 64 46
f 46 64 47
f 47 64 57
f 47 57 48
f 48 57 56
f 48 56 49
f 49 56 55
f 49 55 59
f 49 59 50
f 51 62 54
f 53 54 61
f 53 61 63
f 53 63 55
f 54 62 61
f 55 63 59
f 57 64 58
f 59 63 60

