# https://github.com/mikedh/trimesh
v -0.91515875 -0.23662511 -0.32111716
v -0.94242871 0.28649762 -0.35676128
v -0.94242871 0.28258762 -0.35676128
v -0.94242871 0.27867764 -0.35676128
v -0.94242871 0.29430762 -0.35676128
v -0.82459438 -0.31859431 -0.32402253
v -0.90724868 -0.24088237 -0.34114128
v -0.90724868 -0.24088237 -0.34895128
v -0.90718865 -0.24084237 -0.35286126
v -0.90718865 -0.24084237 -0.33333129
v -0.90718865 -0.24084237 -0.33723128
v -0.90724868 -0.24088237 -0.32942128
v -0.90718865 -0.24084237 -0.34504125
v -0.90718865 -0.24084237 -0.34114128
v -0.90595663 -0.23820974 -0.33691856
v -0.90718865 -0.24084237 -0.34895128
v -0.90724868 -0.24088237 -0.34504125
v -0.93827951 0.28984025 -0.35220182
v -0.94240868 0.27477762 -0.35678127
v -0.94240868 0.27867764 -0.35678127
v -0.94242871 0.27477762 -0.35676128
v -0.94240868 0.27086765 -0.35678127
v -0.94240868 0.28258762 -0.35678127
v -0.94242871 0.29039764 -0.35676128
v -0.94204456 0.29449496 -0.35690281
v -0.94240868 0.28649762 -0.35678127
v -0.83302867 -0.47520235 -0.60286129
v -0.83302867 -0.47521237 -0.60288131
v -0.82911867 -0.47520235 -0.60676128
v -0.86587363 -0.47468063 -0.58505511
v -0.90724868 -0.24088237 -0.33333129
v -0.90724868 -0.24088237 -0.33723128
v -0.90973842 -0.24133448 -0.36638299
v -0.80873078 -0.46820998 -0.63182527
v -0.78683388 -0.53995091 -0.58745003
v -0.72319990 -0.20165600 0.49009615
v -0.71581858 -0.22698769 0.50628966
v -0.91206300 -0.22916719 -0.39356041
v -0.82521868 -0.47519240 -0.61067128
v -0.83304870 -0.47521237 -0.60286129
v -0.83612865 -0.47521237 -0.59895128
v -0.83302867 -0.47684237 -0.60676128
v -0.82521868 -0.46931240 -0.60286129
v -0.81798911 -0.47766531 -0.62316197
v -0.82914871 -0.47521237 -0.60676128
v -0.73358583 -0.45091227 -0.13055383
v -0.81356901 0.29587913 -0.68653512
v -0.80318868 0.29039764 -0.69661129
v -0.72511452 -0.47014180 -0.63665879
v -0.72367871 -0.22521237 0.51041871
v -0.72367871 -0.22521237 0.51431870
v -0.71023113 -0.23014642 0.33846316
v -0.80935323 0.25594506 -0.70686400
v -0.80175871 0.29430649 -0.68879431
v -0.80177867 0.29430762 -0.68407130
v -0.80177867 0.29433763 -0.68489128
v -0.80175573 0.29431799 -0.68878257
v -0.80176866 0.29039764 -0.68489128
v -0.80176866 0.29430762 -0.68489128
v -0.80175871 0.29430762 -0.68879128
v -0.72365868 -0.22528237 0.52994871
v -0.72365868 -0.22528237 0.52603871
v -0.72367871 -0.22521237 0.52994871
v -0.71193868 -0.47521237 -0.61459130
v -0.71582866 -0.47521237 -0.61848128
v -0.71193868 -0.47240236 -0.61848128
v -0.72365868 -0.22528237 0.63541871
v -0.72365868 -0.22528237 0.63150871
v -0.72367871 -0.22521237 0.63541871
v -0.72367871 -0.22521237 0.61978871
v -0.72367871 -0.22521237 0.61587870
v -0.72365868 -0.22528237 0.61587870
v -0.60255867 -0.42833236 -0.34114128
v -0.62404370 -0.42881235 -0.34895128
v -0.71583867 -0.47240236 -0.62239128
v -0.71583867 -0.47522238 -0.61848128
v -0.71583867 -0.48087236 -0.61067128
v -0.71193868 -0.47804239 -0.61067128
v -0.72365868 -0.22528237 0.60416871
v -0.72365868 -0.22528237 0.60025871
v -0.72367871 -0.22521237 0.60416871
v -0.72367871 -0.22521237 0.50259870
v -0.72365868 -0.22528237 0.50259870
v -0.72367871 -0.22521237 0.50650871
v -0.71583867 -0.47521237 -0.61850131
v -0.68539488 -0.47025606 -0.59788603
v -0.70802867 -0.47521237 -0.61068130
v -0.71972871 -0.47521237 -0.62239128
v -0.72367871 -0.22521237 0.61197871
v -0.72367871 -0.22521237 0.60806870
v -0.72367871 -0.22521237 0.59244871
v -0.72180450 -0.19772415 0.56917036
v -0.72367871 -0.22521237 0.54556870
v -0.72365868 -0.22528237 0.54166871
v -0.72365868 -0.22528237 0.53775871
v -0.72367871 -0.22521237 0.54166871
v -0.72367871 -0.22521237 0.58853871
v -0.66652471 -0.22366109 0.78229648
v -0.72101367 -0.19719237 0.67203498
v -0.72367871 -0.22521237 0.63150871
v -0.68849868 -0.31310236 0.56949747
v -0.72367871 -0.22521237 0.57291871
v -0.72367871 -0.22521237 0.57681870
v -0.68452871 -0.31115237 0.53775871
v -0.68458867 -0.31122237 0.54166871
v -0.68458867 -0.31122237 0.53775871
v -0.72367871 -0.22521237 0.62369871
v -0.72365868 -0.22528237 0.61978871
v -0.72367871 -0.22521237 0.63931870
v -0.72365868 -0.22528237 0.58853871
v -0.72365868 -0.22528237 0.64322871
v -0.72365868 -0.22528237 0.59244871
v -0.72365868 -0.22528237 0.56900871
v -0.72365868 -0.22528237 0.56509870
v -0.72367871 -0.22521237 0.56900871
v -0.68452871 -0.31115237 0.55533373
v -0.72365868 -0.22528237 0.65103871
v -0.72367871 -0.22521237 0.58072871
v -0.72365868 -0.22528237 0.58072871
v -0.72367871 -0.22521237 0.58462870
v -0.72227865 -0.19787237 0.61002374
v -0.72367871 -0.22521237 0.59634870
v -0.64552867 -0.35021237 -0.13410127
v -0.64161867 -0.35021237 -0.13411127
v -0.71193868 -0.47522238 -0.61458129
v -0.71191865 -0.47521237 -0.61458129
v -0.64161867 -0.35021237 -0.13410127
v -0.72365868 -0.22528237 0.54556870
v -0.72367871 -0.22521237 0.55728871
v -0.72365868 -0.22528237 0.55728871
v -0.72367871 -0.22521237 0.56119871
v -0.72365868 -0.22528237 0.50650871
v -0.72367871 -0.22521237 0.64712870
v -0.72367871 -0.22521237 0.64322871
v -0.72367871 -0.22521237 0.52212870
v -0.72365868 -0.22528237 0.52212870
v -0.72367871 -0.22521237 0.52603871
v -0.72367871 -0.22521237 0.60025871
v -0.72365868 -0.22528237 0.63931870
v -0.71858013 -0.31214479 -0.12651682
v -0.68458867 -0.31122237 0.55337870
v -0.68458867 -0.31122237 0.54947871
v -0.68458867 -0.31122237 0.53384870
v -0.72367871 -0.22521237 0.48697871
v -0.72365868 -0.22528237 0.51041871
v -0.72365868 -0.22528237 0.49087870
v -0.72365868 -0.22528237 0.48697871
v -0.72367871 -0.22521237 0.49087870
v -0.72365868 -0.22528237 0.53384870
v -0.72367871 -0.22521237 0.53775871
v -0.72365868 -0.22528237 0.51822871
v -0.68452871 -0.31115237 0.52994871
v -0.72367871 -0.22521237 0.49869871
v -0.72367871 -0.22521237 0.49478871
v -0.72365868 -0.22528237 0.49478871
v -0.72365868 -0.22528237 0.56119871
v -0.69006670 -0.23046012 0.59334749
v -0.72365868 -0.22528237 0.54947871
v -0.72367871 -0.22521237 0.54947871
v -0.72365868 -0.22528237 0.58462870
v -0.72367871 -0.22521237 0.65103871
v -0.72367871 -0.22521237 0.55337870
v -0.72365868 -0.22528237 0.62369871
v -0.72365868 -0.22528237 0.61197871
v -0.72365868 -0.22528237 0.64712870
v -0.72365868 -0.22528237 0.48306873
v -0.72365868 -0.22528237 0.49869871
v -0.72365868 -0.22528237 0.51431870
v -0.72365868 -0.22528237 0.59634870
v -0.72367871 -0.22521237 0.56509870
v -0.72365868 -0.22528237 0.55337870
v -0.72367871 -0.22521237 0.51822871
v -0.72367871 -0.22521237 0.53384870
v -0.72365868 -0.22528237 0.62759870
v -0.72367871 -0.22521237 0.62759870
v -0.72365868 -0.22528237 0.57681870
v -0.72365868 -0.22528237 0.57291871
v -0.72365868 -0.22528237 0.60806870
v -0.72365868 -0.22528237 0.47916871
v -0.72367871 -0.22521237 0.48306873
v -0.56551027 -0.26285389 0.75560313
v -0.60270542 0.65370375 -0.44273967
v -0.60255867 0.65369767 -0.44270128
v -0.65724868 0.65369767 -0.44270128
v -0.65333867 0.65369767 -0.44270128
v -0.64946884 0.65363926 -0.44253692
v -0.69851482 0.66124505 -0.48634762
v -0.65333867 0.65367764 -0.44266126
v -0.68458867 -0.31122237 0.54556870
v -0.68752831 -0.30711749 0.53632313
v -0.68888056 -0.31160581 0.57626051
v -0.68452871 -0.31115237 0.54947871
v -0.68452871 -0.31115237 0.54556870
v -0.63771868 -0.35021237 -0.13411127
v -0.63380867 -0.35021237 -0.13411127
v -0.68452871 -0.31115237 0.53384870
v -0.68452871 -0.31115237 0.54166871
v -0.71974868 -0.22912237 0.63590306
v -0.65942657 -0.26068133 0.56051749
v -0.61818868 0.49741763 -0.26301128
v -0.62208867 0.49741763 -0.26301128
v -0.66736972 0.51345456 -0.28797296
v -0.63380867 0.49742761 -0.26304129
v -0.63771868 0.49742761 -0.26304129
v -0.59865868 0.49742761 -0.26304129
v -0.61427867 0.49742761 -0.26304129
v -0.61036867 0.49742761 -0.26304129
v -0.61036867 0.49741763 -0.26301128
v 0.16305131 -0.21742237 0.32291871
v 0.16305131 -0.21740235 0.32283875
v 0.15915129 -0.21740235 0.32283875
v -0.64943868 0.65367764 -0.44266126
v -0.63452244 0.67121983 -0.51123738
v -0.62450278 -0.35125974 -0.12753356
v -0.63771868 -0.35021237 -0.13410127
v -0.64943868 -0.35021237 -0.13410127
v -0.61260021 -0.35095739 -0.13199545
v -0.59870869 -0.28381237 0.77212870
v -0.64227176 -0.34814289 -0.13461043
v -0.61427867 0.49741763 -0.26301128
v -0.63380867 0.49741763 -0.26301128
v -0.63771868 0.49742195 -0.26302418
v -0.62208867 0.49742761 -0.26304129
v -0.70109087 0.75192469 -0.76613420
v -0.60255867 0.49741763 -0.26301128
v -0.60646868 0.49741763 -0.26301128
v -0.62990868 0.49741763 -0.26301128
v -0.62990868 0.49742761 -0.26304129
v -0.61770958 0.50699848 -0.29088524
v -0.57521868 0.49741763 -0.26301128
v -0.57911867 0.49741763 -0.26301128
v -0.57911867 0.49742761 -0.26304129
v -0.64846402 0.65381199 -0.44280985
v -0.62548947 0.63627857 -0.41266638
v -0.54396868 -0.43951240 0.67056870
v -0.59329873 -0.45065299 -0.32046345
v -0.59865868 -0.42834237 -0.34118128
v -0.57195228 -0.42565438 -0.34923610
v -0.59865868 -0.42833236 -0.34114128
v -0.58302867 -0.42833236 -0.34114128
v -0.57911867 -0.42833236 -0.34114128
v -0.56740868 -0.42833236 -0.34114128
v -0.56349868 -0.42833236 -0.34114128
v -0.59865868 -0.29162237 0.77208871
v -0.59865761 -0.29161775 0.77210653
v -0.59870869 -0.28771237 0.77212870
v -0.61317408 -0.26205963 0.78183746
v -0.59865868 -0.28771237 0.77208871
v -0.59865868 0.49741763 -0.26301128
v -0.59474868 0.49741763 -0.26301128
v -0.62599868 0.49742761 -0.26304129
v -0.62599868 0.49741763 -0.26301128
v -0.60958552 0.48404279 -0.23952761
v -0.59474868 0.49742761 -0.26304129
v -0.57130867 0.49741763 -0.26301128
v -0.56740868 0.49741763 -0.26301128
v -0.60255867 0.49742761 -0.26304129
v -0.58693868 0.49741763 -0.26301128
v -0.58302867 0.49741763 -0.26301128
v -0.58302867 0.49742761 -0.26304129
v -0.58693868 0.49742761 -0.26304129
v -0.61818868 0.49742761 -0.26304129
v -0.59083867 0.49741763 -0.26301128
v -0.60646868 0.49742761 -0.26304129
v -0.57130867 0.49742761 -0.26304129
v -0.59083867 0.49742761 -0.26304129
v -0.60255867 0.65367764 -0.44266126
v -0.59865868 0.65367764 -0.44266126
v -0.59760869 0.65367764 -0.44270128
v -0.60716164 0.74997002 -0.74954438
v -0.54396868 0.49742761 -0.26304129
v -0.54786867 0.49742761 -0.26304129
v -0.59865868 0.65369767 -0.44270128
v -0.59865224 0.65231270 -0.43840304
v -0.60255867 0.75651765 -0.76301128
v -0.60256398 0.75525010 -0.75904143
v -0.59865868 0.75524765 -0.75903130
v -0.59852898 0.75522596 -0.75896609
v -0.60255867 0.75526768 -0.75911129
v -0.59847355 0.75527334 -0.75913709
v -0.58693868 -0.42834237 -0.34118128
v -0.56740868 -0.42834237 -0.34118128
v -0.56349868 -0.42834237 -0.34118128
v -0.59083867 -0.42833236 -0.34114128
v -0.59083867 -0.42834237 -0.34118128
v -0.57130867 -0.42833236 -0.34114128
v -0.53615868 -0.44004235 0.67447871
v -0.54005867 -0.44006237 0.67430872
v -0.57521868 -0.42833236 -0.34114128
v -0.57130867 -0.42834237 -0.34118128
v -0.55563450 -0.44384208 0.67060912
v -0.54786867 -0.42834237 -0.34118128
v -0.53420120 -0.42937240 -0.34504125
v -0.58693868 -0.42833236 -0.34114128
v -0.57521868 -0.42834237 -0.34118128
v -0.57911867 -0.42834237 -0.34118128
v -0.59474868 -0.42833236 -0.34114128
v -0.59474868 -0.42834237 -0.34118128
v -0.55177867 -0.42834237 -0.34118128
v -0.55568868 -0.42833236 -0.34114128
v -0.55568868 -0.42834237 -0.34118128
v -0.58302867 -0.42834237 -0.34118128
v -0.55177867 -0.42833236 -0.34114128
v -0.54786867 -0.42833236 -0.34114128
v -0.53615868 -0.44006237 0.67448872
v -0.53615648 -0.44006899 0.67446518
v -0.55958867 -0.42834237 -0.34118128
v -0.55958867 -0.42833236 -0.34114128
v -0.59637594 -0.32703269 0.77393103
v -0.60171658 0.75963223 -0.78838903
v -0.59301263 0.65324122 -0.44385630
v -0.55958867 0.49741763 -0.26301128
v -0.56349868 0.49741763 -0.26301128
v -0.56349868 0.49742761 -0.26304129
v -0.55177867 0.49741763 -0.26301128
v -0.55568868 0.49741763 -0.26301128
v -0.55568868 0.49742761 -0.26304129
v -0.57521868 0.49742761 -0.26304129
v -0.55958867 0.49742761 -0.26304129
v -0.56740868 0.49742761 -0.26304129
v -0.55943823 0.50619078 -0.29052141
v -0.65631479 0.59383899 -0.27692547
v -0.54865199 0.65272695 -0.43793485
v -0.54267448 0.73140466 -0.67998725
v -0.59474868 0.75645763 -0.76301128
v -0.54005867 -0.44006237 0.67448872
v -0.54005867 -0.42834237 -0.34118128
v -0.54396868 -0.44004235 0.67447871
v -0.54005867 -0.44004235 0.67447871
v -0.53615868 -0.42834237 -0.34118128
v -0.53615868 -0.42833236 -0.34114128
v -0.54005867 -0.42833236 -0.34114128
v -0.52052867 -0.42833236 -0.34114128
v -0.52443868 -0.42833236 -0.34114128
v -0.54396868 -0.42833236 -0.34114128
v -0.54396868 -0.42834237 -0.34118128
v -0.51854843 -0.45352992 0.67786014
v -0.55177867 0.49742761 -0.26304129
v -0.54396868 0.49741763 -0.26301128
v -0.54786867 0.49741763 -0.26301128
v -0.54005867 0.49742761 -0.26304129
v -0.53615868 0.49742761 -0.26304129
v -0.53615868 0.49741763 -0.26301128
v -0.54005867 0.49741763 -0.26301128
v -0.51271868 -0.42833236 -0.34114128
v -0.51661867 -0.42833236 -0.34114128
v -0.51271868 -0.42834237 -0.34118128
v -0.50880867 -0.42833236 -0.34114128
v -0.52833867 -0.42833236 -0.34114128
v -0.53224868 -0.42833236 -0.34114128
v -0.52833867 -0.42834237 -0.34118128
v -0.52443868 -0.42834237 -0.34118128
v -0.52052867 -0.42834237 -0.34118128
v -0.50490868 -0.42834237 -0.34118128
v -0.53224868 -0.42834237 -0.34118128
v -0.51661867 -0.42834237 -0.34118128
v -0.50880867 -0.42834237 -0.34118128
v -0.50490868 -0.42833236 -0.34114128
v -0.52052993 -0.42875361 -0.34901252
v -0.48927870 0.49741763 -0.26301128
v -0.48927870 0.49742761 -0.26304129
v -0.48536870 0.49741763 -0.26301128
v -0.49708870 0.49742761 -0.26304129
v -0.47365871 0.49741763 -0.26301128
v -0.47755870 0.49741763 -0.26301128
v -0.47755870 0.49742761 -0.26304129
v -0.52052867 0.49741763 -0.26301128
v -0.52443868 0.49742761 -0.26304129
v -0.52052867 0.49742761 -0.26304129
v -0.49708870 0.49741763 -0.26301128
v -0.50099868 0.49742761 -0.26304129
v -0.51661867 0.49742761 -0.26304129
v -0.48146871 0.49741763 -0.26301128
v -0.48146871 0.49742761 -0.26304129
v -0.47614130 0.48422340 -0.23983482
v -0.51271868 0.49742761 -0.26304129
v -0.50880867 0.49741763 -0.26301128
v -0.51271868 0.49741763 -0.26301128
v -0.52443868 0.49741763 -0.26301128
v -0.52833867 0.49741763 -0.26301128
v -0.52833867 0.49742761 -0.26304129
v -0.53224868 0.49742761 -0.26304129
v -0.51661867 0.49741763 -0.26301128
v -0.53224868 0.49741763 -0.26301128
v -0.50490868 0.49741763 -0.26301128
v -0.50880867 0.49742761 -0.26304129
v -0.50490868 0.49742761 -0.26304129
v -0.53899920 0.48395583 -0.23934922
v -0.50099868 0.49741763 -0.26301128
v -0.50099868 -0.42834237 -0.34118128
v -0.50099868 -0.42833236 -0.34114128
v -0.48586121 -0.42937240 -0.34504125
v -0.51760375 -0.44734824 -0.29808894
v -0.46212545 -0.42887366 -0.34495950
v -0.49951231 0.50718701 -0.28906611
v -0.48536870 0.49742761 -0.26304129
v -0.49318871 0.49741763 -0.26301128
v -0.47365871 0.49742761 -0.26304129
v -0.45802870 0.49742761 -0.26304129
v -0.46193871 0.49742761 -0.26304129
v -0.46193871 0.49741763 -0.26301128
v -0.46583870 0.49741763 -0.26301128
v -0.49318871 0.49742761 -0.26304129
v -0.46583870 0.49742761 -0.26304129
v -0.43211794 -0.72045684 -0.38293698
v -0.43849871 -0.26428238 0.36595872
v -0.43849871 -0.26818237 0.36595872
v -0.42294496 -0.30741337 0.35761943
v -0.43851870 -0.27990237 0.36587870
v -0.43849871 -0.29553238 0.36595872
v -0.43851870 -0.27209237 0.36587870
v -0.43849871 -0.27599236 0.36595872
v -0.43849871 -0.27209237 0.36595872
v -0.43849871 -0.28771237 0.36583871
v -0.43851870 -0.28381237 0.36587870
v -0.43849871 -0.28381237 0.36595872
v -0.43565872 -0.29943237 0.36197871
v -0.43668872 -0.30334237 0.36587870
v -0.43601933 -0.25615072 0.36190081
v -0.43851870 -0.26428238 0.36587870
v -0.43851870 -0.25646237 0.36587870
v -0.43850574 -0.25643873 0.36591825
v -0.43851870 -0.28771237 0.36587870
v -0.43849871 -0.29162237 0.36595872
v -0.43849871 -0.28771237 0.36595872
v -0.45021871 0.49742761 -0.26304129
v -0.45411870 0.49742761 -0.26304129
v -0.41115871 -0.73303235 -0.37362126
v -0.66137874 0.46627077 -0.12306174
v -0.45802870 0.49741763 -0.26301128
v -0.45411870 0.49741763 -0.26301128
v -0.46974871 0.49742761 -0.26304129
v -0.46974871 0.49741763 -0.26301128
v -0.44240871 0.49741763 -0.26301128
v -0.44630870 0.49741763 -0.26301128
v -0.44630870 0.49742761 -0.26304129
v -0.44240871 0.49742761 -0.26304129
v -0.45021871 0.49741763 -0.26301128
v -0.42697465 0.64080083 -0.39640954
v -0.41144896 0.48402593 -0.23947933
v -0.46193758 0.65759784 -0.41145149
v -0.46534386 0.65378290 -0.40810901
v -0.45749354 0.66923487 -0.44751996
v -0.45528871 0.65367764 -0.41536126
v -0.45802775 0.65763718 -0.41523227
v -0.46193871 0.65759766 -0.41145128
v -0.46195367 0.65759754 -0.41144323
v -0.45802870 0.65758765 -0.41513130
v -0.41505870 0.49742761 -0.26304129
v -0.41896871 0.49742761 -0.26304129
v -0.40732872 -0.72521234 -0.37239128
v -0.40732872 -0.72912234 -0.37239128
v -0.41084301 -0.71596837 -0.37355894
v -0.40724871 -0.72521234 -0.37236127
v -0.29688036 -0.45391035 -0.30193415
v -0.39719534 -0.32269046 0.54211414
v -0.40732872 -0.73303235 -0.37239128
v -0.43849871 -0.29553238 0.36583871
v -0.43849871 -0.29943237 0.36583871
v -0.43851870 -0.29553238 0.36587870
v -0.43849871 -0.29943237 0.36595872
v -0.43849871 -0.29162237 0.36583871
v -0.43851870 -0.29162237 0.36587870
v -0.43851870 -0.26818237 0.36587870
v -0.43851250 -0.29949105 0.36587885
v -0.38221276 -0.66150874 -0.38199931
v -0.43851870 -0.26037237 0.36587870
v -0.43849871 -0.26037237 0.36595872
v -0.44096670 -0.26307833 0.37973562
v -0.43835077 -0.25646967 0.36557409
v -0.43849871 -0.27990237 0.36595872
v -0.43851870 -0.27599236 0.36587870
v -0.43685147 -0.23926771 0.35753834
v -0.41115871 0.49742761 -0.26304129
v -0.42286870 0.49742761 -0.26304129
v -0.42677870 0.49741763 -0.26301128
v -0.43068871 0.49741763 -0.26301128
v -0.43068871 0.49742761 -0.26304129
v -0.42286870 0.49741763 -0.26301128
v -0.42677870 0.49742761 -0.26304129
v -0.41896871 0.49741763 -0.26301128
v -0.43458870 0.49741763 -0.26301128
v -0.43458870 0.49742761 -0.26304129
v -0.23250376 0.66012257 -0.49638802
v -0.43849871 0.49742761 -0.26304129
v -0.43402973 0.50653809 -0.29122585
v -0.43849871 0.49741763 -0.26301128
v -0.41505870 0.49741763 -0.26301128
v -0.40333870 0.49741763 -0.26301128
v -0.41115871 0.49741763 -0.26301128
v -0.39552870 0.49741763 -0.26301128
v -0.39943871 0.49742761 -0.26304129
v -0.39552870 0.49742761 -0.26304129
v -0.40724871 -0.73303235 -0.37236127
v -0.40724871 -0.72912234 -0.37236127
v -0.37400013 -0.75601786 -0.37582812
v -0.40724263 -0.73305953 -0.37236491
v -0.40724871 0.49741763 -0.26301128
v -0.39943871 0.49741763 -0.26301128
v -0.40333870 0.49742761 -0.26304129
v -0.38771871 0.49741763 -0.26301128
v -0.39161870 0.49742761 -0.26304129
v -0.38771871 0.49742761 -0.26304129
v -0.36427870 -0.44781235 0.67837870
v -0.36427870 -0.44787237 0.67832869
v -0.36036870 -0.44787237 0.67832869
v -0.37666973 -0.43711069 0.73828864
v -0.35646871 -0.44787237 0.67832869
v -0.35255870 -0.44781235 0.67837870
v -0.35883048 -0.48382193 0.67995560
v -0.43315452 -0.31539816 0.38244212
v -0.39161870 0.49741763 -0.26301128
v -0.40724871 0.49742761 -0.26304129
v -0.38380870 0.49742761 -0.26304129
v -0.37990871 0.49742761 -0.26304129
v -0.38380870 0.49741763 -0.26301128
v -0.37990871 0.49741763 -0.26301128
v -0.37208870 0.49741763 -0.26301128
v -0.37599871 0.49741763 -0.26301128
v -0.37599871 0.49742761 -0.26304129
v -0.37672931 0.49963763 -0.26692128
v -0.36818871 -0.44787237 0.67832869
v -0.36818871 -0.44781235 0.67837870
v -0.34865871 -0.44787237 0.67832869
v -0.35646871 -0.44781235 0.67837870
v -0.36036870 -0.44781235 0.67837870
v -0.35255870 -0.44787237 0.67832869
v -0.34865871 -0.44781235 0.67837870
v -0.34474871 -0.44787237 0.67832869
v -0.34472463 -0.44785088 0.67833763
v -0.29005870 -0.36985236 0.57291871
v -0.31349871 -0.45178238 -0.18497127
v -0.31740871 -0.45169237 -0.18489127
v -0.28561437 0.50354666 -0.29097229
v -0.31935871 -0.45178238 -0.18497127
v -0.32327792 -0.45173690 -0.18493083
v -0.31381753 -0.42139876 -0.15465637
v -0.29005870 -0.36974236 0.57284874
v -0.29396871 -0.36974236 0.57284874
v -0.32130870 -0.45169237 -0.18489127
v -0.29786870 -0.36974236 0.57284874
v -0.29396871 -0.36985236 0.57291871
v -0.31349781 -0.45173648 -0.18493046
v -0.30035466 -0.45514339 -0.18894750
v -0.28825754 -0.42641827 -0.16026767
v -0.23536868 -0.70959234 -0.37237126
v -0.23530871 -0.70959234 -0.37239128
v -0.23536868 -0.70568234 -0.37237126
v -0.23544870 -0.70568234 -0.37239128
v -0.30568871 -0.44779238 -0.18098128
v -0.24318869 -0.59238237 0.63541871
v -0.23927870 -0.59238237 0.63150871
v -0.23530871 -0.73303235 -0.37239128
v -0.23530871 -0.72912234 -0.37239128
v -0.23536868 -0.72912234 -0.37237126
v -0.32130870 -0.44779238 -0.18098128
v -0.28049657 -0.57807571 0.61995268
v -0.23530871 -0.71349233 -0.37239128
v -0.29860094 -0.36980993 0.57288486
v -0.28401855 -0.34485644 0.58080000
v -0.23544870 -0.72131234 -0.37239128
v -0.23544870 -0.71740234 -0.37239128
v -0.28953984 -0.46563235 -0.21862666
v -0.30199012 -0.44992390 -0.18350407
v -0.28020662 -0.38702938 0.56354493
v -0.28224871 -0.36985236 0.57291871
v -0.28615871 -0.36985236 0.57291871
v -0.28615871 -0.36974236 0.57284874
v -0.23530871 -0.71740234 -0.37239128
v -0.27074182 -0.66194844 -0.37923995
v -0.74247622 -0.00314635 -0.06251603
v -0.23544870 -0.69396234 -0.37239128
v -0.23544870 -0.69006234 -0.37239128
v -0.23544870 -0.69787234 -0.37239128
v -0.23538041 -0.73310316 -0.37238526
v -0.23146871 -0.73303235 -0.37425125
v -0.25099871 -0.58966237 0.63931870
v -0.23544870 -0.70178235 -0.37239128
v -0.23530871 -0.72131234 -0.37239128
v -0.23530871 -0.72521234 -0.37239128
v -0.23544870 -0.72521234 -0.37239128
v -0.23536868 -0.72521234 -0.37237126
v -0.23536868 -0.73303235 -0.37237126
v -0.23544870 -0.72912234 -0.37239128
v -0.23536868 -0.71740234 -0.37237126
v -0.23515372 -0.68098414 -0.37263364
v -0.23927870 -0.71886736 -0.37343127
v -0.23530871 -0.70568234 -0.37239128
v -0.24310762 -0.59245485 0.63539916
v -0.24318869 -0.59240234 0.63542873
v -0.24707872 -0.59240234 0.63931870
v -0.23726210 -0.59935027 0.63026595
v -0.24708870 -0.59238237 0.63931870
v -0.26661870 -0.36974236 0.57284874
v -0.27052870 -0.36985236 0.57291871
v -0.27443871 -0.36985236 0.57291871
v -0.23146871 -0.40881237 -0.30834129
v -0.25490871 -0.36974236 0.57284874
v -0.25880870 -0.36974236 0.57284874
v -0.25490871 -0.36985236 0.57291871
v -0.26661870 -0.36985236 0.57291871
v -0.27833870 -0.36974236 0.57284874
v -0.28224871 -0.36974236 0.57284874
v -0.27833870 -0.36985236 0.57291871
v -0.27052870 -0.36974236 0.57284874
v -0.27443871 -0.36974236 0.57284874
v -0.26271871 -0.36985236 0.57291871
v -0.26271871 -0.36974236 0.57284874
v -0.25880870 -0.36985236 0.57291871
v -0.23544870 -0.71349233 -0.37239128
v -0.25099871 -0.36985236 0.57291871
v -0.23138870 -0.41271237 -0.30598128
v -0.23146871 -0.41279235 -0.30598128
v -0.23146871 -0.41271237 -0.30605128
v -0.23139612 -0.42488286 -0.29382327
v -0.23551872 -0.41662237 -0.30598128
v -0.23589624 -0.41257602 -0.31026235
v -0.23556870 -0.41271237 -0.30989128
v -0.23536868 -0.42053238 -0.30193129
v -0.23551872 -0.42053238 -0.30208129
v -0.23536868 -0.42038235 -0.30208129
v -0.24967538 -0.42121795 0.72283179
v -0.23146871 -0.42053238 -0.29824129
v -0.25099871 -0.36974236 0.57284874
v -0.23138870 -0.41662237 -0.30208129
v -0.23146871 -0.41669235 -0.30208129
v -0.23146871 -0.41662237 -0.30215129
v -0.23544870 -0.68224233 -0.37239128
v -0.23544870 -0.68615234 -0.37239128
v -0.23138870 -0.42053238 -0.29817128
v -0.23544870 -0.70959234 -0.37239128
v -0.23536868 -0.71349233 -0.37237126
v -0.23536868 -0.70178235 -0.37237126
v -0.23536868 -0.69787234 -0.37237126
v -0.23536868 -0.69396234 -0.37237126
v -0.23536868 -0.72131234 -0.37237126
v -0.22524777 -0.69550812 -0.38157552
v -0.23536868 -0.68615234 -0.37237126
v -0.25087047 -0.75400299 -0.38064858
v -0.23536868 -0.41648236 -0.30598128
v -0.23536868 -0.69006234 -0.37237126
v -0.24708785 -0.59244269 0.63937259
v -0.23146871 -0.42060235 -0.29817128
v -0.23536868 -0.42429236 -0.29817128
v -0.23536868 -0.41271237 -0.30970129
v -0.23146871 -0.42443237 -0.29434127
v -0.26465592 -0.39165756 -0.37764236
v -0.24440464 -0.36925486 0.57311875
v -0.24708870 -0.36985236 0.57291871
v -0.21561839 -0.36438003 -0.30729094
v -0.33633059 -0.22232597 0.32986960
v -0.18068621 -0.22131237 0.31189871
v -0.14943869 -0.21742237 0.32291871
v -0.13771871 -0.43633237 -0.43489128
v -0.13760871 -0.44006237 -0.43879125
v -0.10646870 0.23571762 -0.08337128
v -0.10641871 0.23180763 -0.08333128
v -0.10646870 0.25133762 -0.08337128
v -0.10641871 0.25524762 -0.08333128
v -0.10646870 0.25914764 -0.08337128
v -0.10641871 0.25914764 -0.08333128
v -0.13772337 -0.44398263 -0.44267204
v -0.13772309 -0.44010291 -0.43872389
v -0.14176454 -0.44129166 -0.43930233
v -0.16042866 -0.42646325 0.42186192
v -0.17350215 -0.21742602 0.32293028
v -0.17286871 -0.21740235 0.32283875
v -0.16896871 -0.21740235 0.32283875
v -0.16505872 -0.21740235 0.32283875
v -0.16115871 -0.21742237 0.32291871
v -0.16505872 -0.21742237 0.32291871
v -0.16896871 -0.21742237 0.32291871
v -0.16115871 -0.21740235 0.32283875
v -0.14161871 -0.21740235 0.32283875
v -0.13771871 -0.21740235 0.32283875
v -0.15724871 -0.21742237 0.32291871
v -0.11427870 -0.21742237 0.32291871
v -0.11818870 -0.21742237 0.32291871
v -0.11818870 -0.21740235 0.32283875
v -0.06740871 -0.21742237 0.32291871
v -0.07130871 -0.21742237 0.32291871
v -0.07130871 -0.21740235 0.32283875
v -0.10646870 0.27867764 -0.08337128
v -0.11010402 0.25374979 -0.07733291
v -0.10646870 0.26305762 -0.08337128
v -0.10641871 0.26305762 -0.08333128
v -0.11035871 -0.44006237 0.71353871
v -0.13712081 -0.49439505 -0.48038283
v -0.13766871 -0.44396237 -0.44270128
v -0.13571870 -0.44396237 -0.44661126
v -0.13771871 -0.44017240 -0.43879125
v -0.14233100 -0.43430319 -0.43182072
v -0.13225137 -0.40670070 -0.43760601
v -0.11027496 -0.44406050 0.71328926
v -0.11036871 -0.44396237 0.71358871
v -0.11035871 -0.44396237 0.71353871
v -0.11036871 -0.44006237 0.71358871
v -0.10409397 -0.37885624 0.39400253
v -0.12644149 -0.45077848 0.68492848
v -0.13380872 -0.21740235 0.32283875
v -0.13380872 -0.21742237 0.32291871
v -0.12990871 -0.21742237 0.32291871
v -0.15724871 -0.21740235 0.32283875
v -0.13771871 -0.21742237 0.32291871
v -0.14161871 -0.21742237 0.32291871
v -0.06656788 -0.24705562 0.30887139
v -0.15333872 -0.21740235 0.32283875
v -0.14552870 -0.21742237 0.32291871
v -0.14552870 -0.21740235 0.32283875
v -0.15333872 -0.21742237 0.32291871
v -0.14943869 -0.21740235 0.32283875
v -0.12599871 -0.21742237 0.32291871
v -0.12990871 -0.21740235 0.32283875
v -0.14456527 -0.22751059 0.32909811
v -0.12208871 -0.21740235 0.32283875
v -0.11427870 -0.21740235 0.32283875
v -0.11036871 -0.21740235 0.32283875
v -0.10646870 -0.21742237 0.32291871
v -0.10646870 -0.21740235 0.32283875
v -0.10255871 -0.21740235 0.32283875
v -0.09865871 -0.21740235 0.32283875
v -0.10641871 0.24352764 -0.08333128
v -0.11034746 0.21839440 -0.08207606
v -0.10646870 0.23961765 -0.08337128
v 0.02634129 -0.32682237 -0.44661126
v 0.02631129 -0.32678238 -0.44270128
v 0.02631129 -0.32678238 -0.44661126
v 0.02634129 -0.32682237 -0.36067128
v 0.02634129 -0.32682237 -0.36458129
v 0.02631129 -0.32678238 -0.36067128
v -0.10641871 0.23961765 -0.08333128
v -0.10646870 0.24742763 -0.08337128
v -0.10030007 -0.36742300 0.38676834
v -0.10255871 -0.37637237 0.39322871
v -0.11140871 -0.44396237 0.71744871
v -0.11036871 -0.43615237 0.71358871
v -0.15796046 -0.37330824 0.35546437
v -0.09923733 -0.36185816 0.37712806
v -0.09865871 -0.37370238 0.39322871
v -0.09865871 -0.35021237 0.37752873
v -0.09865871 -0.37365237 0.39315873
v 0.06930129 -0.21740235 0.32283875
v -0.08980068 -0.30196571 0.37364349
v -0.08662044 -0.36252940 0.38972107
v -0.09857871 -0.35021237 0.37759870
v -0.09862739 -0.34548041 0.37755609
v -0.09865871 -0.34631237 0.37752873
v -0.09865871 -0.36982238 0.38931873
v -0.09857871 -0.37365237 0.39322871
v -0.09884871 -0.36974236 0.38931873
v -0.09865871 -0.35803238 0.37752873
v -0.09856946 -0.35805872 0.37760869
v -0.09857871 -0.35803238 0.37759870
v -0.09865871 -0.35412237 0.37752873
v -0.09864496 -0.36974716 0.38924280
v -0.09553871 -0.37365237 0.39712870
v -0.14402148 -0.21634942 0.50678498
v -0.08693870 -0.21740235 0.32283875
v -0.09083870 -0.21740235 0.32283875
v -0.08693870 -0.21742237 0.32291871
v -0.12208871 -0.21742237 0.32291871
v -0.12599871 -0.21740235 0.32283875
v -0.08302871 -0.29162237 0.40094870
v -0.08302871 -0.28771237 0.40094870
v -0.09083870 -0.21742237 0.32291871
v -0.09474871 -0.21742237 0.32291871
v -0.07911871 -0.21740235 0.32283875
v -0.07521870 -0.21742237 0.32291871
v -0.07521870 -0.21740235 0.32283875
v -0.11036871 -0.21742237 0.32291871
v -0.09474871 -0.21740235 0.32283875
v -0.10255871 -0.21742237 0.32291871
v -0.09865871 -0.21742237 0.32291871
v -0.10669950 -0.22658183 0.33715191
v -0.05177871 -0.21740235 0.32283875
v -0.11159246 -0.22127861 0.31387559
v -0.08302871 -0.21742237 0.32291871
v -0.10641871 0.23571762 -0.08333128
v -0.10646870 0.27086765 -0.08337128
v -0.10646870 0.24352764 -0.08337128
v -0.10641871 0.24742763 -0.08333128
v -0.10641871 0.25133762 -0.08333128
v -0.10646870 0.25524762 -0.08337128
v -0.10646870 0.26696762 -0.08337128
v -0.10641871 0.26696762 -0.08333128
v -0.10646870 0.27477762 -0.08337128
v -0.10641871 0.27477762 -0.08333128
v -0.10641871 0.27086765 -0.08333128
v -0.02833871 -0.30724236 -0.39981130
v -0.09857871 -0.35412237 0.37759870
v -0.08573896 -0.29289490 0.39060161
v -0.03615871 -0.21740235 0.32283875
v -0.03224871 -0.21742237 0.32291871
v -0.03224871 -0.21740235 0.32283875
v -0.02552395 -0.29509243 -0.35694337
v -0.08301952 -0.28320554 0.40099108
v -0.08300871 -0.29553238 0.40103871
v -0.08302871 -0.21740235 0.32283875
v -0.08302871 -0.28381237 0.40094870
v -0.08300871 -0.28771237 0.40103871
v -0.07901088 -0.27614811 0.41625512
v -0.08300871 -0.29162237 0.40103871
v -0.06349871 -0.21740235 0.32283875
v -0.05958870 -0.21742237 0.32291871
v -0.05958870 -0.21740235 0.32283875
v -0.07911871 -0.21742237 0.32291871
v -0.04786871 -0.21740235 0.32283875
v -0.04786871 -0.21742237 0.32291871
v -0.00295159 -0.22797255 0.31210554
v -0.06740871 -0.21740235 0.32283875
v -0.06349871 -0.21742237 0.32291871
v -0.05568870 -0.21742237 0.32291871
v 0.02631129 -0.32678238 -0.41926128
v 0.01463129 -0.21742237 0.32291871
v 0.01072129 -0.21742237 0.32291871
v 0.01072129 -0.21740235 0.32283875
v -0.05933374 -0.21073514 0.34891641
v 0.02631129 -0.32678238 -0.38020128
v 0.02631129 -0.32678238 -0.37629125
v 0.03468653 -0.32021791 -0.38415092
v 0.03805129 -0.21742237 0.32291871
v 0.02634129 -0.32682237 -0.48567128
v 0.02631129 -0.32678238 -0.30989128
v 0.02634129 -0.32682237 -0.45833129
v 0.02634129 -0.32682237 -0.46223128
v 0.02631129 -0.32678238 -0.45833129
v 0.02634129 -0.32682237 -0.41536126
v 0.02634129 -0.32682237 -0.41926128
v 0.02631129 -0.32678238 -0.41536126
v -0.02833871 -0.28771237 -0.39981130
v -0.03049973 -0.27300569 -0.40364310
v -0.02833871 -0.29162237 -0.39966127
v -0.02833871 -0.28771237 -0.39966127
v 0.02634129 -0.32682237 -0.35286126
v 0.02631129 -0.32678238 -0.34895128
v 0.02631129 -0.32678238 -0.35286126
v 0.02631129 -0.32678238 -0.45442128
v 0.02631129 -0.32678238 -0.33723128
v 0.02634129 -0.32682237 -0.33723128
v 0.02631129 -0.32678238 -0.33333129
v 0.02631129 -0.32678238 -0.37239128
v -0.13227271 -0.35633329 -0.17899343
v -0.02833871 -0.27209237 -0.39966127
v -0.02830871 -0.27599236 -0.39973128
v -0.02830871 -0.27209237 -0.39973128
v -0.02833871 -0.27209237 -0.39981130
v -0.02833871 -0.29553238 -0.39966127
v -0.02830871 -0.29943237 -0.39973128
v -0.02830871 -0.29553238 -0.39973128
v -0.02833871 -0.29553238 -0.39981130
v -0.02833871 -0.30724236 -0.39966127
v -0.02833871 -0.30334237 -0.39966127
v -0.02834277 -0.31116617 -0.39965782
v -0.02830871 -0.31115237 -0.39973128
v 0.03728129 -0.32678238 -0.26203877
v -0.02833871 -0.27990237 -0.39981130
v 0.02631129 -0.32678238 -0.47395128
v 0.02631129 -0.32678238 -0.47004125
v -0.02833871 -0.26818237 -0.39966127
v -0.02833871 -0.29943237 -0.39966127
v -0.02830871 -0.30334237 -0.39973128
v -0.02833871 -0.30334237 -0.39981130
v -0.02830871 -0.30724236 -0.39973128
v -0.02833871 -0.26428238 -0.39981130
v -0.02833871 -0.29943237 -0.39981130
v -0.02833871 -0.28381237 -0.39981130
v -0.02833871 -0.26428238 -0.39966127
v -0.02830871 -0.26818237 -0.39973128
v -0.02833871 -0.29162237 -0.39981130
v 0.02634129 -0.32682237 -0.29817128
v -0.03841388 -0.22987168 -0.41068542
v -0.02833871 -0.28381237 -0.39966127
v -0.02833871 -0.27990237 -0.39966127
v -0.02833871 -0.26818237 -0.39981130
v -0.02833871 -0.25256237 -0.39981130
v -0.02833871 -0.24865235 -0.39981130
v -0.02830871 -0.25256237 -0.39973128
v -0.05177871 -0.21742237 0.32291871
v -0.05568870 -0.21740235 0.32283875
v -0.04396870 -0.21740235 0.32283875
v -0.04005871 -0.21742237 0.32291871
v -0.04396870 -0.21742237 0.32291871
v -0.04005871 -0.21740235 0.32283875
v -0.03615871 -0.21742237 0.32291871
v -0.02052871 -0.21740235 0.32283875
v -0.01661871 -0.21740235 0.32283875
v -0.00099871 -0.21742237 0.32291871
v -0.01271871 -0.21740235 0.32283875
v -0.00880871 -0.21740235 0.32283875
v -0.02443870 -0.21740235 0.32283875
v -0.02052871 -0.21742237 0.32291871
v 0.07712129 -0.21740235 0.32283875
v 0.08102129 -0.21740235 0.32283875
v -0.01271871 -0.21742237 0.32291871
v -0.02833871 -0.21742237 0.32291871
v -0.02833871 -0.21740235 0.32283875
v 0.01853129 -0.21740235 0.32283875
v 0.01853129 -0.21742237 0.32291871
v 0.02244129 -0.21742237 0.32291871
v 0.29477003 -0.29693049 0.37989780
v 0.02631129 -0.32678238 -0.31379125
v -0.04610292 -0.22120488 0.31325653
v -0.00880871 -0.21742237 0.32291871
v -0.00490871 -0.21742237 0.32291871
v 0.13204943 -0.21796487 0.31625372
v 0.14352129 -0.21740235 0.32283875
v -0.00099871 -0.21740235 0.32283875
v 0.00291129 -0.21742237 0.32291871
v 0.02244129 -0.21740235 0.32283875
v 0.19992067 -0.22001112 0.31309873
v 0.02631129 -0.32678238 -0.43879125
v 0.02634129 -0.32682237 -0.44270128
v 0.02631129 -0.32678238 -0.28645128
v 0.02631129 -0.32678238 -0.32551128
v 0.02631129 -0.32678238 -0.32161126
v 0.03856422 -0.32496494 -0.31084293
v 0.02634129 -0.32682237 -0.47395128
v 0.02634129 -0.32682237 -0.31770128
v 0.02591629 -0.31817237 -0.36555627
v 0.02631129 -0.32678238 -0.34504125
v 0.02634129 -0.32682237 -0.43098128
v 0.02631129 -0.32678238 -0.29817128
v 0.02631129 -0.32678238 -0.30208129
v 0.02634129 -0.32682237 -0.30208129
v 0.02634129 -0.32682237 -0.39583129
v 0.02634129 -0.32682237 -0.32161126
v 0.02634129 -0.32682237 -0.47786126
v 0.02634129 -0.32682237 -0.48176128
v 0.02631129 -0.32678238 -0.47786126
v -0.02830871 -0.28381237 -0.39973128
v -0.02830871 -0.27990237 -0.39973128
v 0.02634129 -0.32682237 -0.25911126
v 0.02634129 -0.32682237 -0.26301128
v 0.02631129 -0.32678238 -0.25911126
v 0.02634129 -0.32682237 -0.40754125
v 0.02631129 -0.32678238 -0.32942128
v -0.02831269 -0.31119284 -0.39974114
v -0.02830871 -0.29162237 -0.39973128
v 0.02667638 -0.31965321 -0.31612131
v 0.02634129 -0.32682237 -0.32942128
v 0.02634129 -0.32682237 -0.32551128
v 0.02631129 -0.32678238 -0.22786127
v 0.02634129 -0.32682237 -0.43879125
v 0.02631129 -0.32678238 -0.43489128
v 0.02634129 -0.32682237 -0.30598128
v 0.02634129 -0.32682237 -0.30989128
v 0.02631129 -0.32678238 -0.30598128
v -0.04608526 -0.30146009 -0.38627538
v -0.02830871 -0.28771237 -0.39973128
v -0.02833871 -0.27599236 -0.39966127
v 0.02634129 -0.32682237 -0.45051128
v 0.02631129 -0.32678238 -0.45051128
v 0.02631129 -0.32678238 -0.42708129
v 0.02631129 -0.32678238 -0.43098128
v 0.02631129 -0.32678238 -0.28254125
v 0.02634129 -0.32682237 -0.28645128
v -0.02833871 -0.27599236 -0.39981130
v -0.02830871 -0.26428238 -0.39973128
v -0.02833871 -0.26037237 -0.39981130
v -0.03063772 -0.24501085 -0.40374765
v -0.02833871 -0.25646237 -0.39981130
v -0.02830871 -0.25646237 -0.39973128
v -0.02833871 -0.25646237 -0.39966127
v -0.03007871 -0.24865235 -0.39583129
v -0.02833871 -0.26037237 -0.39966127
v -0.02833871 -0.25256237 -0.39966127
v -0.02830871 -0.26037237 -0.39973128
v -0.02833871 -0.24865235 -0.39966127
v 0.02634129 -0.32682237 -0.23567127
v 0.02634129 -0.32682237 -0.23958129
v 0.02631129 -0.32678238 -0.23567127
v 0.02631129 -0.32678238 -0.29426128
v -0.02443870 -0.21742237 0.32291871
v -0.02831790 -0.24833481 -0.39973804
v 0.02631129 -0.32678238 -0.31770128
v 0.02631129 -0.32678238 -0.25520128
v 0.02631129 -0.32678238 -0.35676128
v 0.02634129 -0.32682237 -0.35676128
v -0.00490871 -0.21740235 0.32283875
v -0.01661871 -0.21742237 0.32291871
v 0.00291129 -0.21740235 0.32283875
v 0.02634129 -0.21742237 0.32291871
v 0.17868128 -0.21740235 0.32283875
v 0.18259129 -0.21742237 0.32291871
v 0.18259129 -0.21740235 0.32283875
v -0.01592558 -0.22948427 0.34055096
v 0.02631129 -0.32678238 -0.27473128
v 0.02631129 -0.32678238 -0.27083129
v 0.02631129 -0.32678238 -0.46223128
v 0.02631129 -0.32678238 -0.46614128
v 0.02634129 -0.32682237 -0.46614128
v 0.02634129 -0.32682237 -0.33333129
v 0.01463129 -0.21740235 0.32283875
v 0.02634129 -0.32682237 -0.42317128
v 0.12790129 -0.21742237 0.32291871
v 0.12399129 -0.21742237 0.32291871
v 0.12399129 -0.21740235 0.32283875
v 0.08884129 -0.21740235 0.32283875
v 0.09274129 -0.21740235 0.32283875
v 0.02634129 -0.32682237 -0.23176128
v 0.02631129 -0.32678238 -0.23176128
v 0.00681129 -0.21742237 0.32291871
v 0.02634129 -0.32682237 -0.39192128
v 0.03805129 -0.21740235 0.32283875
v -0.60697800 0.13599853 -0.48950645
v 0.02634129 -0.32682237 -0.41145128
v 0.02631129 -0.32678238 -0.40754125
v 0.01445751 -0.24907143 -0.54561090
v 0.02634129 -0.32682237 -0.39973128
v 0.02631129 -0.32678238 -0.39583129
v 0.02634129 -0.32682237 -0.24348126
v 0.18649130 -0.21742237 0.32291871
v 0.22946130 -0.29162237 0.38938871
v 0.02634129 -0.32682237 -0.26692128
v 0.02634129 -0.32682237 -0.27083129
v 0.02631129 -0.32678238 -0.26692128
v 0.02631129 -0.32678238 -0.23958129
v 0.02634129 -0.32682237 -0.34504125
v 0.02634129 -0.32682237 -0.34895128
v 0.02634129 -0.32682237 -0.47004125
v 0.02634129 -0.32682237 -0.25520128
v 0.02631129 -0.32678238 -0.41145128
v 0.02634129 -0.32682237 -0.31379125
v 0.02634129 -0.32682237 -0.22395127
v 0.02631129 -0.32678238 -0.22004128
v 0.02631129 -0.32678238 -0.22395127
v 0.02634129 -0.32682237 -0.40364128
v 0.02631129 -0.32678238 -0.40364128
v 0.02631129 -0.32678238 -0.24348126
v 0.02631129 -0.32678238 -0.38801128
v 0.02631129 -0.32678238 -0.38411126
v 0.02634129 -0.32682237 -0.38020128
v 0.02634129 -0.32682237 -0.38411126
v 0.02634129 -0.32682237 -0.37239128
v 0.02634129 -0.32682237 -0.37629125
v 0.02631129 -0.32678238 -0.39973128
v 0.02631129 -0.32678238 -0.25129125
v 0.02634129 -0.32682237 -0.45442128
v 0.02694128 -0.31005681 -0.22945343
v 0.02634129 -0.32682237 -0.22786127
v 0.03728129 -0.32678238 -0.41096127
v 0.02634129 -0.32682237 -0.29426128
v 0.02631129 -0.32678238 -0.24739127
v 0.02634129 -0.32682237 -0.43489128
v 0.03024129 -0.31533238 -0.39583129
v 0.02631129 -0.32678238 -0.42317128
v 0.02631129 -0.32678238 -0.26301128
v 0.02806582 -0.31783345 -0.26594564
v 0.02631129 -0.32678238 -0.34114128
v 0.02634129 -0.32682237 -0.34114128
v 0.02631129 -0.32678238 -0.36458129
v 0.02634129 -0.32682237 -0.25129125
v 0.02634129 -0.32682237 -0.28254125
v 0.02631129 -0.32678238 -0.36848128
v 0.02634129 -0.32682237 -0.42708129
v 0.03625442 -0.32715738 -0.35462862
v 0.02631129 -0.32678238 -0.48176128
v 0.02634129 -0.32682237 -0.36848128
v 0.02631129 -0.32678238 -0.39192128
v 0.02634129 -0.32682237 -0.24739127
v 0.05368129 -0.21742237 0.32291871
v 0.06540129 -0.21740235 0.32283875
v 0.02634129 -0.21740235 0.32283875
v 0.00681129 -0.21740235 0.32283875
v 0.03024129 -0.21740235 0.32283875
v 0.02696321 -0.22405225 0.34576711
v 0.04196129 -0.21740235 0.32283875
v 0.03415129 -0.21742237 0.32291871
v 0.03415129 -0.21740235 0.32283875
v 0.04587129 -0.21742237 0.32291871
v 0.04196129 -0.21742237 0.32291871
v 0.08493129 -0.21742237 0.32291871
v 0.08493129 -0.21740235 0.32283875
v 0.04587129 -0.21740235 0.32283875
v 0.04977129 -0.21742237 0.32291871
v 0.04977129 -0.21740235 0.32283875
v 0.13180131 -0.21742237 0.32291871
v 0.17477129 -0.21742237 0.32291871
v 0.17087129 -0.21742237 0.32291871
v 0.15134129 -0.21740235 0.32283875
v 0.15524130 -0.21740235 0.32283875
v 0.02634129 -0.32682237 -0.38801128
v 0.03024129 -0.21742237 0.32291871
v 0.03305447 -0.31932926 -0.46386823
v 0.08102129 -0.21742237 0.32291871
v 0.11117776 -0.22932944 0.31519949
v 0.13571130 -0.21742237 0.32291871
v 0.13180131 -0.21740235 0.32283875
v 0.11618130 -0.21740235 0.32283875
v 0.11227129 -0.21740235 0.32283875
v 0.11618130 -0.21742237 0.32291871
v 0.07321129 -0.21740235 0.32283875
v 0.03198379 -0.31820735 -0.43147251
v 0.02634129 -0.32682237 -0.27473128
v 0.02631129 -0.32678238 -0.27864128
v 0.02634129 -0.32682237 -0.27864128
v 0.02631129 -0.32678238 -0.29036126
v 0.02634129 -0.32682237 -0.29036126
v 0.02681020 -0.32724434 -0.21508259
v 0.12790129 -0.21740235 0.32283875
v 0.06758006 -0.22830573 0.34300652
v 0.05368129 -0.21740235 0.32283875
v 0.05581422 -0.07041692 -0.30343673
v 0.05759129 -0.21740235 0.32283875
v 0.07321129 -0.21742237 0.32291871
v 0.05759129 -0.21742237 0.32291871
v 0.09274189 -0.06894876 -0.33334595
v 0.09434822 -0.04910117 -0.34594044
v 0.05356451 -0.24972677 0.30802658
v 0.06149129 -0.21740235 0.32283875
v 0.06930129 -0.21742237 0.32291871
v 0.06540129 -0.21742237 0.32291871
v 0.07712129 -0.21742237 0.32291871
v 0.08884129 -0.21742237 0.32291871
v 0.09798364 -0.09155281 -0.34575364
v 0.06149129 -0.21742237 0.32291871
v 0.10446129 -0.21740235 0.32283875
v 0.10837129 -0.21740235 0.32283875
v 0.11474829 -0.22644676 0.34574470
v 0.11227129 -0.21742237 0.32291871
v 0.10837129 -0.21742237 0.32291871
v 0.12009129 -0.21740235 0.32283875
v 0.12009129 -0.21742237 0.32291871
v 0.09274129 -0.07678237 -0.33331129
v 0.09222129 -0.06506237 -0.33333129
v 0.09274129 -0.07287237 -0.33332127
v 0.09274073 -0.06895698 -0.33330935
v 0.09274129 -0.06896238 -0.33333129
v 0.09274129 -0.07287237 -0.33333129
v 0.20204128 -0.10021238 -0.45833129
v 0.20204128 -0.09631237 -0.45833129
v 0.13973612 -0.34217727 -0.50188988
v 0.09665129 -0.21742237 0.32291871
v 0.09274129 -0.21742237 0.32291871
v 0.10055130 -0.21740235 0.32283875
v 0.09665129 -0.21740235 0.32283875
v 0.15524130 -0.21742237 0.32291871
v 0.15134129 -0.21742237 0.32291871
v 0.10446129 -0.21742237 0.32291871
v 0.10055130 -0.21742237 0.32291871
v 0.14743130 -0.21742237 0.32291871
v 0.14743130 -0.21740235 0.32283875
v 0.13962129 -0.21740235 0.32283875
v 0.17477129 -0.21740235 0.32283875
v 0.17868128 -0.21742237 0.32291871
v 0.14352129 -0.21742237 0.32291871
v 0.09274129 -0.06506237 -0.33459130
v 0.13571130 -0.21740235 0.32283875
v 0.20206569 -0.09601607 -0.45833895
v 0.18259129 0.10290763 -0.77475131
v 0.13962129 -0.21742237 0.32291871
v 0.17087129 -0.21740235 0.32283875
v 0.15915129 -0.21742237 0.32291871
v 0.16195977 -0.22538829 0.34171078
v 0.18259129 0.09509763 -0.77475131
v 0.18259129 0.09900763 -0.77475131
v 0.18260129 0.09509763 -0.77473128
v 0.20204128 -0.10412237 -0.45833129
v 0.20212129 -0.10412237 -0.45835128
v 0.20212129 -0.10803237 -0.45835128
v 0.17685521 0.09500396 -0.77169520
v 0.18259129 0.08728763 -0.77475131
v 0.18260129 0.08728763 -0.77473128
v 0.19821130 -0.09972737 -0.45696127
v 0.16518565 -0.22230591 0.30986467
v 0.23727129 -0.29178238 0.38931873
v 0.24118128 -0.29178238 0.38931873
v 0.23727129 -0.29162237 0.38938871
v 0.16696130 -0.21742237 0.32291871
v 0.16696130 -0.21740235 0.32283875
v 0.22165129 -0.29162237 0.38938871
v 0.22750631 -0.29178238 0.38931873
v 0.24517864 -0.29702488 0.38277185
v 0.20212129 -0.11193238 -0.45835128
v 0.19919810 -0.12365167 -0.45751923
v 0.20212129 -0.10021238 -0.45835128
v 0.20204128 -0.10803237 -0.45833129
v 0.17970362 0.06778474 -0.76788139
v 0.18260129 0.09118763 -0.77473128
v 0.18260129 0.09900763 -0.77473128
v 0.18270899 0.10474804 -0.77466470
v 0.18259129 0.09118763 -0.77475131
v 0.23701368 -0.28439361 0.37733278
v 0.21362381 -0.29231724 0.38803393
v 0.24899130 -0.29162237 0.38938871
v 0.25290129 -0.29162237 0.38938871
v 0.25290129 -0.29178238 0.38931873
v 0.25680131 -0.29178238 0.38931873
v 0.23337129 -0.29162237 0.38938871
v 0.23337129 -0.29178238 0.38931873
v 0.24509129 -0.29162237 0.38938871
v 0.16883574 0.01784662 -0.76686800
v 0.22555131 -0.29162237 0.38938871
v 0.27551153 -0.29165921 0.38940179
v 0.26852131 -0.29162237 0.38938871
v 0.24118128 -0.29162237 0.38938871
v 0.24509129 -0.29178238 0.38931873
v 0.26071128 -0.29162237 0.38938871
v 0.26462129 -0.29178238 0.38931873
v 0.26462129 -0.29162237 0.38938871
v 0.24899130 -0.29178238 0.38931873
v 0.25680131 -0.29162237 0.38938871
v 0.26071128 -0.29178238 0.38931873
v 0.22056574 -0.11937092 -0.46216783
v 0.27243128 -0.29178238 0.38931873
v 0.26852131 -0.29178238 0.38931873
v 0.20050567 -0.22285874 0.32490435
v 0.31071779 -0.29132786 0.38681051
v 0.19260810 -0.06224076 -0.41195220
v 0.76321328 -0.20260718 -0.30201137
v 0.84274125 -0.19396237 -0.31771129
v 0.84255540 -0.18989211 -0.31775761
v 0.84279132 -0.19787237 -0.31770128
v 0.84406513 -0.18449442 -0.31557763
v 0.84274125 -0.19006237 -0.31771129
v 0.84279132 -0.19396237 -0.31770128
v 0.84284633 -0.19004573 -0.31768933
v 0.88520950 -0.22222157 -0.28215504
f 18 2 3
f 5 18 25
f 8 33 9
f 8 1 33
f 10 11 15
f 12 10 15
f 7 13 14
f 8 16 17
f 1 8 17
f 19 20 18
f 19 4 20
f 18 4 21
f 4 18 3
f 4 19 21
f 18 21 22
f 20 23 18
f 3 23 20
f 2 18 24
f 4 3 20
f 22 19 18
f 21 19 22
f 2 23 3
f 23 26 18
f 23 2 26
f 18 5 24
f 26 25 18
f 24 25 26
f 5 25 24
f 2 24 26
f 27 28 29
f 28 45 29
f 45 27 29
f 31 32 11
f 31 1 32
f 8 9 16
f 9 38 15
f 16 15 13
f 31 10 12
f 1 31 12
f 33 38 9
f 17 16 13
f 14 13 15
f 32 14 11
f 38 33 1
f 16 9 15
f 7 17 13
f 7 1 17
f 11 14 15
f 7 14 32
f 1 7 32
f 31 11 10
f 6 12 15
f 6 1 12
f 1 6 140
f 15 38 6
f 38 1 140
f 30 6 1005
f 1005 38 571
f 44 34 39
f 30 40 41
f 30 42 40
f 43 39 34
f 42 44 45
f 42 28 40
f 45 29 43
f 44 42 30
f 30 35 6
f 45 44 39
f 28 42 45
f 41 35 30
f 35 41 27
f 41 40 27
f 40 28 27
f 29 39 43
f 45 39 29
f 35 27 45
f 35 45 43
f 571 38 140
f 53 1005 47
f 34 44 30
f 30 1005 34
f 34 35 43
f 35 34 1005
f 46 140 6
f 50 51 36
f 53 48 54
f 1005 53 47
f 53 47 48
f 47 56 57
f 48 57 54
f 48 47 57
f 58 54 59
f 55 47 58
f 54 57 60
f 60 56 59
f 56 60 57
f 56 55 59
f 55 56 47
f 55 58 59
f 54 60 59
f 47 53 58
f 53 54 58
f 61 62 37
f 61 63 62
f 64 65 66
f 67 68 198
f 68 67 69
f 70 71 72
f 35 76 77
f 86 77 78
f 1005 49 35
f 79 80 157
f 80 79 81
f 82 83 84
f 76 85 65
f 85 75 65
f 66 75 49
f 35 87 86
f 88 49 75
f 35 77 86
f 89 121 90
f 6 38 1005
f 94 95 199
f 96 95 94
f 91 92 97
f 70 121 71
f 69 100 68
f 92 102 103
f 104 105 106
f 107 121 70
f 108 72 157
f 72 108 70
f 91 97 110
f 113 114 157
f 115 114 113
f 90 81 79
f 118 119 120
f 122 92 91
f 36 63 92
f 219 123 124
f 65 76 125
f 76 64 125
f 64 65 125
f 64 76 65
f 88 85 76
f 35 88 76
f 125 126 87
f 125 64 126
f 76 65 77
f 85 88 75
f 78 125 87
f 78 64 125
f 88 35 49
f 86 78 87
f 77 64 78
f 126 66 86
f 66 126 64
f 65 75 66
f 87 35 86
f 86 66 49
f 65 64 77
f 35 86 6
f 126 86 87
f 123 127 124
f 127 123 214
f 128 94 199
f 93 94 128
f 129 130 131
f 132 83 37
f 83 132 84
f 102 92 115
f 111 133 134
f 135 136 137
f 121 92 90
f 81 92 138
f 139 67 198
f 67 139 109
f 141 190 142
f 145 51 50
f 82 84 36
f 146 147 37
f 146 148 147
f 148 144 147
f 95 149 199
f 95 150 149
f 81 138 80
f 92 118 120
f 96 92 150
f 136 151 37
f 136 135 151
f 153 154 155
f 156 130 157
f 131 130 156
f 158 128 199
f 159 128 158
f 162 92 159
f 163 108 157
f 108 163 107
f 97 120 160
f 165 161 133
f 117 165 198
f 165 117 161
f 121 100 69
f 129 92 162
f 99 161 117
f 72 164 157
f 164 72 71
f 36 84 50
f 147 166 37
f 166 147 144
f 131 92 129
f 50 84 132
f 137 36 135
f 62 136 37
f 62 137 136
f 80 169 157
f 169 80 138
f 159 158 162
f 36 154 153
f 114 156 157
f 170 156 114
f 170 114 115
f 162 171 129
f 171 158 199
f 162 158 171
f 172 151 135
f 173 92 63
f 135 36 172
f 160 119 157
f 120 119 160
f 96 94 93
f 82 153 167
f 83 167 37
f 83 82 167
f 150 95 96
f 63 61 173
f 150 92 173
f 121 133 161
f 139 134 109
f 115 92 170
f 173 149 150
f 115 113 102
f 175 107 163
f 138 122 169
f 169 112 157
f 112 169 122
f 176 177 157
f 103 177 176
f 177 113 157
f 102 113 177
f 121 175 100
f 89 90 178
f 178 79 157
f 79 178 90
f 99 117 98
f 121 109 134
f 71 89 164
f 92 103 118
f 121 134 133
f 68 174 198
f 174 68 100
f 121 107 175
f 163 157 198
f 161 99 121
f 67 109 69
f 69 109 121
f 81 90 92
f 36 757 52
f 103 176 118
f 168 145 37
f 145 168 51
f 130 199 157
f 36 153 82
f 148 146 154
f 151 168 37
f 151 172 168
f 145 132 37
f 145 50 132
f 148 36 144
f 51 168 172
f 166 179 37
f 166 180 179
f 179 52 37
f 52 179 36
f 180 36 179
f 167 155 37
f 167 153 155
f 36 148 154
f 155 146 37
f 146 155 154
f 144 36 180
f 180 166 144
f 61 37 199
f 110 160 157
f 160 110 97
f 172 36 51
f 63 36 137
f 137 62 63
f 119 176 157
f 118 176 119
f 93 128 159
f 149 61 199
f 149 173 61
f 130 171 199
f 129 171 130
f 159 92 93
f 96 93 92
f 111 139 198
f 139 111 134
f 36 92 757
f 102 177 103
f 92 120 97
f 165 111 198
f 111 165 133
f 131 156 170
f 170 92 131
f 98 117 198
f 112 110 157
f 110 112 91
f 138 92 122
f 122 91 112
f 107 70 108
f 164 178 157
f 178 164 89
f 71 121 89
f 174 163 198
f 163 174 175
f 100 175 174
f 187 184 185
f 188 234 186
f 86 1005 6
f 1005 86 49
f 116 101 141
f 189 142 190
f 191 116 190
f 192 141 142
f 193 142 189
f 190 105 189
f 219 194 195
f 196 106 143
f 106 105 190
f 106 190 143
f 196 152 190
f 152 196 143
f 104 196 190
f 196 104 106
f 197 104 190
f 104 197 105
f 152 143 190
f 189 197 193
f 197 190 193
f 192 193 190
f 193 192 142
f 116 192 190
f 192 116 141
f 105 197 189
f 190 141 101
f 116 191 101
f 191 190 101
f 140 842 571
f 157 181 198
f 92 121 757
f 121 99 757
f 322 571 202
f 200 253 201
f 203 204 202
f 206 207 208
f 187 234 184
f 209 210 211
f 219 124 194
f 124 127 194
f 74 46 6
f 215 214 195
f 127 215 194
f 215 127 214
f 140 216 219
f 194 215 195
f 214 217 195
f 216 123 219
f 214 123 216
f 140 46 216
f 214 216 46
f 199 52 456
f 199 456 157
f 456 181 157
f 198 181 98
f 757 99 98
f 200 220 253
f 221 253 222
f 225 253 226
f 227 221 203
f 202 429 534
f 203 221 204
f 204 222 202
f 429 202 222
f 228 227 203
f 202 228 203
f 221 222 204
f 221 227 253
f 429 222 253
f 230 231 232
f 212 188 186
f 213 187 233
f 186 233 212
f 185 188 212
f 187 185 233
f 213 233 234
f 185 184 188
f 184 234 188
f 233 185 212
f 233 186 234
f 187 322 234
f 213 224 187
f 237 73 74
f 195 217 219
f 73 237 239
f 74 236 46
f 73 239 236
f 238 74 6
f 236 74 73
f 236 240 241
f 236 242 243
f 217 140 219
f 214 46 217
f 140 217 842
f 218 247 246
f 247 218 181
f 247 98 309
f 246 247 245
f 245 244 246
f 244 248 246
f 248 181 218
f 246 248 218
f 181 309 98
f 247 181 98
f 249 205 250
f 228 251 252
f 205 229 254
f 255 256 388
f 249 225 257
f 258 259 253
f 229 260 261
f 229 206 262
f 205 257 229
f 200 223 262
f 201 253 252
f 253 227 252
f 223 200 201
f 220 262 206
f 229 223 251
f 227 228 252
f 220 206 208
f 202 571 229
f 201 251 223
f 264 225 226
f 228 202 251
f 251 202 229
f 226 253 208
f 201 252 251
f 262 223 229
f 220 200 262
f 206 229 207
f 225 264 257
f 264 207 229
f 226 207 264
f 249 257 205
f 220 208 253
f 226 208 207
f 229 257 264
f 225 249 253
f 258 263 266
f 266 254 229
f 261 266 229
f 183 267 268
f 183 182 267
f 271 272 321
f 213 234 182
f 311 213 182
f 311 182 273
f 182 183 273
f 273 183 268
f 268 267 274
f 267 182 274
f 182 234 274
f 274 234 323
f 310 270 275
f 224 270 310
f 277 276 278
f 275 279 280
f 275 276 279
f 310 275 280
f 276 270 278
f 275 270 276
f 279 276 277
f 279 277 280
f 224 324 270
f 224 213 324
f 242 282 283
f 284 285 281
f 286 242 236
f 287 288 306
f 289 290 286
f 284 294 236
f 236 289 286
f 294 240 236
f 289 295 290
f 296 238 295
f 240 296 241
f 393 466 236
f 241 295 289
f 295 238 290
f 285 238 281
f 239 298 297
f 299 300 301
f 302 238 296
f 239 237 298
f 237 74 238
f 294 302 240
f 241 289 236
f 298 238 285
f 295 241 296
f 237 238 298
f 236 239 297
f 281 238 302
f 302 294 281
f 240 302 296
f 282 286 290
f 393 303 304
f 290 238 282
f 286 282 242
f 284 281 294
f 297 284 236
f 285 297 298
f 297 285 284
f 217 46 842
f 307 243 283
f 308 307 301
f 181 456 309
f 245 247 309
f 245 248 244
f 181 248 245
f 245 309 181
f 842 571 140
f 259 260 231
f 312 313 314
f 315 316 317
f 265 318 321
f 321 317 319
f 253 249 250
f 259 231 253
f 321 318 232
f 205 254 250
f 250 263 253
f 256 255 265
f 321 320 265
f 263 254 266
f 261 258 266
f 258 253 263
f 265 255 318
f 254 263 250
f 229 321 260
f 318 230 232
f 260 321 232
f 388 429 253
f 260 232 231
f 320 256 265
f 259 258 261
f 259 261 260
f 255 388 230
f 230 253 231
f 388 253 230
f 255 230 318
f 320 314 313
f 269 274 311
f 268 274 269
f 234 322 323
f 311 273 269
f 316 319 317
f 273 268 269
f 323 213 311
f 311 274 323
f 310 280 325
f 325 280 278
f 323 324 213
f 484 310 324
f 324 325 278
f 280 277 278
f 310 325 324
f 324 278 270
f 301 238 299
f 46 236 466
f 299 293 292
f 282 238 283
f 308 301 300
f 306 326 305
f 306 337 326
f 291 235 328
f 328 235 329
f 327 293 330
f 331 332 330
f 393 332 331
f 292 304 303
f 242 283 243
f 283 238 307
f 333 393 334
f 300 299 303
f 327 335 336
f 307 238 301
f 292 293 336
f 291 337 235
f 287 305 329
f 329 326 328
f 291 328 337
f 305 326 329
f 235 288 329
f 288 287 329
f 337 309 291
f 299 238 293
f 336 293 327
f 304 335 393
f 393 335 332
f 238 359 293
f 300 303 393
f 288 337 306
f 327 332 335
f 308 393 236
f 332 327 330
f 292 303 299
f 309 456 291
f 288 235 337
f 326 337 328
f 304 292 336
f 243 308 236
f 243 307 308
f 335 304 336
f 308 300 393
f 842 140 571
f 1005 571 322
f 312 388 313
f 338 317 321
f 315 317 338
f 187 224 1005
f 388 315 340
f 338 321 272
f 316 312 319
f 388 340 339
f 256 320 313
f 229 571 321
f 319 312 314
f 321 319 314
f 313 388 256
f 321 342 341
f 342 343 341
f 339 272 271
f 320 321 314
f 321 395 342
f 316 388 312
f 315 338 340
f 338 272 340
f 316 315 388
f 341 271 321
f 272 339 340
f 341 344 271
f 343 344 341
f 344 339 271
f 344 388 339
f 344 343 388
f 345 346 347
f 345 348 393
f 349 350 351
f 352 293 353
f 346 393 333
f 355 293 351
f 393 350 349
f 647 466 393
f 393 331 350
f 331 355 350
f 354 358 348
f 353 293 359
f 351 293 352
f 357 359 354
f 557 291 456
f 557 337 291
f 348 358 393
f 353 359 356
f 354 348 357
f 359 238 6
f 393 349 334
f 333 334 353
f 334 352 353
f 347 357 345
f 345 393 346
f 331 330 355
f 330 293 355
f 356 346 333
f 356 359 347
f 347 359 357
f 356 333 353
f 350 355 351
f 352 334 349
f 346 356 347
f 352 349 351
f 348 345 357
f 647 1005 466
f 360 361 362
f 364 365 366
f 367 368 369
f 363 370 371
f 365 373 374
f 187 1005 322
f 376 377 378
f 379 388 380
f 395 381 382
f 369 372 383
f 342 395 382
f 388 343 384
f 378 372 376
f 379 380 381
f 395 368 381
f 385 377 386
f 343 342 384
f 367 369 383
f 379 367 388
f 381 380 382
f 380 384 382
f 379 381 368
f 369 395 372
f 372 378 383
f 342 382 384
f 369 368 395
f 380 388 384
f 376 372 395
f 367 379 368
f 385 386 387
f 377 388 378
f 367 383 388
f 377 376 386
f 378 388 383
f 395 387 386
f 386 376 395
f 377 385 388
f 571 395 321
f 389 370 388
f 373 375 362
f 323 484 324
f 385 387 389
f 354 359 390
f 358 354 390
f 393 358 391
f 391 392 394
f 359 394 392
f 390 392 391
f 557 309 337
f 358 390 391
f 390 359 392
f 393 391 394
f 393 394 455
f 359 6 394
f 466 1005 1008
f 6 842 455
f 388 385 389
f 366 374 395
f 360 362 375
f 387 395 371
f 365 375 373
f 397 370 363
f 374 396 395
f 370 389 371
f 395 398 366
f 388 375 429
f 361 396 362
f 373 362 396
f 388 370 375
f 399 400 486
f 401 375 402
f 360 397 403
f 395 363 371
f 395 571 486
f 387 371 389
f 397 360 375
f 360 403 361
f 374 373 396
f 397 363 403
f 361 395 396
f 395 403 363
f 397 375 370
f 366 365 374
f 361 403 395
f 365 364 375
f 398 364 366
f 394 6 455
f 52 511 456
f 408 511 52
f 511 408 52
f 406 407 469
f 511 52 469
f 419 408 411
f 411 412 413
f 415 416 409
f 408 415 409
f 417 408 465
f 408 418 465
f 470 421 422
f 423 424 425
f 469 52 473
f 426 427 486
f 405 428 453
f 323 322 439
f 375 430 431
f 399 427 431
f 398 432 433
f 434 435 436
f 430 400 399
f 401 404 400
f 364 398 433
f 202 534 322
f 440 429 375
f 404 402 432
f 426 438 427
f 486 404 432
f 430 401 400
f 401 402 404
f 402 375 433
f 399 486 427
f 436 426 486
f 402 433 432
f 430 399 431
f 401 430 375
f 375 431 438
f 486 400 404
f 433 375 364
f 398 395 432
f 432 395 486
f 486 437 436
f 434 436 437
f 436 435 426
f 438 431 427
f 435 438 426
f 435 434 440
f 435 440 438
f 375 438 440
f 322 534 484
f 442 439 441
f 447 441 446
f 442 441 447
f 447 446 445
f 446 448 445
f 441 448 446
f 448 439 444
f 323 439 442
f 323 442 447
f 439 448 441
f 443 323 447
f 443 447 445
f 448 444 445
f 444 443 445
f 439 443 444
f 449 450 486
f 451 453 452
f 454 466 453
f 453 457 452
f 458 459 460
f 453 451 454
f 461 418 511
f 462 458 463
f 465 418 461
f 464 413 407
f 459 465 460
f 465 461 460
f 410 461 511
f 460 410 463
f 458 460 463
f 417 458 408
f 415 425 416
f 408 458 462
f 408 414 415
f 467 406 468
f 463 410 424
f 417 459 458
f 465 459 417
f 460 461 410
f 511 418 408
f 422 468 469
f 425 424 511
f 463 424 423
f 462 463 423
f 464 407 420
f 419 464 420
f 413 412 469
f 471 416 511
f 409 416 471
f 647 842 1005
f 419 411 464
f 411 413 464
f 414 462 423
f 420 407 406
f 413 469 407
f 472 412 411
f 408 472 411
f 425 511 416
f 408 462 414
f 471 511 469
f 472 471 412
f 414 423 415
f 423 425 415
f 419 651 408
f 410 511 424
f 470 419 467
f 471 469 412
f 406 469 468
f 408 409 472
f 409 471 472
f 422 469 473
f 842 6 1005
f 421 468 422
f 470 422 473
f 473 52 651
f 467 468 421
f 470 467 421
f 420 406 467
f 419 420 467
f 419 470 473
f 651 419 473
f 98 181 757
f 476 477 478
f 476 479 440
f 481 440 479
f 480 478 486
f 477 483 478
f 486 483 485
f 434 437 487
f 486 478 483
f 488 481 450
f 482 487 485
f 476 478 480
f 437 485 487
f 440 434 487
f 477 476 440
f 487 482 440
f 476 480 479
f 449 488 450
f 450 481 475
f 490 488 449
f 483 482 485
f 480 486 475
f 490 449 474
f 480 475 479
f 450 475 486
f 477 482 483
f 477 440 482
f 481 479 475
f 486 474 449
f 437 486 485
f 488 490 440
f 488 440 481
f 491 492 493
f 494 497 495
f 452 494 495
f 484 439 322
f 457 497 494
f 443 439 484
f 490 474 498
f 428 457 453
f 484 323 443
f 499 500 492
f 451 495 454
f 495 496 454
f 501 502 503
f 454 496 466
f 457 494 452
f 451 452 495
f 497 496 495
f 457 428 497
f 428 496 497
f 428 405 496
f 453 466 405
f 504 505 506
f 466 455 46
f 508 506 510
f 647 393 455
f 506 505 510
f 309 622 181
f 456 511 408
f 651 52 757
f 501 440 512
f 493 521 502
f 502 501 512
f 440 490 498
f 486 571 534
f 498 489 440
f 499 489 500
f 489 498 513
f 486 493 492
f 492 500 486
f 500 489 513
f 503 502 521
f 474 513 498
f 516 440 501
f 491 493 512
f 521 514 503
f 516 501 503
f 486 521 493
f 486 500 513
f 514 516 503
f 515 514 521
f 491 499 492
f 499 491 440
f 499 440 489
f 493 502 512
f 474 486 513
f 491 512 440
f 517 516 514
f 515 517 514
f 516 517 440
f 405 639 496
f 518 519 520
f 639 405 466
f 522 309 510
f 508 525 526
f 526 525 507
f 509 527 524
f 505 522 510
f 508 526 506
f 524 528 509
f 528 530 507
f 507 523 504
f 523 507 522
f 522 505 523
f 504 523 505
f 504 526 507
f 522 507 309
f 504 506 526
f 527 525 508
f 509 507 525
f 527 509 525
f 507 509 528
f 46 537 842
f 527 508 510
f 524 527 510
f 532 533 535
f 517 515 519
f 519 440 517
f 534 518 521
f 429 440 534
f 515 520 519
f 518 520 521
f 515 521 520
f 486 534 521
f 534 440 518
f 518 440 519
f 496 639 466
f 530 622 507
f 528 529 530
f 309 507 622
f 529 510 530
f 510 309 622
f 538 539 531
f 536 535 540
f 536 563 535
f 530 510 622
f 563 536 46
f 539 541 542
f 528 524 529
f 524 510 529
f 537 545 842
f 546 547 548
f 549 546 548
f 543 564 550
f 557 551 552
f 551 589 552
f 46 536 537
f 553 554 555
f 556 537 536
f 466 639 570
f 558 637 547
f 539 538 560
f 561 562 587
f 543 556 533
f 545 532 550
f 532 543 550
f 565 456 622
f 309 557 622
f 535 533 540
f 540 556 536
f 532 543 533
f 545 550 564
f 46 455 563
f 531 542 565
f 564 544 545
f 556 532 545
f 543 532 556
f 544 564 543
f 543 532 544
f 563 544 532
f 533 556 540
f 532 535 563
f 559 456 565
f 544 563 545
f 556 545 537
f 559 541 560
f 622 557 757
f 757 456 560
f 542 559 565
f 559 560 456
f 541 559 542
f 567 531 565
f 560 541 539
f 557 456 757
f 539 542 531
f 538 568 560
f 538 531 567
f 568 538 567
f 569 637 558
f 570 572 573
f 574 572 570
f 575 639 576
f 557 622 577
f 587 549 578
f 579 637 569
f 580 637 579
f 581 555 582
f 555 554 582
f 575 583 584
f 579 569 585
f 581 584 555
f 639 575 587
f 622 557 577
f 589 590 591
f 551 557 593
f 590 551 593
f 595 596 565
f 598 599 600
f 602 603 604
f 606 596 595
f 607 601 565
f 599 608 609
f 603 568 566
f 605 595 601
f 598 560 599
f 562 585 610
f 606 602 596
f 598 600 611
f 612 613 614
f 616 617 618
f 619 620 621
f 568 567 566
f 609 607 565
f 608 607 609
f 560 603 602
f 602 606 560
f 560 594 608
f 604 566 565
f 596 604 565
f 605 606 595
f 599 560 608
f 566 567 565
f 594 605 601
f 600 609 565
f 605 594 560
f 594 601 607
f 619 621 623
f 599 609 600
f 602 604 596
f 603 566 604
f 560 568 603
f 608 594 607
f 560 606 605
f 601 595 565
f 624 598 611
f 625 626 627
f 628 570 629
f 648 757 560
f 626 630 623
f 587 631 549
f 547 637 588
f 570 578 574
f 631 610 632
f 588 637 633
f 558 547 546
f 578 548 633
f 548 588 633
f 484 1005 224
f 569 558 632
f 578 633 574
f 639 587 570
f 631 546 549
f 633 637 634
f 574 633 634
f 639 637 576
f 610 631 587
f 572 634 635
f 634 637 635
f 580 579 636
f 562 636 585
f 636 579 585
f 582 580 636
f 561 582 636
f 584 581 587
f 570 586 637
f 581 582 561
f 578 549 548
f 629 638 628
f 572 574 634
f 562 561 636
f 547 588 548
f 554 580 582
f 585 569 632
f 610 585 632
f 575 553 583
f 575 576 553
f 587 575 584
f 587 562 610
f 572 635 573
f 583 553 555
f 584 583 555
f 553 576 554
f 554 637 580
f 621 640 627
f 616 640 621
f 629 573 641
f 637 586 638
f 631 632 546
f 632 558 546
f 587 578 570
f 466 637 639
f 628 638 586
f 587 581 561
f 629 641 638
f 641 637 638
f 576 637 554
f 573 629 570
f 635 637 641
f 573 635 641
f 628 586 570
f 642 591 593
f 637 466 570
f 589 551 590
f 552 592 557
f 577 642 593
f 557 642 577
f 642 592 589
f 589 591 642
f 557 577 593
f 589 592 552
f 642 557 592
f 591 590 593
f 643 644 619
f 842 615 650
f 626 623 621
f 597 650 612
f 614 645 597
f 645 617 597
f 646 630 615
f 630 650 615
f 650 597 617
f 842 455 615
f 646 644 643
f 455 644 615
f 644 646 615
f 616 618 640
f 618 645 640
f 613 627 640
f 613 640 614
f 643 630 646
f 640 645 614
f 563 455 842
f 455 617 616
f 563 842 545
f 455 620 644
f 620 619 644
f 645 618 617
f 620 616 621
f 616 620 455
f 630 625 650
f 626 625 630
f 630 643 623
f 617 455 650
f 560 624 648
f 648 649 565
f 597 612 614
f 625 612 650
f 613 612 625
f 626 621 627
f 613 625 627
f 643 619 623
f 560 598 624
f 649 611 565
f 648 624 649
f 624 611 649
f 622 648 565
f 757 648 622
f 611 600 565
f 455 842 650
f 757 622 456
f 647 455 688
f 455 466 688
f 651 714 408
f 714 651 817
f 654 655 693
f 723 656 657
f 571 1005 534
f 659 660 661
f 534 1005 484
f 737 665 757
f 737 757 408
f 652 666 667
f 668 669 714
f 670 671 714
f 670 669 671
f 652 651 666
f 666 651 714
f 667 666 672
f 667 672 668
f 652 714 651
f 669 668 671
f 667 668 714
f 669 673 714
f 673 669 670
f 671 672 714
f 668 672 671
f 652 667 714
f 672 666 714
f 757 817 651
f 674 675 714
f 676 670 714
f 676 673 670
f 677 678 774
f 678 677 679
f 680 681 817
f 682 681 680
f 661 685 686
f 662 690 689
f 690 662 688
f 663 691 655
f 691 663 664
f 692 663 654
f 688 662 664
f 692 664 663
f 689 693 655
f 691 689 655
f 662 689 691
f 654 663 655
f 693 689 690
f 654 693 692
f 690 688 693
f 647 692 693
f 664 662 691
f 692 647 664
f 695 696 697
f 647 688 664
f 647 693 948
f 700 675 701
f 702 701 774
f 700 701 702
f 948 842 647
f 673 676 703
f 704 705 714
f 705 704 674
f 705 708 714
f 705 709 708
f 710 707 703
f 703 707 714
f 653 711 707
f 711 709 714
f 707 711 714
f 714 673 703
f 708 653 714
f 653 708 711
f 710 703 676
f 675 674 704
f 710 676 714
f 710 653 707
f 701 714 774
f 709 705 674
f 675 700 776
f 714 675 776
f 701 704 714
f 675 704 701
f 714 709 674
f 708 709 711
f 700 713 776
f 700 702 713
f 653 710 714
f 715 679 776
f 677 716 679
f 717 718 719
f 720 721 776
f 725 726 727
f 728 729 820
f 728 730 729
f 735 695 697
f 687 699 736
f 694 695 735
f 697 687 736
f 698 734 739
f 736 699 622
f 687 694 699
f 735 736 622
f 696 694 687
f 699 694 735
f 622 699 735
f 694 696 695
f 735 697 736
f 696 687 697
f 693 688 948
f 746 737 743
f 665 737 698
f 698 737 733
f 733 738 744
f 740 747 745
f 733 734 698
f 737 738 733
f 746 747 737
f 741 748 749
f 748 741 750
f 738 751 752
f 738 752 744
f 733 750 741
f 741 739 734
f 733 741 734
f 754 737 740
f 755 748 750
f 750 733 755
f 739 749 756
f 747 740 737
f 738 754 751
f 754 738 737
f 745 746 744
f 714 737 408
f 743 737 714
f 758 759 760
f 665 698 757
f 761 712 774
f 761 762 712
f 763 791 764
f 679 716 776
f 776 713 762
f 712 702 774
f 712 713 702
f 706 774 714
f 776 716 717
f 678 761 774
f 761 678 715
f 765 766 774
f 767 768 769
f 714 776 706
f 770 677 774
f 770 716 677
f 678 679 715
f 762 715 776
f 717 719 776
f 761 715 762
f 772 718 774
f 719 718 772
f 719 720 776
f 713 712 762
f 716 770 717
f 720 772 773
f 719 772 720
f 817 714 774
f 718 770 774
f 770 718 717
f 721 720 773
f 773 772 774
f 766 773 774
f 774 714 817
f 776 759 706
f 771 759 776
f 1005 571 842
f 721 773 766
f 656 778 657
f 684 778 731
f 723 657 684
f 659 661 684
f 724 780 731
f 684 780 724
f 781 782 684
f 656 684 724
f 778 656 724
f 731 780 722
f 782 783 659
f 784 785 686
f 686 785 684
f 782 658 783
f 658 684 783
f 661 686 684
f 657 778 684
f 571 723 684
f 782 659 684
f 722 732 781
f 656 723 684
f 781 658 782
f 732 658 781
f 684 658 732
f 786 683 787
f 683 786 684
f 660 685 661
f 660 684 685
f 778 724 731
f 780 732 722
f 732 780 684
f 723 571 684
f 685 784 686
f 684 784 685
f 783 660 659
f 660 783 684
f 731 722 684
f 722 781 684
f 788 787 684
f 787 683 684
f 788 786 787
f 785 779 788
f 684 785 788
f 785 784 779
f 784 684 779
f 779 786 788
f 684 786 779
f 688 466 1008
f 745 747 746
f 749 755 744
f 739 741 749
f 790 745 744
f 698 739 756
f 752 753 790
f 754 740 790
f 751 754 753
f 752 751 753
f 749 748 755
f 753 754 790
f 749 744 756
f 755 733 744
f 757 756 744
f 756 757 698
f 757 744 743
f 792 793 794
f 752 790 744
f 790 740 745
f 746 743 744
f 757 743 797
f 757 797 801
f 759 758 706
f 764 799 800
f 799 791 796
f 800 799 796
f 801 797 802
f 796 714 801
f 800 796 801
f 797 743 763
f 743 714 791
f 802 764 800
f 743 791 763
f 764 791 799
f 763 764 802
f 797 763 802
f 796 791 714
f 802 800 801
f 801 714 757
f 798 758 777
f 767 769 706
f 776 721 771
f 803 804 805
f 767 798 806
f 706 798 767
f 902 775 807
f 769 682 706
f 777 806 798
f 771 721 766
f 758 798 706
f 759 765 760
f 758 760 777
f 810 682 680
f 804 811 817
f 811 804 803
f 760 765 774
f 681 768 817
f 769 768 681
f 771 765 759
f 682 810 706
f 765 771 766
f 777 760 774
f 774 706 817
f 806 777 774
f 806 774 817
f 682 769 681
f 768 806 817
f 806 768 767
f 811 680 817
f 814 815 986
f 815 814 816
f 820 818 819
f 1093 727 726
f 824 825 1084
f 826 825 824
f 827 828 1041
f 827 829 828
f 688 1008 948
f 832 833 795
f 834 835 836
f 837 826 824
f 838 839 840
f 843 844 845
f 844 846 845
f 847 848 849
f 848 850 849
f 851 852 948
f 853 854 851
f 1084 857 858
f 860 852 861
f 789 862 863
f 862 948 865
f 830 831 866
f 867 859 868
f 850 948 869
f 810 680 811
f 948 871 960
f 859 867 795
f 872 873 795
f 874 864 868
f 875 876 877
f 879 775 902
f 807 880 902
f 706 809 817
f 805 879 902
f 881 882 986
f 880 882 881
f 808 878 817
f 878 808 775
f 812 879 805
f 812 804 817
f 812 805 804
f 803 810 811
f 792 883 884
f 880 883 902
f 809 885 886
f 706 810 803
f 706 803 902
f 803 805 902
f 882 817 986
f 888 889 809
f 883 792 902
f 878 775 879
f 878 812 817
f 812 878 879
f 775 808 807
f 880 807 882
f 882 808 817
f 808 882 807
f 883 880 881
f 884 881 986
f 881 884 883
f 890 891 885
f 892 893 1086
f 888 886 894
f 890 885 809
f 794 895 896
f 897 898 899
f 903 904 889
f 907 887 908
f 897 909 1109
f 911 726 912
f 939 914 915
f 875 960 876
f 858 857 917
f 862 865 861
f 922 923 924
f 1045 813 829
f 927 928 1084
f 927 929 928
f 873 872 930
f 873 930 931
f 930 856 931
f 932 933 855
f 934 933 932
f 948 937 853
f 937 948 789
f 853 851 948
f 833 832 938
f 940 914 936
f 926 941 916
f 926 915 941
f 943 944 911
f 859 843 845
f 945 946 916
f 946 945 947
f 854 937 789
f 865 850 848
f 852 860 948
f 853 937 854
f 852 863 861
f 863 862 861
f 860 847 948
f 789 948 862
f 847 860 848
f 865 948 850
f 852 851 863
f 854 789 863
f 851 854 863
f 860 861 848
f 861 865 848
f 869 830 938
f 866 856 930
f 849 850 869
f 872 949 930
f 949 866 930
f 866 831 856
f 873 931 950
f 725 951 1084
f 725 727 951
f 1093 952 727
f 846 874 845
f 953 954 921
f 955 913 956
f 931 856 957
f 849 869 938
f 832 849 938
f 872 833 949
f 957 831 846
f 869 948 831
f 859 845 868
f 845 874 868
f 833 872 795
f 948 847 795
f 847 832 795
f 833 938 949
f 938 830 949
f 847 849 832
f 856 831 957
f 869 831 830
f 830 866 949
f 931 957 844
f 950 931 844
f 843 950 844
f 846 831 874
f 958 864 959
f 873 950 795
f 864 831 959
f 957 846 844
f 867 868 958
f 868 864 958
f 874 831 864
f 950 843 795
f 959 960 961
f 843 859 795
f 948 795 1039
f 961 875 962
f 867 958 965
f 963 966 964
f 959 961 967
f 965 963 964
f 964 968 974
f 969 970 1039
f 970 969 971
f 939 922 972
f 891 973 986
f 891 890 973
f 901 975 918
f 966 968 964
f 966 962 877
f 962 875 877
f 948 960 831
f 963 967 962
f 967 961 962
f 961 960 875
f 958 959 967
f 965 958 967
f 966 963 962
f 867 965 964
f 795 867 964
f 963 965 967
f 959 831 960
f 968 966 877
f 968 877 974
f 877 876 974
f 876 960 974
f 974 960 871
f 964 974 871
f 795 964 1039
f 964 871 1039
f 976 934 932
f 836 977 978
f 907 979 887
f 886 888 809
f 973 895 986
f 973 896 895
f 793 884 986
f 793 792 884
f 980 891 986
f 891 980 885
f 894 980 986
f 980 894 886
f 889 904 979
f 902 792 794
f 902 809 706
f 794 896 902
f 889 979 809
f 889 888 903
f 817 809 986
f 982 899 1066
f 902 896 809
f 896 890 809
f 896 973 890
f 983 984 985
f 895 793 986
f 895 794 793
f 888 894 903
f 1109 986 809
f 979 904 887
f 885 980 886
f 903 894 986
f 904 903 986
f 1008 871 948
f 927 857 929
f 1048 987 988
f 989 990 991
f 940 992 916
f 940 936 992
f 1109 816 993
f 817 757 714
f 995 996 1119
f 995 997 996
f 1086 998 999
f 919 819 841
f 1000 969 1039
f 1001 969 1000
f 939 936 914
f 981 908 1002
f 907 981 809
f 815 1002 986
f 1008 1005 842
f 935 1006 1041
f 935 1007 1006
f 909 899 982
f 947 823 946
f 908 887 986
f 925 1009 820
f 1010 1009 925
f 912 725 1084
f 726 725 912
f 1084 989 826
f 1207 910 1012
f 1014 1015 855
f 1016 1015 1014
f 941 940 916
f 914 940 941
f 970 971 1017
f 1018 1019 1056
f 1018 920 1019
f 1020 917 1084
f 1020 858 917
f 939 947 923
f 1021 932 855
f 976 932 1021
f 1007 1022 1006
f 946 1023 916
f 823 1023 946
f 1024 1025 1026
f 915 914 941
f 1093 954 953
f 1016 1048 988
f 1027 935 1041
f 1028 935 1027
f 728 977 730
f 1029 1039 1048
f 820 1030 1031
f 1032 1033 820
f 818 1033 1032
f 1034 1035 820
f 841 1035 1034
f 939 923 922
f 1045 1028 1036
f 1048 976 1037
f 1038 824 1084
f 1038 837 824
f 1093 944 954
f 1024 1040 1039
f 1026 1040 1024
f 939 838 840
f 1084 826 837
f 1042 870 916
f 972 870 1042
f 991 1020 1084
f 990 1020 991
f 1048 1037 1043
f 1093 726 911
f 939 823 947
f 1023 823 901
f 828 994 1041
f 813 994 828
f 1001 1000 942
f 820 1031 818
f 1026 1039 942
f 954 944 1044
f 842 948 1039
f 1045 1046 813
f 1047 1016 1014
f 919 835 920
f 838 1049 1050
f 1023 918 916
f 1023 901 918
f 939 975 901
f 1039 1017 971
f 933 1014 855
f 1047 1014 933
f 1039 1026 1025
f 1084 929 857
f 920 835 1019
f 1048 913 955
f 942 1039 1001
f 939 1049 838
f 919 1054 1051
f 727 952 951
f 1055 921 1041
f 953 921 1055
f 1010 1036 1009
f 1006 827 1041
f 1022 827 1006
f 1019 834 1056
f 835 834 1019
f 822 1057 1084
f 1058 1034 820
f 1058 1054 1034
f 1003 925 820
f 925 1003 1059
f 1060 1029 1043
f 897 993 898
f 924 945 916
f 923 945 924
f 909 982 1063
f 917 927 1084
f 857 927 917
f 1039 871 1008
f 820 1059 1030
f 1093 911 944
f 834 978 1056
f 834 836 978
f 928 822 1084
f 1057 822 928
f 1064 981 1002
f 981 907 908
f 809 979 907
f 899 898 1066
f 981 1064 809
f 1109 1063 1065
f 815 816 1064
f 839 1050 1056
f 839 838 1050
f 817 986 1066
f 821 1068 1066
f 821 1069 1068
f 816 1109 809
f 1002 908 986
f 1064 816 809
f 815 1064 1002
f 909 1063 1109
f 1070 1071 1066
f 1071 1070 1067
f 887 904 986
f 986 817 1066
f 893 1072 1073
f 993 897 1109
f 814 993 816
f 898 814 1066
f 993 814 898
f 909 897 899
f 814 986 1066
f 1066 986 1109
f 1061 1075 1101
f 1076 1075 1061
f 1078 1079 1154
f 1109 1067 1074
f 1038 952 837
f 842 1103 1005
f 1036 1028 1027
f 1165 1080 1081
f 1033 1082 820
f 1033 1031 1082
f 1063 1083 1065
f 826 989 825
f 1018 1049 920
f 994 1055 1041
f 1055 994 1046
f 820 1045 1036
f 729 1058 820
f 1058 729 1051
f 939 915 975
f 1045 829 1022
f 819 818 1032
f 1045 1022 1007
f 1084 858 990
f 1048 939 972
f 825 991 1084
f 825 989 991
f 994 813 1046
f 893 1085 1072
f 1087 1077 1119
f 1077 1087 1088
f 1089 1090 1091
f 820 1036 1010
f 1009 1027 1041
f 1009 1036 1027
f 1050 1018 1056
f 1049 1018 1050
f 1011 1060 1039
f 1029 1060 1011
f 919 977 836
f 936 840 992
f 919 1051 730
f 1015 1094 855
f 988 1094 1015
f 1039 971 1001
f 1029 1011 1017
f 939 840 936
f 839 1056 916
f 987 1095 1096
f 1035 1032 820
f 1035 819 1032
f 992 839 916
f 839 992 840
f 730 1051 729
f 1040 1026 942
f 1054 1058 1051
f 1082 1003 820
f 1030 1003 1082
f 1084 1057 929
f 951 1038 1084
f 952 1038 951
f 827 1022 829
f 1093 953 1046
f 820 1041 1045
f 943 912 1084
f 943 911 912
f 1048 1043 1029
f 820 939 916
f 935 1028 1007
f 919 841 1054
f 1046 953 1055
f 1020 990 858
f 919 730 977
f 926 975 915
f 1031 1030 1082
f 943 1084 1041
f 1084 837 952
f 1059 1010 925
f 1048 972 1097
f 939 901 823
f 1084 990 989
f 829 813 828
f 1046 1045 1093
f 1009 1041 820
f 929 1057 928
f 1093 1084 952
f 921 1044 1041
f 921 954 1044
f 1044 943 1041
f 944 943 1044
f 939 919 1049
f 1053 1095 955
f 1045 1007 1028
f 820 1010 1059
f 870 924 916
f 924 870 922
f 988 987 1094
f 870 972 922
f 1060 1052 855
f 1060 1043 1052
f 1035 841 819
f 978 728 1056
f 977 728 978
f 1054 841 1034
f 728 820 1056
f 1048 1047 934
f 1033 818 1031
f 1098 1042 916
f 1097 1042 1098
f 919 920 1049
f 1003 1030 1059
f 919 820 819
f 919 836 835
f 913 1097 1098
f 1052 1021 855
f 1037 1021 1052
f 987 1048 1095
f 1016 988 1015
f 1039 1025 1099
f 1060 855 1039
f 1048 1039 939
f 918 926 916
f 975 926 918
f 1043 1037 1052
f 972 1042 1097
f 945 923 947
f 1096 916 855
f 1095 1048 955
f 916 1056 820
f 1048 1097 913
f 1053 956 916
f 1053 955 956
f 1096 1053 916
f 1095 1053 1096
f 1037 976 1021
f 997 1100 905
f 956 1098 916
f 956 913 1098
f 1094 1096 855
f 987 1096 1094
f 976 1048 934
f 1040 1000 1039
f 942 1000 1040
f 1047 1048 1016
f 1001 971 969
f 1039 1029 1017
f 1047 933 934
f 970 1011 1039
f 1011 970 1017
f 916 939 1039
f 1048 855 916
f 1099 1024 1039
f 1025 1024 1099
f 1084 1093 1041
f 1048 916 1039
f 855 1048 1039
f 1041 1093 1045
f 820 919 939
f 893 1073 1086
f 1076 1102 1109
f 1071 821 1066
f 821 1071 1004
f 1069 1004 1109
f 1076 1061 1102
f 1065 1068 1069
f 1102 1104 1109
f 1074 1075 1076
f 1106 1061 1101
f 1106 1102 1061
f 1075 1066 1101
f 1083 982 1066
f 1083 1063 982
f 1075 1070 1066
f 1074 1070 1075
f 1065 1069 1109
f 1004 1067 1109
f 1066 1109 1086
f 1071 1067 1004
f 1074 1076 1109
f 1109 1092 892
f 1068 1083 1066
f 1068 1065 1083
f 1062 742 1109
f 1067 1070 1074
f 821 1004 1069
f 1104 1102 1106
f 1008 842 1039
f 1111 1112 1101
f 1111 1062 1112
f 1072 1085 1101
f 1085 1113 1101
f 1114 1072 1101
f 1109 892 1086
f 1073 1072 1114
f 1116 1106 1101
f 1116 1104 1106
f 1109 1104 1110
f 1113 1085 892
f 1086 1117 1118
f 1110 1062 1109
f 1111 742 1062
f 742 1092 1109
f 1110 1112 1062
f 1112 1116 1101
f 1112 1110 1116
f 893 892 1085
f 1113 1105 1101
f 1105 1113 1092
f 1073 1114 998
f 1073 998 1086
f 1101 1119 1066
f 1120 1121 1119
f 1105 1111 1101
f 1111 1105 742
f 1105 1092 742
f 1122 1089 1123
f 1104 1116 1110
f 1092 1113 892
f 1066 1086 1101
f 1128 1127 1126
f 1103 1124 1126
f 1124 1129 1126
f 1130 1164 1131
f 1103 1108 1005
f 1118 1120 1090
f 1133 1134 1101
f 1135 1117 1086
f 996 1123 1119
f 996 1122 1123
f 1136 1135 1086
f 1120 1091 1090
f 1137 1138 1154
f 1137 1080 1138
f 999 1136 1086
f 1136 999 1133
f 1121 1139 1119
f 1139 1121 1117
f 999 1134 1133
f 1077 1088 1100
f 1091 1120 1119
f 1121 1118 1117
f 1138 1141 1154
f 1142 1141 1138
f 1118 1090 905
f 999 998 1134
f 998 1114 1134
f 1140 1135 1136
f 1143 906 905
f 1133 1101 1119
f 1089 1122 905
f 1090 1089 905
f 1134 1114 1101
f 1140 1133 1119
f 1139 1140 1119
f 1140 1139 1135
f 1101 1066 1119
f 1118 1121 1120
f 1139 1117 1135
f 1101 1086 1119
f 1140 1136 1133
f 1086 1118 905
f 1144 1145 983
f 1123 1091 1119
f 1123 1089 1091
f 1143 1146 906
f 1115 1124 1103
f 1147 1107 1108
f 1087 1148 1088
f 1127 1107 1125
f 1131 1164 1149
f 1005 1115 842
f 1129 1107 1128
f 1127 1125 1103
f 1124 1115 1129
f 1115 1103 842
f 1129 1115 1107
f 1147 1125 1107
f 1115 1108 1107
f 1127 1128 1107
f 1103 1126 1127
f 1125 1108 1103
f 1125 1147 1108
f 1005 1108 1115
f 1147 1107 1127
f 1107 1147 1127
f 1128 1126 1129
f 1088 1148 905
f 211 210 1165
f 997 995 1100
f 1152 1079 1078
f 1081 1153 211
f 983 985 910
f 905 1148 1143
f 1142 1138 1080
f 1142 1080 1165
f 1165 1086 905
f 1142 906 1141
f 905 1122 997
f 1100 1088 905
f 1119 1086 1165
f 906 1142 905
f 1141 1146 1154
f 906 1146 1141
f 1151 1143 1148
f 1077 995 1119
f 1077 1100 995
f 905 1142 1165
f 1151 1087 1154
f 1087 1151 1148
f 1122 996 997
f 1153 1137 1154
f 1153 1081 1137
f 1146 1151 1154
f 1143 1151 1146
f 1087 1119 1154
f 1145 1078 1154
f 1192 1132 1005
f 1192 1005 1132
f 1155 1156 1157
f 1156 1155 1161
f 1158 1159 1160
f 1166 1167 1168
f 210 1169 1170
f 1175 1132 1209
f 1144 1078 1145
f 1079 1152 1170
f 1119 1165 1154
f 984 1145 1154
f 1152 1144 910
f 209 1169 210
f 1144 983 910
f 1169 209 1154
f 1079 1170 1169
f 210 1170 1165
f 1081 211 1165
f 1165 1152 910
f 1165 1170 1152
f 1079 1169 1154
f 1080 1137 1081
f 983 1145 984
f 209 1153 1154
f 209 211 1153
f 1152 1078 1144
f 985 984 1012
f 1130 1159 1158
f 1131 1176 1130
f 1158 1164 1130
f 1177 1164 1158
f 1192 1178 1161
f 1204 1175 1174
f 1179 1155 1157
f 1180 1150 1181
f 1161 1179 1157
f 1161 1180 1181
f 1163 1182 1179
f 1161 1163 1179
f 1178 1162 1163
f 1157 1156 1180
f 1183 1184 1171
f 910 985 1012
f 1207 1165 910
f 1207 1154 1165
f 1183 1185 1186
f 1185 1187 1186
f 1186 1187 1188
f 1183 1189 1168
f 1189 1166 1168
f 1172 1173 1190
f 1012 984 1207
f 984 1154 1207
f 1177 1160 1174
f 1175 1177 1174
f 1132 1175 1204
f 1149 1204 1176
f 1204 1160 1159
f 1130 1176 1159
f 1131 1149 1176
f 1204 1174 1160
f 1158 1160 1177
f 1164 1175 1209
f 1164 1177 1175
f 1209 1149 1164
f 1159 1176 1204
f 1161 1157 1180
f 1182 1155 1179
f 1161 1155 1182
f 1178 1163 1161
f 1161 1181 1150
f 1156 1150 1180
f 1150 1156 1161
f 1162 1182 1163
f 1161 1182 1162
f 1178 1192 1162
f 1161 1162 1192
f 1183 1193 1013
f 1193 1172 1013
f 1171 1184 1172
f 1173 1184 1183
f 1184 1173 1172
f 1183 1171 1193
f 1171 1172 1193
f 1189 1190 1166
f 1173 1167 1166
f 1196 1167 1197
f 1013 1190 1189
f 1183 1013 1189
f 1198 1199 1200
f 1183 1198 1200
f 1167 1173 1197
f 1201 1173 1187
f 1190 1173 1166
f 1197 1191 1196
f 1191 1183 1196
f 1167 1196 1168
f 1196 1183 1168
f 1191 1197 1201
f 1202 1188 1203
f 1013 1172 1190
f 1188 1173 1203
f 1202 1203 1198
f 1183 1202 1198
f 1209 1204 1149
f 1132 1204 1209
f 1205 1194 1195
f 1194 1183 1195
f 1200 1199 1206
f 1199 1173 1206
f 1194 1208 1183
f 900 1173 1183
f 1197 1173 1201
f 1203 1173 1199
f 1205 900 1194
f 1191 1201 1185
f 1183 1191 1185
f 1206 1205 1195
f 1187 1173 1188
f 1186 1188 1202
f 1183 1186 1202
f 1183 1200 1195
f 1200 1206 1195
f 1185 1201 1187
f 1198 1203 1199
f 1173 900 1205
f 1173 1205 1206
f 900 1183 1208
f 1194 900 1208
f 1210 1212 1211
f 1217 1212 1214
f 1211 1212 1215
f 1213 1211 1216
f 1210 1211 1213
f 1218 1210 1213
f 1217 1215 1212
f 1216 1218 1213
f 1212 1210 1214
f 1214 1218 1217
f 1218 1216 1217
f 1215 1217 1216
f 1215 1216 1211
f 1218 1214 1210
f 37 52 199
f 224 310 484
f 305 287 306
f 408 757 456
f 181 622 757

