# https://github.com/mikedh/trimesh
v 0.00979353 0.03006278 0.08278807
v 0.01091488 0.02200968 0.08247151
v 0.01080986 0.03121194 0.08247151
v 0.00979353 0.03121194 0.08278131
v 0.00885322 0.03006278 0.08247151
v 0.00979353 0.01394760 0.08278807
v 0.01094472 0.01625041 0.08247489
v 0.01094472 0.01740406 0.08247376
v 0.01093777 0.01970687 0.08247151
v 0.01092796 0.02085603 0.08247151
v 0.01152092 0.01816268 0.08215608
v 0.01079637 0.03236559 0.08246700
v 0.01151847 0.01893029 0.08215157
v 0.00886548 0.03236559 0.08244560
v 0.00885567 0.03121194 0.08246475
v 0.01077839 0.03351475 0.08245010
v 0.00979353 0.03236559 0.08275765
v 0.00846254 0.03121194 0.08157928
v 0.00846499 0.03006278 0.08157928
v 0.00889899 0.01510125 0.08247151
v 0.00890266 0.01394760 0.08247151
v 0.00979353 0.01164479 0.08278356
v 0.01092428 -0.00076255 0.08247151
v 0.01092837 0.00013523 0.08247151
v 0.01093286 0.00128439 0.08247151
v 0.01094472 0.00819282 0.08247489
v 0.01152214 0.01625041 0.08215833
v 0.01152174 0.01740406 0.08215720
v 0.01105873 0.01854873 0.08240955
v 0.01162758 0.01854873 0.08169306
v 0.01165373 0.01970687 0.08156463
v 0.01151356 0.01970687 0.08214030
v 0.01150335 0.02085603 0.08211777
v 0.01165373 0.02085603 0.08154210
v 0.01165332 0.02200968 0.08151394
v 0.00887774 0.03351475 0.08242420
v 0.00855326 0.03812037 0.08157928
v 0.00853242 0.03697121 0.08157928
v 0.00851362 0.03581756 0.08157928
v 0.00849728 0.03466840 0.08157928
v 0.00848297 0.03351475 0.08157928
v 0.00847031 0.03236559 0.08157928
v 0.01075673 0.03466840 0.08242532
v 0.01149068 0.02200968 0.08208961
v 0.01073385 0.03581756 0.08239715
v 0.01070810 0.03697121 0.08236899
v 0.01067786 0.03812037 0.08233857
v 0.00979353 0.03351475 0.08271935
v 0.00906367 0.04272599 0.08224169
v 0.00902649 0.04157683 0.08226873
v 0.00899788 0.04042319 0.08229126
v 0.00894843 0.03812037 0.08233520
v 0.00892759 0.03697121 0.08235772
v 0.00889245 0.03466840 0.08240166
v 0.00843189 0.04272599 0.08042907
v 0.00842781 0.04157683 0.08042907
v 0.00842781 0.04042319 0.08042907
v 0.00842944 0.03927402 0.08042907
v 0.00843271 0.03812037 0.08042907
v 0.00844906 0.03351475 0.08042907
v 0.00845314 0.03236559 0.08042907
v 0.00845927 0.03121194 0.08042907
v 0.00857942 0.01510125 0.08157928
v 0.00897295 -0.00076255 0.08243321
v 0.00896846 0.00013523 0.08243546
v 0.00893536 0.00704366 0.08245573
v 0.00891329 0.01164479 0.08246700
v 0.00890757 0.01279844 0.08246925
v 0.00979353 -0.00076255 0.08274977
v 0.00979353 0.00704366 0.08277229
v 0.01105015 -0.00076255 0.08239490
v 0.01151601 0.00358720 0.08214593
v 0.01151888 0.00474085 0.08215269
v 0.01152010 0.00533787 0.08215495
v 0.01152092 0.00610548 0.08215608
v 0.01093695 0.00243804 0.08247151
v 0.01094472 0.00704366 0.08247376
v 0.01152214 0.00819282 0.08215833
v 0.01165578 0.01625041 0.08157928
v 0.01165537 0.01740406 0.08157928
v 0.01178695 0.02200968 0.08042907
v 0.01164965 0.02315435 0.08148127
v 0.01164106 0.02430800 0.08144409
v 0.01163126 0.02545716 0.08140692
v 0.01178287 0.02315435 0.08042907
v 0.00860271 0.04042319 0.08157928
v 0.00857697 0.03927402 0.08157928
v 0.01147556 0.02315435 0.08205694
v 0.01138525 0.03121194 0.08178882
v 0.01137217 0.03236559 0.08174939
v 0.01162063 0.02661081 0.08136861
v 0.01158794 0.03006278 0.08125258
v 0.01156628 0.03236559 0.08117372
v 0.01153359 0.03581756 0.08105431
v 0.01152541 0.03667046 0.08102389
v 0.01135378 0.03351475 0.08170996
v 0.01133253 0.03466840 0.08166940
v 0.01124303 0.03812037 0.08157928
v 0.01118664 0.03927402 0.08157928
v 0.01064108 0.03927402 0.08230703
v 0.01059858 0.04042319 0.08227436
v 0.01054873 0.04157683 0.08224282
v 0.00979353 0.03466840 0.08267091
v 0.00866850 0.04272599 0.08157928
v 0.00979353 0.03581756 0.08262134
v 0.00979353 0.03697121 0.08257065
v 0.00979353 0.03812037 0.08251882
v 0.00979353 0.03927402 0.08246475
v 0.00979353 0.04042319 0.08241067
v 0.00979353 0.04157683 0.08235547
v 0.00912988 0.04357889 0.08220339
v 0.00897173 0.03927402 0.08231266
v 0.00863173 0.04157683 0.08157928
v 0.00890879 0.03581756 0.08237913
v 0.00848338 0.04272599 0.07927774
v 0.00859536 0.04387964 0.08042907
v 0.00861374 0.04387964 0.07927774
v 0.00848257 0.04157683 0.07927774
v 0.00848584 0.04042319 0.07927774
v 0.00849033 0.03927402 0.07927774
v 0.00849728 0.03812037 0.07927774
v 0.00854141 0.03121194 0.07927774
v 0.00859290 0.02315435 0.07927774
v 0.00861497 0.01970687 0.07927774
v 0.00862314 0.01855322 0.07927774
v 0.00863949 0.01625041 0.07927774
v 0.00865624 0.01394760 0.07927774
v 0.00866483 0.01279844 0.07927774
v 0.00873593 0.00358720 0.07927774
v 0.00875391 0.00128439 0.07927774
v 0.00846826 0.03006278 0.08042907
v 0.00858841 0.01394760 0.08157928
v 0.00859862 0.01279844 0.08157928
v 0.00864194 0.00819282 0.08157928
v 0.00872776 -0.00076255 0.08157928
v 0.01150008 -0.00076255 0.08210988
v 0.01150866 0.00128439 0.08212904
v 0.01151234 0.00243804 0.08213805
v 0.01165373 -0.00076255 0.08153422
v 0.01165373 0.00128439 0.08155337
v 0.01165373 0.00243804 0.08156238
v 0.01165373 0.00358720 0.08157027
v 0.01165373 0.00474085 0.08157703
v 0.01152174 0.00704366 0.08215720
v 0.01105955 0.00578676 0.08240955
v 0.01094022 0.00358720 0.08247151
v 0.01165496 0.00704366 0.08157928
v 0.01165537 0.00819282 0.08157928
v 0.01165578 0.00934647 0.08157928
v 0.01235049 0.02085603 0.07467352
v 0.01234885 0.02200968 0.07467352
v 0.01178695 -0.00076255 0.08042907
v 0.01177469 0.02430800 0.08042907
v 0.01176448 0.02545716 0.08042907
v 0.01175385 0.02661081 0.08042907
v 0.01173219 0.02891362 0.08042907
v 0.01171053 0.03121194 0.08042907
v 0.01169950 0.03236559 0.08042907
v 0.01168847 0.03351475 0.08042907
v 0.01234395 0.02315435 0.07467352
v 0.01233700 0.02430800 0.07467352
v 0.01151806 0.03743806 0.08098671
v 0.01130924 0.03581756 0.08162997
v 0.01133008 0.03702059 0.08147676
v 0.01112003 0.04042319 0.08157928
v 0.01104565 0.04157683 0.08157928
v 0.01047149 0.04246115 0.08220339
v 0.00891656 0.04392902 0.08165926
v 0.00986627 0.04279782 0.08225295
v 0.00953077 0.04357889 0.08220339
v 0.00986627 0.04392902 0.08193189
v 0.00906694 0.04456196 0.08132919
v 0.00867913 0.04387964 0.07812640
v 0.00906980 0.04387964 0.07352218
v 0.00920793 0.04343973 0.07168140
v 0.00923408 0.04300879 0.07128147
v 0.00922795 0.04272599 0.07128147
v 0.00922142 0.04157683 0.07128147
v 0.00921855 0.03927402 0.07128147
v 0.00921447 0.03581756 0.07128147
v 0.00898644 0.04462929 0.08042907
v 0.00897990 0.04466520 0.07927774
v 0.00898766 0.04468764 0.07812640
v 0.00901627 0.04469214 0.07697619
v 0.00906040 0.04467418 0.07582485
v 0.00910985 0.04462480 0.07467352
v 0.00919281 0.03581756 0.07151918
v 0.00921488 0.03533276 0.07128147
v 0.00921855 0.03412075 0.07128147
v 0.00922632 0.03284142 0.07128147
v 0.00886221 -0.00076255 0.07812640
v 0.00884177 -0.00076255 0.07837762
v 0.00876290 0.00013523 0.07927774
v 0.00852466 0.02315435 0.08042907
v 0.00855286 0.01970687 0.08042907
v 0.00856266 0.01855322 0.08042907
v 0.00862314 0.01164479 0.08042907
v 0.00865338 0.00819282 0.08042907
v 0.00867382 0.00589001 0.08042907
v 0.00868403 0.00474085 0.08042907
v 0.00873348 -0.00076255 0.08042907
v 0.01244244 0.01970687 0.07352218
v 0.01244162 0.02085603 0.07352218
v 0.01235049 0.00819282 0.07467352
v 0.01243876 0.02200968 0.07352218
v 0.01178695 -0.00076255 0.07697619
v 0.01237787 0.00358720 0.07128147
v 0.01249679 0.00474085 0.07128147
v 0.01240770 0.00589001 0.07352218
v 0.01233373 0.00589001 0.07467352
v 0.01234681 0.00704366 0.07467352
v 0.01238032 0.03121194 0.07352218
v 0.01236724 0.03236559 0.07352218
v 0.01234681 0.03351475 0.07352218
v 0.01243467 0.03466840 0.07237085
v 0.01166558 0.03466840 0.08042907
v 0.01242854 0.02430800 0.07352218
v 0.01242282 0.02545716 0.07352218
v 0.01241587 0.02661081 0.07352218
v 0.01240811 0.02775997 0.07352218
v 0.01239953 0.02891362 0.07352218
v 0.01150948 0.03812037 0.08089546
v 0.01135174 0.04272599 0.08042907
v 0.01079760 0.04279782 0.08168517
v 0.01029822 0.04322875 0.08214030
v 0.01046945 0.04453053 0.08108923
v 0.00979353 0.04459338 0.08131116
v 0.00979353 0.04486720 0.08042907
v 0.00979353 0.04502432 0.07927774
v 0.00916134 0.04454849 0.07352218
v 0.00919771 0.04449013 0.07274261
v 0.00917319 0.04384373 0.07236409
v 0.00924389 0.04420734 0.07197543
v 0.00928884 0.04383027 0.07128147
v 0.00979353 0.04504227 0.07812640
v 0.00979353 0.04497943 0.07467352
v 0.00979353 0.04491658 0.07352218
v 0.00985892 0.04481782 0.07128147
v 0.00924021 0.03119848 0.07128147
v 0.00944291 0.01394760 0.07128147
v 0.00948377 0.01049563 0.07128147
v 0.00951033 0.00825566 0.07128147
v 0.00953771 0.00595285 0.07128147
v 0.00953853 0.00589001 0.07128147
v 0.00956346 0.00474085 0.07128147
v 0.00960351 0.00365004 0.07128147
v 0.00960596 0.00358720 0.07128147
v 0.00901627 -0.00076255 0.07697619
v 0.00925166 0.03013012 0.07128147
v 0.00926473 0.02901687 0.07128147
v 0.00877026 -0.00076255 0.07927774
v 0.00876209 -0.00076255 0.07952896
v 0.01260263 0.01855322 0.07128147
v 0.01252458 0.01970687 0.07237085
v 0.01244244 0.01049563 0.07352218
v 0.01252253 0.02085603 0.07237085
v 0.01260181 0.01970687 0.07128147
v 0.01243958 0.00934647 0.07352218
v 0.01251845 0.02200968 0.07237085
v 0.01258424 0.02424516 0.07128147
v 0.01256422 0.02885078 0.07128147
v 0.01249842 0.02661081 0.07237085
v 0.01259895 0.02079767 0.07128147
v 0.01178573 -0.00076255 0.07672384
v 0.01235458 0.00352884 0.07128147
v 0.01178082 -0.00076255 0.07582485
v 0.01175181 -0.00076255 0.07566376
v 0.01164760 -0.00076255 0.07508809
v 0.01251722 0.00589001 0.07128147
v 0.01254624 0.00819282 0.07128147
v 0.01257443 0.01043278 0.07128147
v 0.01242200 0.00704366 0.07352218
v 0.01243304 0.00819282 0.07352218
v 0.01252866 0.03460556 0.07128147
v 0.01245184 0.03351475 0.07237085
v 0.01251518 0.03575920 0.07128147
v 0.01249352 0.03690837 0.07128147
v 0.01175058 0.03581756 0.07927774
v 0.01171707 0.03697121 0.07927774
v 0.01163044 0.03581756 0.08042907
v 0.01249311 0.02775997 0.07237085
v 0.01255277 0.03115359 0.07128147
v 0.01248657 0.02891362 0.07237085
v 0.01254583 0.03230275 0.07128147
v 0.01247922 0.03006278 0.07237085
v 0.01247104 0.03121194 0.07237085
v 0.01156873 0.03812037 0.08031980
v 0.01148986 0.03927402 0.08068480
v 0.01141671 0.04157683 0.08042907
v 0.01151479 0.04318386 0.07864687
v 0.01137585 0.04387964 0.07927774
v 0.01113229 0.04387964 0.08042907
v 0.01066070 0.04387964 0.08134383
v 0.01066111 0.04468764 0.08042907
v 0.01083765 0.04481334 0.07927774
v 0.01094472 0.04508716 0.07128147
v 0.00929089 0.04385271 0.07128147
v 0.01087729 0.04507369 0.07128147
v 0.00997743 0.00251435 0.07128147
v 0.00929865 -0.00076255 0.07550491
v 0.00916339 -0.00076255 0.07608058
v 0.01260263 0.01503840 0.07128147
v 0.01252253 0.01164479 0.07237085
v 0.01260099 0.01388924 0.07128147
v 0.01259650 0.01273559 0.07128147
v 0.01255890 0.02999994 0.07128147
v 0.01182823 0.00235275 0.07128147
v 0.01094472 -0.00076255 0.07481884
v 0.01084419 0.00189937 0.07128147
v 0.01258710 0.01158643 0.07128147
v 0.01250660 0.00934647 0.07237085
v 0.01251681 0.01049563 0.07237085
v 0.01253724 0.03351475 0.07128147
v 0.01249188 0.03697121 0.07128147
v 0.01246164 0.03806202 0.07128147
v 0.01238482 0.04036483 0.07128147
v 0.01234436 0.04157683 0.07128147
v 0.01230595 0.04272599 0.07128147
v 0.01155157 0.04368662 0.07787968
v 0.01152010 0.04445422 0.07754848
v 0.01176611 0.04471907 0.07128147
v 0.01172525 0.04474151 0.07128147
v 0.00999950 0.00245599 0.07128147
v 0.00974817 -0.00076255 0.07508922
v 0.01070892 -0.00076255 0.07485264
v 0.00987445 -0.00076255 0.07497994
v 0.01214943 0.04387964 0.07128147
f 1 2 3
f 1 3 4
f 1 4 5
f 1 5 6
f 1 6 26
f 1 26 7
f 1 7 8
f 1 8 9
f 1 9 10
f 1 10 2
f 2 10 11
f 2 11 3
f 3 12 4
f 3 11 13
f 3 13 12
f 4 14 15
f 4 15 5
f 4 12 16
f 4 16 17
f 4 17 14
f 5 15 18
f 5 18 19
f 5 19 20
f 5 20 6
f 6 20 21
f 6 21 22
f 6 22 23
f 6 23 24
f 6 24 25
f 6 25 26
f 7 26 78
f 7 78 27
f 7 27 8
f 8 27 28
f 8 28 29
f 8 29 9
f 9 29 11
f 9 11 10
f 11 30 31
f 11 31 13
f 11 29 28
f 11 28 30
f 12 13 32
f 12 32 33
f 12 33 16
f 13 31 34
f 13 34 35
f 13 35 32
f 14 17 36
f 14 36 37
f 14 37 38
f 14 38 15
f 15 38 39
f 15 39 40
f 15 40 41
f 15 41 42
f 15 42 18
f 16 43 17
f 16 33 44
f 16 44 43
f 17 43 45
f 17 45 46
f 17 46 47
f 17 47 48
f 17 48 49
f 17 49 50
f 17 50 51
f 17 51 52
f 17 52 53
f 17 53 54
f 17 54 36
f 18 42 55
f 18 55 56
f 18 56 57
f 18 57 58
f 18 58 19
f 19 58 59
f 19 59 60
f 19 60 61
f 19 61 62
f 19 62 63
f 19 63 64
f 19 64 65
f 19 65 66
f 19 66 67
f 19 67 68
f 19 68 21
f 19 21 20
f 21 68 69
f 21 69 70
f 21 70 22
f 22 70 23
f 23 70 69
f 23 69 64
f 23 64 135
f 23 135 201
f 23 201 252
f 23 252 251
f 23 251 192
f 23 192 191
f 23 191 248
f 23 248 301
f 23 301 300
f 23 300 324
f 23 324 326
f 23 326 325
f 23 325 308
f 23 308 268
f 23 268 267
f 23 267 266
f 23 266 264
f 23 264 206
f 23 206 152
f 23 152 139
f 23 139 136
f 23 136 71
f 23 71 72
f 23 72 73
f 23 73 74
f 23 74 24
f 24 74 25
f 25 74 75
f 25 75 76
f 25 76 26
f 26 76 77
f 26 77 78
f 27 79 80
f 27 80 28
f 27 78 149
f 27 149 79
f 28 80 30
f 30 80 31
f 31 81 34
f 31 80 81
f 32 35 82
f 32 82 33
f 33 82 83
f 33 83 84
f 33 84 44
f 34 81 35
f 35 81 85
f 35 85 82
f 36 54 86
f 36 86 87
f 36 87 37
f 37 87 55
f 37 55 38
f 38 55 39
f 39 55 40
f 40 55 41
f 41 55 42
f 43 44 88
f 43 88 89
f 43 89 90
f 43 90 45
f 44 84 91
f 44 91 92
f 44 92 93
f 44 93 94
f 44 94 95
f 44 95 89
f 44 89 88
f 45 90 46
f 46 90 96
f 46 96 97
f 46 97 98
f 46 98 47
f 47 98 99
f 47 99 100
f 47 100 48
f 48 100 101
f 48 101 102
f 48 102 103
f 48 103 49
f 49 104 50
f 49 103 105
f 49 105 106
f 49 106 107
f 49 107 108
f 49 108 109
f 49 109 110
f 49 110 111
f 49 111 104
f 50 104 51
f 51 104 112
f 51 112 52
f 52 112 113
f 52 113 53
f 53 113 114
f 53 114 54
f 54 114 86
f 55 115 56
f 55 87 86
f 55 86 113
f 55 113 104
f 55 104 116
f 55 116 117
f 55 117 115
f 56 115 118
f 56 118 57
f 57 118 58
f 58 118 119
f 58 119 59
f 59 119 60
f 60 119 61
f 61 119 120
f 61 120 62
f 62 120 121
f 62 121 122
f 62 122 123
f 62 123 124
f 62 124 125
f 62 125 126
f 62 126 127
f 62 127 128
f 62 128 129
f 62 129 130
f 62 130 193
f 62 193 131
f 62 131 132
f 62 132 63
f 63 132 64
f 64 132 133
f 64 133 134
f 64 134 135
f 64 69 66
f 64 66 65
f 66 69 67
f 67 69 68
f 71 136 137
f 71 137 138
f 71 138 72
f 72 138 139
f 72 139 73
f 73 139 74
f 74 139 140
f 74 140 141
f 74 141 142
f 74 142 75
f 75 142 143
f 75 143 144
f 75 144 76
f 76 144 145
f 76 145 146
f 76 146 77
f 77 145 78
f 77 146 145
f 78 145 144
f 78 144 147
f 78 147 148
f 78 148 149
f 79 81 80
f 79 149 152
f 79 152 81
f 81 150 151
f 81 151 85
f 81 152 204
f 81 204 150
f 82 85 153
f 82 153 154
f 82 154 155
f 82 155 156
f 82 156 157
f 82 157 158
f 82 158 159
f 82 159 83
f 83 159 84
f 84 159 91
f 85 160 161
f 85 161 153
f 85 151 160
f 86 114 113
f 89 95 90
f 90 95 162
f 90 162 96
f 91 159 92
f 92 159 93
f 93 159 94
f 94 159 95
f 95 159 162
f 96 162 97
f 97 162 163
f 97 163 98
f 98 163 164
f 98 164 162
f 98 162 99
f 99 162 165
f 99 165 100
f 100 165 101
f 101 165 102
f 102 110 109
f 102 109 108
f 102 108 107
f 102 107 106
f 102 106 105
f 102 105 103
f 102 165 166
f 102 166 167
f 102 167 110
f 104 113 112
f 104 111 168
f 104 168 116
f 110 167 169
f 110 169 170
f 110 170 111
f 111 170 171
f 111 171 172
f 111 172 168
f 115 117 173
f 115 173 174
f 115 174 175
f 115 175 176
f 115 176 177
f 115 177 178
f 115 178 179
f 115 179 180
f 115 180 118
f 116 168 172
f 116 172 181
f 116 181 182
f 116 182 183
f 116 183 117
f 117 183 184
f 117 184 185
f 117 185 186
f 117 186 173
f 118 180 187
f 118 187 188
f 118 188 119
f 119 188 189
f 119 189 120
f 120 189 121
f 121 189 190
f 121 190 122
f 122 190 123
f 123 190 124
f 124 190 125
f 125 190 126
f 126 190 191
f 126 191 127
f 127 191 128
f 128 191 192
f 128 192 129
f 129 192 130
f 130 192 193
f 131 194 132
f 131 193 194
f 132 195 196
f 132 196 197
f 132 197 198
f 132 198 199
f 132 199 200
f 132 200 133
f 132 194 195
f 133 200 201
f 133 201 134
f 134 201 135
f 136 139 137
f 137 139 138
f 139 152 140
f 140 152 141
f 141 152 142
f 142 152 143
f 143 147 144
f 143 152 147
f 147 152 148
f 148 152 149
f 150 202 203
f 150 203 151
f 150 204 255
f 150 255 202
f 151 205 160
f 151 203 205
f 152 206 207
f 152 207 208
f 152 208 209
f 152 209 210
f 152 210 211
f 152 211 204
f 153 161 154
f 154 161 155
f 155 161 156
f 156 161 157
f 157 161 158
f 158 161 159
f 159 161 212
f 159 212 213
f 159 213 214
f 159 214 215
f 159 215 216
f 159 216 162
f 160 217 218
f 160 218 219
f 160 219 161
f 160 205 217
f 161 219 220
f 161 220 221
f 161 221 212
f 162 222 165
f 162 164 163
f 162 216 222
f 165 222 166
f 166 223 224
f 166 224 167
f 166 222 223
f 167 224 225
f 167 225 169
f 169 225 170
f 170 225 171
f 171 225 226
f 171 226 227
f 171 227 172
f 172 227 228
f 172 228 229
f 172 229 181
f 173 186 230
f 173 230 231
f 173 231 174
f 174 232 175
f 174 231 232
f 175 232 233
f 175 233 234
f 175 234 176
f 176 234 297
f 176 297 238
f 176 238 298
f 176 298 296
f 176 296 322
f 176 322 321
f 176 321 327
f 176 327 318
f 176 318 317
f 176 317 316
f 176 316 315
f 176 315 314
f 176 314 277
f 176 277 276
f 176 276 274
f 176 274 313
f 176 313 284
f 176 284 282
f 176 282 306
f 176 306 261
f 176 261 260
f 176 260 263
f 176 263 257
f 176 257 253
f 176 253 302
f 176 302 304
f 176 304 305
f 176 305 310
f 176 310 271
f 176 271 270
f 176 270 269
f 176 269 208
f 176 208 207
f 176 207 265
f 176 265 307
f 176 307 309
f 176 309 323
f 176 323 299
f 176 299 247
f 176 247 246
f 176 246 245
f 176 245 244
f 176 244 243
f 176 243 242
f 176 242 241
f 176 241 240
f 176 240 250
f 176 250 249
f 176 249 239
f 176 239 190
f 176 190 189
f 176 189 188
f 176 188 180
f 176 180 179
f 176 179 178
f 176 178 177
f 180 188 187
f 181 229 182
f 182 229 183
f 183 229 235
f 183 235 184
f 184 235 236
f 184 236 185
f 185 236 237
f 185 237 238
f 185 238 186
f 186 238 230
f 190 239 191
f 191 240 241
f 191 241 242
f 191 242 243
f 191 243 244
f 191 244 245
f 191 245 246
f 191 246 247
f 191 247 248
f 191 239 249
f 191 249 250
f 191 250 240
f 192 251 193
f 193 251 195
f 193 195 194
f 195 251 196
f 196 251 197
f 197 251 198
f 198 251 252
f 198 252 199
f 199 252 200
f 200 252 201
f 202 253 254
f 202 254 203
f 202 255 302
f 202 302 253
f 203 256 205
f 203 254 257
f 203 257 256
f 204 211 258
f 204 258 255
f 205 259 260
f 205 260 261
f 205 261 262
f 205 262 217
f 205 256 263
f 205 263 259
f 206 264 207
f 207 264 266
f 207 266 267
f 207 267 268
f 207 268 265
f 208 269 209
f 209 269 270
f 209 270 271
f 209 271 272
f 209 272 210
f 210 272 211
f 211 272 273
f 211 273 258
f 212 221 274
f 212 274 275
f 212 275 213
f 213 275 276
f 213 276 215
f 213 215 214
f 215 276 277
f 215 277 216
f 216 277 278
f 216 278 279
f 216 279 280
f 216 280 222
f 217 262 281
f 217 281 218
f 218 281 282
f 218 282 283
f 218 283 219
f 219 283 284
f 219 284 285
f 219 285 220
f 220 285 286
f 220 286 221
f 221 286 274
f 222 280 279
f 222 279 287
f 222 287 288
f 222 288 289
f 222 289 223
f 223 289 290
f 223 290 291
f 223 291 292
f 223 292 224
f 224 292 293
f 224 293 225
f 225 293 226
f 226 294 228
f 226 228 227
f 226 293 292
f 226 292 294
f 228 295 229
f 228 294 295
f 229 295 296
f 229 296 235
f 230 238 231
f 231 233 232
f 231 238 233
f 233 297 234
f 233 238 297
f 235 296 236
f 236 296 298
f 236 298 238
f 236 238 237
f 247 299 300
f 247 300 301
f 247 301 248
f 253 257 254
f 255 258 303
f 255 303 304
f 255 304 302
f 256 257 263
f 258 273 305
f 258 305 303
f 259 263 260
f 261 306 281
f 261 281 262
f 265 268 307
f 268 308 309
f 268 309 307
f 271 310 311
f 271 311 272
f 272 311 273
f 273 311 310
f 273 310 312
f 273 312 305
f 274 276 275
f 274 286 313
f 277 314 278
f 278 314 315
f 278 315 279
f 279 288 287
f 279 315 316
f 279 316 317
f 279 317 318
f 279 318 288
f 281 306 282
f 282 284 283
f 284 313 285
f 285 313 286
f 288 318 289
f 289 318 290
f 290 319 320
f 290 320 291
f 290 318 319
f 291 320 292
f 292 320 294
f 294 320 295
f 295 321 322
f 295 322 296
f 295 320 321
f 299 323 300
f 300 323 324
f 303 305 304
f 305 312 310
f 308 325 309
f 309 325 326
f 309 326 323
f 318 327 320
f 318 320 319
f 320 327 321
f 323 326 324

