o convex_0
v -0.096285 0.085358 -0.001971
v 0.064457 0.100048 -0.008017
v 0.064457 0.100048 -0.009745
v 0.079161 0.073255 0.004079
v -0.093679 0.091404 0.004944
v -0.080718 0.094858 -0.013203
v 0.070514 0.087944 0.006674
v -0.094542 0.073255 0.008404
v 0.076555 0.073255 -0.001971
v -0.093679 0.073255 -0.001971
v -0.087639 0.099182 -0.002831
v 0.064457 0.093997 -0.013203
v 0.073103 0.096589 -0.000243
v 0.075692 0.074120 0.008404
v -0.089364 0.082767 0.008404
v -0.083324 0.099182 -0.011473
v 0.075692 0.094858 -0.006287
v 0.063594 0.097454 -0.013203
v 0.019517 0.094858 0.002351
v 0.073103 0.081034 0.008404
v -0.080718 0.092269 -0.012338
v -0.038384 0.100048 -0.004559
v 0.078281 0.087082 0.004944
v -0.091953 0.095723 -0.008017
v 0.067908 0.098317 -0.001971
v -0.088501 0.098317 -0.001108
v -0.078129 0.100048 -0.010610
v 0.074829 0.092269 0.004079
v 0.000498 0.086221 0.007539
v 0.007402 0.099182 -0.012338
v -0.072072 0.097454 -0.013203
v -0.097148 0.073255 0.005811
v -0.096285 0.090536 0.002351
v 0.077418 0.073255 0.007539
v -0.087639 0.093997 -0.011473
v 0.071377 0.093129 -0.010610
v -0.094542 0.085358 0.007539
v -0.091953 0.093997 0.003216
v 0.062731 0.100048 -0.005424
v 0.077418 0.090536 -0.004559
v 0.041987 0.091404 0.004944
v 0.071377 0.098317 -0.008880
v -0.096285 0.073255 -0.000243
v 0.062731 0.099182 -0.012338
v -0.087639 0.086221 0.007539
v -0.081581 0.100048 -0.004559
v 0.064457 0.092269 -0.012338
v 0.076555 0.093997 0.000623
v -0.093679 0.094858 0.001485
v 0.075692 0.084493 0.007539
v 0.059262 0.081899 0.008404
v -0.094542 0.089675 -0.005424
v -0.097148 0.081899 0.005811
v -0.087639 0.099182 -0.008880
v 0.079161 0.073255 0.001485
v 0.078281 0.089675 -0.001971
v -0.094542 0.093997 -0.004559
v -0.097148 0.086221 0.001485
v 0.063594 0.100048 -0.010610
v 0.069634 0.099182 -0.004559
f 13 42 60 
f 4 8 9 
f 9 8 10 
f 8 14 15 
f 12 6 18 
f 15 14 20 
f 9 10 21 
f 6 12 21 
f 2 3 22 
f 19 13 25 
f 25 22 26 
f 22 11 26 
f 19 25 26 
f 22 3 27 
f 13 19 28 
f 16 27 30 
f 6 16 31 
f 18 6 31 
f 16 30 31 
f 30 18 31 
f 10 8 32 
f 8 4 34 
f 14 8 34 
f 4 23 34 
f 16 6 35 
f 6 21 35 
f 21 10 35 
f 24 16 35 
f 9 12 36 
f 12 18 36 
f 8 15 37 
f 5 33 37 
f 19 26 38 
f 2 22 39 
f 22 25 39 
f 9 36 40 
f 36 17 40 
f 7 28 41 
f 28 19 41 
f 5 29 41 
f 29 7 41 
f 19 38 41 
f 38 5 41 
f 17 36 42 
f 36 18 42 
f 10 32 43 
f 35 10 43 
f 18 30 44 
f 30 27 44 
f 42 18 44 
f 29 5 45 
f 15 29 45 
f 37 15 45 
f 5 37 45 
f 11 22 46 
f 22 27 46 
f 12 9 47 
f 9 21 47 
f 21 12 47 
f 13 28 48 
f 28 23 48 
f 42 13 48 
f 17 42 48 
f 26 11 49 
f 33 5 49 
f 38 26 49 
f 5 38 49 
f 20 14 50 
f 28 7 50 
f 23 28 50 
f 14 34 50 
f 34 23 50 
f 15 20 51 
f 7 29 51 
f 29 15 51 
f 20 50 51 
f 50 7 51 
f 24 35 52 
f 43 1 52 
f 35 43 52 
f 32 8 53 
f 8 37 53 
f 37 33 53 
f 16 24 54 
f 27 16 54 
f 11 46 54 
f 46 27 54 
f 49 11 54 
f 4 9 55 
f 9 40 55 
f 55 40 56 
f 23 4 56 
f 40 17 56 
f 48 23 56 
f 17 48 56 
f 4 55 56 
f 33 49 57 
f 52 1 57 
f 24 52 57 
f 54 24 57 
f 49 54 57 
f 1 43 58 
f 43 32 58 
f 32 53 58 
f 53 33 58 
f 57 1 58 
f 33 57 58 
f 27 3 59 
f 3 42 59 
f 44 27 59 
f 42 44 59 
f 3 2 60 
f 25 13 60 
f 2 39 60 
f 39 25 60 
f 42 3 60 
o convex_1
v 0.133607 -0.058117 -0.012339
v 0.139652 -0.027870 0.002352
v 0.142248 -0.028734 0.003218
v 0.106818 -0.056385 0.003218
v 0.107691 -0.030463 -0.013203
v 0.156938 -0.057250 0.003218
v 0.156938 -0.033922 -0.013203
v 0.107691 -0.030463 0.003218
v 0.107691 -0.057250 -0.013203
v 0.156938 -0.057250 -0.013203
v 0.157811 -0.034786 0.003218
v 0.138788 -0.027870 -0.012339
v 0.138788 -0.058117 0.002352
v 0.106818 -0.030463 -0.012339
v 0.155210 -0.032193 0.002352
v 0.157811 -0.057250 -0.011474
v 0.156938 -0.058117 -0.010609
v 0.106818 -0.057250 0.002352
v 0.157811 -0.033922 -0.012339
v 0.106818 -0.030463 0.002352
v 0.106818 -0.055520 -0.013203
v 0.157811 -0.057250 0.002352
v 0.135334 -0.027870 -0.008016
v 0.155210 -0.032193 -0.008881
v 0.156074 -0.058117 0.002352
v 0.141384 -0.028734 -0.013203
v 0.137061 -0.027870 0.003218
f 83 80 87 
f 63 64 66 
f 64 63 68 
f 65 67 69 
f 69 67 70 
f 61 69 70 
f 63 66 71 
f 66 64 73 
f 72 65 74 
f 62 63 75 
f 63 71 75 
f 61 70 77 
f 73 61 77 
f 70 76 77 
f 69 61 78 
f 73 64 78 
f 61 73 78 
f 64 74 78 
f 70 67 79 
f 75 71 79 
f 76 70 79 
f 71 76 79 
f 64 68 80 
f 74 64 80 
f 65 69 81 
f 74 65 81 
f 69 78 81 
f 78 74 81 
f 71 66 82 
f 76 71 82 
f 77 76 82 
f 62 72 83 
f 72 74 83 
f 74 80 83 
f 72 62 84 
f 62 75 84 
f 75 79 84 
f 66 73 85 
f 73 77 85 
f 82 66 85 
f 77 82 85 
f 67 65 86 
f 65 72 86 
f 79 67 86 
f 72 84 86 
f 84 79 86 
f 63 62 87 
f 68 63 87 
f 80 68 87 
f 62 83 87 
o convex_2
v 0.118058 0.002383 -0.012339
v 0.137064 0.030905 0.002352
v 0.137928 0.030034 0.003218
v 0.152616 0.004114 -0.013203
v 0.146567 -0.006253 0.003218
v 0.103370 0.016208 0.003218
v 0.111146 0.030034 -0.013203
v 0.137928 0.030034 -0.013203
v 0.153485 0.008436 0.001487
v 0.144840 -0.007124 -0.013203
v 0.109419 0.029170 0.003218
v 0.103370 0.015345 -0.013203
v 0.117195 0.003254 0.002352
v 0.107687 0.029170 -0.012339
v 0.143977 -0.007124 0.002352
v 0.152616 0.008436 -0.013203
v 0.152616 0.004981 0.003218
v 0.147430 -0.007124 -0.012339
v 0.102501 0.017936 0.002352
v 0.108556 0.010163 0.002352
v 0.124971 0.030905 -0.012339
v 0.114605 0.030034 0.001487
v 0.103370 0.019663 -0.012339
v 0.106824 0.027447 0.002352
v 0.116332 0.004114 0.003218
v 0.139655 0.028310 -0.005424
v 0.116332 0.003254 -0.010609
v 0.152616 0.009303 -0.010609
v 0.153485 0.005845 0.002352
v 0.136196 0.030905 -0.013203
v 0.117195 0.003254 -0.013203
v 0.147430 -0.006253 0.002352
v 0.143977 -0.007124 -0.012339
v 0.102501 0.016208 0.002352
v 0.109419 0.030034 -0.008016
v 0.131015 0.030905 0.002352
f 122 109 123 
f 92 90 93 
f 91 94 95 
f 94 91 97 
f 93 90 98 
f 94 97 99 
f 94 99 101 
f 100 88 102 
f 91 95 103 
f 96 91 103 
f 90 92 104 
f 96 90 104 
f 97 91 105 
f 102 97 105 
f 101 99 110 
f 99 106 110 
f 106 101 110 
f 93 98 111 
f 106 93 111 
f 101 106 111 
f 92 93 112 
f 102 92 112 
f 100 102 112 
f 93 107 112 
f 107 100 112 
f 89 90 113 
f 95 89 113 
f 90 96 113 
f 88 100 114 
f 107 99 114 
f 100 107 114 
f 103 95 115 
f 96 103 115 
f 95 113 115 
f 113 96 115 
f 91 96 116 
f 96 104 116 
f 105 91 116 
f 95 94 117 
f 89 95 117 
f 94 108 117 
f 108 89 117 
f 97 88 118 
f 99 97 118 
f 88 114 118 
f 114 99 118 
f 92 102 119 
f 104 92 119 
f 102 105 119 
f 116 104 119 
f 105 116 119 
f 88 97 120 
f 102 88 120 
f 97 102 120 
f 93 106 121 
f 106 99 121 
f 99 107 121 
f 107 93 121 
f 94 101 122 
f 108 94 122 
f 98 109 122 
f 111 98 122 
f 101 111 122 
f 90 89 123 
f 98 90 123 
f 89 108 123 
f 109 98 123 
f 108 122 123 
o convex_3
v -0.027148 0.020535 0.008404
v -0.072954 0.035231 0.010998
v -0.072954 0.035231 0.017046
v -0.047026 0.068069 0.009270
v -0.028884 0.054233 0.021368
v -0.042711 0.011892 0.017910
v -0.065167 0.055104 0.021368
v -0.063442 0.017079 0.008404
v -0.022828 0.047320 0.008404
v -0.021965 0.030910 0.018774
v -0.068624 0.053373 0.008404
v -0.067761 0.022266 0.018774
v -0.040980 0.062016 0.021368
v -0.042711 0.011892 0.008404
v -0.052208 0.068069 0.008404
v -0.056528 0.012757 0.017046
v -0.029746 0.057695 0.008404
v -0.031477 0.016213 0.017910
v -0.071218 0.046460 0.020501
v -0.053934 0.062016 0.021368
v -0.071218 0.027448 0.008404
v -0.021097 0.035231 0.008404
v -0.022828 0.046460 0.018774
v -0.032340 0.058560 0.020501
v -0.072954 0.042133 0.008404
v -0.052208 0.011892 0.008404
v -0.023691 0.043004 0.020501
v -0.071218 0.042133 0.020501
v -0.023691 0.024863 0.017910
v -0.035797 0.013623 0.008404
v -0.063442 0.057695 0.020501
v -0.025422 0.051648 0.020501
v -0.066898 0.019670 0.017910
v -0.071218 0.027448 0.018774
v -0.022828 0.027448 0.008404
v -0.048746 0.011026 0.017046
v -0.071218 0.048186 0.018774
v -0.026285 0.023132 0.018774
v -0.042711 0.052507 0.021368
v -0.072954 0.041273 0.018774
v -0.040117 0.011892 0.017046
v -0.068624 0.022266 0.008404
v -0.066898 0.055104 0.015317
v -0.021097 0.036097 0.014453
v -0.029746 0.017079 0.014454
v -0.027148 0.055104 0.010998
v -0.033203 0.060286 0.008404
v -0.052208 0.011892 0.017910
v -0.059985 0.014488 0.010133
f 156 131 172 
f 124 131 132 
f 132 131 134 
f 130 128 136 
f 131 124 137 
f 132 134 138 
f 132 138 140 
f 136 127 143 
f 130 136 143 
f 127 138 143 
f 126 125 144 
f 134 131 144 
f 124 132 145 
f 127 136 147 
f 136 128 147 
f 125 126 148 
f 144 125 148 
f 134 144 148 
f 131 137 149 
f 133 146 150 
f 130 142 151 
f 137 124 153 
f 130 143 154 
f 143 138 154 
f 146 132 155 
f 147 128 155 
f 128 150 155 
f 150 146 155 
f 126 144 157 
f 135 151 157 
f 156 135 157 
f 124 145 158 
f 145 133 158 
f 133 152 158 
f 152 124 158 
f 149 137 159 
f 139 149 159 
f 142 130 160 
f 134 148 160 
f 130 154 160 
f 129 141 161 
f 150 129 161 
f 133 150 161 
f 152 133 161 
f 141 152 161 
f 128 130 162 
f 150 128 162 
f 129 150 162 
f 130 151 162 
f 151 129 162 
f 148 126 163 
f 151 142 163 
f 126 157 163 
f 157 151 163 
f 142 160 163 
f 160 148 163 
f 141 129 164 
f 137 153 164 
f 153 141 164 
f 129 159 164 
f 159 137 164 
f 144 131 165 
f 131 156 165 
f 157 144 165 
f 156 157 165 
f 138 134 166 
f 154 138 166 
f 134 160 166 
f 160 154 166 
f 145 132 167 
f 133 145 167 
f 146 133 167 
f 132 146 167 
f 152 141 168 
f 124 152 168 
f 153 124 168 
f 141 153 168 
f 132 140 169 
f 140 147 169 
f 155 132 169 
f 147 155 169 
f 138 127 170 
f 140 138 170 
f 127 147 170 
f 147 140 170 
f 151 135 171 
f 129 151 171 
f 135 156 171 
f 156 139 171 
f 159 129 171 
f 139 159 171 
f 131 149 172 
f 149 139 172 
f 139 156 172 
o convex_4
v -0.091092 -0.086636 -0.003697
v 0.070499 -0.061574 -0.002832
v 0.077421 -0.061577 -0.002832
v 0.070499 -0.061574 -0.012339
v 0.070499 -0.088367 -0.001968
v -0.093685 -0.061577 -0.001968
v -0.091092 -0.071084 -0.012339
v 0.074827 -0.076266 -0.011475
v -0.095420 -0.061577 -0.011475
v -0.095420 -0.083180 -0.001103
v 0.076562 -0.074541 -0.001103
v -0.092826 -0.082314 -0.008017
v 0.065313 -0.084042 -0.007151
v -0.000361 -0.088367 -0.001103
v 0.076562 -0.071084 -0.012339
v -0.077267 -0.077995 -0.010610
v -0.091968 -0.071949 -0.001103
v 0.076562 -0.084042 -0.001103
v 0.044584 -0.080588 -0.009746
v -0.092826 -0.063308 -0.012339
v -0.090233 -0.087499 -0.001103
v 0.078279 -0.061577 -0.010610
v -0.097137 -0.071949 -0.009746
v 0.012605 -0.073678 -0.012339
v -0.097137 -0.061577 -0.004561
v 0.073969 -0.072812 -0.001103
v 0.078279 -0.079723 -0.007151
v 0.028165 -0.086636 -0.004561
v 0.073110 -0.085771 -0.005426
v -0.089374 -0.087499 -0.002832
v -0.093685 -0.074541 -0.011475
v 0.070499 -0.088367 -0.001103
v 0.078279 -0.074541 -0.002832
v 0.027306 -0.078855 -0.010610
v 0.074827 -0.081451 -0.008881
v -0.096278 -0.075401 -0.001103
v -0.097137 -0.077129 -0.006291
v 0.006560 -0.085773 -0.005426
v 0.070499 -0.073678 -0.012339
v -0.094561 -0.082314 -0.007151
v -0.048758 -0.081451 -0.008881
v -0.000361 -0.088367 -0.001968
f 202 200 214 
f 175 174 178 
f 183 182 186 
f 179 176 187 
f 182 183 189 
f 183 186 190 
f 176 179 192 
f 181 176 192 
f 182 173 193 
f 186 182 193 
f 174 175 194 
f 176 174 194 
f 187 176 194 
f 179 187 196 
f 174 176 197 
f 178 174 197 
f 176 181 197 
f 181 195 197 
f 175 178 198 
f 183 175 198 
f 178 189 198 
f 189 183 198 
f 180 187 199 
f 187 194 199 
f 190 177 201 
f 199 190 201 
f 177 200 201 
f 193 173 202 
f 188 184 203 
f 192 179 203 
f 181 192 203 
f 195 181 203 
f 179 196 203 
f 196 188 203 
f 186 177 204 
f 177 190 204 
f 190 186 204 
f 175 183 205 
f 183 190 205 
f 194 175 205 
f 190 199 205 
f 199 194 205 
f 180 191 206 
f 196 180 206 
f 188 196 206 
f 191 180 207 
f 185 191 207 
f 180 199 207 
f 201 185 207 
f 199 201 207 
f 189 178 208 
f 182 189 208 
f 178 197 208 
f 208 197 209 
f 197 195 209 
f 182 208 209 
f 173 184 210 
f 184 185 210 
f 185 201 210 
f 201 200 210 
f 202 173 210 
f 200 202 210 
f 187 180 211 
f 196 187 211 
f 180 196 211 
f 173 182 212 
f 184 173 212 
f 203 184 212 
f 195 203 212 
f 182 209 212 
f 209 195 212 
f 185 184 213 
f 184 188 213 
f 191 185 213 
f 206 191 213 
f 188 206 213 
f 177 186 214 
f 186 193 214 
f 200 177 214 
f 193 202 214 
o convex_5
v 0.052358 -0.090094 0.006675
v 0.072241 -0.074539 -0.000239
v 0.075692 -0.075405 -0.000239
v -0.089365 -0.088364 -0.001101
v -0.084163 -0.082316 0.008402
v -0.094550 -0.074539 -0.001101
v 0.071366 -0.088364 -0.001102
v 0.065322 -0.083180 0.008402
v -0.084163 -0.088364 0.008402
v -0.047882 -0.090094 0.001491
v 0.064463 -0.088364 0.008402
v 0.072241 -0.074539 -0.001102
v -0.065172 -0.084045 0.009267
v -0.094550 -0.074539 -0.000238
v 0.062729 -0.081455 0.007538
v 0.064463 -0.090094 0.001491
v -0.059111 -0.090094 0.005810
v -0.093692 -0.084045 0.003218
v 0.073958 -0.084908 0.004082
v -0.082445 -0.086636 0.009267
v -0.086772 -0.089229 0.004946
v -0.084163 -0.080590 0.006675
v 0.076568 -0.083180 -0.001102
v 0.069648 -0.089229 0.004946
v -0.095426 -0.083180 -0.001101
v 0.069648 -0.089229 -0.000239
v -0.088506 -0.084045 0.007538
v 0.060995 -0.082316 0.008402
v -0.086772 -0.089229 0.000626
v -0.083321 -0.089229 0.007538
v 0.071366 -0.081455 0.005810
v -0.090223 -0.087501 0.004946
f 241 232 246 
f 223 215 225 
f 216 217 226 
f 220 216 226 
f 225 222 227 
f 216 220 228 
f 215 224 230 
f 224 215 231 
f 223 225 234 
f 227 219 234 
f 225 227 234 
f 216 228 236 
f 228 219 236 
f 229 216 236 
f 226 217 237 
f 221 226 237 
f 217 233 237 
f 237 233 238 
f 225 215 238 
f 215 230 238 
f 233 225 238 
f 221 237 238 
f 221 218 239 
f 220 226 239 
f 226 221 239 
f 228 220 239 
f 232 228 239 
f 218 221 240 
f 224 218 240 
f 230 224 240 
f 221 238 240 
f 238 230 240 
f 219 228 241 
f 228 232 241 
f 234 219 241 
f 223 234 241 
f 219 227 242 
f 227 222 242 
f 222 229 242 
f 236 219 242 
f 229 236 242 
f 218 224 243 
f 224 231 243 
f 235 218 243 
f 231 235 243 
f 215 223 244 
f 231 215 244 
f 223 235 244 
f 235 231 244 
f 217 216 245 
f 222 225 245 
f 216 229 245 
f 229 222 245 
f 233 217 245 
f 225 233 245 
f 218 235 246 
f 235 223 246 
f 239 218 246 
f 232 239 246 
f 223 241 246 
o convex_6
v -0.030606 -0.011448 0.003218
v -0.072090 -0.055524 0.009269
v -0.071221 -0.055524 0.004083
v -0.021097 -0.055519 0.011860
v -0.071221 -0.005398 0.016182
v -0.071221 -0.004535 0.003218
v -0.033201 -0.005398 0.016182
v -0.021097 -0.054656 0.003218
v -0.070358 -0.055524 0.012723
v -0.034933 -0.003667 0.003218
v -0.023692 -0.047743 0.013588
v -0.072090 -0.054656 0.003218
v -0.070358 -0.013174 0.016182
v -0.021097 -0.051199 0.011860
v -0.031474 -0.014042 0.016182
v -0.072090 -0.018362 0.014453
v -0.045301 -0.004535 0.015316
v -0.072090 -0.016636 0.003218
v -0.021097 -0.050331 0.003218
v -0.032338 -0.006261 0.014453
v -0.071221 -0.046017 0.013588
v -0.021965 -0.055519 0.004083
v -0.021965 -0.055519 0.012724
v -0.069489 -0.004535 0.010996
v -0.072090 -0.054656 0.012723
v -0.044437 -0.003667 0.005812
v -0.032338 -0.005398 0.003218
v -0.040983 -0.047737 0.013588
v -0.024556 -0.035646 0.004948
f 266 260 275 
f 252 247 254 
f 248 249 255 
f 249 250 255 
f 247 252 256 
f 249 248 258 
f 254 249 258 
f 252 254 258 
f 253 251 259 
f 250 254 260 
f 257 260 261 
f 253 259 261 
f 260 253 261 
f 258 248 262 
f 251 253 263 
f 253 256 263 
f 251 252 264 
f 252 258 264 
f 262 251 264 
f 258 262 264 
f 254 247 265 
f 260 254 265 
f 253 260 266 
f 250 249 268 
f 249 254 268 
f 254 250 268 
f 255 250 269 
f 257 255 269 
f 250 260 269 
f 260 257 269 
f 252 251 270 
f 251 263 270 
f 248 255 271 
f 259 251 271 
f 251 262 271 
f 262 248 271 
f 255 267 271 
f 267 259 271 
f 256 252 272 
f 263 256 272 
f 252 270 272 
f 270 263 272 
f 247 256 273 
f 256 253 273 
f 266 247 273 
f 253 266 273 
f 255 257 274 
f 257 261 274 
f 261 259 274 
f 267 255 274 
f 259 267 274 
f 265 247 275 
f 260 265 275 
f 247 266 275 
o convex_7
v 0.010887 -0.053795 0.003218
v 0.041989 -0.004531 0.010132
v 0.041989 -0.004531 0.003218
v 0.043723 -0.054652 0.006677
v -0.001210 -0.029597 0.014453
v 0.054958 -0.032186 0.014453
v 0.010025 -0.007125 0.003218
v 0.014344 -0.006262 0.016182
v 0.012615 -0.055520 0.012723
v 0.055825 -0.032186 0.003218
v -0.002082 -0.031323 0.003218
v 0.041127 -0.005399 0.016182
v 0.042856 -0.054652 0.012723
v 0.036802 -0.055520 0.003218
v 0.055825 -0.027871 0.011860
v 0.010025 -0.011450 0.016182
v 0.019531 -0.004531 0.003218
v -0.001210 -0.033912 0.013588
v 0.010887 -0.006262 0.014453
v 0.013477 -0.056388 0.003218
v -0.002082 -0.028734 0.006677
v 0.053229 -0.034774 0.014453
v 0.053229 -0.022683 0.003218
v 0.024712 -0.056388 0.011860
v 0.055825 -0.033049 0.012723
v 0.043723 -0.053795 0.003218
v 0.038537 -0.004531 0.015316
v 0.043723 -0.011450 0.016182
v 0.002242 -0.033912 0.014453
v 0.012615 -0.056388 0.011860
v 0.042856 -0.055520 0.010996
v 0.046313 -0.012313 0.015316
v 0.008291 -0.010587 0.015316
v 0.011754 -0.005399 0.009269
v 0.046313 -0.046008 0.013588
v -0.002082 -0.029597 0.012723
v 0.044585 -0.007993 0.004948
v 0.054958 -0.027871 0.014453
v -0.001210 -0.027008 0.003218
v -0.002082 -0.032181 0.004083
v 0.010025 -0.052927 0.011860
v 0.008291 -0.009724 0.005812
f 314 296 317 
f 278 276 282 
f 276 278 285 
f 282 276 286 
f 276 285 289 
f 287 283 291 
f 277 278 292 
f 278 282 292 
f 284 280 293 
f 276 289 295 
f 288 281 297 
f 285 278 298 
f 290 285 298 
f 288 284 299 
f 295 289 299 
f 279 285 300 
f 281 288 300 
f 285 290 300 
f 285 279 301 
f 289 285 301 
f 279 289 301 
f 287 277 302 
f 283 287 302 
f 277 292 302 
f 287 291 303 
f 297 281 303 
f 291 297 303 
f 280 284 304 
f 291 280 304 
f 276 295 305 
f 299 284 305 
f 295 299 305 
f 289 279 306 
f 288 299 306 
f 299 289 306 
f 279 300 306 
f 300 288 306 
f 277 287 307 
f 287 303 307 
f 280 291 308 
f 291 283 308 
f 283 294 308 
f 292 282 309 
f 282 294 309 
f 294 283 309 
f 283 302 309 
f 302 292 309 
f 284 288 310 
f 288 297 310 
f 297 291 310 
f 304 284 310 
f 291 304 310 
f 293 280 311 
f 296 286 311 
f 280 308 311 
f 308 296 311 
f 278 277 312 
f 298 278 312 
f 290 298 312 
f 277 307 312 
f 307 290 312 
f 281 300 313 
f 300 290 313 
f 303 281 313 
f 290 307 313 
f 307 303 313 
f 282 286 314 
f 286 296 314 
f 286 276 315 
f 293 311 315 
f 311 286 315 
f 284 293 316 
f 276 305 316 
f 305 284 316 
f 315 276 316 
f 293 315 316 
f 294 282 317 
f 308 294 317 
f 296 308 317 
f 282 314 317 
o convex_8
v -0.093697 -0.051187 -0.011475
v -0.085922 0.073255 0.008404
v -0.093697 0.073255 0.008404
v -0.088514 -0.061574 -0.001968
v -0.080733 0.066326 -0.001966
v -0.080733 -0.061574 -0.011475
v -0.095425 0.073255 -0.001104
v -0.097154 -0.061574 -0.004559
v -0.080733 -0.053774 -0.001968
v -0.080733 0.073255 0.007538
v -0.097154 0.073255 0.005810
v -0.097154 -0.061574 -0.008881
v -0.095425 -0.058103 -0.001968
v -0.088514 0.073255 -0.001966
v -0.080733 -0.020080 -0.008881
v -0.097154 0.071513 0.000624
v -0.095425 -0.058974 -0.011475
v -0.093697 0.018801 -0.006287
v -0.080733 0.065468 0.007538
v -0.080733 -0.061574 -0.002831
v -0.080733 0.073255 -0.001104
v -0.096288 0.064597 0.006672
v -0.096288 0.016214 -0.005423
v -0.091965 -0.052059 -0.001106
v -0.089373 0.008427 -0.007153
v -0.093697 0.073255 -0.001966
v -0.080733 -0.055503 -0.011475
v -0.089373 0.070655 0.008404
v -0.097154 -0.058103 -0.003695
v -0.097154 -0.050316 -0.008881
v -0.093697 0.071513 0.008404
v -0.089373 -0.052059 -0.001106
v -0.094560 -0.061574 -0.001968
v -0.095425 0.065468 0.007538
v -0.089373 -0.050316 -0.011475
v -0.095425 0.012756 -0.006287
f 324 343 353 
f 320 319 324 
f 323 321 325 
f 323 322 326 
f 324 319 327 
f 326 322 327 
f 320 324 328 
f 325 328 329 
f 323 325 329 
f 324 327 331 
f 322 323 332 
f 331 322 332 
f 328 324 333 
f 329 328 333 
f 318 323 334 
f 323 329 334 
f 327 319 336 
f 326 327 336 
f 321 323 337 
f 326 321 337 
f 323 326 337 
f 327 322 338 
f 322 331 338 
f 331 327 338 
f 333 324 340 
f 331 332 342 
f 318 335 342 
f 342 335 343 
f 324 331 343 
f 331 342 343 
f 323 318 344 
f 332 323 344 
f 319 320 345 
f 336 319 345 
f 328 325 346 
f 325 330 346 
f 339 328 346 
f 330 339 346 
f 329 333 347 
f 334 329 347 
f 333 340 347 
f 340 334 347 
f 345 320 348 
f 341 345 348 
f 321 326 349 
f 326 336 349 
f 341 321 349 
f 336 345 349 
f 345 341 349 
f 325 321 350 
f 330 325 350 
f 321 341 350 
f 341 348 350 
f 350 348 351 
f 320 328 351 
f 328 339 351 
f 339 330 351 
f 348 320 351 
f 330 350 351 
f 318 342 352 
f 342 332 352 
f 344 318 352 
f 332 344 352 
f 318 334 353 
f 335 318 353 
f 340 324 353 
f 334 340 353 
f 343 335 353 
o convex_9
v -0.021969 0.042134 0.008404
v -0.080733 0.001519 -0.006288
v -0.079862 0.011027 -0.007153
v -0.080733 0.073255 0.007539
v -0.013318 0.073255 -0.001103
v -0.013318 0.001519 -0.006288
v -0.055670 0.012761 0.008404
v -0.079004 0.070657 -0.002832
v -0.013318 0.073255 0.007539
v -0.013318 0.001519 0.001489
v -0.080733 0.001519 0.001487
v -0.016776 0.044725 -0.005424
v -0.072088 0.030042 0.008404
v -0.026285 0.023139 -0.007153
v -0.030607 0.017080 0.008404
v -0.053070 0.069786 0.008404
v -0.079004 0.021398 -0.007153
v -0.080733 0.073255 -0.001103
v -0.029743 0.065475 -0.003694
v -0.021969 0.030042 0.008404
v -0.048748 0.001519 -0.007153
v -0.078133 0.064604 -0.003694
v -0.042703 0.011897 0.008404
v -0.076404 0.001519 0.002352
v -0.067759 0.021398 0.008404
v -0.028014 0.063747 0.008404
v -0.080733 0.004981 0.002352
v -0.030607 0.001519 0.002352
v -0.069488 0.059422 0.008404
v -0.013318 0.005844 0.002354
v -0.080733 0.065475 0.007539
v -0.013318 0.011897 -0.006288
v -0.031472 0.070657 -0.002832
v -0.013318 0.067202 0.007539
v -0.015054 0.042134 -0.005424
v -0.030607 0.010163 -0.007153
v -0.026285 0.021398 0.008404
v -0.063444 0.017080 0.008404
v -0.080733 0.058558 -0.002832
f 371 361 392 
f 358 357 362 
f 359 358 362 
f 359 362 363 
f 355 359 363 
f 357 355 364 
f 355 363 364 
f 360 354 366 
f 354 360 368 
f 362 357 369 
f 366 354 369 
f 367 356 370 
f 355 357 371 
f 357 358 371 
f 358 361 371 
f 358 365 372 
f 362 354 373 
f 354 368 373 
f 355 356 374 
f 359 355 374 
f 356 367 374 
f 365 367 375 
f 370 361 375 
f 367 370 375 
f 361 372 375 
f 372 365 375 
f 368 360 376 
f 363 368 376 
f 364 363 377 
f 376 360 377 
f 360 366 378 
f 354 362 379 
f 369 354 379 
f 362 369 379 
f 357 364 380 
f 364 377 380 
f 378 366 380 
f 363 376 381 
f 377 363 381 
f 376 377 381 
f 357 366 382 
f 369 357 382 
f 366 369 382 
f 363 362 383 
f 366 357 384 
f 357 380 384 
f 380 366 384 
f 358 359 385 
f 359 367 385 
f 361 358 386 
f 358 372 386 
f 372 361 386 
f 362 373 387 
f 383 362 387 
f 373 383 387 
f 365 358 388 
f 367 365 388 
f 358 385 388 
f 385 367 388 
f 367 359 389 
f 359 374 389 
f 374 367 389 
f 368 363 390 
f 373 368 390 
f 363 383 390 
f 383 373 390 
f 377 360 391 
f 360 378 391 
f 380 377 391 
f 378 380 391 
f 356 355 392 
f 370 356 392 
f 361 370 392 
f 355 371 392 
o convex_10
v -0.013311 0.046462 -0.002831
v 0.079161 0.073255 0.004081
v 0.079161 0.073255 0.001491
v 0.079161 0.046462 0.002352
v -0.013311 0.073255 0.007538
v -0.000349 0.049056 0.007538
v -0.001209 0.068065 -0.003695
v 0.077423 0.046462 -0.003695
v 0.075694 0.063743 0.007538
v 0.076563 0.073255 -0.001967
v -0.013311 0.073255 -0.001102
v 0.059274 0.046462 0.006674
v -0.013311 0.046462 0.004946
v 0.054088 0.055972 -0.004561
v 0.029033 0.072389 0.008404
v 0.001380 0.046462 -0.004561
v 0.048041 0.058565 0.008404
v 0.077423 0.073255 0.007538
v 0.076563 0.046462 0.005810
v 0.010893 0.059428 0.008404
v 0.057545 0.048193 0.007538
v 0.046312 0.068065 -0.003695
v 0.000520 0.055109 -0.004561
v 0.060134 0.046462 -0.004561
v 0.075694 0.055972 -0.003695
v -0.002069 0.046462 0.006674
v -0.013311 0.047327 0.005809
v -0.013311 0.055109 -0.002831
v -0.013311 0.067204 0.007538
v 0.075694 0.067204 -0.002831
v -0.002069 0.070661 -0.002831
v 0.079161 0.052512 -0.001102
v 0.078292 0.048193 0.004946
v 0.078292 0.071524 -0.001102
f 424 400 426 
f 395 394 396 
f 394 395 397 
f 396 393 400 
f 397 395 402 
f 393 397 403 
f 397 402 403 
f 393 396 404 
f 397 393 405 
f 393 404 405 
f 400 393 408 
f 407 409 410 
f 394 397 410 
f 397 407 410 
f 409 401 410 
f 410 401 411 
f 404 396 411 
f 407 397 412 
f 398 409 412 
f 409 407 412 
f 409 398 413 
f 401 409 413 
f 411 401 413 
f 404 411 413 
f 406 399 414 
f 399 406 415 
f 408 393 415 
f 406 408 415 
f 400 408 416 
f 408 406 416 
f 400 416 417 
f 416 406 417 
f 405 404 418 
f 413 398 418 
f 404 413 418 
f 397 405 419 
f 418 398 419 
f 405 418 419 
f 393 403 420 
f 403 399 420 
f 415 393 420 
f 399 415 420 
f 412 397 421 
f 398 412 421 
f 397 419 421 
f 419 398 421 
f 402 400 422 
f 414 402 422 
f 406 414 422 
f 400 417 422 
f 417 406 422 
f 399 403 423 
f 403 402 423 
f 414 399 423 
f 402 414 423 
f 395 396 424 
f 396 400 424 
f 396 394 425 
f 394 410 425 
f 410 411 425 
f 411 396 425 
f 402 395 426 
f 400 402 426 
f 395 424 426 
o convex_11
v 0.021253 0.005843 0.003218
v 0.079161 0.046462 0.002352
v 0.079161 0.046462 -0.001103
v 0.079161 0.001519 -0.001103
v 0.021253 0.012755 -0.008018
v 0.021253 0.046462 0.004946
v 0.057553 0.037817 0.006675
v 0.077426 0.001519 -0.007153
v 0.058415 0.045591 -0.005425
v 0.021253 0.046462 -0.002831
v 0.076565 0.001519 0.002352
v 0.021253 0.001519 -0.006289
v 0.076565 0.046462 0.005811
v 0.075697 0.044733 -0.004559
v 0.022988 0.007572 0.004082
v 0.021253 0.001519 0.002353
v 0.075697 0.011892 -0.007153
v 0.057553 0.007572 0.004082
v 0.045457 0.012755 -0.008018
v 0.021253 0.044733 -0.003696
v 0.054090 0.046462 0.006675
v 0.024717 0.001519 -0.007153
v 0.021253 0.036946 0.004946
v 0.077426 0.046462 -0.003694
v 0.075697 0.008435 0.003216
v 0.078293 0.036946 0.004081
v 0.079161 0.004114 -0.004559
v 0.058415 0.035226 -0.006289
v 0.075697 0.041275 0.005811
v 0.043734 0.010164 -0.008018
v 0.055819 0.037817 0.006675
v 0.078293 0.029173 -0.004559
v 0.078293 0.004114 0.001487
f 452 437 459 
f 429 428 430 
f 428 429 432 
f 431 427 432 
f 432 429 436 
f 431 432 436 
f 434 430 437 
f 434 437 438 
f 427 431 438 
f 428 432 439 
f 438 437 442 
f 427 438 442 
f 441 427 442 
f 433 441 444 
f 442 437 444 
f 441 442 444 
f 443 434 445 
f 435 431 446 
f 431 436 446 
f 436 435 446 
f 439 432 447 
f 433 439 447 
f 434 438 448 
f 438 431 448 
f 432 427 449 
f 427 441 449 
f 447 432 449 
f 436 429 450 
f 435 436 450 
f 440 435 450 
f 434 443 450 
f 443 440 450 
f 433 444 451 
f 444 437 451 
f 430 428 452 
f 428 439 452 
f 439 437 452 
f 429 430 453 
f 430 434 453 
f 431 435 454 
f 435 440 454 
f 440 443 454 
f 445 431 454 
f 443 445 454 
f 439 433 455 
f 437 439 455 
f 433 451 455 
f 451 437 455 
f 431 445 456 
f 445 434 456 
f 448 431 456 
f 434 448 456 
f 441 433 457 
f 433 447 457 
f 449 441 457 
f 447 449 457 
f 450 429 458 
f 434 450 458 
f 429 453 458 
f 453 434 458 
f 437 430 459 
f 430 452 459 
o convex_12
v -0.079866 -0.002804 -0.008880
v -0.009861 0.001519 0.001488
v -0.009861 -0.005398 0.001488
v -0.009861 -0.061574 -0.011474
v -0.072082 -0.054657 0.003215
v -0.079866 -0.059839 -0.012336
v -0.076404 0.000654 0.003215
v -0.021100 -0.054657 0.003215
v -0.009861 0.000654 -0.007152
v -0.080733 -0.061574 -0.002833
v -0.021100 -0.033041 -0.011473
v -0.009861 -0.061574 -0.002834
v -0.080733 0.001519 -0.007152
v -0.031471 0.000654 0.003215
v -0.080733 0.001519 0.001487
v -0.078998 -0.046876 -0.012336
v -0.044437 -0.000210 -0.008880
v -0.026289 -0.045146 -0.012336
v -0.080733 -0.061574 -0.011473
v -0.028016 -0.009721 -0.009745
v -0.078138 -0.000210 -0.008880
v -0.047017 -0.055516 0.003215
v -0.009861 0.001519 -0.006287
v -0.042702 -0.059839 -0.012336
v -0.080733 -0.006269 0.001487
v -0.009861 -0.056386 -0.011474
v -0.047017 0.001519 -0.008017
v -0.021967 -0.020961 -0.010608
v -0.080733 -0.056386 -0.012336
v -0.074677 0.001519 0.003215
v -0.080733 -0.053786 -0.001969
f 484 469 490 
f 461 462 463 
f 462 461 467 
f 466 464 467 
f 461 463 468 
f 463 462 471 
f 462 467 471 
f 469 463 471 
f 467 461 473 
f 466 467 473 
f 461 472 474 
f 472 469 474 
f 465 475 477 
f 465 463 478 
f 463 469 478 
f 469 472 478 
f 476 468 479 
f 476 479 480 
f 460 472 480 
f 475 460 480 
f 467 464 481 
f 464 469 481 
f 471 467 481 
f 469 471 481 
f 461 468 482 
f 472 461 482 
f 463 465 483 
f 477 463 483 
f 465 477 483 
f 464 466 484 
f 466 474 484 
f 474 469 484 
f 468 463 485 
f 470 468 485 
f 463 477 485 
f 477 470 485 
f 468 476 486 
f 476 480 486 
f 480 472 486 
f 482 468 486 
f 472 482 486 
f 468 470 487 
f 470 477 487 
f 477 475 487 
f 479 468 487 
f 480 479 487 
f 475 480 487 
f 472 460 488 
f 460 475 488 
f 475 465 488 
f 465 478 488 
f 478 472 488 
f 473 461 489 
f 466 473 489 
f 474 466 489 
f 461 474 489 
f 469 464 490 
f 464 484 490 
o convex_13
v -0.009854 -0.020961 -0.008881
v 0.063596 0.001519 0.001488
v 0.046309 0.000654 0.003218
v 0.063596 -0.061574 -0.002834
v 0.012611 -0.055516 0.003218
v 0.046309 -0.059839 -0.013203
v 0.063596 0.001519 -0.007152
v -0.009854 0.001519 0.001487
v -0.009854 -0.061574 -0.011474
v 0.022118 -0.000210 -0.008881
v -0.009854 -0.061574 -0.002834
v 0.043720 -0.053786 0.003218
v 0.063596 -0.061574 -0.011474
v -0.008991 0.001519 -0.007153
v -0.000347 -0.033041 -0.011474
v 0.061008 -0.032177 -0.011474
v -0.002080 -0.031318 0.003218
v 0.055823 -0.032177 0.003218
v 0.010015 0.000654 0.003218
v 0.019529 -0.056386 -0.013203
v 0.046309 -0.000210 -0.008881
v 0.007426 -0.009721 -0.009746
v 0.062733 -0.031318 0.000624
v 0.003975 -0.044288 -0.012339
v 0.046309 -0.055516 -0.013203
v 0.052364 -0.009721 -0.009746
v 0.063596 -0.027872 -0.010609
v 0.035076 -0.055516 0.003218
v -0.009854 -0.005398 0.001487
v 0.000516 -0.020961 -0.010609
v -0.009854 0.000654 -0.007153
v -0.009854 -0.056386 -0.011474
v 0.013474 0.001519 0.003218
v 0.023851 -0.059839 -0.013203
f 499 510 524 
f 492 494 497 
f 492 497 498 
f 498 491 499 
f 494 495 501 
f 499 494 501 
f 498 499 501 
f 493 495 502 
f 497 494 503 
f 494 499 503 
f 499 496 503 
f 498 497 504 
f 495 493 507 
f 501 495 507 
f 492 493 508 
f 493 502 508 
f 502 494 508 
f 507 493 509 
f 498 507 509 
f 504 497 511 
f 500 504 511 
f 504 500 512 
f 500 511 512 
f 494 492 513 
f 492 508 513 
f 508 494 513 
f 510 499 514 
f 503 496 515 
f 506 503 515 
f 496 510 515 
f 510 514 515 
f 497 506 516 
f 511 497 516 
f 506 512 516 
f 512 511 516 
f 497 503 517 
f 506 497 517 
f 503 506 517 
f 495 494 518 
f 494 502 518 
f 502 495 518 
f 498 501 519 
f 507 498 519 
f 501 507 519 
f 512 506 520 
f 504 512 520 
f 514 505 520 
f 506 515 520 
f 515 514 520 
f 491 498 521 
f 498 504 521 
f 505 491 521 
f 504 520 521 
f 520 505 521 
f 499 491 522 
f 491 505 522 
f 514 499 522 
f 505 514 522 
f 493 492 523 
f 492 498 523 
f 509 493 523 
f 498 509 523 
f 496 499 524 
f 510 496 524 
o convex_14
v 0.078296 0.001519 0.000625
v 0.063603 -0.061574 -0.011473
v 0.069654 -0.061574 -0.012339
v 0.074839 -0.061574 -0.001968
v 0.063603 0.001519 0.001489
v 0.076567 -0.001940 -0.008017
v 0.063603 0.001519 -0.007153
v 0.078296 -0.061574 -0.010610
v 0.063603 -0.061574 -0.002833
v 0.074839 -0.003669 0.002354
v 0.078296 -0.061574 -0.003697
v 0.079161 0.001519 -0.004561
v 0.075702 -0.058980 -0.012339
v 0.071382 0.000654 -0.008017
v 0.063603 -0.006269 0.001489
v 0.063603 -0.027872 -0.009746
v 0.076567 -0.001075 0.002354
v 0.079161 -0.024420 -0.002833
v 0.070519 -0.060710 -0.001968
v 0.078296 -0.016632 -0.008017
v 0.071382 -0.003669 0.002354
v 0.071382 -0.058116 -0.012339
v 0.078296 -0.007998 0.000625
v 0.076567 -0.057251 -0.001968
v 0.077431 0.001519 -0.007153
f 536 544 549 
f 526 527 528 
f 529 525 531 
f 526 529 531 
f 528 527 532 
f 526 528 533 
f 529 526 533 
f 528 532 535 
f 531 525 536 
f 532 527 537 
f 530 537 538 
f 529 533 539 
f 527 526 540 
f 526 531 540 
f 531 538 540 
f 525 529 541 
f 534 528 541 
f 535 532 542 
f 536 525 542 
f 532 536 542 
f 533 528 543 
f 539 533 543 
f 536 532 544 
f 537 530 544 
f 532 537 544 
f 528 534 545 
f 529 539 545 
f 541 529 545 
f 534 541 545 
f 543 528 545 
f 539 543 545 
f 537 527 546 
f 538 537 546 
f 527 540 546 
f 540 538 546 
f 525 541 547 
f 535 542 547 
f 542 525 547 
f 528 535 548 
f 541 528 548 
f 547 541 548 
f 535 547 548 
f 531 536 549 
f 538 531 549 
f 530 538 549 
f 544 530 549 
o convex_15
v 0.002242 0.046462 0.006675
v -0.013318 0.001519 -0.006289
v 0.012610 0.011030 -0.008018
v 0.021253 0.001519 0.002353
v 0.021253 0.044733 -0.003696
v -0.013318 0.043862 -0.003696
v -0.013318 0.005843 0.002353
v 0.021253 0.046462 0.004946
v 0.021253 0.001519 -0.006289
v -0.013318 0.046462 0.004946
v 0.003968 0.044733 -0.005425
v -0.001217 0.008435 0.004082
v 0.021253 0.012755 -0.008018
v -0.013318 0.001519 0.001489
v -0.001217 0.039546 0.006675
v 0.002242 0.046462 -0.004560
v -0.013318 0.011892 -0.006289
v 0.021253 0.005843 0.003218
v 0.021253 0.036946 0.004946
v -0.013318 0.046462 -0.002831
v -0.013318 0.036946 0.004946
v 0.021253 0.046462 -0.002831
v 0.009152 0.023990 -0.007153
v 0.000512 0.039546 0.006675
f 568 550 573 
f 555 551 556 
f 553 554 557 
f 551 552 558 
f 553 551 558 
f 554 553 558 
f 555 556 559 
f 550 557 559 
f 558 552 562 
f 554 558 562 
f 560 554 562 
f 551 553 563 
f 556 551 563 
f 553 561 563 
f 561 556 563 
f 550 559 564 
f 559 557 565 
f 552 551 566 
f 551 555 566 
f 555 560 566 
f 553 557 567 
f 561 553 567 
f 557 550 568 
f 567 557 568 
f 555 559 569 
f 560 555 569 
f 559 565 569 
f 565 560 569 
f 559 556 570 
f 556 561 570 
f 564 559 570 
f 561 564 570 
f 557 554 571 
f 554 560 571 
f 565 557 571 
f 560 565 571 
f 562 552 572 
f 560 562 572 
f 552 566 572 
f 566 560 572 
f 550 564 573 
f 564 561 573 
f 561 567 573 
f 567 568 573 
