# https://github.com/mikedh/trimesh
v -0.94452822 0.07839821 0.51317322
v -0.94415665 0.11977682 0.35021204
v -0.94417977 0.03593601 0.34987965
v -0.86596024 -0.98131669 0.51391959
v -0.78811324 0.03592467 0.36694548
v -0.70860636 0.12147610 0.19356459
v -0.23450053 0.21889228 0.04330045
v -0.86531401 -0.98253351 0.42891741
v -0.78816825 0.12092103 0.36899772
v -0.63334316 -0.20071331 0.19265470
v -0.86597282 0.03331599 0.42750022
v -0.86703223 0.07561215 0.51357591
v -0.23458052 0.23451225 0.04335045
v -0.70924920 -0.19900303 0.35610735
v -0.78104562 0.19969933 0.43185574
v -0.86522931 0.12211381 0.42842671
v -0.78044516 -0.08509256 0.51119822
v -0.62520051 -0.19906774 0.32065043
v -0.62520051 -0.19906774 0.32455042
v -0.62911052 -0.19975773 0.31478983
v -0.68727803 0.19939008 0.43278107
v -0.62521052 -0.19907773 0.32846043
v -0.86529005 0.51501399 0.43083343
v -0.39568877 0.59174627 -0.39181694
v -0.86597162 0.51285744 0.51328892
v -0.33909270 -0.98410922 -0.66979641
v -0.78154683 -0.12159199 0.42923069
v -0.62350053 -0.19516774 0.29525793
v -0.78156346 -0.98089349 0.42793378
v -0.54469085 -0.27730256 0.19992776
v -0.72040826 -0.12078032 0.35086471
v -0.62350053 -0.19516774 0.35190043
v -0.63083184 -0.27747571 0.11455587
v -0.62466055 -0.19125775 0.35580042
v -0.62520051 -0.19906774 0.31284046
v -0.62529463 -0.19582015 0.35644689
v -0.70825475 -0.19824480 0.19311175
v -0.78104210 -0.97867334 0.51433349
v -0.39558232 0.59156841 0.20120499
v -0.39891183 -0.20048715 0.11174010
v -0.62520051 -0.19906774 0.32846043
v -0.62520051 -0.19906774 0.33237046
v -0.62520051 -0.19906774 0.30502045
v -0.62350053 -0.19516774 0.31893855
v -0.62520051 -0.19906774 0.30893043
v -0.62520051 0.19935226 0.37534046
v -0.70936435 0.17261669 0.34955516
v -0.62521052 -0.19907773 0.31284046
v -0.62521052 -0.19907773 0.30893043
v -0.62521052 -0.19907773 0.34018043
v -0.62521052 -0.19907773 0.33627045
v -0.62520051 -0.19906774 0.33627045
v -0.63074833 0.04275602 0.11484284
v -0.62521052 -0.19907773 0.32065043
v -0.62911052 -0.19975773 0.35190043
v -0.78726846 0.19940612 0.34972584
v -0.78127640 0.51289409 0.51284915
v -0.77814001 0.51075506 0.42980990
v -0.62521052 0.19936226 0.36752045
v -0.62521052 0.19936226 0.37143043
v -0.62520051 0.19935226 0.36752045
v -0.62520051 0.19935226 0.39877045
v -0.46867585 -0.90448266 -0.59135318
v -0.62520051 -0.19906774 0.34018043
v -0.62520051 -0.19906774 0.34799045
v -0.62492806 -0.17734429 0.35569543
v -0.62521052 -0.19907773 0.35190043
v -0.62520051 -0.19906774 0.35190043
v -0.62482053 0.07630852 0.43430543
v -0.62527823 -0.19910559 0.35204178
v -0.62218386 -0.03609711 0.26911774
v -0.23450053 0.21107227 0.04330045
v -0.62521052 -0.19907773 0.34799045
v -0.62520051 -0.19906774 0.34409046
v -0.62521052 -0.19907773 0.31674045
v -0.62520051 -0.19906774 0.31674045
v -0.62521052 -0.19907773 0.34409046
v -0.62350053 0.19545226 0.43002045
v -0.62520051 0.19935226 0.42221043
v -0.62521052 -0.19907773 0.33237046
v -0.62445879 0.19841193 0.43484691
v -0.63166225 -0.19894294 0.35642081
v -0.62497562 -0.11860567 0.43473762
v -0.62435532 -0.12243231 0.35751876
v -0.62521052 -0.19907773 0.30502045
v -0.62960607 -0.20076527 0.27896750
v -0.62268388 0.12039036 0.34135669
v -0.62520051 0.19935226 0.36362046
v -0.62350053 0.17787476 0.42025793
v -0.62520051 0.19935226 0.37143043
v -0.62911052 0.20004226 0.38656670
v -0.62350053 0.16615227 0.43002045
v -0.62521052 0.19936226 0.37534046
v -0.62521052 -0.19907773 0.32455042
v -0.47324723 -0.58251733 -0.66867602
v -0.57554585 -0.27842715 0.27894825
v -0.54448009 -0.03449404 0.20097557
v -0.62911052 0.20004226 0.40756294
v -0.62621635 0.06943897 0.19411011
v -0.62521052 0.19936226 0.36362046
v -0.53964555 0.03839941 0.11455830
v -0.62520051 0.19935226 0.35971043
v -0.62520051 0.19935226 0.39487046
v -0.62520051 0.19935226 0.40268043
v -0.62520051 0.19935226 0.40659046
v -0.62521052 0.19936226 0.40659046
v -0.62521052 0.19936226 0.41049045
v -0.62350053 0.19545226 0.36996543
v -0.62520051 0.19935226 0.41440043
v -0.62520051 0.19935226 0.35580042
v -0.62521052 0.19936226 0.35971043
v -0.62521052 0.19936226 0.38315043
v -0.62878478 0.20000365 0.43085265
v -0.62520051 0.19935226 0.38315043
v -0.62521052 0.19936226 0.38705042
v -0.62520051 0.19935226 0.41049045
v -0.62521052 0.19936226 0.37924045
v -0.62520051 0.19935226 0.37924045
v -0.62521052 0.19936226 0.41440043
v -0.62521052 0.19936226 0.41830042
v -0.62396359 0.19421856 0.43399122
v -0.62521052 0.19936226 0.39096043
v -0.62520051 0.19935226 0.38705042
v -0.62520051 0.19935226 0.39096043
v -0.62911052 0.20004226 0.35580042
v -0.62521052 0.19936226 0.39487046
v -0.62350053 0.19545226 0.39755294
v -0.62608719 0.19911598 0.35014880
v -0.62521052 0.19936226 0.39877045
v -0.62521052 0.19936226 0.42221043
v -0.62520051 0.19935226 0.41830042
v -0.62521052 0.19936226 0.40268043
v -0.62521052 0.19936226 0.42612046
v -0.62521052 0.19936226 0.43002045
v -0.62520051 0.19935226 0.42612046
v -0.55233586 -0.03597776 0.03611164
v -0.55290234 -0.20013829 0.08777943
v -0.54587764 -0.03636891 0.27788973
v -0.39603403 0.59118754 -0.06566919
v -0.44283766 -0.90434045 -0.66915369
v -0.39607054 0.13505319 -0.58362639
v -0.39780688 -0.90466410 -0.58418196
v -0.47369996 0.12114210 -0.58544326
v -0.47266436 0.12137320 -0.66804802
v -0.39598420 0.66131848 -0.35595748
v -0.39740035 -0.27754438 0.20012289
v -0.23271400 -0.74840266 -0.66950756
v -0.39663059 0.04327966 0.20008986
v -0.31978679 -0.98326772 0.66830045
v -0.20522901 -0.74851692 -0.59180433
v -0.39885253 -0.00566898 0.10978129
v -0.37844270 -0.98360735 0.67025799
v -0.15427125 -0.74791306 -0.66972297
v -0.15352197 -0.65267622 -0.66972417
v -0.15750250 -0.59263963 -0.67034042
v -0.31710097 0.20116086 -0.59103739
v -0.15351480 -0.63377166 -0.66936278
v -0.39597860 0.27738374 0.58900297
v -0.37202972 -0.24153073 -0.66994101
v -0.31149495 -0.98362154 -0.59137809
v -0.39560902 -0.98257959 0.66989255
v -0.23458052 0.23060226 0.04335045
v -0.23450053 0.23060226 0.04330045
v -0.23458052 0.33607227 0.04335045
v -0.23450053 0.33217227 0.04330045
v -0.23450053 0.33607227 0.04330045
v -0.23126201 -0.98027235 0.67063534
v -0.27965900 -0.98027152 0.67063612
v -0.39659303 -0.86899525 -0.58194703
v -0.39579937 -0.98194075 -0.57265842
v -0.07524720 -0.59125060 -0.66847175
v -0.23458052 0.26576227 0.04335045
v -0.23458052 0.26185226 0.04335045
v -0.23450053 0.26185226 0.04330045
v -0.31753492 0.12132073 -0.66938382
v -0.23450053 0.26576227 0.04330045
v -0.16006708 0.20073120 0.50648063
v -0.23450053 0.25404227 0.04330045
v -0.23450053 0.25795227 0.04330045
v -0.23152405 -0.90476996 -0.59186423
v 0.00412140 -0.27862209 -0.59203583
v -0.23458052 0.21107227 0.04335045
v -0.31767872 0.74719507 -0.59086549
v -0.39572662 -0.44861877 0.66964453
v -0.27113000 -0.90479660 -0.66935468
v -0.30781928 -0.91008598 -0.59136927
v -0.31861803 0.20094135 -0.51444310
v -0.39539450 0.20019390 -0.51170129
v -0.23849054 0.46839976 0.04344045
v -0.39630052 -0.81040025 -0.58168954
v -0.30997595 0.59240925 0.27092770
v -0.30666438 0.56416142 0.58135420
v -0.23458052 0.35170227 0.04335045
v -0.23458052 0.34779227 0.04335045
v -0.23450053 0.34779227 0.04330045
v -0.30970225 0.51404405 0.04045579
v -0.23458052 0.30873227 0.04335045
v -0.23450053 0.30482227 0.04330045
v -0.23450053 0.30873227 0.04330045
v -0.23450053 0.37514228 0.04330045
v -0.23458052 0.37514228 0.04335045
v -0.23450053 0.37123227 0.04330045
v -0.23458052 0.29310226 0.04335045
v -0.23450053 0.32435226 0.04330045
v -0.23450053 0.32826227 0.04330045
v -0.31880349 0.27970013 0.67032725
v -0.23450053 0.29701227 0.04330045
v -0.31843477 0.12222384 -0.59206527
v -0.23450053 0.20717227 0.04330045
v -0.31046695 0.59164608 0.20077120
v -0.39634520 -0.20048462 0.03572813
v -0.23088789 0.20089801 -0.50446463
v -0.31008735 0.59191316 -0.04311452
v -0.31039682 0.51032948 0.04359366
v -0.23458052 0.23842227 0.04335045
v -0.23450053 0.23451225 0.04330045
v -0.23450053 0.23842227 0.04330045
v -0.39567491 0.67061812 -0.19172412
v -0.31899509 0.74861264 -0.51401699
v -0.39581352 0.66958177 -0.01624792
v -0.23458052 0.36342227 0.04335045
v -0.23458052 0.35951227 0.04335045
v -0.23450053 0.35951227 0.04330045
v -0.39603969 0.59206402 0.27116808
v -0.39544970 0.66956657 0.19957310
v -0.39586455 0.67013347 0.12119357
v -0.31255189 0.66731942 0.19879346
v -0.23458052 0.21889228 0.04335045
v -0.23458052 0.22279227 0.04335045
v -0.30916220 0.20023702 0.58373827
v -0.31848446 0.59271467 -0.35732543
v -0.23174085 0.59178460 0.59305906
v -0.23458052 0.43764228 0.04335045
v -0.23458052 0.44154227 0.04335045
v -0.23450053 0.43764228 0.04330045
v -0.23150054 0.38978475 0.03940045
v -0.23458052 0.28139228 0.04335045
v -0.23458052 0.28529227 0.04335045
v -0.23450053 0.28139228 0.04330045
v -0.23518713 0.67161381 0.59126723
v -0.31013316 0.67039096 0.12109943
v -0.33942786 0.67041343 -0.11366000
v -0.39545545 0.66339529 -0.42734125
v -0.39545321 0.74778461 -0.19285595
v -0.39536831 0.74785018 0.35025534
v -0.39558396 0.67050630 0.32336736
v -0.34220964 0.67057490 0.18834287
v -0.23207036 0.20007159 0.04411896
v -0.39565814 0.74756128 -0.51254797
v 0.07465097 0.86571658 0.59200609
v -0.23450053 0.28920227 0.04330045
v -0.23450053 0.29310226 0.04330045
v -0.30954877 0.59254038 -0.26986086
v -0.21755256 -0.98326772 0.66830045
v -0.23458052 0.27748227 0.04335045
v -0.23458052 0.21498226 0.04335045
v -0.23450053 0.21498226 0.04330045
v -0.39611053 -0.77133775 -0.57777953
v -0.23150054 0.29896602 0.03940045
v -0.14509235 -0.98026901 0.67063791
v -0.23266351 0.51168102 -0.19061156
v -0.23450053 0.32045227 0.04330045
v -0.31687266 0.66265345 -0.39234713
v -0.39527652 0.74738306 0.12134618
v -0.39656928 -0.03545969 0.03534761
v -0.23450053 0.35170227 0.04330045
v -0.23150054 0.41419977 0.03940045
v -0.23849054 0.35267600 0.04344045
v -0.23450053 0.44545227 0.04330045
v -0.30731261 0.20208725 0.04896153
v -0.23450053 0.28529227 0.04330045
v -0.23458052 0.33217227 0.04335045
v -0.23458052 0.38685226 0.04335045
v -0.23458052 0.27357227 0.04335045
v -0.23450053 0.27357227 0.04330045
v -0.30815279 0.56471658 -0.18389738
v -0.32050458 0.28227311 0.59128481
v -0.23450053 0.35560226 0.04330045
v -0.31028116 0.59224755 -0.11339142
v -0.30992916 0.58414322 0.50578111
v -0.23072883 0.20113054 -0.00730656
v -0.31839812 0.59271252 -0.42706332
v -0.31691086 0.59168464 0.67001820
v -0.30915049 0.67307103 -0.29699826
v -0.30969530 0.74833465 0.50475353
v -0.31076416 0.69595331 -0.19185531
v -0.23458052 0.35560226 0.04335045
v -0.31001884 0.74805200 0.07889416
v -0.23450053 0.22279227 0.04330045
v -0.23450053 0.22670226 0.04330045
v -0.31250298 0.67013377 0.29893643
v -0.27112314 0.74878597 -0.34877741
v -0.39338911 0.74937052 0.03682704
v -0.23458052 0.33998227 0.04335045
v -0.23450053 0.33998227 0.04330045
v -0.23458052 0.44935226 0.04335045
v -0.23450053 0.44935226 0.04330045
v -0.16114061 0.20061076 0.58329844
v -0.39619622 -0.72001511 -0.58202237
v -0.15254679 -0.59221768 -0.59174871
v -0.39805076 -0.76518875 -0.58301342
v -0.23458052 0.32435226 0.04335045
v -0.23150054 0.35829225 0.03940045
v -0.23458052 0.32045227 0.04335045
v -0.23458052 0.22670226 0.04335045
v -0.23450053 0.36342227 0.04330045
v -0.23849054 0.32948413 0.04344045
v -0.07508346 -0.43553206 -0.66974998
v -0.27169052 0.27247664 0.04344045
v -0.23450053 0.25014228 0.04330045
v -0.23450053 0.27748227 0.04330045
v -0.23150054 0.32728475 0.03940045
v -0.23458052 0.36732227 0.04335045
v -0.23458052 0.41810226 0.04335045
v -0.23458052 0.37123227 0.04335045
v -0.23450053 0.36732227 0.04330045
v -0.23150054 0.22425853 0.03940045
v -0.23450053 0.31654227 0.04330045
v -0.23314047 0.51271051 0.04283992
v -0.23450053 0.37904227 0.04330045
v -0.23450053 0.38295227 0.04330045
v -0.31098706 0.67066622 0.01631276
v -0.31023723 0.74763560 0.35012153
v -0.23458052 0.40639228 0.04335045
v -0.23864943 0.50647902 0.50690055
v -0.23969832 0.56416696 0.58409023
v -0.31868124 0.59244782 0.59259331
v -0.23450053 0.44154227 0.04330045
v -0.23911364 0.58570319 0.50659668
v -0.23238733 0.66950423 -0.27134416
v -0.23111801 0.58979458 -0.21847101
v -0.23458052 0.41029227 0.04335045
v -0.39539802 0.74894577 0.59174860
v -0.23458052 0.47279227 0.04335045
v -0.23450053 0.46889228 0.04330045
v -0.23450053 0.47279227 0.04330045
v -0.23150054 0.45228726 0.03940045
v -0.23450053 0.46107227 0.04330045
v -0.23450053 0.39857227 0.04330045
v -0.23450053 0.40248227 0.04330045
v -0.23450053 0.45326227 0.04330045
v -0.23450053 0.45717227 0.04330045
v -0.15279774 -0.59224343 -0.59279317
v -0.23450053 0.41810226 0.04330045
v -0.23450053 0.42201227 0.04330045
v -0.23450053 0.24623226 0.04330045
v -0.15346161 0.51288050 0.59452558
v -0.23450053 0.31264228 0.04330045
v -0.23450053 0.39076227 0.04330045
v -0.23450053 0.39467227 0.04330045
v -0.23450053 0.30092227 0.04330045
v -0.23458052 0.31654227 0.04335045
v -0.23450053 0.34389228 0.04330045
v -0.23458052 0.32826227 0.04335045
v -0.23458052 0.47670227 0.04335045
v -0.23458052 0.38295227 0.04335045
v -0.23458052 0.37904227 0.04335045
v -0.23849054 0.37660351 0.04344045
v -0.23450053 0.42592227 0.04330045
v -0.23450053 0.41029227 0.04330045
v -0.23450053 0.41420227 0.04330045
v -0.23849054 0.42542976 0.04344045
v -0.23458052 0.43373227 0.04335045
v -0.23450053 0.43373227 0.04330045
v -0.23156801 0.51295042 0.67062628
v -0.23458052 0.45326227 0.04335045
v -0.23849054 0.44740352 0.04344045
v -0.23458052 0.46889228 0.04335045
v -0.23150054 0.48573288 0.03940045
v -0.23150291 0.72842199 0.50608021
v -0.39596838 -0.98387605 -0.14715305
v -0.23458052 0.42982227 0.04335045
v -0.23458052 0.25014228 0.04335045
v -0.23458052 0.24623226 0.04335045
v -0.23458052 0.25795227 0.04335045
v -0.16041768 0.50531602 0.50602233
v -0.23458052 0.26967227 0.04335045
v -0.23450053 0.26967227 0.04330045
v -0.23458052 0.25404227 0.04335045
v -0.23458052 0.30482227 0.04335045
v -0.23458052 0.28920227 0.04335045
v -0.39495534 0.27572626 0.67048806
v -0.23458052 0.24232227 0.04335045
v -0.23150054 0.26405415 0.03940045
v -0.23450053 0.24232227 0.04330045
v -0.23458052 0.30092227 0.04335045
v -0.23458052 0.40248227 0.04335045
v -0.23458052 0.39857227 0.04335045
v -0.23458052 0.39467227 0.04335045
v -0.23458052 0.29701227 0.04335045
v -0.23458052 0.31264228 0.04335045
v -0.23450053 0.38685226 0.04330045
v -0.23458052 0.34389228 0.04335045
v -0.23458052 0.41420227 0.04335045
v -0.23849054 0.39710975 0.04344045
v -0.23450053 0.40639228 0.04330045
v -0.23458052 0.46107227 0.04335045
v -0.23450053 0.42982227 0.04330045
v -0.23450053 0.46498227 0.04330045
v -0.23458052 0.42592227 0.04335045
v -0.23458052 0.39076227 0.04335045
v -0.23458052 0.45717227 0.04335045
v -0.31552735 0.20051336 -0.66864991
v -0.23458052 0.42201227 0.04335045
v -0.15502630 0.51299667 0.66894931
v -0.23458052 0.44545227 0.04335045
v -0.23161858 0.51440132 0.59282523
v -0.23458052 0.46498227 0.04335045
v -0.00473661 0.20066720 -0.50586927
v 0.08151994 -0.27729943 -0.66933304
v -0.23245409 0.59142905 0.66990131
v -0.07585731 -0.59107840 -0.66890562
v -0.23179978 0.67049801 -0.34871733
v -0.15715674 0.66804785 0.50635362
v -0.07524643 0.66949224 -0.50588667
v -0.23158868 0.74850225 -0.50521064
v -0.23019464 0.74794364 0.58795434
v -0.09496351 0.58987504 0.59100139
v 0.00229503 0.20107539 -0.59157526
v -0.15313260 0.67060387 -0.59136194
v -0.16194840 0.50540829 0.58396292
v -0.15379076 0.66955346 0.59162498
v -0.15419099 0.74827158 -0.59082878
v -0.15769792 0.70375049 -0.50708967
v -0.01102880 0.74959993 0.50670105
v 0.00281847 -0.43425408 -0.66828823
v -0.15325527 -0.59113181 -0.66978675
v -0.15264368 0.20061433 0.59272087
v -0.08950772 -0.98370159 0.66787708
v 0.10889394 -0.04361001 -0.59206486
v -0.39632413 -0.54879695 -0.58235794
v -0.07477284 0.59109461 -0.59137172
v -0.12919442 0.59159213 0.50686085
v 0.08145388 -0.04272855 -0.66955811
v -0.05101120 0.59089953 -0.50570524
v -0.08174117 0.74449223 0.51411110
v -0.07584522 0.66964316 -0.59087527
v -0.00358852 0.74811578 -0.50589204
v -0.08152648 0.74659801 0.59122878
v 0.12393086 0.82463479 -0.58942956
v 0.00804689 -0.98342872 -0.58839697
v -0.05057479 -0.98228192 -0.59132785
v 0.00253292 -0.27768138 -0.66992527
v -0.07457509 -0.59076285 -0.59184122
v -0.00396304 0.51338202 -0.50405276
v 0.07426069 0.74900186 -0.50593346
v -0.00433470 0.80040967 0.59185326
v 0.15374444 0.90464646 -0.59133464
v 0.04876345 0.82812196 0.50609773
v 0.15285656 0.98561007 0.57114226
v 0.15328117 0.89626354 -0.59077048
v 0.15238884 0.90528393 0.59208417
v 0.08185948 -0.27838853 -0.59209043
v 0.00441713 0.50459707 -0.51493847
v 0.06150713 0.50671053 -0.59054589
v -0.39669123 -0.27827385 0.11492324
v 0.07432240 0.51328212 -0.42718691
v 0.08215365 0.50654322 -0.51359558
v 0.08184336 0.66221917 -0.59024209
v -0.00344141 0.20026644 -0.42693523
v 0.00394313 0.20058668 -0.51375496
v 0.00004437 0.20122555 0.59315115
v -0.00338252 0.51283294 -0.42847821
v 0.07497184 0.82584333 -0.50561422
v -0.05670461 -0.98297954 0.67042714
v 0.07377183 0.51421362 -0.50505847
v 0.12645139 0.67052972 -0.50494593
v 0.08271991 0.66212636 -0.51342279
v -0.00370174 0.59098440 -0.59122503
v 0.10062806 0.67005247 -0.42709458
v 0.15328258 0.90496236 -0.50670189
v 0.15300475 0.82862896 -0.59116888
v 0.16104111 0.03466875 -0.66889316
v 0.16112389 0.03462065 -0.59216160
v 0.15963250 -0.04198998 -0.66946125
v 0.10579389 -0.98026878 -0.59155488
v 0.04813483 0.74817431 -0.59130299
v 0.15556878 -0.98347658 0.67056549
v 0.15311466 0.20056051 -0.59192824
v 0.15388557 0.20230649 -0.51481873
v 0.15195052 0.51381850 0.50507200
v 0.31566662 0.35001931 0.42930141
v 0.15403731 0.51252258 0.42989779
v 0.15346406 0.74803042 -0.42719480
v 0.15995540 0.70681047 -0.58996278
v 0.15308699 0.75029826 -0.50495124
v 0.11676025 0.90496373 0.50832820
v 0.16205911 0.66303241 -0.51350534
v 0.15259376 0.43489152 -0.51373535
v 0.15348375 0.34970093 0.42822787
v 0.14396389 -0.71948749 -0.59156299
v 0.15332443 0.82691652 -0.50557876
v 0.14540371 -0.98335910 -0.58835334
v 0.15284124 0.34961066 0.50593615
v 0.31208411 -0.98026484 -0.59155804
v 0.31651109 0.98228776 0.59175336
v 0.47305584 0.20011035 -0.42664391
v 0.15335888 0.43437850 -0.59135389
v 0.16113186 0.74077195 -0.51440114
v 0.31679457 0.43377671 -0.59015721
v 0.19753698 0.98977149 0.50507838
v 0.22685245 -0.98027962 -0.59154719
v 0.38839078 0.50637835 -0.59093136
v 0.42936260 -0.98369926 -0.58970183
v 0.29299790 -0.98306775 -0.58949953
v 0.24810289 -0.98374486 -0.50086129
v 0.31764150 0.70967418 -0.50518972
v 0.31008840 0.66350573 -0.59063649
v 0.31642136 0.51310176 0.42845330
v 0.30939555 0.68871820 -0.51436287
v 0.31666049 0.90492558 -0.50632024
v 0.38841516 -0.27720648 -0.66922325
v 0.30921537 0.00957930 -0.59134567
v 0.34930843 -0.98306537 -0.59129322
v 0.31668258 0.74806219 -0.42767370
v 0.31067321 -0.02184749 -0.67023003
v 0.38767147 0.19971381 -0.66883129
v 0.62475300 0.51290417 0.66966176
v 0.62330610 0.59195405 0.59148008
v 0.71187967 0.52983022 0.50529945
v 0.31716460 0.67012393 -0.42812201
v 0.30906269 0.74144256 -0.59131604
v 0.31704685 0.82698244 -0.50612640
v 0.36547142 0.90557158 0.50698930
v 0.36456931 0.82518244 -0.59653646
v 0.31549704 0.90462703 -0.59030896
v 0.31766567 0.90572649 0.59126145
v 0.00403861 -0.43135467 -0.59162617
v -0.15303023 0.20003255 0.67060572
v 0.31680492 0.20027076 -0.59084666
v 0.22830020 -0.98374826 0.60234797
v 0.62349087 -0.59150940 -0.66962957
v 0.31852576 0.20056491 -0.51399940
v 0.47755587 0.49009392 -0.42807335
v 0.62253857 0.20115681 0.59285390
v 0.77866805 0.20092352 0.35860738
v 0.31697953 0.43521091 -0.51332271
v 0.31720960 0.98332554 0.50819266
v 0.24483730 0.74559277 0.59227860
v 0.38755634 0.50705099 -0.51305395
v 0.31620139 0.90592700 0.59167856
v 0.39512366 0.90425009 0.59145361
v -0.07151590 -0.43651131 -0.59158486
v 0.31759563 0.34873366 0.50468767
v 0.46692947 -0.43325979 -0.66939145
v 0.38759252 -0.04325858 -0.59195644
v 0.36376411 0.72530794 0.59224045
v 0.39682013 0.67063975 -0.43040225
v 0.46546274 0.20050794 -0.51376909
v 0.38651311 0.66283566 -0.59099412
v 0.55182534 0.59188783 0.59160650
v 0.70263237 0.61411458 0.59260863
v 0.38744357 0.66205180 -0.51377338
v 0.57119799 0.58793426 0.50689310
v 0.39507121 0.75889802 -0.50246441
v 0.42107636 0.82676435 0.58911628
v 0.39503273 0.67011189 -0.50496334
v 0.77908725 -0.90569180 -0.59199280
v 0.86576861 -0.62251532 0.66992682
v 0.86526972 -0.23568659 0.67040479
v 0.39635184 0.51373911 -0.42714295
v 0.48057580 0.19999087 -0.50942332
v 0.48615098 0.44454026 0.59220898
v 0.39734372 0.51457763 -0.50367779
v 0.45059192 0.74900228 -0.59219384
v 0.39519930 0.82732648 0.50629729
v 0.39526558 0.82659602 -0.50721645
v 0.39442953 0.90365565 0.59203577
v 0.44590196 -0.98241466 -0.59144527
v 0.70058233 -0.85443240 -0.59193027
v 0.94261163 -0.33982420 -0.58505124
v 0.38804689 -0.27728677 -0.59204614
v 0.39789206 -0.98297215 0.67057407
v 0.54545426 -0.59008491 -0.66945606
v 0.69881755 0.20047016 -0.26837039
v 0.47167382 0.74541569 -0.50636691
v 0.46706232 0.20059043 -0.59160483
v 0.55412382 -0.98027414 -0.59155124
v 0.58546412 -0.98375261 -0.49440491
v 0.52720678 -0.44768012 -0.59209681
v 0.69070011 0.20055285 -0.50089407
v 0.31745183 0.51424998 0.50535619
v 0.47399771 0.51336950 -0.50487381
v 0.47333625 0.82516807 0.50756782
v 0.46616754 0.50483137 -0.51477242
v 0.47320819 0.59192497 -0.50571078
v 0.55097950 0.74764228 0.53988421
v 0.47402728 -0.98315400 -0.58901078
v 0.62303519 -0.74890059 -0.59157908
v 0.47443891 0.74853837 0.50614059
v 0.78627193 0.19882034 -0.66864181
v 0.54514128 0.59127057 -0.50606608
v 0.49123004 0.74719244 0.59796131
v 0.55056947 0.74811226 0.57504296
v 0.62352639 -0.74752861 -0.66910362
v 0.53452355 -0.61664730 -0.59167767
v 0.86608928 -0.01057393 0.45893615
v 0.63067806 0.50562680 0.50765872
v 0.38861030 -0.04288632 -0.67006689
v 0.46972719 0.54897213 -0.59125906
v 0.55160779 0.74890816 0.50659811
v 0.55169827 0.74687523 0.59151971
v 0.54550540 -0.59136164 -0.59189069
v 0.62281138 0.19901711 0.66999292
v 0.78687245 0.20150092 -0.59034830
v 0.86593324 -0.98369426 0.07486203
v 0.70219254 0.59076369 0.66987455
v 0.86599952 -0.98366350 0.28755844
v 0.86650163 -0.90472043 -0.58329177
v 0.55072701 0.74773335 0.59171420
v 0.54551393 0.61154509 -0.59131020
v 0.54528624 0.66939944 -0.50563139
v 0.64936471 0.66966015 0.50653255
v 0.55148447 0.63868916 0.59021294
v 0.55138695 0.66566473 0.58989793
v 0.86553514 -0.98355138 -0.35840783
v 0.78557795 0.28005028 0.67048174
v 0.62123322 -0.59270710 -0.59292537
v 0.62380612 0.74768436 -0.59029561
v 0.62931496 0.19972333 0.50519586
v 0.70107192 0.59015375 0.59263599
v 0.54585415 -0.43409875 -0.67013109
v 0.46490195 -0.27862871 -0.59257823
v 0.60226262 -0.98306775 -0.58949953
v 0.86547983 -0.98335004 0.67019784
v 0.62240684 0.51226097 0.59235227
v 0.62355840 0.67003977 -0.59198391
v 0.62378842 0.66999912 0.59110177
v 0.77849090 0.20100348 0.04424938
v 0.62310815 0.67021501 -0.50608039
v 0.70009947 -0.78403270 -0.59248453
v 0.70101583 -0.74907804 -0.59289229
v 0.70397693 -0.94229686 -0.59541726
v 0.94279045 -0.32319403 -0.66893846
v 0.63118315 0.20036583 0.58271551
v 0.70197642 0.59157741 -0.19249964
v 0.86557597 0.02394389 0.66930032
v 0.86576825 0.19928814 -0.59078467
v 0.63254839 0.50512689 0.58329111
v 0.70143521 0.51342320 0.66972566
v 0.70088118 0.51410270 0.59287798
v 0.70888197 0.50591922 0.58385575
v 0.62394220 0.74912447 -0.50672442
v 0.86607736 0.58983612 -0.04024711
v 0.69966620 0.74712270 -0.50445670
v 0.77891171 0.58597803 0.50518525
v 0.70406771 0.50910819 0.04606945
v 0.70042241 0.20295225 -0.33635125
v 0.78053868 0.66944259 -0.11396726
v 0.78024256 0.66919935 0.27208337
v 0.78649616 0.59117734 0.66939360
v 0.70264190 0.74847496 -0.34992042
v 0.70201671 0.66958487 -0.29728302
v 0.70177662 0.59210920 -0.27008614
v 0.70216340 0.74708062 0.59157115
v 0.78836566 0.66207767 -0.35660008
v 0.70200276 -0.90454555 -0.66874254
v 0.86618280 -0.90523320 -0.66962880
v 0.65530461 -0.74953723 -0.59112948
v 0.70878333 -0.74870306 -0.66565406
v 0.94338870 0.11887744 -0.58463991
v 0.78156346 0.67091626 0.12328326
v 0.77970952 0.51301175 0.04410207
v 0.77913392 0.59625393 -0.24808986
v 0.70121306 0.20073168 0.04223875
v 0.78027129 -0.94753623 -0.66916692
v 0.86549914 -0.98263699 -0.66949207
v 0.86615521 -0.37049419 -0.58268666
v 0.86561269 0.20300660 -0.51215029
v 0.78968161 0.74835455 -0.51426119
v 0.78891730 0.27902034 0.59244740
v 0.78042102 0.59025389 -0.05271171
v 0.78826129 0.12254742 -0.59187651
v 0.70170105 0.51347375 -0.19187292
v 0.78746599 0.74395698 -0.58990890
v 0.77890503 0.51569772 -0.19131348
v 0.78751576 0.59154111 0.59268755
v 0.78817254 0.66202521 -0.42647526
v 0.80838907 0.66902578 0.19893734
v 0.78015333 0.67072320 0.34956795
v 0.86583030 0.59199595 -0.42725164
v 0.70922124 0.58139163 0.58281654
v 0.70164740 0.55829585 -0.50366199
v 0.78020322 0.66998315 -0.19251567
v 0.86306947 0.62123227 -0.04265955
v 0.86306947 0.62514228 -0.04265955
v 0.86312950 0.62123227 -0.04261955
v 0.78043997 0.74643499 -0.19298542
v 0.78047276 0.74824685 -0.34835377
v 0.94251150 -0.89856964 -0.58446234
v 0.78779191 0.59263241 -0.39169505
v 0.78058112 0.67058092 0.03595818
v 0.77980882 0.74797124 0.50599039
v 0.70250082 0.74835092 0.50658172
v 0.78026301 -0.98328298 -0.59074402
v 0.94245464 0.11885392 -0.66970342
v 0.79014188 0.20931348 -0.51530558
v 0.70141953 0.46271071 -0.33318809
v 0.86480647 0.27594799 0.66855055
v 0.86578959 0.27845463 0.59189636
v 0.86609459 0.58773625 -0.11458547
v 0.86595887 0.59256142 0.19953310
v 0.86442250 0.74775088 0.59007305
v 0.77845126 0.58104455 0.58611077
v 0.86470634 0.74832731 -0.19228330
v 0.86518890 0.63686824 -0.04049264
v 0.86397827 0.67057139 -0.11307146
v 0.79492289 0.13044865 -0.66832632
v 0.77919292 0.20108938 0.58427125
v 0.77939862 0.67032421 -0.27018169
v 0.86556685 0.59224701 0.27085307
v 0.78089917 0.66863602 -0.04070612
v 0.78096777 0.74735582 0.12082345
v 0.78035426 0.74786234 0.34975880
v 0.81265593 0.74965835 0.03532921
v 0.46772352 -0.27820393 -0.67044002
v 0.86621451 0.12150365 -0.58452576
v 0.93946797 -0.88868707 -0.67101628
v 0.78032434 0.59008735 0.25775090
v 0.86306947 0.62904227 -0.04265955
v 0.86306947 0.63295227 -0.04265955
v 0.86312950 0.62904227 -0.04261955
v 0.85915947 0.64320475 -0.04275955
v 0.86608946 0.60902351 -0.03871955
v 0.86593199 0.61602843 -0.35696423
v 0.86312950 0.62514228 -0.04261955
v 0.77970254 0.67199033 -0.34783375
v 0.86312950 0.59779227 -0.04261955
v 0.86312950 0.60170227 -0.04261955
v 0.86306947 0.61342227 -0.04265955
v 0.86306947 0.61732227 -0.04265955
v 0.86312950 0.61342227 -0.04261955
v 0.86312950 0.60560226 -0.04261955
v 0.86312950 0.60951227 -0.04261955
v 0.86306947 0.60170227 -0.04265955
v 0.86312950 0.61732227 -0.04261955
v 0.86306947 0.60560226 -0.04265955
v 0.86306947 0.60951227 -0.04265955
v 0.86296242 0.59719491 -0.04273536
v 0.85915947 0.61683726 -0.04275955
v 0.86306947 0.63685226 -0.04265955
v 0.86658996 0.67526335 0.32080296
v 0.86517948 0.66251987 -0.42656949
v 0.86312950 0.63295227 -0.04261955
v 0.86472213 0.66926920 -0.04163507
v 0.86553276 0.67026693 0.12072030
v 0.86550951 0.67540294 -0.19159651
v 0.86568457 0.67032635 0.03623163
v 0.86505085 0.74739039 0.12121636
v 0.86489373 0.74711835 0.35095626
v 0.86304718 0.75033325 -0.51189458
f 2 1 16
f 2 3 1
f 12 16 1
f 5 3 2
f 1 11 12
f 1 3 11
f 25 12 17
f 18 44 19
f 8 11 29
f 4 11 8
f 4 12 11
f 3 5 11
f 16 15 9
f 2 16 9
f 25 16 12
f 23 16 25
f 23 25 57
f 4 8 29
f 58 16 23
f 32 32 34
f 29 38 4
f 4 17 12
f 17 4 38
f 38 29 17
f 29 27 17
f 11 27 29
f 5 31 27
f 41 44 42
f 43 44 45
f 11 5 27
f 5 2 9
f 48 49 45
f 20 49 48
f 50 51 52
f 55 51 50
f 17 27 15
f 9 47 5
f 47 9 56
f 56 9 15
f 56 15 21
f 15 58 17
f 58 15 16
f 25 17 57
f 17 58 57
f 57 58 23
f 59 60 61
f 125 60 59
f 15 27 83
f 50 52 64
f 67 65 68
f 47 31 5
f 83 27 84
f 70 82 55
f 42 44 32
f 36 70 32
f 73 74 65
f 27 31 84
f 54 75 76
f 20 75 54
f 77 64 74
f 80 41 42
f 47 56 21
f 34 32 66
f 69 21 15
f 14 37 86
f 14 84 31
f 37 6 10
f 18 76 44
f 52 42 32
f 35 45 44
f 86 28 85
f 87 6 47
f 47 21 91
f 108 88 61
f 108 90 46
f 81 21 69
f 68 32 32
f 90 93 46
f 22 94 19
f 20 94 22
f 70 68 32
f 80 22 41
f 20 22 80
f 55 82 20
f 37 10 86
f 68 65 32
f 48 45 35
f 20 80 55
f 51 80 42
f 55 80 51
f 66 36 34
f 70 67 68
f 54 76 18
f 74 64 32
f 52 32 64
f 75 48 35
f 20 48 75
f 28 86 71
f 94 18 19
f 32 44 66
f 36 82 70
f 82 14 20
f 35 44 76
f 94 54 18
f 94 20 54
f 82 66 84
f 67 73 65
f 55 73 67
f 73 77 74
f 55 77 73
f 14 82 84
f 6 37 31
f 55 67 70
f 82 36 66
f 49 43 45
f 49 85 43
f 20 85 49
f 75 35 76
f 66 44 71
f 41 19 44
f 66 71 84
f 47 128 87
f 31 37 14
f 88 59 61
f 128 47 125
f 102 100 88
f 127 103 62
f 127 104 105
f 106 107 105
f 98 107 106
f 43 28 44
f 110 111 102
f 112 115 114
f 115 112 91
f 78 116 109
f 46 117 118
f 98 21 113
f 21 81 113
f 119 120 109
f 120 119 98
f 108 46 118
f 108 87 102
f 44 28 71
f 115 122 123
f 122 115 91
f 77 50 64
f 55 50 77
f 36 32 34
f 20 14 86
f 85 20 86
f 43 85 28
f 51 42 52
f 74 32 65
f 22 19 41
f 84 71 87
f 31 47 6
f 6 99 10
f 100 59 88
f 59 100 125
f 87 83 84
f 123 122 124
f 118 112 114
f 124 126 103
f 127 108 123
f 83 87 69
f 83 69 15
f 128 111 110
f 128 125 111
f 87 99 6
f 71 99 87
f 108 102 88
f 122 126 124
f 126 122 91
f 91 21 98
f 81 69 92
f 60 93 90
f 60 91 93
f 127 124 103
f 69 108 92
f 117 112 118
f 117 91 112
f 69 87 108
f 121 92 89
f 91 125 47
f 103 129 62
f 92 121 81
f 108 61 90
f 92 108 89
f 89 127 121
f 125 91 60
f 61 60 90
f 78 131 79
f 108 114 123
f 78 81 121
f 104 106 105
f 129 132 62
f 132 129 98
f 93 117 46
f 91 117 93
f 127 123 124
f 108 118 114
f 91 98 129
f 87 128 110
f 130 133 79
f 133 130 113
f 97 99 71
f 87 110 102
f 111 100 102
f 125 100 111
f 116 119 109
f 78 127 116
f 114 115 123
f 89 108 127
f 105 107 116
f 127 105 116
f 62 132 104
f 131 130 79
f 132 106 104
f 132 98 106
f 127 62 104
f 107 119 116
f 107 98 119
f 126 129 103
f 129 126 91
f 127 78 121
f 78 109 131
f 120 98 113
f 120 130 131
f 130 120 113
f 109 120 131
f 133 134 135
f 134 133 113
f 79 133 135
f 78 79 135
f 134 113 81
f 135 134 81
f 78 135 81
f 10 99 53
f 99 101 53
f 33 30 96
f 96 86 33
f 86 10 33
f 96 30 97
f 53 33 10
f 86 96 71
f 33 53 137
f 138 71 96
f 137 53 101
f 138 96 97
f 71 138 97
f 99 97 148
f 30 33 456
f 137 101 136
f 137 136 265
f 151 136 101
f 101 99 148
f 33 137 40
f 40 456 33
f 146 97 30
f 97 146 148
f 265 136 151
f 456 146 30
f 140 63 95
f 299 63 301
f 63 299 431
f 211 137 265
f 143 63 431
f 95 144 159
f 144 95 143
f 143 95 63
f 141 143 431
f 151 101 148
f 63 142 169
f 142 63 140
f 26 140 95
f 13 162 163
f 162 13 309
f 164 165 166
f 154 95 155
f 172 173 174
f 173 172 309
f 172 174 176
f 178 384 179
f 371 170 160
f 95 159 155
f 161 371 149
f 40 137 211
f 193 194 195
f 193 268 194
f 197 198 199
f 200 201 202
f 204 312 205
f 143 141 175
f 182 270 209
f 144 143 175
f 141 188 156
f 175 141 208
f 149 168 152
f 215 216 217
f 221 222 223
f 221 268 222
f 270 228 229
f 228 7 229
f 367 233 234
f 233 235 234
f 309 237 238
f 237 239 238
f 243 24 282
f 24 145 231
f 145 243 263
f 139 279 242
f 139 242 218
f 226 241 264
f 226 247 241
f 145 249 243
f 188 249 219
f 293 226 264
f 243 282 263
f 249 244 219
f 145 139 218
f 203 251 252
f 161 149 152
f 95 154 153
f 168 161 152
f 170 26 160
f 301 63 190
f 256 72 257
f 159 144 443
f 159 427 155
f 248 317 209
f 208 141 156
f 24 231 282
f 24 243 249
f 247 226 225
f 224 191 210
f 213 220 322
f 249 188 24
f 244 249 145
f 219 187 188
f 244 218 286
f 323 245 333
f 293 264 288
f 246 245 323
f 246 333 245
f 193 195 266
f 187 156 188
f 277 382 206
f 238 239 271
f 164 272 165
f 164 307 272
f 255 274 275
f 255 309 274
f 262 312 204
f 333 158 277
f 266 303 278
f 209 317 72
f 222 287 278
f 222 268 287
f 289 317 290
f 294 166 295
f 296 269 297
f 160 26 186
f 333 240 417
f 169 142 170
f 302 262 204
f 26 185 186
f 142 140 170
f 161 168 184
f 140 26 170
f 169 170 371
f 254 168 149
f 95 185 26
f 162 305 290
f 162 270 305
f 223 303 306
f 403 156 419
f 158 382 277
f 175 208 403
f 165 312 166
f 72 317 257
f 270 248 209
f 230 214 192
f 184 168 167
f 228 257 7
f 179 384 174
f 305 229 289
f 305 270 229
f 139 148 158
f 230 270 214
f 371 161 184
f 313 221 306
f 313 358 221
f 255 275 311
f 315 313 316
f 315 358 313
f 304 318 262
f 256 182 72
f 256 270 182
f 39 224 210
f 210 191 214
f 280 214 191
f 206 283 277
f 192 214 280
f 319 196 214
f 214 196 210
f 139 213 279
f 327 333 277
f 219 183 156
f 320 236 321
f 205 312 165
f 253 284 276
f 196 279 213
f 279 196 276
f 139 39 226
f 139 158 39
f 210 196 227
f 224 39 158
f 224 158 246
f 283 327 277
f 261 331 276
f 242 286 218
f 139 145 24
f 231 145 263
f 220 213 139
f 226 293 220
f 196 241 227
f 242 279 276
f 226 39 225
f 226 220 139
f 322 288 241
f 196 213 241
f 39 210 227
f 291 224 246
f 235 337 328
f 158 333 246
f 253 330 284
f 227 225 39
f 241 247 227
f 224 291 191
f 191 291 280
f 280 291 323
f 240 333 327
f 244 145 218
f 276 286 242
f 213 322 241
f 220 293 322
f 227 247 225
f 246 323 291
f 292 219 244
f 276 284 286
f 283 206 365
f 280 323 285
f 293 288 322
f 286 284 292
f 244 286 292
f 241 288 264
f 334 335 336
f 285 323 333
f 339 236 340
f 333 417 370
f 285 333 370
f 341 337 342
f 327 283 232
f 184 167 260
f 254 167 168
f 180 186 185
f 139 265 151
f 290 317 163
f 344 267 345
f 346 384 310
f 443 144 175
f 156 403 208
f 287 193 266
f 287 268 193
f 248 270 230
f 174 384 176
f 148 139 151
f 7 317 289
f 195 303 266
f 318 312 262
f 348 259 318
f 349 236 350
f 352 348 318
f 294 164 166
f 294 307 164
f 303 200 202
f 194 353 195
f 272 354 205
f 272 307 354
f 303 353 295
f 354 302 204
f 307 302 354
f 319 355 369
f 356 357 320
f 358 357 356
f 328 337 269
f 345 267 359
f 269 337 297
f 233 363 364
f 367 363 233
f 280 326 192
f 329 326 280
f 240 327 232
f 314 361 344
f 329 280 285
f 186 180 160
f 63 169 190
f 254 149 371
f 185 95 147
f 95 153 147
f 371 299 258
f 180 185 147
f 150 180 147
f 371 258 169
f 190 258 301
f 258 190 169
f 260 465 184
f 301 258 299
f 182 209 72
f 427 159 308
f 373 374 346
f 374 373 309
f 173 179 174
f 147 153 150
f 173 375 179
f 375 173 309
f 377 176 378
f 228 256 257
f 256 228 270
f 248 281 317
f 162 309 270
f 309 373 379
f 373 310 379
f 379 310 178
f 311 384 239
f 257 317 7
f 354 204 205
f 380 351 198
f 381 238 271
f 238 381 309
f 272 205 165
f 148 382 158
f 141 265 188
f 310 384 178
f 162 290 163
f 13 163 216
f 214 270 309
f 163 317 216
f 229 7 289
f 305 289 290
f 215 13 216
f 215 309 13
f 216 317 217
f 377 172 176
f 377 309 172
f 317 384 385
f 386 207 351
f 374 385 346
f 383 215 217
f 215 383 309
f 374 383 385
f 383 374 309
f 383 217 385
f 217 317 385
f 375 178 179
f 315 316 202
f 385 384 346
f 373 346 310
f 271 259 251
f 375 379 178
f 379 375 309
f 384 317 281
f 237 255 311
f 255 237 309
f 275 384 311
f 274 377 378
f 377 274 309
f 378 384 275
f 274 378 275
f 388 389 350
f 395 389 388
f 203 381 251
f 203 309 381
f 390 203 252
f 309 203 390
f 176 384 378
f 351 259 198
f 237 311 239
f 391 199 348
f 201 315 202
f 358 315 201
f 384 281 259
f 251 259 252
f 199 259 348
f 197 380 198
f 380 197 309
f 384 259 271
f 390 252 207
f 198 259 199
f 239 384 271
f 380 386 351
f 380 309 386
f 207 259 351
f 391 197 199
f 391 309 197
f 381 271 251
f 252 259 207
f 386 390 207
f 386 309 390
f 259 312 318
f 214 309 307
f 273 321 392
f 302 304 262
f 302 307 304
f 309 391 307
f 307 391 352
f 391 348 352
f 312 303 295
f 393 294 295
f 393 307 294
f 166 312 295
f 353 393 295
f 353 303 195
f 222 278 223
f 304 352 318
f 307 352 304
f 306 303 316
f 394 362 395
f 259 281 312
f 139 188 265
f 261 281 212
f 358 268 221
f 389 349 350
f 356 320 321
f 268 393 194
f 393 353 194
f 316 303 202
f 268 358 214
f 214 307 268
f 221 223 306
f 307 393 268
f 278 303 223
f 236 267 340
f 388 350 339
f 313 306 316
f 396 324 340
f 387 388 339
f 387 395 388
f 287 266 278
f 267 396 340
f 324 387 340
f 395 387 324
f 338 337 399
f 357 200 320
f 400 345 359
f 363 398 364
f 200 303 320
f 303 236 320
f 312 281 303
f 273 356 321
f 273 395 356
f 401 273 392
f 401 395 273
f 359 267 398
f 358 201 357
f 201 200 357
f 321 236 392
f 350 236 339
f 401 392 349
f 389 401 349
f 389 395 401
f 356 395 358
f 392 236 349
f 402 366 341
f 402 367 366
f 235 233 364
f 387 339 340
f 156 187 219
f 303 281 236
f 337 235 364
f 404 314 344
f 404 362 314
f 214 395 362
f 395 214 358
f 361 267 344
f 396 267 360
f 372 359 398
f 372 400 359
f 372 362 400
f 394 332 360
f 395 332 394
f 360 267 361
f 314 394 361
f 314 362 394
f 400 404 345
f 400 362 404
f 395 324 332
f 324 396 332
f 363 372 398
f 363 362 372
f 267 337 364
f 367 362 363
f 297 337 341
f 398 267 364
f 394 360 361
f 404 344 345
f 406 328 269
f 332 396 360
f 196 261 276
f 281 261 236
f 362 367 214
f 267 236 261
f 335 337 336
f 408 338 399
f 189 367 402
f 408 397 338
f 408 189 397
f 267 261 337
f 234 235 328
f 296 406 269
f 296 367 406
f 366 296 297
f 367 296 366
f 402 341 342
f 342 337 338
f 366 297 341
f 189 214 367
f 337 335 399
f 397 402 342
f 397 189 402
f 397 342 338
f 406 234 328
f 406 367 234
f 355 336 369
f 335 368 399
f 368 408 399
f 368 189 408
f 355 319 189
f 189 368 334
f 368 335 334
f 24 188 139
f 261 212 331
f 319 261 196
f 214 189 319
f 326 298 192
f 337 369 336
f 369 261 319
f 337 261 369
f 355 334 336
f 355 189 334
f 411 283 365
f 276 331 253
f 411 365 407
f 407 232 411
f 177 248 230
f 253 331 330
f 232 407 418
f 232 418 240
f 232 283 411
f 263 282 231
f 331 212 416
f 330 331 413
f 416 413 331
f 413 284 330
f 370 329 285
f 413 292 284
f 370 417 240
f 183 219 416
f 183 416 423
f 292 416 219
f 413 416 292
f 184 465 382
f 254 260 167
f 300 154 157
f 281 248 460
f 460 212 281
f 298 230 192
f 230 298 177
f 407 347 418
f 414 370 240
f 212 424 416
f 326 329 325
f 325 329 376
f 420 183 423
f 442 160 180
f 441 371 160
f 150 153 300
f 442 180 150
f 184 382 148
f 443 175 403
f 183 432 156
f 414 329 370
f 421 326 325
f 325 376 421
f 347 407 365
f 418 433 422
f 329 433 376
f 343 300 157
f 155 427 157
f 155 157 154
f 153 154 300
f 157 427 343
f 300 343 171
f 414 433 329
f 529 405 206
f 529 428 347
f 343 427 412
f 405 529 347
f 376 298 421
f 365 206 405
f 347 365 405
f 326 421 298
f 212 445 435
f 240 418 422
f 240 422 414
f 435 424 212
f 432 183 420
f 424 423 416
f 420 424 415
f 414 422 433
f 420 423 424
f 254 371 429
f 160 442 441
f 260 254 429
f 442 150 300
f 260 429 465
f 382 465 478
f 444 412 308
f 343 412 171
f 412 427 308
f 156 432 419
f 298 376 177
f 418 347 462
f 435 415 424
f 420 415 437
f 171 412 444
f 431 371 184
f 171 444 300
f 543 444 308
f 212 409 445
f 347 428 462
f 437 432 420
f 432 415 435
f 415 432 437
f 418 436 433
f 436 439 425
f 439 436 418
f 439 418 447
f 543 308 426
f 148 146 184
f 462 428 529
f 433 436 425
f 432 435 469
f 441 506 371
f 300 444 491
f 265 141 211
f 481 177 376
f 481 376 433
f 419 432 455
f 425 481 433
f 442 300 491
f 371 431 299
f 426 528 543
f 443 426 308
f 181 528 426
f 426 443 181
f 443 308 159
f 431 211 141
f 435 445 466
f 419 455 454
f 177 497 248
f 456 40 211
f 461 419 454
f 445 409 463
f 435 466 438
f 447 425 439
f 447 449 425
f 506 441 493
f 184 146 456
f 529 206 382
f 177 494 620
f 460 463 409
f 539 418 462
f 432 469 455
f 463 457 466
f 466 445 463
f 438 469 435
f 418 539 447
f 438 477 469
f 449 447 250
f 442 476 441
f 429 531 478
f 465 429 478
f 476 442 491
f 517 403 419
f 181 443 410
f 453 181 410
f 410 443 434
f 410 434 430
f 453 410 430
f 443 403 434
f 409 212 460
f 494 177 481
f 489 454 458
f 477 438 446
f 458 454 455
f 458 455 459
f 459 455 469
f 466 467 438
f 458 459 468
f 467 466 470
f 469 477 459
f 459 477 485
f 446 438 467
f 487 250 452
f 476 493 441
f 528 181 453
f 475 434 403
f 473 403 517
f 454 489 480
f 517 419 479
f 461 454 480
f 462 529 604
f 458 468 540
f 459 488 468
f 470 466 457
f 485 488 459
f 446 467 464
f 492 440 464
f 464 477 446
f 464 440 477
f 449 250 487
f 491 444 543
f 493 476 502
f 447 539 250
f 449 582 425
f 477 440 485
f 535 539 462
f 456 431 184
f 382 478 573
f 430 434 475
f 430 475 474
f 474 475 473
f 419 461 479
f 479 461 480
f 529 382 573
f 473 475 403
f 481 483 490
f 211 431 456
f 494 481 490
f 451 471 448
f 498 489 537
f 463 460 457
f 481 425 582
f 499 488 485
f 471 440 492
f 467 486 464
f 492 464 486
f 467 484 486
f 470 484 467
f 539 452 250
f 472 451 448
f 471 472 440
f 487 450 501
f 502 476 491
f 489 479 480
f 513 474 473
f 517 516 473
f 460 497 457
f 483 481 582
f 489 498 479
f 482 490 483
f 494 490 544
f 498 537 500
f 458 540 489
f 540 468 488
f 522 499 485
f 440 472 522
f 485 440 522
f 448 522 472
f 471 451 472
f 487 524 449
f 448 471 526
f 452 539 450
f 452 450 487
f 450 539 496
f 491 495 502
f 497 460 248
f 453 430 513
f 430 474 513
f 513 473 516
f 482 544 490
f 489 540 537
f 540 488 510
f 470 561 484
f 510 488 499
f 524 487 501
f 502 505 493
f 573 478 531
f 462 604 535
f 453 513 572
f 470 457 561
f 509 483 582
f 502 495 505
f 522 526 525
f 515 486 484
f 510 499 522
f 522 448 526
f 471 492 523
f 492 486 523
f 511 526 471
f 538 501 450
f 505 506 493
f 530 517 479
f 484 561 521
f 449 524 566
f 486 507 523
f 511 471 523
f 495 514 505
f 514 506 505
f 495 491 514
f 513 516 546
f 544 482 582
f 494 544 620
f 530 479 498
f 498 500 530
f 533 530 500
f 561 457 534
f 500 537 533
f 507 486 515
f 509 482 483
f 482 509 582
f 521 515 484
f 449 566 582
f 522 508 510
f 521 507 515
f 541 539 547
f 523 525 526
f 511 523 526
f 547 568 541
f 496 539 541
f 527 541 568
f 496 538 450
f 538 524 501
f 524 538 527
f 527 538 541
f 541 538 496
f 514 491 569
f 606 371 506
f 599 546 516
f 530 533 517
f 517 533 549
f 585 533 537
f 457 497 534
f 524 527 542
f 521 561 548
f 553 540 510
f 507 521 557
f 569 504 514
f 508 550 510
f 522 550 508
f 542 527 568
f 514 504 506
f 569 491 543
f 572 513 546
f 577 517 549
f 585 549 533
f 620 544 582
f 540 585 537
f 561 564 548
f 564 557 548
f 539 535 563
f 555 507 557
f 548 557 521
f 553 510 550
f 555 523 507
f 525 567 555
f 555 565 525
f 576 565 555
f 525 523 567
f 567 523 555
f 547 542 568
f 542 547 556
f 566 524 542
f 556 566 542
f 572 512 623
f 512 572 599
f 512 599 716
f 599 572 546
f 620 582 554
f 561 583 564
f 540 503 585
f 503 540 553
f 503 550 600
f 550 503 553
f 564 586 557
f 550 525 565
f 557 586 576
f 550 522 525
f 555 557 576
f 623 512 716
f 517 599 516
f 585 503 600
f 547 539 563
f 547 563 593
f 582 566 590
f 566 556 584
f 584 590 566
f 504 569 588
f 579 506 504
f 579 504 588
f 578 569 543
f 545 622 580
f 623 545 580
f 583 561 534
f 562 583 497
f 585 600 577
f 534 497 583
f 583 592 564
f 563 551 593
f 586 600 565
f 550 565 600
f 586 565 576
f 593 556 547
f 590 584 593
f 593 584 556
f 578 588 569
f 545 716 622
f 716 545 623
f 599 517 591
f 577 600 611
f 585 577 549
f 582 590 554
f 554 598 620
f 586 564 592
f 600 586 611
f 611 586 592
f 601 590 593
f 578 624 588
f 608 573 531
f 603 580 574
f 591 716 599
f 591 517 577
f 535 626 563
f 551 563 626
f 590 601 554
f 614 551 554
f 614 593 551
f 615 593 614
f 614 554 615
f 593 615 602
f 554 601 615
f 601 593 587
f 615 601 587
f 594 587 593
f 610 593 602
f 615 587 602
f 593 610 594
f 587 594 602
f 610 602 594
f 588 624 579
f 603 574 532
f 608 625 573
f 592 583 683
f 554 551 519
f 611 592 612
f 627 611 612
f 543 589 633
f 578 543 633
f 532 574 622
f 532 618 603
f 622 574 580
f 562 497 581
f 583 581 683
f 583 562 581
f 519 551 626
f 627 612 630
f 618 532 595
f 624 633 695
f 578 633 624
f 618 595 659
f 570 589 631
f 660 595 532
f 579 624 695
f 659 589 618
f 591 577 605
f 577 611 605
f 626 535 518
f 635 598 639
f 635 620 598
f 520 598 554
f 641 626 518
f 519 626 552
f 627 605 611
f 628 613 519
f 619 627 630
f 630 643 619
f 595 660 659
f 519 613 554
f 536 620 635
f 518 535 604
f 709 635 639
f 639 598 642
f 592 683 612
f 641 518 640
f 552 626 621
f 520 554 613
f 630 683 643
f 630 612 683
f 643 683 645
f 628 519 552
f 613 628 552
f 633 589 570
f 570 657 633
f 660 657 570
f 632 659 660
f 518 604 617
f 518 617 640
f 621 626 641
f 642 598 520
f 607 552 640
f 682 642 520
f 613 646 520
f 633 657 558
f 695 633 558
f 666 657 660
f 642 709 639
f 647 665 663
f 674 647 676
f 641 552 621
f 627 619 675
f 642 682 709
f 613 694 646
f 682 520 646
f 694 613 552
f 640 617 607
f 674 676 636
f 653 727 652
f 641 640 552
f 677 552 607
f 552 677 655
f 654 710 653
f 653 698 654
f 694 552 655
f 645 619 643
f 558 657 666
f 666 660 658
f 660 631 632
f 660 532 718
f 665 629 663
f 683 581 648
f 682 646 704
f 677 607 651
f 676 647 663
f 727 653 710
f 676 664 636
f 654 636 664
f 636 654 674
f 652 645 653
f 685 686 687
f 686 685 740
f 654 664 710
f 619 645 670
f 655 677 703
f 646 694 693
f 675 619 670
f 751 670 652
f 652 689 751
f 693 694 655
f 653 645 698
f 708 591 605
f 607 617 651
f 673 708 605
f 708 673 717
f 683 698 645
f 605 670 697
f 671 617 699
f 605 627 675
f 605 675 670
f 704 709 682
f 719 650 711
f 677 651 617
f 671 677 617
f 698 674 654
f 678 691 681
f 652 670 645
f 691 678 656
f 747 684 649
f 719 692 712
f 692 719 662
f 689 652 727
f 688 684 747
f 713 715 662
f 715 692 662
f 714 693 750
f 693 655 703
f 658 667 666
f 666 667 695
f 671 700 703
f 747 649 707
f 662 679 746
f 684 688 710
f 656 678 743
f 672 649 676
f 662 719 679
f 747 705 688
f 715 713 749
f 742 680 714
f 667 658 609
f 695 667 616
f 659 631 589
f 616 667 609
f 632 631 659
f 660 570 631
f 666 695 558
f 606 616 609
f 625 608 559
f 658 660 718
f 618 589 596
f 608 531 606
f 695 616 579
f 609 668 606
f 579 616 606
f 559 573 625
f 559 608 668
f 608 606 668
f 596 603 618
f 560 573 559
f 606 506 579
f 531 429 606
f 718 532 622
f 543 596 589
f 580 603 596
f 528 596 543
f 580 596 528
f 177 620 497
f 560 529 573
f 453 580 528
f 606 429 371
f 453 572 580
f 623 580 572
f 716 634 622
f 620 575 497
f 604 529 560
f 597 560 559
f 638 697 669
f 669 668 717
f 620 665 575
f 716 708 696
f 708 716 591
f 605 697 638
f 637 604 560
f 673 605 717
f 668 669 559
f 536 665 620
f 581 497 575
f 699 617 604
f 560 597 637
f 648 581 575
f 700 671 699
f 638 717 605
f 629 665 536
f 669 717 638
f 644 559 669
f 604 637 699
f 709 536 635
f 644 637 597
f 559 644 597
f 665 647 575
f 699 637 700
f 536 663 629
f 669 701 644
f 720 721 722
f 721 720 723
f 637 644 702
f 647 648 575
f 536 709 663
f 637 711 700
f 697 670 669
f 647 698 648
f 637 702 711
f 698 647 674
f 648 698 683
f 700 711 703
f 719 663 709
f 703 711 742
f 703 677 671
f 669 725 701
f 609 690 668
f 724 702 644
f 709 704 646
f 725 681 691
f 669 681 725
f 663 672 676
f 719 711 702
f 680 709 646
f 709 680 650
f 751 747 701
f 701 725 751
f 644 728 729
f 739 672 712
f 730 731 732
f 740 731 730
f 687 686 726
f 724 733 734
f 728 735 729
f 724 736 687
f 724 729 733
f 734 730 732
f 729 737 733
f 724 732 736
f 672 663 719
f 737 738 733
f 740 738 737
f 702 724 748
f 712 672 719
f 702 679 719
f 732 731 736
f 691 656 725
f 684 664 649
f 649 664 676
f 644 729 724
f 739 735 728
f 738 740 730
f 734 738 730
f 644 701 739
f 644 739 728
f 724 687 706
f 740 735 739
f 740 739 712
f 739 701 672
f 729 735 737
f 735 740 737
f 733 738 734
f 724 734 732
f 731 740 685
f 736 731 685
f 736 685 687
f 706 687 726
f 724 706 748
f 748 746 702
f 709 650 719
f 680 646 714
f 681 743 678
f 681 669 751
f 751 669 670
f 681 751 743
f 710 664 684
f 701 747 707
f 720 740 723
f 649 672 701
f 707 649 701
f 706 726 722
f 706 722 744
f 744 721 741
f 721 723 741
f 722 721 744
f 726 686 720
f 686 740 720
f 726 720 722
f 744 741 706
f 741 745 706
f 745 741 723
f 723 740 712
f 712 692 748
f 692 715 748
f 650 742 711
f 680 742 650
f 743 751 725
f 743 725 656
f 688 751 689
f 745 723 712
f 745 712 748
f 706 745 748
f 662 749 713
f 749 662 746
f 702 746 679
f 646 693 714
f 688 689 727
f 727 710 688
f 746 748 749
f 751 688 705
f 751 705 747
f 748 715 749
f 714 750 742
f 703 742 750
f 703 750 693
f 661 696 717
f 708 717 696
f 690 571 668
f 609 658 718
f 717 668 571
f 718 622 634
f 571 661 717
f 661 571 634
f 690 634 571
f 634 716 696
f 718 634 690
f 690 609 718
f 661 634 696

