o convex_0
v -0.007070 -0.024248 0.024464
v 0.039124 -0.021770 0.077280
v 0.039124 -0.022594 0.077280
v 0.038303 -0.021770 -0.077805
v -0.038419 0.023601 -0.048096
v 0.037475 0.021948 0.078113
v -0.038419 0.021952 0.078113
v -0.038419 -0.021770 -0.075322
v 0.037475 0.022772 -0.077805
v -0.037590 -0.023419 0.077295
v -0.038419 0.022772 -0.077805
v 0.008604 0.024430 -0.053048
v 0.039124 0.013704 -0.039011
v 0.035825 -0.024248 0.075645
v -0.037590 -0.020946 -0.078638
v -0.039240 -0.002792 0.053356
v -0.037590 0.022772 0.077295
v 0.037475 -0.022590 -0.076988
v -0.014489 -0.015995 0.078946
v 0.035825 0.022772 0.060775
v -0.039240 0.022777 -0.075322
v 0.039124 0.013704 0.067377
v 0.036654 0.019475 -0.078638
v -0.036769 -0.022590 -0.054698
v 0.036654 0.023601 -0.076155
v -0.039240 -0.012693 -0.070386
v 0.039124 -0.007742 -0.067069
v -0.038419 -0.022594 0.074812
v -0.021916 -0.024248 0.067392
v 0.027578 0.002974 0.078946
v 0.010254 0.023601 0.030249
v -0.006242 0.024430 -0.056349
v 0.038303 0.021952 -0.076972
v 0.036654 -0.021765 -0.078638
v -0.037590 0.017826 -0.078638
v -0.012840 -0.023419 -0.035725
v -0.039240 0.018650 0.050055
v -0.030992 0.008749 0.078946
v -0.038419 0.023601 -0.076988
v 0.037475 -0.022590 0.078113
v 0.005298 -0.024248 0.021996
v 0.038303 0.021128 0.078113
v -0.036769 -0.013517 0.078946
v 0.024279 0.023601 0.018695
v 0.004477 0.024430 -0.064601
v 0.039124 -0.023419 0.075630
v -0.039240 0.010398 0.064909
v 0.036654 0.023601 -0.053048
v -0.037590 -0.022590 0.078113
v -0.023565 -0.023419 -0.025005
v 0.028406 -0.023419 -0.025005
v 0.011075 -0.023419 -0.037376
v 0.030877 -0.022590 -0.077805
v 0.039124 -0.014342 -0.044795
v -0.002942 0.024430 -0.047279
v -0.037590 0.023601 -0.028306
v 0.022629 -0.011040 0.078946
v 0.010254 0.010402 0.078946
v -0.029343 -0.022590 -0.060483
v 0.005298 -0.024248 0.076463
v -0.039240 0.022777 -0.015919
v -0.039240 -0.002792 -0.076155
v 0.039124 0.004627 -0.067069
v 0.038303 0.021952 0.029416
f 33 48 64 
f 2 3 13 
f 7 6 17 
f 17 6 20 
f 2 13 22 
f 9 4 23 
f 11 9 23 
f 10 8 24 
f 16 21 26 
f 13 3 27 
f 8 10 28 
f 26 8 28 
f 16 26 28 
f 1 14 29 
f 10 24 29 
f 17 20 31 
f 4 9 33 
f 22 13 33 
f 9 25 33 
f 4 18 34 
f 23 4 34 
f 15 23 34 
f 15 11 35 
f 11 23 35 
f 23 15 35 
f 21 16 37 
f 19 30 38 
f 9 11 39 
f 21 5 39 
f 11 21 39 
f 25 9 39 
f 5 32 39 
f 14 3 40 
f 14 1 41 
f 1 36 41 
f 3 2 42 
f 2 22 42 
f 6 30 42 
f 40 3 42 
f 30 40 42 
f 38 7 43 
f 19 38 43 
f 12 31 44 
f 31 20 44 
f 12 25 45 
f 32 12 45 
f 25 39 45 
f 39 32 45 
f 3 14 46 
f 18 4 46 
f 14 18 46 
f 27 3 46 
f 28 7 47 
f 16 28 47 
f 7 37 47 
f 37 16 47 
f 20 6 48 
f 25 12 48 
f 33 25 48 
f 12 44 48 
f 44 20 48 
f 7 28 49 
f 28 10 49 
f 10 40 49 
f 40 19 49 
f 43 7 49 
f 19 43 49 
f 1 29 50 
f 29 24 50 
f 36 1 50 
f 24 36 50 
f 18 14 51 
f 14 41 51 
f 51 41 52 
f 41 36 52 
f 18 51 52 
f 52 36 53 
f 8 15 53 
f 34 18 53 
f 15 34 53 
f 18 52 53 
f 4 27 54 
f 46 4 54 
f 27 46 54 
f 31 12 55 
f 17 31 55 
f 12 32 55 
f 55 32 56 
f 5 17 56 
f 32 5 56 
f 17 55 56 
f 30 19 57 
f 19 40 57 
f 40 30 57 
f 6 7 58 
f 30 6 58 
f 7 38 58 
f 38 30 58 
f 24 8 59 
f 36 24 59 
f 53 36 59 
f 8 53 59 
f 29 14 60 
f 10 29 60 
f 14 40 60 
f 40 10 60 
f 17 5 61 
f 7 17 61 
f 5 21 61 
f 37 7 61 
f 21 37 61 
f 15 8 62 
f 11 15 62 
f 21 11 62 
f 8 26 62 
f 26 21 62 
f 27 4 63 
f 13 27 63 
f 4 33 63 
f 33 13 63 
f 22 33 64 
f 42 22 64 
f 6 42 64 
f 48 6 64 
