# https://github.com/mikedh/trimesh
v -0.10684838 -0.00158382 -0.00251510
v -0.10684838 0.00319050 -0.00251510
v -0.10539321 -0.00470962 -0.00871669
v -0.10682697 -0.00470962 -0.00251510
v -0.10338168 0.02725481 -0.00639151
v -0.10391666 0.02489976 -0.00639151
v -0.10436605 0.02241625 -0.00639151
v -0.10547881 0.01577930 -0.00639151
v -0.10567141 0.01445191 -0.00639151
v -0.10579981 0.01254646 -0.00639151
v -0.10586401 0.01008437 -0.00639151
v -0.10588540 0.00762227 -0.00639151
v -0.10107053 0.00319050 -0.00251510
v 0.00231006 0.11090183 -0.00635894
v -0.01052959 0.11047365 -0.00639151
v -0.01284073 0.11023814 -0.00639151
v -0.01373951 0.11013109 -0.00639151
v -0.01427449 0.11004545 -0.00639151
v -0.02615117 0.10760476 -0.00639151
v -0.02642936 0.10751912 -0.00639151
v -0.03267799 0.10552804 -0.00639151
v -0.03357677 0.10522830 -0.00639151
v -0.03396195 0.10507844 -0.00639151
v -0.03941881 0.10283044 -0.00639151
v -0.04267152 0.10146023 -0.00639151
v -0.04479006 0.10049680 -0.00639151
v -0.05097450 0.09758511 -0.00639151
v -0.05857129 0.09270374 -0.00639151
v -0.06165280 0.09064842 -0.00639151
v -0.06282978 0.08977063 -0.00639151
v -0.06837222 0.08518899 -0.00639151
v -0.07126114 0.08257703 -0.00639151
v -0.07355088 0.08047890 -0.00639151
v -0.07607601 0.07810244 -0.00639151
v -0.07836575 0.07544765 -0.00639151
v -0.08063409 0.07272865 -0.00639151
v -0.08292383 0.06990259 -0.00639151
v -0.08382260 0.06872507 -0.00639151
v -0.08596255 0.06583478 -0.00639151
v -0.08805968 0.06283744 -0.00639151
v -0.09094861 0.05855554 -0.00639151
v -0.09223258 0.05620049 -0.00639151
v -0.09285316 0.05498015 -0.00639151
v -0.09362353 0.05346007 -0.00639151
v -0.09826721 0.04371873 -0.00639151
v -0.09886640 0.04215584 -0.00639151
v -0.10040715 0.03795957 -0.00639151
v -0.10081375 0.03676064 -0.00639151
v -0.10160552 0.03397740 -0.00639151
v -0.10229030 0.03151531 -0.00639151
v -0.10297508 0.02890334 -0.00639151
v -0.10316768 0.02815401 -0.00639151
v -0.10434464 -0.00470962 -0.01054874
v -0.10430185 -0.00717171 -0.01054874
v -0.10532901 -0.00717171 -0.00859088
v -0.10565001 -0.00717171 -0.00735752
v -0.10567141 0.01008437 -0.00719353
v -0.10522202 0.00762227 -0.00846395
v -0.10417345 0.00762227 -0.01054874
v -0.10425904 0.00265526 -0.01054874
v -0.10432324 -0.00222611 -0.01054874
v -0.10674138 -0.00717171 -0.00251510
v -0.10323188 0.02678380 -0.00753500
v -0.10303928 0.02843233 -0.00667682
v -0.10303928 0.02571332 -0.00917835
v -0.10558581 0.01406654 -0.00697000
v -0.10562862 0.01254646 -0.00710142
v 0.08176610 0.07771707 -0.00635894
v 0.07909118 0.08024339 -0.00635894
v 0.07376272 0.08525322 -0.00635894
v 0.07290675 0.08600255 -0.00635894
v 0.07181537 0.08688034 -0.00635894
v 0.06002429 0.09535851 -0.00635894
v 0.05927531 0.09580812 -0.00635894
v 0.05595840 0.09756369 -0.00635894
v 0.04936738 0.10090358 -0.00635894
v 0.04872540 0.10122472 -0.00635894
v 0.04654266 0.10218815 -0.00635894
v 0.04585788 0.10248789 -0.00635894
v 0.04530149 0.10272340 -0.00635894
v 0.04450972 0.10304454 -0.00635894
v 0.03958785 0.10497139 -0.00635894
v 0.03712692 0.10584919 -0.00635894
v 0.03460178 0.10664134 -0.00635894
v 0.03211945 0.10739067 -0.00635894
v 0.02976551 0.10796873 -0.00635894
v 0.02649140 0.10869665 -0.00635894
v 0.02403047 0.10921048 -0.00635894
v 0.02163373 0.10957444 -0.00635894
v 0.01279577 0.11060210 -0.00635894
v 0.01168300 0.11073056 -0.00635894
v 0.00920067 0.11079479 -0.00635894
v 0.00425741 0.11088043 -0.00635894
v 0.00235286 -0.10141645 -0.00251510
v 0.00231006 0.11092324 -0.00639151
v 0.00010592 0.11094465 -0.00639151
v -0.00235501 0.11094465 -0.00639151
v -0.00479455 0.11092324 -0.00639151
v -0.00560773 0.11088043 -0.00639151
v -0.00806866 0.11068773 -0.00639151
v -0.01245554 0.11013109 -0.00706210
v -0.01408190 0.11000263 -0.00674310
v -0.02469601 0.10769040 -0.00720588
v -0.02636516 0.10749772 -0.00659707
v -0.03222860 0.10535677 -0.00752602
v -0.03387636 0.10505703 -0.00667794
v -0.03916202 0.10272340 -0.00719353
v -0.04003939 0.10210252 -0.00804272
v -0.04436207 0.10038976 -0.00755185
v -0.04877036 0.09767075 -0.00928169
v -0.05011852 0.09732819 -0.00830781
v -0.05257945 0.09595799 -0.00811236
v -0.05399181 0.09540134 -0.00730810
v -0.05852849 0.09268232 -0.00654989
v -0.06143881 0.09049856 -0.00742492
v -0.06595409 0.08525322 -0.01153497
v -0.07091875 0.08283395 -0.00665211
v -0.07346529 0.08041467 -0.00687339
v -0.07599041 0.07799539 -0.00698572
v -0.07834436 0.07542625 -0.00666222
v -0.08134027 0.07110152 -0.00808428
v -0.08268843 0.06930312 -0.00822244
v -0.08363000 0.06844674 -0.00749232
v -0.08587694 0.06570632 -0.00704301
v -0.09084161 0.05838426 -0.00713062
v -0.09313134 0.05316034 -0.00901884
v -0.09514289 0.04945649 -0.00806294
v -0.09820301 0.04354746 -0.00700482
v -0.10072814 0.03639668 -0.00713961
v -0.10288948 0.02751172 -0.00824828
v -0.10325328 0.00762227 -0.01199664
v -0.10325328 0.00513877 -0.01200338
v -0.10325328 -0.01209590 -0.01200338
v -0.10560721 -0.00894870 -0.00707895
v -0.10316768 -0.01412981 -0.01192925
v -0.10306069 -0.01577834 -0.01177086
v -0.10520062 -0.00971945 -0.00797420
v -0.10517923 0.01008437 -0.00842688
v -0.10408785 0.01008437 -0.01054874
v -0.10323188 0.01008437 -0.01197305
v -0.10654879 -0.00963381 -0.00251510
v -0.10229030 0.02982395 -0.00808428
v -0.10094215 0.03459828 -0.00801015
v -0.10064254 0.03363485 -0.00941199
v -0.10087795 0.03228605 -0.00977818
v -0.09837421 0.03673923 -0.01206404
v -0.10036436 0.02982395 -0.01150128
v -0.10147712 0.02738327 -0.01075206
v -0.10226890 0.02489976 -0.01033644
v -0.10276108 0.01747066 -0.01134290
v -0.10295368 0.01500856 -0.01162147
v -0.10374547 0.01500856 -0.01038587
v -0.10505083 0.01494433 -0.00790905
v -0.10511503 0.01254646 -0.00833253
v 0.08399165 0.07529779 -0.00635894
v 0.08249369 0.07598290 -0.00808316
v 0.07686563 0.08022198 -0.01134514
v 0.07436190 0.08266267 -0.01131481
v 0.07254296 0.08568141 -0.00808316
v 0.07076680 0.08700880 -0.00805957
v 0.05987450 0.09527288 -0.00697674
v 0.05510242 0.09777779 -0.00714747
v 0.04962418 0.10000438 -0.00883238
v 0.04876820 0.10066807 -0.00803935
v 0.04510890 0.10263776 -0.00697112
v 0.03804709 0.10527113 -0.00729912
v 0.03633513 0.10554945 -0.00810675
v 0.03389560 0.10629878 -0.00808316
v 0.03045030 0.10760476 -0.00699808
v 0.02403047 0.10869665 -0.00808316
v 0.02154814 0.10908202 -0.00808316
v 0.01414394 0.11017391 -0.00724520
v 0.01168300 0.11032378 -0.00761251
v 0.00564837 0.11002404 -0.00932662
v 0.00425741 0.11006686 -0.00936818
v 0.00179647 0.11010968 -0.00942772
v 0.00231006 0.11047365 -0.00808428
v 0.00235286 -0.10773226 -0.00251510
v 0.11170389 0.00319050 -0.00635894
v 0.11168249 0.00438943 -0.00635894
v 0.11161829 0.00760086 -0.00635894
v 0.11151130 0.01008437 -0.00635894
v 0.11148989 0.01029846 -0.00635894
v 0.11031293 0.01997557 -0.00635894
v 0.11018453 0.02081054 -0.00635894
v 0.10988494 0.02241625 -0.00635894
v 0.10971374 0.02320841 -0.00635894
v 0.10870798 0.02740468 -0.00635894
v 0.10808738 0.02980254 -0.00635894
v 0.10656803 0.03545466 -0.00635894
v 0.10605444 0.03718883 -0.00635894
v 0.10524127 0.03967233 -0.00635894
v 0.10498447 0.04044308 -0.00635894
v 0.10447088 0.04168483 -0.00635894
v 0.10158196 0.04855729 -0.00635894
v 0.09961322 0.05279637 -0.00635894
v 0.09907823 0.05384544 -0.00635894
v 0.09666010 0.05802030 -0.00635894
v 0.09426336 0.06187402 -0.00635894
v 0.09214482 0.06519249 -0.00635894
v 0.09158843 0.06596324 -0.00635894
v 0.08431263 0.07493383 -0.00635894
v 0.08416284 0.07510510 -0.00635894
v -0.00066446 0.11006686 -0.00939402
v -0.00560773 0.11045223 -0.00768552
v -0.00806866 0.11036659 -0.00745300
v -0.01052959 0.11023814 -0.00724183
v -0.01301193 0.10861102 -0.01054874
v -0.01547286 0.10921048 -0.00808428
v -0.02287706 0.10790450 -0.00770799
v -0.02287706 0.10739067 -0.00894134
v -0.02546639 0.10715517 -0.00804834
v -0.03130843 0.10503562 -0.00916712
v -0.03040965 0.10565650 -0.00824266
v -0.03693647 0.10280903 -0.00974560
v -0.03858423 0.10248789 -0.00883688
v -0.04282132 0.10083935 -0.00825614
v -0.04376289 0.10011143 -0.00919520
v -0.04318511 0.09983311 -0.01054874
v -0.04508965 0.09891250 -0.01054874
v -0.04697280 0.09799189 -0.01054874
v -0.04637362 0.09771356 -0.01181130
v -0.04819257 0.09734961 -0.01054874
v -0.05018271 0.09615067 -0.01070039
v -0.05183047 0.09557261 -0.00997812
v -0.05347823 0.09505878 -0.00895032
v -0.05640995 0.09291783 -0.00959508
v -0.05812190 0.09242541 -0.00808428
v -0.06096802 0.09015600 -0.00906827
v -0.06002644 0.09114084 -0.00818201
v -0.06002644 0.08989908 -0.01078912
v -0.06154580 0.08810068 -0.01200900
v -0.06430633 0.08580986 -0.01205056
v -0.06672446 0.08358328 -0.01207190
v -0.07402167 0.07606853 -0.01213930
v -0.07643980 0.07356362 -0.01214828
v -0.07322988 0.07771707 -0.01151251
v -0.07385048 0.07831653 -0.00986804
v -0.07547684 0.07748156 -0.00862907
v -0.07866535 0.07332811 -0.00973325
v -0.07907193 0.07382053 -0.00808428
v -0.08031309 0.07234327 -0.00808428
v -0.08099788 0.07071615 -0.00957936
v -0.08292383 0.06750472 -0.01054874
v -0.08572716 0.06300872 -0.01166078
v -0.08609094 0.06354396 -0.01001631
v -0.08857327 0.06114609 -0.00808428
v -0.08829509 0.06071790 -0.00940637
v -0.09047783 0.05776339 -0.00877285
v -0.09097001 0.05613626 -0.00988152
v -0.09355935 0.05151180 -0.00997250
v -0.09552808 0.04802205 -0.00886833
v -0.09848121 0.04215584 -0.00757656
v -0.09587048 0.04637352 -0.00973886
v -0.09809602 0.03838776 -0.01171807
v -0.10184091 0.01008437 -0.01268184
v -0.10184091 0.00762227 -0.01270992
v -0.10184091 0.00513877 -0.01271441
v -0.10181951 -0.01209590 -0.01271329
v -0.10207630 -0.01479350 -0.01244146
v -0.10184091 0.00319050 -0.01271441
v -0.10181951 -0.00963381 -0.01271666
v -0.10550022 -0.01059724 -0.00671277
v -0.10582121 -0.00971945 -0.00577820
v -0.10166972 -0.01704150 -0.01248976
v -0.10137013 -0.01950360 -0.01241225
v -0.10291088 -0.02196570 -0.00885709
v -0.10331748 -0.02196570 -0.00762374
v -0.10400226 -0.01704150 -0.00808428
v -0.10100633 -0.02196570 -0.01218198
v -0.10074955 -0.02369987 -0.01194497
v -0.10111334 -0.02691130 -0.01007921
v -0.10376686 0.01271774 -0.01077564
v -0.10316768 0.01198982 -0.01189779
v -0.10151992 0.01747066 -0.01245943
v -0.10624920 -0.01209590 -0.00251510
v -0.09580628 0.04374015 -0.01192812
v -0.09612726 0.04215584 -0.01219434
v -0.09657665 0.03969375 -0.01243472
v -0.09865240 0.03474814 -0.01228532
v -0.10051414 0.02823965 -0.01171021
v -0.10068535 0.02659111 -0.01187645
v -0.10085654 0.02487835 -0.01203146
v -0.10109193 0.02241625 -0.01222691
v 0.08371345 0.07465550 -0.00808316
v 0.07523927 0.08101413 -0.01203146
v 0.08403444 0.07249314 -0.01099019
v 0.08474063 0.07084461 -0.01202697
v 0.08238668 0.07343516 -0.01207752
v 0.07998996 0.07600430 -0.01208426
v 0.07759322 0.07859486 -0.01205842
v 0.07271415 0.08326213 -0.01200450
v 0.06988942 0.08548872 -0.01189892
v 0.06708610 0.08771531 -0.01169336
v 0.07153719 0.08488926 -0.01107893
v 0.07220056 0.08540308 -0.00943558
v 0.06944003 0.08765109 -0.00886608
v 0.06216423 0.09270374 -0.00913230
v 0.05923251 0.09486609 -0.00862121
v 0.05758476 0.09537993 -0.00967596
v 0.05232050 0.09760652 -0.01168886
v 0.04797642 0.10038976 -0.00976133
v 0.04605047 0.10190983 -0.00790905
v 0.04429572 0.10233802 -0.00861447
v 0.04264797 0.10265917 -0.00939627
v 0.03714831 0.10490716 -0.00894359
v 0.03547916 0.10522830 -0.00954791
v 0.02649140 0.10719798 -0.01063860
v 0.03389560 0.10546381 -0.01005675
v 0.02567822 0.10769040 -0.00987815
v 0.02403047 0.10743349 -0.01154172
v 0.01168300 0.10980995 -0.00884474
v 0.00920067 0.10991700 -0.00905816
v 0.00731752 0.10998123 -0.00922665
v 0.02054236 0.10756195 -0.01179445
v 0.00658994 0.10929612 -0.01030836
v 0.00425741 0.10918907 -0.01060041
v 0.00231006 0.10923189 -0.01064871
v 0.00179647 0.10923189 -0.01066332
v -0.00066446 0.10927471 -0.01062625
v -0.00066446 -0.10773226 -0.00251510
v 0.00235286 -0.10691870 -0.00555355
v 0.00673974 -0.10666178 -0.00640948
v 0.00920067 -0.10661897 -0.00640948
v 0.01157601 -0.10644769 -0.00640948
v 0.01335216 -0.10627642 -0.00640948
v 0.01583449 -0.10599809 -0.00640948
v 0.01904440 -0.10559131 -0.00640948
v 0.02531444 -0.10467070 -0.00640948
v 0.02612761 -0.10454224 -0.00640948
v 0.02649140 -0.10447801 -0.00640948
v 0.02888814 -0.10389995 -0.00640948
v 0.03062149 -0.10342895 -0.00640948
v 0.03470878 -0.10229424 -0.00640948
v 0.03509397 -0.10216578 -0.00640948
v 0.03883887 -0.10088121 -0.00640948
v 0.04100021 -0.10006765 -0.00640948
v 0.04579368 -0.09809797 -0.00640948
v 0.04804062 -0.09713454 -0.00640948
v 0.05279129 -0.09497218 -0.00640948
v 0.05752056 -0.09244586 -0.00640948
v 0.06199304 -0.08968403 -0.00640948
v 0.06505315 -0.08767153 -0.00640948
v 0.07202937 -0.08238338 -0.00640948
v 0.07235036 -0.08210506 -0.00640948
v 0.07466150 -0.08002834 -0.00640948
v 0.07971176 -0.07521119 -0.00640948
v 0.08221549 -0.07279191 -0.00640948
v 0.08454803 -0.07020136 -0.00640948
v 0.08994067 -0.06365005 -0.00640948
v 0.09227321 -0.06075976 -0.00640948
v 0.09700249 -0.05315938 -0.00640948
v 0.09961322 -0.04855633 -0.00640948
v 0.10198855 -0.04367495 -0.00640948
v 0.10284453 -0.04172669 -0.00640948
v 0.10325112 -0.04076326 -0.00640948
v 0.10427829 -0.03819412 -0.00640948
v 0.10479188 -0.03671686 -0.00640948
v 0.10905036 -0.02277926 -0.00640948
v 0.10934995 -0.02153750 -0.00640948
v 0.10973514 -0.01950360 -0.00640948
v 0.11027013 -0.01624935 -0.00640948
v 0.11052691 -0.01457941 -0.00640948
v 0.11089072 -0.01211731 -0.00640948
v 0.11151130 -0.00556600 -0.00640948
v 0.11168249 -0.00267571 -0.00640948
v 0.11172528 -0.00169087 -0.00640948
v 0.11176809 0.00023599 -0.00640948
v 0.11112611 -0.00980508 -0.00640948
v 0.11155409 0.00760086 -0.00664425
v 0.11148989 0.01008437 -0.00642408
v 0.11061252 0.01254646 -0.00808316
v 0.11005613 0.01747066 -0.00808316
v 0.10964954 0.02010403 -0.00830220
v 0.10947835 0.02241625 -0.00771136
v 0.10836558 0.02736186 -0.00808316
v 0.10770220 0.02980254 -0.00808316
v 0.10706022 0.02969549 -0.01049258
v 0.10680342 0.03142967 -0.00963440
v 0.10545527 0.03721024 -0.00808316
v 0.10466348 0.03960811 -0.00805732
v 0.10438529 0.04127805 -0.00721824
v 0.10168897 0.04817192 -0.00661055
v 0.09927082 0.05324597 -0.00681835
v 0.09437036 0.05823439 -0.01181467
v 0.09452015 0.06097482 -0.00719577
v 0.09182382 0.06553504 -0.00668468
v 0.08951269 0.06818982 -0.00711153
v 0.08720155 0.07086602 -0.00746873
v 0.08480483 0.07341375 -0.00808316
v -0.01052959 0.10803296 -0.01211571
v -0.00194843 0.11002404 -0.00932662
v -0.01301193 0.10788309 -0.01204157
v -0.01478808 0.10769040 -0.01191352
v -0.01555846 0.10809718 -0.01070937
v -0.02157169 0.10754054 -0.00928394
v -0.02782032 0.10552804 -0.01006910
v -0.02966067 0.10527113 -0.00964226
v -0.03424015 0.10270198 -0.01189779
v -0.03511753 0.10306595 -0.01055885
v -0.03588790 0.10238084 -0.01139007
v -0.04138756 0.10015425 -0.01178771
v -0.04194394 0.10038976 -0.01054874
v -0.04508965 0.09803471 -0.01203146
v -0.04943374 0.09561543 -0.01210335
v -0.05110289 0.09510160 -0.01162372
v -0.05491199 0.09338884 -0.01046899
v -0.05863549 0.09026305 -0.01177199
v -0.05932027 0.09073406 -0.01012639
v -0.05987665 0.08863593 -0.01226398
v -0.06235898 0.08662343 -0.01234036
v -0.05405601 0.09296065 -0.01201124
v -0.05698773 0.09077688 -0.01217637
v -0.06501252 0.08431120 -0.01238866
v -0.07233112 0.07681787 -0.01247515
v -0.07477065 0.07433436 -0.01249425
v -0.07723157 0.07182945 -0.01249650
v -0.07885793 0.07105870 -0.01214042
v -0.07808756 0.07270723 -0.01137772
v -0.07718878 0.07427013 -0.01058918
v -0.07626861 0.07583303 -0.00980064
v -0.08050569 0.07018091 -0.01122271
v -0.08161846 0.06930312 -0.01046000
v -0.08348022 0.06581337 -0.01194497
v -0.08401520 0.06435752 -0.01223478
v -0.08621934 0.06136019 -0.01206628
v -0.08840208 0.05840567 -0.01187196
v -0.09052062 0.05536552 -0.01152599
v -0.09002844 0.05697123 -0.01064085
v -0.09302435 0.05050556 -0.01161697
v -0.09619146 0.04459653 -0.01055661
v -0.09935858 0.01995416 -0.01307498
v -0.09935858 0.01747066 -0.01315811
v -0.09935858 0.00762227 -0.01322325
v -0.09935858 0.00513877 -0.01322999
v -0.09935858 0.00319050 -0.01323449
v -0.09989356 0.00319050 -0.01312328
v -0.09935858 0.00023599 -0.01323786
v -0.09935858 -0.01457941 -0.01323786
v -0.09935858 -0.01704150 -0.01323224
v -0.09935858 -0.01950360 -0.01315586
v -0.10567141 -0.01599244 -0.00251510
v -0.10590680 -0.01449377 -0.00251510
v -0.10389525 -0.02196570 -0.00561421
v -0.09935858 -0.02196570 -0.01291997
v -0.09689765 -0.02937339 -0.01301096
v -0.09627706 -0.03678109 -0.01234036
v -0.09865240 -0.02937339 -0.01227072
v -0.10265409 -0.02440638 -0.00802475
v -0.10316768 -0.02355000 -0.00716208
v -0.09835281 -0.03134307 -0.01201798
v -0.09809602 -0.03299160 -0.01173492
v -0.10023596 -0.02691130 -0.01131145
v -0.09567789 -0.04050634 -0.01179445
v -0.10081375 -0.02873111 -0.00964900
v -0.10130593 0.01995416 -0.01237518
v -0.09935858 0.02241625 -0.01292671
v -0.09338814 0.04887843 -0.01194272
v -0.09375193 0.04710144 -0.01218423
v -0.09210418 0.04964918 -0.01236732
v -0.09452231 0.04459653 -0.01237518
v -0.09443671 0.04215584 -0.01289189
v -0.09689765 0.03474814 -0.01298400
v -0.09890919 0.03228605 -0.01241562
v 0.08448383 0.07300697 -0.00934572
v 0.07346313 0.08174205 -0.01228308
v 0.07596686 0.07932278 -0.01233137
v 0.08508301 0.07170099 -0.01031960
v 0.08645257 0.06996682 -0.01054874
v 0.08709456 0.06825406 -0.01195283
v 0.08561800 0.06915326 -0.01231116
v 0.08322126 0.07170099 -0.01238417
v 0.08078173 0.07424872 -0.01240664
v 0.07836360 0.07677504 -0.01237968
v 0.07078821 0.08409710 -0.01218647
v 0.06843426 0.08600255 -0.01210110
v 0.06543834 0.08827196 -0.01204494
v 0.05520942 0.09542274 -0.01192925
v 0.06779227 0.08822914 -0.01004889
v 0.05970330 0.09268232 -0.01172593
v 0.05685718 0.09488751 -0.01131931
v 0.06053788 0.09321756 -0.01008258
v 0.06498895 0.09045573 -0.00966023
v 0.05364726 0.09595799 -0.01220782
v 0.05067275 0.09797048 -0.01208089
v 0.04521589 0.10023989 -0.01188094
v 0.04686365 0.09991874 -0.01140468
v 0.03886027 0.10332286 -0.01066444
v 0.03254744 0.10503562 -0.01171470
v 0.03160586 0.10576355 -0.01075430
v 0.02219012 0.10749772 -0.01172256
v 0.03092108 0.10533536 -0.01198990
v 0.02895234 0.10563509 -0.01214604
v 0.02649140 0.10595623 -0.01224264
v 0.02403047 0.10619174 -0.01233137
v 0.02144114 0.10653429 -0.01229655
v 0.01908720 0.10629878 -0.01251896
v 0.01168300 0.10777604 -0.01205056
v 0.00920067 0.10784027 -0.01209100
v 0.00179647 0.10801154 -0.01217637
v -0.00066446 0.10805437 -0.01218872
v -0.00314679 0.10807577 -0.01218198
v -0.00560773 0.10807577 -0.01216176
v -0.00806866 0.10807577 -0.01213930
v -0.00329659 -0.10766804 -0.00251510
v -0.00269740 -0.10717562 -0.00452351
v -0.00066446 -0.10683306 -0.00582987
v -0.00066446 -0.10544144 -0.01054874
v 0.00237426 -0.10544144 -0.01054874
v 0.00673974 -0.10539863 -0.01054874
v 0.00920067 -0.10535580 -0.01054874
v 0.01168300 -0.10477775 -0.01189667
v 0.01294557 -0.10467070 -0.01179108
v 0.02156954 -0.10490621 -0.00748445
v 0.02503624 -0.10462788 -0.00672962
v 0.02649140 -0.10385714 -0.00808316
v 0.02895234 -0.10330049 -0.00808316
v 0.03333922 -0.10240129 -0.00729912
v 0.03496557 -0.10212297 -0.00667907
v 0.03883887 -0.10026034 -0.00814719
v 0.04057222 -0.09993920 -0.00736764
v 0.04690645 -0.09702750 -0.00808316
v 0.05257730 -0.09486514 -0.00700482
v 0.05739216 -0.09236022 -0.00691496
v 0.05769176 -0.09013363 -0.01209886
v 0.06490336 -0.08754308 -0.00717892
v 0.07200797 -0.08236197 -0.00658247
v 0.07457590 -0.07994270 -0.00680151
v 0.07960477 -0.07510414 -0.00696213
v 0.08210850 -0.07266345 -0.00699021
v 0.08448383 -0.07011572 -0.00685654
v 0.08688056 -0.06510590 -0.01158440
v 0.09210202 -0.06052425 -0.00738336
v 0.09689549 -0.05298810 -0.00704189
v 0.09948482 -0.04827800 -0.00722610
v 0.10190295 -0.04331099 -0.00721936
v 0.10168897 -0.04042071 -0.01167875
v 0.10239514 -0.03945728 -0.01073408
v 0.10350792 -0.03902909 -0.00784053
v 0.10421409 -0.03802284 -0.00685654
v 0.10440668 -0.03658840 -0.00784053
v 0.10423549 -0.03562497 -0.00939177
v 0.10397870 -0.03476859 -0.01103512
v 0.10421409 -0.03309865 -0.01178996
v 0.10926436 -0.02115213 -0.00711378
v 0.11007754 -0.01457941 -0.00808316
v 0.11041992 -0.01211731 -0.00808316
v 0.11063392 -0.00965522 -0.00808316
v 0.10994914 -0.00717171 -0.01054874
v 0.11163970 -0.00132691 -0.00688013
v 0.11161829 0.00160619 -0.00685430
v 0.10999194 0.00760086 -0.01054874
v 0.11086931 0.01008437 -0.00808316
v 0.10956395 0.00023599 -0.01228308
v 0.10920016 0.01173290 -0.01186073
v 0.10956395 0.01254646 -0.01072622
v 0.10937135 0.01747066 -0.00981300
v 0.10911456 0.02104605 -0.00927270
v 0.10761660 0.02736186 -0.01054874
v 0.10924296 0.01939751 -0.00952432
v 0.10676063 0.02879629 -0.01188656
v 0.10646103 0.03044483 -0.01127887
v 0.10432110 0.03870891 -0.00950635
v 0.10400010 0.04037885 -0.00886159
v 0.10171036 0.04577405 -0.00924462
v 0.10147497 0.04725131 -0.00828647
v 0.10049060 0.04956354 -0.00808316
v 0.09698109 0.05363135 -0.01192138
v 0.09475556 0.05697123 -0.01201574
v 0.09302219 0.05919782 -0.01218086
v 0.09214482 0.06106045 -0.01202023
v 0.08934150 0.06551363 -0.01167988
v 0.08979089 0.06609169 -0.01003653
v 0.09150284 0.06502121 -0.00808316
v 0.08917030 0.06771881 -0.00875600
v 0.08818593 0.06930312 -0.00811349
v 0.08683776 0.07041641 -0.00911320
v -0.00314679 0.10632020 -0.01283011
v -0.00560773 0.10632020 -0.01278518
v -0.01052959 0.10632020 -0.01268858
v -0.01301193 0.10632020 -0.01259085
v -0.02287706 0.10385810 -0.01279304
v -0.03028126 0.10323722 -0.01234486
v -0.02287706 0.10651288 -0.01054874
v -0.02287706 0.10542100 -0.01210335
v -0.03276359 0.10293749 -0.01211346
v -0.02461041 0.10520690 -0.01192026
v -0.02540219 0.10578495 -0.01070937
v -0.02782032 0.10477871 -0.01130358
v -0.02623677 0.10497139 -0.01164056
v -0.03768545 0.10083935 -0.01233699
v -0.04014639 0.10038976 -0.01199552
v -0.04733659 0.09645041 -0.01227184
v -0.04237193 0.09893391 -0.01224488
v -0.05247245 0.09345307 -0.01230329
v -0.05987665 0.08655920 -0.01294019
v -0.05491199 0.09156903 -0.01243584
v -0.06233759 0.08411851 -0.01299860
v -0.06481992 0.08163501 -0.01303454
v -0.06728086 0.07917292 -0.01306263
v -0.07222412 0.07420590 -0.01309745
v -0.07468505 0.07176522 -0.01310531
v -0.07962831 0.06684103 -0.01309183
v -0.07967111 0.06930312 -0.01248639
v -0.08123328 0.06853238 -0.01212919
v -0.08208925 0.06435752 -0.01293345
v -0.08476418 0.06206670 -0.01249425
v -0.08703252 0.05932628 -0.01227971
v -0.08206785 0.06671257 -0.01236957
v -0.08883007 0.05697123 -0.01208763
v -0.09092722 0.05371699 -0.01190678
v -0.09689765 0.03228605 -0.01311430
v -0.09689765 0.02982395 -0.01317383
v -0.09689765 0.00319050 -0.01327717
v -0.09741123 0.00319050 -0.01326931
v -0.09689765 -0.00222611 -0.01329290
v -0.09443671 -0.00963381 -0.01335356
v -0.08208925 -0.04172669 -0.01364898
v -0.08208925 -0.04418879 -0.01364898
v -0.07960692 -0.04913438 -0.01370739
v -0.09443671 -0.02444920 -0.01335356
v -0.09689765 -0.02196570 -0.01328953
v -0.09689765 -0.02444920 -0.01327156
v -0.09689765 -0.02691130 -0.01320978
v -0.09443671 -0.03678109 -0.01309183
v -0.10507222 -0.01950360 -0.00251510
v -0.10464423 -0.02194429 -0.00251510
v -0.10479403 -0.02113072 -0.00251510
v -0.09443671 -0.03924318 -0.01274586
v -0.09447952 -0.04149119 -0.01234036
v -0.09587048 -0.03924318 -0.01201686
v -0.10190511 -0.02691130 -0.00808428
v -0.10291088 -0.02519853 -0.00624436
v -0.10333887 -0.02440638 -0.00550076
v -0.10389525 -0.02444920 -0.00314638
v -0.10404506 -0.02444920 -0.00251510
v -0.09533549 -0.04215488 -0.01096772
v -0.09589187 -0.04149119 -0.01030499
v -0.09764662 -0.03924318 -0.00805508
v -0.10051414 -0.03037964 -0.00897953
v -0.09362353 -0.04418879 -0.01217637
v -0.09325974 -0.04555899 -0.01186971
v -0.09137659 0.05202563 -0.01213705
v -0.08962184 0.05453055 -0.01232688
v -0.08949344 0.05202563 -0.01283685
v -0.09195438 0.04710144 -0.01288403
v -0.09443671 0.03969375 -0.01313339
v 0.07089520 0.08163501 -0.01282225
v 0.06843426 0.08411851 -0.01268970
v 0.08076033 0.07176522 -0.01303230
v 0.07829940 0.07422731 -0.01300309
v 0.07335614 0.07917292 -0.01288290
v 0.08747975 0.06872507 -0.01054874
v 0.08880652 0.06688384 -0.01073408
v 0.08991928 0.06386510 -0.01218198
v 0.08760815 0.06684103 -0.01225836
v 0.08570359 0.06684103 -0.01295704
v 0.08322126 0.06930312 -0.01301208
v 0.06103006 0.08902130 -0.01280427
v 0.05364726 0.09396689 -0.01289750
v 0.06342680 0.08906411 -0.01225612
v 0.05606540 0.09403113 -0.01231677
v 0.05137893 0.09666449 -0.01249425
v 0.04870400 0.09833444 -0.01235496
v 0.04376073 0.10049680 -0.01211571
v 0.03806849 0.10278762 -0.01195733
v 0.04127840 0.10094640 -0.01236732
v 0.03637793 0.10139600 -0.01285594
v 0.02895234 0.10383669 -0.01282674
v 0.02649140 0.10383669 -0.01294131
v 0.02403047 0.10383669 -0.01303005
v 0.02154814 0.10383669 -0.01311430
v 0.01414394 0.10629878 -0.01268184
v 0.00425741 0.10794732 -0.01215390
v 0.01168300 0.10629878 -0.01274923
v 0.00920067 0.10629878 -0.01278967
v 0.00231006 0.10766899 -0.01231453
v 0.00425741 0.10629878 -0.01285258
v 0.00231006 0.10632020 -0.01286268
v 0.00179647 0.10632020 -0.01286718
v -0.00066446 0.10632020 -0.01285931
v -0.00434516 -0.10711139 -0.00437636
v -0.01016580 -0.10704716 -0.00251510
v -0.00338219 -0.10687588 -0.00545582
v -0.00314679 -0.10488479 -0.01204607
v 0.00237426 -0.10503466 -0.01173716
v 0.00673974 -0.10490621 -0.01204719
v 0.00920067 -0.10488479 -0.01201798
v 0.00920067 -0.10340753 -0.01293008
v 0.01168300 -0.10340753 -0.01273912
v 0.02156954 -0.10096685 -0.01332098
v 0.02895234 -0.10060289 -0.01275260
v 0.03141327 -0.10034598 -0.01261107
v 0.02625601 -0.10263680 -0.01062176
v 0.02529303 -0.10218719 -0.01179445
v 0.02895234 -0.10246552 -0.00981749
v 0.03389560 -0.10002483 -0.01227409
v 0.03389560 -0.10083840 -0.01054874
v 0.03627094 -0.10013188 -0.01052291
v 0.03635654 -0.10113813 -0.00808316
v 0.03701992 -0.09953241 -0.01132942
v 0.03967345 -0.09957523 -0.00901098
v 0.04508750 -0.09728441 -0.00939627
v 0.05300528 -0.09257432 -0.01208313
v 0.04870400 -0.09621393 -0.00808316
v 0.05610820 -0.09060464 -0.01251335
v 0.05852633 -0.08865637 -0.01272227
v 0.06045228 -0.08788563 -0.01229992
v 0.06481776 -0.08497393 -0.01187645
v 0.06210004 -0.08724334 -0.01151026
v 0.06530995 -0.08538071 -0.01054874
v 0.06980382 -0.08255466 -0.00951309
v 0.07153719 -0.08199801 -0.00808316
v 0.07459730 -0.07750201 -0.01177985
v 0.07299233 -0.08075626 -0.00808316
v 0.07423351 -0.07966437 -0.00808316
v 0.07583846 -0.07825134 -0.00786749
v 0.07502529 -0.07793020 -0.01013650
v 0.07710103 -0.07508273 -0.01182590
v 0.08208709 -0.07020136 -0.01189105
v 0.08456942 -0.06773927 -0.01190341
v 0.08972669 -0.06067412 -0.01209549
v 0.09195222 -0.05789088 -0.01187645
v 0.08912750 -0.06232265 -0.01113509
v 0.09173823 -0.06005324 -0.00902783
v 0.09415636 -0.05504341 -0.01128336
v 0.09676709 -0.05026909 -0.01163382
v 0.09922803 -0.04534490 -0.01167651
v 0.09715228 -0.04864197 -0.01215502
v 0.09961322 -0.04371777 -0.01211121
v 0.10205275 -0.03877217 -0.01205842
v 0.10361491 -0.03658840 -0.01034768
v 0.10241654 -0.03678109 -0.01234149
v 0.10307992 -0.03408349 -0.01246392
v 0.10464209 -0.02939480 -0.01231228
v 0.10665362 -0.02312181 -0.01173155
v 0.10733840 -0.02215838 -0.01076441
v 0.10926436 -0.01629217 -0.00960856
v 0.10945696 -0.01457941 -0.01000620
v 0.10952116 -0.01188181 -0.01067904
v 0.10975655 -0.00965522 -0.01054874
v 0.10939276 -0.00717171 -0.01205280
v 0.10949975 -0.00470962 -0.01220220
v 0.10956395 -0.00222611 -0.01228981
v 0.10926436 0.01008437 -0.01195171
v 0.10986354 0.01008437 -0.01054874
v 0.10947835 0.00319050 -0.01219883
v 0.10791619 0.00023599 -0.01321764
v 0.10791619 0.00265526 -0.01316821
v 0.10791619 0.00319050 -0.01315136
v 0.10791619 0.00513877 -0.01308621
v 0.10915735 0.00319050 -0.01240214
v 0.10907177 0.01338144 -0.01166752
v 0.10740260 0.01993275 -0.01245044
v 0.10723141 0.02241625 -0.01236171
v 0.10706022 0.02487835 -0.01222467
v 0.10688903 0.02736186 -0.01204157
v 0.10800179 0.02487835 -0.01054874
v 0.10834418 0.02241625 -0.01054874
v 0.10556226 0.02969549 -0.01240327
v 0.10487748 0.03228605 -0.01235384
v 0.10451369 0.03427713 -0.01207976
v 0.10417129 0.03592567 -0.01173267
v 0.10203135 0.04414693 -0.00983547
v 0.09927082 0.04834319 -0.01178547
v 0.09563293 0.05446632 -0.01226735
v 0.10190295 0.04127805 -0.01193711
v 0.10220254 0.03969375 -0.01217973
v 0.09995560 0.04461793 -0.01226510
v 0.09805106 0.04708003 -0.01262006
v 0.09556873 0.05202563 -0.01273575
v 0.09071106 0.06189542 -0.01244483
v 0.09310780 0.05697123 -0.01266162
v -0.01793379 0.10385810 -0.01298175
v -0.02041612 0.10385810 -0.01294356
v -0.03028126 0.10139600 -0.01304353
v -0.03276359 0.10139600 -0.01281101
v -0.03768545 0.09891250 -0.01303454
v -0.04014639 0.09891250 -0.01269419
v -0.04508965 0.09645041 -0.01272901
v -0.05018271 0.09418099 -0.01253357
v -0.05247245 0.09150480 -0.01300197
v -0.05495479 0.08904271 -0.01312665
v -0.06974178 0.07668940 -0.01308172
v -0.05987665 0.08411851 -0.01315811
v -0.06481992 0.07917292 -0.01317832
v -0.07962831 0.06435752 -0.01318057
v -0.07714599 0.06930312 -0.01309970
v -0.06728086 0.07668940 -0.01318057
v -0.08208925 0.06189542 -0.01315811
v -0.08457158 0.05943333 -0.01303679
v -0.08701111 0.05697123 -0.01277956
v -0.09443671 0.03723165 -0.01318057
v -0.07468505 -0.05159648 -0.01380399
v -0.07468505 -0.05403717 -0.01381297
v -0.08208925 -0.03678109 -0.01363999
v -0.09195438 -0.01457941 -0.01341084
v -0.07468505 -0.05652067 -0.01381859
v -0.07468505 -0.05898277 -0.01382084
v -0.09443671 -0.02691130 -0.01334569
v -0.09195438 -0.03431899 -0.01337490
v -0.09443671 -0.03183549 -0.01329290
v -0.09443671 -0.03431899 -0.01324123
v -0.07714599 -0.05652067 -0.01375569
v -0.08455019 -0.04665088 -0.01355462
v -0.09195438 -0.04172669 -0.01324572
v -0.09195438 -0.04418879 -0.01292896
v -0.10098494 -0.03423336 -0.00251510
v -0.10312488 -0.02584082 -0.00459989
v -0.10338168 -0.02659015 -0.00251510
v -0.09475770 -0.04395328 -0.01030499
v -0.09565648 -0.04294703 -0.00932213
v -0.09664085 -0.04172669 -0.00808428
v -0.09796762 -0.04005674 -0.00626907
v -0.09824582 -0.03840821 -0.00721262
v -0.09927298 -0.03678109 -0.00561421
v -0.10012897 -0.03678109 -0.00251510
v -0.08949344 -0.04913438 -0.01279304
v -0.09105561 -0.04913438 -0.01205617
v -0.09073462 -0.05039755 -0.01180344
v -0.09353794 -0.04611564 -0.01054874
v -0.08701111 0.05450914 -0.01306824
v -0.09195438 0.04463935 -0.01311317
v -0.08457158 0.05697123 -0.01317271
v -0.08701111 0.05202563 -0.01318057
v 0.06595193 0.08411851 -0.01301657
v 0.06349100 0.08658061 -0.01294244
v 0.07089520 0.07917292 -0.01310194
v 0.08570359 0.06435752 -0.01317945
v 0.08322126 0.06684103 -0.01317945
v 0.08076033 0.06930312 -0.01317720
v 0.07829940 0.07176522 -0.01316260
v 0.06843426 0.08163501 -0.01306937
v 0.09064686 0.05941192 -0.01295592
v 0.08816453 0.06189542 -0.01313002
v 0.05610820 0.09150480 -0.01303904
v 0.04870400 0.09645041 -0.01305364
v 0.04376073 0.09891250 -0.01281551
v 0.04127840 0.09891250 -0.01306600
v 0.03389560 0.10139600 -0.01301320
v 0.03143467 0.10139600 -0.01309970
v 0.01908720 0.10383669 -0.01316709
v 0.03881747 0.09891250 -0.01315473
v 0.02895234 0.10139600 -0.01316147
v 0.00673974 0.10629878 -0.01282449
v 0.01660487 0.10383669 -0.01317945
v 0.00231006 0.10582778 -0.01293008
v 0.00231006 0.10385810 -0.01317271
v 0.00179647 0.10385810 -0.01317046
v -0.00066446 0.10385810 -0.01315024
v -0.00314679 0.10385810 -0.01312890
v -0.01547286 0.10385810 -0.01300759
v -0.01059379 -0.10687588 -0.00301271
v -0.01055099 -0.10619078 -0.00561421
v -0.01301193 -0.10668320 -0.00251510
v -0.00066446 -0.10488479 -0.01208650
v -0.00460195 -0.10475634 -0.01192700
v -0.01793379 -0.10240129 -0.01218086
v -0.01547286 -0.10255116 -0.01245718
v -0.01301193 -0.10270103 -0.01263017
v -0.00314679 -0.10340753 -0.01313676
v -0.00066446 -0.10340753 -0.01318506
v 0.00237426 -0.10490621 -0.01207639
v 0.00425741 -0.10490621 -0.01206404
v 0.00237426 -0.10375009 -0.01291211
v 0.00179647 -0.10340753 -0.01315586
v 0.00237426 -0.10340753 -0.01314350
v 0.00425741 -0.10340753 -0.01309970
v 0.00673974 -0.10340753 -0.01302556
v 0.01908720 -0.10096685 -0.01349396
v 0.03141327 -0.09848335 -0.01371525
v 0.03389560 -0.09848335 -0.01337714
v 0.02694079 -0.10201591 -0.01149229
v 0.02895234 -0.10182323 -0.01104860
v 0.03627094 -0.09861181 -0.01273800
v 0.03883887 -0.09792670 -0.01261781
v 0.03537216 -0.09978933 -0.01194272
v 0.03883887 -0.09921127 -0.01052291
v 0.04076482 -0.09754133 -0.01219883
v 0.04241257 -0.09719877 -0.01169111
v 0.04378213 -0.09694186 -0.01115756
v 0.04378213 -0.09756274 -0.00992533
v 0.04771963 -0.09488655 -0.01192363
v 0.04622167 -0.09518628 -0.01229768
v 0.05116493 -0.09291687 -0.01247403
v 0.05375426 -0.09126834 -0.01279978
v 0.05610820 -0.08861355 -0.01361528
v 0.06349100 -0.08368936 -0.01344117
v 0.06839147 -0.08122726 -0.01275373
v 0.07025321 -0.08043512 -0.01232688
v 0.06753549 -0.08270452 -0.01212020
v 0.07190097 -0.07981424 -0.01149229
v 0.07247876 -0.08028525 -0.00984782
v 0.07294954 -0.07816571 -0.01245943
v 0.07583846 -0.07566079 -0.01234598
v 0.08054634 -0.07116479 -0.01227858
v 0.08324267 -0.06641188 -0.01319742
v 0.08510441 -0.06641188 -0.01223927
v 0.08747975 -0.06343595 -0.01224151
v 0.08305007 -0.06868128 -0.01224601
v 0.08825013 -0.06148768 -0.01263803
v 0.09058266 -0.05881149 -0.01238192
v 0.09242302 -0.05652067 -0.01221905
v 0.09466995 -0.05341629 -0.01209100
v 0.09225182 -0.05834048 -0.01054874
v 0.09139584 -0.05956083 -0.01054874
v 0.09764447 -0.04667229 -0.01254817
v 0.09516214 -0.05159648 -0.01249537
v 0.10010540 -0.04172669 -0.01245381
v 0.10072599 -0.03945728 -0.01271778
v 0.10051200 -0.03678109 -0.01342994
v 0.10297292 -0.03185690 -0.01300983
v 0.10496307 -0.02691130 -0.01258861
v 0.10684622 -0.02145187 -0.01195957
v 0.10900757 -0.01256691 -0.01158889
v 0.10881497 -0.01457941 -0.01123843
v 0.10915735 -0.01091838 -0.01178771
v 0.10924296 -0.00965522 -0.01187870
v 0.10759520 -0.01457941 -0.01248976
v 0.10791619 -0.00965522 -0.01273126
v 0.10791619 -0.00717171 -0.01293233
v 0.10791619 -0.00470962 -0.01310082
v 0.10791619 -0.00222611 -0.01320641
v 0.10791619 0.00760086 -0.01296602
v 0.10545527 0.00265526 -0.01383769
v 0.10545527 0.00513877 -0.01382084
v 0.10545527 0.02241625 -0.01306038
v 0.10545527 0.02487835 -0.01292334
v 0.10545527 0.02736186 -0.01274137
v 0.10297292 0.03228605 -0.01305252
v 0.10051200 0.03969375 -0.01287953
v 0.09805106 0.04461793 -0.01296378
v 0.09556873 0.04956354 -0.01297726
v 0.09310780 0.05448773 -0.01298400
v -0.02782032 0.10139600 -0.01312778
v -0.03520312 0.09891250 -0.01317383
v -0.04262872 0.09645041 -0.01305589
v -0.04755059 0.09398830 -0.01307049
v -0.05003292 0.09150480 -0.01318057
v -0.05247245 -0.03924318 -0.01398596
v -0.05493339 -0.03924318 -0.01397135
v -0.05739432 -0.03924318 -0.01394889
v -0.06481992 -0.06144487 -0.01396798
v -0.06728086 -0.06641188 -0.01396237
v -0.06974178 -0.06392837 -0.01391968
v -0.07222412 -0.06144487 -0.01387475
v -0.07222412 -0.06392837 -0.01387475
v -0.08949344 -0.03924318 -0.01342544
v -0.08208925 -0.05159648 -0.01360517
v -0.09195438 -0.03924318 -0.01330413
v -0.08455019 -0.04913438 -0.01352317
v -0.07468505 -0.06144487 -0.01380736
v -0.07960692 -0.05403717 -0.01368155
v -0.08949344 -0.04418879 -0.01335131
v -0.08701111 -0.04913438 -0.01335805
v -0.08949344 -0.04665088 -0.01321090
v -0.08701111 -0.05159648 -0.01308397
v -0.09317415 -0.04784981 -0.00926147
v -0.09347374 -0.04847069 -0.00761812
v -0.09587048 -0.04339663 -0.00808428
v -0.09753963 -0.04155541 -0.00551423
v -0.09818162 -0.04063480 -0.00462348
v -0.09942278 -0.03879358 -0.00251510
v -0.08940785 -0.05138238 -0.01219771
v -0.08455019 -0.05652067 -0.01287953
v -0.08716092 -0.05412280 -0.01243696
v -0.08855188 -0.05337347 -0.01199776
v -0.09101280 -0.05088997 -0.01054874
v -0.08589835 -0.05791229 -0.01185399
v -0.08808109 -0.05500060 -0.01150577
v -0.08846628 -0.05562147 -0.00986242
v -0.09062761 -0.05264555 -0.00907725
v 0.05854773 0.08902130 -0.01310756
v 0.10297292 0.00513877 -0.01396012
v 0.06843426 0.07917292 -0.01317945
v 0.05364726 0.09150480 -0.01317046
v 0.06595193 0.08163501 -0.01316709
v 0.09064686 0.05697123 -0.01312665
v 0.05116493 0.09396689 -0.01314575
v 0.04622167 0.09645041 -0.01317832
v 0.03637793 0.09891250 -0.01317945
v 0.00425741 0.10383669 -0.01317945
v 0.10297292 0.00265526 -0.01398933
v -0.02041612 0.10139600 -0.01317945
v -0.02287706 0.10139600 -0.01317046
v -0.02533799 0.10139600 -0.01315024
v -0.01301193 -0.10586964 -0.00561421
v -0.01461688 -0.10638346 -0.00251510
v -0.01547286 -0.10606232 -0.00314638
v -0.01301193 -0.10512030 -0.00773607
v -0.01951735 -0.10227283 -0.01192925
v -0.02961787 -0.09985356 -0.01194272
v -0.02533799 -0.10034598 -0.01246280
v -0.02287706 -0.10062430 -0.01271329
v -0.01793379 -0.10096685 -0.01328391
v -0.01547286 -0.10096685 -0.01356024
v -0.01301193 -0.10096685 -0.01373322
v -0.01055099 -0.10096685 -0.01385678
v -0.00806866 -0.10096685 -0.01392755
v -0.00560773 -0.10096685 -0.01395675
v -0.00314679 -0.10096685 -0.01397697
v -0.00066446 -0.10096685 -0.01398259
v 0.00179647 -0.10096685 -0.01396237
v 0.00237426 -0.10096685 -0.01395338
v 0.00425741 -0.10096685 -0.01392305
v 0.00673974 -0.10096685 -0.01386464
v 0.00920067 -0.10096685 -0.01379725
v 0.01168300 -0.10096685 -0.01372873
v 0.01662627 -0.10096685 -0.01358944
v 0.02895234 -0.09848335 -0.01385566
v 0.03635654 -0.09602125 -0.01396012
v 0.03883887 -0.09602125 -0.01371974
v 0.04378213 -0.09570011 -0.01273351
v 0.05116493 -0.09107565 -0.01357708
v 0.04622167 -0.09353774 -0.01339736
v 0.04870400 -0.09107565 -0.01389946
v 0.05362587 -0.08861355 -0.01393092
v 0.05854773 -0.08613005 -0.01382420
v 0.06595193 -0.08120586 -0.01368043
v 0.07100219 -0.07889363 -0.01295704
v 0.07359153 -0.07649576 -0.01305476
v 0.07583846 -0.07379816 -0.01340635
v 0.07829940 -0.07133606 -0.01338051
v 0.08076033 -0.06885256 -0.01330301
v 0.08570359 -0.06146627 -0.01369728
v 0.08816453 -0.05898277 -0.01350295
v 0.08591759 -0.06414247 -0.01277395
v 0.09062547 -0.05652067 -0.01321427
v 0.09323619 -0.05414421 -0.01268858
v 0.09578272 -0.04934848 -0.01283235
v 0.09556873 -0.04667229 -0.01365347
v 0.09826505 -0.04440288 -0.01280989
v 0.09310780 -0.05159648 -0.01358270
v 0.09805106 -0.04172669 -0.01355574
v 0.10051200 -0.03431899 -0.01373097
v 0.10297292 -0.02939480 -0.01341533
v 0.10526267 -0.02444920 -0.01273575
v 0.10733840 -0.01704150 -0.01234935
v 0.10706022 -0.01950360 -0.01215727
v 0.10545527 -0.01950360 -0.01320641
v 0.10545527 -0.01704150 -0.01341870
v 0.10545527 -0.01457941 -0.01357484
v 0.10545527 0.00023599 -0.01382196
v 0.10545527 -0.01211731 -0.01367930
v 0.10545527 -0.00965522 -0.01373771
v 0.10545527 -0.00717171 -0.01376467
v 0.10297292 -0.01457941 -0.01397248
v 0.10297292 -0.01211731 -0.01398371
v 0.10297292 -0.00965522 -0.01398933
v 0.09805106 0.04215584 -0.01311654
v 0.10051200 0.03721024 -0.01311317
v 0.10297292 0.02980254 -0.01317832
v -0.03276359 0.09891250 -0.01318057
v -0.04014639 0.09645041 -0.01318057
v 0.00425741 -0.00717171 -0.01398933
v -0.01055099 -0.01457941 -0.01398596
v -0.05003292 -0.03678109 -0.01398259
v -0.05003292 -0.03924318 -0.01399045
v -0.05247245 -0.04172669 -0.01399045
v -0.05493339 -0.04172669 -0.01398259
v -0.05739432 -0.04418879 -0.01397023
v -0.05987665 -0.05159648 -0.01397697
v -0.06481992 -0.06392837 -0.01397697
v -0.06728086 -0.06885256 -0.01397023
v -0.06974178 -0.06641188 -0.01392755
v -0.06728086 -0.07131466 -0.01397697
v -0.06974178 -0.06885256 -0.01391744
v -0.07714599 -0.05898277 -0.01373210
v -0.07960692 -0.05652067 -0.01365010
v -0.07222412 -0.06641188 -0.01384330
v -0.08455019 -0.05159648 -0.01346139
v -0.07960692 -0.05898277 -0.01356024
v -0.08208925 -0.05652067 -0.01345015
v -0.08455019 -0.05403717 -0.01329065
v -0.08208925 -0.05898277 -0.01315024
v -0.09283176 -0.04922002 -0.00829433
v -0.09306715 -0.05011922 -0.00640499
v -0.09552808 -0.04517362 -0.00640836
v -0.09621286 -0.04427442 -0.00559623
v -0.09792482 -0.04251884 -0.00251510
v -0.09824582 -0.04181233 -0.00251510
v -0.09925159 -0.03924318 -0.00251510
v -0.08634774 -0.05652067 -0.01211346
v -0.07960692 -0.06392837 -0.01289526
v -0.08223904 -0.06157332 -0.01247291
v -0.08455019 -0.05883290 -0.01225499
v -0.09150499 -0.05174635 -0.00818987
v -0.08371561 -0.06078117 -0.01202585
v -0.08091229 -0.06523435 -0.01183938
v -0.08315922 -0.06245111 -0.01148218
v -0.08829509 -0.05782665 -0.00696775
v -0.08574855 -0.06018170 -0.00921542
v -0.09094861 -0.05313797 -0.00743728
v 0.05610820 0.08902130 -0.01317945
v 0.08816453 0.00265526 -0.01398933
v 0.00235286 -0.00963381 -0.01399045
v 0.04378213 -0.00222611 -0.01398933
v 0.02156954 -0.00470962 -0.01398933
v -0.01547286 -0.10539863 -0.00561421
v -0.01547286 -0.10488479 -0.00730585
v -0.01731321 -0.10586964 -0.00251510
v -0.02116510 -0.10208015 -0.01153385
v -0.02037332 -0.10263680 -0.01064647
v -0.03126563 -0.09961805 -0.01152599
v -0.03685088 -0.09743428 -0.01195171
v -0.03520312 -0.09775542 -0.01215390
v -0.02782032 -0.09848335 -0.01318169
v -0.02782032 -0.10004624 -0.01217412
v -0.02287706 -0.10242270 -0.00985681
v -0.02525239 -0.10160913 -0.01038811
v -0.02435362 -0.10223001 -0.00946254
v -0.02600137 -0.10203733 -0.00894920
v -0.02533799 -0.09848335 -0.01356024
v -0.02287706 -0.09848335 -0.01381859
v -0.02041612 -0.09848335 -0.01396237
v -0.01793379 -0.09848335 -0.01399045
v 0.00235286 -0.09848335 -0.01399045
v 0.01908720 -0.09848335 -0.01398933
v 0.02156954 -0.09848335 -0.01398596
v 0.02400907 -0.09848335 -0.01397248
v 0.02649140 -0.09848335 -0.01393653
v 0.03389560 -0.09602125 -0.01398933
v 0.04129980 -0.09353774 -0.01398034
v 0.04378213 -0.09353774 -0.01383656
v 0.05116493 -0.08861355 -0.01398933
v 0.05610820 -0.08613005 -0.01398820
v 0.06103006 -0.08368936 -0.01393204
v 0.04622167 -0.09107565 -0.01398596
v 0.06841287 -0.07874376 -0.01384667
v 0.07335614 -0.07379816 -0.01396911
v 0.07583846 -0.07133606 -0.01394552
v 0.07089520 -0.07626026 -0.01394552
v 0.07829940 -0.06885256 -0.01391631
v 0.08324267 -0.06392837 -0.01377927
v 0.08816453 -0.05652067 -0.01388037
v 0.09062547 -0.05405858 -0.01378714
v 0.09310780 -0.04913438 -0.01391856
v 0.09556873 -0.04418879 -0.01392305
v 0.09805106 -0.03926459 -0.01384667
v 0.10051200 -0.03185690 -0.01392979
v 0.10297292 -0.02691130 -0.01369278
v 0.10297292 -0.02444920 -0.01383881
v 0.10297292 -0.01704150 -0.01395451
v 0.10297292 -0.02198710 -0.01390396
v 0.10297292 -0.01950360 -0.01393541
v 0.10051200 -0.02939480 -0.01398820
v 0.10051200 -0.02691130 -0.01398933
v 0.00179647 -0.00963381 -0.01399045
v -0.02041612 -0.02196570 -0.01399045
v -0.05493339 -0.04665088 -0.01399045
v -0.05739432 -0.04913438 -0.01398596
v -0.06481992 -0.06641188 -0.01398371
v -0.06481992 -0.07131466 -0.01399045
v -0.06481992 -0.07379816 -0.01398596
v -0.06728086 -0.07379816 -0.01383769
v -0.06974178 -0.07131466 -0.01382308
v -0.07468505 -0.06392837 -0.01375344
v -0.07714599 -0.06144487 -0.01366245
v -0.07222412 -0.06885256 -0.01373771
v -0.07468505 -0.06641188 -0.01362089
v -0.07714599 -0.06392837 -0.01350183
v -0.07960692 -0.06144487 -0.01335018
v -0.07714599 -0.06641188 -0.01315024
v -0.09253217 -0.05146802 -0.00559623
v -0.09330255 -0.05054742 -0.00476164
v -0.09447952 -0.04913438 -0.00314638
v -0.09713304 -0.04416737 -0.00251510
v -0.07949992 -0.06621919 -0.01223478
v -0.08138307 -0.06392837 -0.01211571
v -0.07860115 -0.06788913 -0.01200226
v -0.07791637 -0.06953766 -0.01054874
v -0.07894353 -0.06829591 -0.01054874
v -0.08324481 -0.06506307 -0.00662740
v -0.08352301 -0.06294353 -0.00983659
v -0.08850907 -0.05812639 -0.00561421
v -0.09281035 -0.05219595 -0.00314638
v -0.08386539 -0.06343595 -0.00808428
v -0.08420779 -0.06412106 -0.00573103
v -0.08763170 -0.05936814 -0.00561421
v -0.02533799 -0.10332190 -0.00561421
v -0.01859717 -0.10452083 -0.00640162
v -0.01694942 -0.10469211 -0.00697674
v -0.02041612 -0.10364304 -0.00808428
v -0.02225647 -0.10482057 -0.00251510
v -0.02722114 -0.10235847 -0.00731035
v -0.02886889 -0.10214438 -0.00664762
v -0.03614470 -0.09961805 -0.00647014
v -0.04162295 -0.09737005 -0.00715421
v -0.04658761 -0.09490795 -0.00714523
v -0.04906994 -0.09246727 -0.00958161
v -0.04168714 -0.09495078 -0.01192925
v -0.05230126 -0.08863496 -0.01247291
v -0.05003292 -0.08863496 -0.01320416
v -0.04508965 -0.09109706 -0.01320079
v -0.04014639 -0.09353774 -0.01314463
v -0.03520312 -0.09599984 -0.01304802
v -0.03276359 -0.09599984 -0.01343555
v -0.02525239 -0.10255116 -0.00811349
v -0.03028126 -0.09599984 -0.01370177
v -0.04014639 -0.09109706 -0.01385116
v -0.02782032 -0.09599984 -0.01389385
v -0.03276359 -0.09353774 -0.01393878
v -0.03768545 -0.09109706 -0.01397023
v -0.02533799 -0.09599984 -0.01398483
v -0.03028126 -0.09353774 -0.01399045
v 0.09805106 -0.03431899 -0.01398933
v 0.09310780 -0.04667229 -0.01398933
v 0.08816453 -0.05405858 -0.01398933
v 0.07829940 -0.06641188 -0.01398933
v 0.06595193 -0.07874376 -0.01398933
v 0.06349100 -0.08120586 -0.01397922
v 0.08076033 -0.06392837 -0.01398820
v 0.08324267 -0.06146627 -0.01396574
v 0.08570359 -0.05898277 -0.01392755
v 0.09062547 -0.05159648 -0.01397360
v 0.09556873 -0.04172669 -0.01398820
v 0.09805106 -0.03678109 -0.01397472
v -0.06233759 -0.06144487 -0.01398596
v -0.05247245 -0.08366795 -0.01399045
v -0.06233759 -0.07628167 -0.01397697
v -0.05987665 -0.07872236 -0.01396012
v -0.05739432 -0.08120586 -0.01393429
v -0.05493339 -0.08366795 -0.01390396
v -0.06481992 -0.07628167 -0.01380511
v -0.06974178 -0.07379816 -0.01333895
v -0.07222412 -0.07131466 -0.01336703
v -0.07468505 -0.06885256 -0.01332772
v -0.07710319 -0.06876692 -0.01242573
v -0.09351654 -0.05095420 -0.00314638
v -0.09396593 -0.05044037 -0.00251510
v -0.09495030 -0.04853492 -0.00251510
v -0.07626861 -0.07043686 -0.01210897
v -0.07667519 -0.07088647 -0.01054874
v -0.07857975 -0.07032982 -0.00731259
v -0.08253864 -0.06630482 -0.00573103
v -0.08283823 -0.06703275 -0.00314638
v -0.08294522 -0.06716121 -0.00251510
v -0.08356581 -0.06636905 -0.00251510
v -0.08380120 -0.06579100 -0.00314638
v -0.08606954 -0.06294353 -0.00251510
v -0.08887286 -0.05866163 -0.00314638
v -0.08812388 -0.06003183 -0.00251510
v -0.09289595 -0.05232440 -0.00251510
v -0.09334535 -0.05155366 -0.00251510
v -0.09358074 -0.05114688 -0.00251510
v -0.02782032 -0.10338613 -0.00314638
v -0.02794872 -0.10263680 -0.00574001
v -0.02533799 -0.10415687 -0.00251510
v -0.02696435 -0.10377150 -0.00251510
v -0.03032406 -0.10276525 -0.00251510
v -0.03843443 -0.09987496 -0.00251510
v -0.04014639 -0.09841912 -0.00561421
v -0.04200814 -0.09762696 -0.00561421
v -0.04705840 -0.09516487 -0.00561421
v -0.04829957 -0.09452258 -0.00561421
v -0.05135968 -0.09236022 -0.00698347
v -0.05388482 -0.08994094 -0.00948613
v -0.05619595 -0.08739321 -0.01180119
v -0.05138108 -0.08991954 -0.01185286
v -0.04817117 -0.09197485 -0.01122832
v -0.05493339 -0.08769295 -0.01210672
v -0.05938447 -0.08527367 -0.01209212
v -0.05718033 -0.08610864 -0.01235384
v -0.05493339 -0.08615146 -0.01312553
v -0.05247245 -0.08615146 -0.01369615
v -0.04755059 -0.08863496 -0.01367369
v -0.04262872 -0.09109706 -0.01362651
v -0.03768545 -0.09353774 -0.01354676
v -0.04508965 -0.08863496 -0.01390508
v -0.05003292 -0.08615146 -0.01394103
v -0.04262872 -0.08863496 -0.01398596
v -0.04755059 -0.08615146 -0.01399045
v -0.05739432 -0.08366795 -0.01353103
v -0.05987665 -0.08120586 -0.01365010
v -0.06233759 -0.07872236 -0.01373771
v -0.06728086 -0.07628167 -0.01324572
v -0.07464225 -0.07131466 -0.01248639
v -0.07376488 -0.07285614 -0.01206067
v -0.07543403 -0.07208540 -0.01054874
v -0.07614021 -0.07277051 -0.00733281
v -0.07774516 -0.07193553 -0.00561421
v -0.07813036 -0.07229950 -0.00365185
v -0.07885793 -0.07069378 -0.00561421
v -0.07872955 -0.07195694 -0.00251510
v -0.08420779 -0.06549126 -0.00251510
v -0.08925805 -0.05829766 -0.00251510
v -0.08893706 -0.05881149 -0.00251510
v -0.02970347 -0.10295794 -0.00251510
v -0.04016779 -0.09923268 -0.00251510
v -0.03999659 -0.09916845 -0.00302506
v -0.04763618 -0.09576434 -0.00251510
v -0.04999012 -0.09432990 -0.00328903
v -0.05260085 -0.09298110 -0.00319018
v -0.05352103 -0.09218895 -0.00404162
v -0.05180907 -0.09259573 -0.00561421
v -0.05608896 -0.08981249 -0.00669143
v -0.05561817 -0.08955557 -0.00808428
v -0.06103222 -0.08484548 -0.01131819
v -0.06362155 -0.08246902 -0.01181692
v -0.06233759 -0.08302567 -0.01210223
v -0.06006925 -0.08390346 -0.01260545
v -0.06233759 -0.08120586 -0.01296939
v -0.06481992 -0.07872236 -0.01311991
v -0.06708826 -0.07859389 -0.01224264
v -0.07211712 -0.07373393 -0.01242798
v -0.07123974 -0.07527541 -0.01200113
v -0.07286610 -0.07448327 -0.01054874
v -0.07522004 -0.07437621 -0.00561421
v -0.07534844 -0.07546811 -0.00251510
v -0.07661099 -0.07422635 -0.00251510
v -0.07757397 -0.07324151 -0.00251510
v -0.05026831 -0.09439413 -0.00251510
v -0.05257945 -0.09317378 -0.00251510
v -0.05407741 -0.09236022 -0.00251510
v -0.05649555 -0.09004799 -0.00504583
v -0.05735152 -0.08925584 -0.00576809
v -0.05829310 -0.08961980 -0.00251510
v -0.06653188 -0.08347527 -0.00251510
v -0.06638208 -0.08272594 -0.00516602
v -0.06601829 -0.08240479 -0.00681161
v -0.06616808 -0.08007115 -0.01187757
v -0.06458453 -0.08101317 -0.01213593
v -0.07108995 -0.07760906 -0.00706435
v -0.07061916 -0.07962156 -0.00314638
v -0.07472786 -0.07604616 -0.00251510
v -0.05658114 -0.09073310 -0.00251510
v -0.06743065 -0.08274734 -0.00251510
v -0.06815824 -0.08212646 -0.00251510
v -0.06897141 -0.08137713 -0.00251510
v -0.07147513 -0.07906491 -0.00251510
f 1 2 3
f 1 3 4
f 1 4 62
f 1 62 141
f 1 141 276
f 1 276 443
f 1 443 442
f 1 442 626
f 1 626 628
f 1 628 627
f 1 627 636
f 1 636 810
f 1 810 808
f 1 808 817
f 1 817 963
f 1 963 1082
f 1 1082 1081
f 1 1081 1080
f 1 1080 1167
f 1 1167 1231
f 1 1231 1230
f 1 1230 1245
f 1 1245 1244
f 1 1244 1243
f 1 1243 1286
f 1 1286 1287
f 1 1287 1242
f 1 1242 1240
f 1 1240 1285
f 1 1285 1238
f 1 1238 1237
f 1 1237 1284
f 1 1284 1311
f 1 1311 1310
f 1 1310 1309
f 1 1309 1325
f 1 1325 1330
f 1 1330 1329
f 1 1329 1328
f 1 1328 1327
f 1 1327 1318
f 1 1318 1317
f 1 1317 1326
f 1 1326 1314
f 1 1314 1313
f 1 1313 1312
f 1 1312 1291
f 1 1291 1289
f 1 1289 1251
f 1 1251 1250
f 1 1250 1288
f 1 1288 1249
f 1 1249 1248
f 1 1248 1184
f 1 1184 1101
f 1 1101 988
f 1 988 855
f 1 855 683
f 1 683 505
f 1 505 321
f 1 321 178
f 1 178 94
f 1 94 13
f 1 13 2
f 2 5 6
f 2 6 7
f 2 7 8
f 2 8 9
f 2 9 10
f 2 10 11
f 2 11 12
f 2 12 3
f 2 13 14
f 2 14 15
f 2 15 16
f 2 16 17
f 2 17 18
f 2 18 19
f 2 19 20
f 2 20 21
f 2 21 22
f 2 22 23
f 2 23 24
f 2 24 25
f 2 25 26
f 2 26 27
f 2 27 28
f 2 28 29
f 2 29 30
f 2 30 31
f 2 31 32
f 2 32 33
f 2 33 34
f 2 34 35
f 2 35 36
f 2 36 37
f 2 37 38
f 2 38 39
f 2 39 40
f 2 40 41
f 2 41 42
f 2 42 43
f 2 43 44
f 2 44 45
f 2 45 46
f 2 46 47
f 2 47 48
f 2 48 49
f 2 49 50
f 2 50 51
f 2 51 52
f 2 52 5
f 3 53 54
f 3 54 55
f 3 55 56
f 3 56 4
f 3 12 57
f 3 57 58
f 3 58 59
f 3 59 60
f 3 60 61
f 3 61 53
f 4 56 62
f 5 63 6
f 5 52 64
f 5 64 63
f 6 63 65
f 6 65 7
f 7 65 8
f 8 65 66
f 8 66 9
f 9 66 10
f 10 66 67
f 10 67 57
f 10 57 11
f 11 57 12
f 13 68 69
f 13 69 70
f 13 70 71
f 13 71 72
f 13 72 73
f 13 73 74
f 13 74 75
f 13 75 76
f 13 76 77
f 13 77 78
f 13 78 79
f 13 79 80
f 13 80 81
f 13 81 82
f 13 82 83
f 13 83 84
f 13 84 85
f 13 85 86
f 13 86 87
f 13 87 88
f 13 88 89
f 13 89 90
f 13 90 91
f 13 91 92
f 13 92 93
f 13 93 14
f 13 94 68
f 14 93 95
f 14 95 96
f 14 96 97
f 14 97 98
f 14 98 99
f 14 99 100
f 14 100 15
f 15 101 16
f 15 100 101
f 16 101 17
f 17 101 102
f 17 102 18
f 18 102 19
f 19 102 103
f 19 103 104
f 19 104 20
f 20 104 21
f 21 104 105
f 21 105 106
f 21 106 22
f 22 106 23
f 23 106 24
f 24 106 107
f 24 107 25
f 25 107 108
f 25 108 109
f 25 109 26
f 26 109 27
f 27 109 110
f 27 110 111
f 27 111 112
f 27 112 113
f 27 113 28
f 28 113 114
f 28 114 115
f 28 115 29
f 29 115 30
f 30 115 116
f 30 116 31
f 31 116 117
f 31 117 32
f 32 117 33
f 33 117 118
f 33 118 34
f 34 118 119
f 34 119 120
f 34 120 35
f 35 120 36
f 36 120 121
f 36 121 37
f 37 121 122
f 37 122 123
f 37 123 38
f 38 123 124
f 38 124 39
f 39 124 40
f 40 124 125
f 40 125 41
f 41 125 42
f 42 125 126
f 42 126 43
f 43 126 44
f 44 126 127
f 44 127 45
f 45 127 128
f 45 128 46
f 46 128 47
f 47 128 129
f 47 129 48
f 48 129 49
f 49 129 50
f 50 129 130
f 50 130 64
f 50 64 51
f 51 64 52
f 53 61 131
f 53 131 132
f 53 132 133
f 53 133 54
f 54 133 55
f 55 134 56
f 55 133 135
f 55 135 136
f 55 136 137
f 55 137 134
f 56 134 62
f 57 67 138
f 57 138 58
f 58 138 59
f 59 138 139
f 59 139 140
f 59 140 60
f 60 140 131
f 60 131 61
f 62 134 141
f 63 64 130
f 63 130 65
f 65 130 142
f 65 142 143
f 65 143 144
f 65 144 145
f 65 145 146
f 65 146 147
f 65 147 148
f 65 148 149
f 65 149 150
f 65 150 151
f 65 151 152
f 65 152 153
f 65 153 66
f 66 154 67
f 66 153 154
f 67 154 138
f 68 155 156
f 68 156 157
f 68 157 158
f 68 158 69
f 68 94 155
f 69 158 70
f 70 158 159
f 70 159 71
f 71 159 72
f 72 159 160
f 72 160 161
f 72 161 73
f 73 161 74
f 74 161 162
f 74 162 75
f 75 162 76
f 76 162 163
f 76 163 77
f 77 163 164
f 77 164 165
f 77 165 78
f 78 165 79
f 79 165 80
f 80 165 81
f 81 165 82
f 82 165 166
f 82 166 83
f 83 166 84
f 84 166 167
f 84 167 168
f 84 168 85
f 85 168 169
f 85 169 86
f 86 169 170
f 86 170 87
f 87 170 88
f 88 170 171
f 88 171 89
f 89 171 90
f 90 171 91
f 91 171 172
f 91 172 173
f 91 173 174
f 91 174 175
f 91 175 92
f 92 175 176
f 92 176 177
f 92 177 95
f 92 95 93
f 94 178 179
f 94 179 180
f 94 180 181
f 94 181 182
f 94 182 183
f 94 183 184
f 94 184 185
f 94 185 186
f 94 186 187
f 94 187 188
f 94 188 189
f 94 189 190
f 94 190 191
f 94 191 192
f 94 192 193
f 94 193 194
f 94 194 195
f 94 195 196
f 94 196 197
f 94 197 198
f 94 198 199
f 94 199 200
f 94 200 201
f 94 201 202
f 94 202 203
f 94 203 155
f 95 177 96
f 96 177 176
f 96 176 97
f 97 176 98
f 98 176 204
f 98 204 205
f 98 205 99
f 99 205 206
f 99 206 207
f 99 207 100
f 100 207 101
f 101 207 208
f 101 208 102
f 102 209 210
f 102 210 103
f 102 208 209
f 103 210 211
f 103 211 212
f 103 212 104
f 104 212 213
f 104 213 214
f 104 214 105
f 105 214 213
f 105 213 215
f 105 215 106
f 106 215 216
f 106 216 107
f 107 216 108
f 108 217 109
f 108 216 217
f 109 218 110
f 109 217 218
f 110 218 219
f 110 219 220
f 110 220 221
f 110 221 222
f 110 222 223
f 110 223 224
f 110 224 225
f 110 225 111
f 111 225 226
f 111 226 112
f 112 226 113
f 113 226 227
f 113 227 228
f 113 228 115
f 113 115 114
f 115 229 116
f 115 228 230
f 115 230 229
f 116 229 231
f 116 231 232
f 116 232 233
f 116 233 234
f 116 234 235
f 116 235 236
f 116 236 237
f 116 237 238
f 116 238 239
f 116 239 119
f 116 119 118
f 116 118 117
f 119 239 240
f 119 240 241
f 119 241 120
f 120 241 242
f 120 242 121
f 121 243 122
f 121 242 243
f 122 243 244
f 122 244 245
f 122 245 124
f 122 124 123
f 124 245 246
f 124 246 247
f 124 247 125
f 125 247 248
f 125 248 249
f 125 249 250
f 125 250 126
f 126 251 252
f 126 252 128
f 126 128 127
f 126 250 251
f 128 253 129
f 128 252 254
f 128 254 255
f 128 255 253
f 129 143 142
f 129 142 130
f 129 253 255
f 129 255 143
f 131 140 256
f 131 256 257
f 131 257 132
f 132 257 258
f 132 258 261
f 132 261 133
f 133 259 260
f 133 260 135
f 133 261 262
f 133 262 259
f 134 137 263
f 134 263 264
f 134 264 141
f 135 260 265
f 135 265 266
f 135 266 136
f 136 267 268
f 136 268 269
f 136 269 263
f 136 263 137
f 136 266 270
f 136 270 271
f 136 271 272
f 136 272 267
f 138 154 139
f 139 154 273
f 139 273 274
f 139 274 140
f 140 274 275
f 140 275 256
f 141 264 276
f 143 255 144
f 144 255 145
f 145 255 146
f 146 255 277
f 146 277 278
f 146 278 279
f 146 279 280
f 146 280 147
f 147 280 281
f 147 281 148
f 148 282 149
f 148 281 282
f 149 282 150
f 150 282 283
f 150 283 151
f 151 283 284
f 151 284 274
f 151 274 152
f 152 274 273
f 152 273 154
f 152 154 153
f 155 203 285
f 155 285 156
f 156 285 157
f 157 286 158
f 157 285 287
f 157 287 288
f 157 288 289
f 157 289 290
f 157 290 291
f 157 291 286
f 158 286 292
f 158 292 293
f 158 293 294
f 158 294 295
f 158 295 296
f 158 296 159
f 159 296 160
f 160 297 161
f 160 296 297
f 161 298 299
f 161 299 300
f 161 300 301
f 161 301 162
f 161 297 298
f 162 301 163
f 163 301 302
f 163 302 303
f 163 303 164
f 164 303 165
f 165 303 304
f 165 304 166
f 166 304 305
f 166 305 306
f 166 306 167
f 167 306 307
f 167 307 168
f 168 308 169
f 168 307 309
f 168 309 308
f 169 310 170
f 169 308 310
f 170 310 311
f 170 311 171
f 171 173 172
f 171 311 173
f 173 311 312
f 173 312 313
f 173 313 314
f 173 314 174
f 174 314 315
f 174 315 175
f 175 315 316
f 175 316 317
f 175 317 318
f 175 318 176
f 176 318 319
f 176 319 320
f 176 320 204
f 178 321 322
f 178 322 323
f 178 323 324
f 178 324 325
f 178 325 326
f 178 326 327
f 178 327 328
f 178 328 329
f 178 329 330
f 178 330 331
f 178 331 332
f 178 332 333
f 178 333 334
f 178 334 335
f 178 335 336
f 178 336 337
f 178 337 338
f 178 338 339
f 178 339 340
f 178 340 341
f 178 341 342
f 178 342 343
f 178 343 344
f 178 344 345
f 178 345 346
f 178 346 347
f 178 347 348
f 178 348 349
f 178 349 350
f 178 350 351
f 178 351 352
f 178 352 353
f 178 353 354
f 178 354 355
f 178 355 356
f 178 356 357
f 178 357 358
f 178 358 359
f 178 359 360
f 178 360 361
f 178 361 362
f 178 362 363
f 178 363 364
f 178 364 179
f 179 365 366
f 179 366 367
f 179 367 368
f 179 368 180
f 179 364 369
f 179 369 365
f 180 368 181
f 181 368 370
f 181 370 182
f 182 370 371
f 182 371 183
f 183 371 372
f 183 372 373
f 183 373 184
f 184 373 374
f 184 374 185
f 185 374 375
f 185 375 186
f 186 375 376
f 186 376 187
f 187 376 188
f 188 376 189
f 189 376 190
f 190 376 377
f 190 377 378
f 190 378 379
f 190 379 191
f 191 379 380
f 191 380 192
f 192 380 193
f 193 380 381
f 193 381 382
f 193 382 194
f 194 382 383
f 194 383 195
f 195 383 196
f 196 383 384
f 196 384 197
f 197 384 198
f 198 384 385
f 198 385 386
f 198 386 199
f 199 386 387
f 199 387 200
f 200 387 201
f 201 387 202
f 202 387 388
f 202 388 389
f 202 389 390
f 202 390 203
f 203 390 285
f 204 320 391
f 204 391 392
f 204 392 205
f 205 392 206
f 206 392 208
f 206 208 207
f 208 391 393
f 208 393 394
f 208 394 395
f 208 395 209
f 208 392 391
f 209 395 396
f 209 396 210
f 210 396 211
f 211 396 397
f 211 397 398
f 211 398 212
f 212 398 213
f 213 398 399
f 213 399 400
f 213 400 215
f 215 400 401
f 215 401 402
f 215 402 216
f 216 402 403
f 216 403 218
f 216 218 217
f 218 403 402
f 218 402 219
f 219 402 220
f 220 402 222
f 220 222 221
f 222 402 404
f 222 404 405
f 222 405 406
f 222 406 224
f 222 224 223
f 224 406 225
f 225 406 407
f 225 407 227
f 225 227 226
f 227 407 408
f 227 408 409
f 227 409 229
f 227 229 230
f 227 230 228
f 229 409 231
f 231 409 408
f 231 408 232
f 232 410 411
f 232 411 233
f 232 408 412
f 232 412 413
f 232 413 410
f 233 411 414
f 233 414 234
f 234 414 415
f 234 415 416
f 234 416 235
f 235 416 417
f 235 417 236
f 236 417 418
f 236 418 237
f 237 418 419
f 237 419 420
f 237 420 238
f 238 420 421
f 238 421 239
f 239 421 240
f 240 421 420
f 240 420 419
f 240 419 422
f 240 422 243
f 240 243 241
f 241 243 242
f 243 422 423
f 243 423 244
f 244 423 424
f 244 424 245
f 245 424 425
f 245 425 426
f 245 426 427
f 245 427 428
f 245 428 429
f 245 429 250
f 245 250 248
f 245 248 246
f 246 248 247
f 248 250 249
f 250 429 428
f 250 428 251
f 251 428 430
f 251 430 277
f 251 277 431
f 251 431 254
f 251 254 252
f 254 431 255
f 255 431 277
f 256 275 432
f 256 432 433
f 256 433 257
f 257 434 435
f 257 435 436
f 257 436 437
f 257 437 258
f 257 433 434
f 258 437 438
f 258 438 439
f 258 439 261
f 259 439 440
f 259 440 441
f 259 441 265
f 259 265 260
f 259 262 439
f 261 439 262
f 263 442 443
f 263 443 276
f 263 276 264
f 263 269 268
f 263 268 444
f 263 444 442
f 265 441 266
f 266 441 445
f 266 445 446
f 266 446 447
f 266 447 448
f 266 448 270
f 267 449 450
f 267 450 268
f 267 272 449
f 268 450 444
f 270 448 451
f 270 451 271
f 271 451 452
f 271 452 453
f 271 453 272
f 272 452 454
f 272 454 455
f 272 455 449
f 272 453 452
f 274 284 456
f 274 456 275
f 275 456 457
f 275 457 432
f 277 430 458
f 277 458 278
f 278 458 459
f 278 459 460
f 278 460 461
f 278 461 462
f 278 462 279
f 279 463 280
f 279 462 463
f 280 463 464
f 280 464 284
f 280 284 283
f 280 283 282
f 280 282 281
f 284 464 456
f 285 390 465
f 285 465 287
f 286 466 292
f 286 291 467
f 286 467 466
f 287 465 468
f 287 468 469
f 287 469 470
f 287 470 288
f 288 470 471
f 288 471 289
f 289 471 472
f 289 472 290
f 290 472 473
f 290 473 291
f 291 473 474
f 291 474 467
f 292 475 476
f 292 476 477
f 292 477 293
f 292 466 475
f 293 477 478
f 293 478 294
f 294 479 295
f 294 478 480
f 294 480 481
f 294 481 482
f 294 482 483
f 294 483 479
f 295 479 296
f 296 479 483
f 296 483 297
f 297 483 298
f 298 482 300
f 298 300 299
f 298 483 482
f 300 482 481
f 300 481 301
f 301 484 485
f 301 485 486
f 301 486 487
f 301 487 302
f 301 481 480
f 301 480 478
f 301 478 484
f 302 487 305
f 302 305 304
f 302 304 303
f 305 488 307
f 305 307 306
f 305 487 488
f 307 488 489
f 307 489 309
f 308 309 490
f 308 490 311
f 308 311 310
f 309 489 490
f 311 491 313
f 311 313 312
f 311 490 489
f 311 489 492
f 311 492 493
f 311 493 494
f 311 494 491
f 313 491 314
f 314 491 315
f 315 491 495
f 315 495 496
f 315 496 497
f 315 497 498
f 315 498 317
f 315 317 316
f 317 498 318
f 318 498 499
f 318 499 500
f 318 500 319
f 319 500 501
f 319 501 502
f 319 502 320
f 320 502 503
f 320 503 504
f 320 504 391
f 321 505 506
f 321 506 507
f 321 507 322
f 322 507 508
f 322 508 509
f 322 509 323
f 323 509 510
f 323 510 511
f 323 511 324
f 324 511 512
f 324 512 325
f 325 512 326
f 326 512 513
f 326 513 327
f 327 513 328
f 328 513 514
f 328 514 515
f 328 515 329
f 329 515 330
f 330 515 331
f 331 515 516
f 331 516 517
f 331 517 332
f 332 517 518
f 332 518 333
f 333 518 334
f 334 518 519
f 334 519 335
f 335 519 336
f 336 519 520
f 336 520 521
f 336 521 337
f 337 521 338
f 338 521 522
f 338 522 339
f 339 522 523
f 339 523 340
f 340 523 524
f 340 524 341
f 341 524 342
f 342 524 525
f 342 525 526
f 342 526 343
f 343 526 527
f 343 527 344
f 344 527 345
f 345 527 346
f 346 527 528
f 346 528 529
f 346 529 347
f 347 529 348
f 348 529 530
f 348 530 531
f 348 531 349
f 349 531 350
f 350 531 532
f 350 532 351
f 351 532 533
f 351 533 352
f 352 533 534
f 352 534 353
f 353 534 535
f 353 535 354
f 354 535 536
f 354 536 355
f 355 536 537
f 355 537 356
f 356 537 538
f 356 538 539
f 356 539 540
f 356 540 357
f 357 540 358
f 358 540 541
f 358 541 359
f 359 541 542
f 359 542 543
f 359 543 544
f 359 544 545
f 359 545 360
f 360 545 361
f 361 545 546
f 361 546 362
f 362 546 363
f 363 546 364
f 364 546 547
f 364 547 369
f 365 369 547
f 365 547 548
f 365 548 549
f 365 549 550
f 365 550 366
f 366 550 367
f 367 550 368
f 368 550 551
f 368 551 370
f 370 552 553
f 370 553 371
f 370 551 554
f 370 554 552
f 371 553 372
f 372 553 555
f 372 555 556
f 372 556 557
f 372 557 373
f 373 557 374
f 374 558 559
f 374 559 375
f 374 557 560
f 374 560 558
f 375 559 376
f 376 559 378
f 376 378 377
f 378 559 561
f 378 561 562
f 378 562 381
f 378 381 380
f 378 380 379
f 381 562 563
f 381 563 564
f 381 564 382
f 382 564 565
f 382 565 566
f 382 566 383
f 383 566 567
f 383 567 384
f 384 567 568
f 384 568 385
f 385 568 569
f 385 569 570
f 385 570 571
f 385 571 572
f 385 572 573
f 385 573 574
f 385 574 387
f 385 387 386
f 387 573 575
f 387 575 576
f 387 576 388
f 387 574 573
f 388 576 389
f 389 576 577
f 389 577 390
f 390 577 465
f 391 504 578
f 391 578 579
f 391 579 580
f 391 580 581
f 391 581 393
f 393 581 582
f 393 582 583
f 393 583 394
f 394 584 396
f 394 396 395
f 394 583 585
f 394 585 586
f 394 586 587
f 394 587 588
f 394 588 584
f 396 584 397
f 397 588 589
f 397 589 399
f 397 399 398
f 397 584 588
f 399 401 400
f 399 589 590
f 399 590 587
f 399 587 586
f 399 586 591
f 399 591 592
f 399 592 402
f 399 402 401
f 402 592 404
f 404 593 405
f 404 592 594
f 404 594 593
f 405 593 595
f 405 595 412
f 405 412 406
f 406 412 408
f 406 408 407
f 410 596 411
f 410 413 597
f 410 597 596
f 411 596 414
f 412 595 413
f 413 595 597
f 414 596 598
f 414 598 599
f 414 599 600
f 414 600 415
f 415 600 601
f 415 601 602
f 415 602 416
f 416 602 603
f 416 603 417
f 417 603 604
f 417 604 418
f 418 604 605
f 418 605 419
f 419 605 422
f 422 605 424
f 422 424 423
f 424 605 425
f 425 606 607
f 425 607 608
f 425 608 426
f 425 605 609
f 425 609 606
f 426 608 427
f 427 608 610
f 427 610 611
f 427 611 428
f 428 611 430
f 430 611 458
f 432 457 463
f 432 463 612
f 432 612 433
f 433 612 613
f 433 613 434
f 434 613 614
f 434 614 615
f 434 615 435
f 435 615 616
f 435 616 436
f 436 616 438
f 436 438 437
f 438 616 617
f 438 617 618
f 438 618 619
f 438 619 439
f 439 619 620
f 439 620 621
f 439 621 440
f 440 621 622
f 440 622 623
f 440 623 624
f 440 624 441
f 441 624 625
f 441 625 446
f 441 446 445
f 442 444 626
f 444 450 627
f 444 627 628
f 444 628 626
f 446 625 447
f 447 451 448
f 447 625 629
f 447 629 630
f 447 630 631
f 447 631 451
f 449 455 632
f 449 632 450
f 450 632 633
f 450 633 634
f 450 634 635
f 450 635 636
f 450 636 627
f 451 631 452
f 452 631 454
f 454 637 638
f 454 638 639
f 454 639 640
f 454 640 455
f 454 631 641
f 454 641 642
f 454 642 637
f 455 640 632
f 456 464 457
f 457 464 463
f 458 611 643
f 458 643 460
f 458 460 459
f 460 643 644
f 460 644 645
f 460 645 646
f 460 646 462
f 460 462 461
f 462 646 647
f 462 647 463
f 463 647 612
f 465 577 469
f 465 469 468
f 466 467 648
f 466 648 649
f 466 649 475
f 467 474 650
f 467 650 651
f 467 651 652
f 467 652 648
f 469 577 653
f 469 653 470
f 470 653 654
f 470 654 572
f 470 572 571
f 470 571 655
f 470 655 656
f 470 656 471
f 471 656 657
f 471 657 472
f 472 657 473
f 473 650 474
f 473 657 658
f 473 658 650
f 475 649 659
f 475 659 660
f 475 660 661
f 475 661 476
f 476 661 477
f 477 661 662
f 477 662 484
f 477 484 478
f 484 662 663
f 484 663 485
f 485 663 664
f 485 664 665
f 485 665 486
f 486 665 666
f 486 666 489
f 486 489 487
f 487 489 488
f 489 666 492
f 491 494 495
f 492 666 665
f 492 665 664
f 492 664 667
f 492 667 493
f 493 667 668
f 493 668 669
f 493 669 494
f 494 669 495
f 495 669 670
f 495 670 497
f 495 497 496
f 497 670 671
f 497 671 672
f 497 672 673
f 497 673 498
f 498 673 499
f 499 674 500
f 499 673 675
f 499 675 674
f 500 674 675
f 500 675 676
f 500 676 677
f 500 677 501
f 501 677 678
f 501 678 679
f 501 679 680
f 501 680 502
f 502 680 681
f 502 681 503
f 503 681 504
f 504 681 578
f 505 682 506
f 505 683 682
f 506 682 684
f 506 684 508
f 506 508 507
f 508 685 686
f 508 686 509
f 508 684 685
f 509 686 687
f 509 687 510
f 510 687 688
f 510 688 511
f 511 688 512
f 512 688 689
f 512 689 690
f 512 690 691
f 512 691 692
f 512 692 693
f 512 693 513
f 513 694 516
f 513 516 515
f 513 515 514
f 513 693 695
f 513 695 694
f 516 694 696
f 516 696 517
f 517 696 697
f 517 697 698
f 517 698 518
f 518 698 699
f 518 699 700
f 518 700 519
f 519 700 520
f 520 699 701
f 520 701 702
f 520 702 521
f 520 700 699
f 521 702 703
f 521 703 522
f 522 704 705
f 522 705 523
f 522 703 704
f 523 705 704
f 523 704 525
f 523 525 524
f 525 704 706
f 525 706 707
f 525 707 708
f 525 708 709
f 525 709 710
f 525 710 526
f 526 710 711
f 526 711 712
f 526 712 713
f 526 713 527
f 527 713 714
f 527 714 715
f 527 715 716
f 527 716 528
f 528 716 717
f 528 717 529
f 529 717 718
f 529 718 719
f 529 719 530
f 530 719 720
f 530 720 721
f 530 721 531
f 531 721 532
f 532 721 722
f 532 722 723
f 532 723 724
f 532 724 725
f 532 725 533
f 533 725 726
f 533 726 534
f 534 726 727
f 534 727 535
f 535 727 728
f 535 728 537
f 535 537 536
f 537 728 729
f 537 729 730
f 537 730 731
f 537 731 544
f 537 544 543
f 537 543 732
f 537 732 538
f 538 732 539
f 539 732 540
f 540 732 541
f 541 732 542
f 542 732 543
f 544 731 733
f 544 733 734
f 544 734 735
f 544 735 736
f 544 736 737
f 544 737 545
f 545 737 738
f 545 738 739
f 545 739 546
f 546 739 547
f 547 739 740
f 547 740 548
f 548 741 549
f 548 740 741
f 549 741 742
f 549 742 743
f 549 743 550
f 550 743 744
f 550 744 554
f 550 554 551
f 552 745 746
f 552 746 553
f 552 554 747
f 552 747 745
f 553 746 555
f 554 744 748
f 554 748 749
f 554 749 750
f 554 750 751
f 554 751 752
f 554 752 747
f 555 753 557
f 555 557 556
f 555 746 745
f 555 745 754
f 555 754 755
f 555 755 756
f 555 756 757
f 555 757 753
f 557 753 560
f 558 560 758
f 558 758 559
f 559 758 561
f 560 753 759
f 560 759 758
f 561 760 761
f 561 761 762
f 561 762 763
f 561 763 563
f 561 563 562
f 561 758 757
f 561 757 760
f 563 763 764
f 563 764 565
f 563 565 564
f 565 764 765
f 565 765 568
f 565 568 566
f 566 568 567
f 568 766 570
f 568 570 569
f 568 765 767
f 568 767 762
f 568 762 768
f 568 768 769
f 568 769 770
f 568 770 771
f 568 771 766
f 570 772 571
f 570 766 773
f 570 773 772
f 571 772 655
f 572 654 573
f 573 654 653
f 573 653 575
f 575 653 577
f 575 577 576
f 578 681 774
f 578 774 775
f 578 775 579
f 579 775 580
f 580 775 581
f 581 775 582
f 582 775 776
f 582 776 583
f 583 776 777
f 583 777 591
f 583 591 586
f 583 586 585
f 587 590 588
f 588 590 589
f 591 777 778
f 591 778 779
f 591 779 594
f 591 594 592
f 593 780 781
f 593 781 595
f 593 594 780
f 594 779 780
f 595 781 782
f 595 782 597
f 596 597 782
f 596 782 783
f 596 783 598
f 598 783 599
f 599 783 600
f 600 784 601
f 600 783 784
f 601 784 785
f 601 785 786
f 601 786 602
f 602 787 788
f 602 788 603
f 602 786 789
f 602 789 787
f 603 788 787
f 603 787 790
f 603 790 791
f 603 791 606
f 603 606 604
f 604 606 609
f 604 609 605
f 606 791 792
f 606 792 607
f 607 792 608
f 608 792 644
f 608 644 610
f 610 644 643
f 610 643 611
f 612 647 613
f 613 647 793
f 613 793 614
f 614 793 794
f 614 794 795
f 614 795 615
f 615 795 796
f 615 796 616
f 616 796 797
f 616 797 617
f 617 797 618
f 618 797 798
f 618 798 799
f 618 799 620
f 618 620 619
f 620 799 621
f 621 799 622
f 622 799 800
f 622 800 623
f 623 801 802
f 623 802 803
f 623 803 624
f 623 800 804
f 623 804 805
f 623 805 801
f 624 803 625
f 625 803 806
f 625 806 807
f 625 807 629
f 629 807 630
f 630 807 641
f 630 641 631
f 632 640 808
f 632 808 809
f 632 809 633
f 633 809 634
f 634 809 635
f 635 809 636
f 636 809 810
f 637 811 812
f 637 812 638
f 637 642 811
f 638 812 813
f 638 813 639
f 639 813 814
f 639 814 815
f 639 815 640
f 640 815 814
f 640 814 816
f 640 816 817
f 640 817 808
f 641 807 818
f 641 818 819
f 641 819 820
f 641 820 642
f 642 820 821
f 642 821 811
f 644 792 645
f 645 792 791
f 645 791 646
f 646 791 822
f 646 822 823
f 646 823 647
f 647 823 790
f 647 790 824
f 647 824 825
f 647 825 793
f 648 826 827
f 648 827 649
f 648 652 826
f 649 827 659
f 650 828 651
f 650 658 829
f 650 829 830
f 650 830 831
f 650 831 832
f 650 832 828
f 651 828 833
f 651 833 826
f 651 826 652
f 655 772 656
f 656 772 657
f 657 772 834
f 657 834 835
f 657 835 658
f 658 835 829
f 659 827 660
f 660 662 661
f 660 827 836
f 660 836 837
f 660 837 663
f 660 663 662
f 663 837 664
f 664 838 667
f 664 837 838
f 667 838 668
f 668 838 837
f 668 837 839
f 668 839 669
f 669 839 840
f 669 840 670
f 670 840 671
f 671 840 841
f 671 841 672
f 672 842 675
f 672 675 673
f 672 841 843
f 672 843 844
f 672 844 842
f 675 842 676
f 676 845 677
f 676 842 845
f 677 845 678
f 678 845 842
f 678 842 680
f 678 680 679
f 680 842 846
f 680 846 847
f 680 847 681
f 681 847 848
f 681 848 849
f 681 849 850
f 681 850 851
f 681 851 852
f 681 852 774
f 682 683 853
f 682 853 854
f 682 854 684
f 683 855 853
f 684 854 685
f 685 856 686
f 685 854 857
f 685 857 858
f 685 858 859
f 685 859 860
f 685 860 861
f 685 861 862
f 685 862 856
f 686 856 863
f 686 863 864
f 686 864 687
f 687 864 862
f 687 862 865
f 687 865 866
f 687 866 688
f 688 866 867
f 688 867 868
f 688 868 869
f 688 869 689
f 689 869 1009
f 689 1009 870
f 689 870 691
f 689 691 690
f 691 870 871
f 691 871 692
f 692 871 693
f 693 871 872
f 693 872 697
f 693 697 695
f 694 695 873
f 694 873 874
f 694 874 696
f 695 697 873
f 696 874 697
f 697 872 875
f 697 875 876
f 697 876 877
f 697 877 698
f 697 874 873
f 698 877 699
f 699 877 701
f 701 878 702
f 701 877 879
f 701 879 880
f 701 880 881
f 701 881 882
f 701 882 878
f 702 878 882
f 702 882 703
f 703 882 881
f 703 881 704
f 704 881 883
f 704 883 879
f 704 879 884
f 704 884 885
f 704 885 706
f 706 886 887
f 706 887 707
f 706 885 886
f 707 887 888
f 707 888 889
f 707 889 708
f 708 889 890
f 708 890 891
f 708 891 709
f 709 891 892
f 709 892 711
f 709 711 710
f 711 892 712
f 712 892 893
f 712 893 713
f 713 893 714
f 714 718 716
f 714 716 715
f 714 893 892
f 714 892 891
f 714 891 890
f 714 890 894
f 714 894 895
f 714 895 719
f 714 719 718
f 716 718 717
f 719 895 720
f 720 896 721
f 720 895 896
f 721 897 898
f 721 898 899
f 721 899 722
f 721 896 900
f 721 900 897
f 722 899 901
f 722 901 902
f 722 902 903
f 722 903 723
f 723 903 904
f 723 904 726
f 723 726 905
f 723 905 906
f 723 906 724
f 724 906 725
f 725 906 905
f 725 905 726
f 726 904 727
f 727 729 728
f 727 904 729
f 729 907 730
f 729 904 908
f 729 908 907
f 730 907 731
f 731 907 909
f 731 909 910
f 731 910 733
f 733 910 911
f 733 911 912
f 733 912 734
f 734 912 735
f 735 912 913
f 735 913 914
f 735 914 736
f 736 914 915
f 736 915 916
f 736 916 739
f 736 739 738
f 736 738 737
f 739 916 915
f 739 915 917
f 739 917 740
f 740 917 918
f 740 918 742
f 740 742 741
f 742 918 919
f 742 919 920
f 742 920 743
f 743 920 921
f 743 921 922
f 743 922 744
f 744 923 748
f 744 922 923
f 745 924 754
f 745 747 924
f 747 752 924
f 748 923 925
f 748 925 926
f 748 926 749
f 749 926 750
f 750 926 751
f 751 926 927
f 751 927 924
f 751 924 752
f 753 757 758
f 753 758 759
f 754 928 755
f 754 924 928
f 755 928 929
f 755 929 756
f 756 929 757
f 757 929 760
f 760 929 761
f 761 929 930
f 761 930 931
f 761 931 769
f 761 769 768
f 761 768 762
f 762 767 763
f 763 767 765
f 763 765 764
f 766 771 773
f 769 931 770
f 770 931 771
f 771 931 932
f 771 932 933
f 771 933 934
f 771 934 834
f 771 834 773
f 772 773 834
f 774 852 935
f 774 935 775
f 775 935 776
f 776 935 936
f 776 936 778
f 776 778 777
f 778 936 937
f 778 937 780
f 778 780 779
f 780 937 938
f 780 938 782
f 780 782 781
f 782 938 783
f 783 938 939
f 783 939 785
f 783 785 784
f 785 939 786
f 786 939 940
f 786 940 789
f 787 825 824
f 787 824 790
f 787 789 941
f 787 941 825
f 789 940 941
f 790 823 822
f 790 822 791
f 793 825 942
f 793 942 943
f 793 943 944
f 793 944 945
f 793 945 794
f 794 945 795
f 795 945 946
f 795 946 796
f 796 946 797
f 797 946 798
f 798 946 799
f 799 946 947
f 799 947 804
f 799 804 800
f 801 948 802
f 801 805 949
f 801 949 948
f 802 950 803
f 802 948 951
f 802 951 950
f 803 950 806
f 804 947 952
f 804 952 953
f 804 953 805
f 805 953 1068
f 805 1068 949
f 806 950 954
f 806 954 955
f 806 955 956
f 806 956 807
f 807 956 957
f 807 957 818
f 808 810 809
f 811 821 958
f 811 958 812
f 812 958 959
f 812 959 960
f 812 960 813
f 813 960 961
f 813 961 814
f 814 961 962
f 814 962 963
f 814 963 817
f 814 817 816
f 818 964 819
f 818 957 965
f 818 965 966
f 818 966 964
f 819 964 967
f 819 967 820
f 820 968 958
f 820 958 821
f 820 967 969
f 820 969 970
f 820 970 971
f 820 971 972
f 820 972 968
f 825 941 942
f 826 833 973
f 826 973 836
f 826 836 827
f 828 973 833
f 828 832 973
f 829 835 974
f 829 974 830
f 830 974 831
f 831 974 975
f 831 975 976
f 831 976 977
f 831 977 832
f 832 977 976
f 832 976 973
f 834 934 835
f 835 934 978
f 835 978 926
f 835 926 974
f 836 973 979
f 836 979 837
f 837 980 839
f 837 979 980
f 839 980 843
f 839 843 840
f 840 843 841
f 842 844 980
f 842 980 981
f 842 981 846
f 843 980 844
f 846 982 847
f 846 981 983
f 846 983 1095
f 846 1095 982
f 847 982 848
f 848 982 984
f 848 984 985
f 848 985 849
f 849 985 986
f 849 986 850
f 850 986 851
f 851 986 935
f 851 935 852
f 853 855 987
f 853 987 854
f 854 987 857
f 855 988 989
f 855 989 987
f 856 862 863
f 857 987 990
f 857 990 991
f 857 991 858
f 858 991 992
f 858 992 993
f 858 993 994
f 858 994 995
f 858 995 859
f 859 995 860
f 860 995 996
f 860 996 861
f 861 996 997
f 861 997 998
f 861 998 999
f 861 999 862
f 862 866 865
f 862 864 863
f 862 999 1000
f 862 1000 1001
f 862 1001 1002
f 862 1002 1003
f 862 1003 866
f 866 1003 1004
f 866 1004 1005
f 866 1005 867
f 867 1005 868
f 868 1005 1006
f 868 1006 1007
f 868 1007 1008
f 868 1008 1009
f 868 1009 869
f 870 1009 1010
f 870 1010 871
f 871 1010 1011
f 871 1011 1012
f 871 1012 872
f 872 1012 876
f 872 876 875
f 876 879 877
f 876 1012 1013
f 876 1013 885
f 876 885 884
f 876 884 879
f 879 883 880
f 880 883 881
f 885 1013 886
f 886 1014 887
f 886 1013 1015
f 886 1015 1014
f 887 1014 1016
f 887 1016 1017
f 887 1017 1018
f 887 1018 1019
f 887 1019 888
f 888 1019 1020
f 888 1020 889
f 889 1020 894
f 889 894 890
f 894 1021 1022
f 894 1022 895
f 894 1020 1021
f 895 1022 896
f 896 1022 900
f 897 900 1023
f 897 1023 1024
f 897 1024 1025
f 897 1025 1026
f 897 1026 901
f 897 901 1027
f 897 1027 898
f 898 1027 899
f 899 1027 901
f 900 1022 1023
f 901 1026 1028
f 901 1028 902
f 902 1028 1029
f 902 1029 903
f 903 1029 904
f 904 1029 908
f 907 908 1030
f 907 1030 1031
f 907 1031 1032
f 907 1032 910
f 907 910 909
f 908 1029 1033
f 908 1033 1030
f 910 1032 1034
f 910 1034 911
f 911 1035 1036
f 911 1036 912
f 911 1034 1035
f 912 1036 913
f 913 1037 1038
f 913 1038 1039
f 913 1039 914
f 913 1036 1037
f 914 1039 915
f 915 1039 917
f 917 1039 1038
f 917 1038 919
f 917 919 918
f 919 1038 1037
f 919 1037 1040
f 919 1040 1041
f 919 1041 920
f 920 1041 921
f 921 1041 922
f 922 1041 1042
f 922 1042 923
f 923 1043 925
f 923 1042 1044
f 923 1044 1045
f 923 1045 1046
f 923 1046 1043
f 924 927 928
f 925 1043 1047
f 925 1047 1048
f 925 1048 1049
f 925 1049 983
f 925 983 926
f 926 978 1050
f 926 1050 1051
f 926 1051 1052
f 926 1052 927
f 926 983 974
f 927 1052 930
f 927 930 928
f 928 930 929
f 930 1052 1051
f 930 1051 932
f 930 932 931
f 932 1051 933
f 933 1051 934
f 934 1051 1050
f 934 1050 978
f 935 986 936
f 936 1053 1054
f 936 1054 938
f 936 938 937
f 936 986 985
f 936 985 984
f 936 984 1053
f 938 1054 939
f 939 1054 1055
f 939 1055 1056
f 939 1056 1057
f 939 1057 940
f 940 1058 1059
f 940 1059 1060
f 940 1060 941
f 940 1057 1056
f 940 1056 1058
f 941 1060 942
f 942 1060 1061
f 942 1061 1062
f 942 1062 943
f 943 1062 1063
f 943 1063 944
f 944 1063 1064
f 944 1064 945
f 945 1064 1065
f 945 1065 946
f 946 1065 947
f 947 1065 1066
f 947 1066 1067
f 947 1067 952
f 948 949 951
f 949 1068 1069
f 949 1069 951
f 950 951 954
f 951 1069 954
f 952 1067 1070
f 952 1070 1068
f 952 1068 953
f 954 1069 1071
f 954 1071 955
f 955 1071 1072
f 955 1072 1073
f 955 1073 956
f 956 1073 1074
f 956 1074 957
f 957 1074 1075
f 957 1075 965
f 958 968 1076
f 958 1076 959
f 959 1076 1077
f 959 1077 960
f 960 1077 1078
f 960 1078 1079
f 960 1079 961
f 961 1080 1081
f 961 1081 962
f 961 1079 1080
f 962 1082 963
f 962 1081 1082
f 964 966 1083
f 964 1083 967
f 965 1075 1084
f 965 1084 1085
f 965 1085 1086
f 965 1086 966
f 966 1086 1083
f 967 1083 969
f 968 972 1087
f 968 1087 1076
f 969 1083 1088
f 969 1088 1089
f 969 1089 1090
f 969 1090 970
f 970 1090 971
f 971 1091 972
f 971 1090 1092
f 971 1092 1091
f 972 1091 1093
f 972 1093 1087
f 973 976 979
f 974 983 980
f 974 980 976
f 974 976 1094
f 974 1094 975
f 975 1094 976
f 976 980 979
f 980 983 981
f 982 1095 984
f 983 1049 1117
f 983 1117 1096
f 983 1096 1148
f 983 1148 1095
f 984 1095 1097
f 984 1097 1098
f 984 1098 1055
f 984 1055 1053
f 987 1099 1100
f 987 1100 990
f 987 989 1099
f 988 1101 989
f 989 1101 1099
f 990 1100 991
f 991 1102 992
f 991 1100 1103
f 991 1103 1102
f 992 1104 1105
f 992 1105 1106
f 992 1106 1107
f 992 1107 1108
f 992 1108 993
f 992 1102 1109
f 992 1109 1110
f 992 1110 1111
f 992 1111 1112
f 992 1112 1104
f 993 1108 1107
f 993 1107 994
f 994 1107 995
f 995 1107 1113
f 995 1113 996
f 996 1113 1114
f 996 1114 997
f 997 1114 1115
f 997 1115 998
f 998 1115 999
f 999 1115 1000
f 1000 1115 1116
f 1000 1116 1001
f 1001 1116 1002
f 1002 1116 1117
f 1002 1117 1118
f 1002 1118 1119
f 1002 1119 1120
f 1002 1120 1003
f 1003 1120 1121
f 1003 1121 1004
f 1004 1121 1005
f 1005 1121 1006
f 1006 1121 1007
f 1007 1121 1008
f 1008 1121 1009
f 1009 1121 1010
f 1010 1121 1011
f 1011 1122 1123
f 1011 1123 1017
f 1011 1017 1016
f 1011 1016 1124
f 1011 1124 1012
f 1011 1121 1120
f 1011 1120 1122
f 1012 1124 1014
f 1012 1014 1015
f 1012 1015 1013
f 1014 1124 1016
f 1017 1125 1126
f 1017 1126 1127
f 1017 1127 1018
f 1017 1123 1128
f 1017 1128 1125
f 1018 1127 1129
f 1018 1129 1019
f 1019 1129 1022
f 1019 1022 1020
f 1020 1022 1021
f 1022 1130 1131
f 1022 1131 1023
f 1022 1129 1132
f 1022 1132 1130
f 1023 1131 1133
f 1023 1133 1134
f 1023 1134 1025
f 1023 1025 1024
f 1025 1134 1135
f 1025 1135 1136
f 1025 1136 1033
f 1025 1033 1026
f 1026 1033 1028
f 1028 1033 1029
f 1030 1033 1031
f 1031 1033 1137
f 1031 1137 1138
f 1031 1138 1139
f 1031 1139 1034
f 1031 1034 1032
f 1033 1136 1137
f 1034 1139 1035
f 1035 1140 1141
f 1035 1141 1036
f 1035 1139 1140
f 1036 1141 1040
f 1036 1040 1037
f 1040 1141 1041
f 1041 1141 1042
f 1042 1141 1142
f 1042 1142 1044
f 1043 1046 1143
f 1043 1143 1047
f 1044 1142 1144
f 1044 1144 1045
f 1045 1144 1145
f 1045 1145 1046
f 1046 1145 1143
f 1047 1143 1146
f 1047 1146 1048
f 1048 1146 1049
f 1049 1146 1147
f 1049 1147 1117
f 1053 1055 1054
f 1055 1098 1148
f 1055 1148 1149
f 1055 1149 1056
f 1056 1149 1058
f 1058 1149 1148
f 1058 1148 1096
f 1058 1096 1117
f 1058 1117 1116
f 1058 1116 1205
f 1058 1205 1272
f 1058 1272 1219
f 1058 1219 1153
f 1058 1153 1150
f 1058 1150 1059
f 1059 1150 1060
f 1060 1150 1151
f 1060 1151 1152
f 1060 1152 1062
f 1060 1062 1061
f 1062 1152 1063
f 1063 1152 1066
f 1063 1066 1064
f 1064 1066 1065
f 1066 1153 1154
f 1066 1154 1155
f 1066 1155 1156
f 1066 1156 1067
f 1066 1152 1153
f 1067 1156 1070
f 1068 1070 1069
f 1069 1070 1157
f 1069 1157 1158
f 1069 1158 1071
f 1070 1156 1159
f 1070 1159 1157
f 1071 1158 1072
f 1072 1158 1159
f 1072 1159 1073
f 1073 1159 1160
f 1073 1160 1161
f 1073 1161 1162
f 1073 1162 1074
f 1074 1162 1075
f 1075 1162 1163
f 1075 1163 1084
f 1076 1087 1077
f 1077 1164 1165
f 1077 1165 1166
f 1077 1166 1079
f 1077 1079 1078
f 1077 1087 1093
f 1077 1093 1164
f 1079 1166 1167
f 1079 1167 1080
f 1083 1086 1088
f 1084 1163 1168
f 1084 1168 1085
f 1085 1168 1169
f 1085 1169 1088
f 1085 1088 1086
f 1088 1169 1089
f 1089 1168 1170
f 1089 1170 1171
f 1089 1171 1172
f 1089 1172 1173
f 1089 1173 1174
f 1089 1174 1090
f 1089 1169 1168
f 1090 1174 1092
f 1091 1175 1176
f 1091 1176 1164
f 1091 1164 1093
f 1091 1092 1177
f 1091 1177 1173
f 1091 1173 1178
f 1091 1178 1179
f 1091 1179 1175
f 1092 1174 1177
f 1095 1148 1097
f 1097 1148 1098
f 1099 1101 1180
f 1099 1180 1181
f 1099 1181 1182
f 1099 1182 1100
f 1100 1182 1183
f 1100 1183 1103
f 1101 1184 1180
f 1102 1103 1109
f 1103 1183 1109
f 1104 1112 1185
f 1104 1185 1186
f 1104 1186 1187
f 1104 1187 1105
f 1105 1187 1188
f 1105 1188 1189
f 1105 1189 1190
f 1105 1190 1191
f 1105 1191 1192
f 1105 1192 1193
f 1105 1193 1194
f 1105 1194 1195
f 1105 1195 1196
f 1105 1196 1106
f 1106 1196 1107
f 1107 1196 1197
f 1107 1197 1113
f 1109 1183 1198
f 1109 1198 1111
f 1109 1111 1110
f 1111 1198 1112
f 1112 1198 1185
f 1113 1197 1199
f 1113 1199 1114
f 1114 1199 1200
f 1114 1200 1201
f 1114 1201 1115
f 1115 1201 1202
f 1115 1202 1203
f 1115 1203 1204
f 1115 1204 1116
f 1116 1204 1205
f 1117 1147 1206
f 1117 1206 1207
f 1117 1207 1208
f 1117 1208 1209
f 1117 1209 1210
f 1117 1210 1125
f 1117 1125 1122
f 1117 1122 1118
f 1118 1122 1119
f 1119 1122 1120
f 1122 1125 1128
f 1122 1128 1123
f 1125 1210 1126
f 1126 1210 1211
f 1126 1211 1127
f 1127 1211 1132
f 1127 1132 1129
f 1130 1132 1211
f 1130 1211 1210
f 1130 1210 1209
f 1130 1209 1212
f 1130 1212 1213
f 1130 1213 1131
f 1131 1213 1133
f 1133 1213 1214
f 1133 1214 1135
f 1133 1135 1134
f 1135 1215 1137
f 1135 1137 1136
f 1135 1214 1215
f 1137 1207 1138
f 1137 1215 1207
f 1138 1216 1217
f 1138 1217 1140
f 1138 1140 1139
f 1138 1207 1216
f 1140 1217 1146
f 1140 1146 1144
f 1140 1144 1142
f 1140 1142 1141
f 1143 1145 1146
f 1144 1146 1145
f 1146 1217 1216
f 1146 1216 1207
f 1146 1207 1206
f 1146 1206 1147
f 1150 1153 1218
f 1150 1218 1151
f 1151 1218 1152
f 1152 1218 1153
f 1153 1219 1154
f 1154 1219 1220
f 1154 1220 1155
f 1155 1220 1221
f 1155 1221 1222
f 1155 1222 1223
f 1155 1223 1224
f 1155 1224 1225
f 1155 1225 1226
f 1155 1226 1156
f 1156 1226 1227
f 1156 1227 1159
f 1157 1159 1158
f 1159 1227 1160
f 1160 1227 1161
f 1161 1227 1162
f 1162 1227 1163
f 1163 1227 1228
f 1163 1228 1168
f 1164 1176 1165
f 1165 1229 1230
f 1165 1230 1166
f 1165 1176 1229
f 1166 1230 1231
f 1166 1231 1167
f 1168 1228 1170
f 1170 1228 1232
f 1170 1232 1171
f 1171 1232 1233
f 1171 1233 1234
f 1171 1234 1173
f 1171 1173 1172
f 1173 1177 1174
f 1173 1234 1235
f 1173 1235 1236
f 1173 1236 1237
f 1173 1237 1238
f 1173 1238 1239
f 1173 1239 1240
f 1173 1240 1178
f 1175 1241 1176
f 1175 1179 1240
f 1175 1240 1242
f 1175 1242 1241
f 1176 1241 1243
f 1176 1243 1244
f 1176 1244 1245
f 1176 1245 1229
f 1178 1240 1179
f 1180 1246 1247
f 1180 1247 1186
f 1180 1186 1185
f 1180 1185 1198
f 1180 1198 1183
f 1180 1183 1181
f 1180 1184 1248
f 1180 1248 1249
f 1180 1249 1246
f 1181 1183 1182
f 1186 1247 1246
f 1186 1246 1250
f 1186 1250 1187
f 1187 1251 1252
f 1187 1252 1188
f 1187 1250 1251
f 1188 1252 1253
f 1188 1253 1254
f 1188 1254 1189
f 1189 1254 1255
f 1189 1255 1256
f 1189 1256 1257
f 1189 1257 1190
f 1190 1257 1258
f 1190 1258 1259
f 1190 1259 1260
f 1190 1260 1191
f 1191 1260 1259
f 1191 1259 1192
f 1192 1259 1261
f 1192 1261 1262
f 1192 1262 1263
f 1192 1263 1264
f 1192 1264 1193
f 1193 1264 1265
f 1193 1265 1194
f 1194 1265 1266
f 1194 1266 1267
f 1194 1267 1195
f 1195 1267 1268
f 1195 1268 1196
f 1196 1268 1197
f 1197 1268 1199
f 1199 1268 1267
f 1199 1267 1200
f 1200 1267 1269
f 1200 1269 1201
f 1201 1269 1202
f 1202 1269 1270
f 1202 1270 1203
f 1203 1270 1271
f 1203 1271 1204
f 1204 1271 1205
f 1205 1271 1272
f 1207 1215 1208
f 1208 1215 1212
f 1208 1212 1209
f 1212 1215 1213
f 1213 1215 1214
f 1219 1272 1270
f 1219 1270 1223
f 1219 1223 1222
f 1219 1222 1221
f 1219 1221 1220
f 1223 1273 1274
f 1223 1274 1275
f 1223 1275 1224
f 1223 1270 1265
f 1223 1265 1273
f 1224 1275 1225
f 1225 1275 1274
f 1225 1274 1276
f 1225 1276 1277
f 1225 1277 1226
f 1226 1277 1227
f 1227 1277 1228
f 1228 1277 1232
f 1229 1245 1230
f 1232 1277 1278
f 1232 1278 1279
f 1232 1279 1233
f 1233 1279 1280
f 1233 1280 1281
f 1233 1281 1234
f 1234 1281 1282
f 1234 1282 1283
f 1234 1283 1236
f 1234 1236 1235
f 1236 1283 1237
f 1237 1283 1282
f 1237 1282 1284
f 1238 1285 1239
f 1239 1285 1240
f 1241 1286 1243
f 1241 1242 1287
f 1241 1287 1286
f 1246 1288 1250
f 1246 1249 1288
f 1251 1289 1290
f 1251 1290 1252
f 1252 1290 1289
f 1252 1289 1253
f 1253 1289 1291
f 1253 1291 1254
f 1254 1291 1292
f 1254 1292 1255
f 1255 1292 1293
f 1255 1293 1294
f 1255 1294 1295
f 1255 1295 1256
f 1256 1295 1296
f 1256 1296 1297
f 1256 1297 1257
f 1257 1297 1298
f 1257 1298 1258
f 1258 1261 1259
f 1258 1298 1262
f 1258 1262 1261
f 1262 1298 1299
f 1262 1299 1300
f 1262 1300 1301
f 1262 1301 1264
f 1262 1264 1263
f 1264 1301 1273
f 1264 1273 1265
f 1265 1270 1266
f 1266 1270 1269
f 1266 1269 1267
f 1270 1272 1271
f 1273 1301 1302
f 1273 1302 1303
f 1273 1303 1276
f 1273 1276 1274
f 1276 1303 1304
f 1276 1304 1305
f 1276 1305 1277
f 1277 1305 1278
f 1278 1305 1306
f 1278 1306 1279
f 1279 1306 1307
f 1279 1307 1308
f 1279 1308 1280
f 1280 1308 1281
f 1281 1308 1309
f 1281 1309 1310
f 1281 1310 1282
f 1282 1311 1284
f 1282 1310 1311
f 1291 1312 1292
f 1292 1312 1293
f 1293 1312 1313
f 1293 1313 1314
f 1293 1314 1294
f 1294 1296 1295
f 1294 1314 1296
f 1296 1315 1316
f 1296 1316 1298
f 1296 1298 1297
f 1296 1314 1315
f 1298 1316 1317
f 1298 1317 1318
f 1298 1318 1319
f 1298 1319 1320
f 1298 1320 1299
f 1299 1320 1307
f 1299 1307 1321
f 1299 1321 1304
f 1299 1304 1322
f 1299 1322 1300
f 1300 1322 1302
f 1300 1302 1301
f 1302 1322 1303
f 1303 1322 1304
f 1304 1321 1305
f 1305 1321 1306
f 1306 1321 1307
f 1307 1323 1308
f 1307 1320 1323
f 1308 1323 1320
f 1308 1320 1324
f 1308 1324 1325
f 1308 1325 1309
f 1314 1326 1315
f 1315 1326 1317
f 1315 1317 1316
f 1318 1327 1319
f 1319 1327 1328
f 1319 1328 1324
f 1319 1324 1320
f 1324 1328 1329
f 1324 1329 1330
f 1324 1330 1325

