# https://github.com/mikedh/trimesh
v -0.70366752 -0.18982749 0.00293516
v -0.70364577 -0.18987887 0.00306773
v -0.70366752 -0.18984748 -0.01658484
v -0.70366752 -0.18984748 -0.02049484
v -0.70534754 -0.18601748 -0.06346484
v -0.64307588 -0.12648249 -0.03187309
v -0.68413752 -0.15660749 -0.02049484
v -0.70366752 -0.18993749 -0.10642484
v -0.70367754 -0.18992749 -0.10642484
v -0.70366752 -0.18993749 -0.11033484
v -0.70366752 -0.18982749 -0.00486484
v -0.70872295 -0.17846999 -0.13365631
v -0.70366752 -0.18982749 -0.00096484
v -0.67632753 -0.15087751 -0.01267484
v -0.67632753 -0.15087751 -0.00877484
v -0.67629755 -0.15085749 -0.00877484
v -0.70365751 -0.18992749 -0.06736484
v -0.70362753 -0.18992749 -0.00096484
v -0.70362753 -0.18992749 -0.00486484
v -0.70361751 -0.18992749 0.01465516
v -0.69476521 -0.16437206 -0.19329230
v -0.67632753 -0.15087751 -0.00486484
v -0.67632753 -0.15087751 -0.00096484
v -0.67629755 -0.15085749 -0.00486484
v -0.70366067 -0.18982995 0.01403395
v -0.67632753 -0.15084749 -0.18846484
v -0.67634755 -0.15085749 -0.18455485
v -0.67632753 -0.15084749 -0.18455485
v -0.67631751 -0.15086070 -0.08299369
v -0.67632753 -0.15086751 -0.07908484
v -0.67631751 -0.15085749 -0.08299484
v -0.70363754 -0.18992749 -0.01658484
v -0.70363754 -0.18992749 -0.02049484
v -0.68459141 -0.13950126 -0.45287186
v -0.70367754 -0.18992749 -0.11033484
v -0.68938166 -0.16047876 0.03036157
v -0.70366752 -0.18983749 -0.01267484
v -0.70366752 -0.18983749 -0.00877484
v -0.70365751 -0.18992749 -0.06346484
v -0.70366752 -0.18988749 -0.06346484
v -0.70757997 -0.18086016 -0.06408370
v -0.70914668 -0.17567798 0.03785247
v -0.70908612 -0.17541490 -0.02931062
v -0.67631751 -0.15085749 -0.07908484
v -0.70365751 -0.18992749 -0.05955484
v -0.70364755 -0.18992749 -0.05564484
v -0.70366752 -0.18988749 -0.05564484
v -0.70366752 -0.18988749 -0.05955484
v -0.70366186 -0.18986614 -0.02479324
v -0.67632753 -0.15087751 -0.02439484
v -0.67632753 -0.15087751 -0.02830484
v -0.68898815 -0.16017333 -0.02240508
v -0.70366752 -0.18987750 -0.05174484
v -0.70366752 -0.18987750 -0.04783484
v -0.70366752 -0.18992749 -0.10252484
v -0.70363754 -0.18992749 -0.01267484
v -0.70362753 -0.18992749 -0.00877484
v -0.67317879 -0.14855675 0.14153606
v -0.61772752 -0.10786749 -0.02049484
v -0.61776751 -0.10788750 -0.01658484
v -0.61772752 -0.10786749 -0.01658484
v -0.70366752 -0.18980749 0.02246516
v -0.70361751 -0.18992749 0.01856516
v -0.70362353 -0.18991253 0.02360389
v -0.67629755 -0.15085749 0.00293516
v -0.70866811 -0.17824169 -0.00499665
v -0.70366752 -0.18980749 0.01856516
v -0.61772752 -0.10786749 0.08887516
v -0.61776751 -0.10788750 0.09278516
v -0.61772752 -0.10786749 0.09278516
v -0.67239118 -0.14804110 0.07333068
v -0.67632753 -0.15087751 0.01465516
v -0.67599678 -0.15068635 -0.03613427
v -0.67634183 -0.15085463 -0.19236484
v -0.67632753 -0.15084749 -0.15721484
v -0.67633754 -0.15085749 -0.15721484
v -0.67633754 -0.15085749 -0.15330485
v -0.70366752 -0.18989751 -0.06736484
v -0.68699753 -0.15867749 -0.19627485
v -0.61772752 -0.10786749 -0.09471484
v -0.61776751 -0.10788750 -0.09080484
v -0.61772752 -0.10786749 -0.09080484
v -0.70363754 -0.18992749 -0.02439484
v -0.70367754 -0.18992749 -0.11424484
v -0.70759171 -0.17624240 0.13955368
v -0.69831163 -0.20225786 -0.09861923
v -0.67632753 -0.15086751 -0.04002484
v -0.69889557 -0.20081569 0.03012862
v -0.67632753 -0.15087751 -0.01658484
v -0.67630756 -0.15085749 -0.01658484
v -0.67630756 -0.15085749 -0.02049484
v -0.70194751 -0.19382749 -0.02439484
v -0.70174223 -0.19426624 -0.00600427
v -0.69872665 -0.20123872 -0.06443841
v -0.70364755 -0.18992749 -0.05174484
v -0.70365471 -0.18990637 -0.04720417
v -0.67632753 -0.15087751 0.00293516
v -0.67632753 -0.15087751 0.00684516
v -0.67629755 -0.15085749 -0.00096484
v -0.67629755 -0.15085749 0.00684516
v -0.67629755 -0.15085749 0.01074516
v -0.65655065 -0.13642421 0.00892402
v -0.67632753 -0.15087751 -0.02049484
v -0.67630756 -0.15085749 -0.02439484
v -0.67633754 -0.15085749 -0.16111486
v -0.67098755 -0.14695749 -0.02830484
v -0.67630756 -0.15085749 -0.04783484
v -0.67632753 -0.15086751 -0.04392484
v -0.67630756 -0.15085749 -0.04392484
v -0.67632753 -0.15085749 -0.14158484
v -0.67633754 -0.15085749 -0.14158484
v -0.67633754 -0.15085749 -0.13767484
v -0.70974672 -0.17570940 -0.15938123
v -0.67632753 -0.15084749 -0.15330485
v -0.67632753 -0.15084749 -0.14939485
v -0.67633754 -0.15085749 -0.14939485
v -0.61776751 -0.10788750 -0.12986486
v -0.61776751 -0.10788750 -0.12596484
v -0.61772752 -0.10786749 -0.12986486
v -0.67631751 -0.15085749 -0.05955484
v -0.66967332 -0.14598492 -0.06309041
v -0.67632753 -0.15086751 -0.05564484
v -0.61772752 -0.10786749 -0.03221484
v -0.61776751 -0.10788750 -0.03221484
v -0.61776751 -0.10788750 -0.02830484
v -0.67632753 -0.15085749 -0.13767484
v -0.65791583 -0.13731682 -0.17027277
v -0.67630756 -0.15085749 -0.05174484
v -0.67632753 -0.15086751 -0.07127484
v -0.67632753 -0.15086751 -0.07517484
v -0.67632753 -0.15086751 -0.04783484
v -0.67632753 -0.15086751 -0.03611484
v -0.67630756 -0.15085749 -0.03221484
v -0.67632753 -0.15087751 -0.03221484
v -0.67632753 -0.15084749 -0.19236486
v -0.67634755 -0.15085749 -0.18846484
v -0.67633754 -0.15085749 -0.16502485
v -0.67633754 -0.15085749 -0.16892484
v -0.67632753 -0.15087751 0.01074516
v -0.67632753 -0.15086751 -0.06736484
v -0.67631751 -0.15085749 -0.07127484
v -0.70819026 -0.17587318 -0.09304767
v -0.67632753 -0.15084749 -0.18064485
v -0.67634755 -0.15085749 -0.17674483
v -0.67632753 -0.15084749 -0.17674483
v -0.61776751 -0.10788750 -0.14158484
v -0.67630756 -0.15085749 -0.02830484
v -0.67632753 -0.15086751 -0.06346484
v -0.67631751 -0.15085749 -0.06346484
v -0.67631751 -0.15085749 -0.06736484
v -0.67633754 -0.15085749 -0.17283484
v -0.67632753 -0.15084749 -0.16892484
v -0.67632753 -0.15084749 -0.16502485
v -0.67632753 -0.15084749 -0.17283484
v -0.67634755 -0.15085749 -0.18064485
v -0.67632753 -0.15085749 -0.13377485
v -0.65306580 -0.13347965 -0.21066047
v -0.67631751 -0.15085749 -0.07517484
v -0.61772752 -0.10786749 -0.14158484
v -0.61772752 -0.10786749 -0.14549483
v -0.67632753 -0.15084749 -0.14549483
v -0.67632753 -0.15086751 -0.05955484
v -0.63340455 -0.11936569 -0.14274518
v -0.67630756 -0.15085749 -0.01267484
v -0.61772752 -0.10785749 -0.18846484
v -0.61777753 -0.10788750 -0.18455485
v -0.61772752 -0.10785749 -0.18455485
v -0.67633754 -0.15085749 -0.14549483
v -0.66089642 -0.13954891 -0.02849247
v -0.67632753 -0.15084749 -0.16111486
v -0.65274322 -0.13352774 -0.10577811
v -0.61776751 -0.10788750 -0.05174484
v -0.61776751 -0.10788750 -0.04783484
v -0.61772752 -0.10786749 -0.05174484
v -0.66566753 -0.14304750 -0.07908484
v -0.61776751 -0.10788750 0.03418516
v -0.61776751 -0.10788750 0.03809516
v -0.61772752 -0.10786749 0.03418516
v -0.61777753 -0.10788750 -0.15721484
v -0.61777753 -0.10788750 -0.16111486
v -0.61772752 -0.10785749 -0.16111486
v -0.61772752 -0.10786749 -0.05955484
v -0.61772752 -0.10785749 -0.15721484
v -0.61772752 -0.10786749 -0.11424484
v -0.61776751 -0.10788750 -0.11033484
v -0.61772752 -0.10786749 -0.11033484
v -0.61777753 -0.10788750 -0.17283484
v -0.61772752 -0.10785749 -0.17283484
v -0.61772752 -0.10785749 -0.17674483
v -0.61772752 -0.10786749 0.01074516
v -0.61776751 -0.10788750 0.01465516
v -0.61772752 -0.10786749 0.01465516
v -0.63126034 -0.36278206 -0.32956323
v -0.61776751 -0.10788750 0.04199516
v -0.61776751 -0.10788750 0.04590516
v -0.61772752 -0.10786749 0.04199516
v -0.61777753 -0.10788750 -0.19236486
v -0.61772752 -0.10785749 -0.19627485
v -0.61772752 -0.10786749 -0.12596484
v -0.61776751 -0.10788750 -0.12205484
v -0.61772752 -0.10786749 0.00684516
v -0.61776751 -0.10788750 0.00684516
v -0.61776751 -0.10788750 0.01074516
v -0.61776751 -0.10788750 -0.01267484
v -0.61776751 -0.10788750 -0.00877484
v -0.61772752 -0.10786749 -0.01267484
v -0.61772752 -0.10786749 0.06153516
v -0.61776751 -0.10788750 0.06153516
v -0.61776751 -0.10788750 0.06543516
v -0.61776751 -0.10788750 -0.10642484
v -0.61772752 -0.10786749 0.03028516
v -0.61776751 -0.10788750 0.03028516
v -0.61776751 -0.10788750 0.04981516
v -0.61776751 -0.10788750 0.05371516
v -0.61772752 -0.10786749 0.04981516
v -0.60074389 -0.37772283 0.42277661
v -0.61382753 -0.13183749 -0.37596485
v -0.61382753 -0.13523749 -0.37600484
v -0.61380756 -0.13523749 -0.37596485
v -0.61776751 -0.10788750 0.08496516
v -0.61772752 -0.10786749 0.08496516
v -0.61772752 -0.10786749 0.08106516
v -0.61777753 -0.10788750 -0.18846484
v -0.63643461 -0.12162059 0.04256823
v -0.61776751 -0.10788750 0.12012516
v -0.61772752 -0.10786749 0.12403516
v -0.61776751 -0.10788750 0.12403516
v -0.61776751 -0.10788750 0.12793516
v -0.61776751 -0.10788750 0.13965514
v -0.61772752 -0.10786749 0.13965514
v -0.61772752 -0.10786749 0.13574515
v -0.61382997 -0.13914743 0.43659544
v -0.61380643 -0.13914634 0.43650830
v -0.61777753 -0.10788750 -0.18064485
v -0.61772752 -0.10785749 -0.18064485
v -0.61776751 -0.10788750 -0.15330485
v -0.61772752 -0.10786749 -0.12205484
v -0.61776751 -0.10788750 -0.11814484
v -0.61772752 -0.10786749 -0.11814484
v -0.61776751 -0.10788750 -0.02439484
v -0.61772752 -0.10786749 -0.02830484
v -0.61776751 -0.10788750 -0.00096484
v -0.61776751 -0.10788750 -0.00486484
v -0.61772752 -0.10786749 -0.00486484
v -0.61772752 -0.10786749 0.00293516
v -0.61776751 -0.10788750 -0.13767484
v -0.61772752 -0.10786749 -0.13767484
v -0.61776751 -0.10788750 0.01856516
v -0.61776751 -0.10788750 -0.11424484
v -0.61772752 -0.10786749 0.12012516
v -0.61776751 -0.10788750 -0.04392484
v -0.61772752 -0.10786749 0.02637516
v -0.61776751 -0.10788750 0.08887516
v -0.61772752 -0.10786749 0.03809516
v -0.61776751 -0.10788750 0.08106516
v -0.61776751 -0.10788750 0.07715516
v -0.61772752 -0.10786749 0.07715516
v -0.61772752 -0.10786749 0.05371516
v -0.61776751 -0.10788750 0.05762516
v -0.61776751 -0.10788750 0.11231516
v -0.61776751 -0.10788750 0.10840516
v -0.61772752 -0.10786749 0.10840516
v -0.61776751 -0.10788750 0.09668516
v -0.61772752 -0.10786749 0.09668516
v -0.61772752 -0.10786749 0.11231516
v -0.67835093 -0.12615082 -0.34233010
v -0.61776751 -0.10788750 -0.08299484
v -0.61776751 -0.10788750 -0.07908484
v -0.61772752 -0.10786749 -0.08299484
v -0.61777753 -0.10788750 -0.16502485
v -0.61772752 -0.10785749 -0.16502485
v -0.61772752 -0.10785749 -0.16892484
v -0.61776751 -0.10788750 -0.07517484
v -0.61772752 -0.10786749 -0.07908484
v -0.61380756 -0.13523749 0.43653515
v -0.62107170 -0.10806221 -0.21120134
v -0.61772752 -0.10786749 -0.10252484
v -0.61776751 -0.10788750 -0.09861484
v -0.61772752 -0.10786749 -0.09861484
v -0.61776751 -0.10788750 -0.10252484
v -0.61776751 -0.10788750 -0.06346484
v -0.61772752 -0.10786749 -0.06346484
v -0.61772752 -0.10786749 -0.06736484
v -0.61776751 -0.10788750 0.06934515
v -0.61776751 -0.10788750 0.07324516
v -0.61772752 -0.10786749 0.06934515
v -0.61776751 -0.10788750 -0.05564484
v -0.61772752 -0.10786749 -0.05564484
v -0.58234388 -0.08269659 0.15840006
v -0.61772752 -0.10786749 0.07324516
v -0.61772752 -0.10786749 -0.00877484
v -0.61776751 -0.10788750 -0.09471484
v -0.61776751 -0.10788750 -0.07127484
v -0.61772752 -0.10786749 -0.07127484
v -0.61772752 -0.10786749 -0.07517484
v -0.61772752 -0.10786749 -0.08689484
v -0.61776751 -0.10788750 -0.13377485
v -0.61772752 -0.10786749 -0.13377485
v -0.61776751 -0.10788750 -0.04002484
v -0.61772752 -0.10786749 -0.04002484
v -0.61772752 -0.10786749 -0.04392484
v -0.61776751 -0.10788750 -0.02049484
v -0.61776751 -0.10788750 0.10059515
v -0.61772752 -0.10786749 0.10059515
v -0.61772752 -0.10786749 0.05762516
v -0.61776751 -0.10788750 0.02637516
v -0.61776751 -0.10788750 0.14356516
v -0.61772752 -0.10786749 0.14356516
v -0.61772752 -0.10786749 0.11621516
v -0.61776751 -0.10788750 0.11621516
v -0.61772752 -0.10786749 0.12793516
v -0.61776751 -0.10788750 0.13184515
v -0.61772752 -0.10786749 0.13184515
v -0.63964719 -0.12394211 -0.20801342
v -0.58614075 -0.08465952 0.08385977
v -0.61776751 -0.10788750 0.14746515
v -0.61382753 -0.13913751 -0.37592486
v -0.61382753 -0.13523749 0.43651515
v -0.61382753 -0.13183749 0.43653515
v -0.61772752 -0.14110748 -0.37596485
v -0.61379755 -0.13913751 -0.37596485
v -0.61378551 -0.13914248 -0.37602571
v -0.61619145 -0.12931727 -0.35474905
v -0.61772752 -0.10786749 0.06543516
v -0.61379755 -0.13913751 0.43653515
v -0.61595088 -0.13060722 -0.40727147
v -0.61772752 -0.10785749 -0.19236486
v -0.61776751 -0.10788750 -0.14549483
v -0.61777753 -0.10788750 -0.16892484
v -0.61777753 -0.10788750 -0.17674483
v -0.61776751 -0.10788750 -0.14939485
v -0.61772752 -0.10785749 -0.14939485
v -0.61776751 -0.10788750 -0.08689484
v -0.61772752 -0.10786749 0.01856516
v -0.61772752 -0.10786749 -0.04783484
v -0.61776751 -0.10788750 -0.05955484
v -0.61776751 -0.10788750 -0.06736484
v -0.61772752 -0.10786749 -0.10642484
v -0.61772752 -0.10786749 -0.02439484
v -0.61776751 -0.10788750 -0.03611484
v -0.61772752 -0.10786749 -0.03611484
v -0.61772752 -0.10786749 -0.00096484
v -0.61776751 -0.10788750 0.00293516
v -0.61772752 -0.10786749 0.04590516
v -0.61776751 -0.10788750 0.02246516
v -0.61772752 -0.10786749 0.02246516
v -0.61776751 -0.10788750 0.10449516
v -0.61772752 -0.10786749 0.10449516
v -0.61776751 -0.10788750 0.13574515
v -0.58348989 -0.08287871 -0.14172599
v -0.57175452 -0.40163201 -0.41663587
v -0.58347350 -0.08284719 -0.11826838
v -0.60601711 -0.09925736 0.03189130
v -0.57937294 -0.08220061 -0.03451376
v -0.61772752 -0.10785749 -0.15330485
v -0.57912678 -0.08190544 -0.17432959
v -0.50054753 -0.33037749 -0.41111484
v -0.43301335 -0.47932029 0.34791395
v -0.42244756 -0.48679748 0.38184515
v -0.42241752 -0.48676750 0.38184515
v -0.41851753 -0.48804748 0.42090514
v -0.49646699 -0.32648009 -0.41115767
v -0.49636900 -0.32671130 -0.41095251
v -0.49663755 -0.32669750 -0.41111484
v -0.49088573 -0.32397115 -0.40939647
v -0.50054753 -0.33054748 -0.41100484
v -0.50444752 -0.33404750 -0.41111484
v -0.51130277 -0.28730449 -0.45701376
v -0.49602640 -0.13322066 0.43942344
v -0.44962388 -0.48159268 0.39983165
v -0.63040221 -0.11884721 0.40308946
v -0.42813906 -0.49268389 0.37694809
v -0.43931150 -0.48649338 0.43596953
v -0.45191720 -0.36644563 -0.33606884
v -0.34135413 -0.11081680 -0.41134617
v -0.51186389 -0.14092571 -0.39178112
v -0.41851753 -0.48802748 0.41699514
v -0.42240754 -0.48679748 0.37793514
v -0.42241752 -0.48877749 0.37403515
v -0.42242417 -0.48679700 0.37792835
v -0.42241752 -0.48679748 0.37793514
v -0.42233902 -0.48684847 0.38240179
v -0.42241752 -0.48679748 0.42091516
v -0.42241752 -0.48679748 0.42090514
v -0.42240754 -0.48679748 0.42090514
v -0.42241752 -0.48677748 0.41699514
v -0.42242283 -0.48678192 0.41693556
v -0.42514756 -0.49070749 0.42090514
v -0.42235753 -0.48679748 0.41699514
v -0.42241752 -0.12745748 0.40137514
v -0.42240754 -0.12742749 0.39746514
v -0.42241177 -0.12742923 0.39743087
v -0.42632753 -0.12742749 0.39568514
v -0.42351753 -0.13132749 0.40528515
v -0.42241254 -0.12742141 0.40140578
v -0.42632753 -0.12742749 0.40303516
v -0.42241752 -0.12736750 0.39746514
v -0.42241752 -0.12737750 0.40137514
v 0.18130919 -0.36829582 0.27392331
v -0.40074122 -0.50088406 0.40699893
v -0.37581643 -0.36570922 -0.30762482
v -0.36772752 -0.36960748 -0.30564484
v -0.36382753 -0.36959749 -0.30564484
v -0.34529895 -0.35020599 -0.30880752
v -0.37554753 -0.36961749 -0.30564484
v -0.37163755 -0.36960748 -0.30564484
v -0.37554753 -0.36960748 -0.30565485
v -0.39696586 -0.37016502 -0.29841733
v -0.36782676 -0.35787791 0.42478850
v -0.36772752 -0.36179748 0.42670515
v -0.35584596 -0.36958945 -0.30563891
v -0.35601753 -0.36960748 -0.30556485
v -0.35991752 -0.36959749 -0.30564484
v -0.35991752 -0.36960748 -0.30558485
v -0.35542214 -0.37009153 -0.30255377
v -0.37103757 -0.36960748 -0.30564484
v -0.34801781 -0.37028241 0.42936736
v -0.39606157 -0.37106317 -0.31223580
v -0.35524631 -0.47782567 0.43020269
v -0.37944752 -0.36961749 -0.30564484
v -0.37944752 -0.36960748 -0.30565485
v -0.36382753 -0.36960748 -0.30560485
v -0.36772752 -0.36960748 -0.30562484
v -0.38335755 -0.36961749 -0.30564484
v -0.37163013 -0.35865438 0.43200216
v -0.36772752 -0.35788748 0.42478514
v -0.36382753 -0.35784748 0.42481515
v -0.32702956 -0.37086046 -0.30011708
v -0.36784565 -0.37011546 -0.30173802
v -0.36382753 -0.35788748 0.42478514
v -0.36365816 -0.35789126 0.42480582
v -0.36772752 -0.35800749 0.42481515
v -0.36382753 -0.35468748 0.42871514
v -0.34430403 -0.11577605 -0.35252729
v -0.34429753 -0.11570749 -0.35249484
v -0.34038755 -0.11576749 -0.35252485
v -0.34038755 -0.11570749 -0.35249484
v -0.34429753 -0.11179749 -0.35246485
v -0.34004918 -0.11594148 -0.35276625
v -0.34038755 -0.11179749 -0.35246485
v -0.33817095 -0.10957387 -0.35325798
v -0.34437752 -0.11570749 -0.35252485
v -0.35767737 -0.11387817 -0.35349196
v -0.34429923 -0.11175309 -0.35247064
v -0.28569752 -0.00242749 0.10453516
v -0.28574753 -0.00242749 0.10449516
v -0.28574753 0.00147251 0.10449516
v -0.28569752 0.00147251 0.10453516
v -0.28572276 -0.02247098 0.10451477
v -0.28574753 -0.01804749 0.10449516
v -0.29428306 -0.05928763 0.44598708
v -0.28574753 0.01319251 0.10449516
v -0.27589393 -0.00688341 0.11156949
v -0.28569752 -0.01804749 0.10453516
v -0.28574753 -0.01413749 0.10449516
v -0.28569752 -0.01413749 0.10453516
v -0.28569752 -0.00632749 0.10453516
v -0.30111316 -0.00895838 0.09292730
v -0.28574753 -0.00632749 0.10449516
v -0.28569752 -0.01023749 0.10453516
v -0.28569752 -0.02195749 0.10453516
v -0.28574753 0.00538251 0.10449516
v -0.27440780 0.03993584 0.10432494
v -0.42659155 -0.12896971 0.40156567
v -0.28574753 -0.01023749 0.10449516
v -0.28569752 0.00538251 0.10453516
v -0.28574753 0.00928251 0.10449516
v -0.28569752 0.00928251 0.10453516
v -0.22164916 -0.40848482 0.43481594
v -0.00782272 -0.49105790 0.42865509
v -0.14127004 -0.37328437 0.43076834
v -0.13534291 -0.35624337 0.42878076
v -0.13726754 -0.36960748 0.42476514
v -0.13732755 -0.36570749 0.42481515
v -0.13725305 -0.36567253 0.42477402
v -0.13735755 -0.36960748 0.42481515
v -0.13726069 -0.36979294 0.42475811
v -0.13752912 -0.36410215 0.42540050
v -0.02769349 -0.46341577 0.37367555
v 0.03460246 0.04053251 -0.39548486
v 0.04729808 0.04340251 -0.39158484
v -0.01342713 0.11407703 -0.11710144
v -0.01663923 0.10015124 -0.19245195
v -0.08936990 0.07803948 -0.30407864
v -0.02007754 0.10303251 -0.17659485
v -0.01616754 -0.47507748 0.37389514
v -0.01178802 -0.49577752 0.35627723
v -0.02007826 -0.47117749 0.37411413
v -0.02397754 -0.46726748 0.37412515
v 0.00726246 0.10302250 -0.17674483
v 0.00726246 0.10303251 -0.17666484
v 0.01116246 0.10302250 -0.17674483
v -0.02397754 0.04048250 -0.39549485
v -0.02788754 0.04053251 -0.39548486
v -0.02397754 0.04053251 -0.39548486
v 0.12412118 -0.06842044 0.46387568
v -0.03569754 0.04048250 -0.39549485
v -0.03179754 0.04048250 -0.39549485
v -0.05501871 0.04310128 -0.37547609
v -0.02540137 -0.07948138 -0.43071106
v -0.02769754 -0.46335748 0.37403515
v -0.02397754 -0.46727750 0.37403515
v -0.02008754 -0.47117749 0.37403515
v -0.02007754 -0.47117749 0.37390515
v -0.03761987 -0.44727504 0.38027966
v -0.02398754 -0.46726748 0.37403515
v -0.02397754 -0.46726748 0.37390515
v -0.02772983 -0.46331826 0.37403652
v -0.03179754 0.04053251 -0.39548486
v -0.03960754 0.04053251 -0.39548486
v -0.03569754 0.04053251 -0.39548486
v -0.03350442 0.03855751 -0.39556485
v -0.00055754 0.04053251 -0.39548486
v 0.00335246 0.04053251 -0.39548486
v 0.00335246 0.04048250 -0.39549485
v -0.02788754 0.04048250 -0.39549485
v -0.01616754 0.04053251 -0.39548486
v -0.02007754 0.04048250 -0.39549485
v -0.01616754 0.04048250 -0.39549485
v -0.02007754 0.04053251 -0.39548486
v -0.01226754 0.04053251 -0.39548486
v -0.01226754 0.04048250 -0.39549485
v -0.01617254 0.04340251 -0.39158484
v -0.01226754 0.10303251 -0.17661484
v -0.01226754 0.10301250 -0.17674483
v -0.01616754 0.10303251 -0.17660484
v -0.01616754 0.10301250 -0.17674483
v 0.01898246 0.10448250 -0.16892484
v -0.00055754 0.10302250 -0.17674483
v -0.00445754 0.10301250 -0.17674483
v 0.01507246 0.10302250 -0.17674483
v 0.01116246 0.10303251 -0.17668486
v 0.01507246 0.10303251 -0.17669486
v 0.01898246 0.10303251 -0.17674483
v -0.00055754 0.10303251 -0.17664485
v 0.00335246 0.10302250 -0.17674483
v -0.00055754 0.04048250 -0.39549485
v 0.00335246 0.10303251 -0.17665485
v -0.00836754 0.10303251 -0.17662483
v -0.00445754 0.10303251 -0.17663483
v -0.00811817 0.03663251 -0.39563486
v -0.00836754 0.10301250 -0.17674483
v -0.00836754 0.04048250 -0.39549485
v -0.00836754 0.04053251 -0.39548486
v 0.01898246 0.04053251 -0.39548486
v 0.00726246 0.04048250 -0.39549485
v -0.00445754 0.04048250 -0.39549485
v -0.00445754 0.04053251 -0.39548486
v 0.01116246 0.04048250 -0.39549485
v 0.01507246 0.04048250 -0.39549485
v 0.00872433 0.04340251 -0.39158484
v 0.01507246 0.04053251 -0.39548486
v 0.01898246 0.04048250 -0.39549485
v 0.00726246 0.04053251 -0.39548486
v 0.01116246 0.04053251 -0.39548486
v 0.05413246 0.10304251 -0.17674483
v 0.03460246 0.10303251 -0.17674483
v 0.03851246 0.10304251 -0.17674483
v 0.03851246 0.10303251 -0.17675485
v 0.02679246 0.04048250 -0.39549485
v 0.01897746 0.03663251 -0.39563486
v 0.16741246 0.04048250 -0.39549485
v 0.01898246 0.10303251 -0.17670485
v 0.03460246 0.04048250 -0.39549485
v 0.03851246 0.04048250 -0.39549485
v 0.08196957 0.11391781 -0.11984927
v 0.03353246 0.10303251 -0.17674483
v 0.05413246 0.10303251 -0.17679486
v 0.05023246 0.10303251 -0.17678483
v 0.02288246 0.10303251 -0.17674483
v 0.02288246 0.10303251 -0.17671484
v 0.03329671 -0.06882810 0.46414852
v 0.05633069 -0.06882645 0.46419549
v 0.02288246 0.04048250 -0.39549485
v 0.02288246 0.04053251 -0.39548486
v 0.04241246 0.10304251 -0.17674483
v 0.03069246 0.10303251 -0.17674483
v 0.02679246 0.10303251 -0.17674483
v 0.03069246 0.10303251 -0.17673483
v 0.02679246 0.10376251 -0.17283484
v 0.02679246 0.10303251 -0.17672484
v 0.05413246 0.04048250 -0.39549485
v 0.05023246 0.04053251 -0.39548486
v 0.05413246 0.04053251 -0.39548486
v 0.02679246 0.04053251 -0.39548486
v 0.04632246 0.04048250 -0.39549485
v 0.04241246 0.04053251 -0.39548486
v 0.04632246 0.04053251 -0.39548486
v 0.15960245 0.04048250 -0.39549485
v 0.15569246 0.04053251 -0.39548486
v 0.15960245 0.04053251 -0.39548486
v 0.04975480 -0.06852930 0.46387655
v 0.04461511 0.10082361 -0.18868829
v 0.03069246 0.04053251 -0.39548486
v 0.03069246 0.04048250 -0.39549485
v 0.04363683 0.03663251 -0.39563486
v 0.04241246 0.04048250 -0.39549485
v 0.04241246 0.10303251 -0.17676485
v 0.04632246 0.10304251 -0.17674483
v 0.04632246 0.10303251 -0.17677484
v 0.03851246 0.04053251 -0.39548486
v 0.05023246 0.04048250 -0.39549485
v 0.07268808 0.04340251 -0.39158484
v 0.15569246 0.04048250 -0.39549485
v 0.06194246 0.10305251 -0.17674483
v 0.05023246 0.10304251 -0.17674483
v 0.05804245 0.10305251 -0.17674483
v 0.05804245 0.10303251 -0.17680486
v 0.03817453 0.10707635 -0.15498602
v 0.01496286 -0.30091953 0.38688353
v 0.13533688 -0.09300657 0.46553838
v 0.07264097 -0.06882718 0.46422505
v 0.08147911 -0.06845750 0.46387514
v 0.08347336 -0.06883394 0.46425608
v 0.06295528 0.10303880 -0.17679395
v 0.07757246 0.04053251 -0.39548486
v 0.06299087 -0.06850494 0.46387696
v 0.05804245 0.04053251 -0.39548486
v 0.05804245 0.04048250 -0.39549485
v 0.07757246 0.04048250 -0.39549485
v 0.07366245 0.04053251 -0.39548486
v 0.06585246 0.04048250 -0.39549485
v 0.06585246 0.04053251 -0.39548486
v 0.06976246 0.04048250 -0.39549485
v 0.07366245 0.04048250 -0.39549485
v 0.06194246 0.04053251 -0.39548486
v 0.06976246 0.04053251 -0.39548486
v 0.06194246 0.04048250 -0.39549485
v 0.07268808 0.03663251 -0.39563486
v 0.08148246 0.04053251 -0.39548486
v 0.08148246 0.04048250 -0.39549485
v 0.08538246 0.04053251 -0.39548486
v 0.08929245 0.04053251 -0.39548486
v 0.08929245 0.04048250 -0.39549485
v 0.08538246 0.04048250 -0.39549485
v 0.15179245 0.04053251 -0.39548486
v 0.09730998 -0.06882701 0.46427491
v 0.09395656 -0.06843579 0.46387517
v 0.15179245 0.04048250 -0.39549485
v 0.10101246 0.04048250 -0.39549485
v 0.10101246 0.04053251 -0.39548486
v 0.10491245 0.04048250 -0.39549485
v 0.09612496 0.04340251 -0.39158484
v 0.09319246 0.04048250 -0.39549485
v 0.10272808 -0.06842060 0.46386781
v 0.11516871 0.04340251 -0.39158484
v 0.19085246 0.03663251 -0.39563486
v 0.17181121 0.03663251 -0.39563486
v 0.10491245 0.04053251 -0.39548486
v 0.10247371 0.03663251 -0.39563486
v 0.12444246 0.04048250 -0.39549485
v 0.12444246 0.04053251 -0.39548486
v 0.12835245 0.04048250 -0.39549485
v 0.10882246 0.04048250 -0.39549485
v 0.11273246 0.04048250 -0.39549485
v 0.11273246 0.04053251 -0.39548486
v 0.10882246 0.04053251 -0.39548486
v 0.09710246 0.04053251 -0.39548486
v 0.09710246 0.04048250 -0.39549485
v 0.09319246 0.04053251 -0.39548486
v 0.10739340 0.11419081 0.14713305
v 0.16417778 -0.06877428 0.46421659
v 0.14007245 0.04053251 -0.39548486
v 0.14666434 0.04340251 -0.39158484
v 0.11663246 0.04053251 -0.39548486
v 0.11663246 0.04048250 -0.39549485
v 0.14398246 0.04048250 -0.39549485
v 0.14398246 0.04053251 -0.39548486
v 0.11077746 -0.06872749 0.46417516
v 0.12298246 0.03663251 -0.39563486
v 0.12054245 0.04048250 -0.39549485
v 0.12835245 0.04053251 -0.39548486
v 0.12054245 0.04053251 -0.39548486
v 0.13048846 -0.06862718 0.46417138
v 0.17523246 0.04048250 -0.39549485
v 0.17523246 0.04053251 -0.39548486
v 0.17913246 0.04048250 -0.39549485
v 0.13226245 0.04048250 -0.39549485
v 0.13226245 0.04053251 -0.39548486
v 0.13616246 0.04053251 -0.39548486
v 0.13616246 0.04048250 -0.39549485
v 0.14007245 0.04048250 -0.39549485
v 0.14788246 0.04053251 -0.39548486
v 0.14788246 0.04048250 -0.39549485
v 0.16351245 0.04048250 -0.39549485
v 0.17132245 0.04048250 -0.39549485
v 0.19065133 0.09914932 -0.17682168
v 0.09272301 0.13465747 -0.07376362
v 0.20151204 0.09961503 -0.16508982
v 0.13051377 -0.07599696 0.31161556
v 0.16986769 -0.06840807 0.46387634
v 0.19085245 0.04048250 -0.39549485
v 0.18011247 -0.06882749 0.46427515
v 0.15537184 -0.06857785 0.46404928
v 0.16741246 0.04053251 -0.39548486
v 0.17132245 0.04053251 -0.39548486
v 0.15550475 -0.06957655 0.39946744
v 0.14886120 0.03663251 -0.39563486
v 0.16351245 0.04053251 -0.39548486
v 0.18694246 0.04048250 -0.39549485
v 0.18304245 0.04053251 -0.39548486
v 0.19353808 0.04340251 -0.39158484
v 0.31565654 0.03958873 -0.32945931
v 0.19476245 0.09851250 -0.17674483
v 0.23969594 -0.40207699 0.33582348
v 0.26507244 0.07955250 0.21778516
v 0.26910967 0.07959385 0.21399136
v 0.26898247 0.07960250 0.21406516
v 0.19085245 0.09912250 -0.17674483
v 0.19476245 0.09913250 -0.17341486
v 0.19516882 0.09918949 -0.17274067
v 0.29133317 -0.06590047 0.41370261
v 0.21038246 0.04048250 -0.39549485
v 0.21429245 0.04048250 -0.39549485
v 0.18304245 0.04048250 -0.39549485
v 0.18890199 -0.06840749 0.46387514
v 0.20614783 -0.06838155 0.46385649
v 0.20257245 0.04053251 -0.39548486
v 0.17913246 0.04053251 -0.39548486
v 0.19866246 0.04048250 -0.39549485
v 0.19866246 0.04053251 -0.39548486
v 0.20257245 0.04048250 -0.39549485
v 0.20940997 0.03663251 -0.39563486
v 0.20648246 0.04053251 -0.39548486
v 0.19476245 0.04053251 -0.39548486
v 0.18694246 0.04053251 -0.39548486
v 0.19085245 0.04053251 -0.39548486
v 0.19476245 0.04048250 -0.39549485
v 0.20648246 0.04048250 -0.39549485
v 0.19085243 0.09913137 -0.17671807
v 0.24554245 0.09130251 -0.17283484
v 0.24944244 0.09061250 -0.17283484
v 0.23977590 0.09673147 -0.14868835
v 0.21038246 0.04053251 -0.39548486
v 0.23761699 0.08737710 0.20205897
v 0.23213799 0.09518061 -0.16405791
v 0.26441526 0.07953402 0.21848153
v 0.24274905 0.08739670 -0.19737607
v 0.24945246 0.09132251 -0.16892484
v 0.24944244 0.09132251 -0.16893484
v 0.24944244 0.09132251 -0.16892484
v 0.19692609 -0.06874686 0.46417743
v 0.23385432 0.08857286 0.19955026
v 0.24163102 0.08741112 0.19831540
v 0.23378937 0.09016868 0.19124308
v 0.24554245 0.08741251 0.19476517
v 0.28867841 -0.07315334 0.39465925
v 0.21429245 0.04053251 -0.39548486
v 0.22942746 0.04340251 -0.39158484
v 0.23773246 0.08741251 0.20177516
v 0.24163245 0.08741251 0.19824515
v 0.22014995 -0.06877374 0.46422517
v 0.21819246 0.04048250 -0.39549485
v 0.23382245 0.04053251 -0.39548486
v 0.22210245 0.04048250 -0.39549485
v 0.22991246 0.04048250 -0.39549485
v 0.23773246 0.04048250 -0.39549485
v 0.23773246 0.04053251 -0.39548486
v 0.22601245 0.04053251 -0.39548486
v 0.22991246 0.04053251 -0.39548486
v 0.23382245 0.04048250 -0.39549485
v 0.21819246 0.04053251 -0.39548486
v 0.22210245 0.04053251 -0.39548486
v 0.22601245 0.04048250 -0.39549485
v 0.22942746 0.03663251 -0.39563486
v 0.25286621 0.03663251 -0.39563486
v 0.24163245 0.09129250 -0.17674483
v 0.24151246 0.09132251 -0.17674483
v 0.24163245 0.09132251 -0.17661484
v 0.23356913 0.08347254 0.22599657
v 0.23773246 0.09132251 -0.18046483
v 0.24861747 0.08292211 0.21515033
v 0.23387936 0.08434741 -0.22181030
v 0.24163245 0.04048250 -0.39549485
v 0.24163245 0.04053251 -0.39548486
v 0.23238213 -0.42907065 0.32315016
v 0.24167551 -0.40464479 0.32278231
v 0.24163245 -0.40486750 0.33106515
v 0.24157858 -0.40482774 0.33168054
v 0.24163245 -0.40456748 0.32715514
v 0.24163245 -0.40486750 0.32715514
v 0.24167244 -0.40476748 0.32324514
v 0.24163245 -0.40486750 0.32324514
v 0.24167244 -0.40476748 0.32715514
v 0.26500252 0.07960409 0.21762185
v 0.25335246 0.09133250 -0.16502485
v 0.24554245 0.09132251 -0.17277484
v 0.18370958 0.07229144 -0.32380074
v 0.28099877 0.07772426 0.21294928
v 0.26891339 0.07964049 0.21389610
v 0.25342181 0.09132712 -0.16499954
v 0.28873369 -0.07317624 0.34302390
v 0.29241246 -0.06880750 0.36231515
v 0.27726498 0.08271535 0.19040722
v 0.29840928 0.05808191 0.32888469
v 0.24163245 0.09200251 -0.17283484
v 0.24548246 0.09132251 -0.17283484
v 0.29632244 -0.06800750 0.36035889
v 0.29239246 -0.06882749 0.36621514
v 0.29239246 -0.06882749 0.37403515
v 0.28902870 -0.07304124 0.36499828
v 0.29239246 -0.06882749 0.37012514
v 0.29241246 -0.06880750 0.36621514
v 0.29241246 -0.06880750 0.37012514
v 0.28969246 -0.07273749 0.39356515
v 0.29241246 -0.06880750 0.37403515
v 0.28674567 -0.10152957 -0.37234592
v 0.40306464 0.08286629 0.10141434
v 0.39788246 0.06504251 -0.09080484
v 0.40180269 0.07178823 -0.09472277
v 0.40179244 0.07178251 -0.08689484
v 0.40179244 0.07177250 -0.09080484
v 0.40179244 0.07178251 -0.09080484
v 0.40269849 0.07677917 -0.08645525
v 0.50572723 -0.31967509 0.31963107
v 0.40179244 0.07177250 -0.09471484
v 0.39250171 0.07332749 -0.13357702
v 0.40113723 -0.36677015 0.44055390
v 0.39637882 0.03831579 -0.08105950
v 0.44853595 -0.35787633 0.42477861
v 0.44747892 -0.36135727 0.42583501
v 0.45257244 -0.35481748 0.42871514
v 0.45259520 -0.35788813 0.42479399
v 0.45257244 -0.35786748 0.42481515
v 0.44866246 -0.35788748 0.42477515
v 0.44866246 -0.35803750 0.42481515
v 0.45257244 -0.35788748 0.42479515
v 0.53069246 -0.23875000 0.30661514
v 0.53069246 -0.25974748 0.30661514
v 0.53460246 -0.27195749 0.30767515
v 0.53460246 -0.28367749 0.30767515
v 0.53460246 -0.20554750 0.30767515
v 0.48508942 -0.39590237 0.43226010
v 0.53069228 -0.21659897 0.30660880
v 0.58194518 -0.50402766 0.42578444
v 0.53460246 -0.21335749 0.30767515
v 0.55023247 -0.39695749 0.44791514
v 0.55021000 -0.39648733 0.44793049
v 0.53460246 -0.24851748 0.30767515
v 0.53460246 -0.24460749 0.30767515
v 0.53460246 -0.24070749 0.30767515
v 0.53460246 -0.23679750 0.30767515
v 0.53460246 -0.26413748 0.30767515
v 0.53752476 -0.24914321 0.33694342
v 0.53460246 -0.26023749 0.30767515
v 0.53460246 -0.25632748 0.30767515
v 0.53460246 -0.21726748 0.30767515
v 0.53076386 -0.18682258 0.30660707
v 0.53460246 -0.27976748 0.30767515
v 0.55019957 -0.40106753 0.44812948
v 0.55023247 -0.40085748 0.44815513
v 0.53460246 -0.26804748 0.30767515
v 0.55032247 -0.40085748 0.44824514
v 0.55413246 -0.40085748 0.45188516
v 0.53460246 -0.20945749 0.30767515
v 0.53464246 -0.24460749 0.30762514
v 0.53464246 -0.24070749 0.30762514
v 0.53460246 -0.24070749 0.30757514
v 0.53069246 -0.28416124 0.30661514
v 0.53464246 -0.21335749 0.30762514
v 0.53464246 -0.21726748 0.30762514
v 0.53518152 -0.38150087 0.44440889
v 0.53460246 -0.24851748 0.30757514
v 0.53460246 -0.25242749 0.30757514
v 0.53464246 -0.25242749 0.30762514
v 0.53464246 -0.28757748 0.30762514
v 0.53462666 -0.28759456 0.30763304
v 0.53460246 -0.25242749 0.30767515
v 0.53464246 -0.26023749 0.30762514
v 0.53464246 -0.26413748 0.30762514
v 0.53460246 -0.26023749 0.30757514
v 0.53464246 -0.27195749 0.30762514
v 0.53460246 -0.23288751 0.30767515
v 0.53460246 -0.22898749 0.30767515
v 0.53460246 -0.27585748 0.30767515
v 0.53464246 -0.27585748 0.30762514
v 0.53460246 -0.27585748 0.30757514
v 0.53464246 -0.27976748 0.30762514
v 0.53460246 -0.28757748 0.30757514
v 0.53464246 -0.20554750 0.30762514
v 0.53460246 -0.20554750 0.30757514
v 0.53464246 -0.20945749 0.30762514
v 0.53460246 -0.27976748 0.30757514
v 0.53460246 -0.28367749 0.30757514
v 0.53464246 -0.28367749 0.30762514
v 0.53460246 -0.22507749 0.30767515
v 0.53267533 -0.18732271 0.33494747
v 0.53460246 -0.22117749 0.30767515
v 0.53460246 -0.26413748 0.30757514
v 0.53464246 -0.22117749 0.30762514
v 0.53460246 -0.22117749 0.30757514
v 0.53464246 -0.22507749 0.30762514
v 0.53464246 -0.22898749 0.30762514
v 0.53464246 -0.23288751 0.30762514
v 0.53460246 -0.22898749 0.30757514
v 0.55836856 -0.39633396 0.45302698
v 0.53464246 -0.25632748 0.30762514
v 0.53460246 -0.21726748 0.30757514
v 0.53464246 -0.23679750 0.30762514
v 0.53460246 -0.23679750 0.30757514
v 0.53460246 -0.22507749 0.30757514
v 0.67691195 0.01641983 -0.39277402
v 0.53460246 -0.23288751 0.30757514
v 0.53460246 -0.26804748 0.30757514
v 0.53464246 -0.26804748 0.30762514
v 0.53464246 -0.24851748 0.30762514
v 0.53460246 -0.24460749 0.30757514
v 0.53460246 -0.27195749 0.30757514
v 0.53460246 -0.25632748 0.30757514
v 0.53460246 -0.21335749 0.30757514
v 0.53460246 -0.20945749 0.30757514
v 0.54588419 -0.06056884 0.36189979
v 0.53725386 -0.08331312 0.46464902
v 0.38923636 0.02792441 0.31751603
v 0.65381628 -0.33798501 0.43894315
v 0.76093811 0.01351457 0.12418659
v 0.80369627 -0.08442303 -0.32855877
v 0.80427080 -0.08445825 -0.31344134
v 0.83920246 -0.41648749 0.42090514
v 0.83920246 -0.41648749 0.42481515
v 0.82274687 -0.41279903 0.45630035
v 0.77380145 -0.09950960 -0.31138134
v 0.80023247 -0.08424750 -0.31346485
v 0.80422115 -0.08445270 -0.32247242
v 0.80413246 -0.08444749 -0.31736484
v 0.80413246 -0.08444749 -0.31346485
v 0.82748246 -0.00242749 0.16699515
v 0.82748246 -0.00242749 0.16309515
v 0.82748246 -0.00242749 0.25684515
v 0.82748246 -0.00242749 0.25293514
v 0.82748246 -0.00242749 0.14746515
v 0.82748246 -0.00242749 0.14356516
v 0.82757246 -0.00243749 0.17090514
v 0.82757246 -0.00243749 0.16699515
v 0.82748246 -0.00242749 0.17090514
v 0.82748246 -0.00242749 0.08887516
v 0.82748246 -0.00242749 0.08496516
v 0.82757246 -0.00243749 0.14746515
v 0.82757246 -0.00243749 0.14356516
v 0.82757246 -0.00243749 0.13965514
v 0.82748246 -0.00242749 0.13965514
v 0.82748246 -0.00242749 0.12403516
v 0.82757246 -0.00243749 0.09278516
v 0.82757246 -0.00243749 0.08887516
v 0.82748246 -0.00242749 0.09278516
v 0.82748246 -0.00242749 0.22559515
v 0.82748246 -0.00242749 0.22168516
v 0.82757246 -0.00243749 0.22168516
v 0.82748246 -0.00242749 0.08106516
v 0.82757246 -0.00243749 0.07715516
v 0.82748246 -0.00242749 0.07715516
v 0.82757246 -0.00243749 0.07324516
v 0.83929247 -0.41641748 0.42090514
v 0.83929247 -0.41641748 0.42481515
v 0.76997989 -0.44883689 0.41961786
v 0.83919823 -0.41649351 0.42482013
v 0.84111249 -0.41648749 0.42871514
v 0.83929247 -0.41641748 0.41699514
v 0.78895348 0.00400996 0.22554687
v 0.81976247 -0.00123749 0.19043516
v 0.82757246 -0.00243749 0.18262514
v 0.82757246 -0.00243749 0.18653516
v 0.83080262 -0.00055683 -0.02535421
v 0.82748246 -0.00242749 0.11621516
v 0.82748246 -0.00242749 0.11231516
v 0.80430245 -0.08445749 -0.31736484
v 0.80430245 -0.08445749 -0.32127485
v 0.92888737 -0.11121619 0.31447908
v 0.82757246 -0.00243749 0.22559515
v 0.82748246 -0.00242749 0.22949515
v 0.82757246 -0.00243749 0.22949515
v 0.82757246 -0.00243749 0.17871515
v 0.81037289 -0.08475444 -0.31371102
v 0.82748246 -0.00242749 0.07324516
v 0.82757246 -0.00243749 0.08496516
v 0.82748246 -0.00242749 0.12793516
v 0.82757246 -0.00243749 0.12403516
v 0.82757246 -0.00243749 0.06543516
v 0.82748348 -0.00242793 0.06510713
v 0.82748246 -0.00242749 0.19043516
v 0.82748246 -0.00242749 0.18653516
v 0.82757246 -0.00243749 0.08106516
v 0.82757246 -0.00243749 0.12793516
v 0.82757246 -0.00243749 0.13574515
v 0.82748246 -0.00242749 0.13574515
v 0.82748246 -0.00242749 0.21387514
v 0.82748246 -0.00242749 0.20996515
v 0.82757246 -0.00243749 0.10840516
v 0.82757246 -0.00243749 0.10449516
v 0.82748246 -0.00242749 0.10840516
v 0.82757246 -0.00243749 0.15528516
v 0.82757246 -0.00243749 0.15137514
v 0.82748246 -0.00242749 0.15528516
v 0.82757246 -0.00243749 0.11621516
v 0.82757246 -0.00243749 0.11231516
v 0.82748246 -0.00242749 0.23340514
v 0.82757246 -0.00243749 0.17481516
v 0.82757246 -0.00243749 0.23731516
v 0.82748246 -0.00242749 0.24121515
v 0.82757246 -0.00243749 0.24121515
v 0.82754272 -0.00243421 0.25784102
v 0.82757246 -0.00243749 0.13184515
v 0.82748246 -0.00242749 0.13184515
v 0.82748246 -0.00242749 0.06934515
v 0.78837937 0.00598120 0.10608290
v 0.82757246 -0.00243749 0.06934515
v 0.82757246 -0.00243749 0.15918516
v 0.82748246 -0.00242749 0.15918516
v 0.82757246 -0.00243749 0.10059515
v 0.82748246 -0.00242749 0.10059515
v 0.82748246 -0.00242749 0.10449516
v 0.82748246 -0.00242749 0.19434515
v 0.82757246 -0.00243749 0.19043516
v 0.82748246 -0.00242749 0.09668516
v 0.82757246 -0.00243749 0.09668516
v 0.82748246 -0.00242749 0.12012516
v 0.82757246 -0.00243749 0.12012516
v 0.82757246 -0.00243749 0.21778516
v 0.82748246 -0.00242749 0.21778516
v 0.82757246 -0.00243749 0.21387514
v 0.81753910 -0.00088866 0.16260478
v 0.82748246 -0.00242749 0.17481516
v 0.82748246 -0.00242749 0.17871515
v 0.82748246 -0.00242749 0.23731516
v 0.82748246 -0.00242749 0.24903516
v 0.82748246 -0.00242749 0.24512514
v 0.82757246 -0.00243749 0.20996515
v 0.82757246 -0.00243749 0.20606516
v 0.82757246 -0.00243749 0.19434515
v 0.82757246 -0.00243749 0.24903516
v 0.82757246 -0.00243749 0.25293514
v 0.82757246 -0.00243749 0.24512514
v 0.88025075 -0.00968288 0.23953898
v 0.82757246 -0.00243749 0.19824515
v 0.82748246 -0.00242749 0.20215514
v 0.82757246 -0.00243749 0.20215514
v 0.82748246 -0.00242749 0.15137514
v 0.82748246 -0.00242749 0.20606516
v 0.82757246 -0.00243749 0.23340514
v 0.82748246 -0.00242749 0.18262514
v 0.82757246 -0.00243749 0.16309515
v 0.89007246 -0.02198749 -0.02049484
v 0.89005250 -0.02195749 -0.01658484
v 0.89007246 -0.02198749 -0.01658484
v 0.89007246 -0.02198749 0.21778516
v 0.89005250 -0.02195749 0.21778516
v 0.89005250 -0.02195749 0.22168516
v 0.84755385 -0.28416190 -0.28579381
v 0.89007246 -0.02198749 0.10840516
v 0.89005250 -0.02195749 0.10840516
v 0.89005250 -0.02195749 0.11231516
v 0.89007246 -0.02198749 0.24903516
v 0.89007246 -0.02198749 0.25293514
v 0.84750235 -0.00552798 0.12319879
v 0.89007246 -0.02198749 -0.00877484
v 0.89005250 -0.02195749 -0.00486484
v 0.89007246 -0.02198749 -0.00486484
v 0.81744349 -0.01395082 0.33369097
v 0.87641245 -0.00789512 0.18314651
v 0.89007246 -0.02198749 -0.06736484
v 0.89007246 -0.02198749 -0.05955484
v 0.89005250 -0.02195749 -0.05955484
v 0.89005250 -0.02195749 -0.05564484
v 0.89007246 -0.02198749 0.08887516
v 0.89005250 -0.02195749 0.19434515
v 0.89005250 -0.02195749 0.19043516
v 0.89005250 -0.02195749 0.12793516
v 0.89005250 -0.02195749 0.12403516
v 0.89007246 -0.02198749 -0.03221484
v 0.89005250 -0.02195749 0.02637516
v 0.89005250 -0.02195749 0.02246516
v 0.89007246 -0.02198749 -0.04392484
v 0.89005250 -0.02195749 -0.04392484
v 0.89005250 -0.02195749 -0.04002484
v 0.89007246 -0.02198749 0.11231516
v 0.89005250 -0.02195749 0.11621516
v 0.89007246 -0.02198749 0.11621516
v 0.89007246 -0.02198749 0.03809516
v 0.89005250 -0.02195749 0.04199516
v 0.89007246 -0.02198749 0.04199516
v 0.89005250 -0.02195749 0.04590516
v 0.89007246 -0.02198749 0.06153516
v 0.89007246 -0.02198749 0.06543516
v 0.89007246 -0.02198749 0.07715516
v 0.89007246 -0.02198749 0.08106516
v 0.89007246 -0.02198749 0.08496516
v 0.89005250 -0.02195749 0.08887516
v 0.89007246 -0.02198749 0.20996515
v 0.89007246 -0.02198749 0.21387514
v 0.89007246 -0.02198749 0.17871515
v 0.89007246 -0.02198749 0.18262514
v 0.89007246 -0.02198749 0.25684515
v 0.89005250 -0.02195749 -0.02830484
v 0.89005250 -0.02195749 -0.03221484
v 0.89007246 -0.02198749 -0.04002484
v 0.89007246 -0.02198749 -0.03611484
v 0.89007246 -0.02198749 0.00684516
v 0.89005250 -0.02195749 0.01074516
v 0.89007246 -0.02198749 0.01074516
v 0.87427562 -0.00646133 0.08565484
v 0.89007246 -0.02198749 0.00293516
v 0.89005250 -0.02195749 0.00684516
v 0.89007246 -0.02198749 0.14746515
v 0.89005250 -0.02195749 0.15137514
v 0.89007246 -0.02198749 0.15137514
v 0.88090581 -0.00854354 0.13712011
v 0.89005250 -0.02195749 0.17481516
v 0.85672843 -0.38537005 0.40455955
v 0.89007246 -0.02198749 0.05371516
v 0.89007246 -0.02198749 -0.04783484
v 0.88257617 -0.01241586 -0.04145839
v 0.89007246 -0.02198749 -0.02439484
v 0.89005250 -0.02195749 0.01465516
v 0.89419794 -0.02778311 -0.36456349
v 0.89003074 -0.02192635 -0.07125630
v 0.89007246 -0.02198749 -0.07127484
v 0.89005250 -0.02195749 -0.06736484
v 0.89005250 -0.02195749 -0.00096484
v 0.89005250 -0.02195749 -0.01267484
v 0.89007246 -0.02198749 -0.05174484
v 0.89007246 -0.02198749 -0.01267484
v 0.89005250 -0.02195749 0.03809516
v 0.89007246 -0.02198749 0.01465516
v 0.89005250 -0.02195749 0.06934515
v 0.89005250 -0.02195749 0.06543516
v 0.89007246 -0.02198749 0.03028516
v 0.89007246 -0.02198749 0.03418516
v 0.89005250 -0.02195749 -0.04783484
v 0.89005250 -0.02195749 -0.05174484
v 0.89007246 -0.02198749 -0.06346484
v 0.89005250 -0.02195749 -0.06346484
v 0.89005250 -0.02195749 0.03418516
v 0.89005250 -0.02195749 0.07715516
v 0.89005250 -0.02195749 0.03028516
v 0.89007246 -0.02198749 0.09278516
v 0.89005250 -0.02195749 0.09278516
v 0.89005250 -0.02195749 0.09668516
v 0.89007246 -0.02198749 0.14356516
v 0.89005250 -0.02195749 0.14356516
v 0.89005250 -0.02195749 0.14746515
v 0.89007246 -0.02198749 0.13574515
v 0.89005250 -0.02195749 0.13965514
v 0.89007246 -0.02198749 0.13965514
v 0.89007246 -0.02198749 0.06934515
v 0.89005250 -0.02195749 0.07324516
v 0.89007246 -0.02198749 0.02637516
v 0.89007246 -0.02198749 0.12403516
v 0.89007246 -0.02198749 0.12793516
v 0.89007246 -0.02198749 0.24512514
v 0.89005250 -0.02195749 0.24903516
v 0.89007246 -0.02198749 0.13184515
v 0.89005250 -0.02195749 0.25293514
v 0.89007246 -0.02198749 0.01856516
v 0.89007246 -0.02198749 0.18653516
v 0.89005250 -0.02195749 0.18653516
v 0.89005250 -0.02195749 0.25684515
v 0.89007246 -0.02198749 -0.05564484
v 0.89005250 -0.02195749 -0.02049484
v 0.89005250 -0.02195749 0.12012516
v 0.89005250 -0.02195749 0.18262514
v 0.89005250 -0.02195749 0.13574515
v 0.89007246 -0.02198749 0.10449516
v 0.89005250 -0.02195749 0.17871515
v 0.89007246 -0.02198749 0.22559515
v 0.89007246 -0.02198749 0.16699515
v 0.89007246 -0.02198749 0.17090514
v 0.89005250 -0.02195749 0.13184515
v 0.89007246 -0.02198749 0.19824515
v 0.89007246 -0.02198749 0.19043516
v 0.89007246 -0.02198749 0.15918516
v 0.89007246 -0.02198749 0.22168516
v 0.89005250 -0.02195749 0.22559515
v 0.89007246 -0.02198749 0.23340514
v 0.89005250 -0.02195749 0.23731516
v 0.89007246 -0.02198749 0.23731516
v 0.89007246 -0.02198749 0.07324516
v 0.89005250 -0.02195749 0.01856516
v 0.89005250 -0.02195749 -0.00877484
v 0.89007246 -0.02198749 -0.02830484
v 0.89005250 -0.02195749 -0.03611484
v 0.89007246 -0.02198749 0.04590516
v 0.89007246 -0.02198749 0.09668516
v 0.89005250 -0.02195749 0.10059515
v 0.89007246 -0.02198749 0.10059515
v 0.88507497 -0.01334499 0.03052453
v 0.89005250 -0.02195749 -0.02439484
v 0.89007246 -0.02198749 -0.00096484
v 0.89005250 -0.02195749 0.00293516
v 0.89005250 -0.02195749 0.04981516
v 0.89007246 -0.02198749 0.02246516
v 0.89005250 -0.02195749 0.05762516
v 0.89005250 -0.02195749 0.05371516
v 0.89005250 -0.02195749 0.10449516
v 0.89007246 -0.02198749 0.04981516
v 0.89005250 -0.02195749 0.06153516
v 0.89007246 -0.02198749 0.05762516
v 0.89005250 -0.02195749 0.08496516
v 0.89005250 -0.02195749 0.08106516
v 0.89007246 -0.02198749 0.12012516
v 0.89007246 -0.02198749 0.26074514
v 0.89005250 -0.02195749 0.26465514
v 0.89005250 -0.02195749 0.17090514
v 0.89401060 -0.02961656 0.13587297
v 0.89007246 -0.02198749 0.15528516
v 0.89005250 -0.02195749 0.16699515
v 0.89005250 -0.02195749 0.21387514
v 0.89005250 -0.02195749 0.16309515
v 0.89007246 -0.02198749 0.17481516
v 0.89005250 -0.02195749 0.15918516
v 0.89005250 -0.02195749 0.15528516
v 0.89005250 -0.02195749 0.24121515
v 0.89007246 -0.02198749 0.22949515
v 0.89005250 -0.02195749 0.23340514
v 0.89007246 -0.02198749 0.16309515
v 0.89007246 -0.02198749 0.19434515
v 0.89005250 -0.02195749 0.20606516
v 0.89005250 -0.02195749 0.20215514
v 0.89007246 -0.02198749 0.20215514
v 0.89005250 -0.02195749 0.19824515
v 0.89007246 -0.02198749 0.20606516
v 0.89005250 -0.02195749 0.20996515
v 0.89005250 -0.02195749 0.22949515
v 0.89007246 -0.02198749 0.24121515
v 0.89005250 -0.02195749 0.24512514
v 0.89005250 -0.02195749 0.26074514
v 0.89402866 -0.02965451 0.23731905
v 0.91812027 -0.06402282 0.02429484
v 0.91573983 -0.05999395 0.09370655
v 0.91405958 -0.05601214 -0.10379428
v 0.89927244 -0.03725218 -0.01420742
v 0.90883845 -0.05090262 0.20154379
v 0.91865844 -0.06382167 0.30622533
v 0.91851604 -0.04294847 -0.04118179
f 66 1 2
f 66 4 3
f 8 9 10
f 43 96 49
f 66 13 1
f 12 9 142
f 14 15 16
f 17 142 94
f 93 18 19
f 88 20 25
f 94 49 96
f 22 23 24
f 13 66 11
f 93 25 42
f 26 27 28
f 29 30 31
f 93 32 33
f 10 9 35
f 66 37 38
f 17 39 40
f 17 94 39
f 88 25 93
f 44 121 31
f 30 44 31
f 45 46 47
f 48 45 47
f 50 51 52
f 142 17 41
f 41 47 53
f 45 39 94
f 35 9 12
f 43 53 54
f 8 86 55
f 56 57 38
f 37 56 38
f 59 60 61
f 62 63 64
f 9 55 142
f 9 8 55
f 42 64 85
f 93 56 32
f 45 94 46
f 41 48 47
f 13 19 18
f 38 11 66
f 37 3 32
f 41 43 142
f 67 42 25
f 42 67 62
f 15 22 16
f 66 42 43
f 88 64 63
f 68 69 70
f 75 76 77
f 40 5 78
f 80 81 82
f 4 49 83
f 12 142 113
f 43 54 96
f 49 66 43
f 113 193 86
f 89 90 91
f 90 102 91
f 92 83 49
f 86 8 10
f 64 42 62
f 66 3 37
f 17 5 41
f 5 17 78
f 84 35 12
f 10 35 84
f 48 39 45
f 42 66 2
f 41 53 43
f 62 67 63
f 95 96 54
f 53 95 54
f 46 95 53
f 47 46 53
f 97 98 65
f 36 42 85
f 97 23 36
f 99 102 24
f 102 100 101
f 30 29 142
f 88 63 20
f 56 37 32
f 102 72 36
f 193 266 34
f 48 41 5
f 50 103 104
f 76 105 113
f 106 104 91
f 104 103 91
f 107 108 109
f 11 38 57
f 110 111 112
f 111 113 112
f 127 114 115
f 114 116 115
f 49 4 66
f 117 118 119
f 118 117 163
f 120 122 121
f 1 18 2
f 52 142 43
f 40 48 5
f 12 113 86
f 4 83 33
f 22 15 52
f 123 124 125
f 124 102 125
f 63 67 20
f 92 33 83
f 94 93 92
f 18 93 2
f 108 87 109
f 108 52 87
f 113 116 77
f 20 67 25
f 85 64 88
f 92 93 33
f 107 121 128
f 129 130 142
f 131 107 128
f 132 133 73
f 132 134 133
f 26 135 136
f 108 131 52
f 108 107 131
f 21 79 266
f 40 78 17
f 113 105 137
f 131 142 52
f 136 74 113
f 136 135 74
f 98 139 100
f 129 140 141
f 130 30 142
f 142 131 128
f 93 19 57
f 36 43 42
f 51 134 52
f 103 89 91
f 18 1 13
f 143 144 145
f 138 113 137
f 79 21 135
f 84 86 10
f 51 50 147
f 51 133 134
f 99 97 65
f 94 142 86
f 148 149 150
f 149 121 150
f 98 97 36
f 94 95 46
f 11 57 19
f 56 93 57
f 122 142 128
f 94 96 95
f 102 99 65
f 151 113 138
f 3 4 33
f 140 148 150
f 127 152 153
f 152 137 153
f 154 157 145
f 151 154 145
f 193 93 94
f 154 151 138
f 113 266 193
f 28 155 143
f 127 110 126
f 112 156 126
f 112 113 156
f 2 93 42
f 137 105 153
f 266 113 21
f 48 40 39
f 157 26 28
f 84 12 86
f 65 98 100
f 157 74 135
f 139 72 101
f 52 134 132
f 130 129 158
f 142 55 86
f 94 92 49
f 15 14 52
f 142 29 171
f 99 23 97
f 130 44 30
f 102 16 24
f 146 159 160
f 110 127 161
f 122 162 142
f 19 13 11
f 3 33 32
f 106 133 147
f 133 51 147
f 109 87 73
f 52 43 36
f 193 88 93
f 102 164 16
f 164 14 16
f 7 103 50
f 72 139 36
f 16 22 24
f 193 85 88
f 139 98 36
f 58 71 85
f 138 137 152
f 126 171 127
f 157 28 143
f 157 143 145
f 162 122 120
f 121 122 128
f 165 166 167
f 168 116 113
f 144 151 145
f 144 113 151
f 75 77 114
f 127 75 114
f 27 155 28
f 113 155 27
f 74 79 135
f 79 74 266
f 76 113 77
f 157 266 74
f 75 127 170
f 76 75 170
f 127 153 170
f 153 105 170
f 26 157 135
f 135 21 74
f 21 113 74
f 121 158 141
f 158 129 141
f 156 171 126
f 155 144 143
f 113 144 155
f 105 76 170
f 26 136 27
f 136 113 27
f 127 115 161
f 115 168 161
f 116 168 115
f 89 103 7
f 113 171 156
f 113 142 171
f 154 138 152
f 157 154 152
f 14 90 52
f 133 106 73
f 121 107 109
f 77 116 114
f 111 110 161
f 168 111 161
f 142 140 129
f 110 112 126
f 90 14 164
f 102 90 164
f 111 168 113
f 121 141 150
f 141 140 150
f 36 23 22
f 44 130 158
f 121 44 158
f 87 132 73
f 132 87 52
f 148 140 142
f 149 148 162
f 72 102 101
f 90 7 52
f 90 89 7
f 149 162 120
f 121 149 120
f 172 173 174
f 173 172 6
f 162 148 142
f 102 65 100
f 121 109 73
f 176 177 178
f 224 177 176
f 100 139 101
f 6 169 102
f 23 99 24
f 106 147 104
f 147 50 104
f 7 50 52
f 36 22 52
f 179 180 163
f 179 181 180
f 71 36 85
f 183 181 179
f 184 185 186
f 187 188 189
f 190 191 192
f 194 195 196
f 194 224 195
f 6 73 169
f 276 197 198
f 276 314 197
f 199 118 200
f 118 163 200
f 171 175 121
f 201 202 203
f 202 102 203
f 204 205 206
f 205 204 102
f 61 204 206
f 207 208 209
f 208 71 209
f 185 171 210
f 186 185 210
f 211 212 176
f 212 224 176
f 213 214 215
f 213 71 214
f 85 289 58
f 216 371 85
f 217 218 219
f 220 221 222
f 223 314 166
f 157 152 127
f 226 227 228
f 227 58 228
f 229 230 231
f 34 266 323
f 167 234 235
f 183 179 236
f 179 163 236
f 132 106 169
f 73 106 132
f 266 157 276
f 237 238 239
f 29 175 171
f 125 240 241
f 240 125 102
f 314 157 127
f 242 243 102
f 242 244 243
f 29 31 175
f 31 121 175
f 86 193 94
f 106 91 169
f 171 314 127
f 91 102 169
f 245 202 201
f 159 246 247
f 73 132 169
f 249 185 184
f 185 249 171
f 73 6 121
f 250 227 226
f 211 252 212
f 221 220 253
f 220 71 253
f 102 36 224
f 177 224 194
f 254 177 194
f 224 36 71
f 255 256 71
f 255 257 256
f 255 220 222
f 71 220 255
f 258 214 259
f 214 71 259
f 260 261 58
f 260 262 261
f 70 263 264
f 262 260 265
f 178 177 254
f 267 268 269
f 268 267 121
f 157 314 276
f 270 271 272
f 268 121 273
f 274 268 273
f 371 275 232
f 277 278 279
f 171 278 280
f 278 277 280
f 281 282 283
f 284 285 286
f 284 71 285
f 182 287 288
f 256 257 290
f 291 243 244
f 254 194 196
f 205 291 206
f 293 294 295
f 296 267 269
f 117 297 163
f 297 117 298
f 299 300 301
f 302 60 59
f 102 60 302
f 221 253 68
f 264 303 304
f 258 259 305
f 208 259 71
f 305 259 208
f 212 306 224
f 212 252 306
f 230 307 308
f 309 310 225
f 310 58 225
f 311 312 313
f 34 351 193
f 165 223 166
f 291 244 354
f 68 70 315
f 227 225 58
f 250 225 227
f 307 316 308
f 307 58 316
f 297 298 247
f 371 318 319
f 323 326 34
f 326 218 217
f 218 321 219
f 321 218 322
f 326 322 218
f 326 320 322
f 321 322 317
f 320 323 317
f 323 219 317
f 219 323 217
f 219 321 317
f 320 326 323
f 322 320 317
f 238 171 249
f 239 238 249
f 324 315 207
f 69 253 71
f 69 68 253
f 318 371 233
f 319 318 275
f 371 232 233
f 318 325 275
f 325 318 233
f 325 233 232
f 371 216 369
f 275 371 319
f 326 217 323
f 197 223 327
f 223 197 314
f 328 146 160
f 146 328 163
f 292 80 279
f 166 234 167
f 234 166 314
f 188 329 272
f 330 187 189
f 163 187 330
f 329 270 272
f 270 329 163
f 223 165 327
f 198 197 327
f 188 187 329
f 187 163 329
f 314 171 163
f 235 330 189
f 234 330 235
f 234 314 330
f 330 314 163
f 236 163 331
f 271 270 180
f 270 163 180
f 246 297 247
f 297 246 163
f 288 354 182
f 332 328 160
f 328 332 331
f 121 333 171
f 271 180 181
f 163 328 331
f 274 273 295
f 239 249 184
f 298 117 119
f 200 238 237
f 238 200 171
f 334 353 192
f 174 173 335
f 336 287 182
f 287 336 121
f 118 199 119
f 159 146 246
f 146 163 246
f 282 281 336
f 281 121 336
f 293 121 337
f 294 293 337
f 200 163 171
f 294 337 283
f 186 210 338
f 199 200 237
f 81 333 82
f 333 81 171
f 292 171 81
f 80 292 81
f 278 292 279
f 171 292 278
f 339 302 59
f 296 333 267
f 333 121 267
f 282 336 182
f 210 280 338
f 280 210 171
f 280 277 338
f 269 268 274
f 173 6 251
f 335 173 251
f 124 340 102
f 341 340 124
f 206 291 354
f 288 172 174
f 82 333 296
f 273 293 295
f 293 273 121
f 300 340 341
f 211 176 178
f 287 121 172
f 288 287 172
f 337 281 283
f 281 337 121
f 342 242 343
f 242 102 343
f 335 251 301
f 251 299 301
f 299 251 6
f 340 6 102
f 123 125 241
f 172 121 6
f 241 240 339
f 123 341 124
f 300 299 340
f 299 6 340
f 205 102 243
f 291 205 243
f 213 195 224
f 195 213 344
f 342 244 242
f 248 345 334
f 248 224 345
f 240 102 302
f 339 240 302
f 192 248 334
f 61 60 204
f 60 102 204
f 301 300 354
f 342 343 245
f 203 191 190
f 203 102 191
f 191 248 192
f 191 224 248
f 344 213 215
f 343 202 245
f 202 343 102
f 201 203 190
f 224 191 102
f 345 346 334
f 346 306 252
f 346 345 306
f 345 224 306
f 213 224 71
f 195 344 196
f 214 258 215
f 257 255 222
f 305 315 258
f 207 209 324
f 324 284 286
f 209 284 324
f 284 209 71
f 305 208 207
f 58 261 71
f 285 256 290
f 285 71 256
f 316 289 308
f 286 285 290
f 304 347 348
f 347 261 348
f 347 71 261
f 70 69 263
f 69 71 263
f 312 349 313
f 312 58 349
f 228 312 311
f 312 228 58
f 261 262 348
f 260 310 265
f 260 58 310
f 263 303 264
f 303 263 71
f 303 347 304
f 303 71 347
f 309 225 250
f 310 309 265
f 313 349 231
f 349 229 231
f 58 229 349
f 206 354 61
f 226 228 311
f 316 58 289
f 307 229 58
f 229 307 230
f 289 85 371
f 295 352 274
f 334 346 353
f 264 304 315
f 368 351 34
f 275 325 232
f 231 289 313
f 34 326 376
f 326 323 376
f 338 352 186
f 174 335 354
f 356 165 167
f 82 296 352
f 244 342 354
f 196 344 353
f 290 257 315
f 309 250 315
f 264 315 70
f 331 332 355
f 189 188 356
f 332 350 355
f 346 252 353
f 235 356 167
f 301 354 335
f 348 262 315
f 348 315 304
f 222 315 257
f 305 207 315
f 311 289 315
f 350 272 271
f 160 159 350
f 216 371 369
f 231 230 289
f 245 354 342
f 323 266 376
f 59 354 339
f 189 356 235
f 339 354 241
f 160 350 332
f 356 352 354
f 247 350 159
f 198 356 276
f 269 352 296
f 178 353 211
f 192 353 190
f 182 354 282
f 350 352 356
f 247 298 350
f 350 237 352
f 327 356 198
f 165 356 327
f 272 350 356
f 272 356 188
f 183 355 350
f 119 199 350
f 237 350 199
f 190 353 201
f 338 277 352
f 184 352 239
f 186 352 184
f 237 239 352
f 354 288 174
f 59 61 354
f 82 352 80
f 269 274 352
f 295 294 354
f 295 354 352
f 241 354 123
f 245 201 353
f 196 353 254
f 245 353 354
f 215 353 344
f 354 353 315
f 215 258 315
f 290 315 286
f 254 353 178
f 215 315 353
f 222 221 315
f 250 226 315
f 315 289 354
f 286 315 324
f 308 289 230
f 289 463 354
f 265 309 315
f 265 315 262
f 313 289 311
f 311 315 226
f 193 351 374
f 359 360 382
f 279 80 352
f 356 354 463
f 181 183 350
f 216 1048 399
f 356 266 276
f 283 282 354
f 271 181 350
f 355 183 236
f 341 123 354
f 331 355 236
f 119 350 298
f 341 354 300
f 294 283 354
f 279 352 277
f 252 211 353
f 68 315 221
f 374 366 363
f 363 362 365
f 366 367 357
f 374 351 367
f 368 365 362
f 374 367 366
f 363 366 364
f 367 368 357
f 363 365 374
f 85 193 216
f 362 357 368
f 364 366 357
f 362 364 357
f 368 374 365
f 363 364 362
f 351 368 367
f 376 368 34
f 34 376 368
f 34 368 376
f 289 371 451
f 216 369 371
f 369 216 371
f 356 375 266
f 464 369 371
f 356 463 375
f 463 289 451
f 370 216 358
f 216 370 373
f 374 216 193
f 376 374 368
f 216 399 371
f 376 266 375
f 378 379 400
f 378 380 379
f 382 360 378
f 400 382 378
f 358 372 370
f 372 379 380
f 379 372 358
f 372 380 359
f 383 384 385
f 372 359 382
f 386 384 387
f 372 382 370
f 378 360 381
f 381 380 378
f 359 381 360
f 381 359 380
f 373 388 383
f 386 385 384
f 373 370 388
f 370 387 384
f 388 370 384
f 388 384 383
f 370 377 387
f 361 389 377
f 387 377 389
f 389 386 387
f 386 389 385
f 389 361 385
f 361 373 383
f 385 361 383
f 216 373 419
f 216 373 419
f 419 373 216
f 400 361 377
f 374 408 216
f 408 374 418
f 390 395 391
f 394 395 390
f 394 464 369
f 464 396 369
f 464 394 390
f 393 464 392
f 394 396 395
f 394 369 396
f 464 393 397
f 464 371 369
f 464 397 398
f 396 464 398
f 395 396 398
f 393 392 397
f 391 395 398
f 397 391 398
f 371 399 451
f 358 419 400
f 358 400 379
f 370 382 400
f 400 377 370
f 419 373 400
f 400 373 361
f 419 216 425
f 419 425 216
f 402 401 403
f 405 406 429
f 406 405 407
f 415 411 404
f 374 375 418
f 375 374 376
f 390 391 392
f 397 392 391
f 390 392 464
f 414 412 415
f 420 405 408
f 405 420 421
f 422 402 403
f 423 402 422
f 429 416 423
f 421 420 424
f 404 418 375
f 407 405 421
f 407 421 401
f 422 403 414
f 418 424 408
f 429 406 416
f 406 401 416
f 422 429 423
f 410 425 409
f 426 409 427
f 421 418 401
f 418 421 424
f 408 405 429
f 412 413 411
f 414 413 412
f 403 401 413
f 414 403 413
f 401 418 404
f 413 401 411
f 423 416 402
f 416 401 402
f 406 407 401
f 408 424 420
f 415 422 414
f 422 415 429
f 430 426 427
f 430 427 431
f 432 430 431
f 426 430 432
f 432 410 409
f 427 433 431
f 426 432 409
f 410 417 425
f 417 432 431
f 410 432 417
f 433 425 417
f 409 425 433
f 427 409 433
f 431 433 417
f 417 419 425
f 443 376 375
f 375 376 443
f 358 216 419
f 415 412 411
f 401 404 411
f 404 428 415
f 404 375 428
f 415 428 429
f 425 419 417
f 428 216 408
f 428 408 429
f 428 1048 216
f 435 436 437
f 438 435 437
f 437 436 439
f 434 443 375
f 438 437 440
f 437 439 441
f 440 437 441
f 434 375 436
f 375 439 436
f 443 442 444
f 434 442 443
f 442 435 438
f 435 442 434
f 444 442 438
f 435 434 436
f 444 441 443
f 444 440 441
f 444 438 440
f 375 443 441
f 439 375 441
f 445 446 447
f 453 445 448
f 449 458 450
f 1048 428 375
f 446 458 447
f 454 455 456
f 457 446 445
f 457 459 446
f 457 445 453
f 460 457 453
f 463 452 458
f 448 447 462
f 461 454 453
f 454 450 455
f 459 458 446
f 450 458 455
f 453 454 456
f 419 425 417
f 463 449 453
f 465 458 459
f 456 455 465
f 463 458 449
f 460 465 459
f 466 467 468
f 456 460 453
f 449 461 453
f 461 449 450
f 447 458 462
f 461 450 454
f 453 468 463
f 455 458 465
f 460 459 457
f 456 465 460
f 468 452 463
f 448 466 453
f 466 462 467
f 462 458 467
f 467 458 452
f 445 447 448
f 448 462 466
f 468 467 452
f 466 468 453
f 419 417 425
f 375 463 484
f 469 471 470
f 473 474 475
f 472 471 469
f 478 476 471
f 471 472 478
f 470 477 472
f 477 473 475
f 476 478 474
f 470 471 477
f 472 469 470
f 475 478 472
f 474 473 476
f 477 471 476
f 474 478 475
f 477 476 473
f 477 475 472
f 483 484 485
f 484 463 482
f 470 488 486
f 488 470 489
f 490 491 492
f 483 490 492
f 493 494 495
f 494 523 495
f 512 497 498
f 484 500 375
f 484 499 500
f 470 610 505
f 502 503 489
f 503 488 489
f 470 486 487
f 470 508 489
f 501 506 489
f 501 507 506
f 507 504 502
f 504 503 502
f 488 503 504
f 501 489 508
f 470 505 508
f 487 479 505
f 508 505 479
f 506 502 489
f 502 506 507
f 487 504 507
f 486 488 504
f 505 610 487
f 501 479 507
f 487 486 504
f 510 499 511
f 497 510 511
f 497 511 498
f 523 499 788
f 513 551 514
f 515 513 514
f 512 541 500
f 510 500 499
f 512 510 497
f 541 518 519
f 494 499 523
f 518 520 519
f 512 500 510
f 498 511 509
f 511 499 509
f 509 499 494
f 516 509 494
f 512 498 516
f 498 509 516
f 495 523 520
f 518 495 520
f 516 494 493
f 512 516 493
f 512 518 541
f 519 520 517
f 520 523 517
f 512 493 518
f 493 495 518
f 517 523 521
f 522 517 521
f 541 519 522
f 519 517 522
f 499 484 788
f 485 484 482
f 524 525 526
f 527 525 483
f 526 525 527
f 527 483 485
f 526 527 485
f 482 524 526
f 485 482 526
f 529 483 530
f 531 532 533
f 534 483 531
f 463 451 661
f 487 507 479
f 501 508 479
f 529 535 536
f 483 529 536
f 483 536 490
f 536 538 490
f 530 539 540
f 529 540 535
f 540 529 530
f 542 539 530
f 543 521 544
f 521 523 544
f 541 537 515
f 541 515 546
f 543 544 547
f 544 523 548
f 547 544 548
f 541 522 543
f 522 521 543
f 561 549 550
f 541 543 547
f 550 552 553
f 541 547 537
f 548 523 551
f 537 513 515
f 549 555 550
f 557 609 558
f 559 557 558
f 547 548 537
f 550 555 552
f 555 551 552
f 537 548 513
f 548 551 513
f 515 514 546
f 546 514 554
f 514 551 554
f 500 541 561
f 541 546 561
f 554 551 555
f 549 554 555
f 552 551 545
f 553 552 545
f 561 546 549
f 546 554 549
f 561 550 553
f 535 540 482
f 542 524 539
f 536 535 538
f 563 533 528
f 524 482 539
f 483 525 542
f 483 542 530
f 483 492 531
f 492 532 531
f 525 524 542
f 491 538 482
f 540 539 482
f 534 533 563
f 534 531 533
f 490 538 491
f 532 491 482
f 538 535 482
f 492 491 532
f 533 532 528
f 532 482 528
f 564 480 565
f 557 593 567
f 568 569 556
f 470 487 610
f 570 534 571
f 570 593 534
f 690 572 451
f 574 545 575
f 545 551 575
f 576 558 609
f 577 578 579
f 578 577 593
f 579 580 609
f 557 567 609
f 581 580 579
f 580 528 609
f 593 577 567
f 577 579 567
f 611 451 572
f 572 690 592
f 611 572 573
f 573 572 592
f 582 583 584
f 583 481 584
f 575 551 585
f 560 575 585
f 586 587 588
f 587 481 588
f 500 561 596
f 589 590 591
f 590 664 591
f 697 592 690
f 553 545 574
f 594 481 480
f 564 594 480
f 561 553 574
f 595 585 594
f 585 551 594
f 594 551 481
f 595 594 564
f 598 599 600
f 596 595 564
f 565 480 601
f 480 481 601
f 561 574 560
f 574 575 560
f 560 585 595
f 561 560 595
f 561 595 596
f 596 629 500
f 596 564 565
f 601 481 587
f 597 601 587
f 588 481 583
f 602 588 583
f 596 565 597
f 565 601 597
f 596 597 586
f 597 587 586
f 586 588 602
f 596 586 602
f 481 551 788
f 551 523 788
f 570 578 593
f 570 581 578
f 605 609 566
f 484 483 788
f 534 528 571
f 528 534 563
f 483 534 593
f 788 483 593
f 578 581 579
f 559 558 576
f 606 599 609
f 606 600 599
f 593 615 788
f 571 570 580
f 570 528 580
f 570 571 528
f 606 569 600
f 581 571 580
f 528 482 609
f 567 579 609
f 605 607 609
f 605 608 607
f 559 576 598
f 570 571 581
f 593 557 559
f 599 576 609
f 599 598 576
f 593 559 598
f 593 598 600
f 566 609 482
f 482 463 688
f 611 573 612
f 615 605 566
f 606 609 556
f 569 606 556
f 593 569 568
f 569 593 600
f 613 617 697
f 612 617 613
f 614 612 613
f 612 573 617
f 592 697 617
f 614 611 612
f 584 481 618
f 619 584 618
f 620 621 616
f 621 603 616
f 622 623 624
f 592 617 573
f 604 590 589
f 629 624 625
f 629 622 624
f 582 584 619
f 596 582 619
f 626 603 623
f 622 626 623
f 624 627 625
f 624 623 627
f 623 603 627
f 481 788 603
f 602 583 582
f 596 602 582
f 596 619 629
f 625 621 620
f 628 618 626
f 618 481 626
f 629 619 628
f 619 618 628
f 626 481 603
f 628 626 622
f 629 628 622
f 629 625 620
f 627 603 621
f 625 627 621
f 616 603 630
f 631 616 630
f 632 603 633
f 634 632 633
f 620 616 631
f 629 620 631
f 603 788 643
f 636 664 590
f 604 636 590
f 639 636 604
f 568 556 607
f 608 568 607
f 607 556 609
f 593 608 615
f 608 605 615
f 593 568 608
f 566 788 615
f 566 482 688
f 640 641 642
f 500 629 807
f 650 634 644
f 635 630 632
f 630 603 632
f 614 613 638
f 613 697 638
f 637 611 614
f 669 611 637
f 629 634 650
f 629 635 634
f 635 632 634
f 807 629 650
f 645 638 697
f 637 614 638
f 645 637 638
f 669 637 645
f 641 643 649
f 642 641 649
f 651 652 653
f 654 655 670
f 656 657 646
f 655 657 656
f 640 658 641
f 658 643 641
f 650 659 640
f 659 658 640
f 650 640 642
f 642 649 654
f 644 633 660
f 633 603 660
f 629 631 635
f 631 630 635
f 634 633 644
f 660 643 658
f 659 660 658
f 650 642 654
f 660 603 643
f 644 660 659
f 650 644 659
f 654 657 655
f 654 649 657
f 649 646 657
f 649 643 646
f 654 670 650
f 463 661 688
f 688 788 566
f 674 611 669
f 656 646 665
f 666 656 665
f 667 663 668
f 663 664 668
f 670 666 671
f 653 652 672
f 652 646 672
f 673 646 652
f 651 673 652
f 674 496 697
f 697 496 645
f 496 669 645
f 496 674 669
f 655 656 666
f 670 655 666
f 675 676 677
f 807 650 670
f 671 665 673
f 665 646 673
f 666 665 671
f 670 651 653
f 670 671 651
f 672 646 679
f 678 672 679
f 671 673 651
f 670 653 678
f 653 672 678
f 681 680 682
f 679 646 664
f 670 681 698
f 681 679 680
f 679 664 680
f 668 664 683
f 684 668 683
f 670 678 681
f 678 679 681
f 680 664 663
f 682 680 663
f 698 681 682
f 698 682 667
f 682 663 667
f 646 643 788
f 698 684 639
f 807 670 698
f 646 788 664
f 807 698 648
f 375 500 807
f 639 683 636
f 683 664 636
f 684 683 639
f 694 674 697
f 662 694 691
f 694 611 674
f 694 662 611
f 693 611 662
f 562 695 686
f 686 696 675
f 691 694 697
f 693 662 691
f 698 589 648
f 647 807 648
f 698 667 684
f 591 664 699
f 685 591 699
f 675 696 676
f 696 788 676
f 698 604 589
f 695 788 696
f 686 695 696
f 562 699 695
f 699 788 695
f 648 589 685
f 647 700 692
f 667 668 684
f 699 664 788
f 648 675 677
f 698 639 604
f 589 591 685
f 648 562 686
f 648 686 675
f 648 685 562
f 685 699 562
f 773 704 689
f 661 808 688
f 776 705 399
f 706 707 708
f 687 709 704
f 711 704 710
f 742 611 693
f 723 713 714
f 647 677 715
f 693 691 716
f 691 697 716
f 697 712 716
f 716 717 742
f 715 719 701
f 719 702 701
f 716 712 717
f 742 693 716
f 677 719 715
f 720 721 722
f 647 720 722
f 676 788 719
f 677 676 719
f 720 725 721
f 725 702 721
f 719 788 702
f 677 647 648
f 701 702 726
f 700 701 726
f 692 726 727
f 726 702 727
f 700 726 692
f 647 715 700
f 715 701 700
f 647 728 720
f 728 725 720
f 727 702 725
f 728 727 725
f 647 692 728
f 692 727 728
f 722 723 647
f 721 702 718
f 722 721 718
f 729 718 724
f 718 702 724
f 722 718 729
f 723 722 729
f 723 807 647
f 788 688 687
f 730 709 710
f 704 730 710
f 704 709 730
f 661 451 795
f 687 688 730
f 773 687 704
f 773 788 687
f 689 730 688
f 730 709 687
f 709 730 711
f 710 709 711
f 773 689 736
f 704 711 689
f 711 730 689
f 731 732 738
f 713 734 714
f 739 740 741
f 739 732 740
f 745 746 794
f 714 734 748
f 734 749 748
f 743 750 744
f 744 750 751
f 712 697 747
f 611 742 752
f 913 611 752
f 451 611 913
f 752 717 712
f 765 753 755
f 752 742 717
f 913 752 712
f 757 754 758
f 754 749 758
f 756 759 760
f 759 749 760
f 714 748 753
f 765 807 723
f 748 749 762
f 753 748 762
f 723 714 765
f 756 760 761
f 753 762 755
f 734 702 749
f 724 702 734
f 713 724 734
f 763 749 759
f 764 763 759
f 755 762 763
f 762 749 763
f 723 729 713
f 729 724 713
f 765 714 753
f 764 759 756
f 765 764 756
f 765 756 761
f 755 763 764
f 765 755 764
f 760 749 754
f 761 760 754
f 702 788 749
f 761 754 757
f 765 761 757
f 745 661 743
f 738 732 791
f 767 768 769
f 745 744 751
f 750 743 735
f 771 773 736
f 745 743 744
f 743 661 770
f 735 743 770
f 750 735 751
f 661 795 770
f 736 689 688
f 733 736 688
f 661 745 808
f 705 776 779
f 779 781 778
f 777 780 782
f 783 777 782
f 777 399 705
f 776 783 781
f 779 776 781
f 781 783 782
f 784 780 779
f 781 782 784
f 782 780 784
f 776 777 783
f 777 705 780
f 776 399 777
f 780 705 779
f 778 784 779
f 781 784 778
f 794 772 790
f 766 774 775
f 767 731 738
f 731 787 732
f 787 733 741
f 794 790 789
f 785 708 790
f 735 744 751
f 785 772 737
f 746 744 794
f 751 744 746
f 791 739 786
f 739 741 786
f 735 770 744
f 770 772 744
f 766 775 703
f 775 749 703
f 758 749 775
f 774 758 775
f 807 765 766
f 765 757 774
f 757 758 774
f 774 766 765
f 749 788 703
f 732 739 791
f 745 751 746
f 808 745 794
f 744 772 794
f 773 767 738
f 817 738 791
f 773 771 767
f 738 817 773
f 785 706 708
f 771 768 767
f 768 771 736
f 773 817 788
f 791 733 817
f 741 733 786
f 740 787 741
f 787 740 732
f 772 785 790
f 706 785 737
f 768 736 796
f 769 768 796
f 731 767 769
f 797 769 796
f 731 769 797
f 736 733 796
f 786 733 791
f 787 796 733
f 787 797 796
f 787 731 797
f 733 688 817
f 399 690 451
f 808 794 914
f 793 792 798
f 798 792 912
f 800 801 802
f 793 798 803
f 801 792 799
f 803 802 799
f 801 799 802
f 801 800 805
f 747 801 805
f 802 804 800
f 805 800 806
f 805 806 712
f 747 805 712
f 801 747 697
f 707 706 737
f 690 912 792
f 697 690 792
f 802 803 804
f 799 792 793
f 799 793 803
f 798 806 804
f 803 798 804
f 806 800 804
f 801 697 792
f 712 806 798
f 789 707 737
f 770 795 737
f 772 770 737
f 795 451 913
f 807 766 703
f 790 708 707
f 789 737 914
f 795 914 737
f 790 707 789
f 794 789 914
f 798 912 712
f 690 399 815
f 795 913 914
f 807 703 902
f 811 812 813
f 811 809 812
f 1048 815 399
f 912 690 815
f 703 788 817
f 375 807 1048
f 914 819 808
f 814 811 813
f 1058 914 795
f 817 810 809
f 810 816 809
f 812 816 813
f 812 809 816
f 813 810 814
f 819 817 809
f 819 809 811
f 902 817 819
f 703 817 902
f 819 811 814
f 816 810 813
f 814 810 817
f 817 688 814
f 819 814 808
f 814 688 808
f 818 821 833
f 824 822 823
f 825 826 820
f 825 820 824
f 826 821 820
f 821 818 820
f 827 824 823
f 827 825 824
f 826 827 823
f 827 826 825
f 822 818 833
f 833 826 823
f 821 826 833
f 824 820 822
f 820 818 822
f 823 822 833
f 712 912 913
f 815 828 834
f 839 844 840
f 841 844 842
f 843 844 845
f 832 887 880
f 815 834 848
f 862 833 835
f 838 851 837
f 838 850 851
f 852 844 843
f 853 854 896
f 850 854 853
f 862 850 838
f 836 887 855
f 847 887 836
f 856 857 858
f 860 861 836
f 863 864 865
f 828 815 829
f 846 844 868
f 869 870 845
f 870 869 871
f 872 830 852
f 830 844 852
f 867 844 831
f 844 867 815
f 842 857 841
f 873 844 874
f 849 844 875
f 876 877 878
f 880 881 882
f 845 844 846
f 875 844 830
f 831 844 849
f 883 884 885
f 815 859 829
f 886 887 888
f 855 887 832
f 868 844 839
f 874 844 886
f 878 883 885
f 840 844 841
f 885 866 831
f 842 844 873
f 887 886 844
f 856 840 841
f 890 891 892
f 888 887 847
f 880 887 912
f 912 848 880
f 893 894 874
f 870 843 845
f 896 838 837
f 848 912 815
f 894 893 895
f 889 870 871
f 832 880 882
f 865 864 897
f 850 835 854
f 851 850 853
f 871 829 889
f 898 891 890
f 835 850 862
f 883 859 884
f 854 835 896
f 837 853 896
f 851 853 837
f 896 862 838
f 896 835 915
f 862 896 915
f 875 876 878
f 899 900 857
f 891 898 834
f 893 892 901
f 834 828 903
f 904 905 889
f 872 905 904
f 895 834 903
f 895 893 901
f 868 897 846
f 878 885 849
f 891 834 901
f 866 885 884
f 905 870 889
f 905 872 852
f 906 863 865
f 849 885 831
f 859 815 879
f 866 867 831
f 889 829 904
f 815 867 879
f 879 866 884
f 863 906 907
f 875 878 849
f 888 892 886
f 859 879 884
f 862 915 833
f 908 872 904
f 869 845 846
f 901 834 895
f 909 829 871
f 882 860 855
f 839 865 868
f 907 856 858
f 861 860 910
f 830 876 875
f 892 893 886
f 861 847 836
f 815 968 844
f 860 836 855
f 898 861 910
f 868 865 897
f 857 856 841
f 877 908 829
f 906 865 839
f 906 839 840
f 878 877 883
f 866 879 867
f 897 864 909
f 905 852 843
f 870 905 843
f 877 859 883
f 904 829 908
f 848 834 881
f 856 906 840
f 864 863 829
f 830 872 876
f 877 876 908
f 872 908 876
f 906 856 907
f 829 859 877
f 869 897 909
f 864 829 909
f 842 899 857
f 871 869 909
f 897 869 846
f 873 899 842
f 893 874 886
f 873 894 899
f 857 900 858
f 900 899 903
f 847 890 888
f 903 894 895
f 907 828 863
f 828 829 863
f 888 890 892
f 858 828 907
f 900 828 858
f 894 903 899
f 882 881 911
f 892 891 901
f 900 903 828
f 894 873 874
f 861 898 890
f 861 890 847
f 832 882 855
f 910 860 911
f 1048 968 815
f 860 882 911
f 910 834 898
f 968 887 844
f 911 834 910
f 881 880 848
f 881 834 911
f 887 968 912
f 902 1114 807
f 1058 914 913
f 795 914 1058
f 915 835 833
f 819 914 902
f 912 968 913
f 913 968 1058
f 956 919 920
f 917 923 922
f 923 917 925
f 917 922 807
f 917 807 1114
f 925 926 923
f 927 928 1021
f 929 930 959
f 931 932 916
f 933 934 935
f 936 937 1005
f 938 939 931
f 940 941 932
f 943 944 945
f 959 946 947
f 946 948 947
f 949 950 951
f 951 950 952
f 835 1108 955
f 920 953 954
f 835 955 1108
f 955 919 956
f 955 921 1108
f 1059 961 962
f 964 965 916
f 956 954 957
f 954 1108 957
f 973 966 967
f 973 924 917
f 922 923 918
f 918 926 966
f 925 966 926
f 969 970 971
f 918 966 973
f 925 924 967
f 924 973 967
f 1048 922 973
f 924 925 917
f 918 973 922
f 973 917 1114
f 923 926 918
f 966 925 967
f 1048 807 922
f 951 952 974
f 936 975 937
f 902 914 963
f 942 976 977
f 980 981 960
f 937 975 982
f 977 976 983
f 984 985 941
f 986 987 959
f 963 916 1005
f 988 989 990
f 949 951 1005
f 991 992 993
f 994 995 964
f 934 927 935
f 936 944 975
f 996 970 959
f 1059 997 972
f 998 999 1000
f 1001 929 959
f 1002 1003 985
f 974 952 1006
f 1004 1006 978
f 1007 991 1008
f 1009 1010 1011
f 1059 972 961
f 980 1012 1013
f 951 974 1005
f 963 1111 1114
f 1014 945 1005
f 949 982 950
f 1014 1010 1015
f 994 964 1016
f 1059 933 997
f 1009 1015 1010
f 1016 942 1017
f 974 1006 1004
f 965 964 995
f 945 936 1005
f 963 914 916
f 947 1018 1019
f 1019 1018 1020
f 940 984 941
f 997 933 1022
f 988 965 995
f 1023 1022 1021
f 999 1024 959
f 1025 1026 959
f 937 982 949
f 987 1027 1028
f 1017 942 977
f 1013 1012 1029
f 1030 1025 930
f 914 959 916
f 976 1003 983
f 1016 964 916
f 962 980 1013
f 1030 930 1031
f 1000 1026 1032
f 1009 1011 989
f 1019 986 959
f 1026 999 959
f 947 1019 959
f 986 1020 1027
f 1058 959 914
f 947 948 1018
f 1024 999 998
f 1032 1025 1030
f 945 944 936
f 933 935 1022
f 994 1016 1017
f 961 981 962
f 1011 990 989
f 983 1003 1002
f 981 980 962
f 1021 959 960
f 943 1014 1015
f 1004 978 979
f 1012 980 960
f 1002 985 984
f 976 942 916
f 1029 959 1034
f 946 969 948
f 991 993 1008
f 974 1004 1005
f 1035 1036 1034
f 990 1011 1005
f 939 940 932
f 992 1037 993
f 972 997 1023
f 1038 1036 1035
f 1032 1026 1025
f 932 941 916
f 981 1021 960
f 942 1016 916
f 943 945 1014
f 987 1028 1038
f 996 1024 1039
f 986 1027 987
f 1040 981 961
f 997 1022 1023
f 988 990 965
f 934 1041 927
f 1031 930 929
f 1038 1028 1036
f 970 969 946
f 992 938 1037
f 981 1040 1021
f 959 1029 960
f 1029 1012 960
f 972 1023 1040
f 990 1005 916
f 1041 928 927
f 971 996 1039
f 993 1037 916
f 939 932 931
f 1007 1008 928
f 938 931 1037
f 1031 929 1001
f 1041 1007 928
f 1039 1024 998
f 959 1035 1034
f 928 1008 1021
f 972 1040 961
f 1024 996 959
f 1000 999 1026
f 1019 1020 986
f 970 996 971
f 1058 1001 959
f 1033 1001 1058
f 930 1025 959
f 1042 1043 1044
f 963 979 1100
f 1011 1010 1005
f 979 963 1005
f 937 949 1005
f 1004 979 1005
f 965 990 916
f 941 985 916
f 1005 1010 1014
f 1037 931 916
f 1003 976 916
f 985 1003 916
f 1021 916 959
f 1040 1023 1021
f 1008 993 1021
f 1022 935 1021
f 993 916 1021
f 935 927 1021
f 1038 1035 959
f 959 987 1038
f 970 946 959
f 1045 1046 1047
f 1030 1031 1033
f 991 1007 1059
f 957 1108 921
f 958 953 919
f 957 921 956
f 955 958 919
f 954 956 920
f 958 955 1108
f 919 953 920
f 953 1108 954
f 921 955 956
f 1108 953 958
f 1049 1050 1051
f 1226 1052 1053
f 1114 1048 973
f 977 983 1054
f 934 933 1059
f 971 1039 1033
f 1041 934 1059
f 1055 1056 1057
f 902 963 1114
f 939 938 1054
f 1061 1062 1063
f 1028 1027 1059
f 975 944 1100
f 1051 1050 1100
f 1000 1032 1033
f 989 988 1054
f 988 995 1054
f 1054 938 1059
f 984 940 1054
f 1100 1054 1059
f 1017 977 1054
f 944 943 1100
f 952 950 1100
f 943 1015 1100
f 979 978 1100
f 1032 1030 1033
f 1065 1066 1059
f 1039 998 1033
f 962 1013 1059
f 1002 984 1054
f 1067 1068 1106
f 969 971 1033
f 950 982 1100
f 1036 1028 1059
f 1029 1034 1059
f 1015 1009 1100
f 1070 1071 1185
f 1072 1073 1074
f 1075 1076 1077
f 1078 1079 1080
f 938 992 1059
f 978 1006 1100
f 992 991 1059
f 983 1002 1054
f 982 975 1100
f 1228 1082 1083
f 1006 952 1100
f 1228 1084 1085
f 994 1017 1054
f 940 939 1054
f 1086 1087 1064
f 1013 1029 1059
f 995 994 1054
f 1007 1041 1059
f 1009 989 1054
f 1100 1009 1054
f 1231 1088 1089
f 1034 1036 1059
f 948 969 1033
f 1027 1020 1033
f 998 1000 1033
f 1018 948 1033
f 1020 1018 1033
f 1059 1027 1033
f 1031 1001 1033
f 1231 1090 1091
f 1226 1053 1092
f 1093 1094 963
f 1233 1095 1096
f 1097 1098 1099
f 1101 1102 1097
f 1103 1104 1105
f 1110 1073 1072
f 1099 1098 1113
f 1233 1072 1095
f 1116 1117 1060
f 1118 1056 963
f 1119 1043 963
f 1230 1042 1044
f 1230 1044 1121
f 1079 1122 1185
f 1124 1125 1100
f 1227 1126 1127
f 1128 1129 1111
f 1130 1131 1062
f 1127 1132 1122
f 1134 1070 1185
f 1062 1131 1111
f 1135 1136 1137
f 1138 1139 1140
f 1141 1142 1143
f 1075 1051 1076
f 1144 1124 1145
f 1146 1134 1126
f 1203 1147 1148
f 1149 1150 1052
f 1103 1140 1104
f 1203 1151 1141
f 1047 1046 1033
f 1052 1150 1152
f 1154 1155 1066
f 1053 1156 1092
f 1063 1062 1111
f 1230 1097 1099
f 1157 1063 1129
f 1081 1079 1185
f 1091 1160 1155
f 1126 1134 1132
f 1064 1087 1136
f 1076 1051 1100
f 1089 1046 1045
f 1160 1163 1059
f 1091 1155 1154
f 1231 1165 1166
f 1154 1066 1169
f 1169 1066 1065
f 1171 1172 1164
f 1173 1174 1175
f 1060 1117 1131
f 1176 1145 1133
f 1177 1113 1185
f 1060 1131 1130
f 1132 1134 1185
f 1233 1229 1116
f 1121 1119 1178
f 1110 1128 1073
f 1121 1178 1055
f 1233 1060 1130
f 1115 1114 1111
f 1229 1114 1115
f 1069 1093 1179
f 1095 1074 1180
f 1229 1115 1116
f 1061 1063 1157
f 1116 1115 1117
f 1233 1116 1060
f 1230 1121 1055
f 1131 1117 1111
f 1117 1115 1111
f 1233 1157 1120
f 1180 1074 1111
f 1074 1073 1111
f 1157 1129 1120
f 1233 1061 1157
f 1182 1183 1184
f 1073 1128 1111
f 1233 1120 1110
f 1120 1128 1110
f 1233 1110 1072
f 1233 1130 1061
f 1130 1062 1061
f 1120 1129 1128
f 1096 1094 1069
f 1096 1180 1094
f 1055 1178 1056
f 1072 1074 1095
f 1094 1180 1111
f 1095 1180 1096
f 1233 1096 1069
f 1129 1063 1111
f 1057 1118 1187
f 1230 1112 1042
f 1179 1186 1112
f 1043 1158 963
f 1102 1188 1185
f 1233 1069 1179
f 1094 1111 963
f 1230 1179 1112
f 1042 1158 1043
f 1112 1186 1158
f 1056 1178 963
f 1112 1158 1042
f 1186 1093 963
f 1179 1093 1186
f 1230 1055 1057
f 1069 1094 1093
f 1044 1043 1119
f 1230 1233 1179
f 1044 1119 1121
f 1230 1057 1187
f 1178 1119 963
f 1158 1186 963
f 1057 1056 1118
f 1230 1153 1190
f 1113 1098 1185
f 1191 1192 1185
f 1071 1177 1185
f 1188 963 1185
f 1183 1137 1100
f 1227 1190 1146
f 1099 1113 1123
f 1162 1193 1050
f 1098 1102 1185
f 1097 1102 1098
f 963 1100 1185
f 1123 1113 1177
f 1187 1118 1188
f 1123 1177 1153
f 1190 1070 1146
f 1228 1184 1162
f 1227 1146 1126
f 1187 1188 1101
f 1230 1187 1101
f 1230 1099 1123
f 1101 1188 1102
f 1230 1101 1097
f 1228 1144 1176
f 1230 1123 1153
f 1153 1071 1190
f 1140 1139 1106
f 1153 1177 1071
f 1190 1071 1070
f 1146 1070 1134
f 1227 1230 1190
f 1188 1118 963
f 1126 1132 1127
f 1080 1081 1181
f 1227 1080 1181
f 1228 1176 1084
f 1189 1081 1185
f 1194 1189 1192
f 1227 1078 1080
f 1181 1189 1194
f 1082 1195 1125
f 1227 1127 1078
f 1122 1132 1185
f 1227 1181 1194
f 1135 1137 1182
f 1080 1079 1081
f 1228 1086 1064
f 1192 1189 1185
f 1228 1194 1109
f 1194 1192 1109
f 1109 1191 1196
f 1087 1197 1100
f 1109 1192 1191
f 1127 1122 1078
f 1196 1191 1195
f 1078 1122 1079
f 1050 1193 1100
f 1228 1109 1196
f 1191 1185 1100
f 1181 1081 1189
f 1085 1197 1086
f 1228 1196 1082
f 1196 1195 1082
f 1228 1227 1194
f 1195 1191 1100
f 1176 1133 1084
f 1125 1195 1100
f 1228 1085 1086
f 1145 1124 1100
f 1083 1125 1124
f 1203 1199 1147
f 1064 1136 1135
f 1200 1201 1232
f 1144 1145 1176
f 1159 1076 1100
f 1228 1077 1199
f 1228 1083 1144
f 1083 1124 1144
f 1084 1198 1085
f 1082 1125 1083
f 1085 1198 1197
f 1228 1064 1135
f 1084 1133 1198
f 1198 1133 1100
f 1133 1145 1100
f 1197 1198 1100
f 1199 1159 1068
f 1086 1197 1087
f 1068 1100 1106
f 1165 1202 1166
f 1136 1087 1100
f 1068 1159 1100
f 1228 1135 1182
f 1077 1159 1199
f 1151 1167 1161
f 1049 1051 1075
f 1182 1137 1183
f 1184 1193 1162
f 1199 1068 1147
f 1228 1049 1075
f 1193 1183 1100
f 1162 1050 1049
f 1077 1076 1159
f 1228 1162 1049
f 1184 1183 1193
f 1228 1182 1184
f 1137 1136 1100
f 1228 1075 1077
f 1161 1167 1106
f 1203 1228 1199
f 1167 1067 1106
f 1143 1139 1138
f 1139 1142 1106
f 1203 1148 1151
f 1147 1067 1148
f 1148 1167 1151
f 1147 1068 1067
f 1151 1161 1141
f 1203 1103 1105
f 1088 1206 1089
f 1141 1161 1142
f 1231 1045 1171
f 1231 1208 1090
f 1207 1209 1059
f 1148 1067 1167
f 1143 1142 1139
f 1105 1104 1210
f 1203 1141 1143
f 1208 1107 1163
f 1105 1210 1204
f 1138 1140 1103
f 1203 1204 1170
f 1203 1105 1204
f 1203 1143 1138
f 1142 1161 1106
f 1107 1202 1059
f 1203 1138 1103
f 1104 1140 1106
f 1104 1106 1059
f 1210 1104 1059
f 1175 1174 1211
f 1212 1213 1173
f 1170 1207 1214
f 1166 1202 1107
f 1205 1207 1059
f 1231 1169 1215
f 1231 1166 1208
f 1204 1209 1170
f 1204 1210 1209
f 1169 1065 1215
f 1231 1214 1165
f 1231 1203 1214
f 1214 1205 1165
f 1203 1170 1214
f 1090 1163 1160
f 1066 1155 1059
f 1170 1209 1207
f 1209 1210 1059
f 1166 1107 1208
f 1165 1205 1202
f 1045 1047 1171
f 1214 1207 1205
f 1059 1106 1100
f 1208 1163 1090
f 1231 1154 1169
f 1231 1091 1154
f 1090 1160 1091
f 1202 1205 1059
f 1168 1217 1218
f 1163 1107 1059
f 1155 1160 1059
f 1168 1219 1217
f 1215 1219 1168
f 1231 1089 1045
f 1220 1221 1088
f 1231 1173 1175
f 1218 1216 1220
f 1231 1212 1173
f 1221 1216 1059
f 1231 1168 1218
f 1215 1065 1219
f 1164 1222 1212
f 1089 1206 1046
f 1231 1218 1220
f 1231 1215 1168
f 1231 1220 1088
f 1218 1217 1216
f 1088 1221 1206
f 1219 1065 1059
f 1226 1149 1052
f 1217 1219 1059
f 1220 1216 1221
f 1226 1092 1200
f 1216 1217 1059
f 1206 1221 1059
f 1206 1059 1033
f 1046 1206 1033
f 1223 1211 1224
f 1222 1172 1033
f 1226 1223 1149
f 1231 1164 1212
f 1173 1213 1174
f 1174 1213 1033
f 1172 1047 1033
f 1175 1211 1223
f 1231 1171 1164
f 1212 1222 1213
f 1231 1175 1223
f 1224 1211 1033
f 1226 1231 1223
f 1171 1047 1172
f 1164 1172 1222
f 1149 1224 1150
f 1223 1224 1149
f 1213 1222 1033
f 1211 1174 1033
f 1053 1152 1156
f 1150 1224 1033
f 1052 1152 1053
f 1092 1156 1225
f 1156 1152 1033
f 1226 1200 1232
f 1200 1225 1201
f 1092 1225 1200
f 1152 1150 1033
f 1232 1201 1058
f 1058 1201 1033
f 1201 1225 1033
f 1225 1156 1033
f 968 1232 1058
f 1230 1227 1233
f 1231 1228 1203
f 968 1231 1232
f 1232 1231 1226
f 1233 1114 1229
f 1048 1227 1228
f 1227 1048 1233
f 1048 1228 968
f 968 1228 1231
f 1233 1048 1114

