# https://github.com/mikedh/trimesh
v -0.08507947 -0.49338284 0.16592121
v -0.73827094 -0.33016878 0.16664043
v -0.73942202 -0.32929939 0.15393926
v -0.73660243 -0.32771331 -0.00364589
v -0.41158253 -0.33011934 -0.32805461
v -0.73778486 -0.16056427 -0.00246833
v -0.73854083 -0.16132078 0.16628540
v -0.57480520 -0.32931113 0.32877719
v -0.57595712 -0.33006951 0.16734743
v -0.35803115 -0.32897705 0.33020583
v -0.57399797 0.00201204 -0.00290408
v -0.57597238 -0.15989123 -0.00261124
v -0.40923327 -0.32902277 0.48677054
v -0.57519913 -0.16069454 0.32906446
v -0.41264558 0.00511032 0.16606158
v -0.44566718 0.00245327 -0.00314614
v -0.57230896 0.00302220 0.16434866
v -0.57604665 -0.15951000 0.16642074
v -0.41173136 0.16557917 -0.00361304
v -0.41144001 -0.32857999 0.59765375
v -0.50604367 -0.15819967 0.16987956
v -0.24745651 -0.33057010 0.25515214
v -0.08477928 0.08995377 -0.00119216
v -0.41184288 -0.16558407 -0.15945742
v -0.41095501 -0.15816747 0.65644163
v -0.41063014 -0.16123824 0.48823926
v -0.41179228 0.00345908 -0.00372779
v -0.41178051 0.00329679 -0.16654219
v -0.41059545 -0.16086498 -0.32957748
v -0.41227078 -0.22122358 -0.26067483
v -0.41159841 0.16668154 0.16690493
v -0.41137490 0.16649982 -0.00462659
v -0.41043410 0.08825367 0.16757555
v -0.41307649 -0.16706952 -0.00415850
v -0.06640000 0.49225000 0.16015001
v -0.06250000 0.49217999 0.16010000
v -0.24269110 0.16672057 -0.00245901
v -0.24827103 0.16647530 -0.32940811
v -0.41096511 -0.32924718 -0.16038372
v -0.24908094 -0.33036229 -0.33035314
v -0.24128380 0.00451515 -0.00270995
v -0.41103378 -0.15890628 -0.16693816
v -0.24002688 -0.06928371 -0.15823072
v -0.41242063 -0.22250861 0.57751089
v -0.24149495 0.16482314 0.07184591
v -0.24198896 0.06199152 0.16537717
v -0.47603089 -0.32910967 -0.00246278
v -0.32462993 -0.32990375 -0.15996897
v -0.41223001 -0.09933052 -0.07747634
v -0.24130143 -0.32946676 0.33026153
v -0.34350631 -0.16269106 0.32941344
v -0.24109000 -0.05115448 -0.05948924
v -0.24700992 -0.00312242 0.65549040
v -0.09248252 -0.32903051 -0.15972061
v -0.24925122 -0.33057445 0.07135381
v -0.31098670 -0.33031744 0.32826599
v -0.40536731 -0.32821634 0.65550762
v -0.24112695 -0.32952476 0.16996455
v -0.24901649 -0.15941539 -0.33047730
v -0.24818927 -0.00335293 0.48648319
v -0.24697648 -0.00297121 0.59762734
v -0.24983890 -0.27411747 -0.33111981
v -0.08461297 -0.16070858 -0.15809615
v -0.28324482 -0.15996732 0.48813704
v -0.24751939 -0.32962275 -0.65583420
v -0.24189623 -0.16049732 0.32972768
v -0.35384452 0.16631092 0.16687867
v -0.24151736 0.00188632 -0.15552327
v -0.24858852 0.00238085 -0.16299132
v -0.24248354 0.00384185 -0.00380634
v -0.12075784 0.16223022 0.16064394
v -0.24605429 0.16310598 0.16180043
v -0.08550856 -0.33047715 -0.16564167
v -0.08402900 -0.16140498 0.36567420
v -0.08415256 -0.32814884 -0.81990170
v -0.24890000 -0.25365719 -0.59386873
v -0.24726246 -0.32966024 0.81967622
v -0.15233999 -0.32811999 0.48646000
v -0.24738620 -0.16127850 -0.65624559
v -0.12365359 -0.32834968 -0.00326566
v -0.24962750 -0.03865372 -0.16754232
v -0.24286717 -0.16647214 -0.15859085
v -0.08980093 -0.32763669 0.48610246
v -0.30434594 -0.32962564 0.48719534
v -0.24192876 -0.02860558 0.16477393
v -0.24988027 -0.15867947 -0.16789979
v -0.24303146 -0.15896328 0.16781464
v -0.24810621 0.05712710 -0.32882249
v -0.24730542 0.16581051 0.48698840
v -0.24494134 0.16561374 -0.16036749
v -0.24892962 0.16131474 0.32756320
v -0.08305768 -0.13628133 -0.81994623
v -0.24975735 0.16549800 0.65715617
v -0.24829121 0.32993081 0.16041484
v -0.06103125 0.49390000 0.16406000
v -0.06859812 0.49169248 0.16001500
v -0.08493785 0.32939628 -0.00319266
v -0.24760927 0.32993990 0.32914609
v -0.24827725 -0.15939547 -0.33162987
v -0.14690678 -0.33057001 0.68491650
v -0.17856932 -0.33057001 0.74319786
v -0.24868597 -0.32964423 0.65976083
v -0.08690248 -0.23918805 0.48540109
v -0.24065623 -0.15996544 0.16718705
v -0.08536862 0.15963967 0.32973534
v -0.24859890 -0.16056977 0.81951129
v 0.08470476 -0.32944623 0.98310024
v -0.24762949 0.16184531 0.32833609
v -0.08533080 0.33028281 0.15975426
v -0.08557000 0.21780217 -0.25479779
v -0.08515541 0.49212638 0.16044688
v 0.07920342 -0.49403417 0.04950217
v -0.24068838 -0.16192600 -0.00412015
v -0.02739076 -0.15941559 0.66019374
v -0.24926782 -0.15970638 0.65720904
v 0.00776276 -0.49112123 0.16627946
v -0.08565596 -0.33038250 -0.65675300
v -0.14035429 -0.00225696 0.48724380
v -0.08536571 -0.00321919 0.65686029
v -0.08343758 0.16431257 0.81915218
v -0.08671828 -0.15612787 0.15509030
v -0.09001096 -0.33022544 0.16458055
v -0.08507818 -0.49309736 0.03983390
v -0.13695875 -0.32859749 0.48691499
v -0.08524546 -0.15921900 0.48649776
v -0.08470644 -0.15861201 0.65679932
v -0.24749033 -0.32964683 -0.48345035
v 0.01055987 -0.15749672 -0.15851969
v -0.08555974 -0.15990996 -0.00328805
v -0.08507505 -0.15916137 0.98338020
v -0.08581666 0.16650695 0.48752713
v -0.14770125 0.16503000 0.65584123
v -0.02443647 0.15916730 0.33092508
v -0.05058470 0.15902977 0.48439786
v -0.08578593 -0.28532013 0.16756368
v -0.08427829 0.00174958 -0.65075344
v 0.08612339 -0.16011816 0.48489568
v -0.08562755 -0.33033016 0.82096124
v -0.08532582 -0.00352358 0.48697004
v -0.08512864 0.33025447 0.33157203
v -0.08563797 0.32793096 -0.16045903
v -0.16075042 -0.33031473 0.48816267
v -0.08513480 -0.33096504 0.16677292
v -0.02343000 0.49225000 0.16015001
v -0.08490295 -0.15943865 0.16591044
v -0.08246919 -0.03339570 0.65620756
v -0.08579069 -0.19523582 -0.77650869
v -0.05638379 -0.15749013 -0.00509127
v -0.08464012 -0.32921085 0.93069977
v -0.08336516 -0.28929466 -0.81946898
v -0.08466825 -0.00286656 0.32992414
v -0.08581220 -0.15963656 0.82019848
v -0.08527598 -0.32832211 0.33901620
v -0.08530592 -0.23818737 0.98368543
v -0.08596866 -0.21536981 -0.65826488
v -0.24590251 -0.09299731 -0.33030272
v -0.08557327 -0.15938641 -0.48624793
v -0.08471476 0.00218453 -0.81913459
v -0.08422887 -0.00294305 0.81925809
v -0.08425578 -0.00366736 0.70311409
v 0.09924361 -0.33067015 0.16548720
v 0.02280379 -0.00363674 0.32897890
v -0.02343000 0.49217999 0.16010000
v -0.01953000 0.49217999 0.16010000
v -0.08380277 0.33056450 0.65719569
v -0.05468000 0.49225000 0.16015001
v -0.05078000 0.49225000 0.16015001
v -0.05078000 0.49217999 0.16010000
v -0.05859000 0.49217999 0.16010000
v -0.08611149 0.25458246 0.15796088
v -0.08324353 0.16083893 0.41152060
v -0.08546066 0.41220707 0.18934125
v -0.08468894 -0.00295585 0.16782543
v -0.01610625 0.48828000 0.15942000
v -0.08516699 0.49394545 0.26559848
v -0.04687000 0.49225000 0.16015001
v -0.04296000 0.49225000 0.16015001
v -0.04296000 0.49217999 0.16010000
v -0.03564000 0.49390000 0.16406000
v -0.05468000 0.49217999 0.16010000
v -0.04687000 0.49217999 0.16010000
v -0.04418562 0.48828000 0.15942000
v -0.08570591 0.24195009 0.33167070
v -0.06250000 0.49225000 0.16015001
v -0.08317892 0.49141550 0.32920909
v -0.03982736 -0.33126360 -0.16782205
v 0.03991701 -0.33055887 -0.30035800
v -0.08377828 -0.33000579 0.42172867
v -0.08348279 -0.16005012 0.27782276
v -0.08557000 -0.10036602 -0.74258041
v -0.08702928 0.07148863 0.65883899
v -0.08662970 -0.15794741 -0.60778165
v -0.08463433 -0.15964319 0.85922921
v 0.07743051 -0.33049068 -0.82084352
v -0.00070203 -0.00020578 -0.00390000
v -0.08417937 0.00281407 -0.55657285
v 0.01896906 -0.00596683 0.65839899
v -0.05859000 0.49225000 0.16015001
v -0.02611980 0.23369965 -0.15942000
v -0.01562000 0.49225000 0.16015001
v -0.08528470 0.16711649 -0.33030203
v 0.08617082 0.15913734 0.15965021
v -0.08651248 0.16639005 -0.32988477
v -0.08567047 0.16566694 -0.16099706
v -0.03515000 0.49225000 0.16015001
v -0.03125000 0.49217999 0.16010000
v -0.03515000 0.49217999 0.16010000
v -0.00781000 0.49225000 0.16015001
v -0.01171000 0.49225000 0.16015001
v -0.00781000 0.49217999 0.16010000
v -0.03906000 0.49217999 0.16010000
v -0.01562000 0.49217999 0.16010000
v -0.03125000 0.49225000 0.16015001
v -0.03906000 0.49225000 0.16015001
v 0.08572717 -0.32985699 -0.32283986
v 0.08557000 -0.35287002 -0.13504969
v 0.01894145 -0.38857514 0.16723000
v -0.08558326 -0.26702484 -0.13722394
v 0.08200680 -0.49389529 -0.07622454
v 0.08594330 -0.33095017 0.16778356
v 0.07638051 0.00248792 -0.82012570
v 0.07841939 -0.24227564 -0.98351121
v 0.07556901 0.00277702 -0.33081546
v 0.08512296 -0.00325581 -0.16019017
v 0.07842084 -0.16128999 -0.98300195
v 0.08397387 -0.23824739 0.98403019
v 0.07573027 0.00584028 -0.73432636
v -0.08401287 0.32997590 -0.32903787
v -0.08381951 0.16716591 -0.15964440
v -0.02734000 0.49217999 0.16010000
v -0.08477525 0.16723031 0.69773537
v -0.01171000 0.49217999 0.16010000
v -0.02734000 0.49225000 0.16015001
v -0.00390000 0.49217999 0.16010000
v -0.00390000 0.49225000 0.16015001
v -0.00000000 0.49217999 0.16010000
v 0.00781000 0.49217999 0.16010000
v 0.01171000 0.49217999 0.16010000
v -0.01953000 0.49225000 0.16015001
v -0.07208747 0.32945383 -0.00313361
v -0.08551105 0.16702282 0.65842813
v 0.00121938 0.48828000 0.15942000
v 0.08497888 -0.49338359 0.05734572
v 0.08402579 0.15898980 0.48602945
v -0.08524559 0.32836345 0.51969957
v 0.08372497 0.15935576 0.33111149
v 0.02343000 0.49217999 0.16010000
v 0.02343000 0.49225000 0.16015001
v 0.02734000 0.49217999 0.16010000
v -0.00000000 0.49225000 0.16015001
v -0.08630048 -0.33065808 -0.00363368
v 0.02734000 0.49225000 0.16015001
v -0.08487003 -0.33028740 0.98314661
v 0.07848846 -0.32971081 -0.98340648
v 0.08200248 -0.49389794 0.16008812
v 0.08465257 -0.32976648 0.48381504
v 0.08510925 -0.49337685 -0.00723541
v 0.08277432 -0.00325095 0.82008588
v 0.08455910 -0.49311042 0.16614377
v 0.02310845 -0.15923351 0.65777016
v 0.08512075 -0.33040106 -0.16740528
v -0.08535153 -0.33048368 0.48580492
v -0.08557000 -0.12673399 -0.68786156
v -0.08562829 -0.16110951 -0.65596038
v 0.08424595 -0.15826631 0.16758142
v 0.08340625 -0.16105622 0.38067743
v 0.08437349 -0.32978895 0.86817437
v 0.08532841 -0.29150924 0.98114812
v 0.07459670 -0.27432957 -0.82101434
v 0.07421000 0.17186999 -0.33057001
v 0.02239070 -0.00527180 0.65803450
v 0.00781000 0.49225000 0.16015001
v 0.07609107 -0.15928838 -0.48592100
v 0.01953000 0.49225000 0.16015001
v 0.08489560 0.10490167 -0.00328945
v -0.01116640 0.08739956 -0.00389965
v 0.01580073 0.16582397 -0.33057001
v 0.08213972 0.15989679 -0.15940760
v 0.07745765 0.00281345 -0.33197251
v 0.04216783 0.05479453 -0.33058217
v 0.08453305 0.15952475 0.48350248
v 0.07761487 0.00347647 -0.48571700
v 0.08434941 0.12246109 -0.00405958
v 0.08574193 0.32254153 0.54874939
v 0.02441125 0.48828000 0.15942000
v 0.01562000 0.49225000 0.16015001
v 0.01171000 0.49225000 0.16015001
v 0.01562000 0.49217999 0.16010000
v 0.01953000 0.49217999 0.16010000
v 0.03125000 0.49217999 0.16010000
v -0.00878500 0.49390000 0.16406000
v 0.00390000 0.49225000 0.16015001
v 0.05078000 0.49217999 0.16010000
v 0.05468000 0.49217999 0.16010000
v 0.00390000 0.49217999 0.16010000
v -0.08623449 0.15729317 0.23933683
v -0.08590817 0.15936019 0.15918708
v 0.00829500 0.15942000 0.35058123
v 0.08255105 0.27073357 0.65666604
v 0.02465437 0.49390000 0.16406000
v 0.05468000 0.49225000 0.16015001
v 0.05078000 0.49225000 0.16015001
v 0.05077625 0.49390000 0.16406000
v 0.03125000 0.49225000 0.16015001
v 0.08036780 -0.16058029 -0.85869616
v 0.08506914 0.37668872 0.32787836
v 0.41084778 -0.32912683 0.33030194
v 0.08407117 -0.49329761 -0.16653928
v 0.08505605 -0.49253467 -0.16478062
v 0.08550186 -0.33051834 -0.32338309
v 0.08378405 -0.16088006 -0.00517841
v 0.08566692 -0.16423912 0.98026651
v -0.08379500 0.00331642 -0.48949748
v 0.08412372 -0.15937343 -0.00340025
v 0.08491331 -0.00386101 0.16693713
v 0.08613164 -0.00465072 -0.32063460
v 0.08415160 -0.00271713 0.33001596
v 0.08566494 0.16745640 0.48613501
v 0.16770355 -0.12568301 0.48615882
v 0.03906000 0.49225000 0.16015001
v 0.07693100 -0.15817773 -0.48508030
v 0.08570966 0.15867473 0.16371910
v 0.01118994 0.16538541 0.81945765
v 0.17644541 0.16623683 0.48744926
v 0.03515000 0.49217999 0.16010000
v 0.03906000 0.49217999 0.16010000
v 0.08656135 0.24272996 0.15774988
v 0.03130742 0.25686449 -0.15942000
v 0.04687000 0.49217999 0.16010000
v 0.04296000 0.49217999 0.16010000
v 0.04296000 0.49225000 0.16015001
v 0.04687000 0.49225000 0.16015001
v 0.05859000 0.49217999 0.16010000
v 0.05859000 0.49225000 0.16015001
v 0.06250000 0.49217999 0.16010000
v 0.06250000 0.49225000 0.16015001
v 0.08504669 0.42741919 0.16017877
v 0.08491402 0.16708712 0.65714103
v 0.03515000 0.49225000 0.16015001
v 0.08359233 0.33109310 -0.16051140
v 0.08492921 0.49258518 0.16180451
v -0.08557000 -0.39716586 -0.04669104
v 0.14821991 -0.33052203 0.78489333
v 0.48803374 -0.32823125 -0.65683627
v -0.08250193 -0.49282166 -0.16588932
v 0.11596743 -0.32952946 -0.00352500
v -0.08579265 -0.36670074 0.05779519
v 0.07874069 -0.15961276 -0.82197523
v 0.07959856 -0.32829195 -0.97245359
v 0.15515037 -0.33057001 -0.85272866
v 0.14738025 -0.33057001 -0.64450467
v 0.14113152 -0.32893059 -0.32390067
v 0.08507865 -0.16007933 0.33032626
v -0.00429792 -0.16040629 0.98273319
v 0.08690750 -0.33128250 0.08593250
v 0.08472919 -0.33024365 0.33082753
v 0.08572330 -0.33056191 -0.00251295
v 0.24650373 -0.24439070 0.33054426
v 0.08538873 -0.15950142 -0.15952423
v 0.07735909 -0.15895115 -0.33121124
v -0.04749696 -0.15943523 0.47778124
v 0.08528859 -0.00358029 0.26535770
v 0.08687674 -0.16029087 0.81908345
v 0.08312149 -0.16013744 0.98289895
v 0.08441164 -0.05437704 -0.16032213
v 0.08467645 -0.04542409 -0.00324177
v 0.14284070 -0.15869009 0.65746444
v 0.08401698 -0.16135392 0.85524040
v 0.18744572 -0.33069855 -0.54120398
v 0.14098656 -0.32907498 0.48737001
v 0.08582451 -0.15902825 -0.00199817
v 0.07772125 -0.07379932 -0.33207253
v 0.17897278 -0.32978928 0.32877886
v 0.08539919 0.33062032 0.33077273
v 0.07873126 0.01116684 -0.48716664
v -0.08573597 0.15971105 0.47517824
v 0.07818451 0.16543573 -0.48737505
v 0.08499419 -0.00205058 0.82059652
v 0.07834429 0.16593786 -0.65927207
v 0.17072828 0.16067378 0.32933038
v 0.08449578 0.16625145 0.81941968
v 0.08571387 0.16857377 -0.16003296
v 0.14339665 0.16419375 -0.15958124
v 0.12398984 0.16575916 -0.82018381
v -0.08405325 0.32816800 0.42998451
v 0.08522275 0.16574702 0.65756518
v 0.08228458 0.49376756 0.24630526
v -0.07880103 0.33329108 0.15906209
v 0.08420013 0.32927114 -0.00276343
v 0.08491842 0.32960773 0.65595680
v 0.08483122 0.32849583 -0.32952401
v 0.07755595 0.49389935 0.16405781
v 0.07421000 0.49217999 0.16010000
v 0.06640000 0.49217999 0.16010000
v 0.07031000 0.49217999 0.16010000
v 0.07031000 0.49225000 0.16015001
v 0.08494145 0.33016962 -0.26399472
v 0.08115555 0.36445153 0.15953001
v 0.08484286 0.33227351 0.16009906
v 0.08461793 0.33101982 0.15921073
v 0.08505879 0.15908779 0.32997757
v 0.08459414 0.33010980 0.42153475
v 0.08418251 0.49329135 0.32975405
v 0.08505597 0.48818040 0.33017850
v 0.08497285 0.33032060 0.60671610
v 0.06640000 0.49225000 0.16015001
v 0.05456156 0.48828000 0.15942000
v 0.08224867 0.49078000 0.15943913
v 0.08528280 0.16703448 -0.33015293
v 0.08542612 0.49140337 0.16200724
v 0.10108288 -0.33057001 -0.62134749
v 0.23896104 -0.15927990 0.15258288
v 0.23921105 -0.27270859 -0.00489066
v 0.08560073 -0.32897317 0.82081789
v 0.24891262 -0.16482341 -0.72744417
v 0.07752310 0.04383542 -0.58573306
v 0.19179621 -0.15939626 0.66409862
v 0.23906052 -0.33009714 -0.00323921
v 0.14241348 -0.00508396 -0.82033849
v 0.24679823 -0.00883424 -0.81998312
v 0.07615341 0.00462884 -0.59911531
v 0.25020441 0.00417328 -0.65538526
v 0.15802248 0.32931921 0.32867137
v 0.21617262 -0.32861429 0.48620111
v 0.24782190 -0.33000904 -0.98302162
v 0.07610719 -0.20925504 -0.82087696
v 0.24801092 -0.33016476 -0.48539734
v 0.24092515 -0.32855138 -0.16444457
v 0.24166258 0.11576663 0.32855231
v 0.24843812 -0.32929209 -0.92623174
v 0.24034685 -0.15889134 0.30342847
v 0.24780385 -0.10349476 -0.32387891
v 0.24785706 -0.00363890 -0.32226649
v 0.24132189 -0.01346276 0.32938930
v 0.24779332 0.16490395 0.65645927
v 0.24937966 -0.16010891 0.65755886
v 0.16312680 0.02540506 0.65732837
v 0.24049805 0.16130598 0.15955643
v 0.24938820 0.16758111 0.16763696
v 0.24691817 0.16653383 -0.23698238
v 0.24800466 -0.33011800 -0.32356986
v 0.24844153 -0.32948548 0.66011029
v 0.24724750 -0.16133624 -0.90673435
v 0.24218000 -0.22606875 0.82056999
v 0.24874792 0.08866049 -0.75005734
v 0.24964507 -0.32918265 -0.65823615
v 0.34911633 -0.11167492 -0.65723002
v 0.24078593 0.00462605 -0.33069158
v 0.25059327 -0.05622094 -0.65774858
v 0.15279612 -0.15954778 -0.98334116
v 0.19570121 -0.00157338 -0.15975948
v 0.08463286 0.00388610 -0.48453063
v 0.24883622 -0.20230480 -0.35387826
v 0.24811754 0.00688571 0.65607196
v 0.23968801 0.15793416 0.27950922
v 0.16125281 0.16578124 -0.16169813
v 0.25108901 0.07494258 -0.16742580
v 0.24738994 0.16598475 -0.33032548
v 0.08095186 0.16602023 -0.81923848
v 0.15008447 0.16498111 -0.32999879
v 0.24689040 0.33046186 0.20355740
v 0.24736154 0.33054298 0.32983780
v 0.24777180 -0.33003679 -0.82930052
v 0.24074322 -0.15949662 -0.00433411
v 0.23988043 -0.21379982 -0.00531194
v 0.24740599 -0.26181185 -0.32384312
v 0.24917725 -0.15789013 0.48710766
v 0.27291194 -0.15987046 0.48647609
v 0.24785915 -0.15983224 0.81983012
v 0.24586084 -0.00266695 -0.20618613
v 0.24686649 0.12144110 0.48664427
v 0.24761976 -0.01310209 0.48771834
v 0.24119399 -0.00439683 -0.16505404
v 0.24181750 0.32965681 -0.00163445
v 0.08603670 -0.00332095 0.65793037
v 0.24686608 0.16591017 -0.48769301
v 0.24802403 0.16695772 0.48770228
v 0.33652169 0.32957482 0.16598490
v 0.25006667 -0.15465030 -0.48501694
v 0.24207135 -0.32920769 -0.06652863
v 0.07996658 -0.33062324 0.56734759
v 0.24862504 -0.21839970 -0.98406565
v 0.31915691 -0.32887900 -0.16589677
v 0.24728860 -0.32936969 0.81883842
v 0.24895951 0.00270730 -0.48527065
v 0.24852186 -0.16001897 -0.98287886
v 0.24638829 -0.15979126 -0.92974341
v 0.24739665 -0.15980592 -0.81943834
v 0.24650501 -0.15987001 -0.88671249
v 0.24699999 -0.16084750 -0.83788496
v 0.24067600 0.15939698 0.33027798
v 0.24727322 -0.15953787 0.65726840
v 0.24781035 -0.03821601 0.65584439
v 0.24886365 0.16725153 0.32966545
v 0.35329977 -0.32941276 0.48743761
v 0.28139284 -0.32965377 -0.48763961
v 0.24109000 0.06078609 -0.05858937
v 0.24856667 0.16626787 0.58727187
v 0.32816559 0.00419776 -0.57463223
v 0.24804229 0.03984298 -0.48771474
v 0.24875611 0.00310725 -0.48559210
v 0.24830770 0.00322156 -0.33228332
v 0.41332498 -0.16767178 -0.08343986
v 0.41064659 0.00260849 -0.65685958
v 0.24041945 0.16532162 -0.15844682
v 0.24109824 -0.06233987 -0.05337849
v 0.24148691 0.33008248 0.15953356
v 0.41104344 0.11673547 0.33031365
v 0.24742351 0.16647795 -0.81959343
v 0.24122791 0.16489051 -0.00368908
v 0.24852639 0.16641276 -0.16716105
v 0.24809498 0.16558316 -0.70972532
v 0.24799682 0.16625898 -0.48685372
v 0.32650617 -0.33059409 0.19858851
v 0.35861835 -0.15942000 0.56426513
v 0.41306034 0.00414353 0.16798373
v 0.15215248 0.32792911 0.16050544
v 0.24914962 0.32925335 0.16723062
v 0.31054249 0.32811999 -0.00352000
v 0.24064785 -0.00085889 -0.15929271
v 0.39301705 -0.32876652 -0.48684654
v 0.24281278 -0.15981086 0.33005694
v 0.24109000 0.02150526 0.08755610
v 0.24109000 0.05895719 -0.08031898
v 0.24905203 -0.29355055 -0.65847152
v 0.37552905 -0.26891774 0.65720630
v 0.41208336 -0.32968044 -0.00413798
v 0.49396414 -0.33046702 0.16406251
v 0.41130432 -0.16034523 0.65631843
v 0.24902657 -0.00057748 -0.16742554
v 0.24109000 0.09976850 0.08791263
v 0.40749952 0.16679439 0.25975341
v 0.41409555 0.00481900 -0.13959947
v 0.41261977 0.00529667 0.31863067
v 0.29860461 0.16745235 -0.09272538
v 0.40960857 -0.24767636 0.48674890
v 0.41222355 -0.32980943 0.16700183
v 0.30809021 -0.32973215 -0.65558702
v 0.44351909 -0.33123845 -0.58026594
v 0.35012352 0.32857937 -0.00286000
v 0.41091403 -0.13840771 -0.48752406
v 0.41060317 -0.32965511 -0.09533848
v 0.41179889 0.00328405 -0.16736244
v 0.24109000 0.01335315 0.17513761
v 0.43428540 -0.16650636 0.32814249
v 0.41162157 0.16652866 0.33005103
v 0.41149044 0.32873151 -0.00172552
v 0.41329500 0.16777749 0.07152984
v 0.52086937 -0.32956752 -0.65446252
v 0.25554633 -0.09676400 -0.48588753
v 0.41167939 -0.03500336 -0.48721775
v 0.41014999 -0.21483999 0.65675002
v 0.41386870 -0.15898055 -0.57046562
v 0.41249350 -0.15918717 -0.65679640
v 0.41262111 -0.16822930 0.21163814
v 0.41223001 -0.04161447 -0.57499933
v 0.41406000 -0.15903001 -0.53173500
v 0.41218880 -0.22803031 0.65238649
v 0.47656000 -0.32420999 0.16723000
v 0.57485843 -0.16022807 -0.48827335
v 0.24109000 -0.09245623 0.06811051
v 0.41134593 0.04960188 -0.16538836
v 0.41223001 0.09416565 -0.09220703
v 0.41399395 -0.16824557 -0.00403835
v 0.41214868 0.23954621 0.16031711
v 0.40954125 0.19885656 -0.00373636
v 0.41182697 0.16687292 -0.00349874
v 0.41042328 0.27824840 -0.00193714
v 0.57396072 0.09264272 -0.00250690
v 0.57446653 -0.32886881 -0.59251523
v 0.41341174 -0.16794486 0.16761440
v 0.41172045 -0.33010027 -0.16535805
v 0.41028008 -0.26810950 0.65656424
v 0.41137347 -0.33018351 0.48666656
v 0.41089687 -0.32932350 0.65688908
v 0.41166207 -0.16695108 -0.16645311
v 0.37371275 -0.33057001 0.00957923
v 0.41234300 -0.16660272 0.33026287
v 0.40760311 -0.33008227 0.65603030
v 0.47972792 -0.32902944 -0.00279880
v 0.41088456 -0.25540867 -0.16596007
v 0.24109000 -0.10538772 0.11947922
v 0.41069272 -0.12261145 -0.65686190
v 0.39421144 0.00230091 -0.48746112
v 0.41116643 0.00314535 -0.48701975
v 0.36701614 0.09408144 -0.16723000
v 0.52528620 0.16474320 -0.00425683
v 0.41089851 0.16528809 -0.16630776
v 0.41127199 0.33011076 -0.00282808
v 0.42284748 -0.32878751 -0.65641749
v 0.57401335 -0.33017489 -0.00327508
v 0.41137511 -0.16002113 0.48683047
v 0.41250482 -0.15959759 -0.48630953
v 0.50374889 -0.16653697 0.32885420
v 0.23865262 -0.15910248 0.07017069
v 0.41214028 0.16612872 0.16667542
v 0.37693748 -0.04931752 -0.16743028
v 0.41107547 -0.15991713 0.58346236
v 0.56865835 -0.16133942 -0.65647644
v 0.51168352 -0.16723000 0.19317226
v 0.41058248 0.11453521 -0.16631706
v 0.36693546 0.16784318 -0.00396108
v 0.24103619 -0.09915222 0.16226877
v 0.54501790 0.00248395 -0.16525187
v 0.41313729 0.16453558 -0.00498603
v 0.41237003 0.16746877 0.16606362
v 0.41028473 0.16688703 0.16670284
v 0.57498252 -0.07519000 0.32843500
v 0.41129321 0.32969970 0.16626684
v 0.45912454 -0.16078269 -0.65592724
v 0.57420999 -0.26170999 -0.65627998
v 0.57424998 -0.26561999 -0.65625000
v 0.57420999 -0.26561999 -0.65627998
v 0.47704625 0.16654626 0.16463375
v 0.57518286 -0.32984248 0.16639157
v 0.57420999 -0.21483999 -0.65627998
v 0.57424998 -0.19531000 -0.65625000
v 0.57424998 -0.19140001 -0.65625000
v 0.57420999 -0.19140001 -0.65627998
v 0.57424998 -0.17968000 -0.65625000
v 0.51055157 -0.25478533 -0.48567560
v 0.57420999 -0.25389999 -0.65627998
v 0.57572198 -0.24475731 -0.65187794
v 0.57673138 -0.11735514 0.16797943
v 0.57557690 -0.16692267 -0.00319685
v 0.57420999 -0.16796000 -0.65627998
v 0.57453132 -0.16054723 -0.65507746
v 0.42772999 0.16723000 0.00000000
v 0.53670055 -0.33057001 0.08511795
v 0.55370504 -0.16806769 -0.00397909
v 0.57257748 -0.28173751 0.16610751
v 0.57556999 -0.28441936 -0.65233999
v 0.57420999 -0.27733999 -0.65627998
v 0.57424998 -0.22265001 -0.65625000
v 0.57556999 -0.22851124 -0.65233999
v 0.57031000 -0.23827624 -0.65723002
v 0.57424998 -0.23046000 -0.65625000
v 0.57424998 -0.27733999 -0.65625000
v 0.57424998 -0.27342999 -0.65625000
v 0.57420999 -0.27342999 -0.65627998
v 0.57504731 -0.32968599 -0.65552264
v 0.57424998 -0.17578000 -0.65625000
v 0.57420999 -0.17578000 -0.65627998
v 0.57031000 -0.16406000 -0.65723002
v 0.57424998 -0.25389999 -0.65625000
v 0.57420999 -0.25000000 -0.65627998
v 0.57420999 -0.18750000 -0.65627998
v 0.57031000 -0.18554500 -0.65723002
v 0.57420999 -0.19531000 -0.65627998
v 0.57243383 -0.16012189 -0.61307150
v 0.57031000 -0.26244688 -0.65723002
v 0.57485420 0.00301937 -0.16589798
v 0.62008542 -0.06209702 -0.00412149
v 0.57424998 -0.25781000 -0.65625000
v 0.57420999 -0.25781000 -0.65627998
v 0.57483804 0.16685623 -0.00226880
v 0.57511193 -0.02869488 -0.16434063
v 0.57558823 0.00524911 -0.00308464
v 0.57424998 -0.22656000 -0.65625000
v 0.57420999 -0.22656000 -0.65627998
v 0.57516915 0.00298550 0.16785777
v 0.57488436 0.16609249 0.16531385
v 0.56909782 -0.32814795 -0.65719432
v 0.57303143 -0.29171985 -0.65654254
v 0.57420999 -0.28125000 -0.65627998
v 0.57031000 -0.20946875 -0.65723002
v 0.57477504 -0.24790706 -0.00137475
v 0.54247499 -0.32420999 -0.00390000
v 0.57389760 -0.16613527 0.22540788
v 0.57420999 -0.24608999 -0.65627998
v 0.57424998 -0.26953000 -0.65625000
v 0.57420999 -0.21875000 -0.65627998
v 0.57726198 -0.16771460 0.04312392
v 0.57424998 -0.25000000 -0.65625000
v 0.57483506 -0.26618651 0.16537215
v 0.51835239 -0.18809097 0.16723000
v 0.57420999 -0.19921000 -0.65627998
v 0.57424998 -0.20311999 -0.65625000
v 0.57420999 -0.20311999 -0.65627998
v 0.57496363 -0.16606086 0.32985955
v 0.57424998 -0.18750000 -0.65625000
v 0.57424998 -0.18358999 -0.65625000
v 0.57420999 -0.18358999 -0.65627998
v 0.57420999 -0.17186999 -0.65627998
v 0.57420999 -0.17968000 -0.65627998
v 0.57424998 -0.19921000 -0.65625000
v 0.57478487 -0.32970127 -0.48688287
v 0.57526004 -0.16274503 -0.60104477
v 0.57470870 -0.16594535 -0.16631548
v 0.48224163 -0.16724694 -0.12210239
v 0.41141284 0.00330356 0.33043298
v 0.57424998 -0.20703000 -0.65625000
v 0.57527131 -0.16483855 -0.02687091
v 0.57556999 -0.19970250 -0.65233999
v 0.57368493 0.00295063 -0.12498955
v 0.57420999 -0.26953000 -0.65627998
v 0.57475287 0.00137520 0.25867248
v 0.57424998 -0.28514999 -0.65625000
v 0.73731905 -0.16598111 -0.00268035
v 0.57424998 -0.26170999 -0.65625000
v 0.57420999 -0.23828000 -0.65627998
v 0.57424998 -0.28125000 -0.65625000
v 0.57420999 -0.23436999 -0.65627998
v 0.57424998 -0.23828000 -0.65625000
v 0.57420999 -0.23046000 -0.65627998
v 0.57519484 -0.16716363 0.16636303
v 0.57424998 -0.23436999 -0.65625000
v 0.57424998 -0.24608999 -0.65625000
v 0.57424998 -0.21483999 -0.65625000
v 0.57424998 -0.21875000 -0.65625000
v 0.57420999 -0.22265001 -0.65627998
v 0.57511002 -0.26073498 -0.48828000
v 0.73870456 -0.16579871 0.05987108
v 0.57424998 -0.24218000 -0.65625000
v 0.57420999 -0.24218000 -0.65627998
v 0.57424998 -0.17186999 -0.65625000
v 0.57420999 -0.21093000 -0.65627998
v 0.57424998 -0.21093000 -0.65625000
v 0.57420999 -0.20703000 -0.65627998
v 0.54702395 -0.07213875 -0.16723000
v 0.57556999 -0.16406000 -0.65233999
v 0.73799103 -0.16547091 0.11274051
v 0.65732807 -0.16351435 -0.00365918
v 0.51273668 -0.16426040 -0.16651788
v 0.57467347 0.00305772 0.32976529
v 0.51211101 0.00288654 0.32850054
v 0.57289284 0.00256349 -0.10431398
v 0.41260445 0.00469265 -0.00377294
v 0.57751566 -0.07018355 -0.00669186
v 0.57620555 0.00353866 0.16652988
v 0.50145864 0.16517764 0.16628756
v 0.67829084 -0.16505863 0.16601487
v 0.57469642 0.08029348 0.16558696
v 0.57477957 0.16528618 0.08630155
v 0.58570790 0.00253611 0.16665277
v 0.68534178 0.00019522 -0.00294657
v 0.73840761 -0.04286604 0.16576776
v 0.73800892 0.00239533 0.16581167
v 0.67846203 -0.16723000 0.11833477
v 0.73635179 -0.08013318 -0.00234459
v 0.73833573 0.00184140 -0.00262145
v 0.73824579 -0.16616723 0.16649656
v 0.73604953 0.00339637 0.09079341
f 2 7 3
f 3 9 2
f 6 4 3
f 6 7 18
f 6 12 4
f 3 7 6
f 7 2 9
f 12 6 18
f 7 9 18
f 4 47 3
f 9 3 47
f 14 18 9
f 8 10 14
f 4 12 47
f 18 14 21
f 17 18 21
f 16 11 17
f 8 9 56
f 14 9 8
f 8 56 10
f 47 12 11
f 11 34 47
f 18 11 12
f 18 17 11
f 34 11 16
f 17 21 15
f 16 17 27
f 27 17 15
f 56 9 22
f 16 27 34
f 35 36 96
f 57 25 20
f 20 13 84
f 42 29 24
f 67 19 31
f 28 27 69
f 25 26 44
f 31 19 33
f 39 5 48
f 20 84 57
f 25 44 20
f 10 56 51
f 20 26 13
f 14 10 51
f 29 5 30
f 29 30 24
f 34 49 24
f 47 55 9
f 27 28 42
f 44 26 20
f 24 49 42
f 15 87 33
f 33 46 31
f 28 69 42
f 15 19 27
f 33 19 15
f 32 19 67
f 39 48 24
f 5 39 30
f 84 13 64
f 29 59 5
f 59 29 42
f 39 24 30
f 24 48 82
f 59 42 86
f 27 42 49
f 27 49 34
f 9 55 22
f 26 64 13
f 102 25 57
f 26 25 64
f 87 15 21
f 34 24 82
f 69 27 70
f 31 46 67
f 37 32 67
f 102 57 84
f 48 5 40
f 64 25 115
f 25 102 115
f 40 5 62
f 22 50 56
f 5 59 62
f 78 142 64
f 64 142 84
f 86 42 81
f 45 67 72
f 66 51 50
f 50 22 58
f 47 80 55
f 51 87 14
f 80 58 55
f 58 22 55
f 50 51 56
f 14 87 21
f 104 50 58
f 50 87 66
f 87 50 104
f 99 79 127
f 82 43 113
f 47 34 113
f 87 51 66
f 104 58 135
f 64 115 125
f 41 104 113
f 104 41 87
f 42 69 81
f 85 33 87
f 43 52 113
f 113 34 82
f 113 52 41
f 41 85 87
f 43 68 52
f 68 69 70
f 52 70 41
f 68 43 69
f 69 88 81
f 52 68 70
f 85 41 45
f 46 85 45
f 41 37 45
f 46 33 85
f 27 19 70
f 61 53 93
f 32 37 41
f 70 19 32
f 32 41 70
f 45 37 67
f 67 46 72
f 38 90 203
f 46 45 72
f 96 95 35
f 111 95 96
f 95 111 175
f 73 48 40
f 127 65 117
f 76 65 127
f 40 62 127
f 58 122 135
f 93 53 119
f 73 54 48
f 102 77 106
f 122 58 80
f 65 76 79
f 80 47 113
f 48 54 82
f 101 77 102
f 203 88 38
f 88 86 81
f 142 102 84
f 115 106 126
f 102 106 115
f 86 88 156
f 53 61 119
f 90 69 204
f 60 61 89
f 88 69 90
f 60 89 118
f 91 72 71
f 90 38 88
f 91 71 108
f 89 61 93
f 89 93 132
f 94 72 91
f 59 99 62
f 102 100 101
f 79 76 127
f 101 138 77
f 106 77 138
f 118 61 60
f 155 65 79
f 117 65 155
f 79 99 192
f 99 127 62
f 82 54 43
f 156 88 203
f 104 129 113
f 64 125 78
f 125 115 126
f 59 86 156
f 106 152 126
f 93 119 132
f 118 89 131
f 204 69 128
f 108 71 296
f 108 94 91
f 98 94 108
f 72 94 109
f 98 108 140
f 94 98 109
f 109 170 72
f 142 78 124
f 83 124 78
f 78 103 83
f 79 264 155
f 103 78 125
f 43 54 63
f 101 100 138
f 106 138 152
f 118 119 61
f 59 156 99
f 203 90 204
f 131 89 132
f 127 117 40
f 262 124 83
f 135 122 143
f 102 142 100
f 80 113 251
f 122 80 251
f 262 142 124
f 264 79 192
f 192 99 157
f 69 43 128
f 100 142 138
f 280 156 203
f 132 119 191
f 241 132 191
f 118 131 139
f 109 98 140
f 71 72 170
f 63 128 43
f 54 73 63
f 251 113 129
f 153 135 143
f 262 83 103
f 145 104 135
f 121 104 145
f 129 104 121
f 118 139 119
f 132 241 131
f 229 204 128
f 71 297 296
f 108 105 183
f 296 105 108
f 171 133 376
f 131 376 134
f 163 144 164
f 231 120 323
f 134 139 131
f 71 170 297
f 110 201 203
f 166 167 168
f 95 167 166
f 36 169 182
f 108 183 140
f 176 177 178
f 179 177 176
f 75 117 147
f 182 168 181
f 170 109 97
f 245 385 376
f 111 388 109
f 35 95 184
f 36 35 184
f 347 123 1
f 1 116 143
f 73 345 123
f 253 154 149
f 123 116 1
f 143 347 1
f 75 194 117
f 117 187 40
f 73 218 63
f 147 92 150
f 150 75 147
f 426 150 92
f 157 99 273
f 73 40 187
f 129 63 251
f 128 63 311
f 153 74 189
f 121 23 129
f 129 148 63
f 265 145 189
f 145 153 189
f 74 125 361
f 125 137 361
f 126 152 114
f 125 119 139
f 92 158 221
f 119 146 197
f 191 119 160
f 159 191 160
f 197 160 119
f 258 159 160
f 166 198 95
f 166 180 198
f 158 136 227
f 313 196 157
f 223 99 280
f 99 156 280
f 162 151 173
f 296 151 105
f 151 162 105
f 105 162 133
f 171 105 133
f 203 201 277
f 171 183 105
f 385 245 402
f 323 120 258
f 229 199 141
f 228 391 201
f 229 110 204
f 240 23 97
f 110 229 141
f 205 206 207
f 181 178 182
f 208 209 291
f 210 209 208
f 176 167 95
f 176 181 167
f 182 178 211
f 174 164 212
f 206 182 207
f 182 211 207
f 180 166 168
f 97 109 240
f 385 140 376
f 388 240 109
f 241 165 245
f 140 185 175
f 172 111 109
f 96 36 182
f 180 168 182
f 36 184 169
f 111 96 182
f 181 176 178
f 182 169 180
f 214 177 179
f 211 177 214
f 184 198 169
f 198 184 95
f 181 168 167
f 95 175 179
f 211 214 207
f 176 95 179
f 198 180 169
f 182 388 111
f 211 178 177
f 207 214 205
f 214 179 205
f 205 179 213
f 206 205 213
f 308 123 345
f 103 74 188
f 188 74 153
f 143 116 217
f 117 155 147
f 74 361 189
f 313 157 273
f 153 145 135
f 321 273 99
f 186 73 187
f 345 73 186
f 347 143 122
f 256 188 153
f 262 103 188
f 193 138 149
f 193 149 154
f 193 154 130
f 130 154 226
f 311 63 148
f 103 125 74
f 152 193 114
f 481 138 142
f 138 193 152
f 158 147 190
f 372 99 223
f 157 196 192
f 125 126 146
f 129 23 148
f 146 119 125
f 147 158 92
f 121 145 173
f 23 173 97
f 23 121 173
f 221 158 227
f 421 196 313
f 136 264 192
f 136 192 196
f 227 136 196
f 120 159 258
f 195 23 276
f 23 240 276
f 206 213 230
f 203 204 110
f 139 134 244
f 242 232 210
f 183 376 140
f 245 376 131
f 131 241 245
f 241 191 159
f 241 159 231
f 159 120 231
f 201 110 228
f 144 233 179
f 144 163 233
f 141 228 110
f 391 228 141
f 234 235 236
f 237 238 242
f 200 209 232
f 291 209 200
f 200 239 291
f 200 212 239
f 391 141 397
f 239 179 291
f 199 328 141
f 236 242 234
f 232 209 210
f 397 141 340
f 163 164 174
f 141 328 340
f 213 233 230
f 233 213 179
f 376 183 171
f 140 172 109
f 212 232 174
f 206 230 182
f 175 172 140
f 185 140 404
f 175 111 172
f 144 239 164
f 179 239 144
f 212 164 239
f 232 242 174
f 174 388 182
f 242 388 174
f 210 208 234
f 230 174 182
f 163 230 233
f 174 230 163
f 242 210 234
f 212 200 232
f 247 248 249
f 234 208 235
f 208 291 235
f 236 235 250
f 235 291 250
f 249 248 252
f 248 300 252
f 148 23 311
f 123 112 116
f 126 114 260
f 75 150 426
f 190 147 136
f 142 262 481
f 75 426 269
f 136 158 190
f 146 126 260
f 481 343 138
f 130 226 354
f 263 136 147
f 263 264 136
f 197 146 260
f 139 137 125
f 173 145 315
f 237 272 238
f 280 203 277
f 286 287 300
f 286 288 287
f 285 289 247
f 249 252 290
f 272 292 300
f 272 237 292
f 292 291 300
f 407 293 294
f 288 238 287
f 272 287 238
f 300 287 272
f 286 274 289
f 300 274 286
f 288 289 285
f 236 295 242
f 301 302 303
f 294 302 301
f 404 403 185
f 247 289 274
f 285 247 249
f 236 250 295
f 291 179 175
f 250 292 295
f 292 250 291
f 242 295 237
f 237 295 292
f 242 288 285
f 288 286 289
f 242 238 288
f 248 274 300
f 247 274 248
f 290 285 249
f 290 252 304
f 252 300 304
f 285 407 388
f 242 285 388
f 291 175 387
f 175 185 403
f 117 194 187
f 187 194 411
f 253 107 154
f 155 264 147
f 348 426 92
f 215 316 261
f 114 193 260
f 308 309 219
f 263 147 264
f 315 145 265
f 196 421 227
f 421 313 282
f 401 162 317
f 407 325 326
f 325 407 285
f 165 390 405
f 329 330 331
f 326 330 407
f 329 332 293
f 333 334 335
f 326 320 330
f 407 330 329
f 389 240 400
f 162 246 133
f 290 325 285
f 294 293 302
f 290 304 325
f 332 331 303
f 332 329 331
f 331 300 303
f 339 326 325
f 320 339 300
f 320 326 339
f 407 294 333
f 294 301 333
f 304 339 325
f 339 304 300
f 329 293 407
f 320 331 330
f 300 331 320
f 333 301 334
f 301 303 334
f 332 302 293
f 303 302 332
f 335 407 333
f 335 334 336
f 334 303 336
f 219 309 257
f 243 257 220
f 259 243 220
f 116 255 259
f 112 243 259
f 255 112 259
f 112 255 116
f 308 219 123
f 257 123 219
f 75 269 194
f 257 309 357
f 112 123 257
f 243 112 257
f 123 251 342
f 347 251 123
f 309 308 216
f 73 123 342
f 309 216 357
f 116 259 217
f 347 122 251
f 308 345 261
f 143 217 220
f 216 308 261
f 256 153 143
f 217 259 220
f 251 73 342
f 257 355 220
f 138 343 414
f 216 261 357
f 261 345 186
f 257 357 355
f 267 107 253
f 107 267 268
f 310 215 187
f 321 99 360
f 215 186 187
f 261 359 357
f 251 218 73
f 414 267 149
f 143 220 356
f 256 143 356
f 256 481 262
f 414 149 138
f 268 267 414
f 154 107 226
f 215 261 186
f 63 218 251
f 188 256 262
f 370 481 256
f 253 149 267
f 226 107 268
f 414 363 268
f 189 361 353
f 356 353 256
f 356 220 161
f 266 256 353
f 193 130 354
f 357 311 371
f 256 266 137
f 268 363 368
f 268 368 312
f 268 312 226
f 364 226 312
f 311 359 128
f 261 316 359
f 365 359 316
f 357 359 311
f 371 311 314
f 266 353 361
f 137 266 361
f 363 193 354
f 354 368 363
f 363 260 193
f 354 364 368
f 354 226 364
f 312 368 364
f 365 128 359
f 372 360 99
f 356 373 353
f 316 215 466
f 311 23 195
f 314 366 371
f 311 195 314
f 128 365 224
f 315 265 371
f 314 195 366
f 371 366 315
f 137 139 319
f 197 367 271
f 229 128 224
f 365 316 224
f 366 275 315
f 315 202 362
f 378 258 271
f 317 362 401
f 475 378 271
f 273 282 313
f 276 366 195
f 275 366 276
f 362 317 162
f 160 271 258
f 283 275 276
f 173 297 97
f 202 315 275
f 275 283 202
f 362 162 315
f 246 162 401
f 319 139 244
f 160 197 271
f 475 386 378
f 283 327 202
f 277 409 280
f 202 322 362
f 173 315 162
f 296 173 151
f 378 323 258
f 231 338 241
f 297 173 296
f 401 362 322
f 323 338 231
f 378 386 381
f 409 277 270
f 229 224 451
f 229 278 199
f 283 276 240
f 298 376 133
f 189 353 431
f 244 281 318
f 222 225 482
f 338 323 381
f 386 338 381
f 323 378 381
f 328 199 278
f 270 277 201
f 375 421 282
f 281 134 246
f 134 376 246
f 281 246 318
f 391 270 201
f 382 409 397
f 382 328 278
f 283 240 389
f 283 389 327
f 298 133 246
f 170 97 297
f 298 246 376
f 244 134 281
f 245 165 402
f 318 402 284
f 338 299 241
f 338 318 284
f 391 409 270
f 409 391 397
f 340 382 397
f 382 340 328
f 318 246 374
f 385 374 140
f 299 165 241
f 165 299 390
f 240 388 400
f 318 374 402
f 374 385 402
f 402 165 405
f 299 338 284
f 299 284 405
f 392 303 387
f 395 396 393
f 393 396 341
f 396 392 341
f 410 408 341
f 327 389 400
f 398 399 400
f 395 393 408
f 299 405 390
f 405 284 402
f 336 406 394
f 406 336 303
f 400 388 398
f 291 387 300
f 407 398 388
f 399 306 374
f 306 399 337
f 306 140 374
f 306 404 140
f 398 337 399
f 337 398 408
f 407 408 398
f 400 517 327
f 306 337 410
f 337 408 410
f 395 408 407
f 303 300 387
f 387 175 403
f 341 392 387
f 341 408 393
f 406 303 392
f 335 394 407
f 335 336 394
f 407 394 395
f 396 406 392
f 396 395 406
f 395 394 406
f 410 341 387
f 404 306 410
f 404 410 387
f 387 403 404
f 370 256 137
f 349 194 269
f 349 222 254
f 452 282 279
f 187 411 310
f 355 357 346
f 371 265 412
f 356 161 373
f 222 349 225
f 215 310 352
f 346 357 371
f 305 426 348
f 431 265 189
f 271 367 475
f 424 137 319
f 197 260 367
f 417 260 363
f 92 221 419
f 419 221 459
f 372 223 279
f 227 459 221
f 375 377 379
f 280 409 460
f 416 379 421
f 318 338 386
f 384 459 379
f 244 318 324
f 456 382 383
f 278 229 451
f 223 280 460
f 383 382 278
f 401 322 202
f 399 374 423
f 194 349 350
f 352 310 427
f 424 370 137
f 466 215 352
f 482 225 450
f 321 360 372
f 225 426 305
f 319 244 471
f 220 355 161
f 367 260 417
f 475 367 492
f 282 321 279
f 432 316 466
f 279 321 372
f 452 375 282
f 321 282 273
f 377 375 476
f 375 416 421
f 223 460 279
f 386 475 437
f 379 416 375
f 421 379 459
f 382 456 440
f 383 278 451
f 324 318 498
f 324 471 244
f 438 202 327
f 380 401 202
f 400 399 517
f 461 517 399
f 426 225 349
f 161 355 346
f 481 370 424
f 349 254 430
f 254 222 482
f 346 371 418
f 225 305 450
f 450 305 348
f 269 426 349
f 413 418 371
f 202 438 455
f 412 265 431
f 367 417 492
f 459 384 420
f 476 375 500
f 433 316 432
f 470 316 433
f 375 452 500
f 470 224 316
f 460 409 382
f 456 383 451
f 509 384 512
f 386 498 318
f 498 386 435
f 438 327 517
f 246 401 380
f 380 374 246
f 363 414 484
f 353 373 358
f 371 412 595
f 464 465 371
f 464 371 595
f 371 465 413
f 501 279 448
f 473 451 470
f 440 456 505
f 517 461 507
f 441 352 427
f 441 427 466
f 343 481 442
f 414 343 484
f 425 430 254
f 430 463 350
f 466 352 441
f 482 425 254
f 349 430 350
f 463 430 443
f 463 415 446
f 463 194 350
f 525 446 415
f 369 427 310
f 427 453 466
f 418 161 346
f 436 484 442
f 343 442 484
f 425 482 430
f 446 194 463
f 310 411 369
f 369 351 446
f 427 479 453
f 430 486 443
f 449 525 415
f 482 486 430
f 487 450 348
f 463 443 490
f 463 488 415
f 446 351 194
f 351 411 194
f 411 351 369
f 466 453 432
f 417 363 469
f 363 484 444
f 444 484 469
f 486 482 450
f 450 487 486
f 486 487 443
f 490 443 489
f 487 348 489
f 443 487 489
f 489 348 488
f 490 489 488
f 488 463 490
f 514 373 161
f 358 522 353
f 431 353 522
f 467 424 319
f 492 417 469
f 484 436 469
f 363 444 469
f 436 492 469
f 348 92 419
f 453 479 485
f 470 451 224
f 493 492 467
f 488 348 420
f 415 488 420
f 348 419 420
f 161 537 514
f 452 279 501
f 485 501 432
f 454 467 472
f 492 493 475
f 415 420 449
f 427 496 479
f 453 485 432
f 452 501 500
f 467 454 493
f 449 420 445
f 538 446 525
f 433 458 470
f 451 473 520
f 470 530 473
f 319 472 467
f 475 493 454
f 475 454 437
f 420 419 459
f 449 445 422
f 377 476 379
f 433 448 458
f 502 432 501
f 433 432 502
f 501 448 502
f 502 448 433
f 319 471 472
f 459 227 421
f 420 509 445
f 470 458 530
f 477 471 324
f 472 498 454
f 369 446 538
f 512 384 379
f 500 501 422
f 451 520 505
f 279 460 448
f 448 460 458
f 530 458 457
f 456 451 505
f 454 435 437
f 386 437 435
f 435 454 498
f 509 420 384
f 500 513 476
f 472 471 498
f 422 445 512
f 538 496 369
f 509 512 445
f 512 379 476
f 422 512 476
f 422 476 513
f 513 500 422
f 460 382 458
f 458 440 457
f 458 382 440
f 511 457 440
f 440 505 511
f 424 495 481
f 467 492 436
f 511 505 588
f 471 477 498
f 477 324 498
f 491 380 455
f 491 423 374
f 202 455 380
f 491 374 380
f 423 462 461
f 491 494 462
f 418 413 480
f 439 518 494
f 399 423 461
f 423 491 462
f 607 494 532
f 517 507 438
f 461 494 518
f 449 554 525
f 518 507 461
f 462 494 461
f 424 467 468
f 522 434 431
f 468 467 436
f 428 483 480
f 442 579 436
f 496 521 479
f 369 496 427
f 422 501 499
f 597 473 543
f 429 455 434
f 505 510 535
f 491 429 494
f 457 511 588
f 434 508 429
f 438 474 510
f 429 491 455
f 507 518 478
f 442 481 579
f 574 481 495
f 506 473 428
f 479 550 485
f 499 501 485
f 543 473 530
f 422 504 449
f 439 494 607
f 588 505 535
f 508 494 429
f 510 505 524
f 535 510 602
f 510 474 602
f 507 474 438
f 519 602 474
f 519 474 507
f 495 424 468
f 483 428 473
f 526 436 579
f 581 473 597
f 468 436 515
f 520 473 506
f 584 499 485
f 522 358 578
f 431 434 544
f 504 422 499
f 485 550 551
f 530 457 562
f 524 505 520
f 494 546 532
f 508 546 494
f 510 531 438
f 540 507 589
f 507 478 589
f 507 540 519
f 518 439 478
f 602 519 540
f 572 480 483
f 373 307 358
f 550 479 521
f 436 552 529
f 515 436 598
f 436 529 598
f 584 485 551
f 496 538 539
f 571 537 559
f 307 373 537
f 538 525 590
f 464 480 465
f 527 418 542
f 539 538 590
f 572 483 581
f 521 496 539
f 579 574 575
f 590 525 344
f 527 542 564
f 527 580 577
f 572 581 542
f 572 542 480
f 574 536 558
f 575 526 579
f 579 481 574
f 573 575 558
f 483 473 581
f 528 577 580
f 503 564 542
f 413 465 480
f 418 577 161
f 480 542 418
f 527 577 418
f 537 577 528
f 536 574 495
f 575 574 558
f 575 573 526
f 542 581 503
f 557 553 541
f 161 577 537
f 373 514 537
f 537 571 307
f 307 571 555
f 495 468 536
f 526 573 436
f 552 436 573
f 573 558 552
f 576 503 581
f 480 464 428
f 358 307 578
f 468 592 536
f 515 592 468
f 558 598 529
f 558 592 598
f 529 552 558
f 597 576 581
f 428 464 506
f 603 582 412
f 412 431 603
f 595 561 464
f 567 548 628
f 464 561 506
f 582 595 412
f 558 536 592
f 307 555 578
f 555 545 578
f 541 551 550
f 598 592 515
f 554 583 553
f 583 554 447
f 447 554 449
f 724 690 576
f 541 550 593
f 593 557 541
f 690 503 576
f 583 447 449
f 522 578 691
f 553 583 556
f 556 541 553
f 504 583 449
f 541 556 551
f 724 576 597
f 583 504 556
f 522 691 434
f 551 556 504
f 504 499 584
f 585 504 584
f 585 584 551
f 551 504 585
f 533 543 562
f 597 543 604
f 520 506 524
f 530 562 543
f 497 506 561
f 524 506 497
f 523 497 561
f 497 510 524
f 691 508 434
f 603 544 523
f 523 544 531
f 431 544 603
f 555 571 545
f 516 508 534
f 603 523 582
f 561 595 523
f 595 582 523
f 586 562 457
f 562 728 533
f 510 497 523
f 531 544 438
f 434 455 544
f 691 534 508
f 438 544 455
f 728 563 605
f 601 562 586
f 563 728 562
f 563 562 601
f 586 457 588
f 510 523 531
f 588 601 586
f 602 588 535
f 508 516 596
f 563 567 605
f 563 601 567
f 588 602 567
f 508 596 546
f 601 588 567
f 605 567 628
f 566 567 602
f 567 566 548
f 606 607 596
f 548 565 606
f 596 607 532
f 596 532 546
f 606 565 607
f 607 478 439
f 548 547 565
f 602 568 566
f 609 478 607
f 607 565 609
f 548 568 547
f 566 568 548
f 602 540 568
f 547 568 540
f 589 547 540
f 628 548 606
f 609 565 589
f 589 565 547
f 609 589 478
f 527 564 580
f 590 344 549
f 539 590 549
f 539 687 521
f 651 344 525
f 553 557 650
f 550 521 593
f 651 525 554
f 610 554 553
f 610 553 650
f 593 560 557
f 611 612 613
f 604 543 533
f 604 533 728
f 661 516 534
f 726 534 691
f 606 596 614
f 628 606 587
f 605 628 728
f 614 587 606
f 521 687 621
f 559 615 571
f 537 528 559
f 559 528 615
f 591 528 580
f 554 610 651
f 617 618 694
f 619 618 617
f 663 549 344
f 578 545 594
f 503 690 564
f 691 578 594
f 604 724 597
f 730 516 661
f 726 661 534
f 608 726 691
f 596 516 731
f 731 614 596
f 734 587 614
f 560 593 621
f 663 344 651
f 668 580 630
f 638 639 632
f 639 638 640
f 620 642 721
f 643 642 620
f 610 650 599
f 645 622 646
f 619 649 666
f 622 654 655
f 637 659 635
f 659 637 660
f 587 734 656
f 734 614 731
f 549 663 641
f 539 549 641
f 633 665 651
f 668 591 580
f 646 636 670
f 671 612 632
f 612 671 613
f 674 646 670
f 645 674 623
f 674 645 646
f 622 651 646
f 677 678 679
f 694 681 682
f 681 683 682
f 644 626 684
f 643 620 685
f 619 617 649
f 644 627 626
f 686 617 694
f 649 617 686
f 724 689 690
f 692 678 694
f 679 678 692
f 628 587 728
f 696 639 640
f 608 725 726
f 662 731 733
f 632 612 623
f 696 651 613
f 663 664 641
f 570 539 641
f 698 702 632
f 702 698 665
f 632 702 638
f 702 633 638
f 639 671 632
f 671 639 696
f 651 696 640
f 638 633 640
f 651 622 655
f 632 641 664
f 698 664 665
f 664 663 651
f 664 698 632
f 703 636 705
f 570 641 632
f 700 654 623
f 654 700 655
f 570 632 623
f 570 623 687
f 700 611 655
f 611 651 655
f 636 660 705
f 703 705 707
f 591 668 667
f 671 696 613
f 591 615 629
f 615 528 629
f 633 651 640
f 702 665 633
f 651 611 613
f 646 651 636
f 654 645 623
f 645 654 622
f 612 700 623
f 700 612 611
f 665 664 651
f 634 710 635
f 710 634 672
f 634 711 672
f 623 714 635
f 539 570 687
f 623 688 560
f 687 623 712
f 712 621 687
f 623 674 708
f 674 670 708
f 703 701 636
f 610 636 651
f 667 615 591
f 629 528 591
f 631 615 675
f 637 705 660
f 672 666 616
f 701 714 715
f 571 615 676
f 703 704 701
f 618 681 694
f 647 681 618
f 711 666 672
f 716 627 721
f 626 627 716
f 635 710 709
f 710 616 709
f 704 707 635
f 707 704 703
f 715 708 670
f 707 637 635
f 705 637 707
f 701 715 636
f 714 704 635
f 701 704 714
f 715 670 636
f 708 714 623
f 715 714 708
f 688 623 635
f 660 666 711
f 666 660 636
f 659 634 635
f 711 634 659
f 660 711 659
f 610 666 636
f 593 521 621
f 623 560 712
f 560 621 712
f 635 718 694
f 679 692 719
f 667 625 615
f 615 631 676
f 676 631 675
f 625 675 615
f 647 648 683
f 710 672 616
f 719 718 717
f 666 677 679
f 718 692 694
f 719 692 718
f 678 686 694
f 677 686 678
f 719 717 666
f 717 709 616
f 717 616 666
f 709 718 635
f 717 718 709
f 679 719 666
f 635 694 688
f 610 648 666
f 644 648 599
f 647 618 619
f 647 619 648
f 649 686 677
f 649 677 666
f 619 666 648
f 599 648 610
f 599 650 627
f 682 620 721
f 685 620 682
f 580 564 630
f 625 667 668
f 675 673 706
f 706 676 675
f 681 647 683
f 684 642 643
f 642 716 721
f 684 716 642
f 644 599 627
f 684 643 644
f 688 694 721
f 685 682 683
f 694 682 721
f 643 685 644
f 683 648 644
f 626 716 684
f 685 683 644
f 721 627 688
f 688 627 650
f 688 650 560
f 560 650 557
f 693 689 657
f 675 625 673
f 669 706 624
f 625 668 630
f 706 571 676
f 625 630 693
f 680 691 594
f 693 690 689
f 669 680 594
f 693 630 564
f 669 594 706
f 657 689 724
f 693 657 729
f 604 720 724
f 693 564 690
f 625 693 729
f 571 706 600
f 706 594 600
f 680 669 624
f 608 691 680
f 720 657 724
f 571 600 594
f 594 545 571
f 657 604 652
f 657 720 604
f 695 604 728
f 680 624 661
f 608 680 697
f 608 697 725
f 661 726 697
f 661 697 680
f 727 657 695
f 695 657 652
f 652 604 695
f 727 695 728
f 657 727 729
f 625 729 723
f 658 729 727
f 658 727 728
f 735 624 732
f 706 673 713
f 587 658 728
f 624 735 661
f 661 735 730
f 697 726 725
f 658 587 569
f 516 730 731
f 730 733 731
f 658 569 733
f 658 733 730
f 658 653 729
f 658 735 736
f 658 730 735
f 569 587 656
f 731 662 734
f 733 569 734
f 729 653 723
f 569 656 734
f 662 733 734
f 706 732 624
f 739 706 713
f 673 625 723
f 706 739 732
f 713 673 723
f 653 658 736
f 740 653 736
f 722 732 739
f 735 738 743
f 737 738 735
f 723 699 713
f 732 737 735
f 713 740 722
f 722 739 713
f 742 722 737
f 737 732 742
f 732 722 742
f 740 699 723
f 713 699 740
f 653 740 723
f 740 737 722
f 741 740 736
f 735 743 736
f 737 740 741
f 736 743 741
f 741 743 737
f 737 743 738

