# https://github.com/mikedh/trimesh
v -0.84301943 0.37606162 -0.42371559
v -0.76895911 0.59749109 -0.29015148
v -0.74622929 0.30723569 -0.41113046
v -0.78322953 0.42581406 -0.58600217
v -0.77145892 0.48296756 -0.28120360
v -0.48050851 -0.32056656 0.11770919
v -0.69030690 -0.00919691 -0.06329801
v -0.65661508 0.58171195 -0.40392157
v -0.74334109 0.54813528 -0.51143092
v -0.69181192 0.68986404 -0.40150020
v -0.70270598 0.62166691 -0.36311588
v -0.48441851 -0.32060656 0.11757918
v -0.48050851 -0.32060656 0.11759919
v -0.54377073 0.16286840 -0.14859506
v -0.53793550 0.17510802 -0.14484346
v -0.65484130 0.44973433 -0.55547345
v -0.68438941 0.54463607 -0.64812815
v -0.70220852 0.61688346 -0.35884082
v -0.69925058 0.61300874 -0.35890904
v -0.69924408 0.60897517 -0.35504591
v -0.69925851 0.60516346 -0.35137081
v -0.69925851 0.60907340 -0.35512081
v -0.69940853 0.60907340 -0.35494080
v -0.70316851 0.61410350 -0.35494080
v -0.69925851 0.61295348 -0.35884082
v -0.69927853 0.61298347 -0.35884082
v -0.53897852 0.15985344 -0.15572082
v -0.53910851 0.15969343 -0.15572082
v -0.66806901 0.70267248 -0.39006940
v -0.66800851 0.70282340 -0.39000079
v -0.66416824 0.69881386 -0.39010280
v -0.66423851 0.69891346 -0.39009082
v -0.68206733 -0.20736361 0.10196067
v -0.53436643 0.16163968 -0.15891518
v -0.52496552 -0.30092531 0.11603023
v -0.38311380 -0.30788344 0.10724696
v -0.47660851 -0.32057655 0.11770919
v -0.47660851 -0.32060656 0.11761918
v -0.47269851 -0.32057655 0.11770919
v -0.62125856 0.57782334 -0.70650065
v -0.59755856 0.14554197 -0.11389244
v -0.53583854 0.16376343 -0.15572082
v -0.67191851 0.70673347 -0.38995081
v -0.66410851 0.69891346 -0.39005080
v -0.66019851 0.69891346 -0.38879082
v -0.63327056 0.75563413 -0.36784592
v -0.50919402 0.19625591 -0.15874568
v -0.54806316 0.14889264 -0.20987073
v -0.53927284 0.15935212 -0.15582651
v -0.53910851 0.15985344 -0.15559082
v -0.62123811 0.57409215 -0.70257771
v -0.62113851 0.57402349 -0.70259082
v -0.62100202 0.57388687 -0.70257288
v -0.68197292 0.66479069 -0.17110419
v -0.55282253 0.12285900 -0.16997769
v -0.61722851 0.57001346 -0.70210081
v -0.62113851 0.57772344 -0.70650083
v -0.61722851 0.57782340 -0.70986086
v -0.67858666 0.58323520 -0.24516454
v -0.58795828 0.57345504 -0.72971582
v -0.66684121 0.66219705 -0.44476962
v -0.56585771 0.70331621 -0.34426159
v -0.54288852 0.15985344 -0.15181082
v -0.54304659 0.15974942 -0.15172568
v -0.53824365 0.75917035 -0.42995462
v -0.62305075 0.73925793 -0.16473044
v -0.51965594 0.72237408 -0.21444289
v -0.51957852 0.72242349 -0.21431082
v -0.40629852 -0.52763659 -0.21034081
v -0.51112086 0.62474370 -0.44561994
v -0.48187038 0.13216992 -0.08194129
v -0.50394851 0.70673347 -0.41332081
v -0.50782490 0.70682466 -0.40961039
v -0.51225698 0.70708972 -0.40542495
v -0.51173186 0.70659465 -0.40573701
v -0.50777912 0.70672417 -0.40961710
v -0.50785851 0.70673347 -0.40954080
v -0.51382852 0.72626346 -0.21041082
v -0.51958853 0.72235346 -0.21041082
v -0.48311880 -0.32181957 0.11381361
v -0.48441851 0.71845347 -0.38575080
v -0.48441851 0.71844345 -0.38619080
v -0.48442852 0.71845347 -0.38619080
v -0.55325264 0.21373633 -0.09622805
v -0.30048034 0.11303095 -0.18658085
v -0.28910851 0.28485343 -0.38368079
v -0.28519851 0.28495345 -0.38619080
v -0.58265144 0.63436019 -0.81402677
v -0.41606551 0.41023380 -0.12158311
v -0.56133705 0.70440757 -0.17619759
v -0.51175851 0.70673347 -0.40576082
v -0.51527315 0.69520766 -0.39811701
v -0.25394851 0.13641344 0.19595918
v -0.48447731 0.71842897 -0.39419031
v -0.51957852 0.72236341 -0.21041082
v -0.48876101 0.72026449 -0.38635129
v -0.47960114 0.71649122 -0.38377595
v -0.47209275 -0.32060334 0.11765432
v -0.41019103 0.73949814 -0.38258722
v -0.36332852 0.02704344 0.44580916
v -0.41019851 -0.52762651 -0.21041082
v -0.40629852 -0.52751654 -0.21041082
v -0.41019914 -0.52762961 -0.21040680
v -0.40238851 -0.52763659 -0.21028082
v -0.41615042 -0.12136135 -0.20249081
v -0.40154383 0.21457227 -0.20637628
v -0.38593122 -0.50679278 -0.21546897
v -0.45603359 0.70269239 -0.39604843
v -0.42984012 0.72619045 -0.39410856
v -0.42972851 0.72626346 -0.39397082
v -0.48441851 0.71842349 -0.39009082
v -0.48447850 0.71845347 -0.39009082
v -0.48452851 0.71845347 -0.39400080
v -0.50518388 0.73410523 -0.29686186
v -0.44838399 0.79553229 -0.27528724
v -0.46566957 -0.50725180 -0.19886886
v -0.55654585 0.77093726 -0.07594725
v -0.42588273 0.73025060 -0.39400092
v -0.42582852 0.73016346 -0.39383081
v -0.42972851 0.72629344 -0.39400080
v -0.54619324 0.84886336 -0.31668532
v -0.48664925 -0.31903285 0.12145721
v -0.31321478 -0.19300503 -0.19087520
v -0.35942492 -0.00010748 -0.51123029
v -0.41019851 -0.52372652 -0.21213081
v -0.33465028 -0.06905938 -0.00244527
v -0.57192892 0.29311019 -0.00185460
v -0.39830333 0.33347255 -0.31210843
v -0.64266598 0.60830873 -0.72676635
v -0.42191851 0.73404348 -0.39400080
v -0.37530127 -0.54798919 -0.19284710
v -0.36340997 0.03881146 0.43429840
v -0.36332852 0.03489344 0.43801916
v -0.35919887 0.11906914 -0.05411699
v -0.32816851 -0.29433656 0.10989918
v -0.32425851 -0.29430658 0.10598918
v -0.34437072 0.14588095 -0.59350866
v -0.36331853 0.03095344 0.44192919
v -0.34835353 -0.09570166 0.07161242
v -0.36332852 0.03095344 0.44192919
v -0.36330852 0.03485344 0.43801916
v -0.36332852 0.03485344 0.43805918
v -0.36332852 0.00360344 -0.51723081
v -0.06118298 -0.52884758 -0.01306570
v -0.36162549 0.38440862 -0.37198710
v -0.28129852 0.28759342 -0.38619080
v -0.42369807 0.72615463 -0.39007619
v -0.40321541 0.75487566 -0.38014683
v -0.40031019 0.85854453 -0.51982450
v -0.37802041 0.75925040 -0.43298873
v -0.28525856 -0.30493864 0.14109062
v -0.28538853 -0.30497655 0.14114918
v -0.34887907 -0.29532757 0.10242003
v -0.28926295 -0.30925864 0.14111215
v -0.33586851 -0.29325655 0.12161918
v -0.33598676 -0.29328638 0.12162845
v -0.44135332 -0.29773152 0.17896383
v -0.24889408 -0.25029001 0.09307139
v -0.37635541 -0.21829794 -0.33184049
v -0.32824939 -0.29326376 0.11392967
v -0.32425678 -0.29325688 0.10990758
v -0.39366981 -0.03903429 -0.50332326
v -0.36334869 -0.00029658 -0.51509106
v -0.36332852 -0.00024656 -0.51509082
v -0.35941073 -0.00810621 -0.50677437
v -0.36751851 0.03876344 0.44192919
v -0.36804175 0.14386921 0.41972670
v -0.28519851 0.28485343 -0.38629082
v -0.28525853 0.28095344 -0.39009082
v -0.28513509 0.28108796 -0.39003918
v -0.49496996 0.51408231 -0.76053280
v -0.33207852 -0.29221657 0.12161918
v -0.33207852 -0.29327655 0.11770919
v -0.32816851 -0.29327655 0.11379918
v -0.33199853 -0.29325655 0.11770919
v -0.32425851 -0.29326656 0.10989918
v -0.32812852 -0.29325655 0.11379918
v -0.32616359 0.01524532 0.38805926
v -0.35948852 -0.00029656 -0.51119083
v -0.35946253 -0.00031575 -0.51114833
v -0.35824546 -0.01175429 0.04970237
v -0.36326852 0.04266344 0.43020919
v -0.28803554 -0.25917882 0.13810836
v -0.36328852 0.03876344 0.43411919
v -0.35906851 0.03485344 0.43020919
v -0.36692041 0.02481687 0.45613721
v -0.28910851 -0.16825657 -0.18842082
v -0.35941851 0.32778344 -0.35103080
v -0.35550851 0.32713345 -0.35494080
v -0.35951853 0.32391343 -0.34713081
v -0.35941851 0.32001343 -0.34341082
v -0.35937673 0.32366306 -0.34703776
v -0.35944852 0.32782343 -0.35103080
v -0.35941851 0.32391343 -0.34724081
v -0.30161923 0.27231991 -0.39329913
v -0.35941851 0.32782343 -0.35107079
v -0.36274850 0.33173344 -0.35103080
v -0.35755247 0.50150478 -0.33638376
v -0.30012187 0.31406280 -0.34540382
v -0.37317887 0.64921457 -0.98144072
v -0.31165642 0.76360017 -0.29859990
v -0.33207852 -0.29325655 0.11778918
v -0.28519851 -0.30107656 0.14328918
v -0.24514116 -0.15804107 -0.20272055
v -0.28783664 -0.30114397 0.14492849
v -0.33243883 -0.27975145 0.17655528
v -0.28897852 -0.30888656 0.14114918
v -0.23302622 -0.10561052 0.00148035
v -0.28519851 -0.15654656 -0.18553083
v -0.28521851 -0.16044657 -0.18697082
v -0.30448633 -0.08624000 0.01211358
v -0.30863851 -0.08764656 0.02004918
v -0.30859852 -0.08622656 0.01614918
v -0.30261126 -0.30865350 -0.07318246
v -0.30863851 -0.08622656 0.01617918
v -0.31254852 -0.08622656 0.02004918
v -0.30863851 -0.08621656 0.01614918
v -0.30472851 -0.08622656 0.01230918
v -0.30472851 -0.08620656 0.01223918
v -0.30082852 -0.08622656 0.00844918
v -0.27975917 -0.31464159 0.01367695
v -0.33119294 -0.05963406 -0.13322321
v -0.28517184 0.27703694 -0.39400503
v -0.28519851 0.27704343 -0.39398080
v -0.28910851 0.27704343 -0.39138082
v -0.39858916 0.10425895 0.44370410
v -0.32339701 0.28138757 -0.34381869
v -0.25391853 0.13251343 0.19973917
v -0.28519851 0.28095344 -0.39013082
v -0.28199732 0.27305394 -0.40007183
v -0.29612800 0.20961626 -0.44052303
v -0.22573031 0.71611333 -0.32145128
v -0.28129852 -0.15654656 -0.18698081
v -0.28910851 -0.30888656 0.14122920
v -0.28519851 -0.16044657 -0.18698081
v -0.28910851 -0.16435656 -0.18697082
v -0.28519851 -0.16042656 -0.18697082
v -0.28911853 -0.16435656 -0.18697082
v -0.28132853 -0.15654656 -0.18697082
v -0.33138114 -0.10073237 0.03944581
v -0.25394851 -0.05505656 0.39895919
v -0.29214093 -0.07854154 0.24392048
v -0.25782311 -0.05496838 0.39504555
v -0.25780851 -0.05497656 0.39504918
v -0.25394851 -0.05888656 0.39350921
v -0.08408402 -0.00533244 -0.17159554
v -0.25426462 -0.07683954 0.37047511
v -0.33587688 0.05981735 -0.52400452
v -0.26120418 0.07371747 0.20047873
v -0.28534850 0.28485343 -0.38619080
v -0.24308884 -0.08163535 0.42642492
v -0.25780576 0.27862465 -0.45054621
v -0.25203443 -0.35481149 0.09617335
v -0.13566829 -0.62043464 -0.09177422
v -0.19402848 -0.21341041 0.12804244
v -0.19374318 -0.20354676 0.32958648
v -0.29291958 -0.15108816 -0.18064360
v -0.25782895 -0.05494293 0.39507255
v -0.26154852 -0.05497656 0.39114919
v -0.25405851 -0.05497656 0.39895919
v -0.25373861 -0.05484419 0.39949366
v -0.25592360 0.12438873 0.20313431
v -0.17568196 -0.57742661 0.12535103
v -0.25383851 0.12860344 0.20364918
v -0.25395530 0.13245593 0.19972187
v -0.23722987 0.04128643 -0.50806344
v -0.25394851 0.13245344 0.19973917
v -0.25394851 0.12860344 0.20339918
v -0.24984099 0.15053970 0.15775347
v -0.30324745 0.23107570 -0.08544347
v -0.30146888 0.76841778 -0.53930146
v -0.27232152 0.86989498 -0.48850366
v -0.19782607 -0.48010850 0.02176181
v -0.12615910 -0.40855187 -0.33384436
v -0.21675023 -0.37749809 -0.12505284
v -0.23130269 0.06774298 -0.22651912
v -0.19107385 -0.15570712 0.28874174
v -0.24416518 -0.08548139 0.36602589
v -0.21261951 0.01585929 0.25564262
v -0.26690435 0.36645406 -0.27904466
v -0.18722774 0.29870397 -0.15835121
v -0.15816918 0.79166085 -0.81016886
v -0.13101056 -0.25882921 -0.09647460
v -0.20211713 -0.19155714 0.01218005
v -0.18578377 -0.33666742 0.03348479
v -0.16299765 -0.31776956 0.31826308
v -0.16006917 -0.21138021 0.09036225
v -0.20152307 -0.14752080 -0.41239616
v -0.16410851 -0.21122657 0.08630918
v -0.16410851 -0.21114656 0.08645919
v -0.16019852 -0.21122657 0.08645919
v -0.16019852 -0.21122657 0.08657918
v -0.15238851 -0.30888656 0.00937918
v -0.15222952 -0.30498055 0.00450352
v -0.12738596 -0.30950981 0.48300502
v -0.14847852 -0.30106658 0.00051918
v -0.16800854 -0.21122657 0.08618918
v -0.11539785 -0.17230956 0.33161440
v -0.10058438 -0.31639269 -0.49697432
v -0.16009563 -0.21122582 0.08645632
v -0.15251853 -0.30497655 0.00442918
v -0.14929545 -0.12497204 0.02515383
v -0.21882457 -0.02333964 -0.07656197
v -0.29052007 0.20534723 -0.21276040
v -0.23266856 0.13554546 0.24441172
v -0.13132453 -0.01470662 -0.42405131
v -0.22505739 0.25081682 0.06496388
v -0.15238851 -0.29900655 -0.00338082
v -0.15238851 -0.30494657 0.00442918
v -0.17802621 -0.37829521 0.08455268
v -0.14847954 -0.30107698 0.00052878
v -0.10941853 -0.30497655 -0.49470082
v -0.15238851 -0.30189657 0.00051918
v -0.15444621 -0.21205485 0.08365853
v -0.10550853 -0.30497655 -0.49171081
v -0.10550301 -0.30492029 -0.49165902
v -0.10160852 -0.30868655 -0.49166083
v -0.10144869 -0.30893120 -0.49172494
v -0.10140324 -0.30882064 -0.49161085
v -0.18493696 -0.21601745 0.15157835
v -0.07436853 -0.59794652 0.12551919
v -0.10541397 -0.30995008 -0.49559909
v -0.06014879 -0.12223350 -0.27692664
v -0.15660480 -0.02280874 -0.01354642
v -0.07007975 0.01643337 0.18928660
v -0.07035852 0.06220344 0.23763917
v -0.11571558 0.19491836 0.03676429
v -0.23847671 0.16306780 0.26537445
v 0.12516050 -0.29823452 -0.55310541
v -0.06490569 -0.59909368 0.13419054
v -0.07816853 -0.59801662 0.12161918
v -0.06279180 -0.41241732 -0.32329601
v -0.08705107 -0.59526128 0.11587515
v -0.08207852 -0.59780651 0.11770919
v -0.08194853 -0.59794652 0.11770919
v -0.07816853 -0.59794652 0.12159919
v -0.07815523 -0.59794354 0.12161258
v -0.10617094 -0.29944348 0.00717256
v -0.13939054 -0.28546467 -0.50974280
v -0.11247599 -0.33031467 -0.34991002
v -0.20722030 -0.27790341 -0.06400093
v -0.04721655 -0.42822251 -0.15268260
v -0.12726244 -0.18495926 0.23354952
v -0.08211264 -0.59799105 0.11751646
v -0.11243720 -0.05870226 0.39435858
v -0.10577034 -0.32830924 -0.50830728
v -0.05626295 0.05144010 -0.14227049
v -0.10248172 -0.20420142 0.08820797
v -0.07427430 0.05824360 0.23491120
v -0.07035852 0.05817344 0.23489918
v -0.07030841 0.05818896 0.23486622
v -0.12793550 -0.58472246 0.06141075
v -0.11497652 0.07197399 0.24345101
v -0.07816853 0.06220344 0.23784918
v -0.07035852 0.05829344 0.23501918
v -0.06632544 -0.12357292 0.11976918
v 0.03883953 -0.23831216 -0.18407060
v 0.01818829 0.05674154 0.58545631
v -0.07425853 0.05829344 0.23495919
v -0.06255701 0.04656029 -0.14354953
v -0.06644853 0.03419344 -0.15181082
v 0.07617926 0.31803301 0.21773131
v 0.01438397 -0.43126139 -0.09808429
v -0.03005207 -0.50382566 -0.09183675
v 0.01165318 -0.44170049 -0.09713773
v 0.01166147 -0.43779656 -0.09716082
v 0.01166147 -0.43668658 -0.09713082
v 0.01160147 -0.43779656 -0.09713082
v -0.02890454 -0.27640891 0.12465507
v -0.06635795 0.03887494 -0.14773875
v 0.20347621 0.05802863 -0.54937834
v -0.01850473 -0.13880754 0.06461263
v -0.04250812 -0.42677650 -0.40896696
v 0.03206917 -0.03072544 -0.15525761
v -0.06254853 0.04605344 -0.14400081
v -0.06644853 0.03876344 -0.14778082
v -0.06656029 0.03859730 -0.14785811
v 0.00404370 0.19496691 0.34043354
v -0.07207593 0.10730134 -0.09745464
v 0.01161147 0.28095344 0.05911918
v 0.00776147 0.28096345 0.05520918
v -0.00004853 0.19110344 0.33549920
v -0.09135091 0.33068231 -0.07155473
v -0.05967106 0.27385533 0.04031451
v 0.01166147 0.28096345 0.05911918
v 0.15273531 0.44254595 -0.40382323
v -0.06887493 -0.61205631 0.15824570
v 0.01557147 -0.44169655 -0.09478081
v 0.01169147 -0.44169655 -0.09713082
v 0.01166147 -0.44169655 -0.09713082
v -0.05408932 -0.32615030 0.23506026
v -0.01051130 -0.21162800 0.27584487
v -0.01778379 -0.28302607 -0.09115938
v 0.10370951 -0.24498351 -0.61922014
v -0.08006530 0.03377820 -0.10937489
v -0.05493928 0.06947704 0.23269056
v -0.06504104 -0.12490252 0.23366334
v 0.05555301 -0.01417266 0.25313073
v 0.02729025 0.09345310 0.30124998
v 0.01948147 0.09345344 0.30892918
v 0.02322632 0.09343334 0.30520514
v 0.00323970 0.24693531 0.13924311
v -0.00030853 0.19501343 0.34036919
v -0.02854714 0.20508391 0.36030558
v 0.03118331 0.19890514 -0.08148182
v 0.03120147 0.19891344 -0.08148082
v 0.02533056 0.20496280 -0.08143088
v -0.00004853 0.19501343 0.34036919
v 0.00077277 0.26159808 0.11051159
v -0.00004853 0.19500344 0.34036919
v 0.00385147 0.19491343 0.34036919
v 0.00072029 0.19778897 0.34385711
v 0.03256738 0.23772492 -0.10151632
v 0.00385147 0.28097343 0.05129918
v 0.01557147 0.28095344 0.06305918
v 0.01557147 0.27976343 0.06692918
v 0.01943147 0.28095344 0.06692918
v 0.03265917 0.29602525 0.02858390
v 0.01166147 0.28485343 0.04649918
v 0.00711111 0.28340718 0.04667020
v 0.01553147 0.28095344 0.06301918
v 0.01263214 -0.60351223 0.25586241
v 0.11633682 -0.79644692 0.55183071
v 0.07330863 -0.51015252 0.30066055
v 0.04766721 -0.40130341 -0.06231006
v 0.00921422 -0.43567538 -0.09324633
v 0.11806025 -0.48137590 -0.00358251
v 0.03525434 0.01235164 0.17821267
v 0.02338147 0.09345344 0.30506921
v 0.02729147 0.09347344 0.30129918
v 0.02338147 0.09352344 0.30520919
v 0.14609440 -0.88618815 0.62524652
v 0.03510147 0.07771344 0.56301916
v -0.04749256 0.19809364 0.29182661
v 0.00834201 0.10890678 0.54491240
v 0.04287953 0.06998483 0.56317961
v 0.03901147 0.07391344 0.56292915
v 0.03897575 0.07390104 0.56301570
v 0.06728466 0.04772757 0.55179781
v 0.01955909 0.28095561 0.06703705
v 0.01305298 0.10233402 0.34715188
v 0.01828898 0.16901724 -0.07939754
v 0.01213819 0.20330565 -0.07868606
v 0.02729147 0.20282343 -0.08138082
v 0.00283147 0.27704343 0.06301918
v 0.01166147 0.28095344 0.05916918
v 0.01825828 0.23468713 -0.01141943
v 0.03510147 0.19891344 -0.08392082
v 0.00776249 0.28095451 0.05526592
v 0.01557147 0.28096345 0.06301918
v 0.06469005 -0.74436098 0.04904545
v 0.12100191 -0.39921749 0.38176802
v 0.12660666 -0.34974214 0.04394719
v -0.01925242 -0.14284404 0.15595566
v 0.07822886 -0.09893274 0.57344109
v 0.32024148 -0.73466653 0.69582915
v 0.32019076 -0.73081446 0.69191813
v 0.12710732 0.04174875 0.27482948
v 0.02141812 0.04851921 0.23395699
v 0.13787441 0.07812734 -0.40932065
v 0.02811727 0.08755981 0.28971982
v 0.04291147 0.07001344 0.56301916
v 0.04414872 0.18422893 0.32807192
v 0.06325100 0.05289105 -0.35316217
v 0.04685608 0.06612076 0.56304765
v 0.04304630 0.07008679 0.56292814
v 0.02792262 0.09380078 0.30123863
v 0.09030122 0.13049477 0.31314278
v 0.07591658 0.15808547 -0.07181461
v 0.02749147 0.20282343 -0.08150082
v 0.03121740 0.19891515 -0.08149673
v -0.12647964 0.35501054 -0.58544594
v 0.04079931 -0.31735930 -0.44451666
v 0.10541126 -0.34793988 0.10991988
v 0.10545376 -0.34793526 0.10984672
v 0.10668523 -0.34927958 0.11022300
v 0.10540458 -0.34397364 0.10206580
v 0.10541148 -0.34404656 0.10219919
v 0.09912794 -0.35012782 0.11583754
v -0.09720509 -0.29953089 -0.46020335
v 0.05500795 -0.30213478 0.05949871
v 0.17206556 0.00141460 0.15092924
v 0.05661829 -0.27706483 -0.05178216
v 0.05160185 -0.04439251 0.36388958
v 0.18754169 -0.01474128 0.29720998
v 0.21252073 0.21301264 -0.58320838
v 0.03526495 0.06359497 0.40254572
v 0.04757607 0.14496547 -0.39515617
v 0.14069362 0.18060294 0.15059558
v 0.09148013 0.27808928 0.11668449
v 0.20661281 0.21813424 -0.56568551
v 0.13379766 0.21334356 -0.50345457
v 0.11180486 -0.43357080 -0.30558982
v 0.14706761 -0.66915160 -0.13498729
v 0.07675153 -0.43999854 0.42245966
v 0.16663775 -0.48625779 -0.34647059
v 0.10541768 -0.34402061 0.10213467
v 0.11506829 -0.35581523 0.10715207
v 0.15972951 -0.75479680 0.67580724
v 0.11323147 -0.35028657 0.10207919
v -0.02218891 -0.10284697 -0.58119029
v 0.23004635 -0.34176323 0.30260438
v 0.11038373 -0.05070702 0.04304351
v 0.16400455 -0.71503639 0.76630104
v 0.23829681 0.23811153 -0.59703344
v 0.02257595 0.26443824 0.32294163
v 0.17084993 0.19393183 0.36557049
v 0.14428294 0.20515016 0.36359507
v 0.14328036 -0.45525110 0.41214931
v 0.17902204 -0.19738930 -0.08720236
v 0.14700204 -0.28337520 0.37326357
v 0.18464121 -0.12408780 0.14663941
v 0.17571045 -0.07068812 0.32473138
v 0.17573147 -0.07060656 0.32470921
v 0.17963149 -0.07041656 0.32082918
v 0.17636149 -0.07060656 0.32864919
v 0.24604148 0.23798344 -0.60494083
v 0.15638717 0.21577919 0.29564139
v 0.21088149 0.22031343 -0.56588084
v 0.21088149 0.21845344 -0.56952083
v 0.21113148 0.21845344 -0.56978083
v 0.05962100 0.19035392 -0.24524722
v 0.16791250 0.20673192 0.11775879
v 0.16798148 0.20673344 0.11770919
v 0.17176910 0.19897693 0.35212219
v 0.17878811 0.23261914 -0.51446468
v 0.21483351 0.21845689 -0.57361728
v 0.17573147 0.19891344 0.11771918
v 0.17182228 0.20286240 0.11770938
v 0.17182148 0.20282343 0.11773918
v 0.16299993 0.20091668 0.35599875
v 0.20738149 0.21845344 -0.56588084
v 0.22856401 -0.48984903 -0.12665112
v 0.17518799 -0.43584934 0.25006461
v 0.17309669 -0.21439807 0.01691169
v 0.22270003 -0.31242275 0.35984921
v 0.20525640 -0.34624660 -0.20337380
v 0.20155488 -0.12787023 0.35264269
v 0.13480625 -0.27382967 -0.31743824
v 0.20099051 -0.32694528 0.39685452
v 0.15760057 -0.06239158 -0.44360030
v 0.13911808 -0.12382764 -0.38333341
v 0.23038124 -0.24396428 -0.39817119
v 0.32026148 -0.73085660 0.69192916
v 0.18424512 -0.07040820 0.32102647
v 0.17571467 -0.07059970 0.32473797
v 0.17963149 -0.07060656 0.32094920
v 0.17573147 0.19891344 0.34843919
v 0.17182148 0.20859344 0.11379918
v 0.21498278 0.22885327 -0.55331689
v 0.16753221 0.19879626 0.35656235
v 0.16791148 0.19893344 0.35598919
v 0.17215540 0.19886650 0.35200676
v 0.17182148 0.19891344 0.35222921
v 0.16794147 0.19891344 0.35598919
v 0.21479148 0.21839343 -0.57369083
v 0.23834205 0.23375612 -0.60091847
v 0.24213149 0.23407343 -0.60437083
v 0.23483147 0.23407343 -0.59713084
v 0.15833591 0.38632613 -0.27985683
v 0.23201926 -0.56654698 -0.21132864
v 0.26249969 -0.46686119 -0.05472822
v 0.23733364 -0.29864874 0.33703202
v 0.23040517 -0.30110466 0.35204193
v 0.23041148 -0.30470657 0.34817919
v 0.23030148 -0.30497655 0.34817919
v 0.24586815 -0.25811616 0.36262575
v 0.23040149 -0.30107656 0.35207918
v 0.23036981 -0.30105695 0.35218307
v 0.16155995 -0.17675427 -0.51218688
v 0.24467655 -0.14736240 0.49018723
v 0.23040774 -0.30105212 0.35207891
v 0.22308014 -0.31633598 0.35467756
v 0.23033854 -0.30541781 0.34760579
v 0.23024949 -0.17823936 0.19142279
v 0.15548950 -0.10907935 -0.09560655
v 0.34473595 -0.02381980 -0.00713015
v 0.24607755 0.10443446 0.04523996
v 0.17432967 0.21568635 0.10714391
v 0.18273185 0.18505947 0.36960191
v 0.21088149 0.21831344 -0.56978083
v 0.24213149 0.23798344 -0.60101086
v 0.23823147 0.23794344 -0.59713084
v 0.23872148 0.23407343 -0.60103083
v 0.24213149 0.24188344 -0.59757084
v 0.24215148 0.23798344 -0.60103083
v 0.24213149 0.23796344 -0.60103083
v 0.19964182 -0.56421643 0.88899267
v 0.32022378 -0.73480964 0.69600427
v 0.30073148 -0.32842657 0.89114916
v 0.29880148 -0.32841656 0.89504915
v 0.23151687 -0.28606164 0.36517277
v 0.29776138 -0.37375069 0.85054791
v 0.30854148 -0.32850656 0.88332915
v 0.26248932 -0.44338137 -0.15567844
v 0.30073148 -0.23854657 0.10989918
v 0.30073148 -0.23856656 0.11379918
v 0.29291147 -0.23522656 0.12551919
v 0.28901148 -0.23353656 0.11770919
v 0.25228435 -0.04081606 -0.62053394
v 0.30074149 -0.32841656 0.89114916
v 0.30077958 -0.32839495 0.89118296
v 0.32442975 -0.73365754 0.68763441
v 0.27987924 0.02243311 -0.31469721
v 0.30048215 0.08196429 0.38846612
v 0.23826148 0.23798344 -0.59713084
v 0.25167978 0.25352925 -0.59689784
v 0.28964949 -0.75014061 0.55956703
v 0.32802150 -0.25029656 0.12551919
v 0.32803148 -0.25029656 0.12161918
v 0.32807148 -0.25031656 0.12551919
v 0.32807148 -0.25030658 0.12161918
v 0.30470148 -0.32841656 0.88723916
v 0.30079147 -0.23857656 0.10989918
v 0.30075148 -0.23857656 0.11379918
v 0.28851178 -0.05122746 0.45567349
v 0.31051299 -0.24276605 0.11758488
v 0.24559803 0.05209077 0.24243201
v 0.26576662 -0.01173656 0.01044138
v 0.19884512 0.29310787 0.33918932
v 0.30576441 -0.13528760 -0.64319265
v 0.36713147 0.18720344 -0.22602081
v 0.18874194 -0.65066153 0.83905971
v 0.32388148 -0.73466653 0.69192916
v 0.32026148 -0.73466653 0.69581914
v 0.28622130 -0.66993386 0.69003481
v 0.31990805 -0.73048836 0.69165748
v 0.33238712 -0.29412073 -0.04977075
v 0.24453960 -0.47851875 -0.00095937
v 0.30463147 -0.32846656 0.88723916
v 0.27564573 -0.34511626 0.91809618
v 0.26393673 -0.22248462 0.10293003
v 0.30082148 -0.23857656 0.10598918
v 0.21940973 -0.29016954 0.20129330
v 0.30073148 -0.23856656 0.11770919
v 0.30073148 -0.23857544 0.11770920
v 0.32806149 -0.25029656 0.11770919
v 0.32807148 -0.25029656 0.11770919
v 0.32801148 -0.25029656 0.12942918
v 0.32807148 -0.25031656 0.13332918
v 0.32800147 -0.25029656 0.13332918
v 0.37166139 0.16442172 -0.23766552
v 0.32175320 0.15787448 0.43085614
v 0.31209624 0.16573255 -0.01019070
v 0.32957655 -0.34550041 0.98645753
v 0.25469553 0.20341486 -0.63570857
v 0.30468640 0.24559361 -0.58978176
v 0.30095589 0.22624271 -0.30981725
v 0.32807148 -0.25032657 0.13723917
v 0.31089383 -0.24175689 0.16199635
v 0.41788346 -0.46797347 0.81235558
v 0.32807148 -0.25031656 0.12942918
v 0.34621087 -0.30608639 0.91576421
v 0.31685251 -0.24549331 0.11879383
v 0.32807148 -0.25029656 0.11709918
v 0.28473461 -0.22644894 0.08975319
v 0.32785934 -0.08890020 0.15072116
v 0.33597884 -0.01125100 0.40440154
v 0.37572488 -0.10705798 0.04206432
v 0.40614387 0.01109092 0.19390027
v 0.36972037 0.08805488 -0.02380917
v 0.36672989 0.18680198 -0.22647935
v 0.35746369 0.18713640 -0.69671077
v 0.36713147 0.19501343 -0.22161081
v 0.26640108 0.19507797 -0.26718763
v 0.35129789 -0.75793844 0.71183091
v 0.40460002 -0.73284101 0.64412427
v 0.33346659 -0.84450477 0.56872684
v 0.29196274 -0.43309879 0.93493819
v 0.32904541 0.06673563 0.32653660
v 0.33862397 -0.25483578 0.11626400
v 0.37304536 -0.26895678 0.11672099
v 0.34273747 -0.20674977 -0.47791544
v 0.37837186 -0.63972533 0.76176620
v 0.44748545 -0.26782557 -0.06372915
v 0.38776171 0.06489819 -0.66925830
v 0.50068337 0.04585728 0.21153831
v 0.34979764 0.04610436 0.10838702
v 0.37104148 0.19110344 -0.22206081
v 0.37495148 0.18787344 -0.22213082
v 0.37104148 0.19098344 -0.22213082
v 0.37089148 0.19110344 -0.22213082
v 0.35482216 -0.64991617 0.57904357
v 0.40368772 -0.71500635 0.48712790
v 0.27864435 -0.47447744 0.88070893
v 0.46492028 -0.52351171 0.77230734
v 0.41692168 -0.60952628 0.83407760
v 0.38033363 -0.25092775 0.02723657
v 0.48393691 -0.60480607 0.70927250
v 0.36175549 -0.08640096 -0.12240998
v 0.46728590 -0.26169515 -0.15720080
v 0.39225188 -0.16257639 0.17715703
v 0.42129388 -0.51107538 0.64679611
v 0.49230775 -0.26592037 -0.16743495
v 0.49213147 -0.26598656 -0.16744082
v 0.49213147 -0.26981658 -0.17134082
v 0.47260147 0.03092344 0.21536918
v 0.46894148 0.03095344 0.21145917
v 0.49210930 -0.26982275 -0.17133424
v 0.47307813 0.03089456 0.21591479
v 0.47417566 0.03102898 0.21675429
v 0.42680162 0.17814618 0.18618399
v 0.39977795 -0.48718199 0.78673929
v 0.50249588 -0.39499402 0.87668043
v 0.49118149 -0.27372655 -0.17525081
v 0.49791625 -0.21967530 0.70659250
v 0.49213231 -0.26982102 -0.17134631
v 0.49897903 -0.27701855 -0.18558425
v 0.55205441 -0.00489178 -0.11788312
v 0.46555424 -0.21830750 -0.11494803
v 0.46175382 0.01937301 0.23188820
v 0.47262636 0.03095294 0.21534500
v 0.46867669 0.03091448 0.21126541
v 0.46913600 0.03230366 0.20841372
v 0.37228513 -0.80467188 0.65664178
v 0.48823148 -0.26591656 -0.16585080
v 0.48947138 -0.36654270 0.70890677
v 0.45967460 -0.05231005 0.49287531
v 0.48289433 -0.18160385 0.60197127
v 0.53877527 -0.21852000 -0.10722678
v 0.54291147 -0.14872657 -0.08941082
v 0.54291147 -0.14482656 -0.08938082
v 0.54289150 -0.14482656 -0.08931081
v 0.54288149 -0.14872657 -0.08931081
v 0.48830232 0.09874043 0.05550175
v 0.47325438 0.01527416 0.27927086
v 0.43113527 0.20368338 -0.18760951
v 0.52914071 0.21331428 -0.04184267
v 0.56228489 0.09303041 -0.16229998
v 0.42959422 -0.27878717 0.62391257
v 0.53815150 -0.13310656 -0.07759082
v 0.54291147 -0.14091656 -0.08935082
v 0.54529631 -0.13736406 -0.09515648
v 0.54291147 -0.13700657 -0.08932082
v 0.52509499 -0.07035223 -0.03947649
v 0.54286659 -0.15385737 -0.08933037
v 0.54291147 -0.13700657 -0.08931081
v 0.54291147 -0.13656656 -0.08931081
v 0.51940989 0.18036669 -0.23235793
v 0.59842896 -0.20562720 -0.31225744
v 0.57808453 -0.36094558 0.66820854
v 0.57440472 -0.40591773 0.74389941
v 0.54134500 -0.15501621 -0.08562629
v 0.63727838 -0.77185607 0.47208333
v 0.54291147 -0.15263656 -0.08944082
v 0.54290146 -0.14091656 -0.08931081
v 0.63996482 -0.37874556 0.53896761
v 0.64144850 -0.29047287 0.57423198
v 0.72173220 -0.50607872 0.34918389
v 0.63665372 -0.29708976 0.59813136
v 0.64053148 -0.29325655 0.60207915
v 0.64056653 -0.29320058 0.60204345
v 0.63666147 -0.29716656 0.59835917
v 0.63666147 -0.29709655 0.59817916
v 0.71444571 -0.58853906 0.49180707
v 0.72849464 -0.55888611 0.49249056
v 0.73031974 -0.55483496 0.49272460
v 0.64448148 -0.28788656 0.60207915
v 0.64056540 -0.29325026 0.60219479
v 0.63374150 -0.30107656 0.59817916
v 0.74381554 -0.64784241 0.21318761
v 0.72513926 -0.52506030 0.52900797
v 0.73053700 -0.56543827 0.48281527
v 0.72859150 -0.56279653 0.48879918
v 0.63268876 -0.30692309 0.60531443
v 0.65691042 -0.11694894 -0.22429767
v 0.73422486 -0.55103600 0.48886490
v 0.73432148 -0.55107653 0.48865920
v 0.77609408 -0.49172279 0.46174604
v 0.73041147 -0.56279653 0.48540920
v 0.73236150 -0.55497652 0.48879918
v 0.73041147 -0.55900651 0.48879918
v 0.73047149 -0.55888659 0.48879918
v 0.73637038 -0.55100834 0.48490775
v 0.73432148 -0.55497652 0.48514920
v 0.72189569 -0.44756117 0.61162198
v 0.66342866 -0.29468501 0.63837564
v 0.74153870 -0.56500006 0.46274242
v 0.73041147 -0.55465651 0.49270919
v 0.78901345 -0.69648594 0.28645954
v 0.83628595 -0.39042819 0.34266654
f 2 9 5
f 1 4 3
f 9 4 1
f 4 9 17
f 9 2 61
f 12 80 13
f 16 3 4
f 1 3 9
f 5 9 8
f 20 21 8
f 24 11 2
f 8 61 11
f 24 23 25
f 21 2 8
f 26 24 25
f 19 11 18
f 21 23 2
f 20 23 21
f 22 23 20
f 24 2 23
f 8 2 5
f 22 20 25
f 26 19 18
f 24 26 18
f 23 26 25
f 26 22 25
f 26 23 22
f 11 24 18
f 19 26 25
f 19 20 8
f 19 8 11
f 61 2 11
f 25 20 19
f 49 34 27
f 28 49 27
f 31 29 32
f 59 54 10
f 12 13 6
f 122 12 6
f 37 38 39
f 16 4 17
f 16 9 3
f 9 70 8
f 61 17 9
f 29 43 30
f 44 30 46
f 61 31 45
f 30 43 46
f 31 10 29
f 61 10 31
f 10 43 29
f 46 43 10
f 29 30 32
f 32 30 44
f 31 32 44
f 45 44 46
f 31 44 45
f 61 45 46
f 98 122 39
f 80 38 13
f 41 48 7
f 49 28 50
f 28 49 50
f 17 61 129
f 129 51 17
f 129 61 88
f 64 49 28
f 61 59 10
f 10 54 46
f 33 7 35
f 35 7 33
f 51 52 53
f 15 50 42
f 50 27 42
f 50 28 27
f 41 7 55
f 51 129 40
f 40 57 52
f 56 51 53
f 17 51 56
f 60 171 56
f 52 57 53
f 51 40 52
f 57 58 53
f 58 57 40
f 56 53 60
f 58 40 129
f 58 129 60
f 8 70 61
f 60 53 58
f 171 17 56
f 65 61 46
f 54 62 46
f 80 12 122
f 7 48 55
f 55 49 64
f 55 64 14
f 64 28 63
f 64 63 14
f 171 70 16
f 16 70 9
f 59 61 70
f 54 59 62
f 46 62 65
f 90 117 66
f 55 47 34
f 33 35 157
f 48 41 47
f 63 50 14
f 50 15 14
f 49 55 34
f 55 14 41
f 28 50 63
f 41 14 15
f 27 34 42
f 15 42 34
f 41 15 47
f 157 35 33
f 171 16 17
f 171 60 129
f 88 200 129
f 59 70 62
f 65 114 66
f 68 67 78
f 66 114 90
f 67 115 78
f 79 90 67
f 121 66 117
f 6 37 122
f 81 82 97
f 81 83 82
f 47 55 48
f 34 47 15
f 127 84 89
f 199 86 87
f 65 73 72
f 73 77 76
f 74 92 75
f 62 92 74
f 73 76 72
f 73 65 74
f 74 65 62
f 62 70 92
f 77 75 76
f 75 70 76
f 73 91 77
f 92 70 75
f 91 75 77
f 74 75 91
f 91 73 74
f 79 68 95
f 68 79 67
f 72 76 70
f 70 65 72
f 121 65 66
f 79 95 78
f 90 79 78
f 80 36 98
f 90 114 67
f 90 78 115
f 95 68 78
f 114 115 67
f 65 121 149
f 97 108 114
f 36 80 35
f 13 38 37
f 6 13 37
f 38 80 98
f 38 98 39
f 35 80 122
f 122 157 35
f 122 37 39
f 69 101 102
f 101 103 102
f 101 69 103
f 69 104 131
f 84 71 89
f 48 47 106
f 71 84 89
f 94 65 108
f 108 65 70
f 112 113 111
f 113 94 111
f 83 81 96
f 112 111 82
f 83 112 82
f 81 97 114
f 96 81 114
f 82 111 97
f 111 94 97
f 65 94 96
f 65 96 114
f 117 90 115
f 109 150 118
f 120 109 118
f 117 115 121
f 98 36 157
f 122 98 157
f 107 125 116
f 48 106 47
f 107 131 104
f 171 271 70
f 88 61 65
f 97 94 108
f 148 114 108
f 96 94 113
f 102 103 107
f 103 125 101
f 125 103 101
f 116 125 103
f 131 116 103
f 105 116 134
f 36 35 157
f 134 116 105
f 107 103 125
f 135 153 136
f 139 84 126
f 138 178 100
f 84 181 71
f 138 140 141
f 140 142 141
f 126 84 71
f 127 89 84
f 119 110 120
f 171 129 200
f 147 108 109
f 149 88 65
f 108 271 150
f 109 108 150
f 108 70 271
f 147 119 99
f 99 148 108
f 147 109 110
f 112 96 113
f 96 112 83
f 147 99 108
f 118 130 119
f 99 119 130
f 110 109 120
f 119 147 110
f 119 120 118
f 115 114 148
f 99 130 150
f 118 150 130
f 121 115 148
f 149 121 148
f 69 131 103
f 104 102 107
f 104 69 102
f 135 136 161
f 107 254 131
f 159 137 162
f 126 71 181
f 163 143 164
f 143 163 162
f 226 132 166
f 168 169 170
f 145 128 198
f 198 128 145
f 171 282 271
f 149 148 271
f 148 150 271
f 148 99 150
f 107 116 254
f 136 183 161
f 36 157 153
f 157 36 153
f 153 157 183
f 153 206 157
f 173 174 175
f 174 160 175
f 156 153 173
f 174 176 177
f 176 174 135
f 140 100 186
f 140 138 100
f 179 163 164
f 124 179 164
f 179 180 163
f 159 162 165
f 248 165 124
f 180 165 162
f 124 164 143
f 162 137 248
f 162 248 143
f 162 163 180
f 179 124 180
f 248 124 143
f 137 159 248
f 165 180 124
f 165 248 159
f 139 181 84
f 140 186 142
f 100 178 186
f 184 141 133
f 185 182 178
f 166 142 186
f 166 132 133
f 185 184 182
f 141 142 133
f 132 184 133
f 142 166 133
f 184 185 132
f 141 178 138
f 182 132 226
f 184 132 141
f 132 185 141
f 185 178 141
f 182 226 178
f 226 166 186
f 226 186 167
f 132 182 184
f 146 199 87
f 85 304 106
f 192 188 189
f 190 191 128
f 191 190 192
f 193 190 128
f 194 190 193
f 196 193 197
f 145 196 197
f 196 145 189
f 149 271 201
f 176 161 177
f 161 176 135
f 131 254 116
f 172 202 175
f 203 151 183
f 153 135 174
f 176 136 161
f 176 161 136
f 153 183 136
f 173 153 174
f 206 172 160
f 153 156 206
f 155 156 173
f 177 161 160
f 206 160 183
f 155 202 172
f 202 155 173
f 202 173 175
f 160 161 183
f 160 174 177
f 172 175 160
f 183 157 206
f 206 156 172
f 154 151 207
f 155 172 156
f 209 257 210
f 211 212 213
f 215 216 217
f 240 216 215
f 139 240 320
f 218 219 211
f 216 126 217
f 222 240 126
f 126 240 139
f 219 218 217
f 218 213 217
f 186 251 167
f 178 251 186
f 85 276 222
f 167 178 226
f 223 224 225
f 227 192 189
f 128 106 145
f 169 225 224
f 145 227 189
f 225 231 223
f 188 194 193
f 227 106 128
f 193 196 188
f 197 128 145
f 193 128 197
f 128 191 227
f 188 196 189
f 192 194 188
f 224 223 229
f 190 194 192
f 191 192 227
f 229 223 230
f 304 227 145
f 231 230 223
f 271 232 201
f 282 88 149
f 203 183 205
f 152 203 205
f 151 203 152
f 206 205 183
f 205 234 152
f 234 207 152
f 235 236 204
f 253 154 206
f 154 234 205
f 207 151 152
f 206 154 205
f 234 154 207
f 237 209 210
f 235 237 210
f 236 235 210
f 238 236 210
f 209 237 239
f 237 235 239
f 187 236 238
f 242 183 206
f 242 206 183
f 257 123 238
f 257 238 210
f 123 187 238
f 123 204 187
f 222 123 257
f 209 233 257
f 239 233 209
f 217 213 215
f 126 219 217
f 208 212 211
f 222 126 240
f 213 212 215
f 126 216 240
f 212 240 215
f 211 220 208
f 218 211 213
f 220 219 126
f 211 219 220
f 208 240 212
f 208 220 126
f 222 276 85
f 245 243 244
f 167 251 178
f 281 85 270
f 85 106 304
f 146 252 199
f 227 304 106
f 169 86 195
f 145 106 304
f 168 87 250
f 230 252 170
f 87 168 146
f 225 169 195
f 169 229 170
f 87 86 250
f 231 225 195
f 230 231 252
f 86 199 195
f 229 169 224
f 169 168 250
f 86 169 250
f 195 199 252
f 171 200 282
f 149 201 272
f 149 272 271
f 221 253 206
f 221 206 183
f 183 151 253
f 151 154 253
f 221 284 214
f 204 233 235
f 243 259 258
f 259 178 258
f 233 239 235
f 123 222 274
f 204 274 222
f 258 178 261
f 236 187 204
f 233 204 257
f 240 139 320
f 222 257 204
f 241 260 261
f 240 208 139
f 208 126 181
f 245 241 261
f 247 259 243
f 243 258 244
f 244 258 260
f 259 247 178
f 245 244 241
f 244 260 241
f 261 178 251
f 260 258 261
f 178 247 251
f 262 305 264
f 262 249 305
f 267 268 264
f 228 267 264
f 249 262 269
f 304 276 85
f 270 85 281
f 146 170 252
f 146 168 170
f 280 199 252
f 252 231 195
f 229 230 170
f 280 252 199
f 282 200 88
f 221 273 253
f 214 275 221
f 273 221 253
f 341 221 275
f 275 214 341
f 341 214 284
f 253 221 183
f 341 284 221
f 158 183 255
f 240 255 320
f 240 320 255
f 251 277 256
f 277 251 247
f 243 245 278
f 247 278 277
f 181 139 356
f 247 243 278
f 278 245 261
f 278 261 251
f 305 228 264
f 276 303 85
f 265 262 268
f 93 265 228
f 264 268 262
f 307 269 305
f 265 268 267
f 265 269 262
f 93 305 269
f 265 93 269
f 228 265 267
f 305 93 228
f 231 266 252
f 252 266 231
f 270 383 281
f 282 149 271
f 201 232 272
f 183 158 255
f 274 332 123
f 274 204 332
f 123 332 204
f 287 255 348
f 289 290 291
f 290 292 291
f 208 181 302
f 302 139 208
f 139 302 356
f 277 278 251
f 276 85 303
f 304 85 276
f 269 307 305
f 271 272 232
f 273 263 352
f 283 341 275
f 144 273 364
f 275 341 283
f 296 294 338
f 221 253 391
f 292 300 291
f 221 391 253
f 285 341 283
f 289 297 290
f 292 255 287
f 293 338 294
f 288 339 480
f 288 341 283
f 283 341 288
f 300 289 291
f 290 255 292
f 297 255 290
f 348 255 320
f 314 297 289
f 314 158 297
f 292 287 300
f 314 289 300
f 158 255 297
f 158 314 348
f 181 356 302
f 298 251 256
f 277 251 298
f 397 242 279
f 279 242 397
f 383 270 281
f 144 253 273
f 263 273 352
f 341 308 338
f 364 273 253
f 283 310 285
f 309 294 296
f 311 309 296
f 338 308 296
f 308 311 296
f 341 285 308
f 312 339 480
f 301 294 309
f 293 285 338
f 308 313 311
f 313 301 309
f 285 310 338
f 287 348 314
f 301 293 294
f 308 285 313
f 312 480 316
f 315 316 317
f 318 315 317
f 285 301 313
f 313 309 311
f 301 285 293
f 317 319 318
f 286 320 391
f 158 348 255
f 339 288 306
f 343 295 298
f 387 321 330
f 300 287 314
f 255 348 320
f 480 306 288
f 298 256 277
f 343 256 277
f 277 348 343
f 277 256 343
f 315 318 322
f 356 302 372
f 302 356 372
f 325 305 249
f 249 269 428
f 269 305 353
f 344 333 334
f 335 336 331
f 352 263 333
f 322 339 312
f 346 299 480
f 319 316 480
f 315 312 316
f 310 283 338
f 299 318 319
f 346 480 339
f 299 322 318
f 299 346 339
f 322 312 315
f 299 339 322
f 480 299 319
f 317 316 319
f 339 306 480
f 344 334 335
f 340 373 323
f 283 341 338
f 295 392 298
f 343 392 295
f 343 348 277
f 343 397 356
f 246 395 303
f 269 353 428
f 428 325 249
f 353 305 325
f 351 355 350
f 404 328 434
f 327 384 307
f 331 336 337
f 344 335 331
f 137 386 472
f 137 472 386
f 387 331 321
f 334 333 337
f 336 334 337
f 335 334 336
f 263 422 333
f 387 344 331
f 330 321 333
f 337 333 321
f 331 337 321
f 387 422 352
f 387 352 344
f 352 333 344
f 422 263 352
f 253 144 364
f 473 346 480
f 473 480 346
f 348 369 343
f 373 340 323
f 348 343 369
f 298 397 343
f 298 392 397
f 304 357 276
f 396 353 354
f 326 396 355
f 396 359 355
f 353 349 354
f 395 246 303
f 246 395 377
f 395 347 360
f 349 353 325
f 354 349 359
f 396 354 359
f 428 353 396
f 351 350 349
f 396 351 325
f 355 351 326
f 359 349 350
f 325 351 349
f 355 359 350
f 351 396 326
f 362 384 327
f 328 404 506
f 422 387 330
f 330 333 422
f 363 366 367
f 366 368 367
f 391 452 286
f 391 286 452
f 320 286 391
f 304 276 357
f 356 369 343
f 369 356 392
f 392 356 454
f 372 454 356
f 487 345 298
f 347 370 375
f 370 374 361
f 377 370 361
f 360 376 377
f 377 376 370
f 370 376 375
f 361 374 246
f 370 347 374
f 360 375 376
f 347 375 360
f 377 361 246
f 395 360 377
f 347 395 374
f 449 380 381
f 442 307 383
f 327 307 442
f 447 307 384
f 328 506 434
f 384 383 447
f 381 380 385
f 363 388 389
f 390 366 389
f 368 366 390
f 366 363 389
f 388 364 365
f 367 426 363
f 393 342 283
f 283 342 393
f 392 343 369
f 348 454 372
f 454 372 356
f 454 397 392
f 356 397 428
f 395 246 374
f 487 298 345
f 396 325 428
f 356 379 442
f 379 356 442
f 459 400 401
f 358 435 404
f 434 382 403
f 412 434 403
f 364 425 144
f 412 408 378
f 434 412 404
f 403 410 408
f 403 382 410
f 412 403 408
f 383 307 447
f 410 382 411
f 408 410 411
f 415 416 417
f 418 447 383
f 420 384 414
f 327 384 362
f 416 415 421
f 420 381 419
f 447 413 383
f 425 363 426
f 390 389 365
f 368 365 426
f 368 390 365
f 425 388 363
f 365 389 388
f 365 364 426
f 364 388 425
f 368 426 367
f 425 426 144
f 397 392 487
f 503 348 372
f 348 503 454
f 487 392 484
f 356 428 454
f 428 397 398
f 392 397 484
f 324 374 576
f 374 324 576
f 397 454 398
f 399 429 430
f 401 429 399
f 428 396 459
f 396 428 459
f 461 401 399
f 461 459 401
f 441 400 459
f 429 431 430
f 401 400 431
f 400 441 431
f 399 430 467
f 429 401 431
f 430 431 467
f 435 433 437
f 411 382 378
f 417 416 440
f 469 443 405
f 405 443 444
f 405 444 406
f 442 383 443
f 443 407 444
f 384 409 445
f 382 463 378
f 467 431 441
f 463 382 434
f 408 411 378
f 404 412 463
f 380 446 385
f 447 327 442
f 413 443 383
f 384 327 447
f 380 445 446
f 440 416 409
f 380 449 445
f 378 463 412
f 433 358 438
f 446 421 385
f 414 449 381
f 449 414 384
f 450 417 440
f 450 415 417
f 420 414 381
f 446 409 416
f 449 384 445
f 421 446 416
f 445 409 446
f 447 409 384
f 383 384 418
f 418 385 450
f 449 385 418
f 385 449 381
f 419 449 418
f 419 381 449
f 418 384 420
f 418 420 419
f 421 415 450
f 385 421 450
f 418 440 490
f 144 426 364
f 424 391 369
f 369 391 424
f 329 394 501
f 394 329 501
f 392 634 454
f 634 392 454
f 570 323 542
f 487 484 397
f 428 398 459
f 399 467 461
f 438 436 462
f 466 435 437
f 468 459 461
f 441 468 467
f 437 438 462
f 439 435 466
f 437 433 438
f 433 435 358
f 438 358 436
f 439 466 465
f 436 358 465
f 466 436 465
f 436 466 462
f 466 437 462
f 358 439 465
f 461 467 468
f 404 435 439
f 404 439 358
f 405 406 471
f 442 560 469
f 448 405 471
f 470 413 448
f 471 406 470
f 469 405 448
f 442 443 469
f 413 470 407
f 470 448 471
f 469 448 413
f 406 444 470
f 407 470 444
f 447 469 413
f 409 447 490
f 443 413 407
f 434 506 518
f 450 440 418
f 447 418 490
f 490 440 409
f 493 473 480
f 427 479 481
f 496 480 473
f 474 476 475
f 474 478 477
f 481 369 479
f 481 479 369
f 454 503 372
f 497 475 498
f 439 455 358
f 439 358 455
f 398 454 428
f 398 487 441
f 428 468 398
f 459 468 428
f 441 459 398
f 398 468 487
f 441 487 468
f 463 670 404
f 670 434 518
f 463 434 670
f 442 469 560
f 492 491 550
f 499 423 432
f 475 478 474
f 427 481 453
f 478 497 477
f 481 477 453
f 479 427 453
f 475 476 498
f 479 476 474
f 478 475 497
f 477 479 474
f 479 453 498
f 497 498 500
f 453 477 500
f 477 497 500
f 498 453 500
f 498 476 479
f 477 481 479
f 481 483 535
f 481 535 483
f 570 542 323
f 458 487 484
f 487 458 484
f 464 460 488
f 442 469 447
f 493 496 494
f 561 493 494
f 496 493 480
f 493 561 473
f 453 535 427
f 452 509 495
f 539 329 543
f 541 570 542
f 541 542 488
f 488 542 464
f 541 488 460
f 522 379 665
f 545 515 485
f 513 538 516
f 607 646 517
f 542 460 464
f 531 508 551
f 670 605 404
f 519 520 521
f 404 508 506
f 528 661 579
f 518 531 525
f 532 519 491
f 451 494 561
f 561 494 496
f 496 473 561
f 495 509 452
f 453 427 512
f 394 329 543
f 543 329 394
f 427 535 512
f 540 571 511
f 543 329 539
f 539 542 570
f 542 539 543
f 482 535 512
f 544 457 627
f 546 513 516
f 546 485 515
f 485 516 538
f 516 485 546
f 576 619 374
f 513 514 547
f 538 547 545
f 547 538 513
f 514 513 546
f 545 547 515
f 547 514 515
f 514 546 515
f 541 604 542
f 460 542 541
f 512 482 458
f 665 379 522
f 518 525 548
f 529 528 579
f 528 530 489
f 523 549 579
f 530 528 529
f 579 489 523
f 549 523 524
f 489 530 523
f 549 529 579
f 529 549 524
f 524 530 529
f 524 523 530
f 661 528 489
f 489 579 402
f 506 508 518
f 552 525 531
f 552 554 525
f 554 552 555
f 580 553 507
f 548 525 553
f 554 555 553
f 580 507 508
f 551 508 507
f 555 552 551
f 552 531 551
f 555 551 507
f 553 555 507
f 404 580 508
f 518 508 531
f 548 553 580
f 518 548 580
f 605 580 404
f 525 554 553
f 557 558 646
f 646 526 559
f 488 526 492
f 715 499 432
f 561 494 451
f 564 565 572
f 502 534 511
f 595 510 537
f 568 572 569
f 502 540 534
f 540 511 534
f 502 511 567
f 566 565 568
f 565 564 568
f 564 566 568
f 573 566 564
f 570 543 539
f 512 535 453
f 569 568 572
f 536 569 540
f 536 573 564
f 541 543 570
f 512 535 482
f 573 574 566
f 541 542 543
f 458 482 512
f 485 538 545
f 576 374 619
f 526 492 550
f 665 522 648
f 402 661 489
f 491 581 532
f 581 520 532
f 521 520 581
f 532 520 519
f 486 492 646
f 491 492 486
f 491 519 550
f 581 556 521
f 556 527 521
f 521 527 550
f 556 486 527
f 646 527 486
f 519 521 550
f 646 492 526
f 486 556 581
f 486 581 491
f 582 557 583
f 488 492 526
f 646 558 517
f 584 557 582
f 557 646 559
f 585 517 586
f 517 585 607
f 583 559 505
f 558 587 517
f 432 423 668
f 608 668 423
f 608 499 667
f 499 715 667
f 423 499 608
f 590 631 591
f 593 594 653
f 540 573 536
f 540 502 573
f 567 540 592
f 574 563 565
f 502 563 573
f 568 564 572
f 566 574 565
f 564 569 536
f 540 569 592
f 565 563 572
f 502 567 563
f 563 567 572
f 573 563 574
f 568 569 572
f 564 568 569
f 572 592 569
f 540 567 571
f 572 567 592
f 632 596 597
f 598 632 599
f 511 605 616
f 511 571 605
f 570 371 600
f 618 485 538
f 542 604 541
f 371 570 600
f 619 576 577
f 618 538 485
f 586 587 582
f 527 646 550
f 505 526 607
f 557 584 558
f 605 670 518
f 518 580 605
f 585 582 505
f 582 606 505
f 517 587 586
f 584 587 558
f 646 647 550
f 559 526 505
f 644 402 579
f 582 587 606
f 587 583 606
f 587 582 583
f 584 582 587
f 583 557 559
f 606 583 505
f 647 526 550
f 648 522 665
f 674 687 588
f 685 703 588
f 631 593 669
f 537 510 595
f 609 610 611
f 610 612 611
f 511 616 567
f 571 567 616
f 656 632 575
f 614 615 596
f 616 605 571
f 577 576 619
f 658 605 670
f 661 402 644
f 653 613 602
f 586 582 585
f 607 585 505
f 646 607 663
f 526 647 607
f 432 668 715
f 624 589 625
f 504 589 666
f 623 626 504
f 533 595 562
f 562 595 533
f 613 630 601
f 630 594 593
f 613 601 602
f 602 591 653
f 645 631 669
f 630 590 601
f 656 688 633
f 650 598 617
f 590 602 601
f 591 602 590
f 593 631 630
f 653 594 613
f 594 630 613
f 630 631 590
f 631 653 591
f 653 631 645
f 633 596 656
f 632 597 636
f 597 635 636
f 610 637 612
f 637 638 612
f 599 632 636
f 635 599 636
f 614 633 617
f 615 617 636
f 635 615 636
f 650 632 598
f 626 627 589
f 656 596 632
f 666 589 624
f 688 617 633
f 598 599 635
f 615 597 596
f 614 596 633
f 650 575 632
f 636 617 598
f 639 640 641
f 648 604 665
f 603 666 624
f 578 503 644
f 644 503 578
f 637 610 654
f 604 648 665
f 579 661 644
f 663 607 647
f 456 625 589
f 627 626 603
f 626 589 504
f 667 666 603
f 684 608 683
f 625 456 544
f 624 625 544
f 457 456 589
f 456 457 544
f 603 624 544
f 627 603 544
f 667 603 626
f 589 627 457
f 674 626 623
f 674 623 666
f 667 626 683
f 688 654 617
f 629 628 688
f 641 640 649
f 650 641 649
f 628 629 688
f 652 609 611
f 672 650 649
f 640 639 652
f 671 655 688
f 655 637 654
f 637 655 638
f 639 650 609
f 672 652 611
f 609 654 610
f 655 671 638
f 688 656 575
f 598 635 636
f 672 612 671
f 652 672 640
f 614 617 615
f 671 612 638
f 609 650 654
f 688 655 654
f 650 639 641
f 617 654 650
f 652 639 609
f 640 672 649
f 612 672 611
f 650 672 575
f 615 635 597
f 616 605 658
f 670 605 658
f 616 658 643
f 616 643 605
f 605 643 658
f 643 605 620
f 571 718 616
f 643 620 605
f 718 571 616
f 668 608 684
f 608 667 683
f 504 666 623
f 717 593 653
f 688 672 671
f 672 688 575
f 621 673 676
f 657 692 659
f 692 657 659
f 621 676 673
f 659 657 690
f 657 670 692
f 665 648 739
f 619 661 577
f 664 665 662
f 661 619 577
f 727 679 680
f 642 665 739
f 642 729 727
f 665 642 662
f 647 646 663
f 622 662 681
f 682 622 681
f 662 622 682
f 665 664 727
f 668 684 715
f 626 674 683
f 687 674 703
f 674 588 703
f 674 703 693
f 593 717 669
f 704 645 669
f 675 688 720
f 692 658 657
f 657 658 670
f 690 657 659
f 692 670 658
f 680 662 642
f 679 681 680
f 662 680 681
f 680 642 727
f 664 662 682
f 679 664 682
f 648 665 727
f 679 727 664
f 679 682 681
f 588 687 685
f 666 667 674
f 683 674 693
f 685 687 703
f 726 678 660
f 674 686 703
f 653 704 717
f 645 704 653
f 694 695 696
f 697 713 698
f 700 697 712
f 677 660 678
f 678 726 677
f 729 642 739
f 739 648 727
f 667 689 674
f 674 689 686
f 651 669 717
f 703 686 693
f 691 705 699
f 704 669 651
f 699 696 695
f 688 675 720
f 694 696 707
f 706 719 730
f 713 660 714
f 712 698 714
f 677 714 660
f 726 701 677
f 660 711 726
f 700 711 660
f 713 700 660
f 726 711 701
f 700 701 711
f 715 744 667
f 699 707 696
f 710 691 720
f 691 716 720
f 686 651 693
f 693 651 717
f 708 694 707
f 706 730 741
f 699 695 716
f 716 694 720
f 691 699 716
f 720 694 708
f 705 708 707
f 708 705 691
f 691 720 708
f 694 716 695
f 705 707 699
f 675 710 720
f 721 722 723
f 724 721 723
f 710 725 735
f 712 697 698
f 700 713 697
f 726 718 677
f 712 714 701
f 698 713 714
f 677 701 714
f 701 700 712
f 702 710 725
f 725 710 702
f 739 727 729
f 686 704 651
f 747 741 730
f 717 704 742
f 675 720 710
f 732 733 734
f 720 691 710
f 737 738 731
f 738 737 734
f 743 737 731
f 710 735 728
f 725 710 735
f 718 726 677
f 667 744 689
f 684 683 693
f 684 693 747
f 704 686 742
f 747 730 719
f 722 733 732
f 709 733 720
f 736 724 743
f 736 745 724
f 745 721 724
f 732 734 737
f 746 732 737
f 738 733 709
f 721 745 733
f 734 733 738
f 745 736 733
f 738 735 731
f 743 731 735
f 738 709 735
f 721 733 722
f 720 743 735
f 743 720 736
f 743 746 737
f 736 720 733
f 710 720 735
f 724 723 743
f 723 746 743
f 723 722 746
f 722 732 746
f 710 709 720
f 728 735 709
f 709 710 728
f 741 717 742
f 742 686 689
f 766 709 740
f 715 684 780
f 742 689 776
f 717 741 693
f 751 753 754
f 741 777 706
f 719 706 777
f 740 709 766
f 747 781 684
f 744 776 689
f 747 693 741
f 742 776 741
f 748 752 750
f 751 752 759
f 748 760 765
f 748 750 760
f 759 758 777
f 719 777 748
f 719 748 747
f 758 759 752
f 759 777 765
f 753 751 759
f 751 754 752
f 752 754 750
f 750 754 753
f 750 753 760
f 753 759 765
f 753 765 760
f 758 752 748
f 777 758 748
f 780 744 715
f 755 763 764
f 741 776 777
f 748 765 777
f 762 757 767
f 768 774 767
f 684 749 780
f 744 780 755
f 744 755 762
f 756 771 757
f 776 744 762
f 763 770 764
f 768 775 774
f 773 771 756
f 772 770 773
f 770 763 773
f 774 769 767
f 771 775 767
f 747 748 776
f 777 776 748
f 781 747 776
f 775 778 774
f 761 780 749
f 773 778 771
f 757 771 779
f 749 684 781
f 763 755 778
f 755 780 778
f 771 768 779
f 771 767 768
f 770 772 764
f 778 773 763
f 764 773 756
f 755 764 756
f 778 775 771
f 762 756 757
f 762 755 756
f 757 768 767
f 779 768 757
f 775 768 767
f 778 769 774
f 767 769 762
f 769 776 762
f 769 778 780
f 749 781 761
f 761 781 780
f 769 780 781
f 776 769 781
f 764 772 773

