# https://github.com/mikedh/trimesh
v -0.80159628 -0.89925319 -0.02316233
v -0.82075590 -0.88152725 -0.00654060
v -0.81328857 -0.88771397 0.24241921
v -0.80937719 -0.88751984 0.24632873
v -0.80156857 -0.89531398 -0.02317079
v -0.80614865 -0.91042656 0.24936970
v -0.91469491 -0.88163728 0.07415802
v -0.81719857 -0.88750398 0.23863921
v -0.80938858 -0.88750398 0.24632920
v -0.81332958 -0.88751167 0.24244568
v -0.83681738 -0.86774009 0.22966565
v -0.80607855 -0.88750398 0.25023922
v -0.80151856 -0.89140397 -0.02319079
v -0.78405166 0.20172134 0.15625186
v -0.80156857 -0.89922398 -0.02319079
v -0.80153859 -0.89531398 -0.02319079
v -0.78720957 -0.85848540 0.24546027
v -0.79591835 -0.90464395 -0.02795429
v -0.80154991 -0.89922363 -0.02319110
v -0.80940974 -0.88744664 0.24633966
v -0.69222373 -0.70739734 0.01988496
v -0.83127952 0.19487031 0.10879896
v -0.78585857 0.20623603 0.15257920
v -0.78205860 0.21014602 0.15257920
v -0.78461856 0.21405604 0.14866921
v -0.78203857 0.21016604 0.15257920
v -0.78203857 0.21014602 0.15258920
v -0.77812856 0.21405604 0.15264921
v -0.73394245 -0.49736443 -0.07319543
v -0.71951348 -0.49513897 -0.09347350
v -0.77796018 0.21424367 0.15263937
v -0.89458007 -0.95300877 0.04551046
v -0.71958858 -0.51640397 -0.09351079
v -0.71956855 -0.51250398 -0.09351079
v -0.72152007 -0.70044440 -0.01876696
v -0.64132971 -0.83615601 -0.16004685
v -0.72734857 -0.50078398 -0.08692079
v -0.68169719 -0.66267496 0.04549981
v -0.72417855 -0.50469398 -0.08960080
v -0.71947855 -0.49687394 -0.09351079
v -0.71953857 -0.51250398 -0.09353079
v -0.71953857 -0.50859398 -0.09351079
v -0.71614397 -0.50985253 -0.09636441
v -0.70238769 0.06058809 0.18361218
v -0.66935188 0.17859004 0.21872729
v -0.69219857 -0.71872401 0.01976921
v -0.69222856 -0.71562397 0.01976921
v -0.66668868 -0.85031039 -0.13946594
v -0.71953857 -0.51640397 -0.09355080
v -0.65508735 -0.85787046 -0.14926940
v -0.69219857 -0.70781398 0.01990921
v -0.68783087 -0.73654020 0.03793454
v -0.66872859 -0.71172398 -0.06226079
v -0.66875857 -0.71172398 -0.06223079
v -0.66875857 -0.70781398 -0.06221079
v -0.66906571 -0.69942892 -0.06191300
v -0.69226855 -0.71172398 0.01976921
v -0.71954858 -0.50859398 -0.09351079
v -0.71950859 -0.50078398 -0.09351079
v -0.71953857 -0.49687394 -0.09346079
v -0.71952856 -0.50469398 -0.09351079
v -0.71953857 -0.50469398 -0.09350080
v -0.73027807 -0.51262581 -0.08454255
v -0.71953857 -0.52031398 -0.09357079
v -0.71957558 -0.52092350 -0.09354202
v -0.71953857 -0.50678396 -0.09351079
v -0.70553845 -0.47611237 -0.10505810
v -0.32884857 0.26873603 -0.31616080
v -0.32884857 0.26483604 -0.31616080
v -0.71953857 -0.50078398 -0.09348079
v -0.52800691 0.19216111 0.27266264
v -0.66487992 0.18280303 0.21894152
v -0.66486591 0.18270171 0.21901906
v -0.66482860 0.18280604 0.21898921
v -0.66090858 -0.84453398 -0.14429079
v -0.66093564 -0.84453398 -0.14427048
v -0.65159857 -0.84453398 -0.15210079
v -0.61603445 -0.81702733 0.09031753
v -0.66874856 -0.71562397 -0.06226079
v -0.66409856 -0.71562397 -0.06616079
v -0.61406857 -0.69219398 0.08617921
v -0.66093856 -0.84844398 -0.14429079
v -0.66094857 -0.85004401 -0.14429079
v -0.66094857 -0.84844398 -0.14428079
v -0.68542558 -0.71211451 0.02791761
v -0.69219857 -0.71172398 0.01985921
v -0.70397258 -0.56640899 -0.03595921
v -0.63858730 -0.76512152 -0.08939160
v -0.67328793 -0.71415293 -0.05854563
v -0.61406857 -0.68828398 0.08619921
v -0.61403859 -0.68828398 0.08616920
v -0.61401856 -0.68437397 0.08616920
v -0.65306860 -0.70000398 0.06663920
v -0.65312856 -0.69609398 0.06661921
v -0.69219857 -0.71562397 0.01980921
v -0.61007077 -0.83508736 0.08223868
v -0.66875857 -0.71562397 -0.06225080
v -0.62608320 -0.73336291 0.09631994
v -0.65302855 -0.70390397 0.06663920
v -0.62676662 -0.66942596 0.09666542
v -0.60511363 -0.93198305 -0.07939731
v -0.68443662 0.12864210 0.22926319
v -0.66101855 0.18670604 0.21898921
v -0.66357857 0.19061603 0.21507920
v -0.66088843 0.18681145 0.21900281
v -0.66331470 0.20169713 0.20856696
v -0.66094857 0.18670604 0.21902920
v -0.64920789 0.19323896 0.22232153
v -0.61015856 -0.83281398 0.08223921
v -0.60940856 -0.69219398 0.08226920
v -0.65312952 -0.69608641 0.06662200
v -0.64397830 -0.86402076 0.10588391
v -0.62113225 -0.70689720 0.09199710
v -0.65312856 -0.70000398 0.06656921
v -0.61405855 -0.69219398 0.08616920
v -0.61002856 -0.83281398 0.08226920
v -0.60851860 -0.82890397 0.08616920
v -0.61011857 -0.82890397 0.08226920
v -0.61016858 -0.82890397 0.08226920
v -0.55704665 -0.92768347 -0.23248389
v -0.61015856 -0.82890397 0.08225921
v -0.62528610 -0.76381874 0.08829310
v -0.66871315 -0.70781660 -0.06225731
v -0.30156857 0.11248603 0.04313921
v -0.30148858 0.10858603 0.04319921
v -0.30148858 0.11248603 0.04319921
v -0.65129161 -0.66825396 -0.07595510
v -0.68018866 0.25394019 0.05919294
v -0.47521266 -0.92687374 -0.13220161
v -0.52502412 -0.67127657 0.00944165
v -0.53995353 -0.83463645 0.09231059
v -0.32890856 0.35467604 -0.31610078
v -0.32890856 0.35858604 -0.31610078
v -0.32884857 0.35467604 -0.31616080
v -0.45408478 0.34301022 -0.07805075
v -0.45799607 0.35762867 -0.06660806
v -0.45792139 0.35879982 -0.06615454
v -0.44225857 -0.90703398 -0.08960080
v -0.44219840 -0.91094482 -0.08958024
v -0.44544858 -0.91484398 -0.09351079
v -0.44219857 -0.90312397 -0.08947079
v -0.44219857 -0.90703398 -0.08952079
v -0.32890856 0.13983603 -0.31610078
v -0.44244507 0.37345737 -0.07788512
v -0.48906857 0.11237603 0.39085919
v -0.49277857 0.10858603 0.39085919
v -0.32960254 0.11196726 0.00992614
v -0.49372613 0.10802216 0.39062184
v -0.48906857 0.11248603 0.39078918
v -0.49297857 0.10858603 0.39073920
v -0.48906857 0.11639604 0.38844919
v -0.48888919 0.11228226 0.39102951
v -0.30156857 0.14373603 0.04313921
v -0.30148858 0.13983603 0.04319921
v -0.30148858 0.14373603 0.04319921
v -0.32890856 0.25311604 -0.31610078
v -0.47194856 0.53826600 -0.21851079
v -0.46562856 0.54217601 -0.22239079
v -0.46893302 0.36379048 -0.05064147
v -0.32884857 0.17498603 -0.31616080
v -0.32884857 0.17889602 -0.31616080
v -0.30148858 0.12811603 0.04319921
v -0.30148858 0.13201603 0.04319921
v -0.45784137 0.35757858 -0.06682172
v -0.45779222 0.35071269 -0.07005292
v -0.49971539 0.54113632 -0.16764890
v -0.46562856 0.54606599 -0.21851079
v -0.47193858 0.54217601 -0.21460079
v -0.46562856 0.54608601 -0.21849079
v -0.47193858 0.54608601 -0.21069080
v -0.46560857 0.55780602 -0.20679079
v -0.46562859 0.55387604 -0.21069077
v -0.46560857 0.55389601 -0.21069080
v -0.44220859 -0.91094398 -0.08960080
v -0.42666104 -0.93831742 -0.08043768
v -0.45787016 0.35045382 -0.07007932
v -0.42202598 -0.06161572 0.43808544
v -0.48194915 0.09937738 0.40301576
v -0.30156857 0.16326603 0.04313921
v -0.30156857 0.15936603 0.04313921
v -0.30148858 0.15936603 0.04319921
v -0.46562856 0.54996604 -0.21460079
v -0.46561858 0.54608601 -0.21851079
v -0.32884857 0.32342604 -0.31616080
v -0.32890856 0.32733604 -0.31610078
v -0.32884857 0.32733604 -0.31616080
v -0.45781857 0.35076603 -0.06999079
v -0.33170038 0.15877742 -0.31223008
v -0.49744883 0.49566481 -0.22067569
v -0.32884857 0.15155604 -0.31616080
v -0.32890856 0.15545604 -0.31610078
v -0.32884857 0.15545604 -0.31616080
v -0.46561965 0.54217559 -0.22240810
v -0.46561858 0.54998600 -0.21460079
v -0.46562856 0.54998600 -0.21458079
v -0.45928857 0.55780602 -0.21460079
v -0.46562856 0.55777603 -0.20679079
v -0.40076563 0.60215580 -0.25697327
v -0.39140856 0.60076600 -0.05047079
v -0.38750857 0.60076600 -0.05047079
v -0.39140856 0.60082603 -0.05054079
v -0.39905035 0.60045785 -0.04999670
v -0.34814337 0.33246160 -0.17262372
v -0.36055541 0.03262914 -0.29341993
v -0.47355005 0.41445193 -0.12248240
v -0.41412753 0.14031003 0.40590844
v -0.39531857 0.60082603 -0.05054079
v -0.37969857 0.60082603 -0.05054079
v -0.37578857 0.60076600 -0.05047079
v -0.32890856 0.40545604 -0.31610078
v -0.34453857 0.18280604 -0.12095079
v -0.34452859 0.18280604 -0.12085080
v -0.34453857 0.18670604 -0.12095079
v -0.35002455 0.08720092 -0.16427208
v -0.32890856 0.14764604 -0.31610078
v -0.32890856 0.39373603 -0.31610078
v -0.32890856 0.39764604 -0.31610078
v -0.32884857 0.39373603 -0.31616080
v -0.32884857 0.13592604 -0.31616080
v -0.32884857 0.13983603 -0.31616080
v -0.32884857 0.33514604 -0.31616080
v -0.32884857 0.33123603 -0.31616080
v -0.32890856 0.33514604 -0.31610078
v -0.32890856 0.29217604 -0.31610078
v -0.32890856 0.28826603 -0.31610078
v -0.33167857 0.27996978 -0.31226078
v -0.32962590 0.50458300 0.00988746
v -0.38750857 0.60082603 -0.05054079
v -0.38359857 0.60082603 -0.05054079
v -0.37969857 0.60076600 -0.05047079
v -0.37731305 0.60420722 -0.05558723
v -0.38359857 0.60076600 -0.05047079
v -0.37188643 0.59686601 -0.04752080
v -0.32890856 0.13201603 -0.31610078
v -0.32890856 0.12811603 -0.31610078
v -0.32884857 0.42498603 -0.31616080
v -0.32884857 0.42108604 -0.31616080
v -0.32890856 0.42498603 -0.31610078
v -0.33292165 0.45733359 -0.31105512
v -0.30156857 0.12420603 0.04313921
v -0.34026456 0.08877867 0.00623988
v -0.34453410 0.08903971 -0.12088143
v -0.35393608 0.08555019 -0.15260637
v -0.32884857 0.14764604 -0.31616080
v -0.32884857 0.22967602 -0.31616080
v -0.32890856 0.23358603 -0.31610078
v -0.32884857 0.23358603 -0.31616080
v -0.32884857 0.40155604 -0.31616080
v -0.32884857 0.40545604 -0.31616080
v -0.32890856 0.15155604 -0.31610078
v -0.32884857 0.12420603 -0.31616080
v -0.32884857 0.12811603 -0.31616080
v -0.34452859 0.12811603 -0.12085080
v -0.34453857 0.12811603 -0.12095079
v -0.34452859 0.12420603 -0.12085080
v -0.32884857 0.37811604 -0.31616080
v -0.32890856 0.17498603 -0.31610078
v -0.32890856 0.17889602 -0.31610078
v -0.32890856 0.20623603 -0.31610078
v -0.32884857 0.20623603 -0.31616080
v -0.32884857 0.20233603 -0.31616080
v -0.32890856 0.18280604 -0.31610078
v -0.30148858 0.12420603 0.04319921
v -0.30148858 0.12030604 0.04319921
v -0.32884857 0.16717602 -0.31616080
v -0.34453857 0.09295603 -0.12095079
v -0.32890856 0.21014602 -0.31610078
v -0.32890856 0.21405604 -0.31610078
v -0.32890856 0.14373603 -0.31610078
v -0.32884857 0.14373603 -0.31616080
v -0.32890856 0.13592604 -0.31610078
v -0.32884857 0.13201603 -0.31616080
v -0.34453857 0.10076604 -0.12095079
v -0.34453857 0.10467604 -0.12095079
v -0.33170930 0.18744124 -0.31221667
v -0.32884857 0.26092604 -0.31616080
v -0.32884857 0.21014602 -0.31616080
v -0.34891227 0.27092397 -0.16210049
v -0.32884857 0.18280604 -0.31616080
v -0.32890856 0.22186603 -0.31610078
v -0.32884857 0.29217604 -0.31616080
v -0.32884857 0.28826603 -0.31616080
v -0.32301903 0.13970979 -0.32189533
v -0.33136868 0.12336776 -0.31288478
v -0.32884857 0.21795604 -0.31616080
v -0.32884857 0.22186603 -0.31616080
v -0.32884857 0.21405604 -0.31616080
v -0.32884857 0.38201603 -0.31616080
v -0.32890856 0.38201603 -0.31610078
v -0.32890856 0.38592604 -0.31610078
v -0.32890856 0.22967602 -0.31610078
v -0.32890856 0.31170604 -0.31610078
v -0.32890856 0.31561604 -0.31610078
v -0.32884857 0.28436604 -0.31616080
v -0.32890856 0.15936603 -0.31610078
v -0.32884857 0.15936603 -0.31616080
v -0.32884857 0.40936604 -0.31616080
v -0.32890856 0.41326603 -0.31610078
v -0.32884857 0.41326603 -0.31616080
v -0.32884857 0.30780604 -0.31616080
v -0.32884857 0.31951603 -0.31616080
v -0.32884857 0.31561604 -0.31616080
v -0.32884857 0.39764604 -0.31616080
v -0.34060130 0.62658739 -0.07514597
v -0.32890856 0.34295604 -0.31610078
v -0.39775592 0.83706897 -0.01661522
v -0.33837304 0.13686389 -0.06357512
v -0.34452859 0.13983603 -0.12085080
v -0.34452859 0.13592604 -0.12085080
v -0.32110655 0.02065420 -0.33414644
v -0.32890856 0.30780604 -0.31610078
v -0.32884857 0.30389604 -0.31616080
v -0.32890856 0.30389604 -0.31610078
v -0.34453857 0.17889602 -0.12095079
v -0.34452859 0.17889602 -0.12085080
v -0.32890856 0.24139602 -0.31610078
v -0.34399083 0.08781864 -0.11369537
v -0.32884857 0.24530604 -0.31616080
v -0.32884857 0.28045604 -0.31616080
v -0.34453857 0.10858603 -0.12095079
v -0.32890856 0.24530604 -0.31610078
v -0.32041624 0.16180649 -0.32445017
v -0.30156857 0.11639604 0.04313921
v -0.30156857 0.12811603 0.04313921
v -0.29765856 0.01095604 -0.33179080
v -0.32884857 0.24139602 -0.31616080
v -0.30156857 0.01095604 -0.32788080
v -0.30542856 0.01093604 -0.32397079
v -0.32890856 0.25701603 -0.31610078
v -0.32890856 0.19061603 -0.31610078
v -0.32884857 0.19842602 -0.31616080
v -0.34452859 0.14764604 -0.12085080
v -0.34452859 0.14373603 -0.12085080
v -0.32890856 0.12420603 -0.31610078
v -0.32890856 0.21795604 -0.31610078
v -0.32884857 0.23748603 -0.31616080
v -0.30148858 0.14764604 0.04319921
v -0.32890856 0.23748603 -0.31610078
v -0.32890856 0.26873603 -0.31610078
v -0.33170837 0.22423293 -0.31221837
v -0.30156857 0.12030604 0.04313921
v -0.32884857 0.19061603 -0.31616080
v -0.32884857 0.19451603 -0.31616080
v -0.30156857 0.15155604 0.04313921
v -0.30156857 0.15545604 0.04313921
v -0.30148858 0.15155604 0.04319921
v -0.32884857 0.12030604 -0.31616080
v -0.33564249 0.08754743 -0.27804351
v -0.30157197 0.10454040 0.04313536
v -0.30148858 0.10467604 0.04319921
v -0.32362443 0.19518653 0.02455292
v -0.29695490 0.10845241 0.04703365
v -0.34452859 0.21014602 -0.12085080
v -0.34321609 0.22674729 -0.10864205
v -0.32890856 0.18670604 -0.31610078
v -0.05126591 0.06215576 -0.53951097
v -0.32890856 0.16326603 -0.31610078
v -0.32884857 0.16326603 -0.31616080
v -0.34453857 0.13201603 -0.12095079
v -0.34453857 0.13592604 -0.12095079
v -0.30148858 0.11639604 0.04319921
v -0.32884857 0.22576603 -0.31616080
v -0.32890856 0.22576603 -0.31610078
v -0.32890856 0.33905604 -0.31610078
v -0.32884857 0.33905604 -0.31616080
v -0.32884857 0.17108603 -0.31616080
v -0.29123268 0.01116849 -0.33846396
v -0.30156857 0.14764604 0.04313921
v -0.34452859 0.18670604 -0.12085080
v -0.32098934 0.19970885 -0.32388946
v -0.30154920 0.01093605 -0.32786021
v -0.29765856 0.00956603 -0.32788080
v -0.30156857 0.13983603 0.04313921
v -0.30156857 0.13592604 0.04313921
v -0.30148858 0.13592604 0.04319921
v -0.30156857 0.13201603 0.04313921
v -0.30148858 0.16326603 0.04319921
v -0.30148858 0.16717602 0.04319921
v -0.34453857 0.21014602 -0.12095079
v -0.34452859 0.20623603 -0.12085080
v -0.32884857 0.27264604 -0.31616080
v -0.32890856 0.20233603 -0.31610078
v -0.32890856 0.19451603 -0.31610078
v -0.32884857 0.18670604 -0.31616080
v -0.32890856 0.19842602 -0.31610078
v -0.32884857 0.25311604 -0.31616080
v -0.32884857 0.24920604 -0.31616080
v -0.32890856 0.26483604 -0.31610078
v -0.32890856 0.16717602 -0.31610078
v -0.32890856 0.17108603 -0.31610078
v -0.34453857 0.22186603 -0.12095079
v -0.34453857 0.22576603 -0.12095079
v -0.30156857 0.10858603 0.04313921
v -0.33167857 0.25408980 -0.31226078
v -0.32890856 0.24920604 -0.31610078
v -0.32890856 0.38983604 -0.31610078
v -0.32884857 0.38592604 -0.31616080
v -0.32890856 0.29608604 -0.31610078
v -0.32884857 0.29608604 -0.31616080
v -0.32890856 0.28045604 -0.31610078
v -0.32890856 0.31951603 -0.31610078
v -0.34891182 0.21632949 -0.16201583
v -0.33168522 0.32719851 -0.31225151
v -0.32890856 0.27264604 -0.31610078
v -0.32299733 0.29486322 -0.32191703
v -0.32884857 0.31170604 -0.31616080
v -0.32890856 0.33123603 -0.31610078
v -0.32890856 0.34686604 -0.31610078
v -0.32884857 0.25701603 -0.31616080
v -0.32890856 0.26092604 -0.31610078
v -0.32890856 0.28436604 -0.31610078
v -0.32884857 0.27655604 -0.31616080
v -0.33169964 0.29854158 -0.31223115
v -0.32890856 0.35076603 -0.31610078
v -0.32890856 0.29998603 -0.31610078
v -0.34452859 0.25311604 -0.12085080
v -0.33910167 0.27644318 -0.07037605
v -0.34452859 0.25701603 -0.12085080
v -0.32890856 0.27655604 -0.31610078
v -0.32884857 0.29998603 -0.31616080
v -0.32884857 0.34686604 -0.31616080
v -0.32884857 0.34295604 -0.31616080
v -0.32890856 0.32342604 -0.31610078
v -0.32884857 0.36639604 -0.31616080
v -0.32884857 0.35076603 -0.31616080
v -0.34453857 0.20233603 -0.12095079
v -0.34452859 0.19842602 -0.12085080
v -0.34452859 0.20233603 -0.12085080
v -0.32884857 0.37030604 -0.31616080
v -0.32890856 0.37420604 -0.31610078
v -0.32884857 0.37420604 -0.31616080
v -0.32890856 0.36248603 -0.31610078
v -0.32884857 0.35858604 -0.31616080
v -0.32890856 0.37030604 -0.31610078
v -0.32890856 0.40936604 -0.31610078
v -0.33501038 0.39931661 -0.29386094
v -0.32890856 0.36639604 -0.31610078
v -0.32890856 0.37811604 -0.31610078
v -0.32884857 0.36248603 -0.31616080
v -0.32884857 0.43280604 -0.31616080
v -0.32890856 0.40155604 -0.31610078
v -0.34453857 0.19842602 -0.12095079
v -0.34453857 0.19451603 -0.12095079
v -0.34452859 0.19451603 -0.12085080
v -0.32884857 0.38983604 -0.31616080
v -0.32890856 0.43670604 -0.31610078
v -0.33168587 0.36271051 -0.31225061
v -0.32890856 0.42889604 -0.31610078
v -0.32890856 0.43280604 -0.31610078
v -0.34453857 0.27264604 -0.12095079
v -0.34453857 0.27655604 -0.12095079
v -0.32884857 0.41717604 -0.31616080
v -0.32890856 0.41717604 -0.31610078
v -0.32890856 0.42108604 -0.31610078
v -0.32084006 0.42500392 -0.32404721
v -0.32884857 0.42889604 -0.31616080
v -0.25859857 0.59295601 0.07831920
v -0.25859857 0.58905602 0.07831920
v -0.31876725 0.58785766 -0.29616591
v -0.28904730 -0.02368672 -0.25700167
v -0.34452859 0.08905604 -0.12085080
v -0.30148858 0.15545604 0.04319921
v -0.29765856 0.01093604 -0.33174077
v -0.34453857 0.16326603 -0.12095079
v -0.09740406 0.04012510 0.41867480
v -0.34453857 0.14764604 -0.12095079
v -0.34452859 0.15155604 -0.12085080
v -0.34453857 0.15155604 -0.12095079
v -0.29375857 0.00956603 -0.33179080
v -0.28406093 0.17129815 0.05798043
v -0.34890366 0.15174913 -0.16207461
v -0.34453857 0.14373603 -0.12095079
v -0.34453857 0.22967602 -0.12095079
v -0.34452859 0.22967602 -0.12085080
v -0.34453857 0.23358603 -0.12095079
v -0.34452859 0.13201603 -0.12085080
v -0.34453857 0.19061603 -0.12095079
v -0.34452859 0.12030604 -0.12085080
v -0.34410858 0.08905604 -0.11694079
v -0.34452859 0.09295603 -0.12085080
v -0.34452859 0.09686603 -0.12085080
v -0.34453857 0.09686603 -0.12095079
v -0.34452859 0.10076604 -0.12085080
v -0.34453857 0.16717602 -0.12095079
v -0.34453857 0.12030604 -0.12095079
v -0.34453857 0.11639604 -0.12095079
v -0.34452859 0.17108603 -0.12085080
v -0.34452859 0.17498603 -0.12085080
v -0.29375857 0.01093604 -0.33565080
v -0.29761857 0.01093604 -0.33179080
v -0.34452859 0.11639604 -0.12085080
v -0.34453857 0.29608604 -0.12095079
v -0.34452859 0.29217604 -0.12085080
v -0.34452859 0.29608604 -0.12085080
v -0.34453857 0.15936603 -0.12095079
v -0.34452859 0.15936603 -0.12085080
v -0.30156857 0.16717602 0.04313921
v -0.30156857 0.17108603 0.04313921
v -0.34452859 0.27655604 -0.12085080
v -0.34452859 0.28045604 -0.12085080
v -0.34452859 0.22576603 -0.12085080
v -0.34452859 0.27264604 -0.12085080
v -0.31809232 0.25388959 -0.32672295
v -0.34452859 0.19061603 -0.12085080
v -0.34453857 0.28826603 -0.12095079
v -0.30466497 0.08929686 -0.34299940
v -0.34452859 0.21405604 -0.12085080
v -0.34453857 0.21405604 -0.12095079
v -0.34452859 0.21795604 -0.12085080
v -0.34452859 0.22186603 -0.12085080
v -0.34453857 0.29998603 -0.12095079
v -0.32938927 0.30183104 0.01467046
v -0.34452859 0.26873603 -0.12085080
v -0.34453857 0.26873603 -0.12095079
v -0.34452859 0.26483604 -0.12085080
v -0.24560793 0.19320704 0.09059348
v -0.34453857 0.21795604 -0.12095079
v -0.34453857 0.30389604 -0.12095079
v -0.34453857 0.24139602 -0.12095079
v -0.34453857 0.23748603 -0.12095079
v -0.31647727 0.32533067 -0.32828170
v -0.27428642 0.37862390 -0.37226650
v -0.21839587 0.57911873 0.11023909
v -0.25643870 0.71015608 -0.19497810
v -0.27354616 0.74949539 -0.11233736
v -0.27812856 0.78045601 -0.12865078
v -0.27422857 0.78045601 -0.12865078
v -0.28210577 0.78050566 -0.12871993
v -0.28203857 0.78045601 -0.12865078
v -0.33834034 0.17932563 -0.06328464
v -0.34453857 0.15545604 -0.12095079
v -0.34452859 0.10467604 -0.12085080
v -0.34453857 0.11248603 -0.12095079
v -0.34452859 0.11248603 -0.12085080
v -0.34452859 0.15545604 -0.12085080
v -0.34453857 0.12420603 -0.12095079
v -0.34453857 0.13983603 -0.12095079
v -0.27567661 0.12821645 0.06513413
v -0.34452859 0.16326603 -0.12085080
v -0.34452859 0.10858603 -0.12085080
v -0.34453857 0.17108603 -0.12095079
v -0.34453857 0.20623603 -0.12095079
v -0.34452859 0.16717602 -0.12085080
v -0.34453857 0.17498603 -0.12095079
v -0.34452859 0.23748603 -0.12085080
v -0.34452859 0.24139602 -0.12085080
v -0.23131858 0.13592604 0.10179920
v -0.29024106 0.08184197 0.05884053
v -0.22658858 0.13983603 0.10569921
v -0.23139657 0.13999081 0.10180988
v -0.23125857 0.13983603 0.10192921
v -0.34452859 0.26092604 -0.12085080
v -0.25073722 0.17447457 0.08613875
v -0.25069857 0.17498603 0.08616920
v -0.25078857 0.17889602 0.08611920
v -0.25078857 0.18280604 0.08614921
v -0.25072858 0.17889602 0.08616920
v -0.25075859 0.18280604 0.08616920
v -0.34452859 0.23358603 -0.12085080
v -0.34453857 0.25701603 -0.12095079
v -0.34453857 0.24530604 -0.12095079
v -0.34453857 0.28436604 -0.12095079
v -0.34453857 0.28045604 -0.12095079
v -0.25539857 0.18670604 0.08226920
v -0.24566063 0.23579089 0.08922100
v -0.21574858 0.21405604 0.11351920
v -0.34452859 0.28826603 -0.12085080
v -0.34452859 0.28436604 -0.12085080
v -0.34453857 0.26092604 -0.12095079
v -0.21564151 0.21253954 0.11361039
v -0.34452859 0.24530604 -0.12085080
v -0.34453857 0.25311604 -0.12095079
v -0.34452859 0.24920604 -0.12085080
v -0.34453857 0.26483604 -0.12095079
v -0.34453857 0.24920604 -0.12095079
v -0.34453857 0.30780604 -0.12095079
v -0.34453857 0.31170604 -0.12095079
v -0.19598791 0.23118278 0.12977421
v -0.34452859 0.29998603 -0.12085080
v -0.22344857 0.35076603 0.10519921
v -0.22734858 0.35237604 0.10179920
v -0.22734858 0.35076603 0.10181921
v -0.23289011 0.17928541 0.10075778
v -0.34452859 0.30389604 -0.12085080
v -0.25099128 0.34640551 0.08143084
v -0.26098263 0.31971833 0.07632009
v -0.20779285 0.31147158 0.11922042
v -0.25921229 0.58484548 0.07781830
v -0.25854859 0.58514601 0.07835921
v -0.25854859 0.58905602 0.07835921
v -0.25381857 0.58905602 0.08226920
v -0.20316409 0.71643710 0.10274081
v -0.28203857 0.77655602 -0.12546079
v -0.28203857 0.78046602 -0.12866080
v -0.27812856 0.78046602 -0.12866080
v -0.24898049 0.12929758 0.08707753
v -0.21568857 0.22186603 0.11351920
v -0.21571857 0.21795604 0.11351920
v -0.21562858 0.22186603 0.11356920
v -0.21562858 0.21795604 0.11358920
v -0.23125857 0.13592604 0.10184920
v -0.23125857 0.13348605 0.10179920
v -0.34251055 0.34590429 -0.09934922
v -0.25078857 0.18730605 0.08616920
v -0.25078857 0.18670604 0.08616920
v -0.25077856 0.18670604 0.08616920
v -0.21562858 0.23036604 0.11351920
v -0.22734858 0.34686604 0.10186921
v -0.22749858 0.34295604 0.10179920
v -0.34453857 0.29217604 -0.12095079
v -0.21782622 0.23370275 0.11147279
v -0.18727098 0.21367934 0.13704273
v -0.34452859 0.30780604 -0.12085080
v -0.22737858 0.35076603 0.10179920
v -0.22743857 0.34686604 0.10179920
v -0.25854859 0.59295601 0.07835921
v -0.23311797 0.81167054 -0.44246584
v -0.24634488 0.59930819 0.08843585
v -0.25862533 0.59324676 0.07829722
v -0.27244061 0.81923646 -0.14221834
v -0.23316187 0.87422442 0.00293154
v -0.26772317 0.86309636 -0.01569381
v -0.22738118 0.88200128 0.00018684
v -0.22344857 0.88592601 0.00031921
v -0.22343610 0.88597065 0.00028134
v -0.22734077 0.88200372 0.00025082
v -0.22733857 0.88201600 0.00023921
v -0.21744080 0.93714565 -0.06490214
v -0.21965857 0.88983601 0.00023921
v -0.24755026 0.93346524 -0.19114922
v -0.18951139 0.17950550 0.13502590
v -0.18756858 0.18670604 0.13694921
v -0.18828857 0.20233603 0.13625921
v -0.19219857 0.19451603 0.13308921
v -0.18744858 0.20233603 0.13694921
v -0.19219857 0.19842602 0.13305920
v -0.19219857 0.20623603 0.13301921
v -0.19218858 0.20233603 0.13304920
v -0.19215858 0.20623603 0.13304920
v -0.19219857 0.20233603 0.13303921
v -0.19226858 0.19061603 0.13304920
v -0.19223857 0.19451603 0.13304920
v -0.21566857 0.22576603 0.11351920
v -0.21562858 0.22576603 0.11353921
v -0.20989650 0.20993397 0.11837235
v -0.19219857 0.21014602 0.13298921
v -0.21563858 0.22967602 0.11351920
v -0.21562858 0.22967602 0.11351920
v -0.19220857 0.19842602 0.13304920
v -0.19219857 0.20097603 0.13304920
v -0.09708042 0.48235741 0.20968580
v -0.20270750 0.41934052 0.12190638
v -0.20033923 0.88415158 0.03631265
v -0.01640858 -0.18048397 -0.05444080
v -0.02031858 -0.18048397 -0.05444080
v -0.12648781 0.08986363 0.19254623
v -0.15066531 0.17490900 0.16675255
v -0.03594858 -0.18048397 -0.05444080
v -0.03984858 -0.18047395 -0.05442079
v -0.26434898 -0.18982819 -0.14614514
v -0.03978858 0.69842601 -0.40991080
v -0.03984858 0.70233601 -0.40990081
v -0.03978858 0.70233601 -0.40991080
v -0.11242224 0.80139542 -0.40271929
v -0.02031858 -0.18047395 -0.05442079
v -0.07511850 0.01873281 0.19566223
v -0.08916561 -0.02778526 0.15558256
v -0.18299007 0.20828545 0.14060105
v -0.07109858 0.69842601 -0.40368080
v -0.05942858 0.69061601 -0.40601078
v -0.05942858 0.68670601 -0.40601078
v -0.05937858 0.68670601 -0.40601078
v -0.03984858 0.70623600 -0.40990081
v -0.05937858 0.71795601 -0.40601078
v -0.05937858 0.71405602 -0.40601078
v -0.05942858 0.71795601 -0.40601078
v -0.05942858 0.74139601 -0.40601078
v -0.05942858 0.73748600 -0.40601078
v -0.05937858 0.73748600 -0.40601078
v -0.05937858 0.68280602 -0.40601078
v -0.05942858 0.68280602 -0.40601078
v -0.06328858 0.67889845 -0.40524080
v -0.02422858 -0.18048397 -0.05444080
v -0.02812858 -0.18048397 -0.05444080
v -0.03594858 -0.18047395 -0.05442079
v -0.01051031 -0.12196522 -0.00770135
v 0.01483142 -0.47348395 0.16038921
v 0.02459587 -0.47595397 0.15648919
v 0.01873142 -0.47348395 0.16038921
v -0.03203858 -0.18047395 -0.05442079
v -0.02422858 -0.18047395 -0.05442079
v -0.11070825 -0.39176559 0.12233669
v -0.01640858 -0.18047395 -0.05442079
v -0.06626804 0.02265802 0.19797517
v -0.07768589 0.02265654 0.19830912
v -0.07500857 0.01874604 0.19566920
v -0.07253619 0.01559041 0.19180807
v -0.07109858 0.01873604 0.19554920
v -0.07109858 0.01874604 0.19556920
v -0.07043857 0.01874604 0.19554920
v -0.20440771 0.22686026 0.12280258
v -0.05937858 0.76092601 -0.40601078
v -0.05937858 0.75701600 -0.40601078
v -0.05942858 0.76092601 -0.40601078
v -0.05937858 0.71014601 -0.40601078
v -0.05942858 0.71405602 -0.40601078
v 0.01873142 -0.47344396 0.16041921
v 0.02264142 -0.47344396 0.16041921
v 0.02264142 -0.47348395 0.16038921
v -0.05942858 0.67889601 -0.40601078
v -0.05937858 0.67889601 -0.40601078
v -0.05937858 0.67498600 -0.40601078
v -0.05942858 0.73358601 -0.40601078
v -0.05942858 0.72967601 -0.40601078
v -0.05937858 0.72967601 -0.40601078
v -0.05942858 0.70233601 -0.40601078
v -0.05942858 0.69842601 -0.40601078
v -0.05937858 0.69842601 -0.40601078
v -0.05942858 0.75701600 -0.40601078
v -0.03984858 0.69842601 -0.40990081
v -0.05937858 0.70233601 -0.40601078
v -0.05942858 0.72186601 -0.40601078
v -0.10300801 0.74809176 -0.39737147
v -0.03203858 -0.18048397 -0.05444080
v -0.05942858 0.71014601 -0.40601078
v -0.05937858 0.74530602 -0.40601078
v -0.05937858 0.74139601 -0.40601078
v -0.05942858 0.74530602 -0.40601078
v -0.05937858 0.70623600 -0.40601078
v -0.01067258 -0.47545666 0.15701795
v 0.05501779 -0.47677138 0.15182221
v -0.03984858 -0.18047789 -0.05442866
v -0.02812858 -0.18047395 -0.05442079
v -0.00859858 -0.18828396 -0.06611079
v -0.01250858 -0.18048397 -0.05444080
v -0.00859858 -0.18048397 -0.05444080
v -0.01250858 -0.18047395 -0.05442079
v -0.05534751 -0.17555481 -0.04723893
v -0.00859858 -0.18047395 -0.05442079
v 0.00311142 -0.18047395 -0.05442079
v 0.00701142 -0.18048397 -0.05444080
v -0.01413887 -0.19127871 -0.07079239
v -0.05158119 0.65872681 -0.40771970
v -0.05942858 0.70623600 -0.40601078
v -0.05937858 0.72186601 -0.40601078
v -0.10097832 0.63875210 -0.40108204
v -0.03978858 0.71405602 -0.40991080
v -0.03984858 0.71405602 -0.40990081
v -0.03984858 0.71795601 -0.40990081
v -0.05937858 0.69451600 -0.40601078
v -0.05060598 0.78544271 -0.40791246
v -0.05937858 0.74920601 -0.40601078
v -0.05942858 0.74920601 -0.40601078
v -0.05937858 0.72576600 -0.40601078
v -0.03984858 0.69451600 -0.40990081
v -0.03978858 0.69451600 -0.40991080
v -0.04913224 0.69581544 -0.40805516
v -0.03978858 0.68280602 -0.40991080
v -0.03984858 0.68670601 -0.40990081
v -0.03978858 0.68670601 -0.40991080
v -0.03978858 0.69061601 -0.40991080
v -0.03984858 0.69061601 -0.40990081
v -0.03984858 0.71014601 -0.40990081
v -0.03978858 0.70623600 -0.40991080
v -0.03978858 0.72186601 -0.40991080
v -0.03984858 0.72576600 -0.40990081
v -0.03978858 0.72576600 -0.40991080
v -0.05937858 0.73358601 -0.40601078
v -0.03978858 0.71014601 -0.40991080
v -0.05942858 0.72576600 -0.40601078
v -0.05942858 0.69451600 -0.40601078
v -0.05942858 0.75311601 -0.40601078
v -0.03978858 0.73748600 -0.40991080
v -0.03978858 0.74139601 -0.40991080
v -0.03984858 0.72186601 -0.40990081
v -0.05937858 0.69061601 -0.40601078
v -0.03978858 0.71795601 -0.40991080
v -0.05942858 0.76483601 -0.40601078
v -0.05937858 0.76483601 -0.40601078
v -0.03984858 0.74530602 -0.40990081
v -0.03978858 0.74530602 -0.40991080
v -0.03984858 0.74139601 -0.40990081
v -0.03984858 0.74920601 -0.40990081
v -0.05937858 0.75311601 -0.40601078
v -0.05942858 0.76873600 -0.40601078
v 0.01678142 -0.46953395 0.16067921
v 0.00701142 -0.18831398 -0.06616079
v -0.03978858 0.73358601 -0.40991080
v -0.00514962 0.72097147 -0.41687933
v -0.03980601 0.74976838 -0.40990788
v 0.03045142 -0.47344396 0.16041921
v 0.03045142 -0.47348395 0.16038921
v 0.03436142 -0.47348395 0.16038921
v -0.03978858 0.72967601 -0.40991080
v -0.04979597 0.73595858 -0.40792364
v -0.03984858 0.72967601 -0.40990081
v 0.04990313 -0.18120641 -0.03385800
v 0.01483142 -0.18437397 -0.06027079
v 0.04513008 -0.19172078 -0.07154030
v 0.01092142 -0.47348395 0.16038921
v 0.00701142 -0.47344396 0.16041921
v 0.00701142 -0.47348395 0.16038921
v 0.01092142 -0.47344396 0.16041921
v -0.00469858 -0.18047395 -0.05442079
v -0.00079858 -0.18047395 -0.05442079
v -0.00079858 -0.18437397 -0.06027079
v 0.00701142 -0.18828396 -0.06611079
v 0.01483142 -0.47344396 0.16041921
v 0.02655142 -0.47344396 0.16041921
v -0.00469858 -0.18048397 -0.05444080
v -0.00079858 -0.18048397 -0.05444080
v 0.02655142 -0.47348395 0.16038921
v 0.02549524 0.00605380 0.18642868
v 0.01092142 -0.18831398 -0.06616079
v 0.00701142 -0.18047722 -0.05442733
v -0.03984858 0.73748600 -0.40990081
v -0.02352947 0.65578067 -0.41309848
v 0.00311142 -0.47344396 0.16041921
v 0.00311142 -0.18048397 -0.05444080
v 0.15784158 -0.23768808 -0.11607762
v -0.03984858 0.73358601 -0.40990081
v 0.03436142 -0.47344396 0.16041921
v 0.03826142 -0.47348395 0.16038921
v 0.06711262 -0.46314928 0.15262040
v 0.12052102 -0.09010954 0.10578847
v 0.12058142 -0.09062396 0.10569921
v 0.18622433 0.02465912 0.14482398
v 0.12139590 -0.20081110 0.11014584
v 0.12027568 -0.09430130 0.10570071
v 0.19058749 0.19454138 -0.42545161
v 0.12871547 0.81630421 -0.37867442
v 0.05338997 0.82854748 -0.42646322
v 0.10858142 0.80780602 -0.39827079
v 0.10869142 0.80780602 -0.39819077
v 0.10869142 0.80389601 -0.39819077
v 0.12030142 -0.09405396 0.10569921
v 0.07859694 -0.06098298 0.12602907
v 0.08357112 -0.11986545 -0.36326218
v 0.14161076 -0.08939106 0.10334475
v 0.12459140 -0.09473557 0.10213769
v 0.21554726 0.37449643 -0.43928307
v 0.10869142 0.79998600 -0.39819077
v 0.10858142 0.80389601 -0.39827079
v 0.10834217 0.80790544 -0.39842230
v 0.11248142 0.80780602 -0.39566082
v 0.15107712 -0.07959523 -0.37077257
v 0.15541303 -0.07503276 -0.37087882
v 0.17115308 -0.07069017 -0.36325622
v 0.16717142 -0.06719396 -0.36819077
v 0.18101142 -0.09062396 -0.34351078
v 0.17889142 -0.08685397 -0.34741080
v 0.17902142 -0.08672396 -0.34741080
v 0.15832859 -0.08510674 -0.36237064
v 0.16717142 -0.07109396 -0.36562079
v 0.16718143 -0.07500396 -0.36304080
v 0.15936142 -0.07109396 -0.37084082
v 0.15549143 -0.07500396 -0.37085080
v 0.15934142 -0.07109396 -0.37085080
v 0.19451143 0.19061603 -0.42540079
v 0.19457728 0.19070365 -0.42553151
v 0.16717142 -0.07501397 -0.36304080
v 0.16326143 -0.07304397 -0.36694077
v 0.24122351 0.36378831 0.10581945
v 0.15936142 -0.08281397 -0.36312079
v 0.19062722 0.19461486 -0.42554572
v 0.19285084 -0.03393544 -0.36502537
v 0.15735142 -0.06719396 -0.37476078
v 0.15936142 -0.07107397 -0.37085080
v 0.18672149 -0.07890389 -0.34741074
v 0.18670143 -0.07890397 -0.34742081
v 0.15312429 -0.06339471 -0.38035208
v 0.16733143 -0.08672396 -0.35522079
v 0.17108142 -0.08281397 -0.35529080
v 0.17108142 -0.08291397 -0.35522079
v 0.16333142 -0.07890397 -0.36304080
v 0.16717142 -0.07500396 -0.36305082
v 0.16326143 -0.07890397 -0.36308080
v 0.16918142 -0.07890397 -0.35913080
v 0.16324326 -0.06713675 -0.37085155
v 0.17498143 -0.07500396 -0.35783079
v 0.17502829 -0.07890692 -0.35522079
v 0.17498143 -0.07890397 -0.35525078
v 0.15948142 -0.08281397 -0.36304080
v 0.18281910 -0.09403514 -0.33876047
v 0.16974477 -0.09067998 -0.35107517
v 0.18670143 -0.07500396 -0.35000080
v 0.16326143 -0.07897397 -0.36304080
v 0.17118143 -0.08281397 -0.35522079
v 0.18280143 -0.08281397 -0.34746078
v 0.17889142 -0.08672396 -0.34750080
v 0.17702143 -0.08281397 -0.35132080
v 0.17108142 -0.07109396 -0.36301079
v 0.16326143 -0.06719396 -0.37080079
v 0.19859278 -0.06185125 -0.34771299
v 0.18670143 -0.08281397 -0.34430078
v 0.18287143 -0.08281397 -0.34741080
v 0.17517142 -0.09062396 -0.34741080
v 0.18273637 -0.08295820 -0.34740570
v 0.22700854 0.14312527 0.09273078
v 0.20294595 0.04458780 0.39453211
v 0.18735142 0.20233603 -0.42944077
v 0.19451143 0.18670604 -0.42200077
v 0.24920142 0.19451603 0.07441921
v 0.24920142 0.19061603 0.07441921
v 0.24916142 0.19451603 0.07444921
v 0.20725681 0.30579394 0.12663458
v 0.18656310 0.18643831 -0.41940957
v 0.18171276 -0.07226000 -0.35513645
v 0.19071142 0.19451603 -0.42554080
v 0.27645144 0.32342604 0.48460919
v 0.27655143 0.31956604 0.48851919
v 0.27655143 0.32342604 0.48469919
v 0.11751239 0.78530073 -0.38913172
v 0.23799330 0.18721287 -0.42075336
v 0.18022595 0.91144270 -0.34538853
v 0.20237142 0.88201600 -0.35522079
v 0.22194143 0.05389604 0.42210919
v 0.22194143 0.05389604 0.41819918
v 0.24920142 0.14764604 0.07441921
v 0.22194143 0.05389604 0.42601919
v 0.22190142 0.05386604 0.43187419
v 0.22186142 0.05383603 0.42210919
v 0.22164012 0.05369401 0.42664781
v 0.24920142 0.12030604 0.07441921
v 0.24917756 0.11981669 0.07443704
v 0.22186142 0.05383603 0.42601919
v 0.24916142 0.19842602 0.07444921
v 0.24920142 0.19842602 0.07441921
v 0.24916142 0.20233603 0.07444921
v 0.31951141 0.37030604 0.01593921
v 0.31957144 0.37030604 0.01585921
v 0.31951141 0.37420604 0.01593921
v 0.27556607 0.32336625 0.48378769
v 0.14084283 0.61625892 -0.46713167
v 0.26855546 0.11065799 0.05843696
v 0.12984623 0.86718976 0.09215028
v 0.20251659 0.87475282 -0.36538571
v 0.20233142 0.88201600 -0.35529080
v 0.20229232 0.88232756 -0.35491365
v 0.21005143 0.87420601 -0.35522079
v 0.20621143 0.87811601 -0.35522079
v 0.20625539 0.87815273 -0.35510150
v 0.20620936 0.87808836 -0.35526511
v 0.20376439 0.87090474 -0.37009582
v 0.23437716 0.87156892 -0.32522434
v 0.29661560 0.08626812 0.03910593
v 0.24916142 0.15155604 0.07444921
v 0.24920142 0.15155604 0.07441921
v 0.24916142 0.15545604 0.07444921
v 0.24920142 0.13592604 0.07441921
v 0.24920142 0.13983603 0.07441921
v 0.24916142 0.13983603 0.07444921
v 0.24920142 0.17108603 0.07441921
v 0.24916142 0.15936603 0.07444921
v 0.24916142 0.13201603 0.07444921
v 0.24916142 0.13592604 0.07444921
v 0.24916142 0.20623603 0.07444921
v 0.24916142 0.16717602 0.07444921
v 0.24916142 0.16326603 0.07444921
v 0.26483142 0.34295604 0.07063921
v 0.26478142 0.34686604 0.07054920
v 0.26484147 0.34692398 0.07054765
v 0.24920142 0.15545604 0.07441921
v 0.24916142 0.21405604 0.07444921
v 0.24035242 0.19611306 0.08172997
v 0.26172143 0.34686604 0.07444921
v 0.31951141 0.42498603 0.01593921
v 0.27654451 0.31953755 0.48853725
v 0.26873142 0.33905604 0.09006921
v 0.26854524 0.33492279 0.08620444
v 0.26873142 0.33514604 0.08642921
v 0.22959398 0.67911536 -0.36401057
v 0.27655143 0.32350606 0.48460919
v 0.28045142 0.32348603 0.48851919
v 0.28038141 0.32342604 0.48851919
v 0.31951141 0.38592604 0.01593921
v 0.31951141 0.18280604 0.01593921
v 0.28045142 0.32342604 0.48856920
v 0.31951141 0.48358604 0.01593921
v 0.38567457 0.63471299 -0.08242226
v 0.24916142 0.14373603 0.07444921
v 0.24916142 0.12811603 0.07444921
v 0.24920142 0.14373603 0.07441921
v 0.24916142 0.14764604 0.07444921
v 0.21404955 0.03849862 0.46901253
v 0.26891521 0.07564456 0.39369521
v 0.24920142 0.20233603 0.07441921
v 0.24920142 0.18280604 0.07441921
v 0.24920142 0.18670604 0.07441921
v 0.24916142 0.18670604 0.07444921
v 0.24920142 0.16326603 0.07441921
v 0.33070141 0.09686603 -0.03491079
v 0.33123142 0.10076604 -0.03497079
v 0.24916142 0.12420603 0.07444921
v 0.31528267 0.15405424 0.00492014
v 0.24920142 0.13201603 0.07441921
v 0.24916142 0.19061603 0.07444921
v 0.24920142 0.12811603 0.07441921
v 0.24920142 0.12420603 0.07441921
v 0.24920142 0.16717602 0.07441921
v 0.24920142 0.17498603 0.07441921
v 0.24916142 0.17498603 0.07444921
v 0.24916142 0.17108603 0.07444921
v 0.33123106 0.10075206 -0.03480368
v 0.24916142 0.17889602 0.07444921
v 0.31957144 0.18280604 0.01585921
v 0.31951141 0.18670604 0.01593921
v 0.24920142 0.17889602 0.07441921
v 0.24916142 0.18280604 0.07444921
v 0.24920142 0.15936603 0.07441921
v 0.32588932 0.08946027 0.00843141
v 0.26268873 0.33671311 0.08208413
v 0.31957144 0.22186603 0.01585921
v 0.31951141 0.24920604 0.01593921
v 0.31957144 0.24920604 0.01585921
v 0.31951141 0.25311604 0.01593921
v 0.31556016 0.18319763 0.01954087
v 0.31707829 0.21185479 0.00475952
v 0.31957144 0.13201603 0.01585921
v 0.26494142 0.33905604 0.07054920
v 0.26483142 0.33905604 0.07133920
v 0.26488143 0.34295604 0.07054920
v 0.26861978 0.33913714 0.09011073
v 0.26483142 0.34686604 0.07050921
v 0.26981312 0.33382279 0.08640018
v 0.26876143 0.33905604 0.09007921
v 0.26092142 0.34686604 0.07375920
v 0.26483142 0.34295604 0.07050921
v 0.27077919 0.34066451 0.09129084
v 0.26483142 0.33905604 0.07050921
v 0.26873142 0.33514604 0.06962920
v 0.28080425 0.33754513 0.08825087
v 0.28436142 0.32342604 0.48952919
v 0.34295142 0.58123600 -0.28359079
v 0.26486143 0.34686604 0.07054920
v 0.29049698 0.33761898 0.47328761
v 0.31957144 0.44061604 0.01585921
v 0.31957144 0.44451603 0.01585921
v 0.31951141 0.44451603 0.01593921
v 0.31951141 0.36248603 0.01593921
v 0.31957144 0.36248603 0.01585921
v 0.31951141 0.36639604 0.01593921
v 0.31957144 0.31951603 0.01585921
v 0.31957144 0.22576603 0.01585921
v 0.31951141 0.22576603 0.01593921
v 0.31951141 0.45623603 0.01593921
v 0.31957144 0.45623603 0.01585921
v 0.31951141 0.46014604 0.01593921
v 0.31951141 0.39764604 0.01593921
v 0.31951141 0.40155604 0.01593921
v 0.29329476 0.38575819 0.05500189
v 0.31951141 0.38983604 0.01593921
v 0.31951141 0.39373603 0.01593921
v 0.31957144 0.38983604 0.01585921
v 0.31951141 0.44061604 0.01593921
v 0.31957144 0.29608604 0.01585921
v 0.31957144 0.29998603 0.01585921
v 0.31951141 0.29998603 0.01593921
v 0.31957144 0.19842602 0.01585921
v 0.31957144 0.20233603 0.01585921
v 0.31951141 0.20233603 0.01593921
v 0.31951141 0.19451603 0.01593921
v 0.31951141 0.19842602 0.01593921
v 0.31957144 0.35076603 0.01585921
v 0.31957144 0.35467604 0.01585921
v 0.31951141 0.35467604 0.01593921
v 0.31951141 0.33123603 0.01593921
v 0.31957144 0.33123603 0.01585921
v 0.31951141 0.33514604 0.01593921
v 0.33514142 0.58509600 -0.28101078
v 0.33123142 0.10467604 -0.03491079
v 0.33123142 0.10076604 -0.03491079
v 0.31951141 0.15545604 0.01593921
v 0.31951141 0.15936603 0.01593921
v 0.31957144 0.13983603 0.01585921
v 0.31957144 0.14373603 0.01585921
v 0.31951141 0.14373603 0.01593921
v 0.31951141 0.14764604 0.01593921
v 0.71014142 -0.03589396 -0.18726079
v 0.31951141 0.26092604 0.01593921
v 0.31957144 0.19451603 0.01585921
v 0.31951141 0.21405604 0.01593921
v 0.31951141 0.21795604 0.01593921
v 0.31951141 0.26873603 0.01593921
v 0.55389142 0.13587604 0.35960919
v 0.31957144 0.38201603 0.01585921
v 0.31957144 0.38592604 0.01585921
v 0.31951141 0.22186603 0.01593921
v 0.31951141 0.24530604 0.01593921
v 0.31957144 0.24530604 0.01585921
v 0.31951141 0.33905604 0.01593921
v 0.29383892 0.24447691 0.03796561
v 0.31951141 0.20623603 0.01593921
v 0.31951141 0.21014602 0.01593921
v 0.31951141 0.26483604 0.01593921
v 0.31929141 0.17779697 0.01194921
v 0.31587142 0.29498446 0.00804421
v 0.31957144 0.19061603 0.01585921
v 0.31957144 0.28826603 0.01585921
v 0.31957144 0.28436604 0.01585921
v 0.31951141 0.28826603 0.01593921
v 0.31951141 0.19061603 0.01593921
v 0.26787159 0.33741960 0.07071648
v 0.31951141 0.25701603 0.01593921
v 0.27166754 0.31227374 0.48177022
v 0.26478142 0.34295604 0.07054920
v 0.31951141 0.38201603 0.01593921
v 0.31951141 0.31561604 0.01593921
v 0.31957144 0.25311604 0.01585921
v 0.31957144 0.21795604 0.01585921
v 0.28611928 0.38971645 -0.40235698
v 0.31957144 0.31561604 0.01585921
v 0.31951141 0.31951603 0.01593921
v 0.31957144 0.21405604 0.01585921
v 0.31951141 0.34686604 0.01593921
v 0.31951141 0.35076603 0.01593921
v 0.27663475 0.31678155 0.07731093
v 0.31957144 0.35858604 0.01585921
v 0.31951141 0.35858604 0.01593921
v 0.31957144 0.32342604 0.01585921
v 0.31957144 0.42108604 0.01585921
v 0.31957144 0.23358603 0.01585921
v 0.29353833 0.24960862 0.04499534
v 0.30119142 0.43158165 0.03148921
v 0.31957144 0.32733604 0.01585921
v 0.31957144 0.41717604 0.01585921
v 0.31951141 0.32733604 0.01593921
v 0.31170142 0.47967604 -0.41386080
v 0.31170142 0.47349605 -0.41382080
v 0.30780002 0.47353569 -0.41209784
v 0.31951141 0.22967602 0.01593921
v 0.31957144 0.42498603 0.01585921
v 0.31957144 0.42889604 0.01585921
v 0.31951141 0.42889604 0.01593921
v 0.31951141 0.40936604 0.01593921
v 0.31951141 0.37811604 0.01593921
v 0.31957144 0.34686604 0.01585921
v 0.31951141 0.28436604 0.01593921
v 0.31957144 0.37420604 0.01585921
v 0.31957144 0.37811604 0.01585921
v 0.31833142 0.26825041 0.00174014
v 0.31957144 0.39764604 0.01585921
v 0.31170142 0.47576603 -0.41383079
v 0.31951141 0.43280604 0.01593921
v 0.32985705 0.54857159 -0.30485842
v 0.31951141 0.40545604 0.01593921
v 0.31951141 0.34295604 0.01593921
v 0.31164762 0.48843822 -0.41388369
v 0.31153142 0.48748603 -0.41382080
v 0.31158143 0.48358604 -0.41382080
v 0.33514142 0.56170601 -0.29664081
v 0.33905143 0.56170601 -0.29664081
v 0.33514142 0.55586600 -0.30054080
v 0.33514142 0.56171602 -0.29663080
v 0.27412081 0.63622981 -0.40390754
v 0.32342142 0.56170601 -0.29666081
v 0.36379009 0.55035645 -0.30422798
v 0.32733142 0.57733601 -0.28620082
v 0.32733142 0.57925600 -0.28491080
v 0.33123142 0.58514601 -0.28097081
v 0.32731000 0.58518571 -0.28094941
v 0.31951141 0.46795604 0.01593921
v 0.31951141 0.47186604 0.01593921
v 0.34295142 0.57340604 -0.28882080
v 0.33905143 0.57340604 -0.28882080
v 0.33905143 0.57342601 -0.28881082
v 0.32733142 0.58123600 -0.28359079
v 0.31957144 0.36639604 0.01585921
v 0.31951141 0.17889602 0.01593921
v 0.31957144 0.17889602 0.01585921
v 0.31951141 0.23358603 0.01593921
v 0.31951141 0.23748603 0.01593921
v 0.57566142 0.14764604 0.06663920
v 0.33123142 0.10858603 -0.03495080
v 0.31957144 0.15936603 0.01585921
v 0.31957144 0.16326603 0.01585921
v 0.31951141 0.16326603 0.01593921
v 0.31521830 0.23846573 0.00730327
v 0.31951141 0.30780604 0.01593921
v 0.31951141 0.31170604 0.01593921
v 0.30705515 0.09936040 0.03074620
v 0.31385013 0.16064250 0.02104804
v 0.31951141 0.16717602 0.01593921
v 0.31951141 0.17108603 0.01593921
v 0.31957144 0.14764604 0.01585921
v 0.26324326 0.18538822 0.06289145
v 0.31957144 0.15545604 0.01585921
v 0.33123142 0.10467604 -0.03497079
v 0.31951141 0.13983603 0.01593921
v 0.31951141 0.17498603 0.01593921
v 0.31957144 0.17498603 0.01585921
v 0.31957144 0.17108603 0.01585921
v 0.31957144 0.16717602 0.01585921
v 0.31957144 0.31170604 0.01585921
v 0.32601011 0.12219075 -0.04355816
v 0.55780143 0.16326603 0.14469920
v 0.55779141 0.16717602 0.14085920
v 0.31951141 0.15155604 0.01593921
v 0.31957144 0.15155604 0.01585921
v 0.31957144 0.13592604 0.01585921
v 0.31951141 0.13592604 0.01593921
v 0.58684140 0.13983603 0.01585921
v 0.31957144 0.20623603 0.01585921
v 0.31957144 0.21014602 0.01585921
v 0.31957144 0.18670604 0.01585921
v 0.31957144 0.33905604 0.01585921
v 0.31957144 0.25701603 0.01585921
v 0.31957144 0.26092604 0.01585921
v 0.31957144 0.26483604 0.01585921
v 0.31951141 0.29217604 0.01593921
v 0.31951141 0.24139602 0.01593921
v 0.31981221 0.41939098 0.00096097
v 0.31951141 0.32342604 0.01593921
v 0.31957144 0.30780604 0.01585921
v 0.31957144 0.29217604 0.01585921
v 0.31951141 0.28045604 0.01593921
v 0.31957144 0.23748603 0.01585921
v 0.31957144 0.22967602 0.01585921
v 0.31957144 0.40545604 0.01585921
v 0.31957144 0.40936604 0.01585921
v 0.31628641 0.33154526 0.00511671
v 0.31957144 0.26873603 0.01585921
v 0.31951141 0.27264604 0.01593921
v 0.31951141 0.30389604 0.01593921
v 0.31957144 0.24139602 0.01585921
v 0.31951141 0.27655604 0.01593921
v 0.31957144 0.27264604 0.01585921
v 0.31957144 0.27655604 0.01585921
v 0.31957144 0.28045604 0.01585921
v 0.31957144 0.33514604 0.01585921
v 0.31957144 0.34295604 0.01585921
v 0.31957144 0.30389604 0.01585921
v 0.31957144 0.39373603 0.01585921
v 0.38453946 0.05749926 -0.24548368
v 0.31957144 0.43280604 0.01585921
v 0.31951141 0.43670604 0.01593921
v 0.31951141 0.29608604 0.01593921
v 0.31167144 0.47576603 -0.41382080
v 0.31951141 0.41717604 0.01593921
v 0.31951141 0.42108604 0.01593921
v 0.31957144 0.41326603 0.01585921
v 0.31710142 0.37774822 0.00489217
v 0.31957144 0.40155604 0.01585921
v 0.31951141 0.41326603 0.01593921
v 0.31957144 0.46795604 0.01585921
v 0.31163141 0.47967604 -0.41382080
v 0.31951141 0.46405604 0.01593921
v 0.31957144 0.47576603 0.01585921
v 0.31957144 0.47967604 0.01585921
v 0.31951141 0.47967604 0.01593921
v 0.31951141 0.47576603 0.01593921
v 0.31170142 0.48358604 -0.41388077
v 0.31957144 0.43670604 0.01585921
v 0.31957144 0.45233604 0.01585921
v 0.36639142 0.56170601 -0.29664081
v 0.36248142 0.56170601 -0.29664081
v 0.36248142 0.56171602 -0.29663080
v 0.36639142 0.55586600 -0.30054080
v 0.34295142 0.56170601 -0.29664081
v 0.34295142 0.56171602 -0.29663080
v 0.34686142 0.56170601 -0.29664081
v 0.34295142 0.55586600 -0.30054080
v 0.31951141 0.44842604 0.01593921
v 0.32733142 0.58514601 -0.28097081
v 0.35858142 0.55586600 -0.30054080
v 0.31951100 0.47138780 0.01039228
v 0.31957144 0.46405604 0.01585921
v 0.31957144 0.44842604 0.01585921
v 0.31951141 0.45233604 0.01593921
v 0.31957144 0.46014604 0.01585921
v 0.29967695 0.46720988 0.03821176
v 0.31957144 0.47186604 0.01585921
v 0.33905143 0.56171602 -0.29663080
v 0.35076141 0.56170601 -0.29664081
v 0.34686142 0.56171602 -0.29663080
v 0.35076141 0.56171602 -0.29663080
v 0.37030149 0.56171989 -0.29662687
v 0.35076141 0.55586600 -0.30054080
v 0.35467142 0.56170601 -0.29664081
v 0.35858142 0.56170601 -0.29664081
v 0.35858142 0.56171602 -0.29663080
v 0.33514142 0.57342601 -0.28881082
v 0.32733142 0.55780602 -0.29925081
v 0.33123142 0.56171602 -0.29663080
v 0.32733142 0.56170601 -0.29664081
v 0.32733142 0.56171602 -0.29663080
v 0.33514029 0.57340646 -0.28882098
v 0.32638562 0.57297301 -0.29100728
v 0.35858217 0.59590292 -0.27540955
v 0.33123142 0.56170601 -0.29664081
v 0.35467142 0.56171602 -0.29663080
v 0.33123142 0.58509600 -0.28101078
v 0.32733142 0.58509600 -0.28101078
v 0.32733142 0.57342601 -0.28881082
v 0.37030143 0.56170601 -0.29664081
v 0.36639142 0.56171602 -0.29663080
v 0.58905149 0.14781339 -0.00362830
v 0.54652816 0.14267783 0.27054363
v 0.34041688 0.47017622 -0.45085984
v 0.37420142 0.56561601 -0.29403079
v 0.55778140 0.16326603 0.14476921
v 0.55779141 0.17108603 0.13694921
v 0.55780154 0.16712722 0.14085765
v 0.34425130 0.53838515 -0.30731255
v 0.39404100 0.56671876 -0.28816882
v 0.27014247 0.81849253 -0.41697589
v 0.54232317 0.14413197 0.36313617
v 0.56001145 0.15936603 0.13694921
v 0.57347202 0.15983848 0.06595024
v 0.57727450 0.14568353 0.06015661
v 0.35522330 0.56900024 -0.29176307
v 0.55388141 0.13592604 0.36351919
v 0.55389142 0.13592604 0.36432919
v 0.55377144 0.13592604 0.35569918
v 0.58905143 0.13983603 0.00429921
v 0.58905143 0.13998604 0.00413921
v 0.58907145 0.13983603 0.00413921
v 0.55705142 0.17889602 0.13304920
v 0.55835587 0.13215730 0.30326238
v 0.55382144 0.13592604 0.35960919
v 0.57731706 0.13660088 0.06959959
v 0.58905143 0.13213605 0.01194921
v 0.58907145 0.13592604 0.00804921
v 0.58905143 0.13592604 0.00817921
v 0.54662859 0.21305017 0.16292188
v 0.57268143 0.14764604 0.08226920
v 0.51368028 -0.63407862 0.09107024
v 0.58345258 0.11448129 0.31126443
v 0.57342142 0.14764604 0.07837920
v 0.57342142 0.14766604 0.07835921
v 0.57342142 0.14764604 0.07835921
v 0.55780143 0.15936603 0.14857921
v 0.55780572 0.17104967 0.13694456
v 0.55378479 0.13588050 0.35551715
v 0.68100935 -0.88454294 -0.11469429
v 0.58906686 0.13124238 0.01275096
v 0.58832145 0.13201603 0.01585921
v 0.56439674 0.15275951 0.10717136
v 0.57342142 0.14373603 0.08226920
v 0.57068694 0.17797032 0.06279708
v 0.57342142 0.15545604 0.07060921
v 0.57342142 0.15159602 0.07444921
v 0.57343143 0.15155604 0.07444921
v 0.55389142 0.13591604 0.36351919
v 0.55780143 0.16319603 0.14476921
v 0.55779141 0.17498603 0.13304920
v 0.55780143 0.17108603 0.13692921
v 0.55780053 0.17498653 0.13304485
v 0.57342148 0.15155119 0.07450508
v 0.57333052 0.15573734 0.07083658
v 0.57342142 0.15552603 0.07054920
v 0.56940609 0.21163917 0.08443887
v 0.58835447 0.14333396 0.00442513
v 0.57342100 0.15972029 0.06632465
v 0.56951141 0.12424604 0.30491921
v 0.56957144 0.12420603 0.30491921
v 0.56951141 0.12428604 0.30882919
v 0.57344145 0.15936603 0.06663920
v 0.56952143 0.12420603 0.30101919
v 0.58521599 0.13027519 0.03456144
v 0.58904672 0.14392971 0.00024733
v 0.58908141 0.14373603 0.00023921
v 0.58908141 0.14764604 -0.00366079
v 0.56477737 0.12821415 0.36635000
v 0.58909142 0.15155604 -0.00757079
v 0.56951177 0.12420553 0.30087724
v 0.58905143 0.14391604 0.00023921
v 0.57342142 0.12147604 0.30491921
v 0.56957030 0.12424693 0.30918851
v 0.56918609 0.14924720 0.34228098
v 0.57343143 0.15545604 0.07054920
v 0.58905143 0.13605604 0.00804921
v 0.71011144 -0.89922398 -0.08960080
v 0.70623142 -0.89531398 -0.09284079
v 0.71010143 -0.89531398 -0.08960080
v 0.71009141 -0.89140397 -0.08960080
v 0.71014142 -0.89531398 -0.08957079
v 0.71795142 0.28045604 0.17210920
v 0.71795142 0.28049603 0.17601921
v 0.71795142 0.28045604 0.17225921
v 0.71795142 0.28053606 0.17991921
v 0.71800143 0.28045604 0.17601921
v 0.71014142 -0.88750398 -0.08955080
v 0.71406645 -0.03595513 -0.18336131
v 0.71014130 -0.03594399 -0.18730099
v 0.61457515 0.08212100 -0.05949737
v 0.71229798 -0.04888134 -0.19952004
v 0.71405143 -0.03594396 -0.18337080
v 0.70749140 -0.03203396 -0.18726079
v 0.71405637 -0.03591364 -0.18334612
v 0.76551157 -0.94989413 -0.04545164
v 0.71014142 -0.89140397 -0.08956079
v 0.71339583 -0.02182842 -0.19119067
v 0.61368012 0.21443090 0.00780698
v 0.72186142 0.27771604 0.17601921
v 0.73632741 0.26733610 0.18188505
v 0.69680494 0.29563257 0.19633234
v 0.73459363 -0.89011747 -0.03057355
v 0.58871776 0.13553137 0.22799306
f 17 6 7
f 6 7 11
f 32 7 2
f 17 88 7
f 7 88 2
f 11 7 6
f 8 6 11
f 3 10 9
f 5 1 2
f 6 4 12
f 15 5 16
f 19 15 16
f 7 32 17
f 12 20 17
f 10 11 20
f 3 9 4
f 32 2 1
f 6 8 3
f 8 10 3
f 4 20 12
f 9 20 4
f 5 2 13
f 16 5 13
f 13 18 16
f 1 15 19
f 1 5 15
f 18 19 16
f 88 18 13
f 2 88 13
f 20 11 17
f 9 10 20
f 6 3 4
f 8 11 10
f 6 12 17
f 11 6 17
f 22 23 24
f 25 24 26
f 22 24 25
f 26 27 28
f 31 26 28
f 7 6 17
f 19 18 1
f 18 88 32
f 18 32 1
f 128 25 31
f 24 23 27
f 128 31 71
f 22 14 23
f 25 26 31
f 128 22 25
f 24 27 26
f 23 14 27
f 28 14 31
f 28 27 14
f 14 22 71
f 31 14 71
f 33 63 34
f 63 87 29
f 63 29 39
f 29 37 39
f 30 67 40
f 41 42 43
f 22 44 71
f 32 88 101
f 35 46 47
f 49 33 34
f 41 49 34
f 35 88 52
f 88 35 87
f 21 51 85
f 53 54 55
f 34 63 58
f 87 35 38
f 59 29 60
f 65 63 33
f 61 39 62
f 42 58 66
f 58 63 66
f 64 65 33
f 49 64 33
f 68 503 69
f 43 66 61
f 42 41 58
f 41 34 58
f 62 59 61
f 65 87 63
f 60 30 40
f 49 41 43
f 64 49 43
f 63 39 61
f 66 63 61
f 70 59 62
f 43 42 66
f 70 60 40
f 59 37 29
f 70 62 39
f 59 67 43
f 59 43 61
f 59 40 67
f 39 37 70
f 87 67 29
f 67 30 29
f 59 70 40
f 29 30 60
f 22 128 44
f 44 128 102
f 75 76 36
f 75 36 77
f 88 17 112
f 53 79 54
f 53 80 79
f 55 54 89
f 82 83 84
f 46 52 85
f 123 53 55
f 53 123 80
f 21 85 38
f 90 91 92
f 100 90 92
f 93 98 111
f 94 93 111
f 57 47 86
f 35 21 38
f 86 95 85
f 88 87 89
f 52 88 122
f 55 56 123
f 46 95 47
f 57 35 47
f 95 46 85
f 21 57 51
f 54 97 89
f 88 97 80
f 52 46 35
f 21 35 57
f 85 52 38
f 51 86 85
f 79 97 54
f 97 79 80
f 89 56 55
f 87 43 67
f 97 88 89
f 93 99 98
f 87 127 56
f 47 95 86
f 57 86 51
f 56 89 87
f 64 43 65
f 43 87 65
f 106 102 128
f 102 106 45
f 102 45 73
f 103 104 105
f 104 103 72
f 104 45 106
f 103 74 72
f 74 73 72
f 50 82 77
f 82 76 77
f 72 73 45
f 73 74 107
f 104 72 45
f 74 103 107
f 103 105 107
f 83 48 84
f 76 82 75
f 32 101 17
f 83 82 50
f 101 50 36
f 48 50 101
f 76 48 88
f 88 101 36
f 50 48 83
f 48 76 84
f 82 84 75
f 36 76 88
f 84 76 75
f 76 75 77
f 36 50 77
f 88 48 101
f 52 114 111
f 114 94 111
f 52 98 99
f 114 99 93
f 99 114 52
f 113 81 90
f 90 115 91
f 90 81 115
f 115 81 110
f 81 113 110
f 100 92 130
f 102 73 71
f 71 73 108
f 73 107 108
f 107 105 108
f 177 102 71
f 106 71 108
f 105 106 108
f 105 104 106
f 112 96 78
f 106 128 71
f 116 96 117
f 118 116 117
f 96 109 78
f 109 116 121
f 78 109 119
f 109 121 119
f 127 123 56
f 117 112 131
f 117 131 78
f 122 112 78
f 121 116 118
f 78 119 117
f 119 118 117
f 109 96 116
f 96 112 117
f 113 98 122
f 122 78 131
f 122 98 52
f 113 122 130
f 100 87 98
f 115 110 91
f 113 90 100
f 113 130 110
f 113 100 98
f 91 110 92
f 110 130 92
f 98 38 111
f 114 93 94
f 71 44 177
f 44 102 177
f 101 131 17
f 131 112 17
f 101 88 120
f 80 123 127
f 88 112 122
f 127 88 80
f 88 87 130
f 38 52 111
f 98 87 38
f 87 100 130
f 128 177 71
f 124 125 126
f 87 88 127
f 120 130 129
f 71 465 177
f 132 447 133
f 134 132 133
f 159 136 137
f 131 101 130
f 120 88 130
f 139 129 138
f 138 141 142
f 141 138 129
f 145 146 152
f 146 145 149
f 150 146 149
f 148 177 178
f 71 177 148
f 148 178 146
f 145 149 151
f 148 145 151
f 148 146 150
f 150 145 148
f 145 150 149
f 146 178 152
f 151 152 206
f 206 152 178
f 149 145 152
f 151 149 152
f 153 154 155
f 177 465 71
f 148 151 71
f 151 206 71
f 128 71 465
f 193 157 158
f 160 161 322
f 162 538 163
f 164 165 205
f 205 128 159
f 166 189 205
f 167 168 169
f 166 205 198
f 168 166 170
f 142 174 138
f 174 139 138
f 139 174 142
f 120 129 175
f 140 174 139
f 140 139 174
f 139 140 129
f 129 130 141
f 139 175 140
f 139 142 175
f 178 177 206
f 179 180 181
f 179 351 180
f 169 168 182
f 164 137 136
f 189 166 157
f 184 185 186
f 176 187 136
f 159 176 136
f 135 176 159
f 187 164 136
f 164 187 165
f 187 176 165
f 128 205 135
f 176 135 165
f 137 164 144
f 135 205 165
f 137 144 159
f 164 205 144
f 128 135 159
f 205 159 144
f 190 191 192
f 183 167 169
f 167 183 158
f 193 183 198
f 183 193 158
f 166 172 170
f 189 157 193
f 167 157 168
f 167 158 157
f 168 170 182
f 198 189 193
f 194 195 173
f 171 196 197
f 172 194 173
f 182 195 194
f 157 166 168
f 182 170 195
f 195 172 173
f 172 195 170
f 172 166 171
f 172 173 196
f 198 183 194
f 183 169 194
f 169 182 194
f 194 172 196
f 198 194 196
f 197 173 171
f 173 172 171
f 171 166 198
f 171 198 196
f 199 233 200
f 201 199 200
f 197 196 173
f 140 175 129
f 120 175 101
f 142 141 175
f 175 141 130
f 177 128 465
f 206 177 465
f 205 189 198
f 202 207 231
f 208 209 304
f 130 101 175
f 204 284 506
f 211 212 213
f 216 217 218
f 219 143 220
f 221 222 223
f 224 225 226
f 459 205 198
f 229 230 208
f 205 227 202
f 228 229 231
f 199 202 233
f 207 202 199
f 202 304 198
f 207 199 201
f 231 207 201
f 200 233 232
f 228 200 232
f 231 201 228
f 201 200 228
f 198 205 202
f 232 233 230
f 229 232 230
f 228 232 229
f 284 234 235
f 236 237 238
f 214 243 242
f 244 190 283
f 245 246 247
f 248 249 455
f 250 244 215
f 251 252 283
f 253 254 255
f 160 257 258
f 250 190 244
f 259 260 261
f 161 258 262
f 263 264 538
f 214 242 266
f 267 340 268
f 465 71 206
f 220 143 269
f 271 219 272
f 273 274 214
f 317 243 241
f 260 277 370
f 271 272 234
f 161 279 322
f 224 281 282
f 247 503 245
f 285 286 370
f 277 287 370
f 288 289 290
f 291 246 245
f 246 291 340
f 436 203 205
f 205 203 603
f 292 413 293
f 282 294 225
f 295 296 192
f 297 298 299
f 436 205 459
f 301 405 302
f 218 303 455
f 303 248 455
f 231 208 304
f 233 202 227
f 304 459 198
f 304 202 231
f 229 208 231
f 304 233 227
f 209 233 304
f 230 233 209
f 208 230 209
f 617 620 306
f 307 308 309
f 311 312 313
f 211 314 315
f 242 243 317
f 294 405 319
f 320 214 274
f 241 243 204
f 660 241 204
f 321 316 340
f 323 124 126
f 241 124 323
f 324 263 162
f 325 310 367
f 318 503 326
f 270 283 220
f 310 327 328
f 356 310 204
f 394 329 156
f 307 332 333
f 334 284 235
f 215 270 269
f 269 188 215
f 252 272 283
f 268 335 287
f 335 268 340
f 326 503 336
f 155 470 337
f 235 252 251
f 204 214 348
f 219 220 283
f 147 341 240
f 341 264 240
f 342 343 370
f 147 344 345
f 344 346 345
f 215 188 250
f 347 283 506
f 284 334 347
f 272 219 283
f 347 506 284
f 262 279 161
f 125 350 352
f 234 272 252
f 347 334 251
f 215 244 270
f 235 251 334
f 234 252 235
f 262 355 279
f 355 262 275
f 250 191 190
f 191 250 188
f 357 358 296
f 359 360 471
f 264 361 538
f 270 244 283
f 271 143 219
f 143 271 284
f 284 271 234
f 357 296 295
f 321 318 326
f 251 283 347
f 358 322 283
f 363 286 280
f 296 358 283
f 269 284 188
f 364 365 221
f 160 322 366
f 269 270 220
f 143 284 269
f 283 322 506
f 291 363 340
f 344 368 337
f 147 368 344
f 369 212 530
f 285 335 280
f 373 374 375
f 373 147 374
f 374 376 163
f 376 374 147
f 376 162 163
f 377 470 378
f 379 380 353
f 355 275 330
f 382 340 259
f 287 335 285
f 362 503 286
f 331 261 370
f 383 343 342
f 279 355 384
f 385 382 331
f 382 385 275
f 330 275 383
f 279 384 322
f 156 386 387
f 191 188 295
f 296 283 192
f 342 370 384
f 384 355 330
f 358 265 322
f 265 366 322
f 276 388 69
f 257 160 366
f 295 188 357
f 257 188 275
f 387 503 318
f 259 340 267
f 258 161 160
f 357 188 389
f 265 390 366
f 257 275 258
f 389 265 358
f 258 275 262
f 389 390 265
f 390 389 188
f 295 192 191
f 358 357 389
f 261 382 259
f 154 375 470
f 190 192 283
f 390 188 257
f 366 390 257
f 147 512 241
f 402 391 392
f 147 351 512
f 277 267 268
f 343 383 385
f 330 342 384
f 393 349 350
f 349 393 241
f 342 330 383
f 512 530 241
f 382 275 340
f 245 503 362
f 260 370 261
f 268 287 277
f 260 259 267
f 385 331 343
f 386 503 387
f 322 384 370
f 326 316 321
f 331 382 261
f 336 503 247
f 267 277 260
f 343 331 370
f 291 245 362
f 383 275 385
f 396 290 436
f 290 396 397
f 281 398 399
f 316 338 340
f 338 246 340
f 363 362 286
f 336 338 316
f 247 246 338
f 316 326 336
f 370 286 503
f 338 336 247
f 222 221 521
f 363 280 340
f 280 335 340
f 394 340 203
f 286 285 280
f 302 293 401
f 226 394 203
f 394 226 388
f 156 387 395
f 291 362 363
f 285 370 287
f 69 388 339
f 406 302 405
f 224 282 225
f 222 407 223
f 403 447 408
f 586 512 351
f 226 339 388
f 68 69 339
f 313 413 311
f 410 388 276
f 388 410 394
f 404 381 68
f 411 400 226
f 394 410 329
f 386 409 503
f 412 503 381
f 399 405 281
f 222 186 407
f 447 414 408
f 321 340 394
f 321 395 318
f 321 394 395
f 416 417 418
f 365 521 221
f 419 400 412
f 400 419 226
f 409 276 503
f 312 420 313
f 276 69 503
f 381 404 419
f 276 409 410
f 156 395 394
f 318 395 387
f 409 329 410
f 419 404 226
f 503 412 405
f 300 405 312
f 311 292 300
f 311 413 292
f 68 339 404
f 419 412 381
f 381 503 68
f 404 339 226
f 386 156 329
f 413 224 226
f 409 386 329
f 421 422 408
f 423 401 403
f 319 400 411
f 406 292 293
f 311 300 312
f 313 415 413
f 312 405 420
f 405 300 406
f 399 398 415
f 282 405 294
f 412 400 319
f 420 399 415
f 225 411 226
f 281 405 282
f 423 185 184
f 185 423 403
f 411 294 319
f 224 398 281
f 398 224 413
f 420 415 313
f 398 413 415
f 420 405 399
f 226 203 413
f 365 305 422
f 294 411 225
f 184 521 301
f 319 405 412
f 425 522 521
f 132 134 425
f 426 427 428
f 429 430 431
f 364 223 403
f 301 401 423
f 407 185 403
f 432 433 133
f 414 425 421
f 186 185 407
f 397 522 288
f 429 424 434
f 134 133 433
f 298 435 436
f 298 297 435
f 300 292 406
f 424 437 434
f 436 289 438
f 414 447 132
f 438 256 431
f 302 406 293
f 186 222 521
f 403 293 413
f 401 293 403
f 424 429 522
f 301 302 401
f 301 521 405
f 413 436 403
f 521 184 186
f 364 221 223
f 223 407 403
f 423 184 301
f 447 432 133
f 288 256 289
f 436 441 217
f 403 408 305
f 439 424 522
f 422 305 408
f 424 439 437
f 442 443 444
f 432 439 433
f 218 445 216
f 438 289 256
f 364 305 365
f 364 403 305
f 447 437 432
f 455 446 239
f 432 437 439
f 425 521 421
f 288 522 256
f 433 439 522
f 425 134 522
f 425 414 132
f 205 603 227
f 421 521 422
f 436 216 396
f 448 436 449
f 414 421 408
f 436 447 403
f 521 365 422
f 445 218 522
f 433 522 134
f 447 434 437
f 248 303 441
f 297 455 249
f 430 434 447
f 430 429 434
f 450 451 278
f 436 430 447
f 397 288 290
f 256 522 431
f 436 290 289
f 445 396 216
f 210 441 436
f 210 248 441
f 236 455 237
f 431 522 429
f 218 455 522
f 436 217 216
f 397 396 445
f 452 299 453
f 303 218 217
f 303 217 441
f 436 438 430
f 454 237 452
f 431 430 438
f 397 445 522
f 237 454 238
f 449 446 440
f 297 299 455
f 210 435 249
f 210 436 435
f 436 454 453
f 298 436 453
f 452 455 299
f 249 435 297
f 239 449 436
f 248 210 249
f 449 440 456
f 456 455 236
f 456 236 448
f 452 237 455
f 454 452 453
f 456 440 455
f 454 436 238
f 299 298 453
f 449 456 448
f 238 448 236
f 238 436 448
f 455 440 446
f 457 619 458
f 459 239 436
f 239 522 455
f 449 239 446
f 325 327 310
f 506 356 204
f 346 470 462
f 327 371 328
f 371 463 372
f 463 371 327
f 359 214 254
f 467 468 332
f 328 460 310
f 325 463 327
f 372 469 460
f 349 548 352
f 350 349 352
f 308 333 472
f 473 474 475
f 307 253 255
f 470 346 337
f 476 253 307
f 243 214 204
f 471 477 443
f 393 350 125
f 263 538 162
f 376 324 162
f 376 147 324
f 478 307 255
f 471 466 468
f 548 241 660
f 479 461 242
f 480 481 482
f 483 273 481
f 660 204 460
f 273 214 482
f 476 359 253
f 464 484 471
f 485 214 486
f 323 126 361
f 341 323 361
f 147 323 341
f 487 530 488
f 469 489 367
f 371 460 328
f 367 310 356
f 489 490 325
f 489 469 490
f 367 489 325
f 371 372 460
f 204 310 460
f 180 345 462
f 180 351 345
f 372 490 469
f 490 372 463
f 460 469 367
f 490 463 325
f 240 264 263
f 491 485 486
f 147 241 323
f 548 538 352
f 126 538 361
f 349 241 548
f 492 493 494
f 125 352 126
f 264 341 361
f 346 344 337
f 352 538 126
f 348 284 204
f 464 495 496
f 393 124 241
f 345 346 462
f 351 470 586
f 324 240 263
f 324 147 240
f 497 179 377
f 351 179 497
f 374 163 375
f 497 377 378
f 124 393 125
f 506 322 370
f 351 147 345
f 180 462 181
f 179 181 377
f 498 497 378
f 498 351 497
f 153 373 154
f 147 373 153
f 351 498 470
f 368 153 155
f 368 147 153
f 375 538 470
f 499 417 500
f 181 470 377
f 375 163 538
f 368 155 337
f 317 479 242
f 155 154 470
f 373 375 154
f 498 378 470
f 499 502 417
f 181 462 470
f 477 504 443
f 405 521 503
f 507 508 353
f 391 509 510
f 278 492 511
f 504 369 530
f 513 514 515
f 203 436 413
f 402 517 391
f 227 512 586
f 519 402 520
f 509 507 354
f 402 473 475
f 473 501 474
f 526 525 527
f 306 620 592
f 529 525 526
f 306 630 617
f 472 466 471
f 477 213 369
f 531 471 468
f 317 307 532
f 486 533 534
f 531 535 495
f 530 467 332
f 479 317 481
f 536 255 254
f 308 537 309
f 307 333 308
f 315 488 530
f 531 495 471
f 317 483 481
f 464 539 484
f 359 471 214
f 531 468 467
f 320 533 214
f 314 488 315
f 307 540 532
f 476 307 309
f 485 536 214
f 255 536 478
f 541 471 484
f 471 537 472
f 254 214 536
f 479 481 480
f 495 464 471
f 533 486 214
f 536 485 478
f 402 426 542
f 443 504 444
f 476 309 360
f 471 348 214
f 320 274 532
f 359 254 253
f 534 533 540
f 307 478 491
f 273 482 481
f 496 495 535
f 471 360 537
f 476 360 359
f 530 543 539
f 482 214 266
f 535 467 530
f 537 360 309
f 479 480 461
f 461 266 242
f 320 540 533
f 307 530 332
f 535 531 467
f 540 320 532
f 461 480 266
f 491 486 534
f 491 478 485
f 539 496 530
f 543 530 487
f 273 483 274
f 317 532 483
f 539 464 496
f 332 466 333
f 466 472 333
f 480 482 266
f 532 274 483
f 307 534 540
f 491 534 307
f 308 472 537
f 332 468 466
f 530 496 535
f 307 317 241
f 543 484 539
f 541 484 543
f 487 541 543
f 487 544 541
f 487 488 544
f 545 354 546
f 460 367 356
f 392 510 501
f 596 547 550
f 513 450 514
f 549 550 551
f 442 444 427
f 379 402 542
f 552 418 417
f 402 508 517
f 379 542 380
f 444 354 427
f 380 354 353
f 544 488 314
f 471 544 314
f 402 443 442
f 542 426 428
f 510 509 354
f 470 538 553
f 354 444 530
f 391 510 392
f 553 554 555
f 470 553 555
f 471 541 544
f 556 557 558
f 555 557 556
f 513 515 417
f 513 417 502
f 475 474 559
f 314 211 471
f 510 354 501
f 471 213 477
f 211 315 212
f 380 428 354
f 507 353 354
f 508 507 517
f 477 369 504
f 340 275 203
f 379 508 402
f 517 507 509
f 542 428 380
f 428 427 354
f 402 471 443
f 442 427 426
f 503 356 506
f 402 442 426
f 508 379 353
f 561 519 546
f 444 504 530
f 499 451 502
f 545 559 354
f 474 501 354
f 471 211 213
f 284 348 188
f 275 188 348
f 203 348 278
f 203 275 348
f 213 212 369
f 506 370 503
f 212 315 530
f 348 471 402
f 391 517 509
f 278 348 402
f 520 475 559
f 500 562 563
f 564 586 470
f 563 451 499
f 519 545 546
f 554 553 583
f 567 505 568
f 569 418 552
f 570 566 565
f 278 451 563
f 545 519 520
f 569 560 418
f 520 402 475
f 571 561 546
f 499 500 563
f 559 474 354
f 402 392 473
f 545 520 559
f 473 392 501
f 515 552 417
f 505 278 562
f 563 562 278
f 278 572 560
f 572 416 560
f 572 573 416
f 574 278 569
f 574 552 515
f 514 574 515
f 574 569 552
f 519 561 278
f 575 571 573
f 572 575 573
f 278 560 569
f 574 514 278
f 560 416 418
f 571 546 417
f 450 278 514
f 546 354 417
f 573 571 417
f 416 573 417
f 278 561 575
f 278 575 572
f 402 519 278
f 451 450 502
f 450 513 502
f 561 571 575
f 356 503 521
f 494 493 417
f 203 576 577
f 278 511 518
f 579 494 417
f 580 581 582
f 356 521 522
f 227 586 585
f 589 590 458
f 588 227 523
f 589 588 591
f 588 523 591
f 459 304 592
f 522 239 459
f 459 592 524
f 304 227 592
f 592 525 524
f 524 593 528
f 593 524 525
f 528 593 529
f 524 528 620
f 593 525 529
f 527 525 620
f 528 594 595
f 528 529 594
f 595 526 527
f 595 527 620
f 594 526 595
f 594 529 526
f 528 595 620
f 630 306 622
f 597 598 599
f 598 600 599
f 555 556 470
f 596 538 548
f 241 530 307
f 550 547 551
f 547 601 551
f 547 596 602
f 667 548 660
f 554 557 555
f 656 549 602
f 538 583 553
f 602 596 656
f 516 586 604
f 511 579 518
f 605 558 606
f 605 556 558
f 601 549 551
f 604 605 606
f 604 564 605
f 611 607 578
f 500 568 562
f 606 558 583
f 564 604 586
f 583 516 606
f 583 557 554
f 516 604 606
f 586 587 609
f 565 516 583
f 556 605 470
f 605 564 470
f 565 586 516
f 557 583 558
f 511 494 579
f 610 505 567
f 565 611 586
f 565 566 598
f 567 568 417
f 512 354 530
f 610 567 493
f 610 493 492
f 278 518 203
f 576 518 584
f 511 492 494
f 278 610 492
f 512 417 354
f 518 576 203
f 610 278 505
f 518 579 584
f 505 562 568
f 500 417 568
f 493 567 417
f 581 580 652
f 579 417 584
f 613 584 417
f 576 613 577
f 512 603 417
f 587 586 611
f 603 613 417
f 203 577 603
f 576 584 613
f 581 614 582
f 581 585 614
f 577 613 603
f 585 581 652
f 227 603 512
f 580 587 652
f 614 587 580
f 587 614 608
f 608 614 582
f 614 580 582
f 615 608 582
f 586 615 585
f 608 615 609
f 615 586 609
f 227 585 652
f 614 615 582
f 615 614 585
f 459 356 522
f 619 588 458
f 616 619 457
f 618 592 619
f 457 458 590
f 619 616 618
f 525 592 620
f 651 523 227
f 589 458 588
f 653 626 621
f 936 306 592
f 622 653 621
f 626 627 623
f 627 624 625
f 628 629 653
f 628 630 622
f 550 583 596
f 583 538 596
f 656 596 548
f 600 645 599
f 601 547 602
f 631 657 632
f 633 634 635
f 633 636 634
f 566 570 600
f 598 566 600
f 637 638 639
f 638 637 640
f 641 631 634
f 642 641 634
f 631 641 645
f 611 598 597
f 643 597 644
f 643 611 597
f 570 645 600
f 642 634 632
f 641 642 645
f 646 637 639
f 646 645 637
f 570 565 631
f 652 587 651
f 583 631 565
f 647 648 607
f 611 647 607
f 643 644 648
f 642 649 645
f 640 637 645
f 650 636 633
f 636 650 649
f 565 598 611
f 647 643 648
f 647 611 643
f 634 631 632
f 609 587 608
f 591 590 589
f 611 578 587
f 587 578 651
f 227 652 651
f 592 227 619
f 616 457 590
f 588 619 227
f 624 627 626
f 524 620 617
f 625 622 623
f 627 625 623
f 621 626 623
f 622 621 623
f 936 653 306
f 625 629 628
f 624 626 653
f 625 628 622
f 625 624 629
f 622 306 653
f 629 624 653
f 654 655 742
f 634 642 635
f 634 649 642
f 660 460 356
f 549 601 602
f 642 632 668
f 549 583 550
f 583 549 656
f 642 668 635
f 649 634 636
f 646 612 578
f 656 548 667
f 638 650 633
f 638 640 650
f 639 638 633
f 632 657 668
f 591 523 618
f 618 523 592
f 618 616 591
f 591 616 590
f 617 664 524
f 628 653 936
f 936 617 630
f 630 628 936
f 658 659 732
f 631 583 656
f 656 657 631
f 657 656 651
f 661 662 663
f 651 592 523
f 665 655 654
f 650 645 649
f 936 592 651
f 670 671 682
f 670 672 671
f 524 664 459
f 674 675 676
f 677 678 723
f 678 677 679
f 680 681 671
f 681 682 671
f 664 723 459
f 683 684 742
f 659 658 685
f 687 688 689
f 655 691 683
f 660 837 667
f 695 666 696
f 666 667 697
f 660 686 837
f 667 666 695
f 696 666 698
f 635 668 633
f 667 813 697
f 656 667 695
f 695 699 694
f 696 699 695
f 699 700 694
f 700 699 698
f 699 696 698
f 644 701 648
f 702 703 704
f 700 813 694
f 813 700 697
f 697 700 698
f 666 697 698
f 695 694 656
f 651 612 657
f 640 645 650
f 612 668 657
f 651 578 612
f 705 706 675
f 707 708 786
f 709 708 707
f 681 710 682
f 711 710 681
f 710 711 712
f 713 714 723
f 714 713 715
f 716 717 669
f 717 716 718
f 704 719 723
f 703 719 704
f 720 757 662
f 661 720 662
f 721 757 718
f 648 701 607
f 684 690 724
f 674 676 722
f 676 669 722
f 726 727 728
f 665 686 691
f 729 757 721
f 738 685 690
f 733 686 738
f 655 683 742
f 685 738 659
f 659 738 732
f 684 683 733
f 686 660 738
f 735 736 737
f 738 660 732
f 684 733 690
f 733 691 686
f 665 654 693
f 686 665 693
f 356 838 660
f 739 686 737
f 815 740 741
f 742 684 724
f 656 694 813
f 578 645 646
f 656 813 827
f 668 612 639
f 612 646 639
f 633 668 639
f 578 701 645
f 744 716 669
f 716 744 721
f 745 674 722
f 747 748 749
f 748 795 749
f 717 718 750
f 710 746 682
f 710 712 746
f 725 744 669
f 744 725 729
f 743 746 712
f 752 726 753
f 754 714 715
f 755 720 756
f 720 755 757
f 728 677 723
f 727 677 728
f 934 746 743
f 758 759 760
f 672 680 671
f 725 705 729
f 716 721 718
f 761 755 756
f 762 757 755
f 761 762 755
f 763 673 757
f 673 763 764
f 765 766 767
f 795 768 679
f 763 748 769
f 757 748 763
f 711 681 680
f 770 669 723
f 717 771 669
f 717 750 771
f 727 679 677
f 678 713 723
f 768 713 678
f 770 722 669
f 745 722 770
f 752 753 772
f 753 723 772
f 675 706 676
f 706 669 676
f 789 773 774
f 744 729 721
f 768 715 713
f 756 720 661
f 771 682 669
f 768 678 679
f 706 725 669
f 706 705 725
f 714 770 723
f 770 714 754
f 758 743 759
f 743 757 759
f 748 747 769
f 766 775 795
f 775 766 765
f 776 771 750
f 771 670 682
f 771 776 670
f 747 749 777
f 702 778 779
f 780 781 774
f 754 745 770
f 764 763 769
f 782 780 774
f 782 795 780
f 670 776 672
f 781 783 790
f 784 752 772
f 749 775 777
f 795 775 749
f 751 779 785
f 757 750 718
f 780 795 783
f 781 780 783
f 726 728 753
f 728 723 753
f 775 765 777
f 703 784 719
f 778 704 723
f 702 704 778
f 778 723 664
f 785 778 664
f 778 785 779
f 719 772 723
f 784 772 719
f 751 832 789
f 751 785 664
f 658 742 724
f 746 723 669
f 459 723 746
f 757 776 750
f 751 702 779
f 795 674 745
f 795 745 754
f 789 788 773
f 751 664 832
f 751 703 702
f 795 726 752
f 795 784 703
f 791 792 793
f 789 794 788
f 795 715 768
f 673 662 757
f 794 767 796
f 795 754 715
f 658 732 742
f 739 737 736
f 800 801 802
f 687 803 800
f 802 730 688
f 654 742 735
f 686 804 805
f 686 739 804
f 691 733 683
f 685 658 724
f 806 787 807
f 786 809 791
f 809 792 791
f 742 660 820
f 685 724 690
f 732 660 742
f 655 665 691
f 730 786 692
f 810 739 736
f 733 738 690
f 734 742 787
f 742 734 736
f 693 654 735
f 737 693 735
f 693 737 686
f 804 739 810
f 736 735 742
f 804 811 805
f 692 667 837
f 741 815 798
f 815 807 798
f 807 815 741
f 709 707 689
f 708 809 786
f 809 708 812
f 803 808 786
f 687 808 803
f 815 686 740
f 644 597 599
f 599 645 644
f 701 644 645
f 645 570 631
f 701 578 607
f 751 789 790
f 789 663 764
f 795 748 757
f 797 807 814
f 761 760 762
f 746 934 459
f 788 816 773
f 795 757 705
f 747 789 769
f 705 757 729
f 795 705 675
f 802 818 730
f 800 802 688
f 789 781 790
f 767 766 796
f 795 727 726
f 795 796 766
f 757 672 776
f 782 774 773
f 789 777 765
f 757 743 712
f 789 765 767
f 757 711 680
f 795 782 816
f 808 707 786
f 689 707 808
f 789 774 781
f 741 819 806
f 760 759 762
f 795 675 674
f 795 679 727
f 757 712 711
f 805 811 819
f 795 790 783
f 757 680 672
f 788 821 816
f 795 752 784
f 790 795 751
f 805 740 686
f 773 816 782
f 789 767 794
f 757 762 759
f 816 821 795
f 796 795 821
f 794 796 821
f 794 821 788
f 795 703 751
f 777 789 747
f 663 673 764
f 663 662 673
f 669 682 746
f 819 741 740
f 801 803 786
f 800 803 801
f 807 797 798
f 689 688 709
f 740 805 819
f 812 708 709
f 804 810 811
f 686 798 797
f 811 806 819
f 689 808 687
f 730 818 786
f 731 688 730
f 709 688 812
f 687 800 688
f 799 814 787
f 815 741 798
f 667 786 824
f 818 801 786
f 802 801 818
f 736 739 806
f 739 734 806
f 734 739 736
f 792 812 731
f 824 730 692
f 799 797 814
f 787 814 807
f 806 807 741
f 667 692 786
f 811 810 806
f 734 787 806
f 815 798 686
f 810 736 806
f 820 787 742
f 787 820 799
f 667 824 828
f 823 824 822
f 656 827 651
f 761 817 760
f 817 743 758
f 817 758 760
f 789 761 756
f 743 817 934
f 934 817 789
f 789 764 769
f 761 789 817
f 789 661 663
f 789 756 661
f 617 1306 832
f 823 793 731
f 822 793 823
f 731 730 824
f 793 792 731
f 786 822 824
f 812 688 731
f 824 823 731
f 809 812 792
f 791 822 786
f 793 822 791
f 797 799 820
f 820 660 838
f 824 692 837
f 828 824 837
f 833 834 835
f 925 827 935
f 797 820 686
f 825 836 829
f 840 839 828
f 667 828 839
f 842 843 835
f 934 832 913
f 834 845 835
f 844 845 834
f 842 832 843
f 913 832 842
f 844 843 832
f 834 833 844
f 913 842 831
f 845 831 842
f 843 844 833
f 842 835 845
f 843 833 835
f 844 832 831
f 845 844 831
f 837 829 828
f 850 851 852
f 840 828 829
f 853 838 846
f 839 840 825
f 840 829 836
f 826 836 825
f 837 839 825
f 826 825 840
f 829 837 825
f 838 871 846
f 826 840 836
f 667 839 837
f 838 356 871
f 667 837 827
f 855 854 848
f 856 857 858
f 813 667 827
f 861 862 854
f 847 857 864
f 827 936 651
f 841 356 459
f 841 459 934
f 832 934 789
f 858 867 868
f 831 1306 913
f 866 908 848
f 850 852 884
f 852 898 884
f 872 873 874
f 853 873 872
f 875 876 861
f 876 877 861
f 877 876 875
f 873 853 878
f 880 881 882
f 885 853 872
f 869 886 894
f 886 869 870
f 846 871 847
f 883 877 887
f 880 908 881
f 864 846 847
f 888 873 882
f 873 878 882
f 889 890 891
f 861 876 855
f 876 854 855
f 854 876 861
f 820 838 884
f 879 893 868
f 853 864 883
f 878 861 855
f 877 864 887
f 855 848 892
f 853 887 878
f 849 893 879
f 858 868 856
f 874 873 888
f 875 861 878
f 866 879 871
f 869 895 896
f 853 883 887
f 897 890 851
f 890 897 885
f 861 877 862
f 878 848 880
f 848 892 880
f 848 878 892
f 852 889 898
f 852 890 889
f 862 849 854
f 884 838 885
f 838 853 885
f 877 887 862
f 887 875 878
f 887 877 875
f 864 847 887
f 857 847 864
f 908 892 848
f 820 837 686
f 883 864 877
f 887 847 862
f 847 856 862
f 856 847 857
f 871 356 866
f 827 837 820
f 876 855 892
f 878 876 892
f 878 855 876
f 891 874 888
f 856 868 893
f 862 856 893
f 879 867 871
f 879 868 867
f 853 846 864
f 848 854 849
f 848 849 866
f 867 847 871
f 893 849 862
f 892 908 880
f 866 849 879
f 857 847 858
f 847 867 858
f 882 878 880
f 465 1105 900
f 865 830 901
f 902 859 860
f 903 904 1186
f 905 904 903
f 841 901 907
f 902 860 914
f 907 356 841
f 859 909 860
f 909 859 830
f 902 907 859
f 910 911 912
f 907 830 859
f 827 906 936
f 886 870 908
f 915 617 936
f 881 891 888
f 884 898 895
f 891 908 889
f 874 891 885
f 885 897 884
f 917 918 986
f 884 895 894
f 881 908 891
f 894 886 908
f 908 866 894
f 869 896 870
f 908 870 889
f 852 851 890
f 881 888 882
f 891 890 885
f 820 884 894
f 850 884 897
f 851 850 897
f 895 869 894
f 874 885 872
f 895 898 896
f 896 889 870
f 889 896 898
f 923 900 922
f 841 914 901
f 914 865 901
f 924 925 935
f 900 923 985
f 985 465 900
f 902 914 907
f 922 900 918
f 356 907 914
f 921 920 986
f 900 986 918
f 865 914 860
f 830 865 909
f 901 830 907
f 909 865 860
f 927 928 929
f 930 931 932
f 934 913 1306
f 934 1306 980
f 943 937 938
f 941 943 938
f 943 941 942
f 915 944 617
f 944 937 943
f 944 943 940
f 943 942 940
f 944 915 937
f 916 939 942
f 915 939 937
f 939 915 945
f 938 939 916
f 944 940 945
f 940 942 945
f 941 938 916
f 937 939 938
f 941 916 942
f 942 939 945
f 923 922 926
f 985 921 986
f 894 866 820
f 820 866 1234
f 926 917 920
f 947 948 949
f 923 926 920
f 950 951 952
f 951 950 935
f 923 920 921
f 922 918 917
f 923 921 985
f 917 986 920
f 986 900 1105
f 922 917 926
f 899 955 956
f 1186 964 957
f 827 899 906
f 956 950 952
f 899 954 959
f 960 961 962
f 960 1012 961
f 899 947 949
f 863 962 966
f 969 970 971
f 863 936 906
f 841 934 1234
f 1036 973 974
f 973 975 974
f 975 978 974
f 1271 979 980
f 899 952 981
f 617 944 1306
f 1306 944 945
f 915 936 945
f 899 982 955
f 983 984 981
f 927 905 903
f 988 989 990
f 989 988 1186
f 866 356 1234
f 992 1195 993
f 925 924 994
f 899 949 954
f 925 899 827
f 899 956 952
f 1327 1234 820
f 956 955 996
f 904 905 997
f 948 963 949
f 1186 963 948
f 955 982 998
f 899 925 994
f 948 919 935
f 948 947 919
f 827 1011 946
f 924 999 994
f 999 924 935
f 919 983 935
f 984 983 919
f 1001 953 1186
f 1002 953 1001
f 958 1000 1003
f 998 999 935
f 998 982 999
f 951 981 952
f 954 949 963
f 899 984 947
f 948 935 1186
f 983 951 935
f 981 951 983
f 1186 957 987
f 465 985 1105
f 1005 1002 1001
f 1000 991 1186
f 958 991 1000
f 899 981 984
f 947 984 919
f 899 994 982
f 827 946 935
f 999 982 994
f 977 1006 1007
f 950 996 935
f 956 996 950
f 988 1008 1186
f 1009 1008 988
f 1010 959 954
f 904 989 1186
f 997 989 904
f 1002 1003 953
f 1008 1009 1005
f 987 957 929
f 996 998 935
f 955 998 996
f 1009 988 990
f 991 1010 1186
f 959 1010 991
f 958 959 991
f 1010 963 1186
f 954 963 1010
f 1008 1001 1186
f 1008 1005 1001
f 964 1186 1123
f 1014 1015 1016
f 989 997 990
f 1000 953 1003
f 953 1000 1186
f 928 903 1186
f 927 903 928
f 928 987 929
f 987 928 1186
f 970 1023 1012
f 964 1123 906
f 1020 1021 1022
f 1103 1021 1020
f 961 1024 962
f 1023 863 1012
f 960 1021 1012
f 1012 1117 1025
f 841 1234 914
f 969 971 1026
f 1024 1028 1022
f 863 1023 1029
f 1123 1117 906
f 1030 1020 1028
f 1020 1030 1031
f 1030 1117 1031
f 961 1012 966
f 962 961 966
f 1025 971 970
f 971 1025 1026
f 1025 1029 1026
f 1012 863 966
f 1025 1117 1032
f 1012 1025 970
f 1023 970 969
f 960 962 1035
f 1027 961 962
f 863 1027 962
f 975 973 912
f 911 910 968
f 910 1105 968
f 1036 1105 933
f 973 1036 933
f 841 1234 1111
f 1037 1038 1039
f 1038 1037 1212
f 1040 1041 1042
f 1028 1020 1022
f 1029 1032 863
f 1103 1012 1021
f 1103 1020 1031
f 1022 1021 960
f 1029 1023 1026
f 1023 969 1026
f 1013 1044 1045
f 1178 1044 1013
f 1299 1234 841
f 1046 1047 1048
f 1124 1049 1050
f 1051 1052 1053
f 1234 934 972
f 1052 1054 1053
f 1299 841 1155
f 910 933 1105
f 1056 1057 1058
f 1056 1097 1057
f 1059 1060 1061
f 1018 1060 1059
f 1017 1062 1063
f 1064 1065 1066
f 1064 1221 1065
f 1067 1068 1069
f 1070 1289 1034
f 827 820 1234
f 985 986 1105
f 1182 1073 1074
f 1075 1076 1077
f 1076 1075 995
f 1182 1077 1078
f 946 1011 1181
f 1234 356 914
f 1002 965 899
f 1081 1059 1063
f 1059 1081 1018
f 1092 1082 1083
f 1071 1004 1072
f 1086 1087 976
f 1086 1242 1087
f 1092 1083 1088
f 1089 1090 1014
f 957 965 929
f 1092 1093 1094
f 1035 962 1024
f 976 1087 1052
f 973 910 912
f 1098 1081 1062
f 1018 1081 1098
f 1100 1099 1101
f 1099 1100 1097
f 1102 1098 1062
f 1123 1104 1080
f 978 968 1105
f 968 978 911
f 1015 1109 1016
f 1109 1015 1178
f 1012 1103 1117
f 1083 1110 1088
f 1117 1103 1031
f 1117 1069 1091
f 1108 1112 1113
f 1016 1109 1104
f 905 927 965
f 863 1032 1117
f 1082 1114 1083
f 1032 1029 1025
f 978 975 911
f 973 933 910
f 1022 1035 1024
f 974 1033 1036
f 974 978 1033
f 978 1105 1033
f 1033 1105 1036
f 975 912 911
f 1051 1115 1116
f 1116 1064 1066
f 1065 1118 1119
f 1118 1065 1221
f 1022 960 1035
f 1125 1068 1067
f 1125 1221 1068
f 1117 1051 863
f 1117 1127 1067
f 1132 1133 1134
f 1133 1132 1212
f 1111 1234 1299
f 1051 932 1136
f 1115 1137 1116
f 1051 1116 1066
f 1051 1117 1115
f 1138 1100 1101
f 1139 1140 1136
f 1139 1242 1140
f 932 1139 1136
f 1049 1142 1050
f 1051 1040 1042
f 1271 936 1051
f 1234 972 1304
f 1128 1143 1299
f 1134 1133 1144
f 1124 1146 1135
f 1117 1147 1115
f 1155 841 1111
f 1161 1288 1289
f 1003 899 958
f 1151 1152 1153
f 1154 1152 1151
f 1158 1288 1159
f 1070 1160 1289
f 972 934 980
f 1271 1162 1163
f 1164 1165 1166
f 1167 1070 1159
f 1234 1195 992
f 1041 1168 1042
f 1168 1041 1242
f 945 936 1306
f 1017 1169 977
f 1169 1170 977
f 1002 1005 965
f 1171 1122 1172
f 1175 1176 1177
f 1096 1176 1175
f 1117 1179 1180
f 1004 993 1072
f 1004 992 993
f 1182 1183 1184
f 1077 1076 1078
f 1170 1006 977
f 1006 1170 1096
f 1003 1002 899
f 1073 1187 1074
f 1177 1176 1183
f 1188 1195 1174
f 993 1195 1188
f 1174 1195 1011
f 1189 1075 1077
f 1011 1071 1174
f 1190 1191 1169
f 1004 1071 1011
f 1188 1174 1071
f 1193 1192 1184
f 1096 1192 1193
f 1180 1194 1108
f 1234 992 1011
f 992 1004 1011
f 1188 1071 1072
f 1074 1175 1177
f 1188 1072 993
f 1303 1196 1197
f 1110 1013 1088
f 1013 1110 1178
f 1181 1182 946
f 1011 1019 1181
f 995 1019 1011
f 1182 1078 1198
f 1019 1200 1201
f 1200 1019 995
f 1182 1190 1169
f 1123 1016 1104
f 1394 1202 1360
f 1203 1204 1094
f 1018 1204 1203
f 1006 1205 1007
f 1096 1205 1006
f 1011 1195 995
f 1182 1074 1177
f 959 958 899
f 1009 965 1005
f 1192 1191 1190
f 1191 1192 1096
f 946 1186 935
f 1063 1059 1061
f 1181 1201 1182
f 1234 995 1195
f 1185 1199 1198
f 1199 1185 995
f 1182 1184 1190
f 1182 1186 946
f 1076 1185 1078
f 995 1185 1076
f 1200 1075 1189
f 995 1075 1200
f 1201 1200 1189
f 1182 1201 1189
f 1181 1019 1201
f 1078 1185 1198
f 1104 1207 1080
f 995 1234 1018
f 1182 1189 1077
f 1182 1198 1073
f 1199 1187 1073
f 995 1187 1199
f 1187 1175 1074
f 1175 1187 995
f 1182 1177 1183
f 1090 1015 1014
f 1015 1090 1178
f 1184 1192 1190
f 905 965 997
f 1062 1081 1063
f 1208 1209 1095
f 1209 1208 1141
f 1017 977 1007
f 1123 1101 1210
f 1183 1193 1184
f 964 906 965
f 1123 1089 1014
f 1198 1199 1073
f 1096 1175 995
f 1205 1096 1018
f 1092 1045 1131
f 990 965 1009
f 997 965 990
f 1176 1193 1183
f 1193 1176 1096
f 1017 1182 1169
f 1117 1213 1127
f 1007 1205 1102
f 965 906 899
f 1018 1096 995
f 1191 1170 1169
f 1096 1170 1191
f 1017 1102 1062
f 1205 1098 1102
f 1098 1205 1018
f 1017 1007 1102
f 1092 1061 1093
f 1061 1060 1093
f 1088 1013 1045
f 1017 1063 1061
f 1207 1208 1080
f 1208 1207 1141
f 1123 1211 1089
f 1099 1215 1210
f 1099 1097 1215
f 1045 1044 1131
f 1051 1119 1040
f 1109 1207 1104
f 1141 1207 1109
f 1172 1217 1211
f 1204 1114 1082
f 1114 1204 1018
f 1182 1017 1092
f 1092 1017 1061
f 1122 1217 1172
f 1122 1178 1217
f 1044 1218 1131
f 1218 1044 1178
f 964 965 957
f 1123 1186 1182
f 927 929 965
f 1219 1220 1135
f 1220 1219 1212
f 1092 1094 1082
f 1094 1204 1082
f 1060 1203 1093
f 1203 1060 1018
f 1093 1203 1094
f 1182 1092 1123
f 1168 931 930
f 1168 1242 931
f 1117 1030 863
f 1123 1014 1016
f 1131 1218 1171
f 1095 1209 1084
f 1218 1122 1171
f 1178 1122 1218
f 1114 1110 1083
f 1018 1110 1114
f 1030 1106 863
f 1092 1088 1045
f 1123 1171 1172
f 1084 1222 1223
f 1092 1131 1171
f 1123 1080 1095
f 1028 1024 961
f 1110 1018 1178
f 1209 1222 1084
f 1222 1209 1141
f 1141 1109 1178
f 1097 1222 1141
f 1058 1057 1224
f 1123 1223 1226
f 1217 1225 1211
f 1225 1217 1178
f 1123 1172 1211
f 1123 1092 1171
f 1225 1090 1089
f 1225 1178 1090
f 1211 1225 1089
f 1178 1018 1141
f 1227 1228 1226
f 1228 1227 1097
f 1226 1228 1216
f 1120 1125 1127
f 1221 1125 1120
f 1123 1095 1084
f 1222 1227 1223
f 1227 1222 1097
f 1080 1208 1095
f 1228 1229 1216
f 1097 1229 1228
f 1213 1120 1127
f 1223 1227 1226
f 1179 1214 1180
f 1141 1018 1234
f 1068 1230 1069
f 1230 1068 1221
f 1117 1108 1113
f 1123 1084 1223
f 1057 1232 1224
f 1232 1057 1097
f 863 1051 936
f 1216 1229 1138
f 931 1139 932
f 1139 931 1242
f 1123 1216 1138
f 1141 1234 1212
f 1233 1142 1049
f 1142 1233 1212
f 1119 1118 1040
f 1144 1235 1236
f 1123 1226 1216
f 1123 1138 1101
f 1194 1112 1108
f 1194 1097 1112
f 1101 1099 1210
f 1117 1180 1108
f 1229 1100 1138
f 1229 1097 1100
f 1069 1230 1091
f 1210 1215 1237
f 1230 1206 1091
f 1230 1221 1206
f 1117 1237 1058
f 1117 1210 1237
f 1113 1043 1213
f 1117 1058 1224
f 1215 1056 1237
f 1056 1215 1097
f 1237 1056 1058
f 1137 1064 1116
f 1221 1064 1137
f 1123 1210 1117
f 1117 1224 1179
f 1224 1232 1179
f 1232 1214 1179
f 1232 1097 1214
f 1043 1120 1213
f 1120 1043 1221
f 1141 1212 1221
f 914 1299 841
f 1117 1091 1147
f 1117 1067 1069
f 1143 1129 1299
f 1129 1143 1238
f 1030 1028 1106
f 1239 1126 1240
f 1066 1065 1119
f 1117 1113 1213
f 1097 1141 1221
f 863 1106 1027
f 1126 1121 1240
f 1121 1126 1212
f 1042 1168 930
f 1127 1125 1067
f 1112 1043 1113
f 1043 1112 1221
f 1117 863 906
f 1214 1194 1180
f 1194 1214 1097
f 1097 1221 1112
f 1051 1066 1119
f 1136 1140 1107
f 1299 914 841
f 1124 967 1134
f 1087 1054 1052
f 1054 1087 1242
f 1118 1041 1040
f 1118 1242 1041
f 1051 930 932
f 1050 1243 1146
f 1106 961 1027
f 1051 1107 976
f 1118 1221 1242
f 1242 1221 1212
f 1028 961 1106
f 1206 1231 1147
f 1231 1206 1221
f 1051 1042 930
f 1055 1037 1039
f 1091 1206 1147
f 1231 1137 1115
f 1137 1231 1221
f 1147 1231 1115
f 1124 1135 1244
f 1133 1235 1144
f 1235 1133 1212
f 1162 1245 1163
f 1238 1143 1246
f 1143 1128 1246
f 1271 1247 1162
f 1248 1249 1250
f 1249 1248 1266
f 1124 1236 1055
f 1271 1251 1250
f 1271 1051 1124
f 967 1132 1134
f 1150 1252 1149
f 1252 1148 1149
f 1051 1136 1107
f 1253 1037 1055
f 1037 1253 1212
f 1140 1086 1107
f 1086 1140 1242
f 1107 1086 976
f 1241 1126 1239
f 1126 1241 1212
f 1124 1240 967
f 1124 1051 1053
f 1255 1256 1257
f 1256 1258 1257
f 1258 1256 1255
f 1259 1260 1261
f 1262 1259 1261
f 1124 1050 1146
f 1244 1241 1239
f 1124 1039 1263
f 1240 1121 967
f 1135 1220 1244
f 1220 1241 1244
f 1212 1241 1220
f 1054 1233 1053
f 1233 1054 1242
f 1124 1244 1239
f 1053 1233 1049
f 1051 976 1052
f 1124 1053 1049
f 1233 1242 1212
f 1142 1243 1050
f 1142 1212 1243
f 1243 1219 1146
f 1219 1243 1212
f 1124 1239 1240
f 1265 1258 1157
f 1271 1163 1251
f 1146 1219 1135
f 1039 1038 1263
f 1130 1111 1129
f 1267 1245 1162
f 1245 1267 1266
f 1235 1253 1236
f 1253 1235 1212
f 1124 1144 1236
f 1121 1132 967
f 1132 1121 1212
f 1268 1254 1269
f 1254 1268 1266
f 1124 1134 1144
f 1130 1129 1238
f 1130 1238 1246
f 1124 1263 1269
f 1254 1047 1046
f 1047 1254 1266
f 1270 1267 1247
f 1267 1270 1266
f 1130 1246 1150
f 1246 1128 1150
f 1271 1124 1269
f 1269 1254 1046
f 1247 1267 1162
f 1038 1268 1263
f 1268 1038 1212
f 1048 1270 1247
f 1124 1055 1039
f 1047 1270 1048
f 1270 1047 1266
f 1263 1268 1269
f 979 1266 980
f 1245 1272 1163
f 1272 1245 1266
f 1271 1269 1046
f 1271 1046 1048
f 1271 1048 1247
f 1236 1253 1055
f 1268 1212 1266
f 1252 1128 1299
f 1150 1128 1252
f 1148 1252 1299
f 1148 1299 1155
f 1149 1130 1150
f 1129 1111 1299
f 1153 1273 1262
f 1148 1130 1149
f 1111 1130 1155
f 1159 1288 1167
f 1250 1249 979
f 1155 1130 1148
f 1274 1275 1276
f 1163 1272 1251
f 1271 1250 979
f 1249 1266 979
f 1272 1248 1251
f 1248 1272 1266
f 1251 1248 1250
f 1278 1274 1279
f 1274 1276 1279
f 1280 1281 1256
f 1265 1280 1256
f 1261 1275 1274
f 1278 1261 1274
f 1278 1275 1261
f 1273 1152 1154
f 1153 1152 1273
f 1157 1278 1265
f 1157 1304 1145
f 1282 1158 1159
f 1287 1282 1159
f 936 1271 980
f 1278 1262 1275
f 1153 1283 1284
f 1145 1283 1153
f 1160 1264 1161
f 1285 1156 1286
f 1285 1283 1156
f 1154 1151 1284
f 1285 1286 1290
f 1283 1285 1290
f 1278 1279 1291
f 1279 1276 1291
f 1288 1154 1284
f 1292 1293 1264
f 1292 1167 1293
f 1304 972 1145
f 1145 1156 1283
f 1293 1161 1264
f 1161 1293 1167
f 1283 1290 1284
f 1290 1286 1284
f 1286 1156 1288
f 1288 1156 1145
f 1287 1294 1158
f 1288 1294 1287
f 1145 1153 1262
f 1151 1290 1284
f 1290 1153 1284
f 1153 1290 1151
f 1292 1264 1160
f 1294 1288 1158
f 1282 1287 1158
f 1288 1161 1167
f 1070 1292 1160
f 1167 1292 1070
f 972 1288 1145
f 1166 1282 1034
f 1282 1166 1165
f 1145 1262 1278
f 1161 1289 1160
f 1295 1277 1258
f 1296 1277 1295
f 1288 972 1289
f 972 980 1289
f 1282 1287 1034
f 1282 1165 1287
f 1011 827 1234
f 1145 1278 1157
f 1259 1273 1260
f 1265 1256 1257
f 1256 1281 1257
f 1289 1166 1034
f 1166 1289 1164
f 1262 1152 1259
f 1152 1273 1259
f 1152 1262 1273
f 1265 1278 1291
f 1262 1261 1275
f 1261 1260 1275
f 1280 1291 1281
f 1265 1279 1280
f 1279 1291 1280
f 1291 1279 1265
f 1255 1257 1311
f 1295 1255 1296
f 1295 1258 1255
f 1289 1255 1311
f 1277 1296 1300
f 1197 1196 1301
f 1325 1197 1301
f 1257 1258 1265
f 1197 1302 1303
f 1291 1311 1281
f 1311 1257 1281
f 1258 1277 1157
f 1277 1304 1157
f 1300 1255 1289
f 1255 1300 1296
f 1277 1305 1304
f 1305 1277 1300
f 1300 1289 1305
f 1070 1287 1159
f 1034 1287 1070
f 936 980 1306
f 1196 1303 1308
f 820 1234 1327
f 1266 1234 980
f 1266 1212 1234
f 1305 1234 1304
f 1311 1164 1289
f 1165 1311 1287
f 1287 1311 1154
f 1311 1273 1154
f 1154 1288 1287
f 1276 1311 1291
f 1311 1276 1275
f 1260 1311 1275
f 1165 1164 1311
f 1273 1311 1260
f 1284 1286 1288
f 1307 1312 1313
f 1314 1307 1334
f 1315 1316 1317
f 1325 1318 1302
f 1289 980 1305
f 1320 1307 1314
f 1322 1323 1336
f 1323 1322 1324
f 1234 1305 980
f 1312 1307 1320
f 1329 1330 1331
f 1308 1302 1333
f 1302 1308 1303
f 1085 1320 1314
f 1334 1085 1314
f 1336 1337 1322
f 1326 1329 1339
f 1313 1370 1307
f 1349 1341 1342
f 1310 1173 1342
f 1173 1343 1342
f 1370 1334 1307
f 1320 1344 1312
f 1344 1320 1085
f 1301 1196 1345
f 1346 1347 1302
f 1346 1348 1347
f 1302 1197 1325
f 1332 1301 1345
f 1325 1301 1332
f 1318 1346 1302
f 1352 1348 1318
f 1302 1347 1333
f 1343 1349 1342
f 1350 1341 1349
f 1351 1341 1350
f 1326 1330 1329
f 1318 1348 1346
f 1309 1360 1310
f 1321 1331 1343
f 1331 1330 1343
f 1318 1325 1352
f 1338 1333 1348
f 1338 1321 1399
f 1339 1329 1331
f 1321 1339 1331
f 1338 1326 1339
f 1355 1356 1357
f 1399 1332 1308
f 1332 1345 1308
f 1364 1085 1334
f 1326 1338 1340
f 1386 1360 1336
f 1313 1344 1364
f 1313 1312 1344
f 1370 1313 1364
f 1297 1361 1394
f 1386 1362 1363
f 1316 1362 1317
f 1362 1386 1317
f 1330 1349 1343
f 1297 1394 1365
f 1339 1321 1338
f 1360 1321 1310
f 1310 1321 1173
f 1399 1321 1360
f 1338 1399 1308
f 1344 1085 1364
f 1334 1370 1328
f 1309 1340 1394
f 1173 1321 1343
f 1338 1308 1333
f 1348 1352 1338
f 1325 1332 1399
f 1345 1196 1308
f 1370 1325 1399
f 1399 1298 1370
f 1370 1298 1319
f 1319 1298 1355
f 1298 1328 1366
f 1355 1366 1359
f 1355 1298 1366
f 1355 1359 1356
f 1319 1355 1357
f 1370 1364 1328
f 1334 1328 1364
f 1340 1309 1354
f 1351 1354 1358
f 1350 1354 1351
f 1202 1337 1360
f 1354 1309 1358
f 1349 1330 1340
f 1330 1326 1340
f 1350 1349 1340
f 1310 1371 1358
f 1371 1351 1358
f 1342 1341 1371
f 1310 1342 1371
f 1341 1351 1371
f 1309 1394 1360
f 1386 1323 1317
f 1348 1333 1347
f 1340 1354 1350
f 1394 1338 1352
f 1370 1369 1368
f 1340 1338 1394
f 1352 1325 1394
f 1359 1368 1356
f 1369 1356 1368
f 1297 1365 1363
f 1365 1386 1363
f 1202 1353 1372
f 1323 1386 1336
f 1367 1297 1363
f 1362 1367 1363
f 1202 1324 1322
f 1356 1369 1357
f 1360 1337 1336
f 1202 1322 1337
f 1358 1309 1310
f 1324 1202 1372
f 1316 1361 1362
f 1202 1394 1353
f 1353 1316 1315
f 1353 1315 1372
f 1323 1372 1317
f 1372 1315 1317
f 1399 1328 1298
f 1366 1328 1368
f 1368 1359 1366
f 1328 1370 1368
f 1319 1369 1370
f 1319 1357 1369
f 1324 1372 1323
f 1365 1394 1386
f 1373 1391 1335
f 1374 1375 1373
f 1377 1398 1373
f 1375 1377 1373
f 1399 1360 1386
f 1378 1397 1379
f 1380 1378 1379
f 1399 1370 1328
f 1316 1353 1361
f 1379 1381 1382
f 1397 1381 1379
f 1375 1377 1376
f 1377 1374 1376
f 1374 1377 1375
f 1335 1374 1373
f 1388 1385 1384
f 1389 1385 1079
f 1389 1387 1385
f 1385 1387 1384
f 1079 1390 1393
f 1297 1367 1361
f 1399 1325 1370
f 1367 1362 1361
f 1353 1394 1361
f 1380 1379 1382
f 1392 1377 1375
f 1377 1392 1398
f 1391 1327 1335
f 1374 1335 1376
f 1398 1392 1383
f 1373 1398 1391
f 1398 1383 1335
f 1335 1383 1376
f 1383 1392 1376
f 1392 1375 1376
f 1393 1389 1079
f 1385 1388 1079
f 1388 1390 1079
f 1387 1389 1393
f 1384 1390 1388
f 1399 1386 1394
f 1325 1397 1394
f 1325 1399 1397
f 1398 1327 1391
f 1398 1335 1327
f 1390 1384 1393
f 1384 1387 1393
f 1380 1382 1395
f 1395 1378 1380
f 1395 1382 1396
f 1382 1381 1396
f 1394 1378 1396
f 1394 1397 1378
f 1381 1397 1396
f 1396 1397 1399
f 1395 1396 1378
f 1394 1396 1399
f 70 59 60
f 70 37 59
f 119 121 118
f 130 122 131
f 617 832 664
f 832 1306 831

