o convex_0
v 0.133128 0.032631 -0.041707
v -0.127170 -0.058639 -0.117473
v -0.129098 -0.060589 -0.115518
v -0.131052 0.057894 0.109756
v 0.125339 -0.058639 0.113645
v -0.125216 0.057882 -0.117473
v 0.129220 -0.062538 -0.111652
v -0.125216 -0.060589 0.109756
v 0.121457 0.061767 0.111712
v 0.129220 0.057882 -0.113608
v -0.002830 0.067615 0.113645
v -0.131052 -0.023681 0.115600
v 0.125339 0.020986 0.117533
v 0.105931 0.061767 -0.070835
v -0.068895 -0.062538 0.055365
v -0.131052 0.044288 -0.078635
v -0.133006 -0.058639 0.109756
v 0.111740 -0.025617 -0.115541
v 0.129220 0.057882 0.111689
v 0.129220 -0.050881 0.107824
v -0.125216 -0.062525 -0.115518
v 0.041820 0.063729 -0.037819
v 0.109813 -0.035325 0.117533
v -0.105783 0.061780 0.100047
v 0.131174 -0.060576 -0.111652
v 0.133128 0.054009 -0.113608
v -0.133006 0.057894 0.096158
v 0.094260 -0.060576 0.086449
v -0.111618 0.017088 0.115600
v -0.074704 -0.054754 0.113645
v -0.068895 0.055945 -0.117473
v 0.133128 -0.012011 -0.068903
v -0.131052 -0.037274 -0.078635
v -0.133006 0.020986 0.030125
v -0.129098 0.055945 -0.115518
v 0.053465 0.059831 -0.107764
v 0.131174 0.019037 0.074784
v 0.096214 0.063729 0.074807
v 0.129220 -0.058639 -0.113608
v 0.123411 0.055945 0.115577
v 0.127293 -0.056703 0.115577
v 0.119504 0.061767 -0.043663
v 0.100096 0.030694 -0.115541
v -0.041698 -0.010074 -0.117473
v 0.043748 -0.006201 0.117533
v 0.131174 -0.058639 -0.016467
v -0.131052 0.055945 0.111689
v -0.006738 0.067615 0.109756
v -0.039744 0.038466 0.115600
v -0.129098 0.059844 0.105891
v -0.111618 -0.062525 0.010683
v 0.004907 0.067615 0.109756
v 0.127293 -0.062538 -0.094166
v 0.127293 0.059844 -0.098054
v -0.018383 -0.060589 0.105868
v 0.131174 0.046224 0.067030
v 0.102050 0.024859 0.117533
v -0.131052 -0.058639 0.111689
v -0.031981 0.061780 -0.059193
v 0.032104 0.061780 -0.076680
v -0.127170 0.057894 -0.115518
v 0.131174 -0.052817 0.008750
v -0.131052 0.026809 -0.086389
v -0.131052 -0.060589 0.094226
f 21 51 64 
f 3 2 21 
f 7 15 21 
f 23 12 30 
f 2 6 31 
f 6 10 31 
f 26 1 32 
f 25 26 32 
f 3 17 33 
f 27 16 34 
f 17 27 34 
f 33 17 34 
f 2 3 35 
f 6 2 35 
f 16 27 35 
f 10 6 36 
f 19 20 37 
f 32 1 37 
f 2 18 39 
f 21 2 39 
f 7 21 39 
f 25 7 39 
f 18 26 39 
f 26 25 39 
f 9 11 40 
f 19 9 40 
f 13 19 40 
f 19 13 41 
f 20 19 41 
f 13 23 41 
f 23 30 41 
f 38 9 42 
f 10 26 43 
f 26 18 43 
f 31 10 43 
f 31 43 44 
f 18 2 44 
f 2 31 44 
f 43 18 44 
f 12 23 45 
f 23 13 45 
f 29 12 45 
f 5 7 46 
f 7 25 46 
f 25 32 46 
f 41 5 46 
f 20 41 46 
f 11 4 47 
f 17 12 47 
f 4 27 47 
f 27 17 47 
f 12 29 47 
f 24 11 48 
f 40 11 49 
f 11 47 49 
f 47 29 49 
f 4 11 50 
f 11 24 50 
f 27 4 50 
f 15 8 51 
f 21 15 51 
f 11 9 52 
f 14 22 52 
f 9 38 52 
f 42 14 52 
f 38 42 52 
f 22 48 52 
f 48 11 52 
f 7 5 53 
f 15 7 53 
f 5 28 53 
f 28 15 53 
f 9 19 54 
f 26 10 54 
f 19 26 54 
f 10 36 54 
f 36 14 54 
f 42 9 54 
f 14 42 54 
f 5 8 55 
f 8 15 55 
f 28 5 55 
f 15 28 55 
f 1 26 56 
f 26 19 56 
f 37 1 56 
f 19 37 56 
f 13 40 57 
f 45 13 57 
f 29 45 57 
f 49 29 57 
f 40 49 57 
f 8 5 58 
f 17 8 58 
f 12 17 58 
f 30 12 58 
f 5 41 58 
f 41 30 58 
f 22 6 59 
f 6 48 59 
f 48 22 59 
f 6 22 60 
f 22 14 60 
f 36 6 60 
f 14 36 60 
f 6 35 61 
f 35 27 61 
f 48 6 61 
f 24 48 61 
f 50 24 61 
f 27 50 61 
f 37 20 62 
f 32 37 62 
f 20 46 62 
f 46 32 62 
f 3 33 63 
f 34 16 63 
f 33 34 63 
f 35 3 63 
f 16 35 63 
f 17 3 64 
f 8 17 64 
f 3 21 64 
f 51 8 64 
