# https://github.com/mikedh/trimesh
v -0.73828000 -0.85540003 -0.01526745
v -0.73833001 -0.85545999 -0.15198745
v -0.73833001 -0.85545999 -0.14807746
v -0.73828000 -0.85540003 -0.15198745
v -0.73833001 -0.85545999 -0.05823745
v -0.73828000 -0.85540003 -0.11292745
v -0.73828000 -0.85540003 -0.10901746
v -0.73890001 -0.85936999 -0.10852870
v -0.73828000 -0.85540003 -0.05042745
v -0.73833001 -0.85545999 -0.04651746
v -0.73828000 -0.85540003 -0.04651746
v -0.73828000 -0.85540003 -0.14807746
v -0.73833001 -0.85545999 -0.14417745
v -0.73828000 -0.85540003 -0.14417745
v -0.73833001 -0.85545999 -0.03479745
v -0.73833001 -0.85545999 -0.03089745
v -0.73828000 -0.85540003 -0.03479745
v -0.73833001 -0.85545999 -0.10510746
v -0.73833001 -0.85545999 -0.10120745
v -0.73828000 -0.85540003 -0.10510746
v -0.73828000 -0.85540003 -0.07776746
v -0.73833001 -0.85545999 -0.06214745
v -0.73828000 -0.85540003 -0.14026745
v -0.73833001 -0.85545999 -0.05042745
v -0.73833001 -0.85545999 -0.03870745
v -0.73436999 -0.85359001 -0.16565745
v -0.73833001 -0.85545999 -0.02698745
v -0.73833001 -0.85545999 -0.02307745
v -0.73828000 -0.85540003 -0.02698745
v -0.73833001 -0.85545999 -0.01917745
v -0.73833001 -0.85545999 -0.01526745
v -0.73828000 -0.85540003 -0.01917745
v -0.73828000 -0.85540003 0.00816255
v -0.73828000 -0.85540003 -0.13635746
v -0.73436999 -0.85359001 -0.14759246
v -0.73833001 -0.85545999 -0.01135745
v -0.73828000 -0.85540003 -0.01135745
v -0.73833001 -0.85545999 -0.16370745
v -0.73833001 -0.85545999 -0.15979746
v -0.73828000 -0.85540003 -0.16370745
v -0.73833001 -0.85545999 -0.15589745
v -0.73833001 -0.85545999 -0.16760746
v -0.73833001 -0.85545999 -0.11292745
v -0.73833001 -0.85545999 -0.10901746
v -0.73833001 -0.85545999 -0.04260745
v -0.73828000 -0.85540003 -0.04260745
v -0.73828000 -0.85540003 -0.08948746
v -0.73833001 -0.85545999 -0.08557745
v -0.73828000 -0.85540003 -0.08557745
v -0.73436999 -0.85359001 -0.12024870
v -0.73833001 -0.85545999 -0.09729745
v -0.73496711 -0.85423428 -0.18653190
v -0.73828000 -0.85540003 -0.17151745
v -0.73828000 -0.85540003 -0.16760746
v -0.73828000 -0.85540003 -0.05432746
v -0.73828000 -0.85540003 -0.10120745
v -0.73828000 -0.85540003 -0.09729745
v -0.73833001 -0.85545999 -0.12464745
v -0.73833001 -0.85545999 -0.13635746
v -0.73828000 -0.85540003 -0.15589745
v -0.73828000 -0.85540003 -0.17932746
v -0.73828000 -0.85540003 -0.17542745
v -0.73833001 -0.85545999 -0.12073746
v -0.73833001 -0.85545999 -0.11682745
v -0.73828000 -0.85540003 -0.12073746
v -0.73890001 -0.85936999 -0.13294370
v -0.73833001 -0.85545999 -0.09339745
v -0.73828000 -0.85540003 -0.03870745
v -0.73828000 -0.85540003 -0.11682745
v -0.73436999 -0.85359001 -0.09851933
v -0.73833001 -0.85545999 -0.07385746
v -0.73833001 -0.85545999 -0.06995745
v -0.73828000 -0.85540003 -0.07385746
v -0.73833001 -0.85545999 0.00035255
v -0.73841292 -0.85600030 -0.18448000
v -0.73833001 -0.85545999 -0.00354745
v -0.73828000 -0.85540003 -0.00354745
v -0.73682338 -0.85448134 0.02460941
v -0.73833001 -0.85545999 -0.17542745
v -0.73833001 -0.85545999 -0.17151745
v -0.73828000 -0.85540003 -0.15979746
v -0.73828000 -0.85540003 0.00425255
v -0.73833001 -0.85545999 0.00816255
v -0.73833001 -0.85545999 -0.13245745
v -0.73833001 -0.85545999 -0.12854746
v -0.73828000 -0.85540003 -0.13245745
v -0.73833001 -0.85545999 -0.05432746
v -0.73828000 -0.85540003 -0.05823745
v -0.73833001 -0.85545999 -0.08948746
v -0.73833001 -0.85545999 -0.14026745
v -0.73833001 -0.85545999 -0.06604745
v -0.73828000 -0.85540003 -0.06995745
v -0.73828000 -0.85540003 -0.12854746
v -0.73828000 -0.85540003 -0.09339745
v -0.73828000 -0.85540003 -0.12464745
v -0.73833001 -0.85545999 -0.07776746
v -0.73833001 -0.85545999 -0.08167745
v -0.73828000 -0.85540003 -0.08167745
v -0.73890001 -0.85936999 -0.02893995
v -0.73828000 -0.85540003 -0.06604745
v -0.73436999 -0.85359001 -0.00550495
v -0.73833001 -0.85545999 -0.00745745
v -0.73890001 -0.85936999 0.00621005
v -0.73828000 -0.85540003 -0.06214745
v -0.73828000 -0.85540003 -0.03089745
v -0.73828000 -0.85540003 0.00035255
v -0.73828000 -0.85540003 -0.00745745
v -0.73833001 -0.85545999 0.00425255
v -0.73828000 -0.85540003 -0.02307745
v -0.73890001 -0.85936999 -0.08948745
v -0.73889989 -0.85936922 -0.06509317
v -0.73833001 -0.85545999 0.01206255
v -0.73828000 -0.85540003 0.01206255
v -0.73833001 -0.85545999 0.01597255
v -0.48045999 -0.24606000 0.18785255
v -0.36717999 0.11859000 -0.29065746
v -0.58615768 -0.12182008 -0.24066195
v -0.73436999 -0.85359001 -0.07019995
v -0.73436999 -0.85359001 -0.03943808
v -0.74007362 -0.88229179 -0.18618461
v -0.47264999 -0.24606000 0.18785255
v -0.49640492 -0.19817205 0.18790890
v -0.47656000 -0.24606000 0.18785255
v -0.47264999 -0.24608999 0.18784255
v -0.48864624 -0.24881360 0.18505338
v -0.46875000 -0.24606000 0.18785255
v -0.37108999 0.12102000 -0.01135745
v -0.37108999 0.12102000 -0.00745745
v -0.37114000 0.12109000 -0.00745745
v -0.37108999 0.12102000 0.02769255
v -0.37114000 0.12109000 0.03160255
v -0.37114000 0.12109000 0.02769255
v -0.45580336 0.46838534 -0.42199358
v -0.37108999 0.12102000 0.02378254
v -0.46483999 -0.24606000 0.18785255
v -0.46092999 -0.24608999 0.18784255
v -0.46092999 -0.24606000 0.18785255
v -0.47656000 -0.24608999 0.18784255
v -0.39275634 -0.09659021 -0.31256327
v -0.44920999 -0.24606000 0.18785255
v -0.44531000 -0.24608999 0.18784255
v -0.44531000 -0.24606000 0.18785255
v -0.36717999 0.11859000 -0.02893995
v -0.47224802 -0.81021446 -0.10683067
v -0.42382249 -0.24218000 0.18800254
v -0.42578000 -0.24606000 0.18785255
v -0.42186999 -0.24608999 0.18784255
v -0.42186999 -0.24606000 0.18785255
v -0.44920999 -0.24608999 0.18784255
v -0.37114000 0.12109000 -0.24573745
v -0.37108999 0.12102000 -0.24964745
v -0.37108999 0.12102000 -0.24573745
v -0.43750000 -0.24608999 0.18784255
v -0.43750000 -0.24606000 0.18785255
v -0.44139999 -0.24606000 0.18785255
v -0.44139999 -0.24608999 0.18784255
v -0.37114000 -0.12109000 -0.41760743
v -0.37114000 -0.12109000 -0.41370744
v -0.37108999 -0.12102000 -0.41760743
v -0.46875000 -0.24608999 0.18784255
v -0.37108999 0.12102000 0.08628254
v -0.37108999 0.12102000 0.08238254
v -0.37114000 -0.12109000 -0.37854746
v -0.45702687 -0.24890000 0.18394254
v -0.37108999 0.12102000 -0.03479745
v -0.37108999 0.12102000 -0.03870745
v -0.37108999 -0.12102000 -0.40979746
v -0.37114000 -0.12109000 -0.40589744
v -0.37108999 -0.12102000 -0.40589744
v -0.37114000 0.12109000 -0.24964745
v -0.37108999 0.12102000 -0.25354746
v -0.37114000 -0.12109000 -0.39807743
v -0.37108999 0.12102000 -0.30042744
v -0.36717999 0.11859000 -0.30432743
v -0.37114000 -0.12109000 -0.38635743
v -0.37114000 -0.12109000 -0.38245744
v -0.37108999 -0.12102000 -0.38635743
v -0.37114000 0.12109000 -0.28870744
v -0.37140000 0.12500000 -0.25110745
v -0.37108999 0.12102000 -0.28479746
v -0.37108999 0.12102000 -0.29651746
v -0.37108999 0.12102000 -0.26917744
v -0.37114000 0.12109000 -0.26917744
v -0.37108999 0.12102000 -0.27307743
v -0.37114000 0.12109000 -0.28089744
v -0.37114000 0.12109000 -0.00354745
v -0.37108999 0.12102000 -0.00354745
v -0.37108999 0.12102000 0.07456255
v -0.37108999 0.12102000 0.07066254
v -0.37114000 0.12109000 -0.28479746
v -0.37108999 0.12102000 0.09410255
v -0.37140000 0.12500000 0.13902006
v -0.37108999 0.12102000 0.04722255
v -0.37114000 0.12109000 0.09800254
v -0.37108999 0.12102000 0.05894254
v -0.37108999 0.12102000 0.05503255
v -0.37108999 0.12102000 0.01988255
v -0.37114000 0.12109000 0.02378254
v -0.24608999 -0.01562000 0.18784255
v -0.24608999 -0.01953000 0.18784255
v -0.24606000 -0.01953000 0.18785255
v -0.37108999 0.12102000 0.01597255
v -0.37114000 0.12109000 0.11753254
v -0.37108999 0.12102000 0.12535255
v -0.37108999 0.12102000 0.12144255
v -0.37114000 0.12109000 0.13706255
v -0.37114000 0.12109000 0.11363254
v -0.37108999 0.12102000 0.11363254
v -0.37041649 -0.11948786 -0.43146992
v -0.37108999 0.12102000 -0.28870744
v -0.37114000 0.12109000 -0.03479745
v -0.37114000 0.12109000 0.05894254
v -0.37114000 0.12109000 0.12925255
v -0.37114000 0.12109000 0.12535255
v -0.37323770 -0.26575357 0.13427502
v -0.45311999 -0.24606000 0.18785255
v -0.45703000 -0.24606000 0.18785255
v -0.24608999 -0.04687000 0.18784255
v -0.24890000 -0.04955687 0.18394254
v -0.43358999 -0.24606000 0.18785255
v -0.43358999 -0.24608999 0.18784255
v -0.42967999 -0.24608999 0.18784255
v -0.45703000 -0.24608999 0.18784255
v -0.24777874 -0.73851019 0.18603116
v -0.41014999 -0.24606000 0.18785255
v -0.45311999 -0.24608999 0.18784255
v -0.46483999 -0.24608999 0.18784255
v -0.37108999 -0.12102000 -0.39026746
v -0.37114000 -0.12109000 -0.39026746
v -0.42724249 -0.24890000 0.18394254
v -0.37108999 -0.12102000 -0.37854746
v -0.37108999 -0.12102000 -0.37464744
v -0.37114000 0.12109000 -0.22620745
v -0.37140000 0.12500000 -0.22522870
v -0.36990687 0.11965518 -0.21844861
v -0.36993012 0.12050554 -0.30913734
v -0.37108999 0.12102000 -0.23401745
v -0.37108999 0.12102000 -0.23792745
v -0.37114000 0.12109000 -0.26135743
v -0.37114000 0.12109000 -0.25745744
v -0.37108999 0.12102000 -0.26135743
v -0.37108999 0.12102000 -0.28089744
v -0.37114000 0.12109000 0.00035255
v -0.37108999 0.12102000 0.00035255
v -0.37108999 0.12102000 -0.01526745
v -0.37114000 0.12109000 -0.01917745
v -0.37114000 0.12109000 -0.01526745
v -0.37140000 0.12500000 0.08384505
v -0.37114000 0.12109000 0.08628254
v -0.36717999 0.11859000 -0.24451619
v -0.24606000 0.55467999 0.18785255
v -0.24606000 0.55078000 0.18785255
v -0.37114000 -0.12109000 -0.39417744
v -0.37108999 0.12102000 0.06675254
v -0.37108999 0.12102000 0.06285255
v -0.37108999 0.12102000 -0.29260743
v -0.37108999 0.12102000 -0.30432743
v -0.37114000 0.12109000 -0.29260743
v -0.37114000 0.12109000 -0.29651746
v -0.37114000 0.12109000 -0.27307743
v -0.37108999 0.12102000 -0.27698746
v -0.37108999 0.12102000 -0.01917745
v -0.37114000 0.12109000 -0.30042744
v -0.37108999 0.12102000 0.04331254
v -0.37108999 0.12102000 0.03941255
v -0.37114000 0.12109000 -0.01135745
v -0.37108999 0.12102000 0.03550254
v -0.37114000 0.12109000 0.04331254
v -0.37114000 0.12109000 0.04722255
v -0.37114000 0.12109000 0.05503255
v -0.37114000 0.12109000 0.10581255
v -0.37108999 0.12102000 0.10191254
v -0.37108999 0.12102000 0.10581255
v -0.37108999 0.12102000 0.07847255
v -0.37114000 0.12109000 0.07456255
v -0.37114000 0.12109000 0.07847255
v -0.37114000 0.12109000 0.06675254
v -0.37114000 0.12109000 0.07066254
v -0.37108999 0.12102000 0.10972255
v -0.37114000 0.12109000 -0.02307745
v -0.37108999 0.12102000 -0.02698745
v -0.37108999 0.12102000 -0.02307745
v -0.42967999 -0.24606000 0.18785255
v -0.42578000 -0.24608999 0.18784255
v -0.44140249 -0.24218000 0.18800254
v -0.41406000 -0.24606000 0.18785255
v -0.41014999 -0.24608999 0.18784255
v -0.41795999 -0.24608999 0.18784255
v -0.38670999 -0.24608999 0.18784255
v -0.41795999 -0.24606000 0.18785255
v -0.41406000 -0.24608999 0.18784255
v -0.37108999 0.12102000 0.09019255
v -0.40625000 -0.24606000 0.18785255
v -0.40625000 -0.24608999 0.18784255
v -0.40233999 -0.24608999 0.18784255
v -0.39842999 -0.24608999 0.18784255
v -0.40233999 -0.24606000 0.18785255
v -0.37108999 -0.12102000 -0.36682743
v -0.37114000 -0.12109000 -0.36292744
v -0.37108999 -0.12102000 -0.36292744
v -0.37108999 0.12102000 -0.25745744
v -0.37114000 0.12109000 0.12144255
v -0.37108999 0.12102000 0.11753254
v -0.37108999 0.12102000 0.05113254
v -0.37140000 -0.12500000 -0.35535556
v -0.37114000 0.12109000 0.01206255
v -0.37108999 0.12102000 0.00816255
v -0.37108999 0.12102000 0.01206255
v -0.37108999 0.12102000 -0.26526746
v -0.37114000 0.12109000 -0.23010746
v -0.37114000 0.12109000 0.00816255
v -0.39315116 0.13305633 -0.10972226
v -0.37114000 0.12109000 0.10191254
v -0.37108999 0.12102000 0.09800254
v -0.37140000 0.12500000 0.01182380
v -0.37108999 0.12102000 -0.03089745
v -0.37108999 0.12102000 0.03160255
v -0.37114000 0.12109000 -0.23792745
v -0.37108999 0.12102000 -0.24182746
v -0.37114000 0.12109000 -0.25354746
v -0.36717999 0.11859000 -0.27308121
v -0.37114000 0.12109000 -0.02698745
v -0.37076601 0.12346155 -0.30802825
v -0.37114000 0.12109000 0.10972255
v -0.24559732 0.00016308 0.18793862
v -0.40038624 -0.24218000 0.18800254
v -0.24890000 -0.65624499 0.18394254
v -0.24608999 -0.68358999 0.18784255
v -0.37108999 -0.12102000 -0.41370744
v -0.39453000 -0.24606000 0.18785255
v -0.39061999 -0.24606000 0.18785255
v -0.37114000 0.12109000 -0.24182746
v -0.39453000 -0.24608999 0.18784255
v -0.39061999 -0.24608999 0.18784255
v -0.24608999 -0.03125000 0.18784255
v -0.39842999 -0.24606000 0.18785255
v -0.37108999 -0.12102000 -0.38245744
v -0.37114000 0.12109000 0.03550254
v -0.37114000 0.12109000 0.09019255
v -0.37114000 0.12109000 0.09410255
v -0.37114000 0.12109000 0.03941255
v -0.37140000 0.12500000 0.10923380
v -0.37114000 0.12109000 -0.23401745
v -0.36717999 0.11859000 0.10825755
v -0.37108999 0.12102000 -0.23010746
v -0.37114000 0.12109000 0.01988255
v -0.37108999 0.12102000 0.00425255
v -0.36717999 0.11859000 0.00230505
v -0.37029913 0.12021817 0.13561052
v -0.37114000 0.12109000 0.00425255
v -0.37114000 0.12109000 0.05113254
v -0.24608999 -0.05468000 0.18784255
v -0.24608999 -0.05859000 0.18784255
v -0.24606000 -0.05859000 0.18785255
v -0.24606000 -0.71483999 0.18785255
v -0.24606000 -0.66014999 0.18785255
v -0.37114000 0.12109000 0.06285255
v -0.37108999 -0.12102000 -0.42151746
v -0.37108999 -0.12102000 -0.39417744
v -0.33710808 0.10775752 0.18806471
v -0.37108999 -0.12102000 -0.40198746
v -0.37108999 -0.12102000 -0.39807743
v -0.37112775 0.12108527 -0.30446538
v -0.37114000 -0.12109000 -0.36682743
v -0.37114000 -0.12109000 -0.40979746
v -0.37114000 -0.12109000 -0.35901746
v -0.37127000 -0.12304500 -0.41492620
v -0.37064269 -0.24184814 0.18829045
v -0.37108999 -0.12102000 -0.37073746
v -0.37114000 -0.12109000 -0.40198746
v -0.37140000 -0.12500000 -0.38465244
v -0.36363512 -0.11642569 -0.36733863
v -0.37114000 0.12109000 -0.27698746
v -0.37114000 -0.12109000 -0.37464744
v -0.37114000 -0.12109000 -0.37073746
v -0.24608999 -0.07031000 0.18784255
v -0.24890000 -0.08495750 0.18394254
v -0.24608999 -0.02343000 0.18784255
v -0.24608999 -0.02734000 0.18784255
v -0.24606000 -0.02734000 0.18785255
v -0.24606000 -0.03515000 0.18785255
v -0.24606000 -0.03125000 0.18785255
v -0.37140000 0.12500000 -0.27649871
v -0.37114000 0.12109000 0.08238254
v -0.37114000 0.12109000 -0.26526746
v -0.36928383 0.11825273 -0.05660534
v -0.24606000 -0.06250000 0.18785255
v -0.24608999 -0.06250000 0.18784255
v -0.24606000 -0.06640000 0.18785255
v -0.24606000 -0.05468000 0.18785255
v -0.37114000 0.12109000 0.01597255
v -0.37114000 0.12109000 -0.03089745
v -0.37140000 0.12500000 -0.02649933
v -0.24218000 -0.06493687 0.18800254
v -0.24218000 -0.01806125 0.18800254
v -0.24606000 -0.04687000 0.18785255
v -0.24890000 -0.01952625 0.18394254
v -0.36717999 0.11859000 0.08335505
v -0.37140000 0.12500000 0.05845379
v -0.35782206 0.37908202 0.22175471
v -0.24608999 -0.06640000 0.18784255
v -0.24608999 -0.00781000 0.18784255
v -0.24608999 -0.04296000 0.18784255
v -0.24606000 -0.04296000 0.18785255
v -0.24606000 -0.03906000 0.18785255
v -0.24608999 -0.01171000 0.18784255
v -0.24606000 -0.01562000 0.18785255
v -0.24882141 -0.70114988 0.18403889
v -0.24608999 0.63281000 0.18784255
v -0.24608999 0.54686999 0.18784255
v -0.24218000 0.64745623 0.18800254
v -0.24608999 0.60936999 0.18784255
v -0.24608999 0.60545999 0.18784255
v -0.24606000 0.60545999 0.18785255
v -0.24606000 0.60156000 0.18785255
v -0.24608999 0.58983999 0.18784255
v -0.24890000 0.59325689 0.18394254
v -0.23283695 0.68794221 0.18981719
v -0.24606000 0.53514999 0.18785255
v -0.24606000 0.57031000 0.18785255
v -0.24606000 0.56639999 0.18785255
v -0.24606000 0.62500000 0.18785255
v -0.24606000 0.62108999 0.18785255
v -0.24608999 0.95311999 0.18784255
v -0.24608999 0.62108999 0.18784255
v -0.24606000 0.61717999 0.18785255
v -0.24608999 0.93750000 0.18784255
v -0.24606000 0.90625000 0.18785255
v -0.24606000 0.91014999 0.18785255
v -0.24608999 -0.66014999 0.18784255
v -0.24608999 -0.71092999 0.18784255
v -0.24608999 -0.71483999 0.18784255
v -0.24608999 -0.03906000 0.18784255
v -0.24606000 -0.65625000 0.18785255
v -0.32654804 -0.29888973 0.29819912
v -0.23971722 -0.61456406 0.24656865
v -0.24608999 -0.63670999 0.18784255
v -0.24606000 -0.64061999 0.18785255
v -0.24606000 -0.63670999 0.18785255
v -0.24608999 -0.03515000 0.18784255
v -0.24608999 -0.08203000 0.18784255
v -0.24608999 -0.05078000 0.18784255
v -0.24606000 -0.07031000 0.18785255
v -0.24606000 -0.07421000 0.18785255
v -0.37140000 0.12500000 0.03403880
v -0.37163383 0.12671410 -0.05835377
v -0.24606000 -0.05078000 0.18785255
v -0.24606000 -0.02343000 0.18785255
v -0.24608999 -0.07812000 0.18784255
v -0.24608999 -0.07421000 0.18784255
v -0.24606000 -0.07812000 0.18785255
v 0.02092182 0.17080614 0.22444202
v -0.24890000 0.52099127 0.18394254
v -0.24606000 0.59375000 0.18785255
v -0.24608999 0.59375000 0.18784255
v -0.24606000 0.58983999 0.18785255
v -0.24608999 0.58203000 0.18784255
v -0.24606000 0.57811999 0.18785255
v -0.24606000 0.58203000 0.18785255
v -0.24608999 0.58592999 0.18784255
v -0.24606000 0.53906000 0.18785255
v -0.24606000 0.58592999 0.18785255
v -0.24608999 0.53125000 0.18784255
v -0.24608999 0.52733999 0.18784255
v -0.24606000 0.52733999 0.18785255
v -0.24608999 0.60156000 0.18784255
v -0.24608999 0.59764999 0.18784255
v -0.24606000 0.59764999 0.18785255
v -0.24608999 0.62889999 0.18784255
v -0.24606000 0.62889999 0.18785255
v -0.24608999 0.56250000 0.18784255
v -0.24608999 0.55858999 0.18784255
v -0.24606000 0.55858999 0.18785255
v -0.24608999 0.57031000 0.18784255
v -0.24608999 0.89842999 0.18784255
v -0.24606000 0.96875000 0.18785255
v -0.24890000 0.88818002 0.18394254
v -0.24608999 -0.70703000 0.18784255
v -0.24608999 -0.00390000 0.18784255
v -0.24606000 -0.67967999 0.18785255
v -0.24890000 -0.67919624 0.18394254
v -0.24608999 -0.69531000 0.18784255
v -0.24606000 -0.65233999 0.18785255
v -0.24606000 -0.71092999 0.18785255
v -0.24606000 -0.71875000 0.18785255
v -0.24608999 -0.67967999 0.18784255
v -0.24608999 -0.67578000 0.18784255
v -0.31788307 -0.10363010 -0.43086159
v -0.24606000 -0.00781000 0.18785255
v -0.24218000 -0.09765125 0.18800254
v -0.24606000 -0.08203000 0.18785255
v -0.24608999 -0.67186999 0.18784255
v -0.24606000 -0.67578000 0.18785255
v -0.24606000 -0.67186999 0.18785255
v -0.24606000 -0.01171000 0.18785255
v -0.24606000 0.61328000 0.18785255
v -0.24739595 0.00370967 0.18494473
v -0.24608999 0.53514999 0.18784255
v -0.24606000 0.53125000 0.18785255
v -0.24606000 0.57420999 0.18785255
v -0.24606000 0.54686999 0.18785255
v -0.24606000 0.54295999 0.18785255
v -0.24218000 0.53539622 0.18800254
v -0.24608999 0.64453000 0.18784255
v -0.24606000 0.64061999 0.18785255
v -0.24606000 0.64453000 0.18785255
v -0.24608999 0.54295999 0.18784255
v -0.24608999 0.53906000 0.18784255
v -0.24606000 -0.64453000 0.18785255
v -0.24606000 0.64842999 0.18785255
v -0.24608999 0.64842999 0.18784255
v -0.24608999 0.56639999 0.18784255
v -0.24606000 0.56250000 0.18785255
v -0.24608999 0.64061999 0.18784255
v -0.24608999 0.63670999 0.18784255
v -0.24606000 0.63670999 0.18785255
v -0.24606000 0.63281000 0.18785255
v -0.24890000 0.55419374 0.18394254
v -0.24606000 0.51953000 0.18785255
v -0.24833095 0.49500224 0.18759406
v -0.24606000 0.60936999 0.18785255
v -0.24608999 0.61328000 0.18784255
v -0.24608999 0.52342999 0.18784255
v -0.24606000 0.52342999 0.18785255
v -0.24218000 0.61791563 0.18800254
v -0.26968282 0.93421507 0.13046604
v -0.26129383 -0.61810577 0.14002301
v -0.24606000 0.88670999 0.18785255
v -0.24606000 0.91795999 0.18785255
v -0.24218000 0.91698748 0.18800254
v -0.24608999 -0.71875000 0.18784255
v -0.24608999 0.88670999 0.18784255
v -0.24606000 0.88281000 0.18785255
v -0.24606000 -0.69920999 0.18785255
v -0.24606000 -0.69531000 0.18785255
v -0.24608999 -0.63281000 0.18784255
v -0.24606000 -0.63281000 0.18785255
v -0.24606000 -0.66406000 0.18785255
v -0.24608999 -0.62889999 0.18784255
v -0.24606000 -0.68358999 0.18785255
v -0.24608999 -0.68750000 0.18784255
v -0.24606000 -0.68750000 0.18785255
v -0.24606000 -0.70311999 0.18785255
v -0.24608999 -0.66795999 0.18784255
v -0.24606000 -0.66795999 0.18785255
v -0.24218000 -0.66796499 0.18800254
v -0.24606000 -0.64842999 0.18785255
v -0.24608999 -0.70311999 0.18784255
v -0.24608999 -0.69920999 0.18784255
v -0.24608999 -0.69139999 0.18784255
v -0.24606000 -0.69139999 0.18785255
v -0.24608999 -0.64061999 0.18784255
v -0.24608999 0.66014999 0.18784255
v -0.24844524 0.86197621 0.18711254
v -0.24890000 0.65063059 0.18394254
v -0.65333748 -0.94760305 0.07573190
v -0.24890000 0.62450749 0.18394254
v -0.24606000 0.65625000 0.18785255
v -0.24608999 0.65625000 0.18784255
v -0.24606000 0.65233999 0.18785255
v -0.24633688 0.73164475 0.18779762
v -0.24608999 0.55467999 0.18784255
v -0.24608999 0.55078000 0.18784255
v -0.24608999 -0.65625000 0.18784255
v -0.24608999 0.88281000 0.18784255
v -0.24608999 0.87889999 0.18784255
v -0.24606000 0.87889999 0.18785255
v -0.24606000 -0.70703000 0.18785255
v -0.24606000 0.91406000 0.18785255
v -0.24608999 0.89061999 0.18784255
v -0.24608999 0.89453000 0.18784255
v -0.24606000 0.89061999 0.18785255
v -0.23399752 0.86209357 0.18851018
v -0.24218000 -0.70067877 0.18800254
v -0.24608999 -0.64453000 0.18784255
v -0.24218000 -0.72264999 0.18800254
v -0.24608999 -0.65233999 0.18784255
v -0.24412000 -0.63402748 0.18792754
v -0.11906692 -0.73765844 0.18748704
v -0.24608999 -0.64842999 0.18784255
v -0.24608999 -0.66406000 0.18784255
v -0.17609453 -0.40386152 -0.53520876
v -0.24218000 -0.03905875 0.18800254
v -0.24608999 0.57811999 0.18784255
v -0.24608999 0.57420999 0.18784255
v -0.24608999 0.61717999 0.18784255
v -0.20311999 0.85936999 -0.55430746
v -0.30076692 0.73596859 -0.55723000
v -0.19054750 0.85545999 -0.55479741
v -0.24608999 0.65233999 0.18784255
v -0.08984000 0.85936999 0.55501258
v -0.24608999 0.62500000 0.18784255
v -0.26033202 0.72915149 0.14527781
v -0.10937000 0.85936999 -0.55430746
v -0.11864875 0.86140001 -0.55042744
v -0.24606000 0.90233999 0.18785255
v -0.24608999 0.91406000 0.18784255
v -0.24608999 0.91014999 0.18784255
v -0.24606000 0.87500000 0.18785255
v -0.24218000 0.88793498 0.18800254
v -0.24606000 0.89453000 0.18785255
v -0.24606000 0.93750000 0.18785255
v -0.24606000 0.93358999 0.18785255
v -0.24606000 0.89842999 0.18785255
v -0.24608999 0.93358999 0.18784255
v -0.24608999 0.90625000 0.18784255
v -0.24606000 0.94920999 0.18785255
v -0.24606000 0.94531000 0.18785255
v -0.24608999 0.94139999 0.18784255
v -0.24606000 0.96483999 0.18785255
v -0.21390815 0.98382443 0.18837613
v -0.21988264 0.57857102 0.21397798
v -0.24608999 0.96875000 0.18784255
v -0.24608999 0.96483999 0.18784255
v -0.24608999 0.91795999 0.18784255
v -0.24606000 0.92967999 0.18785255
v -0.24608999 0.90233999 0.18784255
v -0.24218000 0.93066126 0.18800254
v -0.24606000 0.92578000 0.18785255
v -0.24606000 0.92186999 0.18785255
v -0.24608999 0.92578000 0.18784255
v -0.24608999 0.94531000 0.18784255
v -0.24606000 0.94139999 0.18785255
v -0.24608999 0.95703000 0.18784255
v -0.24606000 0.95311999 0.18785255
v -0.24606000 0.95703000 0.18785255
v -0.24608999 0.92967999 0.18784255
v -0.24608999 0.92186999 0.18784255
v -0.24606000 0.96092999 0.18785255
v -0.24608999 0.96092999 0.18784255
v -0.24608999 0.97264999 0.18784255
v -0.24608999 0.94920999 0.18784255
v -0.24553777 0.98046964 0.18791635
v -0.24608999 0.97656000 0.18784255
v -0.19140001 0.85936999 -0.55430746
v -0.24606000 0.97264999 0.18785255
v -0.24812019 -0.17057486 0.18765545
v -0.19433001 0.86140001 -0.55042744
v -0.18358999 0.85929000 -0.55432743
v -0.18750000 0.85936999 -0.55430746
v -0.18358999 0.85936999 -0.55430746
v -0.18750000 0.85929000 -0.55432743
v -0.19140001 0.85929000 -0.55432743
v -0.15625000 0.85929000 -0.55432743
v -0.16015001 0.85929000 -0.55432743
v -0.14453000 0.85929000 -0.55432743
v -0.14453000 0.85936999 -0.55430746
v -0.14061999 0.85929000 -0.55432743
v -0.19531000 0.85936999 -0.55430746
v -0.20897999 0.86140001 -0.55042744
v -0.19531000 0.85929000 -0.55432743
v -0.19921000 0.85929000 -0.55432743
v -0.19921000 0.85936999 -0.55430746
v -0.16406000 0.85936999 -0.55430746
v -0.16942875 0.86140001 -0.55042744
v -0.17578000 0.85929000 -0.55432743
v -0.17968000 0.85929000 -0.55432743
v -0.17968000 0.85936999 -0.55430746
v -0.12890001 0.85929000 -0.55432743
v -0.13281000 0.85929000 -0.55432743
v -0.33622074 0.11022377 0.06459226
v -0.16406000 0.85929000 -0.55432743
v -0.16796000 0.85929000 -0.55432743
v -0.17186999 0.85936999 -0.55430746
v -0.16796000 0.85936999 -0.55430746
v -0.17578000 0.85936999 -0.55430746
v -0.16015001 0.85936999 -0.55430746
v -0.15625000 0.85936999 -0.55430746
v -0.17186999 0.85929000 -0.55432743
v -0.24848363 0.98352629 0.18601765
v -0.15233999 0.85929000 -0.55432743
v -0.15233999 0.85936999 -0.55430746
v -0.14843000 0.85929000 -0.55432743
v -0.14843000 0.85936999 -0.55430746
v -0.14061999 0.85936999 -0.55430746
v -0.13671000 0.85929000 -0.55432743
v -0.10156000 0.85936999 -0.55430746
v -0.10546000 0.85936999 -0.55430746
v -0.10156000 0.85929000 -0.55432743
v -0.11928887 -0.73848927 0.18742353
v -0.11838948 -0.61649495 0.18398365
v -0.15292077 0.00187389 0.18580706
v -0.05468000 0.85936999 -0.55430746
v -0.16015124 0.85545999 -0.55479741
v -0.13915500 0.86140001 -0.55042744
v -0.13158688 0.85545999 -0.55479741
v -0.13671000 0.85936999 -0.55430746
v -0.13281000 0.85936999 -0.55430746
v -0.12500000 0.85929000 -0.55432743
v -0.11328000 0.85929000 -0.55432743
v -0.11328000 0.85936999 -0.55430746
v -0.10937000 0.85929000 -0.55432743
v -0.12109000 0.85929000 -0.55432743
v -0.11718000 0.85929000 -0.55432743
v -0.11718000 0.85936999 -0.55430746
v -0.12500000 0.85936999 -0.55430746
v -0.12109000 0.85936999 -0.55430746
v -0.12890001 0.85936999 -0.55430746
v -0.07812000 0.85936999 -0.55430746
v -0.08203000 0.85936999 -0.55430746
v -0.07812000 0.85929000 -0.55432743
v -0.15740226 0.87101716 0.52813101
v -0.10366713 0.85646355 0.55551702
v -0.10546000 0.85929000 -0.55432743
v -0.07445875 0.85545999 0.55550253
v -0.09765000 0.85929000 -0.55432743
v -0.09765000 0.85936999 -0.55430746
v -0.09375000 0.85929000 -0.55432743
v -0.10204625 0.85545999 -0.55479741
v -0.12332908 0.73217732 0.55578631
v -0.09375000 0.85936999 -0.55430746
v -0.05468000 0.85929000 -0.55432743
v -0.08593000 0.85929000 -0.55432743
v -0.06640000 0.85929000 -0.55432743
v -0.07031000 0.85929000 -0.55432743
v -0.07031000 0.85936999 -0.55430746
v -0.06250000 0.85929000 -0.55432743
v -0.12148236 -0.61644846 0.18815921
v -0.30573976 0.12208311 -0.31289402
v -0.08984000 0.85929000 -0.55432743
v -0.08984000 0.85936999 -0.55430746
v -0.08203000 0.85929000 -0.55432743
v -0.03515000 0.85929000 -0.55432743
v -0.08593000 0.85936999 -0.55430746
v -0.09325750 0.86140001 -0.55042744
v -0.05078000 0.85936999 -0.55430746
v -0.05078000 0.85929000 -0.55432743
v -0.04491750 0.86140001 -0.55042744
v -0.06250000 0.85929000 0.55503255
v -0.06640000 0.85936999 -0.55430746
v -0.07421000 0.85929000 -0.55432743
v -0.06250000 0.85936999 -0.55430746
v -0.08593000 0.85936999 0.55501258
v -0.08203000 0.85936999 0.55501258
v -0.08203000 0.85929000 0.55503255
v -0.07421000 0.85936999 -0.55430746
v -0.06640000 0.85929000 0.55503255
v -0.07031000 0.85929000 0.55503255
v -0.06640000 0.85936999 0.55501258
v -0.07812000 0.85936999 0.55501258
v -0.07812000 0.85929000 0.55503255
v -0.08593000 0.85929000 0.55503255
v -0.07421000 0.85929000 0.55503255
v -0.07421000 0.85936999 0.55501258
v -0.07031000 0.85936999 0.55501258
v -0.06250000 0.85936999 0.55501258
v -0.04687000 0.85929000 0.55503255
v -0.05078000 0.85929000 0.55503255
v -0.04687000 0.85929000 -0.55432743
v -0.11303250 0.86203998 -0.43323746
v -0.05859000 0.85936999 -0.55430746
v -0.05859000 0.85936999 0.55501258
v -0.05859000 0.85929000 0.55503255
v -0.03515000 0.85929000 0.55503255
v -0.03906000 0.85936999 0.55501258
v -0.03906000 0.85929000 0.55503255
v -0.04296000 0.85936999 0.55501258
v -0.05078000 0.85936999 0.55501258
v -0.05859000 0.85929000 -0.55432743
v -0.08788625 0.86140001 0.55113256
v -0.06738000 0.86140001 -0.55042744
v -0.03930250 0.85545999 -0.55479741
v -0.04687000 0.85936999 -0.55430746
v -0.03906000 0.85929000 -0.55432743
v -0.04296000 0.85929000 -0.55432743
v -0.07226125 0.85545999 -0.55479741
v -0.03125000 0.85936999 -0.55430746
v -0.03515000 0.85936999 -0.55430746
v -0.03906000 0.85936999 -0.55430746
v -0.04296000 0.85936999 -0.55430746
v -0.03125000 0.85929000 -0.55432743
v -0.02343000 0.85929000 -0.55432743
v -0.04638375 0.85545999 0.55550253
v -0.04687000 0.85936999 0.55501258
v -0.04296000 0.85929000 0.55503255
v -0.05468000 0.85929000 0.55503255
v -0.05468000 0.85936999 0.55501258
v -0.03515000 0.85936999 0.55501258
v -0.03125000 0.85936999 0.55501258
v -0.03125000 0.85929000 0.55503255
v -0.02343000 0.85929000 0.55503255
v -0.02734000 0.85936999 0.55501258
v -0.02734000 0.85929000 0.55503255
v -0.00781000 0.85929000 -0.55432743
v -0.01708500 0.85545999 -0.55479741
v -0.01171000 0.85929000 -0.55432743
v -0.02734000 0.85929000 -0.55432743
v -0.02734000 0.85936999 -0.55430746
v 0.24218000 -0.03393187 0.18800254
v -0.01562000 0.85936999 -0.55430746
v -0.01953000 0.85936999 0.55501258
v -0.02538625 0.86140001 0.55113256
v -0.02343000 0.85936999 0.55501258
v -0.01366750 0.85545999 0.55550253
v -0.01953000 0.85929000 -0.55432743
v -0.01562000 0.85929000 -0.55432743
v -0.01171000 0.85936999 -0.55430746
v -0.01953000 0.85936999 -0.55430746
v -0.02343000 0.85936999 -0.55430746
v 0.00781000 0.85936999 -0.55430746
v 0.00390000 0.85936999 -0.55430746
v 0.01855062 0.86140001 -0.55042744
v 0.00781000 0.85929000 -0.55432743
v -0.01953000 0.85929000 0.55503255
v -0.00390000 0.85929000 -0.55432743
v -0.00781000 0.85936999 -0.55430746
v -0.00390000 0.85929000 0.55503255
v -0.01171000 0.85936999 0.55501258
v -0.01562000 0.85936999 0.55501258
v -0.01171000 0.85929000 0.55503255
v -0.00390000 0.85936999 -0.55430746
v 0.00000000 0.85936999 -0.55430746
v 0.00000000 0.85929000 -0.55432743
v -0.01562000 0.85929000 0.55503255
v 0.01269062 0.85545999 0.55550253
v 0.00000000 0.85936999 0.55501258
v -0.00781000 0.85936999 0.55501258
v -0.00390000 0.85936999 0.55501258
v 0.00000000 0.85929000 0.55503255
v -0.00781000 0.85929000 0.55503255
v 0.02734000 0.85936999 0.55501258
v 0.03125000 0.85936999 0.55501258
v 0.03125000 0.85929000 0.55503255
v -0.01366750 0.86140001 -0.55042744
v 0.01171000 0.85929000 0.55503255
v 0.00781000 0.85936999 0.55501258
v 0.00781000 0.85929000 0.55503255
v 0.24697016 0.00327936 0.18704076
v 0.24608999 -0.08984000 0.18784255
v 0.24608999 -0.09375000 0.18784255
v 0.01953000 0.85936999 0.55501258
v 0.02343000 0.85936999 0.55501258
v 0.02343000 0.85929000 0.55503255
v 0.00390000 0.85936999 0.55501258
v 0.00390000 0.85929000 0.55503255
v 0.00390000 0.85929000 -0.55432743
v 0.05078000 0.85936999 -0.55430746
v 0.01562000 0.85929000 -0.55432743
v 0.01562000 0.85936999 -0.55430746
v 0.01953000 0.85929000 -0.55432743
v 0.00829750 0.85545999 -0.55479741
v 0.01562000 0.85936999 0.55501258
v 0.01953000 0.85929000 0.55503255
v 0.00805375 0.86140001 0.55113256
v 0.01171000 0.85936999 -0.55430746
v 0.01171000 0.85929000 -0.55432743
v 0.02734000 0.85929000 -0.55432743
v 0.02343000 0.85929000 -0.55432743
v 0.02343000 0.85936999 -0.55430746
v 0.02734000 0.85929000 0.55503255
v 0.01953000 0.85936999 -0.55430746
v 0.02734000 0.85936999 -0.55430746
v 0.03125000 0.85936999 -0.55430746
v 0.03125000 0.85929000 -0.55432743
v 0.24608000 0.61717999 0.18785255
v 0.24608999 0.61328000 0.18784255
v 0.24608999 0.61717999 0.18784255
v 0.03515000 0.85929000 -0.55432743
v 0.03906000 0.85936999 -0.55430746
v 0.04931125 0.86140001 -0.55042744
v 0.01562000 0.85929000 0.55503255
v 0.01171000 0.85936999 0.55501258
v 0.03906000 0.85929000 -0.55432743
v 0.02782625 0.85545999 -0.55479741
v 0.24608000 -0.07812000 0.18785255
v 0.24608000 -0.07421000 0.18785255
v 0.24608999 -0.07812000 0.18784255
v 0.24608999 -0.10937000 0.18784255
v 0.24890000 -0.02562938 0.18394254
v 0.24608000 -0.05859000 0.18785255
v 0.26753706 -0.11618176 0.12589478
v 0.05468000 0.85936999 -0.55430746
v 0.04687000 0.85936999 0.55501258
v 0.04687000 0.85929000 0.55503255
v 0.05078000 0.85929000 0.55503255
v 0.03515000 0.85929000 0.55503255
v 0.03515000 0.85936999 0.55501258
v 0.06250000 0.85929000 0.55503255
v 0.05859000 0.85929000 0.55503255
v 0.03906000 0.85929000 0.55503255
v 0.05078000 0.85929000 -0.55432743
v 0.04687000 0.85936999 -0.55430746
v 0.05468000 0.85929000 -0.55432743
v 0.04687000 0.85545999 -0.55479741
v 0.04296000 0.85929000 -0.55432743
v 0.04296000 0.85936999 -0.55430746
v 0.04687000 0.85929000 -0.55432743
v 0.24608000 0.50000000 0.18785255
v 0.24601762 0.49607104 0.18797062
v 0.03515000 0.85936999 -0.55430746
v 0.04296000 0.85929000 0.55503255
v 0.03930312 0.86140001 0.55113256
v 0.06250000 0.85936999 -0.55430746
v 0.05859000 0.85936999 -0.55430746
v 0.06250000 0.85929000 -0.55432743
v 0.05859000 0.85929000 -0.55432743
v 0.24608999 0.68358999 0.18784255
v 0.24608999 0.67967999 0.18784255
v 0.03906000 0.85936999 0.55501258
v 0.04296000 0.85936999 0.55501258
v 0.04101000 0.85545999 0.55550253
v 0.05468000 0.85936999 0.55501258
v 0.05859000 0.85936999 0.55501258
v 0.05468000 0.85929000 0.55503255
v 0.05078000 0.85936999 0.55501258
v 0.06250000 0.85936999 0.55501258
v 0.07323750 0.86140001 0.55113256
v 0.08984000 0.85929000 -0.55432743
v -0.16062050 -0.11694541 0.18827480
v 0.06640000 0.85936999 -0.55430746
v 0.24608000 -0.03906000 0.18785255
v 0.23830327 -0.11802768 0.18815164
v 0.29744932 0.12085563 0.18735005
v 0.26887238 0.48996398 0.13275230
v 0.06640000 0.85929000 0.55503255
v 0.24608999 0.60936999 0.18784255
v 0.07812000 0.85936999 -0.55430746
v 0.06640000 0.85929000 -0.55432743
v 0.07421000 0.85929000 -0.55432743
v 0.08593000 0.85929000 -0.55432743
v 0.07031000 0.85929000 -0.55432743
v 0.07031000 0.85936999 -0.55430746
v 0.16406000 0.85929000 -0.55432743
v 0.07812000 0.85929000 -0.55432743
v 0.08203000 0.85929000 -0.55432743
v 0.07421000 0.85936999 -0.55430746
v 0.08203000 0.85936999 -0.55430746
v 0.08190406 0.86140001 -0.49378744
v 0.08593000 0.85936999 -0.55430746
v 0.09375000 0.85929000 -0.55432743
v 0.08984000 0.85936999 -0.55430746
v 0.09375000 0.85936999 -0.55430746
v 0.06884375 0.85545999 -0.55479741
v 0.24608000 0.50389999 0.18785255
v -0.04928460 0.86140221 0.55112833
v 0.12308796 0.86651337 0.48988310
v 0.10937000 0.85936999 -0.55430746
v 0.09960438 0.86140001 -0.55042744
v 0.24218000 -0.66796499 0.18800254
v 0.24608000 -0.69920999 0.18785255
v 0.24608000 -0.69531000 0.18785255
v 0.24608999 -0.69920999 0.18784255
v 0.24218000 -0.06103125 0.18800254
v 0.24608999 -0.07421000 0.18784255
v 0.24608000 -0.05078000 0.18785255
v 0.24608000 -0.04687000 0.18785255
v 0.24608999 -0.05078000 0.18784255
v 0.24608999 -0.05468000 0.18784255
v 0.24608999 -0.05859000 0.18784255
v 0.24608999 -0.04687000 0.18784255
v 0.15356062 0.86140001 -0.55042744
v 0.24890000 0.53710496 0.18394254
v 0.24608999 0.55078000 0.18784255
v 0.24608999 0.54686999 0.18784255
v 0.24608999 0.52342999 0.18784255
v 0.24608000 0.52342999 0.18785255
v 0.24608999 0.51953000 0.18784255
v 0.24608999 0.53514999 0.18784255
v 0.09765000 0.85929000 -0.55432743
v 0.24608000 0.50781000 0.18785255
v 0.24608999 0.50389999 0.18784255
v 0.24608999 0.53125000 0.18784255
v 0.24608000 0.62108999 0.18785255
v 0.24608000 0.62500000 0.18785255
v 0.24608999 0.62108999 0.18784255
v 0.12499625 0.86140001 -0.55042744
v 0.24608000 0.54295999 0.18785255
v 0.24608000 0.54686999 0.18785255
v 0.24608999 0.54295999 0.18784255
v 0.11718000 0.85929000 -0.55432743
v 0.08979046 0.80365747 0.55769134
v 0.10937000 0.85929000 -0.55432743
v 0.11328000 0.85929000 -0.55432743
v 0.10546000 0.85936999 -0.55430746
v 0.11718000 0.85936999 -0.55430746
v 0.11328000 0.85936999 -0.55430746
v 0.09765000 0.85936999 -0.55430746
v 0.12890001 0.85929000 -0.55432743
v 0.09374625 0.85545999 -0.55479741
v 0.10156000 0.85929000 -0.55432743
v 0.10156000 0.85936999 -0.55430746
v 0.11620750 0.85545999 -0.55479741
v 0.12109000 0.85929000 -0.55432743
v 0.10546000 0.85929000 -0.55432743
v 0.12500000 0.85929000 -0.55432743
v 0.12109000 0.85936999 -0.55430746
v 0.12500000 0.85936999 -0.55430746
v 0.24608000 0.55858999 0.18785255
v 0.24608999 0.55467999 0.18784255
v 0.24608999 0.55858999 0.18784255
v 0.16015001 0.85936999 -0.55430746
v 0.12890001 0.85936999 -0.55430746
v 0.13281000 0.85929000 -0.55432743
v 0.24608999 -0.69531000 0.18784255
v 0.41128993 -0.76059133 -0.00322595
v 0.24567454 -0.11793999 0.18840250
v 0.24608000 -0.09375000 0.18785255
v 0.24608000 -0.08984000 0.18785255
v 0.24608999 -0.08203000 0.18784255
v 0.24608000 -0.05468000 0.18785255
v 0.16796000 0.85929000 -0.55432743
v 0.16406000 0.85936999 -0.55430746
v 0.13671000 0.85929000 -0.55432743
v 0.13671000 0.85936999 -0.55430746
v 0.14061999 0.85929000 -0.55432743
v 0.24608999 0.58592999 0.18784255
v 0.14843000 0.85929000 -0.55432743
v 0.13281000 0.85936999 -0.55430746
v 0.24608000 0.58203000 0.18785255
v 0.24608000 0.58592999 0.18785255
v 0.24608999 0.58203000 0.18784255
v 0.24608000 0.59764999 0.18785255
v 0.24608999 0.59375000 0.18784255
v 0.24608999 0.59764999 0.18784255
v 0.24608999 0.67578000 0.18784255
v 0.24608999 0.49608999 0.18784255
v 0.16015001 0.85929000 -0.55432743
v 0.15625000 0.85936999 -0.55430746
v 0.15233999 0.85936999 -0.55430746
v -0.02825844 0.61717999 -0.55579746
v 0.13622625 0.85545999 -0.55479741
v 0.14453000 0.85929000 -0.55432743
v 0.14061999 0.85936999 -0.55430746
v 0.14453000 0.85936999 -0.55430746
v 0.17186999 0.85929000 -0.55432743
v 0.17578000 0.85929000 -0.55432743
v 0.15233999 0.85929000 -0.55432743
v 0.15625000 0.85929000 -0.55432743
v 0.14843000 0.85936999 -0.55430746
v 0.21093000 0.85929000 -0.55432743
v 0.22167563 0.86038500 -0.55236745
v 0.24218000 0.60546625 0.18800254
v 0.16796000 0.85936999 -0.55430746
v 0.18750000 0.85936999 -0.55430746
v 0.18750000 0.85929000 -0.55432743
v 0.24608999 -0.70311999 0.18784255
v 0.24608000 -0.10937000 0.18785255
v 0.24608999 -0.11328000 0.18784255
v 0.24608999 -0.10156000 0.18784255
v 0.24608999 0.50000000 0.18784255
v 0.24608999 -0.06640000 0.18784255
v 0.24608999 -0.06250000 0.18784255
v 0.24890000 0.55761248 0.18394254
v 0.24608000 0.53125000 0.18785255
v 0.24608999 0.52733999 0.18784255
v 0.24608999 0.51561999 0.18784255
v 0.24890000 0.58007371 0.18394254
v 0.24608999 0.58983999 0.18784255
v 0.24608999 0.51170999 0.18784255
v 0.24608000 0.61328000 0.18785255
v 0.24608000 0.64453000 0.18785255
v 0.19921000 0.85936999 -0.55430746
v 0.19531000 0.85936999 -0.55430746
v 0.19921000 0.85929000 -0.55432743
v 0.24608000 0.60156000 0.18785255
v 0.16210499 0.85545999 -0.55479741
v 0.19140001 0.85929000 -0.55432743
v 0.19140001 0.85936999 -0.55430746
v 0.24608999 0.65625000 0.18784255
v 0.24218000 0.64989752 0.18800254
v 0.17186999 0.85936999 -0.55430746
v 0.18358999 0.85936999 -0.55430746
v 0.18358999 0.85929000 -0.55432743
v 0.24608000 0.60936999 0.18785255
v 0.17968000 0.85936999 -0.55430746
v 0.24218000 0.54442877 0.18800254
v 0.17578000 0.85936999 -0.55430746
v 0.17968000 0.85929000 -0.55432743
v 0.20311999 0.85936999 -0.55430746
v 0.24608999 0.57031000 0.18784255
v 0.24608999 0.56639999 0.18784255
v 0.24608000 0.51953000 0.18785255
v 0.24608000 0.60545999 0.18785255
v 0.24608999 0.60156000 0.18784255
v 0.24608999 0.60545999 0.18784255
v 0.20311999 0.85929000 -0.55432743
v 0.24608999 -0.68750000 0.18784255
v 0.24608000 -0.70311999 0.18785255
v 0.24862929 -0.65973461 0.18487217
v 0.24608999 -0.67967999 0.18784255
v 0.24608000 -0.69139999 0.18785255
v 0.25690475 -0.61033940 0.20580533
v 0.24890000 -0.69701749 0.18394254
v 0.24608000 -0.08593000 0.18785255
v 0.24608000 -0.09765000 0.18785255
v 0.24608999 -0.09765000 0.18784255
v 0.24608000 -0.10546000 0.18785255
v 0.24608000 -0.10156000 0.18785255
v 0.24608999 -0.10546000 0.18784255
v 0.24608999 -0.07031000 0.18784255
v 0.24608000 -0.07031000 0.18785255
v 0.24890000 -0.06469312 0.18394254
v 0.24608000 -0.04296000 0.18785255
v 0.24608999 -0.04296000 0.18784255
v 0.24608000 -0.06640000 0.18785255
v 0.24608000 0.57420999 0.18785255
v 0.24608999 0.57420999 0.18784255
v 0.24608000 0.53514999 0.18785255
v 0.24608999 0.50781000 0.18784255
v 0.24608999 0.53906000 0.18784255
v 0.19531000 0.85929000 -0.55432743
v 0.24608000 0.67578000 0.18785255
v 0.24608999 0.67186999 0.18784255
v 0.24218000 0.62792623 0.18800254
v 0.20703000 0.85929000 -0.55432743
v 0.24608000 0.55078000 0.18785255
v 0.24608000 0.55467999 0.18785255
v 0.24608000 0.56639999 0.18785255
v 0.24608000 0.57031000 0.18785255
v 0.24608999 0.62500000 0.18784255
v 0.24608000 0.56250000 0.18785255
v 0.24218000 0.56786752 0.18800254
v 0.24608000 0.66014999 0.18785255
v 0.24608999 0.66014999 0.18784255
v 0.24608000 0.63670999 0.18785255
v 0.24608000 0.57811999 0.18785255
v 0.24608999 0.57811999 0.18784255
v 0.24890000 0.69945872 0.18394254
v 0.24608000 0.68750000 0.18785255
v 0.24608000 0.69139999 0.18785255
v 0.24608999 0.68750000 0.18784255
v 0.24608000 0.52733999 0.18785255
v 0.24608000 0.67967999 0.18785255
v 0.22991678 0.49610573 0.18823269
v 0.24608000 0.63281000 0.18785255
v 0.24608999 0.62889999 0.18784255
v 0.24608999 0.63281000 0.18784255
v 0.24890000 0.63817877 0.18394254
v 0.20703000 0.85936999 -0.55430746
v 0.18651812 0.86140001 -0.55042744
v 0.24608000 0.51170999 0.18785255
v 0.24608999 -0.71092999 0.18784255
v 0.24608999 -0.70703000 0.18784255
v 0.24218000 -0.69335496 0.18800254
v 0.24608999 -0.69139999 0.18784255
v 0.24608000 -0.68358999 0.18785255
v 0.24608999 -0.68358999 0.18784255
v 0.23392512 -0.73611373 0.19240931
v 0.24608000 -0.68750000 0.18785255
v 0.24608000 -0.67967999 0.18785255
v 0.24608000 -0.67578000 0.18785255
v 0.11799375 -0.61708248 0.00767630
v 0.37108999 -0.12102000 -0.37464744
v 0.24608000 -0.08203000 0.18785255
v 0.24218000 -0.08642250 0.18800254
v 0.24608000 -0.06250000 0.18785255
v 0.24608999 -0.08593000 0.18784255
v 0.24608999 -0.03906000 0.18784255
v 0.24608000 -0.03515000 0.18785255
v 0.37114000 -0.12109000 -0.39417744
v 0.24608000 0.51561999 0.18785255
v 0.25000000 0.49390000 0.18785255
v 0.24608000 0.53906000 0.18785255
v 0.24608000 0.58983999 0.18785255
v 0.24608000 0.59375000 0.18785255
v 0.24890000 0.60985875 0.18394254
v 0.24608999 0.63670999 0.18784255
v 0.24608000 0.70311999 0.18785255
v 0.24608000 0.70703000 0.18785255
v 0.22654293 0.72533703 0.21125042
v 0.24608999 0.70311999 0.18784255
v 0.24608000 0.65625000 0.18785255
v 0.24608999 0.65233999 0.18784255
v 0.24608000 0.64842999 0.18785255
v 0.24608000 0.65233999 0.18785255
v 0.24608999 0.64842999 0.18784255
v 0.24608000 0.66406000 0.18785255
v 0.24608999 0.56250000 0.18784255
v 0.24608999 0.64061999 0.18784255
v 0.24608000 0.64061999 0.18785255
v 0.24608999 0.66406000 0.18784255
v 0.24890000 0.66454625 0.18394254
v 0.24608000 0.62889999 0.18785255
v 0.25038785 0.49389997 0.19166169
v 0.24608999 0.64453000 0.18784255
v 0.24608000 0.66795999 0.18785255
v 0.24608999 0.66795999 0.18784255
v 0.24608000 0.67186999 0.18785255
v 0.24608000 0.68358999 0.18785255
v 0.24608000 0.69920999 0.18785255
v 0.24608999 0.69920999 0.18784255
v 0.24608000 0.69531000 0.18785255
v 0.24218000 0.67943937 0.18800254
v 0.24608999 0.69139999 0.18784255
v 0.24608999 0.69531000 0.18784255
v 0.18590017 0.85132074 -0.55534351
v 0.06690202 1.02118587 0.06211220
v 0.36717999 0.11859000 0.13169630
v 0.26475593 -0.18193348 0.27653056
v 0.37108999 -0.12102000 -0.37854746
v 0.37108999 -0.12102000 -0.38635743
v 0.36717999 0.11859000 0.15611005
v 0.37140000 0.12500000 0.13706630
v 0.37114000 0.12109000 0.13316254
v 0.37114000 -0.12109000 -0.37464744
v 0.36705068 -0.11831105 -0.30983061
v 0.37114000 -0.12109000 -0.39026746
v 0.37108999 -0.12102000 -0.39026746
v 0.36717999 0.11859000 0.10825755
v 0.37114000 -0.12109000 -0.35901746
v 0.37108999 -0.12102000 -0.35510743
v 0.37114000 -0.12109000 -0.35510743
v 0.37140000 0.12500000 0.07944755
v 0.55068552 -0.11572989 -0.26274562
v 0.37108999 -0.12102000 -0.36682743
v 0.37108999 -0.12102000 -0.36292744
v 0.37022901 -0.12002032 -0.40687183
v 0.37114000 -0.12109000 -0.38635743
v 0.37140000 -0.12500000 -0.35267121
v 0.37114000 -0.12109000 -0.33948746
v 0.37108999 0.12102000 0.09410255
v 0.37108999 0.12102000 0.09019255
v 0.37114000 0.12109000 0.09019255
v 0.37114000 0.12109000 0.14878255
v 0.37114000 0.12109000 0.15269254
v 0.37108999 0.12102000 0.15269254
v 0.37140000 0.12500000 0.02329817
v 0.37265897 0.17542481 0.18305337
v 0.37140000 0.12500000 0.11118817
v 0.37108999 0.12102000 0.11363254
v 0.37108999 0.12102000 0.11753254
v 0.37108999 0.12102000 0.03160255
v 0.37114000 0.12109000 0.03160255
v 0.37108999 0.12102000 0.03550254
v 0.37108999 0.12102000 0.07066254
v 0.37114000 0.12109000 0.09410255
v 0.37114000 0.12109000 0.09800254
v 0.37108999 0.12102000 0.09800254
v 0.37108999 0.12102000 0.16831255
v 0.36717999 0.11859000 0.18394254
v 0.36974999 0.72006601 0.06926418
v 0.17343731 -0.53809345 -0.42740965
v 0.37108999 -0.12102000 -0.37073746
v 0.37108999 -0.12102000 -0.35120744
v 0.37140000 -0.12500000 -0.37488681
v 0.37114000 -0.12109000 -0.36682743
v 0.37108999 -0.12102000 -0.35901746
v 0.37140000 -0.12500000 -0.40540496
v 0.37078130 -0.12009059 -0.43085140
v 0.37108999 -0.12102000 -0.39417744
v 0.36717999 -0.11859000 -0.38269931
v 0.37108999 -0.12102000 -0.38245744
v 0.37114000 -0.12109000 -0.38245744
v 0.37114000 -0.12109000 -0.37854746
v 0.37114000 -0.12109000 -0.36292744
v 0.37108999 0.12102000 0.05503255
v 0.37114000 0.12109000 0.05113254
v 0.37114000 0.12109000 0.05503255
v 0.37114000 -0.12109000 -0.34339744
v 0.36717999 -0.11859000 -0.34607869
v 0.36717999 -0.11859000 -0.33362746
v 0.37114000 -0.12109000 -0.35120744
v 0.37114000 0.12109000 0.03941255
v 0.37108999 0.12102000 0.03941255
v 0.37114000 0.12109000 0.03550254
v 0.37114000 -0.12109000 -0.39807743
v 0.37114000 -0.12109000 -0.34729746
v 0.37108999 -0.12102000 -0.34729746
v 0.37108999 -0.12102000 -0.34339744
v 0.37114000 -0.12109000 -0.37073746
v 0.37114000 -0.12109000 -0.32776746
v 0.37164518 -0.12868743 -0.31060416
v 0.37108999 -0.12102000 -0.33948746
v 0.37108999 -0.12102000 -0.33557743
v 0.37108999 0.12102000 0.08628254
v 0.37114000 0.12109000 0.08628254
v 0.37108999 -0.12102000 -0.33167744
v 0.37108999 -0.12102000 -0.32776746
v 0.37108999 -0.12102000 -0.31995744
v 0.37114000 -0.12109000 -0.33557743
v 0.37118495 -0.12112796 -0.31812567
v 0.37108999 -0.12102000 -0.32385743
v 0.37108999 0.12102000 0.04722255
v 0.37114000 -0.12109000 -0.33167744
v 0.37114000 -0.12109000 -0.32385743
v 0.36944342 0.11972024 -0.00372996
v 0.37114000 0.12109000 0.10972255
v 0.37114000 0.12109000 0.11363254
v 0.37114000 0.12109000 0.15660255
v 0.37114000 0.12109000 0.16050255
v 0.37108999 0.12102000 0.16050255
v 0.37108999 0.12102000 0.12535255
v 0.37114000 0.12109000 0.12144255
v 0.37114000 0.12109000 0.12535255
v 0.37108999 0.12102000 0.06285255
v 0.37108999 0.12102000 0.06675254
v 0.37114000 0.12109000 0.05894254
v 0.37108999 0.12102000 0.05894254
v 0.36717999 0.11859000 0.02842411
v 0.37114000 0.12109000 0.00816255
v 0.37114000 0.12109000 0.01206255
v 0.37108999 0.12102000 0.01206255
v 0.36717999 0.11859000 0.06089505
v 0.37108999 0.12102000 0.01597255
v 0.37114000 0.12109000 0.01597255
v 0.37108999 0.12102000 0.01988255
v 0.37108999 0.12102000 0.02378254
v 0.37108999 0.12102000 0.02769255
v 0.37108999 0.12102000 0.15660255
v 0.37108999 0.12102000 0.07847255
v 0.37108999 0.12102000 0.07456255
v 0.37114000 0.12109000 0.07456255
v 0.37108999 0.12102000 0.04331254
v 0.37114000 0.12109000 0.04331254
v 0.37114000 0.12109000 0.01988255
v 0.36717999 0.11859000 0.09019255
v 0.37108999 0.12102000 0.05113254
v 0.37108999 0.12102000 0.12144255
v 0.37108999 0.12102000 0.10191254
v 0.37108999 0.12102000 0.10581255
v 0.37140000 0.12500000 0.05698879
v 0.37114000 0.12109000 0.04722255
v 0.37114000 0.12109000 0.02378254
v 0.37114000 0.12109000 0.02769255
v 0.37114000 0.12109000 0.06675254
v 0.37114000 0.12109000 0.10191254
v 0.37108999 0.12102000 0.13316254
v 0.37108999 0.12102000 0.13706255
v 0.37108999 0.12102000 0.08238254
v 0.37114000 0.12109000 0.06285255
v 0.37108999 0.12102000 0.10972255
v 0.37114000 0.12109000 0.10581255
v 0.37108999 0.12102000 0.12925255
v 0.37114000 0.12109000 0.07066254
v 0.37114000 0.12109000 0.08238254
v 0.37114000 0.12109000 0.12925255
v 0.37114000 0.12109000 0.07847255
v 0.37108999 0.12102000 0.17222254
v 0.37114000 0.12109000 0.16831255
v 0.37114000 0.12109000 0.11753254
v 0.37108999 0.12102000 0.14097254
v 0.37108999 0.12102000 0.18003255
v 0.37114000 0.12109000 0.18003255
v 0.37108999 0.12102000 0.18394254
v 0.37114000 0.12109000 0.13706255
v 0.37108999 0.12102000 0.14878255
v 0.37114000 0.12109000 0.14097254
v 0.37114000 0.12109000 0.14488254
v 0.37108999 0.12102000 0.14488254
v 0.37114000 0.12109000 0.17222254
v 0.37114000 0.12109000 0.17613254
v 0.37114000 0.12109000 0.16441254
v 0.37108999 0.12102000 0.16441254
v 0.36979154 0.11996081 0.18722665
v 0.37108999 0.12102000 0.17613254
v 0.37115538 0.12137412 0.18438759
v 0.42694569 0.30683225 0.21954377
v 0.37051001 0.49217999 0.18980256
v 0.25074151 0.49392590 0.18248966
v 0.32038572 0.08830776 -0.45279333
v 0.49372664 -0.12052344 0.18701340
v 0.46581751 -0.24608999 0.18785255
v 0.49452952 -0.12037221 0.06550685
v 0.49379912 -0.11975678 0.06642860
v 0.49273574 -0.11899534 0.18766764
v 0.49359417 -0.11879159 0.06553157
v 0.42254829 0.14347728 -0.13214284
v 0.73787344 -0.92624861 -0.18397035
v 0.73535031 -0.85415977 0.06516216
v 0.73436999 -0.85359001 -0.01136120
v 0.73436999 -0.85359001 0.01060255
v 0.73828000 -0.85540003 0.00035255
v 0.61536109 -0.11890627 0.06446519
v 0.73828000 -0.85540003 -0.08557745
v 0.73833001 -0.85545999 0.04722255
v 0.73828000 -0.85540003 0.04722255
v 0.73828000 -0.85540003 0.05113254
v 0.73890001 -0.85936999 0.00791880
v 0.73833001 -0.85545999 0.05503255
v 0.73828000 -0.85540003 0.05503255
v 0.73828000 -0.85540003 0.05894254
v 0.73828000 -0.85540003 0.01988255
v 0.73828000 -0.85540003 0.02378254
v 0.73828000 -0.85540003 -0.07385746
v 0.73828000 -0.85540003 -0.06995745
v 0.73833001 -0.85545999 -0.07385746
v 0.73828000 -0.85540003 -0.09729745
v 0.73436999 -0.85359001 -0.03479995
v 0.71403402 -0.99051732 0.10364217
v 0.73828000 -0.85540003 0.03160255
v 0.73828000 -0.85540003 -0.10510746
v 0.73833001 -0.85545999 -0.12464745
v 0.73828000 -0.85540003 -0.12464745
v 0.73828000 -0.85540003 -0.12073746
v 0.73828000 -0.85540003 -0.04651746
v 0.73890001 -0.85936999 -0.06824620
v 0.73833001 -0.85545999 -0.08167745
v 0.73833001 -0.85545999 -0.01135745
v 0.73833001 -0.85545999 -0.00745745
v 0.73828000 -0.85540003 -0.00745745
v 0.73833001 -0.85545999 0.01988255
v 0.73833001 -0.85545999 0.05113254
v 0.73890001 -0.85936999 0.04160880
v 0.73833001 -0.85545999 -0.10120745
v 0.73833001 -0.85545999 -0.12073746
v 0.73833001 -0.85545999 -0.11682745
v 0.73828000 -0.85540003 -0.11682745
v 0.73828000 -0.85540003 -0.06604745
v 0.73828000 -0.85540003 -0.06214745
v 0.73833001 -0.85545999 -0.06604745
v 0.73833001 -0.85545999 -0.04260745
v 0.73833001 -0.85545999 -0.05432746
v 0.73828000 -0.85540003 -0.05042745
v 0.73833001 -0.85545999 -0.05042745
v 0.73890001 -0.85936999 -0.03528745
v 0.73833001 -0.85545999 -0.02307745
v 0.73833001 -0.85545999 0.03941255
v 0.73828000 -0.85540003 0.03941255
v 0.73828000 -0.85540003 0.04331254
v 0.73436999 -0.85359001 -0.13147809
v 0.73436999 -0.85359001 -0.10071745
v 0.73890001 -0.85936999 -0.01722245
v 0.73868001 -0.90038496 0.06285255
v 0.73890001 -0.85936999 -0.05042745
v 0.73833001 -0.85545999 -0.12854746
v 0.73436999 -0.85359001 -0.06214370
v 0.73890001 -0.85936999 -0.12024871
v 0.73833001 -0.85545999 0.04331254
v 0.73833001 -0.85545999 -0.09339745
v 0.73828000 -0.85540003 -0.03089745
v 0.73833001 -0.85545999 0.00816255
v 0.73828000 -0.85540003 0.01206255
v 0.73833001 -0.85545999 0.01206255
v 0.73828000 -0.85540003 0.03550254
v 0.73833001 -0.85545999 0.03160255
v 0.73833001 -0.85545999 0.03550254
v 0.73828000 -0.85540003 -0.08167745
v 0.73868001 -0.89061999 0.06285255
v 0.73833001 -0.85545999 -0.10901746
v 0.73828000 -0.85540003 -0.10901746
v 0.73833001 -0.85545999 -0.08948746
v 0.73828000 -0.85540003 -0.08948746
v 0.73828000 -0.85540003 -0.10120745
v 0.73833001 -0.85545999 -0.10510746
v 0.73833001 -0.85545999 -0.11292745
v 0.73828000 -0.85540003 -0.09339745
v 0.73833001 -0.85545999 -0.09729745
v 0.73828000 -0.85540003 -0.11292745
v 0.73833001 -0.85545999 -0.08557745
v 0.73890001 -0.85936999 -0.09729995
v 0.73828000 -0.85540003 -0.07776746
v 0.73833001 -0.85545999 -0.06995745
v 0.73833001 -0.85545999 -0.04651746
v 0.73828000 -0.85540003 -0.04260745
v 0.73833001 -0.85545999 -0.07776746
v 0.73833001 -0.85545999 -0.01917745
v 0.73828000 -0.85540003 -0.01917745
v 0.73828000 -0.85540003 -0.05432746
v 0.73436999 -0.85359001 -0.08118496
v 0.73833001 -0.85545999 -0.03870745
v 0.73828000 -0.85540003 -0.03870745
v 0.73833001 -0.85545999 -0.06214745
v 0.73833001 -0.85545999 -0.01526745
v 0.73828000 -0.85540003 -0.01135745
v 0.73828000 -0.85540003 -0.05823745
v 0.73833001 -0.85545999 -0.05823745
v 0.73833001 -0.85545999 -0.02698745
v 0.73828000 -0.85540003 -0.02307745
v 0.73828000 -0.85540003 -0.01526745
v 0.73828000 -0.85540003 -0.03479745
v 0.73833001 -0.85545999 -0.03479745
v 0.73828000 -0.85540003 -0.02698745
v 0.73833001 -0.85545999 -0.03089745
v 0.73828000 -0.85540003 0.00425255
v 0.73828000 -0.85540003 0.00816255
v 0.73828000 -0.85540003 -0.00354745
v 0.73828000 -0.85540003 0.01597255
v 0.73833001 -0.85545999 -0.00354745
v 0.73833001 -0.85545999 0.00035255
v 0.73833001 -0.85545999 0.01597255
v 0.73833001 -0.85545999 0.02378254
v 0.73828000 -0.85540003 0.02769255
v 0.73833001 -0.85545999 0.02769255
v 0.73833001 -0.85545999 0.00425255
v 0.73436999 -0.85359001 0.03794630
v 0.73628533 -0.85522789 0.06499671
v 0.73865879 -0.85615325 0.06287306
f 2 3 4
f 120 3 2
f 6 7 50
f 9 10 11
f 12 13 14
f 15 16 17
f 16 15 99
f 18 19 20
f 8 19 18
f 14 23 35
f 24 10 9
f 10 24 111
f 27 28 29
f 99 28 27
f 30 31 32
f 31 30 99
f 1 36 37
f 38 120 39
f 40 38 39
f 43 44 6
f 44 43 8
f 45 25 46
f 99 25 45
f 47 48 49
f 6 44 7
f 53 42 54
f 70 56 57
f 54 38 40
f 23 59 34
f 60 2 4
f 35 60 4
f 4 12 35
f 52 61 62
f 63 64 65
f 8 64 63
f 52 53 54
f 68 15 17
f 64 8 43
f 69 64 43
f 71 72 73
f 111 72 71
f 46 68 119
f 19 110 51
f 56 19 51
f 75 61 52
f 65 64 69
f 76 74 77
f 74 76 103
f 119 11 46
f 79 80 62
f 80 79 120
f 39 41 81
f 41 39 120
f 82 83 33
f 35 12 14
f 62 80 53
f 84 66 85
f 86 84 85
f 35 144 26
f 26 40 81
f 34 84 86
f 5 87 88
f 111 87 5
f 61 75 79
f 75 120 79
f 90 66 59
f 23 90 59
f 72 111 91
f 92 72 91
f 80 120 42
f 53 80 42
f 60 41 2
f 41 120 2
f 86 85 93
f 57 67 94
f 85 58 93
f 58 85 66
f 35 86 50
f 61 79 62
f 42 38 54
f 38 42 120
f 40 39 81
f 95 63 65
f 75 52 120
f 62 53 52
f 65 69 50
f 3 120 66
f 59 84 34
f 66 84 59
f 47 49 70
f 56 51 57
f 52 54 26
f 54 40 26
f 13 90 14
f 90 13 66
f 70 94 47
f 81 41 60
f 26 81 35
f 81 60 35
f 35 23 34
f 50 86 93
f 4 3 12
f 96 111 71
f 21 96 71
f 49 97 98
f 14 90 23
f 3 66 13
f 12 3 13
f 34 86 35
f 10 99 45
f 11 10 45
f 93 58 95
f 8 63 66
f 20 56 70
f 93 95 50
f 70 49 98
f 50 95 65
f 97 96 98
f 96 97 110
f 69 43 6
f 44 8 18
f 7 44 18
f 50 7 20
f 70 98 118
f 144 35 50
f 50 20 70
f 91 22 100
f 22 91 111
f 50 70 144
f 19 8 110
f 20 19 56
f 7 18 20
f 51 67 57
f 67 51 110
f 50 69 6
f 95 58 63
f 58 66 63
f 89 48 47
f 110 48 89
f 73 72 92
f 57 94 70
f 98 21 118
f 21 71 73
f 73 92 118
f 96 110 111
f 94 89 47
f 87 111 24
f 55 87 24
f 88 87 55
f 98 96 21
f 119 105 29
f 101 1 37
f 118 92 100
f 94 67 89
f 67 110 89
f 118 21 73
f 48 110 97
f 49 48 97
f 92 91 100
f 104 5 88
f 100 22 104
f 55 24 9
f 100 104 118
f 11 45 46
f 118 55 9
f 118 104 88
f 107 76 77
f 118 9 119
f 105 27 29
f 9 11 119
f 88 55 118
f 108 83 82
f 103 83 108
f 10 111 99
f 102 103 76
f 107 102 76
f 46 25 68
f 32 31 1
f 25 99 15
f 68 25 15
f 104 22 5
f 22 111 5
f 109 30 32
f 119 68 17
f 17 16 105
f 17 105 119
f 101 106 82
f 31 99 36
f 1 31 36
f 29 28 109
f 28 99 30
f 109 28 30
f 119 109 32
f 119 32 101
f 32 1 101
f 29 109 119
f 105 16 27
f 16 99 27
f 103 36 99
f 36 102 37
f 103 102 36
f 37 102 107
f 37 107 101
f 101 107 77
f 33 112 113
f 77 74 106
f 77 106 101
f 114 103 556
f 78 114 556
f 106 108 82
f 113 114 78
f 112 114 113
f 114 112 103
f 106 74 108
f 74 103 108
f 83 103 112
f 33 83 112
f 101 33 113
f 82 33 101
f 101 113 78
f 103 99 556
f 118 144 70
f 66 120 8
f 110 8 556
f 556 8 120
f 52 26 144
f 118 119 556
f 556 111 110
f 144 120 52
f 99 111 556
f 556 101 78
f 118 556 144
f 556 119 101
f 556 120 144
f 123 124 121
f 122 125 115
f 121 126 122
f 127 128 129
f 130 131 132
f 131 445 132
f 135 136 137
f 115 123 122
f 115 125 138
f 140 141 142
f 146 147 148
f 150 151 152
f 123 138 124
f 138 125 124
f 153 154 155
f 230 156 164
f 115 138 123
f 122 117 125
f 157 158 159
f 367 158 157
f 123 121 122
f 124 160 121
f 160 124 125
f 121 160 126
f 161 162 398
f 143 165 166
f 167 168 169
f 170 171 151
f 139 117 1350
f 175 176 177
f 371 176 175
f 174 236 719
f 181 173 174
f 182 183 184
f 186 128 187
f 188 189 661
f 180 185 190
f 185 383 190
f 661 195 196
f 197 134 198
f 199 200 201
f 199 397 200
f 348 197 202
f 204 205 344
f 207 208 203
f 342 207 203
f 190 178 210
f 383 178 190
f 213 192 214
f 204 213 214
f 216 149 140
f 217 216 122
f 122 126 135
f 220 221 222
f 221 230 222
f 137 136 223
f 136 164 223
f 135 137 122
f 216 140 285
f 137 217 122
f 125 117 164
f 117 230 164
f 285 154 220
f 140 149 141
f 149 164 141
f 160 125 164
f 228 229 175
f 229 371 175
f 155 154 285
f 137 223 217
f 227 160 164
f 227 126 160
f 135 227 136
f 227 164 136
f 217 226 216
f 126 227 135
f 217 223 226
f 223 164 226
f 142 155 285
f 142 156 155
f 216 226 149
f 226 164 149
f 122 216 285
f 156 153 155
f 153 156 230
f 122 285 145
f 142 141 156
f 141 164 156
f 140 142 285
f 231 232 372
f 233 235 234
f 237 238 250
f 179 239 240
f 239 241 240
f 185 180 242
f 243 187 244
f 127 245 143
f 151 250 152
f 251 252 503
f 661 254 255
f 173 257 174
f 258 259 181
f 323 259 258
f 184 260 261
f 263 257 173
f 264 265 661
f 187 128 348
f 245 266 247
f 266 393 247
f 268 264 269
f 445 268 269
f 212 270 196
f 270 212 399
f 271 272 273
f 274 188 398
f 248 275 276
f 275 188 276
f 254 277 255
f 277 254 278
f 248 277 278
f 146 148 145
f 207 279 208
f 256 181 116
f 280 281 282
f 283 284 146
f 286 287 225
f 148 147 288
f 147 230 288
f 146 284 147
f 284 230 147
f 582 144 117
f 221 153 230
f 221 154 153
f 290 288 291
f 288 230 291
f 283 222 284
f 222 230 284
f 145 326 122
f 154 221 220
f 191 292 398
f 290 286 145
f 148 290 145
f 286 225 326
f 290 291 286
f 220 222 283
f 225 293 326
f 220 283 285
f 285 283 145
f 148 288 290
f 145 286 326
f 291 230 215
f 286 291 287
f 291 215 287
f 294 293 225
f 287 294 225
f 294 287 215
f 283 146 145
f 295 296 297
f 296 295 215
f 298 299 300
f 241 301 240
f 205 302 303
f 304 196 270
f 306 307 308
f 321 241 309
f 143 166 446
f 342 194 313
f 194 314 313
f 316 165 143
f 393 246 247
f 246 262 247
f 238 318 319
f 363 236 174
f 127 143 348
f 150 170 151
f 179 170 150
f 183 260 184
f 260 183 383
f 320 179 240
f 301 320 240
f 275 278 189
f 278 275 248
f 261 242 321
f 264 193 269
f 280 322 281
f 393 322 280
f 262 245 247
f 131 130 317
f 268 265 264
f 271 273 324
f 342 271 324
f 279 273 344
f 122 326 368
f 159 158 329
f 330 331 326
f 332 318 179
f 332 319 318
f 333 334 330
f 334 333 215
f 330 334 331
f 294 215 295
f 293 294 295
f 297 336 326
f 293 295 297
f 117 144 215
f 297 296 336
f 296 333 336
f 333 296 215
f 336 333 330
f 582 117 139
f 326 293 297
f 331 334 289
f 334 215 289
f 368 289 215
f 331 289 368
f 336 330 326
f 331 368 326
f 337 163 231
f 215 230 117
f 309 182 321
f 340 292 191
f 143 446 386
f 661 130 134
f 281 322 316
f 661 267 317
f 318 343 234
f 238 343 318
f 345 310 237
f 315 346 445
f 245 262 143
f 234 312 133
f 319 152 250
f 386 312 117
f 446 312 386
f 307 347 348
f 184 261 321
f 332 150 152
f 150 332 179
f 235 345 250
f 332 152 319
f 314 191 398
f 132 198 134
f 198 132 445
f 344 205 303
f 255 195 661
f 208 303 203
f 350 244 347
f 194 191 314
f 268 341 265
f 445 341 268
f 349 213 204
f 352 353 354
f 352 219 353
f 357 195 255
f 372 337 231
f 253 229 359
f 371 229 253
f 372 298 300
f 236 363 323
f 265 267 661
f 180 210 116
f 298 364 299
f 364 305 299
f 329 365 167
f 299 366 300
f 305 366 299
f 367 157 358
f 167 169 488
f 369 298 372
f 317 338 131
f 338 445 131
f 169 370 361
f 367 358 209
f 359 228 488
f 244 350 243
f 350 315 243
f 488 582 209
f 366 305 139
f 372 366 139
f 368 215 435
f 300 366 372
f 176 371 163
f 337 176 163
f 365 168 167
f 168 365 367
f 373 242 261
f 374 305 375
f 232 374 375
f 169 168 370
f 168 367 370
f 231 374 232
f 362 253 359
f 196 304 661
f 378 379 380
f 378 397 379
f 209 358 159
f 158 367 365
f 329 158 365
f 303 302 203
f 302 342 203
f 372 228 177
f 374 371 305
f 259 263 173
f 263 259 323
f 122 637 117
f 335 381 382
f 267 338 317
f 358 157 159
f 232 375 369
f 258 181 256
f 345 237 250
f 370 367 371
f 172 371 253
f 362 172 253
f 228 175 177
f 359 229 228
f 372 232 369
f 177 337 372
f 375 364 369
f 305 364 375
f 350 311 315
f 311 350 347
f 488 228 372
f 488 329 167
f 361 362 488
f 209 159 488
f 308 307 348
f 637 122 368
f 370 172 361
f 172 370 371
f 163 374 231
f 371 374 163
f 361 172 362
f 159 329 488
f 177 176 337
f 357 399 212
f 195 357 212
f 246 282 262
f 582 367 209
f 488 362 359
f 269 399 445
f 165 211 166
f 488 169 361
f 1350 488 139
f 369 364 298
f 181 174 116
f 306 311 307
f 315 311 306
f 162 161 249
f 351 269 193
f 269 351 399
f 301 250 171
f 195 212 196
f 303 208 344
f 134 197 661
f 116 719 321
f 315 393 129
f 321 182 184
f 310 233 234
f 345 233 310
f 384 274 162
f 323 258 383
f 250 301 321
f 275 189 188
f 162 274 398
f 179 234 133
f 237 343 238
f 170 320 171
f 179 320 170
f 311 347 307
f 182 309 385
f 130 132 134
f 188 274 276
f 151 171 250
f 320 301 171
f 321 242 116
f 373 185 242
f 383 185 373
f 179 383 385
f 345 235 233
f 183 182 385
f 383 183 385
f 197 348 661
f 239 179 385
f 309 239 385
f 282 281 143
f 383 179 133
f 190 210 180
f 318 234 179
f 210 256 116
f 304 351 193
f 261 260 373
f 260 383 373
f 116 174 719
f 263 363 257
f 323 363 263
f 241 239 309
f 387 388 389
f 390 352 354
f 129 266 127
f 393 266 129
f 384 276 274
f 276 384 248
f 235 312 234
f 242 180 116
f 214 205 204
f 312 1350 117
f 343 310 234
f 310 343 237
f 256 210 178
f 257 363 174
f 238 319 250
f 259 173 181
f 301 241 321
f 383 258 178
f 258 256 178
f 128 127 348
f 266 245 127
f 384 162 249
f 248 384 249
f 197 346 202
f 317 130 661
f 255 277 357
f 277 399 357
f 314 272 313
f 271 313 272
f 313 271 342
f 348 143 661
f 347 244 348
f 392 165 316
f 166 211 446
f 211 393 446
f 165 392 211
f 392 393 211
f 445 346 198
f 346 197 198
f 282 246 280
f 246 393 280
f 262 282 143
f 661 304 193
f 244 187 348
f 128 186 129
f 186 315 129
f 192 342 302
f 399 277 248
f 143 281 316
f 202 308 348
f 346 391 202
f 391 346 315
f 316 322 392
f 322 393 392
f 187 243 186
f 243 315 186
f 272 314 344
f 308 202 391
f 306 308 391
f 315 306 391
f 338 267 341
f 445 338 341
f 273 279 324
f 267 265 341
f 399 351 270
f 351 304 270
f 292 339 161
f 193 264 661
f 292 340 339
f 340 248 339
f 191 194 340
f 194 342 340
f 189 254 661
f 273 272 344
f 206 349 360
f 192 206 360
f 254 189 278
f 188 661 398
f 398 292 161
f 279 207 324
f 207 342 324
f 161 339 249
f 339 248 249
f 342 248 340
f 314 398 344
f 205 214 302
f 214 192 302
f 349 204 344
f 208 279 344
f 192 213 206
f 213 349 206
f 719 236 323
f 360 400 192
f 719 235 250
f 250 321 719
f 133 323 383
f 235 1350 312
f 388 401 389
f 388 219 401
f 403 396 404
f 406 199 407
f 397 199 406
f 588 1350 133
f 412 413 414
f 412 417 413
f 413 415 414
f 420 421 612
f 1187 133 400
f 422 423 525
f 425 426 423
f 428 530 429
f 431 432 355
f 431 408 432
f 433 403 404
f 433 219 403
f 144 527 435
f 437 438 439
f 353 219 388
f 387 353 388
f 440 433 405
f 219 433 440
f 305 371 582
f 582 371 367
f 139 488 372
f 661 360 349
f 382 381 583
f 381 405 583
f 442 219 352
f 390 442 352
f 386 117 452
f 399 400 445
f 443 376 444
f 312 446 133
f 400 446 393
f 143 386 661
f 400 399 248
f 349 344 661
f 396 218 447
f 342 400 248
f 200 448 201
f 400 342 192
f 335 440 381
f 335 397 440
f 393 315 400
f 400 133 446
f 449 450 377
f 451 450 449
f 454 455 456
f 457 458 459
f 459 458 612
f 460 457 459
f 457 460 417
f 461 419 503
f 416 417 460
f 462 416 460
f 463 464 465
f 464 463 453
f 466 467 468
f 466 417 467
f 409 469 470
f 409 557 469
f 462 459 612
f 471 472 473
f 518 472 471
f 431 478 408
f 431 484 478
f 485 574 355
f 486 487 481
f 486 480 487
f 407 201 395
f 452 117 637
f 637 368 435
f 139 305 582
f 451 491 394
f 492 493 494
f 1350 235 719
f 497 479 325
f 495 407 395
f 323 133 719
f 402 406 495
f 406 402 497
f 353 387 354
f 445 400 315
f 498 499 419
f 500 420 612
f 501 502 503
f 420 474 421
f 501 410 502
f 504 505 506
f 507 518 508
f 461 507 508
f 510 511 506
f 512 513 421
f 499 503 419
f 467 454 468
f 471 512 518
f 513 512 471
f 514 515 516
f 555 515 514
f 515 517 516
f 453 400 520
f 473 251 612
f 415 468 612
f 508 498 419
f 453 498 508
f 519 453 520
f 521 522 412
f 522 557 412
f 464 453 523
f 524 464 523
f 461 508 419
f 482 534 535
f 536 439 537
f 535 534 574
f 430 538 356
f 436 539 578
f 486 328 540
f 486 481 328
f 541 328 481
f 541 542 328
f 534 543 574
f 432 485 355
f 538 545 546
f 547 483 546
f 548 549 408
f 548 543 549
f 541 550 551
f 541 481 550
f 541 551 542
f 436 435 527
f 144 435 215
f 527 552 437
f 552 438 437
f 441 377 637
f 405 404 583
f 444 451 394
f 402 479 497
f 402 489 479
f 396 447 583
f 387 394 354
f 464 524 465
f 479 489 325
f 497 325 682
f 489 495 395
f 433 404 405
f 447 390 394
f 456 462 612
f 469 422 470
f 462 460 459
f 523 453 519
f 413 417 466
f 415 413 466
f 505 514 516
f 416 462 456
f 513 612 421
f 472 251 473
f 409 515 557
f 409 517 515
f 588 133 1187
f 558 559 560
f 485 531 576
f 513 471 473
f 251 562 252
f 507 461 502
f 252 501 503
f 508 518 453
f 563 501 252
f 499 498 463
f 498 453 463
f 564 356 434
f 565 566 567
f 477 566 565
f 548 478 568
f 548 408 478
f 529 569 530
f 554 400 561
f 570 571 477
f 572 571 570
f 575 547 509
f 539 537 578
f 531 432 408
f 531 485 432
f 484 355 574
f 549 543 534
f 480 540 546
f 327 564 577
f 564 434 577
f 438 509 578
f 577 434 483
f 327 492 544
f 492 494 544
f 478 484 568
f 436 527 539
f 527 481 327
f 494 493 546
f 492 487 493
f 492 481 487
f 547 546 578
f 580 483 547
f 551 535 574
f 356 538 546
f 574 576 680
f 552 575 509
f 552 527 575
f 440 405 381
f 482 549 534
f 482 408 549
f 144 224 527
f 486 540 480
f 543 568 574
f 548 568 543
f 431 355 484
f 493 480 546
f 545 494 546
f 527 536 539
f 536 537 539
f 328 542 540
f 568 484 574
f 527 580 575
f 580 547 575
f 576 224 680
f 327 580 527
f 542 546 540
f 550 535 551
f 509 547 578
f 581 545 538
f 536 437 439
f 437 536 527
f 552 509 438
f 487 480 493
f 327 581 430
f 581 538 430
f 481 492 327
f 434 356 546
f 550 481 408
f 564 430 356
f 564 327 430
f 581 544 545
f 581 327 544
f 542 574 546
f 542 551 574
f 482 550 408
f 482 535 550
f 537 439 578
f 434 546 483
f 580 577 483
f 580 327 577
f 531 408 224
f 531 224 576
f 485 576 574
f 546 574 680
f 439 438 578
f 544 494 545
f 481 527 408
f 546 680 578
f 404 396 583
f 447 394 583
f 200 378 448
f 397 378 200
f 489 395 325
f 378 380 448
f 389 443 394
f 403 219 218
f 396 403 218
f 451 449 491
f 909 637 435
f 397 219 440
f 199 201 407
f 491 490 394
f 379 335 382
f 397 335 379
f 401 443 389
f 448 380 395
f 443 444 394
f 219 377 401
f 406 497 397
f 491 441 490
f 382 583 380
f 376 450 444
f 376 377 450
f 441 637 490
f 452 637 377
f 376 401 377
f 443 401 376
f 450 451 444
f 442 390 447
f 379 382 380
f 387 389 394
f 219 452 377
f 201 448 395
f 380 583 395
f 218 442 447
f 218 219 442
f 637 909 490
f 449 441 491
f 449 377 441
f 390 354 394
f 497 452 397
f 402 495 489
f 406 407 495
f 395 583 682
f 325 395 682
f 386 452 661
f 344 398 661
f 584 585 500
f 585 584 417
f 499 465 503
f 521 414 525
f 586 522 496
f 557 522 586
f 524 519 503
f 465 524 503
f 516 525 411
f 519 520 503
f 520 400 612
f 562 472 518
f 251 472 562
f 499 463 465
f 410 507 502
f 518 507 410
f 415 466 468
f 453 518 400
f 587 588 650
f 587 589 588
f 506 505 411
f 467 417 455
f 454 467 455
f 524 523 519
f 513 473 612
f 559 590 560
f 559 555 590
f 591 702 703
f 702 591 760
f 474 512 421
f 518 512 474
f 563 518 410
f 501 563 410
f 516 517 525
f 562 563 252
f 563 562 518
f 510 506 411
f 521 412 414
f 474 585 518
f 585 474 420
f 502 461 503
f 458 584 500
f 415 612 525
f 585 420 500
f 454 612 468
f 251 503 612
f 454 456 612
f 558 560 411
f 517 409 470
f 496 521 525
f 518 585 417
f 426 586 496
f 458 500 612
f 584 457 417
f 457 584 458
f 514 504 555
f 514 505 504
f 455 416 456
f 416 455 417
f 557 417 412
f 511 590 555
f 511 510 590
f 517 470 525
f 422 592 423
f 590 510 560
f 612 418 525
f 422 525 470
f 426 425 586
f 425 557 586
f 592 469 557
f 592 422 469
f 559 553 555
f 559 558 553
f 414 415 525
f 505 516 411
f 511 504 506
f 511 555 504
f 522 521 496
f 426 496 525
f 423 426 525
f 592 425 423
f 592 557 425
f 515 555 557
f 553 558 418
f 558 411 418
f 560 510 411
f 525 418 411
f 561 553 418
f 561 555 553
f 593 561 400
f 555 561 593
f 428 596 600
f 597 598 429
f 597 526 598
f 566 599 567
f 599 573 600
f 571 572 601
f 602 603 618
f 533 532 565
f 532 477 565
f 526 400 554
f 554 566 477
f 566 554 599
f 604 601 600
f 596 604 600
f 428 606 596
f 572 570 528
f 569 429 530
f 607 608 611
f 400 526 1187
f 613 614 610
f 613 526 614
f 532 533 528
f 603 616 618
f 533 567 600
f 599 554 573
f 599 600 567
f 528 533 600
f 617 604 596
f 476 610 611
f 606 617 596
f 606 526 617
f 554 702 573
f 598 428 429
f 475 571 601
f 475 477 571
f 572 528 600
f 570 532 528
f 570 477 532
f 604 475 601
f 702 554 561
f 601 572 600
f 526 554 477
f 616 619 618
f 606 598 526
f 428 598 606
f 621 620 619
f 620 529 530
f 475 617 477
f 475 604 617
f 622 609 623
f 526 609 622
f 624 625 626
f 476 613 610
f 615 569 529
f 627 621 619
f 526 621 627
f 627 605 526
f 616 605 627
f 620 628 529
f 427 605 603
f 427 526 605
f 629 626 611
f 605 616 603
f 530 428 600
f 610 629 611
f 614 629 610
f 630 624 626
f 630 526 624
f 621 628 620
f 621 526 628
f 613 631 670
f 476 631 613
f 619 530 618
f 597 615 526
f 569 615 597
f 619 620 530
f 569 597 429
f 526 477 617
f 629 630 626
f 533 565 567
f 622 632 526
f 608 632 622
f 670 634 633
f 602 427 603
f 628 615 529
f 628 526 615
f 616 627 619
f 626 625 611
f 608 622 623
f 609 602 623
f 602 618 623
f 625 424 607
f 625 607 611
f 424 632 607
f 424 526 632
f 608 618 611
f 427 609 526
f 427 602 609
f 632 608 607
f 630 614 526
f 629 614 630
f 476 611 636
f 424 624 526
f 424 625 624
f 608 623 618
f 634 631 636
f 634 670 631
f 631 476 636
f 633 634 636
f 526 613 670
f 633 611 670
f 636 611 633
f 527 224 408
f 582 488 1350
f 394 490 909
f 394 909 583
f 397 452 219
f 360 661 452
f 452 612 400
f 400 518 417
f 639 640 641
f 640 638 641
f 503 520 612
f 642 589 643
f 1350 588 1020
f 417 593 400
f 557 555 593
f 557 593 417
f 644 684 645
f 561 418 612
f 646 647 648
f 635 649 638
f 635 643 649
f 643 651 649
f 652 587 653
f 587 650 653
f 589 587 652
f 643 589 651
f 643 635 642
f 650 588 750
f 653 650 638
f 652 653 651
f 651 589 652
f 640 635 638
f 640 642 635
f 649 653 638
f 649 651 653
f 650 750 638
f 702 561 612
f 618 530 611
f 600 573 530
f 656 657 658
f 659 686 660
f 682 452 497
f 682 583 909
f 645 662 654
f 663 664 665
f 664 655 665
f 666 658 655
f 666 656 658
f 639 641 657
f 657 589 639
f 656 666 669
f 654 665 655
f 654 662 665
f 656 589 657
f 667 654 655
f 667 645 654
f 668 667 655
f 668 644 667
f 588 589 684
f 669 589 656
f 589 642 639
f 642 640 639
f 658 638 655
f 664 666 655
f 664 669 666
f 658 641 638
f 658 657 641
f 655 638 750
f 669 664 663
f 684 669 663
f 589 669 684
f 662 684 663
f 645 667 644
f 645 684 662
f 663 665 662
f 588 684 686
f 671 672 673
f 1187 750 588
f 611 530 573
f 648 675 676
f 677 678 725
f 677 679 678
f 1187 611 573
f 1187 670 611
f 579 718 436
f 644 668 671
f 676 675 687
f 675 685 687
f 690 691 692
f 646 686 673
f 690 694 695
f 689 696 693
f 655 750 685
f 693 697 694
f 696 698 685
f 696 689 698
f 688 687 685
f 688 660 687
f 684 644 671
f 689 686 659
f 674 672 685
f 674 673 672
f 672 655 685
f 686 684 673
f 676 687 660
f 675 647 685
f 675 648 647
f 671 673 684
f 647 674 685
f 647 646 674
f 671 668 672
f 668 655 672
f 699 700 725
f 699 701 700
f 659 698 689
f 686 648 676
f 646 673 674
f 648 686 646
f 659 660 688
f 698 688 685
f 698 659 688
f 696 685 595
f 660 686 676
f 685 750 595
f 1187 573 702
f 678 595 725
f 686 689 693
f 670 1187 526
f 679 709 704
f 144 1232 224
f 680 579 578
f 680 224 1232
f 681 579 680
f 582 1232 144
f 680 1232 681
f 579 436 578
f 681 718 579
f 719 133 1350
f 706 707 708
f 704 678 679
f 691 695 595
f 691 690 695
f 693 696 697
f 696 595 697
f 709 686 694
f 690 709 694
f 711 707 725
f 711 708 707
f 704 594 678
f 594 595 678
f 679 706 709
f 594 691 595
f 594 692 691
f 706 679 677
f 706 708 709
f 692 594 704
f 709 692 704
f 709 588 686
f 707 677 725
f 707 706 677
f 695 697 595
f 695 694 697
f 692 709 690
f 694 686 693
f 710 703 702
f 702 612 710
f 714 715 716
f 714 717 766
f 400 360 452
f 720 711 721
f 711 725 721
f 701 766 722
f 726 683 728
f 726 727 683
f 722 766 713
f 705 703 710
f 708 711 720
f 722 700 701
f 766 701 731
f 766 709 720
f 709 708 720
f 701 699 731
f 733 734 760
f 733 735 734
f 730 716 761
f 730 714 716
f 722 713 724
f 700 724 725
f 700 722 724
f 699 725 761
f 713 766 720
f 724 721 725
f 724 713 721
f 720 721 713
f 732 730 761
f 732 717 730
f 731 699 736
f 699 761 736
f 714 730 717
f 714 766 715
f 731 736 715
f 715 766 731
f 716 736 761
f 716 715 736
f 709 766 588
f 725 595 750
f 1187 702 760
f 705 710 971
f 705 737 738
f 734 740 760
f 734 741 740
f 705 742 703
f 591 733 760
f 591 742 733
f 735 733 742
f 741 734 735
f 705 741 735
f 742 591 703
f 705 735 742
f 740 741 743
f 743 741 705
f 744 740 743
f 740 744 760
f 744 745 760
f 744 738 745
f 745 739 935
f 745 737 739
f 737 745 738
f 705 738 743
f 738 744 743
f 729 739 737
f 739 746 935
f 739 729 746
f 773 747 748
f 705 729 737
f 760 745 935
f 727 726 749
f 683 751 728
f 683 712 751
f 752 746 753
f 746 752 935
f 746 729 753
f 754 755 756
f 757 755 935
f 757 756 755
f 747 758 748
f 727 712 683
f 717 732 759
f 759 732 751
f 732 761 751
f 764 723 762
f 764 762 765
f 762 766 759
f 712 762 759
f 727 762 712
f 763 726 728
f 763 749 726
f 761 725 750
f 762 749 765
f 766 717 759
f 749 762 727
f 751 761 728
f 759 751 712
f 728 761 750
f 768 769 728
f 768 723 769
f 765 763 770
f 763 728 770
f 723 764 769
f 749 763 765
f 723 768 771
f 723 771 762
f 767 768 728
f 767 771 768
f 769 770 728
f 769 764 770
f 765 770 764
f 773 705 971
f 753 729 705
f 774 747 775
f 773 748 776
f 757 774 775
f 774 757 935
f 777 758 935
f 777 748 758
f 773 756 775
f 758 774 935
f 758 747 774
f 773 754 756
f 778 779 792
f 778 780 779
f 752 777 935
f 752 776 777
f 776 752 753
f 705 776 753
f 773 776 705
f 780 778 754
f 775 747 773
f 748 777 776
f 773 780 754
f 755 778 935
f 755 754 778
f 781 782 783
f 935 778 792
f 756 757 775
f 794 781 783
f 784 785 786
f 787 767 788
f 767 728 788
f 779 780 783
f 782 793 792
f 782 781 793
f 782 779 783
f 779 782 792
f 795 785 772
f 785 796 786
f 786 790 797
f 790 824 797
f 798 799 824
f 798 795 799
f 800 801 802
f 800 803 801
f 794 804 781
f 799 788 824
f 799 772 788
f 766 762 1020
f 805 784 806
f 795 772 799
f 788 728 824
f 804 793 781
f 786 797 784
f 762 771 787
f 796 785 795
f 771 767 787
f 808 809 810
f 809 808 792
f 796 790 786
f 762 785 1020
f 772 785 787
f 811 806 824
f 811 805 806
f 795 798 796
f 841 785 784
f 785 762 787
f 790 798 824
f 790 796 798
f 787 788 772
f 812 811 824
f 812 813 811
f 805 811 813
f 806 797 824
f 806 784 797
f 813 841 805
f 785 841 1020
f 805 841 784
f 824 728 750
f 1187 760 935
f 791 809 792
f 791 814 809
f 794 814 804
f 773 971 794
f 780 773 794
f 809 814 810
f 793 791 792
f 793 804 791
f 783 780 794
f 814 791 804
f 971 815 794
f 794 819 807
f 820 808 810
f 794 807 820
f 810 814 794
f 792 808 844
f 817 818 844
f 817 807 818
f 807 817 820
f 821 822 892
f 821 823 822
f 819 818 807
f 936 792 844
f 808 817 844
f 808 820 817
f 818 816 844
f 818 819 816
f 794 820 810
f 825 826 827
f 718 1082 436
f 1142 681 1232
f 829 830 871
f 831 832 892
f 831 833 832
f 834 816 835
f 816 834 844
f 816 819 835
f 836 801 803
f 1020 588 766
f 815 971 901
f 838 839 840
f 801 824 802
f 813 812 836
f 831 842 843
f 842 831 844
f 935 792 936
f 845 800 802
f 845 846 800
f 847 848 849
f 850 832 833
f 841 813 836
f 841 838 840
f 802 824 750
f 847 864 848
f 836 812 801
f 812 824 801
f 840 839 851
f 839 802 851
f 838 841 846
f 839 845 802
f 839 838 845
f 846 845 838
f 852 849 802
f 852 847 849
f 803 841 836
f 846 841 803
f 846 803 800
f 1020 841 864
f 853 852 802
f 853 854 852
f 849 851 802
f 849 848 851
f 847 852 854
f 854 864 847
f 864 841 840
f 840 851 848
f 848 864 840
f 855 856 857
f 854 853 858
f 1160 710 612
f 819 794 815
f 842 861 843
f 815 827 835
f 815 861 825
f 823 821 850
f 835 819 815
f 862 842 844
f 862 861 842
f 815 833 843
f 826 862 844
f 826 825 862
f 861 862 825
f 834 826 844
f 834 827 826
f 827 834 835
f 815 825 827
f 843 861 815
f 815 823 850
f 815 850 833
f 832 821 892
f 832 850 821
f 844 831 892
f 936 844 892
f 833 831 843
f 863 884 858
f 865 866 943
f 866 865 867
f 873 874 875
f 822 823 876
f 877 822 876
f 822 877 892
f 971 878 879
f 901 880 876
f 881 882 837
f 882 860 837
f 885 886 887
f 890 802 860
f 901 874 891
f 864 854 858
f 887 882 881
f 884 1020 864
f 885 863 859
f 893 894 860
f 893 895 894
f 858 853 890
f 853 802 890
f 896 894 895
f 885 884 863
f 886 859 860
f 886 885 859
f 1118 897 898
f 1020 884 933
f 883 896 884
f 887 884 885
f 881 837 883
f 802 750 860
f 858 890 863
f 884 864 858
f 859 890 860
f 859 863 890
f 884 887 881
f 882 886 860
f 882 887 886
f 895 933 896
f 883 884 881
f 894 872 860
f 894 896 872
f 872 837 860
f 872 883 837
f 933 884 896
f 896 883 872
f 899 900 892
f 899 891 900
f 901 891 880
f 900 873 892
f 900 874 873
f 877 899 892
f 877 880 899
f 874 900 891
f 907 936 892
f 876 823 901
f 823 815 901
f 902 903 907
f 902 879 903
f 879 902 904
f 880 877 876
f 891 899 880
f 904 905 875
f 905 873 875
f 873 905 892
f 875 874 971
f 874 901 971
f 878 903 879
f 903 906 907
f 903 878 906
f 971 904 875
f 971 879 904
f 905 902 892
f 905 904 902
f 892 902 907
f 1142 718 681
f 435 436 1082
f 907 906 915
f 906 878 915
f 1156 856 916
f 918 893 910
f 893 860 910
f 919 921 922
f 933 895 918
f 936 907 971
f 924 917 925
f 895 893 918
f 919 933 921
f 918 910 921
f 924 933 919
f 925 917 927
f 917 928 927
f 918 921 933
f 926 922 928
f 926 919 922
f 908 920 929
f 929 927 938
f 929 920 927
f 919 926 924
f 917 926 928
f 917 924 926
f 908 979 920
f 922 910 860
f 922 921 910
f 922 860 928
f 933 924 979
f 979 924 925
f 930 979 908
f 931 929 938
f 931 908 929
f 927 928 938
f 920 979 925
f 925 927 920
f 908 931 930
f 932 931 938
f 932 930 931
f 933 979 1020
f 860 750 928
f 915 878 971
f 971 907 915
f 940 941 1134
f 942 941 940
f 718 1142 1082
f 944 867 1092
f 945 946 789
f 946 945 947
f 948 949 1092
f 789 682 909
f 947 1092 950
f 889 888 1124
f 952 953 954
f 955 956 957
f 934 960 1124
f 960 934 961
f 963 964 1104
f 964 963 965
f 967 968 1066
f 968 967 969
f 972 937 973
f 937 974 938
f 937 972 974
f 975 976 966
f 975 970 976
f 980 979 959
f 981 977 938
f 981 980 977
f 959 932 977
f 932 938 977
f 982 972 973
f 974 981 938
f 974 984 981
f 973 937 976
f 937 938 976
f 973 976 970
f 979 930 959
f 930 932 959
f 959 977 980
f 985 982 983
f 972 982 984
f 980 984 982
f 984 980 981
f 984 974 972
f 980 982 979
f 986 975 966
f 986 983 975
f 1020 979 982
f 970 982 973
f 976 938 966
f 983 970 975
f 987 986 966
f 987 985 986
f 983 986 985
f 983 982 970
f 938 928 966
f 928 750 1187
f 988 989 990
f 978 992 993
f 941 942 994
f 997 998 1145
f 998 997 830
f 582 1350 1232
f 950 946 947
f 1092 867 999
f 948 1000 949
f 943 909 912
f 1001 923 1002
f 1003 1004 1005
f 978 987 992
f 987 966 992
f 1008 992 966
f 1008 993 992
f 1009 1010 1112
f 1010 1009 1011
f 1160 612 452
f 1012 1013 1014
f 888 889 1016
f 1017 1018 991
f 1018 951 991
f 710 1160 971
f 1187 935 936
f 1186 1350 1020
f 954 968 969
f 1004 1008 966
f 1004 1003 1008
f 1022 1023 1024
f 1023 951 1024
f 971 1160 936
f 1056 1025 1026
f 982 985 1021
f 1004 966 951
f 1021 985 978
f 985 987 978
f 1003 993 1008
f 993 1021 978
f 1027 1056 1007
f 1003 1021 993
f 1005 1023 1022
f 1005 1021 1003
f 1023 1004 951
f 1023 1005 1004
f 1021 1005 1022
f 1018 1019 951
f 1018 1028 1019
f 1019 1029 951
f 1019 1027 1029
f 1021 1020 982
f 1028 1056 1027
f 1027 1007 1029
f 1056 1021 1022
f 1029 1024 951
f 1029 1007 1024
f 1027 1019 1028
f 1022 1024 1007
f 1007 1056 1022
f 1186 1030 1031
f 1056 1020 1021
f 928 1187 951
f 966 928 951
f 914 955 957
f 951 1187 1130
f 1001 1033 1025
f 1001 1056 923
f 1082 1142 1138
f 996 912 1189
f 996 1037 912
f 1037 996 1038
f 789 909 943
f 1347 452 913
f 961 1040 914
f 1041 1092 1042
f 1044 1045 962
f 1124 1160 452
f 1047 1013 1048
f 914 1046 1049
f 1050 855 1104
f 855 1050 856
f 1028 1018 1017
f 1052 1053 1130
f 1052 1054 1053
f 1057 1034 1058
f 1034 1130 1058
f 1033 1002 951
f 1033 1001 1002
f 1002 991 951
f 1002 923 991
f 1186 1020 1056
f 1034 1062 1130
f 1034 1035 1062
f 1025 1056 1001
f 1017 991 923
f 1064 1050 1032
f 1050 1064 916
f 1065 1067 1130
f 1065 1068 1067
f 1026 1067 1068
f 1061 1033 1130
f 1061 1025 1033
f 1025 1061 1026
f 923 1056 1017
f 1056 1028 1017
f 1033 951 1130
f 1026 1061 1067
f 1061 1130 1067
f 1062 1065 1130
f 1062 1063 1065
f 1186 1056 1026
f 1068 1186 1026
f 1035 1186 1063
f 1063 1062 1035
f 1063 1186 1068
f 1063 1068 1065
f 1047 1070 1071
f 1349 1040 1016
f 1072 1046 957
f 1073 1074 1075
f 1054 1052 1076
f 1085 997 1145
f 997 1085 1086
f 1085 1039 1086
f 1092 947 948
f 1087 1088 912
f 1088 1087 1089
f 871 1039 1089
f 1090 1091 944
f 828 682 789
f 912 1085 1145
f 1093 950 1094
f 1086 871 830
f 946 1093 789
f 1093 946 950
f 998 830 829
f 1096 1070 1097
f 1043 990 989
f 1040 888 1016
f 1098 962 958
f 1124 452 1174
f 1099 960 961
f 967 1100 969
f 1054 1186 1101
f 952 989 953
f 1102 1103 1015
f 1064 1075 916
f 1076 1069 1105
f 1106 1107 1066
f 1107 1106 953
f 1172 898 1015
f 1108 1109 1112
f 1109 1108 1071
f 968 1106 1066
f 954 1106 968
f 855 963 1104
f 963 855 857
f 958 962 952
f 1156 1110 965
f 988 1111 1112
f 1111 988 990
f 1113 1059 1114
f 1097 1070 1047
f 1186 1076 1105
f 1116 1009 1112
f 1117 1009 1116
f 1069 1052 1130
f 1069 1076 1052
f 1119 1120 1183
f 1120 1119 1121
f 956 1122 1124
f 1122 956 955
f 1123 1015 898
f 1125 1126 1127
f 1012 1055 1032
f 1055 1012 1014
f 952 962 1045
f 1101 1186 1057
f 1053 1058 1130
f 1053 1101 1058
f 1076 1186 1054
f 1035 1034 1057
f 1054 1101 1053
f 1057 1058 1101
f 1105 1069 1129
f 1069 1130 1129
f 1186 1035 1057
f 1030 1186 1105
f 1105 1129 1030
f 1031 1030 1129
f 1129 1130 1031
f 1122 1044 1066
f 1044 1122 1045
f 1187 936 1160
f 1122 955 1045
f 1138 1132 1133
f 1138 1078 1134
f 1078 1138 1133
f 942 1036 1083
f 1135 1081 994
f 1136 1077 1137
f 1083 994 942
f 1136 1140 1134
f 1140 1136 1137
f 1138 939 1082
f 1133 1132 1083
f 1083 1080 1137
f 1083 1132 995
f 1139 1135 1077
f 941 1081 1134
f 1081 941 994
f 1139 1136 1134
f 1136 1139 1077
f 1083 1137 1077
f 1078 940 1134
f 1036 940 1078
f 1135 994 1083
f 1083 1077 1135
f 942 940 1036
f 1036 1078 1133
f 1083 1036 1133
f 1140 1137 1080
f 1079 1141 1080
f 1138 995 1132
f 1081 1139 1134
f 1135 1139 1081
f 1141 1082 939
f 1079 1082 1141
f 1134 1140 939
f 1079 1083 995
f 1232 995 1138
f 1140 1141 939
f 1141 1140 1080
f 1134 939 1138
f 1080 1083 1079
f 1138 1142 1232
f 995 1082 1079
f 1088 1089 1039
f 1189 912 435
f 997 1086 830
f 871 868 1038
f 1082 1189 435
f 1037 1038 868
f 435 912 909
f 871 1086 1039
f 871 1038 996
f 1095 1146 943
f 1146 1095 1041
f 1088 1085 912
f 1085 1088 1039
f 1087 868 1089
f 1037 1087 912
f 868 1087 1037
f 871 1089 868
f 1084 829 1147
f 996 1189 871
f 1093 911 789
f 911 1093 1094
f 871 1092 1147
f 1095 1090 1041
f 1042 1146 1041
f 866 867 944
f 870 1000 943
f 1000 870 949
f 1144 865 1145
f 865 1144 999
f 871 1147 829
f 1092 949 1042
f 869 1148 1094
f 1091 1095 943
f 1095 1091 1090
f 1149 828 789
f 828 1149 869
f 866 1091 943
f 1091 866 944
f 870 1042 949
f 944 1092 1090
f 912 1145 943
f 999 1144 1147
f 1084 1144 1145
f 1147 1144 1084
f 999 1147 1092
f 1092 1041 1090
f 998 1084 1145
f 1084 998 829
f 1146 870 943
f 870 1146 1042
f 869 1094 950
f 1145 865 943
f 867 865 999
f 452 1092 871
f 1000 945 943
f 945 1000 948
f 950 1092 869
f 911 1094 1148
f 943 945 789
f 1149 1148 869
f 945 948 947
f 911 1149 789
f 1149 911 1148
f 452 869 1092
f 828 869 452
f 682 828 452
f 1188 913 452
f 871 1357 452
f 1349 1152 1174
f 952 1100 958
f 1048 1154 1006
f 1151 1072 1124
f 1072 1151 1046
f 914 1099 961
f 1016 1152 1349
f 1096 1116 1112
f 1116 1096 1097
f 957 1046 914
f 1044 1098 1066
f 1098 1044 962
f 1156 1074 1014
f 1131 1151 1124
f 1151 1131 1049
f 960 1131 1124
f 1099 1131 960
f 1047 1014 1013
f 1349 914 1040
f 889 1124 1174
f 1131 1099 1049
f 1152 1016 889
f 1174 1152 889
f 1107 988 1112
f 988 1107 989
f 1151 1049 1046
f 1072 956 1124
f 956 1072 957
f 914 1049 1099
f 1045 955 952
f 1106 954 953
f 1055 1073 1032
f 1073 1055 1074
f 1158 1159 1160
f 1159 1158 1161
f 1010 1011 1006
f 1055 1014 1074
f 1059 1162 1163
f 1164 1165 1060
f 1165 1164 1166
f 1111 1108 1112
f 1168 1108 1111
f 1043 1047 1071
f 1168 990 1043
f 1169 1170 1157
f 1128 1157 1127
f 1050 916 856
f 1168 1111 990
f 1172 1171 1114
f 1173 1125 1104
f 1125 1173 1126
f 1098 1153 1066
f 1153 1098 958
f 1100 1153 958
f 1155 1012 1032
f 1012 1155 1013
f 888 934 1124
f 934 888 1040
f 934 1040 961
f 1124 1122 1066
f 1156 857 856
f 1160 1124 1112
f 1175 1051 1169
f 914 952 955
f 952 954 969
f 969 1100 952
f 1156 965 857
f 964 965 1110
f 1156 1075 1074
f 1107 953 989
f 1066 1107 1112
f 1047 1231 1156
f 952 1043 989
f 1153 967 1066
f 967 1153 1100
f 1124 1066 1112
f 1104 1125 1060
f 1109 1096 1112
f 1096 1109 1070
f 1010 1154 1032
f 1154 1010 1006
f 1009 1117 1011
f 1165 1166 1163
f 1043 1071 1168
f 1047 1006 1011
f 1109 1071 1070
f 1128 1110 1156
f 1047 1043 1231
f 1047 1156 1014
f 1154 1155 1032
f 1048 1155 1154
f 1032 1050 1104
f 1073 1064 1032
f 1064 1073 1075
f 1115 1170 1060
f 1170 1115 1157
f 1112 1010 1032
f 1047 1011 1117
f 1231 1043 952
f 1047 1117 1097
f 1160 1112 1032
f 1155 1048 1013
f 1156 916 1075
f 1048 1006 1047
f 952 914 1231
f 1108 1168 1071
f 1117 1116 1097
f 1176 1171 1177
f 963 857 965
f 1103 1178 1177
f 1172 1059 1163
f 1051 1164 1060
f 1164 1051 1175
f 1170 1051 1060
f 1169 1051 1170
f 1180 1158 1160
f 1181 1158 1180
f 1172 1114 1059
f 1128 1169 1157
f 1115 1127 1157
f 1167 1176 1183
f 1176 1167 1171
f 1123 1179 1183
f 1179 1123 898
f 1160 1032 1104
f 1175 1169 1128
f 1178 1102 1183
f 1103 1102 1178
f 1128 1127 1126
f 1128 1126 1110
f 1128 1166 1175
f 1173 1110 1126
f 1167 1114 1171
f 1128 1172 1163
f 1125 1115 1060
f 1115 1125 1127
f 1165 1162 1060
f 1162 1165 1163
f 1164 1175 1166
f 1128 1163 1166
f 1160 1060 1183
f 964 1173 1104
f 1173 964 1110
f 1160 1104 1060
f 1113 1167 1183
f 1167 1113 1114
f 1156 1231 1128
f 1060 1113 1183
f 1172 1177 1171
f 1103 1177 1172
f 898 1172 1118
f 1176 1178 1183
f 1178 1176 1177
f 1172 1015 1103
f 1118 1161 1181
f 1159 1161 1118
f 1102 1123 1183
f 1123 1102 1015
f 1162 1113 1060
f 1059 1113 1162
f 1158 1181 1161
f 1119 897 1121
f 1128 1231 1172
f 1118 1121 897
f 1179 898 897
f 1179 1119 1183
f 1119 1179 897
f 1120 1121 1184
f 1120 1182 1183
f 1182 1120 1184
f 1181 1180 1185
f 1118 1172 1231
f 1183 1180 1160
f 1118 1184 1121
f 1182 1184 1185
f 1182 1180 1183
f 1180 1182 1185
f 1118 1181 1185
f 1118 1185 1184
f 1159 1231 1160
f 1231 1159 1118
f 1031 1130 1187
f 1187 1160 1231
f 1031 1350 1186
f 1350 1031 1187
f 1188 1192 913
f 1190 1241 1143
f 1188 452 1199
f 1238 1150 1197
f 1150 1198 1197
f 1200 1201 1202
f 1209 1200 1202
f 1197 1198 1191
f 1205 1241 1206
f 1211 1212 1213
f 1214 1193 1215
f 1216 1214 1215
f 1220 1221 1199
f 1222 1223 1224
f 1226 1219 1227
f 1228 1226 1227
f 1231 914 1349
f 1174 452 1348
f 1201 1250 1234
f 1082 995 1189
f 1207 1241 1240
f 1191 1242 1208
f 1201 1234 1202
f 1243 1190 1244
f 1235 1243 1244
f 1190 1143 1244
f 1189 1355 871
f 1355 1189 995
f 1242 1241 1190
f 1236 1206 1245
f 1235 1236 1245
f 1246 1247 1248
f 1247 1311 1248
f 1240 1241 1198
f 1243 1242 1190
f 1235 1244 1195
f 1244 1143 1195
f 1191 1241 1242
f 1232 1239 1238
f 1209 1202 1252
f 1202 1234 1252
f 1239 1350 1207
f 1253 1254 1255
f 1217 1253 1255
f 1256 1207 1240
f 1239 1232 1350
f 1195 1143 1233
f 1206 1250 1237
f 1256 1240 1150
f 1238 1256 1150
f 1209 1235 1245
f 1197 1191 1208
f 1235 1197 1208
f 1258 1250 1259
f 1350 1241 1207
f 1234 1250 1258
f 1241 1250 1206
f 1258 1259 1257
f 1236 1205 1206
f 1262 1232 1209
f 1233 1241 1205
f 1235 1260 1236
f 1260 1205 1236
f 1235 1208 1243
f 1208 1242 1243
f 1263 1251 1264
f 1252 1234 1258
f 1209 1245 1200
f 1245 1237 1200
f 1233 1205 1260
f 1240 1198 1150
f 1235 1238 1197
f 1206 1237 1245
f 1238 1239 1207
f 1195 1233 1260
f 1235 1195 1260
f 1252 1258 1257
f 1209 1252 1257
f 1265 1266 1212
f 1143 1241 1233
f 1232 1235 1209
f 1267 1196 1268
f 1238 1235 1232
f 1238 1207 1256
f 1198 1241 1191
f 1237 1250 1201
f 1259 1250 1263
f 1200 1237 1201
f 1241 1350 1250
f 1209 1257 1249
f 1257 1259 1249
f 1209 1210 1270
f 1210 1264 1270
f 1250 1350 1251
f 1272 1196 1269
f 1251 1350 1196
f 1263 1264 1210
f 1249 1259 1263
f 1250 1251 1263
f 1249 1263 1210
f 1209 1249 1210
f 1262 1209 1270
f 1267 1268 1274
f 1251 1196 1267
f 1264 1251 1267
f 1204 1262 1271
f 1270 1264 1267
f 1270 1267 1274
f 1262 1270 1274
f 1262 1274 1261
f 1274 1268 1261
f 1262 1275 1271
f 1275 1269 1271
f 1271 1196 1204
f 1268 1196 1272
f 1272 1269 1275
f 1261 1268 1272
f 1261 1272 1275
f 1262 1261 1275
f 1269 1196 1271
f 1277 1219 1278
f 1220 1277 1278
f 1221 1220 1278
f 1279 1218 1280
f 1281 1279 1280
f 1204 1196 1350
f 1223 1217 1255
f 1224 1223 1255
f 1282 1283 1284
f 1283 1219 1284
f 1289 1222 1224
f 1293 1285 1286
f 1248 1311 1287
f 1288 1248 1287
f 1290 1217 1291
f 1292 1290 1291
f 1306 1211 1228
f 1293 1246 1288
f 1294 1291 1295
f 1291 1217 1295
f 1294 1295 1296
f 1289 1297 1298
f 1300 1301 1302
f 1273 1303 1304
f 1276 1290 1292
f 1297 1296 1305
f 1246 1307 1247
f 1188 1221 1308
f 1211 1226 1228
f 1212 1211 1306
f 1199 1309 1310
f 1311 1312 1304
f 1312 1273 1304
f 1254 1253 1303
f 1294 1292 1291
f 1357 1217 1290
f 1276 1357 1290
f 1246 1248 1288
f 1295 1217 1305
f 1296 1295 1305
f 1313 1217 1314
f 1298 1313 1314
f 1293 1273 1307
f 1297 1313 1298
f 1222 1314 1223
f 1314 1217 1223
f 1297 1305 1313
f 1305 1217 1313
f 1276 452 1357
f 1288 1285 1293
f 1311 1203 1302
f 1292 1289 1276
f 1292 1294 1289
f 1289 1294 1296
f 1254 1224 1255
f 1317 1194 1318
f 1285 1288 1287
f 1296 1297 1289
f 1222 1298 1314
f 1298 1222 1289
f 1303 1273 1293
f 1282 1308 1283
f 1273 1312 1307
f 1311 1217 1347
f 1289 1254 1303
f 1319 1265 1306
f 1311 1320 1287
f 1320 1285 1287
f 1217 1357 1347
f 1246 1293 1307
f 1321 1322 1277
f 1322 1219 1277
f 1224 1254 1289
f 1188 1282 1323
f 1312 1311 1247
f 1307 1312 1247
f 1303 1293 1289
f 1310 1321 1199
f 1285 1320 1286
f 1217 1311 1304
f 1293 1225 1301
f 1225 1324 1301
f 1253 1217 1304
f 1303 1253 1304
f 1286 1320 1315
f 1320 1311 1315
f 1321 1277 1220
f 1306 1300 1319
f 1265 1325 1266
f 1325 1203 1266
f 1316 1219 1322
f 1310 1316 1322
f 1286 1225 1293
f 1203 1219 1226
f 1309 1227 1316
f 1227 1219 1316
f 1324 1311 1302
f 1301 1324 1302
f 1317 1326 1194
f 1326 1193 1194
f 1300 1302 1327
f 1302 1203 1327
f 1225 1286 1315
f 1328 1229 1329
f 1330 1219 1283
f 1308 1330 1283
f 1225 1315 1324
f 1315 1311 1324
f 1327 1203 1325
f 1319 1327 1325
f 1199 1321 1220
f 1265 1319 1325
f 1301 1300 1306
f 1301 1306 1293
f 1309 1228 1227
f 1211 1213 1226
f 1213 1203 1226
f 1228 1199 1306
f 1228 1309 1199
f 1300 1327 1319
f 1266 1203 1213
f 1212 1266 1213
f 1221 1278 1330
f 1278 1219 1330
f 1306 452 1293
f 1306 1265 1212
f 1332 1333 1334
f 1309 1316 1310
f 1308 1282 1188
f 452 1289 1293
f 1318 1331 1188
f 1188 1317 1318
f 1337 1193 1338
f 1339 1337 1338
f 1221 1330 1308
f 1282 1284 1323
f 1336 1214 1216
f 1321 1310 1322
f 1331 1335 1337
f 1335 1193 1337
f 1192 1336 1216
f 1284 1219 1326
f 1323 1284 1326
f 1221 1188 1199
f 1299 1216 1215
f 1188 1331 1339
f 1193 1218 1215
f 1331 1318 1335
f 1336 1338 1214
f 1338 1193 1214
f 1331 1337 1339
f 1194 1193 1335
f 1318 1194 1335
f 1323 1317 1188
f 1317 1323 1326
f 1219 1193 1326
f 1216 1299 1192
f 1192 1299 1281
f 1299 1215 1279
f 1215 1218 1279
f 1230 913 1192
f 1339 1192 1188
f 1339 1336 1192
f 1336 1339 1338
f 1229 1328 1230
f 1342 1218 1329
f 1229 1342 1329
f 1332 1341 1333
f 1341 1218 1333
f 1299 1279 1281
f 1281 1343 1192
f 1343 1281 1280
f 1343 1280 1342
f 1280 1218 1342
f 1218 1344 1346
f 1328 1329 1340
f 1329 1218 1340
f 1199 452 1306
f 1343 1342 1229
f 1230 1343 1229
f 1340 1218 1341
f 1345 1340 1341
f 1230 1328 1345
f 1328 1340 1345
f 1343 1230 1192
f 1332 1345 1341
f 1230 1332 1334
f 1230 1344 913
f 1333 1218 1346
f 1334 1333 1346
f 1345 1332 1230
f 1344 1230 1346
f 1346 1230 1334
f 1357 1350 1347
f 1311 1347 1203
f 1276 1289 452
f 1347 1219 1203
f 1193 1219 1218
f 913 1344 1218
f 1219 1347 1218
f 913 1218 1347
f 1348 1349 1174
f 1348 1347 1231
f 1348 1231 1349
f 1347 1348 452
f 1355 995 1352
f 1356 871 1355
f 1352 995 1351
f 1351 995 1353
f 1351 1353 1354
f 1352 1351 1355
f 1262 1204 1232
f 1356 1357 871
f 1354 1356 1355
f 1354 1355 1351
f 1204 1350 1357
f 1350 1231 1347
f 1354 1353 1356
f 1350 1187 1231
f 1357 1356 1363
f 1363 1356 1353
f 1232 1204 995
f 1357 1363 995
f 1363 1353 995
f 1365 1366 1367
f 1369 1370 1371
f 1372 1361 1373
f 1374 1375 1376
f 1382 1383 1384
f 1368 1388 1389
f 1388 1390 1389
f 1475 995 1359
f 1365 1367 1392
f 1393 1365 1392
f 1417 1395 1396
f 1395 1397 1396
f 1398 1399 1400
f 1402 1403 1404
f 1386 1402 1404
f 1407 1408 1409
f 995 1204 1357
f 1358 1379 995
f 1379 1358 1417
f 1360 995 1361
f 1358 1410 1415
f 1393 1477 1428
f 1410 1383 1415
f 1379 1386 1414
f 1393 1418 1365
f 1418 1366 1365
f 1378 995 1360
f 1421 1422 1423
f 1368 1421 1423
f 1359 1379 1413
f 1424 1475 1408
f 995 1475 1361
f 1393 1425 1426
f 1425 1424 1426
f 1359 995 1379
f 1379 1412 1413
f 1412 1368 1413
f 1393 1426 1407
f 1426 1408 1407
f 1375 1416 1398
f 1407 1409 1418
f 1393 1407 1418
f 1364 1449 1427
f 1428 1413 1368
f 1429 1430 1381
f 1440 1419 1431
f 1419 1432 1431
f 1411 1410 995
f 1417 1358 1415
f 1384 1410 1397
f 1417 1415 1382
f 1415 1383 1382
f 1381 1433 1434
f 1358 995 1410
f 1417 1435 1429
f 1435 1430 1429
f 1430 1411 1381
f 1377 1436 1437
f 1429 1381 1434
f 1440 1429 1434
f 1379 1417 1440
f 1433 1411 1377
f 1379 1440 1386
f 1438 1430 1435
f 1417 1396 1435
f 1396 1438 1435
f 1438 1411 1430
f 1440 1394 1437
f 1394 1377 1437
f 1394 1433 1377
f 1439 1364 1427
f 1381 1411 1433
f 1441 1449 1374
f 1416 1449 995
f 1440 1437 1419
f 1437 1436 1419
f 1382 1384 1395
f 1417 1382 1395
f 1384 1397 1395
f 1410 1411 1438
f 1443 1385 1444
f 1396 1397 1438
f 1397 1410 1438
f 1440 1417 1429
f 1383 1410 1384
f 1440 1434 1394
f 1434 1433 1394
f 1377 1411 1436
f 1445 1441 1374
f 1405 1406 1446
f 1406 1447 1446
f 1427 1441 1387
f 1436 1411 1449
f 1374 1416 1375
f 1432 1449 1364
f 1449 1411 995
f 1439 1427 1387
f 1386 1439 1387
f 1449 1416 1374
f 1386 1442 1400
f 1442 1398 1400
f 1386 1376 1442
f 1376 1375 1442
f 1398 1416 1399
f 1405 1401 1450
f 1401 1451 1450
f 1444 1451 1401
f 1432 1364 1431
f 1386 1387 1445
f 1387 1441 1445
f 1436 1449 1432
f 1419 1436 1432
f 1445 1374 1376
f 1386 1445 1376
f 1440 1431 1439
f 1431 1364 1439
f 1442 1375 1398
f 1386 1440 1439
f 995 1378 1416
f 1427 1449 1441
f 1403 1378 1385
f 1386 1400 1452
f 1400 1399 1452
f 1412 1453 1388
f 1453 1454 1388
f 1403 1385 1404
f 1405 1457 1406
f 1457 1458 1406
f 1405 1443 1401
f 1443 1444 1401
f 1379 1414 1405
f 1448 1416 1403
f 1405 1414 1443
f 1455 1448 1456
f 1455 1416 1448
f 1454 1360 1390
f 1444 1378 1451
f 1386 1452 1456
f 1452 1455 1456
f 1416 1378 1403
f 1414 1404 1443
f 1404 1385 1443
f 1451 1378 1460
f 1385 1378 1444
f 1405 1450 1461
f 1450 1460 1461
f 1386 1456 1402
f 1456 1448 1402
f 1414 1386 1404
f 1452 1399 1455
f 1399 1416 1455
f 1402 1448 1403
f 1462 1360 1458
f 1450 1451 1460
f 1460 1420 1461
f 1405 1463 1457
f 1463 1462 1457
f 1460 1378 1420
f 1405 1461 1463
f 1461 1420 1463
f 1379 1405 1412
f 1463 1420 1462
f 1464 1361 1465
f 1420 1378 1462
f 1406 1458 1447
f 1447 1459 1446
f 1453 1459 1454
f 1412 1446 1453
f 1446 1459 1453
f 1458 1360 1447
f 1459 1360 1454
f 1368 1412 1388
f 1412 1405 1446
f 1447 1360 1459
f 1454 1390 1388
f 1378 1360 1462
f 1462 1458 1457
f 1466 1361 1362
f 1422 1361 1467
f 1360 1361 1466
f 1390 1360 1466
f 1389 1390 1466
f 1466 1362 1468
f 1389 1466 1468
f 1368 1389 1468
f 1368 1468 1469
f 1468 1362 1469
f 1465 1361 1422
f 1366 1475 1367
f 1471 1373 1472
f 1472 1380 1473
f 1393 1368 1473
f 1422 1467 1423
f 1368 1471 1473
f 1471 1472 1473
f 1421 1465 1422
f 1470 1467 1372
f 1464 1465 1474
f 1368 1423 1470
f 1423 1467 1470
f 1368 1474 1421
f 1474 1465 1421
f 1373 1475 1472
f 1362 1361 1464
f 1469 1362 1464
f 1467 1361 1372
f 1361 1475 1373
f 1372 1373 1391
f 1368 1469 1474
f 1469 1464 1474
f 1470 1372 1391
f 1368 1470 1391
f 1368 1391 1471
f 1391 1373 1471
f 1472 1475 1380
f 1393 1473 1425
f 1473 1380 1425
f 1409 1475 1366
f 1408 1475 1409
f 1367 1359 1370
f 1475 1359 1367
f 1424 1408 1426
f 1370 1359 1371
f 1428 1368 1393
f 1367 1370 1392
f 1477 1393 1369
f 1380 1475 1424
f 1413 1428 1476
f 1359 1477 1371
f 1359 1413 1476
f 1359 1476 1477
f 1409 1366 1418
f 1369 1371 1477
f 1425 1380 1424
f 1393 1392 1369
f 1392 1370 1369
f 1476 1428 1477

