# https://github.com/mikedh/trimesh
v -0.10021133 0.03526460 0.03552786
v -0.10016126 0.03526460 0.03342747
v -0.09997974 0.03526460 0.03763185
v -0.09651846 0.04489781 0.03689455
v -0.09651846 0.04489781 0.03552786
v -0.09986708 0.03526460 0.03132708
v -0.09610536 0.04594964 0.03552786
v -0.09647465 0.04478237 0.03426187
v -0.09640579 0.04456431 0.03285921
v -0.09648091 0.04268512 0.02800387
v -0.09919109 0.03526460 0.03940135
v -0.09883433 0.03700910 0.03907406
v -0.09664364 0.04311483 0.03901652
v -0.09636824 0.04451300 0.03829721
v -0.09606780 0.04566745 0.03761027
v -0.09509764 0.04787372 0.03763185
v -0.09525413 0.04787372 0.03552786
v -0.09655602 0.04075463 0.02337150
v -0.09643709 0.04047885 0.02197244
v -0.09674379 0.03915765 0.02082155
v -0.09857770 0.03635491 0.02596102
v -0.09950405 0.03526460 0.02922310
v -0.09507887 0.04787372 0.03342747
v -0.09606154 0.04560331 0.03350660
v -0.09566096 0.04577648 0.03132708
v -0.09598643 0.04350606 0.02723061
v -0.09750114 0.03526460 0.04024654
v -0.09587377 0.03947191 0.04062778
v -0.09531045 0.04167178 0.04046233
v -0.09693782 0.04157557 0.03934381
v -0.09464698 0.04787372 0.03911722
v -0.09439662 0.04900893 0.03877555
v -0.09447173 0.04914361 0.03763185
v -0.09454684 0.04931678 0.03552786
v -0.09398352 0.05025316 0.03342747
v -0.09447799 0.04920133 0.03342747
v -0.09631817 0.04020306 0.02082155
v -0.09437785 0.04898969 0.03222622
v -0.09385208 0.04980421 0.03144217
v -0.09409619 0.04838681 0.02922310
v -0.09444670 0.04702071 0.02769456
v -0.09510390 0.04367281 0.02291834
v -0.09436533 0.04475671 0.02180700
v -0.09380827 0.04558407 0.02099418
v -0.09422763 0.04445528 0.02040794
v -0.09567974 0.04157557 0.02082155
v -0.09658731 0.03874076 0.01938292
v -0.09731963 0.03736826 0.02082155
v -0.09844626 0.03598292 0.02456196
v -0.09907843 0.03526460 0.02680981
v -0.09540434 0.03526460 0.04038321
v -0.09477843 0.03814430 0.04086874
v -0.09482224 0.03947191 0.04088313
v -0.09455310 0.04103683 0.04082918
v -0.09426518 0.04244141 0.04076804
v -0.09397726 0.04367281 0.04070690
v -0.09326372 0.04593681 0.04059900
v -0.09330128 0.04787372 0.04010987
v -0.09507887 0.04577648 0.03950925
v -0.09330128 0.04981704 0.03938696
v -0.09260026 0.05163850 0.03913161
v -0.09219967 0.05304307 0.03825765
v -0.09388338 0.05019544 0.03763185
v -0.08820011 0.05970680 0.03885827
v -0.09400856 0.05036861 0.03552786
v -0.09300084 0.05208104 0.03342747
v -0.09265033 0.05216441 0.03151770
v -0.09254393 0.05158078 0.02922310
v -0.09451555 0.04296732 0.01872116
v -0.09514146 0.04157557 0.01872116
v -0.09237493 0.05127292 0.02753991
v -0.09333883 0.04997738 0.02922310
v -0.09263156 0.04972084 0.02501872
v -0.09176154 0.04982345 0.02089707
v -0.09008410 0.05299818 0.02009864
v -0.09215586 0.04872673 0.02024969
v -0.09319488 0.04577648 0.01872116
v -0.09402107 0.04401915 0.01872116
v -0.09042209 0.05161284 0.01872116
v -0.09644335 0.03526460 0.01451678
v -0.09692530 0.03526460 0.01611725
v -0.09703797 0.03526460 0.01654164
v -0.09753870 0.03526460 0.01869958
v -0.09436533 0.04265306 0.01763500
v -0.09833986 0.03527743 0.02275290
v -0.09797057 0.03526460 0.02082155
v -0.09877800 0.03527743 0.02516618
v -0.09833986 0.03526460 0.02274930
v -0.09330128 0.03526460 0.03982934
v -0.09404611 0.03814430 0.04086874
v -0.09333258 0.03945909 0.04094068
v -0.09345776 0.04167178 0.04095866
v -0.09293200 0.04367281 0.04091550
v -0.09254393 0.04534035 0.04083997
v -0.09220594 0.04674493 0.04077523
v -0.09191176 0.04787372 0.04072488
v -0.09116693 0.05010565 0.04058102
v -0.08902005 0.05423601 0.04046233
v -0.09082268 0.05418469 0.03935460
v -0.08997144 0.05705157 0.03763185
v -0.09058483 0.05599974 0.03763185
v -0.09273796 0.05224138 0.03758509
v -0.08854436 0.05846897 0.03914599
v -0.08850681 0.05846897 0.03917117
v -0.08703592 0.06043795 0.03932223
v -0.08109603 0.06679382 0.04037961
v -0.08635994 0.06195155 0.03902371
v -0.08192849 0.06812784 0.03890502
v -0.08762427 0.06089973 0.03762825
v -0.08830025 0.05985431 0.03762825
v -0.08912020 0.05846256 0.03770378
v -0.09304466 0.05208104 0.03552786
v -0.09231860 0.05323548 0.03342747
v -0.09225601 0.05313928 0.03234851
v -0.09213083 0.05292122 0.03094945
v -0.09022180 0.05326114 0.02149410
v -0.09230608 0.04695016 0.01745517
v -0.09036576 0.04938092 0.01451678
v -0.08991510 0.05266467 0.01872116
v -0.08962093 0.05405001 0.02080716
v -0.08848177 0.05591637 0.02082155
v -0.08883228 0.05438352 0.01852694
v -0.09024684 0.05124086 0.01730052
v -0.09574233 0.03526460 0.01258903
v -0.09019051 0.04902175 0.01335510
v -0.09204320 0.04015817 0.04090830
v -0.09197435 0.03526460 0.03897336
v -0.03627458 0.09285865 0.03911003
v -0.03627458 0.09409647 0.03984013
v -0.03627458 0.09439791 0.03996241
v -0.09163010 0.04157557 0.04096945
v -0.08699836 0.05208104 0.04101980
v -0.09137973 0.04593681 0.04096945
v -0.09086023 0.04787372 0.04091190
v -0.09007784 0.05089452 0.04076804
v -0.08973985 0.05208104 0.04069251
v -0.08789967 0.05497356 0.04075365
v -0.08749909 0.05628194 0.04058821
v -0.08685440 0.05827015 0.04023935
v -0.08920783 0.05633966 0.03954881
v -0.08856314 0.05838560 0.03916757
v -0.09233738 0.05327396 0.03552786
v -0.08912646 0.05846897 0.03762825
v -0.09228104 0.05318417 0.03685499
v -0.07963766 0.06785206 0.04078243
v -0.07898671 0.06925022 0.04042637
v -0.08053897 0.06868582 0.03966390
v -0.08002572 0.07035977 0.03902371
v -0.08129006 0.06936566 0.03762825
v -0.08826270 0.05977093 0.03552786
v -0.08912020 0.05846256 0.03563935
v -0.08316779 0.06692209 0.03552786
v -0.08483897 0.06469657 0.03342747
v -0.08577784 0.06338819 0.03342747
v -0.08999647 0.05709646 0.03552786
v -0.09064742 0.05604463 0.03552786
v -0.08571525 0.06327276 0.03132349
v -0.08823766 0.05765444 0.02501872
v -0.09107304 0.05418469 0.02922310
v -0.09055353 0.05380629 0.02501872
v -0.08597813 0.06158598 0.02593585
v -0.08810623 0.05846897 0.02711911
v -0.08759924 0.05870628 0.02501872
v -0.09035324 0.05349203 0.02291834
v -0.08973359 0.05453744 0.02291834
v -0.09060987 0.05007358 0.01660638
v -0.09005906 0.05083680 0.01590146
v -0.08985877 0.05043274 0.01451678
v -0.08965222 0.05199766 0.01660638
v -0.08854436 0.05387684 0.01661717
v -0.08798104 0.05723756 0.02220622
v -0.08826270 0.05554437 0.01909520
v -0.08803737 0.05522370 0.01769254
v -0.09454058 0.03668841 0.01094540
v -0.09422137 0.03591237 0.00954634
v -0.09474087 0.03526460 0.01023688
v -0.08836911 0.05152306 0.01241640
v -0.08939560 0.04982987 0.01256026
v -0.08986503 0.04839963 0.01195604
v -0.09022806 0.04700147 0.01122953
v -0.09042209 0.04777110 0.01256026
v -0.03865930 0.09410930 0.04037961
v -0.09108556 0.03526460 0.03763185
v -0.03627458 0.09174910 0.03767860
v -0.03627458 0.09621296 0.04023215
v -0.04287168 0.09200564 0.04054146
v -0.05264840 0.08513669 0.04076445
v -0.05405044 0.08425161 0.04080041
v -0.06387723 0.07940294 0.04105217
v -0.06598029 0.07729928 0.04106655
v -0.06808335 0.07729928 0.04113129
v -0.08489530 0.05628194 0.04101980
v -0.07228321 0.07309838 0.04110971
v -0.07438001 0.07099472 0.04109892
v -0.08711729 0.05423601 0.04096585
v -0.08926416 0.05010565 0.04096585
v -0.08868832 0.05208104 0.04090111
v -0.08644756 0.05628194 0.04089392
v -0.08605324 0.05749410 0.04082559
v -0.08004450 0.06679382 0.04089032
v -0.07841087 0.06868582 0.04088313
v -0.07758467 0.06999420 0.04080760
v -0.07553169 0.07214917 0.04082918
v -0.07347870 0.07429130 0.04085076
v -0.07141319 0.07642062 0.04087234
v -0.07488073 0.07355374 0.04041198
v -0.07281523 0.07569588 0.04039400
v -0.06931639 0.07852427 0.04088313
v -0.07793518 0.07243778 0.03902011
v -0.07923708 0.07165532 0.03762825
v -0.08023853 0.07060349 0.03762825
v -0.08023227 0.07062273 0.03552786
v -0.08128380 0.06936566 0.03552786
v -0.08211626 0.06832025 0.03552786
v -0.08916401 0.05838560 0.03552786
v -0.08395018 0.06588308 0.03342747
v -0.08389385 0.06581253 0.03207876
v -0.08453227 0.06485049 0.03135585
v -0.08425061 0.06419631 0.02711911
v -0.08811248 0.05744280 0.02360168
v -0.08992136 0.05485812 0.02501872
v -0.08859443 0.05643586 0.02291114
v -0.08405032 0.06393335 0.02501872
v -0.08391262 0.06374736 0.02370239
v -0.08579035 0.06132943 0.02453679
v -0.08877595 0.05222855 0.01440889
v -0.08783708 0.05492867 0.01661717
v -0.08825644 0.05343431 0.01503828
v -0.08778075 0.05696819 0.02082155
v -0.08372485 0.06344592 0.02230692
v -0.07973780 0.06587667 0.01532601
v -0.09223723 0.04049809 0.00929099
v -0.09252515 0.03909351 0.00866159
v -0.09246882 0.03893959 0.00840264
v -0.09304466 0.03747729 0.00840264
v -0.09389590 0.03529667 0.00840264
v -0.09390215 0.03526460 0.00840264
v -0.08798104 0.05303666 0.01363563
v -0.08772442 0.05257488 0.01241640
v -0.08628483 0.05363954 0.01086988
v -0.08807492 0.05108693 0.01131585
v -0.09050972 0.04330724 0.00872273
v -0.09202442 0.03989521 0.00840264
v -0.08458861 0.05428089 0.00840264
v -0.08572776 0.05212593 0.00840264
v -0.03865930 0.09621296 0.04036163
v -0.04076236 0.09410930 0.04048032
v -0.09030943 0.03526460 0.03620042
v -0.03627458 0.09023549 0.03540198
v -0.03627458 0.09649516 0.04019259
v -0.05212889 0.08715697 0.04078962
v -0.05212889 0.08653485 0.04078962
v -0.06178043 0.08150018 0.04100541
v -0.05758057 0.08359743 0.04091190
v -0.06598029 0.07940294 0.04106655
v -0.06792062 0.07929391 0.04094427
v -0.07008001 0.07719025 0.04097664
v -0.07648307 0.06889106 0.04106655
v -0.07858612 0.06679382 0.04102699
v -0.07217680 0.07507376 0.04095866
v -0.08485775 0.05827015 0.04095866
v -0.07426109 0.07294445 0.04093348
v -0.06711319 0.08051890 0.04082199
v -0.06850897 0.07992244 0.04030409
v -0.07004871 0.07928108 0.03962793
v -0.07071843 0.07781878 0.04035084
v -0.07580709 0.07450295 0.03901292
v -0.07285279 0.07788933 0.03762825
v -0.07818554 0.07268791 0.03762825
v -0.07928089 0.07166814 0.03552786
v -0.07402324 0.07692729 0.03552786
v -0.07612630 0.07484287 0.03552786
v -0.07822936 0.07273921 0.03552786
v -0.07926837 0.07164249 0.03342747
v -0.08016968 0.07059066 0.03342747
v -0.08122121 0.06929511 0.03342747
v -0.08376866 0.06565219 0.03067611
v -0.08004450 0.07044315 0.03132349
v -0.08109603 0.06913477 0.03132349
v -0.08344319 0.06524814 0.02711911
v -0.08324290 0.06498518 0.02501872
v -0.08195352 0.06599853 0.02291834
v -0.08179705 0.06581253 0.02168472
v -0.08609705 0.05545459 0.01308176
v -0.08158424 0.06554316 0.02028566
v -0.07996313 0.06612039 0.01662077
v -0.07751582 0.06781999 0.01354212
v -0.07988802 0.06181046 0.00875510
v -0.08177827 0.05949515 0.00920108
v -0.08530840 0.05620497 0.01239482
v -0.07968773 0.05846897 0.00439248
v -0.08184712 0.03526460 0.00840264
v -0.08582165 0.05504412 0.01167910
v -0.08393766 0.05540328 0.00840264
v -0.09040332 0.04310201 0.00840264
v -0.03627458 0.09831020 0.03982574
v -0.04076236 0.09621296 0.04036163
v -0.04287168 0.09410930 0.04051268
v -0.04496848 0.09200564 0.04058821
v -0.08980870 0.03526460 0.03515022
v -0.03627458 0.08938890 0.03342747
v -0.08907638 0.03526460 0.03342387
v -0.05337445 0.08724035 0.04080041
v -0.05547751 0.08570109 0.04085436
v -0.04917460 0.08990840 0.04068892
v -0.05968363 0.08359743 0.04093708
v -0.05676689 0.08687477 0.04080041
v -0.06164899 0.08358460 0.04088313
v -0.06337025 0.08287911 0.04085436
v -0.06598029 0.08094220 0.04089752
v -0.06477229 0.08244298 0.04075006
v -0.06135482 0.08718262 0.03917477
v -0.06387723 0.08518158 0.03917117
v -0.06583007 0.08349481 0.03922152
v -0.06723211 0.08272517 0.03884029
v -0.07152586 0.07863330 0.03895178
v -0.07366647 0.07656813 0.03899494
v -0.06937899 0.08068566 0.03890502
v -0.06966065 0.08096786 0.03762825
v -0.07071217 0.07995451 0.03762825
v -0.07189514 0.07899888 0.03552786
v -0.07294668 0.07797912 0.03552786
v -0.07821684 0.07271356 0.03342747
v -0.07914945 0.07149498 0.03132349
v -0.07809792 0.07260453 0.03132349
v -0.08167813 0.06776868 0.02850738
v -0.07982543 0.07016095 0.02922310
v -0.08219137 0.06628714 0.02501872
v -0.08153416 0.06760193 0.02711911
v -0.08129632 0.06733897 0.02501872
v -0.07530009 0.07398987 0.02452240
v -0.07571945 0.07236081 0.02082155
v -0.07551916 0.07213634 0.01950521
v -0.07799777 0.06835873 0.01662077
v -0.07904304 0.06717222 0.01662077
v -0.07403576 0.07494549 0.02291834
v -0.07508103 0.06955166 0.01204595
v -0.07720913 0.06747366 0.01241640
v -0.07952499 0.06137433 0.00735604
v -0.07529384 0.07189262 0.01810615
v -0.07372280 0.07458633 0.02082155
v -0.07348496 0.07430413 0.01935775
v -0.07322834 0.07403476 0.01795869
v -0.07154464 0.07447730 0.01451678
v -0.07337855 0.07209144 0.01338027
v -0.07422979 0.07082796 0.01271131
v -0.07960010 0.05938612 0.00513337
v -0.08332427 0.05637814 0.00840264
v -0.07941859 0.05891792 0.00439248
v -0.06227490 0.05846897 0.00439248
v -0.08753665 0.03526460 0.02938854
v -0.03627458 0.07809457 0.00439248
v -0.03627458 0.09860523 0.03972504
v -0.03627458 0.10001622 0.03911722
v -0.04076236 0.09801518 0.03946968
v -0.04496848 0.09410930 0.04043716
v -0.05127140 0.08990840 0.04067093
v -0.04707154 0.09200564 0.04059541
v -0.05547751 0.08702228 0.04080760
v -0.08823141 0.03526460 0.03135945
v -0.05751172 0.08574598 0.04085076
v -0.04917460 0.09200564 0.04048751
v -0.05547751 0.08807411 0.04068532
v -0.05816893 0.08647713 0.04074646
v -0.06086034 0.08473263 0.04080041
v -0.06226238 0.08428368 0.04066374
v -0.05966486 0.08784964 0.03957758
v -0.06502265 0.08471980 0.03875397
v -0.05895132 0.08907464 0.03901292
v -0.06751377 0.08298814 0.03762825
v -0.06855904 0.08201968 0.03762825
v -0.06976079 0.08105764 0.03552786
v -0.07500592 0.07583698 0.03342747
v -0.07714027 0.07376539 0.03342747
v -0.07702761 0.07365636 0.03132349
v -0.07327841 0.07618973 0.02431380
v -0.07546910 0.07418868 0.02592146
v -0.07766604 0.07218765 0.02765860
v -0.07890534 0.07121278 0.02922310
v -0.07581335 0.07450937 0.02922310
v -0.07968147 0.06999420 0.02798948
v -0.07309689 0.07599090 0.02291834
v -0.07107520 0.06975048 0.00556496
v -0.07300301 0.07170662 0.01197762
v -0.06912236 0.07414379 0.00926941
v -0.06897840 0.07191186 0.00540311
v -0.07770359 0.06173991 0.00481687
v -0.07923081 0.06059828 0.00594619
v -0.07275264 0.07563175 0.02082155
v -0.07232076 0.07524052 0.01860966
v -0.07130679 0.07423358 0.01331553
v -0.07115657 0.07617690 0.01786518
v -0.07093124 0.07593318 0.01662077
v -0.07054318 0.07552272 0.01451678
v -0.07796021 0.06098951 0.00439248
v -0.08793723 0.03526460 0.03055382
v -0.03627458 0.09223012 0.00439248
v -0.03627458 0.10015732 0.03885827
v -0.03822742 0.09961216 0.03892301
v -0.03656250 0.09993926 0.03911003
v -0.04250239 0.09759830 0.03915679
v -0.04496848 0.09593718 0.03949486
v -0.05337445 0.08990840 0.04051628
v -0.05968363 0.08607949 0.04060260
v -0.05758057 0.08953641 0.03938337
v -0.06275059 0.08668878 0.03809580
v -0.06525424 0.08488014 0.03762825
v -0.06630576 0.08404638 0.03762825
v -0.05510823 0.09130015 0.03915679
v -0.05651027 0.09094740 0.03847344
v -0.06644346 0.08414258 0.03552786
v -0.06761392 0.08309075 0.03552786
v -0.06865919 0.08210947 0.03552786
v -0.07395439 0.07683750 0.03342747
v -0.07597608 0.07465688 0.03132349
v -0.07339107 0.07630517 0.02571646
v -0.07226443 0.07728004 0.02515180
v -0.07111275 0.07824849 0.02458354
v -0.07204537 0.07701708 0.02291834
v -0.07170111 0.07670282 0.02082155
v -0.06967942 0.07050087 0.00439248
v -0.06924129 0.07636290 0.01326518
v -0.07092499 0.07382953 0.01191647
v -0.06855278 0.07523410 0.01010741
v -0.06705686 0.07627310 0.00922985
v -0.06758888 0.07252757 0.00445003
v -0.06590518 0.07677978 0.00840264
v -0.06515409 0.07644627 0.00689928
v -0.07752834 0.06154108 0.00439248
v -0.07141945 0.07643344 0.01926424
v -0.06949165 0.07661944 0.01451678
v -0.03666265 0.09208261 0.00439248
v -0.03627458 0.09285865 0.00546066
v -0.03627458 0.10071530 0.03762825
v -0.03962320 0.09932997 0.03811378
v -0.04389817 0.09725196 0.03860291
v -0.04810429 0.09515472 0.03863169
v -0.04670225 0.09550105 0.03915679
v -0.05337445 0.09173627 0.03949486
v -0.05567780 0.09010722 0.03972864
v -0.05751172 0.08766364 0.04048391
v -0.06194943 0.08731090 0.03748798
v -0.06284448 0.08676574 0.03669674
v -0.06539820 0.08501483 0.03552786
v -0.05231041 0.09305106 0.03863169
v -0.05662919 0.09102437 0.03552786
v -0.05739280 0.09039583 0.03771457
v -0.05915786 0.08920932 0.03762825
v -0.06020940 0.08849100 0.03762825
v -0.05329935 0.09269190 0.03781167
v -0.05279236 0.09330119 0.03552786
v -0.05384389 0.09274962 0.03552786
v -0.05547751 0.09176834 0.03552786
v -0.06527301 0.08495711 0.03342747
v -0.06632454 0.08399507 0.03342747
v -0.07124420 0.07836393 0.02598620
v -0.07238336 0.07745320 0.02711911
v -0.07269005 0.07774823 0.03132349
v -0.07486196 0.07570871 0.03132349
v -0.07284653 0.07788933 0.03342747
v -0.07470548 0.07556120 0.02922310
v -0.06715700 0.08266104 0.02970144
v -0.06905351 0.08039063 0.02641778
v -0.07088743 0.07806249 0.02291834
v -0.07054318 0.07775464 0.02082155
v -0.06876559 0.07803043 0.01662077
v -0.06839631 0.07767126 0.01451678
v -0.06755759 0.07250191 0.00439248
v -0.06711319 0.07841524 0.01332273
v -0.06798321 0.07721590 0.01259263
v -0.06736355 0.07657454 0.01031601
v -0.06670635 0.07806249 0.01192367
v -0.06599281 0.07774823 0.01015057
v -0.06488495 0.07830621 0.00934134
v -0.06532934 0.07449013 0.00439248
v -0.06096675 0.07855635 0.00477731
v -0.06137985 0.07792140 0.00439248
v -0.03656250 0.09280093 0.00557215
v -0.03823994 0.09137711 0.00439248
v -0.03770792 0.09310237 0.00708270
v -0.03627458 0.09323064 0.00624471
v -0.03627458 0.10078585 0.03552786
v -0.03656250 0.10068964 0.03552786
v -0.03656250 0.10060627 0.03762825
v -0.03882204 0.09970837 0.03749877
v -0.03973587 0.09937486 0.03671112
v -0.04056833 0.09893874 0.03749877
v -0.04406717 0.09732892 0.03720026
v -0.04306571 0.09773939 0.03779369
v -0.04834214 0.09527016 0.03722903
v -0.05147795 0.09360904 0.03781167
v -0.06289456 0.08679781 0.03552786
v -0.06394608 0.08606666 0.03552786
v -0.06178043 0.08755461 0.03552786
v -0.06290081 0.08680422 0.03342747
v -0.06395234 0.08600894 0.03342747
v -0.05662293 0.09101795 0.03392739
v -0.05924550 0.08926704 0.03552786
v -0.05254200 0.09316650 0.03723262
v -0.05127140 0.09405158 0.03552786
v -0.05282366 0.09332685 0.03342747
v -0.05387518 0.09273679 0.03342747
v -0.06507272 0.08478394 0.03132349
v -0.06729470 0.08278931 0.03132349
v -0.06285074 0.08676574 0.03229815
v -0.06700678 0.08252636 0.02830238
v -0.06885948 0.08023029 0.02501872
v -0.06984216 0.07892833 0.02291834
v -0.06949165 0.07864613 0.02082155
v -0.06900970 0.07824849 0.01801264
v -0.06735103 0.07861407 0.01451678
v -0.06512279 0.08060228 0.01512101
v -0.06482236 0.08035856 0.01371835
v -0.06109193 0.08282779 0.01241640
v -0.06081653 0.08261614 0.01125471
v -0.06306355 0.08064076 0.01097777
v -0.06530431 0.07865896 0.01074400
v -0.06397112 0.07947990 0.01016136
v -0.06261915 0.08028801 0.00957512
v -0.06079775 0.07841524 0.00439248
v -0.05870721 0.08049966 0.00498232
v -0.05932060 0.07960176 0.00439248
v -0.03865930 0.09127449 0.00454354
v -0.04580720 0.09087044 0.00950319
v -0.03865930 0.09118471 0.00439248
v -0.03991738 0.09314085 0.00907520
v -0.03850908 0.09335891 0.00830913
v -0.03627458 0.09411572 0.00820483
v -0.03910996 0.09280093 0.00767254
v -0.03627458 0.10077302 0.03520057
v -0.03656250 0.10060627 0.03342747
v -0.03865930 0.09985588 0.03552786
v -0.03973587 0.09937486 0.03438775
v -0.04287168 0.09796387 0.03552786
v -0.04520633 0.09689280 0.03552786
v -0.04707154 0.09603338 0.03552786
v -0.04852991 0.09535354 0.03552786
v -0.05567155 0.09157593 0.03330519
v -0.05127140 0.09408365 0.03342747
v -0.05253573 0.09317292 0.03132349
v -0.05127140 0.09382069 0.03132349
v -0.05358727 0.09256362 0.03132349
v -0.05528974 0.09151180 0.03132349
v -0.05650401 0.09094099 0.03252474
v -0.06494754 0.08466208 0.03022654
v -0.06368320 0.08593839 0.03148893
v -0.06188684 0.08725317 0.03148893
v -0.06085409 0.08684270 0.02563733
v -0.06265671 0.08663106 0.03089909
v -0.06474099 0.08449533 0.02882388
v -0.06724463 0.08061511 0.02126032
v -0.06192439 0.08536117 0.02294711
v -0.06270678 0.08455947 0.02227096
v -0.06144244 0.08522648 0.02082155
v -0.06822105 0.07910150 0.01871756
v -0.06772658 0.07891550 0.01662077
v -0.06539820 0.08082675 0.01662077
v -0.06109193 0.08494428 0.01872116
v -0.06084157 0.08473904 0.01741201
v -0.06181173 0.08306510 0.01472538
v -0.06253153 0.08230829 0.01416432
v -0.06052861 0.08450174 0.01601295
v -0.05883865 0.08691325 0.01931099
v -0.05849440 0.08666312 0.01791193
v -0.05876981 0.08474546 0.01322202
v -0.05834419 0.08447609 0.01182296
v -0.05251070 0.08686195 0.00907879
v -0.05687329 0.08277649 0.00676980
v -0.05827533 0.08232112 0.00763657
v -0.05774331 0.08071772 0.00439248
v -0.05839426 0.08028801 0.00439248
v -0.05757431 0.08191065 0.00608646
v -0.05622235 0.08235960 0.00536715
v -0.05571536 0.08203892 0.00439248
v -0.04859250 0.08913877 0.00889537
v -0.04708406 0.09056259 0.01024767
v -0.04638930 0.09112698 0.01090584
v -0.04397954 0.09308954 0.01338387
v -0.04156979 0.09505210 0.01587628
v -0.03774547 0.09731609 0.01752350
v -0.03876571 0.09569988 0.01442327
v -0.04275276 0.09249949 0.01042750
v -0.04131942 0.09285224 0.00979810
v -0.04039307 0.09033811 0.00439248
v -0.03865930 0.09414778 0.01031601
v -0.03744504 0.09510341 0.01151006
v -0.03627458 0.09483404 0.00988442
v -0.03627458 0.10068964 0.03311817
v -0.03627458 0.10054855 0.03132349
v -0.03656250 0.10043952 0.03132349
v -0.03880326 0.09971478 0.03358212
v -0.03959191 0.09931072 0.03298869
v -0.04851113 0.09534071 0.03342747
v -0.04933108 0.09475707 0.03132349
v -0.05234171 0.09307030 0.03021215
v -0.04773500 0.09496231 0.02711911
v -0.04738449 0.09476349 0.02501872
v -0.04797911 0.09509058 0.02877353
v -0.05210386 0.09293562 0.02880949
v -0.05256078 0.09110133 0.02082155
v -0.05347460 0.09141560 0.02515539
v -0.05465757 0.09110133 0.02711911
v -0.05498930 0.09130656 0.02922310
v -0.05604084 0.09064597 0.02922310
v -0.05634753 0.09083196 0.03132349
v -0.05758057 0.09003026 0.03132349
v -0.06397112 0.08525214 0.02940293
v -0.05858829 0.08883092 0.02832396
v -0.05812512 0.08852948 0.02501872
v -0.05968363 0.08789453 0.02711911
v -0.05909528 0.08708642 0.02082155
v -0.06064754 0.08669519 0.02423827
v -0.05984011 0.08738786 0.02496837
v -0.06241260 0.08644506 0.02922310
v -0.06343284 0.08514310 0.02711911
v -0.06575496 0.08112819 0.01872116
v -0.06214346 0.08409127 0.01872116
v -0.06164899 0.08606666 0.02496837
v -0.06014054 0.08627831 0.02082155
v -0.05739280 0.08820880 0.02095822
v -0.05633501 0.08873472 0.02035040
v -0.05208508 0.09081271 0.01826799
v -0.05598450 0.08851665 0.01872116
v -0.05771202 0.08741351 0.01865642
v -0.05459498 0.08896560 0.01737964
v -0.05812512 0.08643223 0.01662077
v -0.05746791 0.08608590 0.01456714
v -0.05625990 0.08659258 0.01389818
v -0.05486413 0.08702228 0.01280842
v -0.05440095 0.08673367 0.01140576
v -0.04999454 0.08870906 0.00961108
v -0.05467635 0.08269952 0.00439248
v -0.04924345 0.08944021 0.01031241
v -0.04494344 0.08805487 0.00439248
v -0.04911827 0.08591915 0.00439248
v -0.05082700 0.08500200 0.00439248
v -0.05089585 0.08496352 0.00439248
v -0.05178464 0.08444402 0.00439248
v -0.05024490 0.09096664 0.01554180
v -0.04778507 0.09079989 0.01180498
v -0.04708406 0.09135787 0.01247034
v -0.04441768 0.09328836 0.01451678
v -0.04211433 0.09529581 0.01727534
v -0.03927269 0.09707238 0.01872116
v -0.03822116 0.09753416 0.01872116
v -0.03707575 0.09704673 0.01612444
v -0.03656250 0.09817552 0.01872116
v -0.03644984 0.09753416 0.01674305
v -0.03812728 0.09537278 0.01291272
v -0.03627458 0.09748927 0.01644454
v -0.03627458 0.09684791 0.01480810
v -0.03627458 0.09670681 0.01445205
v -0.03627458 0.09586021 0.01232289
v -0.03627458 0.10052290 0.03107892
v -0.03656250 0.10017656 0.02922310
v -0.04200166 0.09734175 0.02501872
v -0.04228958 0.09747644 0.02711911
v -0.03938536 0.09922734 0.03132349
v -0.04076236 0.09861806 0.03132349
v -0.04394825 0.09727762 0.03222982
v -0.04827955 0.09523168 0.03132349
v -0.04814184 0.09517396 0.03017619
v -0.04496848 0.09599490 0.02501872
v -0.04633297 0.09532147 0.02501872
v -0.04610138 0.09520602 0.02373475
v -0.04963777 0.09274321 0.02082155
v -0.04895553 0.09351284 0.02291834
v -0.04496848 0.09627069 0.02711911
v -0.04305319 0.09688639 0.02501872
v -0.05127140 0.09183248 0.02082155
v -0.05236674 0.09097947 0.01967065
v -0.05557140 0.08931835 0.02095822
v -0.05423195 0.09084478 0.02454758
v -0.05675437 0.08899767 0.02291834
v -0.05707358 0.08920290 0.02501872
v -0.05780590 0.08833707 0.02291834
v -0.05134025 0.09138352 0.01886862
v -0.05058290 0.09115905 0.01662077
v -0.05163443 0.09053052 0.01662077
v -0.05418188 0.08870264 0.01597699
v -0.05537111 0.08820238 0.01665314
v -0.05343705 0.08942097 0.01665314
v -0.05092089 0.08928628 0.01241640
v -0.05045771 0.08899767 0.01101014
v -0.04917460 0.09184530 0.01662077
v -0.04831084 0.09105002 0.01320404
v -0.04712161 0.09274321 0.01648770
v -0.03969831 0.09725838 0.01980372
v -0.04645815 0.09325629 0.01710271
v -0.03656250 0.09870785 0.02082155
v -0.03627458 0.09827814 0.01872835
v -0.03627458 0.09818194 0.01843343
v -0.03886585 0.09779712 0.02063093
v -0.03627458 0.09759188 0.01673226
v -0.03627458 0.09753416 0.01656682
v -0.03627458 0.10029201 0.02924468
v -0.03627458 0.10024711 0.02893537
v -0.04182641 0.09727121 0.02392897
v -0.04266513 0.09675811 0.02310536
v -0.04507489 0.09559085 0.02298667
v -0.04584475 0.09507134 0.02233929
v -0.04858624 0.09330760 0.02082155
v -0.04831084 0.09316009 0.01945845
v -0.04785393 0.09293562 0.01805579
v -0.04287168 0.09611034 0.02082155
v -0.04080618 0.09698900 0.02063093
v -0.04013019 0.09742513 0.02120278
v -0.03627458 0.09943900 0.02422748
v -0.03627458 0.09921452 0.02300106
v -0.03627458 0.09880405 0.02082155
v -0.03627458 0.09873992 0.02055180
v -0.04153223 0.09714935 0.02253710
v -0.03627458 0.09994567 0.02714429
v -0.04438638 0.09539202 0.02082155
v -0.03627458 0.09958009 0.02501872
v -0.03627458 0.09966989 0.02554023
f 1 2 6
f 1 6 22
f 1 22 50
f 1 50 88
f 1 88 86
f 1 86 83
f 1 83 82
f 1 82 81
f 1 81 80
f 1 80 124
f 1 124 176
f 1 176 237
f 1 237 292
f 1 292 351
f 1 351 396
f 1 396 360
f 1 360 302
f 1 302 300
f 1 300 248
f 1 248 183
f 1 183 127
f 1 127 89
f 1 89 51
f 1 51 27
f 1 27 11
f 1 11 3
f 1 3 4
f 1 4 5
f 1 5 2
f 2 5 7
f 2 7 8
f 2 8 9
f 2 9 10
f 2 10 6
f 3 11 12
f 3 12 13
f 3 13 14
f 3 14 4
f 4 14 15
f 4 15 16
f 4 16 17
f 4 17 7
f 4 7 5
f 6 10 18
f 6 18 19
f 6 19 20
f 6 20 21
f 6 21 22
f 7 17 23
f 7 23 24
f 7 24 8
f 8 24 9
f 9 24 10
f 10 24 25
f 10 25 26
f 10 26 18
f 11 27 28
f 11 28 29
f 11 29 30
f 11 30 12
f 12 30 13
f 13 30 31
f 13 31 32
f 13 32 14
f 14 32 15
f 15 32 16
f 16 32 33
f 16 33 34
f 16 34 17
f 17 34 35
f 17 35 36
f 17 36 23
f 18 26 19
f 19 37 20
f 19 26 38
f 19 38 39
f 19 39 40
f 19 40 41
f 19 41 42
f 19 42 43
f 19 43 44
f 19 44 45
f 19 45 46
f 19 46 37
f 20 37 47
f 20 47 48
f 20 48 49
f 20 49 21
f 21 49 50
f 21 50 22
f 23 26 25
f 23 25 24
f 23 36 38
f 23 38 26
f 27 51 52
f 27 52 53
f 27 53 28
f 28 53 54
f 28 54 55
f 28 55 56
f 28 56 29
f 29 56 57
f 29 57 58
f 29 58 59
f 29 59 30
f 30 59 31
f 31 59 58
f 31 58 60
f 31 60 61
f 31 61 32
f 32 62 63
f 32 63 33
f 32 61 64
f 32 64 62
f 33 63 65
f 33 65 34
f 34 65 35
f 35 39 38
f 35 38 36
f 35 65 66
f 35 66 67
f 35 67 68
f 35 68 39
f 37 46 69
f 37 69 70
f 37 70 47
f 39 68 71
f 39 71 72
f 39 72 40
f 40 42 41
f 40 72 42
f 42 72 73
f 42 73 43
f 43 73 44
f 44 73 74
f 44 74 75
f 44 75 76
f 44 76 45
f 45 77 78
f 45 78 69
f 45 69 46
f 45 76 79
f 45 79 77
f 47 80 81
f 47 81 82
f 47 82 83
f 47 83 48
f 47 70 84
f 47 84 80
f 48 85 49
f 48 83 86
f 48 86 85
f 49 85 87
f 49 87 50
f 50 87 85
f 50 85 88
f 51 89 90
f 51 90 52
f 52 90 91
f 52 91 53
f 53 91 92
f 53 92 54
f 54 92 93
f 54 93 55
f 55 93 94
f 55 94 95
f 55 95 56
f 56 95 96
f 56 96 57
f 57 96 97
f 57 97 58
f 58 97 98
f 58 98 99
f 58 99 60
f 60 99 61
f 61 99 64
f 62 100 101
f 62 101 102
f 62 102 63
f 62 64 100
f 63 102 65
f 64 103 104
f 64 104 105
f 64 105 106
f 64 106 107
f 64 107 108
f 64 108 109
f 64 109 110
f 64 110 111
f 64 111 100
f 64 99 103
f 65 102 112
f 65 112 66
f 66 112 113
f 66 113 114
f 66 114 67
f 67 114 115
f 67 115 116
f 67 116 68
f 68 116 71
f 69 84 70
f 69 78 117
f 69 117 118
f 69 118 84
f 71 116 75
f 71 75 72
f 72 75 73
f 73 75 74
f 75 119 79
f 75 79 76
f 75 116 120
f 75 120 121
f 75 121 122
f 75 122 119
f 77 117 78
f 77 79 123
f 77 123 117
f 79 119 123
f 80 84 125
f 80 125 124
f 84 118 125
f 85 86 88
f 89 126 90
f 89 127 128
f 89 128 129
f 89 129 130
f 89 130 126
f 90 126 91
f 91 126 131
f 91 131 92
f 92 131 132
f 92 132 133
f 92 133 93
f 93 133 134
f 93 134 94
f 94 134 95
f 95 134 96
f 96 134 135
f 96 135 136
f 96 136 97
f 97 136 137
f 97 137 98
f 98 137 138
f 98 138 139
f 98 139 105
f 98 105 104
f 98 104 140
f 98 140 99
f 99 140 141
f 99 141 103
f 100 142 112
f 100 112 101
f 100 111 110
f 100 110 143
f 100 143 142
f 101 112 144
f 101 144 102
f 102 144 112
f 103 141 104
f 104 141 140
f 105 139 106
f 106 145 146
f 106 146 147
f 106 147 108
f 106 108 107
f 106 139 138
f 106 138 145
f 108 147 148
f 108 148 149
f 108 149 109
f 109 150 151
f 109 151 110
f 109 149 152
f 109 152 153
f 109 153 154
f 109 154 150
f 110 151 155
f 110 155 156
f 110 156 142
f 110 142 143
f 112 142 113
f 113 142 156
f 113 156 155
f 113 155 157
f 113 157 114
f 114 158 159
f 114 159 160
f 114 160 115
f 114 157 161
f 114 161 162
f 114 162 163
f 114 163 158
f 115 160 164
f 115 164 116
f 116 164 165
f 116 165 120
f 117 123 166
f 117 166 118
f 118 166 167
f 118 167 168
f 118 168 125
f 119 169 167
f 119 167 123
f 119 122 170
f 119 170 169
f 120 165 171
f 120 171 121
f 121 172 122
f 121 171 172
f 122 172 173
f 122 173 170
f 123 167 166
f 124 125 174
f 124 174 175
f 124 175 176
f 125 168 177
f 125 177 178
f 125 178 179
f 125 179 180
f 125 180 181
f 125 181 174
f 126 130 182
f 126 182 131
f 127 183 184
f 127 184 128
f 128 184 249
f 128 249 301
f 128 301 352
f 128 352 397
f 128 397 433
f 128 433 481
f 128 481 528
f 128 528 587
f 128 587 653
f 128 653 652
f 128 652 651
f 128 651 650
f 128 650 695
f 128 695 694
f 128 694 692
f 128 692 691
f 128 691 711
f 128 711 710
f 128 710 709
f 128 709 708
f 128 708 715
f 128 715 716
f 128 716 713
f 128 713 697
f 128 697 696
f 128 696 654
f 128 654 589
f 128 589 588
f 128 588 530
f 128 530 482
f 128 482 434
f 128 434 398
f 128 398 354
f 128 354 353
f 128 353 296
f 128 296 250
f 128 250 185
f 128 185 130
f 128 130 129
f 130 185 182
f 131 182 186
f 131 186 187
f 131 187 188
f 131 188 189
f 131 189 190
f 131 190 191
f 131 191 132
f 132 192 133
f 132 191 193
f 132 193 194
f 132 194 192
f 133 192 195
f 133 195 196
f 133 196 134
f 134 196 195
f 134 195 197
f 134 197 135
f 135 197 198
f 135 198 137
f 135 137 136
f 137 198 199
f 137 199 200
f 137 200 138
f 138 200 145
f 145 200 201
f 145 201 202
f 145 202 203
f 145 203 146
f 146 203 204
f 146 204 205
f 146 205 206
f 146 206 148
f 146 148 147
f 148 206 205
f 148 205 207
f 148 207 208
f 148 208 209
f 148 209 210
f 148 210 211
f 148 211 149
f 149 211 212
f 149 212 213
f 149 213 214
f 149 214 152
f 150 215 151
f 150 154 215
f 151 215 155
f 152 214 216
f 152 216 153
f 153 216 217
f 153 217 157
f 153 157 154
f 154 157 215
f 155 215 157
f 157 217 218
f 157 218 219
f 157 219 161
f 158 220 221
f 158 221 159
f 158 163 220
f 159 221 160
f 160 221 222
f 160 222 165
f 160 165 164
f 161 219 223
f 161 223 224
f 161 224 225
f 161 225 171
f 161 171 163
f 161 163 162
f 163 171 220
f 165 222 171
f 167 169 168
f 168 169 226
f 168 226 177
f 169 170 226
f 170 173 227
f 170 227 228
f 170 228 226
f 171 229 172
f 171 222 220
f 171 225 224
f 171 224 229
f 172 229 230
f 172 230 173
f 173 230 231
f 173 231 227
f 174 181 180
f 174 180 232
f 174 232 233
f 174 233 175
f 175 233 234
f 175 234 235
f 175 235 236
f 175 236 176
f 176 236 237
f 177 226 238
f 177 238 239
f 177 239 240
f 177 240 241
f 177 241 178
f 178 241 179
f 179 241 180
f 180 242 243
f 180 243 232
f 180 241 244
f 180 244 245
f 180 245 242
f 182 185 246
f 182 246 247
f 182 247 186
f 183 248 249
f 183 249 184
f 185 250 246
f 186 247 251
f 186 251 252
f 186 252 188
f 186 188 187
f 188 252 189
f 189 253 191
f 189 191 190
f 189 252 254
f 189 254 253
f 191 253 255
f 191 255 256
f 191 256 257
f 191 257 193
f 192 194 258
f 192 258 259
f 192 259 195
f 193 257 194
f 194 200 258
f 194 257 260
f 194 260 200
f 195 259 261
f 195 261 198
f 195 198 197
f 198 261 200
f 198 200 199
f 200 261 259
f 200 259 258
f 200 260 262
f 200 262 201
f 201 262 204
f 201 204 203
f 201 203 202
f 204 262 260
f 204 260 205
f 205 260 257
f 205 257 208
f 205 208 207
f 208 256 263
f 208 263 264
f 208 264 265
f 208 265 266
f 208 266 209
f 208 257 256
f 209 267 268
f 209 268 269
f 209 269 210
f 209 266 267
f 210 270 211
f 210 269 271
f 210 271 272
f 210 272 273
f 210 273 270
f 211 270 212
f 212 270 274
f 212 274 275
f 212 275 213
f 213 276 216
f 213 216 214
f 213 275 276
f 216 276 217
f 217 277 218
f 217 276 275
f 217 275 278
f 217 278 279
f 217 279 277
f 218 277 280
f 218 280 219
f 219 280 281
f 219 281 223
f 220 222 221
f 223 281 224
f 224 281 282
f 224 282 283
f 224 283 230
f 224 230 229
f 226 228 238
f 227 284 228
f 227 231 284
f 228 284 238
f 230 283 285
f 230 285 231
f 231 285 286
f 231 286 287
f 231 287 288
f 231 288 289
f 231 289 290
f 231 290 284
f 232 243 234
f 232 234 233
f 234 243 291
f 234 291 235
f 235 291 236
f 236 291 237
f 237 291 350
f 237 350 292
f 238 284 290
f 238 290 289
f 238 289 293
f 238 293 239
f 239 293 240
f 240 293 294
f 240 294 241
f 241 294 244
f 242 245 295
f 242 295 243
f 243 295 291
f 244 294 291
f 244 291 245
f 245 291 295
f 246 250 296
f 246 296 297
f 246 297 298
f 246 298 247
f 247 298 299
f 247 299 251
f 248 300 249
f 249 300 302
f 249 302 301
f 251 303 304
f 251 304 253
f 251 253 254
f 251 254 252
f 251 299 305
f 251 305 303
f 253 304 303
f 253 303 306
f 253 306 255
f 255 306 307
f 255 307 308
f 255 308 309
f 255 309 310
f 255 310 256
f 256 310 263
f 263 310 311
f 263 311 312
f 263 312 313
f 263 313 314
f 263 314 264
f 264 314 315
f 264 315 265
f 265 316 317
f 265 317 266
f 265 315 318
f 265 318 316
f 266 317 267
f 267 317 319
f 267 319 320
f 267 320 268
f 268 320 321
f 268 321 322
f 268 322 269
f 269 322 271
f 270 273 323
f 270 323 274
f 271 322 374
f 271 374 323
f 271 323 272
f 272 323 273
f 274 324 275
f 274 323 325
f 274 325 324
f 275 324 278
f 277 279 326
f 277 326 280
f 278 324 327
f 278 327 328
f 278 328 329
f 278 329 326
f 278 326 279
f 280 326 328
f 280 328 281
f 281 328 282
f 282 328 330
f 282 330 331
f 282 331 283
f 283 332 333
f 283 333 334
f 283 334 335
f 283 335 286
f 283 286 285
f 283 331 336
f 283 336 332
f 286 335 287
f 287 337 338
f 287 338 339
f 287 339 288
f 287 335 334
f 287 334 333
f 287 333 340
f 287 340 341
f 287 341 342
f 287 342 343
f 287 343 344
f 287 344 345
f 287 345 346
f 287 346 337
f 288 339 289
f 289 339 347
f 289 347 348
f 289 348 294
f 289 294 293
f 291 347 349
f 291 349 395
f 291 395 429
f 291 429 421
f 291 421 468
f 291 468 475
f 291 475 477
f 291 477 520
f 291 520 522
f 291 522 571
f 291 571 570
f 291 570 574
f 291 574 632
f 291 632 638
f 291 638 637
f 291 637 636
f 291 636 635
f 291 635 634
f 291 634 584
f 291 584 525
f 291 525 479
f 291 479 432
f 291 432 397
f 291 397 352
f 291 352 350
f 291 294 347
f 292 350 352
f 292 352 351
f 294 348 347
f 296 353 297
f 297 353 354
f 297 354 355
f 297 355 356
f 297 356 357
f 297 357 358
f 297 358 298
f 298 358 359
f 298 359 305
f 298 305 299
f 301 302 360
f 301 360 352
f 303 359 306
f 303 305 359
f 306 359 361
f 306 361 307
f 307 359 358
f 307 358 357
f 307 357 356
f 307 356 362
f 307 362 363
f 307 363 364
f 307 364 365
f 307 365 308
f 307 361 359
f 308 365 309
f 309 365 311
f 309 311 310
f 311 365 366
f 311 366 367
f 311 367 312
f 312 368 313
f 312 367 369
f 312 369 368
f 313 368 314
f 314 368 315
f 315 368 370
f 315 370 371
f 315 371 318
f 316 318 371
f 316 371 319
f 316 319 317
f 319 371 413
f 319 413 372
f 319 372 320
f 320 372 321
f 321 372 373
f 321 373 322
f 322 373 374
f 323 374 375
f 323 375 325
f 324 325 376
f 324 376 377
f 324 377 378
f 324 378 379
f 324 379 327
f 325 375 380
f 325 380 376
f 326 329 328
f 327 379 381
f 327 381 330
f 327 330 328
f 330 381 378
f 330 378 331
f 331 378 377
f 331 377 376
f 331 376 336
f 332 341 333
f 332 336 341
f 333 341 340
f 336 376 382
f 336 382 341
f 337 383 338
f 337 346 384
f 337 384 385
f 337 385 386
f 337 386 383
f 338 383 387
f 338 387 339
f 339 387 388
f 339 388 347
f 341 382 389
f 341 389 342
f 342 389 390
f 342 390 343
f 343 390 344
f 344 391 345
f 344 390 392
f 344 392 393
f 344 393 394
f 344 394 391
f 345 391 346
f 346 391 384
f 347 388 387
f 347 387 395
f 347 395 349
f 351 352 396
f 352 360 396
f 354 398 399
f 354 399 400
f 354 400 355
f 355 400 399
f 355 399 401
f 355 401 402
f 355 402 362
f 355 362 356
f 362 402 403
f 362 403 363
f 363 403 364
f 364 404 365
f 364 403 404
f 365 404 366
f 366 404 367
f 367 404 405
f 367 405 369
f 368 369 406
f 368 406 407
f 368 407 408
f 368 408 370
f 369 405 409
f 369 409 410
f 369 410 406
f 370 408 411
f 370 411 412
f 370 412 371
f 371 412 413
f 372 413 373
f 373 413 414
f 373 414 415
f 373 415 375
f 373 375 374
f 375 415 380
f 376 416 417
f 376 417 418
f 376 418 419
f 376 419 382
f 376 380 416
f 378 381 379
f 380 415 416
f 382 419 420
f 382 420 389
f 383 386 421
f 383 421 387
f 384 391 422
f 384 422 423
f 384 423 424
f 384 424 425
f 384 425 385
f 385 425 386
f 386 426 421
f 386 425 427
f 386 427 428
f 386 428 426
f 387 429 395
f 387 421 429
f 389 420 430
f 389 430 392
f 389 392 390
f 391 394 431
f 391 431 422
f 392 430 431
f 392 431 393
f 393 431 394
f 397 432 433
f 398 434 399
f 399 434 435
f 399 435 436
f 399 436 401
f 401 436 437
f 401 437 438
f 401 438 402
f 402 438 409
f 402 409 439
f 402 439 403
f 403 439 440
f 403 440 441
f 403 441 404
f 404 441 405
f 405 440 409
f 405 441 440
f 406 442 443
f 406 443 444
f 406 444 407
f 406 410 442
f 407 444 408
f 408 444 411
f 409 440 439
f 409 438 437
f 409 437 445
f 409 445 410
f 410 446 447
f 410 447 448
f 410 448 449
f 410 449 442
f 410 445 450
f 410 450 451
f 410 451 452
f 410 452 453
f 410 453 446
f 411 444 454
f 411 454 412
f 412 454 455
f 412 455 456
f 412 456 457
f 412 457 458
f 412 458 413
f 413 458 459
f 413 459 460
f 413 460 414
f 414 460 415
f 415 460 459
f 415 459 461
f 415 461 416
f 416 461 457
f 416 457 456
f 416 456 417
f 417 456 418
f 418 456 462
f 418 462 463
f 418 463 464
f 418 464 419
f 419 464 465
f 419 465 420
f 420 465 466
f 420 466 467
f 420 467 430
f 421 426 468
f 422 431 467
f 422 467 469
f 422 469 470
f 422 470 471
f 422 471 425
f 422 425 424
f 422 424 423
f 425 471 472
f 425 472 473
f 425 473 474
f 425 474 427
f 426 475 468
f 426 428 475
f 427 474 428
f 428 474 476
f 428 476 477
f 428 477 475
f 430 467 431
f 432 478 433
f 432 479 478
f 433 478 480
f 433 480 481
f 434 482 483
f 434 483 484
f 434 484 435
f 435 484 485
f 435 485 486
f 435 486 487
f 435 487 488
f 435 488 489
f 435 489 436
f 436 488 490
f 436 490 437
f 436 489 488
f 437 490 491
f 437 491 445
f 442 449 443
f 443 492 493
f 443 493 444
f 443 449 448
f 443 448 494
f 443 494 492
f 444 493 495
f 444 495 496
f 444 496 454
f 445 491 450
f 446 497 495
f 446 495 498
f 446 498 447
f 446 453 497
f 447 498 448
f 448 498 494
f 450 491 499
f 450 499 451
f 451 500 501
f 451 501 452
f 451 499 490
f 451 490 500
f 452 501 502
f 452 502 453
f 453 502 497
f 454 503 462
f 454 462 456
f 454 456 504
f 454 504 455
f 454 496 505
f 454 505 503
f 455 504 456
f 457 461 459
f 457 459 458
f 462 503 463
f 463 503 506
f 463 506 464
f 464 506 507
f 464 507 508
f 464 508 509
f 464 509 465
f 465 509 510
f 465 510 466
f 466 510 511
f 466 511 467
f 467 511 469
f 469 511 512
f 469 512 513
f 469 513 514
f 469 514 515
f 469 515 516
f 469 516 517
f 469 517 472
f 469 472 470
f 470 472 471
f 472 517 474
f 472 474 473
f 474 517 518
f 474 518 519
f 474 519 476
f 476 520 477
f 476 519 521
f 476 521 522
f 476 522 520
f 478 479 523
f 478 523 524
f 478 524 480
f 479 525 523
f 480 526 527
f 480 527 528
f 480 528 481
f 480 524 529
f 480 529 526
f 482 530 483
f 483 531 532
f 483 532 484
f 483 530 531
f 484 532 485
f 485 532 486
f 486 532 533
f 486 533 534
f 486 534 535
f 486 535 536
f 486 536 488
f 486 488 487
f 488 536 537
f 488 537 500
f 488 500 490
f 490 499 491
f 492 495 493
f 492 494 495
f 494 498 495
f 495 505 496
f 495 497 505
f 497 502 538
f 497 538 505
f 500 539 501
f 500 537 539
f 501 540 502
f 501 539 541
f 501 541 540
f 502 542 543
f 502 543 544
f 502 544 538
f 502 540 542
f 503 545 506
f 503 505 546
f 503 546 545
f 505 547 548
f 505 548 549
f 505 549 546
f 505 538 544
f 505 544 547
f 506 545 550
f 506 550 508
f 506 508 507
f 508 551 509
f 508 550 552
f 508 552 553
f 508 553 554
f 508 554 551
f 509 551 555
f 509 555 510
f 510 555 556
f 510 556 511
f 511 556 557
f 511 557 512
f 512 557 558
f 512 558 559
f 512 559 560
f 512 560 513
f 513 560 561
f 513 561 514
f 514 561 560
f 514 560 562
f 514 562 563
f 514 563 515
f 515 563 564
f 515 564 565
f 515 565 566
f 515 566 567
f 515 567 568
f 515 568 569
f 515 569 521
f 515 521 519
f 515 519 516
f 516 519 518
f 516 518 517
f 521 570 571
f 521 571 522
f 521 569 572
f 521 572 573
f 521 573 574
f 521 574 570
f 523 525 524
f 524 525 575
f 524 575 576
f 524 576 577
f 524 577 578
f 524 578 579
f 524 579 580
f 524 580 581
f 524 581 582
f 524 582 583
f 524 583 526
f 524 526 529
f 525 584 575
f 526 585 527
f 526 583 585
f 527 585 586
f 527 586 587
f 527 587 528
f 530 588 531
f 531 588 589
f 531 589 590
f 531 590 591
f 531 591 532
f 532 591 533
f 533 591 592
f 533 592 593
f 533 593 539
f 533 539 534
f 534 539 535
f 535 539 536
f 536 539 537
f 539 593 594
f 539 594 541
f 540 595 542
f 540 541 596
f 540 596 597
f 540 597 595
f 541 594 598
f 541 598 596
f 542 595 599
f 542 599 600
f 542 600 601
f 542 601 602
f 542 602 603
f 542 603 543
f 543 603 604
f 543 604 605
f 543 605 544
f 544 605 606
f 544 606 547
f 545 546 549
f 545 549 607
f 545 607 550
f 547 608 609
f 547 609 610
f 547 610 548
f 547 606 608
f 548 611 612
f 548 612 549
f 548 610 613
f 548 613 611
f 549 614 607
f 549 612 614
f 550 607 615
f 550 615 552
f 551 616 555
f 551 554 617
f 551 617 616
f 552 615 618
f 552 618 612
f 552 612 619
f 552 619 554
f 552 554 553
f 554 558 617
f 554 619 558
f 555 616 556
f 556 616 557
f 557 616 617
f 557 617 558
f 558 619 563
f 558 563 559
f 559 563 562
f 559 562 560
f 563 619 611
f 563 611 620
f 563 620 621
f 563 621 622
f 563 622 623
f 563 623 625
f 563 625 624
f 563 624 564
f 564 624 625
f 564 625 626
f 564 626 565
f 565 626 627
f 565 627 628
f 565 628 566
f 566 628 629
f 566 629 630
f 566 630 631
f 566 631 567
f 567 631 575
f 567 575 573
f 567 573 568
f 568 573 572
f 568 572 569
f 573 632 574
f 573 575 632
f 575 633 576
f 575 584 634
f 575 634 635
f 575 635 636
f 575 636 637
f 575 637 638
f 575 638 632
f 575 631 633
f 576 633 639
f 576 639 640
f 576 640 577
f 577 640 641
f 577 641 642
f 577 642 578
f 578 642 579
f 579 643 644
f 579 644 645
f 579 645 580
f 579 642 643
f 580 646 581
f 580 645 647
f 580 647 648
f 580 648 646
f 581 646 649
f 581 649 585
f 581 585 583
f 581 583 582
f 585 649 586
f 586 649 646
f 586 646 650
f 586 650 651
f 586 651 652
f 586 652 653
f 586 653 587
f 589 654 590
f 590 654 655
f 590 655 656
f 590 656 657
f 590 657 658
f 590 658 591
f 591 658 592
f 592 658 659
f 592 659 660
f 592 660 593
f 593 660 661
f 593 661 594
f 594 661 662
f 594 662 598
f 595 597 599
f 596 598 663
f 596 663 664
f 596 664 597
f 597 664 665
f 597 665 666
f 597 666 667
f 597 667 599
f 598 662 668
f 598 668 669
f 598 669 663
f 599 667 666
f 599 666 670
f 599 670 600
f 600 671 621
f 600 621 672
f 600 672 673
f 600 673 602
f 600 602 601
f 600 670 671
f 602 673 674
f 602 674 603
f 603 674 675
f 603 675 604
f 604 675 609
f 604 609 605
f 605 609 608
f 605 608 606
f 607 614 612
f 607 612 618
f 607 618 615
f 609 676 611
f 609 611 613
f 609 613 610
f 609 675 676
f 611 619 612
f 611 676 620
f 620 676 674
f 620 674 621
f 621 674 672
f 621 671 622
f 622 671 677
f 622 677 678
f 622 678 679
f 622 679 625
f 622 625 623
f 625 680 681
f 625 681 626
f 625 679 682
f 625 682 680
f 626 681 627
f 627 681 680
f 627 680 628
f 628 680 639
f 628 639 629
f 629 639 683
f 629 683 684
f 629 684 630
f 630 684 631
f 631 684 639
f 631 639 633
f 639 679 678
f 639 678 685
f 639 685 686
f 639 686 640
f 639 684 683
f 639 680 679
f 640 686 641
f 641 686 687
f 641 687 642
f 642 687 643
f 643 688 644
f 643 687 689
f 643 689 688
f 644 688 645
f 645 688 647
f 646 648 650
f 647 690 691
f 647 691 692
f 647 692 648
f 647 688 693
f 647 693 690
f 648 692 694
f 648 694 695
f 648 695 650
f 654 696 655
f 655 696 697
f 655 697 698
f 655 698 656
f 656 698 669
f 656 669 657
f 657 659 658
f 657 669 668
f 657 668 662
f 657 662 659
f 659 662 660
f 660 662 661
f 663 669 699
f 663 699 700
f 663 700 664
f 664 700 665
f 665 700 701
f 665 701 702
f 665 702 666
f 666 702 703
f 666 703 677
f 666 677 670
f 669 698 699
f 670 677 671
f 672 674 673
f 674 676 675
f 677 703 678
f 678 703 685
f 679 680 682
f 685 703 704
f 685 704 689
f 685 689 687
f 685 687 686
f 688 705 706
f 688 706 707
f 688 707 693
f 688 689 704
f 688 704 705
f 690 708 709
f 690 709 710
f 690 710 711
f 690 711 691
f 690 693 712
f 690 712 708
f 693 707 712
f 697 713 698
f 698 712 699
f 698 713 712
f 699 705 701
f 699 701 700
f 699 712 705
f 701 705 714
f 701 714 703
f 701 703 702
f 703 714 705
f 703 705 704
f 705 712 706
f 706 712 707
f 708 712 715
f 712 713 716
f 712 716 715

