# https://github.com/mikedh/trimesh
v -0.06045930 -0.06905808 -0.00533015
v -0.06045930 -0.06883959 -0.00551153
v -0.05927982 -0.06943134 -0.00599772
v -0.05856624 -0.07083331 -0.00542084
v -0.05885521 -0.07064214 -0.00533015
v -0.06045930 -0.04651714 -0.00533015
v -0.06045930 -0.06850275 -0.00578359
v -0.06045930 -0.06648171 -0.00736562
v -0.05836572 -0.06853006 -0.00740089
v -0.05477423 -0.07113374 -0.00778380
v -0.05479191 -0.07324582 -0.00571810
v -0.05633703 -0.07252662 -0.00533015
v -0.05848957 -0.07097898 -0.00533015
v -0.05777009 -0.06998666 -0.00665522
v -0.05617780 -0.07055110 -0.00730768
v -0.00021163 0.00129588 -0.01531605
v -0.06045930 0.00129588 -0.01232078
v -0.00021163 -0.07785233 -0.00533015
v -0.06045930 -0.06641799 -0.00740844
v -0.05442038 -0.06876676 -0.00966056
v -0.05529909 -0.06965893 -0.00850175
v -0.05664959 -0.06049143 -0.01393807
v -0.05335885 -0.07023247 -0.00922727
v -0.05212040 -0.07072407 -0.00955728
v -0.05071682 -0.07121568 -0.00991751
v -0.04983221 -0.07487539 -0.00739081
v -0.04861736 -0.07752459 -0.00580879
v -0.05005631 -0.07699657 -0.00533015
v -0.05250373 -0.07525775 -0.00533015
v -0.00021163 0.00129588 -0.02475529
v -0.06045930 0.00129588 -0.02340250
v -0.00021163 -0.09150799 -0.00533015
v -0.06045930 -0.06009997 -0.01159778
v -0.05437320 -0.06243964 -0.01384486
v -0.05394859 -0.06630874 -0.01152221
v -0.06045930 -0.05893469 -0.01236109
v -0.05865470 -0.05829742 -0.01388265
v -0.06045930 -0.05204313 -0.01585514
v -0.06045930 -0.05188836 -0.01592820
v -0.05856624 -0.05400955 -0.01594331
v -0.05547011 -0.05931704 -0.01495833
v -0.05217937 -0.06023653 -0.01590805
v -0.05076990 -0.06083737 -0.01619271
v -0.04993247 -0.06223936 -0.01584507
v -0.04852299 -0.06279468 -0.01614485
v -0.05547011 -0.06095572 -0.01418747
v -0.04795095 -0.07074228 -0.01168092
v -0.04654737 -0.07125209 -0.01203864
v -0.04411765 -0.07310016 -0.01187237
v -0.04963171 -0.07260855 -0.00935826
v -0.04706045 -0.07678719 -0.00728249
v -0.04694840 -0.07823468 -0.00614635
v -0.04616994 -0.07938176 -0.00556947
v -0.04792146 -0.07847139 -0.00533015
v -0.04886505 -0.07782501 -0.00533015
v -0.00021163 -0.03835105 -0.03087430
v -0.04041999 0.00129588 -0.03025207
v -0.06045930 -0.00047025 -0.02346800
v -0.04709583 0.00129588 -0.02925196
v -0.00293623 -0.09162634 -0.00533015
v -0.00021163 -0.09059761 -0.00639071
v -0.04920709 -0.06350478 -0.01545964
v -0.05131835 -0.06361402 -0.01449480
v -0.04602251 -0.06877586 -0.01387006
v -0.04495508 -0.07023247 -0.01347959
v -0.04698378 -0.06975907 -0.01278934
v -0.06045930 -0.05722318 -0.01331332
v -0.06045930 -0.05646756 -0.01369875
v -0.06045930 -0.05617624 -0.01384486
v -0.05919136 -0.05260756 -0.01623050
v -0.06045930 -0.05073219 -0.01638416
v -0.05774650 -0.05319021 -0.01658066
v -0.05716856 -0.05468322 -0.01622294
v -0.05503960 -0.05675888 -0.01621538
v -0.05562934 -0.05735973 -0.01572415
v -0.05289885 -0.05883455 -0.01620531
v -0.05138912 -0.05944450 -0.01654539
v -0.04691301 -0.06126525 -0.01748755
v -0.04920709 -0.06149284 -0.01650760
v -0.04697199 -0.06350478 -0.01639676
v -0.04620533 -0.06472469 -0.01604912
v -0.04697199 -0.06550761 -0.01529337
v -0.04487252 -0.07194398 -0.01235857
v -0.04364586 -0.07071497 -0.01377433
v -0.04290279 -0.07186205 -0.01329065
v -0.04285561 -0.07346431 -0.01216207
v -0.04148742 -0.07491181 -0.01161038
v -0.04513790 -0.07827110 -0.00707088
v -0.04628789 -0.07952742 -0.00533015
v -0.04687173 -0.07915417 -0.00533015
v -0.04495508 -0.07969129 -0.00591207
v -0.04200639 -0.08148473 -0.00556947
v -0.04495508 -0.08020110 -0.00533015
v -0.00021163 -0.04039940 -0.03106575
v -0.04075025 0.00129588 -0.03027978
v -0.06045930 -0.00179030 -0.02348060
v -0.06045930 -0.00389327 -0.02346800
v -0.06045930 -0.00257322 -0.02348564
v -0.04672430 0.00129588 -0.02940563
v -0.04495508 -0.00677916 -0.02995732
v -0.06045930 -0.00888214 -0.02335968
v -0.06045930 -0.00677916 -0.02341007
v -0.06045930 -0.00599624 -0.02342770
v -0.00502980 -0.09166275 -0.00533015
v -0.00021163 -0.08968723 -0.00744119
v -0.05980469 -0.05103261 -0.01656302
v -0.06045930 -0.04868384 -0.01705174
v -0.05946854 -0.04860190 -0.01750266
v -0.05742804 -0.05076860 -0.01756816
v -0.05322321 -0.05496544 -0.01756061
v -0.04751454 -0.05977223 -0.01786542
v -0.04901248 -0.05917138 -0.01754297
v -0.05562934 -0.05527497 -0.01657058
v -0.05350628 -0.05735973 -0.01656050
v -0.04611096 -0.06046412 -0.01810222
v -0.04495508 -0.06191162 -0.01784527
v -0.04495508 -0.06352298 -0.01709456
v -0.04495508 -0.06514346 -0.01626325
v -0.04374612 -0.06658186 -0.01591560
v -0.04224818 -0.07112464 -0.01400357
v -0.04075025 -0.07256303 -0.01361310
v -0.04077384 -0.07413798 -0.01249460
v -0.04008384 -0.07528506 -0.01191520
v -0.03764822 -0.07930893 -0.00968575
v -0.04323894 -0.07899940 -0.00735302
v -0.03485876 -0.08110237 -0.00941117
v -0.03911667 -0.08113879 -0.00735302
v -0.03655131 -0.08283209 -0.00696256
v -0.04075025 -0.08179426 -0.00591207
v -0.03780155 -0.08357860 -0.00556947
v -0.03860950 -0.08337832 -0.00533015
v -0.04282612 -0.08127535 -0.00533015
v -0.00021163 -0.04101846 -0.03103804
v -0.01133410 -0.04039940 -0.03104812
v -0.04285561 0.00129588 -0.03028481
v -0.04253126 0.00129588 -0.03028481
v -0.04495508 0.00129588 -0.03010092
v -0.04495508 -0.00467619 -0.03000015
v -0.04285561 -0.01098511 -0.03025711
v -0.04495508 -0.00888214 -0.02985908
v -0.06045930 -0.01098511 -0.02327655
v -0.00713516 -0.09169917 -0.00533015
v -0.00021163 -0.08894073 -0.00820953
v -0.06045930 -0.04779166 -0.01731625
v -0.06005238 -0.04670832 -0.01780244
v -0.05863111 -0.04777346 -0.01806947
v -0.05802368 -0.04916634 -0.01787046
v -0.05593011 -0.05136945 -0.01787046
v -0.05172527 -0.05557539 -0.01787046
v -0.05662600 -0.04996747 -0.01810222
v -0.04822223 -0.05837025 -0.01810222
v -0.04495508 -0.06086469 -0.01825085
v -0.04370484 -0.06233949 -0.01801657
v -0.04706045 -0.05721407 -0.01887056
v -0.04478406 -0.05703199 -0.01965402
v -0.04395842 -0.05621265 -0.02018052
v -0.04285561 -0.05766016 -0.01996387
v -0.04285561 -0.05931704 -0.01937187
v -0.04294407 -0.06348657 -0.01769160
v -0.04075025 -0.06562596 -0.01727846
v -0.04297356 -0.06577162 -0.01656302
v -0.04234844 -0.06699153 -0.01613225
v -0.03865078 -0.06914001 -0.01615492
v -0.03718233 -0.07062393 -0.01583499
v -0.04297356 -0.06770162 -0.01557048
v -0.03577875 -0.07102450 -0.01605164
v -0.03167417 -0.07320940 -0.01608187
v -0.03025880 -0.07462959 -0.01570651
v -0.02962778 -0.07740624 -0.01404136
v -0.03345518 -0.08141190 -0.00968071
v -0.03655131 -0.07961846 -0.00990744
v -0.03482927 -0.08326908 -0.00735302
v -0.03655131 -0.08387902 -0.00591207
v -0.03531876 -0.08493507 -0.00533015
v -0.03757745 -0.08387902 -0.00533015
v -0.03796078 -0.08369695 -0.00533015
v -0.00021163 -0.04246596 -0.03092216
v -0.01133410 -0.04177407 -0.03087430
v -0.01306203 -0.04165572 -0.03081132
v -0.01363408 -0.04059969 -0.03089193
v -0.01724917 -0.03958006 -0.03074834
v -0.01782712 -0.03846030 -0.03077857
v -0.01553893 -0.03830553 -0.03091460
v -0.04075025 -0.01519105 -0.03028481
v -0.04285561 -0.00888214 -0.03028481
v -0.00021163 -0.04251148 -0.03091712
v -0.00021163 -0.04368586 -0.03077605
v -0.04463072 0.00129588 -0.03013367
v -0.04075025 -0.01729402 -0.03024199
v -0.04285561 -0.01308808 -0.03013619
v -0.04495508 -0.01098511 -0.02966510
v -0.06045930 -0.01439902 -0.02302463
v -0.06045930 -0.01308808 -0.02313548
v -0.06045930 -0.01230516 -0.02318838
v -0.00924053 -0.09162634 -0.00533015
v -0.00082496 -0.08758426 -0.00956483
v -0.00021163 -0.08789379 -0.00926254
v -0.06045930 -0.04670832 -0.01762862
v -0.05756958 -0.04461445 -0.01933157
v -0.06045930 -0.04614388 -0.01776969
v -0.06045930 -0.04536096 -0.01796367
v -0.05966905 -0.04039940 -0.01952050
v -0.05756958 -0.04670832 -0.01876728
v -0.05528729 -0.04652624 -0.01964898
v -0.05547011 -0.04881129 -0.01887056
v -0.05126528 -0.05300813 -0.01887308
v -0.04915991 -0.05511110 -0.01887308
v -0.04075025 -0.06426039 -0.01792336
v -0.04075025 -0.06142002 -0.01910484
v -0.03655131 -0.06188431 -0.01996387
v -0.03524209 -0.06231218 -0.02012006
v -0.03655131 -0.06352298 -0.01931897
v -0.03445184 -0.06562596 -0.01893354
v -0.03644516 -0.06565327 -0.01841208
v -0.04898889 -0.05283516 -0.01966913
v -0.04687762 -0.05493813 -0.01966913
v -0.04536200 -0.05552077 -0.01996639
v -0.04156998 -0.05811535 -0.02012006
v -0.04816915 -0.05201582 -0.02018052
v -0.02605397 -0.03620256 -0.03011855
v -0.03885719 -0.06565327 -0.01778733
v -0.03445184 -0.06982280 -0.01702655
v -0.03650413 -0.06988653 -0.01641188
v -0.03445184 -0.07137954 -0.01624813
v -0.03025880 -0.07357355 -0.01626325
v -0.02887292 -0.07493001 -0.01589041
v -0.02815933 -0.07600426 -0.01541933
v -0.02815343 -0.07773398 -0.01428823
v -0.02815343 -0.07878092 -0.01345943
v -0.02815343 -0.08003723 -0.01240895
v -0.02858984 -0.08329639 -0.00949178
v -0.03025880 -0.08418855 -0.00819946
v -0.03025880 -0.08523549 -0.00715149
v -0.03346698 -0.08561785 -0.00548885
v -0.03406851 -0.08549039 -0.00533015
v -0.00021163 -0.04377690 -0.03075841
v -0.00021163 -0.04387704 -0.03072818
v -0.00502980 -0.04670832 -0.02952152
v -0.01545047 -0.06366865 -0.02257119
v -0.01609329 -0.06446978 -0.02222607
v -0.01764430 -0.06425129 -0.02215805
v -0.01974966 -0.06562596 -0.02140230
v -0.01974966 -0.06385072 -0.02202705
v -0.02394860 -0.06189341 -0.02206988
v -0.02676755 -0.06021832 -0.02221599
v -0.02974573 -0.05850681 -0.02234950
v -0.03113751 -0.05819728 -0.02223866
v -0.01446561 -0.04142813 -0.03066521
v -0.01865865 -0.03927053 -0.03066772
v -0.00713516 -0.05091426 -0.02787399
v -0.00924053 -0.06623591 -0.02210767
v -0.01343946 -0.06579893 -0.02194644
v -0.01935454 -0.03786855 -0.03071055
v -0.03865078 -0.02149086 -0.03023443
v -0.04075025 -0.01939700 -0.03010092
v -0.04285561 -0.01519105 -0.02993466
v -0.04285561 -0.01729402 -0.02967770
v -0.06045930 -0.02698044 -0.02174491
v -0.06045930 -0.02569681 -0.02190361
v -0.06045930 -0.02522341 -0.02195400
v -0.06045930 -0.02347549 -0.02213789
v -0.06045930 -0.02313865 -0.02217316
v -0.06045930 -0.02231931 -0.02225881
v -0.06045930 -0.02036199 -0.02245783
v -0.06045930 -0.01939700 -0.02255355
v -0.06045930 -0.01729402 -0.02275509
v -0.06045930 -0.01648379 -0.02283066
v -0.00945873 -0.09160813 -0.00533015
v -0.01553893 -0.08616407 -0.01018203
v -0.01343946 -0.08624600 -0.01025256
v -0.00021163 -0.08758426 -0.00956735
v -0.01133410 -0.08629153 -0.01029791
v -0.01133410 -0.08511714 -0.01134839
v -0.00293623 -0.08307789 -0.01350226
v -0.00293623 -0.08203096 -0.01443434
v -0.05588293 -0.04461445 -0.01994372
v -0.05445576 -0.04570690 -0.02018052
v -0.05751650 -0.04254789 -0.01985555
v -0.06045930 -0.04512426 -0.01802161
v -0.06045930 -0.03962558 -0.01935424
v -0.06045930 -0.03747709 -0.01982028
v -0.05966905 -0.03850582 -0.01992608
v -0.05861341 -0.03935247 -0.02016288
v -0.05828906 -0.04039940 -0.02005708
v -0.05376577 -0.04710888 -0.01996639
v -0.05318193 -0.04862921 -0.01966913
v -0.03567260 -0.06677303 -0.01810978
v -0.03383851 -0.06269454 -0.02024098
v -0.03451081 -0.06345016 -0.01983036
v -0.02605397 -0.07129761 -0.01824329
v -0.02605397 -0.07235365 -0.01779740
v -0.03445184 -0.06817502 -0.01779489
v -0.05167220 -0.04921185 -0.01996639
v -0.05236809 -0.04780987 -0.02018052
v -0.03234058 -0.03199662 -0.02953411
v -0.03025880 -0.03199662 -0.03008076
v -0.02394860 -0.03620256 -0.03041077
v -0.02815933 -0.07415619 -0.01644966
v -0.02746934 -0.07522134 -0.01604408
v -0.02605397 -0.07650497 -0.01558056
v -0.02585935 -0.07832573 -0.01440160
v -0.02643140 -0.07908134 -0.01369623
v -0.02544064 -0.08152115 -0.01187993
v -0.02815343 -0.08108417 -0.01151213
v -0.02394860 -0.08280478 -0.01117205
v -0.02074042 -0.08557233 -0.00964041
v -0.02872548 -0.08547219 -0.00744623
v -0.02605397 -0.08796662 -0.00580123
v -0.02728652 -0.08775724 -0.00555939
v -0.03358492 -0.08569068 -0.00533015
v -0.00021163 -0.04670832 -0.02969282
v -0.00502980 -0.04853817 -0.02885898
v -0.00924053 -0.06982280 -0.02079015
v -0.01343946 -0.06771983 -0.02123100
v -0.01545047 -0.06543478 -0.02191873
v -0.01764430 -0.06562596 -0.02165674
v -0.02184323 -0.06562596 -0.02108237
v -0.02052222 -0.06869393 -0.02013517
v -0.02184323 -0.06844813 -0.02004700
v -0.02394860 -0.06982280 -0.01922324
v -0.02394860 -0.06352298 -0.02149551
v -0.00713516 -0.05300813 -0.02710565
v -0.03445184 -0.02779067 -0.03003290
v -0.03865078 -0.02359384 -0.02996992
v -0.04075025 -0.02149086 -0.02979358
v -0.05851906 -0.02860091 -0.02223614
v -0.06045930 -0.02782709 -0.02162399
v -0.01133410 -0.09139875 -0.00533015
v -0.01553893 -0.08722011 -0.00910383
v -0.01764430 -0.08598200 -0.01002584
v -0.01553893 -0.08492596 -0.01123503
v -0.01343946 -0.08504431 -0.01130305
v -0.00021163 -0.08683775 -0.01020722
v -0.00713516 -0.08296865 -0.01341913
v -0.00502980 -0.08197634 -0.01437892
v -0.00293623 -0.08069270 -0.01548483
v -0.00082496 -0.08197634 -0.01439404
v -0.05633703 -0.04326709 -0.02010242
v -0.05483909 -0.04461445 -0.02029892
v -0.06045930 -0.03652120 -0.02000922
v -0.05897316 -0.03795049 -0.02029892
v -0.05818291 -0.02989364 -0.02211774
v -0.02394860 -0.06800204 -0.01988578
v -0.02394860 -0.07175280 -0.01844986
v -0.02394860 -0.07279974 -0.01798886
v -0.02605397 -0.07401964 -0.01695349
v -0.02605397 -0.07544893 -0.01617508
v -0.02394860 -0.07401964 -0.01731373
v -0.02394860 -0.07574025 -0.01634386
v -0.02394860 -0.07679629 -0.01574682
v -0.01553893 -0.07895389 -0.01576949
v -0.01764430 -0.07868077 -0.01559063
v -0.02394860 -0.07823468 -0.01480214
v -0.02503372 -0.07929073 -0.01387006
v -0.02184323 -0.08312341 -0.01145419
v -0.01933685 -0.08576351 -0.00983186
v -0.02394860 -0.08723832 -0.00714142
v -0.02605397 -0.08691969 -0.00685171
v -0.02394860 -0.08826705 -0.00608841
v -0.02503962 -0.08862209 -0.00533015
v -0.02706832 -0.08799393 -0.00533015
v -0.00502980 -0.05558450 -0.02625166
v -0.00502980 -0.05452846 -0.02664465
v -0.00502980 -0.04958511 -0.02847355
v -0.00021163 -0.05572105 -0.02630204
v -0.00082496 -0.06352298 -0.02335968
v -0.00502980 -0.06771983 -0.02171720
v -0.00713516 -0.06982280 -0.02089092
v -0.00713516 -0.06771983 -0.02167437
v -0.00713516 -0.05544794 -0.02620884
v -0.00722362 -0.05950822 -0.02470491
v -0.00658081 -0.06043681 -0.02439505
v -0.00713516 -0.06534374 -0.02255355
v -0.00713516 -0.06639978 -0.02216309
v -0.00924053 -0.07115195 -0.02028380
v -0.01077974 -0.07098808 -0.02021579
v -0.01553893 -0.06771983 -0.02104207
v -0.01764430 -0.06771983 -0.02083298
v -0.01764430 -0.07012322 -0.01985807
v -0.01979095 -0.06967714 -0.01981272
v -0.02184323 -0.06982280 -0.01951798
v -0.05966905 -0.02989364 -0.02156857
v -0.06045930 -0.02911072 -0.02140734
v -0.01185307 -0.09132591 -0.00533015
v -0.01343946 -0.09106191 -0.00533015
v -0.01434766 -0.09090714 -0.00533015
v -0.01692482 -0.09040643 -0.00533015
v -0.01764430 -0.08996945 -0.00565512
v -0.01892403 -0.08984200 -0.00551153
v -0.02022145 -0.08334190 -0.01165069
v -0.01764430 -0.08470747 -0.01107884
v -0.01553893 -0.08386992 -0.01207642
v -0.01343946 -0.08166681 -0.01409426
v -0.01343946 -0.08272285 -0.01324279
v -0.01343946 -0.08399738 -0.01219230
v -0.01133410 -0.08282299 -0.01330829
v -0.00021163 -0.08566337 -0.01121236
v -0.00713516 -0.08191261 -0.01431343
v -0.00713516 -0.08055615 -0.01536391
v -0.01133410 -0.07937266 -0.01602141
v -0.00293623 -0.07964577 -0.01618263
v -0.00082496 -0.08058346 -0.01544452
v -0.00021163 -0.08193992 -0.01435373
v -0.00021163 -0.08224034 -0.01410434
v -0.00021163 -0.08095672 -0.01509688
v -0.06045930 -0.02996648 -0.02125367
v -0.05966905 -0.03409959 -0.02077000
v -0.02204964 -0.07213516 -0.01852292
v -0.02288117 -0.07297270 -0.01806443
v -0.02168990 -0.07624096 -0.01640180
v -0.01974966 -0.07735162 -0.01606423
v -0.01397023 -0.07915417 -0.01589041
v -0.01569816 -0.08052884 -0.01461572
v -0.01764430 -0.08017379 -0.01454015
v -0.01974966 -0.07991888 -0.01435373
v -0.01961992 -0.08255898 -0.01236864
v -0.01882377 -0.08351487 -0.01178420
v -0.02394860 -0.08889521 -0.00533015
v -0.02032761 -0.08969634 -0.00534526
v -0.02222656 -0.08930488 -0.00533015
v -0.00021163 -0.06060978 -0.02446055
v -0.00082496 -0.06549850 -0.02261401
v -0.00293623 -0.06650903 -0.02220339
v -0.00082496 -0.06654544 -0.02221599
v -0.00713516 -0.07125209 -0.02033167
v -0.00924053 -0.07220799 -0.01981776
v -0.01142256 -0.07178921 -0.01979509
v -0.01218332 -0.07081511 -0.02014273
v -0.01343946 -0.07066035 -0.02007723
v -0.01553893 -0.06934030 -0.02039465
v -0.02031581 -0.08970544 -0.00533015
v -0.01764430 -0.08365143 -0.01189253
v -0.01510253 -0.08153025 -0.01397334
v -0.01333921 -0.08013738 -0.01526566
v -0.01257255 -0.07931804 -0.01598866
v -0.01133410 -0.08041960 -0.01524047
v -0.01133410 -0.08176695 -0.01418747
v -0.00924053 -0.07644125 -0.01767397
v -0.00924053 -0.07823468 -0.01672173
v -0.00502980 -0.07823468 -0.01688296
v -0.00924053 -0.07943638 -0.01606423
v -0.00293623 -0.07823468 -0.01692830
v -0.00021163 -0.07655049 -0.01772939
v -0.00082496 -0.07823468 -0.01683509
v -0.00021163 -0.07823468 -0.01679730
v -0.00082496 -0.07953653 -0.01611210
v -0.00021163 -0.08053794 -0.01540170
v -0.00021163 -0.07948190 -0.01608439
v -0.01133410 -0.07401964 -0.01874964
v -0.01764430 -0.07352804 -0.01833650
v -0.01553893 -0.07480257 -0.01793092
v -0.01764430 -0.07762474 -0.01621790
v -0.01764430 -0.08243153 -0.01282461
v -0.00021163 -0.06654544 -0.02221599
v -0.00082496 -0.06771983 -0.02175247
v -0.00502980 -0.07121568 -0.02032411
v -0.00713516 -0.07230813 -0.01985807
v -0.00021163 -0.06771983 -0.02174995
v -0.00021163 -0.06832978 -0.02149299
v -0.00924053 -0.07401964 -0.01893102
v -0.01333331 -0.07594054 -0.01759587
v -0.01133410 -0.07523954 -0.01814757
v -0.00924053 -0.07538520 -0.01822566
v -0.00713516 -0.07546714 -0.01827100
v -0.00713516 -0.07652318 -0.01771427
v -0.00502980 -0.07656869 -0.01775458
v -0.00502980 -0.07552176 -0.01828360
v -0.00021163 -0.07549445 -0.01827352
v -0.01256075 -0.07511209 -0.01808459
v -0.00021163 -0.07270870 -0.01955577
v -0.00021163 -0.07401964 -0.01895873
v -0.00021163 -0.06982280 -0.02085817
v -0.00021163 -0.07020516 -0.02069190
v -0.00713516 -0.07401964 -0.01901415
f 1 2 3
f 1 3 4
f 1 4 5
f 1 5 13
f 1 13 12
f 1 12 29
f 1 29 28
f 1 28 55
f 1 55 54
f 1 54 90
f 1 90 89
f 1 89 93
f 1 93 132
f 1 132 131
f 1 131 176
f 1 176 175
f 1 175 174
f 1 174 235
f 1 235 310
f 1 310 361
f 1 361 360
f 1 360 418
f 1 418 420
f 1 420 431
f 1 431 387
f 1 387 386
f 1 386 385
f 1 385 384
f 1 384 328
f 1 328 268
f 1 268 195
f 1 195 142
f 1 142 104
f 1 104 60
f 1 60 32
f 1 32 18
f 1 18 6
f 1 6 17
f 1 17 31
f 1 31 58
f 1 58 96
f 1 96 98
f 1 98 97
f 1 97 103
f 1 103 102
f 1 102 101
f 1 101 141
f 1 141 194
f 1 194 193
f 1 193 192
f 1 192 267
f 1 267 266
f 1 266 265
f 1 265 264
f 1 264 263
f 1 263 262
f 1 262 261
f 1 261 260
f 1 260 259
f 1 259 258
f 1 258 327
f 1 327 383
f 1 383 406
f 1 406 340
f 1 340 281
f 1 281 280
f 1 280 279
f 1 279 201
f 1 201 200
f 1 200 198
f 1 198 144
f 1 144 107
f 1 107 71
f 1 71 39
f 1 39 38
f 1 38 69
f 1 69 68
f 1 68 67
f 1 67 36
f 1 36 33
f 1 33 19
f 1 19 8
f 1 8 7
f 1 7 2
f 2 7 3
f 3 7 8
f 3 8 9
f 3 9 4
f 4 10 11
f 4 11 12
f 4 12 13
f 4 13 5
f 4 9 14
f 4 14 15
f 4 15 10
f 6 16 17
f 6 18 16
f 8 19 9
f 9 20 21
f 9 21 10
f 9 10 15
f 9 15 14
f 9 19 22
f 9 22 20
f 10 21 20
f 10 20 23
f 10 23 24
f 10 24 25
f 10 25 26
f 10 26 27
f 10 27 11
f 11 27 28
f 11 28 29
f 11 29 12
f 16 30 57
f 16 57 95
f 16 95 136
f 16 136 135
f 16 135 188
f 16 188 137
f 16 137 99
f 16 99 59
f 16 59 31
f 16 31 17
f 16 18 32
f 16 32 61
f 16 61 105
f 16 105 143
f 16 143 197
f 16 197 271
f 16 271 333
f 16 333 397
f 16 397 404
f 16 404 403
f 16 403 405
f 16 405 447
f 16 447 448
f 16 448 445
f 16 445 443
f 16 443 468
f 16 468 471
f 16 471 470
f 16 470 473
f 16 473 472
f 16 472 459
f 16 459 458
f 16 458 454
f 16 454 421
f 16 421 365
f 16 365 311
f 16 311 237
f 16 237 236
f 16 236 187
f 16 187 186
f 16 186 177
f 16 177 133
f 16 133 94
f 16 94 56
f 16 56 30
f 19 33 22
f 20 24 23
f 20 22 34
f 20 34 35
f 20 35 24
f 22 33 36
f 22 36 37
f 22 37 38
f 22 38 39
f 22 39 40
f 22 40 41
f 22 41 42
f 22 42 43
f 22 43 44
f 22 44 45
f 22 45 46
f 22 46 34
f 24 35 47
f 24 47 48
f 24 48 25
f 25 48 49
f 25 49 50
f 25 50 26
f 26 50 49
f 26 49 51
f 26 51 52
f 26 52 27
f 27 52 53
f 27 53 54
f 27 54 55
f 27 55 28
f 30 56 57
f 31 59 58
f 32 60 61
f 34 46 45
f 34 45 62
f 34 62 63
f 34 63 64
f 34 64 65
f 34 65 66
f 34 66 47
f 34 47 35
f 36 67 37
f 37 67 68
f 37 68 69
f 37 69 38
f 39 70 40
f 39 71 70
f 40 70 72
f 40 72 73
f 40 73 74
f 40 74 75
f 40 75 41
f 41 75 42
f 42 76 77
f 42 77 78
f 42 78 43
f 42 75 74
f 42 74 76
f 43 78 79
f 43 79 44
f 44 79 45
f 45 80 81
f 45 81 82
f 45 82 62
f 45 79 80
f 47 66 65
f 47 65 48
f 48 83 49
f 48 65 84
f 48 84 83
f 49 83 85
f 49 85 86
f 49 86 87
f 49 87 88
f 49 88 51
f 51 88 52
f 52 88 53
f 53 89 90
f 53 90 54
f 53 88 91
f 53 91 92
f 53 92 93
f 53 93 89
f 56 94 95
f 56 95 57
f 58 59 96
f 59 97 98
f 59 98 96
f 59 99 100
f 59 100 101
f 59 101 102
f 59 102 103
f 59 103 97
f 60 104 105
f 60 105 61
f 62 82 64
f 62 64 63
f 64 84 65
f 64 82 81
f 64 81 84
f 70 71 106
f 70 106 72
f 71 107 108
f 71 108 106
f 72 106 109
f 72 109 110
f 72 110 111
f 72 111 112
f 72 112 113
f 72 113 73
f 73 113 114
f 73 114 77
f 73 77 74
f 74 77 76
f 77 111 78
f 77 114 112
f 77 112 111
f 78 111 115
f 78 115 116
f 78 116 117
f 78 117 80
f 78 80 79
f 80 117 81
f 81 117 118
f 81 118 84
f 83 84 85
f 84 118 119
f 84 119 120
f 84 120 121
f 84 121 85
f 85 121 122
f 85 122 86
f 86 122 123
f 86 123 87
f 87 123 124
f 87 124 125
f 87 125 88
f 88 125 91
f 91 126 127
f 91 127 128
f 91 128 129
f 91 129 92
f 91 125 126
f 92 129 130
f 92 130 131
f 92 131 132
f 92 132 93
f 94 133 134
f 94 134 135
f 94 135 136
f 94 136 95
f 99 137 138
f 99 138 100
f 100 139 140
f 100 140 141
f 100 141 101
f 100 138 139
f 104 142 105
f 105 142 143
f 106 108 109
f 107 144 108
f 108 144 145
f 108 145 146
f 108 146 147
f 108 147 109
f 109 148 149
f 109 149 111
f 109 111 110
f 109 147 150
f 109 150 148
f 111 149 151
f 111 151 115
f 112 114 113
f 115 152 153
f 115 153 116
f 115 151 154
f 115 154 155
f 115 155 156
f 115 156 157
f 115 157 158
f 115 158 152
f 116 153 117
f 117 153 159
f 117 159 160
f 117 160 161
f 117 161 119
f 117 119 118
f 119 161 162
f 119 162 163
f 119 163 164
f 119 164 165
f 119 165 120
f 120 166 167
f 120 167 168
f 120 168 121
f 120 165 164
f 120 164 166
f 121 168 169
f 121 169 122
f 122 169 123
f 123 169 170
f 123 170 126
f 123 126 171
f 123 171 124
f 124 171 126
f 124 126 125
f 126 170 172
f 126 172 128
f 126 128 127
f 128 172 173
f 128 173 129
f 129 173 130
f 130 173 174
f 130 174 175
f 130 175 176
f 130 176 131
f 133 177 134
f 134 178 179
f 134 179 180
f 134 180 181
f 134 181 182
f 134 182 183
f 134 183 184
f 134 184 185
f 134 185 135
f 134 177 186
f 134 186 187
f 134 187 178
f 135 185 188
f 137 188 185
f 137 185 139
f 137 139 138
f 139 185 184
f 139 184 189
f 139 189 190
f 139 190 140
f 140 190 191
f 140 191 192
f 140 192 193
f 140 193 194
f 140 194 141
f 142 195 196
f 142 196 143
f 143 196 197
f 144 198 145
f 145 199 146
f 145 198 200
f 145 200 201
f 145 201 202
f 145 202 199
f 146 199 203
f 146 203 204
f 146 204 147
f 147 204 205
f 147 205 150
f 148 150 205
f 148 205 149
f 149 205 206
f 149 206 207
f 149 207 154
f 149 154 151
f 152 158 153
f 153 208 159
f 153 158 209
f 153 209 210
f 153 210 211
f 153 211 212
f 153 212 213
f 153 213 214
f 153 214 208
f 154 207 215
f 154 215 216
f 154 216 217
f 154 217 155
f 155 217 156
f 156 218 157
f 156 217 219
f 156 219 220
f 156 220 218
f 157 218 158
f 158 218 210
f 158 210 209
f 159 208 221
f 159 221 222
f 159 222 160
f 160 222 223
f 160 223 161
f 161 223 163
f 161 163 162
f 163 223 166
f 163 166 164
f 166 224 167
f 166 223 222
f 166 222 224
f 167 224 222
f 167 222 225
f 167 225 168
f 168 225 226
f 168 226 227
f 168 227 228
f 168 228 169
f 169 228 170
f 170 228 229
f 170 229 230
f 170 230 231
f 170 231 232
f 170 232 172
f 172 232 233
f 172 233 234
f 172 234 173
f 173 234 235
f 173 235 174
f 178 187 236
f 178 236 237
f 178 237 238
f 178 238 179
f 179 239 240
f 179 240 241
f 179 241 242
f 179 242 243
f 179 243 244
f 179 244 245
f 179 245 246
f 179 246 247
f 179 247 248
f 179 248 249
f 179 249 181
f 179 181 180
f 179 238 250
f 179 250 251
f 179 251 252
f 179 252 239
f 181 249 253
f 181 253 182
f 182 253 254
f 182 254 183
f 183 254 189
f 183 189 184
f 189 254 255
f 189 255 190
f 190 255 256
f 190 256 191
f 191 256 257
f 191 257 258
f 191 258 259
f 191 259 260
f 191 260 261
f 191 261 262
f 191 262 263
f 191 263 264
f 191 264 265
f 191 265 266
f 191 266 267
f 191 267 192
f 195 268 269
f 195 269 270
f 195 270 196
f 196 271 197
f 196 270 272
f 196 272 273
f 196 273 274
f 196 274 275
f 196 275 271
f 199 276 277
f 199 277 203
f 199 202 278
f 199 278 276
f 201 279 202
f 202 280 281
f 202 281 282
f 202 282 283
f 202 283 284
f 202 284 278
f 202 279 280
f 203 277 204
f 204 277 205
f 205 277 285
f 205 285 286
f 205 286 215
f 205 215 206
f 206 215 207
f 208 214 287
f 208 287 221
f 210 218 211
f 211 288 289
f 211 289 212
f 211 218 220
f 211 220 247
f 211 247 288
f 212 289 213
f 213 290 291
f 213 291 292
f 213 292 287
f 213 287 214
f 213 289 290
f 215 217 216
f 215 286 293
f 215 293 217
f 217 293 219
f 219 293 294
f 219 294 220
f 220 295 296
f 220 296 297
f 220 297 249
f 220 249 247
f 220 294 277
f 220 277 295
f 221 287 292
f 221 292 222
f 222 292 225
f 225 291 298
f 225 298 226
f 225 292 291
f 226 298 299
f 226 299 227
f 227 299 300
f 227 300 228
f 228 301 302
f 228 302 229
f 228 300 301
f 229 302 230
f 230 303 304
f 230 304 231
f 230 302 303
f 231 305 306
f 231 306 232
f 231 304 303
f 231 303 305
f 232 306 307
f 232 307 233
f 233 307 308
f 233 308 309
f 233 309 234
f 234 310 235
f 234 309 310
f 237 311 312
f 237 312 238
f 238 312 250
f 239 252 240
f 240 252 313
f 240 313 314
f 240 314 315
f 240 315 316
f 240 316 241
f 241 316 242
f 242 317 243
f 242 316 318
f 242 318 319
f 242 319 320
f 242 320 317
f 243 317 244
f 244 317 321
f 244 321 288
f 244 288 245
f 245 288 246
f 246 288 247
f 247 249 248
f 249 297 254
f 249 254 253
f 250 312 322
f 250 322 251
f 251 313 252
f 251 322 313
f 254 297 323
f 254 323 324
f 254 324 255
f 255 324 325
f 255 325 257
f 255 257 256
f 257 325 326
f 257 326 258
f 258 326 327
f 268 328 269
f 269 328 329
f 269 329 330
f 269 330 331
f 269 331 332
f 269 332 270
f 270 332 273
f 270 273 272
f 271 275 333
f 273 332 334
f 273 334 275
f 273 275 274
f 275 335 336
f 275 336 337
f 275 337 333
f 275 334 335
f 276 278 338
f 276 338 277
f 277 294 285
f 277 338 339
f 277 339 325
f 277 325 324
f 277 324 323
f 277 323 295
f 278 284 338
f 281 340 282
f 282 340 341
f 282 341 283
f 283 341 342
f 283 342 325
f 283 325 284
f 284 325 338
f 285 294 293
f 285 293 286
f 288 321 317
f 288 317 343
f 288 343 320
f 288 320 289
f 289 320 344
f 289 344 290
f 290 344 291
f 291 344 345
f 291 345 346
f 291 346 298
f 295 323 296
f 296 323 297
f 298 346 299
f 299 346 347
f 299 347 300
f 300 347 348
f 300 348 349
f 300 349 350
f 300 350 351
f 300 351 352
f 300 352 353
f 300 353 301
f 301 353 354
f 301 354 302
f 302 354 355
f 302 355 303
f 303 355 305
f 305 355 306
f 306 356 357
f 306 357 358
f 306 358 307
f 306 355 356
f 307 358 308
f 308 359 360
f 308 360 361
f 308 361 309
f 308 358 357
f 308 357 359
f 309 361 310
f 311 362 363
f 311 363 364
f 311 364 312
f 311 365 366
f 311 366 367
f 311 367 368
f 311 368 369
f 311 369 362
f 312 364 370
f 312 370 322
f 313 322 370
f 313 370 371
f 313 371 372
f 313 372 373
f 313 373 374
f 313 374 369
f 313 369 368
f 313 368 375
f 313 375 376
f 313 376 314
f 314 376 316
f 314 316 315
f 316 376 377
f 316 377 378
f 316 378 318
f 317 320 343
f 318 379 380
f 318 380 381
f 318 381 319
f 318 378 379
f 319 381 320
f 320 381 344
f 325 342 326
f 325 339 338
f 326 342 382
f 326 382 383
f 326 383 327
f 328 384 329
f 329 384 385
f 329 385 386
f 329 386 330
f 330 386 387
f 330 387 388
f 330 388 389
f 330 389 359
f 330 359 356
f 330 356 390
f 330 390 391
f 330 391 331
f 331 391 392
f 331 392 393
f 331 393 394
f 331 394 395
f 331 395 332
f 332 395 396
f 332 396 334
f 333 337 397
f 334 396 335
f 335 398 399
f 335 399 336
f 335 396 398
f 336 399 400
f 336 400 401
f 336 401 402
f 336 402 337
f 337 403 404
f 337 404 397
f 337 402 405
f 337 405 403
f 340 406 382
f 340 382 407
f 340 407 341
f 341 407 382
f 341 382 342
f 344 408 409
f 344 409 345
f 344 381 408
f 345 409 348
f 345 348 347
f 345 347 346
f 348 410 349
f 348 409 410
f 349 410 350
f 350 410 411
f 350 411 351
f 351 411 412
f 351 412 413
f 351 413 414
f 351 414 415
f 351 415 354
f 351 354 353
f 351 353 352
f 354 415 416
f 354 416 417
f 354 417 390
f 354 390 355
f 355 390 356
f 356 359 357
f 359 418 360
f 359 389 419
f 359 419 420
f 359 420 418
f 362 369 363
f 363 372 364
f 363 369 372
f 364 372 370
f 365 421 366
f 366 421 422
f 366 422 423
f 366 423 367
f 367 423 422
f 367 422 424
f 367 424 368
f 368 424 425
f 368 425 375
f 369 374 372
f 370 372 371
f 372 374 373
f 375 425 426
f 375 426 376
f 376 426 427
f 376 427 408
f 376 408 428
f 376 428 378
f 376 378 377
f 378 429 430
f 378 430 379
f 378 428 429
f 379 430 429
f 379 429 408
f 379 408 380
f 380 408 381
f 382 406 383
f 387 389 388
f 387 431 419
f 387 419 389
f 390 417 391
f 391 417 432
f 391 432 433
f 391 433 392
f 392 433 393
f 393 433 434
f 393 434 435
f 393 435 436
f 393 436 437
f 393 437 394
f 394 437 395
f 395 437 396
f 396 437 398
f 398 437 436
f 398 436 399
f 399 436 400
f 400 435 438
f 400 438 439
f 400 439 440
f 400 440 441
f 400 441 401
f 400 436 435
f 401 441 440
f 401 440 442
f 401 442 443
f 401 443 444
f 401 444 445
f 401 445 446
f 401 446 402
f 402 447 405
f 402 446 448
f 402 448 447
f 408 429 428
f 408 427 409
f 409 427 449
f 409 449 450
f 409 450 451
f 409 451 435
f 409 435 412
f 409 412 452
f 409 452 411
f 409 411 410
f 411 452 412
f 412 435 413
f 413 433 414
f 413 435 433
f 414 433 415
f 415 433 416
f 416 433 453
f 416 453 417
f 417 453 433
f 417 433 432
f 419 431 420
f 421 454 422
f 422 454 424
f 424 454 455
f 424 455 425
f 425 456 457
f 425 457 426
f 425 455 458
f 425 458 459
f 425 459 456
f 426 457 460
f 426 460 449
f 426 449 427
f 433 435 434
f 435 451 461
f 435 461 462
f 435 462 460
f 435 460 463
f 435 463 438
f 438 463 464
f 438 464 465
f 438 465 439
f 439 465 440
f 440 465 464
f 440 464 466
f 440 466 442
f 442 466 467
f 442 467 468
f 442 468 443
f 443 445 444
f 445 448 446
f 449 460 462
f 449 462 469
f 449 469 451
f 449 451 450
f 451 469 461
f 454 458 455
f 456 470 471
f 456 471 457
f 456 459 472
f 456 472 473
f 456 473 470
f 457 471 468
f 457 468 467
f 457 467 474
f 457 474 460
f 460 474 464
f 460 464 463
f 461 469 462
f 464 474 466
f 466 474 467

