# https://github.com/mikedh/trimesh
v -0.09750791 0.03105391 0.04039801
v -0.09750791 0.02474569 0.04039801
v -0.09540420 0.03525939 0.04038408
v -0.09750791 0.03315665 0.04038872
v -0.10171108 0.00163572 0.04039801
v -0.09540420 0.03525267 0.04038408
v -0.09960737 -0.01937823 0.04039801
v -0.09750791 -0.02567973 0.04038872
v -0.09750791 0.03525939 0.04024476
v -0.09330474 0.03525939 0.03982679
v -0.08123496 0.03663658 0.00840050
v -0.09336849 0.03663658 0.00840050
v -0.09960737 0.02894446 0.04015188
v -0.09960737 0.02684843 0.04022154
v -0.10171108 0.00373174 0.04037943
v -0.10381055 0.00583448 0.03969212
v -0.10381055 -0.00256304 0.03970605
v -0.10170683 -0.00256304 0.04038408
v -0.09330474 0.03525267 0.03982679
v -0.09540420 -0.03199467 0.04008686
v -0.09960737 -0.02147425 0.04038872
v -0.09750791 -0.02778247 0.04035157
v -0.09919513 0.03525939 0.03939490
v -0.09960737 0.03105391 0.03993825
v -0.09197876 0.03525939 0.03897229
v -0.06207631 0.03663658 -0.00704562
v -0.09704042 0.03525939 0.01654616
v -0.09753766 0.03525939 0.01870100
v -0.09797115 0.03525939 0.02081869
v -0.09803065 0.03525939 0.02112984
v -0.09833664 0.03525939 0.02274597
v -0.09877864 0.03525939 0.02514695
v -0.09950962 0.03525939 0.02921978
v -0.09987087 0.03525939 0.03131889
v -0.10015986 0.03525939 0.03342265
v -0.10020661 0.03525939 0.03552640
v -0.09998136 0.03525939 0.03762551
v -0.09285425 0.03663658 0.00723948
v -0.09217426 0.03613273 0.00524254
v -0.09473696 0.03525939 0.01023954
v -0.09582494 0.03508472 0.01259872
v -0.09574419 0.03525939 0.01258943
v -0.09644543 0.03525939 0.01452136
v -0.09692142 0.03525939 0.01611891
v -0.10171108 0.02474569 0.03959459
v -0.10171108 0.02264296 0.03973391
v -0.10171108 0.02054022 0.03983144
v -0.10381055 0.00793050 0.03961781
v -0.10508552 0.00793050 0.03896764
v -0.10499627 -0.00256304 0.03885618
v -0.10498353 -0.00466578 0.03882368
v -0.10381055 -0.00466578 0.03965961
v -0.10170683 -0.00887126 0.04030978
v -0.10170683 -0.00676852 0.04034693
v -0.10170683 -0.00466578 0.04037015
v -0.09197876 0.03525267 0.03897229
v -0.09358948 -0.03199467 0.03928344
v -0.09750791 -0.02988521 0.04024011
v -0.09750791 -0.03199467 0.04004971
v -0.09960737 -0.02357699 0.04034228
v -0.10075485 0.03239752 0.03884225
v -0.10097160 0.03105391 0.03907910
v -0.10129459 0.02894446 0.03929737
v -0.09109053 0.03525939 0.03762551
v -0.08236544 0.03663658 -0.00704562
v -0.09109053 0.03525267 0.03762551
v -0.09172802 -0.03199467 0.03733294
v -0.09066129 -0.03199467 0.03542888
v -0.08977305 -0.03199467 0.03343658
v -0.08890607 -0.03199467 0.03131425
v -0.08824733 -0.03199467 0.02950307
v -0.08217844 -0.03199467 0.00810792
v -0.07287536 0.00131326 -0.00704562
v -0.09670043 0.03469508 0.01452136
v -0.09786915 0.03315665 0.01662047
v -0.09828990 0.03310291 0.01865456
v -0.09844714 0.03384861 0.02081869
v -0.10097585 0.02695592 0.02288994
v -0.10075910 0.03032837 0.02758972
v -0.10065285 0.03209520 0.03028327
v -0.10073360 0.03239080 0.03168577
v -0.10055085 0.03379486 0.03342265
v -0.10199582 0.02894446 0.03552640
v -0.10143059 0.03105391 0.03552640
v -0.10089509 0.03292152 0.03552640
v -0.10058911 0.03397625 0.03552640
v -0.10021086 0.03525267 0.03552640
v -0.10051686 0.03377471 0.03762551
v -0.09205951 0.03663658 0.00552583
v -0.09122652 0.03663658 0.00390970
v -0.09046154 0.03663658 0.00246075
v -0.09184277 0.03536016 0.00398865
v -0.09245476 0.03472867 0.00467597
v -0.09439697 0.03012683 0.00498247
v -0.09647518 0.03426512 0.01342072
v -0.10181308 0.02676782 0.03928344
v -0.10293506 0.02474569 0.03888869
v -0.10307106 0.02264296 0.03901873
v -0.10319006 0.02054022 0.03910696
v -0.10487728 0.01121561 0.03870293
v -0.10533202 0.00793050 0.03762551
v -0.10530652 -0.00466578 0.03763016
v -0.10528101 -0.00676852 0.03763016
v -0.10493677 -0.00676852 0.03876330
v -0.10381055 -0.00676852 0.03957137
v -0.10170683 -0.01517947 0.04014259
v -0.10170683 -0.01307002 0.04020760
v -0.10170683 -0.01097400 0.04026333
v -0.09253975 -0.03199467 0.03838714
v -0.09960737 -0.02567973 0.04017509
v -0.09929288 -0.03199467 0.03924164
v -0.09960737 -0.02778247 0.03985930
v -0.10170683 -0.01727549 0.04003113
v -0.10282881 0.02601540 0.03876795
v -0.08398891 0.03649550 -0.00559668
v -0.08373816 0.03663658 -0.00574993
v -0.08309643 0.03525939 -0.00704562
v -0.09469021 -0.03199467 0.00810792
v -0.08960731 0.00131326 -0.00704562
v -0.09724866 0.03315665 0.01452136
v -0.09853214 0.02781583 0.01355539
v -0.09853214 0.02991857 0.01565915
v -0.09839189 0.03116812 0.01646257
v -0.09870639 0.03055006 0.01705236
v -0.09851514 0.03194741 0.01791151
v -0.10164733 0.02474569 0.02291780
v -0.10137534 0.02684843 0.02501691
v -0.10197458 0.02474569 0.02501691
v -0.10222532 0.02474569 0.02711602
v -0.10259081 0.02513534 0.03131889
v -0.10270132 0.02556529 0.03342265
v -0.10275231 0.02578027 0.03453722
v -0.10256532 0.02674094 0.03535457
v -0.10280331 0.02596837 0.03593972
v -0.10284156 0.02608930 0.03762551
v -0.10138809 0.03105391 0.03762551
v -0.10085685 0.03271998 0.03762551
v -0.09030854 0.03663658 0.00224713
v -0.08990905 0.03562216 0.00116971
v -0.09062729 0.03505113 0.00188489
v -0.09206376 0.03363363 0.00327346
v -0.09415472 0.02684843 0.00330597
v -0.09451597 0.02895117 0.00474563
v -0.09868514 0.01997590 0.00905066
v -0.09849389 0.02137325 0.00938968
v -0.09881264 0.02264296 0.01082005
v -0.09893163 0.02469195 0.01237580
v -0.09873614 0.02641176 0.01304919
v -0.09228901 0.03222956 0.00289729
v -0.09270975 0.02874963 0.00188489
v -0.09220826 0.02354317 -0.00118947
v -0.09289674 0.02276388 -0.00037212
v -0.10382329 0.02054022 0.03762551
v -0.10490702 0.01351317 0.03683602
v -0.10497077 0.01200834 0.03757443
v -0.10516202 0.01003996 0.03762551
v -0.10545951 0.00373174 0.03131889
v -0.10545951 0.00373174 0.03342265
v -0.10549351 0.00163572 0.03342265
v -0.10548501 -0.00256304 0.03552640
v -0.10548501 -0.00466578 0.03552640
v -0.10486877 0.01544124 0.03456508
v -0.10486877 0.01544124 0.03439790
v -0.10545951 -0.00676852 0.03552640
v -0.10537451 -0.00887126 0.03552640
v -0.10512802 -0.00893844 0.03781127
v -0.10489003 -0.00828007 0.03871222
v -0.10400604 -0.00893844 0.03931595
v -0.10371280 -0.01097400 0.03940418
v -0.10170683 -0.01937823 0.03981750
v -0.10144759 -0.02357699 0.03948313
v -0.10120109 -0.02567973 0.03931595
v -0.10034261 -0.03199467 0.03773697
v -0.10093760 -0.02778247 0.03904195
v -0.10075060 -0.02919325 0.03881439
v -0.10054236 -0.03059732 0.03846144
v -0.10353855 -0.01307002 0.03934846
v -0.10335155 -0.01517947 0.03928808
v -0.10313906 0.02474569 0.03762551
v -0.10407404 0.02054022 0.03552640
v -0.10352580 0.02264296 0.03762551
v -0.08605437 0.03646863 -0.00347899
v -0.08321967 0.03525939 -0.00692487
v -0.08426515 0.03525939 -0.00587532
v -0.08531488 0.03525939 -0.00480254
v -0.08414616 0.03663658 -0.00532732
v -0.08333867 0.03463462 -0.00704562
v -0.09476671 -0.03199467 0.00824260
v -0.09478371 -0.03184015 0.00818223
v -0.09473696 -0.03185359 0.00810792
v -0.09073778 0.00131326 -0.00599142
v -0.08926306 0.01214270 -0.00704562
v -0.09963287 0.02474569 0.01452136
v -0.09895289 0.02911240 0.01646257
v -0.10065710 0.02581386 0.01975985
v -0.10120109 0.02474569 0.02081869
v -0.10078460 0.02620350 0.02081869
v -0.10215732 0.02264296 0.02291780
v -0.10252707 0.02255562 0.02503549
v -0.10281181 0.02179649 0.02575067
v -0.10290106 0.02213239 0.02711602
v -0.10262907 0.02318712 0.02711602
v -0.10298606 0.02274373 0.02927086
v -0.10286281 0.02408733 0.03131889
v -0.10401029 0.02054022 0.03342265
v -0.10302856 0.02494723 0.03535457
v -0.10361930 0.02264296 0.03552640
v -0.08820908 0.03663658 -0.00058110
v -0.08798383 0.03612601 -0.00116161
v -0.08770759 0.03315665 -0.00289848
v -0.08794133 0.03180633 -0.00320963
v -0.09015129 0.03421810 0.00084927
v -0.09225500 0.02790988 0.00084927
v -0.09173652 0.03105391 0.00157838
v -0.09144327 0.03301557 0.00207994
v -0.09429497 0.02548468 0.00306448
v -0.09401023 0.02264296 0.00151801
v -0.09430347 0.01914959 0.00094679
v -0.09880838 0.01843748 0.00885097
v -0.09940337 0.01843748 0.01031385
v -0.09900388 0.02062083 0.01017917
v -0.09418872 0.02054693 0.00116506
v -0.09945437 0.02264296 0.01241760
v -0.09027454 0.02410748 -0.00349756
v -0.09238675 0.02213910 -0.00142167
v -0.09201276 0.02474569 -0.00092012
v -0.08984105 0.02684843 -0.00293099
v -0.09006204 0.02550483 -0.00322821
v -0.09342374 0.02054693 -0.00019564
v -0.10444378 0.01843748 0.03552640
v -0.10472853 0.01622053 0.03537315
v -0.10520027 0.00373174 0.02921978
v -0.10515776 0.00163572 0.02921978
v -0.10540002 0.00163572 0.03131889
v -0.10544251 -0.00256304 0.03342729
v -0.10548501 -0.00046030 0.03342729
v -0.10475403 0.01622053 0.03358983
v -0.10449478 0.01634146 0.03131889
v -0.10409104 0.01213598 0.02501691
v -0.10448203 0.01843748 0.03342265
v -0.10524701 -0.00676852 0.03342729
v -0.10514502 -0.00887126 0.03342729
v -0.10409529 -0.01097400 0.02501691
v -0.10490277 -0.01027532 0.03202478
v -0.10497077 -0.01097400 0.03346909
v -0.10515776 -0.01097400 0.03552640
v -0.10493252 -0.01237806 0.03692426
v -0.10505151 -0.01097400 0.03732829
v -0.10483903 -0.00967742 0.03863327
v -0.10316456 -0.01727549 0.03917198
v -0.10295206 -0.01937823 0.03895836
v -0.10281181 -0.02067481 0.03877259
v -0.10037661 -0.03199467 0.03765338
v -0.10084835 -0.03137661 0.03705894
v -0.10157933 -0.02778247 0.03763016
v -0.10103959 -0.02989193 0.03770911
v -0.08629237 0.03525939 -0.00375299
v -0.08744409 0.03536016 -0.00222974
v -0.08615637 0.03663658 -0.00320499
v -0.08574838 0.03663658 -0.00366011
v -0.08593112 0.03206161 -0.00543413
v -0.08571863 0.03315665 -0.00522051
v -0.08786908 0.02743290 -0.00524837
v -0.08374241 0.03356645 -0.00704562
v -0.08619887 0.03066427 -0.00569884
v -0.09577394 -0.03199467 0.01032313
v -0.09619043 -0.02988521 0.00984944
v -0.09475821 -0.03178641 0.00810792
v -0.09636468 -0.02851473 0.00945005
v -0.09528095 -0.02988521 0.00810792
v -0.09178752 0.00131326 -0.00496973
v -0.09052954 0.01003996 -0.00583352
v -0.09045729 0.01214270 -0.00577315
v -0.08902082 0.01424544 -0.00704562
v -0.10010461 0.02264296 0.01452136
v -0.10067410 0.02375143 0.01760501
v -0.10048710 0.02515549 0.01835734
v -0.10078035 0.02457103 0.01891927
v -0.10168983 0.02264296 0.02081869
v -0.10254407 0.02051335 0.02298746
v -0.10270132 0.02119858 0.02435281
v -0.10421854 0.01843748 0.03131889
v -0.10377229 0.02054022 0.03131889
v -0.10323680 0.02264296 0.03131889
v -0.08818358 0.03040226 -0.00353007
v -0.08990905 0.03105391 -0.00092476
v -0.09010880 0.02987826 -0.00118947
v -0.09068253 0.03105391 0.00012944
v -0.09061454 0.02684843 -0.00187679
v -0.09383173 0.01845091 -0.00004239
v -0.09440547 0.01775224 0.00076568
v -0.09660268 0.01003996 0.00269296
v -0.09629668 0.01424544 0.00324095
v -0.09857889 0.01331835 0.00712338
v -0.09864689 0.01214270 0.00698406
v -0.09919938 0.01214270 0.00821009
v -0.09963712 0.01634146 0.01031385
v -0.10007911 0.01843748 0.01241760
v -0.09981987 0.02054022 0.01241760
v -0.10150284 0.01213598 0.01452136
v -0.10070385 0.01566966 0.01332783
v -0.09043179 0.02264296 -0.00368333
v -0.08812408 0.02602884 -0.00552701
v -0.09167702 0.02054693 -0.00267557
v -0.09253550 0.02054693 -0.00162137
v -0.08868932 0.02678125 -0.00448675
v -0.08959456 0.02909225 -0.00224367
v -0.08843433 0.02895117 -0.00385516
v -0.10494952 0.00373174 0.02765009
v -0.10479653 0.00163572 0.02654016
v -0.10494952 0.00163572 0.02758972
v -0.10381055 0.01213598 0.02291780
v -0.10391254 0.01003996 0.02291780
v -0.10492403 0.00130654 0.02745968
v -0.10478377 -0.00046030 0.02676308
v -0.10538726 0.00130654 0.03131889
v -0.10421004 0.01634146 0.02921978
v -0.10416328 0.01423872 0.02711602
v -0.10443528 -0.00887126 0.02712067
v -0.10376379 -0.01097400 0.02291780
v -0.10389980 -0.01307002 0.02501691
v -0.10432053 -0.01097400 0.02712067
v -0.10429079 -0.00676852 0.02501691
v -0.10414629 -0.00466578 0.02291780
v -0.10404429 -0.00676852 0.02291780
v -0.10391679 -0.00887126 0.02291780
v -0.10412504 -0.01307002 0.02712067
v -0.10482203 -0.01167939 0.03279570
v -0.10488577 -0.01221011 0.03419820
v -0.10438854 -0.01517947 0.03342729
v -0.10493252 -0.01242509 0.03552640
v -0.10460528 -0.01307673 0.03762087
v -0.10476253 -0.01097400 0.03837785
v -0.10475827 -0.01347982 0.03552640
v -0.10446078 -0.01517947 0.03552640
v -0.10406129 -0.01727549 0.03552640
v -0.10290531 -0.02326125 0.03552640
v -0.10285006 -0.02299253 0.03692426
v -0.10381055 -0.01727549 0.03763016
v -0.10339406 -0.01937823 0.03763016
v -0.10265882 -0.02207888 0.03832677
v -0.10076335 -0.03199467 0.03552640
v -0.10095460 -0.03158487 0.03552640
v -0.10151134 -0.02988521 0.03552640
v -0.10206807 -0.02567973 0.03763016
v -0.08389541 0.03315665 -0.00704562
v -0.09582069 -0.03199467 0.01045317
v -0.09650068 -0.03104743 0.01126588
v -0.09666218 -0.02988521 0.01090364
v -0.09690017 -0.02780262 0.01021632
v -0.09749941 -0.02567973 0.01031385
v -0.09850240 -0.02023142 0.00938968
v -0.09261625 0.00131326 -0.00408736
v -0.09655168 -0.02711067 0.00909710
v -0.09582069 -0.02780934 0.00810792
v -0.09157927 0.01003996 -0.00470966
v -0.09150702 0.01214270 -0.00462142
v -0.08936081 0.01424544 -0.00666016
v -0.08854908 0.01687218 -0.00704562
v -0.10044036 0.02064770 0.01455851
v -0.10063160 0.02141356 0.01568237
v -0.10051686 0.02264296 0.01613284
v -0.10078035 0.02264296 0.01717775
v -0.10205533 0.02054022 0.02081869
v -0.10266732 0.01892789 0.02233265
v -0.10280756 0.01979452 0.02373051
v -0.10389980 0.01843748 0.02921978
v -0.10352155 0.01423872 0.02291780
v -0.10355130 0.01634146 0.02501691
v -0.10388704 0.01634146 0.02711602
v -0.09387423 0.01634146 -0.00046035
v -0.09466046 0.01424544 0.00034771
v -0.09450747 0.01634146 0.00059385
v -0.09599919 0.01003996 0.00164340
v -0.09675143 0.00793722 0.00244218
v -0.09759716 0.00793722 0.00400722
v -0.09834939 0.00793722 0.00552118
v -0.09874464 0.01003996 0.00677508
v -0.09939487 0.01003996 0.00821009
v -0.09925888 0.01233080 0.00840050
v -0.09984537 0.01423872 0.01031385
v -0.10091209 0.01213598 0.01274733
v -0.10173658 0.01003996 0.01452136
v -0.10061885 0.01706700 0.01359719
v -0.10053810 0.01843748 0.01387583
v -0.10254407 0.00793050 0.01626288
v -0.10287131 0.00793050 0.01730779
v -0.10245907 0.00997950 0.01676443
v -0.08953081 0.02264296 -0.00473288
v -0.09062303 0.02054693 -0.00390624
v -0.08827283 0.02474569 -0.00567562
v -0.08415040 0.03246469 -0.00704562
v -0.08443940 0.03166525 -0.00704562
v -0.08532338 0.02893774 -0.00704562
v -0.08597787 0.02683500 -0.00704562
v -0.08660261 0.02475241 -0.00704562
v -0.08672586 0.02431574 -0.00704562
v -0.08743559 0.02178305 -0.00704562
v -0.08771184 0.02076863 -0.00704562
v -0.09231026 0.01354676 -0.00342326
v -0.09242500 0.01214270 -0.00357187
v -0.09328349 0.01214270 -0.00229940
v -0.09401447 0.01424544 -0.00070184
v -0.10476678 0.00373174 0.02660053
v -0.10449478 0.00130654 0.02468718
v -0.10355555 0.01003996 0.02081869
v -0.10422279 -0.00046030 0.02291780
v -0.10388704 -0.00256304 0.02081869
v -0.10421429 -0.00256304 0.02291780
v -0.10455003 -0.00046030 0.02501691
v -0.10336430 0.01213598 0.02081869
v -0.10387004 0.01423872 0.02501691
v -0.10368305 -0.00676852 0.02081869
v -0.10350030 -0.00887126 0.02081869
v -0.10328781 -0.01097400 0.02081869
v -0.10355130 -0.01307002 0.02291780
v -0.10358105 -0.01517947 0.02501691
v -0.10352155 -0.01727549 0.02712067
v -0.10383604 -0.01517947 0.02712067
v -0.10382329 -0.00466578 0.02081869
v -0.10471578 -0.01297596 0.03346909
v -0.10374255 -0.01727549 0.02921978
v -0.10393379 -0.01727549 0.03131889
v -0.10361930 -0.01937823 0.03131889
v -0.10404854 -0.01727549 0.03342729
v -0.10326655 -0.02147425 0.03131889
v -0.10367454 -0.01937823 0.03342729
v -0.10327081 -0.02147425 0.03342729
v -0.10270982 -0.02437644 0.03342729
v -0.10245057 -0.02567973 0.03342729
v -0.10241657 -0.02567973 0.03552640
v -0.10199158 -0.02778247 0.03552640
v -0.10251857 -0.02365089 0.03762551
v -0.10298181 -0.02142051 0.03762551
v -0.10064860 -0.03199467 0.03342729
v -0.10089085 -0.03144379 0.03342729
v -0.10142634 -0.02988521 0.03342729
v -0.10197882 -0.02778247 0.03342729
v -0.09595669 -0.03199467 0.01083862
v -0.09635618 -0.03199467 0.01197177
v -0.09650918 -0.03199467 0.01241296
v -0.09670467 -0.03151769 0.01241296
v -0.09796265 -0.02988521 0.01451671
v -0.09727417 -0.02988521 0.01241296
v -0.09784790 -0.02778247 0.01241296
v -0.09844714 -0.02416146 0.01166062
v -0.09896138 -0.01947229 0.01017917
v -0.09867239 -0.01882736 0.00906924
v -0.09276074 0.00131326 -0.00392017
v -0.09275650 0.00164244 -0.00390624
v -0.09250150 0.01003996 -0.00366011
v -0.09793290 -0.01945213 0.00810792
v -0.09148577 0.01424544 -0.00423597
v -0.09028729 0.01424544 -0.00560596
v -0.09005354 0.01685874 -0.00534125
v -0.08837908 0.01779927 -0.00704562
v -0.10084835 0.01843748 0.01492539
v -0.10073785 0.02001621 0.01528298
v -0.10271831 0.01501129 0.01993168
v -0.10186833 0.01843748 0.01871494
v -0.10278207 0.01752383 0.02178465
v -0.10287556 0.01634146 0.02140384
v -0.09426947 0.01045648 -0.00111052
v -0.09483046 0.00987201 -0.00032568
v -0.09480071 0.01214270 0.00012015
v -0.09611818 0.00793722 0.00138798
v -0.09455421 0.00373174 -0.00154242
v -0.09535320 0.00164244 -0.00019564
v -0.09535745 0.00131326 -0.00019564
v -0.09619893 0.00131326 0.00136011
v -0.09954787 -0.00676852 0.00810792
v -0.09957337 0.00793722 0.00821009
v -0.09955212 -0.00477999 0.00810792
v -0.09957762 0.00583448 0.00821009
v -0.10035536 0.00793050 0.01010486
v -0.10004511 0.01213598 0.01031385
v -0.10061461 0.01059755 0.01148879
v -0.10194908 0.00793050 0.01452136
v -0.10214883 0.01213598 0.01662047
v -0.10261207 0.00583448 0.01601674
v -0.10295206 0.00583448 0.01706165
v -0.10321130 0.00793050 0.01871494
v -0.10300731 0.00997950 0.01862205
v -0.10279056 0.00924051 0.01755857
v -0.09081853 0.01844420 -0.00412451
v -0.08811983 0.01905554 -0.00704562
v -0.09436297 0.00905913 -0.00125913
v -0.10375530 0.00373174 0.02081869
v -0.10381904 0.00130654 0.02081869
v -0.10412929 0.00130654 0.02259272
v -0.10386154 -0.00046030 0.02081869
v -0.10330905 0.00583448 0.01871494
v -0.10337280 0.00373174 0.01871494
v -0.10339406 0.00130654 0.01871494
v -0.10340255 -0.00046030 0.01871958
v -0.10339830 -0.00256304 0.01871958
v -0.10333880 -0.00466578 0.01871958
v -0.10291806 0.01213598 0.01923507
v -0.10302431 0.01427903 0.02071188
v -0.10282031 0.01360722 0.01956480
v -0.10318580 -0.00676852 0.01871958
v -0.10270982 -0.00941542 0.01786507
v -0.10262481 -0.01097400 0.01819944
v -0.10301581 -0.01311704 0.02068866
v -0.10264606 -0.01517947 0.02030320
v -0.10198308 -0.01727549 0.01871958
v -0.10288831 -0.01517947 0.02135276
v -0.10321980 -0.01517947 0.02291780
v -0.10321130 -0.01727549 0.02501691
v -0.10317306 -0.01937823 0.02712067
v -0.10312206 -0.02147425 0.02921978
v -0.10344930 -0.01937823 0.02921978
v -0.10292656 -0.02328140 0.03131889
v -0.10043611 -0.03199467 0.03131889
v -0.10074635 -0.03115492 0.03131889
v -0.10021936 -0.03199467 0.02937303
v -0.10235707 -0.02567973 0.03131889
v -0.10177483 -0.02778247 0.03131889
v -0.10115009 -0.02988521 0.03131889
v -0.10066560 -0.03097353 0.03020432
v -0.10268856 -0.02433613 0.03131889
v -0.09694267 -0.03199467 0.01379688
v -0.09711267 -0.03199467 0.01435881
v -0.09775440 -0.03199467 0.01662047
v -0.09828565 -0.03199467 0.01861277
v -0.09851514 -0.03078542 0.01785114
v -0.09840889 -0.03000614 0.01641613
v -0.09855339 -0.02882376 0.01558020
v -0.09844289 -0.02799073 0.01434024
v -0.09854064 -0.02666728 0.01352288
v -0.09831114 -0.02584768 0.01238509
v -0.09869364 -0.02526322 0.01306777
v -0.09929713 -0.02147425 0.01241296
v -0.10064435 -0.02035235 0.01562200
v -0.09974762 -0.01937823 0.01241296
v -0.09942887 -0.01727549 0.01031385
v -0.09881688 -0.01727549 0.00886490
v -0.09364898 0.00131326 -0.00283811
v -0.09373823 0.00373174 -0.00259662
v -0.09831114 -0.01727549 0.00810792
v -0.09381048 0.00131326 -0.00261519
v -0.09381048 0.00164244 -0.00261984
v -0.09456697 0.00164244 -0.00157028
v -0.09456271 0.00131326 -0.00156564
v -0.09945863 -0.00887126 0.00810792
v -0.09954362 -0.00688944 0.00810792
v -0.10081435 -0.00887126 0.01110798
v -0.10084835 -0.00676852 0.01104761
v -0.10083985 -0.00466578 0.01102903
v -0.10142634 -0.00466578 0.01241296
v -0.10035536 0.00583448 0.01004913
v -0.10139659 -0.00256304 0.01241296
v -0.10212757 0.00163572 0.01452136
v -0.10263332 0.00373174 0.01594708
v -0.10205958 0.00583448 0.01452136
v -0.10119260 0.00793050 0.01241760
v -0.10296481 0.00373174 0.01699199
v -0.10295631 0.00163572 0.01699199
v -0.10295631 0.00130654 0.01700128
v -0.10294356 -0.00046030 0.01703843
v -0.10292656 -0.00256304 0.01708952
v -0.10260357 -0.00466578 0.01610498
v -0.10290531 -0.00466578 0.01715453
v -0.10207658 -0.00676852 0.01451671
v -0.10284156 -0.00676852 0.01736816
v -0.10191933 -0.00887126 0.01451671
v -0.10222108 -0.01097400 0.01662047
v -0.10172383 -0.01517947 0.01662047
v -0.10226357 -0.01517947 0.01871958
v -0.10168134 -0.01097400 0.01451671
v -0.10197458 -0.01307002 0.01662047
v -0.10278207 -0.01635513 0.02175214
v -0.10145609 -0.01727549 0.01662047
v -0.10103110 -0.01953947 0.01643935
v -0.10162183 -0.01937823 0.01871958
v -0.10287981 -0.01714113 0.02306641
v -0.10264606 -0.01982834 0.02458502
v -0.10285856 -0.02131302 0.02730179
v -0.10276931 -0.02256257 0.02812378
v -0.10285006 -0.02289847 0.02921978
v -0.09992611 -0.03199467 0.02712531
v -0.10258232 -0.02394648 0.02921978
v -0.10210207 -0.02567973 0.02921978
v -0.10148159 -0.02778247 0.02921978
v -0.10045311 -0.03024799 0.02712067
v -0.09855764 -0.03199467 0.01970412
v -0.09881688 -0.03199467 0.02082798
v -0.09888489 -0.03000614 0.01861741
v -0.09873614 -0.02741970 0.01492074
v -0.10065710 -0.02251555 0.01767931
v -0.10013861 -0.02357699 0.01662047
v -0.09896988 -0.02584768 0.01434024
v -0.10001962 -0.02147425 0.01451671
v -0.10054660 -0.02168251 0.01643935
v -0.10083560 -0.02111820 0.01701986
v -0.10077610 -0.01894828 0.01520868
v -0.10042761 -0.01953947 0.01451207
v -0.09972637 -0.01517947 0.01031385
v -0.10013436 -0.01727549 0.01241296
v -0.10063585 -0.01187421 0.01143306
v -0.10074210 -0.01047014 0.01121479
v -0.09922913 -0.01097400 0.00810792
v -0.09895713 -0.01294909 0.00810792
v -0.09444796 0.00131326 -0.00172818
v -0.10131159 -0.00887126 0.01241296
v -0.10141359 -0.00676852 0.01241296
v -0.10213607 -0.00466578 0.01451671
v -0.10264606 0.00163572 0.01594708
v -0.10290956 0.00130654 0.01683874
v -0.10262057 -0.00256304 0.01604460
v -0.10100560 -0.01108820 0.01224577
v -0.10140934 -0.01307002 0.01451671
v -0.10202983 -0.01937823 0.02081869
v -0.10265032 -0.01775247 0.02246268
v -0.10091209 -0.01727549 0.01478607
v -0.10104384 -0.02168251 0.01851524
v -0.10156233 -0.02147425 0.02081869
v -0.10080160 -0.02307314 0.01907717
v -0.09981136 -0.02988521 0.02291780
v -0.10067835 -0.02891110 0.02596430
v -0.09962437 -0.03199467 0.02501691
v -0.09925463 -0.03199467 0.02291780
v -0.09937787 -0.02988521 0.02081869
v -0.10065285 -0.01618718 0.01348109
v -0.10088660 -0.01307002 0.01276126
v -0.10264606 0.00130654 0.01595637
f 1 2 6
f 1 6 3
f 1 3 4
f 1 4 5
f 1 5 7
f 1 7 2
f 2 7 8
f 2 8 6
f 3 9 4
f 3 6 19
f 3 19 10
f 3 10 11
f 3 11 12
f 3 12 9
f 4 9 13
f 4 13 14
f 4 14 15
f 4 15 5
f 5 15 16
f 5 16 17
f 5 17 18
f 5 18 7
f 6 8 20
f 6 20 19
f 7 21 8
f 7 18 21
f 8 21 22
f 8 22 20
f 9 12 23
f 9 23 24
f 9 24 13
f 10 19 56
f 10 56 25
f 10 25 11
f 11 26 65
f 11 65 116
f 11 116 186
f 11 186 260
f 11 260 259
f 11 259 208
f 11 208 138
f 11 138 91
f 11 91 90
f 11 90 89
f 11 89 38
f 11 38 12
f 11 25 26
f 12 27 28
f 12 28 29
f 12 29 30
f 12 30 31
f 12 31 32
f 12 32 33
f 12 33 34
f 12 34 35
f 12 35 36
f 12 36 37
f 12 37 23
f 12 38 39
f 12 39 40
f 12 40 41
f 12 41 42
f 12 42 43
f 12 43 44
f 12 44 27
f 13 24 45
f 13 45 46
f 13 46 47
f 13 47 14
f 14 47 15
f 15 47 16
f 16 47 48
f 16 48 49
f 16 49 17
f 17 50 51
f 17 51 52
f 17 52 108
f 17 108 53
f 17 53 54
f 17 54 55
f 17 55 18
f 17 49 50
f 18 55 21
f 19 20 57
f 19 57 56
f 20 22 58
f 20 58 59
f 20 59 111
f 20 111 173
f 20 173 253
f 20 253 342
f 20 342 435
f 20 435 514
f 20 514 516
f 20 516 581
f 20 581 621
f 20 621 622
f 20 622 587
f 20 587 586
f 20 586 525
f 20 525 524
f 20 524 523
f 20 523 522
f 20 522 441
f 20 441 440
f 20 440 439
f 20 439 347
f 20 347 266
f 20 266 188
f 20 188 118
f 20 118 72
f 20 72 71
f 20 71 70
f 20 70 69
f 20 69 68
f 20 68 67
f 20 67 109
f 20 109 57
f 21 60 22
f 21 55 54
f 21 54 53
f 21 53 108
f 21 108 60
f 22 60 58
f 23 37 61
f 23 61 62
f 23 62 63
f 23 63 24
f 24 63 45
f 25 56 66
f 25 66 64
f 25 64 26
f 26 64 66
f 26 66 67
f 26 67 68
f 26 68 69
f 26 69 70
f 26 70 71
f 26 71 72
f 26 72 73
f 26 73 119
f 26 119 192
f 26 192 274
f 26 274 359
f 26 359 456
f 26 456 486
f 26 486 399
f 26 399 398
f 26 398 397
f 26 397 396
f 26 396 395
f 26 395 394
f 26 394 393
f 26 393 392
f 26 392 346
f 26 346 264
f 26 264 187
f 26 187 117
f 26 117 65
f 27 44 74
f 27 74 75
f 27 75 28
f 28 75 29
f 29 75 76
f 29 76 30
f 30 76 31
f 31 76 77
f 31 77 32
f 32 77 33
f 33 77 78
f 33 78 79
f 33 79 34
f 34 79 80
f 34 80 35
f 35 80 81
f 35 81 82
f 35 82 83
f 35 83 84
f 35 84 85
f 35 85 86
f 35 86 87
f 35 87 36
f 36 87 37
f 37 87 88
f 37 88 61
f 38 89 39
f 39 89 90
f 39 90 91
f 39 91 92
f 39 92 93
f 39 93 94
f 39 94 40
f 40 94 41
f 41 74 42
f 41 94 95
f 41 95 74
f 42 74 43
f 43 74 44
f 45 63 96
f 45 96 97
f 45 97 98
f 45 98 99
f 45 99 49
f 45 49 46
f 46 49 48
f 46 48 47
f 49 99 98
f 49 98 97
f 49 97 100
f 49 100 101
f 49 101 102
f 49 102 51
f 49 51 50
f 51 102 103
f 51 103 104
f 51 104 105
f 51 105 52
f 52 105 106
f 52 106 107
f 52 107 108
f 56 57 109
f 56 109 67
f 56 67 66
f 58 60 110
f 58 110 59
f 59 110 112
f 59 112 111
f 60 108 107
f 60 107 106
f 60 106 113
f 60 113 110
f 61 114 62
f 61 88 114
f 62 114 63
f 63 114 97
f 63 97 96
f 65 115 116
f 65 117 115
f 72 118 119
f 72 119 73
f 74 95 120
f 74 120 75
f 75 120 121
f 75 121 122
f 75 122 123
f 75 123 124
f 75 124 125
f 75 125 76
f 76 125 78
f 76 78 77
f 78 126 127
f 78 127 79
f 78 125 126
f 79 127 80
f 80 127 128
f 80 128 129
f 80 129 81
f 81 129 130
f 81 130 82
f 82 130 131
f 82 131 132
f 82 132 133
f 82 133 83
f 83 133 134
f 83 134 135
f 83 135 84
f 84 135 85
f 85 135 86
f 86 135 136
f 86 136 87
f 87 136 137
f 87 137 88
f 88 137 114
f 91 138 139
f 91 139 140
f 91 140 141
f 91 141 94
f 91 94 92
f 92 94 93
f 94 142 143
f 94 143 144
f 94 144 145
f 94 145 146
f 94 146 147
f 94 147 148
f 94 148 121
f 94 121 95
f 94 141 149
f 94 149 150
f 94 150 151
f 94 151 152
f 94 152 142
f 95 121 120
f 97 114 100
f 100 153 154
f 100 154 155
f 100 155 156
f 100 156 101
f 100 114 153
f 101 157 158
f 101 158 159
f 101 159 160
f 101 160 161
f 101 161 102
f 101 156 162
f 101 162 163
f 101 163 157
f 102 161 164
f 102 164 103
f 103 164 165
f 103 165 166
f 103 166 167
f 103 167 104
f 104 167 168
f 104 168 105
f 105 168 169
f 105 169 106
f 106 169 113
f 110 113 170
f 110 170 171
f 110 171 172
f 110 172 112
f 111 112 172
f 111 172 174
f 111 174 175
f 111 175 176
f 111 176 173
f 113 169 177
f 113 177 178
f 113 178 170
f 114 135 179
f 114 179 180
f 114 180 181
f 114 181 153
f 114 137 136
f 114 136 135
f 115 182 116
f 115 117 183
f 115 183 184
f 115 184 185
f 115 185 182
f 116 182 186
f 117 187 183
f 118 188 189
f 118 189 190
f 118 190 191
f 118 191 119
f 119 191 192
f 121 148 193
f 121 193 122
f 122 194 123
f 122 193 194
f 123 194 124
f 124 194 195
f 124 195 196
f 124 196 125
f 125 196 197
f 125 197 126
f 126 128 127
f 126 197 196
f 126 196 198
f 126 198 199
f 126 199 128
f 128 199 200
f 128 200 201
f 128 201 202
f 128 202 129
f 129 202 203
f 129 203 130
f 130 203 204
f 130 204 205
f 130 205 131
f 131 205 132
f 132 205 206
f 132 206 133
f 133 206 134
f 134 206 207
f 134 207 135
f 135 207 179
f 138 208 209
f 138 209 139
f 139 209 210
f 139 210 211
f 139 211 285
f 139 285 212
f 139 212 140
f 140 212 213
f 140 213 214
f 140 214 215
f 140 215 149
f 140 149 141
f 142 216 144
f 142 144 143
f 142 152 217
f 142 217 216
f 144 218 219
f 144 219 220
f 144 220 221
f 144 221 146
f 144 146 145
f 144 216 217
f 144 217 222
f 144 222 218
f 146 221 223
f 146 223 147
f 147 223 148
f 148 223 193
f 149 215 214
f 149 214 213
f 149 213 150
f 150 213 151
f 151 224 225
f 151 225 152
f 151 213 226
f 151 226 227
f 151 227 228
f 151 228 224
f 152 225 229
f 152 229 217
f 153 181 230
f 153 230 154
f 154 231 162
f 154 162 156
f 154 156 155
f 154 230 231
f 157 232 233
f 157 233 234
f 157 234 235
f 157 235 236
f 157 236 159
f 157 159 158
f 157 163 237
f 157 237 238
f 157 238 239
f 157 239 232
f 159 236 161
f 159 161 160
f 161 236 164
f 162 231 230
f 162 230 240
f 162 240 163
f 163 240 237
f 164 236 235
f 164 235 165
f 165 235 241
f 165 241 242
f 165 242 243
f 165 243 244
f 165 244 245
f 165 245 246
f 165 246 247
f 165 247 248
f 165 248 166
f 166 248 249
f 166 249 167
f 167 249 169
f 167 169 168
f 169 249 177
f 170 178 250
f 170 250 171
f 171 250 172
f 172 250 251
f 172 251 252
f 172 252 174
f 173 176 254
f 173 254 253
f 174 252 175
f 175 252 255
f 175 255 256
f 175 256 176
f 176 256 254
f 177 249 178
f 178 249 250
f 179 207 180
f 180 240 230
f 180 230 181
f 180 207 240
f 182 185 257
f 182 257 258
f 182 258 209
f 182 209 208
f 182 208 259
f 182 259 260
f 182 260 186
f 183 187 261
f 183 261 184
f 184 262 185
f 184 261 262
f 185 262 263
f 185 263 257
f 187 264 265
f 187 265 261
f 188 266 267
f 188 267 189
f 189 268 190
f 189 267 269
f 189 269 270
f 189 270 268
f 190 268 191
f 191 268 271
f 191 271 192
f 192 272 273
f 192 273 274
f 192 271 272
f 193 223 275
f 193 275 276
f 193 276 194
f 194 276 277
f 194 277 195
f 195 277 196
f 196 277 278
f 196 278 276
f 196 276 279
f 196 279 198
f 198 279 280
f 198 280 281
f 198 281 200
f 198 200 199
f 200 281 282
f 200 282 240
f 200 240 283
f 200 283 201
f 201 283 205
f 201 205 203
f 201 203 202
f 203 205 284
f 203 284 204
f 204 284 205
f 205 283 240
f 205 240 207
f 205 207 206
f 209 258 210
f 210 258 257
f 210 257 211
f 211 257 285
f 212 285 286
f 212 286 287
f 212 287 288
f 212 288 213
f 213 288 289
f 213 289 226
f 217 229 222
f 218 290 291
f 218 291 292
f 218 292 293
f 218 293 219
f 218 222 229
f 218 229 290
f 219 293 292
f 219 292 294
f 219 294 295
f 219 295 296
f 219 296 297
f 219 297 220
f 220 298 299
f 220 299 221
f 220 297 383
f 220 383 300
f 220 300 301
f 220 301 298
f 221 299 223
f 223 299 275
f 224 302 225
f 224 228 303
f 224 303 302
f 225 302 304
f 225 304 305
f 225 305 229
f 226 289 227
f 227 306 228
f 227 289 287
f 227 287 307
f 227 307 308
f 227 308 306
f 228 306 303
f 229 305 290
f 232 309 310
f 232 310 311
f 232 311 233
f 232 239 312
f 232 312 313
f 232 313 309
f 233 311 314
f 233 314 315
f 233 315 316
f 233 316 234
f 234 316 235
f 235 316 241
f 237 240 238
f 238 240 282
f 238 282 317
f 238 317 318
f 238 318 239
f 239 318 312
f 241 316 319
f 241 319 242
f 242 319 243
f 243 320 321
f 243 321 327
f 243 327 322
f 243 322 244
f 243 319 323
f 243 323 324
f 243 324 325
f 243 325 326
f 243 326 320
f 244 322 327
f 244 327 245
f 245 327 328
f 245 328 329
f 245 329 246
f 246 329 330
f 246 330 331
f 246 331 247
f 247 332 333
f 247 333 248
f 247 331 334
f 247 334 335
f 247 335 336
f 247 336 337
f 247 337 338
f 247 338 339
f 247 339 332
f 248 333 249
f 249 333 251
f 249 251 250
f 251 333 252
f 252 333 332
f 252 332 339
f 252 339 340
f 252 340 341
f 252 341 255
f 253 254 342
f 254 343 342
f 254 256 255
f 254 255 344
f 254 344 343
f 255 341 345
f 255 345 338
f 255 338 344
f 257 263 285
f 261 265 263
f 261 263 262
f 263 265 303
f 263 303 306
f 263 306 308
f 263 308 285
f 264 346 303
f 264 303 265
f 266 347 348
f 266 348 267
f 267 349 350
f 267 350 351
f 267 351 352
f 267 352 269
f 267 348 349
f 268 270 353
f 268 353 271
f 269 354 270
f 269 352 354
f 270 354 355
f 270 355 353
f 271 353 272
f 272 356 273
f 272 353 356
f 273 357 274
f 273 356 357
f 274 357 358
f 274 358 359
f 275 299 360
f 275 360 361
f 275 361 362
f 275 362 276
f 276 362 363
f 276 363 279
f 276 278 277
f 279 363 361
f 279 361 364
f 279 364 280
f 280 364 365
f 280 365 366
f 280 366 281
f 281 367 282
f 281 366 368
f 281 368 369
f 281 369 370
f 281 370 367
f 282 367 317
f 285 308 307
f 285 307 286
f 286 307 287
f 287 289 288
f 290 305 371
f 290 371 372
f 290 372 373
f 290 373 291
f 291 373 292
f 292 374 375
f 292 375 294
f 292 373 374
f 294 375 376
f 294 376 295
f 295 376 377
f 295 377 378
f 295 378 379
f 295 379 296
f 296 379 380
f 296 380 297
f 297 380 381
f 297 381 382
f 297 382 383
f 298 384 385
f 298 385 299
f 298 301 384
f 299 385 360
f 300 383 386
f 300 386 387
f 300 387 388
f 300 388 384
f 300 384 301
f 302 389 390
f 302 390 304
f 302 303 391
f 302 391 389
f 303 346 392
f 303 392 393
f 303 393 394
f 303 394 395
f 303 395 396
f 303 396 397
f 303 397 398
f 303 398 399
f 303 399 391
f 304 390 400
f 304 400 305
f 305 400 401
f 305 401 402
f 305 402 403
f 305 403 371
f 309 404 405
f 309 405 310
f 309 313 406
f 309 406 404
f 310 405 407
f 310 407 408
f 310 408 409
f 310 409 410
f 310 410 311
f 311 410 314
f 312 411 406
f 312 406 313
f 312 318 412
f 312 412 368
f 312 368 411
f 314 410 409
f 314 409 315
f 315 409 324
f 315 324 323
f 315 323 319
f 315 319 316
f 317 367 370
f 317 370 412
f 317 412 318
f 320 326 413
f 320 413 414
f 320 414 415
f 320 415 416
f 320 416 321
f 321 416 417
f 321 417 418
f 321 418 419
f 321 419 327
f 324 409 420
f 324 420 325
f 325 420 326
f 326 420 413
f 327 421 329
f 327 329 328
f 327 419 422
f 327 422 423
f 327 423 421
f 329 421 423
f 329 423 424
f 329 424 330
f 330 424 331
f 331 424 334
f 334 424 425
f 334 425 335
f 335 425 426
f 335 426 427
f 335 427 336
f 336 427 428
f 336 428 337
f 337 429 430
f 337 430 431
f 337 431 338
f 337 428 429
f 338 431 432
f 338 432 344
f 338 345 433
f 338 433 341
f 338 341 434
f 338 434 340
f 338 340 339
f 340 434 341
f 341 433 345
f 342 343 435
f 343 436 435
f 343 344 437
f 343 437 436
f 344 432 438
f 344 438 437
f 347 439 348
f 348 439 440
f 348 440 441
f 348 441 442
f 348 442 443
f 348 443 444
f 348 444 445
f 348 445 349
f 349 445 351
f 349 351 350
f 351 445 352
f 352 446 447
f 352 447 448
f 352 448 355
f 352 355 354
f 352 445 446
f 353 449 450
f 353 450 451
f 353 451 356
f 353 355 452
f 353 452 449
f 355 448 452
f 356 451 357
f 357 451 401
f 357 401 453
f 357 453 454
f 357 454 358
f 358 454 455
f 358 455 359
f 359 455 389
f 359 389 456
f 360 385 457
f 360 457 458
f 360 458 361
f 361 363 362
f 361 458 459
f 361 459 460
f 361 460 364
f 364 460 461
f 364 461 365
f 365 461 366
f 366 461 368
f 368 412 369
f 368 461 462
f 368 462 411
f 369 412 370
f 371 403 372
f 372 403 463
f 372 463 464
f 372 464 465
f 372 465 374
f 372 374 373
f 374 464 466
f 374 466 375
f 374 465 464
f 375 466 467
f 375 467 468
f 375 468 469
f 375 469 470
f 375 470 376
f 376 470 471
f 376 471 377
f 377 472 378
f 377 471 473
f 377 473 474
f 377 474 472
f 378 472 379
f 379 472 475
f 379 475 380
f 380 475 476
f 380 476 381
f 381 476 477
f 381 477 478
f 381 478 382
f 382 478 383
f 383 478 386
f 384 388 385
f 385 388 479
f 385 479 457
f 386 478 480
f 386 480 481
f 386 481 387
f 387 481 482
f 387 482 406
f 387 406 411
f 387 411 483
f 387 483 484
f 387 484 388
f 388 484 479
f 389 455 453
f 389 453 485
f 389 485 390
f 389 391 456
f 390 485 400
f 391 399 486
f 391 486 456
f 400 453 401
f 400 485 453
f 401 451 467
f 401 467 487
f 401 487 402
f 402 487 463
f 402 463 403
f 404 488 489
f 404 489 490
f 404 490 405
f 404 406 488
f 405 490 491
f 405 491 407
f 406 482 492
f 406 492 488
f 407 491 408
f 408 491 493
f 408 493 494
f 408 494 495
f 408 495 496
f 408 496 497
f 408 497 420
f 408 420 409
f 411 498 483
f 411 462 499
f 411 499 459
f 411 459 500
f 411 500 498
f 413 420 497
f 413 497 501
f 413 501 414
f 414 502 415
f 414 501 502
f 415 502 503
f 415 503 504
f 415 504 416
f 416 504 505
f 416 505 506
f 416 506 507
f 416 507 508
f 416 508 417
f 417 508 509
f 417 509 510
f 417 510 511
f 417 511 418
f 418 512 419
f 418 511 512
f 419 512 422
f 422 512 423
f 423 512 424
f 424 512 511
f 424 511 426
f 424 426 425
f 426 511 513
f 426 513 427
f 427 513 428
f 428 513 429
f 429 513 430
f 430 438 432
f 430 432 431
f 430 513 438
f 435 436 514
f 436 515 516
f 436 516 514
f 436 437 515
f 437 438 517
f 437 517 518
f 437 518 519
f 437 519 520
f 437 520 515
f 438 513 521
f 438 521 517
f 441 522 442
f 442 522 443
f 443 522 523
f 443 523 524
f 443 524 525
f 443 525 526
f 443 526 527
f 443 527 528
f 443 528 529
f 443 529 444
f 444 529 530
f 444 530 445
f 445 530 531
f 445 531 446
f 446 532 447
f 446 531 530
f 446 530 532
f 447 532 533
f 447 533 534
f 447 534 535
f 447 535 536
f 447 536 448
f 448 536 537
f 448 537 452
f 449 538 539
f 449 539 450
f 449 452 538
f 450 539 451
f 451 539 467
f 452 537 540
f 452 540 541
f 452 541 538
f 453 455 454
f 457 479 498
f 457 498 500
f 457 500 458
f 458 500 459
f 459 499 462
f 459 462 460
f 460 462 461
f 463 487 464
f 464 487 466
f 466 487 467
f 467 539 542
f 467 542 543
f 467 543 468
f 468 543 469
f 469 543 544
f 469 544 545
f 469 545 546
f 469 546 470
f 470 546 471
f 471 546 547
f 471 547 548
f 471 548 473
f 472 474 549
f 472 549 550
f 472 550 551
f 472 551 475
f 473 548 549
f 473 549 474
f 475 551 550
f 475 550 552
f 475 552 553
f 475 553 554
f 475 554 555
f 475 555 480
f 475 480 556
f 475 556 477
f 475 477 476
f 477 556 478
f 478 556 480
f 479 484 498
f 480 555 554
f 480 554 481
f 481 492 482
f 481 554 557
f 481 557 493
f 481 493 492
f 483 498 484
f 488 492 493
f 488 493 489
f 489 491 490
f 489 493 491
f 493 557 494
f 494 557 495
f 495 557 496
f 496 557 558
f 496 558 559
f 496 559 560
f 496 560 561
f 496 561 562
f 496 562 563
f 496 563 497
f 497 563 564
f 497 564 565
f 497 565 501
f 501 565 566
f 501 566 502
f 502 566 503
f 503 566 567
f 503 567 504
f 504 568 569
f 504 569 506
f 504 506 505
f 504 567 570
f 504 570 571
f 504 571 568
f 506 572 507
f 506 569 573
f 506 573 574
f 506 574 575
f 506 575 572
f 507 572 508
f 508 572 576
f 508 576 509
f 509 576 577
f 509 577 578
f 509 578 579
f 509 579 510
f 510 579 511
f 511 579 580
f 511 580 513
f 513 580 521
f 515 520 516
f 516 520 581
f 517 521 580
f 517 580 582
f 517 582 518
f 518 582 583
f 518 583 584
f 518 584 519
f 519 585 520
f 519 584 585
f 520 585 581
f 525 586 526
f 526 586 587
f 526 587 588
f 526 588 528
f 526 528 527
f 528 589 529
f 528 588 590
f 528 590 591
f 528 591 589
f 529 589 591
f 529 591 592
f 529 592 530
f 530 592 534
f 530 534 532
f 532 534 593
f 532 593 533
f 533 593 534
f 534 594 595
f 534 595 574
f 534 574 596
f 534 596 597
f 534 597 535
f 534 592 594
f 535 597 596
f 535 596 536
f 536 598 537
f 536 596 599
f 536 599 600
f 536 600 598
f 537 598 601
f 537 601 602
f 537 602 603
f 537 603 540
f 538 541 542
f 538 542 539
f 540 603 544
f 540 544 604
f 540 604 541
f 541 604 543
f 541 543 542
f 543 604 544
f 544 603 602
f 544 602 545
f 545 602 601
f 545 601 547
f 545 547 546
f 547 605 606
f 547 606 548
f 547 601 605
f 548 606 550
f 548 550 549
f 550 606 607
f 550 607 608
f 550 608 554
f 550 554 552
f 552 554 553
f 554 608 557
f 557 608 609
f 557 609 558
f 558 609 559
f 559 609 560
f 560 609 610
f 560 610 561
f 561 610 562
f 562 607 564
f 562 564 563
f 562 610 607
f 564 607 606
f 564 606 605
f 564 605 566
f 564 566 565
f 566 605 570
f 566 570 567
f 568 573 569
f 568 571 570
f 568 570 573
f 570 605 611
f 570 611 612
f 570 612 573
f 572 575 613
f 572 613 614
f 572 614 576
f 573 615 596
f 573 596 574
f 573 612 615
f 574 595 575
f 575 595 616
f 575 616 617
f 575 617 579
f 575 579 613
f 576 614 577
f 577 613 579
f 577 579 578
f 577 614 613
f 579 618 619
f 579 619 620
f 579 620 582
f 579 582 580
f 579 617 616
f 579 616 618
f 581 585 621
f 582 620 583
f 583 620 585
f 583 585 584
f 585 620 621
f 587 622 588
f 588 622 623
f 588 623 590
f 590 623 618
f 590 618 616
f 590 616 595
f 590 595 591
f 591 595 594
f 591 594 592
f 596 615 599
f 598 600 601
f 599 615 624
f 599 624 600
f 600 625 611
f 600 611 601
f 600 624 625
f 601 611 605
f 607 610 626
f 607 626 608
f 608 626 609
f 609 626 610
f 611 625 615
f 611 615 612
f 615 625 624
f 618 623 619
f 619 623 622
f 619 622 620
f 620 622 621

