# https://github.com/mikedh/trimesh
v -0.03626832 0.08188546 0.00438881
v -0.03626832 0.07810484 0.00439234
v -0.03626832 0.09223802 0.00438881
v -0.03454738 0.07902408 0.00438881
v -0.03626832 0.08939345 0.03342883
v -0.01133411 0.08448901 0.00438881
v -0.00965929 0.08488417 0.00438881
v -0.00923349 0.08499067 0.00438881
v -0.00001844 0.08730836 0.00438881
v -0.00001844 0.09595978 0.03132785
v -0.00001844 0.09669684 0.03342883
v -0.00001844 0.09733022 0.03511384
v -0.03626832 0.09286298 0.00545693
v -0.03540962 0.09303394 0.00511852
v -0.03487027 0.09277890 0.00438881
v -0.03626832 0.09017815 0.03525485
v -0.00001844 0.09758524 0.03576246
v -0.00001844 0.09887721 0.00438881
v -0.03626832 0.09323291 0.00624303
v -0.03081097 0.09712563 0.00967298
v -0.02941292 0.09732741 0.00915126
v -0.03430964 0.09294706 0.00438881
v -0.03626832 0.09024542 0.03540643
v -0.00001844 0.09846244 0.03763078
v -0.00001844 0.09989734 0.00627476
v -0.00522031 0.09895569 0.00438881
v -0.00576321 0.09939568 0.00501276
v -0.03626832 0.09335903 0.00651799
v -0.03230128 0.09679774 0.01034981
v -0.03296836 0.09709481 0.01179511
v -0.03156677 0.09736104 0.01107598
v -0.03083226 0.09923033 0.01597591
v -0.03017936 0.09965071 0.01665274
v -0.02943066 0.09943492 0.01536254
v -0.03016517 0.09753761 0.01034981
v -0.02495620 0.09935644 0.01139325
v -0.02355461 0.09955543 0.01098081
v -0.02184076 0.09977963 0.01056132
v -0.02068400 0.09724614 0.00509737
v -0.02013045 0.09698831 0.00438881
v -0.02184076 0.09654271 0.00438881
v -0.02550974 0.09552258 0.00438881
v -0.02587877 0.09541889 0.00438881
v -0.02604554 0.09537125 0.00438881
v -0.02788714 0.09483877 0.00438881
v -0.02813907 0.09476590 0.00438881
v -0.03087839 0.09396157 0.00438881
v -0.03261708 0.09344871 0.00438881
v -0.03626832 0.09175598 0.03768366
v -0.00001844 0.09919670 0.03887163
v -0.00001844 0.10095949 0.00827703
v -0.00717545 0.09898091 0.00438881
v -0.00673546 0.09939568 0.00501276
v -0.03626832 0.09411851 0.00819948
v -0.03626832 0.09484157 0.00988097
v -0.03626832 0.09586449 0.01232036
v -0.03361771 0.09736385 0.01319811
v -0.03626832 0.09671086 0.01444953
v -0.03158806 0.09946574 0.01737892
v -0.03230128 0.09757964 0.01246489
v -0.03235095 0.09825786 0.01451651
v -0.03024678 0.10031491 0.01871846
v -0.02814616 0.10021963 0.01661749
v -0.02799713 0.09958626 0.01460464
v -0.02860035 0.09919951 0.01396307
v -0.02604554 0.09920511 0.01184799
v -0.02412944 0.09986931 0.01222165
v -0.02184076 0.10054472 0.01241201
v -0.01959111 0.10107720 0.01259179
v -0.01992465 0.09996459 0.01011010
v -0.01763952 0.09969836 0.00863307
v -0.01485407 0.09944893 0.00703266
v -0.01876789 0.09726856 0.00438881
v -0.03626832 0.09286298 0.03911486
v -0.00001844 0.10041861 0.03972823
v -0.00001844 0.10143873 0.00934867
v -0.00292808 0.10088663 0.00821005
v -0.00750190 0.09896689 0.00438881
v -0.00813705 0.09936486 0.00506211
v -0.00731384 0.09976562 0.00590109
v -0.03445157 0.09823263 0.01661749
v -0.03626832 0.09753761 0.01656461
v -0.03626832 0.09759646 0.01673029
v -0.03626832 0.09818779 0.01843293
v -0.03231547 0.09898091 0.01665274
v -0.03298965 0.09923033 0.01809099
v -0.03231547 0.09967594 0.01876429
v -0.03024678 0.10088103 0.02081944
v -0.02814616 0.10088943 0.01871846
v -0.03363900 0.09945734 0.01949399
v -0.02604554 0.10078294 0.01661749
v -0.02394138 0.10067364 0.01451651
v -0.02604554 0.10010473 0.01451651
v -0.02187269 0.10120051 0.01452356
v -0.02019433 0.10136586 0.01382911
v -0.01879273 0.10148637 0.01340962
v -0.01763952 0.10120612 0.01214762
v -0.01763952 0.10048587 0.01031103
v -0.01554954 0.09983288 0.00808315
v -0.01343828 0.09959466 0.00680705
v -0.01549987 0.09788512 0.00438881
v -0.03626832 0.09409609 0.03984456
v -0.00001844 0.10252051 0.04023233
v -0.00713287 0.10041861 0.04017945
v -0.01974014 0.09831671 0.04027816
v -0.01763952 0.09831671 0.04014068
v -0.03626832 0.09440157 0.03996794
v -0.00082746 0.10143032 0.00937335
v -0.00001844 0.10178625 0.01031456
v -0.00292808 0.10140510 0.00944385
v -0.00923349 0.09879034 0.00438881
v -0.01133411 0.09851569 0.00438881
v -0.01343828 0.09821582 0.00438881
v -0.01133411 0.09974319 0.00652857
v -0.01133411 0.10049988 0.00821005
v -0.00923349 0.09980766 0.00626418
v -0.00923349 0.10063721 0.00821005
v -0.00713287 0.10072689 0.00821005
v -0.03438415 0.09896129 0.01876429
v -0.03626832 0.09828588 0.01872551
v -0.03235095 0.10021683 0.02081944
v -0.03235095 0.10062879 0.02292042
v -0.03021485 0.10125936 0.02281819
v -0.02907583 0.10144153 0.02205324
v -0.02828455 0.10134905 0.02062204
v -0.02707811 0.10146675 0.01979011
v -0.02624425 0.10132383 0.01858803
v -0.03626832 0.09874549 0.02054801
v -0.03626832 0.09881276 0.02081944
v -0.02259301 0.10139950 0.01581376
v -0.02119141 0.10156485 0.01523211
v -0.01974014 0.10226828 0.01661749
v -0.01959111 0.10167695 0.01452356
v -0.01763952 0.10261580 0.01661749
v -0.01763952 0.10197401 0.01451651
v -0.01763952 0.10155924 0.01319811
v -0.01553890 0.10167975 0.01284912
v -0.01553890 0.10132103 0.01179864
v -0.01553890 0.10078854 0.01031103
v -0.01343828 0.10024485 0.00821005
v -0.00713287 0.10252051 0.04037334
v -0.01133411 0.10041861 0.04036981
v -0.00923349 0.10041861 0.04030283
v -0.00001844 0.10332764 0.04009133
v -0.02184076 0.09831671 0.04035924
v -0.03024678 0.09621481 0.04020413
v -0.03626832 0.09621481 0.04023585
v -0.03235095 0.09621481 0.04023233
v -0.00001844 0.10218420 0.01153073
v -0.00713287 0.10350700 0.01575736
v -0.00713287 0.10385451 0.01680784
v -0.00502870 0.10135465 0.00957780
v -0.00713287 0.10305860 0.01451651
v -0.01329280 0.10111083 0.01050139
v -0.01133411 0.10117529 0.01010657
v -0.00923349 0.10216178 0.01241201
v -0.00923349 0.10162930 0.01092088
v -0.00923349 0.10125096 0.00987039
v -0.00713287 0.10130141 0.00971881
v -0.03445157 0.10029810 0.02502140
v -0.03235095 0.10099033 0.02502140
v -0.03445157 0.10068204 0.02712237
v -0.03235805 0.10129300 0.02693554
v -0.03098129 0.10138548 0.02502140
v -0.02949453 0.10154803 0.02345271
v -0.02521168 0.10363031 0.02990723
v -0.02476459 0.10352101 0.02850422
v -0.02604554 0.10263821 0.02502140
v -0.02604554 0.10227949 0.02292042
v -0.02169882 0.10328560 0.02303675
v -0.02184076 0.10286522 0.02081944
v -0.02767423 0.10160128 0.02119311
v -0.02567652 0.10162930 0.01920141
v -0.02187269 0.10177783 0.01655756
v -0.02483556 0.10143313 0.01779841
v -0.01968336 0.10335286 0.02081944
v -0.01974014 0.10287082 0.01871846
v -0.02184076 0.10238879 0.01871846
v -0.03626832 0.09944333 0.02423177
v -0.03613349 0.09964231 0.02502140
v -0.01756145 0.10328560 0.01887357
v -0.01243764 0.10357706 0.01764683
v -0.01553890 0.10287923 0.01661749
v -0.01325731 0.10322114 0.01681490
v -0.01133411 0.10364713 0.01743532
v -0.01343828 0.10246726 0.01451651
v -0.01133411 0.10331643 0.01638483
v -0.00923349 0.10377604 0.01705460
v -0.01133411 0.10269987 0.01451651
v -0.01329280 0.10173580 0.01231331
v -0.01389601 0.10140790 0.01154483
v -0.00923349 0.10252051 0.04039448
v -0.01343828 0.10041861 0.04039448
v -0.00502870 0.10462241 0.03996442
v -0.00713287 0.10462241 0.04000320
v -0.02394138 0.09831671 0.04039096
v -0.00001844 0.10462241 0.03985867
v -0.03626832 0.09650347 0.04019708
v -0.02604554 0.09831671 0.04036628
v -0.02184076 0.10041861 0.04034866
v -0.01553890 0.10252051 0.04038038
v -0.01763952 0.10252051 0.04032046
v -0.01974014 0.10252051 0.04022528
v -0.00001844 0.10247006 0.01241201
v -0.00502870 0.10351821 0.01573268
v -0.00923349 0.10291006 0.01451651
v -0.00923349 0.10342573 0.01600412
v -0.00713287 0.10435896 0.01871846
v -0.00502870 0.10440661 0.01871846
v -0.00502870 0.10385171 0.01678317
v -0.00713287 0.10228790 0.01241201
v -0.01133411 0.10197681 0.01241201
v -0.01133411 0.10154242 0.01115706
v -0.03306062 0.10137988 0.02879681
v -0.03426706 0.10110243 0.02938903
v -0.03626832 0.09967594 0.02554311
v -0.03626832 0.09994778 0.02714705
v -0.03626832 0.10025046 0.02893781
v -0.03626832 0.10029810 0.02924450
v -0.03235805 0.10165453 0.02938903
v -0.02993098 0.10166573 0.02502140
v -0.02814616 0.10244764 0.02712237
v -0.02560910 0.10373681 0.03132785
v -0.02394138 0.10416560 0.03132785
v -0.02401589 0.10380687 0.02921277
v -0.02184076 0.10430291 0.02922335
v -0.02336300 0.10367795 0.02754891
v -0.02201817 0.10388254 0.02695669
v -0.02135818 0.10370037 0.02502140
v -0.02090399 0.10359668 0.02381933
v -0.01894531 0.10362470 0.02152094
v -0.01820725 0.10351541 0.02012147
v -0.03626832 0.09958626 0.02502140
v -0.01680920 0.10359668 0.01967730
v -0.00923349 0.10419362 0.01871846
v -0.01343828 0.10252051 0.04039448
v -0.01763952 0.10041861 0.04039448
v -0.00001844 0.10616660 0.03916421
v -0.00292808 0.10615259 0.03917479
v -0.00923349 0.10462241 0.04000320
v -0.01974014 0.10041861 0.04039096
v -0.03626832 0.09831671 0.03983046
v -0.02814616 0.10041861 0.04002082
v -0.01133411 0.10462241 0.03996089
v -0.02184076 0.10252051 0.04006665
v -0.01343828 0.10462241 0.03981989
v -0.00001844 0.10287643 0.01370926
v -0.00713287 0.10475693 0.02081944
v -0.00502870 0.10485782 0.02081944
v -0.00292808 0.10491387 0.02081944
v -0.00082746 0.10492228 0.02081944
v -0.00082746 0.10436457 0.01871846
v -0.00001844 0.10415158 0.01799581
v -0.00001844 0.10369757 0.01644123
v -0.00001844 0.10336407 0.01530966
v -0.03344029 0.10148077 0.03019629
v -0.03626832 0.10052791 0.03108462
v -0.03626832 0.10055313 0.03132785
v -0.03458641 0.10118370 0.03132785
v -0.02665941 0.10345655 0.03132785
v -0.02394138 0.10442623 0.03342883
v -0.02184076 0.10493349 0.03342883
v -0.02184076 0.10464483 0.03132785
v -0.01763952 0.10402827 0.02292042
v -0.01974014 0.10468126 0.02922335
v -0.01553890 0.10462241 0.02502140
v -0.01756145 0.10370598 0.02081944
v -0.01553890 0.10428890 0.02292042
v -0.01553890 0.10393578 0.02081944
v -0.01343828 0.10415438 0.02081944
v -0.00923349 0.10458878 0.02081944
v -0.00001844 0.10637398 0.03857199
v -0.00082746 0.10617221 0.03915717
v -0.00292808 0.10669908 0.03763078
v -0.00502870 0.10609935 0.03918184
v -0.03626832 0.09861098 0.03972823
v -0.03024678 0.10041861 0.03984104
v -0.00713287 0.10603208 0.03916774
v -0.00923349 0.10596202 0.03914659
v -0.01133411 0.10589196 0.03910429
v -0.01974014 0.10439820 0.03937220
v -0.02184076 0.10422725 0.03925587
v -0.02394138 0.10252051 0.03983399
v -0.00630611 0.10568457 0.02600843
v -0.00770415 0.10565093 0.02620584
v -0.00502870 0.10521654 0.02292042
v -0.00292808 0.10528941 0.02292042
v -0.00082746 0.10531183 0.02292042
v -0.00001844 0.10529781 0.02292042
v -0.00001844 0.10490546 0.02081944
v -0.00001844 0.10469808 0.02001571
v -0.00001844 0.10435616 0.01871846
v -0.03353610 0.10150880 0.03132785
v -0.02702134 0.10355184 0.03342883
v -0.02596748 0.10385171 0.03342883
v -0.03626832 0.10069326 0.03312214
v -0.03626832 0.10077733 0.03520197
v -0.03471415 0.10122574 0.03342883
v -0.02394138 0.10452712 0.03552981
v -0.02184076 0.10505120 0.03552981
v -0.01974014 0.10527540 0.03342883
v -0.01974014 0.10500075 0.03132785
v -0.01763952 0.10434496 0.02502140
v -0.01553890 0.10494190 0.02712237
v -0.01346667 0.10553323 0.02921630
v -0.01133411 0.10613297 0.03132785
v -0.01191959 0.10562291 0.02851127
v -0.01126669 0.10548558 0.02724575
v -0.01051799 0.10569858 0.02802833
v -0.00923349 0.10576584 0.02764057
v -0.00923349 0.10531463 0.02502140
v -0.00001844 0.10669628 0.03763078
v -0.00502870 0.10673552 0.03552981
v -0.00713287 0.10667947 0.03552981
v -0.00502870 0.10662622 0.03763078
v -0.03626832 0.10001784 0.03912191
v -0.03235095 0.10041861 0.03957313
v -0.01343828 0.10580508 0.03896329
v -0.02394138 0.10399744 0.03910076
v -0.01502794 0.10572660 0.03879408
v -0.03024678 0.10200765 0.03915717
v -0.00705481 0.10581629 0.02699194
v -0.00713287 0.10618622 0.02922335
v -0.00502870 0.10570979 0.02585333
v -0.00502870 0.10553323 0.02480284
v -0.00923349 0.10603768 0.02922335
v -0.00923349 0.10639081 0.03132785
v -0.00502870 0.10589756 0.02712237
v -0.00713287 0.10650010 0.03132785
v -0.00001844 0.10557527 0.02517298
v -0.03366384 0.10154803 0.03342883
v -0.03235095 0.10194599 0.03342883
v -0.03024678 0.10258216 0.03342883
v -0.02814616 0.10321553 0.03342883
v -0.02709231 0.10357146 0.03451810
v -0.03626832 0.10078854 0.03552981
v -0.03482060 0.10126217 0.03552981
v -0.02713488 0.10358266 0.03591757
v -0.02713488 0.10358266 0.03720777
v -0.02625135 0.10382649 0.03779646
v -0.02394138 0.10447668 0.03763078
v -0.02184076 0.10496712 0.03763078
v -0.01974014 0.10539310 0.03552981
v -0.01689791 0.10571260 0.03408450
v -0.01636566 0.10564253 0.03268150
v -0.01496407 0.10573782 0.03194828
v -0.01763952 0.10497272 0.02922335
v -0.01553890 0.10525578 0.02922335
v -0.01419053 0.10563412 0.03054527
v -0.01133411 0.10636278 0.03342883
v -0.01343828 0.10609654 0.03342883
v -0.00001844 0.10667666 0.03682705
v -0.00713287 0.10670749 0.03342883
v -0.00923349 0.10660099 0.03342883
v -0.00923349 0.10654775 0.03552981
v -0.00923349 0.10635437 0.03763078
v -0.03626832 0.10016078 0.03886105
v -0.03235095 0.10173300 0.03896329
v -0.03367448 0.10155083 0.03877998
v -0.02569071 0.10377044 0.03889983
v -0.01642953 0.10565374 0.03846977
v -0.01133411 0.10620023 0.03763078
v -0.00502870 0.10663463 0.03342883
v -0.00502870 0.10642443 0.03132785
v -0.00001844 0.10576865 0.02696727
v -0.03376674 0.10158166 0.03552981
v -0.03235095 0.10201045 0.03552981
v -0.03024678 0.10264382 0.03552981
v -0.02795810 0.10332764 0.03534298
v -0.03626832 0.10071848 0.03763078
v -0.03486673 0.10123694 0.03763078
v -0.03381642 0.10159287 0.03763078
v -0.02709231 0.10356865 0.03860725
v -0.01974014 0.10530903 0.03763078
v -0.01688372 0.10570979 0.03707029
v -0.01809371 0.10560049 0.03552981
v -0.01704340 0.10572941 0.03552981
v -0.01553890 0.10590316 0.03552981
v -0.00001844 0.10662622 0.03552981
v -0.01343828 0.10613578 0.03552981
v -0.01133411 0.10636278 0.03552981
v -0.01343828 0.10601247 0.03763078
v -0.01565244 0.10578827 0.03771539
v -0.01760758 0.10556967 0.03771539
v -0.00001844 0.10599564 0.02922335
f 1 2 5
f 1 5 16
f 1 16 23
f 1 23 49
f 1 49 74
f 1 74 102
f 1 102 107
f 1 107 147
f 1 147 198
f 1 198 242
f 1 242 276
f 1 276 316
f 1 316 357
f 1 357 370
f 1 370 336
f 1 336 297
f 1 297 296
f 1 296 258
f 1 258 257
f 1 257 219
f 1 219 218
f 1 218 217
f 1 217 216
f 1 216 233
f 1 233 179
f 1 179 129
f 1 129 128
f 1 128 120
f 1 120 84
f 1 84 83
f 1 83 82
f 1 82 58
f 1 58 56
f 1 56 55
f 1 55 54
f 1 54 28
f 1 28 19
f 1 19 13
f 1 13 3
f 1 3 15
f 1 15 22
f 1 22 48
f 1 48 47
f 1 47 46
f 1 46 45
f 1 45 44
f 1 44 43
f 1 43 42
f 1 42 41
f 1 41 40
f 1 40 73
f 1 73 101
f 1 101 113
f 1 113 112
f 1 112 111
f 1 111 78
f 1 78 52
f 1 52 26
f 1 26 18
f 1 18 9
f 1 9 8
f 1 8 7
f 1 7 6
f 1 6 4
f 1 4 2
f 2 4 6
f 2 6 7
f 2 7 8
f 2 8 9
f 2 9 10
f 2 10 11
f 2 11 12
f 2 12 5
f 3 13 14
f 3 14 15
f 5 12 17
f 5 17 16
f 9 18 25
f 9 25 51
f 9 51 76
f 9 76 109
f 9 109 149
f 9 149 204
f 9 204 247
f 9 247 255
f 9 255 254
f 9 254 253
f 9 253 292
f 9 292 291
f 9 291 290
f 9 290 289
f 9 289 330
f 9 330 365
f 9 365 385
f 9 385 379
f 9 379 352
f 9 352 312
f 9 312 272
f 9 272 238
f 9 238 197
f 9 197 144
f 9 144 103
f 9 103 75
f 9 75 50
f 9 50 24
f 9 24 17
f 9 17 12
f 9 12 11
f 9 11 10
f 13 19 20
f 13 20 14
f 14 20 21
f 14 21 15
f 15 21 22
f 16 17 23
f 17 24 23
f 18 26 27
f 18 27 25
f 19 28 20
f 20 28 29
f 20 29 30
f 20 30 31
f 20 31 59
f 20 59 32
f 20 32 33
f 20 33 34
f 20 34 35
f 20 35 36
f 20 36 21
f 21 36 37
f 21 37 38
f 21 38 39
f 21 39 40
f 21 40 41
f 21 41 42
f 21 42 43
f 21 43 44
f 21 44 45
f 21 45 46
f 21 46 47
f 21 47 48
f 21 48 22
f 23 24 50
f 23 50 49
f 25 27 51
f 26 52 27
f 27 52 53
f 27 53 51
f 28 54 29
f 29 54 55
f 29 55 56
f 29 56 30
f 30 57 31
f 30 56 58
f 30 58 57
f 31 57 60
f 31 60 61
f 31 61 59
f 32 59 62
f 32 62 33
f 33 62 63
f 33 63 34
f 34 63 64
f 34 64 65
f 34 65 35
f 35 65 66
f 35 66 36
f 36 66 67
f 36 67 68
f 36 68 37
f 37 68 38
f 38 68 69
f 38 69 70
f 38 70 39
f 39 70 71
f 39 71 72
f 39 72 73
f 39 73 40
f 49 50 74
f 50 75 74
f 51 53 77
f 51 77 76
f 52 78 53
f 53 78 79
f 53 79 80
f 53 80 77
f 57 81 60
f 57 58 82
f 57 82 83
f 57 83 84
f 57 84 81
f 59 61 85
f 59 85 86
f 59 86 87
f 59 87 62
f 60 81 61
f 61 81 86
f 61 86 85
f 62 88 89
f 62 89 63
f 62 87 90
f 62 90 88
f 63 89 91
f 63 91 92
f 63 92 93
f 63 93 64
f 64 93 67
f 64 67 66
f 64 66 65
f 67 93 92
f 67 92 68
f 68 92 94
f 68 94 95
f 68 95 69
f 69 95 96
f 69 96 97
f 69 97 98
f 69 98 70
f 70 98 99
f 70 99 71
f 71 99 72
f 72 99 100
f 72 100 73
f 73 100 101
f 74 75 102
f 75 103 104
f 75 104 105
f 75 105 106
f 75 106 107
f 75 107 102
f 76 108 109
f 76 77 108
f 77 110 108
f 77 80 110
f 78 111 79
f 79 111 112
f 79 112 113
f 79 113 114
f 79 114 115
f 79 115 116
f 79 116 117
f 79 117 80
f 80 117 118
f 80 118 110
f 81 119 86
f 81 84 120
f 81 120 119
f 86 119 90
f 86 90 87
f 88 90 121
f 88 121 122
f 88 122 123
f 88 123 124
f 88 124 125
f 88 125 126
f 88 126 89
f 89 126 127
f 89 127 94
f 89 94 91
f 90 119 120
f 90 120 128
f 90 128 129
f 90 129 121
f 91 94 92
f 94 127 130
f 94 130 131
f 94 131 95
f 95 131 132
f 95 132 133
f 95 133 96
f 96 134 135
f 96 135 136
f 96 136 97
f 96 133 132
f 96 132 134
f 97 136 137
f 97 137 138
f 97 138 139
f 97 139 98
f 98 139 140
f 98 140 99
f 99 140 100
f 100 140 114
f 100 114 113
f 100 113 101
f 103 141 142
f 103 142 143
f 103 143 104
f 103 144 141
f 104 143 105
f 105 145 146
f 105 146 107
f 105 107 106
f 105 143 145
f 107 146 148
f 107 148 147
f 108 110 109
f 109 110 150
f 109 150 151
f 109 151 149
f 110 152 153
f 110 153 150
f 110 118 117
f 110 117 152
f 114 140 115
f 115 140 139
f 115 139 154
f 115 154 155
f 115 155 156
f 115 156 157
f 115 157 158
f 115 158 117
f 115 117 116
f 117 158 159
f 117 159 152
f 121 160 122
f 121 129 160
f 122 161 123
f 122 160 162
f 122 162 161
f 123 161 163
f 123 163 164
f 123 164 165
f 123 165 124
f 124 165 166
f 124 166 167
f 124 167 168
f 124 168 169
f 124 169 170
f 124 170 171
f 124 171 172
f 124 172 125
f 125 172 126
f 126 173 174
f 126 174 175
f 126 175 127
f 126 172 171
f 126 171 176
f 126 176 177
f 126 177 178
f 126 178 173
f 127 175 130
f 129 179 180
f 129 180 160
f 130 175 131
f 131 177 132
f 131 175 174
f 131 174 178
f 131 178 177
f 132 177 181
f 132 181 134
f 134 181 182
f 134 182 183
f 134 183 135
f 135 183 184
f 135 184 185
f 135 185 136
f 136 186 137
f 136 185 187
f 136 187 188
f 136 188 186
f 137 186 189
f 137 189 138
f 138 189 190
f 138 190 191
f 138 191 154
f 138 154 139
f 141 192 193
f 141 193 142
f 141 144 194
f 141 194 195
f 141 195 192
f 142 193 196
f 142 196 145
f 142 145 143
f 144 197 194
f 145 196 146
f 146 196 148
f 147 148 196
f 147 196 199
f 147 199 200
f 147 200 201
f 147 201 202
f 147 202 203
f 147 203 198
f 149 151 205
f 149 205 204
f 150 153 158
f 150 158 157
f 150 157 156
f 150 156 206
f 150 206 207
f 150 207 188
f 150 188 151
f 151 188 208
f 151 208 209
f 151 209 210
f 151 210 205
f 152 159 211
f 152 211 153
f 153 211 158
f 154 212 213
f 154 213 155
f 154 191 212
f 155 213 206
f 155 206 156
f 158 211 159
f 160 180 162
f 161 162 214
f 161 214 163
f 162 215 214
f 162 180 216
f 162 216 217
f 162 217 218
f 162 218 219
f 162 219 215
f 163 214 164
f 164 214 220
f 164 220 221
f 164 221 165
f 165 221 222
f 165 222 166
f 166 222 223
f 166 223 224
f 166 224 167
f 167 224 225
f 167 225 226
f 167 226 227
f 167 227 168
f 168 227 228
f 168 228 169
f 169 228 170
f 170 228 229
f 170 229 230
f 170 230 176
f 170 176 171
f 173 178 174
f 176 230 226
f 176 226 231
f 176 231 232
f 176 232 177
f 177 232 181
f 179 233 180
f 180 233 216
f 181 232 234
f 181 234 182
f 182 185 184
f 182 184 183
f 182 234 185
f 185 234 235
f 185 235 188
f 185 188 187
f 186 188 189
f 188 207 189
f 188 235 208
f 189 207 212
f 189 212 190
f 190 212 191
f 192 236 237
f 192 237 193
f 192 195 240
f 192 240 236
f 193 237 196
f 194 197 238
f 194 238 195
f 195 238 239
f 195 239 240
f 196 237 236
f 196 236 241
f 196 241 199
f 198 203 243
f 198 243 242
f 199 241 201
f 199 201 200
f 201 236 240
f 201 240 244
f 201 244 202
f 201 241 236
f 202 244 203
f 203 245 243
f 203 244 246
f 203 246 245
f 204 205 210
f 204 210 247
f 206 213 207
f 207 213 212
f 208 235 248
f 208 248 249
f 208 249 250
f 208 250 209
f 209 250 251
f 209 251 252
f 209 252 253
f 209 253 210
f 210 253 254
f 210 254 255
f 210 255 247
f 214 256 220
f 214 215 256
f 215 219 257
f 215 257 258
f 215 258 259
f 215 259 256
f 220 256 260
f 220 260 223
f 220 223 221
f 221 223 222
f 223 260 261
f 223 261 224
f 224 261 262
f 224 262 263
f 224 263 225
f 225 263 226
f 226 230 229
f 226 229 228
f 226 228 227
f 226 263 231
f 231 264 232
f 231 263 265
f 231 265 264
f 232 264 266
f 232 266 267
f 232 267 268
f 232 268 269
f 232 269 234
f 234 269 270
f 234 270 271
f 234 271 235
f 235 271 248
f 238 272 273
f 238 273 239
f 239 274 275
f 239 275 240
f 239 273 274
f 240 275 244
f 242 243 245
f 242 245 277
f 242 277 276
f 244 275 278
f 244 278 279
f 244 279 280
f 244 280 246
f 245 246 281
f 245 281 282
f 245 282 283
f 245 283 277
f 246 280 281
f 248 284 249
f 248 271 285
f 248 285 284
f 249 284 286
f 249 286 287
f 249 287 250
f 250 287 288
f 250 288 251
f 251 288 289
f 251 289 290
f 251 290 291
f 251 291 292
f 251 292 252
f 252 292 253
f 256 259 293
f 256 293 294
f 256 294 295
f 256 295 261
f 256 261 260
f 258 296 259
f 259 296 297
f 259 297 298
f 259 298 293
f 261 295 299
f 261 299 300
f 261 300 262
f 262 300 343
f 262 343 301
f 262 301 302
f 262 302 263
f 263 302 265
f 264 265 302
f 264 302 303
f 264 303 304
f 264 304 305
f 264 305 266
f 266 305 306
f 266 306 307
f 266 307 267
f 267 307 268
f 268 307 308
f 268 308 269
f 269 308 309
f 269 309 310
f 269 310 270
f 270 310 311
f 270 311 271
f 271 311 285
f 272 312 274
f 272 274 273
f 274 313 314
f 274 314 315
f 274 315 278
f 274 278 275
f 274 312 313
f 276 277 317
f 276 317 316
f 277 283 317
f 278 315 279
f 279 315 280
f 280 318 281
f 280 315 318
f 281 318 282
f 282 319 283
f 282 318 320
f 282 320 319
f 283 319 321
f 283 321 317
f 284 285 322
f 284 322 323
f 284 323 324
f 284 324 325
f 284 325 286
f 285 311 310
f 285 310 326
f 285 326 327
f 285 327 323
f 285 323 322
f 286 325 287
f 287 325 324
f 287 324 288
f 288 324 328
f 288 328 329
f 288 329 289
f 289 329 330
f 293 331 332
f 293 332 333
f 293 333 334
f 293 334 294
f 293 298 331
f 294 334 335
f 294 335 299
f 294 299 295
f 297 336 298
f 298 337 331
f 298 336 337
f 299 335 338
f 299 338 339
f 299 339 340
f 299 340 341
f 299 341 300
f 300 341 342
f 300 342 374
f 300 374 343
f 301 343 344
f 301 344 345
f 301 345 302
f 302 345 346
f 302 346 347
f 302 347 303
f 303 347 348
f 303 348 304
f 304 348 305
f 305 348 349
f 305 349 306
f 306 350 327
f 306 327 307
f 306 349 346
f 306 346 345
f 306 345 351
f 306 351 350
f 307 327 308
f 308 327 309
f 309 327 326
f 309 326 310
f 312 352 313
f 313 353 314
f 313 352 353
f 314 353 354
f 314 354 355
f 314 355 315
f 315 355 356
f 315 356 318
f 316 317 358
f 316 358 359
f 316 359 357
f 317 321 358
f 318 356 320
f 319 360 358
f 319 358 321
f 319 320 361
f 319 361 360
f 320 356 362
f 320 362 361
f 323 329 324
f 323 327 329
f 324 329 328
f 327 350 354
f 327 354 329
f 329 354 353
f 329 353 363
f 329 363 364
f 329 364 330
f 330 364 365
f 331 366 332
f 331 337 366
f 332 367 335
f 332 335 333
f 332 366 367
f 333 335 334
f 335 367 368
f 335 368 369
f 335 369 338
f 336 370 371
f 336 371 372
f 336 372 337
f 337 372 366
f 338 369 368
f 338 368 372
f 338 372 339
f 339 373 340
f 339 372 373
f 340 373 341
f 341 373 342
f 342 373 360
f 342 360 361
f 342 361 374
f 343 374 375
f 343 375 376
f 343 376 344
f 344 376 377
f 344 377 350
f 344 350 351
f 344 351 345
f 346 349 347
f 347 349 348
f 350 377 378
f 350 378 354
f 352 379 353
f 353 379 363
f 354 378 380
f 354 380 381
f 354 381 355
f 355 381 362
f 355 362 356
f 357 359 370
f 358 360 359
f 359 372 371
f 359 371 370
f 359 360 373
f 359 373 372
f 361 362 382
f 361 382 383
f 361 383 375
f 361 375 384
f 361 384 374
f 362 381 382
f 363 379 385
f 363 385 364
f 364 385 365
f 366 372 367
f 367 372 368
f 374 384 375
f 375 383 381
f 375 381 380
f 375 380 378
f 375 378 377
f 375 377 376
f 381 383 382

