# https://github.com/mikedh/trimesh
v 0.05956740 0.06586389 0.00780482
v 0.05956740 0.07385285 0.03166191
v 0.05956740 0.08109981 0.00780482
v 0.08057167 0.03745980 0.00780482
v 0.05956740 0.07451077 0.03328440
v 0.08589228 0.03725699 0.02710618
v 0.05956740 0.08138177 0.00833292
v 0.06370180 0.07870559 0.00884830
v 0.06438571 0.07729578 0.00780482
v 0.08073395 0.03725699 0.00780482
v 0.05956740 0.07457013 0.03342756
v 0.08655688 0.03725699 0.02922498
v 0.05956740 0.08164394 0.00893738
v 0.06317630 0.08038748 0.01154929
v 0.06270877 0.08014509 0.01031173
v 0.06437411 0.07900240 0.01039763
v 0.06510440 0.07809220 0.00975181
v 0.06585013 0.07669227 0.00871787
v 0.06861670 0.07356100 0.00780482
v 0.06663065 0.07533192 0.00780482
v 0.09321442 0.03725699 0.00780482
v 0.05956740 0.07464927 0.03358981
v 0.08724852 0.03725699 0.03120061
v 0.05956740 0.08209410 0.00999996
v 0.06350474 0.08061997 0.01295227
v 0.06425820 0.07983344 0.01231600
v 0.06580377 0.07867591 0.01241462
v 0.06549852 0.07844836 0.01115480
v 0.05956740 0.08222766 0.01032128
v 0.05956740 0.08459714 0.01649632
v 0.05956740 0.08539356 0.01872009
v 0.06090045 0.08446853 0.01872009
v 0.06117479 0.08464661 0.01978903
v 0.06637563 0.07724136 0.01041990
v 0.06725273 0.07602447 0.00968819
v 0.07136008 0.07107774 0.00780482
v 0.06993816 0.07237379 0.00780482
v 0.09338443 0.03725699 0.00807523
v 0.09309463 0.03770714 0.00780482
v 0.05956740 0.07552485 0.03531094
v 0.08899115 0.03725699 0.03543501
v 0.06384862 0.08087720 0.01451432
v 0.06489575 0.08008078 0.01451432
v 0.06753480 0.07838405 0.01545283
v 0.06723342 0.07813672 0.01405303
v 0.06976815 0.07642021 0.01518877
v 0.06942426 0.07608877 0.01378579
v 0.06905333 0.07573756 0.01241462
v 0.05956740 0.08605148 0.02063528
v 0.05956740 0.08629881 0.02135745
v 0.06142981 0.08485932 0.02119202
v 0.06347769 0.08271244 0.01928001
v 0.06551011 0.08055072 0.01736483
v 0.06521258 0.08031822 0.01596503
v 0.06763913 0.07639052 0.01108799
v 0.06938949 0.07395674 0.00962456
v 0.07222560 0.07047919 0.00820885
v 0.07211355 0.07036046 0.00780482
v 0.09348875 0.03725699 0.00827566
v 0.09249958 0.03919116 0.00780482
v 0.09295940 0.03902297 0.00865106
v 0.05956740 0.07593542 0.03603629
v 0.08906070 0.03725699 0.03558453
v 0.06773572 0.07855224 0.01661721
v 0.06878671 0.07768162 0.01661721
v 0.07516991 0.07127561 0.01661721
v 0.07181989 0.07428322 0.01526195
v 0.07064526 0.07518847 0.01452387
v 0.07187012 0.07223528 0.01098300
v 0.06999226 0.07663291 0.01661721
v 0.07104324 0.07556937 0.01661721
v 0.07654160 0.07059791 0.01872009
v 0.07759258 0.06950468 0.01872009
v 0.07152623 0.07188901 0.00958002
v 0.06977587 0.07432280 0.01102436
v 0.05956740 0.08652637 0.02222914
v 0.06169256 0.08506708 0.02292268
v 0.06372111 0.08291525 0.02081980
v 0.06032473 0.08612074 0.02292268
v 0.06573035 0.08073375 0.01872009
v 0.07327659 0.06941564 0.00820885
v 0.07349683 0.06896549 0.00780482
v 0.09432722 0.03725699 0.01027674
v 0.09222911 0.03981444 0.00780482
v 0.09242617 0.03962152 0.00805296
v 0.09266187 0.04042289 0.00939232
v 0.09435041 0.03725699 0.01033400
v 0.05956740 0.07673679 0.03701933
v 0.09016964 0.03725699 0.03746790
v 0.06678134 0.07987302 0.01872009
v 0.06805643 0.07882431 0.01872009
v 0.06910742 0.07793390 0.01872009
v 0.07616293 0.07022196 0.01661721
v 0.07269700 0.07304654 0.01462249
v 0.07151851 0.07396168 0.01386214
v 0.07592337 0.06997462 0.01549737
v 0.07218697 0.07257660 0.01241462
v 0.07362434 0.06975697 0.00965637
v 0.07209423 0.07665270 0.02502239
v 0.07183148 0.07639052 0.02292268
v 0.07152237 0.07607888 0.02044440
v 0.07130599 0.07586123 0.01872009
v 0.07235698 0.07481252 0.01872009
v 0.07445895 0.07271016 0.01872009
v 0.06955950 0.07831975 0.02198736
v 0.07128667 0.07796358 0.02712209
v 0.07550993 0.07164661 0.01872009
v 0.07783988 0.06978170 0.02081980
v 0.07572632 0.07187417 0.02044440
v 0.07661502 0.07110248 0.02101704
v 0.07853538 0.06845598 0.01872009
v 0.07825331 0.06813444 0.01706260
v 0.05956740 0.08667477 0.02292268
v 0.06544828 0.08260361 0.02583682
v 0.06274354 0.08420635 0.02292268
v 0.06194371 0.08526495 0.02502239
v 0.06401091 0.08315765 0.02292268
v 0.05956740 0.08676381 0.02340307
v 0.06057589 0.08631365 0.02502239
v 0.07425802 0.06836694 0.00820885
v 0.07416143 0.06825811 0.00780482
v 0.09132496 0.04165462 0.00780482
v 0.09058695 0.04679427 0.01140294
v 0.09499182 0.03725699 0.01241462
v 0.09082264 0.04733841 0.01280593
v 0.09248413 0.04630949 0.01661721
v 0.09293235 0.04525584 0.01661721
v 0.05956740 0.07730072 0.03763652
v 0.09056762 0.03725699 0.03794829
v 0.05956740 0.07783497 0.03819644
v 0.06731456 0.08030833 0.02249638
v 0.07474874 0.07088976 0.01473702
v 0.07421552 0.07039509 0.01241462
v 0.07562585 0.06964814 0.01409756
v 0.07526651 0.06924745 0.01241462
v 0.07314521 0.07558916 0.02502239
v 0.07590019 0.07204730 0.02184738
v 0.07393345 0.07428817 0.02292268
v 0.07476419 0.07301191 0.02114430
v 0.06871330 0.07971967 0.02502239
v 0.06974497 0.07848299 0.02338716
v 0.07023568 0.07890841 0.02712209
v 0.07150305 0.07816640 0.02922498
v 0.07232220 0.07690993 0.02712209
v 0.07795966 0.06990042 0.02210189
v 0.08011186 0.06785743 0.02388027
v 0.07878267 0.06872805 0.02081980
v 0.07600065 0.07216107 0.02292268
v 0.07337319 0.07580186 0.02712209
v 0.07435076 0.07475316 0.02712209
v 0.07982979 0.06750126 0.02081980
v 0.07958250 0.06717972 0.01872009
v 0.07795579 0.06778817 0.01566280
v 0.07595429 0.06790689 0.01122161
v 0.07620931 0.06819875 0.01241462
v 0.08018914 0.06586389 0.01740619
v 0.07992640 0.06553247 0.01600320
v 0.08217906 0.06151572 0.01351537
v 0.06559125 0.08271738 0.02712209
v 0.06818008 0.08101076 0.02922498
v 0.06794051 0.08081785 0.02712209
v 0.06899150 0.07995711 0.02712209
v 0.06119411 0.08676381 0.03022074
v 0.06202872 0.08595749 0.02940313
v 0.06345451 0.08479006 0.02922498
v 0.06316858 0.08456251 0.02660353
v 0.06766231 0.08059524 0.02502239
v 0.05956740 0.08705072 0.02502239
v 0.07565290 0.06754578 0.00982180
v 0.07767373 0.06534449 0.01031173
v 0.07853538 0.06429083 0.01031173
v 0.07511195 0.06707090 0.00780482
v 0.07820695 0.06389015 0.00892784
v 0.09022374 0.04382129 0.00780482
v 0.08882114 0.04954465 0.01077621
v 0.08845792 0.05094457 0.01148566
v 0.09032034 0.04797654 0.01222692
v 0.09052512 0.04874328 0.01377306
v 0.09506523 0.03725699 0.01265959
v 0.09431563 0.04352943 0.01884099
v 0.09266960 0.04674480 0.01781022
v 0.09129404 0.03725699 0.03861638
v 0.05956740 0.07946244 0.03943081
v 0.05956740 0.07884410 0.03896633
v 0.06923107 0.08015498 0.02922498
v 0.07045206 0.07910628 0.02922498
v 0.07160351 0.07826533 0.03132786
v 0.07385618 0.07630643 0.03383160
v 0.07378663 0.07624212 0.03243180
v 0.07371708 0.07616298 0.03132786
v 0.07250767 0.07711769 0.02922498
v 0.07807557 0.07002904 0.02350487
v 0.08073782 0.06854007 0.03132786
v 0.07925407 0.06901496 0.02502239
v 0.07741484 0.07140917 0.02712209
v 0.08020460 0.06796625 0.02502239
v 0.08196268 0.06757052 0.03342756
v 0.08178880 0.06735781 0.03132786
v 0.08283592 0.06652181 0.03342756
v 0.08265046 0.06630910 0.03132786
v 0.08246112 0.06607660 0.02922498
v 0.08231043 0.06588368 0.02755158
v 0.07998049 0.06769913 0.02247729
v 0.07355866 0.07599479 0.02922498
v 0.07557562 0.07379844 0.02922498
v 0.08064508 0.06645255 0.02081980
v 0.08039393 0.06613102 0.01872009
v 0.07857402 0.06643772 0.01451432
v 0.07651455 0.06682356 0.01043899
v 0.08194722 0.06123376 0.01241462
v 0.08231816 0.06380111 0.01937546
v 0.08266205 0.06217364 0.01661721
v 0.08239930 0.06181252 0.01491836
v 0.08324550 0.06048680 0.01452069
v 0.08276251 0.06018011 0.01241462
v 0.06581922 0.08290042 0.02922498
v 0.06687021 0.08205947 0.02922498
v 0.06473347 0.08413215 0.03132786
v 0.05956740 0.08706061 0.02509238
v 0.06131389 0.08684295 0.03132786
v 0.06258126 0.08618504 0.03342756
v 0.06236488 0.08602180 0.03132786
v 0.06368248 0.08497309 0.03132786
v 0.07958250 0.06298985 0.01031173
v 0.08015050 0.06160971 0.00918235
v 0.07666138 0.06507736 0.00780482
v 0.08042484 0.06194114 0.01031173
v 0.08918821 0.04579998 0.00780482
v 0.08599661 0.05218620 0.00811977
v 0.08871294 0.05134031 0.01288546
v 0.08630959 0.05295789 0.00949730
v 0.08444718 0.05544609 0.00889921
v 0.08245339 0.05974974 0.01092256
v 0.09008463 0.04987608 0.01449205
v 0.09070673 0.04910934 0.01517605
v 0.09627463 0.03725699 0.01670947
v 0.09323373 0.04593849 0.01859602
v 0.09457838 0.04412304 0.02081980
v 0.09484885 0.04273795 0.01962360
v 0.09702037 0.03725699 0.01928638
v 0.09686968 0.03725699 0.01872009
v 0.09672285 0.03725699 0.01822062
v 0.09284348 0.04706634 0.01921321
v 0.09384037 0.04577524 0.02081980
v 0.09174612 0.03725699 0.03901087
v 0.05956740 0.08146092 0.04007981
v 0.06936244 0.08025391 0.03132786
v 0.06602015 0.08307850 0.03132786
v 0.06384862 0.08513633 0.03342756
v 0.06707114 0.08220292 0.03132786
v 0.06831145 0.08115422 0.03132786
v 0.07055253 0.07920521 0.03132786
v 0.07391027 0.07635095 0.03553045
v 0.07496126 0.07533192 0.03553045
v 0.07602384 0.07427827 0.03553045
v 0.07593496 0.07418923 0.03417200
v 0.07808330 0.07213634 0.03592494
v 0.07799057 0.07203741 0.03452514
v 0.07584223 0.07409030 0.03276902
v 0.07791716 0.07195826 0.03342756
v 0.07469078 0.07511427 0.03132786
v 0.08091169 0.06872310 0.03342756
v 0.07776260 0.07179007 0.03132786
v 0.08003458 0.06987074 0.03553045
v 0.08388691 0.06518124 0.03342756
v 0.08090396 0.06881709 0.03553045
v 0.08195495 0.06752599 0.03553045
v 0.08370144 0.06495864 0.03132786
v 0.08437763 0.06374175 0.02982943
v 0.08218292 0.06572044 0.02615177
v 0.08475629 0.06212912 0.02502239
v 0.08069918 0.06691260 0.02307539
v 0.07671161 0.07292782 0.03132786
v 0.08574546 0.06034335 0.02286224
v 0.08635596 0.05936390 0.02212098
v 0.08423080 0.06144647 0.02003082
v 0.08480266 0.06013064 0.01872009
v 0.08431194 0.05945294 0.01552282
v 0.08409556 0.05908193 0.01412302
v 0.05956740 0.08710513 0.02543915
v 0.06153027 0.08698146 0.03342756
v 0.05956740 0.08731784 0.02712209
v 0.06148391 0.08695178 0.03515823
v 0.06607038 0.08312796 0.03553045
v 0.07878653 0.06234182 0.00780482
v 0.08373622 0.05565386 0.00780482
v 0.08802131 0.04801611 0.00780482
v 0.08564886 0.05251268 0.00780482
v 0.08848111 0.05309640 0.01563735
v 0.08896024 0.05176078 0.01451432
v 0.08446650 0.05464967 0.00780482
v 0.09028556 0.05046969 0.01661721
v 0.08867431 0.05342288 0.01704033
v 0.09088447 0.04942098 0.01661721
v 0.09472520 0.04450888 0.02256319
v 0.09737199 0.03725699 0.02094387
v 0.09725607 0.03725699 0.02034895
v 0.09301735 0.04737304 0.02081980
v 0.09105061 0.05005416 0.01883462
v 0.09064104 0.05109297 0.01961406
v 0.09241845 0.04842669 0.02081980
v 0.09311781 0.04796170 0.02309766
v 0.09348102 0.04787760 0.02502239
v 0.09432336 0.04556748 0.02312947
v 0.09375536 0.03725699 0.03949762
v 0.06013153 0.08150049 0.04028342
v 0.05956740 0.08360285 0.04011480
v 0.06489961 0.08424592 0.03342756
v 0.06612061 0.08319721 0.03342756
v 0.06717160 0.08227218 0.03342756
v 0.06712137 0.08225240 0.03553045
v 0.06837327 0.08120369 0.03553045
v 0.07169238 0.07834943 0.03658667
v 0.06835395 0.08122348 0.03342756
v 0.07253472 0.07758269 0.03568634
v 0.07169238 0.07834943 0.03649122
v 0.07388322 0.07632621 0.03679663
v 0.07602770 0.07427827 0.03698115
v 0.07889086 0.07090955 0.03342756
v 0.07808330 0.07213634 0.03678073
v 0.08382509 0.06508726 0.03553045
v 0.08644869 0.06160971 0.03465239
v 0.08465583 0.06413254 0.03342756
v 0.08640232 0.06154045 0.03237135
v 0.08565658 0.06238140 0.03153465
v 0.08450127 0.06390499 0.03132786
v 0.08277410 0.06647728 0.03553045
v 0.08660324 0.05971017 0.02502239
v 0.08647960 0.05954198 0.02352396
v 0.09270824 0.05103361 0.03025892
v 0.09064491 0.05320028 0.02584954
v 0.08858157 0.05536694 0.02147834
v 0.08843861 0.05512456 0.02007536
v 0.08826473 0.05484754 0.01872009
v 0.08617435 0.05908688 0.02081980
v 0.05956740 0.08757507 0.02933632
v 0.05956740 0.08768390 0.03132786
v 0.05956740 0.08778778 0.03342756
v 0.05956740 0.08777788 0.03414655
v 0.05956740 0.08770863 0.03564498
v 0.05956740 0.08761959 0.03644032
v 0.06116706 0.08674897 0.03656121
v 0.06220260 0.08622461 0.03572769
v 0.06374816 0.08504729 0.03553045
v 0.08888296 0.05379388 0.01872009
v 0.08999190 0.05190919 0.01883462
v 0.09441609 0.04592859 0.02502239
v 0.09481021 0.04472654 0.02396617
v 0.09719811 0.04119952 0.03132786
v 0.09817955 0.03946817 0.03342756
v 0.09706287 0.04088294 0.02922498
v 0.09696241 0.04065044 0.02779654
v 0.09766565 0.03725699 0.02304357
v 0.09765019 0.03725699 0.02293223
v 0.09258459 0.04871854 0.02251547
v 0.09076855 0.05131558 0.02081980
v 0.09282029 0.04912912 0.02502239
v 0.09300962 0.04947045 0.02712209
v 0.09307918 0.05005416 0.02942540
v 0.09380173 0.04787760 0.02712209
v 0.09585734 0.03725699 0.03945944
v 0.09375536 0.03736581 0.03950080
v 0.07694731 0.06678893 0.04020706
v 0.07484534 0.06889129 0.04024842
v 0.07274337 0.07099365 0.04028023
v 0.06433548 0.07729578 0.04027705
v 0.06223351 0.07939814 0.04029614
v 0.06433548 0.07939814 0.04028978
v 0.06223351 0.08150049 0.04024206
v 0.06013153 0.08360285 0.04014344
v 0.05956740 0.08565079 0.03950080
v 0.06348542 0.08480985 0.03681572
v 0.06579991 0.08287074 0.03706387
v 0.06900309 0.07999174 0.03763333
v 0.07056798 0.07882431 0.03742654
v 0.07569540 0.07396168 0.03838414
v 0.07768918 0.07168619 0.03818053
v 0.07859721 0.07098870 0.03754108
v 0.07973320 0.06947006 0.03763333
v 0.08248431 0.06613102 0.03714658
v 0.08438535 0.06376648 0.03677118
v 0.08458242 0.06403855 0.03553045
v 0.08719829 0.06048680 0.03342756
v 0.08643710 0.06159487 0.03342756
v 0.08570682 0.06263863 0.03342756
v 0.08569909 0.06242098 0.03542546
v 0.08861248 0.05746930 0.03686344
v 0.09052512 0.05510477 0.03553045
v 0.08821064 0.05891869 0.03342756
v 0.08695100 0.06061047 0.03153465
v 0.08692782 0.06016032 0.02922498
v 0.08615890 0.06120903 0.02922498
v 0.08676553 0.05993772 0.02712209
v 0.08814109 0.05876535 0.03132786
v 0.09276620 0.05112760 0.03132786
v 0.09335351 0.04997996 0.03132786
v 0.09257687 0.05080606 0.02885594
v 0.09051353 0.05297767 0.02444656
v 0.08904138 0.05432813 0.02079435
v 0.09097334 0.05167669 0.02292268
v 0.05956740 0.08725848 0.03763333
v 0.05956740 0.08706061 0.03811690
v 0.09455133 0.04622045 0.02712209
v 0.09408766 0.04787760 0.02922498
v 0.09476385 0.04672007 0.03065341
v 0.09589211 0.04367289 0.02922498
v 0.09674990 0.04225318 0.03132786
v 0.09826455 0.03946817 0.03553045
v 0.09887505 0.03789017 0.03553045
v 0.09885187 0.03734603 0.03325577
v 0.09790521 0.03946817 0.03132786
v 0.09484499 0.04691299 0.03205321
v 0.09724448 0.04169420 0.03361527
v 0.09691218 0.04262913 0.03443924
v 0.09762314 0.03946817 0.02922498
v 0.09887892 0.03725699 0.03325577
v 0.09222139 0.05017783 0.02502239
v 0.09751109 0.03725699 0.03903632
v 0.09585734 0.03736581 0.03945308
v 0.09375536 0.04157053 0.03951034
v 0.09375536 0.03946817 0.03955170
v 0.07904928 0.06468657 0.04007662
v 0.07694731 0.06889129 0.04005117
v 0.07484534 0.07099365 0.04007981
v 0.07064139 0.07309600 0.04029932
v 0.06853942 0.07519342 0.04030250
v 0.07274337 0.07309600 0.04004481
v 0.07064139 0.07519342 0.03999391
v 0.06853942 0.07729578 0.03993028
v 0.06643745 0.07939814 0.03979348
v 0.06003880 0.08563595 0.03934173
v 0.05956740 0.08642743 0.03910631
v 0.06795211 0.08082774 0.03763333
v 0.06982224 0.07852751 0.03883271
v 0.07346592 0.07594532 0.03819644
v 0.06751548 0.08047157 0.03870545
v 0.07429280 0.07454539 0.03889952
v 0.07629044 0.07256176 0.03892815
v 0.07824173 0.07028627 0.03889316
v 0.08017369 0.06795141 0.03876272
v 0.08210951 0.06562151 0.03854639
v 0.08646415 0.05952714 0.03875000
v 0.09017737 0.05472882 0.03763333
v 0.09086902 0.05367516 0.03763333
v 0.09112403 0.05405606 0.03553045
v 0.09278165 0.05116223 0.03342756
v 0.09440837 0.04771931 0.03134377
v 0.09337670 0.04997996 0.03342756
v 0.09518501 0.04592365 0.03134377
v 0.09867800 0.03725699 0.03753789
v 0.09691218 0.04262913 0.03452514
v 0.09726380 0.04170903 0.03534911
v 0.09685036 0.04249556 0.03592812
v 0.09712856 0.04098681 0.03763333
v 0.09903734 0.03725699 0.03553045
v 0.09435041 0.04796170 0.03342756
v 0.09859299 0.03725699 0.03773514
v 0.09693151 0.04056634 0.03870864
v 0.09748018 0.03736581 0.03903632
v 0.09585734 0.03946817 0.03927174
v 0.09375536 0.04367289 0.03930673
v 0.08114353 0.06258421 0.03991119
v 0.07697050 0.07098870 0.03928128
v 0.07493421 0.07319494 0.03927492
v 0.07904928 0.06678893 0.03986984
v 0.07275496 0.07522310 0.03923038
v 0.07056798 0.07725125 0.03917630
v 0.07898360 0.06874784 0.03918584
v 0.08061417 0.06678893 0.03908086
v 0.08453219 0.06186694 0.03890270
v 0.08683508 0.05838445 0.03896315
v 0.09063331 0.05320028 0.03870545
v 0.08527792 0.06032851 0.03907131
v 0.09276233 0.04905987 0.03873409
v 0.09298258 0.04950508 0.03763333
v 0.09267346 0.05096436 0.03617309
v 0.09226002 0.05189929 0.03549545
v 0.09272756 0.05107813 0.03477010
v 0.09482180 0.04685363 0.03465239
v 0.09435041 0.04768468 0.03542228
v 0.09476385 0.04673986 0.03605219
v 0.09642919 0.04347007 0.03534911
v 0.09507682 0.04527563 0.03763333
v 0.09486044 0.04484031 0.03873727
v 0.09509228 0.04367289 0.03889952
v 0.09584574 0.04138750 0.03901405
v 0.08534747 0.05838445 0.03946262
v 0.08324550 0.06048680 0.03969804
v 0.08328414 0.06257432 0.03926856
v 0.08260795 0.06422158 0.03902359
f 1 2 5
f 1 5 11
f 1 11 22
f 1 22 40
f 1 40 62
f 1 62 88
f 1 88 128
f 1 128 130
f 1 130 184
f 1 184 183
f 1 183 246
f 1 246 307
f 1 307 371
f 1 371 432
f 1 432 402
f 1 402 401
f 1 401 341
f 1 341 340
f 1 340 339
f 1 339 338
f 1 338 337
f 1 337 336
f 1 336 282
f 1 282 280
f 1 280 219
f 1 219 168
f 1 168 118
f 1 118 113
f 1 113 76
f 1 76 50
f 1 50 49
f 1 49 31
f 1 31 30
f 1 30 29
f 1 29 24
f 1 24 13
f 1 13 7
f 1 7 3
f 1 3 9
f 1 9 20
f 1 20 19
f 1 19 37
f 1 37 36
f 1 36 58
f 1 58 82
f 1 82 121
f 1 121 172
f 1 172 226
f 1 226 285
f 1 285 286
f 1 286 291
f 1 291 288
f 1 288 287
f 1 287 228
f 1 228 174
f 1 174 122
f 1 122 84
f 1 84 60
f 1 60 39
f 1 39 21
f 1 21 10
f 1 10 4
f 1 4 2
f 2 4 6
f 2 6 5
f 3 7 8
f 3 8 9
f 4 10 6
f 5 6 12
f 5 12 11
f 6 10 21
f 6 21 38
f 6 38 59
f 6 59 83
f 6 83 87
f 6 87 124
f 6 124 179
f 6 179 236
f 6 236 242
f 6 242 241
f 6 241 240
f 6 240 297
f 6 297 296
f 6 296 354
f 6 354 353
f 6 353 416
f 6 416 455
f 6 455 450
f 6 450 457
f 6 457 418
f 6 418 361
f 6 361 305
f 6 305 245
f 6 245 182
f 6 182 129
f 6 129 89
f 6 89 63
f 6 63 41
f 6 41 23
f 6 23 12
f 7 13 14
f 7 14 15
f 7 15 8
f 8 15 16
f 8 16 17
f 8 17 18
f 8 18 19
f 8 19 20
f 8 20 9
f 11 12 23
f 11 23 22
f 13 24 14
f 14 25 26
f 14 26 27
f 14 27 28
f 14 28 16
f 14 16 15
f 14 24 29
f 14 29 30
f 14 30 31
f 14 31 32
f 14 32 33
f 14 33 25
f 16 28 17
f 17 34 35
f 17 35 36
f 17 36 37
f 17 37 18
f 17 28 34
f 18 37 19
f 21 39 38
f 22 23 40
f 23 41 40
f 25 42 43
f 25 43 44
f 25 44 26
f 25 33 42
f 26 44 45
f 26 45 27
f 27 45 28
f 28 45 46
f 28 46 47
f 28 47 48
f 28 48 34
f 31 49 33
f 31 33 32
f 33 49 50
f 33 50 51
f 33 51 52
f 33 52 53
f 33 53 44
f 33 44 54
f 33 54 42
f 34 48 55
f 34 55 35
f 35 55 75
f 35 75 56
f 35 56 57
f 35 57 36
f 36 57 58
f 38 39 59
f 39 60 61
f 39 61 59
f 40 41 62
f 41 63 62
f 42 54 44
f 42 44 43
f 44 53 64
f 44 64 65
f 44 65 46
f 44 46 45
f 46 66 67
f 46 67 68
f 46 68 69
f 46 69 47
f 46 65 70
f 46 70 71
f 46 71 72
f 46 72 73
f 46 73 66
f 47 69 74
f 47 74 75
f 47 75 48
f 48 75 55
f 50 76 51
f 51 77 78
f 51 78 52
f 51 76 79
f 51 79 77
f 52 78 80
f 52 80 64
f 52 64 53
f 56 75 74
f 56 74 57
f 57 81 82
f 57 82 58
f 57 74 81
f 59 61 83
f 60 84 61
f 61 84 85
f 61 85 86
f 61 86 87
f 61 87 83
f 62 63 89
f 62 89 88
f 64 80 90
f 64 90 91
f 64 91 65
f 65 92 70
f 65 91 92
f 66 73 93
f 66 93 67
f 67 94 95
f 67 95 68
f 67 93 96
f 67 96 94
f 68 95 69
f 69 95 97
f 69 97 98
f 69 98 81
f 69 81 74
f 70 99 100
f 70 100 101
f 70 101 102
f 70 102 103
f 70 103 104
f 70 104 107
f 70 107 71
f 70 92 105
f 70 105 106
f 70 106 99
f 71 107 72
f 72 108 73
f 72 107 109
f 72 109 110
f 72 110 108
f 73 108 111
f 73 111 112
f 73 112 93
f 76 113 79
f 77 114 115
f 77 115 78
f 77 79 116
f 77 116 114
f 78 115 117
f 78 117 91
f 78 91 90
f 78 90 80
f 79 113 118
f 79 118 119
f 79 119 116
f 81 98 120
f 81 120 121
f 81 121 82
f 84 86 85
f 84 122 123
f 84 123 86
f 86 123 87
f 87 123 125
f 87 125 126
f 87 126 127
f 87 127 124
f 88 89 128
f 89 129 130
f 89 130 128
f 91 117 131
f 91 131 105
f 91 105 92
f 93 112 96
f 94 97 95
f 94 96 132
f 94 132 133
f 94 133 97
f 96 134 133
f 96 133 132
f 96 112 134
f 97 133 98
f 98 133 134
f 98 134 135
f 98 135 120
f 99 106 136
f 99 136 137
f 99 137 138
f 99 138 100
f 100 103 101
f 100 138 104
f 100 104 103
f 101 103 102
f 104 138 139
f 104 139 109
f 104 109 107
f 105 131 140
f 105 140 141
f 105 141 106
f 106 141 142
f 106 142 143
f 106 143 144
f 106 144 136
f 108 145 146
f 108 146 147
f 108 147 111
f 108 110 137
f 108 137 148
f 108 148 149
f 108 149 150
f 108 150 145
f 109 137 110
f 109 139 138
f 109 138 137
f 111 147 151
f 111 151 152
f 111 152 112
f 112 153 154
f 112 154 155
f 112 155 134
f 112 152 156
f 112 156 157
f 112 157 158
f 112 158 153
f 114 116 159
f 114 159 160
f 114 160 161
f 114 161 162
f 114 162 115
f 115 162 117
f 116 119 163
f 116 163 164
f 116 164 165
f 116 165 166
f 116 166 159
f 117 162 167
f 117 167 131
f 118 168 119
f 119 168 163
f 120 135 155
f 120 155 154
f 120 154 169
f 120 169 170
f 120 170 171
f 120 171 121
f 121 171 173
f 121 173 172
f 122 174 123
f 123 174 175
f 123 175 176
f 123 176 177
f 123 177 178
f 123 178 125
f 124 127 180
f 124 180 179
f 125 178 126
f 126 178 181
f 126 181 127
f 127 181 180
f 129 182 183
f 129 183 184
f 129 184 130
f 131 167 140
f 134 155 135
f 136 144 137
f 137 144 149
f 137 149 148
f 140 167 162
f 140 162 141
f 141 162 142
f 142 162 185
f 142 185 186
f 142 186 143
f 143 187 188
f 143 188 189
f 143 189 190
f 143 190 191
f 143 191 144
f 143 186 252
f 143 252 187
f 144 191 149
f 145 192 193
f 145 193 194
f 145 194 146
f 145 150 195
f 145 195 192
f 146 196 197
f 146 197 198
f 146 198 199
f 146 199 200
f 146 200 201
f 146 201 202
f 146 202 203
f 146 203 147
f 146 194 196
f 147 203 151
f 149 191 204
f 149 204 150
f 150 204 205
f 150 205 195
f 151 203 206
f 151 206 152
f 152 206 207
f 152 207 156
f 153 208 209
f 153 209 154
f 153 158 210
f 153 210 208
f 154 209 169
f 156 207 211
f 156 211 212
f 156 212 213
f 156 213 158
f 156 158 157
f 158 213 214
f 158 214 215
f 158 215 210
f 159 166 165
f 159 165 223
f 159 223 216
f 159 216 217
f 159 217 160
f 160 217 218
f 160 218 185
f 160 185 161
f 161 185 162
f 163 168 219
f 163 219 220
f 163 220 221
f 163 221 222
f 163 222 223
f 163 223 164
f 164 223 165
f 169 209 170
f 170 210 171
f 170 209 210
f 171 224 173
f 171 210 224
f 172 173 225
f 172 225 226
f 173 224 227
f 173 227 225
f 174 228 175
f 175 229 176
f 175 228 229
f 176 230 178
f 176 178 177
f 176 229 231
f 176 231 232
f 176 232 233
f 176 233 215
f 176 215 230
f 178 230 234
f 178 234 235
f 178 235 181
f 179 180 236
f 180 181 237
f 180 237 238
f 180 238 239
f 180 239 240
f 180 240 241
f 180 241 242
f 180 242 236
f 181 243 244
f 181 244 237
f 181 235 243
f 182 245 183
f 183 245 246
f 185 247 186
f 185 218 248
f 185 248 249
f 185 249 250
f 185 250 251
f 185 251 247
f 186 247 252
f 187 253 188
f 187 252 253
f 188 254 255
f 188 255 189
f 188 253 254
f 189 255 256
f 189 256 190
f 190 256 257
f 190 257 258
f 190 258 259
f 190 259 260
f 190 260 319
f 190 319 261
f 190 261 204
f 190 204 191
f 192 195 193
f 193 262 197
f 193 197 196
f 193 196 194
f 193 195 263
f 193 263 262
f 195 205 263
f 197 199 198
f 197 262 257
f 197 257 264
f 197 264 199
f 199 265 200
f 199 264 266
f 199 266 267
f 199 267 265
f 200 265 268
f 200 268 201
f 201 268 269
f 201 269 202
f 202 270 203
f 202 269 271
f 202 271 270
f 203 270 272
f 203 272 206
f 204 261 273
f 204 273 263
f 204 263 205
f 206 272 270
f 206 270 274
f 206 274 275
f 206 275 207
f 207 275 211
f 208 210 209
f 210 215 233
f 210 233 227
f 210 227 224
f 211 276 277
f 211 277 212
f 211 275 276
f 212 214 213
f 212 277 278
f 212 278 214
f 214 278 215
f 215 278 279
f 215 279 230
f 216 223 218
f 216 218 217
f 218 223 221
f 218 221 248
f 219 280 220
f 220 281 221
f 220 280 282
f 220 282 281
f 221 249 248
f 221 223 222
f 221 281 283
f 221 283 284
f 221 284 249
f 225 285 226
f 225 227 233
f 225 233 286
f 225 286 285
f 228 287 229
f 229 288 231
f 229 287 288
f 230 289 290
f 230 290 234
f 230 279 289
f 231 288 291
f 231 291 232
f 232 291 233
f 233 291 286
f 234 292 235
f 234 290 289
f 234 289 293
f 234 293 292
f 235 292 294
f 235 294 243
f 237 244 238
f 238 244 295
f 238 295 296
f 238 296 297
f 238 297 240
f 238 240 239
f 243 298 244
f 243 294 299
f 243 299 300
f 243 300 301
f 243 301 298
f 244 298 302
f 244 302 303
f 244 303 304
f 244 304 295
f 245 305 306
f 245 306 246
f 246 306 307
f 247 251 308
f 247 308 309
f 247 309 310
f 247 310 252
f 249 308 251
f 249 251 250
f 249 284 311
f 249 311 312
f 249 312 313
f 249 313 308
f 252 310 314
f 252 314 315
f 252 315 253
f 253 315 316
f 253 316 313
f 253 313 317
f 253 317 318
f 253 318 254
f 254 318 255
f 255 318 257
f 255 257 256
f 257 262 319
f 257 319 258
f 257 318 320
f 257 320 264
f 258 260 259
f 258 319 260
f 261 319 262
f 261 262 273
f 262 263 273
f 264 320 266
f 265 321 322
f 265 322 323
f 265 323 324
f 265 324 325
f 265 325 326
f 265 326 269
f 265 269 268
f 265 267 327
f 265 327 321
f 266 320 267
f 267 320 327
f 269 274 271
f 269 326 328
f 269 328 329
f 269 329 274
f 270 271 274
f 274 329 275
f 275 329 330
f 275 330 331
f 275 331 332
f 275 332 333
f 275 333 334
f 275 334 335
f 275 335 277
f 275 277 276
f 277 335 278
f 278 335 289
f 278 289 279
f 281 282 336
f 281 336 337
f 281 337 338
f 281 338 339
f 281 339 283
f 283 339 340
f 283 340 341
f 283 341 342
f 283 342 343
f 283 343 344
f 283 344 284
f 284 344 313
f 284 313 311
f 289 335 334
f 289 334 293
f 292 293 345
f 292 345 346
f 292 346 294
f 293 334 345
f 294 346 299
f 295 304 347
f 295 347 348
f 295 348 349
f 295 349 350
f 295 350 351
f 295 351 352
f 295 352 353
f 295 353 354
f 295 354 296
f 298 301 355
f 298 355 302
f 299 346 300
f 300 346 333
f 300 333 301
f 301 333 356
f 301 356 355
f 302 355 357
f 302 357 358
f 302 358 303
f 303 358 359
f 303 359 360
f 303 360 304
f 304 360 347
f 305 361 362
f 305 362 363
f 305 363 364
f 305 364 365
f 305 365 366
f 305 366 367
f 305 367 306
f 306 367 368
f 306 368 369
f 306 369 370
f 306 370 307
f 307 370 371
f 308 313 309
f 309 313 316
f 309 316 310
f 310 316 315
f 310 315 314
f 311 313 312
f 313 344 343
f 313 343 372
f 313 372 373
f 313 373 374
f 313 374 375
f 313 375 376
f 313 376 317
f 317 376 318
f 318 376 320
f 320 376 377
f 320 377 378
f 320 378 379
f 320 379 380
f 320 380 321
f 320 321 327
f 321 381 382
f 321 382 322
f 321 380 381
f 322 383 384
f 322 384 385
f 322 385 323
f 322 382 386
f 322 386 387
f 322 387 388
f 322 388 389
f 322 389 383
f 323 385 324
f 324 385 384
f 324 384 383
f 324 383 390
f 324 390 391
f 324 391 325
f 325 391 392
f 325 392 326
f 326 392 328
f 328 393 394
f 328 394 329
f 328 392 393
f 329 394 330
f 330 395 396
f 330 396 359
f 330 359 358
f 330 358 357
f 330 357 397
f 330 397 398
f 330 398 331
f 330 394 395
f 331 398 332
f 332 399 333
f 332 398 400
f 332 400 355
f 332 355 356
f 332 356 399
f 333 399 356
f 333 346 345
f 333 345 334
f 341 401 342
f 342 401 402
f 342 402 372
f 342 372 343
f 347 403 348
f 347 360 404
f 347 404 403
f 348 403 405
f 348 405 406
f 348 406 407
f 348 407 349
f 349 407 350
f 350 408 409
f 350 409 410
f 350 410 353
f 350 353 411
f 350 411 351
f 350 407 412
f 350 412 413
f 350 413 414
f 350 414 408
f 351 411 415
f 351 415 353
f 351 353 352
f 353 415 411
f 353 410 416
f 355 400 357
f 357 400 417
f 357 417 397
f 359 396 404
f 359 404 360
f 361 418 419
f 361 419 420
f 361 420 363
f 361 363 421
f 361 421 362
f 362 421 363
f 363 422 423
f 363 423 364
f 363 420 422
f 364 423 365
f 365 423 424
f 365 424 425
f 365 425 367
f 365 367 366
f 367 425 426
f 367 426 368
f 368 426 424
f 368 424 427
f 368 427 369
f 369 427 428
f 369 428 429
f 369 429 370
f 370 429 430
f 370 430 371
f 371 431 432
f 371 430 431
f 372 402 373
f 373 402 433
f 373 433 374
f 374 434 435
f 374 435 375
f 374 433 436
f 374 436 434
f 375 435 376
f 376 435 434
f 376 434 437
f 376 437 438
f 376 438 439
f 376 439 377
f 377 439 440
f 377 440 441
f 377 441 379
f 377 379 378
f 379 441 380
f 380 441 442
f 380 442 381
f 381 442 443
f 381 443 387
f 381 387 382
f 382 387 386
f 383 389 394
f 383 394 390
f 387 443 444
f 387 444 388
f 388 444 445
f 388 445 446
f 388 446 395
f 388 395 389
f 389 395 394
f 390 394 391
f 391 394 393
f 391 393 392
f 395 446 396
f 396 447 404
f 396 446 448
f 396 448 412
f 396 412 447
f 397 400 398
f 397 417 400
f 402 432 433
f 403 404 405
f 404 447 405
f 405 412 449
f 405 449 407
f 405 407 406
f 405 447 412
f 407 449 412
f 408 450 409
f 408 414 451
f 408 451 452
f 408 452 453
f 408 453 454
f 408 454 450
f 409 455 416
f 409 416 410
f 409 450 455
f 412 414 413
f 412 448 456
f 412 456 414
f 414 456 451
f 418 457 458
f 418 458 459
f 418 459 419
f 419 459 460
f 419 460 420
f 420 460 461
f 420 461 462
f 420 462 422
f 422 462 423
f 423 463 464
f 423 464 424
f 423 462 465
f 423 465 463
f 424 464 427
f 424 426 425
f 427 464 428
f 428 464 429
f 429 464 466
f 429 466 467
f 429 467 430
f 430 467 431
f 431 467 434
f 431 434 432
f 432 434 436
f 432 436 433
f 434 467 437
f 437 467 466
f 437 466 464
f 437 464 438
f 438 464 463
f 438 463 439
f 439 463 468
f 439 468 469
f 439 469 440
f 440 469 470
f 440 470 442
f 440 442 441
f 442 471 472
f 442 472 444
f 442 444 443
f 442 470 473
f 442 473 471
f 444 472 474
f 444 474 475
f 444 475 476
f 444 476 445
f 445 476 477
f 445 477 446
f 446 477 478
f 446 478 448
f 448 478 476
f 448 476 479
f 448 479 451
f 448 451 456
f 450 458 457
f 450 454 458
f 451 479 480
f 451 480 481
f 451 481 482
f 451 482 453
f 451 453 452
f 453 482 481
f 453 481 483
f 453 483 454
f 454 483 458
f 458 483 484
f 458 484 485
f 458 485 486
f 458 486 459
f 459 486 460
f 460 486 461
f 461 486 485
f 461 485 474
f 461 474 487
f 461 487 488
f 461 488 462
f 462 488 465
f 463 465 468
f 465 488 487
f 465 487 471
f 465 471 473
f 465 473 489
f 465 489 490
f 465 490 468
f 468 490 469
f 469 490 470
f 470 490 489
f 470 489 473
f 471 487 472
f 472 487 474
f 474 485 484
f 474 484 475
f 475 484 483
f 475 483 476
f 476 478 477
f 476 483 481
f 476 481 480
f 476 480 479

