# https://github.com/mikedh/trimesh
v -0.85153747 0.41454101 0.05343244
v -0.85845846 0.27315480 0.05018671
v -0.95608580 0.65050644 -0.10064724
v -0.93332845 0.65843958 0.05062720
v -0.86636811 0.24285032 -0.11254771
v -0.89134210 0.27434343 -0.10688460
v -0.85189533 0.18005948 -0.11213749
v -0.92952967 0.69536799 -0.10809486
v -0.83107632 0.10279343 -0.10004292
v -0.84951442 0.25536138 -0.02853744
v -0.84417599 0.35646641 0.06643663
v -0.93701190 0.51199180 -0.10895121
v -0.82599044 0.06824211 -0.11249038
v -0.75366980 0.36963189 0.05682334
v -0.74649608 0.68898636 0.08768794
v -0.81563848 0.11162430 -0.02375975
v -0.76452744 0.19055873 -0.01715949
v -0.78894717 0.42244804 0.06868436
v -0.77741617 0.14255671 0.02416854
v -0.62145370 0.22709651 -0.01928093
v -0.77600920 0.27515393 -0.02427793
v -0.78490961 0.36305735 0.08450951
v -0.71421981 0.44466624 -0.01187802
v -0.71429038 0.44494399 -0.01183551
v -0.74128598 0.51309246 0.05106647
v -0.69941527 0.56293982 0.05118860
v -0.74790561 0.65706599 0.06047723
v -0.75025976 0.74404347 0.05003444
v -0.75209081 -0.10198084 -0.02387876
v -0.76859128 -0.12537913 -0.11328954
v -0.71641380 -0.04372425 0.02636477
v -0.77573305 -0.03159670 -0.02538484
v -0.73015666 0.13171683 0.00778730
v -0.70191842 0.00598902 -0.01285911
v -0.70174158 0.31196594 0.05137006
v -0.70160055 0.53308797 -0.05357896
v -0.71465814 0.49027464 -0.05374601
v -0.71428978 0.43685624 -0.00424802
v -0.71429014 0.44076031 -0.00792004
v -0.71427977 0.44075623 -0.00797802
v -0.71428978 0.44081625 -0.00797802
v -0.71020645 -0.28089675 -0.09514188
v -0.76764107 0.75902760 -0.02152574
v -0.70157838 0.69949138 0.09163207
v -0.64084238 -0.06852768 -0.05150841
v -0.63778812 -0.40201470 -0.02534616
v -0.65010488 -0.06604217 -0.02491268
v -0.70056468 0.14905447 -0.03355165
v -0.72112608 0.28164372 -0.04925063
v -0.71556622 0.21657905 -0.01578650
v -0.67753839 0.30365911 -0.05350959
v -0.71416980 0.44856623 -0.01578802
v -0.65220165 -0.04982792 -0.02886764
v -0.71052468 0.41552302 -0.00143567
v -0.66701752 0.69218349 0.05683844
v -0.65622658 0.79181778 0.05144784
v -0.66821247 0.02740700 -0.03089722
v -0.58271915 0.62703270 0.05139082
v -0.63670778 -0.04019804 -0.00909738
v -0.67138499 0.10305534 -0.00619829
v -0.67891538 0.12190232 0.03751339
v -0.58331513 0.68154496 -0.02924140
v -0.65810281 0.82404250 -0.10252501
v -0.62547064 0.78467113 -0.02525414
v -0.48168600 -0.45561248 -0.02482367
v -0.57171994 -0.02210137 0.03961066
v -0.54863447 -0.05216524 -0.01444556
v -0.57501888 0.28696033 0.03963078
v -0.57985657 0.11982898 0.11465045
v -0.76814544 0.57772708 -0.11373413
v -0.64391601 -0.43041337 -0.11227870
v -0.58159834 -0.49719545 -0.02615981
v -0.51988584 -0.03952739 0.06182459
v -0.52668977 -0.03189376 0.06233198
v -0.52287978 -0.03570376 0.06233198
v -0.52287978 -0.02953376 0.06623198
v -0.53069979 -0.02798376 0.06226198
v -0.53062463 -0.02795129 0.06233168
v -0.55745256 0.61556369 -0.05308788
v -0.54598904 -0.02240511 0.05610150
v -0.52678978 -0.03189376 0.06226198
v -0.59880430 0.00824163 0.03987651
v -0.44750607 -0.07132997 -0.05531678
v -0.39296797 0.23137197 -0.02251880
v -0.48171061 0.00403904 0.11407336
v -0.51365072 -0.60960108 -0.11145547
v -0.64075249 -0.07569498 -0.11311892
v -0.45197585 -0.13743691 0.04063142
v -0.52678978 -0.03179376 0.06233198
v -0.44999117 -0.13762239 -0.02006721
v -0.47948191 0.72765321 -0.02985609
v -0.41497305 -0.49493706 -0.11266644
v -0.71834189 0.23763610 -0.05360746
v -0.30634329 -0.82526392 -0.08646315
v -0.28188834 -0.80898440 0.05070050
v -0.44582045 -0.65029067 -0.02466407
v -0.42085755 -0.05478166 -0.02082545
v -0.35944825 -0.00380753 -0.00623232
v -0.45855838 0.29806983 0.11420836
v -0.42780548 0.44687504 0.04219787
v -0.62709671 0.80932224 -0.11312770
v -0.34554049 -0.75975150 -0.06977469
v -0.49185839 -0.40953213 -0.05418723
v -0.21967100 -0.04649517 -0.00815212
v -0.39045122 0.35309514 0.03730208
v -0.42474815 0.44911191 -0.01814238
v -0.32166216 0.54524148 -0.01906492
v -0.47507110 0.70995420 -0.11286380
v -0.31273299 -0.79716665 -0.11429251
v -0.39131945 -0.27266380 -0.01996098
v -0.13258964 0.25197130 -0.05390056
v -0.38584688 0.34600550 -0.02074954
v -0.37654933 0.88420826 -0.02545059
v -0.21471250 -0.62795198 -0.05346973
v -0.36046720 0.08827946 0.11408459
v -0.32379982 0.90950620 -0.05094802
v -0.32371679 0.90949333 -0.05083411
v -0.16778143 -0.90076083 -0.11018428
v -0.27732855 0.00565395 0.03864169
v -0.38115838 -0.28339329 0.03776817
v -0.39878896 -0.02306054 0.04036720
v -0.39494488 0.75132626 -0.05397446
v -0.20863679 0.68123305 0.03896026
v -0.33903140 0.90733588 -0.05877702
v -0.32756981 0.90958619 -0.05484802
v -0.32365981 0.90954620 -0.05094802
v -0.32757545 0.90950835 -0.05461938
v -0.33147982 0.90950620 -0.05839802
v -0.32365981 0.90832627 -0.04703802
v -0.31977981 0.90950620 -0.04703802
v -0.31971949 0.90952206 -0.04700143
v -0.32365981 0.91199619 -0.05875802
v -0.29203671 -0.78414065 -0.02466782
v -0.21830398 -0.48885849 -0.01584198
v -0.21466981 -0.49282375 -0.01578802
v -0.21497633 -0.49239889 -0.00962381
v -0.21819980 -0.48897377 0.00373198
v -0.29689112 0.24781093 0.11399652
v -0.25652748 0.33528557 0.03481573
v -0.27256483 0.92316747 -0.04479929
v -0.31301287 0.92070174 -0.07782413
v -0.23837869 -0.33669117 0.11445397
v -0.16365653 -0.35843807 -0.05425313
v -0.24345861 -0.67854983 -0.02456790
v -0.17874026 -0.82390159 0.05195851
v -0.26446989 -0.43828771 0.03932202
v -0.15645926 0.04640005 -0.11244802
v -0.20665897 -0.06676885 -0.01581375
v -0.20646980 -0.06704376 -0.01578802
v -0.20647980 -0.06703376 -0.01187802
v -0.20647980 -0.06703376 -0.00797802
v -0.22338581 -0.03668933 0.03962917
v -0.20647980 -0.06703376 0.01936198
v -0.20647980 -0.06703376 0.02326198
v -0.20646980 -0.06704376 0.01936198
v -0.27287981 0.92513627 -0.05133802
v -0.39238697 0.90105778 -0.11182272
v -0.30715391 0.90562576 -0.02489007
v -0.27678981 0.92513627 -0.05512802
v -0.27247983 0.92513627 -0.05094802
v -0.27649981 0.92513627 -0.05484802
v -0.26729465 0.93270069 -0.07098649
v -0.26829687 0.92885458 -0.05876279
v -0.27678981 0.92626619 -0.05875802
v -0.24984032 -0.66824222 -0.05382372
v -0.14412861 -0.65447295 -0.00732950
v -0.22417219 -0.74080652 0.05752907
v -0.21824980 -0.48892376 0.00373198
v -0.21824980 -0.48892376 -0.00016802
v -0.21819980 -0.48897377 -0.00016802
v -0.21824980 -0.48892376 -0.00797802
v -0.21824980 -0.48892376 -0.01187802
v -0.21819980 -0.48897377 -0.01187802
v -0.14787981 -0.64740378 -0.00797802
v -0.21824980 -0.48892376 0.01154198
v -0.21824980 -0.48892376 0.00764198
v -0.21824980 -0.48892376 -0.00406802
v -0.27370492 -0.26182181 0.03815974
v -0.20647980 -0.06703376 0.02717198
v -0.26601058 -0.25880742 -0.02020764
v -0.26313215 -0.00243836 -0.00773516
v -0.21251044 -0.05385033 -0.02125073
v -0.20442981 -0.07095376 -0.01578802
v -0.20646980 -0.06704376 0.02717198
v -0.20646980 -0.06704376 -0.01187802
v -0.20647980 -0.06703376 0.03108198
v -0.20627932 -0.06724587 0.03110957
v -0.20646980 -0.06704376 -0.00016802
v -0.20647980 -0.06703376 -0.00016802
v -0.20646980 -0.06704376 -0.00406802
v -0.25186291 0.33982456 -0.02036437
v -0.31237957 0.56138313 0.04689863
v -0.24780245 0.64406824 -0.02096674
v -0.21819980 -0.48897377 -0.00406802
v -0.21034113 -0.76303464 0.09324314
v -0.20664980 -0.50103027 0.03901548
v -0.14792348 -0.65673405 -0.00783841
v -0.25483954 -0.44809571 -0.02027131
v -0.21819980 -0.48897377 -0.01578802
v -0.14397980 -0.50454372 0.07785198
v -0.21819980 -0.48897377 -0.00797802
v -0.13615981 -0.50608379 0.08186198
v -0.20420913 -0.06976950 0.03953441
v -0.11695627 -0.22953495 0.11371069
v -0.20646980 -0.06704376 0.02326198
v -0.20646980 -0.06704376 0.00764198
v -0.20646980 -0.06704376 0.01154198
v -0.20647980 -0.06703376 0.01154198
v -0.20647980 -0.06703376 -0.00406802
v -0.17668372 -0.12825154 -0.02004142
v -0.20646980 -0.06704376 -0.00797802
v -0.20647980 -0.06703376 0.03498198
v -0.20442981 -0.07095376 0.03498198
v -0.20647980 -0.06703376 0.01545198
v -0.20646980 -0.06704376 0.01545198
v -0.20646980 -0.06704376 0.00373198
v -0.20647980 -0.06703376 0.00373198
v -0.20647980 -0.06703376 0.00764198
v -0.19541481 -0.08852876 0.00959198
v -0.20151642 0.06259739 0.11423831
v -0.11866562 0.23939893 -0.02132830
v -0.15408321 -0.66440862 -0.01749357
v -0.17208648 0.41848928 -0.02051744
v -0.20884208 0.51996839 0.04118394
v -0.13347465 0.55615473 0.11345335
v -0.20223489 0.50370759 -0.02031940
v -0.18135753 -0.79524773 0.08681760
v -0.14846981 -0.91079372 -0.06656802
v -0.13959122 -0.74974418 0.05470151
v -0.15332855 -0.55778390 -0.02030662
v -0.21238549 -0.65514356 0.04894938
v -0.14787981 -0.65298378 -0.00788802
v -0.15071392 -0.67768830 -0.00871771
v -0.21107207 -0.49499732 -0.02027076
v -0.09328715 -0.51207215 0.10555414
v -0.14990807 -0.50333595 0.07481139
v -0.13615981 -0.51228374 0.07795198
v -0.14001329 -0.50838560 0.07795503
v -0.13191380 -0.51660287 0.07793684
v -0.13608982 -0.51235378 0.07795198
v -0.09954102 -0.60972559 0.03904629
v -0.17908727 -0.52186650 0.04424146
v -0.14006980 -0.50845379 0.07787198
v -0.18086928 -0.89145195 -0.05579678
v -0.13208374 -0.45861915 0.11401550
v -0.14255917 -0.15709218 -0.02169750
v -0.14787981 -0.91111380 -0.06656802
v -0.14397980 -0.91326380 -0.06656802
v -0.18585837 -0.16302298 0.03809823
v -0.12084375 -0.15227859 0.09710160
v -0.18236873 -0.12515636 0.03928998
v -0.14971426 -0.05924622 -0.03501727
v -0.14629169 0.57989317 -0.05349397
v -0.14427163 0.30687618 0.11392285
v -0.16919127 0.40939730 0.04637455
v -0.18101776 0.59032571 0.11329996
v -0.13609280 0.72497749 -0.02244250
v -0.14739534 -0.91080201 -0.06364821
v -0.14136980 -0.91470379 -0.06656802
v -0.13615981 -0.51235378 0.07790198
v -0.13225982 -0.51623374 0.07795198
v -0.14787981 -0.64907378 -0.00794802
v -0.14791980 -0.64907378 -0.00797802
v -0.16793144 -0.71232307 -0.11253152
v -0.11662981 -0.92642379 -0.05734802
v -0.17086415 -0.65352386 -0.05311554
v 0.00525883 -0.77383381 -0.00638973
v -0.14803618 -0.65495968 -0.00797932
v -0.11274981 -0.92642379 -0.04703802
v -0.10258967 -0.92903447 -0.03315199
v -0.11569170 -0.92874110 -0.06610552
v -0.09825993 -0.49267724 0.11426496
v -0.14985132 -0.41476431 -0.02155882
v -0.11605679 -0.14338163 0.10147498
v -0.12053981 -0.14126375 0.09748198
v -0.12048981 -0.14517376 0.09748198
v -0.12052981 -0.14126375 0.09748198
v -0.12053981 -0.14517376 0.09744198
v -0.12053981 -0.14070375 0.09748198
v -0.12871814 -0.13825488 0.09017566
v -0.12061436 -0.13225266 0.09749836
v -0.12053981 -0.13345376 0.09755198
v -0.09047302 0.41734716 0.11412874
v -0.12264293 0.35549048 -0.02130224
v 0.01155523 0.79278499 -0.02518277
v -0.14624207 0.83242923 -0.03306151
v -0.09742437 0.98175001 -0.11323806
v -0.11716981 -0.92642379 -0.05875802
v -0.11421981 -0.92642379 -0.05094802
v -0.12057981 -0.13735376 0.09748198
v -0.12053981 -0.13735376 0.09751198
v -0.12493606 -0.50628799 0.08888050
v -0.12044981 -0.14907376 0.09748198
v -0.11023805 -0.05438017 0.11427256
v 0.00838009 0.70718938 0.11432306
v 0.00643710 -0.59532493 0.11391053
v -0.05022981 0.76886618 0.01545198
v -0.05022981 0.76886618 0.01154198
v -0.06266569 0.76321423 0.03893966
v -0.08423809 0.75213271 -0.01937189
v -0.05019981 0.76888627 0.00373198
v -0.01222173 0.78770685 -0.01645423
v -0.14522171 -0.56830192 -0.00709062
v 0.00770063 -0.70531118 -0.00711352
v -0.05022981 0.76886618 0.00764198
v -0.05019981 0.76888627 0.00764198
v -0.05019981 0.76888627 0.01154198
v 0.00691358 -0.96267486 0.05079403
v 0.00864948 -0.70534211 0.03891752
v 0.54361022 -0.06704376 0.02912698
v 0.54351020 -0.06713376 0.03108198
v 0.00655308 0.79107356 0.04267114
v 0.00193684 0.79450881 0.02290557
v 0.14637226 0.84170002 -0.02849988
v 0.15651076 -0.79629076 0.05905871
v 0.22737250 -0.62765253 -0.05318611
v 0.12253985 -0.74998170 -0.11326487
v -0.10031771 0.96204084 -0.02521575
v 0.13623559 -0.92033333 -0.11398463
v 0.08171665 -0.92534822 0.04949109
v -0.00140771 -0.99296224 -0.10460878
v 0.00554143 -0.78494924 0.05093177
v 0.11472109 -0.49127695 0.11415275
v 0.15289018 -0.54751378 0.05450198
v 0.15680020 -0.54360378 0.05447198
v 0.15673018 -0.54360378 0.05451198
v 0.12805125 -0.21496713 0.11422946
v 0.38570562 -0.52147740 -0.04264574
v 0.36140954 0.76705921 -0.11276709
v 0.06822487 0.76638377 -0.02276859
v 0.11309917 0.74689096 -0.01777445
v 0.16551657 -0.67122716 -0.01742324
v 0.14505231 -0.55542606 0.05451115
v 0.14508019 -0.55532378 0.05456198
v 0.17943951 -0.58975214 -0.05365114
v 0.21216673 -0.51153600 0.03881152
v 0.14514020 -0.55532378 0.05451198
v 0.14898019 -0.55144382 0.05451198
v 0.15533224 -0.26537216 -0.02143209
v 0.12155076 -0.54895329 0.07358052
v 0.15680863 -0.54353642 0.05451201
v 0.15448207 -0.70158052 0.04806738
v 0.25019437 -0.34144115 0.11449172
v 0.11156850 0.36847872 0.11324731
v 0.09039019 0.75716621 -0.01593802
v 0.08648019 0.75902629 -0.01578802
v 0.09039019 0.75720620 -0.01578802
v 0.09048019 0.75716621 -0.01578802
v 0.09039019 0.75720620 -0.01187802
v 0.08725011 0.75857741 0.03880180
v 0.07859733 0.76145434 -0.01916336
v 0.09048019 0.75716621 -0.01187802
v 0.09039019 0.75720620 -0.00797802
v 0.09039019 0.75720620 -0.00016802
v 0.09430019 0.75538623 -0.01578802
v 0.09048019 0.75716621 -0.00797802
v 0.09039019 0.75720620 -0.00406802
v 0.14866588 0.72094977 -0.02103153
v 0.11773019 -0.53579372 0.08429198
v 0.14898019 -0.55142379 0.05453198
v 0.15287019 -0.54751378 0.05451198
v 0.11773019 -0.54360378 0.07937198
v 0.19323888 -0.51062340 0.05203793
v 0.11476951 -0.55036789 0.07705180
v 0.11773019 -0.53965378 0.08186198
v 0.12155019 -0.53579372 0.08186198
v 0.11773019 -0.53970379 0.08183198
v 0.11769019 -0.53970379 0.08186198
v 0.19907452 -0.76176590 0.09740850
v 0.12164019 -0.53579372 0.08180198
v 0.16000198 -0.53830534 0.05576492
v 0.16107383 -0.53933889 0.05442719
v 0.19586019 0.41729623 0.02717198
v -0.11333431 0.82859504 -0.11417047
v 0.24286337 -0.86436605 -0.11009910
v 0.16059020 -0.53970379 0.05451198
v 0.14911371 -0.55140102 0.05447679
v 0.15289018 -0.55142379 0.05204198
v 0.15003780 -0.57474059 0.03902914
v 0.13850296 -0.54973340 0.06227841
v 0.15285857 -0.54731208 0.05463218
v 0.12241332 -0.53495228 0.08184501
v 0.12088799 -0.07623631 0.11408558
v 0.15958151 -0.06382009 -0.04291637
v 0.19090217 0.41122901 0.04247992
v 0.13513331 0.41941515 -0.02182029
v 0.19586019 0.41729623 0.01936198
v 0.16500434 0.82329559 -0.05291410
v 0.54342020 -0.02407376 0.06623198
v 0.54351020 -0.02407376 0.06617198
v 0.54351020 -0.02398376 0.06623198
v 0.43022826 -0.05048976 -0.01461103
v 0.14690690 0.95139450 -0.02497819
v 0.23494020 -0.87173378 -0.09391802
v 0.30502853 -0.40652862 0.03494169
v 0.23226020 -0.87173378 -0.10562802
v 0.23494020 -0.87173378 -0.10172802
v 0.23101018 -0.87389380 -0.10172802
v 0.16176119 -0.56800586 -0.01581666
v 0.24226899 -0.83352089 0.05150897
v 0.25548720 -0.67862093 -0.02518786
v 0.15075873 -0.45540959 0.11393550
v 0.20188363 -0.09427241 0.03897851
v 0.19608718 -0.18472901 0.04925790
v 0.23101018 -0.87389380 -0.09000802
v 0.19091761 -0.89933306 -0.10004459
v 0.21502751 -0.88297987 -0.10667398
v 0.33926740 0.09157105 0.11422474
v 0.21712461 0.36804822 0.03869084
v 0.19616468 0.41161942 -0.01939107
v 0.19581135 0.41376510 0.03901057
v 0.19586019 0.41380623 0.03889198
v 0.19586019 0.41729623 0.03498198
v 0.23466371 -0.87186128 -0.10171973
v 0.18244848 0.59502673 0.11553383
v 0.23230533 0.67622715 0.03814658
v 0.23492017 -0.87174380 -0.09391802
v 0.23492017 -0.87174380 -0.09000802
v 0.23492017 -0.87174380 -0.09781802
v 0.24664018 -0.22722375 0.01154198
v 0.27768454 -0.63559860 -0.02688506
v 0.23494020 -0.87173378 -0.09781802
v 0.31591210 -0.39302972 0.03907806
v 0.22676131 -0.65971041 0.04743816
v 0.32329580 -0.81931591 -0.10477221
v 0.23749812 -0.22006494 -0.01997816
v 0.30133018 -0.41088375 0.03108198
v 0.30133018 -0.41088375 0.03498198
v 0.21151362 -0.08629521 0.03828541
v 0.19843359 -0.14824274 -0.01999607
v 0.24661019 -0.22720376 0.00764198
v 0.24661019 -0.22720376 0.01154198
v 0.24664018 -0.22722375 0.00373198
v 0.24661019 -0.22720376 0.00373198
v 0.24273019 -0.22364376 0.01545198
v 0.22859333 -0.05172775 -0.01592183
v 0.21678497 0.06006997 0.11408075
v 0.24661019 -0.22720376 0.01545198
v 0.53171021 -0.03579376 0.06623198
v 0.52789021 -0.03970376 0.06618198
v 0.53180021 -0.03579376 0.06618198
v 0.19586019 0.41731623 0.02326198
v 0.19586019 0.41731623 0.01936198
v 0.19586019 0.41729623 0.02326198
v 0.19586019 0.41731623 0.02717198
v 0.19456707 0.44571301 -0.01992696
v 0.19631019 0.41341624 0.03498198
v 0.19586019 0.41731623 0.03498198
v 0.19586019 0.41731623 0.03108198
v 0.20111795 0.48312113 0.04178372
v 0.19586019 0.41729623 0.03108198
v 0.22668540 0.36170903 -0.01974211
v 0.25746852 0.52850729 0.03812039
v 0.22586055 0.67643237 -0.01832776
v 0.30133018 -0.41088375 0.00959198
v 0.26741967 0.81034362 -0.02464975
v 0.12025887 0.97697467 -0.11044509
v 0.24058110 -0.73771858 0.05704663
v 0.16763441 0.51736152 -0.11244842
v 0.30133018 -0.41088375 0.01936198
v 0.30133018 -0.41088375 0.01545198
v 0.30133018 -0.41088375 0.02326198
v 0.37164018 -0.54000378 -0.03531802
v 0.30140018 -0.41079375 0.02717198
v 0.30140018 -0.41079375 0.03108198
v 0.26301658 -0.45563501 0.03907834
v 0.24664018 -0.22722375 -0.00016802
v 0.24664018 -0.22722375 0.01545198
v 0.24664018 -0.22722375 0.00764198
v 0.24661019 -0.22720376 0.01936198
v 0.24664018 -0.22722375 0.01936198
v 0.25832006 -0.06969880 -0.05335583
v 0.24485096 -0.02442554 0.04258795
v 0.30006513 0.00602358 -0.00633814
v 0.31792188 -0.27300730 -0.02047913
v 0.26617017 0.34359625 0.01545198
v 0.22714472 0.26692471 0.11360484
v 0.24360539 0.52399641 -0.01992260
v 0.28468201 0.33423999 0.03873254
v 0.25836018 0.34702623 0.01154198
v 0.25145528 0.57998568 0.08364727
v 0.29733390 -0.41546166 -0.02009473
v 0.25695530 -0.85669035 -0.06503371
v 0.35642597 -0.72023213 -0.02670619
v 0.32753453 -0.37771580 -0.01994058
v 0.30133018 -0.41088375 0.02717198
v 0.30140018 -0.41079375 0.03498198
v 0.37575725 -0.52697080 -0.05351952
v 0.30140018 -0.41079375 0.01936198
v 0.30140018 -0.41079375 0.01545198
v 0.30140018 -0.41079375 0.02326198
v 0.30129039 -0.41093212 0.03501676
v 0.52237433 -0.05575342 0.05938173
v 0.37945339 -0.53160560 -0.03539926
v 0.52504468 0.30769348 -0.11244800
v 0.33314934 0.01164194 0.03900201
v 0.26960918 -0.24792656 -0.02011089
v 0.25839019 0.34700623 0.01154198
v 0.25836018 0.34702623 0.01936198
v 0.53570020 -0.02798376 0.06865198
v 0.31493065 -0.78695381 -0.11370146
v 0.37554729 -0.53579134 -0.03539182
v 0.29555589 -0.77063972 -0.02495288
v 0.29224399 -0.80761874 0.05002699
v 0.50409347 -0.37824035 -0.05353123
v 0.29634225 -0.60518926 -0.05377356
v 0.37639362 -0.54187799 -0.02455410
v 0.37557018 -0.53579372 -0.03531802
v 0.37933326 -0.53185838 -0.03513599
v 0.37922019 -0.53189379 -0.03531802
v 0.29387835 -0.26623639 0.03925647
v 0.33617646 0.56114155 -0.01987705
v 0.28188276 0.94178617 -0.11254074
v 0.51484448 -0.07084621 -0.05369867
v 0.41729802 -0.68791163 -0.11167856
v 0.52008021 -0.03970376 0.07114198
v 0.52752328 -0.04005085 0.06619401
v 0.52789021 -0.03962376 0.06623198
v 0.54751021 -0.06314376 0.00764198
v 0.55647230 -0.01159215 0.06584863
v 0.47257623 -0.11569073 0.04961896
v 0.58476901 -0.21487992 -0.05373584
v 0.40123004 -0.28081748 0.03756471
v 0.54514468 -0.55577016 -0.11294591
v 0.12837133 0.23972647 -0.02132879
v 0.29948151 0.33341438 -0.01872502
v 0.34537718 0.54311323 0.04155033
v 0.14426655 0.25181013 -0.05371799
v 0.37557554 -0.53579628 -0.03530149
v 0.41798505 -0.03332501 0.03850942
v 0.40552905 -0.27304158 -0.01971785
v 0.40588257 0.35044977 0.04081792
v 0.38113028 -0.00889448 -0.00681292
v 0.38340598 0.25329664 0.11417628
v 0.58830792 0.68400741 -0.02428589
v 0.44182017 0.45247623 -0.00016802
v 0.44182017 0.45247623 0.00373198
v 0.44192356 0.45253974 -0.01586657
v 0.44195017 0.45253623 -0.01578802
v 0.44212019 0.45247623 -0.01578802
v 0.44195017 0.45253623 0.01740698
v 0.43835548 0.44900391 0.00533156
v 0.37911534 0.88793206 -0.02502655
v 0.58241922 0.62612164 0.05173478
v 0.54351020 -0.01626376 0.07112198
v 0.54742020 -0.02007376 0.06623198
v 0.55137825 -0.01590038 0.06636609
v 0.55843145 0.07030158 0.11388156
v 0.46408650 -0.13373238 -0.01962686
v 0.54551518 -0.06513376 0.00568698
v 0.54742020 -0.06322376 0.00764198
v 0.40082082 0.34258407 -0.02089217
v 0.42858973 0.39632404 0.03915788
v 0.44182017 0.45247623 -0.00797802
v 0.44182017 0.45247623 -0.01187802
v 0.44195017 0.45253623 0.00373198
v 0.44344813 0.45091006 -0.01712834
v 0.44333342 0.45206594 0.03974137
v 0.44195017 0.45253623 -0.00016802
v 0.44182017 0.45247623 0.01154198
v 0.44519928 0.45103806 0.00548163
v 0.44195017 0.45253623 0.00764198
v 0.44182017 0.45247623 0.00764198
v 0.44195017 0.45253623 -0.01187802
v 0.44195017 0.45253623 0.01154198
v 0.56665730 -0.04430691 -0.00671909
v 0.54751021 -0.06314376 -0.00016802
v 0.56121731 -0.04952189 0.01620995
v 0.49196416 -0.02699072 0.09665170
v 0.47120759 0.30443621 0.10956008
v 0.53179413 -0.03546205 0.06639412
v 0.53565347 -0.03188160 0.06621695
v 0.54495198 -0.06568248 0.03550534
v 0.55122024 -0.01626376 0.06623198
v 0.44926536 0.44382250 -0.02015856
v 0.44195017 0.45253623 -0.00406802
v 0.44195017 0.45253623 -0.00797802
v 0.44182017 0.45247623 -0.00406802
v 0.44182017 0.45247623 0.01545198
v 0.54742020 -0.06322376 0.01545198
v 0.54751021 -0.06314376 0.01154198
v 0.54751021 -0.06314376 0.01545198
v 0.53952020 -0.02798376 0.06623198
v 0.53961021 -0.02798376 0.06617198
v 0.53961021 -0.02789376 0.06623198
v 0.54751021 -0.06314376 0.01936198
v 0.54751021 -0.06314376 0.02326198
v 0.54742020 -0.06322376 0.02326198
v 0.48473459 0.02283691 0.11435939
v 0.55560941 -0.05416446 -0.02069201
v 0.54351020 -0.06713376 0.01545198
v 0.54351020 -0.06713376 0.01936198
v 0.46527919 -0.13685766 0.03918388
v 0.54351020 -0.06713376 0.00959198
v 0.52180135 -0.04502060 0.06668577
v 0.54742020 -0.02017376 0.06617198
v 0.60245633 -0.17724331 -0.03688638
v 0.54742020 -0.06322376 0.01936198
v 0.54751021 -0.06314376 0.00373198
v 0.54281676 0.00702660 0.08623219
v 0.54742020 -0.06322376 0.01154198
v 0.53256732 -0.07739387 0.03496161
v 0.54361022 -0.06704376 0.02326198
v 0.54645050 -0.06420711 -0.00953510
v 0.55133021 -0.01626376 0.06617198
v 0.52751023 -0.08189822 -0.02029077
v 0.53961021 -0.02172376 0.07014198
v 0.49668017 0.39388624 0.01545198
v 0.52059102 0.36673793 -0.02000814
v 0.49664018 0.39392623 0.01936198
v 0.38891804 0.75565392 -0.05333462
v 0.54550308 -0.06513621 -0.00569542
v 0.58533883 -0.02646280 0.03947476
v 0.54732019 -0.02017376 0.06623198
v 0.54361022 -0.06704376 0.01154198
v 0.54361022 -0.06704376 0.01545198
v 0.54742020 -0.06322376 0.02717198
v 0.54746181 -0.06318657 0.02814819
v 0.54351020 -0.06713376 0.02717198
v 0.53570020 -0.03189376 0.06618198
v 0.57128638 -0.49167493 -0.02555438
v 0.55671299 0.61259037 -0.05363115
v 0.54361022 -0.06704376 0.01936198
v 0.55936116 0.83968306 -0.11151109
v 0.71175909 0.64042813 0.05802774
v 0.52872103 -0.36458716 -0.02522966
v 0.54351020 -0.06713376 0.03498198
v 0.66717583 -0.04287732 0.00248075
v 0.63591146 -0.43133044 -0.11451899
v 0.54893857 -0.06141034 0.03902917
v 0.63048232 -0.07054989 -0.05365498
v 0.54351020 -0.06713376 0.02326198
v 0.59673387 0.12800306 0.11460863
v 0.64065176 0.21554087 -0.00672309
v 0.57560474 0.66994685 -0.11382252
v 0.63071269 0.78492093 -0.02494468
v 0.57735807 0.67495340 -0.05319855
v 0.65429437 0.05817458 -0.00555215
v 0.66539770 -0.34274611 -0.02572712
v 0.63379568 0.22469364 -0.02178486
v 0.66333443 -0.39510566 -0.10625061
v 0.73969930 0.43314347 -0.11245522
v 0.69194937 0.33500406 -0.01581756
v 0.65337968 -0.04608912 -0.01390585
v 0.62141252 -0.13474183 -0.02459234
v 0.69207019 0.33138624 -0.01187802
v 0.72780633 0.28552592 -0.02326625
v 0.71305013 0.30253264 -0.11319882
v 0.72598678 0.54232168 0.05088331
v 0.69195020 0.33914623 -0.01969802
v 0.69201022 0.33528623 -0.01578802
v 0.69196022 0.33919623 -0.01969802
v 0.67861712 0.30456582 -0.05362521
v 0.69340992 0.34477401 -0.01832698
v 0.71211666 0.28180009 -0.05432440
v 0.62811929 0.80520236 -0.11283521
v 0.55099046 -0.34335491 -0.11335310
v 0.71994954 0.21436489 -0.01919673
v 0.70291531 -0.30165702 -0.11195869
v 0.65948111 0.06278037 -0.00697965
v 0.60092348 0.27307612 0.03858371
v 0.70693451 0.23818043 -0.05350609
v 0.69192564 0.33922878 -0.01986923
v 0.69905329 0.53636032 -0.05102837
v 0.65507883 0.81443620 -0.05654132
v 0.75925344 0.67537129 0.05196908
v 0.74064445 0.39596900 0.05256922
v 0.89401156 0.34387028 -0.04026538
v 0.68997216 0.12819141 0.03938837
v 0.72232056 -0.04505332 0.01751303
v 0.76585215 0.12261462 0.02137069
v 0.80101752 0.28810352 0.05120515
v 0.65382272 0.68788773 0.05987421
v 0.79255402 -0.01464349 -0.11445481
v 0.74152100 -0.13861763 -0.02775547
v 0.70433724 -0.09180851 -0.01472181
v 0.86580426 0.26286793 0.00921247
v 0.71610314 0.14126350 0.01025203
v 0.69028902 0.36697304 -0.05353346
v 0.73962438 0.18494539 -0.02425475
v 0.70295775 0.31194475 0.05058296
v 0.79728591 0.33226353 0.05514453
v 0.76100773 0.53415394 -0.11348364
v 0.74127996 0.50643969 0.05028977
v 0.70909190 0.73356175 0.06256258
v 0.65761948 0.79121709 0.04992467
v 0.74745053 0.74030465 0.05391910
v 0.75164390 -0.04975804 -0.00932085
v 0.84430021 0.27574623 0.04670198
v 0.78131413 -0.06173142 -0.11207289
v 0.84036839 0.27669486 0.04671708
v 0.83648020 0.27669623 0.04286198
v 0.84039021 0.27668625 0.04670198
v 0.71008718 0.01164959 -0.01602447
v 0.69522423 0.12824312 -0.01612481
v 0.77446371 0.37346438 0.09269051
v 0.80622953 0.43630752 0.05432202
v 0.71707296 0.50141734 -0.05354334
v 0.95780635 0.64009237 -0.11307529
v 0.70957297 0.68281108 0.09790795
v 0.80952710 0.13753727 -0.02596867
v 0.83100647 0.13954937 -0.11382178
v 0.78193134 0.02321755 -0.02565671
v 0.77315807 0.16549455 0.01226950
v 0.76367790 0.08605266 -0.02174302
v 0.74232912 0.41205388 -0.11567190
v 0.77559114 0.76344532 -0.05242071
v 0.83238834 0.27667594 0.03871616
v 0.83648020 0.27762625 0.04670198
v 0.83641022 0.27669623 0.04279198
v 0.83258021 0.27761623 0.04279198
v 0.83258021 0.27669623 0.03897198
v 0.83746231 0.25880232 -0.02593897
v 0.83648020 0.27667624 0.04279198
v 0.85764426 0.27466068 0.05093292
v 0.86960447 0.32794344 0.05028928
v 0.84195709 0.38918778 0.06407306
v 0.90305030 0.40751877 -0.02258150
v 0.90292245 0.40178654 -0.02728873
v 0.90288007 0.40576699 -0.02344292
v 0.89902139 0.36345929 -0.04610841
v 0.90829241 0.36745408 -0.10723237
v 0.88916498 0.26758915 -0.10060261
v 0.90289021 0.39778623 -0.03079802
v 0.89897698 0.35877413 -0.05094798
v 0.89897019 0.35872623 -0.05094802
v 0.85473812 0.24108243 -0.11285785
v 0.89846635 0.40812606 -0.00108186
v 0.88682830 0.32984707 -0.01804599
v 0.89898020 0.35518625 -0.05484802
v 0.90289491 0.38408437 -0.04355813
v 0.89598674 0.35964993 -0.03417302
v 0.89898020 0.36241624 -0.04703802
v 0.90210021 0.40169623 -0.02359802
v 0.90987694 0.43015102 -0.11071863
v 0.92973065 0.46818909 -0.09765283
v 0.90289021 0.40169623 -0.02721802
v 0.90289021 0.40137625 -0.02750802
v 0.90289021 0.40560624 -0.02362802
v 0.88785464 0.41788423 0.05091553
v 0.68167007 0.81419986 -0.10794511
v 0.93189859 0.65569085 0.05008389
v 0.91580093 0.70271850 -0.08552445
v 0.95670986 0.63414532 -0.06552316
v 0.94902670 0.67596889 -0.10706494
f 8 12 3
f 8 3 4
f 4 3 12
f 70 12 8
f 5 2 6
f 5 10 2
f 2 11 1
f 2 1 4
f 4 12 2
f 13 16 9
f 13 9 7
f 7 10 5
f 35 2 10
f 11 2 35
f 2 12 6
f 1 11 18
f 6 12 70
f 1 25 4
f 4 27 28
f 4 28 43
f 32 16 13
f 16 10 7
f 16 7 9
f 10 16 17
f 19 17 16
f 21 10 17
f 10 21 35
f 11 35 14
f 11 14 22
f 11 22 18
f 5 6 70
f 1 18 25
f 32 13 30
f 33 19 16
f 22 14 18
f 4 43 8
f 4 25 27
f 28 27 15
f 70 8 101
f 29 32 30
f 31 32 29
f 31 34 32
f 16 57 33
f 33 17 19
f 48 17 33
f 7 5 87
f 21 48 50
f 17 48 21
f 50 93 49
f 50 49 21
f 54 38 25
f 18 14 25
f 40 54 23
f 41 24 39
f 38 40 39
f 38 54 40
f 15 44 28
f 8 43 63
f 63 101 8
f 43 28 56
f 71 42 30
f 42 46 29
f 29 30 42
f 31 29 47
f 30 13 87
f 7 87 13
f 32 34 16
f 48 33 57
f 41 40 23
f 24 41 23
f 35 49 51
f 49 35 21
f 40 41 39
f 87 5 70
f 25 26 27
f 35 25 14
f 38 39 25
f 54 37 52
f 23 52 24
f 23 54 52
f 54 35 37
f 35 54 25
f 35 51 37
f 52 37 25
f 39 24 25
f 24 52 25
f 37 36 25
f 36 26 25
f 27 44 15
f 44 27 55
f 55 28 44
f 28 55 56
f 71 30 87
f 31 47 53
f 34 31 53
f 57 34 53
f 34 57 16
f 20 50 60
f 60 50 48
f 93 50 20
f 49 93 51
f 26 55 27
f 29 46 65
f 45 53 47
f 57 60 48
f 59 60 57
f 61 20 60
f 20 61 68
f 37 51 111
f 63 101 64
f 63 64 101
f 101 63 64
f 64 63 56
f 42 71 46
f 59 45 67
f 59 53 45
f 60 59 67
f 59 57 53
f 82 61 60
f 58 56 55
f 62 64 56
f 62 56 58
f 56 63 43
f 86 71 87
f 65 47 29
f 82 60 67
f 47 65 45
f 74 75 76
f 66 82 67
f 67 88 66
f 85 82 66
f 20 84 93
f 61 69 99
f 61 99 68
f 37 111 36
f 26 58 55
f 79 62 58
f 79 26 36
f 79 58 26
f 87 70 108
f 101 108 70
f 72 46 71
f 71 86 72
f 85 66 80
f 77 80 81
f 45 65 103
f 80 78 85
f 80 66 81
f 78 80 77
f 61 82 69
f 51 93 111
f 36 111 79
f 101 157 108
f 72 65 46
f 85 78 76
f 75 73 76
f 73 88 85
f 89 74 76
f 89 81 74
f 45 83 67
f 45 103 83
f 78 89 76
f 78 77 89
f 77 81 89
f 74 81 75
f 96 72 86
f 109 86 92
f 73 85 76
f 92 86 87
f 90 67 97
f 66 88 73
f 81 73 75
f 81 66 73
f 84 111 93
f 99 69 115
f 64 62 91
f 91 62 79
f 90 88 67
f 88 97 121
f 69 82 85
f 88 121 85
f 83 97 67
f 84 20 112
f 91 79 122
f 101 64 113
f 88 90 97
f 97 83 104
f 121 115 85
f 115 69 85
f 112 106 100
f 100 68 99
f 99 105 100
f 20 68 106
f 108 92 87
f 106 68 100
f 113 157 101
f 102 86 109
f 133 96 102
f 86 102 96
f 103 65 165
f 165 114 103
f 97 104 98
f 97 98 121
f 20 106 112
f 112 100 105
f 113 64 91
f 96 65 72
f 105 99 138
f 99 115 138
f 147 92 108
f 191 84 112
f 146 120 110
f 180 110 120
f 98 119 121
f 121 119 115
f 139 105 138
f 112 105 139
f 124 157 113
f 113 91 158
f 108 157 374
f 127 125 126
f 125 116 126
f 116 125 127
f 124 113 158
f 91 286 158
f 117 129 130
f 127 117 116
f 141 128 125
f 128 127 125
f 157 124 141
f 124 128 141
f 128 124 127
f 141 125 132
f 127 124 117
f 117 124 129
f 124 158 129
f 116 117 126
f 131 126 130
f 129 158 131
f 131 130 129
f 94 133 109
f 133 94 95
f 234 135 134
f 133 65 96
f 133 102 109
f 144 165 65
f 146 110 198
f 103 114 266
f 198 110 273
f 110 180 273
f 120 178 180
f 92 147 264
f 119 98 181
f 98 104 181
f 112 139 191
f 84 191 221
f 111 253 79
f 193 107 192
f 126 131 141
f 91 122 286
f 126 141 132
f 126 117 130
f 125 127 132
f 127 126 132
f 94 109 118
f 133 144 65
f 178 120 142
f 146 142 120
f 83 103 143
f 83 182 104
f 148 149 150
f 153 154 152
f 153 155 154
f 115 220 138
f 220 115 119
f 147 108 459
f 94 118 244
f 224 192 107
f 131 140 141
f 140 131 158
f 159 140 160
f 161 159 160
f 193 192 123
f 158 286 318
f 162 161 156
f 157 141 162
f 157 162 287
f 140 156 160
f 156 161 160
f 163 156 160
f 162 163 287
f 141 159 164
f 141 140 159
f 156 140 160
f 164 159 161
f 164 161 162
f 141 164 162
f 162 156 163
f 163 160 140
f 163 140 287
f 318 140 158
f 95 231 133
f 168 169 170
f 231 95 167
f 172 173 171
f 146 175 196
f 176 198 168
f 176 168 137
f 234 198 273
f 177 198 171
f 136 196 175
f 198 176 175
f 103 266 143
f 184 219 187
f 185 183 210
f 186 187 251
f 188 189 190
f 119 181 152
f 221 111 84
f 139 138 254
f 107 193 226
f 224 107 226
f 192 256 123
f 374 157 287
f 287 140 318
f 169 177 194
f 167 95 145
f 95 94 244
f 195 167 145
f 195 145 227
f 176 137 136
f 134 199 172
f 136 170 194
f 171 198 172
f 199 173 172
f 231 114 165
f 169 198 177
f 134 198 234
f 173 201 171
f 169 194 170
f 202 245 238
f 201 234 136
f 135 199 134
f 168 170 137
f 136 175 176
f 177 171 201
f 135 173 199
f 198 169 168
f 172 198 134
f 175 146 198
f 201 135 234
f 173 135 201
f 136 194 201
f 137 170 136
f 177 201 194
f 146 196 242
f 204 178 142
f 205 154 155
f 206 207 208
f 219 205 155
f 148 182 183
f 209 189 182
f 209 190 189
f 148 150 182
f 210 211 185
f 150 149 185
f 212 187 203
f 214 153 152
f 153 214 215
f 185 149 183
f 148 183 149
f 190 209 211
f 213 251 203
f 182 210 183
f 187 213 203
f 216 217 188
f 152 186 212
f 186 187 212
f 215 214 207
f 217 218 152
f 217 216 218
f 219 251 187
f 151 209 182
f 209 151 211
f 186 251 213
f 187 186 213
f 179 186 152
f 179 184 186
f 189 217 182
f 217 189 188
f 212 203 152
f 184 205 219
f 203 251 294
f 211 151 185
f 182 150 151
f 150 185 151
f 208 214 152
f 208 207 214
f 218 208 152
f 206 208 218
f 190 211 210
f 152 203 294
f 210 188 190
f 155 153 215
f 182 217 152
f 206 218 216
f 187 186 184
f 184 179 205
f 154 179 152
f 179 154 205
f 139 255 191
f 138 220 254
f 191 255 223
f 256 192 225
f 228 258 244
f 303 174 166
f 195 227 229
f 167 195 229
f 222 174 303
f 231 165 144
f 197 233 166
f 233 114 231
f 233 266 114
f 229 231 167
f 233 231 267
f 237 202 238
f 196 136 234
f 202 237 240
f 230 234 273
f 230 242 196
f 292 245 202
f 234 230 196
f 242 142 146
f 204 249 178
f 180 249 210
f 178 249 180
f 258 247 248
f 180 210 246
f 249 251 210
f 273 180 246
f 252 83 143
f 210 182 252
f 207 206 210
f 182 83 252
f 155 215 219
f 152 181 104
f 251 219 210
f 216 188 210
f 210 206 216
f 182 152 104
f 215 210 219
f 210 215 207
f 119 152 294
f 284 221 223
f 221 191 223
f 223 226 284
f 255 224 226
f 255 226 223
f 225 192 224
f 329 108 374
f 122 79 253
f 122 253 286
f 233 267 166
f 228 244 118
f 228 259 248
f 259 228 118
f 243 236 260
f 247 228 248
f 236 241 239
f 261 240 260
f 118 271 259
f 261 260 239
f 258 228 247
f 227 145 229
f 262 232 166
f 263 232 262
f 258 248 259
f 239 241 292
f 145 95 308
f 263 174 222
f 268 232 263
f 270 244 269
f 245 236 200
f 236 243 200
f 263 222 268
f 133 231 144
f 268 222 197
f 266 233 222
f 174 262 166
f 174 263 262
f 222 233 197
f 268 197 232
f 197 166 232
f 109 92 264
f 222 303 266
f 202 240 292
f 166 267 303
f 200 243 238
f 245 200 238
f 240 237 260
f 261 239 292
f 261 292 240
f 241 236 242
f 242 230 303
f 236 239 260
f 238 243 237
f 243 260 237
f 142 245 272
f 245 242 236
f 245 142 242
f 142 272 204
f 275 276 277
f 278 276 275
f 249 250 280
f 249 294 251
f 275 277 279
f 280 275 279
f 249 280 294
f 246 210 252
f 119 294 220
f 255 139 254
f 255 225 224
f 225 255 283
f 226 193 284
f 256 225 295
f 257 284 193
f 257 193 123
f 318 286 314
f 288 269 244
f 288 258 271
f 288 271 265
f 271 258 259
f 270 95 244
f 229 145 308
f 280 290 281
f 264 118 109
f 230 273 266
f 266 303 230
f 290 279 291
f 280 279 290
f 273 143 266
f 250 278 280
f 278 293 276
f 278 250 293
f 281 290 282
f 290 291 282
f 250 204 274
f 293 250 274
f 273 246 143
f 275 280 278
f 252 143 246
f 274 294 281
f 276 293 274
f 281 294 280
f 295 123 256
f 300 257 299
f 253 257 286
f 299 257 123
f 286 257 285
f 265 271 289
f 270 271 321
f 289 270 269
f 270 289 271
f 271 118 321
f 95 270 308
f 231 229 322
f 267 231 322
f 322 229 308
f 241 235 292
f 241 242 303
f 235 245 292
f 235 296 272
f 294 274 204
f 235 272 245
f 291 274 282
f 276 274 277
f 204 272 327
f 279 277 274
f 282 274 281
f 279 274 291
f 204 250 249
f 111 284 253
f 221 284 111
f 283 254 344
f 254 283 255
f 253 284 257
f 298 299 297
f 299 123 295
f 314 286 285
f 270 321 308
f 264 319 118
f 303 309 241
f 235 241 296
f 204 327 294
f 301 305 306
f 300 299 305
f 302 300 301
f 300 305 301
f 285 300 302
f 297 299 302
f 305 298 306
f 306 307 302
f 307 306 298
f 307 298 297
f 305 299 298
f 302 307 297
f 301 306 302
f 118 319 321
f 303 267 304
f 295 225 283
f 295 283 415
f 299 295 312
f 302 299 312
f 302 312 313
f 309 304 399
f 220 294 437
f 302 313 285
f 304 309 303
f 304 267 399
f 241 309 296
f 324 325 326
f 416 312 295
f 312 350 313
f 312 416 350
f 330 313 350
f 330 285 313
f 287 318 457
f 308 321 406
f 320 322 308
f 308 406 320
f 319 264 317
f 309 364 296
f 380 333 334
f 332 399 267
f 334 337 338
f 345 346 347
f 348 347 349
f 348 345 347
f 352 349 353
f 354 330 350
f 346 330 349
f 347 346 349
f 349 330 353
f 355 352 356
f 331 356 357
f 356 352 353
f 351 346 345
f 346 351 330
f 331 351 355
f 351 345 355
f 345 348 355
f 356 353 357
f 353 330 357
f 352 348 349
f 355 348 352
f 331 357 354
f 357 330 354
f 331 354 350
f 457 318 393
f 318 314 393
f 321 319 406
f 322 342 267
f 360 361 381
f 364 340 362
f 359 365 366
f 379 336 363
f 272 296 323
f 362 367 368
f 364 362 368
f 368 367 365
f 365 367 366
f 367 370 366
f 364 368 359
f 368 365 359
f 340 381 341
f 364 323 296
f 362 340 370
f 287 457 374
f 220 437 344
f 314 330 358
f 355 356 331
f 331 350 416
f 322 320 400
f 320 406 400
f 370 340 382
f 376 325 372
f 364 333 380
f 376 372 371
f 364 379 333
f 322 315 342
f 360 377 361
f 338 377 360
f 325 324 378
f 377 378 361
f 380 334 360
f 334 338 360
f 379 377 333
f 372 363 371
f 333 337 334
f 377 337 333
f 361 324 381
f 324 361 378
f 380 360 381
f 340 380 381
f 324 341 381
f 326 341 324
f 364 309 379
f 379 309 399
f 359 382 323
f 402 340 371
f 495 264 459
f 383 327 404
f 327 383 294
f 459 264 147
f 220 344 254
f 386 525 528
f 385 450 344
f 344 450 415
f 459 108 329
f 283 344 415
f 358 386 528
f 416 295 415
f 389 390 391
f 314 456 393
f 394 375 483
f 315 322 400
f 342 315 369
f 341 376 371
f 332 267 342
f 372 379 363
f 407 396 397
f 398 407 397
f 325 378 379
f 337 377 338
f 379 378 377
f 341 326 325
f 399 332 335
f 379 399 336
f 364 380 340
f 367 362 370
f 325 379 372
f 340 341 371
f 364 359 323
f 340 402 382
f 376 341 325
f 371 363 402
f 323 402 272
f 366 370 382
f 382 402 323
f 359 366 382
f 343 272 402
f 327 272 343
f 335 339 399
f 332 316 335
f 339 335 384
f 406 398 405
f 430 339 384
f 383 404 403
f 294 383 437
f 383 403 437
f 408 344 437
f 386 410 525
f 448 411 412
f 413 448 412
f 358 528 388
f 358 331 416
f 456 314 388
f 416 454 358
f 393 513 457
f 314 358 388
f 513 374 457
f 406 319 407
f 369 315 400
f 319 501 407
f 417 394 418
f 414 419 398
f 458 342 369
f 422 375 394
f 316 506 335
f 405 418 483
f 399 466 336
f 363 336 402
f 482 466 399
f 336 466 402
f 492 427 428
f 404 327 343
f 406 407 398
f 431 426 432
f 433 434 431
f 403 404 430
f 426 435 432
f 403 430 436
f 436 429 403
f 436 473 429
f 384 436 430
f 434 426 431
f 432 435 438
f 436 384 472
f 398 394 405
f 394 417 405
f 394 398 417
f 439 440 441
f 396 414 397
f 414 398 397
f 477 344 408
f 442 443 450
f 442 444 443
f 445 442 450
f 447 412 411
f 447 410 387
f 409 452 410
f 449 445 450
f 442 445 373
f 344 409 385
f 525 410 452
f 387 444 447
f 385 411 450
f 444 442 373
f 446 387 410
f 450 411 448
f 444 373 447
f 446 410 386
f 409 410 447
f 373 451 447
f 447 451 413
f 413 451 449
f 387 443 444
f 443 387 446
f 443 446 450
f 445 449 451
f 373 445 451
f 413 449 448
f 448 449 450
f 385 409 411
f 409 447 411
f 413 412 447
f 446 478 450
f 386 478 446
f 478 386 358
f 450 453 481
f 415 450 481
f 418 394 483
f 407 501 375
f 417 419 422
f 397 414 375
f 417 422 394
f 407 375 396
f 419 414 397
f 405 483 406
f 396 375 414
f 419 417 398
f 397 375 422
f 405 417 418
f 419 397 422
f 406 483 400
f 400 458 369
f 343 402 466
f 342 458 424
f 401 316 424
f 424 316 342
f 529 463 507
f 464 465 427
f 316 332 342
f 497 426 467
f 420 438 468
f 335 472 384
f 339 497 399
f 470 435 471
f 435 404 471
f 433 431 469
f 420 468 497
f 438 435 470
f 426 404 435
f 469 431 432
f 469 432 420
f 420 432 438
f 343 511 404
f 426 339 430
f 426 430 404
f 473 403 429
f 423 395 464
f 425 483 375
f 403 473 437
f 344 477 409
f 453 450 478
f 452 480 476
f 416 415 481
f 527 416 481
f 454 478 358
f 456 388 611
f 504 458 400
f 425 375 501
f 464 395 465
f 504 424 458
f 401 424 504
f 401 421 316
f 462 486 466
f 492 428 487
f 464 427 486
f 460 489 462
f 461 490 460
f 423 491 489
f 317 264 495
f 316 421 506
f 399 497 482
f 423 492 395
f 486 427 466
f 489 491 462
f 491 464 486
f 487 465 395
f 491 423 464
f 466 427 492
f 328 494 509
f 466 492 423
f 404 511 471
f 434 467 426
f 467 433 497
f 433 467 434
f 497 471 511
f 469 420 497
f 470 468 438
f 468 471 497
f 470 471 468
f 339 426 497
f 433 469 497
f 473 436 474
f 473 474 496
f 437 473 496
f 498 480 479
f 480 452 499
f 479 480 499
f 409 499 452
f 409 479 499
f 479 409 477
f 479 526 476
f 480 498 476
f 498 479 476
f 526 452 476
f 388 528 611
f 481 453 527
f 454 416 512
f 478 454 512
f 374 513 329
f 490 485 423
f 317 501 319
f 401 504 503
f 503 504 501
f 425 501 504
f 400 425 504
f 483 425 400
f 484 401 503
f 487 395 492
f 507 626 328
f 455 482 485
f 461 460 466
f 489 490 423
f 463 502 488
f 488 494 328
f 343 466 423
f 461 455 485
f 523 343 423
f 475 482 497
f 428 465 487
f 508 529 509
f 502 508 510
f 460 490 489
f 490 461 485
f 523 511 343
f 427 465 428
f 462 491 486
f 475 485 482
f 461 466 455
f 460 462 466
f 466 482 455
f 497 511 475
f 392 436 472
f 496 408 437
f 534 477 408
f 477 534 479
f 527 478 512
f 527 453 478
f 543 513 393
f 393 456 543
f 501 515 484
f 515 501 317
f 484 503 501
f 516 517 518
f 494 510 509
f 485 523 423
f 531 485 475
f 495 657 317
f 474 436 392
f 552 525 526
f 525 452 526
f 479 552 526
f 527 512 416
f 421 401 484
f 421 463 488
f 529 508 502
f 472 335 505
f 421 507 463
f 509 529 507
f 488 328 626
f 328 509 507
f 485 531 523
f 335 506 488
f 517 493 440
f 524 317 657
f 475 511 531
f 531 511 523
f 474 392 533
f 496 474 533
f 495 459 329
f 532 552 479
f 479 534 532
f 456 535 543
f 456 611 535
f 595 493 517
f 335 488 505
f 421 484 507
f 317 524 515
f 510 508 509
f 463 529 502
f 494 488 502
f 488 506 421
f 502 510 494
f 496 589 408
f 528 525 640
f 611 528 653
f 536 542 537
f 540 538 539
f 541 542 558
f 488 626 505
f 484 626 507
f 533 530 496
f 545 546 547
f 589 496 530
f 533 392 530
f 534 408 589
f 640 525 552
f 538 542 555
f 561 559 556
f 559 537 556
f 561 556 562
f 556 563 562
f 555 554 564
f 557 540 561
f 537 563 556
f 540 539 564
f 539 555 564
f 575 557 561
f 571 572 500
f 549 392 606
f 521 530 593
f 522 514 472
f 546 574 547
f 392 472 514
f 530 521 569
f 392 593 530
f 535 636 543
f 552 532 553
f 563 537 542
f 557 552 553
f 561 540 564
f 570 558 553
f 561 564 577
f 564 554 577
f 538 555 539
f 561 577 576
f 577 578 576
f 538 540 557
f 538 557 542
f 554 555 542
f 578 536 576
f 554 542 578
f 554 578 577
f 559 536 537
f 536 578 542
f 561 576 559
f 576 536 559
f 563 560 562
f 558 575 561
f 560 579 565
f 563 542 560
f 542 579 560
f 561 562 565
f 562 560 565
f 557 553 542
f 579 542 541
f 542 553 558
f 561 565 541
f 565 579 541
f 558 561 541
f 543 624 513
f 484 515 524
f 580 581 582
f 593 549 606
f 583 584 585
f 484 524 621
f 500 572 583
f 586 587 588
f 549 593 392
f 581 519 568
f 568 586 582
f 602 591 592
f 390 613 596
f 589 530 569
f 598 580 582
f 586 588 598
f 550 567 599
f 440 493 441
f 516 595 517
f 606 392 590
f 601 519 581
f 598 588 603
f 472 505 522
f 606 612 550
f 599 567 568
f 574 605 547
f 551 599 519
f 521 493 569
f 571 441 572
f 532 534 570
f 609 610 661
f 575 558 608
f 552 575 609
f 609 575 608
f 608 558 610
f 608 610 609
f 570 553 532
f 610 558 661
f 552 557 575
f 570 661 558
f 653 679 611
f 612 567 550
f 626 484 621
f 614 546 545
f 591 594 615
f 569 518 571
f 588 310 603
f 616 615 601
f 571 518 439
f 612 568 567
f 591 615 616
f 550 551 615
f 310 588 617
f 602 606 594
f 602 594 591
f 618 568 630
f 588 587 617
f 500 583 585
f 594 550 615
f 618 617 587
f 589 569 548
f 517 440 518
f 569 516 518
f 441 620 572
f 620 441 493
f 630 602 573
f 569 595 516
f 569 493 595
f 630 593 602
f 607 389 391
f 521 593 630
f 571 600 569
f 310 617 618
f 514 590 392
f 514 631 590
f 584 390 389
f 602 593 606
f 547 548 600
f 500 607 600
f 521 630 493
f 518 440 439
f 607 585 389
f 585 584 389
f 500 585 607
f 528 640 662
f 570 534 633
f 635 329 624
f 528 662 653
f 609 640 552
f 623 580 598
f 624 329 513
f 636 624 543
f 605 520 547
f 601 551 519
f 627 311 310
f 548 520 613
f 600 607 545
f 596 605 574
f 613 605 596
f 615 551 601
f 572 620 583
f 620 584 583
f 519 599 568
f 310 619 603
f 591 616 592
f 607 614 545
f 573 627 310
f 547 520 548
f 598 582 586
f 568 612 604
f 623 598 603
f 573 310 618
f 612 606 604
f 546 596 574
f 592 616 623
f 568 604 590
f 580 601 581
f 586 568 587
f 603 632 623
f 602 311 627
f 616 601 580
f 592 623 632
f 582 581 568
f 311 602 619
f 604 606 590
f 568 613 630
f 614 596 546
f 584 613 390
f 619 632 603
f 602 627 573
f 600 545 547
f 613 520 605
f 620 493 613
f 584 620 613
f 569 600 548
f 310 311 619
f 594 606 550
f 619 602 632
f 573 618 630
f 607 391 614
f 390 596 614
f 657 495 674
f 568 618 587
f 391 390 614
f 592 632 602
f 551 550 599
f 439 441 571
f 616 580 623
f 600 571 500
f 570 633 661
f 642 495 329
f 611 622 637
f 535 611 637
f 629 524 657
f 522 505 626
f 589 548 534
f 566 568 590
f 534 548 633
f 568 566 613
f 613 493 630
f 648 674 495
f 514 522 597
f 640 609 661
f 637 622 544
f 624 656 635
f 524 629 641
f 621 524 641
f 626 639 597
f 597 522 626
f 514 597 631
f 638 566 644
f 613 633 548
f 566 590 631
f 566 638 613
f 653 681 646
f 650 651 652
f 650 643 651
f 642 329 635
f 535 637 544
f 656 624 636
f 641 639 621
f 639 626 621
f 644 566 631
f 631 597 645
f 597 639 645
f 644 631 645
f 644 645 676
f 669 613 638
f 633 613 669
f 611 679 622
f 634 640 661
f 653 662 655
f 622 698 664
f 642 635 683
f 544 686 535
f 686 544 673
f 635 656 683
f 656 636 665
f 636 686 665
f 641 629 657
f 659 641 657
f 644 676 628
f 644 660 638
f 644 628 694
f 660 644 694
f 638 660 669
f 669 660 695
f 634 661 669
f 661 633 669
f 634 669 695
f 663 654 679
f 642 648 495
f 622 679 698
f 544 649 625
f 673 544 625
f 685 686 673
f 656 665 741
f 636 535 686
f 639 641 659
f 639 659 675
f 675 645 639
f 645 675 676
f 628 676 670
f 694 628 670
f 695 660 703
f 634 695 658
f 695 678 658
f 640 634 658
f 679 654 681
f 681 655 647
f 654 651 646
f 651 643 646
f 681 653 655
f 651 654 652
f 663 653 643
f 643 653 646
f 664 544 622
f 625 700 673
f 673 700 685
f 686 707 665
f 707 741 665
f 659 690 675
f 690 659 657
f 689 715 691
f 670 676 688
f 691 692 693
f 703 660 694
f 688 694 670
f 694 688 703
f 648 642 706
f 678 695 705
f 671 678 705
f 658 662 640
f 652 663 650
f 674 648 702
f 658 678 680
f 680 678 704
f 663 679 653
f 650 663 643
f 658 647 662
f 646 681 654
f 704 678 671
f 652 654 663
f 662 647 655
f 672 667 681
f 672 681 647
f 684 681 667
f 706 642 683
f 664 649 544
f 649 684 666
f 700 625 666
f 700 666 687
f 685 700 687
f 687 686 685
f 690 657 674
f 675 688 676
f 675 690 688
f 688 690 703
f 705 695 703
f 647 658 680
f 679 684 698
f 701 680 704
f 667 672 682
f 681 684 679
f 667 682 696
f 697 684 667
f 697 667 696
f 698 684 649
f 649 664 698
f 625 649 666
f 699 683 656
f 741 699 656
f 703 690 674
f 674 702 703
f 703 702 701
f 705 703 701
f 692 691 709
f 701 671 705
f 701 704 671
f 648 706 702
f 710 711 712
f 672 716 682
f 708 672 647
f 692 710 714
f 710 692 709
f 696 717 697
f 666 684 697
f 686 687 707
f 714 710 712
f 708 714 712
f 706 727 702
f 680 701 647
f 677 708 647
f 713 647 701
f 711 708 712
f 689 714 677
f 708 711 672
f 693 689 691
f 717 696 682
f 711 710 709
f 711 709 672
f 672 709 715
f 715 709 691
f 741 707 743
f 742 687 666
f 742 743 707
f 742 707 687
f 701 702 727
f 713 701 727
f 672 715 716
f 677 715 689
f 647 713 677
f 723 727 722
f 692 714 693
f 714 689 693
f 677 723 716
f 714 708 677
f 715 677 716
f 725 668 726
f 677 727 723
f 727 677 713
f 730 722 731
f 735 722 727
f 723 722 729
f 668 722 730
f 729 722 668
f 726 733 725
f 716 723 729
f 725 730 731
f 729 732 731
f 725 731 721
f 668 725 732
f 668 730 726
f 730 725 726
f 733 721 732
f 683 735 727
f 726 725 721
f 733 726 721
f 725 733 732
f 732 721 731
f 729 668 732
f 683 727 706
f 716 717 682
f 731 736 724
f 728 718 736
f 731 728 729
f 737 738 719
f 737 720 734
f 724 736 719
f 728 734 720
f 738 724 719
f 728 731 734
f 724 738 734
f 731 724 734
f 738 737 734
f 720 718 728
f 739 737 719
f 739 720 737
f 740 697 717
f 719 736 718
f 729 728 740
f 740 716 729
f 740 717 716
f 740 728 736
f 739 719 718
f 720 739 718
f 722 736 731
f 722 735 736
f 735 683 699
f 666 697 740
f 735 699 736
f 736 742 740
f 742 666 740
f 742 745 743
f 745 741 743
f 745 699 741
f 736 699 744
f 736 744 742
f 699 745 744
f 742 744 745
f 289 269 288
f 258 288 244
f 288 265 289
f 285 257 300
f 314 285 330
f 330 351 331
f 330 331 358

