# https://github.com/mikedh/trimesh
v -0.94924259 -0.67123491 0.24344124
v -0.95177317 -0.64569551 0.15394092
v -0.83493900 -0.73161989 0.35561633
v -0.87608385 -0.46876276 0.05505687
v -0.92487168 -0.76766098 0.18334058
v -0.85740107 -0.62012565 0.32308978
v -0.88122612 -0.67483622 0.37227306
v -0.88012052 -0.49232456 0.22734456
v -0.39930421 -0.69706303 0.03687544
v -0.90465301 -0.50786304 0.25088298
v -0.77593476 -0.52047563 0.00588494
v -0.79973501 -0.47978559 0.24120316
v -0.87439996 -0.55096263 0.03721897
v -0.80056262 -0.45296857 0.24718431
v -0.80523533 -0.71913290 0.23896882
v -0.80130631 -0.69014889 0.13541996
v -0.86373144 -0.75835627 0.14192887
v -0.40546530 -0.43151411 -0.13191302
v -0.77976346 -0.51204556 -0.01347809
v -0.80828464 -0.19923986 0.06850836
v -0.35190982 -0.81880015 -0.21175288
v -0.81231230 -0.28566334 0.09586749
v -0.81231230 -0.28562334 0.09582749
v -0.80938232 -0.28176335 0.09582749
v -0.82167906 -0.37235865 -0.03891702
v -0.81237829 -0.28560501 0.09569579
v -0.80840230 -0.28562334 0.09973749
v -0.83896941 -0.29643035 0.05639615
v -0.89701128 -0.44133916 0.12797722
v -0.80449229 -0.28566334 0.10327749
v -0.80840230 -0.28566334 0.09976749
v -0.71515191 -0.60693318 0.23309030
v -0.77439129 -0.15543170 -0.08199728
v -0.79057783 -0.32326579 0.14051810
v -0.80377525 -0.25297490 0.07980985
v -0.78295618 -0.32077914 -0.07287565
v -0.77715230 -0.31691334 -0.07733251
v -0.81149232 -0.28957334 0.09973749
v -0.80843228 -0.28566334 0.09973749
v -0.78839982 -0.30173337 -0.07223562
v -0.78154445 -0.21026228 0.07103814
v -0.79272121 -0.13346179 -0.06970768
v -0.78106230 -0.32472333 -0.07327251
v -0.77324229 -0.30910334 -0.08139251
v -0.76995760 -0.32431293 -0.08003569
v -0.74850672 -0.61156046 0.24730214
v -0.64313877 -0.53759259 0.08342368
v -0.65229940 -0.51602882 0.09174546
v -0.67956078 -0.16239052 0.11234176
v -0.69002885 -0.04423039 -0.14533120
v -0.69431603 -0.07257520 -0.16898769
v -0.32596257 -0.53412563 0.14772171
v -0.58237576 0.01738161 -0.20884079
v -0.67991871 -0.14583661 0.13082382
v -0.65996230 -0.05519335 -0.16974249
v -0.65996230 -0.05910334 -0.16978250
v -0.65990233 -0.05519335 -0.16978250
v -0.63586152 -0.09417526 -0.18917081
v -0.71773809 0.15598150 0.01595105
v -0.62974966 -0.38328618 -0.02810242
v -0.61319017 -0.38352832 -0.01349747
v -0.61291260 -0.38308981 -0.01363410
v -0.58658934 0.23351192 0.02179196
v -0.66387230 -0.05910334 -0.16706252
v -0.65995228 -0.05910334 -0.16978250
v -0.65606230 -0.05519335 -0.17242251
v -0.65979230 -0.05129334 -0.16978250
v -0.64854985 -0.05400478 0.03379079
v -0.60506660 0.42947727 -0.03180289
v -0.71504074 0.04142281 0.04174878
v -0.61691231 -0.38722333 -0.01353251
v -0.60625440 -0.38469094 -0.00547757
v -0.61704600 -0.38726890 -0.01362463
v -0.61474329 -0.38973898 -0.00943319
v -0.61309230 -0.38332334 -0.01359251
v -0.60405409 -0.39573082 0.15227008
v -0.65800500 -0.27350691 -0.12522505
v -0.64534557 -0.22045344 -0.16681451
v -0.37844905 -0.79007304 -0.13405040
v -0.57070690 -0.00859003 -0.22186582
v -0.63636607 -0.09126852 0.02016886
v -0.61944515 0.24090019 -0.17375432
v -0.62589711 0.27178246 -0.18518484
v -0.62160188 0.41822234 -0.02383113
v -0.57743299 -0.35939807 -0.00696508
v -0.59913504 -0.36880881 0.12798488
v -0.32714814 -0.86322176 -0.14337070
v -0.51716924 -0.31094322 0.01726127
v -0.41425645 0.34640896 -0.29230195
v -0.44742829 0.13370800 -0.21088716
v -0.54374689 -0.16032173 -0.12877724
v -0.44344565 0.13700865 -0.22607045
v -0.51314843 0.10195588 0.10206685
v -0.51342207 0.29791853 -0.23796920
v -0.57288283 0.51716393 -0.00274308
v -0.54539883 0.49654001 0.03741362
v -0.54462230 0.50729662 0.03332749
v -0.33088553 -0.29118621 0.01624497
v -0.53412795 -0.16312665 -0.14142273
v -0.52265918 -0.27995780 0.00454940
v -0.51955801 0.25615913 0.12487747
v -0.49623662 0.61709481 -0.02358264
v -0.54668230 0.51510668 0.02745749
v -0.54277229 0.51128668 0.03332749
v -0.54277229 0.51119661 0.03336749
v -0.53896230 0.51119661 0.03723749
v -0.51593506 0.52633721 0.05234546
v -0.54281229 0.51119661 0.03332749
v -0.54668230 0.51115638 0.02942764
v -0.54666233 0.51119661 0.02942749
v -0.49168131 0.06740341 0.10546454
v -0.43147340 -0.22918426 -0.00660140
v -0.34860915 -0.01343449 0.14373435
v -0.50376171 -0.03153871 -0.01331299
v -0.49877727 0.05340516 0.00084086
v -0.43046290 0.34550357 0.09403194
v -0.29277232 -0.53176332 -0.30255249
v -0.29277232 -0.52785337 -0.30258250
v -0.29090893 0.80423707 -0.23349929
v -0.50230616 -0.01032762 0.06553710
v -0.46025738 -0.02353488 -0.10042800
v -0.47467139 0.51504809 -0.22977903
v -0.24590231 -0.58254331 -0.33605251
v -0.24590231 -0.58644331 -0.33584249
v -0.53008014 0.56477827 -0.13476253
v -0.47141153 -0.06776974 -0.09915443
v -0.38828555 -0.93437177 -0.06858181
v -0.42701301 0.36797082 0.08099428
v -0.50011307 0.62162018 -0.01353683
v -0.37955591 -0.60439181 0.19647151
v -0.43147582 -0.72202456 0.10689308
v -0.40313947 -0.48518175 -0.18645272
v -0.39771432 -0.17197375 0.02944089
v -0.41700786 -0.03790228 -0.19992001
v -0.40359119 0.14165659 -0.03459920
v -0.40361243 0.09932646 -0.00844344
v -0.41810322 0.12098075 -0.25656113
v -0.38677469 0.21393350 -0.19003892
v -0.40400526 0.31233484 -0.27760530
v -0.37372887 0.22815891 -0.18429838
v -0.46662858 0.49348202 0.09743387
v -0.51431710 0.60669065 -0.14871445
v -0.39738226 -0.90913391 0.08027471
v -0.39729670 -0.81753469 -0.05887985
v -0.37208751 -0.70021939 0.05149670
v -0.33648497 -0.86304963 -0.18913671
v -0.33664674 -0.91395611 0.22413547
v -0.33361033 -0.68559903 -0.27246177
v -0.35027811 -0.82009834 0.18862055
v -0.39639914 -0.70431131 -0.11304621
v -0.26010808 -0.86841124 -0.28132328
v -0.31226581 -0.17632602 0.11145713
v -0.31621230 -0.17629334 0.10767749
v -0.37210128 -0.13656607 0.09680291
v -0.37065962 -0.03701768 -0.05108535
v -0.42865229 -0.07290859 -0.21114880
v -0.31228232 -0.17629334 0.11145749
v -0.39429232 0.06198666 -0.04088251
v -0.39427206 0.06195069 -0.03695775
v -0.39394230 0.06198666 -0.04478251
v -0.38672829 0.02861363 -0.04767910
v -0.39434233 0.06214666 -0.04088251
v -0.39434233 0.06199665 -0.03697251
v -0.39650038 0.07570983 -0.06170323
v -0.34613463 0.12290748 0.12818225
v -0.37401035 0.20432597 0.03294547
v -0.40399882 0.10956953 -0.24525639
v -0.31256807 0.20571545 0.22195378
v -0.23927476 0.71792722 -0.09553812
v -0.46644658 0.49444547 0.11174452
v -0.22599685 0.69469583 -0.26592994
v -0.23730877 -0.87324268 -0.25731254
v -0.40704188 -0.73163515 -0.16200984
v -0.38453946 -0.34010816 -0.21112260
v -0.31119511 -0.53613746 -0.28992167
v -0.34230533 -0.61492783 -0.11065280
v -0.36115301 -0.62112778 -0.11877069
v -0.31450129 -0.44582105 0.15146333
v -0.29277232 -0.53957331 -0.30249250
v -0.29266232 -0.53566337 -0.30260250
v -0.28293845 -0.77852929 0.25500238
v -0.35155782 -0.32067397 0.02196144
v -0.25002596 -0.96557796 -0.27079991
v -0.28743982 -0.54306126 -0.30580345
v -0.37719658 -0.57342517 0.24969776
v -0.26898581 -0.39164919 0.32523251
v -0.35677943 -0.03903876 -0.04149914
v -0.30109161 0.30855981 0.25905257
v -0.32022476 0.50990421 0.13708432
v -0.47190663 0.51824993 -0.24460988
v -0.31845918 0.69915903 -0.12524010
v -0.29277232 -0.53566337 -0.30252251
v -0.29270232 -0.53176332 -0.30260250
v -0.29277232 -0.52551329 -0.30260250
v -0.29275230 -0.52785337 -0.30260250
v -0.34218425 -0.68052608 -0.28533128
v -0.30840230 -0.17612335 0.11535749
v -0.30837357 -0.17628154 0.11532123
v -0.28298068 -0.38308117 -0.32537654
v -0.22023755 -0.13723087 -0.35305950
v -0.33646837 -0.24004112 0.05514375
v -0.30449232 -0.17600335 0.11926749
v -0.31232896 -0.17622074 0.11144716
v -0.24991579 -0.11112456 0.17810367
v -0.29839882 -0.18229175 0.12423474
v -0.25188601 -0.03612528 0.20790040
v -0.24043246 0.41995773 -0.32060587
v -0.24590231 -0.57863337 -0.33627251
v -0.13617721 -0.83729964 -0.33841193
v -0.25989074 -0.49551618 -0.32333460
v -0.24125713 -0.59977770 -0.33642441
v -0.26066637 -0.57505679 -0.33246756
v -0.28109148 -0.40038896 -0.32611358
v -0.28106233 -0.40285334 -0.32610250
v -0.28118232 -0.40285334 -0.32603249
v -0.28106233 -0.40676335 -0.32607251
v -0.28106233 -0.41059333 -0.32603249
v -0.28112230 -0.40676335 -0.32603249
v -0.28987423 -0.40609115 -0.32098678
v -0.28800234 -0.40285334 -0.32213250
v -0.18967304 -0.97615123 -0.28095934
v -0.27520165 -0.41432729 -0.32923561
v -0.22754306 -0.02738503 0.31430086
v -0.23562714 0.41042650 -0.30117884
v -0.30886263 0.47957575 0.14028214
v -0.26522234 0.40963665 0.20520750
v -0.17383857 0.64539731 -0.31648487
v -0.25829500 -0.77124923 0.27947536
v -0.24590231 -0.59035337 -0.33563250
v -0.23699401 -0.57280558 -0.33872214
v -0.20068830 -0.33840969 -0.35159114
v -0.33386871 0.09155643 0.22038370
v -0.25762233 0.41744664 0.20533749
v -0.25768107 0.41754311 0.20525461
v -0.25371230 0.42135665 0.20545748
v -0.26152232 0.41354665 0.20520750
v -0.26153451 0.41355065 0.20520745
v -0.26152232 0.41355667 0.20520750
v -0.23084828 0.70368999 0.03046879
v -0.28625560 0.73319435 -0.14482251
v -0.18738422 0.82047844 0.04816727
v -0.18628976 0.85579026 -0.07140837
v -0.06621232 -0.54738337 0.29504749
v -0.06621232 -0.55129331 0.29505751
v -0.06623232 -0.55129331 0.29504749
v -0.23725355 -0.67369509 -0.33456659
v -0.36480275 -0.80106372 0.21849336
v -0.06830833 -0.54503065 0.29348707
v -0.15751006 -0.79202253 -0.33306918
v -0.14034979 -0.73395830 0.23027430
v -0.00773998 0.13487200 0.30435613
v -0.17735983 0.03756110 0.33995223
v -0.29259837 -0.39213282 0.28670919
v -0.24866207 -0.30270892 0.31490278
v -0.16325130 0.23211874 0.31569546
v -0.18400979 0.42502931 0.23692718
v -0.17986332 0.63062644 -0.25910848
v -0.29150346 0.88521302 -0.16820028
v -0.22415987 0.82795477 -0.04946845
v -0.15992001 0.86668468 -0.09556641
v -0.15998818 0.86665368 -0.09557663
v -0.15748349 0.87087607 -0.09566380
v -0.15777232 0.87057668 -0.09557251
v -0.25667351 -0.82309943 -0.29873088
v -0.12287643 -0.57574803 -0.32461759
v -0.06627232 -0.56691337 0.29504749
v -0.15958415 0.25472787 0.32858136
v -0.19351070 0.00415551 -0.33757114
v -0.25415608 0.33962902 0.25022450
v -0.25381237 0.54512805 0.13426124
v -0.22394079 0.72437358 0.04661258
v -0.16265196 0.85954243 -0.09741466
v -0.25024727 0.94434476 -0.22139363
v -0.03469921 -0.32679543 0.32972595
v -0.21890254 -0.34898961 -0.34366301
v -0.16043960 -0.52303255 0.24172556
v -0.09102882 0.53080910 -0.27802411
v -0.17784080 0.71970552 0.12672025
v -0.16337232 0.86666667 -0.09166251
v -0.16039142 0.87054640 -0.09189625
v -0.14500545 0.87752432 -0.10654829
v -0.08874564 -0.54530621 0.27692842
v -0.08041273 -0.80735737 0.28934425
v -0.11021841 -0.25813916 0.27339751
v -0.06626232 -0.55519331 0.29504749
v -0.01496277 -0.14237249 -0.27558780
v -0.12009966 -0.29221591 0.28564179
v -0.06628232 -0.56301332 0.29504749
v -0.07064535 0.20268111 -0.30485210
v -0.05757264 -0.86636835 -0.28967667
v -0.09215809 0.60282588 0.19085146
v -0.10147017 0.59639651 0.19743446
v -0.10137232 0.59649664 0.19738749
v -0.13773292 0.72194344 0.11274105
v -0.12604789 0.61454022 0.18955708
v -0.11769763 0.68889922 0.07244747
v -0.10835154 0.91507769 -0.09174658
v -0.15655230 -0.78158623 0.25735173
v -0.06621232 -0.55910337 0.29509750
v -0.06626838 -0.56692833 0.29505366
v -0.06621232 -0.56301332 0.29510748
v -0.06621232 -0.55519331 0.29508749
v 0.16485128 -0.79459029 0.26247254
v 0.06287276 0.07582712 -0.30270144
v -0.11047694 0.60184401 0.19682696
v -0.10137232 0.59713668 0.19719750
v -0.09748232 0.59323668 0.19738749
v -0.09746783 0.59322870 0.19739078
v -0.07636808 0.54423332 0.19499665
v -0.12299062 0.77586895 -0.16909312
v -0.10559864 0.72422111 0.15278552
v -0.06404235 0.82754833 -0.35656744
v -0.10101352 0.92319745 -0.32465500
v -0.06627232 -0.55910337 0.29504749
v -0.05582613 -0.52993482 0.30293512
v -0.00129306 -0.43700185 -0.28045890
v 0.13100456 -0.22143462 0.27746329
v 0.01754625 0.17759921 -0.28570357
v -0.09594809 0.56949538 0.19984542
v 0.02989168 0.44311544 -0.28801388
v -0.27869901 0.79740030 -0.22005799
v -0.00277245 -0.88655627 0.29962310
v 0.00788053 0.56619215 -0.36491981
v -0.00013989 -0.85433930 -0.25229129
v -0.07884168 0.71945089 -0.16049948
v -0.09710491 0.89984381 -0.15168199
v -0.07101066 0.89595544 -0.09634992
v 0.05277859 -0.70193315 0.32792777
v -0.02942987 -0.72592455 0.34539300
v -0.04189072 -0.58748370 0.31292760
v 0.01119372 -0.87910378 -0.28077650
v 0.04028838 -0.06556963 -0.29071042
v 0.00937541 0.23565961 0.28473696
v 0.00695819 -0.11266455 -0.29313970
v 0.00832295 0.38218254 -0.31765673
v 0.02109374 0.28825524 0.30166709
v -0.02324232 0.67526662 -0.18933252
v -0.01934232 0.67529660 -0.18932252
v -0.02324232 0.67527670 -0.18932252
v -0.02475034 0.63916212 -0.21100369
v -0.01543232 0.68307668 -0.18463250
v -0.01152232 0.67526662 -0.18948250
v -0.01152232 0.68307668 -0.18474250
v -0.01152232 0.67554671 -0.18932252
v -0.03010993 0.69171190 -0.17879824
v 0.02159196 0.76300859 -0.22508450
v -0.03945643 0.70991087 -0.26147854
v 0.04204801 -0.59743959 -0.27118871
v 0.00091818 -0.67703116 -0.26362237
v -0.01533094 -0.32283044 0.31148925
v 0.20377392 0.08655934 0.33628783
v 0.06268834 0.08276308 -0.30264878
v 0.06268768 0.07760666 -0.30260250
v -0.02688942 0.34260285 0.27972740
v -0.02715232 0.67526662 -0.18932252
v 0.06039138 0.06312242 -0.30112046
v -0.00735914 0.67247581 -0.19123910
v 0.00581752 0.62579179 -0.37304044
v 0.02283543 0.65312791 -0.38111067
v -0.01543232 0.67526662 -0.18938252
v -0.01934232 0.67526662 -0.18934251
v -0.01543232 0.67536670 -0.18932252
v 0.01580768 0.54635668 0.18957750
v 0.01971768 0.54635668 0.18959749
v 0.09488091 0.83443695 -0.37308413
v 0.06338215 -0.58482695 0.34102881
v 0.06073377 0.07608452 -0.30143517
v 0.06260768 0.08151665 -0.30260250
v 0.13539426 -0.25983703 0.29305121
v 0.08882815 0.09525753 -0.31786892
v 0.06266768 0.07760666 -0.30260250
v 0.01811649 0.50807369 0.20486870
v -0.02120663 0.67009324 0.14561875
v 0.02029053 0.54641157 0.18952847
v 0.01189768 0.54244661 0.19120748
v 0.01580768 0.55026662 0.18792748
v 0.01533768 0.54635668 0.18957750
v 0.01580768 0.54636663 0.18957750
v 0.04667987 -0.47715414 0.31466109
v 0.17192522 -0.49643266 -0.36243153
v 0.20861112 0.09802064 0.31682903
v 0.06268768 0.07698666 -0.30260250
v 0.08016291 0.60209143 0.16900073
v 0.06458391 0.64697337 -0.28927281
v 0.02434116 -0.97785729 -0.28595644
v 0.11251411 0.71579349 -0.27513957
v 0.04295947 0.72758615 -0.24777564
v 0.08890090 0.93503875 -0.39625192
v 0.05544920 0.88880879 -0.13747586
v 0.13610971 -0.38121420 0.26567206
v 0.35090768 -0.19698745 -0.28938860
v 0.10798518 0.30116224 -0.34093624
v 0.00819101 0.52957201 -0.29970101
v 0.15746085 0.74414760 -0.12863147
v 0.06426659 0.75851047 -0.14321241
v 0.11830675 -0.37114230 0.31986406
v 0.34389576 -0.45362759 -0.28695905
v 0.27583158 -0.58420712 0.28348452
v 0.30357692 -0.17174232 0.16151275
v 0.11367177 0.76826620 0.13133290
v 0.04903884 0.92830777 -0.18952703
v 0.12320719 -0.83660328 -0.32330394
v 0.36615098 -0.47717929 -0.27048075
v 0.04121130 0.53538907 -0.30704388
v 0.17244336 0.70189226 0.03908986
v 0.09100305 0.66464281 0.14791343
v 0.22812563 0.68253154 -0.33695260
v 0.15363289 0.90674424 -0.34560299
v 0.34326795 -0.90981203 0.22720234
v 0.15820074 -0.79392636 0.24321270
v 0.14452273 0.06030378 -0.33524713
v 0.25018767 -0.75441337 -0.33169249
v 0.16968089 -0.32023904 -0.34926456
v 0.28143767 -0.64894331 -0.31045249
v 0.28143767 -0.64504331 -0.31048250
v 0.19474363 0.29364666 0.30797970
v 0.27361768 0.39401665 0.23836748
v 0.19899529 0.60078049 -0.24935974
v 0.25233796 0.73294121 0.03345827
v 0.21935721 0.68058532 -0.32150370
v 0.15555593 0.87870443 -0.06843573
v 0.18569767 0.81198668 -0.07994251
v 0.18564768 0.81198668 -0.08385251
v 0.18768768 0.80810660 -0.07994251
v 0.18768768 0.80815667 -0.08385251
v 0.20285235 0.83560205 0.03926263
v 0.40675494 0.64795876 -0.12330132
v 0.19191319 0.85766858 -0.16949138
v 0.18768768 0.80807668 -0.08398251
v 0.15770635 0.80572575 -0.02086527
v 0.22297709 -0.88902104 -0.29004622
v 0.27863863 -0.47418547 -0.32825649
v 0.24236768 -0.75832331 -0.33384252
v 0.39104614 -0.02885489 0.14040166
v 0.33222768 -0.50832331 -0.29478249
v 0.33221769 -0.50832331 -0.29479250
v 0.33221769 -0.50793338 -0.29478249
v 0.27868748 -0.77851254 0.28775451
v 0.25401866 -0.76221520 -0.32994539
v 0.23165219 -0.76772171 -0.33654898
v 0.24147768 -0.76222330 -0.33385250
v 0.32429767 -0.49660334 -0.28307250
v 0.32431769 -0.49269333 -0.28307250
v 0.17131430 -0.29847699 -0.35905570
v 0.25408766 -0.76227331 -0.32994249
v 0.27518511 -0.12682714 0.30369708
v 0.18815288 0.27721232 0.32504615
v 0.23614019 0.41269615 0.24746732
v 0.26972842 0.39404604 0.24035735
v 0.26580766 0.39784667 0.24035749
v 0.26971769 0.39401665 0.24038748
v 0.27361768 0.39023665 0.24035749
v 0.12336902 0.73581439 0.14070117
v 0.18981768 0.80416667 -0.08385251
v 0.19705959 0.71030921 0.03479206
v 0.18769342 0.80808407 -0.07992913
v 0.19585367 0.80022073 -0.08698043
v 0.18401381 0.81552935 -0.07651403
v 0.18772767 0.80807668 -0.08385251
v 0.18909863 0.94503999 -0.21827216
v 0.24182460 -0.75824904 -0.33405665
v 0.20242234 0.89572096 -0.05787514
v 0.33749881 -0.51038355 -0.29108575
v 0.25414279 -0.77313191 -0.32917273
v 0.25409770 -0.76222330 -0.32994249
v 0.25799769 -0.76222330 -0.32868251
v 0.25802279 -0.75614214 -0.32912108
v 0.32463339 -0.50903684 -0.28303620
v 0.29773462 -0.53350914 -0.30152714
v 0.36918476 -0.42907000 0.25167039
v 0.25319690 -0.30104122 0.32221183
v 0.26476470 0.03274785 0.23615001
v 0.29912555 -0.82301867 0.24949822
v 0.83177012 -0.73546153 0.35093358
v 0.29616049 0.40665352 0.21946155
v 0.25130415 0.41953415 -0.29791555
v 0.27362147 0.39010656 0.24044813
v 0.27780169 0.36544728 0.25273857
v 0.27067730 0.67651922 -0.19429597
v 0.31491011 0.71259308 -0.11433636
v 0.25378317 0.70928419 -0.06195570
v 0.12554005 -0.84627718 -0.34124309
v 0.28143767 -0.65374339 -0.31041250
v 0.28140137 -0.65285438 -0.31045583
v 0.29880574 -0.71437830 -0.30202785
v 0.28150770 -0.64894331 -0.31041250
v 0.28144768 -0.65285337 -0.31041250
v 0.28533766 -0.65285337 -0.30857250
v 0.26871562 -0.66249943 -0.31570297
v 0.34383768 -0.45754334 -0.28697249
v 0.34393767 -0.45754334 -0.28690249
v 0.34374768 -0.46144333 -0.28697249
v 0.42229199 0.12101777 -0.08515623
v 0.26924041 -0.15828201 0.18461402
v 0.35797805 0.28414983 0.22343913
v 0.63912326 -0.33021507 -0.09778450
v 0.38588038 0.29819053 -0.31700015
v 0.33759663 0.47886044 0.14338811
v 0.12929168 0.56634462 -0.25711957
v 0.36767229 0.56993288 -0.21107432
v 0.26072964 -0.84766436 -0.28851116
v 0.33067727 -0.45848334 0.30718303
v 0.28894132 -0.62902832 -0.30707201
v 0.34504029 -0.51016223 -0.28598136
v 0.32747543 -0.50480235 -0.29795504
v 0.32439768 -0.50082338 -0.28307250
v 0.32439819 -0.50051290 -0.28305849
v 0.32439768 -0.50051332 -0.28307250
v 0.32439768 -0.49660334 -0.28300250
v 0.32830766 -0.48879334 -0.28026250
v 0.32105842 -0.49272263 -0.28521222
v 0.32049769 -0.50051332 -0.28575251
v 0.33224952 -0.51235539 -0.29483786
v 0.30628112 -0.30598798 0.28418034
v 0.35752437 0.06247884 0.07508405
v 0.34097794 0.19519591 0.23128408
v 0.36174643 -0.29093254 -0.26570567
v 0.32726383 -0.46134818 -0.28146437
v 0.41163832 -0.84574747 -0.06424643
v 0.33863023 0.53970897 0.12398805
v 0.42135885 0.41582683 0.11960364
v 0.34009427 0.18396911 0.18894692
v 0.42599714 0.43056348 -0.29638773
v 0.36389905 -0.85648668 -0.13128619
v 0.32439768 -0.48819333 -0.28307250
v 0.30055377 -0.78956586 0.25221026
v 0.34943411 -0.74059629 -0.28990325
v 0.33231771 -0.51222330 -0.29478249
v 0.37082770 -0.57863337 -0.24400252
v 0.26191613 -0.59621125 -0.33863735
v 0.33246896 -0.51437265 -0.29471067
v 0.32439768 -0.49269333 -0.28301251
v 0.33416253 -0.35369575 0.16604146
v 0.34393767 -0.45363334 -0.28697249
v 0.32439768 -0.48879334 -0.28307250
v 0.32439768 -0.48879334 -0.28306249
v 0.35747731 -0.58707100 -0.25823617
v 0.42335030 -0.49725735 -0.15439270
v 0.35816544 -0.33398667 0.02372412
v 0.41234720 -0.38911334 -0.24674894
v 0.43586895 -0.04469298 -0.19767569
v 0.49352759 -0.09454717 -0.10139656
v 0.35882774 0.02171831 0.16279151
v 0.30169746 0.28811702 0.25606164
v 0.42437765 0.14952195 -0.05434032
v 0.27399418 0.65336013 -0.18566278
v 0.34736577 -0.80596900 -0.26195320
v 0.38497317 -0.95054930 -0.15061995
v 0.36747766 -0.57472330 -0.24791251
v 0.36736768 -0.57863337 -0.24793252
v 0.34319073 -0.52830297 -0.26976559
v 0.38510546 -0.40004292 -0.01318994
v 0.36736768 -0.57950336 -0.24791251
v 0.38427198 -0.79041731 0.17135479
v 0.36739767 -0.57863337 -0.24791251
v 0.41872901 -0.59410602 -0.20483290
v 0.36736768 -0.57082331 -0.24801251
v 0.36736768 -0.57472330 -0.24802251
v 0.37128168 -0.55894303 -0.24407376
v 0.38537502 -0.54094499 -0.22724620
v 0.36811468 -0.73205507 -0.13278188
v 0.44723272 -0.64203399 0.13276464
v 0.39322326 -0.65506762 0.07332749
v 0.39856887 -0.61825818 0.08283681
v 0.53965724 0.02805638 0.08694214
v 0.37865779 -0.03278811 -0.06418663
v 0.65907055 -0.05007075 0.03472175
v 0.52595258 0.25236389 -0.22948261
v 0.45076558 0.21341497 -0.22813615
v 0.51994783 0.02265790 -0.20827457
v 0.42114857 0.38715017 -0.28852838
v 0.42175794 -0.29807132 -0.20628284
v 0.48754796 0.01358221 -0.17705932
v 0.39353946 0.19782270 -0.20622714
v 0.41018811 0.54292268 0.09025645
v 0.40480593 -0.83024704 0.04685878
v 0.41967678 -0.67643124 0.16973545
v 0.39522380 -0.79968894 0.20274103
v 0.38758865 -0.83091742 -0.24153082
v 0.38202196 -0.63854855 -0.22603011
v 0.44836998 -0.71344268 0.09251846
v 0.54568905 -0.19059835 -0.11211907
v 0.41246000 -0.62415737 0.21650162
v 0.37967268 -0.50955236 0.22601059
v 0.44251561 -0.21955755 -0.20664264
v 0.56363964 -0.15853004 -0.13308014
v 0.42605492 -0.14774159 0.05443161
v 0.59521490 -0.28558955 0.14040138
v 0.48227945 -0.02309948 -0.07324252
v 0.42550722 0.12310696 -0.02099965
v 0.44123504 -0.77647090 -0.02860250
v 0.38579586 0.00852337 0.01977210
v 0.43920726 0.10387406 -0.18012816
v 0.44788080 0.11084625 -0.17125805
v 0.48207617 0.04431410 -0.19062746
v 0.43349078 -0.92422539 0.04294636
v 0.39864954 0.25031033 -0.20457801
v 0.41745159 0.23956190 -0.23356479
v 0.39949411 0.23038805 0.05452206
v 0.44266486 0.38256416 -0.26586467
v 0.39505637 -0.73038262 -0.08652698
v 0.64461708 -0.29008842 -0.11396971
v 0.47457275 -0.75666356 0.03265813
v 0.48455766 0.03854666 -0.18935251
v 0.48846769 0.03853666 -0.19322252
v 0.52969277 -0.22828443 -0.01671682
v 0.44372937 -0.40036589 -0.08482985
v 0.43152881 -0.35041225 -0.06129420
v 0.43947124 0.07038966 -0.26446876
v 0.42634088 0.09261644 -0.26271769
v 0.40856022 -0.12757389 0.05862804
v 0.48418713 0.03823134 -0.18872567
v 0.50047642 0.02511160 -0.18183155
v 0.48455766 0.03848666 -0.18932252
v 0.48833543 0.03859061 -0.19315287
v 0.41056904 0.17165408 0.03990980
v 0.45280993 0.12497098 0.02671126
v 0.42859060 0.29733396 -0.20293511
v 0.44182199 0.36529240 0.07707008
v 0.54194230 0.59155780 -0.08593975
v 0.67845279 -0.55836213 0.11346038
v 0.49085769 0.03463665 -0.19322252
v 0.45018697 -0.05921653 -0.18722853
v 0.48854482 0.03856113 -0.19333073
v 0.45155427 0.31590357 0.08723854
v 0.49720919 0.10462623 0.05382522
v 0.57097125 0.08186058 0.04773494
v 0.51580769 0.51901662 -0.18553250
v 0.51580769 0.51510668 -0.18774252
v 0.51774919 0.49313900 0.10415170
v 0.51189393 0.51896393 -0.18931742
v 0.51189768 0.52291667 -0.18722250
v 0.51189768 0.51901662 -0.18928252
v 0.51582348 0.51920664 -0.18540879
v 0.50008374 0.63176227 -0.01039542
v 0.60420775 -0.38270310 0.13918874
v 0.55763209 -0.16540578 -0.15441316
v 0.53883314 -0.06455577 -0.02839453
v 0.54859829 0.12996432 0.12059660
v 0.53972274 0.16314337 0.10415763
v 0.51577711 0.44877514 -0.23158707
v 0.50217193 0.50315452 -0.22580533
v 0.49389499 0.53459197 -0.24015377
v 0.49929363 0.62235337 -0.02005926
v 0.55363309 -0.30988985 -0.01248012
v 0.54099363 -0.32056463 -0.01422597
v 0.63430762 -0.08081826 0.04182953
v 0.53757894 0.29616731 0.10749105
v 0.60253733 0.37796512 0.01170196
v 0.56859827 0.51211220 -0.13930377
v 0.58618236 0.51048636 -0.14416444
v 0.54229951 0.60852247 -0.10104908
v 0.50461328 0.46919397 0.10441851
v 0.59194565 -0.42105851 0.09083299
v 0.60359365 -0.26254216 0.12334663
v 0.52921265 0.01262079 0.09114733
v 0.62363076 -0.00216946 -0.21973664
v 0.69194442 0.11782943 0.05626341
v 0.59820735 0.25479087 0.00512841
v 0.60952109 0.47544494 -0.03151214
v 0.62909114 0.47547349 -0.02792415
v 0.70721769 -0.31301335 0.12316749
v 0.70721769 -0.31302336 0.12317749
v 0.63257414 -0.43666768 0.15052101
v 0.69965768 -0.32082334 0.12317749
v 0.70330954 -0.31709090 0.12319354
v 0.70343769 -0.31691334 0.12317749
v 0.68290943 -0.19649062 0.06251132
v 0.70152074 -0.16087753 0.06478178
v 0.65645695 0.21097112 -0.18149190
v 0.71111768 -0.31301335 0.12488749
v 0.70330769 -0.31691334 0.12311749
v 0.67224878 -0.31815401 0.11127182
v 0.64295018 -0.08375648 -0.19365925
v 0.64557707 0.08705001 0.01575444
v 0.67551214 -0.06938770 0.10282101
v 0.64294094 0.22829312 -0.17169484
v 0.61434346 0.13274986 0.02651599
v 0.68549049 0.23533799 0.00673339
v 0.75365216 -0.47554469 0.23912601
v 0.69389367 0.00897506 -0.14496613
v 0.66782075 -0.56703591 0.13363051
v 0.73704457 -0.61151153 0.24920817
v 0.74096036 -0.26882684 0.11160773
v 0.70731574 -0.31285822 0.12317531
v 0.81204736 -0.23582999 0.08792204
v 0.70267588 -0.05356181 0.10408144
v 0.70234030 0.11646108 0.06570359
v 0.73889935 0.04891015 -0.01153767
v 0.69308293 0.24949597 0.01204488
v 0.71627158 0.16423351 -0.01125584
v 0.85181552 -0.80243212 0.22182032
v 0.69105071 -0.56093109 0.07148948
v 0.76189530 -0.38116291 0.17419697
v 0.83136559 -0.70177317 0.11090309
v 0.80378681 -0.39754614 0.19245909
v 0.72927064 -0.63090301 0.21907771
v 0.79141152 -0.12498321 -0.01828139
v 0.77863592 -0.02063663 -0.00290245
v 0.88786727 -0.78845799 0.18533893
v 0.85453194 -0.71336997 0.13382219
v 0.65319055 -0.18263857 -0.18512413
v 0.75672597 -0.46800530 0.25431097
v 0.85774392 -0.69953835 0.38982376
v 0.80320245 -0.21436022 -0.08378097
v 0.80374718 -0.19178535 -0.06397502
v 0.78073841 -0.69978184 0.22653581
v 0.80762815 -0.71193922 0.20271604
v 0.93053746 -0.79199493 0.23000026
v 0.82965028 -0.61197126 0.32066464
v 0.82833916 -0.62377489 0.32875624
v 0.78534591 -0.37162817 0.19348408
v 0.75269449 -0.34172696 -0.07483482
v 0.92692405 -0.68034863 0.20132488
v 0.83957982 -0.53135711 0.25756729
v 0.81657070 -0.13732113 -0.02173304
v 0.81018770 -0.18652919 0.01449849
v 0.87706125 -0.41075537 0.05409354
v 0.89446968 -0.42896557 0.04862529
v 0.89971101 -0.61230826 0.30968302
v 0.87929690 -0.70969367 0.14078717
v 0.87825221 -0.55985725 0.07280380
v 0.91374052 -0.60372436 0.31907821
v 0.90149415 -0.47675234 0.12530845
v 0.91907072 -0.54126644 0.28518841
v 0.91903895 -0.48827019 0.16375056
v 0.88780570 -0.59759533 0.07089601
v 0.92020327 -0.55757290 0.27249923
v 0.96695954 -0.73022437 0.32941779
v 0.94241309 -0.67834026 0.18444154
f 2 5 1
f 2 1 10
f 5 17 16
f 5 2 17
f 13 17 2
f 6 7 1
f 5 4 1
f 7 10 1
f 6 1 8
f 1 4 8
f 10 13 2
f 16 17 15
f 7 6 3
f 29 13 10
f 6 8 12
f 4 12 8
f 15 3 6
f 7 3 15
f 17 13 19
f 11 5 16
f 5 11 4
f 25 19 13
f 29 10 14
f 4 28 12
f 29 25 13
f 28 34 12
f 29 42 25
f 22 23 24
f 20 29 14
f 33 28 4
f 27 35 30
f 31 27 30
f 20 42 29
f 23 22 26
f 28 41 35
f 26 28 24
f 6 16 15
f 10 7 32
f 23 26 24
f 30 35 34
f 34 38 31
f 38 22 39
f 42 40 25
f 22 24 27
f 28 26 38
f 26 22 38
f 39 27 31
f 23 22 27
f 39 23 27
f 39 22 23
f 37 36 40
f 28 38 34
f 24 35 27
f 38 39 31
f 31 30 34
f 35 24 28
f 15 17 32
f 46 16 6
f 6 12 46
f 14 10 32
f 25 43 45
f 4 11 33
f 25 40 36
f 45 36 37
f 37 40 45
f 78 45 44
f 36 45 43
f 36 43 25
f 19 45 78
f 25 45 19
f 34 35 41
f 40 78 44
f 43 36 44
f 36 37 44
f 37 43 44
f 37 36 43
f 44 45 40
f 40 42 78
f 28 33 41
f 15 32 7
f 17 19 47
f 32 47 14
f 76 14 47
f 34 86 12
f 33 11 77
f 86 34 41
f 78 42 51
f 86 41 49
f 49 41 33
f 42 20 54
f 33 58 50
f 42 54 59
f 51 42 59
f 47 32 17
f 48 16 46
f 48 46 12
f 14 76 20
f 77 58 33
f 49 33 70
f 55 56 57
f 70 33 69
f 19 78 47
f 20 76 54
f 64 58 56
f 56 65 57
f 65 66 57
f 66 65 56
f 81 49 70
f 55 50 65
f 50 64 65
f 53 50 67
f 58 64 50
f 64 56 65
f 56 55 65
f 50 55 67
f 55 57 67
f 66 53 67
f 57 66 67
f 54 68 59
f 50 82 33
f 59 83 51
f 69 33 82
f 48 11 16
f 86 48 12
f 60 11 48
f 60 77 11
f 62 73 75
f 73 60 74
f 51 80 78
f 66 56 58
f 53 66 58
f 82 50 53
f 59 68 63
f 84 59 63
f 84 83 59
f 47 88 76
f 72 62 61
f 72 74 48
f 74 60 48
f 61 71 72
f 62 60 73
f 60 62 85
f 71 74 72
f 71 73 74
f 75 71 61
f 75 73 71
f 72 48 85
f 75 61 62
f 85 62 72
f 91 77 85
f 86 49 100
f 68 54 88
f 58 77 91
f 80 51 83
f 81 70 69
f 85 77 60
f 142 84 95
f 88 47 78
f 54 76 88
f 49 81 100
f 53 58 91
f 69 120 81
f 84 101 95
f 69 82 125
f 84 142 83
f 48 86 100
f 85 48 100
f 88 78 99
f 91 85 100
f 78 80 99
f 120 100 81
f 68 111 63
f 68 88 111
f 93 120 69
f 82 53 122
f 141 93 69
f 125 82 122
f 63 101 84
f 96 95 101
f 102 69 125
f 104 105 106
f 104 106 107
f 108 97 105
f 103 95 109
f 107 95 103
f 107 103 110
f 103 109 110
f 107 110 104
f 105 96 106
f 108 105 104
f 109 95 96
f 110 109 108
f 97 96 105
f 110 108 104
f 109 97 108
f 97 109 96
f 129 95 107
f 90 53 91
f 101 63 111
f 92 80 83
f 92 83 94
f 175 117 118
f 170 96 101
f 94 83 190
f 142 190 83
f 141 69 102
f 106 96 107
f 107 96 170
f 95 129 142
f 100 120 91
f 111 88 99
f 111 99 114
f 93 91 120
f 99 80 126
f 99 126 114
f 114 126 136
f 90 91 121
f 93 115 91
f 111 114 116
f 53 90 122
f 101 111 116
f 128 93 141
f 124 123 230
f 170 129 107
f 121 91 135
f 126 80 92
f 93 128 115
f 94 138 92
f 138 94 190
f 101 116 170
f 126 92 136
f 121 135 90
f 91 115 135
f 135 115 166
f 92 138 136
f 115 128 166
f 140 122 90
f 169 125 122
f 102 125 169
f 143 127 144
f 143 144 149
f 79 131 9
f 79 127 131
f 127 143 247
f 131 127 247
f 173 79 9
f 144 130 149
f 144 145 130
f 177 173 9
f 9 131 185
f 182 112 132
f 156 132 112
f 18 174 134
f 18 134 133
f 201 152 153
f 174 167 134
f 203 152 157
f 158 161 159
f 161 158 160
f 164 159 136
f 160 162 164
f 137 156 155
f 161 155 159
f 158 159 163
f 159 162 163
f 162 158 163
f 158 162 160
f 136 159 155
f 164 162 159
f 164 161 160
f 140 134 167
f 140 90 135
f 164 136 138
f 140 167 139
f 114 136 116
f 137 138 89
f 89 138 190
f 139 122 140
f 189 170 116
f 191 142 129
f 127 87 144
f 147 143 149
f 143 147 247
f 79 146 127
f 173 146 79
f 87 150 144
f 144 150 145
f 181 149 130
f 21 148 150
f 196 173 177
f 148 176 150
f 185 131 247
f 196 177 132
f 21 150 87
f 145 150 130
f 179 184 180
f 130 150 52
f 182 132 177
f 178 9 185
f 176 148 18
f 181 130 253
f 177 9 182
f 18 148 174
f 150 176 98
f 98 176 18
f 18 133 98
f 156 112 155
f 133 134 187
f 201 154 112
f 133 187 113
f 112 154 232
f 113 204 133
f 155 112 232
f 187 134 140
f 155 232 165
f 165 136 155
f 138 155 164
f 155 161 164
f 187 135 168
f 138 137 155
f 135 166 168
f 187 140 135
f 207 137 89
f 139 167 224
f 128 168 166
f 136 165 116
f 116 165 188
f 122 139 224
f 128 141 270
f 129 170 239
f 129 239 191
f 127 183 87
f 183 127 151
f 146 151 127
f 196 146 173
f 148 21 264
f 192 180 193
f 117 192 193
f 182 9 178
f 52 150 98
f 174 148 175
f 130 52 253
f 194 118 195
f 118 117 195
f 193 184 195
f 196 132 156
f 117 175 192
f 152 205 198
f 201 112 182
f 98 204 52
f 275 167 174
f 157 152 198
f 204 98 133
f 154 203 197
f 153 203 154
f 200 156 137
f 232 154 206
f 187 168 113
f 202 206 154
f 168 128 269
f 128 270 225
f 189 239 170
f 141 102 296
f 146 196 151
f 172 87 183
f 172 21 87
f 247 228 185
f 175 210 174
f 194 184 210
f 192 179 180
f 175 179 192
f 210 148 264
f 180 184 193
f 185 228 186
f 179 175 184
f 175 148 184
f 117 193 195
f 148 210 184
f 184 194 195
f 210 175 194
f 175 118 194
f 213 214 215
f 216 217 218
f 220 219 199
f 220 214 215
f 214 213 215
f 213 214 220
f 216 218 215
f 214 216 215
f 196 219 222
f 156 219 196
f 199 219 156
f 156 200 199
f 217 222 219
f 223 178 185
f 185 186 223
f 154 197 202
f 201 182 178
f 157 198 197
f 152 203 153
f 201 205 152
f 197 198 202
f 198 205 202
f 203 157 197
f 205 201 178
f 205 206 202
f 153 154 201
f 167 275 268
f 200 137 207
f 165 232 188
f 190 207 89
f 189 116 188
f 225 269 128
f 224 277 122
f 122 277 169
f 141 296 270
f 321 258 240
f 183 221 172
f 264 21 172
f 216 222 217
f 151 196 246
f 246 196 212
f 222 216 214
f 231 196 222
f 212 196 231
f 215 219 220
f 253 254 181
f 275 174 210
f 213 220 199
f 222 214 213
f 215 218 219
f 217 219 218
f 199 222 213
f 222 199 200
f 52 204 253
f 178 223 206
f 178 206 205
f 113 255 204
f 224 167 268
f 226 236 269
f 236 226 237
f 168 269 255
f 236 237 238
f 226 225 237
f 225 235 234
f 269 236 233
f 236 238 233
f 233 238 234
f 269 233 256
f 225 226 269
f 233 235 256
f 238 237 234
f 237 225 234
f 235 233 234
f 171 321 240
f 240 259 271
f 240 258 259
f 119 191 258
f 243 244 245
f 230 123 208
f 208 212 230
f 230 212 231
f 246 211 230
f 211 124 230
f 211 229 124
f 212 211 246
f 229 212 208
f 124 229 208
f 246 230 231
f 231 209 246
f 212 229 211
f 210 249 275
f 222 200 231
f 186 252 223
f 254 253 255
f 204 255 253
f 188 232 267
f 113 168 255
f 232 206 267
f 256 225 270
f 235 225 256
f 319 189 188
f 190 142 207
f 102 169 296
f 171 240 257
f 119 227 191
f 239 278 191
f 259 240 271
f 191 278 258
f 259 258 241
f 151 246 209
f 149 283 147
f 283 149 181
f 228 247 298
f 264 249 210
f 181 276 250
f 282 266 300
f 276 181 254
f 252 186 287
f 267 206 223
f 239 189 319
f 240 310 257
f 258 278 241
f 258 313 119
f 273 258 313
f 258 273 313
f 228 298 186
f 147 283 322
f 264 172 221
f 283 181 250
f 265 209 231
f 223 252 267
f 224 268 289
f 188 267 319
f 142 393 207
f 227 119 347
f 278 239 373
f 310 240 259
f 263 262 261
f 262 260 261
f 279 242 280
f 261 242 279
f 260 263 261
f 260 261 279
f 263 260 280
f 242 310 259
f 272 310 242
f 297 259 241
f 321 313 258
f 183 151 331
f 147 322 247
f 264 221 290
f 151 209 331
f 298 247 322
f 249 264 290
f 268 275 286
f 316 265 231
f 284 276 254
f 254 255 284
f 277 224 289
f 255 269 354
f 269 256 354
f 309 256 270
f 239 319 373
f 393 191 227
f 142 191 393
f 319 291 308
f 169 294 296
f 311 278 373
f 119 312 347
f 294 241 311
f 278 311 241
f 280 262 263
f 119 313 312
f 310 260 281
f 310 272 260
f 281 260 262
f 281 297 310
f 272 242 261
f 280 260 279
f 260 272 261
f 262 280 281
f 280 242 297
f 259 297 242
f 281 280 297
f 297 241 327
f 221 183 331
f 349 209 265
f 248 245 285
f 300 266 301
f 274 186 298
f 302 244 330
f 252 287 251
f 200 207 335
f 309 354 256
f 309 270 373
f 270 296 373
f 306 292 293
f 307 292 308
f 292 319 308
f 305 319 292
f 306 308 291
f 293 308 306
f 306 305 292
f 305 306 291
f 292 307 293
f 295 291 319
f 305 295 319
f 293 307 308
f 295 305 291
f 311 291 295
f 311 295 291
f 359 227 347
f 277 325 169
f 296 294 311
f 297 326 310
f 169 327 294
f 294 327 241
f 301 288 299
f 288 314 299
f 275 249 324
f 285 314 248
f 330 301 299
f 274 298 329
f 244 243 330
f 275 324 286
f 330 300 301
f 250 276 283
f 349 265 316
f 330 299 302
f 276 282 283
f 283 282 300
f 315 243 248
f 282 288 266
f 330 283 300
f 266 288 301
f 285 245 244
f 302 285 244
f 248 314 282
f 314 285 302
f 299 314 302
f 243 245 248
f 282 276 248
f 288 282 314
f 248 276 350
f 186 274 287
f 350 276 284
f 316 231 200
f 284 255 333
f 286 289 268
f 252 251 267
f 354 333 255
f 393 227 323
f 171 257 358
f 340 325 277
f 296 311 373
f 325 327 169
f 365 321 387
f 365 313 321
f 331 385 221
f 324 249 290
f 248 350 315
f 283 330 328
f 243 315 330
f 330 315 350
f 200 334 316
f 284 333 350
f 274 251 287
f 289 286 318
f 319 267 336
f 336 373 319
f 335 207 393
f 404 358 257
f 337 338 339
f 341 342 343
f 342 344 343
f 342 341 344
f 384 321 171
f 313 388 312
f 346 326 401
f 326 297 389
f 221 385 290
f 322 329 298
f 209 349 331
f 324 348 286
f 328 330 350
f 290 385 324
f 352 353 370
f 335 334 200
f 336 267 251
f 289 318 320
f 289 320 277
f 309 372 354
f 323 227 359
f 360 357 342
f 337 340 361
f 257 310 346
f 339 355 337
f 344 362 360
f 342 344 360
f 340 355 325
f 342 357 344
f 345 355 339
f 362 341 345
f 360 362 361
f 345 339 338
f 341 362 344
f 340 357 361
f 357 360 361
f 355 340 337
f 343 344 395
f 345 325 355
f 362 345 338
f 361 362 338
f 357 395 344
f 361 338 337
f 343 345 341
f 346 404 257
f 343 395 345
f 345 395 325
f 372 363 374
f 363 364 374
f 326 346 310
f 327 389 297
f 385 331 482
f 350 379 328
f 274 329 366
f 286 356 318
f 353 352 368
f 371 353 368
f 373 336 447
f 374 376 383
f 309 377 375
f 376 377 309
f 363 377 378
f 378 364 363
f 309 375 372
f 277 320 340
f 363 375 377
f 383 376 309
f 372 375 363
f 378 377 376
f 378 376 374
f 364 378 374
f 340 320 499
f 373 383 309
f 347 407 359
f 358 384 171
f 357 340 395
f 387 321 384
f 395 327 325
f 326 389 401
f 316 444 349
f 286 348 332
f 371 367 382
f 251 274 369
f 367 356 304
f 286 332 356
f 317 350 333
f 367 368 352
f 356 367 318
f 367 371 368
f 367 352 318
f 335 392 334
f 416 333 354
f 372 383 354
f 372 374 383
f 393 418 335
f 499 395 340
f 346 384 404
f 387 384 346
f 406 400 373
f 389 327 395
f 322 283 410
f 324 385 402
f 322 303 329
f 324 402 348
f 410 283 328
f 349 482 331
f 303 366 329
f 274 366 396
f 349 444 380
f 390 379 350
f 348 413 332
f 353 304 370
f 382 367 304
f 356 411 370
f 353 382 304
f 371 382 353
f 318 352 370
f 304 356 370
f 251 351 336
f 383 416 354
f 358 404 420
f 365 387 386
f 387 346 386
f 313 365 388
f 482 431 385
f 385 431 402
f 413 348 402
f 396 366 303
f 274 396 369
f 334 444 316
f 390 350 317
f 356 332 411
f 370 411 318
f 411 320 318
f 406 373 447
f 392 335 418
f 407 323 359
f 393 323 407
f 394 395 499
f 420 384 358
f 405 373 400
f 373 405 383
f 400 406 453
f 347 312 407
f 401 386 346
f 389 395 421
f 401 389 421
f 365 408 388
f 409 322 410
f 322 409 303
f 410 328 379
f 482 349 380
f 369 396 471
f 332 413 411
f 444 334 392
f 369 471 351
f 369 351 251
f 320 411 476
f 320 476 499
f 384 386 404
f 384 420 386
f 386 420 365
f 388 407 312
f 428 386 401
f 395 394 421
f 482 380 530
f 410 379 390
f 489 414 415
f 381 317 333
f 333 416 381
f 336 351 447
f 417 475 449
f 406 447 448
f 383 498 416
f 418 393 407
f 404 386 479
f 365 420 408
f 422 423 424
f 423 425 424
f 457 421 394
f 456 458 422
f 400 430 405
f 400 453 426
f 429 423 457
f 426 430 400
f 462 430 426
f 421 430 462
f 401 421 462
f 428 401 462
f 526 409 410
f 303 409 473
f 435 436 437
f 440 441 439
f 303 473 438
f 511 442 443
f 398 410 390
f 398 390 514
f 471 396 502
f 390 317 381
f 433 439 445
f 439 441 445
f 523 392 418
f 449 450 451
f 450 448 451
f 405 498 383
f 477 452 451
f 478 477 451
f 420 404 479
f 394 499 427
f 455 453 406
f 453 455 419
f 429 457 454
f 430 481 405
f 423 421 457
f 425 429 459
f 429 454 459
f 424 459 456
f 459 454 456
f 454 457 456
f 481 430 457
f 458 430 421
f 424 425 459
f 429 425 423
f 456 422 424
f 408 428 460
f 423 458 421
f 458 423 422
f 430 458 456
f 457 430 456
f 407 388 408
f 462 408 460
f 402 431 501
f 440 461 441
f 431 482 579
f 413 402 501
f 439 482 440
f 441 461 445
f 461 433 445
f 412 439 465
f 439 433 465
f 527 464 466
f 482 530 440
f 461 440 530
f 466 467 527
f 526 410 398
f 396 303 438
f 432 530 380
f 432 380 444
f 381 514 390
f 444 392 391
f 446 351 471
f 466 465 467
f 351 446 447
f 448 450 475
f 447 478 448
f 406 448 520
f 477 417 452
f 426 453 419
f 479 386 428
f 457 394 481
f 420 428 408
f 480 408 462
f 460 428 462
f 412 461 530
f 464 439 445
f 467 530 527
f 579 482 527
f 445 465 466
f 465 445 439
f 465 439 467
f 439 412 467
f 464 445 466
f 482 439 464
f 467 412 530
f 433 461 465
f 461 412 465
f 482 464 527
f 413 501 489
f 489 484 414
f 485 489 501
f 489 415 503
f 484 487 488
f 487 483 488
f 487 484 483
f 413 489 503
f 396 438 502
f 490 491 492
f 411 413 517
f 494 381 416
f 411 517 476
f 472 447 446
f 447 495 478
f 452 449 451
f 475 417 477
f 417 449 452
f 448 478 451
f 475 477 478
f 475 450 449
f 418 407 546
f 455 480 419
f 407 408 480
f 420 479 428
f 488 485 503
f 414 487 486
f 487 484 486
f 487 414 484
f 483 484 489
f 485 501 547
f 485 483 489
f 483 485 488
f 415 486 503
f 414 486 415
f 484 488 486
f 486 488 503
f 513 505 436
f 413 503 469
f 506 507 508
f 509 507 551
f 509 508 507
f 511 507 442
f 511 512 507
f 517 413 469
f 540 432 444
f 540 444 391
f 470 446 471
f 494 416 543
f 514 381 494
f 472 446 399
f 543 416 544
f 516 472 434
f 516 447 472
f 497 391 392
f 432 490 492
f 497 392 523
f 448 475 520
f 499 476 500
f 418 546 523
f 455 406 520
f 407 480 546
f 480 462 426
f 419 480 426
f 524 431 548
f 548 431 519
f 431 524 501
f 524 547 501
f 469 511 518
f 485 547 469
f 503 485 469
f 530 505 531
f 463 504 531
f 525 518 511
f 469 547 551
f 507 468 551
f 532 509 551
f 507 508 442
f 507 512 508
f 530 432 505
f 505 504 437
f 443 442 532
f 442 509 532
f 490 432 397
f 490 397 534
f 397 491 534
f 491 490 534
f 468 469 551
f 463 435 437
f 442 508 509
f 556 530 504
f 528 531 513
f 531 505 513
f 518 510 551
f 512 468 506
f 469 468 512
f 528 463 531
f 432 504 505
f 535 551 510
f 469 512 511
f 511 443 535
f 512 506 508
f 528 435 463
f 403 491 397
f 504 530 531
f 506 468 507
f 528 436 435
f 528 513 436
f 437 504 463
f 436 505 437
f 432 492 403
f 511 535 525
f 535 532 551
f 525 536 510
f 536 535 510
f 535 536 525
f 518 517 469
f 525 510 518
f 492 491 403
f 535 443 536
f 443 532 536
f 532 535 536
f 502 470 471
f 539 563 494
f 514 494 563
f 446 533 399
f 472 399 434
f 543 544 522
f 447 516 495
f 476 517 571
f 495 521 478
f 478 521 475
f 475 521 520
f 544 416 498
f 405 644 498
f 481 644 405
f 427 481 394
f 431 579 519
f 409 578 473
f 473 578 438
f 549 550 560
f 550 529 560
f 502 438 578
f 554 526 398
f 554 398 577
f 527 530 556
f 555 550 549
f 529 550 555
f 537 547 580
f 557 537 558
f 551 547 537
f 537 557 559
f 557 549 559
f 558 549 557
f 584 577 398
f 556 504 403
f 559 549 560
f 504 432 403
f 397 432 540
f 540 403 397
f 398 514 584
f 551 517 518
f 551 560 517
f 470 564 533
f 533 552 399
f 533 446 470
f 539 494 543
f 539 543 611
f 543 522 515
f 427 499 500
f 480 455 635
f 409 526 554
f 549 558 555
f 579 527 601
f 601 527 556
f 555 558 550
f 580 529 553
f 502 578 583
f 580 547 561
f 601 556 552
f 550 558 537
f 537 559 551
f 553 537 580
f 553 529 555
f 559 560 551
f 539 561 563
f 537 553 550
f 529 580 560
f 550 553 555
f 514 563 584
f 403 540 556
f 561 539 538
f 552 533 564
f 562 564 470
f 502 583 470
f 517 560 572
f 399 552 587
f 611 608 539
f 434 399 587
f 391 497 609
f 543 515 566
f 516 434 592
f 517 610 571
f 545 515 599
f 522 599 515
f 616 495 516
f 599 522 544
f 625 521 495
f 500 476 571
f 575 498 644
f 635 455 520
f 546 480 652
f 481 427 644
f 547 524 591
f 596 548 519
f 409 554 596
f 591 524 576
f 576 524 548
f 578 596 519
f 596 576 548
f 409 596 578
f 579 603 519
f 603 579 601
f 596 554 576
f 591 561 547
f 578 519 603
f 581 591 576
f 576 554 581
f 591 563 561
f 562 601 564
f 538 580 561
f 581 554 577
f 591 581 563
f 601 552 564
f 580 538 560
f 563 581 584
f 584 581 577
f 583 562 470
f 552 556 607
f 539 608 538
f 538 572 560
f 517 572 610
f 585 540 609
f 552 607 587
f 540 391 609
f 516 592 616
f 587 592 434
f 543 566 611
f 587 623 592
f 611 566 541
f 610 541 566
f 592 493 590
f 592 598 493
f 545 574 566
f 610 566 574
f 592 623 598
f 598 623 609
f 545 566 515
f 590 616 592
f 545 597 574
f 574 597 610
f 597 545 569
f 545 599 617
f 497 523 609
f 598 609 600
f 609 523 600
f 610 597 571
f 495 616 625
f 618 571 597
f 619 599 544
f 544 498 619
f 498 575 619
f 520 521 630
f 546 643 523
f 427 500 642
f 643 546 652
f 556 540 607
f 607 540 585
f 603 601 562
f 578 603 562
f 578 562 583
f 612 614 615
f 572 538 608
f 615 622 573
f 595 604 612
f 608 541 572
f 607 585 623
f 593 570 595
f 541 610 572
f 541 608 611
f 607 623 587
f 585 609 623
f 615 573 612
f 573 595 612
f 615 614 605
f 589 594 545
f 615 604 595
f 605 614 604
f 615 595 624
f 598 593 493
f 545 594 569
f 590 493 542
f 590 542 616
f 589 545 617
f 604 614 612
f 615 605 604
f 597 569 618
f 626 625 616
f 573 542 493
f 599 619 617
f 598 600 641
f 521 625 630
f 619 653 648
f 619 575 653
f 571 642 500
f 628 629 634
f 635 520 630
f 652 480 635
f 620 644 427
f 573 593 595
f 622 624 570
f 624 622 605
f 624 595 570
f 624 605 615
f 622 615 605
f 570 593 598
f 613 594 589
f 493 593 573
f 573 622 570
f 626 616 542
f 594 613 569
f 639 625 626
f 569 568 618
f 617 619 648
f 630 625 639
f 571 618 642
f 523 641 600
f 643 641 523
f 642 632 620
f 632 631 633
f 653 575 644
f 586 613 589
f 570 542 573
f 626 542 582
f 638 589 617
f 617 640 638
f 617 648 640
f 642 618 568
f 642 631 632
f 631 628 633
f 620 632 634
f 632 633 634
f 633 628 634
f 631 629 628
f 650 620 634
f 642 650 629
f 631 642 629
f 629 650 634
f 620 427 642
f 656 582 646
f 638 606 586
f 637 582 542
f 586 589 638
f 645 606 565
f 565 606 638
f 656 639 626
f 582 656 626
f 637 542 570
f 570 657 637
f 657 570 598
f 569 674 568
f 565 638 640
f 641 657 598
f 627 640 659
f 568 650 642
f 651 641 643
f 660 648 653
f 643 652 651
f 660 653 644
f 661 635 630
f 652 635 661
f 606 645 602
f 569 613 674
f 656 646 647
f 565 567 645
f 639 656 678
f 627 565 640
f 640 648 659
f 639 678 649
f 649 630 639
f 659 648 660
f 649 661 630
f 644 620 660
f 662 685 663
f 588 646 654
f 645 664 621
f 693 654 646
f 654 636 588
f 645 655 664
f 702 496 646
f 702 646 582
f 582 637 702
f 567 655 645
f 586 606 602
f 647 646 588
f 666 667 663
f 565 627 675
f 586 602 613
f 613 602 674
f 637 657 702
f 565 675 567
f 656 647 678
f 627 659 675
f 670 657 641
f 641 651 670
f 650 568 677
f 650 660 620
f 651 652 661
f 693 682 654
f 693 646 496
f 663 685 671
f 682 636 654
f 667 666 672
f 636 669 588
f 655 668 664
f 647 588 688
f 655 567 676
f 568 674 677
f 660 677 679
f 677 660 650
f 659 660 679
f 670 651 661
f 636 682 703
f 602 645 621
f 664 668 673
f 602 713 674
f 676 668 655
f 688 588 687
f 588 669 687
f 702 657 705
f 647 688 678
f 567 675 676
f 677 674 681
f 676 675 658
f 658 675 659
f 649 678 688
f 658 659 679
f 677 681 679
f 690 691 661
f 649 690 661
f 691 670 661
f 697 621 680
f 667 662 663
f 667 672 662
f 665 666 694
f 673 694 664
f 694 671 684
f 662 672 685
f 712 669 636
f 666 665 672
f 668 684 673
f 694 673 665
f 672 665 673
f 685 672 673
f 666 663 671
f 684 671 685
f 694 666 671
f 685 673 684
f 657 670 705
f 670 691 699
f 688 691 690
f 649 688 690
f 701 621 697
f 621 701 602
f 621 664 680
f 693 496 695
f 683 703 682
f 680 664 694
f 702 695 496
f 703 712 636
f 686 669 712
f 684 668 698
f 674 706 681
f 668 676 698
f 699 688 687
f 705 670 699
f 698 676 658
f 689 698 658
f 679 681 689
f 699 691 688
f 658 679 689
f 693 695 682
f 707 682 695
f 682 707 683
f 710 697 715
f 715 697 680
f 680 694 696
f 696 694 684
f 713 706 674
f 696 684 698
f 699 716 705
f 707 474 711
f 697 710 708
f 707 711 683
f 703 683 725
f 702 727 695
f 680 696 715
f 717 696 698
f 716 669 686
f 698 681 706
f 687 669 716
f 698 689 681
f 687 716 699
f 707 695 692
f 692 708 474
f 474 707 692
f 711 474 704
f 697 708 701
f 474 708 710
f 683 711 725
f 722 602 701
f 727 702 705
f 602 722 713
f 726 686 712
f 698 706 717
f 692 695 700
f 721 708 692
f 708 721 701
f 727 700 695
f 704 474 720
f 474 710 720
f 701 721 722
f 723 711 704
f 728 710 715
f 703 725 726
f 712 703 726
f 724 715 696
f 713 718 706
f 713 722 718
f 719 727 705
f 726 719 686
f 716 719 705
f 718 696 717
f 718 717 706
f 721 692 709
f 727 730 700
f 730 709 700
f 723 725 711
f 724 718 722
f 724 728 715
f 724 696 718
f 716 686 719
f 692 700 709
f 709 714 721
f 729 723 704
f 704 720 729
f 721 714 722
f 727 719 726
f 722 728 724
f 728 720 710
f 727 726 725
f 709 730 729
f 729 714 709
f 720 714 729
f 729 730 723
f 730 727 725
f 728 722 714
f 720 728 714
f 725 723 730
f 123 124 208

