# https://github.com/mikedh/trimesh
v 0.16118537 -0.02506297 0.00692702
v 0.16118537 -0.02476109 0.01116471
v 0.16118537 -0.02472626 0.00266837
v 0.16641054 -0.02942284 -0.01011805
v 0.16655130 -0.02931834 -0.00585679
v 0.16683283 -0.02925449 -0.00159290
v 0.16810534 -0.02587573 0.00993897
v 0.16118537 -0.02271759 0.01476335
v 0.16952987 -0.02987566 0.00097643
v 0.16118537 -0.02336199 -0.00167147
v 0.16496348 -0.02729226 -0.01013901
v 0.16642180 -0.02942284 -0.01013901
v 0.16853889 -0.03017174 -0.01013901
v 0.16867965 -0.03016013 -0.00585679
v 0.16896119 -0.03006144 -0.00159290
v 0.17236206 -0.02588154 0.00987612
v 0.17236206 -0.02997436 0.00119644
v 0.17236206 -0.02900485 0.00332314
v 0.17236206 -0.02733289 0.00692702
v 0.17662439 -0.02584090 0.00976350
v 0.18088675 -0.02575962 0.00961683
v 0.18941144 -0.02558546 0.00932349
v 0.19366815 -0.02549257 0.00917944
v 0.19619064 -0.02544033 0.00909039
v 0.19902845 -0.02534744 0.00896991
v 0.19773905 -0.02367548 0.01043136
v 0.18374144 -0.02125462 0.01336475
v 0.16118537 -0.01883376 0.01632171
v 0.17236206 -0.03047362 -0.00159290
v 0.16118537 -0.02145201 -0.00396318
v 0.16374164 -0.02330974 -0.01013901
v 0.17236206 -0.03072906 -0.01013901
v 0.17236206 -0.03072906 -0.01011805
v 0.17236206 -0.03070003 -0.00585679
v 0.18514908 -0.02899324 0.00332576
v 0.19793049 -0.02996855 0.00109691
v 0.18514908 -0.02997436 0.00119644
v 0.17662439 -0.02900485 0.00332576
v 0.17662439 -0.03050265 -0.00159290
v 0.18088675 -0.02900485 0.00332576
v 0.18941144 -0.02698457 0.00692702
v 0.19366815 -0.02682202 0.00692702
v 0.19793049 -0.02877844 0.00322624
v 0.19773905 -0.02641564 0.00729893
v 0.20036290 -0.02986986 0.00089262
v 0.20088654 -0.02620084 0.00612819
v 0.20094285 -0.02250859 0.01010922
v 0.19793049 -0.01902534 0.01247688
v 0.21071752 -0.00198064 0.01219401
v 0.16118537 -0.01699345 0.01637147
v 0.17662439 -0.03078711 -0.00585679
v 0.18088675 -0.03083936 -0.00585679
v 0.16118537 -0.02138234 -0.00401294
v 0.16118537 -0.01984391 -0.00463105
v 0.16118537 -0.01902534 -0.00491129
v 0.16349390 -0.01904856 -0.01013901
v 0.17662439 -0.03085678 -0.01013901
v 0.17662439 -0.03085678 -0.01011805
v 0.18088675 -0.03097289 -0.01011805
v 0.18941144 -0.02997436 0.00118334
v 0.19366815 -0.02997436 0.00114667
v 0.19366815 -0.03050265 -0.00159290
v 0.19793049 -0.03047943 -0.00159290
v 0.18514908 -0.03086258 -0.00585679
v 0.20069510 -0.03007305 -0.00159290
v 0.21637062 -0.00719391 0.00692702
v 0.21370173 -0.00894134 0.00975302
v 0.21506432 -0.00606766 0.01019827
v 0.21497987 -0.00198064 0.01134543
v 0.21071752 0.00227473 0.01204211
v 0.16118537 0.01506405 0.01660457
v 0.16118537 0.01219618 0.01661767
v 0.16118537 0.01080288 0.01661505
v 0.16118537 0.00794081 0.01660457
v 0.16118537 0.00370866 0.01657314
v 0.16118537 -0.01320251 0.01644742
v 0.16118537 -0.01476417 0.01643171
v 0.18514908 -0.03105416 -0.01011805
v 0.18941144 -0.03110061 -0.01011805
v 0.16118537 -0.01620972 -0.00523606
v 0.16118537 -0.01476417 -0.00530678
v 0.16347138 -0.01478739 -0.01013901
v 0.18088675 -0.03097289 -0.01013901
v 0.19366815 -0.03086258 -0.00585679
v 0.19793049 -0.03080453 -0.00585679
v 0.19366815 -0.03111222 -0.01011805
v 0.19793049 -0.03099611 -0.01011805
v 0.20092033 -0.03021238 -0.00585679
v 0.21639877 -0.00764092 0.00266837
v 0.21775573 -0.00551034 0.00266837
v 0.21749675 -0.00506332 0.00692702
v 0.21727713 -0.00452922 0.00930777
v 0.21777263 -0.00198064 0.00982635
v 0.21782895 0.00156646 0.00983159
v 0.21540216 0.00270433 0.01071161
v 0.19793049 0.01506405 0.01253450
v 0.16118537 0.01649799 0.01640028
v 0.18514908 -0.03105416 -0.01013901
v 0.18941144 -0.03110061 -0.01013901
v 0.16347138 -0.01052041 -0.01013901
v 0.16118537 -0.00624182 -0.00527535
v 0.16348264 0.01504083 -0.01013901
v 0.16347700 0.00651848 -0.01013901
v 0.19366815 -0.03111222 -0.01013901
v 0.19793049 -0.03099611 -0.01013901
v 0.20098789 -0.03028204 -0.01011805
v 0.20098789 -0.03028204 -0.01013901
v 0.21782895 -0.00546970 -0.00159290
v 0.21870168 -0.00198064 0.00266837
v 0.21854403 -0.00198064 0.00692702
v 0.21799785 0.00270433 0.00733298
v 0.21710822 0.00440531 0.00902229
v 0.20036290 0.02165901 0.00937849
v 0.20097099 0.01932523 0.01010922
v 0.19793049 0.01932523 0.01140567
v 0.16118537 0.01915687 0.01598908
v 0.16118537 -0.00198064 -0.00525701
v 0.16118537 0.00227473 -0.00523868
v 0.16118537 0.00654171 -0.00521773
v 0.16118537 0.01080288 -0.00518368
v 0.16118537 0.01506405 -0.00509725
v 0.16356710 0.01930781 -0.01013901
v 0.20271084 -0.02755350 -0.01013901
v 0.21755868 -0.00490657 -0.00420937
v 0.21860032 -0.00198064 -0.00159290
v 0.21824559 0.00227473 0.00266837
v 0.21737285 0.00466656 -0.00159290
v 0.21730530 0.00459689 0.00266837
v 0.21719830 0.00449239 0.00618057
v 0.20159037 0.02694774 -0.00585679
v 0.20132010 0.02664586 -0.00159290
v 0.20070637 0.02612918 0.00125406
v 0.19793049 0.02639622 0.00176216
v 0.19793049 0.02520031 0.00389149
v 0.19793049 0.02346449 0.00692702
v 0.19793049 0.02185059 0.00967445
v 0.17454109 0.02146162 0.01332546
v 0.16118537 0.02027732 0.01547050
v 0.16118537 0.01946456 -0.00439009
v 0.16446235 0.02356899 -0.01013901
v 0.20350475 -0.02328652 -0.01013901
v 0.21777827 -0.00198064 -0.00445295
v 0.21757557 0.00227473 -0.00423295
v 0.21813862 0.00227473 -0.00159290
v 0.21728841 0.00458528 -0.00391604
v 0.20155658 0.02693613 -0.01013901
v 0.19793049 0.02817268 -0.01013901
v 0.19793049 0.02818429 -0.00585679
v 0.19793049 0.02763278 -0.00159290
v 0.19366815 0.02647750 0.00203717
v 0.18514908 0.02566474 0.00465888
v 0.18941144 0.02554283 0.00444150
v 0.19366815 0.02537447 0.00416649
v 0.18941144 0.02414953 0.00692702
v 0.16118537 0.02208861 0.01428405
v 0.16118537 0.02275623 -0.00122099
v 0.16562225 0.02614659 -0.01013901
v 0.20374687 -0.00624182 -0.01013901
v 0.21497987 -0.00198064 -0.00567345
v 0.20327954 0.02358641 -0.01013901
v 0.19366815 0.02818429 -0.01013901
v 0.19366815 0.02818429 -0.00585679
v 0.19366815 0.02770244 -0.00159290
v 0.18941144 0.02647750 0.00231217
v 0.18514908 0.02646009 0.00253217
v 0.18088675 0.02568797 0.00470602
v 0.16118537 0.02246015 0.01324165
v 0.17236206 0.02565313 0.00460650
v 0.16118537 0.02315680 0.00070667
v 0.16562789 0.02615820 -0.01011805
v 0.16810534 0.02738895 -0.01013901
v 0.20380318 -0.00198064 -0.01013901
v 0.20350475 0.01932523 -0.01013901
v 0.17236206 0.02818429 -0.01013901
v 0.17236206 0.02818429 -0.01011805
v 0.18941144 0.02815527 -0.00585679
v 0.18941144 0.02767922 -0.00159290
v 0.18088675 0.02644267 0.00257670
v 0.17236206 0.02640784 0.00247979
v 0.16118537 0.02290137 0.01119090
v 0.16810534 0.02558927 0.00430530
v 0.16810534 0.02622206 0.00217860
v 0.16570672 0.02594340 0.00144787
v 0.16118537 0.02349352 0.00271027
v 0.16561663 0.02614079 -0.00585679
v 0.16810534 0.02738895 -0.01011805
v 0.16810534 0.02725543 -0.00585679
v 0.17236206 0.02797530 -0.00585679
v 0.18088675 0.02806818 -0.00585679
v 0.18514908 0.02762117 -0.00159290
v 0.17236206 0.02742959 -0.00159290
v 0.16118537 0.02320905 0.00958540
v 0.16810534 0.02693032 -0.00159290
v 0.16559411 0.02608854 -0.00159290
v 0.16118537 0.02347610 0.00546032
f 1 2 8
f 1 8 28
f 1 28 50
f 1 50 77
f 1 77 76
f 1 76 75
f 1 75 74
f 1 74 73
f 1 73 72
f 1 72 71
f 1 71 97
f 1 97 116
f 1 116 138
f 1 138 155
f 1 155 167
f 1 167 180
f 1 180 192
f 1 192 195
f 1 195 184
f 1 184 169
f 1 169 156
f 1 156 139
f 1 139 121
f 1 121 120
f 1 120 119
f 1 119 118
f 1 118 117
f 1 117 101
f 1 101 81
f 1 81 80
f 1 80 55
f 1 55 54
f 1 54 53
f 1 53 30
f 1 30 10
f 1 10 3
f 1 3 4
f 1 4 5
f 1 5 6
f 1 6 2
f 2 7 8
f 2 6 9
f 2 9 7
f 3 10 11
f 3 11 4
f 4 11 12
f 4 12 13
f 4 13 14
f 4 14 5
f 5 14 6
f 6 14 15
f 6 15 9
f 7 16 8
f 7 9 17
f 7 17 18
f 7 18 19
f 7 19 16
f 8 16 20
f 8 20 21
f 8 21 22
f 8 22 23
f 8 23 24
f 8 24 25
f 8 25 26
f 8 26 27
f 8 27 28
f 9 15 29
f 9 29 17
f 10 30 11
f 11 30 31
f 11 31 56
f 11 56 82
f 11 82 100
f 11 100 103
f 11 103 102
f 11 102 122
f 11 122 140
f 11 140 157
f 11 157 171
f 11 171 174
f 11 174 161
f 11 161 147
f 11 147 146
f 11 146 160
f 11 160 173
f 11 173 172
f 11 172 158
f 11 158 141
f 11 141 123
f 11 123 107
f 11 107 105
f 11 105 104
f 11 104 99
f 11 99 98
f 11 98 83
f 11 83 57
f 11 57 32
f 11 32 13
f 11 13 12
f 13 32 33
f 13 33 34
f 13 34 14
f 14 34 15
f 15 34 29
f 16 19 35
f 16 35 36
f 16 36 20
f 17 37 40
f 17 40 38
f 17 38 18
f 17 29 39
f 17 39 62
f 17 62 37
f 18 38 19
f 19 38 40
f 19 40 35
f 20 41 42
f 20 42 21
f 20 36 43
f 20 43 41
f 21 42 22
f 22 42 24
f 22 24 23
f 24 42 44
f 24 44 25
f 25 44 43
f 25 43 45
f 25 45 46
f 25 46 47
f 25 47 26
f 26 47 48
f 26 48 27
f 27 48 28
f 28 48 49
f 28 49 50
f 29 34 51
f 29 51 52
f 29 52 39
f 30 53 31
f 31 53 54
f 31 54 55
f 31 55 56
f 32 57 58
f 32 58 33
f 33 58 34
f 34 58 59
f 34 59 51
f 35 40 60
f 35 60 61
f 35 61 36
f 36 61 62
f 36 62 63
f 36 63 45
f 36 45 43
f 37 60 40
f 37 62 60
f 39 52 64
f 39 64 84
f 39 84 62
f 41 43 42
f 42 43 44
f 45 63 65
f 45 65 66
f 45 66 67
f 45 67 46
f 46 67 47
f 47 67 48
f 48 67 68
f 48 68 69
f 48 69 49
f 49 69 70
f 49 70 71
f 49 71 72
f 49 72 73
f 49 73 74
f 49 74 75
f 49 75 76
f 49 76 77
f 49 77 50
f 51 59 78
f 51 78 52
f 52 78 79
f 52 79 64
f 55 80 56
f 56 80 81
f 56 81 82
f 57 83 59
f 57 59 58
f 59 83 98
f 59 98 78
f 60 62 61
f 62 84 63
f 63 84 85
f 63 85 65
f 64 79 86
f 64 86 84
f 65 85 87
f 65 87 88
f 65 88 89
f 65 89 66
f 66 89 90
f 66 90 91
f 66 91 92
f 66 92 67
f 67 92 68
f 68 92 93
f 68 93 69
f 69 93 94
f 69 94 95
f 69 95 70
f 70 95 96
f 70 96 71
f 71 96 97
f 78 98 99
f 78 99 79
f 79 99 104
f 79 104 86
f 81 100 82
f 81 101 102
f 81 102 103
f 81 103 100
f 84 86 85
f 85 86 87
f 86 104 105
f 86 105 87
f 87 105 107
f 87 107 106
f 87 106 88
f 88 106 89
f 89 107 108
f 89 108 90
f 89 106 107
f 90 108 109
f 90 109 110
f 90 110 91
f 91 110 92
f 92 110 93
f 93 110 94
f 94 110 111
f 94 111 112
f 94 112 95
f 95 112 113
f 95 113 114
f 95 114 115
f 95 115 96
f 96 115 116
f 96 116 97
f 101 117 102
f 102 118 119
f 102 119 120
f 102 120 121
f 102 121 122
f 102 117 118
f 107 123 108
f 108 123 124
f 108 124 125
f 108 125 109
f 109 125 126
f 109 126 110
f 110 126 111
f 111 126 127
f 111 127 128
f 111 128 129
f 111 129 112
f 112 129 130
f 112 130 131
f 112 131 132
f 112 132 113
f 113 132 133
f 113 133 134
f 113 134 135
f 113 135 136
f 113 136 115
f 113 115 114
f 115 136 137
f 115 137 116
f 116 137 138
f 121 139 122
f 122 139 140
f 123 141 142
f 123 142 124
f 124 142 125
f 125 142 143
f 125 143 144
f 125 144 126
f 126 144 127
f 127 144 145
f 127 145 146
f 127 146 130
f 127 130 128
f 128 130 129
f 130 146 147
f 130 147 148
f 130 148 131
f 131 148 149
f 131 149 132
f 132 149 133
f 133 150 151
f 133 151 152
f 133 152 153
f 133 153 134
f 133 149 150
f 134 153 154
f 134 154 135
f 135 154 136
f 136 155 137
f 136 154 155
f 137 155 138
f 139 156 140
f 140 156 157
f 141 158 159
f 141 159 142
f 142 159 160
f 142 160 143
f 143 145 144
f 143 160 145
f 145 160 146
f 147 161 148
f 148 161 174
f 148 174 175
f 148 175 162
f 148 162 163
f 148 163 149
f 149 163 164
f 149 164 150
f 150 164 151
f 151 164 165
f 151 165 166
f 151 166 155
f 151 155 152
f 152 154 153
f 152 155 154
f 155 166 168
f 155 168 167
f 156 169 170
f 156 170 157
f 157 170 171
f 158 172 159
f 159 173 160
f 159 172 173
f 162 175 176
f 162 176 177
f 162 177 163
f 163 177 178
f 163 178 165
f 163 165 164
f 165 178 166
f 166 178 179
f 166 179 168
f 167 168 179
f 167 179 181
f 167 181 182
f 167 182 183
f 167 183 180
f 169 184 170
f 170 185 186
f 170 186 171
f 170 184 185
f 171 186 175
f 171 175 174
f 175 186 187
f 175 187 188
f 175 188 189
f 175 189 176
f 176 189 177
f 177 189 188
f 177 188 190
f 177 190 179
f 177 179 178
f 179 190 191
f 179 191 182
f 179 182 181
f 180 183 192
f 182 191 193
f 182 193 183
f 183 193 187
f 183 187 194
f 183 194 192
f 184 195 185
f 185 194 186
f 185 195 194
f 186 194 187
f 187 193 188
f 188 193 191
f 188 191 190
f 192 194 195

