# https://github.com/mikedh/trimesh
v -0.97156101 0.08513509 0.17484872
v -0.98498744 0.17451981 0.01805766
v -0.87760746 -0.32336548 -0.04732478
v -0.89082158 0.18178861 -0.08606916
v -0.95459473 0.27305141 -0.14250027
v -0.91631150 0.21597059 0.13968484
v -0.88357812 -0.31713963 0.16839194
v -0.85841018 0.28446877 -0.27738580
v -0.81349897 0.17442618 0.25434676
v -0.87923986 -0.00148435 0.36345017
v -0.85729766 -0.22563420 -0.05895816
v -0.84066701 -0.20633116 0.19138433
v -0.80047178 0.16710342 -0.23214160
v -0.80050606 0.16708891 -0.23205897
v -0.80830121 0.17509159 -0.22425276
v -0.66715908 0.40645689 -0.22924833
v -0.85536128 0.16408221 0.34589922
v -0.90201622 0.06573274 0.07381209
v -0.81561106 0.31716147 -0.03358434
v -0.90085489 0.41256851 -0.20647562
v -0.78169662 -0.30897993 -0.26811874
v -0.77994090 -0.38712102 0.32876694
v -0.73644435 -0.05242912 0.38772196
v -0.79499614 -0.01808235 0.37517160
v -0.80463284 0.17112745 -0.22787367
v -0.72534037 -0.42878687 0.48827329
v -0.82443100 0.26238921 -0.22712155
v -0.88515222 0.00711911 0.25677118
v -0.71576482 0.29175615 -0.39545637
v -0.75753576 0.28424767 -0.06032117
v -0.75363576 0.28412768 -0.06409117
v -0.75373578 0.28424767 -0.06409117
v -0.74972576 0.28424767 -0.06806118
v -0.74972576 0.28417766 -0.06800117
v -0.74582577 0.28419769 -0.07190118
v -0.74784917 0.23262061 -0.01985611
v -0.75753576 0.28901768 -0.06409117
v -0.83276707 -0.38087025 0.30491865
v -0.76839209 -0.19544576 -0.20795806
v -0.80050594 0.16707627 -0.23205563
v -0.80440325 0.17109795 -0.22815482
v -0.75363576 0.28424767 -0.06419118
v -0.74978578 0.28424767 -0.06800117
v -0.74972576 0.28911766 -0.07190118
v -0.74972576 0.27922767 -0.06409117
v -0.73213792 -0.31127453 0.45014876
v -0.76355565 -0.19435513 0.38769433
v -0.66756880 -0.03111633 0.04419020
v -0.83265412 0.14139150 -0.18578060
v -0.71519607 0.25534114 -0.08254866
v -0.83049923 0.40668777 -0.14217192
v -0.78904808 0.09862854 0.38382810
v -0.73551476 0.11127908 0.13640055
v -0.77617627 0.11537103 -0.25058261
v -0.71000046 0.27401957 -0.10662451
v -0.64296448 -0.01959169 0.30294201
v -0.72599864 0.31427655 -0.11859068
v -0.76707715 0.41567722 -0.34738216
v -0.68462139 0.08347967 0.02749079
v -0.66147405 -0.34023780 -0.33728501
v -0.70589566 0.13252038 0.29317689
v -0.73549294 -0.40017867 -0.21325214
v -0.63735825 -0.12113543 0.45251381
v -0.59307718 -0.39610478 0.37216121
v -0.65409482 0.00178271 0.41021284
v -0.77272558 0.00262539 -0.23966709
v -0.60382175 0.00823284 0.07081372
v 0.53544146 -0.38989431 -0.30668676
v -0.69247019 -0.41817579 -0.37757739
v -0.51591820 -0.27394211 -0.39425576
v -0.63695431 -0.19529915 -0.29829809
v 0.01976421 0.28815767 -0.36487117
v 0.01976421 0.28815767 -0.36097118
v -0.65945655 0.18104976 0.01518490
v -0.48019579 0.10847767 -0.04456118
v -0.62829250 0.40481228 -0.40501055
v 0.48272803 0.39041662 -0.36284322
v -0.54294962 -0.41856596 -0.30853429
v -0.56428361 -0.38583231 -0.25620157
v -0.46757385 -0.25461796 0.48365322
v -0.60108656 -0.38187486 0.42852053
v -0.63133150 0.25764200 -0.36450624
v -0.44601041 0.31121406 -0.47684833
v -0.47157171 0.38251156 -0.33144131
v -0.36739716 -0.38302767 0.42053008
v -0.63250959 0.17646757 -0.12210355
v -0.22116956 0.31007141 -0.40056425
v -0.01144579 0.28818768 -0.38831118
v -0.01134579 0.28815767 -0.40394118
v -0.01144579 0.28819767 -0.40003118
v -0.01135579 0.28815767 -0.40003118
v -0.01144579 0.28819767 -0.40394118
v 0.05104421 -0.33293232 0.39774883
v -0.50921220 -0.23048364 0.47090790
v -0.51011163 -0.22045913 0.45873916
v -0.51144576 -0.22746234 0.46717882
v -0.50753576 -0.22746234 0.46723881
v -0.51305574 -0.22746234 0.46714881
v -0.51144576 -0.22743233 0.46714881
v -0.53631824 0.18949805 -0.05333894
v -0.48114133 0.10940270 -0.04400719
v -0.44588333 -0.38611975 -0.33393216
v -0.44484732 0.35476410 -0.31051281
v -0.01142728 0.28820699 -0.41750202
v -0.01133579 0.28815767 -0.41565117
v -0.01144579 0.28818768 -0.38050118
v -0.18326578 0.29987767 -0.39222118
v -0.18325578 0.29987767 -0.38831118
v -0.58837914 -0.24843813 0.48197216
v -0.50690889 -0.22743770 0.46722221
v -0.49001056 0.08632325 -0.02647453
v -0.46779191 0.09046735 -0.04911914
v -0.47628579 0.10846767 -0.04846117
v -0.47628579 0.10455767 -0.04664118
v -0.47627580 0.10846767 -0.04847117
v -0.48019579 0.11237767 -0.04643117
v -0.42891005 0.35064620 -0.31435922
v -0.18339580 0.29987767 -0.41956118
v -0.44499347 0.35455671 -0.31019720
v -0.43984511 -0.17024180 0.42181250
v -0.47545275 -0.20024982 -0.34183985
v 0.14075422 -0.07511234 -0.36097118
v -0.48014319 0.10828230 -0.04445209
v -0.47628579 0.10848767 -0.04847117
v -0.47628579 0.11237767 -0.05061117
v -0.48228133 0.12946220 -0.05395677
v -0.48331589 0.23629484 -0.16430205
v -0.48005539 0.19760174 -0.20794933
v -0.45174468 0.20306686 -0.17709279
v -0.42950073 0.35070488 -0.31411624
v -0.44926274 0.31372201 -0.27227691
v -0.17123988 0.28743067 -0.40640798
v -0.45684814 0.36047933 -0.31074381
v 0.04323421 -0.02824233 -0.37035120
v -0.34392872 -0.04384337 0.42953742
v 0.03526421 -0.01652233 -0.37269118
v -0.46617568 0.13226999 -0.07444925
v -0.31298679 -0.27944937 -0.39998746
v -0.18331578 0.29987767 -0.40394118
v -0.18332580 0.29989767 -0.40003118
v -0.18329579 0.29987767 -0.40003118
v 0.17966744 0.28903934 -0.43734825
v -0.44505966 0.35456464 -0.31016320
v -0.18337578 0.29987767 -0.41565117
v -0.18335579 0.29987767 -0.41175118
v -0.18332580 0.29984766 -0.41175118
v -0.18722966 0.30179921 -0.41293731
v -0.06434767 -0.26545739 -0.39165592
v -0.37671384 0.10591603 -0.04610528
v -0.18332580 0.29986769 -0.40784118
v -0.35691038 0.35727566 -0.38396385
v -0.42941579 0.34421769 -0.30628118
v 0.15260422 -0.07505234 -0.36097118
v -0.40437883 -0.07510943 -0.35725522
v -0.00363579 -0.32130232 0.40073881
v -0.00753579 -0.32130232 0.40073881
v -0.30050579 -0.33683231 0.43690881
v -0.29660708 -0.33691156 0.43589678
v -0.29660580 -0.33683231 0.43589881
v -0.29659581 -0.33683231 0.43589881
v -0.26693943 -0.35624719 0.41117311
v -0.28878579 -0.34074232 0.43284881
v -0.29269579 -0.33293232 0.43591881
v 0.01979421 0.28818768 -0.38050118
v 0.03481129 0.28856656 -0.38537946
v -0.44646701 0.25245866 -0.22851641
v -0.33880243 -0.34524801 0.43757451
v -0.29660580 -0.34074232 0.43483880
v -0.28488579 -0.32529232 0.43589881
v -0.28097579 -0.33293232 0.43287882
v -0.28386021 -0.32411012 0.43594533
v -0.29269579 -0.33299232 0.43589881
v -0.31101990 -0.24834558 0.44860524
v -0.29263580 -0.33293232 0.43589881
v -0.28878579 -0.32914233 0.43589881
v -0.28878579 -0.32902232 0.43592882
v -0.28488579 -0.32511231 0.43594882
v -0.29660580 -0.32121232 0.44000882
v -0.18343966 0.29897153 -0.43225056
v 0.03105706 -0.20128074 -0.34146079
v -0.26179683 -0.34160972 0.42565370
v -0.28866580 -0.32902232 0.43589881
v -0.24877501 -0.19439337 0.38524243
v -0.26925579 -0.34855232 0.42015880
v -0.27105346 0.23359965 -0.47753799
v -0.26924852 -0.34479898 0.42437425
v -0.30295527 -0.34126055 0.43638641
v -0.24978580 -0.30558231 0.43198881
v -0.24972577 -0.30553234 0.43198881
v -0.27630302 -0.28681573 0.44370377
v -0.26535580 -0.34754232 0.42026880
v -0.29269579 0.20221765 -0.12644117
v -0.29660580 0.20221765 -0.12632117
v -0.27289230 0.17169109 -0.40737906
v -0.28803897 0.20358141 -0.12258478
v -0.25363579 -0.30558231 0.43298882
v -0.28535506 0.20317250 -0.11477174
v -0.28570184 0.21411350 -0.13626072
v -0.28876442 0.20220879 -0.12660913
v -0.29269579 0.20216767 -0.12659118
v -0.24978614 -0.30560359 0.43198532
v -0.28878579 0.20221765 -0.12657116
v -0.28878579 0.20220765 -0.12659118
v -0.23416576 0.22565469 -0.48206156
v -0.23410580 0.22955766 -0.48170120
v -0.26925579 -0.34845233 0.42026880
v -0.18332580 0.29991767 -0.39222118
v -0.18332580 0.29993767 -0.38831118
v -0.18332580 0.29996768 -0.38050118
v -0.18331142 0.29995891 -0.38004866
v -0.18332580 0.29987767 -0.40601119
v -0.25401938 -0.30976817 0.43198621
v -0.24582580 -0.30168232 0.43198881
v -0.24581578 -0.30168232 0.43198881
v -0.26925579 -0.34495232 0.42417881
v -0.05940383 -0.37882274 0.37665159
v -0.23019578 -0.24302232 0.42026880
v -0.23019578 -0.24308234 0.42028880
v -0.27663723 -0.34145629 0.42947340
v -0.24191578 -0.29783231 0.43198881
v -0.23019578 -0.23527233 0.41823882
v -0.20524953 -0.27251175 0.41875067
v -0.44203046 0.02135806 -0.05346433
v -0.23019578 0.22565766 -0.48207119
v -0.23019578 0.22569767 -0.48206118
v -0.17054957 -0.12408218 0.39329618
v -0.33386603 0.19776350 -0.10531806
v -0.23409973 -0.23918235 0.42026883
v -0.23409580 -0.23918232 0.42026880
v -0.23410580 0.22569767 -0.48206118
v -0.23410580 0.22565766 -0.48206118
v -0.22977707 0.22535615 -0.48202673
v -0.23410580 -0.24308234 0.42129880
v -0.18332580 0.29990768 -0.39612117
v -0.18332580 0.29983768 -0.41565117
v -0.22941479 -0.24375489 0.42025971
v -0.23743476 -0.29121351 0.43295324
v -0.03631957 0.04297829 0.06774264
v -0.08452001 0.02829407 0.24894060
v -0.14920664 0.26006168 -0.47548768
v -0.18515585 0.20676960 -0.16272879
v -0.22060795 0.17969692 -0.46188298
v -0.01133579 0.28815767 -0.41175118
v -0.18336660 0.29985359 -0.41971216
v -0.18323579 0.29987767 -0.38440117
v -0.18328579 0.29987767 -0.39612117
v -0.18332580 0.29994768 -0.38440117
v -0.22150870 -0.27221420 -0.39621595
v -0.20593074 -0.33833036 0.41061100
v 0.04403403 0.01242694 -0.37855902
v -0.17095990 0.00222464 -0.37568298
v -0.12472580 -0.07511234 -0.36098120
v -0.12863579 -0.07511234 -0.36097118
v -0.13644578 -0.06730233 -0.36247119
v -0.13253579 -0.07511234 -0.36097118
v -0.13284580 -0.07511234 -0.36097118
v -0.19113579 0.10846767 -0.39610118
v -0.19503579 0.10846767 -0.39612117
v -0.19503579 0.10848767 -0.39612117
v -0.19503579 0.10065766 -0.39462119
v -0.19364128 0.02890417 -0.05743950
v -0.19806534 -0.16889718 0.36210215
v -0.21587388 0.12587459 -0.07322801
v -0.19113579 0.10860766 -0.39612117
v -0.19571579 0.10846767 -0.39612117
v -0.14404045 0.19902229 -0.21258382
v -0.19094627 0.11667806 -0.39766684
v -0.05530647 0.28936303 -0.37523550
v -0.18333580 0.29987767 -0.40784118
v -0.18170887 0.29839534 -0.35967967
v 0.01979052 0.28819603 -0.39697522
v 0.01979421 0.28819767 -0.39612117
v 0.01971421 0.28815767 -0.39612117
v -0.18723063 0.30179915 -0.37642616
v -0.00469931 -0.03537157 -0.36878312
v -0.12863579 -0.08293233 -0.35946119
v -0.13644578 -0.07511234 -0.36096120
v -0.13604274 -0.04853616 -0.36607972
v -0.12082579 -0.07511234 -0.36099118
v -0.16708037 0.02660269 -0.19862489
v -0.15207580 -0.06730233 -0.36242118
v -0.15748930 -0.03183183 -0.17440507
v -0.17345038 0.11391378 -0.39704993
v -0.01144579 0.28819767 -0.39612117
v -0.12472580 -0.07516233 -0.36097118
v -0.13253579 -0.07512233 -0.36097118
v -0.14425579 -0.07511234 -0.36095119
v -0.14035580 -0.07511234 -0.36096120
v 0.02370421 -0.32130232 0.40073881
v -0.05022409 -0.30864635 0.40399700
v -0.02316579 -0.32121232 0.40076882
v -0.14425579 -0.07505234 -0.36097118
v -0.13644578 -0.07509233 -0.36097118
v -0.12863579 -0.07514233 -0.36097118
v -0.14816578 -0.07501233 -0.36097118
v -0.11831858 -0.07535113 -0.36097270
v -0.14162526 -0.10385840 -0.35525003
v -0.14035580 -0.07507233 -0.36097118
v -0.11808336 0.01920359 -0.09147193
v -0.13068791 0.09971989 -0.18489584
v -0.18722580 0.10846767 -0.39607120
v -0.08719845 0.28530747 -0.44343132
v 0.01977421 0.28815767 -0.35706118
v -0.02462804 -0.32125038 0.40075600
v -0.02316579 -0.32130232 0.40073881
v -0.05857280 0.14355575 -0.23727523
v -0.11757290 0.20238416 -0.11247020
v -0.11548585 0.11022952 0.00330137
v -0.04269579 0.20224766 -0.26722118
v -0.03878579 0.20221765 -0.26719117
v -0.03878579 0.20226768 -0.26722118
v 0.01588421 -0.32130232 0.40073881
v 0.01198421 -0.32130232 0.40073881
v 0.00586081 0.27534333 -0.45780087
v -0.01136579 0.28815767 -0.39612117
v 0.01973421 0.28815767 -0.38050118
v 0.01973421 0.28815767 -0.38440117
v -0.09935579 0.25200740 -0.20782837
v 0.01972421 0.28815767 -0.38831118
v -0.01144579 0.28819767 -0.39222118
v 0.00948442 -0.34249339 0.39516386
v -0.06739674 -0.24760818 0.39975002
v -0.08552455 -0.03225256 0.37548676
v -0.03124751 -0.03628667 -0.36867905
v 0.00417421 -0.32130232 0.40073881
v 0.00417421 -0.32121232 0.40076882
v 0.00027421 -0.32121232 0.40076882
v -0.04724825 0.20222311 -0.26719016
v -0.04660579 0.20225766 -0.26722118
v 0.01780033 0.28717846 -0.40655220
v -0.04237912 0.20720930 -0.26999110
v 0.01979421 0.28819767 -0.39222118
v 0.01979421 0.28818768 -0.38831118
v -0.03099765 0.26859853 -0.32582954
v -0.03097579 0.26858768 -0.32581118
v 0.08598523 0.27801940 -0.45896286
v -0.02707579 0.26862767 -0.32592118
v -0.13938065 0.23150924 -0.27675220
v -0.01038579 0.01862767 0.27573881
v -0.01134579 0.28815767 -0.40784118
v -0.02707579 0.26853767 -0.32581118
v 0.19336475 0.30150139 -0.40069601
v 0.01979421 0.28817767 -0.36878118
v 0.00424245 0.27846852 -0.40065819
v -0.01144579 -0.32121232 0.40076882
v -0.01535579 -0.32130232 0.40073881
v -0.01144579 -0.32130232 0.40073881
v -0.01535579 -0.32121232 0.40076882
v -0.01925579 -0.32130232 0.40073881
v -0.01925579 -0.32121232 0.40076882
v 0.00027421 -0.32130232 0.40073881
v -0.00363579 -0.32121232 0.40076882
v -0.00753579 -0.32121232 0.40076882
v 0.00807421 -0.32121232 0.40076882
v 0.00807421 -0.32130232 0.40073881
v 0.03909421 -0.03605233 -0.36878118
v 0.03932421 -0.03606233 -0.36878118
v 0.03932421 -0.03605233 -0.36878118
v 0.09269098 -0.01412532 0.35000795
v 0.02760421 0.00299767 -0.37659118
v -0.01925579 0.01862767 0.27573881
v -0.02316579 0.01863767 0.27573881
v -0.01925579 0.01862767 0.27574882
v -0.01535579 0.01862767 0.27573881
v -0.03488579 0.20221765 -0.26717117
v 0.03932421 -0.32130232 0.40073881
v 0.03542421 -0.32121232 0.40076882
v 0.03542421 -0.32130232 0.40073881
v 0.03932421 -0.32121232 0.40076882
v 0.04323421 -0.32121232 0.40076882
v 0.04323421 -0.32130232 0.40073881
v -0.04269579 0.20221765 -0.26720119
v -0.05193276 0.29451916 -0.35813430
v 0.00350295 0.27885982 -0.35422072
v 0.00534078 0.23194423 -0.28728136
v 0.02760421 -0.32130232 0.40073881
v 0.02760421 -0.32121232 0.40076882
v 0.02370421 -0.32121232 0.40076882
v -0.02316579 0.26862767 -0.32599118
v -0.01535579 0.01862767 0.27574882
v 0.01971421 0.28815767 -0.39222118
v -0.01144579 0.28820768 -0.40784118
v -0.01144579 0.28820768 -0.41175118
v 0.02937066 0.28759000 -0.35313144
v 0.03151421 0.00291767 -0.37659118
v 0.03542421 0.00283767 -0.37659118
v 0.00807421 0.01862767 0.27573881
v 0.04161136 0.00289307 -0.37662539
v 0.04143179 0.00186695 -0.37642100
v -0.00753579 0.01861767 0.27573881
v -0.01144579 0.01862767 0.27573881
v -0.01144579 0.01862767 0.27574882
v 0.03151421 -0.32121232 0.40076882
v 0.03542421 -0.03598233 -0.36878118
v 0.03542421 -0.03605233 -0.36876118
v 0.03151421 0.00299767 -0.37661117
v -0.00363579 0.01862767 0.27573881
v -0.00363579 0.01861767 0.27573881
v -0.00116579 0.01862767 0.27573881
v -0.00753579 0.01862767 0.27572882
v 0.00417421 0.01862767 0.27573881
v 0.00417421 0.01862767 0.27574882
v 0.00807421 0.01862767 0.27575880
v 0.01198421 0.01862767 0.27577883
v -0.01005707 0.01128774 0.29395270
v 0.00027421 0.01862767 0.27573881
v -0.03047828 0.12883037 -0.08030553
v 0.01979421 -0.32121232 0.40076882
v -0.08795626 0.14242052 -0.40455964
v -0.03888245 0.18757252 -0.22927791
v 0.03151421 -0.03590233 -0.36878118
v 0.03151421 -0.02824233 -0.37031117
v 0.21440713 -0.33976987 0.40918896
v 0.04264653 0.11760893 -0.23439014
v 0.01198421 -0.32121232 0.40076882
v 0.01979421 0.28818768 -0.38440117
v 0.18996151 0.25331748 -0.48415300
v 0.04323421 -0.33293232 0.39774883
v 0.01979421 0.28816769 -0.36487117
v 0.01975421 0.28815767 -0.36878118
v 0.00004899 0.28218812 -0.35057899
v 0.01974421 0.28815767 -0.37269118
v 0.01974421 0.28815767 -0.37659118
v 0.01979421 0.28817767 -0.37659118
v 0.03742893 -0.34140551 0.39551395
v 0.03151421 -0.32130232 0.40073881
v 0.01979421 -0.32130232 0.40073881
v 0.10076207 -0.04259192 -0.18268757
v 0.69860607 0.09956490 0.08942146
v 0.01588421 -0.32121232 0.40076882
v 0.06271514 -0.11732178 -0.35305497
v -0.01524988 0.02483432 0.25844166
v 0.03136193 -0.03600728 -0.36875945
v 0.03151421 -0.02433233 -0.37110117
v 0.07951912 0.05583662 -0.21062633
v 0.03932421 0.00299767 -0.37664118
v 0.03993400 -0.03821381 -0.36836845
v 0.03082126 -0.01643688 -0.37269142
v 0.03151421 -0.01652233 -0.37267119
v 0.02760421 -0.01652233 -0.37265119
v 0.05495421 -0.03620233 -0.36878118
v 0.05495421 -0.03605233 -0.36881119
v 0.05885421 -0.03605233 -0.36881119
v 0.05885421 -0.02824233 -0.37037119
v 0.03542421 0.00299767 -0.37662119
v 0.02370421 -0.01629233 -0.37269118
v 0.05104421 -0.03605233 -0.36880118
v 0.04713421 -0.03605233 -0.36880118
v 0.05885421 -0.03622233 -0.36878118
v 0.15244567 0.15143852 -0.40789285
v 0.05104421 -0.03619233 -0.36878118
v 0.04713421 -0.03617233 -0.36878118
v 0.12076040 0.02931478 0.25075758
v -0.02831646 0.11117749 -0.10862678
v 0.04713421 -0.32130232 0.40073881
v 0.00575106 0.16531649 -0.46813577
v 0.01979421 0.28817767 -0.37269118
v 0.01978751 0.28820652 -0.41024590
v 0.07616807 -0.33709407 0.38870850
v 0.04323421 -0.03614233 -0.36878118
v 0.04713421 -0.32124826 0.40075684
v 0.04323421 -0.03605233 -0.36880118
v 0.06269471 -0.03612755 -0.36880517
v 0.07005271 -0.26331544 0.40842173
v 0.01688135 -0.28693271 0.40954363
v 0.10573421 0.12798765 -0.23206116
v 0.10573421 0.12409767 -0.23041119
v 0.10602421 0.12799767 -0.23206116
v 0.04624799 -0.01720098 -0.37257454
v 0.06399526 -0.17925102 0.34977219
v 0.14654151 -0.05472728 -0.36489642
v 0.04425422 0.19492522 -0.25953761
v 0.11267004 0.12379191 -0.00833560
v 0.15260422 0.15143766 -0.40783119
v 0.15039067 0.25947899 -0.19490436
v 0.12797409 -0.07522057 -0.36098245
v 0.12349913 -0.32071447 -0.39533210
v 0.11083467 -0.13696870 0.37954277
v 0.09357344 -0.04768525 -0.36651558
v 0.13423139 -0.05293402 -0.36519590
v 0.42131943 0.01432874 -0.09800754
v 0.14088421 -0.08293233 -0.35945117
v 0.07994428 0.03076079 -0.07893318
v 0.10648329 0.12820506 -0.23214266
v 0.13444661 -0.38438833 0.36740714
v 0.10651398 0.13997608 -0.23712830
v 0.05757899 0.14259200 -0.40469807
v 0.05454594 0.23788908 -0.21596776
v 0.04722917 0.23541409 -0.13716456
v 0.10102826 0.12792963 -0.23209049
v 0.10573421 0.12799767 -0.23206116
v 0.13698421 -0.07511234 -0.36097118
v 0.13698421 -0.07514233 -0.36097118
v 0.13307422 -0.07511234 -0.36097118
v 0.14870422 -0.07511234 -0.36096120
v 0.14479420 -0.07511234 -0.36096120
v 0.14479420 -0.07509233 -0.36097118
v 0.15651421 -0.07511234 -0.36095119
v 0.10182421 0.12788767 -0.23206116
v 0.11189824 0.11934905 -0.22820492
v 0.10448033 0.14323382 -0.19857304
v 0.16172791 0.14923146 -0.40466154
v 0.16041407 0.13583858 -0.12500466
v 0.14870422 0.14752766 -0.40475118
v 0.15260422 0.15143766 -0.40784118
v 0.15741545 0.15157084 -0.40661359
v 0.20606023 -0.38577190 -0.33400631
v 0.13209747 -0.07517761 -0.36097071
v 0.27683190 -0.04959318 0.40955189
v 0.14870422 -0.07507233 -0.36097118
v 0.15260422 -0.07511234 -0.36095119
v 0.15651421 0.15143766 -0.40682119
v 0.12995452 0.01846669 -0.09272097
v 0.17382443 0.15417115 -0.40544406
v 0.17819065 0.28503919 -0.31876385
v 0.16126755 -0.11262728 -0.35364389
v 0.20736578 0.11545438 -0.04532855
v 0.16864440 -0.03106244 -0.36942682
v 0.19475146 0.00697706 -0.11554757
v 0.08012584 0.16477843 -0.45967841
v 0.28376162 0.31045979 -0.46143562
v 0.38110387 -0.16820821 0.41020161
v 0.11464708 0.03453148 0.00313668
v 0.34298760 -0.34906498 -0.38067815
v 0.59937960 -0.43278059 0.39124447
v 0.23385902 -0.22380960 -0.36795861
v 0.19379334 0.25874290 -0.11982610
v 0.46408829 -0.38393757 0.42926559
v 0.47345459 -0.20012523 -0.34100121
v 0.24162565 0.06152864 -0.38675383
v 0.19773760 0.11405540 -0.22697495
v 0.30186245 0.31207210 -0.32528758
v 0.29477462 -0.03685347 -0.17904839
v 0.33661497 0.26197505 -0.47983181
v 0.31600514 0.19223227 -0.45650497
v 0.37917724 0.23293754 -0.09693740
v 0.42896172 0.25497842 -0.18072696
v 0.44802552 0.02057887 0.28917518
v 0.38474670 0.02362562 -0.05609597
v 0.54106742 -0.02757332 0.44101647
v 0.48127246 0.24074766 -0.06388866
v 0.40103069 0.06191061 -0.06315141
v 0.60961133 -0.29663208 0.48562312
v 0.30998966 -0.25446624 0.44510409
v 0.50422722 -0.27794325 -0.39053687
v 0.47292420 0.02251767 0.24839883
v 0.47278419 0.02252767 0.24839883
v 0.47292420 0.02194767 0.25620881
v 0.36665404 0.18952730 -0.40558457
v 0.37320828 0.28813517 -0.27748144
v 0.36944517 0.32577065 -0.46485180
v 0.46886861 0.02252769 0.25240365
v 0.48950160 -0.31936893 0.48693156
v 0.43781367 0.18088788 -0.10468151
v 0.43228528 0.08270920 -0.11391050
v 0.46901420 0.02252767 0.25227883
v 0.48231810 -0.23148102 0.47139990
v 0.46901420 0.02252767 0.25230882
v 0.40977940 -0.02696430 -0.17467965
v 0.47682419 0.02247767 0.24448884
v 0.47292420 0.02252767 0.24825881
v 0.46901420 0.02224767 0.25620881
v 0.47292420 0.02280767 0.24448884
v 0.45630461 0.02796048 0.18880489
v 0.45120814 0.09048378 0.01086640
v 0.46539974 0.29927760 -0.16091666
v 0.53088981 -0.02424638 -0.15069011
v 0.51018727 0.10993437 -0.18266083
v 0.57098329 0.07747751 0.08019574
v 0.51870859 0.18807584 -0.16290607
v 0.57448423 0.03815767 -0.04256118
v 0.56667423 0.03815767 -0.04651117
v 0.47626758 0.26388738 -0.19110265
v 0.60438454 0.10797534 -0.06356591
v 0.50913513 0.29262242 -0.12840375
v 0.60352176 0.40707189 -0.27939364
v 0.79190421 0.06549767 -0.23206116
v 0.50410253 0.33543888 -0.46266055
v 0.79389423 0.07721767 -0.23206116
v 0.60828996 -0.38297737 0.43103689
v 0.56667423 0.03476767 -0.04456118
v 0.56629717 0.03423449 -0.04445309
v 0.58706689 0.01161808 0.05263132
v 0.57053423 0.03815767 -0.04456118
v 0.57057422 0.03815767 -0.04454117
v 0.60620266 0.00735305 -0.00555655
v 0.57057422 0.03818767 -0.04456118
v 0.71802527 0.18068045 0.07336146
v 0.62328798 -0.38584498 0.35399616
v 0.54168892 0.00748815 -0.03994885
v 0.79322916 0.07310356 -0.23205052
v 0.71708584 -0.01903065 0.41751570
v 0.54302573 0.01122054 0.33560976
v 0.73220694 -0.34243643 0.45218340
v 0.73009890 0.19559491 -0.02107481
v 0.71002090 -0.43580556 -0.20272909
v 0.67252856 -0.34450662 -0.33695769
v 0.53212214 -0.07907411 0.45899484
v 0.67604423 -0.02824233 0.17411883
v 0.67604423 -0.03215233 0.17055883
v 0.67603421 -0.02824233 0.17417882
v 0.67611426 -0.03215233 0.17026883
v 0.63221091 -0.19562054 -0.30257219
v 0.67534709 -0.03629240 0.16840167
v 0.67594421 -0.02433233 0.17808881
v 0.74957871 -0.03520177 -0.25900581
v 0.67216522 0.02367886 0.31334621
v 0.70043963 0.07972084 0.00505510
v 0.60026538 0.19344044 0.05856675
v 0.64439344 0.40547684 -0.40107837
v 0.79323423 0.07721767 -0.23287117
v 0.64563322 -0.02259967 -0.04289557
v 0.64321637 -0.01532854 0.30925232
v 0.66771066 -0.04906389 0.34866425
v 0.47255537 0.28259262 -0.24538460
v 0.73912692 -0.38929942 -0.20990154
v 0.65179217 0.27883253 -0.41616887
v 0.63198835 0.27649257 -0.03314976
v 0.73524517 -0.19025369 -0.24596705
v 0.67761731 -0.41287687 -0.37895334
v 0.74244940 -0.41441330 0.48598292
v 0.78446549 -0.43026257 0.32667819
v 0.68427819 -0.26105779 -0.33620787
v 0.62719071 -0.20762764 0.44348431
v 0.74530923 -0.19460446 0.39192390
v 0.79566592 0.08090690 -0.23070732
v 0.67604393 -0.02811130 0.17423292
v 0.72224700 -0.42061737 -0.33303878
v 0.67688215 -0.02488421 0.06103227
v 0.69380331 0.00263853 0.10697535
v 0.67242825 -0.01802358 0.12150690
v 0.67390186 0.12400052 -0.06525785
v 0.70901990 0.27982602 0.02455985
v 0.84294283 -0.37428051 0.12776141
v 0.89641732 0.34312853 -0.04308424
v 0.80257481 0.16939540 0.20517530
v 0.78924334 0.06938243 -0.23611705
v 0.72650254 0.14834367 0.30726549
v 0.75289577 0.27538931 0.00365873
v 0.72532487 0.42075789 -0.22150008
v 0.72307825 0.43472880 -0.33468163
v 0.77525204 -0.23690915 -0.26529288
v 0.70419878 0.26472935 -0.33872569
v 0.81542319 0.07363129 0.39548102
v 0.73137206 -0.15318850 0.40921995
v 0.82449144 -0.19539212 0.27613622
v 0.74277741 -0.05143448 0.38309199
v 0.78991741 0.10881024 -0.24379431
v 0.79324442 0.07330771 -0.23206133
v 0.72197878 0.08617241 0.14698665
v 0.74541140 0.16342866 0.05076610
v 0.65267944 0.23634176 -0.14344750
v 0.80019766 0.38598678 -0.35781780
v 0.81534314 -0.38287297 -0.11655512
v 0.79506046 -0.38499072 0.34239843
v 0.83229423 -0.38371232 0.11121883
v 0.80935729 -0.19335647 -0.12557323
v 0.79324478 0.07330777 -0.23206177
v 0.78305608 0.01535245 0.36982793
v 0.78936422 0.06940766 -0.23597117
v 0.79814661 0.32597280 -0.06205741
v 0.83223420 -0.38371232 0.10776883
v 0.83229423 -0.38360232 0.10386882
v 0.79395080 -0.31866768 -0.25472179
v 0.90157187 0.32375595 -0.24426016
v 0.87689728 -0.33684206 0.01802187
v 0.87528437 -0.31332549 0.21710528
v 0.87526423 -0.31336233 0.21714883
v 0.87526852 -0.30933726 0.22095257
v 0.87519425 -0.30949232 0.22105883
v 0.85424840 0.06412905 0.38127410
v 0.82939160 -0.38591003 0.16934812
v 0.91475028 0.08825941 0.04697049
v 0.79042417 0.43916231 -0.28456843
v 0.83229423 -0.38366231 0.10776883
v 0.83627057 -0.37971932 0.08789252
v 0.83228236 -0.38380337 0.11699662
v 0.83878905 -0.27651894 0.35251170
v 0.83236426 -0.38371232 0.11558882
v 0.83214515 -0.38371289 0.10206473
v 0.83230424 -0.38371232 0.11167883
v 0.83229423 -0.38371232 0.11167883
v 0.82839584 -0.38639623 0.10668513
v 0.83302522 -0.19441274 0.02830584
v 0.67427826 -0.04240583 0.16713773
v 0.89187616 -0.26905271 0.18167233
v 0.82549977 -0.38649508 0.01018253
v 0.83208317 -0.36425808 0.30287486
v 0.87525421 -0.31340232 0.21714883
v 0.89781660 0.02410964 0.16688311
v 0.84430534 -0.02252473 0.34030053
v 0.82433623 -0.00479438 -0.17082965
v 0.81823421 0.04850652 -0.19494423
v 0.88045025 0.23281381 -0.14928110
v 0.91962844 0.10031665 0.35698679
v 0.83228266 0.17465088 0.30554610
v 0.89479423 0.37384766 -0.23597117
v 0.88495195 0.40357855 -0.17684861
v 0.87689674 -0.33798176 0.17730562
v 0.87526423 -0.31730232 0.21340881
v 0.87514424 -0.30558231 0.22495884
v 0.86239105 -0.28586322 -0.14075086
v 0.95432031 0.09403209 0.26149797
v 0.85256886 0.25272956 0.06773199
v 0.89145029 0.27047992 -0.23020273
v 0.89423424 0.36237767 -0.25159118
v 0.89480424 0.35455766 -0.25550118
v 0.89480209 0.35457191 -0.25550234
v 0.89472145 0.34976360 -0.25760424
v 0.87815940 -0.24170272 0.00467055
v 0.92029941 0.01428233 0.26832968
v 0.93998271 0.15183637 0.24952537
v 0.89560086 0.36804762 -0.23597248
v 0.89536422 0.35065767 -0.25550118
v 0.89479423 0.35846767 -0.25160119
v 0.89421421 0.35846767 -0.25550118
v 0.89479423 0.35847768 -0.25159118
v 0.89478421 0.36237767 -0.24769117
v 0.89479423 0.37018767 -0.23969117
v 0.89479423 0.37000766 -0.23987117
v 0.89479423 0.35846767 -0.25159118
v 0.89479423 0.36616766 -0.24378116
v 0.89479423 0.36627766 -0.24366117
v 0.89637423 0.36237767 -0.23597117
v 0.89477426 0.36627766 -0.24378116
v 0.89479423 0.36231768 -0.24769117
v 0.89644426 0.35455766 -0.24378116
v 0.89479423 0.36237767 -0.24763118
v 0.89476424 0.37018767 -0.23987117
v 0.89046890 0.38731527 -0.25300658
v 0.93571204 0.34939146 -0.20333047
v 0.97224510 0.07912981 0.16016154
v 0.93773997 0.19264986 0.17227769
v 0.95908147 0.22809355 -0.10320311
v 0.98220867 0.14976756 0.01950882
v 0.95968664 0.22535756 0.07369309
v 0.96725762 0.30998912 -0.07813097
f 2 18 1
f 2 1 6
f 5 4 2
f 5 2 20
f 20 2 6
f 1 18 28
f 18 2 4
f 6 1 17
f 4 5 27
f 8 5 20
f 17 1 10
f 6 17 9
f 27 5 8
f 20 6 19
f 12 7 38
f 7 11 3
f 7 12 11
f 17 10 52
f 1 28 10
f 20 19 51
f 3 38 7
f 47 12 38
f 10 24 52
f 9 17 61
f 30 36 31
f 32 30 31
f 33 34 35
f 34 50 35
f 38 46 47
f 39 3 11
f 39 21 3
f 54 40 13
f 13 14 41
f 42 43 44
f 14 25 41
f 25 15 41
f 40 14 13
f 6 9 53
f 36 6 53
f 33 43 34
f 13 41 27
f 42 31 34
f 31 43 34
f 43 42 34
f 43 31 42
f 57 37 44
f 37 42 44
f 19 6 36
f 45 42 31
f 57 33 35
f 20 58 29
f 29 8 20
f 42 32 31
f 11 12 39
f 3 62 38
f 46 38 22
f 28 24 10
f 57 19 37
f 45 50 34
f 33 57 44
f 42 45 43
f 36 30 19
f 32 42 37
f 19 30 37
f 36 45 31
f 43 45 34
f 43 33 44
f 30 32 37
f 36 50 45
f 82 27 8
f 40 25 14
f 51 19 16
f 20 51 16
f 3 21 62
f 60 62 21
f 24 47 23
f 53 9 61
f 17 52 61
f 36 53 59
f 13 27 54
f 8 29 82
f 57 35 50
f 55 57 50
f 16 19 57
f 16 58 20
f 22 64 26
f 26 46 22
f 60 69 62
f 39 70 21
f 23 47 63
f 24 23 52
f 28 18 12
f 28 12 47
f 53 48 59
f 61 56 53
f 49 4 27
f 86 50 36
f 55 50 86
f 74 36 59
f 57 55 16
f 64 22 38
f 46 26 81
f 70 39 71
f 65 23 63
f 48 56 67
f 18 4 12
f 24 28 47
f 65 56 23
f 48 53 56
f 52 23 56
f 61 52 56
f 49 66 4
f 15 27 41
f 15 49 27
f 54 66 49
f 40 49 25
f 54 49 40
f 49 15 25
f 58 76 29
f 76 58 16
f 78 62 69
f 69 60 78
f 70 60 21
f 4 39 12
f 72 374 73
f 74 59 67
f 82 54 27
f 84 76 16
f 64 81 26
f 38 62 79
f 109 47 46
f 109 46 81
f 39 4 66
f 71 66 82
f 82 66 54
f 36 74 100
f 100 86 36
f 62 78 79
f 78 60 70
f 71 39 66
f 67 56 65
f 100 74 67
f 16 55 86
f 344 88 374
f 89 90 91
f 89 92 90
f 76 84 151
f 78 102 79
f 102 38 79
f 96 94 97
f 109 81 80
f 102 78 70
f 71 121 70
f 47 120 63
f 99 95 98
f 135 65 63
f 128 86 127
f 100 127 86
f 76 83 29
f 132 107 108
f 65 223 67
f 97 94 110
f 94 98 109
f 80 81 85
f 80 95 110
f 96 98 94
f 94 109 80
f 99 98 96
f 110 95 99
f 95 47 109
f 110 94 80
f 95 109 98
f 99 97 110
f 96 97 99
f 47 95 120
f 113 114 115
f 114 112 115
f 223 111 67
f 101 116 126
f 100 67 111
f 116 101 75
f 128 16 86
f 76 151 83
f 111 123 101
f 80 120 95
f 123 111 112
f 111 223 112
f 126 100 101
f 113 75 123
f 100 111 101
f 126 116 124
f 116 123 124
f 75 101 123
f 114 113 123
f 112 114 123
f 112 137 115
f 137 126 125
f 113 115 124
f 115 125 124
f 125 115 137
f 123 116 75
f 123 75 124
f 75 113 124
f 125 126 124
f 100 126 137
f 127 100 137
f 129 128 127
f 128 131 16
f 84 16 131
f 89 91 344
f 81 64 85
f 70 121 138
f 136 438 389
f 223 137 112
f 129 127 223
f 223 127 137
f 139 140 141
f 139 87 140
f 131 128 129
f 166 131 129
f 119 143 130
f 84 131 133
f 133 103 84
f 103 119 117
f 103 117 84
f 117 119 130
f 119 103 143
f 133 131 143
f 103 133 143
f 143 131 130
f 144 145 146
f 145 144 147
f 121 71 154
f 64 38 102
f 154 71 82
f 129 223 149
f 149 166 129
f 146 145 150
f 117 151 84
f 117 130 152
f 130 131 152
f 151 117 152
f 131 151 152
f 135 63 120
f 173 80 85
f 102 70 138
f 183 120 80
f 321 155 156
f 173 85 167
f 183 80 173
f 157 158 159
f 160 161 162
f 163 160 162
f 149 227 166
f 198 166 227
f 154 82 194
f 242 29 83
f 158 187 168
f 169 170 171
f 159 160 172
f 159 172 163
f 174 219 175
f 176 169 177
f 173 167 178
f 180 121 154
f 102 507 64
f 161 187 167
f 85 64 507
f 172 160 163
f 161 168 187
f 158 168 159
f 194 82 29
f 170 181 171
f 163 175 176
f 175 163 174
f 190 182 177
f 182 176 177
f 171 190 177
f 181 190 171
f 173 178 190
f 157 159 163
f 168 161 160
f 163 172 174
f 158 168 160
f 159 158 160
f 159 168 158
f 176 175 182
f 172 162 174
f 162 219 174
f 167 85 161
f 182 175 170
f 219 181 170
f 182 170 169
f 176 182 169
f 175 219 170
f 161 219 162
f 187 157 167
f 163 167 157
f 187 158 157
f 177 169 171
f 172 163 162
f 167 163 176
f 167 176 178
f 182 190 178
f 176 182 178
f 183 262 120
f 181 212 190
f 188 201 189
f 191 184 161
f 192 193 197
f 193 200 198
f 192 200 193
f 227 193 198
f 192 197 195
f 202 192 195
f 193 227 197
f 227 241 197
f 192 202 203
f 200 192 203
f 199 200 203
f 199 198 200
f 199 203 202
f 199 195 198
f 195 199 202
f 197 198 195
f 204 185 205
f 206 184 191
f 185 83 240
f 212 201 188
f 185 242 83
f 83 151 240
f 186 191 181
f 240 151 87
f 207 87 208
f 244 179 147
f 270 87 151
f 209 274 210
f 131 270 151
f 213 189 214
f 181 191 161
f 186 215 206
f 219 184 186
f 219 161 184
f 184 206 215
f 219 186 181
f 213 190 189
f 85 216 161
f 181 249 212
f 217 218 236
f 212 249 201
f 184 215 186
f 102 138 248
f 186 206 191
f 220 214 237
f 214 249 237
f 196 190 212
f 248 138 121
f 196 189 190
f 189 196 188
f 188 196 212
f 248 121 180
f 224 225 232
f 149 223 261
f 29 242 194
f 263 227 149
f 197 241 198
f 230 225 231
f 242 204 232
f 140 87 234
f 235 144 146
f 229 218 217
f 229 233 218
f 217 221 228
f 232 205 240
f 221 217 236
f 225 205 232
f 181 161 249
f 201 249 214
f 189 201 214
f 161 216 249
f 190 213 237
f 213 220 237
f 225 230 205
f 221 236 183
f 213 214 220
f 183 173 228
f 237 222 190
f 173 233 228
f 236 218 233
f 229 228 221
f 222 237 249
f 228 229 217
f 229 228 233
f 236 222 183
f 190 222 173
f 228 229 221
f 183 228 221
f 204 224 232
f 231 224 204
f 149 261 263
f 230 231 204
f 185 204 242
f 205 185 240
f 230 204 205
f 224 231 225
f 242 232 240
f 166 198 241
f 244 118 235
f 118 144 235
f 210 274 270
f 132 108 245
f 132 141 246
f 208 247 108
f 234 87 207
f 222 236 233
f 233 173 222
f 262 183 222
f 262 226 120
f 120 226 135
f 278 252 253
f 323 135 226
f 323 65 135
f 254 255 256
f 257 258 259
f 257 260 258
f 251 154 194
f 257 259 264
f 258 265 259
f 258 260 265
f 241 227 263
f 263 307 241
f 132 139 141
f 179 240 87
f 118 244 147
f 147 87 211
f 338 131 166
f 145 269 150
f 269 145 147
f 146 150 132
f 269 147 211
f 150 269 211
f 87 147 179
f 245 209 210
f 245 247 209
f 118 147 144
f 179 244 132
f 165 271 272
f 271 273 272
f 208 87 247
f 87 274 247
f 247 274 209
f 132 244 235
f 507 102 477
f 276 277 256
f 102 248 477
f 248 180 148
f 278 279 252
f 239 65 323
f 154 281 297
f 278 255 254
f 261 223 238
f 238 223 65
f 211 139 132
f 87 139 211
f 194 409 283
f 274 87 270
f 242 409 194
f 235 146 132
f 132 246 107
f 246 207 107
f 150 211 132
f 108 247 245
f 132 210 270
f 166 241 338
f 241 266 338
f 132 240 179
f 234 207 246
f 338 270 131
f 141 234 246
f 141 140 234
f 132 245 210
f 107 208 108
f 107 207 208
f 373 270 338
f 252 279 285
f 276 256 286
f 256 255 286
f 297 287 288
f 248 148 477
f 290 304 291
f 292 281 278
f 254 292 278
f 180 154 297
f 277 293 256
f 293 254 256
f 278 154 251
f 294 252 285
f 252 294 253
f 287 295 292
f 295 281 292
f 286 253 294
f 276 286 294
f 286 255 253
f 285 279 296
f 278 281 154
f 293 298 254
f 298 293 277
f 276 294 285
f 288 292 298
f 288 287 292
f 288 298 277
f 298 292 254
f 296 276 285
f 255 278 253
f 276 296 297
f 297 288 277
f 297 277 276
f 297 281 295
f 297 295 287
f 194 267 265
f 261 238 263
f 299 282 280
f 307 263 308
f 216 85 507
f 65 239 238
f 270 373 132
f 263 238 308
f 259 265 267
f 280 300 299
f 267 264 259
f 194 260 251
f 260 283 251
f 283 260 301
f 257 301 260
f 264 267 301
f 267 283 301
f 300 280 338
f 260 194 265
f 301 257 264
f 267 194 283
f 251 283 409
f 300 338 266
f 318 241 307
f 132 373 240
f 373 302 240
f 105 243 344
f 384 303 374
f 216 222 249
f 304 321 305
f 262 222 322
f 296 279 278
f 324 297 296
f 278 324 296
f 262 323 226
f 280 306 338
f 266 410 300
f 241 318 266
f 240 456 242
f 309 310 311
f 425 312 313
f 344 316 317
f 319 344 317
f 268 90 92
f 320 88 344
f 320 268 88
f 222 216 322
f 322 470 262
f 297 324 180
f 507 485 216
f 282 428 280
f 278 409 324
f 280 435 306
f 278 251 409
f 325 326 327
f 326 465 327
f 307 308 407
f 299 300 454
f 409 242 456
f 331 328 329
f 300 410 454
f 332 333 165
f 335 337 334
f 488 318 489
f 340 92 89
f 458 330 271
f 334 375 341
f 335 334 341
f 314 104 344
f 315 320 344
f 268 302 373
f 304 290 216
f 346 347 348
f 346 321 347
f 321 346 349
f 350 349 346
f 155 351 352
f 216 290 322
f 353 156 155
f 304 305 291
f 465 326 354
f 326 355 354
f 347 321 156
f 345 353 465
f 353 345 156
f 437 356 357
f 356 358 357
f 275 324 409
f 355 313 354
f 361 362 363
f 362 405 363
f 363 364 361
f 310 306 365
f 331 309 311
f 483 299 454
f 366 367 368
f 473 407 308
f 369 370 465
f 370 369 371
f 328 372 329
f 311 365 375
f 311 310 365
f 337 335 341
f 334 337 373
f 372 328 306
f 331 329 309
f 331 311 375
f 305 321 349
f 338 306 328
f 310 372 306
f 310 309 372
f 376 377 378
f 377 465 378
f 331 338 328
f 329 372 309
f 266 318 410
f 375 338 331
f 334 373 338
f 379 341 375
f 379 337 341
f 380 363 405
f 363 380 364
f 338 375 334
f 488 410 318
f 307 407 489
f 362 323 405
f 239 323 362
f 240 302 314
f 104 105 344
f 381 344 319
f 489 318 307
f 243 382 340
f 382 243 383
f 106 373 421
f 373 106 268
f 104 383 105
f 268 383 104
f 314 268 104
f 340 89 344
f 385 386 389
f 304 216 321
f 291 350 465
f 350 291 349
f 465 322 290
f 290 291 465
f 465 352 327
f 350 346 348
f 465 350 348
f 351 325 327
f 291 305 349
f 156 345 347
f 347 345 348
f 345 465 348
f 321 325 351
f 289 376 378
f 352 351 327
f 321 351 155
f 353 352 465
f 353 155 352
f 321 425 355
f 180 324 431
f 390 339 405
f 432 364 391
f 409 530 250
f 431 324 275
f 326 325 355
f 323 262 478
f 364 380 391
f 392 391 380
f 356 394 134
f 356 395 394
f 432 361 364
f 396 385 360
f 239 362 432
f 405 392 380
f 435 280 428
f 432 362 361
f 397 398 399
f 432 397 399
f 339 400 432
f 390 400 339
f 397 390 398
f 397 400 390
f 398 405 399
f 400 397 432
f 392 405 339
f 391 392 339
f 432 391 339
f 401 402 387
f 398 390 405
f 387 403 404
f 403 405 404
f 406 399 405
f 432 406 401
f 432 399 406
f 405 402 406
f 402 401 406
f 432 401 387
f 239 432 453
f 473 308 238
f 394 411 412
f 411 394 395
f 385 389 275
f 365 306 375
f 306 414 375
f 314 456 240
f 416 164 165
f 316 164 416
f 268 382 383
f 271 330 273
f 425 93 418
f 273 381 272
f 243 340 344
f 333 416 165
f 416 333 317
f 316 416 317
f 343 72 419
f 72 343 420
f 91 315 344
f 375 421 379
f 379 373 337
f 373 379 421
f 374 106 421
f 105 383 243
f 330 314 344
f 303 384 73
f 91 284 315
f 91 90 284
f 284 90 268
f 88 106 374
f 268 106 88
f 284 320 315
f 268 320 284
f 165 272 332
f 272 381 332
f 268 314 302
f 382 92 340
f 268 92 382
f 423 344 422
f 374 303 73
f 420 374 72
f 164 424 165
f 465 408 378
f 408 289 378
f 376 426 377
f 425 427 312
f 465 354 415
f 354 313 415
f 425 376 289
f 216 485 321
f 289 427 425
f 325 321 355
f 355 425 313
f 425 426 376
f 408 427 289
f 312 415 313
f 377 426 393
f 465 377 393
f 322 465 464
f 321 485 425
f 430 408 465
f 430 427 408
f 430 312 427
f 415 430 465
f 312 430 415
f 404 405 453
f 432 404 453
f 368 426 425
f 262 470 478
f 250 396 360
f 438 136 439
f 440 438 439
f 441 442 443
f 394 412 134
f 442 469 444
f 388 436 250
f 445 386 385
f 446 438 440
f 389 438 446
f 469 447 448
f 282 299 513
f 463 431 449
f 402 405 403
f 387 402 403
f 446 440 275
f 447 451 452
f 275 389 446
f 409 360 275
f 385 275 360
f 396 445 385
f 250 445 396
f 469 434 136
f 434 439 136
f 434 412 275
f 404 432 387
f 453 405 323
f 323 359 453
f 434 275 440
f 412 433 275
f 439 434 440
f 409 250 360
f 93 455 461
f 455 418 461
f 418 93 461
f 389 386 388
f 386 436 388
f 445 436 386
f 456 487 409
f 306 435 414
f 375 414 472
f 422 344 420
f 374 421 384
f 73 419 72
f 314 330 458
f 164 423 424
f 423 164 316
f 273 330 381
f 330 344 381
f 381 319 332
f 319 333 332
f 422 424 423
f 343 419 165
f 165 457 343
f 457 420 343
f 423 316 344
f 424 457 165
f 457 424 422
f 419 384 165
f 73 384 419
f 333 319 317
f 344 374 420
f 314 458 165
f 457 422 420
f 165 458 271
f 437 357 460
f 448 462 469
f 462 134 469
f 449 441 443
f 93 425 459
f 425 485 459
f 443 449 444
f 449 442 444
f 442 449 443
f 393 367 465
f 455 370 371
f 448 447 452
f 369 366 371
f 367 369 465
f 366 369 367
f 452 451 437
f 180 477 148
f 370 455 461
f 357 462 460
f 358 462 357
f 466 467 468
f 412 411 433
f 412 434 134
f 431 451 441
f 434 469 134
f 366 425 371
f 469 442 447
f 463 449 443
f 463 479 431
f 451 442 441
f 442 451 447
f 449 431 441
f 444 463 443
f 469 136 389
f 478 359 323
f 465 370 461
f 437 433 395
f 469 250 530
f 437 431 433
f 431 275 433
f 395 433 411
f 358 356 134
f 462 358 134
f 460 462 448
f 460 448 452
f 437 460 452
f 437 395 356
f 431 437 451
f 513 299 483
f 445 250 436
f 530 409 487
f 421 375 384
f 487 456 520
f 483 454 501
f 501 454 410
f 488 501 410
f 336 520 456
f 456 314 336
f 384 375 472
f 165 384 336
f 368 425 366
f 464 465 461
f 461 459 464
f 459 461 455
f 425 418 455
f 459 455 93
f 425 455 371
f 464 470 322
f 368 367 393
f 426 368 393
f 463 444 479
f 469 389 250
f 389 388 250
f 444 469 479
f 479 469 530
f 239 453 238
f 238 523 473
f 467 500 468
f 407 473 489
f 414 486 472
f 314 165 336
f 468 500 484
f 491 468 484
f 466 468 491
f 122 480 471
f 122 492 480
f 459 485 464
f 482 493 122
f 493 492 122
f 477 180 526
f 494 476 480
f 516 482 495
f 496 482 497
f 482 471 497
f 476 516 479
f 479 530 518
f 516 498 518
f 523 238 453
f 490 467 499
f 467 414 500
f 467 490 414
f 531 484 500
f 500 414 435
f 531 500 435
f 486 491 484
f 499 467 466
f 486 484 531
f 414 490 486
f 490 491 486
f 491 499 466
f 491 490 499
f 531 472 486
f 501 503 483
f 504 502 530
f 505 474 450
f 501 488 503
f 503 488 489
f 502 506 514
f 487 520 450
f 470 464 544
f 494 492 493
f 510 471 153
f 511 510 153
f 482 508 493
f 508 494 493
f 518 498 153
f 498 511 153
f 479 518 480
f 518 153 471
f 431 479 516
f 495 497 510
f 497 495 496
f 482 496 495
f 482 516 508
f 516 495 511
f 497 471 510
f 180 431 516
f 508 476 494
f 476 479 480
f 471 480 518
f 508 516 476
f 510 511 495
f 482 122 471
f 480 492 494
f 516 511 498
f 509 359 478
f 483 523 513
f 450 520 514
f 505 450 506
f 435 428 531
f 474 502 504
f 523 483 503
f 503 519 513
f 523 503 473
f 512 505 506
f 512 474 505
f 502 474 512
f 474 504 450
f 504 487 450
f 502 512 506
f 473 503 489
f 520 336 417
f 526 180 516
f 282 533 428
f 282 513 533
f 503 513 517
f 504 530 487
f 514 549 530
f 530 502 514
f 519 503 475
f 472 531 515
f 417 336 142
f 475 503 527
f 549 514 520
f 514 506 450
f 342 417 142
f 384 142 336
f 693 591 649
f 384 515 142
f 384 472 515
f 485 413 464
f 544 464 413
f 544 522 470
f 470 522 478
f 529 526 516
f 518 530 516
f 533 513 519
f 513 523 539
f 517 513 539
f 523 453 539
f 527 503 517
f 521 417 342
f 342 142 515
f 507 477 524
f 524 477 526
f 516 530 529
f 428 533 531
f 359 509 540
f 453 359 540
f 535 549 520
f 535 520 417
f 536 527 517
f 535 417 521
f 515 531 532
f 532 342 515
f 532 521 342
f 485 528 413
f 509 478 522
f 533 519 481
f 535 521 534
f 475 527 537
f 551 521 532
f 517 539 542
f 531 533 559
f 536 517 542
f 537 527 536
f 521 551 534
f 559 533 481
f 509 522 598
f 453 540 538
f 532 531 550
f 568 531 559
f 550 531 568
f 519 475 481
f 544 557 522
f 546 547 548
f 453 564 539
f 475 537 481
f 453 538 564
f 544 413 528
f 526 529 545
f 68 507 524
f 529 530 549
f 509 598 540
f 481 537 555
f 537 573 555
f 535 534 578
f 542 573 536
f 566 573 554
f 534 551 578
f 537 536 573
f 551 532 77
f 485 580 528
f 524 526 545
f 545 68 524
f 558 556 546
f 556 547 546
f 547 558 546
f 547 556 558
f 567 559 481
f 560 546 593
f 561 547 546
f 564 538 552
f 552 556 547
f 547 556 548
f 556 558 548
f 558 556 552
f 562 552 538
f 564 552 563
f 552 547 563
f 547 561 563
f 558 562 548
f 562 558 552
f 562 538 548
f 540 593 538
f 568 559 567
f 615 550 568
f 565 554 542
f 555 573 542
f 573 555 542
f 573 542 554
f 541 575 554
f 532 550 615
f 77 578 551
f 553 557 544
f 553 544 528
f 529 549 603
f 565 542 539
f 563 561 560
f 561 546 560
f 560 593 564
f 563 560 564
f 546 548 593
f 593 548 538
f 570 481 555
f 555 573 570
f 643 549 535
f 77 532 615
f 553 528 580
f 557 624 522
f 645 598 522
f 507 68 654
f 507 654 485
f 583 539 564
f 592 593 540
f 590 481 570
f 574 590 570
f 541 554 565
f 566 554 575
f 566 575 573
f 603 545 529
f 597 68 545
f 543 553 580
f 574 572 590
f 603 549 643
f 582 572 581
f 581 584 585
f 580 485 589
f 583 564 593
f 582 590 572
f 587 574 571
f 585 587 571
f 582 585 586
f 578 617 535
f 617 643 535
f 575 541 618
f 545 603 623
f 645 522 624
f 540 598 592
f 590 612 481
f 567 481 612
f 565 539 569
f 572 584 581
f 586 585 571
f 539 583 569
f 590 582 586
f 582 581 585
f 572 574 587
f 584 572 587
f 584 587 585
f 574 586 571
f 77 615 576
f 570 573 595
f 573 639 595
f 639 573 575
f 575 618 639
f 652 576 615
f 578 77 610
f 596 68 620
f 596 616 68
f 543 557 553
f 557 543 624
f 586 612 590
f 599 600 601
f 600 599 602
f 592 613 593
f 609 565 569
f 568 567 652
f 609 541 565
f 685 605 601
f 652 615 568
f 578 610 617
f 610 77 576
f 620 68 597
f 525 580 589
f 622 525 589
f 545 623 597
f 580 525 621
f 579 611 626
f 654 68 616
f 567 612 652
f 629 612 586
f 629 583 631
f 685 600 604
f 583 631 569
f 586 574 608
f 586 608 629
f 609 569 631
f 627 630 602
f 570 595 574
f 609 618 541
f 612 632 652
f 640 576 652
f 580 594 543
f 621 594 580
f 592 598 645
f 613 631 583
f 485 654 589
f 593 613 583
f 685 631 613
f 613 605 685
f 613 630 605
f 601 627 599
f 630 627 605
f 627 601 605
f 604 602 630
f 604 600 602
f 627 602 599
f 601 600 685
f 607 613 614
f 631 583 629
f 608 574 595
f 629 632 612
f 609 633 618
f 609 631 429
f 641 610 576
f 620 628 596
f 622 589 655
f 620 597 628
f 543 594 624
f 624 625 645
f 613 592 614
f 659 614 647
f 607 614 659
f 631 630 429
f 629 608 632
f 638 650 613
f 429 630 650
f 595 632 608
f 603 643 606
f 652 632 595
f 429 633 609
f 633 639 618
f 617 610 653
f 653 610 641
f 576 640 641
f 596 628 616
f 616 628 597
f 622 621 525
f 597 623 664
f 664 616 597
f 624 594 625
f 642 623 603
f 603 619 642
f 619 603 606
f 592 645 647
f 592 647 614
f 651 429 650
f 651 588 429
f 659 644 607
f 595 639 651
f 651 639 588
f 429 588 633
f 639 633 588
f 640 653 641
f 621 622 655
f 621 655 594
f 642 664 623
f 606 692 619
f 658 649 591
f 658 611 649
f 637 611 658
f 607 638 613
f 638 607 644
f 577 660 591
f 606 637 577
f 692 577 591
f 636 651 650
f 636 638 696
f 652 595 661
f 640 674 653
f 662 680 663
f 654 616 664
f 683 680 662
f 655 688 594
f 645 625 646
f 594 678 625
f 678 646 625
f 668 669 670
f 645 691 647
f 637 648 611
f 658 660 637
f 693 692 591
f 649 611 579
f 579 658 649
f 577 637 660
f 649 658 626
f 693 649 626
f 637 606 648
f 611 648 626
f 658 579 626
f 658 591 660
f 692 606 577
f 626 648 693
f 651 704 595
f 645 646 691
f 638 644 696
f 648 606 643
f 652 661 640
f 683 662 656
f 662 663 675
f 675 663 634
f 663 680 676
f 634 672 677
f 656 662 675
f 677 679 634
f 656 681 682
f 680 687 676
f 683 687 680
f 589 687 683
f 677 682 679
f 683 682 677
f 663 676 634
f 683 677 672
f 681 675 634
f 681 656 675
f 672 589 683
f 683 656 682
f 682 681 679
f 681 634 679
f 672 688 655
f 654 666 687
f 654 664 702
f 688 678 594
f 702 664 642
f 702 642 619
f 657 702 619
f 654 687 589
f 688 689 670
f 619 692 657
f 684 657 692
f 659 647 691
f 710 657 684
f 673 684 692
f 691 644 659
f 644 691 671
f 693 648 694
f 693 694 692
f 696 644 671
f 636 704 651
f 694 648 643
f 705 617 653
f 694 643 617
f 669 668 667
f 686 667 700
f 687 666 676
f 699 672 634
f 699 686 700
f 670 669 701
f 669 686 701
f 689 667 668
f 666 699 634
f 689 668 670
f 688 699 700
f 666 654 702
f 655 589 672
f 667 689 700
f 689 688 700
f 699 688 672
f 688 701 686
f 630 613 650
f 701 688 670
f 678 688 686
f 678 686 646
f 710 702 657
f 604 630 685
f 710 684 646
f 673 690 684
f 691 646 684
f 630 631 685
f 684 690 691
f 636 650 638
f 635 640 661
f 695 696 671
f 636 733 704
f 705 694 617
f 674 640 698
f 646 686 710
f 676 666 634
f 669 667 686
f 699 666 686
f 666 702 710
f 710 686 666
f 671 691 695
f 673 692 694
f 595 704 661
f 712 696 695
f 731 713 697
f 709 714 665
f 661 704 736
f 665 705 653
f 715 716 717
f 709 716 708
f 716 709 730
f 665 731 705
f 708 716 715
f 718 706 730
f 713 720 719
f 716 706 717
f 706 716 730
f 715 717 721
f 653 730 709
f 722 723 724
f 665 653 709
f 665 707 721
f 709 708 714
f 706 718 726
f 726 665 721
f 717 726 721
f 726 717 706
f 707 715 721
f 708 715 707
f 728 718 722
f 718 725 722
f 726 718 728
f 714 707 665
f 707 714 708
f 718 730 725
f 729 720 725
f 665 726 727
f 724 713 731
f 731 665 727
f 726 728 727
f 727 722 724
f 727 728 722
f 697 713 719
f 720 729 719
f 731 727 724
f 698 730 674
f 723 713 724
f 730 653 674
f 730 697 729
f 720 723 725
f 725 730 729
f 697 730 731
f 697 719 729
f 730 698 731
f 720 713 723
f 722 725 723
f 640 635 698
f 711 695 691
f 711 691 690
f 711 703 695
f 673 694 735
f 690 673 732
f 636 696 733
f 712 695 703
f 712 733 696
f 694 705 734
f 736 704 733
f 736 635 661
f 635 737 698
f 731 698 737
f 711 732 703
f 711 690 732
f 732 733 703
f 733 712 703
f 731 734 705
f 635 736 737
f 731 737 734
f 735 732 673
f 733 735 736
f 735 733 732
f 734 735 694
f 735 734 737
f 737 736 735
f 59 48 67

