# https://github.com/mikedh/trimesh
v -0.78408372 -0.12415079 -0.33700603
v -0.68258411 -0.49059650 0.00497807
v -0.89233071 -0.17055041 -0.30227646
v -0.78068882 -0.15116736 -0.31666315
v -0.78250694 -0.12800598 -0.33308616
v -0.78400695 -0.12019598 -0.34089613
v -0.78388703 -0.12410597 -0.33699614
v -0.78409696 -0.12019598 -0.34094614
v -0.78434700 -0.12019598 -0.34089613
v -0.78409696 -0.12024598 -0.34089613
v -0.78409696 -0.11632597 -0.34480616
v -0.81168228 -0.11606800 -0.35321954
v -0.74867761 -0.10500497 -0.34730622
v -0.78423983 -0.11632242 -0.34479555
v -0.78387153 -0.11481248 -0.34625867
v -0.71769696 -0.23332597 0.32315385
v -0.70312542 -0.24474612 -0.17501129
v -0.70988697 -0.24723597 -0.16121615
v -0.71378702 -0.23738597 0.32244387
v -0.71769696 -0.23347597 0.32314387
v -0.71769696 -0.23349597 0.32315385
v -0.71378702 -0.23347597 0.31928387
v -0.69034696 -0.47175595 -0.00106615
v -0.71825498 -0.24741571 -0.15097836
v -0.71365535 -0.23314874 0.31899107
v -0.62829858 -0.54903495 0.06879627
v -0.70596069 -0.24912781 -0.16114898
v -0.71378702 -0.23342599 0.31924385
v -0.70236576 -0.24918008 -0.16500656
v -0.70243698 -0.24910598 -0.16511616
v -0.71770698 -0.23347597 0.32706386
v -0.70597696 -0.24908598 -0.16121615
v -0.69703841 -0.45652860 0.00975855
v -0.70122910 -0.24907218 -0.16654426
v -0.70594698 -0.24910598 -0.16121615
v -0.69042796 -0.47195709 0.00495140
v -0.69034696 -0.47225600 0.00674385
v -0.69034696 -0.47200602 0.00284385
v -0.69034696 -0.47175595 -0.00097615
v -0.69039881 -0.47162849 -0.00126729
v -0.68477058 -0.24611178 0.33426669
v -0.69380593 -0.18264569 0.31556475
v -0.67821497 -0.26375455 -0.15529850
v -0.62877464 -0.11953938 -0.36656588
v -0.71785605 -0.17275956 -0.28376940
v -0.59164530 -0.41604877 -0.09268531
v -0.62400931 -0.13582280 -0.35648611
v -0.62394696 -0.13191597 -0.36042613
v -0.62382740 -0.13581739 -0.35652930
v -0.62407172 -0.13190071 -0.36043495
v -0.62394696 -0.13972598 -0.35332614
v -0.62302589 -0.13173704 -0.36097437
v -0.62394696 -0.13579598 -0.35652614
v -0.53188294 -0.08032625 0.57430911
v -0.56284851 -0.11809359 -0.35612661
v -0.58445042 -0.28615260 0.17533745
v -0.51368159 -0.31954807 0.18679507
v -0.51454699 -0.32332596 0.18253385
v -0.51456696 -0.31946599 0.18643385
v -0.51644635 -0.31632927 0.18829089
v -0.49709687 -0.35993814 0.16339152
v -0.51433694 -0.33113596 0.17471385
v -0.51444697 -0.32722598 0.17862384
v -0.51434219 -0.33117166 0.17467599
v -0.51456696 -0.32332596 0.18252385
v -0.51457614 -0.32718563 0.17858884
v -0.51068807 -0.33147952 0.17652433
v -0.51456696 -0.32331598 0.18253385
v -0.51465696 -0.31941596 0.18643385
v -0.51476610 -0.32318541 0.18255004
v -0.49503699 -0.13972598 0.67310387
v -0.68906438 -0.19915420 -0.53999645
v -0.39721876 -0.48889855 0.06916962
v -0.49113700 -0.13582598 0.67294383
v -0.43633267 -0.30381733 -0.49317175
v -0.48976761 -0.28967023 -0.49696308
v -0.43644699 -0.30382600 -0.49324614
v -0.43644699 -0.30382600 -0.49714613
v -0.43644699 -0.30381596 -0.50105613
v -0.43644699 -0.30380598 -0.50496614
v -0.43651700 -0.30379599 -0.50496614
v -0.43648699 -0.30379599 -0.50886613
v -0.43644699 -0.30379599 -0.50886613
v -0.43654701 -0.30379599 -0.50105613
v -0.43658701 -0.30379599 -0.49714613
v -0.43644699 -0.30379599 -0.51277614
v -0.49824828 -0.18947469 0.68837309
v -0.46777698 -0.10066597 0.28018385
v -0.46771824 -0.10065132 0.28018707
v 0.53892320 -0.20628956 -0.24615791
v -0.49112698 -0.13972598 0.67471385
v -0.49113700 -0.13972598 0.67471385
v -0.48733699 -0.13582598 0.67471385
v -0.48720258 -0.13581972 0.67477155
v -0.49944100 -0.10686437 0.29520491
v -0.46776703 -0.10066483 0.27139226
v -0.46777698 -0.10066597 0.27628386
v -0.46791685 -0.09753500 0.65931648
v -0.46769699 -0.10064597 0.27237383
v -0.46769699 -0.10064597 0.27628386
v -0.45597699 -0.07413597 -0.56746614
v -0.45973700 -0.07332597 -0.55964613
v -0.43644699 -0.30130595 -0.48933616
v -0.43655473 -0.30382064 -0.49321756
v -0.42863700 -0.30547595 -0.50886613
v -0.43647221 -0.30378744 -0.51335311
v -0.40531835 -0.28723472 -0.66166818
v -0.45211700 -0.07332597 -0.56746614
v -0.45208856 -0.07332436 -0.56748194
v -0.46999952 -0.08186007 -0.58908617
v -0.45599699 -0.07332597 -0.56355613
v -0.44213223 -0.06735127 -0.54880446
v -0.44816700 -0.07248598 -0.56746614
v -0.45206699 -0.07331598 -0.56746614
v -0.45597699 -0.07331598 -0.56355613
v -0.45597699 -0.07332597 -0.56357616
v -0.42018032 -0.31646931 -0.58548778
v -0.33987442 -0.10743924 -0.37215576
v -0.43333480 -0.07649706 -0.59981799
v -0.43558735 -0.09450821 0.25184569
v -0.34647700 -0.44832596 0.14737384
v -0.36994031 -0.42222920 0.16315538
v -0.34659699 -0.44441596 0.15125385
v -0.34653699 -0.44441596 0.15128385
v -0.34659699 -0.44826594 0.14737384
v -0.43310654 -0.31624851 0.21897241
v -0.34678787 -0.44874510 0.14681415
v -0.34659699 -0.44050595 0.15500385
v -0.34662423 -0.44439101 0.15126531
v -0.33808830 -0.45082781 0.14858852
v -0.32316700 -0.27513599 -0.69246614
v -0.36481258 -0.31415406 -0.49593848
v -0.24651694 -0.09383792 -0.60490859
v -0.22539598 -0.82769692 -0.01622537
v -0.31972411 -0.45181990 0.15537988
v -0.32316700 -0.28035596 -0.68914616
v -0.32316700 -0.28128597 -0.68855613
v -0.31966773 -0.28593975 -0.68675023
v -0.32316700 -0.27644598 -0.69162613
v -0.30677825 -0.26510766 -0.70376873
v -0.29186362 -0.15521565 -0.42698151
v -0.29191700 -0.15151598 -0.43074614
v -0.29196066 -0.15523507 -0.42693746
v -0.10053699 0.46963400 0.10049385
v -0.10053699 0.46963400 0.10440385
v -0.16314626 -0.81549561 0.12260004
v -0.24867710 -0.41777605 -0.19612455
v -0.29208413 -0.16314445 -0.42143011
v -0.29226217 -0.15918536 -0.42287323
v -0.29164773 -0.15925413 -0.42292264
v -0.25792664 -0.16545992 -0.41068515
v -0.31698507 -0.17010981 -0.40319869
v -0.29162699 -0.15925598 -0.42292613
v -0.26050210 -0.17876783 -0.31753376
v -0.26066700 -0.18264599 -0.31355616
v -0.29191700 -0.15535598 -0.42682615
v -0.33070976 -0.12047283 -0.46596104
v -0.08763675 0.59894061 -0.30878201
v -0.21621297 -0.42448139 -0.19263034
v -0.22159700 -0.42488596 -0.19252616
v -0.22550699 -0.42516595 -0.19246615
v -0.26221657 -0.18799941 -0.30835375
v -0.26085123 -0.17811161 -0.31826949
v -0.26052138 -0.18266618 -0.31350648
v -0.26066700 -0.17886598 -0.31746614
v -0.16249491 -0.81542754 0.15162177
v -0.26090699 -0.18269597 -0.31355616
v -0.19979332 -0.15306352 0.51428962
v -0.24321358 -0.17325604 -0.31981599
v -0.10820699 0.50870401 -0.05574615
v -0.10831699 0.50879401 -0.05574615
v -0.10820699 0.50870401 -0.05964615
v -0.08436496 0.45776987 0.06565463
v -0.10053699 0.46963400 -0.04011615
v -0.21769699 -0.42488596 -0.19246615
v -0.22159700 -0.42503598 -0.19246615
v -0.22188610 -0.42955822 -0.19038892
v -0.21722700 -0.42488596 -0.19246615
v -0.21769699 -0.42489600 -0.19246615
v -0.08584679 -0.41236466 0.17456605
v -0.07954644 -0.23870319 -0.25358889
v -0.16318700 -0.81550598 0.12784384
v -0.10050700 0.46961403 0.00674385
v -0.16285504 -0.81551957 0.15852281
v -0.10831699 0.50879401 -0.04792615
v -0.10831699 0.50879401 -0.04402615
v -0.09218701 0.49697962 -0.03427026
v -0.10053699 0.46963400 0.00674385
v -0.10053699 0.46963400 0.01065385
v -0.09451134 0.46524286 0.11874526
v -0.21977095 -0.82610756 0.16416600
v -0.16312593 -0.81549740 0.13178203
v -0.16300699 -0.81547600 0.12393385
v -0.15380460 -0.81369412 0.11983138
v -0.16300699 -0.81547600 0.12784384
v -0.17081700 -0.81700599 0.13956384
v -0.16300699 -0.81550598 0.14368385
v -0.16289699 -0.81550598 0.15128385
v -0.16295698 -0.81550598 0.14737384
v -0.16300699 -0.81550598 0.14346385
v -0.16300699 -0.81551600 0.14737384
v -0.10050700 0.46961403 -0.02839615
v -0.10050700 0.46961403 0.05362385
v -0.10050700 0.46961403 0.05753385
v -0.09269699 -0.05371598 0.49112383
v -0.09269699 -0.05378598 0.48721385
v -0.16300699 -0.81552601 0.15128385
v -0.10395699 0.47354403 0.10147447
v -0.10053699 0.46963400 -0.01277615
v -0.10053699 0.46963400 -0.01667615
v -0.10050700 0.46961403 -0.01667615
v -0.10053699 0.46963400 -0.00496615
v -0.10053699 0.46963400 -0.00106615
v -0.10053699 0.46963400 -0.05964615
v -0.10053699 0.46963400 -0.06355615
v -0.10050700 0.46961403 -0.06355615
v -0.10050700 0.46961403 0.06534384
v -0.10053699 0.46963400 0.06534384
v -0.10050700 0.46961403 0.06143385
v -0.10050700 0.46961403 0.08487385
v -0.10050700 0.46961403 0.08096385
v -0.10053699 0.46963400 0.05362385
v -0.10050700 0.46961403 0.04971385
v -0.02628699 0.11418402 -0.07917615
v -0.02628699 0.11418402 -0.07527615
v -0.10831699 0.50879401 -0.00496615
v -0.10831699 0.50879401 -0.00106615
v -0.10820699 0.50870401 -0.07527615
v -0.10831699 0.50879401 -0.07136615
v -0.10831699 0.50879401 -0.07527615
v -0.10050700 0.46961403 -0.09480615
v -0.10053699 0.46963400 -0.09089615
v -0.10053723 0.46963468 -0.09497440
v -0.10050700 0.46961403 0.03409385
v -0.10053699 0.46963400 -0.05574615
v -0.03402700 0.09463402 -0.10261615
v -0.10050700 0.46961403 -0.01277615
v -0.10050700 0.46961403 0.10440385
v -0.10050700 0.46961403 0.10049385
v -0.10053699 0.46963400 -0.08308615
v -0.10053699 0.46963400 -0.07917615
v -0.10820699 0.50870401 0.00479385
v -0.10831699 0.50879401 0.00284385
v -0.10053699 0.46963400 -0.08699615
v -0.10053699 0.46963400 0.08487385
v -0.10053699 0.46963400 0.08096385
v -0.10050700 0.46961403 -0.06746615
v -0.10053699 0.46963400 -0.06746615
v -0.10053699 0.46963400 0.09659384
v -0.10053699 0.46963400 0.09268385
v -0.10820699 0.50870401 -0.02449615
v -0.10831699 0.50879401 -0.02058615
v -0.10831699 0.50879401 -0.02449615
v -0.10053699 0.46963400 0.03409385
v -0.10050700 0.46961403 0.03018385
v -0.10050700 0.46961403 0.03799385
v -0.10050700 0.46961403 0.01456385
v -0.10053699 0.46963400 0.01456385
v -0.10050700 0.46961403 0.01065385
v -0.10050700 0.46961403 -0.04402615
v -0.10053699 0.46963400 -0.04402615
v -0.10050700 0.46961403 0.04190385
v -0.10831699 0.50879401 -0.07917615
v -0.10820699 0.50870401 -0.08308615
v -0.10820699 0.50870401 -0.07917615
v -0.10820699 0.50870401 -0.05183615
v -0.10831699 0.50879401 -0.05183615
v -0.10820699 0.50870401 -0.04792615
v -0.10053699 0.46963400 -0.00886615
v -0.10053699 0.46963400 -0.03230615
v -0.10053699 0.46963400 -0.02839615
v -0.10050700 0.46961403 0.01846385
v -0.10053699 0.46963400 0.01846385
v -0.09218703 0.49697739 -0.10798324
v -0.10053743 0.46963471 0.10868758
v -0.10050700 0.46961403 0.10831385
v -0.09472699 -0.05379598 0.48331386
v -0.08014830 -0.03882240 0.46998557
v -0.02362425 0.11032026 -0.07414704
v -0.09659700 -0.05379598 0.48403385
v -0.02586222 0.13818637 -0.18675925
v -0.10050700 0.46961403 0.09268385
v -0.09364511 0.46459725 -0.10026359
v -0.09791012 0.48501965 -0.05134834
v -0.10053699 0.46963400 -0.02449615
v -0.10050700 0.46961403 -0.05574615
v -0.10050700 0.46961403 -0.05964615
v -0.10053699 0.46963400 -0.02058615
v -0.10053699 0.46963400 0.06143385
v -0.10053699 0.46963400 -0.03621615
v -0.10053699 0.46963400 0.05753385
v -0.10050700 0.46961403 0.02237385
v -0.10053699 0.46963400 0.02237385
v -0.09639525 0.49990603 -0.09460373
v -0.10053699 0.46963400 0.04971385
v -0.10053699 0.46963400 -0.05183615
v -0.10053699 0.46963400 -0.04792615
v -0.10053699 0.46963400 0.02628385
v -0.10050700 0.46961403 0.08878385
v -0.10050700 0.46961403 -0.07136615
v -0.10050700 0.46961403 -0.02449615
v -0.10053699 0.46963400 0.08878385
v -0.10050700 0.46961403 -0.04011615
v -0.10050700 0.46961403 -0.04792615
v -0.10050700 0.46961403 0.09659384
v -0.10053699 0.46963400 0.10831385
v -0.10053699 0.46963400 0.03799385
v -0.10831699 0.50879401 -0.04011615
v -0.10050700 0.46961403 -0.03230615
v -0.10053699 0.46963400 0.00284385
v -0.10050700 0.46961403 -0.00106615
v -0.10050700 0.46961403 -0.02058615
v -0.10050700 0.46961403 -0.07527615
v -0.04318909 -0.79246789 -0.14519304
v -0.10831699 0.50879401 -0.05964615
v -0.10831699 0.50879401 -0.06355615
v -0.10395699 0.47354403 -0.02083115
v -0.10831699 0.50879401 -0.08308615
v -0.10831699 0.50879401 -0.08699615
v -0.11176557 0.51999998 -0.00897765
v -0.10820699 0.50870401 -0.00106615
v -0.10820699 0.50870401 -0.00496615
v -0.10050700 0.46961403 -0.09089615
v -0.10050700 0.46961403 -0.08699615
v -0.10053699 0.46963400 -0.07527615
v -0.10053699 0.46963400 -0.07136615
v -0.10050700 0.46961403 0.07706385
v -0.10050700 0.46961403 -0.05183615
v -0.10050700 0.46961403 0.04581385
v -0.10053699 0.46963400 0.04581385
v -0.10050700 0.46961403 -0.08308615
v -0.10050700 0.46961403 -0.03621615
v -0.02286650 -0.78837329 0.12463834
v -0.04191699 -0.79207599 0.12924385
v -0.04610886 -0.79290032 0.13540359
v -0.05790465 -0.13981043 -0.31751916
v -0.13219775 -0.19538046 -0.27926198
v -0.05753699 -0.14743598 -0.30964613
v -0.05767247 -0.14363569 -0.31355768
v -0.09285699 -0.05379598 0.49503386
v -0.09992955 -0.05479319 0.48494136
v -0.02356700 0.11026402 -0.04964053
v -0.09282700 -0.05379598 0.49112383
v -0.09269546 -0.05379528 0.48720771
v -0.05271924 -0.79404366 0.16260682
v -0.10050700 0.46961403 -0.07917615
v -0.03402700 0.09463402 -0.09871615
v -0.02627699 0.11416402 -0.07527615
v 0.00191213 0.02077137 -0.31463331
v -0.03409699 0.09452402 -0.09871615
v -0.03409699 0.09452402 -0.09480615
v -0.02628699 0.11418402 -0.06746615
v -0.02628699 0.11418402 -0.07136615
v -0.02627699 0.11416402 -0.07136615
v -0.03409699 0.09452402 -0.09089615
v -0.03402700 0.09463402 -0.09480615
v -0.03402700 0.09463402 -0.09089615
v -0.05753699 -0.14360598 -0.31355616
v -0.05732352 -0.13971277 -0.31746927
v -0.01500624 0.04604515 -0.11533099
v -0.10050700 0.46961403 0.06924385
v -0.10050700 0.46961403 0.00284385
v -0.09443317 0.46517351 0.01511827
v -0.10820699 0.50870401 -0.06746615
v -0.10831699 0.50879401 -0.06746615
v -0.10820699 0.50870401 -0.07136615
v -0.10050700 0.46961403 -0.00496615
v -0.10820699 0.50870401 -0.04011615
v -0.10820699 0.50870401 -0.04402615
v -0.10820699 0.50870401 -0.08699615
v -0.10050700 0.46961403 -0.00886615
v -0.08436988 0.45770419 -0.03981693
v -0.10053699 0.46963400 0.07706385
v -0.10820699 0.50870401 -0.06355615
v -0.10050700 0.46961403 0.07315385
v -0.10053699 0.46963400 0.07315385
v -0.10053699 0.46963400 0.06924385
v -0.10053699 0.46963400 0.04190385
v -0.10820699 0.50870401 -0.03621615
v -0.10831699 0.50879401 -0.03621615
v -0.10831699 0.50879401 -0.03230615
v -0.10820699 0.50870401 -0.03230615
v -0.10831699 0.50879401 -0.01277615
v -0.10820699 0.50870401 -0.02839615
v -0.08453243 0.45793122 -0.07359440
v -0.10050700 0.46961403 0.02628385
v -0.10053699 0.46963400 0.03018385
v -0.10820699 0.50870401 -0.00886615
v -0.10831699 0.50879401 -0.00886615
v -0.10820699 0.50870401 -0.02058615
v -0.10820699 0.50870401 -0.01667615
v -0.10820699 0.50870401 -0.01277615
v -0.12142904 0.53034204 0.20582516
v -0.10831699 0.50879401 -0.01667615
v -0.10335319 0.52502769 -0.07031932
v -0.09685308 0.49546516 0.06970551
v -0.10831699 0.50879401 -0.02839615
v -0.09509104 0.49450675 0.02921869
v -0.04193699 -0.79207599 0.12784384
v -0.04198699 -0.79207599 0.12393385
v -0.04203838 -0.79207283 0.11887932
v -0.13356647 -0.43297711 -0.18636176
v 0.04007301 -0.77644598 -0.08308615
v -0.04191699 -0.79205596 0.12393385
v -0.04191699 -0.79204601 0.12003385
v 0.04008301 -0.77644598 -0.12214615
v 0.04008301 -0.77644598 -0.11824615
v 0.04036514 -0.77601016 0.10980421
v 0.03637540 -0.24913929 0.17075163
v -0.04617256 -0.17196448 0.76927686
v -0.05753699 -0.13977598 -0.31746614
v -0.05749333 -0.14365751 -0.31349415
v -0.04191699 -0.79206598 0.12784384
v 0.04007301 -0.77644598 -0.08699615
v -0.03185535 0.09782351 -0.02870572
v 0.04007301 -0.77644598 -0.07917615
v 0.04007301 -0.77644598 -0.07527615
v -0.09567028 -0.05405733 0.50157809
v 0.30182299 -0.47962597 -0.07917615
v -0.03409699 0.09452402 -0.07917615
v -0.03409699 0.09452402 -0.07527615
v -0.03402700 0.09463402 -0.07917615
v -0.00213828 -0.19642299 -0.34100357
v -0.02628699 0.11418402 -0.08699615
v -0.03409699 0.09452402 -0.08699615
v -0.03402700 0.09463402 -0.08699615
v -0.03409699 0.09452402 -0.08308615
v -0.03408749 0.09454047 -0.07460954
v -0.03355475 0.12153562 -0.09351742
v -0.07536541 0.37296283 -0.11948660
v -0.07802547 0.40915811 0.12790869
v 0.00036512 -0.78410137 -0.10015338
v 0.07527101 0.55161184 0.33483478
v 0.07526300 0.55164403 0.33487383
v 0.04011301 -0.77644598 -0.08699615
v -0.04122032 -0.79189473 0.09535499
v -0.03710852 -0.78510499 0.19891299
v 0.02642878 -0.77908063 -0.18559708
v 0.04011301 -0.77644598 -0.11042615
v 0.04011301 -0.77644598 -0.11433615
v 0.04008301 -0.77644598 -0.11042615
v -0.03402700 0.09463402 -0.08308615
v -0.01839102 0.05506272 -0.08223302
v 0.04008301 -0.77644598 -0.17292614
v 0.04009301 -0.77644598 -0.17683615
v 0.04011301 -0.77644598 -0.14558615
v 0.04008301 -0.77644598 -0.14558615
v 0.03229300 -0.77794600 -0.14167614
v 0.03229300 -0.77794600 -0.15339616
v 0.04008301 -0.77644598 -0.13386616
v 0.04008301 -0.77644598 -0.13777615
v -0.02627699 0.11416402 -0.09089615
v -0.02628699 0.11418402 -0.08308615
v -0.02627699 0.11416402 -0.08699615
v -0.02627699 0.11416402 -0.07917615
v -0.02627699 0.11416402 -0.08308615
v -0.02410120 0.15169357 0.26769173
v 0.05964300 -0.77251601 0.15518385
v 0.07526300 0.55162400 0.34268385
v 0.07490351 0.55584919 0.34402743
v 0.07526300 0.55166399 0.33878386
v -0.00582149 0.78058344 0.11251117
v 0.02448301 0.78996402 0.10049385
v 0.02057301 0.78824401 0.10440385
v 0.02831301 0.78995401 0.10440385
v 0.08818341 -0.76707143 0.15916578
v 0.07923011 -0.76864886 0.12480047
v 0.00813540 -0.77760172 -0.20901830
v 0.05987891 -0.77263242 -0.14728130
v 0.06013803 -0.77258533 -0.08317832
v -0.32991120 -0.26759273 -0.34956667
v 0.03502763 -0.77750260 -0.05988745
v 0.03620301 -0.24923597 0.17081384
v 0.04008301 -0.77644598 -0.12605615
v 0.04008301 -0.77644598 -0.12996615
v 0.04011301 -0.77644598 -0.12996615
v 0.04008301 -0.77644598 -0.14949615
v 0.04011301 -0.24519597 0.17123385
v 0.03620301 -0.24910598 0.17091385
v 0.03216078 -0.25319228 0.17079359
v 0.03229300 -0.25300595 0.17082386
v 0.05573301 -0.77328598 0.15909384
v 0.02903904 -0.25399524 0.17256024
v 0.05773104 -0.26711839 0.13962173
v 0.04008301 -0.77644598 -0.11433615
v 0.07924301 -0.76863599 0.12003385
v 0.07909807 -0.76862216 0.10296266
v 0.07917300 -0.76860601 0.10440385
v 0.04038082 -0.24102995 0.18312149
v 0.27186206 -0.01674966 -0.52846044
v 0.04007301 -0.77644598 -0.07136615
v 0.04008301 -0.77644598 -0.16121615
v 0.04008301 -0.77644598 -0.16511616
v -0.02360910 0.11030334 -0.10541990
v 0.04008301 -0.77644598 -0.10261615
v 0.04008301 -0.77644598 -0.10652615
v 0.03229410 0.78995740 -0.14178693
v 0.01804160 0.76251334 0.16300021
v 0.02839301 0.78995401 0.10448385
v 0.04011301 -0.77644598 -0.10261615
v 0.04011301 -0.77644598 -0.10652615
v 0.00886301 0.78652400 -0.13386616
v -0.19845618 0.73451358 -0.12975110
v 0.01276301 0.78995401 -0.12222615
v 0.01267910 0.78995657 -0.12211640
v 0.07815873 0.80805463 -0.10174672
v 0.02057301 0.78997403 -0.12996615
v 0.01667301 0.78997403 -0.12605615
v 0.02231301 0.78604400 0.11612385
v 0.03229300 0.78995401 0.10840385
v 0.04008301 -0.77644598 -0.09871615
v 0.04008301 -0.77644598 -0.09480615
v 0.04011301 -0.77644598 -0.17292614
v 0.04008301 -0.77644598 -0.16902615
v 0.04011301 -0.77644598 -0.07917615
v 0.04011301 -0.77644598 -0.08308615
v 0.04008301 -0.77644598 -0.15730615
v 0.04008301 -0.77644598 -0.15339616
v 0.04011301 -0.77644598 -0.07527615
v 0.04007301 -0.77644598 -0.09089615
v 0.05952300 -0.77254599 0.15518385
v 0.05964300 -0.77250600 0.15128385
v 0.05956558 -0.77251905 0.14976551
v 0.04392062 -0.77570516 -0.05797391
v 0.04011301 -0.77644598 -0.16511616
v 0.04011301 -0.77644598 -0.16121615
v 0.04011301 -0.77644598 -0.16902615
v 0.04008301 -0.77644598 -0.14167614
v 0.04011301 -0.77644598 -0.09871615
v 0.04011301 -0.77644598 -0.15730615
v 0.04011301 -0.77644598 -0.13386616
v 0.04011301 -0.77644598 -0.13777615
v 0.28605369 -0.12738907 0.11801486
v 0.03231301 -0.25300595 0.17081384
v 0.06547375 -0.77128053 0.11481743
v 0.07908301 -0.76863599 0.10831385
v 0.07913301 -0.76863599 0.11221385
v 0.08090416 -0.76809013 0.04354761
v 0.07917300 -0.76863599 0.11612385
v 0.07919301 -0.76863599 0.11612385
v 0.05963960 -0.77254295 0.16311166
v 0.04011301 -0.77644598 -0.14949615
v 0.05957301 -0.77254599 0.15909384
v 0.05964300 -0.77252597 0.15909384
v 0.27823442 -0.22949430 -0.53605115
v 0.04011301 -0.77644598 -0.14167614
v 0.04011301 -0.77644598 -0.12605615
v 0.04011301 -0.77644598 -0.09089615
v 0.03336869 -0.22119103 0.75288534
v 0.03998018 -0.21409325 0.75285476
v 0.04011301 -0.21406598 0.75284386
v 0.04021301 -0.21394597 0.75284386
v 0.04401300 -0.21004598 0.75280386
v 0.04376300 -0.21004598 0.75284386
v 0.04011301 -0.20222597 0.75459385
v 0.04011301 -0.77644598 -0.12214615
v 0.04011301 -0.77644598 -0.15339616
v 0.05963301 -0.77254599 0.16299385
v 0.04011301 -0.77644598 -0.11824615
v 0.25886300 0.06341402 0.34268385
v 0.02448102 0.78994864 -0.13400263
v 0.02448301 0.78997403 -0.13386616
v 0.07457301 0.55557400 0.33487383
v 0.02446533 0.78995401 0.10054620
v 0.03229300 0.78997403 -0.14167614
v 0.03610301 0.78995401 0.11221385
v 0.02839301 0.78996402 0.10440385
v 0.07917300 -0.76861602 0.10831385
v 0.02057301 0.78911400 -0.13386616
v 0.09164752 0.76053607 -0.28478464
v 0.02057301 0.78995401 -0.13006616
v 0.02047301 0.78995401 -0.12996615
v 0.01145117 0.78215051 -0.15632056
v 0.02839301 0.78911400 -0.14167614
v 0.02057301 0.78996402 0.09659384
v 0.03229300 0.78996402 0.10831385
v 0.04525676 0.79603446 -0.12710339
v 0.02839301 0.78997403 -0.13777615
v 0.01667301 0.78995401 -0.12614615
v 0.02839301 0.78995401 -0.13789615
v 0.02826301 0.78995401 -0.13777615
v -0.04098058 0.77309120 0.08701468
v 0.03220301 0.78995401 0.10831385
v 0.04011301 -0.77644598 -0.09480615
v 0.08267206 -0.76795053 0.10868345
v 0.07930301 -0.76863599 0.12393385
v 0.07917300 -0.76863599 0.11480385
v 0.07917300 -0.76864600 0.12003385
v 0.04792301 -0.21394597 0.75158387
v 0.04410231 -0.20982480 0.75282133
v -0.00613584 -0.10988403 -0.33741921
v -0.52944839 -0.09634637 0.01262547
v 0.07151289 -0.73393393 -0.17218494
v 0.39773563 -0.11493840 0.50774926
v 0.25944808 0.08841463 -0.32085857
v 0.05719464 -0.31158924 0.70505846
v 0.08372151 0.52682543 0.35094562
v 0.20807301 0.78214401 -0.20808615
v 0.20807301 0.78214401 -0.20417614
v 0.07526300 0.55166399 0.33487383
v 0.07526300 0.55163401 0.33878386
v 0.07200683 0.57617170 0.32773960
v 0.27447200 0.79385334 0.08491093
v 0.80181301 -0.48347598 -0.59480613
v 0.30182299 -0.47962597 -0.01277615
v 0.30182299 -0.47962597 -0.00886615
v 0.29686594 -0.52373618 -0.04513162
v 0.21191300 0.68838400 -0.30964613
v 0.20417300 0.68805403 -0.31355616
v 0.21973081 0.68819648 -0.30574808
v 0.21195441 0.68841207 -0.30962592
v 0.11280733 0.81299043 0.06323120
v 0.30182299 -0.47962597 -0.01667615
v 0.30183300 -0.47957596 -0.06746615
v 0.30344105 -0.46370992 -0.05764056
v 0.29008299 -0.50691599 -0.11042615
v 0.28078339 -0.47370154 -0.11913265
v 0.29011300 -0.50300598 -0.11037615
v 0.29013300 0.31729403 -0.27058616
v 0.29011300 0.31741402 -0.26667613
v 0.29013300 0.31729403 -0.26667613
v 0.24161583 0.07577482 0.37225139
v 0.19636302 0.68838400 -0.31743613
v 0.19633861 0.68836421 -0.31745470
v 0.21200489 0.68792909 -0.30963972
v 0.17412215 0.71516275 -0.32587963
v 0.27830839 0.65324074 -0.24975432
v 0.23151053 0.64498574 -0.23074540
v 0.27118209 -0.67703038 0.12918209
v 0.27829009 -0.23348826 -0.54010826
v 0.30183300 -0.47957596 0.01065385
v 0.30182299 -0.47962597 0.01456385
v 0.30182299 -0.47962597 0.01065385
v 0.29971573 -0.50042474 0.02035707
v 0.30183300 -0.47957596 0.01846385
v 0.30182299 -0.47962597 0.02237385
v 0.30182299 -0.47962597 0.01846385
v 0.23543812 -0.04210466 -0.46199861
v 0.23163301 -0.04207597 -0.46589613
v 0.30183300 -0.47957596 -0.03621615
v 0.30183300 -0.47957596 -0.03230615
v 0.23151301 -0.04597597 -0.46352613
v 0.23684300 -0.04597597 -0.45808616
v 0.08917829 -0.14873239 0.65330827
v 0.22900945 -0.04294571 -0.46802178
v 0.29013300 0.31729403 -0.27839613
v 0.20807055 0.78214395 -0.19636604
v 0.20801300 0.78213400 -0.19636616
v 0.27827302 0.65323400 -0.23933615
v 0.27827302 0.65323400 -0.24324615
v 0.27826300 0.65323400 -0.22371615
v 0.20800260 0.78213996 0.11923336
v 0.19636302 0.69229400 -0.31709617
v 0.18661541 0.77792585 -0.19007114
v 0.20807301 0.78214401 -0.22371615
v 0.20803300 0.78213400 -0.21980615
v 0.20807301 0.78214401 -0.21980615
v 0.20804301 0.78213400 -0.22371615
v 0.25237894 0.80150586 0.10075199
v 0.30183300 -0.47957596 0.03799385
v 0.30182299 -0.47962597 0.04190385
v 0.30182299 -0.47962597 0.03799385
v 0.29807708 -0.50943184 -0.10239828
v 0.30183300 -0.47957596 0.02237385
v 0.30183300 -0.47957596 0.06143385
v 0.30182299 -0.47962597 0.06534384
v 0.30182299 -0.47962597 -0.02058615
v 0.30183300 -0.47957596 0.01456385
v 0.27326864 -0.61673230 -0.12944882
v 0.30182299 -0.47962597 0.04971385
v 0.30182299 -0.47962597 0.05362385
v 0.30666989 -0.43188101 -0.00952962
v 0.26362243 -0.23972857 -0.53491068
v 0.30182299 -0.47962597 -0.00106615
v 0.30183300 -0.47957596 -0.00496615
v 0.30183300 -0.47957596 -0.00106615
v 0.24865714 -0.72969991 -0.17696059
v 0.28626475 -0.51063192 -0.11434422
v 0.25886503 0.07512029 -0.32126716
v 0.25655779 0.07689285 -0.32192916
v 0.24075857 -0.00512295 -0.48074985
v 0.27839300 -0.23347597 -0.54010612
v 0.27846301 -0.22957598 -0.53621614
v 0.27839300 -0.22958599 -0.53621614
v 0.26921362 -0.21492836 -0.52718407
v 0.23542300 -0.04213597 -0.46199614
v 0.23151301 -0.04226598 -0.46589613
v 0.30182299 -0.47962597 -0.06746615
v 0.30182299 -0.47962597 -0.06355615
v 0.26282337 0.07111579 -0.32180452
v 0.25886300 0.06642402 0.33096385
v 0.29013300 0.31729403 -0.24714616
v 0.29153776 0.30952269 -0.22228502
v 0.29013300 0.31729403 -0.29011613
v 0.29013300 0.31729403 -0.28621614
v 0.29011300 0.31741402 -0.25886613
v 0.29011300 0.31741402 -0.25496614
v 0.29011300 0.31741402 -0.27449614
v 0.29013300 0.31729403 -0.27449614
v 0.20807301 0.78215402 0.12393385
v 0.20807301 0.78215402 0.12784384
v 0.27496970 0.39538947 -0.26583904
v 0.20798302 0.78213400 0.13174385
v 0.20798302 0.78213400 0.12784384
v 0.29011300 0.31741402 -0.27839613
v 0.29011300 0.31741402 -0.28230616
v 0.20807301 0.78215402 0.12003385
v 0.20417300 0.68838400 -0.31352618
v 0.20798302 0.78213400 0.12393385
v 0.20802540 0.78214252 0.13236605
v 0.20807301 0.78214401 -0.21589616
v 0.20802300 0.78213400 -0.21199615
v 0.20807301 0.78214401 -0.21199615
v 0.20803300 0.78213400 -0.21589616
v 0.20807301 0.78214401 -0.22761616
v 0.27331361 0.77929330 -0.22975945
v 0.20801300 0.78213400 -0.20417614
v 0.20802300 0.78213400 -0.20808615
v 0.27448300 0.79386401 0.07315385
v 0.27448300 0.79386401 0.07706385
v 0.27445301 0.79385400 0.07706385
v 0.20801300 0.78213400 -0.20027615
v 0.27848300 -0.23347597 -0.54011613
v 0.30182299 -0.47962597 0.04581385
v 0.30183300 -0.47957596 0.03409385
v 0.30927804 -0.40616512 0.02992424
v 0.30182299 -0.47962597 -0.05964615
v 0.30183300 -0.47957596 -0.06355615
v 0.30182299 -0.47962597 -0.02449615
v 0.30183300 -0.47957596 -0.07136615
v 0.30183300 -0.47957596 -0.07527615
v 0.30182299 -0.47962597 -0.07136615
v 0.30183300 -0.47957596 0.04581385
v 0.30183300 -0.47957596 0.04190385
v 0.30182299 -0.47962597 -0.04011615
v 0.30182299 -0.47962597 -0.03621615
v 0.30182299 -0.47962597 0.03409385
v 0.27448300 -0.22957598 -0.53563613
v 0.30182299 -0.47962597 -0.05574615
v 0.27940229 -0.23537453 -0.54175729
v 0.30104300 -0.48738596 0.05753385
v 0.30182299 -0.47962597 0.05753385
v 0.30182299 -0.47962597 0.06143385
v 0.30183300 -0.47957596 -0.05964615
v 0.30183300 -0.47957596 -0.05574615
v 0.29011300 0.31741402 -0.24324615
v 0.29011300 0.31741402 -0.24714616
v 0.29011300 0.31741402 -0.26277614
v 0.34162030 -0.71782368 0.08390184
v 0.27396217 0.41710085 -0.22645693
v 0.25492594 0.06732668 0.34274924
v 0.25495300 0.06730402 0.34273386
v 0.26376504 0.06616726 0.30970290
v 0.32126302 -0.72175598 0.07706385
v 0.28470856 0.29065615 -0.33696833
v 0.35180047 0.03145518 -0.26765919
v 0.25496301 0.06730402 0.34268385
v 0.29011300 0.31741402 -0.28621614
v 0.36823300 0.06730402 -0.04011615
v 0.36657816 0.05759615 -0.03656854
v 0.25887096 0.07509829 -0.32144934
v 0.32156026 0.66218758 -0.23964143
v 0.20807301 0.78214401 -0.20027615
v 0.15703247 0.79361206 0.13305576
v 0.27827302 0.65323400 -0.24714616
v 0.27839300 0.65325403 -0.24714616
v 0.25817621 0.73214430 -0.28203169
v 0.27839300 0.65325403 -0.24324615
v 0.27839300 0.65325403 -0.23933615
v 0.30182299 -0.47962597 0.00674385
v 0.30183300 -0.47957596 0.00284385
v 0.30183300 -0.47957596 0.00674385
v 0.32127479 -0.72175205 0.06416326
v 0.30182299 -0.47962597 -0.02839615
v 0.30182299 -0.47962597 -0.03230615
v 0.30282411 -0.47180715 -0.09509953
v 0.30183300 -0.47957596 -0.08308615
v 0.29010299 -0.51082599 -0.11042615
v 0.29011300 -0.51157600 -0.11042615
v 0.29011300 -0.50691599 -0.11040615
v 0.29011300 -0.51082599 -0.11042615
v 0.30182299 -0.47962597 -0.05183615
v 0.30182299 -0.47962597 -0.04792615
v 0.30183300 -0.47957596 0.03018385
v 0.30182299 -0.47962597 0.03018385
v 0.32136300 -0.72175598 0.08487385
v 0.32136300 -0.72174597 0.08096385
v 0.32134300 -0.72175598 0.08487385
v 0.30183300 -0.47957596 -0.07917615
v 0.30182299 -0.47962597 -0.07527615
v 0.30183300 -0.47957596 0.05362385
v 0.30182299 -0.47962597 0.00284385
v 0.30183300 -0.47957596 -0.02449615
v 0.32136300 -0.72175598 0.08591385
v 0.29079464 -0.02666034 -0.41536885
v 0.31037623 0.01624344 -0.42264435
v 0.27827302 0.65323400 -0.23542614
v 0.28624299 0.00870402 -0.44246614
v 0.29011300 0.00878402 -0.43855616
v 0.29387301 0.00870402 -0.43464613
v 0.25893110 0.06334376 0.34267133
v 0.29011917 0.31737682 -0.29443425
v 0.29788831 0.00880957 -0.43061075
v 0.29383913 0.00863774 -0.43463933
v 0.26276299 0.07136402 -0.31746614
v 0.25888300 0.07510402 -0.32136613
v 0.26276299 0.07122402 -0.32136613
v 0.26276299 0.07120402 -0.32147613
v 0.25886300 0.06339402 0.34274387
v 0.29013300 0.31729403 -0.25886613
v 0.29013300 0.31729403 -0.25496614
v 0.29011300 0.31741402 -0.25105616
v 0.29011300 0.31741402 -0.27058616
v 0.29011300 0.31741402 -0.29011613
v 0.29013300 0.31729403 -0.29402614
v 0.29013300 0.31729403 -0.26277614
v 0.29013300 0.31729403 -0.28230616
v 0.30966300 0.46582404 -0.15144616
v 0.29013300 0.31729403 -0.25105616
v 0.29288819 0.30297384 -0.26794472
v 0.22537874 0.57472289 -0.30850282
v 0.29405737 0.00882719 -0.43453649
v 0.30969954 0.46576700 -0.15733044
v 0.30968300 0.46573403 -0.15730615
v 0.30964300 0.46563402 -0.15730615
v 0.30735299 0.46182403 -0.15730615
v 0.22758450 0.80554551 0.01803305
v 0.27443302 0.79385400 0.00674385
v 0.27448300 0.79386401 0.00674385
v 0.27448300 0.79386401 0.01846385
v 0.27443302 0.79385400 0.01846385
v 0.27443302 0.79385400 0.02237385
v 0.30136266 0.79889858 -0.09474213
v 0.27839300 0.65325403 -0.23542614
v 0.27839300 0.65325403 -0.23152615
v 0.27827302 0.65323400 -0.23152615
v 0.27826300 0.65323400 -0.22761616
v 0.27443302 0.79385400 0.02628385
v 0.27448300 0.79386401 0.02237385
v 0.27443302 0.79385400 0.04190385
v 0.27445301 0.79385400 0.07315385
v 0.27832800 0.65324402 -0.22176115
v 0.27839300 0.65325403 -0.22761616
v 0.27443302 0.79385400 0.05362385
v 0.27444300 0.79385400 0.05753385
v 0.32388186 0.78242385 0.13803735
v 0.27446300 0.79385400 0.08487385
v 0.27448300 0.79386401 0.03799385
v 0.27448300 0.79386401 0.04190385
v 0.27443302 0.79385400 0.03409385
v 0.27443302 0.79385400 0.03799385
v 0.27448300 0.79386401 0.01065385
v 0.27443302 0.79385400 0.01065385
v 0.27443302 0.79385400 0.01456385
v 0.27443302 0.79385400 0.03018385
v 0.25833917 0.79172111 -0.10356848
v 0.27448300 0.79386401 0.01456385
v 0.30183300 -0.47957596 -0.05183615
v 0.30183300 -0.47957596 -0.04792615
v 0.27448300 0.79386401 0.04581385
v 0.27448300 0.79386401 0.04971385
v 0.27448300 0.79386401 0.03018385
v 0.27448300 0.79386401 0.05362385
v 0.27448300 0.79386401 0.05753385
v 0.27444300 0.79385400 0.06143385
v 0.27448300 0.79386401 0.08096385
v 0.27446300 0.79385400 0.08096385
v 0.27443302 0.79385400 0.04581385
v 0.27443302 0.79385400 0.04971385
v 0.27448300 0.79386401 0.06534384
v 0.27448300 0.79386401 0.06924385
v 0.27445301 0.79385400 0.06924385
v 0.27444300 0.79385400 0.06534384
v 0.31966582 0.80108625 0.05804996
v 0.27448300 0.79386401 0.06143385
v 0.32136300 -0.72174597 0.07706385
v 0.32129300 -0.72175598 0.08096385
v 0.30183300 -0.47957596 0.05753385
v 0.32136300 -0.72173601 0.07315385
v 0.32136300 -0.72173601 0.06924385
v 0.30183300 -0.47957596 -0.01667615
v 0.30183300 -0.47957596 -0.02058615
v 0.30183300 -0.47957596 -0.04011615
v 0.32136300 -0.72173601 0.06534384
v 0.30182299 -0.47962597 -0.04402615
v 0.30183300 -0.47957596 0.02628385
v 0.32125300 -0.72175598 0.06924385
v 0.32125300 -0.72175598 0.07315385
v 0.30182299 -0.47962597 -0.00496615
v 0.30183300 -0.47957596 -0.00886615
v 0.30183300 -0.47957596 -0.04402615
v 0.30618995 -0.44347024 0.08754886
v 0.30182299 -0.47962597 0.02628385
v 0.30183300 -0.47957596 0.04971385
v 0.30183300 -0.47957596 -0.01277615
v 0.37847257 -0.69376034 -0.00955874
v 0.30183300 -0.47957596 -0.02839615
v 0.30494779 -0.72483635 0.08709106
v 0.08616132 -0.26518506 -0.66985464
v 0.30547830 -0.23560266 -0.53093833
v 0.33545300 -0.05769598 -0.24324615
v 0.34089300 -0.05380598 -0.23542614
v 0.34090781 -0.05379116 -0.23542525
v 0.34090301 -0.05379598 -0.23933615
v 0.35851911 -0.03989501 -0.23151748
v 0.34676084 -0.05361770 -0.17640401
v 0.36823300 0.06730402 -0.02058615
v 0.36823300 0.06730402 -0.02449615
v 0.36823300 0.06731402 -0.02449615
v 0.33395895 -0.05929718 -0.29017308
v 0.29011527 0.00874646 -0.43853036
v 0.34089300 -0.05380598 -0.23933615
v 0.36823300 0.06730402 -0.05183615
v 0.36823300 0.06730402 -0.05574615
v 0.36823300 0.06731402 -0.05574615
v 0.28203481 0.04559150 -0.31128034
v 0.36823300 0.06730402 0.02237385
v 0.36823300 0.06730402 -0.07917615
v 0.36823300 0.06731402 -0.08308615
v 0.36823300 0.06731402 -0.07917615
v 0.36823300 0.06730402 -0.12214615
v 0.36823300 0.06731402 -0.12214615
v 0.36823300 0.06730402 -0.11824615
v 0.30392680 0.31360859 -0.19392093
v 0.30964300 0.46563402 -0.14754115
v 0.36823300 0.06730402 -0.08308615
v 0.36823300 0.06731402 -0.08699615
v 0.36823300 0.06730402 -0.03230615
v 0.36823300 0.06731402 -0.03621615
v 0.36823300 0.06731402 -0.03230615
v 0.29366618 0.47982675 -0.16272004
v 0.30794519 0.44139358 -0.04864812
v 0.30964300 0.46563402 -0.08699615
v 0.30968300 0.46573403 -0.09089615
v 0.30968300 0.46573403 -0.08699615
v 0.30968300 0.46573403 -0.12214615
v 0.30964300 0.46563402 -0.09089615
v 0.30964300 0.46563402 -0.15339616
v 0.30964300 0.46563402 -0.11824615
v 0.30968300 0.46573403 -0.11824615
v 0.30921295 0.46482706 -0.07183265
v 0.30964300 0.46563402 -0.09871615
v 0.30964300 0.46563402 -0.10261615
v 0.30968300 0.46573403 -0.10261615
v 0.30964300 0.46563402 -0.11433615
v 0.30968300 0.46573403 -0.11433615
v 0.30969158 0.46578264 -0.00892880
v 0.30964300 0.46563402 -0.08308615
v 0.30964300 0.46563402 -0.07917615
v 0.29836088 0.51555449 -0.09592662
v 0.30964300 0.46563402 -0.02254115
v 0.30964300 0.46563402 -0.09480615
v 0.30968300 0.46573403 -0.09480615
v 0.30968300 0.46573403 -0.11042615
v 0.30968300 0.46573403 -0.08308615
v 0.30964300 0.46563402 -0.12214615
v 0.30968300 0.46573403 -0.12605615
v 0.30967301 0.46577904 -0.14656365
v 0.30966300 0.46582404 -0.02254115
v 0.30968300 0.46573403 -0.02058615
v 0.30964300 0.46563402 -0.01667615
v 0.30740425 0.46182612 -0.09481362
v 0.30964300 0.46563402 -0.10652615
v 0.30964300 0.46563402 -0.11042615
v 0.30968300 0.46573403 -0.07917615
v 0.29915622 0.47967297 -0.00684629
v 0.30964300 0.46563402 -0.01277615
v 0.29107147 0.41968557 0.29437637
v 0.30966300 0.46582404 -0.02644615
v 0.30966300 0.46582404 -0.01472615
v 0.29933894 0.44836810 -0.14915508
v 0.30968300 0.46573403 -0.09871615
v 0.30968300 0.46573403 -0.10652615
v 0.30969608 0.46578994 -0.07138126
v 0.27448300 0.79386401 0.03409385
v 0.27448300 0.79386401 0.02628385
v 0.66507673 -0.30323043 -0.44290936
v 0.32710254 0.80300003 0.02284066
v 0.32526299 0.80156398 0.04190385
v 0.33307299 0.79314399 0.04581385
v 0.33134881 0.80421686 -0.02895099
v 0.33379301 0.79385400 0.03799385
v 0.34089300 -0.05380598 -0.27058616
v 0.28687361 -0.08454133 -0.27462885
v 0.34089300 -0.05380598 -0.25886613
v 0.34635299 -0.04988598 -0.23542614
v 0.34090301 -0.05379598 -0.26277614
v 0.34089300 -0.05380598 -0.26277614
v 0.34089300 -0.05380598 -0.26667613
v 0.34090301 -0.05379598 -0.26667613
v 0.34635299 -0.04988598 -0.26667613
v 0.34090301 -0.05379598 -0.27058616
v 0.36823300 0.06730402 0.00674385
v 0.36823300 0.06730402 -0.04792615
v 0.36823300 0.06731402 -0.05183615
v 0.36823300 0.06730402 -0.10652615
v 0.36823300 0.06730402 -0.11042615
v 0.36823300 0.06731402 -0.11042615
v 0.36823300 0.06730402 -0.03621615
v 0.36823300 0.06731402 -0.04011615
v 0.36823300 0.06731402 -0.10261615
v 0.36823300 0.06731402 -0.10652615
v 0.36823300 0.06730402 0.01846385
v 0.36823300 0.06731402 -0.11824615
v 0.36823300 0.06730402 -0.12996615
v 0.36823300 0.06731402 -0.13386616
v 0.36823300 0.06731402 -0.12996615
v 0.36823300 0.06730402 -0.07527615
v 0.36823300 0.06731402 -0.07527615
v 0.36823300 0.06730402 -0.07136615
v 0.36823300 0.06730402 0.00284385
v 0.36823300 0.06730402 0.03799385
v 0.36823300 0.06731402 0.03409385
v 0.36823300 0.06731402 0.03799385
v 0.36823300 0.06730402 -0.11433615
v 0.36823300 0.06730402 -0.08699615
v 0.36823300 0.06730402 -0.00886615
v 0.36823300 0.06731402 -0.11433615
v 0.36823300 0.06730402 -0.06746615
v 0.36823300 0.06730402 -0.06355615
v 0.36823300 0.06731402 -0.06746615
v 0.36823300 0.06730402 0.01065385
v 0.36823300 0.06730402 0.01456385
v 0.36823300 0.06731402 0.01065385
v 0.36823300 0.06730402 -0.00496615
v 0.36823300 0.06730402 -0.00106615
v 0.36823300 0.06731402 -0.00496615
v 0.36823300 0.06730402 -0.09480615
v 0.36537036 0.06232285 -0.11433480
v 0.36823300 0.06730402 -0.01277615
v 0.36823300 0.06731402 -0.01667615
v 0.36823300 0.06731402 -0.01277615
v 0.36823300 0.06730402 -0.01667615
v 0.36823300 0.06730402 -0.10261615
v 0.36823300 0.06731402 -0.06355615
v 0.36823300 0.06730402 0.03409385
v 0.36579299 0.06339402 0.03409385
v 0.36823300 0.06731402 0.00284385
v 0.36823300 0.06731402 0.01456385
v 0.36823300 0.06731402 0.01846385
v 0.36823300 0.06730402 -0.09089615
v 0.36823300 0.06731402 -0.09089615
v 0.36823300 0.06731402 -0.04402615
v 0.36823300 0.06730402 -0.04402615
v 0.36823300 0.06731402 -0.04792615
v 0.36823300 0.06730402 -0.05964615
v 0.36823300 0.06731402 -0.02839615
v 0.36823300 0.06731402 0.00674385
v 0.33762437 0.78931391 0.04198026
v 0.33698300 0.78996402 0.04190385
v 0.32917300 0.79776400 0.04180385
v 0.32913437 0.79776388 0.04199677
v 0.32526299 0.80020398 0.04971385
v 0.32917300 0.79774404 0.04190385
v 0.35538206 0.77184457 0.04082170
v 0.33307299 0.79385400 0.04189385
v 0.33307299 0.79385400 0.04190385
v 0.37377152 0.05294597 -0.09361917
v 0.36823300 0.06731402 -0.00106615
v 0.36823300 0.06730402 -0.02839615
v 0.36823300 0.06731402 -0.05964615
v 0.36823300 0.06731402 -0.09480615
v 0.36823300 0.06730402 0.03018385
v 0.36823300 0.06731402 0.03018385
v 0.37746605 0.04784908 0.00241086
v 0.36823300 0.06731402 -0.02058615
v 0.36823300 0.06730402 -0.09871615
v 0.36823300 0.06731402 -0.09871615
v 0.36823300 0.06731402 -0.12605615
v 0.36823300 0.06731402 -0.00886615
v 0.37086299 0.07120402 0.03799385
v 0.36823300 0.06731402 -0.07136615
v 0.37795636 0.08220223 -0.01132018
v 0.36823300 0.06731402 0.02237385
v 0.36823300 0.06730402 0.02628385
v 0.36823004 0.06728467 0.03801109
v 0.36823300 0.06730402 -0.12605615
v 0.36823300 0.06731402 0.02628385
v 0.37038097 0.06882639 0.04143529
v 0.40614530 -0.02535653 0.16223902
v 0.38360241 0.11170186 0.03617533
v 0.45026910 -0.04988337 0.18253209
v 0.25428337 -0.24636847 -0.16638854
v 0.38469058 0.10521304 -0.09018032
v 0.65730667 -0.31171009 -0.41510493
v 0.41352782 0.09197489 -0.15293320
v 0.45020920 -0.04975629 0.18258941
v 0.45026299 -0.04988598 0.18251385
v 0.45059144 -0.06468178 0.16818300
v 0.45721748 0.09176804 -0.13093455
v 0.50886303 0.09388402 -0.22761616
v 0.50104302 0.09472402 -0.22371615
v 0.51424390 -0.15207416 0.22096482
v 0.45840725 -0.07081290 0.18110417
v 0.65547305 -0.31550595 -0.41121614
v 0.45024532 -0.05376382 0.17847978
v 0.45003399 -0.05535407 0.17629538
v 0.45031300 -0.05379598 0.17862384
v 0.50507730 0.09463365 -0.22752449
v 0.50886303 0.09463402 -0.23151615
v 0.50495303 0.09468402 -0.22761616
v 0.50001431 0.09467001 -0.22236460
v 0.52595979 0.06163052 0.19532834
v 0.53229302 -0.21011598 -0.26277614
v 0.53229469 -0.21004528 -0.25875074
v 0.53230304 -0.21004598 -0.25886613
v 0.52446932 0.07118586 -0.12616184
v 0.51276302 0.07503402 -0.13386616
v 0.49109426 0.10069831 -0.24464439
v 0.50887799 0.09463397 -0.23153561
v 0.53816932 0.06816087 -0.10299891
v 0.51635081 0.07096753 -0.11652623
v 0.51667303 0.07123402 -0.11824615
v 0.52427304 0.07120402 -0.12605615
v 0.52057296 0.07120402 -0.12214615
v 0.52057296 0.07120402 -0.12215616
v 0.51686305 0.07120402 -0.11824615
v 0.53244305 -0.21004598 -0.26277614
v 0.53229302 -0.21018599 -0.26667613
v 0.51491040 -0.21924970 -0.25885424
v 0.59479302 -0.24129598 -0.41524613
v 0.60261303 -0.24910598 -0.41517618
v 0.59870303 -0.24519597 -0.41521615
v 0.53255945 -0.20990647 -0.25857854
v 0.60416901 -0.22809486 -0.28833401
v 0.56605589 -0.26593569 -0.55721134
v 0.56576765 -0.21345472 -0.41658252
v 0.55355775 -0.19809145 -0.28052646
v 0.59773296 -0.24129598 -0.40339613
v 0.59471560 -0.24106467 -0.41472924
v 0.59072918 -0.23330986 -0.39952439
v 0.58698303 -0.22967599 -0.39949614
v 0.59870529 -0.24517824 -0.41511610
v 0.65720302 -0.30379599 -0.42292613
v 0.61342436 -0.25951460 -0.40698060
v 0.59077132 -0.23334146 -0.39946917
v 0.59868878 -0.25331312 -0.44811723
v 0.59482300 -0.24129598 -0.41511613
v 0.65729302 -0.31160596 -0.41516614
v 0.65727305 -0.31160596 -0.41511613
v 0.65723306 -0.30769598 -0.41902614
v 0.59479302 -0.23738597 -0.39951614
v 0.59480292 -0.23738588 -0.39949614
v 0.59090304 -0.23347597 -0.39949614
v 0.56030065 0.08544219 -0.21570736
v 0.64698946 -0.22819069 -0.37675759
v 0.65729171 -0.30782276 -0.41905558
v 0.80203193 -0.48750228 -0.59117788
v 0.76893771 -0.46480644 -0.53907663
v 0.70605385 -0.38771802 -0.46425572
v 0.76667303 -0.43660596 0.56531388
v 0.76659691 -0.44790986 0.55339563
v 0.76675302 -0.44050595 0.56143385
v 0.76668304 -0.43660596 0.56534386
v 0.76667428 -0.43655175 0.56536126
v 0.78170973 -0.43790105 0.55970746
v 0.76667464 -0.44070375 0.56104088
v 0.76680303 -0.44441596 0.55753386
v 0.80183727 -0.49455932 -0.58788693
v 0.76825303 -0.43660596 0.56924385
v 0.80812275 -0.46867156 -0.62589675
v 0.80182296 -0.48729596 -0.59089613
v 0.80182135 -0.48730701 -0.59086931
v 0.80177301 -0.47957596 -0.59871614
v 0.80182302 -0.48348656 -0.59481561
v 0.87236893 -0.54657745 -0.63323045
f 72 45 3
f 3 4 12
f 6 7 13
f 8 9 10
f 1 5 7
f 12 72 3
f 11 8 6
f 9 1 10
f 10 7 6
f 3 45 4
f 14 8 11
f 8 10 6
f 9 8 14
f 12 9 14
f 12 1 9
f 11 6 15
f 14 11 15
f 13 4 45
f 12 4 1
f 13 7 5
f 1 4 5
f 4 13 5
f 1 7 10
f 15 14 13
f 12 14 15
f 15 13 14
f 12 15 13
f 19 25 42
f 21 16 20
f 21 20 22
f 13 15 6
f 17 18 24
f 20 16 28
f 22 20 28
f 21 41 31
f 22 28 25
f 19 22 25
f 46 26 2
f 18 32 27
f 17 30 32
f 27 29 43
f 42 25 28
f 28 16 42
f 19 21 22
f 42 41 19
f 21 19 41
f 16 31 42
f 21 31 16
f 42 31 41
f 35 29 27
f 12 13 72
f 36 37 33
f 2 38 23
f 38 39 23
f 23 39 40
f 33 2 26
f 38 37 36
f 36 33 40
f 33 592 46
f 592 33 26
f 592 24 43
f 24 27 43
f 29 30 34
f 30 35 32
f 29 35 30
f 29 34 43
f 34 30 17
f 17 24 45
f 18 17 32
f 32 35 27
f 24 18 27
f 43 34 17
f 24 592 45
f 72 13 45
f 2 23 40
f 38 36 39
f 26 46 592
f 46 2 40
f 46 40 33
f 37 2 33
f 39 36 40
f 37 38 2
f 46 592 43
f 45 46 43
f 45 43 17
f 51 55 49
f 45 44 55
f 48 50 53
f 48 52 50
f 50 47 53
f 51 44 45
f 48 49 52
f 47 51 49
f 55 51 45
f 49 55 52
f 52 44 50
f 44 51 47
f 44 47 50
f 53 47 49
f 48 53 49
f 72 45 44
f 44 45 55
f 44 52 55
f 72 44 55
f 592 56 42
f 57 58 126
f 57 59 58
f 56 592 61
f 72 471 45
f 168 87 42
f 42 87 54
f 45 118 55
f 66 62 63
f 62 66 64
f 65 70 66
f 67 61 126
f 68 70 65
f 60 69 57
f 65 58 68
f 65 63 58
f 63 65 66
f 592 46 61
f 66 56 64
f 64 67 62
f 66 70 56
f 126 60 57
f 126 58 63
f 63 67 126
f 67 63 62
f 67 64 61
f 61 64 56
f 69 70 68
f 59 68 58
f 45 471 46
f 68 59 69
f 70 60 56
f 69 60 70
f 57 69 59
f 60 126 56
f 42 56 126
f 42 41 168
f 72 117 76
f 42 168 41
f 95 42 168
f 54 71 74
f 54 87 71
f 54 74 98
f 133 72 55
f 75 77 78
f 80 132 79
f 81 82 80
f 82 83 80
f 81 80 79
f 84 81 79
f 77 85 78
f 83 82 86
f 88 95 89
f 89 95 168
f 91 92 93
f 98 74 94
f 74 71 91
f 42 95 96
f 97 95 88
f 592 42 96
f 92 87 94
f 93 92 94
f 74 91 93
f 74 93 94
f 71 92 91
f 87 92 71
f 87 98 94
f 96 97 99
f 99 97 100
f 96 99 120
f 99 100 120
f 100 97 88
f 100 88 89
f 97 96 95
f 168 42 54
f 72 112 102
f 103 104 75
f 117 105 106
f 85 84 78
f 84 79 78
f 77 75 104
f 76 103 471
f 104 103 76
f 471 103 132
f 117 72 107
f 106 86 82
f 77 104 85
f 105 80 83
f 85 104 76
f 132 80 105
f 106 82 76
f 117 106 76
f 82 81 76
f 75 132 103
f 76 81 84
f 76 84 85
f 110 72 102
f 109 101 108
f 96 120 592
f 89 120 100
f 119 110 109
f 111 110 102
f 110 101 109
f 113 112 119
f 118 133 55
f 120 89 168
f 54 98 168
f 119 109 113
f 98 87 168
f 72 110 119
f 108 114 115
f 113 114 108
f 111 115 116
f 109 114 113
f 115 102 112
f 115 111 102
f 109 108 114
f 116 101 111
f 101 110 111
f 116 115 114
f 114 108 116
f 113 108 112
f 108 115 112
f 108 101 116
f 72 133 112
f 61 46 73
f 122 61 73
f 61 122 126
f 105 86 106
f 105 83 86
f 132 105 117
f 78 79 132
f 75 78 132
f 119 112 133
f 73 46 134
f 127 130 121
f 123 121 124
f 125 121 123
f 107 899 117
f 117 899 132
f 133 72 119
f 127 129 122
f 135 124 121
f 129 123 124
f 127 122 73
f 129 127 125
f 128 124 135
f 128 129 124
f 129 125 123
f 122 129 128
f 130 135 121
f 73 130 127
f 135 122 128
f 168 592 120
f 121 125 127
f 130 73 134
f 180 135 134
f 180 126 122
f 135 130 134
f 126 180 42
f 131 136 137
f 107 131 137
f 137 138 107
f 139 131 140
f 139 138 136
f 107 138 899
f 136 138 137
f 140 131 107
f 138 139 140
f 107 72 133
f 133 140 107
f 141 142 143
f 142 157 143
f 118 157 133
f 208 144 145
f 122 135 180
f 140 899 138
f 471 132 899
f 148 152 151
f 150 149 148
f 150 148 153
f 143 152 149
f 156 149 150
f 142 141 151
f 152 471 151
f 156 150 153
f 141 156 153
f 153 148 151
f 157 142 151
f 152 148 149
f 143 157 152
f 143 149 156
f 151 141 153
f 141 143 156
f 471 152 151
f 118 471 151
f 151 152 157
f 157 118 133
f 133 151 157
f 181 147 46
f 46 147 134
f 181 46 471
f 140 133 899
f 154 169 164
f 155 165 154
f 151 471 423
f 162 167 164
f 167 163 165
f 155 164 167
f 155 167 165
f 165 163 154
f 169 162 164
f 154 164 155
f 471 163 162
f 169 154 163
f 162 181 471
f 169 181 162
f 162 163 167
f 471 118 163
f 118 169 163
f 118 151 133
f 170 171 172
f 160 175 176
f 177 179 178
f 179 175 178
f 629 180 134
f 177 161 176
f 159 175 160
f 176 175 179
f 177 176 179
f 176 161 160
f 177 134 147
f 177 147 161
f 161 147 160
f 402 134 177
f 177 178 159
f 159 178 175
f 159 160 147
f 181 159 147
f 191 146 182
f 118 181 169
f 157 151 133
f 185 186 395
f 398 188 189
f 193 194 195
f 437 134 191
f 191 182 192
f 159 402 177
f 196 197 191
f 402 159 181
f 166 198 199
f 197 200 199
f 200 194 199
f 489 42 180
f 181 337 1083
f 181 118 337
f 133 151 423
f 199 201 197
f 201 191 197
f 191 192 196
f 203 173 204
f 199 194 166
f 344 278 205
f 206 344 205
f 201 207 191
f 197 196 200
f 209 210 211
f 398 212 213
f 214 215 216
f 217 218 219
f 173 220 221
f 194 146 134
f 195 194 192
f 192 182 195
f 191 134 146
f 166 207 198
f 207 201 198
f 201 199 198
f 166 184 207
f 437 191 184
f 194 200 192
f 192 200 196
f 182 193 195
f 193 182 146
f 184 191 207
f 146 194 193
f 166 437 184
f 42 594 168
f 489 594 42
f 203 222 223
f 429 224 225
f 217 219 173
f 226 227 320
f 228 229 230
f 208 275 393
f 231 232 233
f 237 209 211
f 190 238 239
f 284 240 241
f 158 393 503
f 242 320 243
f 173 203 223
f 221 245 246
f 247 215 248
f 249 208 250
f 251 252 253
f 234 254 255
f 173 256 363
f 257 258 259
f 260 174 261
f 263 264 265
f 266 267 170
f 187 268 266
f 317 270 271
f 272 273 257
f 173 262 256
f 437 166 194
f 194 134 345
f 644 168 410
f 277 341 278
f 279 428 415
f 344 280 206
f 344 418 280
f 284 261 174
f 249 250 282
f 271 202 285
f 385 286 287
f 317 285 288
f 174 290 284
f 267 395 171
f 289 396 291
f 292 293 272
f 223 222 295
f 284 296 297
f 398 258 273
f 282 299 431
f 219 218 289
f 273 258 257
f 247 248 300
f 301 285 202
f 299 250 302
f 303 174 260
f 260 261 304
f 260 304 372
f 239 144 305
f 276 306 238
f 301 288 285
f 308 395 186
f 372 202 309
f 283 233 430
f 310 213 311
f 300 313 385
f 231 233 283
f 284 248 215
f 315 395 316
f 284 215 214
f 233 294 430
f 317 271 285
f 318 395 319
f 321 227 322
f 317 210 209
f 323 283 324
f 284 241 325
f 221 246 327
f 172 171 315
f 297 296 328
f 329 295 330
f 234 363 256
f 222 203 291
f 286 235 287
f 332 270 290
f 194 345 437
f 338 337 339
f 256 307 234
f 341 280 418
f 418 343 340
f 341 277 280
f 343 206 205
f 418 344 343
f 341 418 168
f 343 344 206
f 313 346 283
f 219 204 173
f 211 210 312
f 236 347 494
f 349 592 360
f 277 344 206
f 350 443 351
f 278 344 277
f 340 205 278
f 205 340 343
f 174 303 290
f 418 340 278
f 341 168 278
f 206 280 277
f 352 353 354
f 356 355 357
f 325 241 346
f 361 217 173
f 346 331 283
f 244 324 240
f 398 273 293
f 331 241 240
f 332 290 303
f 269 212 317
f 234 307 254
f 323 232 231
f 294 240 284
f 364 365 366
f 311 367 363
f 368 369 187
f 306 145 238
f 328 296 286
f 284 214 235
f 322 227 226
f 305 144 249
f 326 248 284
f 229 395 230
f 272 293 273
f 371 212 269
f 332 309 270
f 247 300 385
f 261 297 304
f 210 288 312
f 329 262 173
f 272 257 363
f 396 289 218
f 271 270 309
f 396 373 246
f 371 269 237
f 268 185 266
f 393 275 190
f 303 372 332
f 310 188 398
f 364 187 374
f 204 291 203
f 361 376 377
f 398 295 222
f 396 377 376
f 361 377 217
f 284 297 261
f 202 271 309
f 317 209 269
f 299 302 220
f 385 287 216
f 223 295 329
f 284 325 326
f 331 240 324
f 331 346 241
f 264 318 370
f 304 297 328
f 323 244 232
f 294 232 244
f 244 240 294
f 313 325 346
f 324 244 323
f 379 380 368
f 326 300 248
f 247 216 215
f 381 379 382
f 323 231 283
f 317 290 270
f 300 326 313
f 243 320 227
f 371 367 212
f 294 233 232
f 284 235 296
f 252 320 253
f 313 326 325
f 251 253 384
f 287 235 214
f 237 269 209
f 286 296 235
f 213 212 367
f 398 189 258
f 287 214 216
f 312 288 301
f 317 212 398
f 386 298 292
f 386 255 387
f 398 322 388
f 389 320 383
f 187 172 374
f 309 332 372
f 304 328 372
f 286 385 328
f 317 288 210
f 312 301 372
f 389 226 320
f 258 189 259
f 311 213 367
f 284 290 317
f 372 303 260
f 292 272 363
f 390 187 391
f 293 292 298
f 293 298 398
f 398 213 310
f 386 387 298
f 362 310 311
f 387 255 254
f 183 188 362
f 371 372 367
f 398 291 396
f 398 330 295
f 398 254 307
f 183 189 188
f 301 202 372
f 386 292 363
f 259 189 183
f 310 362 188
f 398 298 387
f 305 282 431
f 183 363 259
f 255 363 234
f 398 307 378
f 398 378 330
f 398 387 254
f 330 378 262
f 257 259 363
f 362 311 363
f 388 226 389
f 268 186 185
f 389 383 392
f 223 329 173
f 256 378 307
f 262 378 256
f 373 376 375
f 396 218 377
f 222 291 398
f 376 373 396
f 329 330 262
f 375 376 361
f 398 321 322
f 327 246 373
f 217 377 218
f 302 396 245
f 204 289 291
f 204 219 289
f 245 220 302
f 220 245 221
f 327 373 375
f 396 246 245
f 375 361 173
f 239 145 144
f 396 302 208
f 305 249 282
f 238 145 239
f 299 282 250
f 208 249 144
f 250 208 302
f 208 306 275
f 276 275 306
f 173 221 327
f 145 306 208
f 190 275 276
f 363 367 372
f 294 228 265
f 274 319 158
f 385 313 283
f 363 183 362
f 391 383 394
f 372 328 385
f 370 318 319
f 390 251 187
f 390 394 252
f 283 331 324
f 172 187 170
f 228 230 265
f 366 365 229
f 312 372 211
f 266 185 267
f 294 274 430
f 247 385 216
f 308 380 395
f 316 364 374
f 372 237 211
f 264 263 318
f 187 392 391
f 388 389 392
f 185 395 267
f 372 371 237
f 379 381 380
f 397 320 381
f 363 255 386
f 431 299 173
f 220 173 299
f 393 190 431
f 375 173 327
f 396 208 393
f 321 243 227
f 431 239 305
f 431 190 239
f 238 190 276
f 430 274 158
f 264 370 294
f 315 171 395
f 379 187 382
f 264 294 265
f 294 370 274
f 366 228 294
f 370 319 274
f 230 395 263
f 294 187 366
f 158 319 395
f 263 395 318
f 187 364 366
f 365 395 229
f 265 230 263
f 266 170 187
f 366 229 228
f 368 308 369
f 170 267 171
f 316 395 365
f 172 315 374
f 187 369 268
f 374 315 316
f 397 382 384
f 392 187 388
f 369 186 268
f 368 380 308
f 364 316 365
f 187 379 368
f 398 388 187
f 390 252 251
f 383 391 392
f 394 390 391
f 187 384 382
f 369 308 186
f 382 397 381
f 284 187 294
f 381 320 380
f 242 243 321
f 251 384 187
f 322 226 388
f 395 380 320
f 383 320 394
f 253 320 397
f 253 397 384
f 394 320 252
f 398 242 321
f 242 393 320
f 398 393 242
f 396 393 398
f 395 320 158
f 158 320 393
f 398 284 317
f 399 335 400
f 1083 134 402
f 402 181 1083
f 404 405 333
f 432 406 407
f 400 405 404
f 400 401 405
f 168 596 410
f 339 411 358
f 358 412 339
f 336 411 339
f 338 412 423
f 399 404 413
f 404 399 400
f 403 432 414
f 359 336 591
f 337 336 339
f 411 359 358
f 359 411 336
f 118 336 337
f 359 412 358
f 401 400 335
f 345 334 333
f 472 416 417
f 338 339 412
f 336 118 591
f 338 423 337
f 420 421 422
f 443 350 360
f 357 425 426
f 360 350 236
f 352 354 342
f 347 351 356
f 347 350 351
f 425 443 427
f 278 168 418
f 350 347 236
f 422 428 279
f 494 426 279
f 225 348 353
f 430 372 385
f 431 430 457
f 431 173 430
f 187 284 398
f 283 430 385
f 430 173 372
f 363 372 173
f 436 333 401
f 357 426 494
f 335 334 345
f 435 403 414
f 436 335 345
f 399 413 334
f 335 399 334
f 436 401 335
f 333 405 401
f 134 408 436
f 134 436 345
f 333 413 404
f 333 437 345
f 413 333 334
f 134 314 432
f 134 432 472
f 359 591 423
f 472 524 408
f 439 440 470
f 441 440 439
f 337 423 1083
f 168 594 592
f 427 443 420
f 412 359 423
f 442 427 420
f 426 442 279
f 415 428 443
f 444 438 445
f 446 447 448
f 447 446 449
f 360 236 494
f 443 421 420
f 353 348 354
f 348 279 354
f 450 448 451
f 442 420 422
f 347 356 494
f 443 457 415
f 429 494 452
f 421 428 422
f 442 422 279
f 356 357 494
f 453 424 454
f 225 224 455
f 426 427 442
f 443 428 421
f 351 443 355
f 351 355 356
f 355 443 425
f 357 355 425
f 425 427 426
f 360 494 281
f 453 429 424
f 453 454 456
f 454 279 456
f 424 452 454
f 452 279 454
f 281 494 429
f 494 279 452
f 225 455 348
f 455 279 348
f 279 342 354
f 429 452 424
f 429 353 352
f 453 456 224
f 224 456 455
f 456 279 455
f 352 342 429
f 457 429 342
f 429 225 353
f 224 429 453
f 429 457 281
f 281 457 430
f 461 459 460
f 503 570 158
f 464 465 564
f 408 134 472
f 468 134 593
f 134 468 314
f 593 134 1083
f 474 475 476
f 477 447 449
f 478 479 409
f 479 478 489
f 483 480 481
f 437 408 482
f 180 483 489
f 475 314 450
f 441 485 440
f 533 168 594
f 479 473 409
f 423 471 899
f 481 473 479
f 489 168 533
f 168 644 596
f 472 491 524
f 492 438 493
f 342 415 457
f 360 457 443
f 279 415 342
f 495 432 496
f 393 457 968
f 582 393 498
f 499 464 462
f 500 501 470
f 500 495 501
f 462 582 498
f 417 491 472
f 503 393 506
f 507 508 577
f 508 505 577
f 509 498 510
f 474 406 432
f 511 512 432
f 444 513 514
f 314 446 448
f 446 314 449
f 437 333 408
f 515 516 470
f 416 516 515
f 517 518 449
f 333 436 408
f 513 445 593
f 518 477 449
f 432 441 496
f 519 491 417
f 524 491 519
f 416 515 417
f 438 314 468
f 485 441 432
f 432 512 520
f 416 472 432
f 444 445 513
f 414 432 520
f 314 448 450
f 521 522 458
f 523 522 521
f 525 526 492
f 527 525 493
f 432 407 485
f 451 448 528
f 449 438 517
f 514 527 493
f 432 495 511
f 529 500 470
f 529 511 500
f 528 448 447
f 530 526 469
f 530 517 526
f 475 474 432
f 416 432 403
f 438 514 493
f 525 492 493
f 517 438 492
f 527 514 513
f 432 314 475
f 531 532 469
f 531 450 532
f 593 445 468
f 438 444 514
f 468 445 438
f 314 438 449
f 629 533 180
f 416 403 516
f 525 527 593
f 480 409 534
f 535 536 537
f 480 484 409
f 168 489 594
f 539 540 486
f 540 585 486
f 542 447 477
f 469 446 542
f 489 483 479
f 543 458 544
f 458 543 521
f 481 534 473
f 534 409 473
f 481 480 534
f 546 446 469
f 546 528 446
f 547 476 469
f 547 474 476
f 593 469 525
f 484 478 409
f 180 484 483
f 480 483 484
f 483 481 479
f 531 475 450
f 512 548 520
f 550 551 552
f 466 544 458
f 410 549 550
f 596 549 410
f 596 551 549
f 552 553 554
f 555 410 554
f 549 551 550
f 519 515 470
f 515 519 417
f 531 476 475
f 489 533 594
f 168 644 594
f 406 556 407
f 406 474 547
f 548 414 520
f 446 447 542
f 511 495 500
f 542 557 469
f 542 477 557
f 543 558 482
f 435 548 470
f 548 435 414
f 559 556 469
f 407 556 559
f 461 460 563
f 463 465 567
f 465 463 564
f 536 488 568
f 561 569 562
f 569 561 562
f 503 502 573
f 561 573 569
f 571 569 572
f 573 561 574
f 498 393 968
f 505 506 577
f 575 564 463
f 564 575 582
f 465 499 567
f 464 499 465
f 509 462 498
f 571 507 562
f 503 573 570
f 573 502 569
f 561 562 578
f 407 559 485
f 503 506 505
f 570 573 497
f 579 504 508
f 504 505 508
f 497 580 565
f 497 574 580
f 579 502 504
f 581 574 578
f 580 581 578
f 580 574 581
f 497 573 574
f 574 561 578
f 580 578 565
f 561 571 562
f 561 569 571
f 572 502 579
f 502 572 569
f 507 579 508
f 504 502 505
f 502 503 505
f 463 567 612
f 582 462 464
f 562 507 577
f 499 462 583
f 462 509 583
f 612 566 498
f 562 577 578
f 565 578 577
f 571 572 507
f 572 579 507
f 485 559 440
f 510 566 576
f 498 566 510
f 464 564 582
f 567 583 576
f 499 583 567
f 612 567 576
f 583 510 576
f 510 583 509
f 612 582 575
f 612 575 463
f 576 566 612
f 518 517 530
f 548 584 470
f 512 584 548
f 524 519 470
f 482 541 437
f 451 528 546
f 531 469 476
f 517 492 526
f 528 447 446
f 532 546 469
f 532 451 546
f 586 486 585
f 677 470 469
f 466 458 522
f 535 587 539
f 516 435 470
f 435 516 403
f 526 525 469
f 527 513 593
f 558 544 541
f 544 558 543
f 477 518 557
f 408 521 482
f 556 547 469
f 556 406 547
f 469 593 677
f 557 530 469
f 557 518 530
f 440 469 470
f 440 559 469
f 450 451 532
f 501 439 470
f 439 501 496
f 441 439 496
f 501 495 496
f 541 544 466
f 512 511 529
f 584 529 470
f 584 512 529
f 134 437 629
f 482 521 543
f 466 522 523
f 408 524 538
f 558 541 482
f 437 541 466
f 408 523 521
f 487 538 585
f 466 523 408
f 408 535 466
f 180 533 484
f 588 486 586
f 537 585 587
f 478 484 489
f 467 466 535
f 555 554 590
f 489 484 533
f 554 553 590
f 644 589 596
f 551 596 589
f 644 410 555
f 550 552 554
f 410 550 554
f 553 551 589
f 552 551 553
f 590 644 555
f 589 644 590
f 553 589 590
f 133 423 490
f 408 538 535
f 488 487 585
f 535 537 587
f 467 586 585
f 423 591 349
f 349 591 118
f 281 158 349
f 457 592 968
f 821 158 570
f 535 538 487
f 968 602 460
f 535 487 536
f 393 582 506
f 506 570 577
f 570 497 577
f 497 565 577
f 612 498 764
f 535 539 588
f 537 568 585
f 536 568 537
f 539 587 540
f 587 585 540
f 588 539 486
f 467 588 586
f 470 677 524
f 524 677 538
f 585 568 488
f 487 488 536
f 466 585 629
f 535 588 467
f 466 629 437
f 466 467 585
f 644 168 594
f 489 533 594
f 592 457 360
f 158 281 430
f 602 433 563
f 716 598 599
f 600 434 461
f 563 460 602
f 433 600 563
f 602 968 433
f 968 597 433
f 459 461 601
f 600 433 434
f 600 461 563
f 434 433 601
f 461 434 601
f 433 597 601
f 597 460 459
f 459 601 597
f 968 460 597
f 498 968 764
f 585 538 629
f 1149 604 1163
f 605 606 634
f 899 133 490
f 349 1083 423
f 360 281 349
f 608 625 609
f 767 610 611
f 613 605 634
f 616 617 618
f 619 620 621
f 611 625 608
f 625 611 610
f 506 856 570
f 624 609 821
f 538 677 629
f 631 632 633
f 635 636 637
f 490 423 1083
f 1083 423 899
f 681 639 638
f 640 672 641
f 654 647 648
f 649 628 650
f 626 821 570
f 624 653 623
f 626 653 624
f 655 656 657
f 656 655 658
f 874 603 846
f 660 661 662
f 636 635 664
f 635 726 664
f 892 666 665
f 607 667 613
f 631 726 668
f 677 898 629
f 634 670 671
f 674 675 676
f 634 633 632
f 682 683 684
f 686 643 638
f 645 642 687
f 632 637 634
f 645 639 681
f 795 643 490
f 681 490 645
f 688 614 689
f 820 694 695
f 696 702 697
f 646 698 699
f 659 700 701
f 764 703 704
f 821 610 767
f 702 705 706
f 821 626 624
f 609 623 708
f 710 701 703
f 652 764 709
f 968 710 764
f 711 712 713
f 711 714 712
f 767 570 716
f 715 655 716
f 658 655 715
f 598 717 599
f 718 717 598
f 655 657 716
f 647 856 716
f 506 827 856
f 764 827 612
f 719 720 874
f 719 721 720
f 717 718 654
f 710 968 659
f 599 717 722
f 682 630 723
f 634 724 670
f 660 725 726
f 660 662 725
f 727 689 728
f 726 635 668
f 635 637 668
f 730 731 615
f 730 732 731
f 734 726 733
f 735 736 607
f 634 737 662
f 739 607 727
f 899 673 1083
f 741 742 743
f 1083 349 984
f 630 740 723
f 645 687 639
f 686 642 643
f 739 744 745
f 744 615 745
f 639 686 638
f 490 642 645
f 681 638 795
f 687 638 686
f 638 642 686
f 642 638 687
f 639 687 686
f 746 747 702
f 748 620 702
f 680 679 595
f 757 752 751
f 968 753 622
f 694 758 695
f 679 680 761
f 594 968 622
f 700 709 704
f 598 713 718
f 610 821 625
f 1083 677 593
f 713 712 718
f 624 623 609
f 707 652 709
f 648 647 763
f 648 763 722
f 714 654 712
f 570 767 626
f 722 717 654
f 716 763 647
f 701 700 704
f 763 716 599
f 609 625 821
f 648 722 654
f 611 708 626
f 611 608 708
f 767 611 626
f 703 764 710
f 700 707 709
f 764 704 709
f 700 659 707
f 659 652 707
f 701 704 703
f 710 659 701
f 653 626 708
f 654 570 856
f 623 653 708
f 765 627 766
f 654 718 712
f 950 821 628
f 609 708 608
f 647 654 856
f 763 599 722
f 652 827 764
f 768 769 649
f 714 657 656
f 654 714 656
f 714 711 657
f 654 656 658
f 715 570 654
f 716 570 715
f 716 711 713
f 654 658 715
f 716 657 711
f 716 713 598
f 770 771 772
f 771 672 772
f 675 672 676
f 749 773 677
f 774 607 775
f 607 776 777
f 778 779 678
f 780 781 778
f 616 780 778
f 678 669 617
f 743 665 666
f 770 633 634
f 629 741 892
f 741 666 892
f 607 782 783
f 784 737 785
f 786 787 749
f 786 788 787
f 741 743 666
f 731 789 615
f 790 789 731
f 742 671 791
f 792 634 674
f 732 790 731
f 667 729 793
f 673 684 738
f 740 673 900
f 684 545 738
f 673 740 630
f 740 900 723
f 683 682 723
f 1083 673 900
f 900 683 723
f 684 630 682
f 684 673 630
f 545 900 685
f 683 900 545
f 685 673 738
f 738 545 685
f 673 685 900
f 545 684 683
f 678 617 616
f 642 490 643
f 1083 984 906
f 643 795 638
f 560 757 801
f 898 788 794
f 490 1083 795
f 649 797 628
f 911 798 795
f 799 800 822
f 595 679 916
f 820 755 802
f 490 916 690
f 595 490 680
f 916 679 805
f 801 753 594
f 622 691 751
f 806 807 679
f 809 560 801
f 808 806 761
f 761 806 679
f 622 809 801
f 594 622 801
f 691 757 751
f 807 805 679
f 808 761 690
f 807 806 808
f 924 693 702
f 622 751 809
f 752 560 809
f 691 801 757
f 807 808 690
f 690 805 807
f 690 761 680
f 805 690 916
f 680 490 690
f 622 753 691
f 757 560 752
f 752 809 751
f 801 691 753
f 810 697 811
f 697 702 812
f 924 702 750
f 813 698 702
f 802 814 815
f 816 696 810
f 820 646 699
f 706 705 817
f 748 702 696
f 755 702 802
f 620 748 621
f 814 758 694
f 811 812 819
f 747 812 702
f 817 705 646
f 820 802 815
f 820 621 816
f 693 820 692
f 820 819 692
f 702 758 814
f 620 813 702
f 702 814 802
f 702 706 758
f 698 705 702
f 393 431 457
f 755 821 702
f 821 755 158
f 702 821 750
f 774 775 641
f 825 823 824
f 750 821 931
f 768 766 762
f 659 827 652
f 582 612 506
f 830 831 832
f 856 981 833
f 768 649 650
f 821 767 762
f 834 835 836
f 834 797 769
f 651 628 837
f 797 649 769
f 762 766 627
f 827 506 612
f 838 839 832
f 721 841 659
f 821 762 627
f 650 628 765
f 765 628 627
f 821 627 628
f 842 651 843
f 836 628 797
f 844 827 845
f 659 603 847
f 874 848 849
f 850 827 851
f 856 827 828
f 829 981 828
f 852 853 854
f 838 827 855
f 978 857 830
f 783 858 859
f 874 860 861
f 855 850 862
f 863 864 874
f 845 864 863
f 865 864 845
f 866 847 603
f 867 847 866
f 831 830 857
f 840 849 848
f 868 869 860
f 659 847 867
f 827 868 840
f 720 866 874
f 866 720 867
f 870 871 874
f 871 870 872
f 870 873 872
f 872 841 871
f 871 719 874
f 841 719 871
f 719 841 721
f 867 720 721
f 866 603 874
f 603 659 846
f 659 968 846
f 754 876 877
f 876 787 877
f 770 634 792
f 725 784 726
f 784 725 737
f 607 689 727
f 637 632 668
f 726 878 791
f 876 754 879
f 614 688 730
f 879 880 749
f 605 613 881
f 632 631 668
f 613 882 881
f 615 640 883
f 640 736 883
f 662 737 725
f 858 783 782
f 885 783 859
f 607 688 689
f 663 1083 776
f 898 887 888
f 898 754 877
f 889 606 890
f 891 615 883
f 735 891 883
f 882 613 667
f 689 614 728
f 742 878 743
f 419 777 789
f 749 884 773
f 777 615 789
f 878 742 791
f 726 631 672
f 607 663 776
f 886 785 893
f 776 615 777
f 670 733 894
f 733 726 894
f 779 663 669
f 891 735 885
f 670 894 671
f 736 735 883
f 739 727 744
f 634 889 674
f 634 893 785
f 669 896 677
f 606 895 890
f 895 672 890
f 780 618 663
f 780 616 618
f 678 616 778
f 1083 617 677
f 780 663 781
f 779 781 663
f 779 778 781
f 663 607 669
f 726 886 664
f 886 893 664
f 779 669 678
f 790 607 419
f 729 897 793
f 897 672 793
f 669 677 617
f 896 669 607
f 891 885 859
f 615 891 859
f 792 674 676
f 739 782 607
f 729 774 897
f 665 878 726
f 892 665 726
f 894 726 791
f 671 894 791
f 607 777 419
f 792 676 771
f 676 672 771
f 670 724 733
f 617 663 618
f 885 735 607
f 636 634 637
f 672 882 793
f 882 667 793
f 636 893 634
f 895 606 605
f 629 634 741
f 787 876 749
f 1083 615 776
f 629 896 634
f 775 640 641
f 633 770 772
f 634 896 607
f 732 688 607
f 742 741 671
f 661 734 724
f 634 785 737
f 782 739 745
f 895 605 881
f 672 895 881
f 640 615 672
f 858 782 745
f 615 858 745
f 889 675 674
f 729 607 774
f 882 672 881
f 634 661 724
f 734 660 726
f 660 734 661
f 774 641 897
f 641 672 897
f 634 662 661
f 858 615 859
f 789 790 419
f 1083 663 617
f 741 634 671
f 732 607 790
f 614 730 615
f 729 667 607
f 607 613 634
f 688 732 730
f 727 728 744
f 728 615 744
f 783 885 607
f 607 736 775
f 886 784 785
f 614 615 728
f 724 734 733
f 675 889 890
f 672 675 890
f 743 878 665
f 736 640 775
f 672 631 772
f 631 633 772
f 770 792 771
f 606 889 634
f 726 784 886
f 893 636 664
f 615 1083 672
f 1083 533 726
f 892 726 533
f 629 892 533
f 672 1083 726
f 787 788 877
f 906 533 1083
f 899 1083 900
f 754 888 879
f 673 899 900
f 533 906 1083
f 749 876 879
f 901 902 903
f 902 904 903
f 907 908 909
f 907 1065 908
f 594 533 1080
f 795 1083 490
f 490 681 795
f 796 799 822
f 798 911 799
f 799 911 800
f 796 803 795
f 911 795 804
f 795 798 490
f 804 795 803
f 798 799 796
f 800 804 822
f 911 804 800
f 796 795 490
f 490 798 796
f 822 803 796
f 822 804 803
f 490 595 756
f 904 902 912
f 902 901 912
f 753 594 1103
f 753 1103 594
f 913 914 915
f 914 913 760
f 916 490 756
f 968 594 1103
f 755 756 595
f 755 595 349
f 918 919 920
f 621 748 816
f 820 811 819
f 746 702 693
f 921 922 923
f 1029 921 923
f 349 158 755
f 813 620 619
f 692 746 693
f 747 746 692
f 820 810 811
f 748 696 816
f 696 697 810
f 820 817 646
f 758 706 695
f 705 698 646
f 820 815 694
f 815 814 694
f 820 695 817
f 820 1084 755
f 820 619 621
f 924 1084 820
f 698 813 699
f 695 706 817
f 699 813 619
f 820 699 619
f 820 816 810
f 697 812 811
f 819 747 692
f 812 747 819
f 924 820 693
f 926 927 919
f 928 929 930
f 887 880 888
f 933 934 935
f 934 950 935
f 962 937 933
f 971 938 925
f 939 936 940
f 936 950 940
f 942 943 944
f 836 835 837
f 945 940 946
f 940 950 946
f 962 948 949
f 937 952 953
f 948 935 955
f 935 950 955
f 956 957 936
f 957 950 936
f 971 958 950
f 958 931 950
f 938 824 818
f 824 823 818
f 958 818 931
f 951 959 960
f 932 951 961
f 750 971 932
f 750 932 968
f 963 964 954
f 950 974 965
f 962 943 942
f 937 962 952
f 951 969 959
f 932 961 967
f 967 970 947
f 931 971 750
f 938 825 824
f 971 956 939
f 925 818 958
f 971 931 826
f 931 823 826
f 938 971 825
f 971 826 825
f 823 825 826
f 941 949 965
f 939 956 936
f 925 938 818
f 823 931 818
f 942 972 952
f 943 963 973
f 971 925 958
f 956 971 957
f 964 946 954
f 946 950 954
f 948 962 933
f 971 950 957
f 963 954 973
f 954 950 973
f 945 971 939
f 962 963 943
f 945 939 940
f 974 950 966
f 971 962 941
f 971 945 964
f 964 945 946
f 963 962 964
f 964 962 971
f 950 972 944
f 972 942 944
f 949 955 965
f 955 950 965
f 933 937 934
f 943 973 944
f 973 950 944
f 937 953 934
f 953 950 934
f 942 952 962
f 952 972 953
f 972 950 953
f 948 933 935
f 941 965 974
f 949 941 962
f 949 948 955
f 932 941 974
f 967 961 970
f 959 969 966
f 951 932 969
f 970 966 947
f 968 947 966
f 932 967 947
f 968 932 947
f 960 959 970
f 961 960 970
f 974 966 969
f 932 974 969
f 970 959 966
f 961 951 960
f 941 932 971
f 966 950 968
f 821 950 931
f 975 851 848
f 830 832 839
f 981 829 978
f 762 835 834
f 839 838 976
f 853 852 829
f 827 832 831
f 975 850 851
f 978 862 975
f 976 838 855
f 851 840 848
f 827 838 832
f 978 975 848
f 834 836 797
f 762 843 835
f 869 827 844
f 828 981 856
f 852 978 829
f 978 839 976
f 827 854 853
f 839 978 830
f 828 853 829
f 854 831 857
f 828 827 853
f 852 854 857
f 851 827 840
f 976 855 862
f 854 827 831
f 978 852 857
f 865 845 827
f 865 875 864
f 865 659 873
f 861 844 863
f 978 976 862
f 844 845 863
f 850 975 862
f 855 827 850
f 874 861 863
f 978 848 874
f 868 827 869
f 659 865 827
f 869 861 860
f 874 849 860
f 849 868 860
f 849 840 868
f 861 869 844
f 873 659 872
f 873 870 875
f 872 659 841
f 864 875 874
f 874 875 870
f 865 873 875
f 659 867 721
f 768 650 766
f 650 765 766
f 835 843 837
f 762 769 768
f 762 834 769
f 837 628 836
f 762 842 843
f 842 628 651
f 837 843 651
f 950 628 842
f 762 950 842
f 1052 979 874
f 1049 978 982
f 794 786 749
f 794 788 786
f 788 898 877
f 898 677 773
f 898 794 629
f 794 749 629
f 888 754 898
f 880 879 888
f 773 884 887
f 749 880 884
f 898 773 887
f 884 880 887
f 905 912 901
f 905 985 756
f 905 984 985
f 756 983 910
f 912 905 986
f 904 912 986
f 985 987 756
f 988 989 990
f 910 989 988
f 910 984 349
f 987 988 990
f 984 905 901
f 992 983 991
f 983 756 991
f 983 989 910
f 992 989 983
f 988 985 984
f 988 987 985
f 989 992 990
f 910 988 984
f 905 906 903
f 760 913 994
f 913 995 994
f 986 903 904
f 996 997 998
f 996 1029 997
f 999 1000 929
f 1001 1002 1084
f 1080 1103 594
f 987 991 756
f 986 905 903
f 756 755 1084
f 1005 1029 1006
f 996 998 1002
f 1005 1006 1007
f 1008 1009 1010
f 1058 1008 1010
f 1012 1013 1014
f 926 1016 927
f 1016 926 1058
f 594 753 968
f 349 595 916
f 1029 1015 997
f 1015 1018 997
f 923 922 1004
f 1002 998 1084
f 1058 1019 1020
f 1019 1021 1020
f 1065 1022 1023
f 1022 1024 1023
f 1065 1025 1026
f 1025 1027 1026
f 1030 1031 1032
f 1034 1002 1001
f 1065 1030 1017
f 1030 1032 1017
f 1020 1021 1035
f 1036 1013 1012
f 1037 1036 1012
f 1065 1011 993
f 1011 1038 993
f 1003 1039 1040
f 1041 1042 1016
f 1058 1041 1016
f 759 1043 1000
f 1044 1045 1043
f 909 1047 1073
f 1084 919 927
f 993 1038 1048
f 999 759 1000
f 759 999 760
f 1030 1033 1031
f 1030 1065 1033
f 1065 1003 917
f 1003 1040 917
f 1065 999 928
f 999 929 928
f 968 592 594
f 924 968 1084
f 750 968 924
f 1049 982 1050
f 1051 1053 1052
f 1053 1051 1052
f 762 767 716
f 762 716 950
f 950 716 856
f 950 833 981
f 1051 1054 1056
f 1055 1049 980
f 1055 980 846
f 978 1056 982
f 833 950 856
f 978 874 979
f 981 978 950
f 1055 950 978
f 1056 1049 1050
f 1051 1052 1054
f 1049 1055 978
f 979 1051 978
f 1052 1051 979
f 1057 1056 1050
f 982 1057 1050
f 982 1056 1057
f 1053 1052 874
f 980 1054 1052
f 1051 1056 978
f 1056 1057 980
f 1057 1054 980
f 1057 1056 1054
f 980 1052 846
f 1053 846 1052
f 1053 874 846
f 1049 1056 980
f 629 749 896
f 896 749 677
f 1083 899 490
f 990 991 987
f 992 991 990
f 905 756 906
f 349 756 910
f 903 984 901
f 903 906 984
f 1044 994 1045
f 1044 760 994
f 1011 1059 1038
f 1060 930 1047
f 913 915 995
f 1046 1061 914
f 760 1046 914
f 1041 1028 1062
f 1028 1041 1029
f 756 349 916
f 1036 1063 1064
f 1036 1065 1063
f 907 909 1066
f 1061 1035 1084
f 1022 1048 1024
f 1067 1001 1068
f 1065 907 1033
f 907 1066 1033
f 1044 1043 759
f 760 1044 759
f 1007 1006 1086
f 908 1047 909
f 1028 1068 1062
f 1069 1007 1086
f 997 1018 998
f 995 915 1084
f 1046 1035 1061
f 1025 1017 1070
f 1025 1065 1017
f 1071 1014 1013
f 1019 1010 1072
f 1010 1019 1058
f 760 999 1065
f 1066 909 1073
f 917 1040 1074
f 1046 1020 1035
f 1020 1046 760
f 1074 1040 1081
f 1041 1062 1042
f 1010 1009 1072
f 1077 1007 1069
f 1015 923 1004
f 923 1015 1029
f 1015 1004 1018
f 1029 1086 1006
f 1084 1004 922
f 1029 1005 1077
f 1005 1007 1077
f 1086 1029 1058
f 1067 1034 1001
f 1067 1029 1034
f 1041 1058 1029
f 1008 918 920
f 918 1008 1058
f 1016 1042 927
f 1058 926 918
f 926 919 918
f 1043 1045 1073
f 1025 1070 1027
f 996 1002 1034
f 1029 996 1034
f 921 1069 922
f 1008 920 1009
f 921 1077 1069
f 921 1029 1077
f 1019 1072 1021
f 1058 1020 760
f 914 1061 915
f 1036 1064 1013
f 1036 1037 1065
f 1065 1060 908
f 1060 1047 908
f 1040 1039 1081
f 1060 928 930
f 1060 1065 928
f 1045 995 1084
f 1042 1062 1084
f 994 995 1045
f 1033 1066 1031
f 1029 1067 1028
f 1067 1068 1028
f 1076 1012 1014
f 915 1061 1084
f 1026 1027 1059
f 1003 1023 1039
f 1003 1065 1023
f 1000 1043 1073
f 1075 1074 1078
f 1022 993 1048
f 993 1022 1065
f 1075 917 1074
f 1075 1065 917
f 1017 1032 1070
f 1011 1026 1059
f 1011 1065 1026
f 1023 1024 1039
f 1076 1071 1079
f 1038 1059 1073
f 1047 930 1073
f 1076 1037 1012
f 1065 1075 1063
f 1075 1078 1063
f 1076 1079 1037
f 1063 1078 1064
f 1065 1037 1079
f 1070 1032 1073
f 1059 1027 1073
f 1071 1081 1079
f 1071 1076 1014
f 922 1086 1084
f 1018 1004 1084
f 998 1018 1084
f 1084 1086 756
f 922 1069 1086
f 1068 1001 1084
f 1021 1084 1035
f 930 929 1073
f 927 1042 1084
f 1072 1009 1084
f 1068 1084 1062
f 1021 1072 1084
f 1084 1009 920
f 919 1084 920
f 929 1000 1073
f 1039 1073 1081
f 1078 1074 1081
f 1064 1078 1081
f 1048 1038 1073
f 1031 1066 1073
f 1045 1084 1073
f 1027 1070 1073
f 1024 1048 1073
f 1032 1031 1073
f 1073 1084 1081
f 1071 1013 1064
f 1039 1024 1073
f 1071 1064 1081
f 1065 1079 1081
f 1084 968 1081
f 968 950 846
f 1055 846 950
f 1084 1058 1065
f 1084 1086 1058
f 1065 1058 760
f 1065 968 1084
f 1065 1081 968
f 594 968 1103
f 1086 490 756
f 533 1093 1080
f 1097 1096 1080
f 594 1103 968
f 756 490 1086
f 1091 1102 1145
f 533 1083 1125
f 1094 1089 1093
f 1094 1093 1103
f 1089 1098 1097
f 1098 1089 1094
f 1089 1080 1093
f 1097 1080 1089
f 1087 1088 1082
f 1088 1098 1082
f 1098 1088 1096
f 1087 1080 1096
f 1087 1096 1088
f 1094 1082 1098
f 1097 1098 1096
f 1082 1094 1087
f 1087 1094 1103
f 1080 1087 1103
f 1099 1091 1100
f 1110 1109 1101
f 1109 490 756
f 1099 1100 1101
f 1100 1110 1101
f 1109 756 1086
f 1086 1084 1090
f 1104 1105 1106
f 1120 1105 1104
f 1107 1145 1108
f 1109 1086 1102
f 906 756 490
f 1100 1091 1110
f 1086 1145 1102
f 1099 1092 1102
f 1091 1099 1102
f 1092 1109 1102
f 1109 1092 1101
f 1092 1099 1101
f 1145 1086 1090
f 1090 1112 1113
f 1114 1115 1107
f 1115 1114 1116
f 1084 1111 1090
f 1084 968 1103
f 1116 1090 1113
f 1118 1119 1104
f 1120 1083 906
f 1122 1137 1123
f 1104 1119 1120
f 1083 490 1126
f 90 1120 906
f 1083 1120 1128
f 1119 1118 1128
f 1124 1118 1106
f 1124 1106 1105
f 594 1103 1093
f 1115 1117 1112
f 1116 1117 1115
f 1112 1117 1113
f 1117 1116 1113
f 1115 1112 1111
f 1145 1109 1110
f 1090 1111 1112
f 1107 1115 1111
f 1110 1091 1145
f 490 1109 1145
f 1145 1090 1108
f 1114 1107 1108
f 1114 1108 1090
f 1116 1114 1090
f 1107 1111 1145
f 1119 1128 1120
f 1104 1106 1118
f 90 1128 1118
f 1126 490 1083
f 1124 90 1118
f 1120 90 1124
f 1105 1120 1124
f 594 533 1125
f 1126 1125 1083
f 1126 1083 1127
f 1125 1127 1083
f 1129 1130 1131
f 1132 1125 1136
f 1083 1146 1125
f 906 1128 90
f 906 1146 1128
f 1130 1121 1137
f 1146 490 1145
f 1103 1111 1084
f 1138 1121 1130
f 1129 1135 1130
f 1126 1135 1125
f 1122 1123 1133
f 1137 1121 1123
f 1127 1125 1132
f 1139 1140 1141
f 1130 1137 1127
f 1123 1138 1133
f 1121 1138 1123
f 1146 1135 1129
f 1129 1142 1143
f 1146 1129 1143
f 1141 1146 1134
f 1126 1127 1137
f 1143 1136 1125
f 1131 1132 1136
f 1133 1138 1130
f 1135 1133 1130
f 1130 1127 1131
f 1144 1131 1136
f 1127 1132 1131
f 1146 1143 1125
f 1142 1144 1143
f 1129 1131 1142
f 1142 1131 1144
f 1143 1144 1136
f 1083 1128 1146
f 1085 1147 977
f 594 1093 1103
f 1146 906 490
f 1135 1146 1125
f 1111 1103 1145
f 1146 977 1134
f 1133 1135 1122
f 1122 1135 1137
f 1135 1126 1137
f 1140 1095 1146
f 1140 1085 1095
f 533 594 1093
f 977 1150 1085
f 1139 1147 1085
f 1146 1145 1103
f 1085 1140 1139
f 1146 1141 1140
f 1095 1150 1146
f 1147 1134 977
f 1141 1134 1147
f 1085 1150 1095
f 1147 1139 1141
f 594 1103 1093
f 594 1125 1103
f 1125 1146 1103
f 977 1146 1150
f 1146 1150 1166
f 1155 1157 1151
f 1150 1146 1149
f 1153 1154 1151
f 1157 1153 1151
f 1160 1155 1154
f 1157 1155 1156
f 1157 1158 1153
f 1157 1152 1158
f 1157 1156 1152
f 1158 1152 1156
f 1151 1154 1155
f 1154 1153 1156
f 1155 1160 1156
f 1156 1153 1158
f 1156 1160 1154
f 1150 1149 1166
f 1166 1159 1161
f 1163 1162 1148
f 1159 1149 1163
f 1165 1161 1148
f 1163 604 1162
f 604 1165 1162
f 1146 1161 1149
f 1159 1166 1149
f 1148 1162 1165
f 1159 1163 1148
f 1164 1161 1165
f 1149 1164 604
f 1159 1148 1161
f 1161 1164 1149
f 604 1164 1165
f 1161 1146 1166
f 72 76 471
f 118 45 592
f 118 592 349
f 136 131 139

