# https://github.com/mikedh/trimesh
v -0.42595544 -0.23819859 -0.82100016
v -0.42595544 -0.23428859 -0.82100016
v -0.42597541 -0.17959861 -0.82097018
v -0.42595544 -0.24600860 -0.82100016
v -0.42597541 -0.24209861 -0.82097018
v -0.42595544 -0.24209861 -0.82100016
v -0.44159541 0.03127140 -0.45772013
v -0.43769544 0.03127140 -0.45772013
v -0.44159541 0.03133140 -0.45776016
v -0.46562010 0.03318395 -0.45053536
v -0.43769544 0.03133140 -0.45776016
v -0.44550541 0.03133140 -0.45776016
v -0.45722541 0.03133140 -0.45776016
v -0.43146399 0.04019462 -0.45858949
v -0.39562744 0.02948798 -0.45581034
v -0.42206541 0.03127140 -0.45772013
v -0.43481657 -0.28905764 -0.77834189
v -0.42595544 -0.24991859 -0.82100016
v -0.42597541 -0.19912860 -0.82097018
v -0.42597541 -0.20303859 -0.82097018
v -0.42595544 -0.20303859 -0.82100016
v -0.42597541 -0.22256862 -0.82097018
v -0.42597541 -0.21866859 -0.82097018
v -0.42595544 -0.22256862 -0.82100016
v -0.42595544 -0.22647861 -0.82100016
v -0.42595544 -0.23037860 -0.82100016
v -0.42595544 -0.21866859 -0.82100016
v -0.42801902 -0.09291173 -0.66200918
v -0.31696537 -0.42567465 -0.50434548
v -0.41815540 -0.07406860 -0.63741016
v -0.41425541 -0.07412860 -0.63750017
v -0.31414133 -0.29611698 -0.71256769
v -0.31288326 -0.28895825 -0.71553987
v -0.42597541 -0.23428859 -0.82097018
v -0.42597541 -0.24600860 -0.82097018
v -0.42597541 -0.23819859 -0.82097018
v -0.42597541 -0.23037860 -0.82097018
v -0.42597541 -0.19522861 -0.82097018
v -0.42595544 -0.19912860 -0.82100016
v -0.42597541 -0.19131862 -0.82097018
v -0.42595544 -0.19522861 -0.82100016
v -0.42876542 -0.22501235 -0.81319016
v -0.42595544 -0.21475860 -0.82100016
v -0.42597541 -0.21084861 -0.82097018
v -0.42595544 -0.21084861 -0.82100016
v -0.42597541 -0.22647861 -0.82097018
v -0.42595544 -0.19131862 -0.82100016
v -0.42595544 -0.20694859 -0.82100016
v -0.42597541 -0.21475860 -0.82097018
v -0.42597541 -0.18350860 -0.82097018
v -0.42597541 -0.20694859 -0.82097018
v -0.42589682 -0.07476956 -0.63854581
v -0.37219870 -0.30283448 -0.31408754
v -0.42738217 -0.10876771 0.38276955
v -0.32775047 -0.42815784 -0.52360147
v -0.42597541 -0.18741859 -0.82097018
v -0.42595544 -0.18741859 -0.82100016
v -0.41236126 -0.16673149 -0.85121107
v -0.35175541 -0.29686862 -0.71944016
v -0.42876542 -0.19864359 -0.81319016
v -0.34700441 -0.26264602 -0.71776181
v -0.42668244 -0.15322655 -0.77651471
v -0.40570673 -0.11071735 0.38282672
v -0.39472541 -0.10146860 0.38991985
v -0.39081541 -0.10147860 0.38991985
v -0.39081541 -0.10146860 0.38991985
v -0.41034541 -0.07412860 -0.63750017
v -0.40644544 -0.07412860 -0.63750017
v -0.41034541 -0.07406860 -0.63741016
v -0.37519544 -0.08584860 0.40561986
v -0.41425541 -0.07406860 -0.63741016
v -0.42849460 -0.06548320 -0.62741083
v -0.40644544 -0.07406860 -0.63741016
v -0.39862543 -0.10147860 0.38991985
v -0.40253541 -0.10146860 0.38991985
v -0.38690540 -0.08584860 0.40561986
v -0.39081541 -0.08584860 0.40561986
v -0.39862543 -0.10146860 0.38991985
v -0.39472541 -0.10147860 0.38991985
v -0.39081541 -0.08590860 0.40554985
v -0.39472541 -0.08584860 0.40561986
v -0.43378541 0.03133140 -0.45776016
v -0.43378541 0.03127140 -0.45772013
v -0.38109034 0.02358492 0.46605343
v -0.42987543 0.03133140 -0.45776016
v -0.31262606 -0.41240466 -0.45163527
v -0.42597541 0.03127140 -0.45772013
v -0.42987543 0.03127140 -0.45772013
v -0.42597541 0.03133140 -0.45776016
v -0.39020979 -0.02430930 -0.35272345
v -0.20331542 0.41809139 -0.09054015
v -0.20331542 0.41809139 -0.09444015
v -0.20333543 0.41804138 -0.09054015
v -0.29421043 -0.41001874 -0.44603387
v -0.33082187 -0.25006336 -0.57307839
v -0.32830673 -0.42822605 -0.52659148
v -0.36502057 -0.22342485 -0.86709744
v -0.35565540 -0.29686862 -0.71944016
v -0.35565540 -0.29678860 -0.71936017
v -0.36932465 -0.29733732 -0.72022879
v -0.37215340 -0.24214502 -0.58618236
v -0.36344242 -0.24660394 -0.58241373
v -0.34394544 -0.29678860 -0.71936017
v -0.34394544 -0.29686862 -0.71944016
v -0.34003541 -0.29686862 -0.71944016
v -0.35956541 -0.24218859 -0.58272016
v -0.36320516 -0.24601024 -0.58264536
v -0.36347541 -0.24600860 -0.58274019
v -0.36347541 -0.24209861 -0.58381015
v -0.35956541 -0.23819859 -0.58326018
v -0.30878541 -0.42569861 -0.50453019
v -0.30487543 -0.42570862 -0.50460017
v -0.34902912 -0.15285157 0.35103896
v -0.38690540 -0.10147860 0.38991985
v -0.38592002 -0.06097704 0.45052814
v -0.39511749 -0.08587570 0.40558866
v -0.38300541 -0.10147860 0.38991985
v -0.38690540 -0.10146860 0.38991985
v -0.34784541 -0.10147860 0.38991985
v -0.35175541 -0.10537860 0.38832986
v -0.38300541 -0.08590860 0.40554985
v -0.38690540 -0.08590860 0.40554985
v -0.39398518 -0.09279704 0.39667913
v -0.37909541 -0.10147860 0.38991985
v -0.38300541 -0.10146860 0.38991985
v -0.37909541 -0.08584860 0.40561986
v -0.38300541 -0.08584860 0.40561986
v -0.37909541 -0.08590860 0.40554985
v -0.29706541 -0.29678860 -0.71936017
v -0.35565540 -0.10146860 0.38991985
v -0.42884725 -0.07819505 0.40176979
v -0.34784541 -0.29678860 -0.71936017
v -0.37909541 -0.10146860 0.38991985
v -0.37519544 -0.10147860 0.38991985
v -0.39963830 -0.07408036 0.42095616
v -0.37519544 -0.10146860 0.38991985
v -0.34731784 -0.07234529 -0.63527393
v -0.34827125 -0.09167738 -0.39200628
v -0.36862904 0.05355150 -0.46802291
v -0.43402791 0.02883140 -0.45382014
v -0.37519544 -0.08590860 0.40554985
v -0.37128541 -0.10146860 0.38991985
v -0.40466642 -0.07412590 -0.63749605
v -0.30878541 -0.28895861 -0.71554017
v -0.30487543 -0.28897861 -0.71553016
v -0.30878541 -0.28897861 -0.71553016
v -0.35956541 -0.10146860 0.38991985
v -0.37071720 -0.08587267 0.40559170
v -0.37128541 -0.08590860 0.40554985
v -0.32934302 -0.42102209 -0.47405225
v -0.32807252 -0.42768037 -0.52096409
v -0.28925541 -0.28897861 -0.71553016
v -0.29315540 -0.28897861 -0.71553016
v -0.35954434 -0.24227855 -0.58271325
v -0.35956541 -0.29678860 -0.71936017
v -0.34784541 -0.29686862 -0.71944016
v -0.35175541 -0.29678860 -0.71936017
v -0.36347541 -0.29678860 -0.71936017
v -0.34198666 -0.29781860 -0.72335017
v -0.35956541 -0.29686862 -0.71944016
v -0.35956541 -0.24209861 -0.58275014
v -0.31269544 -0.42570862 -0.50460017
v -0.29706541 -0.37881860 0.66222984
v -0.29706541 -0.37495860 0.66726983
v -0.30253947 -0.38730639 0.65066642
v -0.25801450 -0.42540139 -0.49757597
v -0.31269544 -0.42569861 -0.50453019
v -0.30878541 -0.42570862 -0.50460017
v -0.38963944 -0.13174976 -0.37489688
v -0.35565540 -0.10146860 -0.38350013
v -0.34646896 -0.09703028 0.39319754
v -0.37128541 -0.10147860 0.38991985
v -0.31269544 -0.28897861 -0.71553016
v -0.34767717 -0.13517147 -0.35755414
v -0.32050541 -0.29686862 -0.71944016
v -0.36362687 0.02769270 -0.38346499
v -0.20331542 0.41809139 -0.10225015
v -0.19940543 0.42575139 -0.10225015
v -0.19940543 0.42575139 -0.10616015
v -0.36737543 -0.10146860 0.38991985
v -0.36347541 -0.10147860 0.38991985
v -0.36347541 -0.10146860 0.38991985
v -0.31074041 -0.29287860 -0.71758020
v -0.29755166 -0.29287860 -0.71758020
v -0.28925541 -0.37881860 0.66222984
v -0.28144544 -0.29686862 -0.71944016
v -0.28067413 -0.29687303 -0.71939808
v -0.28534541 -0.29678860 -0.71936017
v -0.35175541 -0.10146860 -0.38350013
v -0.35175541 -0.10537860 -0.38191015
v -0.35175541 -0.10147860 -0.38350013
v -0.34784541 -0.10147860 -0.38350013
v -0.34783217 -0.10147643 -0.38350165
v -0.35175541 -0.10146860 0.38991985
v -0.36347541 0.02779140 -0.36788014
v -0.36737543 -0.10147860 0.38991985
v -0.35175541 -0.10147860 0.38991985
v -0.35956541 -0.10147860 0.38991985
v -0.28144544 -0.37491861 0.66732985
v -0.28534541 -0.37491861 0.66732985
v -0.35565540 -0.10147860 0.38991985
v -0.41630319 0.00173818 -0.52288771
v -0.27362543 -0.37881860 0.66222984
v -0.36347541 0.02748140 -0.37569013
v -0.36342543 0.02742140 -0.37960014
v -0.36347541 0.02748140 -0.37179014
v -0.36342543 0.02742140 -0.37569013
v -0.19933543 0.42586139 -0.09835014
v -0.19933543 0.42586139 -0.10225015
v -0.19940543 0.42575139 -0.09835014
v -0.00987943 0.18509366 -0.38904300
v -0.13800918 0.38191140 -0.13130765
v -0.31659541 -0.42569861 -0.50453019
v -0.31659541 -0.42570862 -0.50460017
v -0.19550543 0.36331138 -0.13350014
v -0.19940543 0.36336139 -0.13341016
v -0.19550543 0.36336139 -0.13341016
v -0.19933543 0.42586139 -0.12569015
v -0.29712981 0.36296231 -0.19453578
v -0.19940543 0.42575139 -0.08272014
v -0.19933543 0.42586139 -0.08663015
v -0.19159544 0.36331138 -0.13350014
v -0.33612543 -0.29678860 -0.71936017
v -0.33222541 -0.29686862 -0.71944016
v -0.33222541 -0.29678860 -0.71936017
v -0.27753541 -0.37491861 0.66732985
v -0.27753541 -0.37495860 0.66726983
v -0.32050541 -0.29678860 -0.71936017
v -0.31659541 -0.29686862 -0.71944016
v -0.31659541 -0.29678860 -0.71936017
v -0.26004940 -0.37135637 0.67195380
v -0.26581016 -0.28896347 -0.71553993
v -0.32831541 -0.29678860 -0.71936017
v -0.33612543 -0.29686862 -0.71944016
v -0.34390125 -0.28453097 0.08893494
v -0.34003541 -0.29678860 -0.71936017
v -0.26972464 -0.37495047 0.66728222
v -0.39958680 -0.29625157 0.79187155
v -0.30549592 -0.37901059 0.52647972
v -0.28925541 -0.37491861 0.66732985
v -0.29315540 -0.37491861 0.66732985
v -0.28925541 -0.37495860 0.66726983
v -0.32831541 -0.29686862 -0.71944016
v -0.31269544 -0.29686862 -0.71944016
v -0.31269544 -0.29678860 -0.71936017
v -0.32440540 -0.29686862 -0.71944016
v -0.32440540 -0.29678860 -0.71936017
v -0.30097541 -0.28895861 -0.71554017
v -0.28925541 -0.29678860 -0.71936017
v -0.28534541 -0.29686862 -0.71944016
v -0.31269544 -0.28895861 -0.71554017
v -0.29092088 -0.36855224 0.67451584
v -0.28876418 -0.29781860 -0.72335017
v -0.27753541 -0.28897861 -0.71553016
v -0.28144544 -0.28897861 -0.71553016
v -0.28144544 -0.28895861 -0.71554017
v -0.29315540 -0.37495860 0.66726983
v -0.27997667 -0.29287860 -0.71758020
v -0.29706541 -0.28897861 -0.71553016
v -0.30097541 -0.28897861 -0.71553016
v -0.27362543 -0.37491861 0.66732985
v -0.29315540 -0.40839860 -0.44210014
v -0.29706541 -0.41000861 -0.44600013
v -0.29706651 -0.41007164 -0.44614729
v -0.30097541 -0.37491861 0.66732985
v -0.29187816 -0.42637533 -0.50949192
v -0.30878541 -0.29678860 -0.71936017
v -0.31000480 -0.29781860 -0.72335017
v -0.28925541 -0.41000861 -0.44600013
v -0.29315540 -0.41000861 -0.44600013
v -0.20331542 0.41809139 -0.09835014
v -0.11737542 0.36336139 -0.13341016
v -0.11347542 0.36336139 -0.13341016
v -0.30487543 -0.29678860 -0.71936017
v -0.30097541 -0.29686862 -0.71944016
v -0.30097541 -0.29678860 -0.71936017
v -0.36342543 0.02742140 -0.37179014
v -0.21894543 0.36331138 -0.13350014
v -0.21503542 0.36331138 -0.13350014
v -0.17987543 0.36336139 -0.13341016
v -0.17597543 0.36336139 -0.13341016
v -0.29706541 -0.28895861 -0.71554017
v -0.30489412 -0.42570385 -0.50456631
v -0.28925541 -0.41006860 -0.44614014
v -0.19550543 0.42865139 -0.10079015
v -0.19933543 0.42586139 -0.09444015
v -0.29315540 -0.29678860 -0.71936017
v -0.30878541 -0.29686862 -0.71944016
v -0.28432730 -0.40148628 -0.42569137
v -0.27800363 -0.38730410 0.65117717
v -0.28392103 -0.35102624 -0.68832928
v -0.28144544 -0.37495860 0.66726983
v -0.29706541 -0.37491861 0.66732985
v -0.30487543 -0.29686862 -0.71944016
v -0.30487543 -0.28895861 -0.71554017
v -0.29315540 -0.29686862 -0.71944016
v -0.28534541 -0.28895861 -0.71554017
v -0.28925541 -0.29686862 -0.71944016
v -0.36165228 -0.41601521 -0.59383702
v -0.28534541 -0.28897861 -0.71553016
v -0.29315540 -0.28895861 -0.71554017
v -0.29706541 -0.29686862 -0.71944016
v -0.26972541 -0.37495860 0.66726983
v -0.26543742 -0.29490399 -0.71682960
v -0.27362543 -0.28897861 -0.71553016
v -0.27753541 -0.28895861 -0.71554017
v -0.27362543 -0.28895861 -0.71554017
v -0.26972541 -0.28895861 -0.71554017
v -0.28925541 -0.28895861 -0.71554017
v -0.20333543 0.41804138 -0.09835014
v -0.19940543 0.42575139 -0.11007014
v -0.19940543 0.42575139 -0.11397014
v -0.14862543 0.36336139 -0.13341016
v -0.19933543 0.42586139 -0.11788015
v -0.19933543 0.42586139 -0.11397014
v -0.19933543 0.42586139 -0.11007014
v -0.20722543 0.36336139 -0.13341016
v -0.21112543 0.36336139 -0.13341016
v -0.22675543 0.36331138 -0.13350014
v -0.22675543 0.36336139 -0.13341016
v -0.22284544 0.36331138 -0.13350014
v -0.19940543 0.42575139 -0.11788015
v -0.23056543 0.36336139 -0.12960014
v -0.22284544 0.36336139 -0.13341016
v -0.21894543 0.36336139 -0.13341016
v -0.00409543 0.36331138 -0.13350014
v -0.00800543 0.36331138 -0.13350014
v -0.00800543 0.36336139 -0.13341016
v -0.27362543 -0.37495860 0.66726983
v -0.28534541 -0.37495860 0.66726983
v -0.26428768 -0.29781768 -0.72312623
v -0.26581541 -0.29287860 -0.71493018
v -0.26972541 -0.28897861 -0.71553016
v -0.26581541 -0.28897861 -0.71553016
v -0.26002771 -0.29782316 -0.71199763
v -0.17597543 0.36331138 -0.13350014
v -0.17206542 0.36331138 -0.13350014
v -0.36350444 0.02893640 -0.36691523
v -0.22624902 0.37000141 -0.13121110
v -0.23153980 0.36356178 -0.12810037
v -0.19940543 0.42575139 -0.09444015
v -0.08222542 0.36331138 -0.13350014
v -0.08612542 0.36336139 -0.13341016
v -0.08222542 0.36336139 -0.13341016
v -0.17462766 0.36314753 -0.19450653
v -0.21503542 0.36336139 -0.13341016
v -0.19940543 0.36331138 -0.13350014
v -0.19159544 0.36336139 -0.13341016
v -0.23065543 0.36331138 -0.12960014
v -0.18378542 0.36331138 -0.13350014
v -0.17987543 0.36331138 -0.13350014
v -0.18378542 0.36336139 -0.13341016
v -0.20331542 0.41809139 -0.08663015
v -0.19940543 0.42575139 -0.09054015
v -0.19933543 0.42586139 -0.09054015
v -0.19940543 0.42575139 -0.08663015
v -0.10175542 0.36336139 -0.13341016
v -0.09784542 0.36336139 -0.13341016
v -0.16425543 0.36331138 -0.13350014
v -0.16815543 0.36331138 -0.13350014
v -0.16815543 0.36336139 -0.13341016
v -0.16034544 0.36331138 -0.13350014
v -0.20331542 0.36331138 -0.13350014
v -0.20331542 0.36336139 -0.13341016
v -0.20333543 0.41804138 -0.09444015
v -0.15644543 0.36336139 -0.13341016
v -0.16034544 0.36336139 -0.13341016
v -0.19909446 0.42658401 -0.07783771
v -0.19991942 0.42514008 -0.05540338
v -0.16425543 0.36336139 -0.13341016
v -0.20722543 0.36331138 -0.13350014
v -0.18939917 0.36726138 -0.13136014
v -0.19933543 0.42586139 -0.10616015
v -0.20331542 0.41809139 -0.08272014
v -0.12909544 0.36331138 -0.13350014
v -0.13300543 0.36331138 -0.13350014
v -0.13300543 0.36336139 -0.13341016
v -0.20333543 0.41804138 -0.07882014
v -0.10565543 0.36336139 -0.13341016
v -0.15644543 0.36331138 -0.13350014
v -0.22930989 0.36470836 -0.11966434
v -0.19933543 0.42586139 -0.12179015
v -0.14472543 0.36331138 -0.13350014
v -0.14862543 0.36331138 -0.13350014
v -0.09394543 0.36336139 -0.13341016
v -0.12909544 0.36336139 -0.13341016
v -0.19632277 0.42765108 -0.13120507
v -0.21112543 0.36331138 -0.13350014
v -0.12519543 0.36336139 -0.13341016
v -0.13690543 0.36336139 -0.13341016
v -0.18769543 0.36336139 -0.13341016
v -0.18769543 0.36331138 -0.13350014
v -0.09784542 0.36331138 -0.13350014
v -0.10175542 0.36331138 -0.13350014
v -0.13690543 0.36331138 -0.13350014
v -0.12519543 0.36331138 -0.13350014
v -0.06269543 0.36331138 -0.13350014
v -0.06659542 0.36336139 -0.13341016
v -0.06269543 0.36336139 -0.13341016
v -0.22948165 0.36615014 0.00894567
v -0.17255542 0.36726138 -0.13136014
v -0.20333543 0.41804138 -0.08272014
v -0.17206542 0.36336139 -0.13341016
v -0.20447533 0.36331138 -0.16432792
v -0.14081542 0.36331138 -0.13350014
v -0.15253542 0.36336139 -0.13341016
v -0.20333543 0.41804138 -0.08663015
v -0.10565543 0.36331138 -0.13350014
v -0.14472543 0.36336139 -0.13341016
v -0.12128543 0.36336139 -0.13341016
v -0.36342266 0.09831293 -0.24480690
v -0.02362542 0.36336139 -0.13341016
v -0.01972543 0.36336139 -0.13341016
v -0.12128543 0.36331138 -0.13350014
v -0.15253542 0.36331138 -0.13350014
v -0.08856668 0.42777139 -0.12960014
v -0.10343175 0.36331138 -0.16124593
v -0.05097542 0.36331138 -0.13350014
v -0.05097542 0.36336139 -0.13341016
v -0.04706543 0.36331138 -0.13350014
v -0.10956543 0.36331138 -0.13350014
v -0.10956543 0.36336139 -0.13341016
v -0.06659542 0.36331138 -0.13350014
v -0.14081542 0.36336139 -0.13341016
v -0.07050542 0.36336139 -0.13341016
v -0.11347542 0.36331138 -0.13350014
v -0.11737542 0.36331138 -0.13350014
v -0.09394543 0.36331138 -0.13350014
v -0.07831543 0.36331138 -0.13350014
v -0.09003543 0.36331138 -0.13350014
v -0.09003543 0.36336139 -0.13341016
v -0.36342543 0.02742140 -0.36788014
v -0.05878542 0.36336139 -0.13341016
v -0.07440543 0.36331138 -0.13350014
v -0.04706543 0.36336139 -0.13341016
v -0.04315542 0.36336139 -0.13341016
v -0.08612542 0.36331138 -0.13350014
v -0.07831543 0.36336139 -0.13341016
v -0.07440543 0.36336139 -0.13341016
v -0.07050542 0.36331138 -0.13350014
v -0.03925543 0.36331138 -0.13350014
v -0.03925543 0.36336139 -0.13341016
v -0.00409543 0.36336139 -0.13341016
v -0.00019543 0.36336139 -0.13341016
v -0.04315542 0.36331138 -0.13350014
v -0.03144543 0.36331138 -0.13350014
v -0.03534542 0.36331138 -0.13350014
v -0.03534542 0.36336139 -0.13341016
v 0.04276457 0.36331138 -0.13350014
v 0.03886458 0.36336139 -0.13341016
v 0.04276457 0.36336139 -0.13341016
v -0.05878542 0.36331138 -0.13350014
v -0.05487543 0.36336139 -0.13341016
v -0.03461543 0.36726138 -0.13136014
v 0.25795418 -0.40973139 0.61991525
v -0.05487543 0.36331138 -0.13350014
v -0.03144543 0.36336139 -0.13341016
v -0.02753543 0.36331138 -0.13350014
v -0.02753543 0.36336139 -0.13341016
v -0.01972543 0.36331138 -0.13350014
v -0.01581542 0.36331138 -0.13350014
v 0.01542457 0.36336139 -0.13341016
v 0.01933457 0.36336139 -0.13341016
v -0.01190543 0.36336139 -0.13341016
v -0.02362542 0.36331138 -0.13350014
v 0.03105457 0.36331138 -0.13350014
v 0.02714458 0.36331138 -0.13350014
v 0.02714458 0.36336139 -0.13341016
v -0.01190543 0.36331138 -0.13350014
v -0.01743094 -0.29734403 -0.88064641
v -0.00019543 0.36331138 -0.13350014
v -0.04724839 0.36331138 -0.15291421
v -0.01581542 0.36336139 -0.13341016
v 0.01151457 0.36336139 -0.13341016
v 0.02323457 0.36331138 -0.13350014
v 0.02323457 0.36336139 -0.13341016
v 0.01151457 0.36331138 -0.13350014
v 0.01542457 0.36331138 -0.13350014
v 0.04667458 0.36336139 -0.13341016
v 0.00761457 0.36336139 -0.13341016
v 0.01933457 0.36331138 -0.13350014
v 0.00370457 0.36336139 -0.13341016
v 0.01420645 0.42705515 -0.13018139
v 0.03105457 0.36336139 -0.13341016
v 0.05058457 0.36336139 -0.13341016
v 0.05448458 0.36336139 -0.13341016
v 0.00370457 0.36331138 -0.13350014
v 0.00761457 0.36331138 -0.13350014
v 0.34856489 -0.10140317 0.38993421
v 0.42948455 0.03133140 -0.45776016
v 0.43339458 0.03127140 -0.45772013
v 0.42948455 0.03127140 -0.45772013
v 0.27323455 -0.37491861 -0.66091019
v 0.27323455 -0.37495860 -0.66085017
v 0.05839457 0.36331138 -0.13350014
v 0.05839457 0.36336139 -0.13341016
v 0.06230457 0.36331138 -0.13350014
v 0.32757929 -0.43065429 -0.49624342
v 0.25749782 -0.45073837 -0.54781741
v 0.38519678 -0.10393704 0.39650902
v 0.03886458 0.36331138 -0.13350014
v 0.05058457 0.36331138 -0.13350014
v 0.27714458 -0.37491861 -0.66091019
v 0.28105456 -0.37495860 -0.66085017
v 0.04667458 0.36331138 -0.13350014
v 0.26150578 -0.37492344 0.66733056
v 0.01052432 0.36325857 -0.19437931
v 0.03495457 0.36331138 -0.13350014
v 0.05448458 0.36331138 -0.13350014
v 0.06230457 0.36336139 -0.13341016
v 0.03495457 0.36336139 -0.13341016
v 0.37044400 0.02470900 -0.43710127
v 0.12089458 0.36331138 -0.13350014
v 0.11698457 0.36336139 -0.13341016
v 0.12089458 0.36336139 -0.13341016
v 0.26542458 -0.37495860 0.66726983
v 0.40187630 -0.11743232 0.38278520
v 0.08573457 0.36331138 -0.13350014
v 0.08573457 0.36336139 -0.13341016
v 0.08964458 0.36331138 -0.13350014
v 0.08183457 0.36336139 -0.13341016
v 0.27205336 -0.37493268 -0.66088891
v 0.42850503 -0.27462333 -0.77674723
v 0.07792458 0.36336139 -0.13341016
v 0.11308457 0.36331138 -0.13350014
v 0.07011457 0.36336139 -0.13341016
v 0.07011457 0.36331138 -0.13350014
v 0.07401458 0.36331138 -0.13350014
v 0.06620457 0.36331138 -0.13350014
v 0.10917458 0.36336139 -0.13341016
v 0.10526458 0.36331138 -0.13350014
v 0.10917458 0.36331138 -0.13350014
v 0.08183457 0.36331138 -0.13350014
v 0.07792458 0.36331138 -0.13350014
v 0.08964458 0.36336139 -0.13341016
v 0.07401458 0.36336139 -0.13341016
v 0.06878524 0.36331138 -0.15840815
v 0.06620457 0.36336139 -0.13341016
v 0.09355457 0.36331138 -0.13350014
v 0.09355457 0.36336139 -0.13341016
v 0.42558458 -0.25772861 -0.82097018
v 0.11308457 0.36336139 -0.13341016
v 0.11698457 0.36331138 -0.13350014
v 0.09745457 0.36336139 -0.13341016
v 0.15214457 0.36331138 -0.13350014
v 0.14823458 0.36336139 -0.13341016
v 0.15214457 0.36336139 -0.13341016
v 0.26234502 0.18892595 0.69857669
v 0.10136457 0.36331138 -0.13350014
v 0.10136457 0.36336139 -0.13341016
v 0.10526458 0.36336139 -0.13341016
v 0.28121740 -0.37916335 -0.65536684
v 0.40332979 -0.37197500 0.59467089
v 0.27714458 -0.37495860 -0.66085017
v 0.09745457 0.36331138 -0.13350014
v 0.12480457 0.36331138 -0.13350014
v 0.12480457 0.36336139 -0.13341016
v 0.14042456 0.36331138 -0.13350014
v 0.14042456 0.36336139 -0.13341016
v 0.14433457 0.36331138 -0.13350014
v 0.13651457 0.36331138 -0.13350014
v 0.13261457 0.36336139 -0.13341016
v 0.13651457 0.36336139 -0.13341016
v 0.15605457 0.36331138 -0.13350014
v 0.13261457 0.36331138 -0.13350014
v 0.35917458 -0.41392860 -0.52413017
v 0.35917458 -0.41390860 -0.52804017
v 0.36308458 -0.41216862 -0.52413017
v 0.10798662 0.36319706 -0.19427393
v 0.12870458 0.36336139 -0.13341016
v 0.35699323 -0.09771087 -0.39166647
v 0.12870458 0.36331138 -0.13350014
v 0.14433457 0.36336139 -0.13341016
v 0.15605457 0.36336139 -0.13341016
v 0.08964333 0.42753264 -0.12979390
v 0.14823458 0.36331138 -0.13350014
v 0.12577645 0.39680013 -0.13106140
v 0.36698455 -0.41041860 -0.52413017
v 0.42558458 -0.24209861 -0.82097018
v 0.26933458 -0.37495860 0.66726983
v 0.35136458 -0.10147860 -0.38350013
v 0.34745458 -0.10146860 -0.38350013
v 0.35136458 -0.10146860 -0.38350013
v 0.15995458 0.36331138 -0.13350014
v 0.16386457 0.36331138 -0.13350014
v 0.39550754 -0.02241778 -0.56589174
v 0.36698455 -0.10147860 -0.38350013
v 0.36308458 -0.10147860 -0.38350013
v 0.36308458 -0.10146860 -0.38350013
v 0.17948458 0.36331138 -0.13350014
v 0.17558457 0.36331138 -0.13350014
v 0.35526457 -0.10147860 -0.38350013
v 0.17167456 0.36331138 -0.13350014
v 0.15995458 0.36336139 -0.13341016
v 0.44511458 0.03127140 -0.45772013
v 0.44511458 0.03133140 -0.45776016
v 0.44901457 0.03127140 -0.45772013
v 0.16776457 0.36331138 -0.13350014
v 0.16386457 0.36336139 -0.13341016
v 0.26542458 -0.37491861 0.66732985
v 0.23001793 0.36400536 -0.13199919
v 0.26151457 -0.37491861 0.66732985
v 0.42558458 -0.26553860 -0.82097018
v 0.42556459 -0.26553860 -0.82100016
v 0.42556459 -0.26162860 -0.82100016
v 0.16613559 0.36331138 -0.16605254
v 0.17167456 0.36336139 -0.13341016
v 0.20039774 0.42496452 -0.13010971
v 0.16776457 0.36336139 -0.13341016
v 0.16807701 0.36485484 -0.13226305
v 0.20292723 0.41808307 -0.09053366
v 0.20883642 0.40482643 -0.08155968
v 0.19247113 0.43703026 -0.01304788
v 0.20292456 0.41809139 -0.08272014
v 0.19792169 0.42650700 -0.08385258
v 0.46586394 0.02883140 -0.45382014
v 0.25704890 -0.35818806 0.68485779
v 0.35136458 -0.10147860 -0.38358015
v 0.39042458 -0.10147860 -0.38350013
v 0.38651457 -0.10146860 -0.38350013
v 0.39042458 -0.10146860 -0.38350013
v 0.31122673 -0.36379397 -0.67503589
v 0.34716752 -0.10152266 -0.38373241
v 0.26042369 -0.36739090 -0.66860336
v 0.28368622 -0.36924767 0.67376816
v 0.37441754 0.17024674 -0.34466207
v 0.31439716 -0.26591903 -0.28597891
v 0.44120458 0.03133140 -0.45776016
v 0.43095332 0.02883140 -0.45382014
v 0.35907459 -0.41397861 -0.52413017
v 0.42558458 -0.26944861 -0.82097018
v 0.34498128 -0.14911804 -0.34924698
v 0.40038940 -0.16245884 -0.84800661
v 0.35917458 -0.10147860 -0.38350013
v 0.35526457 -0.10146860 -0.38350013
v 0.35917458 -0.10146860 -0.38350013
v 0.35136458 -0.09756860 -0.38650015
v 0.34667906 -0.09757297 -0.38734534
v 0.42758873 -0.05459274 0.44670838
v 0.43339458 0.03133140 -0.45776016
v 0.42730144 -0.08084921 -0.40520918
v 0.42674962 -0.29734421 -0.81760788
v 0.42788559 -0.09796260 0.39092934
v 0.39433458 0.03133140 -0.45776016
v 0.44120458 0.03127140 -0.45772013
v 0.42556459 -0.23819859 -0.82100016
v 0.42556459 -0.24209861 -0.82100016
v 0.42556459 -0.25772861 -0.82100016
v 0.42558458 -0.26162860 -0.82097018
v 0.39823455 0.03127140 -0.45772013
v 0.41776457 -0.08590860 0.40554985
v 0.41386458 -0.08584860 0.40561986
v 0.40214458 -0.10146860 0.38991985
v 0.42837459 -0.26553860 -0.81319016
v 0.39536867 -0.39092401 -0.59070021
v 0.40787837 -0.23966968 -0.86324435
v 0.40316439 -0.30880219 -0.86492169
v 0.42556459 -0.24991859 -0.82100016
v 0.42556459 -0.25381860 -0.82100016
v 0.42558458 -0.25381860 -0.82097018
v 0.42167458 0.03127140 -0.45772013
v 0.41776457 0.03127140 -0.45772013
v 0.42556459 -0.24600860 -0.82100016
v 0.42558458 -0.24600860 -0.82097018
v 0.37480456 -0.10147860 -0.38350013
v 0.37089458 -0.10146860 -0.38350013
v 0.37480456 -0.10146860 -0.38350013
v 0.37089458 -0.10147860 -0.38350013
v 0.36698455 -0.10146860 -0.38350013
v 0.39433458 -0.10146860 0.38991985
v 0.40274268 -0.14305052 0.22936954
v 0.40214458 -0.10147860 0.38991985
v 0.39823455 -0.10147860 0.38991985
v 0.39823455 -0.10146860 0.38991985
v 0.40290740 -0.16005985 -0.87408334
v 0.38171497 -0.38924164 -0.42863140
v 0.38261458 -0.08584860 -0.39920014
v 0.42558458 -0.08268860 0.40945986
v 0.38379771 -0.09281354 -0.39024702
v 0.37480456 -0.08584860 -0.39920014
v 0.39433458 -0.10146860 -0.38350013
v 0.41776457 -0.08584860 0.40561986
v 0.42164540 -0.08585971 0.40560836
v 0.37444454 -0.08589620 -0.39914486
v 0.37870458 -0.10146860 -0.38350013
v 0.39823455 0.03133140 -0.45776016
v 0.41776457 0.03133140 -0.45776016
v 0.39433458 -0.08584860 -0.39920014
v 0.39042458 -0.08584860 -0.39920014
v 0.40605456 0.03127140 -0.45772013
v 0.40214458 0.03127140 -0.45772013
v 0.40214458 0.03133140 -0.45776016
v 0.38261458 -0.10146860 -0.38350013
v 0.45292458 0.03133140 -0.45776016
v 0.45683458 0.03127140 -0.45772013
v 0.40995458 -0.10146860 0.38991985
v 0.40605456 -0.10146860 0.38991985
v 0.42183569 -0.08591319 0.40552762
v 0.42167458 -0.08590860 0.40554985
v 0.42558458 -0.24991859 -0.82097018
v 0.40605456 0.03133140 -0.45776016
v 0.42558458 0.03127140 -0.45772013
v 0.50698882 0.04446213 -0.46333161
v 0.41945064 0.08064523 -0.46157509
v 0.41386458 -0.10147860 0.38991985
v 0.40995458 -0.10537860 0.38691986
v 0.41386458 -0.10146860 0.38991985
v 0.40995458 0.03127140 -0.45772013
v 0.41386458 0.03133140 -0.45776016
v 0.42558458 0.03133140 -0.45776016
v 0.42556459 -0.23428859 -0.82100016
v 0.38261458 -0.08590860 -0.39913014
v 0.37870458 -0.08590860 -0.39913014
v 0.40214458 -0.10147860 -0.38350013
v 0.39823455 -0.10146860 -0.38350013
v 0.40214458 -0.10146860 -0.38350013
v 0.43730456 0.03133140 -0.45776016
v 0.43730456 0.03127140 -0.45772013
v 0.39468282 -0.11701728 -0.37157172
v 0.40605456 -0.10147860 0.38991985
v 0.45292458 0.03127140 -0.45772013
v 0.37870458 -0.08584860 -0.39920014
v 0.38261458 -0.10147860 -0.38350013
v 0.38651457 -0.10147860 -0.38350013
v 0.38651457 -0.08590860 -0.39913014
v 0.37870458 -0.10147860 -0.38350013
v 0.40995458 -0.10147860 -0.38350013
v 0.40605456 -0.10146860 -0.38350013
v 0.40995458 -0.10146860 -0.38350013
v 0.39042458 -0.08590860 -0.39913014
v 0.38651457 -0.08584860 -0.39920014
v 0.39433458 -0.10147860 -0.38350013
v 0.42696977 -0.09748655 -0.38566908
v 0.39823455 -0.10147860 -0.38350013
v 0.40605456 -0.10147860 -0.38350013
v 0.41386458 -0.10147860 -0.38350013
v 0.45687318 0.03132423 -0.45776328
v 0.39433458 -0.08590860 -0.39913014
v 0.40995458 0.03133140 -0.45776016
v 0.41386458 0.03127140 -0.45772013
v 0.39823455 -0.08584860 -0.39920014
v 0.40605456 -0.08590860 -0.39913014
v 0.40214458 -0.08590860 -0.39913014
v 0.40214458 -0.08584860 -0.39920014
v 0.40995458 -0.10147860 0.38991985
v 0.42558458 -0.23819859 -0.82097018
v 0.39823455 -0.08590860 -0.39913014
v 0.38643244 -0.08225881 -0.40388164
v 0.44901457 0.03133140 -0.45776016
v 0.42167458 0.03133140 -0.45776016
f 1 2 97
f 4 5 6
f 7 140 10
f 8 7 9
f 13 10 14
f 8 140 7
f 7 10 12
f 14 15 16
f 11 9 14
f 8 9 11
f 12 13 14
f 10 13 12
f 9 12 14
f 7 12 9
f 19 20 60
f 19 21 20
f 22 23 24
f 23 22 42
f 25 97 26
f 27 97 24
f 1 97 6
f 30 52 31
f 1 34 2
f 35 5 4
f 42 5 35
f 37 34 42
f 37 2 34
f 19 38 39
f 60 38 19
f 38 40 41
f 38 60 40
f 25 22 24
f 4 97 18
f 26 97 2
f 43 44 45
f 2 37 26
f 24 97 25
f 4 6 97
f 37 46 26
f 42 46 37
f 41 40 47
f 36 5 42
f 5 36 6
f 6 36 1
f 35 18 17
f 26 46 25
f 18 35 4
f 24 23 27
f 48 20 21
f 27 49 43
f 42 35 17
f 36 34 1
f 42 34 36
f 46 22 25
f 46 42 22
f 51 44 60
f 51 45 44
f 49 44 43
f 49 60 44
f 49 23 42
f 49 27 23
f 51 20 48
f 60 20 51
f 60 49 42
f 45 51 48
f 47 56 57
f 41 58 39
f 43 45 97
f 43 97 27
f 21 19 39
f 40 56 47
f 60 56 40
f 39 38 41
f 57 50 58
f 3 62 58
f 50 3 58
f 50 62 3
f 50 56 62
f 50 57 56
f 56 60 62
f 58 62 97
f 53 235 90
f 64 65 66
f 67 68 69
f 202 169 90
f 68 67 28
f 70 148 115
f 202 62 72
f 62 28 72
f 69 72 71
f 72 28 52
f 31 67 71
f 72 52 30
f 30 31 71
f 73 69 68
f 71 72 30
f 52 28 31
f 69 71 67
f 54 74 75
f 74 54 63
f 76 135 77
f 78 74 79
f 74 63 79
f 80 77 81
f 73 72 69
f 67 31 28
f 11 82 83
f 82 11 14
f 139 10 211
f 15 14 139
f 8 11 83
f 15 140 16
f 8 83 140
f 87 88 85
f 89 16 87
f 14 10 139
f 91 92 93
f 84 131 238
f 87 140 88
f 140 87 16
f 14 16 89
f 83 88 140
f 82 88 83
f 85 82 14
f 88 82 85
f 89 85 14
f 87 85 89
f 18 97 17
f 98 159 59
f 99 98 59
f 45 58 97
f 103 104 105
f 104 159 105
f 47 58 41
f 107 106 108
f 109 110 101
f 235 53 239
f 235 239 54
f 48 21 58
f 39 58 21
f 283 111 112
f 169 53 90
f 57 58 47
f 48 58 45
f 62 60 17
f 143 202 72
f 68 28 143
f 62 17 28
f 114 117 118
f 117 114 63
f 119 120 171
f 75 74 78
f 75 78 123
f 121 76 122
f 79 65 64
f 65 79 63
f 117 63 124
f 125 117 124
f 126 127 128
f 28 17 137
f 97 62 202
f 73 143 72
f 63 54 113
f 118 117 125
f 125 124 133
f 123 78 64
f 131 54 75
f 66 65 114
f 65 63 114
f 131 75 123
f 78 79 64
f 124 134 133
f 124 63 134
f 54 131 235
f 134 136 133
f 66 114 118
f 115 127 126
f 73 68 143
f 131 123 116
f 76 77 122
f 131 116 135
f 118 123 66
f 133 136 123
f 116 81 135
f 84 235 131
f 115 126 70
f 80 81 116
f 141 128 123
f 123 64 66
f 133 123 125
f 122 80 123
f 123 118 125
f 80 116 123
f 80 122 77
f 121 127 76
f 121 128 127
f 141 126 128
f 127 135 76
f 77 135 81
f 128 121 123
f 141 70 126
f 123 121 122
f 137 202 143
f 137 143 28
f 127 115 135
f 144 145 146
f 135 115 131
f 90 139 202
f 131 115 238
f 211 10 338
f 15 10 140
f 10 15 176
f 147 130 171
f 123 148 149
f 132 103 61
f 150 299 96
f 53 299 150
f 152 291 153
f 61 155 99
f 59 159 156
f 157 59 156
f 158 155 61
f 158 100 160
f 109 161 110
f 100 158 61
f 299 53 169
f 163 164 165
f 99 59 157
f 157 156 132
f 158 160 155
f 160 100 159
f 155 98 99
f 17 100 61
f 155 160 98
f 160 159 98
f 156 104 132
f 156 159 104
f 99 157 61
f 104 103 132
f 157 132 61
f 17 97 100
f 100 97 159
f 102 95 107
f 202 299 101
f 108 102 107
f 109 108 161
f 202 110 95
f 17 299 202
f 95 102 299
f 167 162 168
f 161 108 106
f 107 95 154
f 110 154 95
f 154 110 161
f 299 102 101
f 101 110 202
f 106 107 154
f 102 108 109
f 101 102 109
f 154 161 106
f 70 149 148
f 136 172 142
f 113 54 239
f 173 146 291
f 168 112 111
f 17 60 42
f 169 174 138
f 177 178 179
f 180 181 182
f 186 187 188
f 189 170 138
f 190 191 192
f 191 189 192
f 190 169 191
f 190 174 169
f 193 190 192
f 142 196 180
f 136 134 172
f 134 113 172
f 130 197 194
f 194 119 171
f 171 238 115
f 113 238 171
f 123 136 142
f 181 198 182
f 198 181 113
f 172 196 142
f 196 172 113
f 123 171 148
f 137 17 202
f 191 170 189
f 191 169 170
f 192 189 193
f 138 190 193
f 138 174 190
f 113 171 120
f 199 252 200
f 70 141 149
f 171 115 148
f 182 147 171
f 182 198 147
f 201 197 130
f 147 198 201
f 198 113 201
f 141 123 149
f 194 197 119
f 197 120 119
f 134 63 113
f 196 113 181
f 180 196 181
f 147 201 130
f 197 201 120
f 201 113 120
f 123 142 180
f 169 138 202
f 170 169 138
f 138 169 202
f 97 202 139
f 193 189 138
f 123 180 182
f 130 194 171
f 123 182 171
f 204 176 205
f 338 206 195
f 432 195 277
f 338 204 206
f 207 204 205
f 208 285 209
f 210 208 209
f 204 338 176
f 10 176 338
f 338 195 432
f 277 206 207
f 195 206 277
f 15 139 176
f 204 207 206
f 211 411 84
f 29 214 213
f 55 29 151
f 215 216 217
f 220 368 221
f 151 96 55
f 151 29 150
f 29 55 214
f 223 224 225
f 53 150 86
f 226 199 227
f 228 229 230
f 234 159 224
f 223 234 224
f 103 105 236
f 236 234 223
f 61 103 236
f 105 159 234
f 236 105 234
f 146 145 291
f 240 241 242
f 32 33 173
f 243 159 268
f 291 61 32
f 223 225 61
f 61 183 33
f 225 243 233
f 32 61 33
f 244 245 230
f 236 223 61
f 97 268 159
f 225 233 61
f 224 159 243
f 225 224 243
f 243 268 246
f 233 243 246
f 247 246 175
f 246 268 175
f 230 245 61
f 228 175 229
f 175 268 229
f 247 175 228
f 249 250 188
f 61 233 247
f 233 246 247
f 229 244 230
f 229 268 244
f 183 251 33
f 247 228 61
f 228 230 61
f 61 245 183
f 17 61 291
f 173 33 251
f 188 187 258
f 254 255 256
f 257 185 242
f 238 113 239
f 259 291 260
f 241 257 242
f 261 237 231
f 289 264 262
f 264 263 262
f 252 238 265
f 269 262 270
f 271 210 178
f 272 212 273
f 274 275 276
f 291 32 173
f 278 279 404
f 237 290 231
f 84 238 548
f 280 372 281
f 248 184 282
f 251 184 144
f 299 17 291
f 283 150 111
f 245 244 288
f 244 268 288
f 284 270 94
f 213 214 162
f 265 238 165
f 262 284 289
f 269 284 262
f 284 166 289
f 257 163 241
f 185 257 241
f 200 292 199
f 251 144 146
f 267 294 274
f 295 184 248
f 245 288 267
f 274 294 275
f 294 268 275
f 163 165 241
f 165 185 241
f 165 238 239
f 255 297 256
f 298 253 250
f 249 298 250
f 267 288 294
f 288 268 294
f 296 253 298
f 287 296 298
f 129 296 287
f 274 276 184
f 300 255 291
f 293 252 265
f 276 302 129
f 303 237 261
f 173 251 146
f 301 152 153
f 267 274 183
f 305 306 307
f 275 268 302
f 276 275 302
f 250 186 188
f 250 253 186
f 302 253 296
f 129 302 296
f 249 188 258
f 183 274 184
f 276 129 184
f 251 183 184
f 183 245 267
f 184 129 287
f 287 298 249
f 144 184 295
f 184 249 258
f 302 268 253
f 309 258 297
f 287 249 184
f 282 258 301
f 301 258 309
f 282 184 258
f 258 256 297
f 310 271 177
f 97 139 633
f 339 311 312
f 92 210 271
f 285 315 316
f 315 311 316
f 339 317 318
f 319 320 321
f 339 323 340
f 278 321 324
f 325 324 339
f 177 179 339
f 86 94 264
f 326 327 328
f 284 269 270
f 55 168 162
f 150 29 167
f 289 166 53
f 290 203 329
f 252 241 240
f 55 162 214
f 96 166 266
f 300 309 297
f 290 242 185
f 258 304 306
f 330 240 242
f 94 166 284
f 152 301 309
f 213 162 167
f 289 86 264
f 55 96 266
f 166 96 299
f 151 150 96
f 283 166 150
f 266 166 283
f 112 266 283
f 168 55 112
f 213 167 29
f 111 150 167
f 55 266 112
f 53 166 299
f 86 150 166
f 94 86 166
f 270 262 263
f 264 94 263
f 94 270 263
f 254 291 255
f 227 199 292
f 252 226 231
f 257 164 163
f 145 144 295
f 329 261 226
f 290 330 242
f 290 329 227
f 203 290 237
f 252 240 200
f 290 239 231
f 329 226 227
f 292 200 330
f 303 203 237
f 307 304 308
f 332 333 334
f 333 332 335
f 289 53 86
f 168 111 167
f 335 299 291
f 299 335 53
f 332 304 335
f 232 334 308
f 299 169 95
f 290 227 292
f 290 292 330
f 226 252 199
f 200 240 330
f 226 261 231
f 185 165 290
f 303 329 203
f 239 290 165
f 303 261 329
f 231 239 238
f 186 331 187
f 164 293 265
f 231 238 252
f 252 293 241
f 241 293 257
f 268 97 253
f 258 187 304
f 306 304 307
f 308 333 307
f 164 265 165
f 164 257 293
f 333 305 307
f 335 304 331
f 305 335 254
f 306 254 256
f 259 248 282
f 152 300 291
f 295 260 145
f 232 304 332
f 153 282 301
f 308 304 232
f 187 331 304
f 145 260 291
f 282 153 259
f 260 295 248
f 334 232 332
f 334 333 308
f 309 300 152
f 256 258 306
f 186 253 331
f 254 335 291
f 248 259 260
f 259 153 291
f 255 300 297
f 306 305 254
f 333 335 305
f 336 337 345
f 92 341 210
f 342 343 344
f 91 341 92
f 320 323 339
f 90 176 139
f 279 325 346
f 205 176 90
f 207 205 90
f 207 90 277
f 348 217 372
f 323 349 340
f 323 319 349
f 219 349 319
f 404 319 321
f 278 404 321
f 320 339 324
f 351 350 352
f 91 353 354
f 95 169 202
f 285 355 221
f 355 356 221
f 353 356 354
f 357 416 358
f 253 97 331
f 359 360 361
f 219 340 349
f 369 368 220
f 352 372 280
f 359 362 345
f 404 363 347
f 364 372 216
f 411 211 338
f 92 365 93
f 345 211 219
f 340 381 339
f 337 336 281
f 219 400 381
f 212 366 367
f 278 324 325
f 404 219 319
f 359 361 370
f 340 219 381
f 285 208 286
f 208 341 286
f 321 320 324
f 317 363 371
f 356 220 221
f 373 285 316
f 179 373 316
f 374 220 356
f 320 319 323
f 325 339 346
f 375 376 377
f 369 374 378
f 379 416 357
f 366 380 367
f 322 312 314
f 210 341 208
f 387 315 285
f 387 339 218
f 177 339 381
f 374 356 353
f 387 382 314
f 382 322 314
f 53 335 523
f 278 325 279
f 383 384 313
f 336 351 280
f 432 277 90
f 400 219 211
f 338 432 411
f 318 346 339
f 377 212 386
f 216 372 217
f 363 364 347
f 388 346 318
f 388 371 404
f 279 388 404
f 310 177 381
f 341 91 354
f 317 371 318
f 391 392 348
f 371 363 404
f 219 404 345
f 348 392 222
f 222 217 348
f 388 279 346
f 222 215 217
f 364 363 317
f 339 364 317
f 372 391 348
f 318 371 388
f 337 360 345
f 404 215 222
f 391 350 392
f 215 404 347
f 215 347 216
f 222 392 404
f 339 372 364
f 347 364 216
f 393 394 357
f 376 395 390
f 396 375 386
f 397 398 399
f 390 212 377
f 613 400 548
f 311 179 316
f 382 339 322
f 351 352 280
f 373 178 209
f 285 373 209
f 355 354 356
f 372 339 387
f 92 271 365
f 178 210 209
f 271 178 177
f 355 285 286
f 354 355 286
f 341 354 286
f 310 365 271
f 339 312 322
f 369 220 374
f 382 218 339
f 387 218 382
f 315 312 311
f 312 315 314
f 315 387 314
f 369 400 613
f 339 179 311
f 368 285 221
f 402 378 374
f 373 179 178
f 336 280 281
f 362 370 367
f 331 470 335
f 331 97 470
f 432 90 235
f 360 337 403
f 380 345 362
f 391 372 352
f 361 401 370
f 350 391 352
f 401 372 387
f 402 374 353
f 403 401 361
f 350 351 404
f 345 360 359
f 404 392 350
f 360 403 361
f 372 401 281
f 336 345 404
f 351 336 404
f 337 281 403
f 281 401 403
f 380 362 367
f 362 359 370
f 405 395 345
f 366 212 406
f 370 401 367
f 401 212 367
f 406 212 313
f 376 390 377
f 394 408 379
f 394 379 357
f 402 353 407
f 396 386 389
f 383 313 409
f 375 377 386
f 400 84 548
f 378 381 369
f 381 407 93
f 212 401 387
f 365 381 93
f 387 285 416
f 416 285 368
f 381 402 407
f 378 402 381
f 365 310 381
f 407 91 93
f 353 91 407
f 416 368 369
f 400 369 381
f 410 212 272
f 313 212 409
f 412 454 413
f 414 389 410
f 523 335 470
f 411 432 84
f 415 366 406
f 211 345 507
f 211 84 400
f 393 357 358
f 384 406 313
f 380 366 415
f 345 415 384
f 384 415 406
f 380 415 345
f 395 376 417
f 376 375 417
f 345 395 417
f 387 416 212
f 383 405 345
f 418 419 420
f 384 383 345
f 421 422 408
f 375 396 417
f 397 423 398
f 408 422 379
f 386 212 389
f 405 383 409
f 405 409 424
f 409 212 424
f 423 425 398
f 426 272 273
f 426 427 272
f 405 424 395
f 395 424 390
f 424 212 390
f 369 613 416
f 428 393 358
f 422 416 379
f 342 429 417
f 430 385 431
f 427 410 272
f 428 358 385
f 417 427 426
f 414 427 417
f 389 212 410
f 426 421 417
f 399 416 433
f 396 389 414
f 435 454 436
f 408 394 417
f 421 408 417
f 417 396 414
f 428 417 393
f 342 437 343
f 434 438 439
f 394 393 417
f 427 414 410
f 438 416 439
f 358 416 385
f 343 416 344
f 440 439 425
f 421 426 273
f 273 416 422
f 421 273 422
f 273 212 416
f 423 440 425
f 416 613 483
f 235 84 432
f 441 436 442
f 428 385 430
f 430 437 417
f 398 416 399
f 523 239 53
f 385 416 431
f 437 431 343
f 397 472 423
f 443 483 444
f 417 428 430
f 472 429 434
f 345 417 507
f 417 429 472
f 437 430 431
f 417 437 342
f 507 417 472
f 425 416 398
f 472 434 440
f 429 438 434
f 423 472 440
f 431 416 343
f 434 439 440
f 445 435 436
f 439 416 425
f 344 416 438
f 429 344 438
f 429 342 344
f 446 447 448
f 419 454 435
f 442 454 448
f 449 450 451
f 326 328 443
f 420 435 445
f 452 399 433
f 453 454 419
f 436 454 442
f 447 441 442
f 472 418 420
f 418 453 419
f 456 453 418
f 456 472 452
f 472 397 452
f 446 448 457
f 458 457 459
f 472 456 418
f 397 399 452
f 472 445 441
f 472 420 445
f 446 472 447
f 447 472 441
f 445 436 441
f 447 442 448
f 420 419 435
f 433 416 453
f 456 433 453
f 456 452 433
f 453 416 454
f 448 454 457
f 483 454 416
f 460 413 461
f 462 483 463
f 460 412 413
f 464 483 328
f 465 412 460
f 466 467 468
f 469 464 327
f 327 464 328
f 507 460 461
f 457 454 459
f 507 446 458
f 633 139 211
f 465 507 458
f 461 473 469
f 459 454 412
f 461 413 473
f 471 443 444
f 328 483 443
f 472 446 507
f 465 459 412
f 469 473 464
f 473 483 464
f 471 507 326
f 507 465 460
f 446 457 458
f 507 461 469
f 507 469 327
f 474 483 462
f 465 458 459
f 471 326 443
f 473 454 483
f 326 507 327
f 413 454 473
f 475 463 476
f 477 474 478
f 477 480 474
f 467 476 468
f 481 463 475
f 463 483 476
f 444 483 482
f 480 483 474
f 468 483 484
f 485 575 486
f 238 239 553
f 507 487 488
f 471 444 487
f 478 462 481
f 487 444 482
f 488 480 477
f 481 462 463
f 507 488 477
f 475 476 467
f 507 478 481
f 507 471 487
f 466 507 467
f 507 481 475
f 476 483 468
f 507 477 478
f 478 474 462
f 507 475 467
f 488 482 480
f 482 483 480
f 487 482 488
f 466 468 484
f 490 491 492
f 522 493 494
f 495 496 497
f 479 483 485
f 501 450 449
f 450 483 451
f 502 479 485
f 503 622 504
f 97 523 470
f 507 449 505
f 451 483 479
f 507 466 508
f 537 502 509
f 495 486 496
f 486 575 496
f 509 485 486
f 496 575 510
f 507 501 449
f 537 509 495
f 501 507 508
f 502 485 509
f 508 484 511
f 449 451 505
f 484 483 511
f 466 484 508
f 537 505 502
f 507 505 537
f 537 495 497
f 505 451 479
f 501 508 511
f 501 511 450
f 505 479 502
f 509 486 495
f 511 483 450
f 485 483 575
f 497 496 510
f 483 613 575
f 513 514 515
f 506 455 516
f 518 519 520
f 518 521 519
f 521 575 519
f 239 523 627
f 537 527 528
f 537 497 529
f 524 575 521
f 537 529 527
f 569 531 532
f 533 521 518
f 534 524 533
f 528 526 536
f 527 526 528
f 537 528 534
f 510 575 538
f 529 510 538
f 533 524 521
f 537 534 533
f 539 535 540
f 497 510 529
f 537 518 520
f 539 537 520
f 526 575 536
f 535 577 540
f 537 533 518
f 519 575 577
f 519 577 535
f 536 575 524
f 528 536 534
f 529 538 527
f 527 538 526
f 538 575 526
f 534 536 524
f 520 519 535
f 539 520 535
f 525 542 543
f 525 530 542
f 545 546 547
f 514 577 515
f 532 530 525
f 543 514 513
f 530 577 542
f 550 577 551
f 546 577 547
f 238 553 548
f 554 493 503
f 569 507 537
f 97 675 523
f 675 97 633
f 537 539 555
f 549 550 531
f 555 540 544
f 544 577 550
f 569 537 555
f 543 542 514
f 531 550 551
f 542 577 514
f 556 569 513
f 569 549 531
f 540 577 544
f 556 513 515
f 507 569 211
f 569 555 549
f 539 540 555
f 569 525 543
f 549 544 550
f 569 543 513
f 515 577 557
f 569 532 525
f 552 522 494
f 555 544 549
f 551 577 530
f 532 551 530
f 531 551 532
f 556 515 557
f 558 559 560
f 561 562 563
f 564 545 547
f 565 562 561
f 566 567 568
f 557 577 570
f 565 570 562
f 569 565 561
f 569 556 572
f 569 572 565
f 573 577 546
f 572 570 565
f 564 547 574
f 563 577 559
f 569 558 560
f 576 573 546
f 570 577 562
f 572 557 570
f 556 557 572
f 569 561 558
f 545 576 546
f 564 606 545
f 560 559 573
f 606 569 560
f 558 563 559
f 606 560 576
f 561 563 558
f 545 606 576
f 559 577 573
f 562 577 563
f 547 577 574
f 574 577 610
f 560 573 576
f 608 575 613
f 552 499 522
f 581 582 583
f 606 584 585
f 587 588 589
f 587 632 588
f 590 591 610
f 606 593 591
f 574 610 594
f 595 596 597
f 584 574 594
f 606 564 584
f 606 585 598
f 564 574 584
f 626 569 606
f 211 569 626
f 606 591 590
f 606 598 593
f 585 594 599
f 601 606 590
f 584 594 585
f 506 600 617
f 608 577 575
f 608 613 615
f 506 602 600
f 603 604 605
f 602 516 600
f 602 506 516
f 591 593 607
f 599 609 598
f 609 599 610
f 607 609 610
f 611 608 615
f 599 594 610
f 608 601 610
f 577 608 610
f 611 614 612
f 601 590 610
f 614 611 615
f 607 610 591
f 612 601 611
f 601 608 611
f 613 614 615
f 614 613 612
f 552 554 504
f 624 622 503
f 624 499 523
f 593 598 609
f 609 607 593
f 598 585 599
f 619 620 621
f 554 503 504
f 600 625 617
f 580 600 516
f 493 522 624
f 522 499 624
f 554 552 494
f 493 624 503
f 554 494 493
f 627 499 676
f 580 516 455
f 580 625 600
f 625 580 455
f 617 455 506
f 571 623 582
f 504 622 552
f 523 675 657
f 552 622 499
f 499 498 676
f 455 553 625
f 617 625 553
f 581 623 582
f 581 632 623
f 601 612 626
f 626 612 613
f 626 613 548
f 596 628 704
f 595 628 596
f 622 624 523
f 499 622 655
f 568 655 578
f 630 578 676
f 578 630 568
f 578 655 676
f 634 635 636
f 637 635 583
f 618 637 583
f 582 618 583
f 582 637 618
f 640 490 704
f 490 640 491
f 645 628 595
f 646 647 656
f 626 606 601
f 648 649 605
f 650 512 644
f 643 651 652
f 655 567 498
f 498 630 676
f 567 655 568
f 630 567 566
f 630 498 567
f 617 553 455
f 655 498 499
f 631 603 654
f 604 603 631
f 579 647 646
f 656 658 659
f 623 618 582
f 618 571 582
f 658 660 659
f 661 629 662
f 663 647 664
f 665 666 667
f 592 583 635
f 663 658 656
f 632 587 668
f 587 669 668
f 587 589 669
f 588 636 589
f 632 571 618
f 632 581 592
f 581 583 592
f 634 592 635
f 634 632 592
f 638 582 623
f 647 663 656
f 665 668 666
f 668 665 632
f 632 634 588
f 634 636 588
f 638 637 582
f 623 632 618
f 668 669 666
f 500 517 670
f 672 673 517
f 674 673 672
f 571 638 623
f 679 635 637
f 589 636 679
f 684 571 586
f 639 678 643
f 679 571 684
f 679 667 666
f 679 636 635
f 669 589 679
f 571 679 637
f 666 669 679
f 571 637 638
f 553 239 627
f 748 688 689
f 627 626 671
f 674 672 653
f 690 691 692
f 211 512 586
f 679 693 685
f 654 642 631
f 642 656 631
f 737 694 704
f 694 737 695
f 211 586 633
f 696 500 697
f 681 621 679
f 627 512 626
f 500 652 639
f 654 541 660
f 541 659 660
f 660 700 523
f 700 660 658
f 701 692 704
f 701 690 692
f 629 661 702
f 211 626 704
f 705 706 707
f 696 705 707
f 690 701 708
f 626 548 671
f 687 709 704
f 687 662 709
f 683 678 639
f 702 710 492
f 655 622 523
f 499 627 523
f 652 682 639
f 655 523 676
f 605 656 648
f 711 646 656
f 523 700 664
f 700 663 664
f 627 676 586
f 553 517 500
f 523 586 676
f 632 627 586
f 517 673 670
f 712 679 713
f 604 631 656
f 523 657 642
f 714 715 716
f 717 640 704
f 640 717 718
f 632 586 571
f 682 652 651
f 489 517 500
f 699 682 651
f 672 720 653
f 517 720 672
f 694 695 721
f 677 722 748
f 719 723 724
f 723 693 724
f 725 679 712
f 632 665 726
f 665 667 726
f 719 632 726
f 727 728 729
f 730 725 731
f 719 619 732
f 619 621 732
f 728 716 679
f 724 693 620
f 726 667 685
f 723 726 685
f 726 723 719
f 619 724 620
f 619 719 724
f 723 685 693
f 719 734 714
f 734 715 714
f 677 725 712
f 734 681 715
f 735 714 716
f 735 719 714
f 732 621 681
f 679 684 713
f 725 677 731
f 734 732 681
f 734 719 732
f 735 716 728
f 489 500 517
f 641 733 679
f 689 731 748
f 670 673 674
f 720 697 653
f 738 689 688
f 684 586 748
f 680 722 713
f 684 680 713
f 689 730 731
f 680 684 748
f 719 735 727
f 735 728 727
f 512 704 644
f 729 679 733
f 683 698 678
f 730 738 679
f 679 725 730
f 736 727 729
f 736 719 727
f 739 740 708
f 586 523 633
f 706 517 707
f 691 650 686
f 748 741 688
f 211 704 512
f 692 686 704
f 691 686 692
f 712 713 722
f 689 738 730
f 648 656 659
f 677 712 722
f 677 748 731
f 748 722 680
f 548 500 639
f 685 667 679
f 620 693 679
f 621 620 679
f 744 742 743
f 697 720 745
f 720 706 745
f 716 715 679
f 512 629 626
f 697 745 696
f 661 662 687
f 670 674 500
f 512 691 690
f 698 683 699
f 653 500 674
f 643 500 696
f 553 500 548
f 643 707 517
f 643 696 707
f 651 643 698
f 691 512 650
f 686 644 704
f 686 650 644
f 656 633 711
f 642 654 523
f 721 616 597
f 678 698 643
f 654 603 649
f 603 605 649
f 642 657 656
f 541 648 659
f 700 658 663
f 664 579 523
f 579 664 647
f 523 579 746
f 579 646 746
f 654 660 523
f 649 541 654
f 648 541 649
f 711 523 746
f 604 656 605
f 523 711 633
f 711 746 646
f 675 656 657
f 745 705 696
f 705 745 706
f 553 627 671
f 720 517 706
f 717 645 718
f 616 595 597
f 553 671 517
f 633 656 675
f 719 736 733
f 683 682 699
f 616 721 695
f 729 728 679
f 736 729 733
f 719 627 632
f 627 719 733
f 747 743 679
f 653 697 500
f 671 643 517
f 671 639 643
f 682 683 639
f 733 641 512
f 679 715 681
f 629 491 718
f 679 743 742
f 641 586 512
f 679 742 641
f 742 744 641
f 747 679 738
f 741 743 747
f 641 744 748
f 748 744 741
f 733 512 627
f 641 748 586
f 743 741 744
f 747 688 741
f 747 738 688
f 597 749 721
f 629 645 595
f 490 710 704
f 492 710 490
f 643 652 500
f 651 698 699
f 629 708 740
f 616 695 737
f 662 629 740
f 718 645 629
f 717 628 645
f 628 717 704
f 709 662 740
f 629 512 708
f 629 492 491
f 702 661 750
f 701 739 708
f 739 701 704
f 710 750 704
f 702 750 710
f 690 708 512
f 629 702 492
f 639 671 548
f 750 687 704
f 661 687 750
f 694 749 704
f 721 749 694
f 749 596 704
f 597 596 749
f 703 626 616
f 704 626 703
f 616 629 595
f 640 718 491
f 709 739 704
f 740 739 709
f 616 737 703
f 737 704 703
f 626 629 616
f 630 566 568

