# https://github.com/mikedh/trimesh
v -0.64873445 0.34384811 -0.34357008
v -0.64873445 0.34390810 -0.33966008
v -0.64868444 0.34397811 -0.33966008
v -0.64872444 0.34397811 -0.33576009
v -0.64873445 0.34397811 -0.33462009
v -0.64873445 0.34379810 -0.34748009
v -0.64873111 0.34396487 -0.33576015
v -0.67209083 0.31271759 -0.34178549
v -0.64234328 0.35227332 -0.36296120
v -0.57530898 0.44204980 -0.40321779
v -0.64862370 0.34393069 -0.34937808
v -0.55116773 -0.09521333 0.41036880
v -0.66007799 0.32841885 -0.32448190
v -0.65471625 0.25802583 -0.53889769
v -0.63708723 0.35970554 -0.34027320
v -0.64864445 0.34397811 -0.34357008
v -0.61476219 0.51672751 -0.41874206
v -0.70755076 0.34026316 -0.60438812
v -0.54308146 0.35997173 -0.18581729
v -0.65898860 -0.00829996 -0.00442484
v -0.59405446 0.53528810 -0.44123009
v -0.59014446 0.53537810 -0.43732008
v -0.58642358 0.53534901 -0.43332830
v -0.58643448 0.53537810 -0.43341008
v -0.59014153 0.53537810 -0.43732730
v -0.47231647 0.16870065 0.37413272
v -0.41045448 0.28147811 -0.69507015
v -0.41053626 0.28147087 -0.69508177
v -0.58623445 0.53703809 -0.43732008
v -0.36207354 -0.02622768 0.51215434
v -0.43780449 -0.13651191 0.16032989
v -0.43775448 -0.13648191 0.16032989
v -0.43389446 -0.13648191 0.16408990
v -0.54988533 0.06686411 -0.17546423
v -0.43394643 0.05083211 -0.01400022
v -0.31626225 0.18580024 -0.64341140
v -0.52134049 0.17427696 0.44142342
v -0.52570671 0.49841881 -0.70427811
v -0.52380013 0.17208576 0.43386406
v -0.52264249 0.55781400 -0.44914985
v -0.58468986 0.55212820 -0.48669222
v -0.50703561 0.56198382 -0.43879491
v -0.40129051 0.07356227 0.35742986
v -0.48051578 -0.13346924 0.11642385
v -0.50810444 0.17209809 0.41813990
v -0.51983446 0.17208809 0.42985991
v -0.51982468 0.17209812 0.42992032
v -0.49248448 0.17466809 0.41422990
v -0.52364445 0.17209809 0.43376991
v -0.51983446 0.17293809 0.43376991
v -0.50030446 0.17209809 0.41028991
v -0.50030446 0.17125811 0.40641990
v -0.50033444 0.17209809 0.41032991
v -0.53175676 0.31187785 -0.72571748
v -0.48858446 0.17209809 0.39850992
v -0.49246785 0.17024489 0.39410943
v -0.49248448 0.17126809 0.39860991
v -0.48479447 0.17209809 0.39469990
v -0.50422448 0.17209809 0.41422990
v -0.50420445 0.17209809 0.41422990
v -0.51592445 0.17208809 0.42594990
v -0.51430637 0.17224421 0.42475608
v -0.54542583 0.15879761 0.41950184
v -0.50850338 0.17207028 0.41814995
v -0.50030446 0.17210810 0.41032991
v -0.50420445 0.17209809 0.41421992
v -0.49248448 0.17211810 0.40251991
v -0.49639446 0.17210810 0.40641990
v -0.49639446 0.17125811 0.40251991
v -0.50420445 0.17295809 0.41813990
v -0.50420445 0.17124809 0.41032991
v -0.48881948 0.17210585 0.39877427
v -0.47295448 0.17469810 0.39469990
v -0.47686446 0.17213809 0.38688990
v -0.48076445 0.17212810 0.39079991
v -0.42605445 0.18381809 -0.55451012
v -0.42588446 0.17990810 -0.55060011
v -0.42608446 0.18380809 -0.55451012
v -0.51897293 0.55985951 -0.38636687
v -0.50418496 0.56272459 -0.46084389
v -0.50415444 0.56272811 -0.45294008
v -0.50420445 0.56271809 -0.46076009
v -0.50420445 0.56270808 -0.45685008
v -0.50416446 0.56272811 -0.45685008
v -0.42439738 -0.15623029 0.19948910
v -0.48467448 0.17127809 0.39079991
v -0.48091212 0.17209823 0.39079851
v -0.49639446 0.17209809 0.40635991
v -0.49256447 0.17209809 0.40251991
v -0.48467448 0.17212810 0.39469990
v -0.47686446 0.17468809 0.39860991
v -0.48467448 0.17209809 0.39457992
v -0.39092448 0.17990810 0.33614990
v -0.48416477 0.19649112 -0.57426620
v -0.48858446 0.17211810 0.39860991
v -0.49645445 0.17209809 0.40641990
v -0.49248448 0.17209809 0.40242991
v -0.43404299 -0.13667279 0.16425014
v -0.43381113 -0.13647284 0.16415174
v -0.42998448 -0.13648191 0.16790991
v -0.39777744 0.53378350 -0.39252812
v -0.42169774 0.19434482 0.44373876
v -0.40253448 0.17990810 0.34782991
v -0.40264446 0.17988810 0.34782991
v -0.40264446 0.17990810 0.34792992
v -0.43783095 -0.13647820 0.16024330
v -0.44170448 -0.13869190 0.16032989
v -0.35859883 0.12287598 -0.47600222
v -0.57355583 0.07596922 0.52959043
v -0.41236094 0.07038514 0.36501339
v -0.41045448 0.18157808 0.36344990
v -0.40642449 0.17990810 0.35172990
v -0.40264446 0.18158810 0.35563990
v -0.26703259 0.09125335 -0.28512576
v -0.37375402 0.20644239 -0.35160905
v -0.39483446 0.17989810 0.34001991
v -0.39481115 0.17990752 0.34005722
v -0.40655449 0.17987809 0.35172990
v -0.40667632 0.27395248 -0.69122219
v -0.51632178 0.49144533 -0.72275251
v -0.41041303 0.28171015 -0.69514817
v -0.43322575 0.26393172 -0.69318724
v -0.39873448 0.17988810 0.34391990
v -0.41436446 0.28928810 -0.69900012
v -0.28327495 0.21778661 -0.19045717
v -0.39861870 0.17991924 0.34393424
v -0.39865449 0.17990810 0.34391990
v -0.27346504 0.42324972 -0.64735693
v -0.22832762 0.46979311 -0.77355313
v -0.42054293 -0.74688768 0.54739267
v -0.42671141 -0.09348398 0.10495808
v -0.40655449 0.17990810 0.35185990
v -0.41030446 0.17990810 0.35563990
v -0.41058385 0.17987673 0.35576805
v -0.39873448 0.18074809 0.34782991
v -0.39469793 0.09324728 0.34792209
v -0.33153662 0.20143913 0.37480202
v -0.43049511 0.17019394 -0.54287577
v -0.37028143 0.21538568 -0.55417824
v -0.42610261 0.18402292 -0.55471969
v -0.40264446 0.27365810 -0.69020009
v -0.41189063 0.18555719 -0.55060643
v -0.39093092 0.09787474 0.34391990
v -0.40655449 0.27403808 -0.69123012
v -0.39978117 0.19531453 -0.29736707
v -0.39090633 0.09783962 0.34391832
v -0.39092100 0.09786941 0.34391955
v -0.38700745 0.10190291 0.34004927
v -0.38701445 0.10178809 0.34008992
v -0.37519446 0.19943810 -0.35529009
v -0.37548229 0.20021053 -0.35380402
v -0.37530449 0.19166809 -0.36310008
v -0.42669010 0.17974719 -0.55076176
v -0.42608446 0.17990810 -0.55068010
v -0.39621595 0.17214829 0.32338643
v -0.37530449 0.19920810 -0.35529009
v -0.37530449 0.19553809 -0.35909009
v -0.37526560 0.19536829 -0.35935384
v -0.37188095 0.18377465 -0.37940857
v -0.37530857 0.19543698 -0.35918230
v -0.38311446 0.10178809 0.33764991
v -0.44100058 0.55848205 -0.42504531
v -0.28691655 -0.66706061 0.58999193
v -0.38696831 0.10170856 0.34009004
v -0.37513864 0.07236683 0.33137050
v -0.30341753 -0.91292775 0.57549024
v -0.29322585 -0.64820230 0.56654423
v -0.28948537 -0.65212417 0.57042712
v -0.29326445 -0.64822191 0.56657988
v -0.28936446 -0.65211189 0.57035989
v -0.27378133 -0.73805171 0.68766707
v -0.26989588 -0.73803729 0.68362600
v -0.28545448 -0.65338188 0.57047987
v -0.29330564 -0.64821786 0.56659430
v -0.30074015 -0.64389247 0.56368822
v -0.31295118 -0.05930173 0.34913719
v -0.29597434 -0.61070454 0.51770270
v -0.31864882 0.28054270 -0.66705477
v -0.26695564 -0.75776303 0.70265096
v -0.27001449 -0.73805189 0.68376988
v -0.28097168 -0.65385979 0.56834662
v -0.34003660 -0.64245015 0.87270087
v -0.27935094 -0.73538190 0.69107628
v -0.28475574 -0.72904408 0.68767476
v -0.26961160 -0.73817933 0.68352181
v -0.25779146 -0.71520424 0.62041515
v -0.24350306 -0.61905825 0.23133805
v -0.23076448 -0.63139188 0.26579991
v -0.23631115 0.04065265 -0.56607175
v -0.22295448 -0.62867188 0.26967990
v -0.28717196 -0.71818578 0.68434250
v -0.12139448 0.02977809 0.28532991
v -0.11358447 0.03064809 0.28141990
v -0.11368448 0.03147810 0.28532991
v -0.21314798 0.42348617 -0.69992971
v -0.17579682 0.21297033 0.28364125
v -0.09017195 0.60385877 -0.43204108
v -0.27373448 -0.73808187 0.68766987
v -0.27373448 -0.74113190 0.69157988
v -0.22686450 -0.62867188 0.26578990
v -0.22527193 0.05154538 -0.59446824
v -0.22686447 -0.62868190 0.26579991
v -0.10054128 0.03106593 0.27012581
v -0.22296073 0.03930393 -0.58575946
v -0.22295448 0.03928810 -0.58575010
v -0.22295450 0.03540745 -0.58184946
v -0.22294447 0.03537809 -0.58185011
v -0.22295448 0.03150810 -0.57794011
v -0.17262460 0.03408310 0.34452572
v -0.17461322 0.40017176 -0.73784202
v -0.29199681 0.55334973 -0.24322417
v -0.15741597 0.38061103 -0.73537064
v 0.10840207 -0.56769389 0.56986171
v -0.21731448 -0.62477189 0.26969990
v -0.22295448 -0.62869191 0.26969990
v -0.22069494 -0.64649278 0.29745722
v -0.22293447 -0.62867188 0.26969990
v -0.21905448 -0.62867188 0.27356991
v -0.22142999 -0.44051450 0.22457361
v -0.23956288 -0.45004225 -0.14930882
v -0.19166629 -0.38944778 -0.33255246
v -0.21905448 -0.40006191 -0.18732008
v -0.21905448 -0.39820188 -0.18335009
v -0.21905448 -0.39823192 -0.18341009
v -0.16936406 -0.55685443 -0.23576397
v -0.22294118 0.04323601 -0.58964455
v -0.22294955 0.03929108 -0.58575732
v -0.20890954 -0.61241990 0.26337013
v -0.14483447 0.03060809 0.31266990
v -0.27885604 0.42578548 -0.43908423
v -0.11048077 0.50043350 -0.28871530
v -0.17247580 0.39471120 -0.73819029
v -0.17256448 0.39475808 -0.73810011
v -0.17608447 0.39475808 -0.73417014
v -0.12921900 0.03147838 0.30094984
v -0.13307036 0.03146850 0.30488214
v -0.21843448 -0.39820188 -0.18732008
v -0.20680726 -0.37489527 -0.16319381
v -0.21633448 -0.39430189 -0.18341009
v -0.20863590 -0.38753077 -0.21999204
v -0.21904448 -0.39820188 -0.18341009
v -0.11358447 0.03149810 0.28532991
v -0.11358447 0.03147810 0.28522992
v -0.10967448 0.03149810 0.28141990
v -0.19171265 -0.38209701 -0.33998770
v -0.18780668 -0.39827982 -0.34357020
v -0.19164447 -0.38648188 -0.33576009
v -0.19167447 -0.38258189 -0.33966008
v -0.20723782 -0.38354582 -0.28405768
v -0.12139448 0.03147810 0.29307991
v -0.12530448 0.03062810 0.29313990
v -0.14441983 0.02285892 0.27674794
v -0.17609560 0.39482802 -0.73416692
v -0.19170448 -0.38618189 -0.33576009
v -0.12961386 0.04373499 0.31658947
v -0.13311447 0.03232809 0.30876991
v -0.10489008 0.04395416 0.30094758
v -0.07892685 -0.07105676 -0.28378317
v -0.12530448 0.03232809 0.30094990
v -0.14483774 0.03146148 0.31659377
v -0.12139448 0.03148809 0.29313990
v -0.12145448 0.03147810 0.29313990
v -0.11748447 0.03148809 0.28922990
v -0.14411059 0.03883123 0.32429790
v -0.13701448 0.02976810 0.30094990
v -0.13701448 0.03146809 0.30876991
v -0.13701448 0.03147810 0.30878991
v -0.13699448 0.03147810 0.30876991
v -0.14092447 0.03147810 0.31271991
v -0.14092447 0.03145810 0.31266990
v -0.14087448 0.03147810 0.31266990
v -0.12530448 0.03147810 0.29704991
v -0.12920448 0.03147810 0.30094990
v -0.12920448 0.03147810 0.30093992
v -0.14476447 0.03147810 0.31657991
v -0.13985913 0.03367203 0.31704590
v -0.14290448 0.03537809 0.32047990
v -0.17968322 0.39428198 -0.73006970
v -0.17607091 0.39475775 -0.73417884
v -0.17108037 -0.01796249 -0.60113382
v -0.13478376 0.03343340 0.31313950
v -0.11756448 0.03147810 0.28922990
v -0.13311447 0.03146809 0.30485991
v -0.13734448 0.03537809 0.31657991
v -0.13311447 0.03147810 0.30485991
v -0.11748447 0.03147810 0.28914991
v -0.10969234 0.03147808 0.28131762
v -0.12531430 0.03147809 0.29702303
v -0.07547028 0.68637311 -0.28597811
v -0.00642238 0.21062918 0.18149434
v -0.10576448 0.03150810 0.27751991
v -0.16982198 -0.21176901 -0.37561589
v 0.01919619 0.00904449 0.21177778
v -0.06430135 0.40909761 -0.19030657
v -0.04310525 -0.45441410 -0.41392690
v 0.00359552 0.39858812 -0.83185011
v -0.02445268 0.38488510 0.03561953
v -0.03149262 0.49767342 -0.26777712
v 0.09344552 0.21554810 0.03532991
v 0.00227988 0.49447513 -0.22941341
v -0.01200690 0.47678506 -0.22247905
v -0.00811448 0.48068807 -0.22268011
v -0.00529527 0.48343208 -0.22274800
v -0.01983448 0.72678810 -0.29137009
v -0.11139756 0.82905591 -0.28670713
v -0.02373447 0.71897811 -0.28753009
v -0.00030448 0.39865810 -0.83183014
v 0.00065266 0.40667355 -0.82817745
v -0.00071320 0.39866337 -0.83186090
v 0.00600187 0.39971751 -0.83792663
v -0.01201448 0.47927812 -0.22638009
v -0.00811448 0.48056811 -0.22248009
v -0.01201448 0.47678810 -0.22249009
v -0.01592448 0.47567809 -0.22638009
v 0.01576352 0.48442885 -0.12994193
v 0.03484519 0.51198834 -0.16386706
v -0.02764448 0.72668809 -0.28888008
v -0.02764448 0.72678810 -0.28891009
v -0.02381448 0.72287810 -0.28888008
v -0.02373447 0.72287810 -0.28890008
v -0.01983448 0.72287810 -0.29014009
v -0.02373447 0.72280812 -0.28888008
v -0.01076271 0.71825790 -0.28998050
v -0.02764448 0.73068810 -0.29015008
v -0.02764448 0.72287810 -0.28767008
v -0.02774448 0.72678810 -0.28888008
v -0.01848507 0.78533846 -0.31247628
v 0.01495193 -0.50682729 0.23777966
v 0.07159156 -0.48043832 0.18680693
v 0.01275465 -0.29376245 -0.23475072
v 0.02726156 -0.16663441 -0.52073902
v 0.04361953 0.01237697 0.06916580
v 0.02342798 0.20314822 -0.85624015
v 0.00806056 0.39857173 -0.83180171
v 0.00750552 0.39854807 -0.83185011
v 0.00359552 0.39865810 -0.83178014
v 0.08953553 0.21895809 0.05485991
v 0.08562552 0.21894810 0.05876991
v 0.08573552 0.21897811 0.05876991
v -0.03059481 0.40139437 -0.85277927
v -0.00251613 0.55444759 -0.18062414
v 0.08172552 0.21808809 0.05876991
v -0.11031488 0.46707597 -0.66536856
v 0.03551985 0.51127839 -0.16386111
v 0.03484552 0.50803810 -0.16143011
v 0.02703553 0.51584810 -0.16135009
v 0.03484552 0.51584810 -0.16625009
v 0.03094552 0.51584810 -0.16380011
v 0.03094552 0.51597810 -0.16388009
v 0.03484552 0.51193810 -0.16384009
v 0.03107553 0.51584810 -0.16388009
v 0.11606040 0.65397710 -0.42896166
v 0.12608464 -0.53337902 0.24483165
v 0.04664097 -0.16159508 0.12019786
v 0.12859553 -0.71596187 0.54704988
v 0.12859553 -0.71845192 0.54313987
v 0.13250552 -0.71849191 0.54313987
v 0.06775553 -0.14430191 -0.45685008
v 0.07000552 -0.14430191 -0.45294008
v 0.07000552 -0.14047191 -0.45685008
v 0.07004552 -0.14039190 -0.45685008
v 0.07234553 -0.13648191 -0.45685008
v 0.07459553 -0.13648191 -0.45294008
v 0.07000552 -0.14039190 -0.45693010
v 0.02528493 -0.08994032 -0.52598685
v 0.08521192 -0.78592515 0.35354847
v -0.00915051 0.31739518 -0.17037725
v 0.07786416 0.21894866 0.06656843
v 0.08172552 0.21894810 0.06266991
v 0.09344552 0.21895809 0.05094991
v 0.19109553 0.23850809 0.01968991
v 0.19109328 0.23850808 0.01969069
v 0.19109553 0.23850809 0.01969991
v 0.03811128 0.20527278 0.04152139
v 0.08172552 0.21897811 0.06279990
v 0.08185553 0.21897811 0.06266991
v 0.10515553 0.21811809 0.03532991
v 0.03128009 0.52727264 -0.63676041
v 0.11976186 0.31756458 -0.20275716
v 0.10516553 0.21897809 0.03922989
v 0.09576044 -0.79675019 0.41723934
v 0.09734552 -0.78883189 0.42997992
v 0.10125552 -0.78896189 0.42985991
v 0.09734552 -0.78890187 0.42985991
v 0.09734552 -0.53101188 0.22672991
v 0.09734664 -0.53101921 0.22673377
v 0.10125552 -0.52714187 0.22672991
v 0.09218139 -0.78561330 0.43500566
v 0.10515553 -0.52989191 0.23063990
v 0.10128552 -0.52711189 0.22672991
v 0.09458552 -0.52711189 0.22282989
v 0.16723613 -0.37120971 -0.14081447
v 0.07682295 -0.18126136 -0.40583739
v -0.02159650 -0.73387015 0.48289776
v 0.07000552 -0.14430191 -0.45295009
v 0.07679938 -0.12579101 -0.46240419
v 0.09344552 -0.78883189 0.42987990
v 0.09251553 -0.78883189 0.42985991
v 0.27741292 -0.09679744 0.18922475
v -0.00576232 -0.07286482 -0.61296862
v 0.13254146 -0.71852177 0.54309624
v 0.10515553 -0.52320188 0.22668990
v 0.11262836 -0.10512974 -0.39220268
v 0.07885111 -0.77338618 0.45423302
v 0.10125552 -0.52711189 0.22671992
v 0.10906553 0.03948810 -0.65998012
v 0.11297552 0.04318809 -0.65993011
v 0.13259631 0.12260838 -0.69311959
v 0.10125544 -0.02715002 0.17595135
v 0.08962552 0.21897811 0.05485991
v 0.09593595 0.20956479 0.01075497
v 0.10125552 0.21896809 0.04313991
v 0.09734552 0.21895809 0.04704990
v 0.09739552 0.21897811 0.04704990
v 0.10127215 0.21897991 0.04315316
v 0.10125552 0.21981809 0.04704990
v 0.08562552 0.21897811 0.05887991
v 0.09349800 0.21898150 0.05097424
v 0.07796553 0.21897811 0.06657990
v 0.10127553 0.21897811 0.04313991
v 0.10515553 0.21896809 0.03922991
v 0.11351579 0.04387606 -0.66003311
v 0.09734552 0.21897811 0.04708991
v 0.08884773 0.59289646 -0.18755057
v 0.00640452 0.46328297 -0.16505131
v 0.09344552 -0.78884190 0.42985991
v 0.13250552 0.50022811 -0.62470013
v 0.08022664 0.51586992 -0.20149501
v 0.12469552 -0.71852189 0.54299986
v 0.12078553 -0.71852189 0.54294986
v 0.12469552 -0.71842188 0.54313987
v 0.14051756 -0.70495427 0.56558734
v 0.11897538 -0.71845186 0.54302728
v 0.06684643 -0.53342813 -0.19409917
v 0.13609688 -0.18200672 0.11145851
v 0.10906553 0.03537809 -0.65777010
v 0.10902766 0.04315368 -0.66196299
v 0.10592704 -0.78878778 0.43025801
v 0.12859553 -0.71852189 0.54304987
v 0.10530686 0.04584831 -0.66502225
v 0.10906553 0.03928810 -0.65987015
v 0.11282186 0.04303775 -0.65995651
v 0.10885552 0.03928810 -0.65998012
v 0.09344552 0.22151810 0.06266991
v 0.11687552 0.04318809 -0.65791011
v 0.12747735 0.23170657 0.07749688
v 0.19500552 0.23850809 0.01579991
v 0.20672552 0.24107809 0.01579991
v 0.19890553 0.23851809 0.01188991
v 0.09350552 0.21897811 0.05094991
v 0.11549194 0.21899362 0.02898367
v 0.08562552 0.22150809 0.07047991
v 0.09955297 0.39085498 -0.84000409
v 0.13250552 0.49240810 -0.63059014
v 0.15587552 0.49240810 -0.61310011
v 0.15203552 0.49621809 -0.61310011
v 0.13577889 0.45336944 -0.68557370
v 0.15203552 0.49631810 -0.61302012
v 0.15203552 0.50412810 -0.60713011
v 0.17196903 0.29286352 -0.21094972
v 0.14020103 0.49234816 -0.62487918
v 0.13640553 0.49631810 -0.62472010
v 0.13210674 0.51233047 -0.61285162
v 0.23015553 0.47677812 -0.55451012
v 0.23015553 0.47678810 -0.55449009
v 0.23243552 0.47287810 -0.55451012
v 0.11264546 0.69840038 -0.26431298
v 0.15203552 0.73445809 -0.30060008
v 0.15394560 0.73073435 -0.29724178
v 0.15594552 0.73453808 -0.30060008
v 0.08696482 0.77390575 -0.35755268
v 0.15185300 0.73454970 -0.30068862
v 0.12161014 0.04131207 -0.65436423
v 0.22621647 -0.14847058 -0.19517399
v 0.22235020 -0.14464252 -0.19091029
v 0.22236553 -0.14430191 -0.19123009
v 0.18513569 0.04674483 0.00183183
v 0.24356160 0.02939778 -0.48010838
v 0.15971126 -0.04041160 -0.56524253
v 0.21555281 -0.76164436 0.46691248
v 0.19499348 0.23850808 0.01576863
v 0.17156552 0.29287812 -0.21076009
v 0.17547552 0.28537810 -0.20873009
v 0.15193552 0.49631810 -0.61310011
v 0.21225417 0.33672804 -0.77375424
v 0.18841237 0.49509150 -0.58419287
v 0.13248736 -0.72639495 0.53077817
v 0.05429137 0.53738028 -0.29154083
v 0.13627553 0.49631810 -0.62482011
v 0.14031552 0.49240810 -0.62474012
v 0.14460184 0.48812583 -0.62477630
v 0.12829591 0.49631104 -0.63071024
v 0.34756821 0.22586834 -0.24462326
v 0.17140371 0.29295424 -0.21072277
v 0.14812553 0.49631810 -0.61595011
v 0.14021553 0.49240810 -0.62482011
v 0.13640553 0.49618810 -0.62482011
v 0.15981552 0.48850808 -0.61310011
v 0.15594552 0.49240810 -0.61305010
v 0.15593053 0.49234664 -0.61311138
v 0.19500552 0.23850809 0.01575991
v 0.19884552 0.23850809 0.01188991
v 0.17574693 0.29978079 -0.21668798
v 0.15872553 0.73459810 -0.30060008
v 0.19085552 0.60568810 -0.36701009
v 0.15594552 0.73459810 -0.30065009
v 0.16583042 0.77710378 -0.34418389
v 0.28455445 -0.40557978 -0.32384261
v 0.24187553 0.05150809 0.01969991
v 0.36803034 -0.23172708 -0.26509720
v 0.23015545 -0.14820167 -0.20295097
v 0.23015286 -0.14820513 -0.20295978
v 0.26115075 0.05472349 0.01509172
v 0.25633374 0.06464551 0.06372830
v 0.17547959 0.28926560 -0.21078104
v 0.23086794 0.35403222 -0.12573251
v 0.19904731 0.23849945 0.01163938
v 0.20281552 0.23851809 0.00797991
v 0.18719552 0.23850809 0.02360991
v 0.20281552 0.24192809 0.02360991
v 0.16048832 0.44469175 -0.32808611
v 0.17540552 0.28928810 -0.21076009
v 0.23749782 0.02298720 -0.47666487
v 0.23806553 0.02365809 -0.48419008
v 0.15223074 0.47775257 -0.62663192
v 0.23015553 0.47678810 -0.55451012
v 0.23015553 0.48068807 -0.55063009
v 0.30438480 0.35959244 -0.75762624
v 0.21517435 0.49197331 -0.56006527
v 0.23468553 0.46506810 -0.55841011
v 0.19105554 0.60162568 -0.37529421
v 0.19109553 0.60179812 -0.37091008
v 0.19109553 0.60179812 -0.37482008
v 0.19853096 0.71980280 -0.30837548
v 0.19109553 0.60176814 -0.37482008
v 0.19109553 0.60178810 -0.37091008
v 0.23015553 0.47287810 -0.55836010
v 0.23012553 0.47287810 -0.55841011
v 0.14283684 0.82942963 -0.33056647
v 0.22222421 -0.15740725 -0.17996395
v 0.22615145 -0.14824668 -0.19523500
v 0.24888682 -0.09276138 -0.27088812
v 0.22500695 0.01136241 -0.41439122
v 0.22234344 -0.14426233 -0.19120888
v 0.23797552 0.02365809 -0.49379009
v 0.23797552 0.02363810 -0.49201009
v 0.24963552 0.05490810 0.02751991
v 0.24187553 0.05405810 0.03141991
v 0.19159825 0.23783879 0.04819458
v 0.22751188 0.24397919 0.01835169
v 0.14675908 0.21607248 -0.02898569
v 0.30433217 0.36367360 -0.76161128
v 0.23010552 0.46897811 -0.56232011
v 0.23015553 0.47282812 -0.55841011
v 0.20281552 0.48850808 -0.58091015
v 0.20284553 0.49240810 -0.57794011
v 0.20281132 0.49243498 -0.57791930
v 0.23015553 0.46887812 -0.56232011
v 0.23015553 0.46897811 -0.56222010
v 0.21598721 0.46766284 -0.58607990
v 0.19890553 0.50212812 -0.31623009
v 0.20768780 0.48766506 -0.57782090
v 0.20672552 0.48850808 -0.57799011
v 0.20672552 0.48855811 -0.57794011
v 0.21088709 0.51271504 -0.31961608
v 0.20281552 0.50415808 -0.32013008
v 0.20672552 0.50802809 -0.32013008
v 0.20278552 0.50412810 -0.32013008
v 0.19890553 0.50022811 -0.32025009
v 0.20281552 0.50412810 -0.32019010
v 0.19882914 0.50019526 -0.32014602
v 0.19677553 0.49631810 -0.32404009
v 0.19109555 0.60178089 -0.37089646
v 0.19753785 0.61656684 -0.37007022
v 0.23417337 0.01965589 -0.49232066
v 0.23798552 0.02365809 -0.49201009
v 0.23797552 0.02359809 -0.48810008
v 0.23802553 0.02365809 -0.48810008
v 0.25356281 0.05490801 0.02357223
v 0.25662005 0.04357009 -0.51594317
v 0.22393452 0.04498034 0.01213643
v 0.24578552 0.05490810 0.03138991
v 0.24969552 0.05491809 0.02751991
v 0.24578552 0.05491809 0.03141991
v 0.24162729 0.05559916 0.03707340
v 0.24187553 0.05490810 0.03530991
v 0.24575552 0.05490810 0.03141991
v 0.25750551 0.05492809 0.01969991
v 0.25359553 0.05492809 0.02360991
v 0.24969552 0.05490810 0.02745991
v 0.26469398 -0.22043943 -0.17089616
v 0.23529354 0.28755525 -0.23912576
v 0.23015553 0.46506810 -0.56609011
v 0.23007552 0.46506810 -0.56623012
v 0.27796677 0.43021923 -0.78178704
v 0.30440554 0.35959810 -0.75763011
v 0.23001663 0.46366683 -0.56771725
v 0.27594703 0.47259820 -0.47177622
v 0.24272899 0.52090067 -0.40142050
v 0.20734194 0.62729108 -0.33643368
v 0.30001450 0.13397245 -0.07179429
v 0.30891761 0.36353314 -0.75768989
v 0.30438554 0.36350808 -0.76154011
v 0.27762038 0.54218066 -0.47934556
v 0.28075901 0.34402698 -0.76800418
v 0.37081710 -0.19895194 -0.14816278
v 0.17264475 0.05276167 0.13289957
v 0.28320846 0.05812644 -0.31184307
v 0.34610039 0.13990231 -0.34203985
v 0.35906553 0.13250810 -0.33576009
v 0.35122380 0.13310604 -0.33961552
v 0.35906553 0.13693810 -0.33580008
v 0.30006543 0.35753933 -0.76052618
v 0.30437550 0.36349812 -0.76154011
v 0.28628597 0.33732474 -0.67312133
v 0.31222051 0.37543073 -0.48063502
v 0.37469551 -0.19907191 -0.15216009
v 0.37078553 -0.19905190 -0.14826009
v 0.27325463 0.55273163 -0.37237880
v 0.37476289 -0.19898126 -0.15211660
v 0.38026643 -0.21656720 -0.17475656
v 0.36688012 -0.19902618 -0.14434370
v 0.37859553 -0.19898191 -0.15591009
v 0.43029115 0.01517934 -0.63173938
v 0.35906553 0.13303809 -0.33576009
v 0.35907552 0.13303809 -0.33576009
v 0.31150165 0.08386144 -0.58368623
v 0.41137415 0.00970612 -0.62461376
v 0.36759776 0.13270278 -0.33157524
v 0.33314997 0.42329359 -0.43045396
v 0.35826051 -0.00910658 -0.24745902
v 0.37086555 -0.19898191 -0.14826009
v 0.41830608 -0.12899092 -0.37754002
v 0.42547551 0.02895809 -0.64826012
v 0.42848289 0.03523015 -0.65578377
v 0.41765550 0.03549810 -0.65607011
v 0.42156553 0.03537809 -0.65594012
v 0.35914153 0.13832285 -0.33578569
v 0.45768070 0.33976862 -0.58975285
v 0.34323230 0.73324656 -0.26604241
v 0.42156553 0.03548809 -0.65607011
v 0.39509872 -0.12525405 -0.10716986
v 0.46961057 0.02782083 -0.64705366
v 0.44890550 0.01584809 -0.63261014
v 0.45281553 0.01584809 -0.63263011
v 0.42547551 0.03537809 -0.65596014
v 0.42547551 0.03546809 -0.65607011
v 0.47750601 -0.01842336 -0.58774155
v 0.44500551 0.01587810 -0.63263011
v 0.44890550 0.01585809 -0.63263011
v 0.47612518 0.32442832 -0.61702341
v 0.47656813 0.32440451 -0.61693811
v 0.49969551 0.30112812 -0.77326012
v 0.50359553 0.30881810 -0.77022010
v 0.42145690 0.56637061 -0.53317130
v 0.44469443 0.01586632 -0.63261765
v 0.52227736 0.08754593 -0.69839907
v 0.49279368 0.17153494 -0.29750282
v 0.30144802 0.25634187 -0.71680510
v 0.49578553 0.30100808 -0.77333009
v 0.49297252 0.32016879 -0.76594877
v 0.48622191 0.31488425 -0.63440233
v 0.49969551 0.30100808 -0.77330011
v 0.50359553 0.30104810 -0.77326012
v 0.47992814 0.31662643 -0.63260311
v 0.48031059 0.31658560 -0.63256896
v 0.47632253 0.32439992 -0.61703485
v 0.50359553 0.30100808 -0.77327013
v 0.50598556 0.30100808 -0.77326012
v 0.46379903 0.25299981 -0.76066017
v 0.53038657 0.41978562 -0.39137748
v 0.42245299 0.08178908 -0.70056152
v 0.52827948 0.27576780 -0.77852052
v 0.49842080 0.51558244 -0.67123175
v 0.60603482 0.20871285 -0.57027495
v 0.60125554 0.21897811 -0.58088011
v 0.60125297 0.21506695 -0.58184159
v 0.59734553 0.21897811 -0.59349012
v 0.60245556 0.21506809 -0.57794011
v 0.56618136 0.33422226 -0.56813109
v 0.49779218 0.39431182 -0.44865096
v 0.60806990 0.36153415 -0.38929665
v 0.58553904 0.20768631 -0.63743705
v 0.59734553 0.22287810 -0.59253013
v 0.59732556 0.21897811 -0.59357011
v 0.63250554 0.36740810 -0.41788009
v 0.63252366 0.36734363 -0.41782743
v 0.59650588 0.21538843 -0.59707570
v 0.59734553 0.21864809 -0.59357011
v 0.60125554 0.21506809 -0.58184010
v 0.65897417 0.09993721 -0.47610107
v 0.59391189 0.32424024 -0.56581199
v 0.65819556 0.34397811 -0.64826012
v 0.64357179 0.37548131 -0.66315383
v 0.49485585 0.36749014 -0.79558349
v 0.65984553 0.34401810 -0.64435011
v 0.65984553 0.34397811 -0.64440012
v 0.65986556 0.34397811 -0.64435011
v 0.63236552 0.37131810 -0.42169008
v 0.63243037 0.36742166 -0.41778183
v 0.63246918 0.37130031 -0.42180786
v 0.63103336 0.36493728 -0.41281259
v 0.66150552 0.34006810 -0.64435011
v 0.65774983 0.35058674 -0.64280850
v 0.65984553 0.34800807 -0.64044011
v 0.65984553 0.35959810 -0.62896013
v 0.65990031 0.35973763 -0.62869883
v 0.63136172 0.37289351 -0.42167771
v 0.65830553 0.35959810 -0.63263011
v 0.67851728 0.35275972 -0.47502393
v 0.69298428 0.35738659 -0.51612973
v 0.66308284 0.31736302 -0.66290170
v 0.65992552 0.35178810 -0.63654011
v 0.65984553 0.35178810 -0.63672012
v 0.67283887 0.24144074 -0.68717068
v 0.65987128 0.35320804 -0.63524818
v 0.65993553 0.35568807 -0.63263011
v 0.65984553 0.35589811 -0.63263011
v 0.65989554 0.34787810 -0.64044011
v 0.65984553 0.34787810 -0.64057010
v 0.69171590 0.33299425 -0.58163047
v 0.66372120 0.34289518 -0.58923292
v 0.65708852 0.38882032 -0.44714803
f 1 2 3
f 4 5 15
f 4 7 5
f 1 8 2
f 15 5 19
f 5 7 13
f 8 7 2
f 2 7 4
f 7 3 4
f 3 2 4
f 8 14 19
f 6 8 1
f 8 6 11
f 8 11 9
f 8 13 7
f 9 7 10
f 10 7 15
f 13 8 19
f 16 1 3
f 6 1 16
f 11 6 16
f 19 5 13
f 3 7 9
f 8 9 14
f 54 18 38
f 14 9 10
f 7 4 15
f 16 3 9
f 11 16 9
f 15 19 10
f 38 18 41
f 41 18 17
f 41 17 21
f 17 18 120
f 22 23 24
f 25 22 24
f 25 21 22
f 21 17 22
f 41 25 29
f 29 24 23
f 25 24 29
f 22 17 23
f 41 21 25
f 23 17 79
f 29 79 41
f 29 23 79
f 31 32 33
f 101 14 10
f 17 101 79
f 101 38 41
f 20 35 34
f 47 49 50
f 51 52 53
f 39 63 109
f 55 56 72
f 56 57 72
f 58 56 55
f 59 45 60
f 64 45 59
f 39 109 37
f 47 46 49
f 46 39 49
f 63 39 46
f 61 46 47
f 46 61 63
f 53 65 60
f 65 66 60
f 65 53 66
f 67 68 102
f 70 62 102
f 62 61 47
f 50 49 39
f 50 39 37
f 62 47 50
f 63 64 71
f 60 45 70
f 52 71 53
f 63 71 52
f 64 59 71
f 66 59 60
f 71 59 66
f 53 71 66
f 53 60 70
f 64 61 62
f 63 61 64
f 45 64 70
f 64 62 70
f 51 53 65
f 50 37 62
f 62 37 102
f 48 70 102
f 36 18 54
f 74 75 73
f 76 77 78
f 80 40 120
f 106 99 32
f 17 120 40
f 82 83 40
f 80 120 162
f 42 83 81
f 83 84 81
f 42 162 17
f 42 81 162
f 84 162 81
f 41 79 101
f 80 84 82
f 42 40 83
f 40 42 17
f 82 40 80
f 84 83 82
f 80 162 84
f 44 12 20
f 20 34 35
f 68 48 102
f 26 86 87
f 67 88 68
f 88 67 89
f 87 90 91
f 75 90 87
f 92 90 75
f 87 92 75
f 137 93 117
f 65 53 48
f 35 20 12
f 89 69 88
f 12 109 63
f 91 95 72
f 67 102 72
f 69 52 96
f 57 69 89
f 37 109 102
f 86 92 87
f 86 56 58
f 92 86 58
f 97 89 67
f 97 57 89
f 53 70 48
f 74 87 75
f 74 26 87
f 63 69 57
f 95 67 72
f 96 51 68
f 73 91 102
f 74 73 26
f 91 72 102
f 63 56 26
f 75 87 73
f 87 91 73
f 90 95 91
f 98 99 100
f 72 97 95
f 88 69 96
f 52 51 96
f 68 65 48
f 26 56 86
f 55 72 95
f 88 96 68
f 92 58 90
f 97 67 95
f 51 65 68
f 57 97 72
f 90 55 95
f 90 58 55
f 56 63 57
f 63 52 69
f 103 104 105
f 230 14 101
f 85 100 131
f 17 162 101
f 44 85 12
f 98 85 107
f 85 44 107
f 20 131 44
f 131 20 35
f 109 12 30
f 31 33 98
f 131 106 44
f 98 100 85
f 110 12 63
f 26 73 102
f 105 112 113
f 134 26 111
f 104 155 118
f 14 36 94
f 122 36 54
f 28 121 27
f 182 130 166
f 123 126 127
f 98 33 99
f 32 99 33
f 31 106 32
f 31 107 106
f 176 85 131
f 31 98 107
f 176 30 12
f 131 99 106
f 106 107 44
f 131 100 99
f 132 118 133
f 176 35 12
f 111 26 102
f 110 63 26
f 108 145 34
f 103 105 135
f 155 123 116
f 142 76 140
f 135 105 113
f 133 134 111
f 153 94 140
f 94 153 138
f 93 116 117
f 116 93 155
f 118 134 133
f 155 134 118
f 123 104 103
f 104 123 155
f 26 134 155
f 112 132 113
f 135 113 137
f 18 36 120
f 126 123 103
f 28 124 121
f 121 144 27
f 119 28 27
f 144 119 27
f 122 178 36
f 124 178 121
f 54 28 122
f 122 28 119
f 124 54 178
f 54 124 28
f 77 142 138
f 120 230 162
f 176 12 85
f 131 35 176
f 12 176 30
f 143 148 149
f 165 110 43
f 176 12 110
f 132 133 113
f 136 155 143
f 146 143 147
f 143 146 136
f 108 159 145
f 145 159 152
f 108 34 14
f 138 153 77
f 150 156 157
f 110 26 155
f 109 30 102
f 138 139 108
f 119 144 141
f 154 153 140
f 113 111 102
f 156 151 160
f 121 178 141
f 116 123 127
f 117 116 127
f 126 103 135
f 117 127 126
f 104 118 112
f 105 104 112
f 137 117 126
f 133 111 113
f 113 102 137
f 148 143 155
f 93 137 155
f 118 132 112
f 126 135 137
f 178 122 141
f 142 77 76
f 140 76 78
f 94 142 140
f 142 139 138
f 94 139 142
f 122 119 141
f 144 121 141
f 77 153 154
f 145 151 115
f 36 139 94
f 19 34 145
f 101 10 19
f 178 54 38
f 165 43 146
f 164 165 146
f 43 136 146
f 147 143 149
f 155 136 43
f 165 176 110
f 155 137 196
f 138 108 94
f 155 43 110
f 108 114 159
f 160 145 152
f 94 108 14
f 151 156 150
f 145 160 151
f 157 160 158
f 139 36 108
f 160 152 158
f 150 158 115
f 150 157 158
f 115 151 150
f 158 159 115
f 159 230 115
f 152 159 158
f 160 157 156
f 78 154 140
f 77 154 78
f 115 230 145
f 19 14 34
f 145 230 19
f 36 14 230
f 230 101 19
f 101 128 38
f 101 230 125
f 162 230 101
f 167 169 170
f 171 172 183
f 170 168 173
f 176 12 30
f 147 149 164
f 164 161 165
f 155 161 148
f 164 146 147
f 149 148 164
f 161 155 165
f 148 161 164
f 159 114 230
f 137 102 196
f 114 125 230
f 38 128 178
f 101 125 211
f 120 36 230
f 180 172 171
f 166 179 182
f 168 163 173
f 170 169 168
f 184 191 183
f 167 170 181
f 130 175 177
f 168 174 163
f 169 174 168
f 175 130 174
f 167 181 177
f 167 177 175
f 173 163 181
f 181 170 173
f 174 130 163
f 167 174 169
f 174 167 175
f 130 177 219
f 130 219 166
f 192 193 194
f 191 130 182
f 172 180 185
f 185 180 198
f 180 171 198
f 191 185 186
f 184 172 185
f 191 184 185
f 191 182 179
f 163 186 181
f 130 186 163
f 185 198 179
f 172 184 183
f 185 179 186
f 198 199 179
f 198 171 199
f 171 183 199
f 183 179 199
f 179 183 191
f 130 191 186
f 177 181 186
f 187 166 219
f 187 200 188
f 203 193 252
f 204 205 206
f 206 205 207
f 205 227 207
f 206 207 208
f 207 280 208
f 280 226 201
f 201 226 204
f 196 102 30
f 280 207 227
f 129 101 211
f 211 230 128
f 166 186 179
f 188 200 202
f 188 202 216
f 166 187 216
f 187 188 216
f 202 190 215
f 216 202 215
f 190 217 215
f 215 218 216
f 218 215 217
f 202 200 190
f 200 187 228
f 200 228 190
f 186 219 177
f 222 223 224
f 222 220 223
f 220 238 223
f 206 189 204
f 238 220 219
f 189 201 204
f 108 292 258
f 226 227 204
f 208 280 189
f 206 208 189
f 292 108 189
f 189 36 201
f 36 189 108
f 280 201 36
f 114 108 258
f 216 214 228
f 216 218 214
f 165 155 176
f 214 190 228
f 125 230 211
f 128 230 343
f 101 129 128
f 232 233 234
f 218 217 214
f 217 190 214
f 216 228 219
f 216 219 166
f 187 219 228
f 166 219 186
f 249 225 220
f 223 238 239
f 219 220 225
f 238 240 239
f 241 224 223
f 220 240 249
f 240 292 249
f 240 222 237
f 237 222 224
f 242 243 244
f 243 287 244
f 241 237 224
f 246 249 221
f 249 292 245
f 247 248 246
f 237 241 239
f 220 222 240
f 240 237 239
f 241 223 239
f 192 250 251
f 205 204 227
f 226 280 227
f 189 280 292
f 176 252 209
f 30 176 209
f 210 129 195
f 210 195 253
f 195 129 128
f 211 128 129
f 245 246 248
f 245 248 254
f 292 240 238
f 248 247 254
f 295 225 249
f 247 246 221
f 249 246 295
f 176 332 252
f 246 245 295
f 257 256 236
f 245 254 249
f 245 292 295
f 221 249 254
f 221 254 247
f 235 251 288
f 238 219 330
f 259 257 236
f 261 262 250
f 265 266 267
f 266 268 267
f 269 270 271
f 272 259 273
f 274 272 273
f 275 269 276
f 259 235 273
f 235 274 273
f 260 275 277
f 252 229 209
f 196 30 209
f 275 276 277
f 209 255 196
f 36 178 128
f 230 125 367
f 253 195 278
f 233 210 253
f 279 232 234
f 212 195 128
f 210 233 232
f 129 210 212
f 234 253 278
f 279 234 278
f 233 253 279
f 253 234 279
f 234 233 279
f 278 212 279
f 278 195 212
f 279 212 232
f 210 232 212
f 128 343 212
f 266 229 267
f 266 270 229
f 243 242 194
f 209 229 260
f 236 265 252
f 292 238 330
f 267 229 252
f 267 256 281
f 256 267 268
f 193 243 194
f 193 192 252
f 252 235 236
f 270 269 275
f 250 282 263
f 261 250 263
f 283 266 265
f 276 269 284
f 284 269 271
f 260 270 275
f 270 260 229
f 235 259 236
f 236 283 265
f 283 285 268
f 266 283 268
f 266 267 271
f 270 266 271
f 209 260 264
f 257 263 242
f 263 286 242
f 286 194 242
f 285 283 236
f 277 276 264
f 286 192 194
f 285 256 268
f 281 256 255
f 285 236 256
f 193 203 287
f 284 281 255
f 284 271 281
f 267 281 271
f 264 276 255
f 267 252 265
f 264 260 277
f 255 256 257
f 264 255 209
f 274 288 272
f 276 284 255
f 196 255 257
f 36 129 333
f 36 128 129
f 225 295 434
f 129 212 343
f 225 330 219
f 250 192 282
f 287 203 291
f 192 286 282
f 235 252 251
f 292 280 400
f 36 400 280
f 252 332 293
f 257 242 244
f 272 261 257
f 262 261 272
f 286 263 282
f 262 272 288
f 259 272 257
f 244 291 257
f 262 288 251
f 250 262 251
f 193 287 243
f 192 251 252
f 235 288 274
f 244 287 291
f 261 263 257
f 291 203 257
f 289 197 231
f 330 225 434
f 331 365 292
f 293 257 203
f 203 252 293
f 257 290 196
f 340 129 343
f 197 230 367
f 197 289 305
f 295 292 365
f 258 292 330
f 400 331 292
f 257 293 290
f 155 332 176
f 258 125 114
f 196 290 155
f 333 129 340
f 298 294 231
f 230 197 343
f 231 294 297
f 197 367 231
f 294 301 425
f 231 488 298
f 289 231 424
f 289 327 305
f 197 327 352
f 327 197 305
f 333 400 36
f 340 309 310
f 340 308 309
f 340 343 308
f 302 301 300
f 301 311 300
f 312 302 303
f 425 312 303
f 311 298 300
f 313 314 311
f 314 313 301
f 294 314 301
f 341 231 297
f 314 294 298
f 313 301 302
f 311 301 313
f 294 425 297
f 313 302 312
f 314 298 311
f 302 300 303
f 301 312 425
f 312 301 313
f 306 289 323
f 317 318 319
f 318 320 319
f 320 317 319
f 320 318 317
f 321 322 323
f 324 304 327
f 319 306 322
f 319 321 304
f 325 306 319
f 325 289 306
f 323 289 424
f 317 319 304
f 324 318 304
f 319 320 321
f 320 322 321
f 322 320 319
f 326 325 317
f 323 322 306
f 326 318 324
f 318 326 317
f 317 325 319
f 289 325 326
f 318 317 304
f 304 323 327
f 323 304 321
f 289 326 324
f 327 289 324
f 354 330 434
f 328 394 354
f 374 332 155
f 374 155 290
f 453 334 308
f 309 307 296
f 335 336 334
f 337 338 339
f 310 309 296
f 336 307 308
f 335 296 336
f 309 308 307
f 334 336 308
f 310 296 335
f 296 307 336
f 310 334 453
f 310 335 334
f 453 308 343
f 616 343 197
f 231 367 488
f 341 297 315
f 425 300 488
f 425 303 300
f 348 346 316
f 345 428 344
f 346 315 316
f 298 488 300
f 348 350 351
f 346 348 349
f 315 346 341
f 341 346 349
f 231 341 424
f 424 327 323
f 327 424 471
f 327 471 352
f 394 213 354
f 392 330 354
f 355 356 357
f 359 360 361
f 361 364 362
f 331 400 403
f 358 364 360
f 354 293 332
f 258 608 125
f 342 338 337
f 374 368 369
f 310 453 340
f 367 428 297
f 371 372 373
f 366 394 328
f 369 375 376
f 367 297 425
f 378 343 616
f 347 349 351
f 347 351 316
f 315 297 428
f 457 343 378
f 350 348 316
f 349 348 351
f 316 350 344
f 345 315 428
f 351 350 316
f 341 347 428
f 316 315 345
f 350 345 344
f 344 347 316
f 345 350 316
f 341 349 347
f 347 344 428
f 382 383 438
f 384 383 382
f 366 404 394
f 404 366 381
f 386 385 387
f 389 353 386
f 354 329 328
f 353 389 390
f 362 396 363
f 354 434 435
f 213 435 354
f 295 365 330
f 359 395 363
f 395 361 363
f 395 359 361
f 361 362 363
f 365 358 393
f 393 358 359
f 358 360 395
f 396 362 364
f 359 395 360
f 358 365 364
f 330 365 393
f 393 359 363
f 358 395 359
f 393 403 330
f 331 403 396
f 331 396 365
f 361 360 364
f 397 388 398
f 396 393 363
f 364 365 396
f 393 396 403
f 401 480 432
f 386 353 328
f 258 330 403
f 390 387 405
f 440 400 408
f 406 442 407
f 409 607 293
f 390 402 353
f 405 402 390
f 370 337 410
f 333 408 400
f 412 413 414
f 415 412 414
f 342 369 376
f 415 414 416
f 417 338 376
f 299 411 374
f 418 370 410
f 369 368 419
f 375 369 419
f 411 299 420
f 377 411 420
f 338 342 376
f 377 412 421
f 370 374 337
f 374 342 337
f 342 374 369
f 368 374 290
f 337 339 410
f 414 423 416
f 423 418 416
f 451 377 380
f 377 421 380
f 333 340 453
f 457 453 343
f 381 426 398
f 425 488 367
f 463 427 378
f 405 329 402
f 398 388 404
f 386 391 385
f 328 391 386
f 429 430 487
f 430 429 431
f 397 382 388
f 384 426 381
f 366 480 381
f 426 397 398
f 397 384 382
f 384 397 426
f 433 355 432
f 385 391 405
f 404 381 398
f 328 329 391
f 381 438 383
f 433 432 394
f 487 394 480
f 394 404 480
f 394 487 433
f 432 213 394
f 385 405 387
f 366 328 353
f 391 329 405
f 386 387 389
f 387 390 389
f 402 354 353
f 329 354 402
f 508 295 330
f 434 392 435
f 392 354 435
f 354 399 293
f 403 400 479
f 429 439 356
f 439 429 487
f 439 401 357
f 356 439 357
f 354 332 435
f 441 406 407
f 409 293 607
f 356 355 431
f 406 443 437
f 258 403 608
f 417 444 339
f 473 442 445
f 443 436 440
f 479 400 473
f 442 441 407
f 400 436 473
f 407 422 445
f 436 441 473
f 400 440 436
f 408 422 440
f 473 445 408
f 445 422 408
f 473 441 442
f 442 406 437
f 407 442 422
f 442 407 445
f 422 442 440
f 443 441 436
f 441 443 406
f 440 437 443
f 442 437 440
f 438 388 382
f 412 415 420
f 627 408 333
f 447 448 449
f 374 370 413
f 423 450 418
f 450 423 413
f 125 608 367
f 299 374 413
f 551 411 451
f 412 299 413
f 450 413 370
f 446 380 415
f 374 411 551
f 299 412 420
f 412 377 420
f 418 450 370
f 380 420 415
f 421 420 380
f 444 452 446
f 420 421 412
f 411 377 451
f 451 380 446
f 452 368 290
f 368 452 419
f 452 375 419
f 444 410 339
f 290 446 452
f 452 444 376
f 444 417 376
f 338 417 339
f 375 452 376
f 446 415 416
f 414 413 423
f 355 401 432
f 401 355 357
f 453 457 485
f 461 457 454
f 383 384 381
f 428 367 521
f 455 500 456
f 616 463 378
f 458 459 486
f 424 341 428
f 464 465 466
f 487 401 439
f 470 468 469
f 539 471 424
f 487 430 433
f 480 404 438
f 381 480 438
f 433 431 355
f 404 388 438
f 401 487 480
f 356 431 429
f 433 430 431
f 366 353 480
f 353 354 435
f 480 353 435
f 474 475 476
f 607 293 399
f 408 479 473
f 607 290 293
f 444 446 418
f 374 477 332
f 627 333 485
f 551 481 517
f 444 418 410
f 446 416 418
f 451 446 551
f 515 483 592
f 549 446 290
f 446 549 551
f 333 453 485
f 379 630 367
f 483 494 379
f 456 484 458
f 461 490 491
f 525 495 500
f 496 461 497
f 495 484 456
f 454 492 489
f 457 461 491
f 367 616 197
f 427 492 378
f 454 457 492
f 457 378 492
f 454 489 497
f 428 521 424
f 491 490 463
f 461 454 497
f 490 496 462
f 496 497 462
f 455 456 458
f 490 462 463
f 525 498 486
f 498 525 500
f 484 463 459
f 458 484 459
f 490 461 496
f 491 463 525
f 489 427 462
f 427 489 492
f 497 489 462
f 525 457 491
f 463 495 525
f 500 495 456
f 499 455 458
f 495 463 484
f 462 427 463
f 500 455 499
f 463 486 459
f 449 501 447
f 501 449 502
f 504 469 534
f 468 472 469
f 467 424 534
f 352 471 534
f 472 467 469
f 472 507 467
f 506 468 470
f 468 506 472
f 472 506 507
f 539 424 467
f 480 435 213
f 434 295 508
f 434 508 392
f 435 332 591
f 399 354 435
f 408 627 479
f 607 549 290
f 374 551 477
f 371 373 447
f 551 601 477
f 460 494 482
f 519 549 373
f 494 460 503
f 367 608 379
f 379 494 503
f 494 483 522
f 630 379 592
f 515 592 460
f 482 515 460
f 522 515 482
f 482 494 522
f 522 483 515
f 483 379 608
f 483 608 592
f 592 503 460
f 592 379 503
f 616 367 630
f 485 457 525
f 526 529 527
f 465 526 527
f 463 616 486
f 604 367 197
f 499 458 486
f 498 499 486
f 498 500 499
f 605 528 615
f 604 197 352
f 505 573 532
f 533 531 574
f 574 532 533
f 535 531 533
f 536 535 533
f 534 471 507
f 506 470 504
f 469 467 534
f 470 469 504
f 507 506 504
f 504 534 507
f 537 538 464
f 539 507 471
f 507 539 467
f 213 432 480
f 541 511 474
f 475 591 540
f 435 591 399
f 543 403 479
f 403 543 608
f 545 580 478
f 575 545 546
f 581 547 548
f 509 547 581
f 551 517 518
f 501 481 447
f 447 501 448
f 447 520 501
f 372 519 373
f 372 551 519
f 519 551 549
f 481 501 502
f 517 502 449
f 481 371 447
f 481 372 371
f 501 520 550
f 448 501 550
f 517 481 502
f 481 551 372
f 551 518 550
f 549 520 447
f 518 449 550
f 518 517 449
f 549 447 373
f 448 550 449
f 549 550 520
f 485 525 615
f 553 529 538
f 554 537 466
f 560 555 562
f 525 560 616
f 558 553 559
f 557 486 529
f 560 562 529
f 560 525 555
f 525 557 555
f 563 556 564
f 556 563 555
f 555 557 556
f 557 525 486
f 563 564 562
f 564 557 529
f 562 564 529
f 604 521 367
f 562 555 563
f 564 556 557
f 530 554 466
f 464 526 465
f 566 567 565
f 568 571 569
f 537 464 466
f 570 567 566
f 566 568 570
f 572 599 569
f 568 561 571
f 569 570 568
f 570 569 599
f 619 573 600
f 568 566 561
f 571 561 521
f 571 572 569
f 561 424 521
f 567 599 565
f 599 567 570
f 561 565 424
f 521 572 571
f 424 565 619
f 566 565 561
f 536 533 532
f 573 536 532
f 619 352 531
f 535 536 573
f 505 532 574
f 599 572 521
f 600 534 424
f 619 600 424
f 531 352 574
f 531 573 619
f 535 573 531
f 573 505 600
f 600 505 574
f 511 512 474
f 544 332 542
f 475 474 591
f 541 542 512
f 332 540 591
f 544 476 475
f 508 330 392
f 474 512 591
f 544 475 540
f 544 540 332
f 542 541 544
f 542 591 512
f 541 476 544
f 476 541 474
f 510 591 542
f 512 511 541
f 631 542 332
f 576 545 478
f 575 546 577
f 546 545 576
f 577 546 578
f 546 576 578
f 580 545 575
f 578 576 478
f 575 479 580
f 577 578 524
f 523 577 524
f 479 575 543
f 543 523 478
f 523 575 577
f 543 575 523
f 578 478 524
f 543 478 608
f 581 631 477
f 581 513 509
f 478 523 524
f 332 477 631
f 581 477 513
f 582 583 584
f 582 547 583
f 581 548 585
f 548 586 585
f 514 607 581
f 585 586 584
f 586 587 584
f 548 547 582
f 587 582 584
f 582 587 548
f 586 548 587
f 514 581 585
f 585 584 514
f 579 588 589
f 588 579 513
f 589 514 583
f 589 590 579
f 583 514 584
f 590 547 509
f 601 549 514
f 627 485 659
f 551 550 601
f 608 516 592
f 593 594 558
f 616 615 525
f 528 596 602
f 553 560 529
f 553 594 560
f 594 553 558
f 616 560 597
f 597 594 593
f 530 559 554
f 529 486 598
f 554 538 537
f 598 616 530
f 558 559 530
f 616 597 530
f 593 558 530
f 597 593 530
f 538 526 464
f 526 538 529
f 598 530 466
f 559 553 554
f 553 538 554
f 598 466 465
f 594 597 560
f 465 527 598
f 529 598 527
f 565 599 619
f 604 352 599
f 600 574 352
f 640 600 352
f 352 534 640
f 549 607 514
f 588 514 589
f 607 631 581
f 509 513 579
f 478 580 608
f 580 627 608
f 601 513 477
f 479 627 580
f 590 583 547
f 514 588 513
f 509 579 590
f 589 583 590
f 549 601 550
f 659 485 615
f 516 630 592
f 485 595 605
f 615 485 605
f 486 616 598
f 521 604 599
f 619 599 352
f 510 542 633
f 514 513 601
f 493 516 608
f 616 630 493
f 605 595 552
f 613 552 614
f 595 615 602
f 605 552 613
f 596 528 614
f 552 602 603
f 528 613 614
f 596 614 603
f 614 552 603
f 613 528 605
f 596 603 602
f 528 602 615
f 552 595 602
f 630 615 616
f 621 617 618
f 600 640 534
f 622 618 606
f 399 591 642
f 633 542 631
f 617 623 620
f 623 617 621
f 612 625 626
f 611 625 612
f 608 609 493
f 611 608 610
f 626 610 629
f 630 485 615
f 655 615 595
f 674 616 659
f 655 619 516
f 655 604 619
f 620 623 642
f 510 621 591
f 622 621 618
f 617 620 632
f 591 621 622
f 618 617 632
f 606 618 632
f 591 622 642
f 622 606 642
f 620 606 632
f 642 631 607
f 399 642 607
f 628 636 637
f 610 608 629
f 609 638 493
f 608 611 609
f 638 609 612
f 625 610 626
f 611 610 625
f 611 612 609
f 626 629 638
f 612 626 638
f 638 629 493
f 608 658 629
f 627 659 616
f 659 615 655
f 516 619 630
f 616 674 630
f 655 516 493
f 630 604 485
f 623 621 642
f 606 620 642
f 636 672 641
f 637 636 641
f 644 645 648
f 637 641 646
f 628 672 636
f 645 643 648
f 629 658 493
f 695 659 655
f 630 655 493
f 604 595 485
f 630 619 604
f 604 655 595
f 621 510 642
f 624 635 643
f 637 646 647
f 646 634 647
f 646 647 635
f 633 628 624
f 634 646 635
f 644 649 650
f 649 643 650
f 635 647 672
f 628 637 647
f 634 628 647
f 646 641 647
f 633 627 628
f 641 672 647
f 628 634 624
f 634 635 624
f 672 628 627
f 635 672 643
f 624 643 656
f 616 493 658
f 651 639 652
f 630 674 671
f 661 653 654
f 645 644 650
f 643 645 650
f 633 631 510
f 510 631 642
f 633 624 656
f 656 643 649
f 644 656 649
f 644 648 656
f 656 648 633
f 643 672 657
f 658 608 633
f 653 663 664
f 639 616 680
f 643 657 648
f 659 672 627
f 633 648 691
f 659 695 672
f 668 673 669
f 662 665 666
f 659 657 673
f 660 673 663
f 663 673 668
f 664 668 669
f 661 659 660
f 659 673 660
f 616 639 651
f 674 659 661
f 652 639 680
f 654 673 674
f 664 669 654
f 665 670 616
f 665 662 670
f 680 662 666
f 666 667 652
f 665 651 667
f 665 616 651
f 652 667 651
f 665 667 666
f 680 666 652
f 681 616 658
f 608 627 633
f 674 661 654
f 657 672 715
f 616 659 627
f 670 659 616
f 715 672 695
f 663 668 664
f 661 660 653
f 653 660 663
f 668 664 654
f 653 668 654
f 653 664 668
f 669 673 654
f 630 671 655
f 648 657 691
f 676 677 678
f 680 670 662
f 657 659 670
f 680 616 681
f 671 710 682
f 657 670 683
f 657 715 673
f 683 691 657
f 691 681 658
f 674 673 715
f 676 678 684
f 678 685 684
f 685 683 684
f 675 677 679
f 683 670 692
f 670 680 692
f 680 681 692
f 689 685 678
f 685 689 688
f 677 689 690
f 689 678 690
f 678 677 690
f 683 677 675
f 675 691 683
f 676 675 679
f 690 676 679
f 690 677 676
f 676 684 692
f 684 683 692
f 677 683 688
f 689 677 688
f 677 690 679
f 685 688 683
f 658 633 691
f 675 676 692
f 692 691 675
f 692 681 691
f 696 697 698
f 699 686 701
f 686 699 700
f 710 701 687
f 700 702 687
f 700 699 708
f 702 710 687
f 702 700 682
f 701 686 687
f 715 695 655
f 655 671 711
f 674 710 671
f 701 723 708
f 699 701 708
f 686 700 687
f 710 702 682
f 700 708 682
f 701 710 723
f 708 723 682
f 671 682 723
f 655 711 715
f 698 697 703
f 712 703 697
f 694 693 704
f 693 697 696
f 704 693 696
f 712 694 674
f 712 674 715
f 712 693 694
f 713 716 714
f 698 703 721
f 697 693 712
f 712 715 721
f 721 703 712
f 707 717 721
f 716 718 709
f 704 714 716
f 713 719 721
f 719 705 720
f 717 716 713
f 698 721 719
f 720 698 719
f 717 713 721
f 722 721 715
f 694 709 707
f 706 717 707
f 717 706 718
f 714 719 713
f 719 714 705
f 707 709 706
f 704 720 705
f 716 709 694
f 704 696 720
f 696 698 720
f 704 705 714
f 704 716 694
f 716 717 718
f 706 709 718
f 721 694 707
f 674 694 721
f 710 674 721
f 711 671 710
f 710 671 723
f 711 722 715
f 722 711 710
f 721 722 710

