o convex_0
v -0.014486 0.035131 -0.031400
v 0.011676 0.044552 0.043432
v 0.010107 0.044552 0.043432
v 0.010629 -0.045439 0.042377
v 0.010629 -0.044384 -0.031392
v -0.012393 -0.045430 0.010458
v 0.010107 0.043507 -0.030345
v -0.012393 0.045075 0.013076
v -0.013440 -0.045430 -0.030345
v -0.004021 -0.003049 0.027203
v -0.015011 0.045075 -0.026688
v 0.012200 -0.044393 0.035572
v 0.011676 0.022582 0.004191
v 0.005398 -0.041770 -0.032970
v -0.014486 0.009492 -0.006803
v -0.000883 0.044552 -0.032439
v -0.007684 0.044030 0.023015
v -0.006112 -0.043870 0.023015
v 0.009060 0.045607 -0.027728
v 0.003826 -0.046494 -0.020922
v -0.005590 -0.044384 -0.032963
v 0.011154 -0.031312 -0.026688
v 0.012200 0.044030 0.043432
v 0.010629 -0.044916 0.043432
v -0.013964 -0.044393 -0.029298
v -0.012918 0.045607 0.010458
v -0.011346 -0.046494 0.009935
v 0.006442 0.039324 -0.032447
v 0.000686 0.042984 0.033485
v -0.013440 0.044552 0.009411
v -0.006112 0.012115 -0.032963
v -0.013964 -0.022414 -0.003138
v 0.012200 -0.043870 0.043432
v 0.011154 -0.045962 0.034524
v -0.013440 0.045607 -0.029822
v -0.009255 -0.044916 0.017787
v 0.011676 0.045075 0.042901
v -0.012393 -0.039155 -0.031923
v 0.009582 -0.045962 -0.027728
v -0.000361 -0.043870 0.030867
v -0.011346 0.033040 -0.032447
v -0.011346 0.043507 0.016217
v -0.014486 -0.011424 -0.013608
v -0.010824 -0.046494 -0.021977
v 0.010629 0.043498 -0.018836
v -0.012918 -0.044916 0.006794
v -0.015011 0.042984 -0.030876
v 0.009060 0.045607 0.007317
v 0.003304 0.015775 -0.032970
v -0.001927 0.026242 0.030344
v 0.011676 0.042984 0.013076
v 0.011154 -0.012470 -0.024063
v 0.008013 0.005309 -0.032447
v 0.009582 0.042984 -0.031392
v 0.004351 -0.046494 0.009935
v 0.012200 0.038269 0.038189
v -0.013964 -0.002003 0.000526
v -0.014486 -0.013516 -0.029822
v -0.011346 -0.044916 0.013599
v -0.013964 -0.037064 -0.030876
v -0.006637 0.044552 -0.032439
v -0.014486 0.024142 -0.006803
v -0.004543 0.044552 0.027203
v 0.010107 -0.043347 -0.031916
f 53 54 64 
f 10 17 18 
f 5 7 22 
f 12 5 22 
f 13 12 22 
f 2 3 23 
f 23 3 24 
f 6 9 27 
f 24 3 29 
f 6 8 30 
f 8 26 30 
f 26 11 30 
f 12 23 33 
f 24 4 33 
f 23 24 33 
f 5 12 34 
f 4 27 34 
f 33 4 34 
f 12 33 34 
f 19 16 35 
f 11 26 35 
f 26 19 35 
f 18 17 36 
f 4 24 36 
f 6 27 36 
f 27 4 36 
f 3 2 37 
f 2 23 37 
f 21 9 38 
f 9 21 39 
f 21 5 39 
f 5 34 39 
f 34 20 39 
f 10 18 40 
f 18 36 40 
f 36 24 40 
f 31 21 41 
f 38 1 41 
f 21 38 41 
f 8 6 42 
f 17 8 42 
f 36 17 42 
f 15 11 43 
f 25 32 43 
f 32 15 43 
f 27 9 44 
f 20 27 44 
f 9 39 44 
f 39 20 44 
f 7 19 45 
f 19 37 45 
f 37 23 45 
f 9 6 46 
f 25 9 46 
f 6 30 46 
f 32 25 46 
f 11 35 47 
f 41 1 47 
f 43 11 47 
f 19 26 48 
f 37 19 48 
f 26 37 48 
f 14 21 49 
f 16 28 49 
f 21 31 49 
f 24 29 50 
f 10 40 50 
f 40 24 50 
f 13 45 51 
f 45 23 51 
f 22 7 52 
f 13 22 52 
f 7 45 52 
f 45 13 52 
f 14 49 53 
f 49 28 53 
f 7 5 54 
f 19 7 54 
f 16 19 54 
f 28 16 54 
f 53 28 54 
f 27 20 55 
f 20 34 55 
f 34 27 55 
f 12 13 56 
f 23 12 56 
f 13 51 56 
f 51 23 56 
f 30 15 57 
f 15 32 57 
f 46 30 57 
f 32 46 57 
f 25 43 58 
f 43 47 58 
f 6 36 59 
f 42 6 59 
f 36 42 59 
f 9 25 60 
f 1 38 60 
f 38 9 60 
f 47 1 60 
f 25 58 60 
f 58 47 60 
f 35 16 61 
f 31 41 61 
f 47 35 61 
f 41 47 61 
f 16 49 61 
f 49 31 61 
f 11 15 62 
f 15 30 62 
f 30 11 62 
f 8 17 63 
f 17 10 63 
f 26 8 63 
f 29 3 63 
f 3 37 63 
f 37 26 63 
f 10 50 63 
f 50 29 63 
f 5 21 64 
f 21 14 64 
f 14 53 64 
f 54 5 64 
o convex_1
v 0.011677 -0.044398 0.055990
v 0.012200 0.044561 0.062270
v 0.011154 0.044561 0.062270
v 0.012200 0.044561 0.043432
v 0.010107 -0.044924 0.052851
v 0.012200 -0.043347 0.043432
v 0.010631 0.044561 0.043432
v 0.010107 -0.044924 0.062270
v 0.012724 0.036704 0.058604
v 0.012200 -0.014039 0.062270
v 0.010631 -0.044924 0.043432
v 0.012724 0.043510 0.045003
v 0.011677 -0.043347 0.062270
v 0.010107 -0.034973 0.062270
v 0.012724 0.025711 0.053895
v 0.012200 -0.042305 0.047098
v 0.012724 0.042984 0.059654
v 0.010631 0.044561 0.044479
v 0.011677 -0.044924 0.043432
v 0.012724 0.025194 0.051807
v 0.011154 -0.044924 0.062270
f 72 83 85 
f 67 66 68 
f 67 68 71 
f 68 70 71 
f 66 67 72 
f 66 72 74 
f 69 71 75 
f 71 70 75 
f 72 69 75 
f 68 66 76 
f 70 68 76 
f 65 70 77 
f 74 72 77 
f 71 69 78 
f 72 67 78 
f 69 72 78 
f 73 74 79 
f 76 73 79 
f 77 70 80 
f 74 77 80 
f 70 79 80 
f 79 74 80 
f 74 73 81 
f 66 74 81 
f 76 66 81 
f 73 76 81 
f 67 71 82 
f 71 78 82 
f 78 67 82 
f 70 65 83 
f 75 70 83 
f 72 75 83 
f 70 76 84 
f 79 70 84 
f 76 79 84 
f 65 77 85 
f 77 72 85 
f 83 65 85 
o convex_2
v 0.008538 -0.034979 0.064890
v 0.010630 -0.023994 0.082154
v 0.011154 -0.023994 0.080583
v 0.010630 -0.044397 0.081107
v 0.011677 -0.042828 0.062272
v 0.011677 -0.023994 0.062272
v 0.008538 -0.027135 0.072212
v 0.009584 -0.044397 0.081630
v 0.010107 -0.044924 0.062272
v 0.009584 -0.023994 0.082154
v 0.010630 -0.023994 0.062272
v 0.009061 -0.026088 0.064890
v 0.009584 -0.044924 0.064367
v 0.011677 -0.024518 0.070122
v 0.008538 -0.033936 0.072212
v 0.011154 -0.033936 0.077967
v 0.008538 -0.032367 0.064367
v 0.009584 -0.042828 0.082154
v 0.010630 -0.044924 0.079536
v 0.011154 -0.044397 0.062272
v 0.009584 -0.044924 0.080583
v 0.010630 -0.036026 0.082154
f 103 89 107 
f 87 88 91 
f 91 90 94 
f 87 91 95 
f 91 94 96 
f 95 91 96 
f 95 96 97 
f 92 95 97 
f 86 94 98 
f 91 88 99 
f 90 91 99 
f 92 86 100 
f 95 92 100 
f 88 89 101 
f 89 90 101 
f 99 88 101 
f 90 99 101 
f 86 92 102 
f 94 86 102 
f 96 94 102 
f 97 96 102 
f 92 97 102 
f 93 89 103 
f 87 95 103 
f 100 93 103 
f 95 100 103 
f 90 89 104 
f 98 94 104 
f 94 90 105 
f 90 104 105 
f 104 94 105 
f 89 93 106 
f 86 98 106 
f 100 86 106 
f 93 100 106 
f 104 89 106 
f 98 104 106 
f 88 87 107 
f 89 88 107 
f 87 103 107 
o convex_3
v 0.010107 -0.023992 0.075353
v 0.010107 0.033562 0.082156
v 0.010630 0.042460 0.081632
v 0.009584 0.044561 0.075353
v 0.011154 0.044037 0.075353
v 0.011154 -0.022945 0.081108
v 0.009584 -0.023992 0.082156
v 0.009061 0.044037 0.081632
v 0.011154 -0.023992 0.075353
v 0.009584 -0.014040 0.077970
v 0.011154 0.014720 0.081632
v 0.010630 -0.023992 0.082156
v 0.009061 0.031999 0.080586
v 0.009061 0.030429 0.082156
v 0.011154 0.033562 0.080062
v 0.009061 0.042984 0.079539
v 0.009584 -0.023992 0.079539
v 0.010630 0.044561 0.080062
v 0.010630 0.030952 0.082156
f 119 118 126 
f 108 111 112 
f 109 110 115 
f 108 112 116 
f 112 113 116 
f 114 108 116 
f 111 108 117 
f 113 112 118 
f 109 114 119 
f 116 113 119 
f 114 116 119 
f 113 118 119 
f 114 109 121 
f 109 115 121 
f 115 120 121 
f 112 110 122 
f 110 118 122 
f 118 112 122 
f 115 111 123 
f 111 117 123 
f 120 115 123 
f 117 120 123 
f 108 114 124 
f 117 108 124 
f 120 117 124 
f 114 121 124 
f 121 120 124 
f 112 111 125 
f 110 112 125 
f 115 110 125 
f 111 115 125 
f 110 109 126 
f 118 110 126 
f 109 119 126 
o convex_4
v 0.010631 0.003223 0.062795
v 0.010631 0.044561 0.075353
v 0.009584 0.044561 0.075353
v 0.012200 0.044561 0.062273
v 0.011677 0.005314 0.075353
v 0.012200 0.002173 0.062273
v 0.010107 0.002700 0.075353
v 0.010631 0.043507 0.062795
v 0.012200 0.043507 0.066459
v 0.011677 0.031997 0.074304
v 0.012200 0.018396 0.068029
v 0.010631 0.004791 0.062273
v 0.011154 0.044034 0.075353
v 0.009584 0.042984 0.074304
v 0.010107 0.005314 0.072734
v 0.011154 0.044561 0.062273
v 0.011154 0.002700 0.075353
v 0.011677 0.022060 0.075353
v 0.010631 0.002173 0.063319
v 0.012200 0.002173 0.063842
f 133 145 146 
f 129 128 130 
f 128 129 131 
f 131 129 133 
f 132 130 135 
f 132 135 137 
f 132 127 138 
f 130 132 138 
f 130 128 139 
f 128 131 139 
f 135 130 139 
f 136 135 139 
f 133 129 140 
f 129 134 140 
f 134 138 140 
f 140 138 141 
f 138 127 141 
f 133 140 141 
f 129 130 142 
f 134 129 142 
f 130 138 142 
f 138 134 142 
f 131 133 143 
f 135 136 144 
f 137 135 144 
f 131 137 144 
f 139 131 144 
f 136 139 144 
f 127 132 145 
f 141 127 145 
f 133 141 145 
f 137 131 146 
f 132 137 146 
f 131 143 146 
f 143 133 146 
f 145 132 146 
o convex_5
v 0.010631 0.001648 0.062794
v 0.011677 -0.015614 0.065410
v 0.010631 -0.015614 0.065410
v 0.011677 -0.023992 0.062270
v 0.012200 0.002173 0.063840
v 0.010631 -0.023992 0.062270
v 0.012200 0.002173 0.062270
v 0.011677 -0.023992 0.065410
v 0.010631 0.002173 0.064363
v 0.012200 -0.011954 0.062794
v 0.010631 -0.023992 0.065410
v 0.010631 0.000078 0.062270
f 147 153 158 
f 149 147 152 
f 150 152 153 
f 148 149 154 
f 151 148 154 
f 152 150 154 
f 147 149 155 
f 149 148 155 
f 148 151 155 
f 153 147 155 
f 151 153 155 
f 150 153 156 
f 153 151 156 
f 154 150 156 
f 151 154 156 
f 149 152 157 
f 154 149 157 
f 152 154 157 
f 152 147 158 
f 153 152 158 
o convex_6
v 0.010107 -0.021373 0.066981
v 0.011154 -0.002536 0.075353
v 0.011154 -0.002536 0.074829
v 0.011677 -0.023992 0.065410
v 0.011154 -0.023992 0.075353
v 0.010107 -0.023992 0.075353
v 0.010107 -0.005155 0.072211
v 0.011677 -0.016664 0.065410
v 0.011677 -0.018233 0.071166
v 0.010107 -0.002536 0.075353
v 0.010631 -0.016139 0.065410
v 0.010631 -0.023992 0.065410
f 169 162 170 
f 163 160 164 
f 162 163 164 
f 159 164 165 
f 161 160 166 
f 165 161 166 
f 163 162 167 
f 160 163 167 
f 166 160 167 
f 162 166 167 
f 160 161 168 
f 164 160 168 
f 161 165 168 
f 165 164 168 
f 159 165 169 
f 166 162 169 
f 165 166 169 
f 164 159 170 
f 162 164 170 
f 159 169 170 
