# https://github.com/mikedh/trimesh
v -0.37772152 -0.87928104 -0.04460425
v -0.37772152 -0.88318104 -0.04460425
v -0.37770152 -0.88318104 -0.04463426
v -0.36989152 -0.19178104 -0.05247425
v -0.36989152 -0.18787105 -0.05249425
v -0.17848153 -0.68006104 -0.01723425
v -0.17458154 -0.68006104 -0.01723425
v -0.37772152 -0.91053104 -0.04460425
v -0.36986047 -0.80815619 -0.00944622
v -0.36989152 -0.81678104 -0.04467425
v -0.36989152 -0.81287104 -0.04468425
v -0.36987153 -0.82068104 -0.04460425
v -0.36986154 -0.81678104 -0.04460425
v -0.36986154 -0.81287104 -0.04460425
v -0.36989152 -0.80897105 -0.04469426
v -0.36986154 -0.80897105 -0.04460425
v -0.37785795 -0.95016450 -0.00849546
v -0.20973153 0.93311894 0.05304575
v -0.21364152 0.93311894 0.05304575
v -0.39392015 -0.61391449 0.01851908
v -0.37745351 -0.43281302 0.05302928
v -0.37952510 -0.48761678 0.04915913
v -0.38169357 -0.54081780 0.04775139
v -0.37461627 -0.54351228 0.05695391
v -0.28009152 -0.51600105 0.06085575
v -0.12380154 -0.68009102 -0.01725425
v -0.12018098 -0.68497938 -0.02114342
v -0.36989152 -0.83631104 -0.04463426
v -0.37772152 -0.89490104 -0.04460425
v -0.37772152 -0.89881104 -0.04460425
v -0.37770152 -0.93006104 -0.04463426
v -0.37006035 -0.89357704 0.05627392
v -0.36992154 -0.90662104 0.04913575
v -0.36989152 -0.90662104 0.04909575
v -0.36992154 -0.90272105 0.04913575
v -0.37772152 -0.90272105 -0.04460425
v -0.37772152 -0.90662104 -0.04460425
v -0.37770152 -0.94178104 -0.04461425
v -0.36987153 -0.82850105 -0.04460425
v -0.36987153 -0.82459104 -0.04460425
v -0.28009152 -0.42225105 0.06085575
v -0.28009152 -0.41834104 0.06085575
v -0.36991152 -0.89100105 0.04913575
v -0.36991152 -0.88709104 0.04913575
v -0.37018105 -0.76398486 0.05695519
v -0.28005153 -0.38318104 0.06091575
v -0.28005153 -0.38709104 0.06091575
v -0.28009152 -0.38318104 0.06085575
v -0.37770152 -0.91053104 -0.04464425
v -0.39639443 -0.56127876 0.05723083
v -0.36987153 -0.83240104 -0.04460425
v -0.37281609 -0.90210670 -0.04810908
v -0.20225342 -0.68008465 -0.01724688
v -0.20192152 -0.68006104 -0.01723425
v -0.19801155 -0.68009102 -0.01725425
v -0.28005153 -0.54725105 0.06091575
v -0.28005153 -0.55115104 0.06091575
v -0.28009152 -0.54725105 0.06085575
v -0.36991152 -0.89490104 0.04913575
v -0.36989152 -0.80506104 -0.04470425
v -0.37281260 -0.79281646 -0.04928271
v -0.36989152 -0.80115104 -0.04471425
v -0.37770152 -0.91834104 -0.04464425
v -0.37772152 -0.91443104 -0.04460425
v -0.37770152 -0.91443104 -0.04464425
v -0.37770152 -0.89100105 -0.04464425
v -0.36984587 -0.78358054 -0.04465240
v -0.36989152 -0.78553104 -0.04475425
v -0.28009152 0.57773894 0.06085575
v -0.28009152 0.58164895 0.06085575
v -0.37623757 -0.18237619 -0.05508306
v -0.28009152 -0.52381104 0.06085575
v -0.36960369 0.38488460 0.04780379
v -0.38001895 -0.98534679 0.02785887
v -0.28009152 -0.53553104 0.06085575
v -0.28009152 -0.53162104 0.06085575
v -0.36989152 -0.89100105 0.04910575
v -0.36989152 -0.88709104 0.04910575
v -0.37384245 -0.24692512 0.05496114
v -0.36989152 -0.82850105 -0.04465425
v -0.36989152 -0.82459104 -0.04465425
v -0.36989152 -0.34022105 0.05312575
v -0.36985153 -0.33631104 0.05304575
v -0.36989152 -0.33631104 0.05310575
v -0.36984152 -0.34022105 0.05304575
v -0.37771153 -0.93787104 -0.04460425
v -0.37770152 -0.93787104 -0.04462425
v -0.37770152 -0.93397105 -0.04462425
v -0.37772152 -0.93006104 -0.04460425
v -0.37771153 -0.93397105 -0.04460425
v -0.25056124 -0.34885076 -0.01464039
v -0.27689630 -0.88745326 0.02075115
v -0.36989152 -0.79725105 -0.04472426
v -0.36989152 -0.79334104 -0.04473425
v -0.36984152 0.19492894 -0.05632425
v -0.28009152 0.09727894 0.06085575
v -0.28009152 0.10117894 0.06085575
v -0.12770155 0.93311894 0.05304575
v -0.13161154 0.93311894 0.05304575
v -0.13161154 0.93320894 0.05310575
v -0.25863874 -0.38834229 0.05655200
v -0.36985153 -0.80115104 -0.04460425
v -0.36985153 -0.79725105 -0.04460425
v -0.28005153 -0.47303104 0.06091575
v -0.36988154 -0.84412104 -0.04460425
v -0.36988154 -0.84022105 -0.04460425
v -0.37772152 -0.92615104 -0.04460425
v -0.37772152 -0.92225105 -0.04460425
v -0.37770152 -0.92615104 -0.04463426
v -0.37770152 -0.88709104 -0.04464425
v -0.28005153 0.05430894 0.06091575
v -0.28005153 0.05039894 0.06091575
v -0.28009152 0.05430894 0.06085575
v -0.37380031 -0.94709641 -0.04785778
v -0.37771153 -0.94178104 -0.04460425
v -0.37771153 -0.94568104 -0.04460425
v -0.37770152 -0.94568104 -0.04461425
v -0.37771064 -0.86858016 -0.00945365
v -0.36989152 -0.89490104 0.04910575
v -0.36989152 -0.84022105 -0.04462425
v -0.15114152 0.93311894 0.05304575
v -0.37327951 -0.81886488 -0.04903746
v -0.28005153 -0.57459104 0.06091575
v -0.36988154 -0.83631104 -0.04460425
v -0.36390254 -0.90243024 0.04707798
v -0.36986154 -0.80506104 -0.04460425
v -0.36991152 -0.88318104 0.04913575
v -0.36990154 -0.87928104 0.04913575
v -0.37770152 -0.94959104 -0.04460425
v -0.36453971 -0.33537108 0.04970010
v -0.37660101 -0.68685216 0.05695410
v -0.28005153 -0.41053104 0.06091575
v -0.36989152 -0.88318104 0.04911574
v -0.37282935 -0.93489224 0.05414399
v -0.36989152 -0.91053104 0.04908574
v -0.36992154 -0.89881104 0.04913575
v -0.37269729 -0.86109537 -0.04797764
v -0.28005153 0.03086894 0.06091575
v -0.36931330 -0.86877447 0.04829465
v -0.27052590 -0.54260790 0.06149575
v -0.37772152 -0.91834104 -0.04460425
v -0.28144154 -0.50818104 0.04913575
v -0.36989152 -0.91443104 0.04908574
v -0.36992154 -0.91053104 0.04913575
v -0.37772152 -0.88709104 -0.04460425
v -0.37772152 -0.89100105 -0.04460425
v -0.37770152 -0.89490104 -0.04464425
v -0.28005153 -0.50037104 0.06091575
v -0.28009152 -0.49647105 0.06085575
v -0.28009152 -0.50037104 0.06085575
v -0.28009152 -0.55897105 0.06085575
v -0.28009152 -0.55506104 0.06085575
v -0.28005153 -0.48865104 0.06091575
v -0.36989152 -0.87928104 0.04911574
v -0.28005153 -0.46522105 0.06091575
v -0.14918654 -0.67615104 -0.01681425
v -0.28009152 0.64414895 0.06085575
v -0.28005153 -0.59022105 0.06091575
v -0.28005153 -0.50428104 0.06091575
v -0.37380153 -0.49976107 0.05695574
v -0.37439889 -0.68124408 -0.05049201
v -0.37766919 -0.51874202 0.05323493
v -0.37857082 -0.72564656 0.05300062
v -0.36990154 -0.87537104 0.04913575
v -0.36989152 -0.83240104 -0.04464425
v -0.28009152 0.32383895 0.06085575
v -0.36989152 -0.82068104 -0.04466426
v -0.36989152 -0.90272105 0.04909575
v -0.36989152 -0.78943104 -0.04474425
v -0.36985153 -0.78943104 -0.04460425
v -0.28175530 0.33787486 0.04896700
v -0.16530155 -0.67615104 -0.01681425
v -0.19630779 -0.67615104 -0.01681425
v -0.28009152 -0.47693104 0.06085575
v -0.28009152 -0.47303104 0.06085575
v -0.14333154 -0.68006104 -0.01723425
v -0.13942152 -0.68006104 -0.01723425
v -0.28005153 -0.52772105 0.06091575
v -0.21193804 -0.67560041 -0.01777105
v -0.19411154 -0.68009102 -0.01725425
v -0.19411154 -0.68006104 -0.01723425
v -0.19020155 -0.68009102 -0.01725425
v -0.36972123 -0.76154310 0.04913660
v -0.28009152 -0.51990104 0.06085575
v -0.08864154 -0.68009102 -0.01725425
v -0.09023981 -0.68398041 -0.02048189
v -0.38110992 -0.60602462 0.04811756
v -0.15114152 -0.68006104 -0.01723425
v -0.14723153 -0.68006104 -0.01723425
v -0.18630154 -0.68009102 -0.01725425
v -0.15505154 -0.68009102 -0.01725425
v -0.15895155 -0.68006104 -0.01723425
v -0.15505154 -0.68006104 -0.01723425
v -0.18630154 -0.68006104 -0.01723425
v -0.18239152 -0.68006104 -0.01723425
v -0.17848153 -0.68009102 -0.01725425
v -0.17458154 -0.68009102 -0.01725425
v -0.37770152 -0.90272105 -0.04464425
v -0.13551155 -0.68006104 -0.01723425
v -0.37422016 -0.52148026 0.05695316
v -0.37373021 -0.50486004 0.05699106
v -0.37396154 -0.50818104 0.05695574
v -0.28009152 -0.53943104 0.06085575
v -0.17067152 -0.68009102 -0.01725425
v -0.37537172 -0.58863866 0.05694473
v -0.13161154 -0.68009102 -0.01725425
v -0.12770155 -0.68009102 -0.01725425
v -0.28009152 -0.56287104 0.06085575
v -0.28009152 -0.56678104 0.06085575
v -0.28005153 -0.56678104 0.06091575
v -0.28005153 -0.42225105 0.06091575
v -0.28005153 -0.42615104 0.06091575
v -0.37380221 -0.56277394 0.05752385
v -0.36930713 -0.50479633 0.05209792
v -0.28009152 -0.05506106 0.06085575
v -0.28009152 -0.05115106 0.06085575
v -0.37054521 -0.62289423 0.05617334
v -0.28174353 -0.46315336 0.04792122
v -0.18239152 -0.68009102 -0.01725425
v -0.37380049 -0.68377423 0.05860966
v -0.17067152 -0.68006104 -0.01723425
v -0.37380153 -0.50428104 0.05699575
v -0.37378153 -0.50037104 0.05695574
v -0.28009152 -0.48475105 0.06085575
v -0.28009152 -0.48865104 0.06085575
v -0.19411154 0.93311894 0.05304575
v -0.19801155 0.93311894 0.05304575
v -0.37380153 -0.50037104 0.05695574
v -0.36989152 -0.89881104 0.04909575
v -0.19801155 -0.68006104 -0.01723425
v -0.16676155 -0.68006104 -0.01723425
v -0.16286154 -0.68006104 -0.01723425
v -0.13942152 -0.68009102 -0.01725425
v -0.01833154 -0.68009102 -0.01725425
v -0.02223154 -0.68006104 -0.01723425
v -0.01833154 -0.68006104 -0.01723425
v -0.37364760 -0.51387686 0.05708457
v -0.37770152 -0.89881104 -0.04464425
v -0.37380120 -0.91366726 -0.04815701
v -0.28005153 -0.53553104 0.06091575
v -0.37388152 -0.50428104 0.05695574
v -0.37381154 -0.50037104 0.05695574
v -0.37998730 -0.59029156 0.04937890
v -0.28009152 -0.58240104 0.06085575
v -0.28005153 -0.52381104 0.06091575
v -0.28005153 -0.03162106 0.06091575
v -0.37380108 -0.61570394 0.05799660
v -0.38161039 -0.43178847 0.04777543
v -0.13161154 -0.68006104 -0.01723425
v -0.14723153 -0.68009102 -0.01725425
v -0.14333154 -0.68009102 -0.01725425
v -0.28005153 -0.53162104 0.06091575
v -0.28009152 -0.52772105 0.06085575
v -0.16676916 -0.70699662 -0.00981408
v -0.19020155 0.93311894 0.05304575
v -0.19020155 0.93320894 0.05310575
v -0.18630154 0.93311894 0.05304575
v -0.28009152 0.24961893 0.06085575
v -0.37002710 -0.22895561 -0.05215714
v -0.28009152 0.13242894 0.06085575
v -0.28009152 0.12852894 0.06085575
v -0.28005153 0.12852894 0.06091575
v -0.37380204 -0.53575063 0.05727532
v -0.37769684 -0.49932289 0.05305059
v -0.36833724 0.24569577 -0.00752968
v -0.37220100 -0.35568401 0.05518465
v -0.16286154 -0.68009102 -0.01725425
v -0.13551155 -0.68009102 -0.01725425
v -0.20192152 0.93311894 0.05304575
v -0.37770152 -0.90662104 -0.04464425
v -0.17458154 0.93311894 0.05304575
v -0.17067152 0.93311894 0.05304575
v -0.13038841 -0.67615104 -0.01681425
v -0.28005153 -0.47693104 0.06091575
v -0.21755154 0.93311894 0.05304575
v -0.28009152 -0.51209104 0.06085575
v -0.28009152 -0.50818104 0.06085575
v -0.36972415 -0.16339874 -0.05241435
v -0.36869302 -0.53243291 0.04806412
v -0.19801155 0.93320894 0.05310575
v -0.20192152 0.93320894 0.05310575
v -0.36912215 -0.52027744 -0.04500576
v -0.36989152 -0.17615107 -0.05257425
v -0.36989152 -0.17225106 -0.05259425
v -0.36988154 -0.19959106 -0.05241425
v -0.36986154 -0.19568107 -0.05241425
v -0.28009152 -0.41443104 0.06085575
v -0.38342473 -0.42119986 -0.00568542
v -0.37823108 -0.37078640 0.05095617
v -0.09889529 -0.67615104 -0.01681425
v -0.18239152 0.93311894 0.05304575
v -0.18239152 0.93320894 0.05310575
v -0.17848153 0.93311894 0.05304575
v -0.28009152 -0.43787104 0.06085575
v -0.08083154 -0.22687104 0.06085575
v -0.36986154 -0.33240104 0.05304575
v -0.36893815 -0.15124016 -0.00627339
v -0.36989152 -0.20085105 -0.05241425
v -0.28005153 -0.57068104 0.06091575
v -0.36985153 -0.79334104 -0.04460425
v -0.36985153 -0.19178104 -0.05241425
v -0.36989152 -0.34803104 0.05315575
v -0.36983153 -0.34412104 0.05304575
v -0.36989152 -0.34412104 0.05313575
v -0.28009152 -0.39881104 0.06085575
v -0.28009152 -0.40272105 0.06085575
v -0.28005153 -0.40272105 0.06091575
v -0.36947408 -0.19479664 -0.04852443
v -0.08083154 -0.68006104 -0.01723425
v 0.06464018 -0.23896997 0.05493043
v -0.45126194 -0.08181629 0.06168111
v -0.28005153 0.26523894 0.06091575
v 0.11056846 -0.22693107 0.06091575
v -0.28206903 -0.53870165 0.04879825
v -0.14723153 0.93311894 0.05304575
v -0.37009910 0.17148332 -0.05632668
v -0.36989152 -0.16834106 -0.05262425
v -0.37604678 -0.14824885 0.05139328
v -0.36699557 0.20474689 0.04780815
v -0.37461421 0.04226110 -0.05664264
v -0.06822380 0.97812706 0.05159200
v -0.37380487 -0.19259576 -0.05461346
v 0.01681846 -0.22687104 0.06085575
v 0.01290846 -0.22687104 0.06085575
v 0.01681846 -0.22693107 0.06091575
v -0.36989152 -0.33240104 0.05308575
v -0.36989152 -0.19568107 -0.05244425
v -0.25769284 0.96610075 0.05463736
v -0.03224447 -0.19840208 0.05941137
v -0.36983153 -0.18787105 -0.05241425
v -0.36989152 -0.18397106 -0.05252425
v -0.36981153 -0.18397106 -0.05241425
v -0.28009152 -0.00037106 0.06085575
v -0.28009152 0.00352894 0.06085575
v -0.36979154 -0.18006106 -0.05241425
v -0.36978152 -0.17615107 -0.05241425
v -0.36989152 -0.18006106 -0.05254425
v -0.18630154 0.93320894 0.05310575
v -0.37929076 -0.10744031 0.04816965
v -0.37052995 0.14322194 -0.05632082
v -0.37871334 0.01128632 -0.00977945
v -0.01442154 -0.22687104 0.06085575
v -0.01051154 -0.22687104 0.06085575
v -0.36976153 -0.17225106 -0.05241425
v -0.36989152 -0.19959106 -0.05242425
v -0.20583154 0.93320894 0.05310575
v -0.28009152 0.44102895 0.06085575
v -0.28009152 0.44492894 0.06085575
v -0.22145155 0.93311894 0.05304575
v -0.37898645 0.10082288 0.04742264
v -0.37379488 0.10671826 0.05147561
v -0.28009152 -0.49256104 0.06085575
v -0.15505154 0.93311894 0.05304575
v -0.21755154 0.93320894 0.05310575
v -0.22145155 0.93320894 0.05310575
v -0.22926155 0.93320894 0.05310575
v -0.37323475 -0.33657172 0.05534325
v -0.28005153 -0.51990104 0.06091575
v -0.37543458 0.19229355 -0.05769854
v -0.36976734 0.20749401 -0.05632504
v -0.36979154 0.20273896 -0.05632425
v -0.36989152 0.20664895 -0.05646425
v -0.36989152 0.20273896 -0.05643425
v -0.37022722 0.13552317 -0.05600859
v -0.27979881 -0.62049878 0.05464331
v -0.36988038 0.18820083 -0.05632636
v -0.28005153 -0.50818104 0.06091575
v -0.28009152 -0.50428104 0.06085575
v -0.28005153 -0.06287106 0.06091575
v -0.28005153 -0.06678105 0.06091575
v -0.28009152 -0.06287106 0.06085575
v -0.28009152 -0.38709104 0.06085575
v -0.28009152 -0.46522105 0.06085575
v -0.28009152 -0.46131104 0.06085575
v -0.22926155 0.93311894 0.05304575
v -0.21364152 0.93320894 0.05310575
v -0.36990035 0.17066458 -0.05585623
v -0.36989152 0.18666895 -0.05632425
v -0.16306251 0.90969127 0.02851090
v -0.08473154 0.93311894 0.05304575
v -0.08864154 0.93311894 0.05304575
v -0.37762120 0.33331546 0.04772238
v -0.37360176 0.21639360 0.05054878
v -0.36989152 0.21055894 -0.05649425
v -0.28009152 0.08164894 0.06085575
v -0.28005153 0.08164894 0.06091575
v -0.28009152 0.08555894 0.06085575
v -0.28009152 0.18711893 0.06085575
v -0.28009152 0.18320896 0.06085575
v -0.28005153 0.18320896 0.06091575
v -0.37770152 -0.92225105 -0.04463426
v -0.28005153 0.52305895 0.06091575
v -0.28009152 0.52695894 0.06085575
v -0.28009152 0.52305895 0.06085575
v -0.36922574 0.19827755 -0.05238958
v -0.37009346 0.23440789 -0.05709362
v -0.28080153 -0.01843918 0.05573387
v -0.37139332 -0.00518416 -0.05571667
v -0.28144154 0.37535143 0.04913575
v -0.20583154 0.93311894 0.05304575
v -0.28009152 0.36289895 0.06085575
v -0.28009152 0.36680895 0.06085575
v -0.28009152 0.34336895 0.06085575
v -0.28009152 0.34727895 0.06085575
v -0.37853035 0.49595121 0.04778800
v -0.28005153 0.39414895 0.06091575
v -0.28009152 0.39805895 0.06085575
v -0.28009152 0.39414895 0.06085575
v -0.37383261 0.41027293 0.04866049
v -0.28009152 0.06211894 0.06085575
v -0.28009152 0.05820894 0.06085575
v -0.28005153 0.05820894 0.06091575
v -0.28009152 0.28477895 0.06085575
v -0.28009152 0.28867894 0.06085575
v -0.28175530 0.42503300 0.04896700
v -0.24689803 0.29546234 0.05418676
v -0.28005153 0.65977895 0.06091575
v -0.28005153 0.37070894 0.06091575
v -0.28005153 0.24961893 0.06091575
v -0.28009152 0.25352895 0.06085575
v -0.37362573 0.02154140 0.05053059
v -0.28005153 -0.03553106 0.06091575
v -0.28005153 -0.03943106 0.06091575
v -0.28009152 -0.03553106 0.06085575
v -0.28223222 0.65226364 0.04869246
v -0.28005153 0.07773895 0.06091575
v -0.28005153 0.07383894 0.06091575
v -0.28009152 0.07773895 0.06085575
v -0.28009152 -0.01600106 0.06085575
v -0.28009152 -0.01209106 0.06085575
v -0.28009152 -0.48084104 0.06085575
v -0.28005153 -0.48084104 0.06091575
v -0.37386784 -0.43639159 0.05664130
v -0.28005153 -0.49647105 0.06091575
v -0.28005153 -0.51600105 0.06091575
v -0.28005153 0.09336894 0.06091575
v -0.28005153 0.09727894 0.06091575
v -0.28005153 -0.39881104 0.06091575
v -0.28009152 -0.03162106 0.06085575
v -0.28009152 -0.02772106 0.06085575
v -0.28005153 -0.57850105 0.06091575
v -0.28005153 -0.58240104 0.06091575
v -0.28009152 -0.57850105 0.06085575
v -0.36987153 -0.32850105 0.05304575
v -0.28222591 0.13993739 0.04871387
v -0.28005153 -0.55506104 0.06091575
v -0.28009152 -0.55115104 0.06085575
v -0.36979246 0.21464041 -0.05644989
v -0.24117060 -0.58582163 0.04781450
v -0.28206903 0.21983394 0.04879825
v -0.28005153 0.13242894 0.06091575
v -0.36989152 0.19883893 -0.05640425
v -0.36982152 0.19883893 -0.05632425
v -0.28009152 0.11289894 0.06085575
v -0.28009152 0.23789895 0.06085575
v -0.28009152 0.24180894 0.06085575
v -0.28009152 0.48398894 0.06085575
v -0.28009152 0.48789895 0.06085575
v -0.28005153 0.21055894 0.06091575
v -0.28005153 0.20664895 0.06091575
v -0.28009152 0.21055894 0.06085575
v -0.28005153 0.46055895 0.06091575
v -0.28009152 0.15586893 0.06085575
v -0.28009152 0.15977894 0.06085575
v -0.28009152 0.38633895 0.06085575
v -0.28005153 0.38633895 0.06091575
v -0.28009152 0.39023894 0.06085575
v -0.37376761 0.28392646 0.04986443
v -0.28005153 0.28477895 0.06091575
v -0.28206903 0.19078332 0.04879825
v -0.28009152 0.59336895 0.06085575
v -0.28005153 0.36289895 0.06091575
v -0.28009152 0.31992894 0.06085575
v -0.28005153 0.45664895 0.06091575
v -0.28009152 0.64805895 0.06085575
v -0.28005153 0.64414895 0.06091575
v -0.28005153 0.64805895 0.06091575
v -0.39571121 0.67003071 0.05604282
v -0.28009152 -0.04725106 0.06085575
v -0.28175530 0.54069537 0.04896700
v -0.28009152 0.53477895 0.06085575
v -0.28009152 0.53867894 0.06085575
v -0.28009152 0.67148894 0.06085575
v -0.28005153 0.66758895 0.06091575
v -0.28005153 0.67148894 0.06091575
v -0.28005153 0.60117894 0.06091575
v -0.28009152 0.60508895 0.06085575
v -0.28009152 0.60117894 0.06085575
v -0.28005153 0.21836893 0.06091575
v -0.28009152 0.22227894 0.06085575
v -0.28009152 0.21836893 0.06085575
v -0.28009152 0.14414895 0.06085575
v -0.28009152 0.33945894 0.06085575
v -0.28005153 0.03477894 0.06091575
v -0.28009152 0.40195894 0.06085575
v -0.28172693 0.27115852 0.04897747
v -0.28005153 0.10117894 0.06091575
v -0.28144154 0.00157644 0.04913575
v -0.28005153 0.10508894 0.06091575
v -0.22656076 0.13397522 0.06137653
v -0.28009152 0.10508894 0.06085575
v -0.28009152 0.04648894 0.06085575
v -0.28009152 0.04258894 0.06085575
v -0.28005153 0.04258894 0.06091575
v -0.28009152 0.65977895 0.06085575
v -0.28005153 0.61680895 0.06091575
v -0.28005153 -0.43006104 0.06091575
v -0.28005153 -0.43397105 0.06091575
v -0.28009152 -0.43006104 0.06085575
v -0.28009152 -0.42615104 0.06085575
v -0.28009152 -0.37928104 0.06085575
v -0.28005153 -0.45350105 0.06091575
v -0.28005153 -0.48475105 0.06091575
v -0.28005153 -0.45740104 0.06091575
v -0.28009152 -0.45350105 0.06085575
v -0.28009152 -0.45740104 0.06085575
v -0.28005153 -0.44178104 0.06091575
v -0.28005153 -0.44568104 0.06091575
v -0.28009152 -0.44178104 0.06085575
v -0.28005153 -0.40662104 0.06091575
v -0.28005153 -0.56287104 0.06091575
v -0.28005153 -0.44959104 0.06091575
v -0.28009152 -0.44959104 0.06085575
v -0.28005153 -0.41834104 0.06091575
v -0.28160763 -0.42567995 0.04800795
v -0.28005153 -0.54334104 0.06091575
v -0.28005153 -0.53943104 0.06091575
v -0.28005153 -0.43787104 0.06091575
v -0.28206903 -0.39392668 0.04879825
v -0.28230435 -0.05197871 0.04867168
v -0.28005153 -0.46131104 0.06091575
v -0.28005153 -0.46912104 0.06091575
v -0.28009152 -0.46912104 0.06085575
v -0.28005153 -0.51209104 0.06091575
v -0.28009152 -0.43397105 0.06085575
v -0.28005153 0.55430895 0.06091575
v -0.28009152 0.55820894 0.06085575
v -0.28009152 0.55430895 0.06085575
v -0.28005153 -0.05897106 0.06091575
v -0.28009152 -0.05897106 0.06085575
v -0.28009152 -0.07068106 0.06085575
v -0.25835872 -0.07567465 0.06018606
v -0.28009152 -0.06678105 0.06085575
v -0.28009152 0.03086894 0.06085575
v -0.28005153 -0.01600106 0.06091575
v -0.28005153 -0.41443104 0.06091575
v -0.28009152 -0.41053104 0.06085575
v -0.28166649 -0.09269974 0.05642177
v -0.28009152 -0.40662104 0.06085575
v -0.27028152 0.06895644 0.06191075
v -0.24259253 -0.20366484 0.05722402
v -0.28005153 0.03867894 0.06091575
v -0.28009152 0.03867894 0.06085575
v -0.28009152 0.05039894 0.06085575
v -0.28009152 -0.02381106 0.06085575
v -0.28005153 -0.04725106 0.06091575
v -0.28005153 -0.05115106 0.06091575
v -0.24875997 0.02446070 0.05494700
v -0.28009152 -0.04334106 0.06085575
v -0.28009152 0.46055895 0.06085575
v -0.28238279 0.06199644 0.04862950
v -0.28009152 -0.01990106 0.06085575
v -0.28005153 -0.01990106 0.06091575
v -0.28009152 -0.00428106 0.06085575
v -0.28009152 -0.00818106 0.06085575
v -0.28005153 0.08555894 0.06091575
v -0.28009152 0.03477894 0.06085575
v -0.28005153 0.15977894 0.06091575
v -0.28005153 0.15586893 0.06091575
v -0.28009152 0.06602894 0.06085575
v -0.28009152 0.06992894 0.06085575
v -0.28005153 -0.01209106 0.06091575
v -0.28009152 0.01914894 0.06085575
v -0.28009152 0.02305894 0.06085575
v -0.28009152 -0.03943106 0.06085575
v -0.28206903 0.03550644 0.04879825
v -0.28009152 0.15195896 0.06085575
v -0.28009152 0.14805894 0.06085575
v -0.28005153 -0.00818106 0.06091575
v -0.28005153 0.01523894 0.06091575
v -0.28009152 0.26914895 0.06085575
v -0.28005153 0.26914895 0.06091575
v -0.28009152 0.27305895 0.06085575
v -0.28009152 0.09336894 0.06085575
v -0.28009152 0.08945894 0.06085575
v -0.28005153 0.08945894 0.06091575
v -0.28080153 0.09654144 0.05548950
v -0.28005153 0.23008893 0.06091575
v -0.28005153 0.16367894 0.06091575
v -0.28009152 0.16367894 0.06085575
v -0.28005153 0.29648894 0.06091575
v -0.28005153 0.18711893 0.06091575
v -0.28009152 0.19102894 0.06085575
v -0.28005153 0.06992894 0.06091575
v -0.28005153 0.06602894 0.06091575
v -0.28009152 -0.39490104 0.06085575
v -0.28005153 0.27305895 0.06091575
v -0.28009152 0.12461894 0.06085575
v -0.28009152 0.28086895 0.06085575
v -0.28009152 0.27695894 0.06085575
v -0.28005153 0.27695894 0.06091575
v -0.28005153 0.19102894 0.06091575
v -0.28009152 0.07383894 0.06085575
v -0.28009152 0.14023896 0.06085575
v -0.28009152 0.19492894 0.06085575
v -0.28009152 0.25742894 0.06085575
v -0.28005153 0.24180894 0.06091575
v -0.28005153 0.23789895 0.06091575
v -0.28005153 0.15195896 0.06091575
v -0.28009152 0.30039895 0.06085575
v -0.28009152 0.29648894 0.06085575
v -0.28005153 0.19492894 0.06091575
v -0.28009152 0.19883893 0.06085575
v -0.28009152 0.17539895 0.06085575
v -0.28005153 0.17539895 0.06091575
v -0.28009152 0.17930894 0.06085575
v -0.28009152 0.32773894 0.06085575
v -0.28009152 0.33164895 0.06085575
v -0.28005153 0.34336895 0.06091575
v -0.28206903 0.30674955 0.04879825
v -0.28005153 0.36680895 0.06091575
v -0.28005153 0.12461894 0.06091575
v -0.28005153 0.32773894 0.06091575
v -0.28005153 0.32383895 0.06091575
v -0.28189170 0.49204654 0.04883477
v -0.28005153 0.23398896 0.06091575
v -0.28009152 0.56211895 0.06085575
v -0.28005153 0.55820894 0.06091575
v -0.28005153 0.22617894 0.06091575
v -0.28009152 0.23008893 0.06085575
v -0.28005153 0.39805895 0.06091575
v -0.28005153 0.31211895 0.06091575
v -0.28005153 0.44102895 0.06091575
v -0.28005153 0.43711895 0.06091575
v -0.28009152 0.43711895 0.06085575
v -0.28009152 0.45664895 0.06085575
v -0.26610005 0.37100211 0.06075871
v -0.28009152 0.45273894 0.06085575
v -0.28009152 0.44883895 0.06085575
v -0.28005153 0.44883895 0.06091575
v -0.28005153 0.28086895 0.06091575
v -0.28005153 0.39023894 0.06091575
v -0.28005153 0.31992894 0.06091575
v -0.28009152 0.37461895 0.06085575
v -0.28009152 0.37070894 0.06085575
v -0.28009152 0.50352895 0.06085575
v -0.28009152 0.50742894 0.06085575
v -0.28005153 0.46445894 0.06091575
v -0.28005153 0.56602895 0.06091575
v -0.28005153 0.56211895 0.06091575
v -0.28009152 0.56602895 0.06085575
v -0.28005153 0.49961895 0.06091575
v -0.28009152 0.48008895 0.06085575
v -0.28005153 0.30039895 0.06091575
v -0.28009152 0.30430895 0.06085575
v -0.28005153 0.49570894 0.06091575
v -0.28009152 0.49961895 0.06085575
v -0.25568670 0.47488421 0.05971036
v -0.28009152 0.61289895 0.06085575
v -0.28005153 0.61289895 0.06091575
v -0.28009152 0.61680895 0.06085575
v -0.28005153 0.38242894 0.06091575
v -0.28005153 0.54648894 0.06091575
v -0.28005153 0.54258895 0.06091575
v -0.28009152 0.54648894 0.06085575
v -0.28191608 0.59131938 0.04898008
v 0.34503785 -0.34354949 -0.02724313
v -0.28009152 0.55039895 0.06085575
v -0.28005153 0.55039895 0.06091575
v -0.28009152 0.46836895 0.06085575
v -0.28005153 0.50742894 0.06091575
v -0.28005153 0.50352895 0.06091575
v -0.28005153 0.48008895 0.06091575
v -0.28009152 0.51133895 0.06085575
v -0.28005153 0.58164895 0.06091575
v -0.28005153 0.57773894 0.06091575
v -0.28009152 0.35117894 0.06085575
v -0.28005153 0.48398894 0.06091575
v -0.28005153 0.60508895 0.06091575
v -0.28009152 0.60898894 0.06085575
v -0.26040199 0.53758281 0.06108028
v -0.28005153 0.53477895 0.06091575
v -0.28009152 0.57383895 0.06085575
v -0.28005153 0.51133895 0.06091575
v -0.28005153 0.49180895 0.06091575
v -0.28009152 0.49570894 0.06085575
v -0.28009152 0.56992894 0.06085575
v -0.28005153 0.57383895 0.06091575
v -0.28005153 0.58555895 0.06091575
v -0.28009152 0.58945894 0.06085575
v -0.28005153 0.65586895 0.06091575
v -0.28005153 0.53867894 0.06091575
v -0.28009152 0.54258895 0.06085575
v -0.28009152 0.68711895 0.06085575
v -0.28009152 0.66367894 0.06085575
v -0.28152215 0.68291169 0.04859694
v -0.24064387 0.63922071 0.04860840
v -0.25803378 0.73789638 0.06019953
v -0.28009152 0.67539895 0.06085575
v -0.28005153 0.67539895 0.06091575
v -0.28009152 0.65195894 0.06085575
v -0.24648146 -0.50696450 0.05380778
v -0.28005153 -0.05506106 0.06091575
v -0.28044653 -0.58747196 0.05805043
v -0.28009152 -0.58631104 0.06085575
v -0.28005153 -0.55897105 0.06091575
v -0.28009152 -0.44568104 0.06085575
v -0.28009152 -0.54334104 0.06085575
v -0.28009152 -0.57459104 0.06085575
v -0.28009152 -0.57068104 0.06085575
v -0.28005153 -0.49256104 0.06091575
v -0.28009152 -0.39100105 0.06085575
v -0.28005153 -0.58631104 0.06091575
v -0.28005153 -0.39490104 0.06091575
v -0.28005153 -0.39100105 0.06091575
v -0.17848153 0.93320894 0.05310575
v -0.28009152 0.11680894 0.06085575
v -0.28009152 0.12070894 0.06085575
v -0.28005153 0.11289894 0.06091575
v -0.28005153 -0.07068106 0.06091575
v -0.28005153 0.00352894 0.06091575
v -0.28005153 -0.00037106 0.06091575
v -0.28005153 -0.02381106 0.06091575
v -0.28005153 0.00742894 0.06091575
v -0.28009152 0.01133894 0.06085575
v -0.28009152 0.00742894 0.06085575
v -0.28005153 -0.02772106 0.06091575
v -0.28005153 0.02695894 0.06091575
v -0.28005153 -0.04334106 0.06091575
v -0.28005153 0.35117894 0.06091575
v -0.28005153 0.34727895 0.06091575
v -0.28005153 0.02305894 0.06091575
v -0.28009152 0.02695894 0.06085575
v -0.28005153 0.33945894 0.06091575
v -0.28005153 -0.07459106 0.06091575
v -0.28009152 0.01523894 0.06085575
v -0.28005153 0.13633893 0.06091575
v -0.28005153 -0.00428106 0.06091575
v -0.28009152 0.23398896 0.06085575
v -0.28005153 0.17148896 0.06091575
v -0.28005153 0.06211894 0.06091575
v -0.28009152 0.13633893 0.06085575
v -0.25771731 -0.00977434 0.05987106
v -0.28005153 0.20273896 0.06091575
v -0.28005153 0.19883893 0.06091575
v -0.28009152 0.20273896 0.06085575
v -0.28009152 0.10898895 0.06085575
v -0.28005153 0.14414895 0.06091575
v -0.28005153 0.14023896 0.06091575
v -0.28005153 0.16758893 0.06091575
v -0.28005153 0.22227894 0.06091575
v -0.28009152 0.22617894 0.06085575
v -0.25529373 0.17631431 0.06004215
v -0.28005153 0.10898895 0.06091575
v -0.28005153 0.01133894 0.06091575
v -0.28005153 0.01914894 0.06091575
v -0.28009152 0.31602895 0.06085575
v -0.28005153 0.31602895 0.06091575
v -0.28005153 0.25352895 0.06091575
v -0.28009152 0.16758893 0.06085575
v -0.28005153 0.04648894 0.06091575
v -0.28005153 0.12070894 0.06091575
v -0.28009152 0.26133895 0.06085575
v -0.28009152 0.29258895 0.06085575
v -0.28009152 0.17148896 0.06085575
v -0.28005153 0.11680894 0.06091575
v -0.26323810 0.21832272 0.06038231
v -0.27125904 0.26036018 0.06192575
v -0.28009152 0.21445896 0.06085575
v -0.28005153 0.14805894 0.06091575
v -0.28009152 0.20664895 0.06085575
v -0.28005153 0.17930894 0.06091575
v -0.28009152 0.33555895 0.06085575
v -0.28005153 0.33164895 0.06091575
v -0.28005153 0.25742894 0.06091575
v -0.28005153 0.30820894 0.06091575
v -0.28009152 0.31211895 0.06085575
v -0.28009152 0.26523894 0.06085575
v -0.28009152 0.42930895 0.06085575
v -0.28005153 0.40977895 0.06091575
v -0.28005153 0.26133895 0.06091575
v -0.28009152 0.24570896 0.06085575
v -0.28005153 0.24570896 0.06091575
v -0.28005153 0.28867894 0.06091575
v -0.28009152 0.38242894 0.06085575
v -0.28005153 0.29258895 0.06091575
v -0.28005153 0.37461895 0.06091575
v -0.28009152 0.37852895 0.06085575
v -0.28009152 0.40586895 0.06085575
v -0.28005153 0.21445896 0.06091575
v -0.28005153 0.30430895 0.06091575
v -0.28009152 0.30820894 0.06085575
v -0.28005153 0.35898894 0.06091575
v -0.28005153 0.35508895 0.06091575
v -0.28009152 0.35898894 0.06085575
v -0.28005153 0.51523894 0.06091575
v -0.28009152 0.51523894 0.06085575
v -0.28005153 0.42930895 0.06091575
v -0.28005153 0.42539895 0.06091575
v -0.28005153 0.33555895 0.06091575
v -0.25052187 0.35703987 0.05779918
v -0.28009152 0.43320894 0.06085575
v -0.28009152 0.47227895 0.06085575
v -0.28009152 0.47617894 0.06085575
v -0.28080153 0.40049830 0.05646699
v -0.28005153 0.37852895 0.06091575
v -0.28005153 0.47617894 0.06091575
v -0.28005153 0.47227895 0.06091575
v -0.28009152 0.40977895 0.06085575
v -0.28009152 0.41367894 0.06085575
v -0.28005153 0.40586895 0.06091575
v -0.28009152 0.42148894 0.06085575
v -0.28009152 0.41758895 0.06085575
v -0.28005153 0.41758895 0.06091575
v -0.28005153 0.42148894 0.06091575
v -0.28080153 0.44810456 0.05561168
v -0.28005153 0.43320894 0.06091575
v -0.28009152 0.35508895 0.06085575
v -0.28009152 0.42539895 0.06085575
v -0.28005153 0.41367894 0.06091575
v -0.28009152 0.58555895 0.06085575
v -0.28005153 0.60898894 0.06091575
v -0.28005153 0.40195894 0.06091575
v -0.28009152 0.53086895 0.06085575
v -0.28005153 0.46836895 0.06091575
v -0.28005153 0.45273894 0.06091575
v -0.28009152 0.46445894 0.06085575
v -0.28005153 0.48789895 0.06091575
v -0.28009152 0.51914895 0.06085575
v -0.28005153 0.52695894 0.06091575
v -0.28009152 0.49180895 0.06085575
v -0.28005153 0.44492894 0.06091575
v -0.28009152 0.65586895 0.06085575
v -0.28005153 0.65195894 0.06091575
v -0.28005153 0.62852895 0.06091575
v -0.28009152 0.59727895 0.06085575
v -0.28005153 0.59727895 0.06091575
v -0.28005153 0.62070894 0.06091575
v -0.28005153 0.51914895 0.06091575
v -0.25602287 0.59463471 0.05763375
v -0.28005153 0.56992894 0.06091575
v -0.28005153 0.53086895 0.06091575
v -0.28005153 0.59336895 0.06091575
v -0.28005153 0.58945894 0.06091575
v -0.28005153 0.63633895 0.06091575
v -0.28009152 0.64023894 0.06085575
v -0.28009152 0.63633895 0.06085575
v -0.28005153 0.64023894 0.06091575
v -0.28009152 0.66758895 0.06085575
v -0.28009152 0.62461895 0.06085575
v -0.28005153 0.68320894 0.06091575
v -0.28009152 0.68320894 0.06085575
v -0.28005153 0.67930895 0.06091575
v -0.28009152 0.62070894 0.06085575
v -0.28009152 0.63242894 0.06085575
v -0.28005153 0.63242894 0.06091575
v -0.28009152 0.62852895 0.06085575
v -0.28005153 0.66367894 0.06091575
v -0.28005153 0.62461895 0.06091575
v -0.25426272 0.66188860 0.06205352
v -0.28009152 0.67930895 0.06085575
v -0.19020155 -0.68006104 -0.01723425
v -0.23070782 0.92171460 0.04738085
v -0.22536154 0.93311894 0.05304575
v -0.22536154 0.93320894 0.05310575
v -0.23317152 0.93320894 0.05310575
v -0.19411154 0.93320894 0.05310575
v -0.24889565 -0.44929492 0.05344129
v -0.15895155 -0.68009102 -0.01725425
v -0.16676155 -0.68009102 -0.01725425
v 0.24337848 0.93320894 0.05310575
v -0.20973153 0.93320894 0.05310575
v -0.08473154 -0.68009102 -0.01725425
v -0.08083154 -0.68009102 -0.01725425
v -0.12770155 -0.68006104 -0.01723425
v -0.11989154 -0.68006104 -0.01723425
v -0.10817154 -0.68009102 -0.01725425
v -0.11208154 -0.68006104 -0.01723425
v -0.10817154 -0.68006104 -0.01723425
v -0.20094529 0.93956268 0.05380075
v -0.16066279 0.97763264 0.05255700
v -0.16676155 0.93311894 0.05304575
v -0.17067152 0.93320894 0.05310575
v -0.15114152 -0.68009102 -0.01725425
v -0.17458154 0.93320894 0.05310575
v -0.15895155 0.93320894 0.05310575
v -0.09645154 -0.68009102 -0.01725425
v -0.13942152 0.93311894 0.05304575
v -0.14333154 0.93320894 0.05310575
v -0.13942152 0.93320894 0.05310575
v -0.16286154 0.93311894 0.05304575
v -0.16676155 0.93320894 0.05310575
v -0.15895155 0.93311894 0.05304575
v -0.16286154 0.93320894 0.05310575
v -0.15505154 0.93320894 0.05310575
v -0.13551155 0.93311894 0.05304575
v -0.38041797 0.92678082 -0.02296857
v -0.12420931 0.90910310 0.03704762
v -0.11598154 -0.68006104 -0.01723425
v -0.10426154 -0.68009102 -0.01725425
v -0.12380154 -0.68006104 -0.01723425
v -0.11989154 -0.68009102 -0.01725425
v -0.10426154 -0.68006104 -0.01723425
v -0.06911154 -0.22687104 0.06085575
v -0.06911154 -0.22693107 0.06091575
v -0.06520154 -0.22693107 0.06091575
v -0.22778302 0.43765315 0.05765226
v -0.14333154 0.93311894 0.05304575
v -0.07991326 0.98393959 -0.06502300
v -0.14723153 0.93320894 0.05310575
v -0.10036154 -0.68009102 -0.01725425
v -0.10036154 -0.68006104 -0.01723425
v -0.07692154 -0.68009102 -0.01725425
v -0.04567154 -0.68009102 -0.01725425
v -0.04176154 -0.68009102 -0.01725425
v -0.15114152 0.93320894 0.05310575
v -0.12770155 0.93320894 0.05310575
v -0.12380154 0.93311894 0.05304575
v -0.12380154 0.93320894 0.05310575
v -0.13551155 0.93320894 0.05310575
v -0.11598154 -0.68009102 -0.01725425
v -0.11208154 -0.68009102 -0.01725425
v -0.07692154 -0.68006104 -0.01723425
v -0.09255154 -0.68006104 -0.01723425
v -0.09645154 -0.68006104 -0.01723425
v -0.09255154 -0.68009102 -0.01725425
v -0.06520154 -0.68006104 -0.01723425
v -0.08864154 -0.68006104 -0.01723425
v -0.08473154 -0.68006104 -0.01723425
v -0.06520154 -0.22687104 0.06085575
v -0.07301154 -0.68006104 -0.01723425
v -0.06130154 -0.22687104 0.06085575
v -0.09645154 0.93311894 0.05304575
v -0.11598154 0.93311894 0.05304575
v -0.11989154 0.93311894 0.05304575
v -0.10036154 0.93320894 0.05310575
v -0.04958154 0.93311894 0.05304575
v -0.05348154 0.93320894 0.05310575
v -0.04958154 0.93320894 0.05310575
v -0.06130154 -0.68006104 -0.01723425
v -0.11208154 0.93311894 0.05304575
v -0.10817154 0.93311894 0.05304575
v -0.05543904 -0.67615104 -0.01681425
v -0.05739154 -0.68006104 -0.01723425
v -0.10426154 0.93320894 0.05310575
v -0.10817154 0.93320894 0.05310575
v -0.11598154 0.93320894 0.05310575
v -0.11208154 0.93320894 0.05310575
v -0.09255154 0.93320894 0.05310575
v -0.11989154 0.93320894 0.05310575
v -0.10036154 0.93311894 0.05304575
v -0.10426154 0.93311894 0.05304575
v -0.11818217 0.97848392 0.05109075
v -0.09645154 0.93320894 0.05310575
v -0.09255154 0.93311894 0.05304575
v -0.08083154 0.93311894 0.05304575
v -0.04958154 -0.68009102 -0.01725425
v -0.04958154 -0.68006104 -0.01723425
v -0.06911154 -0.68009102 -0.01725425
v -0.07301154 -0.68009102 -0.01725425
v -0.07301529 -0.67615104 -0.01681425
v -0.06520154 -0.68009102 -0.01725425
v -0.06911154 -0.68006104 -0.01723425
v -0.05348154 -0.68009102 -0.01725425
v -0.06104643 -0.70916444 -0.01989626
v -0.03786154 -0.68009102 -0.01725425
v -0.03395154 -0.68009102 -0.01725425
v -0.06130154 -0.68009102 -0.01725425
v -0.03395154 -0.68006104 -0.01723425
v -0.03834779 -0.67615104 -0.01681425
v -0.24603452 -0.33752170 0.05699660
v -0.07301154 -0.22687104 0.06085575
v -0.07301154 -0.22693107 0.06091575
v -0.04567154 -0.68006104 -0.01723425
v -0.04176154 -0.68006104 -0.01723425
v -0.09071591 -0.23902230 0.05473075
v -0.07692154 -0.22693107 0.06091575
v -0.07692154 -0.22687104 0.06085575
v -0.05739154 -0.68009102 -0.01725425
v -0.03786154 -0.68006104 -0.01723425
v -0.06130154 -0.22693107 0.06091575
v -0.05739154 -0.22687104 0.06085575
v -0.05739154 -0.22693107 0.06091575
v -0.05348154 -0.22693107 0.06091575
v -0.03005154 -0.22687104 0.06085575
v -0.07600623 -0.21391106 0.06158512
v -0.06520154 0.93311894 0.05304575
v -0.01686404 -0.68397105 -0.02047425
v -0.00270154 -0.68009102 -0.01725425
v -0.06520154 0.93320894 0.05310575
v -0.06130154 0.93311894 0.05304575
v -0.07692154 0.93311894 0.05304575
v -0.08083154 0.93320894 0.05310575
v -0.07692154 0.93320894 0.05310575
v -0.08473154 0.93320894 0.05310575
v -0.06642342 0.92393392 0.04959200
v -0.06911154 0.93311894 0.05304575
v -0.07301154 0.93320894 0.05310575
v -0.06911154 0.93320894 0.05310575
v 0.00119846 0.93311894 0.05304575
v -0.08864154 0.93320894 0.05310575
v -0.06130154 0.93320894 0.05310575
v -0.07301154 0.93311894 0.05304575
v 0.01290846 -0.68006104 -0.01723425
v -0.00661154 -0.68006104 -0.01723425
v -0.00270154 -0.68006104 -0.01723425
v -0.02223154 -0.68009102 -0.01725425
v -0.05348154 -0.68006104 -0.01723425
v -0.03786154 -0.22687104 0.06085575
v -0.04176154 -0.22687104 0.06085575
v -0.03786154 -0.22693107 0.06091575
v 0.05562413 -0.57214171 -0.01681425
v -0.03005154 -0.68009102 -0.01725425
v -0.02614154 -0.68006104 -0.01723425
v -0.01832779 -0.67615104 -0.01681425
v -0.03005154 -0.68006104 -0.01723425
v -0.05348154 -0.22687104 0.06085575
v -0.04958154 -0.22687104 0.06085575
v -0.01097560 -0.23963262 0.05183075
v -0.04567154 -0.22693107 0.06091575
v -0.04176154 -0.22693107 0.06091575
v -0.04567154 -0.22687104 0.06085575
v -0.03395154 -0.22687104 0.06085575
v -0.04958154 -0.22693107 0.06091575
v -0.03981154 -0.23731606 0.06127325
v -0.03395154 -0.22693107 0.06091575
v -0.03005154 -0.22693107 0.06091575
v -0.04567154 0.93311894 0.05304575
v -0.04567154 0.93320894 0.05310575
v -0.05739154 0.93311894 0.05304575
v 0.00119846 -0.68009102 -0.01725425
v -0.01051154 0.93311894 0.05304575
v -0.01442154 0.93311894 0.05304575
v -0.01442154 0.93320894 0.05310575
v -0.05739154 0.93320894 0.05310575
v -0.05348154 0.93311894 0.05304575
v -0.04176154 0.93311894 0.05304575
v -0.04176154 0.93320894 0.05310575
v -0.03786154 0.93311894 0.05304575
v -0.03005154 0.93320894 0.05310575
v -0.03395154 0.93320894 0.05310575
v -0.03395154 0.93311894 0.05304575
v -0.03786154 0.93320894 0.05310575
v -0.03005154 0.93311894 0.05304575
v 0.00363846 -0.67615104 -0.01681425
v -0.01051154 -0.68009102 -0.01725425
v -0.01442154 -0.68006104 -0.01723425
v -0.01051154 -0.68006104 -0.01723425
v -0.02614154 -0.68009102 -0.01725425
v 0.00119846 -0.68006104 -0.01723425
v -0.01442154 -0.68009102 -0.01725425
v -0.00661154 -0.68009102 -0.01725425
v 0.02462846 -0.68009102 -0.01725425
v 0.02462846 -0.68006104 -0.01723425
v 0.02853846 -0.68009102 -0.01725425
v 0.07540846 -0.68009102 -0.01725425
v 0.07150846 -0.68006104 -0.01723425
v 0.07540846 -0.68006104 -0.01723425
v -0.01051154 -0.22693107 0.06091575
v -0.00661154 -0.22693107 0.06091575
v -0.01833154 -0.22693107 0.06091575
v -0.01833154 -0.22687104 0.06085575
v -0.02223154 -0.22687104 0.06085575
v -0.02614154 -0.22687104 0.06085575
v -0.02223154 -0.22693107 0.06091575
v -0.00270154 -0.22687104 0.06085575
v 0.00119846 -0.22687104 0.06085575
v 0.03244846 -0.68006104 -0.01723425
v 0.02853846 -0.68006104 -0.01723425
v -0.02614154 -0.22693107 0.06091575
v -0.00661154 -0.22687104 0.06085575
v -0.00270154 -0.22693107 0.06091575
v -0.01442154 -0.22693107 0.06091575
v 0.00119846 -0.22693107 0.06091575
v 0.00509846 -0.22693107 0.06091575
v 0.02072846 -0.22693107 0.06091575
v 0.02853846 -0.22693107 0.06091575
v 0.02462846 -0.22687104 0.06085575
v 0.02853846 -0.22687104 0.06085575
v 0.02072846 -0.22687104 0.06085575
v 0.00900846 -0.22687104 0.06085575
v 0.03049096 -0.67615104 -0.01681425
v 0.00509846 -0.68006104 -0.01723425
v 0.00900846 -0.68006104 -0.01723425
v -0.01833154 0.93311894 0.05304575
v -0.02223154 0.93320894 0.05310575
v -0.01833154 0.93320894 0.05310575
v -0.02614154 0.93311894 0.05304575
v -0.02614154 0.93320894 0.05310575
v -0.02223154 0.93311894 0.05304575
v -0.00661154 0.93311894 0.05304575
v -0.01051154 0.93320894 0.05310575
v -0.00661154 0.93320894 0.05310575
v -0.04254486 0.91205114 0.04049512
v -0.00807341 0.95821142 0.05351575
v 0.00119846 0.93320894 0.05310575
v -0.00270154 0.93320894 0.05310575
v -0.00270154 0.93311894 0.05304575
v 0.01290846 0.93311894 0.05304575
v 0.01681846 0.93311894 0.05304575
v 0.07962549 0.97841299 0.05121293
v 0.00509846 0.93311894 0.05304575
v 0.01681846 -0.68006104 -0.01723425
v 0.02072846 -0.68006104 -0.01723425
v 0.00900846 -0.68009102 -0.01725425
v 0.02072846 -0.68009102 -0.01725425
v 0.00509846 -0.68009102 -0.01725425
v 0.01290846 -0.68009102 -0.01725425
v 0.01681846 -0.68009102 -0.01725425
v 0.03244846 -0.68009102 -0.01725425
v 0.37004846 -0.97693104 0.05695574
v 0.06369846 -0.68009102 -0.01725425
v 0.03411459 -0.70202214 -0.00692345
v 0.05978846 -0.68009102 -0.01725425
v 0.04025846 -0.68009102 -0.01725425
v 0.03634846 -0.68006104 -0.01723425
v 0.04025846 -0.68006104 -0.01723425
v 0.05587846 -0.68006104 -0.01723425
v 0.05978846 -0.68006104 -0.01723425
v 0.00900846 -0.22693107 0.06091575
v 0.00509846 -0.22687104 0.06085575
v 0.03634846 -0.68009102 -0.01725425
v 0.02798909 -0.21307714 0.06074465
v 0.04611346 -0.23817106 0.06085575
v 0.01290846 -0.22693107 0.06091575
v 0.03244846 -0.22687104 0.06085575
v 0.02462846 -0.22693107 0.06091575
v 0.41946614 -0.11605243 0.05597656
v 0.03244846 -0.22693107 0.06091575
v 0.04415846 -0.68009102 -0.01725425
v 0.05197846 -0.22687104 0.06085575
v 0.05197846 -0.22693107 0.06091575
v 0.05587846 -0.22693107 0.06091575
v 0.04025846 -0.22687104 0.06085575
v 0.06369846 -0.68006104 -0.01723425
v 0.05881096 -0.67615104 -0.01681425
v 0.01681846 0.93320894 0.05310575
v 0.01290846 0.93320894 0.05310575
v 0.02853846 0.93320894 0.05310575
v 0.03244846 0.93311894 0.05304575
v 0.02853846 0.93311894 0.05304575
v 0.00900846 0.93311894 0.05304575
v 0.00509846 0.93320894 0.05310575
v 0.00900846 0.93320894 0.05310575
v 0.02462846 0.93311894 0.05304575
v 0.02072846 0.93320894 0.05310575
v 0.02072846 0.93311894 0.05304575
v 0.02462846 0.93320894 0.05310575
v 0.03586221 0.93809646 0.05435575
v 0.03244846 0.93320894 0.05310575
v 0.04025846 0.93311894 0.05304575
v 0.03634846 0.93311894 0.05304575
v 0.04806846 -0.68006104 -0.01723425
v 0.05197846 -0.68006104 -0.01723425
v 0.04806846 -0.68009102 -0.01725425
v 0.04415846 -0.68006104 -0.01723425
v 0.10665846 -0.68006104 -0.01723425
v 0.05587846 -0.68009102 -0.01725425
v 0.05197846 -0.68009102 -0.01725425
v 0.07296188 -0.69540864 -0.02037435
v 0.08712846 -0.68006104 -0.01723425
v 0.07150846 -0.68009102 -0.01725425
v 0.06759846 -0.68006104 -0.01723425
v 0.03634846 -0.22687104 0.06085575
v 0.03634846 -0.22693107 0.06091575
v 0.06369846 -0.22687104 0.06085575
v 0.04415846 -0.22687104 0.06085575
v 0.04806846 -0.22693107 0.06091575
v 0.04806846 -0.22687104 0.06085575
v 0.04415846 -0.22693107 0.06091575
v 0.08322846 -0.22687104 0.06085575
v 0.08322846 -0.22693107 0.06091575
v 0.08712846 -0.22693107 0.06091575
v 0.08517846 -0.23279604 0.06249575
v 0.06759846 -0.68009102 -0.01725425
v 0.04025846 -0.22693107 0.06091575
v 0.05978846 -0.22687104 0.06085575
v 0.06369846 -0.22693107 0.06091575
v 0.05587846 -0.22687104 0.06085575
v 0.05978846 -0.22693107 0.06091575
v 0.07042338 -0.20110641 0.05255461
v 0.04415846 0.93320894 0.05310575
v 0.04025846 0.93320894 0.05310575
v 0.03634846 0.93320894 0.05310575
v 0.07540846 -0.22693107 0.06091575
v 0.04806846 0.93320894 0.05310575
v 0.04415846 0.93311894 0.05304575
v 0.04806846 0.93311894 0.05304575
v 0.05587846 0.93311894 0.05304575
v 0.05197846 0.93320894 0.05310575
v 0.05587846 0.93320894 0.05310575
v 0.05197846 0.93311894 0.05304575
v 0.05978846 0.93320894 0.05310575
v 0.06369846 0.93320894 0.05310575
v 0.05978846 0.93311894 0.05304575
v 0.06369846 0.93311894 0.05304575
v 0.01462409 0.93956268 0.05380075
v 0.07931846 -0.68009102 -0.01725425
v 0.11837846 -0.68006104 -0.01723425
v 0.12228846 -0.68006104 -0.01723425
v 0.07931846 -0.68006104 -0.01723425
v 0.09103846 -0.68006104 -0.01723425
v 0.08322846 -0.68009102 -0.01725425
v 0.08273721 -0.67615104 -0.01681425
v 0.09494846 -0.68006104 -0.01723425
v 0.08712846 -0.68009102 -0.01725425
v 0.09103846 -0.68009102 -0.01725425
v 0.09494846 -0.68009102 -0.01725425
v 0.08322846 -0.68006104 -0.01723425
v 0.08712846 -0.22687104 0.06085575
v 0.09103846 -0.22693107 0.06091575
v 0.14181845 -0.68009102 -0.01725425
v 0.14572845 -0.68009102 -0.01725425
v 0.10665846 -0.68009102 -0.01725425
v 0.12228846 -0.68009102 -0.01725425
v 0.07931846 -0.22687104 0.06085575
v 0.07540846 -0.22687104 0.06085575
v 0.11837846 -0.22687104 0.06085575
v 0.07931846 -0.22693107 0.06091575
v 0.09103846 -0.22687104 0.06085575
v 0.09494846 -0.22687104 0.06085575
v 0.06759846 -0.22687104 0.06085575
v 0.09884846 -0.68009102 -0.01725425
v 0.09884846 -0.68006104 -0.01723425
v 0.07150846 -0.22687104 0.06085575
v 0.10665846 -0.22693107 0.06091575
v 0.07150846 -0.22693107 0.06091575
v 0.06759846 -0.22693107 0.06091575
v 0.09494846 -0.22693107 0.06091575
v 0.01117784 0.91838551 0.04537934
v 0.06759846 0.93311894 0.05304575
v 0.07540846 0.93320894 0.05310575
v 0.07540846 0.93311894 0.05304575
v 0.07150846 0.93320894 0.05310575
v 0.07931846 0.93320894 0.05310575
v 0.08322846 0.93320894 0.05310575
v 0.09494846 0.93320894 0.05310575
v 0.07931846 0.93311894 0.05304575
v 0.08712846 0.93311894 0.05304575
v 0.08712846 0.93320894 0.05310575
v 0.06759846 0.93320894 0.05310575
v 0.07150846 0.93311894 0.05304575
v 0.08322846 0.93311894 0.05304575
v 0.09103846 0.93320894 0.05310575
v 0.09494846 0.93311894 0.05304575
v 0.09103846 0.93311894 0.05304575
v 0.11984596 -0.68397105 -0.02047425
v 0.12619846 -0.68009102 -0.01725425
v 0.11056846 -0.68009102 -0.01725425
v 0.11447846 -0.68009102 -0.01725425
v 0.11056846 -0.68006104 -0.01723425
v 0.11447846 -0.68006104 -0.01723425
v 0.10275846 -0.68009102 -0.01725425
v 0.13400847 -0.68006104 -0.01723425
v 0.13790846 -0.68009102 -0.01725425
v 0.11837846 -0.68009102 -0.01725425
v 0.12619846 -0.68006104 -0.01723425
v 0.11838159 -0.67615104 -0.01681425
v 0.10275846 -0.68006104 -0.01723425
v 0.13009848 -0.68006104 -0.01723425
v 0.13790846 -0.68006104 -0.01723425
v 0.14181845 -0.68006104 -0.01723425
v 0.14962848 -0.68009102 -0.01725425
v 0.14572845 -0.68006104 -0.01723425
v 0.14962848 -0.68006104 -0.01723425
v 0.13400847 -0.68009102 -0.01725425
v 0.14572471 -0.67615104 -0.01681425
v 0.09884846 -0.22693107 0.06091575
v 0.10419170 -0.21422730 0.06087434
v 0.11837846 -0.22693107 0.06091575
v 0.12228846 -0.22693107 0.06091575
v 0.11447846 -0.22687104 0.06085575
v 0.10275846 -0.22687104 0.06085575
v 0.11447846 -0.22693107 0.06091575
v 0.11056846 -0.22687104 0.06085575
v 0.09884846 -0.22687104 0.06085575
v 0.10275846 -0.22693107 0.06091575
v 0.10665846 -0.22687104 0.06085575
v 0.23165846 0.93311894 0.05304575
v 0.22775847 0.93320894 0.05310575
v 0.23165846 0.93320894 0.05310575
v 0.16525847 -0.68009102 -0.01725425
v 0.16134848 -0.68006104 -0.01723425
v 0.16525847 -0.68006104 -0.01723425
v 0.37228847 -0.37972105 -0.05241425
v 0.10665846 0.93311894 0.05304575
v 0.11056846 0.93311894 0.05304575
v 0.11447846 0.93320894 0.05310575
v 0.11056846 0.93320894 0.05310575
v 0.11837846 0.93311894 0.05304575
v 0.10275846 0.93311894 0.05304575
v 0.09884846 0.93311894 0.05304575
v 0.10665846 0.93320894 0.05310575
v 0.07555832 0.91260743 0.04096207
v 0.09884846 0.93320894 0.05310575
v 0.10275846 0.93320894 0.05310575
v 0.12228846 0.93320894 0.05310575
v 0.12619846 0.93311894 0.05304575
v 0.12228846 0.93311894 0.05304575
v 0.11837846 0.93320894 0.05310575
v 0.12619846 0.93320894 0.05310575
v 0.11447846 0.93311894 0.05304575
v 0.11691596 0.92930895 0.05075575
v 0.17306845 -0.68009102 -0.01725425
v 0.13009848 -0.68009102 -0.01725425
v 0.15744846 -0.68009102 -0.01725425
v 0.15353847 -0.68009102 -0.01725425
v 0.15353847 -0.68006104 -0.01723425
v 0.16277716 -0.69677484 -0.02109360
v 0.37229311 -0.97693616 0.06086684
v 0.15744846 -0.68006104 -0.01723425
v 0.16134848 -0.68009102 -0.01725425
v 0.11984596 -0.24031857 0.04879825
v 0.18478847 -0.68009102 -0.01725425
v 0.37228847 -0.37147105 -0.05247425
v 0.37223810 -0.37139428 -0.05245878
v 0.18087848 -0.68006104 -0.01723425
v 0.14962848 0.93320894 0.05310575
v 0.15353847 0.93320894 0.05310575
v 0.14962848 0.93311894 0.05304575
v 0.14572845 0.93311894 0.05304575
v 0.14572845 0.93320894 0.05310575
v 0.13400847 0.93311894 0.05304575
v 0.13009848 0.93311894 0.05304575
v 0.13400847 0.93320894 0.05310575
v 0.13790846 0.93320894 0.05310575
v 0.14181845 0.93311894 0.05304575
v 0.13009848 0.93320894 0.05310575
v 0.15353847 0.93311894 0.05304575
v 0.13790846 0.93311894 0.05304575
v 0.14181845 0.93320894 0.05310575
v 0.15744846 0.93311894 0.05304575
v 0.15744846 0.93320894 0.05310575
v 0.13681252 0.97734892 0.05304575
v 0.17819534 -0.67615104 -0.01681425
v 0.18478847 -0.68006104 -0.01723425
v 0.17306845 -0.68006104 -0.01723425
v 0.16915846 -0.68009102 -0.01725425
v 0.17697845 -0.68006104 -0.01723425
v 0.16915846 -0.68006104 -0.01723425
v 0.18869846 -0.68009102 -0.01725425
v 0.18087848 -0.68009102 -0.01725425
v 0.17697845 -0.68009102 -0.01725425
v 0.18869846 -0.68006104 -0.01723425
v 0.18087848 0.93311894 0.05304575
v 0.16525847 0.93311894 0.05304575
v 0.16134848 0.93311894 0.05304575
v 0.16525847 0.93320894 0.05310575
v 0.16134848 0.93320894 0.05310575
v 0.19464494 0.97777456 0.05231262
v 0.17306845 0.93311894 0.05304575
v 0.17697845 0.93311894 0.05304575
v 0.16915846 0.93311894 0.05304575
v 0.17306845 0.93320894 0.05310575
v 0.16915846 0.93320894 0.05310575
v 0.18478847 0.93320894 0.05310575
v 0.18869846 0.93311894 0.05304575
v 0.18478847 0.93311894 0.05304575
v 0.17697845 0.93320894 0.05310575
v 0.18087848 0.93320894 0.05310575
v 0.18869846 0.93320894 0.05310575
v 0.37227848 -0.97693104 0.06085575
v 0.20822845 -0.68397105 -0.02047425
v 0.19946437 -0.71254373 -0.01207491
v 0.22775847 0.93311894 0.05304575
v 0.22384848 0.93320894 0.05310575
v 0.21994846 0.93311894 0.05304575
v 0.19259848 0.93311894 0.05304575
v 0.20040846 0.93311894 0.05304575
v 0.20431845 0.93311894 0.05304575
v 0.19891000 0.91716778 0.04386450
v 0.21212848 0.93320894 0.05310575
v 0.19650847 0.93320894 0.05310575
v 0.19259848 0.93320894 0.05310575
v 0.20040846 0.93320894 0.05310575
v 0.21994846 0.93320894 0.05310575
v 0.21603847 0.93320894 0.05310575
v 0.21212848 0.93311894 0.05304575
v 0.20822845 0.93320894 0.05310575
v 0.19650847 0.93311894 0.05304575
v 0.20431845 0.93320894 0.05310575
v 0.20822845 0.93311894 0.05304575
v 0.21603847 0.93311894 0.05304575
v 0.23556845 0.93311894 0.05304575
v 0.24728847 0.93320894 0.05310575
v 0.37228847 -0.97303104 0.06086575
v 0.37077606 -0.97577566 0.05749084
v 0.37228847 -0.97693104 0.06086575
v 0.26071408 0.97733146 0.05216825
v 0.38933784 -0.98255706 0.04488060
v 0.21150516 -0.68042278 -0.01751996
v 0.37639230 -0.91646206 0.04948636
v 0.22384848 0.93311894 0.05304575
v 0.26290846 0.93320894 0.05310575
v 0.27853847 0.93320894 0.05310575
v 0.23556845 0.93320894 0.05310575
v 0.26681846 0.93311894 0.05304575
v 0.26681846 0.93320894 0.05310575
v 0.23947845 0.93311894 0.05304575
v 0.24337848 0.93311894 0.05304575
v 0.24728847 0.93311894 0.05304575
v 0.29626909 0.92074847 0.04775231
v 0.23947845 0.93320894 0.05310575
v 0.25119847 0.93311894 0.05304575
v 0.25119847 0.93320894 0.05310575
v 0.25509846 0.93320894 0.05310575
v 0.27462846 0.93311894 0.05304575
v 0.27853847 0.93311894 0.05304575
v 0.28244847 0.93311894 0.05304575
v 0.37231848 -0.97303104 0.06085575
v 0.37709159 -0.97374821 0.05901407
v 0.25900847 0.93320894 0.05310575
v 0.24203908 0.92784268 0.05063575
v 0.16296791 0.91165018 0.03894668
v 0.37227848 -0.37928104 -0.05241425
v 0.37228847 -0.37928104 -0.05241425
v 0.32540846 0.93320894 0.05310575
v 0.32150847 0.93320894 0.05310575
v 0.27072847 0.93320894 0.05310575
v 0.36056846 0.93320894 0.05310575
v 0.35665846 0.93320894 0.05310575
v 0.26290846 0.93311894 0.05304575
v 0.35665846 0.93311894 0.05304575
v 0.25900847 0.93311894 0.05304575
v 0.27462846 0.93320894 0.05310575
v 0.30587846 0.93311894 0.05304575
v 0.30197847 0.93320894 0.05310575
v 0.30587846 0.93320894 0.05310575
v 0.28244847 0.93320894 0.05310575
v 0.29415846 0.93320894 0.05310575
v 0.29025847 0.93320894 0.05310575
v 0.27072847 0.93311894 0.05304575
v 0.29415846 0.93311894 0.05304575
v 0.25509846 0.93311894 0.05304575
v 0.29025847 0.93311894 0.05304575
v 0.28634846 0.93311894 0.05304575
v 0.30978847 0.93311894 0.05304575
v 0.31369847 0.93311894 0.05304575
v 0.30978847 0.93320894 0.05310575
v 0.37228847 -0.97273105 0.06085575
v 0.29806846 0.93311894 0.05304575
v 0.32540846 0.93311894 0.05304575
v 0.32931846 0.93311894 0.05304575
v 0.31369847 0.93320894 0.05310575
v 0.29806846 0.93320894 0.05310575
v 0.30197847 0.93311894 0.05304575
v 0.31759846 0.93311894 0.05304575
v 0.28634846 0.93320894 0.05310575
v 0.32150847 0.93311894 0.05304575
v 0.34103847 0.93311894 0.05304575
v 0.33712846 0.93320894 0.05310575
v 0.34103847 0.93320894 0.05310575
v 0.33322847 0.93311894 0.05304575
v 0.33322847 0.93320894 0.05310575
v 0.33712846 0.93311894 0.05304575
v 0.31759846 0.93320894 0.05310575
v 0.32931846 0.93320894 0.05310575
v 0.34884846 0.93320894 0.05310575
v 0.36447847 0.93311894 0.05304575
v 0.36447847 0.93320894 0.05310575
v 0.34494847 0.93311894 0.05304575
v 0.34494847 0.93320894 0.05310575
v 0.36733672 0.75597197 -0.05884304
v 0.35275847 0.93311894 0.05304575
v 0.35275847 0.93320894 0.05310575
v 0.36056846 0.93311894 0.05304575
v 0.37228847 0.93320894 0.05310575
v 0.36837846 0.93320894 0.05310575
v 0.37619847 0.93311894 0.05304575
v 0.37619847 0.93320894 0.05310575
v 0.37625670 -0.37526274 -0.05248185
v 0.37302387 -0.62207681 -0.01724779
v 0.37038174 -0.37642249 -0.04849172
v 0.37539753 -0.38859874 -0.05264108
v 0.37224847 -0.37537104 -0.05241425
v 0.34884846 0.93311894 0.05304575
v 0.43159261 0.95918471 0.05268591
v 0.36056846 0.93907392 0.05398575
v 0.37228847 0.93311894 0.05304575
v 0.36837846 0.93311894 0.05304575
v 0.31979784 0.97791642 0.05206825
v 0.38922018 -0.35153827 0.00391070
v 0.37228847 -0.37537104 -0.05244425
v 0.40183538 0.92446083 0.04941813
v 0.35687611 0.92341393 0.04830543
v 0.47210488 0.98205310 -0.06647561
v 0.46643811 0.97641569 0.05506373
f 1 2 118
f 2 1 3
f 322 5 4
f 6 172 7
f 10 122 11
f 12 10 13
f 14 15 16
f 14 11 15
f 18 863 19
f 118 29 30
f 33 34 35
f 36 37 118
f 39 40 9
f 41 42 525
f 43 44 32
f 46 47 101
f 48 47 46
f 8 37 49
f 51 39 9
f 311 20 74
f 53 54 55
f 56 57 140
f 56 58 57
f 60 61 62
f 63 64 65
f 69 70 666
f 75 76 314
f 77 78 44
f 80 122 81
f 82 83 84
f 82 85 83
f 38 86 87
f 88 89 31
f 90 89 88
f 93 61 94
f 366 95 395
f 96 97 587
f 137 52 3
f 98 99 100
f 49 239 65
f 311 478 897
f 90 17 89
f 102 103 9
f 87 114 38
f 105 106 9
f 107 108 109
f 110 3 52
f 86 17 90
f 111 112 558
f 113 112 111
f 107 89 17
f 107 31 89
f 115 116 17
f 117 116 115
f 117 115 38
f 119 77 43
f 59 119 43
f 105 120 106
f 74 92 134
f 1 137 3
f 78 77 125
f 9 124 51
f 16 60 126
f 15 60 16
f 60 62 126
f 32 127 128
f 129 116 117
f 129 17 116
f 50 311 74
f 137 105 74
f 122 28 120
f 78 133 127
f 35 136 32
f 8 64 17
f 109 31 107
f 13 14 9
f 63 141 64
f 11 122 15
f 143 135 144
f 134 143 144
f 2 110 145
f 2 3 110
f 29 146 147
f 148 149 150
f 2 145 118
f 135 143 125
f 118 30 36
f 151 152 314
f 67 161 9
f 143 134 125
f 154 125 139
f 148 159 702
f 148 150 159
f 133 154 128
f 127 133 128
f 164 139 32
f 129 114 74
f 90 87 86
f 28 165 124
f 122 167 81
f 34 168 35
f 39 81 40
f 94 61 169
f 170 68 67
f 37 8 17
f 108 17 141
f 174 175 218
f 144 33 32
f 176 273 177
f 9 12 13
f 16 126 9
f 37 17 118
f 180 181 182
f 9 126 102
f 33 35 32
f 40 12 9
f 72 184 142
f 188 156 189
f 169 68 170
f 190 254 182
f 163 50 74
f 191 192 193
f 194 173 195
f 254 196 197
f 36 30 198
f 163 187 50
f 163 220 131
f 67 61 161
f 177 273 199
f 220 163 45
f 126 62 102
f 201 202 237
f 122 61 60
f 203 75 314
f 254 197 204
f 27 206 207
f 208 209 210
f 243 163 131
f 211 212 868
f 211 41 212
f 189 156 176
f 215 216 530
f 219 194 195
f 15 122 60
f 204 7 221
f 222 201 223
f 153 224 225
f 32 136 59
f 226 379 227
f 160 228 223
f 124 165 51
f 125 119 229
f 180 230 181
f 243 205 162
f 231 172 232
f 233 176 177
f 243 131 205
f 234 235 236
f 198 238 239
f 76 75 240
f 241 242 162
f 245 178 702
f 245 72 178
f 243 23 187
f 241 228 242
f 50 187 23
f 201 214 223
f 24 200 162
f 14 16 9
f 145 146 118
f 206 199 249
f 205 24 162
f 23 243 22
f 250 189 251
f 162 242 264
f 252 253 76
f 167 10 12
f 44 78 127
f 242 160 264
f 160 242 228
f 238 29 147
f 200 24 263
f 226 255 379
f 256 257 255
f 260 261 262
f 133 78 125
f 202 200 237
f 199 273 249
f 254 250 251
f 221 172 231
f 232 172 192
f 23 248 50
f 202 241 162
f 162 264 22
f 267 231 232
f 22 248 23
f 263 237 200
f 200 202 162
f 169 61 68
f 102 93 103
f 93 102 62
f 254 233 268
f 37 270 49
f 202 222 241
f 201 222 202
f 43 77 44
f 379 271 272
f 86 38 115
f 104 274 868
f 104 175 274
f 238 30 29
f 168 229 136
f 214 160 223
f 248 22 289
f 193 172 188
f 276 277 142
f 22 21 289
f 259 282 71
f 280 281 880
f 322 284 283
f 285 286 308
f 248 311 50
f 289 311 248
f 168 125 229
f 63 65 239
f 45 183 217
f 291 292 293
f 65 8 49
f 168 34 125
f 134 92 125
f 311 289 318
f 122 10 167
f 259 322 298
f 210 299 140
f 210 209 299
f 35 168 136
f 103 300 9
f 286 301 308
f 65 64 8
f 302 303 304
f 302 130 303
f 305 306 307
f 266 130 302
f 259 298 308
f 59 43 32
f 4 5 301
f 315 898 121
f 52 137 74
f 74 134 163
f 122 80 165
f 134 144 32
f 220 45 217
f 300 169 170
f 94 169 300
f 106 124 9
f 165 28 122
f 323 324 325
f 357 84 326
f 322 4 327
f 278 317 71
f 134 32 45
f 330 331 332
f 331 330 5
f 333 334 498
f 335 283 336
f 283 335 337
f 332 335 308
f 335 332 337
f 227 280 226
f 329 342 343
f 344 278 297
f 154 139 164
f 183 92 279
f 51 80 39
f 51 165 80
f 106 28 124
f 106 120 28
f 154 133 125
f 285 327 286
f 327 285 345
f 318 339 311
f 64 141 17
f 68 61 67
f 330 332 308
f 347 348 816
f 17 86 115
f 863 349 275
f 137 120 105
f 149 352 142
f 147 66 52
f 297 278 398
f 120 137 122
f 13 11 14
f 10 11 13
f 322 283 337
f 300 170 9
f 354 355 328
f 298 285 308
f 285 298 345
f 122 137 20
f 87 88 114
f 360 361 362
f 361 363 362
f 270 36 198
f 301 330 308
f 330 301 5
f 20 61 122
f 339 350 311
f 281 346 880
f 159 367 702
f 159 368 367
f 344 317 278
f 344 284 317
f 369 370 542
f 369 371 370
f 20 137 118
f 373 374 218
f 364 359 340
f 19 354 376
f 74 17 129
f 183 279 217
f 377 378 395
f 320 359 364
f 380 996 381
f 350 383 382
f 362 384 360
f 350 382 311
f 385 386 387
f 388 389 390
f 141 63 391
f 137 1 118
f 161 61 20
f 139 125 92
f 392 393 394
f 62 61 93
f 9 161 282
f 320 364 398
f 38 114 117
f 119 125 77
f 401 402 399
f 135 34 33
f 163 134 45
f 403 404 171
f 109 114 31
f 128 154 164
f 406 407 408
f 382 409 405
f 410 411 412
f 413 414 496
f 229 119 59
f 136 229 59
f 405 409 73
f 34 135 125
f 304 85 82
f 20 118 74
f 382 478 311
f 63 239 391
f 405 478 382
f 129 117 114
f 144 135 33
f 17 74 118
f 114 88 31
f 270 198 239
f 40 167 12
f 167 40 81
f 391 239 109
f 17 108 107
f 32 183 45
f 146 66 147
f 306 305 529
f 419 420 258
f 66 145 110
f 108 141 391
f 422 423 743
f 422 424 423
f 146 29 118
f 9 170 67
f 66 146 145
f 103 94 300
f 103 93 94
f 426 427 550
f 426 428 427
f 30 238 198
f 239 238 52
f 238 147 52
f 88 87 90
f 429 430 397
f 49 270 239
f 92 74 9
f 80 81 39
f 108 391 109
f 44 127 32
f 270 37 36
f 114 109 239
f 9 282 92
f 114 52 74
f 52 114 239
f 139 92 183
f 431 432 174
f 74 105 9
f 139 183 32
f 52 66 110
f 128 164 32
f 247 205 131
f 187 163 243
f 288 161 20
f 434 148 702
f 434 149 148
f 357 82 84
f 282 161 288
f 247 220 217
f 131 220 247
f 237 214 201
f 217 279 214
f 263 214 237
f 213 217 214
f 435 358 702
f 435 25 358
f 421 350 339
f 21 22 264
f 24 205 213
f 259 308 297
f 213 247 217
f 247 213 205
f 22 243 162
f 433 160 214
f 160 433 264
f 263 213 214
f 263 24 213
f 228 222 223
f 222 228 241
f 433 21 264
f 282 91 92
f 282 259 297
f 130 318 79
f 282 288 71
f 282 297 91
f 130 218 525
f 84 296 326
f 84 83 296
f 438 307 101
f 438 305 307
f 214 279 433
f 439 440 397
f 288 341 71
f 332 331 337
f 266 304 82
f 83 130 296
f 441 442 449
f 441 443 442
f 279 266 433
f 279 130 266
f 289 433 266
f 322 327 345
f 289 21 433
f 357 444 79
f 444 130 79
f 357 266 82
f 266 357 289
f 79 289 357
f 322 345 298
f 303 85 304
f 266 302 304
f 303 130 85
f 444 296 130
f 209 208 314
f 289 79 318
f 85 130 83
f 326 444 357
f 326 296 444
f 322 337 331
f 340 359 316
f 322 331 5
f 57 446 140
f 57 447 446
f 286 4 301
f 286 327 4
f 308 335 297
f 341 288 20
f 130 551 318
f 336 344 297
f 344 336 284
f 322 71 284
f 71 317 284
f 322 259 71
f 335 336 297
f 398 341 320
f 278 71 398
f 336 283 284
f 341 398 71
f 318 551 421
f 297 265 667
f 265 297 398
f 339 318 421
f 311 341 20
f 451 262 500
f 451 260 262
f 359 320 341
f 452 453 95
f 359 452 95
f 455 456 450
f 398 364 265
f 421 351 350
f 360 448 395
f 897 341 311
f 351 421 319
f 378 359 366
f 457 458 625
f 340 316 377
f 95 366 359
f 452 363 453
f 459 460 767
f 461 460 459
f 364 377 395
f 316 378 377
f 316 359 378
f 378 366 395
f 395 396 265
f 463 464 445
f 364 340 377
f 360 384 448
f 453 361 395
f 363 361 453
f 359 363 452
f 265 364 395
f 359 396 448
f 465 466 467
f 359 362 363
f 359 384 362
f 359 341 396
f 395 448 396
f 95 453 395
f 361 360 395
f 359 448 384
f 414 413 469
f 383 351 319
f 383 350 351
f 383 468 382
f 383 319 468
f 409 468 73
f 341 897 396
f 396 897 265
f 468 319 73
f 382 468 409
f 667 265 897
f 472 402 401
f 473 166 620
f 297 667 91
f 130 279 218
f 475 476 477
f 476 860 477
f 481 482 480
f 483 484 485
f 484 860 485
f 486 487 488
f 489 490 491
f 478 480 666
f 497 437 500
f 497 97 437
f 319 620 73
f 499 497 500
f 499 501 497
f 421 551 548
f 502 503 504
f 666 425 478
f 478 405 480
f 480 405 625
f 478 425 897
f 897 425 696
f 279 92 365
f 352 225 218
f 507 508 868
f 507 509 508
f 510 41 525
f 277 368 142
f 101 511 46
f 365 314 279
f 253 72 142
f 446 447 152
f 432 513 868
f 513 432 431
f 41 211 42
f 142 279 314
f 218 279 142
f 442 443 244
f 374 373 155
f 514 515 516
f 517 518 868
f 517 519 518
f 307 520 101
f 307 306 520
f 522 512 868
f 512 522 523
f 524 211 868
f 211 524 42
f 439 424 422
f 42 287 525
f 527 526 140
f 203 526 527
f 246 422 743
f 246 439 422
f 358 25 184
f 525 529 130
f 519 294 525
f 514 531 868
f 514 516 531
f 532 104 868
f 532 533 104
f 507 510 509
f 534 435 702
f 534 276 435
f 508 528 868
f 508 535 528
f 536 537 538
f 539 369 542
f 539 540 369
f 548 541 530
f 541 543 530
f 132 546 101
f 132 547 546
f 520 306 549
f 552 494 558
f 552 553 494
f 421 530 498
f 440 555 397
f 385 387 587
f 548 530 421
f 556 557 542
f 556 479 557
f 479 216 557
f 462 474 658
f 560 474 462
f 429 562 563
f 564 333 498
f 430 565 397
f 566 386 550
f 387 386 566
f 567 553 576
f 568 569 753
f 568 464 569
f 570 571 561
f 430 572 565
f 573 574 576
f 423 424 575
f 577 463 445
f 492 578 445
f 579 572 743
f 565 572 579
f 97 501 587
f 581 582 583
f 319 421 576
f 421 498 576
f 319 576 561
f 584 585 586
f 552 503 553
f 585 584 587
f 319 561 445
f 589 568 753
f 589 590 568
f 592 593 388
f 554 112 113
f 594 595 550
f 594 571 595
f 305 596 529
f 597 582 768
f 583 582 597
f 598 261 445
f 599 600 601
f 319 450 496
f 555 562 397
f 427 594 550
f 427 603 594
f 593 605 470
f 319 445 470
f 420 606 496
f 566 585 387
f 607 608 767
f 456 608 607
f 569 609 753
f 569 463 609
f 620 319 496
f 437 436 500
f 437 96 436
f 470 450 319
f 591 610 611
f 612 613 605
f 73 620 405
f 614 615 616
f 617 618 620
f 621 472 637
f 402 472 621
f 622 261 598
f 597 600 583
f 611 610 620
f 623 624 801
f 623 617 624
f 608 626 767
f 608 455 626
f 627 537 628
f 599 413 496
f 588 629 767
f 588 630 629
f 633 634 907
f 634 633 347
f 620 171 405
f 635 634 347
f 560 636 474
f 405 171 399
f 638 639 640
f 641 601 768
f 641 599 601
f 642 466 637
f 642 467 466
f 643 166 473
f 644 645 418
f 646 647 625
f 649 650 681
f 649 651 650
f 407 495 805
f 617 166 624
f 399 415 405
f 610 654 655
f 652 656 658
f 652 657 656
f 405 415 625
f 659 660 661
f 466 662 637
f 466 465 662
f 635 347 816
f 663 664 681
f 663 665 664
f 668 669 538
f 671 672 681
f 671 647 672
f 457 653 673
f 394 393 480
f 671 674 647
f 675 676 840
f 676 675 70
f 537 627 480
f 679 680 487
f 683 69 666
f 656 685 658
f 656 686 685
f 687 651 649
f 688 69 683
f 692 693 482
f 505 695 696
f 699 483 485
f 700 699 485
f 860 700 485
f 447 58 314
f 212 507 868
f 212 510 507
f 701 475 477
f 41 510 212
f 668 538 480
f 513 153 868
f 513 224 153
f 703 539 542
f 703 215 539
f 180 55 230
f 25 276 142
f 516 515 218
f 158 365 449
f 158 704 365
f 540 215 530
f 509 535 508
f 533 373 218
f 521 210 140
f 521 208 210
f 446 706 140
f 446 152 706
f 520 132 101
f 520 549 132
f 707 519 525
f 208 151 314
f 358 245 702
f 358 184 245
f 526 56 140
f 526 708 56
f 705 244 704
f 705 704 158
f 178 252 702
f 178 253 252
f 709 710 704
f 546 547 287
f 42 524 287
f 175 533 218
f 153 711 868
f 153 225 711
f 438 596 305
f 252 240 140
f 252 76 240
f 299 209 710
f 367 368 277
f 314 253 142
f 546 524 101
f 287 524 546
f 710 209 314
f 528 535 294
f 155 532 868
f 155 373 532
f 225 224 218
f 527 75 203
f 245 184 72
f 150 368 159
f 224 431 218
f 299 123 449
f 710 123 299
f 531 155 868
f 531 374 155
f 352 149 434
f 441 709 443
f 523 522 707
f 709 123 710
f 152 151 706
f 521 151 208
f 713 158 449
f 713 705 158
f 218 523 525
f 443 709 704
f 365 92 449
f 150 149 142
f 704 314 365
f 714 438 101
f 714 596 438
f 240 527 140
f 240 75 527
f 58 708 314
f 511 971 529
f 72 253 178
f 276 534 277
f 287 547 525
f 518 519 707
f 252 140 702
f 76 253 314
f 713 244 705
f 706 521 140
f 706 151 521
f 123 441 449
f 123 709 441
f 299 449 140
f 442 713 449
f 442 244 713
f 704 710 314
f 244 443 704
f 142 352 218
f 711 434 702
f 711 352 434
f 367 534 702
f 277 534 367
f 533 175 104
f 184 25 142
f 708 526 203
f 274 432 868
f 174 432 274
f 708 203 314
f 512 514 868
f 512 515 514
f 524 868 101
f 152 447 314
f 294 519 517
f 294 535 525
f 224 513 431
f 56 708 58
f 57 58 447
f 435 276 25
f 572 545 743
f 430 545 572
f 525 547 529
f 711 702 868
f 47 715 101
f 715 47 372
f 46 511 48
f 515 512 523
f 518 522 868
f 707 522 518
f 535 509 525
f 274 175 174
f 368 150 142
f 971 511 101
f 549 547 132
f 515 523 218
f 711 225 352
f 532 373 533
f 712 715 372
f 549 306 529
f 547 549 529
f 502 554 561
f 523 707 525
f 431 174 218
f 528 517 868
f 528 294 517
f 531 516 374
f 374 516 218
f 48 511 529
f 712 372 529
f 372 47 48
f 712 596 714
f 509 510 525
f 372 48 529
f 596 712 529
f 715 714 101
f 715 712 714
f 717 718 445
f 583 600 496
f 559 479 556
f 388 593 470
f 130 529 971
f 370 720 542
f 370 543 720
f 721 722 743
f 721 334 722
f 530 424 397
f 723 562 555
f 724 725 726
f 727 246 743
f 727 440 246
f 334 726 498
f 728 743 558
f 559 729 575
f 730 731 637
f 730 677 731
f 728 732 743
f 728 733 732
f 397 564 498
f 423 729 743
f 575 729 423
f 430 429 545
f 403 493 734
f 548 551 542
f 369 540 371
f 565 564 397
f 215 540 539
f 735 548 542
f 573 736 580
f 371 543 370
f 333 564 738
f 739 630 588
f 436 96 584
f 246 440 439
f 111 411 113
f 595 741 558
f 595 570 741
f 737 451 500
f 737 742 451
f 724 721 743
f 724 726 721
f 97 96 437
f 543 371 530
f 559 575 530
f 744 745 767
f 744 746 745
f 553 567 494
f 613 746 450
f 592 753 767
f 498 725 576
f 747 454 445
f 748 749 500
f 748 492 749
f 424 439 397
f 371 540 530
f 479 559 530
f 553 503 561
f 720 543 541
f 629 751 767
f 629 752 751
f 729 556 743
f 559 556 729
f 548 735 541
f 720 735 542
f 541 735 720
f 138 728 558
f 138 544 728
f 575 424 530
f 723 727 743
f 723 555 727
f 556 542 743
f 726 725 498
f 626 588 767
f 626 739 588
f 216 479 530
f 426 385 428
f 428 603 427
f 454 717 445
f 579 564 565
f 726 334 721
f 754 499 500
f 754 747 499
f 722 334 333
f 555 440 727
f 492 748 578
f 755 724 743
f 755 725 724
f 545 563 743
f 545 429 563
f 742 604 445
f 576 553 561
f 703 216 215
f 557 703 542
f 557 216 703
f 584 96 587
f 494 138 558
f 494 567 138
f 436 586 500
f 436 584 586
f 503 502 561
f 736 573 576
f 629 630 752
f 754 454 747
f 473 757 758
f 498 530 397
f 586 566 550
f 586 585 566
f 733 544 576
f 562 429 397
f 722 738 743
f 722 333 738
f 738 579 743
f 738 564 579
f 262 622 500
f 262 261 622
f 563 723 743
f 563 562 723
f 554 113 561
f 544 733 728
f 386 426 550
f 386 385 426
f 504 552 558
f 504 503 552
f 571 570 595
f 412 111 558
f 412 411 111
f 741 412 558
f 741 410 412
f 138 567 544
f 732 733 574
f 736 725 755
f 580 755 743
f 580 736 755
f 725 736 576
f 732 756 743
f 574 756 732
f 501 747 587
f 113 411 561
f 574 733 576
f 451 742 260
f 463 577 609
f 544 567 576
f 554 502 761
f 573 756 574
f 761 504 558
f 761 502 504
f 756 580 743
f 573 580 756
f 428 385 587
f 595 558 550
f 606 763 496
f 414 764 496
f 765 614 470
f 558 500 550
f 750 589 753
f 750 760 589
f 766 719 500
f 717 719 766
f 571 603 561
f 561 428 587
f 747 501 499
f 411 410 561
f 592 390 753
f 592 388 390
f 719 754 500
f 719 454 754
f 112 761 558
f 554 761 112
f 741 570 410
f 410 570 561
f 603 428 561
f 586 550 500
f 261 260 445
f 260 742 445
f 605 593 602
f 464 590 445
f 740 750 753
f 740 765 750
f 718 598 445
f 445 561 587
f 622 762 500
f 622 598 762
f 594 603 571
f 578 577 445
f 461 769 450
f 770 748 753
f 578 748 770
f 569 464 463
f 387 585 587
f 590 464 568
f 771 461 450
f 454 719 717
f 587 747 445
f 765 760 750
f 258 420 496
f 773 618 774
f 775 759 768
f 775 606 759
f 749 737 500
f 749 604 737
f 497 501 97
f 470 613 450
f 632 776 416
f 632 777 776
f 762 766 500
f 762 718 766
f 777 757 620
f 748 500 753
f 766 718 717
f 615 740 753
f 615 614 740
f 604 742 737
f 612 602 767
f 612 605 602
f 598 718 762
f 772 615 753
f 616 615 772
f 760 765 445
f 763 778 496
f 770 577 578
f 745 612 767
f 745 613 612
f 626 455 739
f 752 490 751
f 312 581 778
f 604 492 445
f 749 492 604
f 609 770 753
f 609 577 770
f 600 599 496
f 641 413 599
f 602 592 767
f 602 593 592
f 752 630 450
f 769 491 450
f 258 782 783
f 607 782 456
f 389 388 470
f 782 258 496
f 746 613 745
f 460 744 767
f 460 771 744
f 744 771 746
f 784 469 416
f 784 414 469
f 662 465 785
f 606 420 759
f 772 389 616
f 611 764 786
f 740 614 765
f 605 613 470
f 589 760 590
f 616 389 470
f 390 772 753
f 390 389 772
f 771 460 461
f 455 608 456
f 739 455 450
f 751 489 767
f 751 490 489
f 590 760 445
f 445 765 470
f 610 655 620
f 581 583 496
f 774 623 801
f 774 618 623
f 644 787 788
f 614 616 470
f 491 490 450
f 495 789 805
f 491 769 790
f 591 786 416
f 591 611 786
f 731 619 801
f 731 404 619
f 788 785 399
f 490 752 450
f 459 769 461
f 791 654 416
f 655 654 791
f 643 758 801
f 643 473 758
f 677 404 731
f 777 792 776
f 404 677 399
f 489 790 767
f 489 491 790
f 791 792 655
f 456 782 496
f 793 794 637
f 793 795 794
f 796 684 681
f 796 797 684
f 778 763 781
f 759 419 768
f 759 420 419
f 783 607 767
f 783 782 607
f 619 734 801
f 619 403 734
f 790 459 767
f 790 769 459
f 746 771 450
f 632 757 777
f 798 799 907
f 779 799 798
f 469 641 416
f 469 413 641
f 619 404 403
f 630 739 450
f 773 493 171
f 419 783 767
f 419 258 783
f 781 775 768
f 781 763 775
f 784 764 414
f 419 767 768
f 778 581 496
f 655 792 620
f 779 802 415
f 450 456 496
f 312 781 768
f 312 778 781
f 803 804 625
f 472 793 637
f 472 401 793
f 757 473 620
f 775 763 606
f 654 591 416
f 654 610 591
f 457 678 458
f 601 597 768
f 601 600 597
f 767 416 768
f 806 787 637
f 787 806 788
f 807 808 658
f 807 804 808
f 792 777 620
f 809 810 805
f 582 312 768
f 582 581 312
f 758 416 801
f 166 617 620
f 623 618 617
f 618 773 620
f 641 768 416
f 812 813 814
f 786 784 416
f 786 764 784
f 795 401 399
f 815 814 907
f 815 812 814
f 171 404 399
f 418 621 637
f 418 645 621
f 794 795 818
f 776 791 416
f 776 792 791
f 800 774 801
f 773 774 800
f 731 801 637
f 758 632 416
f 758 757 632
f 496 611 620
f 659 661 666
f 408 407 805
f 764 611 496
f 662 806 637
f 662 785 806
f 645 644 399
f 624 643 801
f 624 166 643
f 779 819 799
f 820 813 810
f 793 401 795
f 620 773 171
f 817 798 907
f 817 802 798
f 670 803 625
f 493 403 171
f 800 493 773
f 802 635 816
f 644 788 399
f 686 656 657
f 467 408 805
f 660 659 822
f 840 660 822
f 621 645 402
f 823 631 637
f 823 495 631
f 818 795 399
f 734 800 801
f 734 493 800
f 810 809 780
f 798 802 779
f 399 785 805
f 642 408 467
f 402 645 399
f 677 818 399
f 789 811 809
f 393 824 480
f 794 730 637
f 794 818 730
f 825 803 670
f 638 826 636
f 787 418 637
f 787 644 418
f 785 788 806
f 631 406 637
f 407 406 631
f 730 818 677
f 560 827 816
f 820 780 907
f 820 810 780
f 670 827 648
f 829 394 480
f 399 805 415
f 805 813 415
f 811 823 907
f 811 789 823
f 815 819 812
f 789 809 805
f 819 779 415
f 638 636 816
f 780 811 907
f 811 780 809
f 812 819 415
f 785 465 805
f 789 495 823
f 631 495 407
f 406 642 637
f 406 408 642
f 465 467 805
f 823 637 907
f 647 674 625
f 831 686 625
f 678 673 658
f 678 457 673
f 474 826 658
f 826 474 636
f 634 817 907
f 634 635 817
f 348 347 633
f 648 462 658
f 648 827 462
f 686 657 625
f 647 646 672
f 832 633 907
f 832 348 633
f 810 813 805
f 833 701 834
f 814 820 907
f 814 813 820
f 813 812 415
f 797 674 684
f 458 831 625
f 487 680 666
f 635 802 817
f 799 815 907
f 799 819 815
f 826 640 658
f 826 638 640
f 692 682 681
f 692 482 682
f 827 670 625
f 488 836 837
f 415 802 816
f 636 560 816
f 831 458 828
f 832 907 658
f 804 653 625
f 824 481 480
f 672 652 658
f 672 646 652
f 685 686 831
f 664 665 693
f 685 828 658
f 831 828 685
f 672 658 681
f 392 839 681
f 394 839 392
f 807 653 804
f 832 639 348
f 684 671 681
f 684 674 671
f 348 639 816
f 640 832 658
f 640 639 832
f 625 415 816
f 825 648 658
f 825 670 648
f 462 827 560
f 816 827 625
f 808 825 658
f 808 803 825
f 676 688 840
f 676 69 688
f 666 471 836
f 804 803 808
f 693 665 480
f 639 638 816
f 841 649 681
f 841 687 649
f 830 392 681
f 830 393 392
f 842 830 681
f 842 824 830
f 70 675 821
f 625 797 480
f 839 394 829
f 673 807 658
f 673 653 807
f 828 678 658
f 678 828 458
f 482 481 682
f 657 646 625
f 653 457 625
f 652 646 657
f 674 797 625
f 659 666 680
f 482 693 480
f 471 844 843
f 844 840 843
f 480 651 666
f 536 669 681
f 538 669 536
f 486 837 840
f 486 488 837
f 659 680 822
f 824 393 830
f 471 690 844
f 69 676 70
f 538 537 480
f 669 663 681
f 663 669 668
f 836 488 666
f 839 796 681
f 796 839 829
f 651 687 666
f 797 829 480
f 698 696 694
f 842 481 824
f 682 842 681
f 682 481 842
f 844 689 840
f 844 690 689
f 650 651 627
f 797 796 829
f 664 692 681
f 664 693 692
f 845 846 847
f 650 628 681
f 650 627 628
f 845 860 848
f 846 845 848
f 627 651 480
f 483 849 484
f 628 536 681
f 628 537 536
f 851 852 853
f 860 851 853
f 833 834 691
f 834 860 691
f 665 663 668
f 850 854 838
f 855 835 856
f 835 860 856
f 157 475 425
f 665 668 480
f 689 675 840
f 821 675 689
f 661 660 506
f 660 840 506
f 855 857 835
f 687 683 666
f 70 821 666
f 840 837 843
f 837 836 843
f 836 471 843
f 701 833 425
f 679 840 822
f 680 679 822
f 841 681 840
f 689 690 821
f 688 841 840
f 688 683 841
f 157 476 475
f 690 471 666
f 821 690 666
f 425 475 701
f 425 850 857
f 694 851 860
f 857 855 425
f 666 854 425
f 841 683 687
f 695 417 858
f 417 860 858
f 679 486 840
f 679 487 486
f 838 854 506
f 840 838 506
f 857 850 859
f 696 833 505
f 488 487 666
f 849 483 696
f 854 661 506
f 860 835 859
f 835 857 859
f 847 846 425
f 834 701 477
f 860 834 477
f 854 666 661
f 854 850 425
f 476 157 848
f 860 476 848
f 850 838 859
f 838 840 859
f 157 425 846
f 840 860 859
f 157 846 848
f 699 696 483
f 417 505 691
f 860 417 691
f 695 505 417
f 845 847 856
f 860 845 856
f 425 855 847
f 847 855 856
f 833 696 425
f 505 833 691
f 861 700 853
f 700 860 853
f 852 694 696
f 852 851 694
f 852 861 853
f 696 695 849
f 699 861 696
f 484 849 858
f 860 484 858
f 698 694 860
f 849 695 858
f 696 861 852
f 861 699 700
f 897 696 698
f 190 862 194
f 864 356 865
f 356 866 328
f 226 280 867
f 375 356 864
f 338 256 880
f 449 702 140
f 53 173 54
f 54 173 230
f 254 53 55
f 864 863 375
f 267 232 869
f 355 865 328
f 702 449 1392
f 1392 449 92
f 101 868 971
f 870 221 231
f 53 179 173
f 971 868 1392
f 254 55 180
f 551 743 542
f 743 551 558
f 18 400 863
f 753 500 416
f 753 416 767
f 801 416 907
f 801 907 637
f 658 907 681
f 681 907 697
f 697 840 681
f 697 860 840
f 860 697 698
f 1477 897 698
f 865 356 328
f 349 864 865
f 863 328 866
f 864 349 863
f 375 863 866
f 355 275 349
f 863 379 897
f 863 897 328
f 19 275 354
f 255 867 256
f 346 872 880
f 291 338 292
f 275 355 354
f 375 866 356
f 349 865 355
f 965 873 874
f 204 197 7
f 92 179 53
f 194 862 173
f 254 92 53
f 254 180 182
f 55 54 230
f 179 92 91
f 230 173 181
f 181 173 862
f 182 181 862
f 190 182 862
f 702 1392 868
f 254 870 267
f 130 971 551
f 907 416 500
f 249 273 875
f 558 551 500
f 872 376 880
f 907 698 697
f 269 227 863
f 400 18 872
f 19 376 18
f 877 878 879
f 227 269 281
f 254 267 869
f 376 354 328
f 227 281 280
f 379 255 257
f 255 226 867
f 18 376 872
f 869 232 192
f 256 867 880
f 400 872 346
f 379 863 227
f 269 346 281
f 376 328 880
f 863 400 269
f 346 269 400
f 275 19 863
f 867 280 880
f 257 256 338
f 271 293 716
f 882 272 883
f 880 328 881
f 267 870 231
f 254 884 250
f 7 172 221
f 254 204 870
f 195 173 6
f 196 219 195
f 196 195 6
f 254 219 196
f 6 173 172
f 204 221 870
f 193 192 172
f 197 6 7
f 196 6 197
f 179 91 172
f 191 869 192
f 190 194 219
f 191 254 869
f 254 190 219
f 173 179 172
f 156 172 91
f 271 716 885
f 884 193 188
f 907 500 1128
f 883 885 881
f 271 379 293
f 293 292 716
f 885 716 881
f 888 889 890
f 257 291 379
f 272 885 883
f 891 379 882
f 292 338 880
f 882 892 891
f 291 257 338
f 293 379 291
f 716 292 881
f 885 272 271
f 292 880 881
f 886 353 893
f 891 892 894
f 895 886 881
f 892 883 881
f 886 894 881
f 272 882 379
f 893 894 886
f 882 883 892
f 893 891 894
f 893 898 379
f 894 892 881
f 891 893 379
f 898 893 353
f 353 886 895
f 896 888 890
f 881 328 909
f 233 251 176
f 254 251 233
f 186 877 900
f 250 884 188
f 206 268 199
f 27 268 206
f 250 188 189
f 207 249 875
f 268 177 199
f 188 172 156
f 26 207 875
f 176 156 273
f 902 901 876
f 26 27 207
f 965 254 27
f 233 177 268
f 27 254 268
f 191 193 884
f 251 189 176
f 206 249 207
f 901 875 273
f 26 875 901
f 254 191 884
f 876 273 899
f 904 905 906
f 905 976 906
f 889 910 953
f 911 912 887
f 898 908 888
f 913 874 309
f 965 914 915
f 121 916 315
f 121 895 916
f 908 910 889
f 315 916 910
f 315 908 898
f 353 121 898
f 121 353 895
f 916 895 881
f 910 916 953
f 889 888 908
f 908 315 910
f 916 881 953
f 890 889 953
f 99 98 898
f 917 918 98
f 896 920 99
f 919 917 953
f 920 890 953
f 99 920 100
f 917 100 953
f 888 896 898
f 98 100 917
f 896 890 920
f 99 898 896
f 100 920 953
f 898 98 918
f 918 917 919
f 328 897 909
f 881 909 953
f 903 290 912
f 921 899 922
f 913 309 923
f 924 925 290
f 911 903 912
f 926 887 925
f 878 290 879
f 27 902 921
f 26 901 902
f 965 92 254
f 186 900 911
f 911 900 903
f 27 921 922
f 877 922 878
f 873 185 928
f 879 290 903
f 965 874 913
f 901 273 876
f 186 922 877
f 887 912 925
f 156 91 273
f 877 879 900
f 900 879 903
f 186 911 887
f 921 876 899
f 912 290 925
f 878 273 290
f 27 26 902
f 926 925 924
f 899 273 878
f 921 902 876
f 922 899 878
f 929 961 309
f 186 27 922
f 926 186 887
f 91 290 273
f 873 928 929
f 986 551 976
f 930 904 906
f 923 961 931
f 907 1128 698
f 934 898 935
f 937 938 939
f 940 927 961
f 898 941 942
f 940 943 944
f 945 946 953
f 941 947 948
f 935 950 934
f 934 950 947
f 935 919 950
f 918 935 898
f 948 947 953
f 935 918 919
f 950 919 953
f 947 950 953
f 948 942 941
f 934 941 898
f 942 948 946
f 941 934 947
f 952 942 946
f 946 948 953
f 951 945 936
f 949 954 953
f 942 952 898
f 954 936 953
f 933 936 954
f 952 946 945
f 952 945 951
f 951 898 952
f 954 955 933
f 951 933 898
f 936 945 953
f 933 951 936
f 898 933 955
f 955 954 949
f 914 957 958
f 965 913 960
f 924 290 928
f 913 923 960
f 929 290 961
f 965 960 959
f 873 929 874
f 186 185 873
f 928 290 929
f 309 961 923
f 186 926 185
f 965 27 186
f 91 961 290
f 959 931 963
f 185 924 928
f 960 923 931
f 959 960 931
f 965 959 962
f 965 966 967
f 968 962 927
f 968 927 940
f 968 965 962
f 926 924 185
f 931 961 963
f 959 963 962
f 965 186 873
f 972 973 905
f 973 976 905
f 962 963 927
f 963 961 927
f 974 970 975
f 874 929 309
f 943 940 961
f 295 976 977
f 986 978 972
f 986 295 978
f 986 972 904
f 904 972 905
f 977 976 973
f 978 977 973
f 551 971 976
f 980 970 969
f 986 904 930
f 986 930 932
f 972 978 973
f 978 295 977
f 295 986 976
f 930 906 981
f 906 976 981
f 932 930 981
f 982 983 984
f 983 1025 984
f 965 957 914
f 966 915 975
f 990 991 987
f 992 993 994
f 379 898 1094
f 997 998 999
f 939 938 321
f 898 955 996
f 381 949 1001
f 381 1001 380
f 1002 990 321
f 956 995 993
f 956 380 995
f 380 1001 995
f 1094 898 996
f 955 381 996
f 381 955 949
f 1001 949 953
f 995 1001 321
f 993 992 956
f 1003 992 994
f 993 995 321
f 1001 953 321
f 380 956 996
f 996 956 992
f 994 993 321
f 998 994 321
f 1003 998 997
f 996 992 1094
f 990 999 321
f 987 999 990
f 1003 994 998
f 992 1003 1094
f 997 1094 1003
f 999 998 321
f 997 987 1094
f 987 997 999
f 1094 987 991
f 991 990 1002
f 953 909 321
f 966 975 980
f 965 968 979
f 965 964 957
f 988 965 967
f 958 943 974
f 989 1005 1006
f 1007 235 234
f 964 1008 957
f 1009 1010 1011
f 957 1008 958
f 1013 988 967
f 965 979 964
f 965 915 966
f 975 970 980
f 964 944 1008
f 1014 1015 235
f 943 961 1012
f 1007 1014 235
f 1013 967 969
f 1008 943 958
f 915 974 975
f 968 940 979
f 1016 969 970
f 974 943 970
f 943 1012 970
f 979 940 944
f 966 980 967
f 1013 969 1016
f 914 958 974
f 944 943 1008
f 914 974 915
f 967 980 969
f 964 979 944
f 986 1017 1018
f 91 1012 961
f 932 981 983
f 981 976 983
f 1020 1025 1021
f 1022 1020 1021
f 986 1018 1022
f 329 1010 1009
f 1022 1018 1020
f 1017 982 984
f 1017 984 1024
f 984 1025 1024
f 500 329 1128
f 1018 1024 1020
f 1024 1025 1020
f 1018 1017 1024
f 971 1019 976
f 1010 1022 1021
f 329 1022 1010
f 986 982 1017
f 982 932 983
f 976 1025 983
f 986 932 982
f 1010 1021 1011
f 1021 1025 1011
f 329 986 1022
f 976 1019 1025
f 329 551 986
f 329 1023 985
f 329 1009 1023
f 1009 1011 1026
f 1011 1025 1026
f 1023 1009 1026
f 1023 1026 1027
f 1026 1025 1027
f 985 1023 1027
f 500 551 329
f 1094 937 1028
f 1029 939 321
f 1031 989 1006
f 991 1030 1094
f 1031 988 989
f 1032 1033 1034
f 1030 1035 1036
f 1037 1038 1039
f 1040 1041 1095
f 1036 937 1094
f 1030 1002 1035
f 1036 1035 938
f 1042 1039 1043
f 1036 1094 1030
f 1030 991 1002
f 1035 1002 321
f 938 1035 321
f 939 1028 937
f 937 1036 938
f 1028 939 1029
f 1039 1038 1043
f 1037 1028 1029
f 1041 1043 1095
f 1038 1029 321
f 1039 1094 1037
f 1028 1037 1094
f 1042 1043 1041
f 1037 1029 1038
f 1041 1044 1042
f 1038 321 1095
f 1043 1038 1095
f 1039 1042 1094
f 1094 1042 1044
f 1044 1041 1040
f 970 1012 1015
f 1045 1015 1012
f 1047 1015 1048
f 988 1013 1049
f 1050 1006 1045
f 1016 970 1014
f 988 1007 234
f 988 1051 1046
f 1052 1005 989
f 236 1015 1047
f 988 1052 989
f 1046 1047 1048
f 1051 236 1047
f 1051 234 236
f 1006 1015 1045
f 1014 970 1015
f 1007 1049 1014
f 1031 1006 1050
f 1013 1016 1049
f 988 1049 1007
f 988 234 1051
f 1052 1046 1048
f 1053 1054 1055
f 235 1015 236
f 988 1046 1052
f 1052 1048 1005
f 1049 1016 1014
f 1051 1047 1046
f 1005 1015 1006
f 1048 1015 1005
f 1056 1057 1058
f 343 1059 1060
f 1059 1019 1060
f 329 1062 342
f 329 1063 1062
f 329 985 1064
f 329 1066 1067
f 1062 1063 1061
f 1068 1069 1082
f 1064 1070 1065
f 1070 1025 1065
f 329 343 1071
f 329 1064 1063
f 1071 1060 1072
f 1060 1019 1072
f 1063 1064 1065
f 985 1027 1070
f 1027 1025 1070
f 1062 1061 1073
f 1061 1025 1073
f 1066 1071 1072
f 1063 1065 1061
f 1065 1025 1061
f 1073 1025 1019
f 342 1062 1073
f 1073 1019 1059
f 342 1073 1059
f 343 342 1059
f 1064 985 1070
f 329 1071 1066
f 1071 343 1060
f 1066 1072 1074
f 1072 1019 1074
f 1067 1066 1074
f 1067 1074 1075
f 1074 1019 1075
f 1123 1078 1079
f 1123 323 1080
f 1123 1081 324
f 698 1128 1477
f 1083 1045 1084
f 1094 1085 1033
f 1085 1086 1087
f 1088 1089 1090
f 1091 1092 1093
f 1090 1094 1088
f 1096 1097 1197
f 1090 1085 1094
f 1088 1040 1089
f 1044 1088 1094
f 1090 1089 1086
f 1088 1044 1040
f 1091 1098 1230
f 1089 1040 1095
f 1086 1089 1095
f 1087 1033 1085
f 1085 1090 1086
f 1087 1086 1095
f 1034 1087 1095
f 1033 1087 1034
f 1032 1092 1091
f 1091 1230 1032
f 1230 1094 1032
f 1097 1093 1197
f 1093 1095 1197
f 1092 1034 1095
f 1033 1032 1094
f 1098 1093 1097
f 1032 1034 1092
f 1097 1000 1098
f 1093 1092 1095
f 1098 1091 1093
f 1230 1098 1000
f 1000 1097 1096
f 1095 321 1101
f 1230 1099 1100
f 1101 321 909
f 1000 1102 1230
f 1103 1082 1104
f 988 1113 965
f 988 1031 1113
f 1106 1103 1104
f 1054 1082 1069
f 1113 1107 1105
f 1004 1045 1103
f 1109 1108 1004
f 1045 1012 1082
f 1105 1107 1083
f 1053 1106 1104
f 1105 1083 1084
f 1110 1113 1055
f 1107 1050 1083
f 1050 1045 1083
f 1387 1390 1111
f 1112 1113 1114
f 1115 1116 1117
f 1110 1069 1068
f 1109 1103 1106
f 1113 1105 1108
f 1104 1082 1054
f 1055 1054 1069
f 1031 1050 1107
f 1110 1055 1069
f 1113 1109 1106
f 1113 1053 1055
f 1113 1106 1053
f 1109 1004 1103
f 1103 1045 1082
f 1108 1084 1004
f 1105 1084 1108
f 1114 1118 1119
f 1113 1108 1109
f 1113 1031 1107
f 1053 1104 1054
f 1084 1045 1004
f 1121 1067 1075
f 1079 1078 1077
f 1113 1110 1122
f 1081 1121 1120
f 1080 323 1076
f 1081 1120 1125
f 1120 1019 1125
f 1126 1123 1079
f 323 325 1076
f 325 1124 1076
f 1121 1075 1120
f 1075 1019 1120
f 324 1081 1125
f 1080 1076 1127
f 1076 1124 1127
f 1123 324 323
f 1123 329 1121
f 329 1067 1121
f 1129 1079 1077
f 1124 1129 1077
f 325 1019 1124
f 324 1125 325
f 1125 1019 325
f 1078 1127 1077
f 1127 1124 1077
f 1123 1121 1081
f 1123 1080 1078
f 1126 1079 1129
f 1078 1080 1127
f 329 1181 1128
f 329 1123 1181
f 1115 1117 1130
f 1131 1132 1133
f 1132 310 1133
f 1135 1119 1136
f 1137 1138 1197
f 1139 1140 1141
f 1094 1230 1294
f 1102 1000 1096
f 1094 1294 379
f 1142 1143 1144
f 1138 1144 1197
f 1102 1143 1142
f 1102 1096 1143
f 1099 1144 1138
f 1099 1142 1144
f 1142 1230 1102
f 1143 1096 1197
f 1144 1143 1197
f 1138 1100 1099
f 1142 1099 1230
f 1146 1137 1197
f 1100 1138 1137
f 1145 1141 1230
f 1147 1100 1137
f 1147 1146 1145
f 1145 1146 1148
f 1140 1139 1150
f 1145 1230 1147
f 1139 1148 1149
f 1100 1147 1230
f 1141 1148 1139
f 1147 1137 1146
f 1150 1139 1149
f 1146 1197 1149
f 1148 1146 1149
f 1141 1145 1148
f 1230 1141 1140
f 1101 1197 1095
f 1151 1294 1152
f 1068 1082 1116
f 1153 1136 1154
f 1113 1115 1130
f 1155 1156 1153
f 965 1364 92
f 1158 1118 1114
f 1113 1130 1155
f 1158 1159 1154
f 1116 1082 1117
f 1118 1136 1119
f 1113 1122 1115
f 1122 1068 1116
f 1112 1119 1135
f 1158 1154 1118
f 1155 1130 1156
f 1364 965 1113
f 1113 1158 1114
f 1159 1153 1154
f 1110 1068 1122
f 1155 1153 1159
f 1115 1122 1116
f 1156 1082 1153
f 1153 1082 1136
f 1113 1159 1158
f 1113 1155 1159
f 1130 1117 1156
f 1112 1114 1119
f 1113 1160 1364
f 1117 1082 1156
f 1154 1136 1118
f 1162 1163 1057
f 1136 1082 1012
f 1123 1126 1164
f 1164 1126 1165
f 1123 1134 1167
f 1168 310 1132
f 1169 1168 1132
f 1167 1134 1170
f 1181 1169 1131
f 1171 1172 1173
f 1172 1174 1173
f 1131 1169 1132
f 1175 1135 1163
f 1164 1165 1176
f 1165 310 1176
f 1166 1177 1178
f 1134 1176 1170
f 1176 310 1170
f 1019 971 310
f 1134 1164 1176
f 1123 1164 1134
f 1181 1123 1167
f 1179 1131 1133
f 1181 1177 1166
f 1167 1170 1168
f 1170 310 1168
f 1181 1167 1169
f 1181 1179 1177
f 1169 1167 1168
f 1177 1179 1180
f 1179 1133 1180
f 1133 310 1180
f 1181 1131 1179
f 1129 1124 1165
f 1126 1129 1165
f 1177 1180 1178
f 1180 310 1178
f 1124 310 1165
f 1124 1019 310
f 1182 1183 1149
f 1152 1150 1184
f 1152 1184 1151
f 1187 1183 1182
f 1189 1190 1191
f 1294 1230 1152
f 1192 1190 1189
f 1151 1187 1294
f 1151 1184 1183
f 1294 1187 1188
f 1183 1184 1149
f 1152 1140 1150
f 1140 1152 1230
f 1184 1150 1149
f 1182 1188 1187
f 1187 1151 1183
f 1188 1182 1186
f 1186 1182 1149
f 1192 1188 1186
f 1189 1294 1192
f 1193 1191 1101
f 1190 1186 1149
f 1194 1193 1101
f 1188 1192 1294
f 1195 1191 1193
f 1192 1186 1190
f 1193 1196 1195
f 1190 1149 1101
f 1191 1190 1101
f 1195 1189 1191
f 1294 1195 1196
f 1189 1195 1294
f 1196 1193 1194
f 1149 1197 1101
f 1160 1175 1162
f 1199 1258 1200
f 1198 1058 1201
f 1161 1204 1202
f 1058 1204 1201
f 1198 1201 1203
f 1135 1136 1163
f 1205 1202 1204
f 1206 1161 1207
f 1113 1112 1160
f 1208 1202 1205
f 1208 1160 1207
f 1203 1201 1209
f 1057 1136 1204
f 1210 1173 1211
f 1173 1174 1211
f 1160 1162 1056
f 1160 1206 1207
f 1162 1057 1056
f 1160 1056 1198
f 1209 1204 1161
f 1163 1136 1057
f 1057 1204 1058
f 1309 1212 1213
f 1160 1203 1206
f 1160 1112 1175
f 1112 1135 1175
f 1198 1056 1058
f 1206 1209 1161
f 1160 1198 1203
f 1208 1207 1202
f 1201 1204 1209
f 1206 1203 1209
f 1207 1161 1202
f 1136 1012 1204
f 1162 1175 1163
f 1012 91 667
f 1171 1216 1172
f 1269 1171 1210
f 1216 1217 1219
f 1269 1220 1221
f 1223 1205 1224
f 1181 1222 1225
f 1220 1210 1211
f 1269 1216 1171
f 1219 1174 1172
f 1216 1219 1172
f 1225 1227 1185
f 1227 1174 1185
f 310 971 1392
f 1269 1181 1225
f 1269 1210 1220
f 1181 1166 1222
f 310 1174 1227
f 1225 1222 1227
f 1217 1185 1219
f 1185 1174 1219
f 1222 1166 1228
f 1222 1228 1227
f 1228 310 1227
f 1269 1217 1216
f 1166 1178 1228
f 1178 310 1228
f 1269 1225 1217
f 1210 1171 1173
f 1217 1225 1185
f 1220 1211 1229
f 1211 1174 1229
f 1221 1220 1229
f 1196 1231 1294
f 1233 1234 1232
f 1236 1235 1101
f 1239 1236 1240
f 1231 1196 1194
f 1238 1232 1235
f 1231 1194 1241
f 1231 1241 1242
f 1243 1236 1239
f 1242 1241 1234
f 1242 1294 1231
f 1241 1194 1101
f 1234 1241 1101
f 1232 1238 1233
f 1294 1233 1238
f 1233 1242 1234
f 1232 1234 1101
f 1242 1233 1294
f 1235 1232 1101
f 1239 1294 1243
f 1237 1244 1101
f 1244 1245 1246
f 1244 1240 1101
f 1246 1239 1240
f 1243 1238 1235
f 1238 1243 1294
f 1246 1240 1244
f 1243 1235 1236
f 1239 1246 1294
f 1240 1236 1101
f 1294 1246 1245
f 1245 1244 1237
f 1247 1249 1250
f 1251 1258 1252
f 1253 1223 1224
f 1247 1214 1249
f 1224 1204 1258
f 1208 1205 1223
f 1252 1258 1199
f 1205 1204 1224
f 1160 1223 1253
f 1248 1247 1215
f 1256 1199 1215
f 1256 1250 1252
f 1214 1259 1157
f 1253 1224 1259
f 1157 1258 1251
f 1253 1259 1214
f 1261 1267 1262
f 1263 1264 1265
f 1250 1251 1252
f 1249 1157 1251
f 1248 1215 1200
f 1256 1252 1199
f 1204 1012 1258
f 1249 1251 1250
f 1248 1200 1257
f 1247 1253 1214
f 1247 1256 1215
f 1309 1364 1160
f 1247 1160 1253
f 1247 1309 1160
f 1259 1258 1157
f 1224 1258 1259
f 1249 1214 1157
f 1247 1250 1256
f 1215 1199 1200
f 1257 1200 1258
f 1266 1254 1255
f 1160 1208 1223
f 1309 1266 1255
f 1266 1260 1254
f 1221 1229 1268
f 1229 1174 1268
f 1218 1270 1271
f 1270 1313 1271
f 1260 1258 1254
f 1174 310 1313
f 1269 1272 1218
f 313 1313 1274
f 1275 313 1274
f 1269 1221 1276
f 1313 310 1392
f 1269 1276 1273
f 1273 1277 1226
f 1277 1313 1226
f 1278 1226 313
f 1226 1313 313
f 1272 1275 1274
f 1174 1313 1277
f 1275 1278 313
f 1273 1276 1277
f 1269 1275 1272
f 1218 1272 1270
f 1269 1218 1271
f 1269 1273 1278
f 1276 1221 1268
f 1276 1268 1277
f 1268 1174 1277
f 1278 1273 1226
f 1269 1278 1275
f 1272 1274 1270
f 1274 1313 1270
f 1269 1271 1128
f 1271 1313 1128
f 1279 1280 1281
f 1282 1283 1284
f 1473 1285 1474
f 1303 1286 1287
f 1288 1289 1101
f 379 1294 1463
f 897 379 1463
f 1291 1294 1292
f 1291 1295 1296
f 1292 1237 1295
f 1286 1296 1293
f 1292 1295 1291
f 1297 1298 1299
f 1291 1303 1294
f 1245 1292 1294
f 1292 1245 1237
f 1295 1237 1101
f 1296 1295 1101
f 1293 1287 1286
f 1293 1296 1101
f 1286 1291 1296
f 1291 1286 1303
f 1287 1293 1289
f 1289 1293 1101
f 1301 1297 1334
f 1287 1302 1303
f 1302 1287 1289
f 1290 1288 1300
f 1297 1300 1334
f 1414 1294 1303
f 1299 1300 1297
f 1302 1289 1288
f 1302 1288 1290
f 1290 1303 1302
f 1288 1101 1334
f 1300 1288 1334
f 1290 1299 1303
f 1299 1290 1300
f 1303 1299 1298
f 1298 1297 1301
f 1212 1262 1213
f 1309 1305 1266
f 1254 1258 1261
f 1306 1307 1308
f 1309 1213 1263
f 1248 1257 1305
f 1262 1267 1264
f 1247 1248 1305
f 1265 1267 1308
f 1257 1258 1260
f 1364 1312 1282
f 1305 1257 1260
f 1307 1265 1308
f 1309 1263 1307
f 1306 1309 1307
f 1255 1254 1261
f 1311 1308 1267
f 1266 1305 1260
f 1309 1247 1305
f 1212 1261 1262
f 1264 1267 1265
f 667 1267 1012
f 1309 1255 1212
f 1263 1265 1307
f 1263 1213 1264
f 1212 1255 1261
f 1213 1262 1264
f 1306 1308 1311
f 1258 1012 1267
f 1261 1258 1267
f 1306 1364 1309
f 1128 1313 1392
f 1181 1269 1128
f 1312 1311 1283
f 1321 1322 1320
f 1294 1414 1463
f 1324 1298 1301
f 1320 1322 1318
f 1414 1303 1324
f 1324 1328 1323
f 1330 1325 1326
f 1329 1320 1318
f 1324 1301 1328
f 1298 1324 1303
f 1323 1328 1325
f 1323 1414 1324
f 1328 1301 1334
f 1325 1328 1334
f 1326 1327 1330
f 1414 1330 1327
f 1330 1323 1325
f 1326 1325 1334
f 1323 1330 1414
f 1319 1318 1334
f 1327 1326 1331
f 1331 1326 1334
f 1319 1332 1329
f 1321 1327 1331
f 1327 1321 1414
f 1320 1414 1321
f 1329 1318 1319
f 1321 1331 1322
f 1322 1331 1334
f 1333 1319 1334
f 1318 1322 1334
f 1320 1329 1414
f 1414 1329 1332
f 1332 1319 1333
f 1334 1101 909
f 909 897 1477
f 1283 1335 1284
f 1314 1317 1336
f 1311 1267 1283
f 1317 1335 1336
f 1283 1267 1335
f 1304 1340 1337
f 1282 1284 1338
f 1341 1314 1336
f 667 1335 1267
f 1339 1335 1317
f 1341 1364 1314
f 1364 1282 1338
f 1344 1336 1335
f 1342 1317 1314
f 1364 1304 1343
f 1338 1284 1340
f 1364 1342 1314
f 1284 1335 1340
f 1364 1306 1312
f 1340 1335 1337
f 1282 1312 1283
f 1343 1337 1339
f 1341 1336 1344
f 1304 1337 1343
f 1363 1344 1391
f 1342 1343 1339
f 1337 1335 1339
f 1364 1338 1304
f 1342 1339 1317
f 1364 1343 1342
f 1306 1311 1312
f 1304 1338 1340
f 1346 1414 1347
f 1347 1332 1333
f 1347 1349 1346
f 1351 1352 1414
f 1414 1353 1351
f 1346 1349 1348
f 1353 1348 1355
f 1347 1333 1349
f 1332 1347 1414
f 1352 1351 1354
f 1348 1349 1350
f 1353 1346 1348
f 1349 1333 1334
f 1355 1351 1353
f 1349 1334 1350
f 1346 1353 1414
f 1355 1348 1350
f 1351 1355 1354
f 1354 1355 1350
f 1371 1414 1352
f 1356 1357 1358
f 1345 1359 1360
f 1358 1345 1360
f 1359 1354 1350
f 1356 1360 1350
f 1358 1360 1356
f 1352 1354 1359
f 1352 1359 1345
f 1345 1371 1352
f 1361 1356 1350
f 1360 1359 1350
f 1345 1358 1371
f 1371 1358 1357
f 1357 1356 1361
f 909 1389 1350
f 1334 909 1350
f 1362 1111 1310
f 1364 1341 1363
f 1364 1392 92
f 1310 1111 1390
f 1363 1341 1344
f 1344 1335 1391
f 1391 1335 667
f 1363 1391 1364
f 1365 1366 1280
f 1357 1368 1371
f 1371 1369 1370
f 1368 1357 1361
f 1373 1374 1350
f 1376 1377 1350
f 1378 1379 1372
f 1369 1380 1373
f 1369 1373 1375
f 1368 1361 1374
f 1380 1374 1373
f 1380 1369 1371
f 1380 1371 1368
f 1368 1374 1380
f 1374 1361 1350
f 1375 1370 1369
f 1375 1373 1350
f 1382 1370 1381
f 1370 1375 1381
f 1381 1375 1350
f 1377 1367 1383
f 1370 1382 1371
f 1377 1372 1350
f 1383 1378 1372
f 1383 1372 1377
f 1382 1381 1379
f 1379 1381 1350
f 1382 1379 1378
f 1378 1371 1382
f 1372 1379 1350
f 1378 1383 1371
f 1371 1383 1367
f 1367 1377 1376
f 1413 1279 1384
f 1281 1280 1350
f 1472 1392 1364
f 1362 1386 1387
f 1386 1362 1388
f 1364 1391 667
f 1367 1393 1371
f 1279 1365 1280
f 1482 1316 667
f 1387 1111 1362
f 1365 1413 1393
f 1397 1394 1398
f 1399 1384 1396
f 1279 1413 1365
f 1400 1401 1413
f 1393 1366 1365
f 1413 1371 1393
f 1281 1384 1279
f 1393 1376 1366
f 1393 1367 1376
f 1280 1366 1350
f 1366 1376 1350
f 1281 1350 1389
f 1400 1403 871
f 1384 1281 1396
f 1396 1281 1389
f 1401 1400 871
f 1384 1399 1413
f 1371 1402 1414
f 871 1403 1389
f 1402 1371 1413
f 1385 871 1389
f 1413 1401 1404
f 1403 1396 1389
f 1401 871 1385
f 1399 1396 1403
f 1399 1403 1400
f 1400 1413 1399
f 1385 1404 1401
f 1405 1385 1389
f 1404 1385 1405
f 1408 1409 1402
f 1389 909 1486
f 1406 1405 1389
f 1415 1285 1473
f 1416 1285 1415
f 1417 1418 1481
f 1419 1398 1389
f 1420 1421 1478
f 1402 1422 1397
f 1412 1406 1389
f 1424 1422 1413
f 1407 1419 1425
f 1386 1388 1410
f 1426 1427 1428
f 1407 1408 1402
f 1394 1397 1422
f 1422 1402 1413
f 1409 1395 1429
f 1430 1431 1389
f 1425 1419 1389
f 1408 1425 1395
f 1397 1432 1402
f 1424 1406 1412
f 1408 1407 1425
f 1429 1395 1389
f 1434 1404 1405
f 1432 1419 1407
f 1394 1412 1389
f 1398 1394 1389
f 1424 1413 1434
f 1434 1406 1424
f 1422 1412 1394
f 1433 1435 1431
f 1434 1405 1406
f 1428 1427 1389
f 1432 1398 1419
f 1432 1397 1398
f 1422 1424 1412
f 1409 1408 1395
f 1407 1402 1432
f 1395 1425 1389
f 1404 1434 1413
f 1435 1402 1436
f 1390 1411 1310
f 1437 1438 1402
f 1436 1409 1429
f 909 1477 1486
f 1410 1388 1310
f 667 1472 1364
f 1402 1433 1441
f 1402 1442 1443
f 1441 1430 1445
f 1446 1445 1427
f 1438 1447 1402
f 1448 1429 1389
f 1445 1430 1389
f 1428 1481 1439
f 1446 1427 1426
f 1435 1433 1402
f 1436 1448 1435
f 1426 1437 1402
f 1463 1414 1402
f 1444 1439 1481
f 1433 1431 1430
f 1426 1402 1446
f 1409 1436 1402
f 1435 1448 1431
f 1436 1429 1448
f 1431 1448 1389
f 1449 1402 1447
f 1450 1451 1452
f 1430 1441 1433
f 1446 1441 1445
f 1427 1445 1389
f 1437 1428 1439
f 1441 1446 1402
f 1438 1437 1439
f 1428 1389 1481
f 1417 1443 1442
f 1449 1442 1402
f 1442 1449 1418
f 1437 1426 1428
f 1438 1439 1444
f 1453 1454 1455
f 1447 1444 1456
f 1389 1486 1481
f 1447 1438 1444
f 1410 1411 1440
f 1443 1417 1457
f 667 897 1463
f 1459 1420 1460
f 1455 1485 1453
f 1461 1452 1462
f 1447 1456 1449
f 1453 1443 1457
f 1485 1450 1461
f 1454 1457 1481
f 1449 1456 1418
f 1455 1454 1451
f 1423 1464 1465
f 1453 1457 1454
f 1402 1443 1485
f 1485 1463 1402
f 1411 1410 1310
f 1456 1444 1481
f 1442 1418 1417
f 1450 1455 1451
f 1457 1417 1481
f 1418 1456 1481
f 1464 1423 1485
f 1466 1421 1420
f 1443 1453 1485
f 1452 1461 1450
f 1455 1450 1485
f 1452 1451 1481
f 1423 1465 1421
f 1462 1452 1481
f 1465 1458 1481
f 1467 1468 1478
f 1451 1454 1481
f 1469 1467 1470
f 1310 1388 1362
f 1387 1386 1440
f 1386 1410 1440
f 1392 1387 1440
f 1411 1392 1440
f 1392 1472 1390
f 1315 1316 1471
f 1472 667 1474
f 1316 1482 1471
f 1475 1415 1473
f 1475 1416 1415
f 1316 1475 1473
f 1459 1466 1420
f 1468 1460 1478
f 1476 1462 1458
f 1476 1458 1464
f 1466 1459 1485
f 1421 1465 1478
f 1421 1466 1423
f 1458 1462 1481
f 1461 1476 1485
f 1464 1458 1465
f 1464 1485 1476
f 1470 1467 1478
f 1485 1423 1466
f 1476 1461 1462
f 1469 1479 1467
f 1465 1481 1478
f 1480 1460 1468
f 1479 1468 1467
f 1459 1460 1480
f 1479 1469 1485
f 1460 1420 1478
f 1480 1479 1485
f 1479 1480 1468
f 1480 1485 1459
f 1387 1392 1390
f 1411 1390 1392
f 1392 1390 1128
f 1316 1315 1475
f 1475 1315 1483
f 1474 1471 1482
f 1416 1483 1471
f 1285 1471 1474
f 1483 1315 1471
f 1472 1474 1482
f 1416 1471 1285
f 1483 1416 1475
f 1474 667 1473
f 667 1316 1473
f 667 1463 1482
f 1390 1472 1482
f 1463 1485 1484
f 1487 1470 1478
f 1484 1487 1463
f 1487 1478 1481
f 1469 1470 1484
f 1487 1484 1470
f 1485 1469 1484
f 1481 1486 1487
f 1128 1390 1486
f 1486 1390 1482
f 1486 1482 1463
f 1477 1128 1486
f 1487 1486 1463

