# https://github.com/mikedh/trimesh
v 0.03924648 -0.00277317 0.00636484
v 0.03669771 -0.00315018 0.01300581
v 0.03924648 -0.00320404 0.01300581
v 0.03937841 -0.00278394 0.00636484
v 0.02650863 -0.00277317 0.00636484
v 0.03669771 -0.00369955 0.01555589
v 0.03924648 -0.00374802 0.01555589
v 0.03414894 -0.00319866 0.01300581
v 0.04180124 -0.00396345 0.01300581
v 0.04180124 -0.00358644 0.01045683
v 0.04180124 -0.00306401 0.00636484
v 0.04169929 -0.00304785 0.00636484
v 0.01630755 -0.00318250 0.00636484
v 0.03160017 -0.00481982 0.01714172
v 0.03414894 -0.00477134 0.01716149
v 0.03669771 -0.00472825 0.01717687
v 0.03924648 -0.00472825 0.01719005
v 0.03414894 -0.00379111 0.01555589
v 0.01630755 -0.00508911 0.01697370
v 0.01885632 -0.00504602 0.01701213
v 0.04105760 -0.00490599 0.01707363
v 0.04186721 -0.00463669 0.01541312
v 0.03160017 -0.00330637 0.01300581
v 0.04312660 -0.00515913 0.01446864
v 0.04330052 -0.00493831 0.01300581
v 0.04415211 -0.00407656 0.00636484
v 0.04366634 -0.00379649 0.00636484
v 0.01375878 -0.00341409 0.00636484
v 0.01375878 -0.00441049 0.01300581
v 0.01630755 -0.00423814 0.01300581
v 0.02140509 -0.00390421 0.01300581
v 0.02395986 -0.00374802 0.01300581
v 0.02905140 -0.00345179 0.01300581
v 0.02140509 -0.00500294 0.01704069
v 0.02905140 -0.00486829 0.01711866
v 0.01885632 -0.00650022 0.01738882
v 0.02140509 -0.00650022 0.01741738
v 0.02395986 -0.00650022 0.01744483
v 0.02650863 -0.00650022 0.01747119
v 0.02905140 -0.00650022 0.01749535
v 0.03160017 -0.00650022 0.01751842
v 0.03414894 -0.00650022 0.01753818
v 0.03669771 -0.00650022 0.01755356
v 0.03924648 -0.00650022 0.01756674
v 0.03160017 -0.00391498 0.01555589
v 0.01630755 -0.00469055 0.01555589
v 0.01472432 -0.00515374 0.01691110
v 0.01630755 -0.00650022 0.01735039
v 0.04186721 -0.00648406 0.01722848
v 0.04333650 -0.00732965 0.01699786
v 0.04276078 -0.00562770 0.01616760
v 0.04366035 -0.00648406 0.01541312
v 0.04602321 -0.00973716 0.01508585
v 0.04823614 -0.01276943 0.01444229
v 0.04544748 -0.00802444 0.01300581
v 0.04612516 -0.00654331 0.00636484
v 0.01101811 -0.00414119 0.00636484
v 0.01122801 -0.00486290 0.01300581
v 0.01164780 -0.00504602 0.01478823
v 0.01382475 -0.00493292 0.01560531
v 0.02395986 -0.00495985 0.01706814
v 0.02650863 -0.00491676 0.01709450
v 0.01375878 -0.00904776 0.01755685
v 0.01630755 -0.00904776 0.01758431
v 0.03924648 -0.00904776 0.01758431
v 0.04180124 -0.00904776 0.01752171
v 0.01302114 -0.00553076 0.01648828
v 0.01191767 -0.00723271 0.01704508
v 0.01382475 -0.00643020 0.01715820
v 0.04386425 -0.00904776 0.01714502
v 0.04556743 -0.01044810 0.01678590
v 0.04668289 -0.00743737 0.00636484
v 0.04639502 -0.00696341 0.00636484
v 0.05092884 -0.01761137 0.01463118
v 0.05592443 -0.02544787 0.01212613
v 0.05424524 -0.02032587 0.00636484
v 0.05395138 -0.01981959 0.00636484
v 0.05367551 -0.01934563 0.00636484
v 0.00857129 -0.00627940 0.00636484
v 0.00995062 -0.00523453 0.01300581
v 0.00939289 -0.00693109 0.01497273
v 0.01093415 -0.00623093 0.01573050
v 0.01375878 -0.01160068 0.01753269
v 0.01112605 -0.00899390 0.01721311
v 0.01121001 -0.01160068 0.01747339
v 0.04180124 -0.01160068 0.01753269
v 0.04435001 -0.01414822 0.01730865
v 0.04826013 -0.01772447 0.01685838
v 0.04626909 -0.01414822 0.01702970
v 0.04456591 -0.01141756 0.01718236
v 0.01022049 -0.00811061 0.01667278
v 0.00945886 -0.00980717 0.01700225
v 0.04590326 -0.01214466 0.01694844
v 0.04790630 -0.01602252 0.01672659
v 0.05473100 -0.02680512 0.01520665
v 0.05605036 -0.02759147 0.01459164
v 0.05354358 -0.02256102 0.01465095
v 0.05570253 -0.02588952 0.01382618
v 0.05630224 -0.02680512 0.01298824
v 0.05651814 -0.02483927 0.00636484
v 0.05627826 -0.02434915 0.00636484
v 0.00636436 -0.00912316 0.00636484
v 0.00908704 -0.00650561 0.01300581
v 0.00718596 -0.00998491 0.01477175
v 0.00776168 -0.01114288 0.01647181
v 0.01121001 -0.01414822 0.01738333
v 0.01375878 -0.01414822 0.01738553
v 0.01885632 -0.01414822 0.01738773
v 0.00863126 -0.01183228 0.01706595
v 0.00866124 -0.01414822 0.01719993
v 0.00866124 -0.01669576 0.01715600
v 0.04180124 -0.01414822 0.01738773
v 0.04435001 -0.01669576 0.01719444
v 0.04824813 -0.02072981 0.01684191
v 0.04829011 -0.01924868 0.01685948
v 0.05199632 -0.02689669 0.01626205
v 0.05454509 -0.02944422 0.01566132
v 0.05199632 -0.02434915 0.01612477
v 0.00737787 -0.01284483 0.01683532
v 0.05618830 -0.02944422 0.01475858
v 0.05688996 -0.02944422 0.01300581
v 0.05665008 -0.02689669 0.01045683
v 0.05671604 -0.02543172 0.00636484
v 0.00781566 -0.00848763 0.01300581
v -0.00101208 -0.02225941 0.00636484
v 0.00456522 -0.01492379 0.01474540
v 0.00243025 -0.01825229 0.01300581
v 0.00198047 -0.01992731 0.01470476
v -0.00054431 -0.02503316 0.01462679
v 0.01630755 -0.02227018 0.01676943
v 0.01885632 -0.02102065 0.01686827
v 0.02140509 -0.01924868 0.01700664
v 0.00701204 -0.02078367 0.01685069
v 0.00866124 -0.01924868 0.01698358
v 0.00866124 -0.02092909 0.01686168
v 0.02650863 -0.02107451 0.01687266
v 0.03414894 -0.02434915 0.01663105
v 0.03160017 -0.02236713 0.01677821
v 0.03924648 -0.02434915 0.01663215
v 0.00713198 -0.01414822 0.01692428
v 0.00679615 -0.01669576 0.01697809
v 0.00676016 -0.01924868 0.01690341
v 0.04689878 -0.02434915 0.01663215
v 0.04944755 -0.02944422 0.01625106
v 0.04689878 -0.02224325 0.01677821
v 0.04944755 -0.02689669 0.01641909
v 0.05199632 -0.03199176 0.01602483
v 0.05199632 -0.02944422 0.01616760
v 0.05454509 -0.03199176 0.01553392
v 0.05615231 -0.03199176 0.01468170
v -0.00098810 -0.02689669 0.01496834
v 0.05682999 -0.03199176 0.01300581
v 0.05716583 -0.03199176 0.01045683
v 0.05717182 -0.02944422 0.01045683
v 0.05732175 -0.02806004 0.00636484
v 0.05706987 -0.02691823 0.00636484
v -0.00342892 -0.02725215 0.00636484
v -0.00287119 -0.02806543 0.01196140
v 0.00058315 -0.02179622 0.01300581
v 0.00176457 -0.01952875 0.01300581
v -0.00016649 -0.02327196 0.01300581
v -0.00213354 -0.02708519 0.01288830
v -0.00267328 -0.02944422 0.01375919
v 0.01121001 -0.02434915 0.01660359
v 0.02140509 -0.02689669 0.01642239
v 0.02905140 -0.02689669 0.01643227
v 0.02905140 -0.02434915 0.01662666
v 0.04435001 -0.03199176 0.01606107
v 0.04689878 -0.03199176 0.01606327
v 0.00611247 -0.02689669 0.01639713
v 0.00100894 -0.02944422 0.01601494
v 0.00355771 -0.02689669 0.01631476
v 0.00355771 -0.02944422 0.01615332
v 0.00355771 -0.03199176 0.01598749
v 0.00611247 -0.02944422 0.01620604
v 0.00866124 -0.03199176 0.01601494
v 0.03924648 -0.02689669 0.01644215
v 0.04944755 -0.03199176 0.01606437
v 0.04435001 -0.02689669 0.01644325
v 0.00100894 -0.02689669 0.01594795
v 0.00355771 -0.02434915 0.01643447
v 0.04689878 -0.02689669 0.01644325
v 0.05199632 -0.03453930 0.01581507
v 0.04944755 -0.03453930 0.01587218
v 0.04944755 -0.03709222 0.01567779
v 0.05461706 -0.03448544 0.01499579
v 0.05600239 -0.03360215 0.01448841
v 0.05199632 -0.03709222 0.01532965
v -0.00139590 -0.02944422 0.01510452
v 0.05620029 -0.03448544 0.01277518
v 0.05719581 -0.03300431 0.00636484
v 0.05750766 -0.03193790 0.00636484
v 0.05634422 -0.03476012 0.01056006
v 0.05746568 -0.03040830 0.00636484
v 0.05742970 -0.02944422 0.00636484
v -0.00375876 -0.02944422 0.00636484
v -0.00299113 -0.02944422 0.01248415
v -0.00266129 -0.03199176 0.01368451
v 0.02650863 -0.03709222 0.01564924
v 0.03414894 -0.03963976 0.01546473
v 0.03924648 -0.03963976 0.01547132
v 0.04180124 -0.03963976 0.01547462
v 0.04180124 -0.03709222 0.01566900
v 0.00100894 -0.03199176 0.01580518
v -0.00138990 -0.03199176 0.01496285
v 0.00355771 -0.03453930 0.01576894
v 0.00611247 -0.03709222 0.01561080
v 0.00611247 -0.03453930 0.01581397
v 0.00611247 -0.03199176 0.01601055
v 0.00866124 -0.03453930 0.01581946
v 0.01885632 -0.03709222 0.01563825
v 0.04689878 -0.04218730 0.01528133
v 0.04944755 -0.03963976 0.01541751
v 0.04596323 -0.04930748 0.01442691
v 0.04542949 -0.05100405 0.01423582
v 0.04435001 -0.04218730 0.01528243
v 0.04435001 -0.04474022 0.01508694
v 0.04834409 -0.04630753 0.01440824
v 0.05109076 -0.04152483 0.01456199
v 0.05369950 -0.03709222 0.01463008
v 0.05551062 -0.03529871 0.01347146
v 0.05330369 -0.03841716 0.01431160
v 0.05583447 -0.03583731 0.01177250
v 0.05668606 -0.03460393 0.00636484
v -0.00359084 -0.03199176 0.00636484
v -0.00317704 -0.03199176 0.01045683
v -0.00296114 -0.03199176 0.01241057
v -0.00282921 -0.03330593 0.01186256
v -0.00215753 -0.03430770 0.01282899
v -0.00056830 -0.03633820 0.01449171
v -0.00100009 -0.03453930 0.01472563
v 0.03669771 -0.04218730 0.01527254
v 0.00100894 -0.03453930 0.01544826
v 0.00355771 -0.03709222 0.01545265
v 0.00984867 -0.05126795 0.01432148
v 0.01255936 -0.05365930 0.01428085
v 0.00866124 -0.03963976 0.01541092
v 0.03414894 -0.04474022 0.01506498
v 0.02650863 -0.04218730 0.01525168
v 0.00866124 -0.03709222 0.01561739
v 0.01630755 -0.03709222 0.01563386
v 0.04689878 -0.04474022 0.01500348
v 0.04435001 -0.04728777 0.01486071
v 0.04372631 -0.05180116 0.01435004
v 0.04606519 -0.05185502 0.01253577
v 0.04180124 -0.05343848 0.01425449
v 0.04180124 -0.05493577 0.01348463
v 0.04327053 -0.05636303 0.01202290
v 0.03924648 -0.04474022 0.01507706
v 0.03669771 -0.04728777 0.01486400
v 0.03924648 -0.04728777 0.01486620
v 0.04180124 -0.04728777 0.01486620
v 0.05050904 -0.04322678 0.01400849
v 0.04827212 -0.04873657 0.01197238
v 0.05423324 -0.03942971 0.00636484
v 0.04671287 -0.05298606 0.00636484
v 0.04872790 -0.04944752 0.00636484
v -0.00308708 -0.03400071 0.00636484
v -0.00085016 -0.03680677 0.01300581
v 0.00736587 -0.05113870 0.01176701
v 0.00222035 -0.04101856 0.01433027
v 0.00093098 -0.03714609 0.01481458
v 0.00743184 -0.04852114 0.01426547
v 0.01111406 -0.05497885 0.01297945
v 0.01121001 -0.05314225 0.01404363
v 0.02395986 -0.04474022 0.01503752
v 0.01189968 -0.05671312 0.01242814
v 0.01354889 -0.05469340 0.01409964
v 0.01425654 -0.05367546 0.01428304
v 0.01885632 -0.05238822 0.01440055
v 0.03414894 -0.04728777 0.01485742
v 0.03669771 -0.04474022 0.01507157
v 0.03924648 -0.04983530 0.01462898
v 0.04180124 -0.04983530 0.01462240
v 0.04180124 -0.05216202 0.01438628
v 0.04556143 -0.05355697 0.01116628
v 0.03924648 -0.05347080 0.01426108
v 0.01630755 -0.05497346 0.01404912
v 0.01885632 -0.05498424 0.01403045
v 0.02140509 -0.05497885 0.01401178
v 0.02395986 -0.05495192 0.01399091
v 0.02905140 -0.05493577 0.01390745
v 0.03160017 -0.05493577 0.01384705
v 0.03414894 -0.05493577 0.01377896
v 0.03669771 -0.05493577 0.01370098
v 0.03924648 -0.05493577 0.01360763
v 0.03160017 -0.05681545 0.01258079
v 0.03414894 -0.05673466 0.01251600
v 0.03669771 -0.05665926 0.01244132
v 0.03924648 -0.05657308 0.01235236
v 0.04180124 -0.05648691 0.01223595
v 0.04180124 -0.05678313 0.01045683
v 0.04337848 -0.05643305 0.01045683
v 0.04597523 -0.05402554 0.00636484
v 0.04481179 -0.05471494 0.01037226
v 0.01885632 -0.05371316 0.01428853
v 0.03669771 -0.04983530 0.01463338
v 0.02140509 -0.05370239 0.01428744
v -0.00186967 -0.03623048 0.00636484
v -0.00137191 -0.03708684 0.00636484
v 0.00436732 -0.04682457 0.00636484
v 0.00469116 -0.04736317 0.00636484
v 0.00653827 -0.05037389 0.00636484
v 0.00791761 -0.05253903 0.00636484
v 0.00929694 -0.05467724 0.00636484
v 0.00942288 -0.05437563 0.01045683
v 0.00958480 -0.05415481 0.01226451
v 0.00105692 -0.04123938 0.00636484
v 0.01163581 -0.05693933 0.01045683
v 0.01375878 -0.05772567 0.01045683
v 0.01375878 -0.05698241 0.01277957
v 0.01036442 -0.05565209 0.01045683
v 0.01630755 -0.05369701 0.01428524
v 0.02395986 -0.05368084 0.01428414
v 0.03160017 -0.05230744 0.01440165
v 0.02905140 -0.05362160 0.01427645
v 0.03924648 -0.05219972 0.01439067
v 0.03669771 -0.05350850 0.01426547
v 0.01630755 -0.05699857 0.01277408
v 0.02721629 -0.05364853 0.01427865
v 0.02140509 -0.05699857 0.01273674
v 0.02395986 -0.05699318 0.01271588
v 0.02650863 -0.05695548 0.01268293
v 0.02905140 -0.05689085 0.01263680
v 0.02650863 -0.05764488 0.01045683
v 0.02905140 -0.05752639 0.01045683
v 0.03160017 -0.05739713 0.01045683
v 0.03414894 -0.05726248 0.01045683
v 0.03924648 -0.05698241 0.01045683
v 0.04180124 -0.05664310 0.00790785
v 0.03770522 -0.05704704 0.00636484
v 0.03924648 -0.05692317 0.00636484
v 0.04025399 -0.05680468 0.00636484
v 0.04324055 -0.05631994 0.00790785
v 0.04381027 -0.05581367 0.00636484
v 0.00971074 -0.05522660 0.00636484
v 0.01139592 -0.05681006 0.00636484
v 0.01228350 -0.05715476 0.00636484
v 0.01375878 -0.05764488 0.00636484
v 0.01630755 -0.05777953 0.00636484
v 0.01630755 -0.05779030 0.00790785
v 0.01630755 -0.05779030 0.01045683
v 0.01885632 -0.05779030 0.01045683
v 0.02140509 -0.05777414 0.01045683
v 0.02395986 -0.05773105 0.01045683
v 0.02241261 -0.05762334 0.00636484
v 0.02395986 -0.05756948 0.00636484
v 0.03160017 -0.05730018 0.00636484
v 0.03414894 -0.05720862 0.00636484
v 0.03669771 -0.05710629 0.00636484
v 0.04187921 -0.05650307 0.00636484
v 0.04236497 -0.05639535 0.00636484
v 0.04305464 -0.05620684 0.00636484
v 0.01731507 -0.05776876 0.00636484
v 0.01986384 -0.05770951 0.00636484
f 1 2 3
f 1 3 4
f 1 4 12
f 1 12 11
f 1 11 27
f 1 27 26
f 1 26 56
f 1 56 73
f 1 73 72
f 1 72 78
f 1 78 77
f 1 77 76
f 1 76 101
f 1 101 100
f 1 100 123
f 1 123 156
f 1 156 155
f 1 155 195
f 1 195 194
f 1 194 192
f 1 192 191
f 1 191 224
f 1 224 255
f 1 255 257
f 1 257 256
f 1 256 294
f 1 294 335
f 1 335 353
f 1 353 352
f 1 352 351
f 1 351 333
f 1 333 332
f 1 332 331
f 1 331 350
f 1 350 349
f 1 349 348
f 1 348 347
f 1 347 346
f 1 346 355
f 1 355 354
f 1 354 340
f 1 340 339
f 1 339 338
f 1 338 337
f 1 337 336
f 1 336 305
f 1 305 304
f 1 304 303
f 1 303 302
f 1 302 301
f 1 301 308
f 1 308 300
f 1 300 299
f 1 299 258
f 1 258 225
f 1 225 196
f 1 196 157
f 1 157 125
f 1 125 102
f 1 102 79
f 1 79 57
f 1 57 28
f 1 28 13
f 1 13 5
f 1 5 2
f 2 6 7
f 2 7 3
f 2 5 8
f 2 8 6
f 3 7 9
f 3 9 10
f 3 10 11
f 3 11 12
f 3 12 4
f 5 13 8
f 6 14 15
f 6 15 16
f 6 16 17
f 6 17 7
f 6 8 18
f 6 18 19
f 6 19 20
f 6 20 14
f 7 17 21
f 7 21 22
f 7 22 9
f 8 13 23
f 8 23 18
f 9 22 24
f 9 24 25
f 9 25 26
f 9 26 27
f 9 27 10
f 10 27 11
f 13 28 29
f 13 29 30
f 13 30 31
f 13 31 32
f 13 32 33
f 13 33 23
f 14 20 34
f 14 34 35
f 14 35 36
f 14 36 15
f 15 36 37
f 15 37 38
f 15 38 39
f 15 39 16
f 16 39 40
f 16 40 41
f 16 41 42
f 16 42 43
f 16 43 44
f 16 44 17
f 17 44 21
f 18 23 45
f 18 45 19
f 19 46 47
f 19 47 48
f 19 48 20
f 19 45 46
f 20 48 34
f 21 49 50
f 21 50 51
f 21 51 22
f 21 44 49
f 22 51 24
f 23 33 46
f 23 46 45
f 24 51 52
f 24 52 53
f 24 53 54
f 24 54 55
f 24 55 56
f 24 56 25
f 25 56 26
f 28 57 58
f 28 58 59
f 28 59 29
f 29 60 46
f 29 46 30
f 29 59 60
f 30 46 31
f 31 46 32
f 32 46 33
f 34 48 61
f 34 61 35
f 35 61 62
f 35 62 36
f 36 62 61
f 36 61 48
f 36 48 63
f 36 63 37
f 37 63 64
f 37 64 38
f 38 64 39
f 39 64 40
f 40 64 41
f 41 64 42
f 42 64 43
f 43 64 44
f 44 65 66
f 44 66 49
f 44 64 65
f 46 60 47
f 47 60 59
f 47 59 67
f 47 67 68
f 47 68 69
f 47 69 48
f 48 69 63
f 49 70 50
f 49 66 70
f 50 70 71
f 50 71 51
f 51 71 53
f 51 53 52
f 53 71 54
f 54 72 73
f 54 73 56
f 54 56 55
f 54 71 74
f 54 74 75
f 54 75 76
f 54 76 77
f 54 77 78
f 54 78 72
f 57 79 80
f 57 80 58
f 58 80 59
f 59 80 81
f 59 81 82
f 59 82 67
f 63 83 64
f 63 69 68
f 63 68 84
f 63 84 85
f 63 85 83
f 64 83 86
f 64 86 65
f 65 86 66
f 66 86 87
f 66 87 88
f 66 88 89
f 66 89 90
f 66 90 70
f 67 82 91
f 67 91 68
f 68 91 92
f 68 92 84
f 70 90 93
f 70 93 71
f 71 93 94
f 71 94 95
f 71 95 96
f 71 96 97
f 71 97 74
f 74 97 98
f 74 98 75
f 75 98 99
f 75 99 100
f 75 100 101
f 75 101 76
f 79 102 80
f 80 102 103
f 80 103 104
f 80 104 81
f 81 91 82
f 81 104 105
f 81 105 91
f 83 85 106
f 83 106 107
f 83 107 108
f 83 108 112
f 83 112 86
f 84 92 109
f 84 109 85
f 85 109 110
f 85 110 111
f 85 111 106
f 86 112 113
f 86 113 87
f 87 113 114
f 87 114 115
f 87 115 88
f 88 94 93
f 88 93 89
f 88 115 116
f 88 116 117
f 88 117 118
f 88 118 95
f 88 95 94
f 89 93 90
f 91 105 92
f 92 105 119
f 92 119 109
f 95 118 117
f 95 117 96
f 96 117 120
f 96 120 121
f 96 121 99
f 96 99 98
f 96 98 97
f 99 121 122
f 99 122 123
f 99 123 100
f 102 104 124
f 102 124 103
f 102 125 104
f 103 124 104
f 104 126 105
f 104 125 127
f 104 127 126
f 105 126 128
f 105 128 129
f 105 129 119
f 106 130 131
f 106 131 132
f 106 132 107
f 106 111 133
f 106 133 134
f 106 134 135
f 106 135 130
f 107 132 136
f 107 136 137
f 107 137 108
f 108 137 138
f 108 138 139
f 108 139 143
f 108 143 112
f 109 119 140
f 109 140 110
f 110 140 141
f 110 141 111
f 111 141 142
f 111 142 133
f 112 143 113
f 113 143 144
f 113 144 145
f 113 145 146
f 113 146 114
f 114 146 147
f 114 147 148
f 114 148 116
f 114 116 115
f 116 148 117
f 117 149 150
f 117 150 120
f 117 148 149
f 119 129 151
f 119 151 140
f 120 150 152
f 120 152 121
f 121 152 153
f 121 153 154
f 121 154 122
f 122 154 155
f 122 155 156
f 122 156 123
f 125 157 158
f 125 158 159
f 125 159 160
f 125 160 127
f 126 127 160
f 126 160 159
f 126 159 128
f 128 159 161
f 128 161 162
f 128 162 129
f 129 162 163
f 129 163 151
f 130 135 164
f 130 164 165
f 130 165 131
f 131 165 166
f 131 166 132
f 132 166 167
f 132 167 168
f 132 168 169
f 132 169 136
f 133 170 134
f 133 142 171
f 133 171 172
f 133 172 173
f 133 173 174
f 133 174 170
f 134 170 135
f 135 170 175
f 135 175 176
f 135 176 164
f 136 169 137
f 137 169 177
f 137 177 139
f 137 139 138
f 139 177 178
f 139 178 179
f 139 179 182
f 139 182 143
f 140 151 180
f 140 180 141
f 141 180 171
f 141 171 181
f 141 181 142
f 142 181 171
f 143 182 178
f 143 178 144
f 144 146 145
f 144 178 147
f 144 147 146
f 147 183 149
f 147 149 148
f 147 178 184
f 147 184 185
f 147 185 183
f 149 186 187
f 149 187 150
f 149 183 188
f 149 188 186
f 150 187 152
f 151 163 189
f 151 189 180
f 152 187 190
f 152 190 153
f 153 191 192
f 153 192 154
f 153 190 193
f 153 193 191
f 154 192 194
f 154 194 195
f 154 195 155
f 157 196 158
f 158 196 197
f 158 197 163
f 158 163 162
f 158 162 161
f 158 161 159
f 163 197 198
f 163 198 189
f 164 199 200
f 164 200 165
f 164 176 199
f 165 200 201
f 165 201 166
f 166 201 202
f 166 202 203
f 166 203 167
f 167 203 185
f 167 185 168
f 168 185 184
f 168 184 169
f 169 184 178
f 169 178 177
f 170 174 175
f 171 204 174
f 171 174 173
f 171 173 172
f 171 180 189
f 171 189 205
f 171 205 204
f 174 204 206
f 174 206 207
f 174 207 208
f 174 208 209
f 174 209 175
f 175 209 210
f 175 210 176
f 176 210 211
f 176 211 199
f 178 182 179
f 183 185 212
f 183 212 213
f 183 213 214
f 183 214 215
f 183 215 188
f 185 203 202
f 185 202 216
f 185 216 217
f 185 217 212
f 186 188 218
f 186 218 219
f 186 219 220
f 186 220 187
f 187 221 190
f 187 220 222
f 187 222 221
f 188 215 218
f 189 198 205
f 190 221 223
f 190 223 193
f 191 193 224
f 193 223 224
f 196 225 226
f 196 226 227
f 196 227 197
f 197 227 198
f 198 228 229
f 198 229 230
f 198 230 231
f 198 231 205
f 198 227 228
f 199 211 200
f 200 232 217
f 200 217 201
f 200 211 232
f 201 217 202
f 202 217 216
f 204 233 234
f 204 234 206
f 204 205 233
f 205 231 233
f 206 234 235
f 206 235 236
f 206 236 207
f 207 237 238
f 207 238 239
f 207 239 240
f 207 240 208
f 207 236 237
f 208 240 241
f 208 241 210
f 208 210 209
f 210 241 232
f 210 232 211
f 212 242 213
f 212 217 243
f 212 243 242
f 213 242 214
f 214 242 244
f 214 244 215
f 215 245 218
f 215 244 246
f 215 246 247
f 215 247 248
f 215 248 245
f 217 232 241
f 217 241 249
f 217 249 250
f 217 250 251
f 217 251 252
f 217 252 243
f 218 245 253
f 218 253 222
f 218 222 219
f 219 222 220
f 221 222 254
f 221 254 223
f 222 253 245
f 222 245 254
f 223 255 224
f 223 254 256
f 223 256 257
f 223 257 255
f 225 258 228
f 225 228 226
f 226 228 227
f 228 258 259
f 228 259 229
f 229 259 230
f 230 259 260
f 230 260 261
f 230 261 262
f 230 262 233
f 230 233 231
f 233 262 261
f 233 261 263
f 233 263 235
f 233 235 234
f 235 263 264
f 235 264 265
f 235 265 236
f 236 266 237
f 236 265 267
f 236 267 268
f 236 268 269
f 236 269 270
f 236 270 250
f 236 250 271
f 236 271 238
f 236 238 266
f 237 266 238
f 238 271 250
f 238 250 272
f 238 272 239
f 239 272 240
f 240 272 249
f 240 249 241
f 242 243 244
f 243 252 273
f 243 273 274
f 243 274 275
f 243 275 246
f 243 246 244
f 245 276 254
f 245 248 276
f 246 275 277
f 246 277 278
f 246 278 279
f 246 279 280
f 246 280 281
f 246 281 282
f 246 282 283
f 246 283 284
f 246 284 285
f 246 285 286
f 246 286 247
f 247 286 287
f 247 287 288
f 247 288 289
f 247 289 290
f 247 290 291
f 247 291 248
f 248 291 292
f 248 292 293
f 248 293 294
f 248 294 295
f 248 295 276
f 249 272 250
f 250 270 296
f 250 296 251
f 251 296 252
f 252 297 273
f 252 296 298
f 252 298 297
f 254 276 256
f 256 276 294
f 258 299 259
f 259 299 300
f 259 300 260
f 260 301 302
f 260 302 303
f 260 303 304
f 260 304 305
f 260 305 306
f 260 306 307
f 260 307 261
f 260 300 308
f 260 308 301
f 261 307 263
f 263 307 264
f 264 267 265
f 264 307 267
f 267 309 310
f 267 310 311
f 267 311 268
f 267 307 312
f 267 312 309
f 268 311 278
f 268 278 296
f 268 296 313
f 268 313 269
f 269 313 270
f 270 313 296
f 273 297 298
f 273 298 314
f 273 314 274
f 274 314 315
f 274 315 316
f 274 316 317
f 274 317 275
f 275 317 318
f 275 318 277
f 276 295 294
f 277 318 278
f 278 314 298
f 278 298 296
f 278 311 319
f 278 319 279
f 278 318 316
f 278 316 320
f 278 320 314
f 279 319 321
f 279 321 280
f 280 321 322
f 280 322 281
f 281 322 282
f 282 322 323
f 282 323 283
f 283 323 284
f 284 323 285
f 285 323 324
f 285 324 286
f 286 324 287
f 287 289 288
f 287 324 325
f 287 325 289
f 289 325 290
f 290 325 291
f 291 325 326
f 291 326 327
f 291 327 328
f 291 328 329
f 291 329 292
f 292 330 293
f 292 329 331
f 292 331 332
f 292 332 333
f 292 333 330
f 293 330 334
f 293 334 335
f 293 335 294
f 305 336 312
f 305 312 306
f 306 312 307
f 309 337 338
f 309 338 310
f 309 312 336
f 309 336 337
f 310 338 339
f 310 339 340
f 310 340 341
f 310 341 342
f 310 342 311
f 311 342 319
f 314 320 316
f 314 316 315
f 316 318 317
f 319 342 343
f 319 343 321
f 321 343 322
f 322 343 344
f 322 344 345
f 322 345 323
f 323 345 324
f 324 345 325
f 325 345 355
f 325 355 346
f 325 346 347
f 325 347 348
f 325 348 349
f 325 349 350
f 325 350 326
f 326 350 327
f 327 350 328
f 328 350 329
f 329 350 331
f 330 333 351
f 330 351 352
f 330 352 334
f 334 352 353
f 334 353 335
f 340 354 344
f 340 344 341
f 341 344 343
f 341 343 342
f 344 354 345
f 345 354 355

