# https://github.com/mikedh/trimesh
v -0.55288833 0.34848574 0.07987308
v -0.49555054 0.60373837 0.06669219
v -0.43679762 0.42297825 -0.17928553
v -0.42442387 0.25715083 -0.14092486
v -0.57067871 0.48159358 -0.00533941
v -0.48560855 0.58069503 -0.02327664
v -0.50132716 0.34819546 0.00051416
v -0.53121573 0.41964465 0.06688780
v -0.48560661 0.58041561 -0.03947102
v -0.47738838 0.36946955 0.04879983
v -0.49018085 0.58196062 -0.06294895
v -0.47973678 0.51558512 0.02184004
v -0.41146079 0.26056206 0.16461021
v -0.48558554 0.58024961 -0.04711806
v -0.45071858 0.28302893 -0.03090120
v -0.47055674 0.86475730 0.00178692
v -0.45992368 0.38071486 -0.07832207
v -0.45564380 0.29096848 0.17267418
v -0.48209402 0.44743878 -0.07692732
v -0.55672395 0.48086926 0.07524688
v -0.48593098 0.57625836 -0.05258328
v -0.47962919 0.53274655 -0.11044845
v -0.48550126 0.58025056 -0.04241401
v -0.48531011 0.58024883 -0.03177295
v -0.48302045 0.68512648 -0.12157844
v -0.49533859 0.77843720 0.14077413
v -0.50352049 0.78530353 -0.12581895
v -0.43610787 0.51841551 0.17155498
v -0.50906938 0.91610146 -0.06356649
v -0.48736194 0.83948988 -0.12352479
v -0.47610354 0.92693692 0.09078454
v -0.46282893 0.50175494 -0.17149204
v -0.40851745 0.68242371 0.19163421
v -0.49278435 0.84358519 0.14640161
v -0.42771718 0.81729633 0.20710695
v -0.44797945 0.91310877 -0.02399598
v -0.37370867 0.95067960 -0.15464269
v -0.48202571 0.65458083 0.15288153
v -0.39978248 0.92667055 -0.10590269
v -0.43651929 0.27805790 -0.15094185
v -0.38232043 0.21057519 -0.11748413
v -0.33604282 0.29298693 0.27844793
v -0.40593326 0.36108834 0.24212840
v -0.34452364 -0.39798123 -0.06332955
v -0.36485481 0.25788444 -0.21574517
v -0.35124156 -0.49076051 -0.09486315
v -0.45015687 0.51408708 0.11656438
v -0.38598162 0.45958310 -0.25556967
v -0.40374026 0.57664967 0.21560720
v -0.37004009 0.61410689 0.16924253
v -0.42056429 0.55306560 -0.21371391
v -0.43865150 0.82934374 -0.20693339
v -0.42112637 0.77000469 0.24071164
v -0.37979227 0.92917418 -0.24038187
v -0.47130367 0.89911199 -0.12515263
v -0.37777704 0.92259723 0.03800987
v -0.39269453 0.27058381 0.23841703
v -0.38039017 0.21327080 0.16484635
v -0.35144970 0.66532797 0.19112469
v -0.44451126 0.62798005 0.12248660
v -0.38674423 0.68612307 -0.24534442
v -0.38823581 0.86446464 0.26130068
v -0.38636634 0.92220879 0.12465002
v -0.43643484 0.91147971 -0.18914063
v -0.32881293 0.19585127 0.25681770
v -0.33880541 0.59895593 0.25622532
v -0.35856277 0.49214229 0.26312950
v -0.26205119 0.41614488 -0.28219476
v -0.37257716 0.78990179 -0.28135687
v -0.37027982 0.92024106 0.15876764
v -0.28000483 0.91679972 -0.24261819
v -0.08894450 -0.40764186 -0.14366737
v -0.27578229 -0.50625694 -0.03879898
v -0.31447622 0.18614966 0.02419848
v -0.24274078 0.14548732 0.25374252
v -0.24418598 0.17187177 0.27643484
v -0.25855690 0.60087574 0.26649740
v -0.27167144 0.47444379 0.30444065
v -0.30435461 0.76595122 -0.29353172
v -0.32139656 0.75920641 0.27633971
v -0.31124869 0.95295876 0.17386080
v -0.18004142 -0.93195546 -0.04482863
v -0.35649031 0.93422633 -0.06524255
v -0.29086271 -0.48362821 -0.18860109
v -0.14283447 -0.37503132 0.01786632
v -0.30879614 -0.38743633 -0.15057172
v -0.26550809 -0.42085734 -0.04377063
v -0.23902608 -0.41523734 -0.12692611
v -0.27174485 0.32620439 -0.25938493
v -0.30392253 0.55938172 -0.27772895
v -0.23780152 0.85720748 0.27726147
v -0.26179346 0.90526021 0.17316851
v -0.28412855 0.92569679 0.11346408
v -0.19012427 0.93991357 -0.18126576
v -0.16515307 0.93806726 -0.17500070
v -0.27440467 0.94431752 -0.15623155
v -0.28426498 -0.20415446 -0.20845978
v -0.29480377 -0.21480279 -0.12251575
v -0.19867015 -0.16535917 -0.09958871
v -0.19283551 -0.09166277 -0.05624835
v -0.22716491 -0.03396346 0.00153742
v -0.27065927 -0.12138774 -0.08339475
v -0.21998554 -0.03693040 -0.01195806
v -0.21998554 -0.03603040 -0.01195806
v -0.22002526 -0.04154512 -0.01199227
v -0.24833590 -0.96130788 -0.10583099
v -0.26905864 0.31051230 0.29956296
v -0.28436348 0.82424778 -0.29405391
v -0.19654448 0.94604391 0.18109849
v -0.24177878 0.92835665 -0.04151652
v -0.18877552 0.94352961 -0.19164807
v -0.20471823 -0.49783617 -0.12298878
v -0.20435636 -0.22124483 -0.19875164
v -0.22180304 0.08298883 -0.01068095
v -0.22959378 0.13995984 0.10876724
v -0.20736828 0.12443060 0.21129170
v -0.21998554 -0.04083040 -0.01205806
v -0.21998551 -0.03717024 -0.01198903
v -0.21216655 0.13876839 0.09343796
v -0.23266259 0.12938826 0.00604158
v -0.21045290 0.13495424 0.09979132
v -0.13348231 0.02103040 -0.17202784
v -0.21210554 0.13883960 0.10912195
v -0.21215555 0.13883960 0.10521195
v -0.23093046 0.22328664 0.29499477
v -0.21559116 -0.04037154 -0.02025551
v -0.03644583 -0.75470728 -0.09915089
v -0.24737243 0.28672642 0.29123798
v -0.22821112 0.33907947 -0.29609215
v -0.24197818 0.50237066 0.33468902
v -0.27017918 0.65278322 0.23455741
v -0.26506338 0.95656931 -0.10127397
v -0.18873554 0.94352961 -0.18774806
v -0.21771601 -0.57243818 -0.07765718
v -0.11863089 -0.58852535 -0.13414253
v -0.20011738 -0.34282681 -0.05796281
v -0.02572358 -0.96936578 -0.10217866
v -0.17213283 0.07894249 -0.12224609
v -0.21205553 0.13883960 0.11303194
v -0.15065432 -0.01978900 -0.14482634
v -0.15489279 -0.89341599 -0.14268653
v -0.21216553 0.13883960 0.10373194
v -0.21216553 0.13884960 0.10521195
v -0.21205905 0.13888411 0.11824231
v -0.21216553 0.13888960 0.11303194
v -0.21216553 0.13886960 0.10912195
v -0.21216553 0.13890959 0.11693194
v -0.13393900 0.00039324 -0.17203359
v -0.25044546 0.18719827 -0.09652609
v -0.12646861 0.48296779 0.31453568
v -0.15882558 0.65650010 0.26368818
v -0.08283930 0.81039882 -0.32791349
v -0.18961981 0.91839564 -0.29897434
v -0.19904965 0.90407068 0.02263052
v -0.19168019 0.90822911 0.13870589
v -0.18877484 0.94359463 -0.19637616
v -0.18873554 0.94353962 -0.18774806
v -0.18873554 0.94352961 -0.18693806
v -0.18873554 0.94356960 -0.19164807
v -0.18484814 0.94424719 -0.18992060
v -0.18873554 0.94359964 -0.19555806
v -0.18938009 0.94241166 -0.24914898
v -0.16503464 0.97522897 -0.12498764
v -0.02332299 -0.88396877 -0.11170141
v -0.09427942 -0.89128470 -0.07599162
v 0.01513280 -0.57246983 0.03730891
v -0.16765122 -0.64660132 -0.01779340
v -0.17492031 -0.55113345 0.00956766
v -0.09886341 -0.27955365 -0.15744744
v -0.10897292 -0.08374213 -0.11666488
v -0.02217343 -0.90836877 0.20686413
v -0.17847094 -0.27569005 -0.02001497
v -0.13404554 0.01383960 -0.17157806
v -0.13790552 0.01774960 -0.16430806
v -0.12372516 0.09612180 -0.16571924
v -0.13794614 0.01365324 -0.16430645
v -0.13797677 0.01344124 -0.16425107
v -0.16376217 0.14872080 -0.02026545
v -0.13785554 0.02165960 -0.16430806
v -0.12857468 -0.07059155 -0.17304295
v -0.13794553 0.01383960 -0.16429804
v 0.03195699 -0.63496417 0.19745135
v -0.17391956 0.77817547 -0.34363034
v -0.13424700 0.86890197 -0.28799340
v -0.16929148 0.93125665 -0.02202331
v -0.13142760 0.90089142 -0.11775576
v -0.13866338 0.94838601 0.25186220
v -0.07180774 -0.57237530 -0.05345938
v -0.05181050 -0.40395346 0.10282713
v -0.19305588 -0.08751140 0.01772358
v -0.13794553 0.01774960 -0.16421805
v -0.14129652 0.02426532 -0.15783465
v -0.12988780 0.04636554 -0.17291269
v -0.04467965 0.28614160 0.33190459
v -0.30255967 0.84097856 0.27694273
v -0.07985054 0.64818507 0.28366971
v -0.14913219 0.45783001 -0.31925875
v -0.10205537 0.94088817 -0.19442268
v -0.03205243 0.94334912 0.16231064
v -0.06425075 0.94686121 0.12319798
v -0.13596916 0.93191987 0.07623289
v -0.02616639 -0.92530531 0.25931546
v -0.02941092 -0.97939360 0.25713387
v -0.25718445 0.20778817 -0.17480558
v -0.17119437 -0.15648139 -0.01014258
v -0.13421284 0.15677641 -0.06759977
v -0.22033396 0.56524867 -0.31450304
v -0.20215820 0.60850841 0.27954239
v -0.09758119 0.76025820 0.29584840
v -0.08372143 0.90479571 -0.03697956
v -0.08831514 0.90743595 -0.24994698
v -0.08569095 0.94652271 -0.00773859
v -0.10303304 0.90006304 0.13310385
v -0.07271213 0.93843663 0.18263309
v 0.04235051 -0.98192984 0.27615911
v -0.15460648 0.96447271 -0.21340752
v -0.08072183 -0.75296116 -0.16520429
v 0.01230469 -0.97075367 0.05652014
v -0.05705717 -0.88210535 -0.18263309
v -0.02076551 -0.97443014 0.26146275
v -0.01685554 -0.97443038 0.26246196
v -0.04049716 -0.41304040 -0.04324789
v -0.08084992 -0.16318382 -0.13848932
v -0.08332082 0.20849682 0.30821881
v -0.03638554 0.15067960 -0.07445806
v -0.08797627 0.83038491 0.30975771
v -0.06599747 0.86786658 0.27074033
v -0.06912946 0.65061069 0.31887156
v -0.01562595 0.66608566 0.31092432
v 0.01176148 0.96898603 -0.07977670
v -0.03891761 0.89084202 0.14579816
v 0.00165394 0.91242081 -0.14593112
v 0.00966777 0.90381378 -0.01572875
v -0.11069166 0.95811850 0.03982526
v 0.06826616 0.39284113 -0.31655696
v 0.04091101 -0.88189447 0.05430839
v 0.03349413 0.27160218 0.30965933
v -0.00600977 -0.90210956 0.11361605
v 0.05344446 -0.93537039 0.06617194
v 0.05344446 -0.93927038 0.06617194
v 0.05337446 -0.93927038 0.06615194
v 0.05336446 -0.93537039 0.06615194
v 0.00002012 -0.97977996 0.11206822
v 0.04985009 -0.97996593 0.06569892
v -0.08418627 -0.97311765 -0.16624348
v 0.05344446 -0.73615038 0.17249194
v 0.03528089 -0.57834888 0.05761713
v -0.05112584 -0.54234910 0.13548064
v -0.03262710 0.15170316 -0.07838931
v -0.01691786 0.13613845 0.25307214
v -0.03943106 0.15212294 -0.07833915
v 0.01138981 0.14676109 -0.09867582
v -0.03642067 0.15058859 -0.07439817
v -0.03248554 0.15056960 -0.07445806
v -0.03222554 0.15055960 -0.07445806
v -0.03248554 0.14665960 -0.07443805
v -0.03248554 0.15055960 -0.07445806
v -0.05703237 0.56912524 0.31323352
v -0.12109059 0.40993318 -0.31552523
v -0.04777483 0.90729290 -0.09981090
v -0.08698737 0.90496409 0.08761923
v -0.02347271 0.91922206 0.27185979
v -0.00735862 0.97429991 0.21196283
v 0.05335446 -0.93146038 0.06615194
v 0.04639796 -0.96157402 0.06434837
v 0.05341446 -0.95490038 0.06615194
v 0.08860446 -0.72130036 0.12865195
v 0.05723446 -0.74005038 0.16771194
v 0.05735446 -0.74005038 0.16757195
v 0.05726446 -0.73615038 0.16771194
v 0.05735446 -0.73615038 0.16760194
v 0.05343446 -0.96271038 0.06615194
v 0.05342446 -0.95880038 0.06615194
v 0.05344446 -0.95880038 0.06616194
v 0.05735446 -0.94708037 0.06716194
v 0.05344446 -0.95099038 0.06616194
v 0.05344446 -0.94708037 0.06616194
v 0.08557810 -0.75854897 0.13212287
v 0.01977658 -0.53455979 0.20119779
v 0.02985638 -0.41538951 -0.00025324
v 0.03686548 -0.27836302 0.12789929
v 0.10314703 -0.39342651 0.22014268
v 0.05344446 -0.94318038 0.06617194
v -0.09725273 0.09759778 -0.05793389
v 0.03110759 0.20092991 0.30606651
v -0.20891669 0.74257946 -0.31413266
v -0.03917173 0.82749450 0.32746768
v 0.02040331 0.97828639 0.05668822
v 0.05338446 -0.94318038 0.06615194
v 0.07495496 0.95367873 -0.22505601
v -0.00629499 0.93483645 -0.11925951
v -0.04306640 0.96566224 0.04570077
v -0.02854802 -0.63857728 0.14164194
v 0.05339446 -0.94708037 0.06615194
v 0.04378600 -0.65400535 0.05406632
v 0.05334446 -0.92755038 0.06615194
v 0.03887879 -0.94612217 0.06244002
v 0.05344446 -0.92365038 0.06618195
v 0.05344446 -0.92755038 0.06618195
v 0.06910113 -0.83107227 0.15210500
v 0.05440740 -0.92134833 0.06645234
v 0.01047965 -0.76260465 0.09350206
v 0.04954446 -0.72833037 0.17744194
v 0.05344446 -0.72052038 0.17262194
v 0.08852446 -0.73224038 0.12865195
v 0.05344446 -0.93146038 0.06617194
v 0.07913575 -0.70169967 0.14069344
v 0.06126446 -0.96271038 0.06815195
v 0.05730197 -0.74354357 0.16760916
v 0.10956700 -0.77505136 0.09866616
v 0.05734923 -0.72442961 0.16771261
v 0.05734446 -0.72443038 0.16771194
v 0.09398179 -0.83148813 0.12098171
v 0.07296152 -0.73702043 0.14807184
v 0.05731446 -0.72833037 0.16771194
v 0.11444940 -0.41411793 0.06208279
v 0.10424308 -0.89946496 0.10252377
v 0.05344271 -0.96277231 0.06615189
v -0.00426118 -0.15035261 0.09925704
v 0.08469446 -0.83380038 0.13257194
v 0.08469446 -0.82990038 0.13260195
v 0.04906890 -0.16177575 0.13059773
v 0.04638960 -0.75634336 0.17972156
v 0.19158681 0.29301471 -0.28089902
v -0.04493980 0.24179651 -0.21956025
v -0.00607954 0.53120488 0.32060704
v 0.06751476 0.66697651 0.31514323
v 0.10730423 0.62665981 0.31486741
v 0.10987319 0.44137985 -0.32297128
v -0.03209963 0.74477828 0.32162422
v 0.05557042 0.89942455 -0.27219477
v 0.08014145 0.91635871 -0.18250133
v 0.05340446 -0.95099038 0.06615194
v 0.05344446 -0.95490038 0.06616194
v 0.14447482 0.88505143 -0.25371063
v 0.01614804 0.96318197 -0.18502675
v 0.07933746 0.97427231 0.21400920
v 0.05735446 -0.72833037 0.16767193
v 0.04896718 -0.90924197 0.25667402
v 0.06591894 -0.90166849 0.17226516
v 0.08476446 -0.82599038 0.13256194
v 0.08470446 -0.83380038 0.13256194
v 0.07204289 -0.71790814 0.14939114
v 0.07297446 -0.73224038 0.14810196
v 0.07297446 -0.72833037 0.14813194
v 0.07293446 -0.72833037 0.14818195
v 0.08470653 -0.82467204 0.13263734
v 0.08469446 -0.83533037 0.13256194
v 0.09782616 -0.74824524 0.11688941
v 0.07297446 -0.72443038 0.14816195
v 0.07297446 -0.72235036 0.14818195
v 0.05245979 -0.84372449 0.17197903
v 0.08473407 -0.82916379 0.13256797
v 0.05729446 -0.73224038 0.16771194
v 0.04048683 -0.77441847 0.05647261
v 0.05735446 -0.73224038 0.16764194
v 0.07290453 -0.73389775 0.14817822
v 0.08860388 -0.72064787 0.12865606
v 0.07222821 -0.73909956 0.14898254
v 0.08430721 -0.72065288 0.13402694
v 0.07296446 -0.72443038 0.14818195
v 0.03605355 -0.28455031 0.15158071
v 0.09304118 -0.98123854 0.07831822
v -0.03216363 -0.08311903 -0.11793599
v 0.13914368 -0.28775519 0.03890708
v 0.11908920 -0.28755099 0.01395932
v -0.08521599 0.09992974 0.05927670
v 0.10135871 -0.09062703 0.03779478
v 0.06325089 -0.08887095 0.15268891
v 0.11775956 -0.15414490 0.10597613
v 0.10352299 0.05928321 0.13974091
v 0.02908419 0.11146786 0.20755726
v 0.18592089 0.20205702 0.28888240
v 0.12962174 -0.51266891 0.18704681
v -0.09168123 0.26641038 -0.25980750
v 0.11554777 0.87937999 0.00515042
v 0.08600543 0.92340648 0.27781332
v 0.15812100 0.85032195 -0.29261664
v 0.06061123 0.89097774 0.12979200
v 0.08523067 0.74563080 0.32711610
v 0.08840751 0.83654326 0.33230710
v 0.07033421 0.94865710 0.16853069
v -0.00806673 0.93301094 -0.25080857
v 0.09115271 0.89822632 -0.12758288
v 0.06195883 0.93506038 -0.04606983
v 0.04216908 0.95598751 0.12528893
v 0.07079868 0.97476012 0.19507608
v 0.07297446 0.97477961 0.19503196
v 0.07290446 0.97087961 0.19506194
v 0.07297446 0.97868961 0.19622195
v 0.07297446 0.97491962 0.19506194
v 0.07303446 0.97477961 0.19506194
v 0.07831519 -0.73452884 0.14137740
v 0.08848586 -0.73621809 0.12867299
v 0.08842550 -0.93852931 0.07511220
v 0.09117589 -0.72033769 0.12545022
v 0.08858446 -0.72443038 0.12865195
v 0.08860446 -0.72443038 0.12862194
v 0.08860446 -0.73615038 0.12852193
v 0.15430276 -0.34876263 0.24492905
v 0.08855446 -0.72833037 0.12865195
v 0.08860446 -0.72833037 0.12859194
v 0.08860446 -0.73224038 0.12856194
v 0.22732072 -0.50354916 0.22777390
v 0.12523624 -0.16372067 0.01045236
v 0.09074817 0.09704971 -0.05890802
v 0.16297565 -0.08386314 0.02964407
v 0.12439893 -0.18243238 -0.00734713
v 0.18679024 -0.44028935 0.30669165
v 0.16312771 -0.43312046 0.14494331
v 0.06208709 0.55205709 0.31685188
v 0.07280028 0.84165752 0.30726054
v -0.05166364 0.84380698 -0.30366534
v 0.22630617 0.64616668 0.25553280
v 0.04921890 0.89169884 0.29271376
v 0.08499396 0.95350325 -0.07712252
v 0.07170612 0.94483954 -0.11874657
v 0.07672446 0.97087961 0.19896194
v 0.07296401 0.97044361 0.19506744
v 0.07298446 0.97087961 0.19506194
v 0.09251446 -0.74005038 0.12361195
v 0.10155869 -0.61372757 0.10792422
v 0.21102303 -0.21640004 0.12082478
v 0.10670751 -0.43732050 0.27676910
v 0.13391703 -0.37921742 0.21067125
v 0.07718061 0.08866934 0.17149974
v 0.10866284 -0.08894137 0.12704058
v 0.19115835 -0.14025372 0.13424689
v 0.18520132 -0.04322189 -0.01326220
v 0.13943495 0.24259162 -0.24756928
v 0.10413228 0.14197518 -0.06052659
v 0.20816502 0.31879759 -0.30606052
v 0.11343731 0.46513471 0.30684522
v 0.10942238 0.63946140 0.26833671
v 0.20450647 0.79241335 -0.35704088
v 0.12889403 0.91882622 0.04723327
v 0.17941095 0.84276903 -0.30344677
v 0.27983230 0.61307067 0.23742218
v 0.04802654 0.91247332 0.02221240
v 0.12194895 0.89540040 0.14822596
v 0.09820312 0.92292958 0.19412860
v 0.10712039 0.93663925 0.24241766
v 0.12523435 -0.36596397 0.04513681
v 0.16480611 -0.24783841 0.01276556
v 0.11015980 0.11563244 -0.01885077
v 0.13590516 -0.08482561 -0.02780111
v 0.16406810 -0.41396746 0.28876659
v 0.18294322 0.43779644 -0.31701142
v 0.16953520 0.47605976 0.31868744
v 0.14448361 0.60490251 0.26644906
v 0.20050290 0.73068655 -0.32769904
v 0.26795292 0.27927750 0.29421106
v 0.16582131 0.81305820 0.32119769
v 0.10958340 0.91027075 0.33148038
v 0.13737561 0.89103884 -0.11638699
v 0.09090798 0.90649503 0.09025803
v 0.13026847 0.94900328 0.08224622
v 0.19720496 0.93625849 0.24948992
v 0.14807384 0.93656296 0.30238268
v 0.13481615 -0.23450486 0.09507394
v 0.15248770 0.06277120 0.15123089
v 0.11741769 0.15501584 -0.12235050
v 0.15993711 0.10655057 -0.01223411
v 0.18385185 0.07130751 0.04974320
v 0.24485447 0.11149960 0.06171195
v 0.16385202 0.07985274 0.02951241
v 0.24857098 0.13495785 0.10861833
v 0.19646059 0.12878621 0.26352310
v 0.26833892 0.12860370 0.21815772
v 0.24088827 0.11029772 0.06086263
v 0.25526112 0.15625778 -0.04677548
v 0.24485447 0.11148960 0.06225194
v 0.07493986 0.32016560 -0.30133614
v 0.17341754 0.10748045 0.20367685
v 0.24495447 0.11149960 0.07006194
v 0.24624863 0.11541023 0.07644253
v 0.19383273 0.48600179 -0.32018256
v 0.11339667 0.55485159 0.30632940
v 0.17298627 0.91113859 -0.18945040
v 0.00261725 0.74878591 -0.35301372
v 0.14350304 0.74070072 0.29828462
v 0.24395148 0.54377961 0.29310796
v 0.19798800 0.86700255 0.34791633
v 0.17295614 0.91737938 -0.26558912
v 0.18103889 0.93827283 -0.08246417
v 0.24328779 0.91999173 -0.14376652
v 0.18698549 0.96522385 0.09309178
v 0.24461930 -0.39691651 0.16438326
v 0.24784110 0.13060348 -0.00270040
v 0.21851097 0.17426650 -0.18134277
v 0.21090019 -0.35931212 0.23638037
v 0.24606308 0.11540793 0.06607881
v 0.24827439 0.13436061 0.08562632
v 0.24499685 0.11063494 0.14538114
v 0.24485447 0.11143960 0.06615194
v 0.22182031 0.15486205 -0.07929473
v 0.24486445 0.11149960 0.06225194
v 0.24490446 0.11149960 0.06615194
v 0.25022057 0.51166314 0.29132491
v 0.31598645 0.18903412 -0.16602981
v 0.25919390 0.86596990 -0.01885261
v 0.21252331 0.90414751 0.13253810
v 0.22152358 0.82277250 0.29380006
v 0.23925060 0.88567191 0.04407595
v 0.21150529 0.91110939 0.31432891
v 0.14250457 0.91500521 -0.12783614
v 0.23841844 0.91795772 -0.26451722
v 0.24168780 -0.23412357 0.03711073
v 0.20589802 0.20149069 -0.20011587
v 0.24490479 0.11140760 0.07107819
v 0.30525926 0.31665447 -0.27425861
v 0.35483369 0.17126320 -0.13909620
v 0.38081899 0.20010045 -0.02815568
v 0.37958291 0.23619007 -0.20564808
v 0.32306227 0.45443723 0.25883818
v 0.25094834 0.66682750 -0.31714037
v 0.25962746 0.16765459 0.26892030
v 0.26087618 0.46100128 0.31448993
v 0.32673764 0.73016000 -0.31176549
v 0.23779473 0.71039164 0.25121880
v 0.37766108 0.20134361 -0.03943007
v 0.28095260 0.63572532 0.21470885
v 0.21683508 0.91073400 -0.02388049
v 0.22696590 0.91396475 0.06354811
v 0.34568176 0.24943238 -0.24189973
v 0.23653802 0.93837714 -0.19973414
v 0.34027562 0.82095844 0.27860644
v 0.32897046 0.17622787 0.23267104
v 0.31974474 0.26151237 0.26979619
v 0.35798422 0.17901674 0.16943206
v 0.33003131 0.21720555 -0.22536457
v 0.25067520 0.52773005 -0.30451462
v 0.36058566 0.73072642 0.28692842
v 0.26692408 0.51812583 -0.28151521
v 0.25434256 0.87526888 -0.17609920
v 0.31734788 0.61613232 0.19111842
v 0.23692156 0.73365653 0.28580678
v 0.19168881 0.79812461 -0.33401272
v 0.23024222 0.89807296 0.20499296
v 0.26164052 0.91649407 -0.22008330
v 0.26280433 0.90996218 0.03488965
v 0.26790991 0.91011775 -0.12859748
v 0.42833444 0.24821959 -0.01977806
v 0.42844445 0.24830960 -0.02367805
v 0.42844445 0.24832959 -0.01977806
v 0.42835444 0.24821959 -0.02367805
v 0.37769458 0.20134270 -0.03926004
v 0.27420980 0.87587357 -0.26788986
v 0.32173303 0.90764588 -0.05515477
v 0.25186032 0.92201048 -0.06589665
v 0.29166785 0.90394104 0.14397439
v 0.24934384 0.13519496 0.11591893
v 0.32787931 0.15815192 0.13706602
v 0.40164182 0.22087938 -0.00083519
v 0.40501446 0.22477961 -0.01586805
v 0.34268340 0.23398730 0.23763977
v 0.34171516 0.38551873 0.26244891
v 0.29477030 0.45062530 0.27849233
v 0.36058190 0.34839380 -0.26086417
v 0.24473850 0.41190311 -0.29253393
v 0.32496631 0.77702296 -0.30605623
v 0.29332572 0.85500431 0.26083037
v 0.28994665 0.86998147 0.21807314
v 0.33746615 0.86556566 -0.14471611
v 0.31676358 0.87260735 -0.07791200
v 0.39854744 0.20199148 -0.05572493
v 0.37626457 0.18073966 0.12692624
v 0.40101784 0.22458600 -0.06491889
v 0.40103444 0.22477961 -0.05102805
v 0.40110445 0.22483960 -0.04711806
v 0.42840558 0.24826977 -0.02709689
v 0.40105444 0.22477961 -0.05492806
v 0.40110445 0.22479960 -0.05883805
v 0.40110445 0.22482960 -0.05492806
v 0.40108222 0.22478677 -0.05895314
v 0.40097973 0.21809776 -0.08639032
v 0.40499374 0.22478130 -0.01601477
v 0.29611900 0.14205311 0.02926097
v 0.37757444 0.20133960 -0.03539805
v 0.36071941 0.61426598 0.16315690
v 0.31582612 0.57214379 0.24764477
v 0.33024481 0.63535273 0.23180808
v 0.31696203 0.52962083 -0.28929928
v 0.36475685 0.70816255 0.25517815
v 0.45969445 0.44743958 -0.10965806
v 0.39574158 0.74156731 -0.28219837
v 0.39764011 0.63696122 -0.27653366
v 0.32086003 0.89271450 -0.18670945
v 0.28332531 0.89812601 0.08730458
v 0.34600571 0.88000411 0.02057731
v 0.37766457 0.20129925 -0.04708707
v 0.37462696 0.19747572 -0.03042153
v 0.37753320 0.20137596 -0.02961723
v 0.37766445 0.20138960 -0.03149806
v 0.37766445 0.20136960 -0.03539805
v 0.42844445 0.24834959 -0.01586805
v 0.34699789 0.15433396 0.02924439
v 0.37766445 0.20134960 -0.03930806
v 0.42509183 0.22398327 -0.07767048
v 0.38142046 0.20195153 0.12267899
v 0.44115636 0.24995767 0.14969744
v 0.37796479 0.19909175 -0.06969656
v 0.43173528 0.24690346 -0.03490075
v 0.37761086 0.20144139 0.12046148
v 0.37764445 0.20133960 0.12475194
v 0.38973272 0.25251004 0.22338714
v 0.42806727 0.24716011 -0.01815595
v 0.35615325 0.17782618 0.03891263
v 0.40167445 0.22473970 -0.06342657
v 0.40110445 0.22484960 -0.05102805
v 0.41354087 0.23142493 -0.16186452
v 0.37841970 0.20077091 0.11011713
v 0.41036540 0.49841961 -0.24258344
v 0.40127075 0.22403689 -0.04093812
v 0.42216796 0.50550890 0.22270311
v 0.36693445 0.50168031 -0.27855369
v 0.37838036 0.30259752 0.23759310
v 0.40485445 0.22477961 -0.01195806
v 0.40501446 0.22480960 -0.01195806
v 0.38771164 0.45565543 0.23977299
v 0.41736779 0.82894295 -0.31400317
v 0.42844146 0.24829686 -0.02586969
v 0.37216303 0.89754480 0.19801129
v 0.38173893 0.88129312 0.13959706
v 0.37766445 0.20133960 0.12575196
v 0.42878157 0.24811390 0.00125585
v 0.37766445 0.20136960 0.12475194
v 0.42433611 0.22414333 -0.00336629
v 0.40500197 0.22472018 -0.02758551
v 0.40485886 0.22481802 -0.00895333
v 0.40225905 0.25275841 0.17832674
v 0.40510410 0.22477940 -0.01598340
v 0.45744357 0.28589338 -0.02987432
v 0.40086743 0.20806789 0.14464837
v 0.37766445 0.20144960 0.12084195
v 0.42929319 0.23949529 -0.05253671
v 0.40446439 0.22529308 0.10939414
v 0.46761939 0.45270190 -0.00973594
v 0.39142427 0.54494035 0.22025958
v 0.40292823 0.39460504 -0.20829892
v 0.39965236 0.57456249 0.16198100
v 0.43380070 0.71808404 0.23612718
v 0.43892756 0.77200508 -0.27844727
v 0.40955243 0.81221730 0.22836071
v 0.38624209 0.90765256 -0.24218833
v 0.46698955 0.72629148 0.23062351
v 0.41096157 0.88122422 -0.28421554
v 0.35578865 0.93932706 -0.03826337
v 0.39728668 0.87052208 0.02171307
v 0.44802743 0.66870731 0.17833985
v 0.45969266 0.43962669 -0.10961575
v 0.48285457 0.54550433 -0.14630090
v 0.45064464 0.24723402 -0.05653962
v 0.45497191 0.29855055 -0.10745481
v 0.45328686 0.45329550 -0.19677176
v 0.43274644 0.30254352 -0.08596081
v 0.52612692 0.35860774 0.03816384
v 0.49060640 0.46972811 -0.13326485
v 0.44006059 0.47111103 -0.13013488
v 0.44016445 0.47087961 -0.11938805
v 0.44013447 0.47087961 -0.12133806
v 0.44016445 0.47092962 -0.12133806
v 0.44398829 0.47203067 -0.12404132
v 0.44445530 0.64250451 0.21723942
v 0.42354903 0.51689839 0.17931834
v 0.44006446 0.47087961 -0.12524806
v 0.46632522 0.56205481 0.08275350
v 0.45171279 0.61788702 0.14467295
v 0.44016445 0.47102958 -0.12524806
v 0.39180782 0.88476861 -0.17160699
v 0.45969445 0.43962961 -0.10961806
v 0.45975447 0.44352958 -0.10961806
v 0.45969445 0.44352958 -0.10963805
v 0.37212875 0.79953653 0.25672075
v 0.42856020 0.81995142 0.17244703
v 0.49635339 0.59194672 -0.14461271
v 0.41073129 0.84100354 -0.27886707
v 0.43190676 0.85545778 0.07233883
v 0.45606494 0.31381953 0.03525341
v 0.43024239 0.86065888 -0.12758510
v 0.51430446 0.82633960 -0.03930806
v 0.51432443 0.82633960 -0.03539805
v 0.39992896 0.88900352 -0.07226896
v 0.46162984 0.46994796 -0.11633515
v 0.53631169 0.44156277 0.04450304
v 0.55312037 0.30774662 -0.00827390
v 0.43926266 0.44686279 0.16944329
v 0.46348447 0.43962961 -0.10570806
v 0.43956107 0.46294725 -0.10951330
v 0.45906696 0.39102799 -0.10861231
v 0.44016445 0.47112960 -0.12914807
v 0.46475476 0.45447585 0.09993158
v 0.46312049 0.45653629 -0.10917592
v 0.48072398 0.62001222 -0.19027095
v 0.44972929 0.50346333 0.10061148
v 0.46093479 0.51667273 -0.00874746
v 0.46590558 0.44868463 0.04188779
v 0.43422103 0.53972864 0.08563349
v 0.48953101 0.57312298 -0.05526982
v 0.49234602 0.52409065 -0.07133457
v 0.45649040 0.74411398 -0.22610901
v 0.52146304 0.60228693 0.04606051
v 0.45800996 0.78923392 0.24062034
v 0.44037664 0.87623155 0.13390429
v 0.50074530 0.86512434 0.13497859
v 0.50857872 0.79526609 -0.22621240
v 0.46067494 0.62276977 0.10453840
v 0.51446509 0.61981475 0.12055789
v 0.52409083 0.82421303 -0.01864643
v 0.53707212 0.71500927 0.05728243
v 0.48736122 0.72131604 0.16798787
v 0.47827694 0.72639334 -0.20440361
v 0.51530606 0.71663725 -0.13632637
v 0.48044589 0.81287456 0.18783191
v 0.48375124 0.83679825 -0.24539225
v 0.51830286 0.81673688 -0.12856327
v 0.51427448 0.82633960 -0.04320805
v 0.51438445 0.82626963 -0.03930806
v 0.52348709 0.81568789 0.09287269
v 0.48842680 0.86452019 -0.13688815
v 0.52301252 0.56586349 -0.10063223
v 0.56191480 0.42803070 -0.00897626
v 0.54893422 0.31336492 0.04796855
v 0.53303164 0.71547616 0.12239882
v 0.51323968 0.84229159 -0.05068581
v 0.48806253 0.81228602 -0.13824636
v 0.51421750 0.82634026 -0.05275704
v 0.51438445 0.82632959 -0.02758806
v 0.51438445 0.82633960 -0.02496806
v 0.51438439 0.82616645 -0.05946556
v 0.51434445 0.82633960 -0.03149806
v 0.51438445 0.82630962 -0.03149806
v 0.51438445 0.82628959 -0.03539805
v 0.50619459 0.82574248 0.05412162
v 0.53062040 0.77914679 0.15755236
v 0.51437443 0.82633960 -0.02758806
v 0.55994803 0.74982601 -0.13780482
v 0.55788493 0.77821481 0.04422056
v 0.49672598 0.86391270 0.09262420
v 0.53258312 0.71593857 -0.03364790
v 0.53282064 0.77971882 -0.13498427
v 0.56812614 0.71891087 0.09154902
v 0.51139903 0.72444069 -0.19252436
v 0.57063478 0.78813422 0.09845708
v 0.58481216 0.80006993 0.06301286
f 5 1 20
f 8 20 1
f 7 1 5
f 1 10 8
f 8 10 20
f 30 27 34
f 15 18 7
f 7 10 1
f 7 17 15
f 5 12 7
f 12 5 20
f 10 12 20
f 6 12 2
f 6 9 24
f 9 23 24
f 11 9 6
f 9 14 23
f 14 9 11
f 2 11 6
f 6 24 12
f 2 26 25
f 2 38 26
f 25 26 27
f 30 16 29
f 30 34 16
f 34 27 26
f 55 30 29
f 16 34 31
f 10 7 18
f 7 12 17
f 19 32 3
f 3 17 19
f 28 10 18
f 32 19 22
f 19 17 12
f 22 19 21
f 11 22 21
f 14 21 23
f 14 11 21
f 21 24 23
f 12 21 19
f 12 24 21
f 60 2 12
f 12 10 47
f 10 28 47
f 47 60 12
f 25 22 11
f 11 2 25
f 60 38 2
f 38 60 33
f 51 32 52
f 32 25 52
f 26 38 35
f 27 52 25
f 26 35 34
f 52 27 30
f 64 52 30
f 64 30 55
f 36 29 16
f 36 16 56
f 56 16 31
f 17 40 15
f 4 13 15
f 18 15 13
f 18 13 28
f 15 40 4
f 3 51 48
f 40 17 3
f 25 32 22
f 49 47 28
f 60 47 50
f 35 38 33
f 35 33 53
f 63 31 34
f 54 52 64
f 39 55 29
f 74 58 41
f 4 40 45
f 4 45 41
f 4 41 58
f 13 4 58
f 57 28 13
f 28 57 43
f 45 40 48
f 40 3 48
f 32 51 3
f 28 43 49
f 43 67 49
f 47 49 50
f 59 33 60
f 60 50 59
f 61 48 51
f 69 61 52
f 61 51 52
f 49 67 66
f 35 70 63
f 53 62 35
f 54 69 52
f 63 34 35
f 54 64 37
f 55 39 64
f 37 64 39
f 36 39 29
f 83 39 36
f 56 31 63
f 13 58 57
f 57 58 65
f 57 65 42
f 43 57 42
f 67 43 42
f 50 49 66
f 59 50 66
f 48 69 90
f 61 69 48
f 53 33 131
f 53 131 80
f 53 80 62
f 83 36 56
f 70 35 62
f 45 149 41
f 58 74 65
f 41 149 74
f 89 45 48
f 89 48 68
f 68 48 90
f 67 77 66
f 131 33 59
f 69 54 108
f 62 80 195
f 54 37 96
f 110 132 83
f 63 70 93
f 37 39 83
f 46 73 44
f 86 44 97
f 73 87 44
f 98 44 87
f 44 86 46
f 74 75 65
f 42 65 76
f 42 107 78
f 42 78 67
f 77 67 78
f 79 69 108
f 108 54 71
f 71 54 96
f 92 70 62
f 81 70 92
f 37 83 96
f 86 88 84
f 46 86 84
f 44 98 97
f 86 97 88
f 103 101 104
f 120 74 178
f 101 105 100
f 120 75 74
f 74 149 178
f 45 204 149
f 42 76 128
f 42 128 107
f 78 107 224
f 207 68 90
f 59 66 77
f 207 90 79
f 69 79 90
f 79 108 286
f 195 80 209
f 154 63 93
f 56 63 154
f 83 56 185
f 56 154 185
f 81 92 93
f 83 132 96
f 93 70 81
f 156 94 111
f 84 88 112
f 112 73 84
f 73 112 87
f 112 88 87
f 73 46 84
f 97 98 102
f 190 114 101
f 100 190 101
f 103 118 117
f 100 105 126
f 115 144 116
f 75 115 116
f 124 121 123
f 75 120 115
f 120 119 115
f 76 65 75
f 325 204 45
f 128 125 107
f 129 89 68
f 77 78 208
f 130 208 78
f 208 130 150
f 77 131 59
f 207 79 286
f 92 62 91
f 195 91 62
f 153 108 71
f 71 96 153
f 96 95 153
f 111 94 133
f 110 83 185
f 155 93 92
f 132 163 96
f 88 97 113
f 99 88 113
f 98 99 102
f 99 98 87
f 88 99 87
f 99 113 140
f 105 117 126
f 118 103 104
f 123 121 139
f 101 114 104
f 101 103 105
f 105 103 117
f 100 114 102
f 126 117 118
f 114 100 126
f 104 114 126
f 104 126 118
f 115 142 143
f 138 97 114
f 115 143 146
f 116 121 120
f 139 121 144
f 121 116 144
f 147 139 144
f 139 147 145
f 119 120 121
f 115 119 142
f 115 146 145
f 146 124 123
f 143 124 146
f 145 147 115
f 115 147 144
f 145 123 139
f 123 145 146
f 119 121 142
f 128 76 125
f 89 375 45
f 325 45 375
f 129 68 197
f 68 207 197
f 131 151 80
f 286 108 183
f 91 109 92
f 93 155 154
f 162 94 156
f 155 92 109
f 157 158 160
f 158 157 133
f 133 157 159
f 156 161 160
f 158 95 160
f 163 95 96
f 137 82 106
f 106 82 141
f 168 136 134
f 72 134 136
f 140 113 97
f 136 172 169
f 99 140 100
f 99 100 102
f 114 97 102
f 140 97 138
f 173 176 174
f 122 173 174
f 124 142 121
f 176 148 177
f 75 116 372
f 107 125 224
f 174 176 181
f 130 78 150
f 131 77 151
f 151 77 208
f 80 151 209
f 152 183 108
f 153 95 211
f 159 157 160
f 211 95 162
f 154 201 234
f 109 91 187
f 159 161 111
f 158 133 94
f 162 156 160
f 161 156 111
f 161 159 160
f 216 162 95
f 162 160 95
f 111 133 159
f 94 162 95
f 94 95 158
f 154 234 185
f 245 106 141
f 137 106 245
f 167 188 168
f 168 134 167
f 136 168 85
f 170 100 180
f 100 205 190
f 170 205 100
f 122 193 148
f 122 174 179
f 100 140 180
f 180 148 193
f 176 177 181
f 140 177 148
f 122 148 173
f 122 175 193
f 148 176 173
f 175 122 192
f 122 179 192
f 284 114 367
f 175 138 114
f 138 175 140
f 206 284 178
f 124 143 142
f 367 116 120
f 250 75 372
f 178 149 206
f 165 82 137
f 187 91 227
f 153 152 108
f 91 195 209
f 153 184 152
f 154 155 213
f 132 110 186
f 153 211 184
f 163 132 186
f 261 201 154
f 214 109 187
f 162 216 211
f 216 95 198
f 95 186 198
f 186 95 163
f 185 210 186
f 186 110 185
f 212 185 234
f 213 155 109
f 82 165 141
f 134 217 141
f 167 165 127
f 141 165 134
f 167 134 165
f 222 85 188
f 85 168 188
f 223 172 205
f 191 179 174
f 191 174 181
f 192 179 191
f 191 177 192
f 192 177 140
f 148 180 140
f 191 181 177
f 175 192 140
f 367 114 426
f 284 175 114
f 367 120 178
f 178 284 367
f 250 76 75
f 206 149 252
f 129 197 259
f 208 150 258
f 196 208 258
f 151 208 196
f 151 196 209
f 226 91 209
f 154 213 261
f 216 198 211
f 210 185 212
f 213 109 214
f 91 226 227
f 219 245 141
f 127 188 167
f 134 135 217
f 217 135 188
f 135 72 188
f 134 72 135
f 169 72 136
f 136 85 172
f 222 189 85
f 223 205 170
f 223 170 364
f 426 114 190
f 509 204 325
f 196 258 228
f 196 330 209
f 413 152 184
f 197 207 286
f 198 186 232
f 211 198 232
f 232 186 260
f 186 210 260
f 234 261 210
f 201 261 234
f 213 200 261
f 234 210 212
f 239 240 241
f 242 239 241
f 202 221 215
f 164 165 137
f 141 217 219
f 164 219 217
f 165 164 127
f 127 164 217
f 127 217 188
f 188 72 222
f 203 215 221
f 189 362 85
f 366 169 223
f 180 364 170
f 180 193 364
f 251 206 252
f 254 249 255
f 254 251 249
f 256 253 257
f 175 284 406
f 284 253 256
f 253 251 225
f 225 251 254
f 206 253 284
f 257 225 254
f 253 225 257
f 206 251 253
f 256 257 255
f 125 285 224
f 237 224 194
f 89 129 324
f 224 237 78
f 196 228 330
f 286 183 152
f 480 286 152
f 330 226 209
f 226 330 287
f 413 538 152
f 211 331 184
f 261 292 210
f 213 214 231
f 211 232 383
f 232 336 383
f 230 291 260
f 210 292 233
f 214 199 231
f 262 187 227
f 214 187 262
f 200 292 261
f 220 203 221
f 203 220 202
f 220 221 202
f 164 137 219
f 245 219 137
f 358 360 267
f 171 203 202
f 268 269 270
f 269 271 270
f 272 273 274
f 273 272 265
f 275 276 277
f 247 293 248
f 293 182 248
f 189 222 280
f 189 280 248
f 172 223 169
f 72 169 366
f 257 254 255
f 426 190 369
f 275 283 240
f 175 364 193
f 251 252 249
f 284 256 252
f 249 252 255
f 284 252 406
f 252 256 255
f 375 89 324
f 129 473 324
f 258 150 326
f 228 229 330
f 380 287 330
f 287 412 226
f 415 227 226
f 286 480 451
f 211 383 331
f 197 286 451
f 260 210 233
f 415 262 227
f 232 260 291
f 214 262 199
f 240 283 289
f 241 240 289
f 288 292 386
f 263 199 262
f 292 200 386
f 203 238 243
f 215 203 243
f 218 244 243
f 265 297 294
f 203 171 238
f 340 171 339
f 296 297 298
f 299 296 298
f 238 171 340
f 293 238 182
f 289 283 294
f 297 289 294
f 182 303 304
f 306 264 299
f 269 268 246
f 323 269 246
f 293 302 238
f 315 311 304
f 311 312 304
f 312 311 315
f 248 166 247
f 248 279 189
f 244 265 318
f 222 72 280
f 300 320 321
f 190 205 319
f 297 242 241
f 406 364 175
f 238 218 243
f 406 252 431
f 264 296 299
f 285 237 224
f 258 326 228
f 78 237 150
f 224 237 194
f 129 259 473
f 393 394 305
f 473 259 235
f 213 231 379
f 329 235 259
f 240 395 275
f 229 228 327
f 226 412 415
f 230 260 233
f 439 233 292
f 266 333 276
f 334 266 276
f 377 262 415
f 439 292 288
f 273 265 266
f 290 383 336
f 266 265 333
f 242 297 264
f 241 289 297
f 283 275 277
f 297 236 301
f 338 311 312
f 338 343 311
f 244 218 297
f 333 265 294
f 275 334 276
f 274 273 334
f 273 266 334
f 275 266 334
f 266 275 395
f 264 297 296
f 339 202 215
f 265 272 318
f 239 242 306
f 242 264 306
f 243 244 363
f 298 297 301
f 244 297 265
f 297 218 236
f 276 333 277
f 333 294 277
f 308 274 334
f 308 318 274
f 318 272 274
f 294 283 277
f 308 244 318
f 171 202 339
f 353 313 341
f 321 353 341
f 321 342 353
f 308 395 244
f 323 246 303
f 344 345 346
f 320 348 342
f 323 303 182
f 302 295 355
f 238 355 236
f 350 393 351
f 323 278 359
f 309 269 268
f 270 271 354
f 348 317 313
f 321 320 342
f 246 338 315
f 338 354 315
f 338 246 354
f 270 354 246
f 315 338 312
f 312 311 304
f 356 343 338
f 338 315 304
f 303 338 304
f 303 315 338
f 354 356 315
f 309 323 359
f 246 315 303
f 346 361 343
f 356 338 315
f 355 295 310
f 309 269 323
f 309 268 269
f 356 271 343
f 311 182 304
f 271 356 354
f 268 270 246
f 346 345 361
f 345 350 361
f 311 343 182
f 422 295 247
f 362 172 85
f 182 422 279
f 248 182 279
f 166 280 316
f 72 316 280
f 362 189 279
f 362 319 205
f 362 205 172
f 362 281 322
f 366 223 408
f 367 372 116
f 462 431 252
f 319 369 190
f 252 149 462
f 299 301 395
f 239 306 395
f 509 490 204
f 237 433 150
f 411 228 326
f 228 411 327
f 330 229 327
f 435 480 152
f 287 381 412
f 413 184 378
f 379 200 213
f 379 456 439
f 385 230 233
f 263 262 377
f 199 382 231
f 230 385 416
f 439 288 386
f 379 439 386
f 386 200 379
f 263 382 199
f 387 388 389
f 387 390 391
f 389 392 337
f 244 395 363
f 308 266 395
f 334 266 308
f 339 215 340
f 299 298 301
f 317 395 236
f 240 239 395
f 215 243 363
f 301 236 395
f 363 340 215
f 238 302 355
f 238 236 218
f 299 395 306
f 347 313 310
f 300 348 320
f 341 313 347
f 348 313 342
f 238 352 323
f 340 352 238
f 352 340 317
f 300 321 347
f 360 397 267
f 397 398 267
f 317 348 300
f 361 350 351
f 343 361 351
f 271 359 343
f 323 352 310
f 393 314 359
f 300 347 310
f 355 310 236
f 352 300 310
f 352 317 300
f 342 313 353
f 347 321 341
f 323 310 278
f 278 394 393
f 307 393 360
f 278 393 359
f 359 314 357
f 307 351 393
f 357 314 344
f 344 314 393
f 271 269 359
f 269 309 359
f 401 402 397
f 402 398 397
f 295 302 293
f 310 295 422
f 350 345 393
f 343 351 307
f 394 399 305
f 398 396 267
f 357 344 346
f 393 305 401
f 295 293 247
f 344 393 345
f 360 393 397
f 305 403 401
f 403 402 401
f 267 396 358
f 307 360 358
f 399 403 305
f 402 396 398
f 393 401 397
f 358 396 307
f 357 346 343
f 359 357 343
f 307 422 182
f 182 238 323
f 182 343 307
f 365 362 443
f 247 166 316
f 316 422 247
f 362 279 316
f 422 316 279
f 248 280 166
f 72 366 316
f 362 316 443
f 362 322 319
f 223 364 408
f 369 322 368
f 322 369 319
f 369 368 427
f 373 125 76
f 509 325 430
f 285 125 373
f 375 324 325
f 327 380 330
f 184 331 378
f 236 310 317
f 335 331 290
f 233 439 376
f 385 233 376
f 439 456 436
f 440 379 382
f 231 382 379
f 377 415 412
f 290 331 383
f 417 232 291
f 232 384 332
f 417 384 232
f 384 417 416
f 332 336 232
f 332 290 336
f 291 230 417
f 441 382 263
f 337 419 418
f 418 389 337
f 419 420 418
f 420 389 418
f 389 420 419
f 388 391 392
f 391 388 387
f 441 419 337
f 387 389 419
f 377 442 263
f 230 416 417
f 390 337 392
f 419 441 263
f 420 388 392
f 389 420 392
f 389 388 420
f 387 419 263
f 390 392 391
f 387 263 390
f 263 337 390
f 442 337 263
f 313 317 310
f 278 310 349
f 340 363 317
f 399 421 396
f 394 421 399
f 421 349 396
f 396 310 422
f 395 317 363
f 349 310 396
f 421 394 349
f 402 403 396
f 394 278 349
f 307 396 422
f 403 399 396
f 443 316 366
f 424 400 425
f 362 365 281
f 281 365 366
f 149 490 462
f 281 366 322
f 322 366 405
f 408 322 405
f 322 408 368
f 408 364 446
f 446 364 406
f 426 427 371
f 426 369 427
f 468 372 474
f 468 250 372
f 406 431 445
f 426 372 367
f 149 204 490
f 373 237 285
f 433 237 452
f 150 433 411
f 327 478 328
f 150 411 326
f 456 379 440
f 478 327 411
f 259 197 329
f 327 328 481
f 481 328 434
f 481 380 327
f 424 282 374
f 380 481 453
f 380 381 287
f 484 378 331
f 454 412 381
f 335 290 332
f 385 376 416
f 455 384 376
f 197 451 329
f 376 384 416
f 436 456 457
f 440 382 441
f 454 377 412
f 441 337 442
f 424 447 400
f 410 282 425
f 410 374 282
f 424 425 282
f 365 443 366
f 405 366 408
f 370 428 427
f 368 408 446
f 368 444 427
f 371 466 426
f 406 445 463
f 372 426 474
f 431 462 496
f 250 468 76
f 373 76 468
f 235 329 432
f 478 411 433
f 434 328 450
f 478 450 328
f 479 332 384
f 453 381 380
f 435 152 538
f 437 413 378
f 479 384 506
f 484 331 335
f 332 479 335
f 384 455 506
f 523 455 376
f 439 436 504
f 381 483 454
f 440 457 456
f 377 454 459
f 487 457 440
f 444 407 464
f 374 410 404
f 460 444 425
f 425 444 410
f 444 460 370
f 370 460 428
f 407 444 368
f 407 368 446
f 407 446 429
f 428 461 427
f 461 371 427
f 464 429 466
f 429 464 407
f 463 429 446
f 429 463 466
f 463 446 406
f 474 426 466
f 431 463 445
f 371 461 466
f 464 466 461
f 466 463 474
f 465 472 470
f 509 430 531
f 476 510 475
f 430 325 324
f 473 235 432
f 450 478 482
f 481 434 537
f 434 414 537
f 538 413 437
f 453 483 381
f 455 485 506
f 376 439 504
f 479 484 335
f 441 442 539
f 539 442 458
f 506 485 486
f 436 457 524
f 447 424 409
f 404 424 374
f 424 404 409
f 409 400 447
f 488 404 410
f 444 488 410
f 491 425 400
f 400 409 491
f 489 493 492
f 370 427 444
f 472 495 470
f 423 464 428
f 464 461 428
f 465 470 489
f 510 476 494
f 498 497 492
f 472 465 497
f 465 492 497
f 517 373 468
f 432 560 324
f 432 324 473
f 489 463 431
f 448 329 477
f 478 433 449
f 449 482 478
f 414 434 450
f 453 481 537
f 480 435 451
f 435 538 451
f 503 483 453
f 479 506 535
f 483 505 454
f 377 459 442
f 455 523 485
f 485 523 550
f 524 504 436
f 487 440 502
f 457 487 524
f 459 458 442
f 505 459 454
f 484 479 526
f 459 505 458
f 491 409 488
f 409 404 488
f 491 488 508
f 460 491 423
f 508 488 444
f 425 491 460
f 491 508 423
f 428 460 423
f 464 508 444
f 508 464 423
f 467 476 492
f 467 552 476
f 472 497 498
f 463 470 494
f 470 463 489
f 492 465 489
f 552 494 476
f 510 494 470
f 495 510 470
f 475 495 498
f 510 495 475
f 495 472 498
f 475 498 476
f 498 492 476
f 467 492 493
f 489 431 496
f 469 494 552
f 471 489 496
f 463 494 474
f 474 469 468
f 496 462 490
f 517 468 469
f 452 237 373
f 499 449 518
f 329 448 560
f 560 432 329
f 560 448 477
f 329 451 477
f 532 477 516
f 499 482 449
f 450 482 581
f 438 522 414
f 451 516 477
f 414 581 438
f 414 450 581
f 537 414 520
f 592 591 521
f 378 484 437
f 537 503 453
f 440 539 502
f 441 539 440
f 483 503 505
f 548 484 507
f 376 501 523
f 487 502 524
f 524 502 589
f 503 539 505
f 535 526 479
f 506 486 535
f 501 550 523
f 539 458 505
f 484 526 507
f 486 485 550
f 493 578 467
f 469 474 494
f 430 324 511
f 490 500 496
f 531 430 525
f 500 490 509
f 560 511 324
f 449 433 518
f 518 558 515
f 560 477 532
f 515 499 518
f 581 482 499
f 507 526 548
f 621 561 437
f 538 437 561
f 503 562 539
f 548 437 484
f 562 503 527
f 527 503 537
f 543 544 545
f 546 544 543
f 502 539 589
f 589 539 563
f 535 486 542
f 501 535 542
f 501 504 541
f 524 589 504
f 548 526 540
f 486 550 542
f 535 548 540
f 526 535 540
f 501 542 550
f 496 512 471
f 578 493 489
f 578 552 467
f 469 552 578
f 578 553 469
f 566 568 575
f 517 469 528
f 373 517 452
f 525 430 511
f 529 452 517
f 433 452 518
f 558 518 452
f 560 532 534
f 532 583 534
f 583 532 516
f 501 376 504
f 589 563 551
f 438 536 522
f 582 414 522
f 537 520 584
f 414 582 520
f 621 437 677
f 437 548 677
f 563 539 562
f 565 501 549
f 501 541 590
f 589 551 624
f 551 563 623
f 541 504 589
f 614 569 570
f 607 636 571
f 469 553 528
f 528 556 529
f 572 573 574
f 573 572 575
f 529 517 528
f 531 500 509
f 529 556 557
f 597 512 608
f 452 529 558
f 557 558 529
f 581 515 620
f 499 515 581
f 522 536 582
f 519 516 451
f 583 516 519
f 590 549 501
f 582 536 580
f 561 583 519
f 520 582 584
f 533 537 584
f 519 451 538
f 533 527 537
f 561 519 538
f 588 535 564
f 588 548 535
f 512 496 500
f 578 489 471
f 549 590 648
f 513 594 595
f 545 596 543
f 514 531 525
f 578 471 597
f 579 592 521
f 597 471 512
f 530 553 597
f 591 547 521
f 595 547 513
f 595 598 547
f 512 592 608
f 500 611 512
f 602 591 592
f 597 553 578
f 530 597 608
f 544 603 545
f 614 570 599
f 567 604 605
f 608 567 530
f 513 591 602
f 530 528 553
f 602 592 512
f 531 514 611
f 530 567 634
f 568 566 576
f 598 595 579
f 599 570 610
f 609 575 568
f 531 611 500
f 556 606 617
f 559 525 511
f 557 556 617
f 579 521 598
f 560 559 511
f 579 593 592
f 558 557 515
f 534 583 616
f 616 559 560
f 560 534 616
f 618 619 630
f 617 620 515
f 438 581 639
f 563 562 527
f 674 527 533
f 647 677 548
f 647 548 645
f 645 548 588
f 648 590 649
f 624 590 589
f 624 649 590
f 624 551 623
f 563 644 623
f 683 565 549
f 541 589 590
f 608 592 513
f 611 576 512
f 608 612 567
f 605 627 625
f 525 559 514
f 512 576 602
f 595 594 579
f 602 576 566
f 592 593 513
f 602 566 513
f 634 566 554
f 547 591 513
f 567 612 604
f 521 547 598
f 571 636 603
f 610 574 599
f 513 566 634
f 599 574 573
f 594 513 593
f 566 614 554
f 608 513 612
f 619 628 630
f 600 612 634
f 634 554 637
f 605 635 627
f 604 635 605
f 634 612 513
f 567 605 625
f 577 632 555
f 566 575 572
f 567 625 634
f 528 530 634
f 600 604 612
f 596 607 543
f 604 600 635
f 528 634 606
f 609 599 573
f 626 596 603
f 579 594 593
f 614 566 569
f 629 614 628
f 573 575 609
f 566 572 569
f 632 619 555
f 632 577 629
f 569 572 574
f 637 554 630
f 554 629 577
f 554 614 629
f 629 628 632
f 619 618 555
f 618 577 555
f 630 554 618
f 618 554 577
f 628 636 601
f 637 630 628
f 599 568 576
f 546 571 622
f 625 600 634
f 627 600 625
f 627 635 600
f 634 631 606
f 556 528 606
f 628 619 632
f 587 616 583
f 626 601 636
f 636 599 656
f 514 559 640
f 620 639 581
f 640 559 613
f 557 617 515
f 613 559 616
f 616 587 613
f 641 580 536
f 639 641 536
f 536 438 639
f 561 587 583
f 582 580 664
f 584 582 642
f 596 545 603
f 587 561 586
f 636 607 626
f 563 527 644
f 644 527 674
f 644 624 623
f 564 670 588
f 607 571 546
f 588 670 645
f 683 549 648
f 544 546 622
f 599 628 614
f 568 599 609
f 628 599 636
f 599 611 656
f 543 607 546
f 599 576 611
f 634 637 628
f 634 601 631
f 634 628 601
f 569 610 570
f 574 610 569
f 611 514 640
f 611 640 656
f 596 626 607
f 631 601 687
f 640 655 656
f 606 631 687
f 687 617 606
f 617 687 615
f 656 655 689
f 615 687 665
f 617 615 620
f 620 615 639
f 660 661 662
f 693 585 689
f 641 639 665
f 665 639 615
f 668 580 641
f 666 689 659
f 668 665 698
f 641 665 668
f 669 663 662
f 664 580 668
f 613 587 586
f 533 703 674
f 664 668 650
f 582 664 642
f 533 584 642
f 643 586 561
f 651 671 672
f 671 673 672
f 673 671 651
f 643 561 621
f 644 674 703
f 621 677 715
f 675 624 644
f 645 670 647
f 622 603 544
f 678 649 624
f 675 678 624
f 677 647 670
f 682 681 725
f 648 649 683
f 656 653 636
f 636 653 603
f 603 653 626
f 653 601 626
f 653 633 601
f 653 656 633
f 622 571 603
f 633 679 601
f 633 656 654
f 633 654 638
f 690 654 656
f 601 679 692
f 601 692 687
f 689 666 661
f 671 688 651
f 651 688 671
f 690 656 689
f 659 663 691
f 672 585 693
f 672 673 585
f 689 661 660
f 654 690 638
f 690 651 688
f 651 690 689
f 651 672 693
f 690 688 638
f 689 684 659
f 655 684 689
f 655 640 613
f 651 689 673
f 663 669 691
f 585 673 689
f 663 659 684
f 688 693 638
f 693 688 651
f 666 691 669
f 691 666 659
f 684 693 689
f 638 693 684
f 687 692 695
f 692 679 697
f 661 669 662
f 661 666 669
f 684 689 663
f 684 655 652
f 698 665 695
f 663 689 660
f 663 660 662
f 695 696 698
f 655 613 701
f 687 695 665
f 698 667 668
f 667 707 668
f 650 668 708
f 535 565 564
f 701 613 586
f 650 711 646
f 664 650 646
f 586 643 701
f 680 670 564
f 642 664 646
f 703 533 642
f 703 642 646
f 644 703 675
f 715 643 621
f 701 643 712
f 649 678 739
f 678 704 739
f 704 678 675
f 704 675 714
f 680 683 720
f 685 697 679
f 723 679 686
f 679 723 657
f 679 633 686
f 692 697 695
f 638 697 685
f 684 658 700
f 638 684 696
f 697 638 695
f 638 696 695
f 652 658 684
f 535 501 565
f 684 700 699
f 696 684 699
f 655 694 652
f 700 652 676
f 658 652 700
f 698 696 667
f 701 694 655
f 652 694 676
f 696 699 667
f 701 712 694
f 668 707 708
f 650 708 711
f 714 646 711
f 670 680 677
f 712 715 743
f 677 680 720
f 703 646 714
f 712 643 715
f 638 686 633
f 680 564 565
f 703 714 675
f 715 720 726
f 715 677 720
f 717 681 718
f 649 720 683
f 681 717 725
f 705 739 704
f 704 714 705
f 720 649 739
f 679 657 685
f 722 638 685
f 700 676 721
f 700 721 699
f 699 721 702
f 667 699 702
f 707 667 702
f 676 694 743
f 702 721 710
f 724 708 702
f 702 708 707
f 676 713 721
f 743 694 712
f 676 743 713
f 683 680 565
f 708 724 711
f 706 743 715
f 714 711 735
f 743 706 716
f 717 727 725
f 728 729 709
f 730 727 709
f 721 713 740
f 682 731 732
f 733 682 732
f 739 725 720
f 729 736 725
f 715 726 716
f 706 715 716
f 716 720 725
f 727 717 709
f 718 681 733
f 681 682 733
f 709 717 718
f 731 682 725
f 731 736 728
f 732 731 728
f 709 733 732
f 728 736 729
f 729 725 709
f 736 731 725
f 714 735 705
f 719 745 734
f 739 719 734
f 735 719 705
f 716 726 720
f 725 734 709
f 725 739 734
f 719 739 705
f 686 638 722
f 685 657 723
f 702 710 724
f 713 737 742
f 721 740 710
f 713 743 741
f 723 686 722
f 742 724 710
f 713 741 737
f 742 710 740
f 743 716 741
f 730 716 725
f 713 742 740
f 711 724 742
f 742 735 711
f 738 737 741
f 727 730 725
f 709 718 733
f 742 737 738
f 738 709 734
f 744 719 735
f 709 716 730
f 709 732 728
f 741 709 738
f 741 716 709
f 745 738 734
f 685 723 722
f 742 745 744
f 742 738 745
f 742 744 735
f 719 744 745

