# https://github.com/mikedh/trimesh
v -0.88765621 -0.35306099 -0.11310738
v -0.88768321 -0.35272706 -0.10525667
v -0.88873321 -0.34911704 -0.11306667
v -0.88768321 -0.35296705 -0.10916667
v -0.88768321 -0.35298705 -0.11306667
v -0.88767320 -0.35302705 -0.11306667
v -0.88767320 -0.35302705 -0.10916667
v -0.84862322 -0.40771705 0.11340333
v -0.84860325 -0.41161704 0.11348334
v -0.84860325 -0.40771705 0.11348334
v -0.84864444 -0.27833217 0.11330347
v -0.86034322 -0.25146705 0.02309333
v -0.85643321 -0.25280705 0.02364333
v -0.85864800 -0.19425786 0.11856662
v -0.86409670 -0.25043923 0.00786135
v -0.85978258 -0.44845414 0.04301437
v -0.84864616 -0.40635452 0.11330527
v -0.84285432 -0.42109281 0.13853110
v -0.84862322 -0.41161704 0.11340333
v -0.86137879 -0.38046741 0.05769505
v -0.87042856 -0.37783033 -0.13908489
v -0.86411953 -0.30795327 -0.12769563
v -0.84860325 -0.27489704 0.11348334
v -0.88341230 -0.32020065 -0.10939387
v -0.84473324 -0.29052705 -0.21072666
v -0.86067235 -0.28145370 0.06230555
v -0.85353202 -0.38192770 0.11994627
v -0.84472322 -0.29442704 -0.21078667
v -0.84472322 -0.29052705 -0.21078667
v -0.84477568 -0.28969669 -0.21049646
v -0.86424422 -0.25024900 0.02416766
v -0.85643572 -0.25261483 0.04051405
v -0.86027324 -0.25146705 0.02754333
v -0.86033320 -0.25146705 0.02364333
v -0.86034322 -0.25144705 0.02754333
v -0.86034322 -0.25145704 0.02364333
v -0.86034322 -0.25142705 0.03145333
v -0.84472322 -0.29833704 -0.21078667
v -0.84860325 -0.40380704 0.11348334
v -0.79010320 -0.06005704 -0.17947666
v -0.79003322 -0.06005704 -0.17953667
v -0.79010320 -0.05614705 -0.17947666
v -0.85900700 -0.38104361 0.06875342
v -0.84860325 -0.41552705 0.11348334
v -0.79010320 -0.02489704 -0.17947666
v -0.79003322 -0.02489704 -0.17953667
v -0.79010320 -0.02099704 -0.17947666
v -0.84473324 -0.29442704 -0.21072666
v -0.84862322 -0.28271705 0.11340333
v -0.84860325 -0.28271705 0.11348334
v -0.84860325 -0.28661704 0.11348334
v -0.85009247 -0.30852044 0.14630693
v -0.84862322 -0.27880704 0.11340333
v -0.87826568 -0.35709709 0.15234441
v -0.84860325 -0.27880704 0.11348334
v -0.84056252 -0.29791993 -0.23950329
v -0.84112597 -0.25964832 -0.22949903
v -0.84758806 -0.12135246 0.21477847
v -0.80181366 -0.18551251 -0.33220950
v -0.79010320 -0.07958704 -0.17947666
v -0.79010320 -0.07567705 -0.17947666
v -0.79398322 -0.16942705 -0.33181667
v -0.79395676 -0.16529498 -0.32762167
v -0.79003322 -0.08739704 -0.17953667
v -0.79003322 -0.08349704 -0.17953667
v -0.79010320 -0.08349704 -0.17947666
v -0.79003322 -0.09911704 -0.17953667
v -0.79003322 -0.09521704 -0.17953667
v -0.79010320 -0.09521704 -0.17947666
v -0.79003322 -0.07177704 -0.17953667
v -0.79003322 -0.06786704 -0.17953667
v -0.79010320 -0.06786704 -0.17947666
v -0.79030508 -0.01568029 -0.18000782
v -0.79394323 -0.16552705 -0.32791668
v -0.78631991 0.01912238 -0.17407350
v -0.79010320 -0.09130705 -0.17947666
v -0.80408710 -0.09304041 0.06650909
v -0.79393321 -0.07958704 0.07836333
v -0.79016036 -0.09915353 -0.17924251
v -0.79393828 -0.06345413 -0.17577101
v -0.79010320 -0.04442704 -0.17947666
v -0.79003322 -0.04442704 -0.17953667
v -0.79010320 -0.04052704 -0.17947666
v -0.79010320 -0.08739704 -0.17947666
v -0.78537661 -0.05907691 -0.16618574
v -0.79002321 -0.09911704 -0.17947666
v -0.79400325 -0.07177704 0.07833333
v -0.79400325 -0.06786704 0.07833333
v -0.79398167 -0.06769453 0.07834821
v -0.79393321 -0.07567705 0.07836333
v -0.79400325 -0.07567705 0.07833333
v -0.79010320 -0.03271704 -0.17947666
v -0.79003322 -0.03271704 -0.17953667
v -0.79010320 -0.02880704 -0.17947666
v -0.83243293 -0.02408874 -0.15295471
v -0.74884462 -0.37739897 -0.48749357
v -0.79002321 -0.09521704 -0.17947666
v -0.79003322 -0.09130705 -0.17953667
v -0.79393321 -0.16932705 -0.33181667
v -0.79402322 -0.17333704 -0.33572668
v -0.74711323 -0.28661704 0.36739334
v -0.74711323 -0.29052705 0.36739334
v -0.74712515 -0.29576728 0.36737791
v -0.79392833 -0.16937302 -0.33188048
v -0.79393142 -0.16552258 -0.32793349
v -0.73458505 -0.22391374 0.44011310
v -0.75353670 -0.14484431 -0.41516504
v -0.78626972 -0.13816464 -0.31800699
v -0.74268168 -0.10964120 0.08581618
v -0.79002321 -0.07567705 -0.17947666
v -0.79002321 -0.07958704 -0.17947666
v -0.79002321 -0.08739704 -0.17947666
v -0.79002321 -0.09130705 -0.17947666
v -0.78893620 -0.10128975 -0.16535635
v -0.79002321 -0.06396704 -0.17947666
v -0.79003322 -0.04052704 -0.17953667
v -0.79010320 -0.03661704 -0.17947666
v -0.79002321 -0.05224704 -0.17947666
v -0.79003322 -0.05224704 -0.17953667
v -0.79002321 -0.05614705 -0.17947666
v -0.79003322 -0.07958704 -0.17953667
v -0.79003322 -0.07567705 -0.17953667
v -0.79010320 -0.07177704 -0.17947666
v -0.79002321 -0.06786704 -0.17947666
v -0.79010320 -0.05224704 -0.17947666
v -0.79010320 -0.04833704 -0.17947666
v -0.79002321 -0.07177704 -0.17947666
v -0.79002321 -0.08349704 -0.17947666
v -0.79010320 -0.06396704 -0.17947666
v -0.79003322 -0.06396704 -0.17953667
v -0.79002321 -0.04833704 -0.17947666
v -0.82233232 -0.03306453 0.06533751
v -0.79393321 -0.07177704 0.07836333
v -0.79003322 -0.05614705 -0.17953667
v -0.79003322 -0.03661704 -0.17953667
v -0.79002321 -0.06005704 -0.17947666
v -0.79003322 -0.04833704 -0.17953667
v -0.79002321 -0.04442704 -0.17947666
v -0.79003322 -0.02880704 -0.17953667
v -0.79002321 -0.03661704 -0.17947666
v -0.79002321 -0.04052704 -0.17947666
v -0.79002321 -0.03271704 -0.17947666
v -0.74992126 0.00781437 -0.25140750
v -0.74706322 -0.29052705 0.36747333
v -0.76713258 -0.17747840 -0.38221985
v -0.74706322 -0.29442704 0.36747333
v -0.75064623 -0.28070632 0.35977858
v -0.74706322 -0.27880704 0.36747333
v -0.74711323 -0.27489704 0.36739334
v -0.74706322 -0.27489704 0.36747333
v -0.74189103 -0.25741795 0.40164894
v -0.74711323 -0.27099705 0.36739334
v -0.74493128 -0.27905649 0.37063316
v -0.75486666 -0.16554198 -0.39823058
v -0.74706322 -0.28271705 0.36747333
v -0.74706322 -0.28661704 0.36747333
v -0.74711323 -0.28271705 0.36739334
v -0.75478321 -0.15771703 -0.39041668
v -0.75113755 -0.15743957 -0.39869738
v -0.75656325 -0.16942705 -0.39822668
v -0.75504202 -0.15770194 -0.38979742
v -0.75487322 -0.16552705 -0.39818668
v -0.75482321 -0.16161706 -0.39431667
v -0.75488204 -0.16193506 -0.39449662
v -0.73632032 -0.22426638 0.43778703
v -0.69239324 -0.39208704 -0.53494668
v -0.74711323 -0.27880704 0.36739334
v -0.87705213 -0.21645218 -0.18348603
v -0.69238144 -0.39193732 -0.53495806
v -0.69237322 -0.39599705 -0.53496671
v -0.67561835 -0.38062894 -0.55982226
v -0.69237322 -0.39989704 -0.53496671
v -0.72735769 -0.22413997 0.44976637
v -0.73870802 -0.22432072 0.43470755
v -0.64548320 -0.43505704 -0.58962667
v -0.68314123 -0.44889501 -0.54635501
v -0.69737452 -0.38977420 -0.52783805
v -0.73604000 -0.40252972 0.41222948
v -0.70277768 -0.38215685 -0.52107811
v -0.64548320 -0.43114704 -0.58962667
v -0.64548320 -0.42724705 -0.58962667
v -0.72749656 -0.22385889 0.44946712
v -0.64550322 -0.41942704 -0.58961666
v -0.62065470 -0.43581915 -0.61067086
v -0.81775051 -0.23236993 -0.39472184
v -0.72901416 -0.20503145 0.43910041
v -0.75346059 -0.22179186 0.39301518
v -0.71541262 -0.06533894 -0.46191937
v -0.69239324 -0.39599705 -0.53494668
v -0.69237322 -0.40380704 -0.53496671
v -0.69239324 -0.39989704 -0.53494668
v -0.64550322 -0.43114704 -0.58961666
v -0.74232483 -0.19522303 -0.45590958
v -0.64550322 -0.42724705 -0.58961666
v -0.64548320 -0.42333704 -0.58962667
v -0.64550322 -0.42333704 -0.58961666
v -0.59589112 -0.33927265 0.58296251
v -0.56441325 -0.34130704 0.60567331
v -0.48248690 0.05039575 0.51163507
v -0.57128322 -0.34130704 0.59969330
v -0.56737322 -0.33747706 0.60176331
v -0.56418979 -0.34135467 0.60588425
v -0.56735104 -0.33736962 0.60175002
v -0.52989072 -0.30182624 0.59994692
v -0.56734324 -0.33739704 0.60176331
v -0.57635033 0.11972593 -0.24884836
v -0.50885320 0.13915294 -0.35134667
v -0.50878322 0.13915294 -0.35145667
v -0.50885320 0.14306295 -0.35134667
v -0.48045027 0.07351677 0.33757171
v -0.45807323 -0.02099704 -0.72634667
v -0.45808822 -0.02089922 -0.72633541
v -0.50885320 0.16649295 -0.35134667
v -0.50878322 0.14696296 -0.35145667
v -0.50878322 0.14306295 -0.35145667
v -0.49089530 0.19137461 -0.38163075
v -0.48145321 0.15868296 -0.39041668
v -0.48145321 0.16259295 -0.39041668
v -0.50878322 0.13524295 -0.35145667
v -0.50885320 0.14696296 -0.35134667
v -0.46098071 -0.03939636 -0.72439289
v -0.48555544 -0.01475528 -0.70758009
v -0.48143321 0.16649295 -0.39042667
v -0.50878322 0.15087295 -0.35145667
v -0.50884551 0.13260487 -0.35135445
v -0.50878322 0.15478297 -0.35145667
v -0.50099289 0.11696779 -0.36225733
v -0.48145321 0.12353296 -0.39041668
v -0.48145321 0.12743296 -0.39041668
v -0.50878322 0.16259295 -0.35145667
v -0.50885320 0.15087295 -0.35134667
v -0.50157046 0.15488999 -0.36068636
v -0.48143321 0.13915294 -0.39042667
v -0.48143321 0.13524295 -0.39042667
v -0.52685308 0.14949676 -0.32567304
v -0.50885320 0.16259295 -0.35134667
v -0.50885320 0.15478297 -0.35134667
v -0.48143321 0.17040294 -0.39042667
v -0.48145321 0.17040294 -0.39041668
v -0.50885320 0.15868296 -0.35134667
v -0.50878322 0.15868296 -0.35145667
v -0.48143321 0.16259295 -0.39042667
v -0.48145321 0.17821296 -0.39041668
v -0.48143321 0.17821296 -0.39042667
v -0.48145321 0.18212295 -0.39041668
v -0.48143321 0.15478297 -0.39042667
v -0.48143321 0.15868296 -0.39042667
v -0.45803922 -0.02110372 -0.72636884
v -0.45800322 -0.02880704 -0.72639668
v -0.45800322 -0.02489704 -0.72639668
v -0.45807323 -0.02489704 -0.72634667
v -0.48143321 0.12353296 -0.39042667
v -0.48143321 0.11962296 -0.39042667
v -0.47871321 0.11962296 -0.39431667
v -0.48145321 0.14696296 -0.39041668
v -0.48145321 0.15087295 -0.39041668
v -0.48145321 0.18603297 -0.39041668
v -0.48419324 0.18603297 -0.38650668
v -0.37271994 0.09931678 0.21887144
v -0.37203324 0.10009295 0.21895333
v -0.37206322 0.10399296 0.21892333
v -0.48144633 0.11961712 -0.39041835
v -0.48143321 0.12743296 -0.39042667
v -0.46707302 0.11396210 -0.40073374
v -0.48145321 0.13915294 -0.39041668
v -0.48145321 0.14306295 -0.39041668
v -0.48143321 0.14696296 -0.39042667
v -0.48143321 0.14306295 -0.39042667
v -0.48145321 0.16649295 -0.39041668
v -0.48145321 0.15478297 -0.39041668
v -0.48145321 0.13134295 -0.39041668
v -0.48143321 0.13134295 -0.39042667
v -0.48145321 0.13524295 -0.39041668
v -0.45547181 0.19290863 -0.42256913
v -0.48143321 0.15087295 -0.39042667
v -0.47595823 0.13744482 -0.39794791
v -0.48143321 0.17431295 -0.39042667
v -0.48145321 0.17431295 -0.39041668
v -0.48143321 0.18212295 -0.39042667
v -0.48143321 0.18603297 -0.39042667
v -0.45409322 -0.01708704 -0.72872669
v -0.56189549 -0.34450477 0.60675925
v -0.45197058 0.05079226 0.38374212
v -0.44686827 0.05664042 0.38299665
v -0.44238707 0.06103858 0.38300940
v -0.44628322 0.05712295 0.38309333
v -0.42602012 0.09985876 -0.44974542
v -0.44628322 0.05720296 0.38301331
v -0.44237322 0.06103296 0.38303331
v -0.46183607 0.07275334 0.35578090
v -0.44628322 0.06162295 0.37911332
v -0.43057927 0.07307824 0.38253030
v -0.28281322 0.23681295 0.04317333
v -0.27877873 0.26520404 0.01629883
v -0.36086288 0.11014549 0.25338978
v -0.37206322 0.10790296 0.21892333
v -0.37203324 0.10399296 0.21895333
v -0.37636957 0.10851721 0.21419317
v -0.43847322 0.06103296 0.38643330
v -0.42514515 0.04673598 0.41067722
v -0.39119941 0.10379247 0.18827616
v -0.41772607 0.13517793 0.15208729
v -0.37206322 0.13519295 0.21895333
v -0.35696498 0.23298210 0.25757438
v -0.35253322 0.23296297 0.26192331
v -0.35643321 0.23290294 0.25813332
v -0.36395907 0.14315726 0.22692491
v -0.32911330 -0.06798953 0.65255326
v -0.35062224 -0.05608996 0.64500886
v -0.41429517 -0.01640472 -0.73019344
v -0.36798111 0.09997507 0.22295906
v -0.32730508 0.10342755 0.26064214
v -0.37561321 0.10790296 0.21504334
v -0.36425322 0.14306295 0.22658333
v -0.39753675 0.14644024 0.22302096
v -0.37203324 0.13524295 0.21895333
v -0.29402968 0.23729767 0.06855130
v -0.32913321 -0.06396704 0.65254331
v -0.32911813 -0.05982212 0.65255123
v -0.32913321 -0.06005704 0.65254331
v -0.36648580 0.10810114 0.22448638
v -0.37206322 0.10794296 0.21895333
v -0.37206322 0.13915294 0.21892333
v -0.37203324 0.10790296 0.21895333
v -0.36815321 0.10790296 0.22275333
v -0.36534366 0.08955126 0.59206676
v -0.37235850 0.13534953 0.21857183
v -0.37834442 0.13295549 0.21383668
v -0.36815321 0.13524295 0.22275333
v -0.37203324 0.13915294 0.21895333
v -0.36815321 0.13915294 0.22275333
v -0.36572590 0.13447854 0.22558756
v -0.36815321 0.14317295 0.22286333
v -0.36795262 0.14306448 0.22295465
v -0.37206322 0.14309295 0.21895333
v -0.37561321 0.14306295 0.21504334
v -0.37206322 0.14306295 0.21892333
v -0.36815321 0.14306295 0.22275333
v -0.37203324 0.14306295 0.21895333
v -0.33314323 0.11181295 0.59004331
v -0.33312324 0.10790296 0.59395331
v -0.33300322 0.10615296 0.59786332
v -0.33299452 0.10792768 0.59396315
v -0.35256323 0.23290294 0.26192331
v -0.35256323 0.22899295 0.26192331
v -0.35253322 0.22899295 0.26195335
v -0.33269322 0.11181295 0.59004331
v -0.35253322 0.22509295 0.26195335
v -0.35251975 0.23292351 0.26195854
v -0.22630322 0.24071296 0.12911333
v -0.32909322 -0.06786704 0.65256333
v -0.32909322 -0.06396704 0.65256333
v -0.29001093 -0.04559098 0.66631484
v 0.14896786 0.14127845 -0.50416964
v -0.33300322 0.10793295 0.59395331
v -0.23094948 0.23677295 0.05293786
v -0.33172688 0.11338698 0.58745253
v -0.33300322 0.11181295 0.59012330
v -0.45822960 0.17743693 0.12693018
v -0.64156830 -0.21752231 -0.66367954
v -0.25361028 -0.01052154 0.69620740
v -0.29393327 -0.09256571 0.65640289
v -0.30780667 0.08348437 0.60019088
v -0.28222322 0.23677295 0.04708333
v -0.28612322 0.24071296 0.05040333
v -0.27427429 0.23772164 0.23960367
v -0.22376014 -0.44677305 -0.81619155
v -0.22373323 -0.44286704 -0.81619668
v -0.28233323 0.23681295 0.04708333
v -0.28228322 0.23681295 0.05098333
v -0.28222322 0.23677295 0.05098333
v -0.28222322 0.23677295 0.05489333
v -0.26920268 -0.45726222 -0.80707842
v -0.26659998 -0.41353488 -0.81457329
v -0.22362323 -0.44677705 -0.81620669
v -0.22362323 -0.45067704 -0.81296670
v -0.22373323 -0.43114704 -0.81619668
v -0.22366109 -0.42960957 -0.81620324
v -0.21972322 -0.44677705 -0.81667668
v -0.34623733 0.10348424 0.41890106
v -0.22362323 -0.44680706 -0.81619668
v -0.22753322 0.23681295 0.12919334
v -0.22753322 0.23677295 0.12911333
v -0.23143323 0.23677295 0.13301332
v -0.23135322 0.23681295 0.13301332
v -0.22362323 0.23677295 0.12520333
v -0.23136282 0.23695257 0.13316046
v -0.23534019 0.23686935 0.13783832
v -0.22373323 -0.43505704 -0.81619668
v -0.22373323 -0.43896705 -0.81619668
v -0.22362323 -0.43896705 -0.81620669
v -0.22362323 -0.43505704 -0.81620669
v -0.10014497 0.45669341 0.01316683
v -0.22362323 -0.44286704 -0.81620669
v -0.14374457 -0.08946737 -0.77959758
v -0.19507559 -0.45813796 -0.81146163
v -0.21193220 0.24402335 0.11250396
v -0.22747323 0.23681295 0.12911333
v -0.23534322 0.23677295 0.13692331
v -0.23519322 0.23681295 0.13692331
v -0.23062356 0.24515180 0.13789620
v -0.01639061 0.40863231 0.25975996
v -0.01088091 0.25209242 -0.03282484
v -0.12587322 0.44774294 0.00020333
v -0.11045910 0.44827020 0.01566395
v -0.12206323 0.44765294 0.00411333
v 0.07166021 -0.40138122 0.74671906
v -0.32982299 -0.38679495 0.74995762
v -0.11835250 0.45283499 0.00168252
v -0.11815322 0.45156294 0.00411333
v -0.11801323 0.45165294 0.00411333
v -0.11405084 0.45165491 0.00807617
v -0.11421283 0.45159402 0.00802955
v -0.04809792 -0.16302598 0.81052208
v 0.06127298 -0.32343590 0.77551800
v -0.17016834 -0.45199367 -0.82284832
v -0.11815322 0.44762295 0.00801333
v -0.11425323 0.45165294 0.00789333
v -0.11815322 0.44783294 0.00801333
v -0.11432322 0.44774294 0.01192333
v -0.11280344 0.44763556 0.01345637
v -0.11425323 0.44786295 0.01192333
v -0.12210326 0.44774294 0.00411327
v -0.12206323 0.45156294 0.00020333
v -0.11821322 0.44774294 0.00801333
v -0.11815322 0.44774294 0.00807333
v -0.12206323 0.44781294 0.00411333
v -0.12791696 0.18951166 0.32307976
v -0.07345002 0.27657208 0.21489064
v 0.03925345 0.08666823 0.54972243
v -0.02050323 -0.37646705 0.76583332
v -0.02039323 -0.37255704 0.76973331
v -0.23170125 0.35769063 0.15803048
v -0.06001273 0.37348834 0.22681236
v -0.05518323 0.37353295 0.22676332
v -0.02037323 -0.36864704 0.77364331
v -0.02034323 -0.36474705 0.77754331
v -0.02045528 -0.36865938 0.77364212
v -0.03973396 -0.37851375 0.76590836
v -0.02440323 -0.37255704 0.77022332
v -0.02050323 -0.37256706 0.76973331
v -0.02050323 -0.37255704 0.76974332
v -0.03858832 0.23746274 0.19743319
v -0.03222323 0.23681295 0.22706331
v -0.02831323 0.23677295 0.23067331
v -0.02842323 0.23681295 0.23458333
v -0.02838323 0.23681295 0.23848332
v -0.03222323 0.24071296 0.23794334
v -0.02861323 0.23681295 0.23067331
v -0.02831323 0.23677295 0.23848332
v -0.02831323 0.23677295 0.24239333
v -0.05565323 0.37353295 0.22677334
v -0.05565323 0.37352294 0.22676332
v -0.05481801 0.36730105 0.21917476
v -0.05956323 0.37983295 0.23458333
v -0.05956323 0.37353295 0.22685333
v -0.04153601 0.43513057 0.02015012
v -0.02050323 0.44761294 0.01583333
v -0.04383415 0.45388752 0.02811551
v -0.01659323 0.44785294 0.01192333
v -0.08647981 0.42339304 0.01362899
v -0.02593237 0.23945941 0.25035426
v -0.01659323 0.44760296 0.01192333
v -0.01268323 0.44774294 0.00809333
v -0.01268323 0.44786295 0.00801333
v -0.00970349 0.45292705 -0.00169351
v -0.02494958 0.44873005 0.02035188
v -0.01659323 0.44774294 0.01199333
v -0.02043323 0.44774294 0.01583333
v -0.02050323 0.44784296 0.01583333
v -0.02440323 0.44784296 0.01973333
v -0.01240267 0.44769049 0.00779051
v -0.00870314 0.44774604 0.00412385
v -0.01652323 0.44774294 0.01192333
v -0.02050323 0.44774294 0.01589333
v -0.02434323 0.44774294 0.01973333
v 0.03105681 0.23685595 0.14557184
v 0.10977009 0.07620669 0.51275951
v 0.09278982 0.08044352 0.53539711
v 0.34721404 0.11225957 0.31123397
v -0.02831323 0.23677295 0.23458333
v 0.09276157 0.08466077 0.53540695
v 0.09291677 0.08446295 0.53536332
v 0.09277677 0.08446295 0.53540331
v 0.33215445 0.17374735 -0.21752375
v 0.09667677 0.08056295 0.53431332
v 0.09291677 0.08056295 0.53536332
v 0.09827613 0.24431658 -0.06568265
v 0.13183677 0.23681295 -0.07024667
v 0.12881470 0.23693372 -0.07037264
v 0.13747708 0.23833157 -0.07418462
v 0.20995678 -0.31005704 0.70073330
v 0.13561314 0.23681051 -0.07401962
v 0.13573678 0.23677295 -0.07400667
v 0.11580283 0.23659278 -0.06680738
v 0.13183677 0.23677295 -0.07009667
v 0.28417677 0.15087295 0.37512332
v 0.28417677 0.14696296 0.37512332
v 0.20605677 -0.29442704 0.70207334
v 0.25683677 -0.23192705 -0.82016671
v 0.25292677 -0.22802705 -0.82011670
v 0.21386677 -0.29052705 0.69939333
v 0.21382467 -0.28926882 0.69941139
v 0.21386677 -0.29833704 0.69939333
v 0.21379678 -0.29442704 0.69942331
v 0.21386677 -0.29442704 0.69939333
v 0.13645166 -0.35191086 -0.82578146
v 0.22935875 -0.31445855 0.69465029
v 0.15910138 0.23788360 -0.07930047
v 0.25682679 -0.41161704 -0.77322668
v 0.25682679 -0.40771705 -0.77322668
v 0.21384072 -0.30224708 0.69940448
v 0.21386677 -0.30224705 0.69939333
v 0.21379678 -0.29833704 0.69942331
v 0.25682679 -0.41552705 -0.77322668
v 0.21379678 -0.29052705 0.69942331
v 0.13485107 -0.33982572 0.75283569
v 0.25092596 -0.40380704 -0.77675551
v 0.22878183 -0.27354026 -0.91845810
v 0.22072509 -0.24429122 -0.87204695
v 0.22375003 -0.30995375 0.69599998
v 0.25682679 -0.40380704 -0.77322668
v 0.25683677 -0.41161704 -0.77322668
v 0.29198676 -0.41942704 -0.75369668
v 0.29198676 -0.41552705 -0.75369668
v 0.23108993 -0.45505348 -0.77694362
v 0.28905818 0.20026350 0.38512096
v 0.25682679 -0.39599705 -0.77322668
v 0.28413999 0.17071937 0.37516010
v 0.28417677 0.16259295 0.37512332
v 0.28417677 0.16649295 0.37512332
v 0.25683677 -0.42333704 -0.77322668
v 0.25683677 -0.41942704 -0.77322668
v 0.22397681 -0.30852222 0.69588548
v 0.25683677 -0.41552705 -0.77322668
v 0.25682679 -0.39989704 -0.77322668
v 0.24899678 -0.22411706 -0.82009667
v 0.24902678 -0.22411706 -0.82007670
v 0.24511677 -0.22021703 -0.82002670
v 0.24507424 -0.22022133 -0.82006979
v 0.26318920 -0.29034665 -0.86330473
v 0.24511677 -0.22411706 -0.82348669
v 0.29199678 -0.42333704 -0.75369668
v 0.29198676 -0.42333704 -0.75369668
v 0.24902678 -0.22414705 -0.82009667
v 0.24902678 -0.22802705 -0.82352668
v 0.24511677 -0.21630704 -0.81657666
v 0.29199678 -0.42724705 -0.75369668
v 0.26078227 -0.23586211 -0.82019013
v 0.22315353 -0.18100092 -0.79038566
v 0.30078366 -0.41569781 -0.74881399
v 0.29199678 -0.43114704 -0.75369668
v 0.29199678 -0.43505704 -0.75369668
v 0.25683677 -0.39989704 -0.77322668
v 0.26637769 -0.38146058 -0.76828533
v 0.25683677 -0.40380704 -0.77322668
v 0.29198676 -0.43505704 -0.75369668
v 0.29198676 -0.43114704 -0.75369668
v 0.25683677 -0.40771705 -0.77322668
v 0.28409678 0.16649295 0.37520331
v 0.28409678 0.16259295 0.37520331
v 0.28782836 -0.41467720 -0.75600743
v 0.31485364 0.12041248 0.34639886
v 0.28417677 0.15478297 0.37512332
v 0.29198676 -0.43896705 -0.75369668
v 0.29199678 -0.41942704 -0.75369668
v 0.29031378 -0.45372805 -0.75369990
v 0.29198676 -0.42724705 -0.75369668
v 0.25292677 -0.22799703 -0.82009667
v 0.26073676 -0.23192705 -0.81675667
v 0.25297719 -0.22801000 -0.82004619
v 0.25683677 -0.23185705 -0.82009667
v 0.26338899 -0.23022865 -0.81302136
v 0.26073676 -0.23571704 -0.82009667
v 0.25690678 -0.23192705 -0.82009667
v 0.28176194 -0.45381969 -0.75914854
v 0.29199678 -0.44286704 -0.75369668
v 0.29199678 -0.44677705 -0.75369668
v 0.23297958 0.06928571 -0.49777958
v 0.29199678 -0.43896705 -0.75369668
v 0.28409678 0.12353296 0.37520331
v 0.28409678 0.12743296 0.37520331
v 0.28409678 0.14306295 0.37520331
v 0.28417677 0.13524295 0.37512332
v 0.28417677 0.13915294 0.37512332
v 0.28808677 0.12742294 0.29317331
v 0.28409678 0.14696296 0.37520331
v 0.28417677 0.12353296 0.37512332
v 0.28417677 0.11962296 0.37512332
v 0.28409678 0.13134295 0.37520331
v 0.28417677 0.13134295 0.37512332
v 0.28417677 0.12743296 0.37512332
v 0.28409678 0.15478297 0.37520331
v 0.28409678 0.15087295 0.37520331
v 0.28409678 0.17040294 0.37520331
v 0.29198676 -0.44286704 -0.75369668
v 0.29198676 0.12761295 0.28536332
v 0.31066182 0.17176843 0.34996524
v 0.29580677 0.12743296 0.28536332
v 0.29582137 0.12743291 0.28535444
v 0.31844077 -0.46028173 -0.73010641
v 0.22918528 0.09963145 0.41913036
v 0.31943262 0.07038639 -0.43387210
v 0.29198676 0.07664296 -0.44900668
v 0.29200870 0.07667184 -0.44898066
v 0.28611389 0.07678761 -0.45490244
v 0.29011017 0.07292260 -0.45733032
v 0.28808677 0.07654296 -0.45291668
v 0.28808677 0.07665296 -0.45282668
v 0.29589677 0.07665296 -0.44519669
v 0.29198676 0.07672295 -0.44900668
v 0.30989569 0.09028958 -0.43134895
v 0.29194385 0.12743320 0.28914231
v 0.26231077 0.15182549 0.39547431
v 0.28409678 0.13915294 0.37520331
v 0.28417677 0.14306295 0.37512332
v 0.28409678 0.13524295 0.37520331
v 0.25937840 0.13108023 0.24425022
v 0.29198676 0.12742294 0.28926331
v 0.28409678 0.15868296 0.37520331
v 0.28417677 0.15868296 0.37512332
v 0.36542043 0.13334014 0.28994814
v 0.31630641 -0.21959747 -0.78859454
v 0.43261677 -0.26708704 -0.66383666
v 0.43261677 -0.26317704 -0.66383666
v 0.46844426 0.19042964 0.10961460
v 0.43260679 -0.26708704 -0.66384667
v 0.42870677 -0.26317704 -0.66724670
v 0.43260679 -0.26317704 -0.66384667
v 0.37936357 -0.25949204 -0.71022028
v 0.61650985 -0.45499620 -0.46863478
v 0.43260679 -0.25927705 -0.66384667
v 0.43283680 -0.25930223 -0.66372919
v 0.25755370 -0.19479445 0.68674046
v -0.14286558 -0.09681746 0.77827477
v 0.43257043 -0.25924996 -0.66392636
v 0.40136677 0.13915294 0.23846333
v 0.40134677 0.14306295 0.23848332
v 0.40135589 0.14319730 0.23847444
v 0.50337845 0.09917967 -0.02510557
v 0.40134677 0.13915294 0.23848332
v 0.40136677 0.13524295 0.23846333
v 0.24027252 0.22157866 0.25185311
v 0.43554232 0.10077800 0.18725462
v 0.40134677 0.13524295 0.23848332
v 0.43774977 -0.31238115 -0.64924955
v 0.49451399 -0.25879321 -0.61750507
v 0.43261677 -0.27099705 -0.66383666
v 0.40136677 0.13134295 0.23846333
v 0.48944446 -0.31327078 -0.60420436
v 0.45209679 -0.30224705 -0.63650668
v 0.53314954 -0.08673628 -0.52907437
v 0.45209679 -0.30614704 -0.63650668
v 0.45214677 -0.31005704 -0.63645667
v 0.45214677 -0.30614704 -0.63645667
v 0.45231158 -0.31008446 -0.63632834
v 0.44823676 -0.31005704 -0.63986671
v 0.44332200 -0.28360051 -0.64415306
v 0.45209679 -0.31005704 -0.63650668
v 0.41938952 -0.37830618 0.61706460
v 0.45995677 -0.12564704 0.50801331
v 0.45995080 -0.11835232 0.51193893
v 0.45994678 -0.11864704 0.51192331
v 0.45998231 -0.11871101 0.51185101
v 0.45995677 -0.12255705 0.51190335
v 0.42625961 -0.12904473 0.50422662
v 0.45994678 -0.12255705 0.51192331
v 0.12406740 0.11025060 -0.67355466
v 0.49113679 -0.05224704 0.51583332
v 0.49115750 -0.04496846 0.51578438
v 0.49029827 -0.01672447 -0.60619408
v 0.48730677 -0.04833704 0.51968330
v 0.48730677 -0.04442704 0.51968330
v 0.48222589 -0.05251750 0.52458018
v 0.55952990 -0.05517832 -0.38267174
v 0.49960947 0.06213036 -0.08522909
v 0.48724678 -0.04052704 0.51973331
v 0.48728639 -0.04003418 0.51969987
v 0.51071399 -0.11984083 0.47668573
v 0.49200243 -0.01586389 0.51515943
v 0.48728347 -0.05246286 0.51972145
v 0.48725677 -0.04833704 0.51973331
v 0.48724678 -0.04442704 0.51973331
v 0.48730677 -0.05224704 0.51970333
v 0.51073676 -0.03661704 -0.58068669
v 0.49511677 0.06907296 -0.07791667
v 0.49525663 0.06894953 -0.07356281
v 0.48442125 0.07361139 -0.15173574
v 0.49273041 0.07274283 -0.08435016
v 0.49511954 0.06884679 -0.08589592
v 0.49512678 0.06884295 -0.08572667
v 0.49518678 0.06884295 -0.08181667
v 0.49511677 0.06897296 -0.08181667
v 0.65136677 -0.41942704 0.31274331
v 0.65137678 -0.41942704 0.31270331
v 0.65136677 -0.41552705 0.31274331
v 0.56155676 -0.28271705 0.44161332
v 0.56152678 -0.27880704 0.44166335
v 0.56152678 -0.28661704 0.44166335
v 0.48658213 -0.21431272 -0.66479534
v 0.51573360 -0.07318129 -0.57124400
v 0.50683677 -0.04833704 -0.58566666
v 0.50678676 -0.04442704 -0.58572668
v 0.50683677 -0.04442704 -0.58566666
v 0.57991385 -0.09992982 -0.40363353
v 0.50683677 -0.04052704 -0.58565670
v 0.50677085 -0.04051706 -0.58574915
v 0.52095902 -0.01553297 -0.56727880
v 0.52324867 -0.04930313 0.38555703
v 0.51811892 0.02121801 -0.15621549
v 0.65137678 -0.43114704 0.31270331
v 0.65137678 -0.42724705 0.31270331
v 0.65136677 -0.42724705 0.31274331
v 0.58125240 -0.45476389 0.41646871
v 0.56155676 -0.29052705 0.44161332
v 0.56154394 -0.27857476 0.44163468
v 0.61793274 -0.25708497 0.46162745
v 0.55324447 -0.31450647 0.45399308
v 0.56153876 -0.29471600 0.44164366
v 0.56155676 -0.29442704 0.44161332
v 0.55002993 -0.26611942 0.45800543
v 0.52970654 -0.05636168 0.43371227
v 0.61230677 -0.41161704 0.38298333
v 0.61227679 -0.41552705 0.38301331
v 0.61230677 -0.41552705 0.38298333
v 0.61227679 -0.41161704 0.38301331
v 0.60446417 -0.12892908 0.25169128
v 0.51578456 -0.12438892 0.45188132
v 0.56359577 -0.07991908 -0.46943757
v 0.56780255 -0.12386635 0.39638475
v 0.65137678 -0.41552705 0.31270331
v 0.59163874 -0.05095489 0.39809805
v 0.61230677 -0.41942704 0.38298333
v 0.56152678 -0.29052705 0.44166335
v 0.57856822 -0.31005430 0.41739103
v 0.56155676 -0.28661704 0.44161332
v 0.63512820 -0.40564397 0.35106421
v 0.56152678 -0.28271705 0.44166335
v 0.59663653 -0.11863869 0.35569271
v 0.58105677 -0.09521704 -0.40212667
v 0.58105677 -0.09911704 -0.40212667
v 0.61230677 -0.40771705 0.38298333
v 0.61963135 -0.14891440 0.33450860
v 0.58105677 -0.08739704 -0.40213668
v 0.58105677 -0.08739704 -0.40212667
v 0.58105677 -0.09130705 -0.40212667
v 0.58105677 -0.09521704 -0.40213668
v 0.58105677 -0.09130705 -0.40213668
v 0.65136677 -0.41161704 0.31274331
v 0.59594071 -0.12446728 0.35717329
v 0.59926677 -0.11864704 0.35176331
v 0.59667677 -0.11864704 0.35562333
v 0.58314329 -0.09995622 -0.39667988
v 0.59926677 -0.12255705 0.35176331
v 0.59667677 -0.12273705 0.35567331
v 0.60953677 -0.41552705 0.38692331
v 0.61227679 -0.40771705 0.38301331
v 0.55952501 -0.32352629 -0.58925498
v 0.62007785 -0.37581074 0.39099571
v 0.40363821 -0.36074668 -0.70548552
v 0.59664679 -0.11864704 0.35567331
v 0.63481754 -0.45637724 0.33142391
v 0.59667677 -0.12255705 0.35562333
v 0.67216903 -0.17514288 0.21520016
v 0.59664679 -0.12255705 0.35567331
v 0.63763618 -0.12420604 0.28605664
v 0.61080861 -0.36009872 0.42244196
v 0.65136677 -0.42333704 0.31274331
v 0.65137678 -0.42333704 0.31270331
v 0.65136993 -0.41160858 0.31273073
v 0.71393049 -0.35530362 0.19767621
v 0.67380023 -0.43087316 0.26006812
v 0.64024937 -0.13399601 0.24980061
v 0.70463508 -0.39088938 -0.22000510
v 0.66307914 -0.16554031 0.22677256
v 0.66297734 -0.15229797 0.21352479
v 0.66467679 -0.15771703 0.21504334
v 0.69134676 -0.38817704 -0.27322668
v 0.69040662 -0.38815108 -0.27727523
v 0.69044679 -0.38817704 -0.27712667
v 0.68233180 -0.38146964 -0.29244980
v 0.69047660 -0.45615178 0.20028803
v 0.69044679 -0.39599705 -0.27712667
v 0.70605677 -0.36471704 -0.28103665
v 0.70601797 -0.36474526 -0.28108069
v 0.67480677 -0.16942705 0.20320334
v 0.67471677 -0.16552705 0.19942331
v 0.70995677 -0.36083704 -0.28126669
v 0.66308677 -0.16171704 0.22286333
v 0.66308677 -0.16552705 0.22674334
v 0.66304678 -0.16161706 0.22286333
v 0.66473675 -0.16552705 0.22286333
v 0.67647678 -0.17724705 0.20723334
v 0.67641675 -0.16942705 0.19942331
v 0.66308677 -0.15771703 0.21878333
v 0.66308677 -0.15787704 0.21895333
v 0.66300678 -0.15771703 0.21895333
v 0.67480677 -0.17333704 0.20718333
v 0.67479062 -0.17368978 0.20756611
v 0.67480677 -0.16955703 0.20333333
v 0.66308677 -0.16161706 0.22276333
v 0.66297680 -0.15380704 0.21504334
v 0.66308677 -0.15404704 0.21504334
v 0.67474675 -0.16942705 0.20333333
v 0.67480630 -0.16435704 0.19802186
v 0.71057957 -0.36028409 -0.28091824
v 0.67562312 -0.22285090 0.26044416
v 0.69044679 -0.39208704 -0.27712667
v 0.71784401 -0.38168022 -0.03127761
v 0.72465110 -0.36642873 -0.20596024
v 0.70995677 -0.36088705 -0.28103665
v 0.69042677 -0.39208704 -0.27720669
v 0.70214677 -0.36854705 -0.28103665
v 0.70605677 -0.36474705 -0.28091669
v 0.71429479 -0.37698546 -0.13482074
v 0.69042677 -0.38817704 -0.27720669
v 0.71777618 -0.38232127 -0.09881018
v 0.72154677 -0.38427705 -0.10525667
v 0.72160679 -0.38427705 -0.10134667
v 0.70538181 -0.33669609 -0.32231697
v 0.76811409 -0.26490673 -0.07458834
v 0.69206762 -0.19084667 0.18118687
v 0.74998540 -0.23146178 -0.03496747
v 0.72957075 -0.40053108 -0.10917908
v 0.72348291 -0.38817933 -0.10103555
v 0.72167677 -0.38434705 -0.10134667
v 0.72167677 -0.38427705 -0.09684667
v 0.72167677 -0.38428706 -0.09744667
v 0.72166675 -0.38427705 -0.09744667
v 0.76159191 -0.18633647 0.08782447
v 0.76859534 -0.18111739 0.09789338
v 0.77102679 -0.18505704 0.09786333
v 0.76464677 -0.18128705 0.09395333
v 0.76855123 -0.18115059 0.09786270
v 0.76855677 -0.18115705 0.09786333
v 0.71334106 -0.07250055 0.13754621
v 0.76429528 -0.18104771 0.09377257
v 0.76464677 -0.18114705 0.09403333
v 0.70342052 -0.09463196 0.09601122
v 0.70326555 0.02472165 -0.05755511
v 0.80794412 -0.20224196 0.10604972
f 3 4 24
f 24 4 2
f 5 3 1
f 2 21 54
f 5 6 4
f 7 21 2
f 6 7 4
f 5 4 3
f 3 24 21
f 3 21 1
f 1 7 6
f 2 54 24
f 4 7 2
f 1 21 7
f 8 9 10
f 5 1 6
f 15 12 13
f 19 8 17
f 20 21 16
f 43 20 17
f 8 10 17
f 16 27 178
f 96 21 24
f 54 21 20
f 27 16 21
f 20 43 54
f 23 26 11
f 22 56 96
f 24 22 96
f 54 52 26
f 24 54 22
f 22 54 26
f 168 27 21
f 56 28 29
f 57 56 29
f 26 58 22
f 27 168 15
f 27 13 32
f 12 34 13
f 33 34 35
f 15 13 27
f 36 31 35
f 27 32 14
f 32 37 31
f 56 38 28
f 17 10 39
f 15 168 14
f 15 14 31
f 12 15 31
f 12 31 36
f 13 34 36
f 34 33 36
f 34 12 36
f 35 31 37
f 32 33 37
f 33 35 37
f 33 32 36
f 32 13 36
f 34 36 35
f 32 31 14
f 40 41 42
f 16 18 44
f 43 39 54
f 45 46 47
f 20 16 44
f 10 18 39
f 44 18 9
f 9 18 10
f 16 178 18
f 178 54 18
f 43 17 39
f 57 29 30
f 20 19 17
f 48 38 22
f 19 44 9
f 44 19 20
f 8 19 9
f 39 18 54
f 58 57 30
f 11 26 49
f 50 51 52
f 53 49 50
f 50 52 55
f 56 22 38
f 30 29 25
f 52 51 26
f 50 55 53
f 50 49 51
f 51 49 26
f 49 53 11
f 48 30 25
f 30 48 22
f 48 25 28
f 48 28 38
f 25 29 28
f 58 30 22
f 185 56 57
f 58 185 57
f 11 55 23
f 55 52 23
f 26 23 58
f 11 53 55
f 58 23 52
f 60 61 80
f 59 185 58
f 62 59 63
f 64 65 66
f 67 68 69
f 132 14 168
f 70 71 72
f 79 67 69
f 46 73 47
f 63 105 74
f 69 68 76
f 81 82 83
f 76 84 114
f 67 79 86
f 90 78 109
f 91 78 90
f 92 93 94
f 21 96 360
f 360 168 21
f 97 98 68
f 99 105 104
f 105 99 74
f 99 62 74
f 100 59 62
f 101 102 147
f 56 185 96
f 104 62 99
f 74 62 63
f 104 100 62
f 59 100 107
f 104 105 107
f 107 100 104
f 105 108 107
f 105 63 108
f 108 59 95
f 95 59 58
f 63 59 108
f 79 69 114
f 110 111 85
f 112 64 113
f 98 64 84
f 113 64 98
f 97 86 79
f 83 116 117
f 118 119 120
f 87 88 77
f 91 87 77
f 78 77 109
f 88 89 77
f 14 132 380
f 66 65 60
f 65 121 60
f 121 122 61
f 61 123 80
f 124 85 115
f 84 64 66
f 68 98 76
f 69 76 114
f 125 119 126
f 84 66 114
f 76 98 84
f 66 60 80
f 114 66 80
f 128 114 111
f 123 72 80
f 60 121 61
f 122 70 123
f 61 122 123
f 129 130 40
f 72 71 129
f 123 70 72
f 85 111 114
f 71 130 129
f 124 127 85
f 85 127 110
f 128 112 114
f 113 114 112
f 110 127 70
f 110 70 122
f 114 80 58
f 127 71 70
f 127 124 71
f 118 85 131
f 81 83 95
f 188 109 77
f 87 91 90
f 133 90 109
f 91 77 78
f 88 133 89
f 88 87 133
f 87 90 133
f 89 133 109
f 42 134 125
f 129 40 80
f 116 135 117
f 72 129 80
f 115 85 136
f 125 126 80
f 42 125 80
f 41 134 42
f 137 82 81
f 130 41 40
f 118 120 85
f 40 42 80
f 119 137 126
f 134 119 125
f 135 93 92
f 126 137 81
f 82 116 83
f 117 135 92
f 80 126 95
f 126 81 95
f 117 92 95
f 83 117 95
f 93 139 94
f 138 131 85
f 136 85 120
f 188 77 132
f 140 141 85
f 138 85 141
f 140 85 142
f 77 89 132
f 89 109 132
f 94 139 45
f 137 131 82
f 141 135 116
f 94 45 95
f 92 94 95
f 139 46 45
f 45 47 95
f 143 95 73
f 95 47 73
f 143 73 75
f 80 95 58
f 144 102 101
f 103 102 146
f 52 54 178
f 148 149 150
f 148 150 153
f 152 147 187
f 153 155 148
f 103 27 147
f 156 155 153
f 156 157 155
f 101 157 156
f 151 58 52
f 146 144 153
f 360 193 168
f 154 160 193
f 160 164 145
f 164 161 145
f 193 160 145
f 160 162 164
f 160 154 162
f 154 159 163
f 154 193 159
f 162 154 163
f 164 162 163
f 168 193 145
f 158 164 163
f 161 164 158
f 185 59 107
f 27 103 178
f 163 159 158
f 158 159 161
f 168 145 132
f 145 161 132
f 27 14 147
f 95 107 108
f 138 116 82
f 86 68 67
f 113 97 114
f 136 120 134
f 143 107 95
f 121 111 122
f 128 121 65
f 110 122 111
f 97 68 86
f 113 98 97
f 79 114 97
f 128 111 121
f 112 128 65
f 112 65 64
f 140 93 135
f 136 41 115
f 130 115 41
f 124 130 71
f 115 130 124
f 136 134 41
f 114 143 85
f 120 119 134
f 141 116 138
f 85 139 142
f 140 135 141
f 93 142 139
f 138 82 131
f 118 131 137
f 118 137 119
f 142 93 140
f 85 143 75
f 85 73 46
f 85 46 139
f 75 73 85
f 169 166 177
f 155 167 148
f 170 171 172
f 101 147 157
f 153 144 156
f 151 52 178
f 102 103 147
f 155 157 167
f 157 147 167
f 178 103 153
f 167 147 149
f 150 152 153
f 153 103 146
f 152 187 153
f 144 101 156
f 146 102 144
f 150 149 152
f 167 149 148
f 149 147 152
f 184 180 181
f 187 147 14
f 178 153 187
f 183 171 184
f 151 174 186
f 186 174 106
f 173 182 165
f 173 165 151
f 151 165 174
f 106 165 182
f 106 174 165
f 151 186 58
f 159 193 188
f 106 182 186
f 187 14 380
f 159 188 161
f 132 161 188
f 143 114 58
f 143 360 107
f 189 166 170
f 166 169 170
f 96 179 176
f 179 169 177
f 171 190 172
f 176 179 190
f 190 191 172
f 192 180 175
f 171 176 190
f 151 178 199
f 173 151 199
f 173 186 182
f 58 186 199
f 186 173 199
f 188 193 360
f 191 190 179
f 189 170 172
f 109 188 132
f 181 180 194
f 195 183 184
f 96 176 360
f 171 170 169
f 177 189 191
f 177 166 189
f 177 191 179
f 179 96 169
f 189 172 191
f 96 171 169
f 192 194 180
f 96 360 171
f 96 185 360
f 176 175 184
f 185 107 360
f 635 187 380
f 184 181 195
f 195 196 183
f 181 194 196
f 195 181 196
f 196 176 183
f 360 176 184
f 180 184 175
f 176 196 194
f 192 175 176
f 176 171 183
f 176 194 192
f 635 178 187
f 132 188 380
f 202 282 198
f 171 360 184
f 204 178 635
f 282 200 201
f 58 199 143
f 206 143 199
f 282 201 198
f 178 197 282
f 201 203 205
f 201 205 198
f 200 197 203
f 203 197 204
f 200 203 201
f 200 282 197
f 197 178 204
f 198 205 202
f 205 203 202
f 203 204 202
f 408 178 282
f 202 204 282
f 178 408 199
f 207 208 209
f 214 215 232
f 217 218 216
f 215 214 220
f 360 395 188
f 199 301 206
f 208 232 215
f 225 219 207
f 224 214 232
f 226 224 232
f 225 232 219
f 206 287 227
f 228 229 227
f 216 230 232
f 208 219 232
f 227 232 225
f 219 208 207
f 206 227 225
f 233 234 276
f 235 207 209
f 235 220 231
f 208 215 209
f 209 215 220
f 225 207 235
f 206 225 235
f 235 236 213
f 231 237 235
f 209 220 235
f 220 214 231
f 214 224 231
f 224 226 237
f 231 224 237
f 223 238 239
f 302 206 380
f 301 380 206
f 240 241 236
f 230 216 213
f 237 226 240
f 235 213 216
f 242 274 223
f 226 241 240
f 143 206 216
f 241 230 236
f 237 240 235
f 241 226 232
f 236 230 213
f 240 236 235
f 230 241 232
f 216 206 235
f 243 244 245
f 246 247 217
f 204 635 282
f 211 212 248
f 310 249 250
f 360 143 222
f 221 251 249
f 221 360 222
f 252 253 254
f 228 253 252
f 255 256 232
f 245 257 258
f 259 260 261
f 253 262 254
f 252 263 229
f 254 262 264
f 228 262 253
f 287 264 227
f 262 228 227
f 262 227 264
f 265 266 232
f 255 267 256
f 266 255 232
f 266 268 255
f 217 247 218
f 274 276 264
f 252 264 263
f 242 223 269
f 264 252 254
f 271 272 273
f 272 263 276
f 256 270 232
f 228 252 229
f 273 234 265
f 263 264 276
f 265 233 266
f 229 263 271
f 275 246 270
f 256 275 270
f 272 234 273
f 263 272 271
f 234 233 265
f 272 276 234
f 233 268 266
f 267 268 276
f 246 275 276
f 268 267 255
f 267 275 256
f 247 242 218
f 233 276 268
f 267 276 275
f 247 276 274
f 270 217 232
f 227 265 232
f 273 265 227
f 271 273 227
f 229 271 227
f 238 277 278
f 668 206 302
f 301 295 380
f 279 280 257
f 270 246 217
f 242 247 274
f 278 277 243
f 218 242 269
f 277 244 243
f 269 223 239
f 246 276 247
f 238 223 274
f 239 238 278
f 216 245 258
f 244 277 274
f 245 279 257
f 280 279 274
f 244 274 279
f 244 279 245
f 238 274 277
f 280 274 216
f 243 245 216
f 269 239 216
f 239 278 216
f 232 217 216
f 143 216 274
f 218 269 216
f 278 243 216
f 302 359 668
f 258 257 280
f 258 280 216
f 248 212 281
f 143 668 310
f 310 222 143
f 221 310 360
f 281 222 310
f 212 222 281
f 251 212 211
f 310 250 248
f 222 212 221
f 248 281 310
f 249 251 250
f 251 221 212
f 221 249 310
f 250 251 211
f 248 250 211
f 199 283 210
f 380 188 354
f 210 283 290
f 290 283 284
f 286 283 285
f 284 283 286
f 286 288 284
f 285 288 289
f 288 286 289
f 286 285 289
f 290 291 285
f 284 288 291
f 290 284 291
f 288 285 291
f 264 287 274
f 403 668 359
f 296 261 297
f 285 300 289
f 289 299 285
f 299 292 285
f 299 289 300
f 199 300 283
f 285 283 300
f 210 290 292
f 300 199 380
f 285 292 290
f 300 292 299
f 292 199 210
f 300 380 292
f 301 199 259
f 302 380 328
f 315 359 302
f 366 304 305
f 304 306 305
f 408 282 635
f 362 308 353
f 309 308 362
f 380 199 292
f 326 199 363
f 259 199 311
f 668 143 274
f 332 328 380
f 287 668 274
f 327 303 316
f 309 318 308
f 323 327 316
f 296 324 322
f 324 297 311
f 260 259 311
f 298 259 261
f 324 311 325
f 313 296 322
f 298 301 259
f 295 322 321
f 322 325 321
f 199 326 363
f 206 668 287
f 302 328 327
f 296 297 324
f 261 296 313
f 261 260 297
f 261 313 298
f 297 260 311
f 298 313 322
f 295 301 298
f 321 312 295
f 325 311 321
f 324 325 322
f 322 295 298
f 316 303 329
f 311 312 321
f 328 303 327
f 330 316 329
f 331 332 334
f 331 329 332
f 327 323 302
f 330 329 331
f 311 199 312
f 333 334 314
f 312 199 380
f 335 336 337
f 323 330 337
f 333 338 334
f 331 334 338
f 337 330 339
f 341 326 342
f 343 341 342
f 335 315 336
f 323 316 330
f 335 338 333
f 302 323 336
f 329 303 332
f 336 323 337
f 333 314 307
f 303 328 332
f 332 307 314
f 307 332 380
f 315 302 336
f 315 335 333
f 335 337 339
f 330 331 339
f 380 315 307
f 315 333 307
f 339 331 338
f 335 339 338
f 334 332 314
f 344 345 346
f 315 428 359
f 346 348 366
f 344 349 305
f 344 306 345
f 348 346 345
f 348 359 366
f 348 345 304
f 304 345 306
f 349 344 346
f 306 344 305
f 348 304 359
f 349 346 366
f 359 304 366
f 305 349 366
f 318 351 308
f 319 352 320
f 353 308 351
f 309 362 199
f 318 352 351
f 319 309 361
f 309 319 320
f 320 318 309
f 351 352 353
f 361 353 319
f 318 320 352
f 352 319 353
f 309 199 361
f 341 343 355
f 355 343 347
f 342 326 363
f 358 355 347
f 355 358 340
f 343 342 363
f 326 341 340
f 326 340 357
f 340 341 355
f 357 358 347
f 358 357 340
f 347 343 357
f 343 363 357
f 363 326 357
f 380 428 315
f 359 317 294
f 199 408 414
f 380 199 362
f 188 395 354
f 353 361 362
f 362 363 380
f 363 362 361
f 365 294 317
f 380 295 312
f 403 359 294
f 369 370 371
f 364 369 371
f 372 317 356
f 371 356 364
f 293 369 364
f 294 293 364
f 293 294 369
f 371 370 372
f 294 365 369
f 370 317 372
f 369 364 370
f 365 364 369
f 370 364 317
f 364 365 317
f 317 359 366
f 374 507 360
f 367 375 368
f 367 373 376
f 361 199 414
f 360 310 668
f 379 396 416
f 374 378 507
f 379 381 396
f 366 359 428
f 374 367 368
f 371 372 356
f 401 382 387
f 356 294 364
f 403 294 356
f 383 384 385
f 386 317 383
f 390 391 389
f 392 391 416
f 394 379 391
f 374 390 389
f 373 360 416
f 394 391 390
f 374 368 390
f 374 389 377
f 391 392 389
f 375 379 394
f 376 373 396
f 367 376 381
f 379 375 381
f 392 378 377
f 374 373 367
f 395 360 507
f 360 373 374
f 375 367 381
f 381 376 396
f 389 392 377
f 368 394 390
f 375 394 368
f 378 416 507
f 374 377 378
f 380 363 414
f 414 363 361
f 378 392 416
f 382 385 387
f 317 384 383
f 398 382 350
f 387 400 401
f 400 388 401
f 399 388 400
f 387 384 400
f 385 384 387
f 386 383 398
f 397 386 398
f 317 388 399
f 397 317 386
f 382 401 350
f 397 398 350
f 383 382 398
f 384 399 400
f 382 383 385
f 317 399 384
f 401 397 350
f 388 317 366
f 401 388 366
f 391 379 416
f 396 373 416
f 397 401 366
f 356 317 397
f 356 397 403
f 404 461 406
f 403 397 366
f 461 403 433
f 409 410 411
f 412 413 393
f 408 415 414
f 413 405 393
f 410 419 413
f 418 410 413
f 420 421 422
f 423 404 406
f 424 404 423
f 393 409 412
f 409 393 461
f 413 422 405
f 425 426 419
f 425 417 426
f 427 419 410
f 427 425 419
f 420 417 421
f 422 421 405
f 417 461 421
f 425 427 423
f 421 461 405
f 411 418 412
f 409 411 412
f 424 423 427
f 411 410 418
f 417 420 426
f 409 424 410
f 424 427 410
f 424 461 404
f 419 426 422
f 413 419 422
f 418 413 412
f 461 424 409
f 461 417 406
f 417 425 406
f 406 425 423
f 426 420 422
f 393 405 461
f 429 403 428
f 431 407 432
f 433 454 434
f 454 433 403
f 438 436 437
f 507 416 360
f 407 439 408
f 440 441 442
f 439 441 440
f 403 428 443
f 403 366 428
f 443 444 445
f 446 481 447
f 481 446 448
f 443 429 444
f 462 429 428
f 444 449 445
f 448 429 462
f 450 447 451
f 428 403 429
f 429 443 428
f 435 452 453
f 481 448 462
f 447 481 462
f 438 442 436
f 461 433 403
f 403 443 445
f 455 434 456
f 456 453 452
f 453 456 434
f 453 434 454
f 455 433 434
f 455 452 435
f 452 455 456
f 455 435 402
f 402 433 455
f 435 454 402
f 454 435 453
f 402 454 403
f 439 431 441
f 461 457 459
f 467 459 457
f 408 439 437
f 408 437 415
f 441 431 432
f 432 415 436
f 439 438 437
f 439 440 438
f 442 432 436
f 431 439 407
f 432 407 415
f 440 442 438
f 442 441 432
f 436 415 437
f 449 446 481
f 481 446 450
f 480 428 380
f 447 462 451
f 449 429 446
f 444 429 449
f 446 447 450
f 445 449 481
f 446 429 448
f 450 451 462
f 481 450 462
f 433 402 403
f 463 472 464
f 465 460 464
f 465 459 460
f 458 468 469
f 459 470 460
f 470 469 460
f 461 459 466
f 469 468 460
f 458 457 463
f 458 463 468
f 459 467 470
f 461 466 473
f 463 464 474
f 457 461 473
f 472 457 473
f 466 465 473
f 465 472 473
f 463 457 472
f 468 463 474
f 460 468 474
f 466 459 465
f 464 460 474
f 472 465 464
f 470 471 475
f 467 471 470
f 467 457 476
f 471 467 476
f 458 469 475
f 469 470 475
f 475 471 476
f 458 475 476
f 457 458 476
f 635 380 722
f 380 414 478
f 380 478 430
f 643 403 477
f 403 445 477
f 481 477 445
f 643 477 481
f 462 428 643
f 507 360 623
f 668 403 485
f 643 481 462
f 635 517 408
f 360 668 550
f 430 479 482
f 430 478 479
f 482 479 484
f 488 403 495
f 380 354 722
f 482 486 478
f 479 486 487
f 482 484 483
f 484 479 487
f 486 482 483
f 479 478 486
f 484 487 483
f 487 486 483
f 482 478 430
f 380 430 478
f 485 403 488
f 403 643 495
f 709 478 414
f 509 494 496
f 493 489 494
f 491 494 509
f 489 490 496
f 496 490 495
f 489 496 494
f 488 491 509
f 493 494 491
f 490 488 495
f 488 490 491
f 490 489 491
f 489 493 491
f 497 563 498
f 660 407 408
f 758 507 601
f 660 408 517
f 517 635 634
f 550 623 360
f 500 501 541
f 504 505 506
f 510 518 511
f 488 509 485
f 509 496 643
f 643 496 495
f 485 509 643
f 507 526 601
f 503 499 634
f 492 513 512
f 760 507 623
f 505 514 499
f 515 518 510
f 499 503 516
f 505 504 514
f 513 492 517
f 492 512 508
f 506 516 502
f 503 502 516
f 492 508 517
f 634 499 517
f 499 513 517
f 499 514 512
f 512 514 513
f 512 513 499
f 516 506 505
f 499 516 505
f 504 513 514
f 722 634 635
f 524 562 525
f 380 478 527
f 530 531 598
f 532 533 576
f 533 532 526
f 515 533 526
f 518 526 507
f 534 521 506
f 513 504 521
f 534 508 521
f 513 521 512
f 521 504 506
f 660 517 508
f 534 506 502
f 510 535 515
f 503 534 502
f 522 518 536
f 521 508 512
f 537 538 539
f 540 537 539
f 634 534 503
f 537 540 542
f 540 520 542
f 524 543 544
f 545 538 537
f 545 537 542
f 546 545 542
f 540 539 547
f 543 548 544
f 520 540 550
f 550 540 547
f 547 539 573
f 539 538 573
f 576 535 523
f 552 601 553
f 554 528 555
f 556 536 554
f 553 557 558
f 523 511 559
f 526 532 576
f 485 675 668
f 480 380 602
f 602 380 527
f 536 556 522
f 554 536 528
f 709 527 478
f 518 507 555
f 428 485 643
f 560 561 614
f 563 497 564
f 536 518 528
f 526 518 515
f 511 518 522
f 557 565 576
f 556 554 555
f 576 523 555
f 523 559 555
f 559 556 555
f 556 559 522
f 522 559 511
f 518 555 528
f 533 535 576
f 515 535 533
f 562 760 551
f 566 543 524
f 523 535 510
f 523 510 511
f 552 553 558
f 555 562 576
f 548 568 544
f 558 568 552
f 555 507 760
f 508 534 634
f 546 501 569
f 501 546 541
f 541 520 519
f 414 415 717
f 570 549 573
f 660 508 634
f 520 546 542
f 538 545 569
f 545 546 569
f 538 571 573
f 572 501 500
f 501 571 569
f 572 571 501
f 541 573 549
f 573 541 623
f 549 570 574
f 569 571 538
f 549 500 541
f 574 570 575
f 575 572 500
f 573 572 570
f 575 570 572
f 574 500 549
f 573 571 572
f 500 574 575
f 541 546 520
f 552 548 551
f 573 623 550
f 395 507 652
f 543 566 551
f 551 525 562
f 577 601 578
f 354 395 579
f 551 566 525
f 565 557 580
f 612 354 579
f 581 614 582
f 563 584 585
f 485 428 618
f 614 587 583
f 581 588 589
f 590 591 592
f 614 593 594
f 614 594 587
f 568 558 562
f 614 595 560
f 596 577 578
f 565 577 596
f 595 529 531
f 614 602 527
f 563 588 592
f 596 567 576
f 566 524 525
f 601 552 551
f 601 577 580
f 578 601 567
f 562 557 576
f 568 562 544
f 601 580 553
f 565 580 577
f 557 562 558
f 553 580 557
f 596 578 567
f 576 565 596
f 544 562 524
f 548 543 551
f 567 601 576
f 526 576 601
f 548 552 568
f 555 760 562
f 407 717 415
f 519 623 541
f 520 550 519
f 519 550 668
f 573 550 547
f 606 607 608
f 605 609 604
f 610 605 603
f 395 603 579
f 607 579 603
f 579 606 612
f 606 579 607
f 606 609 611
f 605 610 611
f 606 608 609
f 608 607 604
f 609 608 604
f 609 605 611
f 604 607 605
f 612 606 611
f 605 607 603
f 611 610 612
f 603 612 610
f 614 589 602
f 615 585 584
f 588 581 582
f 563 589 588
f 592 588 582
f 616 585 583
f 602 589 563
f 585 615 583
f 591 584 563
f 614 581 589
f 617 590 614
f 563 592 591
f 583 615 614
f 618 428 586
f 597 613 599
f 599 619 600
f 619 586 480
f 613 619 599
f 590 617 591
f 600 597 599
f 613 586 619
f 613 618 586
f 618 613 597
f 618 597 600
f 561 620 614
f 485 618 600
f 563 564 621
f 485 600 480
f 600 619 480
f 586 428 480
f 582 590 592
f 615 617 614
f 595 531 560
f 563 585 616
f 593 564 497
f 594 498 587
f 621 564 620
f 615 584 617
f 614 590 582
f 617 584 591
f 593 614 620
f 583 587 616
f 587 498 616
f 498 563 616
f 564 593 620
f 498 594 497
f 593 497 594
f 620 561 621
f 560 531 530
f 598 531 529
f 561 530 621
f 561 560 530
f 614 529 595
f 598 621 530
f 527 598 529
f 563 621 598
f 527 529 614
f 601 551 760
f 563 480 602
f 480 563 598
f 760 623 630
f 624 625 647
f 710 354 612
f 598 527 622
f 622 480 598
f 626 622 527
f 627 628 629
f 623 700 630
f 630 628 627
f 519 668 623
f 625 632 633
f 629 632 625
f 710 395 652
f 612 603 710
f 603 395 710
f 637 638 639
f 639 644 637
f 485 640 675
f 710 722 354
f 638 637 641
f 639 626 644
f 644 480 622
f 642 637 644
f 641 622 638
f 622 639 638
f 639 622 626
f 641 645 622
f 660 717 407
f 628 636 632
f 624 629 625
f 633 632 636
f 630 627 648
f 658 507 646
f 758 646 507
f 629 628 632
f 648 627 624
f 760 630 648
f 624 627 629
f 628 630 636
f 636 630 700
f 633 647 625
f 700 633 636
f 660 634 722
f 640 485 480
f 622 649 644
f 641 637 642
f 640 480 644
f 622 645 649
f 641 642 645
f 645 642 649
f 642 644 649
f 527 709 626
f 658 651 650
f 648 624 647
f 653 654 655
f 658 657 659
f 657 646 656
f 633 700 647
f 646 657 658
f 653 655 651
f 760 648 647
f 655 656 650
f 652 650 758
f 659 654 653
f 651 655 650
f 655 654 656
f 646 650 656
f 758 650 646
f 658 659 653
f 658 650 652
f 659 656 654
f 658 653 651
f 659 657 656
f 652 507 658
f 663 662 664
f 623 668 701
f 728 661 665
f 728 665 664
f 665 661 667
f 661 666 667
f 662 663 667
f 666 661 728
f 662 667 666
f 667 663 665
f 663 664 665
f 666 722 662
f 701 668 671
f 669 679 670
f 672 670 673
f 640 709 840
f 709 640 626
f 631 601 760
f 678 680 674
f 728 662 722
f 728 664 662
f 674 682 683
f 672 673 683
f 681 669 684
f 674 679 681
f 679 674 414
f 675 729 668
f 679 669 681
f 670 679 680
f 681 684 682
f 684 672 682
f 670 680 678
f 674 681 682
f 674 677 678
f 673 670 678
f 682 672 683
f 673 678 677
f 684 670 672
f 670 684 669
f 683 673 677
f 674 683 677
f 710 652 839
f 674 680 414
f 709 414 680
f 686 689 687
f 676 691 692
f 676 690 691
f 687 692 686
f 688 690 676
f 692 693 686
f 690 688 689
f 692 691 693
f 691 690 693
f 690 689 693
f 693 689 686
f 689 688 675
f 676 687 640
f 640 687 689
f 689 675 640
f 644 626 640
f 694 695 696
f 601 631 758
f 660 759 717
f 697 698 716
f 717 679 414
f 702 703 704
f 705 729 675
f 704 703 706
f 701 671 702
f 701 685 708
f 706 708 685
f 703 671 707
f 701 707 685
f 707 706 685
f 703 702 671
f 703 707 706
f 706 707 708
f 702 704 701
f 704 707 701
f 706 707 704
f 708 707 671
f 671 668 708
f 708 668 729
f 680 679 709
f 711 712 713
f 692 687 676
f 688 676 840
f 840 676 640
f 839 722 710
f 660 767 771
f 716 721 807
f 660 722 721
f 720 735 719
f 821 760 647
f 718 660 721
f 718 767 660
f 821 647 700
f 708 729 701
f 623 701 821
f 821 701 729
f 724 725 726
f 839 666 728
f 709 679 730
f 728 722 839
f 675 839 652
f 772 731 695
f 675 688 840
f 759 660 714
f 771 714 660
f 725 733 737
f 721 734 718
f 736 735 715
f 734 720 719
f 721 699 734
f 738 736 699
f 715 699 736
f 718 719 767
f 697 735 736
f 718 734 719
f 721 716 698
f 734 715 720
f 699 715 734
f 719 735 767
f 771 767 735
f 738 697 736
f 720 715 735
f 698 738 721
f 697 738 698
f 721 738 699
f 735 716 807
f 771 735 807
f 716 735 697
f 722 807 721
f 623 821 700
f 740 741 753
f 666 727 722
f 679 717 730
f 745 753 675
f 747 741 740
f 741 705 753
f 705 747 748
f 729 744 745
f 747 705 741
f 746 744 748
f 729 705 744
f 705 675 753
f 730 750 739
f 722 727 807
f 739 751 732
f 752 751 739
f 747 740 748
f 753 745 746
f 740 753 746
f 748 740 746
f 705 748 744
f 746 745 744
f 729 745 675
f 754 766 751
f 743 754 755
f 675 652 839
f 730 732 709
f 836 840 709
f 733 725 724
f 714 733 724
f 725 723 726
f 733 714 737
f 714 756 759
f 725 737 723
f 756 724 726
f 726 723 757
f 756 726 757
f 714 724 756
f 759 742 737
f 762 714 771
f 756 742 759
f 756 757 742
f 723 742 757
f 742 723 737
f 749 770 737
f 772 712 711
f 839 727 666
f 763 754 752
f 750 743 755
f 730 717 743
f 730 743 750
f 766 754 743
f 765 763 761
f 763 765 755
f 754 763 755
f 739 732 730
f 763 752 761
f 755 765 750
f 754 751 752
f 765 761 739
f 750 765 739
f 761 752 739
f 751 766 732
f 840 729 675
f 732 836 709
f 762 711 737
f 731 772 770
f 713 712 768
f 695 731 696
f 712 769 768
f 737 768 694
f 731 770 749
f 762 772 711
f 769 772 695
f 696 749 737
f 737 711 713
f 737 714 762
f 769 695 694
f 769 712 772
f 713 768 737
f 768 769 694
f 696 731 749
f 694 696 737
f 770 772 717
f 760 821 631
f 770 717 737
f 737 717 759
f 773 775 807
f 773 807 727
f 766 743 717
f 727 839 773
f 729 840 821
f 732 766 836
f 778 779 780
f 772 782 717
f 782 772 762
f 782 762 771
f 781 758 631
f 783 781 631
f 805 786 787
f 789 790 791
f 764 799 807
f 781 778 774
f 822 793 794
f 787 764 805
f 795 796 797
f 798 793 799
f 786 794 800
f 790 775 791
f 794 786 805
f 795 777 796
f 792 796 777
f 805 822 794
f 797 801 791
f 801 797 796
f 793 800 794
f 775 790 792
f 807 775 792
f 773 776 802
f 773 791 775
f 803 795 802
f 807 792 764
f 801 792 789
f 793 798 800
f 807 793 822
f 804 800 798
f 807 799 793
f 792 801 796
f 792 790 789
f 801 789 791
f 764 777 805
f 804 764 787
f 804 787 786
f 839 805 776
f 799 804 798
f 800 804 786
f 764 804 799
f 764 792 777
f 776 805 777
f 773 797 791
f 773 802 797
f 795 797 802
f 839 822 805
f 777 803 776
f 795 803 777
f 773 839 776
f 803 802 776
f 717 836 766
f 808 774 778
f 774 783 631
f 781 812 779
f 785 813 814
f 783 812 781
f 824 774 631
f 631 821 824
f 816 808 780
f 816 780 779
f 820 758 781
f 779 812 816
f 812 808 816
f 783 808 812
f 783 774 808
f 779 778 781
f 780 808 778
f 788 781 785
f 781 774 810
f 788 811 806
f 817 818 819
f 817 809 815
f 781 810 813
f 784 811 788
f 811 784 814
f 820 788 806
f 788 820 781
f 784 785 814
f 809 771 815
f 806 814 810
f 811 814 806
f 781 813 785
f 813 810 814
f 784 788 785
f 823 758 820
f 821 836 717
f 820 806 810
f 810 774 824
f 771 824 782
f 824 717 782
f 815 810 824
f 819 818 826
f 818 824 826
f 815 824 818
f 825 827 828
f 828 826 825
f 819 826 828
f 829 819 828
f 828 827 829
f 817 815 818
f 825 824 827
f 824 825 826
f 817 829 827
f 817 819 829
f 824 809 827
f 717 824 821
f 809 817 827
f 771 809 824
f 815 771 810
f 823 820 810
f 823 810 807
f 771 807 810
f 652 758 823
f 833 834 835
f 839 823 822
f 807 822 823
f 823 839 652
f 836 821 830
f 833 830 834
f 830 837 836
f 837 834 831
f 835 834 832
f 831 835 832
f 837 833 838
f 830 841 832
f 834 830 832
f 834 837 838
f 833 837 830
f 841 830 821
f 835 838 833
f 834 835 831
f 838 835 834
f 832 841 831
f 836 831 841
f 837 831 836
f 836 841 840
f 840 841 821

