# https://github.com/mikedh/trimesh
v 0.01209597 0.04499456 0.06107874
v 0.01188295 0.04496775 0.06107874
v 0.01265839 0.04469967 0.06107874
v 0.01158008 0.04563793 0.04285773
v 0.01148657 0.04563793 0.04285773
v 0.01142590 0.04562899 0.04306998
v 0.01130001 0.04562899 0.04285773
v 0.01101264 0.04482478 0.06107874
v 0.01278793 0.04462819 0.06107874
v 0.01176481 0.04545028 0.04285773
v 0.01279204 0.04462819 0.06085758
v 0.01279842 0.04463713 0.05970539
v 0.01280755 0.04464606 0.05740279
v 0.01280937 0.04464606 0.05625238
v 0.01281256 0.04464606 0.05394979
v 0.01281530 0.04464606 0.05164898
v 0.01281576 0.04464606 0.05049679
v 0.01281576 0.04464606 0.04589159
v 0.01281439 0.04464606 0.04474119
v 0.01274551 0.04455670 0.04358900
v 0.01099713 0.04557538 0.04285773
v 0.01072938 0.04549496 0.04285773
v 0.00984857 0.04513753 0.04285773
v 0.00893675 0.04466393 0.04285773
v 0.01047667 0.04389546 0.06107874
v 0.01299684 0.04387759 0.06107874
v 0.01302056 0.04387759 0.06085758
v 0.01309628 0.04387759 0.05970539
v 0.01311772 0.04387759 0.05855498
v 0.01267207 0.04446735 0.04285773
v 0.01312684 0.04387759 0.05740279
v 0.01313368 0.04387759 0.05625238
v 0.01314007 0.04387759 0.05510019
v 0.01314555 0.04387759 0.05394979
v 0.01315102 0.04387759 0.05279760
v 0.01315512 0.04387759 0.05164898
v 0.01315786 0.04387759 0.05049679
v 0.01315832 0.04387759 0.04934638
v 0.01315832 0.04387759 0.04589159
v 0.01309765 0.04387759 0.04474119
v 0.01267618 0.04445841 0.04285773
v 0.00875749 0.04421715 0.04285773
v 0.00869864 0.04387759 0.04285773
v 0.01044931 0.04297508 0.06107874
v 0.01308990 0.04272487 0.06107874
v 0.01312912 0.04272487 0.06085758
v 0.01328375 0.04272487 0.05970539
v 0.01332754 0.04272487 0.05855498
v 0.01333348 0.04272487 0.05740279
v 0.01333849 0.04272487 0.05625238
v 0.01334305 0.04272487 0.05510019
v 0.01334716 0.04272487 0.05394979
v 0.01335126 0.04272487 0.05279760
v 0.01335446 0.04272487 0.05164898
v 0.01335628 0.04272487 0.05049679
v 0.01335719 0.04272487 0.04934638
v 0.01335719 0.04272487 0.04704378
v 0.01335628 0.04272487 0.04589159
v 0.01323769 0.04272487 0.04474119
v 0.01279295 0.04393120 0.04285773
v 0.01029148 0.03258281 0.06107874
v 0.01030380 0.03351213 0.06107874
v 0.01044429 0.04272487 0.06107874
v 0.00869773 0.04320741 0.04285773
v 0.00944443 -0.03785762 0.06107874
v 0.00944626 -0.03670491 0.06107874
v 0.00945036 -0.03555220 0.06107874
v 0.00946222 -0.03303232 0.06107874
v 0.00946724 -0.03208513 0.06107874
v 0.00947864 -0.03095030 0.06107874
v 0.00949096 -0.02979758 0.06107874
v 0.00950464 -0.02864488 0.06107874
v 0.00951924 -0.02749217 0.06107874
v 0.01309081 0.04157217 0.06107874
v 0.01313004 0.04157217 0.06085758
v 0.01330018 0.04157217 0.05970539
v 0.01335719 0.04157217 0.05855498
v 0.01335719 0.04041945 0.04704378
v 0.01335400 0.04157217 0.04589159
v 0.01323632 0.04157217 0.04474119
v 0.01335719 0.02775751 0.05164898
v 0.01335582 0.03926675 0.04704378
v 0.01288737 0.04157217 0.04285773
v 0.01288418 0.04272487 0.04285773
v 0.01284221 -0.03670491 0.04285773
v 0.01287688 -0.00446476 0.04285773
v 0.01287916 -0.00216828 0.04285773
v 0.01288098 0.00012821 0.04285773
v 0.01288463 0.00818824 0.04285773
v 0.01288555 0.01048473 0.04285773
v 0.01288600 0.01163744 0.04285773
v 0.01288691 0.01509557 0.04285773
v 0.01288737 0.01969748 0.04285773
v 0.00870001 0.04272487 0.04285773
v 0.00944717 -0.04337097 0.06107874
v 0.00944534 -0.04220039 0.06107874
v 0.00944443 -0.04103874 0.06107874
v 0.01309081 0.03444145 0.06107874
v 0.01313004 0.03466484 0.06085758
v 0.01330018 0.04041945 0.05970539
v 0.01335674 0.04041945 0.05855498
v 0.01335719 0.03697026 0.05740279
v 0.01335537 0.03581755 0.04819419
v 0.01334990 0.02775751 0.05049679
v 0.01334944 0.03697026 0.04704378
v 0.01335035 0.04041945 0.04589159
v 0.01283400 -0.04245953 0.04285773
v 0.01283583 -0.04130682 0.04285773
v 0.01284084 -0.03785762 0.04285773
v 0.01335719 0.02660480 0.05279760
v 0.01335537 0.02660480 0.05164898
v 0.00902342 -0.02294387 0.04285773
v 0.00915205 -0.03670491 0.04285773
v 0.00916299 -0.03785762 0.04285773
v 0.00917622 -0.03901033 0.04285773
v 0.00919036 -0.04015411 0.04285773
v 0.00920633 -0.04130682 0.04285773
v 0.00920861 -0.04146766 0.04285773
v 0.00922275 -0.04245953 0.04285773
v 0.00945036 -0.04359437 0.06107874
v 0.01309035 0.03328874 0.06107874
v 0.01312912 0.03235942 0.06085758
v 0.01329835 0.03926675 0.05970539
v 0.01312776 0.03121565 0.06085758
v 0.01335491 0.03926675 0.05855498
v 0.01335674 0.03581755 0.05740279
v 0.01335719 0.03351213 0.05625238
v 0.01335126 0.02545209 0.05164898
v 0.01334488 0.02660480 0.05049679
v 0.01334625 0.03926675 0.04589159
v 0.01287369 -0.03785762 0.04474119
v 0.01283583 -0.04245953 0.04358900
v 0.01278383 -0.04362118 0.04285773
v 0.01333986 0.03812297 0.04589159
v 0.01333849 0.02545209 0.05049679
v 0.01332526 0.02315561 0.05049679
v 0.01330519 0.01969748 0.05049679
v 0.01329790 0.01854476 0.05049679
v 0.01334488 0.02430832 0.05164898
v 0.01332937 0.02200290 0.05164898
v 0.01331340 0.01969748 0.05164898
v 0.01316425 0.00012821 0.04934638
v 0.01335719 0.02775751 0.05394979
v 0.01335491 0.02545209 0.05279760
v 0.00924145 -0.04361224 0.04285773
v 0.00942847 -0.04476495 0.04285773
v 0.00963875 -0.04454156 0.06107874
v 0.01308990 0.03214496 0.06107874
v 0.01308716 0.02983954 0.06107874
v 0.01312547 0.03006293 0.06085758
v 0.01312274 0.02891023 0.06085758
v 0.01311042 0.02545209 0.06085758
v 0.01328193 0.03466484 0.05970539
v 0.01334260 0.03581755 0.05855498
v 0.01335446 0.03466484 0.05740279
v 0.01335537 0.03235942 0.05625238
v 0.01334442 0.03581755 0.04704378
v 0.01286456 -0.03901033 0.04474119
v 0.01329607 0.01740099 0.05164898
v 0.01318933 0.00357740 0.05049679
v 0.01283263 -0.04245953 0.04474119
v 0.01284632 -0.04130682 0.04474119
v 0.01284358 -0.04130682 0.04589159
v 0.01281849 -0.04245953 0.04589159
v 0.01279842 -0.04245953 0.04704378
v 0.01267618 -0.04306716 0.05009726
v 0.01274460 -0.04396073 0.04285773
v 0.01334807 0.02430832 0.05279760
v 0.01330474 0.01854476 0.05164898
v 0.01335446 0.02660480 0.05394979
v 0.01334807 0.02545209 0.05394979
v 0.00993159 -0.04556917 0.04285773
v 0.00969622 -0.04476495 0.06107874
v 0.01308488 0.02868683 0.06107874
v 0.01306481 0.02177950 0.06107874
v 0.01305477 0.01833031 0.06107874
v 0.01304109 0.01371947 0.06107874
v 0.01303698 0.01256676 0.06107874
v 0.01302877 0.01027027 0.06107874
v 0.01307302 0.01509557 0.06085758
v 0.01327281 0.03235942 0.05970539
v 0.01326095 0.03006293 0.05970539
v 0.01333621 0.03466484 0.05855498
v 0.01334944 0.03351213 0.05740279
v 0.01335126 0.03121565 0.05625238
v 0.01297540 -0.02404297 0.04819419
v 0.01316197 0.00012821 0.05049679
v 0.01324133 0.01048473 0.05164898
v 0.01283674 -0.04130682 0.04704378
v 0.01287734 -0.03670491 0.04704378
v 0.01286776 -0.03785762 0.04704378
v 0.01285772 -0.03901033 0.04704378
v 0.01284769 -0.04015411 0.04704378
v 0.01296628 -0.02518674 0.04819419
v 0.01276923 -0.04245953 0.04819419
v 0.01281348 -0.04130682 0.04819419
v 0.01266569 -0.04291525 0.05086599
v 0.01239292 -0.04361224 0.05740279
v 0.01242804 -0.04361224 0.05625238
v 0.01245997 -0.04361224 0.05510019
v 0.01270856 -0.04424667 0.04285773
v 0.01333940 0.02430832 0.05394979
v 0.01332070 0.02085019 0.05279760
v 0.01334761 0.02775751 0.05510019
v 0.01334032 0.02660480 0.05510019
v 0.01022352 -0.04559597 0.04285773
v 0.01015145 -0.04544407 0.06107874
v 0.01005794 -0.04531003 0.06107874
v 0.01302421 0.00911756 0.06107874
v 0.01301919 0.00796485 0.06107874
v 0.01305888 0.01163744 0.06085758
v 0.01304839 0.00934095 0.06085758
v 0.01304246 0.00818824 0.06085758
v 0.01325319 0.02891023 0.05970539
v 0.01302923 0.00588282 0.06085758
v 0.01302193 0.00473011 0.06085758
v 0.01332709 0.03351213 0.05855498
v 0.01334260 0.03235942 0.05740279
v 0.01334533 0.03006293 0.05625238
v 0.01314372 -0.00216828 0.05049679
v 0.01323221 0.00934095 0.05164898
v 0.01285590 -0.03785762 0.04819419
v 0.01284404 -0.03901033 0.04819419
v 0.01283035 -0.04015411 0.04819419
v 0.01295670 -0.02633946 0.04819419
v 0.01290653 -0.03210301 0.04819419
v 0.01286639 -0.03670491 0.04819419
v 0.01268393 -0.04214678 0.05144743
v 0.01273411 -0.04245953 0.04934638
v 0.01281849 -0.03670491 0.05049679
v 0.01280526 -0.03324678 0.05279760
v 0.01280253 -0.03555220 0.05164898
v 0.01279979 -0.03785762 0.05049679
v 0.01279705 -0.04015411 0.04934638
v 0.01277653 -0.04130682 0.04934638
v 0.01267116 -0.04186977 0.05221259
v 0.01252337 -0.04245953 0.05625238
v 0.01248734 -0.04245953 0.05740279
v 0.01244948 -0.04245953 0.05855498
v 0.01241162 -0.04245953 0.05970539
v 0.01237330 -0.04245953 0.06085758
v 0.01235186 -0.04361224 0.05855498
v 0.01197920 -0.04476495 0.05855498
v 0.01201341 -0.04476495 0.05740279
v 0.01157506 -0.04539045 0.06107874
v 0.01158099 -0.04539045 0.06085758
v 0.01159422 -0.04539939 0.05970539
v 0.01160699 -0.04540832 0.05855498
v 0.01161885 -0.04541726 0.05740279
v 0.01162934 -0.04542620 0.05625238
v 0.01163937 -0.04543513 0.05510019
v 0.01165762 -0.04544407 0.05279760
v 0.01166537 -0.04544407 0.05164898
v 0.01167267 -0.04544407 0.05049679
v 0.01167860 -0.04544407 0.04934638
v 0.01168453 -0.04544407 0.04819419
v 0.01169001 -0.04544407 0.04704378
v 0.01170095 -0.04544407 0.04474119
v 0.01198604 -0.04505089 0.04285773
v 0.01332982 0.02315561 0.05394979
v 0.01331112 0.01969748 0.05279760
v 0.01331660 0.02660480 0.05625238
v 0.01324544 0.01854476 0.05625238
v 0.01330975 0.02315561 0.05510019
v 0.01330975 0.02085019 0.05394979
v 0.01333348 0.03121565 0.05740279
v 0.01332344 0.03006293 0.05740279
v 0.01094513 -0.04564959 0.04285773
v 0.01094513 -0.04549768 0.06085758
v 0.01096383 -0.04548875 0.06107874
v 0.01300825 0.00565943 0.06107874
v 0.01323495 0.02660480 0.05970539
v 0.01301326 0.00357740 0.06085758
v 0.01300141 0.00451565 0.06107874
v 0.01299365 0.00336294 0.06107874
v 0.01297723 0.00105752 0.06107874
v 0.01296902 -0.00008625 0.06107874
v 0.01295214 -0.00238274 0.06107874
v 0.01329926 0.03006293 0.05855498
v 0.01299502 0.00128092 0.06085758
v 0.01322263 0.00818824 0.05164898
v 0.01292295 -0.02864488 0.04934638
v 0.01287141 -0.02979758 0.05164898
v 0.01284951 -0.03210301 0.05164898
v 0.01321077 0.00818824 0.05279760
v 0.01283765 -0.01598293 0.06085758
v 0.01283446 -0.03555220 0.05049679
v 0.01282305 -0.03210301 0.05279760
v 0.01283400 -0.02058484 0.05855498
v 0.01282260 -0.01713564 0.06085758
v 0.01326140 0.01394286 0.05279760
v 0.01323130 0.01048473 0.05279760
v 0.01322126 0.00934095 0.05279760
v 0.01281530 -0.02404297 0.05740279
v 0.01280435 -0.01827942 0.06085758
v 0.01279888 -0.02289026 0.05855498
v 0.01279067 -0.02979758 0.05510019
v 0.01268393 -0.04006475 0.05280117
v 0.01277014 -0.03095030 0.05510019
v 0.01251151 -0.03901033 0.05855498
v 0.01236281 -0.04245953 0.06107874
v 0.01225288 -0.04361224 0.06085758
v 0.01230397 -0.04361224 0.05970539
v 0.01243488 -0.03901033 0.06085758
v 0.01266249 -0.02583012 0.06107874
v 0.01238379 -0.04130682 0.06107874
v 0.01189253 -0.04476495 0.06085758
v 0.01193769 -0.04476495 0.05970539
v 0.01181271 -0.04490792 0.06107874
v 0.01108881 -0.04547088 0.06107874
v 0.01119920 -0.04559597 0.04285773
v 0.01162067 -0.04540832 0.04285773
v 0.01308579 0.00588282 0.05855498
v 0.01326916 0.02660480 0.05855498
v 0.01311316 0.01163744 0.05970539
v 0.01295716 -0.00332099 0.06085758
v 0.01326779 0.01854476 0.05510019
v 0.01329926 0.01969748 0.05394979
v 0.01293390 -0.00468816 0.06107874
v 0.01312319 0.01279015 0.05970539
v 0.01297632 -0.00101557 0.06085758
v 0.01286502 -0.02404297 0.05510019
v 0.01324498 0.01394286 0.05394979
v 0.01284905 -0.01713564 0.05970539
v 0.01285042 -0.01483022 0.06085758
v 0.01283948 -0.01483022 0.06107874
v 0.01282579 -0.01598293 0.06107874
v 0.01280983 -0.01713564 0.06107874
v 0.01279112 -0.01827942 0.06107874
v 0.01269032 -0.02426636 0.06107874
v 0.01267891 -0.02490974 0.06107874
v 0.01265930 -0.02643775 0.06085401
v 0.01277835 -0.02404297 0.05855498
v 0.01271130 -0.03210301 0.05625238
v 0.01223783 -0.04361224 0.06107874
v 0.01186744 -0.04478282 0.06107874
v 0.01306481 0.00357740 0.05855498
v 0.01292432 -0.00584087 0.06107874
v 0.01289421 -0.00929900 0.06107874
v 0.01289421 -0.01022832 0.06085758
v 0.01318249 0.01163744 0.05625238
v 0.01324635 0.01624828 0.05510019
v 0.01288190 -0.01367751 0.05970539
v 0.01288372 -0.01044277 0.06107874
v 0.01287460 -0.01137209 0.06107874
v 0.01286320 -0.01252480 0.06107874
f 1 2 8
f 1 8 25
f 1 25 44
f 1 44 63
f 1 63 62
f 1 62 61
f 1 61 73
f 1 73 72
f 1 72 71
f 1 71 70
f 1 70 69
f 1 69 68
f 1 68 67
f 1 67 66
f 1 66 65
f 1 65 97
f 1 97 96
f 1 96 95
f 1 95 120
f 1 120 147
f 1 147 173
f 1 173 208
f 1 208 207
f 1 207 270
f 1 270 310
f 1 310 245
f 1 245 309
f 1 309 336
f 1 336 335
f 1 335 301
f 1 301 306
f 1 306 305
f 1 305 331
f 1 331 330
f 1 330 329
f 1 329 328
f 1 328 327
f 1 327 326
f 1 326 346
f 1 346 345
f 1 345 344
f 1 344 339
f 1 339 338
f 1 338 319
f 1 319 278
f 1 278 277
f 1 277 276
f 1 276 275
f 1 275 274
f 1 274 271
f 1 271 210
f 1 210 209
f 1 209 179
f 1 179 178
f 1 178 177
f 1 177 176
f 1 176 175
f 1 175 174
f 1 174 149
f 1 149 148
f 1 148 121
f 1 121 98
f 1 98 74
f 1 74 45
f 1 45 26
f 1 26 9
f 1 9 3
f 1 3 4
f 1 4 5
f 1 5 6
f 1 6 7
f 1 7 2
f 2 7 8
f 3 9 4
f 4 10 30
f 4 30 41
f 4 41 60
f 4 60 84
f 4 84 83
f 4 83 93
f 4 93 92
f 4 92 91
f 4 91 90
f 4 90 89
f 4 89 88
f 4 88 87
f 4 87 86
f 4 86 85
f 4 85 109
f 4 109 108
f 4 108 107
f 4 107 133
f 4 133 167
f 4 167 201
f 4 201 259
f 4 259 312
f 4 312 311
f 4 311 268
f 4 268 206
f 4 206 172
f 4 172 146
f 4 146 145
f 4 145 119
f 4 119 118
f 4 118 117
f 4 117 116
f 4 116 115
f 4 115 114
f 4 114 113
f 4 113 112
f 4 112 94
f 4 94 64
f 4 64 43
f 4 43 42
f 4 42 24
f 4 24 23
f 4 23 22
f 4 22 21
f 4 21 7
f 4 7 5
f 4 9 11
f 4 11 12
f 4 12 13
f 4 13 14
f 4 14 15
f 4 15 16
f 4 16 17
f 4 17 18
f 4 18 19
f 4 19 20
f 4 20 10
f 5 7 6
f 7 21 8
f 8 21 22
f 8 22 23
f 8 23 24
f 8 24 25
f 9 26 27
f 9 27 28
f 9 28 29
f 9 29 11
f 10 20 30
f 11 29 12
f 12 29 31
f 12 31 32
f 12 32 13
f 13 32 33
f 13 33 34
f 13 34 35
f 13 35 36
f 13 36 37
f 13 37 14
f 14 37 15
f 15 37 16
f 16 37 38
f 16 38 17
f 17 38 39
f 17 39 18
f 18 39 19
f 19 39 40
f 19 40 20
f 20 41 30
f 20 40 41
f 24 42 25
f 25 42 43
f 25 43 44
f 26 45 46
f 26 46 47
f 26 47 27
f 27 47 28
f 28 47 48
f 28 48 29
f 29 48 31
f 31 48 32
f 32 48 33
f 33 48 49
f 33 49 34
f 34 49 35
f 35 49 50
f 35 50 51
f 35 51 36
f 36 51 52
f 36 52 53
f 36 53 54
f 36 54 37
f 37 54 55
f 37 55 56
f 37 56 38
f 38 56 57
f 38 57 39
f 39 57 58
f 39 58 40
f 40 58 59
f 40 59 60
f 40 60 41
f 43 61 62
f 43 62 63
f 43 63 44
f 43 64 65
f 43 65 66
f 43 66 67
f 43 67 68
f 43 68 69
f 43 69 70
f 43 70 71
f 43 71 72
f 43 72 73
f 43 73 61
f 45 74 75
f 45 75 46
f 46 75 76
f 46 76 47
f 47 76 77
f 47 77 48
f 48 77 49
f 49 77 50
f 50 77 51
f 51 77 52
f 52 77 53
f 53 77 54
f 54 77 55
f 55 77 56
f 56 77 102
f 56 102 127
f 56 127 143
f 56 143 110
f 56 110 81
f 56 81 78
f 56 78 57
f 57 78 58
f 58 79 80
f 58 80 59
f 58 78 81
f 58 81 82
f 58 82 79
f 59 83 84
f 59 84 60
f 59 80 109
f 59 109 85
f 59 85 86
f 59 86 87
f 59 87 88
f 59 88 89
f 59 89 90
f 59 90 91
f 59 91 92
f 59 92 93
f 59 93 83
f 64 94 95
f 64 95 96
f 64 96 97
f 64 97 65
f 74 98 99
f 74 99 75
f 75 99 100
f 75 100 76
f 76 100 77
f 77 100 101
f 77 101 126
f 77 126 102
f 79 82 103
f 79 103 104
f 79 104 105
f 79 105 106
f 79 106 107
f 79 107 80
f 80 107 108
f 80 108 109
f 81 110 111
f 81 111 103
f 81 103 82
f 94 112 95
f 95 112 113
f 95 113 114
f 95 114 115
f 95 115 116
f 95 116 117
f 95 117 118
f 95 118 119
f 95 119 120
f 98 121 122
f 98 122 99
f 99 122 100
f 100 123 125
f 100 125 101
f 100 122 124
f 100 124 123
f 101 125 126
f 102 126 127
f 103 111 104
f 104 111 128
f 104 128 129
f 104 129 130
f 104 130 105
f 105 130 106
f 106 130 107
f 107 131 132
f 107 132 133
f 107 130 134
f 107 134 135
f 107 135 136
f 107 136 137
f 107 137 138
f 107 138 139
f 107 139 140
f 107 140 141
f 107 141 142
f 107 142 131
f 110 143 144
f 110 144 111
f 111 144 128
f 119 145 120
f 120 145 146
f 120 146 147
f 121 148 122
f 122 148 149
f 122 149 124
f 123 124 150
f 123 150 151
f 123 151 152
f 123 152 153
f 123 153 125
f 124 149 174
f 124 174 150
f 125 153 154
f 125 154 155
f 125 155 126
f 126 155 156
f 126 156 143
f 126 143 127
f 128 144 139
f 128 139 135
f 128 135 129
f 129 135 157
f 129 157 130
f 130 157 134
f 131 158 132
f 131 142 159
f 131 159 160
f 131 160 158
f 132 161 133
f 132 158 162
f 132 162 163
f 132 163 161
f 133 161 164
f 133 164 165
f 133 165 166
f 133 166 167
f 134 157 135
f 135 139 136
f 136 139 137
f 137 139 138
f 139 144 168
f 139 168 140
f 140 168 141
f 141 168 169
f 141 169 142
f 142 169 159
f 143 170 144
f 143 156 170
f 144 171 168
f 144 170 171
f 146 172 173
f 146 173 147
f 150 174 151
f 151 174 175
f 151 175 176
f 151 176 177
f 151 177 178
f 151 178 152
f 152 178 179
f 152 179 180
f 152 180 153
f 153 181 154
f 153 180 179
f 153 179 209
f 153 209 181
f 154 181 182
f 154 182 183
f 154 183 184
f 154 184 155
f 155 184 185
f 155 185 170
f 155 170 156
f 158 186 162
f 158 160 187
f 158 187 186
f 159 188 160
f 159 169 168
f 159 168 203
f 159 203 188
f 160 188 187
f 161 163 189
f 161 189 164
f 162 186 163
f 163 190 191
f 163 191 192
f 163 192 193
f 163 193 189
f 163 186 194
f 163 194 190
f 164 189 165
f 165 195 166
f 165 189 196
f 165 196 195
f 166 195 197
f 166 197 198
f 166 198 199
f 166 199 200
f 166 200 201
f 166 201 167
f 168 171 202
f 168 202 203
f 170 204 171
f 170 185 204
f 171 204 205
f 171 205 202
f 172 206 207
f 172 207 208
f 172 208 173
f 181 209 210
f 181 210 211
f 181 211 212
f 181 212 213
f 181 213 182
f 182 214 183
f 182 213 215
f 182 215 216
f 182 216 214
f 183 214 272
f 183 272 217
f 183 217 218
f 183 218 184
f 184 218 219
f 184 219 204
f 184 204 185
f 186 220 194
f 186 187 220
f 187 188 220
f 188 221 220
f 188 203 221
f 189 193 222
f 189 222 223
f 189 223 224
f 189 224 196
f 190 194 225
f 190 225 191
f 191 225 226
f 191 226 192
f 192 226 227
f 192 227 193
f 193 227 222
f 194 220 225
f 195 228 229
f 195 229 197
f 195 196 228
f 196 224 230
f 196 230 294
f 196 294 231
f 196 231 232
f 196 232 233
f 196 233 234
f 196 234 235
f 196 235 236
f 196 236 228
f 197 229 237
f 197 237 238
f 197 238 239
f 197 239 240
f 197 240 198
f 198 240 241
f 198 241 242
f 198 242 201
f 198 201 199
f 199 201 200
f 201 243 244
f 201 244 245
f 201 245 246
f 201 246 247
f 201 247 248
f 201 248 249
f 201 249 250
f 201 250 251
f 201 251 252
f 201 252 253
f 201 253 254
f 201 254 255
f 201 255 256
f 201 256 257
f 201 257 258
f 201 258 259
f 201 242 243
f 202 205 260
f 202 260 261
f 202 261 203
f 203 261 281
f 203 281 221
f 204 219 205
f 205 262 263
f 205 263 264
f 205 264 265
f 205 265 260
f 205 219 218
f 205 218 266
f 205 266 267
f 205 267 262
f 206 268 207
f 207 268 269
f 207 269 270
f 210 271 212
f 210 212 211
f 212 271 213
f 213 271 215
f 214 216 273
f 214 273 272
f 215 271 274
f 215 274 216
f 216 274 275
f 216 275 276
f 216 276 277
f 216 277 278
f 216 278 273
f 217 279 266
f 217 266 218
f 217 272 280
f 217 280 279
f 220 221 281
f 220 281 225
f 222 282 283
f 222 283 284
f 222 284 223
f 222 227 293
f 222 293 285
f 222 285 282
f 223 284 286
f 223 286 287
f 223 287 224
f 224 288 230
f 224 287 289
f 224 289 290
f 224 290 288
f 225 281 291
f 225 291 292
f 225 292 226
f 226 292 227
f 227 292 293
f 228 236 237
f 228 237 229
f 230 288 290
f 230 290 294
f 231 294 295
f 231 295 232
f 232 295 296
f 232 296 233
f 233 296 297
f 233 297 234
f 234 297 299
f 234 299 235
f 235 298 240
f 235 240 236
f 235 299 298
f 236 240 239
f 236 239 238
f 236 238 237
f 240 298 300
f 240 300 241
f 241 301 302
f 241 302 303
f 241 303 242
f 241 300 304
f 241 304 305
f 241 305 306
f 241 306 301
f 242 303 307
f 242 307 308
f 242 308 243
f 243 308 245
f 243 245 244
f 245 248 247
f 245 247 246
f 245 308 307
f 245 307 309
f 245 310 269
f 245 269 250
f 245 250 249
f 245 249 248
f 250 269 251
f 251 269 268
f 251 268 252
f 252 268 311
f 252 311 253
f 253 311 254
f 254 311 255
f 255 311 256
f 256 311 257
f 257 311 258
f 258 311 312
f 258 312 259
f 260 265 292
f 260 292 291
f 260 291 261
f 261 291 281
f 262 267 263
f 263 313 264
f 263 267 314
f 263 314 315
f 263 315 316
f 263 316 313
f 264 313 337
f 264 337 317
f 264 317 318
f 264 318 265
f 265 318 285
f 265 285 293
f 265 293 292
f 266 279 314
f 266 314 267
f 269 310 270
f 272 273 280
f 273 278 319
f 273 319 280
f 279 320 315
f 279 315 314
f 279 280 321
f 279 321 316
f 279 316 320
f 280 319 321
f 282 322 283
f 282 285 323
f 282 323 322
f 283 322 284
f 284 322 324
f 284 324 286
f 285 318 323
f 286 324 325
f 286 325 326
f 286 326 327
f 286 327 290
f 286 290 289
f 286 289 287
f 290 327 328
f 290 328 295
f 290 295 294
f 295 328 329
f 295 329 330
f 295 330 331
f 295 331 332
f 295 332 296
f 296 332 333
f 296 333 299
f 296 299 297
f 298 299 334
f 298 334 300
f 299 333 332
f 299 332 334
f 300 334 332
f 300 332 304
f 301 335 302
f 302 335 307
f 302 307 303
f 304 332 331
f 304 331 305
f 307 336 309
f 307 335 336
f 313 316 337
f 315 320 316
f 316 321 319
f 316 319 338
f 316 338 339
f 316 339 340
f 316 340 337
f 317 337 341
f 317 341 342
f 317 342 318
f 318 342 341
f 318 341 323
f 322 343 324
f 322 323 343
f 323 341 340
f 323 340 343
f 324 343 340
f 324 340 325
f 325 340 344
f 325 344 345
f 325 345 346
f 325 346 326
f 337 340 341
f 339 344 340

