o convex_0
v -0.046708 -0.052552 0.040580
v 0.087878 0.020401 0.060032
v 0.087878 0.005813 0.060032
v 0.086251 -0.037953 -0.119917
v -0.083992 0.052849 -0.118274
v -0.087245 0.046349 0.118388
v 0.087878 0.051219 -0.116679
v -0.085619 -0.046052 -0.119893
v 0.084625 -0.050922 0.120030
v -0.087245 -0.050922 0.118388
v 0.086251 0.046349 0.120007
v 0.087878 -0.047682 -0.118274
v -0.007781 0.052849 -0.027466
v 0.010040 -0.050922 -0.085870
v -0.069407 0.049599 -0.121559
v -0.088871 0.018792 0.038937
v -0.038594 0.044740 0.121673
v 0.074902 0.047979 0.113554
v 0.050576 -0.052552 0.094079
v 0.074902 0.052839 -0.103703
v -0.087245 0.049599 -0.077775
v -0.043456 0.049599 0.079507
v -0.088871 -0.050922 0.095721
v 0.073276 -0.028224 0.121673
v -0.083992 -0.046062 -0.121559
v 0.086251 -0.049302 0.110316
v -0.088871 0.044729 0.118388
v -0.058058 -0.049302 -0.090727
v 0.081373 0.005813 -0.119917
v -0.087245 -0.005515 -0.089108
v 0.084625 0.044729 0.121673
v -0.054805 -0.052552 0.107078
v -0.083992 -0.013625 0.120030
v 0.024625 -0.052552 0.022723
v -0.015895 -0.033083 -0.121536
v 0.027877 0.051219 0.029223
v -0.087245 -0.050922 0.050318
v -0.007781 -0.013625 0.121673
v 0.087878 -0.044442 0.001652
v 0.081373 0.049589 -0.118298
v 0.045715 -0.050922 -0.055061
v -0.085619 0.051219 -0.118274
v -0.058058 0.052849 -0.061537
v 0.082999 -0.050922 0.069746
v -0.012642 -0.049302 -0.106964
v 0.087878 0.049599 -0.019371
v -0.051570 -0.041192 0.120030
v -0.069407 0.047979 0.103816
v 0.057064 0.052849 -0.069656
v 0.016528 0.049599 0.085984
v -0.085619 0.044740 0.120030
v -0.025618 -0.050922 -0.071251
v -0.006172 -0.052552 0.003295
v -0.087245 -0.034703 -0.064799
v -0.088871 -0.018484 0.045437
v 0.086251 0.051219 -0.055061
v -0.014268 0.051219 0.037342
v -0.088871 -0.050922 0.115173
v -0.080757 -0.047682 -0.100441
v -0.066155 -0.052552 0.084341
v 0.031113 0.052849 -0.116655
v -0.064546 -0.047682 -0.116679
v 0.035974 0.047979 0.115150
v -0.087245 0.030131 -0.092346
f 42 8 64 
f 2 3 7 
f 3 2 11 
f 7 3 12 
f 4 7 12 
f 11 6 17 
f 6 5 21 
f 4 12 25 
f 3 11 26 
f 11 9 26 
f 9 12 26 
f 6 21 27 
f 21 16 27 
f 16 23 27 
f 7 4 29 
f 9 11 31 
f 11 17 31 
f 24 9 31 
f 17 24 31 
f 9 10 32 
f 1 19 32 
f 19 9 32 
f 19 1 34 
f 4 25 35 
f 25 15 35 
f 29 4 35 
f 15 29 35 
f 23 8 37 
f 28 1 37 
f 24 17 38 
f 17 33 38 
f 12 3 39 
f 3 26 39 
f 26 12 39 
f 7 29 40 
f 29 15 40 
f 14 12 41 
f 34 14 41 
f 19 34 41 
f 5 15 42 
f 21 5 42 
f 25 8 42 
f 15 25 42 
f 13 5 43 
f 12 9 44 
f 9 19 44 
f 41 12 44 
f 19 41 44 
f 12 14 45 
f 14 28 45 
f 2 7 46 
f 11 2 46 
f 10 9 47 
f 9 24 47 
f 33 10 47 
f 24 38 47 
f 38 33 47 
f 5 6 48 
f 43 5 48 
f 22 43 48 
f 5 13 49 
f 18 20 49 
f 13 36 49 
f 36 18 49 
f 18 36 50 
f 22 48 50 
f 17 6 51 
f 6 27 51 
f 27 10 51 
f 10 33 51 
f 33 17 51 
f 1 28 52 
f 28 14 52 
f 34 1 53 
f 14 34 53 
f 1 52 53 
f 52 14 53 
f 8 23 54 
f 30 8 54 
f 30 54 55 
f 23 16 55 
f 16 30 55 
f 54 23 55 
f 18 11 56 
f 7 20 56 
f 20 18 56 
f 46 7 56 
f 11 46 56 
f 36 13 57 
f 13 43 57 
f 43 22 57 
f 22 50 57 
f 50 36 57 
f 10 27 58 
f 27 23 58 
f 32 10 58 
f 8 25 59 
f 37 8 59 
f 28 37 59 
f 1 32 60 
f 23 37 60 
f 37 1 60 
f 58 23 60 
f 32 58 60 
f 15 5 61 
f 20 7 61 
f 7 40 61 
f 40 15 61 
f 5 49 61 
f 49 20 61 
f 25 12 62 
f 12 45 62 
f 45 28 62 
f 59 25 62 
f 28 59 62 
f 6 11 63 
f 11 18 63 
f 48 6 63 
f 18 50 63 
f 50 48 63 
f 16 21 64 
f 8 30 64 
f 30 16 64 
f 21 42 64 
