o convex_0
v -0.034592 -0.097677 -0.011015
v -0.104181 -0.006245 -0.008588
v -0.104181 -0.006245 -0.007779
v -0.003840 0.011550 -0.008588
v -0.003840 -0.104144 -0.007779
v -0.003840 -0.010300 -0.012633
v -0.101745 0.011550 -0.011824
v -0.003840 -0.102536 -0.012633
v -0.067761 -0.073392 -0.012633
v -0.076660 -0.070152 -0.007779
v -0.099319 0.011550 -0.007779
v -0.093652 -0.041846 -0.011824
v -0.003840 0.011550 -0.011824
v -0.053205 -0.089578 -0.007779
v -0.095272 -0.041846 -0.007779
v -0.054010 -0.085534 -0.012633
v -0.054010 -0.039422 -0.012633
v -0.101745 -0.015159 -0.011824
v -0.075854 -0.069348 -0.011824
v -0.020027 -0.102536 -0.007779
v -0.060473 -0.083914 -0.011015
v -0.086374 -0.057216 -0.010206
v -0.017601 -0.100916 -0.012633
v -0.104181 0.010734 -0.007779
v -0.100939 -0.025671 -0.008588
f 18 12 25 
f 4 5 6 
f 6 5 8 
f 6 8 9 
f 5 3 10 
f 5 4 11 
f 3 5 11 
f 4 7 11 
f 4 6 13 
f 7 4 13 
f 6 7 13 
f 5 10 14 
f 10 3 15 
f 9 8 16 
f 7 6 17 
f 9 7 17 
f 6 9 17 
f 2 7 18 
f 7 9 18 
f 9 12 18 
f 12 9 19 
f 9 16 19 
f 8 5 20 
f 14 1 20 
f 5 14 20 
f 1 14 21 
f 14 10 21 
f 16 1 21 
f 10 19 21 
f 19 16 21 
f 10 15 22 
f 15 12 22 
f 12 19 22 
f 19 10 22 
f 1 16 23 
f 16 8 23 
f 20 1 23 
f 8 20 23 
f 2 3 24 
f 7 2 24 
f 3 11 24 
f 11 7 24 
f 3 2 25 
f 15 3 25 
f 12 15 25 
f 2 18 25 
o convex_1
v 0.084356 -0.066120 -0.011824
v -0.003827 -0.104144 -0.011015
v 0.009923 -0.104144 -0.011015
v 0.109440 0.011550 -0.007779
v -0.003827 0.011550 -0.011824
v -0.003827 -0.104144 -0.007779
v -0.003827 0.011550 -0.008588
v 0.105403 0.005886 -0.012633
v -0.003827 -0.102536 -0.012633
v 0.072224 -0.079871 -0.007779
v 0.056033 -0.088774 -0.012633
v -0.003827 -0.009496 -0.012633
v 0.102165 -0.038617 -0.007779
v 0.102975 -0.028095 -0.012633
v 0.042293 -0.097677 -0.007779
v 0.107832 0.011550 -0.011824
v 0.108641 -0.012724 -0.010206
v 0.034198 -0.098481 -0.012633
v 0.094879 -0.048313 -0.012633
v 0.090832 -0.059640 -0.007779
v 0.026103 -0.102536 -0.007779
v 0.073843 -0.075827 -0.012633
v 0.108641 -0.015148 -0.007779
v 0.102165 -0.036998 -0.011015
v 0.056033 -0.090382 -0.011015
v 0.108641 -0.001397 -0.011824
v 0.003447 -0.005452 -0.012633
v 0.107022 0.011550 -0.007779
v 0.094070 -0.053173 -0.011015
v -0.003827 -0.101720 -0.007779
f 53 32 55 
f 30 27 31 
f 27 28 31 
f 29 30 32 
f 30 31 32 
f 28 27 34 
f 27 30 34 
f 29 31 35 
f 34 33 36 
f 34 30 37 
f 33 34 37 
f 29 35 38 
f 36 33 39 
f 35 31 40 
f 30 29 41 
f 33 30 41 
f 28 34 43 
f 34 36 43 
f 36 39 44 
f 35 26 45 
f 38 35 45 
f 31 28 46 
f 40 31 46 
f 28 43 46 
f 43 40 46 
f 26 35 47 
f 44 26 47 
f 36 44 47 
f 29 38 48 
f 42 29 48 
f 42 48 49 
f 39 42 49 
f 44 39 49 
f 48 38 49 
f 35 40 50 
f 43 36 50 
f 40 43 50 
f 47 35 50 
f 36 47 50 
f 39 33 51 
f 41 29 51 
f 33 41 51 
f 42 39 51 
f 29 42 51 
f 30 33 52 
f 37 30 52 
f 33 37 52 
f 31 29 53 
f 29 32 53 
f 26 44 54 
f 45 26 54 
f 38 45 54 
f 44 49 54 
f 49 38 54 
f 32 31 55 
f 31 53 55 
o convex_2
v -0.080705 0.067391 -0.011824
v 0.005868 0.109476 -0.007779
v 0.014773 0.108661 -0.007779
v -0.103371 0.011561 -0.007779
v 0.014773 0.011561 -0.011824
v 0.014773 0.106236 -0.011824
v 0.014773 0.011561 -0.008588
v -0.101741 0.011561 -0.011824
v -0.057240 0.091658 -0.007779
v -0.033787 0.101377 -0.011824
v -0.095265 0.046362 -0.007779
v -0.027311 0.105422 -0.007779
v -0.096895 0.037468 -0.011824
v -0.010322 0.107846 -0.011015
v -0.078276 0.073055 -0.007779
v -0.064526 0.085198 -0.011015
v -0.101741 0.026944 -0.008588
v -0.090419 0.055257 -0.010205
v -0.043490 0.098952 -0.010205
v -0.099312 0.011561 -0.007779
v 0.014773 0.105422 -0.007779
v -0.052383 0.092473 -0.011824
f 74 65 77 
f 58 57 59 
f 58 60 61 
f 57 58 61 
f 60 56 61 
f 59 60 62 
f 60 58 62 
f 56 60 63 
f 60 59 63 
f 59 57 64 
f 61 56 65 
f 59 64 66 
f 64 57 67 
f 56 63 68 
f 57 61 69 
f 61 65 69 
f 67 57 69 
f 65 67 69 
f 66 64 70 
f 56 70 71 
f 70 64 71 
f 63 59 72 
f 59 66 72 
f 68 63 72 
f 66 68 72 
f 56 68 73 
f 68 66 73 
f 70 56 73 
f 66 70 73 
f 64 67 74 
f 67 65 74 
f 58 59 75 
f 59 62 75 
f 75 62 76 
f 62 58 76 
f 58 75 76 
f 65 56 77 
f 56 71 77 
f 71 64 77 
f 64 74 77 
o convex_3
v 0.068989 0.086814 -0.007779
v 0.014773 0.011561 -0.011824
v 0.107829 0.011561 -0.011824
v 0.014773 0.106233 -0.011824
v 0.014773 0.011561 -0.008588
v 0.109451 0.011561 -0.007779
v 0.014773 0.108667 -0.007779
v 0.086792 0.066578 -0.011824
v 0.101351 0.044754 -0.007779
v 0.048767 0.097327 -0.011824
v 0.105401 0.028566 -0.011824
v 0.039861 0.103002 -0.007779
v 0.087598 0.068203 -0.007779
v 0.074651 0.081140 -0.011015
v 0.026108 0.106233 -0.011015
v 0.095689 0.054449 -0.011015
v 0.053623 0.096519 -0.010205
v 0.014773 0.105425 -0.007779
v 0.107014 0.027749 -0.008588
f 88 86 96 
f 80 79 81 
f 79 80 82 
f 81 79 82 
f 82 80 83 
f 81 82 84 
f 83 78 84 
f 80 81 85 
f 78 83 86 
f 85 81 87 
f 80 85 88 
f 84 78 89 
f 78 86 90 
f 85 87 91 
f 78 90 91 
f 90 85 91 
f 81 84 92 
f 87 81 92 
f 84 89 92 
f 88 85 93 
f 86 88 93 
f 85 90 93 
f 90 86 93 
f 89 78 94 
f 78 91 94 
f 91 87 94 
f 87 92 94 
f 92 89 94 
f 82 83 95 
f 84 82 95 
f 83 84 95 
f 83 80 96 
f 86 83 96 
f 80 88 96 
o convex_4
v -0.079095 -0.090399 0.027828
v -0.116315 -0.032141 0.029445
v -0.113885 -0.039427 0.028637
v -0.104176 -0.030518 0.025400
v -0.079095 -0.077451 0.031872
v -0.107415 -0.030518 0.032681
v -0.099323 -0.066930 0.031872
v -0.099323 -0.066121 0.026210
v -0.079095 -0.074210 0.025400
v -0.114694 -0.030518 0.026210
v -0.079911 -0.088776 0.031872
v -0.111459 -0.041039 0.032681
v -0.104985 -0.030518 0.030254
v -0.091238 -0.079063 0.028637
v -0.079911 -0.088776 0.026210
v -0.105793 -0.058032 0.030254
v -0.094474 -0.065306 0.032681
v -0.097705 -0.053987 0.025400
v -0.113885 -0.030518 0.032681
v -0.106602 -0.053178 0.026210
f 114 104 116 
f 101 97 105 
f 99 98 106 
f 102 100 106 
f 97 101 107 
f 98 99 108 
f 102 101 109 
f 100 102 109 
f 101 105 109 
f 105 100 109 
f 97 107 110 
f 107 103 110 
f 105 97 111 
f 97 110 111 
f 110 104 111 
f 103 108 112 
f 108 99 112 
f 104 110 112 
f 110 103 112 
f 101 102 113 
f 107 101 113 
f 103 107 113 
f 108 103 113 
f 102 108 113 
f 100 105 114 
f 106 100 114 
f 105 111 114 
f 111 104 114 
f 106 98 115 
f 102 106 115 
f 98 108 115 
f 108 102 115 
f 99 106 116 
f 112 99 116 
f 104 112 116 
f 106 114 116 
o convex_5
v -0.104990 -0.028087 0.027018
v -0.120365 -0.008675 0.029445
v -0.120365 -0.008675 0.030254
v -0.109037 0.011561 0.026209
v -0.111464 0.011561 0.032682
v -0.107420 -0.030518 0.032682
v -0.115507 -0.028899 0.026209
v -0.118744 0.011561 0.027018
v -0.115507 -0.028087 0.032682
v -0.118744 0.011561 0.032682
v -0.104990 -0.030518 0.026209
v -0.109848 0.011561 0.031063
v -0.116318 -0.030518 0.031063
v -0.117934 -0.015949 0.026209
v -0.104990 -0.029706 0.029445
v -0.118744 -0.011093 0.032682
v -0.120365 0.005894 0.028637
f 124 130 133 
f 121 120 124 
f 122 121 125 
f 121 124 126 
f 125 121 126 
f 120 117 127 
f 123 120 127 
f 120 121 128 
f 121 122 128 
f 119 118 129 
f 118 123 129 
f 122 125 129 
f 127 122 129 
f 123 127 129 
f 123 118 130 
f 120 123 130 
f 124 120 130 
f 117 120 131 
f 127 117 131 
f 122 127 131 
f 120 128 131 
f 128 122 131 
f 126 119 132 
f 125 126 132 
f 119 129 132 
f 129 125 132 
f 118 119 133 
f 119 126 133 
f 126 124 133 
f 130 118 133 
o convex_6
v -0.043490 -0.112241 0.027018
v -0.079095 -0.091213 0.027827
v -0.079095 -0.091213 0.030254
v -0.078283 -0.075833 0.025401
v -0.043490 -0.103343 0.031872
v -0.078283 -0.078264 0.031872
v -0.043490 -0.100104 0.025401
v -0.055629 -0.105773 0.031872
v -0.061293 -0.103343 0.026209
v -0.044302 -0.112241 0.031063
v -0.079095 -0.089592 0.031872
v -0.064523 -0.102531 0.030254
v -0.078283 -0.076650 0.030254
v -0.079095 -0.089592 0.026209
v -0.079095 -0.079076 0.025401
v -0.048348 -0.111436 0.028636
v -0.044302 -0.103343 0.025401
f 142 148 150 
f 138 134 140 
f 138 139 141 
f 134 138 143 
f 138 141 143 
f 135 136 144 
f 141 139 144 
f 141 144 145 
f 136 135 145 
f 135 142 145 
f 143 141 145 
f 144 136 145 
f 139 138 146 
f 140 137 146 
f 138 140 146 
f 142 135 147 
f 135 144 147 
f 147 144 148 
f 137 140 148 
f 144 139 148 
f 139 146 148 
f 146 137 148 
f 142 147 148 
f 142 134 149 
f 134 143 149 
f 145 142 149 
f 143 145 149 
f 140 134 150 
f 134 142 150 
f 148 140 150 
o convex_7
v -0.018405 -0.111436 0.025399
v -0.043490 -0.094448 -0.007778
v -0.043490 -0.092018 -0.007778
v -0.003839 -0.102536 -0.007778
v -0.042679 -0.100113 0.024587
v -0.003839 -0.109818 0.023779
v -0.011931 -0.104153 -0.007778
v -0.037819 -0.104962 0.020538
v -0.003839 -0.113053 0.025399
v -0.042679 -0.092018 -0.005349
v -0.027301 -0.100922 -0.007778
v -0.043490 -0.103344 0.025399
v -0.003839 -0.102536 -0.004540
v -0.003839 -0.104962 -0.006966
v -0.023261 -0.109009 0.018924
v -0.041060 -0.096066 -0.007778
v -0.006268 -0.112246 0.021353
v -0.003839 -0.110627 0.025399
f 162 159 168 
f 152 153 154 
f 152 154 157 
f 154 156 159 
f 154 153 160 
f 153 155 160 
f 155 156 160 
f 152 157 161 
f 153 152 162 
f 155 153 162 
f 158 151 162 
f 151 159 162 
f 156 154 163 
f 154 160 163 
f 160 156 163 
f 157 154 164 
f 154 159 164 
f 157 151 165 
f 151 158 165 
f 161 157 165 
f 158 161 165 
f 152 161 166 
f 161 158 166 
f 162 152 166 
f 158 162 166 
f 151 157 167 
f 159 151 167 
f 157 164 167 
f 164 159 167 
f 156 155 168 
f 159 156 168 
f 155 162 168 
o convex_8
v -0.025686 -0.118719 0.030254
v -0.041868 -0.100923 0.026209
v -0.041868 -0.100923 0.025401
v -0.003839 -0.110632 0.025401
v -0.003839 -0.113054 0.031063
v -0.004650 -0.121147 0.026209
v -0.043490 -0.104158 0.031872
v -0.043490 -0.112245 0.026209
v -0.003839 -0.120338 0.031063
v -0.042679 -0.111440 0.031872
v -0.041868 -0.101730 0.029445
v -0.029727 -0.117101 0.026209
v -0.015168 -0.113054 0.031872
v -0.023261 -0.110632 0.025401
v -0.040253 -0.114673 0.029445
v -0.003839 -0.111440 0.029445
v -0.013550 -0.121147 0.027827
f 180 174 185 
f 171 170 172 
f 170 171 175 
f 175 171 176 
f 172 173 177 
f 174 172 177 
f 175 176 178 
f 169 177 178 
f 170 175 179 
f 175 173 179 
f 173 175 181 
f 177 173 181 
f 175 178 181 
f 178 177 181 
f 171 172 182 
f 172 174 182 
f 176 171 182 
f 174 180 182 
f 180 176 182 
f 169 178 183 
f 178 176 183 
f 180 169 183 
f 176 180 183 
f 172 170 184 
f 173 172 184 
f 170 179 184 
f 179 173 184 
f 177 169 185 
f 174 177 185 
f 169 180 185 
o convex_9
v 0.017205 -0.121146 0.027018
v 0.041477 -0.104156 0.026209
v 0.041477 -0.104156 0.024591
v -0.003839 -0.110630 0.026209
v 0.041477 -0.114672 0.031063
v -0.003839 -0.113057 0.031063
v -0.000600 -0.121958 0.030253
v -0.003839 -0.119527 0.025400
v 0.040661 -0.106587 0.031063
v 0.040661 -0.115485 0.026209
v -0.003839 -0.110630 0.024591
v 0.028529 -0.119527 0.030253
v 0.025287 -0.111442 0.024591
v -0.003839 -0.120340 0.031063
v -0.003839 -0.111442 0.029445
v 0.025287 -0.119527 0.026209
f 193 198 201 
f 187 188 189 
f 188 187 190 
f 191 189 193 
f 186 192 193 
f 190 187 194 
f 191 190 194 
f 188 190 195 
f 189 188 196 
f 193 189 196 
f 192 186 197 
f 195 190 197 
f 188 195 198 
f 196 188 198 
f 193 196 198 
f 190 191 199 
f 191 193 199 
f 193 192 199 
f 192 197 199 
f 197 190 199 
f 187 189 200 
f 189 191 200 
f 194 187 200 
f 191 194 200 
f 186 193 201 
f 197 186 201 
f 195 197 201 
f 198 195 201 
o convex_10
v 0.046336 -0.114673 0.028636
v 0.081121 -0.079879 0.027827
v 0.081121 -0.079879 0.025399
v 0.041485 -0.104151 0.027827
v 0.081121 -0.092827 0.031064
v 0.067368 -0.102537 0.025399
v 0.041485 -0.106583 0.031064
v 0.041485 -0.106583 0.025399
v 0.080314 -0.083117 0.031064
v 0.081121 -0.093639 0.026209
v 0.059281 -0.107392 0.031064
v 0.041485 -0.114673 0.026209
v 0.066561 -0.104963 0.028636
v 0.041485 -0.113864 0.031064
v 0.080314 -0.080692 0.029445
v 0.041485 -0.104151 0.025399
f 209 205 217 
f 203 204 205 
f 204 203 206 
f 204 207 209 
f 208 205 209 
f 206 203 210 
f 208 206 210 
f 204 206 211 
f 207 204 211 
f 206 208 212 
f 207 202 213 
f 209 207 213 
f 208 209 213 
f 202 207 214 
f 211 206 214 
f 207 211 214 
f 212 202 214 
f 206 212 214 
f 202 212 215 
f 212 208 215 
f 213 202 215 
f 208 213 215 
f 203 205 216 
f 205 208 216 
f 210 203 216 
f 208 210 216 
f 205 204 217 
f 204 209 217 
o convex_11
v 0.116730 -0.048320 0.027827
v 0.081129 -0.093636 0.027018
v 0.081129 -0.093636 0.030254
v 0.109450 -0.033754 0.025401
v 0.112686 -0.033754 0.031872
v 0.081129 -0.079873 0.029445
v 0.103783 -0.068549 0.031063
v 0.099743 -0.075014 0.026209
v 0.081129 -0.079070 0.025401
v 0.119969 -0.033754 0.026209
v 0.119969 -0.036187 0.031063
v 0.081129 -0.082300 0.031063
v 0.107830 -0.053989 0.031872
v 0.086796 -0.087968 0.031063
v 0.104595 -0.053180 0.025401
v 0.110254 -0.033754 0.029445
v 0.097319 -0.079070 0.028636
v 0.109450 -0.062083 0.029445
v 0.109450 -0.060466 0.026209
v 0.085180 -0.090395 0.026209
f 225 234 237 
f 219 220 223 
f 219 223 226 
f 223 221 226 
f 221 222 227 
f 218 227 228 
f 227 222 228 
f 223 220 229 
f 224 228 230 
f 228 222 230 
f 222 229 230 
f 229 220 231 
f 224 230 231 
f 230 229 231 
f 226 221 232 
f 225 226 232 
f 221 227 232 
f 222 221 233 
f 221 223 233 
f 223 229 233 
f 229 222 233 
f 231 220 234 
f 224 231 234 
f 218 228 235 
f 228 224 235 
f 224 234 235 
f 234 225 235 
f 227 218 236 
f 225 232 236 
f 232 227 236 
f 218 235 236 
f 235 225 236 
f 220 219 237 
f 219 226 237 
f 226 225 237 
f 234 220 237 
o convex_12
v 0.126444 0.010750 0.030254
v 0.110260 -0.033754 0.026210
v 0.120779 -0.033754 0.026210
v 0.113498 -0.033754 0.031872
v 0.115116 0.011561 0.026210
v 0.117544 0.011561 0.031872
v 0.122395 -0.021614 0.031872
v 0.124825 0.011561 0.026210
v 0.125633 -0.015945 0.027827
v 0.111071 -0.032135 0.030254
v 0.121589 -0.032938 0.030254
v 0.124016 0.011561 0.031872
v 0.125633 -0.009486 0.031063
v 0.115925 0.011561 0.030254
f 247 243 251 
f 239 240 241 
f 240 239 242 
f 243 241 244 
f 240 242 245 
f 242 243 245 
f 245 238 246 
f 240 245 246 
f 239 241 247 
f 242 239 247 
f 241 243 247 
f 241 240 248 
f 244 241 248 
f 240 246 248 
f 243 244 249 
f 238 245 249 
f 245 243 249 
f 246 238 250 
f 244 248 250 
f 248 246 250 
f 238 249 250 
f 249 244 250 
f 243 242 251 
f 242 247 251 
o convex_13
v -0.113079 0.043925 0.028637
v -0.119556 0.011569 0.027828
v -0.118744 0.011569 0.027018
v -0.100137 0.050398 0.032682
v -0.098520 0.049591 0.027018
v -0.111461 0.011569 0.032682
v -0.117126 0.026129 0.032682
v -0.109037 0.011569 0.027018
v -0.105802 0.051205 0.033491
v -0.109037 0.051205 0.027018
v -0.118744 0.011569 0.032682
v -0.111461 0.047972 0.031872
v -0.119556 0.020467 0.031063
v -0.098520 0.050398 0.030255
v -0.117126 0.026940 0.027018
v -0.109842 0.011569 0.031063
f 259 265 267 
f 253 254 257 
f 254 256 259 
f 257 254 259 
f 257 255 260 
f 256 254 261 
f 253 257 262 
f 257 260 262 
f 260 258 262 
f 258 260 263 
f 261 252 263 
f 260 261 263 
f 253 262 264 
f 262 258 264 
f 263 252 264 
f 258 263 264 
f 259 256 265 
f 260 255 265 
f 256 261 265 
f 261 260 265 
f 254 253 266 
f 252 261 266 
f 261 254 266 
f 253 264 266 
f 264 252 266 
f 255 257 267 
f 257 259 267 
f 265 255 267 
o convex_14
v -0.100129 0.063355 0.033491
v -0.071816 0.086009 0.027828
v -0.071816 0.086009 0.027018
v -0.097702 0.051213 0.028637
v -0.096895 0.073056 0.027018
v -0.076674 0.086009 0.033491
v -0.088001 0.086009 0.030255
v -0.109030 0.051213 0.027018
v -0.100129 0.051213 0.032682
v -0.109030 0.053641 0.031872
v -0.073435 0.085198 0.031872
v -0.097702 0.051213 0.027018
v -0.086382 0.086009 0.027018
v -0.094467 0.076298 0.032682
v -0.100941 0.069009 0.029446
v -0.105795 0.051213 0.033491
v -0.083147 0.086009 0.033491
f 274 281 284 
f 270 269 271 
f 269 270 273 
f 273 270 274 
f 272 270 275 
f 275 271 276 
f 271 269 278 
f 269 273 278 
f 276 271 278 
f 273 276 278 
f 270 271 279 
f 275 270 279 
f 271 275 279 
f 270 272 280 
f 272 274 280 
f 274 270 280 
f 277 268 281 
f 277 281 282 
f 274 272 282 
f 272 275 282 
f 275 277 282 
f 281 274 282 
f 273 268 283 
f 276 273 283 
f 275 276 283 
f 277 275 283 
f 268 277 283 
f 268 273 284 
f 273 274 284 
f 281 268 284 
o convex_15
v -0.079904 0.093298 0.031872
v -0.029733 0.119996 0.031872
v -0.029733 0.119996 0.027828
v -0.071002 0.086009 0.027018
v -0.029733 0.111093 0.032682
v -0.076665 0.086009 0.033491
v -0.061289 0.106236 0.027018
v -0.029733 0.109469 0.027018
v -0.085568 0.086824 0.027018
v -0.054017 0.107853 0.033491
v -0.054827 0.111093 0.031063
v -0.029733 0.115947 0.033491
v -0.072621 0.086009 0.031872
v -0.082323 0.086009 0.033491
v -0.039446 0.116759 0.027018
v -0.072621 0.099768 0.029446
v -0.068572 0.101385 0.032682
v -0.034598 0.119180 0.031872
v -0.087187 0.086824 0.030255
f 300 293 303 
f 287 286 289 
f 288 291 292 
f 287 289 292 
f 291 288 293 
f 289 286 296 
f 290 289 296 
f 294 290 296 
f 290 288 297 
f 289 290 297 
f 288 292 297 
f 292 289 297 
f 288 290 298 
f 293 288 298 
f 290 294 298 
f 292 291 299 
f 287 292 299 
f 291 295 299 
f 291 293 300 
f 295 291 300 
f 295 300 301 
f 294 295 301 
f 285 298 301 
f 298 294 301 
f 300 285 301 
f 286 287 302 
f 295 294 302 
f 296 286 302 
f 294 296 302 
f 287 299 302 
f 299 295 302 
f 298 285 303 
f 293 298 303 
f 285 300 303 
o convex_16
v -0.028919 0.119993 0.027018
v 0.014769 0.124851 0.030255
v 0.014769 0.124851 0.029446
v 0.014769 0.113523 0.027828
v -0.029729 0.112713 0.033491
v -0.029729 0.109476 0.027018
v 0.013149 0.117567 0.033491
v -0.015974 0.122420 0.032682
v 0.014769 0.123230 0.027018
v 0.014769 0.114334 0.031063
v -0.006269 0.124851 0.029446
v -0.029729 0.120804 0.031063
v -0.028919 0.110286 0.031063
v 0.013149 0.123230 0.032682
v 0.014769 0.113523 0.027018
v -0.027298 0.117567 0.033491
v 0.000203 0.124041 0.027018
f 304 314 320 
f 306 305 307 
f 306 307 312 
f 309 304 312 
f 307 305 313 
f 305 310 313 
f 310 308 313 
f 305 306 314 
f 304 309 315 
f 309 308 315 
f 314 304 315 
f 311 314 315 
f 309 307 316 
f 308 309 316 
f 307 313 316 
f 313 308 316 
f 310 305 317 
f 305 314 317 
f 314 311 317 
f 307 309 318 
f 312 307 318 
f 309 312 318 
f 308 310 319 
f 315 308 319 
f 311 315 319 
f 310 317 319 
f 317 311 319 
f 312 304 320 
f 306 312 320 
f 314 306 320 
o convex_17
v 0.080319 0.083583 0.027019
v 0.069794 0.105428 0.031063
v 0.071418 0.104617 0.030254
v 0.047142 0.104617 0.025400
v 0.052003 0.104617 0.032681
v 0.080319 0.086821 0.032681
v 0.080319 0.096526 0.027019
v 0.080319 0.094910 0.032681
v 0.080319 0.086821 0.025400
v 0.068176 0.105428 0.027019
v 0.079507 0.084394 0.030254
v 0.052003 0.105428 0.025400
v 0.066559 0.105428 0.032681
v 0.047954 0.104617 0.029445
v 0.079507 0.083583 0.025400
f 331 334 335 
f 326 321 327 
f 323 322 328 
f 325 326 328 
f 327 323 328 
f 326 327 328 
f 327 321 329 
f 327 329 330 
f 322 323 330 
f 323 327 330 
f 326 325 331 
f 321 326 331 
f 329 324 332 
f 330 329 332 
f 322 330 332 
f 328 322 333 
f 325 328 333 
f 332 325 333 
f 322 332 333 
f 331 325 334 
f 332 324 334 
f 325 332 334 
f 329 321 335 
f 324 329 335 
f 321 331 335 
f 334 324 335 
o convex_18
v 0.068990 0.105430 0.028637
v 0.020441 0.124042 0.030254
v 0.020441 0.124042 0.029445
v 0.014773 0.113524 0.025400
v 0.014773 0.115138 0.032681
v 0.050373 0.105430 0.032681
v 0.049566 0.114333 0.032681
v 0.045517 0.116758 0.027019
v 0.045517 0.105430 0.025400
v 0.014773 0.123231 0.027019
v 0.014773 0.122422 0.032681
v 0.064936 0.106240 0.032681
v 0.050373 0.115947 0.030254
v 0.065753 0.107049 0.027019
v 0.035009 0.111906 0.025400
v 0.036628 0.119995 0.031872
v 0.014773 0.113524 0.027828
v 0.035821 0.120802 0.028637
f 351 348 353 
f 340 341 342 
f 336 341 344 
f 337 338 345 
f 339 340 345 
f 340 342 346 
f 337 345 346 
f 345 340 346 
f 341 336 347 
f 342 341 347 
f 342 347 348 
f 347 336 348 
f 348 336 349 
f 336 344 349 
f 343 348 349 
f 343 349 350 
f 344 339 350 
f 339 345 350 
f 345 343 350 
f 349 344 350 
f 346 342 351 
f 337 346 351 
f 342 348 351 
f 340 339 352 
f 341 340 352 
f 344 341 352 
f 339 344 352 
f 338 337 353 
f 345 338 353 
f 343 345 353 
f 348 343 353 
f 337 351 353 
o convex_19
v 0.114303 0.018849 0.014068
v 0.108639 0.046354 0.025399
v 0.108639 0.046354 0.023779
v 0.098122 0.044733 -0.007778
v 0.114303 0.011565 0.023779
v 0.108639 0.020466 -0.007778
v 0.107025 0.011565 -0.006158
v 0.106216 0.044733 0.025399
v 0.103790 0.039070 -0.007778
v 0.114303 0.030172 0.024587
v 0.116734 0.011565 0.021353
v 0.109450 0.011565 -0.007778
v 0.100552 0.046354 -0.007778
v 0.098122 0.045544 -0.006158
v 0.116734 0.011565 0.025399
v 0.110257 0.031789 0.008411
v 0.109450 0.039880 0.015682
v 0.105406 0.046354 0.022970
f 366 367 371 
f 359 357 362 
f 356 355 363 
f 358 360 364 
f 354 363 364 
f 359 354 365 
f 357 359 365 
f 360 357 365 
f 354 364 365 
f 364 360 365 
f 355 356 366 
f 362 357 366 
f 360 358 367 
f 357 360 367 
f 358 361 367 
f 366 357 367 
f 355 361 368 
f 361 358 368 
f 363 355 368 
f 358 364 368 
f 364 363 368 
f 354 359 369 
f 359 362 369 
f 363 354 369 
f 363 369 370 
f 356 363 370 
f 366 356 370 
f 362 366 370 
f 369 362 370 
f 361 355 371 
f 355 366 371 
f 367 361 371 
o convex_20
v 0.095694 0.079531 0.032681
v 0.080319 0.082769 0.025400
v 0.080319 0.082769 0.027019
v 0.103785 0.050403 0.026210
v 0.101354 0.075483 0.027019
v 0.103785 0.057690 0.032681
v 0.080319 0.096520 0.031872
v 0.080319 0.086008 0.032681
v 0.081942 0.095711 0.027019
v 0.104596 0.071449 0.031063
v 0.104596 0.055260 0.025400
v 0.092457 0.086817 0.031063
v 0.103785 0.051221 0.028637
v 0.087603 0.079531 0.025400
v 0.104596 0.070636 0.027019
v 0.104596 0.067397 0.032681
f 382 381 387 
f 374 373 375 
f 373 374 378 
f 377 372 379 
f 378 374 379 
f 372 378 379 
f 373 378 380 
f 375 373 382 
f 378 372 383 
f 376 380 383 
f 380 378 383 
f 381 376 383 
f 372 381 383 
f 374 375 384 
f 379 374 384 
f 377 379 384 
f 382 377 384 
f 375 382 384 
f 373 380 385 
f 380 376 385 
f 382 373 385 
f 376 382 385 
f 376 381 386 
f 381 382 386 
f 382 376 386 
f 372 377 387 
f 381 372 387 
f 377 382 387 
o convex_21
v 0.119970 0.042300 0.030254
v 0.104596 0.048782 0.025400
v 0.104596 0.048782 0.027019
v 0.115115 0.011561 0.027828
v 0.104596 0.065777 0.032681
v 0.117541 0.011561 0.031872
v 0.124824 0.011561 0.026210
v 0.107024 0.067396 0.027019
v 0.124016 0.018847 0.031872
v 0.117541 0.043919 0.026210
v 0.104596 0.056056 0.032681
v 0.115115 0.011561 0.025400
v 0.124824 0.022895 0.027828
v 0.114310 0.052830 0.031872
v 0.125635 0.011561 0.031063
v 0.105407 0.070634 0.031063
v 0.115921 0.052830 0.028637
v 0.104596 0.069818 0.027019
v 0.113501 0.043110 0.032681
v 0.114310 0.030984 0.025400
f 394 399 407 
f 390 389 391 
f 389 390 392 
f 393 391 394 
f 389 395 397 
f 390 391 398 
f 392 390 398 
f 391 393 398 
f 391 389 399 
f 394 391 399 
f 388 396 400 
f 397 388 400 
f 394 397 400 
f 396 388 401 
f 393 394 402 
f 396 393 402 
f 400 396 402 
f 394 400 402 
f 392 401 403 
f 403 401 404 
f 388 397 404 
f 397 395 404 
f 401 388 404 
f 395 403 404 
f 389 392 405 
f 395 389 405 
f 392 403 405 
f 403 395 405 
f 393 396 406 
f 392 398 406 
f 398 393 406 
f 401 392 406 
f 396 401 406 
f 397 394 407 
f 389 397 407 
f 399 389 407 
o convex_22
v -0.094468 -0.054796 0.015682
v -0.079907 -0.077450 0.022970
v -0.079095 -0.077450 0.022970
v -0.079907 -0.066122 -0.007778
v -0.083142 -0.056415 -0.006966
v -0.092852 -0.055606 0.025399
v -0.079095 -0.074212 0.025399
v -0.093660 -0.060460 0.024587
v -0.087994 -0.055606 -0.007778
v -0.086381 -0.066929 0.013260
v -0.079095 -0.062079 -0.007778
v -0.084762 -0.054796 -0.007778
v -0.087994 -0.068548 0.025399
v -0.096089 -0.054796 0.025399
v -0.080715 -0.066122 -0.006966
f 409 417 422 
f 410 409 411 
f 409 410 414 
f 412 413 414 
f 415 408 416 
f 415 416 417 
f 410 411 418 
f 414 410 418 
f 412 414 418 
f 411 416 418 
f 418 416 419 
f 413 412 419 
f 416 408 419 
f 412 418 419 
f 409 414 420 
f 414 413 420 
f 417 409 420 
f 415 417 420 
f 408 415 421 
f 413 419 421 
f 419 408 421 
f 420 413 421 
f 415 420 421 
f 411 409 422 
f 416 411 422 
f 417 416 422 
o convex_23
v -0.105797 -0.034564 0.023779
v -0.087999 -0.054794 -0.007778
v -0.085573 -0.054794 -0.007778
v -0.096895 -0.030518 -0.007778
v -0.093664 -0.053984 0.024587
v -0.104178 -0.030518 0.025399
v -0.096895 -0.054794 0.023779
v -0.096090 -0.040232 -0.007778
v -0.085573 -0.053984 -0.005349
v -0.099323 -0.030518 -0.007778
v -0.098513 -0.045892 0.010831
v -0.096090 -0.031328 -0.006966
v -0.106608 -0.030518 0.025399
v -0.103369 -0.033757 0.010831
v -0.090427 -0.051555 -0.007778
v -0.102560 -0.043461 0.025399
v -0.094473 -0.054794 0.025399
f 438 429 439 
f 425 424 426 
f 424 425 429 
f 426 424 430 
f 428 427 431 
f 428 426 432 
f 426 430 432 
f 425 426 434 
f 426 428 434 
f 431 425 434 
f 428 431 434 
f 428 432 435 
f 435 432 436 
f 432 430 436 
f 433 423 436 
f 430 433 436 
f 423 435 436 
f 424 429 437 
f 430 424 437 
f 429 433 437 
f 433 430 437 
f 423 433 438 
f 433 429 438 
f 428 435 438 
f 435 423 438 
f 427 428 439 
f 429 425 439 
f 425 431 439 
f 431 427 439 
f 428 438 439 
o convex_24
v -0.110654 -0.014334 0.025397
v -0.099326 -0.030518 -0.007778
v -0.096898 -0.030518 -0.007778
v -0.101755 -0.007860 -0.007778
v -0.104180 -0.029708 0.025397
v -0.108227 -0.007860 0.023780
v -0.104180 -0.008669 -0.007778
v -0.106607 -0.030518 0.021351
v -0.105797 -0.020803 0.006790
v -0.096898 -0.029708 -0.006158
v -0.110654 -0.007860 0.022160
v -0.100946 -0.009479 -0.006967
v -0.101755 -0.023234 -0.007778
v -0.109034 -0.024044 0.025397
v -0.109034 -0.007860 0.026209
v -0.106607 -0.030518 0.026209
f 454 440 455 
f 442 441 443 
f 443 441 446 
f 441 442 447 
f 440 446 448 
f 444 442 449 
f 445 444 449 
f 445 443 450 
f 446 440 450 
f 443 446 450 
f 442 443 451 
f 443 445 451 
f 449 442 451 
f 445 449 451 
f 446 441 452 
f 441 447 452 
f 448 446 452 
f 447 448 452 
f 440 448 453 
f 448 447 453 
f 444 445 454 
f 445 450 454 
f 450 440 454 
f 442 444 455 
f 447 442 455 
f 440 453 455 
f 453 447 455 
f 444 454 455 
o convex_25
v -0.109035 0.011561 0.026209
v -0.104182 -0.007860 -0.007778
v -0.109844 -0.005432 0.016498
v -0.108225 -0.007860 0.023780
v -0.101754 0.011561 -0.007778
v -0.104182 0.011561 -0.007778
v -0.101754 -0.007860 -0.006158
v -0.111463 0.009132 0.025397
v -0.111463 -0.007050 0.026209
v -0.103373 0.011561 0.001933
v -0.109844 0.005086 0.015686
v -0.110653 0.011561 0.022160
f 466 463 467 
f 460 457 461 
f 456 460 461 
f 459 457 462 
f 457 460 462 
f 458 457 464 
f 457 459 464 
f 459 456 464 
f 456 463 464 
f 456 459 465 
f 460 456 465 
f 459 462 465 
f 462 460 465 
f 457 458 466 
f 461 457 466 
f 458 464 466 
f 464 463 466 
f 456 461 467 
f 463 456 467 
f 461 466 467 
o convex_26
v -0.079095 -0.063695 -0.007778
v -0.062913 -0.092012 0.022161
v -0.063722 -0.091205 0.020538
v -0.079095 -0.078257 0.025399
v -0.064532 -0.087158 0.025399
v -0.063722 -0.082304 -0.007778
v -0.062103 -0.079066 -0.006966
v -0.077475 -0.070174 -0.006158
v -0.078283 -0.075028 0.025399
v -0.078283 -0.063695 -0.006158
v -0.076665 -0.079066 0.016498
v -0.062103 -0.088777 0.023779
v -0.071002 -0.080685 0.005170
v -0.062103 -0.083114 -0.006966
v -0.071002 -0.086349 0.024587
v -0.079095 -0.067745 -0.006966
v -0.062103 -0.092012 0.025399
f 471 482 484 
f 469 470 473 
f 473 468 474 
f 468 471 476 
f 471 472 476 
f 476 472 477 
f 474 468 477 
f 468 476 477 
f 477 472 479 
f 474 477 479 
f 473 470 480 
f 475 473 480 
f 478 475 480 
f 469 473 481 
f 473 474 481 
f 474 479 481 
f 470 469 482 
f 471 478 482 
f 480 470 482 
f 478 480 482 
f 471 468 483 
f 468 473 483 
f 473 475 483 
f 478 471 483 
f 475 478 483 
f 472 471 484 
f 479 472 484 
f 469 481 484 
f 481 479 484 
f 482 469 484 
o convex_27
v -0.062100 -0.083119 -0.007778
v -0.044302 -0.102535 0.022161
v -0.043490 -0.102535 0.022161
v -0.061289 -0.089592 0.024587
v -0.043490 -0.091208 -0.006966
v -0.062100 -0.092825 0.022970
v -0.044302 -0.094444 -0.007778
v -0.061289 -0.079882 -0.006966
v -0.043490 -0.100107 0.025399
v -0.053199 -0.091208 -0.002920
v -0.056435 -0.096870 0.025399
v -0.053199 -0.097679 0.019732
v -0.062100 -0.079882 -0.007778
v -0.057243 -0.087164 -0.007778
f 491 494 498 
f 487 486 491 
f 489 487 491 
f 486 487 493 
f 487 489 493 
f 492 488 493 
f 489 492 493 
f 488 490 495 
f 486 493 495 
f 493 488 495 
f 491 486 496 
f 490 494 496 
f 494 491 496 
f 495 490 496 
f 486 495 496 
f 485 490 497 
f 490 488 497 
f 491 485 497 
f 489 491 497 
f 488 492 497 
f 492 489 497 
f 490 485 498 
f 485 491 498 
f 494 490 498 
o convex_28
v 0.011535 -0.101728 -0.007778
v 0.017201 -0.109820 0.024590
v 0.012345 -0.109820 0.024590
v 0.002636 -0.113057 0.022971
v -0.003839 -0.106584 0.011638
v 0.009915 -0.104965 -0.007778
v -0.003839 -0.104965 -0.007778
v 0.017201 -0.112248 0.022971
v 0.017201 -0.101728 -0.005348
v -0.003839 -0.112248 0.024590
v -0.003839 -0.102538 -0.004540
v 0.017201 -0.104157 -0.007778
v -0.003839 -0.109820 0.023779
v 0.016392 -0.109009 0.022971
v -0.003839 -0.112248 0.020544
f 502 508 513 
f 499 504 505 
f 504 502 505 
f 502 504 506 
f 500 506 507 
f 500 501 508 
f 503 505 508 
f 506 500 508 
f 502 506 508 
f 499 505 509 
f 505 503 509 
f 507 499 509 
f 503 507 509 
f 504 499 510 
f 506 504 510 
f 507 506 510 
f 499 507 510 
f 508 501 511 
f 503 508 511 
f 501 500 512 
f 500 507 512 
f 507 503 512 
f 511 501 512 
f 503 511 512 
f 505 502 513 
f 508 505 513 
o convex_29
v 0.018824 -0.111436 0.020544
v 0.041477 -0.104154 0.024590
v 0.039046 -0.104154 0.024590
v 0.041477 -0.095254 -0.007778
v 0.017201 -0.101730 -0.004540
v 0.033384 -0.100922 -0.007778
v 0.041477 -0.106581 0.022971
v 0.017201 -0.109819 0.024590
v 0.017201 -0.104154 -0.007778
v 0.028531 -0.110628 0.023779
v 0.040667 -0.098491 -0.007778
v 0.040667 -0.096875 0.000314
v 0.018011 -0.109011 0.023779
v 0.027721 -0.102540 -0.007778
v 0.017201 -0.112248 0.024590
v 0.018011 -0.100922 -0.007778
v 0.035002 -0.109011 0.023779
f 528 523 530 
f 517 515 520 
f 515 516 521 
f 517 519 522 
f 521 518 522 
f 519 517 524 
f 517 520 524 
f 516 515 525 
f 515 517 525 
f 521 516 526 
f 518 521 526 
f 516 525 526 
f 525 518 526 
f 514 522 527 
f 522 519 527 
f 523 514 527 
f 515 521 528 
f 522 514 528 
f 521 522 528 
f 514 523 528 
f 517 522 529 
f 522 518 529 
f 525 517 529 
f 518 525 529 
f 520 515 530 
f 519 524 530 
f 524 520 530 
f 527 519 530 
f 523 527 530 
f 515 528 530 
o convex_30
v 0.064133 -0.083116 -0.007778
v 0.041479 -0.106581 0.023779
v 0.041479 -0.105770 0.020538
v 0.063324 -0.096061 0.022161
v 0.062514 -0.092830 0.024587
v 0.041479 -0.095253 -0.007778
v 0.054423 -0.092830 -0.006158
v 0.041479 -0.103343 0.024587
v 0.063324 -0.083929 -0.002111
v 0.042289 -0.097678 -0.007778
v 0.054423 -0.101726 0.024587
v 0.064133 -0.086357 -0.007778
v 0.041479 -0.095253 -0.004540
v 0.064133 -0.092830 0.025399
v 0.045526 -0.098489 -0.001303
v 0.043098 -0.106581 0.025399
v 0.064133 -0.096061 0.025399
f 546 541 547 
f 533 532 536 
f 536 532 538 
f 538 535 539 
f 533 536 540 
f 536 531 540 
f 537 534 541 
f 534 537 542 
f 540 531 542 
f 537 540 542 
f 531 536 543 
f 536 538 543 
f 538 539 543 
f 539 531 543 
f 535 538 544 
f 531 539 544 
f 539 535 544 
f 542 531 544 
f 533 540 545 
f 540 537 545 
f 537 541 545 
f 545 541 546 
f 532 533 546 
f 538 532 546 
f 544 538 546 
f 533 545 546 
f 544 546 547 
f 541 534 547 
f 534 542 547 
f 542 544 547 
o convex_31
v 0.077892 -0.081498 0.010831
v 0.064135 -0.095254 0.022970
v 0.064947 -0.095254 0.022970
v 0.064135 -0.085543 -0.007778
v 0.080317 -0.067741 -0.005349
v 0.064135 -0.092017 0.025399
v 0.081129 -0.079885 0.025399
v 0.081129 -0.071789 -0.006966
v 0.064135 -0.082306 -0.006158
v 0.081129 -0.083111 0.025399
v 0.079508 -0.079885 0.025399
v 0.071421 -0.080690 -0.007778
v 0.070611 -0.092017 0.024587
v 0.081129 -0.067741 -0.007778
v 0.064947 -0.087969 -0.000494
f 559 560 562 
f 549 550 553 
f 551 549 553 
f 551 553 556 
f 553 552 556 
f 554 553 557 
f 548 555 557 
f 555 554 557 
f 552 553 558 
f 554 552 558 
f 553 554 558 
f 555 548 559 
f 553 550 560 
f 548 557 560 
f 557 553 560 
f 559 548 560 
f 552 554 561 
f 554 555 561 
f 551 556 561 
f 556 552 561 
f 559 551 561 
f 555 559 561 
f 550 549 562 
f 549 551 562 
f 551 559 562 
f 560 550 562 
o convex_32
v 0.099740 -0.055606 0.014068
v 0.081129 -0.082307 0.024587
v 0.081940 -0.082307 0.024587
v 0.081940 -0.070167 -0.007778
v 0.090034 -0.055606 -0.004540
v 0.098928 -0.055606 0.024587
v 0.081129 -0.078258 0.024587
v 0.095691 -0.066936 0.024587
v 0.091648 -0.058844 -0.007778
v 0.081129 -0.066126 -0.006966
v 0.090034 -0.071784 0.018115
v 0.102168 -0.056416 0.025399
v 0.092454 -0.055606 -0.007778
v 0.081940 -0.070974 -0.006966
v 0.100549 -0.058844 0.022161
f 574 570 577 
f 563 567 568 
f 568 567 569 
f 564 569 572 
f 569 567 572 
f 570 565 573 
f 571 570 573 
f 564 565 574 
f 563 568 574 
f 569 564 574 
f 568 569 574 
f 565 570 574 
f 567 563 575 
f 563 571 575 
f 571 566 575 
f 566 572 575 
f 572 567 575 
f 565 564 576 
f 566 571 576 
f 564 572 576 
f 572 566 576 
f 573 565 576 
f 571 573 576 
f 571 563 577 
f 570 571 577 
f 563 574 577 
o convex_33
v 0.094076 -0.055603 -0.006158
v 0.111879 -0.033754 0.025399
v 0.111879 -0.035373 0.025399
v 0.099744 -0.055603 0.025399
v 0.100552 -0.033754 -0.006966
v 0.090030 -0.054793 -0.006966
v 0.103786 -0.034565 -0.007778
v 0.103786 -0.053984 0.023779
v 0.108641 -0.033754 0.022970
v 0.105405 -0.046700 0.015682
v 0.098123 -0.048319 -0.006966
v 0.098935 -0.054793 0.022970
v 0.102973 -0.055603 0.025399
v 0.090030 -0.055603 -0.007778
v 0.108641 -0.040228 0.017306
v 0.101356 -0.041039 -0.007778
f 584 592 593 
f 580 579 581 
f 579 580 584 
f 582 579 584 
f 581 579 586 
f 579 582 586 
f 582 583 586 
f 587 585 588 
f 585 578 588 
f 583 581 589 
f 581 586 589 
f 586 583 589 
f 580 581 590 
f 581 578 590 
f 585 580 590 
f 578 585 590 
f 578 581 591 
f 581 583 591 
f 583 582 591 
f 582 584 591 
f 588 578 591 
f 584 580 592 
f 580 585 592 
f 585 587 592 
f 592 587 593 
f 587 588 593 
f 591 584 593 
f 588 591 593 
o convex_34
v 0.115924 -0.013526 0.019735
v 0.101359 -0.033754 -0.007778
v 0.103789 -0.033754 -0.007778
v 0.112687 -0.033754 0.026209
v 0.114303 -0.011098 0.025397
v 0.107025 -0.010287 -0.007778
v 0.109450 -0.032941 0.025397
v 0.107833 -0.020810 -0.007778
v 0.101359 -0.032941 -0.005350
v 0.109450 -0.010287 -0.007778
v 0.116734 -0.010287 0.026209
v 0.107025 -0.010287 -0.004541
v 0.111876 -0.031326 0.018111
v 0.115924 -0.020810 0.025397
v 0.114303 -0.020810 0.017306
f 594 607 608 
f 595 596 597 
f 596 595 599 
f 595 597 600 
f 596 599 601 
f 599 595 602 
f 595 600 602 
f 600 598 602 
f 601 599 603 
f 600 597 604 
f 598 600 604 
f 594 603 604 
f 603 599 604 
f 599 602 605 
f 602 598 605 
f 598 604 605 
f 604 599 605 
f 597 596 606 
f 596 601 606 
f 594 604 607 
f 604 597 607 
f 597 606 607 
f 603 594 608 
f 601 603 608 
f 606 601 608 
f 607 606 608 
o convex_35
v 0.116733 -0.010287 0.026209
v 0.107023 -0.010287 -0.007778
v 0.107023 0.011561 -0.007778
v 0.110261 -0.001384 -0.006967
v 0.115115 0.011561 0.026209
v 0.117543 0.011561 0.025397
v 0.114306 -0.010287 0.024588
v 0.110261 0.010751 -0.006158
v 0.115923 -0.010287 0.018111
v 0.108643 -0.009477 0.001933
v 0.109451 -0.010287 -0.007778
v 0.115923 -0.003003 0.015686
v 0.114306 0.011561 0.023780
v 0.117543 -0.009477 0.025397
f 620 614 622 
f 611 613 614 
f 613 609 614 
f 610 609 615 
f 609 613 615 
f 612 611 616 
f 611 614 616 
f 609 610 617 
f 611 610 618 
f 610 615 618 
f 610 611 619 
f 611 612 619 
f 617 610 619 
f 617 619 620 
f 612 616 620 
f 616 614 620 
f 619 612 620 
f 613 611 621 
f 615 613 621 
f 611 618 621 
f 618 615 621 
f 614 609 622 
f 609 617 622 
f 617 620 622 
o convex_36
v -0.104181 0.033410 0.024589
v -0.104181 0.011561 -0.007778
v -0.104181 0.013180 -0.007778
v -0.111464 0.011561 0.027018
v -0.107416 0.033410 0.025396
v -0.097707 0.030172 -0.006968
v -0.108226 0.011561 0.024589
v -0.100135 0.033410 -0.007778
v -0.101755 0.011561 -0.006157
v -0.109844 0.022890 0.025396
v -0.102564 0.023698 -0.007778
v -0.104989 0.031791 0.027018
v -0.097707 0.033410 -0.007778
f 628 631 635 
f 625 624 626 
f 626 624 629 
f 624 625 630 
f 627 623 630 
f 628 629 631 
f 629 624 631 
f 625 626 632 
f 626 627 632 
f 630 625 633 
f 627 630 633 
f 625 632 633 
f 632 627 633 
f 623 627 634 
f 627 626 634 
f 628 623 634 
f 629 628 634 
f 626 629 634 
f 623 628 635 
f 624 630 635 
f 630 623 635 
f 631 624 635 
o convex_37
v -0.100942 0.050402 0.025396
v -0.099324 0.033410 -0.007778
v -0.096900 0.033410 -0.007778
v -0.106608 0.033410 0.027018
v -0.091234 0.050402 -0.002111
v -0.097708 0.050402 0.027018
v -0.092854 0.051213 -0.007778
v -0.104178 0.034220 0.027018
v -0.097708 0.041505 -0.006968
v -0.106608 0.034220 0.022971
v -0.090424 0.049594 -0.006968
v -0.103370 0.045546 0.026207
v -0.100132 0.034220 -0.006968
f 645 644 648 
f 637 638 639 
f 636 641 642 
f 638 637 642 
f 641 640 642 
f 639 638 643 
f 641 639 643 
f 636 642 644 
f 642 637 644 
f 637 639 645 
f 640 641 646 
f 638 642 646 
f 642 640 646 
f 643 638 646 
f 641 643 646 
f 639 641 647 
f 641 636 647 
f 636 644 647 
f 645 639 647 
f 644 645 647 
f 644 637 648 
f 637 645 648 
o convex_38
v -0.092849 0.053641 -0.003732
v -0.079904 0.067397 -0.006157
v -0.079904 0.066586 -0.006157
v -0.088810 0.067397 0.027018
v -0.096895 0.051213 0.024589
v -0.092039 0.066586 0.026207
v -0.088810 0.052022 -0.006968
v -0.083144 0.067397 -0.006968
v -0.100135 0.052022 0.024589
v -0.092849 0.051213 -0.006968
v -0.088000 0.066586 0.026207
v -0.096895 0.052022 0.027018
v -0.079904 0.065778 -0.006968
v -0.089616 0.057689 -0.007778
v -0.098515 0.056068 0.026207
f 662 649 663 
f 652 650 656 
f 654 652 656 
f 655 653 658 
f 653 657 658 
f 657 649 658 
f 651 650 659 
f 650 652 659 
f 653 655 660 
f 657 653 660 
f 659 652 660 
f 659 660 661 
f 650 651 661 
f 656 650 661 
f 651 659 661 
f 660 655 661 
f 661 655 662 
f 654 656 662 
f 655 658 662 
f 658 649 662 
f 656 661 662 
f 652 654 663 
f 649 657 663 
f 660 652 663 
f 657 660 663 
f 654 662 663 
o convex_39
v -0.082329 0.078725 0.025396
v -0.061293 0.086009 -0.006157
v -0.066151 0.086009 0.010018
v -0.087182 0.067397 0.025396
v -0.082329 0.068209 -0.007778
v -0.065341 0.086009 -0.006968
v -0.079093 0.067397 -0.006968
v -0.071817 0.086009 0.027018
v -0.090421 0.069016 0.027018
v -0.075053 0.086009 0.025396
v -0.075053 0.077105 -0.006968
v -0.061293 0.085196 -0.006157
v -0.071007 0.085196 0.025396
v -0.090421 0.067397 0.023779
v -0.061293 0.085196 -0.007778
f 675 670 678 
f 666 665 669 
f 666 669 671 
f 664 668 672 
f 667 671 672 
f 672 671 673 
f 671 669 673 
f 664 672 673 
f 673 669 674 
f 668 664 674 
f 669 668 674 
f 664 673 674 
f 665 666 675 
f 667 670 675 
f 666 671 676 
f 671 667 676 
f 675 666 676 
f 667 675 676 
f 670 667 677 
f 668 670 677 
f 672 668 677 
f 667 672 677 
f 669 665 678 
f 668 669 678 
f 670 668 678 
f 665 675 678 
o convex_40
v -0.071809 0.088439 0.022971
v -0.047536 0.104621 0.027018
v -0.047536 0.102190 0.027018
v -0.047536 0.096526 -0.007778
v -0.059678 0.086009 -0.006968
v -0.071001 0.086009 0.027018
v -0.062098 0.088439 -0.007778
v -0.057247 0.099764 0.026207
v -0.047536 0.094103 -0.006968
v -0.049967 0.096526 -0.006968
v -0.074240 0.086009 0.027018
v -0.064529 0.086009 -0.006157
v -0.047536 0.101381 0.025396
v -0.064529 0.094912 0.026207
v -0.069381 0.086009 0.022971
v -0.048346 0.104621 0.026207
f 688 686 694 
f 680 681 682 
f 681 680 684 
f 682 683 685 
f 682 681 687 
f 683 682 687 
f 682 685 688 
f 685 686 688 
f 683 684 689 
f 684 680 689 
f 679 685 690 
f 685 683 690 
f 683 689 690 
f 689 679 690 
f 681 684 691 
f 687 681 691 
f 685 679 692 
f 680 686 692 
f 686 685 692 
f 689 680 692 
f 679 689 692 
f 684 683 693 
f 683 687 693 
f 691 684 693 
f 687 691 693 
f 680 682 694 
f 686 680 694 
f 682 688 694 
o convex_41
v -0.044296 0.098959 -0.007778
v -0.029733 0.111094 0.027018
v -0.032163 0.111094 0.027018
v -0.046726 0.102194 0.027018
v -0.030544 0.101386 -0.006968
v -0.045107 0.094910 -0.006968
v -0.030544 0.104618 -0.007778
v -0.046726 0.105429 0.026207
v -0.030544 0.108666 0.027018
v -0.047536 0.097339 -0.007778
v -0.037828 0.103810 0.000314
v -0.047536 0.094910 -0.007778
v -0.032163 0.111094 0.025396
v -0.047536 0.104618 0.027018
f 704 706 708 
f 696 697 698 
f 696 699 701 
f 696 698 703 
f 699 696 703 
f 698 700 703 
f 700 699 703 
f 695 701 704 
f 702 695 704 
f 701 695 705 
f 695 702 705 
f 700 698 706 
f 699 700 706 
f 701 699 706 
f 704 701 706 
f 697 696 707 
f 696 701 707 
f 702 697 707 
f 701 705 707 
f 705 702 707 
f 698 697 708 
f 697 702 708 
f 702 704 708 
f 706 698 708 
o convex_42
v -0.025687 0.106241 -0.006968
v -0.007885 0.115950 0.027018
v -0.007885 0.113520 0.027018
v -0.029733 0.111902 0.027018
v -0.028114 0.102193 -0.006968
v -0.007885 0.107049 -0.007778
v -0.028923 0.108667 0.024589
v -0.012742 0.108667 -0.007778
v -0.020019 0.114330 0.026207
v -0.029733 0.104622 -0.007778
v -0.008695 0.106241 -0.006968
v -0.007885 0.109475 -0.006157
v -0.029733 0.109475 0.027018
v -0.029733 0.102193 -0.007778
f 715 721 722 
f 711 710 712 
f 710 711 714 
f 713 711 715 
f 712 710 717 
f 709 712 717 
f 710 716 717 
f 716 709 717 
f 712 709 718 
f 709 716 718 
f 716 714 718 
f 711 713 719 
f 714 711 719 
f 710 714 720 
f 716 710 720 
f 714 716 720 
f 711 712 721 
f 715 711 721 
f 712 718 721 
f 721 718 722 
f 713 715 722 
f 718 714 722 
f 719 713 722 
f 714 719 722 
o convex_43
v 0.001018 0.111095 -0.000493
v 0.014773 0.115139 0.027018
v 0.013964 0.115950 0.027018
v -0.007885 0.113521 0.027018
v 0.014773 0.107048 -0.004539
v -0.007885 0.107048 -0.007778
v -0.007885 0.115950 0.026207
v 0.013964 0.109477 -0.006157
v 0.014773 0.113521 0.027018
v -0.007075 0.109477 -0.006968
v 0.005868 0.115950 0.023779
v -0.007885 0.107048 -0.005350
v 0.014773 0.108667 -0.007778
f 732 730 735 
f 724 725 726 
f 726 725 729 
f 728 726 729 
f 724 726 731 
f 726 727 731 
f 727 724 731 
f 729 723 732 
f 728 729 732 
f 723 730 732 
f 723 729 733 
f 729 725 733 
f 730 723 733 
f 725 730 733 
f 727 726 734 
f 726 728 734 
f 728 727 734 
f 725 724 735 
f 724 727 735 
f 727 728 735 
f 730 725 735 
f 728 732 735 
o convex_44
v 0.036622 0.110282 0.018924
v 0.014773 0.106239 -0.007778
v 0.014773 0.106239 -0.006966
v 0.049568 0.096530 -0.007778
v 0.048757 0.103813 0.025399
v 0.014773 0.113521 0.025399
v 0.022869 0.107857 -0.007778
v 0.048757 0.099769 -0.006966
v 0.018012 0.115140 0.024587
v 0.049568 0.106236 0.025399
v 0.048757 0.096530 -0.005349
v 0.014773 0.112712 0.023779
v 0.014773 0.110284 -0.001303
v 0.035811 0.104620 -0.007778
v 0.044711 0.108664 0.024587
v 0.026908 0.113521 0.022970
v 0.048757 0.103813 0.009207
v 0.030958 0.107047 -0.003732
v 0.014773 0.115140 0.025399
f 745 750 754 
f 737 738 741 
f 739 737 742 
f 740 739 745 
f 741 740 745 
f 739 743 745 
f 738 737 746 
f 737 739 746 
f 739 740 746 
f 741 738 747 
f 740 741 747 
f 738 746 747 
f 746 740 747 
f 737 741 748 
f 742 737 748 
f 744 742 748 
f 739 742 749 
f 743 739 749 
f 742 744 751 
f 750 736 751 
f 744 750 751 
f 745 743 752 
f 749 736 752 
f 743 749 752 
f 736 750 752 
f 750 745 752 
f 736 749 753 
f 749 742 753 
f 751 736 753 
f 742 751 753 
f 741 745 754 
f 748 741 754 
f 744 748 754 
f 750 744 754 
o convex_45
v 0.091650 0.063351 -0.006966
v 0.107831 0.048788 0.025399
v 0.107831 0.046357 0.025399
v 0.096504 0.063351 0.024587
v 0.097314 0.046357 -0.006966
v 0.100549 0.047169 -0.006966
v 0.088413 0.061732 -0.006966
v 0.105402 0.046357 0.024587
v 0.100549 0.061732 0.022970
v 0.100549 0.056875 0.010831
v 0.099739 0.063351 0.025399
v 0.097314 0.053641 -0.007778
v 0.096504 0.062539 0.024587
v 0.088413 0.063351 -0.007778
v 0.107021 0.047976 0.018924
f 766 764 769 
f 757 759 760 
f 761 759 762 
f 759 757 762 
f 755 763 764 
f 757 756 765 
f 755 758 765 
f 756 763 765 
f 763 755 765 
f 760 759 766 
f 755 764 766 
f 758 761 767 
f 761 762 767 
f 762 757 767 
f 757 765 767 
f 765 758 767 
f 758 755 768 
f 761 758 768 
f 759 761 768 
f 766 759 768 
f 755 766 768 
f 756 757 769 
f 757 760 769 
f 763 756 769 
f 764 763 769 
f 760 766 769 
o convex_46
v 0.060898 0.100571 0.023779
v 0.066562 0.085200 -0.007778
v 0.067372 0.085200 -0.007778
v 0.049569 0.098953 -0.006966
v 0.049569 0.102999 0.023779
v 0.066562 0.093293 0.024587
v 0.067372 0.090058 -0.002111
v 0.049569 0.095719 -0.006966
v 0.050380 0.106239 0.025399
v 0.067372 0.096524 0.025399
v 0.057664 0.094914 -0.007778
v 0.066562 0.085200 -0.006158
v 0.056043 0.101381 0.014068
v 0.065753 0.094914 0.011639
f 782 770 783 
f 774 773 777 
f 773 774 778 
f 774 775 778 
f 778 775 779 
f 775 772 779 
f 772 776 779 
f 770 778 779 
f 772 771 780 
f 776 772 780 
f 771 777 780 
f 777 773 780 
f 771 772 781 
f 775 774 781 
f 772 775 781 
f 777 771 781 
f 774 777 781 
f 778 770 782 
f 773 778 782 
f 780 773 782 
f 780 782 783 
f 779 776 783 
f 770 779 783 
f 776 780 783 
o convex_47
v 0.077083 0.089241 0.024587
v 0.087601 0.063351 -0.007778
v 0.086795 0.064162 -0.007778
v 0.095691 0.064162 0.025399
v 0.067374 0.093287 0.025399
v 0.081942 0.075488 -0.006966
v 0.067374 0.087625 -0.007778
v 0.098119 0.064973 0.021353
v 0.067374 0.084388 -0.006966
v 0.091647 0.074680 0.025399
v 0.090835 0.064162 -0.007778
v 0.068184 0.095714 0.022970
v 0.077083 0.085195 0.008414
v 0.087601 0.063351 -0.006158
v 0.087601 0.077107 0.016498
v 0.098928 0.063351 0.025399
v 0.071421 0.085195 -0.007778
v 0.091647 0.070638 0.011639
v 0.068184 0.091668 0.005979
f 796 800 802 
f 785 786 790 
f 790 786 792 
f 788 790 792 
f 784 788 793 
f 788 787 793 
f 785 790 794 
f 788 784 795 
f 790 788 795 
f 786 785 797 
f 787 788 797 
f 792 786 797 
f 788 792 797 
f 784 793 798 
f 789 796 798 
f 796 784 798 
f 793 787 799 
f 791 793 799 
f 794 791 799 
f 785 794 799 
f 797 785 799 
f 787 797 799 
f 789 794 800 
f 794 790 800 
f 796 789 800 
f 793 791 801 
f 791 794 801 
f 794 789 801 
f 798 793 801 
f 789 798 801 
f 795 784 802 
f 790 795 802 
f 784 796 802 
f 800 790 802 
