# https://github.com/mikedh/trimesh
v 0.11040020 0.04710276 0.03399865
v 0.11286883 0.04710276 0.03385249
v 0.11040020 0.04711565 0.03399470
v 0.10793513 0.04711565 0.03378928
v 0.10793513 0.04710276 0.03378928
v 0.11040020 0.04463572 0.03394334
v 0.11780253 0.00320746 0.03320859
v 0.11286883 0.03970163 0.03389594
v 0.11286883 0.04216867 0.03393544
v 0.11286883 0.04463572 0.03391964
v 0.11533745 0.04710276 0.03335475
v 0.11286883 0.04711565 0.03384854
v 0.11533745 0.03970163 0.03377348
v 0.11533745 0.04216867 0.03369448
v 0.11533745 0.04463572 0.03356016
v 0.10617943 0.04711565 0.03312564
v 0.11040020 0.04216867 0.03386829
v 0.10617943 0.04710276 0.03312564
v 0.11611776 0.00320746 0.03291627
v 0.11646181 0.00320746 0.03297948
v 0.11833101 0.00320746 0.03321649
v 0.12027115 0.00320746 0.03322834
v 0.12079964 0.00320746 0.03322439
v 0.11533745 0.03476325 0.03378928
v 0.11533745 0.03723029 0.03380903
v 0.11692646 0.04710276 0.03283726
v 0.11533745 0.04711565 0.03335080
v 0.11780253 0.03723029 0.03345351
v 0.11955823 0.03723029 0.03290442
v 0.11780253 0.03229621 0.03361547
v 0.12027115 0.02735783 0.03341401
v 0.11780253 0.03476325 0.03356807
v 0.10517211 0.04711565 0.03140727
v 0.10517211 0.04710276 0.03140727
v 0.11384422 0.00320746 0.03059351
v 0.11406058 0.00320746 0.03085423
v 0.11488346 0.00320746 0.03182600
v 0.11514947 0.00320746 0.03209066
v 0.12273978 0.00320746 0.03319674
v 0.12273978 0.00515015 0.03320859
v 0.12273978 0.00761719 0.03322044
v 0.11780253 0.02982917 0.03362337
v 0.12027115 0.02489508 0.03343376
v 0.11923547 0.03970163 0.03274641
v 0.11905104 0.04098243 0.03264765
v 0.11876728 0.04262856 0.03250544
v 0.11848708 0.04463572 0.03224868
v 0.11974977 0.04463572 0.03101619
v 0.11831328 0.04711565 0.03147047
v 0.11700094 0.04711565 0.03275826
v 0.11692646 0.04711565 0.03282936
v 0.12184243 0.02982917 0.03283726
v 0.12027115 0.02982917 0.03330735
v 0.12215809 0.02735783 0.03295973
v 0.12273978 0.01996100 0.03322834
v 0.10445919 0.04711565 0.02953484
v 0.10445919 0.04710276 0.02953089
v 0.09113713 0.04511279 -0.00635735
v 0.11342569 0.00320746 0.02925437
v 0.12313348 0.00320746 0.03313354
v 0.12458061 0.00761719 0.03292812
v 0.12463026 0.01008853 0.03293207
v 0.12273978 0.01008853 0.03322439
v 0.12398119 0.02370024 0.03264765
v 0.12079255 0.03723029 0.03209461
v 0.12046978 0.03970163 0.03175489
v 0.12157286 0.04116725 0.03028144
v 0.11933833 0.04656551 0.03060931
v 0.11853673 0.04711565 0.03123346
v 0.12410178 0.02242804 0.03274641
v 0.12430750 0.01996100 0.03288862
v 0.09106619 0.04711565 -0.00635735
v 0.10300852 0.00321606 -0.00635735
v 0.10346961 0.00320746 -0.00614009
v 0.12457352 0.00320746 0.03290047
v 0.12483598 0.00320746 0.03275826
v 0.12580782 0.00320746 0.03222893
v 0.12586458 0.01008853 0.03223683
v 0.12679740 0.01255557 0.03083843
v 0.12649237 0.01654840 0.03030514
v 0.12484308 0.02242804 0.03140727
v 0.12437843 0.02467159 0.03147837
v 0.12422593 0.02735783 0.03070807
v 0.12173601 0.03970163 0.03052241
v 0.12157286 0.04116725 0.02998912
v 0.12405922 0.02902115 0.03036045
v 0.12529353 0.02489508 0.02893835
v 0.11908650 0.04711565 0.02893835
v 0.12702795 0.01008853 0.03100039
v 0.10216437 0.04711565 -0.00635735
v 0.10350863 0.00320746 -0.00635735
v 0.12606675 0.00320746 0.03196426
v 0.12706697 0.00761719 0.03100829
v 0.12724787 0.01008853 0.02893835
v 0.12649237 0.01654840 0.02969285
v 0.12608093 0.01996100 0.02893835
v 0.12576527 0.02242804 0.02893835
v 0.12416562 0.02922315 0.02743329
v 0.12150547 0.03845952 0.02770981
v 0.12131393 0.03970163 0.02818779
v 0.12094151 0.04206122 0.02907661
v 0.11909359 0.04604976 0.02759130
v 0.12002288 0.04463572 0.02893835
v 0.11893753 0.04711565 0.02842876
v 0.12730106 0.00761719 0.02893835
v 0.10412579 0.04252971 -0.00635735
v 0.11173383 0.00320746 -0.00635735
v 0.12698539 0.00320746 0.03099249
v 0.12702086 0.00515015 0.03100039
v 0.12703859 0.00320746 0.03055401
v 0.12723012 0.00320746 0.02893835
v 0.12726205 0.00515015 0.02893835
v 0.12666262 0.01008853 0.02717257
v 0.12658459 0.01206131 0.02735034
v 0.12479342 0.02489508 0.02684470
v 0.12444228 0.02735783 0.02712517
v 0.10975112 0.02321457 -0.00635735
v 0.10873672 0.02740510 -0.00635735
v 0.10855228 0.02811857 -0.00635735
v 0.10810893 0.02982917 -0.00635735
v 0.10656249 0.03555408 -0.00635735
v 0.10606947 0.03721310 -0.00635735
v 0.10526433 0.03967155 -0.00635735
v 0.10499831 0.04044519 -0.00635735
v 0.10447693 0.04170020 -0.00635735
v 0.12667327 0.00761719 0.02717257
v 0.12668745 0.00320746 0.02719628
v 0.11170191 0.00515015 -0.00635735
v 0.11165225 0.00761719 -0.00635735
v 0.11153875 0.01008853 -0.00635735
v 0.12502042 0.02242804 0.02665114
v 0.11033991 0.02000398 -0.00635735
v 0.11020513 0.02083349 -0.00635735
v 0.10992137 0.02242804 -0.00635735
f 1 2 12
f 1 12 3
f 1 3 4
f 1 4 5
f 1 5 6
f 1 6 7
f 1 7 8
f 1 8 9
f 1 9 10
f 1 10 2
f 2 11 27
f 2 27 12
f 2 10 13
f 2 13 14
f 2 14 15
f 2 15 11
f 3 12 27
f 3 27 51
f 3 51 50
f 3 50 49
f 3 49 69
f 3 69 88
f 3 88 104
f 3 104 90
f 3 90 72
f 3 72 56
f 3 56 33
f 3 33 16
f 3 16 4
f 4 16 18
f 4 18 5
f 5 17 6
f 5 18 19
f 5 19 20
f 5 20 7
f 5 7 17
f 6 17 7
f 7 20 19
f 7 19 38
f 7 38 37
f 7 37 36
f 7 36 35
f 7 35 59
f 7 59 74
f 7 74 91
f 7 91 107
f 7 107 127
f 7 127 111
f 7 111 110
f 7 110 108
f 7 108 92
f 7 92 77
f 7 77 76
f 7 76 75
f 7 75 60
f 7 60 39
f 7 39 23
f 7 23 22
f 7 22 21
f 7 21 8
f 8 21 22
f 8 22 23
f 8 23 9
f 9 23 24
f 9 24 25
f 9 25 10
f 10 25 13
f 11 26 27
f 11 15 28
f 11 28 29
f 11 29 26
f 13 25 30
f 13 30 31
f 13 31 32
f 13 32 14
f 14 32 28
f 14 28 15
f 16 33 34
f 16 34 18
f 18 34 35
f 18 35 36
f 18 36 37
f 18 37 38
f 18 38 19
f 23 39 24
f 24 39 25
f 25 39 40
f 25 40 41
f 25 41 42
f 25 42 43
f 25 43 30
f 26 44 45
f 26 45 46
f 26 46 47
f 26 47 48
f 26 48 49
f 26 49 50
f 26 50 51
f 26 51 27
f 26 29 52
f 26 52 44
f 28 32 53
f 28 53 54
f 28 54 29
f 29 54 52
f 30 43 31
f 31 53 32
f 31 43 55
f 31 55 53
f 33 56 34
f 34 56 57
f 34 57 58
f 34 58 35
f 35 58 59
f 39 60 61
f 39 61 40
f 40 61 41
f 41 61 62
f 41 62 63
f 41 63 43
f 41 43 42
f 43 63 55
f 44 52 64
f 44 64 45
f 45 64 46
f 46 65 47
f 46 64 65
f 47 65 66
f 47 66 67
f 47 67 48
f 48 67 68
f 48 68 69
f 48 69 49
f 52 54 70
f 52 70 64
f 53 55 71
f 53 71 54
f 54 71 70
f 55 63 62
f 55 62 71
f 56 72 58
f 56 58 57
f 58 72 90
f 58 90 106
f 58 106 125
f 58 125 124
f 58 124 123
f 58 123 122
f 58 122 121
f 58 121 120
f 58 120 119
f 58 119 118
f 58 118 117
f 58 117 134
f 58 134 133
f 58 133 132
f 58 132 130
f 58 130 129
f 58 129 128
f 58 128 107
f 58 107 91
f 58 91 73
f 58 73 59
f 59 73 74
f 60 75 61
f 61 75 62
f 62 75 76
f 62 76 77
f 62 77 78
f 62 78 71
f 64 70 79
f 64 79 80
f 64 80 81
f 64 81 82
f 64 82 83
f 64 83 67
f 64 67 84
f 64 84 66
f 64 66 65
f 66 84 67
f 67 85 68
f 67 83 86
f 67 86 87
f 67 87 85
f 68 88 69
f 68 85 88
f 70 71 89
f 70 89 79
f 71 78 89
f 73 91 74
f 77 92 93
f 77 93 78
f 78 93 89
f 79 89 80
f 80 89 94
f 80 94 95
f 80 95 96
f 80 96 97
f 80 97 87
f 80 87 86
f 80 86 83
f 80 83 81
f 81 83 82
f 85 98 99
f 85 99 100
f 85 100 101
f 85 101 102
f 85 102 103
f 85 103 88
f 85 87 98
f 87 97 98
f 88 103 104
f 89 93 105
f 89 105 94
f 90 104 102
f 90 102 106
f 92 108 109
f 92 109 93
f 93 109 108
f 93 108 110
f 93 110 111
f 93 111 112
f 93 112 105
f 94 105 113
f 94 113 114
f 94 114 96
f 94 96 95
f 96 115 97
f 96 114 115
f 97 115 116
f 97 116 98
f 98 116 117
f 98 117 118
f 98 118 119
f 98 119 120
f 98 120 121
f 98 121 122
f 98 122 99
f 99 122 102
f 99 102 100
f 100 102 101
f 102 104 103
f 102 122 123
f 102 123 124
f 102 124 125
f 102 125 106
f 105 126 113
f 105 112 127
f 105 127 126
f 107 128 113
f 107 113 126
f 107 126 127
f 111 127 112
f 113 129 130
f 113 130 114
f 113 128 129
f 114 130 131
f 114 131 115
f 115 131 132
f 115 132 133
f 115 133 134
f 115 134 116
f 116 134 117
f 130 132 131

