# https://github.com/mikedh/trimesh
v -0.04313086 -0.09781174 -0.00251510
v -0.04313086 -0.09079497 -0.00251510
v -0.04269896 -0.09804636 -0.00251510
v -0.04171047 -0.11474207 0.02725337
v -0.04313086 -0.11352829 0.02644163
v -0.04313086 -0.09146442 -0.00003789
v 0.00235722 -0.10914243 0.02907628
v 0.00235722 -0.10145308 -0.00251510
v -0.04226705 -0.09826535 -0.00251510
v -0.04184405 -0.11485783 0.02893633
v -0.04313086 -0.11410078 0.02893633
v -0.04016986 -0.09927265 -0.00251510
v -0.04005855 -0.11499860 0.02644512
v -0.03462188 -0.11720092 0.02718339
v -0.03626490 -0.11696630 0.02844648
v -0.04015205 -0.11562425 0.02893633
v -0.04313086 -0.09614123 0.01705763
v 0.00235722 -0.10955536 0.03025190
v -0.04313086 -0.09665427 0.01891554
v -0.04313086 -0.09822780 0.02455223
v -0.04313086 -0.09885659 0.02659208
v 0.00235722 -0.10775346 -0.00251510
v -0.04167485 -0.11477336 0.03044084
v -0.04313086 -0.11319670 0.03144153
v -0.03947525 -0.09954169 -0.00251510
v -0.03844224 -0.09991709 -0.00251510
v -0.03917247 -0.11462946 0.02517153
v -0.03189242 -0.11713210 0.02514704
v -0.03272506 -0.11743554 0.02640314
v -0.02658489 -0.11949083 0.02769422
v -0.03535212 -0.11727600 0.02913576
v -0.03646973 -0.11702573 0.03009096
v -0.03744485 -0.11661280 0.02913576
v -0.02816557 -0.11925621 0.02893633
v -0.03027612 -0.11867122 0.02893633
v -0.03274733 -0.11798612 0.02893633
v -0.03646973 -0.11702573 0.03018193
v 0.00235722 -0.10972116 0.03040236
v -0.04313086 -0.10017360 0.02961861
v -0.04313086 -0.10126538 0.03146602
v -0.04313086 -0.10173463 0.03203284
v 0.00235722 -0.12216553 0.02726386
v -0.00431282 -0.12198095 0.02521352
v -0.00066612 -0.10775346 -0.00251510
v -0.04015205 -0.11512373 0.03082572
v -0.04313086 -0.11254914 0.03200834
v -0.04199544 -0.11235206 0.03280609
v -0.03764967 -0.10019863 -0.00251510
v -0.03203936 -0.10217884 -0.00251510
v -0.03141599 -0.10239469 -0.00251510
v -0.02534260 -0.11963786 0.02733034
v -0.03030728 -0.10277322 -0.00251510
v -0.02776038 -0.10358032 -0.00251510
v -0.02534260 -0.10419346 -0.00251510
v -0.01483884 -0.12209358 0.02747379
v -0.02534260 -0.11995382 0.02893633
v -0.02693219 -0.11958781 0.02893633
v -0.02704350 -0.11961909 0.03036737
v -0.03521408 -0.11720405 0.03042335
v -0.03744485 -0.11586514 0.03101466
v 0.00235722 -0.11032805 0.03093069
v -0.04313086 -0.10284517 0.03284807
v 0.00235722 -0.11068155 0.03121060
v 0.00235722 -0.12274112 0.02893633
v -0.00460670 -0.12198095 0.02521352
v 0.00180509 -0.12275364 0.02893633
v -0.00329317 -0.10767838 -0.00251510
v -0.04015205 -0.11385364 0.03206083
v -0.04313086 -0.11124777 0.03275710
v -0.04273903 -0.11088176 0.03290755
v -0.04313086 -0.11074725 0.03287606
v -0.03768084 -0.11420088 0.03245270
v -0.03604673 -0.11445740 0.03260665
v -0.04015205 -0.11262109 0.03290056
v -0.04015205 -0.11085048 0.03319446
v -0.02470142 -0.10433111 -0.00251510
v -0.01794233 -0.10575449 -0.00251510
v -0.01545331 -0.10626440 -0.00251510
v -0.01300436 -0.10670548 -0.00251510
v -0.01228749 -0.10680559 -0.00251510
v -0.01093389 -0.10697765 -0.00251510
v -0.01300436 -0.12219368 0.02727436
v -0.01483884 -0.12209358 0.02806860
v -0.02354819 -0.10457511 -0.00251510
v -0.02534260 -0.11980679 0.03059480
v -0.03274733 -0.11754816 0.03082222
v -0.04313086 -0.10348334 0.03296354
v 0.00235722 -0.11331870 0.03239322
v 0.00235722 -0.11276499 0.03219728
v 0.00235722 -0.12253467 0.03084672
v 0.00180509 -0.12255656 0.03086421
v -0.00559963 -0.10747192 -0.00251510
v -0.01015468 -0.10705585 -0.00251510
v -0.00066612 -0.12249086 0.03083622
v -0.01300436 -0.12219368 0.02836601
v -0.04313086 -0.10838225 0.03305451
v -0.02534260 -0.11825516 0.03168644
v -0.03027612 -0.11619048 0.03230225
v -0.03440370 -0.11461069 0.03266613
v -0.03274733 -0.11475772 0.03271862
v -0.03027612 -0.11495480 0.03277810
v -0.03768084 -0.11296520 0.03291805
v -0.03274733 -0.11331870 0.03300902
v -0.03768084 -0.11085048 0.03321196
v -0.04015205 -0.10838225 0.03322945
v -0.04261881 -0.10591715 0.03316647
v -0.04313086 -0.10591715 0.03314548
v -0.04261881 -0.10838225 0.03309649
v -0.03027612 -0.11331870 0.03307200
v -0.02780936 -0.11331870 0.03309649
v -0.01300436 -0.12172443 0.02960111
v -0.02287139 -0.12000074 0.03078024
v -0.04015205 -0.10591715 0.03317347
v -0.03027612 -0.10838225 0.03311399
v -0.02040463 -0.11085048 0.03304401
v -0.01547557 -0.11331870 0.03305801
v 0.00235722 -0.11523322 0.03241771
v 0.00235722 -0.12214676 0.03109514
v 0.00180509 -0.12072338 0.03198735
v -0.00066612 -0.12072338 0.03195936
v -0.01794233 -0.11840531 0.03222877
v -0.02287139 -0.11825516 0.03195236
v -0.02040463 -0.12013839 0.03088870
v -0.02049814 -0.11805807 0.03221827
v -0.02137976 -0.11694127 0.03262764
v -0.01973674 -0.11710082 0.03266963
v -0.02287139 -0.11331870 0.03311399
v -0.03274733 -0.11085048 0.03322595
v -0.03027612 -0.11085048 0.03322945
v -0.03521408 -0.10838225 0.03322945
v -0.01794233 -0.11716963 0.03268712
v -0.01794233 -0.11578693 0.03288306
v -0.01547557 -0.11578693 0.03290056
v -0.03274733 -0.10838225 0.03319446
v -0.02287139 -0.11085048 0.03313148
v -0.02534260 -0.11085048 0.03320146
v -0.01794233 -0.11331870 0.03311399
v -0.01053760 -0.11578693 0.03284458
v 0.00235722 -0.11825516 0.03241421
v 0.00235722 -0.11770144 0.03241771
v 0.00235722 -0.12072338 0.03196636
v 0.00235722 -0.12016967 0.03208182
v -0.00783485 -0.11824890 0.03257866
v -0.01053760 -0.11874630 0.03250868
v -0.02040463 -0.11331870 0.03312099
v -0.02780936 -0.11085048 0.03322945
v -0.01053760 -0.11751374 0.03271162
v -0.01300436 -0.11578693 0.03289706
v -0.00850275 -0.11742303 0.03269063
f 1 2 8
f 1 8 22
f 1 22 44
f 1 44 67
f 1 67 92
f 1 92 93
f 1 93 81
f 1 81 80
f 1 80 79
f 1 79 78
f 1 78 77
f 1 77 84
f 1 84 76
f 1 76 54
f 1 54 53
f 1 53 52
f 1 52 50
f 1 50 49
f 1 49 48
f 1 48 26
f 1 26 25
f 1 25 12
f 1 12 9
f 1 9 3
f 1 3 4
f 1 4 5
f 1 5 11
f 1 11 24
f 1 24 46
f 1 46 69
f 1 69 71
f 1 71 96
f 1 96 107
f 1 107 87
f 1 87 62
f 1 62 41
f 1 41 40
f 1 40 39
f 1 39 21
f 1 21 20
f 1 20 19
f 1 19 17
f 1 17 6
f 1 6 2
f 2 6 7
f 2 7 8
f 3 9 4
f 4 10 11
f 4 11 5
f 4 9 12
f 4 12 13
f 4 13 14
f 4 14 15
f 4 15 16
f 4 16 10
f 6 17 7
f 7 18 38
f 7 38 61
f 7 61 63
f 7 63 89
f 7 89 88
f 7 88 117
f 7 117 140
f 7 140 139
f 7 139 142
f 7 142 141
f 7 141 118
f 7 118 90
f 7 90 64
f 7 64 42
f 7 42 22
f 7 22 8
f 7 17 19
f 7 19 20
f 7 20 21
f 7 21 18
f 10 16 23
f 10 23 11
f 11 23 24
f 12 25 13
f 13 25 26
f 13 26 27
f 13 27 28
f 13 28 14
f 14 28 29
f 14 29 30
f 14 30 15
f 15 31 32
f 15 32 33
f 15 33 16
f 15 30 34
f 15 34 35
f 15 35 36
f 15 36 31
f 16 33 32
f 16 32 37
f 16 37 23
f 18 21 39
f 18 39 40
f 18 40 41
f 18 41 38
f 22 42 43
f 22 43 65
f 22 65 44
f 23 37 45
f 23 45 24
f 24 45 47
f 24 47 46
f 26 48 27
f 27 48 49
f 27 49 50
f 27 50 28
f 28 51 30
f 28 30 29
f 28 50 52
f 28 52 53
f 28 53 54
f 28 54 55
f 28 55 51
f 30 56 57
f 30 57 34
f 30 51 55
f 30 55 56
f 31 36 32
f 32 36 35
f 32 35 34
f 32 34 58
f 32 58 37
f 34 57 58
f 37 59 60
f 37 60 45
f 37 58 59
f 38 41 61
f 41 62 63
f 41 63 61
f 42 64 43
f 43 64 66
f 43 66 65
f 44 65 67
f 45 60 68
f 45 68 47
f 46 47 69
f 47 70 71
f 47 71 69
f 47 68 72
f 47 72 73
f 47 73 74
f 47 74 75
f 47 75 70
f 54 76 55
f 55 77 78
f 55 78 79
f 55 79 80
f 55 80 81
f 55 81 82
f 55 82 95
f 55 95 83
f 55 83 58
f 55 58 56
f 55 76 84
f 55 84 77
f 56 58 57
f 58 85 86
f 58 86 59
f 58 83 85
f 59 86 60
f 60 86 72
f 60 72 68
f 62 87 88
f 62 88 89
f 62 89 63
f 64 90 91
f 64 91 66
f 65 92 67
f 65 66 82
f 65 82 81
f 65 81 93
f 65 93 92
f 66 91 94
f 66 94 95
f 66 95 82
f 70 75 71
f 71 75 96
f 72 86 73
f 73 86 85
f 73 85 97
f 73 97 98
f 73 98 99
f 73 99 74
f 74 99 100
f 74 100 101
f 74 101 102
f 74 102 103
f 74 103 75
f 75 104 105
f 75 105 106
f 75 106 107
f 75 107 108
f 75 108 96
f 75 103 109
f 75 109 110
f 75 110 104
f 83 95 111
f 83 111 85
f 85 112 97
f 85 111 112
f 87 107 106
f 87 106 113
f 87 113 114
f 87 114 115
f 87 115 88
f 88 115 116
f 88 116 117
f 90 118 91
f 91 119 120
f 91 120 94
f 91 118 119
f 94 120 121
f 94 121 122
f 94 122 123
f 94 123 112
f 94 112 111
f 94 111 95
f 96 108 107
f 97 112 122
f 97 122 98
f 98 122 124
f 98 124 125
f 98 125 99
f 99 125 100
f 100 125 126
f 100 126 101
f 101 103 102
f 101 126 103
f 103 126 109
f 104 110 127
f 104 127 145
f 104 145 128
f 104 128 105
f 105 113 106
f 105 128 129
f 105 129 146
f 105 146 130
f 105 130 113
f 109 126 131
f 109 131 132
f 109 132 110
f 110 132 133
f 110 133 127
f 112 123 122
f 113 130 134
f 113 134 114
f 114 134 135
f 114 135 115
f 115 135 116
f 116 135 136
f 116 136 137
f 116 137 138
f 116 138 139
f 116 139 140
f 116 140 117
f 118 141 119
f 119 141 142
f 119 142 143
f 119 143 144
f 119 144 120
f 120 144 121
f 121 144 126
f 121 126 124
f 121 124 122
f 124 126 125
f 126 144 131
f 127 133 145
f 128 145 129
f 129 145 146
f 130 146 136
f 130 136 134
f 131 144 147
f 131 147 132
f 132 147 133
f 133 147 148
f 133 148 145
f 134 136 135
f 136 146 137
f 137 146 145
f 137 145 148
f 137 148 138
f 138 148 139
f 139 143 142
f 139 148 149
f 139 149 143
f 143 149 147
f 143 147 144
f 147 149 148

