o convex_0
v -0.083259 -0.012481 0.071015
v -0.018497 -0.001456 -0.069571
v -0.018497 0.004041 -0.069571
v 0.120700 0.035741 0.068249
v 0.119315 -0.040052 -0.026828
v -0.117718 0.041261 0.062731
v 0.117930 0.038493 -0.068181
v -0.119103 -0.041436 -0.066791
v -0.119103 0.037125 -0.066791
v 0.119315 -0.037292 0.068236
v -0.119103 -0.037292 0.068236
v 0.119315 -0.040052 -0.068181
v 0.117930 0.041253 0.064107
v -0.120488 0.037125 0.069625
v 0.050397 -0.041436 -0.004782
v -0.023989 0.039877 -0.053016
v 0.122085 0.010930 -0.047511
v -0.121873 -0.017994 -0.059910
v -0.077767 -0.038668 0.065483
v 0.119315 0.035741 -0.069571
v 0.122085 -0.023514 0.036543
v -0.001948 0.041261 0.002085
v -0.119103 0.038493 0.071015
v 0.115184 0.008177 0.069625
v 0.106921 -0.038668 0.066859
v -0.117718 -0.041436 -0.028204
v 0.093118 -0.034540 -0.069571
v -0.116357 -0.038668 -0.068181
v -0.121873 -0.017994 0.031025
v -0.121873 0.023339 -0.046121
v -0.116357 -0.027643 0.071015
v -0.080513 0.039877 -0.040617
v -0.112226 0.027476 -0.068181
v 0.060045 -0.041436 -0.054392
v 0.120700 -0.037292 -0.066791
v 0.122085 0.027468 0.047566
v -0.120488 -0.034540 0.068236
v 0.116569 -0.012481 0.069625
v 0.120700 -0.037292 0.066859
v 0.058660 0.039877 -0.044745
v -0.121873 0.013690 0.050318
v 0.029717 0.041261 0.068236
v -0.120488 -0.040052 -0.066791
v -0.102554 0.038493 -0.062663
v 0.042135 -0.040052 0.039295
v 0.069692 0.037125 -0.069571
v 0.073823 -0.041436 -0.015805
v -0.048824 0.041261 0.003461
v -0.117718 -0.037292 0.069625
v -0.120488 0.034364 -0.066791
v 0.120700 0.031604 -0.061286
v 0.120700 0.038501 0.046204
v 0.122085 0.005425 0.062731
v -0.116357 0.041261 0.069625
v -0.069481 0.013690 0.071015
v 0.117930 -0.038668 0.062731
v -0.098423 -0.041436 -0.068181
v 0.122085 -0.017994 -0.026828
v 0.119315 0.038493 0.068236
v 0.117930 -0.031787 -0.069571
v 0.029717 -0.029019 -0.069571
v -0.105325 -0.038668 0.058589
v -0.057087 0.038493 -0.066791
v 0.033872 0.039877 -0.054392
f 63 16 64 
f 6 9 14 
f 2 3 20 
f 6 14 23 
f 11 8 26 
f 8 15 26 
f 2 20 27 
f 3 2 28 
f 18 29 30 
f 1 23 31 
f 3 28 33 
f 15 8 34 
f 5 12 35 
f 12 20 35 
f 21 17 36 
f 23 14 37 
f 31 23 37 
f 10 4 38 
f 4 24 38 
f 31 10 38 
f 1 31 38 
f 4 10 39 
f 5 35 39 
f 35 21 39 
f 13 7 40 
f 22 13 40 
f 30 29 41 
f 14 30 41 
f 37 14 41 
f 29 37 41 
f 22 6 42 
f 13 22 42 
f 8 11 43 
f 28 8 43 
f 29 18 43 
f 11 37 43 
f 37 29 43 
f 9 6 44 
f 6 32 44 
f 32 16 44 
f 15 25 45 
f 25 19 45 
f 26 15 45 
f 19 26 45 
f 20 3 46 
f 7 20 46 
f 3 33 46 
f 33 9 46 
f 12 5 47 
f 34 12 47 
f 15 34 47 
f 6 22 48 
f 22 16 48 
f 32 6 48 
f 16 32 48 
f 25 10 49 
f 19 25 49 
f 10 31 49 
f 37 11 49 
f 31 37 49 
f 14 9 50 
f 18 30 50 
f 30 14 50 
f 9 33 50 
f 33 28 50 
f 43 18 50 
f 28 43 50 
f 35 20 51 
f 17 35 51 
f 36 17 51 
f 36 51 52 
f 7 13 52 
f 20 7 52 
f 4 36 52 
f 51 20 52 
f 36 4 53 
f 21 36 53 
f 4 39 53 
f 39 21 53 
f 6 23 54 
f 42 6 54 
f 23 42 54 
f 23 1 55 
f 24 23 55 
f 1 38 55 
f 38 24 55 
f 10 25 56 
f 25 15 56 
f 39 10 56 
f 5 39 56 
f 47 5 56 
f 15 47 56 
f 27 12 57 
f 8 28 57 
f 12 34 57 
f 34 8 57 
f 17 21 58 
f 35 17 58 
f 21 35 58 
f 24 4 59 
f 23 24 59 
f 13 42 59 
f 42 23 59 
f 4 52 59 
f 52 13 59 
f 20 12 60 
f 12 27 60 
f 27 20 60 
f 2 27 61 
f 28 2 61 
f 27 57 61 
f 57 28 61 
f 11 26 62 
f 26 19 62 
f 19 49 62 
f 49 11 62 
f 9 44 63 
f 44 16 63 
f 7 46 63 
f 46 9 63 
f 16 22 64 
f 40 7 64 
f 22 40 64 
f 7 63 64 
