# https://github.com/mikedh/trimesh
v -0.37600034 0.49256945 0.23419964
v -0.37544504 0.51558644 0.25772169
v -0.37495503 0.50777644 0.25772169
v -0.46463954 0.16712593 -0.09055507
v -0.44811606 0.15994534 0.27400675
v -0.49604502 0.66800642 0.00772170
v -0.49604502 0.67169642 0.01162170
v -0.49605504 0.67183644 0.01162170
v -0.32418501 0.69527644 -0.24617828
v -0.32416502 0.69136643 -0.25008830
v -0.32416502 0.69504642 -0.24617828
v -0.49860099 0.59435844 -0.11788205
v -0.36596727 0.65797460 0.20549463
v -0.48195428 0.65946871 0.20687529
v -0.49213502 0.63667643 0.03504170
v -0.49212503 0.63277644 0.03116170
v -0.49213502 0.63667643 0.03506170
v -0.49213502 0.64039642 0.03897170
v -0.49213862 0.64052778 0.03908071
v -0.37494713 0.51565129 0.26555869
v -0.49213502 0.63669646 0.03506170
v -0.49212977 0.63151705 0.02966240
v -0.49163502 0.63667643 0.04287170
v -0.41568539 0.77689773 -0.20617117
v -0.37495503 0.51164645 0.26162168
v -0.37495503 0.51167643 0.26162168
v -0.49603707 0.66791749 0.00768979
v -0.49684504 0.67964643 0.00772170
v -0.49956185 0.71313399 -0.00660126
v -0.49606502 0.67574644 0.01553170
v -0.49604502 0.67538643 0.01553170
v -0.44528541 -0.34155488 0.06198724
v -0.22794892 -0.11170801 -0.16150153
v -0.33390844 0.00093263 0.36275870
v -0.37495521 0.50739723 0.25744697
v -0.37471503 0.50777644 0.26162168
v -0.45711613 0.24527130 0.18715774
v -0.49043378 0.62985849 0.05422490
v -0.49591494 0.67472732 0.01685542
v -0.25383115 -0.19921358 -0.13288690
v -0.33609402 -0.24332356 -0.10779085
v -0.17901911 0.06092275 -0.26897353
v -0.37466422 0.26256999 0.01739741
v -0.35940957 0.17087495 0.17780384
v -0.41236016 0.69889802 -0.12070967
v -0.37068361 0.17232229 -0.07624475
v -0.36732504 -0.29690358 -0.03133830
v -0.36712408 -0.29691294 -0.03144596
v -0.48978069 0.54442942 -0.02859682
v -0.49265504 0.64058644 0.03116170
v -0.40704092 0.83412153 0.07746814
v -0.26545021 -0.46382141 -0.07826442
v -0.36713502 -0.30068359 -0.02742830
v -0.23970927 -0.25861979 -0.03242467
v -0.46097061 0.18365645 0.00517273
v -0.36936840 0.68317014 0.29975104
v -0.37126037 0.47969958 0.28897008
v -0.37495503 0.51558644 0.26547170
v -0.37495503 0.51167643 0.26166171
v -0.32794854 0.70901889 -0.29399869
v -0.43253094 0.71641409 0.10316919
v -0.36604568 -0.30087021 -0.02791961
v -0.37104502 -0.29472360 -0.03133830
v -0.36730948 -0.30076900 -0.02723761
v -0.43589324 -0.10655983 -0.12954037
v -0.26928732 0.58310682 0.30591941
v -0.36620930 0.05547010 -0.16756369
v -0.31822482 0.57875246 -0.26949382
v -0.30560502 0.34371641 0.35537168
v -0.30463502 0.34355640 0.35537168
v -0.30463502 0.34371641 0.35535169
v -0.35180345 0.16208598 0.27946371
v -0.30854502 0.34371641 0.35545170
v -0.30204549 0.80352759 -0.12376391
v -0.32416496 0.69136286 -0.25007790
v -0.40533376 0.60128796 -0.12479196
v -0.32131842 0.69091767 -0.19562896
v -0.39469522 0.75972688 0.18836240
v -0.35138693 -0.31288201 -0.02430147
v -0.25602162 -0.21510167 -0.12750141
v -0.40510821 -0.21666469 0.04216989
v -0.25386143 -0.19924510 -0.13288979
v -0.25386503 -0.19924358 -0.13289830
v -0.31616524 -0.35921183 0.26185539
v -0.35607094 0.33934146 0.35743648
v -0.32421696 0.69627571 -0.24562883
v -0.32178652 0.56069088 -0.36230046
v -0.27658293 0.02007447 -0.25533235
v -0.32442504 0.69136643 -0.25398830
v -0.32468504 0.69527644 -0.25398830
v -0.25855556 0.39239284 0.34591872
v -0.32335818 0.68167889 -0.24107099
v -0.23548210 0.81087220 -0.22374465
v -0.30649754 0.81226623 0.10219932
v -0.28845829 0.76968998 0.18242145
v -0.25776502 -0.20315357 -0.14059830
v -0.25776502 -0.20299359 -0.14070828
v -0.24389565 -0.60731483 -0.17329073
v -0.27694762 -0.22968014 -0.15910016
v -0.26621094 -0.38236889 0.03052262
v -0.26234820 -0.21071796 -0.14729196
v -0.25771555 -0.20229088 -0.14106749
v -0.25780511 -0.20320271 -0.14067389
v -0.30073503 0.34371641 0.35526168
v -0.27348623 0.04133337 -0.17255729
v -0.25736448 0.22492656 -0.09839840
v -0.29517433 0.08508424 -0.07914486
v -0.24882498 -0.67693383 -0.06683026
v -0.30158332 0.32585251 0.35825160
v -0.29826990 0.89663017 -0.14130037
v -0.32055560 0.93309087 0.05262451
v -0.18358503 -0.33987358 0.16787170
v -0.18354502 -0.33983359 0.16787170
v -0.18225504 -0.33596358 0.17178169
v -0.20224839 -0.35449836 0.17434584
v -0.23823011 -0.67963248 -0.16027136
v -0.24443956 0.12694997 -0.10906313
v -0.15623461 -0.31251934 0.16782856
v -0.25203738 0.14818652 0.28618270
v -0.16955833 0.15284809 0.16542831
v -0.17656581 0.24651055 0.08300380
v -0.23192735 0.61137730 -0.37716720
v -0.41194642 0.66541195 -0.28269011
v -0.20307504 0.73550642 0.28116170
v -0.19860786 0.73436320 0.28116244
v -0.19795810 0.73410821 0.28117955
v -0.21770063 0.75277442 0.27842799
v -0.22260503 0.91792643 0.08968170
v -0.22258504 0.91402644 0.08584170
v -0.22260503 0.91792643 0.08975170
v -0.22566669 0.93980515 0.04731910
v -0.22260024 0.92179322 0.09383165
v -0.22382276 -0.98304313 -0.08233905
v -0.21445154 -0.85403085 -0.15616535
v -0.01746558 -0.98153281 -0.15335169
v -0.23823503 -0.68753356 -0.15288828
v -0.20912029 -0.39614478 0.11684655
v -0.16804504 -0.33206359 0.15616170
v -0.20416203 -0.27057225 0.29698440
v -0.23915799 -0.36016786 -0.26717249
v -0.12118972 -0.30530933 0.12146664
v -0.18745503 -0.34378359 0.16782169
v -0.18749611 -0.34430665 0.16708836
v -0.18746372 -0.34377667 0.16784579
v -0.15746398 -0.32526422 0.15037423
v -0.12159466 0.00997669 0.10379894
v -0.23823503 -0.68362355 -0.15652829
v -0.23513487 -0.69978225 -0.17170723
v -0.27736008 -0.18812394 -0.20256580
v -0.18504447 -0.28691477 0.25386515
v -0.17573503 -0.33987358 0.15598169
v -0.17194504 -0.33596358 0.15616170
v -0.17182504 -0.33596358 0.15597171
v -0.23009415 0.02368056 0.40715441
v -0.17648946 0.05818644 0.09164553
v -0.21812421 0.07447118 0.00395326
v -0.17213488 0.25308207 0.20645158
v -0.18340589 0.09377923 -0.00790992
v -0.22958836 0.66203851 -0.29187649
v 0.29009056 0.72944605 0.23913810
v -0.25328308 0.79425162 0.27113351
v -0.22260503 0.92168647 0.09366170
v -0.22260503 0.91799647 0.08975170
v -0.22277777 0.91507959 0.08409826
v -0.22263505 0.92574644 0.09756170
v -0.22261181 0.92227244 0.09417410
v -0.21860954 0.92033386 0.14774673
v -0.18354502 -0.33987358 0.16782169
v -0.18100505 -0.33987358 0.16397171
v -0.17835502 -0.33206359 0.17178169
v -0.21899939 -0.74626189 -0.25776467
v -0.15620503 -0.31253359 0.16776170
v -0.17968503 -0.33596358 0.16787170
v -0.12885503 -0.47268358 -0.05416830
v -0.18232504 -0.34378359 0.16006172
v -0.16782729 -0.31657818 0.17909272
v -0.17577504 -0.33206359 0.16787170
v -0.17767738 -0.34170491 0.15615962
v -0.18392538 -0.33245307 0.17962471
v -0.17997885 -0.32851481 0.17959835
v -0.17571504 -0.32424358 0.17959170
v -0.17963503 -0.33596358 0.16781171
v -0.17963503 -0.32815358 0.17963170
v -0.17961504 -0.32815358 0.17959170
v -0.17062505 -0.33206359 0.16006172
v -0.17645571 -0.36325634 0.12139238
v -0.16401502 0.02347642 0.10928170
v -0.16791505 0.03356642 0.11319170
v -0.17573054 -0.33203670 0.16783436
v -0.17185380 0.23062024 0.17891374
v -0.17182504 0.23045643 0.17959170
v -0.17182504 0.23439772 0.18346293
v -0.16791505 0.02339642 0.10928170
v -0.16791505 0.02340642 0.10928170
v -0.16401502 0.02339642 0.10925170
v -0.16802716 0.02333093 0.10923667
v -0.27877665 0.00404455 0.10179948
v -0.17086700 0.16253754 0.12946711
v -0.18732773 0.09368291 -0.01192848
v 0.13696522 -0.92750061 -0.17733181
v -0.18362913 0.75000834 0.27725169
v -0.22312503 0.92183644 0.08584170
v -0.22202866 0.90777439 0.08792700
v -0.17086168 0.92300969 -0.06085171
v -0.17573503 0.92574644 -0.04498830
v -0.16401502 0.92574644 -0.04980830
v -0.23825502 -0.68362355 -0.15633830
v -0.17572996 0.23821993 0.07407004
v -0.17572503 0.23824643 0.07412170
v -0.11241993 -0.49207580 -0.04849870
v -0.12495503 -0.46487358 -0.05476830
v -0.23939504 -0.67581356 -0.15242828
v -0.14280714 -0.46004868 -0.05838871
v -0.18998493 -0.27495050 0.27127320
v 0.00349484 -0.45154142 -0.03476975
v -0.23823503 -0.67971355 -0.16015831
v -0.15237503 -0.30862358 0.16787170
v -0.16105138 0.02312552 0.10912871
v -0.17963728 -0.34377921 0.15600255
v -0.17573503 -0.32424358 0.17962170
v -0.20543225 0.08097126 -0.08902558
v -0.17182504 -0.32034358 0.17961170
v -0.17963503 -0.33592358 0.16787170
v -0.17182504 -0.33584359 0.15616170
v -0.17862569 -0.11834557 0.05112182
v -0.12104504 0.00393642 0.10147170
v -0.11713503 0.00400642 0.10147170
v -0.12956074 -0.00122401 0.09953170
v -0.08198503 -0.06643358 0.07411170
v -0.07797758 -0.06634750 0.07411971
v -0.07807504 -0.06634358 0.07412170
v -0.15866341 0.02351527 0.10925862
v -0.19135503 0.09344642 -0.01570830
v -0.18354502 0.09369643 -0.00789830
v -0.18745503 0.09357643 -0.01179830
v -0.12086938 0.22661881 -0.11547139
v -0.15380667 0.04863286 0.11878756
v -0.16010503 0.02354642 0.10928170
v -0.18354502 0.09371642 -0.00792830
v -0.18342403 0.10084167 -0.02638734
v -0.13276502 0.09751642 -0.07429830
v -0.13605008 0.09328908 -0.07595792
v -0.18090963 0.09224625 -0.00155392
v -0.17182504 0.22261643 0.17178169
v -0.17182504 0.22248773 0.17178351
v -0.17502235 0.22793464 0.08464604
v -0.13200562 0.09757126 -0.07427164
v -0.17509553 0.18590823 0.03807421
v -0.07018641 0.11912096 0.14200884
v -0.13666505 0.09758643 -0.07429830
v -0.13856503 0.09761642 -0.07429830
v -0.17183504 0.21871641 0.16787170
v -0.17640492 0.24305479 0.06152676
v -0.17586502 0.24214643 0.07412170
v -0.17573503 0.24214643 0.07791170
v -0.17572503 0.24214643 0.07803170
v -0.17182504 0.23433642 0.18350169
v -0.17182504 0.23042643 0.17959170
v -0.17148036 0.23298959 0.19216403
v -0.17182504 0.22652642 0.17574172
v -0.17182504 0.22647643 0.17569169
v -0.17169502 0.22652642 0.17959170
v -0.17182504 0.22652642 0.17569169
v -0.17182504 0.23042643 0.17957170
v -0.17182504 0.23824643 0.18723169
v -0.17221504 0.24605642 0.18350169
v -0.17195071 0.24631152 0.19150406
v -0.18343553 0.74995583 0.27725270
v -0.18351033 0.74997085 0.27725196
v -0.18354502 0.75777644 0.27568170
v -0.33110416 0.76430637 -0.30532160
v -0.17182504 0.92574644 -0.04658830
v -0.17093503 0.92574644 -0.04695830
v -0.16205192 0.10238125 -0.18099268
v -0.05175092 -0.01233918 0.09451120
v -0.12875503 -0.46878359 -0.05476830
v -0.12888739 -0.46883792 -0.05478400
v -0.22201577 -0.88119423 -0.08164161
v -0.08727647 -0.01572382 0.09367991
v -0.08588503 -0.01565358 0.09369170
v -0.02939836 -0.27072710 -0.01674923
v -0.12495503 -0.46096358 -0.05539830
v -0.14457504 -0.30081359 0.16787170
v -0.07028152 -0.00391659 -0.11333967
v -0.15229502 -0.30862358 0.16775170
v -0.14838503 -0.30471358 0.16775170
v -0.14844760 -0.30468300 0.16788188
v -0.14847504 -0.30471358 0.16787170
v -0.04252872 -0.72321612 -0.04936731
v -0.07460248 -0.04529719 0.08223063
v -0.09813416 -0.06634862 0.07425990
v -0.08335504 -0.06643358 0.07412170
v -0.12379675 -0.07312381 0.07188307
v -0.13666505 0.09761642 -0.07428830
v -0.09370503 -0.06643358 0.07420170
v -0.12562114 0.12017561 -0.06498529
v -0.12495503 0.00386642 0.10147170
v -0.17182161 0.23830625 0.18735647
v 0.10013630 0.13453801 -0.29553396
v -0.02971010 -0.72239482 -0.23263507
v -0.21995315 0.84980088 0.06649055
v -0.20953171 0.87977070 0.23047736
v -0.07025215 0.74996656 -0.31648698
v 0.01170450 0.93009311 -0.10019481
v -0.00807453 -0.51345146 -0.02799153
v 0.01170049 -0.51822013 -0.02398850
v -0.01556504 -0.93753356 -0.16414830
v -0.01556504 -0.93362355 -0.16414830
v -0.01557503 -0.93362355 -0.16410831
v -0.01169922 -0.91298264 -0.19530268
v 0.00161804 -0.37114304 -0.02197131
v -0.12495259 -0.46487203 -0.05476851
v -0.10341896 -0.43194771 -0.04923207
v -0.06830590 -0.05110951 0.07991247
v -0.08588503 -0.06648358 0.07412170
v -0.08979504 -0.06655358 0.07412170
v -0.00248503 -0.13284357 -0.16414830
v -0.07716504 -0.00393358 -0.11336830
v -0.12104504 0.00386642 0.10144170
v -0.08198503 -0.06641358 0.07412170
v -0.08917556 -0.00854223 0.09645886
v -0.06108371 -0.00325991 -0.11335939
v -0.09370503 -0.06662358 0.07412170
v -0.08588503 -0.06643358 0.07414170
v -0.07416504 -0.00393358 -0.11330830
v -0.11592421 0.00393856 0.10144152
v -0.05616368 0.02778499 -0.10098485
v -0.09144010 -0.01573186 0.09370099
v -0.18747136 -0.97462207 -0.37211275
v 0.00842045 -0.97457242 -0.34801590
v -0.09626058 0.11437494 -0.28246647
v -0.18538237 0.57543683 0.22333640
v -0.08196180 0.20300321 -0.03298932
v -0.07026656 0.74997288 -0.31648874
v -0.07274161 0.78253359 -0.32234827
v -0.18697660 0.69206381 0.28886721
v -0.08542648 0.75381237 -0.31648710
v -0.01557503 -0.94143355 -0.16410831
v -0.01557503 -0.93753356 -0.16410831
v -0.01556504 -0.94534355 -0.16414830
v -0.01556504 -0.94143355 -0.16414830
v -0.01816300 -0.88361424 -0.14999223
v -0.00385503 -0.37112358 -0.02291830
v -0.00386343 -0.37500739 -0.02352474
v 0.00662641 -0.86404347 -0.33302349
v -0.00002140 -0.37893456 -0.02351858
v 0.00004497 -0.37893358 -0.02351830
v -0.06879152 -0.08528365 0.06678373
v -0.01557503 -0.92581356 -0.16410831
v -0.01557503 -0.92190355 -0.16410831
v -0.01557503 -0.95315355 -0.16409829
v -0.08979504 -0.06643358 0.07417170
v -0.07992718 0.12399963 -0.06334170
v -0.08198503 -0.01569358 0.09366170
v -0.07912504 -0.01565358 0.09366170
v -0.08198503 -0.01565358 0.09367170
v -0.07016629 -0.00397549 -0.11337168
v -0.07026503 -0.00397358 -0.11336830
v -0.07416504 -0.00407358 -0.11336830
v -0.06904922 0.00049111 0.09983894
v 0.10400606 0.07607689 -0.21249060
v -0.13587286 -0.10091051 -0.15212467
v -0.07699077 0.09078759 -0.18006392
v -0.01557503 -0.94534355 -0.16410831
v -0.02913907 0.70527411 0.27817768
v -0.18902268 0.67302865 0.19622608
v -0.21802999 0.95837522 0.14032833
v -0.01557503 -0.91799355 -0.16410831
v -0.01556504 -0.92190355 -0.16414830
v -0.01211404 -0.90808666 -0.19022432
v -0.01557503 -0.94924355 -0.16410831
v -0.01943535 -0.94457376 -0.13288657
v 0.10265218 -0.80863315 -0.10159238
v -0.01873808 -0.88378072 -0.14179458
v -0.01556504 -0.94924355 -0.16414830
v -0.07134721 -0.54854882 -0.04708525
v -0.01556465 -0.95351082 -0.16415025
v 0.11079181 -0.54260319 -0.00355947
v -0.01556504 -0.92971355 -0.16414830
v -0.01556504 -0.92581356 -0.16414830
v 0.00394496 -0.50393355 -0.02745830
v 0.00785496 -0.49612358 -0.02805830
v 0.00318650 -0.50493878 -0.02742065
v -0.00385503 -0.13288358 -0.16414830
v -0.00776503 -0.13284357 -0.16407831
v -0.00385503 -0.13284357 -0.16412830
v -0.00923904 -0.13292502 -0.16409729
v -0.03573302 -0.37386453 -0.02899345
v -0.00381504 -0.37503359 -0.02351830
v 0.00785496 -0.50003356 -0.02743830
v 0.00092242 -0.14388274 -0.16844369
v 0.00792037 -0.50003874 -0.02742816
v -0.08678486 0.02251086 -0.26805741
v -0.24834859 0.26277769 0.27546248
v -0.05474105 0.76590091 -0.32048798
v -0.05487387 0.76537955 -0.32037157
v -0.04322559 0.78121865 -0.32410723
v -0.05434309 0.76502216 -0.32032627
v 0.00281468 0.78755653 -0.32701835
v 0.34801799 -0.27962273 -0.16847913
v -0.01557503 -0.92971355 -0.16410831
v 0.01657686 -0.38389182 -0.02165702
v -0.02005881 -0.96580851 -0.05755753
v 0.00394496 -0.37503359 -0.02216830
v 0.00411496 -0.50393355 -0.02742830
v 0.00423035 -0.38317075 -0.02351388
v 0.13770920 0.06476892 0.11796163
v 0.11543050 -0.43238416 -0.01258599
v -0.07590310 -0.03590815 -0.12592979
v 0.02054182 -0.09691465 0.05945266
v -0.16309275 0.13001357 0.25536805
v -0.02010342 0.69355553 -0.30791548
v 0.14249201 0.90842783 -0.26169857
v 0.15236495 0.85542643 -0.17976829
v 0.15236568 0.85816783 -0.17682593
v -0.01203455 -0.54412997 -0.23383321
v -0.00307847 -0.11288436 -0.15644175
v 0.29374391 0.08666968 -0.29968306
v 0.07035496 0.44527641 0.23821171
v 0.07425497 0.43355641 0.24040170
v 0.07425497 0.44527641 0.23820169
v 0.07265202 0.42753300 0.24151914
v 0.15237495 0.85152644 -0.18367828
v 0.15238497 0.85512644 -0.17976829
v 0.07816497 0.44528642 0.23819169
v 0.07869496 0.44527641 0.23819169
v 0.07816497 0.44527641 0.23819169
v 0.15015928 0.35182789 0.24897639
v 0.15225196 0.85336643 -0.18366307
v -0.22499482 0.94284701 0.06244250
v 0.10661171 0.90801847 0.23478161
v 0.15238541 0.85147834 -0.18362217
v 0.08229496 0.45512119 0.23633108
v 0.14822479 0.86962062 -0.22869514
v 0.15222430 0.88174903 -0.16105957
v 0.10690551 0.24069166 -0.11138417
v 0.06838937 0.44539374 0.23819628
v 0.32766712 0.06054258 0.36751232
v 0.11520544 -0.89181131 -0.08904357
v 0.11994848 0.14602487 0.14669017
v 0.30939600 0.18506694 0.23603958
v 0.07425497 0.44533640 0.23819169
v 0.14787164 0.68691349 -0.41026133
v 0.15232541 0.85124081 -0.18476786
v 0.21909440 0.81792474 -0.26877549
v 0.08582906 -0.66565043 -0.06329131
v 0.26463225 -0.61090493 -0.12695973
v 0.09401637 -0.64598918 -0.29221371
v 0.19706284 0.08239992 -0.20565349
v 0.22660495 -0.66409355 0.07800170
v 0.12521428 0.15515612 -0.20410237
v 0.17420489 0.89340639 0.13597350
v 0.28255090 0.61904490 0.27932101
v 0.17543407 0.70268798 0.26932761
v 0.19692607 0.85768837 0.23558727
v 0.25394496 0.87472641 -0.05867830
v 0.24125630 -0.64740622 0.06700102
v 0.21861587 -0.66411924 0.07809172
v 0.21880835 0.15106297 0.24198622
v 0.30287820 -0.01156442 -0.22372235
v 0.19925497 -0.42190358 0.00381170
v 0.19928496 -0.42190358 0.00381170
v 0.19925497 -0.42188358 0.00381170
v 0.15608351 0.59180802 -0.39071035
v 0.23345755 0.93338382 -0.17465693
v 0.12953331 -0.55161268 -0.19289711
v 0.18363497 -0.40628359 0.00377170
v 0.22336067 0.00651824 -0.12442704
v 0.20427470 -0.44706967 0.00037063
v 0.18077071 -0.40287143 0.00385056
v 0.19535495 -0.41799358 0.00380170
v 0.19925497 -0.42581359 0.00314170
v 0.19144496 -0.41409358 0.00379170
v 0.30580693 0.12245734 -0.22344418
v 0.18636161 0.10883400 -0.29192233
v 0.30231866 0.25553158 0.25679573
v 0.21585983 0.26353854 0.25648892
v 0.25394258 0.87105697 -0.06244606
v 0.24993446 0.58646762 -0.39740399
v 0.15477917 0.82872921 -0.18232904
v 0.16211207 0.66567212 0.18453801
v 0.18004006 0.80380881 0.15761007
v 0.16135408 0.98210061 0.10341775
v 0.25495163 0.73336780 -0.23420197
v 0.26760522 0.85743541 0.13450918
v 0.25005153 0.90513432 -0.08684231
v 0.29390067 -0.76646072 -0.10041687
v 0.10820743 -0.69284761 0.09651160
v 0.21879497 -0.66403353 0.07803170
v 0.19144496 -0.40628359 0.00513170
v 0.06625701 -0.46167958 -0.02406684
v 0.20707496 -0.42971358 0.00383170
v 0.21083497 -0.43362358 0.00381170
v 0.21097498 -0.43362358 0.00384170
v 0.20707496 -0.42980358 0.00381170
v 0.22698882 -0.69630373 0.09897567
v 0.20316496 -0.43753359 0.00180170
v 0.20313495 -0.42581359 0.00381170
v 0.20316496 -0.42190358 0.00449170
v 0.20698497 -0.42971358 0.00381170
v 0.20316496 -0.42581359 0.00382170
v 0.21229553 -0.43514702 0.00380197
v 0.19541258 -0.41797131 0.00381170
v 0.19925497 -0.41799358 0.00448170
v 0.19158497 -0.41409358 0.00381170
v 0.19144496 -0.41395357 0.00381170
v 0.20316496 -0.42584360 0.00381170
v 0.18764856 -0.41009557 0.00381199
v 0.18754497 -0.41018358 0.00378170
v 0.21568501 -0.43842101 0.00383652
v 0.20459202 0.26142278 -0.12115274
v 0.26728022 0.78955662 0.05429328
v 0.22333698 -0.66441464 0.07824827
v 0.22291496 -0.66409355 0.07803170
v 0.22269496 -0.66409355 0.07803170
v 0.30863497 -0.48809358 -0.04695830
v 0.28254399 -0.66123110 -0.08234138
v 0.28219214 -0.32492709 0.03773014
v 0.22269496 -0.66408354 0.07803170
v 0.29407352 -0.70639676 0.08938766
v 0.28822356 -0.62095660 -0.26866412
v 0.29396462 -0.60776204 -0.04365670
v 0.29821470 -0.54429209 0.04128562
v 0.29645497 -0.60159355 -0.05867830
v 0.29901487 -0.59161693 -0.07042536
v 0.42238376 -0.29773408 0.14877547
v 0.31794664 -0.35632953 -0.16000775
v 0.20319144 -0.00316565 -0.24963389
v 0.26841810 -0.11867984 -0.26178688
v 0.30199727 0.01122741 -0.30921116
v 0.48420867 0.26648149 -0.13971990
v 0.21710770 0.70963305 -0.32294831
v 0.41019496 -0.29690358 -0.14071831
v 0.40624154 -0.30088240 -0.14071323
v 0.25394496 0.87105644 -0.06258830
v 0.25393498 0.87496644 -0.05867830
v 0.24027969 0.84074485 -0.16013443
v 0.40256497 -0.21487357 -0.17195828
v 0.40629497 -0.21096358 -0.17201830
v 0.40629497 -0.21113357 -0.17195828
v 0.40238497 -0.21487357 -0.17201830
v 0.25394475 0.87705219 -0.05623890
v 0.24193813 0.88277352 0.04452003
v 0.30237550 -0.84848303 -0.05877163
v 0.30862498 -0.48049358 -0.03914830
v 0.29691577 -0.60679972 -0.06798674
v 0.29691496 -0.59772354 -0.05867830
v 0.29691496 -0.60154355 -0.06258830
v 0.29691496 -0.59768355 -0.05867830
v 0.29737496 -0.59768355 -0.06258830
v 0.39847496 -0.20776357 -0.17586830
v 0.40238422 -0.21510006 -0.17194299
v 0.30455554 -0.45664540 0.01410973
v 0.30127132 -0.50382638 0.00007037
v 0.38458085 -0.23334166 -0.17180583
v 0.31000498 -0.47659358 -0.04695830
v 0.29691815 -0.59301603 -0.05388043
v 0.29689497 -0.60549355 -0.06648830
v 0.29690498 -0.60159355 -0.06258830
v 0.29693496 -0.59378356 -0.05476830
v 0.25757599 -0.39067575 0.01929815
v 0.30861497 -0.48440358 -0.04304830
v 0.40238497 -0.30471358 -0.14072831
v 0.39847496 -0.30862358 -0.14072831
v 0.29548967 -0.22180541 -0.04155720
v 0.42582497 -0.28128359 -0.14068830
v 0.39867496 -0.21878359 -0.17195828
v 0.40230277 -0.22634643 -0.16804796
v 0.39864558 -0.21881340 -0.17195861
v 0.13516851 0.15136780 -0.05858678
v 0.34250584 0.71673894 -0.32877225
v 0.39544305 0.14998393 -0.14662381
v 0.28540152 0.27690959 -0.11787187
v 0.25516322 0.61818916 -0.30757704
v 0.32615966 -0.88893825 -0.14946462
v 0.25683805 0.86757952 -0.02747300
v 0.33866370 0.82848686 -0.25515771
v 0.35566029 0.77048880 -0.07179042
v 0.35160428 0.78513503 -0.11341209
v 0.35212496 0.78121644 -0.10945830
v 0.35161498 0.78121644 -0.11726830
v 0.25131604 0.97222137 0.01662884
v 0.29691496 -0.59768355 -0.05863830
v 0.29691496 -0.60536355 -0.06648830
v 0.38675496 -0.23049358 -0.17203830
v 0.40632498 -0.30081359 -0.14070828
v 0.41019496 -0.29692358 -0.14070828
v 0.29691496 -0.60159355 -0.06262830
v 0.42972496 -0.27737358 -0.14068830
v 0.30859911 -0.49040318 -0.04904855
v 0.34379497 -0.28518358 -0.16801831
v 0.34758496 -0.28128359 -0.16804831
v 0.30863497 -0.48440358 -0.04317830
v 0.30863497 -0.48427358 -0.04304830
v 0.39087948 -0.22659764 -0.17195877
v 0.30668899 -0.57518452 -0.12224802
v 0.31197232 -0.46393463 -0.05068801
v 0.38675496 -0.32045358 -0.14070828
v 0.38675496 -0.32034358 -0.14074831
v 0.38686496 -0.32034358 -0.14070828
v 0.38297498 -0.32424358 -0.14070828
v 0.38675496 -0.32424358 -0.13938829
v 0.38276577 -0.32443050 -0.14072800
v 0.30863550 -0.48046422 -0.03915395
v 0.39854497 -0.30862358 -0.14070828
v 0.40238497 -0.30476359 -0.14070828
v 0.32542244 -0.33028147 -0.15868965
v 0.39068010 -0.31659463 -0.14068460
v 0.39457497 -0.31260359 -0.14070828
v 0.39847496 -0.31253359 -0.13936831
v 0.33988497 -0.28909358 -0.16802831
v 0.32025033 0.04406250 0.26802459
v 0.34379497 -0.28509358 -0.16804831
v 0.34379497 -0.28128359 -0.16937831
v 0.23424628 -0.10085724 -0.15225466
v 0.39066496 -0.31643358 -0.14073829
v 0.39075497 -0.31643358 -0.14070828
v 0.30295038 0.22861974 -0.12297665
v 0.38798749 -0.24179146 -0.16768581
v 0.35109496 0.78511643 -0.12117830
v 0.41010335 -0.21840471 -0.16808844
v 0.32555324 -0.46287090 -0.17301418
v 0.23255891 -0.09076602 0.05286302
v 0.39066496 -0.22659357 -0.17203830
v 0.41410497 -0.20706359 -0.17064831
v 0.41410497 -0.20315357 -0.17200831
v 0.40238497 -0.30862358 -0.13936831
v 0.34769496 -0.28128359 -0.16801831
v 0.34369498 -0.28518358 -0.16804831
v 0.33988497 -0.28901359 -0.16804831
v 0.34817335 -0.28150436 -0.16775817
v 0.33888945 -0.28985858 -0.16809069
v 0.39860767 -0.23016150 -0.16801238
v 0.33970511 -0.27898493 -0.17166206
v 0.40217900 -0.15087678 -0.19444054
v 0.39847496 -0.21878359 -0.17202830
v 0.39457497 -0.31253359 -0.14073829
v 0.42590496 -0.19143358 -0.17195828
v 0.42581433 -0.19149309 -0.17197222
v 0.42972496 -0.18753359 -0.17197831
v 0.41192567 -0.30955991 -0.13570502
v 0.39457497 -0.22268358 -0.17202830
v 0.35130727 -0.00895126 0.06459706
v 0.34990615 0.08816551 -0.09673842
v 0.39465496 -0.31253359 -0.14070828
v 0.41002437 0.21575816 -0.03002015
v 0.37817675 0.73205566 0.24944812
v 0.27981517 0.60390353 0.18999061
v 0.35622263 0.64079678 -0.21273334
v 0.45414618 0.66931623 -0.12197325
v 0.34393361 0.84678710 -0.16215879
v 0.35314208 0.88609749 0.02866901
v 0.35160148 0.78892714 -0.10938385
v 0.35074541 0.76875335 -0.14400867
v 0.41360497 -0.30471358 -0.13679831
v 0.41021496 -0.29690358 -0.14070828
v 0.41635457 -0.34515014 -0.12123505
v 0.41019496 -0.21096358 -0.17064831
v 0.41019496 -0.20720357 -0.17195828
v 0.38699496 -0.23049358 -0.17195828
v 0.37860847 -0.20170403 -0.18496430
v 0.28402460 -0.19751552 -0.10104091
v 0.38682902 -0.23067714 -0.17195502
v 0.40645498 -0.21096358 -0.17195828
v 0.41019496 -0.20706359 -0.17200831
v 0.43363497 -0.18362357 -0.17197831
v 0.41410497 -0.29299358 -0.14070828
v 0.42902353 0.06632471 0.36048099
v 0.39847496 -0.30868357 -0.14070828
v 0.39345905 0.23006833 -0.12905900
v 0.35160497 0.78121644 -0.11750830
v 0.35160497 0.78511643 -0.11337830
v 0.35160497 0.78143644 -0.11726830
v 0.35160497 0.78883642 -0.10945830
v 0.35160497 0.78511643 -0.11336830
v 0.35163498 0.77730644 -0.12117830
v 0.36115351 0.79363561 0.04731518
v 0.35483554 0.71557242 -0.13805571
v 0.44520700 0.76175368 -0.15038486
v 0.42172796 -0.28534850 -0.14065535
v 0.41410497 -0.29300359 -0.14070828
v 0.41410497 -0.30421358 -0.13679831
v 0.40626851 -0.22236998 -0.16804828
v 0.40539205 -0.22360118 -0.16793287
v 0.41005436 -0.21876490 -0.16798180
v 0.41410497 -0.21487357 -0.16791831
v 0.41800496 -0.29299358 -0.13933830
v 0.41034496 -0.20706359 -0.17195828
v 0.42429712 0.04727869 0.26348713
v 0.42191496 -0.28515360 -0.14070828
v 0.40071380 0.27081209 0.15408990
v 0.46947303 0.17966226 0.13464232
v 0.48346242 0.30858764 -0.02408363
v 0.45568740 -0.33980691 -0.10855942
v 0.42972496 -0.19143358 -0.17061831
v 0.46344104 0.70530331 0.06418476
v 0.43749624 -0.26954609 -0.14069848
v 0.43363497 -0.27339360 -0.14070828
v 0.42338222 -0.29473442 -0.13685559
v 0.43363497 -0.27346358 -0.14067830
v 0.42577496 -0.28128359 -0.14070828
v 0.42191496 -0.27737358 -0.14341830
v 0.42582497 -0.28123358 -0.14070828
v 0.42966497 -0.27737358 -0.14070828
v 0.43355721 -0.27345952 -0.14070909
v 0.42238498 -0.27346358 -0.14461830
v 0.43754497 -0.26956359 -0.14067830
v 0.41410497 -0.20328358 -0.17195828
v 0.43754497 -0.17971358 -0.17196831
v 0.43368497 -0.18362357 -0.17195828
v 0.45284179 -0.20108208 -0.15919103
v 0.42193335 -0.19634084 -0.17162327
v 0.41649702 -0.21227308 -0.16798753
v 0.26944748 -0.19592628 0.06607959
v 0.42972496 -0.27731359 -0.14070828
v 0.42972496 -0.18760358 -0.17195828
v 0.42979497 -0.18753359 -0.17195828
v 0.43363497 -0.18367358 -0.17195828
v 0.44144496 -0.26565358 -0.14066830
v 0.41115591 0.20362699 0.24188456
v 0.45369175 -0.05864077 -0.20767362
v 0.47277015 -0.25018758 -0.00147439
v 0.49378458 0.28722522 0.14626864
v 0.45390165 0.79924399 0.04121541
v 0.41606665 -0.27725518 -0.14549656
v 0.45372611 -0.22076119 -0.15190862
v 0.42956436 -0.26612291 -0.14466514
v 0.43754497 -0.18753359 -0.16924828
v 0.44144496 -0.17581359 -0.17196831
v 0.45758045 -0.19356875 -0.08902176
v 0.43755659 -0.17974202 -0.17195828
v 0.44781056 -0.17149928 -0.17143971
v 0.50378495 0.19867508 0.23601417
v 0.44984606 0.65112627 -0.21379943
v 0.37010419 0.70159572 0.06641617
v 0.46815142 0.72020644 0.15570515
v 0.49043706 0.22135675 -0.03949810
v 0.37174410 0.73360568 0.15629886
f 1 3 2
f 6 7 8
f 9 10 11
f 49 38 22
f 15 16 17
f 16 38 17
f 16 22 38
f 20 57 56
f 21 15 17
f 15 22 16
f 17 38 23
f 18 17 23
f 21 17 18
f 3 25 26
f 27 28 29
f 12 29 45
f 27 7 6
f 39 30 31
f 55 4 46
f 35 57 36
f 12 76 4
f 29 12 49
f 76 12 45
f 39 7 27
f 29 28 30
f 8 31 30
f 28 8 30
f 28 6 8
f 6 28 27
f 29 49 27
f 39 29 30
f 29 39 61
f 39 31 7
f 29 61 45
f 31 8 7
f 61 39 14
f 4 49 12
f 37 55 43
f 5 72 14
f 44 37 43
f 5 14 37
f 55 37 14
f 49 22 39
f 49 39 27
f 46 4 76
f 61 14 13
f 19 23 38
f 23 19 18
f 19 38 39
f 19 21 18
f 22 50 39
f 14 39 38
f 21 50 15
f 50 22 15
f 19 39 50
f 21 19 50
f 44 5 37
f 72 5 44
f 64 47 53
f 55 46 43
f 20 58 59
f 58 26 59
f 92 11 75
f 1 14 72
f 13 14 1
f 20 2 58
f 38 49 14
f 49 4 14
f 45 24 77
f 123 45 77
f 61 78 94
f 32 84 81
f 84 32 137
f 79 64 62
f 81 65 32
f 69 70 71
f 123 67 46
f 25 35 36
f 3 35 25
f 67 123 68
f 59 26 25
f 26 58 2
f 59 36 20
f 25 36 59
f 123 77 92
f 76 45 123
f 51 24 45
f 61 94 51
f 78 13 95
f 78 61 13
f 61 51 45
f 64 53 62
f 84 139 81
f 53 48 62
f 41 79 48
f 47 48 53
f 32 41 63
f 48 47 63
f 63 47 64
f 32 63 64
f 79 100 32
f 63 41 48
f 79 32 64
f 48 79 62
f 32 65 41
f 149 65 33
f 197 107 81
f 46 67 106
f 86 9 11
f 44 46 119
f 44 119 72
f 85 154 109
f 85 56 72
f 56 85 91
f 76 123 46
f 89 92 75
f 10 89 75
f 90 75 9
f 75 10 9
f 10 75 90
f 36 57 20
f 94 78 95
f 74 51 94
f 65 149 41
f 83 96 97
f 79 99 100
f 79 41 99
f 81 107 65
f 73 104 91
f 85 73 91
f 67 105 117
f 106 67 117
f 34 154 85
f 105 67 68
f 73 85 109
f 71 104 73
f 60 123 92
f 90 60 89
f 2 13 1
f 123 60 159
f 159 60 271
f 60 92 89
f 86 90 9
f 90 86 60
f 90 89 10
f 11 10 75
f 161 56 127
f 24 51 74
f 111 110 74
f 112 113 114
f 96 103 97
f 103 102 97
f 99 54 100
f 197 81 225
f 41 149 99
f 80 82 40
f 101 149 102
f 82 96 83
f 101 99 149
f 40 102 33
f 102 149 33
f 101 103 99
f 54 99 80
f 83 40 82
f 80 40 54
f 99 82 80
f 103 96 82
f 103 82 99
f 102 40 97
f 40 83 97
f 103 101 102
f 54 40 33
f 46 106 119
f 71 70 104
f 69 73 109
f 70 69 109
f 44 43 46
f 91 109 154
f 119 106 394
f 70 109 104
f 104 109 91
f 91 154 394
f 88 68 87
f 35 3 1
f 91 394 66
f 56 57 72
f 66 56 91
f 2 3 26
f 394 332 66
f 57 1 72
f 13 2 20
f 35 1 57
f 14 4 55
f 86 11 92
f 56 13 20
f 122 87 159
f 87 68 159
f 159 68 123
f 86 77 60
f 77 86 92
f 77 271 60
f 13 161 95
f 56 66 127
f 24 271 77
f 128 129 130
f 129 203 130
f 134 289 108
f 108 136 148
f 289 52 108
f 140 98 52
f 54 140 52
f 84 137 115
f 52 213 54
f 32 100 137
f 143 144 115
f 84 115 150
f 84 150 139
f 144 143 142
f 143 142 144
f 142 143 144
f 88 274 105
f 34 119 154
f 81 54 225
f 225 54 33
f 65 107 33
f 178 151 152
f 151 153 152
f 107 105 33
f 107 117 105
f 72 119 34
f 107 156 221
f 72 34 85
f 119 394 154
f 68 88 105
f 158 240 199
f 66 336 127
f 124 127 336
f 271 24 93
f 93 24 74
f 111 94 301
f 111 74 94
f 302 301 94
f 162 130 132
f 163 130 162
f 132 167 165
f 111 301 131
f 165 430 166
f 430 165 167
f 132 130 203
f 367 430 167
f 166 162 132
f 142 144 168
f 144 169 168
f 169 144 142
f 133 278 134
f 148 171 108
f 171 134 108
f 52 98 108
f 107 155 156
f 113 173 114
f 186 153 151
f 144 142 112
f 142 168 112
f 81 139 54
f 54 139 214
f 54 225 140
f 100 141 137
f 150 115 144
f 54 141 100
f 189 176 181
f 168 182 173
f 182 168 169
f 169 142 144
f 183 180 184
f 139 150 214
f 141 54 214
f 185 138 145
f 175 219 178
f 42 274 88
f 107 197 155
f 187 237 188
f 190 191 192
f 193 187 194
f 195 193 194
f 195 187 193
f 107 221 117
f 42 88 87
f 106 117 236
f 394 106 157
f 106 121 157
f 195 194 218
f 125 126 269
f 122 159 443
f 56 161 13
f 125 124 126
f 127 124 125
f 201 125 269
f 124 336 126
f 201 127 125
f 166 202 163
f 94 95 302
f 202 128 163
f 110 93 74
f 111 131 204
f 164 129 128
f 128 130 163
f 203 129 164
f 202 430 131
f 167 132 203
f 128 202 164
f 203 164 301
f 162 166 163
f 131 301 164
f 131 164 202
f 166 430 202
f 132 165 166
f 136 108 207
f 140 171 98
f 208 246 209
f 211 213 277
f 186 137 141
f 115 137 219
f 133 134 329
f 216 147 207
f 136 207 147
f 176 118 217
f 212 116 216
f 212 98 116
f 136 147 148
f 219 137 186
f 108 98 212
f 212 216 207
f 212 207 108
f 144 175 169
f 144 142 175
f 138 153 186
f 186 145 138
f 220 184 181
f 142 143 175
f 219 186 151
f 114 170 179
f 185 189 152
f 179 170 180
f 222 176 150
f 182 178 189
f 113 168 173
f 313 54 213
f 182 189 177
f 223 182 177
f 143 219 175
f 144 112 179
f 153 224 152
f 182 169 178
f 143 115 219
f 138 224 153
f 183 184 220
f 150 183 220
f 152 189 178
f 179 183 150
f 170 177 189
f 170 223 177
f 219 151 178
f 150 144 179
f 179 180 183
f 114 223 170
f 173 223 114
f 189 118 176
f 112 168 113
f 169 175 178
f 182 223 173
f 185 152 224
f 185 224 138
f 172 118 145
f 220 181 222
f 181 176 222
f 189 181 184
f 112 114 179
f 180 170 184
f 146 226 227
f 220 222 150
f 118 189 145
f 214 150 176
f 189 184 170
f 145 189 185
f 225 33 140
f 229 230 231
f 230 229 348
f 228 196 197
f 362 33 105
f 197 188 237
f 156 158 234
f 274 362 105
f 156 235 233
f 193 196 194
f 196 193 194
f 187 195 238
f 195 232 238
f 239 235 234
f 235 239 199
f 187 188 194
f 238 237 187
f 218 232 195
f 156 155 243
f 194 196 218
f 237 238 232
f 156 243 158
f 196 194 188
f 237 232 228
f 197 196 188
f 241 247 242
f 199 240 233
f 233 240 156
f 234 235 156
f 158 243 240
f 218 196 228
f 156 240 221
f 221 240 296
f 199 239 158
f 234 158 239
f 240 243 353
f 235 199 233
f 331 42 87
f 250 242 251
f 252 120 245
f 244 252 245
f 208 254 253
f 248 246 208
f 255 208 209
f 255 254 208
f 255 209 256
f 254 255 256
f 121 253 254
f 121 254 256
f 192 191 257
f 120 252 121
f 252 244 121
f 191 258 257
f 258 259 257
f 260 261 262
f 260 263 261
f 191 264 258
f 264 262 258
f 262 259 258
f 121 265 266
f 121 190 265
f 264 260 262
f 264 263 260
f 265 257 298
f 257 265 192
f 298 257 259
f 267 298 157
f 261 263 244
f 87 122 443
f 336 66 332
f 332 366 336
f 269 126 268
f 126 336 268
f 127 270 161
f 268 336 365
f 268 365 270
f 201 268 270
f 201 269 268
f 161 270 365
f 127 201 270
f 206 205 131
f 205 206 273
f 161 302 95
f 167 301 302
f 167 302 452
f 167 203 301
f 204 205 272
f 110 111 204
f 204 131 205
f 204 272 273
f 204 206 304
f 204 273 206
f 206 131 304
f 110 204 304
f 345 171 300
f 134 171 329
f 52 210 213
f 133 403 278
f 135 133 329
f 148 98 171
f 345 329 171
f 276 277 174
f 116 148 147
f 116 98 148
f 279 280 321
f 116 147 216
f 171 140 300
f 213 210 174
f 277 213 174
f 141 172 145
f 283 141 214
f 362 140 33
f 118 172 217
f 172 285 217
f 286 287 288
f 186 141 145
f 217 285 288
f 217 288 287
f 287 176 217
f 141 285 172
f 214 176 287
f 141 283 286
f 283 287 286
f 141 286 285
f 214 287 283
f 285 286 288
f 348 229 292
f 197 293 290
f 290 228 197
f 232 218 228
f 243 155 353
f 155 197 237
f 197 225 293
f 241 294 247
f 294 241 250
f 294 250 251
f 117 221 363
f 296 294 251
f 246 248 198
f 155 237 249
f 120 333 411
f 251 221 296
f 251 242 221
f 247 296 327
f 198 248 333
f 250 241 242
f 327 221 242
f 296 247 294
f 247 327 242
f 42 331 274
f 120 198 333
f 261 244 245
f 411 394 120
f 263 190 121
f 106 236 253
f 236 333 248
f 236 248 253
f 244 263 121
f 161 365 302
f 167 452 367
f 430 304 131
f 313 282 312
f 133 135 403
f 307 310 308
f 309 307 308
f 210 215 312
f 174 210 312
f 211 276 312
f 211 277 276
f 282 211 312
f 282 213 211
f 146 227 326
f 315 316 348
f 281 225 54
f 221 327 318
f 226 319 227
f 121 246 198
f 362 221 409
f 292 320 314
f 229 320 292
f 146 326 360
f 323 291 293
f 237 228 146
f 291 323 295
f 315 292 324
f 325 327 284
f 297 319 226
f 319 326 227
f 228 297 146
f 297 226 146
f 360 326 228
f 237 146 360
f 360 228 321
f 297 228 319
f 120 261 245
f 328 321 228
f 246 256 209
f 326 319 228
f 117 363 236
f 296 240 353
f 327 296 353
f 246 121 256
f 121 198 120
f 411 333 249
f 262 261 120
f 248 208 253
f 120 394 157
f 157 259 120
f 299 331 87
f 253 121 106
f 157 266 267
f 157 298 259
f 264 191 190
f 298 266 265
f 335 271 93
f 338 339 372
f 338 340 341
f 340 310 341
f 388 344 343
f 134 278 342
f 330 310 377
f 278 374 342
f 313 213 282
f 215 210 376
f 318 327 325
f 221 362 363
f 372 349 350
f 293 291 290
f 372 135 351
f 328 290 279
f 352 315 324
f 315 352 316
f 323 293 348
f 295 316 352
f 316 295 323
f 292 315 348
f 354 355 356
f 355 354 290
f 357 322 409
f 354 279 290
f 314 231 230
f 358 284 357
f 321 275 360
f 359 358 357
f 291 295 314
f 295 352 314
f 320 231 314
f 231 320 229
f 321 280 356
f 290 291 314
f 348 293 225
f 228 290 328
f 363 362 274
f 359 357 409
f 358 325 284
f 325 358 359
f 275 355 290
f 409 221 318
f 314 348 410
f 314 324 292
f 359 318 325
f 359 409 318
f 321 355 275
f 314 230 348
f 280 354 356
f 280 279 354
f 328 279 321
f 348 316 323
f 360 249 237
f 324 314 352
f 321 356 355
f 353 155 249
f 192 265 190
f 157 121 266
f 338 364 340
f 263 264 190
f 120 259 262
f 298 267 266
f 159 412 443
f 159 271 412
f 337 271 335
f 334 337 335
f 303 412 337
f 337 334 303
f 412 271 337
f 368 369 370
f 369 310 370
f 339 338 341
f 351 371 372
f 351 135 377
f 375 364 371
f 276 174 312
f 368 370 374
f 349 379 380
f 379 310 380
f 305 381 382
f 376 210 52
f 374 372 350
f 384 385 386
f 384 387 385
f 305 383 381
f 140 416 300
f 313 215 54
f 344 389 343
f 389 346 343
f 381 390 382
f 376 52 289
f 376 289 300
f 416 140 622
f 300 416 376
f 313 312 215
f 383 305 306
f 378 376 416
f 344 347 389
f 388 281 54
f 615 322 327
f 329 345 330
f 322 357 284
f 331 363 274
f 368 350 369
f 327 353 615
f 348 225 410
f 327 322 284
f 363 331 393
f 314 410 290
f 615 409 322
f 360 275 249
f 410 275 290
f 303 334 396
f 399 397 335
f 398 303 396
f 412 303 398
f 365 336 366
f 334 335 395
f 395 397 398
f 335 397 395
f 398 396 395
f 399 398 397
f 334 395 396
f 399 412 398
f 370 289 342
f 368 374 350
f 370 330 289
f 135 330 377
f 338 372 364
f 309 401 372
f 375 377 310
f 375 310 340
f 364 375 340
f 339 341 307
f 341 310 307
f 364 372 371
f 308 310 379
f 401 308 379
f 135 372 403
f 371 351 375
f 351 377 375
f 308 401 309
f 350 380 369
f 380 310 369
f 350 349 380
f 349 401 379
f 339 307 309
f 372 401 349
f 403 372 374
f 339 309 372
f 135 329 330
f 310 330 370
f 392 306 491
f 347 344 346
f 215 376 305
f 374 370 342
f 278 403 374
f 376 378 306
f 404 347 406
f 342 289 134
f 381 383 405
f 345 300 289
f 346 344 388
f 305 376 306
f 388 406 346
f 215 382 491
f 215 388 54
f 347 346 389
f 390 405 392
f 390 381 405
f 387 384 391
f 387 362 417
f 317 384 386
f 317 391 384
f 386 385 417
f 391 362 387
f 140 362 391
f 417 385 387
f 317 386 417
f 391 317 417
f 363 436 236
f 481 366 332
f 365 431 302
f 413 93 110
f 452 302 431
f 483 430 367
f 346 404 311
f 281 388 343
f 289 330 345
f 390 392 382
f 382 392 491
f 405 383 306
f 215 305 382
f 343 346 311
f 215 402 406
f 406 388 215
f 491 306 378
f 405 306 392
f 311 281 343
f 402 311 404
f 346 406 347
f 281 623 225
f 615 140 391
f 615 362 409
f 331 299 393
f 393 361 363
f 333 353 249
f 87 443 299
f 332 394 428
f 399 335 93
f 367 452 483
f 404 346 347
f 402 404 406
f 402 281 311
f 391 417 615
f 615 417 362
f 225 623 410
f 411 249 459
f 394 411 428
f 299 443 464
f 419 420 421
f 419 422 420
f 423 414 424
f 236 436 333
f 433 425 426
f 425 427 426
f 432 423 424
f 412 532 443
f 415 429 434
f 455 431 365
f 399 532 412
f 399 93 445
f 93 413 445
f 304 413 110
f 416 622 466
f 378 416 466
f 491 402 215
f 299 361 393
f 275 410 623
f 422 437 332
f 363 361 436
f 442 425 433
f 427 425 442
f 442 437 419
f 365 366 481
f 423 444 429
f 414 432 429
f 432 423 429
f 432 414 423
f 447 448 446
f 448 373 446
f 457 450 496
f 361 299 451
f 249 275 623
f 433 426 428
f 353 333 615
f 570 615 333
f 440 249 407
f 407 570 440
f 570 436 440
f 428 411 459
f 570 333 436
f 437 433 332
f 249 440 459
f 428 420 422
f 428 426 420
f 426 427 420
f 421 427 442
f 420 427 421
f 481 332 433
f 437 422 419
f 442 433 437
f 442 419 421
f 428 481 433
f 414 429 415
f 365 481 454
f 448 200 373
f 518 402 408
f 488 446 373
f 378 446 488
f 488 457 378
f 622 140 615
f 402 518 281
f 518 623 281
f 449 361 451
f 475 451 299
f 623 407 249
f 475 299 464
f 461 462 463
f 464 443 532
f 434 429 444
f 480 424 415
f 480 445 434
f 445 413 434
f 424 414 415
f 444 423 432
f 434 444 480
f 537 480 435
f 480 444 432
f 480 432 424
f 415 434 435
f 480 415 435
f 413 435 434
f 413 304 465
f 435 413 465
f 439 373 200
f 520 496 488
f 446 466 447
f 508 470 467
f 471 461 463
f 471 408 461
f 408 472 461
f 408 402 491
f 408 467 470
f 361 449 511
f 361 511 436
f 455 365 454
f 399 445 532
f 304 430 483
f 482 452 455
f 455 452 431
f 483 543 582
f 543 483 452
f 544 487 373
f 373 439 544
f 488 458 457
f 492 493 494
f 493 492 495
f 498 499 462
f 492 500 495
f 499 501 561
f 461 498 462
f 461 472 498
f 494 493 502
f 503 471 463
f 494 510 561
f 503 463 504
f 463 462 504
f 378 466 446
f 505 471 503
f 473 471 505
f 408 471 473
f 470 518 408
f 502 510 494
f 473 505 506
f 498 501 499
f 501 498 507
f 492 494 561
f 508 509 506
f 501 500 492
f 500 501 507
f 501 492 561
f 490 506 505
f 561 518 470
f 509 467 408
f 509 473 506
f 473 509 408
f 506 490 508
f 505 561 490
f 509 508 467
f 498 472 507
f 468 615 570
f 511 477 459
f 511 459 436
f 422 332 428
f 440 436 459
f 428 459 477
f 476 428 477
f 454 481 453
f 455 454 160
f 452 482 485
f 485 543 452
f 513 458 496
f 515 458 513
f 590 597 516
f 500 507 472
f 514 519 515
f 458 489 457
f 450 514 513
f 458 488 496
f 489 458 515
f 519 450 457
f 519 514 450
f 514 515 513
f 519 489 515
f 457 489 519
f 450 513 496
f 373 520 488
f 472 497 500
f 503 504 505
f 490 470 508
f 470 490 561
f 561 505 504
f 469 408 491
f 472 469 497
f 504 462 499
f 469 472 408
f 449 528 460
f 475 418 449
f 476 481 428
f 532 445 484
f 533 534 400
f 480 537 445
f 478 535 456
f 535 536 456
f 536 535 478
f 538 539 540
f 538 541 539
f 542 486 576
f 465 486 537
f 536 486 542
f 576 456 542
f 200 448 575
f 554 545 604
f 457 496 520
f 547 548 549
f 524 548 547
f 548 550 549
f 661 551 552
f 551 541 552
f 516 597 556
f 550 525 549
f 558 559 522
f 557 525 523
f 546 517 525
f 518 561 553
f 554 562 545
f 563 564 400
f 524 559 548
f 623 714 662
f 449 530 528
f 569 567 568
f 449 451 475
f 511 449 460
f 468 570 644
f 643 407 623
f 479 464 574
f 439 200 575
f 464 532 574
f 537 486 478
f 160 485 455
f 485 482 455
f 445 577 484
f 435 465 537
f 456 536 542
f 478 576 537
f 580 578 581
f 576 478 456
f 483 465 304
f 465 483 582
f 512 543 485
f 536 478 486
f 486 582 576
f 576 582 543
f 652 543 512
f 582 486 465
f 524 583 522
f 584 546 525
f 546 558 522
f 522 559 524
f 597 553 556
f 586 533 587
f 534 533 586
f 575 448 521
f 588 559 584
f 525 588 584
f 487 520 373
f 596 523 525
f 487 521 517
f 520 487 517
f 520 517 523
f 596 597 590
f 517 521 447
f 520 523 457
f 550 548 588
f 548 559 588
f 522 557 523
f 517 522 523
f 631 591 592
f 448 447 521
f 560 583 549
f 557 583 560
f 517 596 525
f 523 378 457
f 517 546 522
f 604 553 554
f 593 556 594
f 583 547 549
f 524 547 583
f 522 583 557
f 584 558 546
f 596 517 447
f 596 554 523
f 584 559 558
f 525 550 588
f 593 516 556
f 560 525 557
f 590 562 554
f 525 560 549
f 598 599 600
f 601 598 602
f 523 553 378
f 562 593 594
f 553 561 510
f 491 378 553
f 469 553 510
f 604 556 553
f 562 594 545
f 594 604 545
f 556 604 594
f 596 590 554
f 593 562 516
f 590 516 562
f 523 554 553
f 499 561 504
f 605 563 606
f 563 605 564
f 500 497 495
f 553 527 518
f 608 609 610
f 518 714 623
f 565 662 714
f 613 614 592
f 608 616 617
f 530 460 528
f 460 530 474
f 644 529 468
f 643 570 407
f 530 449 474
f 460 474 618
f 573 511 618
f 618 511 460
f 418 474 449
f 479 574 474
f 475 479 418
f 477 511 573
f 464 479 475
f 418 479 474
f 477 573 476
f 454 453 647
f 454 647 160
f 648 453 481
f 485 160 738
f 543 652 576
f 620 651 579
f 608 600 616
f 527 553 597
f 502 469 510
f 575 544 439
f 575 487 544
f 487 575 521
f 466 622 596
f 447 466 596
f 622 597 596
f 597 622 527
f 493 497 502
f 491 553 469
f 469 502 497
f 615 527 622
f 493 495 497
f 527 529 607
f 625 626 711
f 518 526 714
f 591 613 628
f 613 592 628
f 592 591 628
f 614 629 634
f 629 614 613
f 614 634 400
f 630 629 591
f 592 628 631
f 634 629 630
f 529 634 607
f 527 615 529
f 591 629 613
f 607 634 632
f 632 634 630
f 607 632 611
f 637 616 631
f 638 639 640
f 569 642 636
f 603 601 602
f 615 468 529
f 627 563 641
f 618 474 572
f 637 645 609
f 611 591 631
f 611 630 591
f 612 476 441
f 441 573 618
f 438 453 476
f 632 630 611
f 160 647 738
f 657 607 603
f 577 445 651
f 603 602 657
f 645 637 564
f 637 631 564
f 603 631 599
f 587 533 656
f 641 534 655
f 527 657 518
f 555 661 585
f 607 611 631
f 658 659 625
f 636 642 661
f 634 529 661
f 631 628 400
f 631 400 628
f 631 628 400
f 628 592 400
f 592 614 400
f 660 595 663
f 634 619 400
f 631 400 564
f 555 663 619
f 663 585 660
f 555 634 661
f 664 539 665
f 730 662 565
f 666 640 635
f 599 631 616
f 533 725 667
f 656 533 667
f 600 608 657
f 643 730 644
f 438 612 689
f 643 623 662
f 644 570 643
f 602 600 657
f 645 564 669
f 571 532 484
f 671 654 620
f 533 400 725
f 574 532 571
f 672 673 579
f 579 674 675
f 674 579 653
f 649 571 678
f 653 578 580
f 580 581 675
f 738 735 677
f 581 671 673
f 672 579 675
f 577 571 484
f 654 671 676
f 578 654 676
f 678 651 654
f 674 580 675
f 671 581 676
f 571 577 678
f 577 651 678
f 581 672 675
f 672 581 673
f 678 654 578
f 671 620 673
f 581 578 676
f 580 674 653
f 620 579 673
f 654 651 620
f 653 651 578
f 537 652 445
f 653 579 651
f 677 578 652
f 537 576 652
f 738 677 512
f 738 512 485
f 445 652 651
f 578 651 652
f 677 652 512
f 601 599 598
f 603 599 601
f 598 600 602
f 527 607 657
f 657 608 610
f 600 599 616
f 621 658 713
f 609 645 610
f 518 657 694
f 608 617 609
f 610 645 669
f 617 637 609
f 616 637 617
f 541 551 635
f 607 631 603
f 694 657 641
f 641 657 610
f 563 400 534
f 667 725 680
f 641 610 627
f 605 606 627
f 610 669 627
f 656 667 681
f 669 605 627
f 564 605 669
f 400 619 725
f 586 587 682
f 655 586 682
f 663 595 619
f 567 636 541
f 552 683 568
f 619 634 555
f 619 569 633
f 569 568 633
f 660 624 595
f 585 624 660
f 555 585 663
f 595 642 619
f 585 661 624
f 568 684 633
f 539 541 635
f 636 567 569
f 595 624 642
f 567 552 568
f 642 624 661
f 619 642 569
f 683 684 568
f 684 683 685
f 684 711 633
f 711 619 633
f 641 655 682
f 551 661 635
f 567 541 552
f 541 636 552
f 636 661 552
f 687 667 680
f 552 541 538
f 659 665 688
f 566 680 690
f 587 656 682
f 668 438 689
f 563 534 641
f 664 659 658
f 474 571 572
f 670 572 571
f 572 670 618
f 691 692 646
f 692 441 646
f 691 646 693
f 453 438 668
f 646 441 618
f 438 476 612
f 682 533 699
f 533 682 656
f 573 441 476
f 571 474 574
f 670 571 649
f 476 453 648
f 649 678 734
f 641 682 699
f 533 656 681
f 699 533 681
f 683 621 685
f 534 586 655
f 699 681 687
f 681 667 687
f 705 697 698
f 589 700 694
f 701 680 702
f 690 680 701
f 703 704 589
f 566 703 589
f 725 619 711
f 705 698 700
f 698 697 707
f 700 698 707
f 688 708 625
f 540 664 658
f 621 540 658
f 709 666 635
f 666 709 710
f 688 626 708
f 626 688 665
f 664 665 659
f 695 712 639
f 684 685 711
f 683 552 621
f 552 538 621
f 538 540 621
f 686 621 713
f 686 713 711
f 539 635 665
f 711 685 686
f 658 625 713
f 565 714 722
f 526 518 694
f 589 694 566
f 638 716 695
f 716 638 640
f 685 621 686
f 713 625 711
f 659 688 625
f 540 539 664
f 639 712 635
f 626 665 635
f 711 626 712
f 626 635 712
f 716 717 695
f 640 717 716
f 717 666 718
f 666 717 640
f 680 699 687
f 566 701 703
f 730 643 662
f 529 635 661
f 635 640 639
f 700 707 694
f 644 721 529
f 721 635 529
f 730 721 644
f 441 689 612
f 689 441 720
f 668 689 720
f 692 733 720
f 441 692 720
f 646 618 670
f 720 738 668
f 668 738 647
f 668 647 453
f 566 694 680
f 641 699 694
f 715 589 704
f 727 715 706
f 566 690 701
f 711 727 725
f 700 715 705
f 702 680 725
f 719 707 697
f 694 707 719
f 706 715 704
f 699 680 694
f 715 700 589
f 701 702 703
f 703 702 704
f 727 705 715
f 711 705 727
f 697 705 711
f 726 697 711
f 694 719 726
f 726 719 697
f 725 727 706
f 702 706 704
f 702 725 706
f 526 694 722
f 714 526 722
f 728 695 717
f 694 726 730
f 710 728 718
f 729 709 635
f 709 731 710
f 730 726 711
f 721 732 729
f 732 721 730
f 711 728 731
f 731 728 710
f 731 729 732
f 729 731 709
f 711 732 730
f 731 732 711
f 730 565 722
f 711 712 695
f 695 728 711
f 638 695 639
f 718 728 717
f 666 710 718
f 721 729 635
f 694 730 722
f 734 531 649
f 481 476 648
f 734 678 650
f 724 679 678
f 650 724 696
f 678 578 724
f 724 677 735
f 578 677 724
f 735 696 724
f 650 678 679
f 650 679 724
f 670 531 737
f 692 723 733
f 646 670 737
f 737 531 693
f 693 646 737
f 723 692 691
f 733 723 736
f 720 733 738
f 723 691 693
f 736 723 693
f 738 733 736
f 693 531 736
f 531 670 649
f 531 734 650
f 696 531 650
f 531 696 736
f 735 738 696
f 736 696 738
f 69 71 73
f 272 205 273
f 606 563 627
f 708 626 625

