# https://github.com/mikedh/trimesh
v 0.12799816 0.00339263 -0.09323500
v 0.12799816 0.00874388 -0.09323500
v 0.17254939 -0.03580800 -0.09323500
v -0.18924779 -0.03759175 -0.08966276
v -0.19276299 -0.03045675 -0.08966276
v -0.03947011 0.03904250 -0.09143972
v 0.15470597 0.03904250 -0.09323500
v 0.19035459 -0.03759175 -0.09323500
v -0.13216415 -0.03937550 -0.08966276
v -0.19096719 -0.03937550 -0.08786747
v -0.19459700 -0.02511388 -0.08786747
v -0.19459700 0.03904250 -0.08786747
v -0.18745199 0.03904250 -0.08966276
v 0.18504360 0.04082625 -0.09323500
v 0.18504360 -0.03937550 -0.08964444
v 0.19215039 -0.03580800 -0.09323500
v 0.19215039 -0.03937550 -0.07718738
v -0.18745199 -0.04115925 -0.07892770
v -0.19276299 -0.04115925 -0.06113975
v -0.19459700 -0.03402425 -0.06647064
v -0.19459700 0.04082625 -0.05040470
v -0.18561798 0.04261000 -0.08786747
v 0.19215039 0.04261000 -0.08964444
v 0.19394620 0.04082625 -0.08964444
v 0.19215039 0.01052763 -0.09323500
v 0.18504360 -0.04115925 -0.01836441
v -0.04661511 -0.04294300 -0.00409375
v 0.19394620 -0.02511388 -0.08431355
v 0.19394620 -0.03402425 -0.03796596
v 0.19394620 -0.04294300 0.08317895
v -0.08046793 -0.04294300 -0.00409375
v -0.18745199 -0.04294300 0.02257901
v -0.19096719 -0.04294300 0.07605277
v -0.19276299 -0.03937550 0.09030512
v -0.19459700 0.02478088 0.05465594
v -0.19459700 0.03369125 0.03864496
v -0.19276299 0.03904250 0.08675119
v -0.17316198 0.04261000 -0.06291672
v 0.19215039 0.04261000 -0.07359681
v 0.19574200 0.03904250 0.05287898
v 0.19574200 0.03191588 -0.04511045
v 0.19574200 0.02122175 -0.02726754
v 0.19574200 0.00516800 0.06716796
v 0.19394620 -0.04294300 0.08675119
v -0.19096719 -0.04115925 0.09208208
v -0.18745199 -0.04294300 0.08497423
v -0.19276299 0.03725875 0.09030512
v -0.18210279 0.03904250 0.09208208
v -0.14462016 0.04082625 0.03864496
v 0.00500470 0.04261000 0.01012196
v 0.10125214 0.04260163 -0.00231678
v 0.19035459 0.03904250 0.08852815
v 0.19574200 0.03725875 0.08675119
v 0.19215039 -0.04115925 0.08852815
v -0.09831134 -0.04115925 0.09211872
v -0.16957037 0.03369125 0.09391400
v -0.18210279 0.03725875 0.09391400
v -0.05196432 0.03904250 0.09211872
v 0.06025433 0.04260163 0.01545284
v 0.16899598 0.03904250 0.09034176
v 0.18859699 0.03725875 0.09034176
v 0.17969439 0.00516800 0.09034176
v 0.06739933 -0.03936713 0.09030512
v 0.02995491 0.03369125 0.09211872
f 1 2 7
f 1 7 14
f 1 14 25
f 1 25 16
f 1 16 8
f 1 8 3
f 1 3 4
f 1 4 5
f 1 5 6
f 1 6 2
f 2 6 7
f 3 8 4
f 4 9 10
f 4 10 5
f 4 8 9
f 5 11 12
f 5 12 13
f 5 13 6
f 5 10 11
f 6 13 14
f 6 14 7
f 8 15 9
f 8 16 17
f 8 17 15
f 9 18 10
f 9 15 18
f 10 19 20
f 10 20 11
f 10 18 19
f 11 20 35
f 11 35 36
f 11 36 21
f 11 21 12
f 12 21 22
f 12 22 13
f 13 22 14
f 14 22 23
f 14 23 24
f 14 24 25
f 15 17 26
f 15 26 27
f 15 27 18
f 16 25 24
f 16 24 28
f 16 28 17
f 17 28 29
f 17 29 30
f 17 30 26
f 18 27 31
f 18 31 32
f 18 32 19
f 19 32 33
f 19 33 34
f 19 34 20
f 20 34 35
f 21 36 37
f 21 37 22
f 22 37 38
f 22 38 50
f 22 50 39
f 22 39 23
f 23 39 40
f 23 40 24
f 24 40 41
f 24 41 28
f 26 30 27
f 27 30 44
f 27 44 46
f 27 46 33
f 27 33 32
f 27 32 31
f 28 41 42
f 28 42 29
f 29 42 43
f 29 43 30
f 30 43 44
f 33 45 34
f 33 46 45
f 34 45 47
f 34 47 35
f 35 47 36
f 36 47 37
f 37 47 48
f 37 48 49
f 37 49 38
f 38 49 50
f 39 51 52
f 39 52 40
f 39 50 51
f 40 53 43
f 40 43 42
f 40 42 41
f 40 52 53
f 43 53 44
f 44 53 54
f 44 54 55
f 44 55 45
f 44 45 46
f 45 55 56
f 45 56 57
f 45 57 47
f 47 57 48
f 48 57 58
f 48 58 59
f 48 59 50
f 48 50 49
f 50 59 51
f 51 59 52
f 52 59 60
f 52 60 61
f 52 61 53
f 53 61 54
f 54 61 62
f 54 62 63
f 54 63 55
f 55 63 62
f 55 62 56
f 56 62 64
f 56 64 57
f 57 64 61
f 57 61 60
f 57 60 58
f 58 60 59
f 61 64 62

