# https://github.com/mikedh/trimesh
v 0.10327099 0.03045089 0.13516099
v -0.09286134 0.03195100 0.13670800
v -0.02847508 -0.01746418 0.13670800
v 0.10327099 0.00049925 0.13516099
v 0.10327099 0.03194470 0.12921301
v 0.10025700 0.03195100 0.13516099
v -0.10186288 0.03195100 0.13518767
v -0.10186288 0.02895079 0.13670800
v -0.03146885 -0.02644589 0.13670800
v 0.10175388 -0.02793969 0.13516099
v 0.10327099 -0.02045178 0.13068000
v 0.10175388 -0.00397585 -0.13577900
v 0.10175388 0.02895079 -0.13577900
v 0.10175388 0.03045089 -0.13425867
v 0.09724300 0.03195100 -0.08782172
v -0.10036600 0.03195100 -0.13127134
v -0.10337999 0.03043829 -0.12676367
v -0.10337999 0.02895079 -0.12228268
v -0.10186288 -0.02494578 0.13518767
v -0.10036600 -0.02793969 0.13670800
v 0.10175388 -0.02943979 0.13369400
v 0.10175388 -0.02943979 -0.07885973
v 0.10175388 -0.02644589 -0.13276500
v 0.10025700 -0.03093989 -0.13425867
v 0.09873988 -0.02793969 -0.13577900
v 0.09426946 0.03043829 -0.13577900
v -0.01799689 0.03195100 -0.13127134
v -0.10186288 0.03043829 -0.13423199
v -0.10337999 0.02895079 -0.13423199
v -0.10337999 -0.02644589 -0.12527001
v -0.10186288 -0.02793969 0.09477872
v -0.10036600 -0.02943979 0.07978873
v -0.09585511 -0.02943979 0.13217366
v -0.07938938 -0.02943979 0.13369400
v 0.05233646 -0.03093989 0.12467867
v 0.07179596 -0.03093989 0.11873068
v 0.07930061 -0.03093989 0.10971536
v 0.10025700 -0.03093989 -0.02794179
v 0.06433176 -0.03244000 -0.11329402
v 0.03736762 -0.03244000 -0.12228268
v 0.03587073 -0.03093989 -0.13425867
v 0.02389565 -0.01146376 -0.13577900
v -0.06294388 -0.02943979 -0.13423199
v -0.10186288 -0.02793969 -0.13423199
v 0.02389565 0.00498695 -0.13577900
v -0.10337999 0.00798086 -0.13423199
v -0.10337999 -0.02494578 -0.13276500
v -0.10186288 -0.02943979 -0.13276500
v -0.10186288 -0.02943979 -0.01444547
v -0.09735200 -0.03093989 -0.12374967
v -0.07190496 -0.03093989 0.10672803
v -0.04344393 -0.03093989 0.11721035
v 0.01639100 -0.03093989 0.12467867
v -0.01053269 -0.03244000 0.01838847
v 0.01192058 -0.03244000 -0.00246948
v 0.03287696 -0.03244000 -0.03391645
v 0.06433176 -0.03244000 -0.10729269
v -0.00153116 -0.03244000 -0.12078901
v -0.08839092 -0.03093989 -0.13127134
v -0.03895327 -0.03244000 -0.11628135
v -0.04945169 -0.03244000 -0.10430536
v -0.04945169 -0.03244000 -0.09681037
v -0.03597973 -0.03244000 -0.03991777
v -0.01350623 -0.03244000 0.01689480
f 1 2 3
f 1 3 4
f 1 4 11
f 1 11 5
f 1 5 6
f 1 6 2
f 2 6 15
f 2 15 27
f 2 27 16
f 2 16 7
f 2 7 8
f 2 8 20
f 2 20 9
f 2 9 3
f 3 9 10
f 3 10 4
f 4 10 11
f 5 11 12
f 5 12 13
f 5 13 14
f 5 14 15
f 5 15 6
f 7 16 17
f 7 17 18
f 7 18 8
f 8 18 19
f 8 19 20
f 9 20 10
f 10 21 11
f 10 20 21
f 11 21 22
f 11 22 23
f 11 23 12
f 12 24 25
f 12 25 42
f 12 42 45
f 12 45 26
f 12 26 13
f 12 23 24
f 13 26 14
f 14 26 27
f 14 27 15
f 16 27 26
f 16 26 28
f 16 28 17
f 17 28 29
f 17 29 46
f 17 46 47
f 17 47 30
f 17 30 18
f 18 30 19
f 19 30 31
f 19 31 20
f 20 31 32
f 20 32 33
f 20 33 34
f 20 34 21
f 21 34 53
f 21 53 35
f 21 35 36
f 21 36 37
f 21 37 38
f 21 38 24
f 21 24 22
f 22 24 23
f 24 39 40
f 24 40 41
f 24 41 25
f 24 38 57
f 24 57 39
f 25 41 43
f 25 43 44
f 25 44 42
f 26 45 28
f 28 45 29
f 29 45 42
f 29 42 46
f 30 47 48
f 30 48 49
f 30 49 31
f 31 49 32
f 32 49 50
f 32 50 33
f 33 50 51
f 33 51 52
f 33 52 53
f 33 53 34
f 35 53 54
f 35 54 36
f 36 54 55
f 36 55 37
f 37 55 56
f 37 56 57
f 37 57 38
f 39 57 56
f 39 56 55
f 39 55 54
f 39 54 64
f 39 64 63
f 39 63 62
f 39 62 61
f 39 61 60
f 39 60 58
f 39 58 40
f 40 58 59
f 40 59 41
f 41 59 43
f 42 44 46
f 43 48 44
f 43 59 48
f 44 48 47
f 44 47 46
f 48 59 50
f 48 50 49
f 50 59 60
f 50 60 61
f 50 61 62
f 50 62 51
f 51 63 64
f 51 64 54
f 51 54 52
f 51 62 63
f 52 54 53
f 58 60 59

