o convex_0
v 0.066959 0.087364 -0.014425
v -0.044867 -0.087008 -0.014427
v -0.044867 -0.087008 0.000958
v 0.066959 -0.087008 -0.015451
v 0.059767 -0.079822 0.004039
v -0.044867 0.086323 0.003010
v -0.040762 0.086323 -0.014427
v 0.066959 0.086323 0.001984
v 0.038225 -0.080846 -0.016480
v 0.059767 0.080179 0.004039
v -0.003819 -0.078798 0.004037
v 0.066959 -0.087008 -0.000067
v -0.044867 -0.026483 -0.015451
v 0.066959 -0.048024 -0.016478
v 0.024893 0.053500 -0.015451
v -0.003819 0.079154 0.004037
v -0.044867 0.087364 -0.013399
v -0.044867 -0.069564 0.001986
v -0.044867 -0.085967 -0.015451
v -0.018191 0.031960 -0.015451
v 0.034120 0.087364 0.001984
v 0.065930 0.050428 -0.015451
v -0.044867 0.033001 0.003010
v 0.066959 -0.085967 -0.016478
v 0.066959 -0.002894 0.001984
v -0.044867 0.087364 0.001986
f 21 17 26 
f 3 2 4 
f 2 3 6 
f 4 1 8 
f 5 8 10 
f 3 5 11 
f 5 10 11 
f 3 4 12 
f 5 3 12 
f 4 8 12 
f 2 6 13 
f 1 4 14 
f 7 1 15 
f 10 6 16 
f 6 11 16 
f 11 10 16 
f 1 7 17 
f 13 6 17 
f 7 13 17 
f 6 3 18 
f 3 11 18 
f 2 13 19 
f 13 9 19 
f 13 7 20 
f 9 13 20 
f 14 9 20 
f 7 15 20 
f 15 14 20 
f 8 1 21 
f 6 10 21 
f 10 8 21 
f 1 17 21 
f 1 14 22 
f 15 1 22 
f 14 15 22 
f 11 6 23 
f 6 18 23 
f 18 11 23 
f 4 2 24 
f 9 14 24 
f 14 4 24 
f 2 19 24 
f 19 9 24 
f 8 5 25 
f 5 12 25 
f 12 8 25 
f 17 6 26 
f 6 21 26 
o convex_1
v 0.125436 -0.013159 -0.000066
v 0.066959 -0.087025 -0.015450
v 0.066959 -0.087025 -0.000066
v 0.066959 -0.013159 -0.015450
v 0.125436 -0.084972 -0.016477
v 0.066959 -0.013159 0.000961
v 0.117228 -0.079838 0.003013
v 0.125436 -0.013159 -0.015453
v 0.085430 -0.079838 -0.018532
v 0.123381 -0.087025 -0.001091
v 0.119277 -0.047019 -0.018532
v 0.124406 -0.013159 0.000959
v 0.066959 -0.080865 0.000961
v 0.125436 -0.083945 -0.001091
v 0.119277 -0.081892 -0.018532
v 0.123381 -0.087025 -0.016477
v 0.066959 -0.085999 -0.016477
v 0.111069 -0.074705 0.003013
v 0.120302 -0.019319 -0.016477
v 0.066959 -0.047019 -0.016477
f 35 43 46 
f 28 29 30 
f 30 29 32 
f 27 30 32 
f 30 27 34 
f 27 31 34 
f 29 28 36 
f 33 29 36 
f 34 31 37 
f 35 30 37 
f 27 32 38 
f 32 29 39 
f 29 33 39 
f 31 27 40 
f 36 31 40 
f 33 36 40 
f 27 38 40 
f 38 33 40 
f 37 31 41 
f 35 37 41 
f 36 28 42 
f 31 36 42 
f 41 31 42 
f 41 42 43 
f 28 30 43 
f 35 41 43 
f 42 28 43 
f 38 32 44 
f 33 38 44 
f 32 39 44 
f 39 33 44 
f 30 34 45 
f 37 30 45 
f 34 37 45 
f 30 35 46 
f 43 30 46 
o convex_2
v 0.124406 0.086348 0.000958
v 0.066959 -0.013159 -0.015453
v 0.097732 -0.013159 -0.015453
v 0.117228 0.081221 -0.017506
v 0.066959 0.086348 0.001985
v 0.124406 -0.013159 0.000958
v 0.066959 -0.013159 0.000960
v 0.066959 0.087381 -0.014425
v 0.125436 -0.013159 -0.015451
v 0.117228 0.074027 0.003013
v 0.125436 0.085315 -0.014427
v 0.066959 -0.001871 0.001985
v 0.084400 0.082234 -0.016477
v 0.120302 0.048380 -0.017506
v 0.125436 0.022753 0.000958
v 0.123381 0.087381 -0.014427
v 0.122357 0.087381 0.000958
v 0.111069 0.080187 0.003013
v 0.066959 0.049403 -0.015453
v 0.125436 0.083278 0.000958
v 0.066959 0.087381 0.000960
f 63 54 67 
f 48 49 52 
f 51 48 53 
f 48 52 53 
f 48 51 54 
f 52 49 55 
f 51 53 58 
f 53 52 58 
f 52 56 58 
f 54 50 59 
f 49 48 60 
f 55 49 60 
f 50 57 60 
f 57 55 60 
f 48 59 60 
f 59 50 60 
f 52 55 61 
f 56 52 61 
f 55 57 61 
f 50 54 62 
f 47 57 62 
f 57 50 62 
f 47 62 63 
f 62 54 63 
f 56 47 64 
f 51 58 64 
f 58 56 64 
f 63 51 64 
f 47 63 64 
f 48 54 65 
f 59 48 65 
f 54 59 65 
f 47 56 66 
f 57 47 66 
f 56 61 66 
f 61 57 66 
f 54 51 67 
f 51 63 67 
o convex_3
v -0.122835 0.087364 0.003012
v -0.125915 -0.084943 -0.014427
v -0.123859 -0.087008 -0.014427
v -0.098219 0.082227 -0.015452
v -0.098219 -0.077774 0.001985
v -0.098219 -0.080846 -0.017503
v -0.125915 0.084275 -0.013400
v -0.124887 -0.083919 0.001985
v -0.098219 0.087364 0.003012
v -0.111556 -0.079822 0.004037
v -0.120782 0.078130 -0.015452
v -0.125915 0.083251 -0.000067
v -0.098219 -0.087008 0.000960
v -0.120782 -0.080846 -0.016479
v -0.117708 0.080179 0.004037
v -0.098219 0.087364 -0.013400
v -0.124887 -0.000846 0.003012
v -0.125915 -0.080846 0.000958
v -0.098219 -0.087008 -0.014427
v -0.117708 -0.079822 0.004037
v -0.123859 0.087364 -0.013400
v -0.121810 -0.087008 0.000958
v -0.120782 -0.046999 -0.016479
v -0.111556 0.080179 0.004037
v -0.098219 0.016581 0.003012
v -0.124887 0.085299 0.003012
f 68 88 93 
f 71 72 73 
f 69 70 75 
f 72 71 76 
f 71 73 78 
f 74 69 79 
f 73 72 80 
f 72 77 80 
f 70 69 81 
f 73 70 81 
f 76 68 82 
f 76 71 83 
f 68 76 83 
f 69 75 85 
f 79 69 85 
f 75 84 85 
f 70 73 86 
f 80 70 86 
f 73 80 86 
f 80 77 87 
f 77 82 87 
f 84 75 87 
f 82 84 87 
f 71 78 88 
f 78 74 88 
f 83 71 88 
f 68 83 88 
f 75 70 89 
f 70 80 89 
f 87 75 89 
f 80 87 89 
f 69 74 90 
f 78 73 90 
f 74 78 90 
f 81 69 90 
f 73 81 90 
f 77 76 91 
f 76 82 91 
f 82 77 91 
f 72 76 92 
f 76 77 92 
f 77 72 92 
f 74 79 93 
f 82 68 93 
f 84 82 93 
f 79 85 93 
f 85 84 93 
f 88 74 93 
o convex_4
v -0.044867 0.087364 0.001985
v -0.098215 -0.087008 -0.014427
v -0.098215 -0.087008 0.000960
v -0.098215 0.087364 0.003012
v -0.098215 0.082227 -0.015452
v -0.044867 -0.085967 -0.015454
v -0.054099 -0.079822 0.004039
v -0.044867 0.087364 -0.013400
v -0.044867 -0.087008 0.000958
v -0.086930 -0.079822 -0.017506
v -0.054099 0.080179 0.004039
v -0.044867 0.076065 -0.014427
v -0.098215 -0.077774 0.001985
v -0.098215 -0.080846 -0.017506
v -0.098215 0.087364 -0.013400
v -0.044867 0.033001 0.003012
v -0.061285 -0.077774 0.004039
v -0.098215 0.016581 0.003012
v -0.044867 -0.026483 -0.015454
v -0.085901 0.082227 -0.015452
v -0.060256 0.080179 0.004039
v -0.044867 -0.087008 -0.014427
v -0.044867 -0.069564 0.001985
v -0.044867 0.086323 0.003012
f 104 109 117 
f 95 96 97 
f 95 97 98 
f 97 94 101 
f 94 99 101 
f 96 95 102 
f 99 94 102 
f 100 96 102 
f 101 99 105 
f 97 96 106 
f 95 98 107 
f 99 95 107 
f 98 103 107 
f 103 99 107 
f 98 97 108 
f 97 101 108 
f 101 98 108 
f 102 94 109 
f 104 100 109 
f 96 100 110 
f 100 104 110 
f 106 96 110 
f 106 110 111 
f 97 106 111 
f 110 97 111 
f 99 103 112 
f 105 99 112 
f 103 105 112 
f 98 101 113 
f 103 98 113 
f 101 105 113 
f 105 103 113 
f 104 97 114 
f 97 110 114 
f 110 104 114 
f 95 99 115 
f 102 95 115 
f 99 102 115 
f 100 102 116 
f 102 109 116 
f 109 100 116 
f 94 97 117 
f 97 104 117 
f 109 94 117 
o convex_5
v 0.118255 -0.080870 0.025592
v 0.119281 -0.073688 0.115864
v 0.113125 -0.073688 0.115864
v 0.112101 -0.073688 0.003013
v 0.113125 -0.081896 0.107646
v 0.111073 -0.079843 0.003013
v 0.117229 -0.073688 0.003013
v 0.119281 -0.081896 0.109700
v 0.111073 -0.075741 0.033800
v 0.118255 -0.079843 0.010204
v 0.113125 -0.081896 0.062510
v 0.112101 -0.080870 0.092258
f 126 123 129 
f 120 119 121 
f 121 119 124 
f 123 121 124 
f 119 120 125 
f 120 122 125 
f 120 121 126 
f 121 123 126 
f 118 123 127 
f 123 124 127 
f 124 119 127 
f 119 125 127 
f 125 118 127 
f 122 123 128 
f 123 118 128 
f 118 125 128 
f 125 122 128 
f 122 120 129 
f 123 122 129 
f 120 126 129 
o convex_6
v 0.119281 -0.073687 0.126123
v 0.118255 -0.014185 0.134331
v 0.113125 -0.014185 0.134331
v 0.119281 -0.072652 0.115864
v 0.113125 -0.062394 0.132277
v 0.113125 -0.079844 0.115864
v 0.113125 -0.014185 0.128172
v 0.119281 -0.014185 0.128172
v 0.119281 -0.058294 0.133304
f 130 137 138 
f 134 132 135 
f 133 130 135 
f 130 134 135 
f 132 131 136 
f 135 132 136 
f 133 135 136 
f 130 133 137 
f 136 131 137 
f 133 136 137 
f 131 132 138 
f 134 130 138 
f 132 134 138 
f 137 131 138 
o convex_7
v 0.119281 0.064811 0.127148
v 0.118254 0.056601 0.134331
v 0.113126 0.056601 0.134331
v 0.113126 -0.014185 0.128174
v 0.112099 0.069941 0.117919
v 0.119281 -0.014185 0.128174
v 0.119281 -0.014185 0.134331
v 0.118254 0.068911 0.117919
v 0.113126 -0.014185 0.134331
v 0.112099 0.069941 0.127148
v 0.112099 0.030950 0.133303
f 148 143 149 
f 139 140 145 
f 140 141 145 
f 144 139 145 
f 142 144 145 
f 142 143 146 
f 139 144 146 
f 144 142 146 
f 145 141 147 
f 142 145 147 
f 140 139 148 
f 141 140 148 
f 139 146 148 
f 146 143 148 
f 143 142 149 
f 142 147 149 
f 147 141 149 
f 141 148 149 
o convex_8
v 0.117228 0.078147 0.113797
v 0.112100 0.069941 0.115845
v 0.118255 0.069941 0.115845
v 0.112100 0.074045 0.003013
v 0.118255 0.079173 0.010206
v 0.111073 0.080200 0.021497
v 0.112100 0.078147 0.112773
v 0.117228 0.074045 0.003013
v 0.118255 0.079173 0.103543
v 0.117228 0.080200 0.003013
v 0.112100 0.070968 0.126111
v 0.111073 0.075070 0.003013
v 0.111073 0.074045 0.073792
v 0.118255 0.069941 0.126111
v 0.115177 0.080200 0.064562
f 158 159 164 
f 152 151 153 
f 152 153 157 
f 154 152 157 
f 152 154 158 
f 156 150 158 
f 157 153 159 
f 154 157 159 
f 158 154 159 
f 150 156 160 
f 153 151 161 
f 159 153 161 
f 155 159 161 
f 156 155 162 
f 151 160 162 
f 160 156 162 
f 161 151 162 
f 155 161 162 
f 151 152 163 
f 158 150 163 
f 152 158 163 
f 150 160 163 
f 160 151 163 
f 155 156 164 
f 156 158 164 
f 159 155 164 
o convex_9
v -0.110526 -0.077791 0.120973
v -0.115655 -0.080870 0.016370
v -0.114629 -0.080870 0.016370
v -0.112578 -0.073688 0.004063
v -0.116680 -0.072662 0.126124
v -0.116680 -0.080870 0.110721
v -0.117707 -0.073688 0.004063
v -0.110526 -0.072662 0.126124
v -0.110526 -0.080870 0.069688
v -0.111553 -0.079844 0.004063
v -0.117707 -0.079844 0.004063
v -0.110526 -0.075741 0.031749
v -0.117707 -0.080870 0.075841
v -0.110526 -0.080870 0.111749
f 170 173 178 
f 166 167 170 
f 165 169 170 
f 169 168 171 
f 169 165 172 
f 168 169 172 
f 170 167 173 
f 172 165 173 
f 167 166 174 
f 171 168 174 
f 173 167 174 
f 174 166 175 
f 171 174 175 
f 168 172 176 
f 172 173 176 
f 173 174 176 
f 174 168 176 
f 166 170 177 
f 170 169 177 
f 169 171 177 
f 175 166 177 
f 171 175 177 
f 165 170 178 
f 173 165 178 
o convex_10
v -0.116681 -0.070599 0.129199
v -0.110526 -0.007003 0.135357
v -0.116681 -0.007003 0.135357
v -0.111552 -0.071628 0.116892
v -0.110526 -0.060348 0.134328
v -0.116681 -0.007003 0.130226
v -0.116681 -0.071628 0.117919
v -0.110526 -0.007003 0.129199
v -0.115655 -0.053169 0.135357
v -0.110526 -0.072662 0.127147
v -0.110526 -0.072662 0.117919
f 188 185 189 
f 179 181 184 
f 181 180 184 
f 184 182 185 
f 179 184 185 
f 180 183 186 
f 184 180 186 
f 182 184 186 
f 181 179 187 
f 180 181 187 
f 179 183 187 
f 183 180 187 
f 183 179 188 
f 179 185 188 
f 186 183 188 
f 186 188 189 
f 185 182 189 
f 182 186 189 
o convex_11
v -0.114629 0.080200 0.106616
v -0.115655 0.070967 0.116873
v -0.110526 0.070967 0.116873
v -0.117707 0.074046 0.004050
v -0.111553 0.080200 0.004050
v -0.117707 0.080200 0.046111
v -0.110526 0.079173 0.114826
v -0.111553 0.074046 0.010213
v -0.116680 0.077121 0.118942
v -0.117707 0.080200 0.004050
v -0.110526 0.075071 0.026621
v -0.116680 0.070967 0.118942
v -0.110526 0.080200 0.048169
f 200 194 202 
f 192 191 193 
f 190 194 195 
f 192 193 197 
f 193 194 197 
f 190 195 198 
f 196 190 198 
f 192 196 198 
f 194 193 199 
f 193 195 199 
f 195 194 199 
f 196 192 200 
f 192 197 200 
f 197 194 200 
f 191 192 201 
f 193 191 201 
f 195 193 201 
f 192 198 201 
f 198 195 201 
f 194 190 202 
f 190 196 202 
f 196 200 202 
o convex_12
v -0.116681 0.077122 0.119970
v -0.113603 0.053522 0.136383
v -0.110527 0.058652 0.135357
v -0.110527 -0.007003 0.129201
v -0.116681 -0.007003 0.135357
v -0.109501 0.071992 0.119970
v -0.109501 0.003265 0.135357
v -0.116681 0.060702 0.134329
v -0.115654 -0.007003 0.129201
v -0.116681 0.070963 0.118942
v -0.109501 0.067883 0.130225
v -0.110527 0.069933 0.118942
f 211 212 214 
f 206 208 209 
f 205 204 209 
f 207 206 209 
f 204 207 209 
f 204 205 210 
f 203 207 210 
f 207 204 210 
f 206 207 211 
f 207 203 212 
f 211 207 212 
f 208 203 213 
f 209 208 213 
f 205 209 213 
f 203 210 213 
f 210 205 213 
f 203 208 214 
f 208 206 214 
f 206 211 214 
f 212 203 214 
o convex_13
v -0.054100 -0.074712 0.125089
v -0.059229 -0.080868 0.026618
v -0.060256 -0.079842 0.004039
v -0.060256 -0.067534 0.130227
v -0.054100 -0.074712 0.004039
v -0.060256 -0.080868 0.107648
v -0.054100 -0.080868 0.109686
v -0.054100 -0.067534 0.122013
v -0.060256 -0.073690 0.004039
v -0.054100 -0.079842 0.004039
v -0.060256 -0.076764 0.122013
v -0.055126 -0.073690 0.004039
f 223 222 226 
f 217 216 220 
f 218 217 220 
f 219 215 221 
f 220 216 221 
f 218 215 222 
f 215 219 222 
f 217 218 223 
f 219 217 223 
f 218 222 223 
f 216 217 224 
f 217 219 224 
f 219 221 224 
f 221 216 224 
f 215 218 225 
f 218 220 225 
f 221 215 225 
f 220 221 225 
f 222 219 226 
f 219 223 226 
o convex_14
v -0.060256 -0.066499 0.131252
v -0.054100 0.052500 0.135356
v -0.060256 0.052500 0.135356
v -0.054100 -0.065465 0.123047
v -0.054100 -0.048017 0.135356
v -0.060256 0.052500 0.129201
v -0.060256 -0.067533 0.123047
v -0.054100 0.052500 0.129201
v -0.060256 -0.040850 0.135356
v -0.054100 -0.067533 0.131252
f 227 233 236 
f 228 229 231 
f 230 228 231 
f 227 229 232 
f 229 228 232 
f 232 230 233 
f 227 232 233 
f 228 230 234 
f 232 228 234 
f 230 232 234 
f 229 227 235 
f 227 231 235 
f 231 229 235 
f 231 227 236 
f 230 231 236 
f 233 230 236 
o convex_15
v -0.059229 0.074044 0.004049
v -0.054100 0.080200 0.109709
v -0.054100 0.074044 0.109709
v -0.060256 0.074044 0.109709
v -0.060256 0.080200 0.004049
v -0.054100 0.079174 0.004049
v -0.060256 0.080200 0.108664
v -0.054100 0.075071 0.004049
v -0.060256 0.074044 0.009179
v -0.054100 0.080200 0.009179
f 242 241 246 
f 239 238 240 
f 237 239 240 
f 238 239 242 
f 237 241 242 
f 240 238 243 
f 241 240 243 
f 238 241 243 
f 239 237 244 
f 237 242 244 
f 242 239 244 
f 237 240 245 
f 241 237 245 
f 240 241 245 
f 241 238 246 
f 238 242 246 
o convex_16
v -0.059229 0.079172 0.115866
v -0.054100 0.057630 0.135354
v -0.054100 0.063788 0.133301
v -0.054100 0.074042 0.109711
v -0.060256 0.052500 0.129200
v -0.060256 0.065838 0.132277
v -0.060256 0.074042 0.109711
v -0.054100 0.052500 0.129200
v -0.054100 0.076092 0.123045
v -0.060256 0.052500 0.135354
v -0.054100 0.080200 0.109711
f 247 255 257 
f 249 248 250 
f 248 249 252 
f 250 251 253 
f 251 252 253 
f 252 247 253 
f 250 248 254 
f 251 250 254 
f 249 250 255 
f 247 252 255 
f 252 249 255 
f 248 252 256 
f 252 251 256 
f 254 248 256 
f 251 254 256 
f 253 247 257 
f 250 253 257 
f 255 250 257 
o convex_17
v 0.003352 -0.077791 0.120980
v -0.001778 -0.080870 0.015341
v -0.000752 -0.080870 0.015341
v 0.002325 -0.073690 0.004051
v -0.002804 -0.071636 0.127149
v -0.002804 -0.080870 0.112774
v -0.003830 -0.075741 0.010208
v 0.003352 -0.071636 0.127149
v 0.003352 -0.080870 0.035862
v 0.003352 -0.078816 0.004051
v 0.003352 -0.080870 0.112774
v -0.003830 -0.079843 0.008160
v -0.001778 -0.073690 0.004051
f 269 264 270 
f 259 260 263 
f 258 262 263 
f 262 258 265 
f 261 262 265 
f 263 260 266 
f 265 258 266 
f 265 266 267 
f 261 265 267 
f 266 260 267 
f 258 263 268 
f 266 258 268 
f 263 266 268 
f 260 259 269 
f 259 263 269 
f 263 262 269 
f 262 264 269 
f 267 260 269 
f 267 269 270 
f 262 261 270 
f 264 262 270 
f 261 267 270 
o convex_18
v -0.002804 -0.068556 0.130226
v 0.003352 0.035059 0.135357
v -0.002804 0.035059 0.135357
v 0.003352 -0.070603 0.118942
v 0.003352 -0.057266 0.134328
v -0.002804 0.035059 0.129200
v -0.002804 -0.071636 0.119970
v 0.003352 0.035059 0.129200
v -0.002804 -0.056242 0.134328
v 0.003352 -0.071636 0.128173
v -0.001778 -0.021349 0.135357
f 279 275 281 
f 274 272 275 
f 271 273 276 
f 273 272 276 
f 276 274 277 
f 271 276 277 
f 272 274 278 
f 276 272 278 
f 274 276 278 
f 273 271 279 
f 271 275 279 
f 275 271 280 
f 274 275 280 
f 277 274 280 
f 271 277 280 
f 272 273 281 
f 275 272 281 
f 273 279 281 
o convex_19
v 0.002325 0.080200 0.069692
v 0.001300 0.071993 0.102519
v 0.002325 0.071993 0.102519
v -0.002804 0.074046 0.004039
v -0.002804 0.079173 0.107645
v 0.003352 0.079173 0.004039
v -0.002804 0.080200 0.004039
v -0.002804 0.071993 0.113812
v 0.003352 0.078147 0.113812
v 0.003352 0.075070 0.004039
v -0.003830 0.075070 0.017384
v 0.003352 0.071993 0.113812
f 291 290 293 
f 284 283 285 
f 286 282 288 
f 282 287 288 
f 287 285 288 
f 283 284 289 
f 285 283 289 
f 286 289 290 
f 282 286 290 
f 287 282 290 
f 284 285 291 
f 285 287 291 
f 287 290 291 
f 286 288 292 
f 288 285 292 
f 285 289 292 
f 289 286 292 
f 289 284 293 
f 290 289 293 
f 284 291 293 
o convex_20
v -0.002804 0.077115 0.117916
v 0.003352 0.055579 0.135357
v 0.003352 0.059679 0.134330
v 0.003352 0.071986 0.113812
v -0.002804 0.035059 0.129201
v 0.003352 0.035059 0.129201
v -0.002804 0.057629 0.134330
v -0.002804 0.035059 0.135357
v -0.002804 0.071986 0.113812
v 0.003352 0.074044 0.124072
v 0.003352 0.035059 0.135357
v -0.002804 0.069940 0.128174
f 303 294 305 
f 296 295 297 
f 297 295 299 
f 298 297 299 
f 295 296 300 
f 294 298 300 
f 300 298 301 
f 298 299 301 
f 295 300 301 
f 294 297 302 
f 298 294 302 
f 297 298 302 
f 296 297 303 
f 297 294 303 
f 299 295 304 
f 295 301 304 
f 301 299 304 
f 294 300 305 
f 300 296 305 
f 296 303 305 
o convex_21
v 0.059776 -0.076766 0.122001
v 0.055674 -0.080870 0.029706
v 0.057725 -0.080870 0.029706
v 0.054649 -0.073690 0.004063
v 0.054649 -0.079843 0.114820
v 0.054649 -0.071636 0.126124
v 0.059776 -0.073690 0.004063
v 0.060803 -0.080870 0.109693
v 0.060803 -0.071636 0.126124
v 0.060803 -0.078816 0.008161
v 0.053622 -0.079843 0.006106
v 0.053622 -0.075741 0.053293
v 0.054649 -0.080870 0.109693
f 310 317 318 
f 310 306 311 
f 309 311 312 
f 307 308 313 
f 306 310 313 
f 311 306 314 
f 312 311 314 
f 306 313 314 
f 313 308 315 
f 312 314 315 
f 314 313 315 
f 308 307 316 
f 309 312 316 
f 315 308 316 
f 312 315 316 
f 311 309 317 
f 310 311 317 
f 309 316 317 
f 317 316 318 
f 307 313 318 
f 313 310 318 
f 316 307 318 
o convex_22
v 0.060803 -0.070595 0.128174
v 0.060803 0.011463 0.134331
v 0.054648 0.011463 0.134331
v 0.060803 -0.070595 0.117919
v 0.054648 -0.060338 0.133303
v 0.054648 -0.071636 0.117919
v 0.054648 0.011463 0.128174
v 0.060803 0.011463 0.129199
v 0.059777 -0.054188 0.134331
v 0.054648 -0.071636 0.127148
f 324 319 328 
f 320 319 322 
f 323 321 324 
f 322 319 324 
f 321 320 325 
f 324 321 325 
f 322 324 325 
f 320 322 326 
f 325 320 326 
f 322 325 326 
f 319 320 327 
f 320 321 327 
f 323 319 327 
f 321 323 327 
f 319 323 328 
f 323 324 328 
o convex_23
v 0.054649 0.070961 0.116890
v 0.059776 0.058650 0.134331
v 0.054649 0.058650 0.134331
v 0.054649 0.011469 0.128173
v 0.060803 0.011469 0.129201
v 0.059776 0.070961 0.117918
v 0.054649 0.011469 0.134331
v 0.053622 0.070961 0.127149
v 0.060803 0.011469 0.134331
v 0.060803 0.052495 0.132277
v 0.053622 0.022755 0.129201
v 0.059776 0.070961 0.127149
f 338 334 340 
f 332 329 333 
f 333 329 334 
f 330 331 335 
f 332 333 335 
f 331 330 336 
f 334 329 336 
f 330 335 337 
f 335 333 337 
f 333 334 338 
f 330 337 338 
f 337 333 338 
f 329 332 339 
f 335 331 339 
f 332 335 339 
f 331 336 339 
f 336 329 339 
f 336 330 340 
f 334 336 340 
f 330 338 340 
o convex_24
v 0.053622 0.078147 0.115847
v 0.054648 0.070967 0.114820
v 0.054648 0.074046 0.004063
v 0.059777 0.080200 0.097386
v 0.059777 0.070967 0.126124
v 0.059777 0.080200 0.004063
v 0.053622 0.080200 0.010217
v 0.059777 0.074046 0.004063
v 0.053622 0.070967 0.126124
v 0.054648 0.080200 0.095330
v 0.059777 0.078147 0.116875
v 0.053622 0.075071 0.004063
f 349 347 352 
f 344 345 346 
f 344 346 347 
f 342 343 348 
f 345 342 348 
f 343 346 348 
f 346 345 348 
f 343 342 349 
f 342 345 349 
f 341 347 349 
f 341 344 350 
f 344 347 350 
f 347 341 350 
f 344 341 351 
f 345 344 351 
f 341 349 351 
f 349 345 351 
f 346 343 352 
f 347 346 352 
f 343 349 352 
