o convex_0
v -0.023648 0.067092 0.029995
v 0.087380 -0.020155 0.077604
v 0.087380 -0.039188 0.077604
v 0.084203 -0.061389 -0.090544
v -0.082356 -0.064557 0.091890
v -0.087122 -0.053470 -0.088955
v 0.085792 0.063911 -0.088937
v -0.085533 0.063898 -0.087366
v 0.084203 0.063898 0.090301
v -0.083945 0.063898 0.090283
v 0.084203 -0.064557 0.088693
v -0.049031 -0.067751 -0.076240
v 0.052466 -0.067751 0.079175
v 0.054055 -0.067751 -0.082580
v -0.087122 0.008382 0.042692
v -0.083945 -0.064557 -0.085776
v 0.055643 0.067092 0.074407
v 0.079438 0.060730 -0.090544
v -0.045871 -0.067751 0.080765
v 0.087380 0.038529 -0.057204
v -0.082356 0.057562 0.091890
v -0.083945 0.063898 -0.088955
v -0.006208 -0.031242 -0.090544
v 0.087380 0.040113 0.071246
v -0.080768 0.065495 0.088693
v -0.087122 0.044864 -0.081008
v 0.041363 0.065495 -0.060383
v -0.085533 -0.045524 0.064907
v 0.082615 -0.024906 0.090301
v -0.085533 0.054394 0.085533
v 0.074689 -0.066154 -0.087348
v -0.076002 -0.066154 0.088693
v 0.085792 -0.029671 -0.084187
v 0.082615 0.065495 0.088693
v -0.085533 -0.062973 -0.088955
v 0.031849 0.067092 0.007798
v 0.085792 0.062327 0.088693
v -0.007797 0.067092 0.085533
v 0.079438 -0.066154 0.083943
v 0.087380 -0.042356 0.058550
v -0.087122 -0.059805 -0.084187
v -0.033179 0.065495 -0.054043
v 0.081026 -0.064557 -0.090544
v 0.085792 -0.061389 0.083943
v -0.076002 -0.066154 -0.081008
v 0.087380 -0.001108 -0.039757
v -0.068076 0.002033 0.091890
v -0.087122 -0.032839 0.007798
v -0.077591 0.065495 0.020495
v -0.083945 -0.059805 0.082354
v 0.079438 0.065495 0.004619
v -0.087122 0.033764 0.004619
v -0.033179 0.067092 0.061728
v -0.085533 0.063898 -0.015953
v 0.084203 -0.064557 -0.012792
v 0.061998 0.065495 -0.050865
v 0.085792 -0.040772 -0.068312
v -0.072842 -0.062973 0.091890
v -0.058562 0.065495 0.090301
v 0.063569 -0.066141 -0.088937
v -0.001442 0.067092 0.007798
v -0.085533 -0.029671 0.072836
v 0.084203 0.062314 -0.090544
v 0.017569 -0.062973 0.090301
f 29 58 64 
f 13 12 14 
f 12 13 19 
f 2 3 20 
f 10 5 21 
f 6 8 22 
f 22 18 23 
f 18 4 23 
f 6 22 23 
f 2 20 24 
f 20 7 24 
f 8 6 26 
f 6 15 26 
f 7 22 27 
f 11 9 29 
f 5 10 30 
f 11 5 32 
f 5 16 32 
f 12 19 32 
f 19 13 32 
f 4 7 33 
f 7 20 33 
f 9 7 34 
f 16 5 35 
f 6 23 35 
f 1 17 36 
f 3 2 37 
f 7 9 37 
f 9 11 37 
f 2 24 37 
f 24 7 37 
f 17 1 38 
f 34 17 38 
f 13 14 39 
f 14 31 39 
f 11 32 39 
f 32 13 39 
f 20 3 40 
f 15 6 41 
f 35 5 41 
f 6 35 41 
f 8 1 42 
f 22 8 42 
f 27 22 42 
f 23 4 43 
f 35 23 43 
f 3 37 44 
f 37 11 44 
f 40 3 44 
f 4 40 44 
f 14 12 45 
f 32 16 45 
f 12 32 45 
f 33 20 46 
f 20 40 46 
f 21 5 47 
f 9 21 47 
f 29 9 47 
f 28 15 48 
f 15 41 48 
f 41 28 48 
f 1 8 49 
f 8 25 49 
f 5 30 50 
f 41 5 50 
f 28 41 50 
f 34 7 51 
f 17 34 51 
f 26 15 52 
f 30 26 52 
f 15 30 52 
f 38 1 53 
f 25 38 53 
f 1 49 53 
f 49 25 53 
f 25 8 54 
f 10 25 54 
f 8 26 54 
f 30 10 54 
f 26 30 54 
f 11 39 55 
f 39 31 55 
f 43 4 55 
f 31 43 55 
f 4 44 55 
f 44 11 55 
f 7 27 56 
f 36 17 56 
f 27 36 56 
f 51 7 56 
f 17 51 56 
f 4 33 57 
f 40 4 57 
f 33 46 57 
f 46 40 57 
f 47 5 58 
f 29 47 58 
f 21 9 59 
f 10 21 59 
f 25 10 59 
f 9 34 59 
f 38 25 59 
f 34 38 59 
f 31 14 60 
f 16 35 60 
f 35 43 60 
f 43 31 60 
f 14 45 60 
f 45 16 60 
f 1 36 61 
f 36 27 61 
f 42 1 61 
f 27 42 61 
f 15 28 62 
f 30 15 62 
f 50 30 62 
f 28 50 62 
f 7 4 63 
f 4 18 63 
f 22 7 63 
f 18 22 63 
f 5 11 64 
f 11 29 64 
f 58 5 64 
