# https://github.com/mikedh/trimesh
v -0.41958791 -0.01596225 -0.08526128
v -0.41963789 -0.01987225 -0.08522128
v -0.41963789 -0.01596225 -0.08513127
v -0.42745790 -0.22299226 -0.06972128
v -0.42494604 -0.22085126 -0.07676203
v -0.53815365 0.12886351 0.02667710
v -0.42487675 -0.67496192 -0.08605523
v -0.39588720 -0.42255354 -0.05512545
v -0.43383801 -0.69622433 0.04270490
v -0.41963789 -0.58563226 0.07488872
v -0.38838789 -0.35580224 -0.34304130
v -0.30635789 -0.54969227 0.19207872
v -0.43667039 -0.23268852 -0.01444016
v -0.41573790 -0.44955224 -0.10499127
v -0.41973159 -0.02171121 -0.08503692
v -0.42894787 -0.48658308 0.00155055
v -0.43195790 -0.22299226 0.03582872
v -0.43118909 0.02217266 -0.05386970
v -0.41738302 -0.51214236 0.07882271
v -0.40670446 -0.36359879 -0.34094074
v -0.41573790 -0.44174224 -0.10479128
v -0.41577789 -0.44565225 -0.10479128
v -0.42863619 -0.43323180 -0.00345523
v -0.42807606 -0.36346138 -0.07179520
v -0.41283068 -0.43991181 -0.11172775
v -0.40010789 -0.13315225 0.11008872
v -0.41954789 -0.01205225 -0.08526128
v -0.40005791 -0.12143225 0.11003873
v -0.40010789 -0.12143225 0.10995872
v -0.40008789 -0.12534225 0.11003873
v -0.40961012 -0.13161018 0.09628241
v -0.40014791 -0.13315225 0.11003873
v -0.40017790 -0.13705225 0.11003873
v -0.42746896 -0.22366118 -0.06970111
v -0.40010789 -0.12864225 0.11003873
v -0.41963494 -0.02026130 -0.08524450
v -0.38394248 -0.05212894 0.13314684
v -0.41343790 -0.46909225 -0.06573127
v -0.41183791 -0.46518224 -0.06573127
v -0.41651908 -0.43253723 0.07940592
v -0.32191253 -0.59997523 0.17207786
v -0.42141891 -0.50719148 -0.09190562
v -0.40796497 -0.51957554 0.10256816
v -0.41961172 -0.57745540 0.07480842
v -0.41961789 -0.58237225 0.07488872
v -0.41208550 -0.56092936 0.09213440
v -0.42677963 -0.44887382 -0.02306335
v -0.41963789 -0.58237225 0.07482872
v -0.42745775 -0.44935441 -0.01490078
v -0.41963789 -0.57846224 0.07475872
v -0.43061283 -0.47765073 0.04723599
v -0.41197789 -0.45737225 -0.05792128
v -0.42296216 -0.58143771 0.06707508
v -0.41184056 -0.46121272 -0.06191248
v -0.41190791 -0.46127224 -0.06182128
v -0.41573790 -0.44113225 -0.10479128
v -0.42745790 -0.45737225 -0.01530128
v -0.41573790 -0.51319224 0.08269872
v -0.42746791 -0.45346224 -0.01495128
v -0.41477522 -0.48953098 -0.03637804
v -0.41573790 -0.44174224 -0.10480128
v -0.41571382 -0.50790691 0.08265858
v -0.41182789 -0.46516225 -0.06573127
v -0.42745790 -0.45346224 -0.01511128
v -0.42709690 -0.44865480 -0.01826893
v -0.42745790 -0.44955224 -0.01496128
v -0.41573790 -0.44565225 -0.10490128
v -0.41573790 -0.50815225 0.08260872
v -0.41573790 -0.51205224 0.08267873
v -0.41633338 -0.44091767 -0.10330668
v -0.38599375 -0.44758618 0.11922827
v -0.42745790 -0.44955224 -0.01495128
v -0.32979789 -0.40659225 -0.36262125
v -0.32588789 -0.40268224 -0.36263129
v -0.33370790 -0.40659225 -0.36192128
v -0.42809135 -0.16845809 0.02222790
v -0.38854343 -0.35649237 -0.34313571
v -0.38822791 -0.35580224 -0.34307128
v -0.42745790 -0.21848226 -0.06963128
v -0.43134600 -0.21723586 -0.05826103
v -0.47256055 -0.43271843 -0.37584534
v -0.36099783 -0.39437109 0.14516000
v -0.43135789 -0.23080225 0.03972872
v -0.36935237 -0.39269221 0.13937549
v -0.37212715 -0.45105988 0.13681948
v -0.42471221 -0.26273042 0.06205672
v -0.40401790 -0.29218224 0.10613872
v -0.40408790 -0.30112225 0.10613872
v -0.40401790 -0.29721224 0.10618872
v -0.40405789 -0.29721224 0.10613872
v -0.43135789 -0.22299226 0.03963872
v -0.43134791 -0.22690225 0.03972872
v -0.43134791 -0.22299226 0.03972872
v -0.34931791 -0.43002224 0.15300873
v -0.34932789 -0.42612225 0.15297872
v -0.34926790 -0.42612225 0.15300873
v -0.34932789 -0.43002224 0.15300873
v -0.42745790 -0.21909225 -0.06963128
v -0.39360815 -0.33359030 0.12179214
v -0.42745790 -0.21909225 -0.06964128
v -0.43135789 -0.22690225 0.03967872
v -0.43135789 -0.21909225 0.03958872
v -0.36988300 -0.16663624 0.14100076
v -0.40010789 -0.11752225 0.10991872
v -0.40559709 -0.12917890 0.10204100
v -0.40011790 -0.12924226 0.11003873
v -0.40686995 0.01838186 -0.11383803
v -0.36845094 -0.45948121 -0.36575133
v -0.41175804 -0.46509522 -0.06584433
v -0.38431260 -0.35191011 -0.34307969
v -0.41572791 -0.51205224 0.08269872
v -0.36495790 -0.53811222 0.15300873
v -0.35713789 -0.43393224 -0.36257130
v -0.35323790 -0.43002224 -0.36258128
v -0.37814650 -0.46294263 -0.12886587
v -0.36103791 -0.40268224 0.14519872
v -0.35323790 -0.43016225 -0.36260128
v -0.36495790 -0.52768224 0.15292872
v -0.36487791 -0.53159225 0.15300873
v -0.36482790 -0.52768224 0.15300873
v -0.36495799 -0.53159171 0.15295886
v -0.32979789 -0.39487225 -0.36053130
v -0.32216790 -0.39877224 -0.36260128
v -0.38448790 -0.35202226 -0.34307128
v -0.38448790 -0.35190225 -0.34305128
v -0.40220270 -0.28460786 0.10871265
v -0.35323790 -0.42612225 0.15043873
v -0.35309789 -0.43002224 -0.36260128
v -0.36104789 -0.40371224 0.14519872
v -0.36104789 -0.40268224 0.14518872
v -0.36748025 -0.41141799 0.14101560
v -0.37667790 -0.34799224 -0.34376127
v -0.38054490 -0.34805188 -0.34307238
v -0.38057789 -0.34799224 -0.34306130
v -0.38057789 -0.34808224 -0.34307128
v -0.34928063 -0.42195788 0.15297522
v -0.37365681 -0.32661918 0.13548681
v -0.41026112 -0.29903898 0.09698679
v -0.37276790 -0.34018224 -0.34307128
v -0.37276790 -0.34409225 -0.34377128
v -0.37275791 -0.34018224 -0.34307128
v -0.37667790 -0.34413224 -0.34307128
v -0.40402791 -0.29330224 0.10613872
v -0.34155986 -0.41828924 -0.36259905
v -0.40401790 -0.29330224 0.10614873
v -0.35713789 -0.38705224 0.15691872
v -0.35323790 -0.38315225 0.15941873
v -0.35713789 -0.38697225 0.15691872
v -0.36890790 -0.36362225 0.14910872
v -0.36885789 -0.36362225 0.14913872
v -0.36885789 -0.35980225 0.14910872
v -0.37984127 -0.21429321 0.13996653
v -0.35713789 -0.38315225 0.15688872
v -0.36316791 -0.38705224 0.15300873
v -0.36475551 -0.33213222 -0.34307718
v -0.36889791 -0.33627224 -0.34307128
v -0.36888313 -0.33627895 -0.34307545
v -0.36894789 -0.36752224 0.14910872
v -0.40521488 -0.35118020 -0.33844653
v -0.35713789 -0.37924224 0.15685873
v -0.35709789 -0.38315225 0.15691872
v -0.35708460 -0.37896982 0.15689208
v -0.36116216 -0.37136820 0.15418474
v -0.35713789 -0.36362225 0.15673873
v -0.32197791 -0.12924226 0.18425873
v -0.43011048 -0.19513112 0.04779683
v -0.36899790 -0.37143224 0.14910872
v -0.40010789 -0.12924226 0.11004872
v -0.40010789 -0.12534225 0.11000872
v -0.39750907 -0.12792701 0.11384841
v -0.37607414 -0.10784742 0.14180703
v -0.32597619 0.48754796 -0.16690697
v -0.32198790 -0.66830224 0.17257872
v -0.38931313 0.15062305 0.12007695
v -0.35714790 -0.05112225 0.15691872
v -0.35713789 -0.05234225 0.15691872
v -0.30641791 -0.07065225 0.18425873
v -0.30643791 -0.06674225 0.18425873
v -0.27759945 0.09829757 -0.28194606
v -0.34932789 -0.41830224 -0.36119130
v -0.34542790 -0.42221224 -0.36259127
v -0.30279419 -0.56028879 0.19370298
v -0.34581375 -0.63558948 0.15686385
v -0.32198790 -0.63705224 0.17233872
v -0.32198790 -0.66353226 0.17253873
v -0.37502515 -0.67506623 0.13580157
v -0.36499512 -0.54873669 0.15306540
v -0.35713789 -0.52768224 0.15799873
v -0.36495790 -0.53940225 0.15301873
v -0.36495790 -0.54330224 0.15304872
v -0.34932789 -0.43393224 -0.36398125
v -0.34924123 -0.42613307 -0.36260107
v -0.33370790 -0.62534225 0.16464873
v -0.36505792 -0.54721224 0.15300873
v -0.36501789 -0.54330224 0.15300873
v -0.35312638 -0.52833712 0.16061130
v -0.37156776 -0.54152340 0.14862539
v -0.36496791 -0.53940225 0.15300873
v -0.34045747 -0.54334533 -0.21317095
v -0.34932789 -0.43088225 0.15300873
v -0.36495790 -0.52377224 0.15289873
v -0.36479798 -0.52028680 0.15297394
v -0.36104789 -0.39487225 0.14512873
v -0.36098790 -0.39877224 0.14519872
v -0.38766640 -0.41376811 0.13480574
v -0.34932789 -0.42621225 -0.36260128
v -0.34932789 -0.42612225 -0.36259127
v -0.33760789 -0.41830224 -0.36330125
v -0.33370790 -0.41049224 -0.36261129
v -0.34542790 -0.42227224 -0.36260128
v -0.34931472 -0.41028169 0.15286548
v -0.38516137 -0.38683435 -0.34915444
v -0.36873832 -0.33609155 -0.34305006
v -0.33644503 -0.42291370 0.16134135
v -0.37362844 -0.38014013 0.14608566
v -0.34512597 -0.42201895 -0.36260960
v -0.35713789 -0.05893225 0.15686873
v -0.35713789 -0.05502225 0.15689872
v -0.34151790 -0.41832224 -0.36260128
v -0.37664977 -0.34408766 -0.34306619
v -0.34932789 -0.42221224 0.15294872
v -0.33376789 -0.41049224 -0.36260128
v -0.33370790 -0.41043225 -0.36260128
v -0.32603791 -0.40268224 -0.36260128
v -0.36884353 -0.37443417 0.14923130
v -0.36885789 -0.36752224 0.14916873
v -0.31064022 -0.34463146 -0.35499910
v -0.35950291 -0.19848630 -0.31878102
v -0.32979789 -0.40648225 -0.36260128
v -0.32989791 -0.40659225 -0.36260128
v -0.29854789 -0.28549224 0.18818873
v -0.29857790 -0.28940225 0.18816872
v -0.29857031 -0.28510955 0.18817839
v -0.36104789 -0.39877224 0.14515872
v -0.31802791 -0.41049224 0.17644872
v -0.31815055 -0.41159797 0.17635486
v -0.31260288 -0.37203321 0.18953511
v -0.31807789 -0.39096224 0.17653872
v -0.34805110 -0.33107990 0.16247781
v -0.32072449 -0.35597631 0.17457592
v -0.25116202 -0.31415689 -0.36025792
v -0.32198790 -0.14096224 0.18422872
v -0.31622145 -0.63297486 0.00291633
v -0.26729789 -0.10190225 -0.31962129
v -0.26729789 -0.10197225 -0.31963128
v -0.26722789 -0.10190225 -0.31963128
v -0.39232165 -0.17619282 -0.15487614
v -0.35711789 -0.05502225 0.15691872
v -0.32198790 -0.15268224 0.18419872
v -0.32198790 -0.14877225 0.18420872
v -0.35718790 -0.04721225 0.15691872
v -0.35713789 -0.04721225 0.15694873
v -0.35713789 -0.04330225 0.15697873
v -0.27495790 -0.10971225 -0.31963128
v -0.27120790 -0.10592225 -0.31963128
v -0.37080249 -0.05800376 0.14566821
v -0.35705790 -0.06284225 0.15691872
v -0.35713789 -0.05112225 0.15692872
v -0.35708791 -0.05893225 0.15691872
v -0.30991039 -0.07000540 0.19256479
v -0.35718641 -0.04207110 0.15695120
v -0.37681431 -0.01039036 0.14124608
v -0.29402411 -0.00354192 -0.25009713
v -0.29515001 -0.05043300 0.19071177
v -0.34153789 0.88636774 -0.11260127
v -0.34151033 0.88637710 -0.11251812
v -0.34542790 0.88246775 -0.11274128
v -0.34542790 0.88260776 -0.11260127
v -0.34549636 0.88198012 -0.11287691
v -0.31722018 -0.65511638 0.17557764
v -0.32208791 -0.67221224 0.17253873
v -0.32203791 -0.66830224 0.17253873
v -0.32198790 -0.66440225 0.17254873
v -0.32199791 -0.66440225 0.17253873
v -0.30766740 -0.62617469 0.18264049
v -0.33379793 -0.66008723 0.16485503
v -0.33394790 -0.65659225 0.16472873
v -0.31087363 -0.69950205 0.18010798
v -0.33370790 -0.64877224 0.16482872
v -0.32595411 -0.66277760 0.16997129
v -0.33378184 -0.66981161 0.16494159
v -0.33366790 -0.63315225 0.16472873
v -0.33370790 -0.63636225 0.16472873
v -0.33370790 -0.63315225 0.16470872
v -0.33361790 -0.62924224 0.16472873
v -0.33370790 -0.62924224 0.16467872
v -0.33389789 -0.65268224 0.16472873
v -0.33370790 -0.65268224 0.16485873
v -0.31759340 -0.71835446 0.18454814
v -0.33384791 -0.64877224 0.16472873
v -0.33370790 -0.64487225 0.16479872
v -0.33380792 -0.64487225 0.16472873
v -0.33370790 -0.64096224 0.16476873
v -0.33370790 -0.63705224 0.16473873
v -0.33370790 -0.63705224 0.16472873
v -0.33375791 -0.64096224 0.16472873
v -0.30635789 -0.55112225 0.19206873
v -0.26725611 -0.56100357 -0.26877207
v -0.26729789 -0.56704223 -0.26885128
v -0.25557789 -0.56674224 -0.27559128
v -0.31807789 -0.40488225 0.17644872
v -0.31807789 -0.40268224 0.17645873
v -0.30633789 -0.55502224 0.19207872
v -0.30631790 -0.55893224 0.19207872
v -0.27378416 -0.40511453 0.20044026
v -0.30810070 -0.54780787 0.19109255
v -0.33763799 -0.41440243 -0.36260128
v -0.33760789 -0.41440225 -0.36261129
v -0.32203653 -0.39874670 -0.36262482
v -0.32588789 -0.40253225 -0.36260128
v -0.31807789 -0.39877224 0.17648873
v -0.31812790 -0.39877224 0.17644872
v -0.31807789 -0.39487225 0.17651872
v -0.30635789 -0.55112225 0.19207872
v -0.31815791 -0.39487225 0.17644872
v -0.27441654 -0.46748561 -0.38398311
v -0.31806791 -0.40659225 0.17644872
v -0.31807789 -0.40659225 0.17643872
v -0.28293279 -0.35202491 0.19597907
v -0.31809789 -0.40268224 0.17644872
v -0.27896786 -0.28926155 -0.35087326
v -0.27901790 -0.28940225 -0.35089129
v -0.27519789 -0.28549224 -0.35088128
v -0.27510789 -0.28549224 -0.35090125
v -0.32198790 -0.12646225 0.18425873
v -0.32198790 -0.12924226 0.18425873
v -0.28292790 -0.29330224 -0.35089129
v -0.28292790 -0.29721224 -0.35158128
v -0.29855791 -0.29330224 0.18816872
v -0.31967387 -0.05386556 -0.30147535
v -0.29854789 -0.29538226 0.18816872
v -0.29854789 -0.29330224 0.18816872
v -0.28292790 -0.34799224 0.19606872
v -0.32190791 -0.14487225 0.18425873
v -0.32191789 -0.14096224 0.18425873
v -0.32198790 -0.14487225 0.18421872
v -0.29144603 -0.28678578 -0.43732479
v -0.29854789 -0.28940225 0.18817872
v -0.33215171 -0.14273232 -0.20357481
v -0.33635315 -0.26088250 -0.33539787
v -0.28516781 -0.33423299 0.19557098
v -0.24906723 -0.21834804 -0.34368971
v -0.33358130 -0.11356123 -0.21646252
v -0.32607046 -0.14376566 0.18170936
v -0.32198790 -0.13315225 0.18424873
v -0.31500790 -0.14877225 0.18816872
v -0.29750386 -0.08377061 0.18928941
v -0.31818789 -0.12534225 -0.22979127
v -0.32188791 -0.14877225 0.18425873
v -0.31417790 -0.14487225 0.18865873
v -0.32198790 -0.13705225 0.18423873
v -0.31807789 -0.12534225 -0.22989127
v -0.31810790 -0.12143225 -0.22979127
v -0.31807789 -0.12924226 -0.22996128
v -0.32481819 -0.17304727 0.18253171
v -0.32193789 -0.13705225 0.18425873
v -0.32195789 -0.13315225 0.18425873
v -0.32286453 -0.10998633 0.18431588
v -0.31962493 -0.09554490 0.17675646
v -0.29466790 -0.09799225 -0.24932127
v -0.29463789 -0.09686225 -0.24932127
v -0.29463789 -0.09799225 -0.24934126
v -0.31808907 -0.12106742 -0.22979751
v -0.29463789 -0.10190225 -0.24941127
v -0.28980982 -0.12233762 -0.25388715
v -0.31955069 -0.08283397 -0.22783563
v -0.30636790 -0.08237225 0.18425873
v -0.30635789 -0.08377225 0.18425873
v -0.35047990 -0.05445186 0.16236040
v -0.30635789 -0.08237225 0.18426873
v -0.30635789 -0.07846225 0.18427873
v -0.29462790 -0.09409225 0.19988872
v -0.29463789 -0.09409225 0.19987872
v -0.29460791 -0.09799225 0.19988872
v -0.29287615 -0.01987872 0.18606658
v -0.30638790 -0.07846225 0.18425873
v -0.30635789 -0.07455225 0.18428873
v -0.29463789 -0.09138225 0.19988872
v -0.30586925 -0.01804292 -0.29790983
v -0.30649462 -0.06101843 0.18424025
v -0.27517635 -0.00010989 -0.30007800
v -0.35115811 0.87651938 -0.09986204
v -0.34152079 0.88637584 -0.11262322
v -0.30155852 -0.53344434 0.19467469
v -0.31924751 -0.42316037 0.18496020
v -0.30614606 -0.59161973 0.19204675
v -0.26733100 -0.56708759 -0.26883486
v -0.30640790 -0.53940225 0.19207872
v -0.30638790 -0.54330224 0.19207872
v -0.28265801 -0.58181369 -0.26027647
v -0.30635789 -0.53940225 0.19209872
v -0.30635789 -0.53549224 0.19210872
v -0.30635789 -0.55502224 0.19205873
v -0.30636790 -0.54721224 0.19207872
v -0.26691678 -0.55787820 -0.26890546
v -0.30635789 -0.54721224 0.19207872
v -0.30635789 -0.54330224 0.19208872
v -0.31422487 -0.40428987 0.17898449
v -0.28012159 -0.25074449 0.19850545
v -0.28292790 -0.11752225 -0.31959128
v -0.28548321 -0.12020268 -0.31960672
v -0.28268790 -0.11752225 -0.31963128
v -0.28292796 -0.29329246 -0.35088074
v -0.28299546 -0.34773025 0.19605847
v -0.28292790 -0.35190225 0.19598873
v -0.27478412 -0.18224230 0.20013760
v -0.27109352 -0.28140861 -0.35089716
v -0.27510789 -0.28159225 -0.35020128
v -0.27510789 -0.28540224 -0.35088128
v -0.27133790 -0.28159225 -0.35088128
v -0.28384849 -0.31260926 0.19651981
v -0.27510789 -0.00034225 -0.30013129
v -0.31857622 -0.30700731 0.17663671
v -0.29483679 -0.10405247 -0.24928778
v -0.29459789 -0.10190225 0.19988872
v -0.29457790 -0.10580225 0.19988872
v -0.29494211 -0.14405611 0.19956270
v -0.27865776 -0.17794798 -0.26501569
v -0.27901790 -0.11362225 -0.31960127
v -0.29463789 -0.09799225 0.19986872
v -0.29881045 -0.09661359 -0.24576887
v -0.29463789 -0.10190225 0.19985873
v -0.29923567 -0.10944251 0.19706006
v -0.26729789 -0.11362225 -0.32171130
v -0.27108791 -0.10580225 -0.31963128
v -0.30639791 -0.07455225 0.18425873
v -0.30635789 -0.07065225 0.18429872
v -0.30639359 -0.05601901 0.18430731
v -0.27880150 -0.11361794 -0.31963313
v -0.26068220 -0.13861735 -0.32734895
v -0.30635789 -0.06284225 0.18431872
v -0.30635789 -0.06674225 0.18430872
v -0.27537361 -0.08909714 0.21088569
v -0.30635789 -0.05893225 0.18432872
v -0.25948796 -0.09408467 -0.31963125
v -0.29033533 -0.08699677 -0.25277969
v -0.28292790 -0.00815225 -0.30012125
v -0.27901790 -0.05112225 0.19987872
v -0.27901790 -0.04869225 0.19988872
v -0.27900791 -0.05112225 0.19988872
v -0.27901790 -0.00424225 -0.30013129
v -0.29317477 0.04273505 -0.28911239
v -0.25172871 -0.02243704 -0.30827931
v -0.24776790 0.08949775 -0.28906128
v -0.25280476 0.08824309 -0.28837487
v -0.27901790 -0.11381225 -0.31963128
v -0.26729789 -0.56674224 -0.26885128
v -0.26716790 -0.56284225 -0.26885128
v -0.26728791 -0.56674224 -0.26885128
v -0.24003242 -0.56948459 -0.28459859
v -0.24385791 0.09730775 -0.28837129
v -0.27901790 -0.35580224 0.19703873
v -0.26005429 -0.37382534 -0.47261527
v -0.24368642 -0.37723520 -0.47857445
v -0.24385791 -0.28549224 -0.45255128
v -0.25139791 -0.37534225 -0.47588128
v -0.25167790 -0.37534225 -0.47579125
v -0.28681803 -0.36137697 0.19461161
v -0.25717878 -0.36330706 0.20328429
v -0.27906790 -0.28940225 -0.35088128
v -0.25183249 -0.37588739 -0.47590315
v -0.27120790 -0.10580225 -0.31961128
v -0.21323314 -0.26446360 -0.44638255
v -0.23964228 -0.35465914 -0.47172084
v -0.24776790 -0.28960225 -0.45245129
v -0.24323975 -0.28230807 -0.45183757
v -0.27510789 -0.10987225 -0.31963128
v -0.27510789 -0.10971225 -0.31961128
v -0.26328856 -0.09790012 -0.31963131
v -0.27510789 -0.11362225 -0.32030129
v -0.27722535 -0.18109010 0.20958677
v -0.27901790 -0.07846225 0.19980873
v -0.27901790 -0.07455225 0.19981873
v -0.27901790 -0.05502225 0.19986872
v -0.26338789 -0.09803225 -0.31963128
v -0.25557789 -0.09018225 -0.31964129
v -0.25167790 -0.08627225 -0.31965125
v -0.25175789 -0.08627225 -0.31963128
v -0.25557789 -0.09013225 -0.31963128
v -0.26338789 -0.10190225 -0.32032129
v -0.25948790 -0.09799225 -0.32033128
v -0.27895790 -0.06284225 0.19988872
v -0.26338789 -0.08627225 -0.31754130
v -0.25167790 -0.08237225 -0.31895128
v -0.25948790 -0.09409225 -0.31963128
v -0.27900806 -0.08438264 0.19979928
v -0.25562790 -0.09018225 -0.31963128
v -0.27901790 -0.07065225 0.19982873
v -0.27901790 -0.06674225 0.19983873
v -0.27141789 0.00355775 -0.30010128
v -0.27888790 -0.07846225 0.19988872
v -0.27889791 -0.07455225 0.19988872
v -0.27891791 -0.07065225 0.19988872
v -0.25167790 -0.08619225 -0.31963128
v -0.24788789 -0.08237225 -0.31963128
v -0.27886790 -0.08237225 0.19988872
v -0.27896789 -0.05893225 0.19988872
v -0.27898791 -0.05502225 0.19988872
v -0.27893791 -0.06674225 0.19988872
v -0.27901790 -0.05893225 0.19985873
v -0.27901790 -0.06284225 0.19984873
v -0.26658934 -0.06919383 0.20684624
v -0.27528790 -0.00034225 -0.30010128
v -0.19155158 0.03981863 -0.29972035
v -0.25167790 0.08949775 -0.28836128
v -0.27913895 -0.00422396 -0.30010137
v -0.23995791 0.10117775 -0.28838128
v -0.24377792 0.09730775 -0.28838128
v -0.23995791 0.09730775 -0.28907129
v -0.24385791 0.09722775 -0.28838128
v -0.24776790 0.09340775 -0.28836128
v -0.21731168 0.26996765 0.24340680
v -0.32261804 0.88561398 -0.16464385
v -0.24776790 -0.37143224 -0.47595128
v -0.23996234 -0.29358393 -0.45613909
v -0.24792348 -0.28967229 -0.45241937
v -0.24776790 -0.37119225 -0.47588128
v -0.24385791 -0.36779225 -0.47588128
v -0.24776790 -0.36752224 -0.47483128
v -0.24758790 -0.28940225 -0.45245129
v -0.24415790 -0.28549224 -0.45245129
v -0.22135270 -0.30193296 0.21468274
v -0.22901189 -0.14871667 -0.32919154
v -0.24765991 -0.08217955 -0.31964234
v -0.24776790 0.09328775 -0.28838128
v -0.24764790 0.09340775 -0.28838128
v -0.23827022 0.10392586 -0.28822035
v -0.18526790 0.28480774 0.24672872
v -0.18901277 0.28107011 0.24680220
v -0.18694973 0.27699369 0.24909705
v -0.18929671 0.28092691 0.24675731
v -0.18917792 0.28102776 0.24675873
v -0.18135791 0.28871775 0.24663873
v -0.18522431 0.28475675 0.24675877
v -0.19014618 0.35045907 0.22078933
v -0.17746790 0.80043775 0.09832872
v -0.17745791 0.80043775 0.09834872
v -0.17354789 0.80433774 0.09850872
v -0.18138021 0.79646319 0.09833448
v -0.04463791 -0.31284225 0.06707872
v -0.14581676 0.27629066 0.26255620
v -0.18517791 0.79261774 0.09832872
v -0.18825512 0.79557961 0.06534629
v -0.18146548 0.79642397 0.09818432
v -0.17725918 0.80065441 0.09831543
v -0.18131790 0.79652774 0.09832872
v -0.23624583 -0.46265665 -0.49960533
v -0.06736863 -0.31772551 -0.00577089
v -0.04469791 -0.30502224 0.07488872
v -0.21825284 -0.00147856 0.23163594
v -0.05660888 -0.26096380 0.09580143
v -0.05902252 0.83808947 -0.01710954
v -0.03851245 -0.15419339 -0.16259676
v -0.04466791 -0.30893224 0.07097872
v -0.04634791 -0.30893224 0.06707872
v -0.04463791 -0.30898225 0.07097872
v -0.04463791 -0.31282225 0.06707872
v 0.11434840 -0.65036273 -0.07196949
v -0.04463791 -0.31284225 0.06705872
v -0.03965980 -0.16905253 0.11555395
v -0.13578865 0.74128592 0.15504657
v -0.02901791 0.42927775 0.17644872
v -0.02925935 0.42924231 0.17647824
v -0.12191770 -0.70350975 -0.32861686
v -0.04457791 -0.32065225 0.05925872
v -0.04297791 -0.30893224 0.07488872
v -0.04460791 -0.31674224 0.06316872
v -0.04501107 -0.31657097 0.06245893
v -0.00156791 -0.19174226 0.15300873
v -0.04463791 -0.30893224 0.07102872
v -0.00167791 -0.18002225 0.15299873
v -0.00164791 -0.18393224 0.15300873
v -0.00165791 -0.18002225 0.15300873
v -0.00167791 -0.18393224 0.15298873
v -0.04463791 -0.30514225 0.07488872
v -0.05415990 -0.30243900 0.05444851
v -0.01729283 -0.16427705 -0.17910023
v -0.01349791 -0.16440225 -0.18292128
v -0.07074281 -0.19856560 0.08994104
v -0.02255924 -0.16465509 -0.17354950
v -0.02120791 -0.16428225 -0.17510128
v -0.04265326 -0.30366439 0.08071318
v -0.18592216 0.41226548 0.18933825
v -0.04463791 -0.30502224 0.07500873
v -0.00038418 -0.15501004 -0.19726062
v -0.04463791 -0.31666225 0.06316872
v -0.04463791 -0.30130225 0.07878873
v 0.21661656 -0.36385861 0.16708317
v -0.01558530 -0.17707312 -0.17466488
v -0.01729791 -0.16444226 -0.17901127
v -0.01731791 -0.16440225 -0.17901127
v -0.00146144 0.41687065 0.18247414
v -0.02901791 0.42933774 0.17641872
v 0.00561569 -0.18825512 0.15919428
v -0.02113791 -0.16440225 -0.17510128
v 0.06778025 -0.09425455 0.23651254
v -0.00204270 -0.19202667 0.15260296
v -0.00167791 -0.18784225 0.15297872
v -0.00163791 -0.18784225 0.15300873
v -0.00013799 -0.17540492 0.15437753
v -0.00167791 -0.17612225 0.15299873
v -0.02120791 0.42933774 0.17636873
v -0.02904331 0.43616363 0.17255735
v -0.02510791 0.42933774 0.17638873
v -0.02510791 0.42923775 0.17644872
v 0.00333343 -0.37741980 0.07369978
v 0.01167036 -0.17863391 0.16651818
v 0.02806290 -0.26330784 0.16786078
v -0.02575552 -0.49979222 0.26607218
v 0.14674874 -0.41787559 -0.25323331
v 0.14682385 -0.59113085 0.20778061
v 0.13514420 -0.41734639 -0.26030141
v 0.12401694 -0.41475499 -0.26698181
v 0.14601146 -0.40867987 -0.25334918
v 0.06702369 -0.51100284 0.22625872
v 0.15050043 -0.23881225 0.21162884
v 0.19753210 -0.54662228 0.17644872
v 0.15041842 -0.42351046 -0.25111133
v 0.14696211 -0.59409225 0.20769872
v 0.14676905 -0.59789443 0.20770279
v 0.14677209 -0.59799224 0.20769872
v 0.16677235 -0.28702998 0.20312455
v 0.15846209 -0.28940225 0.20769872
v 0.15847211 -0.28940225 0.20769872
v 0.15841208 -0.28549224 0.20769872
v 0.15847211 -0.28549224 0.20766872
v 0.19184722 -0.17428911 0.18838975
v 0.14007436 -0.11371630 0.21637754
v 0.16238210 -0.20737225 0.19599873
v 0.15579160 -0.20135725 0.19957064
v 0.15458646 -0.28600678 0.20976098
v 0.03234076 -0.05065154 -0.29332009
v 0.16245750 -0.07466860 0.20383441
v 0.16234745 -0.09631373 0.20406604
v 0.13854396 -0.08818583 0.20804474
v 0.15546209 -0.07846225 0.20769872
v 0.14675210 -0.59840226 0.20769872
v 0.15137953 -0.60068196 0.20632209
v 0.19753210 -0.54330224 0.17642872
v 0.18415336 -0.65209579 0.18770941
v 0.14285946 -0.60197687 0.20878609
v 0.14675210 -0.41788226 -0.25323126
v 0.16039124 -0.71621293 -0.26472995
v 0.14647242 -0.41219658 -0.25320113
v 0.14680392 -0.41873959 -0.25323254
v 0.17410208 -0.56284225 0.19207872
v 0.17598000 -0.56255049 0.19126596
v 0.18138734 -0.55088913 0.18888530
v 0.16234778 -0.37642202 0.20620634
v 0.17412210 -0.56284225 0.19207872
v 0.17410208 -0.56349224 0.19207872
v 0.17413110 -0.55779094 0.19213824
v 0.15847211 -0.28987226 0.20769872
v 0.17019209 -0.25307226 0.19207872
v 0.17019209 -0.25815225 0.19210872
v 0.15847211 -0.28159225 0.20763873
v 0.16242211 -0.20737225 0.19597873
v 0.18568930 -0.20123538 0.18315254
v 0.16236208 -0.06284225 0.20378873
v 0.16238210 -0.06406225 0.20378873
v 0.17026274 -0.25950772 0.19209023
v 0.17608762 -0.16364656 0.18934017
v 0.17021210 -0.25424224 0.19207872
v 0.20134211 -0.13705225 0.18035872
v 0.16433004 -0.05991512 0.20269661
v -0.05239504 0.15073489 0.32465184
v 0.16238210 -0.07455225 0.20387873
v 0.16238210 -0.07065225 0.20384872
v 0.15704532 -0.02810001 0.20645706
v 0.16238210 -0.06284225 0.20377873
v 0.16238210 -0.05893225 0.20374872
v 0.15002178 -0.06814701 0.21060915
v 0.16231692 -0.05764416 0.20377265
v 0.20141210 -0.14487225 0.18035872
v 0.20138209 -0.14096224 0.18035872
v 0.11072360 0.37035090 -0.29378995
v 0.19752192 -0.53924268 0.17640387
v 0.17019209 -0.56674224 0.19316873
v 0.17742360 -0.59311378 0.19064626
v 0.17424209 -0.55893224 0.19207872
v 0.19629534 -0.58175087 0.17786992
v 0.19763067 -0.55287504 0.17645684
v 0.19754209 -0.54721224 0.17644872
v 0.20120168 -0.54350305 0.17390250
v 0.19753210 -0.55112225 0.17649873
v 0.19377866 -0.55234402 0.17961562
v 0.18971759 -0.53832811 0.18288366
v 0.20675862 -0.43471086 0.16812967
v 0.19747210 -0.53940225 0.17644872
v 0.20144209 -0.14096224 0.18029873
v 0.16243367 -0.21175136 0.19600371
v 0.17019209 -0.25424224 0.19207872
v 0.19578253 -0.30758896 0.18600480
v 0.18748206 -0.24738055 0.18246987
v 0.14930134 -0.25391361 0.20355369
v 0.16238210 -0.21127225 0.19602872
v 0.16238210 -0.20462225 0.19597873
v 0.20144209 -0.14877225 0.18035872
v 0.20144209 -0.14793225 0.18035872
v 0.19360265 -0.13943328 0.18680847
v 0.16238210 -0.06674225 0.20380872
v 0.19219831 -0.11503221 0.18775597
v 0.16247208 -0.07065225 0.20378873
v 0.20144209 -0.15659225 0.18041873
v 0.20144209 -0.15268224 0.18038872
v 0.16242211 -0.06674225 0.20378873
v 0.20131209 -0.13315225 0.18035872
v 0.20137250 -0.13142619 0.18028761
v 0.20148210 -0.15268224 0.18035872
v 0.20145211 -0.14877225 0.18035872
v 0.21404468 -0.70951635 0.17561637
v 0.19750211 -0.54330224 0.17644872
v 0.19753210 -0.54721224 0.17644872
v 0.26800209 -0.24643224 -0.14385128
v 0.27091256 -0.24395590 -0.13995063
v 0.16517158 -0.30093315 -0.23722294
v 0.26003283 -0.26605707 0.11786248
v 0.20638058 -0.15002970 0.17626116
v 0.24959213 -0.12070198 0.13097988
v 0.20144209 -0.13705225 0.18026872
v 0.17830703 0.08823133 -0.22654118
v 0.25993210 -0.26205224 0.11785872
v 0.22852224 -0.14910324 0.15824516
v 0.20144209 -0.14487225 0.18032873
v 0.25916976 -0.32067484 0.12083714
v 0.25084570 -0.28101364 0.13031851
v 0.26003209 -0.26596224 0.11784872
v 0.26003209 -0.26205224 0.11771872
v 0.25706860 -0.28254390 -0.15954268
v 0.26786116 -0.24210183 -0.14388059
v 0.25988635 -0.25871480 0.11780382
v 0.26009738 -0.26633441 0.11778108
v 0.25772092 -0.23069611 -0.15673058
v 0.26793817 -0.24649873 -0.14393871
v 0.29095110 0.01258215 0.11790747
v 0.21350352 -0.10417376 0.17220791
v 0.27198404 -0.24432662 -0.13844922
v 0.29107091 -0.28895870 0.07346957
v 0.28360695 -0.65146923 0.13507934
v 0.25132972 -0.28056455 0.12967531
v 0.30680194 -0.20683610 0.00837597
v 0.26789209 -0.24252225 -0.14385128
v 0.30668035 -0.28145835 0.03831233
v 0.30691028 -0.21706124 0.00321595
v 0.30690211 -0.21909225 0.00067872
v 0.30691209 -0.21942225 0.00067872
v 0.28285667 -0.19171558 0.07150579
v 0.30691090 -0.22316501 -0.00340107
v 0.27836597 -0.17189810 0.08162617
v 0.27949211 -0.16830225 0.07878873
v 0.27956209 -0.17221224 0.07878873
v 0.28276211 -0.16830225 0.07097872
v 0.27953669 -0.16704161 0.07864941
v 0.27957210 -0.17221224 0.07877872
v 0.27957210 -0.17262225 0.07878873
v 0.30673209 -0.26205456 -0.05772832
v 0.29548445 -0.13182992 -0.07675501
v 0.28352278 -0.63502216 -0.13010041
v 0.30691209 -0.22299226 -0.00323128
v 0.34280512 -0.43683204 -0.33170846
v 0.26842564 0.42813861 0.00889509
v 0.49832210 0.20668775 0.40699875
v 0.49479210 0.20277774 0.40300870
v 0.51394105 0.21146852 0.40719128
v 0.50613207 0.21449775 0.41465870
v 0.50223207 0.21058775 0.41082871
v 0.50222206 0.20778775 0.40691873
v 0.49851212 0.20668775 0.40691873
v 0.44672877 0.11344452 0.49878439
v 0.50222737 0.21058773 0.41082865
v 0.52093482 0.19209379 0.38184828
f 1 2 3
f 9 46 10
f 25 42 14
f 159 172 81
f 70 21 22
f 107 1 27
f 28 29 30
f 32 105 33
f 30 35 170
f 27 1 3
f 27 3 18
f 172 174 6
f 109 38 39
f 53 9 10
f 46 44 45
f 53 44 51
f 10 46 45
f 9 76 186
f 45 48 10
f 38 60 39
f 50 45 44
f 48 45 50
f 48 53 10
f 44 46 51
f 9 186 46
f 25 56 70
f 53 48 50
f 7 9 13
f 109 54 8
f 46 58 19
f 53 50 44
f 9 16 76
f 51 9 53
f 56 25 61
f 63 39 55
f 64 65 66
f 9 7 16
f 52 60 8
f 51 13 9
f 42 24 70
f 42 25 199
f 19 51 46
f 14 22 67
f 19 40 51
f 58 69 19
f 69 68 19
f 7 24 42
f 42 199 7
f 61 21 56
f 21 70 56
f 7 47 16
f 39 60 55
f 40 62 43
f 22 21 67
f 25 14 67
f 22 14 70
f 16 59 23
f 49 65 23
f 16 47 57
f 115 38 109
f 38 115 60
f 66 65 49
f 14 42 70
f 24 7 13
f 57 47 64
f 57 64 59
f 16 57 59
f 72 66 49
f 59 64 72
f 64 66 72
f 59 72 49
f 64 47 65
f 23 59 49
f 24 25 70
f 23 65 47
f 23 47 76
f 73 316 74
f 76 47 7
f 16 23 76
f 20 77 11
f 79 80 247
f 76 7 339
f 86 51 40
f 186 71 85
f 11 77 78
f 34 5 24
f 83 13 86
f 13 51 86
f 88 99 89
f 91 92 93
f 86 93 92
f 94 95 96
f 97 95 94
f 83 86 92
f 34 80 98
f 247 24 5
f 100 5 4
f 90 88 89
f 4 5 34
f 4 98 100
f 80 24 13
f 98 4 34
f 24 80 34
f 92 91 101
f 101 91 93
f 91 17 93
f 17 101 93
f 166 93 86
f 13 83 101
f 17 13 101
f 83 92 101
f 17 91 102
f 13 17 102
f 102 93 166
f 91 93 102
f 5 79 247
f 98 80 79
f 100 98 79
f 13 102 166
f 5 100 79
f 6 18 13
f 138 88 90
f 6 13 166
f 18 247 13
f 13 247 80
f 105 152 33
f 18 6 174
f 104 105 29
f 37 105 104
f 174 6 166
f 106 35 105
f 31 152 105
f 106 105 32
f 31 105 37
f 18 3 15
f 18 15 247
f 18 107 27
f 107 15 36
f 2 1 36
f 2 15 3
f 15 2 36
f 107 36 1
f 18 174 172
f 262 37 171
f 25 67 61
f 52 8 54
f 43 46 186
f 52 54 55
f 88 138 99
f 62 40 19
f 54 63 55
f 115 243 60
f 77 212 110
f 62 68 111
f 68 69 111
f 58 43 111
f 43 62 111
f 62 19 68
f 58 46 43
f 69 58 111
f 7 199 339
f 243 8 60
f 52 55 60
f 109 39 63
f 63 54 109
f 71 186 76
f 212 113 114
f 21 61 67
f 8 115 109
f 43 186 205
f 113 117 114
f 113 108 117
f 118 119 120
f 118 121 119
f 122 123 309
f 124 11 78
f 11 124 125
f 71 84 85
f 24 199 25
f 24 247 199
f 125 124 110
f 114 117 128
f 129 131 130
f 110 124 78
f 81 212 20
f 81 20 159
f 137 84 71
f 134 135 133
f 20 212 77
f 43 86 40
f 8 243 339
f 138 166 205
f 11 125 20
f 133 110 212
f 77 110 78
f 139 140 141
f 140 157 141
f 20 125 134
f 135 125 110
f 135 134 125
f 133 135 110
f 134 220 159
f 220 134 142
f 20 134 159
f 142 134 133
f 132 142 133
f 138 90 143
f 129 211 131
f 86 43 205
f 87 143 145
f 146 147 148
f 145 89 126
f 149 150 151
f 99 138 205
f 86 205 166
f 153 154 148
f 213 156 157
f 140 227 157
f 152 99 205
f 138 126 152
f 138 143 87
f 126 138 87
f 143 90 145
f 89 99 126
f 126 87 145
f 90 89 145
f 215 154 160
f 160 161 162
f 160 153 161
f 103 339 243
f 152 126 99
f 166 138 152
f 137 71 103
f 163 237 164
f 172 159 228
f 215 167 158
f 76 103 71
f 168 32 26
f 35 169 105
f 33 26 32
f 26 33 170
f 35 30 169
f 168 35 106
f 105 169 29
f 29 169 30
f 35 168 170
f 166 152 31
f 168 26 170
f 32 168 106
f 33 152 170
f 37 170 152
f 170 37 104
f 31 37 174
f 166 31 174
f 170 28 30
f 104 28 170
f 28 104 29
f 270 278 173
f 247 107 172
f 175 256 176
f 15 107 247
f 177 359 178
f 172 107 18
f 180 181 144
f 119 121 188
f 120 119 188
f 112 189 196
f 190 187 196
f 112 196 121
f 117 191 128
f 191 192 128
f 186 305 183
f 197 194 195
f 187 194 197
f 190 195 194
f 202 205 197
f 121 197 112
f 197 198 112
f 132 133 212
f 127 97 200
f 118 120 201
f 198 189 112
f 197 201 202
f 187 186 196
f 198 195 189
f 195 190 189
f 189 190 196
f 190 194 187
f 121 196 188
f 120 202 201
f 197 195 198
f 187 197 186
f 84 82 203
f 211 204 82
f 202 120 188
f 161 147 162
f 197 121 118
f 197 118 201
f 202 188 196
f 202 196 205
f 114 206 207
f 114 128 206
f 208 316 209
f 186 197 205
f 192 210 207
f 215 158 149
f 85 127 200
f 81 108 212
f 117 108 191
f 114 207 212
f 206 192 207
f 116 204 211
f 239 152 151
f 213 155 159
f 97 94 200
f 154 205 146
f 212 108 113
f 159 155 228
f 131 85 84
f 192 206 128
f 256 217 218
f 207 181 180
f 212 207 180
f 181 219 144
f 219 181 216
f 210 181 207
f 212 180 144
f 142 132 220
f 132 140 220
f 95 127 221
f 84 203 131
f 154 215 205
f 222 209 223
f 212 75 224
f 154 146 148
f 221 127 136
f 149 226 163
f 150 226 149
f 226 225 163
f 8 339 115
f 127 211 136
f 158 167 226
f 167 225 226
f 85 131 211
f 96 221 136
f 96 95 221
f 159 139 213
f 97 127 95
f 127 85 211
f 73 74 224
f 229 73 224
f 157 155 213
f 227 155 157
f 230 73 229
f 139 141 156
f 141 157 156
f 231 232 233
f 204 203 82
f 204 234 203
f 160 162 163
f 163 162 237
f 147 146 237
f 132 212 140
f 225 215 163
f 153 148 161
f 130 234 116
f 129 130 116
f 147 161 148
f 116 234 204
f 211 129 116
f 234 130 131
f 215 149 151
f 140 212 227
f 137 82 84
f 147 237 162
f 154 153 160
f 82 137 214
f 211 82 214
f 205 237 146
f 131 203 234
f 220 140 139
f 213 139 156
f 235 398 236
f 159 220 139
f 167 215 225
f 215 160 163
f 152 215 151
f 239 150 164
f 150 149 164
f 149 163 164
f 237 239 164
f 151 150 239
f 158 226 150
f 155 227 228
f 152 205 215
f 149 158 150
f 227 340 228
f 152 239 237
f 171 152 237
f 244 245 246
f 248 218 217
f 152 171 37
f 344 249 250
f 251 175 252
f 253 252 369
f 254 430 255
f 256 171 257
f 251 252 253
f 261 251 253
f 176 218 248
f 257 171 369
f 176 258 175
f 258 176 369
f 257 259 217
f 261 256 251
f 248 217 259
f 262 256 261
f 248 259 369
f 253 369 261
f 256 218 176
f 256 257 217
f 259 257 369
f 252 175 258
f 252 258 369
f 256 175 251
f 369 260 261
f 176 248 369
f 174 262 261
f 174 37 262
f 171 256 262
f 172 6 552
f 383 265 266
f 267 269 268
f 271 272 173
f 273 274 185
f 281 276 280
f 282 283 284
f 278 271 173
f 186 278 289
f 272 281 274
f 285 193 41
f 193 285 286
f 271 281 272
f 173 272 273
f 270 185 280
f 277 287 288
f 275 280 184
f 186 276 281
f 272 274 273
f 279 290 291
f 290 292 291
f 273 270 173
f 278 186 281
f 278 270 275
f 280 275 270
f 275 282 41
f 283 282 275
f 281 280 185
f 278 281 271
f 293 294 280
f 185 270 273
f 274 281 185
f 276 277 288
f 291 293 280
f 284 183 286
f 184 283 275
f 295 183 283
f 293 292 296
f 293 296 294
f 286 183 193
f 288 279 280
f 183 284 283
f 282 285 41
f 277 183 287
f 279 288 287
f 296 295 294
f 295 296 183
f 279 291 280
f 193 183 41
f 294 295 184
f 295 283 184
f 292 183 296
f 280 294 184
f 290 279 287
f 293 291 292
f 282 286 285
f 284 286 282
f 280 276 288
f 287 183 290
f 276 186 183
f 277 276 183
f 290 183 292
f 183 305 41
f 186 289 306
f 306 297 12
f 186 306 196
f 299 450 300
f 305 275 41
f 301 302 398
f 303 304 182
f 191 108 316
f 305 186 85
f 196 306 385
f 219 180 144
f 219 144 180
f 224 74 310
f 311 312 313
f 205 196 385
f 96 136 214
f 12 314 182
f 297 314 12
f 191 316 216
f 122 310 123
f 122 224 310
f 307 208 308
f 75 230 229
f 308 209 222
f 136 211 214
f 192 191 216
f 200 94 214
f 305 85 214
f 216 316 208
f 208 307 144
f 305 214 236
f 212 222 75
f 312 315 313
f 208 144 219
f 307 308 222
f 212 307 222
f 223 230 75
f 308 208 209
f 181 210 216
f 316 108 81
f 219 216 208
f 144 307 212
f 317 318 301
f 320 312 311
f 223 209 230
f 209 73 230
f 210 192 216
f 398 317 301
f 73 209 316
f 339 243 115
f 302 320 311
f 302 311 398
f 205 385 237
f 309 316 227
f 222 223 75
f 94 96 214
f 214 318 236
f 122 309 227
f 235 317 398
f 398 311 313
f 310 74 123
f 74 309 123
f 75 229 224
f 122 212 224
f 321 322 323
f 322 324 323
f 309 74 316
f 318 317 235
f 236 318 235
f 315 312 214
f 236 398 305
f 85 200 214
f 137 103 240
f 301 214 320
f 325 326 165
f 301 320 302
f 312 320 214
f 122 227 212
f 398 238 240
f 398 313 238
f 238 214 240
f 327 328 241
f 315 214 238
f 313 315 238
f 329 413 232
f 318 214 301
f 316 760 227
f 411 331 332
f 240 214 137
f 228 340 342
f 233 232 413
f 242 334 335
f 334 242 336
f 240 103 413
f 338 329 232
f 249 355 471
f 344 345 326
f 336 250 334
f 344 326 325
f 249 471 349
f 350 417 335
f 366 421 365
f 237 355 171
f 250 349 334
f 352 348 353
f 363 352 353
f 354 343 348
f 344 351 345
f 336 346 350
f 334 336 350
f 334 346 336
f 247 366 343
f 343 353 348
f 344 336 242
f 356 335 417
f 344 242 351
f 349 471 346
f 351 335 356
f 351 242 335
f 358 325 417
f 326 357 165
f 326 345 357
f 344 250 336
f 250 249 349
f 344 355 249
f 358 344 325
f 355 344 171
f 350 335 334
f 345 356 357
f 356 345 351
f 171 344 358
f 360 361 362
f 366 363 343
f 343 363 353
f 414 364 365
f 343 354 247
f 334 349 346
f 260 358 417
f 260 171 358
f 359 367 368
f 369 171 260
f 263 366 247
f 370 371 347
f 372 373 374
f 406 359 368
f 172 263 247
f 371 376 377
f 260 378 433
f 367 376 371
f 370 367 371
f 174 261 260
f 172 228 330
f 379 506 381
f 372 374 433
f 364 362 436
f 338 411 332
f 265 267 268
f 268 269 382
f 513 383 266
f 383 513 269
f 267 265 383
f 267 383 269
f 513 382 269
f 265 268 266
f 266 268 382
f 552 513 266
f 266 382 552
f 278 275 289
f 289 609 386
f 386 306 289
f 303 314 297
f 306 386 304
f 339 199 390
f 388 306 389
f 304 386 182
f 391 384 392
f 182 386 609
f 306 388 392
f 388 391 392
f 393 304 303
f 12 394 306
f 306 394 389
f 306 392 385
f 304 393 306
f 12 182 396
f 389 394 397
f 394 396 397
f 182 609 384
f 306 393 297
f 388 389 391
f 389 397 391
f 396 182 397
f 393 303 297
f 394 12 396
f 182 384 397
f 392 384 385
f 397 384 391
f 182 314 303
f 400 401 402
f 403 328 327
f 340 328 403
f 338 332 329
f 305 398 240
f 413 103 233
f 305 240 458
f 333 319 404
f 319 333 405
f 328 227 241
f 404 458 341
f 404 319 458
f 458 240 341
f 408 409 410
f 240 413 411
f 172 337 81
f 350 346 471
f 227 328 340
f 418 199 247
f 399 233 103
f 408 410 407
f 408 407 342
f 411 341 240
f 231 338 232
f 399 411 338
f 322 327 241
f 340 403 321
f 331 411 413
f 329 331 413
f 332 331 329
f 399 338 231
f 233 399 231
f 323 324 409
f 406 399 103
f 103 243 406
f 165 417 325
f 365 352 363
f 378 372 433
f 415 433 374
f 416 417 433
f 228 523 430
f 401 400 330
f 380 359 428
f 348 352 354
f 355 237 471
f 373 420 374
f 361 360 421
f 365 247 354
f 436 361 421
f 422 416 415
f 365 354 352
f 417 357 356
f 422 423 416
f 362 364 360
f 364 414 360
f 255 424 425
f 418 247 365
f 421 360 414
f 417 350 471
f 361 436 362
f 426 177 427
f 377 426 427
f 165 357 417
f 330 228 401
f 366 365 363
f 414 365 421
f 436 365 364
f 401 430 402
f 430 429 402
f 367 359 376
f 428 359 375
f 415 416 433
f 423 417 416
f 368 370 347
f 406 368 347
f 368 367 370
f 260 417 423
f 423 420 373
f 420 415 374
f 415 420 422
f 428 375 264
f 423 422 420
f 178 380 431
f 432 178 431
f 372 378 373
f 431 380 434
f 423 373 378
f 366 436 421
f 436 366 263
f 427 177 432
f 177 178 432
f 376 359 426
f 426 359 177
f 371 377 264
f 376 426 377
f 178 359 380
f 432 431 264
f 260 423 378
f 347 371 264
f 666 260 433
f 438 439 440
f 432 264 427
f 264 377 427
f 434 380 428
f 441 443 412
f 330 437 379
f 434 264 431
f 379 442 330
f 428 264 434
f 172 330 442
f 437 330 443
f 174 260 666
f 440 439 502
f 179 172 442
f 400 446 419
f 446 400 402
f 513 552 382
f 387 447 298
f 199 564 390
f 448 449 300
f 387 299 447
f 447 299 449
f 449 299 300
f 289 275 609
f 390 298 395
f 299 387 450
f 447 449 448
f 298 447 448
f 395 448 300
f 387 390 450
f 298 448 395
f 387 298 390
f 390 395 339
f 385 384 609
f 316 81 547
f 407 241 342
f 408 342 340
f 341 411 522
f 456 461 457
f 458 319 452
f 81 453 547
f 407 324 241
f 460 322 321
f 453 81 464
f 409 324 410
f 324 407 410
f 241 227 760
f 609 305 458
f 452 459 458
f 405 333 452
f 403 327 460
f 321 403 460
f 172 463 337
f 609 458 459
f 404 341 459
f 452 319 405
f 81 337 464
f 452 333 404
f 459 452 404
f 323 409 408
f 323 408 340
f 321 323 340
f 327 322 460
f 322 241 324
f 522 459 341
f 399 522 411
f 419 467 468
f 467 419 429
f 330 469 435
f 228 342 523
f 472 347 473
f 264 550 439
f 419 468 330
f 399 406 522
f 244 475 469
f 475 244 246
f 476 477 478
f 479 476 478
f 468 467 254
f 480 523 481
f 468 254 255
f 475 480 481
f 475 246 480
f 330 400 419
f 462 244 330
f 467 470 254
f 330 483 443
f 245 425 480
f 470 430 254
f 401 228 430
f 484 483 478
f 462 255 425
f 245 480 246
f 462 245 244
f 425 245 462
f 481 485 469
f 347 264 473
f 330 244 469
f 430 424 255
f 487 476 479
f 330 468 462
f 488 264 489
f 402 429 446
f 419 446 429
f 429 430 470
f 417 471 433
f 491 472 473
f 424 430 523
f 179 504 445
f 433 471 666
f 475 481 469
f 435 485 487
f 485 476 487
f 492 488 493
f 488 492 473
f 425 424 480
f 424 523 480
f 484 494 495
f 494 477 495
f 468 255 462
f 429 470 467
f 484 478 494
f 478 477 494
f 330 435 483
f 485 481 476
f 483 435 487
f 483 479 478
f 483 487 479
f 418 365 436
f 502 497 498
f 406 347 486
f 493 489 499
f 488 489 493
f 406 486 502
f 500 264 474
f 550 264 375
f 496 472 491
f 496 486 472
f 438 264 439
f 406 502 550
f 499 501 482
f 499 489 501
f 482 502 499
f 435 469 485
f 443 483 484
f 482 500 497
f 492 491 473
f 491 502 496
f 473 264 488
f 491 492 502
f 486 347 472
f 503 412 381
f 437 443 441
f 418 263 504
f 474 264 438
f 502 493 499
f 502 492 493
f 489 264 501
f 502 486 496
f 263 418 436
f 437 441 506
f 379 437 506
f 497 502 482
f 497 474 498
f 497 500 474
f 502 439 550
f 498 438 440
f 474 438 498
f 501 264 500
f 482 501 500
f 498 440 502
f 506 503 381
f 506 441 503
f 441 412 503
f 379 381 442
f 381 490 442
f 490 443 442
f 442 443 504
f 412 443 490
f 381 412 490
f 445 505 179
f 179 442 504
f 507 508 509
f 263 172 504
f 510 509 508
f 179 505 511
f 451 510 508
f 445 504 444
f 390 564 450
f 507 509 527
f 509 504 527
f 395 300 450
f 450 564 339
f 395 450 339
f 457 461 453
f 515 516 465
f 457 514 517
f 514 457 453
f 444 504 509
f 461 454 547
f 385 609 237
f 464 518 519
f 453 464 519
f 547 454 464
f 461 547 453
f 454 518 464
f 461 456 454
f 520 455 465
f 514 453 519
f 517 514 519
f 514 454 456
f 337 516 464
f 456 517 514
f 454 514 518
f 514 517 518
f 519 518 517
f 517 456 457
f 337 463 466
f 520 465 516
f 466 455 521
f 609 459 522
f 516 515 464
f 521 516 337
f 521 520 516
f 455 466 463
f 521 337 466
f 464 515 463
f 342 241 760
f 521 455 520
f 515 455 463
f 515 465 455
f 477 476 523
f 666 471 237
f 504 199 418
f 524 523 443
f 476 481 523
f 477 524 495
f 525 444 526
f 477 523 524
f 484 524 443
f 484 495 524
f 511 525 526
f 443 523 504
f 179 511 451
f 445 444 525
f 505 445 525
f 505 525 511
f 510 526 509
f 511 510 451
f 526 510 511
f 179 527 172
f 451 507 527
f 508 507 451
f 179 451 527
f 172 527 504
f 526 444 509
f 632 504 172
f 6 174 535
f 564 199 504
f 275 305 609
f 406 243 579
f 342 760 523
f 375 406 579
f 632 172 504
f 535 512 531
f 531 512 530
f 6 535 583
f 174 512 535
f 552 6 583
f 536 545 537
f 464 463 547
f 172 676 463
f 609 522 550
f 522 406 550
f 532 531 529
f 531 530 529
f 528 533 535
f 530 512 541
f 532 529 534
f 528 532 534
f 528 531 532
f 529 530 541
f 528 534 533
f 535 531 528
f 533 534 541
f 535 533 541
f 541 534 529
f 543 542 561
f 561 542 539
f 537 545 538
f 544 542 543
f 545 543 538
f 544 539 542
f 544 543 545
f 544 545 536
f 546 544 536
f 561 537 538
f 543 561 552
f 539 546 537
f 546 539 544
f 546 536 537
f 539 537 561
f 538 543 552
f 561 538 552
f 609 550 596
f 541 512 666
f 512 174 666
f 535 541 583
f 547 760 316
f 547 676 760
f 237 609 666
f 554 555 556
f 555 557 556
f 559 557 555
f 375 579 596
f 172 552 676
f 556 554 566
f 554 606 566
f 567 568 565
f 547 463 676
f 556 566 570
f 571 572 573
f 572 571 574
f 570 566 575
f 243 339 579
f 577 585 578
f 596 550 375
f 583 541 666
f 575 566 584
f 567 586 568
f 549 575 584
f 557 540 556
f 567 565 606
f 587 584 582
f 567 559 586
f 549 554 575
f 554 570 575
f 504 632 564
f 606 565 548
f 551 576 549
f 606 548 558
f 540 567 606
f 559 567 540
f 566 606 582
f 549 584 587
f 551 549 587
f 566 582 584
f 565 568 548
f 557 559 540
f 540 559 555
f 576 540 555
f 551 548 576
f 586 559 540
f 568 540 576
f 540 568 586
f 540 554 556
f 606 554 540
f 568 576 548
f 554 556 570
f 576 554 549
f 576 555 554
f 551 587 582
f 551 579 548
f 582 606 551
f 579 558 548
f 760 632 523
f 580 553 581
f 632 504 523
f 560 596 579
f 577 553 585
f 590 591 577
f 553 579 339
f 583 666 592
f 593 563 562
f 761 552 583
f 615 609 596
f 339 564 632
f 578 589 590
f 606 608 551
f 577 591 581
f 580 595 589
f 590 589 595
f 591 590 595
f 590 577 578
f 589 558 553
f 577 581 553
f 560 598 574
f 598 569 599
f 597 569 598
f 608 597 560
f 579 551 560
f 560 551 608
f 579 553 558
f 580 589 553
f 558 589 585
f 585 589 578
f 595 580 581
f 581 591 595
f 560 601 600
f 596 560 600
f 600 572 607
f 339 585 553
f 603 604 602
f 583 563 603
f 603 602 592
f 583 592 563
f 603 592 761
f 604 562 605
f 563 593 603
f 593 604 603
f 605 562 563
f 605 563 592
f 602 605 592
f 602 604 605
f 761 583 603
f 593 562 604
f 600 573 572
f 560 571 601
f 594 608 607
f 569 597 594
f 601 573 600
f 601 571 573
f 594 597 608
f 560 597 598
f 599 569 607
f 599 607 572
f 569 594 607
f 574 599 572
f 574 598 599
f 339 632 585
f 600 607 596
f 560 574 571
f 592 666 761
f 558 608 606
f 608 662 607
f 558 585 632
f 662 596 607
f 552 761 676
f 632 643 564
f 620 621 619
f 613 612 614
f 623 624 625
f 624 626 625
f 635 615 596
f 636 634 633
f 617 639 684
f 642 644 610
f 711 609 615
f 637 621 620
f 638 641 711
f 637 641 638
f 621 638 619
f 609 611 739
f 641 620 611
f 637 638 621
f 641 637 620
f 609 641 611
f 619 638 611
f 641 609 711
f 611 638 739
f 620 619 611
f 612 610 614
f 643 613 564
f 650 647 651
f 622 653 649
f 644 618 614
f 645 610 612
f 642 610 645
f 612 613 618
f 610 644 614
f 613 614 716
f 613 643 618
f 612 618 645
f 642 645 618
f 642 618 644
f 614 618 716
f 609 649 631
f 613 716 564
f 564 716 632
f 625 656 631
f 615 695 588
f 616 609 631
f 624 622 626
f 643 632 721
f 659 672 660
f 609 616 628
f 624 653 622
f 695 615 635
f 661 655 663
f 666 609 628
f 672 628 634
f 636 667 668
f 672 666 628
f 659 670 671
f 596 662 635
f 671 665 673
f 700 674 675
f 640 711 615
f 648 640 679
f 638 711 739
f 646 650 651
f 652 646 678
f 647 650 680
f 640 615 678
f 682 683 684
f 615 652 678
f 640 678 679
f 647 679 651
f 685 682 686
f 646 651 678
f 647 652 648
f 647 648 679
f 678 651 679
f 680 646 652
f 680 650 646
f 615 648 652
f 588 648 615
f 647 680 652
f 588 726 725
f 609 739 649
f 689 677 639
f 631 623 625
f 618 643 716
f 675 690 664
f 657 658 691
f 608 558 662
f 624 623 653
f 623 631 653
f 658 694 654
f 719 694 658
f 695 654 692
f 616 656 622
f 625 626 656
f 663 654 694
f 649 693 622
f 661 663 694
f 649 653 631
f 656 626 622
f 654 663 692
f 655 695 692
f 654 695 658
f 691 696 657
f 661 588 695
f 663 655 692
f 655 661 695
f 694 588 661
f 656 616 631
f 630 696 691
f 658 657 697
f 657 629 697
f 616 622 693
f 635 697 630
f 697 635 658
f 697 629 630
f 629 696 630
f 658 695 691
f 696 629 657
f 662 658 635
f 700 698 699
f 695 635 630
f 691 695 630
f 616 693 627
f 672 668 701
f 671 670 665
f 627 628 616
f 633 665 703
f 757 558 632
f 670 660 665
f 700 704 705
f 672 636 668
f 672 634 636
f 636 633 667
f 670 659 660
f 703 665 706
f 634 665 633
f 665 660 706
f 634 736 665
f 666 672 669
f 668 667 703
f 660 701 706
f 672 659 673
f 628 702 736
f 701 668 706
f 668 703 706
f 672 701 660
f 628 736 634
f 667 633 703
f 669 665 736
f 709 718 710
f 672 673 669
f 673 665 669
f 659 671 673
f 666 669 735
f 735 761 666
f 721 676 761
f 640 681 711
f 687 712 617
f 681 640 648
f 683 682 685
f 617 684 683
f 683 685 713
f 685 686 713
f 686 682 681
f 687 677 689
f 682 684 681
f 681 684 711
f 711 684 688
f 617 712 639
f 639 677 684
f 648 687 686
f 648 686 681
f 683 713 617
f 686 687 617
f 689 639 712
f 688 677 687
f 713 686 617
f 689 712 687
f 688 687 648
f 643 721 758
f 688 684 677
f 688 648 588
f 649 739 693
f 643 758 716
f 708 720 718
f 588 694 719
f 731 722 726
f 632 716 757
f 662 558 719
f 658 662 719
f 690 720 664
f 627 693 723
f 700 664 707
f 700 707 708
f 699 698 710
f 718 699 710
f 674 724 675
f 724 699 718
f 627 704 700
f 704 627 723
f 700 675 664
f 720 690 718
f 674 700 699
f 724 674 699
f 700 705 698
f 628 627 702
f 690 724 718
f 709 723 718
f 705 704 709
f 724 690 675
f 704 723 709
f 705 709 710
f 698 705 710
f 700 708 702
f 700 702 627
f 702 708 723
f 664 720 707
f 720 708 707
f 708 718 723
f 702 723 736
f 669 736 735
f 588 738 711
f 588 711 688
f 732 727 728
f 726 588 719
f 727 732 717
f 716 758 757
f 734 714 715
f 735 736 723
f 693 735 723
f 721 729 758
f 740 717 732
f 728 722 731
f 717 726 722
f 742 730 737
f 737 761 758
f 738 588 725
f 728 738 732
f 737 758 729
f 715 742 737
f 740 725 726
f 737 734 715
f 725 740 738
f 714 730 742
f 714 734 730
f 719 738 731
f 714 742 715
f 737 729 734
f 734 729 730
f 717 740 726
f 748 756 741
f 727 717 722
f 728 727 722
f 738 740 732
f 731 738 728
f 719 731 726
f 730 733 737
f 729 733 730
f 733 721 737
f 733 729 721
f 745 744 746
f 693 739 735
f 721 632 760
f 749 750 751
f 558 757 719
f 754 755 751
f 747 755 752
f 739 711 738
f 752 754 753
f 761 756 758
f 761 737 721
f 746 744 743
f 759 748 741
f 739 743 735
f 759 745 746
f 748 759 746
f 746 743 748
f 748 743 756
f 741 735 743
f 745 759 741
f 735 741 756
f 744 741 743
f 749 753 750
f 750 754 751
f 745 741 744
f 719 747 738
f 719 749 747
f 747 757 738
f 750 753 754
f 755 754 752
f 755 749 751
f 747 749 755
f 747 752 757
f 752 719 757
f 752 753 719
f 749 719 753
f 760 676 721
f 756 761 735
f 757 758 739
f 757 739 738
f 758 756 739
f 743 739 756
f 769 762 763
f 765 764 766
f 765 770 769
f 770 765 766
f 766 767 768
f 771 764 769
f 762 770 766
f 770 762 769
f 771 763 768
f 769 763 771
f 763 762 768
f 764 771 770
f 771 768 767
f 770 767 766
f 769 764 765
f 770 771 767
f 770 766 764
f 766 768 762
f 76 339 103
f 375 359 406

