# https://github.com/mikedh/trimesh
v -0.59375000 -0.17054732 -0.76610762
v -0.59232301 -0.20184331 -0.75055367
v -0.59377998 -0.16663733 -0.76603758
v -0.58983999 -0.13441484 -0.76936758
v -0.59375000 -0.16663733 -0.76610762
v -0.59380001 -0.10413733 0.98004240
v -0.59375000 -0.10413733 0.98015243
v -0.59380001 -0.10023733 0.98004240
v -0.59375000 -0.12367733 -0.76610762
v -0.59380001 -0.15492733 0.98004240
v -0.59375000 -0.07288733 0.98015243
v -0.59375000 -0.06898733 0.98015243
v -0.59380001 -0.06898733 0.98004240
v -0.59380001 -0.08460733 0.98004240
v -0.59375000 -0.08460733 0.98015243
v -0.59380001 -0.08070733 0.98004240
v -0.59382987 -0.14819564 -0.75610811
v -0.59375000 -0.12757733 -0.76610762
v -0.59377998 -0.12367733 -0.76603758
v -0.59375000 -0.10804733 -0.76610762
v -0.59375000 -0.10413733 -0.76610762
v -0.59377998 -0.10413733 -0.76603758
v -0.58983999 -0.18251172 -0.76936758
v -0.59315789 -0.19770709 0.98096693
v -0.59377998 -0.15101732 -0.76603758
v -0.59377998 -0.15492733 -0.76603758
v -0.59377998 -0.06117733 -0.76603758
v -0.59377998 -0.06507733 -0.76603758
v -0.59380001 -0.06117733 0.98004240
v -0.59380001 -0.17445733 0.98004240
v -0.59375000 -0.17445733 0.98015243
v -0.59380001 -0.17054732 0.98004240
v -0.59375000 -0.15492733 0.98015243
v -0.59377998 -0.14320733 -0.76603758
v -0.59377998 -0.13929732 -0.76603758
v -0.59375000 -0.14320733 -0.76610762
v -0.59377998 -0.00648733 -0.76603758
v -0.59377998 -0.01038733 -0.76603758
v -0.59375000 -0.06507733 -0.76610762
v -0.59375000 -0.06117733 -0.76610762
v -0.59375000 -0.11195733 -0.76610762
v -0.59377998 -0.11195733 -0.76603758
v -0.59377998 -0.11585733 -0.76603758
v -0.58235836 -0.21335420 0.96421599
v -0.59380001 -0.16663733 0.98004240
v -0.59380001 -0.16273732 0.98004240
v -0.58983999 -0.11195358 -0.76936758
v -0.59377998 -0.15882733 -0.76603758
v -0.59377998 -0.16273732 -0.76603758
v -0.59380001 -0.06507733 0.98004240
v -0.59377998 -0.08851733 -0.76603758
v -0.59375000 -0.09242733 -0.76610762
v -0.59377998 -0.09242733 -0.76603758
v -0.59382999 -0.06849671 -0.75431758
v -0.59375000 -0.00648733 0.98015243
v -0.59375000 -0.14710733 0.98015243
v -0.59375000 -0.12757733 0.98015243
v -0.59380001 -0.12367733 0.98004240
v -0.59380001 -0.12757733 0.98004240
v -0.59375000 -0.16663733 0.98015243
v -0.59375000 -0.08460733 -0.76610762
v -0.59375000 -0.04945733 0.98015243
v -0.59375000 -0.05335733 0.98015243
v -0.59380001 -0.04945733 0.98004240
v -0.59380001 -0.13148732 0.98004240
v -0.59377998 -0.13538733 -0.76603758
v -0.59375000 -0.13538733 -0.76610762
v -0.59375000 -0.13929732 -0.76610762
v -0.59375000 0.00522267 0.98015243
v -0.59375000 0.00132267 0.98015243
v -0.59380001 0.00522267 0.98004240
v -0.59375000 -0.09242733 0.98015243
v -0.59375000 -0.08851733 0.98015243
v -0.59380001 -0.08851733 0.98004240
v -0.59377998 0.02085267 -0.76603758
v -0.59375000 0.01694267 -0.76610762
v -0.59377998 0.01694267 -0.76603758
v -0.59377998 0.06382267 -0.76603758
v -0.59375000 -0.05726733 -0.76610762
v -0.59377998 -0.05726733 -0.76603758
v -0.59375000 -0.12367733 0.98015243
v -0.59375000 -0.15492733 -0.76610762
v -0.59375000 -0.15882733 -0.76610762
v -0.59377998 0.04819267 -0.76603758
v -0.59377998 0.05210267 -0.76603758
v -0.59375000 0.04819267 -0.76610762
v -0.59375000 -0.17445733 -0.76610762
v -0.59382999 -0.10023483 0.97223240
v -0.59380001 -0.09242733 0.98004240
v -0.59375000 -0.03773733 0.98015243
v -0.59380001 -0.03382733 0.98004240
v -0.59380001 -0.03773733 0.98004240
v -0.59377998 -0.08460733 -0.76603758
v -0.59375000 -0.04163733 -0.76610762
v -0.59382308 0.02987778 -0.76082271
v -0.59377998 0.01303267 -0.76603758
v -0.59377998 0.00913267 -0.76603758
v -0.59377998 -0.11976733 -0.76603758
v -0.59377998 -0.04163733 -0.76603758
v -0.59377998 -0.03773733 -0.76603758
v -0.59377998 -0.05335733 -0.76603758
v -0.59375000 -0.02601733 -0.76610762
v -0.59375000 0.02475267 -0.76610762
v -0.59377998 0.02866267 -0.76603758
v -0.59375000 0.02866267 -0.76610762
v -0.59375000 -0.03773733 -0.76610762
v -0.59375000 -0.03382733 -0.76610762
v -0.59377998 -0.03382733 -0.76603758
v -0.59377998 -0.00257733 -0.76603758
v -0.59375000 0.00132267 -0.76610762
v -0.59375000 0.00522267 -0.76610762
v -0.59377998 0.00522267 -0.76603758
v -0.58983999 -0.01039233 0.98348242
v -0.59377998 0.03257267 -0.76603758
v -0.59375000 -0.03382733 0.98015243
v -0.59380001 0.00132267 0.98004240
v -0.59375000 -0.01038733 0.98015243
v -0.59375000 -0.01429733 0.98015243
v -0.59380001 -0.01038733 0.98004240
v -0.59375000 -0.10023733 -0.76610762
v -0.59377998 0.03647267 -0.76603758
v -0.59377998 0.04038267 -0.76603758
v -0.59375000 0.03647267 -0.76610762
v -0.59375000 0.03257267 -0.76610762
v -0.59377998 -0.10023733 -0.76603758
v -0.59377998 -0.09632733 -0.76603758
v -0.59377998 0.02475267 -0.76603758
v -0.59375000 0.04428267 -0.76610762
v -0.59377998 0.05991267 -0.76603758
v -0.59375000 0.05991267 -0.76610762
v -0.59375000 0.05600267 -0.76610762
v -0.59377998 0.05600267 -0.76603758
v -0.58983999 -0.09828358 0.98348242
v -0.59375000 0.06382267 -0.76610762
v -0.59375000 0.05210267 -0.76610762
v -0.58983999 -0.13807671 0.98348242
v -0.59377998 -0.14710733 -0.76603758
v -0.59375000 -0.15101732 -0.76610762
v -0.59375000 0.06772267 0.98015243
v -0.59375000 0.06382267 0.98015243
v -0.59380001 0.06772267 0.98004240
v -0.59375000 -0.13148732 0.98015243
v -0.59382999 -0.04359358 0.97223240
v -0.59380001 0.03257267 0.98004240
v -0.59380001 0.03647267 0.98004240
v -0.59375000 -0.17835733 0.98015243
v -0.58983999 -0.16224796 0.98348242
v -0.59380001 0.00913267 0.98004240
v -0.59375000 0.03257267 0.98015243
v -0.59375000 0.02866267 0.98015243
v -0.59375000 0.08725267 -0.76610762
v -0.58983999 0.08750079 -0.76936758
v -0.59377998 0.04428267 -0.76603758
v -0.59375000 0.04038267 -0.76610762
v -0.59377998 0.08725267 -0.76603758
v -0.59377998 0.09116267 -0.76603758
v -0.59377998 0.07944267 -0.76603758
v -0.59377998 0.07553267 -0.76603758
v -0.59375000 0.07553267 -0.76610762
v -0.59377998 -0.13148732 -0.76603758
v -0.59377998 0.08335267 -0.76603758
v -0.59375000 0.07944267 -0.76610762
v -0.59375000 0.07163266 -0.76610762
v -0.59375000 -0.11976733 -0.76610762
v -0.59380001 -0.15101732 0.98004240
v -0.59375000 -0.15101732 0.98015243
v -0.59380001 -0.14710733 0.98004240
v -0.59380001 0.06382267 0.98004240
v -0.59375000 0.05600267 0.98015243
v -0.59380001 0.05991267 0.98004240
v -0.59380001 0.05600267 0.98004240
v -0.59375000 -0.16273732 -0.76610762
v -0.59375000 0.08335267 -0.76610762
v -0.59382999 -0.16273484 0.97223240
v -0.59377998 0.07163266 -0.76603758
v -0.59382939 0.08816792 -0.76044118
v -0.59375000 -0.16273732 0.98015243
v -0.59380001 -0.15882733 0.98004240
v -0.58983999 -0.11781233 0.98348242
v -0.59375000 -0.17054732 0.98015243
v -0.59382999 -0.11585983 -0.75431758
v -0.59382999 -0.02601483 -0.75431758
v -0.59375000 -0.06898733 -0.76610762
v -0.59375000 -0.07288733 -0.76610762
v -0.59377998 -0.06898733 -0.76603758
v -0.59375000 -0.08851733 -0.76610762
v -0.59377998 -0.04554733 -0.76603758
v -0.59375000 -0.07679733 0.98015243
v -0.59380001 -0.07288733 0.98004240
v -0.59375000 -0.14320733 0.98015243
v -0.59375000 -0.13929732 0.98015243
v -0.59380001 -0.13929732 0.98004240
v -0.59375000 0.05210267 0.98015243
v -0.59375000 -0.10023733 0.98015243
v -0.59380001 -0.09632733 0.98004240
v -0.59375000 -0.04554733 -0.76610762
v -0.59382999 0.00522267 -0.75431758
v -0.58983999 -0.07997171 -0.76936758
v -0.59375000 -0.04163733 0.98015243
v -0.59380001 -0.04163733 0.98004240
v -0.59375000 -0.15882733 0.98015243
v -0.59375000 -0.13148732 -0.76610762
v -0.58983999 -0.15492357 -0.76936758
v -0.59375000 -0.14710733 -0.76610762
v -0.59377998 -0.12757733 -0.76603758
v -0.58983999 -0.06556733 0.98348242
v -0.59375000 -0.11585733 0.98015243
v -0.59375000 -0.11195733 0.98015243
v -0.59380001 -0.11195733 0.98004240
v -0.59380001 -0.10804733 0.98004240
v -0.59375000 -0.10804733 0.98015243
v -0.59375000 -0.06117733 0.98015243
v -0.59375000 -0.06507733 0.98015243
v -0.59377998 -0.10804733 -0.76603758
v -0.59382999 -0.13148484 0.97223240
v -0.59380001 -0.11585733 0.98004240
v -0.59380001 -0.00648733 0.98004240
v -0.59375000 -0.05335733 -0.76610762
v -0.59375000 -0.11585733 -0.76610762
v -0.59375000 -0.07679733 -0.76610762
v -0.59377998 -0.07288733 -0.76603758
v -0.59375000 0.01303267 -0.76610762
v -0.59377998 -0.07679733 -0.76603758
v -0.59380001 -0.11976733 0.98004240
v -0.59375000 -0.13538733 0.98015243
v -0.59380001 -0.13538733 0.98004240
v -0.59375000 -0.02992733 -0.76610762
v -0.59377998 -0.02992733 -0.76603758
v -0.59377998 -0.02601733 -0.76603758
v -0.58983999 -0.04213108 -0.76936758
v -0.59375000 -0.04945733 -0.76610762
v -0.59375000 0.00913267 -0.76610762
v -0.59375000 -0.09632733 -0.76610762
v -0.59380001 -0.07679733 0.98004240
v -0.59382999 -0.07679733 0.97223240
v -0.59380001 -0.05726733 0.98004240
v -0.59375000 -0.02601733 0.98015243
v -0.59375000 -0.00648733 -0.76610762
v -0.59375000 -0.08070733 0.98015243
v -0.59377998 -0.04945733 -0.76603758
v -0.59377998 0.00132267 -0.76603758
v -0.59380001 -0.14320733 0.98004240
v -0.59377998 -0.02210733 -0.76603758
v -0.59375000 -0.08070733 -0.76610762
v -0.59377998 -0.08070733 -0.76603758
v -0.59375000 -0.01038733 -0.76610762
v -0.59382999 -0.02015733 0.97223240
v -0.59380001 -0.02210733 0.98004240
v -0.59375000 -0.02210733 0.98015243
v -0.59380001 -0.05335733 0.98004240
v -0.59375000 -0.09632733 0.98015243
v -0.59375000 -0.04554733 0.98015243
v -0.59377998 -0.01429733 -0.76603758
v -0.59375000 -0.02210733 -0.76610762
v -0.59375000 -0.11976733 0.98015243
v -0.59380001 -0.02992733 0.98004240
v -0.59380001 -0.02601733 0.98004240
v -0.59375000 -0.05726733 0.98015243
v -0.59380001 -0.04554733 0.98004240
v -0.59375000 0.02475267 0.98015243
v -0.58983999 0.01889642 0.98348242
v -0.59375000 0.02085267 -0.76610762
v -0.59380001 -0.00257733 0.98004240
v -0.59375000 -0.00257733 0.98015243
v -0.58983999 -0.03578233 0.98348242
v -0.59375000 0.04038267 0.98015243
v -0.59380001 0.04428267 0.98004240
v -0.59380001 0.04038267 0.98004240
v -0.59377998 -0.01820733 -0.76603758
v -0.59375000 -0.01820733 -0.76610762
v -0.59375000 0.03647267 0.98015243
v -0.59375000 -0.02992733 0.98015243
v -0.59375000 -0.01429733 -0.76610762
v -0.59380001 -0.01429733 0.98004240
v -0.59375000 0.06772267 -0.76610762
v -0.59380001 0.04819267 0.98004240
v -0.59380001 0.02866267 0.98004240
v -0.59380001 0.02475267 0.98004240
v -0.59375000 0.01303267 0.98015243
v -0.59380001 0.01694267 0.98004240
v -0.59380001 0.01303267 0.98004240
v -0.59375000 -0.00257733 -0.76610762
v -0.58983999 0.04526517 -0.76936758
v -0.59375000 0.00913267 0.98015243
v -0.59380001 -0.01820733 0.98004240
v -0.59380001 0.05210267 0.98004240
v -0.59375000 0.02085267 0.98015243
v -0.59375000 0.01694267 0.98015243
v -0.59380001 0.02085267 0.98004240
v -0.59377998 0.06772267 -0.76603758
v -0.59375000 -0.01820733 0.98015243
v -0.59382999 0.00718267 0.97223240
v -0.59375000 0.04819267 0.98015243
v -0.58983999 0.03842767 0.98348242
v -0.59375000 0.07553267 0.98015243
v -0.59375000 0.07163266 0.98015243
v -0.59380001 0.07553267 0.98004240
v -0.59382987 0.05450379 -0.76060426
v -0.59375000 0.04428267 0.98015243
v -0.59375000 0.05991267 0.98015243
v -0.59380001 0.07944267 0.98004240
v -0.59382999 0.04819267 0.97223240
v -0.58983999 0.06479454 0.98348242
v -0.59380001 0.07163266 0.98004240
v -0.59382999 0.07748892 0.97223240
v -0.59302950 0.14303745 0.98057002
v -0.55554348 0.18450855 -0.74330288
v -0.54328114 0.19265480 0.32037786
v -0.58983999 -0.01087983 -0.76936758
v -0.54332036 0.20782696 0.40252569
v -0.38821968 0.14742419 -0.28161278
v -0.42523012 0.19382666 0.32789013
v -0.58983999 0.01840704 -0.76936758
v -0.33983999 0.20444266 0.31492242
v -0.33984870 0.20053717 0.31599340
v -0.33983999 0.20057267 0.31598240
v -0.32811999 0.20057267 0.31598240
v -0.33592999 0.20057267 0.31598240
v -0.33203000 0.20057267 0.31598240
v -0.33203000 0.20053267 0.31600240
v -0.33592999 0.20053267 0.31600240
v -0.32811999 0.20053267 0.31600240
v -0.31250000 0.20053267 0.31600240
v -0.31639999 0.20057267 0.31598240
v -0.31250000 0.20057267 0.31598240
v -0.32031000 0.20053267 0.31600240
v -0.31639999 0.20053267 0.31600240
v -0.32031000 0.20057267 0.31598240
v -0.32420999 0.20057267 0.31598240
v -0.32420999 0.20053267 0.31600240
v -0.30078000 0.20053267 0.31600240
v -0.30467999 0.20057267 0.31598240
v -0.30078000 0.20057267 0.31598240
v -0.31542423 0.18511315 0.32913420
v -0.29686999 0.20053267 0.31600240
v -0.29686999 0.20057267 0.31598240
v -0.30858999 0.20053267 0.31600240
v -0.30467999 0.20053267 0.31600240
v -0.30858999 0.20057267 0.31598240
v -0.29908335 0.20167175 0.29294825
v -0.29286173 0.20054179 0.31598929
v -0.27813831 0.19872227 0.31571659
v -0.29255599 0.19977441 0.31589991
v -0.29295999 0.20053267 0.31600240
v -0.15529718 0.19518337 -0.82978261
v -0.18063372 0.18856804 0.59043014
v -0.11890821 0.17879418 0.56292850
v -0.14843000 0.17317265 0.58942240
v -0.18818828 0.17493613 0.58311027
v -0.14453000 0.17319266 0.58943242
v -0.14061999 0.17319266 0.58943242
v -0.14843000 0.17319266 0.58943242
v -0.13281000 0.17319266 0.58943242
v -0.13281000 0.17317265 0.58942240
v -0.12890001 0.17317265 0.58942240
v -0.08593000 0.17319266 0.58943242
v -0.08203000 0.17319266 0.58943242
v -0.47227442 0.07276016 0.75819105
v -0.13671000 0.17317265 0.58942240
v -0.13671000 0.17319266 0.58943242
v -0.14453000 0.17317265 0.58942240
v -0.14061999 0.17317265 0.58942240
v -0.12500000 0.17319266 0.58943242
v -0.12890001 0.17319266 0.58943242
v -0.12500000 0.17317265 0.58942240
v -0.09765000 0.17317265 0.58942240
v -0.07421000 0.17317265 0.58942240
v -0.11328000 0.17319266 0.58943242
v -0.11718000 0.17317265 0.58942240
v -0.11328000 0.17317265 0.58942240
v -0.11718000 0.17319266 0.58943242
v -0.12109000 0.17317265 0.58942240
v -0.12109000 0.17319266 0.58943242
v -0.10937000 0.17317265 0.58942240
v -0.10937000 0.17319266 0.58943242
v -0.09375000 0.17319266 0.58943242
v -0.15199931 0.18869959 0.56836766
v -0.09375000 0.17317265 0.58942240
v -0.09765000 0.17319266 0.58943242
v -0.10546000 0.17319266 0.58943242
v -0.10156000 0.17319266 0.58943242
v -0.10546000 0.17317265 0.58942240
v -0.10156000 0.17317265 0.58942240
v -0.07031000 0.17317265 0.58942240
v -0.08984000 0.17317265 0.58942240
v -0.08593000 0.17317265 0.58942240
v -0.08984000 0.17319266 0.58943242
v -0.06250000 0.17317265 0.58942240
v -0.06250000 0.17319266 0.58943242
v -0.06640000 0.17319266 0.58943242
v -0.05078000 0.17317265 0.58942240
v -0.07031000 0.17319266 0.58943242
v -0.08203000 0.17317265 0.58942240
v -0.07812000 0.17317265 0.58942240
v -0.07421000 0.17319266 0.58943242
v -0.05468000 0.17319266 0.58943242
v -0.07812000 0.17319266 0.58943242
v -0.06640000 0.17317265 0.58942240
v -0.05468000 0.17317265 0.58942240
v -0.05078000 0.17319266 0.58943242
v -0.05859000 0.17319266 0.58943242
v -0.04687000 0.17317265 0.58942240
v -0.04296000 0.17317265 0.58942240
v -0.04687000 0.17319266 0.58943242
v -0.03906000 0.17319266 0.58943242
v -0.03515000 0.17319266 0.58943242
v -0.05002265 0.17573698 0.55935770
v -0.04296000 0.17319266 0.58943242
v -0.03125000 0.17319266 0.58943242
v -0.05859000 0.17317265 0.58942240
v -0.03906000 0.17317265 0.58942240
v -0.03515000 0.17317265 0.58942240
v -0.09166008 0.19965403 0.57678491
v -0.03125000 0.17317265 0.58942240
v -0.04223146 0.19540873 0.58513629
v 0.00390000 0.17319266 0.58943242
v -0.01171000 0.17319266 0.58943242
v 0.05468000 0.17317265 0.58942240
v 0.09368409 0.18485251 -0.66014296
v 0.00781000 0.17319266 0.58943242
v 0.01171000 0.17317265 0.58942240
v 0.01171000 0.17319266 0.58943242
v 0.01562000 0.17319266 0.58943242
v 0.01953000 0.17319266 0.58943242
v -0.02734000 0.17319266 0.58943242
v -0.02343000 0.17317265 0.58942240
v -0.01953000 0.17317265 0.58942240
v -0.02343000 0.17319266 0.58943242
v -0.01953000 0.17319266 0.58943242
v -0.02734000 0.17317265 0.58942240
v -0.01562000 0.17317265 0.58942240
v -0.00390000 0.17319266 0.58943242
v 0.02343000 0.17319266 0.58943242
v -0.00781000 0.17319266 0.58943242
v 0.00000000 0.17319266 0.58943242
v -0.01562000 0.17319266 0.58943242
v -0.01171000 0.17317265 0.58942240
v 0.00559163 0.19362520 0.56334472
v -0.00781000 0.17317265 0.58942240
v -0.00390000 0.17317265 0.58942240
v 0.00000000 0.17317265 0.58942240
v 0.03906000 0.17319266 0.58943242
v 0.04296000 0.17317265 0.58942240
v 0.04296000 0.17319266 0.58943242
v 0.00390000 0.17317265 0.58942240
v 0.00781000 0.17317265 0.58942240
v 0.03515000 0.17317265 0.58942240
v 0.01953000 0.17317265 0.58942240
v 0.02734000 0.17319266 0.58943242
v 0.03125000 0.17319266 0.58943242
v 0.01562000 0.17317265 0.58942240
v 0.02343000 0.17317265 0.58942240
v 0.03125000 0.17317265 0.58942240
v 0.02734000 0.17317265 0.58942240
v 0.05859000 0.17317265 0.58942240
v 0.06250000 0.17317265 0.58942240
v 0.05859000 0.17319266 0.58943242
v 0.03906000 0.17317265 0.58942240
v 0.05468000 0.17319266 0.58943242
v 0.05078000 0.17319266 0.58943242
v 0.06640000 0.17317265 0.58942240
v 0.07031000 0.17317265 0.58942240
v 0.06640000 0.17319266 0.58943242
v 0.04687000 0.17319266 0.58943242
v 0.09375076 0.18891834 -0.66843367
v 0.09376000 0.18882267 -0.66837758
v 0.03515000 0.17319266 0.58943242
v 0.05078000 0.17317265 0.58942240
v 0.02176384 0.19029643 0.62192249
v 0.06250000 0.17319266 0.58943242
v 0.04687000 0.17317265 0.58942240
v 0.09375000 0.18496267 -0.66056758
v 0.08474770 0.19662330 -0.59720784
v 0.07421000 0.17317265 0.58942240
v 0.08203000 0.17317265 0.58942240
v 0.08710671 0.20015623 -0.67443061
v 0.07031000 0.17319266 0.58943242
v 0.07421000 0.17319266 0.58943242
v 0.09136692 0.18311699 -0.66990972
v 0.09375000 0.18870267 -0.66837758
v 0.08806164 0.19069032 -0.66223788
v 0.17578000 0.17319266 0.58943242
v 0.08984000 0.17319266 0.58943242
v 0.09375000 0.17319266 0.58943242
v 0.11766240 0.19863568 0.58731282
v 0.08984000 0.17317265 0.58942240
v 0.09375000 0.17317265 0.58942240
v 0.07812000 0.17317265 0.58942240
v 0.07812000 0.17319266 0.58943242
v 0.06925522 0.18605983 0.58705270
v 0.08593000 0.17317265 0.58942240
v 0.08203000 0.17319266 0.58943242
v 0.08593000 0.17319266 0.58943242
v 0.09340948 0.18797962 -0.67130882
v 0.09384391 0.18504061 -0.66127527
v 0.09376000 0.18882267 -0.66447759
v 0.09375000 0.18886267 -0.66447759
v 0.09375000 0.18882267 -0.66442758
v 0.08984000 0.19272266 -0.66305757
v 0.07038143 0.18307573 0.56185681
v 0.10156000 0.17319266 0.58943242
v 0.10546000 0.17319266 0.58943242
v 0.16015001 0.17317265 0.58942240
v 0.13281000 0.17319266 0.58943242
v 0.13671000 0.17319266 0.58943242
v 0.11328000 0.17317265 0.58942240
v 0.11718000 0.17317265 0.58942240
v 0.11328000 0.17319266 0.58943242
v 0.10937000 0.17317265 0.58942240
v 0.10937000 0.17319266 0.58943242
v 0.09765000 0.17319266 0.58943242
v 0.09765000 0.17317265 0.58942240
v 0.10156000 0.17317265 0.58942240
v 0.10546000 0.17317265 0.58942240
v 0.12500000 0.17317265 0.58942240
v 0.12500000 0.17319266 0.58943242
v 0.12109000 0.17319266 0.58943242
v 0.12611923 0.18965407 0.56178921
v 0.11718000 0.17319266 0.58943242
v 0.12109000 0.17317265 0.58942240
v 0.14453000 0.17319266 0.58943242
v 0.14843000 0.17317265 0.58942240
v 0.14843000 0.17319266 0.58943242
v 0.13671000 0.17317265 0.58942240
v 0.14061999 0.17317265 0.58942240
v 0.14061999 0.17319266 0.58943242
v 0.15625000 0.17317265 0.58942240
v 0.15625000 0.17319266 0.58943242
v 0.15233999 0.17319266 0.58943242
v 0.12890001 0.17319266 0.58943242
v 0.14453000 0.17317265 0.58942240
v -0.20306502 -0.20446521 -0.78901136
v 0.13281000 0.17317265 0.58942240
v 0.12890001 0.17317265 0.58942240
v 0.15233999 0.17317265 0.58942240
v 0.20311999 0.17319266 0.58943242
v 0.20703000 0.17319266 0.58943242
v 0.19070330 0.20594956 0.58875233
v 0.17968000 0.17317265 0.58942240
v 0.16015001 0.17319266 0.58943242
v 0.18358999 0.17319266 0.58943242
v 0.16406000 0.17317265 0.58942240
v 0.16406000 0.17319266 0.58943242
v 0.59375000 -0.15882733 -0.76610762
v 0.16796000 0.17319266 0.58943242
v 0.17578000 0.17317265 0.58942240
v 0.17186999 0.17317265 0.58942240
v 0.17186999 0.17319266 0.58943242
v 0.17968000 0.17319266 0.58943242
v 0.18750000 0.17317265 0.58942240
v 0.18750000 0.17319266 0.58943242
v 0.16796000 0.17317265 0.58942240
v 0.18358999 0.17317265 0.58942240
v 0.25000000 0.17317265 0.58942240
v 0.19531000 0.17319266 0.58943242
v 0.19921000 0.17317265 0.58942240
v 0.19921000 0.17319266 0.58943242
v 0.21093000 0.17319266 0.58943242
v 0.24608999 0.17317265 0.58942240
v 0.24608999 0.17319266 0.58943242
v 0.23436999 0.17319266 0.58943242
v 0.20311999 0.17317265 0.58942240
v 0.19140001 0.17319266 0.58943242
v 0.21483999 0.17319266 0.58943242
v 0.21875000 0.17319266 0.58943242
v 0.19531000 0.17317265 0.58942240
v 0.19140001 0.17317265 0.58942240
v 0.20703000 0.17317265 0.58942240
v 0.21093000 0.17317265 0.58942240
v 0.21483999 0.17317265 0.58942240
v 0.21875000 0.17317265 0.58942240
v 0.20404893 0.18557556 0.55897659
v 0.22656000 0.17319266 0.58943242
v 0.23046000 0.17319266 0.58943242
v 0.23828000 0.17319266 0.58943242
v 0.24218000 0.17319266 0.58943242
v 0.57310694 -0.20771703 0.95752001
v 0.23046000 0.17317265 0.58942240
v 0.22265001 0.17319266 0.58943242
v 0.22265001 0.17317265 0.58942240
v 0.22656000 0.17317265 0.58942240
v 0.22258721 0.17319202 0.55995262
v 0.23436999 0.17317265 0.58942240
v 0.23828000 0.17317265 0.58942240
v 0.24218000 0.17317265 0.58942240
v 0.25000000 0.17319266 0.58943242
v 0.26561999 0.17319266 0.58943242
v 0.26170999 0.17319266 0.58943242
v 0.27854151 0.19033229 0.56336451
v 0.25781000 0.17319266 0.58943242
v 0.25781000 0.17317265 0.58942240
v 0.26170999 0.17317265 0.58942240
v 0.26561999 0.17317265 0.58942240
v 0.27733999 0.17317265 0.58942240
v 0.28125000 0.17317265 0.58942240
v 0.27733999 0.17319266 0.58943242
v 0.25389999 0.17317265 0.58942240
v 0.33983999 0.17319266 0.58943242
v 0.44287658 0.19360757 0.80601561
v 0.25389999 0.17319266 0.58943242
v 0.26953000 0.17317265 0.58942240
v 0.26953000 0.17319266 0.58943242
v 0.27342999 0.17319266 0.58943242
v 0.25835395 0.18986744 0.58738965
v 0.27342999 0.17317265 0.58942240
v 0.28125000 0.17319266 0.58943242
v 0.16974348 0.19420178 0.26794761
v 0.31639999 0.17319266 0.58943242
v 0.28514999 0.17317265 0.58942240
v 0.28514999 0.17319266 0.58943242
v 0.29295999 0.17317265 0.58942240
v 0.30078000 0.17319266 0.58943242
v 0.30078000 0.17317265 0.58942240
v 0.29686999 0.17319266 0.58943242
v 0.30858999 0.17317265 0.58942240
v 0.31250000 0.17317265 0.58942240
v 0.30858999 0.17319266 0.58943242
v 0.31250000 0.17319266 0.58943242
v 0.29295999 0.17319266 0.58943242
v 0.29686999 0.17317265 0.58942240
v 0.30467999 0.17317265 0.58942240
v 0.30467999 0.17319266 0.58943242
v 0.28906000 0.17317265 0.58942240
v 0.28906000 0.17319266 0.58943242
v 0.30943701 0.19835585 0.58713478
v 0.59377998 -0.16273732 -0.76603758
v 0.59377998 -0.15882733 -0.76603758
v 0.32031000 0.17319266 0.58943242
v 0.34375000 0.17319266 0.58943242
v 0.32420999 0.17319266 0.58943242
v 0.32811999 0.17319266 0.58943242
v 0.33203000 0.17319266 0.58943242
v 0.34964520 0.19735058 0.58610654
v 0.32420999 0.17317265 0.58942240
v 0.32031000 0.17317265 0.58942240
v 0.33203000 0.17317265 0.58942240
v 0.33983999 0.17317265 0.58942240
v 0.34375000 0.17317265 0.58942240
v 0.38281000 0.17319266 0.58943242
v 0.38670999 0.17317265 0.58942240
v 0.38670999 0.17319266 0.58943242
v 0.32811999 0.17317265 0.58942240
v 0.31639999 0.17317265 0.58942240
v 0.33592999 0.17319266 0.58943242
v 0.59377998 -0.13148732 -0.76603758
v 0.59377998 -0.12757733 -0.76603758
v 0.33592999 0.17317265 0.58942240
v 0.34764999 0.17319266 0.58943242
v 0.34764999 0.17317265 0.58942240
v 0.35156000 0.17317265 0.58942240
v 0.35156000 0.17319266 0.58943242
v 0.59380001 -0.08460733 0.98004240
v 0.59380001 -0.08070733 0.98004240
v 0.59375000 -0.08070733 0.98015243
v 0.35936999 0.17317265 0.58942240
v 0.37500000 0.17319266 0.58943242
v 0.36328000 0.17319266 0.58943242
v 0.36717999 0.17317265 0.58942240
v 0.36717999 0.17319266 0.58943242
v 0.37108999 0.17317265 0.58942240
v 0.37108999 0.17319266 0.58943242
v 0.35504153 0.18458037 0.56233758
v 0.35936999 0.17319266 0.58943242
v 0.35545999 0.17317265 0.58942240
v 0.35545999 0.17319266 0.58943242
v 0.36328000 0.17317265 0.58942240
v 0.37500000 0.17317265 0.58942240
v 0.41014999 0.17317265 0.58942240
v 0.41406000 0.17317265 0.58942240
v 0.41014999 0.17319266 0.58943242
v 0.58983999 -0.02479671 -0.76936758
v 0.39061999 0.17317265 0.58942240
v 0.39453000 0.17317265 0.58942240
v 0.39842999 0.17317265 0.58942240
v 0.39453000 0.17319266 0.58943242
v 0.37889999 0.17317265 0.58942240
v 0.39842999 0.17319266 0.58943242
v 0.59377998 -0.15492733 -0.76603758
v 0.59382910 -0.15682600 -0.75507188
v 0.40625000 0.17317265 0.58942240
v 0.40625000 0.17319266 0.58943242
v 0.40233999 0.17319266 0.58943242
v 0.41795999 0.17319266 0.58943242
v 0.42186999 0.17317265 0.58942240
v 0.42186999 0.17319266 0.58943242
v 0.37889999 0.17319266 0.58943242
v 0.38281000 0.17317265 0.58942240
v 0.37897819 0.17174909 0.55929428
v 0.40233999 0.17317265 0.58942240
v 0.39061999 0.17319266 0.58943242
v 0.59375000 -0.02992733 0.98015243
v 0.59375000 -0.03382733 0.98015243
v 0.59380001 -0.03382733 0.98004240
v 0.40900189 0.19822533 0.57575595
v 0.41406000 0.17319266 0.58943242
v 0.41795999 0.17317265 0.58942240
v 0.42967999 0.17319266 0.58943242
v 0.43358999 0.17317265 0.58942240
v 0.43358999 0.17319266 0.58943242
v 0.42382312 0.17056267 0.58551240
v 0.44531000 0.17317265 0.58942240
v 0.44920999 0.17317265 0.58942240
v 0.44531000 0.17319266 0.58943242
v 0.42578000 0.17319266 0.58943242
v 0.43750000 0.17317265 0.58942240
v 0.43750000 0.17319266 0.58943242
v 0.42578000 0.17317265 0.58942240
v 0.58983999 0.10727517 0.98348242
v 0.44139999 0.17317265 0.58942240
v 0.44139999 0.17319266 0.58943242
v 0.42967999 0.17317265 0.58942240
v 0.44920999 0.17319266 0.58943242
v 0.45311999 0.17317265 0.58942240
v 0.45311999 0.17319266 0.58943242
v 0.42515936 0.18530338 -0.61923867
v 0.45703000 0.17319266 0.58943242
v 0.46092999 0.17319266 0.58943242
v 0.46483999 0.17317265 0.58942240
v 0.45703000 0.17317265 0.58942240
v 0.55221546 -0.27322990 -0.55557376
v 0.46092999 0.17317265 0.58942240
v 0.48385718 0.17930710 0.59065020
v 0.58983999 -0.14930733 -0.76936758
v 0.44643015 0.19300881 0.58463413
v 0.59377998 -0.13929732 -0.76603758
v 0.59375000 -0.13538733 -0.76610762
v 0.59377998 -0.13538733 -0.76603758
v 0.54093164 -0.03307901 0.98348242
v 0.46925214 0.18091412 0.56353909
v 0.59377998 -0.10023733 -0.76603758
v 0.59377998 -0.03382733 -0.76603758
v 0.59375000 -0.02992733 -0.76610762
v 0.59377998 -0.02992733 -0.76603758
v 0.59382999 -0.00062983 0.97223240
v 0.59375000 -0.05335733 0.98015243
v 0.59362036 -0.14144456 0.98117226
v 0.59380001 -0.12367733 0.98004240
v 0.59375000 -0.04554733 -0.76610762
v 0.59380001 0.01694267 0.98004240
v 0.59380001 0.02085267 0.98004240
v 0.59376389 -0.17075163 -0.76609015
v 0.59375000 0.00913267 0.98015243
v 0.59380001 0.00522267 0.98004240
v 0.59380001 0.00913267 0.98004240
v 0.59375000 0.07553267 0.98015243
v 0.58983999 0.01206204 -0.76936758
v 0.59375000 0.00913267 -0.76610762
v 0.59375000 0.01303267 -0.76610762
v 0.59377998 0.00913267 -0.76603758
v 0.59375000 -0.04945733 -0.76610762
v 0.59377998 -0.04945733 -0.76603758
v 0.59377998 0.01694267 -0.76603758
v 0.59375000 0.02085267 -0.76610762
v 0.59377998 0.02085267 -0.76603758
v 0.59380001 -0.07679733 0.98004240
v 0.59380001 -0.07288733 0.98004240
v 0.59375000 -0.10804733 0.98015243
v 0.59380001 -0.11195733 0.98004240
v 0.59380001 -0.10804733 0.98004240
v 0.59377998 0.07163266 -0.76603758
v 0.59377998 0.07553267 -0.76603758
v 0.59375000 0.07553267 -0.76610762
v 0.59377998 -0.03773733 -0.76603758
v 0.59377998 -0.08851733 -0.76603758
v 0.59377998 -0.09242733 -0.76603758
v 0.59375000 -0.08851733 -0.76610762
v 0.59377998 -0.06117733 -0.76603758
v 0.59375000 -0.05726733 -0.76610762
v 0.59377998 -0.05726733 -0.76603758
v 0.59375000 0.04428267 0.98015243
v 0.59375000 0.09897267 -0.76610762
v 0.59375000 0.10288266 -0.76610762
v 0.59377998 0.09897267 -0.76603758
v 0.58983999 0.12387767 -0.76936758
v 0.59382999 -0.08460983 0.97223240
v 0.59382999 0.02475517 0.97223240
v 0.59375000 0.06382267 -0.76610762
v 0.59375000 0.06772267 -0.76610762
v 0.59377998 0.06382267 -0.76603758
v 0.59375000 -0.11976733 0.98015243
v 0.58983999 0.06967767 -0.76936758
v 0.59375000 -0.04554733 0.98015243
v 0.58926332 0.15131783 0.97934163
v 0.59377998 -0.02210733 -0.76603758
v 0.59375000 -0.01820733 -0.76610762
v 0.59377998 -0.01820733 -0.76603758
v 0.59380001 0.12241267 0.98004240
v 0.59380001 0.12632267 0.98004240
v 0.59375000 0.10678267 0.98015243
v 0.59380001 0.10288266 0.98004240
v 0.59380001 0.10678267 0.98004240
v 0.59375000 -0.09242733 -0.76610762
v 0.59380001 -0.10023733 0.98004240
v 0.59375000 -0.10023733 0.98015243
v 0.59380001 -0.10413733 0.98004240
v 0.56105494 0.18132286 0.51494831
v 0.59375000 0.00132267 0.98015243
v 0.59380001 -0.00257733 0.98004240
v 0.59380001 0.00132267 0.98004240
v 0.58983999 -0.06385983 0.98348242
v 0.59375000 -0.06507733 0.98015243
v 0.59375000 -0.02601733 -0.76610762
v 0.59377998 -0.02601733 -0.76603758
v 0.59375000 -0.05726733 0.98015243
v 0.59380001 -0.09632733 0.98004240
v 0.59380001 -0.09242733 0.98004240
v 0.59375000 -0.16663733 -0.76610762
v 0.59375000 -0.16273732 -0.76610762
v 0.59377998 -0.16663733 -0.76603758
v 0.59377998 -0.05335733 -0.76603758
v 0.59377998 -0.17054732 -0.76603758
v 0.59377998 0.12632267 -0.76603758
v 0.59376347 0.12768938 -0.76608765
v 0.59377998 -0.09632733 -0.76603758
v 0.59375000 -0.01820733 0.98015243
v 0.59380001 -0.02210733 0.98004240
v 0.59380001 -0.01820733 0.98004240
v 0.59375000 -0.11585733 -0.76610762
v 0.59375000 -0.15492733 -0.76610762
v 0.59179503 -0.12440733 0.98181742
v 0.59375000 -0.14710733 -0.76610762
v 0.59375000 -0.14320733 -0.76610762
v 0.59377998 -0.14710733 -0.76603758
v 0.59375000 -0.08851733 0.98015243
v 0.59375000 -0.08460733 0.98015243
v 0.59380001 -0.08851733 0.98004240
v 0.59375000 -0.08460733 -0.76610762
v 0.59377998 -0.08460733 -0.76603758
v 0.59380001 -0.04945733 0.98004240
v 0.59382999 -0.03089983 0.97223240
v 0.59380001 -0.04554733 0.98004240
v 0.59375000 -0.08070733 -0.76610762
v 0.59375000 -0.07679733 -0.76610762
v 0.59377998 -0.08070733 -0.76603758
v 0.59375000 -0.07679733 0.98015243
v 0.59380001 -0.04163733 0.98004240
v 0.59380001 -0.03773733 0.98004240
v 0.59382999 -0.13343859 0.97223240
v 0.58983999 -0.07581983 -0.76936758
v 0.59377998 -0.04554733 -0.76603758
v 0.59375000 -0.04945733 0.98015243
v 0.59380001 -0.05335733 0.98004240
v 0.59380001 -0.11585733 0.98004240
v 0.59375000 -0.11195733 0.98015243
v 0.59377998 0.05600267 -0.76603758
v 0.59377998 0.05991267 -0.76603758
v 0.59375000 0.05991267 -0.76610762
v 0.59375000 0.01694267 0.98015243
v 0.59380001 0.01303267 0.98004240
v 0.59375000 -0.04163733 0.98015243
v 0.59375000 0.01303267 0.98015243
v 0.59377998 0.04038267 -0.76603758
v 0.59375000 -0.13148732 -0.76610762
v 0.59380001 0.07163266 0.98004240
v 0.59380001 0.07553267 0.98004240
v 0.59375000 -0.11195733 -0.76610762
v 0.59377998 -0.15101732 -0.76603758
v 0.59375000 -0.02601733 0.98015243
v 0.59380001 -0.02992733 0.98004240
v 0.59380001 -0.02601733 0.98004240
v 0.59375000 -0.01038733 0.98015243
v 0.59375000 -0.15101732 -0.76610762
v 0.59375000 -0.02210733 0.98015243
v 0.58983999 -0.03675796 0.98348242
v 0.59375000 -0.10804733 -0.76610762
v 0.59377998 -0.11195733 -0.76603758
v 0.59375000 -0.00257733 0.98015243
v 0.59380001 -0.00648733 0.98004240
v 0.59380001 -0.05726733 0.98004240
v 0.59375000 0.08335267 0.98015243
v 0.59380001 0.07944267 0.98004240
v 0.59380001 0.08335267 0.98004240
v 0.59375000 -0.11585733 0.98015243
v 0.59375000 -0.07288733 -0.76610762
v 0.59375000 -0.06898733 -0.76610762
v 0.59377998 -0.07288733 -0.76603758
v 0.59375000 -0.10413733 0.98015243
v 0.59380001 -0.06898733 0.98004240
v 0.59380001 -0.06507733 0.98004240
v 0.59375000 -0.01429733 -0.76610762
v 0.59375000 -0.01038733 -0.76610762
v 0.59377998 -0.01429733 -0.76603758
v 0.59375000 -0.12367733 -0.76610762
v 0.59377998 -0.12367733 -0.76603758
v 0.59380001 -0.01429733 0.98004240
v 0.59380001 -0.01038733 0.98004240
v 0.59375000 0.04038267 -0.76610762
v 0.59375000 0.04428267 -0.76610762
v 0.59380001 -0.11976733 0.98004240
v 0.59377998 0.04428267 -0.76603758
v 0.59382999 -0.02992233 -0.75431758
v 0.59380001 0.11069267 0.98004240
v 0.59375000 -0.03773733 -0.76610762
v 0.59377998 0.02475267 -0.76603758
v 0.59377998 0.02866267 -0.76603758
v 0.59375000 0.02866267 -0.76610762
v 0.59377998 -0.07679733 -0.76603758
v 0.59380001 -0.06117733 0.98004240
v 0.59382999 -0.05726733 0.97223240
v 0.59382999 -0.10267546 -0.75431758
v 0.59382999 -0.07484483 -0.75431758
v 0.59377998 -0.06898733 -0.76603758
v 0.59375000 0.00522267 -0.76610762
v 0.59375000 -0.07288733 0.98015243
v 0.59375000 -0.06898733 0.98015243
v 0.59375000 -0.03773733 0.98015243
v 0.59375000 -0.09632733 0.98015243
v 0.59375000 -0.09242733 0.98015243
v 0.59375000 -0.06117733 -0.76610762
v 0.58983999 -0.04945358 -0.76936758
v 0.59375000 -0.06507733 -0.76610762
v 0.59377998 -0.06507733 -0.76603758
v 0.59397674 0.14991695 0.97915763
v 0.59377998 -0.11976733 -0.76603758
v 0.59375000 -0.11976733 -0.76610762
v 0.59375000 0.03647267 -0.76610762
v 0.59377998 0.03647267 -0.76603758
v 0.58983999 -0.09144546 0.98348242
v 0.59377998 0.01303267 -0.76603758
v 0.59375000 0.01694267 -0.76610762
v 0.59375000 -0.02210733 -0.76610762
v 0.58983999 0.01791954 0.98348242
v 0.59375000 0.03647267 0.98015243
v 0.59380001 0.03257267 0.98004240
v 0.59380001 0.03647267 0.98004240
v 0.59375000 0.07944267 0.98015243
v 0.59377998 0.05210267 -0.76603758
v 0.59375000 0.05600267 -0.76610762
v 0.59377998 0.11850267 -0.76603758
v 0.59382999 0.10776392 0.97223240
v 0.59375000 -0.01429733 0.98015243
v 0.59380001 0.04038267 0.98004240
v 0.59380001 0.04428267 0.98004240
v 0.59377998 0.04819267 -0.76603758
v 0.59375000 0.04819267 -0.76610762
v 0.59375000 0.06382267 0.98015243
v 0.59375000 0.05991267 0.98015243
v 0.59380001 0.05991267 0.98004240
v 0.59375000 0.03257267 -0.76610762
v 0.59375000 -0.00648733 0.98015243
v 0.59377998 -0.00648733 -0.76603758
v 0.59375000 0.12241267 -0.76610762
v 0.58983999 0.04575267 0.98348242
v 0.59375000 0.00132267 -0.76610762
v 0.59375000 0.02475267 -0.76610762
v 0.59375000 0.07944267 -0.76610762
v 0.59375000 0.08335267 -0.76610762
v 0.59377998 0.07944267 -0.76603758
v 0.59375000 0.08725267 0.98015243
v 0.59380001 0.08725267 0.98004240
v 0.59375000 0.07163266 0.98015243
v 0.59375000 -0.06117733 0.98015243
v 0.58983999 0.04697329 -0.76936758
v 0.59375000 0.12632267 -0.76610762
v 0.59382868 0.05491611 -0.76128036
v 0.59375000 0.11069267 0.98015243
v 0.59375000 0.11069267 -0.76610762
v 0.59382939 0.08727231 -0.76184833
v 0.59380001 0.04819267 0.98004240
v 0.59380001 0.05210267 0.98004240
v 0.59377998 0.03257267 -0.76603758
v 0.59380001 0.05600267 0.98004240
v 0.59375000 0.12241267 0.98015243
v 0.59375000 0.11850267 0.98015243
v 0.59380001 0.11850267 0.98004240
v 0.59375000 0.04038267 0.98015243
v 0.58983999 0.13852517 0.98348242
v 0.59375000 0.14194266 0.98015243
v 0.59377998 0.06772267 -0.76603758
v 0.59377998 0.10288266 -0.76603758
v 0.59375000 0.14975268 -0.76610762
v 0.59377998 -0.01038733 -0.76603758
v 0.59375000 -0.00648733 -0.76610762
v 0.58983999 0.07089954 0.98348242
v 0.59382969 0.14975373 0.97298169
v 0.59380001 0.13022266 0.98004240
v 0.59382999 0.06137704 0.97223240
v 0.59380001 0.06382267 0.98004240
v 0.59375000 0.14194266 -0.76610762
v 0.59377998 0.14194266 -0.76603758
v 0.59375000 0.11460267 0.98015243
v 0.59377998 0.08725267 -0.76603758
v 0.59377998 -0.14320733 -0.76603758
v 0.59375000 -0.13929732 -0.76610762
v 0.59375000 0.10288266 0.98015243
v 0.59380001 0.11460267 0.98004240
v 0.59375000 0.09507267 -0.76610762
v 0.59375000 0.12632267 0.98015243
v 0.59375000 0.07163266 -0.76610762
v 0.59377998 0.11460267 -0.76603758
v 0.59377998 0.11069267 -0.76603758
v 0.59375000 0.10678267 -0.76610762
v 0.59377998 0.08335267 -0.76603758
v 0.58983999 -0.10511921 -0.76936758
v 0.59375000 0.14585267 -0.76610762
v 0.59377998 0.14585267 -0.76603758
v 0.59380287 0.14107966 -0.76597893
v 0.59380001 0.02475267 0.98004240
v 0.59380001 0.02866267 0.98004240
v 0.59377998 -0.00257733 -0.76603758
v 0.59375000 -0.12757733 -0.76610762
v 0.59377998 0.09507267 -0.76603758
v 0.59377998 0.00132267 -0.76603758
v 0.59375000 0.02085267 0.98015243
v 0.59375000 0.04819267 0.98015243
v 0.59375000 0.09897267 0.98015243
v 0.59375000 0.02475267 0.98015243
v 0.59375000 0.13803267 0.98015243
v 0.59380001 0.13413265 0.98004240
v 0.59380001 0.13803267 0.98004240
v 0.59375000 0.00522267 0.98015243
v 0.59375000 0.09507267 0.98015243
v 0.59375000 0.09116267 0.98015243
v 0.58983999 -0.00843733 0.98348242
v 0.59377998 0.00522267 -0.76603758
v 0.59375000 0.06772267 0.98015243
v 0.59380001 0.06772267 0.98004240
v 0.59377998 -0.10804733 -0.76603758
v 0.59380001 0.09507267 0.98004240
v 0.59380001 0.09897267 0.98004240
v 0.59375000 0.05210267 0.98015243
v 0.59375000 0.02866267 0.98015243
v 0.59375000 0.13803267 -0.76610762
v 0.58283359 0.15852761 -0.75338823
v 0.59375000 0.13413265 0.98015243
v 0.59375000 0.13022266 0.98015243
v 0.59375000 -0.10413733 -0.76610762
v 0.59377998 -0.11585733 -0.76603758
v 0.59375000 -0.03382733 -0.76610762
v 0.59375000 -0.04163733 -0.76610762
v 0.59375000 -0.00257733 -0.76610762
v 0.59384423 0.00877949 -0.75693578
v 0.59377998 -0.10413733 -0.76603758
v 0.59375000 -0.09632733 -0.76610762
v 0.59375000 -0.05335733 -0.76610762
v 0.59375000 -0.10023733 -0.76610762
v 0.59377998 -0.04163733 -0.76603758
v 0.59375000 0.03257267 0.98015243
v 0.59375000 0.08725267 -0.76610762
v 0.59377998 0.09116267 -0.76603758
v 0.59375000 0.09116267 -0.76610762
v 0.59375000 0.05210267 -0.76610762
v 0.58983999 0.09653267 -0.76936758
v 0.59375000 0.11850267 -0.76610762
v 0.59375000 0.05600267 0.98015243
v 0.59375000 0.11460267 -0.76610762
v 0.59380001 0.09116267 0.98004240
v 0.59377998 0.12241267 -0.76603758
v 0.59377998 0.10678267 -0.76603758
v 0.59382594 0.11237959 -0.76173443
f 1 2 3
f 1 3 5
f 23 1 5
f 6 7 8
f 11 12 13
f 11 206 12
f 14 15 16
f 9 4 18
f 19 9 18
f 20 21 47
f 20 22 21
f 25 26 17
f 27 28 54
f 30 31 32
f 34 35 36
f 37 38 182
f 39 40 198
f 39 27 40
f 42 43 181
f 174 45 46
f 17 48 49
f 13 12 50
f 51 52 53
f 2 17 3
f 57 58 59
f 49 5 3
f 39 28 27
f 62 63 206
f 62 64 63
f 65 59 215
f 66 67 68
f 67 4 68
f 69 70 113
f 69 71 70
f 72 73 74
f 72 133 73
f 75 76 77
f 79 230 40
f 80 79 40
f 17 26 48
f 82 83 26
f 82 203 83
f 84 85 86
f 23 2 87
f 88 89 74
f 90 91 92
f 95 96 97
f 43 98 181
f 99 100 94
f 66 35 17
f 103 104 105
f 106 107 230
f 108 107 106
f 109 37 182
f 110 111 309
f 110 112 111
f 114 104 95
f 105 104 114
f 115 90 265
f 115 91 90
f 71 116 70
f 117 118 113
f 117 119 118
f 121 122 123
f 105 114 124
f 120 125 126
f 104 127 95
f 103 127 104
f 84 86 128
f 129 130 131
f 132 129 131
f 132 298 129
f 78 134 130
f 86 135 283
f 85 135 86
f 25 137 138
f 139 140 303
f 139 141 140
f 22 181 125
f 144 145 302
f 146 31 30
f 146 147 31
f 129 78 130
f 129 298 78
f 153 128 154
f 153 84 128
f 84 153 298
f 122 153 154
f 153 122 298
f 155 176 156
f 151 155 156
f 157 158 176
f 159 158 157
f 66 160 67
f 157 161 162
f 163 158 159
f 164 98 43
f 165 166 167
f 159 157 162
f 156 176 307
f 152 156 307
f 141 305 168
f 151 156 152
f 169 170 171
f 203 23 172
f 173 151 152
f 155 151 173
f 158 175 176
f 163 175 158
f 21 22 125
f 48 172 49
f 46 177 178
f 31 180 32
f 31 147 180
f 183 184 185
f 183 198 184
f 172 5 49
f 172 23 5
f 47 21 120
f 21 125 120
f 99 187 182
f 188 11 189
f 188 206 11
f 190 191 192
f 190 136 191
f 123 154 283
f 122 154 123
f 98 19 181
f 88 6 8
f 35 68 36
f 68 203 36
f 17 49 3
f 8 194 195
f 203 532 23
f 83 172 48
f 83 203 172
f 82 138 203
f 138 82 25
f 180 60 45
f 180 147 60
f 27 80 40
f 161 157 176
f 199 92 200
f 33 201 147
f 33 10 201
f 57 142 136
f 57 59 142
f 34 137 17
f 137 34 204
f 98 164 9
f 164 4 9
f 202 4 67
f 160 202 67
f 18 4 202
f 205 18 202
f 65 142 59
f 34 36 204
f 36 203 204
f 207 208 209
f 207 179 208
f 210 211 6
f 87 2 1
f 23 87 1
f 51 53 54
f 212 213 206
f 212 29 213
f 160 205 202
f 41 20 47
f 41 214 20
f 214 42 181
f 44 146 30
f 216 207 209
f 119 217 247
f 25 82 26
f 196 94 230
f 99 94 196
f 2 23 532
f 201 177 147
f 201 178 177
f 137 25 17
f 164 219 47
f 164 43 219
f 184 220 221
f 184 198 220
f 222 76 313
f 222 77 76
f 2 181 17
f 186 61 198
f 186 93 61
f 174 32 45
f 89 72 74
f 183 185 28
f 35 66 68
f 26 83 48
f 66 17 160
f 223 54 221
f 160 181 205
f 58 81 224
f 146 24 147
f 191 225 226
f 191 136 225
f 46 178 174
f 107 227 230
f 228 227 107
f 205 19 18
f 32 180 45
f 174 44 30
f 19 98 9
f 45 60 46
f 229 228 182
f 4 203 68
f 205 181 19
f 160 17 181
f 96 232 97
f 47 233 198
f 143 29 236
f 4 532 203
f 16 239 234
f 358 24 44
f 108 228 107
f 198 233 52
f 233 53 52
f 228 108 182
f 101 240 218
f 192 191 226
f 112 110 241
f 60 177 46
f 60 147 177
f 137 204 138
f 204 203 138
f 54 185 221
f 174 167 215
f 52 186 198
f 52 51 186
f 311 54 181
f 187 240 54
f 88 216 209
f 35 34 17
f 201 10 178
f 167 56 242
f 215 167 242
f 47 120 233
f 120 126 233
f 226 225 65
f 44 174 358
f 20 214 22
f 22 214 181
f 223 244 245
f 174 10 165
f 220 223 221
f 15 239 16
f 15 133 239
f 174 30 32
f 56 190 242
f 56 136 190
f 61 244 198
f 61 245 244
f 33 166 165
f 33 147 166
f 219 43 42
f 219 41 47
f 219 42 41
f 183 39 198
f 183 28 39
f 10 33 165
f 240 187 231
f 215 192 226
f 233 126 53
f 246 238 309
f 37 238 246
f 125 54 126
f 28 185 54
f 178 10 174
f 245 93 54
f 24 146 44
f 24 358 147
f 126 54 53
f 245 61 93
f 38 37 246
f 89 88 195
f 229 227 228
f 27 54 80
f 185 184 221
f 88 209 210
f 209 208 210
f 100 108 106
f 199 252 265
f 199 200 252
f 38 253 182
f 108 100 182
f 102 254 230
f 243 254 102
f 242 190 192
f 225 142 65
f 225 136 142
f 181 2 311
f 81 255 224
f 81 136 255
f 117 217 119
f 215 216 88
f 147 358 136
f 215 226 65
f 81 57 136
f 81 58 57
f 59 58 215
f 215 358 174
f 215 242 192
f 88 210 6
f 166 56 167
f 166 136 56
f 241 197 112
f 256 257 247
f 41 42 214
f 88 8 195
f 164 47 4
f 211 7 6
f 211 133 7
f 125 181 54
f 235 189 13
f 179 358 133
f 215 58 224
f 13 50 143
f 147 136 166
f 174 165 167
f 212 258 236
f 212 206 258
f 240 101 54
f 298 122 95
f 101 80 54
f 231 196 230
f 187 196 231
f 75 127 262
f 292 247 217
f 182 187 54
f 263 264 116
f 194 251 195
f 133 251 194
f 213 12 206
f 213 50 12
f 7 194 8
f 7 133 194
f 88 235 358
f 266 267 268
f 244 220 198
f 244 223 220
f 227 102 230
f 102 227 229
f 136 358 179
f 235 234 189
f 80 101 79
f 189 11 13
f 143 358 235
f 269 253 270
f 100 99 182
f 271 149 261
f 271 145 149
f 235 14 16
f 206 133 358
f 187 99 196
f 239 188 234
f 239 133 188
f 93 51 54
f 88 74 14
f 237 272 265
f 237 257 272
f 88 358 215
f 223 245 54
f 72 89 251
f 133 72 251
f 251 89 195
f 208 211 210
f 208 133 211
f 93 186 51
f 270 273 309
f 253 273 270
f 179 133 208
f 136 179 255
f 255 207 216
f 255 179 207
f 224 255 216
f 215 224 216
f 88 14 235
f 230 198 40
f 94 106 230
f 100 106 94
f 200 143 259
f 218 231 230
f 240 231 218
f 253 38 273
f 76 262 313
f 76 75 262
f 275 163 152
f 175 163 275
f 243 229 182
f 277 292 278
f 241 109 182
f 91 115 256
f 200 92 143
f 277 150 144
f 118 119 274
f 279 280 281
f 213 29 50
f 252 200 259
f 37 109 238
f 154 128 283
f 50 29 143
f 95 121 114
f 103 105 313
f 282 110 309
f 241 110 282
f 284 69 261
f 284 148 69
f 90 199 265
f 90 92 199
f 249 285 248
f 235 16 234
f 238 282 309
f 109 282 238
f 232 222 313
f 232 96 222
f 119 247 274
f 286 302 276
f 256 143 91
f 243 269 254
f 254 270 309
f 269 270 254
f 230 254 309
f 273 246 309
f 38 246 273
f 74 73 14
f 73 15 14
f 73 133 15
f 63 64 250
f 234 188 189
f 188 133 206
f 235 13 143
f 124 123 283
f 123 124 121
f 29 212 236
f 64 143 250
f 79 218 230
f 101 218 79
f 197 241 182
f 77 222 96
f 287 288 261
f 287 289 288
f 109 241 282
f 311 182 54
f 197 182 311
f 95 77 96
f 97 111 112
f 144 292 277
f 298 175 290
f 121 124 114
f 291 249 265
f 291 285 249
f 252 62 265
f 252 259 62
f 267 302 268
f 253 269 182
f 272 115 265
f 115 272 256
f 289 278 292
f 135 131 283
f 132 131 135
f 85 132 135
f 309 111 313
f 193 293 303
f 193 286 293
f 358 143 247
f 197 311 298
f 285 247 248
f 95 97 197
f 229 243 102
f 264 55 113
f 264 263 55
f 279 284 261
f 279 281 284
f 112 197 97
f 149 150 261
f 150 149 144
f 127 75 95
f 269 243 182
f 62 259 64
f 95 75 77
f 263 292 217
f 250 143 236
f 63 258 206
f 63 250 258
f 258 250 236
f 91 143 92
f 62 206 265
f 256 247 143
f 162 173 152
f 161 173 162
f 295 296 303
f 295 297 296
f 257 256 272
f 64 259 143
f 248 247 257
f 281 292 148
f 130 134 283
f 311 358 308
f 131 130 283
f 285 274 247
f 299 266 294
f 299 267 266
f 263 116 292
f 122 121 95
f 287 278 289
f 78 298 290
f 293 286 276
f 291 274 285
f 55 117 113
f 55 217 117
f 71 292 116
f 170 302 171
f 313 124 283
f 358 247 292
f 105 124 313
f 118 291 113
f 118 274 291
f 197 298 95
f 291 265 113
f 237 248 257
f 284 281 148
f 161 155 173
f 260 287 261
f 260 278 287
f 288 279 261
f 288 280 279
f 262 103 313
f 127 103 262
f 84 298 85
f 70 264 113
f 264 70 116
f 55 263 217
f 249 237 265
f 249 248 237
f 111 232 313
f 111 97 232
f 298 132 85
f 159 162 152
f 176 155 161
f 286 171 302
f 78 290 134
f 69 113 261
f 288 289 280
f 145 144 149
f 150 260 261
f 150 277 260
f 134 275 283
f 290 275 134
f 71 148 292
f 296 297 304
f 289 292 280
f 128 86 283
f 281 280 292
f 69 148 71
f 163 159 152
f 302 358 292
f 300 168 170
f 176 175 298
f 261 113 358
f 260 277 278
f 144 302 292
f 306 305 301
f 290 175 275
f 193 171 286
f 293 299 303
f 293 276 299
f 299 294 303
f 297 305 304
f 303 301 295
f 299 276 267
f 303 294 358
f 302 305 358
f 140 141 168
f 139 304 141
f 283 275 152
f 170 168 302
f 300 169 303
f 300 170 169
f 303 306 301
f 169 193 303
f 169 171 193
f 140 300 303
f 140 168 300
f 271 261 294
f 271 268 145
f 295 301 297
f 305 302 168
f 268 302 145
f 266 271 294
f 266 268 271
f 267 276 302
f 294 261 358
f 311 307 176
f 311 176 298
f 152 307 283
f 297 301 305
f 296 139 303
f 296 304 139
f 141 304 305
f 306 303 358
f 358 305 306
f 307 2 532
f 532 4 47
f 2 307 311
f 358 311 308
f 198 532 47
f 311 283 307
f 532 198 230
f 113 265 358
f 283 311 313
f 532 309 313
f 532 230 309
f 265 206 358
f 307 532 311
f 308 334 312
f 308 312 340
f 308 312 310
f 308 340 312
f 340 312 334
f 311 308 715
f 315 312 314
f 334 312 315
f 312 334 310
f 310 334 607
f 358 310 607
f 315 314 316
f 318 340 319
f 318 320 321
f 323 324 325
f 326 327 334
f 327 326 328
f 334 315 321
f 328 340 324
f 340 318 314
f 322 319 317
f 319 340 317
f 318 316 314
f 321 315 316
f 318 321 316
f 312 340 314
f 321 320 334
f 320 318 319
f 320 322 334
f 319 322 320
f 324 340 325
f 322 330 334
f 330 322 317
f 330 326 334
f 326 330 329
f 326 329 328
f 329 340 328
f 327 323 334
f 324 323 327
f 330 317 329
f 317 340 329
f 327 328 324
f 313 311 532
f 331 332 333
f 335 333 336
f 337 338 334
f 339 338 337
f 338 331 334
f 331 338 332
f 338 339 332
f 333 340 336
f 332 340 333
f 325 340 339
f 337 325 339
f 323 337 334
f 337 323 325
f 336 340 341
f 339 340 332
f 334 331 335
f 331 333 335
f 344 336 341
f 342 343 341
f 341 340 342
f 343 344 341
f 343 335 344
f 343 334 335
f 335 336 344
f 334 343 342
f 340 311 308
f 340 334 342
f 334 308 340
f 311 715 345
f 311 532 345
f 311 345 532
f 334 340 607
f 715 308 310
f 308 311 340
f 308 311 340
f 358 607 349
f 358 349 346
f 350 351 377
f 607 377 349
f 413 358 346
f 348 352 346
f 353 354 355
f 354 347 355
f 352 350 377
f 356 357 413
f 351 359 360
f 346 349 348
f 349 377 348
f 350 362 351
f 352 348 361
f 348 377 361
f 353 364 377
f 360 353 377
f 355 365 364
f 355 347 365
f 346 352 377
f 362 377 347
f 352 361 350
f 361 377 362
f 350 361 362
f 377 351 360
f 364 363 377
f 365 363 364
f 362 347 359
f 351 362 359
f 354 353 360
f 359 354 360
f 354 359 347
f 353 355 364
f 413 377 607
f 413 346 377
f 369 347 370
f 371 369 370
f 372 347 369
f 373 372 369
f 368 374 375
f 366 378 379
f 366 347 378
f 379 376 413
f 370 347 374
f 368 370 374
f 371 370 368
f 363 372 373
f 380 381 413
f 382 347 383
f 380 382 383
f 377 373 413
f 373 377 363
f 371 368 413
f 368 375 413
f 373 369 371
f 373 371 413
f 363 365 372
f 365 347 372
f 375 382 380
f 413 375 380
f 381 379 413
f 381 383 366
f 383 347 366
f 380 383 381
f 374 347 382
f 375 374 382
f 381 366 379
f 378 376 379
f 358 413 415
f 377 347 413
f 347 377 413
f 413 347 377
f 358 415 469
f 385 347 386
f 387 385 386
f 388 389 390
f 392 390 413
f 393 407 394
f 357 393 394
f 387 386 356
f 367 407 384
f 395 367 384
f 386 347 407
f 387 356 413
f 356 393 357
f 357 394 397
f 386 407 393
f 356 386 393
f 413 390 415
f 357 397 413
f 413 376 387
f 398 388 390
f 398 407 388
f 396 399 391
f 399 407 391
f 378 347 385
f 376 378 385
f 392 398 390
f 376 385 387
f 407 347 415
f 415 347 413
f 395 384 392
f 394 407 367
f 397 394 367
f 413 397 395
f 397 367 395
f 390 389 415
f 392 384 398
f 384 407 398
f 395 392 413
f 607 310 358
f 413 407 415
f 396 400 415
f 345 715 532
f 402 407 403
f 404 402 403
f 405 406 415
f 400 402 404
f 415 389 401
f 404 403 408
f 401 396 415
f 406 409 415
f 388 407 410
f 389 388 410
f 411 407 412
f 405 411 412
f 391 407 402
f 400 391 402
f 405 412 406
f 401 410 399
f 410 407 399
f 401 399 396
f 389 410 401
f 408 405 415
f 396 391 400
f 400 404 415
f 415 404 408
f 412 414 406
f 412 407 414
f 403 411 408
f 411 403 407
f 411 405 408
f 414 409 406
f 407 413 415
f 345 532 715
f 419 481 473
f 420 421 422
f 469 423 424
f 415 409 425
f 426 438 427
f 428 426 427
f 428 427 429
f 430 438 426
f 425 430 426
f 427 438 431
f 429 427 431
f 415 432 469
f 409 414 430
f 414 407 430
f 428 429 415
f 407 415 438
f 415 425 428
f 425 426 428
f 417 434 415
f 432 435 469
f 436 437 417
f 429 431 436
f 409 430 425
f 430 407 438
f 434 432 415
f 429 436 415
f 439 438 440
f 434 439 440
f 415 436 417
f 440 441 432
f 440 438 441
f 437 438 439
f 417 437 439
f 417 439 434
f 431 438 437
f 436 431 437
f 434 440 432
f 441 435 432
f 413 607 438
f 438 415 413
f 438 469 415
f 442 443 444
f 445 438 446
f 416 445 446
f 449 450 469
f 416 420 469
f 435 445 416
f 421 438 451
f 422 421 451
f 416 446 420
f 422 451 423
f 438 415 469
f 446 438 421
f 420 446 421
f 448 452 424
f 452 448 438
f 423 448 424
f 451 438 448
f 423 451 448
f 450 453 447
f 453 500 447
f 469 435 416
f 424 433 469
f 441 438 445
f 435 441 445
f 422 423 469
f 420 422 469
f 452 433 424
f 433 449 469
f 433 454 449
f 454 453 449
f 454 438 453
f 433 452 454
f 452 438 454
f 453 450 449
f 455 456 457
f 456 455 500
f 418 459 460
f 461 500 462
f 463 461 462
f 469 464 460
f 720 607 311
f 467 458 442
f 450 447 467
f 447 500 458
f 467 447 458
f 464 468 460
f 469 450 467
f 453 438 500
f 458 500 443
f 442 458 443
f 456 470 457
f 457 470 490
f 467 442 469
f 444 464 469
f 443 500 471
f 444 443 471
f 442 444 469
f 469 490 438
f 460 459 469
f 438 490 500
f 471 500 468
f 464 471 468
f 444 471 464
f 469 457 490
f 459 455 457
f 459 457 469
f 468 418 460
f 418 468 500
f 418 500 455
f 459 418 455
f 345 476 311
f 311 476 473
f 311 473 607
f 311 607 340
f 469 438 485
f 477 474 478
f 494 465 480
f 481 419 472
f 419 473 479
f 483 484 485
f 463 477 490
f 490 470 463
f 438 500 485
f 490 483 485
f 487 484 483
f 463 462 477
f 488 500 475
f 489 488 475
f 470 461 463
f 478 488 489
f 475 500 491
f 492 475 491
f 462 500 474
f 477 462 474
f 470 456 461
f 456 500 461
f 474 500 488
f 478 474 488
f 490 489 492
f 478 489 490
f 490 477 478
f 493 483 490
f 489 475 492
f 486 487 483
f 486 500 487
f 492 491 493
f 491 500 486
f 493 491 486
f 493 486 483
f 492 493 490
f 479 345 476
f 495 479 496
f 476 479 473
f 476 345 479
f 479 476 494
f 481 476 473
f 465 476 497
f 498 499 481
f 494 476 465
f 498 497 499
f 476 481 499
f 497 476 499
f 498 472 496
f 310 607 715
f 607 500 438
f 501 502 485
f 358 469 599
f 500 490 518
f 504 505 485
f 720 311 607
f 496 472 495
f 419 479 495
f 497 498 496
f 472 498 481
f 480 465 466
f 465 497 466
f 472 419 495
f 480 466 496
f 466 497 496
f 479 480 496
f 480 479 494
f 506 518 507
f 508 506 507
f 502 509 510
f 511 512 513
f 512 500 513
f 501 513 514
f 513 500 514
f 501 514 502
f 502 510 485
f 484 487 512
f 487 500 512
f 514 500 509
f 502 514 509
f 485 484 511
f 485 510 508
f 484 512 511
f 515 516 517
f 511 513 501
f 509 518 506
f 510 509 506
f 511 501 485
f 510 506 508
f 508 507 519
f 509 500 518
f 519 520 517
f 519 517 485
f 519 507 520
f 507 518 520
f 508 519 485
f 517 516 485
f 485 518 490
f 520 515 517
f 520 518 515
f 476 345 715
f 485 500 518
f 521 522 523
f 524 518 525
f 505 524 525
f 469 485 538
f 505 525 526
f 504 524 505
f 527 528 529
f 485 516 530
f 531 518 522
f 521 531 522
f 523 529 485
f 521 523 485
f 529 528 538
f 504 485 530
f 516 515 534
f 515 518 534
f 523 535 529
f 516 534 530
f 530 534 533
f 534 518 533
f 504 533 524
f 533 518 524
f 525 518 531
f 526 525 531
f 530 533 504
f 485 529 538
f 505 526 485
f 485 526 521
f 523 522 535
f 522 518 535
f 535 527 529
f 535 518 527
f 526 531 521
f 473 476 715
f 538 536 537
f 500 607 518
f 485 518 538
f 469 538 599
f 607 358 599
f 538 528 540
f 540 542 543
f 540 543 538
f 546 572 539
f 482 546 539
f 545 547 548
f 543 545 538
f 518 485 572
f 550 551 541
f 549 541 538
f 552 572 547
f 545 552 547
f 540 503 542
f 503 518 542
f 543 552 545
f 547 572 546
f 548 547 546
f 528 503 540
f 538 548 482
f 543 542 552
f 542 518 552
f 549 553 541
f 552 518 572
f 528 527 503
f 527 518 503
f 482 539 549
f 482 549 538
f 545 548 538
f 548 546 482
f 553 550 541
f 553 572 550
f 539 572 553
f 549 539 553
f 541 551 538
f 538 518 607
f 358 577 599
f 555 556 557
f 559 554 560
f 559 582 554
f 555 557 538
f 564 565 538
f 566 572 556
f 555 566 556
f 556 582 562
f 557 556 562
f 556 572 582
f 551 567 563
f 567 572 566
f 563 567 566
f 564 538 558
f 568 582 569
f 537 568 569
f 536 568 537
f 551 550 567
f 550 572 567
f 557 562 536
f 563 555 538
f 563 566 555
f 537 558 538
f 572 485 538
f 537 569 558
f 538 551 563
f 570 571 564
f 570 582 571
f 571 565 564
f 562 582 568
f 536 562 568
f 557 536 538
f 558 570 564
f 558 569 570
f 569 582 570
f 538 607 572
f 538 582 572
f 573 574 604
f 604 561 575
f 576 559 560
f 573 578 574
f 538 565 579
f 579 580 581
f 580 582 581
f 538 573 604
f 578 582 583
f 574 578 583
f 579 573 538
f 575 576 604
f 560 586 604
f 584 582 585
f 575 584 585
f 574 561 604
f 565 571 580
f 571 582 580
f 565 580 579
f 579 581 573
f 583 582 584
f 561 583 584
f 573 581 578
f 581 582 578
f 574 583 561
f 554 586 560
f 582 538 604
f 561 584 575
f 576 560 604
f 576 585 559
f 585 582 559
f 575 585 576
f 538 572 589
f 588 587 604
f 590 591 592
f 591 582 592
f 592 589 593
f 588 592 593
f 594 595 596
f 594 589 595
f 586 554 597
f 554 582 597
f 586 597 600
f 604 586 600
f 592 582 589
f 587 601 602
f 604 602 625
f 603 596 625
f 590 592 588
f 593 589 601
f 587 593 601
f 604 587 602
f 604 538 589
f 602 603 625
f 600 591 590
f 588 593 587
f 600 590 604
f 600 597 591
f 597 582 591
f 582 604 589
f 590 588 604
f 602 605 603
f 595 606 596
f 596 606 625
f 603 594 596
f 601 589 605
f 602 601 605
f 603 605 594
f 605 589 594
f 589 604 625
f 589 572 607
f 607 796 589
f 538 604 625
f 604 589 625
f 599 538 625
f 606 595 609
f 595 589 609
f 614 613 612
f 615 616 617
f 615 589 616
f 619 620 614
f 621 589 615
f 622 621 615
f 610 609 623
f 609 589 623
f 620 589 613
f 614 620 613
f 625 606 610
f 611 589 620
f 619 611 620
f 610 623 624
f 624 611 619
f 622 615 617
f 622 617 625
f 617 618 625
f 606 609 610
f 624 623 611
f 623 589 611
f 610 624 625
f 619 614 625
f 625 624 619
f 612 622 625
f 616 618 617
f 612 621 622
f 625 614 612
f 612 613 621
f 613 589 621
f 626 544 627
f 608 628 625
f 630 631 625
f 599 625 633
f 628 634 630
f 628 635 634
f 635 662 634
f 631 636 632
f 637 638 598
f 637 662 638
f 639 640 641
f 589 625 633
f 630 642 631
f 618 616 643
f 616 589 643
f 608 643 635
f 643 662 635
f 662 643 589
f 608 635 628
f 632 644 633
f 625 631 633
f 628 630 625
f 634 662 642
f 630 634 642
f 618 643 608
f 662 589 633
f 645 646 900
f 625 618 608
f 632 647 644
f 598 629 633
f 644 598 633
f 633 631 632
f 636 662 647
f 632 636 647
f 638 629 598
f 644 637 598
f 644 647 637
f 647 662 637
f 642 662 636
f 631 642 636
f 648 649 650
f 649 662 650
f 607 473 715
f 662 589 796
f 629 638 649
f 638 662 649
f 625 589 662
f 652 653 654
f 648 650 651
f 657 658 659
f 659 660 661
f 633 663 657
f 651 650 664
f 650 662 664
f 665 655 663
f 648 651 633
f 633 629 648
f 629 649 648
f 663 666 657
f 651 664 665
f 657 659 633
f 651 665 633
f 664 662 688
f 664 688 655
f 665 664 655
f 655 688 666
f 663 655 666
f 665 663 633
f 660 667 661
f 660 688 667
f 666 688 658
f 657 666 658
f 661 656 633
f 667 656 661
f 659 661 633
f 659 658 660
f 658 688 660
f 668 700 669
f 670 668 669
f 625 662 633
f 662 796 694
f 640 688 672
f 641 640 672
f 633 688 662
f 673 688 674
f 675 673 674
f 656 667 676
f 667 688 676
f 675 677 694
f 607 715 720
f 680 681 682
f 683 684 685
f 633 656 686
f 687 688 640
f 639 687 640
f 686 687 639
f 689 680 682
f 689 688 680
f 676 688 687
f 686 676 687
f 677 674 689
f 674 688 689
f 672 688 673
f 690 672 673
f 688 633 694
f 639 641 694
f 641 672 690
f 686 639 633
f 656 676 686
f 677 682 694
f 633 639 694
f 690 673 675
f 694 690 675
f 694 641 690
f 677 689 682
f 675 674 677
f 682 681 694
f 691 692 693
f 691 864 692
f 662 694 633
f 695 696 683
f 697 698 699
f 681 680 668
f 680 700 668
f 701 729 702
f 703 701 702
f 694 685 704
f 683 685 694
f 705 706 699
f 670 669 695
f 685 707 704
f 783 599 708
f 709 729 701
f 710 709 701
f 626 627 679
f 699 706 724
f 694 681 670
f 696 700 684
f 683 696 684
f 681 668 670
f 707 700 711
f 704 707 711
f 695 683 694
f 697 699 724
f 669 700 696
f 695 669 696
f 729 694 724
f 694 729 688
f 704 711 697
f 680 688 700
f 670 695 694
f 694 704 724
f 697 711 698
f 711 700 698
f 684 700 707
f 685 684 707
f 704 697 724
f 703 702 712
f 698 705 699
f 698 700 705
f 712 713 714
f 633 694 599
f 694 724 599
f 358 599 577
f 724 714 716
f 717 718 722
f 706 709 710
f 714 719 716
f 705 700 729
f 706 705 709
f 705 729 709
f 710 701 703
f 724 706 710
f 729 700 688
f 710 703 724
f 716 721 717
f 717 722 724
f 702 729 713
f 712 702 713
f 712 714 724
f 703 712 724
f 716 717 724
f 721 729 718
f 717 721 718
f 718 729 722
f 716 719 721
f 719 729 721
f 713 729 719
f 714 713 719
f 729 724 722
f 724 694 729
f 694 724 729
f 720 715 607
f 722 729 796
f 725 726 727
f 599 728 708
f 694 796 729
f 694 729 724
f 722 724 729
f 599 724 722
f 720 715 723
f 599 796 607
f 599 722 796
f 731 732 733
f 820 736 737
f 739 776 740
f 742 743 744
f 747 748 749
f 748 747 746
f 750 738 751
f 738 750 910
f 752 753 754
f 755 775 756
f 757 758 759
f 715 671 910
f 958 760 761
f 760 762 761
f 764 765 766
f 767 768 769
f 715 746 671
f 771 772 773
f 771 1043 772
f 891 763 731
f 777 778 779
f 781 778 777
f 728 974 708
f 1024 774 715
f 784 785 786
f 787 930 788
f 789 790 791
f 793 794 795
f 797 798 799
f 733 802 803
f 805 775 806
f 807 808 809
f 808 807 723
f 891 810 751
f 741 811 679
f 814 765 900
f 815 816 817
f 808 544 626
f 544 808 723
f 821 723 822
f 823 821 822
f 741 807 811
f 741 723 807
f 824 825 918
f 824 826 825
f 764 827 828
f 829 830 831
f 832 833 834
f 832 839 833
f 654 835 918
f 835 654 653
f 836 830 837
f 766 827 764
f 766 839 827
f 891 751 840
f 841 842 829
f 843 758 844
f 955 845 846
f 845 847 846
f 826 652 825
f 544 819 627
f 819 544 723
f 720 723 741
f 725 727 679
f 848 849 739
f 842 830 829
f 850 782 831
f 850 864 782
f 851 744 849
f 727 853 645
f 745 854 855
f 755 653 775
f 736 838 737
f 809 626 679
f 678 857 679
f 858 859 860
f 732 802 733
f 802 732 671
f 577 796 720
f 856 865 866
f 856 994 865
f 811 809 679
f 867 868 798
f 735 804 869
f 735 800 804
f 599 577 728
f 870 871 872
f 874 875 876
f 875 874 839
f 814 792 765
f 727 645 679
f 627 819 678
f 878 775 879
f 857 678 862
f 880 881 882
f 881 880 671
f 646 883 884
f 861 885 886
f 646 884 900
f 887 888 852
f 811 807 809
f 820 737 780
f 737 838 889
f 955 852 890
f 852 888 890
f 844 757 918
f 757 844 758
f 843 838 758
f 791 930 892
f 1032 894 895
f 894 896 895
f 897 874 876
f 839 994 715
f 898 899 869
f 810 750 751
f 804 898 869
f 879 775 898
f 820 844 918
f 785 880 786
f 880 785 671
f 904 755 756
f 691 693 859
f 905 756 878
f 907 908 918
f 907 805 908
f 906 850 836
f 906 864 850
f 850 831 836
f 911 909 912
f 909 911 910
f 726 853 727
f 853 726 723
f 889 838 843
f 735 869 842
f 914 884 915
f 916 887 917
f 953 887 916
f 749 748 919
f 692 837 693
f 802 921 803
f 921 802 671
f 860 830 816
f 826 775 652
f 824 806 826
f 693 830 859
f 923 924 925
f 870 926 871
f 926 870 974
f 927 928 845
f 792 994 766
f 765 792 766
f 861 931 885
f 931 861 1014
f 864 728 800
f 886 734 868
f 770 932 933
f 868 734 798
f 955 890 934
f 890 935 934
f 936 937 938
f 936 974 937
f 863 858 860
f 863 864 858
f 743 734 744
f 940 861 886
f 940 1014 861
f 815 1014 864
f 798 734 799
f 946 947 948
f 946 1043 947
f 931 817 885
f 949 872 950
f 794 907 918
f 793 907 794
f 952 879 898
f 759 758 838
f 942 774 954
f 956 789 791
f 708 789 956
f 959 977 960
f 728 943 974
f 728 922 943
f 961 916 917
f 801 878 879
f 960 977 962
f 797 867 798
f 797 922 867
f 963 964 965
f 964 963 967
f 966 925 932
f 955 779 969
f 773 772 970
f 939 916 961
f 953 916 939
f 832 827 839
f 828 827 832
f 972 973 941
f 756 775 878
f 796 577 599
f 744 734 776
f 854 977 855
f 788 975 976
f 932 977 933
f 979 980 997
f 981 956 892
f 956 981 708
f 715 774 1043
f 958 761 948
f 761 946 948
f 983 984 725
f 964 981 986
f 708 981 964
f 813 774 1024
f 977 599 930
f 891 731 733
f 1050 991 990
f 992 774 957
f 945 896 894
f 1050 990 929
f 949 870 872
f 974 870 949
f 762 946 761
f 948 947 993
f 989 762 760
f 901 912 767
f 995 971 996
f 998 776 999
f 989 781 762
f 745 951 854
f 951 745 974
f 715 720 796
f 955 917 852
f 891 941 1000
f 809 808 626
f 853 1001 645
f 1001 853 723
f 790 930 791
f 851 742 744
f 742 851 922
f 966 923 925
f 966 943 923
f 1002 771 773
f 858 691 859
f 691 858 864
f 1000 944 1003
f 1004 848 739
f 848 1004 922
f 1005 933 959
f 888 935 890
f 775 899 898
f 953 715 781
f 780 873 820
f 780 889 873
f 841 735 842
f 735 841 800
f 918 728 820
f 1008 1009 1010
f 728 577 736
f 892 930 986
f 834 828 832
f 863 860 816
f 1011 797 799
f 797 1011 922
f 775 805 793
f 1010 975 913
f 1013 949 950
f 949 1013 974
f 741 679 720
f 867 940 868
f 867 1014 940
f 903 747 1015
f 747 903 746
f 931 815 817
f 931 1014 815
f 1016 978 1017
f 866 865 1018
f 1006 1019 1020
f 885 734 886
f 849 776 739
f 1021 959 960
f 943 922 1022
f 985 1006 1020
f 708 1006 985
f 1009 975 1010
f 1023 979 997
f 1016 936 978
f 936 1016 974
f 981 892 986
f 1019 930 1020
f 964 986 965
f 1008 1025 1009
f 1008 967 1025
f 1026 788 976
f 1020 930 790
f 985 1020 790
f 968 1008 1010
f 1008 968 967
f 988 963 787
f 967 963 988
f 679 627 678
f 835 904 918
f 835 755 904
f 730 814 900
f 865 1027 1018
f 865 994 1027
f 914 818 1028
f 1001 883 646
f 994 883 1001
f 577 838 736
f 984 726 725
f 984 723 726
f 819 723 862
f 678 819 862
f 884 883 915
f 883 994 915
f 915 818 914
f 915 994 818
f 944 903 1003
f 903 944 746
f 782 841 829
f 782 864 841
f 816 830 817
f 770 966 932
f 966 770 943
f 599 734 830
f 759 838 775
f 822 984 983
f 822 723 984
f 759 775 795
f 737 889 780
f 823 822 983
f 818 856 1028
f 818 994 856
f 821 862 723
f 821 857 862
f 786 880 882
f 821 823 857
f 759 795 877
f 728 736 820
f 804 952 898
f 952 804 800
f 1028 856 866
f 918 757 877
f 757 759 877
f 801 905 878
f 801 800 905
f 893 1029 763
f 1029 893 671
f 901 897 876
f 891 1000 1003
f 834 833 897
f 875 911 902
f 875 839 911
f 738 1030 840
f 1030 738 910
f 983 725 679
f 1001 723 994
f 1001 646 645
f 679 823 983
f 857 823 679
f 720 679 900
f 679 645 900
f 919 920 752
f 833 839 874
f 897 833 874
f 782 829 831
f 973 1031 941
f 1031 973 746
f 837 830 693
f 877 794 918
f 795 794 877
f 805 806 908
f 902 901 876
f 754 945 894
f 1018 1033 900
f 1034 792 814
f 792 1034 994
f 1034 814 730
f 1035 750 810
f 750 1035 910
f 1027 1036 1033
f 994 1036 1027
f 1018 1027 1033
f 1036 1034 730
f 994 1034 1036
f 1033 1036 730
f 1037 893 763
f 1033 730 900
f 900 901 720
f 994 723 715
f 914 1028 900
f 900 884 914
f 900 866 1018
f 1028 866 900
f 803 921 784
f 873 843 844
f 820 873 844
f 952 801 879
f 952 800 801
f 825 652 654
f 918 825 654
f 889 843 873
f 768 1035 769
f 1035 768 910
f 599 830 899
f 805 907 793
f 994 839 766
f 908 824 918
f 824 908 806
f 775 793 795
f 817 830 885
f 835 653 755
f 764 828 900
f 900 765 764
f 902 911 912
f 910 911 839
f 720 891 1032
f 921 785 784
f 785 921 671
f 769 1035 810
f 928 847 845
f 751 738 840
f 912 909 767
f 909 768 767
f 768 909 910
f 901 891 720
f 875 902 876
f 834 897 901
f 901 828 834
f 900 828 901
f 901 902 912
f 1032 749 919
f 920 753 752
f 746 753 920
f 922 1014 867
f 1011 799 743
f 652 775 653
f 940 886 868
f 869 899 842
f 905 904 756
f 905 800 904
f 1038 1022 999
f 1038 943 1022
f 859 830 860
f 800 918 904
f 826 806 775
f 728 918 800
f 831 830 836
f 891 769 810
f 891 767 769
f 891 901 767
f 839 715 910
f 763 1029 731
f 1030 893 1037
f 893 1030 671
f 840 1030 1037
f 671 1030 910
f 1029 732 731
f 732 1029 671
f 891 786 882
f 891 1037 763
f 891 840 1037
f 947 1039 993
f 947 1043 1039
f 599 899 775
f 935 888 953
f 906 836 837
f 962 977 938
f 899 830 842
f 841 864 800
f 1038 999 924
f 815 863 816
f 863 815 864
f 692 906 837
f 692 864 906
f 923 1038 924
f 1038 923 943
f 1014 728 864
f 891 803 784
f 891 733 803
f 577 720 796
f 969 989 760
f 941 1031 1000
f 1031 944 1000
f 944 1031 746
f 746 881 671
f 881 973 972
f 973 881 746
f 917 887 852
f 882 881 972
f 1015 747 749
f 955 846 779
f 846 777 779
f 891 972 941
f 891 882 972
f 953 939 896
f 896 939 895
f 746 953 896
f 958 982 1040
f 982 1041 1040
f 1042 928 927
f 928 1042 953
f 891 784 786
f 720 1032 796
f 762 1043 946
f 1032 919 752
f 746 896 945
f 942 1044 774
f 922 728 1014
f 933 977 959
f 1003 903 1015
f 799 734 743
f 744 776 849
f 1045 960 962
f 748 920 919
f 920 748 746
f 885 830 734
f 848 851 849
f 848 922 851
f 1007 1004 740
f 1007 922 1004
f 1022 1007 998
f 1022 922 1007
f 1013 708 974
f 753 945 754
f 746 945 753
f 955 927 845
f 891 1003 1032
f 1032 1003 1015
f 1032 1015 749
f 1032 754 894
f 1032 752 754
f 777 847 781
f 953 888 887
f 1032 895 961
f 895 939 961
f 935 1042 934
f 953 1042 935
f 847 777 846
f 781 847 953
f 847 928 953
f 934 1042 927
f 1046 1044 990
f 1046 774 1044
f 1021 1005 959
f 1005 1021 943
f 1012 1013 1047
f 708 1013 1012
f 838 577 599
f 838 599 775
f 740 776 998
f 924 776 925
f 1007 740 998
f 1004 739 740
f 742 1011 743
f 742 922 1011
f 789 985 790
f 985 789 708
f 1022 998 999
f 955 969 760
f 999 776 924
f 937 962 938
f 1041 987 1040
f 1041 1043 987
f 762 781 1043
f 1050 1048 812
f 1048 954 812
f 746 715 953
f 955 1032 917
f 1032 961 917
f 1024 1032 955
f 958 1040 1002
f 1040 987 1002
f 955 934 927
f 958 993 982
f 1039 1041 982
f 958 955 760
f 957 1046 991
f 1046 957 774
f 988 787 788
f 778 989 969
f 989 778 781
f 734 599 776
f 779 778 969
f 1005 770 933
f 1005 943 770
f 932 776 977
f 926 855 871
f 993 1039 982
f 937 1045 962
f 1045 937 974
f 1026 988 788
f 988 1026 967
f 951 1016 1017
f 974 1016 951
f 1045 1021 960
f 1045 943 1021
f 1045 974 943
f 986 930 965
f 1013 950 1047
f 956 791 892
f 1006 1012 1019
f 1012 1006 708
f 855 977 871
f 965 930 787
f 925 776 932
f 951 1017 854
f 1017 977 854
f 872 977 950
f 978 977 1017
f 936 938 978
f 938 977 978
f 1024 955 958
f 992 957 1049
f 987 771 1002
f 987 1043 771
f 1039 1043 1041
f 1050 1049 991
f 1049 957 991
f 991 1046 990
f 958 948 993
f 992 1043 774
f 990 1044 929
f 1044 942 929
f 772 1043 992
f 1050 970 1049
f 970 992 1049
f 772 992 970
f 577 796 599
f 926 745 855
f 974 745 926
f 950 930 1047
f 871 977 872
f 950 977 930
f 1012 1047 1019
f 1047 930 1019
f 781 715 1043
f 1050 958 773
f 958 1002 773
f 1050 773 970
f 942 954 1048
f 1050 929 1048
f 929 942 1048
f 954 813 812
f 813 954 774
f 1024 1023 997
f 958 1050 1024
f 997 980 996
f 980 995 996
f 1024 1050 813
f 1050 812 813
f 776 599 977
f 963 965 787
f 967 783 708
f 967 708 964
f 976 975 1009
f 1023 1024 979
f 995 980 979
f 995 979 1024
f 971 995 1024
f 971 1024 996
f 1024 997 996
f 796 1032 1024
f 783 930 599
f 783 913 975
f 1025 1026 976
f 1025 967 1026
f 788 930 975
f 783 968 913
f 783 967 968
f 1025 976 1009
f 968 1010 913
f 930 783 975
f 1024 715 796

