# https://github.com/mikedh/trimesh
v -0.91014999 -0.20307390 -0.62500203
v -0.91406000 -0.20307390 -0.62500203
v -0.91406000 -0.20299391 -0.62506205
v -0.85936999 -0.20307390 -0.62500203
v -0.85545999 -0.20307390 -0.62500203
v -0.91795999 -0.20307390 -0.62500203
v -0.91173780 -0.20402890 -0.60124701
v -0.92186999 -0.20299391 -0.62506205
v -0.86816001 -0.19908392 -0.62544203
v -0.91795999 -0.20299391 -0.62506205
v -0.87889999 -0.20307390 -0.62500203
v -0.88866746 -0.19908392 -0.62544203
v -0.89453000 -0.20307390 -0.62500203
v -0.89061999 -0.20307390 -0.62500203
v -0.88281000 -0.20307390 -0.62500203
v -0.90233999 -0.20307390 -0.62500203
v -0.89842999 -0.20307390 -0.62500203
v -0.91991746 -0.19908392 -0.62544203
v -0.91014999 -0.20299391 -0.62506205
v -0.90625000 -0.20299391 -0.62506205
v -0.90233999 -0.20299391 -0.62506205
v -0.84447747 -0.19908392 -0.62544203
v -0.85497624 -0.20402890 -0.60124701
v -0.85156000 -0.20307390 -0.62500203
v -0.78125000 -0.20299391 -0.62506205
v -0.78514999 -0.20299391 -0.62506205
v -0.78125000 -0.20307390 -0.62500203
v -0.77733999 -0.20299391 -0.62506205
v -0.77342999 -0.20307390 -0.62500203
v -0.77733999 -0.20307390 -0.62500203
v -0.96752489 -0.20787445 -0.61712235
v -0.86717999 -0.20299391 -0.62506205
v -0.87108999 -0.20299391 -0.62506205
v -0.86717999 -0.20307390 -0.62500203
v -0.82811999 -0.20307390 -0.62500203
v -0.83203000 -0.20307390 -0.62500203
v -0.83203000 -0.20299391 -0.62506205
v -0.90625000 -0.20307390 -0.62500203
v -0.87500000 -0.20299391 -0.62506205
v -0.89061999 -0.20299391 -0.62506205
v -0.89453000 -0.20299391 -0.62506205
v -0.82372624 -0.20522390 -0.62109202
v -0.88281000 -0.20299391 -0.62506205
v -0.87108999 -0.20307390 -0.62500203
v -0.86328000 -0.20307390 -0.62500203
v -0.88670999 -0.20307390 -0.62500203
v -0.88670999 -0.20299391 -0.62506205
v -0.82420999 -0.20307390 -0.62500203
v -0.82811999 -0.20299391 -0.62506205
v -0.79295999 -0.20299391 -0.62506205
v -0.78906000 -0.20307390 -0.62500203
v -0.78514999 -0.20307390 -0.62500203
v -0.87889999 -0.20299391 -0.62506205
v -0.89842999 -0.20299391 -0.62506205
v -0.79295999 -0.20307390 -0.62500203
v -0.87500000 -0.20307390 -0.62500203
v -0.75781000 -0.20307390 -0.62500203
v -0.85936999 -0.20299391 -0.62506205
v -0.86328000 -0.20299391 -0.62506205
v -0.79686999 -0.20307390 -0.62500203
v -0.72192001 -0.19908392 -0.62544203
v -0.75389999 -0.20307390 -0.62500203
v -0.83592999 -0.20307390 -0.62500203
v -0.83983999 -0.20307390 -0.62500203
v -0.83983999 -0.20299391 -0.62506205
v -0.84375000 -0.20299391 -0.62506205
v -0.84764999 -0.20299391 -0.62506205
v -0.84375000 -0.20307390 -0.62500203
v -0.76513124 -0.19908392 -0.62544203
v -0.82031000 -0.20307390 -0.62500203
v -0.81639999 -0.20307390 -0.62500203
v -0.85156000 -0.20299391 -0.62506205
v -0.85545999 -0.20299391 -0.62506205
v -0.78906000 -0.20299391 -0.62506205
v -0.80078000 -0.20299391 -0.62506205
v -0.84764999 -0.20307390 -0.62500203
v -0.83592999 -0.20299391 -0.62506205
v -0.79149997 -0.19908392 -0.62544203
v -0.81250000 -0.20307390 -0.62500203
v -0.80858999 -0.20299391 -0.62506205
v -0.81250000 -0.20299391 -0.62506205
v -0.80858999 -0.20307390 -0.62500203
v -0.80078000 -0.20307390 -0.62500203
v -0.81639999 -0.20299391 -0.62506205
v -0.82031000 -0.20299391 -0.62506205
v -0.80467999 -0.20307390 -0.62500203
v -0.82420999 -0.20299391 -0.62506205
v -0.79686999 -0.20299391 -0.62506205
v -0.76170999 -0.20307390 -0.62500203
v -0.76953000 -0.20299391 -0.62506205
v -0.77342999 -0.20299391 -0.62506205
v -0.76953000 -0.20307390 -0.62500203
v -0.80467999 -0.20299391 -0.62506205
v -0.69920999 -0.20307390 -0.62500203
v -0.76561999 -0.20307390 -0.62500203
v -0.82299435 -0.19908392 -0.62544203
v -0.71092999 -0.20299391 -0.62506205
v -0.71483999 -0.20299391 -0.62506205
v -0.71092999 -0.20307390 -0.62500203
v -0.74217999 -0.20307390 -0.62500203
v -0.75000000 -0.20307390 -0.62500203
v -0.73436999 -0.20307390 -0.62500203
v -0.72264999 -0.20299391 -0.62506205
v -0.75781000 -0.20299391 -0.62506205
v -0.76561999 -0.20299391 -0.62506205
v -0.75389999 -0.20299391 -0.62506205
v -0.76170999 -0.20299391 -0.62506205
v -0.65625000 -0.20299391 -0.62506205
v -0.78637189 -0.20420142 -0.60140449
v -0.73828000 -0.20299391 -0.62506205
v -0.73828000 -0.20307390 -0.62500203
v -0.73045999 -0.20299391 -0.62506205
v -0.74608999 -0.20307390 -0.62500203
v -0.73045999 -0.20307390 -0.62500203
v -0.72656000 -0.20307390 -0.62500203
v -0.75000000 -0.20299391 -0.62506205
v -0.74706751 -0.19908392 -0.62544203
v -0.67578000 -0.20307390 -0.62500203
v -0.72264999 -0.20307390 -0.62500203
v -0.69139999 -0.20307390 -0.62500203
v -0.71875000 -0.20299391 -0.62506205
v -0.71875000 -0.20307390 -0.62500203
v -0.74217999 -0.20299391 -0.62506205
v -0.72656000 -0.20299391 -0.62506205
v -0.70311999 -0.20307390 -0.62500203
v -0.70311999 -0.20299391 -0.62506205
v -0.74608999 -0.20299391 -0.62506205
v -0.71483999 -0.20307390 -0.62500203
v -0.73046315 -0.20351142 -0.60077453
v -0.69920999 -0.20299391 -0.62506205
v -0.70703000 -0.20307390 -0.62500203
v -0.68750000 -0.20299391 -0.62506205
v -0.69139999 -0.20299391 -0.62506205
v -0.68750000 -0.20307390 -0.62500203
v -0.58203000 -0.20307390 -0.62500203
v -0.64842999 -0.20307390 -0.62500203
v -0.73436999 -0.20299391 -0.62506205
v -0.70703000 -0.20299391 -0.62506205
v -0.66795999 -0.20307390 -0.62500203
v -0.67967999 -0.20307390 -0.62500203
v -0.66014999 -0.20307390 -0.62500203
v -0.67186999 -0.20307390 -0.62500203
v -0.67431122 -0.20402890 -0.60124701
v -0.69531000 -0.20307390 -0.62500203
v -0.69530749 -0.19908392 -0.62544203
v -0.66406000 -0.20299391 -0.62506205
v -0.69531000 -0.20299391 -0.62506205
v -0.66406000 -0.20307390 -0.62500203
v -0.57031000 -0.20307390 -0.62500203
v -0.56639999 -0.20307390 -0.62500203
v -0.67186999 -0.20299391 -0.62506205
v -0.65625000 -0.20307390 -0.62500203
v -0.60156000 -0.20299391 -0.62506205
v -0.59764999 -0.20307390 -0.62500203
v -0.60156000 -0.20307390 -0.62500203
v -0.68358999 -0.20307390 -0.62500203
v -0.68358999 -0.20299391 -0.62506205
v -0.64061999 -0.20307390 -0.62500203
v -0.67578000 -0.20299391 -0.62506205
v -0.66942877 -0.19908392 -0.62544203
v -0.67967999 -0.20299391 -0.62506205
v -0.59375000 -0.20307390 -0.62500203
v -0.63281000 -0.20307390 -0.62500203
v -0.62889999 -0.20307390 -0.62500203
v -0.66014999 -0.20299391 -0.62506205
v -0.66795999 -0.20299391 -0.62506205
v -0.64453000 -0.20299391 -0.62506205
v -0.64453000 -0.20307390 -0.62500203
v -0.64061999 -0.20299391 -0.62506205
v -0.60936999 -0.20307390 -0.62500203
v -0.60545999 -0.20307390 -0.62500203
v -0.62500000 -0.20307390 -0.62500203
v -0.62889999 -0.20299391 -0.62506205
v -0.65233999 -0.20307390 -0.62500203
v -0.65233999 -0.20299391 -0.62506205
v -0.63317406 -0.20402890 -0.60124701
v -0.63670999 -0.20307390 -0.62500203
v -0.63281000 -0.20299391 -0.62506205
v -0.63670999 -0.20299391 -0.62506205
v -0.60766059 -0.19908392 -0.62544203
v -0.64842999 -0.20299391 -0.62506205
v -0.55467999 -0.20307390 -0.62500203
v -0.63720310 -0.19908392 -0.62544203
v -0.57811999 -0.20307390 -0.62500203
v -0.71539485 -0.01924302 -0.43053716
v -0.59764999 -0.20299391 -0.62506205
v -0.62500000 -0.20299391 -0.62506205
v -0.59375000 -0.20299391 -0.62506205
v -0.61717999 -0.20307390 -0.62500203
v -0.56811219 -0.20299391 -0.60030204
v -0.62108999 -0.20299391 -0.62506205
v -0.54882371 -0.19908392 -0.62544203
v -0.61328000 -0.20299391 -0.62506205
v -0.55858999 -0.20299391 -0.62506205
v -0.55858999 -0.20307390 -0.62500203
v -0.61328000 -0.20307390 -0.62500203
v -0.58592999 -0.20299391 -0.62506205
v -0.53125000 -0.20307390 -0.62500203
v -0.50389999 -0.20307390 -0.62500203
v -0.50000000 -0.20307390 -0.62500203
v -0.62108999 -0.20307390 -0.62500203
v -0.57420999 -0.20299391 -0.62506205
v -0.57811999 -0.20299391 -0.62506205
v -0.57420999 -0.20307390 -0.62500203
v -0.60936999 -0.20299391 -0.62506205
v -0.53125000 -0.20299391 -0.62506205
v -0.53514999 -0.20299391 -0.62506205
v -0.61717999 -0.20299391 -0.62506205
v -0.54686999 -0.20307390 -0.62500203
v -0.54295999 -0.20307390 -0.62500203
v -0.57616746 -0.19908392 -0.62544203
v -0.60545999 -0.20299391 -0.62506205
v -0.58203000 -0.20299391 -0.62506205
v -0.52733999 -0.20299391 -0.62506205
v -0.52733999 -0.20307390 -0.62500203
v -0.58592999 -0.20307390 -0.62500203
v -0.56250000 -0.20299391 -0.62506205
v -0.53234434 -0.20427798 -0.60743260
v -0.56250000 -0.20307390 -0.62500203
v -0.56639999 -0.20299391 -0.62506205
v -0.57031000 -0.20299391 -0.62506205
v -0.58983999 -0.20307390 -0.62500203
v -0.58983999 -0.20299391 -0.62506205
v -0.54295999 -0.20299391 -0.62506205
v -0.54686999 -0.20299391 -0.62506205
v -0.53906000 -0.20299391 -0.62506205
v -0.53514999 -0.20307390 -0.62500203
v -0.53906000 -0.20307390 -0.62500203
v -0.55078000 -0.20307390 -0.62500203
v -0.52563059 -0.19908392 -0.62544203
v -0.55467999 -0.20299391 -0.62506205
v -0.52342999 -0.20307390 -0.62500203
v -0.55078000 -0.20299391 -0.62506205
v -0.51953000 -0.20307390 -0.62500203
v -0.52342999 -0.20299391 -0.62506205
v -0.50389999 -0.20299391 -0.62506205
v -0.50781000 -0.20299391 -0.62506205
v -0.51561999 -0.20299391 -0.62506205
v -0.51953000 -0.20299391 -0.62506205
v -0.51561999 -0.20307390 -0.62500203
v -0.48436999 -0.20307390 -0.62500203
v -0.48436999 -0.20299391 -0.62506205
v -0.48045999 -0.20307390 -0.62500203
v -0.49217999 -0.20307390 -0.62500203
v -0.45703000 -0.20299391 -0.62506205
v -0.45311999 -0.20307390 -0.62500203
v -0.45703000 -0.20307390 -0.62500203
v -0.49657875 -0.19908392 -0.62544203
v -0.61020523 0.08633265 -0.61802828
v -0.47656000 -0.20307390 -0.62500203
v -0.50781000 -0.20307390 -0.62500203
v -0.46875000 -0.20307390 -0.62500203
v -0.46875000 -0.20299391 -0.62506205
v -0.46483999 -0.20307390 -0.62500203
v -0.51170999 -0.20299391 -0.62506205
v -0.51170999 -0.20307390 -0.62500203
v -0.48045999 -0.20299391 -0.62506205
v -0.50000000 -0.20299391 -0.62506205
v -0.49608999 -0.20307390 -0.62500203
v -0.44139999 -0.20307390 -0.62500203
v -0.46092999 -0.20307390 -0.62500203
v -0.48828000 -0.20307390 -0.62500203
v -0.47264999 -0.20437393 -0.60156202
v -0.45311999 -0.20299391 -0.62506205
v -0.47656000 -0.20299391 -0.62506205
v -0.47216374 -0.19908392 -0.62544203
v -0.44139999 -0.20299391 -0.62506205
v -0.44531000 -0.20299391 -0.62506205
v -0.47264999 -0.20299391 -0.62506205
v -0.47264999 -0.20307390 -0.62500203
v -0.49608999 -0.20299391 -0.62506205
v -0.46483999 -0.20299391 -0.62506205
v -0.49217999 -0.20299391 -0.62506205
v -0.48828000 -0.20299391 -0.62506205
v -0.44920999 -0.20299391 -0.62506205
v -0.44726124 -0.19908392 -0.62544203
v -0.44531000 -0.20307390 -0.62500203
v -0.43750000 -0.20299391 -0.62506205
v -0.43750000 -0.20307390 -0.62500203
v -0.44920999 -0.20307390 -0.62500203
v -0.42186999 -0.20299391 -0.62506205
v -0.42578000 -0.20299391 -0.62506205
v -0.42333499 -0.19908392 -0.62544203
v -0.42186999 -0.20307390 -0.62500203
v -0.46092999 -0.20299391 -0.62506205
v -0.42967999 -0.20299391 -0.62506205
v -0.43358999 -0.20299391 -0.62506205
v -0.42967999 -0.20307390 -0.62500203
v -0.39047858 0.14192513 -0.59651160
v -0.35545999 -0.20299391 -0.62506205
v -0.35936999 -0.20299391 -0.62506205
v -0.35545999 -0.20307390 -0.62500203
v -0.41406000 -0.20307390 -0.62500203
v -0.39660311 -0.20316641 -0.60045952
v -0.37500000 -0.20299391 -0.62506205
v -0.37889999 -0.20299391 -0.62506205
v -0.37500000 -0.20307390 -0.62500203
v -0.39061999 -0.20307390 -0.62500203
v -0.41795999 -0.20307390 -0.62500203
v -0.41014999 -0.20307390 -0.62500203
v -0.42578000 -0.20307390 -0.62500203
v -0.37987873 -0.19908392 -0.62544203
v -0.41795999 -0.20299391 -0.62506205
v -0.41014999 -0.20299391 -0.62506205
v -0.41406000 -0.20299391 -0.62506205
v -0.39842999 -0.20307390 -0.62500203
v -0.39061999 -0.20299391 -0.62506205
v -0.39453000 -0.20299391 -0.62506205
v -0.38670999 -0.20307390 -0.62500203
v -0.38281000 -0.20307390 -0.62500203
v -0.43358999 -0.20307390 -0.62500203
v -0.37889999 -0.20307390 -0.62500203
v -0.32031000 -0.20299391 -0.62506205
v -0.32420999 -0.20299391 -0.62506205
v -0.32031000 -0.20307390 -0.62500203
v -0.40625000 -0.20307390 -0.62500203
v -0.40233999 -0.20307390 -0.62500203
v -0.37108999 -0.20299391 -0.62506205
v -0.37108999 -0.20307390 -0.62500203
v -0.38281000 -0.20299391 -0.62506205
v -0.39842999 -0.20299391 -0.62506205
v -0.40625000 -0.20299391 -0.62506205
v -0.40282875 -0.19908392 -0.62544203
v -0.40233999 -0.20299391 -0.62506205
v -0.39453000 -0.20307390 -0.62500203
v -0.38670999 -0.20299391 -0.62506205
v -0.35156000 -0.20299391 -0.62506205
v -0.35156000 -0.20307390 -0.62500203
v -0.34375000 -0.20307390 -0.62500203
v -0.33983999 -0.20307390 -0.62500203
v -0.36717999 -0.20299391 -0.62506205
v -0.36328000 -0.20307390 -0.62500203
v -0.36717999 -0.20307390 -0.62500203
v -0.34764999 -0.20307390 -0.62500203
v -0.36328000 -0.20299391 -0.62506205
v -0.35936999 -0.20307390 -0.62500203
v -0.33203000 -0.20307390 -0.62500203
v -0.32811999 -0.20307390 -0.62500203
v -0.34375000 -0.20299391 -0.62506205
v -0.34764999 -0.20299391 -0.62506205
v -0.35156000 -0.20299391 -0.60030204
v -0.29223248 -0.19908392 -0.62544203
v -0.33203000 -0.20299391 -0.62506205
v -0.32470250 -0.19908392 -0.62544203
v -0.26366749 -0.19908392 -0.62544203
v -0.29686999 -0.20307390 -0.62500203
v -0.30858999 -0.20299391 -0.62506205
v -0.31250000 -0.20299391 -0.62506205
v -0.30858999 -0.20307390 -0.62500203
v -0.33592999 -0.20299391 -0.62506205
v -0.32420999 -0.20307390 -0.62500203
v -0.32811999 -0.20299391 -0.62506205
v -0.29295999 -0.20307390 -0.62500203
v -0.33592999 -0.20307390 -0.62500203
v -0.33983999 -0.20299391 -0.62506205
v -0.31639999 -0.20307390 -0.62500203
v -0.31639999 -0.20299391 -0.62506205
v -0.31250000 -0.20307390 -0.62500203
v -0.30467999 -0.20307390 -0.62500203
v -0.30078000 -0.20307390 -0.62500203
v -0.30467999 -0.20299391 -0.62506205
v -0.28906000 -0.20299391 -0.62506205
v -0.28514999 -0.20307390 -0.62500203
v -0.28906000 -0.20307390 -0.62500203
v -0.30078000 -0.20299391 -0.62506205
v -0.35351124 -0.19908392 -0.62544203
v -0.29295999 -0.20299391 -0.62506205
v -0.19531000 -0.20299391 -0.62506205
v -0.19921000 -0.20299391 -0.62506205
v -0.19531000 -0.20307390 -0.62500203
v -0.25000000 -0.20299391 -0.62506205
v -0.24218000 -0.20307390 -0.62500203
v -0.25389999 -0.20299391 -0.62506205
v -0.25000000 -0.20307390 -0.62500203
v -0.26953000 -0.20307390 -0.62500203
v -0.28125000 -0.20299391 -0.62506205
v -0.26561999 -0.20299391 -0.62506205
v -0.28125000 -0.20307390 -0.62500203
v -0.27996516 -0.20398580 -0.60120761
v -0.28514999 -0.20299391 -0.62506205
v -0.27342999 -0.20299391 -0.62506205
v -0.23828000 -0.20307390 -0.62500203
v -0.25781000 -0.20307390 -0.62500203
v -0.26170999 -0.20307390 -0.62500203
v -0.29686999 -0.20299391 -0.62506205
v -0.27342999 -0.20307390 -0.62500203
v -0.19140001 -0.20299391 -0.62506205
v -0.18750000 -0.20307390 -0.62500203
v -0.19140001 -0.20307390 -0.62500203
v -0.25389999 -0.20307390 -0.62500203
v -0.33628541 0.08721740 -0.62290496
v -0.22656000 -0.20307390 -0.62500203
v -0.22265001 -0.20307390 -0.62500203
v -0.26170999 -0.20299391 -0.62506205
v -0.26561999 -0.20307390 -0.62500203
v -0.27733999 -0.20299391 -0.62506205
v -0.27733999 -0.20307390 -0.62500203
v -0.24608999 -0.20307390 -0.62500203
v -0.24535687 -0.20522390 -0.62109202
v -0.26953000 -0.20299391 -0.62506205
v -0.23828000 -0.20299391 -0.62506205
v -0.25781000 -0.20299391 -0.62506205
v -0.21875000 -0.20307390 -0.62500203
v -0.24608999 -0.20299391 -0.62506205
v -0.23046000 -0.20307390 -0.62500203
v -0.22265001 -0.20299391 -0.62506205
v -0.22656000 -0.20299391 -0.62506205
v -0.23436999 -0.20307390 -0.62500203
v -0.23436999 -0.20299391 -0.62506205
v -0.20703000 -0.20307390 -0.62500203
v -0.23046000 -0.20299391 -0.62506205
v -0.23241749 -0.19908392 -0.62544203
v -0.21093000 -0.20307390 -0.62500203
v -0.21875000 -0.20299391 -0.62506205
v -0.24218000 -0.20299391 -0.62506205
v -0.19750500 -0.20368391 -0.60093200
v -0.20311999 -0.20307390 -0.62500203
v -0.20311999 -0.20299391 -0.62506205
v -0.19921000 -0.20307390 -0.62500203
v -0.20703000 -0.20299391 -0.62506205
v -0.19872625 -0.19908392 -0.62544203
v 0.09008053 0.15014607 -0.62495834
v -0.21483999 -0.20299391 -0.62506205
v -0.21483999 -0.19908392 -0.62544203
v -0.17186999 -0.20299391 -0.62506205
v -0.18358999 -0.20307390 -0.62500203
v -0.18750000 -0.20299391 -0.62506205
v -0.14061999 -0.20307390 -0.62500203
v -0.13281000 -0.20299391 -0.62506205
v -0.13671000 -0.20299391 -0.62506205
v -0.13281000 -0.20307390 -0.62500203
v -0.17578000 -0.20299391 -0.62506205
v -0.17186999 -0.20307390 -0.62500203
v -0.18358999 -0.20299391 -0.62506205
v -0.17968000 -0.20307390 -0.62500203
v -0.16796000 -0.20299391 -0.62506205
v -0.15625000 -0.20299391 -0.62506205
v -0.16698813 -0.19908392 -0.62544203
v -0.21483999 -0.20307390 -0.62500203
v -0.17578000 -0.20307390 -0.62500203
v -0.17968000 -0.20299391 -0.62506205
v -0.21093000 -0.20299391 -0.62506205
v -0.12500000 -0.20299391 -0.62506205
v -0.12890001 -0.20299391 -0.62506205
v -0.12500000 -0.20307390 -0.62500203
v -0.10156000 -0.20299391 -0.62506205
v -0.14061999 -0.20299391 -0.62506205
v -0.13793500 -0.19908392 -0.62544203
v -0.13671000 -0.20307390 -0.62500203
v -0.15625000 -0.20307390 -0.62500203
v -0.15233999 -0.20307390 -0.62500203
v -0.16406000 -0.20307390 -0.62500203
v -0.16015001 -0.20307390 -0.62500203
v -0.12890001 -0.20307390 -0.62500203
v -0.16015001 -0.20299391 -0.62506205
v -0.16406000 -0.20299391 -0.62506205
v -0.16796000 -0.20307390 -0.62500203
v -0.14453000 -0.20299391 -0.62506205
v -0.14843000 -0.20307390 -0.62500203
v -0.14453000 -0.20307390 -0.62500203
v -0.16082665 -0.20548384 -0.60106939
v -0.10937000 -0.20299391 -0.62506205
v -0.11328000 -0.20299391 -0.62506205
v -0.10937000 -0.20307390 -0.62500203
v -0.09375000 -0.20299391 -0.62506205
v -0.09325750 -0.19908392 -0.62544203
v -0.15233999 -0.20299391 -0.62506205
v -0.06524266 -0.20412204 -0.60621578
v -0.14843000 -0.20299391 -0.62506205
v -0.11328000 -0.20307390 -0.62500203
v -0.08984000 -0.20299391 -0.62506205
v -0.08984000 -0.20307390 -0.62500203
v -0.10961500 -0.20522390 -0.62109202
v -0.11718000 -0.20299391 -0.62506205
v -0.09375000 -0.20307390 -0.62500203
v -0.09765000 -0.20307390 -0.62500203
v -0.09765000 -0.20299391 -0.62506205
v 0.00878625 -0.20437393 -0.60156202
v -0.12109000 -0.20307390 -0.62500203
v -0.11718000 -0.20307390 -0.62500203
v -0.07812000 -0.20307390 -0.62500203
v -0.07421000 -0.20307390 -0.62500203
v -0.10156000 -0.20307390 -0.62500203
v -0.12109000 -0.20299391 -0.62506205
v -0.10546000 -0.20307390 -0.62500203
v -0.05468000 -0.20299391 -0.62506205
v -0.05859000 -0.20299391 -0.62506205
v -0.05468000 -0.20307390 -0.62500203
v -0.11669500 -0.19908392 -0.62544203
v -0.08203000 -0.20299391 -0.62506205
v -0.08593000 -0.20299391 -0.62506205
v -0.08203000 -0.20307390 -0.62500203
v -0.08593000 -0.20307390 -0.62500203
v -0.10546000 -0.20299391 -0.62506205
v -0.07421000 -0.20299391 -0.62506205
v -0.07812000 -0.20299391 -0.62506205
v -0.03906000 -0.20299391 -0.62506205
v -0.04296000 -0.20299391 -0.62506205
v -0.03906000 -0.20307390 -0.62500203
v -0.05078000 -0.20299391 -0.62506205
v -0.00780875 -0.19908392 -0.62544203
v -0.07031000 -0.20307390 -0.62500203
v -0.06640000 -0.20307390 -0.62500203
v -0.06444875 -0.19908392 -0.62544203
v -0.03125000 -0.20299391 -0.62506205
v -0.06250000 -0.20307390 -0.62500203
v -0.06250000 -0.20299391 -0.62506205
v -0.05859000 -0.20307390 -0.62500203
v -0.05078000 -0.20307390 -0.62500203
v -0.04687000 -0.20307390 -0.62500203
v -0.03515000 -0.20307390 -0.62500203
v -0.02734000 -0.20299391 -0.62506205
v -0.04687000 -0.20299391 -0.62506205
v -0.04296000 -0.20307390 -0.62500203
v -0.03125000 -0.20307390 -0.62500203
v -0.07031000 -0.20299391 -0.62506205
v -0.06640000 -0.20299391 -0.62506205
v -0.02343000 -0.20307390 -0.62500203
v -0.03661625 -0.19908392 -0.62544203
v -0.01171000 -0.20299391 -0.62506205
v -0.01562000 -0.20299391 -0.62506205
v -0.01171000 -0.20307390 -0.62500203
v 0.00781000 -0.20307390 -0.62500203
v -0.03515000 -0.20299391 -0.62506205
v -0.00781000 -0.20307390 -0.62500203
v -0.01953000 -0.20299391 -0.62506205
v -0.01562000 -0.20307390 -0.62500203
v -0.01953000 -0.20307390 -0.62500203
v -0.02343000 -0.20299391 -0.62506205
v -0.02734000 -0.20307390 -0.62500203
v -0.00781000 -0.20299391 -0.62506205
v 0.01953000 -0.20299391 -0.62506205
v -0.00390000 -0.20307390 -0.62500203
v 0.01562000 -0.20299391 -0.62506205
v 0.01171000 -0.20299391 -0.62506205
v 0.01562000 -0.20307390 -0.62500203
v 0.00781000 -0.20299391 -0.62506205
v 0.01171000 -0.20307390 -0.62500203
v -0.00390000 -0.20299391 -0.62506205
v 0.00000000 -0.20299391 -0.62506205
v 0.00000000 -0.20307390 -0.62500203
v 0.02343000 -0.20307390 -0.62500203
v 0.03906000 -0.20307390 -0.62500203
v 0.04296000 -0.20307390 -0.62500203
v 0.02734000 -0.20307390 -0.62500203
v 0.00390000 -0.20299391 -0.62506205
v 0.00390000 -0.20307390 -0.62500203
v 0.04125437 -0.20333891 -0.60061699
v 0.07812000 -0.20307390 -0.62500203
v 0.07812000 -0.20299391 -0.62506205
v 0.08203000 -0.20307390 -0.62500203
v 0.01953000 -0.20307390 -0.62500203
v 0.02734000 -0.20299391 -0.62506205
v 0.03125000 -0.20307390 -0.62500203
v 0.04687000 -0.20307390 -0.62500203
v 0.05078000 -0.20307390 -0.62500203
v 0.02343000 -0.20299391 -0.62506205
v 0.03125000 -0.20299391 -0.62506205
v 0.03515125 -0.19908392 -0.62544203
v 0.05859000 -0.20299391 -0.62506205
v 0.06250000 -0.20307390 -0.62500203
v 0.05859000 -0.20307390 -0.62500203
v 0.03515000 -0.20307390 -0.62500203
v 0.03515000 -0.20299391 -0.62506205
v 0.60545999 -0.20299391 -0.62506205
v 0.60156000 -0.20299391 -0.62506205
v 0.60545999 -0.20307390 -0.62500203
v 0.04296000 -0.20299391 -0.62506205
v 0.05468000 -0.20307390 -0.62500203
v 0.01317875 -0.19908392 -0.62544203
v 0.03906000 -0.20299391 -0.62506205
v 0.05468000 -0.20299391 -0.62506205
v 0.05078000 -0.20299391 -0.62506205
v 0.07421000 -0.20307390 -0.62500203
v 0.06250000 -0.20299391 -0.62506205
v 0.06591375 -0.19908392 -0.62544203
v 0.04687000 -0.20299391 -0.62506205
v 0.07031000 -0.20307390 -0.62500203
v 0.07421000 -0.20299391 -0.62506205
v 0.08984000 -0.20299391 -0.62506205
v 0.06640000 -0.20307390 -0.62500203
v 0.07031000 -0.20299391 -0.62506205
v 0.09375000 -0.20299391 -0.62506205
v 0.13281000 -0.20307390 -0.62500203
v 0.10937000 -0.20307390 -0.62500203
v 0.10546000 -0.20307390 -0.62500203
v 0.10546000 -0.20299391 -0.62506205
v 0.08203000 -0.20299391 -0.62506205
v 0.06640000 -0.20299391 -0.62506205
v 0.08593000 -0.20307390 -0.62500203
v 0.08984000 -0.20307390 -0.62500203
v 0.08593000 -0.20299391 -0.62506205
v 0.12500000 -0.20299391 -0.62506205
v 0.09375000 -0.20307390 -0.62500203
v 0.09765000 -0.20299391 -0.62506205
v 0.09765125 -0.19908392 -0.62544203
v 0.10937000 -0.20299391 -0.62506205
v 0.09765000 -0.20307390 -0.62500203
v 0.10156000 -0.20307390 -0.62500203
v 0.11718000 -0.20307390 -0.62500203
v 0.12109000 -0.20307390 -0.62500203
v 0.15087500 -0.20381328 -0.60105014
v 0.11328000 -0.20307390 -0.62500203
v 0.15233999 -0.20307390 -0.62500203
v 0.13671000 -0.20299391 -0.62506205
v 0.13281000 -0.20299391 -0.62506205
v 0.13671000 -0.20307390 -0.62500203
v 0.08463844 -0.20399536 -0.60139745
v 0.21093000 -0.20299391 -0.62506205
v 0.12500000 -0.20307390 -0.62500203
v 0.11718000 -0.20299391 -0.62506205
v 0.11328000 -0.20299391 -0.62506205
v 0.12109000 -0.20299391 -0.62506205
v 0.14453000 -0.20299391 -0.62506205
v 0.14061999 -0.20299391 -0.62506205
v 0.14550374 -0.19908392 -0.62544203
v 0.14453000 -0.20307390 -0.62500203
v 0.10156000 -0.20299391 -0.62506205
v 0.16796000 -0.20299391 -0.62506205
v 0.16406000 -0.20299391 -0.62506205
v 0.16796000 -0.20307390 -0.62500203
v 0.14843000 -0.20307390 -0.62500203
v 0.12890001 -0.20307390 -0.62500203
v 0.12890001 -0.20299391 -0.62506205
v 0.14061999 -0.20307390 -0.62500203
v 0.17968000 -0.20307390 -0.62500203
v 0.18358999 -0.20307390 -0.62500203
v 0.12475125 -0.19908392 -0.62544203
v 0.16406000 -0.20307390 -0.62500203
v 0.15233999 -0.20299391 -0.62506205
v 0.14843000 -0.20299391 -0.62506205
v 0.15625000 -0.20299391 -0.62506205
v 0.15625000 -0.20307390 -0.62500203
v 0.18993750 -0.19908392 -0.62544203
v 0.18750000 -0.20307390 -0.62500203
v 0.17186999 -0.20299391 -0.62506205
v 0.17186999 -0.20307390 -0.62500203
v 0.20311999 -0.20307390 -0.62500203
v 0.20311999 -0.20299391 -0.62506205
v 0.20703000 -0.20307390 -0.62500203
v 0.16015001 -0.20299391 -0.62506205
v 0.16893999 -0.19908392 -0.62544203
v 0.16015001 -0.20307390 -0.62500203
v 0.20800374 -0.19908392 -0.62544203
v 0.17578000 -0.20307390 -0.62500203
v 0.17578000 -0.20299391 -0.62506205
v 0.23436999 -0.20307390 -0.62500203
v 0.98677087 -0.20320584 -0.61009032
v 0.95703000 0.10948609 0.08202800
v 0.95704001 0.10949609 0.08202800
v 0.95704001 0.10949609 0.07811800
v 0.96448380 -0.20701542 -0.59424680
v 0.95703000 0.10948609 0.12108800
v 0.95704001 0.10949609 0.12108800
v 0.95704001 0.10949609 0.11717799
v 0.17968000 -0.20299391 -0.62506205
v 0.18750000 -0.20299391 -0.62506205
v 0.18358999 -0.20299391 -0.62506205
v 0.19140001 -0.20307390 -0.62500203
v 0.19531000 -0.20307390 -0.62500203
v 0.20703000 -0.20299391 -0.62506205
v 0.21093000 -0.20307390 -0.62500203
v 0.21483999 -0.20299391 -0.62506205
v 0.19921000 -0.20307390 -0.62500203
v 0.22656000 -0.20299391 -0.62506205
v 0.23046000 -0.20307390 -0.62500203
v 0.22656000 -0.20307390 -0.62500203
v 0.23046000 -0.20299391 -0.62506205
v 0.25389999 -0.20307390 -0.62500203
v 0.25781000 -0.20307390 -0.62500203
v 0.21483999 -0.20307390 -0.62500203
v 0.19921000 -0.20299391 -0.62506205
v 0.23778813 -0.19908392 -0.62544203
v 0.21875000 -0.20299391 -0.62506205
v 0.21875000 -0.20307390 -0.62500203
v 0.19531000 -0.20299391 -0.62506205
v 0.19140001 -0.20299391 -0.62506205
v 0.23436999 -0.20299391 -0.62506205
v 0.26561999 -0.20299391 -0.62506205
v 0.22265001 -0.20307390 -0.62500203
v 0.48828000 -0.20299391 -0.62506205
v 0.23828000 -0.20299391 -0.62506205
v 0.48436999 -0.20299391 -0.62506205
v 0.48045999 -0.20299391 -0.62506205
v 0.48436999 -0.20307390 -0.62500203
v 0.58385718 -0.20490517 -0.61181450
v 0.24608999 -0.20299391 -0.62506205
v 0.25000000 -0.20307390 -0.62500203
v 0.24608999 -0.20307390 -0.62500203
v 0.22362749 -0.20437393 -0.60156202
v 0.53814405 0.12657055 -0.56585568
v 0.24218000 -0.20307390 -0.62500203
v 0.28393063 -0.19908392 -0.62544203
v 0.22265001 -0.20299391 -0.62506205
v 0.23828000 -0.20307390 -0.62500203
v 0.26073748 -0.19908392 -0.62544203
v 0.27733999 -0.20307390 -0.62500203
v 0.28125000 -0.20307390 -0.62500203
v 0.95704001 0.10949609 0.08592799
v 0.95703000 0.10948609 0.08592799
v 0.26170999 -0.20299391 -0.62506205
v 0.24218000 -0.20299391 -0.62506205
v 0.25000000 -0.20299391 -0.62506205
v 0.26561999 -0.20307390 -0.62500203
v 0.27733999 -0.20299391 -0.62506205
v 0.27342999 -0.20299391 -0.62506205
v 0.26170999 -0.20307390 -0.62500203
v 0.29295999 -0.20307390 -0.62500203
v 0.29686999 -0.20307390 -0.62500203
v 0.28125000 -0.20299391 -0.62506205
v 0.26953000 -0.20307390 -0.62500203
v 0.27342999 -0.20307390 -0.62500203
v 0.30078000 -0.20299391 -0.62506205
v 0.29686999 -0.20299391 -0.62506205
v 0.30078000 -0.20307390 -0.62500203
v 0.25389999 -0.20299391 -0.62506205
v 0.30858999 0.14839607 -0.22656199
v 0.30870765 0.14851870 -0.22699133
v 0.30858999 -0.20307390 -0.62500203
v 0.29393998 -0.20437393 -0.60156202
v 0.25781000 -0.20299391 -0.62506205
v 0.28906000 -0.20307390 -0.62500203
v 0.26953000 -0.20299391 -0.62506205
v 0.29295999 -0.20299391 -0.62506205
v 0.32031000 -0.20307390 -0.62500203
v 0.32420999 -0.20307390 -0.62500203
v 0.33983999 -0.20299391 -0.62506205
v 0.33592999 -0.20299391 -0.62506205
v 0.33983999 -0.20307390 -0.62500203
v 0.28514999 -0.20299391 -0.62506205
v 0.28514999 -0.20307390 -0.62500203
v 0.30467999 -0.20307390 -0.62500203
v 0.32420999 -0.20299391 -0.62506205
v 0.32031000 -0.20299391 -0.62506205
v 0.30858999 -0.20299391 -0.62506205
v 0.95704001 0.10949609 0.07420800
v 0.30467999 -0.20299391 -0.62506205
v 0.28906000 -0.20299391 -0.62506205
v 0.31250000 -0.20307390 -0.62500203
v 0.31250000 -0.20299391 -0.62506205
v 0.38670999 -0.20299391 -0.62506205
v 0.31054249 -0.19908392 -0.62544203
v 0.33471313 -0.20351142 -0.60077453
v 0.34375000 -0.20307390 -0.62500203
v 0.34375000 -0.20299391 -0.62506205
v 0.34764999 -0.20307390 -0.62500203
v 0.32811999 -0.20299391 -0.62506205
v 0.39061999 -0.20307390 -0.62500203
v 0.39061999 -0.20299391 -0.62506205
v 0.39453000 -0.20307390 -0.62500203
v 0.39842999 -0.20299391 -0.62506205
v 0.39453000 -0.20299391 -0.62506205
v 0.39842999 -0.20307390 -0.62500203
v 0.30858999 0.14855608 -0.22182199
v 0.30858999 0.14852609 -0.22265200
v 0.30860999 0.14855608 -0.22265200
v 0.30613047 0.14663340 -0.22454140
v 0.32811999 -0.20307390 -0.62500203
v 0.34764999 -0.20299391 -0.62506205
v 0.33592999 -0.20307390 -0.62500203
v 0.31639999 -0.20307390 -0.62500203
v 0.33593374 -0.19908392 -0.62544203
v 0.38281000 -0.20299391 -0.62506205
v 0.38670999 -0.20307390 -0.62500203
v 0.30998611 0.15421194 -0.26744506
v 0.33203000 -0.20307390 -0.62500203
v 0.31639999 -0.20299391 -0.62506205
v 0.35936999 -0.20307390 -0.62500203
v 0.36328000 -0.20307390 -0.62500203
v 0.30821422 0.15440410 -0.21387553
v 0.97264999 -0.20299391 -0.62506205
v 0.25835589 0.23512934 -0.08859539
v 0.37500000 -0.20299391 -0.62506205
v 0.37108999 -0.20299391 -0.62506205
v 0.37500000 -0.20307390 -0.62500203
v 0.36328000 -0.20299391 -0.62506205
v 0.36717999 -0.20307390 -0.62500203
v 0.37108999 -0.20307390 -0.62500203
v 0.95704001 0.10949609 0.08983800
v 0.33203000 -0.20299391 -0.62506205
v 0.35545999 -0.20307390 -0.62500203
v 0.37889999 -0.20299391 -0.62506205
v 0.37889999 -0.20307390 -0.62500203
v 0.35156000 -0.20307390 -0.62500203
v 0.47656000 -0.20307390 -0.62500203
v 0.48045999 -0.20307390 -0.62500203
v 0.38281000 -0.20307390 -0.62500203
v 0.41795999 -0.20307390 -0.62500203
v 0.41406000 -0.20307390 -0.62500203
v 0.41406000 -0.20299391 -0.62506205
v 0.36717999 -0.20299391 -0.62506205
v 0.35936999 -0.20299391 -0.62506205
v 0.40233999 -0.20299391 -0.62506205
v 0.40625000 -0.20307390 -0.62500203
v 0.40233999 -0.20307390 -0.62500203
v 0.35545999 -0.20299391 -0.62506205
v 0.35156000 -0.20299391 -0.62506205
v 0.45295936 -0.20683689 -0.60171211
v 0.39647999 -0.19908392 -0.62544203
v 0.43750000 -0.20307390 -0.62500203
v 0.43358999 -0.20307390 -0.62500203
v 0.43358999 -0.20299391 -0.62506205
v 0.38378373 -0.20333891 -0.60061699
v 0.66601121 -0.20522390 -0.62109202
v 0.44920999 -0.20299391 -0.62506205
v 0.45311999 -0.20307390 -0.62500203
v 0.44920999 -0.20307390 -0.62500203
v 0.36998969 -0.19908392 -0.62544203
v 0.40625000 -0.20299391 -0.62506205
v 0.95273620 0.15547846 0.09031373
v 0.41014999 -0.20307390 -0.62500203
v 0.42578000 -0.20299391 -0.62506205
v 0.42186999 -0.19908392 -0.62544203
v 0.45311999 -0.20299391 -0.62506205
v 0.52782875 -0.19908392 -0.62544203
v 0.42578000 -0.20307390 -0.62500203
v 0.42967999 -0.20307390 -0.62500203
v 0.43750000 -0.20299391 -0.62506205
v 0.44139999 -0.20299391 -0.62506205
v 0.44139999 -0.20307390 -0.62500203
v 0.49608999 -0.20299391 -0.62506205
v 0.49217999 -0.20299391 -0.62506205
v 0.49608999 -0.20307390 -0.62500203
v 0.45703000 -0.20299391 -0.62506205
v 0.42186999 -0.20307390 -0.62500203
v 0.41014999 -0.20299391 -0.62506205
v 0.41795999 -0.20299391 -0.62506205
v 0.42186999 -0.20299391 -0.62506205
v 0.44531000 -0.20307390 -0.62500203
v 0.95704001 0.10949609 0.12499800
v 0.42967999 -0.20299391 -0.62506205
v 0.45703000 -0.20307390 -0.62500203
v 0.44531000 -0.20299391 -0.62506205
v 0.46092999 -0.20307390 -0.62500203
v 0.46483999 -0.20307390 -0.62500203
v 0.49217999 -0.20307390 -0.62500203
v 0.48828000 -0.20307390 -0.62500203
v 0.46875000 -0.20307390 -0.62500203
v 0.53906000 -0.20307390 -0.62500203
v 0.54295999 -0.20307390 -0.62500203
v 0.46875000 -0.20299391 -0.62506205
v 0.45458561 -0.19908392 -0.62544203
v 0.46483999 -0.20299391 -0.62506205
v 0.46092999 -0.20299391 -0.62506205
v 0.48241624 -0.19908392 -0.62544203
v 0.55467999 -0.20307390 -0.62500203
v 0.55858999 -0.20307390 -0.62500203
v 0.47264999 -0.20307390 -0.62500203
v 0.51170999 -0.20299391 -0.62506205
v 0.50781000 -0.20299391 -0.62506205
v 0.50536627 -0.19908392 -0.62544203
v 0.51170999 -0.20307390 -0.62500203
v 0.47656000 -0.20299391 -0.62506205
v 0.47264999 -0.20299391 -0.62506205
v 0.52342999 -0.20307390 -0.62500203
v 0.51561999 -0.20299391 -0.62506205
v 0.51953000 -0.20307390 -0.62500203
v 0.51561999 -0.20307390 -0.62500203
v 0.95703000 0.10948609 0.12499800
v 0.50000000 -0.20307390 -0.62500203
v 0.50000000 -0.20299391 -0.62506205
v 0.52733999 -0.20307390 -0.62500203
v 0.53125000 -0.20299391 -0.62506205
v 0.55078000 -0.20299391 -0.62506205
v 0.54686999 -0.20299391 -0.62506205
v 0.55078000 -0.20307390 -0.62500203
v 0.54686999 -0.20307390 -0.62500203
v 0.62597126 -0.19908392 -0.62544203
v 0.56250000 -0.20299391 -0.62506205
v 0.55858999 -0.20299391 -0.62506205
v 0.55614752 -0.19908392 -0.62544203
v 0.56250000 -0.20307390 -0.62500203
v 0.50781000 -0.20307390 -0.62500203
v 0.60936999 -0.20299391 -0.62506205
v 0.60936999 -0.20307390 -0.62500203
v 0.57420999 -0.20299391 -0.62506205
v 0.57811999 -0.19908392 -0.62544203
v 0.65233999 -0.19908392 -0.62544203
v 0.52733999 -0.20333891 -0.60061699
v 0.52733999 -0.20299391 -0.62506205
v 0.52342999 -0.20299391 -0.62506205
v 0.53514999 -0.20307390 -0.62500203
v 0.57811999 -0.20307390 -0.62500203
v 0.57031000 -0.20307390 -0.62500203
v 0.55467999 -0.20299391 -0.62506205
v 0.53906000 -0.20299391 -0.62506205
v 0.50389999 -0.20299391 -0.62506205
v 0.50389999 -0.20307390 -0.62500203
v 0.57031000 -0.20299391 -0.62506205
v 0.56639999 -0.20299391 -0.62506205
v 0.51953000 -0.20299391 -0.62506205
v 0.61328000 -0.20299391 -0.62506205
v 0.61328000 -0.20307390 -0.62500203
v 0.53125000 -0.20307390 -0.62500203
v 0.58592999 -0.20299391 -0.62506205
v 0.58203000 -0.20299391 -0.62506205
v 0.58592999 -0.20307390 -0.62500203
v 0.57420999 -0.20307390 -0.62500203
v 0.60155874 -0.19908392 -0.62544203
v 0.53514999 -0.20299391 -0.62506205
v 0.54295999 -0.20299391 -0.62506205
v 0.58203000 -0.20307390 -0.62500203
v 0.58983999 -0.20307390 -0.62500203
v 0.58983999 -0.20299391 -0.62506205
v 0.56639999 -0.20307390 -0.62500203
v 0.59764999 -0.20299391 -0.62506205
v 0.95704001 0.10949609 0.06639800
v 0.95704001 0.10949609 0.07030799
v 0.60156000 -0.20307390 -0.62500203
v 0.69531000 -0.20307390 -0.62500203
v 0.69920999 -0.20307390 -0.62500203
v 0.59764999 -0.20307390 -0.62500203
v 0.65233999 -0.20307390 -0.62500203
v 0.57811999 -0.20299391 -0.62506205
v 0.59375000 -0.20299391 -0.62506205
v 0.59375000 -0.20307390 -0.62500203
v 0.67578000 -0.20299391 -0.62506205
v 0.62108999 -0.20307390 -0.62500203
v 0.61717999 -0.20307390 -0.62500203
v 0.62500000 -0.20299391 -0.62506205
v 0.62108999 -0.20299391 -0.62506205
v 0.62500000 -0.20307390 -0.62500203
v 0.63281000 -0.20307390 -0.62500203
v 0.63670999 -0.20307390 -0.62500203
v 0.61717999 -0.20299391 -0.62506205
v 0.66014999 -0.20299391 -0.62506205
v 0.66406000 -0.20307390 -0.62500203
v 0.66014999 -0.20307390 -0.62500203
v 0.66795999 -0.20307390 -0.62500203
v 0.63281000 -0.20299391 -0.62506205
v 0.72656000 -0.20307390 -0.62500203
v 0.64061999 -0.20307390 -0.62500203
v 0.64842999 -0.20307390 -0.62500203
v 0.68358999 -0.20307390 -0.62500203
v 0.64453000 -0.20307390 -0.62500203
v 0.72656000 -0.20299391 -0.62506205
v 0.63670999 -0.20299391 -0.62506205
v 0.67186999 -0.20299391 -0.62506205
v 0.67578000 -0.20307390 -0.62500203
v 0.65625000 -0.20307390 -0.62500203
v 0.65625000 -0.20299391 -0.62506205
v 0.67967999 -0.20307390 -0.62500203
v 0.64453000 -0.20299391 -0.62506205
v 0.62889999 -0.20307390 -0.62500203
v 0.66795999 -0.20299391 -0.62506205
v 0.67186999 -0.20307390 -0.62500203
v 0.62889999 -0.20299391 -0.62506205
v 0.62646031 -0.20342515 -0.60069579
v 0.67772996 -0.19908392 -0.62544203
v 0.64061999 -0.20299391 -0.62506205
v 0.64842999 -0.20299391 -0.62506205
v 0.65233999 -0.20299391 -0.62506205
v 0.71483999 -0.20307390 -0.62500203
v 0.66406000 -0.20299391 -0.62506205
v 0.68750000 -0.20299391 -0.62506205
v 0.68358999 -0.20299391 -0.62506205
v 0.68750000 -0.20307390 -0.62500203
v 0.67967999 -0.20299391 -0.62506205
v 0.71875000 -0.20307390 -0.62500203
v 0.71483999 -0.20299391 -0.62506205
v 0.76953000 -0.20299391 -0.62506205
v 0.77342999 -0.20307390 -0.62500203
v 0.76953000 -0.20307390 -0.62500203
v 0.71371073 -0.20152001 -0.60232323
v 0.71092999 -0.20299391 -0.62506205
v 0.70703000 -0.20299391 -0.62506205
v 0.71092999 -0.20307390 -0.62500203
v 0.69139999 -0.20307390 -0.62500203
v 0.69531000 -0.20299391 -0.62506205
v 0.75000000 -0.20299391 -0.62506205
v 0.74608999 -0.20299391 -0.62506205
v 0.75000000 -0.20307390 -0.62500203
v 0.70311999 -0.20307390 -0.62500203
v 0.69920999 -0.20299391 -0.62506205
v 0.70703000 -0.20307390 -0.62500203
v 0.70311999 -0.20299391 -0.62506205
v 0.71875000 -0.20299391 -0.62506205
v 0.75606370 -0.16349068 -0.62811327
v 0.69139999 -0.20299391 -0.62506205
v 0.70019126 -0.19908392 -0.62544203
v 0.72264999 -0.20307390 -0.62500203
v 0.73045999 -0.20307390 -0.62500203
v 0.73436999 -0.20307390 -0.62500203
v 0.73828000 -0.20307390 -0.62500203
v 0.97656000 -0.20307390 -0.62500203
v 0.81250000 -0.20307390 -0.62500203
v 0.81639999 -0.20307390 -0.62500203
v 0.74217999 -0.20299391 -0.62506205
v 0.74608999 -0.20307390 -0.62500203
v 0.76170999 -0.20299391 -0.62506205
v 0.75781000 -0.20299391 -0.62506205
v 0.76170999 -0.20307390 -0.62500203
v 0.73045999 -0.20299391 -0.62506205
v 0.72264999 -0.20299391 -0.62506205
v 0.73436999 -0.20299391 -0.62506205
v 0.77342999 -0.20299391 -0.62506205
v 0.77733999 -0.20307390 -0.62500203
v 0.74217999 -0.20307390 -0.62500203
v 0.73828000 -0.20299391 -0.62506205
v 0.75781000 -0.20307390 -0.62500203
v 0.85156000 -0.20307390 -0.62500203
v 0.76561999 -0.20307390 -0.62500203
v 0.80858999 -0.20299391 -0.62506205
v 0.77733999 -0.20299391 -0.62506205
v 0.77508032 -0.20389640 -0.60581452
v 0.76561999 -0.20299391 -0.62506205
v 0.75389999 -0.20299391 -0.62506205
v 0.75389999 -0.20307390 -0.62500203
v 0.95703000 0.10948609 0.10155799
v 0.95704001 0.10949609 0.09764800
v 0.95703000 0.10948609 0.09764800
v 0.78125000 -0.20307390 -0.62500203
v 0.83092779 -0.20469266 -0.60693198
v 0.78125000 -0.20299391 -0.62506205
v 0.82031000 -0.20299391 -0.62506205
v 0.82420999 -0.20307390 -0.62500203
v 0.82031000 -0.20307390 -0.62500203
v 0.82225996 -0.19908392 -0.62544203
v 0.79686999 -0.20307390 -0.62500203
v 0.80078000 -0.20307390 -0.62500203
v 0.84375000 -0.20299391 -0.62506205
v 0.79295999 -0.20307390 -0.62500203
v 0.78906000 -0.20307390 -0.62500203
v 0.78906000 -0.20299391 -0.62506205
v 0.85545999 -0.20299391 -0.62506205
v 0.80078000 -0.20299391 -0.62506205
v 0.80858999 -0.20307390 -0.62500203
v 0.80467999 -0.20307390 -0.62500203
v 0.80467999 -0.20299391 -0.62506205
v 0.78514999 -0.20307390 -0.62500203
v 0.78514999 -0.20299391 -0.62506205
v 0.81250000 -0.20299391 -0.62506205
v 0.84764999 -0.20299391 -0.62506205
v 0.97264999 -0.20307390 -0.62500203
v 0.82420999 -0.20299391 -0.62506205
v 0.82811999 -0.20307390 -0.62500203
v 0.79980063 -0.19908392 -0.62544203
v 0.79686999 -0.20299391 -0.62506205
v 0.79295999 -0.20299391 -0.62506205
v 0.86328000 -0.20299391 -0.62506205
v 0.86717999 -0.20307390 -0.62500203
v 0.86328000 -0.20307390 -0.62500203
v 0.87108999 -0.20307390 -0.62500203
v 0.83203000 -0.20307390 -0.62500203
v 0.87059999 -0.20342515 -0.60069579
v 0.83983999 -0.20299391 -0.62506205
v 0.84375000 -0.20307390 -0.62500203
v 0.83983999 -0.20307390 -0.62500203
v 0.83592999 -0.20307390 -0.62500203
v 0.85156000 -0.20299391 -0.62506205
v 0.85545999 -0.20307390 -0.62500203
v 0.81639999 -0.20299391 -0.62506205
v 0.83592999 -0.20299391 -0.62506205
v 0.95703000 0.10948609 0.07420800
v 0.95703000 0.10948609 0.07811800
v 0.98066849 -0.20230544 -0.62537444
v 0.84764999 -0.20307390 -0.62500203
v 0.83203000 -0.20299391 -0.62506205
v 0.82811999 -0.20299391 -0.62506205
v 0.85936999 -0.20307390 -0.62500203
v 0.96845496 -0.18614835 -0.14846444
v 0.87500000 -0.20307390 -0.62500203
v 0.87889999 -0.20307390 -0.62500203
v 0.95758319 0.12427200 0.11290299
v 0.87500000 -0.20299391 -0.62506205
v 0.87108999 -0.20299391 -0.62506205
v 0.90625000 -0.20299391 -0.62506205
v 0.90233999 -0.20299391 -0.62506205
v 0.90625000 -0.20307390 -0.62500203
v 0.84838438 -0.19908392 -0.62544203
v 0.85936999 -0.20299391 -0.62506205
v 0.86717999 -0.20299391 -0.62506205
v 0.88281000 -0.20307390 -0.62500203
v 0.88670999 -0.20307390 -0.62500203
v 0.89453000 -0.20299391 -0.62506205
v 0.87499499 -0.19908392 -0.62544203
v 0.88670999 -0.20299391 -0.62506205
v 0.89061999 -0.20307390 -0.62500203
v 0.95126575 0.12717360 0.53708708
v 0.91406000 -0.20307390 -0.62500203
v 0.88281000 -0.20299391 -0.62506205
v 0.87889999 -0.20299391 -0.62506205
v 0.89842999 -0.20299391 -0.62506205
v 0.89842999 -0.20307390 -0.62500203
v 0.89061999 -0.20299391 -0.62506205
v 0.89453000 -0.20307390 -0.62500203
v 0.95704001 0.10949609 0.09374800
v 0.95703000 0.10948609 0.09374800
v 0.90233999 -0.20307390 -0.62500203
v 0.91795999 -0.20307390 -0.62500203
v 0.93750000 -0.20299391 -0.62506205
v 0.93358999 -0.20299391 -0.62506205
v 0.93750000 -0.20307390 -0.62500203
v 0.89843374 -0.19908392 -0.62544203
v 0.92772996 -0.19908392 -0.62544203
v 0.92186999 -0.20307390 -0.62500203
v 0.92186999 -0.20299391 -0.62506205
v 0.92578000 -0.20307390 -0.62500203
v 0.95311999 -0.20307390 -0.62500203
v 0.95311999 -0.20299391 -0.62506205
v 0.95703000 -0.20307390 -0.62500203
v 0.96092999 -0.20307390 -0.62500203
v 0.91014999 -0.20307390 -0.62500203
v 0.91014999 -0.20299391 -0.62506205
v 0.96483999 -0.20299391 -0.62506205
v 0.96875000 -0.20307390 -0.62500203
v 0.96483999 -0.20307390 -0.62500203
v 0.92578000 -0.20299391 -0.62506205
v 0.94139999 -0.20307390 -0.62500203
v 0.91795999 -0.20299391 -0.62506205
v 0.91406000 -0.20299391 -0.62506205
v 0.95703000 0.10948609 0.07030799
v 0.92967999 -0.20299391 -0.62506205
v 0.92187124 -0.20368391 -0.60093200
v 0.94920999 -0.20299391 -0.62506205
v 0.94920999 -0.20307390 -0.62500203
v 0.93358999 -0.20307390 -0.62500203
v 0.95446312 0.09284816 0.18498331
v 0.92967999 -0.20307390 -0.62500203
v 0.94531000 -0.20307390 -0.62500203
v 0.96092999 -0.20299391 -0.62506205
v 0.87061566 0.12737513 -0.54731631
v 0.95703000 0.10948609 0.12889799
v 0.95703000 0.10948609 0.13280798
v 0.94531000 -0.20299391 -0.62506205
v 0.94139999 -0.20299391 -0.62506205
v 0.96875000 -0.20299391 -0.62506205
v 0.95458502 -0.19908392 -0.62544203
v 0.95704001 0.10949609 0.10545800
v 0.95704001 0.10949609 0.10155799
v 0.94990796 0.08833447 0.06989507
v 0.95703000 0.10948609 0.10545800
v 0.95704001 0.10949609 0.13280798
v 0.95348549 0.12160552 0.09490878
v 0.94845468 0.10682953 0.11827909
v 0.95703000 -0.20299391 -0.62506205
v 0.94881999 0.10765609 0.14061674
v 0.95704001 0.10949609 0.13670801
v 0.94664520 0.12796757 0.07651466
v 0.95703000 0.10948609 0.13670801
v 0.95703000 0.10948609 0.08983800
v 0.95703000 0.10948609 0.11717799
v 0.95703000 0.11340609 0.06965800
v 0.95703000 0.10948609 0.10936800
v 0.95703000 0.10948609 0.11327800
v 0.95703834 0.10949378 0.06639440
v 0.95704001 0.10949609 0.11327800
v 0.95703000 0.10948609 0.14061800
v 0.95704001 0.10949609 0.10936800
v 0.95704001 0.10949609 0.12889799
f 1 2 3
f 4 5 23
f 6 7 8
f 2 6 10
f 7 13 14
f 6 2 7
f 15 11 7
f 3 10 18
f 3 2 10
f 16 17 7
f 10 8 18
f 10 6 8
f 21 18 12
f 1 7 2
f 5 24 23
f 25 26 78
f 26 25 27
f 28 29 30
f 32 33 9
f 32 34 33
f 35 36 37
f 40 41 12
f 40 14 41
f 11 15 43
f 34 44 33
f 34 45 23
f 17 16 21
f 38 16 7
f 46 14 40
f 16 38 20
f 1 38 7
f 21 20 18
f 21 16 20
f 31 7 185
f 8 31 18
f 8 7 31
f 47 40 12
f 47 46 40
f 48 35 49
f 14 46 7
f 15 46 47
f 185 18 31
f 20 19 18
f 20 38 19
f 19 3 18
f 19 1 3
f 38 1 19
f 46 15 7
f 51 52 109
f 12 185 9
f 17 13 7
f 54 21 12
f 54 17 21
f 14 13 41
f 56 11 53
f 18 185 12
f 53 43 12
f 53 11 43
f 39 53 12
f 39 56 53
f 13 17 54
f 41 54 12
f 41 13 54
f 7 11 56
f 43 47 12
f 43 15 47
f 185 7 23
f 22 9 185
f 58 59 9
f 58 4 59
f 63 64 65
f 66 67 22
f 66 68 67
f 44 56 39
f 70 71 42
f 35 48 42
f 33 12 9
f 33 39 12
f 33 44 39
f 44 34 23
f 72 73 22
f 72 24 73
f 74 50 78
f 50 74 51
f 48 70 42
f 24 76 23
f 36 63 77
f 67 72 22
f 67 76 72
f 36 35 42
f 7 56 23
f 68 76 67
f 4 45 59
f 22 58 9
f 63 36 42
f 59 32 9
f 59 45 32
f 45 34 32
f 24 5 73
f 45 4 23
f 71 79 42
f 56 44 23
f 37 22 96
f 66 64 68
f 73 58 22
f 58 73 5
f 58 5 4
f 76 68 23
f 109 23 42
f 76 24 72
f 49 37 96
f 49 35 37
f 80 81 96
f 80 82 81
f 83 60 109
f 84 85 96
f 84 71 85
f 65 66 22
f 66 65 64
f 86 83 109
f 85 87 96
f 85 70 87
f 55 51 109
f 68 64 23
f 52 27 109
f 37 77 22
f 37 36 77
f 23 109 185
f 79 71 84
f 26 27 52
f 60 88 55
f 70 48 87
f 64 63 42
f 79 82 109
f 23 64 42
f 77 65 22
f 77 63 65
f 81 84 96
f 81 79 84
f 71 70 85
f 87 49 96
f 87 48 49
f 89 57 129
f 90 91 69
f 91 90 92
f 93 96 78
f 88 75 78
f 75 88 60
f 92 95 109
f 97 98 61
f 98 97 99
f 95 89 109
f 50 88 78
f 55 88 50
f 26 74 78
f 74 26 52
f 75 93 78
f 93 75 83
f 82 79 81
f 93 80 96
f 80 93 86
f 42 79 109
f 80 86 82
f 75 60 83
f 50 51 55
f 82 86 109
f 93 83 86
f 74 52 51
f 62 101 129
f 60 55 109
f 109 129 185
f 104 62 57
f 29 92 109
f 27 25 30
f 28 25 78
f 30 25 28
f 106 101 62
f 107 57 89
f 110 102 111
f 57 62 129
f 104 107 69
f 107 104 57
f 105 90 69
f 90 105 95
f 101 113 129
f 114 115 129
f 95 105 89
f 116 106 69
f 106 116 101
f 91 92 29
f 91 28 69
f 28 91 29
f 28 78 69
f 30 29 109
f 90 95 92
f 117 116 69
f 109 89 129
f 107 105 69
f 89 105 107
f 27 30 109
f 106 104 69
f 104 106 62
f 115 119 129
f 121 103 61
f 103 121 122
f 111 102 129
f 124 112 61
f 112 124 115
f 125 126 94
f 127 116 117
f 113 116 127
f 113 100 129
f 98 121 61
f 128 121 98
f 98 99 128
f 101 116 113
f 130 126 145
f 94 126 130
f 131 125 143
f 123 127 117
f 127 123 100
f 69 78 249
f 132 133 145
f 133 132 134
f 110 123 117
f 123 110 111
f 124 119 115
f 123 111 100
f 112 137 61
f 114 137 112
f 100 111 129
f 145 61 249
f 103 122 119
f 102 137 114
f 61 117 249
f 127 100 113
f 112 115 114
f 137 110 61
f 110 137 102
f 119 122 129
f 249 117 69
f 103 124 61
f 124 103 119
f 102 114 129
f 110 117 61
f 249 78 96
f 94 144 143
f 22 185 96
f 99 131 129
f 122 121 128
f 138 97 61
f 97 138 131
f 144 120 143
f 140 118 143
f 129 131 143
f 147 130 145
f 130 147 144
f 139 148 143
f 97 131 99
f 120 134 143
f 149 150 190
f 122 128 129
f 125 94 143
f 138 125 131
f 126 138 61
f 138 126 125
f 145 126 61
f 133 134 120
f 147 120 144
f 133 147 145
f 147 133 120
f 128 99 129
f 130 144 94
f 141 152 143
f 129 143 185
f 153 154 155
f 134 132 156
f 157 132 145
f 156 132 157
f 148 141 143
f 161 118 140
f 154 162 176
f 163 164 176
f 157 140 156
f 161 157 145
f 157 161 140
f 145 249 160
f 165 146 160
f 146 165 141
f 151 159 160
f 159 151 142
f 161 145 160
f 142 139 143
f 146 141 148
f 108 165 160
f 165 108 152
f 156 140 143
f 159 161 160
f 161 159 118
f 166 148 139
f 146 166 160
f 166 146 148
f 166 151 160
f 139 151 166
f 118 142 143
f 142 151 139
f 159 142 118
f 165 152 141
f 134 156 143
f 158 168 167
f 169 167 183
f 169 158 167
f 185 143 176
f 170 171 176
f 185 176 249
f 185 249 96
f 172 164 173
f 152 108 174
f 175 108 160
f 174 108 175
f 169 177 158
f 155 154 176
f 178 179 183
f 178 163 179
f 168 158 176
f 167 181 183
f 167 168 181
f 173 178 183
f 173 164 178
f 163 177 179
f 135 184 190
f 136 174 175
f 164 163 178
f 249 183 160
f 136 168 176
f 164 172 176
f 175 160 183
f 181 175 183
f 181 136 175
f 168 136 181
f 179 169 183
f 169 179 177
f 174 136 176
f 187 173 183
f 187 172 173
f 152 174 176
f 177 163 176
f 143 152 176
f 158 177 176
f 188 186 180
f 186 188 162
f 186 162 154
f 194 182 195
f 189 196 176
f 199 200 218
f 183 249 180
f 187 201 172
f 191 187 183
f 187 191 201
f 202 203 211
f 204 203 202
f 170 205 171
f 206 207 230
f 207 206 198
f 193 170 196
f 191 189 201
f 208 191 183
f 191 208 189
f 208 196 189
f 186 153 180
f 153 186 154
f 208 183 180
f 209 210 218
f 193 208 180
f 208 193 196
f 172 201 176
f 205 193 180
f 193 205 170
f 171 155 176
f 212 205 180
f 171 205 212
f 201 189 176
f 212 155 171
f 196 170 176
f 153 212 180
f 212 153 155
f 213 184 135
f 214 206 230
f 215 206 214
f 203 213 211
f 213 203 184
f 176 190 249
f 197 135 216
f 219 217 195
f 220 221 211
f 221 220 150
f 162 188 222
f 221 150 149
f 223 188 180
f 222 188 223
f 221 202 211
f 202 221 149
f 217 220 211
f 220 217 219
f 195 182 218
f 222 216 190
f 184 203 204
f 223 180 211
f 204 149 190
f 197 223 211
f 223 197 216
f 224 225 192
f 210 225 224
f 194 217 211
f 195 217 194
f 150 219 190
f 176 162 190
f 162 222 190
f 216 135 190
f 184 204 190
f 213 197 211
f 197 213 135
f 223 216 222
f 202 149 204
f 220 219 150
f 226 227 228
f 182 229 218
f 207 198 227
f 224 228 210
f 289 180 249
f 226 224 192
f 224 226 228
f 231 229 182
f 198 206 215
f 210 228 218
f 227 198 218
f 215 232 218
f 225 233 192
f 233 225 209
f 233 231 192
f 231 233 229
f 233 209 229
f 228 227 218
f 209 225 210
f 232 234 218
f 235 214 230
f 214 235 232
f 236 237 248
f 237 236 199
f 194 211 192
f 190 195 218
f 238 239 230
f 239 238 240
f 207 226 192
f 226 207 227
f 229 209 218
f 219 195 190
f 207 192 230
f 231 194 192
f 194 231 182
f 289 192 211
f 190 218 249
f 241 242 243
f 245 246 247
f 211 180 289
f 249 289 772
f 243 250 263
f 772 289 249
f 772 185 289
f 239 235 230
f 235 239 234
f 251 199 218
f 252 253 254
f 255 251 256
f 257 242 248
f 243 242 257
f 237 199 251
f 198 215 218
f 234 240 218
f 240 238 256
f 255 238 230
f 256 238 255
f 235 234 232
f 240 256 218
f 214 232 215
f 200 259 263
f 236 200 199
f 258 236 248
f 236 258 200
f 237 255 230
f 255 237 251
f 237 230 248
f 239 240 234
f 256 251 218
f 261 247 263
f 244 262 263
f 249 263 289
f 263 249 218
f 264 245 276
f 245 264 246
f 259 244 263
f 265 257 266
f 257 265 250
f 267 268 276
f 268 267 260
f 269 252 270
f 218 200 263
f 200 258 259
f 271 258 248
f 259 258 271
f 252 254 263
f 270 252 263
f 273 271 248
f 271 273 244
f 271 244 259
f 248 230 289
f 257 248 266
f 257 250 243
f 273 262 244
f 274 241 262
f 265 270 250
f 253 269 266
f 269 253 252
f 241 243 263
f 262 241 263
f 242 274 248
f 274 242 241
f 274 273 248
f 273 274 262
f 269 265 266
f 265 269 270
f 250 270 263
f 230 192 289
f 277 260 263
f 268 260 277
f 278 267 276
f 267 278 279
f 275 264 276
f 280 264 275
f 281 282 283
f 281 284 282
f 272 253 266
f 254 253 272
f 254 261 263
f 272 261 254
f 285 272 266
f 272 285 261
f 280 277 263
f 260 279 263
f 246 280 263
f 247 246 263
f 245 285 276
f 285 245 247
f 275 277 280
f 285 266 276
f 285 247 261
f 246 264 280
f 268 275 276
f 275 268 277
f 267 279 260
f 248 289 266
f 286 287 276
f 286 288 287
f 290 291 366
f 292 291 290
f 295 296 302
f 296 295 297
f 281 299 284
f 293 300 294
f 276 266 289
f 304 305 283
f 304 300 305
f 307 308 323
f 308 307 298
f 309 310 294
f 303 281 283
f 281 303 299
f 263 279 294
f 287 278 276
f 311 278 287
f 279 278 311
f 293 299 303
f 313 314 344
f 313 315 314
f 311 288 294
f 299 293 294
f 316 317 294
f 318 295 302
f 319 295 318
f 288 311 287
f 288 301 294
f 279 311 294
f 310 312 341
f 316 300 304
f 301 284 294
f 300 293 305
f 304 283 323
f 276 289 283
f 284 299 294
f 305 303 283
f 305 293 303
f 300 316 294
f 323 283 289
f 284 301 282
f 286 276 283
f 282 286 283
f 282 301 286
f 308 321 323
f 321 308 325
f 322 304 323
f 322 316 304
f 301 288 286
f 326 310 309
f 322 317 316
f 317 306 294
f 327 290 366
f 290 327 328
f 321 325 306
f 329 330 341
f 298 307 309
f 324 322 323
f 322 324 317
f 326 307 302
f 309 307 326
f 296 320 302
f 320 296 312
f 331 332 333
f 306 325 294
f 320 326 302
f 326 320 310
f 320 312 310
f 302 307 323
f 296 297 312
f 325 298 294
f 308 298 325
f 312 297 341
f 324 306 317
f 321 324 323
f 324 321 306
f 294 310 341
f 298 309 294
f 323 289 302
f 263 294 289
f 291 335 366
f 335 291 336
f 335 336 332
f 289 391 302
f 337 338 341
f 319 333 341
f 289 416 391
f 327 334 328
f 339 340 366
f 340 339 329
f 335 331 366
f 331 335 332
f 318 333 319
f 331 302 366
f 297 295 319
f 328 334 341
f 290 328 292
f 292 328 341
f 340 327 366
f 327 340 334
f 331 318 302
f 318 331 333
f 333 332 341
f 289 294 341
f 340 329 334
f 336 291 292
f 297 319 341
f 332 336 341
f 336 292 341
f 334 329 341
f 338 337 343
f 347 348 344
f 348 347 349
f 343 350 344
f 343 337 350
f 351 315 341
f 352 343 344
f 352 338 343
f 355 339 366
f 330 339 355
f 356 315 313
f 314 352 344
f 352 314 351
f 352 351 338
f 315 356 341
f 329 339 330
f 354 337 341
f 348 357 344
f 348 358 357
f 330 354 341
f 359 360 379
f 361 360 359
f 354 330 355
f 350 355 366
f 350 354 355
f 315 351 314
f 362 363 364
f 358 356 357
f 338 351 341
f 357 313 344
f 357 356 313
f 356 358 341
f 341 379 289
f 350 366 344
f 337 354 350
f 367 364 353
f 368 369 421
f 369 368 370
f 347 344 342
f 365 361 342
f 361 365 360
f 358 349 379
f 371 373 345
f 373 371 374
f 360 346 379
f 365 346 360
f 363 378 379
f 380 378 363
f 348 349 358
f 364 363 379
f 362 367 342
f 367 362 364
f 344 391 342
f 380 362 342
f 362 380 363
f 344 366 391
f 347 359 349
f 349 359 379
f 353 364 379
f 367 385 342
f 353 385 367
f 346 385 353
f 385 365 342
f 365 385 346
f 346 353 379
f 361 347 342
f 347 361 359
f 341 358 379
f 376 380 342
f 380 376 378
f 386 375 379
f 387 388 389
f 391 366 302
f 289 379 416
f 392 393 416
f 416 422 391
f 390 374 399
f 394 377 345
f 384 377 394
f 373 374 390
f 395 384 399
f 384 383 399
f 394 383 384
f 396 376 342
f 397 376 396
f 378 376 397
f 398 372 399
f 377 400 345
f 400 377 395
f 400 381 345
f 381 400 375
f 373 402 345
f 402 373 390
f 395 377 384
f 381 396 345
f 396 381 386
f 402 390 383
f 383 390 399
f 378 397 379
f 393 403 416
f 342 391 345
f 404 371 345
f 398 371 404
f 381 375 386
f 397 386 379
f 400 395 375
f 379 395 399
f 372 382 399
f 396 342 345
f 375 395 379
f 396 386 397
f 405 392 416
f 402 394 345
f 394 402 383
f 406 407 412
f 407 406 393
f 401 408 382
f 409 401 412
f 401 409 408
f 408 409 405
f 374 371 398
f 407 411 412
f 411 407 392
f 406 403 393
f 345 391 412
f 422 772 289
f 374 398 399
f 415 382 372
f 401 415 412
f 415 401 382
f 404 372 398
f 399 408 416
f 413 410 416
f 382 408 399
f 411 409 412
f 405 409 411
f 411 392 405
f 404 345 412
f 408 405 416
f 415 404 412
f 404 415 372
f 379 399 416
f 414 406 412
f 406 414 403
f 407 393 392
f 417 418 419
f 419 370 416
f 423 412 424
f 417 419 416
f 368 389 370
f 427 387 421
f 387 427 388
f 410 417 416
f 429 430 448
f 430 429 431
f 425 432 438
f 432 425 433
f 387 368 421
f 368 387 389
f 389 388 416
f 434 427 421
f 426 427 434
f 416 388 461
f 423 414 412
f 439 414 423
f 403 414 439
f 432 433 440
f 369 370 419
f 403 439 416
f 439 413 416
f 441 440 435
f 442 424 421
f 442 410 413
f 418 420 421
f 420 418 417
f 369 418 421
f 419 418 369
f 420 417 410
f 423 413 439
f 370 389 416
f 442 423 424
f 423 442 413
f 420 442 421
f 442 420 410
f 443 444 448
f 444 443 445
f 441 434 438
f 434 441 435
f 391 424 412
f 430 447 448
f 449 447 430
f 450 437 451
f 452 453 461
f 388 427 426
f 429 454 431
f 432 441 438
f 441 432 440
f 453 450 461
f 428 449 461
f 455 450 453
f 457 452 461
f 440 433 461
f 456 453 452
f 433 425 457
f 426 435 461
f 436 452 457
f 437 455 438
f 455 437 450
f 436 425 438
f 457 425 436
f 388 426 461
f 455 456 438
f 456 455 453
f 456 436 438
f 436 456 452
f 434 435 426
f 435 440 461
f 434 421 438
f 454 445 461
f 447 458 448
f 458 447 428
f 433 457 461
f 458 428 460
f 421 424 391
f 431 454 461
f 450 451 461
f 462 463 489
f 462 464 463
f 449 431 461
f 467 437 438
f 451 437 467
f 430 431 449
f 444 429 448
f 429 444 454
f 451 459 461
f 444 445 454
f 438 421 391
f 428 447 449
f 460 428 461
f 459 460 461
f 469 460 459
f 391 448 438
f 467 438 448
f 467 459 451
f 469 467 448
f 467 469 459
f 458 469 448
f 469 458 460
f 464 470 463
f 416 461 422
f 471 465 466
f 465 471 472
f 463 474 489
f 463 470 474
f 475 476 477
f 445 443 479
f 479 480 473
f 445 479 473
f 480 470 473
f 481 482 468
f 476 483 446
f 484 443 448
f 479 443 484
f 485 483 473
f 486 487 504
f 487 486 488
f 391 489 448
f 476 475 473
f 491 492 493
f 465 477 466
f 465 475 477
f 489 391 466
f 461 445 473
f 483 485 494
f 470 464 473
f 483 476 473
f 495 496 504
f 482 496 495
f 461 473 468
f 490 481 492
f 474 484 489
f 474 480 484
f 470 480 474
f 494 462 489
f 462 494 485
f 477 446 466
f 477 476 446
f 494 489 466
f 446 494 466
f 446 483 494
f 464 485 473
f 484 448 489
f 480 479 484
f 461 468 422
f 462 485 464
f 391 422 504
f 471 493 472
f 497 498 519
f 498 497 499
f 481 496 482
f 502 503 468
f 496 490 466
f 490 496 481
f 506 507 508
f 487 507 504
f 508 507 487
f 491 471 466
f 471 491 493
f 509 510 468
f 510 513 514
f 465 472 475
f 511 515 468
f 493 492 468
f 472 493 468
f 513 500 504
f 500 513 510
f 475 472 468
f 504 496 466
f 517 506 503
f 507 517 504
f 517 507 506
f 500 510 509
f 473 475 468
f 495 502 482
f 490 491 466
f 491 490 492
f 499 511 468
f 492 481 468
f 516 503 502
f 466 391 504
f 517 516 504
f 516 517 503
f 482 502 468
f 516 495 504
f 495 516 502
f 503 506 468
f 498 513 519
f 514 513 498
f 519 504 422
f 510 514 468
f 520 521 501
f 522 521 520
f 506 508 468
f 524 515 511
f 500 486 504
f 486 500 509
f 508 488 468
f 486 509 488
f 514 499 468
f 524 497 519
f 497 524 511
f 526 519 501
f 488 509 468
f 468 478 422
f 487 488 508
f 519 513 504
f 497 511 499
f 505 524 519
f 524 505 515
f 498 499 514
f 526 527 528
f 521 526 501
f 526 521 527
f 527 522 478
f 519 422 501
f 529 512 519
f 512 529 518
f 512 518 530
f 520 525 522
f 529 528 518
f 531 533 525
f 468 530 478
f 518 528 478
f 534 535 570
f 535 534 536
f 535 537 570
f 537 535 538
f 522 525 478
f 512 505 519
f 530 505 512
f 515 505 530
f 525 533 478
f 528 527 478
f 515 530 468
f 539 531 501
f 531 539 533
f 531 520 501
f 520 531 525
f 540 539 501
f 539 540 541
f 526 529 519
f 529 526 528
f 539 541 533
f 527 521 522
f 530 518 478
f 533 541 478
f 548 422 478
f 543 544 548
f 546 501 570
f 537 546 570
f 546 537 523
f 546 523 547
f 549 550 551
f 542 545 548
f 532 542 552
f 547 523 478
f 553 554 545
f 535 536 538
f 772 422 185
f 546 540 501
f 547 540 546
f 541 540 547
f 555 556 548
f 553 557 559
f 557 553 545
f 558 553 559
f 553 558 554
f 537 538 523
f 552 542 548
f 541 547 478
f 478 538 548
f 523 538 478
f 532 534 570
f 552 534 532
f 536 534 552
f 536 552 548
f 557 570 559
f 538 536 548
f 557 545 542
f 545 554 548
f 560 561 562
f 557 532 570
f 532 557 542
f 554 558 563
f 564 558 559
f 563 558 564
f 565 566 899
f 565 567 566
f 568 555 544
f 569 562 548
f 422 570 501
f 571 544 543
f 563 543 548
f 572 573 576
f 573 572 569
f 554 563 548
f 574 549 608
f 555 577 556
f 562 561 548
f 577 568 559
f 568 577 555
f 573 577 576
f 556 577 573
f 571 564 559
f 564 571 543
f 575 560 576
f 560 575 561
f 576 577 559
f 573 569 556
f 568 571 559
f 571 568 544
f 556 569 548
f 560 572 576
f 572 560 562
f 572 562 569
f 564 543 563
f 544 555 548
f 550 579 576
f 579 550 549
f 579 549 574
f 422 559 570
f 422 548 608
f 581 578 548
f 579 582 576
f 582 579 574
f 585 586 587
f 588 550 576
f 551 550 588
f 582 589 576
f 589 582 578
f 590 591 608
f 551 590 608
f 289 185 422
f 549 551 608
f 592 576 596
f 580 594 591
f 582 574 578
f 589 575 576
f 581 575 589
f 561 575 581
f 592 591 590
f 583 580 596
f 580 583 594
f 578 574 548
f 580 592 596
f 592 580 591
f 561 581 548
f 588 590 551
f 589 578 581
f 548 574 608
f 592 588 576
f 588 592 590
f 591 594 608
f 597 587 596
f 597 585 587
f 594 598 608
f 595 583 596
f 598 583 595
f 594 583 598
f 600 601 608
f 599 598 595
f 603 600 608
f 605 606 628
f 606 605 607
f 601 610 608
f 585 603 608
f 613 611 628
f 613 601 611
f 601 600 611
f 628 597 596
f 614 615 616
f 617 615 614
f 611 612 628
f 611 600 612
f 610 601 613
f 587 618 596
f 587 586 618
f 619 620 642
f 620 619 621
f 618 595 596
f 618 599 595
f 617 622 602
f 597 603 585
f 596 576 422
f 586 585 608
f 599 586 608
f 593 623 610
f 624 593 628
f 593 624 623
f 593 613 628
f 593 610 613
f 596 422 628
f 586 599 618
f 605 625 607
f 612 597 628
f 597 612 603
f 600 603 612
f 576 559 422
f 598 599 608
f 626 627 602
f 615 605 628
f 605 615 625
f 622 604 602
f 630 631 616
f 631 630 604
f 625 617 602
f 632 630 616
f 630 632 633
f 630 633 604
f 623 584 602
f 631 614 616
f 614 631 622
f 604 633 602
f 610 623 602
f 606 607 584
f 625 615 617
f 616 615 628
f 607 625 602
f 614 622 617
f 608 610 602
f 627 635 602
f 631 604 622
f 584 607 602
f 608 602 422
f 616 628 422
f 606 624 628
f 624 606 584
f 624 584 623
f 636 619 642
f 619 636 637
f 619 637 621
f 638 639 640
f 641 616 642
f 641 632 616
f 643 632 641
f 633 632 643
f 645 626 602
f 643 629 602
f 646 626 645
f 649 650 651
f 646 636 642
f 645 636 646
f 653 654 655
f 656 646 642
f 646 656 626
f 620 641 642
f 641 620 629
f 637 636 645
f 641 629 643
f 658 635 627
f 658 642 634
f 657 658 634
f 658 657 635
f 633 643 602
f 637 645 602
f 621 637 602
f 642 616 422
f 629 621 602
f 620 621 629
f 658 656 642
f 656 658 627
f 656 627 626
f 602 690 422
f 635 657 659
f 609 661 644
f 661 609 662
f 602 635 690
f 665 666 667
f 669 670 690
f 662 671 690
f 661 662 640
f 674 663 644
f 663 674 675
f 664 638 690
f 676 664 660
f 661 639 644
f 640 639 661
f 640 662 690
f 677 657 634
f 659 657 677
f 672 676 634
f 676 672 664
f 663 675 671
f 671 675 690
f 660 664 690
f 672 638 664
f 677 660 659
f 609 671 662
f 644 639 634
f 676 677 634
f 677 676 660
f 639 672 634
f 672 639 638
f 635 659 690
f 659 660 690
f 422 634 642
f 638 640 690
f 663 609 644
f 609 663 671
f 634 422 644
f 644 422 673
f 666 647 690
f 680 667 690
f 683 684 845
f 684 683 685
f 687 688 689
f 692 689 690
f 694 674 644
f 680 674 694
f 697 698 720
f 694 667 680
f 675 674 680
f 665 694 673
f 694 665 667
f 699 650 700
f 668 647 666
f 682 678 673
f 695 678 682
f 667 666 690
f 695 692 690
f 702 689 692
f 647 678 695
f 679 701 696
f 701 679 704
f 675 680 690
f 703 687 673
f 687 703 688
f 694 644 673
f 668 665 673
f 665 668 666
f 702 682 673
f 682 702 692
f 647 695 690
f 682 692 695
f 678 668 673
f 668 678 647
f 687 702 673
f 702 687 689
f 689 688 690
f 705 706 693
f 706 705 697
f 701 704 707
f 708 709 720
f 710 705 693
f 705 710 698
f 704 711 720
f 712 697 720
f 705 698 697
f 713 714 742
f 715 714 713
f 716 703 673
f 669 703 716
f 688 669 690
f 706 697 712
f 709 715 720
f 688 703 669
f 690 707 720
f 701 721 696
f 721 701 707
f 721 716 673
f 716 721 670
f 721 673 696
f 721 707 670
f 716 670 669
f 704 679 711
f 723 679 696
f 711 679 723
f 707 704 720
f 670 707 690
f 722 708 720
f 706 723 693
f 723 706 712
f 711 712 720
f 723 712 711
f 723 696 693
f 696 673 422
f 724 709 708
f 725 726 743
f 727 728 762
f 728 727 729
f 709 714 715
f 698 710 731
f 732 719 720
f 730 710 693
f 731 710 730
f 713 732 715
f 733 734 742
f 734 733 726
f 736 651 1134
f 737 713 742
f 713 737 732
f 730 722 731
f 714 724 693
f 724 714 709
f 735 739 719
f 715 732 720
f 724 738 693
f 738 724 708
f 735 737 742
f 737 735 719
f 731 722 720
f 742 714 693
f 738 730 693
f 730 738 722
f 740 735 742
f 735 740 739
f 698 731 720
f 737 719 732
f 738 708 722
f 719 739 720
f 693 696 422
f 690 720 422
f 744 745 746
f 762 747 742
f 748 749 750
f 751 752 799
f 752 751 753
f 754 757 755
f 717 756 755
f 757 765 718
f 727 744 729
f 759 745 762
f 746 745 759
f 761 725 743
f 741 763 799
f 763 741 764
f 766 760 743
f 767 725 761
f 768 769 743
f 745 727 762
f 727 745 744
f 754 756 770
f 756 754 755
f 756 717 718
f 756 718 770
f 718 765 770
f 770 757 754
f 765 757 422
f 757 718 717
f 757 717 755
f 757 770 422
f 773 774 808
f 774 773 775
f 742 422 762
f 776 777 769
f 422 720 743
f 778 775 743
f 726 758 743
f 767 740 742
f 761 740 767
f 733 758 726
f 739 740 761
f 779 1134 699
f 734 767 742
f 767 734 725
f 422 770 772
f 780 760 766
f 781 768 743
f 782 773 808
f 783 773 782
f 758 766 743
f 720 739 743
f 760 729 743
f 728 780 762
f 780 728 760
f 693 422 742
f 729 744 743
f 739 761 743
f 734 726 725
f 758 747 766
f 780 747 762
f 766 747 780
f 728 729 760
f 747 733 742
f 733 747 758
f 785 786 798
f 763 782 808
f 782 763 787
f 788 789 790
f 791 776 808
f 776 791 777
f 783 787 803
f 787 764 803
f 768 792 769
f 770 765 691
f 793 794 795
f 775 773 783
f 791 778 777
f 796 768 781
f 746 784 743
f 748 750 803
f 744 746 743
f 769 777 743
f 776 792 808
f 769 792 776
f 759 784 746
f 784 781 743
f 797 759 762
f 759 797 784
f 792 796 808
f 796 792 768
f 797 762 808
f 797 781 784
f 774 775 778
f 796 797 808
f 797 796 781
f 777 778 743
f 774 791 808
f 791 774 778
f 800 801 802
f 764 748 803
f 782 787 783
f 805 806 807
f 422 743 691
f 752 753 750
f 763 764 787
f 743 775 803
f 765 422 691
f 809 793 799
f 793 809 794
f 772 770 691
f 794 809 811
f 793 751 799
f 751 793 795
f 763 808 799
f 751 795 753
f 795 794 803
f 752 749 799
f 750 749 752
f 750 753 803
f 749 741 799
f 741 749 748
f 741 748 764
f 753 795 803
f 775 783 803
f 808 762 422
f 743 803 691
f 814 805 842
f 805 814 806
f 816 817 798
f 818 802 813
f 818 800 802
f 819 818 842
f 818 819 820
f 821 822 845
f 822 821 823
f 818 820 800
f 826 809 799
f 811 809 826
f 828 816 825
f 829 807 798
f 827 790 813
f 827 788 790
f 801 800 798
f 789 788 798
f 831 812 813
f 831 817 812
f 812 828 813
f 828 812 816
f 817 816 812
f 817 801 798
f 788 825 798
f 801 817 831
f 802 831 813
f 802 801 831
f 803 789 798
f 825 816 798
f 790 799 813
f 811 789 803
f 828 827 813
f 828 825 827
f 825 788 827
f 790 826 799
f 790 789 826
f 789 811 826
f 842 818 813
f 808 422 691
f 794 811 803
f 691 799 808
f 806 832 798
f 833 807 829
f 834 835 798
f 681 836 837
f 835 838 798
f 684 685 786
f 820 829 798
f 839 840 879
f 806 814 832
f 805 833 842
f 833 805 807
f 800 820 798
f 691 803 798
f 833 819 842
f 819 833 829
f 843 838 835
f 844 835 834
f 824 834 832
f 844 824 842
f 824 844 834
f 819 829 820
f 813 799 691
f 786 685 798
f 824 814 842
f 832 814 824
f 807 806 798
f 841 843 842
f 843 841 838
f 832 834 798
f 691 842 813
f 843 844 842
f 844 843 835
f 836 823 879
f 822 681 845
f 681 822 836
f 846 847 879
f 838 841 848
f 685 837 798
f 849 850 851
f 849 852 850
f 854 785 848
f 837 836 798
f 854 841 842
f 848 841 854
f 856 857 858
f 654 653 859
f 684 853 845
f 853 684 786
f 823 860 879
f 681 683 845
f 837 683 681
f 861 821 851
f 821 861 860
f 821 860 823
f 853 854 845
f 854 853 785
f 842 691 845
f 853 786 785
f 838 848 798
f 854 842 845
f 685 683 837
f 798 836 879
f 822 823 836
f 848 785 798
f 821 845 851
f 855 862 879
f 691 772 798
f 864 865 871
f 866 865 864
f 856 849 851
f 856 858 849
f 869 870 871
f 870 869 872
f 870 872 847
f 852 873 850
f 874 565 899
f 874 875 565
f 772 691 798
f 880 881 815
f 880 862 881
f 867 866 879
f 867 865 866
f 882 839 879
f 885 864 871
f 864 885 846
f 852 858 879
f 847 872 879
f 887 861 851
f 888 861 887
f 889 890 871
f 890 889 884
f 858 857 879
f 871 815 691
f 881 891 815
f 881 855 891
f 879 691 798
f 892 874 899
f 874 892 893
f 891 856 815
f 856 891 857
f 860 861 888
f 851 845 691
f 862 894 879
f 691 815 851
f 873 852 879
f 895 896 877
f 896 895 897
f 855 857 891
f 884 898 686
f 888 873 879
f 857 855 879
f 858 852 849
f 860 888 879
f 863 880 815
f 863 894 880
f 894 862 880
f 862 855 881
f 815 856 851
f 873 888 887
f 850 887 851
f 850 873 887
f 875 567 565
f 900 863 815
f 863 900 882
f 901 867 840
f 863 882 894
f 840 867 879
f 876 883 898
f 866 846 879
f 865 901 871
f 901 865 867
f 886 840 839
f 901 886 815
f 886 901 840
f 886 900 815
f 900 886 839
f 902 897 686
f 901 815 871
f 900 839 882
f 894 882 879
f 864 846 866
f 885 847 846
f 870 885 871
f 885 870 847
f 895 903 897
f 904 895 877
f 895 904 903
f 883 902 686
f 872 905 879
f 876 889 877
f 889 876 898
f 1134 907 908
f 872 869 905
f 909 567 948
f 890 869 871
f 905 869 890
f 910 911 964
f 691 877 871
f 912 909 686
f 905 884 686
f 914 876 877
f 876 914 883
f 889 871 877
f 889 898 884
f 896 897 902
f 896 914 877
f 902 914 896
f 883 914 902
f 898 883 686
f 691 899 877
f 890 884 905
f 899 915 877
f 915 904 877
f 904 915 916
f 897 903 686
f 903 916 686
f 904 916 903
f 879 905 686
f 893 919 948
f 920 921 868
f 920 922 921
f 923 924 948
f 925 899 868
f 919 893 892
f 875 893 948
f 916 915 912
f 925 892 899
f 925 919 892
f 906 915 899
f 912 915 906
f 926 927 928
f 909 912 906
f 566 906 899
f 566 909 906
f 686 909 948
f 918 922 948
f 927 929 804
f 919 918 948
f 868 899 691
f 916 912 686
f 874 893 875
f 879 686 948
f 567 875 948
f 933 913 804
f 567 909 566
f 921 925 868
f 921 918 925
f 932 935 948
f 922 918 921
f 918 919 925
f 937 932 924
f 917 938 949
f 939 938 917
f 913 940 804
f 940 941 928
f 939 942 804
f 943 933 935
f 944 923 948
f 691 978 868
f 938 945 949
f 945 938 946
f 920 944 922
f 947 920 868
f 920 947 944
f 932 950 935
f 951 913 933
f 952 951 878
f 951 952 913
f 947 923 944
f 941 952 878
f 952 941 940
f 951 943 878
f 943 951 933
f 922 944 948
f 924 932 948
f 943 950 878
f 935 950 943
f 691 879 948
f 930 924 923
f 878 950 868
f 930 947 868
f 947 930 923
f 950 937 868
f 937 950 932
f 952 940 913
f 935 933 948
f 937 930 868
f 930 937 924
f 948 933 804
f 1122 691 1061
f 954 926 878
f 926 954 927
f 830 654 859
f 945 946 929
f 946 938 939
f 926 941 878
f 928 941 926
f 955 956 949
f 956 955 957
f 956 957 934
f 958 917 949
f 917 958 942
f 878 868 978
f 945 954 949
f 954 945 929
f 804 942 964
f 959 953 960
f 928 927 804
f 917 942 939
f 948 804 964
f 954 878 949
f 954 929 927
f 978 949 878
f 934 957 964
f 942 934 964
f 929 946 804
f 940 928 804
f 958 934 942
f 956 958 949
f 958 956 934
f 946 939 804
f 691 948 964
f 961 962 963
f 965 966 980
f 965 967 966
f 968 910 964
f 911 910 969
f 957 955 968
f 970 971 978
f 971 970 972
f 973 911 974
f 953 959 964
f 967 975 966
f 976 974 980
f 976 973 974
f 977 960 978
f 977 959 960
f 973 975 964
f 969 949 980
f 979 955 949
f 968 955 979
f 691 1122 772
f 981 931 964
f 967 953 964
f 911 973 964
f 960 965 980
f 960 953 965
f 966 976 980
f 976 966 975
f 976 975 973
f 969 979 949
f 969 910 979
f 975 967 964
f 960 980 978
f 931 982 964
f 953 967 965
f 974 969 980
f 974 911 969
f 983 984 964
f 980 949 978
f 957 968 964
f 910 968 979
f 648 985 1056
f 986 987 1013
f 971 988 978
f 988 971 989
f 936 982 931
f 990 991 978
f 991 990 992
f 993 983 982
f 994 977 978
f 977 994 981
f 983 995 984
f 996 997 962
f 977 981 959
f 984 998 964
f 994 931 981
f 993 936 978
f 936 993 982
f 999 995 978
f 984 995 999
f 982 983 964
f 936 994 978
f 994 936 931
f 989 972 1005
f 995 993 978
f 993 995 983
f 999 998 984
f 1000 992 1005
f 971 972 989
f 988 989 998
f 1005 691 964
f 988 999 978
f 999 988 998
f 959 981 964
f 964 998 1005
f 998 989 1005
f 1002 963 1005
f 1004 996 978
f 996 1004 997
f 992 1002 1005
f 691 1122 978
f 991 992 1000
f 963 962 1005
f 1006 990 978
f 990 1006 1002
f 1007 970 978
f 1008 970 1007
f 972 970 1008
f 1009 1010 1011
f 997 1012 1005
f 1004 1012 997
f 996 961 978
f 961 996 962
f 1014 1004 978
f 1004 1014 1012
f 962 997 1005
f 1008 1000 1005
f 1002 1006 963
f 1007 1000 1008
f 972 1008 1005
f 961 1006 978
f 963 1006 961
f 990 1002 992
f 991 1007 978
f 1007 991 1000
f 1015 1016 1017
f 1019 1020 1005
f 1005 1045 691
f 691 1122 1061
f 1022 1023 1024
f 1023 1022 1005
f 1027 1028 1029
f 1030 1023 1005
f 1031 1014 978
f 1030 1014 1031
f 1028 1027 1005
f 1012 1014 1030
f 1003 1029 1037
f 1003 1027 1029
f 1020 1028 1005
f 1122 691 1079
f 1028 1020 1026
f 1034 985 652
f 1035 1036 1016
f 1038 1039 1037
f 1038 1019 1039
f 1038 1020 1019
f 986 1027 1003
f 1122 1037 978
f 1024 1031 1037
f 1024 1023 1031
f 1023 1030 1031
f 1031 978 1037
f 1019 1022 1039
f 1022 1019 1005
f 1039 1024 1037
f 1039 1022 1024
f 1017 1016 1013
f 1026 1038 1037
f 1038 1026 1020
f 1012 1030 1005
f 1032 1003 1037
f 1032 986 1003
f 1029 1026 1037
f 1029 1028 1026
f 1027 986 1005
f 1016 1036 1013
f 1040 1041 1042
f 1041 1043 1045
f 1036 1044 1013
f 1046 1047 1048
f 1005 986 1013
f 691 422 1079
f 987 1017 1013
f 1050 1051 1001
f 1052 1017 987
f 736 1054 1055
f 1052 1032 1037
f 1032 1052 987
f 1032 987 986
f 1047 1021 1057
f 1042 1041 1045
f 1037 1122 1018
f 1044 1049 1013
f 1021 1046 1070
f 1046 1021 1047
f 1046 1053 1070
f 1053 1046 1048
f 1058 1059 1018
f 1044 1059 1058
f 1053 1048 1049
f 1048 1047 1045
f 1052 1037 1018
f 1001 1051 1045
f 1048 1045 1013
f 1049 1048 1013
f 1015 1052 1018
f 1052 1015 1017
f 1035 1015 1018
f 1015 1035 1016
f 1045 1005 1013
f 1059 1035 1018
f 1035 1059 1036
f 1036 1059 1044
f 1058 1018 1070
f 1053 1058 1070
f 1058 1053 1049
f 1058 1049 1044
f 1051 1060 1045
f 691 1045 1122
f 1033 1021 1070
f 1057 1021 1033
f 1025 1060 1051
f 1025 1050 1070
f 1050 1025 1051
f 772 1122 1079
f 1065 1066 1076
f 1066 1065 1062
f 1067 1068 1094
f 1068 1067 1069
f 1047 1057 1045
f 1033 1001 1057
f 1071 1025 1070
f 1025 1071 1060
f 1066 1062 1043
f 1040 1071 1070
f 1042 1071 1040
f 1060 1071 1042
f 1066 1072 1076
f 1072 1066 1043
f 1073 1074 1045
f 1060 1042 1045
f 1072 1070 1076
f 1057 1001 1045
f 1050 1033 1070
f 1033 1050 1001
f 1043 1062 1045
f 1072 1043 1041
f 1072 1040 1070
f 1040 1072 1041
f 1070 1122 1076
f 1122 1070 1018
f 1077 1078 1074
f 1081 1074 1073
f 1063 1073 1045
f 1062 1065 1063
f 1082 1065 1076
f 1063 1065 1082
f 1083 1075 1094
f 1075 1083 1084
f 1075 1085 1094
f 1086 1085 1075
f 1074 1078 1045
f 1011 1087 1088
f 1083 1089 1084
f 1085 1077 1076
f 1077 1085 1078
f 1080 1090 1114
f 422 772 1079
f 1091 1092 1095
f 1092 1091 1093
f 1084 1089 1045
f 1062 1063 1045
f 1094 1085 1076
f 1068 1069 1089
f 1078 1085 1086
f 1086 1084 1045
f 1068 1083 1094
f 1083 1068 1089
f 1076 1122 1094
f 1089 1114 1045
f 1077 1081 1076
f 1081 1077 1074
f 1075 1084 1086
f 1082 1073 1063
f 1089 1069 1114
f 1078 1086 1045
f 1081 1082 1076
f 1082 1081 1073
f 1045 1114 1122
f 1096 1097 1098
f 1131 1055 1054
f 1096 1098 1114
f 1099 1100 1101
f 1104 1080 1103
f 1105 1106 1107
f 1110 1111 1095
f 1111 1110 1090
f 1108 1097 1095
f 1098 1097 1108
f 1112 1054 908
f 1111 1090 1080
f 1104 1067 1094
f 1103 1067 1104
f 1069 1067 1103
f 1115 1099 1116
f 1092 1113 1095
f 1113 1092 1117
f 1111 1094 1095
f 1101 1102 652
f 1108 1119 1098
f 1069 1103 1114
f 1113 1117 1119
f 1120 1116 652
f 1113 1108 1095
f 1108 1113 1119
f 1097 1110 1095
f 1110 1097 1096
f 1111 1104 1094
f 1104 1111 1080
f 1117 1093 652
f 1090 1096 1114
f 1103 1080 1114
f 1119 1117 652
f 1114 1119 652
f 1092 1093 1117
f 1098 1119 1114
f 1110 1096 1090
f 1094 1122 1095
f 1107 1106 652
f 1121 1107 1102
f 1123 1137 1124
f 1125 1116 1120
f 1126 1091 1095
f 1109 1091 1126
f 1093 1091 1109
f 1129 1134 1130
f 1009 1132 1130
f 1115 1125 1128
f 1125 1115 1116
f 1093 1109 652
f 1121 1136 1128
f 1136 1121 1102
f 1100 1115 1128
f 1115 1100 1099
f 1102 1107 652
f 1125 1095 1128
f 1116 1099 652
f 1105 1121 1128
f 1121 1105 1107
f 1136 1100 1128
f 1101 1100 1136
f 1127 1105 1128
f 1105 1127 1106
f 1136 1102 1101
f 1099 1101 652
f 1109 1120 652
f 1125 1126 1095
f 1126 1125 1120
f 1126 1120 1109
f 1056 1128 1122
f 1122 1128 1095
f 1114 652 1122
f 1122 648 1056
f 1061 652 648
f 652 1106 1034
f 1134 651 650
f 652 985 648
f 1064 1133 1138
f 1124 1137 1140
f 859 1137 1123
f 1146 1112 907
f 1064 655 654
f 1134 908 736
f 779 1141 1088
f 653 655 1142
f 1061 810 1122
f 859 653 1137
f 810 1131 1139
f 1139 1143 1134
f 810 1061 1131
f 1112 1131 1054
f 1144 1135 1145
f 1146 907 1143
f 700 649 1131
f 1146 1131 1112
f 1145 1137 1142
f 1088 1141 1131
f 649 1055 1131
f 1139 1146 1143
f 1131 1146 1139
f 1011 1135 1009
f 1118 1137 1135
f 1142 655 1147
f 1141 700 1131
f 1118 1135 1131
f 1131 1135 1011
f 1088 1131 1011
f 1148 1138 1140
f 1137 653 1142
f 1009 1135 1132
f 1135 1137 1145
f 1132 1135 1144
f 1011 1010 1087
f 1140 1137 1148
f 1148 1137 1118
f 1079 810 1118
f 1149 1134 1129
f 771 985 1034
f 1056 771 1128
f 771 1056 985
f 1106 1127 1034
f 771 1127 1128
f 1034 1127 771
f 1112 908 907
f 1139 1134 810
f 1134 1064 810
f 810 1079 1122
f 1134 650 699
f 1129 1130 1132
f 1123 830 859
f 652 1061 1122
f 648 1079 1061
f 1122 1079 648
f 1009 1130 1010
f 1134 779 1087
f 1143 907 1134
f 1144 1149 1129
f 1123 1150 830
f 1061 1118 1131
f 1079 1118 1061
f 1150 1064 830
f 1130 1134 1010
f 1010 1134 1087
f 1087 779 1088
f 1138 1133 1140
f 779 699 1141
f 700 1141 699
f 1064 1134 1147
f 1142 1147 1145
f 650 649 700
f 649 651 1055
f 810 1064 1118
f 1064 1147 655
f 1148 1118 1064
f 1124 1140 1133
f 1133 1150 1124
f 1147 1134 1149
f 1144 1129 1132
f 1148 1064 1138
f 1055 651 736
f 736 908 1054
f 1144 1145 1149
f 1147 1149 1145
f 830 1064 654
f 1133 1064 1150
f 1150 1123 1124

