# https://github.com/mikedh/trimesh
v -0.54352546 0.29608339 -0.22834516
v -0.53670651 0.29324019 -0.01154956
v -0.45657006 -0.46756634 -0.23630294
v -0.48897791 0.43399081 -0.12816308
v -0.48213339 0.47665295 -0.17960452
v -0.57547110 0.44545317 -0.12528101
v -0.51418221 0.50671351 0.17312014
v -0.48660502 -0.62862813 -0.29190975
v -0.33410993 -0.49489060 -0.50580209
v -0.45375007 -0.47147635 -0.24802294
v -0.45519006 -0.46756634 -0.24020293
v -0.45520401 -0.46755195 -0.24016385
v -0.45250005 -0.46365634 -0.24411292
v -0.45521006 -0.47147635 -0.24388292
v -0.45521006 -0.46760634 -0.24020293
v -0.31978640 -0.44879016 -0.47890851
v -0.39913148 0.37867007 0.00390633
v -0.45241213 0.38191441 -0.44117093
v -0.43980005 0.48210779 -0.10718840
v -0.44728667 0.54889041 0.29076719
v -0.43581006 0.55977362 0.27540705
v -0.43958005 0.55245364 0.27931705
v -0.43958005 0.55586368 0.27542704
v -0.43592006 0.55586368 0.27931705
v -0.44349003 0.55195361 0.27562705
v -0.44285554 0.55151033 0.27252966
v -0.44349003 0.55213368 0.27540705
v -0.42128342 0.57272601 0.28916389
v -0.46959355 0.62674773 0.11300600
v -0.43642056 0.56321675 0.27473372
v -0.47367486 0.71849412 0.27619117
v -0.43802935 -0.42313021 -0.25528035
v -0.44837984 -0.50374949 -0.29495841
v -0.23674744 -0.54371387 0.11548884
v -0.45512003 -0.47147635 -0.24411292
v -0.44959077 -0.47903115 -0.21556702
v -0.34193006 -0.50272638 -0.50573289
v -0.33802003 -0.49881634 -0.50577289
v -0.45521939 -0.47175708 -0.24412790
v -0.36950302 0.36037880 -0.13487656
v -0.36927003 0.36064366 -0.13473295
v -0.40153188 0.49996775 0.21405588
v -0.30213174 0.61715871 -0.27787945
v -0.52965146 0.55013788 0.25204259
v -0.38423193 0.56326324 0.07548278
v -0.43959558 0.55586660 0.27540794
v -0.43568006 0.55977362 0.27555707
v -0.48136485 0.56182456 0.19090408
v -0.44584364 0.63634658 0.31358746
v -0.41607478 -0.57960325 -0.44538623
v -0.33020827 -0.49096712 -0.50582743
v -0.34003285 -0.43188807 -0.44501713
v -0.35576594 -0.52756006 -0.51536143
v -0.46936083 0.26583913 -0.17834845
v -0.33796006 -0.49881634 -0.50583291
v -0.33411005 -0.49492633 -0.50583291
v -0.34969148 0.24540976 -0.46211186
v -0.35155219 -0.29368168 -0.35634932
v -0.39430931 0.39486548 -0.37318707
v -0.43396157 0.44236743 -0.41358599
v -0.38491771 0.53643364 -0.09961943
v -0.38104105 0.54036486 -0.09958075
v -0.38489005 0.53637362 -0.09958293
v -0.38489005 0.53242362 -0.09785294
v -0.37708005 0.54414362 -0.09943294
v -0.38099003 0.54023361 -0.09949294
v -0.41451856 0.68340486 0.31522703
v -0.39183387 0.73228127 0.29526219
v -0.26771006 0.12617366 -0.19341294
v -0.26776004 0.12617366 -0.19333293
v -0.26768619 0.12630869 -0.19331570
v -0.35807475 -0.44734821 -0.14709705
v -0.33202204 0.25392106 -0.44452801
v -0.36881629 0.24418111 -0.46231002
v -0.35378006 0.23555365 -0.45895293
v -0.35376278 0.23552696 -0.45895642
v -0.35354882 0.23542789 -0.45890656
v -0.36536005 0.36265364 -0.13473295
v -0.34474811 0.22490552 -0.45941365
v -0.35884246 0.24085800 -0.45900309
v -0.35755005 0.23945366 -0.45901296
v -0.36927003 0.36444366 -0.13083293
v -0.36927134 0.36444524 -0.13082895
v -0.36924613 0.36446506 -0.13082621
v -0.41938609 0.29642630 -0.14832026
v -0.32337198 -0.51437926 -0.52872288
v -0.37318006 0.36055365 -0.13277294
v -0.35692352 0.41516408 -0.08082093
v -0.38489005 0.53633362 -0.09956294
v -0.38942266 0.61865449 -0.15579836
v -0.33355826 0.35592854 -0.17147389
v -0.37322426 0.69657755 0.18766394
v -0.33802003 -0.50272638 -0.50912291
v -0.33802003 -0.49887633 -0.50583291
v -0.37532961 -0.43660992 -0.22658619
v -0.29081562 -0.32377562 0.08157673
v -0.29026514 -0.12831701 -0.22844085
v -0.34892708 0.18616457 -0.48260394
v -0.35744005 0.23945366 -0.45895293
v -0.27043003 0.12617366 -0.18942294
v -0.37457344 0.36712518 -0.12527876
v -0.35921186 0.37253651 -0.12788653
v -0.35675919 0.57978123 0.15674035
v -0.30338842 0.54776305 -0.08053294
v -0.21330859 0.76704800 0.28630260
v -0.33406001 -0.49494672 -0.50589603
v -0.08802005 -0.47537634 -0.52151293
v -0.08821005 -0.47147635 -0.52536291
v -0.26163027 -0.95004594 -0.54829699
v -0.28678972 -0.36643809 0.08389526
v -0.29645386 -0.41832969 0.07617044
v -0.27791354 0.04023859 -0.04174539
v -0.42089456 -0.25570992 -0.16499512
v -0.25479135 0.22196384 -0.11683959
v -0.31839535 0.08757801 -0.06357259
v -0.31381112 -0.93444729 -0.39587447
v -0.27767384 -0.46984541 -0.12145575
v -0.26753953 0.12239570 -0.19755703
v -0.31355706 -0.33388612 -0.26939681
v -0.15651938 0.00767463 0.06230377
v -0.06823822 -0.47549251 -0.47752777
v -0.27127227 0.11420746 -0.20048045
v -0.26784003 0.12227365 -0.19723295
v -0.26771006 0.12245366 -0.19723295
v -0.11598542 0.25570390 -0.20901054
v -0.23944026 0.51661634 -0.20940629
v -0.26432708 0.75838041 -0.11605768
v -0.18709874 -0.35171360 0.14217934
v -0.26388866 -0.37036803 0.09979921
v -0.27552003 -0.35818633 0.09182706
v -0.27552003 -0.35942635 0.09181707
v -0.27560228 -0.35429668 0.09181781
v -0.27552003 -0.35428634 0.09186707
v -0.26771006 -0.35818633 0.09726706
v -0.19979383 -0.46588507 -0.38650978
v -0.27554005 -0.35818633 0.09181707
v -0.15905188 -0.28377938 -0.29537091
v -0.29102004 -0.30213508 0.07368212
v -0.23717549 -0.02718459 0.01640577
v -0.13665396 0.00882736 -0.24672706
v -0.24426979 0.04416466 -0.01364083
v -0.20124005 0.79414362 0.27150705
v -0.20130004 0.79804367 0.26759705
v -0.20130004 0.79805362 0.26759705
v -0.20130004 0.79414362 0.27131706
v -0.24937224 0.03023909 -0.01482095
v -0.24427044 0.04414172 -0.01364388
v -0.24427012 0.05572453 -0.01755023
v -0.24426892 0.04395624 -0.01354926
v -0.24424990 0.05579332 -0.01755015
v -0.24439339 0.06637170 -0.02126419
v -0.28252959 0.14127426 -0.15003575
v -0.26314598 0.13959309 -0.07701677
v -0.23312473 0.11323018 -0.02306560
v -0.24924456 0.65388417 -0.03035158
v -0.25246635 0.72151846 -0.25718307
v -0.22301044 0.89314044 0.16920556
v -0.18578687 -0.27246392 -0.37452236
v -0.21391423 -0.64774281 -0.44118831
v -0.18541232 -0.64842963 -0.25761864
v -0.20291194 -0.48239979 -0.56091207
v -0.24873486 0.16224240 -0.02376192
v -0.19807537 0.09016633 0.04473782
v -0.18568005 0.22383365 0.06837706
v -0.18613385 0.22393876 0.07210772
v -0.18568005 0.22385365 0.07228706
v -0.16392691 0.50128531 0.07620633
v -0.25443932 0.66250390 0.13101292
v -0.17786005 -0.67068636 -0.39703295
v -0.16649319 -0.67050809 -0.38680017
v -0.20131452 0.83021623 0.22589916
v -0.16032052 -0.96192741 -0.40846729
v -0.11061460 -0.51768774 -0.51235151
v -0.16995324 -0.67490882 -0.39380735
v -0.17337005 -0.67459637 -0.39645293
v -0.17786005 -0.67459637 -0.40028295
v -0.17790097 -0.67463934 -0.40035760
v -0.17384183 -0.67870414 -0.40027687
v -0.17396004 -0.67850637 -0.40020293
v -0.15254174 -0.52641058 -0.45467705
v -0.17616528 -0.53928232 -0.47421128
v -0.18172811 -0.36440706 -0.29782587
v -0.07586800 -0.09679002 -0.20999293
v -0.16571431 -0.23109213 -0.07339442
v -0.18958005 0.09080365 0.05275706
v -0.19739005 0.09102365 0.04501706
v -0.19349004 0.09102365 0.04883706
v -0.19345261 0.09102553 0.04887366
v -0.22189209 0.07626472 0.03544617
v -0.19774868 0.03678361 -0.21150546
v -0.17786005 0.04818365 -0.21286292
v -0.18568005 0.04414365 -0.21370295
v -0.19739005 0.09118365 0.04493706
v -0.17770600 0.04803117 -0.21287180
v -0.17786005 0.04805365 -0.21281295
v -0.17414005 -0.67850637 -0.40036294
v -0.20127271 0.10225903 0.03951611
v -0.18177289 0.04807472 -0.21284623
v -0.19349004 0.09099365 0.04884706
v -0.17396004 0.09883365 0.06449706
v -0.17005004 0.09883365 0.06831706
v -0.17398004 0.09883365 0.06447706
v -0.17574005 0.09492365 0.06447706
v -0.18504210 0.08795062 0.05856397
v -0.17786005 0.09907365 0.06056706
v -0.22840776 0.20194475 -0.02165400
v -0.19402048 0.22249985 0.06816216
v -0.18568005 0.22196366 0.07618707
v -0.18568005 0.22383365 0.07233706
v -0.17482629 0.38731369 0.01558083
v -0.20073059 0.79425430 0.27287123
v -0.20259005 0.79414362 0.26759705
v -0.20549296 0.79361057 0.25991714
v -0.20135127 0.79382461 0.27159446
v -0.20130002 0.79812789 0.26751509
v -0.19869004 0.80195361 0.27150705
v -0.17769966 -0.67863935 -0.40350878
v -0.17044953 -0.84847450 -0.49377000
v -0.09777708 -0.80083346 -0.48794979
v -0.13517639 -0.37844416 -0.16628945
v -0.21517299 -0.17642927 -0.02193010
v -0.15443005 -0.22928634 -0.07965294
v -0.15052004 -0.22537635 -0.07983293
v -0.02549131 -0.26190037 -0.21858427
v -0.15047380 -0.22551562 -0.07994416
v -0.12585254 -0.47407410 -0.53786552
v -0.14637576 -0.22139715 -0.08010355
v -0.14371392 0.11366923 0.09346929
v -0.12439153 -0.25154358 -0.23340233
v -0.21297410 0.25276691 -0.35281646
v -0.28153047 0.03680823 -0.22313915
v -0.17396004 0.09888365 0.06447706
v -0.18177004 0.04805365 -0.21288294
v -0.18177004 0.04808365 -0.21286292
v -0.16994528 0.09882024 0.06842697
v -0.17207693 0.10314393 0.06443528
v -0.23593368 0.02347022 -0.62012368
v -0.16566935 0.06938170 0.12772377
v -0.18567005 0.22383365 0.06837706
v -0.18563005 0.22383365 0.07228706
v -0.17995051 0.21977472 0.08492276
v -0.18342005 0.21992366 0.06837706
v -0.19860321 0.28723264 -0.10939208
v -0.14838521 0.56968313 0.18091154
v -0.22132856 0.79065871 0.13334453
v -0.10691027 0.72614324 -0.29040760
v -0.09949553 0.85421467 0.32277647
v -0.15603046 0.83005232 0.30704263
v -0.10742293 0.91478616 0.31089970
v -0.11497003 0.78636646 0.34178001
v -0.05579132 -0.91121167 -0.66518098
v -0.17559008 -0.72037548 -0.43168035
v -0.11402568 -0.73063707 -0.58048087
v -0.14661005 -0.22153635 -0.08005294
v -0.11874595 -0.27129048 -0.13649803
v -0.14661005 -0.22147635 -0.08001294
v -0.14293005 -0.21756634 -0.08005294
v -0.12218586 0.15274866 0.10213924
v -0.17641306 0.79068446 0.33819950
v -0.12975131 -0.96718180 -0.59078753
v -0.11146713 0.78241098 0.34181690
v -0.11508004 0.78633362 0.34181705
v -0.11389694 0.99850923 0.19650939
v -0.08788212 -0.47142342 -0.52527171
v -0.09329087 -0.47753349 -0.46342170
v -0.09437176 -0.69460660 -0.34916833
v -0.09193005 -0.47697634 -0.52145290
v -0.08037849 -0.05125856 -0.59138137
v -0.08802005 -0.47543636 -0.52145290
v -0.01978811 -0.29662064 -0.33483171
v -0.08802005 -0.47147635 -0.52528292
v -0.06068252 -0.11207555 -0.19333521
v -0.05677004 -0.11201026 -0.18942316
v 0.01698923 0.05531486 -0.20206086
v -0.10157321 -0.10469728 -0.00081804
v -0.16753508 -0.06275704 -0.32919335
v -0.09903571 0.75475532 0.34810770
v -0.02950656 -0.08777771 -0.15922292
v -0.01410966 -0.04532230 -0.01077497
v -0.18817003 0.18463287 -0.21471898
v -0.12936957 0.11711860 0.17791285
v -0.10720342 0.18938296 -0.34858635
v -0.11875603 0.30131447 0.08699279
v -0.16933201 0.30848745 -0.37731084
v -0.10797005 0.77852362 0.34181705
v -0.13042964 0.79112226 0.34402132
v -0.11536230 0.78630555 0.34189597
v -0.11146005 0.78242362 0.34180707
v -0.08186564 -0.47683737 -0.51720923
v -0.13760206 0.70981985 0.27736843
v -0.14039020 0.90611333 -0.00968022
v 0.11392133 0.80375588 0.55262125
v -0.06993198 -0.63484162 -0.32262442
v -0.08800929 -0.47541741 -0.52146798
v -0.06861532 -0.48498806 -0.50061333
v -0.04898005 -0.48318633 -0.47067294
v -0.05284234 -0.47929692 -0.46681139
v -0.04894056 -0.48318991 -0.47063586
v -0.04898568 -0.48318690 -0.47068065
v -0.07749860 -0.46035588 -0.52205038
v -0.04906318 -0.42852816 -0.33788291
v -0.05283005 -0.47928634 -0.46677294
v -0.05282970 -0.47922984 -0.46666896
v -0.05012005 -0.42459634 -0.33395293
v -0.06632314 -0.42868215 -0.36234793
v -0.04500737 -0.43240112 -0.33782294
v -0.04505005 -0.43238634 -0.33786294
v -0.04398005 -0.43631634 -0.34177294
v -0.04200971 -0.43848935 -0.34234923
v -0.06067706 -0.11224502 -0.19334516
v -0.06670882 -0.14243296 -0.19590856
v 0.03691212 -0.06697336 -0.29593629
v -0.08130376 0.11609450 0.17696530
v -0.02581280 0.16721965 -0.26995197
v -0.10560341 0.21484786 -0.23684232
v -0.11643785 0.17116520 0.10231024
v -0.04269511 0.21424371 -0.33498859
v -0.00946702 0.33743894 -0.23611796
v -0.06030354 0.41023409 0.10289054
v -0.02679514 0.71104699 0.17189156
v 0.05792526 0.80832422 0.48013237
v -0.01576017 -0.80488956 -0.51835108
v -0.04774237 -0.57136571 -0.36075211
v -0.09337302 -0.44550139 -0.44489303
v -0.00786997 -0.54560381 -0.33939373
v -0.04509614 -0.48708963 -0.47452602
v -0.06621942 -0.45550913 -0.23510359
v -0.04803005 -0.43240634 -0.34177294
v -0.04896005 -0.42850634 -0.33770293
v -0.04505005 -0.43240634 -0.33789295
v 0.01270004 -0.52207637 -0.40789548
v -0.05288005 -0.11209635 -0.18552294
v -0.06067279 -0.11210344 -0.19333257
v -0.05677005 -0.11209635 -0.18942294
v 0.01007864 0.65585452 -0.25053936
v 0.01215575 0.00390221 -0.28806305
v -0.01725608 0.15180279 0.14674827
v -0.09748838 0.53382432 -0.29671142
v 0.02915995 0.34262365 -0.24411292
v 0.02134995 0.34315366 -0.24020293
v 0.02134995 0.34883365 -0.24455293
v -0.01601055 0.81263500 0.21302889
v 0.01432995 0.84492362 0.11915706
v 0.01352995 0.84856361 0.11915706
v 0.01352995 0.84494364 0.12306707
v 0.00835859 0.86175209 -0.13444136
v -0.01235527 -0.76110512 -0.57059395
v 0.25181994 -0.38162634 0.58290708
v 0.07200836 -0.44833210 0.00267736
v 0.06431995 -0.12375635 0.06447706
v 0.05098712 -0.30289978 0.38490370
v 0.06969441 0.04735594 -0.43589216
v 0.05298138 -0.13289075 0.08354865
v 0.06012804 -0.33349451 0.22997367
v 0.10735977 -0.52005732 -0.36063129
v 0.08939731 0.04634832 -0.14011204
v 0.11702152 -0.11380766 -0.00949384
v 0.01089031 0.37018976 -0.25574422
v 0.06040995 -0.12834634 0.07228706
v -0.02366464 0.09259024 -0.44423446
v -0.08378161 0.24295287 -0.29475516
v 0.07222039 0.26779142 -0.20611104
v 0.00226589 0.64503914 0.18720312
v 0.04130635 -0.91979957 -0.58293068
v -0.17372465 0.80630213 -0.21043172
v 0.01353995 0.84492362 0.12306707
v -0.01276715 0.91653192 0.21213873
v 0.10587279 0.84439015 0.00963497
v 0.02003276 -0.49665198 -0.45416382
v -0.00943498 -0.42953354 -0.29374403
v 0.02387506 -0.36824515 -0.30229875
v -0.01731116 -0.02395138 0.11990884
v 0.07989281 -0.27575517 -0.20500153
v 0.05649955 -0.12381611 0.07228883
v 0.04863308 -0.11617058 0.07381586
v 0.05261172 -0.12384898 0.07617164
v 0.05259995 -0.12381635 0.07615706
v 0.05649995 -0.12382635 0.07228706
v 0.05529966 -0.10520418 0.05681441
v -0.00242378 0.02060377 -0.49657124
v 0.06821995 -0.12381635 0.06066706
v 0.06473317 -0.12388119 0.06415112
v 0.05224727 -0.12378959 0.07645020
v 0.02208452 0.12714174 -0.35082474
v 0.11696497 0.24427004 0.15523168
v 0.04355491 0.33715484 -0.25134102
v 0.02516995 0.34883365 -0.24802294
v 0.02524995 0.34492365 -0.24419294
v 0.02510995 0.34492365 -0.24411292
v 0.02524995 0.35273364 -0.25086296
v 0.07831021 0.20541309 -0.28936765
v 0.02109500 0.20753087 0.15669845
v 0.02524995 0.34484366 -0.24411292
v 0.02525380 0.34878474 -0.24805537
v 0.04380215 -0.16434933 -0.28635690
v 0.01673922 0.87600815 0.06574008
v 0.01349638 0.84981620 0.11799184
v 0.12358821 0.82856888 0.15899752
v 0.07993843 -0.27623487 -0.20505881
v 0.09963223 -0.38620561 -0.10469413
v 0.07993995 -0.27615634 -0.20503294
v 0.08384995 -0.28006634 -0.19716293
v 0.08835483 -0.32275134 -0.20092706
v 0.08383211 -0.28006646 -0.19719362
v 0.08769995 -0.28397635 -0.18942294
v 0.08383974 -0.28031594 -0.19725449
v 0.08385444 -0.29174200 -0.20087835
v 0.08774995 -0.28006634 -0.18804292
v 0.08384995 -0.27615634 -0.19591294
v 0.10346759 -0.21784952 -0.17087579
v 0.07620857 -0.27471724 -0.21320651
v 0.05705995 -0.11990635 0.06837706
v 0.06040995 -0.12378635 0.06837706
v 0.06431995 -0.12381635 0.06451707
v 0.06044332 -0.12393129 0.06844408
v 0.14081125 0.14608365 0.20541400
v 0.04082082 0.40516937 -0.21699649
v 0.13315496 0.55428648 -0.19448945
v 0.12833239 0.76409298 0.21667399
v 0.09786224 0.75322264 0.50979561
v 0.08692387 -0.47317275 0.36833787
v 0.10756603 -0.52231032 -0.03018685
v 0.09097147 -0.27114442 -0.17786366
v 0.08772179 -0.28422385 -0.18944459
v 0.10538684 -0.27230850 0.43037665
v 0.04603408 -0.16546437 0.11751013
v 0.20429634 -0.32191399 0.21095765
v 0.11119024 -0.12772334 -0.11521537
v 0.11119995 -0.12772635 -0.11520293
v 0.08021083 -0.13325833 0.05693007
v 0.11895995 -0.12772635 -0.10739294
v 0.09672711 -0.09089337 0.33514521
v 0.05936277 0.18737669 -0.25290778
v 0.15007439 0.21868479 -0.24665542
v 0.06857796 0.31918988 -0.21639623
v 0.09019236 0.36509731 -0.21423602
v 0.03116319 0.39852491 0.13655092
v 0.04582844 0.58857161 -0.21186064
v 0.11118995 0.59102362 -0.19720294
v 0.11101387 0.59137577 -0.19722319
v 0.04080990 0.50471437 0.13386558
v 0.01034990 0.76034391 0.12721993
v 0.14293920 -0.55591023 -0.09787034
v 0.17062755 -0.05022392 -0.01264810
v 0.11119096 -0.12773216 -0.11520536
v 0.11509995 -0.12768635 -0.11130294
v 0.10725238 -0.12786891 -0.11910400
v 0.11509634 -0.12772620 -0.11128661
v 0.15441284 -0.02474449 -0.12404812
v 0.10792802 0.14156012 0.16284460
v 0.08876931 0.07885306 -0.29989344
v 0.21979691 0.02287438 -0.27564612
v 0.11107995 0.58320361 -0.19723295
v 0.11118995 0.58711368 -0.19723295
v 0.11115995 0.58711368 -0.19723295
v 0.11674256 0.58563524 -0.19598740
v 0.12686500 0.73939222 0.56447721
v 0.12680995 0.73945361 0.56447709
v 0.12549996 0.73945361 0.56056708
v 0.12822935 0.72418040 0.55332679
v 0.12682995 0.73555362 0.56056708
v 0.12681995 0.73175365 0.55665708
v 0.12681995 0.74336368 0.56801707
v 0.12681995 0.73555362 0.56051707
v 0.07591798 0.84069461 0.58056313
v 0.15697815 0.71249479 0.41892362
v 0.10164569 0.80224919 0.60529029
v 0.13821983 -0.35616460 0.15437785
v 0.17046660 -0.17012106 0.10900360
v 0.16456884 0.64479554 0.55564415
v 0.14865470 -0.93006480 0.49204132
v 0.18925799 -0.03947839 0.02314018
v 0.18933983 -0.03797629 0.02179850
v 0.13818328 -0.16374744 -0.06682495
v 0.20034410 -0.04685989 -0.15072024
v 0.19492233 -0.95172411 0.39131862
v 0.21881695 0.12844495 -0.30483395
v 0.18184602 -0.04704833 0.01138691
v 0.18930995 -0.03397635 0.01759706
v 0.18925995 -0.03787635 0.02150706
v 0.19015348 0.05704909 0.17756133
v 0.13090324 0.21860288 -0.30660486
v 0.21286692 0.19533437 -0.09932482
v 0.22999164 0.16439699 -0.31376636
v 0.18045811 0.25452808 0.09250905
v 0.15173872 0.34141663 -0.14748694
v 0.13322230 0.31194174 0.07371143
v 0.15454841 0.68086803 0.15415916
v 0.19662750 0.64090031 -0.17043394
v 0.10423896 0.62319785 0.12666905
v 0.16466780 0.63070834 0.41198727
v 0.12681995 0.73560363 0.56056708
v 0.17054208 0.79796898 0.62149620
v 0.15128000 0.85979718 0.58450425
v 0.27915996 -0.65115637 0.23627707
v 0.19110319 -0.29676691 0.41796994
v 0.18316276 -0.59352738 0.30104193
v 0.25183597 -0.37745225 0.58010268
v 0.23506452 -0.42926231 0.12943456
v 0.20213073 -0.23456678 0.10743397
v 0.22214861 -0.26974091 -0.01424911
v 0.18931995 -0.03397635 0.01759706
v 0.18939283 -0.03386523 0.01758555
v 0.19894129 0.03435286 0.19322324
v 0.17752966 0.08330703 0.23250400
v 0.19712995 0.02865365 0.20118707
v 0.18149996 0.08023365 0.23243707
v 0.18540995 0.08320365 0.22474708
v 0.20102996 0.02502365 0.20118707
v 0.18149996 0.08330365 0.22853705
v 0.18286344 0.04619750 0.26792255
v 0.18155997 0.08320365 0.22859706
v 0.17771995 0.08320365 0.23243707
v 0.22801703 0.05316870 -0.00515712
v 0.18945834 0.25833350 -0.04555353
v 0.22213238 0.07869293 0.12465858
v 0.19712995 0.21507366 0.13087706
v 0.20884995 0.20820366 0.12805706
v 0.20493995 0.20834365 0.13087706
v 0.20507996 0.20820366 0.13087706
v 0.17830890 0.21988142 0.13384867
v 0.20102996 0.21602365 0.12740707
v 0.20102996 0.21213366 0.13087706
v 0.20102996 0.21211365 0.13089707
v 0.20493995 0.20820366 0.13096707
v 0.20105995 0.21211365 0.13087706
v 0.29129520 0.45889470 0.18582764
v 0.21147193 0.61795765 0.15596141
v 0.15247363 0.71023875 0.63135177
v 0.22305854 0.68556041 0.20362130
v 0.17553478 0.62727547 0.57424760
v 0.21665995 0.68095362 0.58009708
v 0.21688810 0.68105870 0.57993859
v 0.12718970 0.76585823 0.64718473
v 0.21274996 0.67695361 0.58110708
v 0.25590506 0.75063944 -0.09742318
v 0.28619286 -0.60245275 0.20987229
v 0.29609668 -0.83950961 0.42142096
v 0.19601481 -0.53786600 0.15010644
v 0.23374282 -0.55673778 0.21091631
v 0.23928770 -0.39216098 0.57204723
v 0.23880413 -0.28310966 0.06064741
v 0.25205994 -0.37772635 0.58009708
v 0.24626963 -0.56908149 0.05060468
v 0.19674999 -0.20212418 0.34550646
v 0.19303708 -0.04682641 0.04079449
v 0.19726995 0.02852365 0.20118707
v 0.20102996 0.02852365 0.19741707
v 0.19505060 0.00476565 0.22933137
v 0.19705264 0.02867231 0.20125555
v 0.20232119 0.02865248 0.19601484
v 0.20493995 0.20430365 0.13357706
v 0.20363577 0.39212513 -0.06416909
v 0.21449266 0.19166772 0.13573666
v 0.29897958 0.22474159 -0.14794874
v 0.23145154 0.57502627 0.02180162
v 0.21526262 0.54451782 -0.15647879
v 0.25580004 0.01437607 0.20858821
v 0.20951995 0.68086368 0.58790708
v 0.21621995 0.68477362 0.58400708
v 0.21274996 0.68093359 0.58400708
v 0.21273397 0.68087167 0.58396226
v 0.24136931 0.66475576 0.58077157
v 0.21778850 0.73949146 0.46664652
v 0.21659996 0.68086368 0.58009708
v 0.23334712 0.68820876 0.57479972
v 0.22515126 0.77808458 0.14904945
v 0.20450261 0.78972554 0.17364652
v 0.28306994 -0.66287637 0.24112707
v 0.26885149 -0.65664345 0.24610879
v 0.27372977 -0.60485083 0.37395936
v 0.28306994 -0.65512639 0.23634706
v 0.28306994 -0.65506631 0.23630705
v 0.28696993 -0.65897638 0.23633707
v 0.22054720 -0.55947304 0.14952534
v 0.25570953 -0.38162643 0.58009726
v 0.25578794 -0.38167810 0.58007324
v 0.21916831 -0.28819457 0.51859248
v 0.24792036 -0.93196863 0.53817725
v 0.20922878 -0.06873724 0.18309210
v 0.22531664 -0.00159813 0.20551968
v 0.17793325 -0.00620487 0.32441530
v 0.45493996 -0.00662635 -0.15425295
v 0.23956931 0.55708885 0.44085714
v 0.26744711 0.00488080 0.19729380
v 0.26741961 0.00899065 0.19336146
v 0.26741996 0.00898365 0.19337706
v 0.26743996 0.00896365 0.19337706
v 0.18903548 0.14553757 -0.25343192
v 0.27068835 -0.01005519 -0.03907229
v 0.21871209 0.21668471 0.08893972
v 0.27524993 -0.64740640 0.23634706
v 0.30246317 0.43587837 0.32715425
v 0.30314240 0.66853672 -0.07465021
v 0.22031368 0.64047372 0.13574688
v 0.23639816 0.71404171 0.55207646
v 0.20390575 0.76062894 0.07547868
v 0.24590302 0.74019682 0.62877584
v 0.21264115 0.83265221 0.49169061
v 0.19887364 0.87336975 -0.11597447
v 0.28694996 -0.65897638 0.23634706
v 0.27904996 -0.65115637 0.23634706
v 0.28698197 -0.65898007 0.23633218
v 0.27915996 -0.65506631 0.23868705
v 0.27915996 -0.65126640 0.23634706
v 0.29262334 -0.65709764 0.23173693
v 0.27444488 -0.66870522 0.34818938
v 0.33757114 -0.49465379 0.14648482
v 0.30565879 -0.44921839 0.24469368
v 0.32365689 -0.37136340 0.50801384
v 0.29087996 -0.31529635 0.08790706
v 0.29293993 -0.31912634 0.08790706
v 0.28038943 -0.14892107 0.28130180
v 0.29083994 -0.31522635 0.08790706
v 0.28695244 -0.31522584 0.08400981
v 0.29086855 -0.31520054 0.08795961
v 0.28306994 -0.31522635 0.08009706
v 0.34362847 0.33529523 -0.10905054
v 0.26733997 0.00508365 0.19728705
v 0.26743996 0.00508365 0.19710708
v 0.28762433 -0.22415663 0.02642991
v 0.34584892 -0.14950579 0.27060744
v 0.35057840 -0.97122175 0.45788893
v 0.35970104 -0.25846729 0.33834237
v 0.27134994 0.00898365 0.18968706
v 0.27120730 0.00355904 0.19322364
v 0.27421653 0.13228624 0.10692256
v 0.30220780 0.04064677 0.15479936
v 0.26138666 0.23792364 -0.22594820
v 0.29186442 0.30672261 -0.08411913
v 0.29254359 -0.80336791 0.32657492
v 0.25821200 0.80746353 0.08283895
v 0.28163981 0.81459528 -0.09234042
v 0.28299996 -0.65506631 0.23634706
v 0.36329478 -0.92863274 0.22827534
v 0.29856309 -0.46996218 0.13927566
v 0.32212996 -0.47934633 0.14650705
v 0.32212996 -0.47928634 0.14653707
v 0.33725983 -0.55302417 0.12238204
v 0.35994974 -0.77564824 0.24470811
v 0.38457096 -0.52509362 0.10318733
v 0.33114427 -0.56565571 0.37021881
v 0.32105643 -0.47885966 0.14617649
v 0.32602993 -0.48709634 0.14423706
v 0.33384994 -0.49100634 0.14646707
v 0.31179509 -0.29836288 0.12978968
v 0.28696993 -0.31526634 0.08400706
v 0.27272418 -0.36101532 0.07446955
v 0.31828681 -0.40744579 0.18515250
v 0.31022745 -0.19883810 0.36047152
v 0.29544345 -0.02469156 0.20512411
v 0.38049912 -0.51158226 0.16118957
v 0.33131045 -0.03117221 -0.25109622
v 0.30723014 0.52897668 0.23896828
v 0.37024391 0.42525756 0.38719127
v 0.26275334 0.54821455 0.27778387
v 0.31437272 0.77202839 -0.10296108
v 0.36284512 0.72098666 0.07133567
v 0.36606583 0.64115638 0.16309994
v 0.27233246 -0.69207042 0.26869878
v 0.32601422 -0.48317477 0.14650859
v 0.32452187 -0.53805399 0.23855285
v 0.31821993 -0.47537634 0.14656708
v 0.33384994 -0.49093634 0.14650705
v 0.38261762 -0.51800513 0.22345439
v 0.32995883 -0.48708650 0.14650868
v 0.32380289 -0.49736062 0.13694476
v 0.26636663 -0.31475878 0.30370182
v 0.32993996 -0.48709634 0.14648706
v 0.33390811 -0.49079588 0.14662144
v 0.43149993 -0.44412634 0.29511705
v 0.43536994 -0.44803634 0.29493704
v 0.43540996 -0.44803634 0.29500705
v 0.32602993 -0.48320633 0.14650705
v 0.30144912 -0.47049001 0.16046076
v 0.32601997 -0.48318633 0.14650705
v 0.33968672 -0.46057165 0.16756959
v 0.33988753 -0.22831441 0.21644060
v 0.37893215 0.39247680 0.22396144
v 0.45857993 -0.01053635 -0.15427294
v 0.27026251 0.32443196 -0.17449766
v 0.27702209 0.48002520 0.37213516
v 0.38029441 0.63928312 0.07266914
v 0.35974160 0.72209793 0.03595888
v 0.42381310 -0.43774018 0.29307234
v 0.36111945 -0.50816286 0.31214267
v 0.42759994 -0.44038635 0.29493704
v 0.43931529 -0.45196146 0.29485738
v 0.38084871 -0.37392515 0.43950379
v 0.37679365 -0.36991462 0.43947014
v 0.37290996 -0.36610636 0.43947706
v 0.37681994 -0.36990634 0.43942705
v 0.38075691 -0.37381643 0.43946472
v 0.38062993 0.63789362 0.39259705
v 0.37669247 0.64192039 0.39275390
v 0.38071993 0.63789362 0.39237705
v 0.37686995 0.64180362 0.39259705
v 0.39268583 0.66756868 0.09598987
v 0.43471929 -0.95002156 0.34057713
v 0.45181763 -0.91287589 0.23493737
v 0.43210062 -0.77305442 0.32659674
v 0.44407815 -0.48890564 0.20873398
v 0.38534981 -0.33392462 0.38221928
v 0.45099282 -0.00264130 -0.15434359
v 0.45123997 -0.00272635 -0.15427294
v 0.38071993 -0.37378636 0.43947706
v 0.30128554 0.07795069 -0.20197456
v 0.43921179 0.36896122 -0.02941390
v 0.43739977 -0.00924403 -0.16384755
v 0.40520066 0.51395696 0.06997941
v 0.35451430 0.59090048 0.22189052
v 0.27017155 0.71433002 0.42034924
v 0.38080844 0.63755494 0.39298064
v 0.37677437 0.64191878 0.39254662
v 0.38766703 0.63475037 0.38273445
v 0.41894042 0.68164408 0.02369834
v 0.36410645 -0.71816570 0.35297278
v 0.37181443 -0.35870180 0.36860147
v 0.43146005 -0.44418180 0.29494527
v 0.43935519 -0.45194954 0.29494387
v 0.43931994 -0.45191634 0.29493704
v 0.43741432 -0.44510454 0.30350733
v 0.43544528 -0.44815260 0.29486722
v 0.47948098 -0.05162375 -0.17879006
v 0.48431525 0.01732711 -0.12984049
v 0.45023045 -0.00048080 -0.15372895
v 0.54985619 0.41869196 0.08182913
v 0.52172488 0.41632211 0.21169555
v 0.35159770 0.59220433 0.48711932
v 0.47544992 0.58734262 0.30767047
v 0.48338935 0.52718514 0.35431433
v 0.39532888 0.64530486 0.33971718
v 0.44898885 0.66794175 -0.06450108
v 0.47993243 -0.45483658 0.33191115
v 0.45491505 -0.00662629 -0.15426967
v 0.44766948 -0.46004713 0.29510942
v 0.56073421 0.03504392 -0.11737484
v 0.42421740 -0.45372224 0.48126245
v 0.49343389 0.40406817 0.06465569
v 0.46189871 0.44631040 0.39805090
v 0.45764816 0.44821215 0.07717740
v 0.57393217 0.26090395 -0.03550562
f 2 7 6
f 2 1 54
f 1 2 6
f 4 1 6
f 29 6 7
f 7 44 29
f 33 10 32
f 32 13 12
f 14 39 15
f 7 2 17
f 4 5 1
f 7 42 44
f 22 23 24
f 31 48 49
f 25 26 27
f 11 15 12
f 3 36 32
f 50 8 33
f 14 35 13
f 10 14 13
f 10 35 14
f 11 12 13
f 37 52 38
f 33 36 39
f 32 12 3
f 35 39 14
f 33 8 36
f 35 10 39
f 35 14 11
f 39 36 3
f 15 39 3
f 33 39 10
f 14 15 11
f 32 10 13
f 12 15 3
f 15 11 13
f 35 15 13
f 35 11 15
f 5 6 19
f 19 6 45
f 42 26 48
f 25 20 26
f 22 24 28
f 20 22 28
f 23 46 24
f 48 26 49
f 46 23 47
f 23 21 47
f 23 46 21
f 25 27 23
f 27 46 23
f 46 25 23
f 24 47 28
f 21 46 26
f 20 25 46
f 21 26 30
f 49 26 20
f 46 47 24
f 46 23 22
f 20 46 22
f 27 26 46
f 45 6 29
f 47 21 30
f 28 47 30
f 48 31 92
f 49 67 31
f 8 50 36
f 33 32 50
f 113 50 32
f 32 36 113
f 106 55 56
f 36 112 113
f 2 88 17
f 54 1 91
f 85 88 2
f 2 54 85
f 7 17 42
f 61 62 90
f 88 19 45
f 62 65 90
f 90 5 19
f 30 42 28
f 28 49 20
f 66 62 63
f 26 42 30
f 37 53 52
f 28 42 49
f 29 92 45
f 31 49 92
f 49 68 92
f 49 31 67
f 69 70 71
f 113 58 50
f 112 36 50
f 76 79 77
f 98 74 18
f 81 74 76
f 74 98 76
f 40 41 82
f 85 54 91
f 102 101 84
f 85 87 101
f 88 85 101
f 83 101 87
f 101 102 88
f 18 59 60
f 89 66 63
f 45 17 88
f 42 17 45
f 61 19 64
f 61 64 89
f 19 88 104
f 104 65 66
f 90 1 5
f 61 89 63
f 62 66 65
f 19 104 64
f 104 66 64
f 63 62 61
f 19 61 90
f 64 66 89
f 42 103 92
f 49 92 68
f 49 42 92
f 93 94 55
f 52 53 50
f 58 52 50
f 112 50 97
f 74 81 80
f 81 75 99
f 53 93 86
f 76 98 79
f 73 99 77
f 80 99 73
f 80 73 74
f 99 75 77
f 18 74 73
f 87 40 82
f 57 18 73
f 98 18 57
f 99 80 81
f 75 76 77
f 77 79 73
f 81 76 75
f 41 102 84
f 83 82 84
f 82 41 84
f 70 122 100
f 87 85 40
f 41 78 102
f 85 91 40
f 40 91 78
f 101 83 84
f 41 40 78
f 102 78 91
f 83 87 82
f 88 102 91
f 43 91 1
f 43 1 90
f 65 104 90
f 42 45 103
f 45 92 103
f 94 37 38
f 94 53 37
f 56 38 9
f 51 9 16
f 107 226 108
f 9 52 16
f 38 56 55
f 52 9 38
f 93 53 94
f 53 86 50
f 86 161 50
f 55 94 38
f 106 56 9
f 106 9 51
f 16 86 51
f 86 106 51
f 106 93 55
f 106 86 93
f 52 58 158
f 119 95 97
f 231 58 113
f 98 57 73
f 73 79 98
f 18 230 59
f 155 90 104
f 43 90 156
f 16 161 86
f 158 16 52
f 50 137 97
f 96 111 110
f 138 111 96
f 97 95 112
f 95 72 112
f 231 113 112
f 118 122 123
f 115 114 152
f 114 115 162
f 284 18 60
f 60 59 284
f 126 91 43
f 127 156 90
f 155 127 90
f 172 116 109
f 129 130 131
f 117 72 160
f 161 16 158
f 161 137 50
f 133 130 134
f 110 111 131
f 130 129 134
f 111 34 128
f 132 134 128
f 136 110 131
f 132 136 133
f 136 130 133
f 96 136 132
f 129 128 134
f 111 129 131
f 96 110 136
f 136 131 130
f 111 138 128
f 132 133 134
f 111 128 129
f 96 132 128
f 138 96 128
f 72 117 221
f 276 58 231
f 112 72 139
f 142 143 144
f 142 145 143
f 112 147 148
f 112 153 231
f 280 231 122
f 112 148 151
f 71 152 280
f 151 150 154
f 141 150 148
f 231 152 122
f 280 122 118
f 70 100 71
f 280 118 71
f 112 153 189
f 112 189 153
f 118 123 124
f 69 124 70
f 118 69 71
f 123 122 70
f 122 152 100
f 124 69 118
f 124 123 70
f 71 100 152
f 115 152 153
f 115 153 162
f 88 91 126
f 104 88 126
f 155 104 126
f 109 116 218
f 172 218 116
f 119 181 95
f 95 160 72
f 119 182 135
f 147 149 141
f 146 139 149
f 147 141 148
f 139 146 112
f 112 146 147
f 147 146 149
f 150 141 149
f 148 150 151
f 154 149 139
f 154 112 151
f 150 149 154
f 162 112 154
f 153 112 162
f 189 153 197
f 153 189 197
f 258 238 162
f 114 162 206
f 164 165 166
f 230 18 284
f 168 127 155
f 171 245 168
f 245 171 168
f 245 127 168
f 156 127 365
f 157 245 171
f 174 175 170
f 95 159 160
f 181 119 135
f 178 179 174
f 180 159 173
f 181 159 95
f 300 161 158
f 111 128 34
f 272 310 183
f 229 182 119
f 158 58 276
f 221 139 72
f 154 139 120
f 97 140 190
f 163 197 193
f 178 196 179
f 179 175 174
f 204 186 199
f 199 188 185
f 200 201 235
f 120 162 154
f 189 197 163
f 198 195 194
f 186 204 163
f 204 202 203
f 204 199 185
f 189 163 204
f 186 187 199
f 197 204 185
f 188 197 185
f 238 189 204
f 186 163 193
f 187 186 193
f 193 197 188
f 187 188 199
f 187 193 188
f 165 207 208
f 209 165 208
f 206 243 114
f 315 114 125
f 162 207 206
f 206 207 316
f 164 207 165
f 114 315 152
f 59 230 361
f 284 59 361
f 210 126 243
f 155 126 210
f 210 167 155
f 43 338 126
f 155 167 168
f 156 365 246
f 143 145 212
f 171 213 105
f 105 214 211
f 212 213 215
f 212 215 143
f 214 145 142
f 144 215 216
f 105 259 171
f 105 213 214
f 214 212 145
f 215 213 171
f 213 212 214
f 214 142 211
f 142 144 216
f 105 211 259
f 216 171 259
f 211 142 216
f 143 215 144
f 211 216 259
f 215 171 216
f 177 159 169
f 127 245 291
f 171 259 263
f 175 176 170
f 196 176 179
f 177 176 175
f 179 177 175
f 179 176 177
f 176 169 170
f 217 177 196
f 178 174 252
f 217 159 177
f 177 176 196
f 160 159 266
f 252 174 170
f 266 159 252
f 176 177 169
f 159 217 252
f 252 217 178
f 217 196 178
f 181 265 173
f 173 159 181
f 161 324 137
f 117 160 220
f 251 260 109
f 135 265 181
f 222 225 223
f 221 184 223
f 255 227 225
f 117 220 255
f 117 255 184
f 221 117 184
f 139 221 120
f 140 97 137
f 140 119 97
f 120 221 275
f 229 119 140
f 201 232 236
f 198 233 234
f 233 140 194
f 237 268 360
f 191 194 195
f 192 190 140
f 192 233 198
f 198 140 190
f 140 97 190
f 201 236 235
f 195 234 191
f 195 198 234
f 234 233 191
f 233 194 191
f 198 194 140
f 190 192 198
f 192 140 233
f 232 201 200
f 235 236 228
f 236 232 205
f 258 162 120
f 238 197 189
f 236 205 197
f 238 203 200
f 236 197 228
f 202 205 232
f 202 204 205
f 204 197 205
f 204 203 238
f 238 200 235
f 197 238 228
f 203 202 200
f 202 232 200
f 238 235 228
f 281 162 238
f 152 315 280
f 239 166 240
f 239 164 166
f 162 316 241
f 207 162 241
f 242 240 241
f 166 209 240
f 166 165 209
f 240 208 241
f 240 209 208
f 206 316 243
f 207 164 242
f 241 316 242
f 242 239 240
f 164 239 242
f 316 207 242
f 241 208 207
f 172 109 260
f 156 338 43
f 244 290 245
f 171 245 248
f 290 248 245
f 259 171 248
f 248 247 259
f 291 245 157
f 263 157 171
f 218 172 219
f 219 253 218
f 109 218 253
f 159 219 293
f 252 170 266
f 180 253 159
f 219 159 253
f 220 160 327
f 223 225 254
f 220 182 229
f 221 256 257
f 222 255 225
f 256 227 257
f 184 222 223
f 227 256 254
f 257 255 275
f 227 255 257
f 270 158 276
f 221 257 275
f 225 227 254
f 256 223 254
f 222 184 255
f 223 256 221
f 372 120 275
f 120 372 258
f 336 231 280
f 258 313 238
f 336 280 314
f 316 162 281
f 230 282 361
f 284 282 230
f 125 114 243
f 243 316 283
f 243 283 210
f 243 126 125
f 261 277 287
f 286 259 247
f 365 127 346
f 346 127 291
f 249 263 259
f 291 157 263
f 172 260 364
f 219 172 364
f 109 253 251
f 253 180 347
f 160 266 293
f 226 267 295
f 323 347 180
f 267 269 295
f 161 300 226
f 161 226 324
f 265 135 305
f 182 220 327
f 107 108 271
f 135 182 327
f 333 272 273
f 255 220 229
f 229 275 255
f 336 312 276
f 336 276 231
f 281 238 313
f 210 283 319
f 338 125 126
f 167 319 244
f 290 244 320
f 249 259 277
f 285 288 247
f 261 288 285
f 286 247 250
f 285 247 277
f 261 285 277
f 288 261 262
f 250 288 262
f 248 290 247
f 247 288 250
f 262 287 250
f 286 250 287
f 259 287 277
f 286 287 259
f 262 261 287
f 264 294 271
f 226 300 264
f 300 294 264
f 323 293 219
f 269 294 289
f 295 269 289
f 295 289 300
f 293 327 160
f 267 226 107
f 271 108 264
f 369 303 298
f 267 107 269
f 226 295 324
f 289 294 300
f 269 107 294
f 108 226 264
f 294 107 271
f 305 135 327
f 305 137 324
f 300 158 270
f 275 229 311
f 278 275 311
f 310 311 183
f 183 278 272
f 183 311 140
f 311 229 140
f 278 183 140
f 380 268 237
f 337 313 258
f 316 281 313
f 125 338 318
f 156 335 338
f 249 277 247
f 219 364 322
f 324 121 303
f 347 323 219
f 121 324 295
f 301 304 305
f 327 293 325
f 297 302 303
f 303 302 298
f 328 305 309
f 298 296 299
f 297 121 295
f 296 298 302
f 297 296 302
f 121 297 303
f 369 326 295
f 299 295 326
f 307 306 329
f 326 369 298
f 299 297 295
f 326 298 299
f 369 324 303
f 296 297 299
f 329 306 304
f 328 308 330
f 370 304 306
f 304 370 137
f 308 328 309
f 305 304 137
f 330 308 306
f 308 309 306
f 306 309 370
f 305 328 301
f 307 329 301
f 301 328 307
f 328 330 307
f 329 304 301
f 307 330 306
f 137 370 224
f 310 333 334
f 272 333 310
f 311 310 334
f 332 273 278
f 311 334 332
f 278 273 272
f 332 334 273
f 311 332 278
f 333 273 334
f 140 137 224
f 278 140 274
f 275 278 279
f 140 224 274
f 275 279 372
f 380 360 268
f 258 372 337
f 314 280 315
f 392 316 313
f 317 282 284
f 125 362 315
f 283 316 487
f 318 362 125
f 318 340 339
f 290 320 342
f 290 342 247
f 247 342 367
f 263 396 291
f 343 344 345
f 247 367 249
f 263 249 367
f 260 251 364
f 347 364 253
f 364 251 253
f 347 219 322
f 309 324 370
f 325 265 305
f 324 309 305
f 325 305 327
f 270 371 300
f 395 270 276
f 278 274 279
f 237 360 380
f 352 380 360
f 317 284 391
f 417 318 338
f 319 283 437
f 244 319 490
f 438 338 335
f 363 320 342
f 342 320 363
f 344 397 366
f 442 343 366
f 367 396 263
f 300 369 295
f 364 347 322
f 173 265 331
f 293 323 331
f 331 265 325
f 369 370 324
f 355 370 369
f 369 300 371
f 349 224 370
f 395 276 312
f 375 374 377
f 352 360 380
f 351 432 372
f 274 356 279
f 350 381 382
f 376 378 359
f 360 352 384
f 482 352 360
f 433 384 451
f 384 361 317
f 384 317 391
f 384 433 361
f 392 313 385
f 391 284 361
f 387 388 389
f 362 318 435
f 316 392 487
f 358 390 387
f 389 393 340
f 283 487 437
f 394 387 389
f 387 394 341
f 390 394 387
f 394 390 386
f 339 340 393
f 318 394 389
f 394 318 341
f 388 386 339
f 386 388 394
f 341 358 387
f 389 340 318
f 390 358 386
f 338 438 417
f 363 244 490
f 363 442 320
f 246 365 346
f 345 344 366
f 368 346 291
f 343 345 366
f 397 344 343
f 396 367 397
f 343 396 397
f 442 396 343
f 367 442 366
f 366 397 367
f 367 342 442
f 325 293 331
f 355 349 370
f 399 401 402
f 401 404 402
f 355 369 371
f 399 411 373
f 408 409 423
f 353 426 383
f 415 412 413
f 374 412 415
f 383 376 353
f 359 353 376
f 376 383 377
f 426 354 372
f 279 379 372
f 354 351 372
f 377 378 376
f 377 374 378
f 375 377 383
f 374 375 379
f 274 224 449
f 372 375 426
f 379 350 413
f 378 374 359
f 379 412 374
f 375 372 379
f 379 381 350
f 383 426 375
f 357 279 356
f 372 432 337
f 482 360 384
f 416 313 337
f 361 433 391
f 313 416 385
f 314 315 483
f 483 315 362
f 393 389 388
f 417 358 318
f 339 386 318
f 388 339 393
f 387 394 388
f 386 358 417
f 318 358 341
f 435 318 386
f 441 319 437
f 363 490 442
f 442 342 320
f 368 291 396
f 402 404 409
f 405 402 408
f 399 373 401
f 354 421 351
f 270 395 403
f 270 403 371
f 411 404 407
f 403 424 423
f 373 411 410
f 373 410 423
f 405 406 402
f 403 395 411
f 411 395 410
f 411 399 404
f 404 406 407
f 406 404 402
f 403 407 424
f 402 409 408
f 405 424 406
f 409 373 423
f 406 424 407
f 411 407 403
f 424 405 408
f 404 399 402
f 409 401 373
f 404 401 409
f 424 408 423
f 379 430 381
f 428 445 429
f 430 426 353
f 415 430 374
f 381 430 382
f 359 430 353
f 415 413 414
f 414 382 415
f 350 414 413
f 379 413 412
f 410 395 312
f 351 425 432
f 382 430 415
f 350 382 414
f 430 359 374
f 379 279 357
f 450 337 432
f 391 386 436
f 386 391 436
f 435 486 362
f 386 436 435
f 417 436 386
f 417 438 418
f 490 441 437
f 321 420 292
f 396 442 368
f 349 355 443
f 371 443 355
f 443 422 349
f 443 371 400
f 421 425 351
f 354 539 421
f 539 354 468
f 371 403 400
f 403 423 400
f 447 474 445
f 501 400 410
f 423 410 400
f 224 349 474
f 469 427 354
f 428 429 446
f 445 448 429
f 354 426 469
f 501 410 312
f 469 426 357
f 431 474 449
f 224 474 447
f 447 445 428
f 357 426 430
f 431 448 474
f 448 445 474
f 379 357 430
f 224 447 449
f 446 431 449
f 429 448 446
f 428 446 449
f 447 428 449
f 448 431 446
f 312 336 475
f 336 314 483
f 384 434 482
f 433 384 391
f 434 384 352
f 433 589 384
f 435 436 486
f 557 436 417
f 456 453 454
f 453 455 454
f 440 439 455
f 456 439 440
f 456 454 439
f 453 438 455
f 453 418 438
f 440 455 438
f 528 441 488
f 418 453 456
f 439 454 455
f 489 418 456
f 440 489 456
f 489 438 335
f 438 489 440
f 457 458 459
f 462 460 461
f 463 457 529
f 463 458 457
f 458 463 292
f 335 246 536
f 466 420 321
f 491 420 466
f 292 420 459
f 246 346 536
f 464 462 461
f 292 467 465
f 544 349 422
f 421 497 425
f 497 421 539
f 443 400 648
f 349 499 500
f 468 354 427
f 475 501 312
f 357 356 444
f 425 545 432
f 475 336 483
f 274 449 356
f 432 545 450
f 452 451 384
f 478 479 480
f 477 352 482
f 384 589 452
f 352 477 434
f 434 477 589
f 487 392 485
f 485 392 385
f 487 485 515
f 486 515 362
f 486 436 557
f 417 418 557
f 437 556 490
f 528 437 441
f 491 531 470
f 464 420 462
f 464 492 459
f 491 470 420
f 529 292 463
f 492 457 459
f 464 459 420
f 442 490 597
f 470 460 420
f 460 457 461
f 458 461 457
f 492 461 458
f 529 457 460
f 461 492 464
f 459 458 292
f 460 462 420
f 492 458 457
f 470 529 460
f 493 467 529
f 292 529 467
f 534 493 529
f 442 597 368
f 567 419 398
f 321 292 494
f 292 465 494
f 494 465 467
f 494 467 493
f 544 422 443
f 648 400 542
f 425 496 545
f 474 349 500
f 469 357 444
f 480 502 473
f 480 479 502
f 472 478 480
f 472 480 473
f 514 444 356
f 546 444 478
f 478 472 546
f 503 479 478
f 478 444 503
f 444 514 503
f 451 707 433
f 551 506 504
f 507 511 508
f 514 356 449
f 481 450 545
f 549 550 509
f 582 450 481
f 505 510 416
f 549 582 481
f 582 416 450
f 416 582 511
f 707 451 452
f 513 505 507
f 512 513 507
f 513 512 510
f 510 508 416
f 510 512 508
f 505 416 511
f 513 510 505
f 507 505 511
f 507 508 512
f 627 416 628
f 589 433 707
f 484 477 482
f 518 519 520
f 521 485 385
f 416 521 385
f 515 483 362
f 522 517 523
f 522 521 517
f 524 525 526
f 487 515 553
f 515 486 553
f 553 486 557
f 437 487 556
f 441 437 488
f 488 437 528
f 536 489 335
f 529 470 596
f 597 490 595
f 466 321 564
f 568 398 419
f 321 494 564
f 536 346 368
f 575 497 539
f 497 571 425
f 499 349 544
f 609 468 427
f 542 400 501
f 496 668 545
f 427 469 580
f 503 502 479
f 546 472 473
f 474 500 514
f 581 549 509
f 449 474 514
f 546 503 514
f 469 546 514
f 473 503 546
f 444 546 469
f 509 547 548
f 473 502 503
f 481 545 580
f 590 475 483
f 548 581 509
f 581 548 551
f 509 550 547
f 550 506 547
f 581 551 516
f 550 549 481
f 548 547 506
f 481 551 504
f 506 550 504
f 508 511 628
f 551 548 506
f 481 504 550
f 551 481 516
f 416 508 628
f 522 523 526
f 591 519 518
f 517 524 523
f 524 517 521
f 554 552 521
f 591 522 526
f 416 554 521
f 523 524 526
f 526 525 519
f 591 526 519
f 525 524 519
f 524 521 519
f 552 525 519
f 521 552 519
f 518 520 554
f 554 591 518
f 554 520 552
f 525 552 520
f 519 525 520
f 482 434 681
f 483 515 591
f 591 515 485
f 591 485 521
f 522 591 521
f 487 553 556
f 557 418 489
f 595 490 556
f 531 491 584
f 566 562 560
f 566 532 562
f 561 559 563
f 559 561 562
f 562 561 560
f 561 562 532
f 561 532 565
f 470 535 533
f 535 470 531
f 533 565 532
f 562 535 531
f 531 559 562
f 566 470 533
f 532 566 533
f 563 559 531
f 562 565 535
f 533 535 565
f 560 561 563
f 562 561 565
f 712 491 466
f 560 563 566
f 530 419 567
f 596 493 529
f 419 530 568
f 493 596 564
f 529 493 534
f 368 597 536
f 493 564 494
f 398 568 632
f 660 569 603
f 538 471 579
f 476 471 631
f 572 573 574
f 641 544 443
f 443 648 641
f 576 498 543
f 468 609 675
f 498 348 543
f 609 427 668
f 425 642 496
f 348 498 541
f 499 649 500
f 610 498 577
f 427 580 668
f 501 475 621
f 545 668 580
f 650 582 578
f 578 582 613
f 581 516 613
f 582 581 613
f 514 516 481
f 469 514 481
f 580 469 481
f 549 581 582
f 586 587 588
f 628 511 582
f 452 589 707
f 555 434 589
f 558 582 585
f 554 416 627
f 589 484 629
f 629 482 681
f 627 591 554
f 484 482 629
f 589 629 555
f 486 630 434
f 556 553 594
f 553 557 594
f 594 557 489
f 595 556 527
f 599 466 564
f 466 599 712
f 599 564 596
f 598 599 596
f 632 600 398
f 579 476 623
f 579 471 476
f 603 569 601
f 592 495 602
f 495 592 537
f 570 660 497
f 604 602 605
f 604 660 570
f 631 635 476
f 631 471 538
f 569 604 572
f 604 570 602
f 607 497 660
f 592 570 537
f 497 607 642
f 570 592 602
f 495 605 602
f 540 537 570
f 540 570 497
f 604 569 660
f 468 675 539
f 499 544 636
f 541 610 577
f 496 642 668
f 611 616 612
f 541 498 610
f 576 348 577
f 348 541 577
f 348 576 543
f 576 577 498
f 541 738 610
f 614 615 616
f 542 617 648
f 578 541 610
f 500 649 613
f 501 621 542
f 619 620 587
f 475 590 621
f 628 586 625
f 588 620 626
f 613 514 500
f 587 586 558
f 587 620 588
f 735 583 725
f 620 585 626
f 585 619 558
f 582 650 651
f 516 514 613
f 588 651 625
f 588 626 651
f 582 651 585
f 619 587 558
f 558 586 628
f 620 619 585
f 585 651 626
f 651 628 625
f 628 582 558
f 586 588 625
f 590 483 627
f 627 483 591
f 434 630 486
f 434 555 630
f 681 434 630
f 654 595 527
f 711 595 654
f 584 491 682
f 656 682 491
f 531 584 563
f 656 491 712
f 567 684 530
f 598 563 599
f 563 598 596
f 632 568 530
f 567 398 633
f 633 600 632
f 633 398 600
f 572 634 573
f 579 623 538
f 643 637 638
f 604 605 634
f 601 569 572
f 660 603 606
f 606 574 537
f 495 573 605
f 631 538 717
f 607 660 631
f 608 667 544
f 537 540 662
f 573 634 605
f 574 606 603
f 601 574 603
f 660 640 631
f 537 574 573
f 631 717 607
f 604 634 572
f 606 640 660
f 601 572 574
f 606 537 640
f 537 573 495
f 575 539 639
f 571 642 425
f 639 539 675
f 667 608 645
f 499 636 649
f 648 617 647
f 615 542 616
f 612 616 646
f 541 578 718
f 617 542 615
f 617 615 647
f 647 614 611
f 647 615 614
f 648 612 646
f 648 611 612
f 648 647 611
f 611 614 616
f 542 646 616
f 578 613 718
f 646 542 678
f 621 590 628
f 622 651 650
f 608 544 652
f 628 590 627
f 681 630 618
f 593 682 656
f 654 593 656
f 556 594 710
f 584 729 563
f 594 489 536
f 595 711 597
f 711 658 530
f 712 599 563
f 683 594 536
f 683 536 597
f 530 684 711
f 658 632 530
f 632 657 633
f 649 661 677
f 640 635 631
f 607 717 642
f 640 537 662
f 670 677 664
f 652 677 670
f 642 717 662
f 661 666 677
f 664 666 669
f 670 645 608
f 669 644 645
f 671 672 673
f 671 719 672
f 644 669 666
f 674 644 666
f 643 667 637
f 608 652 670
f 639 675 665
f 664 645 670
f 663 638 649
f 738 541 718
f 638 676 661
f 664 669 645
f 666 664 677
f 649 636 663
f 674 666 661
f 636 667 643
f 638 637 676
f 649 638 661
f 636 544 667
f 643 638 663
f 636 643 663
f 676 674 661
f 637 667 674
f 676 637 674
f 644 667 645
f 667 644 674
f 642 686 668
f 648 646 702
f 650 578 610
f 650 610 624
f 542 621 678
f 678 621 622
f 621 628 622
f 622 628 651
f 654 527 679
f 679 655 593
f 654 679 593
f 654 656 711
f 710 594 683
f 712 563 729
f 711 659 597
f 597 659 683
f 659 711 684
f 632 658 657
f 633 684 567
f 684 633 657
f 635 699 476
f 476 699 623
f 649 677 702
f 717 538 623
f 609 665 675
f 648 702 641
f 677 652 702
f 665 668 686
f 668 665 609
f 718 613 649
f 692 703 691
f 690 691 610
f 690 692 691
f 703 610 691
f 689 690 610
f 678 702 646
f 610 703 624
f 624 678 650
f 678 622 650
f 555 629 618
f 618 629 681
f 653 707 737
f 555 739 630
f 679 527 556
f 655 682 593
f 682 655 584
f 584 655 729
f 711 656 712
f 659 658 711
f 694 696 697
f 712 729 695
f 635 700 699
f 623 699 717
f 640 662 701
f 701 662 717
f 665 686 642
f 723 672 719
f 652 544 641
f 718 649 702
f 734 738 718
f 692 690 706
f 689 706 690
f 689 738 703
f 693 706 689
f 610 738 689
f 693 692 706
f 703 692 693
f 689 703 693
f 624 703 678
f 734 678 703
f 739 555 708
f 705 735 726
f 708 555 618
f 741 630 739
f 618 630 741
f 679 556 728
f 655 679 740
f 728 556 710
f 729 655 740
f 696 713 715
f 695 729 713
f 732 711 712
f 711 732 730
f 712 695 732
f 696 714 697
f 695 694 697
f 732 714 715
f 696 694 713
f 694 695 713
f 715 729 732
f 715 713 729
f 714 695 697
f 732 695 714
f 714 696 715
f 658 659 698
f 684 698 659
f 698 716 658
f 722 673 720
f 699 701 717
f 700 635 640
f 700 640 701
f 685 702 723
f 641 702 652
f 687 685 719
f 671 687 719
f 671 673 722
f 721 723 688
f 723 719 685
f 688 723 702
f 722 687 671
f 685 718 702
f 653 724 707
f 685 722 718
f 687 722 685
f 702 678 734
f 735 725 726
f 707 724 709
f 704 735 583
f 705 704 583
f 725 707 726
f 683 659 728
f 659 711 728
f 729 731 730
f 730 732 729
f 716 698 684
f 684 657 733
f 657 658 716
f 733 657 716
f 701 699 700
f 720 673 721
f 720 688 736
f 736 722 720
f 723 721 673
f 709 704 726
f 724 704 709
f 702 736 688
f 702 734 736
f 673 672 723
f 734 722 736
f 720 721 688
f 707 709 726
f 722 734 718
f 704 705 726
f 734 703 738
f 704 724 735
f 583 680 725
f 583 735 680
f 680 724 725
f 735 724 680
f 735 705 583
f 679 728 740
f 708 618 741
f 710 683 728
f 711 730 728
f 731 729 740
f 684 733 716
f 737 725 724
f 724 653 737
f 741 739 708
f 740 728 731
f 731 728 730
f 707 725 737
f 742 727 739
f 739 727 742
f 6 5 4
f 48 44 42
f 29 44 48
f 29 48 92
f 152 231 153
f 169 159 170
f 244 168 167
f 168 244 245
f 159 293 266
f 266 170 159
f 167 210 319
f 282 317 361
f 156 246 335
f 173 323 180
f 323 173 331
f 320 244 363
f 319 441 490
f 337 450 416
f 497 575 540
f 589 477 484
f 596 470 566
f 497 642 571
f 566 563 596
f 540 575 639
f 540 639 665
f 662 540 665
f 662 665 642

