# https://github.com/mikedh/trimesh
v -0.95479554 -0.66782588 0.14668301
v -0.93318540 -0.75901508 0.18533456
v -0.94618499 -0.69501245 0.15252413
v -0.91568577 -0.71669304 0.12646604
v -0.96954083 -0.68655723 0.26025742
v -0.94000614 -0.60494369 0.17236491
v -0.84558076 -0.61548787 0.24461240
v -0.88656807 -0.60235763 0.24723920
v -0.89887512 -0.59154439 0.21637420
v -0.88015676 -0.74837452 0.10997055
v -0.88715827 -0.69455600 0.31129426
v -0.81133747 -0.67042649 0.23023136
v -0.87133902 -0.62563080 0.00975711
v -0.86640763 -0.52019066 0.05550687
v -0.68059677 -0.31006759 0.04564037
v -0.86184335 -0.64335054 0.01395062
v -0.82091713 -0.72834814 0.20256303
v -0.84176469 -0.47420105 0.02658336
v -0.85489058 -0.74670666 0.15009108
v -0.31840241 -0.29457209 -0.19803828
v -0.31449243 -0.29067209 -0.20444828
v -0.80486351 -0.55804819 -0.08348537
v -0.72103339 -0.51600933 -0.14395651
v -0.73137510 -0.37905717 0.04082203
v -0.78870231 -0.44091198 0.09887557
v -0.77114481 -0.36529914 -0.07383878
v -0.83079118 -0.48540494 0.10813452
v -0.72850239 -0.37661210 0.04160171
v -0.72855240 -0.37661210 0.04157172
v -0.72846603 -0.37673041 0.04167746
v -0.72465241 -0.36879209 0.03933172
v -0.72465241 -0.37270209 0.04159172
v -0.72463244 -0.37270209 0.04160171
v -0.75791979 -0.35355264 -0.01320832
v -0.77192020 -0.38196132 -0.07490688
v -0.70111775 -0.65248120 0.04445092
v -0.81801379 -0.66391164 0.24826276
v -0.74497622 -0.46881473 -0.15134078
v -0.70334148 -0.41227332 0.06307495
v -0.76724303 -0.68638086 0.16490096
v -0.75857759 -0.36891815 0.00716005
v -0.70558619 -0.66243541 0.09098282
v -0.38785565 -0.24658367 -0.10448343
v -0.65112281 -0.36876312 -0.17217614
v -0.75779623 -0.65492022 -0.01650871
v -0.31840241 -0.29065210 -0.20056829
v -0.31449243 -0.29062209 -0.20447828
v -0.64721638 -0.54894358 0.05013610
v -0.72351372 -0.63837522 -0.05103073
v -0.73812044 -0.49851742 0.13475157
v -0.71795243 -0.37270209 0.04551172
v -0.72465241 -0.37272209 0.04160171
v -0.60661507 -0.53107870 0.01953114
v -0.71466547 -0.41507688 0.05755065
v -0.66991687 -0.31310529 -0.15733610
v -0.69995379 -0.28010684 -0.08013902
v -0.64049375 -0.57916480 -0.07233830
v -0.33350334 -0.75770044 0.03409377
v -0.58994532 -0.19488299 -0.17360510
v -0.59195697 -0.26852265 0.07763832
v -0.68661636 -0.26165906 -0.06598784
v -0.35292372 -0.28322381 -0.05361630
v -0.60111886 -0.53700405 -0.01222855
v -0.64385051 -0.42843017 0.07402830
v -0.54519999 -0.25526649 -0.20077628
v -0.64629078 -0.34367299 -0.19024052
v -0.67748964 -0.33463389 0.05881558
v -0.57600594 -0.18415165 0.06063101
v -0.61635488 -0.13100219 0.00266805
v -0.57621241 -0.46280208 -0.12635829
v -0.55861712 -0.48874810 -0.02760545
v -0.57800841 -0.48954895 -0.10149461
v -0.55954915 -0.45779920 -0.11404177
v -0.65489560 -0.51305091 -0.14862730
v -0.58012241 -0.46670210 -0.12635829
v -0.57366079 -0.22462951 -0.19703312
v -0.58002239 -0.47036210 -0.12244829
v -0.57621241 -0.47036210 -0.11880828
v -0.57621241 -0.46651208 -0.12244829
v -0.63401413 -0.15882407 -0.13063665
v -0.62482631 -0.12141550 -0.10830314
v -0.58231717 -0.03342624 -0.10940173
v -0.57230240 -0.46254209 -0.12251828
v -0.57230240 -0.46261209 -0.12244829
v -0.57223243 -0.46254209 -0.12244829
v -0.33854124 -0.79660380 -0.04167487
v -0.57615238 -0.46645209 -0.12244829
v -0.56848377 -0.46254018 -0.11850038
v -0.58172464 -0.47215798 -0.12247857
v -0.56811821 -0.45708635 -0.12382938
v -0.58012241 -0.47036210 -0.12254828
v -0.57980359 -0.46470743 -0.12812321
v -0.57235307 -0.46667439 -0.11845475
v -0.56840241 -0.45871210 -0.12244829
v -0.57621241 -0.46645209 -0.12251828
v -0.56852239 -0.46254209 -0.11853828
v -0.57229239 -0.46645209 -0.11853828
v -0.33012241 -0.29067209 -0.18889828
v -0.33022678 -0.29062322 -0.18882173
v -0.32624242 -0.29067209 -0.19275829
v -0.62186068 -0.43610078 0.04452227
v -0.60114413 -0.45099220 -0.15555349
v -0.56646061 -0.18019372 0.05178233
v -0.57561785 -0.03334373 -0.14908053
v -0.58578157 -0.01143748 -0.05031287
v -0.61648929 -0.12783481 -0.01361152
v -0.50980240 -0.40783209 -0.07947829
v -0.51680821 -0.41616884 -0.08449701
v -0.50971597 -0.40776932 -0.08390495
v -0.50980210 -0.40786201 -0.08357804
v -0.50980240 -0.40785208 -0.08338828
v -0.57409143 -0.27151522 0.06649016
v -0.61289746 -0.56749153 -0.07894312
v -0.53701615 -0.07933041 0.06091133
v -0.50982243 -0.40786210 -0.07947829
v -0.50984240 -0.40786210 -0.07556829
v -0.46909335 -0.15805998 0.08055248
v -0.49714604 -0.02392467 -0.23547445
v -0.51704878 -0.10958765 -0.22719827
v -0.31839418 -0.29067209 -0.20056653
v -0.32230240 -0.29067209 -0.19666828
v -0.32485241 -0.28676209 -0.19666828
v -0.51915056 -0.41988122 -0.06258533
v -0.32621241 -0.29067209 -0.19278829
v -0.32621241 -0.29071209 -0.19275829
v -0.49450734 -0.36834729 -0.14349471
v -0.48155314 -0.19260423 -0.22640781
v -0.45310664 -0.25294435 -0.19261076
v -0.51638418 -0.07231516 -0.24010207
v -0.49821821 0.06645449 0.04618752
v -0.44676167 -0.30173030 0.00604345
v -0.43362078 -0.27846929 -0.16455644
v -0.43168241 -0.27507210 -0.16541828
v -0.39285159 -0.09747963 0.10269202
v -0.44708210 -0.05612616 0.09260897
v -0.35020798 -0.00783522 0.12462029
v -0.47826049 0.06056856 -0.19463937
v -0.46024629 0.05883050 -0.18326142
v -0.48917556 0.09989976 -0.07438041
v -0.47981676 -0.37522888 -0.08665645
v -0.39252323 -0.22781943 -0.13013121
v -0.41585451 -0.24430248 -0.17398690
v -0.32230240 -0.29068211 -0.19666828
v -0.46101469 -0.32278204 0.03122943
v -0.43557242 -0.27504209 -0.16931829
v -0.43701020 -0.31328505 -0.13927221
v -0.43559244 -0.27114210 -0.17184828
v -0.33218241 -0.29067209 -0.18494828
v -0.46844625 -0.30797243 -0.18511271
v -0.43559423 -0.27507094 -0.16932102
v -0.28970402 -0.12585059 0.17582375
v -0.45622933 -0.16063549 -0.23557250
v -0.42577058 -0.03437636 -0.24532044
v -0.22917424 -0.31152511 -0.24636981
v -0.43148279 -0.27494398 -0.16530026
v -0.33012241 -0.29074210 -0.18885829
v -0.32231244 -0.29067209 -0.19666828
v -0.39242008 -0.14996015 0.05543570
v -0.30668184 0.08849297 0.08788483
v -0.37545198 -0.18106064 0.02382677
v -0.39820561 -0.19623145 -0.20435366
v -0.36713859 0.08743127 -0.18616489
v -0.21671112 -0.80558908 -0.18012980
v -0.30965069 -0.29097766 -0.20908126
v -0.31059244 -0.29059210 -0.20838828
v -0.32708451 -0.80209744 -0.01554041
v -0.33553228 -0.39109382 -0.01269277
v -0.34801224 -0.28105968 -0.17664808
v -0.37075067 -0.19536075 -0.01172231
v -0.42958602 -0.02759825 -0.22773765
v -0.32600018 0.03692862 0.11316282
v -0.39495930 0.06674410 -0.20313874
v -0.29185367 0.00238790 -0.25254124
v -0.46439189 0.10425141 -0.07344089
v -0.15396953 0.23670346 -0.03364616
v -0.25953624 -0.77662367 -0.14537555
v -0.29752353 -0.77875364 0.13906647
v -0.29365218 -0.52559280 -0.03364089
v -0.29363489 -0.50288159 0.08239435
v -0.28632513 -0.41378614 -0.14906611
v -0.30537209 -0.63321453 -0.04413175
v -0.31059244 -0.29457209 -0.20580828
v -0.30639791 -0.37050056 -0.14298132
v -0.29221529 -0.46627536 0.20322901
v -0.39272302 -0.18351856 -0.19771111
v -0.31059244 -0.29067209 -0.20833829
v -0.31446245 -0.29067209 -0.20447828
v -0.25748807 -0.30902839 -0.22775605
v -0.35299811 -0.25591359 -0.00157657
v -0.27842298 -0.12328974 0.17342752
v -0.23517199 -0.05649669 0.18933561
v -0.36312991 -0.21247256 -0.22190420
v -0.28324154 0.01009283 -0.25134358
v -0.33383533 -0.00043947 0.13473020
v -0.31010291 0.03334958 0.13425174
v -0.17632632 0.39197347 0.05868581
v -0.33484587 -0.72329485 0.02133175
v -0.29824564 -0.63839477 -0.04512119
v -0.23343050 -0.75279355 0.21796012
v -0.30547231 -0.51186359 -0.05187471
v -0.30750939 -0.33588910 0.12010966
v -0.29670992 -0.26989910 -0.23535995
v -0.29286689 -0.27810767 -0.23367566
v -0.25855443 -0.23132886 0.18001232
v -0.25206241 -0.20864210 0.19004172
v -0.29866588 -0.33045277 -0.19457164
v -0.25762320 -0.18527658 0.18303010
v -0.25201461 -0.20083036 0.19002888
v -0.25194430 -0.20043366 0.19008408
v -0.28319561 0.01009036 -0.25135517
v -0.28321719 0.01007847 -0.25135723
v -0.27564701 0.01400784 -0.25135764
v -0.27548143 0.01405119 -0.25136814
v -0.28731498 0.12415930 0.06872220
v -0.27152243 0.01400789 -0.25213826
v -0.15303510 0.28399101 -0.14798474
v -0.18625969 0.22440745 -0.15104035
v -0.28267136 -0.78924239 -0.13531902
v -0.25988525 -0.61307663 -0.12088001
v -0.29340336 -0.52183145 0.11274847
v -0.25900164 -0.45363632 0.17742345
v -0.28783000 -0.44528702 -0.11355443
v -0.25206241 -0.20473211 0.19004172
v -0.25199243 -0.20473211 0.19013171
v -0.22593997 -0.20612575 0.21293089
v -0.25199243 -0.20082211 0.19005172
v -0.27537164 0.01419039 -0.25134832
v -0.29845393 -0.01028598 -0.25553191
v -0.24550371 0.02746973 -0.25214845
v -0.50302094 0.06497154 0.03220598
v -0.25072202 -0.74401891 -0.11276295
v -0.14664394 -0.79076290 0.23333047
v -0.19272839 -0.75162798 0.23833178
v -0.20692939 -0.55315673 -0.16779883
v -0.26052678 -0.41875556 0.17273091
v -0.16354415 -0.28600821 -0.31238666
v -0.20985305 -0.31019253 0.22429875
v -0.02041310 0.09856515 -0.25213164
v -0.16595243 -0.07582211 0.20957172
v -0.16613853 -0.07603796 0.20957445
v -0.16605243 -0.07582211 0.20955172
v -0.18821715 0.16606578 -0.19091928
v -0.26597136 -0.63455087 -0.10394049
v -0.16543487 -0.66787970 -0.13217358
v -0.07708106 -0.73319781 0.29572201
v -0.24226551 -0.37794355 0.23735923
v -0.11200842 -0.74400204 0.28783041
v -0.14884987 -0.83589536 -0.19978982
v -0.24258713 -0.06734791 -0.27945977
v -0.20059758 0.40930134 -0.03117138
v -0.17244351 0.29592374 -0.09679711
v -0.15070698 0.34313905 0.09401079
v -0.19423793 0.34251013 -0.01313832
v -0.19463353 0.56199670 -0.01689004
v -0.17063753 -0.33594522 -0.27604634
v -0.24455306 -0.46956646 -0.16626911
v -0.22745201 -0.54236764 0.17880219
v -0.16732840 -0.47447944 -0.20577592
v -0.17777440 -0.13837017 0.23917152
v -0.11386297 -0.18933772 -0.31037530
v -0.16215242 -0.06801211 0.20872171
v -0.16977243 -0.07973211 0.20957172
v -0.16215242 -0.07192210 0.20956172
v -0.16212189 -0.07192153 0.20957176
v -0.14136243 0.37728789 0.14707172
v -0.17610464 0.23656031 -0.08143683
v -0.18816397 0.35323793 -0.04410197
v -0.12938552 0.27724534 -0.00821227
v -0.14135243 0.38119790 0.15098171
v -0.14264242 0.37728789 0.14317171
v -0.09398216 0.38775802 -0.10590412
v -0.19929348 0.43968278 -0.02706379
v -0.14265242 0.37338790 0.13926171
v -0.08620272 -0.17359918 0.24649286
v -0.23165528 0.52270091 0.22605640
v -0.12570453 0.63572037 0.17908271
v -0.08104470 -0.75008172 -0.23222087
v -0.20858443 -0.56360841 -0.17545062
v -0.11608819 -0.55431914 -0.20046017
v -0.12817688 -0.68534613 -0.16517538
v -0.19667980 -0.45835760 -0.19536418
v -0.12109960 -0.61441362 0.30893537
v -0.14262243 0.38507789 0.15098171
v -0.14263242 0.38119790 0.14707172
v -0.14262243 0.38119790 0.14713171
v -0.14890783 0.04299687 0.17154059
v -0.13800900 -0.05748158 0.21478175
v -0.14667755 0.40486589 0.21196541
v -0.05473457 0.09323950 -0.24483752
v -0.14262243 0.38509789 0.15101172
v -0.14693162 0.03984955 0.18691929
v -0.14079145 0.38708976 0.15865289
v -0.02369882 0.29110959 -0.18640994
v -0.07838799 0.11061800 0.12872149
v -0.16863826 0.26557845 -0.15962169
v -0.13907254 0.16517253 0.04757095
v -0.09627169 0.18159764 0.06282436
v -0.18044400 0.49482197 -0.07843768
v -0.14262243 0.38113791 0.14707172
v -0.14262246 0.37723184 0.14319554
v 0.09619381 0.28104681 0.10857207
v -0.14268467 0.38507357 0.15080772
v -0.10521238 0.31192544 0.17295238
v -0.14589015 0.40738612 0.16225111
v -0.20226698 0.54982114 -0.01010005
v -0.14762039 0.43038085 0.13235418
v -0.12309243 0.66907787 0.12364172
v -0.12309243 0.67025787 0.11979172
v -0.12309243 0.67027789 0.11973172
v -0.11917926 0.67416513 0.11968915
v -0.11918243 0.67414784 0.11973172
v -0.14467016 0.69528675 -0.02954976
v -0.12951933 0.67204511 0.09434278
v -0.12310189 0.67026615 0.11970852
v -0.12606499 0.66452003 0.12787148
v -0.14601129 -0.78158307 -0.21654263
v -0.14698158 -0.68024933 0.27044645
v -0.16376355 -0.14936872 -0.31762606
v -0.12231576 -0.39964235 -0.23592903
v -0.14885417 -0.16585529 0.24058266
v 0.15327844 -0.24988148 -0.31401643
v -0.05748885 0.01596975 0.18940131
v -0.04539903 -0.01149782 0.21328789
v 0.13096361 -0.73625427 0.28252807
v -0.08791977 0.23075518 0.06751910
v -0.11229850 0.26760378 0.05774025
v 0.00215759 0.55264628 -0.21381423
v -0.10408412 0.39315322 -0.10850690
v -0.19230041 0.54711145 0.24112338
v -0.11540288 0.62926662 -0.14652503
v -0.11795243 0.67416787 0.12364172
v -0.11986184 0.67111528 0.12720065
v -0.05717925 0.81686789 -0.08913118
v -0.02376908 -0.67436564 0.29800624
v 0.02818779 -0.78565919 -0.18637064
v -0.10442671 -0.69680190 -0.16767007
v 0.01604973 0.63883764 0.26789585
v -0.04315535 -0.05053689 0.21758431
v -0.04887242 -0.11879210 0.23300171
v -0.04887242 -0.11883211 0.23301171
v -0.05277243 -0.11894211 0.23301171
v -0.05277243 -0.12661211 0.23491171
v -0.05277243 -0.11879210 0.23297171
v 0.06737370 0.35641333 -0.13560386
v 0.03719454 0.08804491 0.12765059
v -0.14600395 0.56922281 -0.12726504
v -0.07374557 0.72208375 0.12388041
v -0.05668243 -0.11906211 0.23301171
v -0.05435491 -0.19192380 0.24810129
v -0.04496243 -0.11879210 0.23301171
v -0.00557109 0.21059760 -0.18425199
v 0.00035503 0.41494328 -0.24686852
v 0.12890887 0.60428512 -0.13735017
v -0.00047893 0.79692280 -0.17485853
v 0.00020797 0.83291286 -0.00177085
v -0.05408883 0.83368641 -0.09485672
v 0.01497065 -0.48680037 0.28995124
v 0.11151611 -0.46504968 0.25996667
v 0.12713529 -0.16665155 0.25180548
v -0.04269516 -0.45708904 -0.21234998
v -0.04099311 -0.76069689 0.28119400
v -0.09742016 -0.37759551 0.30444562
v -0.09257025 -0.48395252 0.25817588
v 0.02835262 -0.74711984 0.31055138
v -0.07806471 -0.32273224 -0.26606706
v -0.01174378 -0.46823144 -0.19821657
v 0.00773218 -0.20220637 -0.27711663
v -0.07716898 0.11891907 0.13125196
v 0.03315757 0.08726790 0.12754172
v 0.03713757 0.08822790 0.12754172
v 0.03705757 0.09600790 0.12364172
v -0.00121742 0.77225572 -0.18928169
v 0.03223393 -0.68388814 0.28352514
v 0.08002757 -0.28680208 0.25645170
v 0.04773372 -0.57145858 -0.19850473
v 0.08393757 -0.28676209 0.25610170
v -0.00691063 -0.23959532 -0.25990349
v 0.03705757 0.08822790 0.12753171
v 0.10931206 0.12085672 0.12977993
v 0.12934835 0.11879973 -0.22941799
v 0.03705774 0.09603770 0.12362475
v 0.01345969 0.62123102 -0.19693083
v 0.00578055 0.41633597 -0.23361187
v 0.18409307 0.53677046 -0.07103614
v 0.01334563 0.72405326 0.16920272
v 0.00275753 -0.68278754 -0.18398178
v 0.09486023 -0.61545241 0.26102313
v 0.01983099 -0.30847082 0.28525397
v 0.05394545 -0.26166821 0.25613514
v 0.17328890 -0.78614187 -0.17573477
v 0.01230573 0.03738705 0.15487711
v 0.17959788 0.09481334 -0.24350443
v 0.00182071 0.15279114 0.09411912
v 0.21724786 0.59599137 0.13707641
v 0.10534838 0.73656452 0.07255481
v -0.00118336 0.77477187 0.12112422
v 0.00975229 0.82046598 0.00293183
v 0.14188632 -0.48267961 -0.21518306
v 0.04920937 -0.38835025 -0.25267041
v 0.08397757 -0.29067209 0.25645170
v 0.08393757 -0.29067209 0.25645170
v 0.08393757 -0.29063210 0.25645170
v 0.07510140 -0.29295731 0.25744170
v 0.08817848 -0.29482886 0.25645190
v 0.08783757 -0.29457209 0.25645170
v 0.12172111 -0.82583034 -0.19700290
v 0.13415127 0.19314261 0.05203916
v 0.01160585 0.19674638 -0.19409859
v 0.15386568 0.29427087 -0.09073948
v 0.02531835 0.63105148 0.26588154
v 0.10589378 0.34394413 0.17697640
v 0.11007436 0.69324279 0.13949819
v 0.15245669 0.62803477 0.19805755
v 0.15831646 -0.10706210 0.22912522
v 0.08310337 0.75652003 -0.11009391
v 0.04791491 -0.75115573 -0.23275644
v 0.11570650 -0.64997351 0.30716237
v 0.14484134 -0.48912615 0.29571941
v 0.13703853 -0.35958141 -0.26058951
v 0.24250662 -0.77299267 -0.16148132
v 0.15468194 -0.18238102 0.24251248
v 0.19779585 -0.10178115 0.21687192
v 0.11516491 0.00288175 0.20786820
v 0.07544504 0.37025315 -0.13824695
v 0.13329640 0.45253983 -0.09036762
v 0.14263776 0.37978330 0.12026922
v 0.12689503 0.51402581 -0.11856762
v 0.12362428 0.51401931 -0.12266972
v 0.13470215 0.51796132 -0.11072980
v 0.12690768 0.51399362 -0.11853772
v 0.32133558 -0.15517141 0.13514788
v 0.13078512 0.69370317 0.10403667
v 0.13080758 0.69363785 0.10410172
v 0.13816369 0.68332231 0.11028044
v 0.24150854 0.55494684 0.25009823
v 0.14169732 0.60112065 -0.13574386
v 0.13472880 0.51788056 -0.11065575
v 0.13080758 0.69166785 0.10801172
v 0.13470757 0.68978786 0.10410172
v 0.13471757 0.68978786 0.10408171
v 0.10779063 0.74688715 -0.00223754
v 0.08416612 0.76238948 -0.12328540
v 0.17212792 -0.46102294 -0.19817746
v 0.10695757 -0.75599736 0.26413536
v 0.22061671 -0.67846173 0.22577038
v 0.15311566 -0.27914143 -0.30233946
v 0.16596757 -0.10317210 0.22569172
v 0.16205758 -0.11098211 0.22905171
v 0.16187757 -0.11098211 0.22910172
v 0.16205758 -0.11119211 0.22910172
v 0.05594980 -0.09492287 0.23074584
v 0.15839757 -0.10707211 0.22910172
v 0.12525058 0.10776671 0.13111272
v 0.16205758 -0.11489210 0.23013172
v 0.17872423 0.40328309 -0.07965446
v 0.15346774 0.27622512 -0.14370485
v 0.15930471 0.26424816 -0.15329780
v 0.11433455 0.20239955 0.04065717
v 0.15337558 0.24304186 -0.02793900
v 0.13471757 0.52181786 -0.11234829
v 0.19085304 0.41736391 -0.02517294
v 0.19611827 0.21092097 -0.04455510
v 0.12690757 0.51400787 -0.11853828
v 0.14974377 0.54166317 -0.10175329
v 0.13866246 0.68587822 0.10411482
v 0.13861758 0.68591785 0.10410172
v 0.13471757 0.68977785 0.10410172
v 0.15048422 0.68850094 0.05970512
v 0.15855420 0.68181497 0.07366019
v 0.13471757 0.68779784 0.10801172
v 0.13670757 0.68978786 0.10020171
v 0.12212941 -0.76757640 -0.22999150
v 0.06827538 -0.59174848 -0.19848652
v 0.19098645 -0.62328488 -0.18012744
v 0.23376060 -0.68016416 0.19968158
v 0.18415047 -0.58199430 -0.17354402
v 0.12977049 -0.33933634 0.28061637
v 0.73781186 -0.64753377 0.14053319
v 0.16596757 -0.11489210 0.22891171
v 0.25295624 -0.29736170 0.17985676
v 0.45091206 -0.14368820 -0.23550975
v 0.17104387 0.02715287 0.17083077
v 0.26866594 -0.20979105 0.18514499
v 0.19241996 0.39783043 -0.02595261
v 0.26604530 0.18742338 -0.02438857
v 0.21544389 0.17692274 -0.17329574
v 0.15965299 0.62673807 -0.07727274
v 0.14300053 0.41856995 0.20687462
v 0.19876768 0.57749051 -0.02349873
v 0.20733465 0.61175776 0.00711745
v 0.26438019 -0.72927588 -0.11545703
v 0.27148911 -0.75476432 0.20096122
v 0.17223606 -0.68290889 -0.12971151
v 0.26016435 -0.78502822 -0.15413302
v 0.18111540 -0.55468875 -0.17934297
v 0.24448021 -0.36554226 0.23816453
v 0.26361755 -0.54067212 -0.10611828
v 0.25947520 -0.47355199 -0.15005219
v 0.26870376 -0.12863107 0.19826914
v 0.31744537 -0.22919005 0.10096196
v 0.17556927 0.34505177 -0.10913605
v 0.27421445 0.18464272 -0.10684728
v 0.49018756 -0.34534210 -0.16150829
v 0.49408755 -0.34536210 -0.16526829
v 0.49019760 -0.34536210 -0.16150829
v 0.16551749 -0.68184382 -0.13994433
v 0.26378968 -0.67935020 -0.08929040
v 0.28880864 -0.77400023 0.15242139
v 0.28004390 -0.62846261 -0.09582125
v 0.24236013 -0.52684337 -0.11172239
v 0.60309553 -0.56732959 -0.05321561
v 0.27021086 -0.49858671 0.14558686
v 0.26752758 -0.54070210 -0.10291828
v 0.26756755 -0.54067212 -0.10291828
v 0.26754755 -0.54457211 -0.09900828
v 0.27143756 -0.54092211 -0.09900828
v 0.27143756 -0.54457211 -0.09585828
v 0.30412290 -0.50476509 -0.02834227
v 0.26753739 -0.54458016 -0.09901030
v 0.26881903 -0.41409978 0.18015175
v 0.20425290 -0.32846808 -0.26602623
v 0.22723338 -0.31644255 0.21169703
v 0.18084724 -0.12804869 -0.29833847
v 0.43361709 -0.03352401 -0.23233907
v 0.34727296 -0.21180373 -0.21842767
v 0.18969545 -0.10646647 -0.29966545
v 0.29039535 -0.02578721 0.17680965
v 0.19340682 0.19445281 -0.17687841
v 0.29486755 0.17416789 -0.09510828
v 0.29486755 0.17416789 -0.09656829
v 0.29486755 0.17420790 -0.08728828
v 0.29486755 0.17418788 -0.09119829
v 0.29492757 0.17416789 -0.09119829
v 0.19384561 0.63677329 0.13443567
v 0.26752758 -0.53676212 -0.10665829
v 0.26752758 -0.54067212 -0.10294828
v 0.25827643 -0.43780312 -0.17210297
v 0.28879064 -0.56164688 -0.06997554
v 0.28708836 -0.51062721 -0.05984595
v 0.34913772 -0.24384040 -0.21367396
v 0.42496499 -0.03987825 0.10060720
v 0.28238571 0.18059172 -0.07068548
v 0.29769021 0.17246266 -0.11460284
v 0.15976651 0.24006456 -0.11749115
v 0.29488757 0.17416789 -0.09510828
v 0.34065348 -0.77330428 -0.04950374
v 0.31761819 -0.77940458 0.08752243
v 0.35377565 -0.77109659 0.05394045
v 0.29920700 -0.66226912 -0.03780085
v 0.32949987 -0.71661592 0.06945348
v 0.30787936 -0.61878622 -0.05915827
v 0.29461285 -0.51291174 -0.01595035
v 0.31111947 -0.58847493 0.07120376
v 0.32851815 -0.35239148 -0.13583916
v 0.30150342 -0.57484400 -0.05154664
v 0.28442845 -0.52187878 0.22025888
v 0.31934267 -0.45734552 -0.06870718
v 0.33356398 -0.69191384 0.07461773
v 0.31720927 -0.44509852 0.03092956
v 0.28485617 -0.50208730 0.14981373
v 0.29742473 -0.45141122 0.20471758
v 0.32887137 -0.33997959 0.05664545
v 0.47017360 -0.33942586 -0.13311094
v 0.31280065 -0.32071167 -0.17814720
v 0.46924007 -0.25802261 -0.20451187
v 0.39344254 -0.23221108 -0.15066223
v 0.35138887 -0.27355760 -0.02454704
v 0.40204066 -0.10095116 0.09696299
v 0.28943017 -0.11536868 0.16980147
v 0.30685791 -0.01824363 -0.24911848
v 0.41107363 -0.15809470 -0.19417633
v 0.31926584 -0.78430462 -0.06053393
v 0.27353102 0.11496273 0.07513314
v 0.37657896 -0.18828431 -0.00457324
v 0.36607945 0.03322146 0.10950894
v 0.30441290 0.16932264 -0.10462100
v 0.29491782 0.17419036 -0.08679131
v 0.46812275 -0.32381079 0.00745382
v 0.68662131 -0.61630529 -0.04455142
v 0.31409556 -0.41901016 -0.07667406
v 0.49018002 -0.34534952 -0.16148716
v 0.48627758 -0.34145209 -0.16141829
v 0.43495169 -0.29677850 -0.09071980
v 0.46474558 -0.34046507 -0.00188485
v 0.32228208 -0.43245086 0.00684023
v 0.33158916 -0.36031628 0.08029441
v 0.36149567 -0.17057270 0.02256373
v 0.39843765 -0.20612769 -0.17992036
v 0.35912076 -0.05009280 -0.24680883
v 0.39114487 -0.07204144 0.11000491
v 0.33004984 -0.16523634 0.09787502
v 0.37723163 -0.15830444 0.04627397
v 0.21338277 0.21850985 -0.11718087
v 0.44762564 -0.32763466 -0.12237713
v 0.37723956 -0.25569651 -0.14577419
v 0.33572984 -0.31916356 -0.09731101
v 0.39348778 -0.21667120 -0.06843363
v 0.29466560 -0.02789571 0.18520764
v 0.40799490 -0.18324810 -0.20422836
v 0.37791955 0.06988849 -0.19383338
v 0.50418866 0.06775996 -0.17132860
v 0.36460495 0.14005584 -0.02049401
v 0.31719229 0.13275318 0.04910431
v 0.49328071 -0.34854102 -0.16160315
v 0.50898403 -0.31178755 -0.20283927
v 0.39695305 -0.24421465 -0.09200384
v 0.39686096 0.06695497 0.07060816
v 0.37772974 0.07257649 -0.20470043
v 0.43463740 0.12339132 -0.03437275
v 0.45964199 0.11465024 -0.03090457
v 0.43000743 -0.29381064 -0.02496132
v 0.47438553 -0.28288516 -0.18464093
v 0.53189456 -0.38978350 -0.16158958
v 0.50393760 -0.36469686 -0.03908719
v 0.44463173 -0.15239222 -0.23825522
v 0.44706392 -0.27035093 0.03735925
v 0.40368894 -0.17509414 0.04607094
v 0.43627888 -0.03483201 -0.24359371
v 0.50548953 0.02143646 -0.21353017
v 0.50169551 -0.09804363 -0.23219794
v 0.40945676 0.11885359 -0.12435094
v 0.51382571 0.08808454 -0.00749050
v 0.43026677 -0.26693246 -0.15766737
v 0.58148617 -0.42935356 -0.15268804
v 0.46790984 -0.34476131 -0.05038365
v 0.50382549 -0.29161999 0.04716693
v 0.52925277 -0.27886471 -0.20052643
v 0.51963919 -0.21244219 0.06510999
v 0.48310712 0.06546596 0.05385655
v 0.49437869 -0.34532025 -0.16548955
v 0.57248187 -0.45112973 -0.01126292
v 0.51911640 -0.10794125 -0.23150901
v 0.45431510 -0.12489452 0.07810910
v 0.49753031 0.07071654 -0.15043861
v 0.47535914 0.10983713 -0.05715689
v 0.44773129 0.10714941 -0.12588137
v 0.49956134 0.06282729 0.03800644
v 0.54248631 -0.31453717 0.06125364
v 0.56988549 -0.47654709 -0.06217476
v 0.60294110 -0.55306005 -0.05032414
v 0.46928501 -0.10898829 0.08639217
v 0.54977107 -0.09144962 -0.20780253
v 0.54698926 -0.11668444 0.06493798
v 0.52271861 0.01599862 -0.19258292
v 0.55186975 -0.00700683 0.02343908
v 0.51482010 -0.03287834 0.05998891
v 0.49957997 -0.03181450 0.07876667
v 0.57584846 0.01318438 -0.09401779
v 0.50318050 0.05288364 -0.10773803
v 0.57247949 -0.50322211 0.02412743
v 0.53482240 -0.40971121 -0.00171328
v 0.60485268 -0.34952077 0.08840710
v 0.60367948 -0.32384917 0.08260309
v 0.51209563 -0.20434043 0.07539875
v 0.54892540 -0.07965755 0.04554696
v 0.58541262 -0.51404959 -0.07401922
v 0.56035608 -0.00519506 -0.01377471
v 0.70331174 -0.38410515 -0.15905349
v 0.62380761 -0.45771688 -0.16555659
v 0.59087056 -0.46622398 0.06155098
v 0.56533772 -0.21616143 -0.20374089
v 0.60709316 -0.22973664 0.05458520
v 0.57024866 -0.07305574 -0.17898372
v 0.63133347 -0.21583873 -0.16084993
v 0.76762491 -0.58828408 -0.07381019
v 0.56974173 -0.04578098 -0.17350471
v 0.58699125 -0.01875870 -0.03798692
v 0.59148085 -0.08180835 -0.00512630
v 0.61981577 -0.09773274 -0.07679534
v 0.58945823 -0.45914510 0.05094140
v 0.61046809 -0.51563305 0.01161933
v 0.61858630 -0.50531608 0.00864132
v 0.63829815 -0.45675808 -0.16321552
v 0.63566023 -0.41168085 0.06843841
v 0.68432707 -0.28647652 -0.01260222
v 0.78301996 -0.55614221 0.18383841
v 0.62289381 -0.14496148 -0.12761983
v 0.59415036 -0.11715916 0.02697599
v 0.73088330 -0.67551553 0.07684049
v 0.75425887 -0.42312250 -0.14548227
v 0.56108773 0.02129658 -0.08419987
v 0.64546585 -0.13980897 -0.07979619
v 0.70410353 -0.63693541 -0.04053602
v 0.71618092 -0.49126717 -0.15303555
v 0.65941530 -0.29795381 0.00261891
v 0.64625812 -0.27644503 0.05546562
v 0.62668025 -0.12308911 -0.01588051
v 0.68034595 -0.43374050 0.05933347
v 0.68331856 -0.25541160 -0.02006508
v 0.66293877 -0.25130048 0.00807398
v 0.69021833 -0.28738502 -0.15474433
v 0.58370245 -0.20563360 -0.18439573
v 0.68734044 -0.62850744 0.06662039
v 0.71167934 -0.53146523 -0.14069313
v 0.68678838 -0.42231932 0.04709994
v 0.69017255 -0.27170336 -0.10677832
v 0.72345388 -0.33131146 -0.06239418
v 0.73289800 -0.37382960 0.03533554
v 0.75765997 -0.55519819 0.15518594
v 0.67318261 -0.36177289 -0.17797899
v 0.75772065 -0.43039814 -0.12777990
v 0.69757336 -0.28681988 -0.04968454
v 0.74630851 -0.64463145 0.13789026
v 0.83637911 -0.67942262 0.01856305
v 0.77837515 -0.49584177 0.13752113
v 0.71724069 -0.36338407 -0.13142553
v 0.76315773 -0.36845207 -0.05150054
v 0.73084360 -0.37811375 0.02748761
v 0.85375345 -0.74754602 0.12062445
v 0.82299274 -0.66431147 0.25143111
v 0.80574977 -0.56426644 -0.08013681
v 0.89101040 -0.71733046 0.09004138
v 0.84222823 -0.71623164 0.07520736
v 0.88852388 -0.58920199 0.23793176
v 0.82528961 -0.47376293 0.09967896
v 0.78350562 -0.45929915 0.12001763
v 0.77513576 -0.36546123 -0.05571184
v 0.86546916 -0.77193266 0.23966320
v 0.79802728 -0.67133904 0.21100318
v 0.84660107 -0.48554578 0.02965975
v 0.82507110 -0.73064560 0.16399877
v 0.85766947 -0.52905995 -0.00645046
v 0.82801926 -0.73561954 0.17938648
v 0.85178417 -0.51137698 0.14492142
v 0.91496456 -0.70466560 0.08552936
v 0.89150608 -0.77488005 0.19294697
v 0.86458927 -0.69693935 0.29011387
v 0.88878572 -0.63855243 0.25249049
v 0.83441281 -0.56882697 -0.03946705
v 0.91736656 -0.61445314 0.20803620
v 0.87695175 -0.56555349 0.21413806
v 0.90041924 -0.60107857 0.05999150
v 0.84752339 -0.46870947 0.05029798
v 0.88325030 -0.54898125 0.09978329
v 0.92835939 -0.74244404 0.15717435
v 0.92023855 -0.58390647 0.10436853
v 0.85943753 -0.57998180 0.22550596
v 0.93300116 -0.69101679 0.13154908
v 0.94915879 -0.66207713 0.12744470
v 0.97227693 -0.68464392 0.26067930
v 0.94415915 -0.62648040 0.15120712
v 0.94466192 -0.61569977 0.18159752
v 0.98173159 -0.73759186 0.20913710
f 1 3 5
f 9 5 3
f 2 19 4
f 19 2 10
f 10 2 3
f 3 2 4
f 1 10 3
f 1 13 10
f 8 5 11
f 11 5 7
f 1 5 8
f 5 9 7
f 1 6 13
f 6 1 8
f 14 9 3
f 16 3 4
f 10 17 19
f 12 19 17
f 4 19 16
f 17 37 11
f 11 12 17
f 7 12 11
f 8 11 37
f 14 3 16
f 22 13 6
f 8 18 6
f 22 6 18
f 14 27 9
f 13 49 10
f 9 27 7
f 18 8 25
f 20 21 206
f 40 19 12
f 45 16 19
f 19 40 45
f 10 49 42
f 23 35 14
f 16 23 14
f 25 8 50
f 22 18 38
f 41 18 25
f 14 35 27
f 28 29 30
f 31 32 33
f 7 40 12
f 17 10 42
f 45 40 36
f 42 37 17
f 22 49 13
f 16 45 23
f 27 54 7
f 37 50 8
f 27 35 54
f 26 38 18
f 25 39 41
f 41 26 18
f 46 47 21
f 49 22 38
f 29 24 30
f 54 48 7
f 23 44 35
f 39 25 50
f 54 35 34
f 38 26 66
f 15 33 51
f 24 29 41
f 15 51 39
f 28 30 52
f 41 39 24
f 24 39 30
f 41 29 32
f 34 35 44
f 31 33 15
f 52 30 51
f 30 39 51
f 41 32 31
f 32 28 52
f 32 29 28
f 33 52 51
f 41 31 15
f 32 52 33
f 48 36 40
f 7 48 40
f 37 42 50
f 74 49 38
f 54 34 67
f 34 44 55
f 66 26 56
f 55 61 34
f 34 61 67
f 26 41 15
f 26 15 56
f 49 113 42
f 57 45 36
f 113 49 74
f 45 57 23
f 39 50 53
f 53 64 39
f 101 54 67
f 64 60 39
f 56 15 69
f 42 113 53
f 57 36 63
f 36 48 63
f 72 23 57
f 50 42 53
f 63 54 101
f 38 66 74
f 54 63 48
f 23 72 102
f 101 67 112
f 39 60 15
f 56 80 66
f 66 80 76
f 69 15 68
f 68 15 60
f 55 59 61
f 67 61 106
f 56 69 80
f 61 81 106
f 44 23 102
f 53 71 64
f 55 44 102
f 60 64 71
f 55 102 65
f 59 55 65
f 67 103 112
f 67 106 103
f 61 59 81
f 77 78 79
f 129 80 104
f 105 80 69
f 104 80 105
f 106 81 82
f 83 84 85
f 71 53 113
f 79 78 87
f 88 93 72
f 78 72 93
f 20 120 21
f 102 72 89
f 91 89 77
f 89 72 77
f 102 89 91
f 92 102 75
f 77 72 78
f 57 63 72
f 83 85 94
f 70 92 95
f 90 87 83
f 78 93 87
f 92 77 95
f 90 70 87
f 70 95 87
f 87 93 84
f 90 83 94
f 95 79 87
f 102 91 75
f 91 77 75
f 75 77 92
f 91 77 79
f 95 91 79
f 95 77 91
f 90 92 70
f 92 90 102
f 83 87 84
f 90 94 73
f 88 72 73
f 98 99 100
f 85 84 96
f 94 85 88
f 85 96 88
f 96 97 88
f 97 93 88
f 94 88 73
f 84 97 96
f 93 97 84
f 74 66 113
f 149 66 76
f 102 90 126
f 81 59 119
f 81 119 82
f 105 69 114
f 90 73 126
f 126 73 63
f 72 63 73
f 109 107 140
f 101 131 63
f 149 113 66
f 110 111 109
f 60 71 144
f 109 108 110
f 119 59 152
f 76 129 127
f 129 76 80
f 114 69 68
f 115 123 116
f 82 119 118
f 120 20 121
f 82 174 106
f 123 108 63
f 140 116 123
f 110 108 123
f 126 108 109
f 122 100 99
f 115 110 123
f 63 108 126
f 107 116 140
f 107 115 116
f 126 109 140
f 63 131 123
f 111 115 107
f 111 110 115
f 140 123 131
f 111 107 109
f 100 124 125
f 101 112 158
f 65 102 126
f 59 65 128
f 68 60 144
f 68 144 117
f 114 68 117
f 112 103 135
f 103 106 135
f 105 114 130
f 153 129 137
f 104 137 129
f 105 137 104
f 135 106 230
f 105 139 137
f 106 174 230
f 105 130 139
f 71 113 149
f 101 158 131
f 65 126 128
f 149 76 127
f 152 59 128
f 112 135 158
f 118 138 82
f 82 138 174
f 71 149 144
f 121 20 143
f 146 144 149
f 150 145 133
f 126 140 141
f 127 142 149
f 132 146 150
f 146 149 150
f 150 149 147
f 149 142 147
f 145 155 133
f 155 145 142
f 128 185 152
f 160 117 144
f 118 119 170
f 146 132 155
f 127 129 153
f 161 127 153
f 114 117 134
f 119 152 170
f 118 170 138
f 150 147 145
f 132 133 155
f 144 146 43
f 145 147 142
f 146 142 43
f 128 126 141
f 140 131 141
f 132 150 133
f 146 155 142
f 144 43 160
f 156 206 148
f 127 161 142
f 185 128 141
f 124 157 143
f 157 121 143
f 46 202 47
f 152 185 170
f 114 194 130
f 114 134 194
f 135 230 136
f 137 139 172
f 138 162 174
f 192 43 161
f 168 43 192
f 169 131 158
f 169 141 131
f 141 62 185
f 43 142 161
f 62 141 169
f 160 43 189
f 134 117 160
f 125 143 206
f 170 162 138
f 153 137 172
f 130 194 171
f 230 159 136
f 139 130 175
f 43 168 189
f 46 121 202
f 121 46 120
f 189 134 160
f 185 249 170
f 135 136 158
f 194 134 151
f 214 130 171
f 177 197 86
f 121 157 122
f 157 124 122
f 21 182 206
f 125 156 98
f 125 124 143
f 203 164 165
f 125 206 156
f 100 125 98
f 165 186 47
f 202 165 47
f 122 168 202
f 99 148 168
f 122 124 100
f 167 168 148
f 120 46 21
f 202 121 122
f 206 143 20
f 21 47 187
f 21 187 182
f 186 187 47
f 148 99 156
f 156 99 98
f 167 148 206
f 185 62 183
f 179 183 62
f 168 167 189
f 167 201 189
f 122 99 168
f 192 202 168
f 182 186 164
f 206 182 164
f 192 161 318
f 189 151 134
f 204 158 190
f 190 158 136
f 318 161 153
f 194 151 195
f 170 249 162
f 214 194 195
f 171 194 214
f 242 174 162
f 139 175 217
f 86 166 177
f 163 166 86
f 166 218 58
f 58 177 166
f 198 58 231
f 58 218 231
f 86 197 176
f 181 176 197
f 199 197 177
f 199 184 197
f 197 184 220
f 58 198 178
f 220 181 197
f 179 58 178
f 181 200 278
f 200 181 220
f 200 180 256
f 179 178 222
f 222 183 179
f 167 200 220
f 167 206 180
f 167 180 200
f 167 220 221
f 62 235 179
f 165 202 203
f 203 206 164
f 164 186 165
f 187 186 182
f 62 169 235
f 201 151 189
f 183 188 185
f 169 158 204
f 235 169 204
f 249 185 188
f 190 136 191
f 228 153 172
f 228 172 173
f 228 173 211
f 211 193 210
f 173 172 193
f 211 173 193
f 210 193 212
f 210 213 211
f 210 212 213
f 217 172 139
f 175 130 214
f 166 163 218
f 86 176 163
f 163 316 218
f 278 243 181
f 177 58 257
f 198 219 178
f 58 179 257
f 257 179 235
f 222 178 281
f 201 167 221
f 154 206 203
f 201 237 151
f 192 154 202
f 202 154 203
f 205 223 224
f 223 204 208
f 225 205 224
f 209 224 226
f 205 204 223
f 225 224 209
f 224 223 226
f 223 208 226
f 204 205 225
f 226 208 209
f 190 207 204
f 209 208 207
f 208 204 207
f 209 207 190
f 259 195 151
f 228 318 153
f 211 213 228
f 212 193 227
f 229 215 227
f 213 227 215
f 229 228 215
f 136 159 191
f 215 228 213
f 193 172 227
f 227 213 212
f 228 229 318
f 227 172 229
f 229 172 238
f 195 291 214
f 243 176 181
f 176 243 280
f 163 176 277
f 257 233 177
f 184 199 317
f 219 234 178
f 178 234 281
f 278 200 256
f 281 183 222
f 206 256 180
f 206 258 256
f 183 281 188
f 201 221 237
f 236 154 192
f 192 318 236
f 225 209 190
f 320 190 191
f 286 191 159
f 238 318 229
f 195 259 291
f 217 238 172
f 159 266 296
f 214 291 368
f 242 266 174
f 174 266 230
f 239 240 241
f 159 230 266
f 218 316 231
f 231 244 198
f 317 199 247
f 219 198 244
f 234 219 244
f 317 246 184
f 188 281 255
f 258 206 154
f 255 249 188
f 151 237 259
f 225 190 320
f 162 249 242
f 175 295 217
f 250 253 196
f 275 305 288
f 232 199 177
f 176 280 277
f 316 244 231
f 282 246 317
f 279 234 244
f 258 278 256
f 233 257 245
f 257 235 363
f 235 204 225
f 154 236 258
f 249 255 260
f 246 362 237
f 262 320 191
f 239 263 264
f 241 263 239
f 264 261 287
f 263 261 264
f 287 240 264
f 262 240 320
f 262 241 240
f 261 191 287
f 263 241 191
f 262 191 241
f 239 264 240
f 287 320 240
f 261 263 191
f 249 289 242
f 300 303 265
f 294 286 159
f 214 368 175
f 294 159 296
f 175 368 297
f 242 216 266
f 295 175 251
f 251 253 250
f 252 267 272
f 252 272 254
f 272 267 271
f 288 306 275
f 306 254 275
f 305 250 196
f 305 298 250
f 298 305 312
f 275 312 305
f 275 254 333
f 163 277 472
f 177 233 361
f 361 233 245
f 199 232 247
f 257 363 245
f 280 243 278
f 234 279 281
f 279 244 336
f 362 246 282
f 235 225 363
f 283 284 285
f 237 388 259
f 191 286 287
f 269 290 283
f 292 302 290
f 268 325 296
f 295 293 217
f 266 268 296
f 216 268 266
f 268 216 267
f 175 326 251
f 326 253 251
f 268 267 252
f 284 270 299
f 270 300 299
f 251 328 295
f 269 265 303
f 267 216 271
f 273 303 300
f 270 273 300
f 328 251 250
f 285 265 269
f 265 285 299
f 306 303 252
f 302 292 304
f 273 196 303
f 196 253 303
f 196 270 284
f 196 284 302
f 283 285 269
f 292 269 303
f 284 283 302
f 285 284 299
f 196 302 304
f 269 292 290
f 265 299 300
f 196 273 270
f 290 302 283
f 304 292 303
f 304 303 288
f 307 308 332
f 305 196 304
f 304 288 305
f 298 328 250
f 252 254 306
f 352 298 330
f 309 310 311
f 272 346 254
f 298 312 330
f 308 314 309
f 254 346 333
f 275 333 313
f 329 275 313
f 276 329 313
f 315 314 307
f 314 308 307
f 308 311 332
f 313 314 315
f 309 314 310
f 315 332 276
f 276 313 315
f 332 315 307
f 347 313 333
f 247 232 361
f 177 361 232
f 317 247 334
f 278 258 360
f 319 255 281
f 236 365 258
f 258 365 399
f 363 225 320
f 388 237 362
f 255 377 260
f 249 260 289
f 291 259 323
f 322 286 294
f 291 323 368
f 238 217 408
f 216 242 351
f 326 175 297
f 252 325 268
f 325 252 303
f 253 326 303
f 288 303 306
f 271 216 351
f 298 352 328
f 346 272 271
f 310 313 347
f 332 311 331
f 311 310 331
f 308 309 311
f 331 310 347
f 314 313 310
f 331 347 332
f 276 332 347
f 244 316 336
f 334 282 317
f 336 375 279
f 360 386 278
f 281 279 366
f 362 282 357
f 399 360 258
f 319 281 366
f 259 388 359
f 320 274 349
f 339 340 341
f 320 338 274
f 323 259 359
f 287 286 322
f 287 322 320
f 274 341 342
f 351 242 289
f 303 326 297
f 295 328 293
f 329 276 337
f 275 329 337
f 333 346 354
f 276 347 337
f 396 275 337
f 356 330 312
f 312 275 355
f 312 355 356
f 334 247 364
f 335 248 163
f 472 335 163
f 336 316 416
f 361 364 247
f 386 280 278
f 282 334 357
f 366 279 375
f 348 343 341
f 343 348 338
f 363 320 389
f 349 340 350
f 274 338 348
f 274 342 349
f 389 320 349
f 341 274 348
f 340 339 350
f 338 339 343
f 350 338 451
f 343 341 340
f 342 343 340
f 342 341 343
f 343 339 341
f 349 342 340
f 320 322 338
f 338 350 339
f 451 349 350
f 260 377 289
f 323 393 368
f 393 297 368
f 393 294 296
f 408 217 293
f 303 297 393
f 296 325 393
f 393 325 303
f 354 346 382
f 330 356 372
f 327 352 330
f 355 275 396
f 347 333 397
f 277 280 386
f 375 336 493
f 387 245 363
f 365 236 367
f 236 318 367
f 359 388 477
f 318 238 367
f 322 451 338
f 393 391 322
f 391 451 322
f 294 393 322
f 248 390 163
f 393 369 391
f 271 351 383
f 381 370 371
f 328 352 293
f 346 271 383
f 346 383 382
f 330 372 327
f 385 337 347
f 356 355 442
f 361 245 324
f 364 361 444
f 493 336 416
f 334 364 373
f 360 473 386
f 357 334 373
f 248 335 406
f 255 319 419
f 377 255 419
f 357 388 362
f 389 349 451
f 321 367 238
f 393 323 379
f 369 378 345
f 378 370 345
f 369 393 378
f 293 352 408
f 408 352 424
f 347 397 385
f 372 356 442
f 316 163 390
f 316 390 416
f 444 361 324
f 277 386 472
f 373 388 357
f 319 366 443
f 389 358 363
f 399 365 367
f 419 446 377
f 289 377 446
f 389 451 421
f 323 359 423
f 289 446 523
f 391 369 345
f 378 381 371
f 381 378 393
f 345 381 453
f 453 391 345
f 381 345 370
f 370 378 371
f 407 393 379
f 453 381 393
f 380 351 289
f 393 407 301
f 383 351 344
f 327 436 352
f 436 327 372
f 396 337 412
f 410 337 385
f 354 382 415
f 385 397 468
f 354 415 333
f 397 333 415
f 395 355 396
f 248 406 390
f 406 335 390
f 335 472 390
f 472 386 506
f 324 245 387
f 386 473 506
f 373 417 388
f 388 417 418
f 398 473 360
f 360 399 398
f 400 401 402
f 363 358 387
f 374 389 376
f 376 389 421
f 400 404 405
f 389 374 403
f 403 401 405
f 401 400 405
f 358 389 403
f 405 404 403
f 401 374 402
f 401 403 374
f 376 400 402
f 403 404 358
f 402 374 376
f 376 404 400
f 421 404 376
f 321 399 367
f 379 323 423
f 408 392 238
f 408 528 392
f 393 301 458
f 351 486 344
f 425 344 455
f 424 352 436
f 344 425 383
f 383 353 382
f 436 372 442
f 427 464 353
f 413 412 337
f 396 412 395
f 353 415 382
f 441 468 397
f 415 441 397
f 395 442 355
f 364 444 492
f 373 364 417
f 375 493 476
f 366 375 443
f 399 321 521
f 419 319 443
f 404 421 358
f 477 522 359
f 238 526 321
f 392 526 238
f 391 453 451
f 453 393 458
f 344 486 456
f 528 424 457
f 528 408 424
f 457 424 501
f 411 301 488
f 353 383 428
f 413 410 385
f 337 410 413
f 433 438 439
f 364 492 445
f 364 445 417
f 387 475 324
f 474 506 473
f 495 474 473
f 375 476 443
f 388 418 477
f 414 447 423
f 448 449 450
f 414 449 452
f 414 452 447
f 452 448 422
f 380 289 570
f 380 486 351
f 460 437 464
f 407 459 301
f 459 501 301
f 301 409 458
f 301 484 426
f 456 455 344
f 488 301 426
f 430 428 425
f 464 427 460
f 488 489 411
f 493 416 420
f 383 425 428
f 428 427 353
f 424 384 501
f 384 424 436
f 430 427 428
f 427 463 429
f 463 437 429
f 463 427 430
f 463 430 437
f 460 427 429
f 430 425 437
f 437 460 429
f 425 464 437
f 487 353 464
f 440 439 467
f 353 487 415
f 469 465 434
f 467 465 466
f 434 465 470
f 413 385 468
f 434 412 534
f 469 471 465
f 434 534 469
f 412 413 534
f 487 441 415
f 469 432 471
f 432 433 440
f 490 395 469
f 432 440 471
f 432 395 412
f 440 433 439
f 440 467 466
f 438 412 434
f 433 432 438
f 432 412 438
f 467 439 470
f 439 438 470
f 465 467 470
f 395 432 469
f 465 471 466
f 471 440 466
f 470 438 434
f 395 490 442
f 495 473 398
f 477 418 496
f 398 399 521
f 443 537 419
f 490 436 442
f 479 359 422
f 479 422 448
f 359 414 423
f 359 522 499
f 449 454 450
f 449 414 454
f 450 454 479
f 447 422 423
f 452 422 447
f 454 359 479
f 448 450 479
f 414 359 454
f 449 448 452
f 523 570 289
f 453 482 451
f 301 501 484
f 462 409 544
f 409 462 458
f 409 456 544
f 459 457 501
f 455 456 409
f 301 461 409
f 301 411 461
f 489 461 411
f 425 455 464
f 464 455 489
f 426 490 488
f 464 489 487
f 384 436 490
f 534 413 435
f 441 487 468
f 489 468 487
f 490 469 534
f 420 416 390
f 390 472 494
f 493 420 491
f 508 444 324
f 476 493 509
f 387 358 475
f 497 495 498
f 495 398 498
f 480 358 421
f 522 477 496
f 483 480 421
f 359 499 422
f 453 458 573
f 451 482 421
f 573 482 453
f 485 407 379
f 456 486 544
f 484 501 384
f 459 407 485
f 461 455 409
f 528 457 593
f 593 457 459
f 488 435 394
f 489 455 461
f 484 384 490
f 426 484 490
f 489 488 394
f 503 504 505
f 490 435 488
f 394 468 489
f 394 413 468
f 413 394 435
f 390 494 420
f 472 506 494
f 492 444 508
f 494 506 507
f 509 493 549
f 507 506 474
f 551 507 474
f 417 445 556
f 551 474 495
f 476 509 510
f 513 514 515
f 358 512 475
f 516 517 515
f 519 514 516
f 514 539 516
f 510 443 476
f 418 417 556
f 398 521 498
f 443 510 537
f 512 358 480
f 419 537 564
f 446 419 564
f 569 483 421
f 482 569 421
f 423 422 499
f 569 482 527
f 572 420 494
f 570 486 380
f 529 502 530
f 573 458 462
f 531 532 533
f 542 531 577
f 593 459 485
f 490 534 435
f 519 495 497
f 508 324 475
f 491 549 493
f 538 516 539
f 516 538 517
f 445 492 556
f 514 535 539
f 514 536 535
f 513 536 514
f 519 513 515
f 515 519 516
f 519 515 514
f 555 510 509
f 513 519 497
f 535 498 539
f 519 517 538
f 517 519 515
f 535 536 497
f 497 498 535
f 536 513 497
f 495 519 538
f 537 510 552
f 496 418 556
f 446 564 525
f 586 522 520
f 521 321 540
f 321 526 540
f 525 523 446
f 598 423 499
f 589 526 392
f 379 423 598
f 379 598 603
f 485 379 603
f 544 543 502
f 542 544 502
f 542 462 544
f 532 531 542
f 533 545 576
f 572 491 420
f 494 507 546
f 492 508 548
f 507 551 548
f 475 512 508
f 549 555 509
f 492 553 556
f 538 551 495
f 550 512 552
f 551 538 539
f 518 551 539
f 552 512 559
f 560 561 556
f 510 555 552
f 556 553 560
f 539 498 557
f 539 557 518
f 518 585 553
f 553 585 560
f 496 556 561
f 557 498 554
f 537 580 564
f 498 521 554
f 512 562 559
f 562 512 480
f 522 586 500
f 522 500 499
f 540 526 589
f 562 483 567
f 569 527 590
f 527 482 573
f 528 608 392
f 608 528 593
f 530 576 545
f 542 577 602
f 542 502 529
f 602 573 462
f 530 502 543
f 577 531 533
f 529 530 545
f 545 533 532
f 544 486 543
f 530 543 576
f 576 543 621
f 532 542 529
f 529 545 532
f 576 577 533
f 602 577 576
f 602 462 542
f 494 546 572
f 572 546 548
f 547 572 548
f 508 547 548
f 507 548 546
f 491 550 549
f 572 550 491
f 572 547 550
f 550 547 508
f 552 555 549
f 492 548 558
f 550 508 512
f 548 551 558
f 550 552 549
f 503 581 582
f 553 492 558
f 558 551 553
f 553 551 518
f 580 537 552
f 518 557 585
f 552 559 580
f 580 559 562
f 585 557 554
f 560 585 586
f 596 580 562
f 503 630 504
f 560 586 520
f 580 596 564
f 521 540 554
f 586 585 500
f 480 483 562
f 591 587 567
f 567 483 591
f 500 431 499
f 599 540 589
f 523 525 570
f 591 483 569
f 590 591 569
f 589 392 608
f 603 598 575
f 486 570 600
f 609 607 573
f 621 486 600
f 593 485 610
f 602 609 573
f 543 486 621
f 576 621 602
f 593 610 636
f 605 613 630
f 554 595 585
f 567 596 562
f 554 540 595
f 567 597 596
f 606 585 595
f 500 585 606
f 564 596 525
f 540 566 595
f 500 606 574
f 540 599 566
f 499 568 598
f 500 574 592
f 581 505 604
f 431 500 592
f 587 591 590
f 431 592 568
f 431 568 499
f 590 527 541
f 527 573 541
f 607 541 573
f 600 570 524
f 608 593 636
f 606 595 566
f 525 596 588
f 504 604 505
f 597 588 596
f 587 597 567
f 597 587 617
f 571 570 525
f 568 641 598
f 570 571 524
f 599 589 618
f 598 641 575
f 589 608 618
f 603 575 629
f 606 594 611
f 606 566 565
f 565 594 606
f 583 623 588
f 588 597 583
f 611 574 606
f 597 617 578
f 616 574 611
f 565 566 599
f 574 616 592
f 588 571 525
f 481 571 588
f 617 587 633
f 633 587 590
f 592 616 568
f 618 615 599
f 524 571 481
f 590 541 633
f 575 647 629
f 637 541 607
f 608 636 601
f 609 602 621
f 607 609 637
f 610 603 629
f 610 485 603
f 503 582 605
f 612 583 563
f 594 565 605
f 583 597 578
f 611 625 584
f 611 584 616
f 612 588 623
f 612 623 583
f 599 615 565
f 588 612 481
f 594 605 582
f 617 628 578
f 628 617 633
f 616 641 568
f 615 618 632
f 641 647 575
f 646 633 541
f 618 608 619
f 619 608 601
f 637 646 541
f 609 621 649
f 649 621 634
f 635 637 609
f 613 604 630
f 604 504 630
f 630 503 605
f 613 594 604
f 503 505 581
f 625 611 594
f 581 594 582
f 581 604 594
f 583 578 614
f 612 563 627
f 565 615 632
f 616 626 654
f 616 654 641
f 633 655 628
f 620 524 481
f 618 619 632
f 524 644 600
f 644 634 600
f 621 600 634
f 609 649 635
f 622 610 629
f 649 681 635
f 636 610 622
f 639 563 583
f 639 583 614
f 614 578 639
f 639 578 631
f 651 584 625
f 584 651 616
f 563 624 627
f 638 578 628
f 612 627 692
f 612 692 481
f 620 481 692
f 661 565 632
f 643 641 654
f 643 647 641
f 655 633 646
f 642 632 666
f 524 620 644
f 666 632 619
f 666 619 601
f 649 634 644
f 645 629 647
f 648 601 636
f 635 681 637
f 681 657 637
f 645 622 629
f 563 639 624
f 613 656 594
f 625 594 656
f 656 651 625
f 631 578 638
f 616 651 626
f 660 626 651
f 638 628 653
f 661 605 565
f 654 652 686
f 692 663 620
f 632 642 661
f 643 654 678
f 628 655 662
f 620 663 644
f 647 643 645
f 678 645 643
f 646 657 655
f 601 648 666
f 657 646 637
f 681 649 644
f 622 648 636
f 645 648 622
f 650 511 671
f 650 656 511
f 640 639 631
f 631 670 640
f 650 651 656
f 650 660 651
f 670 631 638
f 626 660 652
f 670 638 653
f 626 652 654
f 653 628 662
f 654 686 678
f 677 663 692
f 662 655 668
f 661 642 666
f 655 657 668
f 667 645 678
f 657 681 668
f 644 663 681
f 648 645 667
f 672 640 670
f 656 613 659
f 639 640 624
f 640 673 624
f 650 671 660
f 672 670 695
f 670 674 695
f 670 653 674
f 613 605 700
f 605 661 664
f 691 700 605
f 605 664 691
f 664 661 666
f 678 686 687
f 666 682 664
f 677 681 663
f 677 669 681
f 682 666 648
f 687 667 678
f 682 648 667
f 668 681 669
f 687 682 667
f 694 656 659
f 700 659 613
f 660 671 688
f 652 660 688
f 627 624 658
f 674 653 685
f 686 652 675
f 627 658 692
f 685 653 662
f 685 662 690
f 677 692 696
f 697 682 687
f 668 690 662
f 668 669 690
f 656 694 511
f 693 640 672
f 684 640 579
f 511 683 679
f 671 511 679
f 511 694 683
f 684 673 640
f 478 671 679
f 672 695 699
f 700 694 659
f 708 674 685
f 624 673 658
f 708 695 674
f 698 652 688
f 698 675 652
f 686 675 689
f 702 685 690
f 658 696 692
f 664 682 691
f 687 686 689
f 702 677 696
f 677 702 669
f 702 690 669
f 689 697 687
f 640 693 579
f 693 672 699
f 684 579 665
f 680 694 700
f 684 658 673
f 700 691 706
f 696 658 702
f 708 685 702
f 706 691 697
f 682 697 691
f 697 689 675
f 703 693 699
f 688 478 676
f 688 671 478
f 716 688 676
f 699 708 705
f 658 684 701
f 695 708 699
f 680 700 706
f 702 658 707
f 708 702 707
f 698 697 675
f 579 693 713
f 719 693 703
f 704 679 683
f 721 693 719
f 711 704 683
f 699 719 703
f 683 694 711
f 684 665 729
f 684 729 701
f 680 711 694
f 688 716 698
f 707 658 701
f 717 706 697
f 715 708 707
f 697 698 717
f 680 706 717
f 693 721 713
f 679 704 709
f 679 723 478
f 710 478 723
f 478 710 676
f 699 737 719
f 699 705 737
f 716 676 724
f 711 680 722
f 715 705 708
f 701 720 707
f 707 720 715
f 733 717 698
f 733 698 716
f 680 717 722
f 712 665 579
f 709 723 679
f 721 719 718
f 665 712 729
f 579 713 712
f 727 718 719
f 714 676 710
f 705 715 737
f 676 714 731
f 724 676 731
f 729 720 701
f 733 722 717
f 716 724 733
f 713 721 712
f 709 726 723
f 726 721 718
f 726 718 723
f 710 723 718
f 710 718 727
f 727 719 737
f 727 737 728
f 704 711 725
f 734 715 720
f 709 704 725
f 709 725 726
f 712 721 726
f 729 712 732
f 710 727 714
f 714 727 728
f 725 711 722
f 729 732 720
f 736 722 733
f 732 734 720
f 736 733 724
f 730 737 715
f 736 724 731
f 715 734 730
f 726 725 735
f 712 726 738
f 726 735 738
f 725 722 739
f 740 728 730
f 732 712 738
f 728 737 730
f 714 728 740
f 714 740 742
f 722 736 739
f 732 741 734
f 714 742 736
f 736 731 714
f 730 734 741
f 735 743 738
f 739 743 735
f 735 725 739
f 741 732 738
f 742 739 736
f 740 730 741
f 743 741 738
f 743 739 740
f 740 739 742
f 743 740 741
f 221 184 246
f 220 184 221
f 221 246 237
f 520 522 496
f 520 496 561
f 560 520 561

