# https://github.com/mikedh/trimesh
v 0.09585626 0.03315461 0.03955401
v 0.09585626 0.03105558 0.03953581
v 0.09795633 0.02685032 0.03953581
v 0.09795633 0.02894936 0.03953581
v 0.09585626 0.03525364 0.03953126
v 0.09375221 0.03725204 0.03949486
v 0.09585626 0.02894936 0.03950395
v 0.09795633 0.02474410 0.03950851
v 0.10006039 0.01845419 0.03946755
v 0.10006039 0.02054603 0.03947210
v 0.09795633 0.03105558 0.03944935
v 0.09585626 0.03725204 0.03945390
v 0.09174397 0.03725204 0.03900798
v 0.09375221 -0.03409354 0.03797963
v 0.09585626 -0.03198731 0.03843465
v 0.09890256 -0.02686912 0.03868491
v 0.10216445 0.00373220 0.03903073
v 0.10216445 0.00583842 0.03906713
v 0.10347000 0.00373220 0.03884872
v 0.09902233 -0.02686912 0.03868491
v 0.10161747 0.02054603 0.03907623
v 0.10006039 0.02264507 0.03937655
v 0.10344605 0.00583842 0.03884872
v 0.10180113 0.01845419 0.03910354
v 0.09962920 0.02894936 0.03909898
v 0.09942158 0.03105558 0.03901708
v 0.09795633 0.03315461 0.03928554
v 0.09750917 0.03725204 0.03903528
v 0.09128882 0.03725204 0.03861666
v 0.09189169 -0.03618538 0.03719699
v 0.09375221 -0.03618538 0.03792503
v 0.09376818 -0.03618538 0.03792957
v 0.09585626 -0.03409354 0.03835275
v 0.10112240 -0.01842267 0.03868491
v 0.10321847 -0.00997622 0.03868036
v 0.10345803 0.00163316 0.03882142
v 0.10451205 0.00163316 0.03795687
v 0.10452004 0.00373220 0.03794322
v 0.09796033 -0.03198731 0.03827994
v 0.09796033 -0.03409354 0.03795232
v 0.09920599 -0.03618538 0.03677836
v 0.09968110 -0.03198731 0.03725614
v 0.10141385 0.02264507 0.03895338
v 0.10320251 0.01313472 0.03867581
v 0.10313463 0.01424893 0.03863486
v 0.10300687 0.01634797 0.03851200
v 0.10449608 0.00583842 0.03788862
v 0.10339015 0.00793745 0.03881687
v 0.10331429 0.01003649 0.03876682
v 0.10325441 0.01173297 0.03872131
v 0.09919401 0.03315461 0.03884872
v 0.09808010 0.03518895 0.03905803
v 0.09905428 0.03444135 0.03873042
v 0.09886263 0.03584310 0.03839370
v 0.09858715 0.03725204 0.03773391
v 0.09056618 0.03725204 0.03794778
v 0.09083367 -0.03618538 0.03621413
v 0.09585626 -0.03618538 0.03799328
v 0.09587224 -0.03618538 0.03799328
v 0.10195284 -0.02147777 0.03743815
v 0.10395709 -0.01307445 0.03740175
v 0.10394911 -0.01079570 0.03779307
v 0.10539041 -0.00467113 0.03678292
v 0.10443220 -0.00256490 0.03789317
v 0.10448011 -0.00046587 0.03792503
v 0.10345404 0.00130249 0.03881687
v 0.10551817 0.00130249 0.03690122
v 0.10552215 0.00163316 0.03690577
v 0.10554212 0.00373220 0.03689212
v 0.09796033 -0.03618538 0.03747455
v 0.09962121 -0.03618538 0.03551340
v 0.10020811 -0.03409354 0.03552250
v 0.10121423 -0.03136192 0.03479446
v 0.10076707 -0.03203763 0.03550430
v 0.10094673 -0.03024771 0.03619593
v 0.10111043 -0.02884595 0.03658270
v 0.10146975 -0.02568303 0.03696492
v 0.10171330 -0.02358399 0.03721064
v 0.10124218 0.02430560 0.03881232
v 0.10285116 0.01845419 0.03827539
v 0.10444018 0.00793745 0.03779307
v 0.10551417 0.00583842 0.03683752
v 0.10544231 0.00793745 0.03674196
v 0.10537044 0.00963393 0.03665096
v 0.10406489 0.01424893 0.03758376
v 0.10386926 0.01634797 0.03746090
v 0.10107449 0.02570736 0.03864851
v 0.10338616 0.02054603 0.03686937
v 0.10324642 0.02172494 0.03664186
v 0.09930580 0.03518895 0.03767021
v 0.09912614 0.03669853 0.03699677
v 0.10111043 0.02999887 0.03656905
v 0.09867099 0.03725204 0.03753370
v 0.09017091 0.03725204 0.03746545
v 0.09012301 -0.03618538 0.03516303
v 0.10535048 -0.00606569 0.03669191
v 0.10372552 -0.01518067 0.03715604
v 0.10465578 -0.01518067 0.03552250
v 0.10576570 -0.00256490 0.03552250
v 0.10583357 -0.00046587 0.03552250
v 0.10548224 -0.00046587 0.03687847
v 0.10543432 -0.00256490 0.03683752
v 0.10586552 0.00130249 0.03552705
v 0.10586950 0.00163316 0.03552705
v 0.10585753 0.00373220 0.03552705
v 0.09974897 -0.03618538 0.03342939
v 0.10048759 -0.03409354 0.03342939
v 0.10097867 -0.03261272 0.03342939
v 0.10181311 -0.02988109 0.03342939
v 0.10240001 -0.02778206 0.03342939
v 0.10331829 -0.02295860 0.03473986
v 0.10350593 -0.02147777 0.03512663
v 0.10300288 -0.02147777 0.03617773
v 0.10315060 -0.02017666 0.03647805
v 0.10331030 -0.01877491 0.03669646
v 0.10348198 -0.01728689 0.03688757
v 0.10362571 0.01845419 0.03722429
v 0.10579764 0.00583842 0.03552705
v 0.10531056 0.01103569 0.03653720
v 0.10463182 0.01634797 0.03552705
v 0.10416071 0.01845419 0.03552705
v 0.10366164 0.02054603 0.03552705
v 0.10330631 0.02195497 0.03552705
v 0.10032789 0.03315461 0.03552705
v 0.09903431 0.03725204 0.03552705
v 0.10139789 0.02916501 0.03573181
v 0.10116632 0.03020734 0.03516758
v 0.10091878 0.03096213 0.03573181
v 0.08906100 0.03725204 0.03558165
v 0.08902107 -0.03618538 0.03339754
v 0.10567388 -0.00467113 0.03552250
v 0.10495522 -0.01307445 0.03552250
v 0.10425253 -0.01728689 0.03552250
v 0.10462783 -0.01728689 0.03342939
v 0.10495522 -0.01518067 0.03342939
v 0.10588947 -0.00467113 0.03342939
v 0.10591343 -0.00256490 0.03342939
v 0.10591343 -0.00046587 0.03342939
v 0.10588148 0.00130249 0.03342484
v 0.10587350 0.00163316 0.03342484
v 0.09936968 -0.03618538 0.02928412
v 0.10031591 -0.03409354 0.03132263
v 0.10090281 -0.03246175 0.03132263
v 0.10127811 -0.03141224 0.03132263
v 0.10180912 -0.02988109 0.03132263
v 0.10243195 -0.02778206 0.03132263
v 0.10321448 -0.02464070 0.03238739
v 0.10295098 -0.02547456 0.03322008
v 0.10314262 -0.02436035 0.03378886
v 0.10422059 -0.01937874 0.03342939
v 0.10370956 -0.01943625 0.03567721
v 0.10581362 0.00373220 0.03342484
v 0.10574174 0.00583842 0.03342484
v 0.10564593 0.00793745 0.03342484
v 0.10567388 0.00793745 0.03552705
v 0.10545827 0.01021620 0.03570906
v 0.10537444 0.01169702 0.03513118
v 0.10525466 0.01229367 0.03570906
v 0.10501910 0.01424893 0.03552705
v 0.10505504 0.01424893 0.03342484
v 0.10464780 0.01634797 0.03342484
v 0.10420463 0.01845419 0.03342484
v 0.10372952 0.02054603 0.03342484
v 0.10334624 0.02218500 0.03342484
v 0.10309870 0.02322733 0.03342484
v 0.10272340 0.02474410 0.03342484
v 0.10218841 0.02685032 0.03342484
v 0.10123419 0.03040862 0.03342484
v 0.10091479 0.03145813 0.03342484
v 0.09887461 0.03725204 0.03325193
v 0.10126613 0.03042299 0.03132263
v 0.10163344 0.02894936 0.03342484
v 0.06512583 0.03725204 -0.00693120
v 0.08847809 -0.03618538 0.03241469
v 0.10514686 -0.01307445 0.03342939
v 0.10436832 -0.01728689 0.03132263
v 0.10470369 -0.01518067 0.03132263
v 0.10321448 -0.02464070 0.03236009
v 0.10496321 -0.01307445 0.03132263
v 0.10571779 -0.00467113 0.03132263
v 0.10572179 -0.00256490 0.03132263
v 0.10542634 -0.00046587 0.02937968
v 0.10544231 0.00130249 0.02988021
v 0.09911816 -0.03618538 0.02712276
v 0.10010032 -0.03409354 0.02921587
v 0.10118628 -0.03116064 0.02978920
v 0.10145378 -0.03003205 0.02913852
v 0.10131803 -0.02947854 0.02712276
v 0.10119027 -0.02909755 0.02557568
v 0.10210456 -0.02778206 0.02921587
v 0.10256770 -0.02568303 0.02921587
v 0.10295098 -0.02547456 0.03152284
v 0.10335023 -0.02362712 0.03322008
v 0.10539839 0.00163316 0.02961629
v 0.10554611 0.00373220 0.03132263
v 0.10522671 0.00373220 0.02884275
v 0.10533451 0.00524897 0.03012592
v 0.10537044 0.01003649 0.03194601
v 0.10533451 0.01135917 0.03220083
v 0.10551417 0.01003649 0.03342484
v 0.10537843 0.01174734 0.03342484
v 0.10527862 0.01279686 0.03342484
v 0.10486739 0.01424893 0.03132263
v 0.10444817 0.01634797 0.03132263
v 0.10401698 0.01845419 0.03132263
v 0.10307475 0.02303324 0.03132263
v 0.10271142 0.02474410 0.03132263
v 0.10223631 0.02685032 0.03132263
v 0.10170531 0.02894936 0.03132263
v 0.09764492 0.03725204 0.02293200
v 0.10120624 0.03022890 0.02966180
v 0.09901834 0.03423288 0.02390575
v 0.08286061 0.03725204 -0.00693120
v 0.07525086 0.00130249 -0.00693120
v 0.06861928 -0.03618538 -0.00583915
v 0.10356183 -0.01728689 0.02501600
v 0.10364168 -0.01518067 0.02291379
v 0.10444018 -0.01518067 0.02921587
v 0.10418067 -0.01307445 0.02501600
v 0.10470369 -0.01307445 0.02921587
v 0.10312265 -0.02412313 0.03096316
v 0.10319053 -0.02029886 0.02624912
v 0.10486739 -0.00887638 0.02712276
v 0.10533051 -0.00381570 0.02806466
v 0.10533051 -0.00306810 0.02806466
v 0.10487936 -0.00046587 0.02501600
v 0.09875085 -0.03618538 0.02483854
v 0.09911416 -0.03545216 0.02542098
v 0.09924592 -0.03581877 0.02712276
v 0.10107848 -0.03083716 0.02838318
v 0.09982084 -0.03409354 0.02712276
v 0.10017617 -0.03198731 0.02501600
v 0.09983681 -0.03198731 0.02291379
v 0.10050356 -0.02988109 0.02291379
v 0.10107449 -0.02867343 0.02417421
v 0.10176120 -0.02778206 0.02712276
v 0.10221635 -0.02568303 0.02712276
v 0.10321847 -0.01837954 0.02390575
v 0.10461186 -0.00046587 0.02291379
v 0.10480750 0.00163316 0.02502055
v 0.10481947 0.00130249 0.02501600
v 0.10499914 0.00373220 0.02711821
v 0.10509895 0.00793745 0.02922042
v 0.10523070 0.01003649 0.03089491
v 0.10517481 0.01209239 0.03143184
v 0.10500313 0.01003649 0.02922042
v 0.10457993 0.01424893 0.02922042
v 0.10418865 0.01634797 0.02922042
v 0.10322646 0.02168181 0.03014412
v 0.10204867 0.02685032 0.02922042
v 0.10145378 0.02913625 0.02906571
v 0.09739339 0.03725204 0.02112100
v 0.09856719 0.03506674 0.02309125
v 0.10109844 0.02995574 0.02825577
v 0.09890256 0.03383752 0.02250427
v 0.09816394 0.03525364 0.02082069
v 0.08329579 0.03725204 -0.00646708
v 0.08867372 0.03040862 -0.00353218
v 0.08896917 0.02894936 -0.00380974
v 0.08633810 0.03193257 -0.00538412
v 0.08433784 0.03315461 -0.00693120
v 0.09036255 0.00130249 -0.00693120
v 0.08461732 -0.03618538 -0.00583915
v 0.10331829 -0.01717907 0.02309580
v 0.10325041 -0.01640990 0.02166248
v 0.10335023 -0.01509441 0.02090259
v 0.10391317 -0.01307445 0.02291379
v 0.10439228 -0.01097541 0.02501600
v 0.10457993 -0.00887638 0.02501600
v 0.10430045 -0.00046587 0.02081614
v 0.09830368 -0.03618538 0.02290469
v 0.09899838 -0.03511430 0.02401495
v 0.10014024 -0.02988109 0.02081614
v 0.10068322 -0.02778206 0.02081614
v 0.10101061 -0.02625810 0.02081614
v 0.10185702 -0.02568303 0.02501600
v 0.10290706 -0.01919903 0.02309580
v 0.10423657 0.00130249 0.02081614
v 0.10454000 0.00130249 0.02291379
v 0.10470369 0.01003649 0.02711821
v 0.10485540 0.01214271 0.02922042
v 0.10461586 0.00583842 0.02502055
v 0.10451205 0.00793745 0.02502055
v 0.10322646 0.01748374 0.02386479
v 0.10424056 0.01424893 0.02711821
v 0.10330631 0.01787911 0.02502055
v 0.10219639 0.02054603 0.02082069
v 0.10344205 0.01857639 0.02704086
v 0.10376146 0.01845419 0.02922042
v 0.10247986 0.02474410 0.02922042
v 0.10219639 0.02474410 0.02711821
v 0.10204867 0.02264507 0.02292290
v 0.10188896 0.02474410 0.02502055
v 0.10172527 0.02685032 0.02711821
v 0.10129009 0.02853243 0.02711821
v 0.09736544 0.03725204 0.02094354
v 0.09877879 0.03314024 0.02073423
v 0.09769682 0.03525364 0.01871393
v 0.09714984 0.03674885 0.01871393
v 0.09725365 0.03725204 0.02034746
v 0.09896644 0.03196852 0.01997889
v 0.08426997 0.03725204 -0.00541143
v 0.08904103 0.03315461 -0.00185314
v 0.09001920 0.02894936 -0.00264488
v 0.09039050 0.02685032 -0.00309080
v 0.08934047 0.02685032 -0.00417376
v 0.08658962 0.03053082 -0.00563439
v 0.08466922 0.03223449 -0.00693120
v 0.09036255 0.00157566 -0.00693120
v 0.09170404 -0.00677016 -0.00583915
v 0.09158028 -0.00887638 -0.00583915
v 0.09139263 -0.01097541 -0.00583915
v 0.09113311 -0.01307445 -0.00583915
v 0.09078976 -0.01518067 -0.00583915
v 0.09056618 -0.01651054 -0.00583915
v 0.09023080 -0.01840829 -0.00583915
v 0.08964790 -0.02147777 -0.00583915
v 0.08922469 -0.02358399 -0.00583915
v 0.08885338 -0.02511514 -0.00583915
v 0.08872961 -0.02556082 -0.00583915
v 0.08868969 -0.02568303 -0.00583915
v 0.08817066 -0.02714229 -0.00583915
v 0.08714059 -0.02988109 -0.00583915
v 0.08676529 -0.03086591 -0.00583915
v 0.08646586 -0.03164946 -0.00583915
v 0.08553959 -0.03400009 -0.00583915
v 0.08613447 -0.03409354 -0.00514296
v 0.08839824 -0.03278524 -0.00324096
v 0.08811477 -0.03409354 -0.00289514
v 0.08668944 -0.03571814 -0.00368689
v 0.08601470 -0.03618538 -0.00421471
v 0.10294299 -0.01717907 0.02090259
v 0.10311467 -0.01573418 0.02025646
v 0.10113038 -0.02472696 0.01968313
v 0.10325041 -0.01433243 0.01962852
v 0.10358978 -0.01307445 0.02081614
v 0.10409283 -0.01097541 0.02291379
v 0.10422459 -0.00887638 0.02291379
v 0.10372952 -0.01097541 0.02081614
v 0.10317456 -0.01097541 0.01786303
v 0.10384131 -0.00046587 0.01871393
v 0.10380538 0.00130249 0.01871393
v 0.10365765 0.00583842 0.01871393
v 0.09886263 -0.03478363 0.02291379
v 0.09724566 -0.03618538 0.01872758
v 0.09910618 -0.03328843 0.02147592
v 0.09938964 -0.03208077 0.02079339
v 0.09917405 -0.03135473 0.01871393
v 0.09967311 -0.02988109 0.01871393
v 0.10023207 -0.02778206 0.01871393
v 0.10412078 0.00373220 0.02082069
v 0.10438029 0.01003649 0.02502055
v 0.10420862 0.00793745 0.02292290
v 0.10389321 0.00793745 0.02082069
v 0.10451605 0.01214271 0.02711821
v 0.10404493 0.01003649 0.02292290
v 0.10401299 0.00583842 0.02082069
v 0.10220437 0.01845419 0.01871393
v 0.10256370 0.01845419 0.02082069
v 0.10331030 0.01634797 0.02339612
v 0.10416071 0.01214271 0.02502055
v 0.10387724 0.01424893 0.02502055
v 0.10184904 0.02054603 0.01871393
v 0.10172527 0.02264507 0.02082069
v 0.10313463 0.02121456 0.02873810
v 0.10129009 0.02432717 0.02082069
v 0.09933375 0.03118497 0.02073423
v 0.09696618 0.03641818 0.01747171
v 0.10101061 0.02335672 0.01811785
v 0.10121822 0.02196216 0.01732610
v 0.09898640 0.02994136 0.01774018
v 0.09832364 0.03105558 0.01661172
v 0.09713387 0.03516020 0.01670727
v 0.09627149 0.03725204 0.01670727
v 0.09671865 0.03725204 0.01821795
v 0.09686238 0.03725204 0.01871393
v 0.09701410 0.03725204 0.01928271
v 0.10116232 0.02388148 0.01951932
v 0.10135397 0.02265944 0.01878218
v 0.08511239 0.03725204 -0.00444678
v 0.08871764 0.03472170 -0.00148457
v 0.09039849 0.03155158 -0.00095674
v 0.09064203 0.03014983 -0.00131166
v 0.09082968 0.02894936 -0.00158923
v 0.09114110 0.02685032 -0.00203970
v 0.09056218 0.02566422 -0.00330467
v 0.08893324 0.02264507 -0.00589375
v 0.08868570 0.02427685 -0.00563439
v 0.08845813 0.02567141 -0.00541143
v 0.08826249 0.02685032 -0.00522487
v 0.08492873 0.03147970 -0.00693120
v 0.08686111 0.02894936 -0.00589375
v 0.09015495 0.00780806 -0.00693120
v 0.09239874 -0.00677016 -0.00504285
v 0.09311340 0.00793745 -0.00378244
v 0.09314135 0.00583842 -0.00382794
v 0.09231091 -0.00887638 -0.00496095
v 0.09220311 -0.01097541 -0.00482900
v 0.09485414 -0.01237717 -0.00131166
v 0.09410355 -0.01308164 -0.00212615
v 0.09279001 -0.01464154 -0.00345482
v 0.09267023 -0.01603610 -0.00330467
v 0.09049031 -0.01937874 -0.00531132
v 0.09031065 -0.02147777 -0.00505196
v 0.09010703 -0.02358399 -0.00473344
v 0.08878152 -0.02568303 -0.00575724
v 0.08857391 -0.02694101 -0.00553428
v 0.08636205 -0.03293619 -0.00540687
v 0.08830641 -0.02834276 -0.00523397
v 0.09042244 -0.03254083 -0.00097949
v 0.08901708 -0.03409354 -0.00183949
v 0.08867771 -0.03138349 -0.00353673
v 0.08955207 -0.03195856 -0.00228541
v 0.08866973 -0.03548810 -0.00145272
v 0.08732824 -0.03618538 -0.00264943
v 0.10243993 -0.01728689 0.01871393
v 0.10076308 -0.02552488 0.01887774
v 0.10017218 -0.02568303 0.01661172
v 0.10125415 -0.02110397 0.01708949
v 0.10200874 -0.01937874 0.01871393
v 0.10107848 -0.02026292 0.01570167
v 0.10121423 -0.01886117 0.01521480
v 0.10101061 -0.01773977 0.01381332
v 0.10224430 -0.01518067 0.01661172
v 0.10259964 -0.01307445 0.01661172
v 0.10305478 -0.01307445 0.01826345
v 0.10288311 -0.01097541 0.01661172
v 0.10330631 -0.01307445 0.01931456
v 0.10232415 -0.01097541 0.01452316
v 0.10338616 -0.00046587 0.01703944
v 0.10344205 0.00130249 0.01734886
v 0.10335023 0.00373220 0.01716685
v 0.10333426 0.00583842 0.01726240
v 0.10328236 0.00793745 0.01744896
v 0.10354187 0.00793745 0.01871393
v 0.09667473 -0.03618538 0.01647976
v 0.09875883 -0.03241144 0.01871393
v 0.09903032 -0.03098812 0.01759912
v 0.09917006 -0.02970857 0.01678463
v 0.09967311 -0.02778206 0.01661172
v 0.09962121 -0.02568303 0.01452316
v 0.10370157 0.01003649 0.02082069
v 0.10286314 0.01634797 0.02082069
v 0.10317456 0.01291906 0.01997434
v 0.10326639 0.01151731 0.01945562
v 0.10334624 0.00991428 0.01874123
v 0.10313463 0.01053249 0.01805869
v 0.10322646 0.00913074 0.01760367
v 0.10166937 0.01845419 0.01661172
v 0.10345803 0.01442145 0.02273634
v 0.10340612 0.01218584 0.02073423
v 0.10133800 0.02041664 0.01662537
v 0.09673861 0.03579278 0.01607479
v 0.09513362 0.03526802 0.01030054
v 0.09468246 0.03597249 0.00959525
v 0.09492202 0.03653319 0.01099673
v 0.09498989 0.03725204 0.01242095
v 0.10099464 0.02102047 0.01593373
v 0.09895845 0.02345018 0.01152455
v 0.09691828 0.02585831 0.00712903
v 0.09708596 0.02667780 0.00834849
v 0.09765290 0.02685032 0.01031874
v 0.09694623 0.02803642 0.00913113
v 0.09946950 0.02701566 0.01645246
v 0.09770081 0.03315461 0.01661172
v 0.09577642 0.03315461 0.01031874
v 0.08628619 0.03725204 -0.00304530
v 0.08842219 0.03612345 -0.00115695
v 0.09009106 0.03315461 -0.00054722
v 0.09063405 0.03431915 0.00079965
v 0.09170005 0.02894936 -0.00019230
v 0.09228695 0.02703722 -0.00017865
v 0.09248258 0.02474410 -0.00089304
v 0.09264628 0.02350049 -0.00116150
v 0.09283393 0.02209874 -0.00142997
v 0.08920872 0.02054603 -0.00622592
v 0.08854197 0.02054603 -0.00693120
v 0.09302157 0.02054603 -0.00169843
v 0.09222307 0.02054603 -0.00274954
v 0.09072987 0.02425528 -0.00350033
v 0.09025476 0.02054603 -0.00506106
v 0.08918476 0.01813790 -0.00693120
v 0.08787921 0.02264507 -0.00693120
v 0.08721246 0.02685032 -0.00623047
v 0.08579112 0.02890622 -0.00693120
v 0.09007509 0.01000054 -0.00693120
v 0.09679052 -0.00046587 0.00103171
v 0.09748921 -0.00467113 0.00216472
v 0.09488209 -0.01097541 -0.00135716
v 0.09312538 -0.00887638 -0.00390530
v 0.09419538 0.00583842 -0.00261758
v 0.09504179 0.00583842 -0.00156193
v 0.08996730 0.01214271 -0.00693120
v 0.09302956 0.01003649 -0.00371419
v 0.09416344 0.00793745 -0.00258118
v 0.09304553 -0.01097541 -0.00377334
v 0.09536519 -0.01308164 -0.00036066
v 0.09475433 -0.01377892 -0.00117060
v 0.09256244 -0.01728689 -0.00315451
v 0.09235882 -0.01937874 -0.00284964
v 0.09308545 -0.01937874 -0.00180309
v 0.09083367 -0.02358399 -0.00368233
v 0.09051028 -0.02634437 -0.00321366
v 0.08993136 -0.02566146 -0.00425111
v 0.09066200 -0.03113908 -0.00132986
v 0.08895320 -0.02988109 -0.00385979
v 0.09109718 -0.03190105 -0.00024691
v 0.09085763 -0.03371255 0.00041743
v 0.09059013 -0.03511430 0.00087245
v 0.09016692 -0.03428763 -0.00024691
v 0.08925264 -0.03618538 -0.00027421
v 0.08767958 -0.03618538 -0.00222171
v 0.09954934 -0.02358399 0.01241640
v 0.10009632 -0.02358399 0.01452316
v 0.10052751 -0.02147777 0.01452316
v 0.09996057 -0.02147777 0.01241640
v 0.10112639 -0.01633801 0.01341290
v 0.10198878 -0.01307445 0.01452316
v 0.10121423 -0.01060880 0.01107863
v 0.10204467 -0.00256490 0.01241640
v 0.10122621 -0.01518067 0.01313079
v 0.10139389 -0.01307445 0.01265756
v 0.10152964 -0.01116950 0.01221619
v 0.10268347 -0.00046587 0.01452316
v 0.10308273 0.00130249 0.01604749
v 0.10305478 0.00373220 0.01612484
v 0.10205665 -0.00046587 0.01241640
v 0.10300687 0.00583842 0.01622040
v 0.10293900 0.00793745 0.01639786
v 0.09615970 -0.03618538 0.01452316
v 0.09689033 -0.03510711 0.01562887
v 0.09742932 -0.03428044 0.01644336
v 0.09675059 -0.03471175 0.01452316
v 0.09714984 -0.03366223 0.01452316
v 0.09645913 -0.03397852 0.01252106
v 0.09696219 -0.03320217 0.01329460
v 0.09713787 -0.03187949 0.01252106
v 0.09902233 -0.02677567 0.01343565
v 0.09901435 -0.02464789 0.01134709
v 0.10107449 0.01048936 0.01148360
v 0.10051554 0.01214271 0.01031874
v 0.10098666 0.01214271 0.01175662
v 0.10132202 0.01214271 0.01280772
v 0.10224031 0.01424893 0.01661172
v 0.10195684 0.01634797 0.01661172
v 0.10131803 0.01613950 0.01449131
v 0.10101460 0.01669301 0.01376782
v 0.10122621 0.01845419 0.01521480
v 0.10113837 0.01962591 0.01549691
v 0.09491403 0.03457074 0.00901282
v 0.09039449 0.03572090 0.00126832
v 0.09338090 0.03725204 0.00808002
v 0.09348870 0.03725204 0.00828479
v 0.09432713 0.03725204 0.01028234
v 0.09434709 0.03725204 0.01034149
v 0.09476232 0.03725204 0.01168381
v 0.09870693 0.02270976 0.01037334
v 0.09703406 0.02474410 0.00687421
v 0.09651503 0.02474410 0.00582311
v 0.09623156 0.02667780 0.00629633
v 0.09481821 0.03214104 0.00714268
v 0.09671066 0.02725288 0.00772966
v 0.09795633 0.02264507 0.00821198
v 0.09902233 0.01537033 0.00713813
v 0.08718850 0.03725204 -0.00196235
v 0.08814272 0.03725204 -0.00074288
v 0.08893723 0.03725204 0.00032187
v 0.08955607 0.03522489 -0.00017865
v 0.09266624 0.03199727 0.00303836
v 0.09289781 0.03059552 0.00263794
v 0.09315732 0.02894936 0.00221022
v 0.09269020 0.02785671 0.00087245
v 0.09473437 0.02553483 0.00307022
v 0.09289781 0.02645496 0.00053573
v 0.09492202 0.02413308 0.00276990
v 0.09334896 0.02273133 -0.00035156
v 0.09396381 0.02054603 -0.00019230
v 0.08902506 0.01874173 -0.00693120
v 0.09437504 0.01862671 -0.00010130
v 0.09322520 0.01845419 -0.00196690
v 0.09243068 0.01845419 -0.00301800
v 0.09116905 0.02054603 -0.00400995
v 0.09092151 0.02264507 -0.00372329
v 0.09122893 0.01825291 -0.00451048
v 0.09045438 0.01881361 -0.00528402
v 0.09060211 0.01741186 -0.00545238
v 0.08944427 0.01680084 -0.00693120
v 0.09678652 0.00130249 0.00104991
v 0.09678652 0.00163316 0.00105446
v 0.09689033 0.00130249 0.00121372
v 0.09746924 -0.00256490 0.00211467
v 0.09843943 -0.00467113 0.00400756
v 0.09651902 -0.01307445 0.00171424
v 0.09500586 0.00793745 -0.00153007
v 0.09590418 0.00583842 -0.00019230
v 0.08979162 0.01424893 -0.00693120
v 0.09095345 0.01214271 -0.00583915
v 0.09408359 0.01003649 -0.00241737
v 0.08975968 0.01455085 -0.00693120
v 0.09082968 0.01424893 -0.00572084
v 0.09289381 0.01214271 -0.00358223
v 0.09688634 -0.01594984 0.00300651
v 0.09530530 -0.01518067 0.00008981
v 0.09461060 -0.01518067 -0.00096129
v 0.09271016 -0.02257761 -0.00126161
v 0.09105725 -0.02778206 -0.00192139
v 0.09437903 -0.01728689 -0.00060182
v 0.09081371 -0.02988109 -0.00155737
v 0.09170404 -0.02988109 -0.00019230
v 0.09254247 -0.02988109 0.00112726
v 0.09496593 -0.02927007 0.00480386
v 0.09292176 -0.03150569 0.00258334
v 0.09137266 -0.03428763 0.00170514
v 0.09091752 -0.03618538 0.00234218
v 0.09036255 -0.03618538 0.00130017
v 0.09913412 -0.02358399 0.01105133
v 0.09933375 -0.02147777 0.01055535
v 0.10031192 -0.01937874 0.01241640
v 0.10102658 -0.01307445 0.01160646
v 0.10087087 -0.01116950 0.01035059
v 0.10000450 -0.01097541 0.00821198
v 0.10143382 -0.00256490 0.01067366
v 0.10086688 -0.01518067 0.01208423
v 0.10263956 0.00130249 0.01452316
v 0.10141385 -0.00046587 0.01069186
v 0.10146177 0.00130249 0.01101493
v 0.10196882 0.00130249 0.01241640
v 0.10195284 0.00163316 0.01242095
v 0.10243195 0.00583842 0.01452316
v 0.10230019 0.00793745 0.01452316
v 0.09558478 -0.03618538 0.01242095
v 0.09673861 -0.03250489 0.01189312
v 0.09552089 -0.03618538 0.01220709
v 0.09502981 -0.03607037 0.01051440
v 0.09570455 -0.03409354 0.01031419
v 0.09879875 -0.02604964 0.01202963
v 0.09695421 -0.03110314 0.01121059
v 0.09645514 -0.03187949 0.01043250
v 0.09672264 -0.03033397 0.00981367
v 0.09693824 -0.02893222 0.00917663
v 0.09707399 -0.02757359 0.00836669
v 0.09690630 -0.02673254 0.00716088
v 0.09979688 0.01214271 0.00821198
v 0.10111841 0.00908761 0.01135165
v 0.10077505 0.00988553 0.01051895
v 0.09957729 0.01424893 0.00821198
v 0.10026002 0.01424893 0.01031874
v 0.10085091 0.01424893 0.01219344
v 0.09924592 0.01618263 0.00821198
v 0.09913013 0.01800850 0.00891272
v 0.09456268 0.03354279 0.00761135
v 0.08900510 0.03725204 0.00041743
v 0.08995132 0.03725204 0.00192356
v 0.09674260 0.02264507 0.00538629
v 0.09540511 0.02480161 0.00386651
v 0.09597604 0.02264507 0.00401211
v 0.09515358 0.02685032 0.00447169
v 0.09911416 0.01424893 0.00695157
v 0.09853924 0.01424893 0.00590046
v 0.09698216 0.01993501 0.00491761
v 0.09685839 0.02133676 0.00514967
v 0.09453474 0.02685032 0.00342058
v 0.09508970 0.02264507 0.00246503
v 0.09446287 0.02264507 0.00142303
v 0.09469444 0.02054603 0.00104991
v 0.09492202 0.01804444 0.00065859
v 0.09443492 0.01634797 -0.00062458
v 0.09481022 0.01112195 -0.00124796
v 0.09488608 0.01003649 -0.00136627
v 0.09259438 0.01634797 -0.00321821
v 0.09067796 0.01634797 -0.00554793
v 0.08981159 0.01634797 -0.00659904
v 0.08952812 0.01634797 -0.00693120
v 0.09671466 0.00583842 0.00118642
v 0.09739738 0.00130249 0.00210101
v 0.09742932 -0.00046587 0.00208281
v 0.09738940 0.00163316 0.00210557
v 0.09843544 -0.00256490 0.00400756
v 0.09896245 0.00373220 0.00519973
v 0.09582033 0.00793745 -0.00019230
v 0.09904230 -0.01433243 0.00710172
v 0.09716182 -0.01937874 0.00458089
v 0.09677055 -0.01728689 0.00318852
v 0.09598802 -0.01728689 0.00190536
v 0.09655096 -0.01937874 0.00352524
v 0.09506574 -0.01728689 0.00045383
v 0.09255046 -0.02397936 -0.00101590
v 0.09235482 -0.02568303 -0.00071558
v 0.09267822 -0.02874531 0.00089065
v 0.09516955 -0.02778206 0.00448079
v 0.09531727 -0.02993860 0.00603242
v 0.09470642 -0.03067182 0.00528163
v 0.09265027 -0.03290744 0.00306566
v 0.09485813 -0.03528682 0.00916298
v 0.09405963 -0.03618538 0.00835759
v 0.09871891 -0.02358399 0.01000022
v 0.09890655 -0.02147777 0.00950425
v 0.09912215 -0.01898337 0.00900827
v 0.09926987 -0.01728689 0.00868066
v 0.09992065 -0.01728689 0.01031419
v 0.10024804 -0.01518067 0.01031419
v 0.09932976 -0.01607204 0.00836214
v 0.09937368 -0.01509441 0.00810733
v 0.09971703 -0.01307445 0.00821198
v 0.09895446 0.00583842 0.00522248
v 0.09892252 0.00793745 0.00529528
v 0.10089882 0.00373220 0.00983187
v 0.10134997 0.00163316 0.01076011
v 0.10128210 0.00373220 0.01088297
v 0.10169732 0.00583842 0.01242095
v 0.09502582 -0.03618538 0.01064636
v 0.09494996 -0.03618538 0.01041430
v 0.09647112 -0.02568303 0.00590046
v 0.09686637 -0.02236914 0.00514057
v 0.09702607 -0.02096739 0.00485391
v 0.09921797 0.01214271 0.00667400
v 0.09913013 0.01397577 0.00691972
v 0.10078303 0.00793745 0.01020044
v 0.10084292 0.00583842 0.01001388
v 0.09642320 0.02060354 0.00413042
v 0.09528932 0.02054603 0.00209646
v 0.09872290 0.01214271 0.00562290
v 0.09782059 0.01214271 0.00401211
v 0.09683842 0.01488152 0.00307476
v 0.09711391 0.01845419 0.00468100
v 0.09695022 0.01347977 0.00287911
v 0.09505776 0.01634797 0.00042653
v 0.09705402 0.01214271 0.00271530
v 0.09522145 0.01424893 0.00016716
v 0.09560074 0.01003649 -0.00019230
v 0.09666675 0.00793745 0.00126377
v 0.09727361 0.00793745 0.00231488
v 0.09731353 0.00583842 0.00224207
v 0.09830768 0.00583842 0.00401211
v 0.09839152 0.00130249 0.00400756
v 0.09823581 0.00793745 0.00401211
v 0.09656694 0.01003649 0.00141848
v 0.09718977 0.01003649 0.00246503
v 0.09809208 0.01003649 0.00401211
v 0.09640324 -0.02159279 0.00409857
v 0.09525738 -0.02147777 0.00225572
v 0.09541709 -0.01940749 0.00175975
v 0.09284191 -0.02734356 0.00063584
v 0.09500985 -0.02358399 0.00263794
v 0.09469045 -0.02626530 0.00313847
v 0.09532925 -0.02561114 0.00390291
v 0.09419138 -0.03618538 0.00864425
v 0.09885864 0.01003649 0.00542724
v 0.10121822 0.00583842 0.01106498
v 0.09587623 -0.02358399 0.00400756
f 1 2 3
f 1 3 4
f 1 4 5
f 1 5 6
f 1 6 2
f 2 6 7
f 2 7 8
f 2 8 3
f 3 8 9
f 3 9 10
f 3 10 4
f 4 11 12
f 4 12 5
f 4 10 11
f 5 12 6
f 6 12 28
f 6 28 55
f 6 55 93
f 6 93 125
f 6 125 170
f 6 170 210
f 6 210 252
f 6 252 296
f 6 296 300
f 6 300 377
f 6 377 376
f 6 376 375
f 6 375 374
f 6 374 457
f 6 457 556
f 6 556 555
f 6 555 554
f 6 554 553
f 6 553 552
f 6 552 653
f 6 653 652
f 6 652 567
f 6 567 566
f 6 566 565
f 6 565 467
f 6 467 380
f 6 380 302
f 6 302 257
f 6 257 213
f 6 213 173
f 6 173 129
f 6 129 94
f 6 94 56
f 6 56 29
f 6 29 13
f 6 13 14
f 6 14 15
f 6 15 7
f 7 15 16
f 7 16 8
f 8 16 9
f 9 17 18
f 9 18 19
f 9 19 10
f 9 16 20
f 9 20 17
f 10 21 22
f 10 22 11
f 10 19 23
f 10 23 24
f 10 24 21
f 11 22 21
f 11 21 25
f 11 25 26
f 11 26 27
f 11 27 12
f 12 27 28
f 13 29 30
f 13 30 14
f 14 30 31
f 14 31 32
f 14 32 15
f 15 32 33
f 15 33 16
f 16 33 20
f 17 20 34
f 17 34 35
f 17 35 18
f 18 35 36
f 18 36 19
f 19 36 37
f 19 37 38
f 19 38 23
f 20 33 39
f 20 39 40
f 20 40 41
f 20 41 42
f 20 42 34
f 21 43 26
f 21 26 25
f 21 24 44
f 21 44 45
f 21 45 46
f 21 46 43
f 23 38 47
f 23 47 48
f 23 48 24
f 24 48 49
f 24 49 50
f 24 50 44
f 26 51 52
f 26 52 27
f 26 43 51
f 27 52 28
f 28 52 51
f 28 51 53
f 28 53 54
f 28 54 55
f 29 56 30
f 30 57 95
f 30 95 130
f 30 130 174
f 30 174 215
f 30 215 263
f 30 263 331
f 30 331 415
f 30 415 512
f 30 512 511
f 30 511 615
f 30 615 614
f 30 614 695
f 30 695 747
f 30 747 712
f 30 712 711
f 30 711 633
f 30 633 631
f 30 631 530
f 30 530 436
f 30 436 345
f 30 345 271
f 30 271 227
f 30 227 184
f 30 184 141
f 30 141 106
f 30 106 71
f 30 71 41
f 30 41 70
f 30 70 59
f 30 59 58
f 30 58 32
f 30 32 31
f 30 56 57
f 32 58 33
f 33 40 39
f 33 58 59
f 33 59 40
f 34 42 35
f 35 42 60
f 35 60 61
f 35 61 62
f 35 62 63
f 35 63 64
f 35 64 65
f 35 65 66
f 35 66 36
f 36 66 37
f 37 66 65
f 37 65 67
f 37 67 68
f 37 68 69
f 37 69 38
f 38 69 47
f 40 59 70
f 40 70 41
f 41 71 72
f 41 72 73
f 41 73 74
f 41 74 75
f 41 75 76
f 41 76 77
f 41 77 78
f 41 78 42
f 42 78 60
f 43 79 51
f 43 46 80
f 43 80 79
f 44 50 47
f 44 47 81
f 44 81 82
f 44 82 83
f 44 83 84
f 44 84 45
f 45 84 85
f 45 85 46
f 46 85 86
f 46 86 80
f 47 69 82
f 47 82 81
f 47 50 49
f 47 49 48
f 51 79 53
f 53 79 87
f 53 87 88
f 53 88 89
f 53 89 54
f 54 90 91
f 54 91 55
f 54 89 92
f 54 92 90
f 55 91 93
f 56 94 57
f 57 94 95
f 60 78 61
f 61 96 62
f 61 78 97
f 61 97 98
f 61 98 96
f 62 96 63
f 63 99 100
f 63 100 101
f 63 101 102
f 63 102 64
f 63 96 99
f 64 102 101
f 64 101 65
f 65 101 67
f 67 101 100
f 67 100 103
f 67 103 68
f 68 103 104
f 68 104 69
f 69 104 105
f 69 105 82
f 71 106 107
f 71 107 108
f 71 108 73
f 71 73 72
f 73 75 74
f 73 108 109
f 73 109 110
f 73 110 111
f 73 111 75
f 75 111 112
f 75 112 76
f 76 112 113
f 76 113 114
f 76 114 115
f 76 115 116
f 76 116 97
f 76 97 77
f 77 97 78
f 79 80 87
f 80 86 117
f 80 117 87
f 82 105 118
f 82 118 83
f 83 118 84
f 84 118 119
f 84 119 85
f 85 119 86
f 86 119 117
f 87 117 88
f 88 117 119
f 88 119 89
f 89 119 120
f 89 120 121
f 89 121 122
f 89 122 123
f 89 123 92
f 90 92 91
f 91 92 124
f 91 124 125
f 91 125 93
f 92 126 127
f 92 127 128
f 92 128 124
f 92 123 126
f 94 129 130
f 94 130 95
f 96 131 99
f 96 98 132
f 96 132 131
f 97 116 98
f 98 116 115
f 98 115 133
f 98 133 111
f 98 111 134
f 98 134 135
f 98 135 132
f 99 131 136
f 99 136 100
f 100 136 103
f 103 136 104
f 104 136 137
f 104 137 138
f 104 138 105
f 105 138 139
f 105 139 140
f 105 140 118
f 106 141 142
f 106 142 143
f 106 143 144
f 106 144 107
f 107 144 145
f 107 145 108
f 108 145 109
f 109 145 146
f 109 146 110
f 110 146 147
f 110 147 148
f 110 148 149
f 110 149 111
f 111 149 150
f 111 150 134
f 111 133 112
f 112 151 113
f 112 133 151
f 113 151 114
f 114 151 133
f 114 133 115
f 118 140 152
f 118 152 153
f 118 153 154
f 118 154 155
f 118 155 119
f 119 156 157
f 119 157 158
f 119 158 159
f 119 159 120
f 119 155 156
f 120 159 160
f 120 160 161
f 120 161 162
f 120 162 121
f 121 162 163
f 121 163 164
f 121 164 165
f 121 165 122
f 122 165 166
f 122 166 123
f 123 166 167
f 123 167 126
f 124 128 168
f 124 168 169
f 124 169 125
f 125 169 171
f 125 171 170
f 126 167 127
f 127 167 172
f 127 172 168
f 127 168 128
f 129 173 130
f 130 173 174
f 131 132 136
f 132 175 136
f 132 135 175
f 134 176 177
f 134 177 135
f 134 150 147
f 134 147 178
f 134 178 176
f 135 177 179
f 135 179 175
f 136 180 137
f 136 175 180
f 137 180 181
f 137 181 138
f 138 181 139
f 139 181 140
f 140 181 182
f 140 182 183
f 140 183 152
f 141 184 185
f 141 185 144
f 141 144 143
f 141 143 142
f 144 185 186
f 144 186 145
f 145 186 187
f 145 187 146
f 146 187 188
f 146 188 189
f 146 189 190
f 146 190 191
f 146 191 192
f 146 192 178
f 146 178 147
f 147 150 193
f 147 193 149
f 147 149 148
f 149 193 150
f 152 183 194
f 152 194 195
f 152 195 153
f 153 195 196
f 153 196 197
f 153 197 198
f 153 198 154
f 154 198 199
f 154 199 200
f 154 200 155
f 155 200 201
f 155 201 157
f 155 157 156
f 157 201 202
f 157 202 159
f 157 159 158
f 159 202 160
f 160 202 203
f 160 203 161
f 161 203 204
f 161 204 205
f 161 205 206
f 161 206 162
f 162 206 207
f 162 207 208
f 162 208 163
f 163 208 164
f 164 208 165
f 165 208 166
f 166 208 209
f 166 209 167
f 167 209 172
f 168 171 169
f 168 172 209
f 168 209 171
f 170 171 211
f 170 211 212
f 170 212 210
f 171 209 211
f 173 213 261
f 173 261 308
f 173 308 391
f 173 391 485
f 173 485 483
f 173 483 477
f 173 477 578
f 173 578 482
f 173 482 587
f 173 587 673
f 173 673 599
f 173 599 596
f 173 596 493
f 173 493 486
f 173 486 393
f 173 393 309
f 173 309 262
f 173 262 214
f 173 214 215
f 173 215 174
f 175 179 180
f 176 216 217
f 176 217 218
f 176 218 177
f 176 178 216
f 177 218 219
f 177 219 220
f 177 220 179
f 178 192 221
f 178 221 222
f 178 222 216
f 179 220 223
f 179 223 180
f 180 223 224
f 180 224 181
f 181 224 225
f 181 225 182
f 182 225 183
f 183 225 226
f 183 226 194
f 184 227 228
f 184 228 229
f 184 229 185
f 185 229 186
f 186 230 187
f 186 229 231
f 186 231 230
f 187 230 188
f 188 230 232
f 188 232 189
f 189 232 233
f 189 233 234
f 189 234 235
f 189 235 190
f 190 235 236
f 190 236 191
f 191 236 235
f 191 235 237
f 191 237 238
f 191 238 222
f 191 222 192
f 192 222 221
f 194 226 239
f 194 239 195
f 195 239 196
f 196 240 197
f 196 239 241
f 196 241 240
f 197 240 242
f 197 242 243
f 197 243 198
f 198 244 199
f 198 243 244
f 199 245 202
f 199 202 201
f 199 201 200
f 199 244 246
f 199 246 245
f 202 245 203
f 203 245 247
f 203 247 248
f 203 248 204
f 204 248 249
f 204 249 205
f 205 249 206
f 206 249 250
f 206 250 207
f 207 250 208
f 208 250 209
f 209 251 211
f 209 250 251
f 210 212 253
f 210 253 252
f 211 251 254
f 211 254 212
f 212 254 255
f 212 255 256
f 212 256 253
f 213 257 258
f 213 258 259
f 213 259 260
f 213 260 261
f 214 262 263
f 214 263 215
f 216 264 217
f 216 222 238
f 216 238 264
f 217 264 265
f 217 265 266
f 217 266 267
f 217 267 219
f 217 219 218
f 219 267 268
f 219 268 223
f 219 223 220
f 223 269 224
f 223 268 269
f 224 269 270
f 224 270 239
f 224 239 225
f 225 239 226
f 227 271 272
f 227 272 228
f 228 272 232
f 228 232 230
f 228 230 231
f 228 231 229
f 232 272 233
f 233 272 273
f 233 273 234
f 234 273 235
f 235 273 274
f 235 274 275
f 235 275 276
f 235 276 237
f 237 276 277
f 237 277 238
f 238 277 265
f 238 265 264
f 239 270 278
f 239 278 279
f 239 279 240
f 239 240 241
f 240 279 242
f 242 279 243
f 243 246 244
f 243 279 246
f 245 246 280
f 245 280 281
f 245 281 247
f 246 282 283
f 246 283 280
f 246 279 282
f 247 284 248
f 247 281 355
f 247 355 285
f 247 285 284
f 248 284 286
f 248 286 287
f 248 287 288
f 248 288 289
f 248 289 249
f 249 290 250
f 249 289 290
f 250 290 291
f 250 291 287
f 250 287 292
f 250 292 293
f 250 293 294
f 250 294 251
f 251 294 295
f 251 295 254
f 252 253 256
f 252 256 296
f 254 297 255
f 254 295 297
f 255 297 256
f 256 298 299
f 256 299 300
f 256 300 296
f 256 297 301
f 256 301 298
f 257 302 258
f 258 302 303
f 258 303 304
f 258 304 259
f 259 304 305
f 259 305 306
f 259 306 307
f 259 307 260
f 260 307 308
f 260 308 261
f 262 309 310
f 262 310 311
f 262 311 312
f 262 312 313
f 262 313 314
f 262 314 315
f 262 315 316
f 262 316 317
f 262 317 318
f 262 318 319
f 262 319 320
f 262 320 321
f 262 321 322
f 262 322 323
f 262 323 324
f 262 324 325
f 262 325 326
f 262 326 263
f 263 326 327
f 263 327 328
f 263 328 329
f 263 329 330
f 263 330 331
f 265 332 333
f 265 333 266
f 265 277 275
f 265 275 334
f 265 334 332
f 266 335 267
f 266 333 335
f 267 335 336
f 267 336 337
f 267 337 269
f 267 269 268
f 269 338 270
f 269 337 338
f 270 338 339
f 270 339 340
f 270 340 341
f 270 341 342
f 270 342 343
f 270 343 278
f 271 344 272
f 271 345 346
f 271 346 344
f 272 344 346
f 272 346 347
f 272 347 273
f 273 347 348
f 273 348 349
f 273 349 350
f 273 350 274
f 274 350 334
f 274 334 275
f 275 277 276
f 278 343 351
f 278 351 279
f 279 351 283
f 279 283 282
f 280 352 281
f 280 283 353
f 280 353 354
f 280 354 352
f 281 352 356
f 281 356 355
f 283 351 357
f 283 357 353
f 284 358 359
f 284 359 287
f 284 287 286
f 284 285 360
f 284 360 358
f 285 355 361
f 285 361 362
f 285 362 360
f 287 363 364
f 287 364 292
f 287 291 288
f 287 359 363
f 288 291 365
f 288 365 289
f 289 365 290
f 290 365 291
f 292 364 293
f 293 364 294
f 294 364 366
f 294 366 295
f 295 366 367
f 295 367 297
f 297 367 301
f 298 368 299
f 298 301 369
f 298 369 370
f 298 370 371
f 298 371 372
f 298 372 373
f 298 373 368
f 299 368 374
f 299 374 375
f 299 375 376
f 299 376 377
f 299 377 300
f 301 367 366
f 301 366 378
f 301 378 379
f 301 379 369
f 302 380 303
f 303 380 381
f 303 381 382
f 303 382 304
f 304 382 383
f 304 383 305
f 305 383 384
f 305 384 385
f 305 385 386
f 305 386 306
f 306 386 387
f 306 387 388
f 306 388 389
f 306 389 390
f 306 390 307
f 307 391 308
f 307 390 392
f 307 392 391
f 309 393 310
f 310 394 311
f 310 393 395
f 310 395 396
f 310 396 394
f 311 394 397
f 311 397 312
f 312 397 398
f 312 398 399
f 312 399 313
f 313 399 400
f 313 400 401
f 313 401 314
f 314 401 315
f 315 401 402
f 315 402 403
f 315 403 316
f 316 403 404
f 316 404 317
f 317 404 318
f 318 404 405
f 318 405 406
f 318 406 319
f 319 406 320
f 320 406 321
f 321 406 322
f 322 406 407
f 322 407 323
f 323 407 324
f 324 407 325
f 325 408 326
f 325 407 409
f 325 409 408
f 326 408 328
f 326 328 327
f 328 410 411
f 328 411 329
f 328 408 412
f 328 412 413
f 328 413 410
f 329 411 330
f 330 411 414
f 330 414 415
f 330 415 331
f 332 334 333
f 333 334 416
f 333 416 335
f 334 350 417
f 334 417 418
f 334 418 419
f 334 419 420
f 334 420 416
f 335 416 421
f 335 421 422
f 335 422 423
f 335 423 424
f 335 424 425
f 335 425 426
f 335 426 427
f 335 427 428
f 335 428 336
f 336 428 340
f 336 340 339
f 336 339 337
f 337 339 338
f 340 428 427
f 340 427 341
f 341 427 429
f 341 429 430
f 341 430 431
f 341 431 432
f 341 432 433
f 341 433 342
f 342 433 343
f 343 433 434
f 343 434 435
f 343 435 357
f 343 357 351
f 345 436 437
f 345 437 346
f 346 437 348
f 346 348 347
f 348 437 438
f 348 438 349
f 349 439 440
f 349 440 350
f 349 438 439
f 350 440 441
f 350 441 418
f 350 418 417
f 352 354 356
f 353 357 354
f 354 357 435
f 354 435 442
f 354 442 356
f 355 356 442
f 355 442 361
f 358 360 443
f 358 443 444
f 358 444 445
f 358 445 446
f 358 446 447
f 358 447 448
f 358 448 449
f 358 449 363
f 358 363 359
f 360 450 443
f 360 362 450
f 361 451 450
f 361 450 362
f 361 442 451
f 363 452 370
f 363 370 379
f 363 379 364
f 363 449 452
f 364 379 366
f 366 379 378
f 368 373 453
f 368 453 454
f 368 454 455
f 368 455 456
f 368 456 457
f 368 457 374
f 369 379 370
f 370 452 458
f 370 458 459
f 370 459 460
f 370 460 461
f 370 461 462
f 370 462 463
f 370 463 464
f 370 464 371
f 371 464 372
f 372 465 373
f 372 464 463
f 372 463 465
f 373 466 454
f 373 454 453
f 373 465 463
f 373 463 466
f 380 467 468
f 380 468 381
f 381 469 382
f 381 468 469
f 382 469 470
f 382 470 383
f 383 470 471
f 383 471 472
f 383 472 384
f 384 472 385
f 385 472 473
f 385 473 474
f 385 474 475
f 385 475 386
f 386 476 477
f 386 477 387
f 386 475 478
f 386 478 479
f 386 479 480
f 386 480 481
f 386 481 482
f 386 482 476
f 387 477 388
f 388 477 483
f 388 483 389
f 389 483 390
f 390 484 392
f 390 483 484
f 391 392 485
f 392 484 485
f 393 486 395
f 394 487 488
f 394 488 489
f 394 489 399
f 394 399 490
f 394 490 397
f 394 396 491
f 394 491 492
f 394 492 487
f 395 486 493
f 395 493 494
f 395 494 495
f 395 495 396
f 396 495 491
f 397 490 399
f 397 399 496
f 397 496 398
f 398 496 399
f 399 489 488
f 399 488 497
f 399 497 498
f 399 498 400
f 400 498 401
f 401 498 402
f 402 498 403
f 403 498 499
f 403 499 404
f 404 499 498
f 404 498 405
f 405 498 500
f 405 500 501
f 405 501 502
f 405 502 503
f 405 503 504
f 405 504 406
f 406 504 505
f 406 505 407
f 407 505 506
f 407 506 412
f 407 412 409
f 408 409 412
f 410 413 505
f 410 505 507
f 410 507 508
f 410 508 509
f 410 509 510
f 410 510 414
f 410 414 411
f 412 506 413
f 413 506 505
f 414 510 511
f 414 511 512
f 414 512 415
f 416 420 419
f 416 419 421
f 418 441 513
f 418 513 514
f 418 514 419
f 419 514 421
f 421 514 515
f 421 515 516
f 421 516 422
f 422 516 423
f 423 517 425
f 423 425 424
f 423 516 517
f 425 429 426
f 425 517 518
f 425 518 429
f 426 429 427
f 429 519 520
f 429 520 430
f 429 518 521
f 429 521 522
f 429 522 523
f 429 523 519
f 430 520 524
f 430 524 525
f 430 525 431
f 431 525 432
f 432 525 433
f 433 525 526
f 433 526 527
f 433 527 528
f 433 528 434
f 434 528 529
f 434 529 448
f 434 448 435
f 435 448 442
f 436 530 531
f 436 531 437
f 437 531 532
f 437 532 438
f 438 532 531
f 438 531 533
f 438 533 534
f 438 534 535
f 438 535 536
f 438 536 537
f 438 537 538
f 438 538 439
f 439 538 440
f 440 538 539
f 440 539 441
f 441 539 513
f 442 448 446
f 442 446 445
f 442 445 451
f 443 450 444
f 444 451 445
f 444 450 451
f 446 448 447
f 448 529 540
f 448 540 541
f 448 541 542
f 448 542 543
f 448 543 544
f 448 544 545
f 448 545 449
f 449 545 546
f 449 546 547
f 449 547 548
f 449 548 549
f 449 549 452
f 452 549 458
f 454 466 463
f 454 463 455
f 455 463 550
f 455 550 551
f 455 551 552
f 455 552 553
f 455 553 554
f 455 554 456
f 456 554 555
f 456 555 556
f 456 556 457
f 458 549 459
f 459 549 557
f 459 557 460
f 460 558 559
f 460 559 560
f 460 560 561
f 460 561 550
f 460 550 562
f 460 562 461
f 460 557 563
f 460 563 564
f 460 564 558
f 461 562 463
f 461 463 462
f 463 562 550
f 467 565 468
f 468 565 566
f 468 566 567
f 468 567 551
f 468 551 568
f 468 568 469
f 469 568 470
f 470 569 570
f 470 570 571
f 470 571 572
f 470 572 471
f 470 568 551
f 470 551 569
f 471 572 472
f 472 572 573
f 472 573 574
f 472 574 473
f 473 574 573
f 473 573 575
f 473 575 474
f 474 576 475
f 474 575 576
f 475 576 577
f 475 577 478
f 476 578 477
f 476 482 578
f 478 577 579
f 478 579 580
f 478 580 581
f 478 581 479
f 479 582 583
f 479 583 480
f 479 581 584
f 479 584 582
f 480 583 481
f 481 583 582
f 481 582 482
f 482 582 585
f 482 585 586
f 482 586 587
f 483 485 484
f 487 588 589
f 487 589 590
f 487 590 591
f 487 591 488
f 487 492 588
f 488 591 592
f 488 592 593
f 488 593 497
f 491 495 492
f 492 495 594
f 492 594 595
f 492 595 589
f 492 589 588
f 493 596 597
f 493 597 494
f 494 598 495
f 494 597 596
f 494 596 599
f 494 599 600
f 494 600 601
f 494 601 598
f 495 598 594
f 497 593 602
f 497 602 603
f 497 603 498
f 498 603 604
f 498 604 500
f 500 604 501
f 501 605 606
f 501 606 502
f 501 604 607
f 501 607 605
f 502 606 503
f 503 606 608
f 503 608 505
f 503 505 504
f 505 608 609
f 505 609 610
f 505 610 507
f 507 610 611
f 507 611 612
f 507 612 508
f 508 612 509
f 509 612 613
f 509 613 614
f 509 614 615
f 509 615 511
f 509 511 510
f 513 516 515
f 513 515 514
f 513 539 616
f 513 616 516
f 516 617 618
f 516 618 517
f 516 616 617
f 517 521 518
f 517 618 521
f 519 523 619
f 519 619 620
f 519 620 621
f 519 621 622
f 519 622 520
f 520 622 527
f 520 527 524
f 521 623 522
f 521 618 623
f 522 623 619
f 522 619 523
f 524 527 624
f 524 624 526
f 524 526 525
f 526 624 527
f 527 622 625
f 527 625 626
f 527 626 627
f 527 627 528
f 528 628 629
f 528 629 529
f 528 627 628
f 529 629 630
f 529 630 540
f 530 631 533
f 530 533 531
f 533 631 535
f 533 535 534
f 535 632 536
f 535 631 633
f 535 633 634
f 535 634 635
f 535 635 632
f 536 632 537
f 537 632 636
f 537 636 538
f 538 636 539
f 539 636 632
f 539 632 637
f 539 637 638
f 539 638 639
f 539 639 640
f 539 640 641
f 539 641 642
f 539 642 616
f 540 643 541
f 540 630 644
f 540 644 645
f 540 645 643
f 541 643 646
f 541 646 542
f 542 646 647
f 542 647 543
f 543 647 648
f 543 648 544
f 544 648 545
f 545 648 546
f 546 648 647
f 546 647 547
f 547 647 548
f 548 647 646
f 548 646 549
f 549 563 557
f 549 646 564
f 549 564 649
f 549 649 650
f 549 650 563
f 550 561 651
f 550 651 551
f 551 567 652
f 551 652 653
f 551 653 552
f 551 651 561
f 551 561 569
f 558 654 559
f 558 564 654
f 559 655 560
f 559 654 656
f 559 656 655
f 560 655 657
f 560 657 569
f 560 569 561
f 563 650 649
f 563 649 564
f 564 646 658
f 564 658 659
f 564 659 660
f 564 660 661
f 564 661 654
f 569 657 570
f 570 657 662
f 570 662 571
f 571 662 573
f 571 573 572
f 573 655 575
f 573 662 657
f 573 657 655
f 575 655 663
f 575 663 664
f 575 664 576
f 576 664 577
f 577 664 663
f 577 663 665
f 577 665 579
f 579 666 667
f 579 667 580
f 579 665 666
f 580 667 668
f 580 668 669
f 580 669 670
f 580 670 581
f 581 670 586
f 581 586 584
f 582 584 585
f 584 586 585
f 586 670 671
f 586 671 672
f 586 672 673
f 586 673 587
f 589 595 674
f 589 674 590
f 590 675 676
f 590 676 591
f 590 674 677
f 590 677 675
f 591 678 592
f 591 676 678
f 592 678 679
f 592 679 622
f 592 622 621
f 592 621 593
f 593 621 602
f 594 598 669
f 594 669 680
f 594 680 595
f 595 680 674
f 598 601 670
f 598 670 669
f 599 673 672
f 599 672 600
f 600 672 601
f 601 672 671
f 601 671 670
f 602 681 682
f 602 682 683
f 602 683 603
f 602 621 681
f 603 683 684
f 603 684 685
f 603 685 686
f 603 686 607
f 603 607 604
f 605 687 606
f 605 607 687
f 606 687 608
f 607 686 688
f 607 688 687
f 608 687 688
f 608 688 609
f 609 688 689
f 609 689 610
f 610 689 690
f 610 690 611
f 611 690 642
f 611 642 691
f 611 691 692
f 611 692 612
f 612 692 693
f 612 693 613
f 613 694 614
f 613 693 694
f 614 694 695
f 616 642 696
f 616 696 617
f 617 697 698
f 617 698 699
f 617 699 700
f 617 700 618
f 617 696 697
f 618 700 623
f 619 623 701
f 619 701 620
f 620 701 702
f 620 702 703
f 620 703 704
f 620 704 621
f 621 704 681
f 622 679 705
f 622 705 625
f 623 700 701
f 625 705 706
f 625 706 707
f 625 707 708
f 625 708 626
f 626 708 707
f 626 707 709
f 626 709 628
f 626 628 627
f 628 709 710
f 628 710 629
f 629 710 630
f 630 710 644
f 632 635 638
f 632 638 637
f 633 711 634
f 634 694 635
f 634 711 712
f 634 712 694
f 635 694 642
f 635 642 638
f 638 642 640
f 638 640 639
f 640 642 641
f 642 694 691
f 642 690 713
f 642 713 714
f 642 714 715
f 642 715 696
f 643 716 717
f 643 717 658
f 643 658 646
f 643 645 718
f 643 718 719
f 643 719 707
f 643 707 716
f 644 710 645
f 645 710 718
f 654 661 656
f 655 656 663
f 656 661 720
f 656 720 721
f 656 721 665
f 656 665 663
f 658 717 722
f 658 722 659
f 659 722 723
f 659 723 724
f 659 724 725
f 659 725 660
f 660 720 661
f 660 725 720
f 665 721 666
f 666 721 725
f 666 725 724
f 666 724 726
f 666 726 727
f 666 727 667
f 667 727 726
f 667 726 728
f 667 728 729
f 667 729 668
f 668 729 730
f 668 730 669
f 669 730 680
f 674 680 731
f 674 731 732
f 674 732 733
f 674 733 677
f 675 677 734
f 675 734 705
f 675 705 676
f 676 705 735
f 676 735 678
f 677 733 736
f 677 736 734
f 678 735 705
f 678 705 679
f 680 730 737
f 680 737 738
f 680 738 739
f 680 739 731
f 681 704 703
f 681 703 682
f 682 715 683
f 682 703 702
f 682 702 715
f 683 715 685
f 683 685 684
f 685 715 740
f 685 740 741
f 685 741 742
f 685 742 686
f 686 742 741
f 686 741 688
f 688 741 743
f 688 743 689
f 689 743 741
f 689 741 744
f 689 744 745
f 689 745 746
f 689 746 690
f 690 746 715
f 690 715 714
f 690 714 713
f 691 694 692
f 692 694 693
f 694 712 747
f 694 747 695
f 696 715 697
f 697 715 698
f 698 715 699
f 699 702 701
f 699 701 700
f 699 715 702
f 705 734 706
f 706 734 736
f 706 736 748
f 706 748 707
f 707 719 709
f 707 748 716
f 709 719 718
f 709 718 749
f 709 749 710
f 710 749 718
f 715 746 750
f 715 750 740
f 716 722 717
f 716 748 722
f 720 725 721
f 722 748 739
f 722 739 723
f 723 728 726
f 723 726 724
f 723 739 738
f 723 738 728
f 728 738 737
f 728 737 730
f 728 730 729
f 731 739 732
f 732 739 736
f 732 736 733
f 736 739 748
f 740 750 744
f 740 744 741
f 744 750 746
f 744 746 745

