# https://github.com/mikedh/trimesh
v -0.41991842 0.85069811 -0.31631231
v -0.38321292 0.80955905 -0.30944499
v -0.41860649 0.78673035 -0.35563299
v -0.37930289 0.80564904 -0.30768499
v -0.37782291 0.80174905 -0.30767497
v -0.37929291 0.80564904 -0.30767497
v -0.37928793 0.80570227 -0.30765423
v -0.37540290 0.80955905 -0.30378497
v -0.37540635 0.80963713 -0.30376178
v -0.38336644 0.82869411 -0.30385128
v -0.29324043 0.73878521 -0.36801994
v -0.37930289 0.81346905 -0.30555499
v -0.31600243 0.76517189 -0.27942130
v -0.37149292 0.81346905 -0.29988497
v -0.37147906 0.81357598 -0.29985258
v -0.37123010 0.81369823 -0.29968178
v -0.37537315 0.80955881 -0.30376518
v -0.38110563 0.87635827 -0.29042009
v -0.35480183 0.70973504 -0.40226945
v -0.36084780 0.86028177 -0.31820449
v -0.32716238 0.80213332 -0.29884514
v -0.20251420 0.60261530 -0.51263350
v -0.20559168 0.44829324 -0.49942750
v -0.35115984 0.67608684 -0.35363892
v -0.24924959 0.52456969 -0.53170043
v -0.15538377 0.48632437 -0.37451369
v -0.13789614 0.46239188 -0.38410822
v -0.18669900 -0.84667635 -0.48096842
v -0.14505708 -0.75635231 -0.44398287
v -0.07171256 -0.46813998 -0.13180381
v -0.24764390 0.63495475 -0.38002208
v -0.11805873 0.47624922 -0.30585337
v -0.14718291 0.46189907 -0.40142497
v -0.04893079 -0.89203107 -0.41974717
v -0.08022159 -0.96447003 -0.18491779
v -0.10558146 -0.62847006 -0.49865833
v -0.14477292 -0.32324091 -0.36236498
v -0.16822796 -0.62220091 -0.41240597
v -0.16850524 -0.38390097 -0.26950276
v -0.14793292 -0.31934094 -0.36236498
v -0.14276740 -0.25788862 -0.42962906
v -0.14492291 -0.31934094 -0.36626497
v -0.14493291 -0.31934094 -0.36625499
v -0.14493291 -0.32305092 -0.36236498
v -0.17797141 0.54132587 -0.42380917
v -0.14495601 0.46190178 -0.39749640
v -0.13027845 0.51092869 -0.55548751
v -0.06529733 -0.82566553 -0.51072448
v -0.06238387 -0.96601278 -0.34817550
v -0.02775742 -0.88964987 -0.53425032
v -0.02774291 -0.88944095 -0.53423494
v -0.14491750 -0.31933406 -0.36627612
v -0.10483110 -0.11504631 -0.25132155
v -0.12790935 -0.33436993 -0.37246180
v -0.14534263 -0.32351881 -0.36134776
v -0.13451089 -0.33481550 -0.36356160
v -0.06778019 -0.27543283 -0.47312742
v -0.12149291 -0.34291092 -0.37017497
v -0.08764779 -0.34561956 -0.39311743
v -0.12540291 -0.34278092 -0.36662498
v -0.12163291 -0.34278092 -0.37017497
v -0.12151423 -0.33890697 -0.37407267
v -0.12555116 -0.33903471 -0.37014318
v -0.14493291 0.46189907 -0.39745498
v -0.14493291 0.46186909 -0.39751497
v -0.12540291 -0.33116096 -0.37798497
v -0.14274292 0.46189907 -0.39361498
v -0.14102291 0.45799908 -0.39744499
v -0.14691162 -0.30860278 -0.36001524
v -0.13875291 0.45799908 -0.39361498
v -0.14259714 0.45272973 -0.41499341
v -0.14306292 0.45799908 -0.40142497
v -0.11072204 0.27463472 -0.13018881
v -0.14106292 0.45799908 -0.39751497
v -0.14102291 0.45795906 -0.39751497
v -0.12525441 0.44408005 -0.45625710
v -0.11530712 -0.94148976 -0.59051222
v -0.17261623 -0.97746921 -0.46719453
v 0.07380709 -0.74512094 -0.59058493
v -0.05760288 -0.48443452 -0.27878332
v -0.03941634 -0.90767467 -0.52482939
v -0.11758291 -0.34278092 -0.37397498
v -0.12601596 -0.34531239 -0.36353612
v -0.12134984 -0.33489066 -0.37813374
v -0.11758291 -0.33887094 -0.37779498
v -0.12149291 -0.33887094 -0.37412497
v -0.12149291 -0.33496091 -0.37794498
v -0.12153291 -0.33887094 -0.37408498
v -0.12149291 -0.34278092 -0.37030497
v -0.09569350 -0.39106476 -0.34568068
v -0.08390585 -0.14800799 -0.25496519
v -0.05629004 -0.10677797 -0.18453844
v -0.04174192 -0.33844066 -0.10033194
v -0.03164291 -0.88965094 -0.53033495
v -0.08240687 -0.04342094 -0.22436190
v -0.04489236 0.50905001 -0.35908383
v 0.01605065 -0.69124800 -0.39032495
v -0.10990119 0.53528541 -0.21724488
v -0.05812377 0.63734275 -0.22238836
v -0.13888499 0.56718200 -0.25928417
v -0.00324121 -0.41381037 -0.23027007
v -0.03165046 -0.88966125 -0.53033173
v -0.01616569 -0.32184830 -0.27079043
v -0.07883592 -0.60401773 -0.24149421
v -0.02515144 -0.54006547 -0.43030274
v -0.05118291 -0.42090094 -0.09295497
v -0.05112291 -0.42481092 -0.09283497
v -0.05118291 -0.42481092 -0.09290497
v -0.05115291 -0.42871091 -0.09283497
v -0.05118291 -0.43106091 -0.09283497
v -0.04727291 -0.42871091 -0.08793497
v -0.05111849 -0.42015412 -0.09288400
v -0.06738754 0.13564944 -0.53611648
v -0.05524938 -0.42370853 -0.09820186
v -0.05885921 -0.41868377 -0.16375829
v -0.04784196 -0.07414400 -0.57188720
v -0.10951431 -0.06807011 -0.51777411
v -0.07481373 -0.09885046 -0.34146246
v -0.04338291 -0.91699094 -0.42876497
v -0.04343045 -0.91694146 -0.42864463
v -0.04336847 -0.91699898 -0.42879227
v -0.04343291 -0.92090094 -0.42876497
v -0.04303738 0.07103913 -0.45784473
v -0.02044899 0.19628729 -0.17923242
v -0.07406425 0.36657488 -0.23554559
v -0.04862582 0.49323532 -0.26704809
v -0.00736250 0.56768453 -0.26341021
v -0.07018624 0.56127399 -0.15830478
v -0.06039487 0.55497384 -0.04872801
v -0.05820176 0.60404134 -0.11914929
v -0.03174613 -0.88957083 -0.53018934
v -0.04552732 -0.93417805 -0.42484143
v -0.04336291 -0.92481095 -0.42883497
v -0.04336291 -0.92090094 -0.42888498
v -0.00857972 -0.89967209 -0.55475658
v 0.09282595 -0.48686323 -0.14976744
v -0.08059499 -0.97680956 -0.52890867
v -0.04334418 -0.68562710 -0.34998763
v -0.06012210 -0.31433979 -0.20245378
v -0.02603549 -0.74279308 -0.27136692
v -0.03118019 -0.54119629 -0.09758937
v -0.02480618 -0.79156560 -0.43533188
v -0.10285659 -0.69768965 -0.46443856
v 0.05756196 -0.55497980 -0.44762176
v -0.05118291 -0.43653092 -0.09276498
v -0.05126291 -0.44043091 -0.09283497
v -0.05123291 -0.43653092 -0.09283497
v -0.05119291 -0.43262094 -0.09283497
v -0.05118291 -0.43262094 -0.09281498
v -0.05118291 -0.42871091 -0.09285497
v -0.01697733 -0.42050421 -0.04687357
v -0.02629856 -0.91821307 -0.45974192
v -0.04545737 0.40273285 -0.44677106
v -0.03464691 0.10377171 -0.22162345
v -0.02389291 -0.88965094 -0.53814495
v -0.02093000 0.13955583 -0.26112491
v -0.09224764 0.43197823 -0.18912371
v -0.02285958 0.49595907 -0.09035791
v 0.02540825 0.49039236 -0.34358698
v -0.04618026 0.62319666 -0.26967084
v -0.03239919 0.62970448 -0.05499141
v 0.01532897 0.66343474 -0.24801961
v -0.02639576 0.66263676 -0.07950430
v 0.02666765 0.67003405 -0.10736290
v 0.02108633 -0.80342126 -0.52550274
v 0.05697232 -0.95711195 -0.34975162
v -0.02073991 -0.83054036 -0.28516504
v 0.02426896 -0.59750974 -0.41853660
v 0.06258468 -0.78669053 -0.38912115
v -0.00990562 -0.44260597 -0.31911361
v 0.04390246 -0.86174840 -0.44873142
v 0.03702523 -0.37325379 -0.32574269
v 0.02302709 -0.24121094 -0.08702497
v 0.03025004 -0.44667229 -0.26852295
v -0.00868249 -0.93850094 -0.57279319
v -0.03886953 -0.81594652 -0.55843824
v 0.01909599 -0.23715627 -0.09282703
v 0.01912709 -0.23731093 -0.09267497
v 0.02549806 -0.24580179 -0.08866843
v 0.02580429 -0.92191184 -0.11318110
v -0.01329079 -0.94845176 -0.09750134
v 0.01829709 -0.24512093 -0.08892498
v 0.06407029 -0.21368200 -0.12689547
v 0.01911709 -0.24121094 -0.08892498
v 0.04227714 0.12663683 0.43570110
v 0.02302709 -0.23731093 -0.08893498
v 0.01912709 -0.24120094 -0.08892498
v 0.02302709 -0.23733093 -0.08892498
v 0.03080760 -0.20038609 -0.11241946
v 0.01261190 0.16820540 -0.41818017
v -0.06163761 0.14745036 -0.30638814
v 0.02399578 0.43444255 -0.31396359
v -0.02833174 0.64400566 0.04467076
v 0.00974039 0.69039357 0.09699219
v 0.02324392 0.63011605 -0.02593767
v -0.02022776 0.72969633 -0.01529235
v -0.00279309 0.87814897 -0.07499638
v -0.00518293 0.76651573 0.13118626
v 0.04796991 0.90265459 0.06383057
v -0.05263646 -0.82057124 -0.34975031
v 0.05963100 -0.97658807 -0.20284583
v 0.03546401 -0.68697542 -0.23919351
v 0.05527965 -0.80452740 -0.33370230
v 0.00453177 -0.97145391 -0.45720592
v 0.04455987 -0.40564466 -0.04718860
v 0.08552709 -0.57324094 -0.38565499
v 0.08480778 -0.57331491 -0.38574427
v 0.04560906 -0.54548764 -0.11111035
v 0.02029754 -0.53409451 -0.33592930
v 0.08943709 -0.57324094 -0.38574499
v 0.09173709 -0.57324094 -0.38579497
v 0.08457405 -0.56899720 -0.37970123
v 0.04113672 -0.49460483 -0.06259033
v 0.02302709 -0.23340093 -0.09087497
v 0.04980830 -0.04864152 -0.19229372
v 0.01912709 -0.24121094 -0.08891498
v 0.02321709 -0.23731093 -0.08892498
v -0.01618706 -0.06540102 -0.45819190
v 0.09933760 0.01579442 -0.16870815
v 0.00771868 -0.22929938 -0.10378992
v 0.01417631 0.14028843 0.56840432
v 0.05526284 -0.03729560 -0.57998556
v 0.08033606 -0.05472158 -0.49676886
v 0.00306362 0.04781076 -0.21040913
v 0.04287076 -0.01159566 -0.20776707
v 0.02258935 0.11415743 0.58614260
v 0.00465735 0.09481711 -0.53595924
v 0.02733027 0.15163365 0.45365617
v -0.01578397 0.22148335 -0.29376110
v 0.09433278 0.26798907 0.01990788
v -0.08890720 0.33243650 -0.09246328
v -0.01263097 0.61039531 -0.10175228
v 0.01563997 0.58421838 -0.01686195
v 0.02821250 0.55045468 -0.06305203
v 0.07447591 0.56432790 -0.02859029
v 0.06097181 0.50571501 -0.35827821
v 0.06733686 0.68869752 0.12854871
v 0.02864337 0.74757826 0.12188016
v 0.07771709 -0.75015092 -0.59283495
v 0.05243906 -0.88543314 -0.23884356
v 0.12135348 -0.80737078 -0.43635875
v 0.04611738 -0.69521314 -0.54546684
v 0.06141646 -0.83220816 -0.59004384
v 0.12876980 -0.58089763 -0.57877821
v 0.02779479 -0.29675955 -0.37554297
v 0.07770709 -0.74512094 -0.59283495
v 0.07771709 -0.74903095 -0.59290493
v 0.07738630 -0.75592357 -0.58955717
v 0.07772175 -0.74511850 -0.59283757
v 0.07771709 -0.74512094 -0.59283495
v 0.09572881 -0.43142486 -0.13356560
v 0.09327462 -0.59383208 -0.41453153
v 0.19351722 -0.84319568 -0.40732238
v 0.07541440 -0.62406200 -0.24482608
v 0.08327329 -0.34284979 -0.24842131
v 0.07784709 -0.74903095 -0.59283495
v 0.04185943 -0.08570471 -0.17971656
v 0.10446888 -0.09959324 -0.21237297
v 0.08976394 -0.23215799 -0.15540701
v 0.07551529 -0.15471514 -0.15953568
v 0.03117720 -0.35141000 -0.26911861
v 0.05616574 -0.05872416 -0.52101552
v 0.07758351 -0.16031662 -0.05213674
v 0.11461729 -0.07786805 -0.13551043
v 0.06979569 -0.12703259 -0.43722636
v 0.22689044 -0.05447899 -0.44023266
v 0.11011390 0.06816383 -0.12708881
v 0.10567806 -0.65332544 -0.58239836
v -0.01160802 0.20867975 -0.57409066
v 0.00604522 0.07446046 -0.17450860
v 0.04544167 0.09477104 0.57713199
v 0.07430015 0.16113943 0.41766071
v 0.07762709 0.15721907 0.41497502
v 0.07776268 0.15721738 0.41487244
v 0.06535770 0.13982147 0.55264241
v 0.07614820 0.22174965 -0.38939580
v 0.06172551 0.19134121 -0.08585846
v -0.01165472 0.36896369 -0.43239838
v 0.10116449 0.44161758 -0.35898554
v 0.08754723 0.27155557 -0.33499271
v 0.11073670 -0.63248658 -0.43626830
v 0.04811004 0.47104955 -0.42697087
v 0.23187895 0.31922823 -0.08398309
v 0.02099201 0.50488997 -0.04691249
v 0.05827716 0.56210226 -0.27765724
v 0.05304114 0.70364147 -0.13790579
v 0.08872305 0.77613062 0.16675897
v 0.10942427 0.93643862 -0.05003467
v 0.06295577 0.94378978 -0.06931764
v 0.11967365 0.89297450 -0.12005860
v -0.03721117 0.85928172 0.01217189
v 0.14318629 -0.34190387 -0.07930019
v 0.18004790 -0.06950337 -0.46136630
v 0.08943709 -0.57328093 -0.38579497
v 0.08240420 -0.52210891 -0.29272410
v 0.12261492 -0.38354403 -0.18460086
v 0.09986410 -0.32677492 -0.18382862
v 0.13850053 -0.48599812 -0.27770674
v 0.17793550 -0.30559731 -0.29980913
v 0.13925508 -0.08360771 -0.51399750
v 0.02811628 -0.45411617 -0.37771627
v 0.13754690 -0.37869105 0.09384976
v 0.10835789 -0.13629422 -0.03916727
v 0.10385308 -0.23238362 -0.07031979
v 0.09726279 0.12764533 -0.49407074
v 0.07577766 0.14015244 0.41389060
v 0.08952297 0.15872069 0.40561059
v 0.08165571 0.15332465 0.41103345
v 0.08162709 0.14939907 0.41035503
v 0.08159709 0.15330906 0.41106501
v 0.07331589 0.14529338 0.41575614
v 0.09105079 0.17357002 -0.57401818
v 0.08943563 0.36006689 -0.47837511
v 0.09439261 0.17191999 0.40474769
v 0.12379988 0.11947977 0.41026971
v 0.13243514 0.11840916 -0.54657608
v 0.06490693 0.45102218 -0.01852717
v 0.18258631 -0.53983331 -0.56181246
v 0.09641057 0.57777125 0.00331043
v 0.14639838 -0.66440928 -0.39802396
v 0.08361571 0.62301677 0.07593321
v 0.06755657 0.76432401 0.13568403
v 0.12848277 0.57724684 -0.29659051
v 0.05075127 0.87895304 -0.16771424
v 0.10714600 0.93457001 -0.14126347
v 0.10271487 0.87905365 -0.10548905
v 0.21834709 -0.25291094 -0.31548497
v 0.21804845 -0.26070088 -0.30783600
v 0.21825518 -0.25682899 -0.31158888
v 0.16702519 -0.49572501 -0.03388509
v 0.15741765 -0.49335006 -0.16019462
v 0.11407971 -0.24394719 -0.02063284
v 0.12905560 -0.39491913 -0.16400799
v 0.04919393 -0.28175956 -0.43690753
v 0.11739969 -0.39080456 -0.00935022
v 0.11920604 -0.40374699 -0.24568342
v 0.09578098 -0.26736948 -0.39383641
v 0.14343573 0.09746435 0.48442206
v 0.14637379 -0.09734721 -0.40482184
v 0.11943348 0.25841394 -0.43346325
v 0.17927709 -0.05380093 -0.46392497
v 0.17927709 -0.05371093 -0.46391499
v 0.11002105 0.10021028 0.54920042
v 0.11297591 0.18640214 0.44752917
v 0.15584709 0.33689907 -0.37412497
v 0.14410739 0.34461841 -0.35852590
v 0.12524080 0.18192354 -0.43813914
v 0.11747242 0.57990128 0.06562286
v 0.15764050 0.51727319 0.02549416
v 0.09930079 0.52142298 0.02196434
v 0.11322138 0.63413286 0.00754395
v 0.11422736 0.64030796 0.09116175
v 0.12672089 0.71332985 -0.22559439
v 0.16910084 0.77819365 -0.23391388
v 0.07101230 0.87566108 0.12046658
v 0.14529572 0.81768829 0.07450946
v 0.14336485 0.87701142 -0.00784809
v 0.13224666 0.98058462 -0.15335189
v 0.16007152 -0.62025088 -0.50258696
v 0.12169655 -0.52037257 -0.33845818
v 0.15114994 -0.48295659 0.03193710
v 0.17146106 -0.14354359 -0.34304637
v 0.17528979 -0.14188856 -0.34649026
v 0.20103498 -0.11127663 -0.46103799
v 0.15710360 -0.56082535 -0.44185007
v 0.15016368 -0.24115326 0.05681520
v 0.13762765 -0.29891357 -0.11200614
v 0.18271562 -0.05798129 -0.46052393
v 0.17182788 -0.15304036 -0.33339125
v 0.14386971 -0.11294803 -0.33998832
v 0.18449578 -0.29645145 -0.16541189
v 0.07586573 0.08354423 -0.17288904
v 0.24875660 -0.16811354 -0.31089610
v 0.28453064 -0.17500795 -0.33356872
v 0.18315709 -0.05762093 -0.46001497
v 0.17159456 -0.14771689 -0.33892462
v 0.26312783 -0.53536952 -0.56405461
v 0.18454798 0.15511610 0.32424688
v 0.16189663 0.30184126 -0.28827089
v 0.15573974 0.33675227 -0.37410614
v 0.15566686 0.33693320 -0.37391749
v 0.20153110 0.13481814 -0.45313290
v 0.15942889 0.40225765 -0.34717557
v 0.14280772 -0.80277008 -0.37751943
v 0.17332262 0.46086839 0.02255797
v 0.20601858 0.50542223 -0.33038485
v 0.10152324 0.62330049 -0.24199402
v 0.19499694 0.59284151 -0.21304196
v 0.19573419 0.62995034 -0.19482940
v 0.13873184 0.70919728 0.10591237
v 0.20308368 -0.39549884 -0.45137292
v 0.17660923 0.67478508 -0.06389128
v 0.14755723 0.70145285 0.01443195
v 0.16837415 0.69560939 -0.22641040
v 0.11640985 0.79269677 -0.12218803
v 0.13073455 0.86565256 -0.15951328
v 0.15479006 0.87185204 -0.09869825
v 0.14447778 0.78289074 -0.19259757
v 0.18461774 0.81980371 -0.10934890
v 0.19876762 0.89196545 -0.09040137
v 0.14939633 0.94158256 -0.12970971
v 0.17637394 0.81452674 -0.17108652
v 0.11666152 0.96340984 -0.08448022
v 0.14898703 0.93373632 -0.17054763
v 0.16297723 0.93963736 -0.06088957
v 0.26521707 -0.20155093 -0.32329497
v 0.26693016 -0.63753802 -0.50729990
v 0.17568514 -0.56999844 -0.34338036
v 0.23013709 -0.27637094 -0.28033498
v 0.23006709 -0.28028092 -0.27642497
v 0.23896420 -0.50314677 -0.03101326
v 0.18317284 -0.05753147 -0.46003455
v 0.15654753 -0.31738168 -0.18363030
v 0.23122683 -0.33410379 -0.36338565
v 0.24228846 0.15824667 -0.50296289
v 0.22224709 -0.26074091 -0.30377498
v 0.22218193 -0.26081222 -0.30376792
v 0.22225709 -0.26074091 -0.30376497
v 0.22224709 -0.25293091 -0.31171498
v 0.18015721 -0.05395642 -0.46395352
v 0.17926779 -0.05370255 -0.46392715
v 0.18363252 -0.04383142 -0.46423003
v 0.18322903 -0.05762566 -0.45996714
v 0.18318708 -0.05371093 -0.46317497
v 0.23627819 -0.43757436 -0.32903159
v 0.18051456 -0.09572083 -0.04904549
v 0.25427571 0.07508094 -0.18326759
v 0.26902711 -0.22168094 -0.29986498
v 0.21834709 -0.25675094 -0.31158498
v 0.18789093 0.11202288 -0.14596623
v 0.16398586 0.29172233 -0.39709416
v 0.17920299 0.26703301 -0.02223011
v 0.20365950 0.39975938 0.07770786
v 0.15974709 0.33689907 -0.37791497
v 0.19660830 0.19266196 0.40274078
v 0.15974709 0.33676907 -0.37798497
v 0.15954132 0.33693311 -0.37968841
v 0.24711855 0.31574681 0.08184581
v 0.21599370 -0.75089240 -0.38727650
v 0.09404039 0.69295609 -0.19555971
v 0.15754595 0.60255700 -0.01303719
v 0.15205520 0.66447079 -0.04821536
v 0.18401955 0.61418962 -0.28487527
v 0.25615868 0.62035108 -0.10021422
v 0.20346434 0.43544781 -0.39922586
v 0.17731947 0.78345245 -0.02006898
v 0.15232567 0.91039181 -0.11398699
v 0.18444782 0.93004733 -0.11983967
v 0.16322193 0.92968440 -0.04517246
v 0.20683429 0.94277966 -0.09779598
v 0.23376709 -0.53662694 -0.22636318
v 0.21548720 -0.32442379 -0.13072282
v 0.19866291 -0.48705065 -0.48578763
v 0.22224709 -0.25307095 -0.31158498
v 0.22224709 -0.25684094 -0.30774498
v 0.26733851 -0.49130422 -0.28993991
v 0.18222971 -0.50113136 -0.59360260
v 0.21443708 -0.25293091 -0.31919497
v 0.24084708 -0.45908302 0.04665028
v 0.20275076 -0.01470696 -0.46690378
v 0.22615708 -0.28396091 -0.27642497
v 0.23005709 -0.28028092 -0.27643499
v 0.20021158 -0.44899899 -0.35150698
v 0.22615708 -0.26074091 -0.30003497
v 0.22224933 -0.06153833 -0.44438833
v 0.22224709 -0.06153093 -0.44439498
v 0.23005709 -0.27260092 -0.28423497
v 0.23005709 -0.27637094 -0.28040498
v 0.21260959 -0.28996670 -0.28327903
v 0.26661548 -0.61273390 -0.37278649
v 0.21834709 -0.26059094 -0.30767497
v 0.23346847 -0.31844521 -0.17385997
v 0.22615708 -0.28012091 -0.28033498
v 0.23005709 -0.27644092 -0.28033498
v 0.22469670 -0.25240523 -0.30989707
v 0.22564349 -0.28426304 -0.27655137
v 0.21831709 -0.25293091 -0.31548497
v 0.26918709 -0.17871094 -0.34283498
v 0.22889151 -0.26141214 -0.29674041
v 0.19395372 -0.15392371 -0.00665880
v 0.16856152 0.04771609 -0.15530446
v 0.26913744 -0.19043264 -0.33111471
v 0.21753249 -0.04038761 -0.44954762
v 0.22223017 -0.06136816 -0.44435385
v 0.21457709 -0.06153093 -0.45220497
v 0.21834709 -0.06159093 -0.44829497
v 0.21834709 -0.06153093 -0.44830498
v 0.23112699 -0.06505578 -0.05981577
v 0.21597052 0.12085955 -0.14747822
v 0.26257709 -0.47949091 -0.29986498
v 0.25109470 0.17286067 -0.21803018
v 0.17822875 0.39740321 -0.25124934
v 0.33685726 0.28906152 0.22235419
v 0.29219967 -0.46749556 -0.15251864
v 0.18301581 0.56843084 0.03839585
v 0.19826743 0.60391587 -0.25581500
v 0.24096470 0.68274993 -0.17318994
v 0.23924938 0.80665290 -0.14512418
v 0.20738468 0.80943292 -0.14846435
v 0.26288348 0.40658647 0.11385126
v 0.26441109 -0.50784004 -0.30978245
v 0.26830423 -0.48769596 -0.28161043
v 0.26557672 -0.77725089 -0.46644866
v 0.23005709 -0.28259093 -0.27251497
v 0.27119070 -0.49747726 -0.47304833
v 0.20429727 -0.33886433 -0.20141543
v 0.25536042 -0.42110807 -0.58721566
v 0.26437709 -0.48731092 -0.29986498
v 0.26517493 -0.48320088 -0.29169247
v 0.26912710 -0.22549093 -0.29595497
v 0.26900709 -0.22559093 -0.29595497
v 0.26912710 -0.22559093 -0.29585499
v 0.26912710 -0.18653093 -0.33504498
v 0.26915711 -0.18653093 -0.33501497
v 0.26912710 -0.18266094 -0.33892497
v 0.22224709 -0.25691092 -0.30767497
v 0.26514709 -0.48340094 -0.29204497
v 0.26513708 -0.14356093 -0.38189498
v 0.26520711 -0.13965093 -0.38579497
v 0.26912710 -0.20992093 -0.31158498
v 0.21834709 -0.25293091 -0.31545499
v 0.23400755 -0.42618531 -0.41037366
v 0.26913711 -0.19043094 -0.33111498
v 0.19590941 -0.30560538 -0.33708981
v 0.22238629 -0.25670275 -0.30774972
v 0.26909709 -0.20215093 -0.31939498
v 0.26908708 -0.20606093 -0.31548497
v 0.26912710 -0.20602094 -0.31548497
v 0.26912710 -0.20215093 -0.31937498
v 0.26037601 -0.35103199 -0.38383460
v 0.23239246 -0.20161182 -0.35432133
v 0.26506710 -0.14746094 -0.37798497
v 0.26521707 -0.14746094 -0.37784499
v 0.26521707 -0.14732093 -0.37798497
v 0.26907986 -0.20995817 -0.31157753
v 0.23005709 -0.28028092 -0.27642497
v 0.27299637 -0.28937161 -0.03007331
v 0.37000421 -0.31442401 -0.00705145
v 0.26993769 -0.23016740 -0.29058304
v 0.25828868 -0.23727359 -0.29326090
v 0.26916707 -0.18262093 -0.33892497
v 0.26521707 -0.18598093 -0.33892497
v 0.25282159 -0.19523799 -0.02169164
v 0.26914331 -0.17862076 -0.34295896
v 0.26912710 -0.17876093 -0.34283498
v 0.25578451 0.15679555 0.33303133
v 0.26912710 -0.22160093 -0.29986498
v 0.27302709 -0.22168094 -0.29644498
v 0.26911119 -0.21775928 -0.30372688
v 0.26940754 -0.20996624 -0.31129283
v 0.30393371 -0.28322443 -0.20818502
v 0.26903707 -0.21778093 -0.30376497
v 0.28238493 -0.37775540 -0.05947854
v 0.26311380 -0.18323867 -0.34350425
v 0.26521707 -0.18208094 -0.34283498
v 0.26024324 -0.20678365 -0.32231849
v 0.22604851 -0.05435524 -0.44127625
v 0.26521707 -0.18987094 -0.33501497
v 0.26912710 -0.18655093 -0.33501497
v 0.21834709 -0.05762093 -0.44864497
v 0.20530203 -0.11136254 -0.45813051
v 0.21834709 -0.06153093 -0.44829497
v 0.23550884 -0.08213244 -0.42826387
v 0.26949197 -0.21745598 -0.30368659
v 0.26912710 -0.18262093 -0.33896497
v 0.33478472 0.25101390 0.28789270
v 0.35010099 -0.41035461 -0.40594473
v 0.17643307 0.20742169 -0.41375077
v 0.25487173 0.32175747 -0.17450529
v 0.31601709 0.43455905 -0.14361496
v 0.28338376 0.16387472 -0.20645505
v 0.25351098 0.28620040 -0.34669340
v 0.25349709 0.29002905 -0.34389499
v 0.26665282 0.29977128 0.25118020
v 0.23334225 0.52902794 0.05722419
v 0.17020015 0.22075750 0.35254014
v 0.27145165 0.37838632 -0.26770422
v 0.24954288 0.28618696 -0.35053018
v 0.24884942 0.21104597 -0.37615275
v 0.26516485 0.24070071 0.18410933
v 0.24959709 0.28221908 -0.35322499
v 0.24959709 0.28595909 -0.35064498
v 0.23623230 0.28310096 -0.35788915
v 0.23591912 0.33210757 -0.24257131
v 0.24959709 0.28611907 -0.35052499
v 0.22779833 0.42832062 -0.05095249
v 0.26829419 0.56468058 0.06226302
v 0.24032068 0.60171211 -0.25579002
v 0.32489479 0.51232147 0.03075663
v 0.22460540 0.91869098 -0.04894972
v 0.24632181 0.58425963 -0.17804310
v 0.23710155 0.73281127 -0.11697365
v 0.30743310 0.50015271 -0.05015228
v 0.31598711 0.44236907 -0.13579498
v 0.31599709 0.44235906 -0.13579500
v 0.31348711 0.44236907 -0.13970497
v 0.26521707 -0.48731092 -0.29593498
v 0.33955342 -0.29076073 -0.26528421
v 0.26530007 -0.48757774 -0.29596582
v 0.26521707 -0.48731092 -0.29595497
v 0.26521707 -0.48371094 -0.29204497
v 0.27648184 -0.49085909 -0.23800202
v 0.25643411 -0.46436921 -0.33934224
v 0.28995803 -0.42296404 -0.02054297
v 0.26912230 -0.20605581 -0.31546271
v 0.25297114 -0.35713100 0.06559635
v 0.24504338 -0.17090005 -0.37328905
v 0.26522392 -0.14372443 -0.38163704
v 0.27731025 -0.21515079 -0.29935357
v 0.26494271 -0.15415756 -0.37129962
v 0.26912710 -0.22939093 -0.29204497
v 0.27605730 -0.36566022 -0.16911909
v 0.26899710 -0.22949094 -0.29204497
v 0.26168045 -0.30554327 -0.10148369
v 0.32966587 -0.31895980 -0.09898726
v 0.26912710 -0.22168094 -0.29977497
v 0.26166266 -0.28862035 -0.12710312
v 0.26910710 -0.19824094 -0.32329497
v 0.26912710 -0.20213093 -0.31939498
v 0.26911134 -0.19823782 -0.32329613
v 0.27302709 -0.19881094 -0.31939498
v 0.28587812 -0.18402693 -0.32333824
v 0.26923770 -0.14746492 -0.37413347
v 0.37903368 -0.43191808 -0.33233184
v 0.25962529 -0.14117835 -0.38953710
v 0.27749157 -0.14256619 -0.37166438
v 0.26912710 -0.14746094 -0.37422499
v 0.26521707 -0.15116093 -0.37408498
v 0.31110272 -0.12620094 -0.28838381
v 0.27545306 -0.10022642 -0.46644792
v 0.30143231 -0.06147944 -0.13876437
v 0.27452511 -0.12177024 -0.39544395
v 0.31840149 -0.10353852 -0.18411292
v 0.28485399 0.11994091 -0.21511620
v 0.33455944 -0.46228540 -0.56409085
v 0.22841300 0.22807707 -0.28458571
v 0.28864709 0.16892907 -0.27251497
v 0.28865710 0.16892907 -0.27251497
v 0.29130709 0.16502906 -0.27251497
v 0.28865710 0.16892907 -0.27216497
v 0.28865710 0.16883907 -0.27642497
v 0.28624624 0.17242223 -0.27469829
v 0.26055288 0.27562878 -0.34752423
v 0.32278886 0.28586963 0.09161203
v 0.25349709 0.28614908 -0.34673497
v 0.25349709 0.28611907 -0.34675497
v 0.28858709 0.16892907 -0.27642497
v 0.28846711 0.16892907 -0.28033498
v 0.26266563 0.30676451 -0.32249439
v 0.29319853 0.19741616 0.18101956
v 0.29326478 0.50205028 -0.25074574
v 0.31596106 0.44639689 -0.13180418
v 0.31599709 0.44624904 -0.13189498
v 0.31596711 0.45017907 -0.12798499
v 0.31599709 0.44627905 -0.13186496
v 0.31599706 0.45014152 -0.12798259
v 0.28518173 0.44114372 -0.06946715
v 0.37830940 -0.42443725 -0.55610412
v 0.25218794 0.61110395 -0.02523294
v 0.29462451 -0.21413864 -0.28927201
v 0.24445075 -0.29058608 -0.28188115
v 0.27724344 -0.10309876 -0.40015134
v 0.38403237 -0.06733893 -0.43715072
v 0.41827074 -0.55903053 -0.51474553
v 0.35886496 -0.19070320 -0.33485225
v 0.30915165 0.02089745 -0.41111672
v 0.34141928 -0.10086387 -0.38723600
v 0.33568755 -0.09612924 -0.33929834
v 0.30008963 0.11730711 -0.39313072
v 0.43318707 -0.13574094 -0.33111498
v 0.29836500 0.14323419 -0.27296108
v 0.26605436 0.16450763 -0.36714014
v 0.37598592 0.20931792 0.21540788
v 0.33916634 0.32827714 -0.19354634
v 0.30821732 0.41144884 -0.33156115
v 0.31600145 0.43846819 -0.13970800
v 0.26762781 0.48625857 -0.18922703
v 0.31602710 0.43064907 -0.14751498
v 0.31350711 0.43455905 -0.14751498
v 0.37156889 0.39597437 -0.08672689
v 0.31603709 0.42674908 -0.15142497
v 0.35759422 0.37676731 -0.26017582
v 0.31990710 0.44406906 -0.12798499
v 0.42537710 -0.44824091 -0.35454497
v 0.42146707 -0.44898093 -0.35454497
v 0.26591870 -0.28884029 -0.23215608
v 0.40870941 -0.34768492 -0.20159326
v 0.32702404 0.05187863 -0.28273544
v 0.41106883 -0.25256020 -0.14305066
v 0.30805609 0.25281739 -0.32017747
v 0.31599709 0.43457413 -0.14361992
v 0.31599709 0.43846908 -0.13971499
v 0.32862464 0.11438695 -0.44819343
v 0.28763905 0.50171381 -0.11752943
v 0.32676214 0.39510465 0.07293018
v 0.31243077 0.42226192 -0.16130939
v 0.33803430 0.56175673 -0.02666915
v 0.31599709 0.45402908 -0.12408497
v 0.39880130 -0.50856251 -0.53770036
v 0.38488838 0.43659851 -0.16788647
v 0.40396890 -0.44323549 -0.35253540
v 0.42558178 -0.20172745 -0.27772793
v 0.41273370 -0.27035993 -0.23260866
v 0.39719239 -0.41750529 -0.39430258
v 0.36420140 -0.29785520 -0.14878330
v 0.43384865 0.11006878 -0.26458678
v 0.36923686 0.46860698 -0.04814405
v 0.42719710 -0.44434094 -0.35454497
v 0.43311021 -0.48571923 -0.40475938
v 0.43578038 0.04341622 -0.31676355
v 0.42146707 -0.44824091 -0.35346499
v 0.40710431 -0.28820559 -0.06599092
v 0.42337051 -0.44471973 -0.34867799
v 0.42546710 -0.44434094 -0.35064498
v 0.42972672 -0.14105719 -0.32963347
v 0.38054037 0.12623730 -0.43098450
v 0.43904245 0.24398734 -0.26908144
v 0.40893778 0.31319121 -0.29584688
v 0.41819039 0.30353543 -0.14722581
v 0.45157403 -0.43947965 -0.38934150
v 0.42537710 -0.44448093 -0.35064498
v 0.42537710 -0.44825092 -0.35454497
v 0.42806536 -0.42032871 -0.33267641
v 0.44346911 -0.23826104 -0.17109321
v 0.42907217 -0.08902380 -0.29248795
v 0.42927709 -0.13574094 -0.33447498
v 0.43318704 -0.13574092 -0.33110544
v 0.43318707 -0.13965093 -0.32736498
v 0.43326437 -0.13963975 -0.32727566
v 0.45931524 -0.08154397 -0.33017150
v 0.44523537 0.09809950 -0.36028817
v 0.42782512 0.21165147 -0.21920812
f 2 3 4
f 4 5 6
f 5 21 6
f 7 6 8
f 3 21 5
f 1 20 3
f 10 2 7
f 1 10 18
f 20 1 18
f 24 3 19
f 6 7 4
f 14 9 17
f 16 14 17
f 6 21 17
f 8 6 17
f 17 21 16
f 3 2 1
f 10 15 16
f 10 1 2
f 9 10 12
f 12 10 7
f 7 2 4
f 9 12 8
f 12 7 8
f 15 14 16
f 15 9 14
f 17 9 8
f 16 18 10
f 10 9 15
f 21 18 16
f 18 21 20
f 11 19 20
f 19 3 20
f 24 13 3
f 13 21 3
f 4 3 5
f 21 11 20
f 25 24 19
f 19 22 25
f 13 24 11
f 13 11 21
f 23 45 24
f 23 24 25
f 31 24 45
f 31 11 24
f 11 22 19
f 26 71 33
f 41 52 69
f 40 43 44
f 11 31 45
f 28 78 29
f 37 42 52
f 28 29 38
f 56 37 52
f 43 42 44
f 41 54 56
f 44 42 37
f 41 56 52
f 39 38 29
f 60 63 61
f 43 40 52
f 63 54 62
f 56 55 37
f 44 69 40
f 64 46 65
f 54 83 56
f 83 63 60
f 42 43 52
f 40 69 52
f 44 55 69
f 55 44 37
f 63 83 54
f 27 67 68
f 46 64 67
f 69 90 39
f 69 55 56
f 76 27 70
f 65 71 72
f 65 74 64
f 74 68 64
f 23 47 76
f 74 75 68
f 71 23 76
f 23 71 26
f 33 71 65
f 26 46 67
f 72 74 65
f 46 33 65
f 32 27 76
f 33 46 26
f 68 67 64
f 70 75 76
f 75 72 76
f 74 72 75
f 72 71 76
f 26 67 27
f 68 75 70
f 27 68 70
f 25 22 47
f 11 45 47
f 23 26 45
f 23 25 47
f 11 47 22
f 100 45 32
f 45 100 160
f 143 29 48
f 137 78 77
f 78 137 29
f 78 28 77
f 29 137 48
f 28 38 36
f 39 36 38
f 60 61 58
f 28 36 77
f 82 59 90
f 85 86 84
f 54 87 88
f 61 63 62
f 89 61 88
f 88 61 62
f 86 87 84
f 84 59 85
f 82 62 59
f 66 84 87
f 66 54 41
f 62 86 85
f 62 85 59
f 83 58 90
f 58 89 82
f 56 83 90
f 90 58 82
f 66 41 59
f 61 89 58
f 69 56 90
f 89 88 62
f 82 89 62
f 83 60 58
f 88 86 62
f 84 66 59
f 54 66 87
f 88 62 54
f 87 86 88
f 117 41 69
f 57 59 41
f 94 50 51
f 126 32 76
f 45 160 47
f 137 77 175
f 175 77 176
f 176 77 36
f 39 29 170
f 29 143 170
f 36 39 90
f 112 106 107
f 108 109 107
f 109 110 111
f 93 112 151
f 117 69 262
f 116 41 117
f 53 91 92
f 91 53 118
f 123 118 53
f 119 120 121
f 53 95 191
f 123 53 191
f 119 122 120
f 229 124 73
f 157 125 73
f 73 231 157
f 26 27 32
f 98 157 231
f 98 231 128
f 126 98 100
f 47 96 76
f 100 98 128
f 45 26 32
f 47 160 96
f 99 160 100
f 100 128 99
f 99 128 130
f 133 132 122
f 134 133 122
f 134 122 119
f 121 134 119
f 102 94 131
f 137 175 81
f 137 81 131
f 81 102 131
f 94 51 131
f 48 137 131
f 51 48 131
f 167 200 35
f 176 36 105
f 141 104 140
f 145 146 151
f 114 147 148
f 104 141 30
f 107 109 111
f 90 105 36
f 110 149 111
f 149 148 111
f 149 110 148
f 108 106 114
f 107 111 151
f 114 106 112
f 104 30 115
f 114 148 110
f 146 145 147
f 114 150 108
f 150 109 108
f 147 30 146
f 30 151 146
f 147 145 149
f 145 148 149
f 148 147 149
f 170 261 39
f 93 114 112
f 101 80 115
f 104 115 80
f 106 108 107
f 112 107 151
f 30 147 114
f 30 114 93
f 150 110 109
f 110 150 114
f 115 30 93
f 90 57 172
f 57 90 59
f 116 57 41
f 118 139 91
f 53 92 95
f 118 123 218
f 116 117 269
f 35 181 167
f 117 113 269
f 113 117 227
f 135 48 155
f 50 155 51
f 229 156 124
f 125 229 73
f 157 98 125
f 96 153 278
f 128 231 158
f 76 96 126
f 192 125 98
f 126 100 32
f 192 98 126
f 128 158 130
f 96 127 126
f 99 130 162
f 130 129 193
f 129 130 161
f 129 161 193
f 130 193 163
f 49 34 132
f 135 155 50
f 102 81 175
f 121 152 134
f 152 133 134
f 200 34 49
f 200 49 35
f 152 204 132
f 132 204 49
f 175 135 102
f 155 48 51
f 102 50 94
f 102 135 50
f 34 142 152
f 167 181 180
f 176 105 242
f 138 97 142
f 80 138 104
f 143 168 170
f 121 34 152
f 34 121 120
f 105 90 172
f 69 39 245
f 245 39 261
f 69 245 262
f 177 184 178
f 179 184 177
f 227 117 262
f 269 222 116
f 225 95 92
f 191 95 225
f 225 154 191
f 186 187 188
f 186 178 187
f 113 227 153
f 123 191 190
f 191 154 156
f 229 191 156
f 269 113 153
f 229 125 192
f 96 278 159
f 153 96 282
f 232 158 284
f 282 96 160
f 130 158 232
f 162 130 163
f 164 161 130
f 193 161 196
f 193 194 198
f 163 193 291
f 161 164 196
f 194 193 196
f 193 198 291
f 49 204 166
f 142 34 200
f 181 35 201
f 152 132 133
f 171 152 142
f 48 135 165
f 135 175 165
f 143 48 165
f 140 200 167
f 203 167 240
f 202 167 203
f 143 165 168
f 144 242 105
f 210 211 212
f 80 101 174
f 105 172 301
f 140 202 141
f 141 208 213
f 334 172 57
f 151 220 93
f 205 220 151
f 177 178 186
f 216 173 187
f 116 334 57
f 189 177 214
f 189 179 177
f 214 186 217
f 214 177 186
f 188 173 217
f 186 188 217
f 184 216 187
f 187 173 188
f 184 182 216
f 184 179 182
f 214 217 179
f 178 184 187
f 217 173 179
f 216 179 173
f 216 182 179
f 179 189 214
f 257 225 92
f 34 120 132
f 270 154 224
f 154 225 224
f 305 123 190
f 156 154 270
f 190 191 276
f 73 124 277
f 127 192 126
f 127 96 285
f 284 234 233
f 120 122 132
f 232 284 233
f 232 233 164
f 233 234 195
f 387 160 99
f 99 162 387
f 164 233 195
f 162 163 440
f 194 238 198
f 286 163 197
f 326 197 324
f 175 243 165
f 240 167 180
f 171 204 152
f 180 181 201
f 201 166 240
f 201 240 180
f 49 201 35
f 204 171 166
f 166 203 240
f 49 166 201
f 97 171 142
f 243 175 176
f 171 97 169
f 167 202 140
f 242 243 176
f 249 246 79
f 200 140 138
f 247 248 246
f 79 248 242
f 200 138 142
f 168 165 281
f 140 104 138
f 148 145 111
f 202 254 208
f 141 202 208
f 301 144 105
f 209 97 80
f 212 168 207
f 213 205 151
f 151 141 213
f 174 101 251
f 145 151 111
f 115 103 261
f 101 261 296
f 115 261 101
f 251 101 296
f 172 334 337
f 256 250 249
f 248 256 249
f 116 222 334
f 257 92 220
f 91 93 220
f 220 92 91
f 257 183 260
f 257 220 183
f 223 218 262
f 215 225 257
f 262 218 123
f 224 225 219
f 224 219 270
f 222 269 316
f 372 270 267
f 221 271 226
f 347 305 190
f 308 273 274
f 271 275 226
f 275 221 226
f 221 228 185
f 344 228 221
f 229 276 191
f 230 231 73
f 153 282 269
f 269 282 313
f 192 127 285
f 285 96 159
f 284 158 317
f 284 317 319
f 195 234 235
f 236 160 387
f 282 160 236
f 248 79 246
f 164 130 232
f 194 195 321
f 163 286 440
f 237 194 321
f 238 194 322
f 198 238 322
f 198 322 287
f 199 291 355
f 197 289 324
f 79 242 268
f 169 203 171
f 256 247 250
f 247 246 250
f 249 268 248
f 249 79 268
f 248 268 165
f 247 239 248
f 247 256 239
f 239 256 248
f 249 250 246
f 166 171 203
f 248 165 243
f 242 248 243
f 268 281 165
f 202 203 254
f 206 210 212
f 169 97 295
f 295 254 169
f 203 169 254
f 254 136 208
f 97 209 295
f 80 97 138
f 252 207 168
f 206 294 210
f 294 206 207
f 252 168 281
f 206 212 207
f 294 207 252
f 252 211 294
f 211 210 294
f 212 298 168
f 360 144 301
f 295 136 254
f 295 209 174
f 80 174 209
f 170 168 298
f 136 251 213
f 301 172 336
f 208 136 213
f 251 295 174
f 151 30 141
f 220 205 183
f 251 205 213
f 115 139 103
f 93 139 115
f 183 205 251
f 139 93 91
f 259 260 183
f 262 245 223
f 334 222 300
f 215 258 263
f 264 263 258
f 258 257 260
f 215 263 303
f 219 225 481
f 123 305 262
f 272 273 311
f 228 272 185
f 312 316 269
f 307 309 308
f 309 306 310
f 307 315 306
f 315 185 306
f 308 309 310
f 311 306 185
f 275 344 221
f 275 271 343
f 271 221 343
f 307 308 274
f 306 274 310
f 277 372 430
f 274 273 272
f 306 311 274
f 310 273 308
f 273 310 274
f 306 309 307
f 273 274 311
f 311 185 272
f 314 307 274
f 272 228 314
f 314 315 307
f 314 274 272
f 228 344 314
f 227 278 153
f 312 269 313
f 278 340 279
f 279 159 278
f 284 319 235
f 321 235 351
f 194 237 322
f 198 287 355
f 286 326 395
f 197 326 286
f 324 289 326
f 291 199 289
f 357 199 355
f 268 242 144
f 268 244 281
f 245 261 255
f 299 328 329
f 211 252 298
f 212 211 298
f 170 298 296
f 136 295 251
f 183 251 297
f 261 170 296
f 336 360 301
f 297 251 296
f 297 259 183
f 255 261 339
f 524 172 337
f 103 218 261
f 360 244 144
f 118 103 139
f 259 297 258
f 297 255 339
f 370 297 339
f 258 260 259
f 261 265 339
f 337 334 300
f 218 103 118
f 223 265 218
f 257 258 215
f 258 304 264
f 263 264 303
f 300 222 316
f 225 215 481
f 270 219 267
f 341 421 342
f 144 244 268
f 262 305 227
f 315 314 378
f 275 343 344
f 185 338 343
f 185 343 221
f 227 340 278
f 347 190 276
f 381 345 380
f 316 312 313
f 276 229 280
f 445 282 236
f 279 285 159
f 317 350 319
f 319 351 235
f 348 350 349
f 441 319 350
f 321 195 235
f 321 351 352
f 352 237 321
f 237 352 390
f 322 237 390
f 353 398 396
f 353 396 325
f 291 198 355
f 291 289 197
f 289 199 357
f 325 358 404
f 403 325 290
f 357 326 289
f 241 384 320
f 384 241 253
f 365 281 244
f 244 453 365
f 281 298 252
f 298 281 365
f 360 336 391
f 361 335 330
f 335 361 302
f 299 245 255
f 297 296 367
f 362 363 376
f 367 371 297
f 172 413 336
f 297 299 255
f 245 299 364
f 332 302 366
f 258 297 370
f 364 223 245
f 370 367 258
f 303 366 426
f 370 362 376
f 261 218 265
f 369 376 373
f 303 481 215
f 376 363 373
f 362 376 370
f 219 481 267
f 267 489 430
f 430 372 267
f 185 315 338
f 343 338 344
f 305 347 340
f 340 227 305
f 340 347 382
f 344 576 314
f 192 280 229
f 270 124 156
f 316 313 415
f 346 431 280
f 372 277 124
f 385 317 230
f 279 383 285
f 387 323 236
f 348 441 350
f 323 387 443
f 319 441 351
f 354 387 353
f 387 389 388
f 387 162 389
f 387 496 353
f 442 351 441
f 440 389 162
f 440 286 444
f 351 442 393
f 393 352 351
f 352 446 390
f 444 286 392
f 196 164 195
f 194 196 195
f 286 395 392
f 322 390 287
f 325 354 353
f 287 390 356
f 287 356 355
f 291 197 163
f 402 354 404
f 396 401 397
f 357 395 326
f 356 357 355
f 354 325 404
f 325 396 290
f 325 401 396
f 401 325 396
f 402 401 396
f 290 396 397
f 290 397 403
f 397 401 403
f 325 403 401
f 397 288 403
f 404 325 401
f 325 404 358
f 403 288 397
f 449 403 397
f 405 403 449
f 320 359 241
f 320 384 439
f 359 365 318
f 365 320 408
f 360 391 244
f 244 457 453
f 367 296 506
f 451 411 331
f 361 459 302
f 339 362 370
f 298 333 296
f 333 452 296
f 413 172 661
f 452 333 292
f 292 333 335
f 452 292 367
f 452 367 506
f 362 339 363
f 416 417 418
f 531 419 475
f 420 368 293
f 370 376 369
f 303 304 366
f 303 264 304
f 412 424 422
f 303 426 481
f 363 339 373
f 293 368 423
f 370 376 362
f 341 375 412
f 375 368 412
f 368 341 412
f 368 375 423
f 342 424 412
f 369 371 370
f 422 423 412
f 364 293 223
f 223 293 265
f 422 421 420
f 424 342 421
f 375 412 423
f 421 341 420
f 341 342 375
f 341 368 420
f 293 563 339
f 424 421 422
f 293 423 563
f 375 342 412
f 339 265 293
f 315 546 338
f 267 481 489
f 372 124 270
f 347 276 568
f 546 315 378
f 338 435 344
f 437 381 383
f 381 437 434
f 380 437 431
f 435 576 344
f 432 277 430
f 340 431 279
f 276 280 636
f 381 434 345
f 431 568 382
f 431 346 380
f 345 434 436
f 346 381 380
f 192 383 280
f 437 279 431
f 382 431 340
f 383 279 437
f 432 385 230
f 313 282 445
f 317 158 231
f 323 386 236
f 285 383 192
f 386 445 236
f 349 575 495
f 348 349 495
f 443 386 323
f 284 235 234
f 387 354 443
f 352 348 495
f 352 495 392
f 393 348 352
f 348 442 441
f 393 442 348
f 443 394 496
f 353 496 394
f 389 440 444
f 446 352 392
f 394 443 354
f 394 398 353
f 402 398 394
f 446 392 395
f 390 446 356
f 402 394 354
f 396 398 402
f 446 395 357
f 357 356 446
f 397 399 449
f 447 401 402
f 397 405 449
f 449 405 397
f 402 404 448
f 404 401 448
f 397 403 405
f 401 447 448
f 318 407 359
f 241 359 503
f 454 455 525
f 253 439 384
f 320 439 408
f 318 365 453
f 330 331 411
f 453 377 318
f 458 327 531
f 244 391 457
f 476 461 462
f 411 361 330
f 408 298 365
f 484 466 465
f 467 468 409
f 531 620 482
f 332 366 304
f 473 462 474
f 473 476 462
f 413 391 336
f 474 410 409
f 474 462 410
f 172 524 661
f 302 606 366
f 299 297 371
f 576 378 314
f 391 413 414
f 413 661 472
f 328 469 417
f 299 371 469
f 477 329 429
f 299 329 477
f 475 454 525
f 364 299 531
f 524 337 630
f 366 543 480
f 370 371 367
f 481 426 488
f 371 369 373
f 480 426 366
f 563 422 460
f 422 293 460
f 630 337 300
f 485 561 486
f 487 485 486
f 293 364 460
f 630 300 415
f 293 422 420
f 563 460 483
f 563 423 422
f 300 316 415
f 489 481 427
f 435 338 546
f 568 431 382
f 432 489 491
f 568 276 636
f 277 230 73
f 489 432 430
f 434 437 436
f 436 380 345
f 277 432 230
f 636 280 583
f 382 579 583
f 280 431 583
f 583 431 382
f 380 436 437
f 230 317 231
f 415 313 445
f 584 492 379
f 383 346 280
f 381 346 383
f 432 586 385
f 385 349 317
f 385 433 349
f 495 575 587
f 386 443 496
f 588 386 496
f 659 392 495
f 444 392 659
f 448 499 402
f 447 402 499
f 399 397 405
f 448 447 499
f 400 399 405
f 499 400 448
f 399 400 449
f 450 448 400
f 499 448 450
f 449 400 405
f 241 503 253
f 439 253 503
f 453 522 463
f 320 365 359
f 408 439 470
f 327 458 477
f 599 456 501
f 451 494 411
f 331 335 333
f 510 511 512
f 522 453 507
f 459 361 411
f 470 331 408
f 513 514 515
f 471 416 516
f 457 391 507
f 501 456 502
f 509 517 490
f 425 463 506
f 506 463 522
f 625 518 519
f 518 625 608
f 469 468 467
f 520 535 550
f 429 521 477
f 603 463 425
f 471 329 328
f 455 516 525
f 516 418 525
f 418 516 416
f 429 329 455
f 526 527 528
f 529 526 528
f 416 328 417
f 540 409 686
f 612 425 506
f 452 506 296
f 469 476 473
f 461 476 504
f 525 418 464
f 468 473 474
f 468 469 473
f 299 458 531
f 371 686 504
f 475 419 454
f 686 410 504
f 414 413 472
f 532 533 534
f 467 409 540
f 302 332 335
f 327 477 521
f 462 536 410
f 461 536 462
f 476 371 504
f 458 299 477
f 468 474 409
f 536 504 410
f 504 536 461
f 469 467 540
f 475 479 540
f 686 371 617
f 476 469 371
f 409 410 686
f 543 366 606
f 327 521 419
f 417 469 479
f 419 429 454
f 419 521 429
f 479 469 540
f 299 469 328
f 531 327 419
f 418 417 464
f 454 429 455
f 471 328 416
f 455 471 516
f 455 329 471
f 464 417 479
f 475 525 479
f 525 464 479
f 541 514 374
f 514 541 515
f 478 541 374
f 304 335 332
f 544 545 478
f 428 511 510
f 547 548 549
f 532 518 608
f 630 661 524
f 552 428 547
f 549 552 547
f 364 531 561
f 608 607 532
f 466 486 465
f 544 478 374
f 626 554 544
f 523 482 374
f 460 561 485
f 486 561 465
f 561 266 465
f 558 559 513
f 487 560 485
f 483 560 484
f 562 466 484
f 562 486 466
f 562 487 486
f 560 562 484
f 487 562 560
f 484 465 557
f 483 484 557
f 364 561 460
f 560 460 485
f 483 557 266
f 266 563 483
f 560 483 460
f 427 481 488
f 545 555 565
f 555 554 565
f 382 347 672
f 546 378 650
f 347 568 672
f 432 491 569
f 572 649 573
f 283 432 569
f 650 576 580
f 435 566 576
f 636 583 577
f 636 584 379
f 491 636 569
f 584 636 577
f 636 379 569
f 492 569 379
f 580 576 574
f 578 581 582
f 578 583 581
f 283 586 432
f 583 573 649
f 415 445 386
f 585 578 582
f 500 575 433
f 651 386 588
f 677 492 584
f 575 349 433
f 495 587 659
f 591 388 389
f 444 591 389
f 499 592 400
f 596 595 594
f 592 498 590
f 592 590 400
f 498 499 450
f 400 590 450
f 590 498 450
f 470 439 503
f 359 407 503
f 407 470 503
f 377 407 318
f 470 407 505
f 407 377 505
f 453 457 507
f 377 453 505
f 470 501 451
f 517 597 490
f 298 331 333
f 508 600 599
f 600 597 599
f 597 600 508
f 505 603 501
f 470 505 501
f 599 501 508
f 451 501 602
f 456 597 601
f 599 597 456
f 501 425 490
f 509 601 517
f 451 602 494
f 470 451 331
f 456 601 502
f 453 463 505
f 505 463 603
f 425 509 490
f 601 509 502
f 602 509 425
f 501 502 602
f 597 508 490
f 502 509 602
f 600 597 517
f 601 600 517
f 601 597 600
f 508 501 490
f 331 298 408
f 501 603 425
f 494 553 411
f 452 612 506
f 459 411 604
f 548 512 660
f 507 391 530
f 331 330 335
f 609 548 660
f 266 557 465
f 530 391 414
f 544 555 545
f 555 544 554
f 512 611 660
f 472 661 598
f 548 510 512
f 613 539 611
f 531 475 540
f 686 617 551
f 558 482 559
f 452 553 612
f 605 550 660
f 459 606 302
f 604 606 459
f 414 472 530
f 527 535 520
f 556 552 535
f 614 553 452
f 452 506 615
f 535 564 550
f 606 614 537
f 611 539 660
f 335 367 292
f 543 606 537
f 535 552 564
f 552 540 428
f 511 613 611
f 613 511 540
f 547 616 548
f 540 686 551
f 556 535 527
f 428 616 547
f 558 513 542
f 335 304 367
f 616 428 510
f 514 559 523
f 559 482 523
f 618 526 619
f 620 618 619
f 526 556 527
f 622 619 621
f 622 620 619
f 406 526 618
f 526 406 556
f 610 554 626
f 613 540 539
f 540 511 428
f 539 551 660
f 527 605 528
f 556 531 540
f 539 540 551
f 607 531 554
f 556 540 552
f 373 617 371
f 605 520 550
f 531 482 558
f 616 510 548
f 512 511 611
f 523 374 514
f 550 564 609
f 564 549 609
f 605 527 520
f 526 529 619
f 608 518 534
f 531 556 406
f 529 528 621
f 528 605 621
f 561 531 607
f 626 544 374
f 552 549 564
f 554 531 558
f 406 618 620
f 559 514 513
f 620 622 482
f 545 565 541
f 478 545 541
f 619 529 621
f 620 531 406
f 623 626 632
f 607 554 610
f 607 608 625
f 565 542 515
f 565 554 542
f 554 558 542
f 561 607 625
f 565 515 541
f 542 513 515
f 518 532 534
f 627 628 623
f 628 627 533
f 373 339 662
f 632 519 608
f 519 518 608
f 534 627 623
f 627 534 533
f 561 625 632
f 532 610 628
f 533 532 628
f 532 607 610
f 632 534 623
f 534 632 608
f 632 625 519
f 623 628 626
f 628 610 626
f 561 632 662
f 426 480 543
f 563 561 662
f 563 266 561
f 488 426 543
f 488 543 631
f 415 693 630
f 634 427 688
f 427 634 571
f 427 571 489
f 637 638 639
f 638 640 639
f 640 638 637
f 641 637 671
f 489 571 491
f 672 568 636
f 571 636 491
f 546 566 435
f 645 585 646
f 647 648 642
f 650 378 576
f 650 580 438
f 583 643 581
f 572 573 645
f 648 636 642
f 580 433 438
f 581 643 582
f 582 643 646
f 646 585 582
f 580 493 433
f 415 386 675
f 645 573 578
f 643 572 646
f 584 577 677
f 586 438 433
f 569 586 283
f 569 677 657
f 586 569 657
f 569 492 677
f 652 594 653
f 594 595 653
f 675 386 651
f 654 655 656
f 654 652 655
f 651 588 591
f 575 589 587
f 591 444 651
f 593 589 575
f 591 497 588
f 591 588 497
f 498 497 592
f 498 592 499
f 592 497 498
f 507 635 522
f 635 507 530
f 494 602 425
f 374 482 622
f 553 604 411
f 553 494 612
f 506 522 567
f 425 612 494
f 567 522 635
f 604 553 606
f 609 549 548
f 553 614 606
f 537 614 538
f 530 472 598
f 605 622 621
f 551 617 537
f 452 615 614
f 615 506 567
f 537 689 551
f 598 661 630
f 617 633 543
f 550 609 660
f 622 605 660
f 543 537 617
f 633 617 629
f 374 622 667
f 626 374 667
f 373 629 617
f 671 648 641
f 648 647 641
f 662 632 626
f 543 633 631
f 367 304 258
f 662 339 563
f 629 373 662
f 631 427 488
f 427 631 688
f 571 640 642
f 579 672 669
f 634 688 671
f 579 382 672
f 672 671 669
f 637 647 642
f 640 637 642
f 639 640 571
f 634 671 571
f 672 636 671
f 671 637 639
f 648 671 636
f 639 571 671
f 636 571 642
f 647 637 638
f 637 641 638
f 641 647 638
f 650 673 546
f 690 579 669
f 566 574 576
f 580 574 493
f 579 690 643
f 643 583 579
f 646 572 645
f 649 572 643
f 649 643 690
f 573 583 578
f 645 578 585
f 649 577 583
f 433 493 500
f 596 676 595
f 385 586 433
f 644 657 695
f 657 644 586
f 644 438 586
f 696 674 680
f 570 680 676
f 695 657 593
f 695 575 500
f 691 678 570
f 691 696 678
f 596 594 652
f 657 677 694
f 694 593 657
f 696 680 681
f 695 593 575
f 683 655 653
f 444 697 651
f 444 659 697
f 659 587 697
f 685 720 684
f 658 635 530
f 662 626 667
f 622 660 667
f 689 537 538
f 665 598 630
f 615 538 614
f 667 666 662
f 662 668 629
f 668 662 666
f 663 630 693
f 633 629 668
f 633 668 631
f 668 666 688
f 631 668 688
f 688 666 669
f 671 688 669
f 415 675 693
f 660 551 667
f 650 438 644
f 691 692 596
f 679 691 596
f 566 493 574
f 577 649 690
f 682 693 675
f 500 493 695
f 596 692 676
f 654 656 698
f 694 654 698
f 692 570 676
f 691 570 692
f 677 674 696
f 691 679 696
f 679 677 696
f 680 694 698
f 596 652 677
f 680 683 595
f 654 694 652
f 680 698 656
f 589 697 587
f 658 530 598
f 658 598 704
f 704 598 705
f 624 615 567
f 598 665 703
f 598 703 705
f 667 551 689
f 665 630 663
f 716 663 693
f 650 644 673
f 673 566 546
f 644 695 673
f 566 673 493
f 673 695 493
f 690 674 577
f 675 651 682
f 577 674 677
f 679 596 677
f 682 651 700
f 652 694 677
f 678 680 570
f 680 656 683
f 680 678 681
f 678 696 681
f 595 676 680
f 656 655 683
f 595 683 653
f 655 652 653
f 589 680 707
f 680 593 694
f 593 680 589
f 700 651 697
f 707 700 697
f 589 707 697
f 635 658 699
f 664 567 635
f 699 658 704
f 711 701 685
f 723 615 624
f 538 615 687
f 538 687 712
f 713 714 723
f 710 666 667
f 669 666 710
f 693 718 716
f 718 693 682
f 718 682 700
f 680 719 707
f 699 664 635
f 720 699 704
f 709 624 664
f 624 567 664
f 721 714 713
f 713 723 701
f 720 701 709
f 721 713 701
f 711 722 684
f 722 685 684
f 722 711 685
f 722 684 708
f 721 684 722
f 704 687 723
f 714 708 723
f 721 701 711
f 685 701 720
f 709 701 624
f 684 720 708
f 721 722 714
f 722 708 714
f 708 720 723
f 721 711 684
f 723 624 701
f 705 703 712
f 723 687 615
f 687 704 705
f 687 705 712
f 665 702 703
f 712 703 724
f 689 538 712
f 703 702 724
f 726 730 670
f 715 726 727
f 663 716 731
f 702 665 715
f 715 728 729
f 729 730 702
f 728 715 727
f 715 665 726
f 702 715 729
f 728 727 670
f 729 728 670
f 730 729 670
f 726 665 730
f 727 726 670
f 689 725 667
f 663 730 665
f 710 690 669
f 716 718 731
f 710 732 690
f 718 717 731
f 732 674 690
f 718 700 719
f 674 719 680
f 719 674 732
f 700 707 719
f 664 699 720
f 664 720 709
f 720 704 723
f 689 712 724
f 689 724 725
f 730 724 702
f 730 725 724
f 725 710 667
f 710 725 730
f 663 731 730
f 730 731 710
f 731 706 710
f 717 706 731
f 732 710 706
f 706 717 732
f 719 717 718
f 732 717 719
f 317 349 350
f 496 387 388
f 496 388 588
f 588 388 591

