# https://github.com/mikedh/trimesh
v 0.11663766 0.06580118 0.11684581
v 0.11883191 0.06580118 0.11792408
v 0.11412596 0.06580118 0.11687032
v 0.11412596 0.07159854 0.00557560
v 0.11922336 0.06580118 0.11875729
v 0.11663766 0.07167150 0.00557560
v 0.11179980 0.06580118 0.11794859
v 0.11164107 0.07202521 0.00557560
v 0.11073162 0.06580118 0.12049723
v 0.11988614 0.06580118 0.12049723
v 0.11684250 0.07171750 0.00557560
v 0.11020934 0.07289125 0.00557560
v 0.11071768 0.06580118 0.12300911
v 0.10928059 0.07432354 0.00557560
v 0.11999660 0.06580118 0.12147747
v 0.11872573 0.07223617 0.00557560
v 0.11072733 0.06580118 0.12552099
v 0.10992835 0.07432354 0.08028263
v 0.10928059 0.07449485 0.00557560
v 0.12023683 0.06580118 0.12614590
v 0.11934133 0.07432671 0.00557560
v 0.11103299 0.06580118 0.12803288
v 0.11073270 0.06678776 0.12552099
v 0.11034340 0.07336709 0.10471526
v 0.11006777 0.07432354 0.09034240
v 0.11002166 0.07432354 0.08783052
v 0.10998519 0.07432354 0.08531864
v 0.10995195 0.07432354 0.08279451
v 0.10930203 0.07677414 0.00557560
v 0.11963625 0.07683758 0.10290181
v 0.11962875 0.07683758 0.10541369
v 0.11954938 0.07683758 0.10792557
v 0.11939388 0.07683758 0.11044971
v 0.11946788 0.07432354 0.11547347
v 0.11918475 0.07683758 0.11296159
v 0.11950005 0.07181426 0.12049723
v 0.11879866 0.07200460 0.12320516
v 0.11849516 0.07126545 0.12552099
v 0.11818629 0.07076740 0.12695460
v 0.11966843 0.06580118 0.12734670
v 0.11962338 0.07683917 0.00557560
v 0.11953223 0.07882026 0.00557560
v 0.11210652 0.06580118 0.13016491
v 0.11114988 0.06678776 0.12803288
v 0.11092038 0.06930180 0.12552099
v 0.11071983 0.07181426 0.12049723
v 0.11063296 0.07432354 0.11547347
v 0.11056539 0.07432354 0.11296159
v 0.11050963 0.07432354 0.11044971
v 0.11035948 0.07549094 0.10148045
v 0.11017717 0.07432354 0.09536617
v 0.11034125 0.07576693 0.09980178
v 0.11031980 0.07600327 0.09787804
v 0.11029299 0.07626815 0.09536617
v 0.11026403 0.07648863 0.09285428
v 0.11023722 0.07667421 0.09034240
v 0.11017287 0.07683758 0.08531864
v 0.11013748 0.07683758 0.08279451
v 0.10989725 0.07683917 0.06557893
v 0.10985864 0.07683917 0.06269946
v 0.10983290 0.07683917 0.06018758
v 0.10977285 0.07935162 0.02499673
v 0.10975462 0.07935162 0.02248485
v 0.11008707 0.08090763 0.02248485
v 0.11020612 0.08077440 0.01997297
v 0.11160997 0.07930562 0.00557560
v 0.11949790 0.07935162 0.00557560
v 0.11890162 0.07935162 0.09285428
v 0.11888338 0.07935162 0.09536617
v 0.11885014 0.07935162 0.09787804
v 0.11875683 0.07920094 0.10541369
v 0.11867748 0.07904233 0.10792557
v 0.11852304 0.07885992 0.11044971
v 0.11835681 0.07866324 0.11296159
v 0.11814661 0.07840787 0.11481180
v 0.11860777 0.07699302 0.11558375
v 0.11920727 0.07432354 0.11798535
v 0.11861420 0.07436002 0.12041146
v 0.11833750 0.07354791 0.12248223
v 0.11663766 0.07094664 0.12710164
v 0.11327764 0.06830094 0.12944198
v 0.11412381 0.06580118 0.13072855
v 0.11664302 0.06580118 0.12978506
v 0.11714171 0.06580118 0.12951549
v 0.11844582 0.06580118 0.12849849
v 0.11808870 0.07576693 0.11951698
v 0.11748383 0.07296739 0.12416090
v 0.11664302 0.07231389 0.12533719
v 0.11259341 0.06830094 0.12944198
v 0.11221162 0.06678776 0.12984633
v 0.11198426 0.06920504 0.12800837
v 0.11193922 0.07179205 0.12544747
v 0.11102870 0.07181426 0.12300911
v 0.11087641 0.07432354 0.11798535
v 0.11082921 0.07683758 0.11296159
v 0.11066621 0.07683758 0.11044971
v 0.11060937 0.07683758 0.10792557
v 0.11055360 0.07683758 0.10541369
v 0.11043777 0.07726108 0.09787804
v 0.11041632 0.07752438 0.09536617
v 0.11039594 0.07774485 0.09285428
v 0.11023722 0.07705964 0.08783052
v 0.11037557 0.07793202 0.09034240
v 0.11036270 0.07804464 0.08866373
v 0.10991548 0.07935162 0.03756839
v 0.10985543 0.07935162 0.03254463
v 0.10979966 0.07935162 0.02752087
v 0.11034983 0.07810967 0.08698506
v 0.11010424 0.08088384 0.02499673
v 0.11161318 0.08137079 0.02499673
v 0.11161318 0.08139299 0.02248485
v 0.11432115 0.08156906 0.00557560
v 0.11890484 0.08079026 0.00557560
v 0.11865281 0.08138189 0.00557560
v 0.11801255 0.08067129 0.09536617
v 0.11797931 0.08065226 0.09787804
v 0.11876542 0.07930721 0.10290181
v 0.11793426 0.08063006 0.09977727
v 0.11663766 0.07972595 0.11044971
v 0.11663766 0.07935956 0.11296159
v 0.11663766 0.07862199 0.11521615
v 0.11663766 0.07793520 0.11647822
v 0.11834930 0.07622692 0.11798535
v 0.11412596 0.07233293 0.12583957
v 0.11412596 0.07107670 0.12724867
v 0.11663766 0.07705647 0.11798535
v 0.11663766 0.07595886 0.11982331
v 0.11664302 0.07376997 0.12320516
v 0.11580865 0.07314186 0.12438145
v 0.11663766 0.07514834 0.12108538
v 0.11412596 0.07326082 0.12457750
v 0.11236712 0.07094029 0.12715065
v 0.11250440 0.07325289 0.12457750
v 0.11207649 0.07368115 0.12300911
v 0.11173759 0.07445360 0.12052174
v 0.11199820 0.07628878 0.11798535
v 0.11168396 0.07700413 0.11557149
v 0.11182017 0.07889957 0.11044971
v 0.11195745 0.07871716 0.11296159
v 0.11036377 0.08059674 0.04624357
v 0.11033696 0.08062847 0.04456490
v 0.10995195 0.07935162 0.04008027
v 0.11018896 0.08078709 0.03254463
v 0.11013212 0.08085212 0.02752087
v 0.11031122 0.08065385 0.04259215
v 0.11024795 0.08072205 0.03756839
v 0.11021792 0.08075378 0.03505651
v 0.11161318 0.08117252 0.04008027
v 0.11161318 0.08120741 0.03756839
v 0.11161318 0.08124073 0.03505651
v 0.11161318 0.08130575 0.03003275
v 0.11412596 0.08138506 0.05767569
v 0.11412596 0.08148182 0.05014005
v 0.11412596 0.08154209 0.04510404
v 0.11412596 0.08156588 0.04259215
v 0.11412596 0.08157857 0.04008027
v 0.11663766 0.08200366 0.00557560
v 0.11617007 0.08191959 0.00557560
v 0.11663766 0.08125500 0.06557893
v 0.11663766 0.08122486 0.06773547
v 0.11770797 0.08063006 0.09977727
v 0.11663766 0.08023669 0.10541369
v 0.11663766 0.08001304 0.10792557
v 0.11412596 0.07976561 0.11044971
v 0.11412596 0.07941190 0.11296159
v 0.11412596 0.07862041 0.11520390
v 0.11412596 0.07795105 0.11645371
v 0.11412596 0.07711833 0.11798535
v 0.11412596 0.07600644 0.11995810
v 0.11412596 0.07526254 0.12122016
v 0.11241431 0.07582720 0.11970078
v 0.11234138 0.07840469 0.11478729
v 0.11412596 0.07991629 0.10792557
v 0.11412596 0.08002732 0.10541369
v 0.11292588 0.08059992 0.08115259
v 0.11283687 0.08062054 0.07947392
v 0.11258591 0.08070619 0.07274698
v 0.11232101 0.08079819 0.06557893
v 0.11203144 0.08089970 0.05767569
v 0.11175904 0.08099487 0.05014005
v 0.11136652 0.08097742 0.04528783
v 0.11161318 0.08112493 0.04259215
v 0.11412596 0.08126927 0.06521134
v 0.11412596 0.08131369 0.06269946
v 0.11412596 0.08135017 0.06018758
v 0.11412596 0.08126134 0.06557893
v 0.11412596 0.08121217 0.06773547
v 0.11504077 0.08065702 0.09034240
v 0.11525311 0.08062530 0.09207009
v 0.11677708 0.08049999 0.10052471
v 0.11663766 0.08038738 0.10290181
v 0.11412596 0.08011615 0.10290181
v 0.11350500 0.08051427 0.08783052
v 0.11326370 0.08054599 0.08531864
v 0.11305135 0.08057771 0.08279451
v 0.11167002 0.08102659 0.04761592
v 0.11412596 0.08113921 0.07023510
v 0.11476085 0.08069985 0.08783052
v 0.11412596 0.08037310 0.09536617
v 0.11412596 0.08028904 0.09787804
v 0.11378491 0.08048096 0.09034240
v 0.11430935 0.08079026 0.08279451
v 0.11451955 0.08074425 0.08531864
f 1 2 5
f 1 5 10
f 1 10 15
f 1 15 20
f 1 20 40
f 1 40 85
f 1 85 84
f 1 84 83
f 1 83 82
f 1 82 43
f 1 43 22
f 1 22 17
f 1 17 13
f 1 13 9
f 1 9 7
f 1 7 3
f 1 3 4
f 1 4 2
f 2 4 6
f 2 6 5
f 3 7 4
f 4 8 12
f 4 12 14
f 4 14 19
f 4 19 29
f 4 29 66
f 4 66 112
f 4 112 158
f 4 158 157
f 4 157 114
f 4 114 113
f 4 113 67
f 4 67 42
f 4 42 41
f 4 41 21
f 4 21 16
f 4 16 11
f 4 11 6
f 4 7 9
f 4 9 8
f 5 6 10
f 6 11 10
f 8 9 12
f 9 13 14
f 9 14 12
f 10 11 16
f 10 16 15
f 13 17 14
f 14 18 19
f 14 17 18
f 15 16 20
f 16 21 20
f 17 22 23
f 17 23 24
f 17 24 25
f 17 25 26
f 17 26 27
f 17 27 28
f 17 28 18
f 18 28 29
f 18 29 19
f 20 30 31
f 20 31 32
f 20 32 33
f 20 33 34
f 20 34 35
f 20 35 36
f 20 36 37
f 20 37 38
f 20 38 39
f 20 39 40
f 20 21 41
f 20 41 42
f 20 42 30
f 22 43 44
f 22 44 45
f 22 45 23
f 23 45 46
f 23 46 47
f 23 47 48
f 23 48 24
f 24 48 49
f 24 49 50
f 24 50 51
f 24 51 25
f 25 51 50
f 25 50 52
f 25 52 53
f 25 53 26
f 26 53 54
f 26 54 55
f 26 55 56
f 26 56 57
f 26 57 27
f 27 57 58
f 27 58 59
f 27 59 60
f 27 60 28
f 28 60 61
f 28 61 29
f 29 62 63
f 29 63 64
f 29 64 65
f 29 65 66
f 29 61 62
f 30 42 67
f 30 67 31
f 31 68 69
f 31 69 70
f 31 70 71
f 31 71 32
f 31 67 68
f 32 71 72
f 32 72 33
f 33 72 35
f 33 35 34
f 35 72 73
f 35 73 74
f 35 74 75
f 35 75 76
f 35 76 77
f 35 77 36
f 36 77 37
f 37 77 78
f 37 78 38
f 38 78 79
f 38 79 39
f 39 80 81
f 39 81 82
f 39 82 83
f 39 83 84
f 39 84 85
f 39 85 40
f 39 79 86
f 39 86 87
f 39 87 88
f 39 88 80
f 43 82 89
f 43 89 90
f 43 90 44
f 44 90 91
f 44 91 45
f 45 92 93
f 45 93 46
f 45 91 92
f 46 94 47
f 46 93 94
f 47 94 95
f 47 95 96
f 47 96 48
f 48 96 50
f 48 50 49
f 50 96 52
f 52 96 97
f 52 97 98
f 52 98 53
f 53 98 99
f 53 99 54
f 54 99 55
f 55 99 100
f 55 100 56
f 56 100 101
f 56 101 102
f 56 102 57
f 57 102 103
f 57 103 104
f 57 104 58
f 58 104 59
f 59 104 60
f 60 105 106
f 60 106 107
f 60 107 62
f 60 62 61
f 60 104 108
f 60 108 105
f 62 109 64
f 62 64 63
f 62 107 109
f 64 109 110
f 64 110 111
f 64 111 112
f 64 112 65
f 65 112 66
f 67 113 68
f 68 113 114
f 68 114 69
f 69 115 70
f 69 114 115
f 70 116 117
f 70 117 71
f 70 115 116
f 71 117 118
f 71 118 72
f 72 118 73
f 73 118 74
f 74 118 119
f 74 119 120
f 74 120 75
f 75 120 121
f 75 121 122
f 75 122 86
f 75 86 123
f 75 123 78
f 75 78 76
f 76 78 77
f 78 123 86
f 78 86 79
f 80 88 124
f 80 124 125
f 80 125 81
f 81 89 82
f 81 125 89
f 86 122 126
f 86 126 127
f 86 127 87
f 87 128 129
f 87 129 88
f 87 127 130
f 87 130 128
f 88 129 131
f 88 131 124
f 89 125 132
f 89 132 91
f 89 91 90
f 91 132 92
f 92 133 134
f 92 134 93
f 92 132 133
f 93 134 94
f 94 134 135
f 94 135 136
f 94 136 137
f 94 137 95
f 95 138 96
f 95 137 139
f 95 139 138
f 96 138 104
f 96 104 103
f 96 103 101
f 96 101 100
f 96 100 99
f 96 99 97
f 97 99 98
f 101 103 102
f 104 138 140
f 104 140 141
f 104 141 108
f 105 142 143
f 105 143 144
f 105 144 109
f 105 109 106
f 105 108 142
f 106 109 107
f 108 141 145
f 108 145 146
f 108 146 147
f 108 147 142
f 109 144 148
f 109 148 149
f 109 149 150
f 109 150 151
f 109 151 110
f 110 151 152
f 110 152 153
f 110 153 154
f 110 154 155
f 110 155 111
f 111 155 156
f 111 156 157
f 111 157 158
f 111 158 112
f 114 157 115
f 115 157 116
f 116 118 117
f 116 157 159
f 116 159 160
f 116 160 118
f 118 160 161
f 118 161 162
f 118 162 163
f 118 163 119
f 119 164 165
f 119 165 120
f 119 163 164
f 120 165 121
f 121 165 166
f 121 166 167
f 121 167 168
f 121 168 122
f 122 168 169
f 122 169 126
f 124 131 133
f 124 133 125
f 125 133 132
f 126 169 170
f 126 170 131
f 126 131 127
f 127 131 130
f 128 130 129
f 129 130 131
f 131 170 133
f 133 170 169
f 133 169 168
f 133 168 167
f 133 167 166
f 133 166 171
f 133 171 134
f 134 171 172
f 134 172 136
f 134 136 135
f 136 172 137
f 137 172 139
f 138 139 164
f 138 164 173
f 138 173 174
f 138 174 175
f 138 175 176
f 138 176 140
f 139 172 165
f 139 165 164
f 140 176 177
f 140 177 178
f 140 178 179
f 140 179 180
f 140 180 181
f 140 181 141
f 141 181 182
f 141 182 148
f 141 148 146
f 141 146 145
f 142 147 143
f 143 147 146
f 143 146 148
f 143 148 144
f 148 182 183
f 148 183 184
f 148 184 185
f 148 185 152
f 148 152 149
f 149 152 150
f 150 152 151
f 152 185 159
f 152 159 153
f 153 159 157
f 153 157 154
f 154 157 155
f 155 157 156
f 159 185 160
f 160 185 184
f 160 184 183
f 160 183 161
f 161 183 186
f 161 186 187
f 161 187 188
f 161 188 189
f 161 189 190
f 161 190 174
f 161 174 191
f 161 191 162
f 162 191 164
f 162 164 163
f 164 191 173
f 165 172 166
f 166 172 171
f 173 191 174
f 174 190 192
f 174 192 193
f 174 193 194
f 174 194 195
f 174 195 175
f 175 187 176
f 175 195 187
f 176 187 186
f 176 186 178
f 176 178 177
f 178 186 179
f 179 182 180
f 179 186 182
f 180 182 196
f 180 196 181
f 181 196 182
f 182 186 183
f 187 195 194
f 187 194 197
f 187 197 198
f 187 198 188
f 188 198 199
f 188 199 200
f 188 200 189
f 189 200 192
f 189 192 190
f 192 200 193
f 193 201 202
f 193 202 197
f 193 197 194
f 193 200 201
f 197 202 203
f 197 203 198
f 198 203 199
f 199 203 201
f 199 201 200
f 201 203 202

