# https://github.com/mikedh/trimesh
v 0.00101694 -0.08225079 0.03254233
v -0.00149457 -0.08219663 0.06269458
v -0.00149457 -0.08217693 0.05263968
v -0.00149457 -0.08216216 0.04511095
v -0.00149457 -0.08214575 0.03755734
v -0.00149457 -0.08211128 0.02248743
v -0.00149457 -0.08210307 0.01997371
v 0.00101694 -0.08223767 0.03002861
v 0.00341710 -0.08123973 0.00556335
v 0.00349808 -0.08125122 0.03254233
v 0.00101694 -0.08225079 0.06558163
v -0.00149583 -0.08221469 0.07777692
v -0.00149583 -0.08221305 0.07526320
v -0.00149583 -0.08220977 0.07274947
v -0.00149583 -0.08220320 0.06773447
v -0.00387702 -0.08109857 0.01745999
v -0.00371254 -0.08113797 0.00556335
v -0.00149457 -0.08208338 0.01745999
v 0.00101694 -0.08218678 0.02751488
v 0.00101694 -0.08163857 0.00556335
v 0.00664473 -0.07902885 0.00556335
v 0.00349808 -0.08125122 0.11044289
v 0.00101694 -0.08224915 0.11044289
v -0.00149583 -0.08220648 0.09034554
v -0.00365181 -0.08121511 0.07526320
v -0.00368217 -0.08120198 0.06558163
v -0.00372645 -0.08117900 0.05263968
v -0.00380869 -0.08113633 0.03254233
v -0.00511316 -0.07899602 0.01243254
v -0.00388967 -0.08108380 0.01494626
v -0.00390612 -0.08083432 0.00556335
v -0.00334562 -0.08121183 0.00556335
v -0.00149457 -0.08199967 0.01494626
v -0.00389726 -0.08101651 0.01243254
v -0.00149457 -0.08155815 0.00556335
v 0.00708251 -0.07798003 0.00556335
v 0.00472156 -0.07899602 0.11295661
v 0.00349048 -0.08113797 0.11295661
v 0.00101694 -0.08202593 0.11295661
v -0.00149583 -0.08218022 0.11044289
v -0.00149583 -0.08218514 0.10792916
v -0.00149583 -0.08220156 0.09537299
v -0.00364295 -0.08121511 0.07777692
v -0.00509292 -0.07899602 0.01494626
v -0.00559016 -0.07648313 0.00556335
v -0.00509165 -0.07899602 0.00991881
v -0.00355818 -0.08120198 0.09537299
v -0.00348479 -0.08118228 0.11044289
v -0.00485378 -0.07899602 0.00556335
v 0.00733555 -0.07647985 0.00556335
v 0.00473042 -0.07648149 0.11798406
v 0.00463806 -0.07648149 0.12049778
v 0.00453557 -0.07899602 0.11547034
v 0.00330576 -0.08079000 0.11547034
v 0.00284142 -0.08045353 0.11726230
v 0.00101694 -0.08132672 0.11547034
v -0.00149583 -0.08194879 0.11295661
v -0.00343671 -0.08106247 0.11295661
v -0.00356956 -0.08120527 0.09285926
v -0.00361764 -0.08121347 0.08280437
v -0.00455139 -0.07899602 0.07777692
v -0.00558256 -0.07397024 0.00556335
v -0.00538013 -0.07730052 0.00556335
v -0.00443119 -0.07899602 0.09034554
v -0.00423635 -0.07899602 0.11044289
v -0.00422622 -0.07648149 0.11547034
v -0.00428822 -0.07396860 0.11295661
v -0.00418447 -0.06643157 0.12803896
v -0.00418447 -0.06548452 0.12803896
v -0.00417562 -0.07899602 0.11295661
v 0.00733302 -0.07518976 0.00556335
v 0.00473169 -0.06548452 0.12803896
v 0.00473042 -0.06643157 0.12803896
v 0.00473422 -0.06894610 0.12552523
v 0.00473295 -0.07396860 0.12049778
v 0.00467349 -0.06894610 0.12803896
v 0.00465830 -0.07396860 0.12301151
v 0.00340824 -0.07850034 0.12049778
v 0.00364864 -0.07158373 0.12815095
v 0.00361448 -0.07647657 0.12297417
v 0.00297047 -0.07803092 0.12212797
v 0.00101694 -0.07993815 0.11865605
v 0.00101694 -0.08055201 0.11739919
v -0.00163501 -0.08095742 0.11565700
v -0.00317987 -0.08071450 0.11494768
v -0.00359107 -0.07919791 0.11565700
v -0.00493729 -0.07145243 0.00556335
v -0.00418447 -0.06548452 0.12301151
v -0.00418194 -0.07396860 0.12049778
v -0.00418321 -0.07145900 0.12301151
v -0.00399848 -0.07145900 0.12552523
v -0.00415790 -0.06548452 0.12898472
v -0.00404403 -0.07648149 0.11798406
v 0.00481899 -0.07016890 0.00556335
v 0.00473422 -0.06548452 0.12301151
v 0.00473422 -0.06548452 0.12552523
v 0.00400164 -0.06548452 0.13066468
v 0.00344241 -0.06894610 0.13012958
v 0.00301728 -0.07082872 0.12966915
v 0.00300210 -0.07314301 0.12739185
v 0.00101694 -0.07225997 0.12879805
v 0.00101694 -0.07575273 0.12485325
v 0.00145091 -0.07803092 0.12212797
v -0.00088978 -0.08045025 0.11708808
v -0.00256496 -0.08016958 0.11662764
v -0.00301665 -0.07797347 0.11960180
v -0.00320771 -0.07575930 0.12258841
v -0.00347594 -0.07655043 0.12047290
v -0.00401113 -0.07031990 0.00556335
v -0.00385677 -0.06548452 0.12144354
v -0.00149457 -0.06964531 0.00556335
v -0.00333549 -0.07355991 0.12552523
v -0.00306853 -0.07301006 0.12711809
v -0.00381882 -0.06643157 0.13055268
v -0.00393016 -0.06548452 0.13055268
v 0.00254535 -0.06963382 0.00556335
v 0.00467222 -0.06548452 0.12049778
v 0.00295276 -0.06548452 0.13212064
v 0.00288064 -0.06577175 0.13205843
v 0.00101694 -0.06894610 0.13107533
v 0.00101694 -0.07100270 0.12990559
v -0.00149583 -0.07066130 0.12976870
v -0.00149583 -0.07191693 0.12859894
v -0.00149583 -0.07324477 0.12732964
v -0.00106439 -0.07551966 0.12462925
v -0.00022300 -0.07773383 0.12174220
v -0.00173876 -0.07622216 0.12326039
v -0.00163501 -0.07965748 0.11794673
v -0.00149583 -0.07831322 0.12013691
v -0.00273957 -0.07521930 0.12425593
v -0.00355312 -0.06548452 0.12041068
v 0.00101694 -0.06963054 0.00556335
v -0.00309889 -0.06548452 0.11953958
v -0.00288127 -0.06548452 0.11915381
v -0.00219804 -0.06548452 0.11897960
v -0.00155656 -0.06548452 0.11884271
v 0.00003511 -0.06548452 0.11855649
v 0.00101694 -0.06548452 0.11838227
v -0.00283572 -0.06781194 0.13185932
v -0.00316722 -0.06876720 0.13041580
v -0.00310269 -0.06643157 0.13209576
v -0.00366066 -0.06548452 0.13128688
v 0.00344241 -0.06548452 0.11870582
v 0.00101694 -0.06548452 0.13258108
v 0.00101694 -0.06624446 0.13226997
v 0.00101694 -0.06750009 0.13172243
v -0.00029385 -0.06768063 0.13180954
v -0.00196903 -0.06781194 0.13185932
v -0.00149583 -0.07750733 0.12139376
v -0.00137184 -0.06548452 0.13269308
v -0.00249664 -0.06548452 0.13253131
v -0.00321403 -0.06548452 0.13224509
v -0.00028500 -0.06548452 0.13266819
f 1 2 3
f 1 3 4
f 1 4 5
f 1 5 6
f 1 6 7
f 1 7 8
f 1 8 9
f 1 9 10
f 1 10 22
f 1 22 11
f 1 11 12
f 1 12 13
f 1 13 14
f 1 14 15
f 1 15 2
f 2 16 3
f 2 15 16
f 3 16 4
f 4 16 5
f 5 16 6
f 6 16 17
f 6 17 7
f 7 18 8
f 7 17 18
f 8 18 19
f 8 19 9
f 9 20 35
f 9 35 32
f 9 32 17
f 9 17 31
f 9 31 49
f 9 49 63
f 9 63 45
f 9 45 62
f 9 62 87
f 9 87 109
f 9 109 111
f 9 111 132
f 9 132 116
f 9 116 94
f 9 94 71
f 9 71 50
f 9 50 36
f 9 36 21
f 9 21 10
f 9 19 20
f 10 21 22
f 11 22 23
f 11 23 12
f 12 24 25
f 12 25 26
f 12 26 27
f 12 27 28
f 12 28 16
f 12 16 13
f 12 23 24
f 13 16 14
f 14 16 15
f 16 28 26
f 16 26 25
f 16 25 29
f 16 29 30
f 16 30 17
f 17 32 33
f 17 33 18
f 17 30 34
f 17 34 31
f 18 33 20
f 18 20 19
f 20 33 35
f 21 36 37
f 21 37 22
f 22 37 38
f 22 38 23
f 23 38 39
f 23 39 40
f 23 40 41
f 23 41 42
f 23 42 24
f 24 42 25
f 25 42 41
f 25 41 43
f 25 43 29
f 26 28 27
f 29 44 45
f 29 45 46
f 29 46 30
f 29 43 47
f 29 47 48
f 29 48 44
f 30 46 34
f 31 34 46
f 31 46 49
f 32 35 33
f 36 50 37
f 37 51 52
f 37 52 53
f 37 53 38
f 37 50 51
f 38 53 54
f 38 54 39
f 39 54 55
f 39 55 56
f 39 56 57
f 39 57 40
f 40 57 58
f 40 58 48
f 40 48 47
f 40 47 59
f 40 59 60
f 40 60 43
f 40 43 41
f 43 60 59
f 43 59 47
f 44 61 45
f 44 48 61
f 45 63 46
f 45 61 64
f 45 64 65
f 45 65 66
f 45 66 67
f 45 67 68
f 45 68 69
f 45 69 62
f 46 63 49
f 48 58 70
f 48 70 65
f 48 65 64
f 48 64 61
f 50 71 72
f 50 72 73
f 50 73 74
f 50 74 75
f 50 75 51
f 51 75 76
f 51 76 77
f 51 77 52
f 52 78 53
f 52 77 79
f 52 79 80
f 52 80 78
f 53 78 54
f 54 78 55
f 55 78 81
f 55 81 82
f 55 82 83
f 55 83 56
f 56 83 84
f 56 84 57
f 57 84 85
f 57 85 58
f 58 85 86
f 58 86 70
f 62 69 88
f 62 88 87
f 65 70 66
f 66 70 89
f 66 89 90
f 66 90 68
f 66 68 67
f 68 90 91
f 68 91 92
f 68 92 69
f 69 92 115
f 69 115 142
f 69 142 152
f 69 152 151
f 69 151 150
f 69 150 153
f 69 153 144
f 69 144 118
f 69 118 97
f 69 97 72
f 69 72 96
f 69 96 95
f 69 95 117
f 69 117 143
f 69 143 138
f 69 138 137
f 69 137 136
f 69 136 135
f 69 135 134
f 69 134 133
f 69 133 131
f 69 131 110
f 69 110 88
f 70 86 93
f 70 93 89
f 71 94 95
f 71 95 96
f 71 96 72
f 72 97 73
f 73 97 76
f 73 76 74
f 74 76 75
f 76 97 98
f 76 98 79
f 76 79 77
f 78 80 81
f 79 98 99
f 79 99 100
f 79 100 80
f 80 100 81
f 81 100 101
f 81 101 102
f 81 102 103
f 81 103 82
f 82 104 83
f 82 103 104
f 83 104 84
f 84 104 105
f 84 105 85
f 85 105 106
f 85 106 107
f 85 107 108
f 85 108 86
f 86 108 93
f 87 88 109
f 88 110 111
f 88 111 109
f 89 93 91
f 89 91 90
f 91 112 113
f 91 113 114
f 91 114 115
f 91 115 92
f 91 93 112
f 93 108 112
f 94 116 117
f 94 117 95
f 97 118 98
f 98 118 119
f 98 119 99
f 99 101 100
f 99 119 120
f 99 120 121
f 99 121 101
f 101 121 122
f 101 122 123
f 101 123 124
f 101 124 102
f 102 124 125
f 102 125 103
f 103 126 104
f 103 125 127
f 103 127 126
f 104 128 105
f 104 126 128
f 105 128 129
f 105 129 130
f 105 130 106
f 106 130 113
f 106 113 107
f 107 113 112
f 107 112 108
f 110 131 111
f 111 131 133
f 111 133 134
f 111 134 135
f 111 135 136
f 111 136 137
f 111 137 138
f 111 138 132
f 113 130 125
f 113 125 124
f 113 124 123
f 113 123 122
f 113 122 139
f 113 139 140
f 113 140 114
f 114 140 139
f 114 139 141
f 114 141 142
f 114 142 115
f 116 132 138
f 116 138 143
f 116 143 117
f 118 144 119
f 119 144 145
f 119 145 146
f 119 146 120
f 120 146 147
f 120 147 148
f 120 148 121
f 121 148 139
f 121 139 122
f 125 130 127
f 126 127 149
f 126 149 129
f 126 129 128
f 127 130 129
f 127 129 149
f 139 148 150
f 139 150 151
f 139 151 141
f 141 151 152
f 141 152 142
f 144 153 147
f 144 147 145
f 145 147 146
f 147 153 148
f 148 153 150

