# https://github.com/mikedh/trimesh
v -0.00073092 0.06580118 0.11488916
v 0.00101754 0.06580118 0.11488916
v -0.00149579 0.06580118 0.11490154
v -0.00149579 0.07000123 0.00556335
v 0.00172143 0.06580118 0.11506250
v -0.00337151 0.06580118 0.11570632
v -0.00294865 0.07005502 0.00556335
v 0.00101754 0.07003709 0.00556335
v 0.00339036 0.06580118 0.11569394
v -0.00412975 0.06580118 0.11798446
v -0.00499802 0.07082104 0.00556335
v 0.00351629 0.07056027 0.00556335
v 0.00466426 0.06580118 0.11798446
v 0.00390735 0.06580118 0.11647395
v -0.00418543 0.06580118 0.12049784
v -0.00565154 0.07307345 0.00556335
v 0.00604686 0.07305389 0.00556335
v 0.00472922 0.06580118 0.11897495
v -0.00418543 0.06580118 0.12552460
v -0.00571119 0.07556056 0.00556335
v -0.00416952 0.06580118 0.12803797
v 0.00731811 0.07432353 0.00556335
v 0.00473319 0.06580118 0.12049784
v -0.00571649 0.07683835 0.00556335
v -0.00351733 0.06580118 0.13056373
v -0.00416157 0.06678722 0.12803797
v -0.00418543 0.06930041 0.12552460
v 0.00782581 0.07683835 0.00556335
v 0.00473319 0.06580118 0.12650271
v -0.00548319 0.07935153 0.00556335
v -0.00417615 0.07432516 0.11798446
v -0.00423182 0.07683835 0.10541756
v -0.00291683 0.06580118 0.13161614
v -0.00334500 0.06659001 0.13057612
v -0.00384210 0.06930041 0.12803797
v -0.00413506 0.07181523 0.12301122
v 0.00762830 0.07809331 0.00556335
v 0.00472126 0.07683835 0.11044432
v 0.00472922 0.07181523 0.12301122
v 0.00471861 0.06930041 0.12552460
v 0.00464835 0.06580118 0.12803797
v -0.00399984 0.08182398 0.00556335
v -0.00348551 0.07933850 0.10541756
v -0.00399322 0.07432516 0.12049784
v -0.00345900 0.07671122 0.11798446
v -0.00414566 0.07683835 0.10793094
v -0.00265171 0.06580118 0.13177708
v -0.00280681 0.07060101 0.12932562
v -0.00312628 0.06930041 0.12967229
v -0.00315146 0.07109158 0.12803797
v -0.00357168 0.07196517 0.12564841
v 0.00696285 0.07937109 0.00556335
v 0.00349111 0.07895712 0.11044432
v 0.00460461 0.07683835 0.11295770
v 0.00338506 0.07453867 0.12311027
v 0.00308813 0.07384436 0.12506649
v 0.00373369 0.07203852 0.12575984
v 0.00459533 0.06678722 0.12803797
v 0.00446940 0.06580118 0.12902847
v -0.00149712 0.08245146 0.00556335
v -0.00276439 0.08061628 0.10238417
v -0.00341260 0.07912988 0.10793094
v -0.00327739 0.07628746 0.12049784
v -0.00341923 0.07433656 0.12292455
v -0.00164823 0.06580118 0.13196281
v -0.00253241 0.07060101 0.12932562
v -0.00034119 0.07309138 0.12679985
v -0.00201808 0.07290395 0.12657700
v -0.00297383 0.07576918 0.12202073
v -0.00316339 0.07351024 0.12489316
v -0.00149579 0.06582725 0.13197519
v 0.00101754 0.06580118 0.13204948
v 0.00659035 0.07990894 0.00556335
v 0.00247570 0.08070755 0.08783629
v 0.00236965 0.08065214 0.09033728
v 0.00229807 0.08062117 0.09184779
v 0.00101754 0.08008333 0.10793094
v 0.00340627 0.07870938 0.11295770
v 0.00286940 0.08103677 0.07274363
v 0.00282301 0.08098136 0.07525701
v 0.00276998 0.08092758 0.07777039
v 0.00271033 0.08087216 0.08029615
v 0.00264273 0.08081838 0.08279715
v 0.00256451 0.08076297 0.08531052
v 0.00249293 0.07572844 0.12234264
v 0.00101754 0.07536010 0.12384076
v 0.00175988 0.07302456 0.12675033
v 0.00307222 0.07134910 0.12734463
v 0.00362764 0.06932323 0.12812464
v 0.00362102 0.06580118 0.13051421
v 0.00101754 0.08140511 0.07023025
v 0.00100561 0.08236345 0.00556335
v 0.00101754 0.08134970 0.07274363
v -0.00149579 0.08020067 0.10793094
v -0.00149579 0.08046470 0.10541756
v -0.00259604 0.08061628 0.10238417
v -0.00149579 0.07697525 0.12049784
v -0.00149579 0.06580118 0.13198758
v 0.00101754 0.06710666 0.13115803
v 0.00101754 0.06889621 0.12990753
v -0.00085818 0.07039891 0.12917704
v 0.00008565 0.07309138 0.12679985
v 0.00096054 0.07391118 0.12575984
v -0.00149579 0.07598106 0.12233025
v -0.00149579 0.07510910 0.12359313
v -0.00130623 0.07371071 0.12564841
v 0.00137148 0.06580118 0.13198758
v 0.00512822 0.08098951 0.00556335
v 0.00290519 0.08107915 0.07023025
v 0.00101754 0.08094224 0.08783629
v 0.00101754 0.08101395 0.08531052
v 0.00101754 0.08084934 0.09033728
v 0.00206476 0.08058368 0.09353163
v 0.00101754 0.07977855 0.11044432
v 0.00129194 0.08048915 0.09788980
v -0.00020333 0.08061302 0.09922697
v 0.00297280 0.07835734 0.11443106
v 0.00101754 0.07595173 0.12257788
v 0.00101754 0.07015281 0.12900370
v 0.00261489 0.06580118 0.13167804
v 0.00291050 0.06850016 0.12962276
v 0.00327769 0.06660794 0.13048945
v 0.00319682 0.06580118 0.13114565
v 0.00350039 0.08176693 0.00556335
v 0.00114347 0.08073037 0.09275161
f 1 2 5
f 1 5 9
f 1 9 14
f 1 14 13
f 1 13 18
f 1 18 23
f 1 23 29
f 1 29 41
f 1 41 59
f 1 59 90
f 1 90 123
f 1 123 120
f 1 120 107
f 1 107 72
f 1 72 98
f 1 98 65
f 1 65 47
f 1 47 33
f 1 33 25
f 1 25 21
f 1 21 19
f 1 19 15
f 1 15 10
f 1 10 6
f 1 6 3
f 1 3 4
f 1 4 2
f 2 4 5
f 3 6 4
f 4 7 11
f 4 11 16
f 4 16 20
f 4 20 24
f 4 24 30
f 4 30 42
f 4 42 60
f 4 60 92
f 4 92 124
f 4 124 108
f 4 108 73
f 4 73 52
f 4 52 37
f 4 37 28
f 4 28 22
f 4 22 17
f 4 17 12
f 4 12 8
f 4 8 5
f 4 6 7
f 5 8 9
f 6 10 7
f 7 10 11
f 8 12 13
f 8 13 14
f 8 14 9
f 10 15 11
f 11 15 16
f 12 17 18
f 12 18 13
f 15 19 16
f 16 19 21
f 16 21 20
f 17 22 18
f 18 22 23
f 20 21 24
f 21 25 26
f 21 26 27
f 21 27 24
f 22 28 29
f 22 29 23
f 24 27 31
f 24 31 32
f 24 32 30
f 25 33 34
f 25 34 35
f 25 35 26
f 26 35 27
f 27 35 36
f 27 36 31
f 28 37 38
f 28 38 39
f 28 39 40
f 28 40 29
f 29 40 41
f 30 32 43
f 30 43 42
f 31 36 44
f 31 44 45
f 31 45 46
f 31 46 32
f 32 46 43
f 33 47 48
f 33 48 49
f 33 49 34
f 34 49 35
f 35 50 51
f 35 51 44
f 35 44 36
f 35 49 48
f 35 48 50
f 37 52 38
f 38 53 54
f 38 54 39
f 38 52 53
f 39 54 55
f 39 55 56
f 39 56 57
f 39 57 40
f 40 57 58
f 40 58 41
f 41 58 59
f 42 43 61
f 42 61 60
f 43 46 62
f 43 62 61
f 44 63 45
f 44 51 64
f 44 64 63
f 45 63 62
f 45 62 46
f 47 65 48
f 48 66 102
f 48 102 67
f 48 67 68
f 48 68 69
f 48 69 70
f 48 70 50
f 48 65 71
f 48 71 72
f 48 72 66
f 50 70 51
f 51 70 64
f 52 73 53
f 53 74 75
f 53 75 76
f 53 76 77
f 53 77 78
f 53 78 54
f 53 73 79
f 53 79 80
f 53 80 81
f 53 81 82
f 53 82 83
f 53 83 84
f 53 84 74
f 54 78 55
f 55 78 85
f 55 85 56
f 56 85 86
f 56 86 87
f 56 87 88
f 56 88 57
f 57 88 89
f 57 89 58
f 58 89 59
f 59 89 90
f 60 91 92
f 60 61 91
f 61 93 91
f 61 62 94
f 61 94 95
f 61 95 96
f 61 96 93
f 62 63 94
f 63 64 70
f 63 70 69
f 63 69 97
f 63 97 94
f 65 98 71
f 66 72 99
f 66 99 100
f 66 100 101
f 66 101 87
f 66 87 102
f 67 102 103
f 67 103 86
f 67 86 104
f 67 104 105
f 67 105 106
f 67 106 68
f 68 106 105
f 68 105 104
f 68 104 69
f 69 104 97
f 71 98 72
f 72 107 99
f 73 108 109
f 73 109 79
f 74 110 76
f 74 76 75
f 74 84 111
f 74 111 110
f 76 110 112
f 76 112 113
f 76 113 77
f 77 94 114
f 77 114 78
f 77 113 115
f 77 115 116
f 77 116 95
f 77 95 94
f 78 117 85
f 78 114 117
f 79 109 91
f 79 91 93
f 79 93 81
f 79 81 80
f 81 93 82
f 82 93 83
f 83 93 111
f 83 111 84
f 85 118 86
f 85 117 118
f 86 118 97
f 86 97 104
f 86 103 87
f 87 103 102
f 87 101 119
f 87 119 100
f 87 100 120
f 87 120 121
f 87 121 88
f 88 121 89
f 89 121 122
f 89 122 90
f 90 122 123
f 91 109 92
f 92 109 124
f 93 96 111
f 94 97 114
f 95 116 110
f 95 110 96
f 96 110 111
f 97 117 114
f 97 118 117
f 99 107 100
f 100 119 101
f 100 107 120
f 108 124 109
f 110 116 112
f 112 125 113
f 112 116 125
f 113 125 115
f 115 125 116
f 120 123 121
f 121 123 122

