# https://github.com/mikedh/trimesh
v -0.05679414 -0.08225043 0.09033721
v -0.05679414 -0.08224714 0.08531164
v -0.05428179 -0.08176460 0.00556335
v -0.05679414 -0.08225043 0.10541394
v -0.05930649 -0.08208301 0.10541394
v -0.05930533 -0.08196977 0.00556335
v -0.05902231 -0.08197797 0.00556335
v -0.05679414 -0.08201079 0.00556335
v -0.05214641 -0.08113105 0.00556335
v -0.05428179 -0.08159227 0.10793297
v -0.05679414 -0.08220447 0.10793297
v -0.05930649 -0.08196977 0.10793297
v -0.06109970 -0.08101453 0.10793297
v -0.06109970 -0.08108675 0.10541394
v -0.06168777 -0.08134935 0.00556335
v -0.06140708 -0.08144126 0.00556335
v -0.05163024 -0.07914508 0.00556335
v -0.05287482 -0.08053526 0.11043952
v -0.05287134 -0.08059435 0.10793297
v -0.05428179 -0.08136905 0.11043952
v -0.05679414 -0.08182041 0.11043952
v -0.05930649 -0.08153482 0.11043952
v -0.06082248 -0.08049423 0.11295854
v -0.06104635 -0.08080444 0.11043952
v -0.06163674 -0.07899572 0.10793297
v -0.06285928 -0.07899572 0.00556335
v -0.06158338 -0.07899572 0.11043952
v -0.05160125 -0.07899572 0.00556335
v -0.05272172 -0.07899572 0.11043952
v -0.05292702 -0.08040232 0.11223526
v -0.05416464 -0.08070924 0.11302090
v -0.05492437 -0.08041709 0.11462958
v -0.05679414 -0.08108346 0.11295854
v -0.05930649 -0.08038262 0.11466699
v -0.05930649 -0.08086681 0.11295854
v -0.06062182 -0.08029892 0.11438017
v -0.06096515 -0.07814553 0.12049067
v -0.06150335 -0.07648289 0.12049067
v -0.06162978 -0.07648289 0.11798412
v -0.06331744 -0.07648289 0.00556335
v -0.05148642 -0.07667820 0.00556335
v -0.05272172 -0.07397005 0.12300970
v -0.05276231 -0.07648289 0.11798412
v -0.05147714 -0.07648289 0.00556335
v -0.05287482 -0.07556868 0.12300970
v -0.05292702 -0.07537337 0.12450614
v -0.05298038 -0.07779429 0.11940575
v -0.05324947 -0.07995588 0.11390630
v -0.05428179 -0.07803064 0.11999186
v -0.05555652 -0.07773520 0.12175018
v -0.05655404 -0.07827191 0.12074008
v -0.05679414 -0.07936830 0.11798412
v -0.05679414 -0.08004287 0.11611356
v -0.05679414 -0.08047125 0.11486652
v -0.05930649 -0.07856242 0.12049067
v -0.06075289 -0.07789933 0.12202453
v -0.06104171 -0.07643201 0.12292240
v -0.06155671 -0.07397005 0.12300970
v -0.06163674 -0.07397005 0.12049067
v -0.06332672 -0.07397005 0.00556335
v -0.06163674 -0.06643155 0.12803527
v -0.06162746 -0.06548288 0.12898302
v -0.05276579 -0.06548288 0.13055429
v -0.05279479 -0.06643155 0.13055429
v -0.05296994 -0.06776593 0.13187616
v -0.05193994 -0.07405869 0.00556335
v -0.05276579 -0.06548288 0.12960655
v -0.05428179 -0.07571147 0.12493014
v -0.05723142 -0.07785009 0.12201207
v -0.05655404 -0.07733636 0.12290993
v -0.05930649 -0.07794365 0.12214924
v -0.05930649 -0.07711150 0.12340875
v -0.05930649 -0.07585591 0.12484284
v -0.06081321 -0.07555883 0.12456850
v -0.06104055 -0.07386173 0.12545390
v -0.06150915 -0.07145886 0.12551625
v -0.06269573 -0.07143916 0.00556335
v -0.06163674 -0.06548288 0.12803527
v -0.06163558 -0.06548288 0.12551625
v -0.06145347 -0.06894603 0.12803527
v -0.06145115 -0.06548288 0.13055429
v -0.05283655 -0.06548288 0.13143970
v -0.05290730 -0.06643155 0.13197592
v -0.05428179 -0.06548288 0.13262439
v -0.05428179 -0.06643155 0.13247474
v -0.05428179 -0.06794319 0.13203828
v -0.05275651 -0.07252407 0.00556335
v -0.05290382 -0.06548288 0.12318428
v -0.05281451 -0.06548288 0.12712493
v -0.05679414 -0.07473162 0.12636424
v -0.05679414 -0.07598065 0.12510472
v -0.05930649 -0.07446408 0.12610236
v -0.06057775 -0.06770520 0.13182628
v -0.06067634 -0.07033293 0.12940702
v -0.06075057 -0.07294917 0.12698775
v -0.06095820 -0.07128488 0.12791057
v -0.06135372 -0.06643155 0.13055429
v -0.06183044 -0.07033621 0.00556335
v -0.06146043 -0.06548288 0.12395745
v -0.06124817 -0.06548288 0.13122770
v -0.05289338 -0.06548288 0.13201333
v -0.05679414 -0.06548288 0.13296109
v -0.05679414 -0.06643155 0.13273662
v -0.05679414 -0.06801540 0.13210063
v -0.05379579 -0.07097468 0.00556335
v -0.05333415 -0.06548288 0.12216170
v -0.05425743 -0.07049049 0.00556335
v -0.05547533 -0.06977160 0.00556335
v -0.05679414 -0.06961404 0.00556335
v -0.05930649 -0.07321341 0.12722470
v -0.05930649 -0.06783158 0.13193851
v -0.06085496 -0.06870476 0.13036724
v -0.05930649 -0.06643155 0.13247474
v -0.05930649 -0.06548288 0.13271167
v -0.06024717 -0.06548288 0.13244979
v -0.06081669 -0.06643155 0.13206322
v -0.06091296 -0.06548288 0.13217545
v -0.05930533 -0.06961732 0.00556335
v -0.06097327 -0.06548288 0.12163795
v -0.05446157 -0.06548288 0.12088972
v -0.05679414 -0.06548288 0.12032855
v -0.05930649 -0.06548288 0.12072761
f 1 2 3
f 1 3 4
f 1 4 5
f 1 5 2
f 2 6 7
f 2 7 8
f 2 8 3
f 2 5 6
f 3 8 7
f 3 7 6
f 3 6 16
f 3 16 15
f 3 15 26
f 3 26 40
f 3 40 60
f 3 60 77
f 3 77 98
f 3 98 118
f 3 118 109
f 3 109 108
f 3 108 107
f 3 107 105
f 3 105 87
f 3 87 66
f 3 66 44
f 3 44 41
f 3 41 28
f 3 28 17
f 3 17 9
f 3 9 10
f 3 10 4
f 4 10 11
f 4 11 5
f 5 11 12
f 5 12 13
f 5 13 14
f 5 14 15
f 5 15 16
f 5 16 6
f 9 17 18
f 9 18 19
f 9 19 10
f 10 19 18
f 10 18 20
f 10 20 11
f 11 20 21
f 11 21 12
f 12 21 22
f 12 22 23
f 12 23 24
f 12 24 13
f 13 25 26
f 13 26 14
f 13 24 27
f 13 27 25
f 14 26 15
f 17 28 18
f 18 29 30
f 18 30 20
f 18 28 29
f 20 30 31
f 20 31 21
f 21 31 32
f 21 32 33
f 21 33 34
f 21 34 35
f 21 35 22
f 22 35 36
f 22 36 23
f 23 36 37
f 23 37 24
f 24 37 38
f 24 38 27
f 25 27 39
f 25 39 40
f 25 40 26
f 27 38 39
f 28 41 29
f 29 42 43
f 29 43 30
f 29 41 44
f 29 44 42
f 30 43 45
f 30 45 46
f 30 46 47
f 30 47 48
f 30 48 31
f 31 48 47
f 31 47 32
f 32 47 49
f 32 49 50
f 32 50 51
f 32 51 52
f 32 52 53
f 32 53 54
f 32 54 33
f 33 54 55
f 33 55 34
f 34 36 35
f 34 55 56
f 34 56 36
f 36 56 37
f 37 56 38
f 38 56 57
f 38 57 58
f 38 58 39
f 39 58 59
f 39 59 40
f 40 59 61
f 40 61 62
f 40 62 60
f 42 63 64
f 42 64 65
f 42 65 46
f 42 46 45
f 42 45 43
f 42 44 63
f 44 66 67
f 44 67 63
f 46 65 68
f 46 68 50
f 46 50 47
f 47 50 49
f 50 69 51
f 50 68 70
f 50 70 69
f 51 69 52
f 52 69 71
f 52 71 55
f 52 55 53
f 53 55 54
f 55 71 56
f 56 71 72
f 56 72 73
f 56 73 74
f 56 74 57
f 57 74 75
f 57 75 58
f 58 75 76
f 58 76 62
f 58 62 61
f 58 61 59
f 60 62 78
f 60 78 79
f 60 79 77
f 62 76 80
f 62 80 81
f 62 81 100
f 62 100 117
f 62 117 115
f 62 115 114
f 62 114 102
f 62 102 84
f 62 84 101
f 62 101 82
f 62 82 63
f 62 63 67
f 62 67 89
f 62 89 88
f 62 88 106
f 62 106 120
f 62 120 121
f 62 121 122
f 62 122 119
f 62 119 99
f 62 99 79
f 62 79 78
f 63 82 83
f 63 83 64
f 64 83 65
f 65 83 84
f 65 84 85
f 65 85 86
f 65 86 68
f 66 87 88
f 66 88 89
f 66 89 67
f 68 86 90
f 68 90 91
f 68 91 70
f 69 70 71
f 70 91 71
f 71 91 72
f 72 91 73
f 73 91 90
f 73 90 92
f 73 92 93
f 73 93 94
f 73 94 95
f 73 95 74
f 74 95 96
f 74 96 75
f 75 96 97
f 75 97 80
f 75 80 76
f 77 79 98
f 79 99 98
f 80 97 81
f 81 97 100
f 82 101 83
f 83 101 84
f 84 102 85
f 85 102 103
f 85 103 86
f 86 103 104
f 86 104 90
f 87 105 88
f 88 105 107
f 88 107 108
f 88 108 109
f 88 109 106
f 90 110 92
f 90 104 111
f 90 111 93
f 90 93 110
f 92 110 93
f 93 112 94
f 93 111 113
f 93 113 114
f 93 114 115
f 93 115 116
f 93 116 112
f 94 112 96
f 94 96 95
f 96 112 97
f 97 112 116
f 97 116 117
f 97 117 100
f 98 99 118
f 99 119 118
f 102 114 103
f 103 114 113
f 103 113 111
f 103 111 104
f 106 109 120
f 109 118 121
f 109 121 120
f 115 117 116
f 118 119 122
f 118 122 121

