# https://github.com/mikedh/trimesh
v -0.05679385 0.06580118 0.11528491
v -0.05428103 0.06580118 0.11569824
v -0.05930667 0.06580118 0.11533501
v -0.05930547 0.07001671 0.00556335
v -0.05679505 0.07002819 0.00556335
v -0.05345382 0.06580118 0.11603642
v -0.06095270 0.06580118 0.11601137
v -0.06068056 0.07012004 0.00556335
v -0.05431580 0.07096807 0.00556335
v -0.05294310 0.06580118 0.11636208
v -0.06141547 0.06580118 0.11797784
v -0.06261673 0.07100908 0.00556335
v -0.05184134 0.07436675 0.00556335
v -0.05273929 0.06580118 0.11896734
v -0.05279804 0.06580118 0.11804047
v -0.05288555 0.06580118 0.11681299
v -0.06162767 0.06580118 0.12049543
v -0.06329529 0.07324971 0.00556335
v -0.05113401 0.07683866 0.00556335
v -0.05272251 0.06580118 0.12049543
v -0.06163726 0.06580118 0.12301301
v -0.06337201 0.07573966 0.00556335
v -0.06163486 0.06580118 0.12553059
v -0.06161328 0.06580118 0.12803565
v -0.05113401 0.07697972 0.00556335
v -0.05271771 0.06580118 0.12902515
v -0.05271771 0.06580118 0.12148492
v -0.06338040 0.07683866 0.00556335
v -0.06138070 0.06580118 0.13066597
v -0.06159769 0.06678699 0.12803565
v -0.06334804 0.07935321 0.00556335
v -0.05125390 0.07947623 0.00556335
v -0.05271891 0.07683866 0.11547278
v -0.05271771 0.07432410 0.12049543
v -0.05271771 0.07181446 0.12301301
v -0.05271771 0.06930154 0.12553059
v -0.05279444 0.06580118 0.13050313
v -0.05275847 0.07432410 0.12301301
v -0.06109897 0.06580118 0.13190597
v -0.06117929 0.06700187 0.13076617
v -0.06148021 0.06930154 0.12553059
v -0.06151377 0.07935321 0.10793256
v -0.06163006 0.07683866 0.10793256
v -0.06182428 0.08183332 0.00556335
v -0.06156652 0.07935321 0.10541497
v -0.06103063 0.08105911 0.10541497
v -0.05197202 0.08165781 0.00556335
v -0.05290713 0.08075730 0.10793256
v -0.05275368 0.07935321 0.10793256
v -0.05278485 0.07683866 0.11799037
v -0.05284120 0.06671973 0.13047808
v -0.05285558 0.06580118 0.13132981
v -0.05291073 0.07588565 0.12301301
v -0.05297547 0.07566749 0.12434069
v -0.05291073 0.07432410 0.12486675
v -0.06096589 0.06580118 0.13246961
v -0.06092034 0.06630638 0.13235688
v -0.06087358 0.06859294 0.13006475
v -0.06110136 0.06937864 0.12808575
v -0.06095031 0.07178330 0.12541787
v -0.06126681 0.07181446 0.12301301
v -0.06098387 0.08101318 0.10793256
v -0.06061822 0.07824438 0.11698835
v -0.05930547 0.08255833 0.00556335
v -0.05930667 0.08149542 0.10793256
v -0.05930667 0.08154463 0.10541497
v -0.05205474 0.08168898 0.00556335
v -0.05428103 0.08124117 0.10793256
v -0.05294550 0.08070809 0.10982388
v -0.05287237 0.07841661 0.11547278
v -0.05293710 0.07822633 0.11799037
v -0.05292272 0.06583562 0.13204374
v -0.05292152 0.06580118 0.13205627
v -0.05300904 0.07811152 0.11930552
v -0.05547510 0.07810823 0.12177300
v -0.05428103 0.07582660 0.12454109
v -0.05476537 0.07336125 0.12703363
v -0.05309056 0.07295774 0.12667040
v -0.05944334 0.06580118 0.13324617
v -0.06024777 0.06798276 0.13174314
v -0.06069615 0.07325955 0.12451605
v -0.06079685 0.07092379 0.12727161
v -0.06056667 0.07558876 0.12176048
v -0.06076808 0.07418631 0.12276251
v -0.06081244 0.08084751 0.10943560
v -0.06026216 0.07768668 0.11866673
v -0.05937740 0.07876927 0.11789017
v -0.05921435 0.08255833 0.00556335
v -0.05679385 0.08157580 0.10793256
v -0.05818094 0.08067856 0.11448328
v -0.05426065 0.08229916 0.00556335
v -0.05408082 0.08099350 0.11057539
v -0.05311094 0.08044564 0.11148974
v -0.05428103 0.06635887 0.13248214
v -0.05428103 0.06580118 0.13290799
v -0.05449563 0.07828867 0.12028250
v -0.05478575 0.08082619 0.11244166
v -0.05557820 0.07810823 0.12177300
v -0.05578800 0.08057686 0.11410753
v -0.05669314 0.08032918 0.11538511
v -0.05746162 0.08067856 0.11448328
v -0.05679385 0.07945491 0.11799037
v -0.05602298 0.07582168 0.12454109
v -0.05679385 0.07079420 0.12951364
v -0.05514421 0.07068595 0.12940091
v -0.05676388 0.06580118 0.13352173
v -0.05936781 0.06700187 0.13259486
v -0.05857176 0.06811725 0.13186839
v -0.05843150 0.07074500 0.12947606
v -0.05806824 0.07308076 0.12679564
v -0.06010751 0.07026767 0.12895000
v -0.05930667 0.07594798 0.12222392
v -0.05858615 0.07837560 0.11961866
v -0.05679505 0.08255177 0.00556335
v -0.05672431 0.08255012 0.00556335
v -0.05582757 0.06800572 0.13176819
v -0.05725301 0.07773753 0.12129705
v -0.05769659 0.07540832 0.12404008
v -0.05750118 0.06811725 0.13186839
v -0.05671712 0.06909323 0.13095405
v -0.05671712 0.06701662 0.13267001
f 1 2 6
f 1 6 10
f 1 10 16
f 1 16 15
f 1 15 14
f 1 14 20
f 1 20 27
f 1 27 26
f 1 26 37
f 1 37 52
f 1 52 73
f 1 73 95
f 1 95 106
f 1 106 79
f 1 79 56
f 1 56 39
f 1 39 29
f 1 29 24
f 1 24 23
f 1 23 21
f 1 21 17
f 1 17 11
f 1 11 7
f 1 7 3
f 1 3 4
f 1 4 5
f 1 5 2
f 2 5 6
f 3 7 4
f 4 8 12
f 4 12 18
f 4 18 22
f 4 22 28
f 4 28 31
f 4 31 44
f 4 44 64
f 4 64 88
f 4 88 114
f 4 114 115
f 4 115 91
f 4 91 67
f 4 67 47
f 4 47 32
f 4 32 25
f 4 25 19
f 4 19 13
f 4 13 9
f 4 9 5
f 4 7 8
f 5 9 10
f 5 10 6
f 7 11 8
f 8 11 12
f 9 13 14
f 9 14 15
f 9 15 16
f 9 16 10
f 11 17 12
f 12 17 18
f 13 19 14
f 14 19 20
f 17 21 18
f 18 21 23
f 18 23 24
f 18 24 22
f 19 25 26
f 19 26 27
f 19 27 20
f 22 24 28
f 24 29 30
f 24 30 31
f 24 31 28
f 25 32 33
f 25 33 34
f 25 34 35
f 25 35 36
f 25 36 26
f 26 36 38
f 26 38 37
f 29 39 40
f 29 40 30
f 30 40 41
f 30 41 42
f 30 42 43
f 30 43 31
f 31 43 45
f 31 45 46
f 31 46 44
f 32 47 48
f 32 48 49
f 32 49 33
f 33 50 38
f 33 38 34
f 33 49 50
f 34 38 35
f 35 38 36
f 37 51 52
f 37 38 51
f 38 53 54
f 38 54 55
f 38 55 51
f 38 50 53
f 39 56 57
f 39 57 40
f 40 57 58
f 40 58 59
f 40 59 41
f 41 59 60
f 41 60 61
f 41 61 42
f 42 62 46
f 42 46 45
f 42 45 43
f 42 61 63
f 42 63 62
f 44 46 64
f 46 62 65
f 46 65 66
f 46 66 64
f 47 67 48
f 48 68 69
f 48 69 49
f 48 67 68
f 49 69 70
f 49 70 50
f 50 70 71
f 50 71 53
f 51 72 52
f 51 55 72
f 52 72 73
f 53 71 74
f 53 74 54
f 54 74 75
f 54 75 76
f 54 76 77
f 54 77 78
f 54 78 72
f 54 72 55
f 56 79 57
f 57 79 80
f 57 80 58
f 58 81 82
f 58 82 59
f 58 80 81
f 59 82 81
f 59 81 60
f 60 81 83
f 60 83 84
f 60 84 61
f 61 84 63
f 62 85 65
f 62 63 85
f 63 84 83
f 63 83 86
f 63 86 87
f 63 87 85
f 64 66 89
f 64 89 88
f 65 89 66
f 65 85 90
f 65 90 89
f 67 91 68
f 68 89 92
f 68 92 69
f 68 91 89
f 69 92 93
f 69 93 74
f 69 74 71
f 69 71 70
f 72 94 95
f 72 95 73
f 72 78 94
f 74 96 75
f 74 93 97
f 74 97 96
f 75 98 76
f 75 96 97
f 75 97 99
f 75 99 100
f 75 100 101
f 75 101 102
f 75 102 98
f 76 98 103
f 76 103 77
f 77 103 104
f 77 104 105
f 77 105 78
f 78 105 94
f 79 106 107
f 79 107 80
f 80 107 108
f 80 108 109
f 80 109 110
f 80 110 111
f 80 111 83
f 80 83 81
f 83 112 113
f 83 113 86
f 83 111 112
f 85 87 90
f 86 113 87
f 87 113 90
f 88 89 114
f 89 90 101
f 89 101 97
f 89 97 92
f 89 91 115
f 89 115 114
f 90 113 98
f 90 98 102
f 90 102 101
f 92 97 93
f 94 105 116
f 94 116 95
f 95 116 106
f 97 101 99
f 98 113 117
f 98 117 103
f 99 101 100
f 103 110 109
f 103 109 104
f 103 117 118
f 103 118 110
f 104 109 108
f 104 108 119
f 104 119 120
f 104 120 105
f 105 120 116
f 106 116 121
f 106 121 108
f 106 108 107
f 108 121 119
f 110 118 113
f 110 113 112
f 110 112 111
f 113 118 117
f 116 120 119
f 116 119 121

