# https://github.com/mikedh/trimesh
v -0.11209180 0.06580118 0.11810315
v -0.11130432 0.06580118 0.11827755
v -0.11361895 0.06580118 0.11812806
v -0.11460360 0.07007830 0.00556335
v -0.10997075 0.06580118 0.11866373
v -0.11460360 0.06580118 0.11815298
v -0.11711659 0.07019055 0.00556335
v -0.11216350 0.07081620 0.00556335
v -0.10822253 0.06580118 0.12137943
v -0.10847705 0.06580118 0.12060708
v -0.10871246 0.06580118 0.12012124
v -0.10947723 0.06580118 0.11922431
v -0.11673780 0.06580118 0.11871356
v -0.11795187 0.07055208 0.00556335
v -0.11783954 0.06580118 0.12049496
v -0.11142501 0.07189580 0.00556335
v -0.10818309 0.06580118 0.12198985
v -0.11953638 0.07186939 0.00556335
v -0.11806181 0.06580118 0.12301134
v -0.10995282 0.07432737 0.00556335
v -0.10812096 0.06580118 0.12301134
v -0.11954594 0.07190240 0.00556335
v -0.11806181 0.06580118 0.12551528
v -0.12021392 0.07426300 0.00556335
v -0.10957641 0.07512304 0.00556335
v -0.10884869 0.07666816 0.00556335
v -0.10861925 0.07935230 0.00556335
v -0.10811976 0.06678833 0.12301134
v -0.10811976 0.06580118 0.12399548
v -0.11790527 0.06580118 0.12803166
v -0.11806181 0.06678833 0.12551528
v -0.12032625 0.07675565 0.00556335
v -0.10864793 0.07979636 0.00556335
v -0.10812693 0.06930079 0.12301134
v -0.10811976 0.06678833 0.12803166
v -0.10811976 0.06580118 0.12803166
v -0.11789451 0.06930079 0.12551528
v -0.11795904 0.07181491 0.12301134
v -0.11703534 0.06580118 0.13048577
v -0.11780609 0.06678833 0.12803166
v -0.11797696 0.07432407 0.12049496
v -0.11806181 0.06930079 0.12301134
v -0.12032625 0.07683818 0.00556335
v -0.10963496 0.08179378 0.00556335
v -0.10988471 0.07935230 0.11044187
v -0.10985125 0.07935230 0.10793794
v -0.10981779 0.07935230 0.10542156
v -0.10914384 0.07683984 0.11295826
v -0.10822731 0.07077163 0.12301134
v -0.10826435 0.07064782 0.12456852
v -0.10822014 0.06839618 0.12803166
v -0.10825479 0.06817993 0.12952655
v -0.10822014 0.06678833 0.12990027
v -0.10822014 0.06580118 0.13004976
v -0.10815919 0.06580118 0.12890368
v -0.11705207 0.07438681 0.12309855
v -0.11617497 0.06580118 0.13176887
v -0.11668402 0.06663316 0.13044839
v -0.11684295 0.06921826 0.12799430
v -0.11696484 0.07180500 0.12555265
v -0.11684892 0.07692898 0.12042022
v -0.11758980 0.07683984 0.11797858
v -0.11790527 0.07683984 0.11547465
v -0.11801640 0.07683984 0.11295826
v -0.11805224 0.07432407 0.11797858
v -0.11810960 0.07432407 0.11547465
v -0.12024379 0.07935230 0.00556335
v -0.11195318 0.08256469 0.00556335
v -0.11073075 0.08066631 0.11044187
v -0.11066263 0.08070428 0.10542156
v -0.11063037 0.08072243 0.10290517
v -0.11059930 0.08074225 0.10038878
v -0.11069609 0.08068447 0.10793794
v -0.10993132 0.07935230 0.11295826
v -0.11081559 0.08061844 0.11424137
v -0.11082515 0.07056363 0.12930232
v -0.10982377 0.06913077 0.12988781
v -0.10936132 0.06696992 0.13124567
v -0.10953220 0.06580118 0.13198065
v -0.10893472 0.06580118 0.13135778
v -0.10828108 0.06580118 0.13053560
v -0.11645698 0.07359443 0.12473046
v -0.11651553 0.07614982 0.12231374
v -0.11599931 0.06580118 0.13188099
v -0.11625383 0.06832685 0.12953901
v -0.11636975 0.07095981 0.12713474
v -0.11614510 0.07821162 0.11953575
v -0.11650000 0.07845594 0.11797858
v -0.11677962 0.07877783 0.11547465
v -0.11687283 0.07903040 0.11295826
v -0.11704968 0.07935230 0.10793794
v -0.11837488 0.07809607 0.09667649
v -0.11952204 0.08176077 0.00556335
v -0.11444945 0.08266374 0.00556335
v -0.11460360 0.08155112 0.08783176
v -0.11209180 0.08122922 0.09536847
v -0.11209180 0.08119126 0.09788485
v -0.11077615 0.08063990 0.11295826
v -0.11209180 0.08102948 0.10793794
v -0.11209180 0.08086770 0.11044187
v -0.11089565 0.08061844 0.11424137
v -0.11560976 0.07821162 0.11953575
v -0.11460360 0.07514450 0.12357193
v -0.11085502 0.07056363 0.12930232
v -0.11209180 0.06766819 0.13149481
v -0.11209180 0.06641031 0.13242911
v -0.11005559 0.06625349 0.13225471
v -0.10999823 0.06580118 0.13241665
v -0.11460360 0.07263369 0.12638730
v -0.11460360 0.07388827 0.12512910
v -0.11554761 0.06580118 0.13204293
v -0.11460360 0.07137911 0.12749600
v -0.11460360 0.07968575 0.11547465
v -0.11529429 0.08047482 0.11100245
v -0.11588818 0.08063164 0.10933317
v -0.11672704 0.07952398 0.11027993
v -0.11594075 0.08068447 0.10793794
v -0.11838206 0.08061844 0.06163393
v -0.11841312 0.08065475 0.06018888
v -0.11846690 0.08071583 0.05767249
v -0.11851828 0.08077361 0.05515611
v -0.11856728 0.08082808 0.05263972
v -0.11633151 0.08099811 0.09285208
v -0.11639484 0.08103443 0.09034815
v -0.11711659 0.08255314 0.00556335
v -0.11460360 0.08266539 0.00556335
v -0.11460360 0.08151315 0.09034815
v -0.11209180 0.08107570 0.10542156
v -0.11460360 0.08146033 0.09285208
v -0.11460360 0.08140255 0.09536847
v -0.11460360 0.08133982 0.09788485
v -0.11460360 0.08127049 0.10038878
v -0.11460360 0.08119786 0.10290517
v -0.11460360 0.08112358 0.10542156
v -0.11460360 0.08102948 0.10793794
v -0.11451517 0.08078516 0.11027993
v -0.11361895 0.08066136 0.11193675
v -0.11256978 0.08047647 0.11361850
v -0.11253035 0.07029125 0.12906562
v -0.11185281 0.06939159 0.13004976
v -0.11460360 0.06724560 0.13110863
v -0.11460360 0.06599102 0.13220488
v -0.11285537 0.06580118 0.13274055
v -0.11209180 0.06580118 0.13282775
v -0.11056942 0.06580118 0.13261598
v -0.11460360 0.06580118 0.13234191
v -0.11451517 0.08027343 0.11284614
v -0.11601246 0.08075380 0.10542156
v -0.11607698 0.08080993 0.10290517
v -0.11620484 0.08090897 0.09788485
v -0.11626817 0.08095520 0.09536847
f 1 2 5
f 1 5 12
f 1 12 11
f 1 11 10
f 1 10 9
f 1 9 17
f 1 17 21
f 1 21 29
f 1 29 36
f 1 36 55
f 1 55 54
f 1 54 81
f 1 81 80
f 1 80 79
f 1 79 108
f 1 108 145
f 1 145 144
f 1 144 143
f 1 143 146
f 1 146 111
f 1 111 84
f 1 84 57
f 1 57 39
f 1 39 30
f 1 30 23
f 1 23 19
f 1 19 15
f 1 15 13
f 1 13 6
f 1 6 3
f 1 3 4
f 1 4 2
f 2 4 5
f 3 6 4
f 4 7 14
f 4 14 18
f 4 18 22
f 4 22 24
f 4 24 32
f 4 32 43
f 4 43 67
f 4 67 93
f 4 93 125
f 4 125 126
f 4 126 94
f 4 94 68
f 4 68 44
f 4 44 33
f 4 33 27
f 4 27 26
f 4 26 25
f 4 25 20
f 4 20 16
f 4 16 8
f 4 8 9
f 4 9 10
f 4 10 11
f 4 11 12
f 4 12 5
f 4 6 13
f 4 13 7
f 7 13 15
f 7 15 14
f 8 16 17
f 8 17 9
f 14 15 19
f 14 19 18
f 16 20 21
f 16 21 17
f 18 19 22
f 19 23 24
f 19 24 22
f 20 25 21
f 21 25 26
f 21 26 27
f 21 27 28
f 21 28 29
f 23 30 31
f 23 31 43
f 23 43 32
f 23 32 24
f 27 33 34
f 27 34 28
f 28 34 35
f 28 35 36
f 28 36 29
f 30 37 38
f 30 38 31
f 30 39 40
f 30 40 37
f 31 38 41
f 31 41 42
f 31 42 43
f 33 44 45
f 33 45 46
f 33 46 47
f 33 47 48
f 33 48 49
f 33 49 34
f 34 49 50
f 34 50 51
f 34 51 35
f 35 51 52
f 35 52 53
f 35 53 54
f 35 54 55
f 35 55 36
f 37 56 38
f 37 40 56
f 38 56 41
f 39 57 58
f 39 58 59
f 39 59 60
f 39 60 40
f 40 60 56
f 41 56 61
f 41 61 62
f 41 62 63
f 41 63 64
f 41 64 65
f 41 65 42
f 42 65 66
f 42 66 43
f 43 66 67
f 44 68 69
f 44 69 70
f 44 70 71
f 44 71 72
f 44 72 45
f 45 72 71
f 45 71 70
f 45 70 73
f 45 73 69
f 45 69 74
f 45 74 48
f 45 48 46
f 46 48 47
f 48 74 50
f 48 50 49
f 50 52 51
f 50 74 75
f 50 75 52
f 52 75 76
f 52 76 77
f 52 77 78
f 52 78 79
f 52 79 80
f 52 80 81
f 52 81 53
f 53 81 54
f 56 60 82
f 56 82 83
f 56 83 61
f 57 84 85
f 57 85 58
f 58 85 86
f 58 86 59
f 59 86 82
f 59 82 60
f 61 83 87
f 61 87 88
f 61 88 62
f 62 88 89
f 62 89 63
f 63 89 90
f 63 90 91
f 63 91 92
f 63 92 64
f 64 92 65
f 65 92 66
f 66 92 67
f 67 92 93
f 68 94 95
f 68 95 96
f 68 96 97
f 68 97 98
f 68 98 69
f 69 98 74
f 69 73 70
f 74 98 75
f 75 98 99
f 75 99 100
f 75 100 101
f 75 101 87
f 75 87 102
f 75 102 76
f 76 102 103
f 76 103 104
f 76 104 105
f 76 105 106
f 76 106 107
f 76 107 77
f 77 107 78
f 78 107 79
f 79 107 108
f 82 86 109
f 82 109 83
f 83 102 87
f 83 109 110
f 83 110 104
f 83 104 103
f 83 103 102
f 84 111 112
f 84 112 109
f 84 109 85
f 85 109 86
f 87 101 113
f 87 113 88
f 88 113 114
f 88 114 115
f 88 115 89
f 89 115 90
f 90 115 116
f 90 116 91
f 91 116 115
f 91 115 117
f 91 117 118
f 91 118 92
f 92 118 119
f 92 119 120
f 92 120 121
f 92 121 93
f 93 121 122
f 93 122 123
f 93 123 124
f 93 124 125
f 94 126 95
f 95 126 125
f 95 125 127
f 95 127 97
f 95 97 96
f 97 128 98
f 97 127 128
f 98 128 99
f 99 128 127
f 99 127 129
f 99 129 130
f 99 130 131
f 99 131 132
f 99 132 133
f 99 133 134
f 99 134 135
f 99 135 100
f 100 135 101
f 101 135 136
f 101 136 137
f 101 137 138
f 101 138 113
f 104 110 109
f 104 109 139
f 104 139 140
f 104 140 105
f 105 141 142
f 105 142 143
f 105 143 106
f 105 140 139
f 105 139 112
f 105 112 141
f 106 143 144
f 106 144 107
f 107 144 145
f 107 145 108
f 109 112 139
f 111 146 142
f 111 142 141
f 111 141 112
f 113 138 137
f 113 137 147
f 113 147 114
f 114 147 137
f 114 137 136
f 114 136 115
f 115 136 135
f 115 135 117
f 117 135 134
f 117 134 148
f 117 148 118
f 118 148 149
f 118 149 119
f 119 149 120
f 120 149 150
f 120 150 121
f 121 150 151
f 121 151 122
f 122 151 123
f 123 151 130
f 123 130 129
f 123 129 124
f 124 129 127
f 124 127 125
f 130 151 131
f 131 151 150
f 131 150 149
f 131 149 132
f 132 149 133
f 133 149 148
f 133 148 134
f 142 146 143

