# https://github.com/mikedh/trimesh
v 0.05631522 -0.08225079 0.08531904
v 0.05631522 -0.08224915 0.08280344
v 0.05882636 -0.08225079 0.09536905
v 0.05631522 -0.08225079 0.09285345
v 0.05184476 -0.08125460 0.00556336
v 0.05631274 -0.08223602 0.06557839
v 0.05631522 -0.08223766 0.06773462
v 0.05631274 -0.08223110 0.06018782
v 0.05882636 -0.08224751 0.09285345
v 0.06112422 -0.08124967 0.09536905
v 0.06112546 -0.08125131 0.09788464
v 0.05882636 -0.08225079 0.10793465
v 0.05631522 -0.08224751 0.09788464
v 0.05156202 -0.08117254 0.00556336
v 0.05380283 -0.08163371 0.00556336
v 0.05631274 -0.08218186 0.03254100
v 0.05631274 -0.08219335 0.03755981
v 0.05631274 -0.08220320 0.04259101
v 0.05631274 -0.08221961 0.05264102
v 0.05631522 -0.08223438 0.10793465
v 0.05882636 -0.08224095 0.09033784
v 0.06111802 -0.08124147 0.09033784
v 0.06112174 -0.08124639 0.09285345
v 0.06217208 -0.07899634 0.09285345
v 0.06217580 -0.07899634 0.09536905
v 0.06112546 -0.08125131 0.10793465
v 0.06107461 -0.08112166 0.11045026
v 0.05882636 -0.08202595 0.11045026
v 0.05631522 -0.08205221 0.11045026
v 0.04987924 -0.07899634 0.00556336
v 0.05413145 -0.08123491 0.10793465
v 0.05427902 -0.08163207 0.00556336
v 0.05631274 -0.08216381 0.03002540
v 0.05882636 -0.08218514 0.07777224
v 0.05882636 -0.08220156 0.08028784
v 0.05882636 -0.08221469 0.08280344
v 0.05882636 -0.08222618 0.08531904
v 0.05882636 -0.08223438 0.08783464
v 0.05416370 -0.08114792 0.11045026
v 0.06111306 -0.08123491 0.08783464
v 0.06213115 -0.07899634 0.07275343
v 0.06213736 -0.07899634 0.07525664
v 0.06214356 -0.07899634 0.07777224
v 0.06215472 -0.07899634 0.08280344
v 0.06218076 -0.07648205 0.06557839
v 0.06218448 -0.07648205 0.06773462
v 0.06217580 -0.07899634 0.10793465
v 0.06212496 -0.07899634 0.11045026
v 0.06184718 -0.07899634 0.11295346
v 0.06079560 -0.08077701 0.11295346
v 0.06040622 -0.08045698 0.11481228
v 0.05882636 -0.08141051 0.11295346
v 0.05631522 -0.08157134 0.11295346
v 0.05424926 -0.08093785 0.11295346
v 0.04951590 -0.07648205 0.00556336
v 0.05321256 -0.07899634 0.11045026
v 0.05631274 -0.08157134 0.00556336
v 0.05674428 -0.08150406 0.00556336
v 0.05882636 -0.08171249 0.03002540
v 0.05882636 -0.08174859 0.03254100
v 0.05882636 -0.08177485 0.03505660
v 0.05882636 -0.08185199 0.04259101
v 0.05882636 -0.08208011 0.06521902
v 0.05882636 -0.08212606 0.07023783
v 0.05882636 -0.08214740 0.07275343
v 0.05882636 -0.08216709 0.07525664
v 0.06109941 -0.08120208 0.08028784
v 0.06110314 -0.08121521 0.08280344
v 0.06110810 -0.08122670 0.08531904
v 0.05331672 -0.07899634 0.11295346
v 0.06211379 -0.07899634 0.06773462
v 0.06212248 -0.07899634 0.07023783
v 0.06198607 -0.07648205 0.00556336
v 0.06218448 -0.06548452 0.12301587
v 0.06218448 -0.07648205 0.11295346
v 0.06213736 -0.07648205 0.11546906
v 0.06196127 -0.07648205 0.11798466
v 0.06156320 -0.07648205 0.12050026
v 0.06058727 -0.07821842 0.12050026
v 0.06091217 -0.07864184 0.11798466
v 0.05939432 -0.08015500 0.11648522
v 0.06029089 -0.07791480 0.12202449
v 0.05866515 -0.08057023 0.11558059
v 0.05771898 -0.08026989 0.11678263
v 0.05631522 -0.08081148 0.11546906
v 0.05497594 -0.08030272 0.11680741
v 0.05462128 -0.08056859 0.11546906
v 0.05370859 -0.07899634 0.11546906
v 0.05003053 -0.07399239 0.00556336
v 0.05320636 -0.07648205 0.11546906
v 0.05326588 -0.06894576 0.12553146
v 0.05329936 -0.06643148 0.12803467
v 0.05328696 -0.06548452 0.12803467
v 0.05326588 -0.06548452 0.12647327
v 0.05864779 -0.08112823 0.00556336
v 0.06062571 -0.08057843 0.01745979
v 0.06065795 -0.08061782 0.01997539
v 0.06069019 -0.08064736 0.02249099
v 0.06072119 -0.08067362 0.02500659
v 0.06078072 -0.08072450 0.03002540
v 0.06080800 -0.08075076 0.03254100
v 0.06085884 -0.08080163 0.03755981
v 0.06090596 -0.08085251 0.04259101
v 0.06094689 -0.08090338 0.04762221
v 0.06100021 -0.08097888 0.05515662
v 0.06102873 -0.08102976 0.06018782
v 0.06104113 -0.08105602 0.06270342
v 0.06105477 -0.08108391 0.06557839
v 0.06107213 -0.08112823 0.07023783
v 0.05915498 -0.08193733 0.06557839
v 0.06107958 -0.08114956 0.07275343
v 0.06108701 -0.08116926 0.07525664
v 0.06206543 -0.07899634 0.05767222
v 0.06207907 -0.07899634 0.06018782
v 0.06209147 -0.07899634 0.06270342
v 0.06210511 -0.07899634 0.06557839
v 0.05342213 -0.07648205 0.11798466
v 0.05329068 -0.07396941 0.12050026
v 0.06183354 -0.07425498 0.00556336
v 0.06217456 -0.06548452 0.12050026
v 0.06205055 -0.07899634 0.05515662
v 0.06203443 -0.07899634 0.05264102
v 0.06201707 -0.07899634 0.05013781
v 0.06197739 -0.07899634 0.04510661
v 0.06195631 -0.07899634 0.04259101
v 0.06193398 -0.07899634 0.04007541
v 0.06191042 -0.07899634 0.03755981
v 0.06185834 -0.07899634 0.03254100
v 0.06183106 -0.07899634 0.03002540
v 0.06180254 -0.07899634 0.02752219
v 0.06176905 -0.07899634 0.02500659
v 0.06173185 -0.07899634 0.02249099
v 0.06168721 -0.07899634 0.01997539
v 0.06164009 -0.07899634 0.01745979
v 0.06157064 -0.07899634 0.01494419
v 0.06126682 -0.07901111 0.00556336
v 0.06218448 -0.06548452 0.12553146
v 0.06218448 -0.07396941 0.11798466
v 0.06217704 -0.07145840 0.12301587
v 0.06211008 -0.07396941 0.12050026
v 0.06179262 -0.07396941 0.12301587
v 0.06073607 -0.07641312 0.12292912
v 0.05866515 -0.07979723 0.11776160
v 0.06036405 -0.07552852 0.12451531
v 0.05882636 -0.07564013 0.12463923
v 0.05882636 -0.07689563 0.12325131
v 0.05882636 -0.07789183 0.12198732
v 0.05882636 -0.07865169 0.12050026
v 0.05631522 -0.08030272 0.11681980
v 0.05750569 -0.07776710 0.12178905
v 0.05583159 -0.07741752 0.12130575
v 0.05528844 -0.07509689 0.12414355
v 0.05488789 -0.07282715 0.12694416
v 0.05470684 -0.07802640 0.11963282
v 0.05443651 -0.07891592 0.11777400
v 0.05417485 -0.07654114 0.12048787
v 0.05249580 -0.07144363 0.00556336
v 0.05326588 -0.06548452 0.12144207
v 0.05327208 -0.06548452 0.12050026
v 0.05364534 -0.07145840 0.12553146
v 0.05364410 -0.06894576 0.12803467
v 0.05339113 -0.06548452 0.12898887
v 0.06017928 -0.08029287 0.00854986
v 0.06031321 -0.08035852 0.00992538
v 0.06046574 -0.08044878 0.01244098
v 0.06057115 -0.08052591 0.01494419
v 0.06075220 -0.08069824 0.02752219
v 0.06083404 -0.08077537 0.03505660
v 0.06088364 -0.08082625 0.04007541
v 0.06092705 -0.08087713 0.04510661
v 0.06096549 -0.08092800 0.05013781
v 0.06101509 -0.08100350 0.05767222
v 0.06177898 -0.07396941 0.00556336
v 0.06112422 -0.06548452 0.11819533
v 0.06120110 -0.07187198 0.00556336
v 0.06109446 -0.07163237 0.00556336
v 0.05882636 -0.06984512 0.00556336
v 0.05769666 -0.06973189 0.00556336
v 0.06210263 -0.06548452 0.12803467
v 0.06218448 -0.06643148 0.12553146
v 0.06217208 -0.06894576 0.12553146
v 0.06185710 -0.06894576 0.12803467
v 0.06085512 -0.07138619 0.12791075
v 0.06045458 -0.07049996 0.12949695
v 0.05696254 -0.07547437 0.12451531
v 0.05882636 -0.07186213 0.12838165
v 0.05631522 -0.07174725 0.12835687
v 0.05631522 -0.07294531 0.12710526
v 0.05639582 -0.07644594 0.12296629
v 0.05492014 -0.07034569 0.12937302
v 0.05451463 -0.07129265 0.12788597
v 0.05454192 -0.07333099 0.12553146
v 0.05454563 -0.07574188 0.12245822
v 0.05378795 -0.07015038 0.00556336
v 0.05383135 -0.06548452 0.11907517
v 0.05631274 -0.06961865 0.00556336
v 0.05454068 -0.06894576 0.12975718
v 0.05421826 -0.06634942 0.13062463
v 0.05397768 -0.06548452 0.13059984
v 0.05882636 -0.06548452 0.11719157
v 0.06208279 -0.06643148 0.12803467
v 0.06106469 -0.06548452 0.13051309
v 0.06103245 -0.06643148 0.13031483
v 0.06081544 -0.06894576 0.12984392
v 0.05980106 -0.06548452 0.13171514
v 0.05838490 -0.06555345 0.13200015
v 0.05882636 -0.06894576 0.13038917
v 0.05882636 -0.07060664 0.12954651
v 0.05631522 -0.07049011 0.12945976
v 0.05631522 -0.06894576 0.13030243
v 0.05631522 -0.06692711 0.13139294
v 0.05500942 -0.06548452 0.13197537
v 0.05478993 -0.06548452 0.13192579
v 0.05416741 -0.06548452 0.11826968
v 0.05550917 -0.06548452 0.11760051
v 0.05631522 -0.06548452 0.11725353
v 0.05429762 -0.06548452 0.13124423
v 0.05841838 -0.06548452 0.13201254
v 0.05631522 -0.06548452 0.13216124
f 1 2 3
f 1 3 12
f 1 12 4
f 1 4 5
f 1 5 2
f 2 5 6
f 2 6 7
f 2 7 3
f 3 7 6
f 3 6 8
f 3 8 9
f 3 9 10
f 3 10 11
f 3 11 26
f 3 26 12
f 4 12 13
f 4 13 5
f 5 14 30
f 5 30 55
f 5 55 89
f 5 89 157
f 5 157 194
f 5 194 196
f 5 196 178
f 5 178 177
f 5 177 176
f 5 176 175
f 5 175 173
f 5 173 119
f 5 119 73
f 5 73 136
f 5 136 95
f 5 95 58
f 5 58 57
f 5 57 32
f 5 32 15
f 5 15 16
f 5 16 17
f 5 17 18
f 5 18 19
f 5 19 8
f 5 8 6
f 5 13 20
f 5 20 14
f 8 19 9
f 9 21 22
f 9 22 23
f 9 23 10
f 9 19 18
f 9 18 17
f 9 17 16
f 9 16 21
f 10 23 24
f 10 24 25
f 10 25 11
f 11 25 47
f 11 47 26
f 12 26 27
f 12 27 28
f 12 28 29
f 12 29 20
f 12 20 13
f 14 20 31
f 14 31 30
f 15 32 33
f 15 33 16
f 16 33 66
f 16 66 34
f 16 34 35
f 16 35 36
f 16 36 37
f 16 37 38
f 16 38 21
f 20 29 39
f 20 39 31
f 21 38 22
f 22 38 37
f 22 37 40
f 22 40 41
f 22 41 42
f 22 42 43
f 22 43 23
f 23 43 44
f 23 44 24
f 24 44 45
f 24 45 46
f 24 46 25
f 25 46 75
f 25 75 47
f 26 47 48
f 26 48 27
f 27 48 49
f 27 49 50
f 27 50 28
f 28 50 51
f 28 51 52
f 28 52 53
f 28 53 29
f 29 53 54
f 29 54 39
f 30 31 39
f 30 39 56
f 30 56 55
f 32 57 33
f 33 57 58
f 33 58 59
f 33 59 60
f 33 60 61
f 33 61 62
f 33 62 63
f 33 63 64
f 33 64 65
f 33 65 66
f 34 66 67
f 34 67 35
f 35 67 68
f 35 68 69
f 35 69 36
f 36 69 37
f 37 69 40
f 39 54 70
f 39 70 56
f 40 69 71
f 40 71 72
f 40 72 41
f 41 72 73
f 41 73 45
f 41 45 42
f 42 45 43
f 43 45 44
f 45 73 74
f 45 74 46
f 46 74 137
f 46 137 180
f 46 180 138
f 46 138 75
f 47 75 76
f 47 76 48
f 48 76 77
f 48 77 49
f 49 77 78
f 49 78 79
f 49 79 80
f 49 80 50
f 50 80 79
f 50 79 51
f 51 81 52
f 51 79 82
f 51 82 81
f 52 81 83
f 52 83 84
f 52 84 85
f 52 85 53
f 53 85 86
f 53 86 87
f 53 87 54
f 54 87 88
f 54 88 70
f 55 56 90
f 55 90 91
f 55 91 92
f 55 92 93
f 55 93 94
f 55 94 89
f 56 70 90
f 58 95 59
f 59 96 97
f 59 97 98
f 59 98 99
f 59 99 100
f 59 100 101
f 59 101 102
f 59 102 103
f 59 103 60
f 59 95 96
f 60 103 104
f 60 104 105
f 60 105 106
f 60 106 107
f 60 107 108
f 60 108 109
f 60 109 61
f 61 109 62
f 62 109 110
f 62 110 63
f 63 110 111
f 63 111 112
f 63 112 64
f 64 112 65
f 65 112 66
f 66 112 67
f 67 69 68
f 67 112 113
f 67 113 114
f 67 114 115
f 67 115 116
f 67 116 69
f 69 116 71
f 70 88 117
f 70 117 118
f 70 118 90
f 71 116 73
f 71 73 72
f 73 119 120
f 73 120 74
f 73 116 115
f 73 115 114
f 73 114 113
f 73 113 121
f 73 121 122
f 73 122 123
f 73 123 124
f 73 124 125
f 73 125 126
f 73 126 127
f 73 127 128
f 73 128 129
f 73 129 130
f 73 130 131
f 73 131 132
f 73 132 133
f 73 133 134
f 73 134 135
f 73 135 136
f 74 120 174
f 74 174 200
f 74 200 216
f 74 216 215
f 74 215 214
f 74 214 195
f 74 195 159
f 74 159 158
f 74 158 94
f 74 94 93
f 74 93 162
f 74 162 199
f 74 199 217
f 74 217 213
f 74 213 212
f 74 212 219
f 74 219 218
f 74 218 205
f 74 205 202
f 74 202 179
f 74 179 137
f 75 138 76
f 76 138 139
f 76 139 140
f 76 140 77
f 77 140 141
f 77 141 78
f 78 141 142
f 78 142 82
f 78 82 79
f 81 84 83
f 81 82 143
f 81 143 84
f 82 142 144
f 82 144 145
f 82 145 146
f 82 146 147
f 82 147 148
f 82 148 143
f 84 143 148
f 84 148 149
f 84 149 85
f 85 149 86
f 86 149 148
f 86 148 147
f 86 147 150
f 86 150 151
f 86 151 152
f 86 152 153
f 86 153 154
f 86 154 155
f 86 155 87
f 87 155 88
f 88 155 156
f 88 156 117
f 89 94 158
f 89 158 159
f 89 159 157
f 90 118 91
f 91 118 160
f 91 160 161
f 91 161 92
f 92 161 162
f 92 162 93
f 95 136 163
f 95 163 164
f 95 164 165
f 95 165 166
f 95 166 96
f 96 166 136
f 96 136 135
f 96 135 134
f 96 134 97
f 97 134 98
f 98 134 99
f 99 134 133
f 99 133 167
f 99 167 100
f 100 167 133
f 100 133 132
f 100 132 101
f 101 168 102
f 101 132 168
f 102 169 103
f 102 168 132
f 102 132 169
f 103 170 104
f 103 169 132
f 103 132 131
f 103 131 170
f 104 171 105
f 104 170 131
f 104 131 130
f 104 130 171
f 105 172 106
f 105 171 130
f 105 130 172
f 106 172 129
f 106 129 128
f 106 128 107
f 107 128 127
f 107 127 108
f 108 127 126
f 108 126 125
f 108 125 109
f 109 111 110
f 109 125 124
f 109 124 123
f 109 123 111
f 111 123 112
f 112 123 122
f 112 122 121
f 112 121 113
f 117 156 160
f 117 160 118
f 119 173 120
f 120 173 175
f 120 175 176
f 120 176 177
f 120 177 178
f 120 178 174
f 129 172 130
f 136 166 165
f 136 165 164
f 136 164 163
f 137 179 180
f 138 180 139
f 139 141 140
f 139 180 181
f 139 181 182
f 139 182 141
f 141 182 183
f 141 183 142
f 142 183 144
f 144 183 184
f 144 184 145
f 145 185 146
f 145 184 186
f 145 186 187
f 145 187 188
f 145 188 185
f 146 185 150
f 146 150 147
f 150 185 189
f 150 189 151
f 151 189 152
f 152 189 153
f 153 188 187
f 153 187 190
f 153 190 191
f 153 191 192
f 153 192 193
f 153 193 154
f 153 189 185
f 153 185 188
f 154 193 155
f 155 193 156
f 156 193 192
f 156 192 160
f 157 159 194
f 159 195 196
f 159 196 194
f 160 191 161
f 160 192 191
f 161 191 197
f 161 197 198
f 161 198 199
f 161 199 162
f 174 178 196
f 174 196 200
f 179 201 181
f 179 181 180
f 179 202 201
f 181 201 182
f 182 201 202
f 182 202 203
f 182 203 204
f 182 204 184
f 182 184 183
f 184 204 205
f 184 205 206
f 184 206 207
f 184 207 208
f 184 208 186
f 186 208 187
f 187 208 209
f 187 209 190
f 190 209 210
f 190 210 211
f 190 211 212
f 190 212 213
f 190 213 197
f 190 197 191
f 195 214 196
f 196 214 215
f 196 215 216
f 196 216 200
f 197 213 217
f 197 217 198
f 198 217 199
f 202 205 203
f 203 205 204
f 205 218 206
f 206 218 219
f 206 219 207
f 207 219 208
f 208 219 211
f 208 211 210
f 208 210 209
f 211 219 212

