# https://github.com/mikedh/trimesh
v -0.40954170 -0.57560480 -0.22396752
v -0.40999940 -0.57561100 -0.22394264
v -0.40088731 -0.36090663 -0.28879085
v -0.41137296 0.41613522 -0.48374113
v -0.39392173 -0.56780481 -0.16923752
v -0.52583563 0.49283588 -0.16921026
v -0.41735172 -0.56571484 -0.16533750
v -0.50338250 0.50641459 -0.21221906
v -0.50329173 0.50646520 -0.21220753
v -0.52163905 0.49301726 -0.28035179
v -0.38742158 -0.57971293 -0.19832765
v -0.50339156 0.50639457 -0.20826179
v -0.50333083 0.50643390 -0.20831712
v -0.40954170 -0.56779480 -0.16923752
v -0.40954170 -0.56780201 -0.16923758
v -0.49939173 0.50873518 -0.21220753
v -0.41735172 -0.56389481 -0.16192752
v -0.42109829 -0.55782521 -0.15208845
v -0.40564173 -0.56780481 -0.16923752
v -0.40564173 -0.56779480 -0.16923752
v -0.36616361 0.25360993 -0.32541746
v -0.49577960 0.51042849 -0.19779073
v -0.50336176 0.50641519 -0.20830750
v -0.50706559 0.50427431 -0.21220677
v -0.40564173 -0.57560480 -0.22396752
v -0.40173173 -0.56779480 -0.16923752
v -0.39782172 -0.56780481 -0.16923752
v -0.39782172 -0.56779480 -0.16923752
v -0.38229385 -0.36845741 -0.33324382
v -0.40173173 -0.57561481 -0.22392751
v -0.40173173 -0.57560480 -0.22396752
v -0.35485449 0.70166856 -0.30982131
v -0.35607174 0.69781518 -0.30986750
v -0.33693072 -0.35760733 -0.33696738
v -0.33533174 -0.38420480 0.04168248
v -0.33533174 -0.38029477 0.04168248
v -0.40564173 -0.57561481 -0.22392751
v -0.40466046 -0.57531977 -0.22687002
v -0.40173173 -0.56780481 -0.16923752
v -0.39782172 -0.57561481 -0.22392751
v -0.37439173 -0.36857477 -0.33333752
v -0.38220173 -0.36857477 -0.33333752
v -0.38600674 -0.37115255 -0.33530563
v -0.33533174 -0.39201477 0.04168248
v -0.37829170 -0.36853480 -0.33330750
v -0.38220173 -0.36853480 -0.33330750
v -0.33532172 -0.39592478 0.04169249
v -0.29626173 -0.23195480 -0.48955750
v -0.29354605 -0.23192519 -0.48958996
v -0.40375826 -0.53999156 -0.31003347
v -0.41826960 0.55447096 -0.17128225
v -0.38940537 -0.56619602 -0.16376168
v -0.40173173 -0.56362480 -0.16142751
v -0.42211160 -0.57386708 -0.18263195
v -0.21814172 -0.60685480 -0.30977750
v -0.37829170 -0.36857477 -0.33333752
v -0.30063048 -0.23190840 -0.48960859
v -0.33533174 -0.33732477 0.04168248
v -0.33533174 -0.34904477 0.04168248
v -0.33533174 -0.35295480 0.04168248
v -0.33532172 -0.33342478 0.04169249
v -0.33533174 -0.32951477 0.04168248
v -0.33533174 -0.33342478 0.04168248
v -0.33532172 -0.38420480 0.04169249
v -0.33660173 -0.34465230 0.03778248
v -0.36297950 -0.50188535 -0.40241924
v -0.33532172 -0.36076477 0.04169249
v -0.33532172 -0.35685477 0.04169249
v -0.33533174 -0.35685477 0.04168248
v -0.33533174 -0.38810477 0.04168248
v -0.33533174 -0.36857477 0.04168248
v -0.33142173 -0.40080479 0.04271248
v -0.33532172 -0.35295480 0.04169249
v -0.33532172 -0.34904477 0.04169249
v -0.33533174 -0.37248480 0.04168248
v -0.33532172 -0.37639478 0.04169249
v -0.33532172 -0.37248480 0.04169249
v -0.33532172 -0.38810477 0.04169249
v -0.33636090 -0.39518744 0.03980887
v -0.38141659 0.00435120 -0.32934803
v -0.38059282 0.15080719 -0.32800180
v -0.41185078 0.36954945 -0.07890171
v -0.37829170 0.24078521 -0.32940751
v -0.37829170 0.24327521 -0.32939750
v -0.37830174 0.24078521 -0.32939750
v -0.37438977 0.20583352 -0.32937419
v -0.37829170 0.22906521 -0.32942751
v -0.37829170 0.22516520 -0.32943749
v -0.37835175 0.22906521 -0.32939750
v -0.37836173 0.22516520 -0.32939750
v -0.38109538 0.23218131 -0.32570410
v -0.37835532 0.22054002 -0.32942829
v -0.37829170 0.23297520 -0.32942751
v -0.37829170 0.22125521 -0.32944751
v -0.37832174 0.23688520 -0.32939750
v -0.37833172 0.23297520 -0.32939750
v -0.37829170 0.23688520 -0.32941750
v -0.29242739 -0.21715400 -0.50769192
v -0.33532172 -0.02287479 -0.54618752
v -0.21300510 -0.32881734 -0.42318219
v -0.33658919 0.10442258 -0.54419363
v -0.33532172 -0.34123480 0.04169249
v -0.33533174 -0.34123480 0.04168248
v -0.33532172 -0.39201477 0.04169249
v -0.33532172 -0.33732477 0.04169249
v -0.21423171 -0.60678482 -0.30986750
v -0.22985172 0.44781521 0.22026248
v -0.20642172 -0.60678482 -0.30986750
v -0.20251171 -0.60678482 -0.30986750
v -0.20251171 -0.60685480 -0.30977750
v -0.36587620 0.65896803 -0.31814373
v -0.35487807 0.70578551 -0.30548424
v -0.35483170 0.70172518 -0.30986750
v -0.35478175 0.70563519 -0.30595750
v -0.35485172 0.70172518 -0.30977750
v -0.38302678 0.69212043 -0.23652557
v -0.38474956 -0.66241783 -0.24332862
v -0.11891948 -0.13874894 0.21818250
v -0.29235172 -0.23185480 -0.48966753
v -0.29342544 -0.24356554 -0.47569847
v -0.30017173 -0.23185480 -0.48966753
v -0.33640197 -0.18464112 -0.54654419
v -0.29626173 -0.23185480 -0.48966753
v -0.33532172 -0.31389478 0.04169249
v -0.33533174 -0.37639478 0.04168248
v -0.33532172 -0.36467478 0.04169249
v -0.19860172 -0.60685480 -0.30977750
v -0.19860172 -0.60678482 -0.30986750
v -0.33532172 -0.32560477 0.04169249
v -0.33532172 -0.30217478 0.04169249
v -0.33532172 -0.30607477 0.04169249
v -0.33533174 -0.30217478 0.04168248
v -0.33532172 -0.29435477 0.04169249
v -0.33533174 -0.36467478 0.04168248
v -0.33533174 -0.36076477 0.04168248
v -0.35485172 0.70539516 -0.30595750
v -0.35481921 0.69786114 -0.31389192
v -0.35485172 0.69788522 -0.31377751
v -0.35480273 0.70931780 -0.30204785
v -0.31936067 0.79700893 -0.35873374
v -0.33434671 0.05597208 -0.54655004
v -0.16345172 -0.60685480 -0.30977750
v -0.16735172 -0.60678482 -0.30986750
v -0.16345172 -0.60678482 -0.30986750
v -0.33532172 -0.36857477 0.04169249
v -0.33532172 -0.38029477 0.04169249
v -0.33533174 -0.34514478 0.04168248
v -0.33532172 -0.34514478 0.04169249
v -0.33589613 -0.41324875 0.04105145
v -0.33533174 -0.32170480 0.04168248
v -0.33533174 -0.32560477 0.04168248
v -0.33533174 -0.31389478 0.04168248
v -0.33533174 -0.30998480 0.04168248
v -0.33532172 -0.32951477 0.04169249
v -0.33533174 -0.28654477 0.04168248
v -0.33533174 -0.29045480 0.04168248
v -0.33532172 -0.29826477 0.04169249
v -0.33533174 -0.31779477 0.04168248
v -0.33533174 -0.30607477 0.04168248
v -0.33254150 -0.28966847 0.04266882
v -0.33533174 -0.29435477 0.04168248
v -0.33532172 -0.29045480 0.04169249
v -0.33532172 -0.32170480 0.04169249
v -0.33533174 -0.29826477 0.04168248
v -0.33532172 -0.31779477 0.04169249
v -0.28022602 -0.59631884 -0.32286748
v -0.33532172 -0.30998480 0.04169249
v -0.33532172 -0.28654477 0.04169249
v -0.33533174 -0.28264478 0.04168248
v -0.35091159 -0.30652025 -0.02464007
v -0.33144313 -0.24428801 0.06578901
v -0.33532172 0.19586521 -0.54618752
v -0.33514670 0.19619803 -0.54662836
v -0.15505931 -0.59927392 -0.31912318
v -0.14001171 -0.60685480 -0.30977750
v -0.11988993 -0.03877606 -0.66148269
v -0.06355739 0.50598168 0.20785971
v -0.15170172 0.63531518 -0.58330750
v -0.15173171 0.63922518 -0.58343750
v -0.15169172 0.63922518 -0.58330750
v -0.25359505 -0.60683882 -0.30979899
v -0.25329170 -0.60678482 -0.30986750
v -0.24939172 -0.60685480 -0.30977750
v -0.33660173 0.18542331 -0.43167424
v -0.18298008 0.35817742 0.23220117
v -0.25214297 0.40190485 0.21709634
v -0.08578512 0.29940540 0.22854002
v -0.20642172 -0.60685480 -0.30977750
v -0.15173171 0.62779522 -0.58330750
v -0.15196887 0.62934941 -0.58419698
v -0.15173094 0.63527405 -0.58338511
v -0.24939172 -0.60678482 -0.30986750
v -0.21423171 -0.60685480 -0.30977750
v -0.21032172 -0.60678482 -0.30986750
v -0.22204173 -0.60685480 -0.30977750
v -0.22204173 -0.60678482 -0.30986750
v -0.22595172 -0.60678482 -0.30986750
v -0.21636015 -0.61344278 -0.30166030
v -0.19079173 -0.60685480 -0.30977750
v -0.18689172 -0.60685480 -0.30977750
v -0.10486231 -0.13821650 -0.70044959
v -0.22219859 0.44382393 0.22528672
v -0.22215173 0.44391522 0.22528248
v -0.15173171 0.62750518 -0.58329749
v -0.15173171 0.62750518 -0.58330750
v -0.23811777 0.48248413 0.20591687
v -0.15176173 0.61969519 -0.58330750
v -0.15173171 0.64313519 -0.58347750
v -0.22209044 0.44399345 0.22528814
v -0.19470172 -0.60685480 -0.30977750
v -0.24548171 -0.60678482 -0.30986750
v -0.20701773 -0.59353656 -0.32598698
v -0.24157172 -0.60685480 -0.30977750
v -0.24157172 -0.60678482 -0.30986750
v -0.23767172 -0.60685480 -0.30977750
v -0.24743421 -0.61076480 -0.30501750
v -0.24548171 -0.60685480 -0.30977750
v -0.22985172 -0.60685480 -0.30977750
v -0.23376171 -0.60685480 -0.30977750
v -0.23376171 -0.60678482 -0.30986750
v -0.23767172 -0.60678482 -0.30986750
v -0.22595172 -0.60685480 -0.30977750
v -0.22985172 -0.60678482 -0.30986750
v -0.21814172 -0.60678482 -0.30986750
v -0.33658016 -0.36946335 0.02974790
v -0.19470172 -0.60678482 -0.30986750
v -0.20251171 0.38531521 0.23120248
v -0.22992416 0.44390848 0.22144990
v -0.22985172 0.44426519 0.22137249
v -0.21423157 0.44391811 0.22918603
v -0.15171470 0.64322144 -0.58342105
v -0.16323812 0.71120012 -0.60399044
v -0.15173171 0.62360519 -0.58325750
v -0.15174171 0.62360519 -0.58330750
v -0.19436538 0.42058426 0.24658369
v -0.19079173 -0.60678482 -0.30986750
v -0.14782172 -0.60678482 -0.30986750
v -0.14392172 -0.60685480 -0.30977750
v -0.16509202 -0.61338037 -0.30175683
v -0.21032172 -0.60685480 -0.30977750
v -0.18689172 -0.60678482 -0.30986750
v -0.17126171 -0.60685480 -0.30977750
v -0.17517172 -0.60678482 -0.30986750
v -0.17126171 -0.60678482 -0.30986750
v -0.15173171 -0.60685480 -0.30977750
v -0.14782172 -0.60685480 -0.30977750
v -0.19860172 0.38518521 0.23309249
v -0.19863863 0.38523111 0.23308998
v -0.19079173 0.38531521 0.23698248
v -0.19076495 0.38531536 0.23699960
v -0.15175097 0.61893445 -0.58326548
v -0.15056172 0.62360519 -0.57939750
v -0.18298171 -0.60685480 -0.30977750
v -0.17517172 -0.60685480 -0.30977750
v -0.16735172 -0.60685480 -0.30977750
v -0.17907172 -0.60678482 -0.30986750
v -0.18298171 -0.60678482 -0.30986750
v -0.17907172 -0.60685480 -0.30977750
v -0.15954173 -0.60685480 -0.30977750
v -0.15564172 -0.60685480 -0.30977750
v -0.15954173 -0.60678482 -0.30986750
v -0.15564172 -0.60678482 -0.30986750
v 0.02381621 -0.06777725 -0.70439470
v -0.13839440 0.61904460 -0.54070920
v -0.15816572 0.62519473 -0.60387057
v -0.15505227 0.82618505 0.70965403
v -0.15173171 -0.60678482 -0.30986750
v -0.10646249 -0.14215168 -0.70033950
v -0.12648170 -0.16142695 -0.68646151
v -0.10339173 -0.13420479 -0.70048749
v -0.09707802 -0.14228916 -0.70441490
v -0.09701535 -0.14198653 -0.70439589
v -0.09704172 -0.14201479 -0.70438749
v -0.10474173 -0.13810480 -0.70048749
v 0.00841828 -0.33342478 0.26048249
v 0.00450828 -0.33238477 0.26434249
v -0.10499788 -0.12903571 -0.69902498
v -0.05579887 -0.12400527 0.30430657
v -0.11309879 0.90774047 0.59077048
v -0.28666344 -0.34538382 0.04504688
v -0.08533874 -0.13436508 -0.70829755
v -0.01892172 -0.15761480 -0.60283750
v -0.04517949 -0.15621346 -0.59575337
v -0.00338295 -0.08094385 -0.71302098
v -0.20659871 0.88066316 -0.02941665
v -0.06188895 0.93609965 0.56902224
v 0.03967229 -0.11074916 0.30340803
v 0.01231828 -0.33343479 0.26043248
v -0.00316028 -0.32846990 0.28158158
v -0.00099452 -0.33281729 0.26036978
v 0.02013828 -0.15764479 -0.60280752
v 0.00027461 -0.14386730 -0.62238818
v 0.00440524 -0.33342794 0.26043060
v -0.02282172 -0.15764479 -0.60280752
v -0.01892172 -0.15764479 -0.60280752
v -0.07962991 -0.17668681 -0.62143713
v 0.01630947 -0.08351420 -0.71221286
v 0.02013828 -0.15761480 -0.60283750
v 0.02403828 -0.15761480 -0.60283750
v 0.02794828 -0.12639479 0.30730250
v 0.02794828 -0.12645480 0.30731249
v 0.01231828 -0.15761480 -0.60283750
v 0.01622828 -0.15764479 -0.60280752
v 0.01622828 -0.15761480 -0.60283750
v -0.01501172 -0.15761480 -0.60283750
v -0.01110172 -0.15761480 -0.60283750
v -0.01501172 -0.15764479 -0.60280752
v -0.02673172 -0.15761480 -0.60283750
v -0.02282172 -0.15761480 -0.60283750
v -0.00251143 -0.16213183 -0.59500140
v 0.00841828 -0.15761480 -0.60283750
v -0.00720172 -0.15761480 -0.60283750
v -0.00329172 -0.15764479 -0.60280752
v -0.00329172 -0.15761480 -0.60283750
v -0.05797765 0.93610644 0.57292247
v -0.05798172 0.93609518 0.57293248
v -0.05407172 0.93609518 0.57684249
v -0.05017172 0.93610519 0.58075249
v -0.05407172 0.93610579 0.57684249
v -0.05407172 0.93610519 0.57683247
v -0.05407172 0.93690521 0.57293248
v 0.06310828 0.88921517 0.22918250
v -0.03073353 0.94723052 0.55150300
v 0.01455131 0.94417059 0.58422899
v 0.00450828 -0.33343479 0.26043248
v 0.00450828 -0.33342478 0.26048249
v -0.00856656 0.94919556 -0.43941909
v 0.02403828 -0.15764479 -0.60280752
v 0.01622828 -0.33343479 0.26043248
v 0.06978791 -0.33262104 0.28273943
v 0.00060828 -0.15761480 -0.60283750
v 0.00060828 -0.15764479 -0.60280752
v 0.00450828 -0.15764479 -0.60280752
v 0.00841828 -0.15764479 -0.60280752
v 0.05672898 -0.15932937 -0.72478789
v 0.00841828 -0.33342478 0.26041248
v 0.01231828 -0.33342478 0.26039249
v 0.02794828 -0.15764479 -0.60280752
v 0.02794828 -0.15761480 -0.60283750
v -0.00720172 -0.15764479 -0.60280752
v -0.01110172 -0.15764479 -0.60280752
v 0.12169828 -0.63420480 -0.30870751
v 0.11913608 -0.63259023 -0.30632663
v 0.03183828 -0.13029480 0.30731249
v 0.02013828 -0.13029480 0.30896249
v 0.01723383 0.70715803 0.52081519
v 0.15294828 0.61969519 -0.58320749
v 0.15295827 0.62360519 -0.58330750
v 0.15294828 0.62360519 -0.58325750
v 0.02013355 0.69400084 0.45532015
v 0.05528828 0.88922518 0.22143248
v 0.05528828 0.89022517 0.22528248
v 0.05919828 0.88921517 0.22528248
v 0.10337727 0.26925007 0.14247817
v 0.01231828 -0.15764479 -0.60280752
v 0.02164710 -0.33423910 0.25555405
v 0.01622828 -0.08342479 -0.71218753
v 0.01989234 -0.07540201 -0.70822144
v 0.01802970 -0.08629098 -0.71318144
v 0.02016759 -0.07565877 -0.70829934
v 0.03185828 -0.15761480 -0.60283750
v 0.07146972 -0.16089912 0.30630070
v 0.02403828 -0.12248479 0.30729249
v 0.02392828 -0.12248479 0.30731249
v 0.02403828 -0.12259479 0.30731249
v 0.00841828 -0.33343479 0.26043248
v 0.03966828 -0.15764479 -0.60280752
v 0.04356828 -0.15764479 -0.60280752
v 0.03966828 -0.15761480 -0.60283750
v 0.01580205 -0.08330240 -0.71219081
v 0.00450828 -0.15761480 -0.60283750
v 0.01622828 -0.33342478 0.25989249
v 0.03180528 -0.13033615 0.30731702
v 0.03575828 -0.10685479 0.30340248
v 0.03966828 -0.11071479 0.30340248
v 0.02788376 -0.12640347 0.30731305
v 0.02013828 -0.07566479 -0.70830750
v 0.02013828 -0.11874479 0.30731249
v 0.03185828 -0.13029480 0.30731249
v 0.07091827 0.74843520 0.35418248
v 0.06700828 0.74860519 0.35415250
v 0.01967517 -0.11825092 0.30730867
v 0.04356828 -0.11467479 0.30342248
v 0.04356828 -0.11076479 0.30286247
v 0.04747828 -0.11842479 0.30340248
v 0.02400833 0.69391328 0.45181236
v 0.01708770 0.68662483 0.42470518
v 0.06505828 0.74852020 0.35416749
v 0.02777828 0.69391519 0.44793248
v 0.02403828 0.69391519 0.45179251
v 0.02794828 0.69395518 0.44793248
v 0.02405193 0.69393158 0.45185640
v 0.07145664 0.87585205 0.18365027
v 0.04943328 0.74842519 0.35418248
v 0.03966828 -0.10685479 0.30285248
v 0.10996833 -0.54058325 -0.68482840
v 0.09276932 -0.17770091 -0.57517630
v 0.20345533 -0.74341953 0.10506390
v 0.03954487 -0.16724703 -0.59020591
v 0.04460763 -0.11879157 0.30386350
v 0.05935596 -0.15762888 -0.60282350
v 0.04356828 -0.15761480 -0.60283750
v 0.04747828 -0.15761480 -0.60283750
v 0.04747828 -0.15764479 -0.60280752
v 0.04055762 -0.15033779 -0.61360377
v 0.03970828 -0.11076479 0.30340248
v 0.03185828 -0.15764479 -0.60280752
v 0.04363307 -0.11463957 0.30340248
v 0.05138828 -0.15761480 -0.60283750
v 0.05528828 -0.15764479 -0.60280752
v 0.05528828 -0.15761480 -0.60283750
v 0.03575828 -0.10686479 0.30340248
v 0.03575828 -0.15764479 -0.60280752
v 0.03575828 -0.13029480 0.30676249
v 0.00678923 -0.16626939 0.31575337
v 0.05138828 -0.15764479 -0.60280752
v 0.03575828 -0.15761480 -0.60283750
v 0.05919828 -0.15764479 -0.60280752
v 0.01241065 -0.02848531 0.28641012
v 0.09616290 0.00234584 0.23416846
v 0.09435828 0.00965521 0.22918250
v 0.09435828 0.28201523 0.21356247
v 0.09044427 0.27985024 0.20575272
v 0.09048827 0.27985522 0.20575248
v 0.09435828 0.27989519 0.20575248
v 0.09435828 0.27985522 0.20559248
v 0.09825828 0.27993521 0.20575248
v 0.05074425 0.70480376 0.47003150
v 0.14122827 0.58844519 -0.54423749
v 0.14122827 0.58793521 -0.54423749
v 0.10216827 0.65485519 -0.55062753
v 0.14122827 0.58844519 -0.54424751
v 0.02909564 0.69393170 0.44667175
v 0.10216827 0.66266519 -0.54814750
v 0.15294828 0.62750518 -0.58329749
v 0.15294848 0.62754422 -0.58331037
v 0.04813889 -0.11857508 0.30333120
v 0.04356828 0.74842519 0.35418248
v 0.04747828 0.74860519 0.35415250
v -0.14586742 0.42368850 -0.66289067
v 0.07607238 0.74844408 0.35418132
v 0.07286828 0.74860519 0.35415250
v 0.05528828 0.74842519 0.35418248
v 0.09114479 0.76184678 -0.52102399
v 0.05919828 0.74860519 0.35415250
v 0.05916802 0.88922524 0.22528230
v 0.13961907 0.61858648 -0.54024810
v 0.03918125 0.88995695 0.20846164
v 0.05523132 0.88922107 0.22134410
v 0.01482952 0.71720749 0.36863026
v 0.05253987 0.90767229 -0.26185530
v 0.12969558 0.93741143 -0.42870736
v 0.10142181 -0.53780395 -0.69406337
v 0.07366520 -0.63185650 -0.66902226
v 0.10568399 -0.54016125 -0.68913722
v 0.12561063 -0.63810074 -0.30986193
v 0.10997738 -0.54037338 -0.68486619
v 0.10995828 -0.54045480 -0.68486750
v 0.10608828 -0.54045480 -0.68877751
v 0.17356639 -0.35095823 0.18262069
v 0.10606828 -0.54055482 -0.68877751
v 0.05846169 -0.15326916 -0.61058539
v 0.06791515 0.02120257 0.23157281
v 0.03589421 -0.16820376 -0.58837593
v 0.15656827 0.55719519 0.10028248
v 0.14904457 0.55803311 0.10426144
v 0.15294828 0.55719519 0.10221249
v 0.09793902 0.00263725 0.23316790
v 0.10234187 0.01058744 0.22508956
v 0.07035760 0.65468788 -0.56050283
v 0.17339008 0.44974616 -0.67250448
v 0.10013304 0.71757567 0.36113393
v 0.06080979 0.82606745 0.33720759
v 0.15703183 0.55265188 0.10019297
v 0.15660927 0.55765039 0.10024543
v 0.15685828 0.55328518 0.10026248
v 0.14122827 0.59235519 -0.54429752
v 0.13904928 0.58687723 -0.54158562
v 0.09736369 0.66714287 -0.54819459
v 0.15294828 0.62750518 -0.58330750
v 0.15894260 0.60506761 -0.60279846
v 0.10744927 0.66801262 -0.54481608
v 0.14006652 0.54660851 -0.54326344
v 0.18433990 0.82681376 0.02215828
v 0.07773430 0.89301479 0.25959826
v 0.15982078 0.96738780 -0.32130486
v 0.24278829 -0.60678482 -0.30986750
v 0.13352084 0.97126114 -0.34113497
v 0.10531827 -0.54435480 -0.68877751
v 0.13111858 -0.64275885 -0.31293297
v 0.12911616 -0.64211559 -0.30970791
v 0.11382828 -0.54045480 -0.68095750
v 0.14825669 -0.52534550 -0.38388941
v 0.17774554 -0.27629775 0.01168704
v 0.17668115 -0.28752154 0.01619145
v 0.13423911 -0.09649582 0.27414784
v 0.10923721 0.07104624 0.15700254
v 0.07885869 -0.06291874 -0.69474167
v 0.13037963 -0.02936343 0.24248663
v 0.10182429 0.27889717 0.20038971
v 0.10216827 0.01031521 0.22530247
v 0.09825828 0.00255521 0.23309249
v 0.09834828 0.00250521 0.23309249
v 0.17819491 -0.11672479 -0.59015727
v 0.38254502 0.09097911 -0.32870099
v 0.10934977 0.65482551 -0.54844350
v 0.09825828 0.66642517 -0.54814750
v 0.14115828 0.60016519 -0.54423749
v 0.14117178 0.60381275 -0.54426289
v 0.05138828 0.74860519 0.35415250
v 0.10216828 0.66266656 -0.54814744
v 0.09825828 0.66656518 -0.54809749
v 0.14119826 0.59235519 -0.54423749
v 0.14117828 0.59625518 -0.54423749
v 0.07310174 0.56029952 0.15046556
v 0.07840469 0.74852961 0.35416651
v 0.10216823 0.66267335 -0.54814750
v 0.18422516 0.82671547 0.02220447
v 0.12310851 0.78724027 0.02135199
v 0.12950829 0.97279519 -0.34111750
v 0.18028414 0.82281524 0.02216917
v 0.18419828 0.82281518 0.02380248
v 0.13341828 0.97131521 -0.34111750
v 0.13234288 0.97370481 -0.33540222
v 0.13751830 0.97116578 -0.33654079
v 0.12560828 -0.63810480 -0.30986750
v 0.24599729 -0.59344149 -0.32608402
v 0.10193464 -0.62181664 -0.29014355
v 0.28930107 -0.61312479 -0.30205750
v 0.30138829 -0.60685480 -0.30977750
v 0.30528826 -0.60685480 -0.30977750
v 0.23106828 -0.60685480 -0.30977750
v 0.23497827 -0.60685480 -0.30977750
v 0.13256223 -0.62889802 -0.33721584
v 0.12909828 -0.64201480 -0.30986750
v 0.28966826 -0.60685480 -0.30977750
v 0.29356828 -0.60685480 -0.30977750
v 0.14848641 -0.56640333 -0.64884812
v 0.06282619 -0.94618821 -0.26526421
v 0.21935828 -0.60678482 -0.30986750
v 0.21935828 -0.60685480 -0.30977750
v 0.21544828 -0.60678482 -0.30986750
v 0.16371353 -0.26954013 -0.05799702
v 0.10581962 -0.46232116 -0.66691393
v 0.33263829 -0.31584355 0.04271248
v 0.33653826 -0.33732477 0.04169249
v 0.17638828 -0.27873480 0.00695248
v 0.33653826 -0.31389478 0.04168248
v 0.33653826 -0.30998480 0.04168248
v 0.17638828 -0.27482477 0.00352248
v 0.17636131 -0.27878824 0.00686970
v 0.17639279 -0.28265911 0.01041664
v 0.17637721 -0.28271571 0.01039986
v 0.18189162 0.57296473 0.08388930
v 0.14122827 0.59625518 -0.54434752
v 0.15682828 0.55328518 0.10028248
v 0.14309493 0.59071475 -0.55043817
v 0.18028829 0.82672518 0.02033248
v 0.35415381 -0.63112044 -0.26952088
v 0.18418828 0.82672518 0.02215248
v 0.24669828 -0.60678482 -0.30986750
v 0.13674828 0.97125518 -0.33720750
v 0.22325829 -0.60685480 -0.30977750
v 0.22325829 -0.60678482 -0.30986750
v 0.22716828 -0.60685480 -0.30977750
v 0.24022390 -0.61343998 -0.30167267
v 0.25450826 -0.60685480 -0.30977750
v 0.25060827 -0.60678482 -0.30986750
v 0.22716828 -0.60678482 -0.30986750
v 0.23106828 -0.60678482 -0.30986750
v 0.25841826 -0.60685480 -0.30977750
v 0.26231828 -0.60685480 -0.30977750
v 0.23888828 -0.60685480 -0.30977750
v 0.24278829 -0.60685480 -0.30977750
v 0.31310827 -0.60685480 -0.30977750
v 0.31700826 -0.60685480 -0.30977750
v 0.27794826 -0.60678482 -0.30986750
v 0.27403826 -0.60678482 -0.30986750
v 0.28185827 -0.60685480 -0.30977750
v 0.28575826 -0.60685480 -0.30977750
v 0.27013829 -0.60685480 -0.30977750
v 0.26622826 -0.60678482 -0.30986750
v 0.27013829 -0.60678482 -0.30986750
v 0.16470799 -0.69585192 -0.28508338
v 0.25060827 -0.60685480 -0.30977750
v 0.23888828 -0.60678482 -0.30986750
v 0.30122662 -0.18506870 0.12607285
v 0.20074058 -0.59617329 -0.32319054
v 0.26622826 -0.60685480 -0.30977750
v 0.26231828 -0.60678482 -0.30986750
v 0.18562870 -0.61313385 -0.30184013
v 0.28475347 -0.21179147 0.09340916
v 0.25841826 -0.60678482 -0.30986750
v 0.25450826 -0.60678482 -0.30986750
v 0.33653826 -0.33342478 0.04169249
v 0.33653826 -0.33342478 0.04168248
v 0.33653826 -0.32951477 0.04168248
v 0.33717707 -0.35184205 0.03975111
v 0.27403826 -0.60685480 -0.30977750
v 0.29407418 -0.19666381 0.11195371
v 0.29290807 -0.49657601 -0.01024896
v 0.28185827 -0.60678482 -0.30986750
v 0.31956404 -0.58951604 -0.32957768
v 0.33653826 -0.28264478 0.04169249
v 0.33653826 -0.28264478 0.04168248
v 0.33653826 -0.27873480 0.04168248
v 0.32091826 -0.60678482 -0.30986750
v 0.31700826 -0.60678482 -0.30986750
v 0.21493775 -0.60684377 -0.30979240
v 0.26231828 -0.19662480 0.11200248
v 0.33653826 -0.29826477 0.04168248
v 0.33653826 -0.29435477 0.04168248
v 0.24380387 -0.18432505 0.12662728
v 0.33922863 -0.35391173 -0.09567542
v 0.29356828 -0.19670479 0.11190248
v 0.17638828 -0.27825478 0.00653248
v 0.25060827 -0.19662480 0.11200248
v 0.25450826 -0.19662480 0.11200248
v 0.33653826 -0.34123480 0.04169249
v 0.33653826 -0.34514478 0.04169249
v 0.33653826 -0.34123480 0.04168248
v 0.17638828 -0.28264478 0.01038248
v 0.27794826 -0.19662480 0.11200248
v 0.28185827 -0.19670479 0.11190248
v 0.28185827 -0.19662480 0.11200248
v 0.24410912 -0.19670995 0.11189603
v 0.27794826 -0.60685480 -0.30977750
v 0.28575826 -0.19662480 0.11200248
v 0.28575826 -0.19670479 0.11190248
v 0.17740309 -0.15554968 0.10756686
v 0.27013829 -0.19662480 0.11200248
v 0.27403826 -0.19662480 0.11200248
v 0.24669828 -0.60685480 -0.30977750
v 0.33653826 -0.33732477 0.04168248
v 0.25841826 -0.19670479 0.11190248
v 0.26231828 -0.19670479 0.11190248
v 0.25841826 -0.19662480 0.11200248
v 0.27794826 -0.19670479 0.11190248
v 0.14122827 0.60016519 -0.54439753
v 0.15152149 0.62774843 -0.57862324
v 0.15822309 0.68425876 -0.56843299
v 0.29747826 -0.60685480 -0.30977750
v 0.18452501 0.81948620 0.02522785
v 0.17971078 0.82211012 0.62517756
v 0.17453642 0.91840476 -0.00881863
v 0.27403826 -0.19670479 0.11190248
v 0.27013829 -0.19670479 0.11190248
v 0.32091826 -0.60685480 -0.30977750
v 0.25060827 -0.19670479 0.11190248
v 0.24669828 -0.19662480 0.11200248
v 0.33653826 -0.32170480 0.04168248
v 0.33653826 -0.31779477 0.04168248
v 0.25450826 -0.19670479 0.11190248
v 0.23497827 -0.60678482 -0.30986750
v 0.33263829 -0.34123480 0.04271248
v 0.33653826 -0.30998480 0.04169249
v 0.33653826 -0.31389478 0.04169249
v 0.33653826 -0.29826477 0.04169249
v 0.33653826 -0.30217478 0.04169249
v 0.30919826 -0.60678482 -0.30986750
v 0.30919826 -0.60685480 -0.30977750
v 0.30528826 -0.60678482 -0.30986750
v 0.33653826 -0.32170480 0.04169249
v 0.26622826 -0.19670479 0.11190248
v 0.33781829 -0.30485728 0.03778248
v 0.33653826 -0.32560477 0.04169249
v 0.33653826 -0.32560477 0.04168248
v 0.28966826 -0.19662480 0.11200248
v 0.28966826 -0.19670479 0.11190248
v 0.28575826 -0.60678482 -0.30986750
v 0.28966826 -0.60678482 -0.30986750
v 0.33781829 -0.27775729 0.03778248
v 0.37930119 0.16866060 -0.32966468
v 0.26622826 -0.19662480 0.11200248
v 0.33653826 -0.29045480 0.04168248
v 0.33653826 -0.32951477 0.04169249
v 0.33653826 -0.30607477 0.04169249
v 0.33653826 -0.30607477 0.04168248
v 0.32937267 -0.28592515 0.04325501
v 0.33627710 -0.24889205 0.05007181
v 0.29747826 -0.60678482 -0.30986750
v 0.29356828 -0.60678482 -0.30986750
v 0.33781829 -0.33097979 0.03778248
v 0.31310827 -0.60678482 -0.30986750
v 0.33653826 -0.29045480 0.04169249
v 0.33653826 -0.28654477 0.04168248
v 0.33653826 -0.27482477 0.04169249
v 0.33653826 -0.27482477 0.04168248
v 0.33653826 -0.27092478 0.04168248
v 0.33653826 -0.27873480 0.04169249
v 0.33653826 -0.29435477 0.04169249
v 0.36768827 0.63531518 -0.05986752
v 0.32481828 -0.60685480 -0.30977750
v 0.35990825 0.67047518 -0.09111752
v 0.35997728 0.67037660 -0.09123102
v 0.29511940 0.76474476 0.07415008
v 0.35213849 0.72071332 -0.30289355
v 0.30138829 -0.60678482 -0.30986750
v 0.33653826 -0.30217478 0.04168248
v 0.33653939 -0.35636327 0.04169240
v 0.52770680 0.34958756 -0.21390407
v 0.33653826 -0.28654477 0.04169249
v 0.33653826 -0.31779477 0.04169249
v 0.37397832 -0.54741478 -0.36657089
v 0.34313247 0.26943323 -0.32920289
v 0.52797824 0.35016522 -0.20830750
v 0.37832659 0.20971613 -0.32958376
v 0.26302177 0.43791097 0.19420691
v 0.52797395 0.35017565 -0.20819308
v 0.37962827 0.21344520 -0.32939750
v 0.35686287 0.64264643 -0.06316166
v 0.37950826 0.21735521 -0.32945749
v 0.39190829 0.55151033 -0.05882118
v 0.35999015 0.66655558 -0.08729517
v 0.21671198 0.96851557 -0.20109817
v 0.36040175 0.77291942 -0.37440082
v 0.35215488 0.72517836 -0.29820704
v 0.35529199 0.68730646 -0.32730544
v 0.36777398 0.64314359 -0.05986787
v 0.50129819 0.44670063 -0.32534066
v 0.37953448 0.23165552 -0.32941899
v 0.38170347 0.21009901 -0.32744676
v 0.37961826 0.21735521 -0.32939750
v 0.39422801 0.27232718 -0.09436593
v 0.36778826 0.63922518 -0.05984752
v 0.37169826 0.63531518 -0.05864752
v 0.38098338 0.64031583 -0.05584479
v 0.35997826 0.67434520 -0.32548749
v 0.36000827 0.67047518 -0.32939750
v 0.35997826 0.66656518 -0.08726751
v 0.36775035 0.63451797 -0.05984637
v 0.35997060 0.67067188 -0.32933736
v 0.35998297 0.67438519 -0.32542843
v 0.36001125 0.66903663 -0.33087012
v 0.35995826 0.66656518 -0.08720751
v 0.35985830 0.67438519 -0.09502752
v 0.36773828 0.63922518 -0.05986752
v 0.36778826 0.64313519 -0.05986752
v 0.35997671 0.67438507 -0.32545352
v 0.36803648 0.66775185 -0.31018096
v 0.45736828 0.53375518 -0.21611752
v 0.45372826 0.53602517 -0.21220753
v 0.45762828 0.53375518 -0.21220753
v 0.35876828 0.66656518 -0.08330751
v 0.35518008 0.71049207 -0.30358148
v 0.35624290 0.66473067 -0.35484698
v 0.35336825 0.72516519 -0.29423749
v 0.35479730 0.73245007 -0.28179213
v 0.34312439 0.70303279 -0.06991896
v 0.38475356 0.72988158 -0.05465889
v 0.35216826 0.72143519 -0.30205750
v 0.35221827 0.72125518 -0.30205750
v 0.35217828 0.72516519 -0.29814750
v 0.35216826 0.72516519 -0.29817751
v 0.36463028 -0.32561821 -0.11931624
v 0.52799553 0.35015100 -0.21226564
v 0.37932456 0.22288547 -0.32951471
v 0.52427340 0.34625301 -0.19541825
v 0.37959921 0.22145550 -0.32939389
v 0.37950826 0.22125521 -0.32944751
v 0.51938480 0.34094745 -0.20984928
v 0.37667316 0.66014361 -0.28640553
v 0.38250396 0.66426700 -0.16862501
v 0.45056158 0.53791648 -0.21064210
v 0.45762980 0.53375518 -0.21220732
v 0.45763829 0.53373522 -0.20830750
v 0.46153826 0.53146517 -0.20830750
v 0.45759827 0.53375518 -0.20830750
v 0.53375852 0.36975166 -0.20850357
v 0.46596819 0.52885473 -0.23316725
v 0.48519289 0.51474035 -0.13915555
v 0.52794826 0.35005522 -0.21220753
v 0.52796918 0.35014394 -0.20826222
f 5 11 52
f 14 7 15
f 16 9 13
f 19 20 14
f 9 23 13
f 10 16 51
f 24 6 12
f 8 23 9
f 16 8 9
f 13 23 12
f 25 1 38
f 23 24 12
f 24 23 8
f 10 6 24
f 10 24 8
f 8 16 10
f 26 27 28
f 16 13 51
f 30 25 31
f 51 13 22
f 13 12 22
f 12 6 22
f 82 6 4
f 6 10 4
f 22 6 51
f 35 36 79
f 37 1 25
f 82 4 21
f 10 51 4
f 28 5 52
f 18 7 17
f 17 15 18
f 17 14 15
f 54 50 2
f 18 54 7
f 15 19 14
f 19 15 54
f 19 54 11
f 280 54 18
f 19 11 39
f 20 19 39
f 38 1 2
f 14 17 7
f 7 54 15
f 1 37 2
f 50 38 2
f 31 38 40
f 66 41 34
f 42 43 29
f 41 45 3
f 42 29 46
f 44 79 47
f 51 6 82
f 25 38 31
f 40 50 11
f 50 40 38
f 2 37 54
f 37 30 54
f 25 30 37
f 30 31 40
f 54 30 40
f 54 40 11
f 52 26 28
f 27 11 5
f 28 27 5
f 20 39 26
f 26 39 27
f 39 11 27
f 20 26 52
f 14 20 52
f 15 14 53
f 18 15 53
f 14 52 53
f 18 53 52
f 280 18 52
f 56 46 45
f 54 3 50
f 56 45 41
f 59 65 60
f 61 62 63
f 43 3 29
f 66 3 43
f 280 3 54
f 43 42 56
f 42 46 56
f 41 43 56
f 43 41 66
f 29 3 45
f 29 45 46
f 57 122 98
f 67 280 68
f 69 67 68
f 44 70 79
f 73 280 74
f 59 73 74
f 75 76 77
f 76 280 77
f 64 78 280
f 78 64 35
f 3 80 34
f 83 84 21
f 83 85 84
f 80 81 21
f 73 68 280
f 68 73 60
f 87 88 89
f 88 90 89
f 92 94 86
f 90 92 91
f 85 95 91
f 88 87 21
f 91 92 81
f 93 97 21
f 84 85 91
f 91 81 21
f 81 92 86
f 96 89 91
f 85 97 95
f 96 87 89
f 89 90 91
f 93 96 95
f 97 93 95
f 87 93 21
f 96 93 87
f 94 88 21
f 94 90 88
f 95 96 91
f 86 94 21
f 90 94 92
f 85 83 97
f 21 97 83
f 21 84 91
f 102 58 103
f 104 47 72
f 47 104 44
f 70 35 79
f 4 51 82
f 108 212 109
f 110 108 109
f 140 113 114
f 113 115 114
f 117 11 50
f 117 280 52
f 170 3 280
f 41 3 34
f 119 100 120
f 57 98 121
f 81 86 21
f 120 48 49
f 65 103 58
f 127 109 128
f 77 71 75
f 130 131 160
f 130 132 131
f 149 280 72
f 225 75 71
f 126 135 134
f 65 69 60
f 120 57 48
f 78 104 72
f 70 104 78
f 137 111 33
f 111 4 116
f 137 4 111
f 115 136 114
f 137 138 113
f 138 32 113
f 32 115 113
f 112 136 32
f 114 139 140
f 139 114 112
f 136 115 32
f 138 33 32
f 33 138 137
f 140 137 113
f 112 114 136
f 139 112 116
f 140 139 116
f 111 116 112
f 112 32 33
f 112 33 111
f 117 52 11
f 50 66 117
f 105 63 58
f 142 143 144
f 66 50 3
f 126 145 280
f 126 134 145
f 146 64 280
f 64 146 36
f 147 148 103
f 125 75 225
f 47 149 72
f 149 47 79
f 36 35 64
f 79 36 225
f 129 150 151
f 78 72 280
f 225 134 135
f 152 124 153
f 35 70 78
f 145 77 280
f 145 71 77
f 145 134 71
f 36 125 225
f 71 134 225
f 67 69 135
f 44 104 70
f 125 36 146
f 76 146 280
f 146 76 125
f 65 225 135
f 155 170 156
f 125 76 75
f 154 61 280
f 61 154 62
f 170 151 150
f 280 148 74
f 148 147 74
f 159 132 170
f 69 65 135
f 154 280 129
f 151 154 129
f 59 60 73
f 131 132 159
f 67 126 280
f 67 135 126
f 120 122 57
f 225 65 170
f 74 147 59
f 59 147 65
f 147 103 65
f 63 170 65
f 68 60 69
f 62 154 151
f 170 150 158
f 66 34 100
f 162 133 160
f 133 162 156
f 170 153 159
f 158 152 170
f 63 62 170
f 103 148 102
f 148 280 102
f 61 105 280
f 61 63 105
f 58 63 65
f 165 163 280
f 158 163 165
f 163 129 280
f 129 163 150
f 62 151 170
f 123 119 49
f 105 102 280
f 105 58 102
f 150 163 158
f 158 165 152
f 124 280 167
f 153 124 167
f 152 165 124
f 165 280 124
f 157 160 133
f 161 157 133
f 168 162 160
f 155 162 168
f 131 167 280
f 131 159 167
f 164 157 161
f 133 156 161
f 131 280 160
f 152 153 170
f 169 171 170
f 169 155 168
f 171 160 280
f 169 160 171
f 164 161 170
f 167 159 153
f 157 130 160
f 130 157 164
f 130 164 132
f 132 164 170
f 161 156 170
f 155 156 162
f 169 168 160
f 169 170 155
f 57 121 48
f 123 98 119
f 48 123 49
f 34 80 21
f 121 123 48
f 170 82 80
f 176 99 141
f 141 99 101
f 81 80 82
f 172 141 101
f 81 82 21
f 178 179 180
f 179 178 191
f 140 4 137
f 198 110 127
f 181 182 183
f 66 100 166
f 117 66 166
f 34 122 120
f 49 119 120
f 181 166 182
f 120 100 34
f 121 98 123
f 100 119 98
f 101 99 184
f 171 118 82
f 184 172 101
f 172 173 141
f 173 172 184
f 198 188 110
f 216 181 183
f 231 232 264
f 189 190 191
f 107 206 186
f 140 116 285
f 183 182 192
f 182 166 192
f 216 117 181
f 198 55 193
f 117 216 198
f 117 166 181
f 106 212 194
f 195 196 55
f 195 197 196
f 176 184 99
f 122 176 98
f 118 171 280
f 98 176 100
f 184 4 173
f 4 184 21
f 239 199 200
f 228 202 203
f 264 189 191
f 204 205 189
f 205 190 189
f 206 82 186
f 180 208 231
f 179 208 180
f 207 265 190
f 198 127 210
f 166 212 211
f 213 214 215
f 217 192 211
f 216 213 215
f 216 217 213
f 216 215 219
f 220 219 221
f 198 216 219
f 117 198 539
f 222 197 195
f 198 219 218
f 192 166 211
f 183 192 217
f 216 183 217
f 217 211 213
f 213 211 214
f 211 212 214
f 197 212 196
f 218 223 222
f 219 215 221
f 214 212 221
f 215 214 221
f 196 212 224
f 55 196 224
f 198 195 55
f 218 220 223
f 220 212 223
f 198 222 195
f 198 218 222
f 223 212 197
f 222 223 197
f 219 220 218
f 100 212 166
f 220 221 212
f 193 224 106
f 224 212 106
f 180 231 264
f 209 206 107
f 110 109 127
f 210 226 199
f 141 173 176
f 248 235 227
f 228 186 202
f 107 228 229
f 107 186 228
f 186 235 202
f 203 202 209
f 230 206 209
f 208 265 231
f 233 234 204
f 55 224 193
f 226 212 236
f 199 226 236
f 199 236 200
f 238 237 174
f 109 212 128
f 212 241 236
f 188 108 110
f 242 243 244
f 243 174 244
f 198 240 188
f 239 210 199
f 239 198 210
f 127 128 210
f 210 128 226
f 128 212 226
f 193 106 240
f 240 194 188
f 240 106 194
f 198 193 240
f 188 194 108
f 194 212 108
f 239 245 246
f 79 225 280
f 79 280 149
f 225 170 280
f 100 118 280
f 118 100 176
f 176 122 34
f 3 170 80
f 171 82 170
f 173 4 176
f 21 184 176
f 227 247 248
f 248 247 249
f 186 185 227
f 227 185 247
f 247 185 250
f 249 247 250
f 230 235 206
f 177 82 206
f 107 229 209
f 209 229 203
f 229 228 203
f 230 202 235
f 230 209 202
f 251 207 233
f 116 4 82
f 252 189 264
f 239 254 242
f 143 174 144
f 242 244 255
f 256 174 243
f 257 174 256
f 258 257 256
f 254 256 243
f 239 142 259
f 239 200 253
f 239 258 254
f 236 241 200
f 198 239 539
f 253 241 257
f 241 174 257
f 260 261 262
f 261 174 262
f 259 261 260
f 142 144 259
f 239 255 142
f 255 143 142
f 241 212 174
f 212 100 174
f 254 243 242
f 200 241 253
f 239 242 255
f 144 174 261
f 259 144 261
f 258 256 254
f 244 174 143
f 255 244 143
f 253 257 258
f 239 259 260
f 239 253 258
f 117 539 280
f 176 34 21
f 176 4 440
f 250 248 249
f 264 191 178
f 248 250 235
f 177 206 235
f 185 186 82
f 207 234 233
f 265 179 191
f 235 186 227
f 235 250 185
f 440 232 265
f 234 205 204
f 190 205 234
f 440 251 264
f 190 265 191
f 234 207 190
f 178 180 264
f 140 285 327
f 239 260 245
f 239 246 238
f 174 175 238
f 260 262 245
f 175 174 100
f 539 239 175
f 539 175 100
f 246 237 238
f 239 238 175
f 262 174 267
f 280 539 398
f 245 267 246
f 246 267 237
f 267 174 237
f 245 262 267
f 280 118 100
f 100 118 176
f 187 177 235
f 235 185 187
f 187 185 82
f 252 233 204
f 251 265 207
f 252 251 233
f 252 204 189
f 440 265 251
f 251 252 264
f 232 440 4
f 265 232 231
f 4 140 232
f 179 265 208
f 327 264 232
f 277 201 270
f 273 272 274
f 277 268 201
f 269 268 277
f 275 276 289
f 201 273 274
f 274 272 270
f 201 274 270
f 268 269 271
f 271 272 273
f 273 268 271
f 268 273 201
f 270 272 277
f 269 277 176
f 116 82 285
f 118 187 82
f 285 266 279
f 327 232 140
f 440 264 327
f 271 335 281
f 100 176 283
f 272 271 281
f 281 335 176
f 272 281 277
f 271 269 335
f 292 296 283
f 277 281 176
f 335 269 176
f 82 177 285
f 288 275 289
f 294 310 295
f 405 298 299
f 300 376 301
f 302 303 304
f 292 305 306
f 100 296 544
f 292 308 309
f 296 100 283
f 118 278 419
f 176 335 284
f 312 313 314
f 266 177 644
f 285 177 266
f 323 285 279
f 279 317 316
f 286 323 279
f 318 319 317
f 320 316 317
f 320 315 316
f 323 321 319
f 286 279 316
f 318 317 279
f 319 320 317
f 323 286 315
f 319 318 324
f 321 320 319
f 323 319 324
f 316 315 286
f 325 293 326
f 315 320 321
f 315 321 323
f 324 318 279
f 279 266 324
f 293 290 276
f 280 289 290
f 291 328 298
f 356 329 330
f 331 332 333
f 333 310 334
f 356 336 337
f 292 283 308
f 288 289 329
f 308 294 309
f 295 310 307
f 298 328 299
f 292 306 312
f 299 338 339
f 313 340 310
f 282 305 292
f 283 294 308
f 307 341 305
f 283 310 294
f 306 340 312
f 340 341 310
f 314 332 331
f 292 314 331
f 282 307 305
f 307 310 341
f 305 341 306
f 292 312 314
f 292 309 282
f 340 313 312
f 332 313 310
f 292 302 304
f 301 376 344
f 309 295 282
f 314 313 332
f 294 295 309
f 295 307 282
f 415 118 630
f 341 340 306
f 278 118 415
f 415 345 382
f 440 504 176
f 177 187 708
f 387 450 346
f 346 450 266
f 481 347 348
f 347 349 348
f 446 351 352
f 351 446 353
f 323 644 285
f 327 285 451
f 644 266 450
f 334 310 355
f 176 263 498
f 539 100 454
f 329 289 330
f 326 293 276
f 280 398 330
f 263 360 498
f 280 290 118
f 363 364 365
f 325 326 366
f 118 290 356
f 366 326 275
f 367 368 369
f 382 363 287
f 326 276 275
f 284 370 358
f 334 355 311
f 297 498 360
f 292 371 311
f 290 289 276
f 366 336 325
f 290 336 356
f 290 293 336
f 337 288 372
f 366 288 337
f 372 329 356
f 288 329 372
f 336 366 337
f 366 275 288
f 325 336 293
f 356 337 372
f 355 303 302
f 405 299 339
f 311 355 302
f 304 298 405
f 333 332 310
f 328 338 299
f 283 464 310
f 278 382 287
f 303 464 291
f 376 373 344
f 376 300 365
f 300 363 365
f 328 464 338
f 292 331 371
f 331 333 371
f 335 498 359
f 284 335 359
f 355 310 303
f 374 287 375
f 371 334 311
f 405 339 361
f 304 291 298
f 292 405 296
f 303 291 304
f 328 291 464
f 303 310 464
f 292 304 405
f 464 283 504
f 333 334 371
f 382 378 363
f 284 358 176
f 358 263 176
f 292 311 302
f 363 300 287
f 370 297 357
f 359 370 284
f 379 301 344
f 300 301 379
f 388 380 381
f 379 344 373
f 415 373 376
f 287 400 383
f 415 376 345
f 358 357 377
f 345 376 365
f 382 345 378
f 370 359 297
f 357 297 377
f 358 360 263
f 384 408 385
f 278 415 382
f 364 345 365
f 378 345 364
f 377 297 360
f 358 377 360
f 363 378 364
f 297 359 498
f 357 358 370
f 118 419 497
f 381 473 388
f 433 387 389
f 387 386 389
f 390 392 391
f 389 390 391
f 266 644 346
f 392 386 350
f 387 346 350
f 454 100 544
f 390 386 392
f 491 456 528
f 405 369 402
f 356 330 460
f 405 402 403
f 368 404 402
f 289 280 330
f 406 287 383
f 407 361 339
f 384 406 408
f 409 410 411
f 402 404 403
f 369 368 402
f 395 412 375
f 361 407 413
f 408 406 383
f 414 373 415
f 404 368 399
f 462 405 403
f 462 401 397
f 416 410 409
f 361 413 417
f 404 416 403
f 400 385 383
f 385 408 383
f 410 416 399
f 405 417 369
f 405 361 417
f 413 367 417
f 410 399 418
f 407 339 338
f 410 418 411
f 411 418 401
f 417 367 369
f 367 399 368
f 462 296 405
f 413 407 464
f 464 399 367
f 413 464 367
f 407 338 464
f 462 403 409
f 462 409 411
f 404 399 416
f 544 296 462
f 399 464 397
f 399 401 418
f 403 416 409
f 504 283 176
f 414 362 400
f 362 414 415
f 406 384 375
f 300 379 400
f 384 385 437
f 384 395 375
f 379 414 400
f 462 411 401
f 287 300 400
f 400 437 385
f 437 400 362
f 374 412 395
f 379 373 414
f 384 437 496
f 278 287 374
f 395 384 496
f 419 278 374
f 419 374 395
f 412 374 375
f 419 395 496
f 437 362 496
f 287 406 375
f 390 389 386
f 422 423 424
f 425 426 427
f 433 389 391
f 478 429 430
f 431 470 517
f 431 447 470
f 350 346 392
f 387 350 386
f 426 500 427
f 440 327 470
f 431 517 434
f 435 640 436
f 438 439 473
f 394 439 438
f 441 442 380
f 445 388 473
f 472 388 445
f 443 472 445
f 470 479 517
f 446 322 353
f 644 323 324
f 449 448 352
f 351 449 352
f 449 393 448
f 353 449 351
f 449 353 393
f 644 448 285
f 458 459 457
f 461 459 458
f 455 459 461
f 630 362 415
f 462 397 504
f 401 399 397
f 504 544 462
f 421 497 463
f 465 466 467
f 463 419 420
f 468 463 420
f 468 421 463
f 497 419 463
f 423 426 424
f 423 500 426
f 187 422 708
f 474 475 476
f 433 428 387
f 479 444 482
f 432 477 557
f 447 440 470
f 177 515 644
f 391 346 428
f 391 392 346
f 428 433 391
f 428 450 387
f 444 479 470
f 346 644 428
f 436 348 480
f 444 470 327
f 442 516 473
f 442 441 516
f 285 393 519
f 446 352 485
f 446 485 322
f 448 485 352
f 644 485 448
f 285 519 645
f 393 353 322
f 485 393 322
f 393 485 519
f 485 644 519
f 644 324 266
f 452 327 451
f 454 489 396
f 343 342 534
f 454 544 453
f 343 534 528
f 454 453 489
f 456 343 528
f 396 458 457
f 528 493 398
f 534 493 528
f 457 492 396
f 489 461 396
f 544 492 457
f 492 544 538
f 396 461 458
f 489 453 461
f 489 457 396
f 457 489 396
f 538 454 396
f 455 544 457
f 455 453 544
f 453 455 461
f 459 455 457
f 396 492 538
f 118 356 460
f 460 630 118
f 335 176 504
f 464 504 397
f 630 496 362
f 421 469 501
f 469 502 501
f 469 421 502
f 502 503 501
f 469 421 501
f 421 468 502
f 420 419 499
f 497 469 499
f 420 503 468
f 503 502 468
f 503 420 499
f 497 421 469
f 503 499 469
f 501 503 469
f 187 354 423
f 187 118 497
f 187 497 354
f 430 432 557
f 430 429 432
f 500 423 354
f 426 425 424
f 187 423 422
f 500 354 708
f 504 440 471
f 425 422 424
f 427 500 422
f 427 422 425
f 708 422 500
f 431 434 506
f 517 479 507
f 508 478 509
f 431 506 447
f 394 443 510
f 394 510 439
f 506 434 511
f 506 511 482
f 434 512 511
f 434 507 512
f 440 483 471
f 513 478 514
f 515 177 708
f 474 554 475
f 483 478 430
f 440 447 478
f 429 478 513
f 380 388 472
f 507 479 512
f 507 434 517
f 512 479 482
f 511 512 482
f 517 434 511
f 506 482 641
f 511 434 517
f 438 450 472
f 394 438 472
f 443 394 472
f 473 450 438
f 644 450 428
f 439 510 473
f 472 450 644
f 641 482 444
f 348 349 480
f 349 435 480
f 285 448 393
f 473 644 450
f 518 521 522
f 523 520 524
f 520 523 488
f 520 452 451
f 343 456 526
f 529 530 531
f 566 532 533
f 535 456 526
f 491 535 526
f 490 535 491
f 456 342 526
f 534 342 456
f 456 491 526
f 529 536 537
f 534 456 535
f 490 534 535
f 342 343 526
f 534 490 584
f 584 491 528
f 490 491 584
f 454 538 539
f 540 541 542
f 548 665 549
f 494 550 630
f 496 630 497
f 419 496 499
f 335 176 498
f 496 497 499
f 708 474 466
f 432 429 513
f 477 432 513
f 510 445 473
f 473 516 472
f 555 557 477
f 476 466 474
f 349 640 435
f 435 436 480
f 381 380 442
f 472 644 473
f 556 465 467
f 476 556 467
f 476 465 556
f 476 475 465
f 473 381 442
f 466 476 467
f 514 478 508
f 708 466 515
f 466 554 515
f 516 441 472
f 510 443 445
f 441 380 472
f 641 436 640
f 506 641 447
f 558 560 484
f 487 527 561
f 452 520 488
f 523 524 488
f 486 525 524
f 520 451 524
f 486 488 525
f 486 452 488
f 488 523 525
f 523 562 525
f 523 488 562
f 488 524 562
f 562 524 525
f 486 451 715
f 486 524 451
f 563 564 565
f 541 540 563
f 527 568 561
f 532 569 570
f 566 571 572
f 566 573 574
f 559 575 576
f 527 577 578
f 529 579 580
f 581 582 583
f 582 527 583
f 585 568 567
f 573 586 574
f 529 572 589
f 565 569 532
f 589 590 582
f 569 527 570
f 572 593 590
f 567 568 594
f 568 527 594
f 595 596 597
f 398 539 584
f 529 581 599
f 540 542 527
f 493 534 584
f 539 493 584
f 566 541 563
f 584 528 398
f 529 589 581
f 577 602 579
f 568 585 561
f 564 527 569
f 565 564 569
f 563 540 564
f 540 527 564
f 591 398 493
f 604 605 606
f 603 607 608
f 541 609 542
f 539 538 544
f 611 665 612
f 539 544 493
f 460 330 398
f 601 493 398
f 398 543 460
f 616 550 494
f 613 617 618
f 619 620 621
f 619 655 620
f 543 551 553
f 623 624 625
f 553 622 552
f 595 546 596
f 595 655 546
f 553 551 622
f 553 552 495
f 551 543 550
f 460 543 495
f 460 495 494
f 543 553 495
f 579 529 627
f 504 493 544
f 622 551 547
f 551 550 616
f 551 616 547
f 547 616 494
f 552 622 547
f 550 543 630
f 495 552 494
f 552 547 494
f 460 494 630
f 628 625 629
f 613 631 632
f 585 633 561
f 398 493 543
f 543 504 630
f 546 619 634
f 546 655 619
f 635 636 637
f 623 632 638
f 176 335 504
f 543 493 504
f 624 629 625
f 348 436 481
f 466 475 554
f 554 474 708
f 475 466 465
f 641 471 481
f 557 639 509
f 483 440 478
f 514 477 513
f 640 349 347
f 481 447 347
f 481 436 641
f 477 514 555
f 529 537 642
f 560 518 484
f 484 518 560
f 521 643 522
f 518 558 521
f 560 518 522
f 519 643 521
f 518 560 558
f 643 560 522
f 521 558 519
f 643 484 560
f 570 533 532
f 715 452 486
f 646 631 647
f 626 649 650
f 589 582 581
f 566 609 541
f 591 588 609
f 651 683 652
f 593 527 590
f 609 588 542
f 653 592 635
f 570 654 533
f 591 493 588
f 592 646 647
f 559 398 591
f 566 563 565
f 566 591 609
f 578 577 627
f 632 623 613
f 656 657 549
f 656 545 657
f 658 659 611
f 659 658 679
f 660 661 662
f 529 580 536
f 664 636 592
f 631 646 632
f 583 527 578
f 599 583 578
f 617 613 650
f 649 617 650
f 648 576 608
f 624 638 592
f 559 576 648
f 623 625 587
f 592 638 646
f 610 637 636
f 630 626 613
f 613 637 610
f 592 649 626
f 630 592 626
f 618 653 635
f 664 610 636
f 545 630 655
f 623 638 624
f 637 618 635
f 646 638 632
f 666 667 651
f 668 628 669
f 640 347 447
f 613 618 637
f 557 509 447
f 447 641 640
f 483 430 557
f 471 447 481
f 559 591 566
f 483 557 471
f 471 557 447
f 639 557 555
f 447 509 478
f 641 327 716
f 644 515 554
f 566 567 571
f 554 519 644
f 508 555 514
f 444 327 641
f 327 452 716
f 527 542 588
f 285 715 451
f 571 593 572
f 602 603 670
f 580 602 670
f 594 527 593
f 571 594 593
f 633 487 561
f 573 654 586
f 654 527 586
f 635 592 636
f 536 670 671
f 670 603 671
f 585 566 633
f 566 574 633
f 566 565 532
f 588 493 527
f 574 487 633
f 527 654 570
f 533 654 573
f 649 592 653
f 613 626 650
f 586 527 487
f 574 586 487
f 529 599 627
f 529 642 530
f 566 533 573
f 618 617 653
f 629 624 592
f 615 600 668
f 555 508 639
f 509 639 508
f 641 720 471
f 716 452 715
f 696 715 645
f 715 285 645
f 579 602 580
f 580 670 536
f 572 590 589
f 559 661 575
f 529 566 572
f 581 583 599
f 577 527 603
f 493 603 527
f 566 585 567
f 567 594 571
f 647 664 592
f 610 664 674
f 676 595 597
f 595 676 545
f 677 656 678
f 656 677 545
f 634 683 596
f 628 629 669
f 649 653 617
f 628 587 625
f 674 613 610
f 613 623 587
f 674 647 631
f 631 613 674
f 674 664 647
f 605 672 606
f 558 484 645
f 645 484 696
f 559 529 661
f 546 634 596
f 566 529 559
f 529 531 661
f 681 642 682
f 684 608 576
f 685 675 686
f 687 688 689
f 607 648 608
f 680 592 630
f 689 672 680
f 686 672 605
f 691 658 612
f 691 679 658
f 657 548 549
f 587 628 668
f 687 690 688
f 690 687 679
f 600 587 668
f 668 669 615
f 641 716 720
f 643 519 696
f 643 696 484
f 519 558 645
f 715 696 750
f 661 531 662
f 681 530 642
f 577 603 602
f 681 698 530
f 704 493 504
f 685 691 675
f 691 685 679
f 537 536 671
f 682 671 603
f 659 699 611
f 682 537 671
f 667 683 651
f 700 614 598
f 659 677 699
f 659 545 677
f 663 666 651
f 666 663 545
f 755 672 665
f 658 611 612
f 596 683 597
f 652 665 548
f 612 665 675
f 683 755 665
f 691 612 675
f 702 685 686
f 702 679 685
f 700 655 601
f 619 621 634
f 656 549 678
f 595 545 655
f 703 652 548
f 690 606 688
f 659 679 545
f 683 598 755
f 655 630 601
f 657 703 548
f 703 657 545
f 598 683 634
f 663 651 652
f 700 601 614
f 620 700 598
f 620 655 700
f 675 665 686
f 597 683 667
f 620 598 621
f 621 598 634
f 630 493 601
f 676 597 667
f 703 663 652
f 703 545 663
f 677 678 699
f 702 686 605
f 683 665 652
f 678 665 699
f 598 614 755
f 666 676 667
f 666 545 676
f 699 665 611
f 665 672 686
f 679 630 545
f 604 702 605
f 702 604 679
f 549 665 678
f 680 672 755
f 606 672 688
f 680 630 679
f 688 672 689
f 680 687 689
f 680 679 687
f 690 604 606
f 690 679 604
f 615 592 600
f 680 600 592
f 669 592 615
f 613 587 708
f 587 600 680
f 592 669 629
f 587 680 708
f 684 660 603
f 708 630 613
f 630 708 497
f 773 706 709
f 704 504 705
f 708 680 755
f 755 724 708
f 705 504 471
f 708 354 497
f 603 681 682
f 704 559 693
f 578 627 599
f 603 660 662
f 696 554 708
f 763 695 714
f 660 684 575
f 576 575 684
f 693 559 648
f 705 721 757
f 710 712 723
f 707 705 757
f 720 705 471
f 725 726 731
f 708 724 713
f 708 713 696
f 732 728 729
f 728 732 739
f 695 730 714
f 726 727 713
f 729 728 733
f 694 730 695
f 694 735 730
f 749 736 715
f 737 719 738
f 719 725 738
f 725 737 738
f 736 763 715
f 727 726 738
f 719 737 711
f 734 746 732
f 739 718 733
f 740 746 734
f 740 734 729
f 728 739 733
f 739 746 718
f 734 732 729
f 739 732 746
f 733 718 740
f 740 729 733
f 762 720 740
f 740 718 716
f 741 742 743
f 720 746 740
f 762 740 716
f 714 744 711
f 711 763 714
f 730 735 714
f 695 736 694
f 695 763 736
f 714 735 744
f 694 736 749
f 711 744 749
f 744 735 749
f 735 694 749
f 554 696 519
f 746 716 718
f 762 716 745
f 745 716 697
f 697 717 751
f 745 752 753
f 752 754 753
f 748 717 716
f 745 697 752
f 748 747 717
f 751 754 752
f 717 754 751
f 697 751 752
f 745 753 747
f 716 717 697
f 762 745 748
f 748 745 747
f 747 753 717
f 753 754 717
f 748 716 715
f 762 748 715
f 763 762 715
f 715 750 749
f 531 530 698
f 704 693 603
f 559 704 398
f 642 537 682
f 603 662 698
f 704 603 493
f 603 608 684
f 698 681 603
f 693 648 607
f 577 579 627
f 662 531 698
f 660 575 661
f 590 527 582
f 603 693 607
f 398 755 601
f 721 720 722
f 614 601 755
f 493 630 504
f 755 704 724
f 505 704 705
f 704 505 724
f 722 707 710
f 673 505 705
f 673 705 707
f 759 757 721
f 707 712 710
f 707 760 712
f 721 705 720
f 722 673 707
f 505 673 722
f 722 710 723
f 760 707 757
f 759 760 757
f 722 723 759
f 723 760 759
f 760 723 712
f 722 759 721
f 724 505 722
f 724 722 720
f 756 769 709
f 713 720 763
f 711 713 763
f 713 750 696
f 731 726 713
f 692 731 711
f 731 713 711
f 750 713 727
f 725 731 692
f 727 719 750
f 711 750 719
f 737 692 711
f 719 727 738
f 719 738 726
f 725 719 726
f 737 725 692
f 720 716 746
f 763 720 762
f 749 750 711
f 398 704 755
f 765 743 766
f 720 713 764
f 767 768 771
f 770 764 741
f 770 741 765
f 741 743 765
f 720 764 770
f 766 768 767
f 764 713 771
f 743 768 766
f 764 742 741
f 768 764 771
f 743 765 768
f 765 743 742
f 765 764 768
f 765 742 764
f 765 766 767
f 770 765 767
f 770 767 771
f 724 720 761
f 758 773 709
f 771 713 724
f 756 706 772
f 761 758 724
f 701 761 720
f 709 706 756
f 772 701 756
f 769 756 701
f 758 761 773
f 706 773 772
f 773 761 772
f 720 769 701
f 761 701 772
f 758 769 724
f 709 769 758
f 771 724 720
f 769 720 724
f 770 771 720

