o convex_0
v 0.080448 0.019664 0.069433
v -0.097384 -0.022881 0.031255
v -0.095190 -0.025061 0.034532
v -0.095190 0.016389 0.086894
v 0.080448 -0.026156 0.086894
v 0.081536 0.020754 0.031255
v 0.083712 -0.023966 0.031255
v -0.094102 0.019664 0.031255
v -0.094102 -0.025061 0.083623
v 0.081536 0.016389 0.089079
v -0.029736 0.019664 0.080346
v -0.018821 0.021849 0.039994
v -0.087557 -0.026156 0.037804
v -0.005748 -0.004334 0.087981
v -0.095190 0.018569 0.082525
v -0.095190 -0.026156 0.081438
v 0.076079 -0.025061 0.031255
v -0.097384 0.016389 0.082525
v 0.084818 -0.013060 0.053080
v 0.084818 0.015299 0.031255
v 0.083712 -0.023966 0.085802
v -0.006818 0.017479 0.089079
v 0.078255 -0.020701 0.087981
v 0.013888 0.019664 0.083623
v 0.047703 0.021849 0.031255
v 0.060794 -0.026156 0.056358
v -0.097384 -0.016331 0.080346
v -0.096278 0.016389 0.035624
v -0.091926 -0.019606 0.084710
v 0.081536 0.018569 0.085802
v -0.035193 0.021849 0.031255
v -0.003572 -0.020701 0.086894
v 0.083712 0.000022 0.080340
v 0.080448 -0.002154 0.089079
v -0.093014 0.009843 0.086894
v 0.084818 -0.022881 0.031255
v 0.024803 0.021849 0.039994
v -0.074466 0.020754 0.032353
v -0.017733 -0.025061 0.031255
v 0.082624 0.015299 0.085802
v -0.097384 0.015299 0.061797
v 0.070621 0.019664 0.074895
v -0.096278 -0.025061 0.082525
v 0.081536 -0.026156 0.077074
v 0.018258 0.020754 0.063976
v 0.065164 0.020754 0.054173
v -0.014451 -0.025061 0.085802
v 0.080448 0.018569 0.086894
v -0.003572 0.014204 0.089079
v -0.096278 0.002207 0.085802
v -0.066833 -0.026156 0.083623
v 0.077167 0.020754 0.045439
v 0.047703 -0.026156 0.053080
v -0.097384 -0.017425 0.031255
v 0.082624 0.019664 0.048716
v 0.083712 -0.010875 0.085802
v 0.074991 -0.026156 0.061797
v 0.081536 -0.025061 0.038896
v -0.094102 -0.026156 0.055260
v 0.008431 0.018574 0.086894
f 48 24 60 
f 2 6 7 
f 6 2 8 
f 11 12 15 
f 2 3 16 
f 13 5 16 
f 2 7 17 
f 4 15 18 
f 15 8 18 
f 7 6 20 
f 15 4 22 
f 11 15 24 
f 6 8 25 
f 5 13 26 
f 18 2 27 
f 18 8 28 
f 15 12 31 
f 25 8 31 
f 12 25 31 
f 5 23 32 
f 23 14 32 
f 19 20 33 
f 5 21 34 
f 21 10 34 
f 10 22 34 
f 23 5 34 
f 22 4 35 
f 32 14 35 
f 29 32 35 
f 20 19 36 
f 7 20 36 
f 19 21 36 
f 25 12 37 
f 8 15 38 
f 31 8 38 
f 15 31 38 
f 3 2 39 
f 13 3 39 
f 2 17 39 
f 17 13 39 
f 30 10 40 
f 20 30 40 
f 33 20 40 
f 2 18 41 
f 18 28 41 
f 2 16 43 
f 16 9 43 
f 27 2 43 
f 21 5 44 
f 5 26 44 
f 7 36 44 
f 36 21 44 
f 12 11 45 
f 11 24 45 
f 37 12 45 
f 24 42 45 
f 45 42 46 
f 25 37 46 
f 42 1 46 
f 37 45 46 
f 29 9 47 
f 5 32 47 
f 32 29 47 
f 22 10 48 
f 30 1 48 
f 10 30 48 
f 1 42 48 
f 42 24 48 
f 14 23 49 
f 34 22 49 
f 23 34 49 
f 22 35 49 
f 35 14 49 
f 4 18 50 
f 18 27 50 
f 9 29 50 
f 35 4 50 
f 29 35 50 
f 43 9 50 
f 27 43 50 
f 9 16 51 
f 16 5 51 
f 5 47 51 
f 47 9 51 
f 1 6 52 
f 6 25 52 
f 46 1 52 
f 25 46 52 
f 13 17 53 
f 26 13 53 
f 17 26 53 
f 8 2 54 
f 28 8 54 
f 2 41 54 
f 41 28 54 
f 6 1 55 
f 20 6 55 
f 1 30 55 
f 30 20 55 
f 10 21 56 
f 21 19 56 
f 19 33 56 
f 40 10 56 
f 33 40 56 
f 26 17 57 
f 44 26 57 
f 44 57 58 
f 17 7 58 
f 7 44 58 
f 57 17 58 
f 3 13 59 
f 16 3 59 
f 13 16 59 
f 15 22 60 
f 24 15 60 
f 22 48 60 
o convex_1
v 0.088091 0.003295 -0.059287
v -0.033013 -0.019602 -0.087667
v -0.033013 -0.020693 -0.084373
v -0.033013 0.021841 0.031255
v 0.076083 -0.025065 0.031255
v -0.033013 0.024022 -0.085467
v 0.082626 0.020750 0.030149
v -0.025367 -0.023970 0.031255
v 0.085898 -0.019607 -0.084385
v 0.085898 0.022936 -0.085479
v 0.033537 0.025117 -0.056016
v 0.084807 -0.022874 0.031255
v -0.033013 -0.001057 0.031255
v 0.084807 0.016392 0.031255
v 0.034628 -0.023970 -0.013492
v 0.000819 0.024027 -0.087667
v 0.065177 -0.021784 -0.064747
v -0.025367 0.025122 -0.062570
v 0.012816 -0.014154 -0.087667
v -0.005736 -0.025065 0.030149
v -0.033013 -0.021784 -0.028742
v 0.084807 0.024027 -0.082196
v 0.050987 0.021841 0.031255
v 0.086989 -0.015240 0.007240
v 0.088091 -0.018517 -0.082196
v 0.088091 0.020755 -0.072383
v -0.000271 0.024027 -0.015669
v 0.074992 0.024027 -0.050557
v 0.073901 0.019659 -0.086573
v 0.019359 0.025117 -0.078937
v -0.033013 0.020750 -0.087667
v -0.033013 -0.021784 -0.060381
v 0.086989 0.006572 0.001792
v 0.084807 -0.021784 -0.050557
v 0.074992 -0.018512 -0.085479
v -0.033013 0.024022 -0.025494
v 0.030265 -0.025065 0.018147
v 0.010635 0.025117 -0.046191
v 0.058633 0.024027 -0.032013
v 0.070630 -0.020693 -0.080019
v -0.009008 0.022936 0.012688
v 0.085898 -0.007601 0.027972
v 0.056440 -0.022879 -0.040743
v 0.088091 0.019664 -0.082196
v -0.024276 0.025122 -0.077842
v 0.074992 0.021841 0.014888
v 0.020450 0.017483 -0.087667
v -0.024276 -0.023970 0.007252
v 0.084807 0.024027 -0.071289
v 0.083717 -0.023965 0.027972
v 0.031356 0.022936 0.009428
v 0.085898 -0.001057 -0.085479
v 0.042262 0.025117 -0.064747
v -0.004646 -0.019607 -0.087667
v 0.044443 -0.021788 -0.065829
v 0.055349 -0.025065 0.021418
v 0.085898 0.017478 0.005063
v 0.085898 -0.020693 0.021418
v 0.083717 -0.020693 -0.076748
v 0.088091 -0.017426 -0.068018
v 0.086989 -0.005425 0.010511
v 0.067358 -0.022874 -0.036378
v 0.037900 0.025117 -0.077842
v -0.001362 0.025117 -0.047285
f 87 98 124 
f 62 63 64 
f 62 64 66 
f 65 64 68 
f 64 65 72 
f 64 63 73 
f 68 64 73 
f 64 72 74 
f 62 76 79 
f 65 68 80 
f 73 63 81 
f 68 73 81 
f 70 76 82 
f 64 74 83 
f 74 67 83 
f 70 82 86 
f 61 85 86 
f 76 70 89 
f 62 66 91 
f 76 62 91 
f 66 76 91 
f 81 63 92 
f 68 81 92 
f 61 86 93 
f 69 85 94 
f 79 89 95 
f 66 64 96 
f 78 66 96 
f 65 80 97 
f 92 75 97 
f 80 92 97 
f 71 78 98 
f 71 98 99 
f 63 69 100 
f 64 83 101 
f 96 64 101 
f 87 96 101 
f 74 72 102 
f 85 70 104 
f 70 86 104 
f 86 85 104 
f 76 66 105 
f 66 78 105 
f 90 76 105 
f 83 67 106 
f 99 83 106 
f 88 99 106 
f 79 76 107 
f 76 89 107 
f 89 79 107 
f 80 68 108 
f 68 92 108 
f 92 80 108 
f 67 86 109 
f 86 82 109 
f 106 67 109 
f 88 106 109 
f 72 65 110 
f 85 72 110 
f 65 94 110 
f 94 85 110 
f 98 87 111 
f 83 99 111 
f 99 98 111 
f 101 83 111 
f 87 101 111 
f 70 85 112 
f 85 69 112 
f 89 70 112 
f 69 95 112 
f 95 89 112 
f 78 71 113 
f 99 88 113 
f 71 99 113 
f 105 78 113 
f 109 82 113 
f 88 109 113 
f 63 62 114 
f 69 63 114 
f 62 79 114 
f 95 69 114 
f 79 95 114 
f 92 63 115 
f 75 92 115 
f 63 100 115 
f 100 77 115 
f 77 103 115 
f 103 75 115 
f 65 97 116 
f 97 75 116 
f 75 103 116 
f 67 74 117 
f 86 67 117 
f 74 93 117 
f 93 86 117 
f 72 85 118 
f 102 72 118 
f 84 102 118 
f 69 94 119 
f 94 77 119 
f 100 69 119 
f 77 100 119 
f 61 84 120 
f 85 61 120 
f 118 85 120 
f 84 118 120 
f 84 61 121 
f 61 93 121 
f 93 74 121 
f 74 102 121 
f 102 84 121 
f 94 65 122 
f 77 94 122 
f 103 77 122 
f 65 116 122 
f 116 103 122 
f 82 76 123 
f 76 90 123 
f 90 105 123 
f 113 82 123 
f 105 113 123 
f 78 96 124 
f 96 87 124 
f 98 78 124 
o convex_2
v -0.033019 -0.021790 -0.039662
v -0.091921 -0.020693 -0.088758
v -0.091921 0.007661 -0.088758
v -0.095196 -0.019605 -0.039662
v -0.033019 0.024031 -0.039662
v -0.033019 0.020753 -0.087663
v -0.093016 0.021841 -0.039662
v -0.033019 -0.019605 -0.087663
v -0.090831 0.022934 -0.086567
v -0.094106 0.018571 -0.084390
v -0.033019 0.024031 -0.085481
v -0.066835 -0.022879 -0.045121
v -0.033019 -0.020697 -0.084390
v -0.046107 -0.010876 -0.088758
v -0.093016 -0.021786 -0.040758
v -0.094106 -0.014150 -0.083299
v -0.095196 0.008750 -0.041849
v -0.051561 0.024031 -0.041849
v -0.091921 -0.021786 -0.074567
v -0.088652 0.022934 -0.087663
v -0.059201 0.024022 -0.080021
v -0.095196 -0.013057 -0.053849
v -0.033019 -0.021790 -0.061485
v -0.079922 0.022934 -0.040758
v -0.057022 -0.022879 -0.039662
v -0.077743 -0.021786 -0.075662
v -0.094106 0.020753 -0.039662
v -0.093016 -0.020693 -0.087663
v -0.051561 -0.019605 -0.088758
v -0.048286 -0.020697 -0.087663
v -0.090831 0.022934 -0.077844
v -0.052651 -0.021790 -0.070208
v -0.093016 0.020753 -0.086567
v -0.060297 -0.022879 -0.046217
f 150 156 158 
f 128 125 129 
f 129 125 130 
f 128 129 131 
f 130 125 132 
f 129 130 135 
f 132 125 137 
f 126 127 138 
f 127 130 138 
f 130 132 138 
f 129 135 142 
f 136 139 143 
f 130 127 144 
f 135 130 144 
f 135 144 145 
f 142 135 145 
f 144 133 145 
f 140 128 146 
f 134 140 146 
f 141 134 146 
f 128 141 146 
f 137 125 147 
f 131 129 148 
f 129 142 148 
f 125 128 149 
f 128 139 149 
f 139 136 149 
f 147 125 149 
f 143 126 150 
f 128 131 151 
f 134 141 151 
f 141 128 151 
f 127 126 152 
f 139 128 152 
f 128 140 152 
f 140 134 152 
f 126 143 152 
f 143 139 152 
f 126 138 153 
f 138 132 153 
f 132 137 154 
f 150 126 154 
f 126 153 154 
f 153 132 154 
f 133 131 155 
f 145 133 155 
f 142 145 155 
f 131 148 155 
f 148 142 155 
f 137 147 156 
f 154 137 156 
f 150 154 156 
f 131 133 157 
f 144 127 157 
f 133 144 157 
f 151 131 157 
f 134 151 157 
f 127 152 157 
f 152 134 157 
f 136 143 158 
f 149 136 158 
f 147 149 158 
f 143 150 158 
f 156 147 158 
o convex_3
v -0.062471 0.022936 -0.028752
v -0.033013 0.021844 0.031255
v -0.037382 0.021844 0.031255
v -0.061378 -0.003245 0.027971
v -0.033013 0.000029 -0.028752
v -0.033013 0.024031 -0.028752
v -0.062471 -0.001061 -0.028752
v -0.034106 -0.002153 0.031255
v -0.062471 0.020755 0.031255
v -0.062471 -0.003245 0.031255
v -0.062471 0.022936 -0.012382
v -0.033013 -0.001061 0.031255
v -0.061378 0.021844 0.017064
v -0.034106 0.022936 0.005069
f 171 161 172 
f 160 163 164 
f 163 159 164 
f 159 163 165 
f 163 162 165 
f 160 161 166 
f 162 163 166 
f 159 165 167 
f 166 161 167 
f 166 167 168 
f 165 162 168 
f 162 166 168 
f 167 165 168 
f 164 159 169 
f 159 167 169 
f 163 160 170 
f 160 166 170 
f 166 163 170 
f 167 161 171 
f 169 167 171 
f 169 171 172 
f 161 160 172 
f 160 164 172 
f 164 169 172 
o convex_4
v -0.097383 -0.010882 -0.036388
v -0.033013 0.024031 -0.028753
v -0.033013 0.024031 -0.039662
v -0.093019 0.021847 -0.039662
v -0.093019 0.020757 -0.028753
v -0.033013 0.000030 -0.028753
v -0.064661 -0.010882 -0.039662
v -0.099566 -0.010882 -0.028753
v -0.033013 0.001120 -0.039662
v -0.069006 -0.010882 -0.028753
v -0.095201 -0.010882 -0.039662
v -0.099566 0.003304 -0.029844
v -0.073371 0.022938 -0.028753
v -0.048290 0.024031 -0.039662
v -0.096282 0.002211 -0.038570
v -0.091918 0.021847 -0.028753
v -0.078823 0.022938 -0.039662
f 176 188 189 
f 174 177 178 
f 175 174 178 
f 176 175 179 
f 173 179 180 
f 178 177 180 
f 175 178 181 
f 179 175 181 
f 178 179 181 
f 179 178 182 
f 180 179 182 
f 178 180 182 
f 176 179 183 
f 179 173 183 
f 177 176 184 
f 173 180 184 
f 180 177 184 
f 177 174 185 
f 174 175 186 
f 175 176 186 
f 185 174 186 
f 183 173 187 
f 176 183 187 
f 173 184 187 
f 184 176 187 
f 176 177 188 
f 177 185 188 
f 188 185 189 
f 186 176 189 
f 185 186 189 
o convex_5
v -0.071201 -0.018518 -0.029844
v -0.096287 -0.018518 -0.039662
v -0.097383 -0.019608 -0.037478
v -0.099564 -0.010882 -0.028753
v -0.064653 -0.010882 -0.039662
v -0.067927 -0.019608 -0.039662
v -0.099564 -0.020701 -0.028753
v -0.070108 -0.010882 -0.028753
v -0.096287 -0.010882 -0.039662
v -0.074475 -0.020701 -0.028753
v -0.094109 -0.020701 -0.039662
v -0.100657 -0.013065 -0.029844
v -0.065745 -0.016335 -0.038570
f 194 197 202 
f 191 194 195 
f 194 193 197 
f 193 196 197 
f 191 192 198 
f 193 194 198 
f 194 191 198 
f 195 190 199 
f 190 197 199 
f 197 196 199 
f 192 191 200 
f 191 195 200 
f 196 192 200 
f 195 199 200 
f 199 196 200 
f 192 196 201 
f 196 193 201 
f 198 192 201 
f 193 198 201 
f 195 194 202 
f 190 195 202 
f 197 190 202 
o convex_6
v -0.033015 -0.017429 -0.032026
v -0.053739 -0.021791 -0.039662
v -0.053739 -0.021791 -0.038570
v -0.033015 -0.021791 -0.039662
v -0.037379 -0.015246 -0.039662
v -0.033015 -0.021791 -0.029843
v -0.053739 -0.019609 -0.038570
v -0.033015 -0.015246 -0.039662
v -0.034107 -0.018519 -0.029843
v -0.043921 -0.016338 -0.038570
f 211 203 212 
f 205 204 206 
f 206 204 207 
f 205 206 208 
f 206 203 208 
f 204 205 209 
f 207 204 209 
f 203 206 210 
f 207 203 210 
f 206 207 210 
f 208 203 211 
f 205 208 211 
f 209 205 211 
f 209 211 212 
f 203 207 212 
f 207 209 212 
o convex_7
v -0.100655 -0.022883 0.023615
v -0.062471 0.005484 0.031255
v -0.062471 -0.004338 0.031255
v -0.062471 0.005484 0.011616
v -0.101747 0.002210 0.015982
v -0.077746 -0.021792 0.011616
v -0.096288 0.002210 0.031255
v -0.070113 -0.021792 0.031255
v -0.103930 -0.021792 0.011616
v -0.097380 -0.022883 0.031255
v -0.101747 0.002210 0.011616
v -0.087563 0.005484 0.031255
v -0.062471 -0.001064 0.011616
v -0.101747 -0.017427 0.022524
v -0.075567 0.005484 0.011616
v -0.072296 -0.022883 0.030163
v -0.099563 -0.022883 0.015982
v -0.102838 0.000027 0.014892
v -0.099563 0.000027 0.025799
v -0.076654 -0.021792 0.012710
v -0.098472 -0.017427 0.030163
v -0.103930 -0.020698 0.014892
v -0.070113 -0.021792 0.030163
f 228 232 235 
f 214 215 216 
f 215 214 219 
f 215 219 220 
f 216 218 221 
f 220 219 222 
f 216 221 223 
f 214 216 224 
f 219 214 224 
f 217 219 224 
f 223 217 224 
f 216 215 225 
f 218 216 225 
f 213 222 226 
f 216 223 227 
f 224 216 227 
f 223 224 227 
f 222 213 228 
f 220 222 228 
f 213 221 229 
f 221 218 229 
f 228 213 229 
f 218 228 229 
f 217 223 230 
f 223 221 230 
f 230 226 231 
f 219 217 231 
f 217 230 231 
f 218 225 232 
f 228 218 232 
f 222 219 233 
f 226 222 233 
f 231 226 233 
f 219 231 233 
f 221 213 234 
f 213 226 234 
f 230 221 234 
f 226 230 234 
f 215 220 235 
f 225 215 235 
f 220 228 235 
f 232 225 235 
o convex_8
v -0.094108 0.017485 0.002884
v -0.062474 0.020758 0.031255
v -0.075567 0.020758 0.031255
v -0.062474 0.022940 -0.028752
v -0.062474 0.014212 -0.028752
v -0.062474 0.014212 0.031255
v -0.091924 0.021848 -0.028752
v -0.088651 0.014212 0.031255
v -0.079924 0.014212 -0.028752
v -0.094108 0.019667 0.031255
v -0.093014 0.018576 -0.028752
v -0.063567 0.022940 -0.013474
v -0.086471 0.021848 -0.011295
v -0.094108 0.016395 0.031255
v -0.093014 0.017485 -0.011295
v -0.072294 0.022940 -0.027659
v -0.094108 0.019667 0.000717
v -0.062474 0.021848 0.014885
f 239 247 253 
f 239 237 240 
f 240 237 241 
f 237 238 241 
f 239 240 242 
f 240 241 243 
f 241 238 243 
f 242 240 244 
f 240 243 244 
f 243 238 245 
f 242 244 246 
f 242 245 248 
f 245 238 248 
f 238 247 248 
f 245 236 249 
f 243 245 249 
f 244 243 250 
f 236 246 250 
f 246 244 250 
f 249 236 250 
f 243 249 250 
f 239 242 251 
f 247 239 251 
f 242 248 251 
f 248 247 251 
f 236 245 252 
f 245 242 252 
f 246 236 252 
f 242 246 252 
f 238 237 253 
f 237 239 253 
f 247 238 253 
o convex_9
v -0.103927 0.001118 0.007250
v -0.101747 -0.021792 -0.017838
v -0.100655 -0.021792 -0.017838
v -0.099565 0.003302 -0.028752
v -0.087565 -0.021792 0.011616
v -0.087565 0.000027 -0.028752
v -0.087565 -0.001063 0.011616
v -0.087565 -0.020699 -0.028752
v -0.103927 -0.021792 0.011616
v -0.102837 -0.019608 -0.023295
v -0.097381 0.002209 0.011616
v -0.103927 0.001118 -0.013471
v -0.105021 -0.020699 -0.012381
v -0.100655 -0.020699 -0.028752
v -0.095204 0.003302 -0.025476
v -0.102837 0.002209 0.011616
v -0.105021 -0.018518 0.008341
v -0.102837 0.003302 -0.006932
v -0.100655 0.002209 -0.027657
v -0.087565 -0.021792 -0.009113
v -0.105021 -0.013062 -0.003660
v -0.102837 0.001118 -0.020019
f 272 263 275 
f 255 256 258 
f 258 259 260 
f 256 255 261 
f 259 258 261 
f 257 259 261 
f 255 258 262 
f 258 260 262 
f 262 260 264 
f 255 262 266 
f 261 255 267 
f 257 261 267 
f 266 263 267 
f 255 266 267 
f 259 257 268 
f 260 259 268 
f 264 260 268 
f 262 264 269 
f 266 262 270 
f 269 254 270 
f 262 269 270 
f 265 254 271 
f 257 265 271 
f 268 257 271 
f 264 268 271 
f 269 264 271 
f 254 269 271 
f 257 267 272 
f 267 263 272 
f 258 256 273 
f 256 261 273 
f 261 258 273 
f 254 265 274 
f 265 266 274 
f 270 254 274 
f 266 270 274 
f 265 257 275 
f 263 266 275 
f 266 265 275 
f 257 272 275 
o convex_10
v -0.062471 0.005484 -0.028752
v -0.087565 -0.021792 -0.008022
v -0.086471 -0.021792 -0.008022
v -0.075563 0.005484 0.011616
v -0.087565 0.000026 -0.028752
v -0.062471 -0.001063 0.011616
v -0.072294 -0.019608 -0.028752
v -0.087565 -0.021792 0.011616
v -0.087565 -0.001063 0.011616
v -0.077742 -0.021792 0.011616
v -0.087565 -0.020700 -0.028752
v -0.062471 0.005484 0.011616
v -0.077742 0.005484 -0.028752
v -0.062471 -0.001063 -0.028752
v -0.077742 0.005484 0.003978
v -0.074472 -0.020700 -0.028752
v -0.086471 0.001118 -0.020019
v -0.076654 -0.020700 0.011616
f 281 285 293 
f 280 276 282 
f 277 278 283 
f 280 277 283 
f 281 279 283 
f 280 283 284 
f 283 279 284 
f 281 283 285 
f 283 278 285 
f 278 277 286 
f 277 280 286 
f 280 282 286 
f 276 279 287 
f 281 276 287 
f 279 281 287 
f 279 276 288 
f 276 280 288 
f 276 281 289 
f 282 276 289 
f 281 282 289 
f 284 279 290 
f 279 288 290 
f 285 278 291 
f 282 285 291 
f 278 286 291 
f 286 282 291 
f 280 284 292 
f 288 280 292 
f 284 290 292 
f 290 288 292 
f 282 281 293 
f 285 282 293 
o convex_11
v -0.077744 0.005484 -0.026565
v -0.062471 0.014212 0.020345
v -0.076653 0.014212 0.020345
v -0.062471 0.014212 -0.028752
v -0.062471 0.005484 0.020345
v -0.078836 0.014212 -0.028752
v -0.062471 0.005484 -0.028752
v -0.074471 0.005484 0.019249
v -0.077744 0.013120 0.017067
v -0.078836 0.006576 -0.028752
v -0.076653 0.005484 0.007249
f 302 303 304 
f 296 295 297 
f 295 296 298 
f 297 295 298 
f 296 297 299 
f 299 297 300 
f 298 294 300 
f 297 298 300 
f 294 298 301 
f 298 296 301 
f 296 299 302 
f 301 296 302 
f 299 300 303 
f 300 294 303 
f 302 299 303 
f 303 294 304 
f 294 301 304 
f 301 302 304 
o convex_12
v -0.062471 0.005484 0.031255
v -0.077742 0.013120 0.020345
v -0.077742 0.014212 0.020345
v -0.087565 0.014212 0.031255
v -0.062471 0.014212 0.031255
v -0.086471 0.005484 0.030162
v -0.062471 0.005484 0.020345
v -0.062471 0.014212 0.020345
v -0.073382 0.005484 0.020345
v -0.086471 0.005484 0.031255
f 308 310 314 
f 307 306 308 
f 308 305 309 
f 307 308 309 
f 308 306 310 
f 306 307 311 
f 309 305 311 
f 305 310 311 
f 307 309 312 
f 311 307 312 
f 309 311 312 
f 310 306 313 
f 306 311 313 
f 311 310 313 
f 305 308 314 
f 310 305 314 
