# https://github.com/mikedh/trimesh
v -0.08860460 -0.02287839 0.01027970
v -0.08860460 -0.02284912 -0.00046596
v -0.08280873 -0.02287839 0.01027970
v -0.08860460 0.00157906 0.01027970
v -0.08440267 -0.02284912 -0.00046596
v -0.08860460 0.00103173 -0.00046596
v -0.08087970 -0.02287546 0.01027970
v -0.07852522 0.00702316 0.01027970
v -0.07883993 0.00702316 0.00587983
v -0.07889237 0.00702316 0.00500469
v -0.07908178 0.00702316 -0.00046596
v -0.08280873 -0.02283741 0.00112654
v -0.07894774 -0.02285497 0.01027970
v -0.08280873 -0.02281692 -0.00046596
v -0.05883561 0.00702316 0.01027970
v -0.05883561 0.00702316 -0.00046596
v -0.08247072 -0.02280814 -0.00046596
v -0.08087970 -0.02280814 0.00305773
v -0.07894774 -0.02279936 0.00691800
v -0.07701579 -0.02243642 -0.00046596
v -0.07701579 -0.02244520 0.00112654
v -0.07701579 -0.02243350 0.00305773
v -0.07701579 -0.02239837 0.00498681
v -0.07721685 -0.02234569 0.01027970
v -0.05883561 -0.00351673 0.01027970
v -0.05883561 -0.00310696 -0.00046596
v -0.08087970 -0.02273790 -0.00046596
v -0.08087970 -0.02277595 0.00112654
v -0.07894774 -0.02276424 0.00498681
v -0.07894774 -0.02263838 -0.00046596
v -0.07568119 -0.02201787 -0.00046596
v -0.07572199 -0.02200909 0.00112654
v -0.07682638 -0.02222861 0.01027970
v -0.07701579 -0.02235739 0.00691800
v -0.07472251 -0.02111345 -0.00046596
v -0.05883561 -0.00349624 0.00965280
v -0.07602796 -0.02177786 0.01027970
v -0.05883561 -0.00334989 0.00579042
v -0.07489151 -0.02128614 -0.00046596
v -0.07578318 -0.02197689 0.00305773
f 1 2 5
f 1 5 3
f 1 3 7
f 1 7 13
f 1 13 24
f 1 24 33
f 1 33 37
f 1 37 25
f 1 25 15
f 1 15 8
f 1 8 4
f 1 4 6
f 1 6 2
f 2 6 11
f 2 11 16
f 2 16 26
f 2 26 35
f 2 35 39
f 2 39 31
f 2 31 20
f 2 20 30
f 2 30 27
f 2 27 17
f 2 17 14
f 2 14 5
f 3 5 7
f 4 8 9
f 4 9 10
f 4 10 11
f 4 11 6
f 5 12 13
f 5 13 7
f 5 14 12
f 8 15 16
f 8 16 11
f 8 11 10
f 8 10 9
f 12 14 13
f 13 14 17
f 13 17 18
f 13 18 19
f 13 19 20
f 13 20 21
f 13 21 22
f 13 22 23
f 13 23 24
f 15 25 36
f 15 36 38
f 15 38 26
f 15 26 16
f 17 27 28
f 17 28 18
f 18 28 19
f 19 28 29
f 19 29 20
f 20 29 30
f 20 31 21
f 21 31 22
f 22 31 32
f 22 32 23
f 23 32 33
f 23 33 34
f 23 34 24
f 24 34 33
f 25 35 36
f 25 37 35
f 26 38 35
f 27 30 28
f 28 30 29
f 31 39 32
f 32 40 33
f 32 39 40
f 33 40 37
f 35 37 39
f 35 38 36
f 37 40 39

