# https://github.com/mikedh/trimesh
v -0.05883561 0.01300895 0.01936327
v -0.07995802 0.01300895 0.01936327
v -0.05883561 0.00702375 0.01936327
v -0.05883561 0.01300895 -0.00046626
v -0.08071480 0.01300895 0.01376810
v -0.07762685 0.00702375 0.01936327
v -0.05883561 0.00627708 -0.00046626
v -0.05883561 0.01257137 -0.02726008
v -0.08152564 0.01300895 -0.00046626
v -0.08094229 0.01300895 0.01203844
v -0.07855707 0.00702375 0.01060998
v -0.07938142 0.00627708 -0.00046626
v -0.05883561 0.00627708 -0.02726008
v -0.08184548 0.01257137 -0.02726008
v -0.08151213 0.01300895 0.00088461
v -0.08111572 0.01300895 0.01025857
v -0.08138600 0.00627708 -0.02726008
v -0.08148060 0.01300895 0.00279683
v -0.08125086 0.01300895 0.00843763
v -0.08135672 0.01300895 0.00658475
v -0.08143330 0.01300895 0.00469992
f 1 2 6
f 1 6 3
f 1 3 7
f 1 7 13
f 1 13 8
f 1 8 4
f 1 4 9
f 1 9 15
f 1 15 18
f 1 18 21
f 1 21 20
f 1 20 19
f 1 19 16
f 1 16 10
f 1 10 5
f 1 5 2
f 2 5 6
f 3 6 12
f 3 12 7
f 4 8 14
f 4 14 9
f 5 10 6
f 6 10 11
f 6 11 12
f 7 12 17
f 7 17 13
f 8 13 17
f 8 17 14
f 9 14 15
f 10 16 12
f 10 12 11
f 12 16 17
f 14 17 15
f 15 17 18
f 16 19 17
f 17 19 20
f 17 20 21
f 17 21 18

