# https://github.com/mikedh/trimesh
v 0.00101697 0.03159002 0.13673943
v 0.00101697 0.04165198 0.13673730
v -0.00149568 0.03159002 0.13670521
v 0.00101697 0.02655261 0.13673943
v 0.00350255 0.04918239 0.13553328
v 0.00101697 0.04415784 0.13672232
v -0.00149568 0.03409587 0.13670094
v 0.00350255 0.05170110 0.13552687
v -0.00346878 0.03409587 0.13549906
v -0.00346878 0.02907132 0.13549906
v -0.00149568 0.02655261 0.13670094
v 0.00101697 0.02404676 0.13673730
v 0.00350255 0.02404676 0.13553328
v 0.00473356 0.04918239 0.13307179
v 0.00473181 0.05420695 0.13307179
v 0.00101697 0.04667654 0.13667741
v -0.00149568 0.03661458 0.13666458
v -0.00149568 0.03462275 0.13669452
v 0.00350168 0.05420695 0.13549265
v 0.00472570 0.05672565 0.13307179
v -0.00346878 0.03462275 0.13549265
v -0.00418556 0.05420695 0.13307179
v -0.00346878 0.02152806 0.13549051
v -0.00418556 -0.00490548 0.13307179
v -0.00418556 -0.05133444 0.13306964
v -0.00149568 0.02152806 0.13669452
v 0.00101697 0.02152806 0.13673088
v 0.00350255 0.02152806 0.13552687
v 0.00471610 -0.05385315 0.13306964
v 0.00471959 -0.04882859 0.13306964
v 0.00472046 -0.04630989 0.13306964
v 0.00472395 -0.03122337 0.13306964
v 0.00473181 0.00897309 0.13307179
v 0.00473356 0.02152806 0.13307179
v 0.00473356 0.05923151 0.13055896
v 0.00101697 0.04918239 0.13661968
v 0.00101697 0.05170110 0.13655552
v -0.00149568 0.04165198 0.13653199
v -0.00346878 0.05420695 0.13508846
v -0.00346878 0.03661458 0.13546271
v 0.00465760 0.05923151 0.13307179
v 0.00349644 0.05672565 0.13533653
v 0.00101697 0.05420695 0.13646356
v 0.00472657 0.06175021 0.13055896
v -0.00416024 0.05672565 0.13307179
v -0.00418556 0.06426892 0.12804401
v -0.00346878 0.01650350 0.13547982
v -0.00418556 -0.06139641 0.13055683
v -0.00418381 -0.05385315 0.13306964
v -0.00149568 0.01147894 0.13666886
v 0.00101697 0.01900935 0.13671804
v 0.00350168 0.01900935 0.13551617
v -0.00149568 0.00393568 0.13664105
v -0.00149568 0.00141698 0.13663036
v -0.00149568 -0.00359473 0.13660898
v 0.00470737 -0.05635900 0.13306964
v 0.00472745 -0.06139641 0.13055683
v 0.00473356 -0.05887771 0.13055683
v 0.00472657 -0.01866840 0.13306964
v 0.00473356 0.06579813 0.12651493
v 0.00473268 0.06426892 0.12804401
v -0.00149568 0.04415784 0.13645500
v -0.00344434 0.05672565 0.13502643
v 0.00464887 0.06579813 0.12804401
v 0.00446902 0.06579813 0.12902775
v 0.00427433 0.06426892 0.13055896
v 0.00368851 0.06185302 0.13323217
v 0.00342747 0.05923151 0.13500933
v 0.00101697 0.05672565 0.13619410
v -0.00149568 0.05420695 0.13605937
v -0.00149568 0.04667654 0.13635877
v -0.00149568 0.05672565 0.13588614
v -0.00385118 0.05923151 0.13307179
v -0.00385118 0.06426892 0.13055896
v -0.00416024 0.06175021 0.13055896
v -0.00416984 0.06579813 0.12804401
v -0.00418556 0.06579813 0.12553760
v -0.00346878 0.01147894 0.13546484
v -0.00418556 -0.06548288 0.12804401
v -0.00415849 -0.06548288 0.12899139
v -0.00411484 -0.06390226 0.13055683
v -0.00411222 -0.05635900 0.13306964
v -0.00346616 -0.05385315 0.13504782
v -0.00346878 -0.05133444 0.13507135
v -0.00346878 -0.03624792 0.13520608
v -0.00346878 -0.03374207 0.13522746
v -0.00346878 -0.02871752 0.13526809
v -0.00346878 -0.02621166 0.13528520
v -0.00346878 -0.02118710 0.13531300
v -0.00346878 -0.01614970 0.13534081
v -0.00346878 -0.00861929 0.13538144
v -0.00346878 -0.00490548 0.13539855
v -0.00346878 0.00393568 0.13543704
v 0.00101697 0.01147894 0.13667741
v 0.00101697 -0.00107603 0.13660684
v 0.00349033 -0.04630989 0.13515047
v 0.00349644 -0.01866840 0.13530445
v -0.00149568 -0.00490548 0.13660042
v 0.00101697 -0.00359473 0.13659187
v 0.00349295 -0.03624792 0.13520608
v 0.00348946 -0.04882859 0.13513336
v 0.00348771 -0.05133444 0.13510129
v 0.00348596 -0.05385315 0.13506707
v 0.00347723 -0.05635900 0.13500291
v 0.00438521 -0.05887771 0.13306964
v 0.00456855 -0.06390226 0.13055683
v 0.00473181 -0.06548288 0.12804401
v 0.00473356 -0.06390226 0.12804401
v 0.00473356 0.06579813 0.12050983
v -0.00313440 0.05923151 0.13469068
v 0.00362129 0.06579813 0.13052047
v 0.00299967 0.06108198 0.13465219
v 0.00319786 0.06579813 0.13115563
v 0.00101697 0.05923151 0.13553969
v -0.00149568 0.05923151 0.13521677
v -0.00334481 0.06155746 0.13309959
v -0.00351680 0.06579813 0.13057607
v -0.00418556 0.06579813 0.12050983
v -0.00418556 -0.06548288 0.12302265
v -0.00392975 -0.06548288 0.13055683
v -0.00381800 -0.05887771 0.13306964
v -0.00339544 -0.05635900 0.13493234
v -0.00149568 -0.05385315 0.13577921
v -0.00149568 -0.05133444 0.13584123
v -0.00149568 -0.03624792 0.13619623
v -0.00149568 -0.03374207 0.13625397
v -0.00149568 -0.03122337 0.13630530
v -0.00149568 -0.02871752 0.13634379
v -0.00149568 -0.02369296 0.13640153
v -0.00149568 -0.01614970 0.13648494
v -0.00149568 -0.00861929 0.13656621
v -0.00149568 -0.00610058 0.13659187
v 0.00101697 -0.00610058 0.13657263
v 0.00101697 -0.01113799 0.13651916
v 0.00101697 -0.02871752 0.13632241
v 0.00101697 -0.03122337 0.13629033
v 0.00101697 -0.03374207 0.13624542
v 0.00101697 -0.03624792 0.13619623
v 0.00101697 -0.04630989 0.13599093
v 0.00101697 -0.04882859 0.13593533
v 0.00101697 -0.05133444 0.13587118
v 0.00101697 -0.05635900 0.13564449
v 0.00315508 -0.05887771 0.13474201
v 0.00101697 -0.05385315 0.13579632
v 0.00333842 -0.06390226 0.13246657
v 0.00400107 -0.06548288 0.13067017
v 0.00473356 -0.06548288 0.12553547
v 0.00473356 0.06426892 0.12050983
v 0.00472919 0.06579813 0.11897861
v -0.00281748 0.06058081 0.13437417
v -0.00313440 0.06426892 0.13219711
v 0.00101697 0.06121049 0.13470993
v 0.00304594 0.06426892 0.13239386
v 0.00249156 0.06564392 0.13190199
v 0.00137230 0.06579813 0.13199180
v 0.00101697 0.06579813 0.13204741
v 0.00101697 0.06426892 0.13298410
v 0.00101697 0.06246984 0.13403842
v 0.00261553 0.06579813 0.13167958
v -0.00149568 0.06083782 0.13450035
v -0.00291701 0.06579813 0.13161756
v -0.00412968 0.06579813 0.11799487
v -0.00418556 0.06175021 0.12050983
v -0.00385729 -0.06548288 0.12145721
v -0.00365998 -0.06548288 0.13128822
v -0.00339806 -0.06390226 0.13249651
v -0.00149568 -0.05635900 0.13557177
v -0.00310123 -0.05887771 0.13461797
v 0.00101697 -0.05887771 0.13510129
v 0.00265220 -0.06044547 0.13445971
v 0.00295165 -0.06548288 0.13212867
v 0.00473356 -0.06548288 0.12302265
v 0.00466371 0.06579813 0.11799487
v 0.00467244 -0.06548288 0.12050983
v -0.00149568 0.06209718 0.13387375
v -0.00281748 0.06560537 0.13186136
v -0.00149568 0.06579813 0.13200036
v -0.00149568 0.06426892 0.13278522
v -0.00265248 0.06579813 0.13178650
v -0.00337187 0.06579813 0.11571301
v -0.00355259 -0.06548288 0.12042642
v -0.00321385 -0.06548288 0.13225271
v -0.00283494 -0.06029127 0.13438273
v -0.00149568 -0.05887771 0.13497511
v -0.00149568 -0.06047117 0.13444260
v -0.00149568 -0.06390226 0.13325784
v 0.00101697 -0.06059968 0.13450035
v 0.00101697 -0.06184618 0.13402345
v 0.00101697 -0.06390226 0.13322576
v 0.00101697 -0.06548288 0.13258419
v 0.00390765 0.06579813 0.11648290
v 0.00344231 -0.06548288 0.11870915
v 0.00339080 0.06579813 0.11570018
v -0.00149568 0.06579813 0.11490677
v -0.00288122 -0.06548288 0.11916467
v -0.00309861 -0.06548288 0.11954533
v -0.00249707 -0.06548288 0.13253928
v -0.00137171 -0.06548288 0.13268898
v -0.00028475 -0.06548288 0.13267615
v 0.00101697 -0.06548288 0.11839050
v 0.00101697 0.06579813 0.11489180
v 0.00172152 0.06579813 0.11507572
v -0.00155592 -0.06548288 0.11885457
v -0.00219761 -0.06548288 0.11899144
f 1 2 3
f 1 3 4
f 1 4 13
f 1 13 5
f 1 5 2
f 2 6 7
f 2 7 3
f 2 5 8
f 2 8 6
f 3 7 9
f 3 9 10
f 3 10 11
f 3 11 4
f 4 11 12
f 4 12 13
f 5 14 15
f 5 15 8
f 5 13 34
f 5 34 14
f 6 16 17
f 6 17 18
f 6 18 7
f 6 8 19
f 6 19 16
f 7 18 21
f 7 21 9
f 8 15 20
f 8 20 19
f 9 21 22
f 9 22 24
f 9 24 10
f 10 23 11
f 10 24 25
f 10 25 23
f 11 23 26
f 11 26 12
f 12 26 27
f 12 27 28
f 12 28 13
f 13 28 29
f 13 29 30
f 13 30 31
f 13 31 32
f 13 32 33
f 13 33 34
f 14 35 15
f 14 34 58
f 14 58 108
f 14 108 147
f 14 147 172
f 14 172 148
f 14 148 109
f 14 109 60
f 14 60 35
f 15 35 20
f 16 19 36
f 16 36 17
f 17 36 37
f 17 37 38
f 17 38 39
f 17 39 40
f 17 40 21
f 17 21 18
f 19 20 41
f 19 41 42
f 19 42 43
f 19 43 37
f 19 37 36
f 20 35 44
f 20 44 41
f 21 40 22
f 22 40 39
f 22 39 45
f 22 45 46
f 22 46 77
f 22 77 118
f 22 118 163
f 22 163 119
f 22 119 79
f 22 79 48
f 22 48 25
f 22 25 24
f 23 47 26
f 23 25 47
f 25 48 49
f 25 49 47
f 26 47 50
f 26 50 27
f 27 51 52
f 27 52 28
f 27 50 53
f 27 53 54
f 27 54 55
f 27 55 51
f 28 52 29
f 29 56 57
f 29 57 58
f 29 58 30
f 29 52 56
f 30 58 31
f 31 58 32
f 32 58 59
f 32 59 33
f 33 59 58
f 33 58 34
f 35 60 61
f 35 61 44
f 37 43 62
f 37 62 38
f 38 62 63
f 38 63 39
f 39 63 45
f 41 44 64
f 41 64 65
f 41 65 66
f 41 66 67
f 41 67 68
f 41 68 42
f 42 68 69
f 42 69 43
f 43 70 71
f 43 71 62
f 43 69 72
f 43 72 70
f 44 61 64
f 45 63 73
f 45 73 74
f 45 74 75
f 45 75 46
f 46 76 77
f 46 75 76
f 47 49 78
f 47 78 50
f 48 79 80
f 48 80 81
f 48 81 49
f 49 82 83
f 49 83 84
f 49 84 85
f 49 85 86
f 49 86 87
f 49 87 88
f 49 88 89
f 49 89 90
f 49 90 91
f 49 91 92
f 49 92 93
f 49 93 78
f 49 81 82
f 50 78 93
f 50 93 53
f 51 55 94
f 51 94 52
f 52 94 95
f 52 95 96
f 52 96 97
f 52 97 56
f 53 93 54
f 54 93 55
f 55 92 91
f 55 91 90
f 55 90 89
f 55 89 88
f 55 88 98
f 55 98 99
f 55 99 95
f 55 95 94
f 55 93 92
f 56 97 100
f 56 100 96
f 56 96 101
f 56 101 102
f 56 102 103
f 56 103 104
f 56 104 105
f 56 105 106
f 56 106 57
f 57 106 107
f 57 107 58
f 58 107 108
f 60 109 149
f 60 149 173
f 60 173 191
f 60 191 193
f 60 193 202
f 60 202 201
f 60 201 194
f 60 194 180
f 60 180 162
f 60 162 118
f 60 118 77
f 60 77 76
f 60 76 117
f 60 117 161
f 60 161 179
f 60 179 177
f 60 177 156
f 60 156 155
f 60 155 159
f 60 159 113
f 60 113 111
f 60 111 65
f 60 65 64
f 60 64 61
f 62 71 63
f 63 71 70
f 63 70 72
f 63 72 110
f 63 110 73
f 65 111 66
f 66 111 67
f 67 112 68
f 67 111 113
f 67 113 112
f 68 112 69
f 69 112 114
f 69 114 72
f 72 114 115
f 72 115 110
f 73 110 116
f 73 116 74
f 74 117 76
f 74 76 75
f 74 116 117
f 79 119 164
f 79 164 181
f 79 181 196
f 79 196 195
f 79 195 204
f 79 204 203
f 79 203 200
f 79 200 192
f 79 192 174
f 79 174 172
f 79 172 147
f 79 147 107
f 79 107 146
f 79 146 171
f 79 171 190
f 79 190 199
f 79 199 198
f 79 198 197
f 79 197 182
f 79 182 165
f 79 165 120
f 79 120 80
f 80 120 81
f 81 120 121
f 81 121 82
f 82 121 122
f 82 122 83
f 83 122 123
f 83 123 124
f 83 124 125
f 83 125 126
f 83 126 127
f 83 127 128
f 83 128 129
f 83 129 130
f 83 130 131
f 83 131 132
f 83 132 84
f 84 132 85
f 85 132 86
f 86 132 87
f 87 132 98
f 87 98 88
f 95 99 96
f 96 100 97
f 96 99 101
f 98 132 99
f 99 132 133
f 99 133 101
f 101 133 134
f 101 134 135
f 101 135 136
f 101 136 102
f 102 136 103
f 103 136 137
f 103 137 138
f 103 138 139
f 103 139 140
f 103 140 141
f 103 141 104
f 104 142 143
f 104 143 105
f 104 141 144
f 104 144 142
f 105 143 145
f 105 145 106
f 106 145 146
f 106 146 107
f 107 147 108
f 109 148 149
f 110 115 150
f 110 150 151
f 110 151 116
f 112 152 114
f 112 113 153
f 112 153 154
f 112 154 155
f 112 155 156
f 112 156 157
f 112 157 158
f 112 158 152
f 113 159 153
f 114 152 115
f 115 152 160
f 115 160 150
f 116 151 117
f 117 151 161
f 118 162 163
f 119 163 162
f 119 162 164
f 120 165 121
f 121 165 166
f 121 166 122
f 122 167 123
f 122 166 168
f 122 168 167
f 123 144 141
f 123 141 140
f 123 140 124
f 123 167 142
f 123 142 144
f 124 140 125
f 125 140 126
f 126 140 139
f 126 139 138
f 126 138 127
f 127 138 137
f 127 137 136
f 127 136 128
f 128 136 135
f 128 135 129
f 129 135 134
f 129 134 130
f 130 134 131
f 131 134 133
f 131 133 132
f 142 167 169
f 142 169 143
f 143 169 170
f 143 170 171
f 143 171 145
f 145 171 146
f 148 172 149
f 149 172 174
f 149 174 173
f 150 160 175
f 150 175 176
f 150 176 151
f 151 176 161
f 152 158 177
f 152 177 178
f 152 178 175
f 152 175 160
f 153 159 154
f 154 159 155
f 156 177 157
f 157 177 158
f 161 176 179
f 162 180 181
f 162 181 164
f 165 182 166
f 166 182 168
f 167 168 183
f 167 183 184
f 167 184 169
f 168 182 183
f 169 184 185
f 169 185 186
f 169 186 187
f 169 187 170
f 170 187 188
f 170 188 189
f 170 189 190
f 170 190 171
f 173 174 191
f 174 192 193
f 174 193 191
f 175 178 176
f 176 178 177
f 176 177 179
f 180 194 195
f 180 195 196
f 180 196 181
f 182 197 183
f 183 197 186
f 183 186 185
f 183 185 184
f 186 197 198
f 186 198 187
f 187 198 199
f 187 199 188
f 188 199 189
f 189 199 190
f 192 200 201
f 192 201 202
f 192 202 193
f 194 201 200
f 194 200 203
f 194 203 204
f 194 204 195

