# https://github.com/mikedh/trimesh
v -0.48372367 0.30389145 0.06417806
v -0.46854457 0.30099332 0.16765052
v -0.46094897 0.30069667 0.01134274
v -0.57406825 0.37199759 0.00945719
v -0.50943780 0.68012232 0.11389295
v -0.56616223 0.50123483 0.06686999
v -0.48259512 0.32319197 -0.00702425
v -0.51805979 0.84463292 -0.07796469
v -0.46115014 0.27710563 0.02276377
v -0.55993122 0.38521767 0.06784324
v -0.50166792 0.61192638 -0.07742638
v -0.50194842 0.49777830 0.00834563
v -0.50000650 0.66051418 0.09002256
v -0.49978366 0.59089667 0.05287132
v -0.50800896 0.66374665 0.08947274
v -0.50782895 0.66764665 0.08952274
v -0.50793898 0.66764665 0.08947274
v -0.51126897 0.67155665 0.08556274
v -0.51185906 0.65862423 0.08643828
v -0.50782537 0.67166615 0.08949124
v -0.45742676 0.42661321 -0.16361851
v -0.50782895 0.67155665 0.08948274
v -0.50783896 0.67155665 0.08947274
v -0.52111185 0.78209931 -0.11351941
v -0.46911159 0.59299737 -0.18599272
v -0.45228437 0.90405273 -0.14063764
v -0.44390032 0.77581102 0.19770901
v -0.50368381 0.77742332 0.14319725
v -0.47235560 0.52629888 0.01609517
v -0.49157631 0.83480304 -0.12652713
v -0.48170653 0.85693181 0.13221772
v -0.40168670 0.77225322 0.26488411
v -0.46470082 0.30131364 0.01554803
v -0.46070832 0.30072695 0.01223499
v -0.47952741 0.37943950 0.05557169
v -0.46100694 0.71126133 0.17136115
v -0.44771051 0.51648539 0.15039170
v -0.46216410 0.27983779 -0.04178878
v -0.46128944 0.29901227 -0.00652685
v -0.47427598 0.43143028 -0.09117348
v -0.47180679 0.51325780 0.04925308
v -0.40303892 0.52750587 -0.25934458
v -0.45955145 0.63573468 0.13446340
v -0.51126164 0.67811042 0.04687729
v -0.42065388 0.30254924 0.23467322
v -0.49888885 0.92691201 -0.09861867
v -0.48714399 0.52692664 -0.10151886
v -0.47182640 0.91555089 -0.03396066
v -0.46094897 0.30046663 -0.00036726
v -0.46087900 0.30046663 0.00353274
v -0.46094939 0.30058709 0.00544840
v -0.46083450 0.30046505 0.00589348
v -0.39483380 0.83943760 0.27549493
v -0.41759178 0.51937681 -0.20366828
v -0.39489606 0.62955600 0.17130804
v -0.44583166 0.83971345 0.17732470
v -0.46490595 0.83417600 -0.18805279
v -0.46747062 0.91015851 0.04008296
v -0.39607018 0.21700564 0.18049315
v -0.44470593 0.29337400 -0.16878602
v -0.41892120 0.57581162 0.21243595
v -0.44030553 0.77930784 -0.21367517
v -0.40348172 0.22622080 -0.13182339
v -0.47343361 0.92033845 0.12307023
v -0.39812899 0.83561665 0.23791274
v -0.39844897 0.83171666 0.24062274
v -0.39982536 0.89445508 0.15730360
v -0.39844897 0.83170664 0.23400272
v -0.39853898 0.83171666 0.23400272
v -0.39844897 0.83169663 0.23791274
v -0.41806924 0.83359593 0.25518897
v -0.39844897 0.83171666 0.23375274
v -0.43315390 0.91271001 -0.19374181
v -0.43246517 0.26305908 0.15969767
v -0.30723980 0.20417811 0.27740476
v -0.35409266 0.21800157 0.26327977
v -0.38267598 0.37199563 -0.25306776
v -0.33700234 0.74980205 0.26184574
v -0.41404742 0.68387908 0.23394997
v -0.39843899 0.83171666 0.23791274
v -0.39872059 0.83208805 0.23224312
v -0.39697587 0.85917997 0.23087680
v -0.29477629 0.44348708 -0.28365055
v -0.39844897 0.83171666 0.23400272
v -0.35533082 0.93373376 -0.07960729
v -0.29856595 -0.48626870 -0.18909569
v -0.36129424 0.58599448 0.25379708
v -0.38939565 0.78761697 -0.27728701
v -0.40333608 0.91860169 -0.10413217
v -0.34949604 0.95714033 0.10367285
v -0.37669620 0.95872140 -0.14117476
v -0.35250387 0.90963817 0.08608553
v -0.35795313 0.94547635 -0.25284636
v -0.38047588 0.92882776 -0.19095434
v -0.21943399 -0.50405103 -0.12181149
v -0.34552339 -0.39054129 -0.07185756
v -0.28245375 -0.52369952 -0.04329157
v -0.28964031 -0.15467547 -0.11466765
v -0.35999545 0.23951511 -0.19624498
v -0.21277709 -0.22228143 -0.20093949
v -0.34107170 0.19298828 0.02375030
v -0.35378084 0.52405739 0.26067126
v -0.34627554 0.87418807 0.24125914
v -0.32717660 0.78425264 0.31571898
v -0.27118108 0.87540025 0.17611755
v -0.33078304 0.94519949 0.17795241
v -0.27569202 0.95507759 -0.08907783
v -0.19013520 0.92461336 -0.30056524
v -0.31574705 0.92363364 -0.23810928
v -0.22641714 0.94271958 -0.16199470
v -0.22416596 -0.42506722 -0.11265814
v -0.33628201 -0.40496719 -0.13855840
v -0.36321944 -0.49434197 -0.08347988
v -0.29246855 -0.20300186 -0.21010308
v -0.30000809 -0.43997747 -0.02150171
v -0.20720626 -0.17049313 -0.10910295
v -0.29304355 0.14826223 0.00928282
v -0.31092983 0.15693343 0.23684761
v -0.29126430 0.33061451 0.29818949
v -0.27097747 0.19119082 -0.12826028
v -0.25073218 -0.95043933 -0.10802975
v -0.31308419 0.76211917 -0.28611729
v -0.26803634 0.52023774 0.32084548
v -0.30104372 0.83859026 0.26686278
v -0.09548434 -0.74239379 -0.16483764
v -0.21121371 -0.34122702 -0.06226741
v -0.22116326 0.13547207 0.08929953
v -0.24839923 0.30679655 -0.26217410
v -0.17508855 -0.64976984 -0.01743588
v -0.36016265 0.27171031 -0.23733462
v -0.23486894 0.15612026 0.26789093
v -0.28906748 0.66200185 0.22052829
v -0.19581690 0.68504357 0.27145204
v -0.20884347 0.89761686 0.13300422
v -0.20559677 -0.90636235 -0.12630238
v -0.17181160 -0.55563754 0.00278873
v -0.26213613 -0.39877355 -0.06255832
v -0.12501898 -0.96906334 -0.15813725
v -0.12897123 -0.96512622 -0.15661857
v -0.12891898 -0.96515334 -0.15663727
v -0.14616103 0.25508794 -0.22617389
v -0.21652953 -0.93993717 -0.03613656
v -0.17969897 -0.94171333 -0.13703725
v -0.17969897 -0.93781334 -0.13705727
v -0.17963897 -0.93781334 -0.13707726
v -0.17981897 -0.92218333 -0.13707726
v -0.17984048 -0.91959167 -0.13707858
v -0.21684468 0.08512274 -0.13240544
v -0.17167829 -0.97587568 -0.13962150
v -0.22786389 -0.08182158 0.00385401
v -0.23480950 0.13745990 0.14191344
v -0.21876898 0.13639665 0.13133273
v -0.21872295 0.13642500 0.14119530
v -0.21838930 0.11907526 0.21020778
v -0.21872060 0.13288005 0.13394825
v -0.21873897 0.13639665 0.13634273
v -0.17066902 -0.94106632 -0.05179359
v -0.21876898 0.13644664 0.14025272
v -0.21313171 0.13453071 0.00898305
v -0.16961896 -0.93390334 -0.14098725
v -0.21876898 0.13640665 0.13244274
v -0.21875899 0.13639665 0.13244274
v -0.19798957 -0.09246531 -0.05543291
v -0.21876898 0.13642666 0.13634273
v -0.17969897 -0.92218333 -0.13712727
v -0.17969897 -0.92609334 -0.13710725
v -0.14454897 0.02311665 -0.16849726
v -0.21496733 0.47489625 -0.30353379
v -0.14454897 0.02702665 -0.16841727
v -0.24112077 0.22848296 0.29933736
v -0.21790136 0.33471680 -0.29113498
v -0.24099913 0.71812356 -0.30507177
v -0.20464669 0.90394223 -0.00898942
v -0.22331522 0.92379576 0.17242029
v -0.21356969 -0.64675045 -0.09062415
v -0.18498278 -0.93670589 -0.13504250
v -0.14845601 -0.92153114 -0.14928360
v -0.17977896 -0.92609334 -0.13707726
v -0.17968898 -0.93390334 -0.13707726
v -0.22926600 -0.54529959 -0.07383553
v -0.16270071 -0.40467477 0.01974894
v -0.15870842 -0.35399002 -0.10198921
v -0.19100402 -0.26929194 -0.02171342
v -0.14458898 0.02702665 -0.16832726
v -0.14454897 0.03093665 -0.16832726
v -0.17969897 -0.92999333 -0.13709725
v -0.17972898 -0.92999333 -0.13707726
v -0.26213259 0.21296741 -0.18354958
v -0.22994506 0.07314938 -0.00796778
v -0.17969897 -0.93263334 -0.13707726
v -0.18422893 0.25707445 -0.22258174
v -0.25110772 0.55225366 0.28960314
v -0.10512571 0.49151018 0.31032437
v -0.17579897 -0.94171333 -0.13855726
v -0.14844897 0.25373662 -0.22301728
v -0.18713440 0.75602514 -0.32427099
v -0.30951470 0.83050686 -0.29366577
v -0.22380017 0.92538631 -0.25539753
v -0.17168392 0.92078191 -0.08838413
v -0.11207115 0.92672443 -0.23052838
v -0.17969897 -0.93390334 -0.13707726
v -0.17956811 -0.94404894 -0.13707982
v -0.12893768 -0.95643485 -0.15666538
v -0.12906899 -0.95734334 -0.15661725
v -0.14169601 -0.95685565 -0.15172121
v -0.15235896 -0.92851335 -0.05895726
v -0.15229899 -0.93390334 -0.05895726
v -0.13651899 -0.38312334 -0.12536725
v -0.08273150 -0.57632911 -0.05682676
v -0.13673554 -0.39090741 -0.12536681
v -0.12167805 -0.41026869 -0.12873131
v -0.13672899 -0.39073333 -0.12536725
v -0.12770002 -0.89350861 -0.06882957
v -0.13129370 -0.29727924 0.02382249
v -0.14134836 0.01308963 -0.17362210
v -0.17492464 -0.09198236 -0.00792306
v -0.16185993 -0.06070733 -0.15127602
v -0.12891898 -0.96124333 -0.15665725
v -0.12902898 -0.96124333 -0.15661725
v -0.14202581 0.03169101 -0.17207313
v -0.14454897 0.03131664 -0.16832726
v -0.14454897 0.03093665 -0.16833726
v -0.10302284 0.09649578 0.08275017
v -0.15235896 -0.93781334 -0.05891726
v -0.15940197 0.55560100 0.32164383
v -0.16397017 0.95503706 0.03169069
v -0.19058764 0.90401959 0.06603729
v -0.15235896 -0.93390334 -0.05893726
v -0.14447026 0.95413965 -0.14432989
v -0.18252434 0.97538817 0.19217969
v -0.14752480 -0.93306243 -0.06081099
v -0.12301563 -0.97460407 -0.07046399
v -0.09766897 -0.96906334 -0.07999726
v -0.14250527 -0.89182991 -0.14862679
v -0.15233897 -0.92999333 -0.05895726
v -0.10159354 -0.96515441 -0.07848990
v -0.15235896 -0.92999333 -0.05894726
v -0.10938898 -0.91827333 -0.16441727
v -0.05711645 -0.76337975 -0.09324975
v -0.10180498 -0.89171511 -0.16749783
v -0.13672379 -0.39085230 -0.12536702
v -0.05749573 -0.40811363 0.09954996
v -0.12355515 -0.37777060 -0.13973157
v -0.10415425 0.23510601 0.30873829
v -0.14454897 0.25358665 -0.22300725
v -0.14888318 0.25363302 -0.22293885
v -0.14788273 0.02901289 -0.16213375
v -0.10938898 -0.91636336 -0.16442727
v -0.13795558 0.09822497 -0.04990243
v -0.09723540 0.25142458 -0.23930775
v -0.14139619 0.07040109 -0.17071411
v -0.10944892 -0.87920779 -0.07526749
v -0.14368898 0.25358665 -0.22301728
v -0.13884000 0.25005195 -0.22309873
v -0.14454897 0.25361666 -0.22301728
v -0.10157897 -0.96515334 -0.07849726
v -0.03065876 -0.88357049 -0.11256360
v -0.09376898 0.21061665 0.30864275
v -0.08380272 -0.97315025 -0.17301935
v -0.10157897 -0.96124333 -0.07850726
v -0.10163898 -0.96124333 -0.07848726
v -0.12960269 0.81569338 -0.30882546
v -0.07351685 0.93216246 0.17981233
v -0.06726740 -0.88763463 -0.18159615
v -0.09952618 0.91626823 -0.04494293
v -0.16286461 0.91708934 0.27077007
v -0.02062854 0.96890867 0.21307537
v -0.10774990 0.89704913 0.13559279
v -0.10938898 -0.92218333 -0.16439725
v -0.10167897 -0.95734334 -0.07848726
v -0.10932898 -0.92218333 -0.16442727
v -0.11363764 -0.94704175 -0.16262828
v -0.10456032 -0.92919266 -0.16621892
v -0.01180358 -0.87748230 0.10916373
v -0.10938898 -0.92609334 -0.16438726
v -0.10936898 -0.91827333 -0.16442727
v -0.13672899 -0.38702333 -0.12524725
v -0.12462736 -0.60186046 -0.13667746
v -0.13662899 -0.38702333 -0.12536725
v 0.05463917 -0.47300029 0.04260423
v -0.09386940 -0.41262612 -0.14048415
v -0.04970808 -0.41552782 -0.04311633
v -0.09525155 -0.29285410 -0.16392978
v -0.22528665 0.17038670 -0.09457359
v -0.12167493 -0.08287153 0.06526228
v -0.11990864 -0.92968202 -0.16027476
v -0.08985898 0.20671664 0.30826274
v -0.08594897 0.20660664 0.30822274
v -0.14842662 0.14772138 -0.06618129
v -0.09376898 0.20671664 0.30822274
v -0.09383508 0.20667738 0.30825996
v -0.08985898 0.20664664 0.30822274
v -0.12509693 0.63597614 0.26501316
v -0.07813898 0.89421666 -0.10191726
v -0.07813898 0.89030665 -0.10190726
v -0.08204897 0.88639665 -0.10181726
v -0.09668569 0.84700012 0.27742249
v -0.08329363 0.89923793 -0.10185068
v -0.09710594 0.76460284 0.30809781
v -0.14879104 0.91422725 -0.14402930
v -0.07459023 0.90115297 -0.10636493
v -0.08227404 0.88632852 -0.10182248
v -0.07813898 0.88639665 -0.10188726
v -0.06873137 0.90689999 -0.10595173
v -0.08313096 0.92125213 0.08448636
v -0.04795090 0.92028767 -0.23828378
v -0.07629378 0.88454759 -0.11749118
v 0.04705736 0.90356290 0.13980465
v 0.07447816 -0.74242258 0.13521704
v 0.02527719 -0.59926897 0.05825495
v -0.06176384 -0.54333007 0.11928847
v 0.03932640 -0.77127498 0.17827667
v 0.00388102 -0.88462335 0.08947274
v -0.02674215 -0.97141147 -0.10821741
v -0.15273392 0.09406334 -0.13841191
v 0.07474495 0.15896255 -0.13240628
v -0.06059491 0.56572890 0.31186140
v -0.07807898 0.89030665 -0.10192726
v -0.07813898 0.89485663 -0.10192726
v -0.08174975 0.63078058 0.31137350
v -0.07808200 0.88636899 -0.10191510
v -0.04301315 0.79088533 0.33999076
v -0.07812898 0.89421666 -0.10192726
v -0.00286533 0.90689760 -0.01308691
v -0.09851286 0.93491626 0.24639064
v -0.06434517 0.94486964 0.03553638
v 0.00388102 -0.87921333 0.08952274
v -0.05831909 -0.97133058 -0.18344235
v -0.04454458 -0.93972880 0.26151001
v 0.06642246 -0.84216219 0.14412707
v 0.08546180 -0.94533312 0.08306675
v 0.12003173 -0.29272687 0.02364689
v -0.09893952 -0.18267392 -0.14369142
v -0.10625032 -0.08507293 -0.14943241
v -0.05821170 0.85400224 -0.29081059
v 0.00388652 -0.87531275 0.08954641
v -0.01964516 0.92535985 0.26926687
v 0.00968061 -0.89903963 0.08185412
v -0.01400211 -0.90114897 0.11906832
v 0.00395102 -0.87531334 0.08947274
v 0.00425532 -0.87480468 0.08904506
v 0.01034464 -0.96231276 0.04828301
v 0.04755535 -0.89442652 0.17179899
v 0.06612206 -0.85243344 0.14439844
v 0.00388102 -0.88312334 0.08948274
v 0.08916413 -0.41255957 0.23450525
v -0.02511404 -0.77284914 0.12704554
v 0.00392957 -0.50420284 0.03076860
v 0.05967550 0.11707605 -0.06948788
v 0.10154102 -0.43781334 0.21143273
v 0.06248102 -0.12531336 0.09342274
v 0.06248102 -0.12724335 0.09338274
v 0.06250102 -0.12531336 0.09338274
v 0.06248102 -0.12140336 0.09350274
v -0.08469215 0.20664166 0.30839688
v 0.10865483 0.47283801 0.30686685
v -0.03254102 0.66553974 0.31049654
v -0.13698670 0.78527099 -0.35223433
v 0.02703970 0.87946212 0.29428908
v 0.00250371 0.92494535 -0.15171513
v 0.00160887 0.96335763 -0.08200186
v -0.05666816 0.96458858 0.11555129
v 0.06406132 0.96015584 -0.21870287
v 0.00389102 -0.88312334 0.08947274
v 0.00392102 -0.87921333 0.08947274
v -0.03880486 -0.65017426 0.14407113
v 0.02326150 -0.63810939 0.19745287
v 0.03088452 -0.77627790 0.05668794
v 0.00932122 -0.52437329 0.19465090
v -0.00392610 -0.48467678 0.03869658
v 0.10368667 -0.41705078 0.06214716
v 0.02055840 -0.42082855 0.00590344
v 0.14977702 -0.43633285 0.14828962
v 0.08927033 -0.46650559 0.24567695
v 0.04104336 -0.47112188 0.03108679
v 0.06813000 -0.42117238 0.03756265
v 0.10103130 -0.44076535 0.27396351
v 0.03257655 -0.96508259 0.28249347
v 0.06635103 -0.84796333 0.14416274
v 0.06638102 -0.84796333 0.14411274
v 0.06637102 -0.84406334 0.14416274
v 0.06258103 -0.11749335 0.09338274
v 0.16622314 0.10644320 0.20291534
v -0.09127445 0.20227689 0.28506216
v -0.13468598 0.41051009 -0.31560043
v 0.14425281 0.25441122 -0.27213421
v 0.04389771 0.53475863 0.31632900
v 0.07760908 0.92287773 0.26577428
v 0.06099664 0.94376332 -0.05900577
v 0.11678293 0.73774403 0.30674899
v 0.06638102 -0.85187334 0.14408273
v 0.07659035 -0.71292990 0.13207005
v 0.07091382 -0.85052878 0.13842705
v 0.09121318 -0.77926570 0.11377422
v 0.06265009 -0.83539653 0.14890152
v 0.06638102 -0.84292334 0.14416274
v 0.09567655 -0.85457510 0.10711682
v 0.06247079 -0.46514869 0.04650049
v 0.10154134 -0.43384901 0.21056119
v 0.10116103 -0.42999333 0.21056274
v 0.06246926 -0.46509525 0.04647601
v 0.05128102 -0.46906334 0.03869274
v 0.05466498 -0.47290617 0.04259739
v 0.06266095 -0.46511874 0.04665248
v 0.02553108 -0.27959213 0.14982849
v 0.06253324 -0.11680007 0.09349566
v 0.03199288 -0.16161436 0.12908760
v 0.06628671 -0.12097303 0.08638342
v -0.02322271 -0.08366802 0.11572573
v 0.04699253 -0.13840440 0.12200359
v 0.05864269 -0.08940694 0.15769376
v 0.09250404 -0.09257399 0.12375742
v 0.07362807 0.07820308 0.17408673
v -0.12606893 0.10966017 0.20808616
v 0.09724647 0.09040136 0.13484094
v 0.06750176 0.65869308 0.31528544
v 0.10667808 0.54231179 0.31160048
v 0.19362949 0.73502493 -0.33075500
v 0.18693328 0.79959661 -0.32335863
v 0.08779009 0.84669775 0.34182915
v 0.07772690 0.88304043 0.08046834
v 0.07091925 0.89404655 -0.26308623
v 0.03251036 0.96658677 0.06541606
v 0.07293322 0.94554812 -0.10954135
v 0.06638102 -0.84406334 0.14415275
v 0.10540141 -0.77474600 0.09454269
v 0.21792476 0.40182060 -0.28909746
v 0.09032160 -0.61489898 0.11190952
v 0.21856780 -0.50655562 0.23058857
v 0.10154102 -0.43390334 0.21058273
v 0.12004331 -0.36978129 0.04313524
v 0.17069829 -0.43842369 0.30102617
v 0.11562810 -0.17870530 -0.00645751
v 0.06254102 -0.12140336 0.09338274
v 0.11812966 -0.17980102 0.07952683
v 0.11968056 -0.37932554 0.21488762
v 0.18129170 -0.14129421 0.14314811
v 0.14403178 0.06102680 0.15007716
v 0.10482334 0.63251394 0.29970902
v 0.10540102 -0.43781334 0.20275272
v 0.10154102 -0.43390334 0.21056274
v 0.08774419 0.90771121 0.07246555
v 0.07445249 0.89682525 -0.13020444
v 0.11218284 0.90614921 0.13275546
v 0.13111150 0.90119910 -0.12597165
v 0.09190148 0.93501383 0.19460170
v 0.10566832 -0.43788475 0.20216510
v 0.12083214 -0.51250368 0.18647811
v 0.11233790 -0.08650136 0.01296142
v 0.15702704 -0.25345129 0.01235832
v 0.14909762 0.11480358 0.00284043
v 0.14861743 0.07942595 0.04869355
v -0.09768701 0.23153201 -0.22269219
v 0.18434785 0.30521458 -0.27867422
v 0.07398669 0.88964492 -0.00209739
v 0.42174101 0.24577664 -0.00426726
v 0.10035731 0.91267943 0.33153370
v 0.12639731 0.94105971 0.29841629
v 0.18857974 0.12508965 0.25480023
v 0.15996596 -0.08452584 -0.01265485
v 0.17098273 0.19322048 0.29765409
v 0.16400766 0.08327708 -0.00710094
v 0.20428260 0.15506743 0.25630081
v 0.09590837 0.40998927 -0.31648955
v 0.08961150 0.19099772 -0.18804829
v 0.21171479 0.16606227 -0.16189115
v 0.12106340 0.63060695 0.26557514
v 0.18105781 0.91451019 -0.05041292
v 0.15847199 0.90538019 -0.26603663
v 0.14491700 0.97019631 0.06382310
v 0.20990553 0.16034335 -0.10543913
v 0.20098104 -0.21979791 0.12067962
v 0.18024363 0.05376408 0.04921585
v 0.36698750 0.19889514 -0.03561486
v 0.26637787 0.28653419 0.29279074
v 0.29608291 0.40912360 -0.29429284
v 0.19499554 0.63941741 0.25535503
v 0.21560176 0.68712199 -0.31969553
v 0.19884571 0.95969552 0.08335111
v 0.18601285 0.83385211 0.32887435
v 0.28069592 0.89281505 0.11464502
v 0.21274468 0.87052190 0.23465191
v 0.23826101 0.91524667 -0.10582726
v 0.23435102 0.91764665 -0.10571726
v 0.16843279 0.94283384 -0.08929146
v 0.33971101 0.17546664 -0.06676726
v 0.33969101 0.17546664 -0.06286726
v 0.20754053 0.90522456 0.31420875
v 0.36524117 0.19508129 -0.05635068
v 0.32035533 0.23827188 -0.24082901
v 0.23503944 -0.40729240 0.17299215
v 0.19561759 -0.36157322 0.23936978
v 0.28411093 0.14985846 0.02114731
v 0.23761298 0.12531640 -0.01985407
v 0.23400016 -0.23942502 0.04243158
v 0.26787198 0.19362573 0.27405214
v 0.15555827 -0.09015047 0.02794483
v 0.33982119 0.17560168 -0.05597198
v 0.33873028 0.17104383 -0.06964689
v 0.25528902 0.14078481 0.19905418
v 0.31065083 0.20539331 -0.20095445
v 0.26540059 0.46841767 0.28938234
v 0.22578374 0.57727414 0.26318651
v 0.24163930 0.72613913 0.27829021
v 0.14128159 0.88369113 0.00926853
v 0.19958539 0.90584928 0.13763665
v 0.23444827 0.91935784 -0.10612730
v 0.21696196 0.88593888 0.06400874
v 0.19782393 0.91593707 0.22143793
v 0.33586898 0.88627398 0.07734127
v 0.36714458 0.19890851 -0.05523164
v 0.33976102 0.17546664 -0.07457726
v 0.33979103 0.17546664 -0.07848726
v 0.33616835 0.15938498 -0.13884301
v 0.32081383 0.17138824 0.23652376
v 0.33974102 0.17546664 -0.07067726
v 0.34288478 0.16563158 0.13635248
v 0.33967102 0.17546664 -0.05895726
v 0.36395419 0.61666179 0.17022948
v 0.20815220 0.51286864 -0.32721254
v 0.24070126 0.88448983 -0.17129344
v 0.24179302 0.88942534 -0.02960691
v 0.27492273 0.86913723 -0.20596796
v 0.23428103 0.91764665 -0.10973726
v 0.23435102 0.91768664 -0.10582726
v 0.23429920 0.91751075 -0.11038488
v 0.23306720 0.92364526 -0.07440201
v 0.24279530 0.90166920 -0.26604390
v 0.18716374 0.92044342 -0.19447301
v 0.23448917 0.93897587 -0.13096571
v 0.23435102 0.91764665 -0.10582726
v 0.29768065 0.14691216 0.19504550
v 0.36701101 0.19889665 -0.03942726
v 0.34016234 0.17556684 -0.00976752
v 0.26181000 0.50076967 0.32986942
v 0.23645079 0.55016571 0.28474092
v 0.25036621 0.52161455 -0.28993481
v 0.24847732 0.84741437 -0.29262546
v 0.34155667 0.44002181 0.25286862
v 0.32049057 0.87442577 -0.17056951
v 0.27367947 0.86045533 -0.00580533
v 0.27303988 0.61179799 0.23346436
v 0.30951917 0.72220504 -0.30999717
v 0.26129365 0.90873188 0.03976963
v 0.24478593 0.91155708 -0.13189924
v 0.28333291 0.88898975 0.20567156
v 0.28720146 0.86351085 -0.06999964
v 0.37151119 0.19516106 0.16303603
v 0.31919900 0.28697017 0.26806751
v 0.36706102 0.19889665 -0.04723726
v 0.36716101 0.19893664 -0.05114726
v 0.36716101 0.19895664 -0.04723726
v 0.36709103 0.19889665 -0.05114726
v 0.36332408 0.24764460 0.22931080
v 0.36215419 0.17490634 -0.06549978
v 0.33975589 0.17565626 -0.04146459
v 0.36956975 0.21728761 0.16252290
v 0.41403082 0.22116758 -0.03204891
v 0.33982101 0.17552665 -0.07067726
v 0.37107101 0.19867665 -0.05504726
v 0.34915975 0.33480379 -0.26511911
v 0.37498102 0.24970664 0.17931274
v 0.23648965 0.30917817 -0.24973005
v 0.33982101 0.17547664 -0.07848726
v 0.33982101 0.17549664 -0.07457726
v 0.39261407 0.29530269 0.22832565
v 0.36948836 0.23969512 -0.20221473
v 0.33982101 0.17556664 -0.06286726
v 0.34129772 0.55652654 0.23835136
v 0.37477425 0.20323771 -0.15653393
v 0.33591101 0.88639665 0.08266274
v 0.33592510 0.88685936 0.08179794
v 0.33982101 0.17554665 -0.06676726
v 0.33704525 0.90742546 0.09612404
v 0.33599934 0.88611025 0.08435410
v 0.33982101 0.17546664 -0.08200726
v 0.36704102 0.19889665 -0.04332726
v 0.36635399 0.19841769 -0.10521270
v 0.39263922 0.21963887 -0.01836656
v 0.43333903 0.24653547 0.14828664
v 0.41810334 0.22233608 0.09337704
v 0.37489101 0.24968664 0.18322273
v 0.36716101 0.19898665 -0.04332726
v 0.37498558 0.24963972 0.17529435
v 0.37497100 0.24968664 0.17541274
v 0.41978267 0.22623505 0.08489191
v 0.42151660 0.24591561 0.03751966
v 0.36716101 0.19891664 -0.05504726
v 0.30765852 0.52913475 -0.29102838
v 0.33484524 0.63455462 0.22293147
v 0.35968250 0.77385807 0.29383519
v 0.31653357 0.84382099 0.24422325
v 0.39442101 0.22233665 -0.02770726
v 0.39451101 0.22235665 -0.03161726
v 0.39451101 0.22237664 -0.02770726
v 0.39446101 0.22233665 -0.03161726
v 0.33582100 0.88639665 0.07775274
v 0.33589101 0.88639665 0.08166274
v 0.33591101 0.88637668 0.08166274
v 0.35279670 0.87053746 0.02827326
v 0.33593100 0.89016384 0.07074955
v 0.39376444 0.86097038 0.00883642
v 0.37969795 0.86587077 0.16171399
v 0.37493101 0.24968664 0.17931274
v 0.36716101 0.19900665 -0.03942726
v 0.41803101 0.22233665 0.08556274
v 0.39439103 0.22233665 -0.02379726
v 0.39451101 0.22239664 -0.02379726
v 0.38553503 0.20027398 -0.06961436
v 0.37498102 0.24968664 0.17541274
v 0.39451101 0.22241664 -0.01989726
v 0.37504861 0.24957719 0.17553158
v 0.52624184 0.30266291 0.04842393
v 0.42992371 0.24529056 -0.00819544
v 0.38777426 0.39736229 -0.21240507
v 0.39435741 0.22235745 -0.03565434
v 0.39451101 0.22233665 -0.03551726
v 0.37829170 0.57358551 0.22399786
v 0.31197089 0.78326416 -0.31933573
v 0.39575708 0.47403222 0.22534101
v 0.40359807 0.49485108 -0.24519828
v 0.36476278 0.58426243 0.15619639
v 0.40275347 0.52487677 0.18787277
v 0.42225087 0.23091005 -0.04373530
v 0.36185086 0.70214313 0.23932809
v 0.40380791 0.74993140 -0.27513114
v 0.41677609 0.22189407 -0.00019696
v 0.40736169 0.82289964 -0.30120322
v 0.31660435 0.88642794 -0.27244809
v 0.33134401 0.92506033 -0.03554380
v 0.37320074 0.88753748 0.14237772
v 0.41626319 0.22200018 0.08411500
v 0.41794100 0.22229664 0.08166274
v 0.41794100 0.22232664 0.07775274
v 0.41800103 0.22233665 0.08166274
v 0.42178100 0.24577664 -0.00817726
v 0.41189331 0.23921381 -0.17190304
v 0.39441589 0.22228639 0.01604155
v 0.41794100 0.22233665 0.07587274
v 0.43837017 0.24674185 -0.00121511
v 0.43617985 0.29545090 -0.09016692
v 0.42190102 0.24577664 -0.01207726
v 0.42185101 0.24579665 -0.00817726
v 0.43220532 0.44237110 -0.20436320
v 0.39453101 0.22233665 -0.03551726
v 0.44980145 0.30847749 0.02579371
v 0.44138375 0.69392902 0.17317836
v 0.39615312 0.63010854 -0.26476511
v 0.46692827 0.61902118 0.14497083
v 0.42144072 0.62314731 0.22185224
v 0.36921719 0.78699201 0.24872670
v 0.42492434 0.72688371 0.26327908
v 0.40110931 0.87898171 -0.27309868
v 0.41937497 0.24196897 0.00617322
v 0.41823947 0.67274100 0.22244824
v 0.38774949 0.87786776 -0.18097368
v 0.42185089 0.66760433 0.22231416
v 0.42185101 0.66764665 0.22229274
v 0.46156779 0.73772222 -0.21686074
v 0.44275156 0.61035579 0.09977169
v 0.52318102 0.71453083 -0.04112709
v 0.52339864 0.71469307 -0.03603126
v 0.39285299 0.88760155 -0.07168705
v 0.52329105 0.71452665 -0.06676726
v 0.41796100 0.22233665 0.07775274
v 0.42184624 0.24577899 -0.01222728
v 0.42185101 0.24577664 -0.01207726
v 0.40923330 0.23652153 0.15831834
v 0.49245089 0.33131272 0.03443806
v 0.44279587 0.51397717 0.01571956
v 0.45736483 0.45098421 -0.00996097
v 0.45097837 0.46356624 0.15061568
v 0.44763246 0.46618822 -0.10961933
v 0.43456298 0.51149613 0.11006276
v 0.44941768 0.45387205 0.09876708
v 0.43689984 0.62488431 0.17306978
v 0.44541499 0.67260575 0.22122155
v 0.49736074 0.71524340 -0.17211197
v 0.46221232 0.51246279 -0.04884384
v 0.47854832 0.45950004 -0.12411793
v 0.42186674 0.67156518 0.22232570
v 0.42194101 0.67155665 0.22228275
v 0.42187101 0.66764665 0.22228275
v 0.42479101 0.66764665 0.21838275
v 0.37028036 0.86124313 0.21236412
v 0.42177519 0.86665612 0.13491188
v 0.46419623 0.77176613 -0.25749496
v 0.41765222 0.82559103 0.17300507
v 0.47248498 0.84028590 -0.24272341
v 0.41884798 0.86337835 0.06322696
v 0.52849323 0.42713711 0.05302791
v 0.45893192 0.78994697 0.23141681
v 0.47611970 0.57681710 -0.05386420
v 0.45720190 0.43793923 0.04129908
v 0.46467194 0.54449600 -0.15453109
v 0.50586694 0.55738473 -0.13018858
v 0.45458069 0.56108588 0.07375675
v 0.52326059 0.71452588 -0.06092126
v 0.48297393 0.61589396 -0.16470738
v 0.50674331 0.59730428 0.05765632
v 0.50778830 0.37778702 0.02192766
v 0.48346099 0.72189111 0.16247109
v 0.45743683 0.71719396 0.22227903
v 0.46233505 0.79958451 0.18161111
v 0.49137655 0.84898323 0.15069771
v 0.54885525 0.42928016 -0.00436179
v 0.52331102 0.71452665 -0.07067726
v 0.50446081 0.62081546 0.12068556
v 0.47461635 0.77078158 -0.21375053
v 0.52349007 0.71440387 -0.02696384
v 0.56799281 0.76701695 0.10986210
v 0.50266510 0.79171717 -0.20394585
v 0.47979736 0.80103868 -0.16503215
v 0.48127350 0.86339414 -0.13565068
v 0.52556229 0.70268536 0.11170165
v 0.48461124 0.85846019 0.05300313
v 0.50711572 0.54936957 -0.09224790
v 0.41244510 0.86926711 -0.12427279
v 0.52439845 0.82359815 -0.07412061
v 0.52715522 0.71457881 -0.03101544
v 0.52341104 0.71461666 -0.03161726
v 0.52342260 0.71474957 -0.04732864
v 0.52341098 0.71468556 -0.05721865
v 0.52220213 0.71066862 -0.08101307
v 0.52333105 0.71452665 -0.07457726
v 0.49965733 0.82477444 0.05712332
v 0.48148221 0.85550904 0.10278849
v 0.54334074 0.29953936 -0.00802833
v 0.52518004 0.71501034 -0.13754955
v 0.52335107 0.71452665 -0.07848726
v 0.52341104 0.71458668 -0.07457726
v 0.53874809 0.71614534 -0.06877918
v 0.52331668 0.71459466 -0.03300849
v 0.52265698 0.71105832 -0.05769959
v 0.52338105 0.71452665 -0.08239726
v 0.52341104 0.71456665 -0.07848726
v 0.52341187 0.71465039 -0.06422936
v 0.52322060 0.71452498 -0.05333173
v 0.52340102 0.71452665 -0.02770726
v 0.52341104 0.71452665 -0.02700726
v 0.54300213 0.71365726 -0.01833476
v 0.52036959 0.76974219 0.16754663
v 0.52341104 0.71453667 -0.02770726
v 0.52900630 0.77024907 -0.13774358
v 0.52120781 0.81604356 0.09069989
v 0.55459422 0.71747619 0.06223074
v 0.57288021 0.71250176 0.07825640
v 0.53026652 0.77635139 0.03276490
v 0.56794304 0.80190158 0.06011680
f 4 7 10
f 6 4 10
f 6 12 4
f 12 7 4
f 6 10 41
f 15 13 16
f 17 15 16
f 18 44 19
f 16 13 20
f 17 19 15
f 44 13 19
f 23 22 20
f 15 19 13
f 44 18 5
f 23 17 22
f 17 16 22
f 5 18 20
f 18 23 20
f 18 19 23
f 19 17 23
f 22 16 20
f 30 24 8
f 28 8 24
f 28 31 8
f 46 30 8
f 46 8 48
f 7 33 1
f 1 34 2
f 33 3 34
f 35 10 7
f 41 10 35
f 12 47 40
f 6 41 12
f 29 12 41
f 29 41 12
f 14 12 41
f 11 12 14
f 11 47 12
f 14 13 44
f 14 43 13
f 44 24 11
f 11 25 47
f 13 5 20
f 43 5 13
f 62 24 57
f 25 11 62
f 57 24 30
f 28 56 31
f 31 58 8
f 31 64 58
f 49 50 51
f 9 52 50
f 49 39 50
f 40 7 12
f 1 33 34
f 60 38 40
f 39 38 9
f 33 7 51
f 38 39 7
f 39 9 50
f 7 39 49
f 33 51 3
f 3 52 34
f 51 52 3
f 52 9 34
f 7 49 51
f 2 7 1
f 7 2 35
f 38 74 9
f 9 2 34
f 74 2 9
f 37 35 2
f 50 52 51
f 38 7 40
f 77 21 25
f 2 45 61
f 47 25 21
f 41 37 43
f 47 21 40
f 14 44 11
f 14 41 43
f 5 36 28
f 36 5 43
f 43 55 36
f 24 62 11
f 28 27 56
f 57 26 73
f 26 30 46
f 58 48 8
f 25 62 42
f 46 48 89
f 63 74 60
f 99 63 60
f 60 74 38
f 59 74 63
f 45 2 74
f 40 21 60
f 37 41 35
f 77 25 54
f 2 61 37
f 43 37 55
f 28 36 27
f 36 55 27
f 55 79 27
f 71 27 32
f 26 57 30
f 56 27 71
f 24 5 28
f 82 65 66
f 64 31 67
f 68 69 70
f 69 71 70
f 93 57 73
f 72 65 82
f 73 26 89
f 73 89 91
f 46 89 26
f 31 56 67
f 92 64 67
f 58 64 92
f 74 59 45
f 45 59 76
f 99 60 130
f 60 21 77
f 61 45 102
f 42 77 54
f 25 42 54
f 55 37 61
f 55 102 87
f 102 55 61
f 88 42 62
f 27 79 32
f 79 78 32
f 57 88 62
f 71 32 53
f 71 53 66
f 72 81 69
f 80 70 66
f 56 71 81
f 70 71 66
f 72 69 68
f 69 81 71
f 65 80 66
f 53 82 66
f 88 57 93
f 82 56 81
f 89 48 58
f 82 81 72
f 65 84 80
f 67 82 103
f 73 94 93
f 94 73 91
f 63 101 59
f 75 59 101
f 76 59 75
f 77 130 60
f 45 76 102
f 83 42 122
f 79 55 132
f 79 132 78
f 42 88 122
f 32 78 53
f 68 84 72
f 80 84 68
f 65 72 84
f 70 80 68
f 53 124 82
f 89 58 92
f 56 82 67
f 105 67 103
f 89 92 85
f 67 90 92
f 93 94 109
f 107 85 92
f 106 90 67
f 113 86 97
f 113 96 112
f 117 118 101
f 101 118 75
f 101 63 120
f 77 42 128
f 87 132 55
f 53 78 124
f 44 5 24
f 122 88 197
f 103 82 124
f 67 105 106
f 85 91 89
f 91 85 107
f 96 113 115
f 113 112 86
f 115 137 96
f 98 112 96
f 98 96 137
f 130 77 128
f 120 63 99
f 101 120 284
f 99 188 120
f 119 76 75
f 76 119 192
f 102 76 192
f 87 102 192
f 78 104 124
f 172 83 122
f 78 132 133
f 93 109 198
f 93 197 88
f 134 173 92
f 109 94 91
f 90 134 92
f 91 107 110
f 114 112 98
f 113 97 115
f 86 112 111
f 115 111 137
f 111 115 97
f 86 95 97
f 100 111 112
f 118 151 154
f 117 101 284
f 117 284 159
f 75 118 131
f 119 75 170
f 42 83 128
f 119 123 192
f 168 83 172
f 87 192 132
f 197 108 262
f 108 197 198
f 105 103 124
f 198 109 91
f 93 198 197
f 90 106 174
f 134 90 174
f 106 105 174
f 135 121 142
f 138 139 140
f 95 86 111
f 137 111 100
f 97 95 111
f 112 114 100
f 148 114 98
f 98 137 116
f 137 100 116
f 143 144 145
f 98 116 163
f 98 163 189
f 127 152 151
f 153 154 151
f 154 131 118
f 249 154 159
f 127 159 154
f 144 145 160
f 152 161 151
f 117 127 151
f 159 127 117
f 162 155 156
f 152 127 155
f 153 155 154
f 164 158 151
f 118 117 151
f 158 153 151
f 164 151 161
f 152 155 162
f 165 166 146
f 167 215 247
f 188 99 453
f 130 191 99
f 169 220 167
f 171 128 83
f 142 121 149
f 192 123 225
f 122 197 196
f 297 124 104
f 172 122 196
f 133 299 78
f 299 104 78
f 173 107 92
f 110 198 91
f 149 121 135
f 107 173 199
f 176 149 135
f 177 147 135
f 166 178 146
f 145 179 160
f 136 175 129
f 180 175 136
f 180 126 211
f 100 114 148
f 184 247 185
f 116 100 217
f 163 116 217
f 186 187 178
f 166 186 178
f 150 163 216
f 156 155 153
f 190 186 177
f 190 187 186
f 155 127 154
f 189 150 223
f 158 156 153
f 156 158 164
f 119 170 123
f 154 414 131
f 75 131 170
f 143 176 144
f 191 453 99
f 188 284 120
f 130 250 191
f 130 128 250
f 385 83 168
f 165 147 177
f 132 192 293
f 196 168 172
f 293 192 225
f 187 176 178
f 202 143 145
f 145 144 194
f 132 293 133
f 124 297 266
f 108 198 200
f 227 134 268
f 124 174 105
f 176 135 147
f 174 124 266
f 107 229 110
f 201 190 179
f 190 201 176
f 157 142 232
f 176 143 202
f 149 194 177
f 186 166 177
f 203 204 205
f 149 176 202
f 194 202 145
f 166 165 177
f 149 202 194
f 144 201 179
f 201 144 176
f 176 147 146
f 178 176 146
f 142 157 213
f 176 187 190
f 160 190 177
f 194 144 160
f 177 194 160
f 179 190 160
f 203 205 177
f 145 144 179
f 147 165 146
f 177 135 234
f 213 135 142
f 234 135 213
f 232 231 207
f 182 243 208
f 212 241 210
f 183 126 214
f 148 217 100
f 98 189 148
f 163 217 216
f 150 189 163
f 150 216 285
f 218 219 204
f 203 218 204
f 217 148 315
f 251 221 247
f 222 169 185
f 169 222 220
f 220 222 221
f 222 185 221
f 167 184 169
f 315 148 189
f 139 218 259
f 139 140 218
f 185 169 184
f 204 219 205
f 154 249 414
f 188 316 284
f 184 167 247
f 250 141 191
f 149 139 138
f 293 225 320
f 227 173 134
f 305 227 268
f 173 227 226
f 219 139 205
f 198 110 300
f 200 198 300
f 229 107 199
f 229 300 110
f 224 157 232
f 149 138 259
f 149 205 139
f 232 233 236
f 228 224 207
f 224 232 207
f 213 157 206
f 232 142 149
f 228 207 235
f 314 232 149
f 149 177 205
f 234 272 177
f 237 228 235
f 157 228 237
f 157 224 228
f 207 231 235
f 157 237 206
f 237 235 206
f 206 235 231
f 213 206 231
f 234 286 272
f 231 232 213
f 175 234 252
f 175 125 234
f 243 210 241
f 175 180 278
f 136 129 209
f 136 181 180
f 210 243 211
f 126 181 214
f 126 180 181
f 183 283 182
f 126 183 182
f 183 216 333
f 285 216 183
f 216 217 334
f 167 220 215
f 217 215 334
f 185 247 221
f 220 221 251
f 334 215 251
f 220 251 215
f 286 248 238
f 249 189 223
f 150 285 223
f 162 161 152
f 315 189 249
f 162 164 161
f 156 164 162
f 250 254 253
f 453 191 254
f 289 249 159
f 159 284 289
f 246 191 141
f 170 131 384
f 141 250 253
f 254 191 246
f 245 255 253
f 250 453 254
f 141 195 246
f 254 245 253
f 254 246 245
f 245 195 255
f 245 246 195
f 233 256 236
f 141 253 255
f 255 195 141
f 171 83 385
f 168 196 385
f 123 193 225
f 225 317 320
f 236 261 232
f 299 133 293
f 104 299 297
f 358 196 262
f 262 196 197
f 262 108 200
f 278 125 175
f 199 300 229
f 226 199 173
f 265 199 226
f 138 139 259
f 139 138 140
f 263 268 134
f 134 174 263
f 263 174 230
f 266 230 174
f 259 218 203
f 266 325 230
f 286 234 240
f 140 219 218
f 269 286 238
f 261 260 270
f 260 314 270
f 177 272 259
f 203 177 259
f 261 270 232
f 256 260 261
f 219 140 139
f 270 314 213
f 286 240 248
f 234 264 240
f 270 213 232
f 236 256 261
f 275 269 271
f 273 275 271
f 248 273 276
f 276 269 238
f 182 208 277
f 234 213 252
f 264 234 125
f 129 252 209
f 252 239 209
f 252 129 175
f 273 271 276
f 279 243 241
f 279 208 243
f 212 210 277
f 279 241 212
f 182 211 126
f 136 209 181
f 180 281 278
f 278 281 282
f 243 283 211
f 180 211 281
f 182 277 210
f 208 279 277
f 243 182 283
f 242 214 181
f 212 277 279
f 211 182 210
f 283 281 211
f 247 215 217
f 315 247 217
f 247 315 251
f 355 287 288
f 349 249 289
f 291 290 258
f 383 131 414
f 284 316 289
f 170 384 291
f 384 288 292
f 244 170 291
f 290 292 287
f 258 287 355
f 290 287 258
f 233 232 314
f 123 170 193
f 294 295 296
f 317 225 193
f 196 358 418
f 298 294 302
f 321 302 296
f 303 321 296
f 226 227 305
f 325 266 297
f 230 325 263
f 286 273 272
f 259 272 328
f 236 233 314
f 256 233 236
f 273 286 275
f 276 238 248
f 260 236 314
f 256 236 260
f 275 286 269
f 328 272 273
f 269 276 271
f 213 314 252
f 259 314 149
f 273 248 240
f 252 314 257
f 257 125 239
f 125 278 239
f 278 209 239
f 209 278 282
f 282 181 209
f 313 339 274
f 313 338 339
f 242 181 282
f 332 283 333
f 333 334 433
f 291 384 292
f 290 291 292
f 287 292 288
f 384 355 288
f 349 315 249
f 383 459 131
f 244 258 355
f 244 291 258
f 386 128 171
f 170 244 193
f 250 128 386
f 414 249 223
f 318 303 295
f 320 357 299
f 298 319 294
f 320 299 293
f 199 265 304
f 307 321 318
f 294 296 302
f 301 307 323
f 307 318 323
f 335 262 306
f 321 307 302
f 302 199 298
f 303 318 321
f 304 300 307
f 300 199 302
f 301 319 304
f 295 303 296
f 319 323 294
f 302 307 300
f 318 295 323
f 295 294 323
f 323 319 301
f 319 298 304
f 385 196 418
f 200 300 306
f 304 298 199
f 306 300 304
f 304 307 301
f 265 305 326
f 305 268 362
f 327 274 336
f 305 265 226
f 273 264 328
f 328 314 259
f 328 264 314
f 240 264 273
f 239 252 257
f 314 264 257
f 264 125 257
f 333 283 183
f 283 332 281
f 216 334 333
f 334 251 349
f 349 251 315
f 193 244 355
f 262 335 419
f 322 297 299
f 306 262 200
f 304 265 324
f 265 326 324
f 306 304 360
f 304 324 361
f 362 326 305
f 308 268 263
f 337 325 297
f 263 325 337
f 339 347 274
f 327 345 274
f 347 339 312
f 341 336 274
f 366 367 311
f 242 311 369
f 351 352 353
f 332 333 433
f 433 334 460
f 351 354 410
f 415 223 413
f 349 289 316
f 453 465 188
f 384 131 459
f 384 461 355
f 317 387 320
f 416 320 387
f 357 320 416
f 299 357 322
f 357 416 322
f 362 268 308
f 337 297 359
f 360 304 361
f 337 267 263
f 324 326 423
f 326 362 423
f 341 338 364
f 329 342 378
f 340 327 336
f 340 341 365
f 341 274 347
f 345 327 365
f 364 345 365
f 364 365 341
f 342 339 338
f 329 343 339
f 329 378 343
f 327 340 365
f 313 345 364
f 274 345 313
f 364 338 313
f 329 339 342
f 338 341 342
f 340 336 341
f 366 347 312
f 372 310 348
f 348 370 372
f 401 375 376
f 282 281 372
f 282 372 242
f 352 351 410
f 379 380 381
f 406 354 382
f 460 334 349
f 453 501 465
f 414 223 415
f 193 355 461
f 297 322 359
f 359 322 388
f 359 388 337
f 341 368 342
f 360 361 424
f 263 267 308
f 267 337 388
f 363 306 360
f 391 393 380
f 379 381 395
f 396 330 395
f 368 341 347
f 310 368 347
f 344 393 391
f 344 397 393
f 339 343 312
f 395 312 343
f 312 392 367
f 367 366 312
f 370 311 372
f 366 311 310
f 369 367 428
f 367 369 311
f 311 348 310
f 370 348 311
f 310 375 280
f 402 375 401
f 398 401 404
f 402 403 280
f 402 280 375
f 372 375 310
f 375 372 376
f 403 402 401
f 401 398 403
f 369 428 405
f 405 242 369
f 376 372 371
f 405 214 242
f 183 214 405
f 352 433 408
f 352 410 433
f 407 183 405
f 410 411 407
f 410 354 406
f 410 406 411
f 285 183 409
f 409 223 285
f 223 409 411
f 316 188 465
f 459 461 384
f 454 386 171
f 454 171 385
f 322 416 390
f 447 374 350
f 419 418 358
f 322 420 388
f 306 422 335
f 442 455 324
f 324 308 421
f 363 422 306
f 324 389 361
f 389 324 455
f 308 324 423
f 423 362 308
f 424 443 360
f 389 424 361
f 395 381 396
f 344 379 395
f 343 331 397
f 380 425 381
f 425 380 393
f 331 343 378
f 425 393 330
f 331 378 342
f 426 368 310
f 391 380 379
f 344 391 379
f 381 425 396
f 425 330 396
f 397 331 342
f 393 397 330
f 330 397 394
f 343 344 395
f 344 343 397
f 330 394 395
f 395 394 312
f 397 342 394
f 394 342 368
f 392 312 309
f 366 310 347
f 426 312 394
f 312 426 309
f 310 428 426
f 309 426 392
f 392 428 367
f 404 280 398
f 372 281 371
f 371 281 332
f 350 374 430
f 353 352 408
f 280 403 398
f 372 311 242
f 382 408 406
f 371 310 404
f 404 376 371
f 404 310 280
f 376 404 401
f 428 371 405
f 332 431 371
f 411 406 449
f 353 408 434
f 409 407 411
f 410 407 433
f 351 353 434
f 354 351 434
f 434 408 382
f 408 449 406
f 433 449 408
f 409 183 407
f 354 434 382
f 411 449 412
f 411 412 413
f 383 414 415
f 346 374 377
f 420 322 390
f 358 262 419
f 440 441 399
f 422 469 335
f 443 363 360
f 445 443 455
f 324 421 442
f 308 446 444
f 428 392 426
f 443 422 363
f 455 443 424
f 455 424 389
f 446 308 267
f 388 446 267
f 426 394 368
f 428 310 371
f 374 448 377
f 399 447 440
f 441 430 399
f 346 400 430
f 440 350 441
f 350 430 441
f 430 374 346
f 400 346 373
f 371 431 405
f 346 436 373
f 346 377 436
f 405 431 332
f 400 373 399
f 405 332 433
f 405 433 407
f 449 433 460
f 413 223 411
f 412 415 413
f 415 412 438
f 451 462 349
f 466 316 465
f 494 349 316
f 349 494 451
f 385 464 454
f 417 416 387
f 417 387 356
f 317 356 387
f 417 439 416
f 416 439 390
f 418 520 385
f 469 422 443
f 455 442 505
f 420 457 388
f 509 446 388
f 458 388 457
f 444 470 442
f 448 429 377
f 447 399 373
f 373 374 447
f 447 350 440
f 492 436 377
f 400 399 430
f 436 492 435
f 436 435 373
f 435 437 412
f 449 450 435
f 412 449 435
f 497 449 460
f 386 490 250
f 448 374 373
f 467 439 417
f 439 467 390
f 444 421 308
f 335 538 419
f 469 443 529
f 444 442 421
f 505 445 455
f 467 477 390
f 505 468 445
f 458 509 388
f 479 470 444
f 448 373 429
f 377 429 432
f 492 377 432
f 472 435 492
f 373 450 495
f 193 356 317
f 472 437 435
f 495 450 449
f 462 460 349
f 452 497 460
f 438 412 437
f 452 460 462
f 437 473 438
f 452 415 438
f 452 462 451
f 438 473 452
f 452 383 415
f 453 490 501
f 466 465 501
f 490 453 250
f 193 461 475
f 535 536 417
f 480 420 390
f 335 469 538
f 457 420 480
f 443 445 529
f 468 505 522
f 442 508 505
f 445 485 530
f 468 485 445
f 483 484 527
f 486 487 499
f 530 545 445
f 442 470 508
f 429 373 491
f 450 373 435
f 429 492 432
f 429 491 492
f 492 495 472
f 472 495 437
f 449 497 495
f 437 495 473
f 452 473 497
f 473 495 497
f 459 383 494
f 459 463 461
f 471 316 466
f 316 471 494
f 496 461 463
f 454 490 386
f 461 496 475
f 356 502 535
f 356 535 417
f 467 417 536
f 520 418 478
f 418 419 619
f 390 591 480
f 506 444 509
f 509 444 446
f 488 480 482
f 482 481 509
f 457 480 488
f 521 445 545
f 506 479 444
f 506 508 479
f 458 457 488
f 482 509 488
f 528 469 529
f 470 479 508
f 507 526 530
f 509 458 488
f 495 491 373
f 492 491 495
f 512 499 513
f 459 494 500
f 494 383 451
f 493 494 471
f 451 383 452
f 516 486 499
f 466 514 471
f 463 459 515
f 499 487 518
f 427 454 464
f 520 427 464
f 476 427 520
f 503 467 536
f 464 385 520
f 477 467 503
f 477 503 542
f 390 477 504
f 543 418 619
f 390 504 591
f 529 445 521
f 538 469 528
f 524 507 525
f 522 485 468
f 505 541 522
f 508 506 481
f 507 530 527
f 531 524 525
f 484 531 525
f 524 526 507
f 526 524 531
f 526 545 530
f 484 525 507
f 484 507 527
f 531 484 483
f 545 526 483
f 526 531 483
f 485 522 527
f 530 485 527
f 528 529 521
f 500 515 459
f 515 496 463
f 454 427 561
f 563 454 561
f 356 475 502
f 193 475 356
f 476 520 537
f 427 476 561
f 589 537 520
f 502 536 535
f 589 520 478
f 536 542 503
f 477 625 504
f 477 542 590
f 592 482 480
f 538 528 629
f 481 506 509
f 629 528 523
f 483 527 545
f 522 521 545
f 541 508 544
f 481 482 546
f 528 521 523
f 527 522 545
f 550 551 552
f 551 550 553
f 532 494 493
f 532 500 494
f 499 498 556
f 499 518 498
f 559 486 516
f 560 511 578
f 475 496 549
f 501 514 466
f 548 555 474
f 512 564 565
f 512 513 564
f 496 515 549
f 578 511 489
f 475 539 502
f 512 516 499
f 536 502 542
f 541 505 508
f 519 590 542
f 625 477 590
f 592 480 591
f 628 538 629
f 546 482 592
f 523 540 629
f 630 547 541
f 600 541 544
f 508 481 544
f 486 559 573
f 513 499 576
f 471 514 493
f 556 555 534
f 499 556 534
f 499 514 576
f 577 533 489
f 514 517 493
f 513 576 564
f 518 568 498
f 568 518 487
f 514 499 517
f 565 564 555
f 516 512 565
f 559 516 565
f 568 487 573
f 487 486 573
f 582 554 557
f 515 500 532
f 517 532 493
f 499 534 517
f 553 550 489
f 454 563 490
f 554 549 515
f 570 501 567
f 567 501 490
f 583 552 609
f 612 584 585
f 555 576 514
f 498 568 555
f 539 475 549
f 502 569 542
f 588 511 560
f 569 519 542
f 511 553 489
f 543 589 478
f 521 547 540
f 540 523 521
f 543 478 418
f 591 504 625
f 626 543 619
f 576 555 564
f 619 419 538
f 593 594 595
f 593 596 594
f 630 541 600
f 560 551 588
f 572 598 597
f 598 572 571
f 572 575 571
f 597 598 599
f 510 597 599
f 599 598 571
f 572 574 575
f 574 481 575
f 685 546 592
f 663 547 630
f 601 572 597
f 574 600 544
f 601 574 572
f 601 597 510
f 601 510 600
f 574 601 600
f 574 544 481
f 517 548 532
f 556 498 555
f 533 577 583
f 578 489 555
f 474 609 548
f 582 557 604
f 559 555 573
f 588 551 553
f 573 555 568
f 474 605 609
f 533 605 474
f 548 517 555
f 555 559 565
f 489 533 474
f 632 606 581
f 607 595 608
f 595 607 593
f 489 550 577
f 501 570 514
f 489 474 555
f 515 532 548
f 555 514 570
f 548 557 515
f 610 585 584
f 578 555 570
f 577 552 583
f 577 550 552
f 612 562 610
f 534 555 517
f 579 593 607
f 627 611 608
f 612 668 562
f 562 582 604
f 562 668 582
f 560 578 609
f 567 637 570
f 668 554 582
f 554 515 557
f 612 604 557
f 604 612 585
f 604 585 610
f 562 604 610
f 490 561 567
f 567 561 615
f 584 612 610
f 490 563 561
f 560 552 551
f 615 561 621
f 596 617 594
f 617 596 616
f 581 606 586
f 589 476 537
f 476 621 561
f 621 476 589
f 539 569 502
f 569 539 620
f 569 620 618
f 519 618 622
f 569 618 519
f 522 541 547
f 609 605 583
f 651 592 591
f 651 591 692
f 619 538 628
f 592 651 685
f 628 626 619
f 629 653 628
f 600 510 575
f 510 599 575
f 599 571 575
f 575 481 631
f 600 575 631
f 600 631 603
f 629 540 656
f 631 481 546
f 546 685 631
f 633 634 635
f 595 627 608
f 579 596 593
f 632 633 606
f 609 570 579
f 607 611 579
f 552 560 609
f 578 570 609
f 609 638 548
f 609 579 638
f 579 611 638
f 612 557 668
f 638 668 548
f 557 548 668
f 639 627 586
f 456 654 636
f 579 616 596
f 616 579 570
f 533 583 605
f 554 668 566
f 554 566 549
f 566 539 549
f 642 640 643
f 644 615 621
f 620 623 618
f 648 621 589
f 625 590 650
f 623 622 618
f 648 589 543
f 590 519 650
f 626 648 543
f 632 634 633
f 591 625 652
f 655 657 658
f 656 653 629
f 628 653 656
f 630 600 602
f 631 685 603
f 602 663 630
f 668 581 586
f 606 633 635
f 511 588 553
f 580 587 640
f 616 570 637
f 635 665 586
f 645 627 594
f 637 624 616
f 634 665 635
f 456 643 640
f 636 643 456
f 654 666 636
f 627 639 632
f 606 635 586
f 645 594 617
f 616 645 617
f 645 558 627
f 586 627 580
f 632 668 638
f 627 654 587
f 558 645 616
f 665 639 586
f 634 639 665
f 558 624 627
f 641 624 637
f 558 616 624
f 668 586 580
f 627 587 580
f 636 667 643
f 667 636 666
f 627 624 654
f 632 638 627
f 611 627 638
f 587 654 456
f 594 627 595
f 668 632 581
f 666 654 624
f 640 587 456
f 632 639 634
f 611 607 608
f 637 567 615
f 637 644 641
f 615 644 637
f 673 641 644
f 672 623 668
f 620 539 566
f 566 668 620
f 620 668 623
f 521 522 547
f 672 675 674
f 674 660 623
f 672 674 623
f 622 623 660
f 681 658 682
f 681 655 658
f 649 519 622
f 622 660 649
f 658 657 683
f 683 684 682
f 650 519 676
f 657 684 683
f 649 676 519
f 650 655 625
f 684 677 682
f 703 655 681
f 658 683 682
f 650 684 657
f 650 657 655
f 650 676 647
f 677 684 647
f 625 655 703
f 650 647 684
f 682 677 681
f 681 677 703
f 652 625 703
f 602 603 690
f 600 603 602
f 591 652 692
f 690 603 686
f 685 692 688
f 692 685 651
f 656 540 718
f 628 656 689
f 603 685 688
f 688 686 603
f 666 642 667
f 614 624 640
f 614 640 642
f 640 624 641
f 642 643 667
f 666 614 642
f 668 580 672
f 614 666 624
f 646 640 641
f 580 640 646
f 672 646 694
f 672 580 646
f 646 641 673
f 646 673 671
f 672 694 675
f 680 673 644
f 628 689 687
f 695 680 644
f 671 673 679
f 694 671 679
f 644 659 695
f 644 621 659
f 680 679 673
f 679 670 674
f 675 694 679
f 679 674 675
f 670 697 674
f 670 679 693
f 695 659 699
f 693 697 670
f 674 697 660
f 648 659 621
f 626 659 648
f 704 688 692
f 647 703 677
f 692 652 703
f 626 687 659
f 626 628 687
f 613 646 728
f 686 688 705
f 728 646 671
f 669 646 613
f 646 669 701
f 694 646 701
f 691 694 701
f 671 694 691
f 680 696 717
f 696 680 695
f 680 717 679
f 696 695 699
f 693 679 717
f 693 700 697
f 700 660 697
f 734 707 664
f 733 661 662
f 708 649 660
f 678 699 659
f 540 547 663
f 647 676 649
f 647 649 702
f 703 647 702
f 678 659 712
f 709 659 687
f 712 659 709
f 704 692 702
f 692 703 702
f 656 714 689
f 714 656 718
f 663 718 540
f 689 712 687
f 712 689 713
f 690 686 727
f 702 742 704
f 705 688 704
f 713 689 714
f 698 734 664
f 733 720 721
f 724 725 707
f 602 690 663
f 726 716 727
f 716 690 727
f 718 663 714
f 716 714 663
f 716 663 690
f 727 686 705
f 613 701 669
f 724 730 725
f 707 731 732
f 731 707 725
f 693 717 700
f 724 729 735
f 725 736 731
f 725 730 736
f 664 737 698
f 734 738 661
f 717 696 710
f 700 717 715
f 708 700 715
f 708 660 700
f 710 733 739
f 698 737 723
f 710 739 740
f 733 734 661
f 696 699 678
f 664 732 737
f 664 707 732
f 710 696 734
f 710 734 733
f 696 724 734
f 717 710 715
f 738 723 722
f 724 696 729
f 696 678 729
f 720 733 662
f 734 698 738
f 698 723 738
f 730 724 735
f 734 724 707
f 708 715 702
f 649 708 702
f 742 702 715
f 712 709 687
f 744 712 713
f 729 678 712
f 735 729 732
f 729 712 744
f 738 722 661
f 661 722 662
f 739 721 743
f 735 732 736
f 735 736 730
f 740 739 743
f 733 721 739
f 720 710 740
f 715 710 746
f 719 748 744
f 719 744 714
f 714 744 713
f 748 719 726
f 704 742 705
f 745 726 727
f 714 716 719
f 716 726 719
f 745 727 705
f 742 745 705
f 613 691 701
f 691 613 728
f 706 728 671
f 706 671 691
f 732 741 737
f 691 728 706
f 731 736 732
f 715 711 742
f 720 743 721
f 737 741 723
f 741 720 722
f 746 741 732
f 720 740 743
f 715 746 747
f 729 744 732
f 723 741 722
f 720 662 722
f 746 732 744
f 720 741 710
f 710 741 746
f 747 711 715
f 746 744 748
f 748 749 746
f 748 726 749
f 742 711 745
f 749 726 745
f 745 711 749
f 749 711 747
f 749 747 746

