# https://github.com/mikedh/trimesh
v -0.12139764 -0.02370002 0.72155672
v -0.12901764 -0.04420663 0.78900933
v -0.12506266 -0.03984181 0.76773709
v -0.11311974 -0.01350060 0.80215740
v -0.11236674 -0.03717556 0.63891464
v -0.02737522 -0.03959634 -0.04708012
v -0.11033884 -0.01112502 0.67290974
v -0.08369377 -0.02716826 0.69306898
v -0.05945384 -0.03072544 0.68412322
v -0.06187406 -0.04719863 0.79810947
v -0.08127557 -0.04017571 0.98280180
v -0.09293769 -0.03516412 0.44262198
v -0.13768737 -0.04340824 0.98348528
v -0.09378131 0.00847580 0.46350586
v -0.10151426 -0.03901289 0.48652187
v -0.07321031 -0.01777339 0.48785695
v -0.08828747 -0.01543466 0.58649558
v -0.11376018 -0.04407931 0.68574721
v -0.11816204 -0.03603460 0.62225574
v -0.07459657 -0.03734570 0.48336163
v -0.07587980 -0.01500729 0.80482489
v -0.05293107 -0.00745561 0.14255853
v -0.10355221 -0.01634449 0.73329371
v -0.08114430 -0.00052629 0.70252866
v -0.12701575 0.00160775 0.74630719
v -0.11976801 0.00537065 0.69147170
v -0.07899772 -0.00071607 0.73767942
v -0.12899543 0.03225471 0.79335660
v -0.10926926 -0.01249789 0.84767699
v -0.11700454 0.00728107 0.79979980
v -0.09903497 0.00638942 0.50775731
v -0.10810199 -0.01121885 0.59094626
v -0.10878012 0.01661691 0.67513448
v -0.11185677 0.01539426 0.64350492
v -0.10647084 0.03488705 0.57213736
v -0.08604240 0.00077383 0.67437029
v -0.09300280 0.03210618 0.62978637
v -0.05659057 0.01324928 0.72200066
v -0.12145729 0.03422308 0.72437233
v -0.03405387 0.03325402 -0.03601474
v -0.10349341 -0.03714683 0.53038812
v -0.05199153 -0.02700407 0.20059313
v -0.01434894 0.00327945 -0.00334144
v -0.08490014 -0.00213033 0.37647179
v -0.02980099 -0.03698911 0.24401103
v -0.08046795 -0.00957170 0.53500158
v -0.08281791 -0.03874113 0.42842340
v -0.07318681 -0.03322747 0.59432924
v -0.07455648 -0.04563912 0.54704434
v -0.07252984 -0.03128074 0.57658368
v -0.09419882 -0.01691295 0.63290280
v -0.10590864 -0.00667848 0.76606601
v -0.04542930 -0.04433053 0.74214321
v -0.03969142 -0.02885973 0.15914297
v -0.11593543 -0.04343604 0.80756301
v -0.10286345 0.01797166 0.72712946
v -0.09144993 0.01505514 0.62370110
v -0.07990324 -0.01863242 0.86377102
v -0.03443175 -0.04141813 0.68480289
v -0.06155767 -0.04512975 0.81545866
v -0.06066424 0.02272466 0.16816892
v -0.02617966 0.00065392 0.09169507
v -0.06870962 -0.00141579 0.22377007
v -0.04826950 -0.04132718 0.01261231
v -0.05909253 -0.01873821 0.29946893
v -0.07016961 0.01155672 0.27945104
v -0.07900056 -0.03667878 0.29104033
v -0.08389849 -0.03760147 0.34576851
v -0.06647252 -0.01439192 0.39198953
v -0.06106921 -0.00701360 0.34442827
v -0.06158520 -0.00904908 0.39343238
v -0.08960593 -0.00373187 0.41414630
v -0.06318314 -0.00267577 0.45712212
v -0.02429498 -0.01129194 0.01185277
v -0.06081643 0.00007685 0.50910777
v -0.06985006 -0.00223101 0.57083327
v -0.10518484 0.00582187 0.55608320
v -0.04874724 -0.00360434 0.62334383
v -0.07231324 -0.04462868 0.19819982
v -0.05915804 -0.01526776 0.67855388
v -0.06692635 -0.01924823 0.72488165
v -0.06170974 -0.00298336 0.43091828
v -0.06741187 0.02739082 0.19891743
v -0.07755555 0.02272408 0.31488109
v -0.07342488 0.03334235 0.26452801
v -0.02208176 -0.00723040 0.38454825
v -0.07466639 0.01147636 0.33284062
v -0.06062916 0.03328724 0.33878720
v -0.08361726 0.03207745 0.36435434
v -0.06470929 0.01878462 0.37267619
v -0.07417113 0.02427094 0.45716837
v -0.09300609 0.02904712 0.45319834
v -0.08245436 0.01430770 0.52037579
v -0.08695195 0.01895800 0.56992966
v -0.03589092 0.01366800 0.52298486
v -0.04028181 -0.00462420 0.63589501
v -0.06519821 0.00022630 0.61166257
v -0.06041711 0.00902486 0.80730343
v -0.01843316 -0.04070118 0.49809623
v -0.03220066 0.03279732 0.64794904
v -0.04773857 0.01284351 0.63255942
v -0.05370671 0.03214455 0.69813734
v -0.06636680 -0.04158605 0.14965464
v -0.05538206 -0.03986450 0.10384599
v -0.02055255 -0.03148464 0.30985212
v -0.05985039 -0.01579012 0.35608584
v -0.03687554 0.01393798 -0.11643189
v -0.00668927 -0.04205381 0.35807630
v -0.06005197 -0.02176422 0.18887280
v -0.08444574 -0.04100982 0.38881001
v -0.02042461 -0.03320771 -0.17956182
v -0.05143170 -0.00736251 0.25468734
v -0.01807817 -0.03623661 -0.22258076
v -0.01977057 -0.03446094 0.53873438
v -0.03584926 -0.02840167 0.44526452
v -0.06195735 -0.03186897 0.62547141
v -0.04503524 -0.04528884 0.72382462
v -0.05153563 -0.01106502 0.73132282
v -0.01248172 -0.03608926 -0.32497859
v -0.03144000 0.01102843 0.67155820
v -0.04552501 -0.03880787 0.78096992
v -0.06925240 -0.00234992 0.76905560
v -0.03892277 -0.04050707 -0.08570932
v -0.03477345 0.03818023 -0.09507683
v -0.01820628 -0.02173040 -0.03448031
v -0.04958208 -0.03497171 0.05602769
v -0.04750880 -0.00173509 0.02443804
v -0.03654577 -0.00391466 0.10930964
v -0.05705626 -0.01485648 0.10586324
v 0.00212030 0.00086138 0.16424611
v -0.04718891 -0.00739867 0.20500411
v -0.07371997 -0.03856081 0.24889089
v -0.03067769 0.00177566 0.23099168
v -0.02518309 -0.00634846 0.26441428
v -0.05071945 -0.00743674 0.29001099
v -0.00537465 -0.00792347 0.41101703
v -0.01520936 -0.03686892 -0.28331840
v -0.02941645 -0.00547266 0.43985847
v -0.03859115 -0.02306079 0.54464561
v 0.02533551 -0.03316211 -0.66628158
v -0.04703612 -0.00096861 0.52932274
v -0.03899059 -0.01221782 0.59304488
v -0.05492505 -0.00517247 0.64499658
v -0.03356930 -0.00719083 -0.07471946
v -0.00830135 -0.04267588 0.44709745
v 0.02529870 -0.00095982 -0.02987029
v -0.02676502 -0.00329710 0.60697699
v -0.04327256 0.00315925 0.76638383
v -0.02344325 0.00219211 0.64426750
v -0.04659111 0.03023108 0.03232430
v -0.04408089 0.00023928 -0.00794359
v -0.05473759 0.02493965 0.10281703
v -0.03790619 0.01197039 0.06822297
v -0.02386670 0.00440614 0.12108502
v -0.02386228 0.00441036 0.12102620
v -0.02386228 0.00442036 0.12104621
v -0.01996228 0.00443036 0.12104621
v 0.00526721 -0.02636895 0.15750821
v -0.02108228 0.00051036 0.12104621
v -0.04338869 0.01718718 0.17355335
v -0.01996228 0.00441036 0.12116620
v -0.03804932 0.03425207 0.11891248
v -0.01447762 0.04367660 -0.26379317
v -0.01142067 -0.02646250 0.21367294
v -0.03144303 -0.03773027 -0.12907048
v -0.00110787 -0.01134985 0.15003942
v 0.00160035 0.02974332 0.34681457
v -0.04267298 0.02043483 0.56879479
v -0.03887395 0.01314970 0.72126222
v -0.01650480 0.01462652 -0.03666272
v 0.02589670 -0.00037873 0.13607690
v -0.04396301 0.03439646 0.78805274
v -0.01530253 -0.00123551 0.11734364
v -0.01260654 -0.00053775 0.47445619
v -0.00784080 -0.02074352 -0.22877856
v -0.01110537 0.01207230 -0.29766986
v -0.01316805 -0.03934977 -0.14619903
v -0.00408752 0.03899180 -0.37559858
v -0.02391617 0.03349360 -0.17847252
v 0.01665224 -0.04503866 0.15209533
v -0.07443129 -0.00809440 0.33313176
v -0.01598289 0.00443515 0.12104094
v -0.01605228 0.00443036 0.12104621
v -0.00838930 -0.03991165 0.39873806
v 0.01412532 -0.04060116 0.20724852
v -0.03275684 -0.00966196 0.06615382
v -0.03752374 -0.00015625 0.32165217
v -0.00300724 -0.00579485 0.34717983
v 0.00489660 -0.00041625 0.33208105
v -0.02321216 -0.00370310 0.49052921
v -0.03161515 -0.00052282 0.38442314
v -0.02576017 -0.02171101 0.38957199
v -0.01651715 0.00549531 0.53054231
v -0.00117235 -0.00207255 0.02578196
v -0.02537097 -0.00778276 -0.18936224
v -0.02490678 -0.04230244 0.59071922
v -0.02563834 -0.04237586 0.63782448
v -0.01542571 0.00329936 -0.26318043
v -0.00376657 0.00580031 -0.22998722
v 0.00695791 -0.01391494 -0.22089481
v -0.00107821 0.00497320 -0.05500230
v -0.00195537 0.01930683 -0.18978232
v -0.02187933 -0.03851857 -0.24100524
v -0.03761841 0.00612450 -0.05755594
v 0.01747710 -0.02880513 -0.56342363
v -0.00875415 -0.02334124 -0.13400494
v -0.02719651 0.02738186 0.00506139
v -0.01586614 0.00414863 0.12307486
v 0.01557319 -0.03167324 0.17238541
v 0.00161112 0.03909277 -0.23391868
v 0.00500688 0.01232999 0.15530154
v -0.05052155 0.01745239 0.24507412
v -0.02185677 -0.00226701 0.29650825
v -0.01525041 0.00072649 0.13116057
v -0.02050918 -0.02036267 0.33763808
v 0.00348376 0.00458444 0.35535061
v 0.00337075 0.00346059 0.35643905
v 0.00091127 0.01457191 0.36651945
v -0.01900775 -0.00173085 0.35277614
v 0.01944713 -0.00172399 -0.04476522
v -0.01712655 0.01235129 0.34815329
v -0.03151150 0.01057426 0.43160862
v -0.00591203 0.02170544 0.43643382
v -0.01494247 -0.01649787 0.49416944
v -0.03029536 -0.00004128 0.53852820
v -0.02778981 0.03195852 0.53844208
v -0.02084470 -0.00416577 0.57045639
v -0.00093678 0.01753910 -0.22821282
v 0.02960656 0.00698121 -0.24151105
v -0.02167970 0.00806998 -0.21844584
v -0.02891170 0.00255858 -0.15116835
v -0.01539390 0.04168482 -0.13118888
v -0.01420081 0.03946069 -0.09243622
v -0.01418881 0.01875255 -0.11062554
v -0.01063379 0.00040961 0.19756961
v -0.00047148 -0.01827080 0.11162765
v -0.01088130 0.00316180 0.06888154
v 0.01050647 0.00679905 0.27526271
v 0.01564450 -0.00596592 0.00317806
v -0.01130803 0.03063336 0.48270661
v -0.02808541 0.03141798 0.44550619
v -0.02389225 0.03163796 0.59367341
v -0.01014322 0.03976245 -0.31006294
v 0.04122097 -0.00446858 -0.18558727
v 0.01752020 -0.04458120 0.00316424
v 0.01276684 0.00360059 -0.14941812
v 0.00134170 -0.00740698 -0.17674695
v 0.00247164 -0.02585876 -0.36261272
v 0.03185993 -0.03782871 -0.38051847
v -0.00088724 -0.03325884 -0.27256981
v 0.00872841 -0.01097068 -0.27582031
v 0.03862772 0.01222036 -0.80857378
v 0.03866772 0.01613036 -0.80863380
v 0.03864772 0.01222036 -0.80863380
v 0.09761098 -0.03851768 -0.54688936
v 0.03871885 -0.01149132 -0.21370472
v 0.03873443 -0.04104749 -0.02679653
v 0.02476287 -0.00865802 -0.40805206
v 0.02672795 -0.03079476 -0.65846574
v 0.02761826 -0.04237497 0.10838941
v 0.05197660 -0.04104273 -0.11841785
v 0.02889342 -0.01725378 -0.51373667
v -0.00976517 -0.03427878 0.10595111
v 0.03804648 0.00123352 0.04508190
v 0.03600856 -0.04087211 0.01848038
v -0.00849924 -0.01115400 -0.09496608
v 0.02909052 -0.04714669 0.05522682
v 0.00760766 -0.03368152 -0.52236450
v -0.00516214 0.00250830 0.04081076
v 0.03088372 -0.00173021 0.08676978
v 0.03660736 -0.01203286 -0.16832615
v 0.02833955 0.01822168 0.11599293
v -0.00388692 -0.00152391 0.25049755
v 0.02557841 -0.00724767 0.09874940
v 0.01431034 0.01441548 0.06154355
v 0.00316335 -0.04233461 0.26050803
v 0.00748539 -0.03744247 0.30254841
v 0.01819503 -0.00582336 0.19049923
v 0.00314038 -0.04716059 0.34160671
v -0.00653022 0.01292754 0.24855135
v 0.02790270 -0.03017221 -0.71060747
v 0.00945238 0.00166911 0.28881630
v 0.01498312 -0.00621260 -0.56619519
v 0.03089855 0.03027094 -0.68751007
v 0.00395980 -0.01420365 -0.46167994
v 0.02123006 0.03829281 -0.60352886
v 0.00947738 0.03148918 -0.48853227
v 0.03098407 -0.00868670 -0.46447718
v 0.01040734 -0.00895502 -0.51653135
v -0.00558737 -0.03052474 -0.37418422
v 0.03412595 0.01765940 -0.67952651
v -0.00169032 0.00798197 -0.38641357
v 0.01525930 0.00352598 -0.37659758
v 0.05104642 0.00811092 -0.17261150
v 0.04714556 0.00785581 -0.38473466
v 0.01174874 0.00680654 -0.34063455
v 0.00311651 0.00648220 -0.43758902
v 0.06886469 -0.03892253 -0.27805552
v -0.01645792 -0.00020944 -0.24329257
v 0.04424228 -0.01151318 -0.22684839
v 0.04805675 -0.00765038 -0.70585817
v 0.01397021 -0.00443319 -0.11846782
v 0.04776928 -0.04003679 -0.08552833
v 0.01909333 -0.02616147 -0.61651516
v 0.01830877 0.00041127 -0.09633586
v 0.05280172 0.00058431 -0.65353811
v 0.04057633 -0.00062266 -0.01217779
v 0.02581357 0.00314082 0.06193949
v 0.02182308 -0.02071195 0.06595961
v 0.06262622 -0.04152000 -0.23030332
v 0.02320382 0.00270661 0.10403553
v 0.06504943 -0.01471919 -0.41226566
v 0.01513320 0.02945994 0.24453747
v 0.03458685 0.02558223 0.05834758
v 0.01366018 -0.04621271 0.24913435
v 0.01412332 -0.00088512 0.22612071
v 0.01903308 0.01471806 0.18630396
v 0.00153555 0.03380677 0.22477460
v 0.00346772 -0.00338964 0.35545623
v 0.00346772 0.00051036 0.35547620
v 0.00347772 0.00051036 0.35541618
v 0.00347772 0.00441036 0.35541618
v 0.02671466 0.00222803 -0.64246589
v 0.05612828 0.01003099 -0.53505480
v 0.01946824 0.01342734 -0.59104627
v 0.01490194 0.01753019 -0.53517163
v 0.03164822 0.01233224 -0.52723384
v 0.03281455 0.02471996 -0.51826489
v 0.01373192 0.01242060 -0.47117057
v 0.02364785 0.04144526 -0.44295833
v 0.02241143 -0.00391831 -0.42281678
v 0.02345587 0.02149387 -0.42900437
v 0.01531509 0.01962907 -0.36193612
v 0.00923130 -0.00794058 -0.32316625
v 0.01781674 0.03771395 -0.37465504
v 0.00420492 -0.03422273 -0.42890814
v 0.03764785 0.00363974 -0.31169972
v 0.03861723 0.00829677 -0.80863762
v 0.00731022 0.03863263 -0.29196694
v 0.01930160 0.00662232 -0.21504243
v 0.05869510 0.00573728 -0.22306129
v 0.03888946 0.03018782 -0.15994410
v -0.00015950 0.00522745 -0.18840177
v 0.03632428 0.01741687 -0.13079092
v 0.02508587 0.01578979 -0.03436957
v 0.01666881 0.03503281 0.05367624
v 0.03264579 0.03369345 0.08602099
v 0.02372042 0.02151978 0.15646379
v 0.02277192 0.03115100 0.17673400
v 0.00365586 0.03284353 0.16374891
v 0.00903494 0.02921662 0.30593494
v -0.01269582 0.03332822 0.31196010
v 0.01496424 0.04160238 -0.54495674
v 0.02795383 0.03689015 -0.46070966
v 0.00134628 0.03553719 -0.42005581
v 0.07960659 -0.02360800 -0.40587437
v 0.04783054 0.00333297 -0.33416426
v 0.02465873 0.03596821 -0.03566547
v 0.04288337 -0.02961261 -0.79613364
v 0.00022832 -0.03628512 -0.41703835
v 0.06610007 -0.02195620 -0.36748758
v 0.06431640 -0.03060974 -0.45904401
v 0.04045555 -0.03078627 -0.80601686
v 0.03306598 -0.03466252 -0.76062679
v 0.04507550 -0.01901999 -0.61016327
v 0.01330739 -0.02420472 -0.33550093
v 0.04939162 -0.03568019 -0.57034016
v 0.03630054 0.02280941 -0.55035305
v 0.05320739 -0.01617541 -0.75659817
v 0.04334289 0.00471860 -0.81556135
v 0.08195940 -0.01176310 -0.61720049
v 0.05564902 -0.02520671 -0.26968601
v 0.02651905 0.02158577 -0.47170690
v 0.10254172 -0.03539886 -0.56409043
v 0.05934663 0.00365269 -0.27417326
v 0.04413776 -0.04095397 -0.04248865
v 0.06142211 0.00147729 -0.42746964
v 0.05315621 -0.00154967 -0.31488803
v 0.06195765 -0.04116260 -0.21422948
v 0.04271970 -0.04315244 -0.06961227
v 0.04608615 0.00869167 -0.06120740
v 0.05244263 -0.04228466 -0.13559981
v 0.00507718 -0.03816848 -0.08349917
v 0.03609168 -0.00374191 -0.13365117
v 0.02656951 -0.00399906 -0.07438077
v 0.05594116 -0.03930368 -0.16693671
v 0.04707634 0.00355966 -0.03938950
v 0.03875407 0.03148451 0.01362542
v -0.00749823 -0.02054420 0.04904012
v 0.05586784 -0.03210417 -0.84794581
v 0.03862772 0.00832036 -0.80862379
v 0.04015180 0.01226899 -0.78211331
v 0.06259192 -0.02029632 -0.80210334
v 0.05729815 -0.00419902 -0.70234406
v 0.07073856 0.01353756 -0.74193400
v 0.03191958 0.00159284 -0.69698232
v 0.06012610 0.00100179 -0.71671164
v 0.03657620 0.01451846 -0.73672515
v 0.09093114 -0.00362622 -0.69238424
v 0.03538727 0.01344730 -0.65501052
v 0.06800189 -0.02316924 -0.74574667
v 0.04924877 -0.01107487 -0.61703551
v 0.03846196 0.00726622 -0.61262560
v 0.03064131 0.04336158 -0.66205573
v 0.04640226 0.00149318 -0.59791517
v 0.03748424 -0.00894949 -0.50574058
v 0.00664009 -0.03264190 -0.47335750
v 0.06003121 -0.03305968 -0.37512675
v 0.04501291 0.00732929 -0.40045467
v 0.07415356 0.00081601 -0.28092170
v 0.10603012 0.00018474 -0.70016420
v 0.08298340 0.03212026 -0.36186624
v 0.07351694 -0.03593025 -0.35748112
v 0.08588944 0.01169117 -0.46402252
v 0.05199481 -0.00346254 -0.35978761
v 0.04348082 -0.00074342 -0.52512872
v 0.07768772 0.02157036 -0.52738380
v 0.04340572 0.03734463 -0.78803891
v 0.04554254 0.01872249 -0.23121862
v 0.04434351 -0.01590429 -0.26185656
v 0.03546691 0.00531700 -0.29209483
v 0.06725699 -0.00249544 -0.23303647
v 0.06450532 0.00129582 -0.20406583
v 0.06149924 -0.03599079 -0.18240920
v 0.04783054 -0.02554378 -0.17598078
v 0.05977702 0.00114355 -0.15793243
v 0.05296825 0.01084658 -0.13332753
v 0.05276245 0.00801846 -0.10998016
v 0.09780755 -0.03506525 -0.61492968
v 0.05218338 -0.00225741 -0.09024921
v 0.05066887 0.03277460 -0.07338818
v 0.04068238 -0.01770606 0.01713091
v 0.04283803 0.01735528 -0.01788538
v 0.04757441 0.01371090 -0.83426946
v 0.03740772 0.00832036 -0.80472380
v 0.06918037 -0.00870364 -0.79012334
v 0.04844103 0.01511352 -0.80486721
v 0.03745276 0.03218742 -0.80476415
v 0.06193810 0.02586811 -0.79167336
v 0.06247968 0.00948618 -0.77110273
v 0.04301136 0.03112472 -0.74040484
v 0.04026460 0.03858605 -0.76037854
v 0.05178550 0.02516234 -0.70777404
v 0.03307379 0.04404505 -0.72080642
v 0.05525387 -0.00955349 -0.66898245
v 0.04323000 0.02323850 -0.61180097
v 0.06254078 0.01530570 -0.70846051
v 0.05376626 0.04664601 -0.84907591
v 0.04199726 -0.00286790 -0.55749583
v 0.08024269 0.02288601 -0.54603916
v 0.02578045 0.01139380 -0.56547964
v 0.04568344 0.04170207 -0.62172884
v 0.07567959 -0.03104209 -0.85466987
v 0.05331935 0.01157598 -0.49235421
v 0.07629701 -0.00653443 -0.50793922
v 0.03561976 0.00851933 -0.35837877
v 0.03532067 0.04145708 -0.53648090
v 0.09520882 0.04351762 -0.55736250
v 0.07662223 0.02501921 -0.50988579
v 0.08761712 0.02509034 -0.60600150
v 0.06180663 -0.03021278 -0.87677509
v 0.05996540 0.04563855 -0.76994783
v 0.02872221 0.00480204 -0.26199722
v 0.05731260 0.01970328 -0.32490119
v 0.07232150 0.03312707 -0.27008802
v 0.05700603 0.02497204 -0.16053259
v 0.04896476 0.03958831 -0.19434310
v 0.05708580 0.03443395 -0.12823822
v 0.03976172 0.04601465 -0.79911816
v 0.09876420 -0.00713574 -0.73835593
v 0.03383347 0.02676115 -0.70980030
v 0.05326777 0.04379916 -0.69488728
v 0.09058052 -0.03759655 -0.45533511
v 0.07079600 0.00466831 -0.79480326
v 0.07714599 -0.01287655 -0.56911510
v 0.07282899 0.01202206 -0.67700458
v 0.09710402 0.02451676 -0.70276660
v 0.07848757 -0.00415323 -0.59462506
v 0.05179951 0.01297940 -0.66391420
v 0.10451282 -0.00685316 -0.79908830
v 0.11702966 -0.03128051 -0.80532682
v 0.07112909 0.00914400 -0.55250436
v 0.07393410 0.01426529 -0.65106767
v 0.08235705 0.00143830 -0.37865746
v 0.10307678 0.03671172 -0.56678599
v 0.04581416 0.03477690 -0.03793497
v 0.09583522 -0.03719830 -0.51689404
v 0.07055065 -0.03376891 -0.71547318
v 0.06730567 0.00958992 -0.57775307
v 0.11217754 -0.01430496 -0.87039644
v 0.04879659 -0.01992681 -0.57435685
v 0.05759893 -0.03211116 -0.64805096
v 0.08098215 -0.02973000 -0.76200116
v 0.08794221 -0.01187098 -0.92098719
v 0.07244682 -0.03871455 -0.26822653
v 0.09487467 -0.02824421 -0.60250866
v 0.04906045 -0.03236017 -0.69641638
v 0.10540166 -0.03255271 -0.59628677
v 0.09101710 -0.00891166 -0.52196610
v 0.08646637 -0.03766400 -0.42310137
v 0.08606549 -0.00265651 -0.64395827
v 0.05264964 0.00547021 -0.45369208
v 0.09143985 -0.03553120 -0.46670172
v 0.06146127 0.00661374 -0.75948215
v 0.09635082 -0.00065782 -0.52029711
v 0.08892455 0.01085854 -0.51126891
v 0.04093264 -0.01653467 -0.47700319
v 0.07466988 -0.01180085 -0.36444640
v 0.08991803 0.01197352 -0.44497827
v 0.06914536 0.00552259 -0.30021638
v 0.07000864 -0.02680144 -0.28129354
v 0.05086499 -0.01726090 -0.28413922
v 0.07830188 0.00530637 -0.32904780
v 0.08183707 -0.03885807 -0.37171584
v 0.06482331 0.00697357 -0.32048807
v 0.06608225 0.00338168 -0.24895369
v 0.13627203 -0.02745935 -0.97735459
v 0.07343055 -0.02480727 -0.98560566
v 0.07591704 -0.02411070 -0.86875844
v 0.08026238 0.00701679 -0.87047517
v 0.09082864 0.01163658 -0.86193830
v 0.07298861 0.00339996 -0.81253576
v 0.12067371 -0.03066593 -0.84122485
v 0.09441128 -0.00751347 -0.66133904
v 0.09871550 -0.02790397 -0.51857501
v 0.10212745 -0.01800313 -0.65225464
v 0.06286544 0.01268248 -0.62203568
v 0.09421536 -0.01596820 -0.55690342
v 0.08652245 0.00911472 -0.71616304
v 0.10767042 -0.00195491 -0.74879092
v 0.09615520 0.00321853 -0.49533477
v 0.12857044 -0.03045906 -0.94178343
v 0.09837921 -0.03651764 -0.50116533
v 0.07442396 -0.00691687 -0.46613821
v 0.09663365 0.03426763 -0.50851917
v 0.09443621 0.00549552 -0.47310689
v 0.10845216 0.00413493 -0.80902892
v 0.08818566 0.01094220 -0.42712373
v 0.07236734 0.02275412 -0.41298872
v 0.08549964 0.00618758 -0.39537477
v 0.07505616 -0.03472765 -0.31776243
v 0.08159772 0.03176036 -0.52742380
v 0.07833772 0.03566036 -0.52738380
v 0.07152265 -0.03925468 -0.30848128
v 0.08160797 0.03176489 -0.52736473
v 0.06441410 0.02331141 -0.21989885
v 0.06948121 0.04272116 -0.84516692
v 0.10660910 -0.00737359 -0.84712255
v 0.08392038 0.01407339 -0.78897345
v 0.10426874 -0.00379431 -0.78477639
v 0.13119672 0.03044179 -0.84344828
v 0.07181059 0.01431061 -0.60413694
v 0.07566743 0.01362880 -0.73222178
v 0.10660399 0.00713692 -0.65460014
v 0.09041625 0.04294036 -0.63786447
v 0.09826092 0.04523474 -0.70207244
v 0.10687904 0.02627447 -0.60283953
v 0.12531672 -0.03113598 -0.86950380
v 0.09334547 0.01034116 -0.60809153
v 0.09748274 0.01382987 -0.56463277
v 0.08159772 0.02785036 -0.52731383
v 0.08160772 0.03176036 -0.52738380
v 0.08160772 0.02785036 -0.52738380
v 0.11569916 0.04466438 -0.67920977
v 0.08159772 0.02394036 -0.52732378
v 0.08160772 0.02394036 -0.52738380
v 0.08120182 0.04340244 -0.52214944
v 0.04792350 0.00880241 -0.43843186
v 0.08159772 0.02785036 -0.52742380
v 0.08160407 0.02391777 -0.52738607
v 0.07943058 0.00519733 -0.41483173
v 0.07177635 0.04155328 -0.45755512
v 0.06459949 0.03982984 -0.40163001
v 0.13290294 0.04318634 -0.79703158
v 0.07376593 0.00782829 -0.36755666
v 0.08527787 0.04112148 -0.40541571
v 0.07270533 0.01684566 -0.30095568
v 0.05665494 0.03784856 -0.32414243
v 0.05428665 0.03964628 -0.29144943
v 0.07256117 0.02385189 -0.32254526
v 0.07067198 0.02136607 -0.43911955
v 0.07655738 0.03949986 -0.32385632
v 0.06363774 0.03614514 -0.20688762
v 0.11572435 -0.01449167 -0.92678970
v 0.12577382 0.01621457 -0.85557193
v 0.08631506 0.01508280 -0.82880330
v 0.09223973 0.03977798 -0.45504501
v 0.08985454 -0.01020198 -0.71414715
v 0.08021240 -0.02695544 -0.66060317
v 0.11982278 -0.03398660 -0.73840457
v 0.09729772 -0.01901964 -0.51957381
v 0.11772959 -0.03371685 -0.70448053
v 0.13196833 -0.03341672 -0.79088187
v 0.10190248 0.01449867 -0.60574883
v 0.11872932 -0.02475601 -0.75344133
v 0.11242589 -0.01618988 -0.64435065
v 0.11782292 -0.02145414 -0.68912625
v 0.11445880 -0.03324898 -0.65514863
v 0.09360909 0.02398214 -0.64369541
v 0.09829570 0.02386020 -0.55716175
v 0.11477550 0.02518888 -0.84429926
v 0.13303033 -0.03180564 -0.84029484
v 0.12023278 0.01542716 -0.79792261
v 0.08645055 0.01287389 -0.76595736
v 0.10483252 0.01715334 -0.79940981
v 0.11830197 0.01628825 -0.75817209
v 0.10892296 0.01548183 -0.69660217
v 0.11975586 0.00502475 -0.71015137
v 0.11283962 0.01419450 -0.67667031
v 0.11802858 0.02950530 -0.72598237
v 0.10161889 0.04004138 -0.53110355
v 0.11131600 0.03997646 -0.63152093
v 0.07882249 -0.00729550 -0.55161273
v 0.10634828 0.00986303 -0.58401608
v 0.10026800 0.00495121 -0.54072940
v 0.06184953 0.02045466 -0.86086255
v 0.13390404 0.01410151 -0.81752503
v 0.10931271 0.02583636 -0.79725158
v 0.11053216 0.04270393 -0.79884118
v 0.12535787 0.01286973 -0.76766223
v 0.11932024 0.03935431 -0.69809967
v 0.12216812 0.01080480 -0.72964495
v 0.10849386 0.00886647 -0.62031877
v 0.12623015 0.04458170 -0.77111471
v 0.12460596 0.04339716 -0.75682908
v 0.12848775 0.00042475 -0.90889156
v 0.11666954 0.04570488 -0.84899974
f 2 4 28
f 41 77 31
f 41 49 77
f 19 5 34
f 5 19 51
f 97 19 32
f 51 97 143
f 25 1 23
f 23 1 26
f 3 52 2
f 3 28 25
f 3 2 52
f 2 28 3
f 25 52 3
f 121 2 3
f 2 121 10
f 2 10 4
f 21 52 4
f 13 30 55
f 55 30 4
f 55 4 29
f 30 13 11
f 52 29 4
f 31 92 14
f 26 7 18
f 35 32 19
f 34 7 26
f 35 92 31
f 27 23 24
f 18 7 80
f 39 26 1
f 39 1 25
f 25 23 122
f 27 122 23
f 25 28 39
f 28 4 30
f 31 77 35
f 34 35 19
f 35 77 32
f 26 33 34
f 35 34 37
f 37 34 33
f 39 56 33
f 39 33 26
f 56 39 28
f 28 30 56
f 19 97 116
f 77 50 32
f 17 48 32
f 26 18 8
f 32 50 17
f 19 116 51
f 117 1 81
f 18 80 59
f 81 1 23
f 23 1 53
f 55 21 60
f 13 60 11
f 18 9 59
f 85 132 66
f 63 132 85
f 84 67 65
f 66 67 84
f 87 181 68
f 44 68 106
f 44 110 72
f 47 12 72
f 47 72 82
f 14 12 73
f 12 14 72
f 15 14 16
f 12 73 82
f 14 73 16
f 31 14 15
f 20 15 16
f 31 15 75
f 41 31 75
f 77 49 46
f 16 75 15
f 46 75 141
f 75 46 41
f 76 77 46
f 50 48 17
f 32 48 17
f 76 50 77
f 50 76 17
f 50 48 142
f 50 17 48
f 116 97 51
f 32 17 97
f 97 17 76
f 116 51 5
f 5 51 143
f 5 143 34
f 143 116 5
f 80 7 8
f 24 26 8
f 7 24 8
f 36 7 34
f 24 23 26
f 27 24 81
f 117 53 1
f 21 4 10
f 3 52 122
f 122 52 25
f 21 122 52
f 21 52 122
f 29 52 21
f 55 29 58
f 56 30 98
f 98 30 11
f 21 55 58
f 5 51 197
f 60 13 55
f 63 85 83
f 84 181 87
f 68 44 89
f 87 68 89
f 84 87 89
f 89 44 72
f 89 72 92
f 73 12 82
f 92 72 14
f 73 75 16
f 38 56 98
f 101 57 37
f 101 37 33
f 34 143 36
f 24 7 36
f 38 33 56
f 45 132 63
f 21 58 29
f 84 85 66
f 85 84 88
f 90 88 84
f 90 84 89
f 91 89 92
f 91 90 89
f 93 91 35
f 91 92 35
f 93 35 94
f 94 35 37
f 57 94 37
f 72 110 71
f 62 263 104
f 54 103 180
f 105 67 65
f 68 108 106
f 68 181 279
f 134 132 276
f 110 44 71
f 110 71 192
f 69 110 184
f 68 279 219
f 114 41 46
f 12 115 73
f 72 71 191
f 12 47 115
f 47 82 138
f 16 15 99
f 99 15 20
f 41 139 49
f 94 95 93
f 9 18 59
f 51 116 197
f 3 122 121
f 219 108 68
f 8 18 59
f 81 23 53
f 118 117 53
f 204 6 151
f 151 245 64
f 151 64 127
f 389 267 126
f 153 126 186
f 104 129 62
f 104 128 129
f 61 22 103
f 63 83 109
f 61 103 54
f 63 109 79
f 61 54 235
f 109 83 61
f 79 164 63
f 109 63 164
f 109 131 63
f 235 131 109
f 66 134 112
f 133 45 63
f 133 112 45
f 66 132 134
f 67 66 135
f 45 112 134
f 66 112 134
f 65 67 105
f 134 213 135
f 65 105 213
f 213 135 65
f 213 65 135
f 65 213 187
f 181 84 187
f 106 181 70
f 181 187 70
f 181 106 279
f 219 191 70
f 106 70 191
f 106 191 44
f 110 69 184
f 44 191 71
f 71 110 136
f 71 136 192
f 138 73 115
f 73 138 82
f 222 91 93
f 20 16 224
f 114 46 139
f 138 82 191
f 73 224 190
f 139 141 114
f 141 75 193
f 46 49 139
f 76 46 141
f 48 50 196
f 41 114 139
f 139 141 225
f 76 50 142
f 227 196 50
f 76 142 97
f 48 196 142
f 50 76 227
f 78 116 143
f 142 147 97
f 5 197 143
f 142 196 147
f 78 143 96
f 116 78 197
f 80 24 36
f 80 8 59
f 120 59 80
f 80 59 169
f 24 169 81
f 53 117 118
f 59 120 169
f 81 53 27
f 117 81 169
f 27 118 81
f 27 81 118
f 27 53 148
f 117 169 53
f 53 169 148
f 148 121 122
f 21 10 121
f 21 121 98
f 98 121 148
f 98 60 21
f 60 98 11
f 124 107 144
f 107 123 144
f 40 204 151
f 40 124 204
f 40 151 150
f 127 126 153
f 127 153 150
f 389 126 127
f 389 127 269
f 214 22 129
f 153 129 152
f 62 129 153
f 152 129 22
f 156 155 157
f 22 61 152
f 130 54 22
f 160 153 162
f 109 61 235
f 133 63 131
f 150 151 127
f 112 133 134
f 79 109 185
f 135 66 134
f 160 83 212
f 65 187 84
f 87 212 88
f 221 87 90
f 87 88 90
f 219 70 187
f 82 72 191
f 90 91 222
f 73 82 138
f 193 75 224
f 75 73 190
f 95 222 93
f 224 75 190
f 95 94 193
f 141 139 76
f 168 193 94
f 168 94 57
f 78 143 97
f 57 101 168
f 147 78 97
f 169 24 80
f 96 143 78
f 33 38 101
f 38 102 101
f 80 36 143
f 148 122 27
f 98 102 38
f 148 169 172
f 172 98 148
f 152 150 153
f 162 152 61
f 160 162 61
f 160 61 83
f 85 212 83
f 212 85 88
f 101 100 168
f 100 101 102
f 172 169 120
f 100 102 120
f 120 102 172
f 172 102 98
f 113 203 175
f 165 177 206
f 128 104 263
f 164 42 185
f 54 180 158
f 6 125 257
f 6 257 151
f 125 6 257
f 54 103 158
f 267 309 126
f 103 54 158
f 103 22 54
f 42 79 185
f 64 74 265
f 263 62 236
f 128 263 236
f 79 42 164
f 105 65 277
f 208 183 182
f 67 135 277
f 67 277 65
f 115 47 145
f 110 184 136
f 138 145 47
f 138 145 174
f 99 20 224
f 115 145 138
f 224 16 99
f 225 114 139
f 176 137 198
f 299 203 113
f 177 165 231
f 195 111 247
f 111 343 247
f 247 111 195
f 165 107 231
f 383 123 266
f 107 165 302
f 231 246 177
f 123 383 144
f 6 204 201
f 125 6 201
f 220 6 125
f 43 245 151
f 74 64 265
f 43 125 201
f 74 269 127
f 62 153 186
f 214 159 208
f 214 173 159
f 236 62 128
f 154 156 161
f 129 128 214
f 173 214 128
f 159 173 155
f 130 235 54
f 161 156 157
f 208 159 154
f 103 54 180
f 185 109 278
f 180 54 166
f 182 183 157
f 278 109 164
f 166 54 209
f 209 130 166
f 278 164 235
f 133 235 164
f 133 131 235
f 273 133 316
f 132 45 276
f 134 273 45
f 273 134 133
f 277 135 213
f 187 213 105
f 282 277 213
f 105 277 187
f 215 279 106
f 106 108 215
f 219 189 215
f 187 189 219
f 187 277 189
f 219 215 108
f 191 219 86
f 188 108 219
f 219 108 218
f 192 86 184
f 86 192 191
f 110 192 184
f 136 184 86
f 80 143 149
f 145 138 136
f 138 191 136
f 138 115 145
f 136 191 192
f 145 115 138
f 138 174 73
f 224 73 174
f 141 139 225
f 141 193 114
f 139 114 225
f 139 114 193
f 139 193 227
f 147 196 227
f 78 147 149
f 197 78 149
f 143 197 149
f 119 176 292
f 296 119 292
f 176 243 292
f 198 163 176
f 163 198 299
f 163 299 113
f 228 163 230
f 230 163 113
f 195 200 340
f 230 200 195
f 179 195 231
f 231 195 247
f 246 231 247
f 195 179 230
f 107 266 123
f 107 234 124
f 144 201 204
f 204 124 144
f 231 107 179
f 201 144 266
f 170 234 233
f 43 151 125
f 207 170 40
f 74 43 194
f 170 207 153
f 194 269 74
f 269 186 389
f 40 150 207
f 186 269 237
f 153 207 162
f 162 150 152
f 237 62 186
f 159 155 154
f 183 161 157
f 183 208 161
f 153 160 211
f 182 157 173
f 208 154 161
f 155 173 157
f 128 62 173
f 214 208 182
f 182 173 214
f 153 211 275
f 214 130 22
f 133 164 316
f 160 212 211
f 211 212 280
f 238 282 134
f 212 87 280
f 280 87 221
f 352 280 221
f 221 189 167
f 221 90 222
f 170 233 40
f 221 222 241
f 223 241 222
f 241 223 222
f 95 241 222
f 136 223 240
f 174 136 240
f 145 136 174
f 149 120 80
f 224 174 240
f 95 226 241
f 193 224 240
f 193 226 227
f 193 240 226
f 168 226 193
f 139 227 76
f 226 95 193
f 227 226 242
f 242 147 227
f 147 100 149
f 147 242 100
f 149 100 120
f 292 243 178
f 339 176 163
f 339 243 176
f 163 230 210
f 228 230 163
f 210 230 179
f 202 210 179
f 234 202 232
f 232 202 179
f 179 107 232
f 124 234 233
f 232 107 124
f 207 150 162
f 233 124 40
f 107 124 234
f 318 280 352
f 234 232 233
f 233 234 124
f 124 233 232
f 241 352 221
f 352 241 223
f 241 226 240
f 223 241 240
f 226 168 242
f 242 168 100
f 247 343 111
f 252 253 254
f 137 250 198
f 119 366 334
f 250 137 298
f 177 302 384
f 111 386 271
f 111 424 425
f 144 383 385
f 376 6 220
f 74 127 265
f 125 151 257
f 127 64 265
f 309 186 126
f 64 245 265
f 236 263 171
f 263 260 171
f 54 180 209
f 54 158 180
f 209 180 171
f 316 164 185
f 276 45 315
f 315 45 273
f 188 219 108
f 108 219 279
f 304 405 325
f 451 205 449
f 289 268 262
f 268 289 416
f 289 262 406
f 287 507 407
f 360 297 336
f 360 336 331
f 360 258 355
f 355 297 360
f 336 360 331
f 290 292 249
f 290 248 292
f 249 293 290
f 249 292 293
f 249 290 293
f 293 248 415
f 248 293 456
f 366 119 296
f 176 119 334
f 366 334 378
f 366 296 334
f 334 337 176
f 137 176 251
f 244 247 111
f 198 250 251
f 463 251 250
f 198 251 463
f 512 251 420
f 230 113 200
f 299 199 200
f 199 340 200
f 195 343 247
f 195 340 343
f 200 113 256
f 244 111 247
f 111 271 244
f 266 305 383
f 302 177 246
f 165 261 302
f 261 165 206
f 305 266 144
f 305 144 385
f 107 302 305
f 239 245 43
f 257 146 125
f 220 125 146
f 74 265 194
f 257 307 146
f 74 194 239
f 239 43 74
f 308 269 309
f 389 186 309
f 309 269 389
f 309 267 308
f 389 269 264
f 263 236 260
f 309 237 308
f 237 309 270
f 274 260 236
f 236 62 274
f 274 62 237
f 236 214 173
f 173 311 236
f 272 171 260
f 180 166 171
f 214 236 171
f 171 166 214
f 214 166 130
f 130 166 158
f 209 171 278
f 158 166 130
f 158 180 130
f 180 158 130
f 278 130 209
f 130 278 235
f 171 348 278
f 185 278 316
f 315 276 273
f 316 315 273
f 315 316 238
f 134 276 238
f 276 315 238
f 276 315 273
f 316 313 238
f 282 189 277
f 319 279 189
f 215 189 279
f 218 320 217
f 218 108 279
f 189 216 321
f 218 189 221
f 320 319 321
f 218 279 319
f 319 189 321
f 218 319 320
f 323 304 325
f 286 323 325
f 325 283 326
f 326 289 287
f 416 289 326
f 287 289 454
f 285 287 407
f 287 285 297
f 292 248 296
f 355 287 297
f 331 297 568
f 568 297 285
f 463 250 251
f 355 258 292
f 355 292 178
f 292 409 293
f 409 292 258
f 249 293 408
f 456 296 248
f 251 176 421
f 334 296 337
f 337 421 176
f 220 201 385
f 463 251 421
f 199 299 229
f 199 229 340
f 198 463 229
f 229 299 198
f 202 228 210
f 228 202 419
f 234 344 202
f 247 271 246
f 247 343 294
f 271 247 294
f 342 202 344
f 344 234 345
f 302 246 384
f 246 302 305
f 302 246 305
f 266 107 305
f 305 201 266
f 305 385 201
f 345 234 170
f 119 334 544
f 307 43 146
f 201 146 43
f 201 220 146
f 307 239 43
f 170 153 345
f 43 239 194
f 345 153 275
f 264 269 194
f 358 345 346
f 237 269 308
f 275 211 350
f 173 62 311
f 62 236 311
f 237 270 274
f 171 272 348
f 350 211 280
f 278 348 317
f 349 317 348
f 278 317 316
f 317 349 313
f 316 317 313
f 280 318 350
f 282 213 134
f 238 313 351
f 282 238 351
f 282 351 167
f 189 282 167
f 216 217 322
f 217 320 322
f 321 216 322
f 218 136 86
f 216 189 218
f 320 321 322
f 218 86 219
f 216 218 217
f 167 218 221
f 218 167 223
f 223 167 352
f 136 218 223
f 286 404 323
f 325 326 353
f 325 353 286
f 353 326 287
f 353 287 354
f 287 355 354
f 330 354 355
f 354 330 332
f 333 330 335
f 333 332 330
f 330 178 335
f 330 355 178
f 178 243 335
f 333 335 228
f 243 339 335
f 228 335 339
f 339 163 210
f 228 339 210
f 345 275 346
f 346 275 350
f 350 348 346
f 349 318 313
f 272 347 346
f 272 346 348
f 348 350 349
f 313 352 351
f 318 349 350
f 318 352 313
f 351 352 167
f 299 200 300
f 290 249 361
f 507 287 288
f 415 248 413
f 496 405 304
f 304 365 496
f 285 407 362
f 369 364 493
f 249 408 361
f 248 290 413
f 334 366 541
f 258 360 312
f 495 250 372
f 544 334 541
f 299 300 310
f 298 137 512
f 310 203 299
f 175 203 310
f 175 310 300
f 113 379 256
f 206 177 382
f 383 305 303
f 383 380 385
f 257 6 376
f 257 376 387
f 265 245 239
f 265 239 432
f 309 308 267
f 309 267 264
f 260 274 272
f 370 363 359
f 363 393 437
f 616 390 448
f 364 369 401
f 391 252 254
f 364 392 493
f 493 392 440
f 396 281 497
f 398 364 401
f 398 401 395
f 259 323 140
f 281 488 301
f 304 365 403
f 259 140 589
f 445 140 476
f 323 259 492
f 323 492 306
f 492 501 445
f 492 445 306
f 306 259 400
f 402 304 527
f 365 304 403
f 205 255 283
f 304 402 371
f 205 367 449
f 478 405 496
f 402 405 478
f 367 205 283
f 374 205 367
f 449 283 255
f 205 449 367
f 283 491 367
f 283 449 326
f 475 491 613
f 205 451 449
f 449 491 283
f 613 449 255
f 491 449 613
f 262 268 487
f 533 406 262
f 362 407 503
f 268 416 499
f 331 258 312
f 287 454 288
f 360 336 312
f 288 285 362
f 507 288 534
f 336 331 500
f 503 407 507
f 336 297 331
f 377 331 312
f 253 370 254
f 408 293 415
f 413 290 361
f 357 366 378
f 408 415 295
f 137 251 512
f 334 544 378
f 119 544 334
f 337 378 510
f 420 250 495
f 378 544 510
f 512 421 410
f 250 298 372
f 251 250 420
f 420 495 516
f 375 421 463
f 421 512 420
f 354 332 581
f 420 463 421
f 420 516 463
f 300 200 256
f 310 300 422
f 111 425 386
f 422 300 229
f 113 300 379
f 300 310 341
f 300 113 175
f 340 300 256
f 424 111 244
f 379 300 341
f 256 379 423
f 425 424 386
f 246 271 426
f 386 424 426
f 382 384 206
f 271 386 426
f 448 390 434
f 382 177 384
f 340 244 343
f 427 384 246
f 384 382 261
f 382 384 427
f 382 427 428
f 384 261 206
f 302 428 305
f 428 302 261
f 261 382 428
f 430 303 305
f 380 383 303
f 381 385 380
f 381 380 303
f 303 430 381
f 265 432 194
f 376 220 387
f 387 220 381
f 257 387 307
f 267 389 264
f 264 194 432
f 309 264 270
f 370 338 254
f 338 391 254
f 488 397 394
f 253 252 438
f 522 370 434
f 252 392 438
f 338 435 391
f 393 363 437
f 435 359 392
f 253 438 370
f 370 435 338
f 359 435 370
f 435 392 338
f 392 252 338
f 391 435 338
f 252 391 338
f 438 434 370
f 392 359 436
f 418 392 442
f 442 392 364
f 442 364 398
f 471 281 396
f 471 398 281
f 398 441 442
f 398 397 281
f 438 392 469
f 291 396 476
f 396 291 284
f 301 447 394
f 396 284 471
f 259 479 400
f 323 404 140
f 553 397 398
f 394 447 301
f 396 394 476
f 396 497 394
f 140 291 476
f 479 259 306
f 291 140 404
f 404 284 291
f 306 445 479
f 445 476 479
f 527 323 306
f 286 446 323
f 446 452 286
f 306 400 479
f 323 527 304
f 489 325 405
f 286 323 446
f 527 403 402
f 527 405 403
f 405 402 403
f 489 283 325
f 451 449 489
f 449 283 489
f 449 416 326
f 449 482 324
f 449 451 482
f 416 449 324
f 327 262 406
f 454 406 262
f 328 368 457
f 454 262 327
f 506 454 324
f 406 416 324
f 406 324 327
f 454 289 406
f 324 454 327
f 459 328 373
f 454 329 288
f 454 502 329
f 288 502 534
f 454 414 502
f 288 329 502
f 285 288 568
f 568 288 502
f 373 354 581
f 568 409 331
f 258 331 409
f 581 332 539
f 409 312 356
f 409 568 571
f 456 293 295
f 295 293 409
f 295 409 356
f 332 333 464
f 539 332 464
f 456 415 357
f 456 295 575
f 357 296 456
f 378 296 357
f 378 541 515
f 337 296 378
f 464 578 580
f 337 510 421
f 333 228 464
f 510 410 421
f 229 300 341
f 463 421 375
f 464 228 419
f 516 229 463
f 300 340 341
f 229 516 422
f 341 340 229
f 340 256 423
f 423 244 340
f 419 342 467
f 419 202 342
f 343 244 294
f 427 426 466
f 427 246 426
f 428 430 305
f 427 466 468
f 345 342 344
f 428 427 468
f 430 428 431
f 345 358 342
f 419 579 578
f 385 381 220
f 430 431 381
f 387 345 433
f 381 431 486
f 387 486 345
f 387 381 486
f 387 433 307
f 433 345 486
f 432 307 388
f 432 239 307
f 307 433 388
f 432 388 264
f 264 388 314
f 314 346 347
f 264 314 270
f 270 314 272
f 274 270 272
f 347 272 314
f 469 392 418
f 434 469 448
f 469 434 438
f 469 418 442
f 469 442 462
f 471 443 444
f 442 444 462
f 441 398 444
f 442 441 444
f 398 471 444
f 443 439 462
f 444 472 462
f 444 404 472
f 443 462 472
f 471 404 444
f 443 471 444
f 404 471 284
f 404 452 472
f 443 472 452
f 446 443 452
f 404 286 452
f 286 452 446
f 452 286 353
f 368 446 452
f 368 452 353
f 457 368 353
f 353 328 457
f 354 373 328
f 354 328 353
f 419 467 583
f 579 419 583
f 431 428 468
f 583 467 466
f 344 427 468
f 467 342 468
f 468 427 344
f 468 466 467
f 433 486 388
f 342 358 468
f 468 358 431
f 431 358 486
f 358 346 486
f 388 486 346
f 388 346 314
f 363 481 393
f 374 367 491
f 497 597 399
f 589 140 445
f 205 374 528
f 455 262 487
f 336 500 312
f 500 331 377
f 360 312 356
f 500 538 356
f 413 361 514
f 366 357 541
f 511 512 410
f 298 512 495
f 372 298 495
f 518 461 616
f 616 461 519
f 390 616 521
f 494 520 519
f 558 519 461
f 521 453 390
f 453 521 586
f 519 558 490
f 390 453 586
f 363 370 522
f 363 522 481
f 480 393 481
f 522 436 480
f 436 522 474
f 440 401 493
f 359 593 436
f 481 522 480
f 480 436 550
f 401 440 504
f 493 401 530
f 401 504 395
f 589 445 524
f 497 301 411
f 497 281 301
f 488 394 588
f 497 399 394
f 397 488 281
f 608 488 588
f 301 488 592
f 588 394 399
f 492 259 589
f 596 492 589
f 524 445 501
f 492 596 501
f 304 371 429
f 491 475 374
f 365 304 496
f 429 496 304
f 371 402 478
f 255 205 528
f 371 527 623
f 478 489 405
f 489 374 475
f 533 262 455
f 489 475 613
f 613 255 482
f 268 499 487
f 416 406 455
f 406 533 455
f 416 455 499
f 505 499 455
f 455 487 533
f 288 362 502
f 506 455 533
f 503 507 536
f 536 507 534
f 455 506 533
f 455 533 531
f 390 586 434
f 362 473 502
f 414 534 502
f 509 502 473
f 362 503 473
f 312 360 356
f 312 500 356
f 538 500 377
f 356 571 312
f 312 571 356
f 514 408 484
f 356 538 540
f 361 408 514
f 484 408 295
f 541 357 513
f 575 415 508
f 413 412 415
f 575 415 456
f 413 514 412
f 450 542 543
f 541 378 515
f 510 541 577
f 511 410 495
f 541 510 544
f 543 542 545
f 516 495 410
f 512 511 495
f 379 310 422
f 577 541 513
f 295 415 575
f 379 341 310
f 379 422 546
f 379 546 423
f 426 424 546
f 294 244 271
f 546 424 244
f 616 520 521
f 519 520 616
f 437 393 474
f 547 616 448
f 522 434 586
f 474 437 549
f 392 436 474
f 393 437 474
f 522 437 474
f 440 392 474
f 440 474 604
f 437 522 549
f 549 522 586
f 605 549 586
f 504 440 604
f 601 439 618
f 398 395 553
f 474 549 604
f 504 604 395
f 447 394 397
f 553 447 397
f 476 394 447
f 439 443 477
f 399 447 607
f 399 476 447
f 447 529 607
f 529 447 553
f 479 476 483
f 476 399 609
f 527 306 483
f 443 599 477
f 554 483 476
f 483 306 479
f 439 616 547
f 501 527 483
f 554 501 483
f 369 493 595
f 517 461 518
f 559 552 527
f 324 455 506
f 405 527 478
f 599 443 460
f 443 446 460
f 527 552 478
f 527 371 559
f 371 478 559
f 478 552 559
f 482 451 489
f 446 368 460
f 489 478 614
f 489 613 560
f 489 560 482
f 561 562 563
f 324 482 615
f 455 531 454
f 460 368 450
f 482 560 613
f 450 368 328
f 567 543 545
f 454 506 455
f 565 417 459
f 450 328 417
f 562 561 545
f 417 328 459
f 566 565 563
f 565 561 563
f 568 502 509
f 450 417 570
f 455 324 615
f 569 450 570
f 566 563 569
f 570 417 565
f 545 561 567
f 561 459 567
f 566 569 570
f 565 459 561
f 563 542 569
f 566 570 565
f 562 542 563
f 414 454 534
f 542 450 569
f 534 454 536
f 459 373 581
f 542 562 545
f 581 572 459
f 377 312 571
f 571 568 377
f 538 377 568
f 538 568 509
f 539 464 573
f 540 295 356
f 409 571 312
f 484 295 540
f 540 538 539
f 450 458 460
f 540 539 576
f 484 540 412
f 508 415 575
f 412 514 484
f 513 357 415
f 513 580 464
f 412 580 513
f 580 577 464
f 577 513 464
f 513 415 412
f 410 510 577
f 464 419 578
f 572 581 539
f 516 410 465
f 410 577 465
f 422 516 465
f 422 465 546
f 583 546 465
f 244 423 546
f 466 546 583
f 466 426 546
f 547 448 462
f 439 547 462
f 469 462 448
f 458 555 460
f 567 458 450
f 543 567 450
f 567 459 572
f 567 572 535
f 412 578 582
f 572 539 573
f 509 535 587
f 538 587 576
f 587 572 576
f 572 573 576
f 509 587 538
f 573 464 578
f 539 538 576
f 576 412 540
f 576 573 412
f 573 578 412
f 580 578 464
f 582 578 579
f 580 412 582
f 577 580 582
f 582 579 465
f 577 582 465
f 583 465 579
f 401 369 590
f 517 518 626
f 359 363 593
f 493 530 595
f 609 524 476
f 497 592 597
f 478 496 498
f 596 589 598
f 589 526 598
f 429 498 496
f 525 487 499
f 589 598 526
f 533 499 505
f 503 536 509
f 584 494 490
f 494 519 490
f 494 584 520
f 523 548 585
f 480 593 393
f 481 480 537
f 436 593 550
f 363 393 593
f 593 480 603
f 481 537 593
f 480 481 603
f 595 530 620
f 550 549 605
f 470 401 590
f 620 530 604
f 401 470 530
f 590 369 595
f 530 553 395
f 590 595 620
f 301 592 411
f 470 590 622
f 620 622 590
f 529 588 399
f 592 488 608
f 592 497 411
f 588 529 608
f 597 608 621
f 592 608 597
f 589 524 598
f 598 524 596
f 549 620 604
f 524 501 554
f 429 371 623
f 498 429 623
f 255 528 374
f 498 623 614
f 374 489 600
f 482 255 615
f 255 374 615
f 374 600 615
f 525 499 591
f 533 591 499
f 525 591 533
f 487 525 533
f 505 455 615
f 533 505 535
f 531 533 535
f 473 503 509
f 518 616 626
f 584 521 520
f 521 584 490
f 616 601 585
f 548 586 521
f 548 521 585
f 626 616 585
f 617 548 523
f 585 601 551
f 551 601 627
f 617 537 586
f 617 586 548
f 616 439 601
f 480 586 537
f 605 480 603
f 480 550 605
f 586 480 605
f 549 550 620
f 618 619 601
f 480 605 603
f 622 553 470
f 470 553 530
f 604 606 395
f 604 530 606
f 618 439 477
f 395 606 530
f 529 622 608
f 529 399 411
f 529 553 622
f 411 399 607
f 411 607 529
f 399 597 609
f 476 524 554
f 610 608 622
f 621 608 610
f 501 596 527
f 609 597 621
f 623 596 612
f 524 609 596
f 596 609 612
f 527 596 623
f 614 478 498
f 594 559 496
f 559 594 496
f 623 612 557
f 489 614 600
f 557 614 623
f 600 614 485
f 614 557 485
f 611 615 600
f 505 615 535
f 531 536 454
f 531 535 536
f 509 536 535
f 601 619 627
f 574 627 619
f 619 618 556
f 618 477 556
f 556 477 621
f 621 477 556
f 556 624 619
f 556 555 564
f 556 621 625
f 610 625 621
f 621 556 564
f 555 556 477
f 621 564 609
f 555 477 599
f 564 555 612
f 612 609 564
f 599 460 555
f 612 555 458
f 485 557 612
f 612 458 485
f 600 485 458
f 535 615 611
f 458 567 611
f 458 611 600
f 611 567 535
f 535 572 587
f 558 461 532
f 532 517 558
f 517 626 558
f 532 461 517
f 620 550 593
f 602 523 585
f 585 521 558
f 521 490 558
f 617 602 585
f 617 523 602
f 537 617 593
f 558 626 585
f 603 481 593
f 585 551 617
f 624 625 620
f 610 622 620
f 620 593 574
f 610 620 625
f 593 617 574
f 574 551 627
f 574 617 551
f 620 574 624
f 574 619 624
f 556 625 624
f 154 155 156

