o convex_0
v -0.075690 -0.027263 -0.045836
v 0.075062 0.032268 0.096031
v 0.073792 0.033526 0.097300
v 0.073792 0.034798 -0.096501
v 0.072523 -0.033594 -0.096501
v -0.073152 0.034798 -0.096501
v -0.073152 -0.034866 0.097280
v -0.073152 0.033533 0.097280
v 0.072523 -0.034859 0.094743
v -0.074421 -0.034866 -0.096520
v 0.039587 0.036056 0.059262
v 0.023119 -0.036131 -0.050910
v 0.073792 -0.029800 -0.097789
v -0.044008 -0.036131 0.083365
v 0.073792 -0.028535 0.097300
v -0.031347 0.036056 -0.067382
v -0.075690 0.028466 -0.088890
v -0.074421 0.032261 0.094743
v -0.049084 0.013259 0.098568
v 0.075047 -0.014599 -0.069900
v 0.061117 0.036063 -0.086353
v 0.075047 -0.031064 0.088420
v -0.028809 0.023392 -0.097789
v -0.038946 0.034791 0.094762
v 0.072523 0.034798 0.096012
v -0.074421 -0.032329 0.094743
v 0.075062 0.029731 -0.083835
v 0.028180 -0.036131 0.071948
v -0.075690 0.001860 0.013671
v -0.019940 -0.036131 -0.064845
v 0.072523 0.033526 -0.097789
v -0.073152 -0.028535 0.098549
v 0.007920 -0.009532 0.098568
v -0.041485 -0.023461 -0.097789
v 0.018043 -0.034859 -0.095252
v 0.000306 0.036056 0.037754
v -0.075690 -0.018394 -0.093964
v -0.011072 0.020863 0.098568
v 0.021850 0.036056 -0.092715
v -0.040215 -0.036131 -0.029364
v 0.056055 0.036063 0.026357
v -0.074421 0.033533 -0.096520
v 0.026911 -0.033594 0.097300
v -0.008548 -0.036131 0.087151
v -0.047815 -0.036131 0.054226
v 0.073792 -0.032329 -0.096501
v -0.075690 0.018326 -0.012892
v 0.012981 -0.032329 -0.097789
v -0.045277 0.011994 -0.097789
v -0.069345 0.010722 0.098549
v 0.075047 0.014531 -0.088909
v -0.075690 -0.014599 0.004791
v 0.075062 0.033533 0.068142
v 0.005382 -0.036131 -0.066113
v 0.044649 -0.034859 -0.086353
v -0.031347 0.036056 -0.057233
v -0.027540 0.036056 -0.080048
v 0.075047 -0.031064 0.056744
v 0.049725 -0.034859 -0.071149
v 0.073792 -0.033601 0.096012
v -0.074421 -0.033594 0.089669
v -0.014879 -0.019666 0.098568
v 0.030719 -0.036131 0.054207
v 0.045918 0.036056 -0.093964
f 39 21 64 
f 2 3 15 
f 2 15 22 
f 6 8 24 
f 8 3 25 
f 4 21 25 
f 24 8 25 
f 11 24 25 
f 2 22 27 
f 14 12 28 
f 17 1 29 
f 26 18 29 
f 12 14 30 
f 6 4 31 
f 4 13 31 
f 23 6 31 
f 13 23 31 
f 8 18 32 
f 26 7 32 
f 18 26 32 
f 15 3 33 
f 23 13 34 
f 10 5 35 
f 24 11 36 
f 10 1 37 
f 1 17 37 
f 3 8 38 
f 33 3 38 
f 19 33 38 
f 10 30 40 
f 30 14 40 
f 21 16 41 
f 25 21 41 
f 11 25 41 
f 36 11 41 
f 8 6 42 
f 18 8 42 
f 17 18 42 
f 6 23 42 
f 10 37 42 
f 37 17 42 
f 7 9 43 
f 32 7 43 
f 15 32 43 
f 9 7 44 
f 7 14 44 
f 28 9 44 
f 14 28 44 
f 7 10 45 
f 14 7 45 
f 10 40 45 
f 40 14 45 
f 9 5 46 
f 5 13 46 
f 18 17 47 
f 17 29 47 
f 29 18 47 
f 5 10 48 
f 13 5 48 
f 10 34 48 
f 34 13 48 
f 34 10 49 
f 23 34 49 
f 42 23 49 
f 10 42 49 
f 8 32 50 
f 32 19 50 
f 38 8 50 
f 19 38 50 
f 13 4 51 
f 4 27 51 
f 27 20 51 
f 46 13 51 
f 20 46 51 
f 1 26 52 
f 29 1 52 
f 26 29 52 
f 3 2 53 
f 25 3 53 
f 4 25 53 
f 2 27 53 
f 27 4 53 
f 30 10 54 
f 12 30 54 
f 10 35 54 
f 54 35 55 
f 35 5 55 
f 12 54 55 
f 16 6 56 
f 6 24 56 
f 24 36 56 
f 41 16 56 
f 36 41 56 
f 6 16 57 
f 16 21 57 
f 39 6 57 
f 21 39 57 
f 20 27 58 
f 27 22 58 
f 46 20 58 
f 5 9 59 
f 9 12 59 
f 55 5 59 
f 12 55 59 
f 22 15 60 
f 43 9 60 
f 15 43 60 
f 9 46 60 
f 58 22 60 
f 46 58 60 
f 10 7 61 
f 1 10 61 
f 7 26 61 
f 26 1 61 
f 32 15 62 
f 19 32 62 
f 15 33 62 
f 33 19 62 
f 12 9 63 
f 9 28 63 
f 28 12 63 
f 4 6 64 
f 21 4 64 
f 6 39 64 
