# https://github.com/mikedh/trimesh
v -0.77118713 -0.17061962 0.38439450
v -0.77118498 -0.17066368 0.38444874
v -0.87578344 0.40597403 0.18717329
v -0.84124851 -0.15253550 0.31146654
v -0.48211712 -0.22535962 -0.07275549
v -0.48210976 -0.22917104 -0.07647967
v -0.50165713 -0.10816962 -0.64075547
v -0.81561685 -0.18021411 0.36734244
v -0.77121586 -0.16663450 0.38022080
v -0.77127713 -0.17066963 0.38439450
v -0.77118713 -0.16686963 0.38049451
v -0.50246412 -0.08685194 -0.63098121
v -0.63454825 0.01684609 0.14997235
v -0.47443384 -0.24111944 -0.09481818
v -0.78692287 0.45827106 0.19332305
v -0.78692710 0.45822036 0.19299451
v -0.80243713 0.45041037 0.19497451
v -0.79455310 0.45425624 0.19299632
v -0.79443711 0.45432037 0.19299451
v -0.79463178 0.45421064 0.19297996
v -0.62519586 -0.07177474 0.36495560
v -0.76889580 -0.16283123 0.37765402
v -0.73004693 -0.19122037 0.43099940
v -0.77100414 -0.16679142 0.38051498
v -0.77855027 -0.17832763 0.38794759
v -0.50045371 -0.23371191 -0.08133856
v -0.74208051 0.02885782 -0.30996731
v -0.46667126 -0.11596657 0.02894816
v -0.57097220 -0.06411169 -0.59934115
v -0.78680712 0.45822036 0.19250451
v -0.77438235 0.46387935 0.18629995
v -0.80632478 0.45050251 0.21174899
v -0.80754167 0.44519737 0.17541493
v -0.77249098 0.46497416 0.22992747
v -0.65202713 0.09104037 -0.34606549
v -0.81443459 -0.32628292 0.51586133
v -0.44305715 -0.47535962 0.07567451
v -0.74917126 -0.11752699 0.34241173
v -0.63603085 0.07371535 -0.43082491
v -0.66180712 0.08713038 -0.35778549
v -0.66566712 0.08322038 -0.35777548
v -0.66180712 0.08713038 -0.35777548
v -0.74190277 0.04064979 -0.24569668
v -0.59930712 0.19651037 -0.26401550
v -0.59930611 0.19652328 -0.26403138
v -0.63051087 0.00885139 0.17325117
v -0.65040982 0.08889520 -0.35384536
v -0.39433917 -0.32305217 -0.13893588
v -0.40008715 -0.32301962 -0.13888548
v -0.39095908 -0.31642625 -0.12798394
v -0.65404135 0.09492116 -0.35791203
v -0.59623921 0.14439027 -0.37613019
v -0.65008712 0.09494037 -0.34210548
v -0.65008712 0.09492038 -0.34215549
v -0.65006715 0.09494037 -0.34215549
v -0.65790713 0.09104037 -0.35787550
v -0.64620715 0.09885038 -0.34215549
v -0.64618713 0.09885038 -0.34219548
v -0.65880430 0.08931918 -0.33563077
v -0.78788424 -0.02202537 0.14031810
v -0.65408713 0.09494037 -0.35777548
v -0.65399712 0.09696038 -0.35387549
v -0.65794712 0.09104037 -0.35777548
v -0.65789771 0.09107010 -0.35783711
v -0.62264174 0.01682989 0.15779889
v -0.46642715 -0.11988963 0.02502451
v -0.46258715 -0.11457962 0.02893451
v -0.63637716 0.13401037 -0.31481549
v -0.48257267 -0.23514034 -0.08215313
v -0.48208076 -0.23317416 -0.08040448
v -0.64607096 0.09906579 -0.34199360
v -0.66240871 0.08971495 -0.35129514
v -0.65392715 0.09104037 -0.34215549
v -0.63446712 0.13210037 -0.32262549
v -0.46649715 -0.12379962 0.02123451
v -0.44183964 -0.12588546 0.01104305
v -0.63446712 0.13401037 -0.31874549
v -0.63447714 0.13401037 -0.31871548
v -0.63446712 0.13402037 -0.31871548
v -0.62665713 0.01579038 0.15783451
v -0.63966292 0.13254382 -0.31105393
v -0.63061714 0.13791038 -0.31871548
v -0.62664616 0.01298413 0.16508856
v -0.62659043 0.01284043 0.16549927
v -0.62272406 0.01679994 0.15780824
v -0.61715400 0.14786868 -0.32612893
v -0.48211712 -0.23316963 -0.08038549
v -0.48211712 -0.22926962 -0.07657548
v -0.63833714 0.13010038 -0.31871548
v -0.63839251 0.13006589 -0.31867319
v -0.65685403 0.10047922 -0.34068477
v -0.63009375 0.13459998 -0.32647574
v -0.60316539 0.19259383 -0.26404479
v -0.60321712 0.19260037 -0.26392549
v -0.60316712 0.19260037 -0.26402548
v -0.58262146 0.21229802 -0.26751944
v -0.63108301 0.18556952 -0.20809966
v -0.59930712 0.19458038 -0.26793548
v -0.44151065 -0.46357235 0.13364685
v -0.48224187 -0.22935484 -0.07661624
v -0.62953877 0.13884921 -0.31903458
v -0.67886931 0.10835007 -0.25501937
v -0.59997535 0.22101116 -0.19408321
v -0.41851836 -0.44623199 -0.32483748
v -0.61467659 0.16892983 -0.28841433
v -0.44696167 -0.47932449 0.07580456
v -0.59930712 0.19650038 -0.26402548
v -0.60702711 0.18869038 -0.26402548
v -0.50991267 -0.08861522 0.07220431
v -0.42038357 -0.18086839 -0.04992140
v -0.56438178 0.20818180 -0.49054340
v -0.50949508 -0.11997331 -0.64294410
v -0.50559533 -0.10782224 -0.63906127
v -0.43907380 0.26794997 -0.40363407
v -0.56415713 0.20822038 -0.49048549
v -0.59736729 0.19288684 -0.27532810
v -0.55363715 0.20822038 -0.49059549
v -0.56928438 0.26463908 -0.40728921
v -0.50944531 -0.11989177 -0.64292520
v -0.61986393 0.04945520 0.07214542
v -0.38248250 -0.29774156 -0.09702229
v -0.55421060 -0.14451259 0.02420298
v -0.45882463 -0.50695866 0.04675997
v -0.46649715 -0.11988963 0.02504451
v -0.46649715 -0.11598962 0.02886451
v -0.55795556 0.21608596 -0.47896963
v -0.56024712 0.20822038 -0.49052548
v -0.55633712 0.20822038 -0.49056548
v -0.56024712 0.20818037 -0.49059549
v -0.55633712 0.20821038 -0.49059549
v -0.52134711 0.24729037 -0.23668548
v -0.52118713 0.24731037 -0.24059549
v -0.51394081 0.24933019 -0.23486371
v -0.52127713 0.24729037 -0.24059549
v -0.45460293 0.26991430 -0.41480556
v -0.52118713 0.24729037 -0.24583548
v -0.46652663 -0.11993518 0.02500773
v -0.44689715 -0.47926962 0.07580451
v -0.50555712 -0.10816962 -0.63923544
v -0.36235717 -0.40113962 -0.29918548
v -0.35718715 -0.39723963 -0.29527548
v -0.40008715 -0.32309961 -0.13902549
v -0.40399715 -0.32301962 -0.13888548
v -0.52310354 0.24670394 -0.25160816
v -0.52118713 0.24729037 -0.24449550
v -0.52120715 0.24729037 -0.24449550
v -0.56254637 0.19119461 -0.53295881
v -0.35711712 -0.39729962 -0.31871548
v -0.44305715 -0.47531962 0.07580451
v -0.44054717 -0.47144961 0.07971451
v -0.43929717 -0.47144961 0.07580451
v -0.44309714 -0.47535962 0.07580451
v -0.44434717 -0.47535962 0.07971451
v -0.34149715 -0.38564962 -0.33824548
v -0.34149715 -0.38562962 -0.33434549
v -0.41064662 -0.44061786 0.07915608
v -0.56964600 0.23409230 -0.22387432
v -0.56129521 0.30564055 -0.34778836
v -0.45860305 0.31543267 -0.34755960
v -0.46263346 0.30583999 -0.36165547
v -0.46258715 0.30588037 -0.36159548
v -0.45823517 0.30040276 -0.36969733
v -0.45477715 0.30587038 -0.36168548
v -0.45477715 0.30588037 -0.36166549
v -0.45318717 0.30588037 -0.36168548
v -0.40084514 0.28898758 -0.24279886
v -0.35208869 -0.30233136 -0.10465593
v -0.43913114 -0.47135070 0.07556639
v -0.35321715 -0.31129962 -0.11949549
v -0.35711712 -0.31129962 -0.11949549
v -0.35711712 -0.31129962 -0.11948549
v -0.30450484 -0.35115454 -0.16885558
v -0.33418715 -0.38978767 -0.30780980
v -0.34941715 -0.40113962 -0.29137549
v -0.37927130 -0.24432237 -0.00176146
v -0.47606605 -0.14533965 -0.68521714
v -0.36567810 -0.33519313 -0.15901680
v -0.44107267 0.26949498 -0.25928092
v -0.40566882 -0.32312781 -0.13907759
v -0.34133714 -0.38551962 -0.33434549
v -0.44315606 0.30116600 -0.35480538
v -0.44028717 0.30979037 -0.34215549
v -0.43915716 0.30979037 -0.34215549
v -0.45868713 0.30584037 -0.36168548
v -0.45868713 0.30588037 -0.36163551
v -0.43915716 0.30979037 -0.34216550
v -0.46571779 0.27132398 -0.18020502
v -0.69358712 0.48314562 0.04726734
v -0.37493321 -0.42054549 -0.31584111
v -0.35518593 -0.39563468 -0.28300628
v -0.33958897 -0.39621115 -0.00973400
v -0.36233717 -0.40113962 -0.30309549
v -0.38164023 -0.41571388 -0.31267330
v -0.39618713 -0.32309961 -0.13902549
v -0.34888113 -0.32298213 -0.13881703
v -0.36493713 -0.31129962 -0.11949549
v -0.34144714 -0.38551962 -0.31871548
v -0.33848608 -0.38325575 -0.31328565
v -0.34141716 -0.38551962 -0.32262549
v -0.36489004 -0.41287723 -0.31110263
v -0.29333302 -0.29908812 -0.09930729
v -0.28669378 -0.03119388 0.04459678
v -0.36684218 -0.40455043 -0.30687168
v -0.35711712 -0.39727962 -0.31481549
v -0.35711712 -0.39725962 -0.31090549
v -0.35708714 -0.39723963 -0.31090549
v -0.37269890 -0.40897569 -0.31134480
v -0.37274715 -0.40900964 -0.31090549
v -0.39623505 0.28245607 -0.18534231
v -0.39618713 0.28245038 -0.18981549
v -0.36802161 -0.40576184 -0.37523282
v -0.37764353 -0.41265380 -0.31786203
v -0.43524715 0.30979037 -0.34220549
v -0.43524715 0.30982038 -0.34215549
v -0.37277716 -0.40894961 -0.29527548
v -0.37280712 -0.40894961 -0.29137549
v -0.37274715 -0.40890962 -0.29137549
v -0.39352354 0.30030569 -0.35668299
v -0.43133715 0.30985036 -0.34215549
v -0.42352715 0.30197036 -0.35382548
v -0.42352715 0.30194038 -0.35387549
v -0.41961712 0.30197036 -0.35387549
v -0.42198020 0.30593103 -0.34801000
v -0.42362025 0.30049297 -0.35596612
v -0.42743713 0.30192038 -0.35387549
v -0.42743713 0.30197036 -0.35378549
v -0.43201426 0.31460485 -0.33370963
v -0.39618713 0.29026037 -0.24910550
v -0.39618713 0.29026037 -0.24840549
v -0.39619872 0.29028311 -0.24329822
v -0.38785782 0.29261535 -0.24206080
v -0.41961712 0.30197036 -0.35386550
v -0.41893712 0.30197036 -0.35387549
v -0.42954585 0.30980298 -0.34224167
v -0.43133715 0.30197036 -0.35374549
v -0.36493713 -0.41286963 -0.30309549
v -0.36493713 -0.41285962 -0.30081549
v -0.35321715 0.29416037 -0.24340549
v -0.36760125 0.28054246 -0.51828003
v -0.36191735 0.29175392 -0.24013032
v -0.35711712 -0.40701962 -0.30699548
v -0.34930715 -0.40113962 -0.30683550
v -0.37269714 -0.40894961 -0.30699548
v -0.37272713 -0.40894961 -0.30309549
v -0.37282717 -0.40894961 -0.28746548
v -0.35711712 -0.39723963 -0.30699548
v -0.35710716 -0.39723963 -0.30699548
v -0.37274715 -0.40898964 -0.30699548
v -0.37274715 -0.40896961 -0.30309549
v -0.35711712 -0.39723963 -0.30565548
v -0.35711712 -0.39721963 -0.30309549
v -0.35713714 -0.39723963 -0.30309549
v -0.34149715 -0.38558963 -0.32652548
v -0.34149715 -0.38556963 -0.32262549
v -0.35307539 -0.39373654 -0.24969022
v -0.44574794 -0.35469747 -0.17754234
v -0.34930715 -0.40107962 -0.29527548
v -0.34935716 -0.40113962 -0.29918548
v -0.34930715 -0.40109962 -0.29918548
v -0.33138621 -0.38766587 -0.42031008
v -0.35711712 -0.39719963 -0.29918548
v -0.35705581 -0.39727646 -0.32292944
v -0.35705715 -0.39723963 -0.31481549
v -0.35702714 -0.39723963 -0.31871548
v -0.37274715 -0.40894961 -0.29963550
v -0.37274715 -0.40894961 -0.29918548
v -0.34938717 -0.40113962 -0.29527548
v -0.36491716 -0.41285962 -0.30309549
v -0.34149715 -0.38551962 -0.31166551
v -0.34149715 -0.38551962 -0.31090549
v -0.34149715 -0.38550964 -0.31090549
v -0.35716715 -0.39723963 -0.29918548
v -0.37507668 -0.41070312 -0.30013028
v -0.34152716 -0.38551962 -0.30699548
v -0.34149715 -0.38548961 -0.30699548
v -0.34136713 -0.38551962 -0.33043548
v -0.33758715 -0.31130964 -0.11949549
v -0.33368713 -0.31130964 -0.11949549
v -0.36102715 -0.31129962 -0.11949549
v -0.37665716 -0.31129962 -0.11949549
v -0.36365095 -0.41182345 -0.29823422
v -0.35321715 -0.31129962 -0.11948549
v -0.37274715 -0.40892962 -0.29527548
v -0.44651824 -0.00000378 0.15159619
v -0.29295266 0.13306922 -0.58692020
v -0.34930715 -0.40111962 -0.30309549
v -0.34933716 -0.40113962 -0.30309549
v -0.35711712 -0.39731961 -0.32262549
v -0.38036102 0.28688681 -0.18640034
v -0.40266749 0.28062087 -0.19372068
v -0.39626712 0.28244036 -0.18590549
v -0.39618713 0.28244036 -0.19059549
v -0.39619717 0.28244036 -0.18981549
v -0.41999334 0.27594346 -0.17060687
v -0.39616561 0.28244600 -0.19093958
v -0.26664484 0.15481576 0.92014915
v -0.39619717 0.29026037 -0.24840549
v -0.39626712 0.29026037 -0.24449550
v -0.30476984 0.15216038 -0.53320467
v -0.18918508 -0.34927082 0.02846048
v -0.29124588 0.16424961 -0.54009390
v -0.34930715 -0.31129962 -0.11948549
v -0.34540716 -0.31129962 -0.11949549
v -0.34930715 -0.31129962 -0.11949549
v -0.40391687 0.28795204 -0.28136396
v -0.36102715 -0.31129962 -0.11948549
v -0.36493713 -0.31129962 -0.11948549
v -0.36883715 0.29021037 -0.16246548
v -0.36876717 0.29026037 -0.15856549
v -0.36883715 0.29023036 -0.15856549
v -0.34149715 -0.38554963 -0.31871548
v -0.34147713 -0.38551962 -0.31481549
v -0.34413716 -0.39723963 -0.30309549
v -0.33758715 -0.31129962 -0.11948549
v -0.33368713 -0.31129962 -0.11948549
v -0.32977715 -0.31130964 -0.11949549
v -0.32977715 -0.31129962 -0.11948549
v -0.34834129 -0.39081517 -0.34088066
v -0.20483486 -0.34645873 0.00175152
v -0.36493713 -0.41290963 -0.31090549
v -0.36493713 -0.41288963 -0.30699548
v -0.34149715 -0.38544962 -0.29918548
v -0.34160715 -0.38551962 -0.29527548
v -0.33729082 -0.38221771 -0.28778604
v -0.34157717 -0.38551962 -0.29918548
v -0.34139714 -0.38551962 -0.32652548
v -0.34149715 -0.38552964 -0.31481549
v -0.36488715 -0.41285962 -0.30699548
v -0.34149715 -0.38560963 -0.33043548
v -0.34155712 -0.38551962 -0.30309549
v -0.34149715 -0.38546962 -0.30309549
v -0.20495716 -0.34644961 0.00158451
v -0.20516001 -0.34640160 0.00119590
v -0.36883715 -0.31129962 -0.11948549
v -0.37274715 -0.31129962 -0.11948549
v -0.35000375 -0.39189604 -0.30782452
v -0.32586712 -0.31129962 -0.11948549
v -0.37274715 -0.31129962 -0.11949549
v -0.36883715 -0.31129962 -0.11949549
v -0.32196715 -0.31129962 -0.11948549
v -0.30652875 0.18009537 -0.48959303
v -0.32586712 -0.31130964 -0.11949549
v -0.32196715 -0.31130964 -0.11949549
v -0.34149715 -0.31129962 -0.11948549
v -0.34138352 -0.38557032 -0.33879894
v -0.31731021 -0.01788346 0.06724788
v -0.33852810 -0.09407101 -0.02527780
v -0.31545117 -0.23833428 0.01418774
v -0.34753737 -0.08865127 0.00408502
v -0.29071715 -0.24488962 0.00548451
v -0.29461712 -0.24488962 0.00549451
v -0.29461712 -0.24488962 0.00548451
v -0.32885557 -0.24664433 0.00265504
v -0.29287153 -0.34257403 -0.17409882
v -0.35321715 0.29412037 -0.25231549
v -0.31271401 -0.36420888 -0.31995013
v -0.31408274 0.14958400 -0.52978498
v -0.46475035 0.25356498 -0.41065273
v -0.36879709 0.29022655 -0.15365040
v -0.33324483 0.29973397 -0.24321114
v -0.35895228 0.29306459 -0.17729041
v -0.35319716 0.29416037 -0.24449550
v -0.35312715 0.29416037 -0.24840549
v -0.35321715 0.29416037 -0.24449550
v -0.35321715 0.29414037 -0.24840549
v -0.29704621 0.15830687 -0.54755050
v -0.28960314 0.31365424 -0.20112517
v -0.36883715 0.29026037 -0.15465549
v -0.32196715 0.30580038 -0.45934549
v -0.35316741 0.29413128 -0.25240734
v -0.32196715 0.30677038 -0.45543548
v -0.27920127 0.31758666 -0.45136783
v -0.34170198 0.30564767 -0.19943757
v -0.31805715 -0.31130964 -0.11949549
v -0.31805715 -0.31129962 -0.11948549
v -0.27118713 -0.24488962 0.00549451
v -0.25575668 -0.36753464 0.01763880
v -0.30243713 -0.24488962 0.00548451
v -0.29852715 -0.24488962 0.00548451
v -0.31415716 -0.31130964 -0.11949549
v -0.31415716 -0.31129962 -0.11948549
v -0.34540716 -0.31129962 -0.11948549
v -0.34149715 -0.31129962 -0.11949549
v -0.30633715 -0.24488962 0.00549451
v -0.30633715 -0.24488962 0.00548451
v -0.32254264 -0.32775316 -0.14574645
v -0.29071715 -0.24488962 0.00549451
v -0.31437102 0.14971618 -0.54968673
v -0.30633715 0.15348038 -0.54918545
v -0.31415716 -0.24488962 0.00549451
v -0.30243713 -0.24488962 0.00549451
v -0.52051413 -0.02245160 0.29998216
v -0.30656594 -0.04185308 0.03671902
v -0.30633715 -0.04176962 0.03675451
v -0.28437915 -0.25664669 -0.01395331
v -0.28500617 -0.24101980 0.01204185
v -0.29852504 -0.06130691 -0.06089758
v -0.29466578 -0.05735804 -0.05689630
v -0.31024715 -0.24488962 0.00549451
v -0.32000759 0.16051427 -0.50098366
v -0.31024715 -0.24488962 0.00548451
v -0.32797232 0.14654532 -0.52313250
v -0.27652448 -0.02441195 0.03360380
v -0.29851261 -0.06131052 -0.06093989
v -0.30636716 -0.05738962 -0.02574549
v -0.30633715 -0.05736963 -0.02574549
v -0.30253717 -0.05348962 -0.02184549
v -0.30243713 -0.05348962 -0.02210549
v -0.31819379 0.14962731 -0.52574646
v -0.29466715 -0.05738962 -0.05699549
v -0.31805715 0.14963037 -0.52586544
v -0.31862220 0.14971434 -0.52511638
v -0.31416717 0.14963037 -0.52965546
v -0.29400751 0.16526020 -0.51473469
v -0.30608615 0.15341735 -0.54957259
v -0.31415716 0.14964038 -0.52965546
v -0.25946715 0.21604037 -0.43610549
v -0.29875821 0.31759873 -0.21745177
v -0.24674021 0.18883219 -0.52904630
v -0.29620323 0.18267697 -0.47432870
v -0.30965534 0.15333953 -0.52584445
v -0.29461712 0.16530037 -0.51402551
v -0.32583714 0.30588037 -0.45543548
v -0.32625380 0.30584422 -0.45513526
v -0.31053796 0.15361530 -0.54489517
v -0.31021717 0.15354037 -0.54527551
v -0.31792608 0.30577749 -0.46318370
v -0.32167438 0.30588064 -0.45930904
v -0.29495704 0.31567475 -0.24041507
v -0.37264132 0.30029196 -0.08866884
v -0.30243713 0.31651038 -0.22887547
v -0.29852715 -0.24488962 0.00549451
v -0.28290716 -0.24488962 0.00548451
v -0.28680715 -0.24488962 0.00548451
v -0.11642739 -0.32873026 0.61358988
v -0.31024715 -0.31134963 -0.11949549
v -0.20086715 -0.34644961 0.00603451
v -0.28290716 -0.24488962 0.00549451
v -0.30241442 -0.06520475 -0.06463559
v -0.28680715 -0.24488962 0.00549451
v -0.26727715 -0.24488962 0.00548451
v -0.27899715 -0.24488962 0.00548451
v -0.29461712 -0.05738962 -0.05712549
v -0.27899715 -0.24488962 0.00549451
v -0.27508715 -0.24488962 0.00549451
v -0.25555715 0.21431038 -0.44371548
v -0.27508715 -0.24488962 0.00548451
v -0.30656716 -0.03785962 0.04064451
v -0.20580858 -0.34404668 -0.00741950
v -0.30555415 -0.03489750 0.04307205
v -0.30782714 -0.05738962 -0.02184549
v -0.27481273 -0.04042888 -0.04840694
v -0.29852715 -0.06129962 -0.06084549
v -0.29071715 -0.05554963 -0.06090549
v -0.29852715 -0.05160962 -0.02574549
v -0.31166714 -0.06129962 -0.02574549
v -0.30625895 0.15354308 -0.54912728
v -0.30399716 -0.05348962 -0.01793549
v -0.27061105 -0.03351696 -0.00098936
v -0.30635059 -0.05740496 -0.02585049
v -0.27118713 -0.24488962 0.00548451
v -0.30243713 -0.05340962 -0.02184549
v -0.30631715 -0.04176962 0.03674451
v -0.30633715 -0.03785962 0.04057451
v -0.25555715 0.21608037 -0.43981549
v -0.25328690 0.22367720 -0.42549434
v -0.40262327 0.08294790 -0.59921402
v -0.30624852 0.16531309 -0.50270587
v -0.29461333 0.16525586 -0.51414990
v -0.29852715 0.31762037 -0.22496548
v -0.29852715 0.31764036 -0.22106549
v -0.29861715 0.31760037 -0.22496548
v -0.27534962 0.14882785 -0.58948702
v -0.31024715 0.15352038 -0.54527551
v -0.25950554 0.16527067 -0.56865358
v -0.26336712 0.16355038 -0.56871545
v -0.29347581 0.16962595 -0.50559658
v -0.29852715 0.16526037 -0.51033545
v -0.25948334 0.16525704 -0.56874388
v -0.29849207 0.16533069 -0.51020622
v -0.29893401 0.16524225 -0.50998110
v -0.23220485 0.18412894 0.89752305
v -0.25165716 0.16517037 -0.57652551
v -0.25556013 0.16523920 -0.57259023
v -0.25555354 0.16526248 -0.57255495
v -0.22430715 0.23160037 -0.43590549
v -0.06568658 0.36622614 -0.01677239
v -0.25755173 0.18481173 -0.52738053
v -0.25548714 0.16526037 -0.57262546
v -0.29852715 0.31760037 -0.22887547
v -0.29853714 0.31760037 -0.22887547
v -0.29852489 0.31760141 -0.22888842
v -0.26775745 0.21015023 -0.44159889
v -0.13222650 -0.27243781 -0.02349828
v -0.24087422 -0.33920661 0.22368155
v -0.26336464 0.18477637 -0.52181947
v -0.27300993 0.20128740 -0.45552027
v -0.25565714 0.21604037 -0.43981549
v -0.25555715 0.21604037 -0.43990549
v -0.22059420 -0.35346401 0.00821767
v -0.25401723 -0.22817276 0.39757803
v -0.26591831 0.17992468 -0.50959593
v -0.20854715 -0.34644961 -0.00231549
v -0.24774721 0.16336176 -0.58434278
v -0.25946715 0.18471037 -0.52574545
v -0.25165716 0.16526037 -0.57635546
v -0.26335111 0.18479297 -0.52179927
v -0.24287403 0.20453408 -0.49818650
v -0.26331717 0.18479037 -0.52184552
v -0.25946715 0.18479037 -0.52558547
v -0.25165716 0.21604037 -0.44370550
v -0.22821899 0.21221097 -0.47496241
v -0.22821714 0.21213037 -0.47513551
v -0.22430715 0.21216038 -0.47887549
v -0.22437714 0.21213037 -0.47887549
v -0.25166208 0.21602994 -0.44370878
v -0.37193999 0.32116574 -0.32346860
v -0.10711715 -0.19407962 0.39221451
v -0.22040714 0.18479037 0.89204454
v -0.22430773 0.18086980 0.89221418
v -0.20882194 -0.34646881 -0.00254212
v -0.20868714 -0.34649962 -0.00231549
v -0.21704231 -0.24024239 0.00781971
v -0.22717780 -0.22923350 0.41695759
v -0.25129178 0.16528121 -0.57664675
v -0.16205722 0.18725266 -0.59265673
v -0.21820574 0.17724988 -0.58247185
v -0.16133267 -0.00806959 -0.13754649
v -0.21950912 -0.03065460 -0.14195366
v -0.22821714 0.23165037 -0.43199548
v -0.21258715 0.21595037 -0.50231546
v -0.22300428 0.20861506 -0.50836724
v -0.21650288 0.21601556 -0.49837014
v -0.19519264 0.18976936 -0.55666435
v -0.18897022 0.22775851 -0.47878978
v -0.22848926 0.21212314 -0.47489545
v -0.19690715 0.22776037 -0.47106549
v -0.19305715 0.22768037 -0.47496548
v -0.19293456 0.22776516 -0.47491330
v -0.23211715 0.23166038 -0.42817548
v -0.23216853 0.23165859 -0.42813376
v -0.22429687 0.21211532 -0.47897688
v -0.22081693 0.21587418 -0.49445271
v -0.22472899 0.21648136 -0.48933399
v -0.22634210 0.22236153 -0.45458624
v -0.21193422 0.21601716 -0.50281483
v -0.22473860 0.18090951 0.89038438
v -0.22821714 0.17907037 0.89611453
v -0.22430715 0.18088037 0.89223456
v -0.21891205 0.18604554 0.89128506
v -0.22429714 0.18088037 0.89221454
v -0.22046715 0.18479037 0.89221454
v -0.18915714 0.18875037 -0.56481546
v -0.22038282 0.21605898 -0.49450359
v -0.23602714 0.23166038 -0.42437550
v -0.23202720 0.23175360 -0.42806819
v -0.22040714 0.21604037 -0.49452549
v -0.22819716 0.23166038 -0.43199548
v -0.22821714 0.23166038 -0.43197548
v -0.24076632 0.25191167 -0.38328376
v -0.22430715 0.23337038 -0.43199548
v -0.23767747 0.23540659 0.76672298
v -0.08321381 0.38425007 0.59800571
v -0.21258715 0.21772037 -0.49840549
v -0.20053130 0.22663641 -0.47001472
v -0.18991807 0.24556473 -0.45253485
v -0.12657224 -0.28005305 0.54061604
v -0.19628091 0.32527468 -0.48839509
v -0.08758714 -0.20902963 0.41955450
v -0.13048631 -0.27613956 0.53287715
v -0.13061079 -0.27614096 0.53283906
v -0.18524714 0.18870038 -0.56871545
v -0.21641715 0.21604037 -0.49840549
v -0.21649714 0.21604037 -0.49832550
v -0.19289714 0.22776037 -0.47496548
v -0.18510698 0.23119114 -0.49532440
v -0.19074106 0.18874583 -0.56326526
v -0.19505930 0.17962889 -0.57900202
v -0.18915714 0.18869038 -0.56493545
v -0.18915714 0.22763038 -0.47887549
v -0.15708265 0.20651144 -0.57718074
v -0.18527155 0.18867935 -0.56871468
v -0.18524714 0.22759037 -0.48277548
v -0.12662098 -0.28005654 0.54059792
v -0.07588972 0.34263036 0.28173956
v -0.17901245 0.23040408 -0.48685059
v -0.05969689 0.10824924 -0.79566437
v -0.14618714 -0.20973963 -0.00568549
v -0.12683494 -0.28013533 0.54062712
v -0.07196714 -0.20191963 0.41017452
v -0.12665714 -0.27257964 0.52893454
v -0.13554592 -0.29047456 0.55308914
v -0.10203324 0.00514488 -0.13268906
v -0.10730220 -0.19467124 0.39365938
v -0.14227714 -0.21754962 -0.00237549
v -0.14220975 -0.21768527 -0.00231670
v -0.18406019 0.23757569 -0.47007173
v -0.23532465 -0.28512168 0.48612851
v -0.20966467 0.19423151 -0.53323686
v -0.14227714 0.35276037 -0.31110549
v -0.14618714 0.35276037 -0.30736548
v -0.11102715 0.01682038 -0.10798549
v -0.11546909 0.01653878 -0.10505635
v -0.12344808 0.35662031 -0.29219997
v -0.14792517 0.35277322 -0.30553925
v -0.09955711 -0.18629897 0.37658268
v -0.10331988 -0.19018479 0.38441041
v 0.13014039 -0.05529026 -0.58766329
v -0.08712932 -0.05774024 0.86094910
v -0.14153714 -0.21363963 -0.00621549
v -0.14618714 -0.21754962 0.00078451
v -0.15383710 -0.19456719 -0.01762997
v -0.14618714 -0.21379963 -0.00231549
v -0.14235714 -0.21754962 -0.00231549
v -0.14634715 -0.21363963 -0.00231549
v -0.15008715 -0.21363963 0.00071451
v -0.14618714 -0.21363963 -0.00244549
v -0.10732119 -0.19405672 0.39204797
v -0.07579714 -0.05348962 0.86486453
v -0.05471309 -0.05226918 0.87959152
v -0.10344030 -0.19017652 0.38431591
v -0.14227714 0.35278037 -0.31090549
v -0.15752496 0.34869668 -0.33532840
v -0.13836715 0.35276037 -0.31481549
v -0.13836150 0.35276064 -0.31486258
v -0.11002084 0.00925332 -0.14369696
v -0.10711715 0.01596038 -0.11559549
v -0.10711715 0.01681038 -0.11168549
v -0.10321714 0.01682038 -0.11535549
v -0.10314811 0.01680250 -0.11550881
v -0.10321714 0.01762038 -0.11168549
v -0.10711715 0.01682038 -0.11167549
v -0.11097393 0.01687861 -0.10773397
v -0.09525868 0.00511814 -0.13918412
v -0.06306792 0.03003606 -0.09230465
v -0.04823227 -0.01583217 -0.31722447
v -0.04613016 -0.25321767 0.52408081
v -0.08001297 -0.20580725 0.41557136
v -0.07600079 -0.20189515 0.40783104
v -0.07586715 -0.20191963 0.40797451
v -0.11392389 -0.16211660 0.96825635
v -0.10710714 0.01682038 -0.11168549
v -0.09930715 0.00511038 -0.13541549
v -0.09930715 0.00517038 -0.13512547
v -0.09540715 0.00512038 -0.13902549
v -0.11111117 0.00685597 -0.11627646
v -0.05119003 0.11281162 0.65914625
v -0.07594448 -0.19380488 0.38717872
v -0.01106945 -0.21078368 0.48112237
v -0.16793983 0.20369561 -0.63039905
v -0.10563094 0.42213702 0.51547980
v -0.06415715 0.38556036 0.60705447
v -0.08173379 0.36055735 0.65660000
v -0.03253966 0.42175764 0.45456386
v -0.07977715 -0.20577963 0.41564450
v -0.07979766 -0.20583336 0.41576582
v -0.06778588 -0.05212412 0.86948383
v -0.05632781 0.00127447 -0.19357719
v -0.07579857 -0.04922031 0.86028093
v -0.07601232 -0.04994989 0.86090493
v -0.07586715 -0.04989962 0.86096454
v -0.07586715 -0.05348962 0.86481446
v -0.07586561 -0.05355467 0.86487907
v -0.06367119 -0.01438813 -0.29611251
v -0.10017536 -0.02639474 -0.31680384
v -0.04446051 0.09887277 0.70083421
v -0.04852715 0.09877037 0.69689453
v -0.04867464 0.09886634 0.69650686
v -0.00043204 -0.17786774 0.39850932
v -0.00346471 0.27734613 0.59454942
v -0.05998328 0.35491717 -0.30539992
v -0.06406240 0.38396749 0.61100972
v -0.07177739 0.38014865 0.61519825
v -0.07196714 0.38023037 0.61486453
v -0.07393678 0.38023937 0.61353385
v -0.06415715 0.38396037 0.61096454
v -0.06415715 0.38401037 0.61084455
v -0.04491264 0.39086488 0.60688168
v -0.00947695 0.17304789 -0.61172968
v -0.01336715 0.42307037 0.53048456
v -0.08463544 0.42265666 0.50376612
v 0.00224285 0.17684038 0.53674453
v 0.00615285 0.17689037 0.54064453
v -0.05182471 -0.00170030 -0.21155438
v -0.05633715 0.00120038 -0.19388549
v -0.17342405 0.03201510 0.02171732
v 0.00801299 0.18640494 0.51933503
v -0.04832715 0.09885038 0.69689453
v -0.01242349 -0.09101074 0.95850551
v -0.06163262 0.00018569 -0.19358727
v -0.06024715 -0.01441962 -0.29947549
v -0.05638012 -0.01441628 -0.30309978
v -0.05397758 -0.00090812 -0.20580719
v -0.05631388 -0.01440767 -0.30310908
v -0.06024715 -0.01435962 -0.29918548
v -0.05633715 -0.01440962 -0.30309549
v -0.05243714 0.00119038 -0.19762547
v -0.05243714 0.00120038 -0.19756550
v -0.05239256 0.00120302 -0.19759589
v -0.04950095 -0.00823701 -0.28023234
v -0.00946715 0.15907037 0.56799453
v -0.04461715 0.09885038 0.70073456
v -0.05680513 0.09511688 0.69729429
v -0.04433097 0.09855388 0.70172799
v -0.01099014 0.15843888 -0.65114701
v -0.03310654 0.14571683 -0.70934933
v -0.03287268 0.14568497 -0.70931941
v -0.02356213 0.13822512 -0.72157627
v -0.05847891 0.08805620 0.69427407
v -0.00555715 0.17353037 0.53674453
v -0.00165706 0.16526017 -0.62732512
v 0.00097725 0.17693806 0.53517395
v -0.01749700 0.42306072 0.52883881
v 0.00243679 0.41973308 0.54815608
v -0.01717715 0.42307037 0.52893454
v -0.01336715 0.42697036 0.51732457
v 0.06103221 0.49842268 -0.33088803
v 0.00555018 0.15166800 -0.68110234
v -0.18677633 -0.02751604 -0.24507514
v -0.02899715 0.14495037 -0.70934552
v 0.00252993 0.17694196 0.53674561
v 0.02959285 0.23270038 0.45080450
v 0.02174291 0.22775783 0.45477948
v 0.02568285 0.22785038 0.45861450
v 0.02177285 0.22779037 0.45471451
v -0.00555747 0.16916040 -0.61948705
v -0.00903238 0.15388311 0.58110440
v 0.03349285 0.13400038 0.67346454
v -0.02331706 0.01819735 -0.14728396
v -0.02426049 0.14588133 -0.70545882
v -0.00946715 0.15747038 0.57189453
v 0.00626293 0.16731688 0.56413609
v -0.00548432 0.15749229 0.57594621
v -0.00008391 0.14960586 0.60077691
v 0.02262265 0.04022127 -0.08904199
v 0.02177285 0.04026038 -0.08805549
v -0.20532946 -0.18174870 0.27589294
v 0.01396285 0.04026038 -0.08068549
v 0.01784285 0.04026038 -0.08434549
v 0.01787285 0.04026038 -0.08434549
v 0.01396285 0.04031038 -0.08043549
v -0.07271436 0.17595893 -0.64380372
v -0.03366662 0.15106736 0.56280798
v -0.02508715 0.14572038 -0.70612544
v 0.00222675 0.20551944 -0.52062768
v 0.02568285 0.13394038 0.66564453
v -0.00949080 0.15743893 0.57193381
v 0.00687530 0.23932524 0.69702530
v 0.03349285 0.13565038 0.66955447
v 0.04058699 0.20381747 0.76615173
v -0.07441998 0.06964620 0.73970050
v -0.00573715 0.15744038 0.57580447
v 0.01787285 0.03941038 -0.08824549
v -0.00562578 0.15741500 0.57599372
v -0.00165715 0.16135037 -0.63762546
v -0.00946715 0.15744038 0.57195455
v -0.00964222 0.17331539 -0.61107749
v -0.00555715 0.16471037 -0.63121545
v -0.00555612 0.16916025 -0.61948460
v 0.00229202 0.16134965 -0.63513261
v -0.00957673 0.17306800 -0.61172992
v 0.00224285 0.16136037 -0.63512546
v 0.01005285 0.17855038 0.54064453
v 0.01005285 0.17697038 0.54448456
v 0.00620886 0.17696042 0.54052824
v 0.01207460 0.04919711 -0.05836838
v 0.02910461 0.21961163 0.48228693
v -0.03570326 0.23942728 0.39224663
v -0.07604606 0.29712108 0.80200964
v 0.00985056 0.23544458 0.70548362
v 0.04410154 0.49752384 -0.30440560
v -0.00420071 0.37577191 -0.35119537
v 0.09717931 0.09875247 0.79043502
v 0.01372162 0.04025375 -0.08048493
v -0.01396584 0.42699605 0.51701963
v 0.01326572 0.49146849 -0.30649748
v 0.04532605 0.49726859 -0.30318508
v 0.13173203 0.10349759 0.80516177
v 0.04478528 0.48898670 -0.21016039
v 0.07677056 0.00963043 0.90376902
v 0.33824158 0.00901227 0.29828924
v 0.22491492 0.20432064 0.00551862
v 0.02568285 0.16596037 0.58752453
v 0.01587316 0.14055192 0.63937998
v 0.02177285 0.04106038 -0.08434549
v 0.02817216 0.13468821 0.68685335
v 0.02943316 0.13402583 0.66934115
v 0.01063595 0.04025334 -0.07758756
v 0.04507285 0.49729037 -0.30309549
v 0.04130602 0.49729037 -0.29916853
v 0.01787285 0.04026038 -0.08436549
v 0.06522014 0.34883821 -0.44807890
v 0.02959285 0.13400038 0.66955447
v 0.08260090 0.24459223 0.47717333
v 0.02569285 0.16916038 0.57971454
v 0.02960941 0.16919465 0.58366936
v 0.02961285 0.13401037 0.66955447
v -0.07631284 0.27627435 0.69385713
v 0.02889234 0.23949079 0.67394918
v 0.03171248 0.16309346 -0.61194623
v -0.00165460 0.16526020 -0.62732649
v 0.00224285 0.16581038 -0.62340546
v 0.03743044 0.18475161 0.57583302
v 0.04912181 0.17697364 0.60698408
v 0.03350455 0.13397400 0.67350507
v 0.02684083 0.22780442 0.45993176
v 0.03325285 0.16916038 0.58752453
v 0.01393165 0.27463096 0.61096436
v 0.01043838 0.28128290 0.59486306
v 0.01112554 0.16045401 0.60821456
v 0.01009644 0.17695509 0.54456431
v 0.03349285 0.13401037 0.67345452
v 0.00619541 0.24769108 0.37199143
v 0.01775625 0.22800200 0.45005694
v 0.01005285 0.23564038 0.70471454
v 0.01396285 0.23561038 0.70080447
v 0.01396285 0.23557037 0.70093453
v 0.01533764 0.27069074 0.62121081
v 0.02959285 0.16921037 0.58361453
v 0.04912285 0.17535037 0.61096454
v 0.02567776 0.16916053 0.57971114
v 0.07415735 0.25918946 0.56523889
v 0.02177285 0.22939037 0.45080450
v 0.02546285 0.22776037 0.45861450
v 0.06027748 0.30630523 -0.57050860
v 0.01787285 0.27460039 0.60705447
v 0.01787285 0.23557037 0.69694453
v 0.04063098 0.23560566 0.67362094
v 0.01403825 0.23556367 0.70087314
v 0.01026285 0.23557037 0.70471454
v 0.03353848 0.16924250 0.58761740
v 0.01027285 0.27854037 0.60314453
v 0.01778285 0.27463037 0.60705447
v 0.01396285 0.27463037 0.61096454
v 0.03115184 0.27294099 0.59842938
v 0.01779326 0.27465472 0.60697150
v 0.04130285 0.49729037 -0.29918548
v 0.03740285 0.49731037 -0.29527548
v -0.09168646 0.36135235 -0.35474902
v 0.07531299 0.05484018 -0.10097108
v -0.01294027 0.42712265 0.51704240
v -0.01296342 0.43267491 0.49819273
v 0.06084320 0.35275623 -0.43590569
v 0.03270817 0.17332317 0.57683444
v 0.10579077 0.09555046 -0.74927157
v 0.04912285 0.17695038 0.60705447
v 0.04918286 0.17697038 0.60705447
v 0.04914789 0.25118750 0.61876875
v 0.05303043 0.17696930 0.61104584
v 0.02833612 0.24555618 0.65673262
v 0.05917668 0.17698555 0.61736733
v 0.05296286 0.17697038 0.61096454
v 0.05299928 0.17697532 0.61099654
v 0.03720285 0.23947038 0.66564453
v 0.05302285 0.25513038 0.60314453
v 0.05693285 0.25510037 0.59924453
v 0.05693285 0.25510037 0.59925455
v 0.04780265 0.25509560 0.60860217
v 0.04912285 0.25516039 0.60705447
v 0.04569002 0.26327786 0.58645648
v 0.05305309 0.25509325 0.60322922
v 0.04928285 0.25510037 0.60705447
v 0.05302285 0.25510037 0.60324454
v 0.03740285 0.23941037 0.66564453
v 0.03349285 0.23943037 0.66955447
v 0.03349285 0.23947038 0.66943455
v 0.04130285 0.25125036 0.62658447
v 0.06077286 0.25510037 0.59533447
v 0.04521285 0.25123039 0.62268454
v 0.04021934 0.24718507 0.63968921
v 0.04949628 0.24754567 0.43488380
v 0.02959285 0.24078037 0.66955447
v 0.08586229 0.16848108 0.64254361
v 0.03769359 0.23986208 0.66395777
v 0.04912285 0.25119039 0.61879450
v 0.04526155 0.25119188 0.62272680
v 0.05694285 0.25510037 0.59924453
v 0.06084285 0.25376037 0.59924453
v 0.03337285 0.23947038 0.66955447
v 0.02959285 0.23946038 0.67346454
v 0.12362057 0.20904861 0.60574663
v 0.06488469 0.22545317 0.67885631
v 0.06083855 0.35272714 -0.43590614
v 0.07645956 0.35668471 -0.43205690
v 0.07681274 0.35676673 -0.43198809
v 0.06198202 0.35542497 -0.42933348
v 0.06427830 0.38417733 0.68633103
v 0.14306536 0.10920219 0.81662327
v 0.13115360 0.11447197 0.78286302
v 0.13505286 0.11838038 0.77782446
v 0.04762435 0.18798491 0.55663228
v 0.13482103 0.23623496 0.53904533
v 0.13115285 0.22610037 0.57189453
v 0.33427283 0.00896038 0.30236450
v 0.33037284 0.00892038 0.30627450
v 0.07623641 0.35667625 -0.43198043
v 0.13115285 0.11447038 0.78286445
v 0.29975408 0.12878022 -0.15792340
v 0.24957640 0.02496404 0.30186167
v 0.13117248 0.11055222 0.79077035
v 0.13103120 0.11056293 0.79063815
v 0.13883285 0.22776037 0.57580447
v 0.13913716 0.22774658 0.57616514
v 0.14460583 0.22784385 0.58156735
v 0.13115285 0.11060038 0.79064453
v 0.13505286 0.22776037 0.57189453
v 0.14539464 0.18414466 0.67159325
v 0.13505286 0.22776037 0.57190448
v 0.13896285 0.22781037 0.57580447
v 0.13091415 0.43151990 -0.21823967
v 0.12897998 0.46348438 0.41127512
v 0.14291367 0.23057859 -0.02451096
v 0.16449568 0.22221731 0.59515381
v 0.21028359 0.20792399 0.00262765
v 0.22003710 0.20402521 0.00011067
v 0.33587468 0.19995786 0.08182463
v 0.20936370 0.18129236 -0.07699629
v 0.34644535 0.43853405 -0.13459025
v 0.22793169 0.20048152 -0.00305502
v 0.22490285 0.20432037 0.00547451
v 0.24443285 0.17307037 -0.06873548
v 0.24443620 0.17307018 -0.06872491
v 0.24052286 0.17297037 -0.07262548
v 0.22099286 0.20432037 0.00187451
v 0.24052286 0.17307037 -0.07233549
v 0.23931029 0.17280264 -0.07425159
v 0.22099286 0.20422037 0.00158451
v 0.12392547 0.25203279 0.55203080
v 0.34301186 -0.00185118 0.32938215
v 0.20369995 0.48121470 -0.41466072
v -0.05895556 0.40276435 -0.09620779
v 0.33818284 0.00900038 0.29846451
v 0.43584397 -0.20973808 -0.09609820
v 0.41177440 0.40179399 -0.57904088
v 0.55729789 -0.37745604 0.51597440
v 0.27306935 0.17150857 -0.04695325
v 0.36605006 0.51354295 -0.28838688
v 0.34020260 0.53938574 -0.22104608
v 0.34209284 0.00901038 0.29463452
v 0.33410609 0.00901032 0.30225563
v 0.33808285 0.00901038 0.29846451
v 0.45536831 -0.04565066 -0.36946738
v 0.40076345 -0.01832957 0.36866903
v 0.35771286 0.50901037 -0.30324548
v 0.36394718 0.50643170 -0.31130898
v 0.29707941 0.47440827 -0.41585863
v 0.36162284 0.50901037 -0.30311549
v 0.36237285 0.50901037 -0.30309549
v 0.36162284 0.50901037 -0.30309549
v 0.39677283 -0.01832962 0.37248451
v 0.40066284 -0.01832962 0.36877450
v 0.43486303 -0.19646668 -0.03011475
v 0.35391638 0.00869246 0.27484307
v 0.39677283 -0.01836962 0.37268451
v 0.41375890 -0.03201913 0.39733794
v 0.35612181 0.41557968 -0.05123709
v 0.35624760 0.50905114 -0.30314562
v 0.41630283 0.39184037 -0.06871549
v 0.41640353 0.39182210 -0.06882791
v 0.38089129 0.51323670 -0.30397442
v 0.54048300 -0.28872123 0.37474698
v 0.45800284 -0.04957962 -0.37340549
v 0.45537579 -0.04566614 -0.36952278
v 0.45146275 -0.04176855 -0.37342495
v 0.39596263 -0.17869912 -0.10281867
v 0.43059286 -0.20582962 -0.09996549
v 0.43192643 -0.20583057 -0.09600992
v 0.39380693 -0.01816044 0.37451449
v 0.53446639 0.02703106 0.04595389
v 0.42412284 -0.19820963 -0.09215549
v 0.40068284 -0.01832962 0.36877450
v 0.48212779 -0.08532938 -0.41824701
v 0.45146286 -0.04176962 -0.37340549
v 0.40459284 -0.01832962 0.36502451
v 0.41954666 0.00838437 -0.39199054
v 0.40847209 0.39575842 -0.07248860
v 0.42412284 0.38792038 -0.06481549
v 0.41627148 0.39182761 -0.06847563
v 0.42021286 0.38908038 -0.06090549
v 0.42412943 0.38791224 -0.06476956
v 0.40843570 0.39575532 -0.07236302
v 0.40985575 0.38802904 -0.02011677
v 0.40859285 0.39572036 -0.07262548
v 0.45146275 -0.04175451 -0.37339517
v 0.50603491 -0.35448727 0.56202453
v 0.43190286 -0.20582962 -0.09606549
v 0.43193284 -0.20584963 -0.09606549
v 0.43584397 -0.20973468 -0.09592105
v 0.44367734 -0.03316323 -0.37717572
v 0.52176738 0.35153675 -0.08222114
v 0.42802283 0.38570037 -0.06090549
v 0.42412898 0.38791955 -0.06482648
v 0.40982285 0.39572036 -0.07652549
v 0.39734751 0.40490347 -0.10421267
v 0.46370414 -0.04339416 -0.31005195
v 0.43584284 -0.20972963 -0.09606549
v 0.54912287 -0.37379962 0.52489454
v 0.54521602 -0.36985978 0.52497900
v 0.54522288 -0.36988962 0.52502453
v 0.33678094 -0.24856891 0.59045982
v 0.54292965 0.22745259 -0.01095531
v 0.54398292 -0.36524194 0.51860875
v 0.58720362 -0.31916782 0.36043060
v 0.58053285 -0.31519961 0.36096451
v 0.54521286 -0.37193963 0.52893454
v 0.54950523 -0.37432471 0.52516109
v 0.54905289 -0.37379962 0.52502453
v 0.54521286 -0.36988962 0.52504450
v 0.54139286 -0.36598963 0.52502453
v 0.35904571 0.40149242 0.08703274
v 0.56083357 -0.35035670 0.43515977
v 0.55302286 -0.34254962 0.43546450
v 0.54341286 -0.36598963 0.52111453
v 0.56087267 -0.29177049 0.36100596
v 0.55693287 -0.29174963 0.36486450
v 0.56084287 -0.29171962 0.36096451
v 0.55689520 -0.34643015 0.43533275
v 0.45538148 -0.23821037 -0.14122057
v 0.55629671 -0.29200527 0.36594453
v 0.52310449 -0.21317352 0.21965466
v 0.68033874 -0.33767340 0.29652831
v 0.56474286 -0.29176962 0.35718450
v 0.57957000 -0.31490594 0.37763447
v 0.57255286 -0.29934964 0.36096451
v 0.51260096 0.28044224 -0.07727558
v 0.51835102 -0.37382147 0.56806028
v 0.54131174 -0.36593404 0.52508390
v 0.57255286 0.19068037 0.03283451
v 0.58427286 -0.31519961 0.35727450
v 0.58448076 -0.31515253 0.35699314
v 0.55693054 -0.34641525 0.43524301
v 0.54662025 -0.34019676 0.44364342
v 0.56082284 -0.35035962 0.43518451
v 0.54351777 -0.30790004 0.38830224
v 0.56865287 -0.29164964 0.35314450
v 0.57649821 -0.24101417 0.23991749
v 0.71361941 -0.30224919 0.22054078
v 0.55909610 -0.28982142 0.35906777
v 0.57646286 -0.31254962 0.36096451
v 0.56083298 -0.35045335 0.43535230
v 0.56865287 -0.24115962 0.24768451
v 0.57255286 -0.24105963 0.24377450
v 0.57143360 -0.29186091 0.35070392
v 0.57643151 -0.24089794 0.23975416
v 0.56474286 -0.29168963 0.35705450
v 0.56865257 0.18869255 0.04064715
v 0.56865287 0.18870038 0.04064451
v 0.56660479 0.19445087 0.03088030
v 0.60380286 0.22178037 -0.04137549
v 0.67736822 0.18277687 -0.04526994
v 0.59979165 0.21605133 -0.02581711
v 0.57935971 -0.31658274 0.36401120
v 0.56487286 -0.29176962 0.35705450
v 0.58037287 -0.31508961 0.36096451
v 0.56805956 -0.36206293 0.44337541
v 0.58037287 -0.30993962 0.35314450
v 0.61943287 -0.35886961 0.38049451
v 0.57246447 -0.24098875 0.24369571
v 0.57646286 -0.24098963 0.23990451
v 0.61943287 -0.35549963 0.37658450
v 0.62726289 -0.35426962 0.36877450
v 0.62724286 -0.36098963 0.37658450
v 0.62724286 -0.35426962 0.36879450
v 0.60380286 0.21986037 -0.03746549
v 0.62323290 -0.35816962 0.37658450
v 0.61873603 -0.41553628 0.44685361
v 0.59990287 0.21596037 -0.02574549
v 0.59990287 0.21405037 -0.02184549
v 0.57270515 0.18867165 0.03678763
v 0.56864887 0.18865810 0.04069900
v 0.57255286 0.18877037 0.03674451
v 0.57255286 0.18869038 0.03689451
v 0.56318861 0.18411458 0.05544545
v 0.60747892 0.16487455 0.05130539
v 0.60771286 0.21994038 -0.04138549
v 0.61162287 0.21994038 -0.04514549
v 0.61964315 0.22490492 -0.06500770
v 0.58900768 0.22054455 -0.02460653
v 0.60304755 0.21989138 -0.03678063
v 0.60770285 0.21994038 -0.04137549
v 0.62800729 0.19417073 -0.00685649
v 0.60771286 0.21994038 -0.04137549
v 0.65371972 -0.47231793 0.50036979
v 0.62333316 -0.35818434 0.37652847
v 0.62724829 -0.35402820 0.36843514
v 0.60440838 -0.32864738 0.35766524
v 0.60195124 -0.28825644 0.31522691
v 0.60839278 0.21600074 -0.03401479
v 0.60380346 0.21603861 -0.02966091
v 0.60380286 0.21604037 -0.02965549
v 0.63115287 -0.35698962 0.36877450
v 0.66929317 -0.36057997 0.34199238
v 0.68974286 -0.33216962 0.27893451
v 0.68584287 -0.33477962 0.28674451
v 0.60122490 -0.28056353 0.28541049
v 0.68974286 -0.33474964 0.28283450
v 0.66131222 -0.28432909 0.25052878
v 0.69365287 -0.33473963 0.27896452
v 0.68974286 -0.33473963 0.28281450
v 0.56918484 0.11122867 0.20143941
v 0.68972290 -0.33473963 0.28283450
v 0.68590033 -0.33470821 0.28659633
v 0.72597486 -0.38234556 0.32719117
f 24 1 2
f 5 6 110
f 113 7 12
f 9 10 11
f 8 4 36
f 188 3 33
f 19 18 15
f 17 18 19
f 18 20 19
f 20 17 19
f 36 4 21
f 4 60 21
f 20 18 19
f 22 8 9
f 19 30 20
f 31 33 20
f 15 30 16
f 33 3 32
f 32 3 34
f 30 19 16
f 33 32 17
f 18 17 32
f 18 32 15
f 20 33 17
f 30 31 20
f 32 34 31
f 19 15 16
f 11 10 1
f 25 8 23
f 10 2 1
f 25 23 2
f 10 25 2
f 9 11 24
f 11 1 24
f 24 2 22
f 9 24 22
f 8 25 9
f 9 25 10
f 36 23 8
f 2 23 22
f 15 32 31
f 3 188 34
f 15 31 30
f 31 188 33
f 188 31 34
f 168 123 37
f 36 21 23
f 38 4 8
f 8 22 38
f 38 22 23
f 60 38 21
f 60 4 38
f 21 392 60
f 40 41 42
f 44 97 45
f 38 23 21
f 48 49 50
f 53 54 55
f 39 56 51
f 57 58 71
f 51 61 62
f 43 103 97
f 64 63 72
f 52 51 62
f 61 64 62
f 28 67 109
f 27 47 35
f 43 27 59
f 53 57 71
f 39 41 40
f 59 27 35
f 72 63 42
f 59 53 102
f 58 47 71
f 64 72 91
f 40 56 39
f 72 27 91
f 39 27 41
f 56 40 63
f 40 42 63
f 102 53 71
f 73 35 54
f 42 41 72
f 41 27 72
f 54 35 55
f 59 73 53
f 73 54 53
f 51 52 39
f 59 35 73
f 43 59 102
f 75 76 66
f 43 97 27
f 43 102 103
f 77 78 79
f 13 83 80
f 56 64 61
f 51 56 61
f 101 77 82
f 77 79 82
f 92 77 101
f 83 46 84
f 83 13 60
f 60 46 83
f 120 60 13
f 60 392 46
f 46 392 84
f 65 85 84
f 71 358 102
f 39 358 47
f 63 64 56
f 27 39 47
f 55 58 57
f 64 91 62
f 53 55 57
f 55 47 58
f 35 47 55
f 87 70 88
f 62 91 52
f 71 47 358
f 90 78 89
f 74 92 91
f 74 89 77
f 101 68 81
f 74 90 89
f 91 90 74
f 78 77 89
f 92 74 77
f 91 81 90
f 90 68 78
f 68 90 81
f 91 27 81
f 60 120 21
f 13 80 65
f 85 83 84
f 68 101 82
f 79 68 82
f 78 68 79
f 93 94 95
f 26 87 100
f 13 65 120
f 65 80 85
f 80 83 85
f 65 392 120
f 65 84 392
f 86 81 105
f 86 52 91
f 91 92 86
f 86 92 101
f 27 105 81
f 102 358 103
f 101 81 86
f 52 86 105
f 96 52 105
f 27 97 105
f 116 98 45
f 98 107 45
f 108 105 97
f 93 105 108
f 116 96 105
f 98 95 107
f 116 105 93
f 108 97 94
f 93 108 94
f 98 93 95
f 95 94 44
f 107 95 44
f 94 97 44
f 45 107 44
f 96 97 103
f 98 116 93
f 96 116 45
f 12 112 113
f 52 358 39
f 97 96 45
f 26 14 69
f 7 112 176
f 75 122 76
f 124 125 28
f 69 70 87
f 21 120 392
f 52 96 358
f 127 128 126
f 115 129 127
f 111 147 129
f 117 130 147
f 115 111 129
f 128 127 130
f 126 114 118
f 147 130 129
f 111 115 126
f 117 126 128
f 117 147 114
f 118 111 126
f 111 118 147
f 127 129 130
f 130 117 128
f 127 126 115
f 126 117 114
f 131 132 133
f 134 132 131
f 135 118 158
f 158 118 114
f 124 137 66
f 112 119 113
f 26 69 87
f 88 70 6
f 7 119 112
f 113 119 139
f 100 5 26
f 5 100 6
f 100 88 6
f 140 190 141
f 122 26 76
f 29 176 112
f 139 7 113
f 29 112 12
f 119 7 139
f 29 12 467
f 122 75 137
f 142 143 49
f 6 70 14
f 110 6 14
f 147 239 114
f 7 176 12
f 134 145 132
f 145 134 146
f 157 358 144
f 147 118 135
f 96 103 358
f 157 103 358
f 145 136 133
f 144 136 146
f 145 146 136
f 134 144 146
f 132 145 133
f 157 144 134
f 157 134 131
f 157 131 133
f 133 144 358
f 144 133 136
f 149 150 151
f 138 106 152
f 109 137 28
f 26 122 109
f 69 14 70
f 26 110 76
f 26 5 110
f 87 88 100
f 122 137 109
f 12 176 467
f 176 29 467
f 154 318 155
f 137 75 66
f 239 147 135
f 103 157 133
f 178 133 358
f 153 106 99
f 227 517 158
f 163 164 165
f 76 125 66
f 123 99 106
f 149 152 153
f 137 124 28
f 37 138 152
f 152 106 153
f 138 37 106
f 37 123 106
f 67 76 284
f 169 170 171
f 174 173 172
f 14 26 347
f 26 109 347
f 125 76 67
f 76 110 202
f 109 67 284
f 28 125 67
f 66 125 124
f 149 37 152
f 150 149 153
f 155 180 154
f 161 160 159
f 227 182 183
f 184 162 160
f 135 162 165
f 162 158 160
f 165 159 517
f 158 162 135
f 184 161 185
f 184 160 161
f 164 185 159
f 158 181 182
f 103 133 178
f 181 186 182
f 162 184 163
f 114 181 158
f 164 159 165
f 163 185 164
f 184 185 163
f 160 158 159
f 162 163 165
f 159 158 517
f 185 161 159
f 135 165 517
f 183 182 186
f 227 158 182
f 151 150 168
f 149 151 37
f 168 150 156
f 168 156 123
f 151 168 37
f 99 150 153
f 99 156 150
f 192 203 140
f 142 49 194
f 191 123 156
f 123 191 99
f 197 198 199
f 256 104 172
f 179 177 256
f 179 143 142
f 177 179 142
f 177 142 194
f 148 212 203
f 204 205 206
f 346 109 284
f 209 210 289
f 212 193 207
f 186 213 214
f 215 216 217
f 214 213 219
f 220 221 222
f 183 186 214
f 103 187 358
f 305 358 187
f 187 103 430
f 294 103 178
f 305 187 166
f 103 294 430
f 229 230 231
f 181 114 224
f 232 233 223
f 232 222 233
f 233 218 223
f 227 214 219
f 226 220 223
f 235 226 223
f 235 224 225
f 224 235 181
f 222 224 233
f 226 235 225
f 181 235 223
f 226 221 220
f 226 225 221
f 233 224 218
f 186 181 223
f 183 214 227
f 213 234 219
f 221 224 222
f 220 232 223
f 232 220 222
f 186 223 213
f 219 234 227
f 221 225 224
f 234 223 218
f 213 223 234
f 227 234 517
f 234 218 517
f 236 237 189
f 241 260 242
f 260 211 318
f 203 243 244
f 205 246 247
f 217 255 190
f 104 211 260
f 248 273 249
f 212 104 193
f 211 104 212
f 250 192 251
f 192 252 251
f 253 318 254
f 199 254 197
f 256 175 179
f 49 143 50
f 257 258 173
f 257 259 258
f 189 237 281
f 251 261 336
f 248 249 244
f 243 248 244
f 212 262 211
f 148 263 264
f 265 266 140
f 257 174 267
f 215 273 216
f 268 237 236
f 269 270 271
f 198 269 271
f 272 192 140
f 259 267 258
f 193 273 248
f 261 141 190
f 208 248 243
f 207 208 243
f 266 273 215
f 205 203 246
f 200 260 241
f 48 195 177
f 265 273 266
f 273 104 245
f 356 198 324
f 203 192 246
f 48 50 195
f 271 274 275
f 271 270 274
f 156 99 191
f 194 49 48
f 143 179 50
f 217 245 255
f 177 194 48
f 255 104 256
f 386 277 278
f 14 202 110
f 121 179 175
f 279 170 386
f 50 179 121
f 121 280 50
f 281 267 174
f 202 14 347
f 501 598 524
f 283 215 217
f 347 109 349
f 109 346 349
f 242 286 287
f 467 358 341
f 305 228 231
f 290 291 209
f 292 210 293
f 293 210 291
f 297 166 298
f 228 229 231
f 302 303 304
f 239 218 114
f 230 166 187
f 210 292 295
f 290 292 293
f 228 166 297
f 305 166 228
f 228 297 229
f 230 187 373
f 290 178 295
f 290 293 291
f 298 166 230
f 210 295 289
f 289 295 178
f 290 295 292
f 294 178 290
f 291 210 209
f 290 209 294
f 239 135 517
f 224 114 218
f 373 305 231
f 297 298 229
f 229 298 230
f 306 279 307
f 231 230 373
f 289 294 209
f 294 361 308
f 430 294 359
f 264 263 336
f 247 250 336
f 263 206 336
f 279 306 170
f 309 310 308
f 197 311 312
f 203 265 140
f 211 262 336
f 258 313 173
f 258 259 313
f 272 140 141
f 245 104 255
f 288 148 264
f 314 167 315
f 262 288 264
f 241 242 287
f 316 315 317
f 207 243 203
f 262 264 336
f 249 265 244
f 266 215 283
f 205 204 203
f 104 189 281
f 263 204 206
f 269 336 270
f 320 321 189
f 265 203 244
f 288 212 148
f 217 216 245
f 206 205 247
f 259 258 286
f 281 174 172
f 336 261 190
f 148 204 263
f 283 217 190
f 200 189 260
f 104 273 193
f 257 173 174
f 322 323 324
f 323 322 325
f 266 283 190
f 206 247 336
f 276 326 356
f 104 260 189
f 247 246 250
f 311 327 312
f 321 236 189
f 268 328 281
f 262 212 288
f 286 241 287
f 281 258 267
f 328 200 241
f 207 193 208
f 252 192 272
f 237 268 281
f 251 272 261
f 251 252 272
f 216 273 245
f 208 193 248
f 246 192 250
f 172 104 281
f 328 241 281
f 155 318 329
f 313 286 242
f 249 273 265
f 189 200 320
f 140 266 190
f 321 320 328
f 320 200 328
f 241 258 281
f 286 258 241
f 204 148 203
f 236 321 268
f 321 328 268
f 212 207 203
f 330 325 331
f 250 251 336
f 121 334 335
f 170 169 386
f 337 317 201
f 255 256 354
f 272 141 261
f 197 312 198
f 257 267 259
f 356 324 354
f 167 121 201
f 171 167 282
f 171 121 167
f 307 121 306
f 50 280 195
f 354 256 177
f 338 280 335
f 170 306 171
f 280 121 335
f 316 278 315
f 334 121 307
f 169 171 282
f 196 279 386
f 339 335 334
f 177 195 386
f 304 169 282
f 171 306 121
f 282 167 302
f 195 196 386
f 169 304 386
f 304 282 302
f 196 307 279
f 304 303 386
f 327 336 269
f 339 338 335
f 196 334 307
f 195 280 338
f 195 339 196
f 195 338 339
f 339 334 196
f 340 337 201
f 386 342 343
f 314 344 167
f 180 345 154
f 284 76 202
f 350 351 352
f 325 336 323
f 309 361 359
f 173 260 356
f 326 253 199
f 402 285 357
f 402 467 285
f 324 336 190
f 370 355 240
f 238 362 360
f 358 467 400
f 360 362 363
f 364 365 362
f 365 363 362
f 289 178 240
f 294 308 310
f 318 336 254
f 517 218 239
f 178 370 240
f 309 308 361
f 359 310 368
f 294 310 359
f 239 358 517
f 305 373 358
f 178 358 370
f 240 365 364
f 240 364 238
f 368 309 359
f 367 240 238
f 355 365 240
f 355 370 363
f 365 355 363
f 367 238 360
f 238 364 362
f 358 360 370
f 367 289 240
f 370 360 363
f 289 367 361
f 294 289 361
f 373 187 430
f 368 310 309
f 430 359 361
f 336 318 211
f 345 180 356
f 374 340 375
f 199 198 356
f 275 330 331
f 274 330 275
f 313 259 286
f 323 336 324
f 254 311 197
f 329 318 253
f 260 318 345
f 274 336 330
f 242 260 313
f 180 155 276
f 155 329 276
f 326 199 356
f 345 318 154
f 275 331 198
f 331 324 198
f 275 198 271
f 330 336 325
f 173 356 172
f 345 356 260
f 180 276 356
f 270 336 274
f 331 325 322
f 313 260 173
f 276 329 326
f 329 253 326
f 253 254 199
f 190 255 354
f 312 327 269
f 254 336 311
f 311 336 327
f 331 322 324
f 324 190 354
f 269 198 312
f 378 395 379
f 380 375 381
f 382 302 167
f 303 382 383
f 277 383 344
f 278 314 315
f 384 385 378
f 383 382 344
f 354 177 386
f 201 375 340
f 344 382 167
f 302 382 303
f 386 383 277
f 343 337 340
f 277 344 314
f 277 314 278
f 343 374 386
f 342 317 337
f 381 375 201
f 348 353 390
f 343 340 374
f 386 303 383
f 374 380 386
f 167 201 315
f 201 317 315
f 386 278 316
f 343 342 337
f 375 380 374
f 386 316 342
f 316 317 342
f 201 121 175
f 175 353 348
f 529 459 347
f 399 384 396
f 396 384 391
f 384 378 391
f 401 395 385
f 350 352 395
f 346 284 202
f 405 406 407
f 406 408 407
f 408 405 407
f 408 406 405
f 425 388 341
f 412 409 411
f 411 409 413
f 388 467 341
f 400 467 402
f 409 357 413
f 402 409 412
f 402 357 409
f 411 413 416
f 413 357 416
f 411 416 412
f 402 412 400
f 400 420 358
f 412 421 400
f 429 358 373
f 423 424 371
f 372 428 371
f 239 424 369
f 427 428 372
f 369 424 423
f 428 369 423
f 427 369 428
f 371 424 372
f 428 423 371
f 239 427 568
f 239 369 427
f 568 427 372
f 424 239 517
f 372 424 517
f 367 430 361
f 432 379 352
f 395 433 434
f 390 401 399
f 348 390 399
f 401 353 395
f 379 391 378
f 385 395 378
f 385 384 399
f 386 380 436
f 436 381 201
f 436 380 381
f 354 436 201
f 201 175 494
f 386 436 354
f 494 172 191
f 494 191 377
f 256 353 175
f 396 432 351
f 432 352 351
f 494 354 201
f 348 523 175
f 385 399 401
f 390 353 401
f 348 399 396
f 387 350 434
f 440 438 396
f 440 433 438
f 391 432 396
f 379 432 391
f 396 387 440
f 387 434 440
f 351 387 396
f 350 387 351
f 433 440 434
f 441 395 523
f 434 350 395
f 352 379 395
f 396 444 445
f 497 516 446
f 442 395 447
f 448 349 346
f 441 523 396
f 175 523 494
f 347 439 529
f 397 453 404
f 349 448 393
f 443 454 404
f 441 396 376
f 406 451 408
f 456 349 451
f 415 389 457
f 439 397 404
f 396 445 376
f 445 461 376
f 404 529 439
f 405 460 456
f 397 347 398
f 451 406 405
f 443 410 398
f 454 398 452
f 460 452 456
f 439 347 397
f 397 398 410
f 453 397 410
f 454 443 398
f 443 453 410
f 454 529 404
f 398 347 452
f 404 453 443
f 455 462 459
f 455 408 462
f 407 451 458
f 451 349 458
f 463 464 202
f 407 458 462
f 406 460 405
f 460 406 408
f 408 451 407
f 452 347 456
f 347 349 456
f 456 451 405
f 460 408 455
f 452 455 459
f 394 393 448
f 403 393 463
f 447 444 442
f 452 529 454
f 458 349 459
f 462 458 459
f 452 460 455
f 459 349 403
f 408 407 462
f 349 393 403
f 347 403 202
f 347 459 403
f 394 464 463
f 464 450 202
f 464 394 448
f 393 394 463
f 450 448 346
f 403 463 202
f 464 448 450
f 450 346 202
f 420 468 480
f 470 471 429
f 471 470 472
f 400 481 468
f 389 388 474
f 416 357 421
f 301 475 476
f 366 457 425
f 388 425 474
f 457 426 425
f 299 285 414
f 457 389 426
f 389 474 426
f 400 421 299
f 467 388 473
f 415 388 389
f 400 299 481
f 415 457 366
f 473 388 415
f 474 425 426
f 357 285 299
f 473 415 366
f 469 478 481
f 366 425 301
f 412 416 421
f 468 481 480
f 473 366 301
f 420 480 477
f 299 421 357
f 425 341 301
f 299 469 481
f 400 468 420
f 422 469 414
f 285 502 414
f 480 481 478
f 469 299 414
f 480 422 477
f 422 414 477
f 414 502 477
f 480 478 422
f 478 469 422
f 367 471 418
f 483 473 484
f 489 484 485
f 490 491 472
f 418 373 367
f 431 472 491
f 431 418 472
f 367 360 429
f 360 358 429
f 418 431 373
f 490 492 491
f 492 429 431
f 418 471 472
f 490 470 492
f 470 490 472
f 431 491 492
f 492 470 429
f 431 429 373
f 367 373 430
f 429 471 367
f 445 447 461
f 377 191 495
f 447 445 444
f 353 256 172
f 433 395 442
f 461 447 395
f 441 461 395
f 444 396 438
f 395 353 172
f 523 395 172
f 442 438 433
f 348 396 523
f 444 438 442
f 441 376 461
f 501 524 737
f 465 498 499
f 719 528 686
f 301 341 496
f 484 479 485
f 476 475 479
f 332 333 503
f 473 301 476
f 301 505 488
f 484 476 479
f 506 483 489
f 483 484 489
f 485 479 475
f 484 473 476
f 419 527 301
f 506 489 485
f 502 285 599
f 477 502 420
f 419 341 508
f 505 496 509
f 510 505 509
f 341 419 507
f 465 499 511
f 510 509 507
f 419 301 488
f 505 510 488
f 488 510 419
f 510 507 419
f 301 496 505
f 496 507 509
f 496 341 507
f 493 446 498
f 446 499 498
f 358 493 560
f 482 562 296
f 358 420 493
f 516 511 499
f 446 516 499
f 502 497 420
f 493 497 446
f 493 417 466
f 493 498 417
f 493 420 497
f 417 465 466
f 465 417 498
f 560 493 466
f 341 358 560
f 512 513 514
f 513 515 514
f 568 372 517
f 568 517 358
f 519 520 547
f 377 300 500
f 319 333 332
f 449 437 300
f 521 522 503
f 449 377 521
f 332 503 522
f 521 377 500
f 541 545 530
f 529 452 459
f 531 532 533
f 536 497 502
f 466 465 516
f 473 526 467
f 525 485 527
f 483 506 525
f 527 526 525
f 537 565 538
f 485 475 527
f 506 485 525
f 285 467 526
f 537 539 597
f 475 301 527
f 504 525 526
f 525 504 483
f 483 504 473
f 526 473 504
f 526 527 581
f 465 511 516
f 497 512 565
f 515 513 536
f 533 532 543
f 548 549 482
f 562 547 296
f 548 520 549
f 520 548 547
f 296 548 482
f 296 547 548
f 549 520 551
f 482 552 550
f 419 508 527
f 552 519 550
f 549 551 552
f 482 549 552
f 551 519 552
f 519 551 520
f 543 532 544
f 554 543 544
f 536 502 542
f 512 497 536
f 544 532 508
f 512 536 513
f 565 512 514
f 514 515 542
f 565 545 497
f 514 542 565
f 556 541 540
f 341 566 508
f 557 533 543
f 515 536 542
f 530 486 558
f 516 545 466
f 516 497 545
f 555 466 541
f 556 540 559
f 500 300 319
f 560 555 556
f 555 541 556
f 560 466 555
f 466 545 541
f 486 566 558
f 530 545 486
f 540 530 559
f 540 541 530
f 559 530 558
f 545 566 486
f 556 559 561
f 559 558 561
f 558 566 561
f 358 239 568
f 546 564 576
f 522 319 332
f 569 737 638
f 449 333 437
f 377 495 300
f 377 449 494
f 449 503 333
f 333 319 437
f 449 521 503
f 522 500 319
f 319 300 437
f 522 521 500
f 191 172 494
f 354 494 356
f 523 172 494
f 573 574 564
f 539 575 535
f 572 582 553
f 597 565 537
f 575 539 538
f 574 557 554
f 579 578 582
f 537 538 539
f 285 526 578
f 538 502 580
f 579 577 578
f 557 543 554
f 576 564 554
f 599 578 534
f 577 579 553
f 534 578 577
f 285 578 599
f 508 532 527
f 599 534 582
f 532 531 546
f 533 574 573
f 519 547 550
f 554 544 576
f 550 547 562
f 561 566 560
f 553 534 577
f 599 582 526
f 550 562 482
f 546 573 564
f 533 557 574
f 574 554 564
f 581 527 532
f 576 532 546
f 544 508 566
f 576 581 532
f 502 538 565
f 531 533 573
f 546 531 573
f 545 565 566
f 575 580 535
f 542 502 565
f 575 538 580
f 576 544 566
f 565 597 566
f 586 597 539
f 556 561 560
f 560 566 341
f 583 586 535
f 517 568 671
f 300 494 449
f 495 494 300
f 494 495 191
f 553 579 572
f 172 356 494
f 591 598 571
f 501 435 598
f 579 582 572
f 591 571 570
f 524 598 649
f 534 553 582
f 582 578 526
f 586 599 526
f 502 599 586
f 539 535 586
f 586 526 581
f 576 566 597
f 580 583 535
f 580 502 583
f 502 586 583
f 584 589 567
f 586 581 576
f 586 576 597
f 623 600 625
f 606 607 669
f 571 584 570
f 589 598 592
f 598 435 592
f 567 592 637
f 571 589 584
f 598 589 571
f 591 637 598
f 570 584 567
f 589 592 567
f 592 435 637
f 588 610 612
f 613 614 610
f 614 595 610
f 615 612 616
f 570 567 637
f 596 611 494
f 610 596 494
f 595 614 596
f 614 595 613
f 595 617 613
f 617 614 613
f 617 595 614
f 617 615 613
f 612 615 588
f 615 617 588
f 588 617 610
f 617 613 610
f 612 610 494
f 595 596 610
f 616 494 611
f 616 612 494
f 613 616 611
f 614 613 611
f 613 615 616
f 596 614 611
f 637 435 501
f 659 657 619
f 751 768 709
f 649 598 637
f 605 487 604
f 517 623 568
f 671 568 623
f 623 601 600
f 600 601 622
f 671 623 625
f 623 605 601
f 623 517 605
f 622 605 604
f 627 602 628
f 631 632 633
f 601 605 622
f 624 600 622
f 625 600 624
f 605 517 487
f 625 624 604
f 625 604 671
f 624 622 604
f 591 570 637
f 608 528 719
f 607 594 669
f 737 606 669
f 737 621 606
f 607 621 518
f 621 607 606
f 737 524 618
f 621 618 518
f 737 618 621
f 618 594 518
f 618 524 594
f 594 607 518
f 669 590 648
f 637 501 737
f 649 594 524
f 639 590 640
f 646 528 593
f 646 686 528
f 631 633 635
f 665 719 700
f 629 642 631
f 642 629 628
f 633 603 635
f 626 602 627
f 603 602 626
f 643 644 593
f 630 627 629
f 627 628 629
f 626 719 603
f 626 630 635
f 630 626 627
f 700 719 626
f 645 643 634
f 645 644 643
f 528 634 643
f 643 593 528
f 642 628 632
f 631 642 632
f 603 686 635
f 603 719 686
f 629 631 630
f 602 603 633
f 632 602 633
f 632 628 602
f 562 585 798
f 562 798 585
f 654 769 651
f 604 487 671
f 653 651 769
f 655 639 640
f 656 640 590
f 655 640 656
f 649 669 594
f 638 648 639
f 638 655 656
f 658 699 729
f 656 637 569
f 569 637 737
f 569 638 656
f 639 648 590
f 655 638 639
f 637 656 669
f 656 590 669
f 737 648 638
f 662 660 661
f 663 609 660
f 661 619 662
f 619 663 662
f 641 751 609
f 609 663 620
f 689 641 609
f 609 751 659
f 657 663 619
f 620 659 751
f 659 619 661
f 660 662 663
f 663 657 620
f 657 659 620
f 661 660 659
f 609 659 660
f 620 751 689
f 664 665 700
f 686 646 729
f 644 645 646
f 528 608 684
f 528 684 690
f 645 634 646
f 593 644 646
f 634 528 690
f 635 630 631
f 700 626 635
f 690 729 634
f 634 729 646
f 667 703 704
f 703 751 704
f 650 845 742
f 743 709 768
f 768 751 647
f 487 517 671
f 676 677 674
f 677 563 674
f 673 674 675
f 653 673 675
f 674 563 675
f 676 673 672
f 563 653 675
f 563 677 652
f 674 673 676
f 681 651 563
f 651 653 563
f 654 651 681
f 682 765 683
f 669 648 737
f 668 667 688
f 658 690 685
f 665 691 692
f 694 695 700
f 719 665 608
f 685 697 698
f 698 699 658
f 609 620 689
f 695 694 696
f 608 665 636
f 698 658 685
f 691 665 664
f 694 692 696
f 696 692 691
f 685 693 697
f 692 694 636
f 691 664 695
f 665 692 636
f 699 684 729
f 695 696 691
f 636 694 700
f 699 693 684
f 664 700 695
f 685 690 693
f 684 608 729
f 700 635 840
f 690 684 693
f 698 697 699
f 697 693 699
f 690 658 729
f 668 688 666
f 688 702 666
f 702 704 666
f 668 703 667
f 666 786 647
f 668 647 703
f 668 666 647
f 703 647 751
f 702 667 704
f 702 688 667
f 704 751 786
f 666 704 786
f 650 706 587
f 706 650 718
f 743 701 747
f 742 711 726
f 813 743 768
f 710 743 687
f 670 798 585
f 677 676 672
f 839 931 772
f 839 772 931
f 672 673 653
f 652 677 672
f 678 653 887
f 652 672 678
f 653 769 887
f 681 563 678
f 563 652 678
f 654 887 769
f 672 653 678
f 911 654 681
f 680 713 714
f 680 715 713
f 713 715 716
f 669 649 637
f 710 682 721
f 722 723 724
f 723 725 724
f 725 723 722
f 708 706 720
f 730 706 718
f 731 732 733
f 738 739 740
f 741 738 740
f 700 608 636
f 745 742 757
f 784 787 746
f 635 686 840
f 752 731 733
f 743 747 727
f 774 739 738
f 840 686 766
f 739 774 753
f 760 755 705
f 747 756 754
f 706 707 720
f 708 744 730
f 720 744 708
f 650 587 845
f 708 730 718
f 756 731 752
f 730 707 706
f 730 744 707
f 743 710 721
f 747 754 727
f 752 733 754
f 587 706 708
f 744 720 707
f 708 718 587
f 718 650 745
f 761 742 726
f 845 705 742
f 756 747 731
f 709 743 727
f 709 734 784
f 711 758 801
f 757 742 761
f 726 759 679
f 754 756 752
f 734 709 727
f 731 701 732
f 747 701 731
f 754 733 727
f 687 712 710
f 705 758 742
f 758 711 742
f 705 755 758
f 761 726 679
f 711 758 762
f 758 711 801
f 761 679 757
f 763 764 765
f 710 712 682
f 813 687 743
f 743 732 701
f 745 650 742
f 800 801 760
f 748 798 799
f 670 799 798
f 780 689 751
f 681 678 887
f 775 716 841
f 681 713 842
f 775 713 716
f 716 715 841
f 714 841 680
f 911 681 842
f 842 775 841
f 842 713 775
f 713 681 714
f 841 715 680
f 887 714 681
f 779 777 790
f 845 718 745
f 736 735 785
f 711 762 801
f 757 679 759
f 729 774 788
f 774 738 741
f 785 735 840
f 741 766 788
f 641 689 780
f 789 790 777
f 796 783 821
f 740 791 785
f 727 733 734
f 785 840 766
f 741 740 766
f 791 736 785
f 736 791 740
f 791 753 740
f 740 739 791
f 791 739 753
f 753 735 740
f 735 736 740
f 740 785 766
f 741 788 774
f 746 793 709
f 729 735 753
f 735 729 840
f 788 686 729
f 729 753 774
f 686 788 766
f 795 796 821
f 797 787 749
f 787 793 746
f 799 670 850
f 751 641 780
f 647 786 907
f 751 709 773
f 784 746 709
f 733 732 734
f 768 647 810
f 709 805 773
f 810 647 907
f 687 721 712
f 793 805 709
f 587 718 845
f 760 801 762
f 758 755 762
f 845 800 705
f 762 755 760
f 759 711 802
f 711 801 802
f 682 721 765
f 705 800 760
f 783 796 807
f 743 721 732
f 811 763 891
f 811 764 763
f 763 765 687
f 891 763 687
f 801 800 802
f 726 711 759
f 759 802 800
f 759 800 745
f 757 759 745
f 683 764 811
f 812 797 749
f 687 765 721
f 721 683 732
f 732 683 811
f 815 816 817
f 712 721 682
f 683 765 764
f 734 891 821
f 721 682 683
f 732 811 891
f 734 732 891
f 849 820 851
f 795 819 796
f 734 821 783
f 873 784 734
f 814 767 723
f 814 723 823
f 768 810 767
f 723 767 824
f 814 768 767
f 824 767 806
f 816 815 748
f 823 723 725
f 824 806 724
f 813 768 814
f 814 823 722
f 722 823 725
f 723 824 725
f 725 824 724
f 827 799 750
f 829 830 817
f 829 750 770
f 829 817 816
f 770 748 815
f 798 748 770
f 770 750 798
f 815 830 770
f 829 770 830
f 816 748 799
f 799 827 816
f 827 829 816
f 829 827 750
f 815 817 830
f 799 882 750
f 930 776 717
f 798 809 585
f 836 832 833
f 834 808 818
f 798 808 832
f 836 833 826
f 809 798 832
f 832 808 833
f 833 834 826
f 833 808 834
f 808 798 818
f 809 832 836
f 836 826 835
f 835 834 818
f 826 834 835
f 836 835 809
f 585 809 835
f 818 798 928
f 670 585 822
f 771 837 789
f 776 779 838
f 839 772 825
f 910 772 931
f 772 910 931
f 841 714 842
f 812 749 805
f 797 812 728
f 729 608 840
f 793 787 797
f 728 812 805
f 837 771 838
f 837 838 790
f 804 846 847
f 805 749 873
f 777 771 789
f 783 807 831
f 805 793 728
f 793 797 728
f 871 767 794
f 787 784 873
f 787 873 749
f 846 820 852
f 847 846 852
f 819 795 844
f 854 850 874
f 855 856 857
f 860 856 855
f 783 831 873
f 821 891 844
f 745 800 845
f 804 803 810
f 861 862 863
f 881 853 849
f 864 828 865
f 796 819 807
f 864 854 874
f 873 773 805
f 865 854 864
f 854 865 866
f 873 831 891
f 734 783 873
f 831 844 891
f 810 881 794
f 881 810 803
f 835 818 928
f 795 821 844
f 687 813 891
f 807 819 831
f 819 844 831
f 853 804 847
f 853 847 852
f 804 810 846
f 810 851 820
f 846 810 820
f 852 820 849
f 852 849 853
f 810 907 851
f 803 804 881
f 804 853 881
f 767 810 794
f 867 670 869
f 814 722 871
f 872 799 850
f 874 882 864
f 874 870 882
f 875 869 848
f 869 875 876
f 722 724 871
f 806 767 871
f 724 806 871
f 814 871 813
f 856 868 877
f 822 868 856
f 857 848 861
f 857 856 877
f 855 863 859
f 870 876 848
f 863 862 859
f 928 878 822
f 869 670 848
f 862 861 848
f 858 862 848
f 865 879 866
f 879 872 866
f 876 870 867
f 869 876 867
f 850 870 874
f 867 870 670
f 870 850 670
f 866 872 850
f 799 828 882
f 828 799 880
f 879 799 872
f 854 866 850
f 864 882 828
f 828 880 865
f 865 880 879
f 880 799 879
f 822 585 928
f 670 822 860
f 855 859 860
f 861 855 857
f 859 858 860
f 848 670 858
f 860 858 670
f 862 858 859
f 875 848 876
f 861 863 855
f 822 878 868
f 868 878 877
f 856 860 822
f 848 857 878
f 857 877 878
f 839 883 772
f 772 883 886
f 843 886 883
f 771 776 838
f 717 776 771
f 789 837 790
f 776 930 779
f 842 714 911
f 911 714 887
f 838 779 790
f 717 771 777
f 608 700 840
f 751 780 888
f 751 773 780
f 751 888 786
f 851 907 881
f 873 891 913
f 849 851 881
f 798 750 928
f 891 813 913
f 882 870 928
f 848 878 928
f 882 928 750
f 772 886 910
f 813 871 794
f 870 848 928
f 894 940 895
f 585 835 928
f 883 884 843
f 885 792 825
f 885 896 884
f 884 792 885
f 896 885 886
f 843 884 896
f 886 885 910
f 843 896 886
f 839 792 883
f 883 792 884
f 825 792 839
f 885 825 910
f 825 772 910
f 887 654 911
f 777 779 717
f 779 930 717
f 938 779 930
f 786 888 907
f 813 794 913
f 773 890 897
f 907 750 928
f 794 892 913
f 794 881 892
f 928 750 907
f 905 897 889
f 905 901 897
f 773 873 907
f 901 773 897
f 892 893 906
f 901 905 900
f 780 773 901
f 780 778 888
f 907 890 773
f 778 901 900
f 901 778 780
f 890 907 888
f 900 905 889
f 888 900 889
f 778 900 888
f 889 890 888
f 873 913 907
f 903 881 904
f 903 908 893
f 893 892 881
f 908 902 906
f 904 881 913
f 845 931 745
f 903 893 881
f 906 893 908
f 906 902 909
f 903 902 908
f 902 903 909
f 881 907 913
f 913 892 904
f 906 909 892
f 909 903 904
f 892 909 904
f 779 938 930
f 931 845 745
f 898 917 912
f 917 936 912
f 912 936 914
f 916 912 914
f 919 915 914
f 921 923 922
f 923 926 922
f 782 914 924
f 898 912 975
f 926 898 922
f 923 925 926
f 925 923 921
f 919 914 936
f 917 926 925
f 927 924 915
f 917 925 922
f 925 921 922
f 898 926 917
f 919 927 915
f 927 920 924
f 914 782 916
f 920 782 924
f 920 927 782
f 927 919 782
f 919 936 916
f 924 914 915
f 919 916 782
f 917 922 936
f 922 898 936
f 930 938 934
f 929 895 899
f 929 894 895
f 939 781 932
f 929 939 932
f 940 899 895
f 781 941 932
f 940 894 941
f 941 894 932
f 894 929 932
f 953 899 781
f 781 939 953
f 899 940 781
f 940 941 781
f 912 916 975
f 916 936 898
f 930 934 946
f 944 957 945
f 938 930 946
f 947 948 949
f 943 950 951
f 939 929 953
f 969 953 929
f 954 968 955
f 950 968 954
f 957 949 937
f 949 948 937
f 918 956 1010
f 938 957 937
f 957 944 949
f 944 947 949
f 948 947 945
f 945 946 960
f 957 946 945
f 938 937 960
f 957 938 946
f 960 948 945
f 947 944 945
f 937 948 960
f 969 929 953
f 1000 961 1034
f 929 968 943
f 929 955 968
f 970 965 952
f 971 954 955
f 943 951 971
f 984 964 973
f 899 953 929
f 974 955 969
f 951 954 971
f 968 950 943
f 950 954 951
f 974 971 955
f 974 943 971
f 969 929 974
f 929 943 974
f 898 969 916
f 898 975 969
f 977 978 959
f 979 977 980
f 976 956 994
f 956 976 981
f 956 982 1010
f 994 956 918
f 946 934 960
f 938 960 934
f 958 981 983
f 952 965 1018
f 986 965 970
f 966 965 986
f 987 986 967
f 967 970 952
f 1018 966 987
f 966 986 987
f 1018 965 966
f 933 1018 987
f 986 970 967
f 988 967 952
f 995 989 984
f 964 963 973
f 989 964 984
f 964 972 962
f 969 955 929
f 969 975 916
f 984 973 942
f 991 990 982
f 977 956 978
f 982 956 979
f 976 994 993
f 958 978 981
f 959 958 983
f 959 983 993
f 959 993 994
f 977 992 980
f 978 958 959
f 956 977 979
f 981 976 983
f 992 994 990
f 983 976 993
f 992 977 959
f 956 981 978
f 992 959 994
f 982 980 991
f 992 990 991
f 980 992 991
f 982 979 980
f 964 962 963
f 964 989 972
f 1018 988 952
f 996 967 988
f 1018 933 988
f 987 967 996
f 997 998 999
f 995 984 942
f 963 962 942
f 933 996 988
f 933 987 996
f 1020 1034 961
f 973 963 942
f 962 995 942
f 989 975 972
f 972 995 962
f 995 975 989
f 982 990 1010
f 994 918 990
f 918 1010 990
f 1000 1034 1026
f 1026 985 1000
f 961 1000 985
f 1003 1052 1004
f 1006 1007 1005
f 975 969 972
f 969 995 972
f 1027 1008 1009
f 1032 1034 1012
f 1013 1002 1027
f 1009 1013 1027
f 1014 1015 1019
f 1002 985 1027
f 1026 1005 985
f 1015 1014 1016
f 1038 1015 1016
f 1040 1032 1017
f 1022 1023 1024
f 1002 1013 998
f 1003 1030 1095
f 1028 1048 1001
f 1008 997 1007
f 997 1005 1007
f 1005 997 1008
f 1013 1009 998
f 1002 961 985
f 1008 985 1005
f 935 1002 998
f 997 1006 935
f 1006 1026 935
f 1027 985 1008
f 1006 1005 1026
f 1008 1007 999
f 998 997 935
f 998 1008 999
f 1007 997 999
f 1031 1012 1034
f 997 1007 1006
f 935 961 1002
f 1009 1008 998
f 1012 1017 1032
f 1031 1017 1012
f 961 1019 1038
f 1011 1033 1031
f 1038 1019 1015
f 1032 1026 1034
f 1003 1004 1029
f 961 1023 1019
f 1040 1055 1032
f 1095 1034 1020
f 1036 1087 1097
f 1036 1042 1087
f 1087 1038 1043
f 969 975 995
f 1048 1070 1001
f 1046 1070 1047
f 1073 1100 1001
f 1025 1079 1049
f 1100 1025 1001
f 1053 1022 1024
f 1003 1029 1030
f 1004 1052 1054
f 961 935 1083
f 935 1026 1083
f 1039 1056 1004
f 1056 1054 1004
f 1054 1039 1004
f 1034 1011 1031
f 1056 1039 1034
f 1039 1052 1034
f 1011 1034 1055
f 1044 1036 1097
f 1034 1083 1055
f 1026 1055 1083
f 1083 1023 961
f 1020 1041 1058
f 1040 1011 1055
f 1033 1040 1017
f 1033 1017 1031
f 1011 1040 1033
f 1055 1026 1032
f 1044 1097 1020
f 1042 1041 1087
f 1038 1045 1035
f 1045 1053 1035
f 1053 1043 1035
f 1023 1022 1014
f 1014 1019 1023
f 1052 1086 1034
f 1030 1056 1095
f 1003 1086 1052
f 1054 1052 1039
f 1054 1030 1029
f 1004 1054 1029
f 1087 961 1038
f 1056 1030 1054
f 1059 1042 1036
f 1059 1058 1042
f 1041 1020 1087
f 1087 1020 961
f 1022 1016 1014
f 1038 1035 1043
f 1087 1043 1024
f 1087 1024 1023
f 1045 1016 1022
f 1045 1038 1016
f 1053 1045 1022
f 1043 1053 1024
f 1095 1056 1034
f 1058 1041 1042
f 1060 1057 1086
f 1084 1061 1062
f 1061 1063 1062
f 1095 1086 1003
f 1020 1058 1044
f 1059 1036 1044
f 1058 1059 1044
f 1064 1079 1088
f 1084 1065 1061
f 1065 1063 1061
f 1063 1065 1084
f 1067 1068 1081
f 1070 1046 1069
f 1071 1047 1048
f 1073 1001 1070
f 1046 1072 1069
f 1046 1047 1072
f 1074 1073 1069
f 1071 1069 1072
f 1069 1028 1074
f 1048 1047 1070
f 1069 1071 1028
f 1047 1071 1072
f 1071 1048 1028
f 1073 1070 1069
f 1073 1074 1100
f 1049 1075 1077
f 1076 1088 1077
f 1074 1028 1001
f 1025 1049 1077
f 1025 1050 1001
f 1079 1080 1049
f 1100 1078 1025
f 1075 1080 1082
f 1076 1082 1088
f 1076 1075 1082
f 1083 1034 1066
f 1065 1060 1084
f 1092 1085 1086
f 1060 1085 1084
f 1085 1060 1086
f 1066 1086 1057
f 1066 1034 1086
f 1080 1079 1064
f 1001 1050 1074
f 1078 1051 1089
f 1089 1067 1081
f 1080 1075 1049
f 1082 1064 1088
f 1064 1082 1080
f 1025 1078 1079
f 1077 1075 1076
f 1050 1025 1077
f 1051 1078 1068
f 1067 1051 1068
f 1088 1079 1089
f 1079 1078 1089
f 1100 1081 1078
f 1078 1081 1068
f 1090 1067 1089
f 1090 1051 1067
f 1051 1090 1089
f 1088 1089 1081
f 1085 1092 1091
f 1057 1065 1084
f 1083 1066 1103
f 1095 1092 1086
f 1091 1061 1085
f 1062 1091 1103
f 1062 1103 1066
f 1062 1063 1091
f 1057 1060 1065
f 1063 1084 1085
f 1023 1083 1103
f 1091 1063 1061
f 1062 1066 1084
f 1061 1063 1085
f 1066 1057 1084
f 1091 1092 1103
f 1087 1023 1097
f 1081 1050 1088
f 1081 1100 1050
f 1077 1088 1050
f 1097 1103 1037
f 1021 1092 1095
f 1095 1093 1102
f 1023 1103 1097
f 1102 1021 1095
f 1098 1093 1037
f 1099 1093 1098
f 1097 1037 1020
f 1037 1095 1020
f 1074 1050 1100
f 1094 1101 1096
f 1101 1094 1102
f 1103 1092 1021
f 1037 1093 1095
f 1093 1099 1101
f 1093 1101 1102
f 1103 1098 1037
f 1098 1103 1021
f 1096 1021 1094
f 1094 1021 1102
f 1101 1099 1096
f 1021 1096 1098
f 1096 1099 1098
f 897 890 889

