# https://github.com/mikedh/trimesh
v 0.00419287 -0.06498237 -0.12726796
v 0.00419287 -0.06173043 -0.13724478
v 0.00654929 -0.06343000 -0.13247492
v 0.00938908 -0.06526340 -0.12726796
v 0.00419287 -0.04175045 -0.12726796
v 0.00654929 -0.06261367 -0.13489086
v 0.00419287 -0.06110146 -0.13904197
v 0.00938908 -0.06462104 -0.12921724
v 0.01133982 -0.06533031 -0.12726796
v 0.00460287 -0.04172369 -0.12726796
v 0.01302298 0.07134454 -0.12820126
v 0.00419287 0.04733644 -0.13002650
v 0.00938908 -0.06393854 -0.13118131
v 0.00654929 -0.06159661 -0.13772767
v 0.03493426 -0.06171705 -0.13772767
v 0.00419287 -0.06099440 -0.13931220
v 0.02925036 -0.06106131 -0.13934027
v 0.03493426 -0.06523663 -0.12726796
v 0.03777405 -0.06171705 -0.13772767
v 0.00735203 -0.04160324 -0.12726796
v 0.01506867 0.07137130 -0.12820126
v 0.01302298 0.07102336 -0.12921577
v 0.00419287 0.04733644 -0.14125116
v 0.00419287 -0.05973645 -0.14028242
v 0.03209015 -0.06106131 -0.13933878
v 0.00419287 -0.05949557 -0.14046110
v 0.03777405 -0.06522325 -0.12726796
v 0.04344932 -0.06169029 -0.13772767
v 0.03493426 -0.06106131 -0.13932845
v 0.03777405 -0.06106131 -0.13930925
v 0.00935456 -0.04164339 -0.12726796
v 0.04315153 0.07135792 -0.12820126
v 0.04243079 0.07137130 -0.12820126
v 0.01688993 0.07138468 -0.12820126
v 0.01506867 0.07105013 -0.12921577
v 0.01610877 0.06967174 -0.13348353
v 0.01302298 0.06964497 -0.13343333
v 0.00419287 0.04551643 -0.14127922
v 0.01302298 0.06896246 -0.13481555
v 0.01302298 0.06747701 -0.13776311
v 0.01302298 0.06679451 -0.13910841
v 0.01302298 0.06545627 -0.14010078
v 0.01302298 0.06458641 -0.14046406
v 0.01302298 0.06256566 -0.14124377
v 0.01302298 0.06176271 -0.14129103
v 0.01302298 0.05972858 -0.14134566
v 0.00419287 -0.05723393 -0.14140917
v 0.02925036 -0.05949557 -0.14034592
v 0.04539574 -0.06518310 -0.12726796
v 0.04628911 -0.06166352 -0.13772767
v 0.04828300 -0.06261367 -0.13489086
v 0.03209015 -0.05949557 -0.14032229
v 0.03493426 -0.05949557 -0.14028832
v 0.04060521 -0.06103455 -0.13928267
v 0.04828300 -0.05509274 -0.12726796
v 0.04801111 0.04733644 -0.13154163
v 0.04801111 0.04733644 -0.14229079
v 0.04315153 0.06977879 -0.13374344
v 0.03492994 0.06976541 -0.13369766
v 0.03209447 0.06975203 -0.13367404
v 0.02925468 0.06973865 -0.13364745
v 0.02641920 0.06972527 -0.13361644
v 0.02358372 0.06971188 -0.13358395
v 0.02074393 0.06969850 -0.13354704
v 0.02641920 0.06902938 -0.13503558
v 0.00419287 0.04269274 -0.14132056
v 0.01634182 0.06682127 -0.13915124
v 0.01444719 0.06680789 -0.13912761
v 0.01772288 0.06567038 -0.13989847
v 0.02074393 0.06536259 -0.14004614
v 0.01666119 0.06682127 -0.13915124
v 0.01790846 0.06256566 -0.14121867
v 0.01506867 0.06256566 -0.14124082
v 0.04315153 0.05290354 -0.14202645
v 0.04060952 0.05294368 -0.14202645
v 0.01790846 0.05972858 -0.14146085
v 0.01506867 0.05972858 -0.14140622
v 0.00419287 -0.05667187 -0.14161000
v 0.04828300 -0.06515634 -0.12726796
v 0.04344932 -0.06100778 -0.13924871
v 0.04828300 -0.06130220 -0.13841140
v 0.04828300 -0.06152970 -0.13791078
v 0.04828300 -0.06231926 -0.13573703
v 0.03209015 -0.05664510 -0.14129251
v 0.03493426 -0.05664510 -0.14125707
v 0.03777405 -0.05664510 -0.14121867
v 0.04060521 -0.05664510 -0.14117289
v 0.03777405 -0.05949557 -0.14023959
v 0.04828300 0.00025702 -0.13183698
v 0.04828300 0.00223762 -0.13202452
v 0.04828300 0.00274616 -0.13214562
v 0.04828300 0.00274616 -0.14099125
v 0.04828300 0.00096629 -0.14114631
v 0.04828300 -0.00188417 -0.14127183
v 0.04828300 -0.00271388 -0.14130727
v 0.04828300 -0.00556434 -0.14140622
v 0.04828300 -0.01038202 -0.14157308
v 0.04828300 -0.02317563 -0.14201464
v 0.04828300 -0.02542388 -0.14209142
v 0.04828300 -0.02741786 -0.14215934
v 0.04828300 -0.02826095 -0.14218742
v 0.04828300 -0.03025494 -0.14225238
v 0.04828300 -0.03111141 -0.14227749
v 0.04828300 -0.03393511 -0.14233803
v 0.04801111 0.04551643 -0.14230554
v 0.04628479 0.04551643 -0.14231588
v 0.04628479 0.04733644 -0.14228782
v 0.04315153 0.05120397 -0.14212391
v 0.04315153 0.05139132 -0.14211504
v 0.04315153 0.05305074 -0.14200873
v 0.04315153 0.05458972 -0.14177983
v 0.04315153 0.05689151 -0.14142985
v 0.04315153 0.06256566 -0.14055562
v 0.04315153 0.06502803 -0.13974341
v 0.04315153 0.06645995 -0.13881011
v 0.04315153 0.06763760 -0.13739098
v 0.04315153 0.06905614 -0.13516110
v 0.04315153 0.06913644 -0.13501195
v 0.03777405 0.06905614 -0.13513600
v 0.03492994 0.06905614 -0.13511532
v 0.03209447 0.06905614 -0.13509170
v 0.02925468 0.06904276 -0.13506512
v 0.00419287 0.03984228 -0.14135748
v 0.04060952 0.06905614 -0.13515225
v 0.01855151 0.06680789 -0.13913204
v 0.03209447 0.06521538 -0.13989256
v 0.03209447 0.06663392 -0.13895484
v 0.04060952 0.06508156 -0.13977738
v 0.02074393 0.06256566 -0.14116255
v 0.03825742 0.05280986 -0.14200430
v 0.04060952 0.05120397 -0.14210027
v 0.03636279 0.05262251 -0.14198804
v 0.02358372 0.05689151 -0.14164693
v 0.02074393 0.05689151 -0.14158933
v 0.02358372 0.05405443 -0.14170452
v 0.03492563 0.04551643 -0.14211652
v 0.02641920 0.05120397 -0.14181822
v 0.01790846 0.05689151 -0.14151844
v 0.00419287 0.03700520 -0.14139292
v 0.00419287 -0.05380803 -0.14177096
v 0.04628911 -0.04529680 -0.14232327
v 0.04628911 -0.04813388 -0.14214900
v 0.04828300 -0.04832123 -0.14211948
v 0.04828300 -0.04931153 -0.14201464
v 0.04805859 -0.04957918 -0.14198804
v 0.04828300 -0.04983344 -0.14195852
v 0.04828300 -0.05380803 -0.14150811
v 0.04060521 -0.05949557 -0.14017905
v 0.04628911 -0.06096763 -0.13920883
v 0.04828300 -0.06092749 -0.13917634
v 0.04344932 -0.05664510 -0.14112121
v 0.04628911 -0.05664510 -0.14106657
v 0.04828300 -0.03678557 -0.14235280
v 0.04344500 0.04269274 -0.14231884
v 0.04060521 0.04269274 -0.14229226
v 0.04344500 0.04551643 -0.14228782
v 0.04315153 0.04734983 -0.14224056
v 0.04315153 0.04836689 -0.14221547
v 0.04315153 0.04866131 -0.14220808
v 0.03777405 0.05689151 -0.14157603
v 0.03209447 0.06256566 -0.14085540
v 0.02641920 0.05405443 -0.14176801
v 0.03492994 0.05064191 -0.14200873
v 0.02925468 0.05120397 -0.14188615
v 0.03776974 0.04551643 -0.14218149
v 0.03776974 0.04269274 -0.14222581
v 0.00419287 0.02849397 -0.14148005
v 0.00419287 -0.04791976 -0.14209142
v 0.04828300 -0.04529680 -0.14231294
v 0.00419287 -0.04560459 -0.14217855
v 0.00419287 -0.04531018 -0.14218889
v 0.02925036 -0.04245972 -0.14234837
v 0.03209015 -0.04245972 -0.14235280
v 0.04628911 -0.04245972 -0.14235280
v 0.04828300 -0.04245972 -0.14234393
v 0.04828300 -0.05664510 -0.14102374
v 0.04344932 -0.05949557 -0.14010373
v 0.04828300 -0.06080704 -0.13924427
v 0.04828300 -0.03960926 -0.14235280
v 0.04060521 -0.03678557 -0.14235280
v 0.02641920 -0.03960926 -0.14235280
v 0.02358372 -0.03960926 -0.14234837
v 0.01506435 -0.03960926 -0.14232327
v 0.01222887 -0.03960926 -0.14231441
v 0.03879689 0.04734983 -0.14215934
v 0.03596142 0.04734983 -0.14210619
v 0.00419287 0.01429520 -0.14162034
v 0.00419287 0.01714566 -0.14159228
v 0.01222887 -0.04245972 -0.14227896
v 0.01506435 -0.04245972 -0.14229226
v 0.02074393 -0.04245972 -0.14231735
v 0.04828300 -0.05966954 -0.13985564
v 0.04628911 -0.05949557 -0.14001809
f 1 2 3
f 1 3 4
f 1 4 9
f 1 9 18
f 1 18 27
f 1 27 49
f 1 49 79
f 1 79 55
f 1 55 31
f 1 31 20
f 1 20 10
f 1 10 5
f 1 5 12
f 1 12 23
f 1 23 38
f 1 38 66
f 1 66 123
f 1 123 139
f 1 139 167
f 1 167 188
f 1 188 187
f 1 187 171
f 1 171 170
f 1 170 168
f 1 168 140
f 1 140 78
f 1 78 47
f 1 47 26
f 1 26 24
f 1 24 16
f 1 16 7
f 1 7 2
f 2 6 3
f 2 7 6
f 3 6 8
f 3 8 4
f 4 8 9
f 5 10 11
f 5 11 12
f 6 13 9
f 6 9 8
f 6 7 14
f 6 14 15
f 6 15 13
f 7 16 17
f 7 17 15
f 7 15 14
f 9 13 15
f 9 15 19
f 9 19 18
f 10 20 11
f 11 21 35
f 11 35 22
f 11 22 23
f 11 23 12
f 11 20 21
f 15 17 19
f 16 24 17
f 17 25 19
f 17 24 26
f 17 26 25
f 18 19 27
f 19 28 27
f 19 25 29
f 19 29 30
f 19 30 28
f 20 31 32
f 20 32 33
f 20 33 34
f 20 34 21
f 21 34 35
f 22 35 36
f 22 36 37
f 22 37 23
f 23 37 39
f 23 39 40
f 23 40 41
f 23 41 42
f 23 42 43
f 23 43 44
f 23 44 45
f 23 45 46
f 23 46 38
f 25 26 29
f 26 47 48
f 26 48 29
f 27 28 49
f 28 50 51
f 28 51 49
f 28 30 50
f 29 48 30
f 30 48 52
f 30 52 53
f 30 53 54
f 30 54 50
f 31 55 32
f 32 56 57
f 32 57 58
f 32 58 33
f 32 55 56
f 33 58 34
f 34 58 59
f 34 59 35
f 35 59 60
f 35 60 61
f 35 61 62
f 35 62 63
f 35 63 64
f 35 64 36
f 36 64 65
f 36 65 39
f 36 39 37
f 38 46 66
f 39 65 40
f 40 65 67
f 40 67 68
f 40 68 41
f 41 68 42
f 42 69 70
f 42 70 43
f 42 68 67
f 42 67 71
f 42 71 69
f 43 70 72
f 43 72 73
f 43 73 44
f 44 73 74
f 44 74 75
f 44 75 76
f 44 76 45
f 45 76 77
f 45 77 46
f 46 77 66
f 47 78 52
f 47 52 48
f 49 51 79
f 50 54 80
f 50 80 81
f 50 81 82
f 50 82 83
f 50 83 51
f 51 83 82
f 51 82 81
f 51 81 150
f 51 150 178
f 51 178 192
f 51 192 176
f 51 176 147
f 51 147 146
f 51 146 144
f 51 144 143
f 51 143 169
f 51 169 175
f 51 175 179
f 51 179 153
f 51 153 104
f 51 104 103
f 51 103 102
f 51 102 101
f 51 101 100
f 51 100 99
f 51 99 98
f 51 98 97
f 51 97 96
f 51 96 95
f 51 95 94
f 51 94 93
f 51 93 92
f 51 92 91
f 51 91 90
f 51 90 89
f 51 89 55
f 51 55 79
f 52 78 84
f 52 84 53
f 53 84 85
f 53 85 86
f 53 86 87
f 53 87 88
f 53 88 54
f 54 88 80
f 55 89 56
f 56 89 90
f 56 90 91
f 56 91 92
f 56 92 57
f 57 92 93
f 57 93 94
f 57 94 95
f 57 95 96
f 57 96 97
f 57 97 98
f 57 98 99
f 57 99 100
f 57 100 101
f 57 101 102
f 57 102 103
f 57 103 104
f 57 104 105
f 57 105 106
f 57 106 107
f 57 107 108
f 57 108 109
f 57 109 74
f 57 74 110
f 57 110 111
f 57 111 112
f 57 112 113
f 57 113 114
f 57 114 115
f 57 115 116
f 57 116 117
f 57 117 118
f 57 118 58
f 58 118 119
f 58 119 120
f 58 120 121
f 58 121 59
f 59 121 60
f 60 121 122
f 60 122 61
f 61 122 65
f 61 65 62
f 62 65 63
f 63 65 64
f 65 122 67
f 66 77 123
f 67 122 121
f 67 121 120
f 67 120 119
f 67 119 124
f 67 124 117
f 67 117 71
f 69 71 125
f 69 125 70
f 70 126 72
f 70 125 127
f 70 127 126
f 71 116 125
f 71 117 116
f 72 126 128
f 72 128 129
f 72 129 110
f 72 110 74
f 72 74 73
f 74 109 75
f 75 130 76
f 75 109 108
f 75 108 131
f 75 131 130
f 76 130 132
f 76 132 133
f 76 133 77
f 77 133 134
f 77 134 135
f 77 135 136
f 77 136 137
f 77 137 138
f 77 138 139
f 77 139 123
f 78 140 141
f 78 141 142
f 78 142 143
f 78 143 144
f 78 144 145
f 78 145 146
f 78 146 147
f 78 147 84
f 80 88 148
f 80 148 149
f 80 149 81
f 81 149 150
f 84 147 85
f 85 147 86
f 86 147 87
f 87 147 151
f 87 151 88
f 88 151 152
f 88 152 148
f 104 153 105
f 105 153 106
f 106 153 154
f 106 154 155
f 106 155 156
f 106 156 107
f 107 157 158
f 107 158 159
f 107 159 131
f 107 131 108
f 107 156 157
f 110 129 160
f 110 160 111
f 111 160 112
f 112 160 113
f 113 160 161
f 113 161 114
f 114 128 115
f 114 161 129
f 114 129 128
f 115 128 126
f 115 126 127
f 115 127 116
f 116 127 125
f 117 124 118
f 118 124 119
f 129 161 160
f 130 131 132
f 131 159 158
f 131 158 157
f 131 157 132
f 132 162 133
f 132 157 163
f 132 163 162
f 133 162 134
f 134 162 164
f 134 164 135
f 135 164 136
f 136 165 155
f 136 155 166
f 136 166 139
f 136 139 137
f 136 164 165
f 137 139 138
f 139 166 167
f 140 168 141
f 141 169 142
f 141 168 170
f 141 170 171
f 141 171 172
f 141 172 173
f 141 173 174
f 141 174 175
f 141 175 169
f 142 169 143
f 144 146 145
f 147 176 152
f 147 152 151
f 148 177 149
f 148 152 176
f 148 176 177
f 149 177 178
f 149 178 150
f 153 179 174
f 153 174 173
f 153 173 181
f 153 181 180
f 153 180 154
f 154 180 181
f 154 181 182
f 154 182 183
f 154 183 184
f 154 184 155
f 155 165 156
f 155 184 171
f 155 171 166
f 156 165 185
f 156 185 157
f 157 185 163
f 162 163 186
f 162 186 164
f 163 185 186
f 164 186 165
f 165 186 185
f 166 171 187
f 166 187 188
f 166 188 167
f 171 184 189
f 171 189 190
f 171 190 191
f 171 191 172
f 172 191 184
f 172 184 183
f 172 183 182
f 172 182 181
f 172 181 173
f 174 179 175
f 176 192 193
f 176 193 177
f 177 193 178
f 178 193 192
f 184 191 190
f 184 190 189

