# https://github.com/mikedh/trimesh
v 0.07870454 0.07895568 -0.04690026
v 0.06392766 0.07895752 -0.04936373
v 0.06332229 0.07895752 -0.04940050
v 0.05750198 0.07895752 -0.04986929
v 0.04822449 0.07895752 -0.05063224
v 0.04344716 0.07895752 -0.05102749
v 0.04314812 0.07895752 -0.05105507
v 0.00419287 0.07895568 -0.05389541
v 0.07870454 0.07419994 -0.06375848
v 0.07870454 0.07895568 -0.08858620
v 0.06392766 0.07895752 -0.09969020
v 0.04314812 0.07895752 -0.09862392
v 0.00419287 0.07581143 -0.07436610
v 0.01302545 0.06030443 -0.12817635
v 0.00419287 0.07895568 -0.09695096
v 0.07870454 0.07419994 -0.09832977
v 0.06392766 0.06095452 -0.12211879
v 0.07870454 0.07830193 -0.09065441
v 0.07781472 0.07895568 -0.08978117
v 0.07177560 0.07895568 -0.09622479
v 0.06898944 0.07895568 -0.09811835
v 0.06615951 0.07895568 -0.09965343
v 0.06332229 0.07895752 -0.09970858
v 0.07630494 0.07895568 -0.09161957
v 0.07522548 0.07895568 -0.09286969
v 0.07459094 0.07895568 -0.09354071
v 0.07383969 0.07895568 -0.09428527
v 0.07237368 0.07895568 -0.09568246
v 0.04416194 0.07895752 -0.09868826
v 0.00419287 0.07581143 -0.10984741
v 0.01302545 0.07135418 -0.12817635
v 0.04314812 0.06095452 -0.14080622
v 0.04314812 0.06024949 -0.12817635
v 0.06216990 0.07895752 -0.09967181
v 0.00419287 0.07877439 -0.09798047
v 0.07855868 0.07419994 -0.09866988
v 0.07870454 0.07427868 -0.09823785
v 0.06392766 0.06095452 -0.13951014
v 0.06392766 0.06151855 -0.13935388
v 0.07870454 0.07818839 -0.09098532
v 0.07621013 0.07822868 -0.09385324
v 0.06781516 0.07823967 -0.10246619
v 0.06615951 0.07874509 -0.10081163
v 0.06392766 0.07875791 -0.10081163
v 0.06332229 0.07875975 -0.10081163
v 0.07076908 0.07549097 -0.10833991
v 0.06899673 0.07676185 -0.10650150
v 0.06885815 0.07767748 -0.10350490
v 0.01302545 0.07244743 -0.12470175
v 0.01302545 0.07194384 -0.12635632
v 0.01507496 0.07197314 -0.12635632
v 0.01507496 0.07137982 -0.12817635
v 0.04314812 0.06978297 -0.13372834
v 0.04314812 0.06907428 -0.13514392
v 0.04314812 0.06765323 -0.13737759
v 0.04314812 0.06646292 -0.13880236
v 0.04314812 0.06504553 -0.13973995
v 0.04314812 0.06257334 -0.14054885
v 0.04912889 0.06257334 -0.14039258
v 0.04506635 0.06095452 -0.14075107
v 0.04791086 0.06095452 -0.14066834
v 0.04912889 0.06095452 -0.14063157
v 0.06332229 0.07831475 -0.10283388
v 0.06332229 0.07750534 -0.10649231
v 0.06048507 0.07680947 -0.10933265
v 0.04061724 0.07509176 -0.11535344
v 0.02074940 0.07353336 -0.12068483
v 0.01507496 0.07246391 -0.12478449
v 0.07847114 0.07453322 -0.09846765
v 0.07658210 0.07419994 -0.10319237
v 0.07870454 0.07545617 -0.09675793
v 0.04912889 0.06493932 -0.13965722
v 0.04912889 0.06635670 -0.13874720
v 0.06392766 0.06263195 -0.13858175
v 0.07870454 0.07805472 -0.09131624
v 0.07611530 0.07535912 -0.10228235
v 0.07266542 0.07509908 -0.10720929
v 0.06615951 0.07660253 -0.10933265
v 0.06615951 0.07738997 -0.10650150
v 0.06615951 0.07829827 -0.10272357
v 0.07180478 0.07419994 -0.11083095
v 0.07120669 0.07419994 -0.11153874
v 0.06992302 0.07516500 -0.11021509
v 0.06898214 0.07583891 -0.10929588
v 0.06392766 0.07277523 -0.12300123
v 0.06502170 0.07544335 -0.11392868
v 0.04912889 0.06978297 -0.13372834
v 0.04629168 0.06907428 -0.13516231
v 0.04344716 0.06765323 -0.13737759
v 0.04912889 0.06765689 -0.13732244
v 0.06332229 0.07683510 -0.10933265
v 0.04912889 0.07549463 -0.11413090
v 0.05196611 0.07550379 -0.11414929
v 0.04344716 0.07443983 -0.11785368
v 0.02074940 0.07245659 -0.12478449
v 0.07572874 0.07419994 -0.10481016
v 0.06392766 0.06434050 -0.13710183
v 0.05196611 0.06764041 -0.13718456
v 0.05480333 0.06741700 -0.13686284
v 0.06392766 0.06980861 -0.13081447
v 0.07230074 0.07419994 -0.11011398
v 0.06332229 0.07606049 -0.11216380
v 0.06392766 0.07025543 -0.12982173
v 0.06332229 0.07171494 -0.12636552
v 0.06332229 0.07235770 -0.12453630
v 0.06332229 0.07281551 -0.12312072
v 0.06332229 0.07354618 -0.12068483
v 0.06332229 0.07438856 -0.11785368
v 0.06048507 0.07188707 -0.12636552
v 0.06048507 0.07100075 -0.12919667
v 0.05136804 0.06974268 -0.13363643
v 0.04912889 0.06907794 -0.13514392
v 0.06048507 0.07606231 -0.11216380
v 0.06392766 0.06456574 -0.13687203
v 0.06392766 0.06562054 -0.13573221
v 0.06392766 0.06809822 -0.13283672
v 0.05702060 0.06708371 -0.13655031
v 0.05891694 0.06678338 -0.13624697
v 0.05217033 0.06917683 -0.13470271
v 0.05480333 0.06881607 -0.13488654
v 0.05764785 0.06952659 -0.13321359
v 0.06048507 0.06918049 -0.13282752
v 0.06332229 0.06872634 -0.13234954
v 0.06332229 0.06989284 -0.13093396
v 0.06332229 0.07066746 -0.12919667
v 0.06048507 0.07009794 -0.13140276
v 0.05480333 0.06964929 -0.13340663
v 0.06048507 0.06653434 -0.13596202
v 0.06332229 0.06730712 -0.13400411
v 0.06048507 0.06775944 -0.13453724
f 1 2 3
f 1 3 4
f 1 4 5
f 1 5 6
f 1 6 7
f 1 7 8
f 1 8 9
f 1 9 16
f 1 16 37
f 1 37 71
f 1 71 75
f 1 75 40
f 1 40 18
f 1 18 10
f 1 10 11
f 1 11 2
f 2 11 23
f 2 23 34
f 2 34 29
f 2 29 12
f 2 12 7
f 2 7 6
f 2 6 5
f 2 5 4
f 2 4 3
f 7 12 15
f 7 15 8
f 8 13 14
f 8 14 9
f 8 15 35
f 8 35 30
f 8 30 13
f 9 14 17
f 9 17 38
f 9 38 16
f 10 18 19
f 10 19 11
f 11 20 21
f 11 21 22
f 11 22 23
f 11 19 24
f 11 24 25
f 11 25 26
f 11 26 27
f 11 27 28
f 11 28 20
f 12 29 15
f 13 30 14
f 14 31 32
f 14 32 33
f 14 33 17
f 14 30 31
f 15 29 34
f 15 34 35
f 16 36 37
f 16 38 39
f 16 39 36
f 17 33 38
f 18 40 41
f 18 41 24
f 18 24 19
f 20 28 42
f 20 42 21
f 21 42 43
f 21 43 22
f 22 43 44
f 22 44 23
f 23 44 45
f 23 45 34
f 24 41 46
f 24 46 25
f 25 46 47
f 25 47 26
f 26 47 27
f 27 47 48
f 27 48 28
f 28 48 42
f 30 35 49
f 30 49 50
f 30 50 31
f 31 50 51
f 31 51 52
f 31 52 53
f 31 53 54
f 31 54 55
f 31 55 56
f 31 56 57
f 31 57 58
f 31 58 32
f 32 58 59
f 32 59 60
f 32 60 33
f 33 60 61
f 33 61 62
f 33 62 38
f 34 45 35
f 35 45 63
f 35 63 64
f 35 64 65
f 35 65 66
f 35 66 67
f 35 67 68
f 35 68 49
f 36 69 37
f 36 39 70
f 36 70 69
f 37 69 71
f 38 62 59
f 38 59 39
f 39 59 72
f 39 72 73
f 39 73 74
f 39 74 70
f 40 75 76
f 40 76 77
f 40 77 46
f 40 46 41
f 42 48 47
f 42 47 78
f 42 78 79
f 42 79 80
f 42 80 43
f 43 80 64
f 43 64 63
f 43 63 44
f 44 63 45
f 46 77 81
f 46 81 82
f 46 82 83
f 46 83 84
f 46 84 47
f 47 84 85
f 47 85 86
f 47 86 78
f 49 68 50
f 50 68 51
f 51 68 53
f 51 53 52
f 53 87 88
f 53 88 54
f 53 68 87
f 54 88 55
f 55 88 89
f 55 89 56
f 56 89 90
f 56 90 73
f 56 73 57
f 57 73 72
f 57 72 58
f 58 72 59
f 59 62 61
f 59 61 60
f 64 80 91
f 64 91 65
f 65 91 92
f 65 92 66
f 66 92 68
f 66 68 67
f 68 92 93
f 68 93 94
f 68 94 95
f 68 95 87
f 69 70 71
f 70 96 76
f 70 76 71
f 70 74 97
f 70 97 96
f 71 76 75
f 73 90 98
f 73 98 99
f 73 99 74
f 74 99 97
f 76 96 100
f 76 100 101
f 76 101 81
f 76 81 77
f 78 86 79
f 79 86 102
f 79 102 91
f 79 91 80
f 81 101 100
f 81 100 103
f 81 103 82
f 82 103 85
f 82 85 83
f 83 85 84
f 85 103 104
f 85 104 105
f 85 105 106
f 85 106 86
f 86 106 107
f 86 107 108
f 86 108 102
f 87 108 109
f 87 109 110
f 87 110 111
f 87 111 112
f 87 112 88
f 87 95 94
f 87 94 102
f 87 102 108
f 88 112 89
f 89 112 90
f 90 112 98
f 91 102 113
f 91 113 93
f 91 93 92
f 93 113 102
f 93 102 94
f 96 97 114
f 96 114 115
f 96 115 116
f 96 116 100
f 97 99 117
f 97 117 118
f 97 118 114
f 98 112 119
f 98 119 120
f 98 120 99
f 99 120 121
f 99 121 122
f 99 122 117
f 100 116 123
f 100 123 124
f 100 124 103
f 103 124 125
f 103 125 104
f 104 125 110
f 104 110 105
f 105 110 106
f 106 110 109
f 106 109 107
f 107 109 108
f 110 125 126
f 110 126 127
f 110 127 111
f 111 127 119
f 111 119 112
f 114 118 128
f 114 128 115
f 115 128 129
f 115 129 123
f 115 123 116
f 117 122 130
f 117 130 118
f 118 130 128
f 119 127 121
f 119 121 120
f 121 126 124
f 121 124 122
f 121 127 126
f 122 124 123
f 122 123 130
f 123 129 130
f 124 126 125
f 128 130 129

