# https://github.com/mikedh/trimesh
v 0.07871291 -0.09639689 0.14219221
v 0.07871291 -0.09534340 0.14211804
v 0.07750622 -0.09639982 0.14226637
v 0.07871291 -0.09825372 0.14201915
v 0.07750622 -0.09439586 0.14206860
v 0.07871291 -0.09450768 0.14201915
v 0.07182254 -0.09639982 0.14226637
v 0.07750622 -0.09828314 0.14206860
v 0.07871291 -0.09944845 0.14046165
v 0.07182254 -0.09439586 0.14206860
v 0.07750622 -0.09296865 0.14140110
v -0.09627451 -0.08250742 0.13932444
v 0.07871291 -0.09323644 0.14140110
v 0.06897196 -0.09439880 0.14206860
v 0.05763957 -0.09639982 0.14221693
v 0.04060602 -0.09825961 0.14206860
v 0.04342163 -0.09827138 0.14206860
v 0.04627221 -0.09828314 0.14206860
v 0.07750622 -0.09948082 0.14046165
v 0.07871291 -0.10022237 0.13761862
v -0.09758613 -0.08250742 0.13932444
v 0.07871291 -0.09239484 0.14078304
v 0.07871291 -0.09161503 0.13996721
v 0.07871291 -0.09131487 0.13900306
v 0.07871291 -0.09096763 0.13761862
v 0.07871291 -0.07015991 -0.05766126
v 0.05478899 -0.09452240 0.14201915
v 0.04627221 -0.09639982 0.14216748
v 0.01788878 -0.09804479 0.14196971
v -0.06724402 -0.09898939 0.14006610
v 0.03775543 -0.09944256 0.14046165
v 0.04342163 -0.09947788 0.14046165
v 0.04627221 -0.09948082 0.14046165
v -0.03317691 -0.10022237 0.13761862
v 0.07871291 -0.10022237 0.12745784
v -0.06939507 -0.07052480 -0.05449683
v -0.09923002 -0.08250742 0.13729723
v -0.09994704 -0.08392873 0.13633307
v -0.09755116 -0.08441428 0.13925027
v -0.08712816 -0.09640277 0.14001666
v -0.08996126 -0.09072927 0.13989305
v -0.08712816 -0.09072927 0.14011554
v -0.08996126 -0.08788958 0.13989305
v -0.08429506 -0.09072927 0.14028860
v -0.06441092 -0.09639982 0.14112915
v -0.04169369 -0.09639982 0.14137638
v 0.01788878 -0.09528455 0.14187082
v 0.02444688 -0.09496380 0.14189554
v 0.02925615 -0.09487258 0.14192027
v 0.07871291 -0.07015991 -0.09612884
v 0.00648644 -0.07015991 -0.07246980
v 0.03492234 -0.09639982 0.14209332
v 0.00452776 -0.09770343 0.14189554
v 0.00452776 -0.09784469 0.14189554
v -0.06724402 -0.09639982 0.14107971
v -0.06939507 -0.09640277 0.14100555
v -0.08712816 -0.09855682 0.13949750
v -0.08712816 -0.09975448 0.13761862
v -0.06724402 -0.10019000 0.13761862
v -0.08712816 -0.10021649 0.13477558
v -0.06724402 -0.10022237 0.13477558
v 0.07750622 -0.10022237 0.12627117
v 0.07871291 -0.10021061 0.12627117
v 0.00458022 -0.07015991 -0.07303840
v 0.00419548 -0.07015991 -0.07323618
v -0.06939507 -0.07052480 -0.09469496
v -0.09992955 -0.08250742 0.13499807
v -0.09987709 -0.08250742 0.13596224
v -0.09928250 -0.08250742 0.13722306
v -0.09994704 -0.08332842 0.13633307
v -0.09741125 -0.09530514 0.13650612
v -0.09765609 -0.09356602 0.13677807
v -0.09867041 -0.08511758 0.13766806
v -0.09994704 -0.08392873 0.13564085
v -0.09991207 -0.08652712 0.13059754
v -0.09912510 -0.09072927 0.13193253
v -0.09839059 -0.09356602 0.13477558
v -0.09148274 -0.09789765 0.13907722
v -0.08996126 -0.09640277 0.13959638
v -0.09564493 -0.09356602 0.13798945
v -0.08144448 -0.09356602 0.14043693
v -0.08996126 -0.09828609 0.13929972
v -0.07861138 -0.09356602 0.14058527
v 0.01788878 -0.09670293 0.14196971
v 0.01220510 -0.09565239 0.14184609
v 0.07871291 -0.07218742 -0.09318692
v 0.07677172 -0.07015991 -0.10090022
v -0.08996126 -0.09932780 0.13761862
v -0.08996126 -0.09989868 0.13477558
v -0.08712816 -0.10019295 0.13193253
v -0.08429506 -0.10022237 0.13193253
v 0.06615635 -0.10022237 0.12342813
v 0.05763957 -0.10021061 0.12058509
v 0.07182254 -0.10019589 0.12342813
v 0.07465564 -0.10017529 0.12342813
v 0.07750622 -0.10014881 0.12342813
v 0.07871291 -0.10016647 0.12461479
v 0.00419548 -0.07015991 -0.10920684
v -0.08558919 -0.08250742 -0.02131977
v -0.08614882 -0.08250742 -0.01845201
v -0.08658602 -0.08250742 -0.01597980
v -0.08700574 -0.08250742 -0.01330981
v -0.08817746 -0.08250742 -0.00557179
v -0.08854471 -0.08250742 -0.00297597
v -0.08877205 -0.08250742 -0.00109709
v -0.08938414 -0.08250742 0.00424288
v -0.08968145 -0.08250742 0.00708592
v -0.08996126 -0.08250742 0.00990424
v -0.09356384 -0.08250742 0.04676490
v -0.09414095 -0.08250742 0.05269820
v -0.09461313 -0.08250742 0.05811234
v -0.09484048 -0.08250742 0.06098010
v -0.09527768 -0.08250742 0.06664146
v -0.09571489 -0.08250742 0.07232754
v -0.09590726 -0.08250742 0.07487392
v -0.09611712 -0.08250742 0.07771696
v -0.09674669 -0.08250742 0.08651803
v -0.09713144 -0.08250742 0.09208051
v -0.09961477 -0.08250742 0.12911421
v -0.09978965 -0.08250742 0.13175948
v -0.09989458 -0.08250742 0.13353947
v -0.09992955 -0.08250742 0.13475085
v -0.06925517 -0.07052480 -0.09504107
v -0.06939507 -0.07239341 -0.09143165
v -0.08289600 -0.08250742 -0.03106028
v -0.08340316 -0.08250742 -0.02930501
v -0.08518696 -0.08250742 -0.02302560
v -0.08546678 -0.08250742 -0.02186366
v -0.09755116 -0.09550525 0.13477558
v -0.09599470 -0.09692656 0.13477558
v -0.09457815 -0.09810364 0.13477558
v -0.09428086 -0.09785940 0.13625890
v -0.09991207 -0.08636822 0.13035032
v -0.09991207 -0.08652712 0.13035032
v -0.09898519 -0.09072927 0.12908949
v -0.09839059 -0.09356602 0.13193253
v -0.09256701 -0.09824195 0.13737139
v 0.07871291 -0.07500062 -0.08492973
v 0.07818827 -0.07474755 -0.08661083
v 0.07624708 -0.07518013 -0.08816833
v 0.07474308 -0.07015991 -0.10428714
v 0.07511033 -0.07015991 -0.10371853
v -0.09279435 -0.09898645 0.13477558
v -0.09279435 -0.09911004 0.13193253
v -0.08996126 -0.09984277 0.13193253
v -0.08712816 -0.10011938 0.12908949
v -0.08429506 -0.10017824 0.12908949
v 0.02640556 -0.10022237 0.12342813
v 0.05478899 -0.10021061 0.12058509
v 0.05478899 -0.10013410 0.11776677
v 0.05763957 -0.10013115 0.11776677
v 0.06047267 -0.10019589 0.12058509
v 0.06615635 -0.10015763 0.12058509
v 0.06897196 -0.10012821 0.12058509
v 0.07465564 -0.10004581 0.12058509
v 0.07750622 -0.09998991 0.12058509
v 0.07871291 -0.10003110 0.12179647
v 0.07871291 -0.10011644 0.12342813
v 0.00643398 -0.07015991 -0.10940462
v -0.04737737 -0.07052480 -0.10992378
v -0.05306105 -0.07052480 -0.10935517
v -0.05549192 -0.07052480 -0.10893489
v -0.05587666 -0.07052480 -0.10881128
v -0.05872724 -0.07052480 -0.10737740
v -0.06164778 -0.07052480 -0.10522658
v -0.06444590 -0.07052480 -0.10253187
v -0.06628217 -0.07052480 -0.10013383
v -0.06740141 -0.07052480 -0.09865050
v -0.06845071 -0.07052480 -0.09677162
v -0.08532687 -0.08301061 -0.02131977
v -0.08555421 -0.08341082 -0.01919367
v -0.08864964 -0.08663306 0.00795120
v -0.08857969 -0.08367860 -0.00020710
v -0.08947158 -0.08505284 0.00990424
v -0.09069577 -0.08505284 0.02125169
v -0.09419341 -0.08620931 0.05707401
v -0.09429834 -0.08432011 0.05588735
v -0.09421090 -0.08338139 0.05400847
v -0.09515527 -0.08505284 0.06664146
v -0.06911527 -0.07259939 -0.09172831
v -0.08062253 -0.08250742 -0.03775997
v -0.08226643 -0.08250742 -0.03301333
v -0.08317582 -0.08394345 -0.02646196
v -0.09744622 -0.09544639 0.13193253
v -0.09618707 -0.09686477 0.13193253
v -0.09477052 -0.09826254 0.13193253
v -0.09961477 -0.08763946 0.12928726
v -0.09707897 -0.08651535 0.09348966
v -0.09933496 -0.08788958 0.12627117
v -0.09833813 -0.09072927 0.12058509
v -0.09713144 -0.09225947 0.10995458
v 0.07871291 -0.07799039 -0.07598034
v 0.06615635 -0.07256114 -0.10045521
v 0.06330576 -0.07015991 -0.11019572
v 0.06615635 -0.07015991 -0.10925628
v 0.07182254 -0.07015991 -0.10693240
v 0.07243463 -0.07015991 -0.10648741
v 0.07848557 -0.07791388 -0.07652422
v 0.07750622 -0.07905270 -0.07242035
v 0.07465564 -0.07568627 -0.08661083
v -0.09457815 -0.09811835 0.12908949
v -0.09279435 -0.09887757 0.12908949
v -0.09136031 -0.09781526 0.11074569
v -0.08996126 -0.09948376 0.12627117
v -0.08996126 -0.09969858 0.12908949
v -0.08712816 -0.09996047 0.12627117
v -0.08429506 -0.10004876 0.12627117
v 0.04910531 -0.10012526 0.11776677
v 0.05195589 -0.10013410 0.11776677
v 0.02640556 -0.10016352 0.12058509
v 0.05195589 -0.09984866 0.11208069
v 0.05478899 -0.09984277 0.11208069
v 0.05763957 -0.09997519 0.11492373
v 0.06047267 -0.10009878 0.11776677
v 0.05763957 -0.09965444 0.10921292
v 0.05478899 -0.09936900 0.10352683
v 0.05763957 -0.09932192 0.10352683
v 0.07871291 -0.09995459 0.12058509
v 0.06330576 -0.09920420 0.10352683
v 0.07465564 -0.09931897 0.10921292
v 0.07750622 -0.09495497 0.04298241
v 0.07871291 -0.09781232 0.08748220
v 0.00937200 -0.07015991 -0.10960239
v 0.01505569 -0.07015991 -0.10980017
v 0.02925615 -0.07015991 -0.11014628
v 0.03392551 -0.07015991 -0.11024517
v 0.03953923 -0.07015991 -0.11029461
v 0.04627221 -0.07015991 -0.11026989
v 0.05763957 -0.07015991 -0.11022045
v 0.06330576 -0.07337921 -0.09798300
v -0.04737737 -0.07292015 -0.10080132
v -0.05021046 -0.07292015 -0.10080132
v -0.05021046 -0.07241401 -0.10270492
v -0.06156034 -0.07579515 -0.08942916
v -0.06156034 -0.07528901 -0.09125860
v -0.06323921 -0.07522721 -0.09113498
v -0.06580998 -0.07227865 -0.09652440
v -0.06853815 -0.07222568 -0.09360719
v -0.08354307 -0.08426714 -0.02416281
v -0.08579905 -0.08938741 0.00528121
v -0.08574659 -0.08367860 -0.01729007
v -0.08761783 -0.08829861 0.00990424
v -0.08878954 -0.08687730 0.00990424
v -0.08903438 -0.08522351 0.00703648
v -0.09139530 -0.08650064 0.03104164
v -0.09130785 -0.08604452 0.02913804
v -0.09440327 -0.08518232 0.05808762
v -0.09426337 -0.08660952 0.05897761
v -0.09602967 -0.08788958 0.08367499
v -0.09491043 -0.08505284 0.06379842
v -0.06649202 -0.07542438 -0.08661083
v -0.06918522 -0.07819344 -0.07452173
v -0.06939507 -0.07825818 -0.07402729
v -0.07719483 -0.08364035 -0.04263022
v -0.07826162 -0.08250742 -0.04359438
v -0.07876877 -0.08250742 -0.04243244
v -0.07997546 -0.08250742 -0.03949051
v -0.07994048 -0.08356972 -0.03674636
v -0.08029026 -0.08389342 -0.03486748
v -0.08259870 -0.08333725 -0.02982417
v -0.07995798 -0.08644767 -0.02834085
v -0.08116467 -0.08476740 -0.02982417
v -0.09728883 -0.09524629 0.12908949
v -0.09428086 -0.09222122 0.08458971
v -0.09141278 -0.09217707 0.06214204
v -0.09428086 -0.09786528 0.12446646
v -0.09648437 -0.08788958 0.08936108
v -0.09790092 -0.09072927 0.11489901
v -0.09767357 -0.09072927 0.11208069
v -0.09702651 -0.09204171 0.10805098
v -0.09422838 -0.08930796 0.06807535
v -0.09141278 -0.08934033 0.04231492
v -0.09714893 -0.09509033 0.12691394
v 0.07871291 -0.08084774 -0.06470706
v 0.07836315 -0.08078300 -0.06525094
v -0.08849224 -0.09496968 0.06822368
v -0.08293098 -0.09216825 0.01675227
v -0.08578156 -0.09500499 0.05929900
v -0.08712816 -0.09668527 0.08367499
v -0.08712816 -0.09692068 0.08651803
v -0.08572910 -0.09782997 0.09353911
v -0.08429506 -0.09912770 0.11208069
v -0.08429506 -0.09931308 0.11489901
v -0.08429506 -0.09949848 0.11774204
v -0.06724402 -0.09898645 0.10639460
v -0.04737737 -0.09896879 0.10350211
v -0.04169369 -0.09901293 0.10350211
v 0.00419548 -0.09902176 0.09789020
v 0.00652142 -0.09903648 0.09789020
v 0.00085523 -0.09915712 0.10070852
v 0.00419548 -0.09917478 0.10070852
v 0.01505569 -0.09908356 0.09789020
v 0.01505569 -0.09922186 0.10073324
v 0.01505569 -0.09935134 0.10352683
v 0.02925615 -0.09953085 0.10639460
v 0.02925615 -0.09939548 0.10352683
v 0.04910531 -0.09984866 0.11208069
v 0.04910531 -0.09925129 0.10073324
v 0.05195589 -0.09939548 0.10352683
v 0.05478899 -0.09953085 0.10639460
v 0.05763957 -0.09981629 0.11208069
v 0.05195589 -0.09923952 0.10073324
v 0.05195589 -0.09907767 0.09789020
v 0.05478899 -0.09902176 0.09789020
v 0.05763957 -0.09840968 0.08936108
v 0.07871291 -0.09502559 0.04473769
v 0.05763957 -0.09822429 0.08651803
v 0.05195589 -0.09889523 0.09502243
v 0.05763957 -0.09778289 0.08001612
v 0.07465564 -0.09525513 0.04678962
v 0.07465564 -0.09485198 0.04107881
v 0.07750622 -0.09461951 0.03826049
v 0.07871291 -0.09456948 0.03826049
v 0.07743627 -0.08106844 -0.06416317
v 0.05478899 -0.07547734 -0.08945388
v 0.05478899 -0.07513305 -0.09091249
v -0.05587666 -0.07722824 -0.08376780
v -0.05587666 -0.07652200 -0.08661083
v -0.05872724 -0.07580986 -0.08942916
v -0.05872724 -0.07652200 -0.08661083
v -0.06156034 -0.07647492 -0.08661083
v -0.06587994 -0.07797274 -0.07954032
v -0.06591491 -0.07516247 -0.08811888
v -0.08030774 -0.08665071 -0.02643724
v -0.08555421 -0.08915200 0.00337761
v -0.08448743 -0.09006423 0.00429233
v -0.08560668 -0.09210351 0.02587472
v -0.08595644 -0.08951689 0.00708592
v -0.08845726 -0.08922556 0.02033697
v -0.08784518 -0.08858405 0.01274729
v -0.08342065 -0.08974348 -0.00144320
v -0.08385785 -0.09002598 0.00139984
v -0.08898192 -0.08716569 0.01274729
v -0.06901033 -0.08094190 -0.06589372
v -0.06939507 -0.08066235 -0.06626455
v -0.07806924 -0.08667131 -0.02928029
v -0.08144448 -0.09099706 0.00139984
v -0.07166854 -0.08371686 -0.05150546
v -0.08859717 -0.08936387 0.02224057
v -0.08863215 -0.09221239 0.04481185
v -0.08579905 -0.09220062 0.02777832
v 0.07871291 -0.08186296 -0.05986152
v 0.07750622 -0.08178351 -0.06107291
v -0.08429506 -0.09052917 0.00708592
v -0.08144448 -0.09136783 0.00424288
v -0.08144448 -0.09163856 0.00708592
v -0.08130457 -0.09190635 0.00983008
v -0.08025528 -0.09218591 0.01072007
v -0.08429506 -0.09785351 0.09316827
v -0.08429506 -0.09874515 0.10639460
v -0.08258121 -0.09497557 0.05116543
v -0.07292770 -0.09415750 0.03544217
v -0.06724402 -0.09879812 0.10350211
v -0.06156034 -0.09884814 0.10350211
v 0.00419548 -0.09883931 0.09499771
v 0.01220510 -0.09890700 0.09502243
v 0.01220510 -0.09906884 0.09789020
v 0.02072188 -0.09909827 0.09789020
v 0.01505569 -0.09891876 0.09502243
v 0.02640556 -0.09925129 0.10073324
v 0.04910531 -0.09909827 0.09789020
v 0.04910531 -0.09892171 0.09502243
v 0.05478899 -0.09865393 0.09220412
v 0.05195589 -0.09869806 0.09220412
v 0.05195589 -0.09849502 0.08936108
v 0.07465564 -0.09442823 0.03541745
v 0.06615635 -0.09571713 0.05242625
v 0.00370581 -0.09437526 0.03254969
v 0.07750622 -0.09439586 0.03541745
v 0.07871291 -0.09434583 0.03541745
v 0.06047267 -0.07737243 -0.08094948
v -0.05587666 -0.07776381 -0.08144392
v -0.05872724 -0.07719587 -0.08376780
v -0.06441092 -0.07904682 -0.07526339
v -0.06441092 -0.07838471 -0.07808171
v -0.06724402 -0.08100664 -0.06626455
v -0.06724402 -0.08068295 -0.06764898
v -0.08620128 -0.08969933 0.00990424
v -0.07520117 -0.08664189 -0.03197499
v -0.07861138 -0.09047326 -0.00428624
v -0.07861138 -0.09125896 0.00139984
v -0.07009460 -0.08375217 -0.05170323
v -0.07009460 -0.08413471 -0.04970074
v -0.07009460 -0.08464969 -0.04685770
v -0.07296268 -0.08673605 -0.03281554
v 0.07871291 -0.08245150 -0.05704321
v -0.06441092 -0.08070355 -0.06767371
v -0.05872724 -0.07908801 -0.07526339
v 0.07750622 -0.08236911 -0.05820515
v -0.07861138 -0.09162091 0.00424288
v -0.07861138 -0.09192400 0.00708592
v -0.07861138 -0.09210645 0.00896480
v -0.07861138 -0.09223299 0.01037396
v -0.07861138 -0.09241837 0.01274729
v -0.08144448 -0.09629389 0.06948451
v -0.08144448 -0.09649105 0.07232754
v -0.07292770 -0.09318936 0.02125169
v -0.07292770 -0.09377201 0.02975609
v -0.07292770 -0.09396623 0.03259913
v -0.07577829 -0.09290980 0.01840865
v -0.08154941 -0.09490788 0.04970682
v -0.07009460 -0.09501677 0.04770434
v -0.06939507 -0.09519921 0.05030015
v -0.06724402 -0.09440763 0.03823577
v 0.00085523 -0.09823901 0.08649331
v 0.00419548 -0.09868335 0.09267383
v 0.00419548 -0.09829786 0.08696303
v 0.01220510 -0.09830080 0.08651803
v 0.01788878 -0.09892171 0.09502243
v 0.01505569 -0.09871572 0.09220412
v 0.04910531 -0.09871278 0.09220412
v 0.03208924 -0.09727086 0.07230282
v 0.04627221 -0.09829786 0.08651803
v 0.00937200 -0.09436349 0.03257441
v 0.04910531 -0.09426638 0.03257441
v 0.06330576 -0.09423107 0.03257441
v 0.07465564 -0.09420164 0.03257441
v 0.01505569 -0.09582601 0.05242625
v 0.00419548 -0.09479312 0.03826049
v 0.00085523 -0.09437526 0.03254969
v 0.00370581 -0.09412808 0.02973137
v 0.01505569 -0.09411042 0.02975609
v 0.07750622 -0.09367785 0.02691305
v 0.07871291 -0.09365136 0.02691305
v -0.06156034 -0.07908801 -0.07526339
v -0.05872724 -0.07806690 -0.07996059
v -0.06441092 -0.07968832 -0.07239563
v -0.06724402 -0.08147748 -0.06386650
v -0.06441092 -0.08030628 -0.06955259
v -0.07292770 -0.08896955 -0.01847673
v -0.07472899 -0.08935210 -0.01462008
v -0.07292770 -0.08925204 -0.01659785
v -0.07009460 -0.08511463 -0.04401466
v -0.07201832 -0.08653595 -0.03452137
v 0.07871291 -0.08364035 -0.05110990
v 0.07750622 -0.08537065 -0.04117162
v -0.06939507 -0.08476740 -0.04616548
v -0.06724402 -0.08638882 -0.03642497
v 0.07871291 -0.08359620 -0.05133240
v -0.07009460 -0.09167682 0.00424288
v -0.07009460 -0.08946981 -0.01546063
v -0.07009460 -0.08978762 -0.01281537
v -0.07009460 -0.09136489 0.00139984
v -0.06441092 -0.09325116 0.02117752
v -0.06724402 -0.09324232 0.02117752
v -0.05021046 -0.09328058 0.02117752
v -0.06939507 -0.09323350 0.02117752
v -0.07009460 -0.09323056 0.02125169
v -0.07577829 -0.09269499 0.01559033
v -0.07861138 -0.09479900 0.04676490
v -0.07577829 -0.09350423 0.02691305
v -0.07861138 -0.09504031 0.05022599
v -0.07577829 -0.09389855 0.03259913
v -0.07009460 -0.09342478 0.02407001
v -0.05872724 -0.09409571 0.03254969
v -0.05306105 -0.09412808 0.03254969
v 0.00419548 -0.09792120 0.08169722
v 0.01220510 -0.09790943 0.08110389
v 0.00085523 -0.09560236 0.04958321
v 0.00370581 -0.09561413 0.04958321
v 0.00652142 -0.09582601 0.05242625
v 0.01505569 -0.09830375 0.08651803
v 0.06330576 -0.09398389 0.02975609
v 0.07465564 -0.09395152 0.02975609
v 0.07750622 -0.09342772 0.02407001
v -0.00197787 -0.09436349 0.03254969
v -0.01614335 -0.09409571 0.02973137
v -0.01331026 -0.09410453 0.02973137
v -0.00197787 -0.09412808 0.02973137
v 0.07750622 -0.09165033 0.00424288
v 0.07871291 -0.09164739 0.00424288
v 0.07871291 -0.09341006 0.02407001
v -0.07009460 -0.08603864 -0.03835330
v -0.07009460 -0.08822505 -0.02416281
v -0.07009460 -0.08928736 -0.01689451
v -0.07009460 -0.08864879 -0.02131977
v -0.06939507 -0.08604746 -0.03835330
v 0.07871291 -0.08642119 -0.03474387
v 0.07750622 -0.08585031 -0.03832857
v -0.06441092 -0.08638882 -0.03647442
v -0.06441092 -0.08662718 -0.03504054
v -0.06441092 -0.08700973 -0.03266722
v -0.06724402 -0.08697441 -0.03266722
v 0.07465564 -0.08881948 -0.01845201
v 0.07465564 -0.08915494 -0.01580674
v 0.07750622 -0.09094998 -0.00141848
v 0.07750622 -0.09130016 0.00139984
v -0.06939507 -0.09328646 0.02194391
v 0.07871291 -0.09129722 0.00139984
v -0.06939507 -0.08668014 -0.03429887
v -0.06724402 -0.08740699 -0.02982417
v -0.06724402 -0.08783662 -0.02698113
v 0.07465564 -0.08845458 -0.02129505
v -0.06441092 -0.08743641 -0.02982417
v 0.07465564 -0.08805732 -0.02411337
v 0.07871291 -0.08649770 -0.03427415
v 0.07750622 -0.08627700 -0.03570803
v 0.07750622 -0.08650064 -0.03427415
v 0.07465564 -0.08762474 -0.02695641
v 0.07654437 -0.08932562 -0.01434814
v 0.07871291 -0.09094409 -0.00141848
v 0.07750622 -0.08837513 -0.02129505
v 0.07871291 -0.08889304 -0.01724062
v 0.07871291 -0.08921085 -0.01486730
v 0.07750622 -0.08758061 -0.02695641
v 0.07750622 -0.08798080 -0.02411337
v 0.07871291 -0.08850167 -0.02008366
v 0.07871291 -0.08984941 -0.00994760
f 1 2 3
f 1 3 4
f 1 4 9
f 1 9 20
f 1 20 35
f 1 35 63
f 1 63 97
f 1 97 158
f 1 158 157
f 1 157 218
f 1 218 222
f 1 222 306
f 1 306 313
f 1 313 370
f 1 370 424
f 1 424 472
f 1 472 471
f 1 471 489
f 1 489 501
f 1 501 508
f 1 508 504
f 1 504 503
f 1 503 507
f 1 507 496
f 1 496 478
f 1 478 435
f 1 435 439
f 1 439 386
f 1 386 342
f 1 342 274
f 1 274 192
f 1 192 138
f 1 138 86
f 1 86 50
f 1 50 26
f 1 26 25
f 1 25 24
f 1 24 23
f 1 23 22
f 1 22 13
f 1 13 6
f 1 6 2
f 2 5 3
f 2 6 5
f 3 5 10
f 3 10 7
f 3 7 18
f 3 18 8
f 3 8 4
f 4 8 9
f 5 6 11
f 5 11 12
f 5 12 21
f 5 21 10
f 6 13 11
f 7 10 14
f 7 14 15
f 7 15 16
f 7 16 17
f 7 17 18
f 8 18 33
f 8 33 19
f 8 19 9
f 9 19 20
f 10 21 14
f 11 13 22
f 11 22 12
f 12 22 23
f 12 23 24
f 12 24 25
f 12 25 26
f 12 26 21
f 14 27 15
f 14 21 27
f 15 27 28
f 15 28 16
f 16 28 29
f 16 29 30
f 16 30 31
f 16 31 32
f 16 32 17
f 17 32 18
f 18 32 33
f 19 33 34
f 19 34 20
f 20 34 61
f 20 61 91
f 20 91 148
f 20 148 92
f 20 92 62
f 20 62 35
f 21 26 36
f 21 36 37
f 21 37 38
f 21 38 39
f 21 39 40
f 21 40 41
f 21 41 42
f 21 42 43
f 21 43 44
f 21 44 45
f 21 45 46
f 21 46 47
f 21 47 48
f 21 48 49
f 21 49 27
f 26 50 87
f 26 87 142
f 26 142 141
f 26 141 197
f 26 197 196
f 26 196 195
f 26 195 194
f 26 194 229
f 26 229 228
f 26 228 227
f 26 227 226
f 26 226 225
f 26 225 224
f 26 224 223
f 26 223 159
f 26 159 98
f 26 98 65
f 26 65 64
f 26 64 51
f 26 51 36
f 27 49 28
f 28 49 52
f 28 52 53
f 28 53 54
f 28 54 29
f 29 54 30
f 30 32 31
f 30 54 55
f 30 55 56
f 30 56 57
f 30 57 58
f 30 58 59
f 30 59 32
f 32 59 33
f 33 59 34
f 34 59 60
f 34 60 61
f 35 62 63
f 36 51 64
f 36 64 65
f 36 65 98
f 36 98 66
f 36 66 122
f 36 122 67
f 36 67 68
f 36 68 69
f 36 69 37
f 37 69 70
f 37 70 38
f 38 71 72
f 38 72 73
f 38 73 39
f 38 70 74
f 38 74 134
f 38 134 75
f 38 75 76
f 38 76 77
f 38 77 71
f 39 78 79
f 39 79 40
f 39 73 72
f 39 72 71
f 39 71 80
f 39 80 78
f 40 81 42
f 40 42 41
f 40 79 82
f 40 82 57
f 40 57 56
f 40 56 81
f 42 81 44
f 42 44 43
f 44 81 83
f 44 83 56
f 44 56 55
f 44 55 45
f 45 55 54
f 45 54 53
f 45 53 46
f 46 53 84
f 46 84 85
f 46 85 47
f 47 85 84
f 47 84 52
f 47 52 48
f 48 52 49
f 50 86 87
f 52 84 53
f 56 83 81
f 57 82 58
f 58 88 89
f 58 89 60
f 58 60 59
f 58 82 88
f 60 89 90
f 60 90 91
f 60 91 61
f 62 92 93
f 62 93 94
f 62 94 95
f 62 95 96
f 62 96 63
f 63 96 97
f 66 99 100
f 66 100 101
f 66 101 102
f 66 102 103
f 66 103 104
f 66 104 105
f 66 105 106
f 66 106 107
f 66 107 108
f 66 108 109
f 66 109 110
f 66 110 111
f 66 111 112
f 66 112 113
f 66 113 114
f 66 114 115
f 66 115 116
f 66 116 117
f 66 117 118
f 66 118 119
f 66 119 120
f 66 120 121
f 66 121 122
f 66 98 123
f 66 123 124
f 66 124 125
f 66 125 126
f 66 126 127
f 66 127 128
f 66 128 99
f 67 70 68
f 67 122 70
f 68 70 69
f 70 122 74
f 71 77 129
f 71 129 130
f 71 130 131
f 71 131 132
f 71 132 78
f 71 78 80
f 74 122 133
f 74 133 134
f 75 134 76
f 76 134 135
f 76 135 136
f 76 136 77
f 77 136 129
f 78 82 79
f 78 132 137
f 78 137 88
f 78 88 82
f 86 138 139
f 86 139 140
f 86 140 141
f 86 141 142
f 86 142 87
f 88 137 132
f 88 132 143
f 88 143 89
f 89 143 144
f 89 144 145
f 89 145 90
f 90 145 146
f 90 146 147
f 90 147 91
f 91 147 148
f 92 148 149
f 92 149 93
f 93 149 209
f 93 209 150
f 93 150 151
f 93 151 152
f 93 152 94
f 94 152 153
f 94 153 95
f 95 153 96
f 96 153 154
f 96 154 155
f 96 155 156
f 96 156 157
f 96 157 158
f 96 158 97
f 98 159 160
f 98 160 161
f 98 161 162
f 98 162 163
f 98 163 164
f 98 164 165
f 98 165 166
f 98 166 167
f 98 167 168
f 98 168 169
f 98 169 123
f 99 128 170
f 99 170 171
f 99 171 100
f 100 171 101
f 101 171 172
f 101 172 102
f 102 173 103
f 102 172 173
f 103 173 104
f 104 173 174
f 104 174 105
f 105 174 106
f 106 174 175
f 106 175 107
f 107 175 176
f 107 176 108
f 108 176 177
f 108 177 178
f 108 178 109
f 109 178 110
f 110 178 111
f 111 178 179
f 111 179 112
f 112 179 113
f 113 179 114
f 114 179 134
f 114 134 115
f 115 134 116
f 116 133 117
f 116 134 133
f 117 133 118
f 118 133 119
f 119 133 120
f 120 133 121
f 121 133 122
f 123 169 180
f 123 180 124
f 124 180 181
f 124 181 182
f 124 182 125
f 125 182 183
f 125 183 126
f 126 183 170
f 126 170 127
f 127 170 128
f 129 136 184
f 129 184 185
f 129 185 186
f 129 186 130
f 130 186 131
f 131 143 132
f 131 186 143
f 134 187 135
f 134 179 188
f 134 188 189
f 134 189 187
f 135 187 190
f 135 190 191
f 135 191 136
f 136 191 184
f 138 192 139
f 139 192 140
f 140 193 194
f 140 194 195
f 140 195 196
f 140 196 197
f 140 197 141
f 140 192 198
f 140 198 199
f 140 199 200
f 140 200 193
f 143 186 144
f 144 186 201
f 144 201 202
f 144 202 203
f 144 203 204
f 144 204 205
f 144 205 145
f 145 205 146
f 146 205 206
f 146 206 207
f 146 207 147
f 147 207 208
f 147 208 209
f 147 209 210
f 147 210 149
f 147 149 148
f 149 210 209
f 150 209 297
f 150 297 211
f 150 211 151
f 151 211 212
f 151 212 300
f 151 300 213
f 151 213 214
f 151 214 154
f 151 154 153
f 151 153 152
f 154 214 155
f 155 214 215
f 155 215 216
f 155 216 217
f 155 217 156
f 156 218 157
f 156 217 219
f 156 219 220
f 156 220 221
f 156 221 222
f 156 222 218
f 159 223 160
f 160 223 224
f 160 224 225
f 160 225 226
f 160 226 227
f 160 227 228
f 160 228 229
f 160 229 194
f 160 194 230
f 160 230 231
f 160 231 232
f 160 232 233
f 160 233 234
f 160 234 161
f 161 234 235
f 161 235 162
f 162 235 236
f 162 236 163
f 163 236 164
f 164 236 165
f 165 236 166
f 166 236 237
f 166 237 238
f 166 238 167
f 167 238 168
f 168 238 169
f 169 238 180
f 170 183 239
f 170 239 171
f 171 240 241
f 171 241 172
f 171 239 240
f 172 240 242
f 172 242 243
f 172 243 174
f 172 174 244
f 172 244 173
f 172 241 240
f 173 244 174
f 174 243 245
f 174 245 246
f 174 246 175
f 175 246 176
f 176 247 177
f 176 246 245
f 176 245 248
f 176 248 249
f 176 249 188
f 176 188 179
f 176 179 247
f 177 247 250
f 177 250 179
f 177 179 178
f 179 250 247
f 180 238 251
f 180 251 252
f 180 252 253
f 180 253 254
f 180 254 255
f 180 255 256
f 180 256 257
f 180 257 181
f 181 257 258
f 181 258 259
f 181 259 260
f 181 260 182
f 182 260 183
f 183 261 239
f 183 260 259
f 183 259 262
f 183 262 261
f 184 191 263
f 184 263 185
f 185 201 186
f 185 263 264
f 185 264 265
f 185 265 266
f 185 266 201
f 187 189 190
f 188 249 267
f 188 267 268
f 188 268 189
f 189 268 190
f 190 268 191
f 191 268 269
f 191 269 249
f 191 249 270
f 191 270 248
f 191 248 271
f 191 271 272
f 191 272 264
f 191 264 273
f 191 273 263
f 192 274 198
f 193 200 230
f 193 230 194
f 198 274 275
f 198 275 199
f 199 275 200
f 200 275 230
f 201 266 202
f 202 266 203
f 203 266 276
f 203 276 277
f 203 277 278
f 203 278 279
f 203 279 204
f 204 279 280
f 204 280 281
f 204 281 205
f 205 281 206
f 206 281 282
f 206 282 283
f 206 283 284
f 206 284 207
f 207 284 285
f 207 285 286
f 207 286 287
f 207 287 288
f 207 288 289
f 207 289 290
f 207 290 291
f 207 291 292
f 207 292 293
f 207 293 294
f 207 294 208
f 208 294 293
f 208 293 209
f 209 293 295
f 209 295 296
f 209 296 297
f 211 297 360
f 211 360 298
f 211 298 299
f 211 299 212
f 212 299 300
f 213 300 301
f 213 301 214
f 214 301 215
f 215 301 300
f 215 300 216
f 216 300 302
f 216 302 303
f 216 303 217
f 217 303 304
f 217 304 219
f 219 304 305
f 219 305 221
f 219 221 220
f 221 306 222
f 221 305 307
f 221 307 308
f 221 308 309
f 221 309 310
f 221 310 311
f 221 311 312
f 221 312 313
f 221 313 306
f 230 275 314
f 230 314 315
f 230 315 316
f 230 316 317
f 230 317 318
f 230 318 231
f 231 318 319
f 231 319 232
f 232 319 234
f 232 234 233
f 234 236 235
f 234 319 320
f 234 320 321
f 234 321 322
f 234 322 236
f 236 238 237
f 236 322 323
f 236 323 238
f 238 323 251
f 239 261 324
f 239 324 325
f 239 325 240
f 240 326 327
f 240 327 328
f 240 328 329
f 240 329 330
f 240 330 242
f 240 325 324
f 240 324 331
f 240 331 332
f 240 332 326
f 242 330 243
f 243 330 333
f 243 333 272
f 243 272 245
f 245 272 271
f 245 271 248
f 248 270 249
f 249 269 268
f 249 268 267
f 251 323 322
f 251 322 252
f 252 322 334
f 252 334 253
f 253 334 335
f 253 335 254
f 254 261 255
f 254 335 261
f 255 261 258
f 255 258 256
f 256 258 257
f 258 261 259
f 259 261 262
f 261 336 337
f 261 337 324
f 261 335 334
f 261 334 338
f 261 338 336
f 263 273 264
f 264 272 265
f 265 272 339
f 265 339 266
f 266 339 340
f 266 340 341
f 266 341 327
f 266 327 276
f 272 333 329
f 272 329 339
f 274 342 343
f 274 343 275
f 275 343 314
f 276 327 277
f 277 327 344
f 277 344 345
f 277 345 346
f 277 346 347
f 277 347 348
f 277 348 281
f 277 281 278
f 278 281 280
f 278 280 279
f 281 349 350
f 281 350 282
f 281 348 351
f 281 351 349
f 282 350 399
f 282 399 352
f 282 352 353
f 282 353 283
f 283 353 284
f 284 353 285
f 285 354 286
f 285 353 354
f 286 354 355
f 286 355 356
f 286 356 287
f 287 356 288
f 288 356 289
f 289 357 290
f 289 356 357
f 290 357 291
f 291 357 292
f 292 358 296
f 292 296 293
f 292 357 356
f 292 356 359
f 292 359 358
f 293 296 295
f 296 358 360
f 296 360 297
f 298 360 358
f 298 358 361
f 298 361 299
f 299 361 302
f 299 302 300
f 302 361 303
f 303 361 362
f 303 362 308
f 303 308 304
f 304 308 363
f 304 363 305
f 305 363 307
f 307 363 308
f 308 362 364
f 308 364 309
f 309 364 365
f 309 365 311
f 309 311 310
f 311 366 312
f 311 365 367
f 311 367 368
f 311 368 366
f 312 366 369
f 312 369 370
f 312 370 313
f 314 343 315
f 315 343 371
f 315 371 372
f 315 372 317
f 315 317 316
f 317 372 373
f 317 373 320
f 317 320 318
f 318 320 319
f 320 373 321
f 321 373 374
f 321 374 375
f 321 375 322
f 322 375 374
f 322 374 376
f 322 376 377
f 322 377 334
f 324 337 331
f 326 332 344
f 326 344 327
f 327 341 378
f 327 378 328
f 328 378 329
f 329 333 330
f 329 378 339
f 331 337 332
f 332 337 345
f 332 345 344
f 334 377 376
f 334 376 338
f 336 338 379
f 336 379 337
f 337 380 381
f 337 381 345
f 337 379 380
f 338 382 383
f 338 383 384
f 338 384 385
f 338 385 379
f 338 376 382
f 339 378 340
f 340 378 341
f 342 386 343
f 343 376 387
f 343 387 388
f 343 388 372
f 343 372 371
f 343 386 389
f 343 389 376
f 345 381 390
f 345 390 348
f 345 348 346
f 346 348 347
f 348 390 391
f 348 391 392
f 348 392 393
f 348 393 394
f 348 394 351
f 349 351 395
f 349 395 396
f 349 396 397
f 349 397 398
f 349 398 399
f 349 399 350
f 351 394 400
f 351 400 401
f 351 401 395
f 352 399 402
f 352 402 353
f 353 402 403
f 353 403 404
f 353 404 354
f 354 405 406
f 354 406 355
f 354 404 405
f 355 406 356
f 356 406 405
f 356 405 407
f 356 407 408
f 356 408 359
f 358 359 409
f 358 409 362
f 358 362 361
f 359 408 410
f 359 410 409
f 362 411 365
f 362 365 364
f 362 409 412
f 362 412 413
f 362 413 411
f 365 411 413
f 365 413 367
f 366 368 414
f 366 414 415
f 366 415 416
f 366 416 417
f 366 417 369
f 367 413 368
f 368 418 419
f 368 419 420
f 368 420 469
f 368 469 421
f 368 421 422
f 368 422 415
f 368 415 414
f 368 413 412
f 368 412 418
f 369 417 423
f 369 423 424
f 369 424 370
f 372 388 425
f 372 425 426
f 372 426 373
f 373 426 374
f 374 426 425
f 374 425 427
f 374 427 376
f 376 389 428
f 376 428 382
f 376 427 425
f 376 425 429
f 376 429 387
f 379 385 430
f 379 430 431
f 379 431 380
f 380 431 432
f 380 432 381
f 381 432 390
f 382 428 383
f 383 389 384
f 383 428 389
f 384 433 434
f 384 434 385
f 384 389 435
f 384 435 436
f 384 436 437
f 384 437 438
f 384 438 433
f 385 434 430
f 386 439 389
f 387 429 388
f 388 429 425
f 389 439 435
f 390 440 391
f 390 432 441
f 390 441 442
f 390 442 443
f 390 443 440
f 391 440 392
f 392 444 445
f 392 445 393
f 392 440 446
f 392 446 444
f 393 445 447
f 393 447 448
f 393 448 449
f 393 449 394
f 394 449 397
f 394 397 400
f 395 401 450
f 395 450 451
f 395 451 452
f 395 452 396
f 396 452 453
f 396 453 397
f 397 453 451
f 397 451 400
f 397 449 448
f 397 448 454
f 397 454 398
f 398 454 399
f 399 454 402
f 400 451 450
f 400 450 401
f 402 454 403
f 403 454 404
f 404 454 455
f 404 455 405
f 405 455 407
f 407 455 447
f 407 447 456
f 407 456 457
f 407 457 408
f 408 458 410
f 408 457 459
f 408 459 460
f 408 460 461
f 408 461 458
f 409 410 462
f 409 462 412
f 410 458 462
f 412 462 461
f 412 461 418
f 415 422 416
f 416 422 417
f 417 422 463
f 417 463 464
f 417 464 465
f 417 465 423
f 418 461 419
f 419 461 420
f 420 466 467
f 420 467 468
f 420 468 469
f 420 461 460
f 420 460 459
f 420 459 466
f 421 469 440
f 421 440 470
f 421 470 422
f 422 470 471
f 422 471 463
f 423 465 472
f 423 472 424
f 430 432 431
f 430 434 473
f 430 473 474
f 430 474 432
f 432 475 441
f 432 474 476
f 432 476 475
f 433 438 477
f 433 477 473
f 433 473 434
f 435 478 436
f 436 479 437
f 436 478 479
f 437 479 480
f 437 480 481
f 437 481 438
f 438 481 482
f 438 482 483
f 438 483 473
f 438 473 477
f 440 443 470
f 440 469 446
f 441 475 484
f 441 484 485
f 441 485 486
f 441 486 487
f 441 487 470
f 441 470 442
f 442 470 443
f 444 446 469
f 444 469 468
f 444 468 467
f 444 467 445
f 445 467 447
f 447 455 488
f 447 488 448
f 447 467 456
f 448 488 454
f 451 453 452
f 454 488 455
f 456 467 459
f 456 459 457
f 458 461 462
f 459 467 466
f 463 471 464
f 464 471 465
f 465 471 472
f 470 487 489
f 470 489 471
f 473 483 490
f 473 490 474
f 474 490 483
f 474 483 491
f 474 491 492
f 474 492 476
f 475 493 484
f 475 476 494
f 475 494 495
f 475 495 493
f 476 492 494
f 478 496 479
f 479 496 497
f 479 497 481
f 479 481 480
f 481 497 482
f 482 494 492
f 482 492 491
f 482 491 483
f 482 497 498
f 482 498 499
f 482 499 495
f 482 495 494
f 484 493 500
f 484 500 485
f 485 500 501
f 485 501 486
f 486 501 489
f 486 489 487
f 493 502 503
f 493 503 504
f 493 504 500
f 493 495 505
f 493 505 506
f 493 506 502
f 495 499 496
f 495 496 505
f 496 499 498
f 496 498 497
f 496 507 505
f 500 504 508
f 500 508 501
f 502 507 503
f 502 506 507
f 505 507 506

