# https://github.com/mikedh/trimesh
v 0.13358569 0.03230731 0.00025615
v 0.13358569 0.03230731 -0.00994005
v 0.13103455 0.03230731 -0.00229196
v 0.13103455 0.03229534 0.00025615
v 0.13358569 0.03166094 0.00280615
v 0.13613684 0.03164498 0.00280615
v 0.13613684 0.03222352 0.00025615
v 0.13613684 0.03221155 -0.00229196
v 0.13613684 0.03219160 -0.00484195
v 0.13613684 0.03216367 -0.00739006
v 0.13613684 0.03212776 -0.00994005
v 0.13613684 0.03188437 -0.01249004
v 0.13358569 0.03202402 -0.01249004
v 0.12848862 0.03230731 -0.00994005
v 0.12848862 0.03230332 -0.00739006
v 0.12594269 0.03227539 -0.00994005
v 0.12848862 0.03225943 -0.00229196
v 0.12848862 0.03221953 0.00025615
v 0.13103455 0.03162104 0.00280615
v 0.13358569 0.03074724 0.00427404
v 0.13613684 0.03076719 0.00429286
v 0.13772804 0.03067543 0.00422887
v 0.13814019 0.03104250 0.00280615
v 0.13841669 0.03130584 0.00025615
v 0.13844278 0.03129386 -0.00229196
v 0.13843756 0.03127391 -0.00484195
v 0.13843234 0.03124599 -0.00739006
v 0.13840626 0.03121008 -0.00994005
v 0.13826018 0.03110634 -0.01249004
v 0.13613684 0.03106644 -0.01418000
v 0.13790020 0.03083502 -0.01403885
v 0.13358569 0.03110634 -0.01418376
v 0.12339155 0.03100659 -0.01418376
v 0.12084562 0.03098265 -0.01418000
v 0.13103455 0.03199609 -0.01249004
v 0.12848862 0.03196816 -0.01249004
v 0.12594269 0.03193625 -0.01249004
v 0.12339155 0.03187241 -0.01249004
v 0.12084562 0.03178064 -0.01249004
v 0.12339155 0.03217963 -0.00994005
v 0.12594269 0.03224347 -0.00739006
v 0.12594269 0.03214771 -0.00229196
v 0.12339155 0.03202003 -0.00229196
v 0.12594269 0.03208786 0.00025615
v 0.11574333 0.03100260 0.00280615
v 0.12848862 0.03153725 0.00280615
v 0.11437124 0.03047593 0.00408396
v 0.13103455 0.03071533 0.00425334
v 0.11829447 0.02919516 0.00439636
v 0.12339155 0.02919516 0.00444905
v 0.13103455 0.02919516 0.00452245
v 0.13358569 0.02919516 0.00454315
v 0.13613684 0.02919516 0.00456197
v 0.13862016 0.02909142 0.00434179
v 0.14011746 0.02817374 0.00418935
v 0.13941837 0.02983754 0.00280615
v 0.13969487 0.03014078 0.00025615
v 0.13971575 0.03019264 -0.00229196
v 0.13971575 0.03020462 -0.00484195
v 0.13970531 0.03019663 -0.00739006
v 0.13967922 0.03015274 -0.00994005
v 0.13953837 0.02998517 -0.01249004
v 0.13613684 0.02919516 -0.01459966
v 0.14024788 0.02836127 -0.01399557
v 0.13872450 0.02920713 -0.01423457
v 0.13358569 0.02919516 -0.01460531
v 0.12594269 0.02919516 -0.01460531
v 0.12339155 0.02919516 -0.01460343
v 0.12084562 0.02919516 -0.01459966
v 0.11829447 0.02919516 -0.01459214
v 0.11574333 0.02919516 -0.01457896
v 0.11829447 0.03095472 -0.01417247
v 0.11574333 0.03091881 -0.01415930
v 0.11319218 0.03088290 -0.01414236
v 0.11829447 0.03167690 -0.01249004
v 0.11574333 0.03156518 -0.01249004
v 0.11319218 0.03144947 -0.01249004
v 0.12084562 0.03204796 -0.00994005
v 0.11319218 0.03161306 -0.00739006
v 0.12339155 0.03195220 0.00025615
v 0.11829447 0.03167690 0.00025615
v 0.11574333 0.03153326 0.00025615
v 0.11339043 0.03078315 0.00301316
v 0.11267047 0.03038416 0.00400116
v 0.11064626 0.02898370 0.00435120
v 0.11574333 0.03049189 0.00410090
v 0.12339155 0.03059563 0.00417994
v 0.11574333 0.02919516 0.00436813
v 0.11064626 0.02664560 0.00462031
v 0.13613684 0.02664560 0.00462031
v 0.13868798 0.02664560 0.00456573
v 0.14052960 0.02664560 0.00429662
v 0.14040440 0.02856475 0.00280615
v 0.14283555 0.02340578 0.00424581
v 0.14505802 0.02026969 0.00408020
v 0.15314969 0.01069387 0.00201386
v 0.15023335 0.01527830 0.00165818
v 0.14064438 0.02886799 0.00025615
v 0.14071742 0.02891587 -0.00229196
v 0.14076438 0.02893183 -0.00484195
v 0.14073307 0.02892385 -0.00739006
v 0.14064960 0.02887597 -0.00994005
v 0.14049831 0.02871238 -0.01249004
v 0.14255383 0.02543665 -0.01380738
v 0.13868798 0.02664560 -0.01456767
v 0.14378505 0.01899691 -0.01457896
v 0.14888213 0.01135221 -0.01458837
v 0.14123391 0.02154647 -0.01460531
v 0.13868798 0.02409604 -0.01460531
v 0.14768742 0.01783584 -0.01383749
v 0.15281580 0.01023902 -0.01386572
v 0.14537626 0.02076046 -0.01400874
v 0.15138632 0.01119261 -0.01414800
v 0.14123391 0.02409604 -0.01442653
v 0.14384244 0.02158637 -0.01424775
v 0.15143327 0.00880264 -0.01446981
v 0.14633620 0.01644734 -0.01444911
v 0.11319218 0.02664560 -0.01460531
v 0.11319218 0.02919516 -0.01456203
v 0.11064626 0.02919516 -0.01437572
v 0.11064626 0.03070735 -0.01398804
v 0.11064626 0.03115023 -0.01249004
v 0.11064626 0.03142154 -0.00994005
v 0.11319218 0.03162104 -0.00994005
v 0.11829447 0.03190831 -0.00994005
v 0.11064626 0.03144548 -0.00739006
v 0.11319218 0.03154523 -0.00484195
v 0.11574333 0.03161306 -0.00229196
v 0.11319218 0.03144947 -0.00229196
v 0.11319218 0.03131381 0.00025615
v 0.11064626 0.03067942 0.00248622
v 0.11064626 0.03025648 0.00376027
v 0.10876811 0.02857274 0.00426086
v 0.10799077 0.02667752 0.00435872
v 0.10809511 0.02409604 0.00456197
v 0.10809511 0.02154647 0.00462031
v 0.13868798 0.02409604 0.00462031
v 0.14123391 0.02154647 0.00460714
v 0.14888213 0.00880264 0.00459396
v 0.14633620 0.01389778 0.00454315
v 0.14338856 0.02154647 0.00433990
v 0.14269990 0.02564014 0.00210796
v 0.15044725 0.01057018 0.00422699
v 0.14775524 0.01542193 0.00415924
v 0.15220019 0.00880264 0.00377721
v 0.15357227 0.00880264 0.00250316
v 0.15440178 0.00880264 0.00025615
v 0.15336358 0.01100907 0.00025615
v 0.15133415 0.01389778 0.00025615
v 0.15029595 0.01537006 0.00025615
v 0.14939340 0.01664684 0.00025615
v 0.14812043 0.01843433 0.00025615
v 0.14720745 0.01971111 0.00025615
v 0.14283555 0.02582367 0.00025615
v 0.14192256 0.02709646 0.00025615
v 0.14199560 0.02720020 -0.00229196
v 0.14204255 0.02725606 -0.00484195
v 0.14200603 0.02720419 -0.00739006
v 0.14192256 0.02708449 -0.00994005
v 0.15016552 0.01518254 -0.01123857
v 0.14267382 0.02560822 -0.01249004
v 0.15301926 0.01055422 -0.01249004
v 0.15143327 0.00625308 -0.01460155
v 0.14633620 0.01389778 -0.01460531
v 0.15362444 0.00880264 -0.01249004
v 0.15304013 0.00880264 -0.01404826
v 0.15050463 0.01315565 -0.01402192
v 0.15320708 0.00625308 -0.01418188
v 0.11064626 0.02409604 -0.01460531
v 0.11064626 0.02664560 -0.01457332
v 0.10809511 0.02409604 -0.01446605
v 0.10784991 0.02688500 -0.01414989
v 0.10863769 0.02919516 -0.01398240
v 0.10923243 0.03052780 -0.01381679
v 0.10878898 0.03069139 -0.01249004
v 0.10844987 0.03088290 -0.00994005
v 0.10854378 0.03091083 -0.00739006
v 0.11064626 0.03134175 -0.00484195
v 0.11064626 0.03117816 -0.00229196
v 0.11064626 0.03098664 0.00025615
v 0.10921156 0.03055174 0.00203456
v 0.10814207 0.02931087 0.00298493
v 0.10706735 0.02755131 0.00393341
v 0.10660825 0.02585160 0.00418371
v 0.10625348 0.02409604 0.00429286
v 0.10554397 0.01899691 0.00454315
v 0.10554397 0.01644734 0.00461655
v 0.10809511 0.01644734 0.00462031
v 0.14378505 0.01644734 0.00462031
v 0.14888213 0.00625308 0.00462031
v 0.15161587 0.00643661 0.00440389
v 0.15092200 0.00880264 0.00432485
v 0.14633620 0.01135221 0.00462031
v 0.15297230 0.00570646 0.00425898
v 0.15258625 0.00740617 0.00404633
v 0.15367661 0.00643661 0.00303950
v 0.15469915 0.00625308 0.00025615
v 0.15431831 0.00880264 -0.00229196
v 0.15326968 0.01091331 -0.00739006
v 0.15330620 0.01095321 -0.00484195
v 0.15333750 0.01099710 -0.00229196
v 0.15031160 0.01539400 -0.00229196
v 0.14509975 0.02288310 -0.00484195
v 0.14421286 0.02415588 -0.00484195
v 0.14815174 0.01849418 -0.00229196
v 0.14509454 0.02287512 -0.00276620
v 0.14293989 0.02597928 -0.00484195
v 0.14507889 0.02284719 -0.00648674
v 0.14289816 0.02592741 -0.00739006
v 0.14804218 0.01834256 -0.00994005
v 0.14587710 0.02143874 -0.00994005
v 0.15020204 0.01523840 -0.00994005
v 0.15235669 0.01211029 -0.00994005
v 0.15320708 0.01084150 -0.00994005
v 0.15395833 0.00880264 -0.00994005
v 0.15143327 0.00370351 -0.01449616
v 0.14888213 0.00115395 -0.01458461
v 0.14633620 -0.00139561 -0.01460531
v 0.14888213 0.00370351 -0.01460531
v 0.14888213 0.00880264 -0.01460531
v 0.15392181 0.00625308 -0.01249004
v 0.15306622 0.00370351 -0.01407649
v 0.10809511 0.01899691 -0.01460531
v 0.10554397 0.01644734 -0.01459025
v 0.10809511 0.02154647 -0.01458273
v 0.10554397 0.01899691 -0.01447734
v 0.10535094 0.02169809 -0.01416118
v 0.10603958 0.02409604 -0.01404638
v 0.10683258 0.02789445 -0.01375657
v 0.10738559 0.02936673 -0.01273845
v 0.10717169 0.03020063 -0.00994005
v 0.10869507 0.03083502 -0.00484195
v 0.10727082 0.03010088 -0.00739006
v 0.10741689 0.03002507 -0.00484195
v 0.10886202 0.03073927 -0.00229196
v 0.10903940 0.03063952 0.00025615
v 0.10776644 0.02988542 0.00025615
v 0.10641000 0.02835329 0.00223404
v 0.10595089 0.02667752 0.00297364
v 0.10391103 0.02361724 0.00218135
v 0.10457881 0.02232451 0.00388072
v 0.10412493 0.02062480 0.00415924
v 0.10380147 0.01899691 0.00427404
v 0.10362930 0.01644734 0.00434743
v 0.11319218 0.01135221 0.00462031
v 0.10389016 0.01479152 0.00425710
v 0.10558049 0.01392571 0.00439448
v 0.10809511 0.01389778 0.00461090
v 0.11829447 0.00625308 0.00462031
v 0.14888213 0.00370351 0.00462031
v 0.15158457 0.00355589 0.00440389
v 0.15297230 0.00430599 0.00425898
v 0.15337924 0.00355589 0.00296234
v 0.15460525 0.00625308 -0.00229196
v 0.15400007 0.00370351 0.00025615
v 0.15398442 0.00370351 -0.00229196
v 0.15393746 0.00370351 -0.00484195
v 0.15387486 0.00370351 -0.00739006
v 0.15380182 0.00370351 -0.00994005
v 0.15420876 0.00880264 -0.00484195
v 0.15240364 0.01218211 -0.00739006
v 0.15243495 0.01222600 -0.00484195
v 0.14725440 0.01975499 -0.00484195
v 0.15025421 0.01531021 -0.00739006
v 0.14937253 0.01658699 -0.00739006
v 0.14721789 0.01970712 -0.00739006
v 0.15409397 0.00880264 -0.00739006
v 0.15435483 0.00625308 -0.00739006
v 0.15420876 0.00625308 -0.00994005
v 0.15145414 0.00122178 -0.01416682
v 0.14888213 -0.00139561 -0.01442088
v 0.14633620 -0.00394518 -0.01451121
v 0.14378505 -0.00394518 -0.01460531
v 0.15359314 0.00370351 -0.01249004
v 0.15285753 0.00211951 -0.01390336
v 0.10809511 0.01389778 -0.01460531
v 0.10537180 0.01372621 -0.01426845
v 0.10367104 0.01445637 -0.01404450
v 0.10344671 0.01644734 -0.01417059
v 0.10370756 0.01899691 -0.01405767
v 0.10402058 0.02094798 -0.01389395
v 0.10640478 0.02862859 -0.01205532
v 0.10437013 0.02264769 -0.01368505
v 0.10393711 0.02356538 -0.01198569
v 0.10619610 0.02892385 -0.00994005
v 0.10617523 0.02868445 -0.00229196
v 0.10618567 0.02860864 0.00025615
v 0.10758906 0.02995724 -0.00229196
v 0.10495444 0.02664560 0.00025615
v 0.10431274 0.02528105 0.00025615
v 0.10261719 0.02154647 0.00025615
v 0.10152683 0.01829468 0.00202139
v 0.10351975 0.02150258 0.00294164
v 0.10242938 0.01908469 0.00284567
v 0.10235634 0.01644734 0.00327098
v 0.10167812 0.01511870 0.00166194
v 0.10320672 0.01410526 0.00251068
v 0.10475097 0.01309181 0.00336131
v 0.10645174 0.01227388 0.00424957
v 0.10815250 0.01139610 0.00438319
v 0.11319218 0.00880264 0.00458832
v 0.11064626 0.01135221 0.00460149
v 0.12084562 0.00370351 0.00458455
v 0.12339155 0.00370351 0.00462031
v 0.11574333 0.00625308 0.00457138
v 0.14633620 -0.00139561 0.00462031
v 0.14888213 0.00115395 0.00461090
v 0.15085939 0.00115395 0.00434179
v 0.15042116 -0.00066945 0.00424957
v 0.15253407 0.00260628 0.00391647
v 0.15292535 0.00199183 0.00221711
v 0.15448525 0.00625308 -0.00484195
v 0.15305578 0.00173648 0.00025615
v 0.15245582 0.00040384 -0.00229196
v 0.15306622 0.00167663 -0.00229196
v 0.15306099 0.00166466 -0.00484195
v 0.15305056 0.00168860 -0.00994005
v 0.15298796 0.00182825 -0.01249004
v 0.15056202 -0.00139561 -0.01400121
v 0.14882996 -0.00379356 -0.01406332
v 0.14647706 -0.00661843 -0.01414048
v 0.14362332 -0.00668626 -0.01421575
v 0.14123391 -0.00394518 -0.01460531
v 0.15043681 -0.00327487 -0.01249004
v 0.15023857 -0.00284396 -0.01382808
v 0.11064626 0.01135221 -0.01460343
v 0.12084562 0.00370351 -0.01460531
v 0.11319218 0.00880264 -0.01459402
v 0.10800120 0.01125645 -0.01426845
v 0.10610741 0.01204246 -0.01404450
v 0.10342584 0.01372621 -0.01236583
v 0.10226243 0.01644734 -0.01249004
v 0.10440665 0.01275666 -0.01313365
v 0.10256502 0.01899691 -0.01249004
v 0.10499095 0.02664560 -0.00994005
v 0.10348323 0.02169809 -0.01269705
v 0.10267458 0.02154647 -0.00994005
v 0.10497531 0.02664560 -0.00739006
v 0.10494922 0.02664560 -0.00229196
v 0.10431796 0.02526508 -0.00229196
v 0.10265893 0.02154647 -0.00739006
v 0.10188159 0.01980287 0.00025615
v 0.10146944 0.01853009 0.00025615
v 0.10140683 0.01644734 0.00025615
v 0.10154247 0.01644734 0.00199692
v 0.10165725 0.01509077 0.00025615
v 0.10291457 0.01381798 0.00025615
v 0.10421883 0.01256913 0.00166006
v 0.10676998 0.01002755 0.00164877
v 0.10733864 0.01057816 0.00334814
v 0.10903940 0.00976820 0.00423640
v 0.11072973 0.00887446 0.00436437
v 0.12848862 0.00115395 0.00459208
v 0.11820578 0.00357983 0.00437754
v 0.12084562 0.00200380 0.00431544
v 0.12848862 -0.00066546 0.00432297
v 0.13613684 -0.00331078 0.00433049
v 0.14123391 -0.00394518 0.00449798
v 0.13613684 -0.00139561 0.00459961
v 0.14378505 -0.00394518 0.00460525
v 0.13103455 0.00115395 0.00462031
v 0.11332261 0.00636081 0.00433990
v 0.11574333 0.00436983 0.00430227
v 0.14633620 -0.00394518 0.00459773
v 0.13868798 -0.00139561 0.00462031
v 0.14820391 -0.00394518 0.00432861
v 0.14783872 -0.00556908 0.00423075
v 0.14987337 -0.00237315 0.00381297
v 0.15037942 -0.00310330 0.00211172
v 0.15241930 0.00045970 0.00025615
v 0.14986815 -0.00463544 0.00025615
v 0.15149066 -0.00139561 0.00025615
v 0.14998293 -0.00485488 -0.00739006
v 0.15000379 -0.00488680 -0.00994005
v 0.15247147 0.00038788 -0.00484195
v 0.15246104 0.00041182 -0.00994005
v 0.15162631 -0.00139561 -0.00994005
v 0.15059854 -0.00361401 -0.00994005
v 0.14793784 -0.00585236 -0.01391841
v 0.14742135 -0.00755207 -0.01360789
v 0.14572058 -0.00795506 -0.01395605
v 0.14436936 -0.00795506 -0.01395605
v 0.14123391 -0.00607979 -0.01418376
v 0.13868798 -0.00394518 -0.01450933
v 0.13358569 -0.00139561 -0.01459590
v 0.14910646 -0.00649474 -0.00994005
v 0.14789088 -0.00799496 -0.01190853
v 0.14842302 -0.00661843 -0.01265000
v 0.12594269 0.00115395 -0.01456203
v 0.11829447 0.00370351 -0.01450745
v 0.11574333 0.00625308 -0.01456767
v 0.11061495 0.00876274 -0.01425904
v 0.10878898 0.00958866 -0.01404450
v 0.11144447 0.00711889 -0.01402944
v 0.10424491 0.01259706 -0.01143429
v 0.10300847 0.01389778 -0.00994005
v 0.10170942 0.01515860 -0.00639076
v 0.10182942 0.01644734 -0.00994005
v 0.10194941 0.01899691 -0.00994005
v 0.11409995 0.00466110 -0.01399369
v 0.11368781 0.00428205 -0.01249004
v 0.11240962 0.00542716 -0.01249004
v 0.10433360 0.02523316 -0.00739006
v 0.10189202 0.01949166 -0.00484195
v 0.10188680 0.01967919 -0.00229196
v 0.10154247 0.01840640 -0.00229196
v 0.10161552 0.01821488 -0.00484195
v 0.10149031 0.01644734 -0.00229196
v 0.10169377 0.01513466 -0.00484195
v 0.10166768 0.01510274 -0.00229196
v 0.10419275 0.01254918 -0.00739006
v 0.10418753 0.01254519 -0.00484195
v 0.10418753 0.01254120 0.00025615
v 0.10418753 0.01254120 -0.00229196
v 0.10674389 0.01000760 0.00025615
v 0.10809511 0.00877870 0.00025615
v 0.10943068 0.00757773 0.00025615
v 0.11387562 0.00450150 0.00280615
v 0.11425647 0.00480074 0.00419688
v 0.11163750 0.00728248 0.00421946
v 0.11899356 0.00225118 0.00421570
v 0.12594269 -0.00030237 0.00419500
v 0.13358569 -0.00291977 0.00421382
v 0.14123391 -0.00553317 0.00422887
v 0.14378505 -0.00590024 0.00433614
v 0.14633620 -0.00589226 0.00432861
v 0.14752047 -0.00773960 0.00115571
v 0.14826130 -0.00609575 0.00280615
v 0.14949253 -0.00394917 0.00290024
v 0.14653445 -0.00726879 0.00288519
v 0.14900212 -0.00649474 -0.00739006
v 0.14841781 -0.00673015 0.00028626
v 0.14874127 -0.00649474 -0.00229196
v 0.14887691 -0.00649474 -0.00484195
v 0.14647706 -0.00816652 -0.01265000
v 0.14362332 -0.00809470 -0.01259543
v 0.14266860 -0.00766379 -0.01351756
v 0.13696635 -0.00537756 -0.01391841
v 0.13868798 -0.00563691 -0.01408967
v 0.12594269 -0.00068142 -0.01414236
v 0.14799001 -0.00807475 -0.00994005
v 0.14633620 -0.00845380 -0.00994005
v 0.11829447 0.00199583 -0.01408778
v 0.11586332 0.00376735 -0.01416118
v 0.11322870 0.00626505 -0.01423081
v 0.10421362 0.01257312 -0.00994005
v 0.11343739 0.00404665 -0.00994005
v 0.11216442 0.00519974 -0.00994005
v 0.10950894 0.00765753 -0.00994005
v 0.10158943 0.01644734 -0.00484195
v 0.10167812 0.01644734 -0.00690829
v 0.10174073 0.01644734 -0.00818234
v 0.10167812 0.01797549 -0.00689700
v 0.11679196 0.00226714 -0.01391465
v 0.11516423 0.00300927 -0.01249004
v 0.10676476 0.01002755 -0.00229196
v 0.10809511 0.00879067 -0.00229196
v 0.10941503 0.00756975 -0.00229196
v 0.11213834 0.00516383 -0.00484195
v 0.11220094 0.00520772 -0.00229196
v 0.11070364 0.00654833 0.00025615
v 0.11228963 0.00527555 0.00025615
v 0.11356260 0.00425412 0.00025615
v 0.11520075 0.00297735 0.00025615
v 0.11668240 0.00221527 0.00218135
v 0.11729280 0.00264618 0.00388072
v 0.12463842 -0.00013081 0.00408961
v 0.13218752 -0.00270431 0.00410655
v 0.13974705 -0.00528180 0.00411784
v 0.14378505 -0.00717303 0.00341965
v 0.14765090 -0.00779546 -0.00054554
v 0.14581971 -0.00796304 0.00208725
v 0.14653445 -0.00804283 0.00028626
v 0.14781784 -0.00792314 -0.00484195
v 0.14790653 -0.00799894 -0.00739006
v 0.14378505 -0.00830218 -0.00994005
v 0.14223037 -0.00787127 -0.01181820
v 0.13612640 -0.00552120 -0.01229620
v 0.12168557 -0.00027843 -0.01188971
v 0.12960507 -0.00272825 -0.01382432
v 0.13103455 -0.00297164 -0.01401063
v 0.12394978 -0.00038217 -0.01398804
v 0.14633620 -0.00821839 -0.00229196
v 0.14633620 -0.00830218 -0.00484195
v 0.14633620 -0.00837799 -0.00739006
v 0.14378505 -0.00824632 0.00025615
v 0.14378505 -0.00829021 -0.00229196
v 0.14378505 -0.00830218 -0.00484195
v 0.10679606 0.01005548 -0.00484195
v 0.11492425 0.00277386 -0.00994005
v 0.11340608 0.00405463 -0.00739006
v 0.11213312 0.00517181 -0.00739006
v 0.10944633 0.00759768 -0.00484195
v 0.11643720 0.00203971 -0.01249004
v 0.12224901 -0.00001909 -0.01358908
v 0.11829447 0.00120981 -0.01249004
v 0.11496077 0.00278184 -0.00739006
v 0.11341651 0.00411847 -0.00484195
v 0.11347912 0.00418630 -0.00229196
v 0.11512250 0.00290952 -0.00229196
v 0.11647894 0.00208759 0.00025615
v 0.11829447 0.00124971 0.00025615
v 0.12206119 -0.00014278 0.00160548
v 0.11820578 0.00186815 0.00294164
v 0.12934943 -0.00282800 0.00198751
v 0.14224081 -0.00787127 0.00179556
v 0.13804628 -0.00492670 0.00386566
v 0.14378505 -0.00799096 0.00214559
v 0.14208951 -0.00792314 -0.00994005
v 0.13481170 -0.00523791 -0.01131573
v 0.12339155 -0.00105647 -0.00994005
v 0.12151340 -0.00035025 -0.00994005
v 0.12023522 0.00013253 -0.00994005
v 0.11829447 0.00089460 -0.00994005
v 0.12321938 -0.00065349 -0.01263871
v 0.14209472 -0.00792314 0.00025615
v 0.14208951 -0.00792314 -0.00229196
v 0.11619721 0.00192002 -0.00994005
v 0.11504424 0.00284169 -0.00484195
v 0.11623895 0.00195992 -0.00739006
v 0.11640068 0.00204370 -0.00229196
v 0.12033956 0.00017642 -0.00739006
v 0.12069954 0.00031607 0.00025615
v 0.13358569 -0.00467932 0.00025615
v 0.13619944 -0.00568878 0.00025615
v 0.13868798 -0.00663838 0.00025615
v 0.14082176 -0.00744435 0.00025615
v 0.14081133 -0.00745632 -0.00994005
v 0.13351266 -0.00477907 -0.00994005
v 0.13103455 -0.00386937 -0.00994005
v 0.12749216 -0.00256865 -0.00994005
v 0.12594269 -0.00199809 -0.00994005
v 0.13103455 -0.00386937 -0.00739006
v 0.12877556 -0.00303547 -0.00739006
v 0.13351266 -0.00477508 -0.00484195
v 0.13481170 -0.00523791 -0.00273232
v 0.12757564 -0.00253274 -0.00484195
v 0.13486388 -0.00521796 -0.00103296
v 0.14081133 -0.00745632 -0.00229196
v 0.12339155 -0.00082106 -0.00229196
v 0.12594269 -0.00190234 -0.00484195
v 0.13351266 -0.00477907 -0.00739006
f 1 2 14
f 1 14 3
f 1 3 4
f 1 4 5
f 1 5 6
f 1 6 7
f 1 7 2
f 2 7 8
f 2 8 9
f 2 9 10
f 2 10 11
f 2 11 12
f 2 12 13
f 2 13 14
f 3 14 15
f 3 15 4
f 4 15 16
f 4 16 17
f 4 17 18
f 4 18 19
f 4 19 5
f 5 19 20
f 5 20 21
f 5 21 6
f 6 21 22
f 6 22 23
f 6 23 7
f 7 23 24
f 7 24 25
f 7 25 8
f 8 25 9
f 9 25 26
f 9 26 10
f 10 26 27
f 10 27 11
f 11 27 28
f 11 28 29
f 11 29 12
f 12 30 13
f 12 29 31
f 12 31 30
f 13 30 32
f 13 32 33
f 13 33 34
f 13 34 35
f 13 35 14
f 14 36 37
f 14 37 16
f 14 16 15
f 14 35 36
f 16 37 38
f 16 38 39
f 16 39 40
f 16 40 41
f 16 41 17
f 17 41 18
f 18 41 40
f 18 40 42
f 18 42 43
f 18 43 44
f 18 44 45
f 18 45 46
f 18 46 19
f 19 46 47
f 19 47 48
f 19 48 20
f 20 48 49
f 20 49 50
f 20 50 51
f 20 51 21
f 21 51 52
f 21 52 53
f 21 53 22
f 22 54 55
f 22 55 56
f 22 56 23
f 22 53 54
f 23 56 57
f 23 57 24
f 24 57 58
f 24 58 59
f 24 59 25
f 25 59 60
f 25 60 26
f 26 60 27
f 27 60 28
f 28 60 61
f 28 61 29
f 29 61 62
f 29 62 31
f 30 31 63
f 30 63 32
f 31 62 64
f 31 64 65
f 31 65 63
f 32 63 66
f 32 66 67
f 32 67 68
f 32 68 69
f 32 69 33
f 33 69 70
f 33 70 34
f 34 70 71
f 34 71 72
f 34 72 36
f 34 36 35
f 36 72 37
f 37 72 73
f 37 73 74
f 37 74 38
f 38 74 39
f 39 75 40
f 39 74 75
f 40 43 42
f 40 75 76
f 40 76 77
f 40 77 78
f 40 78 79
f 40 79 43
f 43 80 44
f 43 79 127
f 43 127 80
f 44 80 45
f 45 80 81
f 45 81 82
f 45 82 83
f 45 83 47
f 45 47 46
f 47 83 84
f 47 84 85
f 47 85 86
f 47 86 48
f 48 86 87
f 48 87 85
f 48 85 88
f 48 88 49
f 49 88 85
f 49 85 50
f 50 85 51
f 51 85 89
f 51 89 52
f 52 89 53
f 53 90 91
f 53 91 54
f 53 89 90
f 54 91 92
f 54 92 55
f 55 93 56
f 55 92 94
f 55 94 95
f 55 95 96
f 55 96 97
f 55 97 93
f 56 93 57
f 57 93 98
f 57 98 99
f 57 99 58
f 58 99 100
f 58 100 59
f 59 100 60
f 60 100 101
f 60 101 61
f 61 101 102
f 61 102 62
f 62 102 103
f 62 103 104
f 62 104 64
f 63 65 105
f 63 105 106
f 63 106 107
f 63 107 108
f 63 108 109
f 63 109 66
f 64 104 110
f 64 110 111
f 64 111 112
f 64 112 113
f 64 113 65
f 65 114 105
f 65 113 115
f 65 115 116
f 65 116 117
f 65 117 114
f 66 109 108
f 66 108 164
f 66 164 220
f 66 220 219
f 66 219 218
f 66 218 273
f 66 273 323
f 66 323 327
f 66 327 276
f 66 276 223
f 66 223 169
f 66 169 118
f 66 118 67
f 67 118 68
f 68 118 69
f 69 118 70
f 70 118 71
f 71 118 119
f 71 119 72
f 72 119 73
f 73 119 74
f 74 119 120
f 74 120 121
f 74 121 77
f 74 77 76
f 74 76 75
f 77 121 122
f 77 122 123
f 77 123 124
f 77 124 125
f 77 125 78
f 78 125 79
f 79 124 126
f 79 126 127
f 79 125 124
f 80 127 128
f 80 128 81
f 81 128 82
f 82 128 127
f 82 127 129
f 82 129 130
f 82 130 131
f 82 131 83
f 83 131 84
f 84 131 132
f 84 132 85
f 85 87 86
f 85 132 133
f 85 133 89
f 89 133 134
f 89 134 135
f 89 135 136
f 89 136 188
f 89 188 245
f 89 245 249
f 89 249 304
f 89 304 361
f 89 361 365
f 89 365 306
f 89 306 250
f 89 250 190
f 89 190 193
f 89 193 189
f 89 189 137
f 89 137 90
f 90 137 91
f 91 137 138
f 91 138 139
f 91 139 140
f 91 140 141
f 91 141 92
f 92 141 94
f 93 97 142
f 93 142 98
f 94 141 143
f 94 143 144
f 94 144 95
f 95 144 145
f 95 145 96
f 96 145 146
f 96 146 147
f 96 147 148
f 96 148 97
f 97 148 149
f 97 149 150
f 97 150 151
f 97 151 152
f 97 152 153
f 97 153 154
f 97 154 155
f 97 155 142
f 98 142 155
f 98 155 156
f 98 156 99
f 99 156 157
f 99 157 100
f 100 157 101
f 101 157 158
f 101 158 102
f 102 158 159
f 102 159 103
f 103 159 160
f 103 160 161
f 103 161 104
f 104 161 160
f 104 160 162
f 104 162 110
f 105 114 117
f 105 117 116
f 105 116 106
f 106 116 107
f 107 116 163
f 107 163 164
f 107 164 108
f 110 162 111
f 111 162 165
f 111 165 166
f 111 166 113
f 111 113 167
f 111 167 112
f 112 167 113
f 113 166 116
f 113 116 115
f 116 166 168
f 116 168 163
f 118 169 170
f 118 170 119
f 119 170 120
f 120 170 171
f 120 171 172
f 120 172 173
f 120 173 174
f 120 174 121
f 121 174 122
f 122 174 175
f 122 175 176
f 122 176 123
f 123 176 126
f 123 126 124
f 126 176 177
f 126 177 178
f 126 178 129
f 126 129 127
f 129 178 130
f 130 178 179
f 130 179 180
f 130 180 131
f 131 180 181
f 131 181 132
f 132 181 182
f 132 182 133
f 133 182 183
f 133 183 184
f 133 184 134
f 134 184 185
f 134 185 135
f 135 185 186
f 135 186 187
f 135 187 136
f 136 187 188
f 137 189 138
f 138 189 139
f 139 190 191
f 139 191 192
f 139 192 140
f 139 189 193
f 139 193 190
f 140 192 141
f 141 192 143
f 143 192 194
f 143 194 195
f 143 195 144
f 144 195 145
f 145 195 146
f 146 195 194
f 146 194 196
f 146 196 147
f 147 197 198
f 147 198 199
f 147 199 200
f 147 200 201
f 147 201 148
f 147 196 197
f 148 201 202
f 148 202 203
f 148 203 204
f 148 204 205
f 148 205 206
f 148 206 149
f 149 206 150
f 150 206 151
f 151 206 156
f 151 156 152
f 152 156 153
f 153 156 154
f 154 156 155
f 156 206 157
f 157 206 207
f 157 207 158
f 158 207 208
f 158 208 209
f 158 209 210
f 158 210 211
f 158 211 159
f 159 211 160
f 160 211 210
f 160 210 212
f 160 212 213
f 160 213 214
f 160 214 162
f 162 214 215
f 162 215 165
f 163 216 217
f 163 217 218
f 163 218 219
f 163 219 220
f 163 220 164
f 163 168 216
f 165 215 221
f 165 221 166
f 166 221 168
f 168 221 222
f 168 222 216
f 169 223 224
f 169 224 225
f 169 225 170
f 170 225 226
f 170 226 171
f 171 226 172
f 172 226 227
f 172 227 228
f 172 228 229
f 172 229 173
f 173 229 174
f 174 229 230
f 174 230 175
f 175 230 231
f 175 231 176
f 176 231 177
f 177 232 178
f 177 231 233
f 177 233 234
f 177 234 232
f 178 232 235
f 178 235 236
f 178 236 179
f 179 236 181
f 179 181 180
f 181 236 237
f 181 237 238
f 181 238 182
f 182 238 183
f 183 238 239
f 183 239 240
f 183 240 241
f 183 241 242
f 183 242 184
f 184 242 243
f 184 243 185
f 185 243 186
f 186 243 244
f 186 244 187
f 187 245 188
f 187 244 246
f 187 246 247
f 187 247 248
f 187 248 249
f 187 249 245
f 190 250 191
f 191 251 252
f 191 252 194
f 191 194 192
f 191 250 251
f 194 252 196
f 196 253 197
f 196 252 253
f 197 254 198
f 197 253 255
f 197 255 256
f 197 256 257
f 197 257 258
f 197 258 259
f 197 259 254
f 198 260 214
f 198 214 199
f 198 254 260
f 199 214 213
f 199 213 261
f 199 261 200
f 200 261 262
f 200 262 201
f 201 262 263
f 201 263 202
f 202 263 203
f 203 208 204
f 203 263 264
f 203 264 208
f 204 208 207
f 204 207 205
f 205 207 206
f 208 264 265
f 208 265 266
f 208 266 209
f 209 266 212
f 209 212 210
f 212 266 265
f 212 265 264
f 212 264 213
f 213 264 261
f 214 260 267
f 214 267 215
f 215 267 268
f 215 268 269
f 215 269 221
f 216 222 270
f 216 270 271
f 216 271 272
f 216 272 217
f 217 272 218
f 218 272 273
f 221 269 274
f 221 274 222
f 222 274 275
f 222 275 270
f 223 276 224
f 224 277 278
f 224 278 279
f 224 279 226
f 224 226 225
f 224 276 277
f 226 279 280
f 226 280 227
f 227 280 228
f 228 280 281
f 228 281 229
f 229 282 230
f 229 281 283
f 229 283 284
f 229 284 282
f 230 282 231
f 231 282 285
f 231 285 286
f 231 286 287
f 231 287 233
f 232 234 288
f 232 288 237
f 232 237 235
f 233 287 234
f 234 287 288
f 235 237 236
f 237 288 287
f 237 287 238
f 238 287 289
f 238 289 240
f 238 240 239
f 240 290 291
f 240 291 292
f 240 292 293
f 240 293 241
f 240 289 290
f 241 293 294
f 241 294 242
f 242 294 243
f 243 294 295
f 243 295 244
f 244 295 246
f 246 295 296
f 246 296 297
f 246 297 298
f 246 298 299
f 246 299 247
f 247 299 300
f 247 300 301
f 247 301 302
f 247 302 248
f 248 302 249
f 249 303 304
f 249 302 301
f 249 301 305
f 249 305 303
f 250 306 307
f 250 307 251
f 251 308 252
f 251 307 308
f 252 308 309
f 252 309 310
f 252 310 253
f 253 310 311
f 253 311 255
f 254 259 312
f 254 312 267
f 254 267 260
f 255 311 313
f 255 313 314
f 255 314 315
f 255 315 316
f 255 316 317
f 255 317 256
f 256 317 257
f 257 317 258
f 258 317 259
f 259 274 269
f 259 269 268
f 259 268 312
f 259 317 318
f 259 318 274
f 261 264 262
f 262 264 263
f 267 312 268
f 270 319 271
f 270 275 319
f 271 320 321
f 271 321 272
f 271 319 320
f 272 321 273
f 273 321 322
f 273 322 323
f 274 318 275
f 275 318 324
f 275 324 325
f 275 325 319
f 276 326 277
f 276 327 326
f 277 326 328
f 277 328 329
f 277 329 330
f 277 330 278
f 278 331 332
f 278 332 279
f 278 330 333
f 278 333 331
f 279 332 334
f 279 334 280
f 280 334 281
f 281 334 283
f 282 335 285
f 282 284 335
f 283 334 336
f 283 336 284
f 284 336 337
f 284 337 335
f 285 335 338
f 285 338 339
f 285 339 289
f 285 289 286
f 286 289 287
f 289 339 290
f 290 340 291
f 290 339 340
f 291 341 342
f 291 342 292
f 291 340 341
f 292 343 344
f 292 344 345
f 292 345 295
f 292 295 294
f 292 294 293
f 292 342 343
f 295 345 296
f 296 345 344
f 296 344 346
f 296 346 347
f 296 347 348
f 296 348 297
f 297 348 298
f 298 349 350
f 298 350 299
f 298 348 349
f 299 350 351
f 299 351 300
f 300 351 352
f 300 352 305
f 300 305 301
f 303 353 304
f 303 305 354
f 303 354 355
f 303 355 356
f 303 356 357
f 303 357 358
f 303 358 353
f 304 353 359
f 304 359 360
f 304 360 361
f 305 352 362
f 305 362 363
f 305 363 354
f 306 360 364
f 306 364 307
f 306 365 360
f 307 364 308
f 308 364 366
f 308 366 309
f 309 366 367
f 309 367 310
f 310 367 368
f 310 368 369
f 310 369 311
f 311 370 313
f 311 369 371
f 311 371 372
f 311 372 370
f 313 370 373
f 313 373 314
f 314 373 374
f 314 374 315
f 315 374 375
f 315 375 316
f 316 375 376
f 316 376 317
f 317 376 318
f 318 376 377
f 318 377 378
f 318 378 374
f 318 374 324
f 319 325 320
f 320 379 321
f 320 325 379
f 321 379 380
f 321 380 381
f 321 381 322
f 322 381 382
f 322 382 383
f 322 383 384
f 322 384 323
f 323 384 385
f 323 385 327
f 324 374 386
f 324 386 387
f 324 387 325
f 325 387 388
f 325 388 380
f 325 380 379
f 326 327 328
f 327 389 390
f 327 390 391
f 327 391 328
f 327 385 389
f 328 391 392
f 328 392 329
f 329 392 330
f 330 392 393
f 330 393 394
f 330 394 333
f 331 333 395
f 331 395 396
f 331 396 397
f 331 397 332
f 332 397 398
f 332 398 399
f 332 399 334
f 333 394 400
f 333 400 401
f 333 401 402
f 333 402 395
f 334 399 337
f 334 337 336
f 335 337 403
f 335 403 338
f 337 399 404
f 337 404 405
f 337 405 342
f 337 342 341
f 337 341 403
f 338 403 340
f 338 340 339
f 340 403 341
f 342 405 343
f 343 405 404
f 343 404 399
f 343 399 406
f 343 406 344
f 344 406 407
f 344 407 408
f 344 408 397
f 344 397 409
f 344 409 410
f 344 410 346
f 346 410 411
f 346 411 412
f 346 412 347
f 347 413 348
f 347 412 414
f 347 414 413
f 348 413 349
f 349 415 416
f 349 416 417
f 349 417 418
f 349 418 419
f 349 419 350
f 349 413 415
f 350 419 420
f 350 420 351
f 351 420 352
f 352 420 362
f 353 358 359
f 354 421 355
f 354 363 421
f 355 421 422
f 355 422 356
f 356 422 423
f 356 423 424
f 356 424 357
f 357 424 425
f 357 425 358
f 358 425 360
f 358 360 359
f 360 425 364
f 360 365 361
f 362 420 419
f 362 419 363
f 363 419 421
f 364 425 426
f 364 426 367
f 364 367 366
f 367 427 428
f 367 428 429
f 367 429 368
f 367 426 430
f 367 430 427
f 368 429 369
f 369 429 428
f 369 428 371
f 370 372 373
f 371 431 386
f 371 386 373
f 371 373 372
f 371 428 427
f 371 427 432
f 371 432 433
f 371 433 434
f 371 434 431
f 373 386 374
f 374 378 375
f 375 377 376
f 375 378 377
f 380 388 387
f 380 387 381
f 381 387 435
f 381 435 382
f 382 436 437
f 382 437 438
f 382 438 439
f 382 439 383
f 382 435 436
f 383 439 384
f 384 439 440
f 384 440 390
f 384 390 389
f 384 389 385
f 386 431 441
f 386 441 387
f 387 441 442
f 387 442 435
f 390 440 443
f 390 443 444
f 390 444 445
f 390 445 391
f 391 445 392
f 392 445 393
f 393 445 394
f 394 445 400
f 395 446 397
f 395 397 396
f 395 402 447
f 395 447 448
f 395 448 449
f 395 449 446
f 397 408 450
f 397 450 451
f 397 451 452
f 397 452 398
f 397 446 409
f 398 452 453
f 398 453 399
f 399 453 407
f 399 407 406
f 400 445 444
f 400 444 454
f 400 454 401
f 401 454 455
f 401 455 447
f 401 447 402
f 407 453 408
f 408 453 450
f 409 446 410
f 410 446 411
f 411 446 456
f 411 456 415
f 411 415 412
f 412 415 414
f 413 414 415
f 415 456 457
f 415 457 458
f 415 458 416
f 416 458 417
f 417 458 459
f 417 459 460
f 417 460 461
f 417 461 418
f 418 461 462
f 418 462 463
f 418 463 464
f 418 464 465
f 418 465 419
f 419 465 466
f 419 466 421
f 421 466 467
f 421 467 422
f 422 467 423
f 423 467 424
f 424 467 468
f 424 468 469
f 424 469 470
f 424 470 425
f 425 470 426
f 426 470 430
f 427 471 432
f 427 430 472
f 427 472 473
f 427 473 471
f 430 470 472
f 431 434 441
f 432 471 474
f 432 474 433
f 433 474 475
f 433 475 441
f 433 441 434
f 435 442 436
f 436 442 476
f 436 476 477
f 436 477 437
f 437 477 478
f 437 478 479
f 437 479 480
f 437 480 438
f 438 481 439
f 438 480 482
f 438 482 481
f 439 481 482
f 439 482 443
f 439 443 440
f 441 475 483
f 441 483 484
f 441 484 485
f 441 485 442
f 442 485 486
f 442 486 487
f 442 487 488
f 442 488 476
f 443 454 444
f 443 482 454
f 446 489 456
f 446 449 489
f 447 455 490
f 447 490 491
f 447 491 492
f 447 492 448
f 448 492 458
f 448 458 493
f 448 493 449
f 449 493 457
f 449 457 489
f 450 453 451
f 451 453 452
f 454 494 455
f 454 482 480
f 454 480 495
f 454 495 496
f 454 496 494
f 455 494 490
f 456 489 457
f 457 493 458
f 458 492 459
f 459 492 491
f 459 491 497
f 459 497 498
f 459 498 460
f 460 498 499
f 460 499 463
f 460 463 462
f 460 462 461
f 463 499 464
f 464 499 500
f 464 500 501
f 464 501 465
f 465 501 502
f 465 502 503
f 465 503 504
f 465 504 466
f 466 504 467
f 467 504 505
f 467 505 506
f 467 506 507
f 467 507 468
f 468 507 469
f 469 507 470
f 470 508 472
f 470 507 506
f 470 506 508
f 471 473 483
f 471 483 474
f 472 508 486
f 472 486 473
f 473 486 483
f 474 483 475
f 476 488 517
f 476 517 509
f 476 509 477
f 477 509 510
f 477 510 479
f 477 479 478
f 479 511 512
f 479 512 513
f 479 513 514
f 479 514 496
f 479 496 495
f 479 495 515
f 479 515 480
f 479 510 511
f 480 515 495
f 483 486 484
f 484 486 485
f 486 508 506
f 486 506 516
f 486 516 487
f 487 516 488
f 488 516 517
f 490 494 518
f 490 518 497
f 490 497 491
f 494 496 514
f 494 514 518
f 497 519 499
f 497 499 498
f 497 518 520
f 497 520 521
f 497 521 501
f 497 501 519
f 499 519 500
f 500 519 501
f 501 521 514
f 501 514 502
f 502 514 522
f 502 522 523
f 502 523 503
f 503 505 504
f 503 523 524
f 503 524 525
f 503 525 506
f 503 506 505
f 506 525 526
f 506 526 527
f 506 527 516
f 509 517 539
f 509 539 528
f 509 528 510
f 510 528 529
f 510 529 530
f 510 530 531
f 510 531 532
f 510 532 511
f 511 532 533
f 511 533 534
f 511 534 535
f 511 535 516
f 511 516 536
f 511 536 512
f 512 536 513
f 513 537 522
f 513 522 514
f 513 536 538
f 513 538 537
f 514 521 520
f 514 520 518
f 516 539 517
f 516 527 536
f 516 535 533
f 516 533 539
f 522 540 523
f 522 537 541
f 522 541 524
f 522 524 540
f 523 540 524
f 524 538 525
f 524 541 538
f 525 538 526
f 526 538 536
f 526 536 527
f 528 539 542
f 528 542 529
f 529 542 533
f 529 533 530
f 530 533 531
f 531 533 532
f 533 542 539
f 533 535 534
f 537 538 541

