# https://github.com/mikedh/trimesh
v 0.04176800 -0.01189542 -0.06969337
v 0.04176800 -0.01485199 -0.06969337
v 0.04176800 0.01761997 -0.08443541
v 0.03880126 0.02352193 0.10841939
v 0.04176800 -0.02371052 -0.09331138
v 0.03880126 -0.01288467 0.10154270
v 0.04078185 -0.02567784 -0.03722135
v 0.04176800 0.02450559 -0.10906405
v 0.03683724 0.02647850 0.11039671
v 0.03683724 -0.02468859 0.11239600
v 0.04078185 -0.02765075 -0.09133406
v 0.04078185 -0.02765075 -0.10906405
v 0.04176800 0.02254386 -0.11007468
v 0.03880126 -0.02567784 0.06118336
v 0.03683724 -0.02567784 0.11138537
v -0.01433500 0.02352752 -0.11200806
v -0.03698337 0.02352752 -0.11205200
v -0.03698337 0.02549484 -0.10609806
v 0.03781510 0.02549484 -0.10119870
v 0.03683724 0.02647850 -0.04113206
v 0.03290091 0.02746775 0.11039671
v 0.03585108 0.02647291 0.11138537
v 0.03190647 0.00383755 0.11239600
v -0.01433500 -0.01780297 0.11239600
v -0.03993354 -0.02468859 0.11140734
v -0.03894739 -0.02567784 0.11041868
v 0.02699228 -0.02863441 -0.10119870
v 0.03290091 -0.02666150 0.10938608
v 0.03978741 -0.02765075 -0.11005271
v 0.03585108 0.01565265 -0.11104137
v -0.01040696 -0.02666150 0.10938608
v 0.01026082 -0.01485199 -0.11200806
v -0.03796952 0.02451677 -0.10805341
v -0.03598893 -0.02174879 -0.11205200
v -0.03796952 0.02647850 -0.04998606
v -0.02812457 0.02746775 -0.04899740
v -0.01237098 0.02746775 -0.07164872
v 0.00533006 0.02746775 -0.07164872
v 0.02797843 0.02647291 -0.08443541
v 0.02501997 0.02746775 -0.03423340
v 0.01517502 0.02845141 0.05628400
v -0.03796952 0.02845141 0.10743072
v -0.04190585 0.02746775 0.10940805
v 0.00730236 0.00876144 0.11239600
v -0.03993354 0.02549484 0.11041868
v -0.01531286 -0.00009150 0.11239600
v -0.04091969 -0.02370493 0.10940805
v -0.02221593 -0.02666150 0.10154270
v -0.03598893 -0.02863441 -0.11005271
v 0.01026082 -0.02863441 -0.05097473
v 0.02699228 -0.02666150 -0.11104137
v -0.03008859 -0.02567784 -0.11200806
v -0.03796952 -0.00697153 -0.10510941
v -0.03894739 0.00580487 -0.08643470
v -0.04289200 0.02647291 0.10644206
v -0.01827961 0.02845141 -0.01158208
v -0.00744850 0.02845141 -0.03126742
v 0.00631621 0.02845141 -0.01059342
v -0.04190585 -0.01682490 0.09956538
v -0.03796952 -0.02469977 -0.09034540
v -0.01531286 -0.02863441 -0.07066006
v -0.03894739 -0.00893885 -0.07558140
v -0.04289200 0.00875585 0.09758805
v -0.04190585 -0.00697153 0.07594737
f 1 2 5
f 1 5 13
f 1 13 8
f 1 8 3
f 1 3 4
f 1 4 2
f 2 4 6
f 2 6 7
f 2 7 5
f 3 8 4
f 4 9 10
f 4 10 6
f 4 8 9
f 5 7 11
f 5 11 12
f 5 12 13
f 6 14 7
f 6 10 15
f 6 15 14
f 7 14 11
f 8 13 16
f 8 16 17
f 8 17 18
f 8 18 19
f 8 19 20
f 8 20 9
f 9 21 22
f 9 22 10
f 9 20 21
f 10 23 44
f 10 44 46
f 10 46 24
f 10 24 25
f 10 25 26
f 10 26 15
f 10 22 23
f 11 27 12
f 11 14 15
f 11 15 28
f 11 28 27
f 12 27 29
f 12 29 13
f 13 30 16
f 13 29 30
f 15 26 31
f 15 31 28
f 16 30 32
f 16 32 17
f 17 33 18
f 17 32 34
f 17 34 33
f 18 33 35
f 18 35 36
f 18 36 37
f 18 37 38
f 18 38 19
f 19 38 39
f 19 39 40
f 19 40 20
f 20 40 21
f 21 40 41
f 21 41 42
f 21 42 43
f 21 43 22
f 22 44 23
f 22 43 45
f 22 45 44
f 24 46 25
f 25 46 45
f 25 45 43
f 25 43 47
f 25 47 26
f 26 48 31
f 26 47 49
f 26 49 48
f 27 49 29
f 27 28 50
f 27 50 61
f 27 61 49
f 28 31 50
f 29 49 51
f 29 51 30
f 30 51 32
f 31 48 50
f 32 51 52
f 32 52 34
f 33 53 54
f 33 54 55
f 33 55 35
f 33 34 53
f 34 52 49
f 34 49 53
f 35 55 43
f 35 43 42
f 35 42 36
f 36 42 56
f 36 56 57
f 36 57 37
f 37 57 38
f 38 57 58
f 38 58 40
f 38 40 39
f 40 58 41
f 41 58 57
f 41 57 56
f 41 56 42
f 43 55 47
f 44 45 46
f 47 55 59
f 47 59 60
f 47 60 49
f 48 49 61
f 48 61 50
f 49 60 53
f 49 52 51
f 53 60 62
f 53 62 54
f 54 63 55
f 54 62 63
f 55 63 59
f 59 63 64
f 59 64 60
f 60 64 62
f 62 64 63

