# https://github.com/mikedh/trimesh
v -0.56336427 0.06557183 -0.21630014
v -0.55796421 0.06172183 -0.22021013
v -0.56187421 0.06557183 -0.21930014
v -0.55796421 0.05776183 -0.21711016
v -0.55796421 0.06166183 -0.22016016
v -0.58085120 0.12575991 -0.23504993
v -0.56186849 0.06167352 -0.21629503
v -0.56187421 0.06168183 -0.21630014
v -0.55790657 0.06165211 -0.22021000
v -0.48648259 0.04901749 -0.22779530
v -0.55675459 0.04192059 -0.19810635
v -0.47741571 -0.66913581 -0.59770024
v -0.50590998 0.21258722 -0.02997163
v -0.47186819 0.47732928 0.03926900
v -0.47592992 0.47967595 0.01030787
v -0.47534424 0.48354182 0.01024986
v -0.47593424 0.47963181 0.01032985
v -0.47595423 0.47572181 0.01415986
v -0.47593424 0.47588184 0.01415986
v -0.47652423 0.48354182 0.00243986
v -0.47593394 0.48740172 0.00239664
v -0.47590595 0.47492638 0.01530229
v -0.47593424 0.48354182 0.00633986
v -0.47649425 0.49135184 -0.00537014
v -0.47591424 0.48744181 0.00243986
v -0.48104072 0.46311867 -0.00848574
v -0.47580752 0.49911669 -0.00873201
v -0.47591466 0.49143142 -0.00160305
v -0.47593424 0.48353183 0.00633986
v -0.47594425 0.47963181 0.01024986
v -0.47593424 0.49119183 -0.00147014
v -0.20360401 -0.23327440 0.59737331
v -0.43228000 -0.06037255 0.27773675
v -0.24721944 0.17764628 0.33471352
v -0.46252811 0.53332841 0.07392932
v -0.44083425 0.61244184 -0.29443014
v -0.44077423 0.60879183 -0.29833013
v -0.44076869 0.61256224 -0.29453868
v -0.44077423 0.61635184 -0.29069015
v -0.44077423 0.61265182 -0.29443014
v -0.44082424 0.61635184 -0.29052013
v -0.44077423 0.61651182 -0.29052013
v -0.44080424 0.62026185 -0.28662014
v -0.44287425 0.61244184 -0.28662014
v -0.44285426 0.62026185 -0.27880013
v -0.42530116 0.71344936 0.00692845
v -0.44074479 0.62043023 -0.28668138
v -0.42796424 0.60072184 0.16258986
v -0.42905423 0.60072184 0.15876986
v -0.42905423 0.59708184 0.16258986
v -0.45410120 0.60132211 -0.25530779
v -0.42913425 0.59682184 0.16258986
v -0.42905423 0.59291184 0.16697986
v -0.41596353 0.73699349 -0.00562583
v -0.40562424 0.74923187 -0.05224015
v -0.40562424 0.74923187 -0.04833014
v -0.34857920 -0.54202098 -0.61559057
v -0.42216423 -0.11410817 0.26805985
v -0.42215425 -0.11801817 0.26415986
v -0.42211425 -0.12191817 0.26024985
v -0.42122084 -0.11815807 0.26807621
v -0.42118424 -0.12582818 0.26024985
v -0.46923518 -0.07421725 -0.10789523
v -0.42124423 -0.12181817 0.26415986
v -0.42124423 -0.12191817 0.26404986
v -0.41765788 -0.14474458 0.25605834
v -0.43302572 -0.08760957 0.23764949
v -0.42124423 -0.11806817 0.26805985
v -0.42122424 -0.12191817 0.26415986
v -0.42124423 -0.12556817 0.26024985
v -0.42125425 -0.11801817 0.26805985
v -0.40581176 -0.13248813 0.31587178
v -0.35288975 0.22109818 0.49834785
v -0.43978423 0.62026185 -0.29052013
v -0.41563949 0.60362166 0.20254140
v -0.42834395 0.60877502 0.15294239
v -0.31732687 0.71950251 -0.42706674
v -0.43126258 0.58749855 0.16500108
v -0.42627850 0.63952076 -0.32215765
v -0.42906633 0.60086417 0.15859266
v -0.41026425 0.73360747 0.12679690
v -0.42760381 0.55585688 0.17710043
v -0.40562424 0.74923187 -0.04443014
v -0.38307640 0.64088678 0.24781758
v -0.39756891 0.62775564 0.21093747
v -0.38609770 0.61851197 0.26054496
v -0.40562424 0.74924183 -0.06005015
v -0.40562424 0.74923187 -0.05615014
v -0.41580465 0.73288208 -0.22838612
v -0.40567425 0.74916184 -0.04443014
v -0.41388348 0.73989189 -0.04444485
v -0.39000338 0.63976079 0.22486101
v -0.38217586 0.63196880 0.26024944
v -0.38217425 0.63197184 0.26024985
v -0.40562424 0.74924183 -0.06787014
v -0.41354221 0.74022251 -0.09859466
v -0.54827726 0.43529919 -0.05632067
v -0.34674048 0.80300200 0.01167819
v -0.40568423 0.74916184 -0.04833014
v -0.39868423 0.74526185 -0.02880014
v -0.40566424 0.73744184 -0.02880014
v -0.40217423 0.74135184 -0.03271015
v -0.40562424 0.73750186 -0.02880014
v -0.38633016 0.77137858 -0.05859202
v -0.41733423 0.73354185 -0.03940015
v -0.41903466 0.73008436 -0.04791498
v -0.40562424 0.73750186 -0.03662014
v -0.40568423 0.74916184 -0.05224015
v -0.40568423 0.74916184 -0.05615014
v -0.41316512 0.74074537 -0.08427237
v -0.42124844 0.72582638 -0.03923347
v -0.40562424 0.73750186 -0.04052014
v -0.41731077 0.73347545 -0.04859933
v -0.41730425 0.73354185 -0.04443014
v -0.41733423 0.73354185 -0.04052014
v -0.40562424 0.73749185 -0.02099014
v -0.40566424 0.73744184 -0.02490014
v -0.40562424 0.73750186 -0.02490014
v -0.41733423 0.73342186 -0.04833014
v -0.37444487 0.78436035 -0.09703860
v -0.41733423 0.73352182 -0.04052014
v -0.40562424 0.73751187 -0.04443014
v -0.40567425 0.73744184 -0.03662014
v -0.40562424 0.73750186 -0.03271015
v -0.40567425 0.73744184 -0.03271015
v -0.40567425 0.73744184 -0.04052014
v -0.40567425 0.74916184 -0.04052014
v -0.40562424 0.74923187 -0.04052014
v -0.41733423 0.73347187 -0.04443014
v -0.40567425 0.74916184 -0.03662014
v -0.40869939 0.73352772 -0.02034968
v -0.40566424 0.73744184 -0.02099014
v -0.40346801 0.73998713 -0.00725250
v -0.40566424 0.73744184 -0.01708014
v -0.40568423 0.74916184 -0.06005015
v -0.40568423 0.74916184 -0.06396014
v 0.26621979 -0.21918456 -0.50923705
v 0.27015576 -0.21945816 -0.50537014
v 0.26624575 -0.21940817 -0.50927013
v -0.35290280 -0.57912630 -0.66557431
v -0.35480839 -0.56723332 -0.64208198
v -0.37712708 0.78113282 -0.07875605
v -0.27665424 0.59291184 0.51415986
v -0.27671424 0.59282184 0.51415986
v -0.27280423 0.59283185 0.51805985
v -0.28062424 0.59682184 0.50778985
v -0.35663238 0.53952569 0.42354012
v -0.38999423 0.63588184 0.22891986
v -0.36624727 0.68466276 -0.39853787
v -0.38220108 0.62777573 0.26451740
v -0.31463024 0.76495874 0.22871237
v -0.38999942 0.63580298 0.22898383
v -0.39252606 0.62269455 0.23363407
v -0.38218424 0.63571185 0.25633985
v -0.38218424 0.62819183 0.26415986
v -0.38999423 0.63956183 0.22508986
v -0.38221425 0.62807184 0.26415986
v -0.38105425 0.63197184 0.26415986
v -0.38992444 0.64056855 0.22429518
v -0.37623385 0.64246804 0.26933709
v -0.38997424 0.63588184 0.22899985
v -0.38976976 0.63557005 0.23006043
v -0.39836597 0.60747033 -0.41814214
v -0.38139829 0.65616792 0.23760872
v -0.40562424 0.74924183 -0.06396014
v -0.29624423 0.80012184 -0.32177013
v -0.40750846 0.73526883 -0.05840692
v -0.40195531 0.74160534 -0.03833631
v -0.37437424 0.78432184 -0.08349015
v -0.37437424 0.78436184 -0.08740014
v -0.37440425 0.78432184 -0.08740014
v -0.37437424 0.78432184 -0.08219015
v -0.38803548 0.76891035 -0.10527141
v -0.37443423 0.78432184 -0.09130014
v -0.37372658 0.78511584 -0.08213303
v -0.36686122 -0.57366413 -0.63295573
v -0.36136025 -0.57319772 -0.64144886
v -0.35483423 -0.56725818 -0.64208013
v -0.35483423 -0.56723815 -0.64204013
v -0.35874423 -0.57113814 -0.64227015
v -0.35093424 -0.56347817 -0.64208013
v -0.35874423 -0.57102817 -0.64208013
v -0.29754877 -0.55096394 0.00280578
v -0.28062424 -0.20785816 -0.47910014
v -0.11680393 -0.31572115 -0.61423546
v -0.16780899 0.20514594 0.33807760
v -0.09718846 -0.29049134 -0.61208135
v -0.43975666 0.52292258 -0.41168284
v -0.22819301 0.83686048 0.25316617
v -0.36422029 0.70412683 -0.38095909
v -0.36265424 0.68662184 -0.40380013
v -0.36265424 0.69057184 -0.40015015
v -0.36272907 0.69070452 -0.39988109
v -0.36079425 0.69057184 -0.40380013
v -0.36239770 0.68653286 -0.40439573
v -0.36265424 0.68666184 -0.40376014
v -0.27229434 0.72259200 -0.45698532
v -0.35676733 0.69718975 -0.38165972
v -0.37437424 0.78433186 -0.08349015
v -0.33979335 0.82367277 -0.07032139
v -0.34697425 0.81557184 -0.08740014
v -0.34694424 0.81557184 -0.08349015
v -0.29318562 0.86975068 -0.19712254
v -0.35040423 0.81166184 -0.08740014
v -0.34702423 0.81555188 -0.09130014
v -0.34709847 0.81538898 -0.08297071
v -0.34702423 0.81551182 -0.08740014
v -0.27264574 0.82080877 0.20873976
v -0.34702423 0.81548184 -0.08349015
v -0.33971536 0.82420683 -0.14985432
v -0.14792608 -0.42315891 -0.63461316
v -0.27563423 -0.21566817 -0.49755013
v -0.27280423 -0.21949819 -0.50146013
v -0.26890424 -0.21957816 -0.50540012
v -0.26499423 -0.21940817 -0.50927013
v -0.29115853 -0.22435945 -0.47313213
v -0.30711237 -0.18676220 -0.44595736
v -0.28169423 -0.20785816 -0.47802013
v -0.28062424 -0.20397817 -0.47802013
v -0.28452423 -0.20402817 -0.47412014
v -0.30025831 0.56358004 0.50853455
v -0.30796424 0.72574186 -0.40771013
v -0.30796424 0.72572184 -0.40774015
v -0.30418423 0.72963184 -0.40771013
v -0.30421069 0.72965395 -0.40763366
v -0.30158508 0.73269820 -0.40711147
v -0.31187424 0.72182184 -0.40772015
v -0.30009377 0.79992747 -0.31797692
v -0.30018425 0.79994184 -0.31787014
v -0.29410803 0.74039626 -0.40642864
v -0.30568463 0.76671016 -0.34868214
v -0.30015424 0.79997182 -0.31787014
v -0.32065535 0.79269487 -0.30296469
v -0.28855669 0.81364065 -0.30964732
v -0.33803502 0.82581800 -0.10678712
v -0.23659164 -0.19138160 -0.51800638
v -0.26612425 -0.22348817 -0.50927013
v -0.26874328 -0.21947883 -0.50553823
v -0.26893425 -0.21957816 -0.50537014
v -0.28061938 -0.20394701 -0.47801480
v -0.28342423 -0.20004816 -0.47412014
v -0.28450423 -0.20394817 -0.47412014
v -0.27671424 -0.22738817 -0.49974015
v -0.27671421 -0.21957821 -0.49756020
v -0.27282423 -0.21957816 -0.50146013
v -0.27671424 -0.21954817 -0.49755013
v -0.28067973 -0.21950759 -0.49354070
v -0.28453910 -0.20402084 -0.47409680
v -0.34499010 -0.12004478 -0.40349030
v -0.26778656 -0.20877089 -0.50351328
v -0.28061989 -0.21958162 -0.49364728
v -0.26682052 -0.21232396 -0.50547826
v -0.26487494 -0.21953069 -0.50942445
v -0.28061423 -0.21957816 -0.49365014
v -0.36205894 0.46791205 -0.51862669
v -0.27733243 0.74363363 0.32904398
v -0.21423125 -0.37580428 0.53770030
v -0.26890424 0.59284186 0.52196985
v -0.28062424 0.59291184 0.51018983
v -0.28055423 0.59291184 0.51024985
v -0.27280423 0.59682184 0.51561987
v -0.28450412 0.59290880 0.50629205
v -0.28060621 0.59280378 0.51027095
v -0.27671424 0.59291184 0.51409984
v -0.28445423 0.59291184 0.50633985
v -0.27275729 0.59291172 0.51805675
v -0.31046423 0.72572184 -0.40380013
v -0.30405423 0.72963184 -0.40791014
v -0.28387865 0.65425736 0.46804228
v -0.30798423 0.72572184 -0.40771013
v -0.30405423 0.79981184 -0.31396013
v -0.26108286 0.76089966 0.32666108
v -0.26108423 0.76088184 0.32664987
v -0.26108423 0.76318187 0.32274985
v -0.30387425 0.79994184 -0.31396013
v -0.30435291 0.80227757 -0.30990130
v -0.14643532 0.89924467 -0.32058713
v -0.25449911 0.86792505 0.18725972
v -0.26874423 0.75307184 0.32665986
v -0.26526648 0.75660175 0.32669628
v -0.09696192 -0.28181708 -0.60934013
v -0.27280423 -0.21957816 -0.50148016
v -0.15557992 -0.18615121 0.34413606
v -0.27507445 -0.25967076 -0.51037341
v -0.26543251 0.59378320 0.52478456
v -0.26492384 0.75702268 0.32654825
v -0.26491424 0.75697184 0.32665986
v -0.27708876 0.78542668 -0.36356241
v -0.20111424 0.76869184 0.39696985
v -0.26108447 0.76087350 0.32665917
v -0.24937424 0.74916184 -0.43513015
v -0.24662493 0.74029219 -0.45287061
v -0.24155425 0.74916184 -0.44276014
v -0.22907542 0.76845324 0.36820322
v -0.19563928 0.77335054 0.39456350
v 0.20374575 0.91716182 -0.06787014
v 0.20374575 0.91716182 -0.06396014
v -0.21032035 -0.37463421 0.54629195
v -0.21812424 -0.37582815 0.52995986
v -0.10483424 -0.29379818 -0.61080015
v -0.10093424 -0.28988817 -0.61076015
v -0.19658029 -0.38832065 0.56362897
v -0.21420899 -0.37586647 0.53770089
v -0.21030425 -0.37592819 0.54540986
v -0.24754760 -0.44580048 0.45777416
v -0.10093424 -0.29011819 -0.61083013
v -0.21034424 -0.37582815 0.54540986
v -0.21421424 -0.37582815 0.53771985
v -0.17124423 0.22182183 0.33912987
v -0.23503403 0.58967626 0.55968052
v -0.24014968 0.74994034 -0.44283172
v -0.18445490 0.80126750 -0.40991220
v -0.24155425 0.74910188 -0.44287014
v -0.24556133 0.74917668 -0.43881494
v -0.24546424 0.74915183 -0.43896013
v -0.24544424 0.74916184 -0.43896013
v -0.17019047 0.93864501 -0.14240301
v -0.08276548 -0.19760008 -0.58589375
v -0.17905425 0.22571184 0.33837986
v -0.17515422 0.22178178 0.33837986
v -0.17914447 0.22571699 0.33837557
v -0.10974174 -0.29778340 -0.61052853
v -0.02025777 0.02459598 -0.59348172
v -0.06968424 -0.21175817 0.40868986
v -0.18296424 0.22963183 0.33844987
v -0.09694555 -0.28768152 -0.61122990
v -0.10093424 -0.30160815 -0.61467016
v -0.09755126 -0.29928443 -0.61473858
v -0.17905425 0.22572184 0.33837986
v -0.15952425 0.83892184 0.31883985
v -0.10874424 -0.30941817 -0.61474013
v -0.17515424 0.22182183 0.33837986
v -0.14674444 0.53332675 -0.62651730
v -0.11085763 0.80491394 -0.48437119
v -0.29861891 0.67055994 0.42654511
v -0.19077425 0.77484185 0.39696985
v -0.19077425 0.77032185 0.40477985
v -0.19468424 0.77252185 0.39696985
v -0.19077425 0.77260184 0.40083987
v -0.19454424 0.77260184 0.39696985
v -0.19076024 0.77258784 0.40088511
v -0.14388965 0.83119106 0.36571819
v -0.16887587 0.79328090 0.38755789
v -0.13963395 0.79618943 0.41269088
v -0.13999423 0.79604185 0.41255987
v -0.17506327 0.81948626 0.35361519
v -0.15952425 0.82178187 0.36571985
v -0.14390375 0.83117992 0.36572200
v -0.14771339 0.83121020 0.36173949
v -0.14767425 0.83119184 0.36180985
v -0.16721787 0.81947529 0.36173052
v -0.16328441 0.81951749 0.36572051
v -0.07749424 -0.21315816 0.41649985
v -0.07027424 -0.21176817 0.40868986
v -0.10093424 -0.30941817 -0.61728013
v -0.07258253 -0.20979872 0.39749244
v -0.10874424 -0.29769817 -0.61083013
v -0.10484130 -0.29389820 -0.61082572
v -0.14780425 0.79587185 0.40477985
v -0.14390424 0.79822183 0.40477985
v -0.20580208 0.48561588 -0.61580968
v -0.15562780 0.84227979 0.31710285
v -0.21564999 0.21880843 -0.58978504
v -0.14390424 0.37807184 -0.64194012
v -0.14390424 0.38197181 -0.64206016
v -0.17596216 0.59483075 -0.59315854
v -0.14435834 0.53816581 -0.62620813
v -0.18648820 0.75578159 0.43403277
v -0.14390424 0.79594183 0.40868986
v -0.13999423 0.79601187 0.41258985
v -0.14374425 0.79604185 0.40868986
v -0.16733424 0.81936187 0.36180985
v -0.16319790 0.81938529 0.36604100
v -0.17124423 0.81929183 0.35790986
v -0.14291352 0.79140359 0.41750285
v -0.15955882 0.81946087 0.36966091
v -0.15957424 0.81947184 0.36962986
v -0.16343424 0.81947184 0.36564985
v -0.16071339 0.83891690 0.31763348
v -0.17034738 0.81729949 0.34481108
v -0.15562424 0.83901185 0.32272986
v -0.15938424 0.83901185 0.31883985
v -0.12499349 0.87611830 0.29067969
v -0.16726650 0.82163042 0.35799935
v -0.14640424 0.84682184 0.31883985
v -0.13998950 0.85069847 0.31879595
v -0.14390424 0.85060185 0.31493986
v -0.13999423 0.85072184 0.31874985
v -0.05405424 0.93661183 -0.25537014
v -0.10069902 0.95644850 -0.04734653
v -0.10093424 0.95631182 -0.04443014
v -0.14010423 0.83119184 0.36962986
v -0.12346727 0.82882720 0.37339106
v -0.11265424 0.95398188 -0.04443014
v -0.01108424 -0.43431818 -0.66943014
v -0.10874422 -0.29775268 -0.61083800
v -0.05796424 -0.34848818 -0.63026017
v -0.05405424 -0.34864819 -0.63037014
v -0.10472424 -0.29379818 -0.61083013
v -0.10483424 -0.30560818 -0.61474013
v -0.10474424 -0.30551818 -0.61474013
v -0.07253940 -0.33672622 -0.62649143
v -0.08694087 -0.21670362 0.43678308
v -0.11265424 -0.31332815 -0.61478013
v -0.05014587 0.05225840 0.72991222
v -0.13999423 0.53822184 -0.62786013
v -0.13988423 0.54213184 -0.62646013
v -0.14390424 0.38588181 -0.64219016
v -0.15044098 0.38681826 -0.63955218
v -0.13986854 0.83116978 0.36990339
v -0.14309280 0.27684584 0.35928679
v -0.10088424 0.24526183 0.40477985
v -0.10093412 0.24532202 0.40472594
v -0.10093424 0.24916182 0.40867987
v -0.11965167 0.28860509 0.41170570
v -0.14390424 0.79604185 0.40852985
v -0.14390424 0.38258183 -0.64208013
v -0.14390424 0.53822184 -0.62636012
v -0.13612424 0.54604185 -0.62646013
v -0.13999423 0.54604185 -0.62498015
v -0.13606051 0.54609513 -0.62645757
v -0.09214593 0.42316523 -0.66441464
v -0.14365424 0.53822184 -0.62646013
v -0.13999423 0.54213184 -0.62642014
v -0.13999423 0.54202187 -0.62646013
v -0.14780425 0.83111185 0.36180985
v -0.11323627 0.74523270 0.50795192
v -0.15530682 0.83896488 0.32311732
v -0.23042481 0.77131724 0.38127646
v -0.13352945 0.82601023 0.38536289
v -0.14390424 0.83119184 0.36570987
v -0.12248970 0.89013880 0.28666928
v -0.14780425 0.85053188 0.31102985
v -0.14378294 0.85072196 0.31484628
v -0.14788055 0.85057396 0.31087396
v 0.08819325 0.89828169 0.28174797
v -0.13931502 0.83202010 0.36906707
v -0.13999423 0.85295182 0.31493986
v -0.10483424 0.95553184 -0.04443014
v -0.10150424 0.95619184 -0.04443014
v -0.10483424 -0.30551818 -0.61471015
v -0.10876424 -0.30941817 -0.61474013
v -0.10874424 -0.30940819 -0.61474013
v -0.05405424 -0.34848818 -0.63031012
v -0.05113632 -0.35241470 -0.63166291
v -0.08915101 -0.28600159 -0.61083037
v -0.05001682 -0.34848827 -0.63036364
v -0.06968424 -0.21176817 0.40870985
v -0.06577424 -0.21176817 0.40884987
v -0.05796424 0.00307183 0.75242984
v -0.06187424 0.00324183 0.74852985
v -0.22517183 -0.21104692 -0.54390341
v -0.06187424 0.00307183 0.74863988
v -0.06291616 -0.21171749 0.40869099
v -0.10093424 0.24157183 0.40087986
v -0.09312424 0.24141183 0.59618986
v -0.09336761 0.24182056 0.59631377
v -0.19737239 0.40237603 0.65573835
v -0.09955196 0.24131000 0.58975124
v -0.10092424 0.24916182 0.40868986
v -0.10093459 0.24916945 0.40868706
v -0.09312424 0.24135183 0.59612983
v -0.10093424 0.25286183 0.41258985
v -0.09306424 0.24135183 0.59618986
v -0.08921424 0.24151184 0.60008985
v -0.08921424 0.24135183 0.59994984
v -0.08780692 0.24069686 0.60069418
v -0.10241427 0.54907745 -0.63947254
v -0.08806724 0.15532550 0.47048852
v -0.06595787 0.93664771 -0.24366666
v 0.02591253 -0.29442170 0.30261829
v -0.00718424 -0.43421817 -0.66943014
v 0.00338259 -0.50887340 -0.70394820
v -0.01645226 -0.43491930 -0.66964412
v -0.01475928 -0.42975461 -0.66730416
v 0.10824008 -0.97924644 0.03216445
v 0.02123357 -0.22447039 -0.59299427
v -0.05015424 -0.34848818 -0.63037014
v -0.05795055 0.00307244 0.75244331
v -0.05796424 0.00304183 0.75243986
v -0.06439837 0.00214967 0.74652386
v -0.05405424 0.00307183 0.75621986
v -0.08940424 0.23744184 0.59618986
v -0.08121264 0.24270023 0.60906368
v -0.07337623 0.93616533 -0.23850283
v -0.06577424 0.93666184 -0.24379013
v -0.06577424 0.93670183 -0.24365014
v -0.04991559 0.94248533 -0.23447171
v 0.02020746 0.96400243 -0.17346188
v 0.02433438 0.96401179 -0.16943160
v -0.06187424 0.93667185 -0.24755014
v -0.06968424 0.93673187 -0.23974013
v -0.05405424 0.93753183 -0.25146013
v -0.05785424 0.93666184 -0.25146013
v -0.05796424 0.93666184 -0.25135013
v -0.01540424 -0.43441817 -0.66943014
v -0.01499424 -0.43440819 -0.66943014
v -0.01475000 -0.42442206 -0.66488200
v -0.10150053 -0.35793090 -0.63388962
v 0.05184872 -0.19997732 -0.58021200
v -0.01499424 -0.43441817 -0.66943014
v -0.01108424 -0.43441817 -0.66948014
v 0.34437576 -0.36012819 0.22118986
v -0.02059058 0.67205387 -0.63800007
v -0.05796424 0.93664187 -0.25146013
v 0.00530803 0.64206278 0.61425298
v -0.06187404 0.93666470 -0.24756242
v -0.05405424 0.93666184 -0.25513014
v 0.02833112 0.94837773 -0.23168728
v 0.02029576 0.96401185 -0.17333014
v 0.02581631 0.96461320 -0.16546209
v 0.00024109 0.95017332 -0.25045368
v 0.02405576 0.96407187 -0.16943014
v -0.03260957 -0.57439601 0.59848160
v 0.05984494 -0.20227879 -0.57976770
v 0.00295191 -0.35782313 -0.63418221
v 0.05921811 -0.19218551 -0.57958788
v 0.01403450 -0.08353344 -0.58323097
v -0.08157089 0.76608652 0.53965700
v 0.06677001 0.93631709 -0.24460700
v 0.04357991 0.95535052 -0.18766600
v 0.01625576 0.96401185 -0.17724013
v 0.02405576 0.96130186 -0.18115014
v 0.02410874 0.94836456 -0.23581351
v 0.02405576 0.94838184 -0.23579013
v 0.02015576 0.96404183 -0.17333014
v 0.05960997 -0.20004630 -0.57963693
v 0.14371575 -0.65316814 0.12352986
v 0.08265576 0.65156186 0.59227985
v 0.08655576 0.65541184 0.58839989
v 0.04791607 0.92631960 -0.34410632
v 0.02015576 0.94834185 -0.23974013
v 0.02401622 0.94838858 -0.23579951
v 0.01611906 0.96401167 -0.17736185
v 0.02796576 0.94838184 -0.23201016
v 0.02796576 0.94840187 -0.23193014
v 0.00164138 0.97888643 -0.12782222
v 0.14389576 -0.64926815 0.12743986
v 0.14117576 -0.65707815 0.12352986
v 0.14124575 -0.65696818 0.12352986
v 0.07303033 -0.20006980 -0.57863539
v 0.27796575 -0.21566817 -0.49647015
v 0.28359577 -0.21176817 -0.48974013
v 0.05921709 -0.19193897 -0.57957989
v 0.05902556 -0.19164833 -0.57959598
v 0.10214020 -0.05078180 -0.57384562
v 0.07282443 0.00476869 -0.58349067
v 0.07483576 0.01088183 -0.58385015
v 0.07483576 0.00703183 -0.58349013
v 0.08265576 0.01479183 -0.58350015
v 0.07876576 0.01088183 -0.58349013
v 0.08271603 0.01452668 -0.58346659
v 0.07560845 0.03387947 -0.58590370
v 0.08622226 0.01726564 -0.58344305
v 0.08449670 0.64665776 0.59596264
v 0.08255026 0.65152597 0.59233892
v 0.08793768 0.65703148 0.58686125
v 0.08295583 0.65151250 0.59226954
v 0.09382145 0.76492417 -0.51316977
v 0.09078950 0.78444171 -0.49875441
v 0.17132492 0.64302540 0.57362705
v 0.07609576 0.73967880 0.52784866
v -0.05515346 0.96322095 0.13678098
v 0.19997706 0.86283404 0.27348390
v 0.12962060 0.95443195 -0.13019104
v 0.24106303 0.89812154 -0.09099678
v 0.11589346 -0.66813678 0.14435728
v 0.31309408 -0.58671677 -0.70457870
v 0.30923864 -0.59066939 -0.71234822
v 0.20118167 -0.87609529 0.01743598
v -0.07592981 0.09342609 0.74931687
v 0.10164061 -0.20703994 -0.57521039
v 0.07874576 0.00697183 -0.58313012
v 0.07874576 0.01088183 -0.58349013
v 0.07874576 0.01086183 -0.58349013
v 0.17276576 -0.24691817 -0.56787014
v 0.17640576 -0.25082815 -0.56804013
v 0.09809327 0.76869911 -0.50924826
v 0.09441045 0.76474589 -0.51317692
v 0.09437576 0.76479185 -0.51315016
v 0.09231683 0.76018560 -0.51721615
v 0.01892424 0.81205398 -0.49989524
v 0.09841565 0.76860899 -0.50924641
v 0.07915983 0.91772389 -0.32305601
v 0.13347349 0.81647086 0.40308970
v 0.12952577 0.81555188 0.40868986
v 0.12952322 0.81554878 0.40869355
v 0.19626576 0.92104185 -0.05224015
v 0.14124575 -0.65315813 0.12743986
v 0.14124575 -0.65316814 0.12741984
v 0.14112073 -0.65722376 0.12348519
v 0.14123459 -0.65317899 0.12744309
v 0.16839570 -0.24285929 -0.56783670
v 0.09864086 0.04354440 -0.58234107
v 0.20321782 -0.65691042 0.05165966
v 0.20393768 -0.88334978 0.01525618
v 0.20563576 -0.88363814 0.01415986
v 0.21155576 -0.88363814 0.01024986
v 0.08677042 0.65542179 0.58835751
v 0.12716068 0.81048757 0.41972363
v 0.09827576 0.76862186 -0.50927013
v 0.12562576 0.81744182 0.40868986
v 0.17635147 0.78432071 0.39696309
v 0.17640576 0.78428185 0.39696985
v 0.16502199 -0.23991039 -0.56787926
v 0.21151181 -0.90359074 0.00897498
v 0.17779469 -0.58601439 0.14089710
v 0.20368987 -0.88746095 0.01476945
v 0.16858576 -0.24311817 -0.56787014
v 0.17249575 -0.24667817 -0.56787014
v 0.18213478 -0.27820200 -0.57458103
v 0.18028525 0.78433365 0.39292154
v 0.13343576 0.81550187 0.40477985
v 0.13331576 0.81557184 0.40477985
v 0.17640576 0.78201187 0.40087986
v 0.18059891 0.78428888 0.39267254
v 0.16616091 0.81234068 0.35940999
v 0.18016575 0.78432184 0.39305985
v 0.12322913 0.82285208 0.40024030
v 0.12952577 0.81557184 0.40865985
v 0.21797615 0.89168400 -0.20076382
v 0.18922649 0.92431587 -0.02383293
v 0.20374575 0.91716182 -0.06005015
v 0.20379576 0.91713184 -0.06396014
v 0.20379576 0.91713184 -0.06787014
v 0.20577198 0.91605014 -0.13389786
v 0.21155675 -0.88361853 0.01025028
v 0.22091469 -0.75721139 0.01667658
v 0.16847250 -0.24303368 -0.56787717
v 0.17249575 -0.24691817 -0.56794012
v 0.20924550 -0.17555088 -0.53371608
v 0.21155676 -0.88369346 0.01024956
v 0.17786600 -0.24417716 -0.56551749
v -0.01782949 -0.07043594 0.69619381
v 0.28186575 -0.21957816 -0.49365014
v 0.27797577 -0.21957816 -0.49755013
v 0.27796575 -0.21954817 -0.49755013
v 0.34437576 0.80765188 -0.00927014
v 0.21999052 0.88938475 -0.20442726
v 0.39906839 0.03455629 -0.32195318
v 0.39905575 0.03432183 -0.32192013
v 0.13984641 0.81557155 0.39810842
v 0.15579312 0.64339215 0.58417785
v 0.12418384 0.78487909 0.44909912
v 0.20374575 0.81556183 0.31493986
v 0.19997576 0.81557184 0.31883985
v 0.19983576 0.81557184 0.31897986
v 0.20374575 0.81330186 0.31883985
v 0.24966545 0.89237636 -0.13850649
v 0.21486576 0.88979185 -0.21240014
v 0.21697576 0.88979185 -0.20849013
v 0.21107084 0.81414306 0.30979207
v 0.21909577 0.88979185 -0.20458014
v 0.21119119 0.79353786 0.34530124
v 0.17711942 0.93107879 -0.06994222
v 0.20374575 0.91716182 -0.09912014
v 0.20374575 0.91716182 -0.09521015
v 0.20374575 0.91716182 -0.07958015
v 0.20381576 0.91713184 -0.11083015
v 0.20374575 0.91717184 -0.10693014
v 0.20381576 0.91713184 -0.10693014
v 0.20374575 0.91717184 -0.11083015
v 0.20380576 0.91713184 -0.09130014
v 0.20374575 0.91716182 -0.09130014
v 0.20374575 0.91716182 -0.08740014
v 0.20374575 0.91716182 -0.08349015
v 0.20380576 0.91713184 -0.08740014
v 0.20374575 0.91715187 -0.05615014
v 0.20379576 0.91713184 -0.05615014
v 0.20381576 0.91713184 -0.09912014
v 0.20380576 0.91713184 -0.09521015
v 0.20374575 0.91715187 -0.05224015
v 0.20379576 0.91713184 -0.05224015
v 0.20380576 0.91713184 -0.07958015
v 0.20374575 0.91716182 -0.07568014
v 0.20380576 0.91713184 -0.07568014
v 0.21546575 0.91109186 -0.11083015
v 0.20380576 0.91713184 -0.08349015
v 0.20379576 0.91713184 -0.06005015
v 0.28184533 -0.34379810 -0.54082298
v 0.34437576 -0.36014819 0.22508986
v 0.34437576 -0.36016819 0.22899985
v 0.24867180 -0.19513465 -0.51988244
v 0.27905577 -0.22348817 -0.49755013
v 0.27732575 -0.23129816 -0.50146013
v 0.27407575 -0.21957816 -0.50146013
v 0.26629576 -0.21957816 -0.50927013
v 0.27015576 -0.21957816 -0.50540012
v 0.28916806 -0.22100627 -0.48672155
v 0.28187576 -0.21957816 -0.49364015
v 0.30925113 -0.59070510 -0.71238297
v 0.25124577 0.60463184 0.53368986
v 0.12712494 0.39217219 -0.66297483
v 0.20373014 0.81557846 0.31493878
v 0.17000607 0.76759243 -0.48961809
v 0.19710322 0.81727201 0.31885678
v 0.19983576 0.81565183 0.31883985
v 0.23322366 0.73775584 0.41660041
v 0.23401119 0.83567649 0.24898930
v 0.21937576 0.88979185 -0.20408013
v 0.20374575 0.91717184 -0.10302014
v 0.19521505 0.92157865 -0.07160432
v 0.20381576 0.91713184 -0.10302014
v 0.20374575 0.91716182 -0.07177014
v 0.20379576 0.91713184 -0.07177014
v 0.20374575 0.91715187 -0.04833014
v 0.26047060 0.88550335 0.05622217
v 0.09020835 -0.32806915 -0.61344552
v 0.35181522 -0.30649713 0.34187204
v 0.30437919 -0.18398014 -0.46143413
v 0.27405575 -0.21957816 -0.50148016
v 0.26456577 -0.22738817 -0.51318014
v 0.27015576 -0.22738817 -0.50757015
v 0.26082814 -0.21779104 -0.51426625
v 0.30147576 -0.38363817 0.40477985
v 0.27796575 -0.21957816 -0.49756014
v 0.26624575 -0.21957816 -0.50932014
v 0.27405575 -0.21949819 -0.50146013
v 0.27018577 -0.21957816 -0.50537014
v 0.28577575 -0.21957816 -0.48972014
v 0.28966174 -0.21956320 -0.48581985
v 0.29328719 -0.25983486 -0.49331188
v 0.30826578 0.72466838 -0.44041643
v 0.23497397 0.21543406 -0.57180721
v 0.33655575 0.10072183 0.47507986
v 0.33655575 0.09682183 0.47498986
v 0.34046575 0.09682183 0.47200987
v 0.31314626 -0.58683056 -0.70464605
v 0.26720688 0.51918465 0.55221790
v 0.25452575 0.59291184 0.53757983
v 0.25841576 0.59291184 0.53368986
v 0.27795947 0.59291166 0.51410609
v 0.27551576 0.59682184 0.51415986
v 0.28984091 0.55364853 -0.54438496
v 0.27796575 0.59282184 0.51415986
v 0.25451428 0.59290326 0.53759623
v 0.26621744 0.59291244 0.52588075
v 0.26231575 0.59291184 0.52977985
v 0.26233575 0.59291184 0.52974987
v 0.25992575 0.59682184 0.52977985
v 0.32106575 0.83901185 -0.00927014
v 0.32103577 0.83901185 -0.00537014
v 0.26309174 0.83096498 -0.28153422
v 0.26624575 0.82725185 -0.28662014
v 0.26595792 0.82728589 -0.28721246
v 0.23002453 0.84639567 -0.30871552
v 0.27404019 0.81946403 -0.29434946
v 0.27399576 0.81947184 -0.29443014
v 0.27014175 0.82334405 -0.29054427
v 0.27015576 0.82334185 -0.29052013
v 0.29749575 -0.28995818 -0.49755013
v 0.33887407 -0.54076779 -0.64487183
v 0.28187570 -0.21958326 -0.49364269
v 0.28577575 -0.21963817 -0.48974013
v 0.30140206 -0.38769031 0.40089682
v 0.30139863 -0.39157918 0.39699650
v 0.28968576 -0.21968816 -0.48583013
v 0.28679615 -0.42348242 0.37668279
v 0.27628136 -0.37535313 0.45292166
v 0.34624252 -0.37567326 0.02707727
v 0.31328961 -0.28844821 -0.48131093
v 0.30119860 -0.28989789 -0.49382073
v 0.30530575 -0.29004818 -0.48974013
v 0.29073575 -0.22348817 -0.48583013
v 0.28575575 -0.21957816 -0.48974013
v 0.30634576 -0.29379818 -0.48974013
v 0.30140576 -0.28988817 -0.49361014
v 0.33652779 0.09667174 0.47502050
v 0.33654577 0.10072183 0.47508985
v 0.27854833 0.22200583 0.53958404
v 0.27405575 0.59283185 0.51805985
v 0.27015576 0.59284186 0.52196985
v 0.27099577 0.58510184 0.52587986
v 0.33174384 -0.66265094 -0.77293485
v 0.31975839 -0.55593902 -0.66397810
v 0.30118856 0.44406891 -0.56526673
v 0.25843576 0.59291184 0.53366989
v 0.27010575 0.59291184 0.52196985
v 0.26624575 0.59291184 0.52583987
v 0.24885400 0.61599535 0.52892828
v 0.28983805 0.56102031 0.52076107
v 0.25843576 0.59288186 0.53368986
v 0.26771575 0.59682184 0.52196985
v 0.28187576 0.59281182 0.51024985
v 0.33269894 0.59287024 -0.48199281
v 0.26624575 0.59285188 0.52587986
v 0.26927599 0.61264127 0.51070118
v 0.27405575 0.59291184 0.51800984
v 0.27400577 0.59291184 0.51805985
v 0.27015576 0.59291184 0.52192986
v 0.26233575 0.59287184 0.52977985
v 0.27238575 0.81947184 -0.29833013
v 0.27015263 0.82336050 -0.29046574
v 0.26629540 0.82726604 -0.28646213
v 0.45692474 0.62762278 -0.19296087
v 0.32102576 0.83901185 0.00243986
v 0.32102576 0.83901185 0.00633986
v 0.30535787 -0.28999579 -0.48966646
v 0.19183184 0.94929606 -0.03380401
v 0.30083144 -0.57794946 -0.70509803
v 0.30140576 -0.39144817 0.39706987
v 0.30144575 -0.39144817 0.39696985
v 0.30146575 -0.38754818 0.40087986
v 0.40584877 -0.65143347 -0.70134097
v 0.31394804 -0.58613831 -0.70338315
v 0.30245575 -0.29379818 -0.49365014
v 0.30529174 -0.29000905 -0.48974386
v 0.37951815 -0.71570760 -0.22806099
v 0.30921921 -0.38705984 0.35851786
v 0.30926576 -0.38754818 0.35790986
v 0.30140576 -0.29000819 -0.49365014
v 0.34433997 -0.36015767 0.21696779
v 0.30772576 -0.39144817 0.35790986
v 0.34284359 -0.35899469 0.29482073
v 0.30923861 -0.39149272 0.35397553
v 0.43871829 -0.63130116 -0.46568951
v 0.29490352 -0.31199884 -0.50656593
v 0.30921575 -0.39144817 0.35406986
v 0.29077202 -0.38638577 0.40843573
v 0.35583702 -0.34544438 0.21868801
v 0.33655575 0.10112183 0.47508985
v 0.35845464 -0.01095941 0.48417833
v 0.33189419 0.09682134 0.47853431
v 0.32313576 0.62807184 0.43212986
v 0.33539551 0.65079594 0.38628212
v 0.31961423 0.44017306 -0.54540479
v 0.33942258 -0.36662650 0.23823707
v 0.34431577 -0.36019817 0.22118986
v 0.32093576 0.83909184 0.01805985
v 0.31702575 0.84205186 0.02196986
v 0.32093576 0.83910185 0.02196986
v 0.33274284 0.59317428 -0.48183316
v 0.31702575 0.44310185 -0.54833013
v 0.32077575 0.44447181 -0.54443014
v 0.31702575 0.44447181 -0.54841012
v 0.32093576 0.44447181 -0.54427016
v 0.32652575 0.62026185 0.43212986
v 0.31709576 0.44447181 -0.54833013
v 0.29638481 0.54599321 -0.55286872
v 0.32482576 0.62416184 0.43212986
v 0.33655575 0.59303182 -0.47802013
v 0.33656856 0.59291476 -0.47805616
v 0.32475576 0.62026185 0.43602985
v 0.30838153 0.63296127 0.45896280
v 0.33127576 0.59682184 -0.48193014
v 0.37168282 0.67111051 -0.39981252
v 0.32490575 0.62807184 0.42821985
v 0.41442293 0.63665253 -0.33323857
v 0.32483575 0.62807184 0.42836985
v 0.32483575 0.62026185 0.43583986
v 0.33265576 0.59316182 -0.48193014
v 0.32875040 0.63940847 0.40892783
v 0.30766270 0.84907740 0.01535776
v 0.27944067 0.85379046 -0.20441683
v 0.32483575 0.62416184 0.43210986
v 0.32485592 0.62402254 0.43220624
v 0.34436619 0.80772376 -0.01708007
v 0.32103577 0.83901185 0.01024986
v 0.32099146 0.83905125 0.01415976
v 0.32093576 0.83909184 0.01415986
v 0.33291134 0.82026017 0.01516141
v 0.41074690 0.55734068 0.27262914
v 0.34433576 0.80776185 -0.01708014
v 0.33733577 0.81557184 -0.01318014
v 0.34430575 0.80776185 -0.01318014
v 0.32106575 0.83901185 0.02587986
v 0.32105577 0.83901185 0.02196986
v 0.32093576 0.83910185 0.02587986
v 0.32108575 0.83901185 -0.01318014
v 0.32098499 0.83909488 -0.01535378
v 0.32093576 0.83910185 -0.00927014
v 0.32093576 0.83908182 -0.00537014
v 0.34098428 -0.70468599 -0.14018348
v 0.37955147 -0.71962088 -0.22395885
v 0.35646632 -0.55572242 -0.64198923
v 0.35218576 -0.55160815 -0.64189017
v 0.34952644 -0.54910082 -0.64190441
v 0.35608575 -0.55549812 -0.64208013
v 0.35614556 -0.55568999 -0.64230305
v 0.37943912 -0.71522373 -0.22836718
v 0.34432575 -0.36019817 0.22508986
v 0.26921627 -0.89534885 -0.03018742
v 0.34437576 -0.36011818 0.21727987
v 0.39515576 0.03432183 -0.32958013
v 0.39515594 0.03431359 -0.32957920
v 0.27289841 0.38089666 0.64626402
v 0.38343576 0.68696183 -0.33740014
v 0.38351285 0.68651527 -0.33772460
v 0.34045577 0.59291184 -0.47412014
v 0.34741813 0.50228721 0.46993181
v 0.34950218 0.09184489 0.46518800
v 0.38365021 0.67920822 -0.36412829
v 0.38375160 0.50934255 -0.46053302
v 0.32669210 0.55472052 0.46905699
v 0.33016697 0.63113791 -0.46997818
v 0.35257930 0.68795663 -0.40670517
v 0.37507662 0.65298176 -0.41005462
v 0.37171575 0.66707182 -0.40380016
v 0.30515003 0.78595918 -0.32617980
v 0.38141575 0.69057184 -0.33740014
v 0.32101575 0.83901185 -0.00147014
v 0.32093576 0.83907187 -0.00147014
v 0.33883610 0.82582629 -0.03490674
v 0.34831575 0.80385184 -0.08349015
v 0.34827575 0.80389184 -0.08349015
v 0.34828576 0.80385184 -0.07958015
v 0.34827575 0.80386186 -0.07958015
v 0.34822577 0.80385184 -0.07177014
v 0.34827575 0.80380183 -0.07177014
v 0.34827575 0.80376184 -0.06787014
v 0.35701916 0.80527270 -0.01779332
v 0.34789687 0.81565887 -0.03506700
v 0.37333977 0.77493572 0.01078936
v 0.34437576 0.81949186 -0.02099014
v 0.34437576 0.81952184 -0.02490014
v 0.33335355 0.82019466 -0.03684047
v 0.34825575 0.80385184 -0.07568014
v 0.35218576 0.79945183 -0.07568014
v 0.34827575 0.80383188 -0.07568014
v 0.33777490 0.81551731 -0.06566416
v 0.34441575 0.81947184 -0.02490014
v 0.34438577 0.81947184 -0.02099014
v 0.34437576 0.81955183 -0.02880014
v 0.34447575 0.81947184 -0.03271015
v 0.32093576 0.83908182 0.00633986
v 0.32093576 0.83907187 0.00243986
v 0.34437576 0.81947184 -0.01943014
v 0.34444577 0.81947184 -0.02880014
v 0.33601701 0.82538617 0.03975724
v 0.32104576 0.83901185 0.01805985
v 0.32093576 0.83908182 0.01024986
v 0.38653889 -0.40517229 -0.16697073
v 0.38266158 -0.70924485 -0.24357887
v 0.37952575 -0.71941817 -0.22412014
v 0.35218576 -0.55171818 -0.64208013
v 0.36042902 0.05220667 -0.39308706
v 0.39155158 -0.12184588 -0.28716424
v 0.41089416 0.01191398 -0.29357117
v 0.39467576 0.03041183 -0.32958013
v 0.39515603 0.03432338 -0.32958135
v 0.43812078 -0.01337894 -0.20745715
v 0.40542495 0.04391078 -0.31167516
v 0.43941930 -0.78212357 -0.29501560
v 0.38461331 0.38759744 0.44689742
v 0.41788661 0.34245238 0.35703152
v 0.37168577 0.66713184 -0.40380013
v 0.37171575 0.67096186 -0.39990014
v 0.37169576 0.66322184 -0.40771013
v 0.38770348 0.57313287 0.33695945
v 0.37185481 0.67094100 -0.39957124
v 0.32637772 0.75808704 0.27566406
v 0.37949577 0.76869184 -0.06787014
v 0.37952575 0.76866186 -0.07177014
v 0.38840675 0.75889361 -0.04000419
v 0.37977266 0.69753635 -0.33310324
v 0.35190478 0.79982638 -0.08390123
v 0.42064473 0.56108266 0.23430516
v 0.35474509 0.79690164 -0.10708907
v 0.38178670 0.76607794 -0.10400466
v 0.37952575 0.76866186 -0.09521015
v 0.34109557 0.82464427 -0.14286965
v 0.34834576 0.80385184 -0.08740014
v 0.37949577 0.76869184 -0.08740014
v 0.37952575 0.76866186 -0.09130014
v 0.37952575 0.76866186 -0.08740014
v 0.37949577 0.76869184 -0.08349015
v 0.37952575 0.76866186 -0.08349015
v 0.37949577 0.76869184 -0.07958015
v 0.44593576 0.63206184 -0.22802015
v 0.44593576 0.63197184 -0.22811013
v 0.44595575 0.63197184 -0.22802015
v 0.40687576 0.73757184 -0.12646015
v 0.40697575 0.73744184 -0.13037014
v 0.40697575 0.73744184 -0.12646015
v 0.34827575 0.80385184 -0.07809014
v 0.34437576 0.80768186 -0.01318014
v 0.38991392 -0.70119059 -0.26596645
v 0.37950251 -0.71944892 -0.22401565
v 0.38243619 -0.73097867 -0.21975677
v 0.46125197 -0.66047758 -0.64131707
v 0.41526657 -0.03377593 -0.25802743
v 0.42246392 -0.03197482 -0.23615319
v 0.39905575 0.03370183 -0.32177013
v 0.42257577 -0.03598817 -0.23193014
v 0.42640576 -0.03207817 -0.22283015
v 0.42252889 -0.03597039 -0.23209205
v 0.43220195 0.16190140 -0.30308011
v 0.41403577 0.36244181 0.36180985
v 0.46881327 0.40842167 -0.35017034
v 0.41469198 0.36640176 0.35790807
v 0.44948870 0.47666359 0.19478528
v 0.41077575 0.36635184 0.37134987
v 0.38589275 0.58581746 -0.44423747
v 0.41468576 0.36244181 0.35960987
v 0.41468576 0.53041184 -0.40371013
v 0.41467157 0.53005904 -0.40380237
v 0.41468576 0.53432184 -0.40296015
v 0.41858575 0.53057182 -0.39599013
v 0.41858575 0.53041184 -0.39602014
v 0.42647728 0.49143717 -0.38797751
v 0.41521379 0.54677802 0.26792800
v 0.41859013 0.53041184 -0.39601284
v 0.38342577 0.69057184 -0.33349013
v 0.41534576 0.55385184 0.26024985
v 0.38343620 0.69056255 -0.33349001
v 0.44594577 0.63588184 -0.22412014
v 0.44205576 0.62026185 -0.28662014
v 0.44202575 0.62416184 -0.28279015
v 0.44204575 0.62416184 -0.28271013
v 0.40698382 0.73743773 -0.08524213
v 0.37949577 0.76869184 -0.09130014
v 0.37940493 0.76888609 -0.15548432
v 0.36234716 0.78789371 -0.04244011
v 0.37949577 0.76869184 -0.07177014
v 0.46902475 0.02086009 0.37836128
v 0.37381980 0.78840661 -0.21939072
v 0.38317290 0.76451766 -0.07821410
v 0.36677185 0.77751124 -0.19511963
v 0.37951604 0.76867205 -0.09553991
v 0.40687576 0.73757184 -0.12255014
v 0.37952575 0.76866186 -0.07958015
v 0.37952575 0.76866186 -0.07568014
v 0.37949577 0.76869184 -0.07568014
v 0.42251575 -0.03207817 -0.23583014
v 0.36046511 -0.51738429 -0.56387693
v 0.42205757 -0.04207352 -0.22780932
v 0.42249575 -0.03216817 -0.23583014
v 0.42262575 -0.03988817 -0.22802015
v 0.42267710 -0.02900719 -0.23831086
v 0.37735832 0.38068968 -0.49194863
v 0.41079575 0.37026182 0.36962986
v 0.41078243 0.37035829 0.36963636
v 0.41468576 0.36635184 0.35795987
v 0.44000575 0.62416184 -0.29052013
v 0.44633040 0.68628848 0.01670307
v 0.40962577 0.56166184 0.27196985
v 0.41080576 0.55776185 0.27196985
v 0.41468576 0.54994184 0.26665986
v 0.41077575 0.55786186 0.27196985
v 0.41077891 0.56165332 0.26798877
v 0.44202575 0.63583183 -0.27099013
v 0.44201577 0.63588184 -0.27099013
v 0.44202575 0.63588184 -0.27094015
v 0.43287027 0.60647351 -0.34536064
v 0.41077575 0.56157184 0.26805985
v 0.44207576 0.61635184 -0.29052013
v 0.44200575 0.63979185 -0.26708013
v 0.44202414 0.63976032 -0.26702461
v 0.44491577 0.63979185 -0.22412014
v 0.44593576 0.63979185 -0.22021013
v 0.44202635 0.62031400 -0.28668573
v 0.44201368 0.62469763 -0.28229997
v 0.45285195 0.60623819 -0.25919276
v 0.44202575 0.62807184 -0.27884015
v 0.44593576 0.63588184 -0.22416013
v 0.44551337 0.61866146 -0.24315512
v 0.43640020 0.64240855 -0.28544030
v 0.43828094 0.64280093 -0.24582750
v 0.44589216 0.64432961 -0.21558166
v 0.44403577 0.64369184 -0.25537014
v 0.44303575 0.63588184 -0.26708013
v 0.44596577 0.62807184 -0.23193014
v 0.44593546 0.62815535 -0.23197775
v 0.40696734 0.73746121 -0.12243957
v 0.40811798 0.73360240 -0.19375543
v 0.40694392 0.73748845 -0.13233566
v 0.40919498 0.73363191 -0.12944160
v 0.44193903 0.64374596 -0.26322868
v 0.45374575 0.61244184 -0.22017014
v 0.45375720 0.60857195 -0.22422631
v 0.45374575 0.60871184 -0.22412014
v 0.45374548 0.61236644 -0.22026695
v 0.45374575 0.61611187 -0.21630014
v 0.44927064 0.61824751 -0.22929271
v 0.44202575 0.63197184 -0.27490014
v 0.45364523 0.60816723 -0.22502920
v 0.46556631 0.61951172 -0.20132782
v 0.45795366 0.58217114 -0.23782884
v 0.44597575 0.62416184 -0.23583014
v 0.44493577 0.63197184 -0.23193014
v 0.46546575 0.62045187 -0.20068014
v 0.44202575 0.64353186 -0.26318014
v 0.46655577 0.62026185 -0.19677015
v 0.46546575 0.62530184 -0.19287014
v 0.44205841 0.64365834 -0.26293343
v 0.47360981 0.59757024 -0.18639159
v 0.44593576 0.63592184 -0.22412014
v 0.45673752 0.65554506 -0.18697643
v 0.46546575 0.62416184 -0.19677015
v 0.46546575 0.62415147 -0.19677018
v 0.46431577 0.62416184 -0.20068014
v 0.45194262 0.64708173 -0.18914405
v 0.45854411 0.64797986 0.02935401
v 0.51454484 0.21201241 -0.11641636
f 6 1 11
f 1 6 3
f 9 6 10
f 4 7 5
f 10 6 97
f 6 2 3
f 5 8 2
f 8 7 2
f 7 8 5
f 10 4 9
f 4 5 9
f 7 4 11
f 7 11 1
f 2 9 5
f 8 1 3
f 4 10 11
f 8 7 1
f 8 3 7
f 7 3 2
f 9 2 6
f 6 11 97
f 13 183 188
f 18 17 19
f 188 26 13
f 20 21 23
f 13 22 14
f 23 21 25
f 23 25 16
f 13 26 22
f 24 26 27
f 20 23 29
f 26 18 22
f 25 28 14
f 24 27 28
f 30 29 15
f 29 30 26
f 26 20 29
f 22 18 19
f 26 30 18
f 19 17 15
f 16 25 14
f 18 30 17
f 17 30 15
f 22 19 15
f 20 26 31
f 26 24 31
f 21 20 31
f 25 31 28
f 25 21 31
f 24 28 31
f 22 15 14
f 15 29 16
f 29 23 16
f 15 16 14
f 28 27 35
f 14 28 35
f 27 26 188
f 27 188 35
f 11 10 63
f 11 63 97
f 571 63 33
f 183 13 73
f 97 255 10
f 571 97 63
f 14 35 13
f 97 163 255
f 38 37 36
f 37 51 36
f 39 40 41
f 40 36 41
f 39 41 42
f 43 44 47
f 51 97 89
f 51 45 47
f 45 43 47
f 35 188 46
f 48 49 50
f 41 36 44
f 44 51 47
f 53 78 75
f 55 56 104
f 59 67 60
f 59 60 64
f 60 65 64
f 183 72 66
f 67 63 183
f 59 64 68
f 69 66 61
f 72 33 58
f 61 72 58
f 68 69 61
f 64 69 68
f 61 66 72
f 66 69 62
f 67 183 66
f 59 33 67
f 60 67 62
f 67 66 62
f 70 65 60
f 64 65 69
f 71 61 58
f 62 65 70
f 58 33 59
f 59 71 58
f 59 68 71
f 69 65 62
f 68 61 71
f 33 63 67
f 10 249 63
f 73 13 35
f 557 556 562
f 35 82 147
f 75 48 53
f 79 38 74
f 51 44 36
f 47 43 45
f 571 78 97
f 50 52 53
f 89 45 51
f 78 571 75
f 76 78 80
f 97 78 76
f 97 51 163
f 89 47 45
f 74 39 42
f 37 79 163
f 43 42 41
f 74 38 39
f 38 40 39
f 43 41 44
f 37 38 79
f 37 163 51
f 38 36 40
f 74 42 47
f 42 43 47
f 76 48 75
f 81 97 76
f 52 78 53
f 82 35 46
f 80 78 52
f 53 48 50
f 52 50 49
f 80 49 48
f 76 80 48
f 80 52 49
f 75 81 76
f 47 89 79
f 79 74 47
f 87 88 104
f 85 46 159
f 90 56 99
f 100 101 102
f 101 103 102
f 101 100 103
f 56 83 104
f 107 168 102
f 108 88 109
f 97 111 96
f 167 46 188
f 96 106 113
f 107 112 168
f 114 115 91
f 116 117 133
f 117 116 118
f 119 114 113
f 91 108 109
f 106 111 121
f 112 122 168
f 113 91 96
f 106 96 111
f 108 55 88
f 89 97 96
f 46 167 131
f 123 112 107
f 101 124 103
f 124 101 125
f 131 126 123
f 111 54 105
f 131 125 101
f 83 127 128
f 114 119 129
f 113 106 119
f 114 129 115
f 129 121 115
f 113 114 91
f 168 122 167
f 115 105 91
f 133 100 98
f 106 129 119
f 121 111 105
f 91 110 96
f 129 106 121
f 167 122 126
f 91 105 54
f 105 115 121
f 124 107 102
f 131 167 126
f 117 103 100
f 126 122 112
f 123 126 112
f 103 117 101
f 111 97 54
f 131 123 125
f 132 117 118
f 131 117 132
f 90 91 127
f 125 123 107
f 83 90 127
f 131 101 117
f 125 107 124
f 132 118 116
f 131 134 133
f 131 133 46
f 131 132 134
f 134 132 116
f 87 109 88
f 109 87 135
f 134 116 133
f 103 124 102
f 56 55 99
f 54 97 81
f 100 102 168
f 136 110 135
f 91 54 130
f 127 91 130
f 128 130 104
f 128 127 130
f 137 138 139
f 183 211 12
f 183 571 72
f 571 33 72
f 143 144 145
f 35 147 73
f 269 262 146
f 152 92 148
f 571 81 75
f 93 153 84
f 153 85 152
f 85 159 92
f 94 93 155
f 147 82 86
f 150 86 157
f 86 82 93
f 152 162 153
f 82 46 85
f 150 158 160
f 147 86 150
f 157 94 155
f 157 93 94
f 152 85 92
f 153 82 85
f 152 148 161
f 152 161 162
f 82 153 93
f 153 162 164
f 156 92 159
f 148 92 156
f 148 156 161
f 161 156 159
f 162 159 164
f 153 164 84
f 154 84 160
f 160 84 164
f 94 154 160
f 94 93 154
f 162 161 159
f 150 157 155
f 93 84 154
f 86 93 157
f 93 94 158
f 155 93 158
f 150 155 158
f 158 94 160
f 150 160 147
f 89 190 163
f 164 159 46
f 163 79 89
f 104 83 128
f 104 130 54
f 136 135 165
f 95 136 165
f 100 168 98
f 110 91 109
f 95 110 136
f 91 90 99
f 99 108 91
f 95 165 173
f 335 164 46
f 135 110 109
f 104 54 81
f 96 110 173
f 165 135 87
f 108 99 55
f 168 167 98
f 169 170 171
f 96 173 89
f 104 172 142
f 165 87 104
f 142 173 104
f 167 188 203
f 170 174 171
f 104 88 55
f 110 95 173
f 83 56 90
f 173 165 104
f 203 98 167
f 117 100 133
f 46 133 98
f 208 46 98
f 173 120 210
f 178 141 179
f 140 177 176
f 180 140 141
f 179 141 181
f 180 141 178
f 179 181 57
f 176 177 182
f 211 140 12
f 182 180 178
f 177 180 182
f 179 182 178
f 179 57 182
f 180 177 140
f 183 12 176
f 12 140 176
f 57 181 140
f 141 140 181
f 182 57 176
f 176 57 183
f 184 216 236
f 189 294 272
f 571 221 81
f 190 193 149
f 164 335 160
f 195 149 191
f 147 160 335
f 192 191 193
f 191 149 193
f 163 149 195
f 163 195 77
f 190 149 163
f 196 191 192
f 195 191 196
f 195 194 77
f 194 190 77
f 196 192 194
f 196 194 195
f 193 190 194
f 193 194 192
f 89 77 190
f 120 142 174
f 120 174 175
f 175 170 199
f 174 142 171
f 175 199 172
f 172 104 175
f 142 169 171
f 174 170 175
f 235 201 202
f 173 142 120
f 89 173 210
f 199 170 169
f 169 172 199
f 172 169 142
f 175 104 81
f 210 120 175
f 175 81 206
f 235 205 201
f 205 207 201
f 175 206 204
f 207 202 201
f 206 202 209
f 209 207 201
f 207 204 201
f 205 204 207
f 175 204 205
f 204 206 201
f 206 209 201
f 140 211 57
f 250 244 212
f 250 213 244
f 57 211 183
f 214 215 253
f 218 184 219
f 183 217 188
f 183 73 32
f 10 255 249
f 335 458 147
f 222 223 224
f 269 81 221
f 198 188 197
f 197 227 198
f 203 188 198
f 335 46 151
f 203 198 231
f 89 233 77
f 232 166 228
f 208 151 46
f 233 89 210
f 200 206 81
f 200 278 235
f 175 205 235
f 206 200 202
f 175 235 210
f 202 207 209
f 202 200 235
f 210 235 317
f 317 235 278
f 200 81 278
f 98 203 208
f 183 63 249
f 452 284 237
f 213 238 239
f 240 241 242
f 514 183 305
f 220 219 242
f 213 245 246
f 220 242 248
f 184 218 216
f 250 238 213
f 243 251 244
f 284 247 243
f 248 218 220
f 183 216 217
f 219 240 242
f 218 248 216
f 219 240 218
f 240 220 218
f 240 219 220
f 216 248 217
f 239 238 214
f 242 241 248
f 248 241 217
f 255 363 249
f 144 221 145
f 146 259 260
f 143 266 261
f 221 285 258
f 264 260 144
f 259 265 263
f 265 262 263
f 261 285 269
f 266 145 258
f 188 504 197
f 255 163 77
f 267 225 231
f 198 267 231
f 268 230 226
f 224 268 225
f 269 429 81
f 267 222 225
f 198 270 267
f 270 198 227
f 223 268 224
f 270 223 222
f 227 223 270
f 267 270 222
f 222 224 225
f 197 230 268
f 231 225 226
f 227 197 223
f 225 268 226
f 223 197 268
f 226 230 231
f 228 233 271
f 288 334 77
f 288 77 233
f 166 234 288
f 231 230 312
f 272 273 274
f 286 151 274
f 166 232 234
f 233 210 234
f 233 228 288
f 229 271 275
f 275 232 229
f 229 228 271
f 271 233 276
f 232 275 276
f 232 228 229
f 271 276 275
f 232 276 234
f 276 233 234
f 228 166 288
f 256 279 280
f 212 249 250
f 214 237 239
f 244 246 212
f 213 246 244
f 213 239 282
f 212 247 249
f 305 183 32
f 183 211 236
f 238 250 252
f 282 245 213
f 183 284 452
f 237 214 253
f 238 252 215
f 247 212 246
f 252 452 253
f 247 251 243
f 237 284 239
f 250 452 252
f 183 247 284
f 254 246 244
f 284 243 282
f 253 215 252
f 215 214 238
f 251 247 254
f 452 237 253
f 239 284 282
f 216 183 236
f 282 243 245
f 217 241 236
f 251 254 244
f 241 240 236
f 243 244 245
f 184 236 240
f 219 184 240
f 247 246 254
f 452 250 249
f 247 183 249
f 246 245 244
f 452 249 363
f 217 236 188
f 259 263 260
f 146 262 265
f 262 221 263
f 147 458 73
f 264 144 143
f 264 261 269
f 263 221 144
f 146 264 269
f 146 260 264
f 145 221 258
f 366 361 255
f 260 263 144
f 264 143 261
f 269 221 262
f 146 265 259
f 285 266 258
f 285 310 269
f 266 143 145
f 261 266 285
f 285 221 310
f 77 334 255
f 151 279 256
f 280 286 287
f 197 292 230
f 335 256 294
f 289 294 295
f 294 280 290
f 279 286 280
f 151 256 335
f 292 291 230
f 280 287 290
f 279 151 286
f 280 294 256
f 287 286 273
f 290 273 272
f 290 287 273
f 274 189 272
f 290 272 294
f 273 286 274
f 274 151 189
f 231 312 203
f 230 291 312
f 429 278 81
f 151 208 189
f 277 234 210
f 296 702 297
f 188 236 211
f 452 211 183
f 305 299 303
f 300 281 301
f 302 303 304
f 187 306 326
f 299 257 303
f 308 257 307
f 299 305 32
f 303 257 308
f 634 32 73
f 34 469 73
f 34 73 411
f 519 269 310
f 429 269 519
f 313 311 293
f 291 314 312
f 291 292 315
f 197 504 292
f 291 315 314
f 313 292 311
f 314 316 293
f 312 314 311
f 311 292 312
f 292 313 315
f 314 293 311
f 292 504 312
f 315 313 316
f 313 293 316
f 315 316 314
f 334 288 234
f 317 277 210
f 304 307 298
f 319 320 321
f 307 257 298
f 257 32 298
f 302 298 32
f 302 304 298
f 514 305 302
f 305 303 302
f 299 32 257
f 303 308 304
f 308 307 304
f 321 186 34
f 321 320 186
f 329 325 411
f 329 321 325
f 319 329 332
f 329 411 332
f 255 361 363
f 221 571 310
f 366 255 334
f 335 294 368
f 335 368 427
f 368 337 343
f 336 295 343
f 289 295 338
f 338 339 341
f 340 339 338
f 338 341 337
f 368 340 337
f 340 338 337
f 337 341 343
f 289 340 368
f 338 340 289
f 294 289 368
f 393 343 294
f 336 340 295
f 340 338 295
f 294 343 295
f 336 341 339
f 336 339 340
f 341 336 343
f 294 189 380
f 347 430 348
f 349 350 342
f 384 351 352
f 283 353 354
f 514 302 32
f 1015 514 32
f 331 355 499
f 471 454 1015
f 325 321 34
f 411 309 332
f 319 321 329
f 320 319 332
f 325 34 411
f 186 320 309
f 309 320 332
f 186 309 411
f 359 343 360
f 411 73 415
f 469 73 458
f 364 409 365
f 333 361 366
f 335 427 458
f 375 369 370
f 369 371 345
f 375 359 369
f 380 189 379
f 393 294 380
f 427 368 343
f 373 378 372
f 432 346 384
f 429 430 376
f 429 373 372
f 378 352 351
f 374 429 372
f 346 429 374
f 362 381 382
f 378 373 352
f 351 374 372
f 374 351 346
f 378 351 372
f 377 373 376
f 346 351 384
f 352 377 347
f 352 373 377
f 432 429 346
f 347 377 376
f 373 429 376
f 352 347 384
f 381 428 330
f 379 189 362
f 381 362 428
f 278 429 432
f 330 380 379
f 330 428 380
f 386 387 388
f 382 381 330
f 382 379 362
f 379 382 330
f 512 277 389
f 278 563 317
f 395 475 498
f 445 397 398
f 357 322 281
f 326 281 446
f 187 399 306
f 355 400 401
f 328 355 401
f 358 357 300
f 399 358 300
f 404 331 499
f 396 357 358
f 406 407 421
f 356 324 454
f 422 408 409
f 32 283 471
f 469 34 186
f 437 392 410
f 411 469 186
f 412 413 414
f 384 347 348
f 362 385 393
f 416 359 360
f 417 409 408
f 363 364 422
f 348 430 410
f 419 420 421
f 421 468 406
f 409 417 365
f 406 367 423
f 363 409 364
f 364 408 422
f 364 417 408
f 422 409 361
f 409 363 361
f 424 367 420
f 468 361 333
f 424 418 367
f 423 425 406
f 367 418 423
f 333 366 367
f 421 407 419
f 424 425 418
f 693 361 468
f 407 425 424
f 468 333 406
f 418 425 423
f 333 367 406
f 407 406 425
f 420 367 366
f 421 420 366
f 468 421 366
f 407 424 419
f 424 420 419
f 344 360 393
f 369 345 370
f 426 384 348
f 371 344 345
f 359 416 369
f 371 360 344
f 371 416 360
f 427 343 375
f 376 430 347
f 375 344 427
f 430 437 410
f 312 504 203
f 343 393 360
f 369 416 371
f 350 431 342
f 375 370 344
f 344 393 427
f 431 426 348
f 350 426 431
f 349 426 350
f 370 345 344
f 375 343 359
f 380 428 393
f 392 437 342
f 348 392 342
f 349 384 426
f 432 342 437
f 349 432 384
f 431 348 342
f 432 349 342
f 434 433 435
f 392 431 410
f 431 392 348
f 362 435 385
f 385 433 387
f 385 386 393
f 431 348 410
f 429 519 430
f 432 430 519
f 277 334 234
f 362 189 435
f 189 208 383
f 435 189 383
f 434 435 383
f 435 433 385
f 386 385 387
f 387 433 434
f 434 388 387
f 438 388 434
f 438 434 383
f 428 362 393
f 386 438 383
f 386 388 438
f 393 386 383
f 437 430 432
f 436 208 203
f 436 383 208
f 563 278 432
f 317 394 439
f 317 563 394
f 390 440 391
f 391 563 390
f 306 300 301
f 300 306 399
f 328 187 446
f 452 185 499
f 357 281 300
f 353 283 403
f 401 400 441
f 442 185 396
f 443 331 442
f 306 301 326
f 441 396 327
f 400 443 441
f 328 401 327
f 185 452 322
f 400 331 443
f 401 441 327
f 327 358 328
f 187 326 446
f 328 499 355
f 322 452 281
f 327 396 358
f 443 442 441
f 442 396 441
f 185 322 396
f 331 404 442
f 404 185 442
f 358 187 328
f 396 322 357
f 499 185 404
f 301 281 326
f 187 358 399
f 331 400 355
f 446 281 318
f 471 1015 32
f 318 281 452
f 447 444 402
f 283 32 403
f 448 403 449
f 324 354 448
f 354 324 356
f 211 323 188
f 450 451 479
f 411 461 413
f 469 634 73
f 412 455 413
f 455 411 413
f 455 469 411
f 469 455 412
f 469 412 460
f 412 414 460
f 462 459 457
f 457 458 484
f 456 462 457
f 415 461 411
f 413 461 414
f 461 415 463
f 460 463 469
f 460 461 463
f 460 414 461
f 469 463 415
f 469 415 73
f 459 469 458
f 457 459 458
f 464 457 465
f 361 693 422
f 310 571 519
f 334 468 366
f 506 458 427
f 334 277 582
f 393 383 436
f 277 317 485
f 277 485 470
f 317 439 390
f 439 440 390
f 394 563 391
f 439 394 391
f 498 516 472
f 356 283 354
f 444 397 402
f 477 446 318
f 499 328 477
f 402 499 477
f 397 499 402
f 499 211 452
f 283 356 471
f 328 446 477
f 354 353 448
f 356 454 471
f 478 444 447
f 444 478 398
f 403 454 449
f 324 448 449
f 454 324 449
f 353 403 448
f 452 363 318
f 481 405 451
f 453 481 451
f 499 445 516
f 453 451 450
f 480 482 634
f 405 481 634
f 405 634 482
f 451 405 479
f 405 634 1015
f 1015 634 469
f 484 483 467
f 456 464 465
f 464 456 457
f 469 459 483
f 484 469 483
f 467 465 484
f 465 457 484
f 466 456 465
f 464 456 466
f 483 462 464
f 483 459 462
f 462 456 464
f 465 467 466
f 483 464 466
f 467 483 466
f 422 693 363
f 571 886 519
f 693 468 334
f 427 562 506
f 436 427 393
f 486 470 487
f 491 486 487
f 486 491 507
f 470 485 492
f 277 470 507
f 470 492 487
f 487 492 488
f 492 485 488
f 493 488 512
f 494 495 493
f 317 390 537
f 390 563 537
f 496 475 497
f 445 398 478
f 445 447 516
f 445 499 397
f 398 397 444
f 445 478 447
f 454 403 1015
f 447 402 516
f 516 402 477
f 1015 403 32
f 323 211 518
f 480 479 482
f 475 496 474
f 480 450 479
f 497 501 496
f 482 479 405
f 453 450 480
f 481 480 634
f 481 453 480
f 484 458 1015
f 469 484 1015
f 458 506 1015
f 693 334 582
f 505 495 494
f 562 427 436
f 495 507 493
f 389 493 512
f 277 512 531
f 505 491 495
f 505 507 491
f 491 507 495
f 491 487 488
f 389 505 494
f 486 507 470
f 493 507 488
f 489 510 490
f 508 389 494
f 507 491 488
f 508 494 493
f 277 507 505
f 389 277 505
f 317 512 488
f 488 485 317
f 490 510 513
f 512 317 537
f 708 518 211
f 498 474 211
f 501 497 395
f 474 501 502
f 501 474 496
f 475 474 498
f 502 501 395
f 473 502 472
f 502 395 472
f 472 395 498
f 473 211 474
f 516 473 472
f 497 475 395
f 498 499 516
f 211 499 498
f 473 474 502
f 1015 32 634
f 363 693 318
f 188 323 504
f 203 504 584
f 582 277 531
f 436 203 799
f 520 509 521
f 523 489 521
f 708 473 516
f 708 500 518
f 477 318 693
f 1015 634 405
f 504 323 724
f 529 557 530
f 489 522 526
f 522 534 526
f 432 519 563
f 532 512 533
f 525 535 524
f 564 563 519
f 513 526 511
f 535 525 536
f 525 533 536
f 534 522 523
f 512 534 523
f 532 533 524
f 490 513 511
f 203 584 799
f 512 532 520
f 509 535 536
f 521 509 536
f 535 509 524
f 533 521 536
f 510 489 526
f 512 521 533
f 523 522 489
f 524 533 525
f 521 512 523
f 531 512 520
f 520 532 524
f 521 489 490
f 565 511 537
f 534 512 537
f 534 537 511
f 521 490 511
f 565 521 511
f 510 526 513
f 526 534 511
f 211 473 708
f 539 591 540
f 708 516 477
f 500 517 545
f 517 527 515
f 515 527 500
f 500 527 517
f 708 515 500
f 542 710 543
f 518 500 545
f 545 517 544
f 518 546 323
f 547 548 323
f 550 551 552
f 550 594 553
f 519 886 643
f 558 529 530
f 599 558 530
f 529 558 556
f 524 509 520
f 515 541 544
f 541 515 708
f 517 515 544
f 518 572 546
f 518 545 572
f 544 541 545
f 541 708 572
f 545 541 572
f 574 575 551
f 323 546 547
f 549 547 573
f 591 595 528
f 547 546 573
f 548 547 549
f 551 554 552
f 575 549 573
f 574 552 548
f 323 548 552
f 574 549 575
f 574 548 549
f 323 552 553
f 551 573 554
f 573 546 554
f 575 573 551
f 553 594 724
f 550 554 594
f 574 551 550
f 552 550 553
f 574 550 552
f 550 552 554
f 724 323 553
f 576 577 633
f 599 530 557
f 599 555 558
f 558 555 556
f 562 556 506
f 561 506 555
f 529 556 557
f 556 555 506
f 561 557 562
f 561 599 557
f 559 560 578
f 579 559 580
f 582 581 693
f 579 581 559
f 578 580 559
f 581 560 559
f 581 582 560
f 560 582 695
f 619 564 519
f 520 521 565
f 564 565 537
f 537 563 564
f 540 591 528
f 538 607 567
f 590 540 528
f 183 628 567
f 528 607 538
f 567 591 539
f 592 590 589
f 591 567 595
f 708 477 693
f 554 546 594
f 596 597 598
f 1015 506 561
f 555 599 561
f 693 581 695
f 695 579 583
f 580 578 601
f 583 560 695
f 560 583 578
f 695 581 579
f 601 578 583
f 579 580 601
f 601 583 579
f 600 602 619
f 436 644 562
f 600 619 519
f 520 565 531
f 592 539 589
f 539 540 589
f 590 528 538
f 589 590 538
f 592 589 538
f 540 590 592
f 567 539 592
f 540 592 589
f 567 592 538
f 607 528 595
f 567 607 183
f 609 610 593
f 572 611 605
f 570 627 628
f 708 611 572
f 572 605 631
f 594 546 724
f 613 586 587
f 585 614 613
f 614 586 613
f 571 770 886
f 615 604 698
f 604 616 698
f 617 616 612
f 618 616 604
f 603 618 604
f 698 562 644
f 613 587 600
f 620 614 619
f 619 585 642
f 602 600 587
f 620 602 587
f 620 586 614
f 436 617 644
f 642 564 619
f 642 585 613
f 620 587 586
f 602 620 619
f 614 585 619
f 642 613 600
f 600 951 642
f 582 531 695
f 603 615 644
f 297 623 624
f 625 296 297
f 565 564 622
f 476 183 882
f 183 607 932
f 596 608 597
f 680 708 693
f 630 611 577
f 611 630 629
f 593 610 633
f 629 630 609
f 609 630 610
f 605 611 629
f 605 593 631
f 593 633 631
f 610 576 633
f 605 629 593
f 610 630 576
f 577 611 633
f 630 577 576
f 629 609 593
f 572 631 546
f 635 636 637
f 724 546 631
f 606 608 476
f 632 627 598
f 476 570 628
f 615 603 604
f 698 561 562
f 612 618 603
f 694 646 645
f 618 612 616
f 647 646 648
f 603 617 612
f 603 644 617
f 698 616 617
f 615 698 644
f 951 600 519
f 519 643 951
f 650 651 854
f 699 617 436
f 642 951 564
f 653 639 651
f 799 699 436
f 656 655 657
f 659 660 661
f 664 655 665
f 665 666 667
f 668 623 669
f 663 667 566
f 670 671 566
f 668 672 669
f 669 672 673
f 674 675 676
f 659 566 677
f 566 678 674
f 668 588 672
f 655 565 622
f 622 564 707
f 183 476 628
f 608 570 476
f 606 632 597
f 596 598 627
f 570 596 627
f 608 606 597
f 608 596 570
f 476 882 606
f 597 632 598
f 627 882 628
f 606 882 627
f 606 627 632
f 567 628 595
f 607 595 932
f 681 682 820
f 684 685 686
f 611 708 816
f 633 611 816
f 633 816 631
f 687 139 688
f 690 753 543
f 753 542 543
f 542 753 690
f 631 816 724
f 652 694 696
f 647 696 697
f 654 698 617
f 695 531 1016
f 664 665 663
f 648 645 652
f 654 617 696
f 699 652 696
f 694 697 696
f 697 646 647
f 648 646 694
f 696 617 699
f 645 646 697
f 694 645 697
f 645 694 652
f 647 654 696
f 648 694 645
f 648 652 654
f 648 654 647
f 621 700 653
f 650 531 621
f 1016 531 854
f 700 639 653
f 531 650 854
f 626 655 662
f 660 701 661
f 700 650 621
f 651 650 700
f 623 668 679
f 657 664 671
f 667 666 678
f 663 665 667
f 678 658 674
f 666 658 678
f 657 655 664
f 704 296 705
f 671 663 566
f 703 670 566
f 621 531 649
f 662 660 659
f 626 649 531
f 566 667 678
f 701 656 703
f 531 565 626
f 662 655 660
f 626 565 655
f 662 659 677
f 626 662 677
f 705 296 625
f 660 655 701
f 661 701 703
f 659 661 566
f 701 655 656
f 702 622 588
f 703 656 670
f 661 703 566
f 658 702 675
f 666 702 658
f 655 702 665
f 655 622 702
f 665 702 666
f 704 702 296
f 675 702 704
f 671 664 663
f 566 676 705
f 670 657 671
f 657 670 656
f 679 668 669
f 624 679 566
f 624 623 679
f 674 676 566
f 705 625 566
f 297 702 623
f 658 675 674
f 676 704 705
f 676 675 704
f 623 588 669
f 702 588 623
f 625 297 624
f 588 622 706
f 669 673 566
f 679 669 566
f 625 624 566
f 706 622 566
f 672 588 706
f 588 668 669
f 673 706 566
f 706 673 672
f 628 932 595
f 685 711 686
f 680 712 713
f 680 693 683
f 716 637 636
f 687 717 139
f 684 716 636
f 718 711 719
f 720 543 721
f 725 726 727
f 729 643 886
f 730 731 780
f 692 730 780
f 693 695 723
f 738 739 740
f 1015 561 698
f 504 899 584
f 741 742 903
f 699 654 652
f 654 699 698
f 749 744 745
f 700 621 639
f 639 621 854
f 854 621 649
f 651 639 854
f 626 677 566
f 649 626 566
f 747 750 748
f 566 622 707
f 569 691 728
f 759 755 715
f 716 686 637
f 183 709 756
f 138 719 688
f 758 183 514
f 514 819 758
f 686 718 637
f 1015 819 514
f 759 709 183
f 542 635 637
f 713 688 719
f 753 690 754
f 138 137 683
f 713 687 688
f 139 138 688
f 636 753 684
f 542 683 710
f 722 685 684
f 683 137 714
f 713 719 711
f 685 713 711
f 712 714 717
f 722 689 764
f 680 683 712
f 683 714 712
f 718 683 637
f 636 635 753
f 680 713 685
f 713 712 687
f 711 718 686
f 685 722 680
f 717 137 139
f 137 717 714
f 139 687 137
f 687 139 137
f 712 717 687
f 764 689 757
f 138 718 719
f 684 686 716
f 138 683 718
f 637 683 542
f 690 753 635
f 635 542 690
f 722 753 754
f 754 765 720
f 766 763 798
f 1030 1094 693
f 767 807 763
f 823 768 769
f 504 724 734
f 781 771 772
f 731 777 740
f 778 779 772
f 780 844 643
f 782 730 736
f 730 782 731
f 773 737 786
f 737 773 781
f 771 781 735
f 729 773 786
f 788 789 771
f 789 788 733
f 773 729 781
f 732 787 733
f 777 731 782
f 739 737 740
f 780 731 740
f 788 732 733
f 771 790 772
f 789 790 771
f 739 738 791
f 737 781 772
f 787 780 737
f 782 729 791
f 844 787 732
f 787 789 733
f 738 777 791
f 790 778 772
f 790 789 783
f 779 778 783
f 737 779 783
f 778 790 783
f 787 737 783
f 784 732 735
f 844 732 784
f 783 789 787
f 732 788 735
f 788 771 735
f 844 780 787
f 729 782 736
f 643 729 736
f 777 782 791
f 643 736 692
f 780 643 692
f 736 730 692
f 786 737 739
f 729 786 791
f 786 739 791
f 777 738 740
f 737 780 740
f 723 839 693
f 695 1016 723
f 899 746 584
f 747 899 1018
f 794 744 793
f 747 793 750
f 794 745 744
f 748 746 792
f 794 793 1018
f 792 747 748
f 743 745 794
f 746 749 745
f 744 749 793
f 899 792 746
f 750 793 749
f 899 747 792
f 746 745 743
f 747 1018 793
f 1018 743 794
f 743 584 746
f 748 749 746
f 748 750 749
f 584 743 1018
f 1015 698 699
f 796 797 929
f 799 1015 699
f 854 649 961
f 649 566 961
f 961 566 707
f 882 183 873
f 774 708 804
f 801 802 803
f 628 873 932
f 805 775 568
f 804 708 752
f 569 568 775
f 568 569 728
f 761 766 798
f 800 691 569
f 708 774 800
f 800 569 775
f 800 774 691
f 805 728 691
f 800 775 708
f 1025 708 680
f 708 1025 752
f 817 806 807
f 751 762 811
f 767 798 807
f 755 803 715
f 756 755 759
f 809 813 819
f 814 809 819
f 756 709 802
f 803 709 715
f 756 801 755
f 815 810 814
f 803 802 709
f 183 756 759
f 814 183 758
f 759 715 709
f 755 801 803
f 813 758 819
f 801 756 802
f 809 810 818
f 810 815 818
f 817 751 811
f 817 807 766
f 798 767 761
f 751 722 762
f 806 811 763
f 767 762 761
f 763 807 798
f 763 766 807
f 765 690 543
f 817 932 680
f 806 817 811
f 680 722 751
f 761 762 722
f 932 817 761
f 811 762 767
f 817 680 751
f 761 817 766
f 710 722 764
f 689 722 754
f 811 767 763
f 807 806 763
f 722 684 753
f 761 722 932
f 689 721 757
f 721 689 757
f 765 543 720
f 689 754 757
f 690 765 754
f 754 720 757
f 721 543 710
f 710 932 722
f 764 721 710
f 757 721 764
f 720 721 757
f 571 183 822
f 710 683 1094
f 1094 683 693
f 891 821 727
f 769 725 821
f 823 769 821
f 824 852 844
f 821 891 770
f 827 828 812
f 829 830 831
f 1030 693 776
f 826 776 833
f 826 833 834
f 839 776 693
f 781 729 890
f 890 729 886
f 833 835 838
f 840 824 844
f 836 839 1030
f 843 840 844
f 784 735 781
f 845 895 734
f 784 781 844
f 824 847 852
f 643 844 951
f 843 850 840
f 841 851 842
f 825 837 894
f 855 840 856
f 913 857 1013
f 799 584 1018
f 929 858 859
f 859 853 707
f 859 707 830
f 863 857 864
f 857 865 864
f 857 863 865
f 866 867 868
f 912 961 903
f 871 853 872
f 861 1015 799
f 882 873 628
f 760 873 183
f 816 805 774
f 816 775 805
f 568 728 805
f 805 691 774
f 876 877 1025
f 816 708 775
f 813 815 758
f 881 827 682
f 809 814 810
f 813 809 818
f 814 758 815
f 813 818 815
f 820 682 827
f 881 503 828
f 681 503 881
f 183 827 760
f 760 812 820
f 827 183 1015
f 814 819 1015
f 1094 183 932
f 823 821 770
f 571 822 823
f 891 768 822
f 823 822 768
f 816 936 724
f 571 823 770
f 821 725 727
f 726 725 769
f 768 726 769
f 884 885 641
f 726 768 727
f 768 891 727
f 776 835 833
f 826 836 1030
f 835 839 836
f 1030 776 826
f 835 776 839
f 833 838 834
f 826 834 836
f 893 889 842
f 781 890 894
f 734 724 893
f 845 785 851
f 845 734 785
f 841 842 889
f 785 893 842
f 851 841 832
f 851 785 842
f 832 895 845
f 845 851 832
f 785 851 832
f 785 832 851
f 895 832 841
f 893 785 734
f 895 841 889
f 781 894 844
f 504 734 895
f 843 844 894
f 856 852 847
f 856 825 852
f 843 894 837
f 839 723 993
f 504 895 896
f 825 951 852
f 840 855 824
f 855 849 824
f 850 837 856
f 840 850 856
f 837 825 856
f 849 855 847
f 855 856 847
f 844 852 951
f 504 896 899
f 888 887 900
f 901 742 902
f 742 872 902
f 951 1035 707
f 707 564 951
f 905 904 906
f 907 905 906
f 908 909 910
f 920 908 910
f 869 741 903
f 861 799 916
f 915 903 914
f 741 871 872
f 742 741 872
f 797 858 929
f 917 918 919
f 865 638 861
f 921 914 922
f 921 915 914
f 903 923 924
f 707 853 961
f 870 853 871
f 869 870 871
f 797 796 925
f 796 926 925
f 870 869 903
f 961 870 903
f 864 916 863
f 923 903 915
f 927 903 929
f 916 857 863
f 928 915 921
f 928 923 915
f 864 861 916
f 914 903 927
f 861 864 865
f 903 796 929
f 853 859 860
f 742 901 903
f 901 796 903
f 929 867 866
f 867 831 868
f 929 866 707
f 929 930 867
f 859 930 929
f 867 930 831
f 930 829 831
f 866 830 707
f 870 961 853
f 926 853 925
f 741 869 871
f 902 853 926
f 872 853 902
f 901 902 926
f 796 901 926
f 925 853 931
f 797 925 931
f 858 797 931
f 931 853 860
f 859 858 860
f 858 931 860
f 831 830 868
f 930 859 830
f 829 930 830
f 881 682 681
f 978 873 880
f 879 878 875
f 932 873 816
f 774 804 816
f 879 935 878
f 933 808 880
f 879 804 752
f 935 876 878
f 980 879 875
f 934 808 874
f 935 877 876
f 752 877 935
f 752 935 879
f 804 879 980
f 878 876 875
f 875 876 1025
f 877 752 1025
f 875 1025 980
f 873 933 880
f 1025 680 932
f 816 873 760
f 883 820 812
f 820 883 503
f 503 681 820
f 827 881 828
f 827 812 760
f 828 503 883
f 812 828 883
f 820 827 1015
f 814 1015 183
f 760 820 1015
f 183 1094 709
f 932 710 1094
f 891 822 1094
f 891 1094 770
f 936 939 940
f 940 885 884
f 936 940 987
f 940 884 640
f 886 944 890
f 1030 839 993
f 893 895 889
f 898 946 947
f 894 890 825
f 890 949 825
f 895 893 896
f 897 948 898
f 947 846 950
f 950 898 947
f 897 898 950
f 949 951 825
f 948 946 898
f 946 846 947
f 723 948 897
f 946 948 723
f 846 723 892
f 946 723 846
f 950 846 892
f 952 953 954
f 896 1065 899
f 961 912 911
f 906 904 956
f 1013 910 918
f 956 962 958
f 910 1013 920
f 909 919 918
f 963 964 965
f 966 967 968
f 910 909 918
f 969 970 971
f 972 973 974
f 854 961 1016
f 975 956 917
f 956 918 917
f 956 904 962
f 965 967 966
f 905 962 904
f 920 962 905
f 962 920 958
f 908 919 909
f 908 917 919
f 956 958 1013
f 906 956 975
f 956 1013 918
f 916 920 1013
f 912 903 924
f 916 1013 857
f 1015 861 913
f 929 707 1035
f 799 958 920
f 907 906 975
f 907 920 905
f 917 920 975
f 920 907 975
f 920 916 799
f 920 917 908
f 927 911 922
f 927 929 911
f 924 923 928
f 911 921 922
f 914 927 922
f 912 924 928
f 911 912 921
f 913 861 638
f 1035 961 911
f 912 928 921
f 638 865 976
f 913 638 976
f 863 976 865
f 976 863 857
f 913 976 857
f 1035 911 929
f 943 979 874
f 808 977 874
f 808 933 977
f 880 808 934
f 978 880 934
f 874 977 943
f 979 943 873
f 873 977 933
f 934 874 978
f 979 873 978
f 874 979 978
f 816 977 873
f 932 816 1025
f 816 760 1015
f 816 1015 937
f 1094 183 709
f 936 816 937
f 939 938 885
f 1029 981 982
f 938 936 937
f 940 939 885
f 885 983 641
f 641 640 884
f 983 885 938
f 936 938 939
f 640 942 987
f 940 640 987
f 983 942 640
f 641 983 640
f 983 938 942
f 986 984 985
f 936 987 724
f 770 1094 886
f 945 992 944
f 893 724 989
f 991 890 944
f 995 996 997
f 998 1002 999
f 893 989 848
f 997 993 1044
f 1040 1035 949
f 951 949 1035
f 848 896 893
f 993 723 897
f 1002 1000 996
f 1005 900 887
f 993 897 892
f 892 897 950
f 892 1016 1044
f 888 900 896
f 955 900 1003
f 723 1016 892
f 888 896 848
f 1003 888 1005
f 888 1003 887
f 888 848 1005
f 1005 887 1003
f 900 1005 1003
f 1005 955 1003
f 955 896 900
f 955 1005 1065
f 896 955 1065
f 848 1065 1005
f 964 960 959
f 1065 1018 899
f 1007 1008 1009
f 1019 959 960
f 964 963 1011
f 1013 952 954
f 954 1093 1013
f 953 952 1014
f 799 1018 1012
f 1018 1065 1012
f 964 1011 960
f 1011 958 1019
f 1011 963 958
f 964 1017 965
f 1012 959 1019
f 958 799 1012
f 1019 958 1012
f 1011 1019 960
f 1021 967 1017
f 953 1022 1017
f 1021 1017 1022
f 1013 968 1023
f 963 965 966
f 968 967 1021
f 959 1017 964
f 1017 967 965
f 1021 1023 968
f 1023 1021 1022
f 1014 1023 1022
f 1022 953 1014
f 1017 954 953
f 958 968 1013
f 968 958 966
f 1023 1014 1013
f 952 1013 1014
f 959 954 1017
f 913 1013 1093
f 1093 1015 913
f 1016 961 1035
f 963 966 958
f 816 873 943
f 816 943 977
f 1024 984 986
f 986 1026 1028
f 982 981 1026
f 1024 1029 982
f 1026 986 982
f 981 937 1026
f 937 941 1026
f 941 1029 986
f 984 986 1028
f 984 1028 985
f 1027 1024 982
f 937 1015 941
f 986 985 941
f 822 183 1094
f 1028 1026 985
f 982 986 1027
f 937 981 938
f 985 1026 941
f 1029 941 981
f 1024 1027 984
f 984 1027 986
f 1029 1024 986
f 938 981 941
f 942 938 987
f 938 941 987
f 724 987 989
f 994 945 990
f 945 988 992
f 945 886 1094
f 945 994 988
f 1094 991 945
f 990 991 1032
f 988 994 1033
f 1031 988 1032
f 988 1033 1032
f 1033 1031 1032
f 1033 994 990
f 988 1031 992
f 944 992 1032
f 1031 990 1032
f 1031 1033 990
f 944 886 945
f 992 1031 1032
f 990 945 991
f 1032 991 944
f 995 997 998
f 996 995 999
f 996 993 997
f 949 890 991
f 1030 993 1000
f 1044 1000 1002
f 1002 997 1044
f 997 1002 998
f 1000 993 996
f 1002 996 999
f 995 998 999
f 991 1035 957
f 1037 1038 1039
f 1038 1004 1039
f 1004 1037 1039
f 949 991 1001
f 1004 1038 957
f 1038 1001 957
f 1037 1004 1040
f 991 957 1001
f 949 1001 862
f 1001 1038 1037
f 862 1001 1037
f 1040 949 1036
f 1041 1042 1043
f 1045 1036 1039
f 1036 862 1039
f 1045 1040 1036
f 1040 1004 957
f 1037 1045 1039
f 862 1037 1039
f 1036 949 862
f 1049 1050 1059
f 957 1035 1040
f 993 892 1044
f 1008 1034 1052
f 1053 1007 1009
f 1054 1052 1057
f 1058 1055 1049
f 1060 1085 1068
f 1043 1042 1047
f 1042 1057 1047
f 1057 1044 1016
f 1058 1065 848
f 1043 1047 1048
f 1061 1043 1048
f 973 1067 974
f 1066 1012 1065
f 1066 972 1012
f 1065 1067 1066
f 972 1020 1012
f 1066 1067 973
f 974 1067 1064
f 1067 1065 1093
f 973 972 1066
f 1093 1064 1067
f 974 1020 972
f 974 1064 1020
f 1093 959 1010
f 1064 1093 1010
f 1010 959 1064
f 959 1020 1064
f 959 1012 1020
f 959 1093 954
f 980 816 804
f 980 1025 816
f 941 1015 987
f 1094 987 1015
f 989 987 1094
f 1030 1000 1094
f 1094 1000 1044
f 1046 1051 1007
f 1051 1046 1044
f 1069 1070 1078
f 1069 1071 1070
f 1072 1073 1074
f 1078 1076 1074
f 1053 1044 1046
f 1074 989 1078
f 1058 1056 1080
f 1071 1069 1072
f 1007 1051 1008
f 1034 1057 1052
f 1046 1007 1053
f 1053 1057 1075
f 1009 1054 1053
f 1052 1054 1009
f 1008 1052 1009
f 1006 1092 1050
f 1056 989 1074
f 970 969 1080
f 1054 1057 1053
f 1063 1062 970
f 1060 1068 1016
f 1076 1070 1071
f 1072 1076 1071
f 1080 1063 970
f 1006 971 1092
f 1063 1079 1062
f 1079 1063 1056
f 1070 1076 1078
f 1047 1068 1082
f 1048 1047 1082
f 1069 795 1073
f 1074 1076 1072
f 1086 1044 1053
f 1053 1075 1041
f 1075 1042 1041
f 1078 989 795
f 795 1069 1078
f 1073 795 1074
f 1056 1074 1079
f 1073 1072 1069
f 971 1074 1092
f 1086 1077 1083
f 1065 1058 1059
f 1086 1053 1077
f 1082 1068 1085
f 1044 1057 1034
f 1051 1044 1034
f 1051 1034 1008
f 1057 1068 1047
f 1061 1041 1043
f 1042 1075 1057
f 1058 848 989
f 1053 1041 1061
f 1048 1082 1085
f 1058 989 1056
f 1061 1048 1085
f 1057 1016 1068
f 1053 1061 1085
f 1056 1063 1080
f 1074 1062 1079
f 970 1062 971
f 1055 971 1006
f 971 1055 969
f 1062 1074 971
f 1092 1059 1050
f 1049 1055 1087
f 1058 1080 969
f 1085 1060 1053
f 1060 1016 1053
f 1055 1058 969
f 1006 1087 1055
f 1058 1049 1059
f 1083 1089 1090
f 1089 1081 1090
f 1049 1087 1050
f 1087 1006 1050
f 1091 1077 1053
f 1077 1091 1081
f 1086 1084 1088
f 1074 795 1092
f 1091 1089 1090
f 1077 1081 1089
f 1083 1077 1089
f 1081 1091 1090
f 1091 1053 1088
f 1089 1091 1088
f 1090 1084 1086
f 1083 1090 1086
f 1090 1089 1084
f 1089 1088 1084
f 1053 1016 1088
f 795 989 1093
f 1092 795 1093
f 1065 1059 1092
f 1065 1092 1093
f 1035 1088 1016
f 991 1094 1035
f 1086 1035 1094
f 1094 1044 1086
f 1086 1088 1035
f 1093 1094 1015
f 989 1094 1093
f 70 60 62
f 417 364 365
f 440 439 391
f 389 508 493
f 621 653 700
f 653 651 700
f 779 737 772
f 834 835 836
f 847 824 849
f 838 835 834
f 850 843 837
f 868 830 866
f 1045 1037 1040

