o convex_0
v 0.007389 -0.032497 -0.051778
v 0.046101 0.009112 0.079807
v 0.044164 0.030405 0.078826
v -0.043890 -0.009261 0.079807
v -0.045827 0.031370 -0.078876
v 0.043191 0.028463 -0.080822
v 0.045128 -0.031526 0.078826
v -0.043890 -0.030561 -0.077911
v -0.042927 0.031370 0.080788
v 0.044164 -0.030555 -0.078861
v -0.041954 -0.031526 0.078826
v 0.015128 0.032341 -0.043077
v -0.045827 -0.027654 -0.079841
v -0.046800 0.017820 -0.047902
v -0.038089 0.032341 0.079807
v 0.042227 0.030399 -0.079841
v 0.043191 -0.031519 -0.079841
v -0.016800 -0.020882 0.080788
v -0.023575 -0.032497 0.061409
v 0.019001 0.032341 0.065285
v 0.045128 0.013948 -0.038221
v 0.046101 -0.028619 0.062390
v 0.031578 -0.032497 0.057533
v -0.046800 -0.020876 -0.076931
v -0.021638 0.002334 -0.080822
v -0.044863 0.029428 0.042062
v 0.042227 -0.030555 -0.080822
v -0.020665 0.032341 -0.059529
v -0.022602 -0.032497 -0.016944
v 0.045128 0.029434 0.043992
v 0.022875 0.003299 0.080788
v -0.045827 0.029428 -0.079841
v 0.045128 -0.030555 0.079807
v -0.042927 -0.029590 0.077877
v -0.046800 0.029428 -0.078876
v 0.044164 0.022656 -0.078861
v 0.045128 -0.014104 -0.047902
v 0.036416 0.031363 0.076896
v 0.046101 -0.000560 0.033346
v 0.023839 0.031370 -0.078876
v 0.027704 -0.032497 -0.047918
v 0.021902 0.032341 -0.004368
v 0.039326 0.025556 0.079807
v -0.041954 -0.030555 0.079807
v -0.044863 0.008141 0.048833
v -0.043890 0.031370 0.071090
v 0.019965 -0.032497 0.069145
v -0.035188 -0.031526 -0.055654
v 0.008353 -0.029590 -0.080822
v -0.032278 0.032341 -0.030485
v -0.046800 -0.002490 -0.053724
v 0.046101 -0.030555 0.078826
v 0.046101 0.012977 0.062390
v -0.040026 -0.009261 0.080788
v 0.045128 0.029434 0.077877
v 0.015128 -0.031526 -0.078876
v 0.025776 0.029428 -0.080822
v -0.045827 -0.028619 -0.076931
v 0.045128 0.004276 -0.050797
v -0.043890 0.020720 0.079807
v 0.044164 0.028463 -0.054673
v -0.040990 -0.031526 0.014979
v -0.004215 0.032341 -0.062424
v -0.006152 0.023621 0.080788
f 31 43 64 
f 9 3 15 
f 6 10 17 
f 12 15 20 
f 17 7 23 
f 19 1 23 
f 6 17 27 
f 25 6 27 
f 15 12 28 
f 1 19 29 
f 19 11 29 
f 16 3 30 
f 9 18 31 
f 25 13 32 
f 11 7 33 
f 2 31 33 
f 31 18 33 
f 4 24 34 
f 13 24 35 
f 24 14 35 
f 14 26 35 
f 5 32 35 
f 32 13 35 
f 10 6 36 
f 22 10 37 
f 15 3 38 
f 3 16 38 
f 20 15 38 
f 2 22 39 
f 22 37 39 
f 12 16 40 
f 1 17 41 
f 23 1 41 
f 17 23 41 
f 16 12 42 
f 12 20 42 
f 38 16 42 
f 20 38 42 
f 2 3 43 
f 3 9 43 
f 31 2 43 
f 11 33 44 
f 33 18 44 
f 4 34 44 
f 34 11 44 
f 26 14 45 
f 9 15 46 
f 15 5 46 
f 5 35 46 
f 35 26 46 
f 7 11 47 
f 11 19 47 
f 23 7 47 
f 19 23 47 
f 8 1 48 
f 1 29 48 
f 8 13 49 
f 13 25 49 
f 27 17 49 
f 25 27 49 
f 5 15 50 
f 28 5 50 
f 15 28 50 
f 24 4 51 
f 14 24 51 
f 4 45 51 
f 45 14 51 
f 7 17 52 
f 17 10 52 
f 10 22 52 
f 22 2 52 
f 33 7 52 
f 2 33 52 
f 21 30 53 
f 2 39 53 
f 39 21 53 
f 9 4 54 
f 18 9 54 
f 4 44 54 
f 44 18 54 
f 3 2 55 
f 30 3 55 
f 2 53 55 
f 53 30 55 
f 1 8 56 
f 17 1 56 
f 8 49 56 
f 49 17 56 
f 16 6 57 
f 6 25 57 
f 32 5 57 
f 25 32 57 
f 5 40 57 
f 40 16 57 
f 8 11 58 
f 13 8 58 
f 24 13 58 
f 11 34 58 
f 34 24 58 
f 10 36 59 
f 36 21 59 
f 37 10 59 
f 21 39 59 
f 39 37 59 
f 4 9 60 
f 45 4 60 
f 26 45 60 
f 46 26 60 
f 9 46 60 
f 6 16 61 
f 16 30 61 
f 30 21 61 
f 36 6 61 
f 21 36 61 
f 11 8 62 
f 29 11 62 
f 8 48 62 
f 48 29 62 
f 5 28 63 
f 28 12 63 
f 40 5 63 
f 12 40 63 
f 9 31 64 
f 43 9 64 
