# https://github.com/mikedh/trimesh
v -0.86801010 -0.03802900 0.03244437
v -0.86808443 -0.04204789 0.02848655
v -0.86803442 -0.03814789 0.03239655
v -0.86802441 -0.03814789 0.03236655
v -0.86802441 -0.04188789 0.02848655
v -0.86813444 -0.04595789 0.02457655
v -0.86798859 -0.04193179 0.02832491
v -0.86804348 -0.04785496 0.02234721
v -0.87175238 -0.04760936 0.06258781
v -0.82956928 0.05371641 0.02003234
v -0.62193441 0.39543211 -0.06135345
v -0.62193441 0.39153209 -0.06519345
v -0.65152037 0.08032388 0.24582814
v -0.46959439 -0.06548789 0.18864655
v -0.81986427 0.15197295 -0.14286368
v -0.70285928 0.37528166 0.12767224
v -0.62185442 0.39153209 -0.06525345
v -0.61802441 0.39544210 -0.06437346
v -0.40383106 0.10187737 0.27343675
v -0.56645042 0.88641679 -0.04904522
v -0.62195235 0.39152852 -0.06518284
v -0.68999869 0.32939306 -0.07369666
v -0.76352054 -0.22607364 -0.01910674
v -0.62199855 0.39553666 -0.06121365
v -0.62192440 0.39544210 -0.06135345
v -0.57650024 0.36773095 -0.10635240
v -0.62193441 0.38762209 -0.06903345
v -0.64512485 0.42991269 -0.01708239
v -0.46343181 -0.11101864 0.13246922
v -0.38495511 0.54752213 -0.19286849
v -0.57191384 0.58018899 -0.03553547
v -0.52500659 -0.08049621 0.40689623
v -0.18054512 -0.05768803 0.35659286
v -0.18052439 -0.05767789 0.35660654
v 0.62415558 -0.46001789 0.16906653
v 0.62415558 -0.46392789 0.16535655
v 0.62417561 -0.46001789 0.16910654
v -0.46182954 -0.09284988 0.19480416
v -0.54074425 0.71348095 -0.07097024
v -0.46986920 -0.06449391 0.18793395
v -0.46962440 -0.06548789 0.19254655
v -0.33668438 -0.04595789 0.14176653
v -0.33291438 -0.04595789 0.14567654
v -0.46189243 -0.09400708 0.21088131
v -0.44592121 0.59456092 0.19641332
v -0.44225565 0.59466207 0.20035668
v -0.50979298 -0.75271273 -0.34790996
v -0.43080664 -0.12950794 -0.40427095
v -0.46959439 -0.06561789 0.19254655
v -0.46959439 -0.06549789 0.18864655
v -0.46959439 -0.06573789 0.19645654
v -0.46959293 -0.06548270 0.18846107
v -0.48521224 -0.00280846 0.19937031
v -0.47862905 -0.03473203 0.22451361
v -0.32104754 -0.03095087 0.19176579
v -0.36448851 -0.82758778 -0.24407284
v -0.46664867 0.59536976 0.17093545
v -0.43882439 0.59466213 0.20426653
v -0.44224438 0.59466213 0.20035654
v -0.22304378 -0.40481609 -0.14614646
v -0.38951701 -0.82568693 -0.26550561
v -0.40608358 -0.72829759 -0.50102341
v -0.46957693 -0.06538336 0.18305099
v -0.36609861 -0.41792431 -0.58216971
v -0.37521023 0.26207620 -0.33874053
v -0.41247287 0.19585125 -0.39597696
v -0.40560344 0.27065802 -0.30175012
v -0.44568440 0.59466213 0.19645654
v -0.44224438 0.59636211 0.19645654
v -0.52298206 0.71028411 -0.30213687
v -0.39146438 -0.83111787 -0.27147344
v -0.33896372 0.52411723 -0.55343848
v -0.38755438 -0.82720786 -0.26462343
v -0.38365439 -0.83111787 -0.26542345
v -0.38739440 -0.82720786 -0.26447344
v -0.37193435 0.25872338 -0.34263322
v -0.38755438 -0.83110785 -0.26838344
v -0.38755438 -0.83111787 -0.26838344
v -0.38754439 -0.83111787 -0.26838344
v -0.34825853 -0.56267095 -0.55003166
v -0.37111965 -0.57048339 -0.53668064
v -0.40318239 -0.03227842 0.10474272
v -0.38365439 -0.83267784 -0.26838344
v -0.34930363 -0.56148791 -0.54990017
v -0.33286059 -0.04595703 0.14573225
v -0.40275440 0.55559212 -0.20978346
v -0.40283006 0.55553669 -0.20979938
v -0.45104671 0.55043977 -0.23347726
v -0.39927438 0.55559212 -0.20787346
v -0.39909440 0.55950212 -0.20978346
v -0.43383902 0.59189939 0.21630777
v -0.31570345 -0.03846858 0.18157694
v -0.35238799 -0.55756879 -0.54963422
v -0.35294679 -0.55532467 -0.55005574
v -0.34582311 -0.04486190 0.13496524
v -0.34068438 -0.04585789 0.13785654
v -0.34045440 -0.04595789 0.13785654
v -0.33677438 -0.04591789 0.14176653
v -0.37606558 0.25874439 -0.34246260
v -0.37584439 0.25872210 -0.34235343
v -0.37191340 0.25876611 -0.34257632
v -0.37193438 0.25878209 -0.34260345
v -0.39888439 0.56731212 -0.21369345
v -0.37379137 0.25379160 -0.34537303
v -0.39544439 0.56341213 -0.20978346
v -0.39540237 0.56341577 -0.20976207
v -0.31032717 0.62554854 -0.17699052
v -0.39927438 0.55931211 -0.20978346
v -0.39927438 0.55950212 -0.20988347
v -0.39714575 0.62539989 0.18123028
v -0.32131237 0.62653112 -0.09600884
v -0.37002262 -0.85810751 -0.33547914
v -0.35232884 -0.55917490 -0.54916173
v -0.35231438 -0.55767787 -0.54963344
v -0.43544763 -0.34841263 -0.47641274
v -0.33681321 -0.04595708 0.14163838
v -0.33683315 -0.04583944 0.14189485
v -0.30934417 -0.05768510 0.14175925
v -0.30935439 -0.05767789 0.14176653
v -0.32788885 -0.05531959 0.12824182
v -0.34459439 0.65716213 -0.11211346
v -0.34459439 0.65325212 -0.11211346
v -0.34466439 0.65325212 -0.11213345
v -0.34467438 0.65716213 -0.11213345
v -0.34464440 0.64544213 -0.11213345
v -0.34459439 0.64934212 -0.11211346
v -0.34461316 0.64520365 -0.11212739
v -0.34465438 0.64934212 -0.11213345
v -0.35023302 0.66496891 -0.11312952
v -0.34546787 0.66862518 -0.11214299
v -0.34459439 0.66106212 -0.11211346
v -0.34184828 0.67886472 -0.10955111
v -0.26680681 0.69486016 -0.38258755
v -0.33284509 -0.04597842 0.14570537
v -0.26646438 -0.29986790 -0.59947342
v -0.21674611 -0.92367339 -0.45654476
v -0.30853581 -0.56831580 -0.56733543
v -0.23785493 -0.38337120 -0.14026123
v -0.27035427 -0.30001950 -0.59651816
v -0.31711176 -0.08502522 0.06754314
v -0.31724438 -0.08501789 0.06754654
v -0.30558440 -0.05767789 0.14567654
v -0.30541876 -0.05730782 0.14672758
v -0.31346440 -0.08501789 0.07145654
v -0.31334439 -0.08507789 0.07145654
v -0.33479327 -0.04691062 0.14142989
v -0.32151869 -0.08493063 0.06332762
v -0.14017767 -0.09182864 0.26225460
v -0.32504043 -0.06569791 0.10610967
v -0.31724438 -0.08339789 0.07145654
v -0.30552438 -0.05769789 0.14567654
v -0.25084439 0.65715212 -0.42463344
v -0.25084439 0.65716213 -0.42462346
v -0.24693438 0.65714210 -0.42463344
v -0.30501845 0.63682467 0.23861063
v -0.23303221 -0.73870474 -0.14957149
v -0.22349440 -0.40923789 -0.15103346
v -0.27037439 -0.29986790 -0.59647346
v -0.27430579 -0.29624274 -0.59258038
v -0.27419439 -0.29595789 -0.59260345
v -0.21608984 -0.44592205 -0.16237260
v -0.12421649 -0.30794948 -0.62423623
v -0.21959440 -0.40533790 -0.14348345
v -0.30943298 -0.05764729 0.14176936
v -0.24980453 -0.41258168 -0.17788744
v -0.27436134 -0.29503533 -0.59223986
v -0.31217059 -0.08496150 0.07292986
v -0.34073707 -0.04598514 0.13750871
v -0.31312439 -0.05767789 0.13785654
v -0.29054227 -0.06629765 0.14041469
v -0.32498592 0.61426240 0.27073464
v -0.30145252 0.63372225 0.24724980
v -0.30162686 0.62981713 0.25505272
v -0.30162418 0.62981707 0.25505471
v -0.29247940 0.63682216 0.24662434
v -0.30160737 0.62983185 0.25504479
v -0.34784886 0.63406253 0.21682480
v -0.30206460 0.63364792 0.24702948
v -0.30162439 0.63367212 0.24723653
v -0.30552438 0.62861210 0.25504655
v -0.25474438 0.65715212 -0.42463344
v -0.25805011 0.66054404 -0.42086110
v -0.22368635 -0.40918675 -0.15115474
v -0.27113819 -0.31949338 -0.60082006
v -0.27032384 -0.29985821 -0.59650189
v -0.16099440 -0.47954789 -0.14848346
v -0.14366934 -0.44600183 -0.13294202
v -0.21959440 -0.41308790 -0.15119345
v -0.22349440 -0.41314790 -0.15491346
v -0.46424654 -0.04970465 -0.15575245
v -0.30741885 -0.08700600 0.07297522
v -0.32762879 -0.09579575 0.03277562
v -0.29038426 -0.30841106 -0.58304399
v -0.21959440 -0.40923789 -0.14736345
v -0.21959440 -0.40915790 -0.14728346
v -0.21166027 0.41532451 -0.56694269
v -0.26667780 0.65611780 -0.42578948
v -0.26255438 0.65716213 -0.42463344
v -0.25865439 0.65715212 -0.42463344
v -0.25865439 0.65716213 -0.42463344
v -0.25474438 0.65716213 -0.42462346
v -0.27907383 0.63878638 0.25094956
v -0.25902438 0.65716213 -0.42463344
v -0.24693438 0.65716213 -0.42461345
v -0.24302439 0.65716213 -0.42461345
v -0.24302439 0.65714210 -0.42463344
v -0.23912439 0.65714210 -0.42463344
v -0.23912439 0.65716213 -0.42461345
v -0.23521440 0.65713215 -0.42463344
v -0.21959440 0.65712214 -0.42463344
v -0.21568438 0.65712214 -0.42463344
v -0.22740439 0.65713215 -0.42463344
v -0.23130441 0.65713215 -0.42463344
v -0.21959440 -0.42095789 -0.15901347
v -0.21613438 -0.42486790 -0.15900347
v -0.22349440 -0.42095789 -0.16267344
v -0.22349440 -0.41704789 -0.15879346
v -0.21959440 -0.42094791 -0.15900347
v -0.21953440 -0.41314790 -0.15119345
v -0.21950439 -0.40923789 -0.14728346
v -0.21536440 -0.41314790 -0.14728346
v -0.21959440 -0.41701791 -0.15510345
v -0.01255440 -0.45609790 -0.10822345
v -0.21568438 -0.42095789 -0.15535346
v -0.21794981 -0.40071642 -0.12511268
v -0.17271440 0.51167214 0.68864655
v -0.21170209 0.62200671 -0.46365532
v -0.18834440 0.62200212 -0.46363345
v -0.18443438 0.62200212 -0.46363345
v -0.23130441 0.65716213 -0.42460343
v -0.22740439 0.65716213 -0.42459345
v -0.23521440 0.66106212 -0.42026344
v -0.22349440 0.65712214 -0.42463344
v -0.23521440 0.65716213 -0.42460343
v -0.22349440 0.65716213 -0.42459345
v -0.20787439 0.66074210 -0.42072344
v -0.21610378 0.65729177 -0.42444837
v -0.21177439 0.65712214 -0.42463344
v -0.21568438 0.65716213 -0.42458344
v -0.24134497 0.80074155 -0.26125926
v -0.19510935 0.60768533 -0.47793481
v -0.21958441 -0.42095789 -0.15900347
v -0.18814100 -0.43471038 -0.14303204
v -0.15956648 -0.07401140 0.39181703
v -0.21959440 -0.41314790 -0.15124346
v -0.21955439 -0.41704789 -0.15510345
v -0.21959440 -0.41704789 -0.15513346
v -0.25067228 -0.10056183 0.10350587
v -0.16881531 0.51263094 0.69255084
v -0.38123181 0.22477387 0.52232599
v -0.18829440 -0.09673789 0.17301653
v -0.18444438 -0.09673789 0.17692654
v -0.18443438 -0.09506789 0.18082654
v -0.16880441 0.51262212 0.69251657
v -0.16880441 0.51263213 0.69254655
v -0.16490439 0.51262212 0.69255656
v -0.16490439 0.50986212 0.69645655
v -0.16488098 0.51262617 0.69254529
v -0.21709289 0.62265104 -0.46298513
v -0.18834440 0.62195212 -0.46369344
v -0.19224440 0.62200212 -0.46364343
v -0.19224440 0.62195212 -0.46369344
v -0.19615439 0.62196213 -0.46369344
v -0.20034949 0.62197661 -0.46367896
v -0.20787439 0.65716213 -0.42462346
v -0.16718793 0.41105041 -0.56916690
v -0.16693757 0.41106063 -0.56918085
v -0.19615439 0.62200212 -0.46364343
v -0.20005441 0.62200212 -0.46365345
v -0.17662439 0.62194210 -0.46369344
v -0.10246428 -0.27251559 -0.60432804
v -0.20787635 0.65711111 -0.42464748
v -0.18052439 0.62200212 -0.46363345
v -0.21177439 0.65716213 -0.42459345
v -0.15241022 -0.48425943 -0.14733995
v -0.15318438 -0.48345789 -0.14731345
v -0.15705439 -0.47954789 -0.14728346
v -0.17369586 -0.55391258 -0.17473955
v -0.18443438 -0.09674789 0.17692654
v -0.18443438 -0.09673789 0.17693654
v -0.14537439 -0.19829789 -0.04074345
v -0.18057927 -0.09673754 0.18085237
v -0.18052439 -0.09676789 0.18082654
v -0.17662439 -0.09679789 0.18473653
v -0.20069306 -0.07690445 0.20746388
v -0.15711115 -0.47946358 -0.14727035
v -0.15318438 -0.47954789 -0.14611346
v -0.16670498 -0.10050944 0.18667026
v -0.15709440 -0.19439790 -0.04555345
v -0.17271440 -0.05767789 0.35650656
v -0.17662439 -0.05770789 0.35660654
v -0.17662439 -0.05767789 0.35655656
v -0.18237229 0.43327287 -0.56863904
v -0.16879512 0.41889238 -0.56915528
v -0.18443438 0.62195212 -0.46369344
v -0.17387156 0.50304925 0.70563847
v -0.16880031 0.40716153 -0.56826442
v -0.16879740 0.41930291 -0.56916571
v -0.16874439 0.41887209 -0.56916344
v -0.18052439 0.62194210 -0.46369344
v -0.16490439 0.51263213 0.69254655
v -0.15533519 0.51235074 0.69083124
v -0.18220402 0.65698546 -0.42502001
v -0.25619271 -0.27486613 -0.59911925
v -0.14927439 -0.20611788 -0.04817346
v -0.15318438 -0.48338789 -0.14728346
v -0.14927439 -0.20220788 -0.04567345
v -0.14916390 -0.20237136 -0.04570668
v -0.15318438 -0.19829789 -0.04561345
v -0.14935438 -0.20220788 -0.04572345
v -0.15709440 -0.47954789 -0.14729346
v -0.15324551 -0.19839288 -0.04570884
v -0.21637021 -0.19578141 -0.08765878
v -0.14674760 -0.04356704 0.32646847
v -0.10630684 -0.26848200 -0.60437578
v -0.10608440 -0.26861790 -0.60431343
v -0.09183347 -0.74320126 -0.26445708
v -0.29071966 0.43471679 0.64442086
v -0.02947588 -0.44452223 -0.10008874
v -0.10630440 -0.26470789 -0.60227346
v -0.09831387 -0.27668452 -0.60416621
v -0.10240439 -0.27251789 -0.60429347
v -0.09849440 -0.26861790 -0.59978342
v -0.12497222 -0.19208932 -0.00291584
v -0.10889776 -0.25276408 -0.59684825
v -0.06896845 0.50853050 -0.55892801
v -0.16408788 -0.34955540 -0.06595854
v -0.02037440 -0.45611790 -0.10821346
v -0.01765440 -0.45611790 -0.10822345
v 0.10944683 -0.15956958 0.01338165
v -0.02840827 -0.45615068 -0.10822590
v -0.02818440 -0.45611790 -0.10819345
v -0.02427440 -0.45611790 -0.10820346
v -0.02427440 -0.45613790 -0.10822345
v -0.06672481 -0.46915418 -0.11622787
v -0.01646440 -0.45610791 -0.10822345
v -0.01646440 -0.45611790 -0.10822345
v -0.01255440 -0.45611790 -0.10823345
v -0.02449499 0.02276593 0.26681465
v -0.02564900 -0.22061558 -0.56953287
v -0.14300318 0.37673050 -0.56681317
v 0.01843249 0.35665354 -0.55752552
v -0.00699006 0.49763253 0.64272445
v 0.03040560 0.34075212 -0.55504346
v -0.13368794 0.70184833 0.17927450
v -0.00865440 -0.45608789 -0.10822345
v -0.00474440 -0.45611790 -0.10825345
v -0.00084440 -0.45605791 -0.10822345
v -0.00474440 -0.45606789 -0.10822345
v -0.02951333 -0.47091198 -0.11755425
v -0.00865440 -0.45611790 -0.10824345
v 0.05722554 -0.62487251 -0.54281026
v 0.07748057 0.31216744 -0.54052895
v 0.02258560 0.34075212 -0.55748343
v 0.67955893 -0.56421262 0.11824377
v 0.13196561 -0.13189790 -0.44393346
v 0.12795858 -0.12804621 -0.44418997
v 0.13270886 -0.12811527 -0.43959162
v 0.12805562 -0.12798791 -0.44404346
v 0.12415560 -0.12408789 -0.44413343
v 0.07330239 0.30537000 -0.54187471
v 0.07336561 0.30950212 -0.54184347
v 0.07337561 0.30559209 -0.54181343
v -0.00738040 -0.42213908 -0.09031575
v 0.02199817 0.56941479 0.41665962
v 0.02280560 0.33684209 -0.55744344
v 0.02270560 0.34075212 -0.55744344
v 0.02258560 0.34466210 -0.55745345
v 0.02261560 0.34466210 -0.55744344
v 0.02262212 0.33588561 -0.55750668
v 0.07346560 0.30950212 -0.54181343
v 0.03165925 0.31423804 -0.55484468
v 0.07336561 0.31341210 -0.54182345
v 0.10852560 0.46966210 0.42699656
v 0.10461474 0.47344393 0.42697144
v 0.10461561 0.47356209 0.42691657
v 0.10852560 0.43475211 0.43864655
v 0.10462561 0.43841210 0.43864655
v 0.10852560 0.43450212 0.43872654
v 0.10460991 0.43841210 0.43864658
v 0.10852560 0.43841210 0.43742657
v 0.07283473 0.31404647 -0.54198587
v 0.07329576 0.32519409 -0.54175526
v -0.14791043 0.81671655 -0.13589077
v -0.12907119 -0.22109826 -0.05056639
v -0.05771633 0.12285627 -0.49731109
v 0.07336581 0.31355566 -0.54181767
v 0.11050665 0.46786505 0.42698726
v 0.14926882 -0.60001570 -0.19687533
v 0.14372993 -0.11626180 0.09483891
v 0.14365561 -0.11626789 0.09489655
v 0.13197184 -0.13680525 -0.44830120
v 0.13985693 -0.11630468 0.09877440
v 0.13981728 -0.11626525 0.09889763
v 0.05111240 0.42844862 0.45347121
v 0.26086560 -0.00521789 0.21598653
v 0.10461561 0.48137209 0.42430654
v 0.09506124 0.32966623 -0.53491074
v 0.10852560 0.47356209 0.42569655
v 0.10852560 0.46989211 0.42692655
v 0.12415560 -0.12411789 -0.44416344
v 0.12397230 -0.12410664 -0.44427782
v 0.12933445 -0.10527241 0.13089432
v 0.31146413 -0.03420751 0.09882195
v 0.12792560 -0.12798791 -0.44416344
v 0.13616560 -0.11626789 0.10270654
v 0.13990562 -0.11626789 0.09879654
v 0.11295554 -0.12009713 -0.45075497
v 0.20661122 -0.31256336 -0.39917314
v 0.12379481 -0.12016658 -0.44313690
v 0.14368559 -0.11803789 0.09098655
v 0.22183610 0.05950844 0.29810399
v 0.11136230 0.43187743 0.43871957
v 0.10483520 0.46153748 0.43084130
v 0.18900187 0.33172363 0.44882971
v 0.62984556 -0.46783790 0.17301653
v 0.26072288 -0.00301261 0.22009569
v 0.23471138 -0.54098582 -0.28035387
v 0.32333562 0.04387211 0.02067655
v 0.32336560 0.04394211 0.01676655
v 0.32336560 0.04396211 0.02067655
v 0.17601965 -0.09786215 0.09838041
v 0.06213913 0.09767190 0.39769188
v 0.26096562 0.19231212 -0.42463344
v 0.26086560 0.19227211 -0.42463344
v 0.26086560 0.19231212 -0.42467344
v 0.20953782 0.06526794 0.31710783
v 0.62236559 -0.46001789 0.16520654
v 0.62415558 -0.45997787 0.16910654
v 0.19702412 0.53330189 0.37808731
v 0.39937794 0.96084720 0.01369256
v 0.23743559 -0.56939787 -0.30337346
v 0.23355407 -0.57355118 -0.29980078
v 0.23355561 -0.57329786 -0.29963344
v 0.23443270 -0.46664926 -0.24111067
v 0.31249514 -0.03425109 0.09696816
v 0.32332560 0.04387211 0.02848655
v 0.32331562 0.04387211 0.03239655
v 0.32336560 0.04400211 0.02848655
v 0.68024558 -0.56548786 0.11832654
v 0.33508083 0.07507675 0.02038014
v 0.32334560 0.04387211 0.01676655
v 0.25575730 0.14776488 -0.35864767
v 0.22180562 0.06731211 0.30859655
v 0.22832561 0.06731211 0.30192655
v 0.22580560 0.07122211 0.30973655
v 0.22571561 0.05950211 0.29412654
v 0.22573486 0.05950927 0.29410368
v 0.22571561 0.05949211 0.29410654
v 0.22191560 0.05950211 0.29801655
v 0.23675711 0.06811806 0.31692836
v 0.22196978 0.05940980 0.29783496
v 0.22965315 0.07124614 0.30582199
v 0.22571561 0.05657211 0.29020655
v 0.13765045 -0.05679321 -0.41578096
v 0.23970968 -0.57190078 -0.31024519
v 0.24521515 0.86417532 -0.08474314
v 0.25305560 0.87096214 -0.08869346
v 0.24915560 0.86809212 -0.08484345
v 0.25305560 0.86809212 -0.08174345
v 0.23213743 -0.57348180 -0.29720998
v 0.23743559 -0.57329786 -0.30712345
v 0.23363560 -0.57720786 -0.30353343
v 0.23367788 -0.57733089 -0.30372873
v 0.23352560 -0.57720786 -0.30331343
v 0.22969569 -0.58113152 -0.29966486
v 0.23549560 -0.56939787 -0.29963344
v 0.25386953 -0.58853418 -0.35426798
v 0.20016137 -0.19352271 -0.04520212
v 0.29948601 0.12135345 0.30153760
v 0.22961561 0.07122211 0.30583656
v 0.23352560 0.07512211 0.30707654
v 0.26961207 0.00356387 0.22212081
v 0.26477560 -0.00285789 0.21598653
v 0.31967443 -0.02651940 0.10656517
v 0.26088512 -0.00299052 0.21989711
v 0.32330561 0.04387211 0.03629654
v 0.32335237 0.04402379 0.03958302
v 0.25696561 0.18841211 -0.42262346
v 0.26086468 0.18839400 -0.42072573
v 0.26086560 -0.00300789 0.21989655
v 0.26484433 0.08290268 0.28543988
v 0.21809562 0.05950211 0.30192655
v 0.26510566 -0.00451116 0.21270703
v 0.26090562 0.18841211 -0.42072344
v 0.26477560 0.18841211 -0.41885343
v 0.25284716 0.18897186 -0.42516956
v 0.22529121 0.07105547 0.31013238
v 0.22571561 0.07114211 0.30973655
v 0.22961561 0.07121211 0.30582654
v 0.26086560 0.19614212 -0.42853343
v 0.26455560 -0.00298789 0.21598653
v 0.28135124 0.22768793 -0.44530302
v 0.20771720 0.64578402 0.00982521
v 0.24915560 0.86809212 -0.08475346
v 0.22962672 0.84865516 -0.07897244
v 0.24520501 0.86418170 -0.08478579
v 0.24524561 0.86422211 -0.08478345
v 0.24915569 0.86811215 -0.08478346
v 0.23126005 0.83878666 -0.11414308
v 0.62805557 -0.46392789 0.17316654
v 0.62805557 -0.46407789 0.17301653
v 0.30808258 0.00326387 0.02320046
v 0.31165561 -0.03410789 0.09879654
v 0.31560338 -0.03037348 0.10261422
v 0.32335562 0.04387211 0.01285655
v 0.32336560 0.04392211 0.01285655
v 0.25257641 -0.00803957 0.21982355
v 0.33282521 0.06898228 0.02087532
v 0.29326755 -0.05074682 0.08917269
v 0.28470230 0.10941442 0.32907438
v 0.23001415 0.03089574 0.25331730
v 0.33641890 0.08750837 0.21483736
v 0.29993561 0.12197211 0.30192655
v 0.29972196 0.12201590 0.30218652
v 0.29614562 0.12200211 0.30582654
v 0.29602560 0.12190211 0.30582654
v 0.30188155 0.16197567 -0.29302055
v 0.29233560 0.12200211 0.30973655
v 0.29604509 0.12200901 0.30594507
v 0.31337711 0.82650632 -0.10565003
v 0.32336560 0.04398211 0.02457655
v 0.32332560 0.04387211 0.02457655
v 0.33507562 0.07512211 0.05582655
v 0.33508560 0.07512211 0.05192654
v 0.33508560 0.07514211 0.05192654
v 0.30356875 0.13370582 0.31391993
v 0.33508560 0.07512211 0.04882655
v 0.36900491 0.20886658 -0.03970068
v 0.32893619 0.05788656 -0.01038167
v 0.31555560 -0.03036789 0.10270654
v 0.31554371 -0.03034707 0.10279669
v 0.32336560 0.04390211 0.00895655
v 0.32335562 0.04387211 0.00895655
v 0.33907798 0.08683816 0.02847615
v 0.32033145 0.03578234 0.00236308
v 0.33508560 0.07502211 0.02848655
v 0.33508560 0.07500211 0.02457655
v 0.31004000 0.01530616 0.17872667
v 0.30000779 0.12199046 0.30185950
v 0.33643863 0.07877022 0.03565459
v 0.33512563 0.07512211 0.02848655
v 0.33511561 0.07512211 0.03239655
v 0.31450120 0.13288727 0.30163315
v 0.30596033 0.18869407 0.38168469
v 0.33116329 0.06470120 0.04146709
v 0.30826142 0.14446610 0.32353899
v 0.33513561 0.07512211 0.02457655
v 0.35499781 0.24533802 -0.38603833
v 0.36214322 0.62603593 0.01669124
v 0.28421217 0.60776800 -0.00141523
v 0.34901118 0.76361334 0.17215215
v 0.33508560 0.07508211 0.04020655
v 0.32330489 0.04397410 0.05620987
v 0.37559518 0.08937621 -0.04910257
v 0.33511561 0.07512211 0.03629654
v 0.33510560 0.07512211 0.04020655
v 0.34025255 0.08777980 0.10224291
v 0.32761067 -0.03826772 0.03308207
v 0.33508560 0.07509211 0.02067655
v 0.33508560 0.07512211 0.04801655
v 0.33508560 0.07510211 0.04410655
v 0.32336560 0.04388211 0.00504655
v 0.32336560 0.04402211 0.03239655
v 0.32336560 0.04387211 0.00324655
v 0.33510560 0.07512211 0.02067655
v 0.33508560 0.07504211 0.03239655
v 0.33508560 0.07506211 0.03629654
v 0.32336560 0.04387211 0.00504655
v 0.33509561 0.07512211 0.04410655
v 0.33506560 0.07512211 0.05973654
v 0.33508560 0.07516211 0.05582655
v 0.33681977 0.07973489 0.04815252
v 0.42883560 0.16887210 -0.08090346
v 0.42877561 0.17278209 -0.08088345
v 0.24463402 0.48124963 -0.49495551
v 0.36091083 0.62995625 0.01655594
v 0.36249420 0.62598282 0.01676027
v 0.29825771 0.90537047 -0.09590630
v 0.43442562 0.16887210 -0.08478345
v 0.44454020 0.15127538 -0.09180957
v 0.41711560 0.21575211 -0.07299345
v 0.41720560 0.21966211 -0.07306346
v 0.41723561 0.21575211 -0.07306346
v 0.41711560 0.21966211 -0.07300346
v 0.41711560 0.21184212 -0.07297345
v 0.43345103 0.19096622 -0.08419381
v 0.43166393 0.51914930 0.25742525
v 0.41711560 0.22747211 -0.07303345
v 0.41711560 0.23137210 -0.07305345
v 0.41713560 0.23137210 -0.07306346
v 0.40853435 0.22799362 -0.06704061
v 0.41711560 0.24309212 -0.07306346
v 0.41709560 0.23919211 -0.07306346
v 0.41711560 0.23441210 -0.07306346
v 0.36633560 0.62200212 0.01748655
v 0.36245635 0.62198746 0.01675144
v 0.36243561 0.62591213 0.01674655
v 0.36252561 0.62200212 0.01676655
v 0.42882475 0.16497269 -0.08088405
v 0.41746736 0.24725182 -0.07323905
v 0.42883560 0.16497211 -0.08088345
v 0.42879561 0.16887210 -0.08088345
v 0.41777691 0.18145677 -0.07329973
v 0.41718560 0.22356212 -0.07306346
v 0.39916185 0.28070319 -0.06272566
v 0.41711560 0.22356212 -0.07302345
v 0.41711560 0.23919211 -0.07308345
v 0.41711560 0.23528209 -0.07307346
v 0.41711560 0.23528209 -0.07306346
v 0.41555679 0.24711245 -0.07181224
v 0.41711560 0.24309212 -0.07307346
v 0.41711560 0.24444212 -0.07306346
v 0.42700842 0.24340403 -0.07999416
v 0.41724941 0.20889650 -0.07304876
v 0.43326887 0.25950891 -0.08438329
v 0.37584108 0.61881173 0.02047328
v 0.42299500 0.63003075 0.05260865
v 0.41788983 0.86489314 0.14960228
v 0.47580171 0.78992015 0.13802734
v 0.41716561 0.22747211 -0.07306346
v 0.56165558 0.18450211 0.23648655
v 0.41710562 0.84856212 0.15348653
v 0.41711560 0.84856212 0.15348653
v 0.41711560 0.85247213 0.15250655
v 0.41005364 0.84036022 0.15361710
v 0.41720322 0.84870571 0.15348808
v 0.41350561 0.84466213 0.15348653
v 0.42240638 0.84049511 0.15695412
v 0.41321561 0.84466213 0.15340655
v 0.56676102 0.18870540 0.23615886
v 0.60643989 0.13354823 0.17152846
v 0.58397907 -0.47180453 0.07166927
v 0.56440848 0.16284196 0.21812876
v 0.62411141 -0.46393889 0.16526528
v 0.55774558 0.18450211 0.23943654
v 0.55380630 0.20044437 0.25413913
v 0.56165558 0.19231212 0.24233656
v 0.35203844 0.56477153 -0.05247920
v 0.56033558 0.19231212 0.24332654
v 0.42122579 0.71857172 -0.14025933
v 0.62788558 -0.46783790 0.16910654
v 0.63122255 -0.47208309 0.17174003
v 0.62593555 -0.46783790 0.16520654
v 0.56164557 0.18841211 0.23942654
v 0.56165236 0.18841121 0.23942462
v 0.55774969 0.18449616 0.23942649
v 0.55383557 0.18059212 0.23944654
v 0.56377059 0.19273578 0.24059185
v 0.53643805 0.15053126 0.23003131
v 0.67213088 0.31244802 0.05079317
v 0.60507679 0.25013950 -0.18278137
v 0.79903102 0.06312221 0.09105163
v 0.68276024 -0.56943709 0.11828810
v 0.68274558 -0.56939787 0.11832654
v 0.60403931 -0.20246311 0.04322291
v 0.61765188 -0.41230252 0.15317237
v 0.66447037 0.18311641 -0.19589543
v 0.58315027 -0.01763391 -0.20342565
v 0.65827292 -0.44841522 0.24648683
v 0.71438557 0.18450211 -0.16291346
v 0.71790558 0.18059212 -0.16176344
v 0.76869559 0.04387211 0.12614655
v 0.76868558 0.03997211 0.12715656
v 0.77258557 0.03997211 0.12327655
v 0.76768559 0.04778211 0.12614655
v 0.73372972 0.17433219 -0.15262823
v 0.68601382 -0.54457694 0.09233701
v 0.67281544 -0.56024837 0.12246592
v 0.72860807 -0.17109190 -0.08533653
v 0.73337936 -0.16707757 -0.08480749
v 0.74133557 -0.15923791 -0.08476345
v 0.71552241 -0.09363217 -0.14369015
v 0.74415934 -0.09210900 0.18532722
v 0.71790230 0.18841210 -0.15901700
v 0.72180557 0.18841211 -0.15621346
v 0.71790558 0.19231212 -0.15756346
v 0.64885604 0.23112369 -0.18379129
v 0.73743558 -0.16314790 -0.08475346
v 0.73738891 -0.16314438 -0.08478359
v 0.64393139 -0.49550772 0.10725373
v 0.73350555 -0.16706614 -0.08473291
v 0.76768559 -0.08892789 0.16129655
v 0.73352557 -0.16698790 -0.08478345
v 0.71791559 0.18841211 -0.15900347
v 0.71418077 0.18462180 -0.16302003
v 0.76868558 0.03606211 0.12816656
v 0.77264309 -0.09346445 0.15751418
v 0.75416684 0.00239250 0.15127227
v 0.76086557 0.04387211 0.13392656
v 0.76086557 0.04378211 0.13395654
v 0.76477557 0.04386954 0.13004658
v 0.76477557 0.04386211 0.13004655
v 0.77258557 0.04387211 0.12226654
v 0.74889374 0.23718308 -0.10163520
v 0.76868558 -0.09283784 0.16130656
v 0.76868558 -0.09277789 0.16129655
v 0.77261096 -0.09277136 0.15739176
v 0.77258557 -0.09283789 0.15742654
v 0.76868558 0.04393211 0.12614655
v 0.76083899 0.04389856 0.13395660
v 0.76868558 0.04387211 0.12615654
v 0.77085710 0.06403842 0.11876042
v 0.76603830 -0.18299401 0.18720540
v 0.85344887 -0.28630057 0.07904049
v 0.82508409 -0.27514920 0.04928581
v 0.85211390 -0.28563941 0.07226973
v 0.85055560 -0.28814790 0.07145654
v 0.84680557 -0.28990790 0.07145654
v 0.79866278 -0.18813808 -0.02299623
v 0.84680557 -0.29204789 0.07348654
v 0.71364534 0.07345880 0.18689248
v 0.83696014 0.11730855 -0.09685586
v 0.84834278 -0.23978961 0.13931338
v 0.85071558 -0.28814790 0.07158655
v 0.85071558 -0.29201791 0.07535655
v 0.85067558 -0.29204789 0.07535655
v 0.83316875 -0.30744073 0.07048251
v 0.85451555 -0.29204789 0.07926655
v 0.85071558 -0.29204789 0.07537655
v 0.78642517 -0.05155764 0.13310027
v 0.85452908 -0.29214901 0.07928511
v 0.88691413 -0.48396733 0.24051765
v 0.85675764 -0.30471385 0.08109499
v 0.85071558 -0.29595789 0.07616655
f 10 7 1
f 1 2 9
f 1 3 2
f 6 9 2
f 8 9 6
f 7 6 2
f 10 23 8
f 23 9 8
f 8 6 7
f 7 2 5
f 8 7 10
f 4 1 7
f 3 4 5
f 10 1 9
f 3 1 4
f 3 5 2
f 4 7 5
f 10 9 13
f 15 10 13
f 10 15 23
f 21 11 12
f 9 23 13
f 15 13 16
f 26 17 18
f 28 16 31
f 13 19 16
f 15 22 26
f 26 190 15
f 22 15 28
f 13 23 32
f 12 17 21
f 18 28 26
f 18 12 25
f 18 17 12
f 25 11 24
f 12 11 25
f 18 25 24
f 26 22 27
f 24 11 21
f 20 39 345
f 23 15 190
f 24 28 18
f 17 27 21
f 24 21 22
f 24 22 28
f 22 21 27
f 27 17 26
f 28 15 16
f 19 250 16
f 29 23 190
f 35 36 37
f 39 20 70
f 41 14 40
f 42 43 117
f 32 23 29
f 49 14 41
f 50 14 49
f 51 41 54
f 49 41 51
f 14 52 40
f 50 52 14
f 52 63 40
f 54 41 40
f 40 63 53
f 40 53 54
f 54 53 32
f 13 29 190
f 32 53 13
f 59 58 110
f 50 49 38
f 52 29 63
f 13 53 29
f 29 38 44
f 49 51 38
f 44 38 54
f 38 51 54
f 44 54 32
f 29 52 38
f 29 44 32
f 52 50 38
f 29 53 63
f 45 68 69
f 91 16 250
f 46 58 59
f 69 46 59
f 46 68 59
f 46 69 68
f 68 45 59
f 107 39 70
f 71 47 112
f 73 74 75
f 73 75 61
f 77 78 79
f 47 71 61
f 75 74 56
f 75 56 61
f 61 71 77
f 190 31 67
f 30 88 67
f 67 31 107
f 70 66 88
f 57 110 31
f 70 20 240
f 73 79 75
f 79 77 75
f 77 73 75
f 77 79 73
f 61 77 73
f 73 77 74
f 56 74 83
f 71 78 77
f 71 112 78
f 112 56 83
f 78 83 79
f 112 83 78
f 83 74 79
f 74 77 79
f 61 156 47
f 47 48 115
f 81 62 64
f 96 97 98
f 104 67 101
f 76 104 101
f 104 99 67
f 99 104 76
f 100 67 65
f 99 65 67
f 69 59 110
f 105 90 106
f 90 30 106
f 67 88 66
f 108 89 90
f 108 109 86
f 107 106 30
f 105 109 90
f 103 106 107
f 103 105 106
f 103 88 105
f 107 88 103
f 86 89 108
f 87 30 89
f 86 87 89
f 89 30 90
f 86 109 87
f 70 88 107
f 177 345 110
f 72 70 240
f 132 39 107
f 47 62 112
f 156 61 56
f 115 64 62
f 47 115 62
f 113 93 114
f 93 113 94
f 81 64 94
f 113 81 94
f 116 42 98
f 97 116 98
f 149 82 190
f 117 43 85
f 100 99 102
f 65 99 100
f 100 102 101
f 67 100 101
f 99 76 102
f 67 104 66
f 104 67 66
f 111 31 345
f 110 57 69
f 45 57 91
f 91 110 58
f 45 91 46
f 87 109 88
f 88 30 87
f 90 109 108
f 88 109 105
f 107 30 67
f 121 122 123
f 124 121 123
f 125 126 127
f 127 39 129
f 122 126 128
f 123 122 128
f 39 127 111
f 128 125 129
f 128 126 125
f 125 127 129
f 91 57 16
f 72 66 70
f 124 130 131
f 121 124 131
f 128 129 123
f 131 130 111
f 129 39 132
f 124 123 129
f 130 124 129
f 132 130 129
f 56 136 156
f 39 240 20
f 184 139 135
f 185 304 135
f 85 134 92
f 190 192 149
f 147 140 141
f 164 142 143
f 144 140 141
f 145 144 141
f 140 145 141
f 42 146 134
f 43 42 134
f 43 134 85
f 147 141 150
f 42 116 146
f 141 140 150
f 142 119 151
f 119 142 164
f 134 146 120
f 98 42 117
f 31 16 57
f 26 28 31
f 31 190 26
f 45 69 57
f 91 58 46
f 59 45 46
f 152 153 154
f 107 31 111
f 127 126 111
f 39 111 132
f 111 122 121
f 110 250 177
f 121 131 111
f 111 130 132
f 111 126 122
f 39 20 384
f 155 172 175
f 139 184 193
f 136 112 62
f 112 136 56
f 60 183 157
f 158 160 185
f 160 158 159
f 159 139 193
f 64 352 137
f 60 163 225
f 166 115 304
f 19 82 55
f 167 145 191
f 96 98 117
f 96 117 95
f 145 140 191
f 55 117 85
f 164 118 119
f 167 144 145
f 120 170 169
f 169 118 164
f 120 169 164
f 142 151 143
f 138 165 183
f 92 134 120
f 168 97 96
f 82 149 95
f 95 168 96
f 55 85 92
f 116 168 146
f 95 117 55
f 97 168 116
f 82 13 190
f 82 95 55
f 13 82 19
f 66 190 67
f 66 72 386
f 250 171 177
f 31 110 345
f 91 250 110
f 202 250 345
f 171 250 202
f 178 177 176
f 172 179 173
f 202 174 171
f 178 179 172
f 202 345 155
f 177 155 345
f 172 155 178
f 155 177 178
f 178 176 179
f 173 180 174
f 180 171 174
f 173 179 176
f 175 172 173
f 202 155 175
f 173 176 174
f 174 176 173
f 176 177 180
f 177 171 180
f 176 180 173
f 133 72 240
f 152 259 181
f 139 159 158
f 184 135 304
f 137 352 62
f 185 135 139
f 185 166 304
f 138 183 60
f 183 188 157
f 162 64 184
f 165 138 48
f 188 183 189
f 140 192 191
f 139 158 185
f 115 166 193
f 168 120 146
f 48 304 115
f 164 143 120
f 151 119 118
f 148 19 55
f 168 149 120
f 120 143 92
f 149 168 95
f 169 170 118
f 194 195 157
f 195 60 157
f 48 190 66
f 197 198 199
f 72 197 259
f 181 200 201
f 181 199 200
f 197 199 181
f 259 197 181
f 175 174 202
f 175 173 174
f 200 203 182
f 203 200 199
f 72 133 197
f 201 200 182
f 197 133 182
f 203 198 182
f 203 199 198
f 198 197 182
f 204 182 205
f 206 204 205
f 181 201 152
f 153 201 182
f 152 201 153
f 207 208 209
f 259 206 207
f 210 211 259
f 212 259 213
f 48 47 156
f 115 193 184
f 138 60 225
f 195 163 60
f 214 161 215
f 214 216 161
f 216 218 165
f 216 214 218
f 183 165 189
f 194 219 220
f 219 188 220
f 188 219 194
f 165 218 217
f 165 217 189
f 217 222 189
f 165 161 216
f 188 194 157
f 193 166 159
f 327 48 138
f 160 166 185
f 160 159 166
f 248 170 149
f 170 248 55
f 149 150 167
f 150 144 167
f 150 140 144
f 170 120 149
f 92 143 170
f 151 118 170
f 151 170 143
f 149 192 147
f 55 92 170
f 147 150 149
f 191 248 149
f 191 149 167
f 72 196 386
f 227 241 303
f 228 303 229
f 259 152 154
f 212 230 231
f 230 213 231
f 230 212 213
f 232 182 133
f 154 153 204
f 153 182 204
f 213 209 234
f 235 231 133
f 231 235 233
f 154 204 206
f 259 154 206
f 259 207 209
f 259 209 213
f 231 232 133
f 212 231 233
f 259 212 233
f 205 207 206
f 231 213 232
f 208 205 232
f 205 208 207
f 237 235 133
f 235 237 210
f 233 235 210
f 234 208 232
f 208 234 209
f 205 182 232
f 213 230 232
f 230 234 232
f 230 213 234
f 259 211 238
f 211 239 238
f 240 384 521
f 384 20 431
f 219 243 221
f 214 215 242
f 188 221 220
f 195 194 220
f 245 222 246
f 245 189 222
f 246 224 243
f 218 224 246
f 247 242 246
f 242 218 246
f 242 247 218
f 217 218 247
f 215 161 243
f 242 215 224
f 215 243 224
f 188 219 221
f 188 189 245
f 246 243 219
f 220 221 225
f 218 242 224
f 242 218 214
f 163 220 225
f 222 247 246
f 217 247 222
f 188 245 219
f 245 246 219
f 243 225 221
f 163 195 220
f 138 225 327
f 19 314 33
f 251 252 285
f 314 19 339
f 285 55 248
f 55 285 148
f 140 147 192
f 48 66 386
f 248 191 192
f 302 226 254
f 254 226 249
f 254 249 255
f 256 257 258
f 233 210 259
f 255 249 256
f 303 241 259
f 260 261 228
f 262 261 260
f 241 264 263
f 211 237 239
f 211 210 237
f 272 265 236
f 227 303 264
f 241 227 264
f 263 268 262
f 268 269 303
f 263 269 268
f 263 264 269
f 241 263 262
f 241 262 260
f 72 259 241
f 269 264 303
f 268 303 261
f 262 268 261
f 228 261 303
f 259 238 272
f 303 272 236
f 265 274 236
f 274 237 236
f 238 265 272
f 265 238 274
f 274 239 237
f 274 238 239
f 236 237 133
f 303 236 133
f 133 240 303
f 39 384 240
f 20 345 552
f 165 48 317
f 186 278 277
f 278 161 317
f 114 84 113
f 278 186 243
f 84 93 80
f 252 279 280
f 186 286 243
f 282 283 284
f 285 282 284
f 286 277 287
f 243 327 225
f 48 156 317
f 282 280 283
f 280 282 253
f 252 251 279
f 251 288 279
f 253 282 285
f 279 288 283
f 280 279 283
f 283 288 284
f 252 280 253
f 285 252 253
f 291 34 292
f 19 244 250
f 19 33 244
f 339 19 148
f 33 291 244
f 291 33 34
f 291 290 244
f 292 290 291
f 292 314 290
f 314 292 33
f 34 33 292
f 314 244 290
f 248 192 190
f 251 285 248
f 297 267 341
f 294 196 293
f 326 298 293
f 72 326 293
f 266 196 294
f 297 196 266
f 196 72 293
f 295 228 229
f 297 266 267
f 226 296 249
f 299 267 266
f 294 299 266
f 241 295 300
f 318 226 302
f 301 256 258
f 258 302 254
f 226 318 296
f 256 296 257
f 256 249 296
f 258 254 301
f 254 255 301
f 255 256 301
f 258 257 302
f 257 296 302
f 229 303 273
f 300 229 273
f 326 72 241
f 250 318 345
f 295 229 300
f 241 260 295
f 241 300 270
f 326 241 270
f 270 273 303
f 270 300 273
f 270 303 326
f 260 228 295
f 259 272 303
f 303 240 326
f 278 243 161
f 114 93 84
f 277 306 287
f 94 137 80
f 81 80 137
f 317 156 136
f 93 94 80
f 165 317 161
f 306 275 287
f 306 276 275
f 243 286 187
f 278 276 277
f 276 278 275
f 113 80 81
f 309 312 310
f 84 80 113
f 94 64 137
f 81 137 62
f 248 288 251
f 311 276 306
f 277 311 306
f 277 276 311
f 287 275 187
f 281 308 385
f 305 308 310
f 187 327 243
f 286 311 277
f 311 186 277
f 186 311 286
f 286 287 187
f 162 271 321
f 307 310 308
f 305 313 385
f 385 308 305
f 309 324 289
f 385 313 327
f 281 307 308
f 309 310 307
f 313 305 310
f 324 281 385
f 289 312 309
f 312 289 313
f 281 324 309
f 312 313 310
f 309 312 281
f 312 307 281
f 312 309 307
f 148 288 324
f 250 244 423
f 148 285 288
f 288 285 284
f 314 423 244
f 248 324 288
f 318 250 423
f 299 298 267
f 298 341 267
f 298 299 294
f 297 341 196
f 341 298 326
f 294 293 298
f 318 302 343
f 302 296 343
f 352 136 62
f 317 136 352
f 187 335 327
f 335 275 278
f 187 275 335
f 315 320 316
f 325 304 340
f 271 320 325
f 316 320 271
f 324 248 190
f 322 315 316
f 271 315 322
f 313 289 190
f 271 322 321
f 271 162 315
f 162 325 315
f 325 323 271
f 271 322 316
f 322 323 321
f 322 271 323
f 162 304 325
f 315 325 320
f 324 190 289
f 321 323 340
f 340 304 48
f 48 386 340
f 314 339 423
f 318 343 296
f 20 552 431
f 328 329 319
f 329 328 350
f 64 162 352
f 278 317 335
f 184 64 115
f 304 162 184
f 162 321 340
f 323 325 340
f 48 327 313
f 190 48 313
f 331 332 319
f 335 319 327
f 333 328 319
f 334 328 333
f 332 331 334
f 336 337 223
f 337 338 223
f 340 352 162
f 386 196 341
f 343 318 423
f 331 319 335
f 337 350 338
f 335 317 389
f 319 329 336
f 364 223 346
f 328 334 350
f 347 348 349
f 347 350 348
f 364 319 223
f 329 337 336
f 329 350 337
f 338 350 351
f 335 389 350
f 351 350 347
f 351 347 349
f 223 319 336
f 332 334 333
f 319 332 333
f 327 319 364
f 223 338 346
f 338 351 346
f 350 334 331
f 331 335 350
f 364 469 327
f 148 324 423
f 148 423 339
f 342 341 326
f 386 341 342
f 370 342 354
f 343 345 318
f 364 348 389
f 346 349 364
f 349 348 364
f 389 348 350
f 346 351 349
f 356 392 357
f 358 359 360
f 330 423 324
f 361 382 362
f 363 361 362
f 344 366 367
f 354 368 369
f 344 370 366
f 344 367 369
f 344 368 342
f 344 369 368
f 367 354 369
f 354 342 368
f 386 342 370
f 366 354 367
f 366 370 354
f 371 387 353
f 371 373 387
f 371 362 373
f 361 353 398
f 374 375 414
f 377 378 379
f 378 380 379
f 343 423 395
f 414 381 413
f 343 395 365
f 373 382 387
f 343 365 345
f 340 386 455
f 576 344 342
f 361 386 372
f 382 372 383
f 386 370 372
f 383 372 576
f 370 344 372
f 372 344 576
f 240 521 641
f 364 389 469
f 330 324 385
f 403 394 422
f 380 395 379
f 365 375 397
f 361 363 353
f 363 371 353
f 362 382 373
f 382 361 372
f 398 383 576
f 363 362 371
f 386 361 398
f 353 387 398
f 387 383 398
f 383 387 382
f 380 381 414
f 397 399 430
f 376 374 400
f 413 379 395
f 374 414 388
f 357 402 401
f 532 539 404
f 401 360 405
f 402 360 401
f 330 406 403
f 409 340 408
f 408 340 455
f 410 358 360
f 402 408 410
f 356 357 359
f 410 360 402
f 330 403 423
f 358 356 359
f 393 391 407
f 415 413 395
f 365 395 414
f 375 374 376
f 414 413 415
f 413 377 379
f 430 365 397
f 386 398 576
f 414 375 365
f 378 381 380
f 377 381 378
f 380 414 395
f 374 388 400
f 388 399 400
f 375 376 397
f 376 399 397
f 381 377 413
f 375 376 400
f 399 375 400
f 399 376 375
f 388 415 430
f 414 415 388
f 399 388 430
f 576 326 240
f 500 521 384
f 407 390 394
f 407 391 390
f 405 360 359
f 408 357 392
f 408 402 357
f 409 352 340
f 330 393 406
f 393 394 406
f 422 390 411
f 455 410 408
f 357 401 405
f 392 356 358
f 394 390 422
f 392 358 409
f 409 408 392
f 393 411 391
f 411 390 391
f 469 385 327
f 405 359 357
f 358 410 455
f 406 394 403
f 358 455 409
f 394 393 407
f 393 330 411
f 330 422 411
f 342 326 576
f 365 430 345
f 389 435 469
f 419 420 421
f 469 422 330
f 385 469 330
f 403 422 423
f 424 425 426
f 427 423 512
f 545 423 427
f 428 35 429
f 545 395 423
f 641 576 240
f 418 432 456
f 461 433 434
f 317 352 389
f 437 438 503
f 439 438 437
f 444 445 446
f 447 448 412
f 447 449 448
f 450 449 447
f 450 452 449
f 518 455 386
f 545 427 511
f 445 482 453
f 427 444 488
f 452 512 454
f 493 386 576
f 384 431 496
f 500 384 496
f 458 499 579
f 458 459 499
f 499 460 579
f 459 458 500
f 456 433 462
f 463 433 434
f 462 433 463
f 466 461 389
f 433 465 434
f 466 465 433
f 389 468 466
f 462 463 464
f 418 461 467
f 461 434 467
f 434 433 467
f 456 462 464
f 468 464 466
f 389 461 418
f 433 432 467
f 467 432 418
f 456 435 418
f 461 466 433
f 465 466 464
f 456 432 433
f 434 465 463
f 463 465 464
f 456 464 468
f 435 352 409
f 389 418 435
f 435 409 469
f 451 471 472
f 473 474 484
f 473 476 474
f 478 503 477
f 479 480 443
f 508 396 481
f 427 512 483
f 454 482 448
f 483 412 427
f 417 481 476
f 417 508 481
f 485 493 486
f 512 452 483
f 471 453 472
f 488 451 427
f 450 447 412
f 452 450 412
f 489 444 446
f 489 488 444
f 444 427 445
f 511 427 451
f 449 454 448
f 449 452 454
f 490 453 471
f 454 512 482
f 452 412 483
f 412 448 482
f 412 482 445
f 451 488 446
f 490 471 446
f 471 489 446
f 489 490 446
f 489 471 490
f 427 412 445
f 445 490 471
f 453 490 445
f 446 471 451
f 445 471 446
f 453 482 472
f 451 472 482
f 488 489 446
f 491 493 424
f 426 491 424
f 386 443 518
f 480 486 443
f 485 486 480
f 481 474 476
f 474 481 492
f 430 588 345
f 430 415 588
f 460 495 521
f 459 497 498
f 499 498 495
f 499 459 498
f 457 500 496
f 500 497 459
f 498 497 457
f 457 495 498
f 457 497 500
f 495 496 521
f 496 495 457
f 496 431 521
f 37 36 501
f 36 502 501
f 504 436 505
f 484 492 396
f 389 352 468
f 468 435 456
f 468 352 435
f 469 409 555
f 442 506 507
f 506 442 503
f 481 476 492
f 518 555 409
f 508 484 396
f 518 409 455
f 484 469 539
f 469 508 512
f 508 417 512
f 469 484 508
f 417 476 473
f 476 396 492
f 473 484 539
f 474 492 484
f 476 481 396
f 512 473 539
f 451 482 511
f 512 417 473
f 482 512 513
f 480 479 425
f 425 479 426
f 443 487 479
f 426 479 487
f 485 480 425
f 443 386 487
f 486 493 443
f 485 424 493
f 424 485 425
f 487 386 493
f 514 515 516
f 517 514 516
f 487 491 426
f 491 487 493
f 395 545 415
f 415 545 588
f 511 517 519
f 517 520 519
f 494 588 639
f 539 475 559
f 521 500 579
f 460 521 579
f 499 495 460
f 579 500 458
f 522 523 421
f 524 525 526
f 525 524 554
f 436 404 510
f 526 528 573
f 559 469 555
f 510 559 436
f 469 510 539
f 559 510 469
f 506 533 507
f 506 534 533
f 504 404 436
f 522 509 439
f 511 512 539
f 555 503 559
f 554 503 478
f 404 539 510
f 532 404 531
f 503 539 559
f 537 509 538
f 512 451 539
f 451 512 511
f 511 470 517
f 451 511 539
f 541 543 542
f 511 519 527
f 470 511 513
f 527 519 520
f 514 470 540
f 515 514 540
f 516 515 520
f 511 482 513
f 514 517 470
f 527 515 544
f 525 528 526
f 528 525 546
f 520 517 516
f 554 509 546
f 520 515 527
f 511 527 545
f 547 545 527
f 538 548 542
f 548 541 542
f 518 493 549
f 493 518 443
f 437 522 439
f 523 522 437
f 527 544 547
f 494 345 588
f 532 505 475
f 531 505 532
f 505 436 559
f 422 469 512
f 505 559 475
f 404 504 531
f 539 532 475
f 504 505 531
f 507 533 509
f 556 557 553
f 525 554 546
f 420 442 507
f 503 523 437
f 420 509 421
f 509 560 538
f 441 555 535
f 561 546 562
f 563 530 509
f 438 564 477
f 503 438 477
f 506 503 534
f 565 530 563
f 503 555 536
f 566 441 535
f 441 566 560
f 546 553 562
f 546 567 568
f 534 569 563
f 534 536 569
f 534 503 536
f 439 564 438
f 569 565 563
f 565 569 536
f 423 422 512
f 536 530 565
f 556 543 541
f 564 509 478
f 570 557 573
f 557 541 573
f 509 441 560
f 546 568 553
f 533 563 509
f 555 530 536
f 534 563 533
f 509 522 421
f 523 419 421
f 503 419 523
f 442 419 503
f 442 420 419
f 420 507 509
f 539 503 554
f 477 564 478
f 509 564 439
f 541 566 535
f 554 478 509
f 558 571 573
f 554 558 539
f 554 571 558
f 572 526 573
f 537 538 542
f 558 573 535
f 558 513 539
f 546 561 528
f 571 572 573
f 553 557 562
f 543 537 542
f 556 553 568
f 570 573 561
f 509 530 441
f 560 566 548
f 566 541 548
f 538 560 548
f 557 556 541
f 537 567 509
f 571 524 572
f 554 524 571
f 470 513 544
f 524 526 572
f 543 567 537
f 509 567 546
f 573 541 535
f 568 567 556
f 567 543 556
f 561 573 528
f 513 512 539
f 555 441 530
f 570 561 562
f 562 557 570
f 555 558 535
f 544 545 547
f 515 540 544
f 540 470 544
f 544 513 545
f 429 35 37
f 587 574 575
f 576 549 493
f 552 494 641
f 551 618 494
f 577 551 494
f 345 494 552
f 656 558 555
f 513 558 656
f 518 606 555
f 582 583 584
f 585 583 582
f 586 582 584
f 586 529 582
f 555 606 529
f 589 590 591
f 592 590 589
f 606 518 639
f 593 594 592
f 595 614 591
f 549 576 641
f 577 550 551
f 597 550 598
f 578 617 596
f 596 599 578
f 578 599 598
f 599 596 597
f 597 551 550
f 639 494 551
f 617 551 597
f 551 617 618
f 597 596 617
f 577 618 617
f 599 597 598
f 641 494 639
f 578 550 577
f 578 598 550
f 577 617 578
f 595 590 592
f 595 591 590
f 601 606 616
f 574 602 603
f 605 583 585
f 601 611 606
f 549 641 518
f 585 607 605
f 607 585 592
f 606 639 588
f 608 609 594
f 609 610 594
f 612 613 614
f 613 612 593
f 574 603 575
f 603 604 575
f 529 585 582
f 608 612 614
f 608 593 612
f 529 586 615
f 641 639 518
f 611 616 614
f 611 601 616
f 618 577 494
f 600 581 555
f 604 600 555
f 587 580 574
f 602 574 580
f 621 589 591
f 632 513 656
f 613 611 614
f 605 607 621
f 607 589 621
f 602 600 603
f 600 604 603
f 545 513 632
f 659 555 581
f 555 529 604
f 589 607 592
f 594 610 592
f 602 580 600
f 580 581 600
f 593 608 594
f 595 609 614
f 609 595 610
f 609 608 614
f 604 529 615
f 615 586 584
f 611 529 606
f 623 624 627
f 625 623 627
f 628 626 629
f 619 625 627
f 628 629 624
f 552 620 629
f 630 626 628
f 626 552 629
f 627 629 620
f 623 628 624
f 623 630 628
f 630 623 625
f 624 629 627
f 604 587 575
f 581 580 587
f 593 592 611
f 595 592 610
f 614 621 591
f 611 613 593
f 652 606 588
f 588 545 637
f 619 620 431
f 431 620 552
f 619 431 552
f 619 626 625
f 626 630 625
f 431 552 521
f 552 626 619
f 627 620 619
f 588 637 651
f 616 587 614
f 555 659 656
f 646 637 636
f 650 631 622
f 551 494 639
f 646 640 637
f 641 521 552
f 36 635 502
f 635 642 502
f 642 635 36
f 635 681 644
f 637 640 649
f 545 632 650
f 638 645 646
f 648 650 647
f 648 647 636
f 637 648 636
f 650 648 637
f 650 637 545
f 647 622 645
f 622 646 645
f 640 645 638
f 640 638 649
f 647 645 636
f 654 655 355
f 416 643 660
f 681 428 657
f 642 36 644
f 643 416 502
f 36 35 635
f 35 428 635
f 712 632 656
f 650 622 647
f 632 634 650
f 637 649 651
f 650 634 631
f 638 646 649
f 634 632 631
f 631 646 622
f 631 651 649
f 646 631 649
f 588 651 652
f 635 644 36
f 635 428 681
f 428 429 657
f 660 429 501
f 429 37 501
f 605 614 583
f 632 651 631
f 614 615 584
f 604 614 587
f 592 585 529
f 605 621 614
f 529 611 592
f 616 606 652
f 632 712 651
f 657 633 681
f 643 681 660
f 642 643 502
f 501 416 660
f 416 501 502
f 429 660 657
f 644 681 642
f 681 643 642
f 686 661 662
f 615 614 604
f 663 664 665
f 658 659 652
f 652 587 616
f 678 652 651
f 659 587 652
f 614 584 583
f 655 654 440
f 654 669 440
f 355 655 440
f 668 669 681
f 355 669 668
f 723 654 668
f 669 355 440
f 723 669 654
f 668 654 355
f 681 633 656
f 670 673 671
f 710 656 670
f 658 652 678
f 659 581 587
f 676 677 695
f 723 681 669
f 681 723 660
f 656 633 657
f 656 657 660
f 656 659 673
f 710 682 679
f 721 674 683
f 682 671 684
f 659 713 673
f 675 661 685
f 677 675 678
f 678 675 686
f 686 658 678
f 686 675 685
f 695 677 678
f 685 676 675
f 686 662 658
f 651 695 678
f 673 710 672
f 710 670 682
f 682 670 671
f 656 673 670
f 682 684 679
f 684 680 679
f 710 679 672
f 679 680 672
f 680 673 672
f 684 671 680
f 692 701 690
f 691 692 693
f 689 692 691
f 661 686 685
f 693 687 664
f 694 663 665
f 676 667 675
f 675 677 685
f 662 661 675
f 658 662 667
f 667 662 675
f 685 677 676
f 676 695 667
f 683 696 697
f 704 656 723
f 671 673 680
f 688 704 721
f 704 688 696
f 713 710 673
f 712 656 674
f 699 688 698
f 698 688 721
f 698 721 683
f 704 674 656
f 674 704 696
f 688 699 696
f 698 683 697
f 699 698 697
f 696 699 697
f 674 696 683
f 712 674 721
f 721 689 712
f 700 694 653
f 700 663 694
f 701 689 691
f 693 692 702
f 692 664 702
f 664 692 693
f 703 666 653
f 666 700 653
f 659 658 713
f 665 689 653
f 687 665 664
f 690 693 692
f 712 703 713
f 690 691 693
f 694 665 653
f 702 666 693
f 712 701 703
f 690 701 691
f 703 701 692
f 693 666 692
f 712 689 701
f 663 702 664
f 663 700 702
f 700 666 702
f 693 692 687
f 692 689 687
f 692 666 703
f 689 665 687
f 653 713 703
f 713 695 651
f 723 668 681
f 723 656 660
f 667 713 658
f 667 695 713
f 708 715 716
f 715 717 716
f 717 708 716
f 717 715 708
f 710 706 656
f 714 706 710
f 706 681 656
f 723 714 704
f 721 704 714
f 714 710 713
f 716 719 720
f 706 718 681
f 716 720 717
f 721 713 689
f 714 713 721
f 653 689 713
f 712 713 651
f 722 705 714
f 719 707 705
f 707 719 716
f 719 722 720
f 723 681 724
f 724 720 722
f 724 725 720
f 724 681 718
f 711 706 709
f 725 718 717
f 724 722 714
f 709 715 711
f 717 720 725
f 719 705 722
f 725 724 718
f 714 705 707
f 707 715 708
f 715 709 708
f 708 706 707
f 707 706 714
f 711 718 706
f 716 717 711
f 717 718 711
f 716 715 707
f 716 711 715
f 708 709 706
f 723 724 714
f 101 102 76
f 132 111 39
f 107 111 132
f 345 39 111
f 646 645 640
f 645 646 636

