# https://github.com/mikedh/trimesh
v 0.03986035 0.03412391 0.00468452
v 0.01816962 0.02760285 -0.00601196
v 0.01502021 0.02760052 -0.00601196
v 0.03703515 0.03412157 0.00468452
v 0.04930855 0.03412157 0.00468452
v 0.05275128 0.02760985 -0.00601196
v 0.01344551 0.02759819 -0.00601196
v 0.03547589 0.03411224 0.00468452
v 0.01134591 0.02759352 -0.00601196
v 0.00977121 0.02758885 -0.00601196
v -0.00120538 0.02755384 -0.00601196
v -0.00231693 0.02754917 -0.00601196
v 0.05245795 0.03411924 0.00468452
v 0.05875676 0.03411224 0.00468452
v 0.06190616 0.03410757 0.00468452
v 0.05386283 0.02760752 -0.00601196
v 0.02602768 0.03404455 0.00468452
v -0.02272629 0.02740914 -0.00601196
v 0.06378962 0.03410290 0.00468452
v 0.06170546 0.02758418 -0.00601196
v 0.01659491 0.03397220 0.00468452
v -0.02587569 0.02738580 -0.00601196
v 0.06663026 0.03409357 0.00468452
v 0.06221492 0.02758185 -0.00601196
v 0.06851373 0.03397220 0.00449813
v 0.01029611 0.03392319 0.00468452
v -0.02745039 0.02736946 -0.00601196
v -0.03993993 0.03342839 0.00468452
v -0.03373376 0.03348674 0.00467510
v -0.03058436 0.03352408 0.00468452
v -0.02596832 0.03357076 0.00468452
v -0.02272629 0.03360344 0.00468452
v -0.01212022 0.03370847 0.00468452
v 0.00532500 0.03388118 0.00468452
v 0.00557201 0.03388351 0.00468452
v 0.00714671 0.03389751 0.00468452
v 0.06820496 0.03408657 0.00468452
v 0.06328016 0.02757485 -0.00601196
v 0.06851373 0.03026589 -0.00140038
v 0.06378962 0.02756784 -0.00601196
v 0.06851373 0.03408423 0.00468452
v 0.06977966 0.03403055 0.00468452
v 0.07007299 0.03390218 0.00449813
v 0.07007299 0.03326735 0.00348660
v -0.04149920 0.03341205 0.00468452
v -0.05576413 0.02704037 -0.00601196
v -0.04318196 0.03339338 0.00468452
v -0.03218993 0.03350774 0.00468452
v 0.07138524 0.03319266 0.00358503
v 0.07007299 0.03017253 -0.00126949
v 0.06536432 0.02748615 -0.00601196
v 0.06485486 0.02751650 -0.00601196
v 0.07007299 0.03401655 0.00468452
v -0.05718445 0.02699136 -0.00601196
v -0.06834630 0.03284024 0.00468452
v -0.06734281 0.03286591 0.00468452
v -0.06519690 0.03291959 0.00468452
v -0.06048823 0.03303629 0.00468452
v -0.05104003 0.03326968 0.00468452
v -0.04946533 0.03330703 0.00468452
v -0.04789063 0.03333737 0.00468452
v -0.04458684 0.03337705 0.00468452
v 0.07177119 0.03380882 0.00468452
v 0.07180207 0.03359410 0.00434106
v 0.07243504 0.03311097 0.00371278
v 0.07322239 0.03248548 0.00292534
v 0.07322239 0.02616747 -0.00601196
v 0.06693902 0.02729244 -0.00601196
v 0.07322239 0.03176662 0.00186773
v 0.07482797 0.02587806 -0.00601196
v -0.06745088 0.02653157 -0.00601196
v -0.06867050 0.03282623 0.00468452
v 0.07311432 0.03358943 0.00468452
v 0.07322239 0.03352642 0.00460913
v 0.07322239 0.03304329 0.00382273
v 0.07425675 0.03165225 0.00200281
v 0.07479709 0.03286124 0.00411069
v 0.07561532 0.02683965 -0.00418576
v 0.07569251 0.02550930 -0.00601196
v -0.07354898 0.02613480 -0.00601196
v -0.06984381 0.03273054 0.00468452
v -0.07464510 0.02604844 -0.00601196
v 0.07322239 0.03357076 0.00468452
v 0.07363922 0.03347974 0.00468452
v 0.07479709 0.03321600 0.00468452
v 0.07478165 0.03203502 0.00286984
v 0.07620197 0.03256950 0.00468452
v 0.07600128 0.03182030 0.00335780
v 0.07581602 0.02544395 -0.00601196
v 0.07739072 0.02446836 -0.00601196
v -0.06992100 0.03271887 0.00468452
v -0.07621980 0.02573569 -0.00601196
v -0.07149570 0.03245980 0.00468452
v 0.07644898 0.03239678 0.00468452
v 0.07705107 0.03144453 0.00385938
v 0.07768404 0.02422796 -0.00601196
v -0.07714610 0.02537393 -0.00601196
v -0.07540158 0.03160558 0.00468452
v -0.07464510 0.03182730 0.00468452
v -0.07308584 0.03214238 0.00468452
v 0.07683494 0.03207937 0.00468452
v 0.07769948 0.03127882 0.00468452
v 0.07876472 0.02843374 0.00208763
v 0.07848683 0.02305398 -0.00601196
v -0.07774819 0.02473676 -0.00601196
v -0.07734679 0.03039893 0.00468452
v -0.07731592 0.03033824 0.00449813
v -0.07709978 0.03005583 0.00355990
v -0.07635875 0.03117380 0.00468452
v -0.07606542 0.03133250 0.00468452
v 0.07807000 0.03083304 0.00468452
v 0.07862578 0.02970574 0.00399865
v 0.07884191 0.02947001 0.00468452
v 0.07881103 0.02862279 0.00292534
v 0.07879560 0.02233746 -0.00601196
v -0.07861273 0.02373783 -0.00601196
v -0.07787170 0.02937899 0.00468452
v 0.07831701 0.03050395 0.00468452
v 0.07887279 0.02918060 0.00468452
v 0.07884191 0.02131519 -0.00601196
v -0.07865904 0.02293262 -0.00601196
v -0.07862817 0.02556065 0.00036195
v -0.07794888 0.02917827 0.00468452
v 0.07882648 0.01344978 -0.00601196
v 0.07885735 0.01816903 -0.00601196
v 0.07885735 0.01924031 -0.00601196
v 0.07884191 0.02800196 0.00468452
v 0.07878016 0.01028028 -0.00601196
v -0.07870536 0.02211807 -0.00601196
v -0.07875168 0.02048664 -0.00601196
v -0.07865904 0.02457572 0.00147715
v -0.07862817 0.02556065 0.00103631
v -0.07830396 0.02759819 0.00468452
v -0.07827309 0.02779190 0.00468452
v 0.07874928 0.01028028 -0.00570515
v 0.07862578 0.02721542 0.00468452
v -0.07878255 0.01028028 -0.00601196
v -0.07882886 0.01659595 -0.00601196
v -0.07862817 0.02479745 0.00468452
v -0.07861273 0.02550930 0.00468452
v -0.07884431 0.01552233 -0.00601196
v -0.07852010 0.02620015 0.00468452
v 0.07794649 0.01028028 -0.00511142
v 0.07828613 0.02603210 0.00468452
v 0.07780755 0.02445202 0.00468452
v 0.07735984 0.02332006 0.00468452
v -0.07865904 0.01028028 -0.00557740
v -0.07855098 0.02380318 0.00468452
v -0.07862817 0.02358613 0.00399970
v -0.07862817 0.02462007 0.00468452
v -0.07882886 0.01400060 -0.00601196
v 0.07793105 0.01028028 -0.00510200
v 0.07655705 0.02283460 0.00468452
v -0.07779450 0.01028028 -0.00495750
v -0.07584929 0.01541730 0.00089180
v -0.07810327 0.02336907 0.00468452
v 0.07637179 0.01028028 -0.00448419
v 0.07631004 0.02275291 0.00468452
v -0.07621980 0.01028028 -0.00440984
v -0.07464510 0.01521425 0.00108029
v -0.07652857 0.02229079 0.00468452
v -0.07785626 0.02313801 0.00468452
v 0.07495147 0.02257786 0.00468452
v 0.07479709 0.02255919 0.00468452
v 0.07635635 0.01028028 -0.00448314
v -0.07464510 0.01028028 -0.00433236
v -0.07307040 0.01442304 0.00029075
v -0.07464510 0.02175164 0.00468452
v -0.07572578 0.02199904 0.00468452
v -0.07307040 0.01520958 0.00112531
v -0.06834630 0.01618284 0.00193684
v -0.06992100 0.01627386 0.00193684
v -0.07149570 0.01642324 0.00193475
v -0.07307040 0.02156493 0.00468452
v 0.07333046 0.02251718 0.00468452
v 0.06693902 0.01622718 0.00036719
v 0.06851373 0.01626686 0.00033263
v 0.07478165 0.01028028 -0.00441508
v 0.06221492 0.01028028 -0.00433236
v -0.06992100 0.01442304 0.00029075
v -0.06992100 0.01520958 0.00115044
v -0.07149570 0.01520958 0.00114835
v -0.06677160 0.01612916 0.00193684
v -0.06519690 0.01689703 0.00243109
v -0.06677160 0.01691570 0.00239444
v -0.06519690 0.02112147 0.00468452
v 0.06846741 0.02237947 0.00468452
v 0.06536432 0.01620151 0.00038080
v 0.06693902 0.01520725 -0.00041921
v 0.07320695 0.01028028 -0.00438995
v 0.04100278 0.01580941 0.00056509
v 0.03860985 0.01578140 0.00058394
v 0.03703515 0.01576273 0.00059546
v 0.06378962 0.01028028 -0.00433445
v -0.05576413 0.01520958 0.00115044
v -0.06519690 0.01611049 0.00193684
v -0.06362219 0.01689703 0.00243947
v -0.05435925 0.02082040 0.00468452
v -0.05576413 0.02083673 0.00468452
v -0.05733883 0.02086241 0.00468452
v -0.05891353 0.02089742 0.00468452
v -0.06048823 0.02093476 0.00468452
v -0.06206293 0.02097910 0.00468452
v -0.06371483 0.02104912 0.00468452
v 0.06536432 0.02229312 0.00468452
v 0.07164769 0.01028028 -0.00437529
v 0.03547589 0.01574639 0.00060698
v 0.03232648 0.01571372 0.00063002
v 0.03075178 0.01569971 0.00064049
v 0.02287828 0.01563203 0.00068970
v 0.00557201 0.01549433 0.00080384
v -0.00069592 0.01544765 0.00084573
v -0.00542002 0.01541264 0.00087714
v -0.01327809 0.01535662 0.00092740
v -0.01642749 0.01533561 0.00094730
v -0.01800219 0.01532628 0.00095777
v -0.02115159 0.01530994 0.00097767
v -0.02272629 0.01530294 0.00098814
v -0.03058436 0.01527260 0.00103840
v -0.03530846 0.01525626 0.00106877
v 0.06378962 0.02225578 0.00468452
v 0.06693902 0.01028028 -0.00434492
v -0.05261473 0.01521192 0.00114835
v -0.05418943 0.01521192 0.00115044
v -0.06362219 0.01611049 0.00193684
v -0.06206293 0.01611282 0.00193684
v -0.05891353 0.01611982 0.00193684
v -0.05733883 0.01612449 0.00193684
v -0.05418943 0.01613616 0.00193684
v -0.05261473 0.01614316 0.00193475
v -0.06206293 0.01689936 0.00243423
v -0.05261473 0.02081806 0.00468452
v -0.05278455 0.02081806 0.00468452
v 0.07007299 0.01028028 -0.00436377
v -0.03688316 0.01525159 0.00107924
v -0.04003256 0.01523992 0.00109599
v -0.04318196 0.01523059 0.00111275
v -0.04631592 0.01522125 0.00112741
v -0.04475666 0.01621785 0.00190752
v -0.04631592 0.01620151 0.00191485
v -0.04789063 0.01618517 0.00192009
v -0.05104003 0.01615483 0.00193056
v 0.06351174 0.02225111 0.00468452
v 0.06851373 0.01028028 -0.00435330
v -0.04789063 0.01521892 0.00113369
v -0.05104003 0.01521425 0.00114416
v -0.04801413 0.02085774 0.00468452
v -0.04960427 0.02084140 0.00468452
v -0.05891353 0.01690636 0.00242062
v -0.01949970 0.02117749 0.00468452
v -0.02745039 0.02108413 0.00468452
v -0.03049173 0.02104912 0.00468452
v -0.03367200 0.02101411 0.00468452
v -0.05104003 0.02082973 0.00468452
v 0.06221492 0.02223010 0.00468452
v -0.01911374 0.02118216 0.00468452
v 0.06025427 0.02220209 0.00468452
f 1 2 3
f 1 3 4
f 1 4 8
f 1 8 17
f 1 17 21
f 1 21 26
f 1 26 36
f 1 36 35
f 1 35 34
f 1 34 33
f 1 33 32
f 1 32 31
f 1 31 30
f 1 30 48
f 1 48 28
f 1 28 45
f 1 45 47
f 1 47 62
f 1 62 61
f 1 61 60
f 1 60 59
f 1 59 58
f 1 58 57
f 1 57 56
f 1 56 55
f 1 55 72
f 1 72 81
f 1 81 91
f 1 91 93
f 1 93 100
f 1 100 99
f 1 99 98
f 1 98 110
f 1 110 109
f 1 109 106
f 1 106 117
f 1 117 123
f 1 123 134
f 1 134 133
f 1 133 142
f 1 142 140
f 1 140 139
f 1 139 150
f 1 150 148
f 1 148 156
f 1 156 162
f 1 162 161
f 1 161 169
f 1 169 168
f 1 168 174
f 1 174 186
f 1 186 204
f 1 204 203
f 1 203 202
f 1 202 201
f 1 201 200
f 1 200 199
f 1 199 198
f 1 198 233
f 1 233 232
f 1 232 254
f 1 254 248
f 1 248 247
f 1 247 253
f 1 253 252
f 1 252 251
f 1 251 250
f 1 250 256
f 1 256 257
f 1 257 255
f 1 255 243
f 1 243 221
f 1 221 205
f 1 205 187
f 1 187 175
f 1 175 164
f 1 164 163
f 1 163 158
f 1 158 153
f 1 153 146
f 1 146 145
f 1 145 144
f 1 144 136
f 1 136 127
f 1 127 119
f 1 119 113
f 1 113 118
f 1 118 111
f 1 111 102
f 1 102 101
f 1 101 94
f 1 94 87
f 1 87 85
f 1 85 84
f 1 84 83
f 1 83 73
f 1 73 63
f 1 63 53
f 1 53 42
f 1 42 41
f 1 41 37
f 1 37 23
f 1 23 19
f 1 19 15
f 1 15 14
f 1 14 13
f 1 13 5
f 1 5 6
f 1 6 2
f 2 6 16
f 2 16 20
f 2 20 24
f 2 24 38
f 2 38 40
f 2 40 52
f 2 52 51
f 2 51 68
f 2 68 67
f 2 67 70
f 2 70 79
f 2 79 89
f 2 89 90
f 2 90 96
f 2 96 104
f 2 104 115
f 2 115 120
f 2 120 126
f 2 126 125
f 2 125 124
f 2 124 128
f 2 128 137
f 2 137 151
f 2 151 141
f 2 141 138
f 2 138 130
f 2 130 129
f 2 129 121
f 2 121 116
f 2 116 105
f 2 105 97
f 2 97 92
f 2 92 82
f 2 82 80
f 2 80 71
f 2 71 54
f 2 54 46
f 2 46 27
f 2 27 22
f 2 22 18
f 2 18 12
f 2 12 11
f 2 11 10
f 2 10 9
f 2 9 7
f 2 7 3
f 3 7 4
f 4 7 9
f 4 9 10
f 4 10 11
f 4 11 12
f 4 12 8
f 5 13 6
f 6 13 14
f 6 14 15
f 6 15 16
f 8 12 18
f 8 18 17
f 15 19 16
f 16 19 20
f 17 18 22
f 17 22 21
f 19 23 20
f 20 23 25
f 20 25 24
f 21 22 26
f 22 27 28
f 22 28 29
f 22 29 30
f 22 30 31
f 22 31 32
f 22 32 33
f 22 33 34
f 22 34 35
f 22 35 36
f 22 36 26
f 23 37 25
f 24 25 38
f 25 39 40
f 25 40 38
f 25 37 41
f 25 41 42
f 25 42 43
f 25 43 44
f 25 44 39
f 27 45 28
f 27 46 47
f 27 47 45
f 28 48 29
f 29 48 30
f 39 44 49
f 39 49 50
f 39 50 51
f 39 51 52
f 39 52 40
f 42 53 43
f 43 53 49
f 43 49 44
f 46 54 55
f 46 55 56
f 46 56 57
f 46 57 58
f 46 58 59
f 46 59 60
f 46 60 61
f 46 61 62
f 46 62 47
f 49 53 63
f 49 63 64
f 49 64 65
f 49 65 66
f 49 66 50
f 50 67 68
f 50 68 51
f 50 66 69
f 50 69 70
f 50 70 67
f 54 71 72
f 54 72 55
f 63 73 74
f 63 74 65
f 63 65 64
f 65 74 75
f 65 75 66
f 66 76 69
f 66 75 77
f 66 77 76
f 69 76 70
f 70 76 78
f 70 78 79
f 71 80 72
f 72 80 82
f 72 82 81
f 73 83 74
f 74 83 84
f 74 84 75
f 75 84 85
f 75 85 77
f 76 77 86
f 76 86 78
f 77 85 87
f 77 87 88
f 77 88 86
f 78 89 79
f 78 86 88
f 78 88 90
f 78 90 89
f 81 82 91
f 82 92 93
f 82 93 91
f 87 94 95
f 87 95 88
f 88 95 90
f 90 95 96
f 92 97 98
f 92 98 99
f 92 99 100
f 92 100 93
f 94 101 95
f 95 101 102
f 95 102 103
f 95 103 96
f 96 103 104
f 97 105 106
f 97 106 107
f 97 107 108
f 97 108 109
f 97 109 110
f 97 110 98
f 102 111 103
f 103 112 113
f 103 113 114
f 103 114 115
f 103 115 104
f 103 111 112
f 105 116 106
f 106 109 107
f 106 116 117
f 107 109 108
f 111 118 112
f 112 118 113
f 113 119 114
f 114 119 115
f 115 119 120
f 116 121 122
f 116 122 123
f 116 123 117
f 119 124 125
f 119 125 126
f 119 126 120
f 119 127 128
f 119 128 124
f 121 129 122
f 122 129 130
f 122 130 131
f 122 131 132
f 122 132 133
f 122 133 134
f 122 134 123
f 127 135 128
f 127 136 135
f 128 135 143
f 128 143 152
f 128 152 157
f 128 157 165
f 128 165 178
f 128 178 190
f 128 190 206
f 128 206 234
f 128 234 244
f 128 244 222
f 128 222 194
f 128 194 179
f 128 179 166
f 128 166 159
f 128 159 154
f 128 154 147
f 128 147 137
f 130 138 131
f 131 139 140
f 131 140 132
f 131 138 141
f 131 141 139
f 132 140 142
f 132 142 133
f 135 136 144
f 135 144 145
f 135 145 146
f 135 146 143
f 137 147 148
f 137 148 149
f 137 149 150
f 137 150 151
f 139 141 150
f 141 151 150
f 143 146 152
f 146 153 152
f 147 154 155
f 147 155 148
f 148 150 149
f 148 155 156
f 152 153 157
f 153 158 157
f 154 159 155
f 155 159 160
f 155 160 161
f 155 161 162
f 155 162 156
f 157 158 163
f 157 163 164
f 157 164 165
f 159 166 167
f 159 167 160
f 160 168 169
f 160 169 161
f 160 167 170
f 160 170 171
f 160 171 172
f 160 172 173
f 160 173 174
f 160 174 168
f 164 175 176
f 164 176 177
f 164 177 165
f 165 177 178
f 166 179 180
f 166 180 167
f 167 180 195
f 167 195 181
f 167 181 182
f 167 182 170
f 170 182 183
f 170 183 171
f 171 183 184
f 171 184 185
f 171 185 172
f 172 185 174
f 172 174 173
f 174 185 186
f 175 187 188
f 175 188 176
f 176 188 189
f 176 189 178
f 176 178 177
f 178 189 191
f 178 191 192
f 178 192 193
f 178 193 190
f 179 194 195
f 179 195 180
f 181 196 182
f 181 195 225
f 181 225 196
f 182 196 183
f 183 196 184
f 184 196 197
f 184 197 198
f 184 198 199
f 184 199 200
f 184 200 201
f 184 201 202
f 184 202 203
f 184 203 204
f 184 204 186
f 184 186 185
f 187 205 188
f 188 205 191
f 188 191 189
f 190 193 207
f 190 207 208
f 190 208 209
f 190 209 210
f 190 210 211
f 190 211 212
f 190 212 213
f 190 213 214
f 190 214 215
f 190 215 216
f 190 216 217
f 190 217 218
f 190 218 219
f 190 219 220
f 190 220 206
f 191 205 221
f 191 221 192
f 192 221 193
f 193 221 207
f 194 222 223
f 194 223 195
f 195 223 224
f 195 224 225
f 196 225 197
f 197 225 226
f 197 226 227
f 197 227 228
f 197 228 229
f 197 229 230
f 197 230 231
f 197 231 232
f 197 232 233
f 197 233 198
f 206 220 235
f 206 235 236
f 206 236 237
f 206 237 238
f 206 238 234
f 207 221 208
f 208 221 209
f 209 221 239
f 209 239 210
f 210 239 211
f 211 239 240
f 211 240 212
f 212 240 213
f 213 240 214
f 214 240 215
f 215 240 216
f 216 240 241
f 216 241 242
f 216 242 217
f 217 242 218
f 218 242 219
f 219 242 220
f 220 242 235
f 221 243 240
f 221 240 239
f 222 244 245
f 222 245 246
f 222 246 223
f 223 246 229
f 223 229 228
f 223 228 227
f 223 227 226
f 223 226 224
f 224 226 225
f 229 246 245
f 229 245 230
f 230 247 248
f 230 248 249
f 230 249 231
f 230 245 238
f 230 238 237
f 230 237 236
f 230 236 235
f 230 235 242
f 230 242 250
f 230 250 251
f 230 251 252
f 230 252 253
f 230 253 247
f 231 249 248
f 231 248 254
f 231 254 232
f 234 238 244
f 238 245 244
f 240 243 255
f 240 255 241
f 241 255 242
f 242 256 250
f 242 255 257
f 242 257 256

