# https://github.com/mikedh/trimesh
v -0.93844843 0.24261677 -0.02392135
v -0.84499305 0.09316040 -0.19429962
v -0.85641795 0.28853136 0.05811181
v -0.95033604 0.22873992 -0.12218613
v -0.91450679 0.19583607 0.06343547
v -0.61057705 0.36640951 0.18437196
v -0.61057705 0.36653951 0.18441197
v -0.60678697 0.36263952 0.18437196
v -0.70055479 0.06051325 -0.07562362
v -0.72727495 0.07106565 0.02889193
v -0.80428267 0.30168626 -0.17961390
v -0.81654978 0.28891638 -0.17297991
v -0.80866289 0.25840110 0.12066273
v -0.79807705 0.05794952 0.09449197
v -0.79416698 0.06185953 0.09446198
v -0.82254404 0.40806592 0.02500914
v -0.82398784 0.04576315 0.11311218
v -0.78851318 0.01179992 0.06061997
v -0.79185617 0.21335091 0.12406325
v -0.79424697 0.06185953 0.09453197
v -0.80064702 0.06575952 0.10234197
v -0.79416698 0.06193952 0.09453197
v -0.53245699 0.24289954 0.12968197
v -0.79012704 0.06603935 0.09454777
v -0.78940994 0.06661817 0.09443928
v -0.79038697 0.06575952 0.09453197
v -0.74020922 0.06555835 -0.13964722
v -0.77447134 0.11062209 0.11399890
v -0.76576436 -0.00506383 -0.07457381
v -0.69470340 0.38634267 -0.16375257
v -0.82763565 0.38510194 -0.05298210
v -0.73747897 0.50422800 -0.07213346
v -0.80621701 0.45719039 0.00592483
v -0.72786999 0.05792363 0.00086972
v -0.72693884 0.06200167 0.00862794
v -0.74230003 0.04367670 0.00030088
v -0.72384483 0.06172797 0.00062826
v -0.72385699 0.06177952 0.00078197
v -0.69097924 0.20913309 0.12857844
v -0.75312716 0.05944180 0.06138635
v -0.72385699 0.06185953 0.00095197
v -0.73183107 0.05407638 0.00087499
v -0.73178470 0.05399427 0.00057444
v -0.72776699 0.05794952 0.00068197
v -0.55626464 0.23596686 -0.05960005
v -0.73166698 0.05419952 0.00078197
v -0.72776699 0.05798953 0.00078197
v -0.63324499 0.19147155 0.07332376
v -0.71845299 0.17561048 -0.18191934
v -0.71917439 0.16770725 -0.18924366
v -0.73268795 0.46253881 -0.13029015
v -0.73983538 0.39147663 0.15096800
v -0.71999782 0.06608038 0.00213469
v -0.56840789 0.26673302 -0.13142388
v -0.66741824 0.08530786 -0.07298467
v -0.68568796 0.19940883 0.11361404
v -0.66057521 0.39883602 0.18737163
v -0.62620699 0.37044951 0.18942197
v -0.61794817 0.29542410 0.16953459
v -0.62620699 0.36657953 0.18828197
v -0.55333757 0.49964774 -0.19950731
v -0.63718343 0.16339044 -0.12799639
v -0.52850121 0.38058358 -0.23776464
v -0.50447708 -0.08599564 -0.08373316
v -0.57461828 0.31339931 -0.17784850
v -0.65927213 0.35677853 -0.18265465
v -0.61448699 0.37044951 0.18442199
v -0.64580703 0.38606951 0.18828197
v -0.64573699 0.38216951 0.18714198
v -0.64573699 0.38599953 0.18828197
v -0.59907180 0.33820963 0.18786830
v -0.61838698 0.37435952 0.18442199
v -0.64963698 0.38987952 0.18828197
v -0.63401753 0.37436566 0.18828183
v -0.64745635 0.37661937 0.18499389
v -0.63010699 0.37044951 0.18827198
v -0.64187700 0.38216951 0.18828197
v -0.64573699 0.38606951 0.18830197
v -0.64182961 0.38213667 0.18828572
v -0.65893996 0.60761523 0.07791838
v -0.63814425 0.35145590 0.18026212
v -0.63010591 0.37046775 0.18828137
v -0.66144556 0.62232345 0.06065407
v -0.63155890 0.14136404 -0.06633701
v -0.58634549 0.28935951 -0.16546528
v -0.64973700 0.38997951 0.18828197
v -0.65354705 0.39388952 0.18831196
v -0.64963698 0.38997951 0.18830197
v -0.61703944 0.31798920 0.17654468
v -0.62608272 0.36643252 0.18827032
v -0.62229705 0.32356951 0.17664199
v -0.61838698 0.33138952 0.18012197
v -0.60276699 0.35863951 0.18437196
v -0.60666698 0.35872951 0.18324196
v -0.60285699 0.35872951 0.18437196
v -0.65354705 0.38997951 0.18721198
v -0.60276699 0.35481951 0.18323196
v -0.64099371 0.38714975 0.18156786
v -0.61455107 0.37035000 0.18437091
v -0.65354705 0.39778951 0.18947197
v -0.65360355 0.39382043 0.18828563
v -0.63657141 0.41823426 0.19799753
v -0.60501444 0.61742663 -0.06510081
v -0.51796001 0.25964117 -0.22188936
v -0.56335461 0.23820649 -0.10002448
v -0.60276699 0.35872951 0.18440197
v -0.59884328 0.35480341 0.18439081
v -0.61866701 0.31966951 0.17656197
v -0.61838698 0.31966951 0.17664199
v -0.62224311 0.32339746 0.17661314
v -0.58957303 0.32516173 0.17602625
v -0.61448699 0.36653951 0.18326198
v -0.61071706 0.36653951 0.18437196
v -0.60666698 0.36263952 0.18440197
v -0.59892702 0.35481951 0.18437196
v -0.56461859 0.33380696 0.20163454
v -0.60666698 0.36251953 0.18437196
v -0.53429210 0.37334171 -0.24187233
v -0.60829705 0.55930716 0.16626427
v -0.52542824 0.13050248 -0.08590128
v -0.53790700 0.18279453 -0.12804249
v -0.58380741 0.39924675 0.20125256
v -0.47165382 0.43805447 -0.25757098
v -0.43966916 0.49488416 0.22510652
v -0.18782927 0.80547965 0.02608446
v -0.66839534 0.55470878 0.15610604
v -0.15789555 0.88071471 0.11708560
v -0.47776702 0.67903954 0.05935198
v -0.47776702 0.67903954 0.05937197
v -0.47774702 0.67903954 0.05937197
v -0.52851707 0.23763952 0.13359196
v -0.52853382 0.23763305 0.13349676
v -0.52463698 0.23414952 0.14140198
v -0.52854109 0.23768316 0.13360082
v -0.54448807 0.25730091 0.09824812
v -0.54649079 0.25411668 0.12066057
v -0.52439702 0.23372953 0.14140198
v -0.50526369 0.67079586 0.05633102
v -0.48162702 0.67903954 0.05546197
v -0.48166701 0.67902952 0.05546197
v -0.49974847 0.18713862 0.11839875
v -0.45707163 0.04271408 0.13776085
v -0.54377335 0.23211864 0.02809864
v -0.52270681 0.23339558 0.15098417
v -0.49434844 0.32515994 0.22591914
v -0.49729502 0.15018150 0.11512424
v -0.46922830 -0.87392157 -0.19061917
v -0.48557702 0.67901957 0.05156197
v -0.48558629 0.67903906 0.05147720
v -0.50744808 0.67444330 0.04457627
v -0.47269702 0.68294954 0.05156197
v -0.49485895 0.67527187 0.05459233
v -0.49530274 -0.86496246 -0.11114224
v -0.49280679 -0.04906114 -0.01901920
v -0.44595778 0.11131295 -0.25831103
v -0.52437705 0.25683710 0.16589034
v -0.49249449 0.33737782 0.23543201
v -0.48565069 0.65886194 0.11032685
v -0.64990056 0.60448641 -0.06831098
v -0.48166701 0.67903954 0.05542197
v -0.48550701 0.67903954 0.05156197
v -0.47385702 0.68022954 0.05937197
v -0.48045704 0.68294954 0.04374197
v -0.47386703 0.67903954 0.06328197
v -0.34551671 0.62775487 0.16947192
v -0.39424366 -0.83113223 0.13594459
v -0.40767694 -0.42058119 0.05110791
v -0.41999704 -0.31314048 -0.01092803
v -0.43289620 -0.35240731 -0.10048198
v -0.47145522 -0.20729710 -0.04415651
v -0.39330095 -0.18238184 -0.22398509
v -0.41306999 0.11291384 0.31348696
v -0.43180534 0.46461204 0.24672134
v -0.39535829 -0.81127149 -0.26285312
v -0.45326540 -0.82422584 0.03770735
v -0.38892394 -0.63814819 -0.22090906
v -0.39666569 -0.66775137 0.11303075
v -0.41916701 -0.31310049 -0.00702803
v -0.40053153 -0.41185975 -0.17237812
v -0.40677735 -0.90332788 -0.29799655
v -0.41916701 -0.31314048 -0.00702803
v -0.41916701 -0.30923048 -0.00311803
v -0.42326033 -0.34549946 -0.05510772
v -0.40661392 -0.34811848 0.03176368
v -0.37071705 -0.39455059 0.12283842
v -0.41914701 -0.32095048 -0.01483803
v -0.41916701 -0.31704047 -0.01099803
v -0.41915703 -0.31704047 -0.01092803
v -0.41916701 -0.31314048 -0.00705803
v -0.46874157 -0.14869097 -0.11222332
v -0.41998702 -0.31704047 -0.01483803
v -0.41916701 -0.31697047 -0.01092803
v -0.41918859 -0.32098237 -0.01508968
v -0.42336497 -0.30541772 -0.01897618
v -0.36975810 -0.01230915 0.25677142
v -0.35740465 0.36836475 -0.31437922
v -0.27798951 -0.69385427 -0.32596484
v -0.35563689 -0.71197176 0.15920348
v -0.36581695 -0.71468008 0.17305884
v -0.42413732 -0.60559171 -0.20341831
v -0.38783243 -0.40105265 -0.21474057
v -0.41856730 -0.00762793 0.20230184
v -0.38766104 0.63464081 0.16734159
v -0.34875724 0.38549790 -0.30211473
v -0.48037475 0.54776990 -0.19105658
v -0.43996102 0.68937075 -0.02959550
v -0.35620028 0.71773899 0.01688546
v -0.34425381 -0.84209383 -0.31788269
v -0.29026702 -0.84829044 -0.34856802
v -0.32932702 -0.73501045 0.18045197
v -0.32932702 -0.73110044 0.18042196
v -0.32931703 -0.73501045 0.18046197
v -0.38829491 0.23755288 -0.31201851
v -0.33317077 -0.48723078 0.17782080
v -0.36310196 -0.70634478 -0.27833393
v -0.35819694 -0.57080227 0.16444881
v -0.43462631 -0.23655510 -0.17082837
v -0.39106721 -0.26556209 0.11961494
v -0.38821241 -0.03313383 -0.28629881
v -0.43487632 0.09456980 0.26835331
v -0.31019107 -0.05641893 0.29845473
v -0.34729892 0.11936139 0.39376616
v -0.29807702 -0.84829044 -0.34521800
v -0.29422703 -0.84829044 -0.34686801
v -0.29416701 -0.84829044 -0.34689802
v -0.32932702 -0.73632044 0.18046197
v -0.29807702 -0.85220045 -0.34692803
v -0.29416701 -0.85610044 -0.35030803
v -0.33323702 -0.73110044 0.17755198
v -0.30198702 -0.85610044 -0.34695801
v -0.32926702 -0.73110044 0.18046197
v -0.31765154 -0.48102131 0.19220828
v -0.31743681 -0.91092116 -0.36816087
v -0.39101860 -0.82513559 0.12270175
v -0.31760702 -0.48225048 0.19218197
v -0.31369478 -0.48109594 0.19609867
v -0.29416701 -0.84823048 -0.34686801
v -0.29816958 -0.85217088 -0.34687576
v -0.28518078 -0.39327002 -0.30331737
v -0.29976347 -0.45223340 0.21164244
v -0.30474386 -0.37284249 -0.26975262
v -0.30979702 -0.47969049 0.19999199
v -0.38750306 -0.30975714 0.13402748
v -0.31760702 -0.48110047 0.19224197
v -0.31391701 -0.47720048 0.19609196
v -0.31370702 -0.48097047 0.19609196
v -0.23960209 -0.36789933 -0.30001232
v -0.23948702 -0.37173048 -0.30003801
v -0.30574867 -0.20045990 -0.28362870
v -0.30979702 -0.48110047 0.19992197
v -0.26256379 -0.05932954 0.31570432
v -0.42379284 -0.12684134 -0.22217824
v -0.30166468 -0.48638710 0.20752706
v -0.43228072 0.69741595 0.02407324
v -0.22133806 -0.82592851 0.24317195
v -0.25888184 -0.82447159 -0.34874648
v -0.31312305 -0.73798496 0.19243720
v -0.25699180 -0.89912117 -0.38325289
v -0.29555357 -0.36645529 0.23522802
v -0.25351730 -0.43345684 -0.29627085
v -0.31144398 -0.29891717 0.23484918
v -0.22630274 0.23769592 0.42116255
v -0.25510702 0.41346952 0.33281198
v -0.25120702 0.41731951 0.33270198
v -0.25120702 0.41706952 0.33281198
v -0.24764228 0.41872293 0.33347929
v -0.25358817 0.40188086 0.33807808
v -0.16826618 0.51344663 -0.25781319
v -0.25516170 0.41345686 0.33279961
v -0.17512201 0.67329228 0.22017476
v -0.28074962 0.71936584 -0.05920418
v -0.31324717 0.74217921 -0.00042215
v -0.20943128 0.73813379 0.13841976
v -0.24338703 -0.37173048 -0.29848802
v -0.25603434 -0.37540469 -0.29346037
v -0.23948702 -0.37564048 -0.30001801
v -0.23959702 -0.37173048 -0.29999802
v -0.20945609 -0.37305018 -0.32032263
v -0.22229803 -0.36878681 -0.31460604
v -0.24597105 -0.23214491 -0.32040656
v -0.24858698 -0.89602202 -0.38928133
v -0.18722627 -0.02536418 0.37289959
v -0.29200035 0.13395543 0.41305494
v -0.40662274 0.27247182 -0.31863981
v -0.31742728 0.40612459 0.31088853
v -0.25510702 0.41341951 0.33283198
v -0.18541688 0.82062590 0.21496268
v -0.21647725 0.70462519 -0.11879158
v -0.06355628 -0.91844547 -0.42860055
v -0.27519077 -0.70170999 0.21923076
v -0.14468458 -0.54942101 -0.33133948
v -0.23965703 -0.36782047 -0.29999802
v -0.19610381 -0.22298890 -0.31992307
v -0.22491921 0.42927790 -0.29548734
v -0.24647214 0.42905542 0.32960200
v -0.15773986 0.41840062 -0.30042040
v -0.40093100 0.67045557 -0.07280497
v -0.19018918 0.70318288 0.18009888
v -0.18043697 -0.83078933 -0.38697979
v -0.13582847 -0.00253723 0.38808605
v -0.29180536 -0.69073969 -0.29633909
v -0.05159029 -0.73814672 -0.36589840
v -0.26014352 -0.49089965 0.24030466
v -0.22292824 -0.02539816 -0.33875519
v -0.14934769 -0.63416004 0.28546956
v -0.24264583 -0.35293671 0.27532989
v 0.00278232 -0.38614586 -0.36889735
v -0.19639276 0.09189516 0.43185607
v -0.12701389 0.50843835 -0.27582964
v -0.27448690 0.46817786 0.31149486
v -0.11302249 0.80519962 -0.05704883
v -0.18322408 0.79057848 0.06978721
v -0.16279100 -0.68620336 -0.35282165
v -0.08752728 -0.45852649 0.32492453
v -0.18733037 -0.33452258 -0.31746966
v -0.21230491 0.39395249 0.35531816
v -0.11230088 0.41915518 0.36217779
v -0.09495702 0.42519951 0.36015198
v -0.09885702 0.42520952 0.36015198
v -0.09495702 0.42513952 0.36017197
v -0.14032818 0.58931434 -0.22123700
v 0.02613298 0.74935955 -0.11530803
v 0.00025393 -0.81569910 0.30467764
v 0.00365066 -0.52576971 0.33826157
v -0.04438557 -0.48532319 -0.33514801
v -0.04416702 -0.48501047 -0.33514801
v -0.07140948 -0.51570195 -0.33505788
v -0.14853862 -0.42046535 0.32487282
v 0.07582365 -0.03949350 0.39198607
v -0.11876605 0.14329791 0.43384689
v -0.09104702 0.42517951 0.36015198
v -0.08713702 0.42516953 0.36015198
v -0.11361074 0.43760392 0.35593876
v -0.08713702 0.42513952 0.36016199
v -0.08259536 0.63462967 0.28143904
v -0.13692072 0.75372607 0.26807907
v -0.04748289 0.72366601 -0.11797970
v -0.00508737 0.71905071 0.34027752
v -0.09939173 0.82117122 -0.03973237
v -0.04517011 -0.43955734 -0.33210009
v -0.04823742 -0.48911446 -0.33514768
v 0.09711844 -0.48568195 0.32162166
v -0.00463198 0.11357975 0.43227187
v 0.05251195 0.11428569 -0.36479157
v -0.07777638 0.43780684 0.35596275
v -0.08562618 0.41912204 0.36214760
v 0.00675820 0.42427936 0.36011112
v -0.07637703 0.42513952 0.36015198
v -0.08323702 0.42515951 0.36015198
v -0.08323702 0.42513952 0.36016199
v -0.09104702 0.42513952 0.36017197
v -0.07932702 0.42514953 0.36015198
v -0.07932702 0.42513952 0.36015198
v 0.05590319 0.81444460 -0.07297486
v -0.08483040 0.92003018 0.00551368
v -0.04406702 -0.48501047 -0.33514801
v -0.04016171 -0.48111519 -0.33514801
v -0.02467045 -0.55532050 0.32109186
v -0.04086918 -0.55702317 0.31895491
v -0.03043640 -0.54937518 0.32107392
v -0.04026702 -0.48110047 -0.33514801
v -0.02913447 -0.55077422 0.32106698
v -0.03635702 -0.47733048 -0.33514801
v -0.04437375 -0.49173325 -0.33555380
v 0.01014721 -0.68145424 0.31145239
v -0.02463702 -0.55532044 0.32109198
v -0.02835702 -0.55142045 0.32109198
v -0.18342781 0.20664138 0.43255985
v -0.19790885 0.08764578 -0.36022013
v 0.02613078 0.75328726 -0.11256851
v -0.11710468 0.35990372 0.37502831
v 0.00853253 0.67686313 0.29995871
v 0.01634232 0.23469853 0.41077942
v -0.06411114 0.57280630 0.30097166
v -0.01286198 -0.56229967 0.32172164
v -0.02463702 -0.55142045 0.32154199
v 0.01377850 -0.51925975 -0.34107319
v -0.00500350 -0.47407702 0.33241484
v -0.06907107 -0.18594620 0.37454858
v 0.22738792 0.06685713 0.40615174
v 0.02613298 0.75325954 -0.11256802
v 0.03004298 0.75332958 -0.11249802
v -0.07581257 -0.91509950 -0.43326446
v 0.20874132 -0.75664115 -0.36391279
v -0.03644545 -0.71010232 -0.38270891
v -0.07802313 -0.22323221 0.36272442
v 0.03004298 0.75325954 -0.11254803
v 0.00828966 0.21652064 0.42537147
v 0.02160384 0.61956692 0.29499561
v -0.06653117 0.63686460 0.27621403
v 0.04780016 0.75946307 -0.10806554
v 0.03394298 0.75325954 -0.11251803
v 0.10054246 -0.69287628 0.29713905
v 0.19705144 -0.91865444 -0.41999537
v 0.04175298 0.75325954 -0.11247803
v 0.03877298 0.75325954 -0.11249802
v 0.03785298 0.75326955 -0.11249802
v 0.03394298 0.75329953 -0.11249802
v 0.03891351 0.73963875 -0.12205534
v -0.00739760 0.71629512 -0.13832662
v 0.03785298 0.75325954 -0.11249802
v 0.04175298 0.75323957 -0.11249802
v 0.04566298 0.75325954 -0.11245803
v 0.08336595 0.73719960 -0.12279295
v 0.05347298 0.75309956 -0.11249802
v 0.04957298 0.75325954 -0.11242803
v 0.04566298 0.75319958 -0.11249802
v 0.04957298 0.75316954 -0.11249802
v 0.11988298 -0.62564045 0.29905197
v 0.18318851 0.14951681 0.43515581
v 0.18727522 0.45423424 0.34018698
v 0.11710260 0.66261286 0.26155683
v -0.04933833 0.67456436 -0.16659366
v 0.07377906 0.81101567 -0.05760091
v 0.05545445 0.92800802 -0.00540712
v 0.08442825 0.71247977 0.28629723
v 0.10531462 0.52277362 -0.26754770
v 0.13115558 0.88755196 -0.00366627
v 0.14166915 -0.82211041 0.26477671
v 0.09672737 -0.64250994 0.30373183
v 0.12084323 -0.60640365 0.30162522
v 0.12382343 -0.62557733 0.29765132
v 0.11981009 -0.63586682 0.29779378
v 0.12375161 -0.62567943 0.29764858
v 0.11967706 -0.63744527 0.29764184
v 0.11985813 -0.63664979 0.29767790
v 0.14185598 -0.39277375 0.32957923
v 0.03900842 -0.27232915 -0.32517445
v -0.15636407 -0.39330146 -0.33147120
v 0.13844810 -0.18991391 0.34964028
v 0.18678698 -0.05797525 -0.35820889
v 0.11488619 0.74275440 0.29922816
v 0.18965618 0.65175891 -0.17409825
v 0.13616487 0.65112072 0.24667463
v 0.21030939 -0.57643062 -0.34191388
v 0.22412698 -0.39195043 -0.33402601
v 0.18757626 -0.25505027 -0.32680234
v 0.25625777 -0.75864786 -0.37874842
v 0.33766949 0.19868746 -0.35100427
v 0.12058870 -0.20602602 0.36308008
v 0.01892086 0.35260937 -0.33053830
v 0.35557529 0.39983180 -0.31519589
v 0.14390750 0.64953363 0.25863218
v 0.18232898 0.78993636 0.25077051
v 0.19277373 0.79669327 0.00535330
v 0.15126282 0.89727569 0.06197773
v 0.20108776 -0.68134958 0.26490995
v 0.22778749 -0.26319385 0.30232549
v 0.22425374 -0.05613191 0.34686732
v 0.14426394 0.10169043 -0.37304300
v 0.19791862 0.69262344 0.18067200
v 0.22231817 -0.90889722 -0.41148004
v 0.20513751 0.76538187 0.09341497
v 0.15111525 0.80348808 -0.04999815
v 0.28785297 0.72772956 -0.06171803
v 0.24460150 -0.57064968 -0.34668955
v 0.20707086 -0.81754321 -0.39430073
v 0.19574192 -0.61375576 0.26524425
v 0.15242271 -0.03519138 0.37660307
v 0.26701573 0.49344221 -0.26802266
v 0.22452478 0.69832993 0.16629030
v 0.22078380 0.78546953 0.07444304
v 0.20599784 0.83657539 0.17199500
v 0.40278381 -0.09763643 0.20967531
v 0.34373519 0.19448480 -0.34422043
v 0.26290926 0.09608133 0.41187686
v 0.23637328 0.15922248 0.41886145
v 0.32844093 0.60023785 0.18885176
v 0.33168456 -0.83548880 0.17626898
v 0.28033710 -0.71966851 0.20955959
v 0.31323686 -0.53638726 -0.31743991
v 0.27763501 -0.22898149 -0.30273384
v 0.29529631 -0.50126940 0.22641824
v 0.35035726 -0.16467620 0.23517314
v 0.29224911 -0.03501533 0.31909937
v 0.25953367 -0.04902299 0.32285380
v 0.37640539 -0.00315711 -0.31691012
v 0.31196415 0.43326396 0.30174947
v 0.12102415 0.49850151 -0.28462556
v 0.33939996 0.39079306 -0.32696843
v 0.25154349 0.69167686 0.13074932
v 0.13366933 0.59089065 -0.23769508
v 0.23974524 0.73260307 -0.08454642
v 0.26757148 0.76059872 -0.02992250
v 0.29566297 0.72586954 -0.05780802
v 0.29189852 0.72966015 -0.05362868
v 0.29176763 0.72589070 -0.06167810
v 0.29175296 0.72587955 -0.06171803
v 0.28784606 0.72589719 -0.06561147
v 0.33439496 0.68859553 -0.09578105
v 0.36828074 -0.83096427 -0.34096995
v 0.33683330 -0.69658542 0.18455684
v 0.31448999 -0.80253637 -0.34380168
v 0.40926892 -0.81011051 -0.30413780
v 0.33456481 -0.19627403 0.24313149
v 0.31177250 -0.31052724 0.22460477
v 0.37717137 -0.00708643 -0.30720574
v 0.35035297 -0.16860048 0.23418199
v 0.34639952 -0.16493486 0.23907895
v 0.44235119 -0.17168562 0.05416743
v 0.34398192 0.43458715 0.29165798
v 0.15834850 0.51473695 0.31357974
v 0.28785297 0.72591954 -0.06556802
v 0.43192360 -0.68962520 -0.23505367
v 0.34609413 -0.50372064 0.17391440
v 0.34644297 -0.16485047 0.23906197
v 0.35035297 -0.16477048 0.23515198
v 0.28776529 -0.22871426 -0.30940342
v 0.36105368 -0.18414964 0.23425190
v 0.34186161 -0.15431659 0.24628678
v 0.35353303 -0.20654953 0.22042318
v 0.34746298 -0.16079047 0.23906197
v 0.35035297 -0.16470046 0.23517197
v 0.35348883 -0.14944291 0.23578671
v 0.76520497 0.03141521 -0.18722840
v 0.40221429 0.15160273 0.35016623
v 0.29611868 0.23940502 0.38996661
v 0.45943365 0.53969145 0.18856157
v 0.46232298 0.40169951 0.22343197
v 0.45582297 0.39809951 0.22734196
v 0.45432296 0.40169951 0.22734196
v 0.45634216 0.50397915 0.19437540
v 0.32375684 0.65078157 -0.14968939
v 0.31453350 0.74335951 0.00381394
v 0.40056846 0.69981402 -0.02901751
v 0.36099115 0.08067422 0.35615420
v 0.38003972 -0.48865739 -0.23003407
v 0.41789463 -0.61053091 0.08023981
v 0.38519281 -0.70213413 0.13434595
v 0.31635356 -0.48109555 -0.28491494
v 0.37299699 -0.40005413 0.13311219
v 0.37997884 -0.89594036 -0.34258485
v 0.36810067 -0.38296467 0.15777418
v 0.39590514 -0.36515701 -0.20438756
v 0.38160285 -0.39908895 -0.22187559
v 0.34648296 -0.16470046 0.23906197
v 0.39447421 -0.34082785 0.11469460
v 0.72535294 0.04231952 -0.08536802
v 0.42495367 -0.20633505 0.10727050
v 0.38053721 -0.19612464 0.19097058
v 0.81065232 0.06625788 -0.23479474
v 0.73638487 0.22651206 0.09857786
v 0.67462796 0.34935090 0.13736211
v 0.45587477 0.39792436 0.22735150
v 0.46363297 0.44856951 0.21173199
v 0.45576859 0.44848517 0.21559139
v 0.42466679 0.33291796 -0.31419259
v 0.45213544 0.51836318 -0.22974952
v 0.30438218 0.73417258 0.04887283
v 0.33575967 -0.66141772 -0.30073270
v 0.41670534 -0.84900409 0.09931291
v 0.75735694 0.00386621 -0.12897332
v 0.43960169 -0.47770673 -0.09491184
v 0.37488666 -0.39802605 -0.25569913
v 0.72158921 0.04613816 -0.08487785
v 0.42052215 -0.36132446 0.00140608
v 0.48316297 0.09310953 -0.22193801
v 0.48318219 0.09318362 -0.22192407
v 0.36292884 -0.02058546 0.25910568
v 0.43238297 0.23370951 0.28593197
v 0.43629298 0.23365954 0.28203198
v 0.43238297 0.22981954 0.28691199
v 0.45191297 0.39388952 0.23010197
v 0.35832232 0.22694726 0.35418853
v 0.51217604 0.40747899 0.20832025
v 0.40317199 0.27256075 0.30428123
v 0.50404668 0.47685727 -0.25885016
v 0.48314515 0.27700907 0.23886921
v 0.35975340 0.58373499 0.20003785
v 0.38692045 0.66594601 0.10825973
v 0.41565484 -0.74380940 -0.24195930
v 0.36650839 -0.36668220 -0.23745705
v 0.42944157 -0.88915104 -0.27263439
v 0.68514383 0.08597314 -0.09188054
v 0.43158656 -0.33978966 -0.11032197
v 0.42442295 -0.38554022 -0.15603341
v 0.41817951 -0.41908738 -0.15456860
v 0.75763059 0.08044142 0.04230095
v 0.41620788 -0.39160249 0.04045582
v 0.46423516 -0.21294324 -0.11743496
v 0.41860229 -0.18086775 -0.21983518
v 0.72130495 0.04632792 -0.08517481
v 0.46376365 0.10431024 0.22476296
v 0.75555575 0.02112822 -0.05412463
v 0.42457297 0.23379952 0.29374197
v 0.42450312 0.23372355 0.29385987
v 0.43968311 0.02462271 0.19621761
v 0.67244059 0.11641069 -0.16898447
v 0.43238297 0.23372953 0.28593197
v 0.42847297 0.23372953 0.28984198
v 0.42847297 0.23374952 0.28984198
v 0.43139297 0.23763952 0.28593197
v 0.42919135 0.16003974 0.30835608
v 0.42848298 0.23372953 0.28984198
v 0.42678332 0.24902618 0.28768104
v 0.43237299 0.23372953 0.28593197
v 0.44646856 0.39700630 0.23212203
v 0.47353110 0.44041920 0.20925422
v 0.46877074 0.40244463 0.22014034
v 0.46361807 0.44862619 0.21172266
v 0.45334297 0.45247951 0.21562196
v 0.45582297 0.44856951 0.21554197
v 0.47692150 -0.85738987 -0.17580666
v 0.48907557 -0.78519970 -0.10888080
v 0.46954650 -0.85777324 -0.01688397
v 0.88550299 0.26500952 -0.18671803
v 0.88553303 0.26497951 -0.18671803
v 0.88941300 0.26869953 -0.18280803
v 0.44276482 -0.19374897 -0.20317823
v 0.48081765 0.13425368 0.23016079
v 0.46988750 -0.67273390 -0.08008457
v 0.46021676 -0.67667097 0.00456521
v 0.45998919 -0.65109175 -0.14880934
v 0.82177424 0.07157488 0.06959662
v 0.44199592 -0.42041904 -0.09981304
v 0.72144300 0.04619953 -0.08514802
v 0.72535294 0.04238953 -0.08514802
v 0.72093546 0.05609224 -0.04345996
v 0.66216332 0.14647667 -0.01605523
v 0.47925296 0.09700952 -0.23095801
v 0.50797361 0.12555984 0.06835784
v 0.38516140 0.06305070 0.33473223
v 0.50378501 -0.06362297 -0.03506817
v 0.47569862 0.24004373 -0.28064546
v 0.55681574 0.29279453 -0.22569215
v 0.71958935 0.15059327 -0.22691333
v 0.62287557 0.32730550 -0.22130230
v 0.46130583 0.26776081 0.25000525
v 0.48201269 0.11380401 -0.23279177
v 0.44800296 0.39765951 0.23124199
v 0.44800296 0.39778951 0.23122197
v 0.46368450 0.44849458 0.21172018
v 0.44455618 0.43674040 0.22479913
v 0.36538613 0.71858186 -0.04427778
v 0.48269480 0.64955026 0.08639178
v 0.56668144 0.27522314 0.12910832
v 0.51618248 0.03338805 -0.06267977
v 0.63348585 0.13825636 -0.07820489
v 0.61117262 0.18184824 -0.08147927
v 0.60490239 0.25391695 -0.18069142
v 0.49035522 0.14598191 -0.24872960
v 0.49715760 0.04040133 -0.17499298
v 0.63759238 0.18672802 -0.16395165
v 0.47658765 0.08698629 -0.23170464
v 0.47925282 0.09296493 -0.22968072
v 0.47929299 0.09310953 -0.22967803
v 0.48324570 0.09304352 -0.22171697
v 0.65258318 0.23538530 0.07706832
v 0.53548968 0.25224549 0.12012227
v 0.53468800 0.26358753 0.16430697
v 0.54960525 0.34796786 -0.24703528
v 0.51659000 0.19837441 -0.20152147
v 0.45803404 0.35851488 0.23416311
v 0.54087240 0.45787174 -0.25718349
v 0.55541819 0.59286588 -0.15183172
v 0.58752406 0.23268615 0.03119295
v 0.49614736 -0.11654667 -0.10706754
v 0.47407702 0.08043969 0.13301858
v 0.54019165 0.16199349 -0.13925268
v 0.61263674 0.32869986 -0.21217151
v 0.66650754 0.16440262 -0.00271331
v 0.56674445 0.23364073 -0.11885801
v 0.52713329 0.31580392 0.18107603
v 0.51840806 0.38440311 0.19674602
v 0.56533569 0.22209156 -0.03764120
v 0.48095185 0.47790131 0.19807383
v 0.53589302 0.18909456 -0.12387154
v 0.57008851 0.24979722 -0.13355651
v 0.72850847 0.03965410 -0.08402182
v 0.70820022 0.06219788 -0.07587158
v 0.62360293 0.37382907 0.16733727
v 0.68766093 0.44766083 0.13576142
v 0.52406484 0.41036609 -0.27639291
v 0.48394248 0.68896896 0.00639907
v 0.75318146 0.19419287 0.08301528
v 0.68988460 0.17869703 0.05473468
v 0.60193688 0.53398389 0.15835877
v 0.60918504 0.64960992 -0.03303522
v 0.72235584 0.15153190 -0.21757427
v 0.59891325 0.29141954 0.11806963
v 0.56829429 0.59752488 -0.15728034
v 0.65341318 0.61889213 0.03688338
v 0.64843106 0.59832114 0.09346662
v 0.71220261 0.39162907 -0.19835770
v 0.65720701 0.54026389 -0.16844131
v 0.60794520 0.60399038 0.09568515
v 0.86829060 0.30590168 -0.18579499
v 0.70302701 0.55494976 -0.10848963
v 0.63446105 0.63228428 -0.07243402
v 0.81123972 0.24076410 0.06610461
v 0.77514124 0.20910649 -0.23182513
v 0.72347516 0.52974957 0.07174098
v 0.69404370 0.60889399 0.01057689
v 0.76837999 0.02031469 -0.04184914
v 0.87010896 0.11024290 0.07102323
v 0.72033513 0.24072957 -0.23305640
v 0.71122181 0.42711908 0.13185766
v 0.75909162 0.49965706 -0.10663278
v 0.74494189 0.52708083 0.05173671
v 0.84210759 0.27607417 0.05610093
v 0.79416013 0.40311703 0.05504684
v 0.80638242 0.39061338 -0.14976999
v 0.80404818 0.44908020 -0.01842722
v 0.75794858 0.51259643 -0.03044417
v 0.68592674 0.40714154 -0.21311969
v 0.81235665 0.41684791 -0.09143376
v 0.86347985 0.25883371 0.02262409
v 0.86988235 0.27660286 -0.19842392
v 0.86597300 0.28060952 -0.19833803
v 0.78144789 0.39063731 -0.16256751
v 0.82912564 0.41760454 -0.01833068
v 0.86147922 0.28093910 -0.20043327
v 0.86578345 0.28060633 -0.19842878
v 0.88596970 0.13013285 -0.23902716
v 0.86344808 0.28372970 -0.19796869
v 0.79240203 0.42991456 0.06145326
v 0.87778926 0.31909150 -0.10455266
v 0.96091133 0.19099903 -0.02189241
v 0.86977297 0.27669951 -0.19842803
v 0.82088393 0.27654925 -0.21612409
v 0.88160294 0.27278951 -0.18470801
v 0.87759340 0.27286601 -0.18675075
v 0.88550299 0.26497951 -0.18672802
v 0.87509656 0.30824128 -0.03238974
v 0.84024549 0.24654646 -0.23127554
v 0.89188486 0.31813633 -0.09507361
v 0.92837262 0.16650894 0.02683588
v 0.87770295 0.27278951 -0.18671803
v 0.88160294 0.26888952 -0.18671803
v 0.88941300 0.26110953 -0.18671803
v 0.88161623 0.26889291 -0.18671803
v 0.88924509 0.28439331 -0.17434196
v 0.98200232 0.20887017 -0.09100311
v 0.97061974 0.20177545 -0.17195231
v 0.93210500 0.24377525 -0.05727878
v 0.88486487 0.30136514 -0.02541227
v 0.93820798 0.24828222 -0.17773488
f 5 1 19
f 12 31 4
f 1 4 31
f 3 1 31
f 6 7 8
f 13 5 19
f 4 11 2
f 1 3 19
f 14 15 18
f 4 1 51
f 3 31 16
f 1 5 33
f 20 17 21
f 19 17 39
f 12 4 2
f 15 20 22
f 4 51 11
f 1 33 51
f 33 5 13
f 14 18 17
f 14 17 20
f 15 14 20
f 23 134 136
f 28 17 19
f 25 26 24
f 22 21 24
f 24 26 22
f 21 17 28
f 40 25 28
f 24 21 28
f 2 50 27
f 22 20 21
f 25 15 26
f 15 22 26
f 40 18 25
f 18 15 25
f 25 24 28
f 11 50 2
f 27 49 2
f 12 2 49
f 19 3 52
f 3 16 52
f 33 13 126
f 31 32 16
f 29 27 55
f 18 40 29
f 17 18 39
f 40 34 42
f 37 41 53
f 28 19 56
f 12 30 32
f 31 12 32
f 32 80 16
f 52 16 80
f 83 33 126
f 9 43 44
f 27 29 9
f 36 42 43
f 55 27 62
f 34 40 35
f 44 38 37
f 44 46 34
f 44 47 38
f 29 36 43
f 47 44 34
f 36 29 40
f 9 29 43
f 42 36 40
f 44 43 46
f 9 44 37
f 38 47 41
f 34 46 42
f 42 46 43
f 41 47 35
f 47 34 35
f 18 29 55
f 35 40 10
f 27 50 62
f 39 18 48
f 28 56 40
f 19 39 13
f 56 19 52
f 41 10 53
f 10 41 35
f 41 37 38
f 9 37 53
f 9 53 84
f 18 55 48
f 84 53 10
f 50 11 66
f 126 13 57
f 58 90 116
f 51 66 11
f 60 58 82
f 30 61 32
f 51 33 159
f 33 83 159
f 10 40 84
f 84 27 9
f 84 49 27
f 52 111 56
f 12 49 54
f 30 12 65
f 68 69 70
f 122 72 98
f 73 75 68
f 76 60 82
f 70 77 78
f 77 79 78
f 126 57 102
f 119 52 80
f 70 69 77
f 56 84 40
f 55 143 48
f 84 54 49
f 50 66 85
f 62 50 85
f 101 86 87
f 86 88 87
f 12 54 65
f 39 59 13
f 110 81 59
f 13 59 81
f 116 90 81
f 79 74 102
f 81 91 92
f 93 94 95
f 74 75 82
f 96 75 73
f 86 96 73
f 68 70 78
f 77 69 79
f 76 90 60
f 75 81 82
f 98 111 52
f 111 94 97
f 73 68 88
f 69 75 79
f 100 87 102
f 82 81 76
f 81 90 76
f 78 79 102
f 88 68 78
f 75 74 79
f 82 58 102
f 75 69 68
f 57 13 81
f 57 81 75
f 101 87 100
f 57 96 101
f 86 101 96
f 57 75 96
f 57 101 100
f 100 102 57
f 86 73 88
f 87 88 102
f 88 78 102
f 32 61 103
f 32 103 80
f 143 55 62
f 56 135 84
f 48 59 39
f 106 122 107
f 135 56 111
f 62 85 105
f 59 108 110
f 81 110 91
f 109 71 110
f 108 59 89
f 91 109 110
f 108 89 109
f 6 112 113
f 71 59 116
f 99 67 113
f 110 108 91
f 108 109 91
f 109 89 71
f 89 59 71
f 91 110 92
f 81 92 71
f 7 122 114
f 93 97 94
f 67 7 113
f 112 6 94
f 106 107 115
f 71 92 110
f 99 113 112
f 7 6 113
f 97 115 107
f 111 97 107
f 93 106 115
f 7 67 122
f 85 66 118
f 107 122 111
f 111 98 112
f 116 81 71
f 90 58 60
f 112 98 99
f 97 93 115
f 99 72 67
f 72 99 98
f 67 72 122
f 111 112 94
f 114 117 8
f 7 114 8
f 8 117 94
f 94 6 8
f 106 95 114
f 95 117 114
f 94 117 95
f 93 95 106
f 122 106 114
f 74 82 102
f 118 66 123
f 98 52 122
f 58 116 102
f 66 51 123
f 61 30 63
f 122 52 119
f 54 84 45
f 103 138 80
f 105 143 62
f 45 84 135
f 59 136 116
f 136 59 48
f 30 65 63
f 205 51 159
f 128 129 130
f 105 85 121
f 143 105 121
f 48 143 136
f 131 133 134
f 135 111 145
f 136 156 116
f 104 85 118
f 145 111 122
f 157 102 116
f 123 51 205
f 102 173 126
f 138 119 80
f 159 83 206
f 139 140 128
f 143 121 64
f 131 132 137
f 132 146 137
f 146 144 137
f 45 120 54
f 120 63 54
f 120 45 141
f 54 63 65
f 45 135 141
f 133 131 137
f 146 136 143
f 23 136 132
f 136 146 132
f 131 134 132
f 133 137 144
f 156 133 144
f 132 134 23
f 136 134 156
f 134 133 156
f 156 144 146
f 116 156 157
f 85 104 121
f 145 122 119
f 102 157 173
f 149 150 152
f 83 126 150
f 139 128 151
f 149 152 148
f 148 152 158
f 154 190 120
f 154 120 142
f 143 64 146
f 120 155 63
f 120 190 155
f 64 121 104
f 120 141 142
f 172 141 135
f 104 118 284
f 119 124 145
f 103 61 297
f 160 148 140
f 119 165 124
f 149 148 161
f 138 103 297
f 151 128 162
f 254 206 150
f 160 140 139
f 206 83 150
f 162 164 254
f 128 130 162
f 150 149 163
f 128 140 129
f 152 150 158
f 150 163 254
f 161 160 140
f 148 158 140
f 254 151 162
f 129 140 158
f 130 164 162
f 161 148 160
f 160 163 140
f 163 161 140
f 149 161 163
f 129 158 164
f 130 129 164
f 160 139 151
f 254 163 151
f 163 160 151
f 126 158 150
f 254 164 158
f 183 175 153
f 183 177 175
f 153 175 167
f 153 167 169
f 64 219 252
f 64 170 146
f 219 64 104
f 220 156 146
f 142 141 172
f 156 220 157
f 172 135 145
f 126 173 203
f 159 206 205
f 138 297 207
f 165 119 138
f 153 147 176
f 147 174 176
f 175 166 167
f 183 153 176
f 147 153 200
f 183 176 179
f 168 194 178
f 153 169 201
f 184 181 182
f 186 187 188
f 187 186 193
f 189 168 178
f 187 191 192
f 191 168 192
f 183 194 193
f 193 191 187
f 184 183 193
f 188 189 181
f 188 192 189
f 184 193 186
f 187 192 188
f 181 178 182
f 193 194 191
f 191 194 168
f 192 168 189
f 184 186 188
f 184 188 181
f 217 201 169
f 183 179 190
f 194 183 190
f 184 182 218
f 194 190 218
f 181 189 178
f 178 194 182
f 182 194 218
f 64 217 170
f 170 217 169
f 218 190 154
f 64 252 217
f 179 171 190
f 169 243 170
f 142 218 154
f 171 155 190
f 170 202 146
f 220 146 202
f 222 157 220
f 155 213 63
f 204 63 213
f 196 118 123
f 63 204 61
f 126 203 158
f 165 138 207
f 203 254 158
f 175 177 234
f 147 208 174
f 147 180 208
f 180 147 215
f 234 166 175
f 167 166 199
f 200 215 147
f 167 199 216
f 176 241 179
f 177 183 185
f 201 200 153
f 183 184 185
f 243 169 167
f 184 218 185
f 202 170 243
f 195 218 142
f 284 219 104
f 142 172 195
f 172 145 124
f 284 118 196
f 271 207 297
f 210 211 212
f 177 198 234
f 166 234 255
f 197 180 215
f 174 301 176
f 200 201 239
f 243 167 216
f 171 179 249
f 201 217 252
f 261 218 195
f 155 171 249
f 283 172 124
f 157 222 173
f 209 224 258
f 209 225 224
f 226 212 257
f 227 228 225
f 234 198 229
f 233 208 180
f 197 233 180
f 212 211 231
f 226 234 229
f 210 229 211
f 234 226 257
f 253 235 236
f 210 226 229
f 223 237 256
f 211 229 231
f 229 198 231
f 212 231 257
f 226 210 212
f 231 198 257
f 208 238 223
f 290 198 177
f 177 214 303
f 241 176 301
f 290 177 303
f 239 215 200
f 177 185 214
f 214 232 235
f 236 235 244
f 236 240 242
f 253 214 235
f 235 232 244
f 232 245 246
f 245 232 214
f 236 245 240
f 245 236 246
f 240 245 214
f 244 246 236
f 232 246 244
f 218 240 214
f 240 218 303
f 185 218 214
f 247 248 315
f 243 259 202
f 280 201 252
f 202 259 221
f 261 195 251
f 249 304 155
f 237 209 256
f 155 304 213
f 220 202 221
f 195 172 251
f 220 221 222
f 251 172 283
f 284 369 219
f 224 225 237
f 173 222 262
f 310 173 262
f 124 285 283
f 230 233 228
f 196 123 294
f 173 310 203
f 297 61 268
f 272 254 203
f 206 254 272
f 223 224 237
f 209 258 256
f 237 225 209
f 223 256 208
f 224 228 258
f 224 225 228
f 208 230 238
f 174 208 256
f 230 227 238
f 227 230 228
f 228 233 258
f 223 238 224
f 208 233 230
f 227 225 224
f 238 227 224
f 257 198 290
f 301 174 256
f 255 199 166
f 290 255 234
f 257 290 234
f 253 236 250
f 216 259 243
f 259 216 199
f 236 246 250
f 250 246 242
f 239 197 215
f 303 214 253
f 242 240 253
f 240 303 253
f 246 236 242
f 250 242 253
f 303 218 261
f 241 249 179
f 280 239 201
f 219 280 252
f 221 282 222
f 263 264 265
f 263 269 264
f 205 288 123
f 206 288 205
f 288 206 272
f 272 203 273
f 312 207 271
f 233 281 258
f 197 299 233
f 281 233 299
f 256 289 301
f 259 199 306
f 241 301 260
f 247 275 274
f 315 276 260
f 279 239 280
f 241 260 275
f 274 275 277
f 249 293 304
f 222 308 262
f 204 213 296
f 269 267 285
f 265 264 266
f 269 285 295
f 283 285 316
f 267 269 286
f 286 269 263
f 286 263 265
f 266 316 265
f 295 264 269
f 285 124 295
f 61 204 268
f 165 207 298
f 272 125 288
f 207 312 298
f 272 273 125
f 256 258 281
f 275 276 277
f 276 275 260
f 315 260 301
f 241 275 247
f 248 247 292
f 277 248 292
f 276 248 277
f 241 247 315
f 247 274 292
f 274 277 292
f 248 276 315
f 305 303 261
f 249 241 315
f 221 259 306
f 293 249 315
f 221 306 282
f 283 300 251
f 289 256 281
f 285 267 316
f 264 295 266
f 267 286 316
f 204 296 268
f 266 295 316
f 286 265 316
f 294 123 309
f 124 390 295
f 124 165 390
f 309 123 288
f 297 268 321
f 203 270 273
f 311 288 125
f 383 281 299
f 291 301 302
f 278 239 279
f 280 278 279
f 251 386 261
f 219 369 280
f 262 308 368
f 308 222 282
f 213 344 296
f 330 283 316
f 213 304 344
f 294 441 196
f 316 295 390
f 203 310 270
f 165 298 390
f 339 312 271
f 287 273 270
f 289 281 383
f 289 302 301
f 197 313 299
f 290 303 305
f 305 255 290
f 199 255 306
f 306 255 328
f 313 197 239
f 301 291 315
f 278 313 239
f 278 280 429
f 305 261 386
f 300 283 330
f 330 316 371
f 441 294 309
f 270 310 335
f 297 321 271
f 287 125 273
f 287 298 312
f 125 287 127
f 312 127 287
f 328 255 324
f 341 327 364
f 306 328 379
f 300 386 251
f 304 293 428
f 316 390 371
f 318 319 320
f 319 317 320
f 390 298 336
f 298 287 336
f 270 336 287
f 312 339 127
f 322 400 370
f 355 125 127
f 324 255 323
f 429 313 278
f 306 379 282
f 282 379 329
f 368 308 343
f 369 284 441
f 331 332 345
f 441 284 196
f 332 331 334
f 262 368 317
f 317 368 346
f 319 318 333
f 333 262 317
f 262 333 335
f 319 333 317
f 335 333 389
f 262 335 310
f 338 336 270
f 311 413 288
f 321 337 339
f 270 335 338
f 271 321 339
f 127 339 355
f 313 429 307
f 341 325 326
f 291 340 428
f 386 314 305
f 304 428 344
f 459 386 300
f 308 282 329
f 320 317 346
f 348 346 347
f 349 332 350
f 332 334 350
f 351 346 334
f 352 349 353
f 333 318 331
f 333 331 345
f 352 348 345
f 348 347 345
f 349 350 353
f 334 346 350
f 331 351 334
f 331 318 351
f 318 320 351
f 333 345 389
f 352 353 348
f 353 346 348
f 320 346 351
f 350 346 353
f 345 349 352
f 345 332 349
f 390 374 371
f 309 288 413
f 355 311 125
f 325 356 326
f 323 255 305
f 327 341 340
f 356 357 361
f 362 359 360
f 328 324 379
f 356 364 357
f 364 377 357
f 361 357 363
f 341 364 325
f 340 377 428
f 363 377 340
f 327 291 302
f 365 305 359
f 340 341 326
f 356 325 364
f 358 366 367
f 359 305 314
f 326 356 361
f 361 363 340
f 378 359 314
f 340 326 361
f 291 327 340
f 357 377 363
f 378 314 386
f 315 291 293
f 291 428 293
f 280 369 431
f 300 330 459
f 343 308 329
f 330 371 373
f 346 368 347
f 345 347 389
f 321 268 337
f 413 311 400
f 338 390 336
f 339 414 355
f 313 385 299
f 383 299 457
f 323 305 365
f 359 358 365
f 376 367 360
f 358 367 376
f 358 366 375
f 375 365 358
f 376 360 378
f 359 362 358
f 375 366 376
f 378 365 375
f 378 360 359
f 364 327 377
f 366 362 367
f 362 366 358
f 367 362 360
f 376 366 358
f 375 376 378
f 368 343 388
f 368 388 347
f 479 309 413
f 338 335 389
f 372 390 338
f 381 370 382
f 355 354 311
f 414 415 355
f 383 394 289
f 299 385 457
f 327 302 377
f 385 313 307
f 342 378 386
f 322 381 387
f 371 374 373
f 413 400 482
f 387 381 382
f 370 400 354
f 354 400 311
f 370 354 382
f 381 322 370
f 354 355 415
f 399 400 392
f 289 394 302
f 324 323 393
f 378 342 365
f 430 342 386
f 440 379 324
f 427 440 324
f 280 431 429
f 431 369 450
f 467 330 373
f 296 442 268
f 419 393 323
f 389 347 411
f 482 479 413
f 337 268 417
f 390 372 412
f 397 398 354
f 398 382 354
f 387 382 398
f 392 387 398
f 399 401 396
f 399 404 400
f 399 396 402
f 395 396 391
f 392 398 397
f 401 392 397
f 401 397 396
f 403 395 391
f 405 391 354
f 402 396 395
f 396 397 391
f 397 354 391
f 405 406 391
f 338 432 416
f 407 395 403
f 408 406 405
f 399 402 407
f 402 395 407
f 404 399 407
f 399 392 401
f 322 387 392
f 400 322 392
f 404 408 405
f 403 391 406
f 408 403 406
f 403 408 407
f 404 405 354
f 404 407 408
f 337 414 339
f 302 394 452
f 383 457 394
f 323 365 419
f 302 452 384
f 458 419 365
f 302 384 377
f 385 307 457
f 428 377 384
f 420 324 393
f 324 420 427
f 344 428 437
f 329 379 440
f 459 330 380
f 380 330 467
f 450 369 441
f 343 410 388
f 443 389 411
f 417 433 337
f 372 338 416
f 338 389 432
f 433 414 337
f 415 418 354
f 420 393 447
f 420 447 425
f 426 425 422
f 420 425 423
f 420 424 409
f 421 420 409
f 423 425 426
f 425 447 422
f 424 426 422
f 409 422 421
f 424 422 409
f 423 426 424
f 423 424 420
f 428 384 435
f 365 342 458
f 430 386 459
f 343 329 410
f 442 417 268
f 390 502 374
f 502 390 412
f 432 389 443
f 412 372 416
f 482 400 404
f 454 404 354
f 418 454 354
f 414 445 415
f 457 307 436
f 422 447 421
f 420 421 427
f 429 431 436
f 502 373 374
f 411 347 388
f 388 410 411
f 309 480 441
f 434 502 412
f 416 434 412
f 432 434 416
f 482 404 454
f 446 418 415
f 446 415 445
f 421 447 427
f 393 419 447
f 456 457 436
f 428 435 437
f 427 448 440
f 342 430 458
f 440 449 329
f 450 441 439
f 296 344 442
f 480 309 479
f 451 434 432
f 443 444 432
f 451 432 444
f 455 483 489
f 438 457 456
f 447 473 427
f 448 427 473
f 496 458 430
f 440 448 449
f 437 465 344
f 476 459 380
f 466 329 449
f 410 329 466
f 439 441 480
f 417 442 460
f 501 443 411
f 523 479 482
f 417 460 433
f 444 443 461
f 414 433 483
f 483 445 414
f 446 445 453
f 454 418 462
f 462 418 446
f 451 444 463
f 463 444 461
f 446 453 463
f 462 446 463
f 457 452 394
f 458 470 419
f 437 435 530
f 456 436 471
f 496 505 458
f 437 530 472
f 508 554 436
f 508 436 431
f 430 459 476
f 477 431 450
f 373 502 467
f 410 517 411
f 467 502 478
f 523 480 479
f 434 451 468
f 461 443 570
f 570 549 461
f 451 524 481
f 453 445 524
f 524 451 453
f 461 462 463
f 451 463 453
f 454 462 484
f 452 493 384
f 469 419 470
f 447 419 469
f 469 492 447
f 494 438 456
f 470 458 529
f 437 472 497
f 495 430 476
f 439 477 450
f 465 437 497
f 466 449 622
f 526 380 467
f 410 466 517
f 344 465 442
f 434 468 502
f 569 443 501
f 523 482 454
f 481 468 451
f 488 489 490
f 462 461 549
f 484 462 549
f 384 550 435
f 452 457 491
f 493 452 532
f 491 438 494
f 449 464 475
f 496 430 495
f 380 526 476
f 622 449 475
f 478 564 467
f 522 502 468
f 433 460 483
f 570 443 569
f 503 488 487
f 488 503 489
f 503 455 489
f 483 490 489
f 455 487 486
f 485 490 486
f 503 487 455
f 483 455 486
f 488 490 485
f 486 487 485
f 487 488 485
f 483 486 524
f 524 486 490
f 445 483 524
f 634 484 549
f 532 452 491
f 438 491 457
f 550 384 493
f 494 456 471
f 529 458 505
f 435 550 530
f 506 507 499
f 492 473 447
f 471 436 554
f 472 530 572
f 448 473 533
f 448 533 509
f 498 474 514
f 507 474 498
f 496 495 511
f 512 474 513
f 448 509 449
f 476 510 495
f 559 510 476
f 474 507 513
f 508 431 477
f 476 526 559
f 466 516 517
f 593 526 467
f 411 517 501
f 564 478 566
f 519 520 521
f 634 523 454
f 524 490 525
f 484 634 454
f 469 551 492
f 470 529 469
f 572 527 535
f 473 492 533
f 508 609 554
f 496 531 505
f 534 535 527
f 511 498 514
f 536 513 506
f 540 531 496
f 512 514 474
f 499 507 498
f 510 514 512
f 536 506 499
f 511 499 498
f 512 499 510
f 512 536 499
f 506 513 507
f 499 511 510
f 540 496 511
f 495 510 511
f 508 477 609
f 512 513 536
f 511 514 540
f 464 449 509
f 559 514 510
f 658 514 559
f 622 516 466
f 442 465 547
f 439 480 673
f 516 501 517
f 545 632 546
f 480 523 567
f 460 548 483
f 551 469 529
f 550 493 532
f 571 550 532
f 504 494 471
f 471 554 504
f 551 533 492
f 530 550 527
f 529 505 528
f 572 535 534
f 530 527 572
f 472 572 581
f 509 533 537
f 472 581 497
f 514 658 540
f 464 587 475
f 475 587 622
f 520 519 544
f 547 465 497
f 560 561 562
f 564 593 467
f 573 532 491
f 632 633 546
f 502 522 478
f 518 569 501
f 460 442 548
f 681 567 523
f 483 548 490
f 548 655 490
f 523 634 681
f 481 635 468
f 635 524 525
f 635 481 524
f 573 491 494
f 550 571 527
f 504 554 613
f 505 531 528
f 531 556 528
f 527 577 534
f 615 554 576
f 554 609 576
f 577 575 534
f 537 533 579
f 534 575 572
f 540 556 531
f 556 540 500
f 582 552 538
f 539 464 537
f 537 464 509
f 540 658 500
f 559 526 583
f 658 559 583
f 561 560 589
f 590 562 586
f 590 586 585
f 591 590 585
f 592 591 595
f 477 439 673
f 560 590 594
f 595 585 586
f 586 593 564
f 566 586 564
f 562 596 560
f 596 590 560
f 590 596 562
f 547 497 624
f 596 560 594
f 560 596 589
f 566 595 586
f 595 591 585
f 596 594 591
f 594 590 591
f 589 596 592
f 596 591 592
f 595 566 628
f 563 544 653
f 501 516 568
f 565 501 568
f 597 653 478
f 442 547 548
f 501 565 518
f 633 601 546
f 602 545 546
f 490 655 525
f 674 634 549
f 532 573 603
f 603 571 532
f 606 607 608
f 573 494 504
f 573 504 603
f 551 529 605
f 605 612 551
f 528 605 529
f 551 612 533
f 527 571 611
f 612 579 533
f 553 527 611
f 527 553 577
f 612 613 615
f 611 528 553
f 612 615 579
f 555 616 617
f 556 577 553
f 556 553 528
f 613 554 615
f 577 556 575
f 579 615 576
f 579 657 537
f 572 575 580
f 575 556 500
f 579 576 657
f 500 580 575
f 581 572 580
f 539 537 657
f 623 587 464
f 477 641 609
f 624 497 644
f 497 642 644
f 622 587 610
f 620 629 644
f 593 583 526
f 622 610 516
f 641 477 673
f 595 628 592
f 561 628 593
f 592 628 589
f 561 593 562
f 628 561 589
f 562 593 586
f 547 624 651
f 478 653 566
f 630 563 653
f 631 520 544
f 597 630 653
f 631 597 521
f 599 664 653
f 630 544 520
f 544 521 520
f 544 630 521
f 631 630 520
f 521 630 631
f 630 631 563
f 631 630 597
f 521 599 519
f 631 544 563
f 600 632 545
f 519 599 544
f 599 653 544
f 521 597 633
f 478 633 597
f 599 521 633
f 602 546 601
f 522 633 478
f 522 601 633
f 602 522 600
f 522 602 601
f 545 602 600
f 518 570 569
f 549 570 674
f 605 603 604
f 603 605 611
f 605 604 612
f 571 603 611
f 603 504 604
f 613 604 504
f 611 605 528
f 604 613 612
f 576 609 657
f 657 623 539
f 539 623 464
f 580 500 637
f 637 642 580
f 642 581 580
f 587 623 621
f 637 500 658
f 497 581 642
f 641 657 609
f 646 645 557
f 645 647 557
f 557 647 558
f 624 644 629
f 647 645 644
f 647 644 642
f 620 646 629
f 629 646 558
f 587 621 610
f 646 557 558
f 644 645 620
f 645 646 620
f 558 647 629
f 652 624 629
f 629 647 642
f 610 650 516
f 649 583 593
f 663 649 593
f 673 625 641
f 663 593 628
f 516 650 568
f 653 628 566
f 653 663 628
f 673 480 567
f 598 633 632
f 522 598 600
f 633 664 599
f 598 664 633
f 548 547 654
f 522 666 664
f 522 664 598
f 598 632 600
f 468 686 522
f 565 677 518
f 666 522 686
f 635 686 468
f 570 518 677
f 659 623 657
f 641 659 657
f 625 659 641
f 642 637 667
f 623 659 621
f 637 658 667
f 652 629 642
f 652 642 667
f 649 658 583
f 621 636 650
f 650 610 621
f 652 651 624
f 568 650 565
f 653 664 663
f 654 547 651
f 621 659 636
f 659 665 636
f 662 659 625
f 659 662 665
f 668 652 667
f 668 667 665
f 665 667 649
f 658 649 667
f 652 668 651
f 565 650 671
f 654 655 548
f 673 567 681
f 678 525 655
f 681 634 674
f 683 570 677
f 678 635 525
f 674 570 683
f 636 665 656
f 625 640 662
f 665 649 680
f 640 625 627
f 668 660 651
f 665 680 661
f 651 660 654
f 680 649 663
f 680 663 664
f 650 636 671
f 671 677 565
f 654 660 684
f 681 685 673
f 681 674 689
f 635 678 686
f 619 665 662
f 619 662 638
f 665 619 656
f 638 662 588
f 639 668 665
f 639 665 661
f 643 668 639
f 668 643 660
f 656 648 636
f 616 538 617
f 664 543 680
f 664 666 672
f 666 686 672
f 688 678 655
f 693 689 674
f 686 678 682
f 574 643 639
f 588 662 640
f 661 574 639
f 656 619 648
f 661 680 676
f 543 676 680
f 636 648 671
f 705 627 673
f 627 625 673
f 673 685 705
f 543 664 672
f 692 672 686
f 688 655 654
f 685 681 689
f 674 683 693
f 616 582 538
f 669 584 555
f 619 618 578
f 679 660 643
f 640 627 696
f 627 705 696
f 677 671 697
f 643 515 679
f 654 684 710
f 654 710 688
f 677 697 683
f 692 686 682
f 552 582 670
f 670 618 638
f 588 552 638
f 541 515 588
f 555 584 670
f 582 555 670
f 638 618 619
f 676 574 661
f 670 638 552
f 515 643 574
f 694 574 676
f 552 584 669
f 640 626 588
f 640 696 626
f 648 619 578
f 660 679 691
f 542 671 648
f 671 542 697
f 705 685 702
f 698 685 689
f 682 678 688
f 698 689 693
f 618 670 584
f 584 694 618
f 574 694 552
f 616 555 582
f 694 578 618
f 617 538 669
f 626 541 588
f 669 555 617
f 669 538 552
f 515 552 588
f 574 552 515
f 660 691 720
f 675 676 543
f 660 720 684
f 698 702 685
f 697 699 683
f 682 688 704
f 692 682 704
f 693 683 699
f 584 552 694
f 541 626 696
f 648 578 542
f 515 541 679
f 578 614 695
f 675 614 578
f 578 695 542
f 696 705 725
f 697 542 700
f 701 672 692
f 697 716 699
f 704 703 692
f 716 693 699
f 578 694 676
f 578 676 675
f 714 679 541
f 679 714 691
f 725 714 696
f 543 672 675
f 690 675 672
f 708 709 687
f 684 720 710
f 710 706 688
f 701 692 703
f 703 688 706
f 703 704 688
f 693 716 711
f 675 695 614
f 541 696 714
f 695 727 700
f 542 695 700
f 713 712 715
f 672 701 690
f 709 715 687
f 716 697 700
f 690 701 707
f 698 693 711
f 711 716 700
f 707 695 690
f 695 675 690
f 691 714 720
f 713 709 719
f 712 719 708
f 708 737 725
f 712 713 719
f 725 712 708
f 709 708 719
f 712 725 687
f 712 687 715
f 720 722 732
f 687 725 705
f 709 713 715
f 723 607 606
f 707 701 724
f 705 702 687
f 732 710 720
f 710 732 717
f 736 711 700
f 736 726 711
f 710 717 706
f 724 701 703
f 717 703 706
f 726 702 698
f 726 698 711
f 703 717 724
f 727 695 707
f 728 729 731
f 728 731 721
f 730 720 734
f 722 720 729
f 722 728 721
f 607 723 730
f 723 720 730
f 722 729 728
f 731 729 606
f 708 687 737
f 729 723 606
f 729 720 723
f 722 721 732
f 732 606 608
f 734 732 608
f 608 730 734
f 607 730 608
f 721 731 732
f 731 606 732
f 707 724 735
f 737 687 702
f 737 702 726
f 727 736 700
f 735 727 707
f 714 725 734
f 725 737 734
f 734 720 714
f 734 717 732
f 735 724 717
f 727 735 718
f 736 727 718
f 726 733 737
f 733 736 718
f 735 733 718
f 726 736 733
f 735 734 733
f 717 734 735
f 734 737 733
f 307 429 436

