# https://github.com/mikedh/trimesh
v 0.03911633 -0.02176550 0.07726465
v 0.03829557 0.02112794 0.07809761
v 0.03911633 -0.02258982 0.07726465
v 0.03911633 0.01369949 0.06736166
v 0.03747480 0.02194750 0.07809761
v 0.02757191 0.00297375 0.07894600
v 0.03747480 -0.02258982 0.07809761
v 0.03829557 0.02194750 0.02941563
v 0.03911633 -0.02341891 0.07562958
v 0.03911633 0.01369949 -0.03901062
v -0.03758313 0.02277182 0.07728008
v -0.03841157 0.02194750 0.07809761
v 0.01025144 0.01039743 0.07894600
v 0.03664636 0.02360091 -0.05304757
v 0.03581793 0.02277182 0.06075967
v 0.02262430 -0.01103976 0.07894600
v -0.03758313 -0.02258982 0.07809761
v 0.00529616 -0.02424800 0.07646254
v 0.03581793 -0.02424800 0.07564500
v -0.01448661 -0.01599046 0.07894600
v 0.03829557 0.02194750 -0.07695665
v 0.03747480 0.02277182 -0.07778961
v 0.03747480 -0.02258982 -0.07698750
v 0.03829557 -0.02176550 -0.07778961
v 0.03911633 -0.01434182 -0.04477965
v 0.03911633 0.00462240 -0.06705366
v 0.01025144 0.02360091 0.03024859
v -0.00293452 0.02443000 -0.04727853
v -0.03758313 0.02360091 -0.02830552
v -0.03841157 0.02360091 -0.04808065
v -0.03923233 0.02277659 -0.01590365
v -0.03676236 -0.01351273 0.07894600
v -0.03098631 0.00874878 0.07894600
v -0.03923233 0.01864544 0.05005457
v -0.03923233 0.01039743 0.06489363
v -0.03841157 -0.02258982 0.07479662
v 0.03664636 0.02360091 -0.07615454
v 0.00860224 0.02443000 -0.05304757
v 0.02427350 0.02360091 0.01867968
v -0.03758313 -0.02341891 0.07728008
v -0.02191186 -0.02424800 0.06737709
v 0.00529616 -0.02424800 0.02198068
v 0.02840034 -0.02341891 -0.02500453
v 0.03664636 0.01947453 -0.07863800
v -0.03841157 0.02277182 -0.07778961
v -0.03841157 0.02360091 -0.07698750
v 0.01107220 -0.02341891 -0.03737555
v 0.03087031 -0.02258982 -0.07778961
v 0.03664636 -0.02176073 -0.07863800
v 0.03911633 -0.00773770 -0.06705366
v -0.00624059 0.02443000 -0.05634856
v -0.03923233 0.02277659 -0.07532158
v -0.03923233 -0.00279175 0.05335557
v -0.03923233 -0.01268840 -0.07038551
v -0.03841157 -0.02176550 -0.07532158
v 0.00447539 0.02443000 -0.06458563
v -0.03676236 -0.02258982 -0.05468264
v -0.00706903 -0.02424800 0.02444871
v -0.02356106 -0.02341891 -0.02500453
v -0.01283741 -0.02341891 -0.03570963
v -0.03758313 0.01782588 -0.07863800
v -0.03923233 -0.00279175 -0.07615454
v -0.03758313 -0.02094594 -0.07863800
v -0.02933711 -0.02258982 -0.06048252
f 1 2 3
f 1 3 9
f 1 9 25
f 1 25 50
f 1 50 26
f 1 26 10
f 1 10 4
f 1 4 2
f 2 5 6
f 2 6 7
f 2 7 3
f 2 4 8
f 2 8 5
f 3 7 9
f 4 10 21
f 4 21 8
f 5 11 12
f 5 12 13
f 5 13 6
f 5 8 14
f 5 14 15
f 5 15 11
f 6 16 7
f 6 13 33
f 6 33 32
f 6 32 20
f 6 20 16
f 7 17 40
f 7 40 18
f 7 18 19
f 7 19 9
f 7 16 20
f 7 20 17
f 8 21 22
f 8 22 14
f 9 19 23
f 9 23 24
f 9 24 25
f 10 26 21
f 11 15 27
f 11 27 28
f 11 28 29
f 11 29 30
f 11 30 31
f 11 31 12
f 12 17 32
f 12 32 33
f 12 33 13
f 12 31 34
f 12 34 35
f 12 35 36
f 12 36 17
f 14 22 37
f 14 37 38
f 14 38 39
f 14 39 15
f 15 39 27
f 17 20 32
f 17 36 40
f 18 40 41
f 18 41 58
f 18 58 42
f 18 42 19
f 19 42 43
f 19 43 23
f 21 26 24
f 21 24 22
f 22 24 44
f 22 44 45
f 22 45 46
f 22 46 37
f 23 47 48
f 23 48 49
f 23 49 24
f 23 43 47
f 24 49 44
f 24 26 50
f 24 50 25
f 27 39 38
f 27 38 28
f 28 38 56
f 28 56 51
f 28 51 29
f 29 51 30
f 30 51 46
f 30 46 52
f 30 52 31
f 31 52 62
f 31 62 54
f 31 54 53
f 31 53 35
f 31 35 34
f 35 53 36
f 36 53 54
f 36 54 55
f 36 55 40
f 37 46 56
f 37 56 38
f 40 55 57
f 40 57 41
f 41 57 59
f 41 59 58
f 42 58 60
f 42 60 47
f 42 47 43
f 44 49 63
f 44 63 61
f 44 61 45
f 45 62 52
f 45 52 46
f 45 61 63
f 45 63 62
f 46 51 56
f 47 60 48
f 48 63 49
f 48 60 64
f 48 64 55
f 48 55 63
f 54 62 55
f 55 62 63
f 55 64 57
f 57 64 60
f 57 60 59
f 58 59 60

