# https://github.com/mikedh/trimesh
v -0.16305760 -0.01476422 0.00143348
v -0.16305760 -0.01891586 0.00146997
v -0.16305760 -0.01176795 0.00144808
v -0.16006510 -0.01476422 0.00219262
v -0.16006510 -0.01902612 0.00222912
v -0.16305760 -0.02029175 0.00194444
v -0.15306358 -0.02155738 0.00459415
v -0.15580480 -0.02224772 0.00414888
v -0.16305760 -0.00801421 0.00147727
v -0.16305760 -0.00325852 0.00152837
v -0.16006510 -0.00624042 0.00231671
v -0.15580480 -0.01476422 0.00340434
v -0.15580480 -0.01902612 0.00343353
v -0.16305760 -0.02292368 0.00317075
v -0.16006510 -0.02284697 0.00355032
v -0.15273235 -0.01902612 0.00447006
v -0.15059648 -0.01902612 0.00522191
v -0.14728418 -0.01902612 0.00641172
v -0.14375486 -0.02195049 0.00842638
v -0.14728418 -0.02268877 0.00773292
v -0.15580480 -0.02428039 0.00692998
v -0.16305760 0.00099858 0.00159407
v -0.16006510 -0.00197851 0.00239701
v -0.15580480 0.00227859 0.00370361
v -0.15580480 -0.00624042 0.00355032
v -0.15308642 0.00654050 0.00459415
v -0.15300648 0.00227859 0.00456495
v -0.15293795 -0.00197851 0.00453575
v -0.15273235 -0.01476422 0.00446276
v -0.16305760 -0.02353252 0.00418538
v -0.16006510 -0.02487006 0.00692998
v -0.15060792 -0.01476422 0.00522920
v -0.14728418 -0.01476422 0.00644822
v -0.14308099 -0.01902612 0.00812710
v -0.13876357 -0.02273192 0.01170384
v -0.13225318 -0.02125056 0.01325863
v -0.13449183 -0.02185940 0.01271117
v -0.13449183 -0.02382016 0.01545577
v -0.14728418 -0.02472144 0.01119287
v -0.16305760 0.00952239 0.00175465
v -0.15580480 0.00654050 0.00378391
v -0.15320065 0.01080240 0.00463795
v -0.15106477 0.01080240 0.00538979
v -0.15095056 0.00654050 0.00535330
v -0.15087061 0.00227859 0.00532410
v -0.15073355 -0.00624042 0.00527300
v -0.16305760 -0.02491321 0.00692998
v -0.15154449 -0.02514332 0.01119287
v -0.15580480 -0.02522002 0.01119287
v -0.14728418 -0.01050232 0.00650661
v -0.14320663 -0.01050232 0.00818549
v -0.14094512 -0.01902612 0.00909063
v -0.04637315 -0.02157655 0.05673431
v -0.04637315 -0.02200322 0.05734016
v -0.13876357 -0.01902612 0.01010525
v -0.13449183 -0.01902612 0.01212721
v -0.13221891 -0.01902612 0.01324403
v -0.04637315 -0.01476422 0.05590216
v -0.04637315 -0.01902612 0.05601896
v -0.04705846 -0.02119782 0.05590946
v -0.11319030 -0.02467830 0.02824445
v -0.13023153 -0.02474062 0.01971866
v -0.13876357 -0.02476459 0.01545577
v -0.04637315 -0.02234360 0.05798981
v -0.16305760 0.01080240 0.00178385
v -0.15580480 0.01080240 0.00387880
v -0.15333770 0.01506430 0.00468904
v -0.15121326 0.01506430 0.00542629
v -0.14728418 0.01506430 0.00691538
v -0.14728418 0.01080240 0.00683509
v -0.14728418 0.00654050 0.00676209
v -0.14728418 -0.00197851 0.00663070
v -0.16305760 -0.02501388 0.00821469
v -0.14302388 -0.02514811 0.01545577
v -0.15580480 -0.02522002 0.01545577
v -0.16006510 -0.02521523 0.01545577
v -0.16006510 -0.02521044 0.01119287
v -0.11745061 -0.02515291 0.02824445
v -0.13023153 -0.02522002 0.02398156
v -0.14349217 0.00654050 0.00833878
v -0.14135630 0.00654050 0.00927311
v -0.14115071 -0.00624042 0.00917822
v -0.13876357 -0.01476422 0.01016365
v -0.13449183 -0.01476422 0.01219290
v -0.13227603 -0.01476422 0.01328053
v -0.04637315 0.00654050 0.05597516
v -0.04637315 0.00227859 0.05593136
v -0.04637315 0.00155469 0.05592406
v -0.04637315 -0.00197851 0.05590216
v -0.04926285 -0.02296203 0.05807011
v -0.04637315 -0.02342705 0.06096070
v -0.05353458 -0.02373387 0.05807011
v -0.16305760 0.01506430 0.00188604
v -0.15349761 0.01737503 0.00474014
v -0.14418890 0.01818522 0.00864536
v -0.14366349 0.01506430 0.00841908
v -0.16305760 -0.02517688 0.01119287
v -0.12171091 -0.02522002 0.03250734
v -0.16305760 -0.02515291 0.01545577
v -0.16305760 -0.02517688 0.01247028
v -0.11319030 -0.02514332 0.03250734
v -0.12171091 -0.02521523 0.02824445
v -0.04637315 -0.02374346 0.06233300
v -0.05779488 -0.02415095 0.05807011
v -0.05353458 -0.02416054 0.06233300
v -0.05779488 -0.02429957 0.06233300
v -0.14143626 0.01080240 0.00930961
v -0.13876357 -0.00624042 0.01029504
v -0.13408065 -0.01040164 0.01247028
v -0.04637315 0.00974771 0.05603356
v -0.16305760 0.01939332 0.00317075
v -0.15580480 0.01812769 0.00441896
v -0.15186430 0.01900979 0.00627303
v -0.14601637 0.02102809 0.00946290
v -0.14737556 0.01949399 0.00811250
v -0.14287539 0.01949399 0.00998116
v -0.13854656 0.01957070 0.01199582
v -0.13562259 0.01831466 0.01282066
v -0.14152762 0.01506430 0.00935341
v -0.11745061 -0.02520564 0.03250734
v -0.11319030 -0.02514332 0.03677024
v -0.11745061 -0.02508100 0.03677024
v -0.16305760 -0.02451051 0.01700326
v -0.07909642 -0.02415095 0.05807011
v -0.10466969 -0.02438586 0.04528143
v -0.08336815 -0.02336953 0.05807011
v -0.05353458 -0.02428519 0.06659590
v -0.04637315 -0.02392563 0.06659590
v -0.04926285 -0.02415575 0.06659590
v -0.04926285 -0.02394001 0.06233300
v -0.13876357 0.01080240 0.01060892
v -0.13458321 -0.00624042 0.01230970
v -0.04637315 0.01080240 0.05605545
v -0.16305760 0.02159858 0.00456495
v -0.16178979 0.02152187 0.00470364
v -0.16024786 0.01953714 0.00396639
v -0.15894578 0.02109520 0.00526570
v -0.15580480 0.02025625 0.00574017
v -0.14886038 0.02157461 0.00888624
v -0.13982579 0.02183828 0.01282796
v -0.13698178 0.02115753 0.01361630
v -0.04637315 0.01932620 0.05681460
v -0.13876357 0.01506430 0.01070381
v -0.04637315 0.01616214 0.05619414
v -0.05779488 -0.02416534 0.06659590
v -0.16305760 -0.02315379 0.01958727
v -0.07909642 -0.02256892 0.06180744
v -0.07057581 -0.02398316 0.06233300
v -0.04637315 -0.02389687 0.06947918
v -0.04637315 -0.02377222 0.07085878
v -0.04926285 -0.02376743 0.07085878
v -0.13467459 -0.00197851 0.01235349
v -0.04637315 0.01305560 0.05610655
v -0.16305760 0.02200607 0.00688618
v -0.15580480 0.02192457 0.00787161
v -0.15154449 0.02178075 0.00844827
v -0.14302388 0.02206360 0.01218560
v -0.04637315 0.02364084 0.06233300
v -0.04637315 0.02244712 0.05869786
v -0.05105607 0.02159858 0.05581457
v -0.04637315 0.01451778 0.05614305
v -0.06205519 -0.02375784 0.06659590
v -0.16305760 -0.02179229 0.02079898
v -0.08336815 -0.02182105 0.06077821
v -0.08556112 -0.02121221 0.06023075
v -0.07057581 -0.02239633 0.06589514
v -0.07410512 -0.02183064 0.06509220
v -0.04637315 -0.02285177 0.07315813
v -0.04926285 -0.02221895 0.07383698
v -0.05353458 -0.02322091 0.07085878
v -0.16305760 0.02228412 0.01119287
v -0.16006510 0.02236562 0.01119287
v -0.15580480 0.02244712 0.01119287
v -0.15154449 0.02235124 0.01119287
v -0.14302388 0.02274915 0.01545577
v -0.04926285 0.02374631 0.06233300
v -0.04637315 0.02374631 0.06659590
v -0.06205519 -0.02216622 0.06981497
v -0.16215528 -0.02087183 0.02183551
v -0.16305760 -0.02010478 0.02156543
v -0.07693772 -0.02095333 0.06444985
v -0.07876519 -0.01932815 0.06367610
v -0.08336815 -0.01902612 0.06142786
v -0.16305760 -0.01854193 0.02165302
v -0.16305760 -0.01928021 0.02161653
v -0.06534465 -0.02165805 0.06921641
v -0.04637315 -0.02235319 0.07411436
v -0.05353458 -0.02164367 0.07335521
v -0.05753219 -0.02236278 0.07100478
v -0.04637315 -0.02005684 0.07509978
v -0.16305760 0.02228892 0.01545577
v -0.16006510 0.02239439 0.01545577
v -0.15580480 0.02252383 0.01545577
v -0.14728418 0.02279229 0.01971866
v -0.15154449 0.02262930 0.01545577
v -0.14728418 0.02272038 0.01545577
v -0.14302388 0.02284982 0.01971866
v -0.13876357 0.02286420 0.01971866
v -0.06205519 0.02371754 0.05807011
v -0.05779488 0.02374631 0.06233300
v -0.04637315 0.02351140 0.07085878
v -0.05353458 0.02374631 0.06659590
v -0.05593314 -0.02127453 0.07307053
v -0.06818866 -0.01976920 0.06858865
v -0.06845137 -0.01692633 0.06872734
v -0.07712046 -0.01811046 0.06453014
v -0.07730321 -0.01476422 0.06462504
v -0.07943908 -0.01476422 0.06357391
v -0.16305760 -0.01476422 0.02176982
v -0.07748596 -0.01050232 0.06471993
v -0.04637315 -0.01902612 0.07542826
v -0.16305760 0.02184787 0.01872593
v -0.15154449 0.02266285 0.01971866
v -0.05779488 0.02368398 0.06659590
v -0.06205519 0.02371754 0.06233300
v -0.06631550 0.02370796 0.05807011
v -0.04637315 0.02236562 0.07407056
v -0.06205519 0.02333881 0.06659590
v -0.04926285 0.02327170 0.07085878
v -0.04926285 -0.01902612 0.07485890
v -0.05353458 -0.01902612 0.07387347
v -0.05626437 -0.01902612 0.07318002
v -0.06205519 -0.01902612 0.07112887
v -0.06658963 -0.01861863 0.06939890
v -0.06631550 -0.01476422 0.06972007
v -0.06850848 -0.01476422 0.06875654
v -0.07074714 -0.01050232 0.06784411
v -0.07483612 -0.01050232 0.06597544
v -0.07483612 -0.01476422 0.06580025
v -0.16305760 -0.00624042 0.02182821
v -0.07758876 -0.00624042 0.06477832
v -0.07995305 0.01080240 0.06383669
v -0.07999874 0.01506430 0.06387319
v -0.04637315 -0.01614011 0.07558155
v -0.16305760 0.01949399 0.02071139
v -0.15807773 0.02149790 0.02189391
v -0.09913015 0.02182869 0.05213563
v -0.07909642 0.02216427 0.06165415
v -0.04637315 0.01932620 0.07558155
v -0.05779488 0.02253821 0.07033322
v -0.06205519 0.02222180 0.06968357
v -0.04926285 0.02212592 0.07361799
v -0.05241525 0.02175199 0.07323112
v -0.07057581 0.02221701 0.06583675
v -0.06660104 0.02248068 0.06694627
v -0.04926285 -0.01476422 0.07507058
v -0.04637315 -0.01476422 0.07565455
v -0.05353458 -0.01476422 0.07405595
v -0.05649281 -0.01476422 0.07326032
v -0.05862868 -0.01476422 0.07255957
v -0.06205519 -0.01476422 0.07139895
v -0.06631550 -0.01050232 0.06980766
v -0.06871407 -0.00624042 0.06884413
v -0.07083851 -0.00624042 0.06789520
v -0.07483612 -0.00624042 0.06607763
v -0.16305760 -0.00287021 0.02183551
v -0.07483612 -0.00197851 0.06614332
v -0.07764586 -0.00197851 0.06480752
v -0.07770297 0.00227859 0.06482942
v -0.07483612 0.00227859 0.06619442
v -0.07781718 0.01080240 0.06486592
v -0.07786287 0.01506430 0.06488782
v -0.06889681 0.01829069 0.06893903
v -0.07758876 0.01854957 0.06474913
v -0.16305760 0.01688124 0.02176982
v -0.16305760 0.01506430 0.02183551
v -0.16305760 0.01807975 0.02142674
v -0.08536695 0.02129176 0.06012126
v -0.07691487 0.02139243 0.06443525
v -0.08252294 0.02180472 0.06074902
v -0.07408229 0.02182869 0.06499731
v -0.04637315 0.01795511 0.07577864
v -0.05524784 0.02111438 0.07284425
v -0.05370590 0.01954673 0.07374939
v -0.05658418 0.01827631 0.07327491
v -0.05353458 0.01506430 0.07449392
v -0.06536750 0.02179993 0.06913611
v -0.04926285 -0.01050232 0.07515818
v -0.04637315 -0.00624042 0.07581513
v -0.05353458 -0.01050232 0.07412165
v -0.04926285 -0.00624042 0.07523847
v -0.04926285 -0.00197851 0.07531147
v -0.05353458 0.00654050 0.07437714
v -0.05673266 -0.00197851 0.07332601
v -0.05885711 -0.00197851 0.07265446
v -0.05878858 -0.00624042 0.07262526
v -0.06205519 -0.00624042 0.07153764
v -0.06631550 0.00654050 0.07012154
v -0.06631550 -0.00624042 0.06988796
v -0.06880544 -0.00197851 0.06888793
v -0.07094131 -0.00197851 0.06793170
v -0.07103268 0.00227859 0.06796089
v -0.06905672 0.01080240 0.06900472
v -0.06910241 0.01506430 0.06903392
v -0.07123827 0.01506430 0.06802659
v -0.07483612 0.01080240 0.06628201
v -0.06631550 0.01506430 0.07024563
v -0.06205519 0.01506430 0.07182232
v -0.06205519 0.01932620 0.07124566
v -0.06660104 0.01955632 0.06958868
v -0.06821151 0.02112876 0.06860325
v -0.16247508 0.01750447 0.02194500
v -0.04926285 0.01506430 0.07545746
v -0.04637315 0.01506430 0.07600492
v -0.05914265 0.01506430 0.07274205
v -0.05693826 0.01080240 0.07339170
v -0.05680120 0.00227859 0.07334791
v -0.04926285 0.00227859 0.07536256
v -0.04926285 0.00654050 0.07539906
v -0.04637315 -0.00197851 0.07588083
v -0.05900559 0.00654050 0.07269825
v -0.06205519 0.01080240 0.07177123
v -0.06205519 0.00227859 0.07165443
v -0.06631550 0.01080240 0.07018724
v -0.06897677 0.00654050 0.06896822
v -0.04637315 0.00654050 0.07595382
v -0.04637315 0.00227859 0.07591733
f 1 2 6
f 1 6 14
f 1 14 30
f 1 30 47
f 1 47 73
f 1 73 97
f 1 97 100
f 1 100 99
f 1 99 123
f 1 123 146
f 1 146 163
f 1 163 180
f 1 180 185
f 1 185 184
f 1 184 209
f 1 209 230
f 1 230 256
f 1 256 266
f 1 266 265
f 1 265 267
f 1 267 235
f 1 235 212
f 1 212 191
f 1 191 171
f 1 171 154
f 1 154 134
f 1 134 111
f 1 111 93
f 1 93 65
f 1 65 40
f 1 40 22
f 1 22 10
f 1 10 9
f 1 9 3
f 1 3 4
f 1 4 5
f 1 5 2
f 2 5 7
f 2 7 8
f 2 8 6
f 3 9 4
f 4 9 10
f 4 10 11
f 4 11 12
f 4 12 13
f 4 13 5
f 5 13 7
f 6 8 15
f 6 15 14
f 7 13 16
f 7 16 17
f 7 17 18
f 7 18 19
f 7 19 8
f 8 19 20
f 8 20 21
f 8 21 15
f 10 22 11
f 11 23 41
f 11 41 24
f 11 24 25
f 11 25 12
f 11 22 40
f 11 40 23
f 12 25 26
f 12 26 27
f 12 27 28
f 12 28 29
f 12 29 16
f 12 16 13
f 14 15 30
f 15 21 31
f 15 31 30
f 16 29 17
f 17 29 18
f 18 29 32
f 18 32 33
f 18 33 34
f 18 34 19
f 19 35 20
f 19 34 36
f 19 36 37
f 19 37 35
f 20 35 38
f 20 38 39
f 20 39 21
f 21 39 31
f 23 40 41
f 24 41 42
f 24 42 26
f 24 26 25
f 26 42 43
f 26 43 44
f 26 44 45
f 26 45 27
f 27 45 28
f 28 45 46
f 28 46 29
f 29 46 32
f 30 31 47
f 31 39 48
f 31 48 49
f 31 49 47
f 32 46 33
f 33 46 45
f 33 45 50
f 33 50 51
f 33 51 34
f 34 52 36
f 34 51 52
f 35 37 53
f 35 53 54
f 35 54 38
f 36 52 55
f 36 55 56
f 36 56 57
f 36 57 58
f 36 58 59
f 36 59 60
f 36 60 37
f 37 60 53
f 38 61 62
f 38 62 63
f 38 63 39
f 38 54 64
f 38 64 61
f 39 63 48
f 40 65 66
f 40 66 41
f 41 66 67
f 41 67 42
f 42 67 68
f 42 68 43
f 43 68 69
f 43 69 70
f 43 70 44
f 44 70 71
f 44 71 72
f 44 72 50
f 44 50 45
f 47 49 73
f 48 63 74
f 48 74 49
f 49 75 76
f 49 76 77
f 49 77 73
f 49 74 78
f 49 78 79
f 49 79 98
f 49 98 75
f 50 72 51
f 51 72 71
f 51 71 80
f 51 80 81
f 51 81 82
f 51 82 52
f 52 82 83
f 52 83 55
f 53 60 59
f 53 59 58
f 53 58 89
f 53 89 88
f 53 88 87
f 53 87 86
f 53 86 110
f 53 110 133
f 53 133 153
f 53 153 161
f 53 161 144
f 53 144 142
f 53 142 159
f 53 159 158
f 53 158 177
f 53 177 201
f 53 201 217
f 53 217 239
f 53 239 272
f 53 272 304
f 53 304 316
f 53 316 317
f 53 317 310
f 53 310 279
f 53 279 247
f 53 247 234
f 53 234 211
f 53 211 190
f 53 190 187
f 53 187 168
f 53 168 150
f 53 150 149
f 53 149 128
f 53 128 103
f 53 103 91
f 53 91 64
f 53 64 54
f 55 83 56
f 56 84 85
f 56 85 57
f 56 83 108
f 56 108 84
f 57 85 86
f 57 86 87
f 57 87 88
f 57 88 89
f 57 89 58
f 61 78 62
f 61 64 90
f 61 90 91
f 61 91 92
f 61 92 78
f 62 78 63
f 63 78 74
f 64 91 90
f 65 93 67
f 65 67 66
f 67 93 94
f 67 94 68
f 68 94 69
f 69 95 96
f 69 96 70
f 69 94 95
f 70 96 80
f 70 80 71
f 73 77 97
f 75 98 76
f 76 99 100
f 76 100 97
f 76 97 77
f 76 98 99
f 78 101 120
f 78 120 102
f 78 102 79
f 78 92 103
f 78 103 104
f 78 104 105
f 78 105 106
f 78 106 101
f 79 102 98
f 80 96 107
f 80 107 81
f 81 108 83
f 81 83 82
f 81 107 84
f 81 84 108
f 84 109 85
f 84 107 109
f 85 109 86
f 86 109 110
f 91 103 92
f 93 111 112
f 93 112 94
f 94 112 113
f 94 113 114
f 94 114 115
f 94 115 95
f 95 115 114
f 95 114 116
f 95 116 117
f 95 117 118
f 95 118 119
f 95 119 96
f 96 119 107
f 98 102 120
f 98 120 121
f 98 121 122
f 98 122 99
f 99 122 124
f 99 124 125
f 99 125 126
f 99 126 123
f 101 106 127
f 101 127 120
f 103 128 129
f 103 129 130
f 103 130 104
f 104 130 105
f 105 130 129
f 105 129 106
f 106 129 127
f 107 119 131
f 107 131 109
f 109 131 132
f 109 132 133
f 109 133 110
f 111 134 135
f 111 135 136
f 111 136 112
f 112 137 138
f 112 138 114
f 112 114 113
f 112 136 137
f 114 138 139
f 114 139 140
f 114 140 141
f 114 141 116
f 116 141 117
f 117 141 142
f 117 142 118
f 118 143 119
f 118 142 144
f 118 144 143
f 119 143 131
f 120 127 121
f 121 127 122
f 122 127 145
f 122 145 124
f 123 126 147
f 123 147 146
f 124 145 148
f 124 148 126
f 124 126 125
f 126 148 147
f 127 129 149
f 127 149 150
f 127 150 151
f 127 151 145
f 128 149 129
f 131 143 133
f 131 133 152
f 131 152 132
f 132 152 133
f 133 143 153
f 134 154 155
f 134 155 156
f 134 156 135
f 135 137 136
f 135 156 139
f 135 139 137
f 137 139 138
f 139 156 157
f 139 157 140
f 140 157 158
f 140 158 159
f 140 159 141
f 141 159 160
f 141 160 142
f 142 160 159
f 143 144 161
f 143 161 153
f 145 151 162
f 145 162 148
f 146 147 164
f 146 164 165
f 146 165 163
f 147 148 162
f 147 162 166
f 147 166 167
f 147 167 164
f 150 168 151
f 151 169 170
f 151 170 162
f 151 168 169
f 154 171 172
f 154 172 173
f 154 173 174
f 154 174 155
f 155 174 175
f 155 175 157
f 155 157 156
f 157 175 158
f 158 176 177
f 158 175 176
f 162 170 178
f 162 178 166
f 163 179 180
f 163 165 179
f 164 167 165
f 165 167 181
f 165 181 182
f 165 182 183
f 165 183 184
f 165 184 185
f 165 185 180
f 165 180 179
f 166 178 186
f 166 186 167
f 167 186 181
f 168 187 169
f 169 188 189
f 169 189 170
f 169 187 190
f 169 190 188
f 170 189 178
f 171 191 192
f 171 192 193
f 171 193 172
f 172 193 194
f 172 194 195
f 172 195 196
f 172 196 173
f 173 196 175
f 173 175 174
f 175 196 197
f 175 197 198
f 175 198 199
f 175 199 176
f 176 199 200
f 176 200 202
f 176 202 177
f 177 202 201
f 178 189 188
f 178 188 203
f 178 203 186
f 181 186 204
f 181 204 205
f 181 205 182
f 182 205 206
f 182 206 207
f 182 207 183
f 183 207 208
f 183 208 184
f 184 208 210
f 184 210 209
f 186 203 204
f 188 190 203
f 190 211 203
f 191 212 213
f 191 213 192
f 192 213 194
f 192 194 193
f 194 197 196
f 194 196 195
f 194 213 214
f 194 214 215
f 194 215 216
f 194 216 197
f 197 216 198
f 198 216 199
f 199 216 200
f 200 216 215
f 200 215 202
f 201 202 214
f 201 214 218
f 201 218 219
f 201 219 217
f 202 215 214
f 203 211 220
f 203 220 221
f 203 221 222
f 203 222 223
f 203 223 204
f 204 223 224
f 204 224 205
f 205 224 225
f 205 225 226
f 205 226 227
f 205 227 228
f 205 228 229
f 205 229 207
f 205 207 206
f 207 229 210
f 207 210 208
f 209 210 231
f 209 231 232
f 209 232 233
f 209 233 230
f 210 229 228
f 210 228 231
f 211 234 220
f 212 235 236
f 212 236 237
f 212 237 238
f 212 238 218
f 212 218 213
f 213 218 214
f 217 219 240
f 217 240 241
f 217 241 242
f 217 242 243
f 217 243 239
f 218 238 244
f 218 244 245
f 218 245 241
f 218 241 240
f 218 240 219
f 220 246 221
f 220 234 247
f 220 247 246
f 221 246 248
f 221 248 222
f 222 248 249
f 222 249 250
f 222 250 251
f 222 251 223
f 223 251 224
f 224 251 225
f 225 251 252
f 225 252 253
f 225 253 226
f 226 253 254
f 226 254 227
f 227 254 255
f 227 255 228
f 228 255 231
f 230 233 256
f 231 255 257
f 231 257 258
f 231 258 233
f 231 233 232
f 233 258 259
f 233 259 260
f 233 260 261
f 233 261 262
f 233 262 263
f 233 263 264
f 233 264 265
f 233 265 266
f 233 266 256
f 235 267 268
f 235 268 236
f 236 268 269
f 236 269 237
f 237 269 270
f 237 270 238
f 238 270 271
f 238 271 244
f 239 243 273
f 239 273 274
f 239 274 275
f 239 275 276
f 239 276 272
f 241 245 244
f 241 244 277
f 241 277 243
f 241 243 242
f 243 277 273
f 244 271 277
f 246 247 278
f 246 278 248
f 247 279 281
f 247 281 278
f 248 280 249
f 248 278 281
f 248 281 282
f 248 282 280
f 249 280 283
f 249 283 276
f 249 276 284
f 249 284 285
f 249 285 286
f 249 286 250
f 250 286 287
f 250 287 251
f 251 287 288
f 251 288 289
f 251 289 252
f 252 289 290
f 252 290 253
f 253 290 254
f 254 290 291
f 254 291 255
f 255 291 292
f 255 292 293
f 255 293 257
f 257 293 260
f 257 260 258
f 258 260 259
f 260 293 294
f 260 294 295
f 260 295 296
f 260 296 261
f 261 296 262
f 262 296 295
f 262 295 263
f 263 295 294
f 263 294 297
f 263 297 298
f 263 298 299
f 263 299 300
f 263 300 301
f 263 301 269
f 263 269 264
f 264 269 302
f 264 302 265
f 265 302 267
f 267 302 269
f 267 269 268
f 269 301 277
f 269 277 271
f 269 271 270
f 272 276 303
f 272 303 304
f 273 275 274
f 273 277 301
f 273 301 299
f 273 299 275
f 275 299 298
f 275 298 305
f 275 305 276
f 276 305 306
f 276 306 307
f 276 307 284
f 276 283 282
f 276 282 308
f 276 308 309
f 276 309 303
f 279 310 282
f 279 282 281
f 280 282 283
f 282 310 308
f 284 307 311
f 284 311 285
f 285 311 298
f 285 298 312
f 285 312 286
f 286 312 313
f 286 313 287
f 287 313 314
f 287 314 288
f 288 314 293
f 288 293 315
f 288 315 290
f 288 290 289
f 290 315 291
f 291 315 293
f 291 293 292
f 293 314 297
f 293 297 294
f 297 314 313
f 297 313 312
f 297 312 298
f 298 311 305
f 299 301 300
f 303 309 316
f 303 316 304
f 305 311 307
f 305 307 306
f 308 310 317
f 308 317 316
f 308 316 309

