# https://github.com/mikedh/trimesh
v -0.46376699 -0.31365359 0.01034349
v -0.40788862 -0.07971934 -0.12790288
v -0.31442407 -0.30705050 -0.19555959
v -0.38564897 -0.00946218 -0.10839456
v -0.37387955 -0.05571909 -0.18619002
v -0.37388834 -0.05568071 -0.18613110
v -0.37388834 -0.05193071 -0.18226111
v -0.40124831 -0.07146071 -0.13535111
v -0.40123957 -0.07144571 -0.13535112
v -0.40122831 -0.06773071 -0.13144112
v -0.34647027 0.00404565 -0.00365393
v -0.40282831 -0.07146071 -0.13144112
v -0.40122035 -0.06753773 -0.13126664
v -0.39781833 -0.05974071 -0.13144112
v -0.40122831 -0.07512071 -0.13925111
v -0.40115833 -0.06755071 -0.13144112
v -0.41871682 -0.05672829 -0.07605827
v -0.38558832 -0.00896071 -0.10800111
v -0.38560832 -0.00896071 -0.10796112
v -0.38549834 -0.00505071 -0.10410111
v -0.38562247 -0.00519855 -0.10395581
v -0.38540831 -0.00115071 -0.10019111
v -0.28956541 -0.15904470 -0.25401679
v -0.40897804 -0.10184503 -0.14092883
v -0.37388834 -0.05948071 -0.19003113
v -0.37394831 -0.05583071 -0.18613110
v -0.37390831 -0.05193071 -0.18222111
v -0.37375125 -0.05153845 -0.18220544
v -0.37445658 -0.04964348 -0.17856421
v -0.37940970 -0.00563189 -0.11976255
v -0.24108657 -0.21208182 -0.08455458
v -0.33682477 -0.29256052 -0.37418470
v -0.27055356 -0.15203768 -0.47617489
v -0.27622831 -0.25896072 -0.31099111
v -0.27611408 -0.25891247 -0.31114581
v -0.24236801 -0.23026527 -0.26497322
v -0.24485958 -0.23461510 -0.09796613
v -0.24107833 -0.20818071 -0.08119111
v -0.24120373 -0.20829216 -0.08107999
v -0.24107833 -0.23943071 -0.27573112
v -0.22972490 -0.24974211 -0.35546908
v -0.23659207 -0.25325289 -0.29612833
v -0.24111719 -0.24157351 -0.27765587
v -0.22940239 -0.20805083 -0.10006448
v -0.32753766 -0.03961996 -0.19994543
v -0.24108259 -0.23552063 -0.27208430
v -0.27232364 -0.23948981 -0.29934034
v -0.27628204 -0.25497067 -0.30716938
v -0.27622831 -0.25505072 -0.30733112
v -0.26573616 -0.19428737 -0.03105002
v -0.27622831 -0.25911072 -0.31113112
v -0.25649405 -0.23963062 -0.24754816
v -0.27621278 -0.25483322 -0.30714244
v -0.27622831 -0.26286069 -0.31465113
v -0.28063831 -0.26286069 -0.30722111
v -0.24096128 -0.23941506 -0.27590454
v -0.24107833 -0.23552071 -0.27209112
v -0.24096571 -0.21726787 -0.08920671
v 0.14606060 -0.28761452 -0.36322755
v -0.23716833 -0.20427071 -0.08417111
v -0.21107535 0.07352564 0.00450599
v -0.23325834 -0.07536072 -0.48597112
v -0.23325834 -0.07146071 -0.48307112
v -0.23318833 -0.07146071 -0.48300111
v -0.36188060 0.00988676 -0.14353199
v -0.20200834 0.10430929 -0.06504112
v -0.20031834 0.10821929 -0.06503111
v -0.24104698 -0.23538695 -0.27203864
v -0.24106833 -0.21208072 -0.08457111
v -0.23716833 -0.07146071 -0.48451114
v -0.23325834 -0.07137071 -0.48300111
v -0.23325834 -0.06755071 -0.48014113
v -0.23219831 -0.06755071 -0.47910112
v -0.22935833 -0.07146071 -0.47913113
v -0.22644833 -0.07536072 -0.47910112
v -0.20201182 0.10431982 -0.06502497
v -0.22935612 -0.07141235 -0.47910109
v -0.19431423 0.04604566 -0.34413746
v -0.23634535 -0.05940489 -0.47611770
v -0.20201834 0.10430929 -0.06503111
v -0.20196278 0.10052373 -0.06922166
v -0.20977050 0.08718459 -0.06426470
v -0.19729535 0.11876164 -0.06121146
v -0.23519465 0.28048208 -0.12547722
v -0.23720834 0.35040927 -0.10019111
v -0.23716833 0.35033929 -0.09628112
v -0.23716833 0.35042927 -0.10410111
v -0.23676834 0.35040927 -0.09238111
v -0.23716833 0.35055929 -0.10019111
v -0.23717345 0.35041064 -0.09625017
v -0.23467442 0.35108078 -0.08651204
v -0.23717834 0.35040927 -0.09628112
v -0.23716870 0.35040060 -0.10430118
v -0.23598231 0.35470814 -0.10434336
v -0.21451746 -0.18426210 -0.26123384
v -0.18066069 -0.10923876 -0.45727071
v -0.20212834 0.10040928 -0.06894111
v -0.20200834 0.10066929 -0.06894111
v -0.20540833 0.09649929 -0.06503111
v -0.19812521 0.08200070 -0.14902787
v -0.21923882 -0.10926086 -0.17182508
v -0.21628267 0.38241848 -0.15942265
v -0.01450833 0.12390929 -0.03378111
v -0.01448833 0.12384929 -0.03378111
v -0.01450833 0.12390929 -0.02988111
v -0.01448833 0.12384929 -0.01817111
v -0.01450833 0.12390929 -0.02597111
v -0.03030959 0.50532973 -0.25330821
v -0.02887101 -0.00881683 -0.30765975
v -0.03011833 0.14337929 0.25526887
v -0.03013833 0.14727929 0.25524887
v -0.03011833 0.14727929 0.25526887
v -0.00432624 0.08532033 0.28529245
v -0.01448833 0.12384929 -0.04550111
v -0.01448833 0.12384929 -0.04160111
v -0.01450833 0.12390929 -0.04160111
v -0.03011833 0.13946928 0.25526887
v -0.03013833 0.13946928 0.25524887
v -0.03013833 0.14337929 0.25524887
v -0.16204433 0.22506669 0.11091448
v -0.01964523 0.44966319 -0.34218070
v -0.01448833 0.12384929 -0.11582111
v -0.01448833 0.12384929 -0.11191112
v -0.01450833 0.12390929 -0.11191112
v -0.01448833 0.12384929 -0.10410111
v -0.01448833 0.12384929 -0.10019111
v -0.01450833 0.12390929 -0.10019111
v -0.01448833 0.12384929 -0.10800111
v -0.01450833 0.12390929 -0.10800111
v -0.01841833 0.40130931 -0.41269112
v -0.01840833 0.40118927 -0.41269112
v -0.01841833 0.40130931 -0.40878111
v -0.01841833 0.40130931 -0.36972111
v -0.01841833 0.41286930 -0.39316112
v -0.01841833 0.41290927 -0.39707112
v -0.01841833 0.41286930 -0.39707112
v -0.03792833 0.49884930 -0.08847111
v -0.03792833 0.49884930 -0.09238111
v -0.01450833 0.12390929 -0.06113111
v -0.03011833 0.11602928 0.25526887
v -0.03011833 0.11993929 0.25526887
v -0.03011833 0.13165928 0.25526887
v -0.03013833 0.13555929 0.25524887
v -0.03011833 0.13555929 0.25526887
v -0.01448833 0.12384929 -0.02988111
v -0.01450833 0.12390929 -0.04941111
v -0.01450833 0.12390929 -0.04550111
v -0.02433713 0.13869877 -0.00170847
v -0.06386064 0.14258195 0.21244709
v -0.03013833 0.11602928 0.25524887
v -0.03011533 0.15558060 0.25528330
v -0.03013833 0.11993929 0.25524887
v -0.03013833 0.12384929 0.25524887
v -0.01450833 0.12390929 -0.08066111
v -0.01448833 0.12384929 -0.08066111
v -0.01450833 0.12390929 -0.07675111
v -0.01448833 0.12384929 -0.09238111
v -0.01450833 0.12390929 -0.09628112
v -0.03011833 0.15118928 0.25526887
v -0.01448833 0.12384929 -0.03769111
v -0.01450833 0.12390929 -0.03769111
v -0.01450833 0.12390929 -0.05722111
v -0.01448833 0.12384929 -0.05722111
v -0.01450833 0.12390929 -0.05332111
v -0.01450833 0.12390929 -0.09238111
v -0.01450833 0.12390929 -0.06503111
v -0.01448833 0.12384929 -0.02597111
v -0.01448833 0.12384929 -0.05332111
v -0.01448833 0.12384929 -0.04941111
v -0.03013833 0.15509929 0.25524887
v -0.03013833 0.15118928 0.25524887
v -0.00859207 0.22508983 -0.32187176
v -0.01448833 0.12384929 -0.07675111
v -0.01450833 0.12390929 -0.10410111
v -0.01450833 0.12390929 -0.02207111
v -0.01448833 0.12384929 -0.02207111
v -0.01450833 0.12390929 -0.01817111
v -0.01448833 0.12384929 -0.06113111
v -0.01448833 0.12384929 -0.06503111
v -0.03440976 0.16148369 0.25135124
v -0.00917565 0.10924520 0.03590703
v -0.01861817 0.40637270 -0.39807451
v -0.01841833 0.40130931 -0.39707112
v -0.01841833 0.40130931 -0.40097111
v -0.01789274 0.42045394 -0.48313424
v -0.01841833 0.40130931 -0.33847111
v -0.01840833 0.40118927 -0.35410112
v -0.01840833 0.40118927 -0.35019112
v -0.01841833 0.40130931 -0.35019112
v -0.00225833 0.22149929 -0.33066112
v -0.00225833 0.22149929 -0.32675111
v -0.01448833 0.12384929 -0.08847111
v -0.01448833 0.12384929 -0.08457111
v -0.01450833 0.12390929 -0.08457111
v -0.03011833 0.12384929 0.25526887
v -0.03011833 0.12774929 0.25526887
v -0.03013833 0.12774929 0.25524887
v -0.01840833 0.40118927 -0.40878111
v -0.01840833 0.40118927 -0.40488112
v -0.01841833 0.40130931 -0.40488112
v -0.01841833 0.41286930 -0.40488112
v -0.01841833 0.41286930 -0.40097111
v -0.01841833 0.40130931 -0.31894112
v -0.01841833 0.41290927 -0.35410112
v -0.01841833 0.41286930 -0.35410112
v -0.01841833 0.41286930 -0.35019112
v -0.01841833 0.41286930 -0.36582112
v -0.01841833 0.40130931 -0.34238112
v -0.01841833 0.40130931 -0.34628111
v -0.01841833 0.41286930 -0.41269112
v -0.01841833 0.40130931 -0.39316112
v -0.01857604 0.40603885 -0.29026344
v -0.01858429 0.40901801 -0.32156545
v -0.01841833 0.41290927 -0.38535112
v -0.01841833 0.41290927 -0.38144112
v -0.01841833 0.41286930 -0.38144112
v -0.01841833 0.41286930 -0.37753111
v -0.01841833 0.41286930 -0.37363112
v -0.05843359 0.47486392 -0.40180746
v -0.03523715 0.50296485 -0.10057909
v -0.03794833 0.49880928 -0.09238111
v -0.03792833 0.49884930 -0.09628112
v -0.03794833 0.49880928 -0.09628112
v -0.03794833 0.49880928 -0.08847111
v -0.03792833 0.49884930 -0.10410111
v -0.03794833 0.49880928 -0.10410111
v -0.03794833 0.49880928 -0.10019111
v -0.03792833 0.49884930 -0.10800111
v -0.03794833 0.49880928 -0.08457111
v -0.03792833 0.49884930 -0.08457111
v -0.05339001 0.47628081 -0.08678221
v -0.01841833 0.41290927 -0.36972111
v -0.03791833 0.49884930 -0.08066111
v -0.03794903 0.49881002 -0.10854855
v -0.01841833 0.40130931 -0.33457112
v -0.03307022 0.52175522 -0.12788568
v -0.01667155 0.50819421 -0.06092713
v 0.27585652 0.61378664 -0.24056301
v -0.01100099 0.09671570 -0.16105859
v -0.03615056 0.15341611 -0.40087673
v -0.01123959 0.17262524 -0.10419192
v -0.01450833 0.12390929 -0.08847111
v -0.03011833 0.11212928 0.25526887
v -0.01450833 0.12390929 -0.07285111
v -0.01450833 0.12390929 -0.06894111
v -0.01448833 0.12384929 -0.09628112
v -0.01448833 0.12384929 -0.06894111
v -0.01448833 0.12384929 -0.07285111
v -0.01687061 0.17291407 -0.05653817
v -0.03013833 0.13165928 0.25524887
v -0.01300609 0.16144475 0.27709287
v -0.00279492 0.22540480 -0.31891286
v -0.00315007 0.22428799 -0.32864973
v -0.00279833 0.22543928 -0.31894112
v -0.00669833 0.22558929 -0.31894112
v 0.07930041 -0.00899816 -0.21739052
v 0.07923167 -0.00896071 -0.21740112
v -0.00279831 0.22541428 -0.32680863
v -0.00278833 0.22540928 -0.32675111
v -0.00168114 0.21493474 -0.33666945
v -0.00686328 0.22539762 -0.31877291
v -0.00279833 0.22542928 -0.32285112
v -0.00278833 0.22540928 -0.32285112
v -0.00278833 0.22540928 -0.31894112
v -0.00279833 0.22534929 -0.32285112
v -0.01841833 0.40130931 -0.37363112
v -0.01841833 0.41286930 -0.38535112
v -0.01840833 0.40118927 -0.36972111
v -0.01840833 0.40118927 -0.36582112
v -0.01841833 0.40130931 -0.36582112
v -0.01841833 0.41290927 -0.40878111
v -0.01841833 0.41286930 -0.40878111
v -0.01841833 0.41290927 -0.40488112
v -0.01840833 0.40118927 -0.40097111
v -0.01554225 0.35764986 -0.34042075
v -0.01841833 0.41290927 -0.38925111
v -0.01841833 0.41290927 -0.37753111
v -0.01840833 0.40118927 -0.38925111
v -0.01840833 0.40118927 -0.38535112
v -0.01841833 0.40130931 -0.38535112
v -0.01649889 0.37213999 -0.38097724
v -0.01841833 0.40130931 -0.38925111
v -0.01841833 0.40130931 -0.32285112
v -0.01840833 0.40118927 -0.39316112
v -0.01841833 0.41290927 -0.37363112
v -0.01841833 0.41286930 -0.36972111
v -0.01737983 0.38624081 -0.27200729
v -0.01841833 0.41290927 -0.40097111
v -0.01841833 0.41286930 -0.36191112
v -0.01840833 0.40118927 -0.37363112
v -0.01841833 0.40130931 -0.31503111
v -0.01841833 0.41290927 -0.39316112
v -0.01841833 0.41286930 -0.38925111
v -0.01866833 0.40704927 -0.37143111
v -0.01840833 0.40118927 -0.41660112
v -0.01866833 0.40656179 -0.34457612
v -0.01841569 0.40127754 -0.41720292
v -0.01841833 0.40130931 -0.33066112
v -0.01840833 0.40118927 -0.33457112
v -0.03792833 0.49884930 -0.10019111
v -0.01841833 0.40130931 -0.37753111
v -0.01841833 0.40130931 -0.32675111
v -0.01840833 0.40118927 -0.37753111
v -0.01841833 0.41290927 -0.41660112
v -0.01841833 0.40130931 -0.38144112
v -0.01840833 0.40118927 -0.35800111
v -0.01841833 0.40130931 -0.35800111
v -0.01840833 0.40118927 -0.36191112
v -0.01840833 0.40118927 -0.38144112
v -0.01841833 0.41290927 -0.36582112
v -0.01841833 0.41290927 -0.36191112
v -0.01841833 0.41286930 -0.35800111
v -0.01840833 0.40118927 -0.34238112
v -0.01840833 0.40118927 -0.33847111
v -0.01841833 0.40130931 -0.36191112
v -0.01840833 0.40118927 -0.33066112
v -0.01840833 0.40118927 -0.32675111
v -0.01841833 0.41286930 -0.34628111
v -0.01840833 0.40118927 -0.34628111
v -0.01841833 0.40130931 -0.35410112
v -0.01841833 0.41290927 -0.41269112
v -0.01840833 0.40118927 -0.39707112
v -0.01841833 0.41290927 -0.35800111
v -0.01840833 0.40118927 -0.32285112
v -0.01841833 0.40130931 -0.31113112
v -0.01840833 0.40118927 -0.31894112
v -0.01840833 0.40118927 -0.30722111
v -0.01840833 0.40118927 -0.31113112
v 0.01826094 0.09263014 -0.04605256
v 0.13583578 0.11396081 -0.49315357
v 0.14725401 -0.27676487 -0.36090916
v 0.14579166 -0.29021072 -0.36582112
v -0.01841833 0.40130931 -0.30722111
v -0.01841833 0.40130931 -0.30332112
v 0.07898516 -0.01044981 -0.21698309
v 0.07442167 -0.00896071 -0.21738110
v 0.07532167 -0.00898071 -0.21738110
v 0.14129774 -0.29718649 -0.37013942
v 0.00717110 0.10317178 -0.09592382
v 0.09397484 -0.34179249 -0.31503591
v 0.09285645 0.09900232 0.17594533
v -0.01840833 0.40118927 -0.31503111
v -0.01505877 0.35032272 -0.42034677
v 0.07677165 0.00981845 -0.22263113
v 0.19023947 -0.29057813 -0.40771666
v 0.04836730 -0.03185082 -0.21044181
v 0.07532167 -0.00896071 -0.21738110
v 0.14957169 -0.29021072 -0.36972111
v 0.07765429 0.15214558 0.25515068
v 0.10339535 0.13077144 0.11875568
v 0.00412623 0.28990501 -0.20099439
v -0.02727991 0.58858019 -0.53287947
v 0.14951165 -0.29021588 -0.36967924
v 0.14563167 -0.29033071 -0.36582112
v 0.14954166 -0.28630072 -0.36584112
v 0.11035112 -0.01586626 -0.21580984
v -0.00613627 0.07668289 0.30847317
v 0.14954166 -0.29324070 -0.37363112
v 0.12194167 0.11602928 0.14979888
v 0.11829167 0.11213928 0.15370888
v 0.11830556 0.11213036 0.15372330
v 0.12220167 0.11883928 0.14588889
v 0.12198589 0.11605965 0.14977884
v 0.14954166 -0.29023072 -0.36972111
v 0.11826412 0.11211881 0.15373605
v 0.01584242 0.24933964 -0.53382730
v 0.14267558 0.10843977 0.16999859
v 0.22552261 -0.34445027 -0.46107504
v 0.17998575 0.11060405 0.17566954
v 0.16890866 0.09648244 0.23185489
v 0.16907166 0.09649929 0.23197886
v 0.17092437 0.09428099 0.23103090
v 0.16898879 0.10049732 0.23575339
v 0.16907166 0.10430929 0.23945890
v 0.16910167 0.10040928 0.23573887
v 0.02223505 0.11816678 0.40888804
v 0.16907166 0.10040928 0.23571889
v 0.18166849 0.12663770 0.26555163
v 0.33992782 -0.29591900 -0.26994839
v 0.15815982 0.43258318 0.15031113
v 0.71985167 -0.13788071 0.63026887
v 0.71987170 -0.13786072 0.62635887
v 0.23548166 0.18634929 0.23182888
v 0.23157166 0.18634929 0.23182888
v 0.23548166 0.18633929 0.23182888
v 0.23578292 0.17938460 0.22407044
v 0.25891167 0.18634929 0.23182888
v 0.26282167 0.18633929 0.23182888
v 0.22766167 0.18633929 0.23182888
v 0.23157166 0.18633929 0.23182888
v 0.24329166 0.18634929 0.23182888
v 0.23938167 0.18634929 0.23182888
v 0.24329166 0.18633929 0.23182888
v 0.22376166 0.18634929 0.23182888
v 0.23938167 0.18633929 0.23182888
v 0.21620879 0.20946206 0.30593932
v 0.22766167 0.18634929 0.23182888
v 0.24720167 0.18633929 0.23182888
v 0.25896037 0.18201825 0.22517081
v 0.32751915 0.32912248 -0.24233668
v 0.65730166 -0.03630071 0.63417888
v 0.65735167 -0.03628072 0.63026887
v 0.65731168 -0.03630071 0.63026887
v 0.25501168 0.18633929 0.23182888
v 0.25891167 0.18633929 0.23182888
v 0.42969289 0.12463549 0.20421281
v 0.25110167 0.18633929 0.23182888
v 0.24720167 0.18634929 0.23182888
v 0.25501168 0.18634929 0.23182888
v 0.25110167 0.18634929 0.23182888
v 0.26730746 0.19197930 0.24092045
v 0.15457439 -0.20421231 -0.01425422
v 0.34092996 0.41328648 -0.25242215
v 0.47722289 0.54035503 -0.64286220
v 0.45032167 0.52227926 -0.65694112
v 0.45423168 0.52227926 -0.65678114
v 0.44641167 0.52227926 -0.65710109
v 0.36438167 0.46369928 -0.25644112
v 0.36048168 0.46370929 -0.25644112
v 0.36048168 0.46368927 -0.25644112
v 0.35657167 0.46370929 -0.25644112
v 0.36131182 0.48449466 -0.25798625
v 0.65735167 -0.03628072 0.60682887
v 0.65735167 -0.03628072 0.61073887
v 0.65732169 -0.03630071 0.61073887
v 0.35651177 0.46369663 -0.25644112
v 0.38213897 0.02456951 -0.23730746
v 0.59332949 0.00419781 0.36765924
v 0.42823491 0.18700823 -0.51794040
v 0.41694066 0.50408059 -0.65343928
v 0.53307945 0.27126211 -0.16184816
v 0.49126133 0.49292299 -0.23586181
v 0.50565451 0.52769804 -0.46760508
v 0.73072344 -0.04243350 0.40058112
v 0.63814414 -0.04626075 0.62016547
v 0.65730166 -0.03630071 0.63807887
v 0.65729171 -0.03630071 0.64198887
v 0.65735167 -0.03627071 0.63807887
v 0.69637698 -0.15391125 0.35688260
v 0.65732169 -0.03630071 0.61854887
v 0.64776987 -0.04266470 0.51118100
v 0.65735167 -0.03628072 0.62635887
v 0.65732169 -0.03630071 0.62245888
v 0.66119081 -0.03687359 0.63395977
v 0.67871231 -0.03658254 0.67600310
v 0.65735167 -0.03627071 0.63417888
v 0.65735167 -0.03628072 0.53651887
v 0.65732169 -0.03630071 0.62635887
v 0.64479953 -0.04907865 0.57104707
v 0.65732169 -0.03630071 0.56385887
v 0.65732169 -0.03630071 0.55995888
v 0.66562319 -0.03495058 0.48275629
v 0.66113275 -0.03684997 0.61041152
v 0.65732169 -0.03630071 0.54042888
v 0.65735167 -0.03628072 0.57948887
v 0.65735167 -0.03628072 0.58338886
v 0.65732169 -0.03630071 0.58338886
v 0.65732169 -0.03630071 0.54432887
v 0.65732169 -0.03630071 0.60292888
v 0.65732169 -0.03630071 0.59901887
v 0.65735167 -0.03628072 0.54432887
v 0.65732169 -0.03630071 0.59510887
v 0.65732169 -0.03630071 0.54823887
v 0.65735167 -0.03628072 0.54823887
v 0.65735167 -0.03628072 0.59120888
v 0.65735167 -0.03628072 0.61463886
v 0.65732169 -0.03630071 0.61463886
v 0.65735167 -0.03628072 0.60292888
v 0.65735167 -0.03628072 0.56385887
v 0.65732169 -0.03630071 0.55213886
v 0.65735167 -0.03628072 0.62245888
v 0.65735167 -0.03628072 0.57167888
v 0.65735167 -0.03628072 0.57557887
v 0.65732169 -0.03630071 0.57557887
v 0.65732169 -0.03630071 0.55604887
v 0.65735167 -0.03628072 0.55604887
v 0.65735167 -0.03628072 0.56776887
v 0.65732169 -0.03630071 0.57948887
v 0.65732169 -0.03630071 0.56776887
v 0.65735167 -0.03628072 0.54042888
v 0.65735167 -0.03628072 0.55213886
v 0.65735167 -0.03628072 0.55995888
v 0.65732169 -0.03630071 0.57167888
v 0.65735167 -0.03628072 0.58729887
v 0.65732169 -0.03630071 0.58729887
v 0.65735167 -0.03628072 0.61854887
v 0.65735167 -0.03628072 0.59901887
v 0.65735167 -0.03628072 0.59510887
v 0.65732169 -0.03630071 0.59120888
v 0.65732169 -0.03630071 0.60682887
v 0.71985167 -0.13788071 0.57948887
v 0.71987170 -0.13786072 0.57948887
v 0.71985167 -0.13788071 0.58338886
v 0.68567652 -0.02299991 0.55750322
v 0.72200793 -0.12615918 0.60109413
v 0.73947167 -0.11443071 0.58729887
v 0.74329185 -0.11543078 0.59903693
v 0.74327523 -0.17048183 0.60077834
v 0.69265199 -0.11545190 0.52484703
v 0.72056663 -0.13630880 0.62920982
v 0.70041537 -0.12204138 0.53364325
v 0.69358838 0.11022215 0.19274780
v 0.71987170 -0.13786072 0.60292888
v 0.71987170 -0.13786072 0.59901887
v 0.71985167 -0.13788071 0.60292888
v 0.72374171 -0.12224072 0.52870888
v 0.72374171 -0.12224072 0.52479887
v 0.70032167 -0.12211071 0.52870888
v 0.70032167 -0.12175071 0.53260887
v 0.72376168 -0.12221071 0.52479887
v 0.72962636 -0.11715727 0.53505450
v 0.72376168 -0.12221071 0.52870888
v 0.69847810 -0.12715349 0.55194736
v 0.72673720 -0.11840698 0.60382831
v 0.70035166 -0.12224072 0.52870888
v 0.70032167 -0.12232071 0.52870888
v 0.70032167 -0.12232071 0.53260887
v 0.71250868 -0.14216994 0.59016740
v 0.72089887 -0.13396934 0.57908267
v 0.71985167 -0.13788071 0.61463886
v 0.71987170 -0.13786072 0.61073887
v 0.71987170 -0.13786072 0.61463886
v 0.71985167 -0.13788071 0.62635887
v 0.71985167 -0.13788071 0.58729887
v 0.72373170 -0.12224072 0.55213886
v 0.72207582 -0.12615936 0.52552450
v 0.72373170 -0.12224072 0.56385887
v 0.73938167 -0.11441071 0.54432887
v 0.68903363 -0.13236503 0.45835915
v 0.70035261 -0.12221157 0.52460885
v 0.69829988 -0.12764747 0.51043057
v 0.70032167 -0.12232071 0.52479887
v 0.70035166 -0.12224072 0.52479887
v 0.73938167 -0.11440072 0.59120888
v 0.73938167 -0.11440072 0.58729887
v 0.72376168 -0.12221071 0.54823887
v 0.71985167 -0.13788071 0.59510887
v 0.71985167 -0.13788071 0.59901887
v 0.72372168 -0.12224072 0.58338886
v 0.72376168 -0.12220071 0.57948887
v 0.72376168 -0.12219072 0.58338886
v 0.72114825 -0.12863305 0.62737364
v 0.72119588 -0.12879673 0.56344336
v 0.71985167 -0.13788071 0.61073887
v 0.72978032 -0.11469034 0.65097272
v 0.71985167 -0.13788071 0.61854887
v 0.71987170 -0.13786072 0.61854887
v 0.71985167 -0.13788071 0.62245888
v 0.73938167 -0.11440072 0.60292888
v 0.70503318 -0.15601324 0.61594629
v 0.73947167 -0.11443071 0.57948887
v 0.73947167 -0.11443071 0.58338886
v 0.73938167 -0.11440072 0.58338886
v 0.73938167 -0.11440072 0.57948887
v 0.73947167 -0.11443071 0.59120888
v 0.72376168 -0.12221071 0.52088886
v 0.73938167 -0.11441071 0.51307887
v 0.73946166 -0.11443071 0.55604887
v 0.73938167 -0.11441071 0.55604887
v 0.73946166 -0.11443071 0.55213886
v 0.73938167 -0.11440072 0.59510887
v 0.73947167 -0.11443071 0.57557887
v 0.73938167 -0.11440072 0.57557887
v 0.72374171 -0.12224072 0.50526887
v 0.72376168 -0.12222071 0.50135887
v 0.72376168 -0.12221071 0.50526887
v 0.72000039 -0.13519084 0.48297352
v 0.72376168 -0.12221071 0.55604887
v 0.72376168 -0.12221071 0.55213886
v 0.73145366 -0.11534831 0.56491745
v 0.73947167 -0.11443071 0.59901887
v 0.73938167 -0.11440072 0.59901887
v 0.72373170 -0.12224072 0.57557887
v 0.72376168 -0.12220071 0.57167888
v 0.72376168 -0.12220071 0.57557887
v 0.71987170 -0.13786072 0.59120888
v 0.71985167 -0.13788071 0.59120888
v 0.73947167 -0.11443071 0.59510887
v 0.73938167 -0.11441071 0.54823887
v 0.73946166 -0.11443071 0.54432887
v 0.73946166 -0.11443071 0.54823887
v 0.71987170 -0.13786072 0.62245888
v 0.72374171 -0.12224072 0.50917888
v 0.72376168 -0.12221071 0.50917888
v 0.72374171 -0.12224072 0.51307887
v 0.72376168 -0.12222071 0.49745888
v 0.72374171 -0.12224072 0.52088886
v 0.73160535 -0.11770517 0.46419853
v 0.73938167 -0.11441071 0.56776887
v 0.73938167 -0.11440072 0.57167888
v 0.72372168 -0.12224072 0.58729887
v 0.72373170 -0.12224072 0.57167888
v 0.72376168 -0.12220071 0.56776887
v 0.71987170 -0.13786072 0.58338886
v 0.71987170 -0.13786072 0.57167888
v 0.71987170 -0.13786072 0.57557887
v 0.73946166 -0.11443071 0.53260887
v 0.73946166 -0.11443071 0.53651887
v 0.71987170 -0.13786072 0.59510887
v 0.72089165 -0.13396056 0.60161781
v 0.71985167 -0.13788071 0.60682887
v 0.71987170 -0.13786072 0.58729887
v 0.72373170 -0.12224072 0.56776887
v 0.72374171 -0.12224072 0.53651887
v 0.72376168 -0.12221071 0.55995888
v 0.72374171 -0.12224072 0.51698887
v 0.72376168 -0.12221071 0.51307887
v 0.72376168 -0.12221071 0.53260887
v 0.72376168 -0.12221071 0.54432887
v 0.72374171 -0.12224072 0.53260887
v 0.72374171 -0.12224072 0.54042888
v 0.72376168 -0.12221071 0.53651887
v 0.72374171 -0.12224072 0.54432887
v 0.72373170 -0.12224072 0.54823887
v 0.72376168 -0.12220071 0.56385887
v 0.72376168 -0.12221071 0.54042888
v 0.72373170 -0.12224072 0.55995888
v 0.72373170 -0.12224072 0.57948887
v 0.71987170 -0.13786072 0.56776887
v 0.72376168 -0.12221071 0.51698887
v 0.72373170 -0.12224072 0.55604887
v 0.73947167 -0.11443071 0.56776887
v 0.71987170 -0.13786072 0.60682887
v 0.73946166 -0.11443071 0.54042888
v 0.73938167 -0.11441071 0.52088886
v 0.72372168 -0.12224072 0.59315884
v 0.72938198 -0.11609428 0.58184654
v 0.73938167 -0.11441071 0.54042888
v 0.73947167 -0.11443071 0.56385887
v 0.73947167 -0.11443071 0.57167888
v 0.73938167 -0.11441071 0.56385887
v 0.73947167 -0.11443071 0.55995888
v 0.73938167 -0.11441071 0.55995888
v 0.73938167 -0.11441071 0.53260887
v 0.73946166 -0.11443071 0.52870888
v 0.73938167 -0.11441071 0.52870888
v 0.73938167 -0.11441071 0.52479887
v 0.73938167 -0.11441071 0.55213886
v 0.73938167 -0.11441071 0.50526887
v 0.73938167 -0.11441071 0.50917888
v 0.73938167 -0.11441071 0.53651887
v 0.78067052 -0.13353327 0.54420775
v 0.74723130 -0.11589947 0.62509948
v 0.73946166 -0.11443071 0.50917888
v 0.73247236 -0.11440932 0.51172298
v 0.73946166 -0.11443071 0.52479887
v 0.73942178 -0.11441600 0.50063771
v 0.72156221 -0.03624182 0.56512326
v 0.73938167 -0.11441071 0.51698887
v 0.78246170 -0.00505071 0.50526887
v 0.78235167 -0.00511071 0.50917888
v 0.78246170 -0.00505071 0.50917888
v 0.69728827 0.09569431 -0.03242117
v 0.86265492 -0.08737267 0.14181644
v 0.73946166 -0.11443071 0.50526887
v 0.73946166 -0.11443071 0.52088886
v 0.77512443 -0.13287793 0.48700157
v 0.78246170 -0.00505071 0.51698887
v 0.78246170 -0.00505071 0.52088886
v 0.73946166 -0.11443071 0.51307887
v 0.73946166 -0.11443071 0.50135887
v 0.73946166 -0.11443071 0.51698887
v 0.78472924 -0.14256884 0.38274992
v 0.78235167 -0.00511071 0.52088886
v 0.78235167 -0.00511071 0.52479887
v 0.78235167 -0.00511071 0.51307887
v 0.78896743 0.02597159 0.47224802
v 0.78116632 -0.14982164 0.20764919
v 0.83148569 -0.09719130 0.12189153
v 0.83415234 -0.11502633 0.35349086
v 0.84095168 -0.11056072 0.35292888
v 0.84095168 -0.11060071 0.34901887
v 0.84100169 -0.11052071 0.35292888
v 0.84104419 -0.11054461 0.34775639
v 0.78246170 -0.00505071 0.48963886
v 0.78246170 -0.00505071 0.49354887
v 0.78235167 -0.00511071 0.53651887
v 0.78235167 -0.00511071 0.54042888
v 0.78246170 -0.00505071 0.53260887
v 0.78246170 -0.00505071 0.53651887
v 0.78235167 -0.00511071 0.50135887
v 0.78235167 -0.00511071 0.50526887
v 0.78246170 -0.00505071 0.50135887
v 0.78246170 -0.00505071 0.49745888
v 0.74709427 -0.02532695 0.52328289
v 0.78246170 -0.00505071 0.51307887
v 0.78246170 -0.00505071 0.52479887
v 0.78246170 -0.00505071 0.52870888
v 0.85267019 -0.09261112 0.13806939
v 0.78246170 -0.00505071 0.54042888
v 0.78235167 -0.00511071 0.49745888
v 0.78235167 -0.00511071 0.49354887
v 0.78588158 0.00627661 0.61389953
v 0.78235167 -0.00511071 0.54432887
v 0.78235167 -0.00511071 0.54823887
v 0.78235167 -0.00511071 0.53260887
v 0.78235167 -0.00511071 0.52870888
v 0.78246170 -0.00505071 0.54432887
v 0.78262073 -0.00115737 0.53313226
v 0.78240412 -0.00508458 0.54996222
v 0.78235167 -0.00511071 0.51698887
v 0.85664266 -0.08701021 0.13401596
v 0.84095168 -0.11052071 0.35682887
v 0.86021167 -0.08708071 0.13807888
v 0.85657167 -0.08717071 0.13417889
v 0.86042035 -0.08696278 0.13813190
v 0.82635248 0.06457495 0.65310282
v 0.85325718 -0.09357480 0.14106701
v 0.85669166 -0.08708071 0.13417889
v 0.86727756 -0.03524131 0.58344173
v 0.88114160 -0.09858610 0.38427356
v 0.92688167 -0.05198071 0.42713886
v 0.92688167 -0.05198071 0.42323887
v 0.92684168 -0.05193071 0.42713886
v 0.90278882 -0.02982919 0.14028054
v 0.92688167 -0.05198071 0.41932887
v 0.96476543 -0.09034575 0.32023820
v 0.92684168 -0.05193071 0.43885887
v 0.92684168 -0.05193071 0.42323887
v 0.92684168 -0.05193071 0.41151887
v 0.92688167 -0.05198071 0.40760887
v 0.92685801 -0.05192482 0.40755638
v 0.92688167 -0.05198071 0.41542888
v 0.92684168 -0.05193071 0.41932887
v 0.92684168 -0.05193071 0.43104887
v 0.92688167 -0.05198071 0.41151887
v 0.92900169 -0.05583071 0.40760887
v 0.92684168 -0.05193071 0.41542888
v 0.93343985 -0.06231217 0.40448242
v 0.92688167 -0.05198071 0.43104887
v 0.92684168 -0.05193071 0.43495888
v 0.92699170 -0.05193071 0.43104887
v 0.92688167 -0.05198071 0.43495888
v 0.92712539 -0.05191214 0.43885866
v 0.92688167 -0.05198071 0.43885887
v 0.92800498 -0.04808470 0.43999332
v 0.89797539 -0.00530710 0.33424345
v 0.94486421 -0.03350018 0.44489947
f 4 30 17
f 5 6 7
f 9 10 8
f 2 24 17
f 9 12 10
f 17 14 13
f 8 2 12
f 9 15 8
f 15 2 8
f 24 2 15
f 24 15 65
f 8 12 9
f 2 17 13
f 12 2 13
f 8 10 16
f 9 8 16
f 14 9 16
f 13 10 12
f 17 24 11
f 18 19 20
f 19 21 20
f 21 4 17
f 45 5 28
f 22 21 17
f 21 19 4
f 23 3 1
f 11 24 1
f 28 5 7
f 45 24 25
f 45 25 5
f 26 24 27
f 7 6 27
f 6 26 27
f 5 25 26
f 5 26 6
f 25 24 26
f 27 24 29
f 29 28 27
f 28 7 27
f 45 29 24
f 28 29 45
f 13 16 10
f 9 14 65
f 15 9 65
f 14 17 65
f 14 16 13
f 65 30 18
f 22 65 20
f 19 18 4
f 21 22 20
f 18 30 4
f 20 65 18
f 11 65 22
f 17 11 22
f 30 65 17
f 24 23 1
f 23 24 45
f 65 45 24
f 45 65 11
f 45 32 23
f 1 50 101
f 1 101 11
f 32 45 78
f 52 42 43
f 3 47 48
f 48 49 34
f 35 51 34
f 35 49 53
f 54 51 35
f 41 54 35
f 55 32 3
f 3 48 55
f 53 49 48
f 48 34 55
f 51 55 34
f 53 41 35
f 3 32 52
f 1 3 37
f 50 1 37
f 95 52 36
f 32 42 52
f 52 46 36
f 62 63 64
f 45 23 78
f 11 101 45
f 66 67 76
f 66 81 67
f 23 41 47
f 43 40 52
f 23 47 3
f 41 32 33
f 55 51 54
f 46 68 36
f 35 34 49
f 54 41 32
f 53 47 41
f 57 68 46
f 57 56 68
f 47 53 48
f 32 55 54
f 32 41 42
f 36 68 95
f 69 38 39
f 31 69 39
f 43 42 56
f 68 56 95
f 37 3 101
f 56 42 95
f 69 31 38
f 32 41 33
f 40 43 56
f 40 57 46
f 52 40 46
f 57 40 56
f 3 52 95
f 95 101 3
f 101 44 37
f 23 101 95
f 44 58 37
f 60 101 50
f 38 31 60
f 39 38 60
f 39 60 50
f 69 31 58
f 50 31 39
f 44 69 58
f 44 101 60
f 31 44 60
f 31 37 58
f 71 79 72
f 31 69 44
f 50 37 31
f 71 64 73
f 64 72 73
f 72 64 71
f 72 79 73
f 64 74 75
f 70 79 71
f 79 70 33
f 62 64 75
f 78 33 32
f 45 101 23
f 96 33 62
f 64 63 71
f 96 75 79
f 74 64 71
f 63 70 71
f 62 70 63
f 74 71 77
f 33 70 62
f 71 73 77
f 96 62 75
f 77 73 79
f 75 74 77
f 79 75 77
f 80 66 76
f 82 100 81
f 101 61 11
f 120 11 61
f 100 82 61
f 85 84 86
f 89 90 94
f 89 92 90
f 85 92 89
f 88 86 84
f 87 94 93
f 85 93 84
f 87 85 89
f 87 93 85
f 90 92 86
f 90 88 91
f 88 90 86
f 93 94 102
f 86 92 85
f 87 89 94
f 84 93 102
f 94 90 91
f 94 91 102
f 120 91 84
f 91 88 84
f 95 42 41
f 41 23 95
f 32 33 96
f 32 96 23
f 79 78 96
f 78 79 33
f 101 100 61
f 97 81 98
f 76 67 83
f 11 100 101
f 80 97 98
f 82 97 99
f 61 76 83
f 82 81 97
f 97 80 99
f 76 61 99
f 80 76 99
f 67 81 83
f 61 82 99
f 66 80 98
f 81 66 98
f 100 83 81
f 351 100 84
f 84 100 11
f 351 84 102
f 120 102 91
f 23 96 78
f 100 61 83
f 11 120 84
f 120 351 102
f 61 100 239
f 103 104 105
f 376 120 61
f 100 351 239
f 357 376 61
f 148 106 181
f 352 219 108
f 110 111 112
f 114 115 116
f 114 329 115
f 109 239 351
f 117 118 119
f 122 123 124
f 123 122 339
f 125 126 127
f 339 126 125
f 123 128 129
f 123 339 128
f 130 131 132
f 134 135 136
f 137 220 138
f 61 239 181
f 140 141 113
f 142 143 144
f 240 109 351
f 249 146 147
f 357 61 181
f 181 149 357
f 152 149 153
f 154 155 156
f 127 126 158
f 115 160 161
f 160 115 329
f 249 161 103
f 162 163 164
f 241 158 165
f 249 166 139
f 249 147 116
f 249 103 105
f 145 167 107
f 167 145 329
f 168 169 146
f 329 169 168
f 181 120 149
f 251 110 112
f 119 111 110
f 171 170 159
f 155 173 156
f 173 155 339
f 241 174 127
f 249 162 164
f 175 176 177
f 179 178 139
f 329 178 179
f 164 168 146
f 139 178 162
f 129 128 174
f 166 179 139
f 104 145 105
f 329 145 104
f 181 148 120
f 106 329 181
f 149 120 180
f 180 120 376
f 150 149 152
f 117 110 251
f 148 239 120
f 241 129 174
f 249 175 177
f 183 182 184
f 239 351 120
f 187 188 189
f 190 260 191
f 107 167 175
f 192 193 194
f 339 193 192
f 195 196 251
f 196 195 197
f 167 176 175
f 167 329 176
f 198 199 200
f 201 182 202
f 204 205 206
f 198 200 132
f 208 296 209
f 211 182 183
f 214 215 121
f 215 214 216
f 121 204 206
f 217 294 218
f 221 222 223
f 225 226 227
f 225 220 228
f 229 230 137
f 230 233 220
f 231 223 227
f 235 296 186
f 226 234 231
f 241 194 154
f 241 242 194
f 249 164 146
f 113 149 243
f 140 150 152
f 128 125 174
f 128 339 125
f 148 177 106
f 197 195 153
f 351 239 241
f 242 192 194
f 243 140 113
f 140 243 150
f 357 149 113
f 112 171 159
f 113 141 251
f 241 154 156
f 239 122 241
f 122 239 339
f 124 123 129
f 158 246 165
f 161 160 103
f 247 179 166
f 179 247 329
f 241 165 242
f 157 192 242
f 339 192 157
f 163 168 164
f 168 163 329
f 248 247 245
f 329 247 248
f 241 122 124
f 165 157 242
f 241 156 244
f 241 244 245
f 241 245 166
f 241 166 249
f 249 105 107
f 147 114 116
f 105 145 107
f 142 144 251
f 143 118 144
f 176 106 177
f 176 329 106
f 249 139 162
f 152 153 141
f 250 149 143
f 159 170 151
f 142 250 143
f 144 118 117
f 197 149 250
f 141 153 195
f 140 152 141
f 243 149 150
f 112 111 171
f 119 149 111
f 196 142 251
f 250 142 196
f 245 247 166
f 241 127 158
f 241 124 129
f 174 125 127
f 246 157 165
f 157 246 339
f 126 246 158
f 339 246 126
f 244 248 245
f 173 248 244
f 248 173 329
f 194 193 154
f 193 155 154
f 155 193 339
f 181 239 148
f 116 115 161
f 178 163 162
f 329 163 178
f 329 173 339
f 156 173 244
f 249 116 161
f 160 104 103
f 104 160 329
f 146 169 147
f 249 107 175
f 169 114 147
f 114 169 329
f 249 177 148
f 153 149 197
f 141 195 251
f 117 119 110
f 171 180 170
f 143 149 118
f 118 149 119
f 149 180 171
f 251 159 151
f 144 117 251
f 250 196 197
f 111 149 171
f 251 112 159
f 151 180 251
f 180 376 251
f 249 148 349
f 170 180 151
f 258 253 190
f 254 255 172
f 184 182 200
f 172 240 253
f 252 255 254
f 351 240 172
f 262 254 172
f 255 252 261
f 172 255 261
f 254 263 264
f 252 254 264
f 172 261 252
f 265 172 252
f 253 262 172
f 262 253 258
f 262 259 263
f 268 269 270
f 271 272 201
f 254 262 263
f 273 201 202
f 199 274 184
f 276 214 219
f 214 276 267
f 270 294 133
f 217 218 277
f 278 279 280
f 282 182 211
f 284 278 282
f 121 285 232
f 285 286 232
f 272 182 201
f 267 294 216
f 136 288 202
f 207 294 289
f 290 268 133
f 292 134 293
f 131 130 295
f 216 294 217
f 218 294 286
f 273 288 219
f 288 273 202
f 298 235 299
f 222 220 300
f 218 286 285
f 293 294 267
f 182 136 202
f 121 215 277
f 215 217 277
f 297 295 130
f 132 182 130
f 134 294 293
f 274 183 184
f 185 297 182
f 266 294 301
f 198 132 131
f 303 266 301
f 278 280 282
f 185 304 219
f 306 307 308
f 279 305 280
f 309 303 301
f 310 311 121
f 289 311 310
f 130 182 297
f 289 294 312
f 302 213 298
f 216 217 215
f 313 314 186
f 209 296 189
f 315 308 307
f 316 317 302
f 121 206 318
f 317 283 302
f 121 277 285
f 277 218 285
f 206 296 318
f 205 296 206
f 314 235 186
f 316 298 299
f 232 310 121
f 188 319 209
f 189 296 320
f 287 351 108
f 307 294 315
f 304 321 219
f 319 313 208
f 211 183 322
f 289 310 207
f 311 323 121
f 312 323 311
f 283 213 302
f 301 294 305
f 187 189 320
f 274 322 183
f 284 282 211
f 287 108 212
f 136 135 288
f 290 133 266
f 280 294 182
f 312 294 296
f 214 267 216
f 312 311 289
f 199 184 200
f 276 293 267
f 312 296 205
f 323 204 121
f 204 323 205
f 210 182 272
f 200 182 132
f 321 271 219
f 271 321 272
f 271 273 219
f 273 271 201
f 321 210 272
f 280 182 282
f 207 232 286
f 305 294 280
f 135 219 288
f 135 292 219
f 134 292 135
f 133 294 266
f 188 209 189
f 279 309 305
f 309 301 305
f 136 182 134
f 182 294 134
f 268 270 133
f 303 290 266
f 284 211 322
f 207 310 232
f 294 207 286
f 292 276 219
f 276 292 293
f 306 320 307
f 316 302 298
f 269 308 315
f 315 294 270
f 317 324 283
f 269 315 270
f 314 299 235
f 323 312 205
f 320 296 294
f 313 186 208
f 325 213 291
f 320 294 307
f 213 121 318
f 296 213 318
f 319 208 209
f 306 187 320
f 186 296 208
f 203 213 283
f 298 213 296
f 298 296 235
f 291 213 203
f 219 121 108
f 121 219 108
f 108 219 121
f 231 234 236
f 222 138 220
f 226 231 227
f 234 226 228
f 233 230 229
f 108 231 236
f 222 300 223
f 228 220 234
f 237 220 233
f 234 220 236
f 231 229 224
f 220 237 236
f 300 225 227
f 225 228 226
f 300 220 225
f 223 300 227
f 224 221 231
f 137 230 220
f 229 137 224
f 221 138 222
f 221 224 138
f 231 221 223
f 137 138 224
f 233 231 237
f 233 229 231
f 326 324 275
f 275 317 316
f 275 327 328
f 108 236 237
f 260 172 191
f 258 190 259
f 366 330 240
f 349 241 249
f 113 251 376
f 121 219 214
f 240 351 172
f 260 240 172
f 351 241 349
f 366 240 351
f 263 265 264
f 263 191 265
f 172 265 191
f 265 252 264
f 262 258 259
f 331 332 59
f 333 327 334
f 185 366 343
f 325 328 333
f 295 297 343
f 321 304 210
f 287 275 351
f 304 185 182
f 231 108 237
f 238 352 108
f 335 336 337
f 412 239 346
f 239 109 346
f 109 240 346
f 329 339 239
f 113 376 357
f 412 329 239
f 329 412 181
f 148 181 349
f 324 317 275
f 281 187 306
f 260 190 253
f 263 259 191
f 199 198 343
f 259 190 191
f 275 342 326
f 253 240 260
f 316 299 275
f 212 334 287
f 275 314 313
f 324 203 283
f 108 121 212
f 297 185 343
f 352 185 219
f 304 182 210
f 326 291 203
f 342 325 291
f 351 275 366
f 212 213 325
f 342 328 325
f 324 326 203
f 333 212 325
f 333 334 212
f 287 334 327
f 275 328 342
f 327 333 328
f 212 121 213
f 281 278 284
f 326 342 291
f 327 275 287
f 188 187 281
f 275 299 314
f 256 257 344
f 356 412 335
f 256 356 335
f 256 335 337
f 347 337 336
f 346 336 335
f 344 257 347
f 344 347 336
f 337 257 256
f 347 257 337
f 344 346 240
f 335 412 346
f 356 256 344
f 344 336 346
f 357 376 349
f 351 349 341
f 351 341 350
f 281 309 279
f 352 366 185
f 313 319 275
f 275 319 281
f 319 188 281
f 279 278 281
f 281 306 308
f 131 295 343
f 198 131 343
f 343 274 199
f 281 274 343
f 322 274 281
f 284 322 281
f 269 268 281
f 108 351 238
f 355 345 348
f 356 344 240
f 348 345 358
f 412 349 181
f 359 365 360
f 365 359 350
f 365 361 360
f 350 359 362
f 362 359 363
f 369 350 362
f 350 341 365
f 364 338 353
f 351 350 369
f 353 355 348
f 308 269 281
f 275 281 343
f 275 343 366
f 353 332 331
f 355 353 331
f 290 303 281
f 303 309 281
f 281 268 290
f 338 340 59
f 338 345 340
f 338 354 353
f 332 354 59
f 345 338 358
f 353 364 332
f 364 354 332
f 364 353 354
f 368 340 345
f 354 338 59
f 358 364 348
f 338 364 358
f 364 353 348
f 340 330 331
f 355 331 345
f 330 356 240
f 369 363 361
f 360 361 363
f 360 363 359
f 362 363 369
f 361 365 367
f 365 341 367
f 361 367 369
f 367 341 369
f 376 357 349
f 378 341 349
f 351 369 380
f 59 340 331
f 379 340 368
f 356 330 412
f 372 369 370
f 369 373 370
f 373 374 375
f 369 372 378
f 374 341 378
f 372 375 378
f 369 341 373
f 375 374 378
f 377 373 375
f 371 377 375
f 371 375 372
f 371 370 377
f 370 373 377
f 373 341 374
f 370 371 372
f 406 349 376
f 349 406 396
f 380 400 351
f 340 379 412
f 381 382 500
f 331 330 345
f 412 330 340
f 383 384 396
f 383 385 384
f 369 378 406
f 399 387 411
f 399 388 387
f 238 351 400
f 413 238 400
f 379 349 412
f 349 406 376
f 386 389 390
f 391 392 396
f 391 393 392
f 406 369 378
f 378 369 406
f 389 386 394
f 386 390 385
f 349 386 406
f 378 349 406
f 366 429 330
f 392 383 396
f 383 392 395
f 386 385 395
f 397 394 396
f 397 389 394
f 393 395 392
f 386 395 393
f 383 395 385
f 398 386 393
f 385 390 384
f 390 389 397
f 394 349 396
f 394 386 349
f 384 397 396
f 384 390 397
f 369 406 380
f 401 402 403
f 352 429 366
f 352 433 429
f 330 379 345
f 368 345 379
f 406 349 379
f 399 404 405
f 386 398 399
f 399 405 388
f 386 399 406
f 399 398 407
f 399 407 404
f 407 398 408
f 388 405 387
f 405 404 409
f 387 409 411
f 387 405 409
f 409 410 411
f 409 404 410
f 404 407 410
f 391 396 411
f 391 398 393
f 408 391 411
f 391 408 398
f 410 408 411
f 410 407 408
f 406 399 411
f 406 411 396
f 400 380 406
f 414 415 416
f 415 417 416
f 417 414 416
f 379 330 427
f 420 421 426
f 406 379 427
f 423 424 453
f 424 423 425
f 418 432 422
f 413 432 418
f 431 400 406
f 421 419 422
f 420 419 421
f 426 238 413
f 426 421 422
f 422 238 426
f 419 418 422
f 420 418 419
f 420 413 418
f 415 416 430
f 429 427 330
f 415 414 416
f 430 414 417
f 427 431 406
f 432 429 433
f 432 400 429
f 400 432 413
f 413 420 426
f 430 417 415
f 422 432 238
f 414 430 416
f 430 433 414
f 238 432 433
f 352 238 433
f 431 502 406
f 502 431 406
f 429 400 431
f 430 414 433
f 431 427 429
f 431 653 502
f 436 437 438
f 403 435 401
f 434 441 428
f 444 442 402
f 441 494 428
f 444 446 438
f 446 436 438
f 494 441 447
f 448 443 435
f 442 403 402
f 448 403 442
f 449 450 451
f 454 447 441
f 494 455 456
f 455 457 456
f 454 449 458
f 435 459 460
f 435 449 445
f 461 464 494
f 463 464 461
f 494 465 453
f 453 424 466
f 424 467 466
f 454 441 449
f 464 463 470
f 471 442 453
f 448 442 471
f 494 472 473
f 472 474 473
f 462 435 460
f 473 455 494
f 455 473 478
f 450 449 479
f 502 434 428
f 441 434 449
f 480 454 458
f 494 464 481
f 464 470 481
f 447 480 494
f 454 480 447
f 478 449 457
f 494 452 441
f 475 449 451
f 482 451 450
f 463 461 458
f 463 449 470
f 470 449 475
f 481 470 475
f 477 479 483
f 472 483 474
f 494 480 461
f 480 458 461
f 449 483 479
f 463 458 449
f 494 476 482
f 476 451 482
f 481 476 494
f 476 481 475
f 476 475 451
f 477 472 494
f 472 477 483
f 494 469 477
f 469 479 477
f 469 450 479
f 482 469 494
f 469 482 450
f 453 444 445
f 483 449 474
f 487 460 459
f 435 457 449
f 473 474 478
f 449 478 474
f 456 457 485
f 456 484 494
f 484 456 485
f 435 485 457
f 465 489 462
f 485 435 489
f 455 478 457
f 494 484 465
f 484 489 465
f 435 462 489
f 484 485 489
f 435 425 490
f 423 490 425
f 494 453 445
f 488 462 460
f 487 468 453
f 468 487 459
f 465 488 453
f 488 465 462
f 453 488 487
f 488 460 487
f 453 486 471
f 486 443 471
f 445 449 434
f 424 425 467
f 453 468 423
f 468 490 423
f 453 442 444
f 448 435 403
f 468 459 490
f 435 440 467
f 459 435 490
f 448 471 443
f 466 486 453
f 440 486 466
f 440 466 467
f 425 435 467
f 486 440 443
f 440 435 443
f 402 446 444
f 446 402 401
f 437 435 445
f 436 435 437
f 438 445 444
f 437 445 438
f 446 401 436
f 401 435 436
f 491 492 493
f 441 452 494
f 502 428 494
f 439 498 529
f 531 529 518
f 503 504 600
f 503 505 504
f 526 507 506
f 508 509 499
f 510 511 512
f 567 518 529
f 513 531 518
f 515 516 517
f 520 521 522
f 521 600 522
f 523 382 381
f 493 524 550
f 530 531 532
f 533 530 532
f 499 530 508
f 534 627 535
f 501 509 515
f 550 545 518
f 550 537 538
f 539 540 541
f 544 521 520
f 546 547 548
f 550 544 520
f 551 552 553
f 551 553 554
f 439 529 434
f 529 499 434
f 555 534 496
f 507 510 506
f 499 509 501
f 558 559 560
f 534 555 561
f 562 554 563
f 499 545 434
f 564 565 566
f 564 567 565
f 568 569 511
f 445 434 648
f 553 535 627
f 445 648 494
f 571 549 572
f 573 574 575
f 576 537 577
f 571 578 497
f 579 580 581
f 434 502 494
f 582 523 548
f 583 584 585
f 588 645 586
f 526 587 507
f 589 590 570
f 543 592 573
f 592 593 574
f 567 586 565
f 578 572 561
f 382 582 500
f 582 382 523
f 518 595 596
f 595 519 596
f 520 546 550
f 597 642 598
f 545 500 542
f 599 576 600
f 576 599 537
f 550 523 381
f 548 547 582
f 547 500 582
f 544 550 601
f 523 550 548
f 602 594 519
f 594 602 524
f 492 596 519
f 596 492 491
f 596 491 518
f 507 556 510
f 545 381 500
f 545 550 381
f 538 504 505
f 541 540 627
f 540 575 627
f 543 603 592
f 529 588 567
f 583 564 566
f 566 565 645
f 530 529 531
f 567 588 586
f 498 588 529
f 517 501 515
f 529 530 499
f 543 567 526
f 606 585 607
f 526 585 606
f 607 584 645
f 585 584 607
f 533 532 516
f 515 533 516
f 516 532 531
f 536 609 511
f 531 517 516
f 608 512 511
f 531 513 517
f 501 517 513
f 491 550 518
f 526 610 604
f 594 524 493
f 583 566 584
f 506 510 512
f 611 604 612
f 543 613 614
f 567 564 583
f 615 605 570
f 616 612 511
f 499 501 545
f 519 567 543
f 526 567 583
f 603 615 593
f 550 524 577
f 538 505 550
f 604 608 612
f 525 536 569
f 501 513 545
f 513 518 545
f 543 573 618
f 518 567 619
f 567 519 619
f 606 607 620
f 595 619 519
f 619 595 518
f 550 505 601
f 621 569 568
f 550 491 493
f 493 492 594
f 492 519 594
f 590 589 622
f 623 544 601
f 611 612 616
f 621 568 617
f 598 642 624
f 620 607 645
f 577 602 576
f 602 519 576
f 550 546 548
f 537 599 538
f 495 539 591
f 524 602 577
f 576 519 600
f 577 537 550
f 538 599 504
f 599 600 504
f 542 543 495
f 600 519 542
f 500 600 542
f 519 543 542
f 591 541 627
f 495 543 539
f 628 624 528
f 527 605 615
f 617 605 527
f 563 554 570
f 614 609 536
f 570 528 579
f 622 629 642
f 508 530 533
f 610 608 604
f 521 623 600
f 623 521 544
f 505 503 601
f 601 503 623
f 503 600 623
f 500 547 600
f 627 534 561
f 562 630 642
f 546 520 522
f 600 547 522
f 547 546 522
f 556 620 645
f 592 603 593
f 569 536 511
f 606 620 587
f 587 620 556
f 565 586 645
f 515 508 533
f 584 566 645
f 614 536 525
f 574 593 570
f 610 512 608
f 610 506 512
f 543 621 617
f 618 573 575
f 510 556 645
f 526 604 611
f 543 617 527
f 509 508 515
f 560 581 642
f 526 583 585
f 616 511 609
f 510 645 511
f 526 506 610
f 612 608 511
f 507 587 556
f 526 606 587
f 593 615 570
f 543 525 621
f 543 614 525
f 614 613 609
f 543 527 603
f 621 525 569
f 613 616 609
f 568 511 570
f 617 568 605
f 568 570 605
f 574 570 627
f 629 631 632
f 611 616 613
f 527 615 603
f 543 526 613
f 526 611 613
f 631 629 589
f 633 558 632
f 633 559 558
f 618 540 539
f 562 551 554
f 634 635 597
f 511 636 634
f 645 637 511
f 511 637 636
f 528 624 580
f 570 633 631
f 581 560 638
f 629 632 642
f 570 631 589
f 592 574 573
f 559 633 570
f 630 590 622
f 591 539 541
f 558 560 642
f 634 636 635
f 630 622 642
f 618 575 540
f 632 558 642
f 638 560 559
f 579 528 580
f 639 640 645
f 495 591 626
f 633 632 631
f 624 642 580
f 634 641 511
f 581 638 579
f 570 628 528
f 511 628 570
f 543 618 539
f 574 627 575
f 511 641 628
f 570 638 559
f 622 589 629
f 579 638 570
f 495 626 514
f 591 627 626
f 641 634 597
f 641 597 598
f 641 598 628
f 624 628 598
f 578 555 497
f 626 627 514
f 563 570 590
f 552 551 642
f 497 552 642
f 572 549 514
f 590 630 563
f 563 630 562
f 551 562 642
f 554 553 627
f 570 554 627
f 542 514 545
f 497 555 496
f 534 535 496
f 496 552 497
f 627 561 514
f 552 496 535
f 552 535 553
f 542 495 514
f 578 561 555
f 561 572 514
f 578 571 572
f 643 571 497
f 571 643 549
f 514 549 643
f 514 643 545
f 439 434 668
f 434 502 668
f 557 640 644
f 645 625 637
f 647 639 645
f 640 557 645
f 557 649 645
f 649 625 645
f 434 668 502
f 648 685 434
f 434 494 648
f 650 651 652
f 653 431 502
f 644 655 657
f 646 656 642
f 657 588 498
f 581 580 642
f 658 659 699
f 434 663 668
f 668 663 434
f 434 643 642
f 660 649 557
f 642 643 497
f 588 647 645
f 647 588 657
f 655 640 639
f 655 661 657
f 661 647 657
f 661 639 647
f 655 644 640
f 661 655 639
f 644 660 557
f 635 646 642
f 662 660 657
f 660 662 649
f 625 656 637
f 597 635 642
f 642 662 657
f 646 635 636
f 646 637 656
f 657 660 644
f 662 656 625
f 662 625 649
f 662 642 656
f 636 637 646
f 434 545 643
f 650 652 667
f 664 685 665
f 651 685 666
f 498 439 668
f 663 498 668
f 671 672 673
f 671 670 672
f 674 672 670
f 675 676 667
f 677 685 678
f 663 657 498
f 657 711 642
f 700 685 693
f 679 680 699
f 681 682 683
f 684 683 667
f 434 685 675
f 686 658 699
f 667 686 699
f 687 688 699
f 659 687 699
f 648 434 710
f 680 690 699
f 676 684 667
f 434 642 710
f 652 686 667
f 685 691 692
f 434 675 667
f 694 685 695
f 685 696 697
f 648 710 693
f 683 650 667
f 688 679 699
f 690 698 699
f 698 700 699
f 699 700 693
f 434 667 502
f 693 667 699
f 685 651 682
f 648 693 685
f 701 686 666
f 667 693 710
f 682 650 683
f 663 711 657
f 668 674 670
f 653 668 502
f 681 685 682
f 676 692 691
f 703 663 670
f 663 668 670
f 687 665 697
f 674 668 711
f 652 651 666
f 651 650 682
f 681 684 691
f 684 681 683
f 689 702 705
f 685 681 691
f 676 691 684
f 677 678 680
f 692 676 675
f 685 692 675
f 685 694 678
f 652 666 686
f 666 685 701
f 685 677 696
f 685 697 665
f 690 678 694
f 679 696 677
f 679 677 680
f 695 700 698
f 658 664 659
f 664 665 659
f 658 701 664
f 696 688 697
f 665 687 659
f 686 701 658
f 688 696 679
f 687 697 688
f 694 695 698
f 685 664 701
f 695 685 700
f 678 690 680
f 690 694 698
f 667 710 707
f 669 715 702
f 707 502 667
f 434 502 668
f 703 671 673
f 670 671 703
f 703 673 711
f 672 674 673
f 689 708 669
f 702 689 669
f 668 669 708
f 706 704 709
f 705 702 709
f 708 689 705
f 673 674 711
f 663 703 711
f 705 709 704
f 708 705 704
f 669 668 653
f 654 708 704
f 654 704 706
f 654 706 715
f 434 710 737
f 710 642 711
f 668 708 654
f 669 653 715
f 710 434 737
f 737 502 707
f 706 709 702
f 706 702 715
f 715 502 737
f 715 668 654
f 668 715 717
f 668 717 711
f 712 713 714
f 653 502 715
f 707 710 737
f 710 711 717
f 718 736 734
f 738 714 719
f 720 721 722
f 723 724 716
f 725 712 714
f 719 714 713
f 720 722 738
f 726 723 729
f 722 721 727
f 727 726 729
f 738 722 729
f 716 713 729
f 726 721 720
f 724 728 738
f 724 719 716
f 721 726 727
f 726 720 728
f 726 728 723
f 729 723 716
f 725 730 712
f 738 719 724
f 722 727 729
f 738 728 720
f 730 725 731
f 713 716 719
f 725 714 738
f 713 712 729
f 730 731 733
f 723 728 724
f 731 725 738
f 729 732 738
f 733 731 718
f 733 718 735
f 718 731 736
f 731 738 736
f 738 732 736
f 732 734 736
f 715 737 717
f 710 738 737
f 710 717 738
f 717 737 738
f 712 730 732
f 729 712 732
f 735 718 734
f 734 733 735
f 732 733 734
f 733 732 730

