# https://github.com/mikedh/trimesh
v -0.06353702 -0.00173839 0.11216638
v -0.06036143 -0.00173839 0.09779223
v -0.04905913 -0.00173839 0.11216638
v -0.06353066 -0.00010162 0.11216638
v -0.06008460 -0.00173839 0.09657912
v -0.06350202 0.00260974 0.11216638
v -0.06348611 0.00362961 0.11216638
v -0.04883004 -0.00173839 0.11159416
v -0.03103338 0.03262378 0.11216638
v -0.06000824 -0.00023097 0.09657912
v -0.04556853 -0.00173839 0.09657912
v -0.06338429 0.00643052 0.11216638
v -0.04779272 -0.00173839 0.10884141
v -0.03103338 0.03250935 0.11164299
v -0.03103338 0.04908598 0.11216638
v -0.04685086 -0.00173839 0.10630228
v -0.04671722 -0.00173839 0.10593300
v -0.04647539 -0.00173839 0.10526312
v -0.04591855 -0.00173839 0.10328401
v -0.04390756 0.00220677 0.10190153
v -0.06000187 -0.00014142 0.09657912
v -0.04558126 -0.00173839 0.10044122
v -0.03103338 0.03109646 0.09657912
v -0.03103338 0.03104173 0.09794940
v -0.03103338 0.03094223 0.10044122
v -0.06333655 0.00708224 0.11216638
v -0.05993187 0.00082870 0.09657912
v -0.03103338 0.03204171 0.10890244
v -0.03103338 0.04836958 0.10292085
v -0.03135794 0.04893175 0.11216638
v -0.03103338 0.03115616 0.10324281
v -0.03103338 0.04771786 0.09657912
v -0.06317110 0.00897273 0.11216638
v -0.05978868 0.00256496 0.09657912
v -0.03500446 0.04710096 0.11216638
v -0.03388441 0.04766811 0.11216638
v -0.03103338 0.04806611 0.09969047
v -0.03693908 0.04608607 0.11216638
v -0.03104929 0.04771288 0.09657912
v -0.03103338 0.04784223 0.09759081
v -0.06061917 0.00923143 0.10223571
v -0.06016415 0.00923143 0.10044122
v -0.06106465 0.00655490 0.10301698
v -0.06231833 0.01256964 0.11216638
v -0.06084509 0.01102242 0.10414311
v -0.05918093 0.00923143 0.09657912
v -0.03116065 0.04777756 0.09764117
v -0.03313665 0.04727508 0.10324281
v -0.03744819 0.04580249 0.11216638
v -0.03244934 0.04687708 0.09657912
v -0.03918872 0.04479755 0.11216638
v -0.05945139 0.00923143 0.09764117
v -0.06155785 0.01498748 0.11216638
v -0.05811179 0.01418651 0.09657912
v -0.05871636 0.01205225 0.09657912
v -0.03758502 0.04379260 0.09657912
v -0.03769320 0.04386225 0.09764117
v -0.03629315 0.04470302 0.09764117
v -0.03976784 0.04228021 0.09657912
v -0.04085925 0.04355380 0.11216638
v -0.06063190 0.01762422 0.11216638
v -0.05792406 0.01624615 0.09901144
v -0.05763131 0.01543523 0.09657912
v -0.04101834 0.04134491 0.09657912
v -0.04103743 0.04135984 0.09681106
v -0.04209066 0.04241951 0.11216638
v -0.05934639 0.02048483 0.11216638
v -0.05768859 0.01564915 0.09714524
v -0.05818498 0.01961919 0.10604134
v -0.05674673 0.01747995 0.09657912
v -0.04166110 0.04064344 0.09657912
v -0.05205972 0.03220588 0.11216638
v -0.05158879 0.03271333 0.11216638
v -0.05044011 0.03393220 0.11216638
v -0.04603947 0.03847932 0.11216638
v -0.04490987 0.03961859 0.11216638
v -0.04378346 0.04074791 0.11216638
v -0.05830271 0.02242507 0.11216638
v -0.05225700 0.02730055 0.09657912
v -0.05227291 0.02727070 0.09657912
v -0.05479620 0.02392752 0.10044122
v -0.05417572 0.02313649 0.09657912
v -0.05494257 0.02144998 0.09657912
v -0.04215431 0.04009619 0.09657912
v -0.04900505 0.03245960 0.09764117
v -0.05003600 0.03093228 0.09657912
v -0.05298248 0.03105168 0.11216638
v -0.04369437 0.03833505 0.09657912
v -0.05729085 0.02411159 0.11216638
v -0.05165243 0.02867365 0.09754808
v -0.05244155 0.02763885 0.09842091
v -0.05142014 0.02872837 0.09657912
v -0.04889686 0.03233025 0.09657912
v -0.05179561 0.02936019 0.10044122
v -0.05458301 0.02862389 0.11216638
f 1 2 5
f 1 5 11
f 1 11 22
f 1 22 19
f 1 19 18
f 1 18 17
f 1 17 16
f 1 16 13
f 1 13 8
f 1 8 3
f 1 3 9
f 1 9 15
f 1 15 30
f 1 30 36
f 1 36 35
f 1 35 38
f 1 38 49
f 1 49 51
f 1 51 60
f 1 60 66
f 1 66 77
f 1 77 76
f 1 76 75
f 1 75 74
f 1 74 73
f 1 73 72
f 1 72 87
f 1 87 95
f 1 95 89
f 1 89 78
f 1 78 67
f 1 67 61
f 1 61 53
f 1 53 44
f 1 44 33
f 1 33 26
f 1 26 12
f 1 12 7
f 1 7 6
f 1 6 4
f 1 4 2
f 2 4 6
f 2 6 7
f 2 7 5
f 3 8 9
f 5 10 21
f 5 21 27
f 5 27 34
f 5 34 46
f 5 46 55
f 5 55 54
f 5 54 63
f 5 63 70
f 5 70 83
f 5 83 82
f 5 82 80
f 5 80 79
f 5 79 92
f 5 92 86
f 5 86 93
f 5 93 88
f 5 88 84
f 5 84 71
f 5 71 64
f 5 64 59
f 5 59 56
f 5 56 50
f 5 50 39
f 5 39 32
f 5 32 23
f 5 23 11
f 5 7 12
f 5 12 10
f 8 13 9
f 9 14 28
f 9 28 31
f 9 31 25
f 9 25 24
f 9 24 23
f 9 23 32
f 9 32 40
f 9 40 37
f 9 37 29
f 9 29 15
f 9 13 16
f 9 16 17
f 9 17 18
f 9 18 19
f 9 19 20
f 9 20 14
f 10 12 21
f 11 23 24
f 11 24 25
f 11 25 22
f 12 26 27
f 12 27 21
f 14 20 28
f 15 29 30
f 19 22 20
f 20 22 31
f 20 31 28
f 22 25 31
f 26 33 34
f 26 34 27
f 29 35 36
f 29 36 30
f 29 37 38
f 29 38 35
f 32 39 40
f 33 41 42
f 33 42 43
f 33 43 34
f 33 44 45
f 33 45 41
f 34 43 46
f 37 40 47
f 37 47 48
f 37 48 38
f 38 48 49
f 39 47 40
f 39 50 51
f 39 51 47
f 41 45 42
f 42 45 52
f 42 52 43
f 43 52 46
f 44 53 54
f 44 54 45
f 45 54 55
f 45 55 46
f 45 46 52
f 47 51 48
f 48 51 49
f 50 56 57
f 50 57 58
f 50 58 51
f 51 58 57
f 51 57 59
f 51 59 60
f 53 61 54
f 54 62 63
f 54 61 62
f 56 59 57
f 59 64 60
f 60 64 65
f 60 65 66
f 61 67 62
f 62 68 63
f 62 67 69
f 62 69 70
f 62 70 68
f 63 68 70
f 64 71 72
f 64 72 73
f 64 73 74
f 64 74 65
f 65 74 75
f 65 75 76
f 65 76 77
f 65 77 66
f 67 78 79
f 67 79 80
f 67 80 81
f 67 81 69
f 69 81 82
f 69 82 83
f 69 83 70
f 71 84 72
f 72 85 86
f 72 86 87
f 72 84 88
f 72 88 85
f 78 89 90
f 78 90 91
f 78 91 79
f 79 91 92
f 80 82 81
f 85 93 86
f 85 88 93
f 86 92 90
f 86 90 94
f 86 94 95
f 86 95 87
f 89 95 90
f 90 92 91
f 90 95 94

