# https://github.com/mikedh/trimesh
v 0.15289538 0.00362573 0.10324319
v 0.15245689 0.00056488 0.10341997
v 0.15246501 0.00059318 0.10307483
v 0.15288320 0.00362573 0.10307483
v 0.15288320 0.00379205 0.10307483
v 0.15282230 0.00642474 0.10324319
v 0.15268832 0.00362573 0.10604216
v 0.15240817 0.00108858 0.10604216
v 0.15212397 -0.00054623 0.10446800
v 0.15233509 0.00005886 0.10307483
v 0.15281418 0.00642474 0.10307483
v 0.15279794 0.00656982 0.10307483
v 0.15243659 0.00876373 0.10307483
v 0.15243659 0.00876019 0.10324319
v 0.15225389 0.00831079 0.10604216
v 0.15253403 0.00642474 0.10604216
v 0.15222141 0.00642474 0.10779310
v 0.15230261 0.00362573 0.10810035
v 0.15224577 0.00161583 0.10786044
v 0.15207525 -0.00031269 0.10604216
v 0.15147435 -0.00178473 0.10307483
v 0.15177074 -0.00127518 0.10307483
v 0.15116579 -0.00197581 0.10604216
v 0.15198186 0.01008362 0.10307483
v 0.15127541 0.01202629 0.10604216
v 0.15192096 0.00970853 0.10604216
v 0.15213209 0.00783309 0.10745217
v 0.14943620 0.00810556 0.11885429
v 0.15131195 0.00642474 0.11164431
v 0.15193314 0.00362573 0.10950194
v 0.15063392 0.00642474 0.11444749
v 0.14991934 0.00642474 0.11724646
v 0.15135661 0.00362573 0.11164431
v 0.15057708 0.00362573 0.11444749
v 0.14922101 0.00082673 0.11824820
v 0.14961484 0.00082673 0.11684661
v 0.15028476 0.00082673 0.11444749
v 0.15106429 0.00082673 0.11164431
v 0.14946462 -0.00092840 0.11634574
v 0.15181946 0.00073827 0.10881588
v 0.15024415 -0.00197581 0.11164431
v 0.14935499 -0.00341955 0.11313850
v 0.15080039 -0.00197581 0.10884534
v 0.14993152 -0.00434665 0.10307483
v 0.14968386 -0.00392556 0.10884534
v 0.14982190 -0.00414495 0.10604216
v 0.15195344 0.01016500 0.10307483
v 0.14959454 0.01679273 0.10884534
v 0.15020762 0.01482529 0.10884534
v 0.15088158 0.01202629 0.10884534
v 0.15163676 0.00895127 0.10857176
v 0.15026851 0.00922374 0.11444749
v 0.14905455 0.00997038 0.11799566
v 0.14633835 0.01296047 0.12102613
v 0.14672812 0.01109211 0.12179216
v 0.14707323 0.00922374 0.12233933
v 0.14623686 0.00922374 0.12374092
v 0.14510003 0.00922374 0.12564337
v 0.14315931 0.00922374 0.12888008
v 0.14734932 0.00642474 0.12277285
v 0.14875004 0.00642474 0.12029376
v 0.14944432 0.00642474 0.11889638
v 0.14964326 0.00911405 0.11713282
v 0.14943620 0.01090456 0.11612687
v 0.14937936 0.00444314 0.11877011
v 0.14970010 0.00355496 0.11746954
v 0.14930222 0.00257478 0.11854704
v 0.14868508 0.00082673 0.12004965
v 0.14804359 -0.00197581 0.12004965
v 0.14885154 -0.00190858 0.11726751
v 0.14965544 -0.00190858 0.11422021
v 0.14948898 -0.00362832 0.11164431
v 0.14911139 -0.00279676 0.11500729
v 0.14774721 -0.00477482 0.11724646
v 0.14664286 -0.00639548 0.11891322
v 0.14686211 -0.00669980 0.11724646
v 0.14905861 -0.00574438 0.10307483
v 0.14878659 -0.00532330 0.10884534
v 0.14892869 -0.00554269 0.10604216
v 0.14864854 -0.00502959 0.11164431
v 0.14709759 -0.00696873 0.11444749
v 0.15190879 0.01027116 0.10307483
v 0.14953364 0.01664765 0.10604216
v 0.15028476 0.01482529 0.10604216
v 0.14876628 0.01804893 0.10604216
v 0.14870538 0.01819047 0.10884534
v 0.14943620 0.01647073 0.11052473
v 0.14964326 0.01471560 0.11153488
v 0.15026851 0.01202629 0.11164431
v 0.14676060 0.01393711 0.11915734
v 0.14943620 0.01370711 0.11332790
v 0.14905455 0.01557193 0.11239351
v 0.14857952 0.01471560 0.11433385
v 0.14857952 0.01191305 0.11713282
v 0.14404441 0.01692366 0.12212046
v 0.14360592 0.01590102 0.12398924
v 0.14592829 0.01485360 0.12007490
v 0.14396322 0.01403265 0.12465006
v 0.14425959 0.01183167 0.12560970
v 0.14378457 0.01076656 0.12713756
v 0.14132822 0.01202629 0.13043319
v 0.14175859 0.00922374 0.13103928
v 0.14421494 0.00642474 0.12778575
v 0.14557100 0.00642474 0.12564337
v 0.14648452 0.00642474 0.12417444
v 0.14656572 0.00298172 0.12430492
v 0.14725187 0.00379912 0.12311798
v 0.14724375 0.00073119 0.12311378
v 0.14889620 0.00355496 0.11983919
v 0.14707729 -0.00197581 0.12235617
v 0.14670782 -0.00372033 0.12175007
v 0.14698391 -0.00470051 0.11992758
v 0.14618813 -0.00558515 0.12078201
v 0.14365871 -0.00890786 0.12118186
v 0.14549792 -0.00809753 0.11724646
v 0.14774314 -0.00728012 0.10307483
v 0.14724782 -0.00711027 0.11164431
v 0.14738586 -0.00722350 0.10884534
v 0.14752796 -0.00732612 0.10604216
v 0.14564814 -0.00836646 0.11444749
v 0.15112519 0.01202629 0.10307483
v 0.15105211 0.01218552 0.10307483
v 0.14980566 0.01486422 0.10307483
v 0.14853486 0.01738367 0.10307483
v 0.14736556 0.01980759 0.10604216
v 0.14709353 0.01985359 0.10307483
v 0.14730465 0.01955989 0.10884534
v 0.14690677 0.01928035 0.11164431
v 0.14662256 0.01910342 0.11330265
v 0.14624091 0.01859386 0.11516723
v 0.14359375 0.01879202 0.12117764
v 0.14676467 0.01672904 0.11635837
v 0.14720315 0.01485360 0.11727172
v 0.14325270 0.01776584 0.12297067
v 0.14181543 0.01769507 0.12576544
v 0.14307405 0.01491022 0.12560970
v 0.14274519 0.01183167 0.12822348
v 0.14101153 0.01357972 0.12994916
v 0.14007772 0.01202629 0.13183478
v 0.14073951 0.00922374 0.13243666
v 0.14327300 0.00642474 0.12918734
v 0.14656572 0.00160168 0.12430492
v 0.14650888 -0.00026315 0.12422074
v 0.14620437 -0.00197581 0.12375776
v 0.14363434 -0.00301261 0.12689765
v 0.14424741 -0.00426880 0.12503307
v 0.14521778 -0.00492698 0.12298330
v 0.14370743 -0.00613717 0.12421654
v 0.14432050 -0.00703950 0.12234774
v 0.13952961 -0.01070191 0.12284862
v 0.14256654 -0.00961911 0.12016749
v 0.14392667 -0.00907064 0.11931307
v 0.14326488 -0.00781444 0.12310957
v 0.14117800 -0.00922633 0.12461217
v 0.13957833 -0.01001543 0.12558445
v 0.13560351 -0.01184487 0.12729330
v 0.14764977 -0.00736151 0.10324319
v 0.14765788 -0.00735797 0.10307483
v 0.14579837 -0.00850800 0.11164431
v 0.14583491 -0.00862478 0.10884534
v 0.14409720 -0.00915202 0.11724646
v 0.14570904 0.02125487 0.10307483
v 0.14562784 0.02131856 0.10307483
v 0.14499853 0.02132564 0.10627787
v 0.14512846 0.02085501 0.10884534
v 0.14512846 0.02035961 0.11164431
v 0.14523808 0.01972267 0.11432123
v 0.14442200 0.01955989 0.11724646
v 0.14400787 0.01929096 0.11930886
v 0.14133228 0.01942897 0.12491101
v 0.14068673 0.01867525 0.12677980
v 0.14119830 0.01680689 0.12741114
v 0.13925758 0.01445020 0.13099720
v 0.13867699 0.01202629 0.13313115
v 0.13591208 0.01145304 0.13587961
v 0.13933878 0.00922374 0.13363201
v 0.13937938 0.00642474 0.13367411
v 0.14078011 0.00642474 0.13247455
v 0.14187227 0.00642474 0.13107717
v 0.14420682 0.00362573 0.12768473
v 0.14312684 0.00362573 0.12908632
v 0.14406066 0.00082673 0.12744903
v 0.14129980 -0.00197581 0.13029851
v 0.14110492 -0.00371325 0.13006280
v 0.13812888 -0.00617609 0.13264712
v 0.14327706 -0.00503313 0.12583699
v 0.13952961 -0.01075145 0.12004965
v 0.14233106 -0.00990220 0.11724646
v 0.14054462 -0.00846908 0.12647676
v 0.13867699 -0.00962619 0.12784888
v 0.13681342 -0.01057099 0.12850548
v 0.13483616 -0.01151224 0.12915787
v 0.13296852 -0.01195103 0.13021011
v 0.12553046 -0.01272951 0.13404871
v 0.12272901 -0.01312229 0.13404871
v 0.13560351 -0.01184487 0.12642624
v 0.14495793 -0.00870262 0.10307483
v 0.14556695 -0.00872386 0.10604216
v 0.14424741 -0.00921218 0.11444749
v 0.14439764 -0.00926526 0.11164431
v 0.14431238 0.02212889 0.10307483
v 0.14365871 0.02181750 0.10736378
v 0.14429208 0.02211474 0.10324319
v 0.14233106 0.02066038 0.11724646
v 0.14182761 0.01975451 0.12284862
v 0.13966359 0.01992790 0.12576544
v 0.13881910 0.01948558 0.12763422
v 0.13952961 0.02079839 0.12284862
v 0.13769851 0.01855848 0.12950301
v 0.13559539 0.01652380 0.13289124
v 0.13849429 0.01669012 0.13017644
v 0.13746303 0.01532423 0.13204523
v 0.13814918 0.01345587 0.13266816
v 0.13525434 0.01332140 0.13537874
v 0.13679717 0.01224214 0.13467164
v 0.13760919 0.00922374 0.13503361
v 0.13235139 0.01301709 0.13809354
v 0.13130389 0.01206167 0.13925101
v 0.13275740 0.01115226 0.13841342
v 0.13760107 0.00642474 0.13507149
v 0.13757265 0.00362573 0.13503361
v 0.13754423 0.00082673 0.13495785
v 0.13875413 -0.00197581 0.13339632
v 0.14036598 0.00082673 0.13195684
v 0.14172611 0.00362573 0.13081621
v 0.13746303 -0.00197581 0.13479369
v 0.14015486 -0.00197581 0.13170010
v 0.13726408 -0.00477482 0.13436438
v 0.13559539 -0.00643087 0.13568179
v 0.13802738 -0.00886540 0.12971766
v 0.14443418 -0.00922633 0.10884534
v 0.13615974 -0.00964742 0.13077833
v 0.13414594 -0.01052499 0.13142651
v 0.13191696 -0.01140609 0.13207470
v 0.13005339 -0.01193687 0.13291649
v 0.12298479 -0.01262689 0.13710863
v 0.11992755 -0.01320014 0.13684768
v 0.11992755 -0.01327445 0.13404871
v 0.12553046 -0.01278613 0.13124552
v 0.13112930 -0.01228011 0.12844655
v 0.13371964 -0.01189087 0.12555499
v 0.13672816 -0.01143086 0.12284862
v 0.13952961 -0.01060637 0.11724646
v 0.14386983 -0.00899279 0.10451851
v 0.14461283 -0.00871324 0.10307483
v 0.14416622 -0.00908479 0.10604216
v 0.14233106 0.02271983 0.10307483
v 0.13672816 0.02099655 0.12564337
v 0.13392670 0.02101424 0.12844655
v 0.13675251 0.01993144 0.12851811
v 0.13380896 0.01977928 0.13120765
v 0.13583088 0.01936527 0.13025221
v 0.13952961 0.02116286 0.12004965
v 0.13672816 0.02136810 0.12284862
v 0.13279800 0.01922373 0.13286598
v 0.12976918 0.01905742 0.13547976
v 0.13466564 0.01839217 0.13211678
v 0.13261935 0.01631857 0.13552605
v 0.13661041 0.01456344 0.13332476
v 0.13048781 0.01423435 0.13893112
v 0.13620846 0.00922374 0.13609006
v 0.12918453 0.01202629 0.14078307
v 0.12945250 0.00922374 0.14087988
v 0.13112930 0.00922374 0.13971399
v 0.13285890 0.00922374 0.13848497
v 0.13425962 0.00922374 0.13748744
v 0.13620034 0.00642474 0.13606902
v 0.13614351 0.00082673 0.13602693
v 0.13606230 -0.00197581 0.13600588
v 0.13586336 -0.00477482 0.13589645
v 0.13014271 -0.00652287 0.13844288
v 0.12716667 -0.00913787 0.13835870
v 0.12408913 -0.01174579 0.13821560
v 0.13234327 -0.00885832 0.13529456
v 0.13420685 -0.00849739 0.13423390
v 0.13532337 -0.00897509 0.13264290
v 0.13265996 -0.00363540 0.13834187
v 0.12444236 -0.00100271 0.14403240
v 0.12740622 -0.00378402 0.14127973
v 0.12894092 -0.01129639 0.13478528
v 0.12707329 -0.01185549 0.13556815
v 0.12553046 -0.01217750 0.13621212
v 0.12222556 -0.01223057 0.13870804
v 0.11992755 -0.01240396 0.13907423
v 0.11141763 -0.01299844 0.13964665
v 0.11141763 -0.01302321 0.13954563
v 0.11141763 -0.01340892 0.13684347
v 0.11712610 -0.01331337 0.13404871
v 0.11712610 -0.01321429 0.13124552
v 0.11992755 -0.01308337 0.13124552
v 0.12272901 -0.01293829 0.13124552
v 0.12833191 -0.01242166 0.12844655
v 0.12833191 -0.01213857 0.12564337
v 0.13451541 -0.01174225 0.12456167
v 0.12553046 -0.01255966 0.12844655
v 0.12272901 -0.01269413 0.12844655
v 0.11992755 -0.01282505 0.12844655
v 0.13952961 -0.01035160 0.11444749
v 0.14233106 -0.00955896 0.10884534
v 0.14233106 -0.00900694 0.10445117
v 0.14235542 -0.00877693 0.10307483
v 0.13952961 -0.01002605 0.11164431
v 0.12456416 -0.01179533 0.12132917
v 0.13952961 0.02274106 0.10307483
v 0.12833191 0.02201920 0.12844655
v 0.12808019 0.02189534 0.13098878
v 0.13022391 0.02191304 0.12844655
v 0.12977730 0.02183873 0.12988182
v 0.12697991 0.02184227 0.13268500
v 0.12884754 0.02153795 0.13174640
v 0.12808019 0.02089039 0.13379196
v 0.12833191 0.01947497 0.13605218
v 0.12673630 0.01884510 0.13809354
v 0.13163682 0.01818693 0.13473056
v 0.13087352 0.01740137 0.13601009
v 0.12959460 0.01609918 0.13813983
v 0.12772696 0.01698028 0.13882169
v 0.12846589 0.01491376 0.13981080
v 0.12733719 0.01373188 0.14119135
v 0.12778380 0.01202629 0.14140600
v 0.12805177 0.00922374 0.14164591
v 0.12946062 0.00642474 0.14085884
v 0.12447484 0.00082673 0.14403662
v 0.12805989 0.00642474 0.14178481
v 0.12802741 0.00362573 0.14182269
v 0.13414188 -0.00197581 0.13740747
v 0.12630593 -0.00565238 0.14075361
v 0.12543302 -0.00744997 0.14015172
v 0.12818981 -0.00750305 0.13881327
v 0.12328118 -0.00830277 0.14066943
v 0.12275336 -0.01039406 0.13968874
v 0.13274116 -0.00197581 0.13840079
v 0.13112930 -0.00197581 0.13951196
v 0.12799899 0.00082673 0.14180585
v 0.12587151 0.00082673 0.14320744
v 0.12272901 0.00082673 0.14452906
v 0.11712610 -0.00197581 0.14540032
v 0.11992755 -0.00197581 0.14483211
v 0.11432465 -0.00477482 0.14550975
v 0.11992755 -0.00415203 0.14423864
v 0.12160031 -0.00356817 0.14395243
v 0.12346794 -0.00287107 0.14359047
v 0.12543302 -0.00473943 0.14167958
v 0.11992755 -0.01090715 0.14047160
v 0.11152725 -0.01209965 0.14136392
v 0.11141763 -0.01211026 0.14137654
v 0.11141763 -0.01215273 0.14129657
v 0.11141763 -0.01330984 0.13405292
v 0.11432465 -0.01321429 0.13124552
v 0.11712610 -0.01289228 0.12844655
v 0.12272901 -0.01238273 0.12564337
v 0.13112930 -0.01181656 0.12391770
v 0.13672816 -0.01112300 0.12004965
v 0.11992755 -0.01246766 0.12564337
v 0.12643179 -0.01175641 0.12163642
v 0.14233106 -0.00877693 0.10307483
v 0.12272901 -0.01180595 0.12133338
v 0.13660635 0.02216428 0.10307483
v 0.13238793 0.02187765 0.10721226
v 0.12993564 0.02179980 0.11094141
v 0.11141763 0.02046576 0.13404871
v 0.11141763 0.02046930 0.13415393
v 0.11992755 0.02126548 0.12844655
v 0.12272901 0.02157687 0.12844655
v 0.12427995 0.02181042 0.13071519
v 0.12596083 0.02193427 0.12844655
v 0.12411755 0.02182811 0.13258399
v 0.12411755 0.02182811 0.13265133
v 0.12533964 0.02189181 0.13148965
v 0.12553046 0.02184227 0.13268079
v 0.11992755 0.02096824 0.13684768
v 0.12272901 0.02089039 0.13684768
v 0.12569286 0.02007652 0.13703287
v 0.12486867 0.01947143 0.13870383
v 0.12569286 0.01779769 0.13941515
v 0.12853085 0.01779769 0.13755058
v 0.12553046 0.01432636 0.14147334
v 0.11870141 0.01353726 0.14390192
v 0.12553046 0.01202629 0.14218466
v 0.12553046 0.01572409 0.14076624
v 0.12406478 0.01618764 0.14103140
v 0.12553046 0.00922374 0.14266448
v 0.12553046 0.00642474 0.14299699
v 0.13112930 0.00082673 0.13958772
v 0.12427590 0.00271279 0.14391455
v 0.12443830 -0.00643441 0.14119555
v 0.12141760 -0.00904587 0.14108612
v 0.12288735 0.00363989 0.14421760
v 0.11992755 0.00642474 0.14470584
v 0.11712610 0.00922374 0.14514778
v 0.11992755 0.00362573 0.14495417
v 0.11992755 0.00082673 0.14503835
v 0.11712610 0.00082673 0.14543821
v 0.11432465 -0.00197581 0.14579596
v 0.11141763 -0.00207843 0.14575388
v 0.11141763 -0.00477482 0.14546767
v 0.11141763 -0.00488097 0.14544662
v 0.11141763 -0.00753844 0.14448697
v 0.11141763 -0.00761629 0.14445330
v 0.11432465 -0.00701827 0.14453327
v 0.11652926 -0.00672457 0.14415025
v 0.11732910 -0.00500129 0.14463429
v 0.11839690 -0.00608409 0.14380091
v 0.11992755 -0.00555330 0.14351470
v 0.11992755 -0.00757382 0.14243299
v 0.11992755 -0.00950942 0.14136812
v 0.11141763 -0.01008620 0.14277812
v 0.11141763 -0.01299136 0.13124552
v 0.12128768 -0.01179533 0.12141335
v 0.13952961 -0.00901048 0.10449326
v 0.13803956 -0.00899633 0.10457744
v 0.14061771 -0.00864247 0.10307483
v 0.13520562 0.02184227 0.10307483
v 0.11141763 0.01984652 0.13112767
v 0.11141763 0.02048700 0.13684768
v 0.11432465 0.02072054 0.13684768
v 0.11712610 0.02090809 0.13684768
v 0.11152725 0.02001991 0.13964665
v 0.11432465 0.01999867 0.13964665
v 0.11992755 0.01984298 0.13934360
v 0.12272901 0.01975451 0.13909106
v 0.12297261 0.01764553 0.14058946
v 0.11975297 0.01461298 0.14307276
v 0.11425969 0.01489606 0.14448697
v 0.11432465 0.01202629 0.14549292
v 0.11712610 0.01202629 0.14471005
v 0.11926170 0.01202629 0.14407029
v 0.12066242 0.01202629 0.14364938
v 0.12119835 0.01034547 0.14380933
v 0.12220119 0.01672196 0.14130919
v 0.12350042 0.00642474 0.14366201
v 0.12392267 0.00458115 0.14378828
v 0.12013056 0.00933698 0.14427231
v 0.12209970 0.00642474 0.14408291
v 0.11432465 0.00922374 0.14577913
v 0.11432465 0.00642474 0.14583806
v 0.11432465 0.00362573 0.14583806
v 0.11152725 0.00362573 0.14605271
v 0.11141763 0.00362573 0.14605692
v 0.11141763 0.00082673 0.14595591
v 0.11141763 -0.00197581 0.14576229
v 0.11141763 -0.01220227 0.12927573
v 0.13483210 -0.00915202 0.10701443
v 0.13617193 -0.00857170 0.10514565
v 0.13686214 -0.00754551 0.10307483
v 0.13952961 -0.00855400 0.10307483
v 0.13372776 0.02077362 0.10307483
v 0.13308220 0.02156980 0.10534347
v 0.11230273 0.01944312 0.12921680
v 0.11141763 0.01787200 0.12829503
v 0.11141763 0.02001637 0.13964665
v 0.11141763 0.01999160 0.13970979
v 0.11152725 0.01928742 0.14133445
v 0.11432465 0.01916357 0.14119555
v 0.11581063 0.01904326 0.14106086
v 0.11767827 0.01886633 0.14090934
v 0.11992755 0.01857617 0.14074098
v 0.11327715 0.01638934 0.14397348
v 0.11152725 0.01482529 0.14495417
v 0.11152725 0.01202629 0.14587593
v 0.11152725 0.00922374 0.14606955
v 0.11152725 0.00642474 0.14606955
v 0.11141763 0.00631858 0.14606955
v 0.11141763 -0.01214919 0.12922101
v 0.13393482 -0.00473236 0.10307483
v 0.13349227 0.02058254 0.10307483
v 0.13192508 0.01970497 0.10377352
v 0.13216463 0.01942189 0.10307483
v 0.11141763 0.01782600 0.12823610
v 0.11141763 0.01928742 0.14133024
v 0.11152725 0.01786846 0.14273604
v 0.11152725 0.01646719 0.14403662
v 0.11141763 0.01640703 0.14406607
v 0.11141763 0.01482529 0.14494996
v 0.11141763 0.01471914 0.14498784
v 0.11141763 0.01202629 0.14587593
v 0.11141763 0.01192013 0.14588436
v 0.11141763 0.00922374 0.14606955
v 0.11141763 -0.01060991 0.12787413
v 0.13179110 -0.00179889 0.10307483
v 0.11141763 -0.01055683 0.12783625
v 0.11141763 -0.00920864 0.12691449
v 0.13113742 0.01774107 0.10307483
v 0.11141763 0.01484299 0.12582015
v 0.11141763 0.01780476 0.12821506
v 0.11141763 0.01786492 0.14273183
v 0.11141763 0.01781184 0.14278233
v 0.11141763 0.01646719 0.14403240
v 0.13076390 0.00033133 0.10307483
v 0.11141763 -0.00757382 0.12624947
v 0.13109683 0.01760660 0.10307483
v 0.12692712 0.01623364 0.10743954
v 0.11141763 0.01474391 0.12575701
v 0.13067458 0.00062149 0.10307483
v 0.11141763 -0.00455896 0.12525615
v 0.13051623 0.01490314 0.10307483
v 0.12959866 0.01652027 0.10448905
v 0.11141763 0.01202629 0.12499519
v 0.13051623 0.00362573 0.10307483
v 0.11141763 -0.00197581 0.12506254
v 0.13050811 0.01482529 0.10307483
v 0.11141763 0.01171843 0.12498678
v 0.13049188 0.00642474 0.10307483
v 0.11141763 0.00082673 0.12491943
v 0.13049188 0.01215721 0.10307483
v 0.11141763 0.00922374 0.12491943
f 1 2 3
f 1 3 4
f 1 4 5
f 1 5 6
f 1 6 7
f 1 7 8
f 1 8 2
f 2 9 10
f 2 10 3
f 2 8 9
f 3 10 22
f 3 22 21
f 3 21 44
f 3 44 77
f 3 77 116
f 3 116 158
f 3 158 197
f 3 197 245
f 3 245 301
f 3 301 356
f 3 356 412
f 3 412 446
f 3 446 445
f 3 445 465
f 3 465 480
f 3 480 489
f 3 489 494
f 3 494 499
f 3 499 503
f 3 503 505
f 3 505 501
f 3 501 496
f 3 496 491
f 3 491 483
f 3 483 468
f 3 468 466
f 3 466 447
f 3 447 413
f 3 413 358
f 3 358 304
f 3 304 247
f 3 247 201
f 3 201 163
f 3 163 162
f 3 162 126
f 3 126 124
f 3 124 123
f 3 123 122
f 3 122 121
f 3 121 82
f 3 82 47
f 3 47 24
f 3 24 13
f 3 13 12
f 3 12 11
f 3 11 5
f 3 5 4
f 5 11 6
f 6 11 12
f 6 12 13
f 6 13 14
f 6 14 15
f 6 15 16
f 6 16 7
f 7 16 17
f 7 17 18
f 7 18 19
f 7 19 8
f 8 19 20
f 8 20 9
f 9 21 22
f 9 22 10
f 9 20 23
f 9 23 21
f 13 24 14
f 14 24 25
f 14 25 26
f 14 26 15
f 15 26 27
f 15 27 16
f 16 27 17
f 17 27 28
f 17 28 29
f 17 29 18
f 18 30 19
f 18 29 31
f 18 31 32
f 18 32 30
f 19 30 33
f 19 33 34
f 19 34 35
f 19 35 36
f 19 36 37
f 19 37 38
f 19 38 39
f 19 39 40
f 19 40 20
f 20 40 41
f 20 41 42
f 20 42 43
f 20 43 23
f 21 23 44
f 23 43 45
f 23 45 46
f 23 46 44
f 24 47 48
f 24 48 25
f 25 48 49
f 25 49 26
f 26 49 27
f 27 49 50
f 27 50 51
f 27 51 52
f 27 52 28
f 28 53 54
f 28 54 55
f 28 55 56
f 28 56 57
f 28 57 58
f 28 58 59
f 28 59 60
f 28 60 61
f 28 61 62
f 28 62 32
f 28 32 31
f 28 31 29
f 28 52 63
f 28 63 64
f 28 64 53
f 30 32 33
f 32 34 33
f 32 62 65
f 32 65 34
f 34 65 66
f 34 66 67
f 34 67 35
f 35 67 68
f 35 68 39
f 35 39 36
f 36 39 37
f 37 39 38
f 39 68 69
f 39 69 70
f 39 70 71
f 39 71 40
f 40 71 41
f 41 71 42
f 42 72 43
f 42 71 73
f 42 73 74
f 42 74 75
f 42 75 76
f 42 76 72
f 43 72 45
f 44 46 77
f 45 78 79
f 45 79 46
f 45 72 80
f 45 80 81
f 45 81 78
f 46 79 77
f 47 82 83
f 47 83 84
f 47 84 48
f 48 84 83
f 48 83 85
f 48 85 86
f 48 86 87
f 48 87 49
f 49 87 88
f 49 88 89
f 49 89 50
f 50 89 51
f 51 89 52
f 52 89 88
f 52 88 63
f 53 90 54
f 53 64 91
f 53 91 92
f 53 92 93
f 53 93 94
f 53 94 90
f 54 95 96
f 54 96 55
f 54 90 97
f 54 97 95
f 55 96 98
f 55 98 99
f 55 99 100
f 55 100 56
f 56 100 57
f 57 100 58
f 58 100 59
f 59 101 102
f 59 102 103
f 59 103 104
f 59 104 105
f 59 105 60
f 59 100 101
f 60 105 106
f 60 106 107
f 60 107 61
f 61 107 108
f 61 108 62
f 62 108 109
f 62 109 68
f 62 68 65
f 63 91 64
f 63 88 91
f 65 67 66
f 65 68 67
f 68 110 69
f 68 109 108
f 68 108 110
f 69 110 111
f 69 111 112
f 69 112 75
f 69 75 74
f 69 74 70
f 70 74 73
f 70 73 71
f 72 76 81
f 72 81 80
f 75 112 111
f 75 111 113
f 75 113 114
f 75 114 76
f 76 115 81
f 76 114 115
f 77 79 81
f 77 81 117
f 77 117 118
f 77 118 119
f 77 119 116
f 78 81 79
f 81 115 120
f 81 120 159
f 81 159 117
f 82 121 83
f 83 121 122
f 83 122 123
f 83 123 124
f 83 124 85
f 85 125 86
f 85 124 126
f 85 126 125
f 86 125 127
f 86 127 128
f 86 128 129
f 86 129 87
f 87 129 130
f 87 130 131
f 87 131 132
f 87 132 92
f 87 92 91
f 87 91 88
f 90 94 133
f 90 133 97
f 92 132 93
f 93 132 133
f 93 133 94
f 95 97 132
f 95 132 131
f 95 131 134
f 95 134 96
f 96 134 135
f 96 135 136
f 96 136 98
f 97 133 132
f 98 136 99
f 99 136 100
f 100 136 137
f 100 137 101
f 101 137 138
f 101 138 139
f 101 139 140
f 101 140 102
f 102 141 103
f 102 140 141
f 103 106 104
f 103 141 106
f 104 106 105
f 106 142 107
f 106 141 142
f 107 142 108
f 108 142 143
f 108 143 110
f 110 143 144
f 110 144 111
f 111 144 145
f 111 145 146
f 111 146 147
f 111 147 113
f 113 147 148
f 113 148 149
f 113 149 114
f 114 150 151
f 114 151 152
f 114 152 115
f 114 149 153
f 114 153 154
f 114 154 155
f 114 155 156
f 114 156 150
f 115 152 120
f 116 157 158
f 116 119 157
f 117 159 118
f 118 159 119
f 119 159 160
f 119 160 157
f 120 152 161
f 120 161 159
f 125 126 162
f 125 162 163
f 125 163 127
f 127 163 164
f 127 164 165
f 127 165 166
f 127 166 128
f 128 166 129
f 129 167 168
f 129 168 169
f 129 169 130
f 129 166 167
f 130 169 131
f 131 169 170
f 131 170 134
f 134 170 135
f 135 171 172
f 135 172 136
f 135 170 171
f 136 172 138
f 136 138 137
f 138 173 174
f 138 174 139
f 138 172 171
f 138 171 173
f 139 174 140
f 140 174 175
f 140 175 176
f 140 176 177
f 140 177 178
f 140 178 179
f 140 179 141
f 141 179 180
f 141 180 142
f 142 180 143
f 143 145 144
f 143 180 179
f 143 179 181
f 143 181 182
f 143 182 183
f 143 183 184
f 143 184 145
f 145 184 185
f 145 185 146
f 146 185 186
f 146 186 147
f 147 186 148
f 148 186 185
f 148 185 149
f 149 185 153
f 150 187 188
f 150 188 151
f 150 156 187
f 151 188 161
f 151 161 152
f 153 185 189
f 153 189 154
f 154 189 190
f 154 190 155
f 155 190 191
f 155 191 156
f 156 191 192
f 156 192 193
f 156 193 194
f 156 194 195
f 156 195 196
f 156 196 187
f 157 160 158
f 158 160 198
f 158 198 197
f 159 161 199
f 159 199 160
f 160 199 200
f 160 200 198
f 161 188 199
f 163 201 164
f 164 202 165
f 164 201 203
f 164 203 202
f 165 202 166
f 166 202 204
f 166 204 205
f 166 205 168
f 166 168 167
f 168 205 169
f 169 205 170
f 170 206 207
f 170 207 171
f 170 205 208
f 170 208 206
f 171 207 209
f 171 209 210
f 171 210 211
f 171 211 173
f 173 211 212
f 173 212 213
f 173 213 174
f 174 213 214
f 174 214 215
f 174 215 175
f 175 216 176
f 175 215 217
f 175 217 218
f 175 218 219
f 175 219 216
f 176 216 177
f 177 216 220
f 177 220 221
f 177 221 222
f 177 222 178
f 178 223 224
f 178 224 225
f 178 225 182
f 178 182 181
f 178 181 179
f 178 222 226
f 178 226 223
f 182 225 227
f 182 227 183
f 183 227 184
f 184 227 223
f 184 223 228
f 184 228 185
f 185 228 229
f 185 229 230
f 185 230 189
f 187 231 200
f 187 200 188
f 187 196 231
f 188 200 199
f 189 230 190
f 190 230 232
f 190 232 191
f 191 232 192
f 192 232 233
f 192 233 193
f 193 233 234
f 193 234 235
f 193 235 236
f 193 236 194
f 194 236 237
f 194 237 195
f 195 238 291
f 195 291 239
f 195 239 240
f 195 240 196
f 195 237 238
f 196 240 241
f 196 241 242
f 196 242 243
f 196 243 231
f 197 244 245
f 197 198 231
f 197 231 246
f 197 246 244
f 198 200 231
f 201 247 202
f 201 202 203
f 202 247 208
f 202 208 204
f 204 208 205
f 206 248 249
f 206 249 250
f 206 250 207
f 206 208 248
f 207 250 251
f 207 251 252
f 207 252 209
f 208 247 253
f 208 253 254
f 208 254 248
f 209 252 255
f 209 255 256
f 209 256 257
f 209 257 258
f 209 258 210
f 210 259 212
f 210 212 211
f 210 258 260
f 210 260 214
f 210 214 259
f 212 259 213
f 213 259 214
f 214 260 217
f 214 217 215
f 216 219 261
f 216 261 220
f 217 260 218
f 218 260 262
f 218 262 219
f 219 262 263
f 219 263 264
f 219 264 265
f 219 265 266
f 219 266 261
f 220 261 266
f 220 266 265
f 220 265 267
f 220 267 268
f 220 268 221
f 221 268 269
f 221 269 222
f 222 269 226
f 223 227 224
f 223 226 270
f 223 270 228
f 224 227 225
f 226 269 270
f 228 270 229
f 229 271 272
f 229 272 273
f 229 273 274
f 229 274 275
f 229 275 276
f 229 276 230
f 229 270 277
f 229 277 278
f 229 278 279
f 229 279 271
f 230 276 232
f 231 243 246
f 232 276 233
f 233 276 235
f 233 235 234
f 235 276 280
f 235 280 281
f 235 281 282
f 235 282 236
f 236 282 283
f 236 283 237
f 237 283 284
f 237 284 285
f 237 285 286
f 237 286 287
f 237 287 238
f 238 288 289
f 238 289 290
f 238 290 291
f 238 287 288
f 239 291 240
f 240 291 290
f 240 290 292
f 240 292 241
f 241 293 294
f 241 294 242
f 241 292 295
f 241 295 296
f 241 296 297
f 241 297 293
f 242 298 299
f 242 299 243
f 242 294 298
f 243 299 246
f 244 300 301
f 244 301 245
f 244 246 299
f 244 299 298
f 244 298 302
f 244 302 303
f 244 303 300
f 247 254 253
f 247 304 305
f 247 305 306
f 247 306 307
f 247 307 308
f 247 308 254
f 248 308 249
f 248 254 308
f 249 308 309
f 249 309 310
f 249 310 250
f 250 310 309
f 250 309 311
f 250 311 251
f 251 311 312
f 251 312 252
f 252 312 255
f 255 312 256
f 256 312 313
f 256 313 314
f 256 314 257
f 257 314 258
f 258 314 315
f 258 315 316
f 258 316 260
f 260 316 317
f 260 317 318
f 260 318 319
f 260 319 262
f 262 319 320
f 262 320 321
f 262 321 263
f 263 322 264
f 263 321 323
f 263 323 324
f 263 324 325
f 263 325 322
f 264 322 265
f 265 322 268
f 265 268 267
f 268 322 326
f 268 326 269
f 269 326 277
f 269 277 270
f 271 327 328
f 271 328 329
f 271 329 272
f 271 279 327
f 272 329 328
f 272 328 330
f 272 330 331
f 272 331 273
f 273 331 283
f 273 283 282
f 273 282 281
f 273 281 280
f 273 280 274
f 274 280 275
f 275 280 276
f 277 326 332
f 277 332 333
f 277 333 278
f 278 334 335
f 278 335 323
f 278 323 336
f 278 336 337
f 278 337 338
f 278 338 339
f 278 339 340
f 278 340 341
f 278 341 342
f 278 342 279
f 278 333 334
f 279 342 343
f 279 343 327
f 283 331 344
f 283 344 345
f 283 345 284
f 284 345 346
f 284 346 347
f 284 347 285
f 285 347 346
f 285 346 407
f 285 407 399
f 285 399 398
f 285 398 397
f 285 397 396
f 285 396 395
f 285 395 441
f 285 441 440
f 285 440 439
f 285 439 463
f 285 463 478
f 285 478 477
f 285 477 476
f 285 476 475
f 285 475 474
f 285 474 473
f 285 473 488
f 285 488 487
f 285 487 486
f 285 486 470
f 285 470 452
f 285 452 451
f 285 451 415
f 285 415 362
f 285 362 361
f 285 361 414
f 285 414 450
f 285 450 469
f 285 469 485
f 285 485 484
f 285 484 493
f 285 493 498
f 285 498 502
f 285 502 506
f 285 506 504
f 285 504 500
f 285 500 495
f 285 495 490
f 285 490 482
f 285 482 481
f 285 481 479
f 285 479 464
f 285 464 442
f 285 442 408
f 285 408 348
f 285 348 287
f 285 287 286
f 287 348 349
f 287 349 288
f 288 349 289
f 289 349 350
f 289 350 297
f 289 297 296
f 289 296 290
f 290 296 295
f 290 295 292
f 293 351 352
f 293 352 294
f 293 297 351
f 294 352 353
f 294 353 298
f 297 350 354
f 297 354 303
f 297 303 351
f 298 355 302
f 298 353 352
f 298 352 351
f 298 351 355
f 300 356 301
f 300 303 357
f 300 357 356
f 302 355 303
f 303 355 351
f 303 354 357
f 304 358 359
f 304 359 360
f 304 360 361
f 304 361 362
f 304 362 363
f 304 363 364
f 304 364 365
f 304 365 366
f 304 366 367
f 304 367 368
f 304 368 369
f 304 369 305
f 305 369 370
f 305 370 309
f 305 309 306
f 306 308 307
f 306 309 308
f 309 370 371
f 309 371 372
f 309 372 373
f 309 373 311
f 311 373 312
f 312 373 374
f 312 374 313
f 313 374 375
f 313 375 317
f 313 317 316
f 313 316 376
f 313 376 314
f 314 376 315
f 315 376 316
f 317 375 318
f 318 375 319
f 319 377 378
f 319 378 379
f 319 379 320
f 319 375 380
f 319 380 381
f 319 381 377
f 320 379 382
f 320 382 321
f 321 382 383
f 321 383 323
f 322 384 332
f 322 332 326
f 322 325 334
f 322 334 384
f 323 335 324
f 323 383 385
f 323 385 336
f 324 335 325
f 325 335 334
f 327 343 386
f 327 386 328
f 328 386 330
f 330 386 387
f 330 387 331
f 331 387 344
f 332 384 334
f 332 334 333
f 336 385 388
f 336 388 389
f 336 389 390
f 336 390 391
f 336 391 392
f 336 392 337
f 337 393 394
f 337 394 339
f 337 339 338
f 337 392 393
f 339 394 395
f 339 395 396
f 339 396 397
f 339 397 398
f 339 398 399
f 339 399 400
f 339 400 401
f 339 401 402
f 339 402 340
f 340 402 401
f 340 401 341
f 341 401 403
f 341 403 404
f 341 404 405
f 341 405 387
f 341 387 342
f 342 387 386
f 342 386 343
f 344 387 406
f 344 406 401
f 344 401 400
f 344 400 345
f 345 400 346
f 346 400 407
f 348 408 349
f 349 408 350
f 350 408 409
f 350 409 357
f 350 357 354
f 356 357 410
f 356 410 411
f 356 411 412
f 357 409 410
f 358 413 359
f 359 413 414
f 359 414 361
f 359 361 360
f 362 415 367
f 362 367 365
f 362 365 363
f 363 365 364
f 365 367 366
f 367 415 368
f 368 415 416
f 368 416 417
f 368 417 371
f 368 371 370
f 368 370 369
f 371 417 418
f 371 418 419
f 371 419 372
f 372 419 420
f 372 420 421
f 372 421 374
f 372 374 373
f 374 421 422
f 374 422 380
f 374 380 375
f 377 381 378
f 378 423 424
f 378 424 425
f 378 425 426
f 378 426 427
f 378 427 428
f 378 428 379
f 378 381 423
f 379 428 429
f 379 429 382
f 380 422 381
f 381 422 430
f 381 430 423
f 382 431 432
f 382 432 385
f 382 385 383
f 382 429 433
f 382 433 431
f 385 432 388
f 387 405 401
f 387 401 406
f 388 434 433
f 388 433 390
f 388 390 389
f 388 432 434
f 390 433 426
f 390 426 425
f 390 425 435
f 390 435 391
f 391 435 392
f 392 435 436
f 392 436 437
f 392 437 393
f 393 437 394
f 394 437 438
f 394 438 439
f 394 439 440
f 394 440 441
f 394 441 395
f 399 407 400
f 401 405 403
f 403 405 404
f 408 442 409
f 409 443 411
f 409 411 410
f 409 442 443
f 411 443 444
f 411 444 445
f 411 445 446
f 411 446 412
f 413 447 448
f 413 448 414
f 414 449 450
f 414 448 449
f 415 451 416
f 416 451 417
f 417 451 418
f 418 451 452
f 418 452 453
f 418 453 419
f 419 453 420
f 420 453 454
f 420 454 421
f 421 454 455
f 421 455 456
f 421 456 457
f 421 457 422
f 422 457 458
f 422 458 430
f 423 430 424
f 424 458 459
f 424 459 425
f 424 430 458
f 425 459 460
f 425 460 435
f 426 433 429
f 426 429 427
f 427 429 428
f 431 433 434
f 431 434 432
f 435 460 461
f 435 461 436
f 436 461 462
f 436 462 437
f 437 462 438
f 438 462 439
f 439 462 463
f 442 464 445
f 442 445 443
f 443 445 444
f 445 464 465
f 447 466 449
f 447 449 448
f 449 466 467
f 449 467 468
f 449 468 450
f 450 468 469
f 452 470 453
f 453 470 471
f 453 471 454
f 454 471 458
f 454 458 455
f 455 458 456
f 456 458 457
f 458 471 472
f 458 472 459
f 459 472 473
f 459 473 474
f 459 474 475
f 459 475 476
f 459 476 460
f 460 476 477
f 460 477 461
f 461 478 463
f 461 463 462
f 461 477 478
f 464 479 465
f 465 479 481
f 465 481 482
f 465 482 480
f 466 468 467
f 468 483 484
f 468 484 485
f 468 485 469
f 470 486 471
f 471 486 487
f 471 487 488
f 471 488 472
f 472 488 473
f 480 482 489
f 482 490 489
f 483 491 492
f 483 492 493
f 483 493 484
f 489 490 495
f 489 495 494
f 491 496 497
f 491 497 492
f 492 497 496
f 492 496 498
f 492 498 493
f 494 495 500
f 494 500 499
f 496 501 498
f 498 501 502
f 499 500 504
f 499 504 503
f 501 505 506
f 501 506 502
f 503 504 506
f 503 506 505

