# https://github.com/mikedh/trimesh
v -0.05026319 -0.03560591 0.10913717
v -0.04932737 -0.03676671 0.10913717
v -0.07862845 -0.03560591 0.13713069
v -0.02888111 -0.03560591 0.10913717
v -0.04793546 -0.03824476 0.10913717
v -0.07791283 -0.03735203 0.13789780
v -0.08009113 -0.03560591 0.13866491
v -0.03123244 -0.03560591 0.11425937
v -0.00051586 -0.04247481 0.10913717
v -0.04658286 -0.03964166 0.10913717
v -0.07688265 -0.03921866 0.13884756
v -0.07781060 -0.04006958 0.14071460
v -0.07978444 -0.03637567 0.13911544
v -0.04545045 -0.04079754 0.10913717
v -0.04517521 -0.04107053 0.10913717
v -0.04374397 -0.04246251 0.10913717
v -0.08034279 -0.03703478 0.14098248
v -0.08069666 -0.03560591 0.13996373
v -0.03275804 -0.03560591 0.11717358
v -0.00051586 -0.04259039 0.11007880
v -0.00051586 -0.05546005 0.10913717
v -0.07491666 -0.04274041 0.14083637
v -0.07523908 -0.04310931 0.14244771
v -0.07417745 -0.04483822 0.14524828
v -0.07534131 -0.04343886 0.14524828
v -0.04214759 -0.04364544 0.10913717
v -0.06372626 -0.05114147 0.14086072
v -0.07183400 -0.04532271 0.14118543
v -0.08034279 -0.03703478 0.14123007
v -0.08084608 -0.03560591 0.14228536
v -0.03422073 -0.03560591 0.11990109
v -0.00051586 -0.04289781 0.11153185
v -0.03671361 -0.03560591 0.12335107
v -0.00301659 -0.05550432 0.10913717
v -0.00051586 -0.05816777 0.11723852
v -0.00330756 -0.05908264 0.11958045
v -0.00610712 -0.05912937 0.11942622
v -0.00891455 -0.05964337 0.12074938
v -0.07329669 -0.04464639 0.14225289
v -0.07114196 -0.04758529 0.14524828
v -0.07277766 -0.04618347 0.14524828
v -0.07263612 -0.04611215 0.14749280
v -0.07505035 -0.04317817 0.14709097
v -0.08019336 -0.03676917 0.14309712
v -0.03885260 -0.04607526 0.10913717
v -0.06060427 -0.05370163 0.14119761
v -0.06216134 -0.05309910 0.14226101
v -0.06430033 -0.05159153 0.14244771
v -0.06928608 -0.04831817 0.14354359
v -0.07235301 -0.04572603 0.14305653
v -0.08079889 -0.03573625 0.14227724
v -0.08083035 -0.03560591 0.14240713
v -0.00051586 -0.04360118 0.11444607
v -0.03931657 -0.03560591 0.12635458
v -0.01171412 -0.05969501 0.12077374
v -0.01731325 -0.05546005 0.10913717
v -0.00051586 -0.05842600 0.11811522
v -0.00150671 -0.05947367 0.12118774
v -0.00330756 -0.06014753 0.12284778
v -0.00330756 -0.05954254 0.12098074
v -0.00610712 -0.05959172 0.12082650
v -0.00610712 -0.06023606 0.12284778
v -0.00891455 -0.06030985 0.12284778
v -0.01171412 -0.06036395 0.12284778
v -0.06622700 -0.05091521 0.14418082
v -0.06974218 -0.04863296 0.14524828
v -0.06650224 -0.05110459 0.14604787
v -0.06975791 -0.04862804 0.14804886
v -0.06930967 -0.04831079 0.14952219
v -0.07559296 -0.04118612 0.14737509
v -0.07854980 -0.03560591 0.14700574
v -0.07862845 -0.03560591 0.14692051
v -0.08006755 -0.03560591 0.14524828
v -0.08077530 -0.03560591 0.14270342
v -0.03589575 -0.04824685 0.10913717
v -0.05873266 -0.05432876 0.14030467
v -0.05523320 -0.05663315 0.14096219
v -0.05952691 -0.05478128 0.14226101
v -0.06125699 -0.05413939 0.14306465
v -0.03574634 -0.04835506 0.10913717
v -0.03555761 -0.04848294 0.10913717
v -0.00051586 -0.04455294 0.11742523
v -0.04247788 -0.03560591 0.12968279
v -0.04401921 -0.03560591 0.13124543
v -0.01451368 -0.06035165 0.12284778
v -0.01451368 -0.05968272 0.12089144
v -0.01731325 -0.06014753 0.12284778
v -0.02011281 -0.05505426 0.10913717
v -0.00051586 -0.05902116 0.12017304
v -0.00105847 -0.05974420 0.12284778
v -0.00330756 -0.06045740 0.12564835
v -0.00610712 -0.06070334 0.12564835
v -0.01171412 -0.06073039 0.12564835
v -0.01451368 -0.06073039 0.12564835
v -0.00891455 -0.06072547 0.12564835
v -0.06754814 -0.05017988 0.14516710
v -0.06647078 -0.05108245 0.14804886
v -0.06294774 -0.05340160 0.14524828
v -0.06154795 -0.05431401 0.14524828
v -0.06154009 -0.05430909 0.14804886
v -0.06633710 -0.05099883 0.14946131
v -0.06952985 -0.04678846 0.14953436
v -0.06215347 -0.05243754 0.15007420
v -0.05931459 -0.05238835 0.15059778
v -0.06211415 -0.04958718 0.15038266
v -0.07611984 -0.03560591 0.14776068
v -0.03411850 -0.04939781 0.10913717
v -0.03392191 -0.04951340 0.10913717
v -0.03194805 -0.05063239 0.10913717
v -0.04813992 -0.05741768 0.13676134
v -0.04530890 -0.05852929 0.13684657
v -0.04811633 -0.05838665 0.13964714
v -0.05371546 -0.05711272 0.14244771
v -0.05539048 -0.05667004 0.14244771
v -0.05688463 -0.05633311 0.14524828
v -0.05931459 -0.05546005 0.14524828
v -0.05679026 -0.05616588 0.14244771
v -0.03069768 -0.05119066 0.10913717
v -0.03054827 -0.05124969 0.10913717
v -0.00051586 -0.04632365 0.12284778
v -0.04695247 -0.03560591 0.13406224
v -0.01731325 -0.06068366 0.12564835
v -0.02011281 -0.06043773 0.12564835
v -0.02299101 -0.05990160 0.12549817
v -0.01985330 -0.05972207 0.12290461
v -0.02270005 -0.05421317 0.10913717
v -0.02571194 -0.05964583 0.12641140
v -0.03068196 -0.05957451 0.12937433
v -0.03587216 -0.05947367 0.13242654
v -0.04095227 -0.05936792 0.13559240
v -0.00051586 -0.05953516 0.12284778
v -0.00116070 -0.05981060 0.12564835
v -0.00345697 -0.05986225 0.12830280
v -0.00610712 -0.06052381 0.12844892
v -0.00891455 -0.06073039 0.12844892
v -0.02011281 -0.06073039 0.13124543
v -0.02851937 -0.06071809 0.13684657
v -0.02571194 -0.06071317 0.13404600
v -0.02291238 -0.06070580 0.13124543
v -0.02011281 -0.06069842 0.12844892
v -0.05931459 -0.05538381 0.14804886
v -0.06124912 -0.05412955 0.14978602
v -0.06948268 -0.04471280 0.14948973
v -0.07045781 -0.04386187 0.14929896
v -0.06772115 -0.04678846 0.14975355
v -0.05931459 -0.05454764 0.15005796
v -0.05651502 -0.05488211 0.15005390
v -0.05651502 -0.05238835 0.15048007
v -0.05931459 -0.04958718 0.15035019
v -0.06211415 -0.04678846 0.15011884
v -0.06602253 -0.03967855 0.14946943
v -0.06648651 -0.03967855 0.14946943
v -0.06491372 -0.04678846 0.15002143
v -0.07332028 -0.03560591 0.14843444
v -0.02851937 -0.05203667 0.10913717
v -0.04274526 -0.05920807 0.13665580
v -0.04383048 -0.05938022 0.13869738
v -0.02569621 -0.05309418 0.10913717
v -0.04505725 -0.05915396 0.13963902
v -0.05091590 -0.05780625 0.14244771
v -0.05548485 -0.05667988 0.14524828
v -0.05535116 -0.05664545 0.14710315
v -0.00051586 -0.04744510 0.12564835
v -0.05008231 -0.03560591 0.13687904
v -0.05067211 -0.03560591 0.13740669
v -0.05360537 -0.03560591 0.13999214
v -0.03411850 -0.06063694 0.13964714
v -0.03131894 -0.06061972 0.13684657
v -0.02851937 -0.06060005 0.13404600
v -0.02571194 -0.06058037 0.13124543
v -0.02291238 -0.06055332 0.12844892
v -0.02851937 -0.06030739 0.13124543
v -0.02571194 -0.06018442 0.12844892
v -0.03990637 -0.05963845 0.13665580
v -0.04196672 -0.05949335 0.13745945
v -0.03411850 -0.05999751 0.13404600
v -0.00051586 -0.05954991 0.12445506
v -0.00051586 -0.05941219 0.12564835
v -0.00164040 -0.05955975 0.12727187
v -0.00448715 -0.05956221 0.13006838
v -0.00629585 -0.05983028 0.13109931
v -0.00891455 -0.06046232 0.13124543
v -0.01171412 -0.06071072 0.13124543
v -0.02011281 -0.06073039 0.13404600
v -0.02291238 -0.06073039 0.13404600
v -0.02571194 -0.06069104 0.13684657
v -0.05637347 -0.05624212 0.14804074
v -0.06896365 -0.04284616 0.14943696
v -0.07052071 -0.03560591 0.14886467
v -0.05371546 -0.05637984 0.14901890
v -0.05091590 -0.05582403 0.14924620
v -0.05371546 -0.05497802 0.14983066
v -0.05651502 -0.04958718 0.15009448
v -0.05091590 -0.05442222 0.14958308
v -0.04947679 -0.05383690 0.14945726
v -0.05371546 -0.05238835 0.15011478
v -0.04909146 -0.05075290 0.14950190
v -0.05931459 -0.04678846 0.14995244
v -0.06211415 -0.04209361 0.14952625
v -0.06211415 -0.04398729 0.14979008
v -0.06415878 -0.04007450 0.14940043
v -0.06702912 -0.04118612 0.14951814
v -0.04395630 -0.05939989 0.14056443
v -0.03971763 -0.06004670 0.13964714
v -0.03971763 -0.06019672 0.14244771
v -0.04395630 -0.05939989 0.14135184
v -0.04811633 -0.05844568 0.14244771
v -0.05371546 -0.05709796 0.14524828
v -0.05091590 -0.05773247 0.14524828
v -0.04811633 -0.05830549 0.14524828
v -0.04195099 -0.05957451 0.14441623
v -0.05371546 -0.05682990 0.14761862
v -0.00051586 -0.04811896 0.12717446
v -0.05626338 -0.03560591 0.14199313
v -0.03131894 -0.06058529 0.13964714
v -0.03691807 -0.06029263 0.14244771
v -0.03691807 -0.06038854 0.13964714
v -0.03411850 -0.06036395 0.13684657
v -0.03131894 -0.06033690 0.13404600
v -0.03691807 -0.06002702 0.13684657
v -0.00051586 -0.05918839 0.12630587
v -0.00051586 -0.05786773 0.12836774
v -0.00735749 -0.05950564 0.13273907
v -0.00891455 -0.05979093 0.13306377
v -0.01171412 -0.06003932 0.13361171
v -0.01731325 -0.05995078 0.13614845
v -0.02291238 -0.06045495 0.13684657
v -0.01731325 -0.06061972 0.13404600
v -0.06771329 -0.03560591 0.14847097
v -0.03971763 -0.05978109 0.14459887
v -0.04530890 -0.05756278 0.14750903
v -0.04836797 -0.05493621 0.14907573
v -0.04250933 -0.05755048 0.14719245
v -0.04530890 -0.05518707 0.14849938
v -0.05371546 -0.04958718 0.14981038
v -0.05371546 -0.04769596 0.14952625
v -0.04777032 -0.05238835 0.14927867
v -0.04917010 -0.05238835 0.14949378
v -0.04530890 -0.05238835 0.14866579
v -0.04813992 -0.04972736 0.14896614
v -0.05042833 -0.04888627 0.14926649
v -0.05229209 -0.04817553 0.14945320
v -0.05118327 -0.04972736 0.14957091
v -0.06069078 -0.04257564 0.14945320
v -0.05554776 -0.04567685 0.14940043
v -0.06211415 -0.04069425 0.14913661
v -0.04273739 -0.05963599 0.14235030
v -0.04381475 -0.05936792 0.14321888
v -0.00051586 -0.04918631 0.12858286
v -0.05642066 -0.03560591 0.14210678
v -0.05904722 -0.03560591 0.14373841
v -0.06194115 -0.03560591 0.14549993
v -0.06504741 -0.03560591 0.14727768
v -0.03131894 -0.05992127 0.14173336
v -0.03427578 -0.05997292 0.14254918
v -0.03691807 -0.05970239 0.14423358
v -0.00051586 -0.05642657 0.12974774
v -0.00481743 -0.05642411 0.13259295
v -0.00677556 -0.05798824 0.13297448
v -0.00891455 -0.05798824 0.13387147
v -0.01328691 -0.05914412 0.13533670
v -0.02121376 -0.05952040 0.13836456
v -0.01515853 -0.05969009 0.13573852
v -0.00051586 -0.05516001 0.13059196
v -0.02291238 -0.05978355 0.13868927
v -0.06715495 -0.03560591 0.14822338
v -0.05371546 -0.04398729 0.14802450
v -0.05650716 -0.04108774 0.14744409
v -0.05743511 -0.03956050 0.14684339
v -0.01590560 -0.04818536 0.13545035
v -0.04052762 -0.05718896 0.14687586
v -0.04250933 -0.05518707 0.14774850
v -0.04250933 -0.05238835 0.14769574
v -0.04071636 -0.05068896 0.14680280
v -0.05371546 -0.04629660 0.14913661
v -0.04530890 -0.04958718 0.14795956
v -0.00051586 -0.05058321 0.13027538
v -0.02917994 -0.05965074 0.14132342
v -0.03531382 -0.05946876 0.14392511
v -0.00421191 -0.05455748 0.13285272
v -0.01266566 -0.05727750 0.13563299
v -0.00329183 -0.05536906 0.13209778
v -0.01434068 -0.05812104 0.13607946
v -0.03249067 -0.05685695 0.14394135
v -0.02730833 -0.05920807 0.14094596
v -0.00051586 -0.05239819 0.13103437
v -0.04810846 -0.04669009 0.14744004
v -0.04530890 -0.04771071 0.14693674
v -0.05118327 -0.04407583 0.14710721
v -0.04716479 -0.04569160 0.14646998
v -0.04530104 -0.04388892 0.14464352
v -0.00469161 -0.05097916 0.13265383
v -0.04029956 -0.05518707 0.14696110
v -0.03345007 -0.05872358 0.14355170
v -0.03427578 -0.05787019 0.14421735
v -0.03889978 -0.05518707 0.14642939
v -0.04044111 -0.05238835 0.14690833
v -0.03272658 -0.05102343 0.14384800
v -0.04203750 -0.04882233 0.14627922
v -0.04390125 -0.04818044 0.14665263
v -0.01025929 -0.05387378 0.13546658
v -0.01864225 -0.05669217 0.13827527
v -0.00432201 -0.05238835 0.13280401
v -0.01025929 -0.05368442 0.13546658
v -0.03242776 -0.05518707 0.14396165
v -0.03411850 -0.05518707 0.14460699
v -0.03691807 -0.05518707 0.14567445
v -0.01869730 -0.05097916 0.13825498
v -0.01076258 -0.05181779 0.13526770
v -0.00610712 -0.05238835 0.13353053
v -0.00915834 -0.05260478 0.13479688
f 1 2 3
f 1 3 7
f 1 7 18
f 1 18 30
f 1 30 52
f 1 52 74
f 1 74 73
f 1 73 72
f 1 72 71
f 1 71 106
f 1 106 154
f 1 154 189
f 1 189 229
f 1 229 266
f 1 266 253
f 1 253 252
f 1 252 251
f 1 251 250
f 1 250 214
f 1 214 166
f 1 166 165
f 1 165 164
f 1 164 121
f 1 121 84
f 1 84 83
f 1 83 54
f 1 54 33
f 1 33 31
f 1 31 19
f 1 19 8
f 1 8 4
f 1 4 9
f 1 9 21
f 1 21 34
f 1 34 56
f 1 56 88
f 1 88 126
f 1 126 158
f 1 158 155
f 1 155 119
f 1 119 118
f 1 118 109
f 1 109 108
f 1 108 107
f 1 107 81
f 1 81 80
f 1 80 75
f 1 75 45
f 1 45 26
f 1 26 16
f 1 16 15
f 1 15 14
f 1 14 10
f 1 10 5
f 1 5 2
f 2 5 6
f 2 6 3
f 3 6 7
f 4 8 9
f 5 10 6
f 6 11 12
f 6 12 13
f 6 13 7
f 6 10 14
f 6 14 15
f 6 15 16
f 6 16 11
f 7 13 17
f 7 17 18
f 8 19 20
f 8 20 9
f 9 20 32
f 9 32 53
f 9 53 82
f 9 82 120
f 9 120 163
f 9 163 213
f 9 213 249
f 9 249 277
f 9 277 286
f 9 286 264
f 9 264 257
f 9 257 222
f 9 222 221
f 9 221 178
f 9 178 177
f 9 177 131
f 9 131 89
f 9 89 57
f 9 57 35
f 9 35 21
f 11 16 12
f 12 22 23
f 12 23 24
f 12 24 25
f 12 25 17
f 12 17 13
f 12 16 22
f 16 26 27
f 16 27 28
f 16 28 22
f 17 29 30
f 17 30 18
f 17 25 29
f 19 31 20
f 20 31 33
f 20 33 32
f 21 35 36
f 21 36 37
f 21 37 38
f 21 38 34
f 22 28 39
f 22 39 23
f 23 39 40
f 23 40 41
f 23 41 24
f 24 41 42
f 24 42 25
f 25 42 43
f 25 43 44
f 25 44 29
f 26 45 46
f 26 46 27
f 27 46 28
f 28 46 47
f 28 47 48
f 28 48 49
f 28 49 50
f 28 50 39
f 29 44 51
f 29 51 30
f 30 51 52
f 32 33 53
f 33 54 53
f 34 38 55
f 34 55 56
f 35 57 58
f 35 58 59
f 35 59 60
f 35 60 36
f 36 60 61
f 36 61 37
f 37 61 38
f 38 61 62
f 38 62 63
f 38 63 64
f 38 64 55
f 39 50 40
f 40 50 49
f 40 49 65
f 40 65 66
f 40 66 67
f 40 67 68
f 40 68 41
f 41 68 42
f 42 68 69
f 42 69 43
f 43 70 71
f 43 71 72
f 43 72 73
f 43 73 44
f 43 69 70
f 44 73 74
f 44 74 51
f 45 75 46
f 46 76 77
f 46 77 78
f 46 78 79
f 46 79 47
f 46 75 80
f 46 80 81
f 46 81 76
f 47 79 48
f 48 79 65
f 48 65 49
f 51 74 52
f 53 54 83
f 53 83 84
f 53 84 82
f 55 64 85
f 55 85 86
f 55 86 56
f 56 86 85
f 56 85 87
f 56 87 88
f 57 89 58
f 58 89 90
f 58 90 59
f 59 90 91
f 59 91 92
f 59 92 62
f 59 62 61
f 59 61 60
f 62 92 63
f 63 92 64
f 64 93 94
f 64 94 85
f 64 92 95
f 64 95 93
f 65 67 96
f 65 96 66
f 65 79 67
f 66 96 67
f 67 97 68
f 67 79 98
f 67 98 99
f 67 99 100
f 67 100 97
f 68 97 101
f 68 101 69
f 69 102 71
f 69 71 70
f 69 101 103
f 69 103 104
f 69 104 105
f 69 105 102
f 71 102 106
f 76 81 107
f 76 107 108
f 76 108 109
f 76 109 77
f 77 110 111
f 77 111 112
f 77 112 113
f 77 113 114
f 77 114 115
f 77 115 116
f 77 116 117
f 77 117 79
f 77 79 78
f 77 109 118
f 77 118 119
f 77 119 110
f 79 117 116
f 79 116 99
f 79 99 98
f 82 84 121
f 82 121 120
f 85 94 122
f 85 122 87
f 87 122 123
f 87 123 124
f 87 124 125
f 87 125 88
f 88 125 127
f 88 127 128
f 88 128 129
f 88 129 130
f 88 130 111
f 88 111 126
f 89 131 90
f 90 132 91
f 90 131 132
f 91 133 134
f 91 134 92
f 91 132 133
f 92 134 135
f 92 135 95
f 93 95 135
f 93 135 184
f 93 184 185
f 93 185 136
f 93 136 94
f 94 136 137
f 94 137 138
f 94 138 139
f 94 139 140
f 94 140 122
f 97 100 101
f 99 116 100
f 100 116 141
f 100 141 142
f 100 142 101
f 101 142 103
f 102 143 144
f 102 144 106
f 102 105 145
f 102 145 143
f 103 142 146
f 103 146 104
f 104 146 147
f 104 147 148
f 104 148 149
f 104 149 105
f 105 149 150
f 105 150 151
f 105 151 152
f 105 152 153
f 105 153 145
f 106 144 154
f 110 119 155
f 110 155 111
f 111 130 156
f 111 156 157
f 111 157 112
f 111 155 158
f 111 158 126
f 112 157 159
f 112 159 113
f 113 159 160
f 113 160 161
f 113 161 115
f 113 115 114
f 115 161 162
f 115 162 141
f 115 141 116
f 120 121 164
f 120 164 165
f 120 165 166
f 120 166 163
f 122 140 167
f 122 167 168
f 122 168 169
f 122 169 170
f 122 170 171
f 122 171 123
f 123 171 172
f 123 172 173
f 123 173 129
f 123 129 124
f 124 129 128
f 124 128 127
f 124 127 125
f 129 173 130
f 130 174 175
f 130 175 157
f 130 157 156
f 130 173 172
f 130 172 176
f 130 176 174
f 131 177 132
f 132 177 178
f 132 178 179
f 132 179 133
f 133 180 181
f 133 181 134
f 133 179 180
f 134 181 182
f 134 182 183
f 134 183 135
f 135 183 184
f 136 185 137
f 137 185 184
f 137 184 186
f 137 186 167
f 137 167 138
f 138 167 139
f 139 167 140
f 141 162 187
f 141 187 142
f 142 187 146
f 143 188 189
f 143 189 144
f 143 145 153
f 143 153 188
f 144 189 154
f 146 187 190
f 146 190 147
f 147 190 191
f 147 191 192
f 147 192 148
f 148 193 149
f 148 192 194
f 148 194 195
f 148 195 196
f 148 196 197
f 148 197 193
f 149 198 199
f 149 199 200
f 149 200 151
f 149 151 150
f 149 193 198
f 151 189 152
f 151 200 201
f 151 201 189
f 152 189 202
f 152 202 153
f 153 202 188
f 157 203 159
f 157 175 204
f 157 204 205
f 157 205 203
f 159 203 206
f 159 206 160
f 160 207 208
f 160 208 161
f 160 206 207
f 161 208 162
f 162 208 209
f 162 209 210
f 162 210 211
f 162 211 212
f 162 212 187
f 163 166 213
f 166 214 213
f 167 186 215
f 167 215 216
f 167 216 205
f 167 205 217
f 167 217 168
f 168 217 169
f 169 217 170
f 170 217 218
f 170 218 219
f 170 219 171
f 171 219 172
f 172 219 220
f 172 220 176
f 174 176 220
f 174 220 175
f 175 220 217
f 175 217 204
f 178 221 179
f 179 221 222
f 179 222 180
f 180 223 181
f 180 222 223
f 181 223 182
f 182 223 224
f 182 224 225
f 182 225 226
f 182 226 227
f 182 227 228
f 182 228 183
f 183 228 186
f 183 186 184
f 186 228 215
f 187 212 190
f 188 202 189
f 189 201 229
f 190 212 211
f 190 211 230
f 190 230 231
f 190 231 191
f 191 232 194
f 191 194 192
f 191 231 233
f 191 233 234
f 191 234 232
f 193 199 198
f 193 197 235
f 193 235 236
f 193 236 199
f 194 232 195
f 195 232 234
f 195 234 237
f 195 237 238
f 195 238 196
f 196 238 197
f 197 238 237
f 197 237 239
f 197 239 240
f 197 240 241
f 197 241 242
f 197 242 243
f 197 243 235
f 199 244 201
f 199 201 200
f 199 236 242
f 199 242 244
f 201 244 245
f 201 245 246
f 201 246 229
f 203 247 206
f 203 205 247
f 204 217 205
f 205 230 211
f 205 211 248
f 205 248 247
f 205 216 230
f 206 247 207
f 207 209 208
f 207 247 209
f 209 247 248
f 209 248 210
f 210 248 211
f 213 214 250
f 213 250 251
f 213 251 252
f 213 252 253
f 213 253 249
f 215 254 216
f 215 228 227
f 215 227 254
f 216 254 255
f 216 255 256
f 216 256 230
f 217 220 218
f 218 220 219
f 222 257 223
f 223 258 259
f 223 259 260
f 223 260 261
f 223 261 262
f 223 262 263
f 223 263 224
f 223 257 264
f 223 264 258
f 224 263 265
f 224 265 226
f 224 226 225
f 226 265 254
f 226 254 227
f 229 246 267
f 229 267 268
f 229 268 269
f 229 269 270
f 229 270 266
f 230 233 231
f 230 256 233
f 233 271 234
f 233 256 271
f 234 271 272
f 234 272 239
f 234 239 237
f 235 243 242
f 235 242 236
f 239 272 273
f 239 273 274
f 239 274 240
f 240 267 275
f 240 275 245
f 240 245 241
f 240 274 276
f 240 276 267
f 241 245 242
f 242 245 244
f 245 275 246
f 246 275 267
f 249 253 277
f 253 266 270
f 253 270 277
f 254 265 278
f 254 278 256
f 254 256 255
f 256 278 279
f 256 279 271
f 258 280 281
f 258 281 260
f 258 260 259
f 258 264 282
f 258 282 280
f 260 281 283
f 260 283 261
f 261 283 284
f 261 284 285
f 261 285 262
f 262 285 279
f 262 279 278
f 262 278 265
f 262 265 263
f 264 286 280
f 264 280 282
f 267 276 287
f 267 287 268
f 268 287 288
f 268 288 289
f 268 289 290
f 268 290 291
f 268 291 292
f 268 292 270
f 268 270 269
f 270 292 277
f 271 293 272
f 271 279 294
f 271 294 295
f 271 295 284
f 271 284 293
f 272 293 273
f 273 293 296
f 273 296 297
f 273 297 298
f 273 298 274
f 274 299 300
f 274 300 288
f 274 288 276
f 274 298 299
f 276 288 287
f 277 292 286
f 279 285 294
f 280 301 284
f 280 284 302
f 280 302 281
f 280 286 303
f 280 303 304
f 280 304 301
f 281 302 283
f 283 302 284
f 284 295 294
f 284 294 285
f 284 301 305
f 284 305 306
f 284 306 307
f 284 307 296
f 284 296 293
f 286 292 303
f 288 290 289
f 288 300 308
f 288 308 290
f 290 308 292
f 290 292 291
f 292 308 309
f 292 309 310
f 292 310 303
f 296 307 304
f 296 304 297
f 297 304 298
f 298 304 308
f 298 308 300
f 298 300 299
f 301 304 305
f 303 310 304
f 304 307 306
f 304 306 305
f 304 310 311
f 304 311 308
f 308 311 309
f 309 311 310

