# https://github.com/mikedh/trimesh
v -0.14078334 -0.46774948 -0.37831250
v -0.11459662 -0.37966102 -0.48069495
v -0.11068662 -0.37575102 -0.48065493
v -0.20039491 -0.15495190 -0.22665364
v -0.10693724 -0.37179509 -0.48051807
v -0.27946475 0.24247988 -0.11369888
v -0.10717062 -0.45023644 -0.83214188
v -0.07943662 -0.43434101 0.16787505
v -0.12255799 -0.47580543 -0.53915334
v -0.07162662 -0.43434101 0.16787505
v -0.06771662 -0.43435103 0.16787505
v -0.06771662 -0.43434101 0.16787505
v -0.01801163 -0.44050404 -0.27674657
v -0.16187631 -0.19455297 -0.46799648
v -0.14055625 -0.32516348 -0.32577911
v -0.15842181 -0.30870518 -0.31456462
v -0.08239169 -0.25498831 0.27022591
v -0.13125491 -0.39580598 -0.86843079
v -0.11082919 -0.37564233 -0.48054671
v -0.09508662 -0.49294102 -0.57429492
v -0.09506662 -0.49293104 -0.57429492
v -0.10280662 -0.44606102 -0.83211493
v -0.10287662 -0.44613102 -0.83211493
v -0.09896662 -0.44606102 -0.83056492
v -0.07166056 -0.27462938 -0.39853564
v -0.10287662 -0.49294102 -0.56672496
v -0.09352478 -0.45852354 -0.82321107
v -0.10677662 -0.44993103 -0.83211493
v -0.11849662 -0.20777103 -0.50789493
v -0.11459662 -0.20778105 -0.50946492
v -0.11068662 -0.12805104 -0.69929492
v -0.13333695 -0.50741678 -0.57070756
v -0.13412662 -0.31716102 -0.32039496
v -0.13802662 -0.31716102 -0.32036492
v -0.13412662 -0.31716102 -0.32038495
v -0.13802662 -0.31720102 -0.32039496
v -0.14193662 -0.31716102 -0.32034495
v -0.13198973 -0.17216150 -0.51862735
v -0.13345662 -0.31716102 -0.32039496
v -0.12632120 -0.31120074 -0.31653008
v -0.13146560 -0.28841314 -0.30124673
v -0.11510780 -0.12859607 -0.70491201
v -0.13223042 -0.32710403 -0.44974837
v -0.12238910 -0.20393321 -0.50791872
v -0.12240662 -0.20778105 -0.50631493
v -0.12249662 -0.20388104 -0.50789493
v -0.12631662 -0.20017102 -0.50789493
v -0.12373262 -0.21261925 -0.50483811
v -0.13344780 -0.13008372 -0.72750401
v -0.12240662 -0.20397104 -0.50789493
v 0.00207783 -0.26854900 -0.34998512
v -0.14945449 -0.11364488 -0.85611165
v -0.11459662 -0.12966102 -0.70697492
v -0.11469808 -0.12968338 -0.70714325
v -0.11071662 -0.12966102 -0.70320493
v -0.11068662 -0.12966102 -0.70317495
v -0.11068662 -0.12967104 -0.70320493
v -0.08638947 -0.14370361 -0.71342593
v -0.08724662 -0.27810103 -0.40042493
v -0.10673409 -0.12966713 -0.69934887
v -0.10677662 -0.13124102 -0.70320493
v -0.13111435 -0.10991583 -0.66673595
v -0.09906850 -0.49294704 -0.57044423
v -0.09896662 -0.49294102 -0.57052493
v -0.08111260 -0.42519543 0.17995158
v -0.10855367 0.00997482 -0.52990836
v -0.05214662 0.36642897 -0.20711495
v -0.05217662 0.37032896 -0.20320494
v -0.05209662 0.36642897 -0.20706496
v -0.10287662 -0.44606102 -0.83213496
v -0.09896662 -0.44216102 -0.83218491
v -0.10672999 -0.45001340 -0.83205485
v -0.09896662 -0.49288103 -0.57039493
v -0.16425712 -0.58862573 -0.66852713
v -0.09115662 -0.49135104 -0.57429492
v -0.10677662 -0.37185103 -0.48061493
v -0.10693662 -0.37185103 -0.48054495
v -0.03069898 -0.47561601 0.13542813
v -0.09513184 -0.49311781 -0.57467037
v -0.10291662 -0.36794102 -0.48054495
v -0.06762458 -0.28198263 -0.39463463
v -0.06773184 -0.28205049 -0.39463139
v -0.08237210 -0.36403176 0.25813413
v -0.13906917 -0.40687084 -0.51904058
v -0.10305992 -0.36785987 -0.48046029
v -0.10132215 -0.36669290 -0.48052049
v -0.04037662 -0.43434101 0.16787505
v -0.03646662 -0.43435103 0.16787505
v -0.03646662 -0.43434101 0.16787505
v -0.11393021 -0.33352554 -0.33032057
v -0.07139823 -0.27430245 -0.39861825
v -0.01536667 -0.42578140 0.17955892
v -0.08648215 -0.24015877 -0.50712097
v -0.11848113 -0.20779246 -0.50788909
v -0.10669662 -0.12966102 -0.69929492
v -0.10287662 -0.12966102 -0.69557494
v -0.01806045 0.24260046 0.48474666
v -0.10677662 -0.12963104 -0.69929492
v -0.10287662 -0.12958103 -0.69539493
v -0.10049935 -0.12987380 -0.69378823
v -0.08789960 -0.07767185 -0.23974490
v -0.05209662 -0.43434101 0.16787505
v -0.04818662 -0.43434101 0.16787505
v -0.12308464 0.08471799 0.42461872
v -0.02474662 0.24142896 0.49218503
v -0.03254662 0.23360898 0.49209505
v -0.02870662 0.23360898 0.48819506
v -0.03256662 0.22978896 0.48819506
v -0.05210017 0.36250791 -0.21100782
v -0.05209138 0.36639568 -0.20710316
v -0.08474492 -0.43703708 0.16403900
v -0.08672832 -0.43655097 -0.82957643
v -0.07552662 -0.43434101 0.16787505
v 0.01821338 -0.44216102 -0.27351493
v 0.01430338 -0.44216102 -0.27351493
v -0.04427662 -0.43434101 0.16787505
v -0.04037662 -0.43435103 0.16787505
v -0.05990662 -0.43434101 0.16787505
v -0.05599662 -0.43435103 0.16787505
v -0.05599662 -0.43434101 0.16787505
v -0.00521662 -0.45393103 -0.57039493
v -0.06381662 -0.43435103 0.16787505
v -0.05990662 -0.43435103 0.16787505
v -0.03256662 -0.43434101 0.16787505
v -0.02865662 -0.43434101 0.16787505
v -0.01045950 -0.37055206 0.28476736
v -0.02084662 -0.44216102 -0.27352494
v -0.02474662 -0.44216102 -0.27352494
v -0.02474662 -0.44216102 -0.27351493
v -0.07162662 -0.43435103 0.16787505
v -0.05209662 -0.43435103 0.16787505
v -0.13324334 -0.32981086 -0.38983911
v -0.02474662 -0.43434101 0.16787505
v -0.02084662 -0.43435103 0.16787505
v -0.02084662 -0.43434101 0.16787505
v -0.05937079 -0.43551877 -0.28512886
v -0.06381662 -0.43434101 0.16787505
v -0.04427662 -0.43435103 0.16787505
v -0.05254919 -0.48179960 -0.60551441
v -0.06750386 -0.28192449 -0.39462048
v -0.01517081 -0.40833709 -0.53782535
v -0.01726742 -0.39402735 0.22128902
v -0.04706158 -0.46421021 -0.59430140
v -0.03671287 -0.17574105 -0.11335995
v -0.02214108 -0.21955948 -0.36726141
v -0.03646662 -0.30536103 0.26553503
v -0.00521662 -0.11403104 -0.30476493
v -0.00131662 -0.11403104 -0.30476493
v -0.03627056 -0.23290063 0.28029218
v -0.00912662 -0.11403104 -0.30478495
v -0.02084662 -0.11403104 -0.30476493
v -0.06983417 -0.32505187 0.26331139
v -0.00912662 -0.21955104 -0.36726493
v -0.00521662 -0.21955104 -0.36726493
v -0.02566219 -0.16234641 0.91605502
v -0.05214475 -0.13747974 0.89441693
v -0.03283836 0.22154586 0.47252434
v -0.03646662 0.22579896 0.48807505
v -0.04427662 -0.13356104 0.89457506
v -0.04037662 -0.13356104 0.89546508
v -0.04333697 -0.13238077 0.89430571
v -0.04488662 -0.13356104 0.89444506
v -0.07269277 -0.08999836 0.27024496
v -0.01596593 -0.08619859 0.01072976
v -0.11350265 0.23715053 0.35092178
v -0.03264662 0.22970895 0.48819506
v -0.03256662 0.22970895 0.48810506
v -0.05209662 0.37032896 -0.20314495
v -0.05209662 0.37414896 -0.19929495
v -0.04260381 0.22127667 0.48983055
v -0.03256555 0.23751070 0.49611279
v -0.03639662 0.23360898 0.49600506
v -0.04427662 0.37032896 -0.20037495
v -0.05209662 0.37026897 -0.20320494
v -0.05220662 0.37423897 -0.19929495
v -0.05209082 0.37420645 -0.19924137
v -0.05209662 0.37803897 -0.19539495
v -0.03646662 0.22972897 0.49209505
v 0.00250537 0.62488019 -0.18532717
v -0.02434376 -0.10723289 -0.28575197
v -0.03256662 -0.44216102 -0.27351493
v -0.03256662 -0.43435103 0.16787505
v -0.00912662 -0.45388103 -0.57025492
v -0.02865662 -0.44216102 -0.27352494
v -0.02865662 -0.44216102 -0.27351493
v -0.04818662 -0.43435103 0.16787505
v -0.00131662 -0.44216102 -0.27352494
v -0.00131662 -0.44216102 -0.27351493
v -0.00521662 -0.44216102 -0.27351493
v -0.00521662 -0.44216102 -0.27352494
v -0.00912662 -0.44216102 -0.27351493
v -0.00912662 -0.44216102 -0.27352494
v -0.02829768 -0.31010288 0.26540920
v -0.01693662 -0.16479103 -0.12508495
v -0.03256662 -0.30536103 0.26553503
v -0.03256662 -0.30544102 0.26552507
v -0.02865662 -0.30935103 0.26652506
v 0.00258338 -0.21950103 -0.36728495
v 0.00649338 -0.21950103 -0.36728495
v 0.00649338 -0.21955104 -0.36726493
v -0.02084662 -0.21950103 -0.36728495
v -0.04818662 -0.13747104 0.89531505
v -0.05202431 -0.13746864 0.89444202
v -0.02474662 -0.16481104 -0.12501495
v -0.00131662 -0.45393103 -0.57039493
v -0.03646662 -0.13356104 0.89635509
v -0.07042499 -0.14861627 -0.14693008
v 0.02211338 -0.44216102 -0.27351493
v 0.02602338 -0.44216102 -0.27352494
v 0.02602338 -0.44216102 -0.27351493
v -0.00131662 -0.11403104 -0.30478495
v -0.03585525 -0.08851434 0.82892203
v -0.01302662 -0.11403104 -0.30478495
v -0.01302662 -0.11403104 -0.30476493
v -0.00546412 -0.44997102 -0.56589496
v -0.01873947 -0.15873279 -0.13849741
v -0.05779102 -0.12819394 -0.36604500
v -0.00698643 -0.05988298 -0.21589006
v -0.01694683 -0.05150938 0.20698215
v -0.01693662 -0.05149104 0.20694505
v -0.01302662 -0.05149104 0.20694505
v 0.03533851 0.05539537 0.36717233
v -0.01889162 0.05387896 0.36319506
v 0.00945112 -0.05561074 0.21576251
v -0.01302662 -0.05153104 0.20702505
v -0.00912662 -0.05153104 0.20702505
v 0.11980411 -0.03281865 -0.66926265
v 0.02211338 -0.05934104 -0.21492495
v 0.02602338 -0.05935104 -0.21493495
v 0.02602338 -0.05934104 -0.21492495
v 0.00258338 0.05392896 0.36333507
v 0.00649338 0.05392896 0.36333507
v 0.01443966 -0.02078099 -0.11334286
v -0.04244827 0.22084907 0.49911928
v -0.00912662 -0.05149104 0.20694505
v -0.00521662 -0.05153104 0.20702505
v -0.00521662 -0.05149104 0.20694505
v -0.00521662 -0.45388103 -0.57025492
v -0.03256662 0.23359898 0.49209505
v -0.03256662 0.23360898 0.49211505
v -0.03244662 0.23751897 0.49600506
v -0.02865662 0.23360898 0.48814505
v -0.01220554 0.40620375 -0.27341723
v 0.01821338 0.07348896 0.39834505
v 0.01821338 0.07345896 0.39829507
v 0.02211338 0.07345896 0.39829507
v 0.08002924 -0.44710025 -0.25986624
v -0.01693662 -0.44216102 -0.27351493
v -0.01302662 -0.44216102 -0.27351493
v 0.01213796 -0.46485358 -0.59674489
v -0.01692555 -0.43435490 0.16787516
v 0.00649338 -0.45393103 -0.57039493
v -0.01302662 -0.44216102 -0.27352494
v -0.01693662 -0.44216102 -0.27352494
v 0.00649338 -0.45388103 -0.57025492
v -0.02084662 -0.44216102 -0.27351493
v -0.02865662 -0.43435103 0.16787505
v -0.01693662 -0.43154103 0.17178504
v -0.02865662 -0.30544102 0.26552507
v -0.01693662 -0.43435103 0.16787505
v -0.01693662 -0.43434101 0.16787505
v 0.00649338 -0.44216102 -0.27352494
v 0.00258338 -0.44216102 -0.27352494
v 0.02689278 -0.43345353 -0.28620195
v 0.00258338 -0.44216102 -0.27351493
v 0.08555372 -0.44513455 0.15346600
v -0.01302662 -0.16479103 -0.12508495
v -0.01302662 -0.16481104 -0.12501495
v -0.02714808 -0.31347281 0.28177455
v 0.01430338 -0.44216102 -0.27352494
v -0.00131662 -0.45388103 -0.57025492
v -0.02474662 -0.43435103 0.16787505
v 0.00649338 -0.43044102 -0.54698491
v -0.02858078 -0.30564007 0.26550034
v 0.01039338 -0.44216102 -0.27352494
v 0.00649338 -0.44216102 -0.27351493
v 0.01688590 -0.43544370 -0.55073720
v -0.02865619 -0.30536157 0.26553485
v 0.06751388 -0.39248887 0.21937671
v -0.00482404 -0.17560229 -0.11189557
v -0.08727299 -0.24001272 0.02922414
v -0.01693662 -0.21950103 -0.36728495
v -0.00521662 -0.21950103 -0.36728495
v -0.00912662 -0.21950103 -0.36728495
v -0.01693662 -0.21955104 -0.36726493
v -0.00131662 -0.21950103 -0.36728495
v -0.00131662 -0.21955104 -0.36726493
v -0.01302662 -0.21950103 -0.36728495
v -0.01302662 -0.21955104 -0.36726493
v -0.00912662 -0.16479103 -0.12508495
v -0.01941139 -0.18447731 -0.73228025
v -0.00502918 -0.12196373 -0.33400166
v 0.00258338 -0.11403104 -0.30476493
v 0.00649338 -0.11403104 -0.30476493
v -0.00521662 -0.16479103 -0.12508495
v -0.00521662 -0.16481104 -0.12501495
v -0.02865662 -0.16479103 -0.12508495
v 0.01260840 -0.20225497 -0.37337762
v -0.00912662 -0.16481104 -0.12501495
v -0.02084662 -0.16479103 -0.12508495
v 0.00126921 -0.32007298 0.68125683
v -0.02474662 -0.16479103 -0.12508495
v -0.02084662 -0.16481104 -0.12501495
v -0.01693662 -0.16481104 -0.12501495
v 0.01039338 -0.05935104 -0.21493495
v -0.00131662 -0.16479103 -0.12508495
v -0.00131662 -0.16481104 -0.12501495
v 0.02993338 -0.11403104 -0.30478495
v 0.02602338 -0.11403104 -0.30478495
v 0.02602338 -0.11403104 -0.30476493
v 0.00649338 -0.11403104 -0.30478495
v 0.00258338 -0.11403104 -0.30478495
v -0.00521662 -0.11403104 -0.30478495
v -0.00912662 -0.11403104 -0.30476493
v -0.06604674 -0.08714562 0.03730830
v -0.01693662 -0.11403104 -0.30476493
v 0.00258338 -0.45388103 -0.57025492
v -0.01693662 -0.11403104 -0.30478495
v -0.00912662 -0.08278104 0.01165505
v 0.05326754 -0.14541790 0.07659362
v 0.00649338 0.05387896 0.36319506
v 0.01039338 0.05387896 0.36319506
v 0.00258338 -0.21955104 -0.36726493
v 0.01821338 -0.11403104 -0.30478495
v 0.01430338 -0.11403104 -0.30476493
v 0.01821338 -0.11403104 -0.30476493
v 0.03973174 -0.10919302 -0.29315042
v -0.04383572 -0.05943926 0.03185921
v 0.01430338 0.05387896 0.36319506
v 0.01039338 0.05392896 0.36333507
v -0.00521662 -0.08285104 0.01162505
v -0.00131662 -0.08285104 0.01162505
v -0.00131662 -0.08278104 0.01165505
v -0.00521662 -0.08278104 0.01165505
v -0.00131662 -0.05149104 0.20694505
v -0.00131662 -0.05153104 0.20702505
v -0.01693662 0.05392896 0.36333507
v -0.01302662 0.05392896 0.36333507
v -0.00888287 0.05543896 0.36709505
v 0.10017127 -0.14062734 -0.37197885
v 0.00649338 -0.16481104 -0.12501495
v -0.00131662 -0.05934104 -0.21492495
v 0.01821338 -0.05935104 -0.21493495
v 0.02211338 -0.05935104 -0.21493495
v 0.01821338 -0.05934104 -0.21492495
v 0.01039338 -0.08285104 0.01162505
v 0.01430338 -0.08285104 0.01162505
v -0.00131662 0.05392896 0.36333507
v -0.02475662 0.23751897 0.48819506
v -0.02860662 0.23751897 0.49209505
v 0.09241338 -0.38356102 -0.19929495
v 0.09031489 -0.37366155 -0.21241160
v -0.00912662 0.05392896 0.36333507
v -0.00521662 0.05392896 0.36333507
v -0.09541230 -0.05404274 -0.32128495
v 0.02211338 0.07348896 0.39834505
v 0.00925980 -0.56196254 0.86501962
v -0.00131662 0.05387896 0.36319506
v -0.00912662 0.05387896 0.36319506
v -0.00521662 0.05387896 0.36319506
v -0.01302662 0.05387896 0.36319506
v 0.04555337 0.07348896 0.39834505
v 0.04164338 0.07348896 0.39834505
v 0.01076961 0.07334485 0.39810395
v 0.02959501 0.07347519 0.39832219
v -0.02865662 0.23751897 0.49214506
v -0.02865662 0.23746896 0.49209505
v 0.01430338 0.07348896 0.39834505
v -0.02865662 0.24142896 0.49616504
v -0.02865662 0.23365895 0.48819506
v -0.01510794 0.35816458 -0.17773917
v 0.09188823 -0.40176532 -0.20204994
v 0.02211338 -0.44216102 -0.27352494
v 0.01430338 -0.43044102 -0.54698491
v 0.01430338 -0.43038103 -0.54695493
v 0.01821338 -0.43044102 -0.54698491
v -0.05459056 -0.30771056 0.86951345
v 0.01821338 -0.44216102 -0.27352494
v -0.02178724 -0.34819180 -0.87102979
v 0.01039338 -0.44216102 -0.27351493
v 0.07178338 -0.35231102 -0.27351493
v 0.07341078 -0.35042629 -0.26893696
v 0.01039338 -0.43044102 -0.54698491
v 0.03020329 -0.44363391 0.16645832
v 0.05336338 -0.43434101 0.16787505
v 0.00258338 -0.45393103 -0.57039493
v 0.01039338 -0.43038103 -0.54695493
v 0.00649338 -0.43038103 -0.54695493
v 0.06899348 -0.35622150 -0.28132656
v 0.02993338 -0.44216102 -0.27352494
v 0.03383338 -0.44216102 -0.27352494
v -0.00249752 -0.45748574 -0.25714073
v 0.00258338 -0.16479103 -0.12508495
v 0.00258338 -0.16481104 -0.12501495
v 0.08584930 -0.45661384 0.13513789
v 0.01821338 -0.16479103 -0.12508495
v 0.06899338 -0.36013103 -0.28142494
v 0.06757338 -0.35231102 -0.28523493
v 0.09625013 -0.31730649 -0.47272360
v 0.09636338 -0.31716102 -0.47273493
v 0.08948037 -0.32872504 -0.47094208
v 0.02211338 -0.16479103 -0.12508495
v 0.02211338 -0.16481104 -0.12501495
v 0.00649338 -0.16479103 -0.12508495
v 0.01430338 -0.16479103 -0.12508495
v 0.01137338 -0.06331104 -0.22262496
v 0.01039338 -0.05934104 -0.21492495
v 0.01430338 -0.05935104 -0.21493495
v 0.01430338 -0.05934104 -0.21492495
v -0.01346873 -0.34347117 -0.33284816
v 0.02602338 -0.16479103 -0.12508495
v 0.01039338 -0.16479103 -0.12508495
v 0.01039338 -0.16481104 -0.12501495
v 0.03774338 -0.16479103 -0.12508495
v 0.04164338 -0.16479103 -0.12508495
v 0.04164338 -0.16481104 -0.12501495
v 0.11196338 -0.39528102 -0.85559493
v 0.10805338 -0.39160103 -0.85554492
v 0.11177869 -0.39536190 -0.85549086
v 0.01430338 -0.16481104 -0.12501495
v 0.01821338 -0.16481104 -0.12501495
v 0.10414338 -0.14534102 -0.61336493
v -0.01687729 -0.22627009 0.59664291
v 0.11586338 -0.39919102 -0.85555494
v 0.11982349 -0.40311062 -0.85552770
v 0.11977338 -0.40300104 -0.85554492
v 0.01430338 -0.21955104 -0.36726493
v 0.01039338 -0.21950103 -0.36728495
v 0.02211338 -0.08278104 0.01165505
v 0.02602338 -0.08285104 0.01162505
v 0.02993338 -0.16479103 -0.12508495
v 0.02993338 -0.16481104 -0.12501495
v 0.03383338 -0.16481104 -0.12501495
v 0.03383338 -0.16479103 -0.12508495
v 0.03774338 -0.16481104 -0.12501495
v 0.02602338 -0.16481104 -0.12501495
v 0.02211338 -0.11403104 -0.30478495
v 0.02211338 -0.11403104 -0.30476493
v 0.01821338 -0.08278104 0.01165505
v 0.02211338 -0.08285104 0.01162505
v 0.01039338 -0.11403104 -0.30478495
v 0.01039338 -0.11403104 -0.30476493
v 0.01430338 -0.11403104 -0.30478495
v 0.01039338 -0.08278104 0.01165505
v 0.02951012 -0.12185138 0.10150501
v -0.00415038 0.23303443 0.50525016
v 0.00649338 -0.08285104 0.01162505
v 0.00258338 -0.08285104 0.01162505
v 0.00258338 -0.08278104 0.01165505
v 0.01821338 -0.08285104 0.01162505
v 0.00258338 -0.05153104 0.20702505
v 0.02993338 -0.12185104 0.10150505
v 0.02993338 -0.12188103 0.10147505
v 0.00649338 -0.05149104 0.20694505
v 0.10286080 -0.08752409 0.01670095
v 0.00258338 -0.05149104 0.20694505
v 0.00649338 -0.05153104 0.20702505
v 0.00649338 -0.08278104 0.01165505
v 0.01430338 -0.08278104 0.01165505
v -0.01449537 -0.04372104 0.19026504
v 0.01039338 -0.05149104 0.20694505
v 0.03383338 -0.05149104 0.20694505
v 0.02993338 -0.11403104 -0.30476493
v 0.00649338 -0.05934104 -0.21492495
v 0.02993338 -0.05935104 -0.21493495
v 0.01770132 0.05788389 0.37133160
v 0.00258338 -0.05935104 -0.21493495
v 0.00258338 -0.05934104 -0.21492495
v 0.01430338 -0.05149104 0.20694505
v 0.00649338 -0.05935104 -0.21493495
v 0.02993338 -0.05934104 -0.21492495
v 0.00258338 0.05387896 0.36319506
v 0.01039338 -0.05153104 0.20702505
v 0.01625838 0.05392896 0.36333507
v 0.01532172 -0.04330991 0.19073302
v 0.01958894 0.03397464 0.32604104
v 0.01034992 0.07345954 0.39829591
v 0.00410059 -0.05336827 -0.20549691
v 0.04555338 -0.05934104 -0.21492495
v 0.02313243 0.07334082 0.39809218
v 0.03774338 -0.05934104 -0.21492495
v 0.04164338 -0.05934104 -0.21492495
v 0.06491925 0.60863459 -0.15623495
v 0.12748924 -0.42382067 -0.85001916
v 0.11585338 -0.39919102 -0.85554492
v 0.11586338 -0.39138103 -0.85879493
v 0.11196338 -0.39540103 -0.85554492
v 0.04880181 -0.41633290 -0.54015875
v 0.10805338 -0.52815104 -0.69539493
v 0.06901414 -0.36613056 -0.28147513
v 0.05727338 -0.43435103 0.16787505
v 0.06118338 -0.43435103 0.16787505
v 0.05727338 -0.43434101 0.16787505
v 0.06899338 -0.35542104 -0.28133494
v 0.06899338 -0.35231102 -0.28126493
v 0.06118338 -0.43434101 0.16787505
v 0.09243338 -0.32099104 -0.47273493
v 0.08071338 -0.43733102 0.16397505
v 0.08071338 -0.43434101 0.16787505
v 0.06896338 -0.34841102 -0.28133494
v 0.06899338 -0.34841102 -0.28126493
v 0.10778735 -0.52808571 -0.69531167
v 0.10871490 -0.38957101 -0.85667515
v 0.09970338 -0.39829907 -0.15335856
v 0.06902338 -0.36013103 -0.28133494
v 0.10024338 -0.32987103 -0.14851496
v 0.10226711 -0.32444313 -0.13553579
v 0.06897338 -0.35231102 -0.28133494
v 0.13578174 -0.48129213 -0.83119386
v 0.01441881 -0.21952178 -0.36727649
v 0.02258328 -0.20160791 0.24121758
v 0.13562141 -0.54465210 -0.66853607
v 0.05636464 -0.30440620 -0.66328812
v 0.01039338 -0.21955104 -0.36726493
v 0.03435393 -0.17639901 -0.11408276
v 0.03499541 -0.16028135 -0.13575214
v 0.08900321 -0.29500663 -0.48500445
v 0.04946338 -0.16481104 -0.12501495
v 0.04946338 -0.16479103 -0.12508495
v 0.05336338 -0.16481104 -0.12501495
v 0.04555338 -0.16479103 -0.12508495
v 0.06349655 -0.16488151 -0.12716682
v 0.07369176 -0.16435666 -0.12942176
v 0.09684399 -0.28849542 -0.16934499
v 0.04555338 -0.16481104 -0.12501495
v 0.02211338 -0.05149104 0.20694505
v 0.02602338 -0.05149104 0.20694505
v 0.04555338 -0.12185104 0.10150505
v 0.04946338 -0.12188103 0.10147505
v 0.03383338 -0.12188103 0.10147505
v 0.03383338 -0.12185104 0.10150505
v 0.04946338 -0.12185104 0.10150505
v 0.04164338 -0.12188103 0.10147505
v 0.04555338 -0.12188103 0.10147505
v 0.05515045 -0.08899952 0.10301177
v 0.04555338 -0.05935104 -0.21493495
v 0.04164338 -0.05935104 -0.21493495
v 0.03383338 -0.11403104 -0.30478495
v 0.03894113 -0.06254747 0.02555775
v 0.04946338 -0.05935104 -0.21493495
v 0.02590096 -0.11185619 0.01028708
v 0.03774338 -0.12185104 0.10150505
v 0.04164338 -0.12185104 0.10150505
v 0.03774338 -0.11403104 -0.30478495
v 0.03383338 -0.11403104 -0.30476493
v 0.03383338 -0.05934104 -0.21492495
v 0.04946338 -0.05934104 -0.21492495
v 0.05336338 -0.05934104 -0.21492495
v 0.06762607 -0.06989136 -0.21777841
v 0.01821338 -0.05153104 0.20702505
v 0.03808559 -0.03904821 -0.15643735
v 0.05336338 -0.05935104 -0.21493495
v 0.05727338 -0.05935104 -0.21493495
v 0.03774338 -0.12188103 0.10147505
v 0.03383338 -0.05935104 -0.21493495
v 0.06118338 -0.05934104 -0.21492495
v 0.06118338 -0.05935104 -0.21493495
v 0.06508338 -0.05935104 -0.21493495
v 0.06508338 -0.06135103 -0.21883495
v 0.03774338 -0.05935104 -0.21493495
v 0.05727338 -0.05934104 -0.21492495
v 0.09884514 -0.13356216 -0.69810599
v 0.03774338 0.07345896 0.39829507
v 0.03774338 0.07348896 0.39834505
v 0.03383338 0.07348896 0.39834505
v 0.03383338 0.07345896 0.39829507
v 0.10570928 0.56226164 -0.11354068
v 0.06485338 0.60860896 -0.15633495
v 0.06503338 0.61251897 -0.15242495
v 0.06508338 0.61642897 -0.14866495
v 0.07229644 -0.50389546 -0.71258342
v 0.13472503 -0.58156705 -0.84052652
v 0.09243338 -0.38881102 -0.19929495
v 0.09243338 -0.38747102 -0.19927496
v 0.09321416 -0.38076621 -0.19413386
v 0.09242338 -0.38747102 -0.19929495
v 0.11586338 -0.52968103 -0.69929492
v 0.11196338 -0.52811104 -0.69929492
v 0.00676160 -0.39849553 0.51126653
v 0.06905338 -0.36403102 -0.28133494
v 0.06899338 -0.35622102 -0.28134495
v 0.08071338 -0.43435103 0.16787505
v 0.08461338 -0.43435103 0.16769505
v 0.08461338 -0.43420103 0.16787505
v 0.06973368 -0.33173349 -0.27920294
v 0.10024338 -0.32497102 -0.14842495
v 0.10024338 -0.32106102 -0.14834495
v 0.07680338 -0.43434101 0.16787505
v 0.06899338 -0.43434101 0.16787505
v 0.07289338 -0.43434101 0.16787505
v 0.08786338 -0.43044102 0.16787505
v 0.09633338 -0.31716102 -0.47274494
v 0.07680338 -0.43435103 0.16787505
v 0.13650231 -0.38930601 -0.86836398
v 0.06508338 -0.43435103 0.16787505
v 0.06814798 -0.23155251 -0.16312067
v 0.06508338 -0.43434101 0.16787505
v 0.06899338 -0.43435103 0.16787505
v 0.09243338 -0.37966102 -0.19912495
v 0.07289338 -0.43435103 0.16787505
v 0.11977338 -0.28200102 -0.86719495
v 0.12368338 -0.27810103 -0.86715496
v 0.13629921 -0.32393056 -0.89594811
v 0.10030653 -0.13591275 -0.70520228
v 0.10408338 -0.13356104 -0.70320493
v 0.00902406 -0.49315280 -0.66757435
v 0.10576400 -0.52818680 -0.69309253
v 0.10024338 -0.13350102 -0.69929492
v 0.12368338 -0.40310103 -0.85708493
v 0.11595364 -0.39931059 -0.85545266
v 0.10022338 -0.32497102 -0.14851496
v 0.09907449 -0.33639458 -0.15605937
v 0.10121665 -0.31263113 -0.47265309
v 0.10024338 -0.31325102 -0.47279495
v 0.11994338 -0.28200102 -0.86726493
v 0.02211338 -0.05153104 0.20702505
v 0.02602338 -0.05153104 0.20702505
v 0.13343841 -0.20343165 -0.50448537
v 0.11408338 -0.30935103 -0.46883494
v 0.12368338 -0.23122104 -0.84773493
v 0.12758338 -0.23122104 -0.84931493
v 0.13808182 -0.24288601 -0.86089891
v 0.10125922 -0.42803743 0.13802373
v 0.10424412 -0.14537497 -0.61318785
v 0.09633338 -0.14687105 -0.61726493
v 0.09571183 -0.07512344 -0.25803837
v 0.03774338 -0.05153104 0.20702505
v 0.09073741 -0.26609343 -0.84879678
v 0.12758338 -0.22741105 -0.84773493
v 0.12788834 -0.22688548 -0.84763336
v 0.10805338 -0.08278104 -0.77763492
v 0.10809491 -0.08273729 -0.77749825
v 0.14971982 -0.35327634 -0.22922833
v 0.03383338 -0.05153104 0.20702505
v 0.01821338 -0.05149104 0.20694505
v 0.03775182 -0.05149133 0.20694467
v 0.02993338 -0.05153104 0.20702505
v 0.02993338 -0.05149104 0.20694505
v 0.11977338 -0.28591102 -0.86881495
v 0.09488532 -0.08678907 -0.79407549
v 0.10414338 -0.08510103 -0.78523493
v 0.10462437 -0.13363703 -0.70384663
v 0.10414338 -0.14373104 -0.61726493
v 0.01430338 -0.05153104 0.20702505
v 0.11977338 -0.23501104 -0.84773493
v 0.12369086 -0.23120169 -0.84773493
v 0.11932983 -0.23530802 -0.84766030
v 0.06351786 -0.06969827 0.24560378
v 0.04688064 0.08655831 0.42092824
v 0.04164338 0.07345896 0.39829507
v 0.04201961 0.07334485 0.39810395
v 0.11586338 -0.52810103 -0.70312494
v 0.11593388 -0.52806038 -0.70327121
v 0.10805338 -0.52653104 -0.69929492
v 0.11196338 -0.52810103 -0.69932497
v 0.13910544 0.03956785 0.45832607
v 0.06467338 0.60470897 -0.16023496
v 0.07855025 0.61672682 -0.12793145
v 0.06508338 0.61245894 -0.15242495
v 0.06515526 0.61247820 -0.15231857
v 0.11193338 -0.52810103 -0.69929492
v 0.09243338 -0.38356102 -0.19919495
v 0.10076504 -0.40493128 -0.84709036
v 0.10024338 -0.32888103 -0.14849496
v 0.10023338 -0.32888103 -0.14851496
v 0.13169917 -0.53528225 -0.45522597
v 0.11196338 -0.08669104 -0.78505492
v 0.10414338 -0.14528105 -0.61350495
v 0.13580729 -0.29630479 -0.87988472
v 0.11196338 -0.28591102 -0.86566496
v 0.11593355 -0.28591460 -0.86727345
v 0.11586338 -0.28591102 -0.86724496
v 0.11979298 -0.31319940 -0.46492469
v 0.10024338 -0.31339103 -0.47273493
v 0.11191154 -0.32071576 -0.46500120
v 0.11575338 -0.31716102 -0.46492493
v 0.11586338 -0.31325102 -0.46649495
v 0.11586338 -0.31705102 -0.46492493
v 0.12952048 -0.35181576 0.08366805
v 0.11192865 -0.32161188 -0.46461225
v 0.11592338 -0.28591102 -0.86726493
v 0.11586338 -0.31716102 -0.46487495
v 0.11196338 -0.32085103 -0.46492493
v 0.13726830 -0.32923704 -0.45083189
v 0.13634872 -0.26605964 -0.86769015
v 0.11977338 -0.31325102 -0.46492493
v 0.11977338 -0.28217104 -0.86726493
v 0.20180337 -0.36403102 -0.26262495
v 0.08801598 -0.15291248 -0.73382533
v 0.11977338 -0.23513104 -0.84778494
v 0.10414338 -0.13354103 -0.70320493
v 0.10024338 -0.13356104 -0.69946492
v 0.11364747 -0.30096632 -0.47247359
v 0.12044685 -0.31306678 -0.46469274
v 0.12367338 -0.23122104 -0.84773493
v 0.13506632 -0.17248861 -0.82787579
v 0.10024338 -0.14530104 -0.61726493
v 0.10026445 -0.14529061 -0.61726487
v 0.01946787 -0.23109464 -0.54765338
v 0.09149153 -0.12652551 -0.67054075
v 0.10805338 -0.13197105 -0.70320493
v 0.11197657 -0.08674972 -0.78519893
v 0.11584251 -0.08282021 -0.77372360
v 0.13640498 -0.14920454 -0.77292675
v 0.20185085 -0.37185997 -0.26958805
v 0.20571338 -0.37185103 -0.27303493
v 0.11315422 -0.11860583 -0.67585349
v 0.02993338 0.07348896 0.39834505
v 0.20961338 -0.36403102 -0.26963493
v 0.20952438 -0.36404559 -0.26958787
v 0.21038672 -0.38184988 -0.28661507
v 0.20138338 -0.36794102 -0.26570493
v 0.14964251 -0.44449219 -0.38021266
v 0.21530761 -0.35311356 -0.26243779
v 0.20571338 -0.36794102 -0.26958495
v 0.20573337 -0.36794102 -0.26961496
v 0.14811721 -0.08191573 -0.62721652
v 0.13610433 -0.12891054 -0.87290490
v 0.21694338 -0.36013103 -0.27351493
v 0.11571284 -0.01621324 0.20565799
v 0.20180337 -0.37185103 -0.26953495
v 0.19804338 -0.37575102 -0.26961496
v 0.21352337 -0.36013103 -0.26969495
v 0.21343338 -0.36013103 -0.26961496
v 0.21352337 -0.36403102 -0.27314493
v 0.21340869 -0.36011720 -0.26956919
v 0.20571338 -0.36797103 -0.26961496
v 0.22972253 -0.19894749 -0.16669063
v 0.10933722 -0.02020194 -0.47030619
v 0.21453933 -0.30513644 -0.30523160
v 0.04997799 0.35849696 -0.21541679
f 2 3 84
f 10 11 12
f 243 66 6
f 79 20 21
f 22 23 24
f 9 32 1
f 84 9 1
f 3 2 19
f 2 43 19
f 29 44 30
f 33 34 35
f 34 33 36
f 16 1 4
f 15 16 37
f 36 37 34
f 37 36 15
f 33 15 36
f 34 16 41
f 40 34 41
f 33 35 39
f 15 33 39
f 16 4 41
f 16 15 1
f 1 41 4
f 45 48 46
f 14 47 48
f 38 47 14
f 32 26 63
f 94 45 50
f 55 56 31
f 56 55 57
f 66 4 355
f 20 63 64
f 243 67 68
f 67 69 68
f 79 139 32
f 1 32 74
f 70 22 71
f 18 70 71
f 74 32 139
f 26 32 9
f 70 28 23
f 70 7 28
f 64 21 20
f 21 73 20
f 73 21 64
f 7 72 28
f 79 32 63
f 43 2 84
f 27 7 74
f 72 7 27
f 63 26 73
f 26 9 73
f 76 77 5
f 74 7 18
f 70 18 7
f 71 22 112
f 28 72 23
f 132 43 1
f 10 12 65
f 23 72 24
f 22 24 112
f 70 23 22
f 5 43 85
f 132 1 666
f 18 379 74
f 1 43 84
f 19 5 77
f 76 3 77
f 76 5 80
f 19 43 5
f 3 19 77
f 40 35 34
f 84 3 76
f 16 34 37
f 86 76 80
f 86 84 76
f 86 85 43
f 15 39 90
f 5 85 80
f 86 80 85
f 15 90 1
f 41 1 90
f 87 88 89
f 35 40 39
f 40 90 39
f 41 90 40
f 43 132 14
f 53 54 57
f 48 45 94
f 93 43 14
f 14 48 93
f 45 46 50
f 29 30 94
f 46 44 50
f 112 27 379
f 93 30 38
f 30 44 38
f 47 44 46
f 38 44 47
f 48 47 46
f 94 50 29
f 50 44 29
f 94 30 93
f 48 94 93
f 53 55 42
f 95 60 96
f 55 53 57
f 62 42 31
f 57 58 61
f 42 55 31
f 31 56 98
f 56 60 98
f 54 49 58
f 49 42 62
f 96 60 100
f 56 61 60
f 61 56 57
f 99 100 62
f 54 53 42
f 49 54 42
f 57 54 58
f 99 95 96
f 4 66 101
f 49 66 52
f 62 38 66
f 66 38 14
f 58 49 52
f 99 96 100
f 66 49 62
f 61 58 60
f 98 60 95
f 99 62 31
f 95 99 98
f 98 99 31
f 71 112 18
f 20 79 63
f 102 103 65
f 105 446 97
f 106 107 108
f 109 371 110
f 109 110 67
f 243 109 67
f 63 73 64
f 75 73 9
f 79 21 75
f 139 79 75
f 24 72 27
f 112 24 27
f 74 606 379
f 21 20 75
f 9 139 75
f 20 73 75
f 114 392 115
f 116 117 87
f 43 699 86
f 118 119 120
f 121 250 143
f 11 122 12
f 11 111 122
f 27 74 379
f 572 74 379
f 123 119 118
f 119 123 78
f 142 124 125
f 78 281 392
f 113 10 65
f 127 128 13
f 128 127 129
f 111 130 113
f 130 11 10
f 111 11 130
f 120 131 102
f 133 134 135
f 84 86 699
f 12 137 65
f 120 102 65
f 137 118 65
f 113 130 10
f 65 8 113
f 111 8 65
f 8 111 113
f 117 88 87
f 78 88 117
f 122 137 12
f 138 117 116
f 78 117 138
f 137 122 123
f 122 78 123
f 87 89 142
f 14 59 91
f 82 81 25
f 132 140 82
f 17 83 152
f 149 152 146
f 132 59 14
f 14 91 217
f 132 82 25
f 81 140 91
f 59 132 25
f 91 59 25
f 140 81 82
f 147 180 148
f 83 126 152
f 25 81 91
f 66 14 217
f 38 699 93
f 217 180 151
f 51 153 154
f 159 160 161
f 62 699 38
f 60 58 100
f 52 66 227
f 699 100 58
f 100 699 62
f 4 101 233
f 227 66 729
f 355 4 233
f 104 233 163
f 6 66 355
f 166 108 167
f 68 168 169
f 234 171 172
f 68 174 168
f 175 169 176
f 68 69 174
f 175 176 177
f 178 170 234
f 139 606 74
f 17 152 149
f 112 379 18
f 103 138 116
f 13 181 136
f 88 182 89
f 88 78 182
f 128 184 13
f 185 184 128
f 142 83 65
f 186 138 103
f 78 138 186
f 136 410 13
f 187 188 189
f 182 124 89
f 190 189 191
f 84 699 9
f 190 192 13
f 190 191 192
f 136 181 392
f 83 17 281
f 181 185 392
f 137 123 118
f 136 392 281
f 124 142 89
f 116 87 142
f 111 65 281
f 83 281 65
f 65 118 120
f 78 111 281
f 131 186 102
f 78 186 131
f 119 131 120
f 78 131 119
f 122 111 78
f 102 186 103
f 65 103 142
f 103 116 142
f 410 136 281
f 9 699 141
f 217 140 713
f 83 142 126
f 140 132 713
f 91 140 217
f 699 43 93
f 146 195 149
f 195 146 196
f 196 146 152
f 17 149 511
f 198 199 200
f 199 198 298
f 51 410 145
f 201 145 298
f 281 207 144
f 189 188 392
f 212 377 155
f 52 291 699
f 207 281 315
f 121 205 250
f 160 162 206
f 208 209 210
f 211 147 148
f 159 162 160
f 156 212 155
f 202 156 155
f 203 156 202
f 161 160 206
f 203 161 156
f 162 203 202
f 162 202 206
f 202 155 206
f 203 162 161
f 212 156 161
f 150 213 214
f 150 292 213
f 162 159 161
f 291 52 379
f 66 217 101
f 699 58 52
f 225 226 221
f 228 229 230
f 339 231 232
f 235 236 237
f 178 234 172
f 157 104 234
f 104 157 165
f 104 165 233
f 157 170 158
f 121 183 238
f 166 178 108
f 178 239 108
f 239 178 172
f 240 239 172
f 167 158 166
f 167 157 158
f 158 170 166
f 178 166 170
f 157 234 170
f 175 68 169
f 68 175 243
f 371 243 6
f 174 110 173
f 177 176 371
f 251 134 78
f 67 110 69
f 243 177 371
f 109 243 371
f 174 69 110
f 243 175 177
f 173 110 371
f 169 168 176
f 176 168 173
f 168 174 173
f 371 179 243
f 173 371 176
f 244 245 246
f 248 249 392
f 215 143 9
f 250 139 143
f 9 143 139
f 183 121 143
f 250 252 255
f 183 215 238
f 1 74 666
f 253 254 13
f 248 254 253
f 127 256 129
f 254 127 13
f 256 127 254
f 185 128 129
f 192 191 249
f 205 121 238
f 249 191 392
f 124 257 125
f 181 184 185
f 195 196 259
f 513 215 9
f 124 182 257
f 182 78 257
f 250 606 139
f 256 248 392
f 129 256 392
f 181 13 184
f 256 254 248
f 125 133 92
f 187 190 13
f 190 187 189
f 135 260 261
f 262 263 264
f 265 263 262
f 192 253 13
f 253 192 249
f 194 267 268
f 251 78 92
f 142 125 92
f 215 271 238
f 271 205 238
f 183 143 215
f 125 272 133
f 253 249 248
f 272 134 133
f 134 272 78
f 196 152 274
f 134 260 135
f 134 251 260
f 392 191 189
f 185 129 392
f 260 251 261
f 92 135 258
f 135 261 258
f 275 262 264
f 276 262 275
f 257 272 125
f 257 78 272
f 133 135 92
f 193 274 152
f 78 126 142
f 281 17 511
f 132 666 713
f 152 126 193
f 197 193 269
f 197 274 193
f 269 193 126
f 278 197 269
f 196 274 259
f 269 149 278
f 274 197 278
f 283 284 298
f 217 145 410
f 201 282 285
f 283 286 287
f 154 283 287
f 286 283 298
f 51 145 285
f 288 284 153
f 289 288 153
f 259 278 195
f 284 283 154
f 51 289 153
f 293 180 294
f 282 288 289
f 288 282 298
f 290 295 296
f 285 282 289
f 51 285 289
f 207 216 297
f 284 288 298
f 153 284 154
f 145 201 285
f 149 195 278
f 144 268 299
f 269 126 149
f 145 217 298
f 297 216 302
f 297 302 204
f 302 300 303
f 302 216 300
f 144 297 204
f 282 201 298
f 295 216 306
f 144 304 268
f 144 204 303
f 144 299 296
f 268 267 299
f 144 280 281
f 280 296 307
f 304 194 268
f 144 303 304
f 207 297 144
f 300 194 304
f 149 163 511
f 579 423 104
f 104 423 212
f 155 377 357
f 513 699 291
f 267 216 290
f 300 216 194
f 280 144 296
f 303 300 304
f 296 295 307
f 204 302 303
f 290 216 295
f 308 309 310
f 308 292 309
f 295 306 307
f 311 312 293
f 311 292 312
f 267 290 299
f 313 314 147
f 299 290 296
f 194 216 267
f 292 217 151
f 281 511 163
f 511 149 126
f 316 151 180
f 150 214 314
f 252 317 255
f 213 316 214
f 318 292 151
f 314 180 147
f 164 315 319
f 235 226 236
f 321 476 322
f 232 321 322
f 206 155 212
f 161 206 212
f 323 198 200
f 211 313 147
f 313 211 292
f 101 217 292
f 324 325 326
f 292 318 213
f 318 316 213
f 214 316 180
f 318 151 316
f 314 214 180
f 292 150 313
f 150 314 313
f 180 217 281
f 164 281 315
f 220 225 221
f 460 163 219
f 511 163 476
f 511 476 149
f 322 476 329
f 330 322 329
f 101 218 478
f 164 331 332
f 333 334 328
f 334 333 332
f 332 331 334
f 334 319 328
f 319 334 331
f 331 164 319
f 319 315 328
f 104 163 476
f 460 237 335
f 225 219 224
f 236 336 237
f 460 235 237
f 339 337 338
f 339 223 337
f 476 163 149
f 478 228 230
f 317 215 255
f 233 207 315
f 478 218 342
f 343 344 345
f 344 343 406
f 315 539 328
f 541 346 347
f 226 224 236
f 221 226 235
f 226 225 224
f 460 219 220
f 460 221 235
f 237 336 335
f 220 219 225
f 460 220 221
f 219 163 224
f 236 224 336
f 480 245 364
f 97 242 349
f 97 157 242
f 97 349 350
f 165 157 446
f 480 246 245
f 339 353 354
f 233 101 551
f 356 244 246
f 339 104 223
f 354 358 348
f 359 476 360
f 353 359 360
f 338 359 353
f 337 361 338
f 362 363 651
f 104 476 223
f 339 338 353
f 360 358 354
f 358 360 476
f 354 348 339
f 361 476 359
f 338 361 359
f 223 476 361
f 337 223 361
f 353 360 354
f 233 720 163
f 6 355 731
f 163 460 475
f 365 649 356
f 366 350 367
f 356 649 244
f 368 364 245
f 66 731 729
f 241 366 367
f 241 446 366
f 157 167 242
f 106 240 366
f 240 367 366
f 367 106 366
f 367 240 106
f 241 171 369
f 241 367 106
f 105 366 446
f 172 171 240
f 108 239 106
f 167 108 107
f 242 167 107
f 171 234 369
f 239 240 106
f 349 370 350
f 370 367 350
f 370 106 367
f 106 370 107
f 171 241 240
f 107 370 242
f 349 242 370
f 241 106 240
f 97 350 105
f 350 366 105
f 446 241 369
f 157 97 446
f 369 234 446
f 277 9 273
f 263 265 188
f 215 513 713
f 258 251 92
f 208 373 209
f 373 264 209
f 374 375 376
f 255 215 713
f 265 262 276
f 378 114 115
f 74 572 666
f 274 278 259
f 271 215 317
f 270 275 264
f 380 275 270
f 275 380 276
f 263 187 264
f 187 263 188
f 205 271 386
f 250 205 386
f 387 388 141
f 374 387 375
f 375 387 141
f 252 386 317
f 252 250 386
f 187 13 264
f 114 373 208
f 378 270 264
f 115 270 378
f 390 392 210
f 373 378 264
f 114 378 373
f 306 393 394
f 390 209 264
f 390 210 209
f 380 270 115
f 78 142 92
f 384 78 392
f 388 273 141
f 188 265 392
f 386 271 317
f 277 374 376
f 250 255 713
f 383 387 374
f 251 258 261
f 273 9 141
f 247 391 264
f 391 247 392
f 78 279 126
f 277 383 374
f 376 375 488
f 488 375 141
f 273 388 383
f 513 9 277
f 383 388 387
f 277 273 383
f 78 384 279
f 277 713 513
f 389 397 398
f 198 286 298
f 323 286 198
f 396 402 403
f 393 216 404
f 280 307 394
f 307 306 394
f 154 287 51
f 405 516 396
f 323 287 286
f 407 408 409
f 402 516 411
f 404 412 413
f 414 415 416
f 417 418 419
f 417 503 418
f 515 420 421
f 404 216 412
f 424 425 426
f 510 427 428
f 292 211 312
f 211 148 312
f 51 287 323
f 217 340 298
f 429 539 430
f 411 431 432
f 412 216 405
f 341 404 413
f 280 341 413
f 433 434 435
f 423 579 656
f 423 301 656
f 301 423 656
f 357 212 155
f 403 402 436
f 312 148 293
f 437 326 438
f 515 280 420
f 515 403 436
f 434 516 414
f 411 516 431
f 412 405 420
f 280 394 341
f 396 516 402
f 405 396 421
f 402 411 436
f 420 405 421
f 280 413 420
f 413 412 420
f 408 343 409
f 343 408 406
f 429 439 539
f 439 429 440
f 394 393 341
f 441 294 442
f 292 443 324
f 443 325 324
f 340 626 292
f 421 396 403
f 306 216 393
f 444 347 346
f 393 404 341
f 436 411 432
f 292 437 309
f 437 438 309
f 405 216 516
f 516 216 207
f 515 436 432
f 281 280 515
f 515 421 403
f 443 441 442
f 443 292 441
f 148 180 293
f 443 442 325
f 292 311 441
f 311 294 441
f 447 448 449
f 409 343 345
f 309 438 310
f 516 207 233
f 281 164 541
f 335 336 451
f 445 452 535
f 452 445 453
f 541 430 455
f 456 457 454
f 444 458 539
f 444 346 458
f 459 444 539
f 444 459 347
f 460 454 461
f 180 281 327
f 308 310 463
f 311 293 294
f 437 324 326
f 324 437 292
f 464 305 407
f 229 465 230
f 229 406 465
f 541 347 450
f 305 408 407
f 408 305 406
f 455 281 541
f 315 445 535
f 315 281 445
f 344 229 228
f 229 344 406
f 445 320 453
f 439 459 539
f 439 450 459
f 541 448 447
f 430 440 429
f 451 457 456
f 281 163 720
f 320 445 281
f 541 440 430
f 541 447 346
f 163 511 648
f 541 450 440
f 439 440 450
f 346 447 458
f 626 101 292
f 450 347 459
f 458 449 539
f 449 458 447
f 449 333 539
f 333 449 448
f 342 218 467
f 164 332 448
f 342 467 468
f 448 332 333
f 478 407 409
f 455 430 539
f 164 448 541
f 333 328 539
f 335 451 456
f 511 126 476
f 717 227 729
f 467 470 468
f 470 467 406
f 468 478 342
f 478 230 471
f 345 344 228
f 478 464 407
f 551 101 478
f 478 468 464
f 468 470 464
f 101 406 218
f 467 218 406
f 230 465 471
f 470 305 464
f 305 470 406
f 478 409 345
f 478 345 228
f 368 477 364
f 234 104 446
f 339 232 330
f 451 336 224
f 473 457 224
f 466 339 222
f 368 649 477
f 460 456 454
f 454 457 473
f 460 335 456
f 358 476 472
f 348 358 472
f 457 451 224
f 454 473 461
f 476 163 475
f 104 339 466
f 339 348 231
f 222 476 720
f 222 330 474
f 231 472 321
f 472 476 321
f 348 472 231
f 330 329 474
f 551 481 482
f 474 476 222
f 231 321 232
f 232 322 330
f 339 330 222
f 474 329 476
f 355 729 731
f 477 104 466
f 480 365 356
f 466 364 477
f 104 656 446
f 364 466 480
f 245 244 368
f 477 649 104
f 649 368 244
f 246 480 356
f 731 66 243
f 656 165 446
f 656 233 165
f 371 6 731
f 371 567 179
f 417 485 486
f 424 485 417
f 410 247 264
f 391 390 264
f 392 390 391
f 489 502 607
f 606 250 713
f 488 277 376
f 491 492 493
f 395 492 491
f 713 277 488
f 141 699 488
f 494 495 381
f 385 491 493
f 384 491 385
f 384 395 491
f 492 496 493
f 497 401 517
f 498 266 499
f 500 501 381
f 490 410 397
f 487 424 417
f 126 279 511
f 500 495 501
f 495 508 501
f 508 500 501
f 389 494 381
f 212 357 377
f 427 514 428
f 494 508 495
f 508 494 398
f 428 199 298
f 729 217 713
f 431 434 433
f 428 298 510
f 515 433 435
f 298 340 510
f 340 51 510
f 410 51 340
f 514 199 428
f 518 519 520
f 435 414 416
f 521 519 518
f 434 414 435
f 427 510 51
f 514 427 51
f 525 521 518
f 415 516 521
f 515 416 525
f 519 522 520
f 414 516 415
f 431 516 434
f 432 431 433
f 526 527 475
f 528 532 535
f 528 529 532
f 212 423 656
f 515 435 416
f 415 521 525
f 515 432 433
f 416 415 525
f 519 516 522
f 521 516 519
f 281 455 320
f 452 453 530
f 453 320 530
f 535 452 531
f 452 530 531
f 455 535 532
f 528 534 529
f 482 536 479
f 292 308 538
f 308 463 538
f 537 536 482
f 536 537 549
f 536 540 479
f 549 540 536
f 529 534 320
f 320 455 532
f 534 543 533
f 292 544 340
f 544 327 340
f 544 538 545
f 538 544 292
f 538 463 545
f 546 551 471
f 551 547 548
f 544 545 327
f 547 552 548
f 552 553 548
f 549 553 552
f 542 554 533
f 531 542 535
f 531 554 542
f 481 537 482
f 554 530 320
f 540 552 547
f 549 552 540
f 556 557 558
f 557 559 558
f 543 528 535
f 543 534 528
f 320 534 533
f 554 531 530
f 551 482 479
f 542 543 535
f 542 533 543
f 320 533 554
f 720 511 281
f 532 529 320
f 126 511 476
f 656 104 212
f 513 291 379
f 471 465 555
f 465 406 555
f 560 537 481
f 537 560 549
f 561 557 556
f 548 553 561
f 479 540 547
f 555 560 546
f 560 555 406
f 553 557 561
f 557 553 549
f 656 362 222
f 551 478 471
f 471 555 546
f 560 406 549
f 546 560 481
f 549 101 626
f 101 549 406
f 539 315 455
f 551 546 481
f 551 479 547
f 720 476 475
f 563 564 565
f 365 222 566
f 651 222 362
f 563 566 222
f 568 179 569
f 418 663 419
f 379 606 571
f 573 574 575
f 574 573 576
f 577 578 512
f 488 699 713
f 210 392 208
f 382 490 580
f 382 505 389
f 389 581 494
f 581 398 494
f 398 581 389
f 582 583 584
f 499 582 584
f 499 583 582
f 584 279 499
f 507 586 587
f 503 417 486
f 580 505 382
f 392 114 208
f 503 663 418
f 610 485 419
f 351 576 352
f 582 498 499
f 588 582 499
f 590 279 589
f 583 623 591
f 584 583 591
f 497 592 399
f 401 497 399
f 395 384 247
f 590 593 588
f 583 266 623
f 395 498 593
f 584 591 279
f 279 590 588
f 492 395 595
f 496 492 595
f 504 506 507
f 13 410 264
f 389 381 382
f 424 485 610
f 380 392 276
f 500 508 398
f 392 380 115
f 496 595 597
f 372 247 352
f 595 598 597
f 598 595 395
f 392 265 276
f 352 599 351
f 597 598 589
f 279 588 499
f 591 623 279
f 598 600 589
f 395 600 598
f 600 593 590
f 593 600 395
f 266 583 499
f 593 582 588
f 582 593 498
f 589 600 590
f 498 395 266
f 496 279 493
f 381 501 382
f 501 585 382
f 585 501 500
f 397 581 505
f 581 389 505
f 389 581 397
f 580 397 505
f 580 490 397
f 585 500 410
f 397 410 398
f 399 592 400
f 372 352 573
f 576 573 352
f 247 382 596
f 628 601 602
f 495 500 381
f 247 490 382
f 247 596 352
f 500 398 410
f 247 410 490
f 401 699 517
f 382 585 596
f 679 507 524
f 352 596 524
f 604 642 605
f 395 247 679
f 410 340 585
f 200 514 51
f 545 463 327
f 585 340 596
f 497 517 592
f 514 200 199
f 609 610 426
f 425 609 426
f 628 379 603
f 180 442 294
f 517 699 618
f 601 615 602
f 438 327 310
f 679 281 511
f 616 224 617
f 104 656 579
f 281 217 410
f 442 180 327
f 200 51 323
f 486 594 503
f 460 461 469
f 620 622 621
f 310 327 463
f 515 525 518
f 379 700 513
f 442 327 325
f 326 327 438
f 326 325 327
f 516 523 522
f 233 523 516
f 281 515 523
f 523 515 522
f 522 515 520
f 520 515 518
f 233 455 281
f 315 281 455
f 616 550 224
f 385 279 384
f 630 646 629
f 340 217 729
f 281 596 340
f 281 340 327
f 233 281 523
f 634 627 462
f 635 616 526
f 637 617 648
f 628 602 685
f 52 227 640
f 527 638 475
f 526 617 527
f 634 462 638
f 469 635 460
f 644 473 224
f 460 635 475
f 644 224 550
f 550 616 635
f 469 550 635
f 469 644 550
f 461 644 469
f 473 644 461
f 526 616 617
f 635 526 475
f 648 224 163
f 224 648 617
f 617 637 527
f 475 638 462
f 634 637 648
f 645 646 647
f 700 699 513
f 626 355 233
f 557 549 559
f 626 340 549
f 504 507 679
f 556 558 549
f 549 233 551
f 455 315 535
f 627 634 648
f 315 455 233
f 638 637 634
f 636 648 720
f 527 637 638
f 462 627 636
f 475 636 720
f 636 627 648
f 462 636 475
f 643 717 624
f 549 558 559
f 551 561 556
f 556 549 551
f 561 551 548
f 648 511 720
f 379 571 509
f 363 564 650
f 720 656 222
f 651 650 563
f 654 655 653
f 731 567 371
f 731 243 179
f 568 569 659
f 483 568 659
f 657 179 568
f 483 659 660
f 567 179 657
f 657 568 483
f 567 657 483
f 659 569 660
f 658 567 660
f 483 660 567
f 658 660 570
f 660 569 570
f 569 179 570
f 570 179 658
f 567 658 179
f 661 578 655
f 571 606 607
f 571 502 654
f 661 655 654
f 502 661 654
f 652 578 577
f 652 655 578
f 571 607 502
f 578 489 512
f 578 661 489
f 662 599 575
f 599 662 351
f 509 654 653
f 571 654 509
f 279 385 493
f 713 512 606
f 247 384 392
f 610 424 426
f 664 586 507
f 665 586 664
f 503 379 663
f 486 485 610
f 485 424 610
f 279 597 589
f 632 667 631
f 417 419 487
f 425 424 610
f 624 422 668
f 713 699 401
f 575 504 372
f 372 573 575
f 670 671 672
f 670 603 671
f 663 610 419
f 696 379 647
f 279 496 597
f 487 419 485
f 424 487 485
f 663 379 509
f 379 503 603
f 506 664 507
f 665 664 506
f 266 395 623
f 623 679 279
f 623 395 679
f 592 517 614
f 693 619 613
f 400 614 674
f 614 400 592
f 524 575 352
f 674 614 613
f 399 400 674
f 574 662 575
f 574 576 662
f 662 576 351
f 665 611 586
f 665 612 611
f 614 517 613
f 599 352 575
f 676 677 678
f 677 676 675
f 679 247 504
f 247 372 504
f 399 674 613
f 628 603 670
f 672 671 681
f 586 611 587
f 620 621 629
f 646 620 629
f 676 682 683
f 575 524 504
f 504 524 612
f 504 612 506
f 602 669 685
f 686 682 678
f 673 686 678
f 647 628 622
f 681 639 687
f 686 694 682
f 694 686 673
f 612 665 506
f 611 612 524
f 679 524 596
f 611 524 587
f 507 587 524
f 670 672 681
f 628 670 681
f 690 647 622
f 619 677 675
f 691 605 608
f 692 691 608
f 692 605 691
f 628 681 601
f 681 672 601
f 682 680 683
f 401 675 680
f 675 613 619
f 613 517 618
f 613 675 401
f 693 613 618
f 676 683 675
f 399 613 401
f 693 673 619
f 281 679 596
f 679 511 279
f 632 703 667
f 695 645 690
f 625 700 698
f 625 697 698
f 697 625 698
f 678 677 673
f 647 379 628
f 379 696 689
f 698 697 422
f 697 668 422
f 668 697 698
f 605 691 701
f 691 642 701
f 691 605 642
f 689 604 562
f 640 718 52
f 641 640 632
f 604 692 562
f 700 379 562
f 632 631 641
f 689 642 604
f 692 604 605
f 699 625 624
f 379 689 562
f 700 562 707
f 699 700 625
f 701 707 608
f 696 646 630
f 700 643 698
f 643 700 717
f 655 652 653
f 626 549 340
f 704 701 642
f 718 640 641
f 632 640 227
f 689 704 642
f 668 643 624
f 624 698 422
f 692 608 562
f 608 707 562
f 701 608 605
f 698 624 625
f 643 668 698
f 233 549 626
f 227 718 703
f 222 651 563
f 363 650 651
f 362 649 363
f 566 708 365
f 566 565 708
f 563 650 564
f 649 365 708
f 649 362 656
f 563 565 566
f 466 222 480
f 649 565 564
f 365 480 222
f 708 565 649
f 649 564 363
f 656 104 649
f 567 731 179
f 577 512 653
f 489 607 512
f 607 606 512
f 425 484 609
f 509 653 512
f 577 653 652
f 512 666 572
f 502 489 661
f 512 572 509
f 594 609 484
f 484 663 509
f 610 594 486
f 512 713 666
f 706 705 711
f 610 484 425
f 682 694 684
f 609 594 610
f 602 615 669
f 509 572 594
f 484 610 663
f 572 603 594
f 594 484 509
f 673 677 619
f 603 503 594
f 683 680 675
f 639 615 687
f 684 401 680
f 693 694 673
f 401 684 713
f 681 671 639
f 672 681 687
f 603 572 379
f 680 682 684
f 639 669 615
f 620 646 695
f 639 671 669
f 629 621 630
f 676 678 682
f 671 603 669
f 601 672 687
f 669 603 622
f 622 603 718
f 669 622 685
f 630 622 696
f 684 694 693
f 684 693 618
f 684 729 713
f 379 718 603
f 601 687 615
f 696 647 646
f 620 690 622
f 695 690 620
f 628 685 622
f 645 647 690
f 645 695 646
f 703 702 667
f 696 622 718
f 684 618 729
f 621 622 630
f 52 718 379
f 699 729 618
f 703 632 227
f 696 718 704
f 631 667 702
f 688 715 716
f 712 715 688
f 704 689 696
f 717 729 699
f 703 718 702
f 641 631 702
f 704 717 707
f 641 702 718
f 701 704 707
f 624 717 699
f 717 700 707
f 704 227 717
f 704 718 227
f 656 720 233
f 716 710 714
f 633 711 722
f 711 705 722
f 723 719 726
f 712 705 715
f 705 721 715
f 705 712 721
f 709 723 724
f 725 723 709
f 726 710 724
f 713 633 728
f 633 714 728
f 633 722 721
f 722 705 721
f 721 705 727
f 710 726 714
f 688 716 714
f 626 340 728
f 721 727 715
f 706 711 710
f 355 626 729
f 713 730 711
f 710 711 725
f 633 712 688
f 709 710 725
f 633 713 711
f 715 727 716
f 706 710 716
f 714 633 688
f 633 721 712
f 705 706 727
f 710 709 724
f 726 730 714
f 727 706 716
f 719 730 726
f 711 719 725
f 724 723 726
f 719 711 730
f 725 719 723
f 730 713 728
f 728 714 730
f 728 729 626
f 728 340 729

