# https://github.com/mikedh/trimesh
v -0.79135054 -0.38820037 0.18324840
v -0.64629364 -0.65680486 -0.07421890
v -0.66029769 -0.32038486 0.04587776
v -0.62275946 -0.60147947 -0.12766998
v -0.64516860 -0.32960165 0.04246496
v -0.64517725 -0.32959861 0.04247005
v -0.64127862 -0.33351165 0.04249496
v -0.64679843 -0.35000584 0.04846199
v -0.63128883 0.31205797 -0.18984342
v -0.62174863 -0.60267162 -0.12939505
v -0.62174863 -0.60694164 -0.12947504
v -0.62175965 -0.60716683 -0.12945487
v -0.64120513 -0.33349505 0.04246497
v -0.62174863 -0.60304165 -0.12939505
v -0.62174863 -0.60304165 -0.12940504
v -0.61999238 -0.33751723 0.03766396
v -0.63736862 -0.33741164 0.04251496
v -0.64127862 -0.32960165 0.04143496
v -0.61901510 -0.59905595 -0.13360980
v -0.49674866 -0.61866164 -0.16448505
v -0.49838868 -0.61866164 -0.16064505
v -0.61673445 -0.55699211 -0.12483658
v -0.63965023 -0.20612274 0.24741772
v -0.46379229 -0.49471563 0.58707917
v -0.51830471 -0.29910624 0.33831057
v -0.60145617 -0.84561610 0.37733114
v -0.51220673 -0.80357569 -0.16418070
v -0.45531797 -0.88083577 0.19688803
v -0.49676406 -0.62672114 -0.17267594
v -0.50269514 -0.62710458 -0.15911447
v -0.53823638 -0.46317443 0.21675619
v -0.50975835 -0.61828959 -0.12992141
v -0.45847532 0.05489284 -0.25527999
v -0.67562503 0.03873115 -0.00798460
v -0.48501682 -0.87654740 0.51122028
v -0.48502865 -0.87648165 0.51126498
v -0.52237219 -0.88856632 0.47135031
v -0.51209778 -0.81324846 0.17130649
v -0.48499894 -0.80022907 -0.23486421
v -0.52250081 -0.78479403 0.23328522
v -0.48837864 -0.79444164 -0.23486502
v -0.54586709 -0.74151933 0.18877871
v -0.52017862 -0.77101165 0.21406496
v -0.52016860 -0.77491164 0.21043497
v -0.52006865 -0.77101165 0.21434496
v -0.52017862 -0.77488166 0.21043497
v -0.48508865 -0.87648165 0.51121497
v -0.48111865 -0.87445164 0.51512498
v -0.57565308 -0.55953145 0.24195042
v -0.52177864 -0.77491164 0.20653497
v -0.48502865 -0.86866164 0.51646501
v -0.47937894 -0.87026131 0.51909637
v -0.48502865 -0.79438168 -0.24267504
v -0.48421982 -0.79586452 -0.24265888
v -0.48895821 -0.79054320 -0.23877399
v -0.49285871 -0.78676838 -0.23486353
v -0.49738744 -0.61083788 -0.15481810
v -0.51693863 -0.77491164 0.21825495
v -0.50836235 -0.26899850 0.30235839
v -0.50455862 -0.28273165 0.31198496
v -0.50456864 -0.28273165 0.31200495
v -0.52084506 -0.76823896 0.21504913
v -0.50449747 -0.28277126 0.31197980
v -0.50459856 -0.28665113 0.31591722
v -0.53731835 0.14321710 0.14738183
v -0.50834817 -0.69096911 -0.28726214
v -0.48903865 -0.87257165 0.51121497
v -0.48892865 -0.87648165 0.50872499
v -0.48892865 -0.87267166 0.51121497
v -0.46457666 -0.87820327 0.52402353
v -0.43048328 -0.84908772 -0.30413163
v -0.49674866 -0.86500168 0.51121497
v -0.49285743 -0.86878181 0.51121533
v -0.49283865 -0.86866164 0.51131499
v -0.49223018 -0.88022476 0.50395507
v -0.48892865 -0.87257165 0.51128501
v -0.48892975 -0.79056573 -0.23880394
v -0.48892865 -0.79059166 -0.23877504
v -0.48502865 -0.79444164 -0.24258503
v -0.52017862 -0.77491164 0.21040495
v -0.51864862 -0.77882165 0.21043497
v -0.51143289 -0.73289227 -0.24591880
v -0.34244582 -0.90552044 0.25807607
v -0.49674866 -0.62257165 -0.16845503
v -0.49667865 -0.61476165 -0.16064505
v -0.49674866 -0.61873168 -0.16455504
v -0.49670866 -0.61866164 -0.16455504
v -0.43817198 -0.54119164 -0.21657366
v -0.50469124 -0.81713444 0.53688896
v -0.47720864 0.14304835 0.19876496
v -0.48522857 -0.78053731 -0.25932625
v -0.50846994 -0.28296575 0.31587783
v -0.50474864 -0.27882165 0.30809495
v -0.50478727 -0.27500749 0.30412903
v -0.50102860 -0.28663164 0.31200495
v -0.50455862 -0.27882165 0.30787495
v -0.50460863 -0.28663164 0.31590495
v -0.50455862 -0.28663164 0.31586495
v -0.50845861 -0.28273165 0.31571496
v -0.50951612 -0.28029218 0.31472030
v -0.47342250 0.14101730 0.20243882
v -0.47718683 0.13912480 0.19873708
v -0.49674913 -0.62255311 -0.16845506
v -0.47734192 0.13890883 0.19865744
v -0.48764724 0.17309421 0.19064300
v -0.39312708 -0.86807883 -0.29758137
v -0.47870412 -0.96048653 0.42790544
v -0.44469228 -0.28635275 0.22787130
v -0.47725865 0.14304835 0.19871496
v -0.47720864 0.13913833 0.19872496
v -0.46154431 -0.42109421 -0.12428433
v -0.42876995 0.07200137 0.22857770
v -0.47730866 0.14694835 0.19871496
v -0.50747222 0.21520205 0.18771690
v -0.41490856 -0.85852629 0.56099951
v -0.57498735 -0.75594062 -0.01357101
v -0.34830865 -0.88429165 -0.28563505
v -0.35215867 -0.88429165 -0.28174505
v -0.35220864 -0.88427168 -0.28174505
v -0.34830177 -0.88429213 -0.28563744
v -0.40219289 -0.46072066 -0.25069115
v -0.39517865 -0.95850164 0.40575495
v -0.39127865 -0.95759165 0.40184495
v -0.39127865 -0.95851165 0.40944496
v -0.39128205 -0.95852560 0.40958783
v -0.39601338 -0.95768815 0.39854914
v -0.36566710 0.16068956 -0.38164628
v -0.38736865 -0.95851165 0.41307494
v -0.39104867 -0.95851165 0.40965495
v -0.38670832 -0.96100563 0.43782488
v -0.31316122 -0.88699931 0.55905581
v -0.36002865 -0.88087165 -0.28564504
v -0.33801103 -0.88526320 -0.29144710
v -0.32114324 0.02476950 0.31069747
v -0.39554751 -0.95852542 0.40557307
v -0.39893866 -0.49366164 -0.27783504
v -0.40166098 -0.49364734 -0.27509648
v -0.39417717 -0.49284160 -0.28215548
v -0.41754416 -0.52141124 -0.28315023
v -0.36830416 0.02639798 -0.30126372
v -0.36678165 -0.34304816 -0.10979701
v -0.35909346 -0.34422439 -0.12208457
v -0.36002544 -0.34912813 -0.12552617
v -0.36002865 -0.34910166 -0.12549505
v -0.36242232 -0.40556526 0.24306823
v -0.35229865 -0.32179165 -0.10986504
v -0.36783865 0.02585834 -0.30124503
v -0.36783716 0.02589677 -0.30127504
v -0.36304381 0.03438374 -0.30923465
v -0.36948651 0.02147179 -0.29758739
v -0.40033790 0.94978088 -0.02824260
v -0.39517865 -0.95851165 0.40581495
v -0.25741598 -0.92989260 0.14754367
v -0.34830865 -0.88316166 -0.28955504
v -0.27799866 -0.81788164 0.57519495
v -0.36391219 0.02195778 -0.30125239
v -0.35248101 -0.88430780 -0.28136784
v -0.45186475 -0.42732996 -0.12964773
v -0.34830865 -0.88429165 -0.28564504
v -0.35932973 -0.35293531 -0.13005304
v -0.39523649 -0.49370947 -0.28166762
v -0.39517865 -0.49371165 -0.28174505
v -0.39517865 -0.49757165 -0.28535503
v -0.39908865 -0.49385166 -0.27783504
v -0.34915701 -0.39989153 0.24949865
v -0.36392865 0.02200834 -0.30127504
v -0.28933159 -0.44872484 -0.30657306
v -0.35223866 -0.32569164 -0.11377504
v -0.36791524 -0.35672933 -0.12164094
v -0.36010864 -0.34523165 -0.12158504
v -0.35222328 -0.32971168 -0.11767998
v -0.34439865 -0.39991164 0.25329494
v -0.34516245 -0.40014714 0.25285691
v -0.35220864 -0.32960165 -0.11762504
v -0.35220858 -0.32568330 -0.11379671
v -0.36002865 -0.34523165 -0.12170504
v -0.36002865 -0.35304165 -0.12934504
v -0.36004865 -0.34913164 -0.12549505
v -0.34696448 -0.29925096 -0.09596653
v -0.34830865 -0.39601165 0.24718495
v -0.35212621 -0.32956272 -0.11767341
v -0.34047660 -0.39600763 0.25340247
v -0.33937865 -0.39991164 0.25731495
v -0.36329666 0.02156615 -0.30138424
v -0.58219856 0.45620695 0.09053487
v -0.33486068 -0.91470736 -0.18257295
v -0.32551458 -0.93527681 0.36109927
v -0.25064865 -0.91989166 0.22606497
v 0.15789625 -0.89331383 0.28009042
v -0.40415731 -0.60520571 -0.45810077
v -0.26236865 -0.91944164 0.21825495
v -0.25845864 -0.91944164 0.22215497
v -0.26231867 -0.91944164 0.21825495
v -0.33076841 -0.27936861 0.17212355
v -0.34425867 -0.39991164 0.25340495
v -0.30575770 -0.30560228 -0.16277517
v -0.34212980 -0.40955171 0.26354578
v -0.34049866 -0.39601165 0.25339496
v -0.34049866 -0.39602166 0.25340495
v -0.33727062 -0.13319089 -0.04391788
v -0.24281865 0.54147834 0.22606497
v -0.24283849 0.54147416 0.22605941
v 0.55861151 -0.01442887 0.17476840
v -0.27016866 -0.91944164 0.21043497
v -0.26627865 -0.91944164 0.21431497
v -0.26627865 -0.91944164 0.21434496
v -0.26624864 -0.91944164 0.21434496
v -0.27408883 -0.81789172 0.57371497
v -0.25447866 -0.91944164 0.22606497
v -0.25064865 -0.91943163 0.22996496
v -0.25455865 -0.91943163 0.22606497
v -0.24112546 -0.92248207 0.21306245
v -0.28827411 0.44786978 0.24466915
v -0.19478689 0.55808359 0.23770599
v -0.19986863 0.55319834 0.23779497
v -0.25455865 -0.92129165 0.21043497
v -0.25845864 -0.91944164 0.22209495
v -0.25839865 -0.91944164 0.22215497
v -0.25065258 -0.91943181 0.22995716
v -0.23885038 -0.95745498 -0.04548693
v -0.27079818 -0.91944158 0.20986933
v -0.26627865 -0.91990167 0.21043497
v -0.23897865 0.54538834 0.22606497
v -0.23890986 0.54542613 0.22607017
v -0.23474154 0.61320651 0.20298815
v -0.24674866 -0.91868168 0.23387495
v -0.26236865 -0.91944164 0.21820498
v -0.26612261 -0.80996817 0.57380438
v -0.25455865 -0.91851163 0.23387495
v -0.25845864 -0.91851163 0.22996496
v -0.27017865 -0.81398165 0.57377499
v -0.28377995 -0.81032091 0.58025527
v -0.25845864 -0.92082167 0.21043497
v -0.26236865 -0.92036164 0.21043497
v -0.25455865 -0.91944164 0.22598498
v -0.23921286 -0.92418784 0.20380235
v -0.27408865 -0.81788164 0.57372499
v -0.27017865 -0.81411165 0.57371497
v -0.27000678 -0.81397766 0.57370150
v 0.18668705 -0.90775180 0.28882235
v 0.18800491 -0.90831935 0.28818566
v 0.46776855 -0.88432890 -0.49318001
v -0.29370806 -0.40728626 0.29615757
v -0.25234392 -0.89925969 0.29293561
v -0.23647204 -0.50152111 0.52881753
v -0.19986087 0.55333966 0.23776418
v -0.18396097 0.54510838 0.24679720
v -0.26103491 0.49717006 0.23586805
v -0.23894925 0.54552883 0.22602773
v -0.20767865 0.66901833 0.17528497
v 0.17121579 0.83318162 0.02223554
v -0.24638972 -0.80494112 0.56734043
v -0.14517865 -0.91554165 0.23775496
v -0.12923081 -0.62434834 -0.58702254
v -0.03089872 -0.84949332 -0.47599554
v -0.23892865 0.54147834 0.22758496
v -0.16311362 -0.29733443 0.29160267
v -0.32888487 -0.04029209 -0.28402218
v -0.15299866 -0.31004167 0.30028495
v -0.15299866 -0.31007165 0.30029497
v -0.14908864 -0.30616164 0.30028495
v -0.21667349 0.54523146 0.23481493
v -0.19705445 0.49636132 0.26143765
v -0.16080865 0.44772834 0.29110494
v -0.19595864 0.55681837 0.23778497
v -0.19990864 0.66647834 0.17918497
v -0.22765774 0.66645575 0.17204200
v -0.20377865 0.67038834 0.17526495
v -0.20377865 0.67036837 0.17528497
v -0.20370863 0.67038834 0.17528497
v -0.20513058 0.54820043 0.23786075
v -0.19991361 0.66647393 0.17918579
v -0.19986863 0.67170835 0.17528497
v -0.19754101 0.67937130 0.17022569
v -0.19985814 0.66650712 0.17918356
v -0.19946118 0.66622210 0.17953201
v 0.15559204 -0.88037580 0.41361302
v 0.43391135 -0.89991164 0.39793494
v -0.14908864 -0.91554165 0.23776495
v -0.14127865 -0.91552168 0.23778497
v -0.13409059 -0.91762453 0.23251484
v -0.15689866 -0.55226165 0.49502495
v -0.15988021 -0.55330580 0.49893874
v -0.16101915 -0.32027087 0.30111793
v -0.06989305 -0.16434912 0.28898975
v -0.16080865 -0.31007165 0.29735497
v -0.16080865 -0.31783167 0.30028495
v -0.15689866 -0.31393164 0.30028495
v -0.14078014 0.47140795 0.28991836
v -0.15689866 0.44772834 0.29247496
v -0.09368455 0.46540588 0.30841124
v -0.16307487 0.43405440 0.29489350
v -0.18492636 0.63784415 0.20656417
v -0.16621633 0.54047304 0.25493035
v 0.02117085 0.77310389 -0.32332385
v -0.14517865 -0.91553164 0.23778497
v -0.14127865 -0.91377163 0.24168497
v -0.14051299 -0.71843767 0.50326830
v -0.09309791 -0.94697332 0.13471174
v -0.15299866 -0.91554165 0.23777495
v -0.14908864 -0.91553164 0.23778497
v -0.16080865 -0.54831165 0.49559495
v -0.15226464 -0.89693910 0.27948031
v -0.16081040 -0.54832035 0.49560541
v -0.15689866 -0.54835165 0.49172497
v -0.15685865 -0.54835165 0.49168494
v -0.15689866 -0.54830164 0.49168494
v -0.15299866 -0.54835165 0.48787495
v -0.16053391 -0.54395705 0.49165317
v -0.15694866 -0.31398165 0.30028495
v -0.15689866 -0.31398165 0.30029497
v -0.09087374 -0.33470437 0.32983309
v -0.15307163 -0.30986410 0.30019781
v -0.15306817 0.45163789 0.29246521
v -0.15299866 0.45163834 0.29249495
v -0.15689866 0.44775835 0.29246494
v -0.16078866 0.44382834 0.29246494
v -0.15692864 0.44772834 0.29246494
v -0.31577539 0.83041161 -0.25465155
v 0.00034527 -0.95079404 0.12214490
v -0.00845865 -0.94680166 0.13621496
v -0.16312705 -0.92703146 0.21254185
v 0.47183463 -0.87619513 -0.47005075
v 0.43684134 -0.89991164 0.39403495
v 0.44058135 -0.89601165 0.39403495
v 0.43684134 -0.89709163 0.39793494
v -0.14518864 -0.30226165 0.30028495
v -0.09831174 -0.61865902 0.49171376
v -0.10770595 -0.60378200 0.48477036
v -0.01569236 -0.89485735 0.26552558
v -0.14909022 -0.30614322 0.30028495
v -0.14908864 0.45554835 0.29251495
v -0.14517865 0.44841835 0.29637495
v -0.10094646 0.40431941 0.32596242
v 0.43656820 -0.91256219 -0.50711191
v -0.07095865 -0.62257165 -0.57080501
v -0.07115865 -0.62648165 -0.57470500
v -0.07094865 -0.62257165 -0.57080501
v -0.07048549 -0.62919497 -0.57740653
v -0.06759840 -0.63274044 -0.58026105
v -0.09825865 -0.61476165 0.48778495
v -0.04361865 -0.93898165 0.16365495
v -0.03970865 -0.93902165 0.16356497
v -0.04361865 -0.93900168 0.16356497
v -0.09830865 -0.61864167 0.49168494
v -0.09830865 -0.61127168 0.48387495
v -0.09826468 -0.61865908 0.49167836
v -0.09699742 -0.62340176 0.49572453
v -0.09830751 -0.61473274 0.48778537
v -0.14275357 -0.29123133 0.29705936
v -0.05490702 -0.51178938 -0.51970547
v -0.04660606 0.43309340 0.33100054
v 0.10482755 -0.07952549 -0.41055268
v -0.09049865 0.42038834 0.32373494
v -0.00343496 -0.46301508 -0.35453478
v -0.03892945 -0.60088122 -0.55294073
v -0.05143031 -0.93907821 0.16327222
v -0.05142865 -0.94010162 0.15965497
v -0.07095865 -0.62648165 -0.57465500
v -0.02157299 -0.57324588 -0.53281647
v -0.06705865 -0.62417167 -0.57080501
v -0.04025142 -0.62864363 -0.58111721
v -0.07095865 -0.61866164 -0.57117504
v -0.08658865 0.42038834 0.32492495
v -0.04902865 -0.93898165 0.16356497
v -0.04752865 -0.93898165 0.16358495
v -0.04752865 -0.93898165 0.16356497
v -0.00455865 -0.60686165 -0.54736501
v -0.00766298 -0.64821124 -0.58081752
v -0.02492102 -0.94668734 0.13718624
v -0.08625576 0.42451981 0.32368147
v -0.03532901 -0.93905145 0.16353138
v -0.03668242 -0.93899673 0.16372950
v -0.09049865 0.42043835 0.32371494
v -0.08658865 0.42408836 0.32371494
v -0.07044522 -0.93766665 0.16711716
v 0.15557662 -0.88040292 0.41347656
v -0.05142865 -0.93896163 0.16356497
v -0.03677912 -0.93654841 0.17222236
v -0.06531796 -0.61028993 0.46001035
v -0.02569724 -0.96056163 0.08965003
v 0.00102135 -0.60304165 -0.53955501
v -0.00056334 -0.60694599 -0.54349262
v -0.00454201 -0.60694915 -0.54739475
v -0.04920352 -0.51371324 -0.54663342
v -0.00845865 -0.60694164 -0.55074501
v -0.00877107 -0.94554734 0.14055377
v -0.00721865 -0.94679165 0.13621496
v -0.00064865 -0.60673165 -0.54345500
v -0.01430847 -0.94683349 0.13631704
v -0.01236865 -0.94679165 0.13640495
v 0.04111516 -0.20425376 -0.25490680
v 0.02690779 -0.65258712 -0.54211408
v 0.26819438 -0.90767485 0.47615242
v 0.47048914 -0.87997174 -0.48008353
v 0.44073758 -0.89597583 0.39385185
v -0.00845865 -0.94679165 0.13626496
v -0.00450865 -0.60694164 -0.54736501
v -0.14825678 -0.50141042 0.42310929
v 0.43790135 -0.89601165 0.39793494
v 0.08870537 -0.91255414 0.25535485
v 0.05793135 -0.41554165 -0.30791503
v 0.05403135 -0.42726165 -0.31266505
v 0.10233882 0.02021683 0.38239148
v 0.05801135 -0.41944164 -0.30908504
v 0.05793135 -0.41937166 -0.30908504
v 0.04890511 -0.39335480 -0.30382159
v 0.26898518 -0.91163003 0.14397036
v 0.27668697 -0.91071218 0.14129370
v 0.37821361 -0.74767858 -0.39102268
v 0.38207492 -0.75149512 -0.39114323
v 0.37940446 -0.80980355 -0.45978469
v 0.15168136 -0.87628168 0.40965495
v 0.14010033 -0.87275589 0.37620404
v 0.05406135 -0.41554165 -0.30908504
v 0.05396928 -0.41536897 -0.30906954
v 0.05403135 -0.41554165 -0.30909505
v 0.28539702 -0.64944577 -0.46338946
v 0.08035102 -0.64029658 0.47437093
v 0.05012135 -0.41554165 -0.31027505
v 0.05793135 -0.41944164 -0.30910504
v 0.22946753 -0.42925909 0.33997127
v -0.07301365 -0.51129746 -0.42031696
v 0.14817391 -0.91312879 0.25874028
v 0.11653135 -0.92826164 0.21043497
v 0.10871050 -0.92728132 0.21434616
v 0.43686661 -0.89994222 0.39401120
v 0.11785895 -0.92953664 0.20462649
v 0.10871135 -0.92726165 0.21440496
v 0.11262135 -0.92726165 0.21443497
v 0.14508407 -0.88417363 0.29380256
v 0.11262135 -0.92729163 0.21434496
v 0.15558136 -0.88038164 0.41356495
v 0.15152301 -0.87620747 0.40926743
v 0.13641070 -0.83463728 0.45956224
v 0.11653188 -0.92726386 0.21447173
v 0.02664700 -0.94052964 0.15626074
v 0.09720683 -0.92726082 0.21430239
v 0.37825114 -0.75928795 -0.40673527
v 0.09315127 -0.95378137 0.11485901
v 0.17143333 -0.89982617 0.28662798
v 0.11653135 -0.92730165 0.21434496
v 0.19045176 -0.90681928 0.44682035
v 0.15182135 -0.87648165 0.40965495
v 0.08193197 -0.17066574 0.27350420
v 0.18673521 -0.90773892 0.28857550
v 0.11072775 -0.46143615 -0.30638504
v 0.15048893 -0.20135120 0.23140155
v 0.15162975 -0.20067833 0.22996522
v 0.15829135 -0.88429165 0.41356495
v 0.15171310 -0.20074058 0.22995405
v 0.15559135 -0.19679166 0.22400495
v 0.13695203 -0.17688517 0.21510442
v 0.15168136 -0.20069166 0.22996496
v 0.15168136 -0.19679166 0.22606497
v 0.15168650 -0.19679162 0.22606474
v 0.00824095 0.41966319 -0.58112448
v 0.26887134 -0.91075164 0.47215495
v 0.17105488 -0.89993775 0.28861973
v 0.17121135 -0.90001166 0.28856495
v 0.17006347 -0.20711672 0.22458573
v 0.24153136 0.19382834 -0.47710505
v 0.24793743 -0.95547527 0.38145325
v 0.18158309 -0.83257341 0.52997226
v 0.37399948 -0.75517225 -0.40679717
v 0.23409541 -0.94335437 -0.01285252
v 0.26890627 -0.91164887 0.14397386
v 0.26488146 -0.91157246 0.14806999
v 0.26887134 -0.90773165 0.47609496
v 0.26887134 -0.90775168 0.47606495
v 0.22571653 -0.90812171 0.20901732
v 0.11175553 0.48643231 0.32873917
v 0.23371135 0.18607835 -0.47705504
v 0.23764136 0.18991835 -0.47705504
v 0.23762134 0.18991835 -0.47705504
v 0.47979948 -0.88429165 -0.47700974
v 0.48036116 -0.88442820 -0.47655758
v 0.17924751 0.17555830 -0.49080810
v 0.24236009 0.19448131 -0.47706631
v 0.23762134 0.18989834 -0.47705504
v 0.24153136 0.18991835 -0.47582504
v 0.26731589 -0.89885402 0.48734379
v 0.41397479 -0.92688370 0.38702700
v 0.42765325 -0.87244105 0.19034788
v 0.25570291 -0.92966753 0.44618690
v 0.27278134 -0.90773165 0.47612494
v 0.27292633 -0.90778404 0.47604305
v 0.27668133 -0.90468162 0.47996494
v 0.27278134 -0.90777165 0.47606495
v 0.31852317 -0.73527747 -0.41603446
v 0.30902934 -0.89545953 0.17187506
v 0.20000972 -0.48674908 -0.29005897
v 0.22011992 -0.19511612 -0.07147982
v 0.32746133 -0.26710165 -0.03556504
v 0.24543668 0.17291541 -0.46894374
v 0.24010424 0.20479485 -0.48127437
v 0.26496133 -0.91163164 0.14768495
v 0.25988901 -0.91310698 0.14528409
v 0.26887134 -0.91163164 0.14407495
v 0.31308800 -0.25557083 -0.03678619
v 0.20988613 -0.58861911 -0.36959222
v 0.31578076 -0.45871329 -0.12949935
v 0.31575134 -0.45851165 -0.12933505
v 0.37434134 -0.75538164 -0.40664506
v 0.31164268 0.08842025 0.31845734
v 0.31965134 0.08835834 0.31590495
v 0.31965134 0.09226834 0.31588495
v 0.31959134 0.09226834 0.31590495
v 0.31964135 0.08835834 0.31590495
v 0.33963659 -0.89168155 0.48733664
v 0.31577730 -0.53668970 -0.34034726
v 0.31575134 -0.53661168 -0.34033504
v 0.31184134 -0.53273165 -0.34129503
v 0.30300075 -0.43599811 -0.13079008
v 0.31965134 -0.53647166 -0.33642504
v 0.32084259 -0.53748184 -0.33592391
v 0.32356134 -0.53663164 -0.33276504
v 0.31965134 -0.53663164 -0.33653504
v 0.29753283 -0.55169195 -0.36822516
v 0.31576136 -0.53663164 -0.34033504
v 0.33542135 -0.26710165 -0.03174504
v 0.33528134 -0.26695165 -0.03174504
v 0.33528134 -0.26319164 -0.02993504
v 0.27255791 -0.49250707 -0.31220338
v 0.26693031 -0.15947077 0.05443734
v 0.32140613 -0.47450835 -0.13494751
v 0.31334743 -0.44198534 -0.11684853
v 0.31571135 -0.45851165 -0.12939505
v 0.31565839 -0.45455480 -0.12541419
v 0.32746133 -0.26319164 -0.03369504
v 0.33146167 -0.26317772 -0.03176916
v 0.31585413 -0.45415381 -0.12460978
v 0.29359752 -0.33887646 -0.06727660
v 0.40753448 -0.39561889 0.27566653
v 0.33918133 -0.27087164 -0.03174504
v 0.31954134 0.09616834 0.31590495
v 0.52629715 -0.82869363 -0.29693699
v 0.25816035 0.50809461 -0.49433589
v 0.38154545 -0.74741328 -0.38635120
v 0.36659309 -0.60308397 -0.19947059
v 0.36653134 -0.60324168 -0.19970503
v 0.37817454 -0.75257832 -0.39782503
v 0.38217086 -0.76318818 -0.40676096
v 0.32169074 0.23194280 0.31483552
v 0.37724134 -0.75538164 -0.40283504
v 0.37825134 -0.74757165 -0.39082503
v 0.36648133 -0.60694164 -0.20361502
v 0.36636651 -0.60219568 -0.19883694
v 0.38207000 -0.56839955 -0.29795355
v 0.36961135 -0.61085165 -0.20361502
v 0.36653134 -0.60694164 -0.20355503
v 0.36653134 -0.60700166 -0.20361502
v 0.31958967 0.09675872 0.31588987
v 0.32523784 0.18727699 -0.44546434
v 0.33137134 -0.26319164 -0.03181504
v 0.33528134 -0.26710165 -0.03181504
v 0.31575134 -0.45479167 -0.12549505
v 0.38215134 -0.75148165 -0.39102504
v 0.31965134 0.08723834 0.31590495
v 0.39415094 -0.64723808 -0.20788430
v 0.43235773 -0.36106578 0.27754590
v 0.40421963 -0.00481025 0.28260359
v 0.32920763 0.07652825 0.31294447
v 0.37825134 -0.66163164 -0.24649505
v 0.37825134 -0.65794164 -0.24267504
v 0.37808135 -0.65773165 -0.24267504
v 0.38095236 -0.65776426 -0.23876788
v 0.37292305 -0.73741376 -0.38294911
v 0.37825134 -0.75928164 -0.40674505
v 0.37434134 -0.75545168 -0.40674505
v 0.37825289 -0.75930083 -0.40675977
v 0.37781674 -0.65694404 -0.24220283
v 0.35565066 -0.61789143 -0.33606783
v 0.40088734 -0.77269977 -0.39462733
v 0.37825134 -0.74499166 -0.38720503
v 0.37334880 -0.66654110 -0.34722877
v 0.37179133 -0.64991164 -0.34424505
v 0.35424522 -0.64805287 -0.26402530
v 0.38752681 -0.72419548 -0.30129007
v 0.37428135 -0.64991164 -0.34033504
v 0.37824455 -0.66164476 -0.24651580
v 0.37434411 -0.64599752 -0.33637685
v 0.37434134 -0.64604163 -0.33642504
v 0.36346135 -0.60694164 -0.20752504
v 0.37434134 -0.64991164 -0.34023505
v 0.37445667 -0.65014553 -0.34027976
v 0.39982638 -0.64117557 -0.29504803
v 0.43202135 -0.36085165 0.27684495
v 0.42902371 -0.36085412 0.27294034
v 0.43580809 -0.52972710 -0.13646868
v 0.48947203 0.70088708 0.13807221
v 0.47609609 0.16412239 -0.36645436
v 0.46227390 0.79535639 -0.21303089
v 0.46806464 -0.88430619 -0.49272662
v 0.37419868 -0.64577109 -0.33637360
v 0.38704887 -0.73757648 -0.36578581
v 0.38338965 -0.75231028 -0.39051875
v 0.43846342 -0.87858117 0.42001870
v 0.42512134 -0.36178166 0.26903495
v 0.33415258 -0.45610824 0.17278928
v 0.43293133 -0.35694164 0.27295494
v 0.42903134 -0.36085165 0.27294496
v 0.42903072 -0.36082500 0.27291748
v 0.43292135 -0.35694164 0.27293494
v 0.55793136 -0.86086166 -0.32080504
v 0.55791461 -0.86084938 -0.32079357
v 0.38752800 -0.54710025 -0.19296007
v 0.45402199 -0.41306555 0.34563634
v 0.45629135 0.31882834 -0.38720503
v 0.45632136 0.32272834 -0.38720503
v 0.27936590 0.81447846 0.11265574
v 0.48914596 -0.87198782 0.34570000
v 0.43651134 -0.35694164 0.27684495
v 0.43293133 -0.35396165 0.26903495
v 0.43297768 -0.35692465 0.27299690
v 0.38185763 -0.26001093 -0.00307419
v 0.42989498 -0.30849332 0.21856627
v 0.45637134 0.32272834 -0.38717505
v 0.42236546 0.34190619 -0.41336551
v 0.46028134 0.32663834 -0.38448504
v 0.45637134 0.32663834 -0.38719505
v 0.45635870 0.32663834 -0.38720110
v 0.44308922 -0.82557362 -0.29838249
v 0.55873555 -0.86451125 -0.32798067
v 0.44973308 -0.34490755 0.27573133
v 0.48400831 -0.46916696 -0.00331060
v 0.52659678 -0.52506530 0.29843700
v 0.45223036 -0.24211074 0.09421228
v 0.56184137 -0.86489165 -0.32470503
v 0.45574892 0.33056098 -0.38766399
v 0.54161990 -0.13338456 0.08778606
v 0.56184137 -0.86144167 -0.31689504
v 0.56173754 -0.86482763 -0.32469314
v 0.48417234 -0.37676218 0.34029138
v 0.59538901 -0.09600339 -0.10276222
v 0.45117989 0.84693635 -0.02947657
v 0.57154894 -0.86857897 -0.32010698
v 0.54043680 -0.84153599 -0.30091557
v 0.57391566 -0.84994036 -0.22445703
v 0.54006630 -0.62360823 0.43235680
v 0.48220113 -0.70605028 -0.16419850
v 0.56183964 -0.04062255 0.15572901
v 0.56575137 -0.03678166 0.15575495
v 0.56184137 -0.04054166 0.15576497
v 0.56766045 -0.03576507 0.15516527
v 0.57363898 -0.33842382 0.26015574
v 0.65916854 0.13615109 0.18741113
v 0.56575137 -0.03663166 0.15584496
v 0.63566035 -0.46679875 0.30469650
v 0.60373771 0.16219088 -0.27883816
v 0.61446184 -0.43903285 0.30033612
v 0.56373137 -0.03273166 0.15965497
v 0.55105066 0.47630584 0.22091378
v 0.52936941 -0.90695089 -0.46052366
v 0.61653137 -0.40773165 0.27302495
v 0.62233549 -0.41358665 0.27311683
v 0.71113676 0.31446007 -0.17164278
v 0.62073398 0.63754046 0.05053873
v 0.63512808 -0.97504735 -0.47966239
v 0.50334686 0.32724771 -0.35541740
v 0.61653137 -0.40278167 0.26903495
v 0.61269140 -0.40382165 0.27293494
v 0.62043136 -0.40773165 0.26990494
v 0.62043136 -0.41147166 0.27293494
v 0.62043136 -0.41163164 0.27306494
v 0.61664140 -0.40773165 0.27293494
v 0.61245793 -0.40359953 0.27294412
v 0.61653137 -0.40761164 0.27293494
v 0.62674451 -0.40387303 0.25773770
v 0.62780100 0.60477835 0.04296847
v 0.62819135 0.61179835 0.04246496
v 0.73102283 0.57677168 0.17175505
v 0.62822139 0.60788834 0.04246496
v 0.62816137 0.61569834 0.04246496
v 0.62839180 0.61963552 0.04218882
v 0.62825137 0.60788834 0.04244496
v 0.62825137 0.61179835 0.04240496
v 0.67113137 0.17819835 -0.21142504
v 0.76260704 0.07562795 -0.02648349
v 0.66345137 -0.45460165 0.24559496
v 0.66345137 -0.45069164 0.24168497
v 0.69873345 -0.51185447 0.15506533
v 0.68199772 0.24827124 -0.21112570
v 0.66339284 0.17819378 -0.21924783
v 0.66731137 0.17826834 -0.21533503
v 0.66729218 0.17819908 -0.21533450
v 0.66340137 0.17819835 -0.21924505
v 0.66638136 0.17429835 -0.21533503
v 0.66341138 0.17819835 -0.21924505
v 0.66731137 0.18210834 -0.21624503
v 0.63215137 0.61179835 0.03804496
v 0.67837125 0.62206286 -0.02209672
v 0.66192138 -0.45069164 0.24559496
v 0.66340137 -0.45460165 0.24570496
v 0.66340137 -0.45848164 0.24950495
v 0.66340137 -0.45069164 0.24180496
v 0.66340137 -0.45448166 0.24559496
v 0.65577912 -0.41669142 0.22527653
v 0.67024136 0.17429835 -0.21142504
v 0.67136949 0.17852007 -0.21124040
v 0.67076182 0.16149989 -0.20785145
v 0.70242149 0.41603658 -0.12193190
v 0.69854176 0.42421949 -0.12556976
v 0.70248139 0.42038834 -0.11767504
v 0.70247245 0.42038849 -0.11769721
v 0.70385140 0.42038834 -0.11377504
v 0.70776278 0.41193363 -0.11049931
v 0.70114136 0.42038834 -0.12158504
v 0.69856137 0.42850834 -0.12158504
v 0.69865137 0.42819834 -0.12158504
v 0.69856137 0.42423835 -0.12549505
v 0.70246136 0.41647834 -0.12138504
v 0.61786801 0.55451453 0.06000448
v 0.70139796 0.44663119 -0.08912363
v 0.66061503 0.57030135 -0.19571707
v 0.69935077 0.42971015 -0.11795530
v 0.69764817 0.43240619 -0.12090109
v 0.64940816 0.88393259 -0.10458001
v 0.70374137 0.41647834 -0.11767504
v 0.75429672 0.33619142 0.02731154
v 0.69856137 0.42819834 -0.12184504
v 0.69856137 0.42429835 -0.12543504
f 1 31 23
f 23 200 1
f 3 1 200
f 3 6 7
f 49 22 2
f 2 158 49
f 7 5 13
f 6 5 7
f 14 10 15
f 14 4 10
f 17 13 16
f 7 13 17
f 13 18 16
f 18 5 6
f 3 18 6
f 31 1 8
f 18 3 16
f 5 18 13
f 17 8 7
f 16 31 8
f 8 1 3
f 8 17 16
f 3 7 8
f 16 3 200
f 34 185 9
f 4 14 12
f 14 15 11
f 66 2 12
f 158 2 66
f 66 12 19
f 4 12 2
f 26 24 49
f 19 12 11
f 19 15 10
f 19 11 15
f 4 22 19
f 12 14 11
f 22 66 19
f 4 19 10
f 2 22 4
f 57 20 21
f 9 185 151
f 82 29 88
f 31 25 23
f 319 9 151
f 89 26 37
f 40 26 49
f 27 55 41
f 26 89 24
f 43 44 45
f 44 46 45
f 46 43 45
f 46 44 43
f 47 36 48
f 36 47 35
f 50 46 42
f 36 70 48
f 35 70 36
f 49 158 116
f 43 58 45
f 60 61 63
f 22 49 111
f 62 45 40
f 16 200 31
f 64 92 25
f 34 65 114
f 67 68 69
f 70 52 48
f 26 107 37
f 68 75 35
f 74 73 51
f 89 74 51
f 37 75 67
f 75 68 67
f 73 74 76
f 74 67 76
f 67 74 73
f 77 78 79
f 78 53 79
f 53 78 77
f 28 116 71
f 76 52 51
f 89 37 72
f 42 62 49
f 52 47 48
f 58 40 45
f 46 80 44
f 80 81 44
f 81 46 44
f 26 40 28
f 50 80 46
f 58 81 28
f 116 82 27
f 116 42 49
f 49 62 40
f 43 46 58
f 42 43 62
f 46 81 58
f 50 38 80
f 80 38 81
f 38 28 81
f 62 43 45
f 40 58 28
f 42 38 50
f 42 46 43
f 21 32 57
f 30 82 32
f 22 190 66
f 84 86 87
f 30 103 84
f 88 87 85
f 32 103 30
f 87 20 85
f 20 57 85
f 103 86 84
f 30 84 29
f 32 21 103
f 85 57 88
f 51 52 89
f 87 88 103
f 139 22 111
f 103 84 87
f 111 49 31
f 24 31 49
f 60 96 93
f 64 25 95
f 25 108 95
f 95 108 63
f 61 63 97
f 98 61 97
f 98 63 61
f 95 63 98
f 96 63 108
f 60 63 96
f 95 98 64
f 94 96 108
f 99 61 59
f 98 97 64
f 96 94 93
f 63 99 92
f 99 63 61
f 63 92 97
f 92 64 97
f 94 108 59
f 100 92 99
f 23 25 59
f 93 94 59
f 61 93 59
f 93 61 60
f 99 59 100
f 100 25 92
f 59 25 100
f 76 47 52
f 47 76 69
f 72 74 89
f 47 68 35
f 114 65 105
f 9 127 34
f 114 185 34
f 26 28 107
f 42 116 38
f 107 75 37
f 67 69 76
f 68 47 69
f 35 75 70
f 27 71 116
f 73 74 72
f 41 77 39
f 75 107 70
f 82 30 29
f 73 76 51
f 73 37 67
f 72 37 73
f 27 56 55
f 39 77 79
f 77 55 56
f 53 77 91
f 78 55 77
f 78 77 41
f 55 78 41
f 53 54 79
f 53 91 54
f 39 27 41
f 56 82 91
f 79 54 39
f 27 82 56
f 71 27 39
f 56 91 77
f 91 82 71
f 71 39 54
f 91 71 54
f 21 86 103
f 84 103 29
f 66 190 158
f 29 103 88
f 86 20 87
f 86 21 20
f 109 110 90
f 59 108 23
f 108 25 31
f 127 33 34
f 104 65 112
f 101 90 102
f 110 102 90
f 113 90 101
f 109 90 113
f 102 104 101
f 105 65 109
f 104 110 109
f 102 110 104
f 105 109 113
f 113 101 105
f 65 104 109
f 105 101 112
f 105 112 114
f 70 89 52
f 82 116 32
f 89 70 115
f 117 118 119
f 120 118 117
f 121 111 167
f 122 123 124
f 107 126 135
f 65 34 112
f 34 33 258
f 112 134 114
f 101 104 112
f 122 126 123
f 129 187 128
f 107 28 83
f 28 38 116
f 115 70 107
f 125 129 128
f 132 119 157
f 121 136 137
f 22 139 190
f 122 135 126
f 139 111 121
f 139 121 137
f 146 141 179
f 125 124 129
f 126 187 123
f 185 213 151
f 131 107 298
f 82 88 423
f 126 107 187
f 125 128 130
f 135 152 125
f 135 125 130
f 122 152 135
f 130 128 187
f 115 107 131
f 107 135 130
f 125 152 124
f 152 122 124
f 186 132 157
f 107 83 187
f 124 123 129
f 123 187 129
f 88 57 32
f 83 28 220
f 106 186 71
f 71 220 28
f 24 115 131
f 186 106 132
f 156 150 147
f 82 423 71
f 132 118 119
f 117 119 159
f 167 139 163
f 162 164 136
f 161 162 136
f 161 164 162
f 162 161 138
f 164 161 139
f 163 139 161
f 136 164 137
f 298 107 130
f 121 167 138
f 167 163 138
f 163 162 138
f 161 162 163
f 161 136 121
f 121 138 161
f 164 139 137
f 166 156 147
f 169 141 170
f 157 133 186
f 31 24 145
f 160 142 171
f 170 141 142
f 174 171 168
f 175 174 168
f 170 142 176
f 176 144 170
f 176 143 144
f 31 141 111
f 143 177 178
f 178 169 170
f 141 31 179
f 168 141 146
f 175 168 146
f 181 171 174
f 166 149 184
f 182 183 243
f 142 141 171
f 180 145 165
f 194 108 31
f 181 179 196
f 23 108 194
f 150 33 140
f 117 159 120
f 159 154 120
f 71 423 255
f 118 120 157
f 298 130 187
f 119 118 159
f 157 120 133
f 71 186 220
f 120 154 133
f 118 132 159
f 132 154 159
f 119 118 157
f 106 133 154
f 255 106 71
f 154 132 106
f 186 133 220
f 83 191 192
f 191 193 192
f 190 139 167
f 140 33 149
f 144 178 170
f 179 175 146
f 172 173 195
f 180 194 145
f 143 176 142
f 160 143 142
f 165 145 173
f 111 141 169
f 180 165 172
f 150 184 258
f 160 111 169
f 177 160 169
f 143 160 177
f 194 180 182
f 243 194 182
f 172 198 199
f 198 180 199
f 180 172 199
f 198 182 180
f 144 143 178
f 178 177 169
f 181 196 171
f 165 173 172
f 173 145 197
f 197 145 24
f 181 175 179
f 198 199 182
f 199 198 195
f 196 160 171
f 171 141 168
f 181 174 175
f 174 171 181
f 174 181 171
f 243 183 197
f 33 150 258
f 166 184 156
f 147 148 166
f 148 149 166
f 34 200 134
f 147 140 148
f 140 149 148
f 150 156 184
f 149 33 127
f 34 258 200
f 147 150 140
f 133 106 255
f 158 88 32
f 32 116 158
f 204 205 206
f 206 191 83
f 207 191 206
f 155 131 208
f 187 244 298
f 209 219 210
f 211 209 210
f 133 255 220
f 195 198 172
f 88 158 423
f 243 197 24
f 199 183 182
f 195 183 199
f 195 197 183
f 195 173 197
f 194 31 145
f 196 167 160
f 179 200 196
f 200 23 194
f 185 114 134
f 149 258 184
f 34 134 112
f 258 149 127
f 9 457 127
f 185 134 213
f 213 225 151
f 215 271 247
f 193 217 192
f 218 192 217
f 209 188 219
f 83 220 153
f 83 244 187
f 155 232 131
f 200 179 31
f 243 285 194
f 221 153 222
f 319 457 9
f 223 201 224
f 223 202 201
f 224 262 249
f 249 262 293
f 221 204 206
f 83 221 206
f 207 227 191
f 210 229 219
f 192 211 230
f 211 192 218
f 193 191 227
f 231 239 228
f 232 231 228
f 244 210 226
f 210 244 229
f 153 236 233
f 204 222 205
f 193 227 233
f 236 216 233
f 230 211 210
f 219 230 210
f 219 212 226
f 230 229 244
f 234 207 205
f 236 212 218
f 207 206 205
f 209 211 235
f 216 236 218
f 217 216 218
f 193 216 217
f 193 233 216
f 234 222 153
f 83 192 230
f 226 210 219
f 235 212 188
f 212 235 218
f 244 83 230
f 229 230 219
f 155 237 232
f 237 155 232
f 237 232 155
f 252 228 239
f 237 238 231
f 238 237 208
f 239 231 238
f 208 237 155
f 131 298 252
f 232 228 252
f 237 231 232
f 24 232 252
f 298 245 24
f 399 24 245
f 225 202 249
f 248 225 213
f 250 267 272
f 207 234 227
f 234 233 227
f 244 226 212
f 233 234 153
f 222 234 205
f 235 188 209
f 211 218 235
f 212 219 188
f 204 221 222
f 83 153 221
f 239 238 208
f 322 281 253
f 190 254 385
f 190 167 351
f 167 196 200
f 111 160 167
f 259 260 261
f 201 256 224
f 215 247 246
f 225 249 293
f 201 202 256
f 202 248 256
f 224 256 262
f 248 262 256
f 265 246 294
f 202 225 248
f 249 223 224
f 249 202 223
f 214 265 294
f 246 247 294
f 268 269 270
f 262 246 293
f 151 225 267
f 225 293 267
f 274 268 273
f 250 272 269
f 268 250 269
f 270 266 275
f 269 266 270
f 269 272 266
f 275 276 273
f 252 208 131
f 236 322 212
f 322 244 212
f 253 279 322
f 24 252 298
f 24 131 232
f 208 252 239
f 280 253 281
f 254 190 351
f 423 158 190
f 24 399 243
f 286 284 287
f 286 288 313
f 246 271 215
f 134 263 213
f 215 246 265
f 262 271 246
f 213 263 248
f 271 262 247
f 262 248 247
f 248 263 294
f 214 215 265
f 246 215 214
f 246 214 293
f 275 272 276
f 275 266 272
f 274 273 276
f 267 250 274
f 151 274 251
f 151 267 274
f 267 293 276
f 272 267 276
f 268 270 273
f 270 275 273
f 250 268 274
f 319 151 295
f 253 296 297
f 296 280 297
f 280 296 253
f 236 153 322
f 244 322 303
f 303 301 253
f 89 115 24
f 309 304 302
f 253 301 296
f 301 279 296
f 279 253 296
f 305 306 307
f 329 282 283
f 282 306 305
f 282 329 306
f 306 308 307
f 308 399 307
f 283 304 245
f 309 245 304
f 329 308 306
f 309 302 307
f 304 305 302
f 283 305 304
f 305 283 282
f 399 245 309
f 302 305 307
f 399 309 307
f 329 283 245
f 310 311 288
f 286 310 288
f 287 284 311
f 287 310 286
f 310 287 311
f 313 288 260
f 288 311 260
f 313 260 259
f 243 284 257
f 350 257 313
f 243 257 285
f 200 194 285
f 200 285 134
f 127 353 258
f 134 292 263
f 353 127 457
f 314 315 290
f 315 316 290
f 315 314 316
f 264 316 263
f 292 290 317
f 290 318 317
f 318 264 317
f 314 290 292
f 264 292 317
f 314 289 263
f 318 316 264
f 318 290 316
f 316 314 263
f 264 263 292
f 248 294 247
f 214 294 293
f 293 251 274
f 291 293 294
f 293 274 276
f 390 320 321
f 242 323 395
f 300 279 301
f 322 279 300
f 322 300 303
f 281 297 280
f 303 297 281
f 300 301 303
f 253 297 303
f 427 324 325
f 326 324 427
f 303 281 298
f 298 244 303
f 153 220 322
f 284 243 312
f 327 261 312
f 385 423 190
f 286 313 257
f 308 329 399
f 312 350 327
f 286 257 284
f 200 351 167
f 350 331 327
f 331 261 327
f 331 259 261
f 331 313 259
f 350 313 331
f 261 260 312
f 257 350 285
f 134 285 404
f 314 315 332
f 315 333 332
f 289 314 332
f 315 314 333
f 291 292 134
f 314 292 333
f 332 333 289
f 333 292 291
f 333 291 289
f 294 263 291
f 291 263 289
f 291 472 293
f 295 151 251
f 336 337 338
f 299 322 220
f 281 322 330
f 380 348 298
f 342 343 373
f 344 343 342
f 254 362 385
f 329 245 298
f 349 328 345
f 380 329 346
f 349 345 341
f 346 349 341
f 329 298 328
f 345 347 341
f 345 328 347
f 346 329 349
f 329 328 349
f 380 347 348
f 380 346 341
f 328 298 348
f 347 328 348
f 341 347 380
f 312 311 284
f 243 399 422
f 351 200 355
f 311 312 260
f 258 353 392
f 472 334 134
f 291 134 334
f 334 354 291
f 472 251 293
f 342 373 379
f 299 357 376
f 330 298 281
f 299 220 381
f 299 358 357
f 339 359 337
f 338 361 362
f 336 340 361
f 338 336 361
f 340 359 339
f 336 254 337
f 254 336 363
f 363 362 254
f 339 254 340
f 254 351 369
f 376 322 299
f 380 298 419
f 254 339 337
f 364 334 352
f 362 361 340
f 363 338 362
f 363 336 338
f 359 336 338
f 336 359 340
f 337 359 338
f 365 366 379
f 366 365 367
f 329 380 399
f 356 360 368
f 243 422 312
f 373 343 372
f 354 374 375
f 334 472 352
f 352 291 371
f 374 354 364
f 354 334 364
f 371 354 375
f 354 371 291
f 374 364 375
f 364 352 371
f 364 371 375
f 434 414 377
f 378 365 379
f 378 367 365
f 373 372 379
f 376 379 322
f 357 358 378
f 366 344 342
f 366 367 344
f 376 357 378
f 366 342 379
f 322 379 330
f 343 344 381
f 367 358 344
f 362 340 369
f 369 340 254
f 381 358 299
f 358 381 344
f 388 320 437
f 368 360 389
f 391 390 321
f 200 392 355
f 285 312 422
f 134 404 472
f 291 352 472
f 324 396 325
f 379 437 330
f 391 397 387
f 397 391 321
f 390 391 387
f 397 388 387
f 388 397 321
f 390 370 320
f 370 381 320
f 379 370 437
f 370 372 381
f 343 381 372
f 372 370 379
f 298 330 419
f 376 378 379
f 378 358 367
f 386 356 368
f 393 384 383
f 393 356 386
f 384 368 398
f 393 386 384
f 384 386 368
f 393 369 356
f 399 380 419
f 387 437 370
f 384 398 383
f 385 362 369
f 383 398 389
f 398 368 389
f 389 360 382
f 382 393 383
f 389 382 383
f 360 393 382
f 390 387 370
f 388 437 387
f 220 255 466
f 330 437 401
f 399 419 422
f 326 427 400
f 427 325 400
f 437 320 440
f 440 320 381
f 220 440 381
f 255 369 393
f 255 356 369
f 255 423 356
f 393 360 423
f 255 393 423
f 423 360 356
f 447 355 403
f 405 402 447
f 405 406 402
f 445 285 422
f 258 392 200
f 440 220 466
f 440 401 437
f 277 464 413
f 330 401 419
f 501 255 423
f 416 415 417
f 312 285 350
f 406 415 402
f 403 421 405
f 420 417 415
f 402 415 416
f 403 355 421
f 421 420 415
f 403 405 447
f 420 355 407
f 355 420 421
f 417 420 416
f 405 421 406
f 416 407 402
f 447 402 407
f 420 407 416
f 421 417 406
f 417 415 406
f 415 417 421
f 355 392 407
f 440 438 401
f 426 428 425
f 424 429 430
f 432 426 425
f 432 429 426
f 433 377 277
f 369 351 418
f 369 393 385
f 385 501 423
f 492 355 447
f 445 404 285
f 295 538 457
f 295 457 319
f 464 435 413
f 436 428 424
f 430 436 424
f 426 440 428
f 430 442 436
f 442 425 436
f 438 426 401
f 425 428 436
f 424 401 429
f 438 440 426
f 430 429 432
f 426 429 401
f 440 424 428
f 430 432 442
f 432 425 442
f 434 435 414
f 255 501 623
f 419 401 431
f 388 321 320
f 377 433 444
f 351 355 492
f 407 392 447
f 593 295 251
f 472 611 251
f 277 450 443
f 424 431 401
f 450 277 377
f 414 450 377
f 431 424 189
f 444 433 413
f 433 277 413
f 414 443 450
f 419 431 414
f 464 419 435
f 369 418 393
f 492 447 392
f 449 453 448
f 449 454 455
f 445 448 453
f 454 449 451
f 456 452 455
f 448 445 461
f 451 448 461
f 455 454 456
f 449 448 451
f 452 461 453
f 456 454 451
f 478 353 457
f 189 471 241
f 459 460 446
f 460 241 446
f 441 189 241
f 431 459 240
f 459 446 240
f 463 240 241
f 413 434 444
f 471 189 424
f 431 189 459
f 459 441 460
f 189 441 459
f 240 446 241
f 460 441 241
f 431 240 463
f 413 435 434
f 377 444 434
f 464 277 443
f 393 418 385
f 501 385 418
f 351 492 418
f 493 392 353
f 449 455 453
f 452 453 455
f 445 600 461
f 525 461 600
f 461 452 456
f 461 456 451
f 525 453 461
f 445 453 525
f 496 479 462
f 463 443 431
f 467 409 408
f 469 394 470
f 445 562 404
f 562 445 525
f 474 462 479
f 462 474 475
f 480 474 481
f 474 480 475
f 464 443 485
f 542 411 597
f 485 443 463
f 394 458 470
f 486 487 488
f 486 489 487
f 489 469 470
f 524 418 492
f 422 600 445
f 492 392 493
f 495 478 473
f 478 496 462
f 478 495 353
f 475 478 462
f 474 479 481
f 495 480 481
f 495 473 480
f 473 475 480
f 473 478 475
f 481 554 495
f 496 478 457
f 479 496 554
f 554 481 479
f 489 470 458
f 409 467 466
f 499 467 408
f 498 468 471
f 409 466 491
f 409 491 408
f 497 467 499
f 467 497 498
f 469 486 482
f 489 486 469
f 394 469 482
f 458 485 487
f 464 485 394
f 394 482 464
f 485 458 394
f 488 510 482
f 489 458 487
f 482 486 488
f 488 487 510
f 510 464 482
f 395 323 476
f 496 457 554
f 457 496 554
f 255 623 466
f 502 503 532
f 468 491 471
f 496 457 554
f 554 353 495
f 506 507 508
f 509 506 508
f 554 457 538
f 538 295 593
f 463 484 485
f 510 487 485
f 468 499 408
f 491 468 408
f 498 497 468
f 468 497 499
f 464 640 419
f 501 579 490
f 512 511 513
f 553 563 544
f 516 515 517
f 516 511 518
f 513 511 519
f 511 520 518
f 418 607 501
f 524 513 519
f 524 512 513
f 419 640 422
f 521 522 523
f 518 515 516
f 519 418 524
f 526 514 502
f 467 498 466
f 530 500 531
f 528 502 514
f 526 492 514
f 492 493 514
f 493 590 527
f 529 528 514
f 527 514 493
f 514 527 529
f 533 493 500
f 500 525 616
f 525 500 493
f 525 493 631
f 505 536 553
f 472 404 544
f 544 404 505
f 484 510 485
f 396 427 612
f 491 484 471
f 540 541 548
f 435 419 414
f 545 504 465
f 507 506 563
f 410 546 411
f 508 507 536
f 517 515 524
f 547 548 541
f 418 519 549
f 586 587 582
f 607 418 573
f 550 551 540
f 551 550 552
f 517 524 549
f 520 512 515
f 519 516 549
f 518 520 515
f 519 511 516
f 511 512 520
f 512 524 515
f 549 516 517
f 616 535 521
f 590 549 524
f 494 530 555
f 530 494 500
f 533 494 556
f 557 529 532
f 597 411 558
f 559 506 563
f 559 563 506
f 492 526 524
f 528 529 557
f 503 557 532
f 528 557 503
f 526 590 524
f 424 440 466
f 532 527 590
f 522 531 523
f 531 522 555
f 531 500 523
f 590 526 532
f 503 502 528
f 526 502 532
f 527 532 529
f 494 555 531
f 555 556 531
f 556 494 531
f 590 533 600
f 590 493 533
f 616 521 523
f 522 521 556
f 556 521 535
f 533 556 535
f 525 600 617
f 522 556 555
f 500 616 523
f 505 563 559
f 616 533 535
f 509 505 559
f 530 531 555
f 500 494 533
f 506 559 563
f 559 506 509
f 505 508 536
f 505 509 508
f 505 553 544
f 592 353 554
f 505 404 563
f 553 507 563
f 536 507 553
f 563 404 562
f 562 544 563
f 564 565 567
f 564 566 565
f 541 540 551
f 491 466 484
f 484 483 510
f 552 547 551
f 569 571 570
f 551 547 541
f 463 241 471
f 542 465 490
f 431 443 414
f 545 439 504
f 570 465 504
f 335 490 412
f 411 546 558
f 464 510 640
f 546 575 539
f 490 465 412
f 571 465 570
f 410 568 575
f 539 410 546
f 571 412 465
f 558 539 596
f 539 558 410
f 568 410 490
f 542 439 545
f 542 545 465
f 410 575 546
f 539 568 596
f 575 568 539
f 490 579 568
f 571 569 439
f 573 577 595
f 577 580 595
f 578 572 581
f 585 586 582
f 581 579 578
f 576 577 573
f 573 418 576
f 581 572 566
f 560 550 540
f 579 501 578
f 548 560 540
f 560 548 607
f 584 547 552
f 578 584 552
f 547 584 548
f 422 627 600
f 561 588 589
f 616 626 533
f 616 525 628
f 525 617 628
f 538 592 554
f 472 544 647
f 324 427 396
f 543 571 439
f 427 324 278
f 325 396 400
f 596 568 579
f 578 560 572
f 490 410 411
f 595 582 587
f 543 439 574
f 565 572 567
f 572 565 566
f 558 546 410
f 574 412 543
f 504 569 570
f 569 504 439
f 574 439 542
f 586 577 576
f 574 542 597
f 543 412 571
f 585 580 586
f 542 490 411
f 597 596 574
f 597 558 596
f 574 596 641
f 582 595 583
f 583 580 585
f 641 596 579
f 579 581 567
f 576 418 641
f 552 550 578
f 550 560 578
f 641 587 576
f 595 587 573
f 581 564 567
f 564 581 566
f 607 548 584
f 577 586 580
f 583 585 582
f 583 595 580
f 576 587 586
f 579 567 560
f 567 572 560
f 573 587 607
f 607 584 578
f 501 607 578
f 607 641 560
f 623 484 466
f 617 534 599
f 601 602 603
f 590 600 626
f 601 604 602
f 600 533 626
f 544 562 647
f 538 619 592
f 609 619 610
f 636 593 251
f 251 611 636
f 477 323 654
f 483 427 278
f 278 598 483
f 598 278 326
f 598 326 400
f 594 242 395
f 477 594 476
f 324 326 278
f 598 510 483
f 640 510 598
f 498 424 466
f 490 639 641
f 501 490 641
f 412 574 641
f 641 484 623
f 484 463 471
f 424 498 471
f 579 560 641
f 587 641 607
f 590 418 549
f 613 601 561
f 603 602 614
f 599 589 603
f 589 602 603
f 615 613 625
f 615 601 613
f 604 601 615
f 617 614 625
f 534 600 627
f 617 603 614
f 614 604 615
f 588 602 589
f 627 422 640
f 615 625 614
f 534 561 589
f 608 534 627
f 589 599 534
f 608 613 561
f 625 613 608
f 603 604 614
f 602 603 614
f 602 604 603
f 603 602 588
f 617 599 603
f 601 588 561
f 588 601 603
f 534 617 600
f 534 608 561
f 654 335 242
f 635 631 493
f 626 616 628
f 562 525 631
f 635 493 353
f 618 620 660
f 592 619 609
f 618 621 620
f 621 622 620
f 593 718 715
f 483 484 612
f 396 598 400
f 594 395 476
f 477 476 323
f 323 242 335
f 242 594 477
f 323 335 412
f 396 612 598
f 427 483 612
f 501 641 623
f 412 641 537
f 641 418 590
f 609 610 618
f 660 609 618
f 625 608 634
f 605 633 629
f 606 605 629
f 335 639 490
f 630 619 660
f 592 609 660
f 620 622 630
f 618 610 621
f 610 622 621
f 619 630 610
f 630 622 610
f 620 630 660
f 538 660 619
f 659 335 654
f 654 242 477
f 654 412 537
f 323 412 654
f 640 598 612
f 639 537 641
f 617 646 628
f 650 635 353
f 715 538 593
f 660 538 715
f 611 472 591
f 593 636 718
f 591 636 611
f 659 654 537
f 624 606 629
f 633 624 629
f 641 626 627
f 641 590 626
f 642 643 644
f 643 642 645
f 634 617 625
f 646 617 634
f 353 592 650
f 647 562 203
f 592 660 650
f 647 591 472
f 637 624 629
f 643 648 644
f 647 645 631
f 632 606 638
f 624 537 638
f 659 624 637
f 606 624 638
f 605 632 633
f 659 537 624
f 624 633 629
f 632 605 606
f 629 633 637
f 612 484 640
f 638 537 639
f 640 641 627
f 203 631 642
f 634 608 646
f 642 648 652
f 644 642 652
f 644 648 642
f 645 642 631
f 562 631 203
f 633 632 637
f 632 638 637
f 659 637 639
f 638 639 637
f 608 627 649
f 651 608 649
f 646 608 651
f 626 628 682
f 648 643 645
f 652 203 644
f 635 647 631
f 203 645 647
f 203 642 644
f 645 652 648
f 203 652 645
f 672 591 653
f 646 667 661
f 667 662 661
f 656 663 664
f 664 665 656
f 663 666 664
f 664 666 665
f 651 656 665
f 655 651 665
f 667 655 662
f 667 651 655
f 663 656 669
f 666 655 665
f 662 655 668
f 646 651 667
f 668 666 663
f 655 666 668
f 662 668 669
f 668 663 669
f 661 662 669
f 669 646 661
f 682 628 646
f 679 647 635
f 715 650 660
f 713 647 720
f 674 675 658
f 673 676 671
f 676 677 671
f 671 670 673
f 670 671 658
f 671 674 658
f 713 670 658
f 713 658 591
f 639 335 659
f 680 682 681
f 682 649 627
f 651 669 656
f 698 651 649
f 651 698 669
f 646 698 682
f 682 627 626
f 669 698 646
f 679 635 650
f 678 685 700
f 678 686 685
f 687 686 685
f 686 689 685
f 689 687 685
f 683 700 690
f 686 690 685
f 650 715 657
f 591 647 713
f 675 677 691
f 674 677 675
f 676 673 691
f 677 676 691
f 653 591 672
f 692 670 713
f 674 671 677
f 675 691 692
f 636 591 718
f 692 658 675
f 649 694 693
f 681 682 698
f 681 696 697
f 680 681 697
f 698 649 693
f 694 695 680
f 695 682 680
f 694 680 697
f 696 693 697
f 693 694 697
f 693 681 698
f 649 695 694
f 682 695 649
f 701 699 700
f 699 678 700
f 678 699 686
f 688 689 686
f 689 688 684
f 701 650 688
f 685 690 700
f 679 650 701
f 684 683 690
f 687 689 684
f 699 701 688
f 650 684 688
f 686 687 690
f 699 688 686
f 684 690 687
f 684 650 683
f 700 683 679
f 679 701 700
f 683 650 657
f 706 704 705
f 702 703 708
f 708 709 710
f 709 708 711
f 712 707 702
f 691 673 670
f 691 670 692
f 591 658 692
f 713 715 692
f 715 718 692
f 692 718 591
f 657 679 683
f 719 704 706
f 704 719 705
f 707 719 706
f 706 705 714
f 720 657 707
f 708 703 711
f 716 708 710
f 717 709 721
f 707 712 719
f 715 703 657
f 703 715 717
f 702 657 703
f 708 716 705
f 712 705 719
f 712 702 704
f 702 708 704
f 705 716 714
f 657 702 707
f 707 706 714
f 722 703 721
f 703 717 721
f 708 705 704
f 705 712 704
f 715 714 717
f 711 703 722
f 707 714 720
f 710 709 716
f 709 717 716
f 717 714 716
f 715 720 714
f 715 713 720
f 720 679 657
f 679 720 647
f 640 484 641
f 696 681 693
f 721 709 722
f 709 711 722

