# https://github.com/mikedh/trimesh
v 0.02012093 -0.04744654 0.04435904
v 0.02012093 -0.04742398 0.04399888
v 0.02043377 -0.04727958 0.04435904
v 0.02122647 -0.04681029 0.04574105
v 0.02043377 -0.04722995 0.04574105
v 0.02012093 -0.04740593 0.04536414
v 0.02012093 -0.04735178 0.04292677
v 0.02123177 -0.04681932 0.04435904
v 0.02056367 -0.04710360 0.04289327
v 0.02117875 -0.04678773 0.04328693
v 0.02455899 -0.04483387 0.04574105
v 0.02556114 -0.04419763 0.04711469
v 0.02116019 -0.04676517 0.04711469
v 0.02012093 -0.04738788 0.04574105
v 0.02112307 -0.04674261 0.04780151
v 0.02012093 -0.04717580 0.04160339
v 0.02032242 -0.04706750 0.04160339
v 0.02373183 -0.04529414 0.04435904
v 0.02110716 -0.04673359 0.04237397
v 0.02555053 -0.04420665 0.04574105
v 0.02624779 -0.04372834 0.04711469
v 0.02541532 -0.04409384 0.04848833
v 0.02012093 -0.04729312 0.04711469
v 0.02526421 -0.04400359 0.04917514
v 0.02084735 -0.04659821 0.04871447
v 0.02012093 -0.04707202 0.04835431
v 0.02012093 -0.04695920 0.04013762
v 0.02013683 -0.04696823 0.04022976
v 0.02455899 -0.04477070 0.04435904
v 0.02455899 -0.04458118 0.04297703
v 0.02112837 -0.04537085 0.03401489
v 0.02389620 -0.04400811 0.03668678
v 0.02415867 -0.04418860 0.03886450
v 0.02432304 -0.04430142 0.04022976
v 0.02623719 -0.04371480 0.04574105
v 0.02547100 -0.04415702 0.04435904
v 0.02719161 -0.04302892 0.04574105
v 0.02788092 -0.04252805 0.04574105
v 0.02715715 -0.04304246 0.04711469
v 0.02610198 -0.04358394 0.04848833
v 0.02669849 -0.04269952 0.04921702
v 0.02580770 -0.04321393 0.04931753
v 0.02455899 -0.04330418 0.04968607
v 0.02180707 -0.04468046 0.04989547
v 0.02012093 -0.04607478 0.04972795
v 0.02040725 -0.04610637 0.04961906
v 0.02012093 -0.04653053 0.04939292
v 0.02012093 -0.04677420 0.04913327
v 0.02692119 -0.04289355 0.04848833
v 0.02012093 -0.04608832 0.03474359
v 0.02043377 -0.04590331 0.03474359
v 0.02532784 -0.04405323 0.04297703
v 0.02035158 -0.04504596 0.02916528
v 0.02113898 -0.04400359 0.02573119
v 0.02140940 -0.04418409 0.02786703
v 0.02534639 -0.04269049 0.03501161
v 0.02484532 -0.04370578 0.03886450
v 0.02514490 -0.04391786 0.04136049
v 0.02192373 -0.04361553 0.02649339
v 0.02277210 -0.04280782 0.02511138
v 0.02294443 -0.04292514 0.02649339
v 0.02376894 -0.04254159 0.02759063
v 0.02387764 -0.04262280 0.02851197
v 0.02616030 -0.04365615 0.04435904
v 0.02937618 -0.04124653 0.04499560
v 0.02937618 -0.04124653 0.04512124
v 0.02784645 -0.04247841 0.04711469
v 0.02778813 -0.04246488 0.04435904
v 0.02761315 -0.04223926 0.04848833
v 0.02831041 -0.04155337 0.04848833
v 0.02969167 -0.04018161 0.04848833
v 0.02807445 -0.04132324 0.04921702
v 0.02859143 -0.04046137 0.04937617
v 0.02721812 -0.04184216 0.04935941
v 0.02730826 -0.04055614 0.04982008
v 0.02593230 -0.04192790 0.04976983
v 0.02043377 -0.04468046 0.05028075
v 0.02012093 -0.04495571 0.05025563
v 0.02012093 -0.04630040 0.04956881
v 0.02012093 -0.04515425 0.02899777
v 0.02679393 -0.04136837 0.03335320
v 0.02739575 -0.04163008 0.03757462
v 0.02012093 -0.04473460 0.02649339
v 0.02043377 -0.04454959 0.02649339
v 0.02043377 -0.04477973 0.02786703
v 0.02100642 -0.04392237 0.02480985
v 0.02108861 -0.04259573 0.01766527
v 0.02168247 -0.04355687 0.02521189
v 0.02668259 -0.04128714 0.03241511
v 0.02363373 -0.04244231 0.02649339
v 0.02259182 -0.04268598 0.02373774
v 0.02646519 -0.04112921 0.03060592
v 0.02878232 -0.04167069 0.04446793
v 0.02930460 -0.04118336 0.04408264
v 0.03086349 -0.03861130 0.03749086
v 0.02987725 -0.04065541 0.04446793
v 0.03270871 -0.03772687 0.04435904
v 0.03488267 -0.03575948 0.04628548
v 0.02933641 -0.04121043 0.04605096
v 0.03488267 -0.03575948 0.04646975
v 0.03350406 -0.03713124 0.04646975
v 0.02856757 -0.04179253 0.04711469
v 0.02837669 -0.04154886 0.04160339
v 0.02851720 -0.04166167 0.04297703
v 0.02801348 -0.04125556 0.03808554
v 0.02809301 -0.04132324 0.03886450
v 0.02925953 -0.04113372 0.04711469
v 0.03065670 -0.03977550 0.04711469
v 0.03037832 -0.03948670 0.04848833
v 0.02943981 -0.03994245 0.04921702
v 0.03203001 -0.03839471 0.04711469
v 0.03334764 -0.03695977 0.04737434
v 0.02996209 -0.03907608 0.04937617
v 0.03143349 -0.03643182 0.04987034
v 0.03005753 -0.03780358 0.04987034
v 0.02868157 -0.03917986 0.04985359
v 0.03002041 -0.03638669 0.05036451
v 0.02868157 -0.03780358 0.05029750
v 0.02730826 -0.03917986 0.05023888
v 0.02012093 -0.04469399 0.05032263
v 0.03045256 -0.03547068 0.05050690
v 0.02748324 -0.04084041 0.03335320
v 0.02763966 -0.04096225 0.03474359
v 0.02012093 -0.04424726 0.02369586
v 0.02012093 -0.04279428 0.01540379
v 0.02012093 -0.04150374 0.00816707
v 0.02012093 -0.04108860 0.00588047
v 0.02250168 -0.04261830 0.02303417
v 0.02345876 -0.04231145 0.02511138
v 0.02629551 -0.04100286 0.02923229
v 0.02012093 -0.03966720 -0.00170803
v 0.02012093 -0.03952280 -0.00247023
v 0.02012093 -0.03875118 -0.00654089
v 0.02012093 -0.03683342 -0.01665052
v 0.02720752 -0.04079981 0.03196281
v 0.02671705 -0.03994697 0.02538778
v 0.02920385 -0.04108860 0.04297703
v 0.03078926 -0.03853910 0.03657789
v 0.03319917 -0.03680184 0.04160339
v 0.03329727 -0.03691013 0.04297703
v 0.03184442 -0.03820970 0.04160339
v 0.03115777 -0.03891814 0.04160339
v 0.03481639 -0.03568728 0.04537252
v 0.03530156 -0.03515933 0.04579968
v 0.03608365 -0.03415307 0.04574105
v 0.03726608 -0.03251959 0.04711469
v 0.03657942 -0.03344462 0.04711469
v 0.03603328 -0.03412599 0.04711469
v 0.03643891 -0.03323254 0.04816167
v 0.03468648 -0.03555191 0.04738272
v 0.02832101 -0.04015002 0.03335320
v 0.02906334 -0.04097128 0.04160339
v 0.03103847 -0.03880082 0.04848833
v 0.03079986 -0.03854813 0.04921702
v 0.03795538 -0.03061085 0.04942642
v 0.03700891 -0.03101245 0.04969445
v 0.03280680 -0.03505554 0.04985359
v 0.03138577 -0.03502847 0.05036451
v 0.02012093 -0.04362455 0.05028075
v 0.02953790 -0.03589936 0.05055716
v 0.02919855 -0.03589936 0.05055716
v 0.02919855 -0.03542556 0.05055716
v 0.03039953 -0.03367927 0.05058228
v 0.04168824 -0.00135257 0.05058228
v 0.03181526 -0.03401770 0.05049853
v 0.03089795 -0.03455467 0.05057391
v 0.02742226 -0.04036210 0.03056405
v 0.02806120 -0.03992891 0.03099959
v 0.02816990 -0.04002368 0.03198794
v 0.02012093 -0.04002819 0.00021841
v 0.02012093 -0.03369732 -0.03314253
v 0.02012093 -0.03335438 -0.03494334
v 0.02660835 -0.03985672 0.02446644
v 0.02684961 -0.04005075 0.02649339
v 0.02717040 -0.04031247 0.02923229
v 0.02662161 -0.03848947 0.01753963
v 0.02945571 -0.03994245 0.03775051
v 0.02914818 -0.03966720 0.03474359
v 0.02900767 -0.03953182 0.03335320
v 0.02974735 -0.03884594 0.03335320
v 0.02803203 -0.03714929 0.01738049
v 0.02247517 -0.03159906 -0.03459993
v 0.02935232 -0.03709514 0.02313468
v 0.02533844 -0.03034011 -0.02686903
v 0.02930990 -0.03567825 0.01645077
v 0.03074684 -0.03712221 0.02991073
v 0.03110475 -0.03749674 0.03335320
v 0.03179140 -0.03676574 0.03335320
v 0.03312229 -0.03534433 0.03335320
v 0.03326280 -0.03549325 0.03474359
v 0.03204326 -0.03703648 0.03584082
v 0.03258940 -0.03651756 0.03621773
v 0.03212545 -0.03712221 0.03675378
v 0.03218642 -0.03718990 0.03749086
v 0.03155014 -0.03787578 0.03749086
v 0.03473951 -0.03559703 0.04435904
v 0.03298443 -0.03655817 0.03886450
v 0.03529360 -0.03491115 0.04435904
v 0.03725812 -0.03249251 0.04574105
v 0.03776450 -0.03183370 0.04711469
v 0.03508681 -0.03464943 0.04160339
v 0.03490918 -0.03442381 0.03924978
v 0.03484025 -0.03433356 0.03833682
v 0.03616584 -0.03288960 0.04022976
v 0.03883292 -0.03002424 0.04435904
v 0.03886208 -0.03008290 0.04848833
v 0.03769822 -0.03173894 0.04805278
v 0.03752589 -0.03152686 0.04896575
v 0.03617379 -0.03293021 0.04908301
v 0.03511332 -0.03463589 0.04822030
v 0.03237731 -0.03738844 0.04848833
v 0.03172512 -0.03807884 0.04848833
v 0.03215196 -0.03714929 0.04919189
v 0.03349611 -0.03574594 0.04917514
v 0.03919878 -0.02918945 0.04939292
v 0.03836897 -0.02960910 0.04966094
v 0.03692673 -0.02955495 0.05019700
v 0.03555342 -0.03092672 0.05023888
v 0.02012093 -0.04330418 0.05023050
v 0.02997269 -0.03499237 0.05057391
v 0.03138577 -0.03360707 0.05058228
v 0.03555342 -0.02680691 0.05061579
v 0.04242792 -0.00343729 0.05062416
v 0.04242792 -0.00206552 0.05061579
v 0.04135684 -0.00135257 0.05032263
v 0.02012093 -0.03972134 0.04938454
v 0.02012093 -0.04054260 0.04964419
v 0.02012093 -0.04086298 0.04972795
v 0.04245443 -0.00135257 0.05059066
v 0.03635672 -0.02765073 0.05057391
v 0.03220233 -0.03310168 0.05055716
v 0.03247806 -0.03230299 0.05058228
v 0.02698217 -0.03745162 0.01410554
v 0.02012093 -0.01973601 -0.03494334
v 0.02176731 -0.03207737 -0.03494334
v 0.02243010 -0.03155845 -0.03494334
v 0.02311410 -0.03086805 -0.03494334
v 0.02379811 -0.03016863 -0.03494334
v 0.02337657 -0.03110721 -0.03262323
v 0.02388029 -0.03163065 -0.02784901
v 0.02401815 -0.02994301 -0.03494334
v 0.02473132 -0.02971288 -0.03262323
v 0.02515286 -0.02876528 -0.03494334
v 0.02846683 -0.03212250 -0.00375174
v 0.02993293 -0.03359353 0.00999300
v 0.02802673 -0.03027693 -0.01421315
v 0.03352792 -0.03441027 0.03110848
v 0.03386727 -0.03480736 0.03474359
v 0.03338741 -0.03562410 0.03611722
v 0.03361276 -0.03450503 0.03198794
v 0.03374267 -0.03465394 0.03335320
v 0.03346164 -0.03570533 0.03699668
v 0.03297913 -0.03631901 0.03746573
v 0.03397862 -0.03493822 0.03611722
v 0.03891511 -0.03013705 0.04574105
v 0.03939497 -0.02945117 0.04574105
v 0.03892836 -0.03015510 0.04711469
v 0.03466527 -0.03409892 0.03611722
v 0.03506295 -0.03326413 0.03474359
v 0.03516635 -0.03341304 0.03611722
v 0.03620826 -0.03157650 0.03424941
v 0.03722101 -0.03083196 0.03744060
v 0.03911130 -0.02904956 0.04160339
v 0.03931809 -0.02933384 0.04435904
v 0.03742515 -0.02997460 0.03474359
v 0.03811445 -0.03101245 0.04849670
v 0.03933134 -0.02939702 0.04848833
v 0.03306397 -0.03665744 0.04848833
v 0.03944004 -0.02817867 0.04956881
v 0.03830004 -0.02817867 0.05012161
v 0.04004716 -0.02807940 0.04844645
v 0.04029637 -0.02734840 0.04887361
v 0.04048991 -0.02642787 0.04934266
v 0.04175452 -0.02067458 0.05054878
v 0.03817013 -0.02668056 0.05037289
v 0.03967865 -0.02131083 0.05061579
v 0.03830004 -0.02268711 0.05062416
v 0.04098037 -0.02120705 0.05058228
v 0.04380122 -0.00206552 0.05062416
v 0.04061981 -0.00135257 0.04967770
v 0.04023274 -0.00135257 0.04930916
v 0.02012093 -0.03959951 0.04931753
v 0.04380122 -0.00135257 0.05059066
v 0.04047665 -0.02218623 0.05057391
v 0.02012093 -0.01973601 -0.03490146
v 0.02704845 -0.00135257 -0.03494334
v 0.02446620 -0.02947824 -0.03494334
v 0.02570695 -0.02811099 -0.03494334
v 0.02658184 -0.02881943 -0.02762286
v 0.02668259 -0.02757402 -0.03225469
v 0.03209363 -0.03296180 0.01767364
v 0.03442932 -0.03379208 0.03335320
v 0.03455393 -0.03395452 0.03474359
v 0.03345369 -0.03293924 0.02463396
v 0.04008162 -0.02836368 0.04574105
v 0.03939232 -0.02946921 0.04711469
v 0.04000474 -0.02825538 0.04435904
v 0.03494895 -0.03310619 0.03335320
v 0.03613668 -0.03147723 0.03335320
v 0.03663510 -0.03079134 0.03335320
v 0.03903706 -0.02894127 0.04059829
v 0.03732175 -0.02982118 0.03335320
v 0.04007897 -0.02833210 0.04711469
v 0.04039181 -0.02755597 0.04794390
v 0.04177042 -0.02480793 0.04788527
v 0.04158484 -0.02437474 0.04878986
v 0.04460188 -0.01667661 0.04930916
v 0.04316229 -0.01655027 0.05057391
v 0.04179163 -0.01993907 0.05057391
v 0.04474769 -0.01581475 0.04946830
v 0.04242526 -0.01581475 0.05062416
v 0.04380122 -0.00481356 0.05062416
v 0.04462044 -0.00206552 0.05058228
v 0.04459658 -0.00135257 0.05057391
v 0.04436327 -0.00135257 0.05058228
v 0.03973432 -0.00135257 0.04848833
v 0.02012093 -0.03908961 0.04878986
v 0.02012093 -0.01987138 -0.03399687
v 0.03574165 -0.00135257 -0.03494334
v 0.02012093 -0.02012407 -0.03263161
v 0.02012093 -0.02149584 -0.02572992
v 0.02012093 -0.02840881 0.00866962
v 0.02012093 -0.03118392 0.02232223
v 0.02012093 -0.03260983 0.02927417
v 0.02012093 -0.03363866 0.03343695
v 0.03405550 -0.00135257 0.02307605
v 0.02642277 -0.02724461 -0.03494334
v 0.02796841 -0.02608944 -0.03178565
v 0.03210424 -0.03159906 0.01212046
v 0.03488002 -0.03301143 0.03259100
v 0.02924362 -0.02595858 -0.02573830
v 0.03076274 -0.02751987 -0.01139050
v 0.03218908 -0.02759207 -0.00344183
v 0.03630370 -0.03033108 0.02957570
v 0.03640179 -0.03045743 0.03060592
v 0.04045809 -0.02767780 0.04574105
v 0.04039977 -0.02756950 0.04435904
v 0.03995437 -0.02804330 0.04311104
v 0.04036530 -0.02749731 0.04366385
v 0.03652110 -0.03063341 0.03198794
v 0.03965213 -0.02817867 0.04160339
v 0.03779101 -0.02913530 0.03335320
v 0.03896813 -0.02883297 0.03968533
v 0.03721040 -0.02965873 0.03198794
v 0.04044219 -0.02765073 0.04711469
v 0.04147879 -0.02560662 0.04711469
v 0.04182345 -0.02491622 0.04711469
v 0.04318615 -0.02215916 0.04668752
v 0.04305624 -0.02185232 0.04760049
v 0.04582672 -0.01220936 0.04905788
v 0.04514537 -0.01581475 0.04848833
v 0.04551123 -0.01443847 0.04848833
v 0.04453825 -0.00756160 0.05057391
v 0.04319941 -0.01581475 0.05058228
v 0.04388871 -0.01581475 0.05015512
v 0.04505523 -0.01306220 0.04968607
v 0.04517718 -0.01031416 0.04993735
v 0.04450909 -0.00851823 0.05055716
v 0.04591421 -0.01129334 0.04922540
v 0.04491472 -0.01443847 0.04960231
v 0.04455946 -0.00618984 0.05058228
v 0.04530709 -0.00206552 0.05033938
v 0.04485904 -0.00135257 0.05049015
v 0.03917757 -0.00135257 0.04725708
v 0.02012093 -0.03891814 0.04858884
v 0.03523263 -0.00618984 -0.03494334
v 0.03678621 -0.00135257 -0.03091456
v 0.02012093 -0.03539397 0.04020463
v 0.03413769 -0.00135257 0.02373774
v 0.02744347 -0.02597212 -0.03494334
v 0.02775101 -0.02581870 -0.03399687
v 0.02820436 -0.02501098 -0.03494334
v 0.02932846 -0.02468158 -0.03032825
v 0.02941065 -0.02480341 -0.02940691
v 0.03076009 -0.02613908 -0.01688504
v 0.03629840 -0.02895029 0.02408115
v 0.04183140 -0.02492976 0.04574105
v 0.04077623 -0.02680691 0.04435904
v 0.04226354 -0.02406338 0.04574105
v 0.04021418 -0.02724010 0.04160339
v 0.04050846 -0.02637824 0.04022976
v 0.04059330 -0.02654970 0.04160339
v 0.04114740 -0.02543063 0.04160339
v 0.04130382 -0.02543063 0.04297703
v 0.04148410 -0.02534490 0.04426691
v 0.03767966 -0.02896834 0.03198794
v 0.03868976 -0.02836819 0.03611722
v 0.03920939 -0.02785830 0.03749086
v 0.04010814 -0.02706412 0.04022976
v 0.03761868 -0.02887358 0.03125924
v 0.04285741 -0.02283150 0.04574105
v 0.04317820 -0.02214562 0.04574105
v 0.04346453 -0.02131083 0.04574105
v 0.04570742 -0.01432115 0.04707281
v 0.04522490 -0.01581475 0.04711469
v 0.04594072 -0.01276438 0.04814492
v 0.04604147 -0.01172653 0.04854696
v 0.04629333 -0.01031416 0.04848833
v 0.04584793 -0.01368039 0.04750835
v 0.04599110 -0.01031416 0.04930078
v 0.04529383 -0.01172653 0.04967770
v 0.04505258 -0.00896044 0.05014674
v 0.04606533 -0.00893788 0.04935941
v 0.04522490 -0.00756160 0.05011324
v 0.04622705 -0.00206552 0.04965257
v 0.04578695 -0.00135257 0.04999598
v 0.04520370 -0.00135257 0.05036451
v 0.03894162 -0.00135257 0.04657026
v 0.03880376 -0.00135257 0.04615147
v 0.02012093 -0.03801567 0.04712307
v 0.03508681 -0.00756160 -0.03494334
v 0.03701952 -0.00135257 -0.02985083
v 0.03487472 -0.00135257 0.02925742
v 0.03482169 -0.00135257 0.02888888
v 0.03423313 -0.00135257 0.02445807
v 0.02012093 -0.03628291 0.04306079
v 0.02765822 -0.02570138 -0.03494334
v 0.02887776 -0.02404533 -0.03494334
v 0.02972879 -0.02416265 -0.02986758
v 0.03209628 -0.02608493 -0.00980746
v 0.03621621 -0.02883297 0.02317656
v 0.02921976 -0.02351738 -0.03494334
v 0.02933906 -0.02332786 -0.03494334
v 0.04178103 -0.02482597 0.04467732
v 0.04173066 -0.02472670 0.04374761
v 0.04042893 -0.02623835 0.03913252
v 0.04097242 -0.02543063 0.04022976
v 0.04160605 -0.02445145 0.04160339
v 0.04168824 -0.02464097 0.04297703
v 0.03902646 -0.02756048 0.03519588
v 0.03754180 -0.02874272 0.03033790
v 0.03789441 -0.02824185 0.03072319
v 0.04312782 -0.02203281 0.04494535
v 0.04380387 -0.01993907 0.04435904
v 0.04448258 -0.01781825 0.04395700
v 0.04587179 -0.01377967 0.04631061
v 0.04587179 -0.01377967 0.04659539
v 0.04622970 -0.01169043 0.04711469
v 0.04643914 -0.01031416 0.04711469
v 0.04643119 -0.00893788 0.04848833
v 0.04596988 -0.01316147 0.04707281
v 0.04611305 -0.00756160 0.04942642
v 0.04609714 -0.00810760 0.04939292
v 0.04615282 -0.00618984 0.04947667
v 0.04618198 -0.00481356 0.04953530
v 0.04649482 -0.00756160 0.04848833
v 0.04653193 -0.00618984 0.04848833
v 0.04656110 -0.00481356 0.04848833
v 0.04658496 -0.00343729 0.04848833
v 0.04661677 -0.00135257 0.04848833
v 0.04622970 -0.00135257 0.04966094
v 0.03846176 -0.00135257 0.04507099
v 0.03804817 -0.00135257 0.04366385
v 0.03785994 -0.00135257 0.04296865
v 0.03757361 -0.00135257 0.04185467
v 0.03748347 -0.00135257 0.04150288
v 0.03719184 -0.00135257 0.04022976
v 0.03593519 -0.00135257 0.03474359
v 0.03561970 -0.00135257 0.03335320
v 0.03547388 -0.00135257 0.03269988
v 0.02012093 -0.03680635 0.04431716
v 0.03493039 -0.00864006 -0.03494334
v 0.04685538 -0.00135257 0.02511138
v 0.03507886 -0.00135257 0.03058080
v 0.03533072 -0.00135257 0.03198794
v 0.03520081 -0.00135257 0.03132625
v 0.02954320 -0.02366629 -0.03262323
v 0.03331848 -0.02582321 -0.00375174
v 0.03485881 -0.02748377 0.01071332
v 0.02973939 -0.02266003 -0.03494334
v 0.03071767 -0.02195610 -0.03177727
v 0.03224740 -0.02358958 -0.01748810
v 0.04035735 -0.02610749 0.03822793
v 0.04069935 -0.02556149 0.03874723
v 0.04120837 -0.02406338 0.03749086
v 0.04151591 -0.02424388 0.04022976
v 0.03871362 -0.02674374 0.03048866
v 0.03625598 -0.02752438 0.01882113
v 0.03736947 -0.02708217 0.02373774
v 0.03762929 -0.02477634 0.01745587
v 0.03777245 -0.02639177 0.02373774
v 0.03795008 -0.02690167 0.02649339
v 0.03823906 -0.02680691 0.02786703
v 0.04330280 -0.02137400 0.04443442
v 0.04181814 -0.02355800 0.04022976
v 0.04169884 -0.02328274 0.03846245
v 0.04193480 -0.02244344 0.03749086
v 0.04183935 -0.02223136 0.03611722
v 0.04177573 -0.02208245 0.03518751
v 0.04239345 -0.02131083 0.03749086
v 0.04299527 -0.02168085 0.04297703
v 0.04306685 -0.02049860 0.04022976
v 0.04412201 -0.01856279 0.04297703
v 0.04583468 -0.01362173 0.04539765
v 0.04366601 -0.01581475 0.03335320
v 0.04707012 -0.00135257 0.02649339
v 0.04708338 -0.00135257 0.02661903
v 0.04717087 -0.00135257 0.02790891
v 0.04596193 -0.01312537 0.04579968
v 0.04618993 -0.01169043 0.04574105
v 0.04657700 -0.00893788 0.04711469
v 0.04720533 -0.00135257 0.02923229
v 0.04647096 -0.00810760 0.04848833
v 0.04660351 -0.00810760 0.04711469
v 0.04661942 -0.00756160 0.04711469
v 0.03478988 -0.00930790 -0.03494334
v 0.04690575 -0.00135257 0.02541291
v 0.03454067 -0.01029611 -0.03494334
v 0.03048702 -0.02138754 -0.03494334
v 0.03064609 -0.02182524 -0.03262323
v 0.03211484 -0.02199220 -0.02364434
v 0.04036265 -0.02474024 0.03407352
v 0.03898404 -0.02611200 0.02995261
v 0.03869771 -0.02560210 0.02649339
v 0.03901320 -0.02478988 0.02564743
v 0.04070200 -0.02419875 0.03460120
v 0.04099893 -0.02406338 0.03611722
v 0.04162991 -0.02313383 0.03749086
v 0.04145758 -0.02395509 0.03889800
v 0.03893897 -0.02464097 0.02472609
v 0.03862878 -0.02532685 0.02515326
v 0.03793152 -0.02529978 0.02098209
v 0.03625863 -0.02341360 0.00508477
v 0.04338234 -0.02007895 0.04146938
v 0.04362890 -0.01993907 0.04297703
v 0.04036000 -0.02336396 0.02995261
v 0.04170414 -0.02191549 0.03426616
v 0.04220257 -0.02131083 0.03611722
v 0.04297671 -0.02022786 0.03886450
v 0.04331341 -0.01981272 0.04022976
v 0.04313578 -0.01655478 0.03115873
v 0.03355973 -0.01392857 -0.03494334
v 0.03378774 -0.01313891 -0.03494334
v 0.03442137 -0.01074735 -0.03494334
v 0.03063019 -0.02113485 -0.03494334
v 0.03082902 -0.02078288 -0.03494334
v 0.03349876 -0.02201476 -0.01546953
v 0.03763459 -0.02341811 0.01328471
v 0.03916962 -0.02377910 0.02373774
v 0.04012670 -0.02262393 0.02642639
v 0.04030167 -0.02323762 0.02923229
v 0.03121875 -0.02002480 -0.03494334
v 0.03248601 -0.02007895 -0.02725432
v 0.04189238 -0.02104009 0.03335320
v 0.04196661 -0.02139657 0.03472683
v 0.04050051 -0.02230807 0.02786703
v 0.04034409 -0.02195159 0.02592384
v 0.03903706 -0.02073324 0.01450758
v 0.04039181 -0.02069715 0.02285828
v 0.04173331 -0.02061141 0.03132625
v 0.03354383 -0.01800326 -0.02677690
v 0.03219968 -0.01804387 -0.03494334
v 0.03785464 -0.02275479 0.01279891
v 0.03190275 -0.01865304 -0.03494334
v 0.03625598 -0.02203281 0.00098061
v 0.03617909 -0.02049860 -0.00375174
v 0.03877194 -0.02264198 0.01813431
v 0.03493039 -0.01939758 -0.01446442
v 0.03629044 -0.01937051 -0.00613885
v 0.03621886 -0.01919001 -0.00705181
v 0.03355178 -0.01937051 -0.02299102
v 0.03487472 -0.02064300 -0.01134862
f 1 2 3
f 1 3 4
f 1 4 5
f 1 5 6
f 1 6 14
f 1 14 23
f 1 23 26
f 1 26 48
f 1 48 47
f 1 47 79
f 1 79 45
f 1 45 78
f 1 78 120
f 1 120 159
f 1 159 219
f 1 219 228
f 1 228 227
f 1 227 226
f 1 226 282
f 1 282 317
f 1 317 365
f 1 365 410
f 1 410 461
f 1 461 416
f 1 416 368
f 1 368 325
f 1 325 324
f 1 324 323
f 1 323 322
f 1 322 321
f 1 321 320
f 1 320 318
f 1 318 285
f 1 285 234
f 1 234 172
f 1 172 171
f 1 171 134
f 1 134 133
f 1 133 132
f 1 132 131
f 1 131 170
f 1 170 127
f 1 127 126
f 1 126 125
f 1 125 124
f 1 124 83
f 1 83 80
f 1 80 50
f 1 50 27
f 1 27 16
f 1 16 7
f 1 7 2
f 2 7 3
f 3 8 4
f 3 7 9
f 3 9 10
f 3 10 8
f 4 11 12
f 4 12 13
f 4 13 5
f 4 8 11
f 5 14 6
f 5 13 15
f 5 15 14
f 7 16 17
f 7 17 9
f 8 18 11
f 8 10 18
f 9 17 19
f 9 19 10
f 10 19 18
f 11 20 12
f 11 18 20
f 12 20 21
f 12 21 22
f 12 22 15
f 12 15 13
f 14 15 23
f 15 22 24
f 15 24 25
f 15 25 26
f 15 26 23
f 16 27 28
f 16 28 17
f 17 28 19
f 18 29 20
f 18 19 29
f 19 30 29
f 19 28 31
f 19 31 32
f 19 32 33
f 19 33 34
f 19 34 30
f 20 35 21
f 20 29 36
f 20 36 35
f 21 35 37
f 21 37 38
f 21 38 39
f 21 39 40
f 21 40 22
f 22 40 24
f 24 41 42
f 24 42 43
f 24 43 44
f 24 44 45
f 24 45 46
f 24 46 47
f 24 47 48
f 24 48 25
f 24 40 49
f 24 49 41
f 25 48 26
f 27 50 28
f 28 50 51
f 28 51 31
f 29 30 36
f 30 52 36
f 30 34 52
f 31 51 53
f 31 53 54
f 31 54 55
f 31 55 32
f 32 56 57
f 32 57 58
f 32 58 33
f 32 55 59
f 32 59 60
f 32 60 61
f 32 61 62
f 32 62 63
f 32 63 56
f 33 58 34
f 34 58 52
f 35 36 37
f 36 64 38
f 36 38 37
f 36 52 64
f 38 65 66
f 38 66 67
f 38 67 39
f 38 64 68
f 38 68 65
f 39 67 40
f 40 67 49
f 41 49 69
f 41 69 70
f 41 70 71
f 41 71 72
f 41 72 73
f 41 73 74
f 41 74 75
f 41 75 76
f 41 76 42
f 42 76 43
f 43 76 77
f 43 77 44
f 44 77 78
f 44 78 45
f 45 79 46
f 46 79 47
f 49 67 69
f 50 80 53
f 50 53 51
f 52 68 64
f 52 58 81
f 52 81 82
f 52 82 68
f 53 80 83
f 53 83 84
f 53 84 85
f 53 85 54
f 54 84 83
f 54 83 86
f 54 86 87
f 54 87 88
f 54 88 59
f 54 59 55
f 54 85 84
f 56 63 89
f 56 89 81
f 56 81 58
f 56 58 57
f 59 88 60
f 60 90 62
f 60 62 61
f 60 88 91
f 60 91 90
f 62 90 92
f 62 92 89
f 62 89 63
f 65 68 93
f 65 93 94
f 65 94 95
f 65 95 96
f 65 96 97
f 65 97 98
f 65 98 100
f 65 100 66
f 66 99 67
f 66 100 101
f 66 101 99
f 67 99 102
f 67 102 69
f 68 103 104
f 68 104 93
f 68 82 105
f 68 105 106
f 68 106 103
f 69 102 107
f 69 107 108
f 69 108 70
f 70 108 71
f 71 109 110
f 71 110 72
f 71 108 111
f 71 111 112
f 71 112 109
f 72 110 113
f 72 113 73
f 73 113 114
f 73 114 115
f 73 115 74
f 74 115 116
f 74 116 75
f 75 116 117
f 75 117 118
f 75 118 76
f 76 118 119
f 76 119 77
f 77 120 78
f 77 119 118
f 77 118 121
f 77 121 120
f 81 89 122
f 81 122 123
f 81 123 105
f 81 105 82
f 83 124 86
f 86 124 125
f 86 125 126
f 86 126 87
f 87 126 127
f 87 127 128
f 87 128 91
f 87 91 88
f 89 92 122
f 90 91 129
f 90 129 130
f 90 130 92
f 91 128 131
f 91 131 132
f 91 132 133
f 91 133 134
f 91 134 129
f 92 135 122
f 92 130 136
f 92 136 135
f 93 104 94
f 94 104 137
f 94 137 138
f 94 138 95
f 95 138 139
f 95 139 140
f 95 140 97
f 95 97 141
f 95 141 142
f 95 142 96
f 96 142 97
f 97 142 141
f 97 140 98
f 98 143 144
f 98 144 145
f 98 145 100
f 98 140 139
f 98 139 143
f 99 101 107
f 99 107 102
f 100 145 146
f 100 146 147
f 100 147 148
f 100 148 149
f 100 149 150
f 100 150 112
f 100 112 111
f 100 111 108
f 100 108 101
f 101 108 107
f 103 137 104
f 103 106 137
f 105 123 151
f 105 151 152
f 105 152 106
f 106 152 137
f 109 153 154
f 109 154 110
f 109 112 153
f 110 154 113
f 112 150 153
f 113 154 155
f 113 155 156
f 113 156 157
f 113 157 114
f 114 157 158
f 114 158 115
f 115 158 117
f 115 117 116
f 117 158 121
f 117 121 118
f 120 121 160
f 120 160 161
f 120 161 162
f 120 162 163
f 120 163 164
f 120 164 159
f 121 158 165
f 121 165 166
f 121 166 160
f 122 135 167
f 122 167 168
f 122 168 169
f 122 169 151
f 122 151 123
f 127 170 128
f 128 170 131
f 129 134 130
f 130 134 171
f 130 171 172
f 130 172 173
f 130 173 136
f 135 136 174
f 135 174 175
f 135 175 167
f 136 173 176
f 136 176 168
f 136 168 174
f 137 152 177
f 137 177 138
f 138 177 178
f 138 178 151
f 138 151 179
f 138 179 168
f 138 168 180
f 138 180 181
f 138 181 182
f 138 182 183
f 138 183 184
f 138 184 185
f 138 185 186
f 138 186 187
f 138 187 188
f 138 188 189
f 138 189 190
f 138 190 191
f 138 191 192
f 138 192 193
f 138 193 194
f 138 194 195
f 138 195 139
f 139 196 143
f 139 195 194
f 139 194 197
f 139 197 196
f 143 196 198
f 143 198 144
f 144 198 145
f 145 199 200
f 145 200 146
f 145 198 201
f 145 201 202
f 145 202 203
f 145 203 204
f 145 204 205
f 145 205 199
f 146 200 206
f 146 206 147
f 147 206 207
f 147 207 148
f 148 207 149
f 149 207 208
f 149 208 209
f 149 209 210
f 149 210 150
f 150 210 211
f 150 211 212
f 150 212 153
f 151 169 179
f 151 178 177
f 151 177 152
f 153 212 213
f 153 213 154
f 154 213 214
f 154 214 155
f 155 215 216
f 155 216 156
f 155 214 209
f 155 209 208
f 155 208 215
f 156 216 217
f 156 217 218
f 156 218 157
f 157 218 158
f 158 218 165
f 159 164 219
f 160 166 220
f 160 220 161
f 161 220 162
f 162 220 163
f 163 220 221
f 163 221 222
f 163 222 223
f 163 223 224
f 163 224 164
f 164 225 226
f 164 226 227
f 164 227 228
f 164 228 219
f 164 224 229
f 164 229 283
f 164 283 315
f 164 315 314
f 164 314 363
f 164 363 407
f 164 407 406
f 164 406 451
f 164 451 450
f 164 450 502
f 164 502 498
f 164 498 497
f 164 497 496
f 164 496 507
f 164 507 463
f 164 463 412
f 164 412 367
f 164 367 319
f 164 319 286
f 164 286 326
f 164 326 369
f 164 369 415
f 164 415 414
f 164 414 413
f 164 413 464
f 164 464 466
f 164 466 465
f 164 465 460
f 164 460 459
f 164 459 458
f 164 458 457
f 164 457 456
f 164 456 455
f 164 455 454
f 164 454 453
f 164 453 452
f 164 452 409
f 164 409 408
f 164 408 364
f 164 364 316
f 164 316 281
f 164 281 280
f 164 280 225
f 165 218 217
f 165 217 230
f 165 230 231
f 165 231 166
f 166 230 232
f 166 232 221
f 166 221 220
f 166 231 230
f 167 175 168
f 168 179 169
f 168 175 174
f 168 176 182
f 168 182 233
f 168 233 180
f 172 234 286
f 172 286 319
f 172 319 366
f 172 366 411
f 172 411 462
f 172 462 506
f 172 506 508
f 172 508 534
f 172 534 533
f 172 533 532
f 172 532 552
f 172 552 554
f 172 554 542
f 172 542 536
f 172 536 535
f 172 535 509
f 172 509 470
f 172 470 423
f 172 423 422
f 172 422 418
f 172 418 372
f 172 372 417
f 172 417 370
f 172 370 327
f 172 327 288
f 172 288 243
f 172 243 287
f 172 287 241
f 172 241 238
f 172 238 237
f 172 237 236
f 172 236 235
f 172 235 182
f 172 182 173
f 173 182 176
f 180 233 181
f 181 233 182
f 182 235 236
f 182 236 237
f 182 237 238
f 182 238 239
f 182 239 240
f 182 240 183
f 183 240 241
f 183 241 242
f 183 242 184
f 184 242 243
f 184 243 185
f 185 243 186
f 186 189 188
f 186 188 187
f 186 243 244
f 186 244 245
f 186 245 189
f 189 245 244
f 189 244 246
f 189 246 247
f 189 247 190
f 190 248 249
f 190 249 192
f 190 192 191
f 190 247 250
f 190 250 251
f 190 251 248
f 192 249 252
f 192 252 253
f 192 253 194
f 192 194 193
f 194 253 197
f 196 201 198
f 196 197 253
f 196 253 252
f 196 252 254
f 196 254 203
f 196 203 202
f 196 202 201
f 199 255 200
f 199 205 255
f 200 255 256
f 200 256 257
f 200 257 206
f 203 254 248
f 203 248 258
f 203 258 259
f 203 259 260
f 203 260 261
f 203 261 204
f 204 261 262
f 204 262 205
f 205 263 264
f 205 264 255
f 205 262 265
f 205 265 263
f 206 266 207
f 206 257 267
f 206 267 215
f 206 215 208
f 206 208 266
f 207 266 208
f 209 214 210
f 210 214 268
f 210 268 211
f 211 268 214
f 211 214 212
f 212 214 213
f 215 269 270
f 215 270 216
f 215 267 271
f 215 271 272
f 215 272 273
f 215 273 274
f 215 274 269
f 216 270 217
f 217 270 274
f 217 274 275
f 217 275 230
f 221 232 222
f 222 276 277
f 222 277 223
f 222 232 230
f 222 230 278
f 222 278 276
f 223 277 311
f 223 311 312
f 223 312 279
f 223 279 224
f 224 279 229
f 225 280 226
f 226 280 281
f 226 281 282
f 229 279 283
f 230 275 274
f 230 274 284
f 230 284 278
f 234 285 286
f 238 241 239
f 239 241 240
f 241 287 242
f 242 287 243
f 243 288 289
f 243 289 246
f 243 246 244
f 246 289 290
f 246 290 291
f 246 291 247
f 247 292 293
f 247 293 250
f 247 291 294
f 247 294 292
f 248 293 258
f 248 254 252
f 248 252 249
f 248 251 293
f 250 293 251
f 255 264 256
f 256 295 296
f 256 296 257
f 256 264 297
f 256 297 295
f 257 296 267
f 258 293 259
f 259 293 298
f 259 298 299
f 259 299 300
f 259 300 261
f 259 261 260
f 261 300 262
f 262 300 265
f 263 301 297
f 263 297 264
f 263 265 301
f 265 300 302
f 265 302 301
f 267 296 303
f 267 303 271
f 269 274 270
f 271 304 305
f 271 305 272
f 271 303 304
f 272 305 306
f 272 306 273
f 273 306 307
f 273 307 274
f 274 308 309
f 274 309 278
f 274 278 284
f 274 307 310
f 274 310 308
f 276 311 277
f 276 278 311
f 278 309 311
f 279 312 313
f 279 313 314
f 279 314 315
f 279 315 283
f 281 316 282
f 282 316 317
f 285 318 286
f 286 318 320
f 286 320 321
f 286 321 322
f 286 322 323
f 286 323 324
f 286 324 325
f 286 325 326
f 288 327 289
f 289 327 290
f 290 328 291
f 290 327 328
f 291 328 329
f 291 329 294
f 292 330 298
f 292 298 293
f 292 294 330
f 294 329 331
f 294 331 332
f 294 332 333
f 294 333 334
f 294 334 335
f 294 335 330
f 295 336 303
f 295 303 296
f 295 297 337
f 295 337 336
f 297 301 338
f 297 338 339
f 297 339 337
f 298 330 335
f 298 335 340
f 298 340 299
f 299 340 300
f 300 340 302
f 301 341 338
f 301 302 342
f 301 342 343
f 301 343 341
f 302 340 344
f 302 344 342
f 303 336 345
f 303 345 304
f 304 345 346
f 304 346 347
f 304 347 305
f 305 307 306
f 305 347 348
f 305 348 349
f 305 349 307
f 307 350 310
f 307 349 348
f 307 348 351
f 307 351 352
f 307 352 350
f 308 353 354
f 308 354 311
f 308 311 309
f 308 310 355
f 308 355 356
f 308 356 357
f 308 357 358
f 308 358 353
f 310 350 359
f 310 359 360
f 310 360 355
f 311 354 353
f 311 353 361
f 311 361 312
f 312 361 313
f 313 361 362
f 313 362 363
f 313 363 314
f 316 364 317
f 317 364 365
f 319 367 366
f 325 368 326
f 326 368 369
f 327 370 328
f 328 370 371
f 328 371 372
f 328 372 331
f 328 331 329
f 331 372 373
f 331 373 374
f 331 374 375
f 331 375 332
f 332 375 333
f 333 375 376
f 333 376 334
f 334 376 335
f 335 376 344
f 335 344 340
f 336 377 346
f 336 346 345
f 336 337 377
f 337 378 379
f 337 379 377
f 337 339 378
f 338 341 339
f 339 341 380
f 339 380 381
f 339 381 382
f 339 382 383
f 339 383 384
f 339 384 385
f 339 385 378
f 341 343 380
f 342 344 386
f 342 386 343
f 343 386 387
f 343 387 388
f 343 388 389
f 343 389 380
f 344 390 386
f 344 376 390
f 346 377 347
f 347 377 379
f 347 379 348
f 348 379 391
f 348 391 392
f 348 392 393
f 348 393 394
f 348 394 395
f 348 395 351
f 350 352 396
f 350 396 397
f 350 397 398
f 350 398 359
f 351 395 394
f 351 394 399
f 351 399 352
f 352 399 396
f 353 358 362
f 353 362 361
f 355 360 356
f 356 360 359
f 356 359 400
f 356 400 401
f 356 401 357
f 357 402 358
f 357 401 400
f 357 400 403
f 357 403 402
f 358 402 404
f 358 404 362
f 359 398 400
f 362 404 405
f 362 405 406
f 362 406 407
f 362 407 363
f 364 408 365
f 365 408 409
f 365 409 410
f 366 367 411
f 367 412 411
f 368 413 414
f 368 414 415
f 368 415 369
f 368 416 413
f 370 417 371
f 371 417 372
f 372 418 373
f 373 419 420
f 373 420 421
f 373 421 375
f 373 375 374
f 373 418 422
f 373 422 423
f 373 423 419
f 375 421 376
f 376 421 390
f 378 385 424
f 378 424 379
f 379 424 425
f 379 425 391
f 380 389 426
f 380 426 381
f 381 427 383
f 381 383 382
f 381 426 427
f 383 427 428
f 383 428 429
f 383 429 384
f 384 429 425
f 384 425 385
f 385 425 424
f 386 390 430
f 386 430 387
f 387 430 388
f 388 426 389
f 388 430 426
f 390 421 431
f 390 431 432
f 390 432 430
f 391 425 429
f 391 429 392
f 392 429 428
f 392 428 433
f 392 433 434
f 392 434 393
f 393 434 435
f 393 435 436
f 393 436 394
f 394 436 437
f 394 437 399
f 396 398 397
f 396 399 438
f 396 438 398
f 398 438 439
f 398 439 501
f 398 501 440
f 398 440 400
f 399 437 441
f 399 441 438
f 400 440 403
f 402 403 442
f 402 442 404
f 403 440 443
f 403 443 442
f 404 442 444
f 404 444 445
f 404 445 405
f 405 445 446
f 405 446 447
f 405 447 448
f 405 448 449
f 405 449 450
f 405 450 451
f 405 451 406
f 409 452 410
f 410 452 453
f 410 453 454
f 410 454 455
f 410 455 456
f 410 456 457
f 410 457 458
f 410 458 459
f 410 459 460
f 410 460 461
f 411 412 462
f 412 463 462
f 413 416 464
f 416 461 460
f 416 460 465
f 416 465 466
f 416 466 464
f 419 423 467
f 419 467 468
f 419 468 420
f 420 468 469
f 420 469 421
f 421 469 431
f 423 470 471
f 423 471 472
f 423 472 468
f 423 468 467
f 426 430 473
f 426 473 474
f 426 474 427
f 427 474 475
f 427 475 476
f 427 476 428
f 428 476 433
f 430 432 477
f 430 477 473
f 431 469 478
f 431 478 479
f 431 479 480
f 431 480 481
f 431 481 482
f 431 482 483
f 431 483 432
f 432 483 477
f 433 484 434
f 433 476 485
f 433 485 486
f 433 486 487
f 433 487 488
f 433 488 489
f 433 489 490
f 433 490 491
f 433 491 492
f 433 492 484
f 434 484 493
f 434 493 435
f 435 494 436
f 435 493 495
f 435 495 496
f 435 496 494
f 436 494 497
f 436 497 498
f 436 498 499
f 436 499 438
f 436 438 437
f 437 438 441
f 438 499 500
f 438 500 439
f 439 500 498
f 439 498 502
f 439 502 501
f 440 503 442
f 440 442 443
f 440 501 503
f 442 503 444
f 444 503 446
f 444 446 445
f 446 503 501
f 446 501 504
f 446 504 505
f 446 505 447
f 447 505 448
f 448 505 449
f 449 505 450
f 450 505 502
f 462 463 506
f 463 507 508
f 463 508 506
f 468 472 478
f 468 478 469
f 470 509 510
f 470 510 471
f 471 510 511
f 471 511 472
f 472 511 478
f 473 512 474
f 473 477 513
f 473 513 514
f 473 514 515
f 473 515 512
f 474 512 516
f 474 516 517
f 474 517 475
f 475 518 519
f 475 519 476
f 475 517 489
f 475 489 518
f 476 519 518
f 476 518 486
f 476 486 485
f 477 483 514
f 477 514 513
f 478 511 480
f 478 480 479
f 480 520 515
f 480 515 521
f 480 521 522
f 480 522 481
f 480 511 523
f 480 523 520
f 481 522 482
f 482 522 521
f 482 521 483
f 483 521 514
f 484 492 524
f 484 524 525
f 484 525 493
f 486 518 488
f 486 488 487
f 488 518 489
f 489 516 526
f 489 526 527
f 489 527 528
f 489 528 490
f 489 517 516
f 490 528 529
f 490 529 492
f 490 492 491
f 492 530 524
f 492 529 530
f 493 525 524
f 493 524 530
f 493 530 531
f 493 531 495
f 494 496 497
f 495 531 496
f 496 531 507
f 498 500 499
f 501 502 504
f 502 505 504
f 507 532 533
f 507 533 534
f 507 534 508
f 507 531 532
f 509 535 510
f 510 535 536
f 510 536 511
f 511 537 523
f 511 536 537
f 512 515 520
f 512 520 516
f 514 521 515
f 516 520 526
f 520 523 538
f 520 538 539
f 520 539 540
f 520 540 541
f 520 541 526
f 523 537 542
f 523 542 543
f 523 543 538
f 526 541 527
f 527 544 545
f 527 545 528
f 527 541 546
f 527 546 547
f 527 547 548
f 527 548 549
f 527 549 544
f 528 545 544
f 528 544 531
f 528 531 529
f 529 531 530
f 531 544 550
f 531 550 549
f 531 549 551
f 531 551 532
f 532 551 552
f 536 542 537
f 538 553 539
f 538 543 554
f 538 554 555
f 538 555 556
f 538 556 553
f 539 553 557
f 539 557 540
f 540 546 541
f 540 557 556
f 540 556 548
f 540 548 546
f 542 554 543
f 544 549 550
f 546 548 547
f 548 556 558
f 548 558 559
f 548 559 549
f 549 559 560
f 549 560 551
f 551 560 559
f 551 559 558
f 551 558 552
f 552 558 561
f 552 561 554
f 553 556 557
f 554 561 555
f 555 561 562
f 555 562 556
f 556 562 558
f 558 562 561

