# https://github.com/mikedh/trimesh
v 0.03740276 0.00254956 -0.03494334
v 0.03741050 0.00218958 -0.03494334
v 0.03559765 0.00254956 -0.03812349
v 0.02651277 0.00254956 -0.03494334
v 0.03462804 0.00068698 -0.03975853
v 0.03560281 0.00206185 -0.03812349
v 0.03479308 -0.00930173 -0.03494334
v 0.03487302 -0.00827754 -0.03608299
v 0.03363007 -0.01168452 -0.03786316
v 0.03354240 -0.00839366 -0.04029136
v 0.03359913 -0.00756224 -0.04039905
v 0.03504322 0.00206185 -0.03909646
v 0.03503549 0.00254956 -0.03907305
v 0.01980034 0.00254956 -0.04451004
v 0.01106875 -0.02117624 -0.04450816
v 0.01847229 -0.02117624 -0.03494334
v 0.03394210 0.00068698 -0.04074741
v 0.03457647 0.00206185 -0.03978287
v 0.03320974 -0.00756224 -0.04108640
v 0.03324584 -0.00618737 -0.04117162
v 0.03255732 -0.00618737 -0.04218391
v 0.03454295 -0.01028875 -0.03494334
v 0.03447332 -0.01030965 -0.03537410
v 0.03475956 -0.00917167 -0.03537410
v 0.03360429 -0.01279464 -0.03674880
v 0.03353208 -0.01252292 -0.03757661
v 0.03326132 -0.01301295 -0.03807012
v 0.03340573 -0.01168452 -0.03855051
v 0.03225561 -0.01544684 -0.03907118
v 0.03219114 -0.01118288 -0.04169509
v 0.03231750 -0.01030965 -0.04186084
v 0.03245159 -0.00893711 -0.04201910
v 0.03454553 0.00254956 -0.03975946
v 0.01177790 -0.02004289 -0.04451004
v 0.03100493 0.00254956 -0.04451004
v 0.01321941 -0.02117624 -0.04451004
v 0.03060007 -0.02117624 -0.03494334
v 0.03210347 -0.00523518 -0.04291527
v 0.03112613 -0.00230893 -0.04451004
v 0.03113644 -0.00206276 -0.04451004
v 0.03116996 -0.00099445 -0.04451004
v 0.03115965 0.00038739 -0.04451004
v 0.03114933 0.00066840 -0.04451004
v 0.03107197 0.00187838 -0.04451004
v 0.03105908 0.00206185 -0.04451004
v 0.03252122 -0.00756224 -0.04211274
v 0.03442433 -0.01073930 -0.03494334
v 0.03369970 -0.01317087 -0.03546400
v 0.03342120 -0.01348207 -0.03674880
v 0.03285388 -0.01443426 -0.03812349
v 0.03210862 -0.01783660 -0.03601837
v 0.03204931 -0.01636419 -0.03841848
v 0.03085020 -0.01950409 -0.03770959
v 0.03042987 -0.01995232 -0.03815065
v 0.03182496 -0.01586719 -0.03951692
v 0.03089920 -0.01272032 -0.04310256
v 0.03105134 -0.01168452 -0.04331139
v 0.03185849 -0.01030965 -0.04254912
v 0.03117254 -0.01030965 -0.04351085
v 0.03072385 -0.00946662 -0.04428529
v 0.03194874 -0.00893711 -0.04270645
v 0.02548644 -0.02117624 -0.04451004
v 0.03056396 -0.02117624 -0.03515403
v 0.03082699 -0.02077678 -0.03494334
v 0.03206994 -0.00618737 -0.04287126
v 0.03105392 -0.00358162 -0.04451004
v 0.03077542 -0.00855391 -0.04435646
v 0.03201579 -0.00756224 -0.04280009
v 0.03378738 -0.01313139 -0.03494334
v 0.03347793 -0.01370270 -0.03598185
v 0.03218598 -0.01801311 -0.03510159
v 0.03187654 -0.01850546 -0.03548554
v 0.03067227 -0.02046325 -0.03674880
v 0.03028288 -0.02117624 -0.03674880
v 0.02978261 -0.02117624 -0.03811319
v 0.03064906 -0.01904658 -0.03862636
v 0.03090693 -0.01668236 -0.04034005
v 0.03069290 -0.01363535 -0.04284598
v 0.02808322 -0.01667539 -0.04441639
v 0.02817348 -0.01626433 -0.04451004
v 0.02890584 -0.01446910 -0.04451004
v 0.02912503 -0.01392101 -0.04451004
v 0.02925139 -0.01358890 -0.04451004
v 0.03044534 -0.01168452 -0.04399874
v 0.03017715 -0.01102031 -0.04451004
v 0.03037314 -0.01030269 -0.04451004
v 0.03064390 -0.01030965 -0.04419820
v 0.03057170 -0.00928779 -0.04451004
v 0.03064390 -0.00867700 -0.04451004
v 0.02559733 -0.02104618 -0.04451004
v 0.02574689 -0.02117624 -0.04420756
v 0.03073416 -0.02060957 -0.03602586
v 0.03049434 -0.02117624 -0.03555202
v 0.03121380 -0.02001735 -0.03494334
v 0.03140721 -0.00756224 -0.04362229
v 0.03087341 -0.00618737 -0.04448756
v 0.03095593 -0.00488449 -0.04451004
v 0.03068001 -0.00834954 -0.04451004
v 0.03355787 -0.01392101 -0.03494334
v 0.03219888 -0.01803865 -0.03494334
v 0.03189717 -0.01864480 -0.03494334
v 0.03109776 -0.02006380 -0.03549022
v 0.02966914 -0.02117624 -0.03830610
v 0.02819411 -0.02117624 -0.04081202
v 0.02799812 -0.02063511 -0.04156961
v 0.02699242 -0.01988962 -0.04362229
v 0.02669586 -0.01940423 -0.04442856
v 0.02784856 -0.01759043 -0.04409707
v 0.02667266 -0.01933224 -0.04451004
v 0.02796202 -0.01675668 -0.04451004
v 0.02995280 -0.01168452 -0.04451004
v 0.03049434 -0.00970815 -0.04451004
v 0.02621364 -0.02014508 -0.04451004
v 0.02644315 -0.02031926 -0.04408114
v 0.02609502 -0.02117624 -0.04377305
v 0.03074963 -0.00756224 -0.04451004
v 0.03088888 -0.00576004 -0.04451004
v 0.02732508 -0.02117624 -0.04213054
v 0.02719872 -0.02117624 -0.04231782
v 0.02677323 -0.02089290 -0.04316530
v 0.02659014 -0.01948087 -0.04451004
v 0.02634258 -0.02117624 -0.04346122
f 1 2 3
f 1 3 13
f 1 13 33
f 1 33 35
f 1 35 14
f 1 14 4
f 1 4 16
f 1 16 37
f 1 37 64
f 1 64 94
f 1 94 101
f 1 101 100
f 1 100 99
f 1 99 69
f 1 69 47
f 1 47 22
f 1 22 7
f 1 7 2
f 2 5 6
f 2 6 3
f 2 7 8
f 2 8 9
f 2 9 10
f 2 10 11
f 2 11 5
f 3 6 12
f 3 12 13
f 4 14 15
f 4 15 16
f 5 17 18
f 5 18 12
f 5 12 6
f 5 11 19
f 5 19 20
f 5 20 21
f 5 21 17
f 7 22 23
f 7 23 24
f 7 24 8
f 8 24 23
f 8 23 25
f 8 25 26
f 8 26 9
f 9 26 27
f 9 27 28
f 9 28 10
f 10 28 29
f 10 29 30
f 10 30 31
f 10 31 32
f 10 32 19
f 10 19 11
f 12 18 13
f 13 18 33
f 14 34 15
f 14 35 45
f 14 45 44
f 14 44 43
f 14 43 42
f 14 42 41
f 14 41 40
f 14 40 39
f 14 39 66
f 14 66 97
f 14 97 117
f 14 117 116
f 14 116 98
f 14 98 89
f 14 89 88
f 14 88 112
f 14 112 86
f 14 86 85
f 14 85 111
f 14 111 83
f 14 83 82
f 14 82 81
f 14 81 80
f 14 80 110
f 14 110 109
f 14 109 121
f 14 121 113
f 14 113 90
f 14 90 62
f 14 62 36
f 14 36 34
f 15 34 36
f 15 36 62
f 15 62 91
f 15 91 115
f 15 115 122
f 15 122 119
f 15 119 118
f 15 118 104
f 15 104 103
f 15 103 75
f 15 75 74
f 15 74 93
f 15 93 63
f 15 63 37
f 15 37 16
f 17 21 38
f 17 38 39
f 17 39 40
f 17 40 41
f 17 41 42
f 17 42 43
f 17 43 18
f 18 43 44
f 18 44 45
f 18 45 33
f 19 32 46
f 19 46 20
f 20 46 21
f 21 46 38
f 22 47 23
f 23 47 48
f 23 48 25
f 25 48 49
f 25 49 26
f 26 49 50
f 26 50 27
f 27 50 29
f 27 29 28
f 29 50 51
f 29 51 52
f 29 52 53
f 29 53 54
f 29 54 55
f 29 55 56
f 29 56 30
f 30 56 57
f 30 57 31
f 31 58 32
f 31 57 58
f 32 58 59
f 32 59 60
f 32 60 61
f 32 61 46
f 33 45 35
f 37 63 64
f 38 46 65
f 38 65 66
f 38 66 39
f 46 61 67
f 46 67 68
f 46 68 65
f 47 69 48
f 48 70 49
f 48 69 70
f 49 70 51
f 49 51 50
f 51 70 71
f 51 71 72
f 51 72 73
f 51 73 53
f 51 53 52
f 53 73 74
f 53 74 75
f 53 75 54
f 54 75 76
f 54 76 55
f 55 76 77
f 55 77 78
f 55 78 56
f 56 78 79
f 56 79 80
f 56 80 81
f 56 81 82
f 56 82 83
f 56 83 84
f 56 84 57
f 57 84 85
f 57 85 86
f 57 86 87
f 57 87 59
f 57 59 58
f 59 87 60
f 60 87 88
f 60 88 89
f 60 89 67
f 60 67 61
f 62 90 91
f 63 92 64
f 63 93 92
f 64 92 94
f 65 68 95
f 65 95 96
f 65 96 97
f 65 97 66
f 67 89 98
f 67 98 68
f 68 98 95
f 69 99 70
f 70 99 71
f 71 100 101
f 71 101 94
f 71 94 72
f 71 99 100
f 72 94 102
f 72 102 92
f 72 92 73
f 73 92 74
f 74 92 93
f 75 103 76
f 76 103 104
f 76 104 77
f 77 104 105
f 77 105 106
f 77 106 107
f 77 107 108
f 77 108 78
f 78 108 79
f 79 108 107
f 79 107 109
f 79 109 110
f 79 110 80
f 83 111 84
f 84 111 85
f 86 112 87
f 87 112 88
f 90 113 114
f 90 114 115
f 90 115 91
f 92 102 94
f 95 98 116
f 95 116 96
f 96 116 117
f 96 117 97
f 104 118 105
f 105 118 119
f 105 119 120
f 105 120 106
f 106 120 107
f 107 120 114
f 107 114 121
f 107 121 109
f 113 121 114
f 114 120 122
f 114 122 115
f 119 122 120

