# https://github.com/mikedh/trimesh
v -0.04612701 -0.00343726 -0.03533977
v -0.04609816 -0.00450251 -0.03533977
v -0.04612316 -0.00206273 -0.03533977
v -0.04531350 0.00068631 -0.03949830
v -0.04521927 -0.00481178 -0.03949830
v -0.04516157 -0.00619012 -0.03949830
v -0.04608470 -0.00481178 -0.03533977
v -0.04612124 -0.00163510 -0.03533977
v -0.04611162 -0.00068821 -0.03533977
v -0.04606354 0.00068631 -0.03533977
v -0.04525773 0.00206084 -0.03949830
v -0.04499618 0.00254956 -0.04038876
v -0.04499041 -0.00481178 -0.04053773
v -0.04494425 -0.00619012 -0.04036281
v -0.04490002 -0.00706829 -0.04024733
v -0.04503080 -0.00754174 -0.03956023
v -0.04536351 -0.00756465 -0.03812329
v -0.04600585 -0.00616721 -0.03533977
v -0.04605393 0.00085813 -0.03533977
v -0.04522888 0.00254956 -0.03949830
v -0.04455385 0.00254956 -0.04107585
v -0.04408267 -0.00343726 -0.04224750
v -0.04472693 -0.00343726 -0.04120139
v -0.04473078 -0.00481178 -0.04122482
v -0.04462693 -0.00619012 -0.04105074
v -0.04456539 -0.00754174 -0.04077206
v -0.04429807 -0.00893917 -0.04087249
v -0.04408267 -0.01031369 -0.04087249
v -0.04483271 -0.00798464 -0.04005902
v -0.04499041 -0.00893917 -0.03917944
v -0.04586353 -0.00756083 -0.03533977
v -0.04586738 -0.00752646 -0.03533977
v -0.04520773 -0.00893917 -0.03812329
v -0.04597892 0.00196920 -0.03533977
v -0.04591738 0.00254956 -0.03533977
v -0.04597315 0.00203793 -0.03533977
v -0.04410960 0.00254956 -0.04173867
v -0.04356534 0.00254956 -0.04254209
v -0.04339610 0.00254956 -0.04278563
v -0.04301723 0.00254956 -0.04332961
v -0.04262106 0.00254956 -0.04388866
v -0.04352688 -0.00265072 -0.04296891
v -0.04354226 -0.00343726 -0.04298648
v -0.04408459 -0.00481178 -0.04224750
v -0.04386728 -0.00615958 -0.04234709
v -0.04383266 -0.00756465 -0.04207175
v -0.04361919 -0.01031369 -0.04174871
v -0.04354418 -0.01126059 -0.04163155
v -0.04345956 -0.01217694 -0.04144994
v -0.04492887 -0.00978297 -0.03896938
v -0.04475963 -0.00893917 -0.03986570
v -0.04568083 -0.00890481 -0.03533977
v -0.03997862 0.00254956 -0.03533977
v -0.03083584 0.00254956 -0.04388866
v -0.04282876 -0.00343726 -0.04388866
v -0.04354034 -0.00481178 -0.04298648
v -0.04352495 -0.00568231 -0.04296891
v -0.04345764 -0.00659866 -0.04287183
v -0.04338456 -0.00756465 -0.04275968
v -0.04327878 -0.00893917 -0.04259816
v -0.04247297 -0.01031369 -0.04342251
v -0.04307685 -0.01170731 -0.04215294
v -0.04243836 -0.00884753 -0.04388866
v -0.04239220 -0.00909953 -0.04388866
v -0.04329032 -0.01308565 -0.04094362
v -0.04359996 -0.01264275 -0.04053354
v -0.04218642 -0.01258166 -0.04301577
v -0.04204988 -0.01349801 -0.04281910
v -0.04230374 -0.01443726 -0.04183826
v -0.04214219 -0.01516653 -0.04158803
v -0.04417114 -0.01168822 -0.03949830
v -0.04469616 -0.01302074 -0.03537325
v -0.04471155 -0.01298638 -0.03533977
v -0.04502310 -0.01177985 -0.03533977
v -0.04538658 -0.01031369 -0.03533977
v -0.04567506 -0.00893917 -0.03533977
v -0.03723617 0.00254956 -0.03534396
v -0.03724001 0.00254574 -0.03533977
v -0.02668371 -0.01616687 -0.04388866
v -0.03683615 0.00254956 -0.03585446
v -0.02647985 -0.02584963 -0.03533977
v -0.02647985 -0.02581145 -0.03537492
v -0.04280376 -0.00481178 -0.04388866
v -0.04279607 -0.00517068 -0.04388866
v -0.04275376 -0.00617103 -0.04388866
v -0.04272106 -0.00672466 -0.04388866
v -0.04262683 -0.00756465 -0.04388866
v -0.04258452 -0.00789682 -0.04388866
v -0.04213257 -0.01031369 -0.04388866
v -0.04231335 -0.01168822 -0.04317897
v -0.04083443 -0.01945046 -0.04037955
v -0.04213065 -0.01651814 -0.04020548
v -0.04422306 -0.01443726 -0.03537408
v -0.04252875 -0.01867156 -0.03548037
v -0.04127484 -0.01340255 -0.04388866
v -0.04174794 -0.01173785 -0.04388866
v -0.04099982 -0.01419672 -0.04388866
v -0.04086712 -0.01456708 -0.04388866
v -0.04092867 -0.01553307 -0.04321412
v -0.04185948 -0.01443726 -0.04252535
v -0.04143446 -0.01580797 -0.04224416
v -0.04081904 -0.01803012 -0.04166837
v -0.04061519 -0.01894647 -0.04129595
v -0.04423845 -0.01441436 -0.03533977
v -0.04469809 -0.01303220 -0.03533977
v -0.03706885 0.00254956 -0.03555653
v -0.02647985 -0.01730085 -0.04388866
v -0.02647985 -0.03441749 -0.03533977
v -0.04179602 -0.01156604 -0.04388866
v -0.04039595 -0.01992009 -0.04085156
v -0.03953244 -0.02223387 -0.04045236
v -0.04029017 -0.02130607 -0.03949830
v -0.04066904 -0.02042790 -0.03949830
v -0.04423075 -0.01443726 -0.03533977
v -0.04256529 -0.01866011 -0.03533977
v -0.04243259 -0.01898083 -0.03533977
v -0.04052672 -0.01535743 -0.04388866
v -0.04043633 -0.01591870 -0.04365181
v -0.04072673 -0.01644941 -0.04289944
v -0.03948052 -0.02082498 -0.04169097
v -0.03974591 -0.02129079 -0.04089508
v -0.02647985 -0.02919430 -0.04388866
v -0.02732990 -0.03598674 -0.03533977
v -0.02647985 -0.03645637 -0.03534479
v -0.03922665 -0.02174133 -0.04136876
v -0.03798621 -0.02335258 -0.04154117
v -0.03827660 -0.02370003 -0.04062476
v -0.03788812 -0.02461638 -0.03991257
v -0.03806698 -0.02483401 -0.03899700
v -0.03919011 -0.02313494 -0.03949830
v -0.03968245 -0.02244768 -0.03949830
v -0.04203257 -0.01979791 -0.03533977
v -0.04013439 -0.01615160 -0.04388866
v -0.03959398 -0.01828211 -0.04320073
v -0.03869586 -0.02132515 -0.04225755
v -0.03934589 -0.01919846 -0.04290363
v -0.03880548 -0.01864102 -0.04388866
v -0.02647985 -0.03227171 -0.04388615
v -0.02766645 -0.03153863 -0.04388866
v -0.02736451 -0.03596765 -0.03533977
v -0.02735874 -0.03596383 -0.03537408
v -0.02647985 -0.03545984 -0.03949830
v -0.03789966 -0.02182533 -0.04282413
v -0.03643805 -0.02268441 -0.04388866
v -0.03695154 -0.02268441 -0.04330116
v -0.03669960 -0.02346712 -0.04302163
v -0.03699000 -0.02397875 -0.04217469
v -0.03589187 -0.02537236 -0.04218808
v -0.03671114 -0.02485692 -0.04166754
v -0.03543800 -0.02635362 -0.04179223
v -0.03378407 -0.02875140 -0.04134198
v -0.03528030 -0.02752960 -0.04025569
v -0.03620150 -0.02677362 -0.03957697
v -0.03508221 -0.02867122 -0.03840030
v -0.03677268 -0.02629635 -0.03917108
v -0.03563993 -0.02819777 -0.03801449
v -0.03640728 -0.02723561 -0.03812329
v -0.03657460 -0.02743033 -0.03723952
v -0.03798044 -0.02609399 -0.03597246
v -0.03927089 -0.02457819 -0.03533977
v -0.04042672 -0.02261950 -0.03544103
v -0.04072288 -0.02194751 -0.03594401
v -0.04064403 -0.02178715 -0.03674826
v -0.04119214 -0.02134806 -0.03533977
v -0.03970937 -0.01698777 -0.04388866
v -0.03982284 -0.01714431 -0.04364428
v -0.03950744 -0.01736576 -0.04388866
v -0.03910742 -0.01810266 -0.04388866
v -0.03708616 -0.02158479 -0.04388866
v -0.02647985 -0.03313461 -0.04306850
v -0.02700680 -0.03299715 -0.04293794
v -0.02881074 -0.03067192 -0.04388866
v -0.02805301 -0.03552857 -0.03533977
v -0.02804724 -0.03552475 -0.03537408
v -0.02848380 -0.03444040 -0.03900705
v -0.02773953 -0.03473440 -0.03947822
v -0.02731451 -0.03457785 -0.04053187
v -0.02647985 -0.03496348 -0.04076285
v -0.03668807 -0.02226060 -0.04388866
v -0.03569186 -0.02382221 -0.04388866
v -0.03533799 -0.02430711 -0.04388866
v -0.03485143 -0.02494092 -0.04388866
v -0.03542646 -0.02497146 -0.04315219
v -0.03506875 -0.02588781 -0.04270863
v -0.03461488 -0.02687289 -0.04231195
v -0.03415909 -0.02783505 -0.04191609
v -0.03286672 -0.02928976 -0.04198639
v -0.03243785 -0.03020610 -0.04146752
v -0.03320904 -0.02959520 -0.04094613
v -0.03397639 -0.02898431 -0.04042558
v -0.03527068 -0.02888885 -0.03748389
v -0.03668999 -0.02757160 -0.03632312
v -0.03758042 -0.02672780 -0.03545777
v -0.03772658 -0.02657889 -0.03533977
v -0.03838430 -0.02575036 -0.03533977
v -0.03851123 -0.02555563 -0.03545777
v -0.03862278 -0.02544109 -0.03533977
v -0.04052287 -0.02249350 -0.03533977
v -0.04105367 -0.02158861 -0.03533977
v -0.02647985 -0.03377605 -0.04236718
v -0.02647985 -0.03444040 -0.04161314
v -0.02689141 -0.03428386 -0.04144827
v -0.03246093 -0.02883540 -0.04290279
v -0.03149357 -0.02844977 -0.04388866
v -0.02881651 -0.03499021 -0.03533977
v -0.02822994 -0.03424186 -0.03992261
v -0.02913383 -0.03476494 -0.03533977
v -0.02915499 -0.03474967 -0.03533977
v -0.02964540 -0.03428768 -0.03575069
v -0.03085508 -0.03281388 -0.03812329
v -0.03425140 -0.02569690 -0.04388866
v -0.03460527 -0.02548309 -0.04367274
v -0.03415140 -0.02647198 -0.04327605
v -0.03378792 -0.02738833 -0.04283249
v -0.03167627 -0.03212662 -0.03812329
v -0.03263594 -0.03037410 -0.04055028
v -0.03546877 -0.02913703 -0.03533977
v -0.03617265 -0.02838486 -0.03533977
v -0.03680538 -0.02769760 -0.03533977
v -0.03680153 -0.02769378 -0.03537408
v -0.03371868 -0.03009156 -0.03837938
v -0.03388600 -0.03025574 -0.03746297
v -0.03758426 -0.02675452 -0.03533977
v -0.03854970 -0.02553654 -0.03533977
v -0.03346098 -0.02659416 -0.04388866
v -0.03208975 -0.02792287 -0.04388866
v -0.03182243 -0.02817105 -0.04388866
v -0.03037620 -0.03377605 -0.03533977
v -0.03058199 -0.03360423 -0.03533977
v -0.03249362 -0.03161117 -0.03725458
v -0.03236477 -0.03148899 -0.03812329
v -0.03478797 -0.02980520 -0.03533977
v -0.03408409 -0.03047337 -0.03533977
v -0.03162242 -0.03269552 -0.03533977
v -0.03267825 -0.03174863 -0.03533977
v -0.03334751 -0.03114155 -0.03533977
f 1 2 7
f 1 7 18
f 1 18 32
f 1 32 31
f 1 31 52
f 1 52 76
f 1 76 75
f 1 75 74
f 1 74 73
f 1 73 105
f 1 105 104
f 1 104 114
f 1 114 115
f 1 115 116
f 1 116 132
f 1 132 164
f 1 164 199
f 1 199 198
f 1 198 160
f 1 160 197
f 1 197 224
f 1 224 195
f 1 195 194
f 1 194 223
f 1 223 219
f 1 219 218
f 1 218 217
f 1 217 232
f 1 232 233
f 1 233 236
f 1 236 235
f 1 235 234
f 1 234 229
f 1 229 228
f 1 228 208
f 1 208 207
f 1 207 205
f 1 205 173
f 1 173 140
f 1 140 123
f 1 123 108
f 1 108 81
f 1 81 78
f 1 78 53
f 1 53 35
f 1 35 36
f 1 36 34
f 1 34 19
f 1 19 10
f 1 10 9
f 1 9 8
f 1 8 3
f 1 3 4
f 1 4 5
f 1 5 2
f 2 5 6
f 2 6 7
f 3 8 4
f 4 8 9
f 4 9 10
f 4 10 11
f 4 11 12
f 4 12 13
f 4 13 5
f 5 13 6
f 6 13 14
f 6 14 15
f 6 15 16
f 6 16 17
f 6 17 7
f 7 17 18
f 10 19 11
f 11 19 20
f 11 20 12
f 12 20 35
f 12 35 53
f 12 53 77
f 12 77 106
f 12 106 80
f 12 80 54
f 12 54 41
f 12 41 40
f 12 40 39
f 12 39 38
f 12 38 37
f 12 37 21
f 12 21 22
f 12 22 23
f 12 23 24
f 12 24 13
f 13 24 14
f 14 24 15
f 15 24 25
f 15 25 26
f 15 26 27
f 15 27 28
f 15 28 29
f 15 29 30
f 15 30 16
f 16 30 17
f 17 31 32
f 17 32 18
f 17 30 33
f 17 33 31
f 19 34 20
f 20 34 36
f 20 36 35
f 21 37 22
f 22 37 38
f 22 38 39
f 22 39 40
f 22 40 41
f 22 41 42
f 22 42 43
f 22 43 44
f 22 44 24
f 22 24 23
f 24 44 45
f 24 45 46
f 24 46 47
f 24 47 25
f 25 47 48
f 25 48 26
f 26 48 27
f 27 48 28
f 28 48 49
f 28 49 50
f 28 50 51
f 28 51 29
f 29 51 30
f 30 51 50
f 30 50 33
f 31 33 52
f 33 50 52
f 41 54 79
f 41 79 107
f 41 107 122
f 41 122 139
f 41 139 172
f 41 172 204
f 41 204 227
f 41 227 226
f 41 226 225
f 41 225 211
f 41 211 182
f 41 182 181
f 41 181 180
f 41 180 144
f 41 144 179
f 41 179 169
f 41 169 137
f 41 137 168
f 41 168 167
f 41 167 165
f 41 165 133
f 41 133 117
f 41 117 98
f 41 98 97
f 41 97 95
f 41 95 96
f 41 96 109
f 41 109 89
f 41 89 64
f 41 64 63
f 41 63 88
f 41 88 87
f 41 87 86
f 41 86 85
f 41 85 84
f 41 84 83
f 41 83 55
f 41 55 43
f 41 43 42
f 43 55 56
f 43 56 44
f 44 56 57
f 44 57 45
f 45 57 58
f 45 58 59
f 45 59 46
f 46 59 60
f 46 60 47
f 47 60 48
f 48 61 62
f 48 62 49
f 48 60 63
f 48 63 64
f 48 64 61
f 49 65 66
f 49 66 50
f 49 62 67
f 49 67 68
f 49 68 69
f 49 69 70
f 49 70 65
f 50 66 71
f 50 71 72
f 50 72 73
f 50 73 74
f 50 74 75
f 50 75 76
f 50 76 52
f 53 78 77
f 54 80 81
f 54 81 82
f 54 82 79
f 55 83 56
f 56 83 84
f 56 84 57
f 57 84 85
f 57 85 86
f 57 86 87
f 57 87 88
f 57 88 58
f 58 88 59
f 59 88 63
f 59 63 60
f 61 89 62
f 61 64 89
f 62 89 90
f 62 90 67
f 65 70 91
f 65 91 92
f 65 92 66
f 66 93 71
f 66 92 94
f 66 94 93
f 67 95 68
f 67 90 96
f 67 96 95
f 68 95 97
f 68 97 98
f 68 98 99
f 68 99 100
f 68 100 69
f 69 100 101
f 69 101 70
f 70 101 102
f 70 102 103
f 70 103 91
f 71 93 72
f 72 93 104
f 72 104 105
f 72 105 73
f 77 78 81
f 77 81 106
f 79 82 107
f 80 106 81
f 81 108 124
f 81 124 142
f 81 142 178
f 81 178 201
f 81 201 200
f 81 200 170
f 81 170 138
f 81 138 122
f 81 122 107
f 81 107 82
f 89 109 90
f 90 109 96
f 91 103 110
f 91 110 111
f 91 111 112
f 91 112 113
f 91 113 92
f 92 113 94
f 93 114 104
f 93 94 115
f 93 115 114
f 94 113 112
f 94 112 116
f 94 116 115
f 98 117 99
f 99 117 118
f 99 118 119
f 99 119 100
f 100 119 101
f 101 119 102
f 102 119 120
f 102 120 103
f 103 120 121
f 103 121 110
f 108 123 124
f 110 121 111
f 111 125 126
f 111 126 127
f 111 127 128
f 111 128 129
f 111 129 130
f 111 130 131
f 111 131 112
f 111 121 125
f 112 132 116
f 112 131 132
f 117 133 118
f 118 133 134
f 118 134 120
f 118 120 119
f 120 135 125
f 120 125 121
f 120 134 136
f 120 136 137
f 120 137 135
f 122 138 139
f 123 140 124
f 124 140 141
f 124 141 142
f 125 143 144
f 125 144 145
f 125 145 146
f 125 146 126
f 125 135 143
f 126 146 147
f 126 147 148
f 126 148 149
f 126 149 127
f 127 149 150
f 127 150 151
f 127 151 128
f 128 151 152
f 128 152 153
f 128 153 154
f 128 154 155
f 128 155 156
f 128 156 157
f 128 157 129
f 129 157 158
f 129 158 159
f 129 159 130
f 130 159 160
f 130 160 131
f 131 161 162
f 131 162 163
f 131 163 164
f 131 164 132
f 131 160 161
f 133 165 166
f 133 166 134
f 134 166 165
f 134 165 167
f 134 167 168
f 134 168 136
f 135 137 143
f 136 168 137
f 137 169 143
f 138 170 171
f 138 171 139
f 139 171 172
f 140 173 174
f 140 174 141
f 141 174 175
f 141 175 142
f 142 175 176
f 142 176 177
f 142 177 178
f 143 169 179
f 143 179 144
f 144 180 146
f 144 146 145
f 146 180 181
f 146 181 182
f 146 182 183
f 146 183 147
f 147 183 148
f 148 183 184
f 148 184 185
f 148 185 150
f 148 150 149
f 150 185 186
f 150 186 151
f 151 186 187
f 151 187 188
f 151 188 189
f 151 189 190
f 151 190 152
f 152 190 154
f 152 154 153
f 154 190 191
f 154 191 156
f 154 156 155
f 156 191 157
f 157 191 158
f 158 191 192
f 158 192 159
f 159 192 193
f 159 193 194
f 159 194 195
f 159 195 196
f 159 196 160
f 160 196 197
f 160 198 161
f 161 198 162
f 162 199 164
f 162 164 163
f 162 198 199
f 170 200 171
f 171 200 201
f 171 201 202
f 171 202 188
f 171 188 203
f 171 203 172
f 172 203 204
f 173 205 175
f 173 175 174
f 175 206 176
f 175 205 207
f 175 207 208
f 175 208 209
f 175 209 210
f 175 210 188
f 175 188 206
f 176 206 177
f 177 202 178
f 177 206 188
f 177 188 202
f 178 202 201
f 182 211 212
f 182 212 183
f 183 212 184
f 184 212 213
f 184 213 185
f 185 214 186
f 185 213 214
f 186 214 187
f 187 214 203
f 187 203 188
f 188 210 215
f 188 215 216
f 188 216 191
f 188 191 189
f 189 191 190
f 191 217 218
f 191 218 219
f 191 219 220
f 191 220 192
f 191 216 221
f 191 221 222
f 191 222 217
f 192 220 193
f 193 220 223
f 193 223 194
f 195 224 196
f 196 224 197
f 203 214 211
f 203 211 225
f 203 225 226
f 203 226 227
f 203 227 204
f 208 228 209
f 209 228 210
f 210 228 229
f 210 229 215
f 211 214 213
f 211 213 212
f 215 230 231
f 215 231 216
f 215 229 230
f 216 231 222
f 216 222 221
f 217 222 232
f 219 223 220
f 222 231 230
f 222 230 233
f 222 233 232
f 229 234 230
f 230 234 235
f 230 235 236
f 230 236 233

