# https://github.com/mikedh/trimesh
v -0.02054474 0.01883665 -0.04362630
v -0.03147746 0.00254956 -0.04362630
v -0.03738259 0.01883665 -0.04362630
v -0.02411707 0.01883665 -0.04145803
v -0.04789482 0.01859432 0.05039350
v -0.04731345 0.01859432 0.04987681
v -0.04727323 0.01859432 0.04983067
v -0.04667723 0.01859432 0.04906486
v -0.04647612 0.01859432 0.04879728
v -0.04605198 0.01859432 0.04808683
v -0.04548889 0.01859432 0.04708112
v -0.04499893 0.01859432 0.04615845
v -0.04480148 0.01859432 0.04576171
v -0.04471738 0.01859432 0.04558640
v -0.04422742 0.01859432 0.04432235
v -0.04386543 0.01859432 0.04300293
v -0.04272463 0.01859432 0.03882325
v -0.04237727 0.01859432 0.03754074
v -0.04842134 0.00254956 0.04160971
v -0.04807398 0.00254956 0.04023493
v -0.04777415 0.00254956 0.03887861
v -0.04766812 0.00254956 0.03837114
v -0.04659679 0.00254956 0.03300122
v -0.04629696 0.00254956 0.03149727
v -0.04279410 0.00254956 -0.04362630
v -0.03745572 0.01872823 -0.04362630
v -0.03743743 0.01883665 -0.04357094
v -0.02822323 0.01883665 -0.03912368
v -0.04843597 0.01859432 0.05057803
v -0.04898078 0.01645480 0.05055035
v -0.05243244 0.00254956 0.04984913
v -0.05148543 0.00254956 0.04939702
v -0.05118560 0.00254956 0.04900027
v -0.05081265 0.00254956 0.04846512
v -0.05054207 0.00254956 0.04800379
v -0.05039581 0.00254956 0.04771776
v -0.04911606 0.00254956 0.04387947
v -0.04879796 0.00254956 0.04290144
v -0.04998264 0.00254956 0.04648139
v -0.04280141 0.00341684 -0.04362630
v -0.04280507 0.00254956 -0.04361707
v -0.03800418 0.01788486 -0.04362630
v -0.03758369 0.01883665 -0.04341409
v -0.04024557 0.01883665 -0.03912368
v -0.04968281 0.01859432 0.05061494
v -0.04968281 0.01855924 0.05061494
v -0.04968281 0.01718498 0.05060571
v -0.05518208 0.00343916 0.05060571
v -0.05440691 0.00343916 0.05056880
v -0.05447639 0.00269942 0.05055035
v -0.05432282 0.00254956 0.05047654
v -0.04280141 0.00343757 -0.04362630
v -0.04280872 0.00343757 -0.04361707
v -0.04301349 0.00254956 -0.04332182
v -0.04339741 0.00343757 -0.04279590
v -0.03818334 0.01819894 -0.04317419
v -0.03855264 0.01690758 -0.04362630
v -0.03830766 0.01883665 -0.04253755
v -0.04081597 0.01798371 -0.03901296
v -0.04064778 0.01859432 -0.03811798
v -0.04154360 0.01859432 -0.03399365
v -0.04177396 0.01859432 -0.03265578
v -0.04436637 0.01859432 -0.01749636
v -0.04646150 0.01859432 -0.00512339
v -0.04686005 0.01859432 -0.00274291
v -0.04737926 0.01859432 0.00038493
v -0.04920747 0.01859432 0.01145694
v -0.05056035 0.01859432 0.01974249
v -0.05151468 0.01859432 0.02562911
v -0.05165362 0.01859432 0.02648719
v -0.05186204 0.01859432 0.02786196
v -0.05204486 0.01859432 0.02917215
v -0.05415096 0.01859432 0.04440539
v -0.05431550 0.01859432 0.04573403
v -0.05427894 0.01859432 0.04710880
v -0.05426431 0.01859432 0.04719184
v -0.05401568 0.01859432 0.04835440
v -0.05396449 0.01859432 0.04851126
v -0.05345990 0.01859432 0.04961846
v -0.05258967 0.01859432 0.05031046
v -0.05191689 0.01859432 0.05057803
v -0.05102472 0.01859432 0.05061494
v -0.04015416 0.01883665 -0.03948352
v -0.05518208 0.00481342 0.05061494
v -0.05566473 0.00254956 0.05058726
v -0.05521499 0.00254956 0.05058726
v -0.05498463 0.00254956 0.05057803
v -0.05468846 0.00254956 0.05055958
v -0.05453123 0.00254956 0.05054113
v -0.04272829 0.00481342 -0.04362630
v -0.04356195 0.00254956 -0.04253755
v -0.04388006 0.00343757 -0.04210390
v -0.04385081 0.00481342 -0.04205777
v -0.04078307 0.01381628 -0.04297121
v -0.03915595 0.01718179 -0.04264827
v -0.03868793 0.01856243 -0.04224230
v -0.03859652 0.01883665 -0.04215926
v -0.03910111 0.01590318 -0.04362630
v -0.04035892 0.01848909 -0.03947430
v -0.04065509 0.01769515 -0.03992640
v -0.04225660 0.01538983 -0.03913291
v -0.04239920 0.01702077 -0.03392907
v -0.04157651 0.01855605 -0.03392907
v -0.04277216 0.01718498 -0.03124410
v -0.04357658 0.01663974 -0.02825466
v -0.04504646 0.01819894 -0.01473759
v -0.04487095 0.01787052 -0.01679513
v -0.04487461 0.01650104 -0.02093791
v -0.04762058 0.01787530 -0.00030707
v -0.04624942 0.01787530 -0.00856494
v -0.04906122 0.01801241 0.00889192
v -0.04898809 0.01784979 0.00798771
v -0.05184742 0.01812082 0.02648719
v -0.05242513 0.01718498 0.02786196
v -0.05314179 0.01654727 0.03114666
v -0.05292606 0.01737948 0.03198629
v -0.05308695 0.01778283 0.03429295
v -0.05451295 0.01791834 0.04490363
v -0.05456780 0.01803792 0.04573403
v -0.05455683 0.01800444 0.04710880
v -0.05449467 0.01787371 0.04780080
v -0.05467749 0.01716107 0.04834518
v -0.05437035 0.01760587 0.04871424
v -0.05458242 0.01668916 0.04927707
v -0.05346721 0.01855924 0.04962769
v -0.05260795 0.01855924 0.05031046
v -0.05283099 0.01757558 0.05048577
v -0.05105762 0.01855924 0.05061494
v -0.05316007 0.01665887 0.05056880
v -0.03962764 0.01883665 -0.04068299
v -0.05243244 0.01580912 0.05061494
v -0.05453855 0.01259507 0.05056880
v -0.05593165 0.00481342 0.05057803
v -0.05593165 0.00254956 0.05057803
v -0.04250890 0.00609363 -0.04362630
v -0.04410676 0.00254956 -0.04173483
v -0.04456747 0.00343757 -0.04108897
v -0.04453822 0.00481342 -0.04099670
v -0.04373015 0.00618928 -0.04188246
v -0.03989821 0.01428340 -0.04362630
v -0.04094395 0.01305900 -0.04312806
v -0.04187268 0.01168633 -0.04253755
v -0.04166061 0.01300161 -0.04215003
v -0.04200797 0.01341931 -0.04132886
v -0.04103902 0.01433920 -0.04219617
v -0.04085254 0.01532606 -0.04171638
v -0.03944481 0.01800762 -0.04165179
v -0.03906820 0.01883665 -0.04152262
v -0.04183246 0.01583304 -0.03954811
v -0.04089276 0.01678163 -0.04042464
v -0.04205185 0.01495937 -0.04004635
v -0.04242846 0.01447472 -0.03954811
v -0.04343763 0.01216621 -0.03857931
v -0.04329137 0.01303509 -0.03811798
v -0.04355464 0.01256318 -0.03766587
v -0.04280507 0.01443326 -0.03811798
v -0.04342301 0.01488604 -0.03392907
v -0.04348516 0.01507895 -0.03320016
v -0.04301714 0.01580593 -0.03392907
v -0.04349613 0.01649466 -0.02916810
v -0.04623480 0.01646915 -0.01260623
v -0.04929157 0.01730933 0.00850440
v -0.05190226 0.01688526 0.02373764
v -0.05222037 0.01718498 0.02648719
v -0.05273227 0.01580912 0.02648719
v -0.05307597 0.01636393 0.03023322
v -0.05310157 0.01506141 0.02730836
v -0.05585852 0.01233361 0.04101920
v -0.05484934 0.01718498 0.04573403
v -0.05536124 0.01580912 0.04710880
v -0.05487494 0.01718498 0.04710880
v -0.05520767 0.01580912 0.04848358
v -0.05584755 0.01362337 0.04907409
v -0.05475793 0.01580912 0.04946160
v -0.05376338 0.01713237 0.04988603
v -0.05501754 0.01443486 0.04969227
v -0.03970442 0.01850344 -0.04084907
v -0.03929856 0.01883665 -0.04119969
v -0.05590971 0.00580506 0.05056880
v -0.05519304 0.01311002 0.04987681
v -0.05648377 0.00481342 0.04985835
v -0.05648377 0.00343916 0.04985835
v -0.05647279 0.00254956 0.04985835
v -0.04213594 0.00969190 -0.04295276
v -0.04225295 0.00715860 -0.04362630
v -0.04359851 0.00730846 -0.04169793
v -0.04454919 0.00254956 -0.04107051
v -0.04499161 0.00254956 -0.04038774
v -0.04499527 0.00343757 -0.04040619
v -0.04494042 0.00481342 -0.04031392
v -0.04488192 0.00554041 -0.04020321
v -0.04041742 0.01305900 -0.04362630
v -0.04069531 0.01231926 -0.04362630
v -0.04118162 0.01168633 -0.04337718
v -0.04201894 0.01060701 -0.04278667
v -0.04348516 0.00822357 -0.04154107
v -0.04228586 0.01168633 -0.04184555
v -0.04215788 0.01250420 -0.04163334
v -0.04235167 0.01300161 -0.04086752
v -0.04222370 0.01404267 -0.04041542
v -0.04180321 0.01447472 -0.04086752
v -0.04060755 0.01623798 -0.04133809
v -0.04113408 0.01579477 -0.04087675
v -0.04342301 0.01075368 -0.03995409
v -0.04288185 0.01305900 -0.03949275
v -0.04356195 0.00984176 -0.04033238
v -0.04356926 0.01124631 -0.03903142
v -0.04487461 0.00964248 -0.03607888
v -0.04470641 0.01053686 -0.03536843
v -0.04480879 0.01081745 -0.03430736
v -0.04445412 0.01201316 -0.03392907
v -0.04431517 0.01305900 -0.03261888
v -0.04376671 0.01454646 -0.03269269
v -0.04404094 0.01443486 -0.03124410
v -0.05041044 0.01522881 0.01041432
v -0.05173772 0.01647872 0.02171700
v -0.05252020 0.01580912 0.02511241
v -0.05297360 0.01441413 0.02500169
v -0.05304307 0.01487966 0.02648719
v -0.05294069 0.01575173 0.02780660
v -0.05318201 0.01394223 0.02537999
v -0.05580733 0.01213273 0.04023493
v -0.05598283 0.01144400 0.04023493
v -0.05605230 0.01179953 0.04152667
v -0.05622782 0.01168474 0.04298448
v -0.05590605 0.01247072 0.04193264
v -0.05595724 0.01262217 0.04298448
v -0.05525886 0.01580912 0.04573403
v -0.05573054 0.01463574 0.04710880
v -0.05592799 0.01395817 0.04815142
v -0.05569398 0.01442210 0.04855739
v -0.05593896 0.01270507 0.04924939
v -0.05644720 0.01168474 0.04848358
v -0.05675800 0.01031366 0.04848358
v -0.05620222 0.01031366 0.04945238
v -0.05630094 0.00893781 0.04960001
v -0.05635945 0.00756354 0.04975686
v -0.05631922 0.00623392 0.04998753
v -0.05605596 0.01168474 0.04933243
v -0.05709073 0.00618928 0.04868657
v -0.05710902 0.00481342 0.04876038
v -0.05710902 0.00343916 0.04876960
v -0.05710170 0.00254956 0.04872347
v -0.04201163 0.00810719 -0.04362630
v -0.04522563 0.00254956 -0.03949275
v -0.04633352 0.00254956 -0.03392907
v -0.04631524 0.00343916 -0.03361536
v -0.04627136 0.00425702 -0.03340315
v -0.04585087 0.00618928 -0.03399365
v -0.04562052 0.00756514 -0.03399365
v -0.04537554 0.00893940 -0.03399365
v -0.04369724 0.00893940 -0.04062763
v -0.04092201 0.01168633 -0.04362630
v -0.04102439 0.01139936 -0.04362630
v -0.04173739 0.00906375 -0.04362630
v -0.04338279 0.00893940 -0.04131041
v -0.04319996 0.01030410 -0.04082139
v -0.04275754 0.01168633 -0.04086752
v -0.04494408 0.00984654 -0.03536843
v -0.04538651 0.00893940 -0.03392907
v -0.04502818 0.01033758 -0.03392907
v -0.04484170 0.01090833 -0.03392907
v -0.04629330 0.01387367 -0.01848362
v -0.04486364 0.01372381 -0.02775642
v -0.04764618 0.01381469 -0.01008734
v -0.05033731 0.01502474 0.00951011
v -0.05175966 0.01516185 0.01883828
v -0.05311619 0.01372063 0.02446655
v -0.05168653 0.01494503 0.01791561
v -0.05176697 0.01380672 0.01605182
v -0.05591336 0.01117457 0.03922922
v -0.05448370 0.01094021 0.02863700
v -0.05639967 0.01031366 0.04160971
v -0.05655690 0.01031366 0.04298448
v -0.05668852 0.01031366 0.04435925
v -0.05681284 0.01031366 0.04573403
v -0.05647279 0.01168474 0.04573403
v -0.05658980 0.01168474 0.04710880
v -0.05692985 0.01031366 0.04710880
v -0.05695179 0.00893781 0.04848358
v -0.05724065 0.00817256 0.04771776
v -0.05708342 0.00765442 0.04840054
v -0.05730646 0.00618928 0.04799456
v -0.05763920 0.00481342 0.04710880
v -0.05733572 0.00481342 0.04806838
v -0.05733572 0.00343916 0.04807761
v -0.05732109 0.00254956 0.04804070
v -0.04640299 0.00254956 -0.03352309
v -0.04648709 0.00343916 -0.03261888
v -0.04760596 0.00397803 -0.02496074
v -0.04901734 0.00424268 -0.01555876
v -0.04632255 0.00475603 -0.03253584
v -0.04619092 0.00517373 -0.03294181
v -0.04563149 0.00756514 -0.03392907
v -0.04623480 0.00955001 -0.02771952
v -0.04630427 0.00981306 -0.02679685
v -0.04900271 0.01101355 -0.00721785
v -0.05057863 0.01451298 0.00997144
v -0.05176697 0.01105181 0.01053427
v -0.05310157 0.01090355 0.01904126
v -0.05317104 0.01113950 0.01996393
v -0.05585120 0.01089876 0.03830656
v -0.05622416 0.01031366 0.04023493
v -0.05392061 0.01031366 0.02373764
v -0.05445079 0.00939218 0.02613657
v -0.05683478 0.00893781 0.04298448
v -0.05711633 0.00751253 0.04299371
v -0.05754413 0.00618928 0.04435925
v -0.05718946 0.00795414 0.04435925
v -0.05698104 0.00893781 0.04435925
v -0.05738325 0.00765282 0.04571558
v -0.05726990 0.00836546 0.04614923
v -0.05717117 0.00886925 0.04720107
v -0.05767942 0.00618928 0.04573403
v -0.05726990 0.00725744 0.04788385
v -0.05755144 0.00618928 0.04710880
v -0.05784761 0.00481342 0.04573403
v -0.05788052 0.00343916 0.04573403
v -0.05761726 0.00343916 0.04710880
v -0.05756607 0.00254956 0.04710880
v -0.04655291 0.00254956 -0.03261888
v -0.04764984 0.00306291 -0.02523754
v -0.04690758 0.00343916 -0.02986933
v -0.05035193 0.00390150 -0.00707022
v -0.05175601 0.00419804 0.00236867
v -0.05042506 0.00444036 -0.00615678
v -0.05450198 0.00553722 0.02163396
v -0.05091868 0.00618928 -0.00099907
v -0.04758402 0.00802907 -0.02067956
v -0.04631524 0.00863490 -0.02825466
v -0.04640665 0.00903028 -0.02720282
v -0.04765349 0.00842445 -0.01976612
v -0.04899175 0.00821401 -0.01125913
v -0.05315276 0.00703903 0.01459401
v -0.05184742 0.01029613 0.01003603
v -0.05351109 0.01031366 0.02098809
v -0.05581098 0.00657669 0.03172794
v -0.05588045 0.00967117 0.03672880
v -0.05601209 0.00762572 0.03470815
v -0.05593165 0.00992944 0.03748539
v -0.05648742 0.00893781 0.04023493
v -0.05630826 0.00893781 0.03886016
v -0.05454220 0.00847387 0.02550916
v -0.05553309 0.00618928 0.02923674
v -0.05590239 0.00565998 0.03107285
v -0.05729915 0.00578752 0.04187728
v -0.05736131 0.00622276 0.04299371
v -0.05724065 0.00545273 0.04096384
v -0.05775255 0.00481342 0.04435925
v -0.05786589 0.00343916 0.04435925
v -0.05789880 0.00254956 0.04484827
v -0.05784761 0.00254956 0.04573403
v -0.05775621 0.00254956 0.04622304
v -0.04898809 0.00254956 -0.01672132
v -0.05027881 0.00344076 -0.00779913
v -0.05046528 0.00344076 -0.00657198
v -0.05449101 0.00408644 0.02031454
v -0.05589508 0.00432558 0.02976266
v -0.05576345 0.00479589 0.02927364
v -0.05583658 0.00524228 0.03015018
v -0.05532833 0.00618928 0.02786196
v -0.05491150 0.00618928 0.02511241
v -0.05611081 0.00618928 0.03336106
v -0.05595724 0.00479589 0.03061151
v -0.05613640 0.00481342 0.03198629
v -0.05703589 0.00481342 0.03886016
v -0.05728818 0.00453602 0.04056709
v -0.05722968 0.00384570 0.03965365
v -0.05697007 0.00343916 0.03748539
v -0.05755144 0.00254956 0.04160971
v -0.05779277 0.00254956 0.04346427
v -0.05788783 0.00254956 0.04435925
v -0.05291875 0.00254956 0.00918718
v -0.05345624 0.00254956 0.01273022
v -0.05300284 0.00332597 0.01010984
v -0.05547459 0.00343916 0.02648719
v -0.05567935 0.00343916 0.02786196
v -0.05582561 0.00343916 0.02885844
v -0.05592068 0.00343916 0.02954122
v -0.05606328 0.00343916 0.03061151
v -0.05624610 0.00343916 0.03198629
v -0.05736862 0.00254956 0.04020725
v -0.05599015 0.00254956 0.02971652
v -0.05683113 0.00254956 0.03611061
v -0.05533199 0.00254956 0.02511241
v -0.05560988 0.00254956 0.02696698
v -0.05586583 0.00254956 0.02877540
f 1 2 25
f 1 25 40
f 1 40 52
f 1 52 90
f 1 90 135
f 1 135 185
f 1 185 244
f 1 244 255
f 1 255 254
f 1 254 253
f 1 253 193
f 1 193 192
f 1 192 140
f 1 140 98
f 1 98 57
f 1 57 42
f 1 42 26
f 1 26 3
f 1 3 27
f 1 27 43
f 1 43 58
f 1 58 97
f 1 97 148
f 1 148 178
f 1 178 130
f 1 130 83
f 1 83 44
f 1 44 28
f 1 28 4
f 1 4 5
f 1 5 6
f 1 6 7
f 1 7 8
f 1 8 9
f 1 9 10
f 1 10 11
f 1 11 12
f 1 12 13
f 1 13 14
f 1 14 15
f 1 15 16
f 1 16 17
f 1 17 18
f 1 18 19
f 1 19 20
f 1 20 21
f 1 21 22
f 1 22 23
f 1 23 24
f 1 24 2
f 2 24 23
f 2 23 22
f 2 22 21
f 2 21 20
f 2 20 19
f 2 19 38
f 2 38 37
f 2 37 39
f 2 39 36
f 2 36 35
f 2 35 34
f 2 34 33
f 2 33 32
f 2 32 31
f 2 31 51
f 2 51 89
f 2 89 88
f 2 88 87
f 2 87 86
f 2 86 85
f 2 85 134
f 2 134 183
f 2 183 243
f 2 243 287
f 2 287 320
f 2 320 353
f 2 353 352
f 2 352 351
f 2 351 372
f 2 372 371
f 2 371 370
f 2 370 382
f 2 382 384
f 2 384 383
f 2 383 387
f 2 387 386
f 2 386 385
f 2 385 374
f 2 374 373
f 2 373 354
f 2 354 321
f 2 321 288
f 2 288 246
f 2 246 245
f 2 245 188
f 2 188 187
f 2 187 136
f 2 136 91
f 2 91 54
f 2 54 41
f 2 41 25
f 3 26 27
f 4 28 5
f 5 29 30
f 5 30 31
f 5 31 32
f 5 32 6
f 5 28 29
f 6 32 7
f 7 32 8
f 8 33 9
f 8 32 33
f 9 33 34
f 9 34 10
f 10 34 35
f 10 35 11
f 11 35 12
f 12 35 36
f 12 36 13
f 13 36 14
f 14 36 15
f 15 37 38
f 15 38 19
f 15 19 16
f 15 36 39
f 15 39 37
f 16 19 17
f 17 19 18
f 25 41 40
f 26 42 27
f 27 42 43
f 28 44 82
f 28 82 45
f 28 45 29
f 29 45 46
f 29 46 47
f 29 47 48
f 29 48 49
f 29 49 50
f 29 50 30
f 30 50 31
f 31 50 51
f 40 41 53
f 40 53 52
f 41 54 55
f 41 55 53
f 42 56 43
f 42 57 56
f 43 56 58
f 44 59 60
f 44 60 61
f 44 61 62
f 44 62 63
f 44 63 64
f 44 64 65
f 44 65 66
f 44 66 67
f 44 67 68
f 44 68 69
f 44 69 70
f 44 70 71
f 44 71 72
f 44 72 73
f 44 73 74
f 44 74 75
f 44 75 76
f 44 76 77
f 44 77 78
f 44 78 79
f 44 79 80
f 44 80 81
f 44 81 82
f 44 83 59
f 45 82 128
f 45 128 131
f 45 131 84
f 45 84 46
f 46 84 48
f 46 48 47
f 48 85 86
f 48 86 87
f 48 87 49
f 48 84 85
f 49 88 50
f 49 87 88
f 50 88 89
f 50 89 51
f 52 53 90
f 53 55 90
f 54 91 55
f 55 91 92
f 55 92 93
f 55 93 90
f 56 57 94
f 56 94 95
f 56 95 96
f 56 96 97
f 56 97 58
f 57 98 94
f 59 83 99
f 59 99 100
f 59 100 101
f 59 101 61
f 59 61 60
f 61 101 102
f 61 102 103
f 61 103 62
f 62 103 104
f 62 104 105
f 62 105 63
f 63 106 64
f 63 105 106
f 64 106 107
f 64 107 105
f 64 105 108
f 64 108 65
f 65 109 66
f 65 108 110
f 65 110 109
f 66 109 67
f 67 111 68
f 67 109 111
f 68 111 112
f 68 112 69
f 69 112 70
f 70 112 113
f 70 113 71
f 71 114 115
f 71 115 116
f 71 116 117
f 71 117 118
f 71 118 72
f 71 113 114
f 72 118 73
f 73 118 119
f 73 119 74
f 74 119 120
f 74 120 75
f 75 120 76
f 76 120 121
f 76 121 77
f 77 121 122
f 77 122 123
f 77 123 78
f 78 123 124
f 78 124 79
f 79 124 125
f 79 125 80
f 80 126 127
f 80 127 81
f 80 125 126
f 81 128 82
f 81 127 129
f 81 129 128
f 83 100 99
f 83 130 100
f 84 131 132
f 84 132 133
f 84 133 134
f 84 134 85
f 90 93 135
f 91 136 92
f 92 137 93
f 92 136 137
f 93 137 138
f 93 138 139
f 93 139 135
f 94 98 140
f 94 140 141
f 94 141 142
f 94 142 143
f 94 143 144
f 94 144 145
f 94 145 146
f 94 146 147
f 94 147 95
f 95 147 96
f 96 147 97
f 97 147 148
f 100 149 101
f 100 130 150
f 100 150 151
f 100 151 149
f 101 149 151
f 101 151 152
f 101 152 153
f 101 153 154
f 101 154 155
f 101 155 156
f 101 156 157
f 101 157 158
f 101 158 159
f 101 159 102
f 102 159 160
f 102 160 105
f 102 105 104
f 102 104 103
f 105 160 108
f 105 107 106
f 108 160 158
f 108 158 161
f 108 161 112
f 108 112 109
f 108 109 110
f 109 112 111
f 112 161 162
f 112 162 113
f 113 163 164
f 113 164 114
f 113 162 163
f 114 164 165
f 114 165 166
f 114 166 115
f 115 117 116
f 115 166 167
f 115 167 168
f 115 168 118
f 115 118 117
f 118 169 119
f 118 168 169
f 119 169 170
f 119 170 171
f 119 171 120
f 120 171 172
f 120 172 121
f 121 172 122
f 122 172 124
f 122 124 123
f 124 172 173
f 124 173 174
f 124 174 125
f 125 174 175
f 125 175 129
f 125 129 126
f 126 129 127
f 128 129 131
f 129 175 174
f 129 174 176
f 129 176 132
f 129 132 131
f 130 177 150
f 130 178 177
f 132 179 133
f 132 176 180
f 132 180 179
f 133 179 181
f 133 181 182
f 133 182 134
f 134 182 183
f 135 184 185
f 135 139 186
f 135 186 184
f 136 187 137
f 137 187 188
f 137 188 189
f 137 189 138
f 138 189 190
f 138 190 191
f 138 191 139
f 139 191 186
f 140 192 141
f 141 192 193
f 141 193 194
f 141 194 195
f 141 195 142
f 142 195 196
f 142 196 197
f 142 197 198
f 142 198 143
f 143 198 144
f 144 198 199
f 144 199 200
f 144 200 151
f 144 151 201
f 144 201 145
f 145 201 146
f 146 202 178
f 146 178 147
f 146 201 203
f 146 203 202
f 147 178 148
f 150 177 202
f 150 202 203
f 150 203 151
f 151 203 201
f 151 200 152
f 152 204 205
f 152 205 153
f 152 200 206
f 152 206 204
f 153 205 207
f 153 207 191
f 153 191 208
f 153 208 154
f 154 208 155
f 155 208 209
f 155 209 210
f 155 210 156
f 156 210 211
f 156 211 157
f 157 211 212
f 157 212 158
f 158 162 161
f 158 160 159
f 158 212 213
f 158 213 214
f 158 214 215
f 158 215 216
f 158 216 163
f 158 163 162
f 163 216 217
f 163 217 164
f 164 217 165
f 165 217 218
f 165 218 219
f 165 219 167
f 165 167 220
f 165 220 166
f 166 220 167
f 167 219 221
f 167 221 168
f 168 221 222
f 168 222 223
f 168 223 224
f 168 224 225
f 168 225 226
f 168 226 169
f 169 226 227
f 169 227 228
f 169 228 229
f 169 229 170
f 170 229 230
f 170 230 171
f 171 230 172
f 172 231 173
f 172 230 231
f 173 232 176
f 173 176 174
f 173 231 230
f 173 230 233
f 173 233 234
f 173 234 232
f 176 232 180
f 177 178 202
f 179 180 235
f 179 235 236
f 179 236 237
f 179 237 238
f 179 238 181
f 180 232 239
f 180 239 235
f 181 238 240
f 181 240 241
f 181 241 242
f 181 242 182
f 182 242 183
f 183 242 243
f 184 244 185
f 184 186 196
f 184 196 195
f 184 195 244
f 186 191 196
f 188 245 189
f 189 245 190
f 190 245 246
f 190 246 247
f 190 247 248
f 190 248 191
f 191 249 250
f 191 250 251
f 191 251 208
f 191 207 204
f 191 204 206
f 191 206 252
f 191 252 196
f 191 248 249
f 193 253 194
f 194 253 254
f 194 254 255
f 194 255 195
f 195 255 244
f 196 256 198
f 196 198 197
f 196 252 256
f 198 256 257
f 198 257 258
f 198 258 199
f 199 258 206
f 199 206 200
f 204 207 205
f 206 258 257
f 206 257 252
f 208 259 209
f 208 251 260
f 208 260 259
f 209 259 210
f 210 259 261
f 210 261 262
f 210 262 212
f 210 212 211
f 212 262 263
f 212 263 264
f 212 264 213
f 213 264 214
f 214 264 263
f 214 263 215
f 215 263 265
f 215 265 266
f 215 266 267
f 215 267 217
f 215 217 216
f 217 267 218
f 218 268 221
f 218 221 219
f 218 267 269
f 218 269 270
f 218 270 268
f 221 268 222
f 222 271 223
f 222 268 272
f 222 272 271
f 223 273 224
f 223 271 273
f 224 273 274
f 224 274 225
f 225 227 226
f 225 274 275
f 225 275 276
f 225 276 277
f 225 277 227
f 227 277 229
f 227 229 228
f 229 277 278
f 229 278 230
f 230 278 279
f 230 279 233
f 232 234 239
f 233 279 234
f 234 280 235
f 234 235 239
f 234 279 281
f 234 281 280
f 235 280 236
f 236 280 237
f 237 280 240
f 237 240 238
f 240 280 282
f 240 282 283
f 240 283 284
f 240 284 285
f 240 285 241
f 241 285 286
f 241 286 242
f 242 286 243
f 243 286 287
f 246 288 289
f 246 289 247
f 247 289 248
f 248 289 290
f 248 290 291
f 248 291 292
f 248 292 293
f 248 293 294
f 248 294 249
f 249 294 250
f 250 294 260
f 250 260 251
f 252 257 256
f 259 260 295
f 259 295 296
f 259 296 261
f 260 294 295
f 261 296 297
f 261 297 268
f 261 268 270
f 261 270 298
f 261 298 262
f 262 298 265
f 262 265 263
f 265 298 266
f 266 298 269
f 266 269 267
f 268 297 299
f 268 299 300
f 268 300 301
f 268 301 272
f 269 298 270
f 271 302 303
f 271 303 273
f 271 272 302
f 272 304 305
f 272 305 302
f 272 301 300
f 272 300 304
f 273 306 274
f 273 303 307
f 273 307 308
f 273 308 306
f 274 306 309
f 274 309 310
f 274 310 275
f 275 310 311
f 275 311 312
f 275 312 276
f 276 312 279
f 276 279 278
f 276 278 277
f 279 313 281
f 279 312 314
f 279 314 313
f 280 281 315
f 280 315 282
f 281 313 314
f 281 314 316
f 281 316 315
f 282 315 283
f 283 315 284
f 284 286 285
f 284 315 316
f 284 316 317
f 284 317 318
f 284 318 319
f 284 319 286
f 286 319 287
f 287 319 320
f 288 321 289
f 289 321 322
f 289 322 323
f 289 323 324
f 289 324 290
f 290 324 291
f 291 324 325
f 291 325 326
f 291 326 327
f 291 327 328
f 291 328 294
f 291 294 293
f 291 293 292
f 294 328 329
f 294 329 330
f 294 330 295
f 295 330 331
f 295 331 332
f 295 332 333
f 295 333 334
f 295 334 335
f 295 335 300
f 295 300 299
f 295 299 296
f 296 299 297
f 300 336 304
f 300 335 336
f 302 337 338
f 302 338 339
f 302 339 340
f 302 340 303
f 302 305 337
f 303 341 307
f 303 340 339
f 303 339 342
f 303 342 341
f 304 343 305
f 304 336 343
f 305 343 344
f 305 344 345
f 305 345 337
f 306 308 309
f 307 341 346
f 307 346 347
f 307 347 308
f 308 347 346
f 308 346 348
f 308 348 349
f 308 349 314
f 308 314 309
f 309 314 311
f 309 311 310
f 311 314 312
f 314 349 317
f 314 317 316
f 317 349 350
f 317 350 351
f 317 351 318
f 318 352 353
f 318 353 319
f 318 351 352
f 319 353 320
f 321 354 322
f 322 354 355
f 322 355 324
f 322 324 323
f 324 355 356
f 324 356 357
f 324 357 325
f 325 357 358
f 325 358 359
f 325 359 360
f 325 360 327
f 325 327 326
f 327 360 361
f 327 361 362
f 327 362 334
f 327 334 333
f 327 333 332
f 327 332 329
f 327 329 328
f 329 332 331
f 329 331 330
f 334 336 335
f 334 362 336
f 336 362 361
f 336 361 343
f 337 339 338
f 337 345 339
f 339 345 363
f 339 363 342
f 341 342 346
f 342 363 346
f 343 361 344
f 344 361 345
f 345 361 360
f 345 360 348
f 345 348 363
f 346 363 348
f 348 360 364
f 348 364 365
f 348 365 366
f 348 366 349
f 349 366 367
f 349 367 368
f 349 368 350
f 350 368 369
f 350 369 370
f 350 370 371
f 350 371 372
f 350 372 351
f 354 373 356
f 354 356 355
f 356 373 374
f 356 374 375
f 356 375 357
f 357 375 376
f 357 376 358
f 358 376 377
f 358 377 378
f 358 378 379
f 358 379 380
f 358 380 381
f 358 381 368
f 358 368 367
f 358 367 365
f 358 365 364
f 358 364 360
f 358 360 359
f 365 367 366
f 368 381 369
f 369 382 370
f 369 381 383
f 369 383 384
f 369 384 382
f 374 385 375
f 375 385 376
f 376 385 386
f 376 386 377
f 377 386 378
f 378 386 387
f 378 387 379
f 379 387 380
f 380 387 381
f 381 387 383

