# https://github.com/mikedh/trimesh
v 0.04103879 0.01788063 0.05045278
v 0.04103879 0.01856335 0.05028436
v 0.03903893 0.02361934 0.05058574
v 0.04102409 0.01788063 0.05046165
v 0.04103879 0.01788063 0.02295678
v 0.04103879 0.01865674 0.05024891
v 0.03887227 0.02453714 0.05043505
v 0.04061725 0.01788063 0.05064779
v 0.03767628 0.02621496 0.05058574
v 0.03791646 0.02543885 0.05064779
v 0.03692143 0.02543885 0.05092257
v 0.03829878 0.02269187 0.05088712
v 0.03829878 0.02131355 0.05102894
v 0.03972516 0.01788063 0.05094916
v 0.03361284 0.01788063 -0.01834040
v 0.03323541 0.01815436 -0.02577726
v 0.04103879 0.01791283 0.02305429
v 0.04103879 0.01991913 0.04972594
v 0.04103879 0.02001574 0.04967275
v 0.03928891 0.02407341 0.04992094
v 0.03910755 0.02494291 0.04951320
v 0.03786744 0.02645649 0.04985890
v 0.03481374 0.03019212 0.05044392
v 0.03355402 0.03168960 0.05061233
v 0.03384321 0.03093925 0.05078075
v 0.03558329 0.02819871 0.05085166
v 0.03689202 0.02673022 0.05073643
v 0.03554898 0.02681717 0.05109099
v 0.03829878 0.01994167 0.05112644
v 0.03829878 0.01856657 0.05119735
v 0.03829878 0.01788063 0.05118849
v 0.03343148 0.01788063 -0.01934203
v 0.03340697 0.01788063 -0.01946613
v 0.03075519 0.01815436 -0.03674198
v 0.03044639 0.01871470 -0.03674198
v 0.02976016 0.01984828 -0.03675085
v 0.02929451 0.02053744 -0.03674198
v 0.02814263 0.02223136 -0.03675085
v 0.02766717 0.02293018 -0.03675085
v 0.02698585 0.02389307 -0.03675085
v 0.02704957 0.02417646 -0.03537693
v 0.02657411 0.02470460 -0.03584672
v 0.02666234 0.02480766 -0.03492487
v 0.02798088 0.02474325 -0.02778052
v 0.03491667 0.02620208 0.01860458
v 0.03619109 0.02743226 0.03158141
v 0.03626462 0.02754175 0.03249440
v 0.04103879 0.01810927 0.02372794
v 0.04103879 0.02113643 0.04853817
v 0.04035256 0.02334882 0.04766063
v 0.03919578 0.02507495 0.04848498
v 0.03874483 0.02576088 0.04848498
v 0.03763707 0.02753853 0.04789996
v 0.03752923 0.02739684 0.04882181
v 0.03214725 0.03441404 0.04931820
v 0.03097086 0.03455895 0.05061233
v 0.03052482 0.03547676 0.05017800
v 0.02960821 0.03594372 0.05065665
v 0.03280407 0.03093925 0.05112644
v 0.03417652 0.02818905 0.05119735
v 0.03554898 0.02543885 0.05117962
v 0.03692143 0.02131355 0.05122395
v 0.03554898 0.02269187 0.05125054
v 0.03692143 0.01994167 0.05122395
v -0.00903615 0.04742757 0.05142782
v -0.00903615 0.04605569 0.05132145
v 0.03687242 0.01788063 0.05097576
v 0.03318639 0.01788063 -0.02032593
v 0.03075029 0.01815436 -0.03675085
v 0.03045129 0.01869860 -0.03675085
v 0.00909003 0.03629151 -0.03912639
v 0.02648588 0.02457901 -0.03675085
v 0.02611826 0.02533580 -0.03537693
v 0.02558398 0.02564173 -0.03675085
v 0.02660842 0.02612157 -0.02915443
v 0.03325012 0.03134824 0.03198029
v 0.03369126 0.03051416 0.03060638
v 0.03210314 0.02748057 0.00799442
v 0.03496078 0.02762548 0.02511072
v 0.03535781 0.02832108 0.03050001
v 0.03579406 0.02807634 0.03200688
v 0.03582837 0.02831464 0.03335420
v 0.03592640 0.02844346 0.03472812
v 0.03631853 0.02762870 0.03335420
v 0.04103879 0.01840877 0.02511072
v 0.04103879 0.02200915 0.04713766
v 0.04103879 0.02231186 0.04573715
v 0.04038687 0.02341323 0.04674765
v 0.03817624 0.02681717 0.04710221
v 0.03767138 0.02759650 0.04710221
v 0.03721062 0.02828244 0.04710221
v 0.03651950 0.02928398 0.04710221
v 0.03602444 0.02997314 0.04710221
v 0.03533821 0.03082010 0.04710221
v 0.03542154 0.03091993 0.04573715
v 0.03484314 0.03160587 0.04573715
v 0.03216686 0.03443658 0.04848498
v 0.03149043 0.03512252 0.04848498
v 0.03080421 0.03580524 0.04848498
v 0.03077480 0.03577304 0.04926501
v 0.02820635 0.03730271 0.05067438
v 0.03006407 0.03613694 0.04977912
v 0.02725053 0.03777933 0.05082507
v 0.02867200 0.03641067 0.05079847
v 0.02592710 0.03780187 0.05114417
v 0.03280407 0.02956415 0.05125940
v 0.03417652 0.02681717 0.05125054
v 0.03417652 0.02543885 0.05126827
v -0.00903615 0.04820690 0.05140123
v 0.03280407 0.02818905 0.05126827
v 0.02455955 0.03780187 0.05125054
v 0.02318219 0.03918019 0.05123281
v -0.00903615 0.04466449 0.05086939
v 0.03582837 0.01788063 0.05066551
v 0.02163818 0.01788063 -0.02032593
v 0.01881485 0.01815436 -0.03675085
v 0.00909003 0.02509105 -0.03912639
v 0.01455044 0.03452675 -0.03675085
v 0.01522686 0.03416285 -0.03675085
v 0.01660422 0.03335453 -0.03675085
v 0.01751102 0.03275232 -0.03675085
v 0.01869231 0.03187316 -0.03675085
v 0.01937363 0.03132569 -0.03675085
v 0.02021181 0.03063009 -0.03675085
v 0.02089313 0.03006331 -0.03675085
v 0.02196169 0.02912296 -0.03675085
v 0.02332434 0.02788311 -0.03675085
v 0.02472130 0.02655310 -0.03675085
v 0.00808030 0.03661355 -0.03912639
v 0.00284537 0.03846849 -0.03870978
v 0.00909003 0.03668762 -0.03812476
v 0.01082031 0.03643643 -0.03675085
v 0.01187415 0.03594049 -0.03675085
v 0.01356031 0.03505489 -0.03674198
v 0.02526048 0.02614733 -0.03614809
v 0.02662803 0.02751921 -0.02238237
v 0.02798578 0.02887499 -0.00853686
v 0.03380400 0.03066230 0.03198029
v 0.02936313 0.03162519 0.01207184
v 0.03064245 0.03289402 0.02511072
v 0.03079931 0.03307436 0.02683033
v 0.03102478 0.03331589 0.02923246
v 0.03114732 0.03345437 0.03060638
v 0.03336286 0.03148349 0.03335420
v 0.03449513 0.02977992 0.03198029
v 0.03502940 0.02909075 0.03198029
v 0.03493628 0.02896838 0.03089002
v 0.03513724 0.02923245 0.03335420
v 0.03524017 0.02935805 0.03472812
v 0.03510293 0.03055925 0.04023264
v 0.03602444 0.02856583 0.03611090
v 0.03640676 0.02775430 0.03472812
v 0.03763707 0.02616665 0.03660728
v 0.04103879 0.01864708 0.02632508
v 0.04081822 0.02269187 0.04573715
v 0.04103879 0.02217017 0.04442529
v 0.04038197 0.02340679 0.04573715
v 0.03819095 0.02681717 0.04573715
v 0.03655381 0.02936449 0.04573715
v 0.03610776 0.03005365 0.04573715
v 0.03536762 0.03089094 0.04434551
v 0.03481374 0.03157688 0.04434551
v 0.03217176 0.03443658 0.04573715
v 0.03215215 0.03441404 0.04326411
v 0.03217176 0.03443658 0.04434551
v 0.03150024 0.03512252 0.04710221
v 0.03081401 0.03581490 0.04710221
v 0.02943666 0.03719000 0.04710221
v 0.02941215 0.03716424 0.04805951
v 0.02932392 0.03708373 0.04897250
v 0.02405958 0.04138937 0.04959298
v 0.02549575 0.04008190 0.04985890
v 0.02618198 0.03949579 0.04985890
v 0.02698095 0.03880663 0.04985890
v 0.02846614 0.03752492 0.04985890
v 0.02798088 0.03848459 0.04773155
v 0.02676037 0.03861662 0.05065665
v 0.02582906 0.03911578 0.05078075
v 0.02455955 0.03918019 0.05109985
v -0.00843816 0.04880590 0.05130372
v -0.00903615 0.04880590 0.05129486
v 0.02043238 0.04055207 0.05122395
v 0.01081050 0.04604925 0.05116190
v 0.00118372 0.04742757 0.05125940
v -0.00156609 0.04880590 0.05114417
v 0.02180974 0.04055207 0.05118849
v 0.01905503 0.04192717 0.05118849
v -0.00903615 0.04431347 0.05065665
v 0.03520096 0.01788063 0.05044392
v 0.02175092 0.01788063 -0.01949272
v -0.00903615 0.02914872 -0.03912639
v 0.00823225 0.02527461 -0.03912639
v 0.01455044 0.03452997 -0.03674198
v 0.01631012 0.03488421 -0.02848963
v 0.01701595 0.03437861 -0.02925194
v 0.01631012 0.03378284 -0.03535920
v 0.01730025 0.03320318 -0.03535920
v 0.01713849 0.03309690 -0.03644947
v 0.01798647 0.03271368 -0.03535920
v 0.01959911 0.03151248 -0.03535920
v 0.02123625 0.03034348 -0.03504010
v 0.02108920 0.03021789 -0.03595309
v 0.02252047 0.02890075 -0.03612150
v 0.02390273 0.02753853 -0.03614809
v 0.00341886 0.03806916 -0.03912639
v 0.00260029 0.03828170 -0.03912639
v -0.00156609 0.03889036 -0.03912639
v 0.00118372 0.03917375 -0.03674198
v 0.00348258 0.03856832 -0.03779679
v 0.00909003 0.03680355 -0.03777020
v 0.00945766 0.03695491 -0.03675085
v 0.00993801 0.03705474 -0.03535920
v 0.01081050 0.03667152 -0.03535920
v 0.01149183 0.03711593 -0.03054607
v 0.01569252 0.04265176 0.01869322
v 0.01420242 0.03571829 -0.03038652
v 0.02467228 0.02691700 -0.03535920
v 0.02480953 0.02705548 -0.03398529
v 0.02937784 0.03301639 0.01884390
v 0.02945136 0.03309368 0.01960620
v 0.03391183 0.03079433 0.03335420
v 0.03040228 0.03400505 0.02923246
v 0.03052482 0.03414352 0.03060638
v 0.03126006 0.03357674 0.03198029
v 0.03344128 0.03157366 0.03432924
v 0.03392654 0.03104230 0.03476358
v 0.03350990 0.03165417 0.03525109
v 0.03519606 0.03068162 0.04160655
v 0.03588719 0.02973161 0.04160655
v 0.03611266 0.02868499 0.03748481
v 0.03605384 0.02996992 0.04434551
v 0.03655871 0.02799905 0.03748481
v 0.04031335 0.02330052 0.04411505
v 0.04036237 0.02338103 0.04502804
v 0.04067117 0.02278204 0.04448734
v 0.03764687 0.02755785 0.04472666
v 0.03528429 0.03079433 0.04298046
v 0.03472550 0.03148027 0.04298046
v 0.03210804 0.03435929 0.04235112
v 0.03076009 0.03576337 0.04352116
v 0.02940234 0.03715457 0.04476212
v 0.03078951 0.03579557 0.04434551
v 0.03148063 0.03512252 0.04434551
v 0.03081401 0.03581490 0.04573715
v 0.03150024 0.03512252 0.04573715
v 0.02943176 0.03718356 0.04573715
v 0.02803970 0.03853934 0.04601194
v 0.02803970 0.03853934 0.04681856
v 0.02789755 0.03841052 0.04848498
v 0.02721132 0.03900307 0.04848498
v 0.02640746 0.03968901 0.04848498
v 0.02225578 0.04246175 0.04985890
v 0.02330473 0.04175649 0.04997413
v 0.02384391 0.04122513 0.05050596
v 0.02453504 0.04085478 0.04997413
v 0.02571633 0.04024614 0.04848498
v 0.02483404 0.04093207 0.04848498
v 0.02414781 0.04143767 0.04848498
v 0.02318219 0.04207853 0.04848498
v 0.02241754 0.04257125 0.04848498
v 0.02530949 0.03992732 0.05059461
v 0.02455955 0.04024292 0.05074529
v 0.02330473 0.04067767 0.05090484
v 0.02043238 0.04192717 0.05108212
v -0.00568835 0.04979455 0.05086939
v -0.00706080 0.04982675 0.05088712
v -0.00843816 0.04985896 0.05090484
v -0.00903615 0.04940166 0.05107326
v 0.00909003 0.04748876 0.05093143
v 0.00806069 0.04742757 0.05106439
v 0.00256108 0.04742757 0.05122395
v 0.01768257 0.04330227 0.05108212
v 0.01081050 0.04715706 0.05082507
v -0.00018873 0.04880590 0.05110871
v -0.00903615 0.04404296 0.05048824
v 0.03483824 0.01788063 0.05021346
v 0.02520166 0.01788063 0.00534410
v -0.00903615 0.03882917 -0.03912639
v 0.02642706 0.01788063 0.01411941
v 0.02680939 0.01788063 0.01684951
v 0.02696624 0.01788063 0.01792205
v 0.02701526 0.01788063 0.01824116
v 0.02714760 0.01788063 0.01907437
v 0.02745640 0.01788063 0.02098898
v 0.02773089 0.01788063 0.02263768
v 0.02786814 0.01788063 0.02342657
v 0.02799068 0.01788063 0.02410910
v 0.02802499 0.01788063 0.02429524
v 0.03195609 0.01788063 0.04358321
v 0.03203452 0.01788063 0.04395550
v 0.03211294 0.01788063 0.04428346
v -0.00903615 0.03872612 0.03002136
v 0.01551116 0.03705474 -0.01748946
v 0.01712379 0.04268718 0.02372794
v 0.01972655 0.03848137 0.00663823
v 0.01827077 0.03567964 -0.01641692
v 0.01840801 0.03439471 -0.02383606
v 0.01787374 0.04095140 0.01548446
v 0.01913345 0.04154073 0.02382545
v 0.02053532 0.04158259 0.02922360
v 0.01815313 0.03284249 -0.03398529
v 0.01970694 0.03159621 -0.03452599
v 0.02033435 0.03121942 -0.03403848
v 0.02136859 0.03044653 -0.03398529
v 0.02205482 0.02984432 -0.03398529
v 0.02261850 0.02900058 -0.03535920
v 0.02173621 0.02978636 -0.03544784
v 0.02276555 0.02915516 -0.03398529
v -0.00293854 0.03901595 -0.03912639
v -0.00293854 0.03983071 -0.03584672
v -0.00018873 0.03933477 -0.03674198
v 0.00256108 0.03894832 -0.03674198
v -0.00084065 0.03987579 -0.03471213
v 0.00863908 0.03709017 -0.03730927
v 0.00600691 0.03849747 -0.03469441
v 0.00898220 0.03720288 -0.03639629
v 0.00909003 0.03701288 -0.03702563
v 0.00938413 0.03698067 -0.03675085
v 0.00909003 0.03714491 -0.03649379
v 0.01009977 0.03710627 -0.03460576
v 0.00909003 0.03734458 -0.03536807
v 0.00909003 0.03737356 -0.03519079
v 0.01012428 0.03849425 -0.02505042
v 0.01138889 0.03844916 -0.02201008
v 0.01155065 0.03851680 -0.02109709
v 0.01427595 0.04125089 0.00511363
v 0.01542783 0.04391414 0.02648464
v 0.01557978 0.04396889 0.02730012
v 0.01630522 0.04330227 0.02511072
v 0.01701595 0.04262599 0.02297451
v 0.02290280 0.02929686 -0.03261138
v 0.02481933 0.02980890 -0.02032593
v 0.02801519 0.03302605 0.01193002
v 0.02937294 0.03437539 0.02573120
v 0.02983859 0.03481336 0.03060638
v 0.03063755 0.03426590 0.03198029
v 0.02957880 0.03457505 0.02786741
v 0.02971115 0.03470065 0.02923246
v 0.03077970 0.03440759 0.03377967
v 0.03462747 0.03137078 0.04160655
v 0.03597542 0.02984754 0.04298046
v 0.03084832 0.03447522 0.03472812
v 0.02879945 0.03764407 0.04431892
v 0.03061795 0.03563134 0.04160655
v 0.02943176 0.03580524 0.03497631
v 0.02993172 0.03625287 0.04160655
v 0.02798088 0.03848459 0.04509895
v 0.02647608 0.03976308 0.04710221
v 0.02743680 0.03896443 0.04563079
v 0.02641236 0.03973410 0.04573715
v 0.02743680 0.03898697 0.04720857
v 0.02173131 0.04296091 0.04848498
v 0.02156956 0.04283532 0.04985890
v 0.02127546 0.04267752 0.05059461
v 0.02292731 0.04150530 0.05069211
v 0.02578495 0.04024614 0.04710221
v 0.02477032 0.04093207 0.04710221
v 0.02408409 0.04137649 0.04710221
v 0.02309396 0.04162446 0.04298046
v 0.02180974 0.04192073 0.03748481
v 0.02201070 0.04231040 0.04298046
v 0.02163328 0.04293193 0.04710221
v 0.01982948 0.04403974 0.04710221
v 0.01983438 0.04404296 0.04806837
v 0.02176562 0.04194971 0.05080734
v 0.02043238 0.04286108 0.05072757
v 0.01768257 0.04422652 0.05075416
v 0.00118372 0.04880590 0.05107326
v -0.00156609 0.04969150 0.05078961
v -0.00568835 0.05030337 0.04985890
v -0.00706080 0.05034201 0.04985890
v -0.00843816 0.05031303 0.04985890
v -0.00903615 0.05007150 0.05026664
v -0.00903615 0.04981387 0.05085166
v 0.00946746 0.04750808 0.05087825
v 0.00806069 0.04831318 0.05076302
v 0.00256108 0.04880590 0.05100235
v 0.01218296 0.04690265 0.05068324
v 0.00902631 0.04820690 0.05066551
v 0.00909003 0.04810385 0.05070097
v -0.00903615 0.04388516 0.05026664
v 0.03424515 0.01788063 0.04979685
v -0.00903615 0.03919951 -0.03811589
v -0.00606087 0.03895476 -0.03912639
v 0.03249037 0.01788063 0.04578148
v -0.00903615 0.03892578 0.03139527
v 0.01731005 0.04279023 0.02511072
v 0.01843252 0.04264854 0.02831061
v 0.01848644 0.03581490 -0.01474163
v 0.02105979 0.04120581 0.02877154
v 0.02118233 0.04127665 0.02968453
v 0.02150584 0.04011410 0.02372794
v 0.02113821 0.03575693 -0.00451263
v 0.01838841 0.03301317 -0.03200862
v 0.02202051 0.03956020 0.02235403
v 0.02248616 0.03848459 0.01759409
v 0.02258909 0.03718034 0.00998881
v 0.02043238 0.04185310 0.03060638
v 0.01917267 0.03207926 -0.03403848
v 0.02061864 0.03125807 -0.03261138
v 0.02250577 0.03163807 -0.02236464
v 0.02245185 0.03021144 -0.03035993
v -0.00431099 0.03901595 -0.03912639
v -0.00431099 0.03985003 -0.03591763
v -0.00293854 0.03994664 -0.03516420
v -0.00156609 0.03990156 -0.03486282
v -0.00156609 0.03976308 -0.03555421
v 0.00531089 0.03874866 -0.03399415
v 0.00118372 0.03940884 -0.03536807
v 0.00118372 0.03960528 -0.03399415
v 0.00121313 0.03978240 -0.03270888
v 0.00202190 0.03989834 -0.03076767
v 0.00326691 0.03987257 -0.02920762
v 0.00531089 0.03894510 -0.03262024
v -0.00156609 0.04003037 -0.03399415
v -0.00156609 0.04060037 -0.02987241
v -0.00103671 0.04123157 -0.02497064
v -0.00018873 0.04233294 -0.01612441
v 0.00025732 0.04258413 -0.01382865
v 0.00066415 0.04264854 -0.01291566
v 0.00072787 0.04128954 -0.02262169
v -0.00008580 0.04002393 -0.03270888
v 0.00013478 0.03980494 -0.03399415
v 0.00600691 0.03986935 -0.02507701
v 0.00735976 0.04124123 -0.01265860
v 0.00616377 0.03854900 -0.03399415
v 0.00684999 0.03831713 -0.03399415
v 0.00806069 0.03790492 -0.03399415
v 0.01033505 0.04132174 -0.00511538
v 0.01144281 0.04121869 -0.00289052
v 0.01003114 0.04396245 0.01224912
v 0.01283487 0.03985003 -0.00844822
v 0.01518275 0.04381431 0.02511072
v 0.01150653 0.04536653 0.02576666
v 0.01571212 0.04403330 0.02822197
v 0.01630522 0.04349872 0.02648464
v 0.01356521 0.04483517 0.02786741
v 0.01493767 0.04500585 0.03335420
v 0.01561899 0.04536009 0.03818506
v 0.02391253 0.03029517 -0.02252419
v 0.02254498 0.03029839 -0.02944694
v 0.02380960 0.03157044 -0.01652329
v 0.02505461 0.03282639 -0.00374146
v 0.02876514 0.03483590 0.02520823
v 0.02883866 0.03526099 0.02786741
v 0.02897100 0.03538981 0.02923246
v 0.02908864 0.03549930 0.03060638
v 0.02995133 0.03490997 0.03198029
v 0.02936313 0.03574083 0.03406332
v 0.03020131 0.03525777 0.03611090
v 0.02920138 0.03559591 0.03198029
v 0.02792206 0.03843628 0.04434551
v 0.02723583 0.03897087 0.04434551
v 0.02630942 0.03965681 0.04434551
v 0.02551046 0.04004969 0.04298046
v 0.02562320 0.04011732 0.04434551
v 0.01590819 0.04555654 0.04985890
v 0.01294761 0.04676740 0.05056801
v 0.01850605 0.04404940 0.05060347
v 0.01966283 0.04395601 0.04898136
v 0.01493767 0.04635197 0.04848498
v 0.02288809 0.04149564 0.04023264
v 0.02268223 0.04136360 0.03748481
v 0.02180974 0.04178225 0.03611090
v 0.02089803 0.04248108 0.03748481
v 0.02101077 0.04254870 0.03885872
v 0.01916776 0.04432957 0.04578148
v 0.02055002 0.04296413 0.04025037
v 0.01962852 0.04391736 0.04434551
v 0.01788844 0.04508958 0.04573715
v 0.01720221 0.04547281 0.04573715
v 0.01715320 0.04544382 0.04684515
v 0.01643756 0.04575942 0.04722630
v 0.00118372 0.04962065 0.05071870
v -0.00018873 0.04965607 0.05075416
v 0.00256108 0.04957878 0.05066551
v -0.00156609 0.05009726 0.04985890
v -0.00293854 0.05057066 0.04848498
v -0.00431099 0.05061897 0.04848498
v -0.00568835 0.05059320 0.04848498
v -0.00903615 0.05024218 0.04985890
v -0.00706080 0.05050303 0.04848498
v -0.00903615 0.05031625 0.04848498
v 0.00336984 0.04953370 0.05061233
v 0.00927630 0.04829386 0.04985890
v 0.00909003 0.04834538 0.04985890
v 0.00806069 0.04860945 0.04985890
v -0.00903615 0.04363719 0.04987662
v -0.00903615 0.04254548 0.04792655
v 0.03353931 0.01788063 0.04900796
v -0.00903615 0.03950223 -0.03674198
v -0.00843816 0.03956020 -0.03674198
v -0.00843816 0.03922206 -0.03811589
v -0.00468352 0.03900629 -0.03912639
v 0.03289720 0.01788063 0.04713766
v -0.00903615 0.03901595 0.03198915
v 0.01749631 0.04289006 0.02648464
v 0.01854526 0.04271294 0.02923246
v 0.01940794 0.04243277 0.03060638
v 0.02043238 0.04205921 0.03198029
v 0.02146662 0.04146022 0.03198029
v 0.02198619 0.04090631 0.03060638
v 0.02257929 0.03992088 0.02683033
v 0.02396645 0.03719000 0.01574152
v 0.02386352 0.03710949 0.01483739
v 0.02243714 0.03295520 -0.01516711
v 0.02385861 0.03848459 0.02309860
v 0.02387332 0.03300351 -0.00856346
v -0.00568835 0.03982105 -0.03573149
v -0.00568835 0.03992088 -0.03504010
v -0.00431099 0.04012698 -0.03399415
v -0.00293854 0.04011732 -0.03399415
v -0.00706080 0.03959562 -0.03674198
v 0.00043868 0.03985647 -0.03323185
v 0.00077199 0.03992410 -0.03231000
v 0.00584516 0.04671909 0.02319611
v 0.00596280 0.04260989 -0.00576244
v 0.00598731 0.04124123 -0.01541530
v 0.00588928 0.04535043 0.01354326
v -0.00293854 0.04030732 -0.03262024
v -0.00221310 0.04261955 -0.01545962
v -0.00213958 0.04675451 0.01472216
v -0.00082594 0.04399788 -0.00448604
v -0.00065929 0.04264532 -0.01427185
v -0.00156609 0.04867386 0.02924133
v -0.00019363 0.04270972 -0.01336772
v 0.00179152 0.04535687 0.00800328
v 0.00187975 0.04399465 -0.00169389
v 0.00621768 0.04130564 -0.01450231
v 0.00869790 0.04260345 -0.00021361
v 0.00806069 0.04599451 0.02235403
v 0.00850184 0.04392380 0.00860603
v 0.01005075 0.04534399 0.02181333
v 0.00714409 0.03841696 -0.03262024
v 0.00909003 0.04273549 0.00161237
v 0.01022231 0.04402686 0.01317097
v 0.01081050 0.04474178 0.01960620
v 0.01148693 0.04398499 0.01620244
v 0.01024191 0.04540840 0.02272632
v 0.01218296 0.04480297 0.02372794
v 0.01084972 0.04553399 0.02522595
v 0.01081050 0.04571111 0.02648464
v 0.01081050 0.04588501 0.02786741
v 0.01081050 0.04605569 0.02923246
v 0.01184965 0.04550179 0.02786741
v 0.01493767 0.04589146 0.04023264
v 0.01507001 0.04564671 0.03872576
v 0.01254077 0.04523449 0.02786741
v 0.01112421 0.04521840 0.02372794
v 0.01043798 0.04547925 0.02372794
v 0.01602092 0.04418787 0.03060638
v 0.01688851 0.04393346 0.03198029
v 0.01622189 0.04371770 0.02780537
v 0.01574153 0.04542128 0.03909805
v 0.01606504 0.04558552 0.04160655
v 0.01493767 0.04606213 0.04160655
v 0.02773089 0.03550574 0.02372794
v 0.02815243 0.03588897 0.02786741
v 0.02828478 0.03600490 0.02923246
v 0.02840242 0.03610795 0.03060638
v 0.02800048 0.03712559 0.03535746
v 0.02688781 0.03870357 0.04023264
v 0.02712309 0.03888392 0.04298046
v 0.02773089 0.03689050 0.03198029
v 0.02681919 0.03728339 0.02923246
v 0.02620159 0.03957308 0.04298046
v 0.02539772 0.03997562 0.04160655
v 0.02256949 0.04129276 0.03611090
v 0.01313877 0.04683824 0.04985890
v 0.00996252 0.04803622 0.04985890
v 0.01009487 0.04810063 0.04904341
v 0.01484454 0.04652265 0.04712880
v 0.01432987 0.04676740 0.04669446
v 0.02076079 0.04241667 0.03611090
v 0.02250577 0.04124767 0.03534859
v 0.02189797 0.04157615 0.03482562
v 0.02032455 0.04296413 0.03885872
v 0.01883445 0.04427160 0.04298046
v 0.01893739 0.04433923 0.04434551
v 0.01778551 0.04502839 0.04434551
v 0.01709438 0.04541806 0.04434551
v 0.01630522 0.04591722 0.04573715
v 0.00118372 0.04992658 0.04985890
v -0.00018873 0.05001998 0.04985890
v -0.00156609 0.05047727 0.04848498
v -0.00293854 0.05077998 0.04711107
v -0.00431099 0.05077676 0.04711107
v -0.00568835 0.05062863 0.04711107
v -0.00903615 0.05024540 0.04711107
v 0.00361492 0.04959167 0.04985890
v 0.00256108 0.04997811 0.04848498
v 0.00118372 0.05022286 0.04848498
v 0.00955079 0.04834860 0.04854703
v 0.00943805 0.04853538 0.04710221
v 0.00909003 0.04849030 0.04852930
v 0.00806069 0.04879945 0.04848498
v -0.00903615 0.04228785 0.04715539
v 0.03349030 0.01788063 0.04888386
v -0.00903615 0.04211395 0.04651718
v -0.00903615 0.04191107 0.04573715
v -0.00903615 0.04176293 0.04514327
v -0.00903615 0.04106411 0.04215612
v -0.00903615 0.04080004 0.04102153
v -0.00903615 0.03987579 -0.03424234
v -0.00875676 0.03985325 -0.03457031
v 0.03317659 0.01788063 0.04796201
v -0.00903615 0.03925426 0.03336307
v 0.01698164 0.04398177 0.03271600
v 0.01768257 0.04352126 0.03198029
v 0.01760415 0.04372736 0.03324783
v 0.01888837 0.04289006 0.03198029
v 0.02060394 0.04234260 0.03472812
v 0.02215285 0.04101259 0.03198029
v 0.02162347 0.04156005 0.03335420
v 0.02409389 0.03728339 0.01685838
v 0.02555457 0.03735424 0.02372794
v 0.02529479 0.03715780 0.02143218
v 0.02494187 0.03687762 0.01824116
v 0.02476051 0.03814967 0.02511072
v 0.02447132 0.03812713 0.02362158
v 0.02455955 0.03785662 0.02235403
v 0.02285378 0.04011410 0.02923246
v 0.02300083 0.04022037 0.03060638
v 0.02354001 0.03963426 0.02923246
v 0.02464777 0.03886459 0.02931224
v 0.02505461 0.03835899 0.02786741
v 0.02662313 0.03712237 0.02713171
v 0.02676037 0.03587286 0.02098898
v -0.00706080 0.04078072 -0.02849850
v -0.00639909 0.04399465 -0.00581563
v -0.00431099 0.04184022 -0.02162007
v 0.00614906 0.04678350 0.02412682
v 0.00334043 0.04676417 0.02013804
v 0.00256108 0.04775927 0.02649350
v 0.00663432 0.04658705 0.02369249
v 0.00668334 0.04638417 0.02235403
v -0.00431099 0.04256159 -0.01638147
v -0.00361987 0.04399465 -0.00580677
v -0.00293854 0.04631977 0.01135386
v -0.00293854 0.04801046 0.02373681
v -0.00293854 0.04875759 0.02924133
v -0.00085045 0.04811995 0.02578438
v -0.00018873 0.04607501 0.01135386
v -0.00156609 0.04885098 0.03061524
v -0.00018873 0.04849996 0.02924133
v -0.00018873 0.04831640 0.02786741
v 0.00162487 0.04670943 0.01778909
v 0.00206601 0.04677384 0.01870208
v 0.00298262 0.04669977 0.01921619
v 0.00943805 0.04579162 0.02372794
v 0.00943805 0.04597841 0.02511072
v 0.00943805 0.04615553 0.02648464
v 0.00994292 0.04668689 0.03198029
v 0.01009977 0.04673197 0.03274259
v 0.01081050 0.04622637 0.03060638
v 0.01218296 0.04589146 0.03198029
v 0.01356521 0.04606213 0.03748481
v 0.01701105 0.04537297 0.04360981
v 0.01493767 0.04639383 0.04434551
v 0.01630522 0.04580450 0.04434551
v 0.01412890 0.04669655 0.04434551
v 0.01425144 0.04673841 0.04506349
v 0.01356521 0.04640027 0.04023264
v 0.02738288 0.03657813 0.02786741
v 0.02750542 0.03669406 0.02923246
v 0.02761816 0.03679389 0.03060638
v 0.02659862 0.03848137 0.03687320
v 0.02669665 0.03718356 0.02786741
v 0.02602023 0.03806272 0.03060638
v 0.02627511 0.03824628 0.03335420
v 0.02530459 0.03991122 0.04057833
v 0.02582906 0.03947647 0.04016172
v 0.01022231 0.04814894 0.04813043
v 0.01432987 0.04676740 0.04597648
v 0.01035955 0.04820046 0.04710221
v 0.01104578 0.04794927 0.04710221
v 0.01872172 0.04419432 0.04160655
v 0.02305475 0.04078394 0.03482562
v 0.02242244 0.04118648 0.03442674
v 0.01484454 0.04654519 0.04560419
v -0.00018873 0.05036134 0.04848498
v -0.00156609 0.05064795 0.04711107
v -0.00293854 0.05070270 0.04573715
v -0.00431099 0.05069303 0.04573715
v -0.00903615 0.05009726 0.04436324
v 0.00806069 0.04893149 0.04711107
v 0.00118372 0.05034201 0.04711107
v -0.00018873 0.05049659 0.04711107
v 0.00909494 0.04863844 0.04710221
v 0.00909003 0.04860301 0.04745676
v 0.01034485 0.04819080 0.04573715
v 0.00943805 0.04851284 0.04573715
v -0.00903615 0.04050699 0.03964761
v -0.00903615 0.03976308 0.03594248
v -0.00903615 0.04536653 0.00485658
v -0.00843816 0.04593010 0.00860603
v -0.00843816 0.04381109 -0.00649815
v 0.01991281 0.04270650 0.03472812
v 0.02230970 0.04111242 0.03335420
v 0.02379979 0.03981461 0.03166119
v 0.02368706 0.03973732 0.03060638
v 0.02526048 0.03850391 0.02981749
v -0.00706080 0.04444873 -0.00237641
v -0.00843816 0.04667078 0.01392441
v -0.00843816 0.04707977 0.01686724
v -0.00706080 0.04616518 0.00998881
v -0.00568835 0.04447771 -0.00237641
v 0.00284537 0.04805554 0.02924133
v 0.00315417 0.04810063 0.03006568
v 0.00531089 0.04724079 0.02649350
v 0.00531089 0.04740825 0.02786741
v 0.00583536 0.04808453 0.03432038
v 0.00638434 0.04685435 0.02511959
v 0.00107098 0.04797826 0.02659987
v 0.00145821 0.04806198 0.02761922
v 0.00188955 0.04811995 0.02853221
v 0.00243363 0.04796860 0.02799151
v 0.00118372 0.04757571 0.02373681
v -0.00706080 0.04692197 0.01549333
v -0.00706080 0.04767232 0.02098898
v -0.00568835 0.04616518 0.00998881
v -0.00431099 0.04278379 -0.01475050
v -0.00431099 0.04615231 0.00998881
v -0.00393847 0.04811673 0.02444593
v -0.00431099 0.04858369 0.02786741
v -0.00431099 0.04876403 0.02924133
v -0.00293854 0.04893471 0.03061524
v -0.00031127 0.04797826 0.02524368
v -0.00222781 0.04949505 0.03540178
v -0.00156609 0.04902166 0.03198915
v 0.00053671 0.04812317 0.02714057
v -0.00018873 0.04867064 0.03061524
v 0.00909003 0.04608145 0.02511959
v 0.00909494 0.04612010 0.02542096
v 0.00966352 0.04660316 0.03060638
v 0.00909003 0.04625858 0.02648464
v 0.00879594 0.04813606 0.04079106
v 0.00909003 0.04813928 0.04161541
v 0.00919787 0.04826809 0.04298046
v 0.01004095 0.04808775 0.04391118
v 0.01321230 0.04685757 0.04298046
v 0.01218296 0.04753063 0.04573715
v 0.02464777 0.03943138 0.03335420
v 0.02477522 0.03952155 0.03472812
v 0.02408409 0.04002393 0.03472812
v 0.02388802 0.03987901 0.03257418
v -0.00156609 0.05057066 0.04573715
v -0.00431099 0.05025828 0.04161541
v -0.00431099 0.05041608 0.04298933
v -0.00431099 0.05056100 0.04436324
v -0.00903615 0.04937912 0.03532201
v -0.00903615 0.04961743 0.03800778
v -0.00903615 0.04973980 0.03946148
v -0.00903615 0.04985252 0.04083539
v -0.00903615 0.04995557 0.04220930
v -0.00903615 0.05001031 0.04298933
v 0.00806069 0.04891217 0.04573715
v 0.00118372 0.05026150 0.04573715
v -0.00018873 0.05041608 0.04573715
v 0.00909003 0.04861589 0.04573715
v -0.00903615 0.04673519 0.01463352
v -0.00890381 0.04810707 0.02449025
v -0.00844306 0.04803622 0.02383431
v -0.00798721 0.04812640 0.02435729
v 0.00177682 0.04947895 0.03966534
v 0.00531089 0.04840335 0.03611090
v 0.00531089 0.04790741 0.03198915
v 0.00609024 0.04813928 0.03524223
v 0.00726173 0.04809419 0.03699729
v 0.00676667 0.04691875 0.02647577
v 0.00728134 0.04671587 0.02601485
v 0.00748720 0.04814894 0.03791914
v 0.00118372 0.04913759 0.03611090
v -0.00706080 0.04823266 0.02511959
v -0.00568835 0.04802978 0.02370135
v -0.00706080 0.04841623 0.02649350
v -0.00706080 0.04859335 0.02786741
v -0.00293854 0.04910539 0.03198915
v -0.00293854 0.04926963 0.03336307
v -0.00018873 0.05026472 0.04436324
v -0.00085535 0.04949505 0.03677569
v -0.00168863 0.04937268 0.03486108
v -0.00156609 0.04918268 0.03336307
v -0.00018873 0.04916657 0.03473698
v -0.00018873 0.04900234 0.03336307
v 0.00799207 0.04795249 0.03745822
v 0.00859987 0.04807809 0.03986921
v 0.00806069 0.04843555 0.04161541
v 0.00806069 0.04876081 0.04436324
v 0.00769307 0.04820690 0.03886759
v -0.00431099 0.04992980 0.03886759
v -0.00568835 0.04950149 0.03534859
v -0.00656574 0.04949505 0.03539292
v -0.00704120 0.04955624 0.03600453
v -0.00748234 0.04948539 0.03548155
v -0.00568835 0.05006828 0.04024150
v -0.00706080 0.04971404 0.03748481
v -0.00843816 0.04935658 0.03473698
v -0.00843816 0.04921810 0.03336307
v -0.00903615 0.04924064 0.03395695
v 0.00668334 0.04907640 0.04436324
v 0.00118372 0.05011015 0.04436324
v 0.00531089 0.04920522 0.04298933
v -0.00903615 0.04811995 0.02467639
v -0.00903615 0.04852894 0.02786741
v -0.00843816 0.04840012 0.02649350
v 0.00047299 0.04948861 0.03819393
v 0.00086021 0.04954336 0.03911578
v 0.00126215 0.04961099 0.04017059
v 0.00204150 0.04953370 0.04058720
v 0.00668334 0.04843877 0.03886759
v 0.00675686 0.04825843 0.03745822
v 0.00668334 0.04891861 0.04298933
v -0.00843816 0.04857403 0.02786741
v -0.00843816 0.04874148 0.02924133
v -0.00706080 0.04892183 0.03061524
v -0.00031127 0.04935980 0.03623499
v -0.00843816 0.04890250 0.03061524
v -0.00903615 0.04908607 0.03258304
v -0.00903615 0.04901844 0.03198915
v -0.00903615 0.04869640 0.02924133
v -0.00903615 0.04886064 0.03061524
f 1 2 3
f 1 3 4
f 1 4 8
f 1 8 14
f 1 14 31
f 1 31 67
f 1 67 114
f 1 114 189
f 1 189 276
f 1 276 382
f 1 382 490
f 1 490 598
f 1 598 606
f 1 606 495
f 1 495 385
f 1 385 291
f 1 291 290
f 1 290 289
f 1 289 288
f 1 288 287
f 1 287 286
f 1 286 285
f 1 285 284
f 1 284 283
f 1 283 282
f 1 282 281
f 1 281 280
f 1 280 279
f 1 279 277
f 1 277 190
f 1 190 115
f 1 115 68
f 1 68 33
f 1 33 32
f 1 32 15
f 1 15 5
f 1 5 17
f 1 17 48
f 1 48 85
f 1 85 154
f 1 154 156
f 1 156 87
f 1 87 86
f 1 86 49
f 1 49 19
f 1 19 18
f 1 18 6
f 1 6 2
f 2 6 7
f 2 7 3
f 3 8 4
f 3 7 9
f 3 9 10
f 3 10 11
f 3 11 12
f 3 12 13
f 3 13 14
f 3 14 8
f 5 15 16
f 5 16 17
f 6 18 7
f 7 18 19
f 7 19 20
f 7 20 21
f 7 21 9
f 9 21 22
f 9 22 23
f 9 23 24
f 9 24 25
f 9 25 26
f 9 26 27
f 9 27 10
f 10 27 11
f 11 28 13
f 11 13 12
f 11 27 28
f 13 28 29
f 13 29 14
f 14 29 30
f 14 30 31
f 15 32 16
f 16 32 33
f 16 33 34
f 16 34 35
f 16 35 36
f 16 36 37
f 16 37 38
f 16 38 39
f 16 39 40
f 16 40 41
f 16 41 42
f 16 42 43
f 16 43 44
f 16 44 45
f 16 45 46
f 16 46 47
f 16 47 48
f 16 48 17
f 19 21 20
f 19 49 21
f 21 49 50
f 21 50 51
f 21 51 52
f 21 52 53
f 21 53 54
f 21 54 22
f 22 54 55
f 22 55 23
f 23 55 24
f 24 56 25
f 24 55 57
f 24 57 56
f 25 56 58
f 25 58 59
f 25 59 26
f 26 59 28
f 26 28 27
f 28 59 60
f 28 60 61
f 28 61 29
f 29 61 30
f 30 61 62
f 30 62 63
f 30 63 64
f 30 64 31
f 31 64 65
f 31 65 66
f 31 66 67
f 33 68 34
f 34 69 70
f 34 70 35
f 34 68 69
f 35 70 36
f 36 70 71
f 36 71 38
f 36 38 37
f 38 71 39
f 39 71 40
f 40 71 72
f 40 72 42
f 40 42 41
f 42 73 43
f 42 72 74
f 42 74 73
f 43 73 75
f 43 75 76
f 43 76 77
f 43 77 44
f 44 78 45
f 44 77 78
f 45 79 80
f 45 80 81
f 45 81 47
f 45 47 46
f 45 78 79
f 47 81 82
f 47 82 83
f 47 83 84
f 47 84 85
f 47 85 48
f 49 86 50
f 50 86 87
f 50 87 88
f 50 88 51
f 51 88 89
f 51 89 90
f 51 90 53
f 51 53 52
f 53 90 91
f 53 91 92
f 53 92 93
f 53 93 54
f 54 93 55
f 55 93 94
f 55 94 95
f 55 95 96
f 55 96 97
f 55 97 98
f 55 98 99
f 55 99 100
f 55 100 57
f 56 57 58
f 57 101 58
f 57 100 102
f 57 102 101
f 58 101 103
f 58 103 104
f 58 104 59
f 59 105 106
f 59 106 60
f 59 104 103
f 59 103 105
f 60 106 107
f 60 107 62
f 60 62 61
f 62 107 108
f 62 108 63
f 63 108 65
f 63 65 64
f 65 109 181
f 65 181 268
f 65 268 374
f 65 374 373
f 65 373 481
f 65 481 483
f 65 483 589
f 65 589 685
f 65 685 756
f 65 756 755
f 65 755 754
f 65 754 753
f 65 753 752
f 65 752 751
f 65 751 800
f 65 800 819
f 65 819 820
f 65 820 822
f 65 822 821
f 65 821 805
f 65 805 804
f 65 804 761
f 65 761 695
f 65 695 604
f 65 604 491
f 65 491 383
f 65 383 278
f 65 278 191
f 65 191 292
f 65 292 386
f 65 386 496
f 65 496 607
f 65 607 694
f 65 694 693
f 65 693 603
f 65 603 602
f 65 602 601
f 65 601 600
f 65 600 599
f 65 599 597
f 65 597 489
f 65 489 488
f 65 488 381
f 65 381 275
f 65 275 188
f 65 188 113
f 65 113 66
f 65 108 110
f 65 110 106
f 65 106 111
f 65 111 112
f 65 112 109
f 66 113 67
f 67 113 114
f 68 115 116
f 68 116 69
f 69 116 117
f 69 117 71
f 69 71 70
f 71 118 119
f 71 119 120
f 71 120 121
f 71 121 122
f 71 122 123
f 71 123 124
f 71 124 125
f 71 125 126
f 71 126 127
f 71 127 128
f 71 128 74
f 71 74 72
f 71 117 192
f 71 192 191
f 71 191 278
f 71 278 384
f 71 384 494
f 71 494 403
f 71 403 309
f 71 309 207
f 71 207 206
f 71 206 205
f 71 205 129
f 71 129 130
f 71 130 131
f 71 131 132
f 71 132 133
f 71 133 134
f 71 134 118
f 73 74 135
f 73 135 75
f 74 128 135
f 75 135 136
f 75 136 137
f 75 137 76
f 76 138 77
f 76 137 139
f 76 139 140
f 76 140 141
f 76 141 142
f 76 142 143
f 76 143 144
f 76 144 138
f 77 138 145
f 77 145 146
f 77 146 147
f 77 147 78
f 78 147 79
f 79 147 80
f 80 147 146
f 80 146 81
f 81 146 82
f 82 146 148
f 82 148 149
f 82 149 83
f 83 149 150
f 83 150 151
f 83 151 84
f 84 151 152
f 84 152 153
f 84 153 85
f 85 153 154
f 87 155 88
f 87 156 155
f 88 155 157
f 88 157 158
f 88 158 159
f 88 159 160
f 88 160 89
f 89 160 90
f 90 160 91
f 91 160 92
f 92 160 93
f 93 160 95
f 93 95 94
f 95 160 161
f 95 161 162
f 95 162 96
f 96 163 97
f 96 162 164
f 96 164 165
f 96 165 163
f 97 166 98
f 97 163 166
f 98 166 167
f 98 167 168
f 98 168 99
f 99 168 169
f 99 169 100
f 100 170 171
f 100 171 172
f 100 172 173
f 100 173 174
f 100 174 175
f 100 175 102
f 100 169 176
f 100 176 170
f 101 177 103
f 101 102 177
f 102 175 177
f 103 177 178
f 103 178 179
f 103 179 105
f 105 179 112
f 105 112 111
f 105 111 106
f 106 110 108
f 106 108 107
f 109 180 181
f 109 112 182
f 109 182 183
f 109 183 184
f 109 184 185
f 109 185 180
f 112 179 186
f 112 186 187
f 112 187 183
f 112 183 182
f 113 188 189
f 113 189 114
f 115 190 191
f 115 191 116
f 116 191 192
f 116 192 117
f 118 134 193
f 118 193 119
f 119 193 194
f 119 194 195
f 119 195 196
f 119 196 197
f 119 197 198
f 119 198 120
f 120 198 121
f 121 198 199
f 121 199 122
f 122 199 200
f 122 200 201
f 122 201 202
f 122 202 123
f 123 202 124
f 124 202 125
f 125 202 203
f 125 203 126
f 126 203 127
f 127 203 128
f 128 203 204
f 128 204 135
f 129 205 130
f 130 205 206
f 130 206 207
f 130 207 208
f 130 208 209
f 130 209 131
f 131 209 210
f 131 210 132
f 132 210 211
f 132 211 212
f 132 212 213
f 132 213 133
f 133 213 214
f 133 214 215
f 133 215 216
f 133 216 134
f 134 216 193
f 135 204 217
f 135 217 218
f 135 218 136
f 136 218 219
f 136 219 220
f 136 220 139
f 136 139 137
f 138 144 221
f 138 221 148
f 138 148 145
f 139 220 140
f 140 220 141
f 141 220 142
f 142 220 222
f 142 222 223
f 142 223 143
f 143 223 336
f 143 336 224
f 143 224 225
f 143 225 144
f 144 225 221
f 145 148 146
f 148 221 226
f 148 226 149
f 149 226 150
f 150 226 225
f 150 225 227
f 150 227 228
f 150 228 151
f 151 228 229
f 151 229 230
f 151 230 152
f 152 230 231
f 152 231 232
f 152 232 153
f 153 232 233
f 153 233 154
f 154 233 156
f 155 156 234
f 155 234 157
f 156 233 235
f 156 235 234
f 157 234 158
f 158 234 159
f 159 234 236
f 159 236 160
f 160 236 231
f 160 231 161
f 161 231 237
f 161 237 162
f 162 237 238
f 162 238 239
f 162 239 164
f 163 165 245
f 163 245 166
f 164 239 240
f 164 240 241
f 164 241 242
f 164 242 243
f 164 243 165
f 165 243 244
f 165 244 245
f 166 245 244
f 166 244 167
f 167 244 168
f 168 244 246
f 168 246 247
f 168 247 248
f 168 248 169
f 169 248 176
f 170 176 249
f 170 249 250
f 170 250 251
f 170 251 171
f 171 252 253
f 171 253 254
f 171 254 255
f 171 255 172
f 171 251 256
f 171 256 257
f 171 257 258
f 171 258 259
f 171 259 260
f 171 260 252
f 172 255 254
f 172 254 173
f 173 254 261
f 173 261 174
f 174 261 175
f 175 261 177
f 176 248 251
f 176 251 250
f 176 250 249
f 177 262 178
f 177 261 262
f 178 262 179
f 179 263 264
f 179 264 186
f 179 262 263
f 180 185 265
f 180 265 266
f 180 266 267
f 180 267 268
f 180 268 181
f 183 269 270
f 183 270 271
f 183 271 184
f 183 187 272
f 183 272 273
f 183 273 269
f 184 271 274
f 184 274 185
f 185 274 265
f 186 264 272
f 186 272 187
f 188 275 189
f 189 275 276
f 190 277 191
f 191 277 279
f 191 279 280
f 191 280 281
f 191 281 282
f 191 282 283
f 191 283 284
f 191 284 285
f 191 285 286
f 191 286 287
f 191 287 288
f 191 288 289
f 191 289 290
f 191 290 291
f 191 291 292
f 193 216 293
f 193 293 194
f 194 293 294
f 194 294 195
f 195 295 296
f 195 296 297
f 195 297 197
f 195 197 196
f 195 294 298
f 195 298 299
f 195 299 300
f 195 300 295
f 197 297 301
f 197 301 199
f 197 199 198
f 199 301 302
f 199 302 200
f 200 302 201
f 201 302 303
f 201 303 304
f 201 304 305
f 201 305 306
f 201 306 307
f 201 307 202
f 202 307 203
f 203 307 306
f 203 306 204
f 204 306 308
f 204 308 217
f 207 309 310
f 207 310 311
f 207 311 208
f 208 312 209
f 208 311 313
f 208 313 312
f 209 314 210
f 209 312 315
f 209 315 316
f 209 316 314
f 210 314 317
f 210 317 211
f 211 317 318
f 211 318 319
f 211 319 212
f 212 320 213
f 212 319 316
f 212 316 321
f 212 321 322
f 212 322 323
f 212 323 320
f 213 320 214
f 214 320 324
f 214 324 325
f 214 325 326
f 214 326 215
f 215 327 328
f 215 328 329
f 215 329 294
f 215 294 330
f 215 330 216
f 215 326 327
f 216 330 293
f 217 308 331
f 217 331 218
f 218 331 332
f 218 332 219
f 219 333 220
f 219 332 333
f 220 333 334
f 220 334 222
f 221 225 226
f 222 334 223
f 223 335 336
f 223 334 337
f 223 337 338
f 223 338 335
f 224 336 225
f 225 336 227
f 227 339 239
f 227 239 238
f 227 238 340
f 227 340 228
f 227 336 339
f 228 340 238
f 228 238 237
f 228 237 341
f 228 341 229
f 229 341 230
f 230 341 231
f 231 341 237
f 231 236 232
f 232 236 233
f 233 236 234
f 233 234 235
f 239 339 342
f 239 342 240
f 240 343 241
f 240 342 344
f 240 344 345
f 240 345 346
f 240 346 343
f 241 343 347
f 241 347 247
f 241 247 242
f 242 247 246
f 242 246 243
f 243 246 244
f 247 348 248
f 247 347 349
f 247 349 350
f 247 350 348
f 248 348 351
f 248 351 251
f 251 351 256
f 252 260 352
f 252 352 353
f 252 353 354
f 252 354 254
f 252 254 253
f 254 354 355
f 254 355 262
f 254 262 261
f 256 351 348
f 256 348 257
f 257 348 258
f 258 348 356
f 258 356 357
f 258 357 259
f 259 357 358
f 259 358 260
f 260 358 359
f 260 359 360
f 260 360 361
f 260 361 362
f 260 362 363
f 260 363 364
f 260 364 352
f 262 355 263
f 263 355 365
f 263 365 264
f 264 365 366
f 264 366 367
f 264 367 272
f 265 274 368
f 265 368 369
f 265 369 370
f 265 370 266
f 266 370 267
f 267 370 371
f 267 371 372
f 267 372 373
f 267 373 374
f 267 374 268
f 269 273 375
f 269 375 376
f 269 376 270
f 270 376 377
f 270 377 368
f 270 368 271
f 271 368 274
f 272 367 273
f 273 367 378
f 273 378 379
f 273 379 380
f 273 380 375
f 275 381 382
f 275 382 276
f 278 383 384
f 291 385 292
f 292 385 386
f 293 330 294
f 294 329 387
f 294 387 388
f 294 388 300
f 294 300 299
f 294 299 298
f 295 389 296
f 295 300 390
f 295 390 391
f 295 391 392
f 295 392 389
f 296 389 297
f 297 393 394
f 297 394 301
f 297 389 392
f 297 392 395
f 297 395 396
f 297 396 397
f 297 397 393
f 300 388 398
f 300 398 391
f 300 391 390
f 301 399 302
f 301 394 399
f 302 399 303
f 303 399 400
f 303 400 304
f 304 400 401
f 304 401 402
f 304 402 305
f 305 308 306
f 305 402 308
f 308 402 331
f 309 403 404
f 309 404 310
f 310 404 405
f 310 405 406
f 310 406 313
f 310 313 407
f 310 407 311
f 311 407 313
f 312 408 315
f 312 313 409
f 312 409 410
f 312 410 411
f 312 411 412
f 312 412 413
f 312 413 414
f 312 414 408
f 313 406 415
f 313 415 416
f 313 416 417
f 313 417 418
f 313 418 419
f 313 419 420
f 313 420 421
f 313 421 422
f 313 422 423
f 313 423 409
f 314 316 319
f 314 319 317
f 315 408 414
f 315 414 424
f 315 424 425
f 315 425 426
f 315 426 427
f 315 427 322
f 315 322 321
f 315 321 316
f 317 319 318
f 320 323 324
f 322 427 428
f 322 428 323
f 323 429 430
f 323 430 324
f 323 428 431
f 323 431 429
f 324 432 325
f 324 430 433
f 324 433 432
f 325 432 326
f 326 432 433
f 326 433 327
f 327 433 434
f 327 434 328
f 328 435 436
f 328 436 329
f 328 434 437
f 328 437 438
f 328 438 439
f 328 439 435
f 329 436 387
f 331 402 440
f 331 440 332
f 332 440 333
f 333 440 402
f 333 402 441
f 333 441 442
f 333 442 334
f 334 442 443
f 334 443 444
f 334 444 445
f 334 445 446
f 334 446 337
f 335 447 451
f 335 451 448
f 335 448 339
f 335 339 336
f 335 338 446
f 335 446 447
f 337 446 338
f 339 449 345
f 339 345 450
f 339 450 342
f 339 448 451
f 339 451 449
f 342 450 344
f 343 346 345
f 343 345 452
f 343 452 347
f 344 450 345
f 345 449 452
f 347 452 453
f 347 453 349
f 348 350 356
f 349 453 454
f 349 454 350
f 350 454 455
f 350 455 456
f 350 456 357
f 350 357 356
f 352 364 353
f 353 457 458
f 353 458 459
f 353 459 354
f 353 364 460
f 353 460 461
f 353 461 457
f 354 459 367
f 354 367 366
f 354 366 365
f 354 365 355
f 357 456 358
f 358 456 359
f 359 456 462
f 359 462 360
f 360 463 464
f 360 464 465
f 360 465 466
f 360 466 361
f 360 462 463
f 361 466 362
f 362 467 363
f 362 466 468
f 362 468 469
f 362 469 467
f 363 467 470
f 363 470 471
f 363 471 364
f 364 471 472
f 364 472 473
f 364 473 461
f 364 461 460
f 367 459 458
f 367 458 378
f 368 377 474
f 368 474 475
f 368 475 369
f 369 475 370
f 370 475 474
f 370 474 476
f 370 476 477
f 370 477 478
f 370 478 479
f 370 479 371
f 371 479 480
f 371 480 372
f 372 481 373
f 372 480 482
f 372 482 483
f 372 483 481
f 375 380 376
f 376 380 379
f 376 379 484
f 376 484 476
f 376 476 377
f 377 476 474
f 378 458 379
f 379 458 485
f 379 485 486
f 379 486 487
f 379 487 484
f 381 488 382
f 382 489 490
f 382 488 489
f 383 491 492
f 383 492 493
f 383 493 384
f 384 493 494
f 385 495 496
f 385 496 386
f 387 436 497
f 387 497 388
f 388 497 498
f 388 498 499
f 388 499 500
f 388 500 398
f 391 398 501
f 391 501 502
f 391 502 503
f 391 503 392
f 392 503 395
f 393 397 504
f 393 504 505
f 393 505 394
f 394 505 506
f 394 506 399
f 395 503 507
f 395 507 396
f 396 507 397
f 397 507 504
f 398 500 501
f 399 506 400
f 400 506 401
f 401 506 508
f 401 508 402
f 402 508 441
f 403 494 493
f 403 493 404
f 404 509 510
f 404 510 511
f 404 511 512
f 404 512 405
f 404 493 513
f 404 513 492
f 404 492 509
f 405 512 415
f 405 415 406
f 409 423 514
f 409 514 410
f 410 514 515
f 410 515 411
f 411 515 412
f 412 515 516
f 412 516 413
f 413 517 518
f 413 518 424
f 413 424 414
f 413 516 519
f 413 519 517
f 415 512 520
f 415 520 416
f 416 520 521
f 416 521 522
f 416 522 417
f 417 523 524
f 417 524 418
f 417 522 525
f 417 525 523
f 418 524 526
f 418 526 527
f 418 527 419
f 419 527 420
f 420 527 421
f 421 515 514
f 421 514 423
f 421 423 422
f 421 527 528
f 421 528 516
f 421 516 515
f 424 518 529
f 424 529 425
f 425 530 426
f 425 529 531
f 425 531 532
f 425 532 533
f 425 533 530
f 426 530 427
f 427 530 534
f 427 534 428
f 428 534 530
f 428 530 535
f 428 535 431
f 429 431 536
f 429 536 537
f 429 537 538
f 429 538 430
f 430 538 433
f 431 533 539
f 431 539 536
f 431 535 530
f 431 530 533
f 433 538 540
f 433 540 434
f 434 541 542
f 434 542 543
f 434 543 544
f 434 544 545
f 434 545 546
f 434 546 547
f 434 547 548
f 434 548 437
f 434 540 538
f 434 538 537
f 434 537 549
f 434 549 550
f 434 550 541
f 435 551 552
f 435 552 553
f 435 553 436
f 435 439 554
f 435 554 555
f 435 555 551
f 436 553 497
f 437 548 547
f 437 547 438
f 438 547 439
f 439 547 546
f 439 546 556
f 439 556 554
f 441 508 442
f 442 508 443
f 443 508 557
f 443 557 444
f 444 557 558
f 444 558 445
f 445 558 446
f 446 558 559
f 446 559 447
f 447 560 451
f 447 559 560
f 449 561 452
f 449 451 561
f 451 560 561
f 452 562 563
f 452 563 453
f 452 561 564
f 452 564 565
f 452 565 562
f 453 563 566
f 453 566 454
f 454 566 567
f 454 567 455
f 455 567 568
f 455 568 463
f 455 463 456
f 456 463 462
f 457 461 458
f 458 461 569
f 458 569 570
f 458 570 485
f 461 571 569
f 461 473 572
f 461 572 573
f 461 573 571
f 463 568 464
f 464 574 465
f 464 568 575
f 464 575 576
f 464 576 574
f 465 574 577
f 465 577 466
f 466 577 578
f 466 578 468
f 467 469 579
f 467 579 580
f 467 580 470
f 468 578 579
f 468 579 469
f 470 580 581
f 470 581 471
f 471 582 472
f 471 581 582
f 472 572 473
f 472 582 572
f 476 484 583
f 476 583 584
f 476 584 477
f 477 584 478
f 478 585 586
f 478 586 479
f 478 584 583
f 478 583 585
f 479 586 587
f 479 587 480
f 480 587 482
f 482 587 483
f 483 587 588
f 483 588 589
f 484 487 590
f 484 590 591
f 484 591 592
f 484 592 583
f 485 570 571
f 485 571 593
f 485 593 594
f 485 594 595
f 485 595 596
f 485 596 486
f 486 596 487
f 487 596 590
f 489 597 490
f 490 597 599
f 490 599 600
f 490 600 601
f 490 601 602
f 490 602 603
f 490 603 598
f 491 604 492
f 492 513 493
f 492 604 605
f 492 605 510
f 492 510 509
f 495 606 607
f 495 607 496
f 497 553 552
f 497 552 498
f 498 552 608
f 498 608 609
f 498 609 610
f 498 610 611
f 498 611 612
f 498 612 499
f 499 612 500
f 500 612 501
f 501 613 502
f 501 612 614
f 501 614 699
f 501 699 613
f 502 613 503
f 503 613 507
f 504 615 616
f 504 616 617
f 504 617 618
f 504 618 506
f 504 506 505
f 504 507 615
f 506 618 508
f 507 619 620
f 507 620 621
f 507 621 615
f 507 613 622
f 507 622 623
f 507 623 624
f 507 624 625
f 507 625 626
f 507 626 619
f 508 618 627
f 508 627 628
f 508 628 557
f 510 605 629
f 510 629 511
f 511 629 630
f 511 630 631
f 511 631 512
f 512 631 520
f 516 632 519
f 516 528 633
f 516 633 634
f 516 634 632
f 517 519 632
f 517 632 518
f 518 632 635
f 518 635 636
f 518 636 529
f 520 631 637
f 520 637 638
f 520 638 639
f 520 639 522
f 520 522 521
f 522 639 640
f 522 640 641
f 522 641 525
f 523 525 642
f 523 642 643
f 523 643 524
f 524 643 526
f 525 641 727
f 525 727 644
f 525 644 645
f 525 645 646
f 525 646 642
f 526 643 527
f 527 643 647
f 527 647 648
f 527 648 649
f 527 649 633
f 527 633 528
f 529 636 531
f 531 636 635
f 531 635 650
f 531 650 532
f 532 650 533
f 533 650 539
f 536 539 537
f 537 539 550
f 537 550 549
f 539 650 651
f 539 651 550
f 541 550 542
f 542 550 652
f 542 652 653
f 542 653 654
f 542 654 543
f 543 654 544
f 544 655 656
f 544 656 545
f 544 654 655
f 545 656 657
f 545 657 546
f 546 657 556
f 550 651 652
f 551 555 552
f 552 555 658
f 552 658 608
f 554 556 659
f 554 659 555
f 555 659 660
f 555 660 658
f 556 661 662
f 556 662 659
f 556 657 663
f 556 663 661
f 557 628 558
f 558 664 559
f 558 628 664
f 559 664 665
f 559 665 560
f 560 666 564
f 560 564 561
f 560 665 666
f 562 667 566
f 562 566 563
f 562 565 667
f 564 666 565
f 565 665 668
f 565 668 669
f 565 669 670
f 565 670 667
f 565 666 665
f 566 671 567
f 566 667 672
f 566 672 671
f 567 671 575
f 567 575 568
f 569 571 570
f 571 573 673
f 571 673 593
f 572 582 573
f 573 674 594
f 573 594 675
f 573 675 676
f 573 676 673
f 573 582 674
f 574 576 612
f 574 612 677
f 574 677 577
f 575 678 679
f 575 679 576
f 575 671 678
f 576 679 614
f 576 614 612
f 577 677 578
f 578 677 580
f 578 580 579
f 580 677 581
f 581 660 582
f 581 677 612
f 581 612 658
f 581 658 660
f 582 660 680
f 582 680 674
f 583 592 681
f 583 681 585
f 585 681 586
f 586 681 682
f 586 682 747
f 586 747 683
f 586 683 587
f 587 683 684
f 587 684 588
f 588 684 685
f 588 685 589
f 590 596 591
f 591 596 686
f 591 686 687
f 591 687 592
f 592 687 688
f 592 688 682
f 592 682 681
f 593 673 594
f 594 689 690
f 594 690 595
f 594 673 675
f 594 674 691
f 594 691 692
f 594 692 689
f 595 690 596
f 596 690 689
f 596 689 686
f 598 603 693
f 598 693 694
f 598 694 607
f 598 607 606
f 604 695 605
f 605 695 696
f 605 696 697
f 605 697 629
f 608 658 610
f 608 610 609
f 610 658 698
f 610 698 611
f 611 698 612
f 612 698 658
f 613 699 622
f 614 679 699
f 615 621 616
f 616 621 620
f 616 620 627
f 616 627 617
f 617 627 618
f 619 626 668
f 619 668 620
f 620 668 627
f 622 699 623
f 623 700 701
f 623 701 624
f 623 699 700
f 624 701 625
f 625 701 700
f 625 700 702
f 625 702 626
f 626 702 668
f 627 668 664
f 627 664 628
f 629 697 630
f 630 697 703
f 630 703 696
f 630 696 704
f 630 704 705
f 630 705 706
f 630 706 707
f 630 707 631
f 631 707 637
f 632 634 708
f 632 708 709
f 632 709 710
f 632 710 711
f 632 711 712
f 632 712 713
f 632 713 635
f 633 649 634
f 634 714 715
f 634 715 716
f 634 716 717
f 634 717 708
f 634 649 648
f 634 648 718
f 634 718 714
f 635 713 650
f 637 707 719
f 637 719 720
f 637 720 721
f 637 721 722
f 637 722 638
f 638 722 723
f 638 723 640
f 638 640 639
f 640 723 724
f 640 724 641
f 641 725 726
f 641 726 727
f 641 724 725
f 642 646 728
f 642 728 643
f 643 728 647
f 644 727 729
f 644 729 730
f 644 730 732
f 644 732 645
f 645 716 715
f 645 715 731
f 645 731 646
f 645 732 716
f 646 731 728
f 647 728 718
f 647 718 648
f 650 713 733
f 650 733 651
f 651 733 734
f 651 734 652
f 652 735 653
f 652 734 736
f 652 736 737
f 652 737 735
f 653 735 737
f 653 737 654
f 654 737 738
f 654 738 739
f 654 739 740
f 654 740 655
f 655 740 741
f 655 741 661
f 655 661 663
f 655 663 657
f 655 657 656
f 659 662 680
f 659 680 660
f 661 741 740
f 661 740 662
f 662 692 691
f 662 691 742
f 662 742 674
f 662 674 680
f 662 740 692
f 664 668 665
f 667 670 743
f 667 743 744
f 667 744 745
f 667 745 672
f 668 702 669
f 669 702 746
f 669 746 743
f 669 743 670
f 671 672 678
f 672 745 678
f 673 676 675
f 674 742 691
f 678 745 746
f 678 746 679
f 679 746 700
f 679 700 699
f 682 688 747
f 683 748 749
f 683 749 750
f 683 750 684
f 683 747 729
f 683 729 748
f 684 750 751
f 684 751 752
f 684 752 753
f 684 753 754
f 684 754 755
f 684 755 756
f 684 756 685
f 686 689 757
f 686 757 687
f 687 757 758
f 687 758 759
f 687 759 688
f 688 759 747
f 689 692 760
f 689 760 757
f 692 740 739
f 692 739 760
f 695 761 696
f 696 703 697
f 696 761 704
f 700 746 702
f 704 761 705
f 705 761 762
f 705 762 763
f 705 763 764
f 705 764 706
f 706 764 719
f 706 719 707
f 708 717 716
f 708 716 765
f 708 765 709
f 709 711 710
f 709 765 766
f 709 766 767
f 709 767 711
f 711 767 712
f 712 767 766
f 712 766 768
f 712 768 769
f 712 769 713
f 713 770 771
f 713 771 734
f 713 734 733
f 713 769 772
f 713 772 770
f 714 731 715
f 714 718 731
f 716 732 773
f 716 773 765
f 718 728 731
f 719 764 720
f 720 764 774
f 720 774 775
f 720 775 724
f 720 724 721
f 721 724 723
f 721 723 722
f 724 775 725
f 725 776 726
f 725 775 774
f 725 774 776
f 726 776 777
f 726 777 778
f 726 778 727
f 727 778 729
f 729 779 748
f 729 747 780
f 729 780 781
f 729 781 782
f 729 782 730
f 729 778 779
f 730 782 783
f 730 783 781
f 730 781 784
f 730 784 785
f 730 785 732
f 732 785 773
f 734 771 736
f 736 771 786
f 736 786 787
f 736 787 737
f 737 788 789
f 737 789 760
f 737 760 739
f 737 739 738
f 737 787 772
f 737 772 790
f 737 790 788
f 743 746 745
f 743 745 744
f 747 759 780
f 748 779 778
f 748 778 791
f 748 791 792
f 748 792 793
f 748 793 794
f 748 794 749
f 749 794 795
f 749 795 796
f 749 796 750
f 750 796 797
f 750 797 751
f 751 797 798
f 751 798 799
f 751 799 800
f 757 760 789
f 757 789 801
f 757 801 758
f 758 802 780
f 758 780 759
f 758 801 803
f 758 803 802
f 761 804 762
f 762 804 805
f 762 805 806
f 762 806 763
f 763 806 764
f 764 806 776
f 764 776 774
f 765 773 807
f 765 807 808
f 765 808 809
f 765 809 802
f 765 802 810
f 765 810 803
f 765 803 766
f 766 803 811
f 766 811 768
f 768 811 812
f 768 812 769
f 769 812 811
f 769 811 813
f 769 813 772
f 770 772 786
f 770 786 771
f 772 787 786
f 772 813 789
f 772 789 788
f 772 788 790
f 773 785 807
f 776 806 777
f 777 806 814
f 777 814 815
f 777 815 816
f 777 816 792
f 777 792 778
f 778 792 791
f 780 802 781
f 781 807 817
f 781 817 784
f 781 783 782
f 781 802 807
f 784 817 807
f 784 807 785
f 789 813 801
f 792 816 815
f 792 815 793
f 793 815 818
f 793 818 794
f 794 818 795
f 795 799 797
f 795 797 796
f 795 818 799
f 797 799 798
f 799 819 800
f 799 818 822
f 799 822 820
f 799 820 819
f 801 813 803
f 802 803 810
f 802 809 808
f 802 808 807
f 803 813 811
f 805 821 815
f 805 815 814
f 805 814 806
f 815 821 822
f 815 822 818

