# https://github.com/mikedh/trimesh
v -0.33240828 0.03130581 -0.73709202
v -0.33240828 0.03521581 -0.73709202
v -0.33237827 0.03130581 -0.73717201
v -0.33237827 0.02349581 -0.72141200
v -0.32846826 0.01958581 -0.71806204
v -0.33237827 0.02739581 -0.73717201
v -0.33240828 0.02739581 -0.73709202
v -0.32952514 -0.00029648 -0.14637101
v -0.33240828 0.01958581 -0.73709202
v -0.33237827 0.01948581 -0.73709202
v -0.33237827 0.01946581 -0.73318201
v -0.33237827 0.01958581 -0.73717201
v -0.33240828 0.04302581 -0.73709202
v -0.33237827 0.03911581 -0.73717201
v -0.33240828 0.03911581 -0.73709202
v -0.33237827 0.02739581 -0.72141200
v -0.33239827 0.02739581 -0.72146201
v -0.33240828 0.02349581 -0.73709202
v -0.33241826 0.01958581 -0.73318201
v -0.32846826 0.01958581 -0.74081200
v -0.33237827 0.04692581 -0.73717201
v -0.33240828 0.05864581 -0.73709202
v -0.33240828 0.05474581 -0.73709202
v -0.33242828 0.01958581 -0.72928202
v -0.33242828 0.01958581 -0.72537202
v -0.33239827 0.02349581 -0.72146201
v -0.33240828 0.12114581 -0.73709202
v -0.33237827 0.11724581 -0.73717201
v -0.33240828 0.11724581 -0.73709202
v -0.33237827 0.04302581 -0.73717201
v -0.33240828 0.07427580 -0.73709202
v -0.33237827 0.07036581 -0.73717201
v -0.33240828 0.07036581 -0.73709202
v -0.33221826 0.12896581 -0.08475200
v -0.33237827 0.01951581 -0.72146201
v -0.33239827 0.01958581 -0.72146201
v -0.33237827 0.01943581 -0.72537202
v -0.33237827 0.05474581 -0.73717201
v -0.33243278 0.03863563 -0.72729152
v -0.33140394 0.06124552 -0.72004116
v -0.33237827 0.02349581 -0.73717201
v -0.33237827 0.06646581 -0.73717201
v -0.33240828 0.06646581 -0.73709202
v -0.33237827 0.12505580 -0.73717201
v -0.33237827 0.12896581 -0.73717201
v -0.33240828 0.12896581 -0.73709202
v -0.33323663 0.13203688 -0.07336399
v -0.33240828 0.08989581 -0.73709202
v -0.33240828 0.08599581 -0.73709202
v -0.33241406 0.13299412 -0.71727180
v -0.33237827 0.10161581 -0.73717201
v -0.33237827 0.09771581 -0.73717201
v -0.33240828 0.10161581 -0.73709202
v -0.29382044 0.02835107 -0.72561812
v -0.33237827 0.01945581 -0.72928202
v -0.33237827 0.01958581 -0.72141200
v -0.33240828 0.04692581 -0.73709202
v -0.33240828 0.06255581 -0.73709202
v -0.33237827 0.05864581 -0.73717201
v -0.33240828 0.05083581 -0.73709202
v -0.33237827 0.03521581 -0.73717201
v -0.33237827 0.06255581 -0.73717201
v -0.32853663 0.11673225 -0.71825475
v -0.33237827 0.08208581 -0.73717201
v -0.33237827 0.05083581 -0.73717201
v -0.33237827 0.09380581 -0.73717201
v -0.31018424 0.10552100 -0.74088293
v -0.33240828 0.07817581 -0.73709202
v -0.33237827 0.07427580 -0.73717201
v -0.33237827 0.08599581 -0.73717201
v -0.33237827 0.12114581 -0.73717201
v -0.33240828 0.12505580 -0.73709202
v -0.33237827 0.07817581 -0.73717201
v -0.33240828 0.11333581 -0.73709202
v -0.33237827 0.10942581 -0.73717201
v -0.33240828 0.10942581 -0.73709202
v -0.32883596 0.13706005 -0.73753786
v -0.33240828 0.09771581 -0.73709202
v -0.33240828 0.09380581 -0.73709202
v -0.33240637 0.13295847 -0.73237437
v -0.33241826 0.13286582 -0.73318201
v -0.33237827 0.11333581 -0.73717201
v -0.33237827 0.12897581 -0.02615200
v -0.33237827 0.12895581 -0.01443200
v -0.33234826 0.12896581 -0.03396200
v -0.33235827 0.12896581 -0.03006200
v -0.33237827 0.12898581 -0.03006200
v -0.33237827 0.12900580 -0.03396200
v -0.33237827 0.08989581 -0.73717201
v -0.33240828 0.08208581 -0.73709202
v -0.33241969 0.12866183 -0.72150439
v -0.32848239 0.13632318 -0.71406555
v -0.32844043 0.13282494 -0.74083608
v -0.33237827 0.10552580 -0.73717201
v -0.33240828 0.10552580 -0.73709202
v -0.32846826 0.13286582 -0.74081200
v -0.33232826 0.12896581 -0.04178200
v -0.33233827 0.12896581 -0.03787200
v -0.33237827 0.12902582 -0.03787200
v -0.33237827 0.12906581 -0.04959200
v -0.33230826 0.12896581 -0.04959200
v -0.33237827 0.12905581 -0.04568200
v -0.36242476 0.10269541 0.06841531
v -0.31778607 0.13835385 -0.73538840
v -0.33240828 0.13286582 -0.73709202
v -0.33237827 0.13297582 -0.73709202
v -0.33324683 0.13286635 -0.04604395
v -0.33198825 0.13576852 -0.01972921
v -0.33237827 0.13286582 -0.73717201
v -0.33237827 0.12914582 -0.06912200
v -0.33226237 0.12896553 -0.06724551
v -0.33237812 0.12912969 -0.06435100
v -0.33231828 0.12896581 -0.04568200
v -0.33237827 0.12919581 -0.08084200
v -0.33237827 0.12896581 -0.01834200
v -0.33433378 0.13358639 -0.15340406
v -0.33195862 0.12901893 -0.13609937
v -0.31785378 0.12610294 -0.05144702
v -0.32406336 0.12628579 0.00974300
v -0.33227828 0.12896581 -0.06131199
v -0.33228827 0.12896581 -0.05740200
v -0.33237827 0.12910581 -0.05740200
v -0.33237773 0.12923540 -0.08965275
v -0.33229828 0.12896581 -0.05350200
v -0.33220732 0.12896709 -0.09226346
v -0.33237827 0.12895581 -0.02225200
v -0.33237827 0.12896581 -0.02281200
v -0.33237827 0.12896581 -0.02225200
v -0.33226088 0.12903474 -0.10461579
v -0.33237827 0.12895581 -0.01834200
v -0.33237827 0.12908581 -0.05350200
v -0.32851833 0.12756269 -0.02186135
v -0.33224827 0.12896581 -0.07303200
v -0.33333385 0.13079345 -0.00704727
v -0.33237827 0.12903582 -0.04178200
v -0.33223212 0.12896548 -0.07905215
v -0.30844414 0.13285311 -0.03727595
v -0.30893826 0.10931581 -0.06912200
v -0.30893826 0.10932581 -0.06521200
v -0.30889827 0.10942581 -0.06131199
v -0.30889827 0.10942581 -0.05740200
v -0.33236828 0.12896581 -0.02615200
v -0.12562630 -0.00567373 0.78081918
v -0.02417470 0.02536948 0.18035959
v -0.31253862 0.06828144 -0.07786234
v -0.31182313 0.13125066 -0.22351481
v -0.30888826 0.10942581 -0.06912200
v -0.30888826 0.10942581 -0.06521200
v -0.31857967 0.12547612 0.12764418
v -0.30530944 0.05072927 0.38949943
v -0.30893826 0.10929581 -0.07303200
v -0.30887821 0.10942317 -0.07985433
v -0.30893826 0.10928581 -0.07693200
v -0.30887827 0.10942581 -0.07303200
v -0.30893826 0.10933581 -0.06131199
v -0.18764310 -0.02343082 -0.29567558
v 0.00827771 -0.06147344 0.01151013
v -0.23116098 0.04299609 0.38004258
v -0.22690827 0.04302581 0.38007802
v -0.31377164 0.03098621 -0.44817609
v -0.17221826 -0.02728419 -0.60811204
v -0.16830827 -0.02728419 -0.60811204
v -0.12778272 -0.02735131 -0.60813236
v -0.12924828 -0.02736419 -0.60818201
v -0.23080827 0.04304581 0.38008800
v -0.22950174 0.04562933 0.38361081
v -0.21909827 0.04302581 0.38008800
v -0.22299828 0.04302581 0.38008800
v -0.21776225 -0.01639273 -0.48553056
v -0.22690827 0.04303581 0.38008800
v -0.22299828 0.04302581 0.38007802
v -0.13401926 0.01573134 -0.87382680
v -0.20708816 0.00782184 -0.87968445
v -0.14877827 -0.02728419 -0.60809195
v -0.14487827 -0.02728419 -0.60809195
v -0.17786710 -0.02785385 -0.62293786
v -0.16440827 -0.02734419 -0.60818201
v -0.15659827 -0.02728419 -0.60810202
v -0.15268826 -0.02728419 -0.60810202
v -0.15659827 -0.02728419 -0.62383205
v -0.16049828 -0.02728419 -0.62384200
v -0.13705827 -0.02736419 -0.60818201
v -0.13315827 -0.02736419 -0.60818201
v -0.13705827 -0.02728419 -0.60808200
v -0.16830827 -0.02734419 -0.60818201
v -0.14877827 -0.02735419 -0.60818201
v -0.14877827 -0.02728419 -0.62381196
v -0.15268826 -0.02728419 -0.62381196
v -0.16440827 -0.02728419 -0.60811204
v -0.21698074 -0.05436737 -0.34758958
v -0.18290438 -0.04577894 -0.32439581
v -0.16734987 -0.03946503 -0.33808532
v -0.16764311 0.00281336 -0.64935935
v -0.16825381 -0.02728388 -0.62384236
v -0.18138784 -0.02665625 -0.62609076
v -0.15659827 -0.02734419 -0.60818201
v -0.16049828 -0.02728419 -0.60810202
v -0.19174828 -0.03118419 -0.29610199
v -0.19174828 -0.02337419 -0.29568198
v -0.15659827 -0.04290419 -0.33479199
v -0.15659827 -0.04292419 -0.33475199
v -0.16049828 -0.04290419 -0.33479199
v -0.06845844 -0.05572219 0.00356172
v -0.08722123 -0.01534537 -0.41321784
v -0.22890760 0.01571594 0.38220823
v -0.16049828 -0.02734419 -0.60818201
v -0.18910979 -0.01551904 -0.29181030
v -0.19887932 -0.01903792 -0.29541296
v -0.19484827 -0.02337419 -0.29568198
v -0.19174828 -0.02344419 -0.29568198
v -0.18784827 -0.01556419 -0.29187199
v -0.18784827 -0.02352419 -0.29568198
v -0.18784827 -0.01551419 -0.29178199
v -0.17612827 -0.01556419 -0.29187199
v -0.17221826 -0.01556419 -0.29187199
v -0.16440827 -0.04290419 -0.33479199
v -0.20537433 0.03955413 -0.06192251
v -0.19595052 0.04294825 0.38004646
v 0.01299149 0.04715465 -0.27736917
v 0.30218601 0.04702914 -0.60598576
v -0.16830827 -0.02728419 -0.62381196
v -0.16440827 -0.02728419 -0.62384200
v -0.16440827 -0.02728419 -0.62381196
v -0.13315827 -0.04290419 -0.33478200
v -0.11688326 -0.04116842 -0.33667085
v -0.12924828 -0.04292419 -0.33475199
v -0.13705827 0.00396581 -0.65114200
v -0.13315827 0.00396581 -0.65114200
v -0.13315827 0.00396581 -0.65115201
v -0.13064981 -0.02337348 -0.60636818
v -0.10814050 0.02912490 -0.04358307
v -0.14877827 -0.02728419 -0.62383205
v -0.16049828 -0.02728419 -0.62381196
v -0.15268826 -0.02735419 -0.60818201
v -0.14960171 -0.02792363 -0.61209422
v -0.17179982 -0.03988435 -0.29881668
v -0.16049828 -0.04292419 -0.33475199
v -0.13315827 -0.02728419 -0.60808200
v -0.17612827 -0.01551419 -0.29178199
v -0.18393826 -0.01556419 -0.29187199
v -0.17221826 -0.01551419 -0.29178199
v -0.18002827 -0.01556419 -0.29187199
v -0.17784797 -0.01947888 -0.29546106
v -0.14096826 -0.02736419 -0.60818201
v -0.23393233 0.01305926 -0.05464639
v -0.15268826 -0.02728419 -0.62383205
v -0.15659827 -0.02728419 -0.62381196
v -0.12924828 -0.02728419 -0.62383205
v -0.11718314 -0.02782737 -0.61219358
v -0.13315827 -0.02728419 -0.62381196
v -0.20245340 -0.02189085 -0.23698685
v -0.15268826 0.00396581 -0.65115201
v -0.15268826 0.00396581 -0.65114200
v -0.14877827 0.00396581 -0.65115201
v -0.16049828 0.00396581 -0.65114200
v -0.14107062 0.00422234 -0.65744162
v -0.20243850 -0.03355578 -0.62771291
v -0.15268826 -0.04292419 -0.33475199
v -0.21350536 0.00278964 -0.63592237
v -0.14096826 -0.02728419 -0.62381196
v -0.14487827 -0.02728419 -0.62381196
v -0.14096826 -0.02728419 -0.62383205
v -0.15659827 0.00396581 -0.65114200
v -0.15659827 0.00396581 -0.65115201
v -0.20230359 -0.00700653 -0.60003185
v -0.14096826 0.00396581 -0.65115201
v -0.13705827 0.00396581 -0.65115201
v -0.14402574 -0.01899665 -0.60558897
v -0.13790768 -0.01639210 -0.27624243
v -0.16049828 -0.01551419 -0.29178199
v -0.14487827 -0.04292419 -0.33475199
v -0.16830827 -0.01556419 -0.29187199
v -0.18393826 -0.01551419 -0.29178199
v -0.17596257 -0.01610625 -0.28025809
v -0.16830827 -0.01551419 -0.29178199
v -0.21463650 -0.01369510 -0.32036528
v -0.16440827 -0.01556419 -0.29187199
v -0.15659827 -0.01556419 -0.29187199
v -0.16049828 -0.01556419 -0.29187199
v -0.16440827 -0.01551419 -0.29178199
v -0.15469052 -0.01551930 -0.29177907
v -0.18002827 -0.01551419 -0.29178199
v -0.13383065 -0.02711361 -0.22824667
v -0.15235721 -0.02517935 -0.62771201
v -0.14487827 0.00396581 -0.65114200
v -0.13315827 0.01567581 -0.87388200
v -0.11751610 0.00005014 0.79421681
v -0.12924828 0.01567581 -0.87388200
v -0.10120919 0.04874761 -0.28002355
v -0.13705827 0.04303581 -0.04568200
v -0.14487827 -0.02735419 -0.60818201
v -0.12143827 -0.04292419 -0.33475199
v -0.12334428 0.02280346 0.78348893
v -0.14096826 -0.02728419 -0.60809195
v -0.12416178 0.01581459 -0.87366807
v -0.14638707 -0.04355954 -0.32349545
v -0.13315827 -0.04292419 -0.33475199
v -0.14487827 -0.02728419 -0.62383205
v -0.13705827 -0.02728419 -0.62383205
v -0.14096826 -0.04290419 -0.33478200
v -0.15206072 -0.04291489 -0.33477876
v -0.12534827 -0.01556419 -0.29186198
v -0.12924828 -0.01552419 -0.29178199
v -0.12534827 -0.01552419 -0.29178199
v -0.14096826 -0.04292419 -0.33475199
v -0.10190827 -0.04290419 -0.33477199
v -0.09799827 -0.04291419 -0.33475199
v -0.10190827 -0.04291419 -0.33475199
v -0.13705827 -0.04292419 -0.33475199
v -0.13705827 -0.04290419 -0.33478200
v -0.14096826 -0.01556419 -0.29186198
v -0.14096826 -0.01552419 -0.29178199
v -0.13705827 -0.01556419 -0.29186198
v -0.13618834 -0.01840260 -0.23735183
v -0.13705827 -0.01552419 -0.29178199
v -0.13315827 -0.01552419 -0.29178199
v -0.14487827 -0.01552419 -0.29178199
v -0.12951185 -0.02372859 -0.23190840
v -0.12534827 -0.01946419 -0.23309200
v -0.12924828 -0.01938419 -0.23318200
v -0.05893827 0.01957581 0.38008800
v -0.05502827 0.01958581 0.38008800
v -0.05893827 0.01958581 0.38008800
v -0.13315827 0.01572581 -0.87381196
v -0.12007828 0.00006581 0.79024798
v -0.13205117 0.01537225 -0.85847974
v -0.13736022 0.01274471 -0.87629408
v -0.12534827 0.01567581 -0.87388200
v -0.14096826 0.00396581 -0.65114200
v -0.12924828 0.00396581 -0.65115201
v -0.12924828 0.00396581 -0.65114200
v -0.12534827 0.00396581 -0.65115201
v -0.13315827 -0.02728419 -0.62383205
v -0.13705827 -0.02728419 -0.62381196
v -0.14877827 0.00396581 -0.65114200
v -0.14487827 0.00396581 -0.65115201
v -0.12555371 -0.02512934 -0.62771064
v -0.12534827 0.00396581 -0.65114200
v -0.13915074 0.00116549 -0.64725178
v -0.07166629 -0.04976976 -0.27264571
v -0.14045642 -0.03909101 -0.33801958
v -0.16554767 0.01542145 -0.27243468
v -0.13315827 -0.01556419 -0.29186198
v -0.12924828 -0.01556419 -0.29186198
v -0.12534827 -0.01938419 -0.23318200
v -0.12935148 -0.01939062 -0.23308325
v -0.12924828 0.01572581 -0.87381196
v -0.32589760 0.05528513 0.31495968
v -0.12924828 0.04302581 0.55196798
v -0.11752827 0.00396581 0.79419798
v -0.11752827 0.00006581 0.79419798
v -0.11755827 0.00786581 0.79414797
v -0.06674827 0.01955581 0.38008800
v -0.06284827 0.01956581 0.38008800
v -0.12924828 0.04302581 -0.04566200
v -0.12534827 0.04302581 -0.04566200
v -0.11752827 0.04307581 -0.04568200
v -0.11362827 0.04308581 -0.04568200
v -0.13315827 0.04304581 -0.04568200
v -0.12924828 0.04305581 -0.04568200
v -0.12534827 0.04305581 -0.04568200
v -0.12143827 0.04306581 -0.04568200
v -0.09498484 0.04311707 -0.04568708
v -0.13660827 0.04302581 0.55195796
v -0.13315827 0.04302581 0.55196798
v -0.13315827 0.04302581 0.55195796
v -0.12534827 0.04302581 0.55197799
v -0.12924828 0.04303581 0.55195796
v -0.12534827 0.04304581 0.55195796
v -0.12143827 0.04302581 0.55197799
v -0.12143827 -0.01946419 -0.23308200
v -0.11752827 -0.01946419 -0.23308200
v -0.12143827 -0.01937419 -0.23318200
v -0.09799827 -0.04290419 -0.33477199
v -0.12123416 -0.04308799 -0.31689036
v -0.10580828 -0.04290419 -0.33477199
v -0.10580828 0.04302581 -0.04564200
v -0.12143827 0.00396581 -0.65115201
v -0.10964811 -0.03983517 -0.33792892
v -0.09760186 -0.04293510 -0.33470899
v -0.12143827 -0.01556419 -0.29186198
v -0.06995742 0.01490885 -0.27611428
v -0.12143827 0.04302581 -0.04565200
v -0.11752827 0.04302581 -0.04565200
v -0.08364285 0.04289643 0.38017371
v -0.11755827 0.00006581 0.79414797
v -0.08013660 -0.00620453 -0.60493392
v -0.09096241 -0.01137936 -0.67417282
v -0.11669934 -0.01946333 -0.29537916
v -0.11616423 -0.01939550 -0.23314232
v -0.11755827 0.00396581 0.79414797
v -0.10971827 0.04308581 -0.04568200
v -0.10971827 0.04302581 -0.04564200
v -0.09070656 -0.03384441 -0.13015805
v -0.07782389 0.00832147 -0.89888060
v -0.10468766 0.04307178 -0.04565336
v -0.10950719 0.04715698 0.38625723
v -0.09018827 0.04302581 0.55201799
v -0.09409827 0.04302581 0.55200797
v -0.15265995 0.01413702 0.38922325
v -0.08237827 0.04312581 0.55195796
v -0.07846827 0.04302581 0.55202800
v -0.07846827 0.04312581 0.55195796
v -0.08627827 0.01949581 0.38008800
v -0.08237827 0.01950581 0.38008800
v -0.10580828 0.04302581 0.55199796
v -0.07258635 0.04285873 0.55212468
v -0.08627827 0.04312581 -0.04568200
v -0.08237827 0.04313581 -0.04568200
v -0.08237827 0.04302581 -0.04561200
v -0.12894057 0.04576364 -0.04967251
v -0.11362827 0.04302581 -0.04565200
v -0.07428986 0.04287675 -0.04553432
v -0.09799827 0.04302581 0.55200797
v -0.11752827 0.04305581 0.55195796
v -0.12143827 0.04305581 0.55195796
v -0.11752827 0.04302581 0.55198801
v -0.10190827 0.04302581 0.55199796
v -0.10580828 0.04307581 0.55195796
v -0.11362827 0.04306581 0.55195796
v -0.10971827 0.04302581 0.55199796
v -0.11094394 0.03422887 0.52770519
v -0.11362827 0.04302581 0.55198801
v -0.10971827 0.04307581 0.55195796
v -0.10190827 0.04308581 0.55195796
v -0.09799827 0.04309581 0.55195796
v -0.09409827 0.04309581 0.55195796
v -0.28022957 0.06767228 0.70542264
v -0.07846827 0.04314581 -0.04568200
v 0.03151179 -0.05464197 0.01682295
v -0.08976321 0.01567494 0.38354018
v -0.07065827 0.01954581 0.38008800
v 0.00294106 0.00477227 -0.75975353
v -0.10832907 -0.00068779 0.80579787
v -0.07846827 0.01958581 0.38005802
v -0.07846827 0.01951581 0.38008800
v -0.08237827 0.01958581 0.38005802
v -0.01640954 0.03197875 -0.12935604
v -0.08639065 -0.01304852 -0.26552483
v -0.07846827 0.04302581 -0.04560200
v -0.07455828 0.04302581 -0.04560200
v -0.08666986 0.01953499 0.38005775
v -0.07455828 0.01958581 0.38006800
v -0.07455828 0.01952581 0.38008800
v -0.06674827 0.01958581 0.38007802
v -0.06284827 0.01958581 0.38007802
v -0.07065827 0.01958581 0.38006800
v -0.09018827 0.04310581 0.55195796
v -0.11593737 0.01521275 0.55132878
v -0.07455828 0.04302581 0.55203795
v -0.07455828 0.04315581 -0.04568200
v -0.06760316 0.04308497 -0.04561037
v -0.08627719 0.04547958 -0.04878161
v -0.08840743 0.04302839 -0.04561829
v -0.08237827 0.04302581 0.55202800
v -0.08627827 0.04311581 0.55195796
v -0.07455828 0.04313581 0.55195796
v -0.08627827 0.04302581 0.55201799
v 0.01918173 -0.05463419 0.01680800
v 0.02308173 -0.05464419 0.01680800
v 0.01918173 -0.05462419 0.01680800
v -0.06783025 0.04294488 0.55214798
v -0.01195340 0.01577961 -0.18132842
v -0.06656366 0.01567687 0.38354266
v 0.01527173 -0.05462419 0.01680800
v 0.06399146 -0.00288305 0.86670029
v 0.02308173 -0.05462419 0.01681800
v 0.11683173 0.01560581 -0.27225199
v -0.00161754 0.03275047 -0.05756958
v 0.04652173 0.01567581 -0.27216199
v 0.01530173 0.01567581 0.95430797
v 0.01530173 0.01958581 0.95430797
v 0.05824173 0.01177581 0.88792795
v 0.05824173 0.01567581 0.88792795
v 0.02699173 -0.05465419 0.01680800
v 0.03090173 -0.05466419 0.01680800
v 0.02699173 -0.05462419 0.01681800
v 0.16748644 -0.06246191 -0.22144616
v 0.16761173 -0.06243419 -0.22139201
v 0.01146626 -0.03996656 0.01137899
v 0.05043173 0.01567581 -0.27216199
v 0.12074173 0.01560581 -0.27225199
v 0.12280910 0.01564498 -0.27217466
v 0.06996172 0.01548581 -0.27615198
v 0.07777173 0.01561581 -0.27225199
v 0.00056602 -0.00133886 0.38340622
v 0.05824173 0.01958581 0.88792795
v 0.05826173 0.01567581 0.88789797
v 0.05826173 0.01958581 0.88789797
v 0.05573173 0.01958581 0.89180797
v 0.05433173 0.01567581 -0.27216199
v 0.05824173 0.01562581 -0.27225199
v 0.05824173 0.01567581 -0.27215201
v 0.05043173 0.01562581 -0.27225199
v 0.06243691 0.02663919 0.85333431
v 0.00709151 0.13019210 0.70955914
v 0.05826173 0.00786581 0.88789797
v 0.05826173 0.01177581 0.88789797
v 0.01527173 0.01958581 0.95435798
v 0.01270173 0.02349581 0.95820796
v 0.01780173 0.02349581 0.95039797
v 0.01527173 0.02349581 0.95432800
v 0.01527173 0.02351581 0.95430797
v 0.01008527 0.02400016 0.96137875
v 0.01528173 0.02349581 0.95430797
v 0.32783988 0.12757199 -0.64613020
v 0.05433173 0.01562581 -0.27225199
v 0.00178709 0.02790708 -0.38929263
v 0.08168173 0.01567581 -0.27214199
v 0.08666137 0.03223193 -0.26218876
v 0.04121200 0.01564897 -0.27219215
v 0.04061701 0.01560090 -0.27319434
v 0.05826173 0.00396581 0.88789797
v 0.00805143 0.02079134 0.92436045
v 0.05824173 0.00396581 0.88792795
v 0.05826173 0.00006581 0.88789797
v 0.06078173 0.00006581 0.88399798
v 0.05825463 0.00003493 0.88790798
v 0.06215173 0.01562581 -0.27225199
v 0.06215173 0.01567581 -0.27215201
v 0.05824173 0.00786581 0.88792795
v 0.23402172 0.12893580 0.71602798
v 0.23011173 0.12893580 0.71602798
v 0.23011173 0.12896581 0.71604800
v 0.08558173 0.01561581 -0.27225199
v 0.06996172 0.01562581 -0.27225199
v 0.07386173 0.01561581 -0.27225199
v 0.07386173 0.01567581 -0.27215201
v 0.07777173 0.01567581 -0.27214199
v 0.06605173 0.01567581 -0.27215201
v 0.06996172 0.01567581 -0.27215201
v 0.08168173 0.01561581 -0.27225199
v 0.17152172 -0.06243419 -0.22139201
v 0.17152172 -0.06246419 -0.22146200
v 0.00061669 0.01102791 -0.28364500
v 0.06605173 0.01562581 -0.27225199
v 0.20978811 0.00589040 -0.74003851
v 0.20277172 -0.03895419 0.01289800
v 0.20668173 -0.03895419 0.01289800
v 0.28972945 0.02368927 0.56445789
v 0.12609406 0.01459746 -0.28006312
v 0.24574172 -0.03891419 0.01289800
v 0.17543173 -0.06243419 -0.22139201
v 0.17933173 -0.06243419 -0.22138201
v 0.17933173 -0.06246419 -0.22146200
v 0.09911416 -0.04998641 -0.20448701
v 0.13636173 0.01567581 -0.27211198
v 0.10724196 0.01563826 -0.27218929
v 0.11293173 0.01567581 -0.27212200
v 0.11683173 0.01567581 -0.27212200
v 0.19178645 0.13587160 0.71601862
v 0.26136172 0.12896581 0.71607798
v 0.16229774 0.11151814 0.70366019
v 0.11483809 0.04310160 -0.29198715
v 0.17765859 -0.06260064 -0.22905618
v 0.11279154 0.01938609 -0.29212046
v 0.17543173 -0.06246419 -0.22146200
v 0.18324172 -0.03897419 0.01289800
v 0.18715173 -0.03899419 0.01293800
v 0.18715173 -0.03896419 0.01289800
v 0.17519397 -0.03677206 0.00900079
v 0.17152172 -0.03898419 0.01289800
v 0.13246173 0.01560581 -0.27225199
v 0.13636173 0.01560581 -0.27225199
v 0.13246173 0.01567581 -0.27211198
v 0.14027172 0.01559581 -0.27225199
v 0.14418173 0.01559581 -0.27225199
v 0.14027172 0.01567581 -0.27211198
v 0.17543173 -0.03899419 0.01291800
v 0.17543173 -0.03897419 0.01289800
v 0.24574172 -0.03899419 0.01299800
v 0.24965173 -0.03899419 0.01299800
v 0.19105174 -0.06243419 -0.22138201
v 0.19105174 -0.06246419 -0.22146200
v 0.19496173 -0.06247419 -0.22146200
v 0.18324172 -0.06243419 -0.22138201
v 0.18324172 -0.06246419 -0.22146200
v 0.14613172 0.01563581 -0.27218199
v 0.12564151 0.01966834 -0.26923561
v 0.12855174 0.01567581 -0.27212200
v 0.13370156 0.01421560 -0.28733262
v 0.25355172 -0.03899419 0.01300800
v 0.18715173 -0.06246419 -0.22146200
v 0.17667416 -0.05990618 -0.21641818
v 0.14340347 0.04306225 -0.29180127
v 0.14418173 0.04302581 -0.29182199
v 0.14808173 0.04302581 -0.29181200
v 0.14808173 0.04307581 -0.29178199
v 0.15199172 0.04302581 -0.29181200
v 0.21840173 0.12894581 0.71602798
v 0.21449172 0.12895581 0.71602798
v 0.18715173 -0.06243419 -0.22138201
v 0.15445411 0.04413648 -0.29114583
v 0.21840173 -0.03894419 0.01289800
v 0.21840173 -0.03899419 0.01296800
v 0.22230174 -0.03899419 0.01296800
v 0.15852809 -0.04177094 0.01582885
v 0.19496173 -0.03896419 0.01289800
v 0.18324172 -0.03899419 0.01292800
v 0.17933173 -0.03899419 0.01292800
v 0.17933173 -0.03897419 0.01289800
v 0.17528374 -0.04915227 0.01882267
v 0.22621173 -0.03893419 0.01289800
v 0.27913740 0.02083768 -0.29127330
v 0.22534797 -0.04295937 0.01637029
v 0.26242542 -0.03894574 0.01296253
v 0.19496173 0.12901580 0.71602798
v 0.21058173 0.12895581 0.71602798
v 0.21058173 0.12896581 0.71602798
v 0.21338084 0.12669712 0.70710438
v 0.20796172 0.12896581 0.71602798
v 0.19897275 0.13286534 0.71691030
v 0.21449172 0.12896581 0.71602798
v 0.19105174 -0.03896419 0.01289800
v 0.20668173 -0.03899419 0.01295800
v 0.19105174 -0.03899419 0.01293800
v 0.21058173 -0.03899419 0.01295800
v 0.21058173 -0.03894419 0.01289800
v 0.19886173 -0.03899419 0.01294800
v 0.19886173 -0.03895419 0.01289800
v 0.10756679 -0.03865119 -0.00975793
v 0.20277172 -0.03899419 0.01294800
v 0.19496173 -0.03899419 0.01293800
v 0.21449172 -0.03899419 0.01295800
v 0.00079596 0.01409175 0.39034140
v 0.21449172 -0.03894419 0.01289800
v 0.22621173 -0.03899419 0.01297800
v 0.24965173 -0.03891419 0.01289800
v 0.23793173 -0.03892419 0.01289800
v 0.23793173 -0.03899419 0.01298800
v 0.24183173 -0.03899419 0.01298800
v 0.27447408 0.02759966 -0.26783133
v 0.19496173 0.12896581 0.71598798
v 0.19886173 0.12896581 0.71599799
v 0.19886173 0.12899581 0.71602798
v 0.20788178 -0.03511531 0.00446771
v 0.23011173 -0.03893419 0.01289800
v 0.21840173 0.12896581 0.71603799
v 0.19105174 0.12896581 0.71597797
v 0.20592782 0.12809682 0.71405876
v 0.20668173 0.12896581 0.71602798
v 0.20277172 0.12898581 0.71602798
v 0.24183173 0.12896581 0.71605796
v 0.23793173 0.12896581 0.71605796
v 0.24183173 0.12892582 0.71602798
v 0.22621173 0.12896581 0.71604800
v 0.21855269 0.13286664 0.71693587
v 0.16343321 0.04894616 0.69687033
v 0.27699172 0.12888581 0.71602798
v 0.27308172 0.12888581 0.71602798
v 0.27308172 0.12896581 0.71608800
v 0.25596017 0.12680647 0.70682669
v 0.30644500 0.13482787 0.69904870
v 0.23402172 0.12896581 0.71604800
v 0.33097908 0.12873153 -0.25752717
v 0.23402172 -0.03892419 0.01289800
v 0.23402172 -0.03899419 0.01297800
v 0.22230174 -0.03893419 0.01289800
v 0.26249754 -0.05235952 0.00946280
v 0.23011173 -0.03899419 0.01297800
v 0.24183173 -0.03891419 0.01289800
v 0.19777906 -0.03371447 -0.39548180
v 0.27781621 -0.06268596 -0.21465704
v 0.27120653 0.13286623 0.71699798
v 0.32444900 0.02761614 -0.34638247
v 0.24221982 0.13286564 0.71695936
v 0.22230174 0.12896581 0.71603799
v 0.25355172 0.12896581 0.71606797
v 0.27699172 0.12896581 0.71609795
v 0.22230174 0.12894581 0.71602798
v 0.24574172 0.12891582 0.71602798
v 0.22621173 0.12893580 0.71602798
v 0.24965173 0.12891582 0.71602798
v 0.24965173 0.12896581 0.71606797
v 0.24574172 0.12896581 0.71606797
v 0.23793173 0.12892582 0.71602798
v 0.25355172 -0.03890419 0.01289800
v 0.25746173 -0.03899419 0.01300800
v 0.26136172 -0.03899419 0.01300800
v 0.25746173 -0.03890419 0.01289800
v 0.29116490 0.01586428 -0.15611728
v 0.27390817 0.01542379 -0.43795326
v 0.26918173 0.12896581 0.71608800
v 0.25355172 0.12890580 0.71602798
v 0.25746173 0.12890580 0.71602798
v 0.28090173 0.12887581 0.71602798
v 0.26527172 0.12889580 0.71602798
v 0.26527172 0.12896581 0.71608800
v 0.25746173 0.12896581 0.71607798
v 0.26136172 0.12889580 0.71602798
v 0.26918173 0.12889580 0.71602798
v 0.28128660 0.12891498 0.71607167
v 0.30949253 0.13259244 0.71833962
v 0.30082029 0.04275348 -0.41199359
v 0.32080856 0.02118386 -0.03391551
v 0.29172808 0.12777255 0.71449816
v 0.33172411 0.12889084 -0.64344919
v 0.33306560 0.13175403 -0.66058505
v 0.33168069 0.12884504 -0.65736759
v 0.32607117 0.13208140 -0.36495528
v 0.29242629 0.00583145 0.36859739
v 0.33171287 0.12888823 -0.63640195
v 0.33173957 0.12892799 -0.63286537
v 0.33168173 0.12885581 -0.65115201
v 0.33157429 0.12871180 -0.60440880
v 0.32968676 0.13039149 -0.67545521
v 0.33226550 0.13428558 -0.56579661
v 0.33168173 0.12883581 -0.66287202
v 0.33255506 0.13093826 -0.63745624
v 0.33220798 0.13281694 -0.20203091
v 0.33234602 0.13397241 -0.30502638
v 0.32726434 0.13793845 0.16953793
v 0.32426271 0.13721704 -0.24193434
v 0.33057359 0.13601492 0.07204093
v 0.33239594 0.12944692 0.15399706
v 0.32034892 0.12739450 -0.56344038
v 0.33224681 0.13045800 -0.11254010
v 0.34692371 -0.11461287 -0.21772972
v 0.30683222 0.09378663 0.09706067
f 1 2 3
f 4 5 54
f 6 7 1
f 9 10 11
f 12 10 9
f 13 14 15
f 16 4 54
f 16 17 4
f 12 9 18
f 9 19 18
f 10 12 20
f 40 22 23
f 24 25 17
f 25 26 17
f 27 28 29
f 14 30 54
f 13 30 14
f 31 32 33
f 118 34 125
f 35 36 25
f 37 35 25
f 348 103 8
f 22 38 23
f 54 11 10
f 39 17 16
f 2 39 15
f 7 41 18
f 42 43 33
f 44 45 93
f 46 45 44
f 48 49 63
f 160 103 146
f 39 16 40
f 54 35 37
f 51 52 53
f 52 51 67
f 54 10 20
f 55 37 24
f 37 25 24
f 7 19 24
f 25 36 26
f 36 56 26
f 3 6 1
f 6 3 54
f 21 30 57
f 30 21 54
f 58 22 40
f 55 24 19
f 39 1 7
f 17 26 4
f 39 23 60
f 54 5 35
f 26 56 4
f 7 18 19
f 3 61 54
f 2 61 3
f 19 9 11
f 16 54 40
f 13 15 39
f 41 12 18
f 30 13 57
f 37 55 54
f 14 61 15
f 61 14 54
f 61 2 15
f 11 55 19
f 54 55 11
f 5 56 35
f 65 60 23
f 39 24 17
f 24 39 7
f 60 21 57
f 56 36 35
f 20 12 41
f 56 5 4
f 38 59 54
f 22 59 38
f 62 59 58
f 59 62 54
f 41 6 54
f 7 6 41
f 20 41 54
f 39 2 1
f 62 42 54
f 43 42 62
f 39 57 13
f 31 33 40
f 43 58 40
f 43 40 33
f 39 60 57
f 103 348 149
f 40 68 31
f 32 42 33
f 42 32 54
f 43 62 58
f 38 65 23
f 65 38 54
f 40 23 39
f 32 69 67
f 31 69 32
f 48 70 49
f 44 71 72
f 71 44 93
f 74 75 76
f 21 65 54
f 60 65 21
f 59 22 58
f 63 78 79
f 73 69 68
f 67 69 73
f 69 31 68
f 27 29 91
f 28 82 29
f 82 28 67
f 85 86 87
f 88 85 87
f 66 89 79
f 89 66 67
f 90 73 68
f 70 64 49
f 64 70 67
f 66 52 67
f 78 52 66
f 90 40 49
f 64 90 49
f 70 89 67
f 48 89 70
f 54 32 67
f 75 82 67
f 74 82 75
f 73 64 67
f 90 64 73
f 46 44 72
f 91 72 27
f 89 48 79
f 78 66 79
f 71 27 72
f 52 78 53
f 51 94 67
f 95 94 51
f 91 46 72
f 40 90 68
f 63 79 48
f 63 49 40
f 82 74 29
f 74 63 29
f 29 63 91
f 97 98 99
f 118 98 97
f 100 101 102
f 105 81 106
f 81 80 106
f 67 71 93
f 95 51 53
f 104 77 92
f 76 95 63
f 75 94 76
f 94 75 67
f 94 95 76
f 74 76 63
f 81 91 80
f 28 71 67
f 27 71 28
f 63 95 53
f 109 105 106
f 63 53 78
f 50 80 91
f 110 111 112
f 81 46 91
f 50 91 63
f 47 110 112
f 120 121 122
f 118 121 120
f 125 34 123
f 124 118 101
f 132 86 85
f 129 125 123
f 118 125 129
f 126 127 132
f 126 128 127
f 127 128 108
f 47 129 123
f 130 132 119
f 124 101 100
f 131 124 100
f 126 132 130
f 128 126 130
f 107 122 131
f 115 128 130
f 136 133 47
f 134 84 119
f 84 130 119
f 130 84 115
f 133 111 110
f 47 133 110
f 121 124 131
f 122 121 131
f 119 149 134
f 132 98 118
f 98 85 88
f 99 98 88
f 98 132 85
f 135 97 99
f 107 100 102
f 103 149 119
f 47 123 114
f 111 120 112
f 118 133 136
f 93 109 96
f 45 109 93
f 109 106 96
f 106 80 92
f 77 104 93
f 105 109 45
f 106 77 96
f 106 92 77
f 92 50 63
f 105 46 81
f 46 105 45
f 92 80 50
f 96 77 93
f 145 138 139
f 118 120 111
f 34 118 136
f 107 135 99
f 117 146 118
f 112 120 122
f 113 97 135
f 102 113 135
f 140 137 141
f 108 87 83
f 87 142 83
f 117 116 146
f 107 99 88
f 34 136 114
f 123 34 114
f 107 131 100
f 107 88 87
f 108 107 87
f 114 136 47
f 118 129 117
f 108 47 107
f 117 47 116
f 47 117 129
f 47 108 116
f 118 111 133
f 101 113 102
f 118 113 101
f 118 124 121
f 107 47 122
f 47 112 122
f 142 127 83
f 127 108 83
f 132 127 142
f 118 97 113
f 132 118 119
f 86 132 142
f 107 102 135
f 84 134 115
f 134 149 108
f 86 142 87
f 128 115 134
f 108 128 134
f 54 160 40
f 160 8 103
f 138 147 148
f 139 138 148
f 40 54 67
f 63 40 104
f 145 151 138
f 146 145 160
f 40 67 104
f 93 104 67
f 92 63 104
f 153 152 154
f 151 153 154
f 147 137 148
f 155 140 141
f 145 155 141
f 152 137 154
f 145 146 152
f 145 152 153
f 145 153 151
f 152 146 137
f 147 138 151
f 147 154 137
f 147 151 154
f 145 139 155
f 140 155 139
f 140 148 137
f 148 140 139
f 145 141 137
f 118 146 103
f 145 137 149
f 118 103 119
f 149 428 348
f 348 428 149
f 146 116 108
f 149 137 146
f 146 108 149
f 348 8 245
f 400 150 205
f 54 40 160
f 537 145 149
f 161 162 265
f 167 168 166
f 160 220 8
f 245 8 220
f 170 165 166
f 158 150 166
f 159 165 170
f 158 165 159
f 167 171 168
f 171 167 205
f 171 159 168
f 159 171 205
f 158 159 205
f 159 170 168
f 158 166 165
f 205 150 158
f 168 170 166
f 163 249 387
f 174 175 268
f 268 178 179
f 54 257 169
f 284 180 181
f 182 183 184
f 249 183 182
f 161 185 162
f 185 161 257
f 179 186 174
f 187 235 188
f 162 177 189
f 191 190 192
f 276 169 190
f 190 169 204
f 196 178 197
f 236 190 198
f 156 199 208
f 200 201 202
f 206 196 197
f 206 176 196
f 169 259 54
f 257 265 169
f 204 169 276
f 207 251 274
f 198 208 209
f 276 251 190
f 209 199 210
f 208 207 211
f 251 276 190
f 198 210 212
f 198 209 210
f 208 251 207
f 198 190 208
f 190 251 208
f 212 199 156
f 199 212 210
f 211 207 213
f 207 274 213
f 208 199 209
f 243 214 215
f 192 216 191
f 185 177 162
f 176 177 185
f 259 169 265
f 289 160 342
f 189 206 197
f 8 463 438
f 205 167 218
f 167 166 218
f 160 54 433
f 189 177 206
f 177 176 206
f 218 166 397
f 150 428 348
f 397 166 150
f 221 222 223
f 224 225 226
f 227 228 229
f 227 339 228
f 230 163 387
f 187 188 232
f 257 176 185
f 183 249 164
f 202 216 192
f 216 202 237
f 156 208 243
f 184 183 238
f 190 276 192
f 191 216 237
f 202 192 341
f 341 200 202
f 341 192 204
f 239 215 214
f 237 201 191
f 201 237 202
f 208 211 240
f 241 239 274
f 239 241 215
f 251 190 236
f 243 242 214
f 246 180 284
f 246 247 180
f 337 387 248
f 248 249 250
f 252 253 254
f 257 259 195
f 193 255 256
f 54 173 433
f 173 54 433
f 54 433 257
f 221 176 194
f 258 301 296
f 54 193 256
f 284 181 222
f 194 195 284
f 181 233 223
f 195 259 284
f 259 193 54
f 260 261 262
f 194 222 221
f 233 247 235
f 194 176 195
f 162 189 268
f 195 176 257
f 284 222 194
f 233 235 223
f 176 221 235
f 181 223 222
f 221 223 235
f 247 233 180
f 233 181 180
f 256 255 264
f 257 161 265
f 197 178 268
f 265 162 268
f 268 189 197
f 256 266 267
f 259 265 387
f 232 188 246
f 236 156 243
f 301 341 271
f 251 203 394
f 204 192 276
f 208 242 243
f 215 241 272
f 273 242 240
f 208 240 242
f 272 241 275
f 241 274 275
f 272 277 243
f 236 198 156
f 198 212 156
f 213 274 273
f 240 213 273
f 278 279 270
f 280 274 270
f 279 280 270
f 211 213 240
f 281 270 274
f 281 278 270
f 282 273 274
f 273 282 242
f 243 215 272
f 214 242 282
f 239 282 274
f 239 214 282
f 274 251 269
f 243 277 279
f 277 280 279
f 277 275 280
f 275 274 280
f 277 272 275
f 382 342 160
f 243 279 278
f 327 173 172
f 173 326 172
f 255 263 264
f 255 193 263
f 217 245 231
f 176 235 234
f 196 176 234
f 327 286 288
f 289 382 160
f 160 145 537
f 245 220 348
f 217 231 290
f 291 235 244
f 294 182 184
f 296 297 375
f 188 247 246
f 226 292 375
f 226 225 292
f 284 298 232
f 238 183 164
f 284 232 246
f 174 186 291
f 186 235 291
f 174 291 175
f 249 163 164
f 299 262 284
f 299 260 262
f 244 235 182
f 294 244 182
f 178 234 179
f 234 178 196
f 234 186 179
f 235 186 234
f 238 164 163
f 175 244 294
f 244 175 291
f 249 182 235
f 296 301 271
f 200 301 258
f 191 201 258
f 201 200 258
f 302 303 304
f 271 305 296
f 300 305 271
f 191 258 296
f 306 307 308
f 200 341 301
f 305 309 296
f 309 305 300
f 341 310 300
f 341 300 271
f 236 243 278
f 296 309 297
f 309 300 310
f 310 297 309
f 297 224 226
f 204 276 190
f 341 225 224
f 310 224 297
f 341 224 310
f 296 375 191
f 375 297 226
f 190 191 276
f 311 312 313
f 316 315 269
f 346 319 320
f 464 321 322
f 321 323 322
f 324 172 326
f 325 143 287
f 264 263 252
f 285 329 266
f 339 329 285
f 193 259 387
f 339 193 387
f 175 294 230
f 330 331 332
f 284 259 387
f 257 388 259
f 256 264 252
f 298 261 187
f 188 235 247
f 333 334 299
f 253 335 254
f 339 335 253
f 261 298 262
f 335 285 336
f 335 339 285
f 254 335 336
f 267 227 229
f 250 333 248
f 263 253 252
f 263 193 253
f 232 298 187
f 256 267 229
f 337 248 333
f 299 334 260
f 284 262 298
f 388 256 229
f 284 387 337
f 193 339 253
f 334 249 260
f 333 284 337
f 284 333 299
f 256 252 254
f 387 249 248
f 228 331 330
f 339 331 228
f 336 285 266
f 261 260 249
f 261 235 187
f 235 261 249
f 250 334 333
f 268 230 387
f 334 250 249
f 268 175 230
f 179 174 268
f 294 184 230
f 265 268 387
f 184 238 230
f 238 163 230
f 169 265 387
f 387 265 169
f 281 274 269
f 191 375 276
f 236 281 317
f 269 317 281
f 236 278 281
f 317 269 312
f 311 317 312
f 304 303 269
f 389 343 344
f 343 316 344
f 236 311 313
f 317 311 236
f 303 316 269
f 343 315 316
f 313 312 315
f 312 269 315
f 344 316 303
f 340 236 389
f 313 389 236
f 313 315 343
f 389 313 343
f 389 344 302
f 344 303 302
f 269 251 439
f 320 319 345
f 439 251 314
f 314 251 346
f 251 283 346
f 314 346 320
f 346 318 319
f 346 283 318
f 314 320 345
f 251 394 283
f 286 327 172
f 172 324 286
f 395 173 327
f 288 324 347
f 286 324 288
f 326 173 433
f 288 328 327
f 347 324 326
f 328 288 347
f 295 347 326
f 295 328 347
f 257 54 388
f 256 336 266
f 256 254 336
f 329 227 267
f 329 339 227
f 266 329 267
f 331 338 332
f 338 331 339
f 54 256 388
f 229 228 330
f 388 229 330
f 388 330 332
f 350 351 287
f 352 350 434
f 464 353 354
f 160 433 220
f 355 231 356
f 411 217 290
f 411 357 358
f 411 290 359
f 359 355 360
f 231 355 359
f 411 359 360
f 290 231 359
f 355 356 360
f 411 360 361
f 360 356 361
f 411 362 357
f 218 397 205
f 348 364 422
f 364 365 366
f 449 365 364
f 349 367 368
f 449 367 349
f 422 364 366
f 449 364 348
f 365 449 349
f 366 365 349
f 422 366 368
f 366 349 368
f 368 367 369
f 422 368 369
f 143 434 287
f 371 372 373
f 374 306 379
f 374 307 306
f 388 378 387
f 328 295 327
f 306 308 376
f 292 225 340
f 340 376 308
f 379 306 376
f 307 374 380
f 376 225 379
f 376 340 225
f 379 225 204
f 379 380 374
f 292 340 375
f 308 380 340
f 380 308 307
f 251 236 340
f 381 304 439
f 304 269 439
f 371 318 372
f 345 319 371
f 319 318 371
f 314 373 390
f 373 372 390
f 383 384 362
f 383 231 384
f 383 356 231
f 434 143 428
f 386 325 287
f 173 395 433
f 257 433 388
f 332 338 378
f 387 204 169
f 338 387 378
f 338 339 387
f 388 332 378
f 400 205 397
f 169 204 387
f 225 341 204
f 340 276 375
f 204 276 340
f 381 302 304
f 302 381 389
f 389 381 439
f 372 318 390
f 389 439 204
f 314 345 373
f 345 371 373
f 389 204 340
f 439 340 251
f 439 390 318
f 314 390 439
f 439 318 283
f 391 386 351
f 394 251 340
f 392 393 377
f 393 231 377
f 351 386 287
f 391 325 386
f 351 350 391
f 428 293 434
f 395 327 295
f 295 326 395
f 326 433 395
f 342 382 289
f 469 245 438
f 438 245 217
f 245 469 231
f 453 396 363
f 385 400 397
f 398 399 449
f 401 402 403
f 431 404 405
f 348 422 449
f 143 325 293
f 293 325 391
f 293 352 434
f 293 428 143
f 391 350 352
f 293 391 352
f 350 287 434
f 537 54 160
f 289 219 535
f 453 408 409
f 361 383 362
f 383 361 356
f 408 410 409
f 411 392 396
f 357 412 358
f 357 384 412
f 384 231 412
f 358 393 392
f 393 358 412
f 411 361 362
f 393 412 231
f 411 358 392
f 362 384 357
f 217 411 453
f 392 377 396
f 231 396 377
f 453 411 396
f 396 231 363
f 428 150 701
f 369 367 370
f 367 449 370
f 414 449 399
f 422 416 415
f 449 417 370
f 416 417 415
f 416 370 417
f 406 418 419
f 449 418 406
f 422 415 420
f 422 369 416
f 369 370 416
f 421 449 406
f 417 449 423
f 415 417 423
f 415 423 420
f 422 424 419
f 420 421 424
f 420 423 421
f 449 421 423
f 422 420 424
f 424 421 406
f 422 419 425
f 424 406 419
f 419 418 425
f 422 425 426
f 414 399 426
f 425 414 426
f 414 425 418
f 414 418 449
f 422 426 427
f 426 399 427
f 322 323 385
f 453 409 429
f 251 394 203
f 394 340 203
f 464 432 353
f 388 433 204
f 380 204 340
f 380 379 204
f 439 251 340
f 535 382 289
f 405 435 436
f 435 405 437
f 404 442 437
f 257 388 54
f 387 259 388
f 204 439 340
f 340 439 394
f 283 394 439
f 429 440 441
f 348 220 150
f 203 340 394
f 422 540 449
f 387 388 204
f 433 54 537
f 433 54 388
f 433 388 387
f 440 410 231
f 437 442 385
f 435 437 385
f 431 400 442
f 435 443 436
f 464 436 444
f 385 442 400
f 464 444 432
f 432 445 353
f 486 431 464
f 431 442 404
f 486 400 431
f 404 437 405
f 353 446 354
f 446 353 445
f 443 444 436
f 464 405 436
f 431 405 464
f 385 447 443
f 445 447 385
f 444 447 432
f 447 444 443
f 385 443 435
f 447 445 432
f 422 427 448
f 449 540 462
f 449 462 407
f 363 231 454
f 453 451 452
f 451 413 452
f 363 454 453
f 453 454 408
f 429 441 451
f 453 429 451
f 441 413 451
f 452 413 231
f 469 217 453
f 440 413 441
f 413 440 231
f 231 469 452
f 408 454 410
f 454 231 410
f 469 453 452
f 409 440 429
f 409 410 440
f 455 402 401
f 422 448 456
f 422 403 457
f 402 449 407
f 455 458 449
f 455 449 402
f 403 450 457
f 450 403 402
f 398 458 448
f 398 449 458
f 427 398 448
f 398 427 399
f 448 458 456
f 456 455 401
f 455 456 458
f 422 456 401
f 457 407 462
f 422 401 403
f 428 701 648
f 450 402 407
f 450 407 457
f 422 457 462
f 540 422 462
f 459 460 461
f 157 460 459
f 354 323 321
f 204 433 387
f 464 322 625
f 464 354 321
f 322 385 625
f 323 446 385
f 446 323 354
f 486 464 625
f 385 446 445
f 400 486 625
f 289 382 463
f 219 289 463
f 382 535 463
f 438 217 469
f 665 537 149
f 465 459 461
f 625 385 397
f 150 400 625
f 219 511 470
f 8 438 681
f 469 438 463
f 625 486 540
f 471 514 472
f 203 157 480
f 535 219 508
f 480 157 465
f 625 397 701
f 625 397 150
f 514 473 474
f 465 157 459
f 460 157 475
f 475 476 477
f 476 475 157
f 584 478 479
f 461 460 467
f 480 461 467
f 477 430 480
f 477 476 430
f 480 621 203
f 480 465 461
f 467 475 477
f 460 475 467
f 480 467 477
f 430 621 480
f 219 470 481
f 486 625 144
f 428 486 540
f 487 488 489
f 504 514 471
f 491 492 493
f 463 535 219
f 470 494 481
f 469 463 438
f 144 463 469
f 469 463 144
f 144 625 486
f 486 625 540
f 486 428 540
f 473 497 498
f 504 499 500
f 499 471 472
f 514 474 490
f 472 514 501
f 499 504 471
f 502 503 500
f 499 472 505
f 499 502 500
f 514 504 503
f 503 504 500
f 501 503 505
f 503 501 514
f 472 502 505
f 502 501 505
f 501 502 472
f 503 502 505
f 502 499 505
f 512 494 470
f 513 517 497
f 494 507 481
f 484 507 494
f 203 621 157
f 507 492 491
f 492 507 484
f 511 512 470
f 476 157 430
f 157 621 430
f 515 516 513
f 473 498 474
f 516 517 513
f 466 517 518
f 515 518 516
f 518 517 516
f 466 518 514
f 514 518 515
f 474 487 490
f 510 491 493
f 535 512 511
f 492 519 493
f 484 519 492
f 481 507 491
f 219 535 511
f 535 484 512
f 484 494 512
f 219 491 510
f 219 481 491
f 510 493 520
f 493 519 520
f 496 428 648
f 521 513 497
f 517 466 497
f 515 513 521
f 489 466 495
f 497 466 498
f 514 515 521
f 490 489 495
f 489 490 487
f 521 473 514
f 474 498 488
f 488 466 489
f 487 474 488
f 498 466 488
f 495 466 514
f 473 521 497
f 514 490 495
f 522 523 610
f 523 522 524
f 525 548 510
f 548 525 484
f 526 484 527
f 528 485 529
f 510 530 531
f 463 8 681
f 665 149 348
f 701 397 625
f 530 526 531
f 529 532 509
f 527 485 528
f 484 485 527
f 533 479 534
f 528 529 510
f 509 525 510
f 541 484 535
f 510 529 509
f 510 520 530
f 556 541 508
f 541 548 484
f 536 526 530
f 526 536 484
f 520 519 536
f 519 484 536
f 532 525 509
f 484 525 532
f 535 508 541
f 520 536 530
f 485 532 529
f 532 485 484
f 531 527 528
f 531 526 527
f 510 531 528
f 463 681 438
f 636 538 539
f 433 537 220
f 508 554 556
f 554 508 219
f 554 219 510
f 220 632 150
f 543 544 584
f 584 533 543
f 549 579 548
f 482 541 483
f 548 541 549
f 579 549 550
f 549 468 550
f 510 548 579
f 541 468 549
f 546 621 662
f 546 662 621
f 579 550 483
f 550 482 483
f 508 682 694
f 468 482 550
f 541 482 468
f 719 348 428
f 719 428 496
f 558 559 560
f 533 557 543
f 563 564 565
f 564 563 581
f 566 567 568
f 567 566 581
f 562 569 570
f 571 572 542
f 543 545 544
f 621 602 597
f 573 574 575
f 478 534 479
f 478 555 534
f 578 581 604
f 544 576 584
f 545 555 577
f 544 545 577
f 579 568 578
f 579 580 565
f 580 563 565
f 579 547 568
f 534 555 557
f 533 534 557
f 565 564 547
f 632 510 579
f 632 578 604
f 578 567 581
f 479 533 584
f 541 556 581
f 564 581 566
f 547 566 568
f 547 564 566
f 581 563 580
f 579 565 547
f 579 578 632
f 483 581 580
f 579 483 580
f 568 567 578
f 581 483 541
f 577 583 576
f 577 555 583
f 556 554 585
f 556 586 587
f 593 554 510
f 588 585 593
f 585 554 593
f 589 588 593
f 556 587 589
f 587 588 589
f 581 589 593
f 589 581 556
f 585 586 556
f 587 586 588
f 586 585 588
f 640 590 591
f 576 592 584
f 553 496 653
f 594 595 596
f 546 478 584
f 544 577 576
f 561 621 597
f 557 555 545
f 543 557 545
f 546 555 478
f 592 574 573
f 592 576 583
f 561 597 562
f 562 597 569
f 584 575 663
f 575 555 663
f 659 621 662
f 546 584 663
f 621 546 662
f 621 659 602
f 600 602 599
f 561 562 570
f 636 621 561
f 597 602 569
f 602 600 569
f 561 601 558
f 561 558 560
f 636 561 560
f 601 600 599
f 601 599 558
f 561 570 601
f 570 600 601
f 600 570 569
f 599 602 559
f 558 599 559
f 573 575 584
f 662 546 621
f 593 510 604
f 581 593 604
f 584 592 573
f 612 551 607
f 553 551 496
f 608 591 609
f 640 591 608
f 611 609 647
f 662 555 546
f 662 663 555
f 496 551 653
f 574 555 575
f 636 560 614
f 583 555 574
f 592 583 574
f 559 602 616
f 539 617 618
f 598 619 620
f 619 602 622
f 616 602 623
f 560 616 614
f 620 619 622
f 617 605 624
f 602 615 622
f 560 559 616
f 659 605 602
f 636 614 598
f 598 623 619
f 636 598 620
f 620 622 538
f 623 602 619
f 538 615 539
f 622 615 538
f 614 616 623
f 614 623 598
f 636 620 538
f 605 615 602
f 636 539 618
f 618 617 624
f 636 626 594
f 624 605 595
f 626 595 594
f 624 595 626
f 539 615 617
f 615 605 617
f 636 618 626
f 618 624 626
f 596 605 627
f 542 572 628
f 629 630 631
f 648 701 540
f 633 634 635
f 607 633 635
f 540 701 648
f 595 605 596
f 632 604 510
f 613 638 647
f 639 633 607
f 639 640 633
f 719 496 701
f 648 701 540
f 701 496 648
f 641 612 642
f 643 644 645
f 611 647 612
f 642 640 641
f 640 634 633
f 641 611 612
f 611 641 640
f 590 638 613
f 553 639 551
f 611 608 609
f 640 608 611
f 609 591 613
f 612 635 642
f 551 639 607
f 591 590 613
f 652 649 650
f 649 651 650
f 635 612 607
f 553 653 610
f 609 613 647
f 647 551 612
f 640 639 553
f 610 640 553
f 522 654 524
f 635 634 642
f 634 640 642
f 659 542 628
f 656 630 629
f 630 656 657
f 636 637 656
f 659 636 656
f 603 660 637
f 603 627 660
f 636 594 658
f 594 596 658
f 659 656 629
f 658 627 603
f 627 658 596
f 662 621 659
f 627 605 660
f 630 659 631
f 659 621 636
f 636 658 603
f 661 571 542
f 571 661 631
f 631 659 571
f 657 605 630
f 546 663 662
f 637 657 656
f 605 659 630
f 637 660 657
f 636 603 637
f 659 572 571
f 659 661 542
f 659 629 661
f 629 631 661
f 660 605 657
f 654 644 666
f 150 632 681
f 701 150 695
f 667 646 647
f 644 643 666
f 524 654 666
f 540 701 648
f 638 590 670
f 590 610 670
f 638 670 667
f 647 638 667
f 643 645 671
f 673 674 675
f 652 671 645
f 644 676 645
f 676 652 645
f 654 522 676
f 672 646 667
f 610 672 670
f 675 643 671
f 590 640 610
f 644 654 676
f 647 524 666
f 646 672 523
f 672 610 523
f 524 646 523
f 670 672 667
f 675 674 666
f 676 610 652
f 676 522 610
f 673 671 652
f 671 673 675
f 646 524 647
f 643 675 666
f 551 647 666
f 659 628 677
f 678 659 679
f 680 678 679
f 582 659 678
f 572 659 582
f 659 606 695
f 628 582 677
f 659 680 606
f 680 679 606
f 679 659 606
f 628 572 582
f 677 678 680
f 659 677 680
f 677 582 678
f 606 659 695
f 653 666 664
f 682 508 694
f 665 348 719
f 651 669 664
f 684 685 668
f 685 684 652
f 674 684 668
f 684 674 673
f 686 669 649
f 692 669 686
f 687 688 552
f 666 674 668
f 669 692 664
f 649 669 651
f 652 610 653
f 689 685 690
f 552 689 690
f 685 689 668
f 650 651 683
f 691 650 683
f 684 673 652
f 687 690 652
f 552 690 687
f 652 650 691
f 551 666 653
f 652 690 685
f 686 652 696
f 652 686 649
f 688 687 691
f 687 652 691
f 688 691 683
f 683 651 664
f 689 552 664
f 666 689 664
f 666 668 689
f 664 552 688
f 688 683 664
f 718 681 663
f 681 718 695
f 665 718 663
f 682 220 537
f 665 682 537
f 694 682 665
f 694 665 604
f 663 681 665
f 604 665 681
f 682 694 220
f 632 220 694
f 632 694 604
f 604 681 632
f 150 681 695
f 681 469 695
f 469 681 695
f 713 719 712
f 540 693 653
f 686 696 692
f 664 692 693
f 696 653 693
f 692 696 693
f 712 714 713
f 653 664 693
f 653 696 652
f 695 719 715
f 715 719 712
f 704 697 506
f 713 665 719
f 701 712 719
f 701 715 712
f 695 715 701
f 506 699 704
f 698 704 699
f 698 699 708
f 706 698 708
f 703 705 506
f 703 709 705
f 506 708 699
f 708 506 706
f 702 703 506
f 506 697 702
f 709 702 697
f 506 705 716
f 713 719 695
f 715 712 719
f 693 540 653
f 716 705 707
f 706 707 698
f 705 709 707
f 709 698 707
f 717 719 713
f 698 697 704
f 697 698 709
f 706 506 716
f 703 702 709
f 706 716 707
f 655 700 711
f 655 713 700
f 700 713 711
f 655 711 710
f 710 711 713
f 717 713 655
f 655 710 717
f 710 713 717
f 717 713 714
f 714 719 717
f 719 714 715
f 715 714 712
f 718 665 695
f 713 695 665

