# https://github.com/mikedh/trimesh
v -0.96497577 0.00093245 -0.12188874
v -0.96497577 0.00483245 -0.12188874
v -0.96505576 0.00483245 -0.12182874
v -0.96505576 -0.06937754 -0.12182874
v -0.96497577 -0.06156755 -0.12188874
v -0.96505576 -0.05765755 -0.12182874
v -0.96497577 -0.07718755 -0.12188874
v -0.96497577 -0.07327755 -0.12188874
v -0.96505576 -0.07327755 -0.12182874
v -0.93784881 -0.06275697 -0.12188874
v -0.96618581 -0.08304755 -0.11791873
v -0.96998996 -0.12946866 -0.12543532
v -0.96505576 -0.04202755 -0.12182874
v -0.96497577 -0.04202755 -0.12188874
v -0.96505576 -0.03812755 -0.12182874
v -0.96618581 -0.06156755 -0.11791873
v -0.96497577 -0.00687755 -0.12188874
v -0.96497577 -0.00296755 -0.12188874
v -0.96505576 -0.01468755 -0.12182874
v -0.96497577 -0.01468755 -0.12188874
v -0.96505576 -0.01077755 -0.12182874
v -0.96497577 -0.08109755 -0.12188874
v -0.96505576 -0.07718755 -0.12182874
v -0.96497577 -0.06546755 -0.12188874
v -0.96497577 -0.06937754 -0.12188874
v -0.96505576 -0.04593755 -0.12182874
v -0.96497577 -0.04593755 -0.12188874
v -0.96618581 -0.04520630 -0.11791873
v -0.96505576 -0.04984755 -0.12182874
v -0.96497577 -0.04984755 -0.12188874
v -0.96314418 0.02533025 -0.11486761
v -0.96497577 -0.03812755 -0.12188874
v -0.96497577 -0.03421755 -0.12188874
v -0.96505576 -0.03421755 -0.12182874
v -0.96505576 -0.00296755 -0.12182874
v -0.96505576 0.00093245 -0.12182874
v -0.93741077 -0.01865509 -0.12188874
v -0.96497577 -0.05374755 -0.12188874
v -0.96505576 -0.00687755 -0.12182874
v -0.96497577 -0.03031755 -0.12188874
v -0.96497577 -0.02640755 -0.12188874
v -0.96505576 -0.02640755 -0.12182874
v -0.96497577 -0.01859755 -0.12188874
v -0.96497577 -0.02249755 -0.12188874
v -0.96414804 0.01955804 -0.12313324
v -0.96497577 -0.01077755 -0.12188874
v -0.98228598 0.01419057 -0.14077383
v -0.96505576 -0.06156755 -0.12182874
v -0.78919578 -0.05765755 -0.12188874
v -0.78913575 -0.06156755 -0.12182874
v -0.78913575 -0.05765755 -0.12182874
v -0.96505576 -0.02249755 -0.12182874
v -0.93098509 0.06385446 -0.08633784
v -0.96505576 -0.05374755 -0.12182874
v -0.96618581 -0.01566442 -0.11791873
v -0.96505576 -0.03031755 -0.12182874
v -0.96505576 0.00874245 -0.12182874
v -0.96505576 0.01264245 -0.12182874
v -0.96505576 -0.06546755 -0.12182874
v -0.96497577 0.00874245 -0.12188874
v -0.96505576 -0.01859755 -0.12182874
v -0.96497577 -0.05765755 -0.12188874
v -0.78919578 -0.10452755 -0.12188874
v -0.78919578 -0.10062754 -0.12188874
v -0.97063333 0.07705586 -0.04681121
v -0.91419578 0.02827245 -0.12571874
v -0.79700577 0.02827245 -0.12571874
v -0.80091578 0.02827245 -0.12571874
v -0.78919578 -0.08499755 -0.12188874
v -0.78919578 -0.08890755 -0.12188874
v -0.78913575 -0.08890755 -0.12182874
v -0.78919578 -0.07718755 -0.12188874
v -0.78919578 -0.07327755 -0.12188874
v -0.91028577 0.02825245 -0.12573873
v -0.91028577 0.02827245 -0.12571874
v -0.87902904 0.02616959 -0.11838256
v -0.90742642 0.03302730 -0.10880034
v -0.90638578 0.02825245 -0.12573873
v -0.91421145 0.02826989 -0.12572154
v -0.89856577 0.02827245 -0.12571874
v -0.89466578 0.02825245 -0.12573873
v -0.89856577 0.02825245 -0.12573873
v -0.90638578 0.02827245 -0.12571874
v -0.90247577 0.02825245 -0.12573873
v -0.90247577 0.02827245 -0.12571874
v -0.87513578 0.02825245 -0.12573873
v -0.87903577 0.02825245 -0.12573873
v -0.87903577 0.02827245 -0.12571874
v -0.78919578 -0.02249755 -0.12188874
v -0.78901577 -0.11258817 -0.11791873
v -0.78913575 -0.08499755 -0.12182874
v -0.78913575 -0.08109755 -0.12182874
v -0.78913575 -0.07718755 -0.12182874
v -0.78919578 -0.11234755 -0.12188874
v -0.78913575 -0.11624755 -0.12182874
v -0.78913575 -0.11234755 -0.12182874
v -0.78913575 -0.07327755 -0.12182874
v -0.89075577 0.02827245 -0.12571874
v -0.88684577 0.02827245 -0.12571874
v -0.78919578 -0.01468755 -0.12188874
v -0.78919578 -0.01859755 -0.12188874
v -0.78913575 -0.01859755 -0.12182874
v -0.87122577 0.02827245 -0.12571874
v -0.86731577 0.02827245 -0.12571874
v -0.78919578 -0.06546755 -0.12188874
v -0.78919578 -0.06937754 -0.12188874
v -0.78913575 -0.06937754 -0.12182874
v -0.78913575 -0.09281755 -0.12182874
v -0.85169578 0.07116245 -0.12182874
v -0.85559577 0.07116245 -0.12182874
v -0.89075577 0.02825245 -0.12573873
v -0.85950577 0.02827245 -0.12571874
v -0.87513578 0.02827245 -0.12571874
v -0.88294578 0.02825245 -0.12573873
v -0.88294578 0.02827245 -0.12571874
v -0.87513119 0.01051775 -0.14140306
v -0.88684577 0.02825245 -0.12573873
v -0.89466578 0.02827245 -0.12571874
v -0.86731577 0.07116245 -0.12182874
v -0.86341578 0.07116245 -0.12182874
v -0.85559577 0.07124245 -0.12186873
v -0.85950577 0.07135245 -0.12182874
v -0.85559577 0.07135245 -0.12182874
v -0.77655256 0.06789256 0.04465400
v -0.78919578 -0.10843755 -0.12188874
v -0.78919578 -0.00687755 -0.12188874
v -0.78913575 -0.01077755 -0.12182874
v -0.78913575 -0.00687755 -0.12182874
v -0.86731577 0.07124245 -0.12186873
v -0.87122577 0.07135245 -0.12182874
v -0.86731577 0.07135245 -0.12182874
v -0.85950577 0.07124245 -0.12186873
v -0.86341578 0.07135245 -0.12182874
v -0.85950577 0.07116245 -0.12182874
v -0.86341578 0.07124245 -0.12186873
v -0.87122577 0.07514246 -0.11884874
v -0.85169578 0.07124245 -0.12186873
v -0.85169578 0.07135245 -0.12182874
v -0.86731577 0.02825245 -0.12573873
v -0.87122577 0.02825245 -0.12573873
v -0.78919578 -0.08109755 -0.12188874
v -0.78919578 -0.05374755 -0.12188874
v -0.78901577 -0.08158255 -0.11791873
v -0.78913575 -0.12406755 -0.12182874
v -0.78919578 -0.12015755 -0.12188874
v -0.78913575 -0.12015755 -0.12182874
v -0.78913575 -0.10452755 -0.12182874
v -0.78913575 -0.10062754 -0.12182874
v -0.76966578 0.02827245 -0.12571874
v -0.76575577 0.02827245 -0.12571874
v -0.85559577 0.02825245 -0.12573873
v -0.85950577 0.02825245 -0.12573873
v -0.60169578 -0.11234755 -0.12188874
v -0.60422087 -0.13393801 -0.12498858
v -0.60160577 -0.11624755 -0.12182874
v -0.78919578 -0.01077755 -0.12188874
v -0.76184577 0.02827245 -0.12571874
v -0.78919578 0.00093245 -0.12188874
v -0.78919578 -0.00296755 -0.12188874
v -0.78913575 -0.00296755 -0.12182874
v -0.81017888 -0.08628962 -0.12195821
v -0.86341578 0.02827245 -0.12571874
v -0.78919578 -0.09281755 -0.12188874
v -0.84388578 0.02827245 -0.12571874
v -0.86341578 0.02825245 -0.12573873
v -0.85169578 0.02827245 -0.12571874
v -0.85559577 0.02827245 -0.12571874
v -0.85169578 0.02825245 -0.12573873
v -0.84778577 0.02825245 -0.12573873
v -0.81653577 0.02825245 -0.12573873
v -0.84388578 0.02825245 -0.12573873
v -0.84778577 0.02827245 -0.12571874
v -0.87122577 0.07124245 -0.12186873
v -0.87126338 0.07122849 -0.12187017
v -0.81408238 0.06079810 -0.08752907
v -0.84388578 0.07124245 -0.12186873
v -0.84778577 0.07124245 -0.12186873
v -0.84778577 0.07135245 -0.12182874
v -0.84388578 0.07116245 -0.12182874
v -0.84388578 0.07135245 -0.12182874
v -0.83606577 0.07116245 -0.12182874
v -0.83216578 0.07116245 -0.12182874
v -0.83216578 0.06774245 -0.11791873
v -0.83997577 0.07135245 -0.12182874
v -0.83606577 0.07135245 -0.12182874
v -0.78919578 -0.04984755 -0.12188874
v -0.78913575 -0.05374755 -0.12182874
v -0.78913575 -0.04984755 -0.12182874
v -0.78919578 -0.04593755 -0.12188874
v -0.78913575 -0.04593755 -0.12182874
v -0.78919578 -0.04202755 -0.12188874
v -0.84778577 0.07116245 -0.12182874
v -0.87178177 0.06510214 -0.09279875
v -0.82044578 0.02825245 -0.12573873
v -0.78919578 -0.03421755 -0.12188874
v -0.81140214 -0.01386673 -0.12188874
v -0.78919578 -0.09671755 -0.12188874
v -0.78913575 -0.09671755 -0.12182874
v -0.80481577 0.02827245 -0.12571874
v -0.78036368 -0.15003444 -0.12334611
v -0.83997577 0.02825245 -0.12573873
v -0.83997577 0.02827245 -0.12571874
v -0.82825577 0.02827245 -0.12571874
v -0.83216578 0.02827245 -0.12571874
v -0.83606577 0.02827245 -0.12571874
v -0.80872577 0.02827245 -0.12571874
v -0.83606577 0.02825245 -0.12573873
v -0.83216578 0.02825245 -0.12573873
v -0.83997577 0.07116245 -0.12182874
v -0.83997577 0.07124245 -0.12186873
v -0.82044578 0.02827245 -0.12571874
v -0.81653577 0.02827245 -0.12571874
v -0.82819217 0.07181232 -0.11967313
v -0.78919578 -0.03031755 -0.12188874
v -0.78913575 -0.03031755 -0.12182874
v -0.78919578 -0.02640755 -0.12188874
v -0.83216578 0.07124245 -0.12186873
v -0.83207530 0.07125153 -0.12187604
v -0.82825577 0.02825245 -0.12573873
v -0.82434577 0.02827245 -0.12571874
v -0.81263578 0.02825245 -0.12573873
v -0.78913575 -0.01468755 -0.12182874
v -0.82434577 0.02825245 -0.12573873
v -0.83606577 0.07124245 -0.12186873
v -0.81263578 0.02827245 -0.12571874
v -0.79700577 0.02825245 -0.12573873
v -0.80091578 0.02825245 -0.12573873
v -0.78913575 -0.02249755 -0.12182874
v -0.78913575 -0.10843755 -0.12182874
v -0.79309577 0.02827245 -0.12571874
v -0.78919578 0.02827245 -0.12571874
v -0.80416483 -0.10136215 -0.12509756
v -0.78919578 -0.03812755 -0.12188874
v -0.78913575 -0.04202755 -0.12182874
v -0.78913575 -0.03812755 -0.12182874
v -0.78919578 -0.11624755 -0.12188874
v -0.78919578 0.02825245 -0.12573873
v -0.80872577 0.02825245 -0.12573873
v -0.78919578 -0.06156755 -0.12188874
v -0.78913575 -0.06546755 -0.12182874
v -0.83113909 0.01203930 -0.14294153
v -0.78913575 -0.02640755 -0.12182874
v -0.75013578 0.02825245 -0.12573873
v -0.75403577 0.02825245 -0.12573873
v -0.80481577 0.02825245 -0.12573873
v -0.77747577 0.02827245 -0.12571874
v -0.78138578 0.02827245 -0.12571874
v -0.78913575 -0.03421755 -0.12182874
v -0.78528577 0.02825245 -0.12573873
v -0.78138578 0.02825245 -0.12573873
v -0.78901577 -0.00712067 -0.11791873
v -0.78901577 -0.05814630 -0.11791873
v -0.79309577 0.02825245 -0.12573873
v -0.75794578 0.02825245 -0.12573873
v -0.78528577 0.02827245 -0.12571874
v -0.74231577 0.02827245 -0.12571874
v -0.75013578 0.02827245 -0.12571874
v -0.77356577 0.02827245 -0.12571874
v -0.77356577 0.02825245 -0.12573873
v -0.78935468 0.02372853 -0.11172293
v -0.78901577 -0.03739192 -0.11791873
v -0.71279842 0.00984933 -0.14150064
v -0.76966578 0.02825245 -0.12573873
v -0.76575577 0.02825245 -0.12573873
v -0.76184577 0.02825245 -0.12573873
v -0.77747577 0.02825245 -0.12573873
v 0.17954421 -0.10892630 -0.08482874
v -0.77299815 0.00996130 -0.14346568
v -0.74622577 0.02825245 -0.12573873
v -0.74231577 0.02825245 -0.12573873
v 0.17563421 -0.11624755 0.11644126
v -0.70716578 0.02827245 -0.12571874
v -0.73450577 0.02825245 -0.12573873
v -0.73059577 0.02825245 -0.12573873
v -0.77106977 0.05192469 -0.09904955
v -0.75794578 0.02827245 -0.12571874
v -0.75403577 0.02827245 -0.12571874
v -0.73841578 0.02825245 -0.12573873
v -0.70352995 0.06662884 -0.09521176
v -0.72669578 0.02825245 -0.12573873
v -0.73059577 0.02827245 -0.12571874
v -0.73450577 0.02827245 -0.12571874
v -0.74622577 0.02827245 -0.12571874
v -0.71763724 0.02947414 -0.11916807
v -0.74549156 0.02234352 -0.13278162
v -0.73841578 0.02827245 -0.12571874
v -0.72278577 0.02827245 -0.12571874
v -0.71888578 0.02827245 -0.12571874
v -0.72669578 0.02827245 -0.12571874
v -0.72278577 0.02825245 -0.12573873
v -0.71888578 0.02825245 -0.12573873
v -0.71888578 0.07124245 -0.12186873
v -0.72669578 0.07124245 -0.12186873
v -0.73062360 0.07134796 -0.12182215
v -0.72669578 0.07116245 -0.12182874
v -0.73067456 0.07123092 -0.12187156
v -0.72278577 0.07124245 -0.12186873
v -0.71888578 0.07116245 -0.12182874
v -0.72278577 0.07116245 -0.12182874
v -0.73059577 0.07124245 -0.12186873
v -0.71497577 0.07124245 -0.12186873
v -0.60169578 -0.03812755 -0.12188874
v -0.60169578 -0.04202755 -0.12188874
v -0.60160577 -0.04202755 -0.12182874
v -0.70716578 0.02825245 -0.12573873
v -0.71497577 0.02827245 -0.12571874
v -0.71106577 0.02825245 -0.12573873
v -0.71106577 0.02827245 -0.12571874
v -0.60169578 -0.07718755 -0.12188874
v -0.60160577 -0.07718755 -0.12182874
v -0.60169578 -0.07327755 -0.12188874
v -0.71497577 0.02825245 -0.12573873
v -0.71106577 0.07124245 -0.12186873
v -0.70716578 0.07116245 -0.12182874
v -0.62698054 0.05653458 -0.09654415
v -0.71497577 0.07116245 -0.12182874
v -0.66673034 0.01203064 -0.14342195
v -0.71106577 0.07116245 -0.12182874
v 0.17563421 -0.11234755 0.11644126
v 0.17563421 -0.10843755 0.11644126
v -0.66028577 0.07135245 -0.12182874
v -0.66032660 0.07122816 -0.12186912
v -0.66028577 0.07514246 -0.11884874
v -0.65638578 0.07124245 -0.12186873
v -0.65638578 0.07135245 -0.12182874
v -0.60169578 -0.10062754 -0.12188874
v -0.60169578 -0.09671755 -0.12188874
v -0.60169578 -0.09281755 -0.12188874
v -0.60160577 -0.09671755 -0.12182874
v -0.60160577 -0.09281755 -0.12182874
v -0.60169578 -0.10452755 -0.12188874
v -0.60160577 -0.10452755 -0.12182874
v -0.60160577 -0.10062754 -0.12182874
v -0.60169578 -0.08109755 -0.12188874
v -0.60169578 -0.08499755 -0.12188874
v -0.60169578 -0.05374755 -0.12188874
v -0.60169578 -0.04984755 -0.12188874
v -0.60169578 -0.10843755 -0.12188874
v -0.63345188 -0.07984252 -0.12188662
v -0.60169578 -0.01859755 -0.12188874
v -0.60160577 -0.02249755 -0.12182874
v -0.60160577 -0.01859755 -0.12182874
v -0.60169578 -0.04593755 -0.12188874
v -0.60160577 -0.04984755 -0.12182874
v -0.60169578 -0.08890755 -0.12188874
v -0.60160577 -0.02640755 -0.12182874
v -0.60160577 -0.08890755 -0.12182874
v -0.66028577 0.07124245 -0.12186873
v -0.65638578 0.07116245 -0.12182874
v -0.60169578 -0.00296755 -0.12188874
v -0.60169578 -0.00687755 -0.12188874
v -0.60160577 -0.00687755 -0.12182874
v -0.60169578 -0.01468755 -0.12188874
v -0.60169578 -0.02249755 -0.12188874
v -0.60169578 -0.01077755 -0.12188874
v -0.60160577 -0.01468755 -0.12182874
v -0.60160577 -0.01077755 -0.12182874
v -0.60032576 -0.06400380 -0.11791873
v -0.60160577 -0.05765755 -0.12182874
v -0.60169578 -0.05765755 -0.12188874
v -0.65247577 0.07135245 -0.12182874
v -0.64856577 0.07124245 -0.12186873
v -0.64856577 0.07135245 -0.12182874
v -0.60032576 -0.00516880 -0.11791873
v -0.64075577 0.07116245 -0.12182874
v -0.64466578 0.07116245 -0.12182874
v -0.60169578 -0.06546755 -0.12188874
v -0.60169578 -0.06937754 -0.12188874
v -0.60160577 -0.06937754 -0.12182874
v -0.62903577 0.07135245 -0.12182874
v -0.61778218 0.06826813 -0.11794896
v -0.64075577 0.07124245 -0.12186873
v -0.64466578 0.07135245 -0.12182874
v -0.64075577 0.07135245 -0.12182874
v -0.63294578 0.07124245 -0.12186873
v -0.63684577 0.07135245 -0.12182874
v -0.63294578 0.07135245 -0.12182874
v -0.60169578 0.00093245 -0.12188874
v -0.65247577 0.07116245 -0.12182874
v -0.64466578 0.07124245 -0.12186873
v -0.64856577 0.07116245 -0.12182874
v -0.63684577 0.07124245 -0.12186873
v -0.63684577 0.07116245 -0.12182874
v -0.65247577 0.07124245 -0.12186873
v -0.62903577 0.07124245 -0.12186873
v -0.62513578 0.07116245 -0.12182874
v -0.62903577 0.07116245 -0.12182874
v -0.63294578 0.07116245 -0.12182874
v -0.60160577 -0.07327755 -0.12182874
v -0.62513578 0.07124245 -0.12186873
v -0.62342411 0.07131657 -0.12185440
v -0.62112647 0.07125173 -0.12187592
v -0.62122577 0.07116245 -0.12182874
v -0.60160577 -0.11234755 -0.12182874
v -0.60160577 -0.06546755 -0.12182874
v -0.60160577 -0.06156755 -0.12182874
v -0.60160577 -0.08109755 -0.12182874
v -0.60169578 -0.06156755 -0.12188874
v -0.60169578 -0.03031755 -0.12188874
v -0.60169578 -0.03421755 -0.12188874
v -0.60160577 -0.03421755 -0.12182874
v -0.60160577 -0.03812755 -0.12182874
v -0.60160577 -0.10843755 -0.12182874
v -0.60160577 -0.08499755 -0.12182874
v -0.60032576 -0.08963942 -0.11791873
v -0.61176437 -0.00980724 -0.12188874
v -0.59949410 -0.13621375 -0.10835383
v -0.60160577 -0.05374755 -0.12182874
v -0.60160577 -0.04593755 -0.12182874
v -0.60160577 -0.03031755 -0.12182874
v -0.60169578 -0.02640755 -0.12188874
v -0.59684908 0.10242396 -0.01897279
v -0.60160577 -0.00296755 -0.12182874
v -0.54309577 0.02436245 0.08527127
v -0.53919578 0.02436245 0.08527127
v -0.54309577 0.02443245 0.08519126
v -0.60032576 -0.03861380 -0.11791873
v -0.54700577 0.02443245 0.08519126
v -0.52164072 0.01308497 0.09865024
v -0.53528577 0.02443245 0.08519126
v -0.53919578 0.02443245 0.08519126
v -0.51184577 0.02436245 0.08527127
v -0.53528577 0.02436245 0.08527127
v -0.53138578 0.02436245 0.08527127
v -0.53138578 0.02443245 0.08519126
v -0.52747577 0.02436245 0.08527127
v -0.59380317 -0.02267760 0.11570895
v -0.52356577 0.02443245 0.08519126
v -0.52356577 0.02436245 0.08527127
v -0.51966578 0.02436245 0.08527127
v -0.52747577 0.02443245 0.08519126
v -0.51575577 0.02443245 0.08519126
v -0.51575577 0.02436245 0.08527127
v -0.51966578 0.02443245 0.08519126
v -0.51177841 0.02442806 0.08519577
v -0.51675344 0.06707884 0.03200142
v 0.17954421 -0.08549005 -0.08482874
v 0.17563421 -0.10062754 -0.08276873
v 0.17563421 -0.09671755 -0.08276873
v 0.17564420 -0.09671755 0.11645127
v 0.17563421 -0.09281755 0.11644126
v 0.17564420 -0.09281755 0.11645127
v 0.17564420 -0.11234755 0.11645127
v 0.17564420 -0.10452755 -0.08276873
v -0.42468077 0.02213720 -0.10363138
v -0.09703375 -0.01032304 -0.13598184
v -0.12226503 -0.03634050 0.14845997
v -0.15339519 0.08809821 -0.02320359
v 0.17160209 -0.14546733 0.11229160
v -0.06653579 0.09858245 -0.04761873
v -0.07044579 0.09859245 -0.04760874
v -0.06653579 0.09859245 -0.04760874
v -0.13526566 0.08043367 0.02946921
v -0.08997579 0.12202245 -0.01241873
v -0.09388579 0.12202245 -0.01241873
v -0.03528579 0.09858245 -0.04761873
v -0.03528579 0.09859245 -0.04760874
v -0.03138579 0.09858245 -0.04761873
v -0.07044579 0.09858245 -0.04761873
v -0.07434580 0.09859245 -0.04760874
v -0.09388579 0.12205245 -0.01244873
v -0.08997579 0.12205245 -0.01244873
v -0.07435224 0.09858727 -0.04761412
v -0.06588492 0.10218509 0.01121184
v -0.08216579 0.12202245 -0.01241873
v -0.08606579 0.12202245 -0.01241873
v -0.09778579 0.12205245 -0.01244873
v 0.26557800 0.10028733 0.01731189
v -0.07825579 0.12205245 -0.01244873
v -0.09250247 0.12402854 -0.01702996
v -0.08216579 0.12205245 -0.01244873
v -0.07825579 0.12202245 -0.01241873
v -0.07044579 0.12205245 -0.01244873
v -0.06653579 0.12205245 -0.01244873
v -0.06263579 0.09858245 -0.04761873
v -0.06263579 0.09859245 -0.04760874
v -0.04700579 0.12205245 -0.01244873
v -0.04309579 0.12202245 -0.01241873
v -0.04309579 0.12205245 -0.01244873
v -0.07434580 0.12202245 -0.01241873
v -0.08606579 0.12205245 -0.01244873
v -0.06263079 0.12386245 -0.01635873
v -0.07044579 0.12202245 -0.01241873
v -0.07434580 0.12205245 -0.01244873
v -0.06653579 0.12202245 -0.01241873
v -0.06263579 0.12202245 -0.01241873
v -0.06263579 0.12205245 -0.01244873
v -0.03528579 0.12205245 -0.01244873
v -0.03528579 0.12202245 -0.01241873
v -0.03138579 0.12202245 -0.01241873
v -0.05481579 0.12205245 -0.01244873
v -0.05091579 0.12205245 -0.01244873
v -0.03919579 0.09858245 -0.04761873
v -0.04309579 0.09858245 -0.04761873
v -0.04309579 0.09859245 -0.04760874
v -0.05872579 0.09858245 -0.04761873
v -0.05872579 0.09859245 -0.04760874
v -0.03919579 0.09859245 -0.04760874
v -0.05091579 0.09859245 -0.04760874
v -0.05481579 0.09859245 -0.04760874
v -0.05091579 0.09858245 -0.04761873
v -0.04700579 0.09858245 -0.04761873
v -0.04700579 0.09859245 -0.04760874
v -0.05872579 0.12202245 -0.01241873
v -0.04765139 0.12393522 -0.01728367
v -0.05481579 0.09858245 -0.04761873
v -0.05091579 0.12202245 -0.01241873
v -0.03919579 0.12202245 -0.01241873
v -0.05481579 0.12202245 -0.01241873
v -0.03138579 0.12205245 -0.01244873
v -0.03138579 0.09859245 -0.04760874
v -0.05872579 0.12205245 -0.01244873
v -0.03919579 0.12205245 -0.01244873
v -0.04700579 0.12202245 -0.01241873
v -0.02356579 0.12202245 -0.01241873
v -0.02747579 0.09858245 -0.04761873
v 0.17563421 -0.10038255 0.10887627
v -0.02747579 0.09859245 -0.04760874
v -0.00403579 0.09858245 -0.04761873
v -0.00403579 0.12205245 -0.01244873
v -0.00013579 0.12205245 -0.01244873
v -0.00403579 0.09859245 -0.04760874
v -0.00794579 0.09859245 -0.04760874
v -0.00794579 0.09858245 -0.04761873
v -0.01966579 0.09858245 -0.04761873
v -0.01966579 0.09859245 -0.04760874
v -0.01575579 0.09858245 -0.04761873
v -0.02356579 0.09858245 -0.04761873
v -0.02356579 0.09859245 -0.04760874
v -0.04020254 0.07087900 -0.07943731
v -0.01575579 0.09859245 -0.04760874
v -0.02747579 0.12205245 -0.01244873
v -0.02747579 0.12202245 -0.01241873
v -0.01184579 0.09858245 -0.04761873
v -0.02699323 0.10049862 0.01319055
v -0.01184579 0.09859245 -0.04760874
v -0.00013579 0.09858245 -0.04761873
v -0.00794579 0.12202245 -0.01241873
v -0.00403579 0.12202245 -0.01241873
v 0.04403546 0.07739678 0.04070528
v -0.01966579 0.12205245 -0.01244873
v -0.01575579 0.12205245 -0.01244873
v -0.01184579 0.12202245 -0.01241873
v -0.01575579 0.12202245 -0.01241873
v -0.02356579 0.12205245 -0.01244873
v -0.01966579 0.12202245 -0.01241873
v -0.01184579 0.12205245 -0.01244873
v -0.00794579 0.12205245 -0.01244873
v 0.00767421 0.12205245 -0.01244873
v -0.00013579 0.12202245 -0.01241873
v 0.02329421 0.12202245 -0.01241873
v 0.01548421 0.12205245 -0.01244873
v 0.01548421 0.12202245 -0.01241873
v 0.01939421 0.12202245 -0.01241873
v 0.17563421 -0.08109755 0.11644126
v 0.03501421 0.12202245 -0.01241873
v 0.17563421 -0.10452755 -0.08276873
v 0.14694257 0.00981465 0.11445634
v 0.04282421 0.12202245 -0.01241873
v 0.15258448 0.09846220 -0.05523954
v 0.17954421 -0.06815442 0.11827127
v 0.00376421 0.12202245 -0.01241873
v 0.00199123 0.09881843 -0.04739678
v 0.00376421 0.12205245 -0.01244873
v 0.00767421 0.12202245 -0.01241873
v 0.02099896 0.12395790 -0.01728392
v 0.01157421 0.12205245 -0.01244873
v 0.01157421 0.12202245 -0.01241873
v 0.02720421 0.12202245 -0.01241873
v 0.03111421 0.12202245 -0.01241873
v 0.02720421 0.12205245 -0.01244873
v 0.03111421 0.12205245 -0.01244873
v -0.00714865 0.12400811 -0.01725274
v 0.02329421 0.12205245 -0.01244873
v 0.01939421 0.12205245 -0.01244873
v 0.17563421 -0.08109755 -0.08276873
v 0.17563421 -0.09281755 -0.08276873
v 0.17682844 -0.12907885 -0.08305568
v 0.17564420 -0.11624755 -0.08276873
v 0.12486421 0.12205245 -0.01244873
v 0.17563421 -0.07718755 0.11644126
v 0.17564420 -0.08109755 0.11645127
v 0.03892421 0.12205245 -0.01244873
v 0.04282421 0.12205245 -0.01244873
v 0.04673421 0.12202245 -0.01241873
v 0.04673421 0.12205245 -0.01244873
v 0.07017420 0.12205245 -0.01244873
v 0.07017420 0.12202245 -0.01241873
v 0.07407421 0.12202245 -0.01241873
v 0.03501421 0.12205245 -0.01244873
v 0.05454421 0.12202245 -0.01241873
v 0.06236421 0.12202245 -0.01241873
v 0.05845421 0.12202245 -0.01241873
v 0.03892421 0.12202245 -0.01241873
v 0.05064421 0.12202245 -0.01241873
v 0.05064421 0.12205245 -0.01244873
v 0.05845421 0.12205245 -0.01244873
v 0.06236421 0.12205245 -0.01244873
v 0.05454421 0.12205245 -0.01244873
v 0.17564420 -0.11234755 -0.08276873
v 0.17564420 -0.06546755 -0.08276873
v 0.17563421 -0.06156755 -0.08276873
v 0.17563421 -0.06546755 -0.08276873
v 0.17563421 -0.07718755 -0.08276873
v 0.17563421 -0.11234755 -0.08276873
v 0.09751421 0.12202245 -0.01241873
v 0.10142420 0.12202245 -0.01241873
v 0.17564420 -0.08890755 -0.08276873
v 0.17563421 -0.08499755 -0.08276873
v 0.17563421 -0.08890755 -0.08276873
v 0.06626421 0.12202245 -0.01241873
v 0.06626421 0.12205245 -0.01244873
v 0.17564420 -0.10843755 -0.08276873
v 0.17563421 -0.10843755 -0.08276873
v 0.07798421 0.12202245 -0.01241873
v 0.08189421 0.12202245 -0.01241873
v 0.09751421 0.12205245 -0.01244873
v 0.07407421 0.12205245 -0.01244873
v 0.08189421 0.12205245 -0.01244873
v 0.08579421 0.12205245 -0.01244873
v 0.16089769 0.02112000 0.11177938
v 0.07798421 0.12205245 -0.01244873
v 0.08970421 0.12202245 -0.01241873
v 0.08970421 0.12205245 -0.01244873
v 0.09361421 0.12202245 -0.01241873
v 0.08579421 0.12202245 -0.01241873
v 0.17564420 -0.10062754 0.11645127
v 0.06487844 0.11478013 -0.03052342
v 0.09361421 0.12205245 -0.01244873
v 0.09470233 0.10260279 0.01070917
v 0.17564420 -0.10062754 -0.08276873
v 0.17289907 -0.14664851 -0.09839316
v 0.17564420 -0.12015755 -0.08276873
v 0.17563565 -0.12013668 -0.08276782
v 0.17563421 -0.11624755 -0.08276873
v 0.15611421 0.02046245 0.10861127
v 0.15220420 0.02046245 0.10861127
v 0.15607363 0.02046080 0.10861677
v 0.17564420 -0.09671755 -0.08276873
v 0.17564420 -0.08109755 -0.08276873
v 0.17563421 -0.07327755 -0.08276873
v 0.10142420 0.12205245 -0.01244873
v 0.11704421 0.12205245 -0.01244873
v 0.12095421 0.12202245 -0.01241873
v 0.12095421 0.12205245 -0.01244873
v 0.17564420 -0.07327755 -0.08276873
v 0.17564420 -0.06937754 -0.08276873
v 0.17563421 -0.06937754 -0.08276873
v 0.11314421 0.12202245 -0.01241873
v 0.10923421 0.12202245 -0.01241873
v 0.10532421 0.12202245 -0.01241873
v 0.10532421 0.12205245 -0.01244873
v 0.10923421 0.12205245 -0.01244873
v 0.10679296 0.12386245 -0.01635873
v 0.11314421 0.12205245 -0.01244873
v 0.11704421 0.12202245 -0.01241873
v 0.15768000 0.03094327 0.09758401
v 0.12876421 0.12205245 -0.01244873
v 0.12486421 0.12202245 -0.01241873
v 0.14852610 0.12203980 -0.01244248
v 0.17954421 -0.12601756 0.11827127
v 0.19853260 0.00870974 -0.08424982
v 0.17563421 -0.08890755 0.11644126
v 0.17564420 -0.08890755 0.11645127
v 0.17564420 -0.06546755 0.11645127
v 0.15611266 0.02373088 0.10469998
v 0.17563421 -0.05374755 0.11644126
v 0.17563421 -0.04984755 0.11644126
v 0.17563421 -0.04593755 0.11644126
v 0.15711421 0.02436245 0.10472127
v 0.17563421 -0.08499755 0.11644126
v 0.15611421 0.02371245 0.10472127
v 0.17563421 -0.08313320 -0.04491792
v 0.17563421 -0.05765755 -0.08276873
v 0.12876421 0.12202245 -0.01241873
v 0.17564420 -0.06156755 -0.08276873
v 0.13267420 0.12205245 -0.01244873
v 0.13657421 0.12202245 -0.01241873
v 0.13657421 0.12205245 -0.01244873
v 0.14829421 0.12202245 -0.01241873
v 0.14048420 0.12205245 -0.01244873
v 0.14048420 0.12202245 -0.01241873
v 0.12599069 0.11265483 -0.00126956
v 0.13267420 0.12202245 -0.01241873
v 0.14439420 0.12205245 -0.01244873
v 0.14439420 0.12202245 -0.01241873
v 0.17726211 0.06577763 0.04868878
v 0.17563421 0.06733245 0.00707127
v 0.17563421 0.06733245 0.00316127
v 0.17564420 -0.09281755 -0.08276873
v 0.17563421 0.03758913 0.01500211
v 0.22142400 -0.00607921 0.14220041
v 0.21861421 0.00093245 0.13600126
v 0.21470420 0.00095245 0.13597126
v 0.17564420 -0.07718755 -0.08276873
v 0.17564420 -0.10843755 0.11645127
v 0.17563421 -0.10452755 0.11644126
v 0.17564420 -0.11624755 0.11645127
v 0.17563421 -0.09671755 0.11644126
v 0.17564420 -0.10452755 0.11645127
v 0.23814420 0.00093245 0.13600126
v 0.17563421 -0.05306380 0.09599685
v 0.17564420 -0.07718755 0.11645127
v 0.17672318 0.10167958 0.00962675
v 0.17564420 -0.05374755 0.11645127
v 0.17563421 -0.07327755 0.11644126
v 0.17564420 -0.08499755 -0.08276873
v 0.17563421 -0.05765755 0.11644126
v 0.17564420 -0.05765755 0.11645127
v 0.17563421 -0.06156755 0.11644126
v 0.17563421 -0.04984755 -0.08276873
v 0.17954421 -0.09671880 0.11827127
v 0.17563421 -0.10062754 0.11644126
v 0.17564420 -0.06937754 0.11645127
v 0.17563421 -0.06937754 0.11644126
v 0.17563421 -0.06546755 0.11644126
v 0.19710834 0.00391165 0.13247493
v 0.17564420 -0.08499755 0.11645127
v 0.17564420 -0.06156755 0.11645127
v 0.17564420 -0.07327755 0.11645127
v 0.17731933 -0.03853614 0.11759134
v 0.17954867 0.05572903 -0.02032370
v 0.17563431 0.04779963 -0.02417156
v 0.15614420 0.02046245 0.10863127
v 0.24595420 0.00095245 0.13597126
v 0.24986421 0.00095245 0.13597126
v 0.17564420 0.04780245 -0.02416873
v 0.17563421 0.05171245 -0.02026873
v 0.17564420 0.05562245 -0.01635873
v 0.17952421 0.05561245 -0.02026873
v 0.17563421 0.05952245 -0.00854873
v 0.17564420 0.05171245 -0.02026873
v 0.17914420 0.05171245 -0.02416873
v 0.17564420 0.05561245 -0.01635873
v 0.17563421 0.05561245 -0.01635873
v 0.21861421 0.00095245 0.13597126
v 0.17563421 0.05561245 -0.01244873
v 0.17564420 0.05563245 -0.01244873
v 0.17764421 0.06343245 -0.00854873
v 0.29286051 0.07485894 0.04848772
v 0.17564420 0.05953245 -0.00854873
v 0.17564420 0.05952245 -0.00856873
v 0.18212129 0.04354431 -0.03847645
v 0.17564420 0.06343245 -0.00464873
v 0.17563421 0.06343245 -0.00463873
v 0.17844421 0.06733245 -0.00463873
v 0.17564420 0.06733245 -0.00073873
v 0.17564420 0.06343245 -0.00463873
v 0.17563421 0.06733245 -0.00073873
v 0.17564420 0.06734245 -0.00073873
v 0.17564420 0.06734245 0.00316127
v 0.17914400 0.06688815 -0.00488128
v 0.23032421 0.00093245 0.13600126
v 0.22251421 0.00093245 0.13600126
v 0.23423420 0.00093245 0.13600126
v 0.53289378 0.01558590 0.03042388
v 0.22642420 0.00093245 0.13600126
v 0.26939422 0.00093245 0.13600126
v 0.26548421 0.00093245 0.13600126
v 0.25376421 0.00093245 0.13600126
v 0.23032421 0.00095245 0.13597126
v 0.23423420 0.00095245 0.13597126
v 0.27329421 0.00093245 0.13600126
v 0.24204421 0.00095245 0.13597126
v 0.22642420 0.00095245 0.13597126
v 0.22251421 0.00095245 0.13597126
v 0.24204421 0.00093245 0.13600126
v 0.24595420 0.00093245 0.13600126
v 0.24986421 0.00093245 0.13600126
v 0.25376421 0.00095245 0.13597126
v 0.23814420 0.00095245 0.13597126
v 0.25767419 0.00093245 0.13600126
v 0.25767419 0.00095245 0.13597126
v 0.28501421 0.08296245 0.03824127
v 0.23814420 0.08296245 0.03824127
v 0.23814420 0.08289245 0.03832127
v 0.24204421 0.08289245 0.03832127
v 0.23423420 0.08296245 0.03824127
v 0.25772327 0.04292515 0.08580861
v 0.24204421 0.08296245 0.03824127
v 0.24595420 0.08296245 0.03824127
v 0.24595420 0.08289245 0.03832127
v 0.24986421 0.08289245 0.03832127
v 0.25767419 0.08296245 0.03824127
v 0.25767419 0.08289245 0.03832127
v 0.26157421 0.08289245 0.03832127
v 0.24986421 0.08296245 0.03824127
v 0.26157421 0.00093245 0.13600126
v 0.26548421 0.00095245 0.13597126
v 0.26157421 0.00095245 0.13597126
v 0.28631911 0.00278780 0.12951967
v 0.25376421 0.08289245 0.03832127
v 0.29283032 0.08296136 0.03824066
v 0.28111422 0.08289245 0.03832127
v 0.27720419 0.08289245 0.03832127
v 0.25376421 0.08296245 0.03824127
v 0.26939422 0.08296245 0.03824127
v 0.27329421 0.08296245 0.03824127
v 0.27329421 0.08289245 0.03832127
v 0.26157421 0.08296245 0.03824127
v 0.26548421 0.08289245 0.03832127
v 0.26548421 0.08296245 0.03824127
v 0.26939422 0.08289245 0.03832127
v 0.27720419 0.08296245 0.03824127
v 0.28111422 0.08296245 0.03824127
v 0.25740248 -0.01167801 0.13568206
v 0.28501421 0.08289245 0.03832127
v 0.17677914 -0.05698213 -0.08329676
v 0.28892419 0.08289245 0.03832127
v 0.28892419 0.08296245 0.03824127
v 0.29282421 0.08289245 0.03832127
v 0.67564422 0.09468245 0.07356126
v 0.67173421 0.09468245 0.07356126
v 0.66783679 0.09470255 0.07353113
v 0.65793604 0.11436627 0.05009606
v 0.68736422 0.09474245 0.07347127
v 0.68736422 0.09468245 0.07356126
v 0.69126421 0.09468245 0.07356126
v 0.66782421 0.09474245 0.07347127
v 0.67173421 0.09474245 0.07347127
v 0.67954421 0.09468245 0.07356126
v 0.67564422 0.09474245 0.07347127
v 0.72642422 0.05566245 -0.10229873
v 0.68345422 0.09474245 0.07347127
v 0.70298421 0.09468245 0.07356126
v 0.69907421 0.09468245 0.07356126
v 0.67954421 0.09474245 0.07347127
v 0.68345422 0.09468245 0.07356126
v 0.73423421 0.05561245 -0.10234873
v 0.73423421 0.05566245 -0.10229873
v 0.73814422 0.05561245 -0.10234873
v 0.71134907 0.06324531 -0.09366196
v 0.72251421 0.05566245 -0.10229873
v 0.71861422 0.05561245 -0.10234873
v 0.72251421 0.05561245 -0.10234873
v 0.72642422 0.05561245 -0.10234873
v 0.73837686 0.05563799 -0.10232315
v 0.68978846 0.07586159 0.09711184
v 0.69517422 0.09474245 0.07347127
v 0.69517422 0.09468245 0.07356126
v 0.69126421 0.09474245 0.07347127
v 0.71470422 0.09474245 0.07347127
v 0.71079421 0.09468245 0.07356126
v 0.71470422 0.09468245 0.07356126
v 0.71079421 0.09474245 0.07347127
v 0.70298421 0.09474245 0.07347127
v 0.63091421 0.13850006 -0.00513306
v 0.71470422 0.13764246 -0.00458873
v 0.71861422 0.09468245 0.07356126
v 0.70689422 0.09468245 0.07356126
v 0.70689422 0.09474245 0.07347127
v 0.69907421 0.09474245 0.07347127
v 0.71861422 0.13760245 -0.00463873
v 0.71861422 0.09474245 0.07347127
v 0.72251421 0.09474245 0.07347127
v 0.72642422 0.09474245 0.07347127
v 0.71861422 0.13764246 -0.00458873
v 0.73423421 0.13764246 -0.00458873
v 0.88083893 0.03850874 -0.10681041
v 0.73032421 0.05566245 -0.10229873
v 0.75235808 0.07286488 0.09941770
v 0.73032421 0.05561245 -0.10234873
v 0.70957220 0.03611849 -0.12558258
v 0.72642422 0.09468245 0.07356126
v 0.72251421 0.09468245 0.07356126
v 0.70359218 0.12144224 0.04164569
v 0.72528481 0.14854895 0.00881105
v 0.74204421 0.13764246 -0.00458873
v 0.73031545 0.09472253 0.07350117
v 0.71024770 0.12223620 -0.02319961
v 0.75767422 0.13760245 -0.00463873
v 0.75767422 0.13764246 -0.00458873
v 0.76157421 0.13760245 -0.00463873
v 0.73032421 0.09468245 0.07356126
v 0.72642422 0.13764246 -0.00458873
v 0.72642422 0.13760245 -0.00463873
v 0.74204421 0.13760245 -0.00463873
v 0.73814422 0.13760245 -0.00463873
v 0.73814422 0.13764246 -0.00458873
v 0.73423421 0.13760245 -0.00463873
v 0.72251421 0.13760245 -0.00463873
v 0.73032421 0.13760245 -0.00463873
v 0.74595422 0.13764246 -0.00458873
v 0.74595422 0.13760245 -0.00463873
v 0.73032421 0.13764246 -0.00458873
v 0.72251421 0.13764246 -0.00458873
v 0.74986422 0.13764246 -0.00458873
v 0.74986422 0.13760245 -0.00463873
v 0.76667482 0.09469175 0.07354688
v 0.84990013 0.04850885 0.12432444
v 0.79673421 0.13760245 -0.00463873
v 0.79673421 0.13764246 -0.00458873
v 0.80064422 0.13760245 -0.00463873
v 0.80064422 0.13764246 -0.00458873
v 0.78111422 0.13764246 -0.00458873
v 0.78111422 0.13760245 -0.00463873
v 0.77720422 0.13764246 -0.00458873
v 0.77720422 0.09474245 0.07347127
v 0.78111422 0.09468245 0.07356126
v 0.78111422 0.09474245 0.07347127
v 0.77720422 0.09470828 0.07352254
v 0.76157421 0.13764246 -0.00458873
v 0.75376421 0.13764246 -0.00458873
v 0.76548421 0.13760245 -0.00463873
v 0.77329421 0.13760245 -0.00463873
v 0.76939422 0.13760245 -0.00463873
v 0.76939422 0.13764246 -0.00458873
v 0.75376421 0.13760245 -0.00463873
v 0.77329421 0.13764246 -0.00458873
v 0.76548421 0.13764246 -0.00458873
v 0.77720422 0.13760245 -0.00463873
v 0.80845422 0.09474245 0.07347127
v 0.81236422 0.09474245 0.07347127
v 0.78501421 0.09474245 0.07347127
v 0.78892422 0.09474245 0.07347127
v 0.80845422 0.09468245 0.07356126
v 0.80845422 0.13760245 -0.00463873
v 0.78892422 0.13764246 -0.00458873
v 0.77661306 0.09898658 0.06842086
v 0.78501421 0.13764246 -0.00458873
v 0.80454421 0.09468245 0.07356126
v 0.80064422 0.09474245 0.07347127
v 0.80454421 0.09474245 0.07347127
v 0.78501421 0.13760245 -0.00463873
v 0.78697145 0.09467885 0.07356567
v 0.79282421 0.13764246 -0.00458873
v 0.78892422 0.13760245 -0.00463873
v 0.80062801 0.09470828 0.07352254
v 0.78501421 0.09468245 0.07356126
v 0.79373062 0.07577324 0.09626011
v 0.78747183 0.14862971 0.00915380
v 0.81236422 0.09468245 0.07356126
v 0.81626421 0.09468245 0.07356126
v 0.81236422 0.13764246 -0.00458873
v 0.79282421 0.13760245 -0.00463873
v 0.80454421 0.13760245 -0.00463873
v 0.80454421 0.13764246 -0.00458873
v 0.80845422 0.13764246 -0.00458873
v 0.81236422 0.13760245 -0.00463873
v 0.91006011 0.08204807 0.09003616
v 0.78383380 0.11878260 -0.02707132
v 0.82407421 0.09468245 0.07356126
v 0.82798421 0.09468245 0.07356126
v 0.86910588 0.09474552 0.07346786
v 0.82022238 0.13760687 -0.00463325
v 0.81626421 0.13764246 -0.00458873
v 0.82017422 0.09468245 0.07356126
v 0.80832207 0.11684653 0.04713737
v 0.83100039 0.11993196 -0.02570276
v 0.81626421 0.09474245 0.07347127
v 0.83970422 0.09468245 0.07356126
v 0.83579421 0.09474245 0.07347127
v 0.83189422 0.09468245 0.07356126
v 0.84361422 0.09474245 0.07347127
v 0.84361422 0.09468245 0.07356126
v 0.84751421 0.09468245 0.07356126
v 0.82017422 0.09474245 0.07347127
v 0.82407421 0.09474245 0.07347127
v 0.83579421 0.09468245 0.07356126
v 0.83189422 0.09474245 0.07347127
v 0.83970422 0.09474245 0.07347127
v 0.82017422 0.13760245 -0.00463873
v 0.82798421 0.09474245 0.07347127
v 0.85923421 0.09474245 0.07347127
v 0.85142422 0.09468245 0.07356126
v 0.90512818 0.14866686 0.00901931
v 0.81626421 0.13760245 -0.00463873
v 0.84751421 0.09474245 0.07347127
v 0.85142422 0.09474245 0.07347127
v 0.85532421 0.09468245 0.07356126
v 0.86314422 0.09474245 0.07347127
v 0.85532421 0.09474245 0.07347127
v 0.85923421 0.09468245 0.07356126
v 0.86314422 0.09468245 0.07356126
v 0.86704421 0.09468245 0.07356126
v 0.84646714 0.11477440 0.04961093
v 0.87389624 0.06962992 0.10481840
v 0.93736422 0.09474245 0.07347127
v 0.93736619 0.13762195 -0.00461438
v 0.93345422 0.13764246 -0.00458873
v 0.93345422 0.13760245 -0.00463873
v 0.92954421 0.13764246 -0.00458873
v 0.93736422 0.13760245 -0.00463873
v 0.98580366 0.14419153 0.00811062
v 0.94230890 0.12512803 -0.01953652
v 0.94907421 0.09468245 0.07356126
v 0.94907421 0.09474245 0.07347127
v 0.94517422 0.09468245 0.07356126
v 0.94517422 0.09474245 0.07347127
v 0.97034740 0.05532712 0.12658569
v 0.93176985 0.09862631 0.06878550
v 0.94126421 0.09468245 0.07356126
v 0.94126421 0.09474245 0.07347127
v 0.80647588 -0.00482707 0.14879633
f 1 2 3
f 7 8 9
f 13 14 15
f 9 8 4
f 18 17 37
f 19 20 21
f 11 22 23
f 24 25 10
f 26 27 13
f 29 30 26
f 32 33 34
f 35 36 55
f 38 30 29
f 30 38 10
f 5 24 10
f 39 35 55
f 40 41 42
f 43 44 37
f 44 41 37
f 14 27 37
f 20 46 21
f 22 12 10
f 48 6 28
f 32 14 37
f 49 50 51
f 14 32 15
f 26 13 28
f 21 46 39
f 41 44 52
f 17 18 35
f 35 18 36
f 48 5 6
f 15 32 34
f 6 54 28
f 34 33 56
f 42 41 52
f 57 58 31
f 23 9 11
f 23 7 9
f 16 59 48
f 11 59 16
f 8 7 10
f 28 34 56
f 24 5 48
f 4 25 59
f 12 11 65
f 12 65 47
f 12 47 232
f 56 42 55
f 22 7 23
f 43 20 19
f 12 22 11
f 59 24 48
f 56 40 42
f 4 59 11
f 30 27 26
f 25 24 59
f 25 8 10
f 8 25 4
f 5 62 6
f 62 38 54
f 7 22 10
f 9 4 11
f 27 14 13
f 52 44 61
f 33 40 56
f 65 11 16
f 15 34 28
f 6 62 54
f 13 15 28
f 27 10 37
f 54 29 28
f 46 17 39
f 17 46 37
f 29 26 28
f 40 33 37
f 18 1 36
f 16 48 28
f 62 5 10
f 61 43 19
f 27 30 10
f 38 62 10
f 33 32 37
f 54 38 29
f 42 52 55
f 52 61 55
f 16 28 65
f 20 43 37
f 36 1 3
f 28 56 55
f 44 43 61
f 19 21 55
f 58 45 31
f 41 40 37
f 161 63 64
f 1 18 37
f 39 17 35
f 21 39 55
f 65 55 31
f 65 28 55
f 55 61 19
f 57 60 58
f 3 2 57
f 46 20 37
f 60 37 45
f 2 1 37
f 2 60 57
f 55 36 31
f 36 3 31
f 60 2 37
f 3 57 31
f 60 45 58
f 45 37 31
f 47 65 53
f 79 53 66
f 67 68 175
f 69 70 71
f 161 72 73
f 74 66 75
f 10 76 37
f 78 74 75
f 37 76 31
f 74 79 66
f 116 74 78
f 80 81 82
f 78 75 83
f 116 79 74
f 84 83 85
f 31 77 53
f 193 53 65
f 75 53 83
f 79 116 47
f 31 76 77
f 47 53 79
f 75 66 53
f 86 87 88
f 53 65 31
f 116 87 86
f 69 71 91
f 72 92 93
f 94 95 96
f 97 93 143
f 124 65 53
f 53 193 124
f 99 98 77
f 100 101 102
f 103 76 104
f 10 12 76
f 105 106 107
f 70 108 71
f 109 193 110
f 82 84 85
f 116 232 47
f 88 77 76
f 84 78 83
f 113 88 76
f 87 114 115
f 115 77 88
f 114 99 115
f 83 53 85
f 82 85 80
f 117 116 111
f 78 84 116
f 116 117 114
f 111 116 81
f 118 77 98
f 82 116 84
f 81 80 118
f 85 53 77
f 80 85 77
f 111 118 98
f 111 81 118
f 82 81 116
f 86 88 113
f 80 77 118
f 116 114 87
f 117 111 98
f 117 98 99
f 114 117 99
f 99 77 115
f 87 115 88
f 119 120 193
f 121 122 123
f 77 193 76
f 193 77 53
f 77 76 193
f 193 53 77
f 121 109 110
f 71 108 143
f 161 94 125
f 126 127 128
f 129 130 131
f 132 133 122
f 134 120 135
f 193 120 134
f 131 136 193
f 193 65 412
f 137 123 138
f 139 140 103
f 86 113 140
f 161 69 141
f 161 49 142
f 12 232 76
f 232 144 145
f 64 147 148
f 149 275 150
f 140 113 103
f 151 152 112
f 153 154 155
f 126 156 127
f 158 159 160
f 76 232 161
f 152 162 112
f 163 108 70
f 241 232 116
f 137 121 123
f 137 109 121
f 165 241 139
f 135 131 133
f 151 241 152
f 165 104 162
f 162 104 76
f 113 76 103
f 133 193 122
f 166 167 175
f 139 103 104
f 167 76 175
f 168 166 169
f 116 86 140
f 152 165 162
f 140 139 116
f 171 169 172
f 130 136 131
f 165 152 241
f 173 174 130
f 193 174 119
f 104 165 139
f 241 116 139
f 162 76 112
f 168 167 166
f 241 168 169
f 241 151 168
f 171 172 164
f 168 151 167
f 112 76 167
f 151 112 167
f 241 169 171
f 169 166 172
f 166 175 172
f 172 175 164
f 176 177 178
f 179 177 176
f 177 138 178
f 176 178 180
f 181 182 183
f 122 193 123
f 129 135 120
f 129 131 135
f 174 173 119
f 184 213 185
f 129 173 130
f 119 173 129
f 131 193 133
f 132 121 110
f 122 121 132
f 134 132 110
f 119 129 120
f 132 135 133
f 134 135 132
f 174 136 130
f 174 193 136
f 161 232 145
f 186 187 188
f 189 190 191
f 134 110 193
f 123 193 138
f 178 193 180
f 109 192 193
f 138 193 178
f 193 192 179
f 109 137 192
f 137 177 192
f 177 137 138
f 177 179 192
f 180 193 213
f 175 193 412
f 241 194 170
f 96 95 90
f 175 124 193
f 72 93 73
f 163 197 198
f 213 183 218
f 199 175 68
f 196 189 191
f 64 63 147
f 171 201 241
f 202 164 175
f 203 204 175
f 73 93 97
f 202 175 205
f 199 206 175
f 207 208 241
f 189 188 190
f 142 51 187
f 208 207 205
f 209 176 210
f 176 180 210
f 201 171 164
f 170 211 212
f 214 215 216
f 217 218 182
f 219 208 204
f 201 164 202
f 196 186 189
f 76 196 175
f 221 170 212
f 179 176 209
f 219 241 208
f 156 222 127
f 207 241 201
f 207 201 202
f 207 202 205
f 219 223 241
f 223 219 203
f 208 205 204
f 224 184 185
f 205 175 204
f 219 204 203
f 212 211 175
f 181 193 209
f 241 223 194
f 217 185 218
f 203 175 220
f 241 170 221
f 220 175 211
f 194 220 211
f 194 223 220
f 223 203 220
f 182 218 183
f 194 211 170
f 221 212 225
f 212 175 225
f 210 180 184
f 193 183 213
f 226 227 68
f 181 224 182
f 224 210 184
f 181 210 224
f 180 213 184
f 101 228 102
f 229 96 90
f 230 175 231
f 147 229 90
f 209 210 181
f 224 217 182
f 224 185 217
f 193 181 183
f 193 179 209
f 213 193 175
f 161 197 163
f 233 191 234
f 195 233 235
f 185 213 218
f 193 213 175
f 161 145 236
f 226 68 67
f 237 230 231
f 125 96 229
f 221 225 238
f 145 144 146
f 189 186 188
f 94 236 95
f 161 125 63
f 125 229 63
f 239 105 240
f 163 198 108
f 63 229 147
f 197 64 148
f 161 236 94
f 161 105 239
f 161 239 49
f 125 94 96
f 239 240 50
f 106 73 97
f 106 97 107
f 161 64 197
f 196 101 100
f 161 106 105
f 105 107 240
f 143 92 91
f 236 145 146
f 141 69 91
f 236 146 95
f 175 158 260
f 239 50 49
f 196 233 195
f 141 91 92
f 196 100 156
f 216 215 242
f 238 225 206
f 161 73 106
f 197 148 198
f 161 141 72
f 107 97 143
f 144 232 200
f 161 70 69
f 191 190 234
f 243 285 244
f 199 227 245
f 246 247 175
f 72 141 92
f 196 191 233
f 89 216 242
f 195 235 248
f 196 195 214
f 161 163 70
f 214 248 215
f 233 234 235
f 186 142 187
f 196 89 101
f 148 147 90
f 196 159 158
f 143 108 90
f 242 215 261
f 196 161 186
f 76 161 196
f 146 144 90
f 101 89 228
f 214 195 248
f 249 250 268
f 196 214 216
f 262 232 268
f 161 142 186
f 142 49 51
f 100 102 222
f 268 227 226
f 226 253 268
f 100 222 156
f 225 175 206
f 245 238 206
f 241 221 238
f 196 156 126
f 89 242 228
f 196 126 159
f 241 268 232
f 159 128 160
f 196 216 89
f 238 245 241
f 159 126 128
f 158 160 260
f 245 206 199
f 227 241 245
f 230 67 175
f 249 231 255
f 227 199 68
f 187 51 252
f 247 255 175
f 196 158 175
f 67 253 226
f 237 268 253
f 249 237 231
f 249 268 237
f 227 268 241
f 231 175 255
f 253 67 230
f 237 253 230
f 247 250 255
f 250 249 255
f 90 198 148
f 275 246 175
f 258 259 246
f 124 412 65
f 108 198 90
f 90 144 200
f 95 146 90
f 93 92 143
f 252 240 143
f 124 90 200
f 252 188 187
f 234 190 261
f 124 143 90
f 240 107 143
f 264 265 285
f 261 248 235
f 258 263 259
f 259 268 266
f 51 50 252
f 259 285 268
f 252 50 240
f 235 234 261
f 215 248 261
f 91 71 143
f 124 252 143
f 269 270 285
f 149 258 275
f 261 190 252
f 127 222 251
f 190 188 252
f 124 200 275
f 228 242 261
f 273 274 285
f 251 160 128
f 259 263 285
f 102 228 261
f 251 102 261
f 266 250 247
f 222 102 251
f 128 127 251
f 260 160 251
f 261 260 251
f 250 266 268
f 252 124 261
f 261 124 260
f 246 259 266
f 264 285 263
f 244 285 254
f 254 265 157
f 265 264 150
f 266 247 246
f 275 258 246
f 263 258 149
f 264 263 149
f 264 149 150
f 276 275 277
f 254 157 276
f 256 278 270
f 254 285 265
f 276 157 275
f 244 254 276
f 265 150 157
f 150 275 157
f 244 276 277
f 277 243 244
f 280 274 281
f 124 175 260
f 274 282 281
f 275 175 279
f 124 275 279
f 279 175 412
f 270 283 256
f 200 232 154
f 280 285 274
f 275 200 154
f 278 285 270
f 272 315 317
f 262 154 232
f 283 257 275
f 269 257 283
f 273 286 282
f 287 284 288
f 287 289 284
f 257 243 277
f 257 277 275
f 283 275 256
f 291 287 288
f 269 243 257
f 282 275 281
f 262 268 285
f 243 269 285
f 285 278 273
f 290 285 280
f 270 269 283
f 289 290 280
f 274 273 282
f 256 275 286
f 280 281 289
f 282 286 275
f 278 256 286
f 273 278 286
f 281 275 284
f 281 284 289
f 291 285 290
f 290 289 287
f 291 290 287
f 279 275 284
f 293 294 279
f 284 275 279
f 295 279 296
f 292 297 279
f 298 297 292
f 295 293 299
f 279 299 298
f 293 300 294
f 293 295 300
f 300 295 296
f 293 297 299
f 279 297 293
f 295 299 279
f 300 296 294
f 297 298 299
f 279 294 296
f 302 303 304
f 272 317 305
f 307 306 308
f 309 310 311
f 284 275 154
f 308 306 284
f 291 288 312
f 307 305 262
f 285 291 262
f 313 279 314
f 308 305 307
f 262 291 312
f 307 262 312
f 305 308 272
f 288 284 306
f 317 262 305
f 307 312 306
f 312 288 306
f 272 284 315
f 308 284 272
f 316 292 301
f 292 279 301
f 315 284 279
f 298 292 316
f 318 313 314
f 313 301 279
f 318 301 313
f 316 301 318
f 318 314 279
f 279 316 318
f 298 316 279
f 319 517 320
f 321 322 323
f 324 321 325
f 339 326 327
f 124 279 412
f 328 329 330
f 326 331 332
f 327 326 333
f 339 336 337
f 340 341 342
f 343 337 344
f 339 345 335
f 339 309 311
f 335 345 347
f 154 339 284
f 317 154 262
f 325 323 315
f 324 348 321
f 349 348 324
f 321 323 325
f 350 351 352
f 348 349 322
f 322 315 323
f 315 322 349
f 348 322 321
f 406 340 353
f 406 354 340
f 355 356 357
f 325 315 361
f 328 327 329
f 362 361 363
f 326 332 333
f 365 315 366
f 367 368 369
f 339 327 328
f 370 315 391
f 339 338 331
f 371 392 315
f 154 317 445
f 372 373 374
f 375 376 377
f 378 364 412
f 445 317 315
f 374 315 376
f 372 380 373
f 365 380 372
f 381 366 315
f 372 382 383
f 372 374 382
f 349 324 379
f 284 315 279
f 361 315 363
f 362 384 361
f 362 381 384
f 381 362 366
f 385 386 387
f 362 380 366
f 362 363 380
f 363 315 373
f 379 324 384
f 324 325 384
f 382 388 383
f 385 377 370
f 384 325 361
f 380 363 373
f 365 372 383
f 311 310 389
f 365 383 315
f 345 330 347
f 382 374 376
f 381 379 384
f 381 315 379
f 390 385 370
f 386 385 390
f 375 385 387
f 377 385 375
f 376 315 377
f 349 379 315
f 388 375 387
f 365 366 380
f 373 315 374
f 375 382 376
f 375 388 382
f 390 370 391
f 377 315 370
f 315 383 388
f 391 392 393
f 315 387 386
f 388 387 315
f 279 315 412
f 338 153 394
f 153 155 394
f 339 154 153
f 367 369 395
f 360 396 359
f 339 153 338
f 309 334 397
f 398 396 360
f 339 335 334
f 399 400 401
f 327 333 329
f 339 331 326
f 302 304 402
f 331 403 332
f 368 389 369
f 334 404 397
f 339 367 398
f 406 400 399
f 354 346 341
f 339 311 368
f 406 355 351
f 334 335 404
f 338 394 403
f 309 397 310
f 338 403 331
f 315 284 406
f 337 336 408
f 339 328 345
f 155 154 407
f 339 334 309
f 328 330 345
f 339 368 367
f 339 303 302
f 358 396 395
f 339 343 303
f 335 347 404
f 398 367 395
f 368 311 389
f 398 395 396
f 336 360 359
f 399 401 410
f 351 355 357
f 339 337 343
f 339 302 406
f 400 302 402
f 406 411 354
f 394 155 407
f 336 359 408
f 389 310 358
f 339 360 336
f 406 353 355
f 343 409 303
f 406 302 400
f 304 409 417
f 343 344 409
f 337 408 344
f 406 351 350
f 339 398 360
f 400 402 401
f 303 409 304
f 359 396 358
f 353 342 356
f 350 352 413
f 399 410 411
f 353 356 355
f 406 399 411
f 411 410 346
f 354 411 346
f 341 346 417
f 353 340 342
f 339 406 284
f 340 354 341
f 378 350 413
f 406 350 378
f 351 357 352
f 378 413 364
f 393 390 391
f 391 315 392
f 358 310 405
f 386 390 393
f 315 406 412
f 406 378 412
f 414 415 416
f 393 392 371
f 409 344 417
f 315 386 371
f 371 386 393
f 315 279 412
f 402 304 417
f 395 369 358
f 405 332 407
f 405 329 333
f 330 329 405
f 333 332 405
f 332 403 407
f 403 394 407
f 347 330 405
f 310 397 405
f 364 341 417
f 369 389 358
f 397 404 405
f 404 347 405
f 407 445 427
f 408 359 358
f 417 344 358
f 344 408 358
f 364 342 341
f 417 410 401
f 401 402 417
f 346 410 417
f 364 352 357
f 412 405 407
f 357 356 364
f 356 342 364
f 413 352 364
f 412 364 417
f 358 412 417
f 427 412 407
f 405 412 358
f 418 419 414
f 415 414 419
f 412 427 436
f 445 315 412
f 436 416 421
f 154 445 407
f 436 418 416
f 418 427 419
f 436 421 420
f 421 423 420
f 424 425 420
f 421 415 423
f 427 418 436
f 418 414 416
f 415 419 423
f 416 415 421
f 419 424 423
f 427 447 419
f 425 424 426
f 428 429 430
f 425 426 431
f 424 420 423
f 432 433 422
f 428 430 434
f 426 419 429
f 420 425 436
f 435 422 419
f 436 434 432
f 436 425 431
f 426 429 431
f 431 429 428
f 434 433 432
f 436 428 434
f 426 424 419
f 433 430 419
f 430 429 419
f 430 433 434
f 436 431 428
f 433 419 422
f 436 432 435
f 432 422 435
f 436 435 447
f 435 419 447
f 436 427 445
f 412 436 447
f 427 436 447
f 445 412 447
f 447 436 445
f 673 438 439
f 440 441 442
f 445 447 453
f 445 448 447
f 448 445 453
f 445 446 448
f 445 448 446
f 271 517 319
f 448 446 447
f 712 440 442
f 450 451 452
f 446 453 447
f 454 455 464
f 456 457 458
f 459 460 451
f 470 461 462
f 448 453 446
f 465 466 464
f 455 453 464
f 462 454 466
f 448 453 467
f 470 448 467
f 467 455 461
f 470 467 461
f 467 453 455
f 471 465 472
f 482 473 474
f 460 463 505
f 475 452 476
f 470 471 469
f 452 451 505
f 461 454 462
f 477 478 479
f 459 451 450
f 462 466 481
f 505 470 482
f 470 462 481
f 476 452 505
f 463 448 505
f 530 459 450
f 448 463 530
f 470 469 484
f 530 450 475
f 463 460 459
f 530 463 459
f 450 452 475
f 451 460 505
f 474 485 486
f 485 483 464
f 454 464 466
f 470 505 448
f 481 466 465
f 481 465 471
f 484 480 483
f 461 455 454
f 472 465 464
f 473 483 485
f 471 472 469
f 470 481 471
f 469 472 480
f 484 483 473
f 482 484 473
f 469 480 484
f 485 464 486
f 482 470 484
f 473 485 474
f 472 464 480
f 474 486 487
f 483 480 464
f 482 474 487
f 488 489 490
f 482 491 492
f 530 493 456
f 496 476 497
f 457 498 505
f 493 495 498
f 499 500 505
f 476 505 497
f 448 530 628
f 500 497 505
f 530 502 494
f 502 499 503
f 487 486 504
f 453 448 628
f 493 498 456
f 506 497 500
f 494 503 495
f 491 507 492
f 503 499 505
f 494 495 493
f 505 477 479
f 530 494 493
f 530 456 458
f 491 509 507
f 447 464 453
f 504 486 464
f 501 500 499
f 509 504 464
f 530 506 501
f 530 475 496
f 475 476 496
f 501 499 502
f 530 501 502
f 496 497 506
f 530 496 506
f 506 500 501
f 503 505 495
f 498 495 505
f 502 503 494
f 479 478 508
f 512 504 509
f 447 453 628
f 456 498 457
f 458 457 511
f 511 457 505
f 512 509 491
f 482 512 491
f 505 492 477
f 509 464 507
f 478 535 508
f 513 489 488
f 487 504 512
f 492 507 514
f 492 514 477
f 482 487 512
f 514 507 464
f 505 482 492
f 479 508 513
f 513 508 489
f 505 488 510
f 505 479 513
f 505 513 488
f 490 489 535
f 514 464 535
f 478 514 535
f 488 490 510
f 489 508 535
f 477 514 478
f 446 628 530
f 516 511 518
f 518 511 573
f 573 520 521
f 563 522 573
f 519 523 522
f 530 524 519
f 446 530 628
f 525 526 527
f 563 573 628
f 528 518 529
f 526 529 573
f 525 529 526
f 527 526 531
f 532 533 515
f 530 527 534
f 537 522 563
f 538 535 539
f 573 541 542
f 458 511 516
f 530 516 528
f 530 458 516
f 528 529 525
f 543 544 535
f 524 523 519
f 516 518 528
f 531 526 573
f 531 573 536
f 530 525 527
f 530 528 525
f 534 531 536
f 529 518 573
f 511 505 573
f 522 523 573
f 527 531 534
f 530 534 524
f 534 536 524
f 530 519 537
f 524 536 523
f 523 536 573
f 519 522 537
f 545 546 541
f 532 515 545
f 490 535 533
f 545 515 546
f 547 538 548
f 510 533 532
f 510 490 533
f 546 515 535
f 573 547 548
f 541 544 542
f 573 545 541
f 541 546 544
f 573 532 545
f 573 505 532
f 505 510 532
f 515 533 535
f 546 535 544
f 538 543 535
f 547 543 538
f 520 539 550
f 573 548 520
f 548 539 520
f 542 543 547
f 542 544 543
f 573 542 547
f 548 538 539
f 550 539 535
f 566 573 521
f 520 550 521
f 552 553 554
f 464 447 535
f 447 540 535
f 444 438 557
f 562 550 535
f 530 537 563
f 564 565 549
f 567 553 552
f 628 573 566
f 553 568 540
f 569 540 570
f 530 563 628
f 568 565 540
f 571 570 572
f 549 565 568
f 566 564 549
f 521 562 564
f 567 568 553
f 562 535 565
f 566 574 571
f 566 521 564
f 549 568 567
f 574 569 571
f 564 562 565
f 565 535 540
f 566 567 552
f 575 554 551
f 521 550 562
f 566 549 567
f 566 575 574
f 574 551 569
f 552 554 575
f 569 551 540
f 553 540 554
f 571 569 570
f 566 552 575
f 575 551 574
f 566 571 572
f 551 554 540
f 560 446 632
f 439 577 673
f 446 447 628
f 447 628 704
f 704 447 558
f 540 447 704
f 555 581 582
f 446 628 447
f 583 559 584
f 584 585 586
f 587 588 589
f 572 556 590
f 585 559 540
f 628 584 586
f 592 593 540
f 594 556 540
f 572 570 556
f 586 595 596
f 597 592 598
f 628 596 599
f 590 594 583
f 556 570 540
f 566 572 590
f 628 566 590
f 590 556 594
f 628 586 596
f 628 590 583
f 628 583 584
f 583 594 559
f 584 559 585
f 596 595 591
f 597 593 592
f 594 540 559
f 596 591 599
f 599 591 593
f 628 599 597
f 595 585 540
f 593 591 540
f 586 585 595
f 595 540 591
f 599 593 597
f 628 597 598
f 601 602 603
f 447 704 449
f 634 632 578
f 576 604 673
f 606 630 607
f 608 609 610
f 446 560 628
f 588 611 630
f 612 588 587
f 613 600 267
f 600 613 614
f 446 628 560
f 589 630 615
f 612 611 588
f 628 612 587
f 618 589 615
f 628 619 620
f 628 618 622
f 618 615 622
f 616 615 630
f 592 540 611
f 589 588 630
f 598 592 611
f 628 622 619
f 624 623 625
f 540 630 611
f 628 598 612
f 628 620 624
f 598 611 612
f 626 616 630
f 628 587 618
f 620 626 623
f 587 589 618
f 626 630 623
f 625 623 630
f 622 615 616
f 628 624 629
f 654 628 629
f 620 623 624
f 622 616 619
f 624 625 629
f 619 626 620
f 619 616 626
f 630 540 704
f 631 444 267
f 444 631 438
f 633 634 578
f 673 635 605
f 558 447 449
f 636 637 638
f 605 614 673
f 631 639 439
f 639 631 267
f 673 614 557
f 643 644 645
f 640 604 576
f 629 606 617
f 647 646 437
f 646 647 648
f 628 560 704
f 650 651 683
f 654 652 653
f 652 650 653
f 655 649 656
f 650 683 649
f 629 625 606
f 560 580 658
f 642 651 652
f 617 607 642
f 654 653 655
f 560 628 654
f 617 606 607
f 653 649 655
f 654 643 645
f 642 607 651
f 560 645 580
f 654 642 652
f 645 659 580
f 654 617 642
f 644 683 659
f 654 629 617
f 652 651 650
f 651 607 683
f 607 630 683
f 606 625 630
f 645 644 659
f 653 650 649
f 644 656 683
f 655 656 643
f 654 655 643
f 643 656 644
f 560 654 645
f 656 649 683
f 683 630 704
f 442 663 664
f 632 446 560
f 673 604 641
f 637 558 638
f 579 600 605
f 600 579 267
f 438 631 439
f 600 614 605
f 667 702 668
f 668 702 669
f 579 633 267
f 633 579 635
f 657 704 558
f 648 647 603
f 671 702 555
f 666 637 636
f 637 657 558
f 657 637 666
f 666 636 672
f 639 577 439
f 673 609 576
f 614 613 557
f 674 711 673
f 580 659 675
f 676 601 808
f 601 676 602
f 677 678 679
f 632 634 673
f 560 677 679
f 560 679 681
f 679 678 682
f 682 678 683
f 657 670 621
f 684 683 678
f 560 658 677
f 675 659 683
f 684 675 683
f 677 684 678
f 658 675 684
f 658 684 677
f 580 675 658
f 681 686 685
f 686 683 680
f 679 682 681
f 683 660 680
f 685 680 660
f 686 682 683
f 683 704 660
f 560 681 685
f 685 686 680
f 681 682 686
f 560 685 660
f 560 660 704
f 691 689 688
f 691 688 687
f 613 444 557
f 444 613 267
f 690 639 267
f 639 690 577
f 690 267 437
f 633 635 634
f 557 438 673
f 633 578 267
f 610 609 673
f 704 560 632
f 692 693 694
f 695 640 437
f 640 695 604
f 696 320 697
f 647 601 603
f 601 647 808
f 700 712 696
f 698 661 271
f 582 581 703
f 635 579 605
f 712 443 696
f 661 449 271
f 609 707 576
f 708 667 709
f 673 648 603
f 634 635 673
f 707 640 576
f 640 707 437
f 700 713 627
f 449 632 673
f 449 704 632
f 697 713 700
f 320 517 697
f 698 271 319
f 627 713 699
f 443 320 696
f 713 517 699
f 698 712 661
f 714 715 716
f 697 517 713
f 698 319 443
f 319 320 443
f 696 697 700
f 449 517 271
f 699 441 440
f 627 699 440
f 699 517 441
f 443 712 698
f 712 700 627
f 440 712 627
f 663 517 671
f 703 581 706
f 712 664 718
f 695 646 641
f 646 695 437
f 604 695 641
f 690 608 610
f 608 690 437
f 641 648 673
f 577 690 610
f 707 608 437
f 608 707 609
f 673 577 610
f 647 437 808
f 646 648 641
f 603 602 673
f 673 602 674
f 676 808 674
f 267 756 437
f 720 561 703
f 706 715 720
f 709 667 705
f 714 561 720
f 581 702 706
f 718 555 582
f 664 671 718
f 582 712 718
f 671 517 702
f 706 702 715
f 663 671 664
f 441 517 663
f 517 449 702
f 665 710 719
f 442 441 663
f 703 706 720
f 718 671 555
f 555 702 581
f 561 665 719
f 716 702 710
f 715 702 716
f 714 716 665
f 716 710 665
f 720 715 714
f 561 582 703
f 561 712 582
f 665 561 714
f 664 712 442
f 708 702 667
f 709 561 719
f 602 676 674
f 808 711 674
f 711 662 673
f 578 632 267
f 808 662 711
f 449 691 687
f 710 702 708
f 705 668 721
f 449 687 702
f 719 708 709
f 561 709 705
f 719 710 708
f 705 667 668
f 668 669 721
f 669 702 721
f 721 702 687
f 721 561 705
f 673 662 449
f 621 724 638
f 743 752 722
f 779 725 726
f 672 636 724
f 449 662 691
f 723 727 728
f 729 730 722
f 732 733 722
f 733 743 722
f 734 732 730
f 735 732 734
f 657 666 670
f 694 693 736
f 662 743 691
f 737 729 738
f 737 735 729
f 636 638 724
f 672 724 670
f 666 672 670
f 670 724 621
f 558 621 638
f 621 558 717
f 657 621 717
f 657 717 704
f 741 742 739
f 742 741 731
f 691 737 731
f 691 735 737
f 727 732 728
f 733 732 727
f 732 722 730
f 741 744 745
f 744 741 739
f 731 741 745
f 691 723 728
f 743 723 691
f 723 743 733
f 727 723 733
f 735 728 732
f 691 728 735
f 752 738 729
f 735 734 729
f 734 730 729
f 742 752 739
f 738 742 731
f 737 738 731
f 742 738 752
f 691 731 745
f 747 748 746
f 749 748 747
f 750 747 746
f 747 750 749
f 691 745 749
f 688 751 752
f 749 750 689
f 750 752 751
f 750 746 752
f 704 743 560
f 752 729 722
f 744 752 746
f 744 739 752
f 748 744 746
f 744 748 745
f 749 745 748
f 688 689 751
f 688 752 687
f 689 750 751
f 691 749 689
f 632 756 267
f 661 712 791
f 736 693 754
f 561 791 712
f 721 791 561
f 791 721 687
f 754 693 692
f 558 806 692
f 753 757 692
f 704 717 779
f 558 692 717
f 717 694 736
f 779 717 736
f 717 692 694
f 758 759 806
f 692 755 753
f 756 632 560
f 449 661 791
f 437 756 808
f 779 761 762
f 766 757 765
f 757 753 765
f 757 754 692
f 701 755 692
f 767 701 692
f 779 766 765
f 761 755 762
f 768 692 769
f 768 767 692
f 726 760 770
f 754 757 766
f 779 762 771
f 701 767 771
f 779 736 766
f 736 754 766
f 755 701 762
f 753 755 761
f 765 753 761
f 779 765 761
f 767 768 764
f 762 701 771
f 779 771 764
f 771 767 764
f 764 768 725
f 779 764 725
f 743 662 752
f 743 756 560
f 806 558 756
f 756 743 704
f 770 772 773
f 775 776 777
f 778 704 779
f 777 776 779
f 752 756 687
f 468 780 781
f 780 777 782
f 781 782 783
f 468 704 778
f 783 782 779
f 784 785 786
f 775 778 776
f 778 779 776
f 468 778 775
f 780 775 777
f 781 780 782
f 787 781 783
f 775 780 468
f 468 781 787
f 782 777 779
f 772 760 806
f 806 759 788
f 791 763 806
f 725 768 769
f 726 769 760
f 772 788 773
f 769 726 725
f 788 772 806
f 759 758 789
f 769 692 806
f 760 769 806
f 790 759 789
f 763 758 806
f 752 662 756
f 779 770 773
f 773 788 790
f 779 726 770
f 779 791 756
f 760 772 770
f 779 790 789
f 779 789 791
f 779 773 790
f 788 759 790
f 758 763 791
f 789 758 791
f 756 793 740
f 785 792 779
f 791 687 756
f 794 795 740
f 784 796 785
f 792 783 779
f 798 799 795
f 800 786 801
f 787 783 792
f 796 787 792
f 796 792 785
f 802 800 801
f 797 802 803
f 787 796 468
f 800 784 786
f 468 796 784
f 468 784 800
f 798 804 468
f 786 785 779
f 800 802 468
f 786 779 740
f 801 786 740
f 799 803 740
f 802 801 803
f 804 798 795
f 468 802 797
f 797 803 799
f 798 797 799
f 468 797 798
f 803 801 740
f 468 804 805
f 804 795 794
f 805 804 794
f 795 799 740
f 558 449 756
f 805 794 807
f 774 807 809
f 468 810 793
f 793 811 740
f 793 810 811
f 740 779 756
f 774 805 807
f 468 793 756
f 704 468 756
f 811 809 740
f 810 774 809
f 809 807 740
f 468 805 774
f 774 810 468
f 807 794 740
f 810 809 811
f 791 806 756
f 791 756 449
f 808 756 662
f 813 814 838
f 756 847 832
f 847 756 815
f 816 817 818
f 819 813 820
f 813 812 820
f 812 821 822
f 815 820 822
f 866 824 816
f 825 826 838
f 822 821 827
f 815 827 824
f 817 828 838
f 813 838 812
f 821 838 828
f 821 812 838
f 829 830 831
f 815 756 814
f 859 847 870
f 815 814 819
f 815 819 820
f 756 838 814
f 814 813 819
f 815 822 827
f 820 812 822
f 828 817 824
f 821 828 827
f 827 828 824
f 866 815 824
f 824 817 816
f 815 866 847
f 832 823 833
f 756 832 863
f 863 832 834
f 863 835 836
f 817 838 818
f 840 838 826
f 866 816 841
f 843 844 845
f 845 844 842
f 870 847 848
f 840 818 838
f 816 818 841
f 840 826 839
f 849 844 838
f 825 838 850
f 843 850 838
f 843 838 844
f 866 846 851
f 818 840 841
f 866 839 852
f 866 841 839
f 852 825 846
f 841 840 839
f 844 849 842
f 851 843 845
f 866 845 842
f 853 870 848
f 866 842 854
f 839 826 852
f 866 852 846
f 826 825 852
f 825 850 846
f 866 851 845
f 846 850 851
f 850 843 851
f 842 849 854
f 866 855 856
f 857 848 867
f 847 866 867
f 848 857 853
f 847 867 848
f 831 830 837
f 832 860 823
f 756 859 994
f 863 829 831
f 994 832 756
f 836 823 862
f 836 833 823
f 863 862 829
f 756 863 859
f 863 834 835
f 864 865 838
f 863 831 837
f 860 832 830
f 836 835 833
f 834 832 833
f 835 834 833
f 829 860 830
f 829 862 860
f 859 837 832
f 863 836 862
f 837 830 832
f 862 823 860
f 859 863 837
f 994 838 832
f 869 861 867
f 861 838 994
f 832 847 859
f 756 832 838
f 871 872 873
f 849 838 865
f 864 838 874
f 864 874 856
f 855 864 856
f 854 849 865
f 869 874 861
f 874 838 861
f 877 878 879
f 858 878 880
f 854 865 855
f 867 866 869
f 865 864 855
f 866 854 855
f 856 874 869
f 866 856 869
f 861 931 867
f 881 870 853
f 868 883 884
f 880 882 885
f 881 876 870
f 877 870 878
f 867 883 868
f 875 886 867
f 858 880 885
f 877 868 884
f 867 886 857
f 868 879 867
f 875 876 886
f 876 881 886
f 867 885 875
f 882 880 870
f 857 886 881
f 853 857 881
f 875 885 882
f 876 875 882
f 858 885 867
f 882 870 876
f 858 867 879
f 887 883 867
f 878 870 880
f 879 868 877
f 878 858 879
f 884 870 877
f 887 888 883
f 888 884 883
f 884 888 870
f 891 892 893
f 892 894 893
f 895 896 897
f 898 899 900
f 899 901 930
f 889 930 901
f 889 861 930
f 861 994 930
f 931 902 872
f 903 872 871
f 904 941 873
f 905 906 907
f 871 908 903
f 859 870 941
f 919 931 889
f 919 901 898
f 919 889 901
f 870 888 941
f 890 994 859
f 861 889 931
f 901 899 898
f 948 931 919
f 919 898 900
f 872 902 873
f 910 907 906
f 903 887 867
f 911 941 905
f 906 941 904
f 896 911 897
f 908 887 903
f 904 873 902
f 909 905 907
f 872 867 931
f 908 871 941
f 908 941 888
f 888 887 908
f 872 903 867
f 910 902 931
f 873 941 871
f 931 907 910
f 910 904 902
f 906 905 941
f 931 897 909
f 904 910 906
f 909 907 931
f 905 909 911
f 909 897 911
f 895 897 931
f 911 896 941
f 948 912 913
f 919 914 915
f 918 920 931
f 928 921 922
f 948 922 923
f 914 925 915
f 921 930 916
f 892 891 926
f 925 930 915
f 927 924 920
f 948 919 928
f 899 930 929
f 900 899 929
f 929 930 925
f 932 916 930
f 948 928 922
f 948 923 912
f 921 928 930
f 916 932 912
f 930 994 890
f 919 915 928
f 932 930 933
f 859 941 949
f 919 900 914
f 918 926 935
f 900 929 914
f 929 925 914
f 923 916 912
f 921 916 923
f 915 930 928
f 922 921 923
f 912 932 913
f 920 895 931
f 936 893 894
f 927 941 924
f 892 926 931
f 893 949 941
f 937 931 938
f 939 917 938
f 937 917 936
f 917 937 938
f 927 918 935
f 924 941 896
f 893 941 891
f 931 926 918
f 896 895 924
f 924 895 920
f 920 918 927
f 938 934 939
f 935 941 927
f 931 894 892
f 893 936 949
f 891 941 935
f 891 935 926
f 934 938 931
f 917 949 936
f 937 936 894
f 937 894 931
f 917 939 949
f 943 942 890
f 945 946 931
f 947 933 890
f 948 913 950
f 955 890 956
f 948 957 958
f 950 947 957
f 959 890 951
f 955 951 890
f 959 951 952
f 943 890 953
f 948 960 952
f 933 930 890
f 913 932 933
f 947 890 942
f 947 942 957
f 976 961 954
f 959 953 890
f 945 949 962
f 963 953 960
f 958 943 963
f 942 943 958
f 953 959 960
f 943 953 963
f 976 952 961
f 948 950 957
f 933 947 950
f 913 933 950
f 948 958 963
f 948 963 960
f 960 959 952
f 957 942 958
f 976 948 952
f 961 955 954
f 952 951 961
f 951 955 961
f 965 956 890
f 945 966 949
f 962 967 946
f 962 949 967
f 945 962 946
f 931 946 934
f 939 967 949
f 939 934 967
f 934 946 967
f 966 945 931
f 890 994 859
f 994 890 859
f 976 968 969
f 976 971 944
f 977 890 859
f 972 973 964
f 956 965 968
f 969 970 972
f 976 972 964
f 975 974 977
f 954 955 956
f 965 890 970
f 977 970 890
f 976 954 968
f 965 970 969
f 977 973 970
f 973 977 974
f 976 964 971
f 970 973 972
f 971 975 944
f 954 956 968
f 968 965 969
f 975 977 944
f 973 974 964
f 976 969 972
f 974 975 971
f 966 976 944
f 964 974 971
f 949 966 859
f 931 948 966
f 948 976 966
f 991 966 940
f 944 977 966
f 966 977 940
f 859 990 977
f 990 890 994
f 991 940 978
f 940 977 990
f 979 980 966
f 859 982 985
f 982 859 966
f 966 980 982
f 985 982 981
f 982 980 981
f 981 983 985
f 983 981 980
f 979 983 980
f 890 990 994
f 990 986 940
f 988 986 989
f 979 985 983
f 988 940 986
f 987 990 984
f 988 992 940
f 978 940 992
f 987 986 990
f 989 986 987
f 992 988 993
f 984 979 966
f 991 978 993
f 991 993 989
f 991 989 987
f 978 992 993
f 993 988 989
f 991 987 984
f 984 985 979
f 984 966 991
f 994 859 990
f 994 990 859
f 990 859 984
f 984 859 985

