# https://github.com/mikedh/trimesh
v -0.51570255 0.33622533 -0.44236904
v -0.51570237 0.33620614 -0.44235930
v -0.51961231 0.34011614 -0.44233930
v -0.51954240 0.34011614 -0.44236931
v -0.46384692 0.20304225 -0.42792884
v -0.60311824 -0.84516525 0.15318257
v -0.54739708 0.51905650 0.19313629
v -0.52687913 -0.69306141 -0.14859086
v -0.53509194 0.16413483 0.05373437
v -0.56780607 0.18397462 0.08312707
v -0.53812236 0.16433614 0.04981070
v -0.53524238 0.16433614 0.05372070
v -0.53536230 0.16823617 0.05763070
v -0.53523237 0.16807614 0.05763070
v -0.53521818 0.16821769 0.05779933
v -0.57243645 0.35526457 -0.41616637
v -0.56534946 -0.68664390 0.01045878
v -0.52866232 -0.67550385 -0.12595931
v -0.52742237 -0.67159384 -0.12588930
v -0.52740949 -0.67167115 -0.12601145
v -0.53289765 -0.66878921 -0.10993773
v -0.52649224 -0.65672076 -0.11393199
v -0.52745867 -0.66763455 -0.12180275
v -0.52739239 -0.66768384 -0.12204930
v -0.52742237 -0.66778386 -0.12204930
v -0.54916173 -0.20146215 -0.23901278
v -0.53523237 0.16433614 0.05373070
v -0.53680277 0.17217468 0.05981452
v -0.52340233 0.34402615 -0.44236931
v -0.51570237 0.34011614 -0.44359931
v -0.41568163 0.12954155 0.27262443
v -0.48231643 0.37492529 -0.46675521
v -0.55523771 0.74229127 -0.43791318
v -0.53638810 0.79723549 0.03683016
v -0.52880996 0.90765202 -0.21626566
v -0.52865231 -0.66768384 -0.11814930
v -0.53288758 -0.57288122 0.00160665
v -0.58725107 -0.36995307 0.14983366
v -0.56682366 -0.33289069 0.14198606
v -0.58471018 0.09720701 -0.13415375
v -0.52698892 0.11055938 -0.00345359
v -0.50902241 0.16587849 0.10724767
v -0.49487430 0.30338797 -0.43650687
v -0.51179230 0.33269614 -0.44236931
v -0.51961231 0.34017614 -0.44236931
v -0.51961231 0.33230615 -0.43985930
v -0.45226547 -0.82863927 -0.37601942
v -0.48664540 -0.76031345 -0.31185207
v -0.45808774 -0.69183898 -0.32670984
v -0.45195708 -0.50125813 -0.25339878
v -0.50249147 -0.62910306 -0.16332570
v -0.35294199 -0.69897699 0.34231439
v -0.45971236 -0.70284384 -0.32907930
v -0.42976233 -0.16378383 -0.35239932
v -0.43709970 -0.17656583 -0.33990979
v -0.46649390 0.01735475 0.17407598
v -0.34188676 0.94065285 -0.31144729
v -0.43758234 -0.15605386 -0.35251930
v -0.45320234 -0.69852388 -0.33689931
v -0.38855433 -0.80727863 -0.43698636
v -0.45295674 -0.69801426 -0.33704761
v -0.45711234 -0.70284384 -0.33295932
v -0.45320234 -0.70284384 -0.33877930
v -0.45711234 -0.70290387 -0.33298928
v -0.45709234 -0.70284384 -0.33298928
v -0.45332235 -0.69893384 -0.33689931
v -0.42819089 -0.16390868 -0.35329023
v -0.43367210 -0.15978573 -0.35254243
v -0.44244239 -0.12122241 -0.37205666
v -0.42976233 -0.16359384 -0.35251930
v -0.46819586 0.01347635 0.15203708
v -0.42794725 0.01960135 0.21711656
v -0.44148234 0.04714615 0.19426070
v -0.45320234 0.05105615 0.19434071
v -0.45330235 0.04323615 0.19434071
v -0.43479529 0.02101174 0.22499160
v -0.45325235 0.04714615 0.19434071
v -0.45669577 0.09384281 0.18791831
v -0.45085233 0.04714615 0.19825070
v -0.44148234 0.04323615 0.19434071
v -0.44148234 0.04324616 0.19434071
v -0.43908235 0.04323615 0.19825070
v -0.44143236 0.04714615 0.19434071
v -0.44138235 0.05105615 0.19434071
v -0.45320234 0.05086615 0.19434071
v -0.45320234 0.04714615 0.19442071
v -0.43362233 -0.15987384 -0.35251930
v -0.42233607 -0.67877299 -0.37444595
v -0.43367234 -0.15987384 -0.35248932
v -0.40838844 0.03116318 -0.42109898
v -0.34380871 -0.81610924 -0.46579927
v -0.34793189 -0.81227487 -0.46191424
v -0.33993337 -0.82009250 -0.46961585
v -0.29701233 -0.40206385 0.37403068
v -0.30086234 -0.40593386 0.37403068
v -0.29695234 -0.40206385 0.37406069
v -0.40633336 -0.03688684 0.28853175
v -0.23035088 -0.19454581 -0.40471911
v -0.34383047 -0.81613421 -0.46579960
v -0.34773234 -0.81222385 -0.46199933
v -0.34650975 -0.81007504 -0.46185362
v -0.34383234 -0.81612384 -0.46579930
v -0.32255638 -0.54883260 -0.35769048
v -0.31055892 -0.41975293 0.37500343
v -0.23116183 -0.17866129 0.35758355
v -0.29695234 -0.39815384 0.37223068
v -0.29695234 -0.40199384 0.37403068
v -0.30086234 -0.40206385 0.37221068
v -0.31051216 -0.40990517 0.37132567
v -0.33040676 -0.35951617 0.33960679
v -0.29254290 -0.39755630 0.37401789
v -0.29304233 -0.39815384 0.37408069
v -0.29461625 -0.41068667 0.37920633
v -0.24617232 -0.17159948 0.35060027
v -0.64251012 0.48835152 -0.48778537
v -0.25931120 -0.16081856 0.34472033
v -0.29646349 -0.41033325 0.37816682
v -0.23836234 -0.17159384 0.35449070
v -0.24617234 -0.17172384 0.35059068
v -0.23836234 -0.17147385 0.35450068
v -0.30786234 -0.41378385 0.37403068
v -0.30089235 -0.40597385 0.37403068
v -0.30477235 -0.40987384 0.37403068
v -0.30475280 -0.40987301 0.37403080
v -0.30086234 -0.40597385 0.37405068
v -0.23755884 -0.17234993 0.35483089
v -0.23587948 -0.16198950 0.35540476
v -0.33663842 -0.88667125 -0.50103277
v -0.23995855 -0.43454069 0.41368261
v -0.18205149 -0.37574840 0.40113419
v -0.26198345 -0.17678726 0.34235078
v -0.24666235 -0.16768385 0.35059068
v 0.02542462 -0.31549045 0.45094246
v -0.17586234 -0.40597385 0.41693068
v -0.24571234 -0.17550384 0.35059068
v -0.23836234 -0.17550384 0.35426068
v -0.24625622 -0.17123969 0.35058510
v -0.23903637 -0.17063971 0.35421222
v -0.18390797 -0.84471846 -0.50225335
v -0.27786604 0.24452953 0.41665354
v -0.23445234 0.56277615 0.28029069
v -0.23428978 0.56277472 0.28028396
v -0.23836234 0.55886614 0.28364068
v -0.32327545 0.59165728 0.24708149
v -0.18702801 -0.83748174 -0.50042933
v -0.29247114 -0.71202290 -0.44904539
v -0.17586234 -0.40613386 0.41700068
v -0.18154743 -0.41139892 0.41709629
v -0.17918000 -0.83957332 -0.50092566
v -0.17976235 -0.83968383 -0.50095928
v -0.18444234 -0.83956385 -0.50095928
v -0.18367234 -0.83958387 -0.50095928
v -0.11336234 -0.28494385 -0.36423928
v -0.11739847 -0.28492716 -0.36425424
v -0.11726234 -0.28487384 -0.36425930
v -0.05751099 0.44560584 0.34752628
v -0.24295497 0.56712610 0.27679294
v -0.23604882 0.54608995 0.29431945
v -0.20508192 0.58937073 0.25764701
v -0.24226637 0.56276220 0.28039202
v -0.24226235 0.56289613 0.28028068
v -0.23836234 0.56277615 0.28037068
v -0.23836234 0.56287616 0.28028068
v -0.18367234 -0.83956385 -0.50094932
v -0.10241234 0.09011616 0.40919071
v -0.10164234 0.09010616 0.40919071
v -0.07611067 -0.29972541 -0.35120577
v -0.17976235 -0.40987384 0.41712070
v -0.17976235 -0.40960386 0.41700068
v -0.10945235 -0.27706385 -0.36565933
v -0.11336234 -0.28487384 -0.36424932
v -0.18414807 -0.43435583 0.42637479
v -0.10164234 -0.29283386 -0.35251930
v -0.10605739 -0.25361875 -0.36988842
v -0.04065595 -0.78792650 -0.48487666
v -0.17566101 -0.40596205 0.41700003
v -0.10164234 0.09011616 0.40919071
v -0.09773234 0.09011616 0.40919071
v -0.14539427 -0.41545916 0.43308190
v -0.10704687 -0.24985185 -0.36031768
v -0.12898235 -0.01931385 -0.42673928
v -0.13289234 -0.01929385 -0.42673928
v -0.12521940 -0.02287955 -0.42618251
v -0.12898235 -0.01925385 -0.42674932
v -0.12508234 -0.01925385 -0.42674932
v -0.24725349 0.07373480 0.40000653
v -0.08128576 0.46357661 -0.48963377
v -0.33495960 0.26407850 0.41624451
v -0.12508234 -0.81612384 -0.49316931
v -0.12508234 -0.81606388 -0.49314931
v -0.12204234 -0.81612384 -0.49314931
v -0.10107686 0.36476117 0.38068786
v 0.11709765 0.53152615 0.28947070
v -0.37849081 -0.69458163 -0.42055845
v -0.12730169 -0.82411820 -0.49571460
v -0.13289234 -0.81612384 -0.49320930
v -0.12898235 -0.81612384 -0.49318928
v 0.20060518 0.63747364 0.20913811
v -0.07820235 -0.84349388 -0.50095928
v -0.08211234 -0.85128385 -0.50319928
v -0.07880235 -0.84347385 -0.50095928
v -0.12242142 -0.79805559 -0.48741001
v -0.13494790 -0.81596291 -0.49317756
v -0.14851190 -0.83604562 -0.49960908
v -0.12898235 -0.81598383 -0.49314931
v -0.05476235 -0.29268384 -0.35250932
v -0.05086234 -0.29268384 -0.35250932
v -0.13357143 -0.01934910 -0.42673537
v -0.05867234 -0.29264385 -0.35251930
v -0.05476235 -0.29263386 -0.35251930
v -0.10895234 -0.28487384 -0.36423928
v -0.12117235 -0.81614387 -0.49314931
v -0.12117235 -0.81612384 -0.49313933
v -0.11726234 -0.81622386 -0.49314931
v -0.06928389 -0.59403658 0.51650763
v -0.07820235 -0.29267386 -0.35251930
v -0.07429235 -0.29268384 -0.35251930
v -0.07429235 -0.29267386 -0.35251930
v -0.13261180 -0.30210695 -0.35141152
v -0.10565011 -0.29432425 -0.35228539
v -0.11314701 -0.29347515 -0.36270341
v -0.08109469 -0.83627051 -0.49893901
v -0.09773234 -0.29275385 -0.35251930
v -0.20669281 -0.38523471 -0.34732932
v -0.10499235 -0.24190386 -0.37204930
v -0.10945235 -0.28487384 -0.36423928
v -0.10945235 -0.28488386 -0.36423928
v -0.11147289 -0.24186534 -0.37203068
v -0.10409235 -0.01925385 -0.42673928
v -0.10757468 -0.04099938 -0.42325845
v -0.10945235 -0.01935385 -0.42673928
v -0.11336234 -0.01938385 -0.42673928
v -0.13289234 -0.01925385 -0.42674932
v -0.12508234 -0.01933385 -0.42673928
v -0.11336234 -0.01925385 -0.42675930
v -0.11726234 -0.01936385 -0.42673928
v -0.11726234 -0.01925385 -0.42675930
v -0.13260925 -0.00378717 -0.42914894
v -0.19935513 -0.78620875 -0.48417723
v -0.12117235 -0.01925385 -0.42675930
v -0.12117235 -0.01934385 -0.42673928
v -0.13457038 0.00518681 -0.43054700
v -0.10736225 0.10298776 0.41109341
v -0.06971758 -0.04254689 -0.42289338
v -0.07494990 -0.86063689 -0.50578368
v -0.07820235 -0.84347385 -0.50094932
v -0.11693346 -0.81615043 -0.49312562
v -0.06636449 -0.72060102 -0.43754917
v -0.06926157 -0.84362423 -0.50090194
v -0.07039234 -0.84377384 -0.50095928
v -0.07429235 -0.84347385 -0.50090927
v -0.09377865 -0.29270187 -0.35251918
v -0.09773234 0.09006615 0.40919071
v -0.09383234 0.09002615 0.40919071
v -0.09383234 -0.29659384 -0.35185930
v -0.05785969 -0.72233677 -0.43845883
v -0.07039894 -0.72627103 -0.44079229
v -0.07039236 -0.72240674 -0.45017549
v -0.10346516 -0.29277727 -0.35253134
v -0.07039234 -0.29268384 -0.35251930
v -0.06648234 -0.29268384 -0.35251930
v -0.06467519 -0.78809994 -0.47410578
v -0.11812024 -0.23854932 -0.37275589
v -0.07731203 -0.18157153 -0.39995453
v -0.09383234 -0.29268384 -0.35251930
v -0.10945235 -0.24178386 -0.37204930
v -0.09773234 -0.29268384 -0.35252932
v -0.07039234 -0.29266384 -0.35251930
v -0.07112214 -0.29196888 -0.35265854
v -0.10554235 -0.01925385 -0.42673928
v -0.10554235 -0.01928385 -0.42673928
v -0.10945235 -0.01925385 -0.42675930
v -0.10015732 -0.23804095 -0.37309170
v -0.08330364 -0.29234338 -0.35254925
v -0.10554235 -0.24190386 -0.37204930
v -0.10554235 -0.24189384 -0.37204930
v -0.09398931 -0.77712357 -0.47965372
v -0.06437235 -0.19893385 -0.39157930
v -0.06648234 -0.19896385 -0.39157930
v -0.06648234 -0.19893385 -0.39159930
v -0.07429235 -0.84363383 -0.50095928
v -0.06648234 -0.72237384 -0.43855932
v -0.05840079 -0.04676549 -0.42217681
v -0.06648234 -0.04284385 -0.42282930
v -0.06648234 -0.72237384 -0.45011932
v -0.07039234 -0.72237384 -0.45014930
v -0.07039234 -0.71847385 -0.44795930
v -0.07147163 -0.71623713 -0.44673005
v -0.06258234 -0.72225386 -0.43845931
v -0.05867234 -0.72233385 -0.43845931
v -0.06648234 -0.72248387 -0.45017931
v -0.06258234 -0.72237384 -0.43851930
v -0.06258234 -0.72255385 -0.45017931
v -0.07820235 -0.29268384 -0.35251930
v -0.10424305 -0.22420168 0.40435624
v -0.08211234 -0.29253384 -0.35251930
v -0.05086234 -0.29262385 -0.35251930
v -0.04695235 -0.29262385 -0.35251930
v -0.15896592 -0.90398800 -0.51420265
v -0.10560727 -0.01326116 -0.42769533
v -0.05867234 -0.28487384 -0.35399932
v -0.07039234 -0.19900385 -0.39157930
v -0.07039234 -0.19893385 -0.39161932
v -0.06258234 -0.29264385 -0.35251930
v -0.05867234 -0.29268384 -0.35250932
v -0.06258234 -0.04268385 -0.42284930
v -0.01992570 -0.33295184 -0.34475034
v -0.06258234 -0.19891386 -0.39157930
v -0.04304234 -0.29261386 -0.35251930
v -0.03914234 -0.29268384 -0.35250932
v -0.03914234 -0.29260385 -0.35251930
v -0.06258234 -0.29268384 -0.35250932
v -0.06648234 -0.20675384 -0.38797930
v -0.05867234 -0.20730385 -0.38767931
v -0.05867234 -0.19887383 -0.39157930
v -0.05867234 -0.19893385 -0.39154932
v -0.06258234 -0.19893385 -0.39156932
v -0.09290833 0.09006654 0.40919662
v -0.06258234 -0.04277385 -0.42282930
v -0.01115785 0.06667512 0.40569964
v -0.09706629 0.08231809 0.40807873
v -0.03659539 -0.04545571 -0.42240036
v 0.04504374 0.46214134 0.31274208
v -0.05867234 -0.72237384 -0.43847930
v 0.00495228 -0.86106378 -0.50506604
v -0.03293922 -0.52008593 -0.34215015
v 0.06337034 -0.14968364 -0.41213384
v -0.07694585 -0.68610060 -0.42613065
v -0.04695235 -0.29268384 -0.35250932
v -0.03145899 -0.29903325 -0.35129708
v -0.04304234 -0.29268384 -0.35250932
v -0.03133234 -0.29268384 -0.35249931
v -0.03080657 -0.29258883 -0.35251248
v 0.03628094 -0.53385288 0.50101775
v -0.03523234 -0.29260385 -0.35251930
v -0.03523234 -0.29268384 -0.35249931
v -0.05277026 -0.03636716 -0.42383441
v -0.02814908 -0.23469111 -0.36411607
v -0.05867234 -0.04268385 -0.42283931
v -0.05807234 -0.04268385 -0.42282930
v -0.04555782 -0.24107586 -0.37210569
v -0.05867234 -0.04270385 -0.42282930
v 0.03612033 0.03924870 -0.44643685
v 0.08105118 0.49556142 0.30564615
v 0.00233504 0.64096564 0.15498650
v 0.01171401 -0.81735343 -0.48249778
v -0.11361171 0.72397339 0.10760915
v 0.02725766 -0.80440384 -0.48928931
v 0.08584765 -0.76144385 -0.46970931
v 0.08975766 -0.76144385 -0.46970931
v 0.02931386 -0.79076809 -0.48547786
v 0.00588223 -0.85135835 -0.49185371
v 0.01162766 -0.82784384 -0.48537931
v 0.01139196 -0.82766491 -0.48532364
v 0.00049362 -0.69987714 -0.43790632
v 0.01553766 -0.82784384 -0.48534930
v 0.01553766 -0.82778382 -0.48532930
v 0.01783766 -0.82784384 -0.48532930
v -0.00008234 -0.03878385 -0.42359930
v -0.00232234 -0.04268385 -0.42282930
v -0.00008234 -0.04264385 -0.42282930
v 0.00772766 -0.04268385 -0.42278928
v 0.00519526 -0.05858550 -0.41965750
v -0.00008234 -0.04268385 -0.42281932
v 0.01318387 -0.07377723 -0.41662100
v 0.00772766 -0.06222385 -0.41892931
v 0.02327036 -0.08175950 -0.41501921
v 0.02334765 -0.08176384 -0.41501930
v -0.25941327 0.06024124 -0.44797418
v 0.08194765 0.42605615 0.33715069
v 0.03116766 -0.80431384 -0.48923928
v 0.01393060 -0.83435822 -0.49757728
v 0.02402377 -0.08937840 -0.41352579
v 0.03054145 -0.06214380 -0.41889381
v 0.00772766 -0.06223385 -0.41892931
v 0.00824765 -0.06222385 -0.41892931
v 0.03500765 -0.80440384 -0.48923928
v 0.03116766 -0.80050385 -0.48818931
v 0.01567152 -0.84147143 -0.48909214
v 0.03116766 -0.80440384 -0.48926932
v 0.00381766 -0.04255385 -0.42282930
v 0.00381766 -0.06231385 -0.41892931
v 0.02125650 -0.03130440 -0.42495129
v 0.01247820 -0.06214299 -0.41892624
v 0.03116766 -0.06199385 -0.41892931
v 0.08356407 -0.95947522 0.37860283
v 0.03506765 -0.80440384 -0.48923928
v 0.04678766 -0.52706385 0.49904069
v 0.06360666 -0.53781450 0.50122184
v 0.04796839 -0.52380085 0.49813077
v 0.04287765 -0.52691388 0.49903068
v 0.02725766 -0.08175384 -0.41503930
v 0.03116766 -0.08175384 -0.41504931
v 0.00381766 -0.04268385 -0.42280930
v 0.02095337 -0.08078869 -0.41520265
v 0.01162766 -0.07003384 -0.41736931
v 0.00306303 -0.06228170 -0.41893995
v 0.02725766 -0.08183385 -0.41501930
v -0.04354678 -0.08098300 -0.41541344
v 0.02603145 -0.05390054 -0.42049530
v 0.03506765 -0.06222385 -0.41889930
v 0.03897766 -0.06222385 -0.41890931
v -0.04463754 0.06530470 -0.43957078
v 0.07412766 0.43005615 0.33497068
v 0.07986245 0.43440032 0.33241543
v 0.08584765 0.36357614 0.38184068
v 0.07303844 0.42998910 0.33501634
v 0.07803766 0.42995614 0.33497068
v 0.07803766 0.42996615 0.33497068
v 0.08194765 0.36355615 0.38185069
v 0.15875120 0.61519891 0.23271760
v 0.09366766 -0.76143384 -0.46969932
v 0.03481876 -0.52172041 0.49747708
v 0.04860910 -0.74886519 -0.46342203
v 0.21849038 0.00859500 -0.43320513
v 0.05459766 -0.10128384 -0.41112933
v 0.05069765 -0.10144384 -0.41111931
v 0.05459766 -0.10137385 -0.41111931
v 0.04684670 -0.52706701 0.49903509
v 0.07803766 -0.76143384 -0.46970931
v 0.08194765 -0.76143384 -0.46970931
v 0.04287765 -0.52706385 0.49908069
v 0.03897766 -0.52700382 0.49903068
v 0.08975766 -0.76143384 -0.46969932
v 0.04586301 -0.11411095 -0.40848845
v 0.04407766 -0.06222385 -0.41892931
v 0.04287765 -0.06222385 -0.41891932
v 0.03506765 -0.06206385 -0.41892931
v 0.05850765 -0.10128384 -0.41111931
v 0.05850765 -0.10130385 -0.41111931
v 0.06013765 -0.10128384 -0.41111931
v 0.04287765 -0.06219385 -0.41892931
v 0.03897766 -0.06213385 -0.41892931
v 0.05416026 -0.07623631 -0.41624823
v 0.04661657 -0.04260901 -0.42278117
v 0.06488182 0.14793985 -0.45015246
v 0.07829776 0.08614956 -0.44251007
v 0.06204193 0.09793943 -0.45408911
v 0.07661766 0.36355615 0.38184068
v 0.07803766 0.36355615 0.38184068
v 0.07532627 0.35561192 0.38568038
v 0.09756765 0.10573616 -0.44483930
v 0.07831766 0.42995614 0.33497068
v 0.11293700 0.53562313 0.28384635
v 0.11323766 0.53542614 0.28419071
v 0.10928766 0.52972615 0.28809068
v 0.10537766 0.53571618 0.28028068
v 0.11319765 0.53540617 0.28419071
v 0.03631392 -0.89182287 -0.50971878
v 0.07432765 -0.76143384 -0.46970931
v 0.08194765 -0.76144385 -0.46970931
v 0.08584765 -0.76143384 -0.46970931
v 0.07803766 -0.76144385 -0.46970931
v 0.09366766 -0.76145387 -0.46970931
v 0.07239911 0.09760178 -0.45407426
v 0.09756765 -0.76145387 -0.46970931
v -0.01089690 -0.71184313 -0.43322024
v 0.07995913 -0.79161125 -0.48538509
v 0.10928766 -0.76146388 -0.46970931
v -0.09311034 -0.18312538 -0.38726956
v 0.06631765 0.09011616 -0.45309931
v 0.06631765 0.09779615 -0.45407930
v 0.10147765 -0.76145387 -0.46970931
v 0.09756765 -0.76143384 -0.46969932
v 0.10147765 -0.76143384 -0.46969932
v 0.06241766 0.09790616 -0.45407930
v 0.09366766 0.11745615 -0.44627932
v 0.09756765 0.11745615 -0.44626930
v 0.09756765 0.12917615 -0.44769931
v 0.08594771 0.10679665 -0.45517361
v 0.07154478 0.10304932 -0.45470622
v 0.08816765 0.09792615 -0.45407930
v 0.08584765 0.09792615 -0.45408931
v 0.08584765 0.09787615 -0.45407930
v 0.08194765 0.09792615 -0.45409930
v 0.08975766 0.09792615 -0.45407930
v 0.08975766 0.09796615 -0.45407930
v 0.06631765 0.09792615 -0.45409930
v 0.07022765 0.09792615 -0.45411932
v 0.08975766 0.09011616 -0.45311931
v 0.09366766 0.09805615 -0.45407930
v 0.09366766 0.09792615 -0.45406932
v 0.08194765 0.36356616 0.38184068
v 0.08194765 0.09777615 -0.45407930
v 0.09767510 0.35895199 -0.49180666
v 0.07803766 0.36355615 0.38185069
v 0.14583734 0.42194802 0.34278354
v 0.11319765 0.53151613 0.28809068
v 0.11320765 0.53152615 0.28809068
v 0.17076083 0.65427333 0.20178044
v 0.10988864 -0.76917380 -0.47364005
v 0.10537766 -0.76145387 -0.46970931
v 0.10537766 -0.76143384 -0.46969932
v 0.09802765 0.11745615 -0.44626930
v 0.10937720 -0.74803478 -0.46270850
v 0.10981050 -0.76143736 -0.46969774
v 0.15951198 -0.73079962 0.46677515
v 0.18830268 -0.85583335 -0.50233352
v 0.09366766 0.11735616 -0.44626930
v 0.09756765 0.11744615 -0.44626930
v 0.11012306 0.06710447 -0.45033953
v 0.09651079 0.09800537 -0.45406866
v 0.12583832 0.31819570 0.40420175
v 0.08970742 0.37993971 0.37415111
v 0.02365034 0.24680801 0.42015272
v 0.11319765 0.53152615 0.28809068
v 0.16763479 0.56996620 0.27293998
v 0.08259918 0.55750650 0.24968627
v 0.19918765 0.63308614 0.21388070
v 0.19912766 0.63309616 0.21388070
v 0.19912766 0.63695616 0.20997068
v 0.22871023 0.62705088 0.21336114
v 0.23037766 -0.79671383 0.41309068
v 0.23049664 -0.79662013 0.41308421
v 0.19899766 0.63698614 0.20997068
v 0.17563507 -0.80440873 0.43263099
v 0.17948861 -0.80048150 0.43264374
v 0.17949766 -0.80050385 0.43263069
v 0.17965183 -0.80047989 0.43256429
v 0.21866766 -0.80831385 0.41315070
v 0.34446681 0.17533529 0.43431404
v 0.21197514 0.18914954 -0.46444228
v 0.21205395 -0.80519372 0.41717699
v 0.17569765 -0.80440384 0.43260068
v 0.17569765 -0.80435383 0.43263069
v 0.18417899 -0.82536650 0.42055106
v 0.18369403 -0.79377478 0.43366820
v 0.36542132 -0.80318832 0.35003304
v 0.03543859 -0.61561161 0.56579119
v 0.19964209 0.62678170 0.22015069
v 0.22256766 -0.80443382 0.41309068
v 0.22256766 -0.80440384 0.41311067
v 0.22647765 -0.80050385 0.41309068
v 0.22647765 -0.80050385 0.41310069
v 0.22259766 -0.80440384 0.41309068
v 0.22256766 -0.80831385 0.41152069
v 0.22647765 -0.80440384 0.41154069
v 0.23052420 -0.79634821 0.41318071
v 0.24173588 -0.79639387 0.40881768
v 0.11707602 -0.61977988 0.50458431
v 0.18727724 -0.10905904 0.38867256
v 0.21823061 -0.80902064 0.41303223
v 0.44891155 0.20309150 -0.43354142
v 0.19894740 0.63296640 0.21404806
v 0.26875487 0.57467002 -0.48132148
v 0.24723518 0.87361419 0.03605274
v 0.29287764 0.64480615 -0.46184930
v 0.26574084 0.85471767 -0.03541500
v 0.22648765 -0.80050385 0.41309068
v 0.44522828 0.20307951 -0.43454736
v 0.37943935 0.22018972 -0.45277548
v 0.24840082 -0.86233330 0.38169587
v 0.26553765 0.85588616 -0.03611930
v 0.26566765 0.85964614 -0.04001930
v 0.26511094 0.84508646 -0.02523661
v 0.32229766 -0.70008397 -0.43791112
v 0.21851526 -0.77897173 0.42504060
v 0.28848839 -0.74003851 0.40518299
v 0.31241766 0.64471614 0.18263070
v 0.40399238 -0.29271561 -0.34836382
v 0.29309860 0.12389442 -0.44547555
v 0.31147677 0.64491522 0.18235558
v 0.31631765 0.64480615 0.18255068
v 0.24746001 0.63899058 0.19860964
v 0.31631765 0.64870614 0.17642070
v 0.32145023 0.62696809 0.21043354
v 0.28293803 0.72357553 -0.44386834
v 0.26055574 0.87989283 -0.04726442
v 0.26554239 0.85982209 -0.03990983
v 0.26549920 0.85574019 -0.03588704
v 0.26573765 0.86355615 -0.04392930
v 0.32021728 0.64480144 0.18262462
v 0.31631765 0.64475614 0.18263070
v 0.33975765 -0.75753385 0.37407067
v 0.33975765 -0.76143384 0.37411070
v 0.39845619 -0.49720642 0.36627623
v 0.36608851 -0.45029572 0.37331569
v 0.29678765 0.64473617 -0.46189931
v 0.29678765 0.64480615 -0.46186930
v 0.30459765 0.65261614 -0.45933932
v 0.30069765 0.64480615 -0.46189931
v 0.30070105 0.64479345 -0.46189931
v 0.30069765 0.64479613 -0.46189931
v 0.31613502 0.64180368 0.18726508
v 0.24339186 0.67396563 0.17035210
v 0.41445723 0.84126884 -0.41489691
v 0.33981764 -0.75753385 0.37403068
v 0.33975765 -0.75379384 0.37403068
v 0.34937891 -0.75972199 0.36816886
v 0.34366766 -0.75753385 0.37166068
v 0.33975765 -0.75362384 0.37403068
v 0.40523621 0.32637581 0.37826779
v 0.32022765 0.64480615 0.18261071
v 0.36806813 0.67716652 0.13031627
v 0.29271170 0.95377880 -0.29057819
v 0.40988418 -0.50227398 -0.33047211
v 0.40397322 -0.49371776 0.36254355
v 0.39834765 -0.49140385 0.36622068
v 0.31364113 -0.01518886 0.35543737
v 0.46949005 0.62234825 -0.46615490
v 0.36017790 0.81587404 -0.06870287
v 0.41555774 -0.63514751 0.32898444
v 0.43918979 -0.53444159 -0.29559678
v 0.39085346 -0.49223900 0.37120908
v 0.39834765 -0.49581385 0.36631069
v 0.39836764 -0.49190384 0.36622068
v 0.39834765 -0.49190384 0.36623070
v 0.33957735 0.76315331 0.00108580
v 0.47289443 -0.40669760 0.29824823
v 0.48226801 -0.50189841 -0.25530231
v 0.55384320 -0.22021468 0.15708765
v 0.46387094 0.25244102 -0.44342604
v 0.44917056 0.20696825 -0.43460026
v 0.46221381 0.19412602 -0.42795080
v 0.46016765 0.31667614 0.33106068
v 0.45688525 0.31647986 0.33453250
v 0.46084765 0.31277615 0.33104068
v 0.47506204 0.34072050 0.30966899
v 0.33956465 0.90747148 -0.36691257
v 0.61323768 0.43386614 0.25294071
v 0.61319762 0.43386614 0.25296068
v 0.62491769 0.42995614 0.24781071
v 0.45327803 -0.42350248 0.32934394
v 0.44798762 -0.26431239 -0.35854259
v 0.50010514 -0.43052724 0.28025040
v 0.45694765 0.31277615 0.33512068
v 0.53555888 -0.81574130 -0.33860824
v 0.44541764 0.20339616 -0.43454930
v 0.44912764 0.20675614 -0.43454930
v 0.46082765 0.31277615 0.33106068
v 0.45708767 0.31277615 0.33497068
v 0.48580498 0.91242671 -0.19893232
v 0.51966101 0.89864677 -0.29991704
v 0.49998149 -0.42936602 -0.25471449
v 0.49600765 -0.43722385 0.28311068
v 0.51572728 -0.44308305 -0.23443764
v 0.53506768 -0.58175385 0.16697070
v 0.53506571 -0.58175385 0.16697671
v 0.49991766 -0.43331385 0.28039068
v 0.50003761 -0.43331385 0.28028068
v 0.51535875 -0.43397528 -0.23915991
v 0.51159000 -0.43334493 -0.24316497
v 0.49991807 -0.43722695 0.28028610
v 0.48519576 -0.09420369 -0.38108167
v 0.49991766 -0.43722385 0.28029069
v 0.60144132 0.41990489 0.25845990
v 0.48439401 0.25989568 0.31602532
v 0.56581795 -0.53456360 -0.06984904
v 0.58336562 0.13056563 0.09478803
v 0.38820219 0.24253581 0.40038592
v 0.52700770 0.90261614 -0.11814930
v 0.51944762 0.89871615 -0.11423930
v 0.50757837 0.91636986 -0.25627768
v 0.51194483 0.89499426 -0.11080104
v 0.52662957 0.89477342 -0.30949977
v 0.52725762 0.89480615 -0.30944929
v 0.51940644 0.89869124 -0.11421191
v 0.51937604 0.89868033 -0.11420849
v 0.53219795 -0.59233803 0.17401111
v 0.51553768 -0.43329385 -0.23923929
v 0.51557237 -0.43325472 -0.23922043
v 0.51167053 -0.43310538 -0.24316685
v 0.51162761 -0.43328387 -0.24314930
v 0.51552761 -0.43331385 -0.23923929
v 0.53985763 -0.58175385 0.15528069
v 0.53505760 -0.57393384 0.16700070
v 0.56829172 -0.70328152 0.18577081
v 0.54402053 -0.44261444 0.23910548
v 0.55853760 0.02370615 -0.30173928
v 0.55851233 0.01976619 -0.30180022
v 0.48323911 0.54506135 0.27863306
v 0.57455951 0.83191377 -0.37521559
v 0.52725887 0.90261620 -0.11782761
v 0.53116769 0.89480615 -0.30953932
v 0.53506768 0.89805615 -0.30173928
v 0.53116769 0.89479613 -0.30954930
v 0.52968079 0.90410846 -0.12113160
v 0.45038569 0.93481535 -0.13483638
v 0.54295760 -0.48800385 -0.12204930
v 0.53506768 -0.57784384 0.16698068
v 0.54288286 -0.48794413 -0.12227442
v 0.53379488 -0.48044991 -0.15332624
v 0.54790717 -0.48764440 -0.10995137
v 0.54287761 -0.48428386 -0.12595931
v 0.54167885 -0.57655323 0.15070471
v 0.54294771 -0.49190384 -0.11814930
v 0.54288578 -0.48208186 -0.12814648
v 0.54295760 -0.48409384 -0.12595931
v 0.53098536 -0.54568613 -0.10748851
v 0.57022762 -0.62081385 -0.05130930
v 0.57412761 -0.62863386 -0.05173930
v 0.57412761 -0.62862766 -0.05173896
v 0.57608765 -0.63253385 -0.05173930
v 0.53505760 -0.57784384 0.16700070
v 0.58268124 -0.65005338 -0.08084489
v 0.50147468 -0.50120896 0.27370822
v 0.58480430 -0.43841699 -0.06367329
v 0.54734498 -0.33889616 -0.24207203
v 0.55675817 -0.44921821 0.24332391
v 0.55854762 0.01980615 -0.30173928
v 0.57846749 -0.01823717 -0.26978004
v 0.55353767 0.02370615 -0.30954930
v 0.55850762 0.02370615 -0.30178931
v 0.59140092 0.51647162 0.22828633
v 0.49053049 0.87769580 -0.08445425
v 0.53150761 0.89480615 -0.30954930
v 0.53506768 0.89323616 -0.31345931
v 0.57146293 0.89198828 -0.31422451
v 0.56666422 -0.61373097 -0.05045460
v 0.57020319 -0.62082130 -0.05173962
v 0.56146318 -0.61458570 0.10229967
v 0.57022762 -0.62086385 -0.05173930
v 0.58379513 -0.64267993 0.02088892
v 0.63444024 -0.29585317 -0.10426878
v 0.61517346 -0.30246219 0.12036588
v 0.60481787 -0.04484660 -0.05876910
v 0.61117792 -0.13864529 -0.15819176
v 0.60928768 -0.08565384 -0.14157930
v 0.60928768 -0.08565457 -0.14159866
v 0.60928768 -0.08939385 -0.13767929
v 0.60928762 -0.08987435 -0.13711677
v 0.56324786 0.45266473 -0.51279968
v 0.61322761 0.43777615 0.25294071
v 0.63127571 0.41513416 0.20838395
v 0.61325771 0.42995614 0.25294071
v 0.59748620 0.14681865 -0.27747208
v 0.61319762 0.42605615 0.25297070
v 0.56171298 0.92972612 -0.06476922
v 0.50055468 0.13701271 -0.44271180
v 0.60928768 -0.08947989 -0.13768214
v 0.59591097 -0.10772560 -0.23650974
v 0.60927761 -0.08175384 -0.14548929
v 0.62245655 0.01975264 -0.09485297
v 0.60928768 -0.09310384 -0.13376930
v 0.61319762 0.42995614 0.25296068
v 0.64485991 0.30194622 -0.38249761
f 1 2 3
f 2 4 3
f 2 1 4
f 40 115 5
f 12 13 14
f 115 40 16
f 11 9 41
f 6 37 47
f 47 8 6
f 6 8 17
f 8 21 17
f 19 20 24
f 25 19 24
f 20 51 24
f 40 26 38
f 39 50 40
f 40 5 26
f 27 10 13
f 12 9 11
f 15 27 14
f 42 15 28
f 27 13 12
f 41 10 11
f 27 15 9
f 14 13 15
f 27 12 14
f 27 9 12
f 10 27 11
f 27 12 11
f 28 13 10
f 28 10 42
f 15 13 28
f 40 90 16
f 43 16 90
f 29 30 32
f 33 16 32
f 16 33 115
f 21 19 25
f 21 25 36
f 18 20 19
f 18 19 21
f 23 51 22
f 8 18 21
f 18 8 20
f 17 21 22
f 8 194 51
f 36 23 22
f 36 22 21
f 8 51 20
f 23 24 51
f 25 24 23
f 25 23 36
f 17 22 51
f 6 17 52
f 50 17 51
f 50 52 17
f 50 39 52
f 39 40 41
f 56 40 38
f 40 10 41
f 42 41 9
f 15 42 9
f 30 4 1
f 10 7 42
f 42 7 31
f 30 1 32
f 32 44 43
f 44 2 43
f 30 45 4
f 32 1 44
f 16 46 3
f 4 45 3
f 46 1 3
f 45 29 3
f 29 16 3
f 16 43 46
f 46 43 2
f 44 1 2
f 1 46 2
f 45 30 29
f 29 32 16
f 47 37 48
f 47 194 8
f 37 38 103
f 26 103 38
f 5 69 26
f 55 54 67
f 50 90 40
f 56 10 40
f 10 188 7
f 68 58 69
f 49 62 53
f 61 49 88
f 49 53 48
f 49 61 59
f 88 63 61
f 62 64 53
f 65 64 62
f 59 65 62
f 61 63 66
f 63 48 64
f 47 48 88
f 49 59 62
f 53 64 48
f 64 65 63
f 65 66 63
f 63 88 48
f 65 59 66
f 59 61 66
f 49 37 88
f 49 48 37
f 103 88 37
f 50 51 194
f 26 69 55
f 70 68 67
f 39 41 71
f 38 97 56
f 78 56 74
f 75 97 76
f 75 77 56
f 31 41 42
f 80 73 81
f 80 71 73
f 71 41 31
f 71 72 39
f 83 73 84
f 73 71 84
f 81 73 83
f 82 31 72
f 56 97 75
f 71 31 84
f 74 77 85
f 74 56 77
f 85 77 86
f 86 75 76
f 87 68 70
f 79 74 85
f 86 79 85
f 76 79 86
f 75 86 77
f 71 80 72
f 81 83 82
f 72 80 82
f 79 76 78
f 31 82 84
f 80 81 82
f 74 79 78
f 82 83 84
f 10 56 78
f 188 10 78
f 90 32 43
f 33 32 187
f 35 57 34
f 33 57 35
f 37 6 52
f 69 58 89
f 67 68 69
f 58 68 89
f 70 54 87
f 54 89 87
f 89 55 69
f 55 67 98
f 67 69 98
f 67 54 70
f 68 87 89
f 55 89 54
f 98 26 55
f 39 72 140
f 5 98 69
f 97 188 76
f 76 188 78
f 140 72 31
f 140 31 7
f 187 32 90
f 347 7 34
f 194 47 128
f 99 128 92
f 60 128 47
f 60 47 146
f 88 146 47
f 94 95 96
f 52 38 37
f 188 97 186
f 92 128 60
f 100 92 101
f 92 60 101
f 102 99 92
f 60 146 101
f 103 26 98
f 133 39 140
f 101 91 100
f 144 34 7
f 347 34 57
f 93 91 146
f 93 99 91
f 92 100 102
f 128 93 146
f 99 102 91
f 102 100 91
f 99 93 128
f 106 94 107
f 146 91 101
f 110 108 106
f 146 88 103
f 110 38 104
f 295 38 110
f 347 140 7
f 187 57 33
f 57 33 35
f 194 326 50
f 38 52 529
f 118 119 120
f 111 113 129
f 108 122 95
f 109 123 124
f 121 104 124
f 110 106 111
f 110 124 108
f 122 125 95
f 104 121 109
f 123 121 124
f 104 38 529
f 104 129 113
f 109 121 123
f 112 117 113
f 108 95 94
f 125 124 117
f 95 125 96
f 106 107 111
f 122 123 125
f 123 124 125
f 104 109 110
f 117 104 113
f 129 104 529
f 104 117 124
f 124 123 122
f 124 122 108
f 109 124 110
f 107 96 112
f 111 107 112
f 94 96 107
f 110 111 129
f 108 94 106
f 112 113 111
f 96 117 112
f 125 117 96
f 120 126 127
f 186 97 127
f 7 188 144
f 194 128 299
f 110 129 295
f 98 224 103
f 127 116 132
f 119 114 120
f 119 135 114
f 97 38 131
f 136 126 118
f 116 97 131
f 137 119 114
f 119 137 135
f 114 118 138
f 118 114 119
f 136 118 120
f 142 141 143
f 188 158 144
f 35 347 57
f 138 120 127
f 147 134 176
f 52 39 130
f 105 127 126
f 138 118 120
f 126 120 118
f 131 38 295
f 137 131 135
f 131 105 135
f 135 105 136
f 105 126 136
f 127 132 114
f 132 137 114
f 114 136 120
f 136 114 135
f 97 116 127
f 116 137 132
f 138 127 114
f 131 295 105
f 131 137 116
f 98 5 369
f 139 151 152
f 153 154 155
f 139 299 128
f 143 158 142
f 158 188 156
f 157 142 159
f 144 158 160
f 144 157 159
f 161 162 163
f 161 160 162
f 157 160 161
f 144 160 157
f 160 143 162
f 160 158 143
f 142 158 159
f 157 161 163
f 157 163 142
f 345 34 159
f 163 141 142
f 163 162 141
f 143 141 162
f 34 144 159
f 35 34 345
f 152 164 150
f 165 321 166
f 239 145 128
f 239 128 146
f 147 168 169
f 155 170 171
f 39 133 130
f 147 169 134
f 295 127 105
f 259 220 173
f 186 127 295
f 172 52 130
f 505 140 347
f 57 187 595
f 35 345 347
f 139 150 149
f 152 151 164
f 150 164 149
f 151 145 164
f 204 149 239
f 299 149 204
f 299 139 149
f 128 145 139
f 149 145 239
f 149 164 145
f 139 145 151
f 139 152 150
f 326 194 328
f 103 224 596
f 168 172 148
f 169 130 134
f 172 168 179
f 130 148 172
f 176 134 130
f 168 148 169
f 177 166 178
f 168 176 179
f 168 147 176
f 130 169 148
f 176 130 179
f 179 52 172
f 130 133 179
f 341 170 174
f 181 182 183
f 238 184 185
f 98 369 327
f 189 190 191
f 195 196 197
f 156 159 158
f 345 159 156
f 195 197 189
f 199 200 201
f 195 203 196
f 204 239 195
f 190 189 197
f 195 239 203
f 205 203 202
f 239 202 203
f 196 205 197
f 205 196 203
f 205 190 197
f 205 202 190
f 206 307 207
f 238 242 208
f 209 206 210
f 341 211 170
f 212 213 214
f 216 217 218
f 154 153 221
f 179 215 52
f 50 326 90
f 170 155 154
f 173 220 223
f 129 529 295
f 154 224 174
f 219 460 90
f 171 226 153
f 227 211 221
f 170 154 174
f 224 98 263
f 263 228 174
f 229 403 300
f 231 232 230
f 90 230 208
f 184 182 181
f 184 233 182
f 234 181 183
f 235 236 232
f 235 237 236
f 238 300 242
f 185 181 234
f 181 185 184
f 240 234 241
f 238 233 184
f 208 230 183
f 182 233 208
f 182 208 183
f 233 238 208
f 208 242 90
f 187 90 242
f 187 242 403
f 115 369 5
f 246 201 222
f 247 213 202
f 212 214 195
f 249 250 251
f 213 191 202
f 189 191 195
f 529 52 386
f 212 191 213
f 212 195 191
f 213 247 214
f 247 175 299
f 190 202 191
f 247 195 214
f 195 299 204
f 175 247 202
f 195 247 299
f 222 299 175
f 239 175 202
f 239 146 277
f 277 175 239
f 253 254 178
f 262 256 257
f 166 253 178
f 596 224 341
f 221 211 341
f 226 227 153
f 260 167 261
f 211 226 170
f 227 226 211
f 133 215 179
f 219 90 326
f 220 180 219
f 226 171 170
f 180 220 259
f 220 255 223
f 228 263 266
f 267 265 180
f 224 263 174
f 268 261 269
f 255 220 219
f 259 267 180
f 270 271 229
f 153 155 171
f 223 255 252
f 174 225 341
f 224 221 341
f 153 227 221
f 221 224 154
f 259 173 267
f 272 270 300
f 267 173 223
f 265 223 252
f 267 223 265
f 460 219 180
f 174 228 275
f 225 174 275
f 217 167 260
f 275 266 276
f 275 228 266
f 225 273 341
f 273 225 276
f 225 275 276
f 266 273 276
f 266 263 273
f 263 98 273
f 341 273 98
f 240 237 238
f 234 183 241
f 235 232 272
f 270 229 300
f 232 236 230
f 237 241 236
f 241 237 240
f 272 232 231
f 403 229 230
f 270 231 271
f 270 272 231
f 236 241 230
f 238 235 300
f 238 237 235
f 235 272 300
f 185 240 238
f 271 231 230
f 229 271 230
f 185 234 240
f 241 183 230
f 186 243 188
f 177 178 243
f 186 321 165
f 321 254 253
f 165 166 177
f 254 318 178
f 166 321 253
f 165 177 243
f 186 165 243
f 178 318 243
f 246 199 201
f 156 188 192
f 323 505 347
f 485 115 33
f 278 279 280
f 245 299 200
f 281 246 251
f 194 299 352
f 251 250 281
f 201 200 299
f 245 199 281
f 245 200 199
f 199 246 281
f 245 281 250
f 250 249 245
f 201 299 222
f 262 194 352
f 251 222 249
f 285 286 287
f 251 246 222
f 248 257 282
f 258 288 287
f 355 175 277
f 248 289 290
f 258 286 291
f 289 282 292
f 286 285 291
f 288 258 277
f 293 285 288
f 288 277 146
f 258 291 277
f 293 291 285
f 328 262 257
f 286 258 287
f 457 256 262
f 328 257 248
f 257 292 282
f 248 282 289
f 194 262 328
f 293 277 291
f 285 287 288
f 252 167 274
f 297 298 338
f 294 167 217
f 219 326 307
f 209 210 301
f 255 167 252
f 302 280 279
f 280 302 303
f 216 294 217
f 180 265 252
f 304 305 209
f 274 167 296
f 296 294 216
f 269 216 218
f 306 244 284
f 180 274 269
f 274 216 269
f 218 217 260
f 268 260 261
f 255 219 167
f 219 307 167
f 308 278 264
f 296 167 294
f 269 338 460
f 252 274 180
f 296 216 274
f 218 260 268
f 269 218 268
f 309 310 311
f 304 209 301
f 261 312 269
f 313 303 302
f 303 313 98
f 341 313 314
f 308 315 316
f 264 280 303
f 180 269 460
f 279 313 302
f 308 313 278
f 317 313 308
f 278 280 264
f 264 303 98
f 318 321 320
f 279 278 313
f 306 284 319
f 460 283 230
f 284 283 319
f 230 283 244
f 244 283 284
f 90 460 230
f 403 230 244
f 242 300 403
f 186 320 321
f 254 321 318
f 243 318 320
f 188 243 320
f 257 256 324
f 245 249 325
f 249 222 325
f 325 222 175
f 262 352 457
f 292 324 290
f 277 293 355
f 290 256 248
f 292 257 324
f 293 288 355
f 289 292 290
f 256 457 328
f 248 256 328
f 256 290 324
f 288 146 355
f 329 330 331
f 269 301 338
f 332 330 333
f 301 297 338
f 210 207 297
f 403 244 337
f 335 332 333
f 298 329 331
f 297 207 329
f 297 329 298
f 209 305 206
f 269 312 301
f 315 308 264
f 336 332 335
f 333 338 335
f 305 307 206
f 298 331 309
f 341 315 327
f 331 330 310
f 312 307 305
f 304 312 305
f 207 307 329
f 312 167 307
f 167 312 261
f 301 210 297
f 210 206 207
f 329 307 330
f 336 330 332
f 317 316 314
f 338 298 309
f 310 330 336
f 338 311 335
f 309 311 338
f 309 331 310
f 311 336 335
f 336 311 310
f 316 317 308
f 313 317 314
f 299 245 325
f 341 314 315
f 314 316 315
f 264 327 315
f 98 313 341
f 339 340 337
f 342 283 340
f 98 327 264
f 337 340 399
f 244 306 337
f 339 342 340
f 399 283 460
f 403 337 399
f 306 319 339
f 319 283 342
f 339 319 342
f 306 339 337
f 340 283 399
f 386 52 215
f 33 57 595
f 458 349 350
f 521 188 320
f 449 299 325
f 299 449 352
f 457 352 346
f 353 356 357
f 354 353 357
f 328 457 326
f 356 379 358
f 326 603 307
f 330 307 333
f 333 307 338
f 359 360 361
f 362 363 383
f 363 364 360
f 403 399 322
f 359 383 322
f 322 363 360
f 360 364 361
f 359 322 360
f 133 140 599
f 357 358 346
f 505 599 140
f 192 188 521
f 498 346 358
f 358 379 498
f 346 354 357
f 351 371 348
f 395 374 400
f 366 375 376
f 377 371 378
f 352 379 354
f 449 325 372
f 352 354 346
f 364 361 381
f 361 364 359
f 348 372 351
f 354 379 353
f 357 356 358
f 372 325 175
f 380 372 348
f 371 380 348
f 356 353 379
f 363 384 400
f 372 175 351
f 395 373 367
f 397 365 382
f 371 351 378
f 322 399 365
f 146 103 355
f 351 458 387
f 449 498 352
f 334 215 413
f 413 215 133
f 392 393 395
f 381 362 383
f 362 381 394
f 307 603 338
f 596 341 327
f 368 367 373
f 375 396 376
f 366 363 397
f 393 392 398
f 374 385 400
f 366 382 375
f 382 366 397
f 397 322 365
f 394 363 362
f 399 460 373
f 375 382 396
f 363 322 397
f 361 394 381
f 376 396 384
f 393 373 434
f 367 392 395
f 396 365 395
f 384 395 400
f 373 393 398
f 364 363 394
f 368 373 398
f 399 373 395
f 382 365 396
f 365 399 395
f 383 364 381
f 383 359 364
f 366 376 363
f 392 368 398
f 367 368 392
f 361 364 394
f 384 396 395
f 376 384 363
f 363 400 383
f 403 322 383
f 343 327 369
f 415 403 383
f 320 541 521
f 186 295 541
f 401 434 402
f 485 369 115
f 156 192 671
f 505 323 407
f 408 404 409
f 404 408 407
f 410 503 406
f 33 595 586
f 449 372 458
f 387 377 378
f 372 387 458
f 379 352 498
f 372 380 387
f 380 377 387
f 377 380 371
f 457 346 498
f 351 175 355
f 416 417 418
f 416 434 417
f 378 351 387
f 458 355 414
f 457 556 326
f 419 391 390
f 420 495 421
f 355 103 596
f 391 388 422
f 419 388 391
f 413 423 334
f 395 393 434
f 215 334 540
f 419 390 389
f 422 423 391
f 423 413 390
f 389 334 422
f 133 389 390
f 540 334 389
f 423 390 391
f 334 423 422
f 413 133 390
f 419 422 388
f 422 419 389
f 418 417 425
f 338 603 560
f 420 414 495
f 426 427 434
f 427 402 434
f 400 428 383
f 426 415 435
f 373 460 434
f 624 596 327
f 429 418 430
f 416 418 429
f 385 374 401
f 560 431 425
f 431 430 425
f 427 426 432
f 430 418 425
f 429 431 434
f 416 429 434
f 460 560 425
f 433 427 432
f 402 427 433
f 431 560 434
f 431 429 430
f 374 395 434
f 428 402 433
f 428 401 402
f 434 460 425
f 383 435 415
f 434 425 417
f 374 434 401
f 415 426 434
f 428 433 435
f 383 428 435
f 400 385 428
f 432 426 435
f 433 432 435
f 385 401 428
f 403 437 436
f 320 186 541
f 438 343 369
f 403 415 437
f 403 436 187
f 438 369 471
f 485 471 369
f 439 440 504
f 441 192 503
f 443 487 370
f 156 671 344
f 405 409 404
f 344 446 447
f 444 448 445
f 349 451 421
f 452 421 495
f 452 349 421
f 458 453 451
f 412 424 495
f 458 454 456
f 449 458 498
f 453 420 451
f 412 454 424
f 454 458 350
f 458 451 349
f 351 355 458
f 458 450 453
f 451 420 421
f 454 350 424
f 414 420 450
f 452 495 424
f 350 452 424
f 350 349 452
f 414 450 458
f 420 453 450
f 414 355 495
f 556 457 498
f 540 386 215
f 491 459 496
f 540 389 133
f 192 439 504
f 455 461 462
f 560 460 338
f 463 464 465
f 438 466 461
f 467 468 469
f 455 471 470
f 434 560 415
f 473 470 472
f 474 473 472
f 470 473 475
f 476 472 477
f 478 438 471
f 466 438 478
f 343 438 461
f 501 455 480
f 470 481 477
f 436 467 469
f 501 327 343
f 461 466 462
f 480 474 472
f 479 478 471
f 501 476 482
f 470 475 455
f 472 470 477
f 462 466 478
f 501 461 455
f 484 473 474
f 475 473 484
f 480 472 476
f 501 480 476
f 343 461 501
f 480 475 484
f 455 475 480
f 455 479 471
f 480 484 474
f 462 479 455
f 478 479 462
f 482 476 477
f 481 482 477
f 439 486 440
f 441 486 439
f 671 192 504
f 192 441 439
f 192 521 503
f 440 410 483
f 504 483 406
f 483 410 406
f 443 370 408
f 440 483 504
f 406 503 504
f 440 486 410
f 486 441 410
f 441 503 410
f 405 487 443
f 370 487 505
f 407 408 370
f 469 561 436
f 407 323 405
f 522 471 485
f 505 407 370
f 409 405 443
f 404 407 405
f 408 409 443
f 446 344 488
f 405 323 487
f 345 156 344
f 508 345 344
f 489 193 507
f 489 507 445
f 411 345 508
f 485 33 586
f 507 193 344
f 492 493 459
f 494 442 561
f 491 458 459
f 463 465 492
f 459 493 496
f 498 458 491
f 456 464 463
f 412 495 464
f 498 496 495
f 496 493 495
f 456 412 464
f 458 492 459
f 492 465 493
f 458 463 492
f 495 493 465
f 465 464 495
f 454 412 456
f 458 456 463
f 355 596 495
f 498 491 496
f 386 497 529
f 468 499 500
f 468 467 499
f 500 442 494
f 468 494 469
f 502 522 501
f 494 561 469
f 499 442 500
f 499 467 442
f 467 436 442
f 481 470 502
f 470 522 502
f 468 500 494
f 442 437 561
f 436 437 442
f 470 471 522
f 482 481 502
f 501 482 502
f 436 561 187
f 504 503 671
f 488 193 489
f 444 447 448
f 506 489 448
f 489 506 488
f 488 344 193
f 447 446 448
f 508 344 447
f 508 447 444
f 444 445 507
f 446 506 448
f 488 506 446
f 507 508 444
f 448 489 445
f 509 510 544
f 511 512 198
f 515 544 510
f 345 608 347
f 497 516 517
f 498 495 596
f 518 519 517
f 528 386 540
f 541 295 529
f 561 437 415
f 501 729 327
f 522 729 501
f 503 521 671
f 507 344 671
f 323 347 585
f 411 508 507
f 345 411 490
f 516 524 525
f 497 386 516
f 519 557 527
f 386 552 526
f 519 524 526
f 525 524 518
f 516 386 526
f 516 525 517
f 497 517 527
f 524 519 518
f 525 518 517
f 524 516 526
f 517 519 527
f 497 527 557
f 529 715 541
f 650 505 487
f 487 323 585
f 490 544 515
f 511 515 510
f 608 345 490
f 585 347 546
f 515 198 490
f 520 531 532
f 532 533 534
f 523 532 534
f 526 523 557
f 557 519 526
f 556 498 596
f 526 552 523
f 542 523 552
f 542 520 523
f 535 536 537
f 326 556 603
f 198 515 511
f 509 511 510
f 509 544 530
f 544 411 530
f 512 411 507
f 509 512 511
f 411 544 490
f 198 512 490
f 512 509 530
f 512 564 490
f 530 411 512
f 595 187 567
f 608 490 564
f 347 608 546
f 555 548 601
f 538 514 539
f 523 520 532
f 557 534 538
f 534 513 538
f 534 533 549
f 532 535 533
f 542 552 536
f 537 536 539
f 532 531 535
f 538 539 557
f 537 514 549
f 533 537 549
f 552 528 539
f 537 539 514
f 523 534 557
f 514 513 549
f 534 549 513
f 536 552 539
f 520 542 531
f 514 538 513
f 539 528 557
f 535 531 536
f 542 536 531
f 535 537 533
f 602 529 497
f 512 507 671
f 567 619 595
f 553 569 554
f 548 553 554
f 386 528 552
f 528 558 557
f 557 558 497
f 602 497 558
f 624 327 729
f 559 562 584
f 729 522 485
f 545 187 722
f 487 585 650
f 564 512 671
f 187 545 567
f 554 571 601
f 555 568 570
f 571 569 568
f 572 573 584
f 558 575 574
f 528 540 577
f 540 133 577
f 505 650 599
f 187 736 722
f 650 585 704
f 547 545 578
f 566 564 671
f 567 579 580
f 547 578 579
f 579 581 580
f 547 579 567
f 580 582 600
f 545 547 567
f 578 545 582
f 581 582 580
f 545 600 582
f 580 600 567
f 581 583 582
f 579 583 581
f 583 579 578
f 578 582 583
f 566 562 564
f 562 566 584
f 562 563 565
f 562 559 563
f 554 601 548
f 546 555 585
f 566 572 584
f 570 548 555
f 555 601 585
f 571 568 601
f 570 553 548
f 569 571 554
f 546 568 555
f 553 570 569
f 601 568 595
f 569 570 568
f 546 595 568
f 574 587 588
f 587 590 588
f 558 528 575
f 575 528 589
f 558 591 602
f 575 589 587
f 589 590 587
f 574 575 587
f 591 574 588
f 591 558 574
f 590 591 588
f 602 591 589
f 577 133 611
f 133 599 611
f 560 644 415
f 415 644 561
f 572 566 594
f 593 573 572
f 564 562 565
f 563 559 573
f 573 559 584
f 564 565 594
f 563 573 593
f 565 572 594
f 593 572 565
f 565 563 593
f 608 564 594
f 619 567 600
f 546 608 595
f 591 590 589
f 597 576 602
f 589 528 602
f 623 598 597
f 696 528 577
f 560 603 714
f 644 736 561
f 485 551 729
f 187 561 736
f 722 485 586
f 678 595 608
f 627 556 596
f 605 576 606
f 607 605 606
f 529 602 604
f 602 576 604
f 576 597 606
f 623 604 598
f 529 604 623
f 604 576 605
f 597 598 606
f 604 605 607
f 604 607 598
f 598 607 606
f 623 715 529
f 541 715 521
f 551 485 722
f 566 671 594
f 597 602 623
f 521 647 592
f 617 647 618
f 592 671 521
f 600 545 722
f 619 632 595
f 602 528 667
f 556 627 603
f 620 621 622
f 602 699 623
f 609 577 611
f 644 560 714
f 613 612 614
f 543 613 614
f 592 626 616
f 729 551 614
f 628 543 550
f 614 550 543
f 629 543 628
f 550 614 551
f 543 629 613
f 550 551 612
f 550 613 629
f 613 550 612
f 628 550 629
f 630 615 616
f 631 630 616
f 722 612 551
f 617 630 631
f 647 626 592
f 618 592 616
f 626 617 631
f 626 647 617
f 616 615 618
f 671 592 618
f 626 631 616
f 630 617 615
f 617 618 615
f 671 618 647
f 608 594 671
f 586 595 678
f 655 586 633
f 696 667 528
f 639 625 640
f 635 696 609
f 609 696 577
f 596 698 634
f 643 635 645
f 625 639 609
f 612 729 614
f 704 585 601
f 651 652 658
f 601 595 632
f 658 657 654
f 632 705 601
f 657 705 654
f 663 660 664
f 642 663 664
f 638 665 685
f 637 665 638
f 666 685 699
f 642 634 662
f 596 610 648
f 610 641 636
f 698 648 636
f 636 661 698
f 660 662 661
f 639 645 643
f 645 635 643
f 641 664 661
f 664 641 642
f 609 639 643
f 635 609 643
f 696 635 643
f 610 596 642
f 641 610 642
f 625 668 640
f 648 610 636
f 642 662 663
f 636 641 661
f 661 662 698
f 664 660 661
f 642 596 634
f 660 663 662
f 643 668 696
f 634 698 662
f 668 625 609
f 645 639 640
f 668 643 640
f 643 645 640
f 623 699 715
f 668 609 611
f 698 596 624
f 599 650 649
f 722 729 612
f 647 521 649
f 647 649 671
f 600 722 619
f 678 608 728
f 656 655 633
f 672 632 619
f 674 656 675
f 674 676 656
f 728 673 677
f 651 673 652
f 656 633 653
f 633 586 653
f 676 655 656
f 653 586 678
f 632 677 654
f 658 654 677
f 632 654 705
f 657 658 652
f 651 658 677
f 728 657 673
f 728 705 657
f 657 652 673
f 677 673 651
f 680 685 666
f 684 681 679
f 681 686 679
f 681 689 686
f 687 684 688
f 596 648 627
f 711 685 665
f 690 709 710
f 681 679 683
f 697 681 683
f 659 699 602
f 691 693 692
f 694 680 666
f 659 694 666
f 667 711 602
f 711 638 659
f 659 602 711
f 685 648 699
f 680 638 685
f 637 638 680
f 638 711 637
f 638 694 659
f 689 681 682
f 659 666 699
f 637 680 694
f 637 711 665
f 711 648 685
f 638 637 694
f 684 679 688
f 682 603 689
f 697 687 688
f 686 689 683
f 686 683 679
f 697 682 687
f 682 681 684
f 688 681 697
f 689 697 683
f 687 682 684
f 681 688 679
f 603 682 714
f 714 668 611
f 715 698 624
f 599 649 611
f 733 521 715
f 670 644 701
f 702 669 726
f 669 702 703
f 703 700 669
f 670 700 703
f 644 702 726
f 736 644 726
f 521 733 649
f 649 650 704
f 671 649 646
f 704 608 671
f 672 619 722
f 722 586 672
f 704 601 705
f 608 704 728
f 708 706 675
f 706 674 675
f 706 676 674
f 708 675 653
f 586 708 672
f 656 653 675
f 728 704 705
f 655 676 707
f 586 655 707
f 708 707 706
f 707 676 706
f 708 586 707
f 708 678 728
f 632 728 677
f 653 678 708
f 728 632 672
f 695 693 691
f 603 695 689
f 627 695 603
f 710 695 691
f 713 693 695
f 710 691 712
f 693 713 692
f 648 711 667
f 709 689 695
f 691 692 712
f 710 709 695
f 690 710 712
f 713 709 690
f 690 692 713
f 692 690 712
f 713 667 709
f 667 689 709
f 714 697 667
f 689 667 697
f 697 714 682
f 667 696 714
f 696 668 714
f 698 715 648
f 644 714 731
f 644 731 701
f 702 644 670
f 701 669 700
f 702 670 703
f 701 726 669
f 670 701 700
f 704 723 724
f 622 725 724
f 723 620 724
f 646 724 727
f 728 672 708
f 715 699 648
f 713 695 627
f 731 717 730
f 731 714 717
f 730 719 731
f 716 732 718
f 720 719 730
f 714 716 717
f 719 720 718
f 721 716 718
f 716 721 734
f 715 624 729
f 732 719 718
f 719 732 731
f 730 721 720
f 731 732 716
f 717 716 734
f 717 734 730
f 734 721 730
f 720 721 718
f 731 716 733
f 716 714 611
f 701 731 726
f 715 729 733
f 716 611 649
f 649 733 716
f 733 726 731
f 704 724 649
f 736 729 722
f 735 620 621
f 646 735 621
f 646 649 724
f 621 725 622
f 724 620 622
f 646 727 735
f 620 725 621
f 735 725 620
f 621 723 646
f 621 620 723
f 727 725 735
f 727 724 725
f 704 646 723
f 704 671 646
f 627 667 713
f 667 627 648
f 733 729 736
f 726 733 736
f 312 304 301

