# https://github.com/mikedh/trimesh
v 0.20389906 0.20938472 0.89331484
v 0.20389906 0.20938472 0.88941485
v 0.20383906 0.20949472 0.62769485
v 0.20389906 0.20938472 0.85816485
v 0.20389906 0.20938472 0.85425484
v 0.20383906 0.20949472 0.36988485
v 0.20383906 0.20949472 0.37378484
v 0.20389906 0.20938472 0.36988485
v 0.20383906 0.20949472 0.72534484
v 0.20383906 0.20949472 0.72925484
v 0.20358242 0.22849850 0.72599286
v 0.20389906 0.20938472 0.72534484
v 0.20389906 0.20938472 0.84253484
v 0.20383906 0.20949472 0.88159484
v 0.20383906 0.20949472 0.79956484
v 0.20383906 0.20949472 0.80347484
v 0.20389906 0.20938472 0.79956484
v 0.20389906 0.20938472 0.79175484
v 0.20383906 0.20949472 0.79175484
v 0.20389906 0.20938472 0.78784484
v 0.20389906 0.20938472 0.11206485
v 0.20383906 0.20949472 0.14331485
v 0.20383906 0.20949472 0.13941485
v 0.20389906 0.20938472 0.13941485
v 0.20389906 0.20938472 0.30347484
v 0.20383906 0.20949472 0.23706485
v 0.20383906 0.20949472 0.23316485
v 0.20389906 0.20938472 0.23316485
v 0.20383906 0.20949472 0.19019485
v 0.20389906 0.20938472 0.18628486
v 0.20389906 0.20938472 0.19019485
v 0.20383906 0.20949472 0.38550484
v 0.20389906 0.20938472 0.79566485
v 0.20383906 0.20949472 0.30347484
v 0.22586656 0.20633723 0.19855499
v 0.20383906 0.20949472 0.45581484
v 0.20389906 0.20938472 0.16675484
v 0.20383906 0.20949472 0.27613485
v -0.15798172 0.20594387 -0.82230234
v 0.20389906 0.20938472 0.42847484
v 0.20389906 0.20938472 0.43238485
v -0.19660071 0.16104068 -0.42351627
v 0.00747343 0.30984035 -0.71971047
v 0.01248905 0.31108472 -0.71604514
v -0.15547094 0.20558472 -0.79417515
v -0.17693548 0.20557535 -0.77831638
v -0.14766096 0.20558472 -0.80198514
v -0.14375094 0.20558472 -0.80589515
v -0.14383096 0.20558472 -0.80589515
v -0.12780145 0.20581287 -0.84036392
v 0.01252905 0.31105471 -0.68479514
v -0.04970116 0.20167474 -0.57956916
v -0.04219095 0.20167473 -0.58714515
v -0.13203096 0.20558472 -0.81761515
v 0.20383906 0.20949472 0.32300484
v -0.12813094 0.20558472 -0.82151514
v -0.12804095 0.20558472 -0.82151514
v -0.12422095 0.20558472 -0.82542515
v -0.14766096 0.20558472 -0.80210513
v -0.14777096 0.20558472 -0.80198514
v -0.20272589 -0.29806376 -0.58218712
v -0.15156095 0.20558472 -0.79807514
v -0.13956738 0.20558290 -0.81008190
v -0.01977305 0.20898780 -0.78491682
v 0.01392905 0.30714473 -0.65428078
v -0.03173460 0.20123875 -0.56160980
v 0.01513956 0.31196439 -0.78050703
v -0.15170224 0.20558472 -0.79809445
v 0.01248905 0.31108472 -0.61839515
v 0.01248905 0.31108472 -0.61448514
v 0.01252905 0.31105471 -0.61839515
v 0.01252905 0.31105471 -0.66917515
v 0.01252905 0.31105471 -0.66526514
v 0.01248905 0.31108472 -0.66526514
v -0.15156095 0.20563473 -0.80198514
v 0.01252905 0.31105471 -0.70042515
v -0.12813094 0.20558472 -0.82143515
v 0.01248905 0.31108472 -0.65354514
v 0.01248905 0.31108472 -0.66136515
v 0.01252905 0.31105471 -0.63401514
v 0.01252905 0.31105471 -0.63011515
v 0.01248905 0.31108472 -0.63011515
v -0.14299625 0.20558538 -0.80699736
v 0.01248905 0.31108472 -0.67698514
v 0.01248905 0.31108472 -0.71214515
v 0.01248905 0.31108472 -0.63792515
v 0.01248905 0.31108472 -0.63401514
v 0.01252905 0.31105471 -0.63792515
v 0.01248905 0.31108472 -0.64182514
v 0.20383906 0.20949472 0.18628486
v 0.20389906 0.20938472 0.18238485
v -0.05933691 0.20218574 -0.61168134
v -0.12347474 0.20558125 -0.82600272
v -0.13199095 0.20558472 -0.81761515
v -0.13221554 0.20558462 -0.81726575
v -0.04219095 0.20177473 -0.59495515
v -0.10130427 0.20480774 -0.78405148
v 0.01252905 0.31105471 -0.71604514
v 0.01252905 0.31105471 -0.67698514
v 0.01248905 0.31108472 -0.66917515
v 0.20389906 0.20938472 0.17456485
v 0.20389906 0.20938472 0.17066485
v 0.20389906 0.20938472 0.29175484
v -0.12422095 0.20553473 -0.82151514
v 0.00724155 0.30933222 -0.64182830
v -0.04741265 0.20167419 -0.58154213
v 0.01252905 0.31105471 -0.70432514
v 0.01252905 0.31105471 -0.69261515
v 0.01252905 0.31105471 -0.68089515
v 0.01248905 0.31108472 -0.68089515
v -0.04612792 0.20167473 -0.58331138
v -0.04609095 0.20167473 -0.58323514
v 0.01392905 0.30714473 -0.72679079
v 0.01248905 0.31108472 -0.65745515
v 0.02028905 0.30714473 -0.27464515
v 0.02028905 0.30324474 -0.27464515
v 0.01392905 0.30714473 -0.62767017
v -0.03437433 0.20167473 -0.59495896
v 0.20376904 0.21339473 0.13550486
v 0.20389906 0.20938472 0.11597485
v 0.20383906 0.20949472 0.15894485
v 0.20389906 0.20938472 0.15503486
v 0.20389906 0.20938472 0.15894485
v 0.01392905 0.30714473 -0.67454392
v -0.05391095 0.04542473 -0.27460515
v 0.20383906 0.20949472 0.55738485
v 0.20383906 0.20949472 0.55347484
v 0.20389906 0.20938472 0.55347484
v 0.20383906 0.20949472 0.54175484
v 0.20383906 0.20949472 0.14722484
v 0.20389906 0.20938472 0.14331485
v 0.20389906 0.20938472 0.10034485
v 0.20389906 0.20938472 0.09644485
v 0.20383906 0.20949472 0.70581484
v 0.20389906 0.20938472 0.21753486
v 0.01251546 0.31106627 -0.61428106
v 0.20383906 0.20949472 0.71753484
v 0.20383906 0.20949472 0.60034484
v 0.20383906 0.20949472 0.60425484
v 0.20389906 0.20938472 0.60034484
v -0.03047095 0.20163472 -0.59495515
v -0.05391095 0.04933473 -0.27460515
v 0.20376904 0.21339473 0.25366858
v 0.20383906 0.20949472 0.26050484
v -0.05389095 0.04542473 -0.27464515
v -0.03634938 0.00521926 -0.08383071
v -0.05391095 0.05714473 -0.27460515
v -0.05389095 0.05324473 -0.27464515
v -0.05389095 0.04152473 -0.27464515
v -0.05391095 0.06886473 -0.27460515
v -0.05391095 0.06496473 -0.27460515
v -0.05389095 0.06496473 -0.27464515
v -0.05389095 0.05714473 -0.27464515
v -0.05391095 0.06105473 -0.27460515
v -0.05389095 0.06105473 -0.27464515
v 0.20389906 0.20938472 0.29956484
v -0.03828095 0.20167473 -0.59104514
v -0.03438095 0.20167473 -0.59494513
v -0.03828095 0.20167473 -0.59108514
v -0.03014863 0.20167519 -0.59908515
v 0.01248905 0.31108472 -0.70042515
v 0.01248905 0.31108472 -0.69651514
v 0.01252905 0.31105471 -0.64964515
v 0.01252905 0.31105471 -0.64573514
v 0.01248905 0.31108472 -0.64573514
v -0.04609095 0.20177473 -0.59104514
v -0.04219095 0.20167473 -0.58721513
v -0.04226095 0.20167473 -0.58714515
v -0.03831095 0.20167473 -0.59104514
v 0.20389906 0.20938472 0.26050484
v 0.20389906 0.20938472 0.20972484
v 0.20383906 0.20949472 0.20972484
v 0.20389906 0.20938472 0.20581485
v -0.05623661 0.01977956 -0.26732144
v -0.05389095 0.07667473 -0.27464515
v -0.05389095 0.08058473 -0.27464515
v -0.05389095 0.04933473 -0.27464515
v -0.05391095 0.05324473 -0.27460515
v -0.06075658 0.05899476 -0.25738227
v -0.05391095 0.08449473 -0.27460515
v -0.05391095 0.08058473 -0.27460515
v -0.05391095 0.07667473 -0.27460515
v -0.05389095 0.06886473 -0.27464515
v -0.05391095 0.07277472 -0.27460515
v -0.05389095 0.07277472 -0.27464515
v -0.05389095 0.08449473 -0.27464515
v -0.04718016 0.06111582 -0.29050553
v -0.05390323 0.08535842 -0.27462056
v 0.20383906 0.20949472 0.29956484
v 0.20389906 0.20938472 0.29566485
v 0.20383906 0.20949472 0.16284485
v 0.20389906 0.20938472 0.35034484
v 0.20779906 0.20628473 0.35669735
v 0.20389906 0.20938472 0.35425484
v 0.20383906 0.20949472 0.25659484
v 0.20383906 0.20949472 0.45191485
v 0.20389906 0.20938472 0.45191485
v 0.20383906 0.20949472 0.36206484
v 0.20383906 0.20949472 0.36597484
v 0.20389906 0.20938472 0.36206484
v 0.20389906 0.20938472 0.30738485
v 0.20383906 0.20949472 0.30738485
v 0.20383906 0.20949472 0.45972484
v 0.20389906 0.20938472 0.45581484
v 0.20389906 0.20938472 0.45972484
v 0.17089044 0.29405111 -0.00114836
v 0.20389906 0.20938472 0.12769485
v 0.20389906 0.20938472 0.21363485
v 0.20383906 0.20949472 0.24878484
v 0.20383906 0.20949472 0.24488485
v 0.20389906 0.20938472 0.24488485
v 0.20383906 0.20949472 0.11597485
v 0.20376904 0.21339473 0.11206860
v 0.20383906 0.20949472 0.19800484
v 0.20383906 0.20949472 0.19409485
v 0.20389906 0.20938472 0.19409485
v 0.20389906 0.20938472 0.25659484
v 0.20389906 0.20938472 0.25269485
v 0.20389906 0.20938472 0.16284485
v 0.20383906 0.20949472 0.29175484
v 0.20389906 0.20938472 0.28784484
v 0.20389906 0.20938472 0.13159485
v 0.20383906 0.20949472 0.22144485
v 0.20389906 0.20938472 0.26441485
v 0.20383906 0.20949472 0.20581485
v 0.20389906 0.20938472 0.20191485
v 0.20389906 0.20938472 0.28394485
v 0.20383906 0.20949472 0.28394485
v 0.20389906 0.20938472 0.28003484
v 0.20383906 0.20949472 0.24097484
v 0.20383906 0.20949472 0.13550484
v 0.20389906 0.20938472 0.36597484
v 0.20383906 0.20949472 0.22925484
v 0.20383906 0.20949472 0.22534485
v 0.20389906 0.20938472 0.22534485
v 0.20389906 0.20938472 0.31909484
v 0.20389906 0.20938472 0.32300484
v 0.20383906 0.20949472 0.20191485
v 0.20389906 0.20938472 0.19800484
v 0.20389906 0.20938472 0.40894485
v 0.20389906 0.20938472 0.47534484
v 0.20389906 0.20938472 0.47925484
v 0.20389906 0.20938472 0.34253484
v 0.20389906 0.20938472 0.33863485
v 0.20389906 0.20938472 0.27613485
v 0.20389906 0.20938472 0.27222484
v 0.20389906 0.20938472 0.37769485
v 0.20383906 0.20949472 0.41284484
v 0.20389906 0.20938472 0.41284484
v 0.20383906 0.20949472 0.41675484
v 0.02233905 0.31105471 -0.27464515
v 0.02420905 -0.12253527 -0.12627515
v -0.01818942 -0.25215015 0.02958394
v 0.20376904 0.21339473 0.17700985
v 0.20389906 0.20938472 0.22144485
v 0.20383906 0.20949472 0.25269485
v 0.20389906 0.20938472 0.24878484
v 0.20383906 0.20949472 0.08863485
v 0.20383906 0.20949472 0.32691485
v 0.00837405 0.31151974 -0.62474012
v 0.02481718 -0.15378527 -0.12644514
v -0.01530643 -0.11543867 -0.10028520
v 0.20383906 0.20949472 0.34644485
v 0.20383906 0.20949472 0.35034484
v 0.20389906 0.20938472 0.34644485
v 0.20389906 0.20938472 0.22925484
v 0.20383906 0.20949472 0.29566485
v 0.20389906 0.20938472 0.40113485
v 0.20383906 0.20949472 0.16675484
v 0.20383906 0.20949472 0.42847484
v 0.20383906 0.20949472 0.43238485
v 0.20389906 0.20938472 0.11988485
v 0.20383906 0.20949472 0.09644485
v 0.20389906 0.20938472 0.09253485
v 0.20389906 0.20938472 0.13550484
v 0.20383906 0.20949472 0.09253485
v 0.20383906 0.20949472 0.28784484
v 0.20389906 0.20938472 0.43628484
v 0.20389906 0.20938472 0.23706485
v 0.20383906 0.20949472 0.10034485
v 0.20383906 0.20949472 0.31128484
v 0.19347592 -0.04963260 -0.39786673
v 0.20383906 0.20949472 0.43628484
v 0.20383906 0.20949472 0.10425485
v 0.20383906 0.20949472 0.15113485
v 0.20383906 0.20949472 0.10816485
v 0.20383906 0.20949472 0.11206485
v 0.20389906 0.20938472 0.10816485
v 0.20383906 0.20949472 0.26831484
v 0.20383906 0.20949472 0.26441485
v 0.20383906 0.20949472 0.18238485
v 0.20383906 0.20949472 0.17847484
v 0.20389906 0.20938472 0.17847484
v 0.20389906 0.20938472 0.44800484
v 0.20383906 0.20949472 0.37769485
v 0.20389906 0.20938472 0.37378484
v 0.20383906 0.20949472 0.21753486
v 0.20383906 0.20949472 0.28003484
v 0.01248905 0.31108472 -0.69261515
v 0.20383906 0.20949472 0.31909484
v 0.20389906 0.20938472 0.12378486
v 0.20383906 0.20949472 0.27222484
v 0.01248905 0.31108472 -0.64964515
v 0.01248905 0.31108472 -0.67307514
v 0.07615075 0.13748150 -0.03460231
v 0.20376904 0.21339473 0.68897170
v 0.20389906 0.20938472 0.26831484
v 0.20389906 0.20938472 0.10425485
v 0.06717905 0.10795473 -0.02854515
v 0.06326905 0.10795473 -0.02854515
v 0.06717905 0.10792473 -0.02854515
v 0.20383906 0.20949472 0.33863485
v 0.11014905 0.10795473 -0.02854515
v 0.10623905 0.10795473 -0.02854515
v 0.11014905 0.10792473 -0.02854515
v 0.20376904 0.21339473 0.20239860
v 0.01252905 0.31105471 -0.71995515
v 0.05154905 -0.12253527 -0.12627515
v 0.05545905 -0.12253527 -0.12627515
v 0.05154905 -0.12243527 -0.12620515
v 0.20383906 0.20949472 0.13159485
v 0.20389906 0.20938472 0.42066485
v 0.20389906 0.20938472 0.41675484
v 0.20389906 0.20938472 0.33472484
v 0.01822243 0.31106910 -0.22579364
v 0.20389906 0.20938472 0.39722484
v -0.02579639 -0.13394301 -0.15678117
v 0.02029905 -0.12243527 -0.12620515
v 0.02420905 -0.12243527 -0.12620515
v 0.20383906 0.20949472 0.59644485
v 0.13505030 -0.12193527 -0.07082515
v 0.02029905 -0.12253527 -0.12627515
v 0.03982905 -0.12253527 -0.12627515
v 0.20389906 0.20938472 0.56128484
v 0.01639751 -0.12244519 -0.12623774
v 0.03982905 -0.12243527 -0.12620515
v 0.02811905 -0.12253527 -0.12627515
v 0.01639905 -0.12243527 -0.12620515
v 0.03201905 -0.12253527 -0.12627515
v 0.05936905 -0.12253527 -0.12627515
v 0.05545905 -0.12243527 -0.12620515
v 0.04373905 -0.12253527 -0.12627515
v 0.04764905 -0.12253527 -0.12627515
v 0.04373905 -0.12243527 -0.12620515
v 0.04764905 -0.12243527 -0.12620515
v 0.02811905 -0.12243527 -0.12620515
v 0.20383906 0.20949472 0.17066485
v 0.03201905 -0.12243527 -0.12620515
v 0.09812673 0.08182204 -0.02313913
v 0.05936905 -0.12243527 -0.12620515
v 0.20389906 0.20938472 0.33081484
v 0.01248905 0.31108472 -0.68870515
v 0.01248905 0.31108472 -0.68479514
v 0.01252905 0.31105471 -0.68870515
v 0.07498905 0.10795473 -0.02854515
v 0.20389906 0.20938472 0.14722484
v 0.20389906 0.20938472 0.08081485
v 0.20389906 0.20938472 0.08472485
v 0.01252905 0.31105471 -0.69651514
v 0.01248905 0.31108472 -0.62620515
v 0.01248905 0.31108472 -0.62229514
v 0.01488287 0.26967719 -0.58715373
v 0.01248905 0.31108472 -0.70432514
v 0.02596600 0.30929995 -0.28785858
v 0.07107905 0.10795473 -0.02854515
v 0.07107905 0.10792473 -0.02854515
v 0.09451905 -0.12253527 -0.12627515
v 0.09061905 -0.12243527 -0.12620515
v 0.09061905 -0.12253527 -0.12627515
v 0.00721593 0.30931285 -0.67729157
v 0.01252905 0.31105471 -0.65745515
v 0.01252905 0.31105471 -0.66136515
v 0.02025385 0.30715579 -0.27453223
v 0.01392905 0.30714473 -0.69871324
v 0.01252905 0.31105471 -0.62229514
v 0.04674857 0.10557199 -0.02834461
v 0.01252905 0.31105471 -0.70823514
v 0.01252905 0.31105471 -0.62620515
v 0.01248905 0.31108472 -0.70823514
v 0.01252905 0.31105471 -0.67307514
v 0.01252905 0.31105471 -0.64182514
v 0.01252905 0.31105471 -0.71214515
v 0.02029905 0.30714473 -0.27470514
v 0.02029905 0.30324474 -0.27470514
v 0.20389906 0.20938472 0.31128484
v 0.20389906 0.20938472 0.49097484
v 0.01252905 0.31105471 -0.65354514
v 0.02029905 0.29933473 -0.27470514
v 0.20383906 0.20949472 0.15503486
v 0.20383906 0.20949472 0.17456485
v 0.20389906 0.20938472 0.08863485
v 0.07889905 -0.12243527 -0.12620515
v 0.03592905 -0.12243527 -0.12620515
v 0.03592905 -0.12253527 -0.12627515
v 0.08084936 -0.15396777 -0.12667453
v 0.14115155 -0.15378527 -0.12644514
v 0.06717905 -0.12243527 -0.12620515
v 0.07107905 -0.12253527 -0.12627515
v 0.07107905 -0.12243527 -0.12620515
v 0.06326905 -0.12253527 -0.12627515
v 0.06326905 0.10792473 -0.02854515
v 0.05936905 0.10795473 -0.02854515
v 0.07498905 0.10792473 -0.02854515
v 0.07889905 0.10792473 -0.02854515
v 0.08670905 0.10792473 -0.02854515
v 0.08279905 0.10795473 -0.02854515
v 0.08279905 0.10792473 -0.02854515
v 0.07889905 0.10795473 -0.02854515
v 0.20383906 0.20949472 0.35816485
v 0.20779906 0.20628473 0.11084735
v 0.11014905 -0.12243527 -0.12620515
v 0.09842905 -0.12253527 -0.12627515
v 0.10232905 -0.12253527 -0.12627515
v 0.07889905 -0.12253527 -0.12627515
v 0.08279905 -0.12253527 -0.12627515
v 0.07498905 -0.12243527 -0.12620515
v 0.06717905 -0.12253527 -0.12627515
v 0.07498905 -0.12253527 -0.12627515
v 0.06326905 -0.12243527 -0.12620515
v 0.04630449 -0.11971920 -0.11368781
v 0.08670905 -0.12253527 -0.12627515
v 0.08279905 -0.12243527 -0.12620515
v 0.08670905 -0.12243527 -0.12620515
v 0.07938405 -0.12133528 -0.12229515
v 0.20383906 0.20949472 0.68628484
v 0.09061905 0.10792473 -0.02854515
v 0.08670905 0.10795473 -0.02854515
v 0.12186905 -0.12253527 -0.12627515
v 0.11795905 -0.12253527 -0.12627515
v 0.09061905 0.10795473 -0.02854515
v 0.11795905 0.10792473 -0.02854515
v 0.11404905 0.10795473 -0.02854515
v 0.11404905 0.10792473 -0.02854515
v 0.10232905 0.10792473 -0.02854515
v 0.20383906 0.20949472 0.51050484
v 0.10232905 0.10795473 -0.02854515
v 0.10623905 0.10792473 -0.02854515
v 0.20383906 0.20949472 -0.13401516
v 0.20385051 0.20945464 0.07881957
v 0.12186905 -0.12243527 -0.12620515
v 0.11795905 -0.12243527 -0.12620515
v 0.09451905 -0.12243527 -0.12620515
v 0.09842905 -0.12243527 -0.12620515
v 0.14529906 -0.12253527 -0.12627515
v 0.14920905 -0.12253527 -0.12627515
v 0.12967905 -0.12253527 -0.12627515
v 0.13357905 -0.12253527 -0.12627515
v 0.12967905 -0.12243527 -0.12620515
v 0.11014905 -0.12253527 -0.12627515
v 0.10623905 -0.12253527 -0.12627515
v 0.10232905 -0.12243527 -0.12620515
v 0.11404905 -0.12253527 -0.12627515
v 0.11404905 -0.12243527 -0.12620515
v 0.10623905 -0.12243527 -0.12620515
v 0.09451905 0.10792473 -0.02854515
v 0.09842905 0.10795473 -0.02854515
v 0.20383906 0.20949472 -0.33323514
v 0.20383906 0.20949472 -0.32932514
v 0.20389906 0.20938472 -0.33323514
v 0.14920905 0.10792473 -0.02854515
v 0.14529906 0.10795473 -0.02854515
v 0.14529906 0.10792473 -0.02854515
v 0.12186905 0.10795473 -0.02854515
v 0.20389906 0.20938472 0.49878484
v 0.20389906 0.20938472 0.49488485
v 0.09451905 0.10795473 -0.02854515
v 0.09842905 0.10792473 -0.02854515
v 0.11795905 0.10795473 -0.02854515
v 0.20389906 0.20938472 0.24097484
v 0.12186905 0.10792473 -0.02854515
v 0.22151081 0.20259401 -0.54926753
v 0.20389906 0.20938472 0.15113485
v 0.20383906 0.20949472 0.12378486
v 0.20383906 0.20949472 0.11988485
v 0.14920905 -0.12243527 -0.12620515
v 0.15311906 -0.12253527 -0.12627515
v 0.15311906 -0.12243527 -0.12620515
v 0.12576906 -0.12253527 -0.12627515
v 0.13748904 -0.12243527 -0.12620515
v 0.14139906 -0.12243527 -0.12620515
v 0.14139906 -0.12253527 -0.12627515
v 0.15701906 -0.12253527 -0.12627515
v 0.12576906 -0.12243527 -0.12620515
v 0.13357905 -0.12243527 -0.12620515
v 0.14529906 -0.12243527 -0.12620515
v 0.13748904 -0.12253527 -0.12627515
v 0.20383906 0.20949472 0.42066485
v 0.14139906 0.10795473 -0.02854515
v 0.12576906 0.10795473 -0.02854515
v 0.12576906 0.10792473 -0.02854515
v 0.16637769 -0.12245054 -0.12623024
v 0.13357905 0.10795473 -0.02854515
v 0.13748904 0.10795473 -0.02854515
v 0.13748904 0.10792473 -0.02854515
v 0.14139906 0.10792473 -0.02854515
v 0.12967905 0.10795473 -0.02854515
v 0.12967905 0.10792473 -0.02854515
v 0.13357905 0.10792473 -0.02854515
v 0.14920905 0.10795473 -0.02854515
v 0.15311906 0.10795473 -0.02854515
v 0.15311906 0.10792473 -0.02854515
v 0.12374345 0.12371145 -0.03189988
v 0.14627501 0.17396671 -0.36708781
v 0.20389906 0.20938472 -0.36057514
v 0.20389906 0.20938472 -0.36448514
v 0.20389906 0.20938472 -0.30979514
v 0.20389906 0.20938472 -0.31370515
v 0.16122770 0.08662630 -0.02402466
v 0.15573265 0.18491389 -0.30035114
v 0.20383906 0.20949472 -0.38401514
v 0.20383906 0.20949472 -0.36448514
v 0.20389906 0.20938472 -0.32542515
v 0.18998745 0.25261807 -0.28520289
v 0.20389906 0.20938472 -0.50901514
v 0.20383906 0.20949472 -0.50901514
v 0.20389906 0.20938472 -0.51292515
v 0.20383906 0.20949472 0.39722484
v 0.20383906 0.20949472 0.40113485
v 0.20389906 0.20938472 -0.33714515
v 0.20383906 0.20949472 -0.07932515
v 0.20383906 0.20949472 -0.07542515
v 0.20389906 0.20938472 -0.07932515
v 0.18045905 0.21339473 -0.27850515
v 0.20389906 0.20938472 -0.27073514
v 0.28176498 0.21385302 -0.25585824
v 0.20383906 0.20949472 -0.09886515
v 0.18045905 0.22902472 -0.27850515
v 0.20383906 0.20949472 -0.43089515
v 0.20383906 0.20949472 -0.42698514
v 0.20389906 0.20938472 -0.43089515
v 0.20383906 0.20949472 -0.39182514
v 0.20383906 0.20949472 -0.34886515
v 0.20383906 0.20949472 -0.35276514
v 0.20389906 0.20938472 -0.35276514
v 0.20383906 0.20949472 -0.42307514
v 0.20383906 0.20949472 -0.41917515
v 0.20389906 0.20938472 -0.42307514
v 0.20383906 0.20949472 -0.23557515
v 0.17484111 0.25596598 -0.28047946
v 0.20518623 0.20807296 -0.06624165
v 0.15701906 -0.12243527 -0.12620515
v 0.16092905 -0.12243527 -0.12620515
v 0.20389906 0.20938472 -0.50511515
v 0.20383906 0.20949472 -0.50511515
v 0.20376904 0.21339473 0.16089486
v 0.16092905 -0.12253527 -0.12627515
v 0.16482905 -0.12253527 -0.12627515
v 0.22899352 0.00882617 -0.05392851
v 0.18126072 -0.04924611 -0.34429836
v 0.18826906 -0.04443527 -0.34886515
v 0.18826906 -0.04441527 -0.34495515
v 0.20779906 0.20628473 -0.09849515
v 0.16482905 0.10792473 -0.02854515
v 0.16092905 0.10795473 -0.02854515
v 0.16092905 0.10792473 -0.02854515
v 0.30153048 -0.17413625 -0.20908095
v 0.20389906 0.20938472 -0.34104514
v 0.20389906 0.20938472 -0.34495515
v 0.18830904 -0.04440527 -0.34886515
v 0.18828905 -0.04440527 -0.34495515
v 0.20389906 0.20938472 0.32691485
v 0.15701906 0.10792473 -0.02854515
v 0.15701906 0.10795473 -0.02854515
v 0.16482905 0.10795473 -0.02854515
v 0.16873904 0.10792473 -0.02854515
v 0.20389906 0.20938472 -0.09886515
v 0.16873904 0.10795473 -0.02854515
v 0.20389906 0.20938472 -0.50120515
v 0.20389906 0.20938472 -0.32932514
v 0.17161569 0.11119334 -0.02912118
v 0.17264906 0.10792473 -0.02854515
v 0.21668766 0.15800612 -0.02365638
v 0.20389906 0.20938472 -0.36839515
v 0.20389906 0.20938472 -0.37229514
v 0.20389906 0.20938472 -0.40354514
v 0.20383906 0.20949472 -0.40354514
v 0.20389906 0.20938472 -0.40745515
v 0.20656881 -0.03282444 -0.31208518
v 0.20389906 0.20938472 -0.12620515
v 0.20389906 0.20938472 -0.12229515
v 0.20383906 0.20949472 -0.12229515
v 0.20389906 0.20938472 -0.46214515
v 0.20383906 0.20949472 -0.46214515
v 0.20389906 0.20938472 -0.46604514
v 0.20389906 0.20938472 -0.38401514
v 0.20389906 0.20938472 -0.38011515
v 0.20383906 0.20949472 -0.38011515
v 0.19217905 0.19770473 -0.22386515
v 0.19212905 0.19777472 -0.21995515
v 0.19217905 0.19770473 -0.21995515
v 0.19212905 0.19777472 -0.22386515
v 0.19212905 0.19777472 -0.22776516
v 0.20383906 0.20949472 -0.45432514
v 0.20389906 0.20938472 -0.29807514
v 0.20383906 0.20949472 -0.29807514
v 0.20389906 0.20938472 -0.30198514
v 0.20389906 0.20938472 -0.48948514
v 0.20389906 0.20938472 -0.49339515
v 0.20383906 0.20949472 -0.34495515
v 0.20389906 0.20938472 -0.34886515
v 0.20389906 0.20938472 -0.38792515
v 0.19217905 0.19770473 -0.25901514
v 0.20383906 0.20949472 -0.11057515
v 0.20389906 0.20938472 -0.25901514
v 0.20383906 0.20949472 -0.21995515
v 0.20389906 0.20938472 -0.09104515
v 0.20383906 0.20949472 -0.09104515
v 0.20389906 0.20938472 -0.09495515
v 0.20376904 0.21339473 -0.50950515
v 0.20383906 0.20949472 -0.52073514
v 0.20383906 0.20949472 -0.51682514
v 0.20389906 0.20938472 -0.52073514
v 0.20383906 0.20949472 -0.48167515
v 0.20383906 0.20949472 -0.47776514
v 0.20389906 0.20938472 -0.48167515
v 0.20389906 0.20938472 -0.43870515
v 0.18832605 -0.04440726 -0.35299355
v 0.20376904 0.21339473 -0.44651639
v 0.20383906 0.20949472 -0.47386515
v 0.20383906 0.20949472 -0.46995515
v 0.20389906 0.20938472 -0.47386515
v 0.19212905 0.19777472 -0.25511515
v 0.19217905 0.19770473 -0.25511515
v 0.20383906 0.20949472 -0.45042515
v 0.20389906 0.20938472 -0.41917515
v 0.20389906 0.20938472 -0.41526514
v 0.20383906 0.20949472 -0.41526514
v 0.20389906 0.20938472 -0.48557514
v 0.20383906 0.20949472 -0.41136515
v 0.20389906 0.20938472 -0.31761515
v 0.20383906 0.20949472 -0.31761515
v 0.20389906 0.20938472 -0.32151514
v 0.20383906 0.20949472 -0.39964515
v 0.20389906 0.20938472 -0.39182514
v 0.20383906 0.20949472 -0.39573514
v 0.20389906 0.20938472 -0.26292515
v 0.20389906 0.20938472 -0.26682514
v 0.20383906 0.20949472 -0.36057514
v 0.20383906 0.20949472 -0.37229514
v 0.20389906 0.20938472 -0.37620515
v 0.17611930 0.19297077 -0.28091788
v 0.17602623 0.21164246 -0.28029272
v 0.18045905 0.22121473 -0.27850515
v 0.20383906 0.20949472 -0.32542515
v 0.20383906 0.20949472 -0.32151514
v 0.18037906 0.22121473 -0.27854514
v 0.18045905 0.21730472 -0.27850515
v 0.18037906 0.21730472 -0.27854514
v 0.20389906 0.20938472 -0.21995515
v 0.20389906 0.20938472 -0.22386515
v 0.20383906 0.20949472 -0.30589515
v 0.20383906 0.20949472 -0.30198514
v 0.20389906 0.20938472 -0.30589515
v 0.20389906 0.20938472 -0.41136515
v 0.20389906 0.20938472 -0.39964515
v 0.20389906 0.20938472 -0.29417515
v 0.20383906 0.20949472 -0.12620515
v 0.20383906 0.20949472 -0.08714515
v 0.20389906 0.20938472 -0.08714515
v 0.21795313 0.18349344 -0.22034080
v 0.19217905 0.19770473 -0.25120515
v 0.20383906 0.20949472 -0.13011515
v 0.20389906 0.20938472 -0.13401516
v 0.20376904 0.21339473 -0.08811890
v 0.20383906 0.20949472 -0.08323515
v 0.20383906 0.20949472 -0.09495515
v 0.20389906 0.20938472 -0.10667515
v 0.20389906 0.20938472 -0.11057515
v 0.18578057 0.31309107 -0.27544037
v 0.18037906 0.23292473 -0.27854514
v 0.20389906 0.20938472 -0.39573514
v 0.20389906 0.20938472 -0.51682514
v 0.20383906 0.20949472 -0.50120515
v 0.20383906 0.20949472 -0.33714515
v 0.20389906 0.20938472 -0.35667515
v 0.18037906 0.22511473 -0.27854514
v 0.18045905 0.22511473 -0.27850515
v 0.18037906 0.22902472 -0.27854514
v 0.20389906 0.20938472 -0.16917515
v 0.20389906 0.20938472 -0.17307515
v 0.18045905 0.23292473 -0.27850515
v 0.20389906 0.20938472 -0.16526516
v 0.20383906 0.20949472 -0.16526516
v 0.20389906 0.20938472 -0.08323515
v 0.20389906 0.20938472 -0.10276515
v 0.20389906 0.20938472 -0.46995515
v 0.20376904 0.21339473 -0.42161390
v 0.20389906 0.20938472 -0.49729514
v 0.20383906 0.20949472 -0.49729514
v 0.20383906 0.20949472 -0.49339515
v 0.20389906 0.20938472 -0.42698514
v 0.20389906 0.20938472 -0.45823514
v 0.20383906 0.20949472 -0.38792515
v 0.20383906 0.20949472 -0.45823514
v 0.20389906 0.20938472 -0.47776514
v 0.20383906 0.20949472 -0.40745515
v 0.20383906 0.20949472 -0.44651514
v 0.20383906 0.20949472 -0.44261515
v 0.20389906 0.20938472 -0.44651514
v 0.20383906 0.20949472 -0.48557514
v 0.20389906 0.20938472 -0.45042515
v 0.20383906 0.20949472 -0.43870515
v 0.20383906 0.20949472 -0.43479514
v 0.20376904 0.21339473 0.27906108
v 0.20383906 0.20949472 0.21363485
v 0.18826906 -0.04444527 -0.35276514
v 0.20376904 0.21339473 0.55371857
v 0.20383906 0.20949472 0.42456484
v 0.18826906 -0.04440527 -0.34114516
v 0.20389906 0.20938472 -0.23557515
v 0.20389906 0.20938472 -0.23948514
v 0.20389906 0.20938472 -0.29026514
v 0.19212905 0.19777472 -0.20042515
v 0.19212905 0.19777472 -0.25120515
v 0.20383906 0.20949472 0.34253484
v 0.19212905 0.19777472 -0.25901514
v 0.20383906 0.20949472 0.08472485
v 0.20383906 0.20949472 -0.25511515
v 0.20389906 0.20938472 -0.20432515
v 0.24490905 0.20649473 0.27881610
v 0.20389906 0.20938472 -0.18870515
v 0.19217905 0.19770473 -0.23167515
v 0.19212905 0.19777472 -0.23167515
v 0.20383906 0.20949472 -0.10276515
v 0.19212905 0.19777472 -0.19651516
v 0.20383906 0.20949472 -0.20823514
v 0.20383906 0.20949472 -0.20432515
v 0.20389906 0.20938472 -0.20823514
v 0.20389906 0.20938472 -0.22776516
v 0.20371287 0.21064481 -0.19565503
v 0.20383906 0.20949472 -0.16917515
v 0.18365906 0.22316349 -0.27464515
v 0.20389906 0.20938472 -0.28636515
v 0.20389906 0.20938472 -0.16136515
v 0.20383906 0.20949472 -0.16136515
v 0.20383906 0.20949472 -0.28245515
v 0.20383906 0.20949472 -0.27854514
v 0.20389906 0.20938472 -0.28245515
v 0.20383906 0.20949472 -0.25120515
v 0.21772005 0.28998199 -0.26492047
v 0.20383906 0.20949472 -0.31370515
v 0.20383906 0.20949472 -0.30979514
v 0.22635405 0.20638973 -0.21952718
v 0.20389906 0.20938472 -0.25511515
v 0.19217905 0.19770473 -0.20042515
v 0.19217905 0.19770473 -0.22776516
v 0.20383906 0.20949472 -0.28636515
v 0.20383906 0.20949472 -0.23167515
v 0.20383906 0.20949472 -0.22776516
v 0.20389906 0.20938472 -0.23167515
v 0.20389906 0.20938472 0.35816485
v 0.20389906 0.20938472 -0.45432514
v 0.20383906 0.20949472 -0.29026514
v 0.20383906 0.20949472 -0.34104514
v 0.19217905 0.19770473 -0.23948514
v 0.19212905 0.19777472 -0.23557515
v 0.19217905 0.19770473 -0.23557515
v 0.19212905 0.19777472 -0.26682514
v 0.20389906 0.20938472 -0.27854514
v 0.14639406 0.23560573 -0.14051969
v 0.20389906 0.20938472 -0.17698514
v 0.19212905 0.21254246 -0.22007687
v 0.20376904 0.21339473 -0.14573453
v 0.20389906 0.20938472 -0.18479516
v 0.20389906 0.20938472 -0.44261515
v 0.20383906 0.20949472 -0.24729516
v 0.20389906 0.20938472 -0.25120515
v 0.20389906 0.20938472 -0.27464515
v 0.20383906 0.20949472 -0.27464515
v 0.19217905 0.19770473 -0.21214515
v 0.19212905 0.19777472 -0.20823514
v 0.19217905 0.19770473 -0.20823514
v 0.20383906 0.20949472 -0.27073514
v 0.19212905 0.19777472 -0.24729516
v 0.19212905 0.19777472 -0.26292515
v 0.19212905 0.19777472 -0.23948514
v 0.20383906 0.20949472 -0.29417515
v 0.19212905 0.19777472 -0.24339515
v 0.20383906 0.20949472 -0.23948514
v 0.20389906 0.20938472 -0.18089515
v 0.20383906 0.20949472 -0.35667515
v 0.19217905 0.19770473 -0.26292515
v 0.19217905 0.19770473 -0.24729516
v 0.19217905 0.19770473 -0.24339515
v 0.20383906 0.20949472 -0.22386515
v 0.20389906 0.20938472 -0.24729516
v 0.20383906 0.20949472 -0.26292515
v 0.20389906 0.20938472 -0.21604516
v 0.19212905 0.19777472 -0.21604516
v 0.19217905 0.19770473 -0.20432515
v 0.20383906 0.20949472 -0.14964515
v 0.20383906 0.20949472 -0.14573514
v 0.20389906 0.20938472 -0.14964515
v 0.19212905 0.19777472 -0.21214515
v 0.20383906 0.20949472 -0.17307515
v 0.20383906 0.20949472 -0.25901514
v 0.19212905 0.19777472 -0.20432515
v 0.20389906 0.20938472 -0.21214515
v 0.20389906 0.20938472 -0.15354516
v 0.20383906 0.20949472 -0.15354516
v 0.20389906 0.20938472 -0.15745515
v 0.19212905 0.22415504 -0.19112995
v 0.20389906 0.20938472 -0.13792515
v 0.20389906 0.20938472 -0.14182515
v 0.20389906 0.20938472 -0.14573514
v 0.24423030 0.20673849 -0.44554013
v 0.20383906 0.20949472 0.12769485
v 0.20383906 0.20949472 -0.51292515
v 0.20389906 0.20938472 -0.52464515
v 0.19428803 0.25826219 -0.56706452
v 0.20383906 0.20949472 -0.48948514
v 0.20383906 0.20949472 -0.46604514
v 0.20389906 0.20938472 -0.43479514
v 0.20376904 0.21339473 -0.46458390
v 0.20383906 0.20949472 -0.37620515
v 0.22758085 0.21614632 -0.37936658
v 0.20383906 0.20949472 -0.36839515
v 0.20779906 0.20628473 -0.33348015
v 0.20376904 0.21339473 -0.32957390
v 0.20383906 0.20949472 -0.21214515
v 0.20383906 0.20949472 -0.26682514
v 0.20383906 0.20949472 -0.18089515
v 0.20383906 0.20949472 -0.21604516
v 0.20383906 0.20949472 -0.24339515
v 0.20389906 0.20938472 -0.24339515
v 0.20376904 0.21339473 -0.23167390
v 0.19217905 0.19770473 -0.21604516
v 0.20386833 0.20940180 -0.18896584
v 0.20383906 0.20949472 -0.18479516
v 0.20383906 0.20949472 -0.10667515
v 0.20383906 0.20949472 -0.15745515
v 0.20383906 0.20949472 -0.17698514
v 0.20383906 0.20949472 -0.14182515
v 0.20389906 0.20938472 -0.13011515
v 0.22586656 0.20633723 -0.14597984
v 0.20383906 0.20949472 -0.11839515
v 0.20376904 0.21339473 -0.11302015
v 0.20383906 0.20949472 -0.13792515
v 0.20389906 0.20938472 -0.11448515
v 0.20383906 0.20949472 -0.11448515
v 0.20389906 0.20938472 -0.11839515
v 0.20383906 0.20949472 0.44019485
v 0.20376904 0.21339473 0.08814235
v 0.20383906 0.20949472 0.33081484
v 0.20376904 0.21339473 0.34863985
v 0.20389906 0.20938472 0.31519485
v 0.20389906 0.20938472 0.44019485
v 0.20389906 0.20938472 0.38941485
v 0.20383906 0.20949472 0.38941485
v 0.20389906 0.20938472 0.38550484
v 0.20376904 0.21339473 0.52417731
v 0.20389906 0.20938472 0.42456484
v 0.20376904 0.21339473 0.37622860
v 0.20383906 0.20949472 0.33472484
v 0.20389906 0.20938472 0.38159484
v 0.20376904 0.21339473 0.30005485
v 0.20383906 0.20949472 0.40503484
v 0.20376904 0.21339473 0.40259609
v 0.20383906 0.20949472 0.31519485
v 0.20389906 0.20938472 0.39331484
v 0.20383906 0.20949472 0.47925484
v 0.20383906 0.20949472 0.40894485
v 0.20389906 0.20938472 0.40503484
v 0.20383906 0.20949472 0.35425484
v 0.20383906 0.20949472 0.51441485
v 0.20389906 0.20938472 0.51050484
v 0.20383906 0.20949472 0.46753484
v 0.20383906 0.20949472 0.47144485
v 0.20389906 0.20938472 0.46753484
v 0.20383906 0.20949472 0.38159484
v 0.20389906 0.20938472 0.47144485
v 0.20383906 0.20949472 0.44800484
v 0.20389906 0.20938472 0.46363485
v 0.20383906 0.20949472 0.46363485
v 0.20389906 0.20938472 0.53784484
v 0.20389906 0.20938472 0.54175484
v 0.20389906 0.20938472 0.48316485
v 0.22635405 0.20638973 0.49823657
v 0.20383906 0.20949472 0.52222484
v 0.20389906 0.20938472 0.51831484
v 0.20389906 0.20938472 0.52222484
v 0.20383906 0.20949472 0.49488485
v 0.20383906 0.20949472 0.48316485
v 0.20389906 0.20938472 0.51441485
v 0.20383906 0.20949472 0.51831484
v 0.20389906 0.20938472 0.44409484
v 0.20383906 0.20949472 0.39331484
v 0.20383906 0.20949472 0.54566485
v 0.20389906 0.20938472 0.50659484
v 0.20389906 0.20938472 0.50269485
v 0.20779906 0.20628473 0.54737109
v 0.20389906 0.20938472 0.60425484
v 0.20383906 0.20949472 0.50659484
v 0.20383906 0.20949472 0.52613485
v 0.20383906 0.20949472 0.47534484
v 0.20383906 0.20949472 0.44409484
v 0.20383906 0.20949472 0.48706484
v 0.20389906 0.20938472 0.53003484
v 0.20383906 0.20949472 0.64331484
v 0.20383906 0.20949472 0.64722484
v 0.20376904 0.21339473 0.63355231
v 0.20389906 0.20938472 0.64331484
v 0.20383906 0.20949472 0.49097484
v 0.20389906 0.20938472 0.48706484
v 0.20383906 0.20949472 0.50269485
v 0.20389906 0.20938472 0.53394485
v 0.20389906 0.20938472 0.55738485
v 0.20383906 0.20949472 0.49878484
v 0.20389906 0.20938472 0.67456484
v 0.20389906 0.20938472 0.67066485
v 0.20383906 0.20949472 0.53394485
v 0.20389906 0.20938472 0.52613485
v 0.20383906 0.20949472 0.53003484
v 0.20389906 0.20938472 0.54566485
v 0.20389906 0.20938472 0.54956484
v 0.20383906 0.20949472 0.54956484
v 0.20383906 0.20949472 0.57691485
v 0.20389906 0.20938472 0.57300484
v 0.20389906 0.20938472 0.57691485
v 0.20383906 0.20949472 0.53784484
v 0.20389906 0.20938472 0.56519485
v 0.20383906 0.20949472 0.56519485
v 0.20383906 0.20949472 0.56909484
v 0.20389906 0.20938472 0.56909484
v 0.20389906 0.20938472 0.58081484
v 0.20389906 0.20938472 0.58472484
v 0.20389906 0.20938472 0.59644485
v 0.20383906 0.20949472 0.56128484
v 0.20383906 0.20949472 0.58472484
v 0.20383906 0.20949472 0.58863485
v 0.20383906 0.20949472 0.60816485
v 0.20383906 0.20949472 0.57300484
v 0.20383906 0.20949472 0.61988485
v 0.20389906 0.20938472 0.58863485
v 0.20376904 0.21339473 0.87403172
v 0.20383906 0.20949472 0.58081484
v 0.20389906 0.20938472 0.59253484
v 0.20383906 0.20949472 0.59253484
v 0.20383906 0.20949472 0.61206484
v 0.20389906 0.20938472 0.60816485
v 0.20389906 0.20938472 0.61206484
v 0.20383906 0.20949472 0.65503484
v 0.20376904 0.21339473 0.66138482
v 0.20389906 0.20938472 0.65503484
v 0.20389906 0.20938472 0.65113485
v 0.20389906 0.20938472 0.61597484
v 0.20389906 0.20938472 0.61988485
v 0.20383906 0.20949472 0.61597484
v 0.20389906 0.20938472 0.64722484
v 0.20389906 0.20938472 0.66284484
v 0.20389906 0.20938472 0.62769485
v 0.20389906 0.20938472 0.63159484
v 0.20383906 0.20949472 0.62378484
v 0.20376904 0.21339473 0.59741986
v 0.20389906 0.20938472 0.65894485
v 0.20383906 0.20949472 0.63159484
v 0.20389906 0.20938472 0.68628484
v 0.20389906 0.20938472 0.62378484
v 0.20383906 0.20949472 0.63550484
v 0.20376904 0.21339473 0.49487984
v 0.20389906 0.20938472 0.63550484
v 0.20389906 0.20938472 0.63941485
v 0.20383906 0.20949472 0.65894485
v 0.20389906 0.20938472 0.66675484
v 0.20383906 0.20949472 0.65113485
v 0.20389906 0.20938472 0.72144485
v 0.20389906 0.20938472 0.71753484
v 0.20383906 0.20949472 0.63941485
v 0.20383906 0.20949472 0.67456484
v 0.20383906 0.20949472 0.71363485
v 0.20389906 0.20938472 0.70972484
v 0.20389906 0.20938472 0.71363485
v 0.20389906 0.20938472 0.68238485
v 0.20383906 0.20949472 0.68238485
v 0.20383906 0.20949472 0.70972484
v 0.20383906 0.20949472 0.67066485
v 0.20389906 0.20938472 0.70581484
v 0.20383906 0.20949472 0.66284484
v 0.20383906 0.20949472 0.66675484
v 0.20389906 0.20938472 0.69800484
v 0.20389906 0.20938472 0.75269485
v 0.20376904 0.21339473 0.44751608
v 0.20383906 0.20949472 0.69019485
v 0.20389906 0.20938472 0.69019485
v 0.20383906 0.20949472 0.67847484
v 0.20389906 0.20938472 0.67847484
v 0.20383906 0.20949472 0.73316485
v 0.20383906 0.20949472 0.70191485
v 0.20389906 0.20938472 0.70191485
v 0.20383906 0.20949472 0.69800484
v 0.20389906 0.20938472 0.69409484
v 0.20383906 0.20949472 0.69409484
v 0.20383906 0.20949472 0.78003484
v 0.20383906 0.20949472 0.72144485
v 0.20389906 0.20938472 0.72925484
v 0.20389906 0.20938472 0.73706484
v 0.20383906 0.20949472 0.73706484
v 0.20389906 0.20938472 0.73316485
v 0.20389906 0.20938472 0.76050484
v 0.20389906 0.20938472 0.75659484
v 0.20389906 0.20938472 0.77222484
v 0.20383906 0.20949472 0.77222484
v 0.20389906 0.20938472 0.76831484
v 0.20376904 0.21339473 0.75220484
v 0.20389906 0.20938472 0.74488485
v 0.20389906 0.20938472 0.74097484
v 0.20389906 0.20938472 0.78394485
v 0.20383906 0.20949472 0.77613485
v 0.20383906 0.20949472 0.74488485
v 0.20383906 0.20949472 0.78784484
v 0.20376904 0.21339473 0.78443110
v 0.20383906 0.20949472 0.74097484
v 0.20383906 0.20949472 0.82300484
v 0.20389906 0.20938472 0.77613485
v 0.20389906 0.20938472 0.74878484
v 0.20383906 0.20949472 0.80738485
v 0.20389906 0.20938472 0.76441485
v 0.20389906 0.20938472 0.78003484
v 0.20383906 0.20949472 0.75269485
v 0.20383906 0.20949472 0.74878484
v 0.20383906 0.20949472 0.76831484
v 0.20383906 0.20949472 0.75659484
v 0.20389906 0.20938472 0.86597484
v 0.20383906 0.20949472 0.76050484
v 0.20383906 0.20949472 0.78394485
v 0.20389906 0.20938472 0.81519485
v 0.20383906 0.20949472 0.76441485
v 0.20389906 0.20938472 0.83081484
v 0.20389906 0.20938472 0.82691485
v 0.20389906 0.20938472 0.83863485
v 0.20383906 0.20949472 0.83863485
v 0.20389906 0.20938472 0.83472484
v 0.20383906 0.20949472 0.81128484
v 0.20389906 0.20938472 0.80738485
v 0.20389906 0.20938472 0.82300484
v 0.20389906 0.20938472 0.85034484
v 0.20383906 0.20949472 0.85034484
v 0.20389906 0.20938472 0.84644485
v 0.20389906 0.20938472 0.81909484
v 0.20383906 0.20949472 0.83472484
v 0.20389906 0.20938472 0.88550484
v 0.20383906 0.20949472 0.79566485
v 0.20389906 0.20938472 0.81128484
v 0.20376904 0.21339473 0.84400111
v 0.20389906 0.20938472 0.80347484
v 0.20779906 0.20628473 0.80127674
v 0.20383906 0.20949472 0.87769485
v 0.20389906 0.20938472 0.87769485
v 0.20383906 0.20949472 0.88941485
v 0.20383906 0.20949472 0.89331484
v 0.20383906 0.20949472 0.82691485
v 0.20383906 0.20949472 0.84253484
v 0.20383906 0.20949472 0.84644485
v 0.20376904 0.21339473 0.82105231
v 0.20383906 0.20949472 0.81519485
v 0.20383906 0.20949472 0.87378484
v 0.20383906 0.20949472 0.83081484
v 0.20389906 0.20938472 0.87378484
v 0.20389906 0.20938472 0.86988485
v 0.20383906 0.20949472 0.81909484
v 0.20389906 0.20938472 0.86206484
v 0.20389906 0.20938472 0.91284484
v 0.20383906 0.20949472 0.91284484
v 0.20389906 0.20938472 0.90894485
v 0.20389906 0.20938472 0.88159484
v 0.20383906 0.20949472 0.86988485
v 0.20383906 0.20949472 0.90894485
v 0.20389906 0.20938472 0.90503484
v 0.20383906 0.20949472 0.85816485
v 0.20383906 0.20949472 0.85425484
v 0.20383906 0.20949472 0.90503484
v 0.20389906 0.20938472 0.90113485
v 0.20383906 0.20949472 0.91675484
v 0.20383906 0.20949472 0.86597484
v 0.20383906 0.20949472 0.86206484
v 0.20389906 0.20938472 0.89722484
v 0.20383906 0.20949472 0.88550484
v 0.20768084 0.20611541 0.91035467
v 0.20383906 0.20949472 0.90113485
v 0.20383906 0.20949472 0.92066485
v 0.20383906 0.20949472 0.89722484
v 0.20383906 0.20949472 0.92456484
v 0.20389906 0.20938472 0.92066485
v 0.20389906 0.20938472 0.91675484
v 0.20376904 0.21339473 -0.21067640
v 0.20376904 0.21339473 -0.16892891
v 0.24490905 0.20649473 0.84473300
v 0.22392260 0.20989421 0.98715436
v 0.20376904 0.21339473 -0.29075640
v 0.20376904 0.21339473 0.42261484
v 0.20376904 0.21339473 0.32886484
v 0.20376904 0.21339473 -0.39915389
v 0.27972564 0.21704423 -0.48896912
v 0.20376904 0.21339473 -0.36570638
v 0.20376904 0.21339473 0.47534984
v 0.20376904 0.21339473 0.80493987
v 0.20118375 -0.17662351 -0.13588344
v 0.20779906 0.20628473 0.23169610
v 0.28201905 0.20670472 0.14771485
v 0.20376904 0.21339473 0.22681423
v 0.20376904 0.21339473 -0.06956390
v 0.20376904 0.21339473 -0.48509139
v 0.20779906 0.20628473 0.08350297
v 0.20779906 0.20628473 0.84082860
v 0.20779906 0.20628473 0.58399236
v 0.20387998 0.28727460 0.89930868
v 0.22542113 0.20703213 0.71091950
v 0.22675955 0.20423840 0.63930351
v 0.20779906 0.20628473 -0.36204514
v 0.26778886 0.21244138 0.43784553
v 0.28313601 0.21283010 0.32690132
v 0.28286901 0.20818740 -0.28747326
v 0.40290403 0.20061788 -0.98784417
v 0.28185874 0.20755880 0.38715327
v 0.28266621 0.21239565 0.76019961
v 0.22068615 0.26551870 0.60025537
v 0.20446821 0.30339974 0.28441787
v 0.28259811 0.08349565 -0.88308817
v 0.33676130 0.20174593 -0.96773893
v 0.34072596 0.20167473 -0.96625429
v 0.34049904 0.20167473 -0.96604514
v 0.33670905 0.20167473 -0.96214515
v 0.33966041 0.20118994 -0.92469716
v 0.33657250 0.20167473 -0.96215880
v 0.36728016 0.20154651 -0.98563129
v 0.30931550 0.20188081 -0.98875982
v 0.26264891 0.21421009 -0.01904259
v 0.33279905 0.20167473 -0.95823514
v 0.34452415 0.20167474 -0.96999121
v 0.34061906 0.20167473 -0.96604514
f 1 2 1078
f 4 5 1104
f 6 7 853
f 6 8 7
f 9 10 11
f 12 10 9
f 15 16 1096
f 17 16 15
f 18 19 20
f 22 23 24
f 119 23 22
f 26 27 28
f 1100 27 26
f 29 30 31
f 17 15 33
f 40 1110 41
f 45 46 97
f 47 97 48
f 49 47 48
f 56 57 58
f 59 60 47
f 62 45 97
f 62 68 45
f 60 68 62
f 54 50 95
f 69 70 71
f 124 72 73
f 72 74 73
f 39 46 45
f 56 77 57
f 74 79 73
f 117 80 81
f 80 82 81
f 68 75 39
f 97 47 62
f 47 60 62
f 50 39 63
f 46 61 42
f 86 87 88
f 64 46 42
f 89 105 86
f 30 90 91
f 86 260 87
f 94 95 77
f 39 61 46
f 95 50 63
f 68 39 45
f 59 47 49
f 83 49 48
f 100 370 74
f 49 83 39
f 60 59 75
f 101 102 35
f 104 77 97
f 94 77 56
f 75 59 39
f 94 56 54
f 94 54 95
f 93 50 58
f 374 51 109
f 51 110 109
f 97 95 63
f 56 50 54
f 68 60 75
f 83 48 63
f 93 64 50
f 93 57 104
f 59 49 39
f 39 50 61
f 63 48 97
f 39 83 63
f 503 42 61
f 57 93 58
f 57 77 104
f 79 105 114
f 77 95 97
f 97 93 104
f 115 116 373
f 124 374 109
f 50 56 58
f 64 61 50
f 124 109 99
f 109 84 99
f 97 64 93
f 64 97 46
f 120 21 410
f 121 122 123
f 126 127 128
f 126 707 127
f 130 22 131
f 130 119 22
f 1103 132 133
f 117 71 136
f 71 70 136
f 138 139 954
f 139 138 140
f 160 141 362
f 142 125 179
f 149 125 145
f 187 174 149
f 150 151 179
f 150 152 151
f 187 149 145
f 153 147 154
f 154 151 155
f 157 158 159
f 66 158 157
f 160 118 141
f 161 370 162
f 65 163 164
f 163 165 164
f 187 148 153
f 166 92 111
f 167 166 168
f 168 111 112
f 92 52 111
f 52 42 66
f 53 157 169
f 53 66 157
f 42 503 362
f 171 172 173
f 327 61 253
f 106 111 52
f 146 327 253
f 503 61 327
f 159 96 169
f 118 159 158
f 148 147 153
f 187 175 176
f 177 178 148
f 125 174 179
f 187 177 148
f 327 174 187
f 125 142 145
f 178 147 148
f 179 147 178
f 179 174 146
f 149 174 125
f 157 159 169
f 154 147 179
f 153 154 155
f 155 151 152
f 178 142 179
f 178 177 142
f 167 168 53
f 145 142 177
f 187 153 155
f 187 145 177
f 187 155 152
f 151 154 179
f 180 181 179
f 180 176 181
f 179 181 182
f 152 150 183
f 188 503 187
f 183 184 185
f 150 184 183
f 184 150 179
f 176 180 186
f 106 112 111
f 175 182 181
f 176 175 181
f 187 185 175
f 186 187 176
f 187 183 185
f 188 187 186
f 188 180 179
f 186 180 188
f 179 503 188
f 187 152 183
f 182 185 184
f 182 175 185
f 184 179 182
f 179 146 503
f 503 146 760
f 92 166 96
f 156 189 190
f 191 121 123
f 191 545 121
f 192 193 194
f 196 36 982
f 197 36 196
f 198 199 853
f 198 200 199
f 201 202 25
f 203 204 205
f 66 106 52
f 42 52 92
f 166 111 168
f 96 167 169
f 166 167 96
f 53 112 106
f 53 168 112
f 92 118 160
f 64 42 92
f 167 53 169
f 96 159 118
f 92 96 118
f 66 42 362
f 66 53 106
f 35 135 208
f 209 210 211
f 209 143 210
f 214 215 216
f 215 214 316
f 217 195 218
f 219 191 123
f 103 220 221
f 1099 222 207
f 720 224 170
f 225 226 173
f 227 228 229
f 216 215 31
f 232 193 8
f 233 234 235
f 234 233 1100
f 55 236 237
f 226 238 239
f 241 878 242
f 243 244 1111
f 720 245 246
f 248 249 250
f 1090 248 250
f 327 262 253
f 146 253 262
f 256 209 257
f 143 209 256
f 263 264 845
f 263 265 264
f 1099 131 24
f 267 220 103
f 267 856 220
f 270 40 271
f 1090 270 271
f 272 120 410
f 35 239 216
f 273 274 133
f 275 231 222
f 276 273 843
f 273 276 274
f 232 200 193
f 277 228 227
f 277 856 228
f 278 41 1110
f 271 283 982
f 271 41 283
f 135 255 223
f 225 238 226
f 316 238 225
f 146 174 327
f 286 287 213
f 287 286 288
f 720 170 217
f 281 202 201
f 281 856 202
f 245 38 246
f 289 290 224
f 704 290 289
f 291 292 293
f 292 291 254
f 196 294 197
f 295 296 247
f 239 214 216
f 218 257 720
f 44 43 85
f 290 144 170
f 290 143 144
f 135 297 208
f 298 38 245
f 298 704 38
f 212 21 120
f 199 232 6
f 853 199 6
f 35 216 31
f 162 370 299
f 856 300 1091
f 410 301 272
f 227 229 720
f 187 503 327
f 304 370 100
f 118 158 141
f 286 308 288
f 309 310 311
f 309 305 310
f 313 314 315
f 314 313 305
f 113 317 98
f 317 44 98
f 64 160 362
f 141 158 66
f 64 92 160
f 141 66 362
f 318 319 320
f 222 321 207
f 322 323 1110
f 244 324 1111
f 189 267 190
f 856 267 189
f 262 327 335
f 262 328 329
f 332 252 328
f 1103 133 274
f 221 277 227
f 261 337 252
f 338 332 328
f 327 253 61
f 319 340 341
f 335 261 332
f 327 261 335
f 342 343 344
f 420 345 320
f 332 261 252
f 328 252 329
f 262 335 338
f 420 336 344
f 335 332 338
f 329 337 346
f 347 269 37
f 347 254 269
f 346 339 348
f 262 329 420
f 420 329 346
f 252 337 329
f 262 338 328
f 256 257 218
f 342 261 343
f 324 351 1111
f 352 353 354
f 232 8 6
f 35 235 255
f 356 130 131
f 357 1103 358
f 61 64 1118
f 360 260 361
f 87 82 80
f 374 359 108
f 359 299 108
f 43 44 317
f 44 85 98
f 108 352 354
f 374 108 354
f 370 64 362
f 309 365 305
f 366 365 309
f 367 368 369
f 363 161 107
f 27 233 266
f 27 1100 233
f 352 370 353
f 361 260 69
f 110 84 109
f 372 79 114
f 81 82 360
f 70 362 136
f 114 105 78
f 251 373 325
f 370 362 105
f 503 760 325
f 343 261 318
f 374 377 107
f 377 363 107
f 117 378 375
f 378 361 375
f 374 107 76
f 107 161 76
f 85 43 379
f 74 370 79
f 64 370 43
f 124 380 72
f 380 100 72
f 303 105 165
f 113 98 382
f 98 85 382
f 161 162 76
f 363 43 161
f 374 113 377
f 374 354 51
f 354 353 51
f 117 375 71
f 375 69 71
f 362 67 113
f 114 78 371
f 362 113 374
f 69 260 70
f 251 325 364
f 251 383 373
f 116 115 384
f 87 260 82
f 65 124 372
f 353 370 110
f 110 370 84
f 64 43 67
f 113 382 377
f 382 379 377
f 374 76 359
f 76 162 359
f 379 43 363
f 161 43 370
f 162 299 359
f 299 370 352
f 84 304 99
f 78 105 303
f 304 100 380
f 67 43 317
f 113 67 317
f 379 363 377
f 85 379 382
f 79 370 105
f 362 374 124
f 124 73 372
f 73 79 372
f 124 99 380
f 99 304 380
f 353 110 51
f 108 299 352
f 362 124 65
f 260 105 362
f 165 105 89
f 100 74 72
f 360 361 378
f 303 165 163
f 65 371 387
f 371 78 387
f 84 370 304
f 362 65 117
f 78 303 387
f 89 86 381
f 372 114 371
f 65 372 371
f 117 88 80
f 88 87 80
f 65 381 88
f 381 86 88
f 65 387 163
f 387 303 163
f 65 164 381
f 164 89 381
f 117 65 88
f 86 105 260
f 165 89 164
f 82 260 360
f 117 136 362
f 70 260 362
f 81 360 378
f 117 81 378
f 361 69 375
f 373 116 325
f 115 383 384
f 373 383 115
f 503 325 388
f 116 384 388
f 383 251 364
f 760 364 325
f 119 389 545
f 1099 275 222
f 292 390 101
f 292 254 390
f 24 23 275
f 263 243 265
f 391 358 1103
f 388 364 503
f 318 261 319
f 261 340 319
f 420 348 393
f 348 394 393
f 393 333 336
f 420 393 336
f 420 346 348
f 337 261 339
f 394 261 333
f 397 398 399
f 400 350 340
f 327 395 261
f 339 261 394
f 336 342 344
f 394 333 393
f 333 261 342
f 339 394 348
f 343 318 345
f 345 318 320
f 420 344 345
f 341 340 350
f 320 319 341
f 333 342 336
f 339 346 337
f 327 61 556
f 420 341 350
f 420 320 341
f 344 343 345
f 146 305 760
f 280 273 133
f 280 213 273
f 305 376 402
f 146 349 376
f 376 305 146
f 355 403 404
f 405 406 407
f 366 403 365
f 365 355 305
f 403 355 365
f 408 404 407
f 403 349 404
f 67 362 1118
f 364 509 503
f 384 364 388
f 325 116 388
f 364 384 383
f 257 209 211
f 720 257 211
f 287 288 21
f 101 390 102
f 340 261 400
f 412 395 413
f 414 395 415
f 416 414 392
f 400 395 417
f 419 417 397
f 414 415 392
f 417 395 398
f 400 261 395
f 418 395 414
f 420 419 397
f 395 369 421
f 415 395 421
f 424 397 399
f 398 395 418
f 417 398 397
f 398 418 399
f 422 421 423
f 262 331 556
f 421 369 423
f 420 350 419
f 400 417 419
f 424 399 416
f 424 416 392
f 418 414 416
f 399 418 416
f 420 397 424
f 350 400 419
f 415 421 422
f 392 415 422
f 424 392 422
f 423 369 368
f 424 422 423
f 424 423 368
f 420 331 262
f 426 427 405
f 396 428 429
f 405 349 426
f 408 355 404
f 355 408 305
f 401 349 311
f 376 349 401
f 404 349 407
f 402 376 401
f 310 402 401
f 402 310 305
f 310 401 311
f 406 408 407
f 406 305 408
f 427 430 305
f 427 426 430
f 311 349 366
f 366 349 403
f 366 309 311
f 406 427 305
f 405 427 406
f 407 349 405
f 431 432 433
f 432 313 433
f 432 305 313
f 285 130 356
f 130 285 119
f 436 314 305
f 436 437 314
f 102 347 37
f 24 131 22
f 429 428 441
f 331 442 443
f 444 396 445
f 446 447 448
f 327 61 282
f 449 395 396
f 450 395 449
f 443 413 451
f 327 396 395
f 413 450 451
f 449 452 411
f 420 424 331
f 424 442 331
f 367 395 412
f 453 429 441
f 369 395 367
f 442 412 443
f 413 395 450
f 449 396 452
f 441 428 440
f 450 449 454
f 452 396 429
f 331 443 451
f 412 413 443
f 331 411 453
f 430 426 455
f 556 61 327
f 327 146 548
f 331 451 454
f 331 454 411
f 331 453 441
f 454 449 411
f 331 441 440
f 451 450 454
f 452 429 453
f 424 368 442
f 367 412 442
f 368 367 442
f 411 452 453
f 457 458 819
f 459 458 457
f 720 217 218
f 349 146 548
f 437 436 434
f 460 461 462
f 464 465 878
f 466 430 455
f 430 466 305
f 426 349 455
f 434 456 467
f 434 349 437
f 455 349 467
f 432 468 502
f 432 431 468
f 466 455 467
f 1098 211 469
f 467 349 434
f 313 315 433
f 456 436 305
f 456 434 436
f 456 466 467
f 456 305 466
f 314 437 315
f 305 432 502
f 468 463 502
f 468 470 463
f 470 468 431
f 431 433 349
f 720 229 245
f 473 474 272
f 473 119 474
f 364 760 641
f 170 144 217
f 253 206 572
f 172 225 173
f 172 316 225
f 475 476 477
f 478 396 446
f 331 479 480
f 481 396 444
f 331 448 484
f 483 446 448
f 396 476 445
f 428 396 478
f 331 485 475
f 396 327 548
f 448 447 484
f 486 481 479
f 446 396 447
f 331 483 448
f 447 396 486
f 486 396 481
f 478 440 428
f 479 481 480
f 447 486 484
f 331 480 485
f 487 323 322
f 478 446 483
f 440 478 483
f 331 440 483
f 331 484 479
f 444 445 485
f 484 486 479
f 331 475 477
f 480 444 485
f 445 476 475
f 485 445 475
f 481 444 480
f 461 488 462
f 461 502 488
f 489 463 490
f 463 489 502
f 492 493 502
f 492 494 493
f 488 495 462
f 496 489 497
f 496 502 489
f 494 492 498
f 488 493 495
f 493 488 502
f 489 490 497
f 499 500 502
f 501 500 499
f 463 470 490
f 498 496 497
f 496 492 502
f 498 492 496
f 493 494 495
f 349 497 490
f 472 285 356
f 461 499 502
f 461 460 499
f 460 501 499
f 1109 504 505
f 349 315 437
f 502 760 305
f 349 433 315
f 349 470 431
f 506 507 1112
f 514 515 516
f 1099 472 356
f 517 326 518
f 858 517 518
f 459 457 519
f 520 521 1101
f 522 521 520
f 540 521 522
f 528 529 687
f 529 528 530
f 532 533 534
f 532 1094 533
f 535 536 687
f 536 535 537
f 213 843 273
f 35 208 171
f 331 541 542
f 514 543 544
f 282 61 556
f 476 396 482
f 396 548 1097
f 546 547 542
f 541 546 542
f 396 1097 547
f 547 1097 491
f 546 396 547
f 482 396 546
f 542 547 491
f 331 542 491
f 549 550 551
f 482 477 476
f 477 482 541
f 331 477 541
f 331 491 556
f 482 546 541
f 146 262 548
f 553 554 555
f 146 327 556
f 146 556 548
f 557 558 818
f 282 549 327
f 550 559 560
f 551 550 560
f 490 470 349
f 351 561 1111
f 500 501 562
f 563 500 562
f 500 563 570
f 554 564 570
f 554 553 564
f 565 564 553
f 554 563 555
f 554 570 563
f 502 572 760
f 553 555 508
f 563 562 555
f 502 500 570
f 568 543 1093
f 459 569 458
f 564 567 570
f 564 565 567
f 570 567 571
f 567 565 571
f 570 571 572
f 1109 573 574
f 575 576 577
f 508 555 562
f 349 498 497
f 390 347 102
f 254 347 390
f 579 580 581
f 582 583 584
f 512 569 818
f 586 587 585
f 588 589 590
f 591 592 762
f 594 595 596
f 597 598 1093
f 599 600 558
f 585 510 601
f 606 607 608
f 610 611 609
f 611 610 612
f 64 67 1118
f 613 614 1102
f 614 613 615
f 619 620 814
f 620 619 621
f 602 622 623
f 625 626 627
f 630 631 632
f 601 634 816
f 587 510 585
f 1092 510 587
f 636 637 525
f 504 638 505
f 639 640 574
f 364 513 509
f 644 645 819
f 644 512 645
f 646 647 643
f 642 523 648
f 649 650 743
f 648 523 647
f 651 652 1089
f 653 652 651
f 654 626 816
f 635 633 655
f 635 1092 633
f 642 641 523
f 656 594 1112
f 642 648 646
f 646 648 647
f 508 562 501
f 658 606 659
f 438 662 763
f 438 663 662
f 580 579 835
f 664 665 1101
f 666 607 664
f 607 666 608
f 667 668 552
f 539 670 681
f 635 531 1092
f 671 531 635
f 672 611 612
f 586 585 816
f 675 504 1109
f 676 643 677
f 642 678 670
f 678 676 677
f 679 680 835
f 670 527 681
f 642 676 678
f 364 642 539
f 364 641 642
f 539 642 670
f 642 646 676
f 646 643 676
f 678 677 527
f 458 644 819
f 458 569 644
f 678 527 670
f 682 683 679
f 539 681 669
f 684 522 520
f 522 684 552
f 685 667 552
f 665 659 684
f 686 621 806
f 515 544 609
f 514 544 515
f 688 568 1093
f 689 690 1102
f 690 689 688
f 633 575 655
f 691 529 530
f 362 471 810
f 634 601 693
f 598 690 688
f 692 694 582
f 615 613 628
f 695 621 619
f 697 698 618
f 698 697 699
f 597 628 700
f 699 701 806
f 584 686 806
f 702 703 618
f 703 702 616
f 364 539 669
f 669 513 364
f 265 1111 193
f 156 190 720
f 1099 122 472
f 208 705 171
f 491 1097 556
f 559 550 706
f 237 236 1111
f 1099 219 123
f 91 291 293
f 487 708 1090
f 487 322 708
f 559 578 560
f 709 560 578
f 560 709 551
f 548 262 556
f 282 578 617
f 710 711 743
f 549 706 550
f 1098 469 279
f 297 705 208
f 297 1100 705
f 617 559 706
f 617 578 559
f 549 709 578
f 709 549 551
f 714 622 513
f 715 263 845
f 715 243 263
f 578 282 503
f 706 549 617
f 578 327 549
f 549 282 617
f 654 577 696
f 495 494 508
f 215 29 31
f 215 316 29
f 35 226 239
f 199 200 232
f 622 716 513
f 508 494 498
f 439 717 843
f 439 357 717
f 705 172 171
f 172 705 1100
f 28 279 26
f 362 503 471
f 525 637 524
f 502 570 572
f 692 582 806
f 508 548 572
f 721 828 743
f 508 572 571
f 722 723 592
f 724 667 685
f 725 713 802
f 726 727 1085
f 727 726 728
f 650 729 743
f 730 719 828
f 647 523 732
f 508 462 495
f 508 349 548
f 498 349 508
f 680 679 731
f 501 460 508
f 29 90 30
f 254 90 29
f 614 619 814
f 695 619 614
f 736 737 1089
f 737 736 738
f 460 462 508
f 741 742 819
f 507 742 741
f 507 506 742
f 594 596 1112
f 507 630 818
f 508 565 553
f 745 713 725
f 632 645 512
f 571 565 508
f 746 592 591
f 747 712 733
f 748 749 826
f 749 748 750
f 760 572 548
f 602 716 622
f 246 302 307
f 531 693 1092
f 693 531 634
f 198 751 200
f 593 624 618
f 752 624 593
f 544 673 609
f 673 544 543
f 747 753 712
f 753 747 1089
f 722 592 746
f 558 557 754
f 511 638 1094
f 638 511 505
f 755 756 757
f 606 658 607
f 658 664 607
f 759 737 738
f 746 591 588
f 835 680 761
f 574 640 1109
f 599 754 819
f 599 558 754
f 819 742 1089
f 691 530 806
f 760 725 802
f 764 721 743
f 722 746 660
f 692 752 593
f 229 298 245
f 391 274 276
f 600 532 534
f 575 577 816
f 818 632 512
f 627 629 1092
f 629 627 626
f 698 702 618
f 702 698 765
f 739 766 740
f 766 739 767
f 818 519 557
f 660 755 757
f 558 1109 818
f 596 652 653
f 623 714 661
f 729 749 750
f 816 634 671
f 768 769 759
f 744 604 525
f 770 771 772
f 774 714 513
f 765 616 702
f 756 776 762
f 616 765 806
f 1089 777 753
f 777 656 753
f 753 656 712
f 1099 24 275
f 778 774 762
f 757 756 723
f 761 780 835
f 638 781 1094
f 638 504 781
f 509 782 660
f 760 732 641
f 661 774 783
f 588 591 589
f 784 755 660
f 826 785 1085
f 595 777 1089
f 777 595 594
f 786 767 525
f 592 723 762
f 596 653 1112
f 729 750 743
f 775 758 513
f 750 710 743
f 656 1112 712
f 776 778 762
f 589 591 762
f 774 513 762
f 789 589 762
f 731 683 1086
f 683 731 679
f 740 766 826
f 791 792 763
f 793 792 791
f 524 773 768
f 723 756 762
f 758 509 513
f 538 748 826
f 710 748 538
f 770 794 771
f 786 766 767
f 647 732 643
f 680 795 761
f 796 718 740
f 604 718 796
f 660 725 760
f 660 588 590
f 771 794 762
f 788 649 743
f 650 649 605
f 772 797 790
f 798 728 726
f 799 800 801
f 770 772 660
f 803 804 835
f 835 793 799
f 606 608 552
f 805 792 793
f 790 797 713
f 543 568 673
f 661 783 660
f 804 805 835
f 666 566 608
f 717 258 843
f 717 358 258
f 358 391 258
f 474 120 272
f 269 191 219
f 191 269 254
f 469 230 279
f 172 1100 316
f 807 473 301
f 119 473 807
f 293 292 101
f 316 254 29
f 212 474 213
f 212 120 474
f 543 514 1093
f 609 689 1102
f 808 515 609
f 515 808 516
f 688 689 568
f 621 695 806
f 624 697 618
f 701 697 624
f 673 689 609
f 689 673 568
f 809 810 471
f 611 808 609
f 672 808 611
f 612 809 471
f 672 516 808
f 514 516 1093
f 672 612 471
f 810 610 609
f 610 810 809
f 612 610 809
f 516 672 471
f 516 471 1093
f 695 615 806
f 696 576 1092
f 576 696 577
f 1093 598 688
f 752 701 624
f 615 1093 806
f 695 614 615
f 615 628 1093
f 597 811 598
f 690 811 1102
f 811 690 598
f 621 686 620
f 811 700 1102
f 597 700 811
f 700 613 1102
f 613 700 628
f 584 812 686
f 1102 614 814
f 814 694 618
f 701 752 806
f 752 692 806
f 806 582 584
f 583 694 814
f 694 583 582
f 628 597 1093
f 813 616 806
f 620 812 814
f 812 620 686
f 701 699 697
f 812 583 814
f 583 812 584
f 765 698 699
f 765 699 806
f 813 530 528
f 806 537 691
f 694 593 618
f 692 593 694
f 703 528 687
f 813 528 703
f 806 626 625
f 618 703 687
f 530 813 806
f 457 674 519
f 819 674 457
f 813 703 616
f 536 627 687
f 625 627 536
f 575 816 655
f 755 776 756
f 601 510 693
f 510 1092 693
f 654 629 626
f 625 536 537
f 627 1092 687
f 505 511 573
f 653 651 506
f 1092 587 1094
f 691 537 535
f 674 819 754
f 557 674 754
f 625 537 806
f 531 671 634
f 629 696 1092
f 696 629 654
f 529 535 687
f 691 535 529
f 1109 505 573
f 633 576 575
f 1092 576 633
f 626 806 816
f 818 569 459
f 816 585 601
f 577 654 816
f 782 716 602
f 671 655 816
f 587 815 1094
f 815 587 586
f 630 632 818
f 635 655 671
f 459 519 818
f 573 817 574
f 1109 586 816
f 1109 640 586
f 1109 534 675
f 815 639 1094
f 639 815 640
f 512 644 569
f 532 599 819
f 532 600 599
f 600 1109 558
f 817 1094 639
f 574 817 639
f 640 815 586
f 534 533 675
f 600 534 1109
f 511 817 573
f 511 1094 817
f 504 675 781
f 533 1094 781
f 675 533 781
f 794 789 762
f 1094 532 819
f 733 712 1112
f 519 674 557
f 653 506 1112
f 645 631 819
f 632 631 645
f 631 741 819
f 630 741 631
f 747 736 1089
f 736 747 733
f 768 759 525
f 710 750 748
f 661 714 774
f 507 818 1112
f 742 651 1089
f 506 651 742
f 798 820 788
f 507 741 630
f 716 775 513
f 656 777 594
f 602 623 660
f 652 595 1089
f 595 652 596
f 660 623 661
f 769 773 740
f 773 769 768
f 782 602 660
f 732 523 641
f 637 636 787
f 782 775 716
f 738 1112 525
f 783 784 660
f 821 787 740
f 637 787 821
f 758 775 782
f 509 758 782
f 797 771 802
f 713 797 802
f 677 643 732
f 681 527 732
f 677 732 527
f 746 588 660
f 772 771 797
f 737 769 1089
f 769 737 759
f 787 796 740
f 796 787 636
f 783 774 778
f 604 796 636
f 769 740 1089
f 524 768 525
f 590 589 789
f 733 738 736
f 738 733 1112
f 759 738 525
f 784 776 755
f 784 778 776
f 744 718 604
f 757 722 660
f 824 779 826
f 825 779 824
f 771 762 802
f 795 731 1086
f 680 731 795
f 525 604 636
f 637 821 524
f 773 821 740
f 821 773 524
f 757 723 722
f 783 778 784
f 734 682 835
f 623 622 714
f 767 744 525
f 745 725 660
f 766 824 826
f 824 766 786
f 779 538 826
f 538 779 711
f 825 824 786
f 718 739 740
f 739 718 744
f 744 767 739
f 825 711 779
f 825 786 525
f 825 525 743
f 711 825 743
f 788 823 649
f 827 789 794
f 605 823 1085
f 823 605 649
f 827 770 660
f 710 538 711
f 827 794 770
f 590 789 827
f 650 785 729
f 749 785 826
f 729 785 749
f 760 669 732
f 790 713 745
f 660 772 790
f 790 745 660
f 590 827 660
f 828 719 743
f 823 820 1085
f 820 823 788
f 1085 727 730
f 727 719 730
f 785 605 1085
f 605 785 650
f 820 726 1085
f 798 726 820
f 743 719 728
f 798 788 743
f 728 798 743
f 828 829 1086
f 829 828 721
f 719 727 728
f 683 735 1086
f 682 735 683
f 830 668 667
f 831 800 763
f 800 831 801
f 835 682 679
f 682 734 735
f 730 828 1086
f 780 743 835
f 764 829 721
f 743 780 764
f 800 791 763
f 791 800 799
f 780 761 832
f 822 832 1086
f 780 832 822
f 829 822 1086
f 822 829 764
f 780 822 764
f 832 795 1086
f 795 832 761
f 662 663 834
f 793 791 799
f 1086 831 763
f 734 801 831
f 735 831 1086
f 831 735 734
f 801 734 835
f 799 801 835
f 805 793 835
f 659 606 552
f 566 685 552
f 579 657 834
f 579 834 835
f 803 838 804
f 833 838 763
f 804 838 833
f 834 663 835
f 792 833 763
f 805 833 792
f 804 833 805
f 839 552 668
f 835 663 803
f 803 663 438
f 838 438 763
f 803 438 838
f 839 840 841
f 657 581 837
f 579 581 657
f 603 830 837
f 830 603 668
f 763 662 837
f 840 836 841
f 840 837 836
f 837 724 664
f 664 724 526
f 724 685 526
f 662 657 837
f 657 662 834
f 665 520 1101
f 520 665 684
f 580 836 581
f 836 837 581
f 521 540 1101
f 839 841 552
f 836 580 841
f 841 835 552
f 580 835 841
f 664 658 665
f 658 659 665
f 830 667 724
f 837 830 724
f 526 685 566
f 603 839 668
f 840 603 837
f 603 840 839
f 566 552 608
f 526 666 664
f 666 526 566
f 684 659 552
f 522 552 540
f 132 280 133
f 301 207 807
f 144 195 217
f 195 144 143
f 300 236 55
f 1091 300 55
f 720 103 221
f 439 206 572
f 410 308 132
f 119 213 474
f 720 25 156
f 283 842 982
f 278 842 283
f 121 389 122
f 545 389 121
f 211 210 469
f 249 323 250
f 254 316 1117
f 122 389 472
f 35 37 219
f 173 226 35
f 35 171 173
f 35 293 101
f 856 704 228
f 844 259 561
f 1091 259 844
f 389 285 472
f 389 119 285
f 357 358 717
f 321 807 207
f 321 119 807
f 1099 35 219
f 31 30 35
f 195 256 218
f 195 143 256
f 1099 356 131
f 21 212 287
f 212 213 287
f 23 231 275
f 23 119 231
f 1098 720 211
f 308 284 132
f 234 223 255
f 234 1100 223
f 284 286 213
f 286 284 308
f 410 288 308
f 266 233 235
f 191 254 545
f 224 307 289
f 35 102 37
f 264 265 192
f 1099 207 301
f 28 27 266
f 439 843 206
f 720 201 25
f 301 473 272
f 1099 301 410
f 224 720 307
f 258 276 843
f 258 391 276
f 238 214 239
f 238 316 214
f 32 849 853
f 32 850 849
f 1103 357 439
f 123 122 1099
f 37 269 219
f 751 194 193
f 1111 385 201
f 1103 410 132
f 143 1100 210
f 572 1103 439
f 312 715 845
f 715 312 244
f 720 246 307
f 235 234 255
f 561 237 1111
f 270 852 40
f 302 289 307
f 302 704 289
f 288 410 21
f 1098 28 266
f 845 854 312
f 854 324 312
f 230 26 279
f 230 1100 26
f 708 322 852
f 284 280 132
f 280 284 213
f 572 1127 1103
f 385 281 201
f 231 321 222
f 321 231 119
f 90 291 91
f 90 254 291
f 720 190 103
f 247 296 1114
f 391 1103 274
f 223 297 135
f 1100 297 223
f 35 30 91
f 228 298 229
f 704 298 228
f 35 91 293
f 143 290 704
f 224 290 170
f 135 35 255
f 720 1111 201
f 35 1098 235
f 210 230 469
f 230 210 1100
f 28 1098 279
f 1098 266 235
f 190 267 103
f 855 850 32
f 38 302 246
f 302 38 704
f 854 351 324
f 249 1110 323
f 720 221 227
f 241 242 861
f 220 277 221
f 277 220 856
f 236 846 1111
f 859 385 846
f 859 281 385
f 856 281 859
f 192 265 193
f 857 862 858
f 857 863 862
f 865 851 435
f 866 865 435
f 7 8 296
f 867 868 1095
f 869 868 867
f 326 1114 268
f 715 244 243
f 870 247 855
f 55 259 1091
f 237 259 55
f 34 189 156
f 34 856 189
f 25 34 156
f 871 869 1110
f 312 324 244
f 259 237 561
f 864 409 845
f 864 194 409
f 265 243 1111
f 192 194 864
f 202 34 25
f 34 202 856
f 846 385 1111
f 200 751 193
f 859 300 856
f 859 846 300
f 870 855 32
f 853 870 32
f 844 561 351
f 40 852 1110
f 844 854 1091
f 854 844 351
f 300 846 236
f 1091 854 845
f 409 194 751
f 855 247 1114
f 860 848 1114
f 409 198 845
f 409 751 198
f 296 8 193
f 264 192 864
f 845 264 864
f 848 850 1114
f 129 875 876
f 326 268 518
f 872 196 982
f 294 196 872
f 877 242 878
f 879 880 881
f 7 295 853
f 7 296 295
f 295 870 853
f 295 247 870
f 296 193 1114
f 198 853 845
f 855 1114 850
f 708 270 1090
f 708 852 270
f 862 863 240
f 861 883 1095
f 242 883 861
f 241 871 1110
f 386 878 465
f 884 880 885
f 871 868 869
f 40 41 271
f 849 850 848
f 886 847 1110
f 849 858 853
f 887 848 860
f 849 887 858
f 849 848 887
f 857 268 863
f 240 863 1110
f 863 268 1114
f 518 857 858
f 518 268 857
f 205 873 874
f 887 517 858
f 887 860 517
f 326 860 1114
f 517 860 326
f 889 890 878
f 863 1114 1110
f 197 294 1110
f 852 322 1110
f 982 203 1095
f 250 487 1090
f 250 323 487
f 36 203 982
f 204 203 36
f 892 140 1105
f 867 873 869
f 248 240 249
f 862 248 1090
f 862 240 248
f 249 240 1110
f 862 1090 858
f 204 36 197
f 847 842 278
f 435 893 889
f 435 851 893
f 204 197 1110
f 283 41 278
f 886 294 872
f 271 982 1090
f 847 278 1110
f 895 871 241
f 435 889 866
f 982 896 872
f 896 886 872
f 874 867 1095
f 873 867 874
f 842 896 982
f 847 896 842
f 896 847 886
f 886 1110 294
f 1095 203 874
f 203 205 874
f 883 960 1095
f 899 900 901
f 899 902 900
f 960 903 882
f 903 386 882
f 869 873 1110
f 904 877 878
f 205 1110 873
f 890 905 464
f 865 885 851
f 884 885 865
f 205 204 1110
f 906 898 891
f 891 334 907
f 908 465 464
f 386 465 882
f 851 960 893
f 868 895 1095
f 871 895 868
f 241 1110 878
f 909 910 1108
f 1095 895 861
f 895 241 861
f 912 878 891
f 904 897 877
f 883 897 960
f 877 897 883
f 888 876 914
f 885 879 851
f 880 879 885
f 914 915 916
f 865 866 884
f 903 904 386
f 917 918 919
f 894 881 912
f 883 242 877
f 386 904 878
f 897 903 960
f 904 903 897
f 908 905 960
f 464 905 908
f 913 912 898
f 911 920 851
f 906 920 911
f 880 884 878
f 129 888 707
f 888 129 876
f 882 908 960
f 465 908 882
f 875 906 891
f 128 915 891
f 884 866 878
f 905 893 960
f 890 893 905
f 334 921 922
f 923 921 924
f 890 464 878
f 1105 926 925
f 911 898 906
f 920 906 875
f 893 890 889
f 918 924 1105
f 866 889 878
f 891 898 912
f 891 914 876
f 894 879 881
f 894 851 879
f 913 911 851
f 911 913 898
f 927 1105 140
f 876 875 891
f 126 928 707
f 907 928 126
f 894 913 851
f 894 912 913
f 929 930 954
f 930 929 926
f 129 920 875
f 129 707 920
f 139 931 954
f 892 931 139
f 912 881 878
f 881 880 878
f 915 914 891
f 932 923 924
f 932 1116 923
f 928 907 334
f 928 922 707
f 922 928 334
f 707 851 920
f 924 921 1105
f 934 926 1105
f 888 916 707
f 916 888 914
f 1105 919 918
f 919 925 936
f 921 334 891
f 126 128 907
f 916 127 707
f 915 127 916
f 127 915 128
f 927 330 937
f 907 128 891
f 936 929 1116
f 925 929 936
f 938 330 954
f 938 937 330
f 922 1116 707
f 931 939 954
f 939 931 940
f 330 138 954
f 927 138 330
f 932 924 918
f 922 923 1116
f 922 921 923
f 932 917 1116
f 918 917 932
f 921 891 1105
f 929 925 926
f 1105 937 934
f 938 934 937
f 917 936 1116
f 936 917 919
f 138 927 140
f 925 919 1105
f 944 942 945
f 933 946 947
f 929 954 1116
f 926 934 930
f 930 938 954
f 934 938 930
f 927 937 1105
f 892 139 140
f 948 933 901
f 933 948 946
f 940 931 892
f 892 1105 1108
f 941 1108 946
f 951 1108 952
f 933 953 901
f 947 953 933
f 941 940 1108
f 946 948 941
f 939 948 954
f 941 948 939
f 950 955 1108
f 892 1108 940
f 939 940 941
f 3 956 901
f 951 956 3
f 947 946 1108
f 954 948 901
f 947 1108 958
f 952 956 951
f 958 953 947
f 953 3 901
f 3 953 958
f 3 958 951
f 962 961 1108
f 951 958 1108
f 961 959 952
f 956 959 901
f 952 959 956
f 961 952 1108
f 942 963 943
f 944 963 942
f 949 900 902
f 965 942 943
f 965 945 942
f 899 962 902
f 910 964 1108
f 966 967 1107
f 949 902 1108
f 962 968 961
f 969 910 909
f 970 971 972
f 959 968 901
f 961 968 959
f 945 949 1108
f 968 899 901
f 962 899 968
f 902 962 1108
f 900 965 943
f 949 965 900
f 965 949 945
f 901 900 943
f 955 944 1108
f 963 944 955
f 975 970 11
f 971 970 975
f 973 957 425
f 944 945 1108
f 976 969 943
f 910 969 976
f 964 950 1108
f 134 975 11
f 975 134 977
f 979 950 964
f 978 979 943
f 950 979 978
f 955 950 978
f 963 978 943
f 978 963 955
f 425 983 306
f 957 983 425
f 909 1108 1107
f 964 910 976
f 979 976 943
f 976 979 964
f 985 974 306
f 986 974 985
f 974 986 973
f 943 969 306
f 984 957 1107
f 909 986 985
f 969 985 306
f 985 969 909
f 973 986 1107
f 986 909 1107
f 983 957 984
f 988 134 11
f 989 134 988
f 12 966 1107
f 990 991 980
f 977 989 1107
f 971 977 1107
f 957 973 1107
f 974 425 306
f 425 974 973
f 984 991 992
f 980 991 1107
f 991 984 1107
f 992 990 306
f 991 990 992
f 134 989 977
f 977 971 975
f 983 992 306
f 992 983 984
f 18 20 1046
f 994 9 11
f 9 994 966
f 989 980 1107
f 980 989 988
f 990 988 11
f 988 990 980
f 306 990 11
f 994 967 966
f 972 971 1107
f 996 997 998
f 996 998 1107
f 999 1000 1115
f 1001 1002 1003
f 137 994 11
f 967 994 137
f 995 12 1107
f 12 995 10
f 972 967 137
f 967 972 1107
f 966 12 9
f 970 137 11
f 137 970 972
f 1005 1006 1107
f 987 997 11
f 998 997 987
f 998 987 995
f 10 987 11
f 987 10 995
f 998 995 1107
f 11 997 1004
f 1005 1009 1006
f 1010 19 1011
f 20 19 1010
f 1006 996 1107
f 1012 1009 1004
f 1006 1009 1012
f 1006 1012 996
f 997 1012 1004
f 1012 997 996
f 1008 993 1011
f 993 1008 1014
f 981 1015 1115
f 1003 1017 1115
f 1018 1014 1115
f 981 1019 1015
f 1000 981 1115
f 1015 1107 1115
f 1014 1001 1115
f 1020 1019 1004
f 1015 1019 1020
f 1018 993 1014
f 1021 1002 1004
f 1002 1021 1003
f 1009 1020 1004
f 1020 1009 1005
f 1015 1020 1005
f 1015 1005 1107
f 1001 1003 1115
f 1019 1022 1004
f 1022 1019 981
f 1000 1022 981
f 1022 1024 1004
f 1000 1024 1022
f 999 1024 1000
f 1007 1025 1018
f 993 1025 1011
f 1018 1025 993
f 1017 999 1115
f 1024 1027 1004
f 1027 1024 999
f 1017 1027 999
f 1028 1029 1104
f 1002 1008 1011
f 1001 1008 1002
f 20 1010 1007
f 1027 1021 1004
f 1017 1021 1027
f 1003 1021 1017
f 1014 1008 1001
f 1030 1031 1032
f 1004 1002 1011
f 1007 1018 1046
f 1018 1115 1046
f 1016 1033 1096
f 1034 1033 1016
f 1029 1035 1104
f 1036 1037 1038
f 1035 1013 1039
f 1040 1031 1044
f 1032 1031 1040
f 1025 1010 1011
f 1010 1025 1007
f 20 1007 1046
f 1042 15 1096
f 33 15 1042
f 1043 1033 1034
f 17 33 1046
f 16 1016 1096
f 1045 1016 16
f 1047 14 935
f 1048 14 1047
f 1049 1050 935
f 2 1050 1049
f 13 1030 1104
f 1045 16 17
f 1045 17 1046
f 1011 19 1096
f 1034 1016 1045
f 1026 1043 1046
f 1029 1051 1035
f 33 18 1046
f 33 1042 18
f 19 1042 1096
f 1042 19 18
f 1052 1053 1044
f 13 1053 1052
f 1034 1045 1046
f 1096 1033 1054
f 1033 1055 1054
f 1043 1055 1033
f 1026 1055 1043
f 1013 1051 1054
f 1035 1051 1013
f 1057 1040 1044
f 1028 1040 1057
f 1058 1059 1087
f 1032 1040 1028
f 13 1052 1030
f 1035 1046 1104
f 1023 1061 1087
f 1035 1039 1046
f 1043 1034 1046
f 1060 1013 1054
f 1039 1013 1060
f 1053 1037 1044
f 1038 1037 1053
f 1030 1032 1104
f 1062 1063 1064
f 1039 1060 1026
f 1039 1026 1046
f 1055 1060 1054
f 1026 1060 1055
f 1041 1065 1087
f 1032 1028 1104
f 1051 1057 1044
f 1029 1057 1051
f 1054 1051 1044
f 1028 1057 1029
f 1059 1066 1023
f 1064 1067 1068
f 1059 1023 1087
f 4 1069 5
f 1037 1070 1044
f 1036 1070 1037
f 1036 1038 1104
f 1038 1053 13
f 1068 1071 1072
f 1061 4 1104
f 2 1041 1087
f 1074 1066 935
f 1023 1066 1074
f 1031 1052 1044
f 1030 1052 1031
f 5 1070 1036
f 1038 13 1104
f 5 1036 1104
f 2 1087 1078
f 1069 1075 935
f 4 1075 1069
f 1061 1075 4
f 1023 1074 1061
f 1075 1074 935
f 1061 1074 1075
f 1041 1077 1065
f 1070 1069 935
f 5 1069 1070
f 1044 1070 935
f 1061 1104 1087
f 1048 1058 1087
f 1072 1079 1076
f 1 1050 2
f 1076 1 1078
f 1065 1048 1087
f 1058 1056 1059
f 2 1049 1041
f 1056 1047 935
f 1058 1047 1056
f 14 1077 935
f 1065 1077 14
f 1048 1047 1058
f 1072 1076 1078
f 1065 14 1048
f 1066 1056 935
f 1059 1056 1066
f 1081 1079 1106
f 1076 1079 1081
f 935 1050 1106
f 1050 1081 1106
f 1 1081 1050
f 1080 1082 1106
f 1083 1082 1080
f 1068 1072 1078
f 1067 1063 1106
f 1063 1067 1064
f 1077 1049 935
f 1041 1049 1077
f 1076 1081 1
f 1071 1067 1106
f 1068 1067 1071
f 1064 1068 1078
f 1063 1073 1106
f 1062 1073 1063
f 1084 1073 1062
f 1082 1088 1106
f 1078 1088 1082
f 1079 1071 1106
f 1072 1071 1079
f 1062 1064 1078
f 1084 1062 1078
f 1078 1082 1083
f 1083 1080 1084
f 1073 1080 1106
f 1084 1080 1073
f 1083 1084 1078
f 681 732 669
f 762 513 669
f 760 802 669
f 802 762 669
f 253 572 206
f 556 572 548
f 548 572 1127
f 509 660 503
f 760 548 660
f 540 552 835
f 810 1102 814
f 618 810 814
f 816 1118 740
f 740 819 1089
f 540 835 1127
f 740 1085 730
f 743 1127 835
f 816 740 1127
f 206 540 572
f 206 763 837
f 837 664 206
f 664 1101 206
f 206 1101 540
f 213 206 843
f 545 1117 119
f 254 1117 545
f 1117 316 1100
f 1117 1100 143
f 1117 143 704
f 1091 1117 856
f 845 853 1117
f 1117 704 856
f 1111 1114 193
f 845 1117 1091
f 1117 853 858
f 1090 1117 858
f 1116 982 1095
f 851 1116 960
f 960 1116 1095
f 707 1116 851
f 1105 891 1108
f 11 954 901
f 943 11 901
f 11 943 306
f 11 1004 1011
f 1011 1106 11
f 1115 1087 1046
f 1096 1106 1011
f 1096 1054 1106
f 1106 1054 1044
f 1104 1046 1087
f 935 1106 1044
f 1102 810 609
f 687 810 618
f 687 1092 740
f 740 810 687
f 740 1092 1094
f 1094 819 740
f 826 1085 740
f 206 730 1086
f 763 206 1086
f 1127 740 1106
f 206 213 119
f 1117 206 119
f 1110 1127 1106
f 1090 982 1116
f 1090 1116 1117
f 1108 1110 1106
f 954 11 1116
f 11 1106 1116
f 1088 1108 1106
f 206 740 730
f 206 1117 740
f 548 556 1097
f 327 578 556
f 720 1098 35
f 503 556 578
f 660 556 503
f 556 660 548
f 1112 818 1109
f 572 540 1127
f 1118 1093 471
f 1112 816 525
f 816 1127 525
f 525 1127 743
f 410 1103 1127
f 1127 1110 1111
f 891 878 1108
f 1108 1088 1115
f 1078 1087 1088
f 810 740 1118
f 740 1116 1106
f 740 1117 1116
f 35 1111 720
f 1129 1119 1120
f 572 556 1127
f 556 548 1127
f 1093 816 806
f 1108 878 1110
f 1114 1111 1110
f 1112 1109 816
f 1111 1099 1127
f 410 1127 1099
f 1099 1111 35
f 1107 1108 1115
f 1087 1115 1088
f 1093 1118 816
f 1126 1128 1124
f 1119 1126 1124
f 1130 1120 1121
f 1122 1121 1124
f 1124 1128 1122
f 1128 1123 1122
f 1128 1126 1123
f 1120 1119 1121
f 1121 1119 1124
f 1126 1119 1125
f 1126 1118 1123
f 1113 1118 1126
f 1125 1129 1123
f 1125 1119 1129
f 1130 1122 1123
f 1122 1130 1121
f 1129 1130 1123
f 1129 1120 1130
f 1125 1113 1126
f 1125 1123 1113
f 556 61 1118
f 1118 503 556
f 1118 362 810
f 503 282 556
f 1118 503 1123
f 503 1118 471
f 1113 503 1118
f 1123 503 1113

